<?xml version="1.0" encoding="UTF-8"?>
<svg height="23" viewBox="0 0 23 23" width="23" xmlns="http://www.w3.org/2000/svg" id="art-gallery" xmlns:m="https://www.mapbox.com">
  <path d="m10.71 3-2.86-2.849996c-.1945-.1960996-.511-.1973996-.7071-.0029-.001.001-.0019.0019-.0029.0029l-2.85 2.849996h-2.79c-.2761 0-.5.2239-.5.5v9c0 .2761.2239.5.5.5h12c.2761 0 .5-.2239.5-.5v-9c0-.2761-.2239-.5-.5-.5zm-3.21-1.79 1.79 1.79h-3.58zm5.5 10.79h-11v-8h11zm-8-5c-.5523 0-1-.4477-1-1s.4477-1 1-1 1 .4477 1 1-.4477 1-1 1zm7 4h-7.5l1.5-3 1.25 2.5 2.25-4.5z" transform="translate(4 4)" fill="#000000" style="stroke-linejoin:round;stroke-miterlimit:4;" stroke="#ffffff" stroke-width="4"/>
  <path d="m10.71 3-2.86-2.849996c-.1945-.1960996-.511-.1973996-.7071-.0029-.001.001-.0019.0019-.0029.0029l-2.85 2.849996h-2.79c-.2761 0-.5.2239-.5.5v9c0 .2761.2239.5.5.5h12c.2761 0 .5-.2239.5-.5v-9c0-.2761-.2239-.5-.5-.5zm-3.21-1.79 1.79 1.79h-3.58zm5.5 10.79h-11v-8h11zm-8-5c-.5523 0-1-.4477-1-1s.4477-1 1-1 1 .4477 1 1-.4477 1-1 1zm7 4h-7.5l1.5-3 1.25 2.5 2.25-4.5z" transform="translate(4 4)" fill="#000000"/>
  <m:metadata>
    <m:parameters>
      <m:parameter m:name="background" m:type="color" m:value="#000000"/>
      <m:parameter m:name="stroke" m:type="color" m:value="#ffffff"/>
    </m:parameters>
  </m:metadata>
</svg>