<?xml version="1.0" encoding="UTF-8"?>
<svg height="23" viewBox="0 0 23 23" width="23" xmlns="http://www.w3.org/2000/svg" id="blood-bank" xmlns:m="https://www.mapbox.com">
  <path d="m11.2 6.1-3.7-5.1-3.7 5.1c-.5.7-.8 1.6-.8 2.5 0 2.4 2 4.4 4.5 4.4s4.5-2 4.5-4.4c0-.9-.3-1.8-.8-2.5zm-1.2 2.9h-2v2h-1v-2h-2v-1h2v-2h1v2h2z" transform="translate(4 4)" fill="#000000" style="stroke-linejoin:round;stroke-miterlimit:4;" stroke="#ffffff" stroke-width="4"/>
  <path d="m11.2 6.1-3.7-5.1-3.7 5.1c-.5.7-.8 1.6-.8 2.5 0 2.4 2 4.4 4.5 4.4s4.5-2 4.5-4.4c0-.9-.3-1.8-.8-2.5zm-1.2 2.9h-2v2h-1v-2h-2v-1h2v-2h1v2h2z" transform="translate(4 4)" fill="#000000"/>
  <m:metadata>
    <m:parameters>
      <m:parameter m:name="background" m:type="color" m:value="#000000"/>
      <m:parameter m:name="stroke" m:type="color" m:value="#ffffff"/>
    </m:parameters>
  </m:metadata>
</svg>