<?xml version="1.0" encoding="UTF-8"?>
<svg height="23" viewBox="0 0 23 23" width="23" xmlns="http://www.w3.org/2000/svg" id="bridge" xmlns:m="https://www.mapbox.com">
  <path d="m0 6.84201v4.15799h2v-1c.036-1.08899.911-1.96399 2-1.99999 1.089.036 1.964.911 2 1.99999v1h3v-1c.036-1.08899.911-1.96399 2-1.99999 1.089.036 1.964.911 2 1.99999v1h2v-4.15799c-4.4-5.76-11.929-4.442-15 0zm9.5-3.108c.514.121 1.016.289 1.5.5v2.766h-1.5zm-.5-.1v3.366h-1.5v-3.494c.503 0 1.005.043 1.5.128zm-5.5.843c.48-.248.982-.451 1.5-.606v3.129h-1.5zm2 2.523v-3.27c.493-.115.995-.187 1.5-.215v3.485zm-2.5-2.256v2.256h-2.5c.676-.906 1.532-1.672 2.5-2.256zm8.5 2.256v-2.5l-.053-.053c1.202.603 2.247 1.477 3.053 2.553z" transform="translate(4 4)" fill="#000000" style="stroke-linejoin:round;stroke-miterlimit:4;" stroke="#ffffff" stroke-width="4"/>
  <path d="m0 6.84201v4.15799h2v-1c.036-1.08899.911-1.96399 2-1.99999 1.089.036 1.964.911 2 1.99999v1h3v-1c.036-1.08899.911-1.96399 2-1.99999 1.089.036 1.964.911 2 1.99999v1h2v-4.15799c-4.4-5.76-11.929-4.442-15 0zm9.5-3.108c.514.121 1.016.289 1.5.5v2.766h-1.5zm-.5-.1v3.366h-1.5v-3.494c.503 0 1.005.043 1.5.128zm-5.5.843c.48-.248.982-.451 1.5-.606v3.129h-1.5zm2 2.523v-3.27c.493-.115.995-.187 1.5-.215v3.485zm-2.5-2.256v2.256h-2.5c.676-.906 1.532-1.672 2.5-2.256zm8.5 2.256v-2.5l-.053-.053c1.202.603 2.247 1.477 3.053 2.553z" transform="translate(4 4)" fill="#000000"/>
  <m:metadata>
    <m:parameters>
      <m:parameter m:name="background" m:type="color" m:value="#000000"/>
      <m:parameter m:name="stroke" m:type="color" m:value="#ffffff"/>
    </m:parameters>
  </m:metadata>
</svg>