<?xml version="1.0" encoding="UTF-8"?>
<svg version="1.1" id="building" xmlns="http://www.w3.org/2000/svg" width="23" height="23" viewBox="0 0 23 23" xmlns:m="https://www.mapbox.com">
  <path d="M3,2v11h5v-3h3v3h1V2H3z M7,12H4v-2h3V12z M7,9H4V7h3V9z M7,6H4V4h3V6z M11,9H8V7h3V9z M11,6H8V4h3V6z" transform="translate(4 4)" fill="#000000" style="stroke-linejoin:round;stroke-miterlimit:4;" stroke="#ffffff" stroke-width="4"/>
  <path d="M3,2v11h5v-3h3v3h1V2H3z M7,12H4v-2h3V12z M7,9H4V7h3V9z M7,6H4V4h3V6z M11,9H8V7h3V9z M11,6H8V4h3V6z" transform="translate(4 4)" fill="#000000"/>
  <m:metadata>
    <m:parameters>
      <m:parameter m:name="background" m:type="color" m:value="#000000"/>
      <m:parameter m:name="stroke" m:type="color" m:value="#ffffff"/>
    </m:parameters>
  </m:metadata>
</svg>