<?xml version="1.0" encoding="UTF-8"?>
<svg width="23" height="23" viewBox="0 0 23 23" xmlns="http://www.w3.org/2000/svg" id="campsite" xmlns:m="https://www.mapbox.com">
  <path d="M14 10V11C14 11.5523 13.5523 12 13 12H2C1.44772 12 1 11.5523 1 11V10C1 9.44772 1.44772 9.00001 2 9.00001H2.25L7.03206 1.25762C7.24699 0.90965 7.75302 0.909651 7.96794 1.25762L12.75 9.00001H13C13.5523 9.00001 14 9.44772 14 10ZM10.5 9.00001L7.5 4.00001L4.5 9.00001H10.5Z" transform="translate(4 4)" fill="#000000" style="stroke-linejoin:round;stroke-miterlimit:4;" stroke="#ffffff" stroke-width="4"/>
  <path d="M14 10V11C14 11.5523 13.5523 12 13 12H2C1.44772 12 1 11.5523 1 11V10C1 9.44772 1.44772 9.00001 2 9.00001H2.25L7.03206 1.25762C7.24699 0.90965 7.75302 0.909651 7.96794 1.25762L12.75 9.00001H13C13.5523 9.00001 14 9.44772 14 10ZM10.5 9.00001L7.5 4.00001L4.5 9.00001H10.5Z" transform="translate(4 4)" fill="#000000"/>
  <m:metadata>
    <m:parameters>
      <m:parameter m:name="background" m:type="color" m:value="#000000"/>
      <m:parameter m:name="stroke" m:type="color" m:value="#ffffff"/>
    </m:parameters>
  </m:metadata>
</svg>