<?xml version="1.0" encoding="UTF-8"?>
<svg width="23" height="23" viewBox="0 0 23 23" xmlns="http://www.w3.org/2000/svg" id="caution" xmlns:m="https://www.mapbox.com">
  <path d="M1.09302 11.8924L6.84044 1.3905C7.12539 0.869834 7.87461 0.869834 8.15956 1.3905L13.907 11.8924C14.1805 12.3922 13.818 13.0019 13.2474 13.0019H1.75258C1.18195 13.0019 0.819505 12.3922 1.09302 11.8924ZM8.29999 8L8.70296 5.5822C8.75375 5.27743 8.51873 5 8.20976 5H6.79022C6.48125 5 6.24623 5.27743 6.29703 5.5822L6.69999 8H8.29999ZM8.59999 9.9C8.59999 9.29249 8.10751 8.8 7.49999 8.8C6.89248 8.8 6.39999 9.29249 6.39999 9.9C6.39999 10.5075 6.89248 11 7.49999 11C8.10751 11 8.59999 10.5075 8.59999 9.9Z" transform="translate(4 4)" fill="#000000" style="stroke-linejoin:round;stroke-miterlimit:4;" stroke="#ffffff" stroke-width="4"/>
  <path d="M1.09302 11.8924L6.84044 1.3905C7.12539 0.869834 7.87461 0.869834 8.15956 1.3905L13.907 11.8924C14.1805 12.3922 13.818 13.0019 13.2474 13.0019H1.75258C1.18195 13.0019 0.819505 12.3922 1.09302 11.8924ZM8.29999 8L8.70296 5.5822C8.75375 5.27743 8.51873 5 8.20976 5H6.79022C6.48125 5 6.24623 5.27743 6.29703 5.5822L6.69999 8H8.29999ZM8.59999 9.9C8.59999 9.29249 8.10751 8.8 7.49999 8.8C6.89248 8.8 6.39999 9.29249 6.39999 9.9C6.39999 10.5075 6.89248 11 7.49999 11C8.10751 11 8.59999 10.5075 8.59999 9.9Z" transform="translate(4 4)" fill="#000000"/>
  <m:metadata>
    <m:parameters>
      <m:parameter m:name="background" m:type="color" m:value="#000000"/>
      <m:parameter m:name="stroke" m:type="color" m:value="#ffffff"/>
    </m:parameters>
  </m:metadata>
</svg>