<?xml version="1.0" encoding="UTF-8"?>
<svg id="cemetery-JP" xmlns="http://www.w3.org/2000/svg" width="23" height="23" viewBox="0 0 23 23" xmlns:m="https://www.mapbox.com">
  <path d="M11.5,11h-3V2.5a.9448.9448,0,0,0-1-1,.9448.9448,0,0,0-1,1V11h-3a1,1,0,0,0,0,2h8a.9448.9448,0,0,0,1-1A1.0022,1.0022,0,0,0,11.5,11Z" transform="translate(4 4)" fill="#000000" style="stroke-linejoin:round;stroke-miterlimit:4;" stroke="#ffffff" stroke-width="4"/>
  <path d="M11.5,11h-3V2.5a.9448.9448,0,0,0-1-1,.9448.9448,0,0,0-1,1V11h-3a1,1,0,0,0,0,2h8a.9448.9448,0,0,0,1-1A1.0022,1.0022,0,0,0,11.5,11Z" transform="translate(4 4)" fill="#000000"/>
  <m:metadata>
    <m:parameters>
      <m:parameter m:name="background" m:type="color" m:value="#000000"/>
      <m:parameter m:name="stroke" m:type="color" m:value="#ffffff"/>
    </m:parameters>
  </m:metadata>
</svg>