<?xml version="1.0" encoding="UTF-8"?>
<svg version="1.1" id="cemetery" xmlns="http://www.w3.org/2000/svg" width="23" height="23" viewBox="0 0 23 23" xmlns:m="https://www.mapbox.com">
  <path d="M11.46,12h-0.68L12,3.55c0.0175-0.2867-0.2008-0.5332-0.4874-0.5507C11.4884,2.9979,11.4641,2.9981,11.44,3h-1.18&#xA;&#x9;c0-0.92-1.23-2-2.75-2S4.77,2.08,4.77,3H3.54C3.253,2.9885,3.0111,3.2117,2.9995,3.4987C2.9988,3.5158,2.999,3.5329,3,3.55L4.2,12&#xA;&#x9;H3.55C3.2609,11.9886,3.0162,12.2112,3,12.5V14h9v-1.51C11.9839,12.2067,11.7435,11.9886,11.46,12z M4.5,5h6v1h-6V5z" transform="translate(4 4)" fill="#000000" style="stroke-linejoin:round;stroke-miterlimit:4;" stroke="#ffffff" stroke-width="4"/>
  <path d="M11.46,12h-0.68L12,3.55c0.0175-0.2867-0.2008-0.5332-0.4874-0.5507C11.4884,2.9979,11.4641,2.9981,11.44,3h-1.18&#xA;&#x9;c0-0.92-1.23-2-2.75-2S4.77,2.08,4.77,3H3.54C3.253,2.9885,3.0111,3.2117,2.9995,3.4987C2.9988,3.5158,2.999,3.5329,3,3.55L4.2,12&#xA;&#x9;H3.55C3.2609,11.9886,3.0162,12.2112,3,12.5V14h9v-1.51C11.9839,12.2067,11.7435,11.9886,11.46,12z M4.5,5h6v1h-6V5z" transform="translate(4 4)" fill="#000000"/>
  <m:metadata>
    <m:parameters>
      <m:parameter m:name="background" m:type="color" m:value="#000000"/>
      <m:parameter m:name="stroke" m:type="color" m:value="#ffffff"/>
    </m:parameters>
  </m:metadata>
</svg>