<?xml version="1.0" encoding="UTF-8"?>
<svg height="23" viewBox="0 0 23 23" width="23" xmlns="http://www.w3.org/2000/svg" id="commercial" xmlns:m="https://www.mapbox.com">
  <path d="m14 6h-13c.0881-1.3829.427-2.7383 1-4h11c.5731 1.2617.9119 2.6171 1 4zm-11 1h9v6h-1v-5h-3v5h-5zm1 3h3v-2h-3z" transform="translate(4 4)" fill="#000000" style="stroke-linejoin:round;stroke-miterlimit:4;" stroke="#ffffff" stroke-width="4"/>
  <path d="m14 6h-13c.0881-1.3829.427-2.7383 1-4h11c.5731 1.2617.9119 2.6171 1 4zm-11 1h9v6h-1v-5h-3v5h-5zm1 3h3v-2h-3z" transform="translate(4 4)" fill="#000000"/>
  <m:metadata>
    <m:parameters>
      <m:parameter m:name="background" m:type="color" m:value="#000000"/>
      <m:parameter m:name="stroke" m:type="color" m:value="#ffffff"/>
    </m:parameters>
  </m:metadata>
</svg>