<?xml version="1.0" encoding="UTF-8"?>
<svg width="23" height="23" viewBox="0 0 23 23" xmlns="http://www.w3.org/2000/svg" id="construction" xmlns:m="https://www.mapbox.com">
  <path d="M13.5 11h-1.8L8.2.5C8-.2 7-.2 6.8.5L3.3 11H1.5c-.3 0-.5.2-.5.5v1c0 .3.2.5.5.5h12c.3 0 .5-.2.5-.5v-1c0-.3-.2-.5-.5-.5ZM7 3h1l.7 2H6.4L7 3ZM5.7 7h3.6l.7 2H5l.7-2Z" transform="translate(4 4)" fill="#000000" style="stroke-linejoin:round;stroke-miterlimit:4;" stroke="#ffffff" stroke-width="4"/>
  <path d="M13.5 11h-1.8L8.2.5C8-.2 7-.2 6.8.5L3.3 11H1.5c-.3 0-.5.2-.5.5v1c0 .3.2.5.5.5h12c.3 0 .5-.2.5-.5v-1c0-.3-.2-.5-.5-.5ZM7 3h1l.7 2H6.4L7 3ZM5.7 7h3.6l.7 2H5l.7-2Z" transform="translate(4 4)" fill="#000000"/>
  <m:metadata>
    <m:parameters>
      <m:parameter m:name="background" m:type="color" m:value="#000000"/>
      <m:parameter m:name="stroke" m:type="color" m:value="#ffffff"/>
    </m:parameters>
  </m:metadata>
</svg>