<?xml version="1.0" encoding="UTF-8"?>
<svg height="23" viewBox="0 0 23 23" width="23" xmlns="http://www.w3.org/2000/svg" id="farm" xmlns:m="https://www.mapbox.com">
  <path d="m8 6-3-2-3 2-1 2v4h2v-2h4v2h2v-4zm-2 2h-2v-2h2zm8 4h-3v-9.5c0-.39782.158-.77936.4393-1.06066s.6629-.43934 1.0607-.43934.7794.15804 1.0607.43934.4393.66284.4393 1.06066z" transform="translate(4 4)" fill="#000000" style="stroke-linejoin:round;stroke-miterlimit:4;" stroke="#ffffff" stroke-width="4"/>
  <path d="m8 6-3-2-3 2-1 2v4h2v-2h4v2h2v-4zm-2 2h-2v-2h2zm8 4h-3v-9.5c0-.39782.158-.77936.4393-1.06066s.6629-.43934 1.0607-.43934.7794.15804 1.0607.43934.4393.66284.4393 1.06066z" transform="translate(4 4)" fill="#000000"/>
  <m:metadata>
    <m:parameters>
      <m:parameter m:name="background" m:type="color" m:value="#000000"/>
      <m:parameter m:name="stroke" m:type="color" m:value="#ffffff"/>
    </m:parameters>
  </m:metadata>
</svg>