<?xml version="1.0" encoding="UTF-8"?>
<svg height="23" viewBox="0 0 23 23" width="23" xmlns="http://www.w3.org/2000/svg" id="heart" xmlns:m="https://www.mapbox.com">
  <path d="m13.91 7.75001c-1.17 2.24999-4.30002 5.30999-6.07002 6.93999-.1903.1718-.4797.1718-.67 0-1.78-1.63-4.91-4.69-6.08-6.93999-2.57-4.95 3.91-8.250002 6.41-3.3 2.5-4.950002 8.98002-1.65 6.41002 3.3z" transform="translate(4 4)" fill="#000000" style="stroke-linejoin:round;stroke-miterlimit:4;" stroke="#ffffff" stroke-width="4"/>
  <path d="m13.91 7.75001c-1.17 2.24999-4.30002 5.30999-6.07002 6.93999-.1903.1718-.4797.1718-.67 0-1.78-1.63-4.91-4.69-6.08-6.93999-2.57-4.95 3.91-8.250002 6.41-3.3 2.5-4.950002 8.98002-1.65 6.41002 3.3z" transform="translate(4 4)" fill="#000000"/>
  <m:metadata>
    <m:parameters>
      <m:parameter m:name="background" m:type="color" m:value="#000000"/>
      <m:parameter m:name="stroke" m:type="color" m:value="#ffffff"/>
    </m:parameters>
  </m:metadata>
</svg>