<?xml version="1.0" encoding="UTF-8"?>
<svg version="1.1" id="historic" xmlns="http://www.w3.org/2000/svg" width="23" height="23" viewBox="0 0 23 23" xmlns:m="https://www.mapbox.com">
  <path d="m7.5 1c-1 0-1 1-2 1h-3.5c-.54467 0-1 .45533-1 1v7c0 .5447.45533 1 1 1h5v2.5s0 .5.5.5.5-.5.5-.5v-2.5h5c.5447 0 1-.4553 1-1v-7c0-.54467-.4553-1-1-1h-3.5c-1 0-1-1-2-1zm-4.5 4v-1h9v1zm0 1h4v1h-4zm0 2h7v1h-7z" transform="translate(4 4)" fill="#000000" style="stroke-linejoin:round;stroke-miterlimit:4;" stroke="#ffffff" stroke-width="4"/>
  <path d="m7.5 1c-1 0-1 1-2 1h-3.5c-.54467 0-1 .45533-1 1v7c0 .5447.45533 1 1 1h5v2.5s0 .5.5.5.5-.5.5-.5v-2.5h5c.5447 0 1-.4553 1-1v-7c0-.54467-.4553-1-1-1h-3.5c-1 0-1-1-2-1zm-4.5 4v-1h9v1zm0 1h4v1h-4zm0 2h7v1h-7z" transform="translate(4 4)" fill="#000000"/>
  <m:metadata>
    <m:parameters>
      <m:parameter m:name="background" m:type="color" m:value="#000000"/>
      <m:parameter m:name="stroke" m:type="color" m:value="#ffffff"/>
    </m:parameters>
  </m:metadata>
</svg>