<?xml version="1.0" encoding="UTF-8"?>
<svg version="1.1" xmlns="http://www.w3.org/2000/svg" width="23" height="23" viewBox="0 0 23 23" id="home" xmlns:m="https://www.mapbox.com">
  <path d="M2,13.7478c0,0.13807,0.11193,0.25,0.25,0.25h3.749v-3h3v3h3.749c0.13807,0,0.25-0.11193,0.25-0.25V7.9987H2&#xA;&#x9;C2,7.9987,2,13.7478,2,13.7478z M13.93,6.5778l-0.9319-0.8189V2c0-0.55228-0.44771-1-1-1s-1,0.44772-1,1v2L7.6808,1.09&#xA;&#x9;C7.5863,0.9897,7.42846,0.98478,7.3279,1.079L7.3169,1.09L1.0678,6.553C0.9734,6.65376,0.97856,6.81197,1.07932,6.90637&#xA;&#x9;C1.12478,6.94896,1.18451,6.97304,1.2468,6.9739L3,6.9989h10.7468c0.13807,0.00046,0.25037-0.1111,0.25083-0.24917&#xA;&#x9;C13.99784,6.68592,13.97365,6.62445,13.93,6.5779V6.5778z" transform="translate(4 4)" fill="#000000" style="stroke-linejoin:round;stroke-miterlimit:4;" stroke="#ffffff" stroke-width="4"/>
  <path d="M2,13.7478c0,0.13807,0.11193,0.25,0.25,0.25h3.749v-3h3v3h3.749c0.13807,0,0.25-0.11193,0.25-0.25V7.9987H2&#xA;&#x9;C2,7.9987,2,13.7478,2,13.7478z M13.93,6.5778l-0.9319-0.8189V2c0-0.55228-0.44771-1-1-1s-1,0.44772-1,1v2L7.6808,1.09&#xA;&#x9;C7.5863,0.9897,7.42846,0.98478,7.3279,1.079L7.3169,1.09L1.0678,6.553C0.9734,6.65376,0.97856,6.81197,1.07932,6.90637&#xA;&#x9;C1.12478,6.94896,1.18451,6.97304,1.2468,6.9739L3,6.9989h10.7468c0.13807,0.00046,0.25037-0.1111,0.25083-0.24917&#xA;&#x9;C13.99784,6.68592,13.97365,6.62445,13.93,6.5779V6.5778z" transform="translate(4 4)" fill="#000000"/>
  <m:metadata>
    <m:parameters>
      <m:parameter m:name="background" m:type="color" m:value="#000000"/>
      <m:parameter m:name="stroke" m:type="color" m:value="#ffffff"/>
    </m:parameters>
  </m:metadata>
</svg>