<?xml version="1.0" encoding="UTF-8"?>
<svg xmlns="http://www.w3.org/2000/svg" width="23" height="23" viewBox="0 0 23 23" id="ice-cream" xmlns:m="https://www.mapbox.com">
  <path d="M5.44,8.17a3.473,3.473,0,0,0,2-.63A3.5,3.5,0,0,0,9,8.14h.44L8,13.7a.5.5,0,0,1-.92,0Zm6-3.473a2,2,0,0,1-4,0h0a2,2,0,1,1-2-2h.12a2,2,0,1,1,3.75,0h.13A2,2,0,0,1,11.439,4.7Z" transform="translate(4 4)" fill="#000000" style="stroke-linejoin:round;stroke-miterlimit:4;" stroke="#ffffff" stroke-width="4"/>
  <path d="M5.44,8.17a3.473,3.473,0,0,0,2-.63A3.5,3.5,0,0,0,9,8.14h.44L8,13.7a.5.5,0,0,1-.92,0Zm6-3.473a2,2,0,0,1-4,0h0a2,2,0,1,1-2-2h.12a2,2,0,1,1,3.75,0h.13A2,2,0,0,1,11.439,4.7Z" transform="translate(4 4)" fill="#000000"/>
  <m:metadata>
    <m:parameters>
      <m:parameter m:name="background" m:type="color" m:value="#000000"/>
      <m:parameter m:name="stroke" m:type="color" m:value="#ffffff"/>
    </m:parameters>
  </m:metadata>
</svg>