<?xml version="1.0" encoding="UTF-8"?>
<svg width="23" height="23" viewBox="0 0 23 23" xmlns="http://www.w3.org/2000/svg" id="lift-gate" xmlns:m="https://www.mapbox.com">
  <path d="M1 4a2 2 0 1 1 4 0v8a1 1 0 0 1-1 1H2a1 1 0 0 1-1-1V4Zm3 0a1 1 0 1 0-2 0 1 1 0 0 0 2 0Zm4.5 2L7 3H6v3h2.5ZM10 6h1.5L10 3H8.5L10 6Zm3.25 0H13l-1.5-3h1.75a.75.75 0 0 1 .75.75v1.5a.75.75 0 0 1-.75.75Z" transform="translate(4 4)" fill="#000000" style="stroke-linejoin:round;stroke-miterlimit:4;" stroke="#ffffff" stroke-width="4"/>
  <path d="M1 4a2 2 0 1 1 4 0v8a1 1 0 0 1-1 1H2a1 1 0 0 1-1-1V4Zm3 0a1 1 0 1 0-2 0 1 1 0 0 0 2 0Zm4.5 2L7 3H6v3h2.5ZM10 6h1.5L10 3H8.5L10 6Zm3.25 0H13l-1.5-3h1.75a.75.75 0 0 1 .75.75v1.5a.75.75 0 0 1-.75.75Z" transform="translate(4 4)" fill="#000000"/>
  <m:metadata>
    <m:parameters>
      <m:parameter m:name="background" m:type="color" m:value="#000000"/>
      <m:parameter m:name="stroke" m:type="color" m:value="#ffffff"/>
    </m:parameters>
  </m:metadata>
</svg>