<?xml version="1.0" encoding="UTF-8"?>
<svg id="mobile-phone" xmlns="http://www.w3.org/2000/svg" width="23" height="23" viewBox="0 0 23 23" xmlns:m="https://www.mapbox.com">
  <path d="M10,2h0V1.5a.5.5,0,0,0-1,0V2H5A1,1,0,0,0,4,3V13a1,1,0,0,0,1,1h5a1,1,0,0,0,1-1V3A1,1,0,0,0,10,2ZM6,13H5V12H6Zm0-2H5V10H6ZM6,9H5V8H6Zm2,4H7V12H8Zm0-2H7V10H8ZM8,9H7V8H8Zm2,4H9V12h1Zm0-2H9V10h1Zm0-2H9V8h1Zm0-2.5a.5.5,0,0,1-.5.5h-4A.5.5,0,0,1,5,6.5v-3A.5.5,0,0,1,5.5,3h4a.5.5,0,0,1,.5.5Z" transform="translate(4 4)" fill="#000000" style="stroke-linejoin:round;stroke-miterlimit:4;" stroke="#ffffff" stroke-width="4"/>
  <path d="M10,2h0V1.5a.5.5,0,0,0-1,0V2H5A1,1,0,0,0,4,3V13a1,1,0,0,0,1,1h5a1,1,0,0,0,1-1V3A1,1,0,0,0,10,2ZM6,13H5V12H6Zm0-2H5V10H6ZM6,9H5V8H6Zm2,4H7V12H8Zm0-2H7V10H8ZM8,9H7V8H8Zm2,4H9V12h1Zm0-2H9V10h1Zm0-2H9V8h1Zm0-2.5a.5.5,0,0,1-.5.5h-4A.5.5,0,0,1,5,6.5v-3A.5.5,0,0,1,5.5,3h4a.5.5,0,0,1,.5.5Z" transform="translate(4 4)" fill="#000000"/>
  <m:metadata>
    <m:parameters>
      <m:parameter m:name="background" m:type="color" m:value="#000000"/>
      <m:parameter m:name="stroke" m:type="color" m:value="#ffffff"/>
    </m:parameters>
  </m:metadata>
</svg>