<?xml version="1.0" encoding="UTF-8"?>
<svg version="1.1" id="monument-JP" xmlns="http://www.w3.org/2000/svg" width="23" height="23" viewBox="0 0 23 23" xmlns:m="https://www.mapbox.com">
  <path d="M12,13H4c-0.5,0-1-0.5-1-1V5c0-2,0.8-4,4-4c3.1,0,4,2,4,4v6h1c0.5,0,1,0.5,1,1S12.5,13,12,13z M5,11h4V5c0-1,0-2-2-2&#xA;&#x9;S5,4,5,5V11z" transform="translate(4 4)" fill="#000000" style="stroke-linejoin:round;stroke-miterlimit:4;" stroke="#ffffff" stroke-width="4"/>
  <path d="M12,13H4c-0.5,0-1-0.5-1-1V5c0-2,0.8-4,4-4c3.1,0,4,2,4,4v6h1c0.5,0,1,0.5,1,1S12.5,13,12,13z M5,11h4V5c0-1,0-2-2-2&#xA;&#x9;S5,4,5,5V11z" transform="translate(4 4)" fill="#000000"/>
  <m:metadata>
    <m:parameters>
      <m:parameter m:name="background" m:type="color" m:value="#000000"/>
      <m:parameter m:name="stroke" m:type="color" m:value="#ffffff"/>
    </m:parameters>
  </m:metadata>
</svg>