<?xml version="1.0" encoding="UTF-8"?>
<svg height="23" viewBox="0 0 23 23" width="23" xmlns="http://www.w3.org/2000/svg" id="mountain" xmlns:m="https://www.mapbox.com">
  <path d="m7.5 1c-.3 0-.4.2-.6.4l-5.8 9.5c-.1.1-.1.3-.1.4 0 .5.4.7.7.7h11.6c.4 0 .7-.2.7-.7 0-.2 0-.2-.1-.4l-5.7-9.5c-.2-.2-.4-.4-.7-.4zm0 1.5 3.3 5.5h-.8l-1.5-1.5-1 1.5-1-1.5-1.5 1.5h-.9z" transform="translate(4 4)" fill="#000000" style="stroke-linejoin:round;stroke-miterlimit:4;" stroke="#ffffff" stroke-width="4"/>
  <path d="m7.5 1c-.3 0-.4.2-.6.4l-5.8 9.5c-.1.1-.1.3-.1.4 0 .5.4.7.7.7h11.6c.4 0 .7-.2.7-.7 0-.2 0-.2-.1-.4l-5.7-9.5c-.2-.2-.4-.4-.7-.4zm0 1.5 3.3 5.5h-.8l-1.5-1.5-1 1.5-1-1.5-1.5 1.5h-.9z" transform="translate(4 4)" fill="#000000"/>
  <m:metadata>
    <m:parameters>
      <m:parameter m:name="background" m:type="color" m:value="#000000"/>
      <m:parameter m:name="stroke" m:type="color" m:value="#ffffff"/>
    </m:parameters>
  </m:metadata>
</svg>