<?xml version="1.0" encoding="UTF-8"?>
<svg version="1.1" id="museum" xmlns="http://www.w3.org/2000/svg" width="23" height="23" viewBox="0 0 23 23" xmlns:m="https://www.mapbox.com">
  <path id="path7509" d="M7.5,0L1,3.5V4h13V3.5L7.5,0z M2,5v5l-1,1.6V13h13v-1.4L13,10V5H2z M4,6h1v5.5H4V6z M7,6h1v5.5H7V6z M10,6h1&#xA;&#x9;v5.5h-1V6z" transform="translate(4 4)" fill="#000000" style="stroke-linejoin:round;stroke-miterlimit:4;" stroke="#ffffff" stroke-width="4"/>
  <path id="path7509" d="M7.5,0L1,3.5V4h13V3.5L7.5,0z M2,5v5l-1,1.6V13h13v-1.4L13,10V5H2z M4,6h1v5.5H4V6z M7,6h1v5.5H7V6z M10,6h1&#xA;&#x9;v5.5h-1V6z" transform="translate(4 4)" fill="#000000"/>
  <m:metadata>
    <m:parameters>
      <m:parameter m:name="background" m:type="color" m:value="#000000"/>
      <m:parameter m:name="stroke" m:type="color" m:value="#ffffff"/>
    </m:parameters>
  </m:metadata>
</svg>