<?xml version="1.0" encoding="UTF-8"?>
<svg height="23" viewBox="0 0 23 23" width="23" xmlns="http://www.w3.org/2000/svg" id="music" xmlns:m="https://www.mapbox.com">
  <path d="m12.5 0c-.0804.0008-.1594.0213999-.23.0599999l-8.77 2.4400001c-.2761 0-.5.2239-.5.5v6.28c-.3029-.1798-.6478-.2763-1-.28-1.1046 0-2 .8954-2 2s.8954 2 2 2 2-.8954 2-2v-4.64l8-2.22v3.64c-.3029-.1798-.6478-.2763-1-.28-1.1046 0-2 .8954-2 2s.8954 2 2 2 2-.8954 2-2v-9c0-.2761-.2239-.5-.5-.5zm-.5 3.14-8 2.22v-2l8-2.22z" transform="translate(4 4)" fill="#000000" style="stroke-linejoin:round;stroke-miterlimit:4;" stroke="#ffffff" stroke-width="4"/>
  <path d="m12.5 0c-.0804.0008-.1594.0213999-.23.0599999l-8.77 2.4400001c-.2761 0-.5.2239-.5.5v6.28c-.3029-.1798-.6478-.2763-1-.28-1.1046 0-2 .8954-2 2s.8954 2 2 2 2-.8954 2-2v-4.64l8-2.22v3.64c-.3029-.1798-.6478-.2763-1-.28-1.1046 0-2 .8954-2 2s.8954 2 2 2 2-.8954 2-2v-9c0-.2761-.2239-.5-.5-.5zm-.5 3.14-8 2.22v-2l8-2.22z" transform="translate(4 4)" fill="#000000"/>
  <m:metadata>
    <m:parameters>
      <m:parameter m:name="background" m:type="color" m:value="#000000"/>
      <m:parameter m:name="stroke" m:type="color" m:value="#ffffff"/>
    </m:parameters>
  </m:metadata>
</svg>