<?xml version="1.0" encoding="UTF-8"?>
<svg id="nightclub" xmlns="http://www.w3.org/2000/svg" width="23" height="23" viewBox="0 0 23 23" xmlns:m="https://www.mapbox.com">
  <path d="M5.44733 0.0266153C5.84695 0.135602 6.08255 0.547908 5.97357 0.947526L5.73899 1.80764C5.48932 2.72309 5.74169 3.70232 6.40271 4.38306C7.13383 5.13599 8.2534 5.36034 9.21817 4.94726L9.50509 4.82442C10.0833 4.57686 10.5352 4.10376 10.756 3.51483C10.9174 3.08458 11 2.62883 11 2.16932V2.00019C11 1.58597 11.3358 1.25019 11.75 1.25019C12.1642 1.25019 12.5 1.58597 12.5 2.00019V2.16932C12.5 2.80868 12.385 3.44283 12.1605 4.04148C11.8274 4.92997 11.1756 5.65877 10.3373 6.08962L10.264 6.13647C9.67459 6.51356 9.34417 7.18751 9.40706 7.88443L9.53555 9.3083C9.55568 9.39685 9.57011 9.48743 9.57849 9.5796L9.99691 14.1821C10.0344 14.5946 9.73041 14.9594 9.3179 14.9969C8.90539 15.0344 8.54058 14.7304 8.50307 14.3179L8.08465 9.71541C8.07922 9.65562 8.06446 9.59828 8.04172 9.545C8.01027 9.47131 7.95308 9.4128 7.89384 9.35885C7.83449 9.3048 7.77078 9.25325 7.69431 9.22884L7.67758 9.22378C7.4497 9.15867 7.20542 9.24285 7.06602 9.43452L6.0938 10.7713C5.88412 11.0596 5.78398 11.4132 5.81132 11.7686L5.99777 14.1925C6.02953 14.6055 5.72049 14.966 5.3075 14.9978C4.8945 15.0296 4.53395 14.7205 4.50218 14.3075L4.31574 11.8837C4.26106 11.1728 4.46134 10.4657 4.88069 9.88907L5.85292 8.55226C5.97983 8.37776 6.08185 8.1818 6.10332 7.9671L6.18549 7.14544C6.24541 6.54619 5.92194 5.98725 5.48012 5.578C5.42785 5.52957 5.37664 5.47958 5.32659 5.42803C4.29605 4.36675 3.90262 2.84013 4.29184 1.41297L4.52642 0.55285C4.63541 0.153232 5.04771 -0.0823715 5.44733 0.0266153Z M8.25 4.12519C9.07842 4.12519 9.75 3.45362 9.75 2.62519C9.75 1.79676 9.07842 1.12519 8.25 1.12519C7.42157 1.12519 6.75 1.79676 6.75 2.62519C6.75 3.45362 7.42157 4.12519 8.25 4.12519Z M2.36286 4.79352C2.32619 4.62242 2.17499 4.50018 2 4.50018C1.82501 4.50018 1.67381 4.62242 1.63714 4.79352L1.53337 5.27779C1.45221 5.65653 1.15635 5.95239 0.777604 6.03355L0.293341 6.13732C0.122239 6.17399 0 6.3252 0 6.50018C0 6.67517 0.122239 6.82638 0.293341 6.86304L0.777603 6.96681C1.15635 7.04797 1.45221 7.34383 1.53337 7.72258L1.63714 8.20684C1.67381 8.37794 1.82501 8.50018 2 8.50018C2.17499 8.50018 2.32619 8.37794 2.36286 8.20684L2.46663 7.72258C2.54779 7.34383 2.84365 7.04797 3.2224 6.96681L3.70666 6.86304C3.87776 6.82638 4 6.67517 4 6.50018C4 6.3252 3.87776 6.17399 3.70666 6.13732L3.2224 6.03355C2.84365 5.95239 2.54779 5.65653 2.46663 5.27779L2.36286 4.79352Z M13 7.00018C13.175 7.00018 13.3262 7.12242 13.3629 7.29352L13.4666 7.77779C13.5478 8.15653 13.8437 8.45239 14.2224 8.53355L14.7067 8.63732C14.8778 8.67399 15 8.8252 15 9.00018C15 9.17517 14.8778 9.32638 14.7067 9.36304L14.2224 9.46681C13.8437 9.54797 13.5478 9.84383 13.4666 10.2226L13.3629 10.7068C13.3262 10.8779 13.175 11.0002 13 11.0002C12.825 11.0002 12.6738 10.8779 12.6371 10.7068L12.5334 10.2226C12.4522 9.84383 12.1563 9.54797 11.7776 9.46681L11.2933 9.36304C11.1222 9.32638 11 9.17517 11 9.00018C11 8.8252 11.1222 8.67399 11.2933 8.63732L11.7776 8.53355C12.1563 8.45239 12.4522 8.15653 12.5334 7.77779L12.6371 7.29352C12.6738 7.12242 12.825 7.00018 13 7.00018Z" transform="translate(4 4)" fill="#000000" style="stroke-linejoin:round;stroke-miterlimit:4;" stroke="#ffffff" stroke-width="4"/>
  <path d="M5.44733 0.0266153C5.84695 0.135602 6.08255 0.547908 5.97357 0.947526L5.73899 1.80764C5.48932 2.72309 5.74169 3.70232 6.40271 4.38306C7.13383 5.13599 8.2534 5.36034 9.21817 4.94726L9.50509 4.82442C10.0833 4.57686 10.5352 4.10376 10.756 3.51483C10.9174 3.08458 11 2.62883 11 2.16932V2.00019C11 1.58597 11.3358 1.25019 11.75 1.25019C12.1642 1.25019 12.5 1.58597 12.5 2.00019V2.16932C12.5 2.80868 12.385 3.44283 12.1605 4.04148C11.8274 4.92997 11.1756 5.65877 10.3373 6.08962L10.264 6.13647C9.67459 6.51356 9.34417 7.18751 9.40706 7.88443L9.53555 9.3083C9.55568 9.39685 9.57011 9.48743 9.57849 9.5796L9.99691 14.1821C10.0344 14.5946 9.73041 14.9594 9.3179 14.9969C8.90539 15.0344 8.54058 14.7304 8.50307 14.3179L8.08465 9.71541C8.07922 9.65562 8.06446 9.59828 8.04172 9.545C8.01027 9.47131 7.95308 9.4128 7.89384 9.35885C7.83449 9.3048 7.77078 9.25325 7.69431 9.22884L7.67758 9.22378C7.4497 9.15867 7.20542 9.24285 7.06602 9.43452L6.0938 10.7713C5.88412 11.0596 5.78398 11.4132 5.81132 11.7686L5.99777 14.1925C6.02953 14.6055 5.72049 14.966 5.3075 14.9978C4.8945 15.0296 4.53395 14.7205 4.50218 14.3075L4.31574 11.8837C4.26106 11.1728 4.46134 10.4657 4.88069 9.88907L5.85292 8.55226C5.97983 8.37776 6.08185 8.1818 6.10332 7.9671L6.18549 7.14544C6.24541 6.54619 5.92194 5.98725 5.48012 5.578C5.42785 5.52957 5.37664 5.47958 5.32659 5.42803C4.29605 4.36675 3.90262 2.84013 4.29184 1.41297L4.52642 0.55285C4.63541 0.153232 5.04771 -0.0823715 5.44733 0.0266153Z M8.25 4.12519C9.07842 4.12519 9.75 3.45362 9.75 2.62519C9.75 1.79676 9.07842 1.12519 8.25 1.12519C7.42157 1.12519 6.75 1.79676 6.75 2.62519C6.75 3.45362 7.42157 4.12519 8.25 4.12519Z M2.36286 4.79352C2.32619 4.62242 2.17499 4.50018 2 4.50018C1.82501 4.50018 1.67381 4.62242 1.63714 4.79352L1.53337 5.27779C1.45221 5.65653 1.15635 5.95239 0.777604 6.03355L0.293341 6.13732C0.122239 6.17399 0 6.3252 0 6.50018C0 6.67517 0.122239 6.82638 0.293341 6.86304L0.777603 6.96681C1.15635 7.04797 1.45221 7.34383 1.53337 7.72258L1.63714 8.20684C1.67381 8.37794 1.82501 8.50018 2 8.50018C2.17499 8.50018 2.32619 8.37794 2.36286 8.20684L2.46663 7.72258C2.54779 7.34383 2.84365 7.04797 3.2224 6.96681L3.70666 6.86304C3.87776 6.82638 4 6.67517 4 6.50018C4 6.3252 3.87776 6.17399 3.70666 6.13732L3.2224 6.03355C2.84365 5.95239 2.54779 5.65653 2.46663 5.27779L2.36286 4.79352Z M13 7.00018C13.175 7.00018 13.3262 7.12242 13.3629 7.29352L13.4666 7.77779C13.5478 8.15653 13.8437 8.45239 14.2224 8.53355L14.7067 8.63732C14.8778 8.67399 15 8.8252 15 9.00018C15 9.17517 14.8778 9.32638 14.7067 9.36304L14.2224 9.46681C13.8437 9.54797 13.5478 9.84383 13.4666 10.2226L13.3629 10.7068C13.3262 10.8779 13.175 11.0002 13 11.0002C12.825 11.0002 12.6738 10.8779 12.6371 10.7068L12.5334 10.2226C12.4522 9.84383 12.1563 9.54797 11.7776 9.46681L11.2933 9.36304C11.1222 9.32638 11 9.17517 11 9.00018C11 8.8252 11.1222 8.67399 11.2933 8.63732L11.7776 8.53355C12.1563 8.45239 12.4522 8.15653 12.5334 7.77779L12.6371 7.29352C12.6738 7.12242 12.825 7.00018 13 7.00018Z" transform="translate(4 4)" fill="#000000"/>
  <m:metadata>
    <m:parameters>
      <m:parameter m:name="background" m:type="color" m:value="#000000"/>
      <m:parameter m:name="stroke" m:type="color" m:value="#ffffff"/>
    </m:parameters>
  </m:metadata>
</svg>