<?xml version="1.0" encoding="UTF-8"?>
<svg version="1.1" id="picnic-site" xmlns="http://www.w3.org/2000/svg" width="23" height="23" viewBox="0 0 23 23" xmlns:m="https://www.mapbox.com">
  <path id="rect4760" d="M4,3C3.446,3,3,3.446,3,4s0.446,1,1,1h1.2969&#xA;&#x9;L4.6523,7H2.5c-0.554,0-1,0.446-1,1s0.446,1,1,1h1.5098L3.041,12.0098c-0.1284,0.3939,0.0868,0.8173,0.4807,0.9457&#xA;&#x9;s0.8173-0.0868,0.9457-0.4807c0.0005-0.0013,0.0009-0.0027,0.0013-0.004L5.5859,9h3.8281l1.1172,3.4707&#xA;&#x9;c0.1273,0.3943,0.5501,0.6107,0.9443,0.4834s0.6107-0.5501,0.4834-0.9443l0,0L10.9902,9H12.5c0.554,0,1-0.446,1-1s-0.446-1-1-1&#xA;&#x9;h-2.1523L9.7031,5H11c0.554,0,1-0.446,1-1s-0.446-1-1-1H4z M6.873,5H8.127l0.6445,2h-2.543L6.873,5z" transform="translate(4 4)" fill="#000000" style="stroke-linejoin:round;stroke-miterlimit:4;" stroke="#ffffff" stroke-width="4"/>
  <path id="rect4760" d="M4,3C3.446,3,3,3.446,3,4s0.446,1,1,1h1.2969&#xA;&#x9;L4.6523,7H2.5c-0.554,0-1,0.446-1,1s0.446,1,1,1h1.5098L3.041,12.0098c-0.1284,0.3939,0.0868,0.8173,0.4807,0.9457&#xA;&#x9;s0.8173-0.0868,0.9457-0.4807c0.0005-0.0013,0.0009-0.0027,0.0013-0.004L5.5859,9h3.8281l1.1172,3.4707&#xA;&#x9;c0.1273,0.3943,0.5501,0.6107,0.9443,0.4834s0.6107-0.5501,0.4834-0.9443l0,0L10.9902,9H12.5c0.554,0,1-0.446,1-1s-0.446-1-1-1&#xA;&#x9;h-2.1523L9.7031,5H11c0.554,0,1-0.446,1-1s-0.446-1-1-1H4z M6.873,5H8.127l0.6445,2h-2.543L6.873,5z" transform="translate(4 4)" fill="#000000"/>
  <m:metadata>
    <m:parameters>
      <m:parameter m:name="background" m:type="color" m:value="#000000"/>
      <m:parameter m:name="stroke" m:type="color" m:value="#ffffff"/>
    </m:parameters>
  </m:metadata>
</svg>