<?xml version="1.0" encoding="UTF-8"?>
<svg id="police-JP" xmlns="http://www.w3.org/2000/svg" width="23" height="23" viewBox="0 0 23 23" xmlns:m="https://www.mapbox.com">
  <path d="M7.5,1A6.5,6.5,0,1,0,14,7.5,6.5,6.5,0,0,0,7.5,1Zm2.6,2.84L7.5,6.44,4.9,3.84A4.4428,4.4428,0,0,1,10.1,3.84ZM3.84,4.9007,6.4394,7.5l-2.6,2.5993A4.4429,4.4429,0,0,1,3.84,4.9007ZM4.9,11.16l2.6-2.6,2.6,2.6A4.4428,4.4428,0,0,1,4.9,11.16Zm6.26-1.0606L8.5606,7.5l2.6-2.5993a4.4429,4.4429,0,0,1-.0006,5.1986Z" transform="translate(4 4)" fill="#000000" style="stroke-linejoin:round;stroke-miterlimit:4;" stroke="#ffffff" stroke-width="4"/>
  <path d="M7.5,1A6.5,6.5,0,1,0,14,7.5,6.5,6.5,0,0,0,7.5,1Zm2.6,2.84L7.5,6.44,4.9,3.84A4.4428,4.4428,0,0,1,10.1,3.84ZM3.84,4.9007,6.4394,7.5l-2.6,2.5993A4.4429,4.4429,0,0,1,3.84,4.9007ZM4.9,11.16l2.6-2.6,2.6,2.6A4.4428,4.4428,0,0,1,4.9,11.16Zm6.26-1.0606L8.5606,7.5l2.6-2.5993a4.4429,4.4429,0,0,1-.0006,5.1986Z" transform="translate(4 4)" fill="#000000"/>
  <m:metadata>
    <m:parameters>
      <m:parameter m:name="background" m:type="color" m:value="#000000"/>
      <m:parameter m:name="stroke" m:type="color" m:value="#ffffff"/>
    </m:parameters>
  </m:metadata>
</svg>