<?xml version="1.0" encoding="UTF-8"?>
<svg version="1.1" id="religious-christian" xmlns="http://www.w3.org/2000/svg" width="23" height="23" viewBox="0 0 23 23" xmlns:m="https://www.mapbox.com">
  <path id="rect3338" d="M6,0.9552V4H3v3h3v8h3V7h3V4H9V1&#xA;&#x9;c0-1-0.9776-1-0.9776-1H6.9887C6.9887,0,6,0,6,0.9552z" transform="translate(4 4)" fill="#000000" style="stroke-linejoin:round;stroke-miterlimit:4;" stroke="#ffffff" stroke-width="4"/>
  <path id="rect3338" d="M6,0.9552V4H3v3h3v8h3V7h3V4H9V1&#xA;&#x9;c0-1-0.9776-1-0.9776-1H6.9887C6.9887,0,6,0,6,0.9552z" transform="translate(4 4)" fill="#000000"/>
  <m:metadata>
    <m:parameters>
      <m:parameter m:name="background" m:type="color" m:value="#000000"/>
      <m:parameter m:name="stroke" m:type="color" m:value="#ffffff"/>
    </m:parameters>
  </m:metadata>
</svg>