<?xml version="1.0" encoding="UTF-8"?>
<svg width="23" height="23" viewBox="0 0 23 23" xmlns="http://www.w3.org/2000/svg" id="skateboard" xmlns:m="https://www.mapbox.com">
  <path d="M1.25 5.25V5H2.75V5.25C2.75 5.94036 3.30964 6.5 4 6.5H11C11.6904 6.5 12.25 5.94036 12.25 5.25V5H13.75V5.25C13.75 6.76878 12.5188 8 11 8H4C2.48122 8 1.25 6.76878 1.25 5.25ZM5 10C5 10.5523 4.55228 11 4 11 3.44772 11 3 10.5523 3 10 3 9.44772 3.44772 9 4 9 4.55228 9 5 9.44772 5 10ZM12 10C12 10.5523 11.5523 11 11 11 10.4477 11 10 10.5523 10 10 10 9.44772 10.4477 9 11 9 11.5523 9 12 9.44772 12 10Z" transform="translate(4 4)" fill="#000000" style="stroke-linejoin:round;stroke-miterlimit:4;" stroke="#ffffff" stroke-width="4"/>
  <path d="M1.25 5.25V5H2.75V5.25C2.75 5.94036 3.30964 6.5 4 6.5H11C11.6904 6.5 12.25 5.94036 12.25 5.25V5H13.75V5.25C13.75 6.76878 12.5188 8 11 8H4C2.48122 8 1.25 6.76878 1.25 5.25ZM5 10C5 10.5523 4.55228 11 4 11 3.44772 11 3 10.5523 3 10 3 9.44772 3.44772 9 4 9 4.55228 9 5 9.44772 5 10ZM12 10C12 10.5523 11.5523 11 11 11 10.4477 11 10 10.5523 10 10 10 9.44772 10.4477 9 11 9 11.5523 9 12 9.44772 12 10Z" transform="translate(4 4)" fill="#000000"/>
  <m:metadata>
    <m:parameters>
      <m:parameter m:name="background" m:type="color" m:value="#000000"/>
      <m:parameter m:name="stroke" m:type="color" m:value="#ffffff"/>
    </m:parameters>
  </m:metadata>
</svg>