<?xml version="1.0" encoding="UTF-8"?>
<svg width="23" height="23" viewBox="0 0 23 23" xmlns="http://www.w3.org/2000/svg" id="slipway" xmlns:m="https://www.mapbox.com">
  <path d="m2 10 12 1.495V12H2v-2Zm12-4-1 1v.583L5.196 4.332l.063-.125L6.61 2.845h.831a.35.35 0 0 0 0-.7h-.976a.352.352 0 0 0-.248.103L4.723 3.753a.371.371 0 0 0-.066.09l-.109.219L2 3c0 2-.03 3.958 2.86 4.5C6.28 7.765 13 9 13 9l2-2-1-1Z" transform="translate(4 4)" fill="#000000" style="stroke-linejoin:round;stroke-miterlimit:4;" stroke="#ffffff" stroke-width="4"/>
  <path d="m2 10 12 1.495V12H2v-2Zm12-4-1 1v.583L5.196 4.332l.063-.125L6.61 2.845h.831a.35.35 0 0 0 0-.7h-.976a.352.352 0 0 0-.248.103L4.723 3.753a.371.371 0 0 0-.066.09l-.109.219L2 3c0 2-.03 3.958 2.86 4.5C6.28 7.765 13 9 13 9l2-2-1-1Z" transform="translate(4 4)" fill="#000000"/>
  <m:metadata>
    <m:parameters>
      <m:parameter m:name="background" m:type="color" m:value="#000000"/>
      <m:parameter m:name="stroke" m:type="color" m:value="#ffffff"/>
    </m:parameters>
  </m:metadata>
</svg>