<?xml version="1.0" encoding="UTF-8"?>
<svg width="23" height="23" viewBox="0 0 23 23" xmlns="http://www.w3.org/2000/svg" id="snowmobile" xmlns:m="https://www.mapbox.com">
  <path d="M15 10a1 1 0 0 1-1 1H9.414a1 1 0 0 1-.707-.293L7.146 9.146A.499.499 0 0 0 6.793 9H3.334a1 1 0 0 1-.601-.2L1.386 7.788A1.013 1.013 0 0 1 1 7a.995.995 0 0 1 .472-.844L5 4l1.038-1.692A.5.5 0 0 1 7 2.5V6l1 1h1l5.412-.992a.5.5 0 0 1 .355.915L13 8l1.631 1.224A.99.99 0 0 1 15 10Zm-9.5 0H3.225c-.504 0-.999-.127-1.44-.368L.74 9.062a.5.5 0 0 0-.48.877l1.269.693c.441.242.937.368 1.44.368H5.5a.5.5 0 0 0 0-1Z" transform="translate(4 4)" fill="#000000" style="stroke-linejoin:round;stroke-miterlimit:4;" stroke="#ffffff" stroke-width="4"/>
  <path d="M15 10a1 1 0 0 1-1 1H9.414a1 1 0 0 1-.707-.293L7.146 9.146A.499.499 0 0 0 6.793 9H3.334a1 1 0 0 1-.601-.2L1.386 7.788A1.013 1.013 0 0 1 1 7a.995.995 0 0 1 .472-.844L5 4l1.038-1.692A.5.5 0 0 1 7 2.5V6l1 1h1l5.412-.992a.5.5 0 0 1 .355.915L13 8l1.631 1.224A.99.99 0 0 1 15 10Zm-9.5 0H3.225c-.504 0-.999-.127-1.44-.368L.74 9.062a.5.5 0 0 0-.48.877l1.269.693c.441.242.937.368 1.44.368H5.5a.5.5 0 0 0 0-1Z" transform="translate(4 4)" fill="#000000"/>
  <m:metadata>
    <m:parameters>
      <m:parameter m:name="background" m:type="color" m:value="#000000"/>
      <m:parameter m:name="stroke" m:type="color" m:value="#ffffff"/>
    </m:parameters>
  </m:metadata>
</svg>