<?xml version="1.0" encoding="UTF-8"?>
<svg height="23" viewBox="0 0 23 23" width="23" xmlns="http://www.w3.org/2000/svg" id="star-stroked" xmlns:m="https://www.mapbox.com">
  <path d="m7.5 2.69 1.07 2.68.25.63h3l-2 1.75-.5.44.23.63 1 3.13-2.48-1.77-.57-.4-.57.4-2.52 1.77 1-3.13.21-.63-.5-.44-2-1.75h3l.25-.63zm0-2.69-2 5h-5l4 3.5-2 6 5-3.5 5 3.5-2-6 4-3.5h-5z" transform="translate(4 4)" fill="#000000" style="stroke-linejoin:round;stroke-miterlimit:4;" stroke="#ffffff" stroke-width="4"/>
  <path d="m7.5 2.69 1.07 2.68.25.63h3l-2 1.75-.5.44.23.63 1 3.13-2.48-1.77-.57-.4-.57.4-2.52 1.77 1-3.13.21-.63-.5-.44-2-1.75h3l.25-.63zm0-2.69-2 5h-5l4 3.5-2 6 5-3.5 5 3.5-2-6 4-3.5h-5z" transform="translate(4 4)" fill="#000000"/>
  <m:metadata>
    <m:parameters>
      <m:parameter m:name="background" m:type="color" m:value="#000000"/>
      <m:parameter m:name="stroke" m:type="color" m:value="#ffffff"/>
    </m:parameters>
  </m:metadata>
</svg>