<?xml version="1.0" encoding="UTF-8"?>
<svg width="23" height="23" viewBox="0 0 23 23" xmlns="http://www.w3.org/2000/svg" id="suitcase" xmlns:m="https://www.mapbox.com">
  <path d="M4.5 4V2C4.5 1.44772 4.94772 1 5.5 1H9.5C10.0523 1 10.5 1.44772 10.5 2V4H12C12.5523 4 13 4.44772 13 5V11C13 11.5523 12.5523 12 12 12H3C2.44771 12 2 11.5523 2 11V5C2 4.44772 2.44772 4 3 4H4.5ZM5.5 2V4H9.5V2H5.5Z" transform="translate(4 4)" fill="#000000" style="stroke-linejoin:round;stroke-miterlimit:4;" stroke="#ffffff" stroke-width="4"/>
  <path d="M4.5 4V2C4.5 1.44772 4.94772 1 5.5 1H9.5C10.0523 1 10.5 1.44772 10.5 2V4H12C12.5523 4 13 4.44772 13 5V11C13 11.5523 12.5523 12 12 12H3C2.44771 12 2 11.5523 2 11V5C2 4.44772 2.44772 4 3 4H4.5ZM5.5 2V4H9.5V2H5.5Z" transform="translate(4 4)" fill="#000000"/>
  <m:metadata>
    <m:parameters>
      <m:parameter m:name="background" m:type="color" m:value="#000000"/>
      <m:parameter m:name="stroke" m:type="color" m:value="#ffffff"/>
    </m:parameters>
  </m:metadata>
</svg>