<?xml version="1.0" encoding="UTF-8"?>
<svg width="23" height="23" viewBox="0 0 23 23" xmlns="http://www.w3.org/2000/svg" id="toilet" xmlns:m="https://www.mapbox.com">
  <path d="M3 1.5a1.5 1.5 0 1 0 3 0 1.5 1.5 0 0 0-3 0ZM11.5 0a1.5 1.5 0 1 1 0 3 1.5 1.5 0 0 1 0-3ZM3.29 4a1 1 0 0 0-.868.504L.566 7.752a.5.5 0 1 0 .868.496l1.412-2.472A345.048 345.048 0 0 0 1 11h2v2.5a.5.5 0 0 0 1 0V11h1v2.5a.5.5 0 0 0 1 0V11h2L6.103 5.687l1.463 2.561a.5.5 0 1 0 .868-.496L6.578 4.504A1 1 0 0 0 5.71 4H3.29ZM9 4.5a.5.5 0 0 1 .5-.5h4a.5.5 0 0 1 .5.5v5a.5.5 0 0 1-1 0v4a.5.5 0 0 1-1 0v-4h-1v4a.5.5 0 0 1-1 0v-4a.5.5 0 0 1-1 0v-5Z" transform="translate(4 4)" fill="#000000" style="stroke-linejoin:round;stroke-miterlimit:4;" stroke="#ffffff" stroke-width="4"/>
  <path d="M3 1.5a1.5 1.5 0 1 0 3 0 1.5 1.5 0 0 0-3 0ZM11.5 0a1.5 1.5 0 1 1 0 3 1.5 1.5 0 0 1 0-3ZM3.29 4a1 1 0 0 0-.868.504L.566 7.752a.5.5 0 1 0 .868.496l1.412-2.472A345.048 345.048 0 0 0 1 11h2v2.5a.5.5 0 0 0 1 0V11h1v2.5a.5.5 0 0 0 1 0V11h2L6.103 5.687l1.463 2.561a.5.5 0 1 0 .868-.496L6.578 4.504A1 1 0 0 0 5.71 4H3.29ZM9 4.5a.5.5 0 0 1 .5-.5h4a.5.5 0 0 1 .5.5v5a.5.5 0 0 1-1 0v4a.5.5 0 0 1-1 0v-4h-1v4a.5.5 0 0 1-1 0v-4a.5.5 0 0 1-1 0v-5Z" transform="translate(4 4)" fill="#000000"/>
  <m:metadata>
    <m:parameters>
      <m:parameter m:name="background" m:type="color" m:value="#000000"/>
      <m:parameter m:name="stroke" m:type="color" m:value="#ffffff"/>
    </m:parameters>
  </m:metadata>
</svg>