<?xml version="1.0" encoding="UTF-8"?>
<svg height="23" viewBox="0 0 23 23" width="23" xmlns="http://www.w3.org/2000/svg" id="triangle-stroked" xmlns:m="https://www.mapbox.com">
  <path d="m7.52427.500405c-.2814-.0091-.5456.1419-.6907.3948l-5.5 9.869195c-.3118.5434.0614 1.2355.6664 1.2356h11.00003c.605-.0001.9782-.6922.6664-1.2355l-5.50003-9.869195c-.1362-.2374-.378-.3861-.6421-.3949zm-.0243 2.398895 4.12673 7.4704h-8.25343z" transform="translate(4 4)" fill="#000000" style="stroke-linejoin:round;stroke-miterlimit:4;" stroke="#ffffff" stroke-width="4"/>
  <path d="m7.52427.500405c-.2814-.0091-.5456.1419-.6907.3948l-5.5 9.869195c-.3118.5434.0614 1.2355.6664 1.2356h11.00003c.605-.0001.9782-.6922.6664-1.2355l-5.50003-9.869195c-.1362-.2374-.378-.3861-.6421-.3949zm-.0243 2.398895 4.12673 7.4704h-8.25343z" transform="translate(4 4)" fill="#000000"/>
  <m:metadata>
    <m:parameters>
      <m:parameter m:name="background" m:type="color" m:value="#000000"/>
      <m:parameter m:name="stroke" m:type="color" m:value="#ffffff"/>
    </m:parameters>
  </m:metadata>
</svg>