<?xml version="1.0" encoding="UTF-8"?>
<svg width="23" height="23" viewBox="0 0 23 23" xmlns="http://www.w3.org/2000/svg" id="tunnel" xmlns:m="https://www.mapbox.com">
  <path d="M4 2C2.34315 2 1 3.32706 1 4.96406V12.012C1 12.5576 1.44772 13 2 13H3V8.55391C3 6.09839 5.01472 4.10781 7.5 4.10781C9.98528 4.10781 12 6.09842 12 8.55393V13H13C13.5523 13 14 12.5576 14 12.012V4.96406C14 3.32706 12.6569 2 11 2H4ZM11 10V9.04794C11 6.86526 9.43299 5.09583 7.5 5.09583C5.56701 5.09583 4.00001 6.86526 4 9.04794V13L11 10Z" transform="translate(4 4)" fill="#000000" style="stroke-linejoin:round;stroke-miterlimit:4;" stroke="#ffffff" stroke-width="4"/>
  <path d="M4 2C2.34315 2 1 3.32706 1 4.96406V12.012C1 12.5576 1.44772 13 2 13H3V8.55391C3 6.09839 5.01472 4.10781 7.5 4.10781C9.98528 4.10781 12 6.09842 12 8.55393V13H13C13.5523 13 14 12.5576 14 12.012V4.96406C14 3.32706 12.6569 2 11 2H4ZM11 10V9.04794C11 6.86526 9.43299 5.09583 7.5 5.09583C5.56701 5.09583 4.00001 6.86526 4 9.04794V13L11 10Z" transform="translate(4 4)" fill="#000000"/>
  <m:metadata>
    <m:parameters>
      <m:parameter m:name="background" m:type="color" m:value="#000000"/>
      <m:parameter m:name="stroke" m:type="color" m:value="#ffffff"/>
    </m:parameters>
  </m:metadata>
</svg>