<?xml version="1.0" encoding="UTF-8"?>
<svg version="1.1" id="waste-basket" xmlns="http://www.w3.org/2000/svg" width="23" height="23" viewBox="0 0 23 23" xmlns:m="https://www.mapbox.com">
  <path d="M12.41,5.58l-1.34,8c-0.0433,0.2368-0.2493,0.4091-0.49,0.41H4.42c-0.2407-0.0009-0.4467-0.1732-0.49-0.41l-1.34-8&#xA;&#x9;C2.5458,5.3074,2.731,5.0506,3.0035,5.0064C3.0288,5.0023,3.0544,5.0002,3.08,5h8.83c0.2761-0.0036,0.5028,0.2174,0.5064,0.4935&#xA;&#x9;C12.4168,5.5225,12.4146,5.5514,12.41,5.58z M13,3.5C13,3.7761,12.7761,4,12.5,4h-10C2.2239,4,2,3.7761,2,3.5S2.2239,3,2.5,3H5V1.5&#xA;&#x9;C5,1.2239,5.2239,1,5.5,1h4C9.7761,1,10,1.2239,10,1.5V3h2.5C12.7761,3,13,3.2239,13,3.5z M9,3V2H6v1H9z" transform="translate(4 4)" fill="#000000" style="stroke-linejoin:round;stroke-miterlimit:4;" stroke="#ffffff" stroke-width="4"/>
  <path d="M12.41,5.58l-1.34,8c-0.0433,0.2368-0.2493,0.4091-0.49,0.41H4.42c-0.2407-0.0009-0.4467-0.1732-0.49-0.41l-1.34-8&#xA;&#x9;C2.5458,5.3074,2.731,5.0506,3.0035,5.0064C3.0288,5.0023,3.0544,5.0002,3.08,5h8.83c0.2761-0.0036,0.5028,0.2174,0.5064,0.4935&#xA;&#x9;C12.4168,5.5225,12.4146,5.5514,12.41,5.58z M13,3.5C13,3.7761,12.7761,4,12.5,4h-10C2.2239,4,2,3.7761,2,3.5S2.2239,3,2.5,3H5V1.5&#xA;&#x9;C5,1.2239,5.2239,1,5.5,1h4C9.7761,1,10,1.2239,10,1.5V3h2.5C12.7761,3,13,3.2239,13,3.5z M9,3V2H6v1H9z" transform="translate(4 4)" fill="#000000"/>
  <m:metadata>
    <m:parameters>
      <m:parameter m:name="background" m:type="color" m:value="#000000"/>
      <m:parameter m:name="stroke" m:type="color" m:value="#ffffff"/>
    </m:parameters>
  </m:metadata>
</svg>