<?xml version="1.0" encoding="UTF-8" standalone="no"?>
<!-- Created with Inkscape (http://www.inkscape.org/) -->

<svg
   xmlns:dc="http://purl.org/dc/elements/1.1/"
   xmlns:cc="http://creativecommons.org/ns#"
   xmlns:rdf="http://www.w3.org/1999/02/22-rdf-syntax-ns#"
   xmlns:svg="http://www.w3.org/2000/svg"
   xmlns="http://www.w3.org/2000/svg"
   xmlns:sodipodi="http://sodipodi.sourceforge.net/DTD/sodipodi-0.dtd"
   xmlns:inkscape="http://www.inkscape.org/namespaces/inkscape"
   id="svg5875"
   version="1.1"
   inkscape:version="0.48.2 r9819"
   width="40"
   height="40"
   sodipodi:docname="bg.svg"
   inkscape:export-filename="/Users/tristen/devseed/maki/images/bg.png"
   inkscape:export-xdpi="90"
   inkscape:export-ydpi="90">
  <metadata
     id="metadata5881">
    <rdf:RDF>
      <cc:Work
         rdf:about="">
        <dc:format>image/svg+xml</dc:format>
        <dc:type
           rdf:resource="http://purl.org/dc/dcmitype/StillImage" />
        <dc:title></dc:title>
      </cc:Work>
    </rdf:RDF>
  </metadata>
  <defs
     id="defs5879" />
  <sodipodi:namedview
     pagecolor="#ffffff"
     bordercolor="#666666"
     borderopacity="1"
     objecttolerance="10"
     gridtolerance="10"
     guidetolerance="10"
     inkscape:pageopacity="0"
     inkscape:pageshadow="2"
     inkscape:window-width="1280"
     inkscape:window-height="756"
     id="namedview5877"
     showgrid="true"
     inkscape:zoom="6.4887846"
     inkscape:cx="28.010686"
     inkscape:cy="8.6024887"
     inkscape:window-x="3"
     inkscape:window-y="70"
     inkscape:window-maximized="0"
     inkscape:current-layer="svg5875">
    <inkscape:grid
       type="xygrid"
       id="grid5885"
       empspacing="5"
       visible="true"
       enabled="true"
       snapvisiblegridlinesonly="true" />
  </sodipodi:namedview>
  <path
     style="color:#000000;fill:#000000;fill-opacity:1;fill-rule:nonzero;stroke:none;stroke-width:2;marker:none;visibility:visible;display:inline;overflow:visible;enable-background:accumulate;opacity:0.08"
     d="M 0 0 L 0 1 L 0 10 L 0 11 L 0 20 L 0 21 L 0 30 L 0 31 L 0 40 L 1 40 L 1 31 L 10 31 L 10 40 L 11 40 L 11 31 L 20 31 L 20 40 L 21 40 L 21 31 L 30 31 L 30 40 L 31 40 L 31 31 L 40 31 L 40 30 L 31 30 L 31 21 L 40 21 L 40 20 L 31 20 L 31 11 L 40 11 L 40 10 L 31 10 L 31 1 L 40 1 L 40 0 L 1 0 L 0 0 z M 1 1 L 10 1 L 10 10 L 1 10 L 1 1 z M 11 1 L 20 1 L 20 10 L 11 10 L 11 1 z M 21 1 L 30 1 L 30 10 L 21 10 L 21 1 z M 1 11 L 10 11 L 10 20 L 1 20 L 1 11 z M 11 11 L 20 11 L 20 20 L 11 20 L 11 11 z M 21 11 L 30 11 L 30 20 L 21 20 L 21 11 z M 1 21 L 10 21 L 10 30 L 1 30 L 1 21 z M 11 21 L 20 21 L 20 30 L 11 30 L 11 21 z M 21 21 L 30 21 L 30 30 L 21 30 L 21 21 z "
     id="rect8026"
     inkscape:export-filename="/Users/tristen/devseed/maki/images/bg.png"
     inkscape:export-xdpi="90"
     inkscape:export-ydpi="90" />
</svg>
