<svg id="Layer_1" data-name="Layer 1" xmlns="http://www.w3.org/2000/svg" width="209.3" height="61.86" viewBox="0 0 209.3 61.86">
  <title>icons-01</title>
  <g>
    <circle cx="49.61" cy="49.5" r="12.36" fill="#39b54a"/>
    <circle cx="122.61" cy="49.5" r="12.36" fill="#f9ed32"/>
    <circle cx="196.94" cy="49.5" r="12.36" fill="#00aeef"/>
    <circle cx="157.94" cy="12.86" r="12.36" fill="#d7df23" stroke="#3888bf" stroke-miterlimit="10"/>
    <circle cx="85.52" cy="12.86" r="12.36" fill="#fff" stroke="#ec008c" stroke-miterlimit="10"/>
    <circle cx="12.86" cy="12.86" r="12.36" fill="#fff" stroke="#ec008c" stroke-miterlimit="10"/>
    <circle cx="121.65" cy="12.86" r="12.36" fill="#231f20" stroke="#ed1c24" stroke-miterlimit="10"/>
    <path id="path5082" d="M12.73,5.57a6.49,6.49,0,0,0-3.44,12H9.23l-1,2h9l-1-2H16.18A6.49,6.49,0,0,0,12.73,5.57ZM12.61,7.08v3.5a1.5,1.5,0,0,0-.84.35L9.29,8.45A5,5,0,0,1,12.61,7.08Zm0.25,0a5,5,0,0,1,3.32,1.38L13.7,10.93h0a1.5,1.5,0,0,0-.84-0.35V7.08ZM9.11,8.63l2.47,2.47h0a1.5,1.5,0,0,0-.35.84H7.74A5,5,0,0,1,9.11,8.63Zm7.24,0a5,5,0,0,1,1.38,3.32h-3.5a1.5,1.5,0,0,0-.35-0.84ZM7.74,12.2h3.5a1.5,1.5,0,0,0,.35.84L9.11,15.52A5,5,0,0,1,7.74,12.2Zm6.49,0h3.5a5,5,0,0,1-1.37,3.32L13.88,13h0A1.5,1.5,0,0,0,14.23,12.2Zm-2.46,1h0a1.5,1.5,0,0,0,.47.27V17a5,5,0,0,1-2.94-1.36Zm1.94,0,2.47,2.47A5,5,0,0,1,13.23,17V13.49A1.5,1.5,0,0,0,13.7,13.22Z" fill="#3888bf"/>
    <path d="M52.43,17.62a4.47,4.47,0,0,1,0-2.8c0.4-.6,3.4,1.4,3.4,1.4,0.9,0.4.9-6.1,0-5.7,0,0-3.1,2.1-3.4,1.4a4.47,4.47,0,0,1,0-2.8c0.3-.6,4.1-0.7,4.1-0.7,0-.7-2.9-1.4-4.1-1.4a9.56,9.56,0,0,0-4.1.8,11.53,11.53,0,0,0-4.1,2.8c-1.2,1.2-2.7,3.6-2.7,4.3s1.5,2.8,3.7,3.7a18,18,0,0,0,4.5,1.3,13.35,13.35,0,0,0,3.9-.3c1-.2,2.9-0.7,2.9-1.1C56.53,18.32,52.73,18.22,52.43,17.62ZM46,15.32a1.5,1.5,0,1,1,1.5-1.5A1.54,1.54,0,0,1,46,15.32Z" fill="#92278f"/>
    <path id="rect7143" d="M83.83,7.49a1.28,1.28,0,0,0-1,1l-0.5,1h-2a1.5,1.5,0,0,0-1.5,1.5v5a1.5,1.5,0,0,0,1.5,1.5h10a1.5,1.5,0,0,0,1.5-1.5V11a1.5,1.5,0,0,0-1.5-1.5h-2l-0.5-1a1.27,1.27,0,0,0-1-1h-3Zm-3.5,3a0.5,0.5,0,1,1-.5.5A0.5,0.5,0,0,1,80.33,10.49Zm5,0a3,3,0,1,1-3,3A3,3,0,0,1,85.33,10.49Zm0,1.5a1.5,1.5,0,0,0-1.5,1.5h0a1.5,1.5,0,0,0,1.5,1.5h0a1.5,1.5,0,0,0,1.5-1.5h0a1.5,1.5,0,0,0-1.5-1.5h0Z" fill="#ec008c"/>
    <path d="M128.59,19.42a0.5,0.5,0,0,1-.47.32,0.51,0.51,0,0,1-.18,0l-6.32-2.5-6.32,2.47a0.5,0.5,0,0,1-.65-0.28h0a0.5,0.5,0,0,1,.28-0.65h0l5.29-2-5.29-2a0.5,0.5,0,0,1,.36-0.93l6.32,2.4,6.32-2.43a0.5,0.5,0,1,1,.43.9l-0.07,0-5.29,2,5.29,2a0.5,0.5,0,0,1,.31.64Zm-3-10.18v1l-1.5,2v1.5l-2.5,1-2.5-1v-1.5l-1.5-2v-1A4,4,0,0,1,125.62,9.24Zm-4.5,2.5h-1v1.5h1v-1.5Zm0-3.25a1.25,1.25,0,1,0-1.25,1.25A1.25,1.25,0,0,0,121.12,8.49Zm2,3.25h-1v1.5h1v-1.5Zm1.5-3.25a1.25,1.25,0,1,0-1.25,1.25A1.25,1.25,0,0,0,124.62,8.49Z" fill="#fff"/>
    <path id="path5263" d="M157.94,6a3.49,3.49,0,0,0-1,6.84v6a5.16,5.16,0,0,1-2.65-1.27,6.57,6.57,0,0,1-1.85-5.11,1,1,0,1,0-2,0,8.69,8.69,0,0,0,2.49,6.57,7.46,7.46,0,0,0,10,0,8.7,8.7,0,0,0,2.49-6.56,1,1,0,1,0-2,0,6.58,6.58,0,0,1-1.85,5.1,5.17,5.17,0,0,1-2.65,1.28v-6a3.49,3.49,0,0,0,2.5-3.34A3.46,3.46,0,0,0,157.94,6Zm0,2a1.5,1.5,0,1,1-1.5,1.5A1.5,1.5,0,0,1,157.94,8Z" fill="#3888bf"/>
    <path d="M200.95,14.7L198.24,12a2.49,2.49,0,0,0-.5-0.31,1.85,1.85,0,0,0-.77-0.19h-0.23V11a0.5,0.5,0,0,0-.5-0.5v-1h3.5a0.5,0.5,0,0,0,0-1h-8a0.5,0.5,0,0,0,0,1h3.5v1a0.5,0.5,0,0,0-.5.5v0.5h-3.56a2,2,0,1,0-.86,2.19h0l2.84,3.85a2,2,0,0,0,1.71,1h4.88a1.5,1.5,0,0,0,1.5-1.5V15.4A1,1,0,0,0,200.95,14.7ZM189.24,13a1,1,0,1,1,1-1A1,1,0,0,1,189.24,13Zm9.79,2.5h-3.79a0.5,0.5,0,0,1-.5-0.5V13a0.5,0.5,0,0,1,.5-0.5h1.5a1.48,1.48,0,0,1,1,.5l1.65,1.65A0.5,0.5,0,0,1,199,15.49Z" fill="#ec008c"/>
    <path id="path7143" d="M16.45,43.42c-2.14,0-5,1.47-7,4H7.89A2.63,2.63,0,0,0,5.62,49.2L5,50.42H7.89l1.5,1.5,1.5,1.5v2.89l1.22-.61a2.63,2.63,0,0,0,1.78-2.28v-1.6c2.53-1.93,4-4.81,4-7V43.42H16.45Zm-2.55,3a1,1,0,0,1,1,1h0a1,1,0,0,1-1,1h0a1,1,0,0,1-1-1h0a1,1,0,0,1,1-1h0Zm-6.5,6-0.5.5a5.68,5.68,0,0,0-1,2.5,5.05,5.05,0,0,0,2.5-1l0.5-.5Z" fill="#a7cf38"/>
    <path id="path4177" d="M85.14,43.61v4c-2.83.09-5,1-5,2v4.5c0,1.1,2.46,2,5.5,2s5.5-.9,5.5-2v-4.5c0-1-2.17-1.9-5-2V46.68l3-1.31Zm-4,7.15a7.37,7.37,0,0,0,2,.63v3c-1.21-.27-2-0.73-2-1.25V50.76Zm9,0v2.35c0,0.52-.79,1-2,1.25v-3A7.37,7.37,0,0,0,90.14,50.76Zm-6,.77a14.62,14.62,0,0,0,3,0v3a12.3,12.3,0,0,1-3,0v-3Z" fill="#9b8579"/>
    <path id="path5258" d="M120.74,42a1.13,1.13,0,0,0-1,1l-1.5,5.5V52a1,1,0,0,0,1,1h7a1,1,0,0,0,1-1v-3.5l-1.5-5.5a1.15,1.15,0,0,0-1-1h-4Zm1,1.5h2s0.54,0,.75,1l0.75,3.5c0.21,1-1,1-1,1h-3s-1.21,0-1-1l0.75-3.5C121.21,43.53,121.74,43.53,121.74,43.53Zm-1.5,6.5a1,1,0,1,1-1,1A1,1,0,0,1,120.24,50ZM122,50h1.5a0.25,0.25,0,0,1,0,.5H122A0.25,0.25,0,0,1,122,50Zm3.25,0a1,1,0,1,1-1,1A1,1,0,0,1,125.24,50Zm-5.87,4-1.12,3h1.5l0.38-1h5.25l0.38,1h1.5l-1.12-3h-1.5L125,55h-4.5l0.38-1h-1.5Z" fill="#414042"/>
    <path id="path17499" d="M160.73,46.51a2.43,2.43,0,0,1-1.39,1.11h-2.5a2.69,2.69,0,0,0-1.77.86l-2.23,2.14a1.9,1.9,0,0,0-.5,1c0,0.5,0,1,0,1a1,1,0,0,0,1-1v-0.5l1-1h0.5L155,50.4a9,9,0,0,0-1,3.53,0.67,0.67,0,0,0,.68.68h0.68s0.34,0,0-.34l-0.34-.34a5.3,5.3,0,0,1,1.27-2.32s0,1.16,0,2a1,1,0,0,0,.68,1h0.68s0.34,0,0-.34l-0.34-.34c-0.31-.57.48-2.82,0.48-2.82,1.27,0,1.5.5,3,.5l0.36,2.32a0.67,0.67,0,0,0,.64.68h1.5c0.34,0,1-.31.34-0.77l-0.34-.23v-2a2.11,2.11,0,0,0,2-2h1c0.32,0,1,0,1-.5v-1l-1.7-1.68a3.19,3.19,0,0,0-2.3-1.32A2.65,2.65,0,0,0,160.73,46.51Z" fill="#00a79d"/>
    <path d="M203.34,48.86a37.77,37.77,0,0,1-6.41,7.75,37.77,37.77,0,0,1-6.41-7.75c-2.57-5,3.91-8.25,6.41-3.3C199.43,40.61,205.91,43.91,203.34,48.86Z" fill="#ed1c24" stroke="#fff" stroke-miterlimit="10"/>
    <g>
      <circle cx="54.55" cy="47.13" r="1.5" fill="#fff"/>
      <path d="M55,54.4a0.5,0.5,0,0,0-.67-0.22,2.48,2.48,0,0,1-2.05.25l-6.16-3.08,2.16-1.08a0.5,0.5,0,0,0,.28-0.45V47.13l1.22,0.61a0.5,0.5,0,0,1,.28.45v2.38a0.5,0.5,0,0,0,.28.45l1,0.5a0.5,0.5,0,0,0,.45,0l0.37-.19h0a0.5,0.5,0,0,0,0-.9h0l-0.31-.16a0.5,0.5,0,0,1-.28-0.45V45.94a0.5,0.5,0,0,0-.28-0.45l-2.5-1.25a0.5,0.5,0,0,0-.45,0l-1,.5a0.5,0.5,0,0,0-.28.45v3.88a0.5,0.5,0,0,1-.28.45L44.61,50.6l-2.84-1.42a0.5,0.5,0,0,0-.45.89l10.5,5.25a2.65,2.65,0,0,0,1.11.21,4.09,4.09,0,0,0,1.83-.46A0.5,0.5,0,0,0,55,54.4Z" fill="#fff"/>
    </g>
  </g>
</svg>
