<svg id="Layer_1" data-name="Layer 1" xmlns="http://www.w3.org/2000/svg" width="439.39" height="136.03" viewBox="0 0 439.39 136.03">
  <title>guidelines</title>
  <g>
    <g opacity="0.5">
      <line x1="9.24" y1="0.2" x2="9.24" y2="135.83" fill="none" stroke="#221f1f" stroke-miterlimit="10" stroke-width="0.03" opacity="0.5"/>
      <line x1="18.28" y1="0.2" x2="18.28" y2="135.83" fill="none" stroke="#221f1f" stroke-miterlimit="10" stroke-width="0.03" opacity="0.5"/>
      <line x1="27.33" y1="0.2" x2="27.33" y2="135.83" fill="none" stroke="#221f1f" stroke-miterlimit="10" stroke-width="0.03" opacity="0.5"/>
      <line x1="36.37" y1="0.2" x2="36.37" y2="135.83" fill="none" stroke="#221f1f" stroke-miterlimit="10" stroke-width="0.03" opacity="0.5"/>
      <line x1="45.41" y1="0.2" x2="45.41" y2="135.83" fill="none" stroke="#221f1f" stroke-miterlimit="10" stroke-width="0.03" opacity="0.5"/>
      <line x1="54.45" y1="0.2" x2="54.45" y2="135.83" fill="none" stroke="#221f1f" stroke-miterlimit="10" stroke-width="0.03" opacity="0.5"/>
      <line x1="63.49" y1="0.2" x2="63.49" y2="135.83" fill="none" stroke="#221f1f" stroke-miterlimit="10" stroke-width="0.03" opacity="0.5"/>
      <line x1="72.54" y1="0.2" x2="72.54" y2="135.83" fill="none" stroke="#221f1f" stroke-miterlimit="10" stroke-width="0.03" opacity="0.5"/>
      <line x1="81.58" y1="0.2" x2="81.58" y2="135.83" fill="none" stroke="#221f1f" stroke-miterlimit="10" stroke-width="0.03" opacity="0.5"/>
      <line x1="90.62" y1="0.2" x2="90.62" y2="135.83" fill="none" stroke="#221f1f" stroke-miterlimit="10" stroke-width="0.03" opacity="0.5"/>
      <line x1="99.66" y1="0.2" x2="99.66" y2="135.83" fill="none" stroke="#221f1f" stroke-miterlimit="10" stroke-width="0.03" opacity="0.5"/>
      <line x1="108.7" y1="0.2" x2="108.7" y2="135.83" fill="none" stroke="#221f1f" stroke-miterlimit="10" stroke-width="0.03" opacity="0.5"/>
      <line x1="117.75" y1="0.2" x2="117.75" y2="135.83" fill="none" stroke="#221f1f" stroke-miterlimit="10" stroke-width="0.03" opacity="0.5"/>
      <line x1="126.79" y1="0.2" x2="126.79" y2="135.83" fill="none" stroke="#221f1f" stroke-miterlimit="10" stroke-width="0.03" opacity="0.5"/>
      <line x1="0.2" y1="126.79" x2="135.83" y2="126.79" fill="none" stroke="#221f1f" stroke-miterlimit="10" stroke-width="0.03" opacity="0.5"/>
      <line x1="0.2" y1="117.75" x2="135.83" y2="117.75" fill="none" stroke="#221f1f" stroke-miterlimit="10" stroke-width="0.03" opacity="0.5"/>
      <line x1="0.2" y1="108.7" x2="135.83" y2="108.7" fill="none" stroke="#221f1f" stroke-miterlimit="10" stroke-width="0.03" opacity="0.5"/>
      <line x1="0.2" y1="99.66" x2="135.83" y2="99.66" fill="none" stroke="#221f1f" stroke-miterlimit="10" stroke-width="0.03" opacity="0.5"/>
      <line x1="0.2" y1="90.62" x2="135.83" y2="90.62" fill="none" stroke="#221f1f" stroke-miterlimit="10" stroke-width="0.03" opacity="0.5"/>
      <line x1="0.2" y1="81.58" x2="135.83" y2="81.58" fill="none" stroke="#221f1f" stroke-miterlimit="10" stroke-width="0.03" opacity="0.5"/>
      <line x1="0.2" y1="72.54" x2="135.83" y2="72.54" fill="none" stroke="#221f1f" stroke-miterlimit="10" stroke-width="0.03" opacity="0.5"/>
      <line x1="0.2" y1="63.49" x2="135.83" y2="63.49" fill="none" stroke="#221f1f" stroke-miterlimit="10" stroke-width="0.03" opacity="0.5"/>
      <line x1="0.2" y1="54.45" x2="135.83" y2="54.45" fill="none" stroke="#221f1f" stroke-miterlimit="10" stroke-width="0.03" opacity="0.5"/>
      <line x1="0.2" y1="45.41" x2="135.83" y2="45.41" fill="none" stroke="#221f1f" stroke-miterlimit="10" stroke-width="0.03" opacity="0.5"/>
      <line x1="0.2" y1="36.37" x2="135.83" y2="36.37" fill="none" stroke="#221f1f" stroke-miterlimit="10" stroke-width="0.03" opacity="0.5"/>
      <line x1="0.2" y1="27.33" x2="135.83" y2="27.33" fill="none" stroke="#221f1f" stroke-miterlimit="10" stroke-width="0.03" opacity="0.5"/>
      <line x1="0.2" y1="18.28" x2="135.83" y2="18.28" fill="none" stroke="#221f1f" stroke-miterlimit="10" stroke-width="0.03" opacity="0.5"/>
      <line x1="0.2" y1="9.24" x2="135.83" y2="9.24" fill="none" stroke="#221f1f" stroke-miterlimit="10" stroke-width="0.03" opacity="0.5"/>
      <rect x="0.2" y="0.2" width="135.63" height="135.63" fill="none" stroke="#221f1f" stroke-miterlimit="10" stroke-width="0.03" opacity="0.5"/>
    </g>
    <line x1="135.83" y1="0.2" x2="0.2" y2="135.83" fill="none" stroke="#3888bf" stroke-miterlimit="10" stroke-width="0.57"/>
    <line x1="0.2" y1="0.2" x2="135.83" y2="135.83" fill="none" stroke="#3888bf" stroke-miterlimit="10" stroke-width="0.57"/>
    <line x1="135.83" y1="54.45" x2="0.2" y2="54.45" fill="none" stroke="#3888bf" stroke-miterlimit="10" stroke-width="0.57"/>
    <line x1="135.83" y1="81.58" x2="0.2" y2="81.58" fill="none" stroke="#3888bf" stroke-miterlimit="10" stroke-width="0.57"/>
    <line x1="135.83" y1="27.33" x2="0.2" y2="27.33" fill="none" stroke="#3888bf" stroke-miterlimit="10" stroke-width="0.57"/>
    <line x1="135.83" y1="108.7" x2="0.2" y2="108.7" fill="none" stroke="#3888bf" stroke-miterlimit="10" stroke-width="0.57"/>
    <circle cx="68.01" cy="68.01" r="13.56" fill="none" stroke="#3888bf" stroke-miterlimit="10" stroke-width="0.57"/>
    <circle cx="68.01" cy="68.01" r="40.69" fill="none" stroke="#3888bf" stroke-miterlimit="10" stroke-width="0.57"/>
    <circle cx="68.01" cy="68.01" r="67.81" fill="none" stroke="#3888bf" stroke-miterlimit="10" stroke-width="0.57"/>
    <line x1="54.45" y1="0.2" x2="54.45" y2="135.83" fill="none" stroke="#3888bf" stroke-miterlimit="10" stroke-width="0.57"/>
    <line x1="81.58" y1="0.2" x2="81.58" y2="135.83" fill="none" stroke="#3888bf" stroke-miterlimit="10" stroke-width="0.57"/>
    <line x1="108.7" y1="0.2" x2="108.7" y2="135.83" fill="none" stroke="#3888bf" stroke-miterlimit="10" stroke-width="0.57"/>
    <line x1="27.33" y1="0.2" x2="27.33" y2="135.83" fill="none" stroke="#3888bf" stroke-miterlimit="10" stroke-width="0.57"/>
    <g>
      <line x1="161.35" y1="0.2" x2="161.35" y2="135.83" fill="none" stroke="#221f1f" stroke-miterlimit="10" stroke-width="0.14" opacity="0.5"/>
      <line x1="170.39" y1="0.2" x2="170.39" y2="135.83" fill="none" stroke="#221f1f" stroke-miterlimit="10" stroke-width="0.14" opacity="0.5"/>
      <line x1="179.43" y1="0.2" x2="179.43" y2="135.83" fill="none" stroke="#221f1f" stroke-miterlimit="10" stroke-width="0.14" opacity="0.5"/>
      <line x1="188.47" y1="0.2" x2="188.47" y2="135.83" fill="none" stroke="#221f1f" stroke-miterlimit="10" stroke-width="0.14" opacity="0.5"/>
      <line x1="197.52" y1="0.2" x2="197.52" y2="135.83" fill="none" stroke="#221f1f" stroke-miterlimit="10" stroke-width="0.14" opacity="0.5"/>
      <line x1="206.56" y1="0.2" x2="206.56" y2="135.83" fill="none" stroke="#221f1f" stroke-miterlimit="10" stroke-width="0.14" opacity="0.5"/>
      <line x1="215.6" y1="0.2" x2="215.6" y2="135.83" fill="none" stroke="#221f1f" stroke-miterlimit="10" stroke-width="0.14" opacity="0.5"/>
      <line x1="224.64" y1="0.2" x2="224.64" y2="135.83" fill="none" stroke="#221f1f" stroke-miterlimit="10" stroke-width="0.14" opacity="0.5"/>
      <line x1="233.68" y1="0.2" x2="233.68" y2="135.83" fill="none" stroke="#221f1f" stroke-miterlimit="10" stroke-width="0.14" opacity="0.5"/>
      <line x1="242.73" y1="0.2" x2="242.73" y2="135.83" fill="none" stroke="#221f1f" stroke-miterlimit="10" stroke-width="0.14" opacity="0.5"/>
      <line x1="251.77" y1="0.2" x2="251.77" y2="135.83" fill="none" stroke="#221f1f" stroke-miterlimit="10" stroke-width="0.14" opacity="0.5"/>
      <line x1="260.81" y1="0.2" x2="260.81" y2="135.83" fill="none" stroke="#221f1f" stroke-miterlimit="10" stroke-width="0.14" opacity="0.5"/>
      <line x1="269.85" y1="0.2" x2="269.85" y2="135.83" fill="none" stroke="#221f1f" stroke-miterlimit="10" stroke-width="0.14" opacity="0.5"/>
      <line x1="278.89" y1="0.2" x2="278.89" y2="135.83" fill="none" stroke="#221f1f" stroke-miterlimit="10" stroke-width="0.14" opacity="0.5"/>
      <line x1="152.31" y1="126.79" x2="287.94" y2="126.79" fill="none" stroke="#221f1f" stroke-miterlimit="10" stroke-width="0.14" opacity="0.5"/>
      <line x1="152.31" y1="117.75" x2="287.94" y2="117.75" fill="none" stroke="#221f1f" stroke-miterlimit="10" stroke-width="0.14" opacity="0.5"/>
      <line x1="152.31" y1="108.7" x2="287.94" y2="108.7" fill="none" stroke="#221f1f" stroke-miterlimit="10" stroke-width="0.14" opacity="0.5"/>
      <line x1="152.31" y1="99.66" x2="287.94" y2="99.66" fill="none" stroke="#221f1f" stroke-miterlimit="10" stroke-width="0.14" opacity="0.5"/>
      <line x1="152.31" y1="90.62" x2="287.94" y2="90.62" fill="none" stroke="#221f1f" stroke-miterlimit="10" stroke-width="0.14" opacity="0.5"/>
      <line x1="152.31" y1="81.58" x2="287.94" y2="81.58" fill="none" stroke="#221f1f" stroke-miterlimit="10" stroke-width="0.14" opacity="0.5"/>
      <line x1="152.31" y1="72.54" x2="287.94" y2="72.54" fill="none" stroke="#221f1f" stroke-miterlimit="10" stroke-width="0.14" opacity="0.5"/>
      <line x1="152.31" y1="63.49" x2="287.94" y2="63.49" fill="none" stroke="#221f1f" stroke-miterlimit="10" stroke-width="0.14" opacity="0.5"/>
      <line x1="152.31" y1="54.45" x2="287.94" y2="54.45" fill="none" stroke="#221f1f" stroke-miterlimit="10" stroke-width="0.14" opacity="0.5"/>
      <line x1="152.31" y1="45.41" x2="287.94" y2="45.41" fill="none" stroke="#221f1f" stroke-miterlimit="10" stroke-width="0.14" opacity="0.5"/>
      <line x1="152.31" y1="36.37" x2="287.94" y2="36.37" fill="none" stroke="#221f1f" stroke-miterlimit="10" stroke-width="0.14" opacity="0.5"/>
      <line x1="152.31" y1="27.33" x2="287.94" y2="27.33" fill="none" stroke="#221f1f" stroke-miterlimit="10" stroke-width="0.14" opacity="0.5"/>
      <line x1="152.31" y1="18.28" x2="287.94" y2="18.28" fill="none" stroke="#221f1f" stroke-miterlimit="10" stroke-width="0.14" opacity="0.5"/>
      <line x1="152.31" y1="9.24" x2="287.94" y2="9.24" fill="none" stroke="#221f1f" stroke-miterlimit="10" stroke-width="0.14" opacity="0.5"/>
      <rect x="152.31" y="0.2" width="135.63" height="135.63" fill="none" stroke="#221f1f" stroke-miterlimit="10" stroke-width="0.14" opacity="0.5"/>
    </g>
    <path d="M276.25,74.41L251.77,49.93a22.56,22.56,0,0,0-4.51-2.8,16.72,16.72,0,0,0-7-1.72h-2V40.89a4.51,4.51,0,0,0-4.52-4.52v-9h31.65a4.52,4.52,0,0,0,0-9H193a4.52,4.52,0,0,0,0,9h31.65v9a4.51,4.51,0,0,0-4.52,4.52v4.52H187.9a18.11,18.11,0,1,0-7.8,19.79h0L205.8,100a18.08,18.08,0,0,0,15.45,8.69h44.08a13.55,13.55,0,0,0,13.55-13.54V80.79A9,9,0,0,0,276.25,74.41ZM170.41,59a9,9,0,1,1,9-9A9,9,0,0,1,170.41,59Zm88.52,22.6H224.65a4.53,4.53,0,0,1-4.53-4.53V59a4.53,4.53,0,0,1,4.53-4.53h13.56c4.52,0,7.14,2.92,9,4.52l14.88,14.88A4.53,4.53,0,0,1,258.93,81.58Z" fill="#f2f2f2"/>
    <g>
      <circle cx="170.39" cy="49.93" r="9.04" fill="none" stroke="#3888bf" stroke-miterlimit="10" stroke-width="0.57"/>
      <circle cx="269.85" cy="80.8" r="9.04" fill="none" stroke="#3888bf" stroke-miterlimit="10" stroke-width="0.57"/>
      <circle cx="192.99" cy="22.8" r="4.52" fill="none" stroke="#3888bf" stroke-miterlimit="10" stroke-width="0.57"/>
      <circle cx="265.33" cy="22.8" r="4.52" fill="none" stroke="#3888bf" stroke-miterlimit="10" stroke-width="0.57"/>
      <circle cx="224.64" cy="40.89" r="4.52" fill="none" stroke="#3888bf" stroke-miterlimit="10" stroke-width="0.57"/>
      <circle cx="224.64" cy="58.97" r="4.52" fill="none" stroke="#3888bf" stroke-miterlimit="10" stroke-width="0.57"/>
      <circle cx="239.62" cy="58.97" r="4.52" fill="none" stroke="#3888bf" stroke-miterlimit="10" stroke-width="0.57"/>
      <circle cx="224.64" cy="77.06" r="4.52" fill="none" stroke="#3888bf" stroke-miterlimit="10" stroke-width="0.57"/>
      <circle cx="258.97" cy="77.06" r="4.52" fill="none" stroke="#3888bf" stroke-miterlimit="10" stroke-width="0.57"/>
      <circle cx="233.68" cy="40.89" r="4.52" fill="none" stroke="#3888bf" stroke-miterlimit="10" stroke-width="0.57"/>
      <circle cx="239.76" cy="58.97" r="13.56" fill="none" stroke="#3888bf" stroke-miterlimit="10" stroke-width="0.57"/>
      <circle cx="170.39" cy="49.93" r="18.08" fill="none" stroke="#3888bf" stroke-miterlimit="10" stroke-width="0.57"/>
      <circle cx="221.26" cy="90.62" r="18.08" fill="none" stroke="#3888bf" stroke-miterlimit="10" stroke-width="0.57"/>
      <circle cx="265.33" cy="95.14" r="13.56" fill="none" stroke="#3888bf" stroke-miterlimit="10" stroke-width="0.57"/>
    </g>
    <g>
      <circle cx="283.41" cy="68.01" r="4.52" fill="#3888bf"/>
      <text transform="translate(281.71 69.91)" font-size="5.65" fill="#fff" font-family="Apercu" font-weight="700">2</text>
    </g>
    <g>
      <circle cx="265.33" cy="117.75" r="4.52" fill="#3888bf"/>
      <text transform="translate(263.6 119.78)" font-size="5.65" fill="#fff" font-family="Apercu" font-weight="700">3</text>
    </g>
    <g>
      <circle cx="220.12" cy="117.75" r="4.52" fill="#3888bf"/>
      <text transform="translate(218.21 119.71)" font-size="5.65" fill="#fff" font-family="Apercu" font-weight="700">4</text>
    </g>
    <g>
      <circle cx="179.43" cy="13.76" r="4.52" fill="#3888bf"/>
      <text transform="translate(178.12 15.59)" font-size="5.65" fill="#fff" font-family="Apercu" font-weight="700">1</text>
    </g>
    <g>
      <line x1="312.8" y1="0.19" x2="312.8" y2="135.82" fill="none" stroke="#221f1f" stroke-miterlimit="10" stroke-width="0.14" opacity="0.5"/>
      <line x1="321.84" y1="0.19" x2="321.84" y2="135.82" fill="none" stroke="#221f1f" stroke-miterlimit="10" stroke-width="0.14" opacity="0.5"/>
      <line x1="330.88" y1="0.19" x2="330.88" y2="135.82" fill="none" stroke="#221f1f" stroke-miterlimit="10" stroke-width="0.14" opacity="0.5"/>
      <line x1="339.93" y1="0.19" x2="339.93" y2="135.82" fill="none" stroke="#221f1f" stroke-miterlimit="10" stroke-width="0.14" opacity="0.5"/>
      <line x1="348.97" y1="0.19" x2="348.97" y2="135.82" fill="none" stroke="#221f1f" stroke-miterlimit="10" stroke-width="0.14" opacity="0.5"/>
      <line x1="358.01" y1="0.19" x2="358.01" y2="135.82" fill="none" stroke="#221f1f" stroke-miterlimit="10" stroke-width="0.14" opacity="0.5"/>
      <line x1="367.05" y1="0.19" x2="367.05" y2="135.82" fill="none" stroke="#221f1f" stroke-miterlimit="10" stroke-width="0.14" opacity="0.5"/>
      <line x1="376.09" y1="0.19" x2="376.09" y2="135.82" fill="none" stroke="#221f1f" stroke-miterlimit="10" stroke-width="0.14" opacity="0.5"/>
      <line x1="385.14" y1="0.19" x2="385.14" y2="135.82" fill="none" stroke="#221f1f" stroke-miterlimit="10" stroke-width="0.14" opacity="0.5"/>
      <line x1="394.18" y1="0.19" x2="394.18" y2="135.82" fill="none" stroke="#221f1f" stroke-miterlimit="10" stroke-width="0.14" opacity="0.5"/>
      <line x1="403.22" y1="0.19" x2="403.22" y2="135.82" fill="none" stroke="#221f1f" stroke-miterlimit="10" stroke-width="0.14" opacity="0.5"/>
      <line x1="412.26" y1="0.19" x2="412.26" y2="135.82" fill="none" stroke="#221f1f" stroke-miterlimit="10" stroke-width="0.14" opacity="0.5"/>
      <line x1="421.3" y1="0.19" x2="421.3" y2="135.82" fill="none" stroke="#221f1f" stroke-miterlimit="10" stroke-width="0.14" opacity="0.5"/>
      <line x1="430.35" y1="0.19" x2="430.35" y2="135.82" fill="none" stroke="#221f1f" stroke-miterlimit="10" stroke-width="0.14" opacity="0.5"/>
      <line x1="303.76" y1="126.78" x2="439.39" y2="126.78" fill="none" stroke="#221f1f" stroke-miterlimit="10" stroke-width="0.14" opacity="0.5"/>
      <line x1="303.76" y1="117.74" x2="439.39" y2="117.74" fill="none" stroke="#221f1f" stroke-miterlimit="10" stroke-width="0.14" opacity="0.5"/>
      <line x1="303.76" y1="108.7" x2="439.39" y2="108.7" fill="none" stroke="#221f1f" stroke-miterlimit="10" stroke-width="0.14" opacity="0.5"/>
      <line x1="303.76" y1="99.65" x2="439.39" y2="99.65" fill="none" stroke="#221f1f" stroke-miterlimit="10" stroke-width="0.14" opacity="0.5"/>
      <line x1="303.76" y1="90.61" x2="439.39" y2="90.61" fill="none" stroke="#221f1f" stroke-miterlimit="10" stroke-width="0.14" opacity="0.5"/>
      <line x1="303.76" y1="81.57" x2="439.39" y2="81.57" fill="none" stroke="#221f1f" stroke-miterlimit="10" stroke-width="0.14" opacity="0.5"/>
      <line x1="303.76" y1="72.53" x2="439.39" y2="72.53" fill="none" stroke="#221f1f" stroke-miterlimit="10" stroke-width="0.14" opacity="0.5"/>
      <line x1="303.76" y1="63.49" x2="439.39" y2="63.49" fill="none" stroke="#221f1f" stroke-miterlimit="10" stroke-width="0.14" opacity="0.5"/>
      <line x1="303.76" y1="54.44" x2="439.39" y2="54.44" fill="none" stroke="#221f1f" stroke-miterlimit="10" stroke-width="0.14" opacity="0.5"/>
      <line x1="303.76" y1="45.4" x2="439.39" y2="45.4" fill="none" stroke="#221f1f" stroke-miterlimit="10" stroke-width="0.14" opacity="0.5"/>
      <line x1="303.76" y1="36.36" x2="439.39" y2="36.36" fill="none" stroke="#221f1f" stroke-miterlimit="10" stroke-width="0.14" opacity="0.5"/>
      <line x1="303.76" y1="27.32" x2="439.39" y2="27.32" fill="none" stroke="#221f1f" stroke-miterlimit="10" stroke-width="0.14" opacity="0.5"/>
      <line x1="303.76" y1="18.28" x2="439.39" y2="18.28" fill="none" stroke="#221f1f" stroke-miterlimit="10" stroke-width="0.14" opacity="0.5"/>
      <line x1="303.76" y1="9.23" x2="439.39" y2="9.23" fill="none" stroke="#221f1f" stroke-miterlimit="10" stroke-width="0.14" opacity="0.5"/>
      <rect x="303.76" y="0.19" width="135.63" height="135.63" fill="none" stroke="#221f1f" stroke-miterlimit="10" stroke-width="0.14" opacity="0.5"/>
    </g>
    <line x1="439.39" y1="0.19" x2="303.76" y2="135.82" fill="none" stroke="#434244" stroke-miterlimit="10" stroke-width="0.25"/>
    <line x1="303.76" y1="0.19" x2="439.39" y2="135.82" fill="none" stroke="#434244" stroke-miterlimit="10" stroke-width="0.25"/>
    <line x1="439.39" y1="27.32" x2="303.76" y2="27.32" fill="none" stroke="#434244" stroke-miterlimit="10" stroke-width="0.03"/>
    <circle cx="371.57" cy="68.01" r="13.56" fill="none" stroke="#434244" stroke-miterlimit="10" stroke-width="0.25"/>
    <circle cx="371.57" cy="68.01" r="40.69" fill="none" stroke="#434244" stroke-miterlimit="10" stroke-width="0.25"/>
    <circle cx="371.57" cy="68.01" r="67.81" fill="none" stroke="#434244" stroke-miterlimit="10" stroke-width="0.03"/>
    <g>
      <line x1="439.39" y1="54.44" x2="303.76" y2="54.44" fill="none" stroke="#434244" stroke-miterlimit="10" stroke-width="0.25"/>
      <line x1="439.39" y1="81.57" x2="303.76" y2="81.57" fill="none" stroke="#434244" stroke-miterlimit="10" stroke-width="0.25"/>
      <line x1="439.39" y1="108.7" x2="303.76" y2="108.7" fill="none" stroke="#434244" stroke-miterlimit="10" stroke-width="0.25"/>
      <line x1="439.39" y1="27.32" x2="303.76" y2="27.32" fill="none" stroke="#434244" stroke-miterlimit="10" stroke-width="0.25"/>
      <line x1="358.01" y1="0.19" x2="358.01" y2="135.82" fill="none" stroke="#434244" stroke-miterlimit="10" stroke-width="0.25"/>
      <line x1="385.14" y1="0.19" x2="385.14" y2="135.82" fill="none" stroke="#434244" stroke-miterlimit="10" stroke-width="0.25"/>
      <line x1="412.26" y1="0.19" x2="412.26" y2="135.82" fill="none" stroke="#434244" stroke-miterlimit="10" stroke-width="0.25"/>
      <line x1="330.88" y1="0.19" x2="330.88" y2="135.82" fill="none" stroke="#434244" stroke-miterlimit="10" stroke-width="0.25"/>
    </g>
    <path d="M303.76,0.19V135.82H439.39V0.19H303.76Zm67.81,126.59A58.77,58.77,0,1,1,430.35,68,58.77,58.77,0,0,1,371.57,126.78Z" fill="#3888bf" fill-opacity="0.35"/>
    <g>
      <path d="M371.59,135.8a67.8,67.8,0,1,1,0-135.6H303.76V135.84H439.39V68A67.8,67.8,0,0,1,371.59,135.8Z" fill="#3888bf" fill-opacity="0.35"/>
      <path d="M371.59,0.21A67.8,67.8,0,0,1,439.39,68V0.21h-67.8Z" fill="#3888bf" fill-opacity="0.35"/>
    </g>
    <rect x="0.2" y="0.2" width="135.63" height="135.63" fill="none" stroke="#3888bf" stroke-miterlimit="10" stroke-width="0.57"/>
  </g>
</svg>
