<svg id="Layer_1" data-name="Layer 1" xmlns="http://www.w3.org/2000/svg" width="209.3" height="61.86" viewBox="0 0 209.3 61.86">
  <title>icons</title>
  <g>
    <path id="path5082" d="M12.91,6A6.49,6.49,0,0,0,9.47,18H9.41l-1,2h9l-1-2H16.35A6.49,6.49,0,0,0,12.91,6ZM12.79,7.48V11a1.5,1.5,0,0,0-.84.35L9.47,8.85A5,5,0,0,1,12.79,7.48Zm0.25,0a5,5,0,0,1,3.32,1.38l-2.47,2.47h0A1.5,1.5,0,0,0,13,11V7.48ZM9.29,9l2.47,2.47h0a1.5,1.5,0,0,0-.35.84H7.92A5,5,0,0,1,9.29,9Zm7.24,0a5,5,0,0,1,1.38,3.32H14.4a1.5,1.5,0,0,0-.35-0.84ZM7.92,12.6h3.5a1.5,1.5,0,0,0,.35.84L9.29,15.92A5,5,0,0,1,7.92,12.6Zm6.49,0h3.5a5,5,0,0,1-1.37,3.32l-2.47-2.47h0A1.5,1.5,0,0,0,14.4,12.6Zm-2.46,1h0a1.5,1.5,0,0,0,.47.27v3.56a5,5,0,0,1-2.94-1.36Zm1.94,0,2.47,2.47a5,5,0,0,1-2.94,1.36V13.89A1.5,1.5,0,0,0,13.88,13.62Z" fill="#3888bf"/>
    <path d="M52.61,17.1a4.47,4.47,0,0,1,0-2.8c0.4-.6,3.4,1.4,3.4,1.4,0.9,0.4.9-6.1,0-5.7,0,0-3.1,2.1-3.4,1.4a4.47,4.47,0,0,1,0-2.8c0.3-.6,4.1-0.7,4.1-0.7,0-.7-2.9-1.4-4.1-1.4a9.56,9.56,0,0,0-4.1.8,11.53,11.53,0,0,0-4.1,2.8c-1.2,1.2-2.7,3.6-2.7,4.3s1.5,2.8,3.7,3.7a18,18,0,0,0,4.5,1.3,13.35,13.35,0,0,0,3.9-.3c1-.2,2.9-0.7,2.9-1.1C56.71,17.8,52.91,17.7,52.61,17.1Zm-6.4-2.3a1.5,1.5,0,1,1,1.5-1.5A1.54,1.54,0,0,1,46.21,14.8Z" fill="#3888bf"/>
    <path id="rect7143" d="M84,8a1.28,1.28,0,0,0-1,1l-0.5,1h-2a1.5,1.5,0,0,0-1.5,1.5v5a1.5,1.5,0,0,0,1.5,1.5h10a1.5,1.5,0,0,0,1.5-1.5v-5a1.5,1.5,0,0,0-1.5-1.5h-2L88,9a1.27,1.27,0,0,0-1-1H84Zm-3.5,3a0.5,0.5,0,1,1-.5.5A0.5,0.5,0,0,1,80.51,11Zm5,0a3,3,0,1,1-3,3A3,3,0,0,1,85.51,11Zm0,1.5A1.5,1.5,0,0,0,84,14h0a1.5,1.5,0,0,0,1.5,1.5h0A1.5,1.5,0,0,0,87,14h0a1.5,1.5,0,0,0-1.5-1.5h0Z" fill="#3888bf"/>
    <path d="M128.77,19.9a0.5,0.5,0,0,1-.47.32,0.51,0.51,0,0,1-.18,0l-6.32-2.5-6.32,2.47a0.5,0.5,0,0,1-.65-0.28h0a0.5,0.5,0,0,1,.28-0.65h0l5.29-2-5.29-2a0.5,0.5,0,0,1,.36-0.93l6.32,2.4,6.32-2.43a0.5,0.5,0,1,1,.43.9l-0.07,0-5.29,2,5.29,2a0.5,0.5,0,0,1,.31.64Zm-3-10.18v1l-1.5,2v1.5l-2.5,1-2.5-1v-1.5l-1.5-2v-1A4,4,0,0,1,125.8,9.72Zm-4.5,2.5h-1v1.5h1v-1.5Zm0-3.25A1.25,1.25,0,1,0,120,10.22,1.25,1.25,0,0,0,121.3,9Zm2,3.25h-1v1.5h1v-1.5ZM124.8,9a1.25,1.25,0,1,0-1.25,1.25A1.25,1.25,0,0,0,124.8,9Z" fill="#3888bf"/>
    <path id="path5263" d="M158.12,5.47a3.49,3.49,0,0,0-1,6.84v6a5.16,5.16,0,0,1-2.65-1.27A6.57,6.57,0,0,1,152.62,12a1,1,0,1,0-2,0,8.69,8.69,0,0,0,2.49,6.57,7.46,7.46,0,0,0,10,0A8.7,8.7,0,0,0,165.61,12a1,1,0,1,0-2,0,6.58,6.58,0,0,1-1.85,5.1,5.17,5.17,0,0,1-2.65,1.28v-6A3.49,3.49,0,0,0,161.62,9,3.46,3.46,0,0,0,158.12,5.47Zm0,2a1.5,1.5,0,1,1-1.5,1.5A1.5,1.5,0,0,1,158.12,7.47Z" fill="#3888bf"/>
    <path d="M201.12,14.18l-2.71-2.71a2.49,2.49,0,0,0-.5-0.31,1.85,1.85,0,0,0-.77-0.19h-0.23v-0.5a0.5,0.5,0,0,0-.5-0.5V9h3.5a0.5,0.5,0,0,0,0-1h-8a0.5,0.5,0,0,0,0,1h3.5v1a0.5,0.5,0,0,0-.5.5V11h-3.56a2,2,0,1,0-.86,2.19h0L193.33,17A2,2,0,0,0,195,18h4.88a1.5,1.5,0,0,0,1.5-1.5V14.89A1,1,0,0,0,201.12,14.18Zm-11.71-1.71a1,1,0,1,1,1-1A1,1,0,0,1,189.42,12.47Zm9.79,2.5h-3.79a0.5,0.5,0,0,1-.5-0.5v-2a0.5,0.5,0,0,1,.5-0.5h1.5a1.48,1.48,0,0,1,1,.5l1.65,1.65A0.5,0.5,0,0,1,199.21,15Z" fill="#3888bf"/>
    <path id="path7143" d="M16.63,42.9c-2.14,0-5,1.47-7,4H8.07A2.63,2.63,0,0,0,5.8,48.68L5.18,49.9H8.07l1.5,1.5,1.5,1.5v2.89l1.22-.61a2.63,2.63,0,0,0,1.78-2.28V51.3c2.53-1.93,4-4.81,4-7V42.9H16.63Zm-2.55,3a1,1,0,0,1,1,1h0a1,1,0,0,1-1,1h0a1,1,0,0,1-1-1h0a1,1,0,0,1,1-1h0Zm-6.5,6-0.5.5a5.68,5.68,0,0,0-1,2.5,5.05,5.05,0,0,0,2.5-1l0.5-.5Z" fill="#3888bf"/>
    <path id="path4177" d="M85.32,43.1v4c-2.83.09-5,1-5,2v4.5c0,1.1,2.46,2,5.5,2s5.5-.9,5.5-2V49.1c0-1-2.17-1.9-5-2V46.16l3-1.31Zm-4,7.15a7.37,7.37,0,0,0,2,.63v3c-1.21-.27-2-0.73-2-1.25V50.24Zm9,0V52.6c0,0.52-.79,1-2,1.25v-3A7.37,7.37,0,0,0,90.32,50.25Zm-6,.77a14.62,14.62,0,0,0,3,0v3a12.3,12.3,0,0,1-3,0V51Z" fill="#3888bf"/>
    <path id="path5258" d="M120.92,41.85a1.13,1.13,0,0,0-1,1l-1.5,5.5v3.5a1,1,0,0,0,1,1h7a1,1,0,0,0,1-1v-3.5l-1.5-5.5a1.15,1.15,0,0,0-1-1h-4Zm1,1.5h2s0.54,0,.75,1l0.75,3.5c0.21,1-1,1-1,1h-3s-1.21,0-1-1l0.75-3.5C121.38,43.35,121.92,43.35,121.92,43.35Zm-1.5,6.5a1,1,0,1,1-1,1A1,1,0,0,1,120.42,49.85Zm1.75,0h1.5a0.25,0.25,0,0,1,0,.5h-1.5A0.25,0.25,0,0,1,122.17,49.85Zm3.25,0a1,1,0,1,1-1,1A1,1,0,0,1,125.42,49.85Zm-5.87,4-1.12,3h1.5l0.38-1h5.25l0.38,1h1.5l-1.12-3h-1.5l0.38,1h-4.5l0.38-1h-1.5Z" fill="#3888bf"/>
    <path id="path17499" d="M160.91,46a2.43,2.43,0,0,1-1.39,1.11H157a2.69,2.69,0,0,0-1.77.86L153,50.1a1.9,1.9,0,0,0-.5,1c0,0.5,0,1,0,1a1,1,0,0,0,1-1V50.6l1-1H155l0.16,0.29a9,9,0,0,0-1,3.53,0.67,0.67,0,0,0,.68.68h0.68s0.34,0,0-.34l-0.34-.34a5.3,5.3,0,0,1,1.27-2.32s0,1.16,0,2a1,1,0,0,0,.68,1h0.68s0.34,0,0-.34l-0.34-.34c-0.31-.57.48-2.82,0.48-2.82,1.27,0,1.5.5,3,.5l0.36,2.32a0.67,0.67,0,0,0,.64.68h1.5c0.34,0,1-.31.34-0.77l-0.34-.23v-2a2.11,2.11,0,0,0,2-2h1c0.32,0,1,0,1-.5v-1l-1.7-1.68a3.19,3.19,0,0,0-2.3-1.32A2.65,2.65,0,0,0,160.91,46Z" fill="#3888bf"/>
    <path d="M203.52,48.35a37.77,37.77,0,0,1-6.41,7.75,37.77,37.77,0,0,1-6.41-7.75c-2.57-5,3.91-8.25,6.41-3.3C199.61,40.1,206.09,43.4,203.52,48.35Z" fill="#3888bf"/>
    <g>
      <circle cx="54.72" cy="46.61" r="1.5" fill="#3888bf"/>
      <path d="M55.17,53.89a0.5,0.5,0,0,0-.67-0.22,2.48,2.48,0,0,1-2.05.25l-6.16-3.08,2.16-1.08a0.5,0.5,0,0,0,.28-0.45V46.61l1.22,0.61a0.5,0.5,0,0,1,.28.45v2.38a0.5,0.5,0,0,0,.28.45l1,0.5a0.5,0.5,0,0,0,.45,0l0.37-.19h0a0.5,0.5,0,0,0,0-.9h0L52,49.75a0.5,0.5,0,0,1-.28-0.45V45.42A0.5,0.5,0,0,0,51.45,45l-2.5-1.25a0.5,0.5,0,0,0-.45,0l-1,.5a0.5,0.5,0,0,0-.28.45v3.88a0.5,0.5,0,0,1-.28.45l-2.16,1.08-2.84-1.42a0.5,0.5,0,0,0-.45.89L52,54.81a2.65,2.65,0,0,0,1.11.21,4.09,4.09,0,0,0,1.83-.46A0.5,0.5,0,0,0,55.17,53.89Z" fill="#3888bf"/>
    </g>
  </g>
</svg>
