<svg id="Layer_1" data-name="Layer 1" xmlns="http://www.w3.org/2000/svg" width="11" height="11" viewBox="0 0 11 11">
  <title>alcohol-shop-11</title>
  <path d="M7,4V6.5A1.5,1.5,0,0,0,8,7.91V10H7.5a0.5,0.5,0,0,0,0,1h2a0.5,0.5,0,0,0,0-1H9V7.91A1.5,1.5,0,0,0,10,6.5V4H7ZM9.5,6.5a1,1,0,0,1-2,0v-2h2v2ZM4.21,2.85V2.5a0.35,0.35,0,1,0,0-.71V1.44a0.35,0.35,0,0,0-.36-0.35H3.14a0.35,0.35,0,0,0-.36.35V1.79a0.35,0.35,0,1,0,0,.71V2.85C2.79,3.87,1,5,1,6v4.25a0.7,0.7,0,0,0,.71.71H5.29A0.79,0.79,0,0,0,6,10.29V6C6,5.09,4.21,3.81,4.21,2.85ZM3.5,9A1.5,1.5,0,1,1,5,7.5,1.5,1.5,0,0,1,3.5,9Z"/>
</svg>
