<?xml version="1.0" encoding="utf-8"?>
<!-- Generator: Adobe Illustrator 18.1.0, SVG Export Plug-In . SVG Version: 6.00 Build 0)  -->
<!DOCTYPE svg PUBLIC "-//W3C//DTD SVG 1.1//EN" "http://www.w3.org/Graphics/SVG/1.1/DTD/svg11.dtd">
<svg version="1.1"
	 id="svg4764" sodipodi:docname="alcohol-shop-11.svg" inkscape:version="0.91+devel+osxmenu r12911" xmlns:svg="http://www.w3.org/2000/svg" xmlns:rdf="http://www.w3.org/1999/02/22-rdf-syntax-ns#" xmlns:sodipodi="http://sodipodi.sourceforge.net/DTD/sodipodi-0.dtd" xmlns:inkscape="http://www.inkscape.org/namespaces/inkscape" xmlns:dc="http://purl.org/dc/elements/1.1/" xmlns:cc="http://creativecommons.org/ns#"
	 xmlns="http://www.w3.org/2000/svg" xmlns:xlink="http://www.w3.org/1999/xlink" x="0px" y="0px" width="11px" height="11px"
	 viewBox="-294 195 11 11" enable-background="new -294 195 11 11" xml:space="preserve">
<sodipodi:namedview  inkscape:window-maximized="0" inkscape:window-y="0" inkscape:window-x="-15" inkscape:snap-smooth-nodes="true" inkscape:object-nodes="true" inkscape:object-paths="true" inkscape:bbox-paths="true" inkscape:snap-bbox="true" inkscape:document-units="px" inkscape:current-layer="svg4764" inkscape:pageopacity="0" inkscape:window-height="755" inkscape:window-width="1280" inkscape:pageshadow="2" inkscape:snap-intersection-paths="true" pagecolor="#ffffff" bordercolor="#666666" inkscape:cx="1.3510573" inkscape:cy="5.4513742" gridtolerance="10" objecttolerance="10" borderopacity="1" showgrid="true" id="namedview3363" guidetolerance="10" inkscape:zoom="45.254834">
	
		<inkscape:grid  type="xygrid" color="#d30029" spacingy="0.44117647" spacingx="0.44117647" empspacing="2" opacity="0.1254902" id="grid3337">
		</inkscape:grid>
</sodipodi:namedview>
<path id="path5715" d="M-291,196c-0.3,0-0.5,0.2-0.5,0.5s0.2,0.5,0.5,0.5c0,1-2,2.5-2,3.5v3.5c0,1,1,1,1,1h3c0,0,1,0,1-1v-3.5
	c0-0.9-2-2.6-2-3.5c0.3,0,0.5-0.2,0.5-0.5s-0.2-0.5-0.5-0.5H-291z M-287.2,199l0.2,1.5c0.2,1,1.2,1,1.2,1v2.2c0,0.5-0.8,0.8-0.8,0.8
	v0.5h2v-0.5c0,0-0.8-0.2-0.8-0.8v-2.2c0,0,1.1,0,1.2-1l0.2-1.5H-287.2z M-286.2,199.5h1.5l-0.2,1h-1L-286.2,199.5z M-290.5,200
	c0.8,0,1.5,0.9,1.5,2c0,0,0,0,0,0c0,1.1-0.7,2-1.5,2l0,0c-0.8,0-1.5-0.9-1.5-2c0,0,0,0,0,0C-292,200.9-291.3,200-290.5,200
	L-290.5,200z"/>
</svg>
