<svg id="Layer_1" data-name="Layer 1" xmlns="http://www.w3.org/2000/svg" width="11" height="11" viewBox="0 0 11 11">
  <title>alcohol-shop-11</title>
  <path d="M4.23,2.35V2a0.35,0.35,0,0,0,0-.71V0.94A0.35,0.35,0,0,0,3.88.58H3.17a0.35,0.35,0,0,0-.35.35V1.29a0.35,0.35,0,1,0,0,.71V2.35C2.81,3.37,1,4.53,1,5.54V9.79a0.69,0.69,0,0,0,.71.71H5.29A0.78,0.78,0,0,0,6,9.79V5.54C6,4.59,4.23,3.31,4.23,2.35ZM3.48,9A1.6,1.6,0,0,1,2.15,7.23,1.6,1.6,0,0,1,3.48,5.46,1.6,1.6,0,0,1,4.81,7.23,1.6,1.6,0,0,1,3.48,9Z"/>
  <path d="M7,3.5V6A1.5,1.5,0,0,0,8,7.41V9.5H7.5a0.5,0.5,0,0,0,0,1h2a0.5,0.5,0,0,0,0-1H9V7.41A1.5,1.5,0,0,0,10,6V3.5H7ZM9.5,6a1,1,0,0,1-2,0V4h2V6Z"/>
</svg>
