<svg id="Layer_1" data-name="Layer 1" xmlns="http://www.w3.org/2000/svg" width="15" height="15" viewBox="0 0 15 15">
  <title>alcohol-shop-15</title>
  <path d="M6,2.5V2A0.5,0.5,0,0,0,6,1V0.5A0.5,0.5,0,0,0,5.5,0h-1A0.5,0.5,0,0,0,4,.5V1A0.5,0.5,0,0,0,4,2V2.5C4,3.93,1.5,5.57,1.5,7v6a1,1,0,0,0,1,1h5a1.1,1.1,0,0,0,1-1V7C8.5,5.65,6,3.85,6,2.5ZM5,12c-1,0-1.87-1.12-1.87-2.5S4,7,5,7,6.88,8.12,6.88,9.5,6,12,5,12Zm8.5-8h-4V7.44h0s0,0,0,.06A2,2,0,0,0,11,9.43V13H10.5a0.5,0.5,0,0,0,0,1h2a0.5,0.5,0,0,0,0-1H12V9.43A2,2,0,0,0,13.5,7.5s0,0,0-.06h0V4Zm-1,3.5a1,1,0,0,1-2,0V5h2V7.5Z"/>
</svg>
