<svg id="Layer_1" data-name="Layer 1" xmlns="http://www.w3.org/2000/svg" width="15" height="15" viewBox="0 0 15 15">
  <title>alcohol-shop-15</title>
  <path d="M14,4H10V7.44h0s0,0,0,.06a2,2,0,0,0,1.5,1.93V13H11a0.5,0.5,0,0,0,0,1h2a0.5,0.5,0,0,0,0-1H12.5V9.43A2,2,0,0,0,14,7.5s0,0,0-.06h0V4ZM13,7.5a1,1,0,0,1-2,0V5h2V7.5Zm-7.5-5V2a0.5,0.5,0,0,0,0-1V0.5A0.5,0.5,0,0,0,5,0H4a0.5,0.5,0,0,0-.5.5V1a0.5,0.5,0,0,0,0,1V2.5C3.5,3.93,1,5.57,1,7v6a1,1,0,0,0,1,1H7a1.1,1.1,0,0,0,1-1V7C8,5.65,5.5,3.85,5.5,2.5ZM4.5,12A2.5,2.5,0,1,1,7,9.5,2.5,2.5,0,0,1,4.5,12Z"/>
</svg>
