<?xml version="1.0" encoding="UTF-8" standalone="no"?>
<!-- Generator: Adobe Illustrator 17.1.0, SVG Export Plug-In . SVG Version: 6.00 Build 0)  -->

<svg
   xmlns:dc="http://purl.org/dc/elements/1.1/"
   xmlns:cc="http://creativecommons.org/ns#"
   xmlns:rdf="http://www.w3.org/1999/02/22-rdf-syntax-ns#"
   xmlns:svg="http://www.w3.org/2000/svg"
   xmlns="http://www.w3.org/2000/svg"
   xmlns:sodipodi="http://sodipodi.sourceforge.net/DTD/sodipodi-0.dtd"
   xmlns:inkscape="http://www.inkscape.org/namespaces/inkscape"
   version="1.1"
   id="svg4619"
   sodipodi:docname="america-football-15.svg"
   inkscape:version="0.91 r13725"
   x="0px"
   y="0px"
   height='15'
   width='15'
   viewBox="0 0 15 15"
   enable-background="new 0 0 15 15"
   xml:space="preserve"><metadata
     id="metadata9"><rdf:RDF><cc:Work
         rdf:about=""><dc:format>image/svg+xml</dc:format><dc:type
           rdf:resource="http://purl.org/dc/dcmitype/StillImage" /><dc:title></dc:title></cc:Work></rdf:RDF></metadata><defs
     id="defs7" /><sodipodi:namedview
     id="namedview3381"
     inkscape:current-layer="svg4619"
     inkscape:window-height="667"
     inkscape:pageopacity="0"
     inkscape:window-width="948"
     inkscape:window-y="0"
     inkscape:pageshadow="2"
     inkscape:document-units="px"
     inkscape:snap-bbox="true"
     inkscape:window-maximized="0"
     inkscape:bbox-nodes="true"
     inkscape:object-paths="true"
     inkscape:bbox-paths="true"
     inkscape:window-x="33"
     inkscape:cx="4.8152762"
     borderopacity="1"
     objecttolerance="10"
     bordercolor="#666666"
     gridtolerance="10"
     showgrid="false"
     inkscape:cy="4.1476942"
     inkscape:zoom="31.525424"
     guidetolerance="10"
     pagecolor="#ffffff"
     inkscape:snap-intersection-paths="true"><inkscape:grid
       type="xygrid"
       id="grid3383"
       spacingx="0.5"
       spacingy="0.5"
       color="#b90011"
       opacity="0.1254902"
       empspacing="2" /></sodipodi:namedview><path
     style="fill:#000000;fill-opacity:1"
     d="M 7.5 3 C 2.2058824 3 0 8 0 8 C 0 8 2.2058824 13 7.5 13 C 12.794118 13 15 8 15 8 C 15 8 12.794118 3 7.5 3 z M 4 6.5 L 5 6.5 L 5 7.5 L 7 7.5 L 7 6.5 L 8 6.5 L 8 7.5 L 10 7.5 L 10 6.5 L 11 6.5 L 11 7.5 L 12 7.5 L 12 8.5 L 11 8.5 L 11 9.5 L 10 9.5 L 10 8.5 L 8 8.5 L 8 9.5 L 7 9.5 L 7 8.5 L 5 8.5 L 5 9.5 L 4 9.5 L 4 8.5 L 3 8.5 L 3 7.5 L 4 7.5 L 4 6.5 z "
     id="path5" /></svg>
