<?xml version="1.0" encoding="UTF-8" standalone="no"?>
<!-- Created with Inkscape (http://www.inkscape.org/) -->

<svg
   xmlns:dc="http://purl.org/dc/elements/1.1/"
   xmlns:cc="http://creativecommons.org/ns#"
   xmlns:rdf="http://www.w3.org/1999/02/22-rdf-syntax-ns#"
   xmlns:svg="http://www.w3.org/2000/svg"
   xmlns="http://www.w3.org/2000/svg"
   xmlns:sodipodi="http://sodipodi.sourceforge.net/DTD/sodipodi-0.dtd"
   xmlns:inkscape="http://www.inkscape.org/namespaces/inkscape"
   version="1.1"
   width="15"
   height="15"
   id="svg4619"
   inkscape:version="0.91 r13725"
   sodipodi:docname="amusement-park-15.svg"
   viewBox="0 0 15 15">
  <sodipodi:namedview
     pagecolor="#ffffff"
     bordercolor="#666666"
     borderopacity="1"
     objecttolerance="10"
     gridtolerance="10"
     guidetolerance="10"
     inkscape:pageopacity="0"
     inkscape:pageshadow="2"
     inkscape:window-width="1570"
     inkscape:window-height="998"
     id="namedview3359"
     inkscape:document-units="px"
     showgrid="false"
     inkscape:zoom="16"
     inkscape:cx="5.9412051"
     inkscape:cy="-2.3937305"
     inkscape:current-layer="svg4619"
     inkscape:snap-bbox="true"
     inkscape:bbox-paths="true"
     inkscape:bbox-nodes="true"
     inkscape:snap-bbox-edge-midpoints="true"
     inkscape:snap-bbox-midpoints="true"
     inkscape:object-paths="true"
     inkscape:object-nodes="true"
     inkscape:snap-intersection-paths="true"
     inkscape:snap-smooth-nodes="true"
     inkscape:window-x="34"
     inkscape:window-y="237"
     inkscape:window-maximized="0"
     inkscape:snap-object-midpoints="false"
     inkscape:snap-center="true"
     inkscape:snap-nodes="true"
     showguides="false">
    <inkscape:grid
       type="xygrid"
       id="grid3333"
       spacingx="0.5"
       spacingy="0.5"
       color="#ff0000"
       opacity="0.1254902"
       empspacing="2" />
  </sodipodi:namedview>
  <defs
     id="defs4621">
    <inkscape:perspective
       sodipodi:type="inkscape:persp3d"
       inkscape:vp_x="0 : 7.5 : 1"
       inkscape:vp_y="0 : 1000 : 0"
       inkscape:vp_z="15 : 7.5 : 1"
       inkscape:persp3d-origin="7.5 : 5 : 1"
       id="perspective5108" />
  </defs>
  <metadata
     id="metadata4624">
    <rdf:RDF>
      <cc:Work
         rdf:about="">
        <dc:format>image/svg+xml</dc:format>
        <dc:type
           rdf:resource="http://purl.org/dc/dcmitype/StillImage" />
        <dc:title></dc:title>
      </cc:Work>
    </rdf:RDF>
  </metadata>
  <path
     style="color:#000000;font-style:normal;font-variant:normal;font-weight:normal;font-stretch:normal;font-size:medium;line-height:normal;font-family:sans-serif;text-indent:0;text-align:start;text-decoration:none;text-decoration-line:none;text-decoration-style:solid;text-decoration-color:#000000;letter-spacing:normal;word-spacing:normal;text-transform:none;direction:ltr;block-progression:tb;writing-mode:lr-tb;baseline-shift:baseline;text-anchor:start;white-space:normal;clip-rule:nonzero;display:inline;overflow:visible;visibility:visible;opacity:1;isolation:auto;mix-blend-mode:normal;color-interpolation:sRGB;color-interpolation-filters:linearRGB;solid-color:#000000;solid-opacity:1;fill:#000000;fill-opacity:1;fill-rule:nonzero;stroke:none;stroke-width:1.49999976;stroke-linecap:butt;stroke-linejoin:miter;stroke-miterlimit:4;stroke-dasharray:none;stroke-dashoffset:0;stroke-opacity:1;marker:none;color-rendering:auto;image-rendering:auto;shape-rendering:auto;text-rendering:auto;enable-background:accumulate"
     d="M 7.5 0 C 3.9190329 0 1 2.9190329 1 6.5 C 1 8.8161269 2.2250864 10.848406 4.0566406 12 L 4 12 L 3 14 L 12 14 L 11 12 L 10.943359 12 C 12.774914 10.848406 14 8.8161269 14 6.5 C 14 2.9190329 11.080967 0 7.5 0 z M 7.375 1.5058594 L 7.375 5.0058594 A 1.5 1.5 0 0 0 6.53125 5.3554688 L 4.0566406 2.8808594 C 4.9242617 2.0554638 6.0851197 1.5375649 7.375 1.5058594 z M 7.625 1.5058594 C 8.9148803 1.5375649 10.075738 2.0554638 10.943359 2.8808594 L 8.46875 5.3554688 A 1.5 1.5 0 0 1 8.4667969 5.3535156 A 1.5 1.5 0 0 0 7.625 5.0058594 L 7.625 1.5058594 z M 3.8808594 3.0566406 L 6.3554688 5.53125 A 1.5 1.5 0 0 1 6.3535156 5.5332031 A 1.5 1.5 0 0 0 6.0058594 6.375 L 2.5058594 6.375 C 2.5375649 5.0851197 3.0554638 3.9242617 3.8808594 3.0566406 z M 11.119141 3.0566406 C 11.944536 3.9242617 12.462435 5.0851197 12.494141 6.375 L 8.9941406 6.375 A 1.5 1.5 0 0 0 8.6445312 5.53125 L 11.119141 3.0566406 z M 2.5058594 6.625 L 6.0058594 6.625 A 1.5 1.5 0 0 0 6.3554688 7.46875 L 3.8808594 9.9433594 C 3.0554638 9.0757383 2.5375649 7.9148803 2.5058594 6.625 z M 8.9941406 6.625 L 12.494141 6.625 C 12.462435 7.9148803 11.944536 9.0757383 11.119141 9.9433594 L 8.6445312 7.46875 A 1.5 1.5 0 0 1 8.6464844 7.4667969 A 1.5 1.5 0 0 0 8.9941406 6.625 z M 6.53125 7.6445312 A 1.5 1.5 0 0 1 6.5332031 7.6464844 A 1.5 1.5 0 0 0 7 7.9121094 L 7 11.474609 C 5.8596752 11.362163 4.8394249 10.863828 4.0566406 10.119141 L 6.53125 7.6445312 z M 8.46875 7.6445312 L 10.943359 10.119141 C 10.160575 10.863828 9.1403248 11.362163 8 11.474609 L 8 7.9121094 A 1.5 1.5 0 0 0 8.46875 7.6445312 z "
     id="path5082" />
</svg>
