<?xml version="1.0" encoding="UTF-8"?>
<svg height="15" viewBox="0 0 15 15" width="15" xmlns="http://www.w3.org/2000/svg" id="amusement-park">
  <path d="m7.5.5c-3.581 0-6.5 2.919-6.5 6.5 0 2.3161 1.2251 4.3484 3.0566 5.5h-.0566l-1 2h9l-1-2h-.0566c1.8315-1.1516 3.0566-3.1839 3.0566-5.5 0-3.581-2.919-6.5-6.5-6.5zm-.125 1.5059v3.5c-.3108.026-.6057.1482-.8438.3496l-2.4746-2.4746c.8677-.8254 2.0285-1.3433 3.3184-1.375zm.25 0c1.2899.0317 2.4507.5496 3.3184 1.375l-2.4746 2.4746c-.0007-.0007-.0013-.0013-.002-.002-.2378-.2003-.532-.3218-.8418-.3476zm-3.7441 1.5507 2.4746 2.4746c-.0007.0007-.0013.0013-.002.002-.2003.2378-.3218.532-.3476.8418h-3.5c.0317-1.2899.5496-2.4507 1.375-3.3184zm7.2382 0c.8254.8676 1.3433 2.0285 1.375 3.3184h-3.5c-.026-.3108-.1482-.6057-.3496-.8438zm-8.6132 3.5684h3.5c.026.3108.1482.6057.3496.8438l-2.4746 2.4746c-.8254-.8677-1.3433-2.0285-1.375-3.3184zm6.4882 0h3.5c-.0317 1.2899-.5496 2.4507-1.375 3.3184l-2.4746-2.4746c.0007-.0007.0013-.0013.002-.002.2003-.2378.3218-.532.3476-.8418zm-2.4629 1.0195c.0007.0007.0013.0013.002.002.1384.1159.2965.2059.4668.2656v3.5625c-1.1403-.1124-2.1606-.6108-2.9434-1.3555zm1.9376 0 2.4746 2.4746c-.7828.7447-1.803 1.243-2.9434 1.3555v-3.5625c.1711-.0601.33-.1508.4688-.2676z"/>
</svg>