<?xml version="1.0" encoding="UTF-8"?>
<svg version="1.1" id="animal-shelter-15" xmlns="http://www.w3.org/2000/svg" width="15" height="15" viewBox="0 0 15 15">
  <path d="M7.4858,0.1953L7.4858,0.1953z"/>
  <path d="M7.7,2.5"/>
  <g>
    <path d="M9.84,12.68C9.46,12.91,8.48,13.02,7.49,13c-0.62,0.01-1.23-0.03-1.7-0.11c-0.19,0.03-0.42,0.06-0.68,0.06&#xA;&#x9;&#x9;c-0.4,0-0.87-0.07-1.33-0.3C2.68,12.16,1.9,11.07,1.9,10C1.83,9.26,2.19,8.77,2.52,8.34C2.76,8,3,7.68,3.11,7.19&#xA;&#x9;&#x9;C3.35,6.34,3.1,5.3,2.37,4.05C2.23,3.82,2.31,3.51,2.55,3.37c0.23-0.14,0.54-0.06,0.68,0.18c0.88,1.49,1.16,2.79,0.85,3.89&#xA;&#x9;&#x9;C3.93,8.11,3.59,8.57,3.32,8.93C3.01,9.35,2.86,9.57,2.9,9.96c0,0.71,0.55,1.45,1.3,1.78c0.08,0.04,0.15,0.07,0.23,0.1&#xA;&#x9;&#x9;c-0.4-0.94-0.27-2.35,0.55-3.57c0.25-0.38,1.34-1.69,1.55-1.9c-0.6-0.3-1-0.9-1-1.6c0-0.4,0.1-0.8,0.4-1.1&#xA;&#x9;&#x9;C5.75,3.4,5.5,2.94,5.39,2.32C5.32,1.94,5.33,1.61,5.35,1.36C5.55,1.46,5.77,1.6,6,1.78c0.47,0.37,0.76,0.79,0.93,1.09&#xA;&#x9;&#x9;c0.1-0.04,0.32-0.09,0.56-0.1v0.01c0.23,0,0.45,0.06,0.55,0.1c0.17-0.31,0.47-0.72,0.94-1.1C9.2,1.6,9.42,1.46,9.62,1.36&#xA;&#x9;&#x9;c0.02,0.25,0.03,0.58-0.04,0.96C9.47,2.94,9.22,3.4,9.04,3.68c0.3,0.3,0.4,0.7,0.4,1.1c0,0.7-0.4,1.3-1,1.6&#xA;&#x9;&#x9;c0.21,0.2,1.3,1.51,1.55,1.89C11.12,9.96,10.95,12,9.84,12.68z"/>
  </g>
</svg>