<?xml version="1.0" encoding="UTF-8"?>
<svg id="animal-shelter" width="15" height="15" viewBox="0 0 15 15" xmlns="http://www.w3.org/2000/svg">
  <path d="M7.528.895L9 2h1L11.473.896a.33.33 0 01.527.263V4.5c0 .722-.522 1.184-1 1.573V10l.8 2.4.706.353a.894.894 0 01.494.8c0 .247-.2.447-.447.447H4.25c-1.233 0-2.275-1.008-2.214-2.287.105-2.168.417-3.783.709-4.868.146-.543.286-.952.393-1.231.054-.14.099-.247.132-.322l.06-.127a.75.75 0 011.342.668l-.005.01-.025.055a5.553 5.553 0 00-.103.252c-.089.233-.214.593-.346 1.084-.246.915-.519 2.287-.635 4.133.368-2.06 2.422-4.128 4.077-5.609-.345-.326-.634-.72-.634-1.258V3.25 1.158a.33.33 0 01.527-.263z"/>
</svg>