<?xml version="1.0" encoding="UTF-8"?>
<svg version="1.1" id="animal-shelter-11" xmlns="http://www.w3.org/2000/svg" width="11px" height="11px" viewBox="0 0 11 11">
  <g>
    <path d="M7.5,8.96C7.03,9.69,5.95,9.72,5.72,9.73c-0.06,0-0.12,0-0.17-0.01H5.5C5.45,9.73,5.4,9.73,5.33,9.73&#xA;&#x9;&#x9;c-0.17-0.01-0.77-0.02-1.26-0.3C3.61,9.41,3,9.28,2.49,8.82c-0.9-0.83-0.81-2.1-0.76-2.47C1.79,5.95,1.9,5.69,2,5.49&#xA;&#x9;&#x9;c0.09-0.2,0.16-0.35,0.16-0.6C2.17,4.48,1.99,4.06,1.65,3.63C1.51,3.47,1.54,3.23,1.7,3.1c0.16-0.13,0.39-0.11,0.53,0.06&#xA;&#x9;&#x9;C2.69,3.72,2.92,4.31,2.91,4.9c0,0.41-0.12,0.67-0.23,0.9C2.59,5.99,2.51,6.16,2.47,6.45C2.44,6.73,2.36,7.68,3,8.26&#xA;&#x9;&#x9;c0.11,0.11,0.24,0.19,0.37,0.25C3.25,7.9,3.52,7.22,3.77,6.87c0.1-0.16,0.24-0.32,0.52-0.62C4.52,6,4.78,5.73,4.98,5.54&#xA;&#x9;&#x9;C4.36,5.37,3.9,4.79,3.9,4.11c0-0.23,0.05-0.43,0.13-0.61C3.89,3.25,3.74,2.94,3.61,2.56c-0.12-0.38-0.17-0.73-0.19-1&#xA;&#x9;&#x9;c0.23,0.07,0.57,0.2,0.93,0.46c0.3,0.22,0.52,0.46,0.66,0.64C5.13,2.62,5.27,2.61,5.4,2.61c0.03,0,0.0699,0,0.1,0.01&#xA;&#x9;&#x9;c0.02-0.01,0.03,0,0.05,0c0.03-0.01,0.07-0.01,0.1-0.01c0.13,0,0.27,0.01,0.39,0.05C6.18,2.48,6.4,2.24,6.7,2.02&#xA;&#x9;&#x9;C7.06,1.76,7.4,1.63,7.63,1.56c-0.02,0.27-0.07,0.62-0.19,1C7.31,2.94,7.16,3.25,7.02,3.5C7.1,3.68,7.15,3.88,7.15,4.11&#xA;&#x9;&#x9;c0,0.68-0.46,1.26-1.08,1.43C6.27,5.73,6.52,6,6.75,6.25c0.28,0.3,0.42,0.46,0.53,0.62C7.59,7.31,7.94,8.27,7.5,8.96z"/>
  </g>
</svg>