<?xml version="1.0" encoding="utf-8"?>
<!-- Generator: Adobe Illustrator 19.2.1, SVG Export Plug-In . SVG Version: 6.00 Build 0)  -->
<!DOCTYPE svg PUBLIC "-//W3C//DTD SVG 1.1//EN" "http://www.w3.org/Graphics/SVG/1.1/DTD/svg11.dtd">
<svg version="1.1"
	 id="svg2" inkscape:version="0.91 r13725" sodipodi:docname="aquarium-11.svg" xmlns:cc="http://creativecommons.org/ns#" xmlns:dc="http://purl.org/dc/elements/1.1/" xmlns:inkscape="http://www.inkscape.org/namespaces/inkscape" xmlns:rdf="http://www.w3.org/1999/02/22-rdf-syntax-ns#" xmlns:sodipodi="http://sodipodi.sourceforge.net/DTD/sodipodi-0.dtd" xmlns:svg="http://www.w3.org/2000/svg"
	 xmlns="http://www.w3.org/2000/svg" xmlns:xlink="http://www.w3.org/1999/xlink" x="0px" y="0px" width="11px" height="11px"
	 viewBox="0 0 11 11" style="enable-background:new 0 0 11 11;" xml:space="preserve">
<path id="path3338" inkscape:connector-curvature="0" d="M8,1C7.1243,1,6.1491,1.092,4.9961,1.5273
	C3.8431,1.9622,2.8479,2.6569,2,3.5C1.1477,4.3474,0,6,0,6.5s1.1354,1.9426,2.6777,2.6211
	c1.5424,0.6784,2.3909,0.7983,3.2832,0.8945c0.7968,0.086,1.9424-0.027,2.8848-0.2324C9.5925,9.6205,10.9937,9.3099,11,9
	c0,0-2.7561-0.063-3-0.5c-0.2486-0.4448-0.2494-1.5858,0-2c0.258-0.4283,2.5,1,2.5,1c0.6439,0.2576,0.6439-4.2576,0-4
	c0,0-2.2768,1.4474-2.5,1C7.7506,4,7.7506,3,8,2.5C8.2232,2.0526,11,2,11,2C11,1.5,8.8757,1,8,1z M3.5137,4.502
	c0.5598,0.0001,1.0136,0.4539,1.0137,1.0137C4.5272,6.0754,4.0735,6.5292,3.5137,6.5293C2.9539,6.5292,2.5001,6.0754,2.5,5.5156
	C2.5001,4.9558,2.9539,4.5021,3.5137,4.502z"/>
</svg>
