<?xml version="1.0" encoding="UTF-8" standalone="no"?>
<!-- Created with Inkscape (http://www.inkscape.org/) -->

<svg
   xmlns:dc="http://purl.org/dc/elements/1.1/"
   xmlns:cc="http://creativecommons.org/ns#"
   xmlns:rdf="http://www.w3.org/1999/02/22-rdf-syntax-ns#"
   xmlns:svg="http://www.w3.org/2000/svg"
   xmlns="http://www.w3.org/2000/svg"
   xmlns:sodipodi="http://sodipodi.sourceforge.net/DTD/sodipodi-0.dtd"
   xmlns:inkscape="http://www.inkscape.org/namespaces/inkscape"
   width="11"
   height="11"
   viewBox="0 0 11 11"
   id="svg2"
   version="1.1"
   inkscape:version="0.91 r13725"
   sodipodi:docname="aquarium-11.svg">
  <defs
     id="defs4" />
  <sodipodi:namedview
     id="base"
     pagecolor="#ffffff"
     bordercolor="#666666"
     borderopacity="1.0"
     inkscape:pageopacity="0.0"
     inkscape:pageshadow="2"
     inkscape:zoom="32"
     inkscape:cx="-1.2610108"
     inkscape:cy="5.3945564"
     inkscape:document-units="px"
     inkscape:current-layer="svg2"
     showgrid="true"
     units="px"
     showguides="false"
     inkscape:guide-bbox="true"
     inkscape:snap-bbox="true"
     inkscape:bbox-paths="true"
     inkscape:bbox-nodes="true"
     inkscape:object-nodes="true"
     inkscape:snap-smooth-nodes="true"
     inkscape:object-paths="false"
     inkscape:snap-intersection-paths="true"
     inkscape:snap-object-midpoints="false"
     inkscape:snap-grids="true"
     showborder="true"
     inkscape:showpageshadow="false"
     inkscape:window-width="1920"
     inkscape:window-height="969"
     inkscape:window-x="0"
     inkscape:window-y="0"
     inkscape:window-maximized="1">
    <inkscape:grid
       type="xygrid"
       id="grid4136"
       spacingx="0.5"
       spacingy="0.5"
       color="#ef1a00"
       opacity="0.1254902"
       empspacing="2" />
    <sodipodi:guide
       position="7.7505533,3.4802912"
       orientation="1,0"
       id="guide4225" />
  </sodipodi:namedview>
  <metadata
     id="metadata7">
    <rdf:RDF>
      <cc:Work
         rdf:about="">
        <dc:format>image/svg+xml</dc:format>
        <dc:type
           rdf:resource="http://purl.org/dc/dcmitype/StillImage" />
        <dc:title></dc:title>
      </cc:Work>
    </rdf:RDF>
  </metadata>
  <path
     inkscape:connector-curvature="0"
     style="fill:#000000;fill-opacity:1;stroke:none;stroke-opacity:1"
     d="M 8,1 C 7.1243495,1 6.1490684,1.0920438 4.9960938,1.5273438 3.843119,1.9622437 2.8479319,2.6569 2,3.5 1.1477286,4.3474 0,6 0,6.5 0,7 1.1353727,8.4425938 2.6777344,9.1210938 4.2200961,9.7994938 5.0685853,9.919425 5.9609375,10.015625 6.7577489,10.101625 7.9033214,9.988603 8.8457031,9.7832031 9.5924593,9.6205031 10.993695,9.3099 11,9 11,9 8.2439491,8.937 8,8.5 7.7514078,8.0552 7.7505533,6.9142 8,6.5 c 0.2579667,-0.4283 2.5,1 2.5,1 0.643936,0.2576 0.643915,-4.2576 0,-4 0,0 -2.2767894,1.4474 -2.5,1 C 7.7505533,4 7.7505533,3 8,2.5 8.2232106,2.0526 11,2 11,2 11,1.5 8.8756505,1 8,1 Z M 3.5136719,4.5019531 A 1.013864,1.013864 0 0 1 4.5273438,5.515625 1.013864,1.013864 0 0 1 3.5136719,6.5292969 1.013864,1.013864 0 0 1 2.5,5.515625 1.013864,1.013864 0 0 1 3.5136719,4.5019531 Z"
     id="path3338" />
</svg>
