<?xml version="1.0" encoding="utf-8"?>
<!-- Generator: Adobe Illustrator 18.1.0, SVG Export Plug-In . SVG Version: 6.00 Build 0)  -->
<!DOCTYPE svg PUBLIC "-//W3C//DTD SVG 1.1//EN" "http://www.w3.org/Graphics/SVG/1.1/DTD/svg11.dtd">
<svg version="1.1"
	 id="svg2" sodipodi:docname="aquarium-15.svg" inkscape:version="0.91 r13725" xmlns:svg="http://www.w3.org/2000/svg" xmlns:rdf="http://www.w3.org/1999/02/22-rdf-syntax-ns#" xmlns:sodipodi="http://sodipodi.sourceforge.net/DTD/sodipodi-0.dtd" xmlns:inkscape="http://www.inkscape.org/namespaces/inkscape" xmlns:dc="http://purl.org/dc/elements/1.1/" xmlns:cc="http://creativecommons.org/ns#"
	 xmlns="http://www.w3.org/2000/svg" xmlns:xlink="http://www.w3.org/1999/xlink" x="0px" y="0px" width="15px" height="15px"
	 viewBox="-292 193 15 15" enable-background="new -292 193 15 15" xml:space="preserve">
<path d="M-281.1,204.8c-0.3-0.6-0.3-2.3,0-2.8c0.4-0.6,3.4,1.4,3.4,1.4c0.9,0.4,0.9-6.1,0-5.7c0,0-3.1,2.1-3.4,1.4
	c-0.3-0.7-0.3-2.1,0-2.8c0.3-0.6,4.1-0.7,4.1-0.7c0-0.7-2.9-1.4-4.1-1.4s-2.5,0.1-4.1,0.8c-1.6,0.6-2.9,1.6-4.1,2.8
	c-1.2,1.2-2.7,3.6-2.7,4.3s1.5,2.8,3.7,3.7s3.3,1.1,4.5,1.3c1.1,0.1,2.6,0,3.9-0.3c1-0.2,2.9-0.7,2.9-1.1
	C-277,205.5-280.8,205.4-281.1,204.8z M-287.5,202.5c-0.8,0-1.5-0.7-1.5-1.5s0.7-1.5,1.5-1.5s1.5,0.7,1.5,1.5
	S-286.7,202.5-287.5,202.5z"/>
</svg>
