<?xml version="1.0" encoding="UTF-8" standalone="no"?>
<!-- Generator: Adobe Illustrator 19.2.1, SVG Export Plug-In . SVG Version: 6.00 Build 0)  -->

<svg
   xmlns:dc="http://purl.org/dc/elements/1.1/"
   xmlns:cc="http://creativecommons.org/ns#"
   xmlns:rdf="http://www.w3.org/1999/02/22-rdf-syntax-ns#"
   xmlns:svg="http://www.w3.org/2000/svg"
   xmlns="http://www.w3.org/2000/svg"
   xmlns:sodipodi="http://sodipodi.sourceforge.net/DTD/sodipodi-0.dtd"
   xmlns:inkscape="http://www.inkscape.org/namespaces/inkscape"
   version="1.1"
   id="Layer_1"
   x="0px"
   y="0px"
   width="11"
   height="11"
   viewBox="0 0 11 11"
   xml:space="preserve"
   inkscape:version="0.91 r13725"
   sodipodi:docname="archeological-site-11.svg"><metadata
     id="metadata9"><rdf:RDF><cc:Work
         rdf:about=""><dc:format>image/svg+xml</dc:format><dc:type
           rdf:resource="http://purl.org/dc/dcmitype/StillImage" /><dc:title /></cc:Work></rdf:RDF></metadata><defs
     id="defs7" /><sodipodi:namedview
     pagecolor="#ffffff"
     bordercolor="#666666"
     borderopacity="1"
     objecttolerance="10"
     gridtolerance="10"
     guidetolerance="10"
     inkscape:pageopacity="0"
     inkscape:pageshadow="2"
     inkscape:window-width="1920"
     inkscape:window-height="1027"
     id="namedview5"
     showgrid="true"
     inkscape:zoom="90.509668"
     inkscape:cx="2.5882961"
     inkscape:cy="3.5156815"
     inkscape:window-x="-8"
     inkscape:window-y="-8"
     inkscape:window-maximized="1"
     inkscape:current-layer="Layer_1"
     inkscape:snap-bbox="true"
     inkscape:snap-smooth-nodes="true"
     inkscape:bbox-paths="true"
     inkscape:bbox-nodes="true"
     inkscape:snap-bbox-edge-midpoints="true"
     inkscape:snap-bbox-midpoints="true"
     inkscape:object-paths="true"
     inkscape:snap-intersection-paths="true"
     inkscape:object-nodes="true"
     inkscape:snap-midpoints="true"
     showguides="false"><inkscape:grid
       type="xygrid"
       id="grid4137"
       empspacing="1" /></sodipodi:namedview><path
     style="opacity:0.98999999;fill:#000000;fill-opacity:1;stroke:none;stroke-width:1.25;stroke-linecap:round;stroke-linejoin:round;stroke-miterlimit:4;stroke-dasharray:none;stroke-dashoffset:0;stroke-opacity:1"
     d="M 3.4589844,0 C 3.4503241,0 3.4456988,0.00533789 3.4375,0.00585938 3.3968176,0.01006687 3.3568051,0.01925007 3.3183594,0.03320312 c -0.00335,0.0018484 -0.00654,0.0038582 -0.00977,0.0058594 C 3.1221185,0.11633314 3.000394,0.29814948 3,0.5 2.9999297,0.70303787 3.1226485,0.88595832 3.3105469,0.96289062 l 0.00195,0.001953 c 0.00208,0.001206 0.00568,8.0717e-4 0.00781,0.001953 0.04139,0.0160951 0.08474,0.0266042 0.1289063,0.03125 C 3.4537011,0.99819192 3.4563252,1 3.4609375,1 L 4,1 4,2 C 4,2.4568044 3.309491,2.7050073 3,3 2.5110642,3.4660313 2,3.923836 2,5 2,6 2.5162007,7.1316051 3,8 3.4244413,8.7618505 3.809054,9.4859452 4,10 3.8350771,10.0002 3.6613667,10 3.5,10 3.2238576,10 3,10.223858 3,10.5 3,10.776142 3.2238576,11 3.5,11 l 3,0 C 6.7761424,11 7,10.776142 7,10.5 7.0004639,10.280646 6.8579026,10.086604 6.6484375,10.021484 6.6003489,10.002733 6.5457205,10.006617 6.5,10 L 6,10 C 6.1026577,9.7038898 6.2665598,9.3597041 6.46875,8.9746094 6.6266921,8.6737903 6.8083745,8.3481569 7,8 7.4743505,7.1381712 8,6 8,5 8,4.822386 7.9668611,4.6838613 7.9414062,4.5371094 8.5805507,4.0842538 9,3.3429264 9,2.5 9,1.1192881 7.880712,0 6.5,0 Z M 6,1 6.5,1 C 7.328427,1 8,1.6715729 8,2.5 8,2.9257016 7.8199838,3.3070572 7.5351562,3.5800781 7.3709738,3.3678096 7.1878832,3.1790867 7,3 6.7190792,2.7322317 6,2.4054484 6,2 Z"
     id="rect5285"
     inkscape:connector-curvature="0"
     sodipodi:nodetypes="sccccccccscssssccsssccccssscssscsscssc" /></svg>