<?xml version="1.0" encoding="UTF-8" standalone="no"?>
<!-- Generator: Adobe Illustrator 19.2.1, SVG Export Plug-In . SVG Version: 6.00 Build 0)  -->

<svg
   xmlns:dc="http://purl.org/dc/elements/1.1/"
   xmlns:cc="http://creativecommons.org/ns#"
   xmlns:rdf="http://www.w3.org/1999/02/22-rdf-syntax-ns#"
   xmlns:svg="http://www.w3.org/2000/svg"
   xmlns="http://www.w3.org/2000/svg"
   xmlns:sodipodi="http://sodipodi.sourceforge.net/DTD/sodipodi-0.dtd"
   xmlns:inkscape="http://www.inkscape.org/namespaces/inkscape"
   version="1.1"
   id="Layer_1"
   x="0px"
   y="0px"
   width="15px"
   height="15px"
   viewBox="0 0 15 15"
   style="enable-background:new 0 0 15 15;"
   xml:space="preserve"
   inkscape:version="0.91 r13725"
   sodipodi:docname="archeological-site-11.svg"><metadata
     id="metadata9"><rdf:RDF><cc:Work
         rdf:about=""><dc:format>image/svg+xml</dc:format><dc:type
           rdf:resource="http://purl.org/dc/dcmitype/StillImage" /><dc:title /></cc:Work></rdf:RDF></metadata><defs
     id="defs7" /><sodipodi:namedview
     pagecolor="#ffffff"
     bordercolor="#666666"
     borderopacity="1"
     objecttolerance="10"
     gridtolerance="10"
     guidetolerance="10"
     inkscape:pageopacity="0"
     inkscape:pageshadow="2"
     inkscape:window-width="608"
     inkscape:window-height="608"
     id="namedview5"
     showgrid="true"
     inkscape:zoom="31.466666"
     inkscape:cx="8.8332116"
     inkscape:cy="8.0193917"
     inkscape:window-x="663"
     inkscape:window-y="46"
     inkscape:window-maximized="0"
     inkscape:current-layer="Layer_1"
     inkscape:snap-bbox="true"
     inkscape:snap-smooth-nodes="true"
     inkscape:bbox-paths="true"
     inkscape:bbox-nodes="true"
     inkscape:snap-bbox-edge-midpoints="true"
     inkscape:snap-bbox-midpoints="true"
     inkscape:object-paths="true"
     inkscape:snap-intersection-paths="true"
     inkscape:object-nodes="true"
     inkscape:snap-midpoints="true"><inkscape:grid
       type="xygrid"
       id="grid4137"
       empspacing="1" /></sodipodi:namedview><path
     style="opacity:0.98999999;fill:#000000;fill-opacity:1;stroke:none;stroke-width:1.25;stroke-linecap:round;stroke-linejoin:round;stroke-miterlimit:4;stroke-dasharray:none;stroke-dashoffset:0;stroke-opacity:1"
     d="M 5.5158898,3 C 5.2388898,3 5,3.223 5,3.5 5,3.777 5.223,4 5.5,4 L 6,4 c 2,2 -2,1 -2,3 0,3 2,4 2.4766949,5 l -1.0243644,0 c -0.277,0 -0.4841102,0.223 -0.4841102,0.5 0,0.277 0.223,0.5 0.5,0.5 l 4.0476691,0 c 0.277,0 0.4523309,-0.25478 0.4523309,-0.53178 C 9.9682203,12.19122 9.7452199,12 9.4682199,12 L 8.5550843,12 C 9,11 11,10 11,7 11,5 7.0000003,6 9,4 L 9.5476695,4 C 9.777,4 10,3.777 10,3.5 10,3.223 9.8246695,3 9.5476695,3 Z"
     id="rect5285"
     inkscape:connector-curvature="0"
     sodipodi:nodetypes="ssscccsssssscccssss" /></svg>