<?xml version="1.0" encoding="UTF-8" standalone="no"?>
<svg
   xmlns:dc="http://purl.org/dc/elements/1.1/"
   xmlns:cc="http://creativecommons.org/ns#"
   xmlns:rdf="http://www.w3.org/1999/02/22-rdf-syntax-ns#"
   xmlns:svg="http://www.w3.org/2000/svg"
   xmlns="http://www.w3.org/2000/svg"
   xmlns:sodipodi="http://sodipodi.sourceforge.net/DTD/sodipodi-0.dtd"
   xmlns:inkscape="http://www.inkscape.org/namespaces/inkscape"
   xml:space="preserve"
   style="enable-background:new 0 0 15 15;"
   viewBox="0 0 15 15"
   height="15px"
   width="15px"
   y="0px"
   x="0px"
   id="Layer_1"
   version="1.1"
   inkscape:version="0.91 r13725"
   sodipodi:docname="archeological-site-15.svg"><sodipodi:namedview
     pagecolor="#ffffff"
     bordercolor="#666666"
     borderopacity="1"
     objecttolerance="10"
     gridtolerance="10"
     guidetolerance="10"
     inkscape:pageopacity="0"
     inkscape:pageshadow="2"
     inkscape:window-width="1314"
     inkscape:window-height="918"
     id="namedview6"
     showgrid="true"
     inkscape:zoom="44.500587"
     inkscape:cx="10.046148"
     inkscape:cy="6.516266"
     inkscape:window-x="0"
     inkscape:window-y="0"
     inkscape:window-maximized="0"
     inkscape:current-layer="Layer_1"><inkscape:grid
       type="xygrid"
       id="grid4134" /></sodipodi:namedview><metadata
     id="metadata9"><rdf:RDF><cc:Work
         rdf:about=""><dc:format>image/svg+xml</dc:format><dc:type
           rdf:resource="http://purl.org/dc/dcmitype/StillImage" /><dc:title></dc:title></cc:Work></rdf:RDF></metadata><defs
     id="defs7" /><path
     style="opacity:0.98999999;fill:#000000;fill-opacity:1;stroke:none;stroke-width:1.25;stroke-linecap:round;stroke-linejoin:round;stroke-miterlimit:4;stroke-dasharray:none;stroke-dashoffset:0;stroke-opacity:1"
     d="M 3.5,1 C 3.223,1 3,1.223 3,1.5 3,1.777 3.223,2 3.5,2 L 4,2 C 6,4 2,3 2,6 2,9 4,11 5,13 L 4.5,13 C 4.223,13 4,13.223 4,13.5 4,13.777 4.223,14 4.5,14 l 4,0 C 8.777,14 9,13.777 9,13.5 9,13.223 8.777,13 8.5,13 L 8,13 C 8.9032518,11.193496 10.607453,9.3793717 10.931641,6.8359375 12.126942,6.4404389 13,5.324083 13,4 13,2.3490681 11.650932,1 10,1 Z M 10,2 c 1.110492,0 2,0.8895082 2,2 0,0.7530998 -0.413758,1.3969583 -1.023438,1.7382812 C 10.776688,3.4719942 8.1051596,3.7485027 8.4882812,2.6992188 8.8541097,2.2737688 9.390445,2 10,2 Z"
     id="rect5285"
     inkscape:connector-curvature="0"
     sodipodi:nodetypes="csscscssssssccsccssccs" /></svg>