<?xml version="1.0" encoding="UTF-8" standalone="no"?>
<!-- Generator: Adobe Illustrator 17.1.0, SVG Export Plug-In . SVG Version: 6.00 Build 0)  -->

<svg
   xmlns:dc="http://purl.org/dc/elements/1.1/"
   xmlns:cc="http://creativecommons.org/ns#"
   xmlns:rdf="http://www.w3.org/1999/02/22-rdf-syntax-ns#"
   xmlns:svg="http://www.w3.org/2000/svg"
   xmlns="http://www.w3.org/2000/svg"
   xmlns:sodipodi="http://sodipodi.sourceforge.net/DTD/sodipodi-0.dtd"
   xmlns:inkscape="http://www.inkscape.org/namespaces/inkscape"
   version="1.1"
   id="svg4764"
   sodipodi:docname="art-gallery-11.svg"
   inkscape:version="0.91 r13725"
   x="0px"
   y="0px"
   height='11'
   width='11'
   viewBox="0 0 11 11"
   enable-background="new 0 0 11 11"
   xml:space="preserve"><metadata
     id="metadata8"><rdf:RDF><cc:Work
         rdf:about=""><dc:format>image/svg+xml</dc:format><dc:type
           rdf:resource="http://purl.org/dc/dcmitype/StillImage" /><dc:title></dc:title></cc:Work></rdf:RDF></metadata><defs
     id="defs6" /><sodipodi:namedview
     id="namedview3340"
     inkscape:current-layer="svg4764"
     inkscape:window-height="617"
     inkscape:pageopacity="0"
     inkscape:window-width="706"
     inkscape:window-y="12"
     inkscape:pageshadow="2"
     inkscape:document-units="px"
     inkscape:window-maximized="0"
     inkscape:window-x="50"
     inkscape:cx="5.6776281"
     borderopacity="1"
     objecttolerance="10"
     bordercolor="#666666"
     gridtolerance="10"
     showgrid="true"
     inkscape:cy="7.1745728"
     inkscape:zoom="42.909091"
     guidetolerance="10"
     pagecolor="#ffffff"
     inkscape:snap-bbox="true"
     inkscape:bbox-paths="true"
     inkscape:bbox-nodes="true"
     inkscape:snap-bbox-edge-midpoints="true"
     inkscape:snap-bbox-midpoints="true"
     inkscape:object-paths="true"
     inkscape:object-nodes="true"
     inkscape:snap-intersection-paths="true"
     inkscape:snap-smooth-nodes="true"><inkscape:grid
       type="xygrid"
       id="grid3336"
       spacingx="0.5"
       spacingy="0.5"
       color="#f20011"
       opacity="0.1254902"
       empspacing="2" /></sodipodi:namedview><path
     d="M 9.9963721,3.4512743 C 9.2441691,2.4447499 7.9868105,1.5791771 6.5380189,1.2062769 5.0892277,0.83337668 3.5965884,1.0356794 2.4374624,1.505708 1.2528875,1.9860562 0,2.5 0,4 0,5.9129716 3.0328756,5.7912878 2.6957186,7.1271125 2.4227823,8.208495 2.9217922,9.4208228 4.3705829,9.7937235 5.8193743,10.166624 7.3336151,10.014425 8.4711403,9.4942926 9.6086641,8.9741593 11,8 11,6.5 11,5 10.748575,4.4577985 9.9963721,3.4512743 Z M 2.0299383,4.4492553 C 1.6519927,4.351977 1.4642492,4.0326819 1.5605798,3.6510176 1.6569103,3.2693534 1.9730942,3.0797627 2.3510398,3.177041 2.7289854,3.2743194 2.916729,3.5936144 2.8203984,3.9752787 2.7240678,4.3569429 2.4078839,4.5465335 2.0299383,4.4492553 Z M 4.0060881,3.2643138 C 3.6281426,3.1670354 3.4403997,2.8477404 3.5367302,2.4660762 3.6330602,2.0844119 3.9492447,1.8948213 4.3271896,1.9920996 4.7051352,2.0893779 4.8928788,2.408673 4.7965482,2.7903372 4.7002176,3.1720015 4.3840337,3.3615921 4.0060881,3.2643138 Z m 0.685597,5.2571946 C 4.1877576,8.3918042 3.8592066,7.833038 3.9876469,7.3241526 4.1160879,6.8152669 4.6694099,6.483483 5.1733373,6.6131878 5.6772648,6.742892 6.0058152,7.3016582 5.8773748,7.8105442 5.7489339,8.3194301 5.1956119,8.6512138 4.6916851,8.5215084 Z M 6.2910458,3.513717 C 5.9131002,3.4164388 5.7253566,3.0971437 5.8216872,2.7154793 5.9180178,2.3338151 6.2342017,2.1442245 6.6121473,2.2415028 6.9900928,2.3387807 7.1778364,2.6580762 7.0815058,3.0397404 6.9851748,3.4214047 6.6689913,3.6109954 6.2910458,3.513717 Z M 7.8658184,3.9190433 C 7.9621484,3.5373791 8.2783335,3.3477885 8.6562784,3.4450668 9.0342241,3.5423447 9.2219671,3.8616401 9.1256371,4.2433044 9.0293061,4.6249687 8.7131225,4.8145594 8.3351776,4.717281 7.9572313,4.6200028 7.7694884,4.3007077 7.8658184,3.9190433 Z M 8.798388,6.8687986 C 8.420443,6.7715201 8.2326995,6.4522248 8.3290301,6.0705606 c 0.096331,-0.3816644 0.4125138,-0.571255 0.79046,-0.4739767 0.377945,0.097279 0.565689,0.4165734 0.469358,0.7982376 -0.09633,0.3816646 -0.412514,0.5712548 -0.7904601,0.4739771 z"
     id="path5"
     style="fill:#000000;fill-opacity:1"
     inkscape:connector-curvature="0"
     sodipodi:nodetypes="sssssssssssssssssssssssssssssssssssssss" /></svg>
