<?xml version="1.0" encoding="utf-8"?>
<!-- Generator: Adobe Illustrator 18.1.0, SVG Export Plug-In . SVG Version: 6.00 Build 0)  -->
<!DOCTYPE svg PUBLIC "-//W3C//DTD SVG 1.1//EN" "http://www.w3.org/Graphics/SVG/1.1/DTD/svg11.dtd">
<svg version="1.1"
	 id="svg4619" sodipodi:docname="attraction-11.svg" inkscape:version="0.91 r13725" xmlns:svg="http://www.w3.org/2000/svg" xmlns:rdf="http://www.w3.org/1999/02/22-rdf-syntax-ns#" xmlns:sodipodi="http://sodipodi.sourceforge.net/DTD/sodipodi-0.dtd" xmlns:inkscape="http://www.inkscape.org/namespaces/inkscape" xmlns:dc="http://purl.org/dc/elements/1.1/" xmlns:cc="http://creativecommons.org/ns#"
	 xmlns="http://www.w3.org/2000/svg" xmlns:xlink="http://www.w3.org/1999/xlink" x="0px" y="0px" width="11px" height="11px"
	 viewBox="-294 195 11 11" enable-background="new -294 195 11 11" xml:space="preserve">
<sodipodi:namedview  inkscape:showpageshadow="false" inkscape:guide-bbox="true" inkscape:window-maximized="0" inkscape:window-y="0" inkscape:window-x="-6" inkscape:snap-smooth-nodes="true" inkscape:object-nodes="true" inkscape:object-paths="true" inkscape:snap-bbox-midpoints="false" inkscape:bbox-nodes="true" inkscape:bbox-paths="true" inkscape:snap-bbox="true" inkscape:document-units="px" inkscape:current-layer="svg4619" inkscape:pageopacity="0" inkscape:window-height="912" inkscape:window-width="1920" inkscape:pageshadow="2" inkscape:snap-intersection-paths="true" inkscape:snap-bbox-edge-midpoints="true" borderlayer="false" pagecolor="#ffffff" bordercolor="#666666" inkscape:cx="4.7051595" inkscape:cy="6.4287005" showguides="true" showborder="true" gridtolerance="10" objecttolerance="10" borderopacity="1" showgrid="true" id="namedview3418" guidetolerance="10" inkscape:zoom="90.509668">
	
		<inkscape:grid  type="xygrid" color="#ff001a" spacingy="0.44117647" spacingx="0.44117647" empspacing="2" opacity="0.1254902" id="grid3440">
		</inkscape:grid>
	<sodipodi:guide  position="0,13.235294" orientation="1,0" id="guide7786"></sodipodi:guide>
	<sodipodi:guide  position="0.44117647,9.7058824" orientation="0,1" id="guide7788"></sodipodi:guide>
	<sodipodi:guide  position="9.7058824,0.88235294" orientation="1,0" id="guide7790"></sodipodi:guide>
	<sodipodi:guide  position="0,0" orientation="0,1" id="guide7792"></sodipodi:guide>
</sodipodi:namedview>
<path id="rect7143" d="M-289.5,196c0,0-0.5,0-0.7,0.5l-0.3,0.5h-2.5c-0.6,0-1,0.4-1,1v5c0,0.6,0.4,1,1,1h9c0.6,0,1-0.4,1-1v-5
	c0-0.6-0.4-1-1-1h-2.5l-0.3-0.5c-0.2-0.5-0.7-0.5-0.7-0.5H-289.5z M-288.5,198c1.4,0,2.5,1.1,2.5,2.5s-1.1,2.5-2.5,2.5
	s-2.5-1.1-2.5-2.5S-289.9,198-288.5,198z M-288.5,199.5c-0.6,0-1,0.4-1,1s0.4,1,1,1s1-0.4,1-1S-287.9,199.5-288.5,199.5z"/>
</svg>
