<?xml version="1.0" encoding="utf-8"?>
<!-- Generator: Adobe Illustrator 19.2.1, SVG Export Plug-In . SVG Version: 6.00 Build 0)  -->
<!DOCTYPE svg PUBLIC "-//W3C//DTD SVG 1.1//EN" "http://www.w3.org/Graphics/SVG/1.1/DTD/svg11.dtd">
<svg version="1.1"
	 id="svg4619" inkscape:version="0.91 r13725" sodipodi:docname="attraction-15.svg" xmlns:cc="http://creativecommons.org/ns#" xmlns:dc="http://purl.org/dc/elements/1.1/" xmlns:inkscape="http://www.inkscape.org/namespaces/inkscape" xmlns:rdf="http://www.w3.org/1999/02/22-rdf-syntax-ns#" xmlns:sodipodi="http://sodipodi.sourceforge.net/DTD/sodipodi-0.dtd" xmlns:svg="http://www.w3.org/2000/svg"
	 xmlns="http://www.w3.org/2000/svg" xmlns:xlink="http://www.w3.org/1999/xlink" x="0px" y="0px" width="15px" height="15px"
	 viewBox="0 0 15 15" style="enable-background:new 0 0 15 15;" xml:space="preserve">
<path id="rect7143" d="M6,2C5.446,2,5.2478,2.5045,5,3L4.5,4h-2C1.669,4,1,4.669,1,5.5v5C1,11.331,1.669,12,2.5,12h10
	c0.831,0,1.5-0.669,1.5-1.5v-5C14,4.669,13.331,4,12.5,4h-2L10,3C9.75,2.5,9.554,2,9,2H6z M2.5,5C2.7761,5,3,5.2239,3,5.5
	S2.7761,6,2.5,6S2,5.7761,2,5.5S2.2239,5,2.5,5z M7.5,5c1.6569,0,3,1.3431,3,3s-1.3431,3-3,3s-3-1.3431-3-3S5.8431,5,7.5,5z
	 M7.5,6.5C6.6716,6.5,6,7.1716,6,8l0,0c0,0.8284,0.6716,1.5,1.5,1.5l0,0C8.3284,9.5,9,8.8284,9,8l0,0C9,7.1716,8.3284,6.5,7.5,6.5
	L7.5,6.5z"/>
</svg>
