<?xml version="1.0" encoding="UTF-8"?>
<svg height="15" viewBox="0 0 15 15" width="15" xmlns="http://www.w3.org/2000/svg" id="bakery">
  <path d="m5.294 3.882.706 5.118c-.00287.13211.02104.26343.07028.38605s.1228.234.21623.32744c.09344.09343.20482.16699.32744.21623s.25394.07318.38605.07028h1c.13211.0029.26343-.02104.38605-.07028s.234-.1228.32744-.21623c.09343-.09344.16699-.20482.21623-.32744s.07315-.25394.07028-.38605l.706-5.118c0-1.382-2.206-1.382-2.206-1.382s-2.209 0-2.206 1.382zm-1.794.618c-1.5 0-1.5 1-1.5 1l1 4h1.5c.20573.00039.40355-.07919.5517-.22193.14816-.14274.23504-.33747.2423-.54307l-.794-4.235zm-2 2.5c-.39274-.0034-.771811.14408-1.059.412-.251692.22883-.4089477.54335-.441.882v2.206h.882c.14028.0136.28185-.0021.41578-.046.13392-.0439.2573-.1151.36235-.209.10504-.094.18948-.2087.24797-.33691.0585-.12822.08979-.26717.0919-.40809zm10-2.5c1.5 0 1.5 1 1.5 1l-1 4h-1.5c-.2057.00039-.4036-.07919-.5517-.22193-.14816-.14274-.23504-.33747-.2423-.54307l.794-4.235zm2 2.5c.3927-.0034.7718.14408 1.059.412.2517.22883.4089.54335.441.882v2.206h-.882c-.1403.0136-.2819-.0021-.4158-.046s-.2573-.1151-.3623-.209c-.1051-.094-.1895-.2087-.248-.33691-.0585-.12822-.0898-.26717-.0919-.40809z"/>
</svg>