<?xml version="1.0" encoding="UTF-8" standalone="no"?>
<!-- Generator: Adobe Illustrator 17.1.0, SVG Export Plug-In . SVG Version: 6.00 Build 0)  -->

<svg
   xmlns:dc="http://purl.org/dc/elements/1.1/"
   xmlns:cc="http://creativecommons.org/ns#"
   xmlns:rdf="http://www.w3.org/1999/02/22-rdf-syntax-ns#"
   xmlns:svg="http://www.w3.org/2000/svg"
   xmlns="http://www.w3.org/2000/svg"
   xmlns:sodipodi="http://sodipodi.sourceforge.net/DTD/sodipodi-0.dtd"
   xmlns:inkscape="http://www.inkscape.org/namespaces/inkscape"
   version="1.1"
   id="svg4619"
   inkscape:version="0.91 r13725"
   sodipodi:docname="bakery-15.svg"
   x="0px"
   y="0px"
   height='15'
   width='15'
   viewBox="0 0 15 15"
   enable-background="new 0 0 15 15"
   xml:space="preserve"><metadata
     id="metadata8"><rdf:RDF><cc:Work
         rdf:about=""><dc:format>image/svg+xml</dc:format><dc:type
           rdf:resource="http://purl.org/dc/dcmitype/StillImage" /><dc:title></dc:title></cc:Work></rdf:RDF></metadata><defs
     id="defs6" /><sodipodi:namedview
     inkscape:object-nodes="true"
     inkscape:snap-bbox="true"
     inkscape:bbox-paths="true"
     inkscape:bbox-nodes="true"
     inkscape:window-x="6"
     inkscape:window-y="0"
     inkscape:window-width="1086"
     inkscape:object-paths="true"
     inkscape:pageopacity="0"
     inkscape:window-height="721"
     inkscape:current-layer="svg4619"
     inkscape:window-maximized="0"
     inkscape:document-units="px"
     inkscape:pageshadow="2"
     id="namedview3358"
     gridtolerance="10"
     borderopacity="1"
     bordercolor="#666666"
     inkscape:cx="7.7533656"
     guidetolerance="10"
     showgrid="false"
     pagecolor="#ffffff"
     inkscape:cy="8.0456684"
     objecttolerance="10"
     inkscape:zoom="27.764706"
     inkscape:snap-intersection-paths="true"
     inkscape:snap-bbox-edge-midpoints="true"
     inkscape:snap-smooth-nodes="true"><inkscape:grid
       type="xygrid"
       id="grid3438"
       spacingx="0.5"
       spacingy="0.5"
       color="#f20016"
       opacity="0.1254902"
       empspacing="2" /></sodipodi:namedview><path
     style="fill:#000000;fill-opacity:1"
     d="M 5.2941176,4.3823529 6,9.5 c 0,0 0,1 1,1 l 1,0 c 1,0 1,-1 1,-1 L 9.7058824,4.3823529 C 9.7058824,3 7.5,3 7.5,3 7.5,3 5.2909892,3 5.2941176,4.3823529 Z M 3.5,5 C 2,5 2,6 2,6 l 1,4 1.5,0 C 5.2550138,10 5.2941176,9.2352941 5.2941176,9.2352941 L 4.5,5 Z m -2,2.5 C 1.5,7.5 0.88235294,7.4705882 0.44117647,7.9117647 0,8.3529412 0,8.7941176 0,8.7941176 L 0,11 0.88235294,11 C 2,11 2,10 2,10 Z"
     id="path5230"
     inkscape:connector-curvature="0"
     sodipodi:nodetypes="ccssccccsccsccscsccscc" /><path
     style="fill:#000000;fill-opacity:1"
     d="M 11.5,5 C 13,5 13,6 13,6 l -1,4 -1.5,0 C 9.744986,10 9.705882,9.235294 9.705882,9.235294 L 10.5,5 Z m 2,2.5 c 0,0 0.617647,-0.02941 1.058823,0.411765 C 15,8.352941 15,8.794118 15,8.794118 L 15,11 14.117647,11 C 13,11 13,10 13,10 Z"
     id="path5230-2"
     inkscape:connector-curvature="0"
     sodipodi:nodetypes="sccsccscsccscc" /></svg>
