<svg id="Layer_1" data-name="Layer 1" xmlns="http://www.w3.org/2000/svg" width="15" height="15" viewBox="0 0 15 15">
  <title>baseball-15</title>
  <path d="M10,3.5A1.5,1.5,0,1,1,8.5,2,1.5,1.5,0,0,1,10,3.5ZM7,0.28A0.28,0.28,0,0,0,6.72,0a0.49,0.49,0,0,0-.25.16L4,4.59a0.48,0.48,0,0,0,0,.13A0.28,0.28,0,0,0,4.28,5a0.49,0.49,0,0,0,.26-0.16L7,0.41A0.47,0.47,0,0,0,7,.28ZM12.9,14.2h0L10,6.39h0A0.49,0.49,0,0,0,9.52,6h-5a0.5,0.5,0,0,0,0,1H7L8.45,9.51,4.18,14.12h0A0.49,0.49,0,0,0,4,14.5a0.5,0.5,0,0,0,.5.5,0.49,0.49,0,0,0,.33-0.13h0l4.45-4.15,2.76,4h0a0.51,0.51,0,0,0,.44.26A0.52,0.52,0,0,0,13,14.48,0.5,0.5,0,0,0,12.9,14.2Z"/>
</svg>
