<?xml version="1.0" encoding="utf-8"?>
<!-- Generator: Adobe Illustrator 19.2.1, SVG Export Plug-In . SVG Version: 6.00 Build 0)  -->
<!DOCTYPE svg PUBLIC "-//W3C//DTD SVG 1.1//EN" "http://www.w3.org/Graphics/SVG/1.1/DTD/svg11.dtd">
<svg version="1.1" id="Layer_1" xmlns="http://www.w3.org/2000/svg" xmlns:xlink="http://www.w3.org/1999/xlink" x="0px" y="0px"
	 width="11px" height="11px" viewBox="0 0 11 11" style="enable-background:new 0 0 11 11;" xml:space="preserve">
<path d="M7,3c0,0.5523-0.4477,1-1,1S5,3.5523,5,3s0.4477-1,1-1S7,2.4477,7,3z M9.85,10.24L9.85,10.24l-3-4.85
	C6.7391,5.2011,6.5603,5.0616,6.35,5H2.5C2.2239,5,2,5.2239,2,5.5S2.2239,6,2.5,6H5l0.92,1.09l-2.73,3l0,0
	C3.0637,10.1876,2.9928,10.3405,3,10.5C3,10.7761,3.2239,11,3.5,11c0.1224-0.0006,0.2401-0.047,0.33-0.13l0,0l3-2.71L9,10.81l0,0
	c0.0912,0.1178,0.231,0.1877,0.38,0.19c0.2761,0,0.5-0.2239,0.5-0.5C9.8938,10.4122,9.8834,10.3223,9.85,10.24z M4,0.28
	C4,0.1254,3.8746,0,3.72,0C3.6221,0.0262,3.5348,0.0821,3.47,0.16L2,4.59C1.9941,4.6331,1.9941,4.6769,2,4.72
	C2,4.8746,2.1254,5,2.28,5c0.1015-0.0243,0.1926-0.0803,0.26-0.16L4,0.41C4.006,0.3669,4.006,0.3231,4,0.28z"/>
</svg>
