<?xml version="1.0" encoding="UTF-8" standalone="no"?>
<!-- Generator: Adobe Illustrator 17.1.0, SVG Export Plug-In . SVG Version: 6.00 Build 0)  -->

<svg
   xmlns:dc="http://purl.org/dc/elements/1.1/"
   xmlns:cc="http://creativecommons.org/ns#"
   xmlns:rdf="http://www.w3.org/1999/02/22-rdf-syntax-ns#"
   xmlns:svg="http://www.w3.org/2000/svg"
   xmlns="http://www.w3.org/2000/svg"
   xmlns:sodipodi="http://sodipodi.sourceforge.net/DTD/sodipodi-0.dtd"
   xmlns:inkscape="http://www.inkscape.org/namespaces/inkscape"
   version="1.1"
   id="svg4764"
   inkscape:version="0.91+devel+osxmenu r12911"
   sodipodi:docname="baseball-11.svg"
   x="0px"
   y="0px"
   height='11'
   width='11'
   viewBox="0 0 11 11"
   enable-background="new 0 0 11 11"
   xml:space="preserve"><metadata
     id="metadata10"><rdf:RDF><cc:Work
         rdf:about=""><dc:format>image/svg+xml</dc:format><dc:type
           rdf:resource="http://purl.org/dc/dcmitype/StillImage" /></cc:Work></rdf:RDF></metadata><defs
     id="defs8" /><sodipodi:namedview
     inkscape:window-width="938"
     inkscape:pageopacity="0"
     inkscape:window-height="657"
     inkscape:current-layer="svg4764"
     inkscape:document-units="px"
     inkscape:pageshadow="2"
     id="namedview3340"
     gridtolerance="10"
     borderopacity="1"
     bordercolor="#666666"
     inkscape:cx="2.6309566"
     guidetolerance="10"
     showgrid="false"
     pagecolor="#ffffff"
     inkscape:cy="2.3683189"
     objecttolerance="10"
     inkscape:zoom="51.09091"
     inkscape:snap-bbox="true"
     inkscape:bbox-paths="true"
     inkscape:snap-bbox-edge-midpoints="true"
     inkscape:bbox-nodes="true"
     inkscape:snap-nodes="true"
     inkscape:snap-bbox-midpoints="true"
     inkscape:object-paths="true"
     inkscape:snap-intersection-paths="true"
     inkscape:object-nodes="true"
     inkscape:snap-smooth-nodes="true"
     inkscape:window-x="0"
     inkscape:window-y="0"
     inkscape:window-maximized="0"><inkscape:grid
       type="xygrid"
       id="grid3348" /></sodipodi:namedview><path
     style="fill:#000000;fill-opacity:1"
     d="M 0 0 L 0 1.8007812 C 1.8 4.2007813 5.6003906 6.2 7.9003906 8.5 L 9 10 L 9 11 L 10.400391 11 L 11 10.400391 L 11 9 L 10 9 L 8.5996094 7.9003906 C 6.3996094 5.8003906 4.3007812 1.8 1.8007812 0 L 0 0 z M 2.5 7 A 1.5 1.5 0 0 0 1 8.5 A 1.5 1.5 0 0 0 2.5 10 A 1.5 1.5 0 0 0 4 8.5 A 1.5 1.5 0 0 0 2.5 7 z "
     id="path20839" /></svg>
