<svg id="Layer_1" data-name="Layer 1" xmlns="http://www.w3.org/2000/svg" width="11" height="11" viewBox="0 0 11 11">
  <title>baseball-11</title>
  <path d="M8.12,2.75A1.25,1.25,0,1,1,6.87,1.5,1.25,1.25,0,0,1,8.12,2.75ZM9,6.7a0.48,0.48,0,0,0,0-.13H9L8,4.89H8A0.49,0.49,0,0,0,7.5,4.5H3a0.5,0.5,0,0,0,0,1H5.87L7,6.57l-1.11,1h0a0.5,0.5,0,0,0-.16.61h0l1.43,2.54v0h0a0.5,0.5,0,0,0,.95-0.22,0.49,0.49,0,0,0,0-.16h0L7.18,8.21,8.71,7.14h0A0.49,0.49,0,0,0,9,6.7ZM2.3,10.12h0a0.49,0.49,0,0,0-.18.38,0.5,0.5,0,0,0,.5.5A0.49,0.49,0,0,0,3,10.87H3L5.12,9,4.61,8ZM5.15,0.28A0.28,0.28,0,0,0,4.87,0a0.49,0.49,0,0,0-.25.16L3,3.5a0.48,0.48,0,0,0,0,.13,0.28,0.28,0,0,0,.28.28,0.49,0.49,0,0,0,.26-0.16L5.12,0.41A0.47,0.47,0,0,0,5.15.28Z"/>
</svg>
