<svg id="Layer_1" data-name="Layer 1" xmlns="http://www.w3.org/2000/svg" width="15" height="15" viewBox="0 0 15 15">
  <title>baseball-15</title>
  <path d="M10,3.25A1.25,1.25,0,1,1,8.75,2,1.25,1.25,0,0,1,10,3.25ZM10.48,8.7a0.48,0.48,0,0,0,0-.13h0l-1-3.18h0A0.49,0.49,0,0,0,9,5H4.5a0.5,0.5,0,0,0,0,1H7.37L8.49,8.57l-1.11,1h0a0.5,0.5,0,0,0-.16.61h0L9,13.69v0h0A0.5,0.5,0,0,0,10,13.5a0.49,0.49,0,0,0,0-.16h0l-1.3-3.13,1.54-1.07h0A0.49,0.49,0,0,0,10.48,8.7Zm-6.3,4.42h0A0.49,0.49,0,0,0,4,13.5a0.5,0.5,0,0,0,.5.5,0.49,0.49,0,0,0,.33-0.13h0L7,12,6.48,11ZM7,0.78A0.28,0.28,0,0,0,6.74.5a0.27,0.27,0,0,0-.24.17h0L4.84,4h0a0.26,0.26,0,0,0,0,.12,0.28,0.28,0,0,0,.28.28,0.27,0.27,0,0,0,.24-0.17h0L7,0.91H7A0.26,0.26,0,0,0,7,.78Z"/>
</svg>
