<svg id="Layer_1" data-name="Layer 1" xmlns="http://www.w3.org/2000/svg" width="11" height="11" viewBox="0 0 11 11">
  <title>baseball-11</title>
  <path d="M7,3A1,1,0,1,1,6,2,1,1,0,0,1,7,3Zm2.85,7.24h0l-3-4.85A0.86,0.86,0,0,0,6.35,5H2.5a0.5,0.5,0,0,0,0,1H5L5.92,7.09l-2.73,3h0A0.49,0.49,0,0,0,3,10.5a0.5,0.5,0,0,0,.5.5,0.49,0.49,0,0,0,.33-0.13h0l3-2.71L9,10.81h0a0.49,0.49,0,0,0,.38.19,0.5,0.5,0,0,0,.5-0.5A0.49,0.49,0,0,0,9.85,10.24ZM4,0.28A0.28,0.28,0,0,0,3.72,0a0.49,0.49,0,0,0-.25.16L2,4.59a0.48,0.48,0,0,0,0,.13A0.28,0.28,0,0,0,2.28,5a0.49,0.49,0,0,0,.26-0.16L4,0.41A0.47,0.47,0,0,0,4,.28Z"/>
</svg>
