<?xml version="1.0" encoding="UTF-8" standalone="no"?>
<!-- Generator: Adobe Illustrator 17.1.0, SVG Export Plug-In . SVG Version: 6.00 Build 0)  -->

<svg
   xmlns:dc="http://purl.org/dc/elements/1.1/"
   xmlns:cc="http://creativecommons.org/ns#"
   xmlns:rdf="http://www.w3.org/1999/02/22-rdf-syntax-ns#"
   xmlns:svg="http://www.w3.org/2000/svg"
   xmlns="http://www.w3.org/2000/svg"
   xmlns:sodipodi="http://sodipodi.sourceforge.net/DTD/sodipodi-0.dtd"
   xmlns:inkscape="http://www.inkscape.org/namespaces/inkscape"
   version="1.1"
   id="svg4619"
   inkscape:version="0.91 r13725"
   sodipodi:docname="baseball-15.svg"
   x="0px"
   y="0px"
   height='15'
   width='15'
   viewBox="0 0 15 15"
   enable-background="new 0 0 15 15"
   xml:space="preserve"><metadata
     id="metadata10"><rdf:RDF><cc:Work
         rdf:about=""><dc:format>image/svg+xml</dc:format><dc:type
           rdf:resource="http://purl.org/dc/dcmitype/StillImage" /><dc:title /></cc:Work></rdf:RDF></metadata><defs
     id="defs8" /><sodipodi:namedview
     inkscape:object-nodes="true"
     inkscape:snap-bbox="true"
     inkscape:snap-smooth-nodes="true"
     inkscape:window-x="0"
     inkscape:window-y="0"
     inkscape:window-width="907"
     inkscape:object-paths="true"
     inkscape:pageopacity="0"
     inkscape:window-height="755"
     inkscape:current-layer="svg4619"
     inkscape:window-maximized="0"
     inkscape:document-units="px"
     inkscape:pageshadow="2"
     id="namedview3340"
     gridtolerance="10"
     borderopacity="1"
     bordercolor="#666666"
     inkscape:cx="12.784204"
     guidetolerance="10"
     showgrid="false"
     pagecolor="#ffffff"
     inkscape:cy="7.4734556"
     objecttolerance="10"
     inkscape:zoom="27.532411"
     inkscape:snap-intersection-paths="true"><inkscape:grid
       type="xygrid"
       id="grid3342"
       spacingx="0.5"
       spacingy="0.5"
       color="#b90023"
       opacity="0.1254902"
       empspacing="2" /></sodipodi:namedview><path
     style="fill:#000000;fill-opacity:1"
     d="M 1.8535156 -0.009765625 C 1.5784148 -0.015914819 0.96967738 0.03032258 0.5 0.5 C -0.12623656 1.1262365 -7.4014868e-17 2 0 2 C 2.9522581 6.1152689 8.3190297 9.4830921 9.3925781 10.556641 L 12.439453 13.443359 C 12.170622 13.833315 12.191635 14.359604 12.539062 14.707031 C 12.9308 15.098768 13.561388 15.098768 13.953125 14.707031 L 14.660156 14 C 15.051893 13.608263 15.051893 12.977675 14.660156 12.585938 C 14.328963 12.254744 13.835171 12.220398 13.451172 12.449219 L 10.556641 9.3925781 C 7.7791279 6.3546736 6.1152689 2.9522581 2 0 C 2 0 1.9452159 -0.0077158938 1.8535156 -0.009765625 z M 3.578125 9.8417969 C 2.594039 9.8417969 1.7890625 10.646773 1.7890625 11.630859 C 1.7890625 12.614945 2.594039 13.419922 3.578125 13.419922 C 4.562211 13.419922 5.3671875 12.614945 5.3671875 11.630859 C 5.3671875 10.646773 4.562211 9.8417969 3.578125 9.8417969 z "
     id="path20837" /></svg>
