<?xml version="1.0" encoding="UTF-8"?>
<svg height="15" viewBox="0 0 15 15" width="15" xmlns="http://www.w3.org/2000/svg" id="basketball">
  <path d="m3.66 6.47h-1.63c.08012-.97923.42969-1.91719 1.01-2.71.35039.86432.55972 1.7793.62 2.71zm1.075 0h2.34v-4.97c-1.21015.1061-2.35032.61284-3.24 1.44.52991 1.10578.83578 2.30549.9 3.53zm3.19-4.97v4.97h2.34c.0642-1.22451.3701-2.42422.9-3.53-.8897-.82716-2.02985-1.3339-3.24-1.44zm4.035 2.26c-.3504.86432-.5597 1.7793-.62 2.71h1.63c-.0801-.97923-.4297-1.91719-1.01-2.71zm2.04 4.46c-.0014.19847-.0809.3884-.2213.52874-.1403.14034-.3302.21982-.5287.22126h-1.53l-.76 1.52v2.38c-.0022.0752-.026.1482-.0685.2103-.0426.0621-.1021.1106-.1715.1397-.0457.0123-.0927.019-.14.02-.0488.0022-.0975-.0065-.1425-.0255-.045-.0191-.0851-.0479-.1175-.0845l-1.02-1.01-1.59 1.06c-.06302.0392-.13577.06-.21.06s-.14698-.0208-.21-.06l-1.59-1.06-1.02 1.01c-.05044.0527-.11529.0893-.18643.1053-.07115.016-.14543.0107-.21357-.0153-.06938-.0291-.1289-.0776-.17146-.1397s-.06635-.1351-.06854-.2103v-2.38l-.76-1.52h-1.53c-.19891 0-.38968-.07902-.53033-.21967s-.21967-.33142-.21967-.53033.07902-.38968.21967-.53033.33142-.21967.53033-.21967h11.5c.0984-.00013.1958.01913.2868.05667.0909.03754.1736.09264.2433.16214.0696.0695.1249.15204.1626.24291.0378.09087.0572.18829.0573.28668zm-7.14.75h-2.74l.63 1.27c.02719.0489.04099.1041.04.16v1.56l.56-.55zm1.98 2.55-1.34-2.16-1.34 2.16 1.34.9zm2.05-2.55h-2.75l1.51 2.44.56.55v-1.56c-.001-.0559.0128-.1111.04-.16z"/>
</svg>