<svg id="Layer_1" data-name="Layer 1" xmlns="http://www.w3.org/2000/svg" width="15" height="15" viewBox="0 0 15 15">
  <title>basketball-15</title>
  <path d="M9,3.5A1.5,1.5,0,1,1,7.5,2,1.5,1.5,0,0,1,9,3.5ZM14,1a1,1,0,1,0,1,1A1,1,0,0,0,14,1ZM11.89,13.19L9,9.58V6.5H9.5a0.49,0.49,0,0,0,.41-0.23h0l1.94-2.42h0l0.06-.08h0A0.49,0.49,0,0,0,12,3.5a0.5,0.5,0,0,0-.86-0.34h0L9.26,5.5H5.5a0.5,0.5,0,0,0-.36.16h0l-2,2.54h0A0.49,0.49,0,0,0,3,8.5a0.5,0.5,0,0,0,.5.5,0.49,0.49,0,0,0,.41-0.23h0L5.74,6.5H6V9.58L3.11,13.19h0a0.49,0.49,0,0,0-.11.3,0.5,0.5,0,0,0,.5.5,0.49,0.49,0,0,0,.41-0.23h0l3-3.77H8.06l3,3.77h0a0.49,0.49,0,0,0,.41.23,0.5,0.5,0,0,0,.5-0.5,0.49,0.49,0,0,0-.11-0.3h0Z"/>
</svg>
