<svg id="Layer_1" data-name="Layer 1" xmlns="http://www.w3.org/2000/svg" width="11" height="11" viewBox="0 0 11 11">
  <title>basketball-11</title>
  <path d="M11,1a1,1,0,1,1-1-1A1,1,0,0,1,11,1ZM4.5,3A1.5,1.5,0,1,0,3,1.5,1.5,1.5,0,0,0,4.5,3ZM8.39,9.69L6,6.59V4.5H6.5a0.49,0.49,0,0,0,.41-0.23h0l1.5-2h0A0.49,0.49,0,0,0,8.5,2a0.5,0.5,0,0,0-.86-0.34h0L6.25,3.5H2.5a0.5,0.5,0,0,0-.36.16h0l-2,2.54h0A0.49,0.49,0,0,0,0,6.5,0.5,0.5,0,0,0,.5,7,0.49,0.49,0,0,0,.91,6.77h0L2.74,4.5H3V6.59L0.61,9.69h0A0.49,0.49,0,0,0,.5,10a0.5,0.5,0,0,0,.5.5,0.49,0.49,0,0,0,.41-0.23h0L3.94,7H5.06l2.52,3.27h0A0.49,0.49,0,0,0,8,10.5,0.5,0.5,0,0,0,8.5,10a0.49,0.49,0,0,0-.11-0.3h0Z"/>
</svg>
