<?xml version="1.0" encoding="UTF-8" standalone="no"?>
<!-- Generator: Adobe Illustrator 17.1.0, SVG Export Plug-In . SVG Version: 6.00 Build 0)  -->

<svg
   xmlns:dc="http://purl.org/dc/elements/1.1/"
   xmlns:cc="http://creativecommons.org/ns#"
   xmlns:rdf="http://www.w3.org/1999/02/22-rdf-syntax-ns#"
   xmlns:svg="http://www.w3.org/2000/svg"
   xmlns="http://www.w3.org/2000/svg"
   xmlns:sodipodi="http://sodipodi.sourceforge.net/DTD/sodipodi-0.dtd"
   xmlns:inkscape="http://www.inkscape.org/namespaces/inkscape"
   version="1.1"
   id="svg4764"
   inkscape:version="0.91 r13725"
   sodipodi:docname="basketball-11.svg"
   x="0px"
   y="0px"
   width="11"
   height="11"
   viewBox="0 0 11 11"
   xml:space="preserve"><metadata
     id="metadata12"><rdf:RDF><cc:Work
         rdf:about=""><dc:format>image/svg+xml</dc:format><dc:type
           rdf:resource="http://purl.org/dc/dcmitype/StillImage" /><dc:title></dc:title></cc:Work></rdf:RDF></metadata><defs
     id="defs10" /><sodipodi:namedview
     inkscape:window-width="1724"
     inkscape:pageopacity="0"
     inkscape:window-height="855"
     inkscape:current-layer="svg4764"
     inkscape:document-units="px"
     inkscape:pageshadow="2"
     id="namedview3400"
     gridtolerance="10"
     borderopacity="1"
     bordercolor="#666666"
     inkscape:cx="1.7543687"
     guidetolerance="10"
     showgrid="false"
     pagecolor="#ffffff"
     inkscape:cy="5.097125"
     objecttolerance="10"
     inkscape:zoom="32"
     inkscape:snap-bbox="true"
     inkscape:bbox-paths="true"
     inkscape:bbox-nodes="true"
     inkscape:snap-bbox-edge-midpoints="true"
     inkscape:snap-bbox-midpoints="true"
     inkscape:object-paths="true"
     inkscape:snap-intersection-paths="true"
     inkscape:object-nodes="true"
     inkscape:snap-smooth-nodes="true"
     inkscape:window-x="0"
     inkscape:window-y="0"
     inkscape:window-maximized="0"><inkscape:grid
       type="xygrid"
       id="grid3340"
       spacingx="0.44117646"
       spacingy="0.44117646"
       color="#e5002c"
       opacity="0.1254902"
       empspacing="2" /></sodipodi:namedview><path
     style="color:#000000;clip-rule:nonzero;display:inline;overflow:visible;visibility:visible;opacity:1;isolation:auto;mix-blend-mode:normal;color-interpolation:sRGB;color-interpolation-filters:linearRGB;solid-color:#000000;solid-opacity:1;fill:#000000;fill-opacity:1;fill-rule:nonzero;stroke:none;stroke-width:1;stroke-linecap:round;stroke-linejoin:miter;stroke-miterlimit:4;stroke-dasharray:none;stroke-dashoffset:0;stroke-opacity:1;color-rendering:auto;image-rendering:auto;shape-rendering:auto;text-rendering:auto;enable-background:accumulate"
     d="M 3 1 L 0 3 L 0 6.96875 L 1.0019531 8 L 2 8 L 4 11 L 7 11 L 9 8 L 10 8 L 11 7 L 11 3 L 8 1 L 3 1 z M 3 3 L 8 3 L 8 6 L 3 6 L 3 3 z M 4 4 L 4 5 L 7 5 L 7 4 L 4 4 z M 3.5 8 L 5 8 L 5 9 L 6 9 L 6 8 L 7.5 8 L 7 9 L 6 9 L 6 10 L 5 10 L 5 9 L 4 9 L 3.5 8 z "
     id="rect3338" /></svg>