<svg id="Layer_1" data-name="Layer 1" xmlns="http://www.w3.org/2000/svg" width="11" height="11" viewBox="0 0 11 11">
  <title>bbq-11</title>
  <path d="M2.24,2h.01a.271.271,0,0,0,.25-.179A.51.51,0,0,1,2.977,1.5c.735,0,.94-.811.988-1.24V.25a.25.25,0,0,0-.5,0C3.389,1,3,1,3,1a.944.944,0,0,0-.977.684.225.225,0,0,0-.009.066A.238.238,0,0,0,2.239,2ZM6.25,2a.271.271,0,0,0,.25-.179A.51.51,0,0,1,6.977,1.5c.735,0,.94-.811.988-1.239V.251A.249.249,0,0,0,7.718,0h0a.253.253,0,0,0-.253.251C7.389,1,7,1,7,1a.944.944,0,0,0-.977.684.225.225,0,0,0-.009.066v.01A.238.238,0,0,0,6.25,2ZM4.24,2h.01a.271.271,0,0,0,.25-.179A.51.51,0,0,1,4.977,1.5c.735,0,.94-.811.988-1.24V.25a.25.25,0,0,0-.5,0C5.389,1,5,1,5,1a.944.944,0,0,0-.977.684.225.225,0,0,0-.009.066A.238.238,0,0,0,4.239,2Zm4.831,8.646L6.678,5.855A3.064,3.064,0,0,0,9,3H2A3.01,3.01,0,0,0,4.264,5.855L3.126,8.133A1.5,1.5,0,1,0,4,9.5H7.942l.681,1.357a.249.249,0,0,0,.474-.111A.243.243,0,0,0,9.071,10.646ZM2.5,10.25a.75.75,0,1,1,.75-.75A.75.75,0,0,1,2.5,10.25ZM3.922,9a1.5,1.5,0,0,0-.379-.587L4.778,5.952a5.1,5.1,0,0,0,1.393,0L7.692,9ZM9.715,0a.25.25,0,0,0-.25.25C9.389,1,9,1,9,1a.944.944,0,0,0-.977.684.225.225,0,0,0-.009.066A.238.238,0,0,0,8.239,2H8.25a.271.271,0,0,0,.25-.179A.51.51,0,0,1,8.977,1.5c.735,0,.94-.811.988-1.24V.25A.25.25,0,0,0,9.715,0Z"/>
</svg>
