<svg id="Layer_1" data-name="Layer 1" xmlns="http://www.w3.org/2000/svg" width="11" height="11" viewBox="0 0 11 11">
<title>bbq-11</title>
<path d="M9,3H2c0.0408,1.351,0.9692,2.5125,2.278,2.85l0,0L3.245,8.193C3.1948,8.1659,3.1431,8.1418,3.09,8.121
    C2.3283,7.7952,1.4468,8.1484,1.1209,8.9101s0.0274,1.6432,0.7891,1.9691c0.7617,0.3258,1.6432-0.0274,1.9691-0.7891
    C3.9589,9.9036,4,9.7029,4,9.5h3.845l0.681,1.357c0.0575,0.1237,0.2043,0.1774,0.328,0.12l0,0c0.1214-0.0554,0.175-0.1985,0.12-0.32
    v-0.009l-2.3-4.782c0.1047-0.0244,0.2071-0.0579,0.306-0.1C8.1563,5.3448,8.9568,4.2487,9,3z M2.5,10.25
    c-0.4142,0-0.75-0.3358-0.75-0.75S2.0858,8.75,2.5,8.75S3.25,9.0858,3.25,9.5S2.9142,10.25,2.5,10.25z M7.595,9H3.922
    C3.8607,8.8275,3.7659,8.6688,3.643,8.533l1.144-2.58C4.787,5.953,5.269,6,5.5,6c0.225-0.0003,0.4498-0.015,0.673-0.044L7.595,9z
     M3.75,0C3.6119,0,3.5,0.1119,3.5,0.25c0,0.5-0.5,0.5-0.5,0.5c-1,0-1,1-1,1C2,1.8881,2.1119,2,2.25,2S2.5,1.8881,2.5,1.75
    c0-0.5,0.5-0.5,0.5-0.5c1,0,1-1,1-1C4,0.1119,3.8881,0,3.75,0z M5.75,0C5.6119,0,5.5,0.1119,5.5,0.25c0,0.5-0.5,0.5-0.5,0.5
    c-1,0-1,1-1,1C4,1.8881,4.1119,2,4.25,2S4.5,1.8881,4.5,1.75c0-0.5,0.5-0.5,0.5-0.5c1,0,1-1,1-1C6,0.1119,5.8881,0,5.75,0z M7.75,0
    C7.6119,0,7.5,0.1119,7.5,0.25c0,0.5-0.5,0.5-0.5,0.5c-1,0-1,1-1,1C6,1.8881,6.1119,2,6.25,2S6.5,1.8881,6.5,1.75
    c0-0.5,0.5-0.5,0.5-0.5c1,0,1-1,1-1C8,0.1119,7.8881,0,7.75,0z M9.75,0C9.6119,0,9.5,0.1119,9.5,0.25c0,0.5-0.5,0.5-0.5,0.5
    c-1,0-1,1-1,1C8,1.8881,8.1119,2,8.25,2S8.5,1.8881,8.5,1.75c0-0.5,0.5-0.5,0.5-0.5c1,0,1-1,1-1C10,0.1119,9.8881,0,9.75,0z"/>
</svg>