<svg id="Layer_1" data-name="Layer 1" xmlns="http://www.w3.org/2000/svg" width="11" height="11" viewBox="0 0 11 11">
  <title>bbq-11</title>
  <path d="M2.25,2A.249.249,0,0,1,2,1.752v0C2,1.35,2.266,1,3,1c.476,0,.5-.667.5-.75a.25.25,0,0,1,.5,0C4,.65,3.734,1.5,3,1.5c-.476,0-.5.167-.5.25A.249.249,0,0,1,2.252,2Zm2,0A.249.249,0,0,1,4,1.752v0C4,1.35,4.266,1,5,1c.476,0,.5-.667.5-.75a.25.25,0,0,1,.5,0C6,.65,5.734,1.5,5,1.5c-.476,0-.5.167-.5.25A.249.249,0,0,1,4.252,2Zm2,0A.249.249,0,0,1,6,1.752v0C6,1.35,6.266,1,7,1c.476,0,.5-.667.5-.75a.25.25,0,0,1,.5,0C8,.65,7.734,1.5,7,1.5c-.476,0-.5.167-.5.25A.249.249,0,0,1,6.252,2Zm2,0A.249.249,0,0,1,8,1.752v0C8,1.35,8.266,1,9,1c.476,0,.5-.667.5-.75a.25.25,0,0,1,.5,0c0,.4-.266,1.25-1,1.25-.476,0-.5.167-.5.25A.249.249,0,0,1,8.252,2ZM9,3H2A3.038,3.038,0,0,0,4.278,5.85h0L3.245,8.193a1.411,1.411,0,0,0-.155-.072A1.5,1.5,0,1,0,4,9.5H7.845l.681,1.357A.249.249,0,0,0,9,10.746a.243.243,0,0,0-.026-.1l-2.3-4.782a1.855,1.855,0,0,0,.306-.1A3.05,3.05,0,0,0,9,3ZM2.5,10.25a.75.75,0,1,1,.75-.75A.75.75,0,0,1,2.5,10.25ZM7.595,9H3.922a.779.779,0,0,0-.051-.1,1.586,1.586,0,0,0-.228-.367l1.144-2.58H4.81A5.246,5.246,0,0,0,5.5,6a5.28,5.28,0,0,0,.673-.044Z"/>
</svg>
