<svg id="Layer_1" data-name="Layer 1" xmlns="http://www.w3.org/2000/svg" width="15" height="15" viewBox="0 0 15 15">
  <title>grill-15</title>
  <path d="M11.96,13.29395L9.32336,7.65106A4.00942,4.00942,0,0,0,12,4H3A3.9992,3.9992,0,0,0,5.62732,7.62726L4.91974,9.0423A2.49749,2.49749,0,1,0,6.48871,13h4.22968l0.33533,0.71777a0.50035,0.50035,0,0,0,.45313.28809,0.49509,0.49509,0,0,0,.21191-0.04687A0.50044,0.50044,0,0,0,11.96,13.29395ZM4.5,12.75A1.25,1.25,0,1,1,5.75,11.5,1.25,1.25,0,0,1,4.5,12.75ZM6.94958,12A2.49379,2.49379,0,0,0,5.85675,9.40466L6.59943,7.91931A4.91634,4.91634,0,0,0,8.347,7.92413L10.25122,12H6.94958ZM4.2876,2.96582l-0.0293-.001A0.24935,0.24935,0,0,1,4.021,2.70313a0.277,0.277,0,0,1,.25928-0.23779h0a0.5422,0.5422,0,0,0,.354-0.12354A0.456,0.456,0,0,0,4.75,1.99854,0.93548,0.93548,0,0,1,5.02295,1.292,1.01551,1.01551,0,0,1,5.7417,1.03271a0.24935,0.24935,0,0,1,.2373.26172,0.2314,0.2314,0,0,1-.26172.2373h0a0.54518,0.54518,0,0,0-.35156.124A0.45474,0.45474,0,0,0,5.25,1.99854a0.93589,0.93589,0,0,1-.27295.707A1.03057,1.03057,0,0,1,4.2876,2.96582Zm2,0-0.0293-.001A0.24935,0.24935,0,0,1,6.021,2.70313a0.28085,0.28085,0,0,1,.25928-0.23779h0a0.54288,0.54288,0,0,0,.354-0.12354A0.456,0.456,0,0,0,6.75,1.99854,0.93548,0.93548,0,0,1,7.02295,1.292,1.01149,1.01149,0,0,1,7.7417,1.03271a0.24935,0.24935,0,0,1,.2373.26172,0.23162,0.23162,0,0,1-.26172.2373h0a0.54235,0.54235,0,0,0-.35156.124A0.45474,0.45474,0,0,0,7.25,1.99854a0.93589,0.93589,0,0,1-.27295.707A1.03057,1.03057,0,0,1,6.2876,2.96582Zm2.0249,0-0.0293-.001a0.24949,0.24949,0,0,1-.23828-0.26172,0.24228,0.24228,0,0,1,.25977-0.23779h0A0.58573,0.58573,0,0,0,8.6582,2.3418a0.45416,0.45416,0,0,0,.11621-0.34326A0.93731,0.93731,0,0,1,9.04688,1.292a1.03055,1.03055,0,0,1,.71875-0.25928,0.24949,0.24949,0,0,1,.23828.26172,0.23528,0.23528,0,0,1-.26172.2373h0a0.53325,0.53325,0,0,0-.35156.124,0.453,0.453,0,0,0-.11621.34277,0.93406,0.93406,0,0,1-.27344.707A1.02928,1.02928,0,0,1,8.3125,2.96582Zm1.97559,0-0.0293-.001a0.25,0.25,0,0,1,.02148-0.49951h0a0.58742,0.58742,0,0,0,.35352-0.12354A0.45416,0.45416,0,0,0,10.75,1.99854,0.93731,0.93731,0,0,1,11.02246,1.292a1.02817,1.02817,0,0,1,.71875-0.25928,0.24949,0.24949,0,0,1,.23828.26172,0.23207,0.23207,0,0,1-.26172.2373h0a0.53191,0.53191,0,0,0-.35156.124,0.453,0.453,0,0,0-.11621.34277,0.93406,0.93406,0,0,1-.27344.707A1.02928,1.02928,0,0,1,10.28809,2.96582Z"/>
</svg>