<svg id="Layer_1" data-name="Layer 1" xmlns="http://www.w3.org/2000/svg" width="11" height="11" viewBox="0 0 11 11">
  <title>bbq-11</title>
<path d="M6.6768,5.8656c0,0,2.1744-0.3656,2.3234-2.8656h-7c0,0-0.0146,2.1882,2.278,2.85l-1.033,2.343
	c0,0-0.2979-0.1931-0.745-0.1931C2.0532,7.9999,1,8.3294,1,9.5s1.0473,1.5005,1.5002,1.5005s1.4235-0.277,1.5-1.5005h3.845
	l0.681,1.357c0,0,0.1182,0.2422,0.3757,0.0911c0,0,0.1525-0.1068,0.0723-0.3L6.6768,5.8656z M2.5002,10.25
	c-0.4142,0-0.75-0.3358-0.75-0.75c0-0.4142,0.3358-0.75,0.75-0.75s0.75,0.3358,0.75,0.75C3.2502,9.9142,2.9144,10.25,2.5002,10.25z
	 M3.9222,9c-0.0595-0.225-0.275-0.4647-0.275-0.4647L4.7865,5.949c0.7432,0.1176,1.3902,0.0098,1.3902,0.0098L7.594,9H3.9222z
	 M3,0.75c0,0,0.5-0.0029,0.5-0.5C3.5,0.25,3.5118,0,3.75,0S4,0.25,4,0.25s0.0059,1-1,1c0,0-0.5-0.0088-0.5,0.5
	C2.5,1.75,2.4941,2,2.25,2C2.25,2,2,2.0059,2,1.75C2,1.75,1.9882,0.75,3,0.75z M5,0.75c0,0,0.5-0.0029,0.5-0.5
	C5.5,0.25,5.5118,0,5.75,0S6,0.25,6,0.25s0.0059,1-1,1c0,0-0.5-0.0088-0.5,0.5C4.5,1.75,4.4941,2,4.25,2C4.25,2,4,2.0059,4,1.75
	C4,1.75,3.9882,0.75,5,0.75z M7,0.75c0,0,0.5-0.0029,0.5-0.5C7.5,0.25,7.5118,0,7.75,0S8,0.25,8,0.25s0.0059,1-1,1
	c0,0-0.5-0.0088-0.5,0.5C6.5,1.75,6.4941,2,6.25,2C6.25,2,6,2.0059,6,1.75C6,1.75,5.9882,0.75,7,0.75z M9,0.75
	c0,0,0.5-0.0029,0.5-0.5C9.5,0.25,9.5118,0,9.75,0S10,0.25,10,0.25s0.0059,1-1,1c0,0-0.5-0.0088-0.5,0.5C8.5,1.75,8.4941,2,8.25,2
	C8.25,2,8,2.0059,8,1.75C8,1.75,7.9882,0.75,9,0.75z"/>
</svg>
