<svg id="Layer_1" data-name="Layer 1" xmlns="http://www.w3.org/2000/svg" width="11" height="11" viewBox="0 0 11 11">
  <title>grill-11</title>
  <path d="M6.043,1.75a.225.225,0,0,1,.009-.066A.918.918,0,0,1,7.006,1s.412,0,.488-.749a.25.25,0,0,1,.5,0v.01C7.946.689,7.741,1.5,7.006,1.5a.51.51,0,0,0-.474.321A.253.253,0,0,1,6.293,2,.25.25,0,0,1,6.043,1.75ZM9.744,0a.25.25,0,0,0-.25.25C9.418,1,9.006,1,9.006,1a.918.918,0,0,0-.954.684.225.225,0,0,0-.009.066.25.25,0,0,0,.25.25.253.253,0,0,0,.238-.179A.51.51,0,0,1,9.006,1.5c.735,0,.94-.811.988-1.24V.25A.25.25,0,0,0,9.744,0ZM4.293,2a.253.253,0,0,0,.238-.179A.51.51,0,0,1,5.006,1.5c.735,0,.94-.811.988-1.24V.25a.25.25,0,0,0-.5,0C5.418,1,5.006,1,5.006,1a.918.918,0,0,0-.954.684.225.225,0,0,0-.009.066A.25.25,0,0,0,4.293,2Zm-2,0a.253.253,0,0,0,.238-.179A.51.51,0,0,1,3.006,1.5c.735,0,.94-.811.988-1.24V.25a.25.25,0,0,0-.5,0C3.418,1,3.006,1,3.006,1a.918.918,0,0,0-.954.684.225.225,0,0,0-.009.066A.25.25,0,0,0,2.293,2ZM9.1,10.646a.243.243,0,0,1,.026.1.25.25,0,0,1-.474.111L7.971,9.5H4.043a1.507,1.507,0,1,1-.888-1.367L4.293,5.855A3.037,3.037,0,0,1,2,3H9A3.037,3.037,0,0,1,6.707,5.855ZM3.293,9.5a.75.75,0,1,0-.75.75A.75.75,0,0,0,3.293,9.5ZM7.721,9,6.2,5.952a5.09,5.09,0,0,1-1.393,0L3.572,8.413A1.5,1.5,0,0,1,3.951,9Z"/>
</svg>
