<svg id="Layer_1" data-name="Layer 1" xmlns="http://www.w3.org/2000/svg" width="15" height="15" viewBox="0 0 15 15">
  <title>bbq-15</title>
  <path d="M8.044,2.716v0a.242.242,0,0,1,.246-.238H8.3a.585.585,0,0,0,.353-.123.454.454,0,0,0,.116-.343,1.064,1.064,0,0,1,.3-.751A.965.965,0,0,1,9.762,1,.249.249,0,0,1,10,1.26v0a.235.235,0,0,1-.231.238.245.245,0,0,1-.03,0,.464.464,0,0,0-.324.123.587.587,0,0,0-.143.388A.933.933,0,0,1,9,2.717a1.028,1.028,0,0,1-.687.26H8.282A.249.249,0,0,1,8.044,2.716Zm-1.784.26h.029a1.029,1.029,0,0,0,.688-.26.934.934,0,0,0,.273-.706.589.589,0,0,1,.143-.388A.541.541,0,0,1,7.744,1.5a.23.23,0,0,0,.038,0A.226.226,0,0,0,8,1.262.246.246,0,0,0,7.768,1a1.01,1.01,0,0,0-.718.259,1.062,1.062,0,0,0-.3.751.455.455,0,0,1-.116.343.542.542,0,0,1-.354.123.28.28,0,0,0-.259.237h0A.249.249,0,0,0,6.26,2.976Zm5.693,10.314a.5.5,0,0,1-.241.664A.494.494,0,0,1,11.5,14a.5.5,0,0,1-.452-.288L10.713,13H6.49A2.494,2.494,0,1,1,4.923,9.044L5.63,7.631A3.993,3.993,0,0,1,3.006,4.009h8.986A4,4,0,0,1,9.32,7.655ZM5.75,11.5A1.25,1.25,0,1,0,4.5,12.75,1.251,1.251,0,0,0,5.75,11.5Zm4.5.5-1.9-4.07a4.908,4.908,0,0,1-1.745,0L5.859,9.406A2.467,2.467,0,0,1,7,11.5a2.635,2.635,0,0,1-.05.5ZM11.762,1a1.027,1.027,0,0,0-.718.259,1.064,1.064,0,0,0-.3.751.454.454,0,0,1-.116.343.587.587,0,0,1-.353.123.25.25,0,0,0-.021.5h.029a1.028,1.028,0,0,0,.687-.26.933.933,0,0,0,.273-.706.587.587,0,0,1,.143-.388.53.53,0,0,1,.351-.123.359.359,0,0,0,.046,0A.224.224,0,0,0,12,1.262v0A.249.249,0,0,0,11.762,1ZM5.771,1a1.014,1.014,0,0,0-.718.259,1.062,1.062,0,0,0-.3.751.455.455,0,0,1-.116.343.541.541,0,0,1-.353.123.277.277,0,0,0-.259.237h0a.249.249,0,0,0,.237.26h.029a1.029,1.029,0,0,0,.688-.26.935.935,0,0,0,.273-.706A.589.589,0,0,1,5.4,1.623.544.544,0,0,1,5.747,1.5a.236.236,0,0,0,.038,0A.223.223,0,0,0,6,1.262H6A.242.242,0,0,0,5.771,1Z"/>
</svg>
