<?xml version="1.0" encoding="UTF-8"?>
<svg id="beach-11" xmlns="http://www.w3.org/2000/svg" width="11" height="11" viewBox="0 0 11 11">
  <path d="M3.5,1.65V4.47a1.7027,1.7027,0,0,0-.58-.04c-.28.07-.56.47-.83.57A3.1261,3.1261,0,0,1,3.5,1.65Zm2.31-.62L7.26,3.45a1.2164,1.2164,0,0,1,.45-.31c.27-.07.7.13,1,.09A3.1057,3.1057,0,0,0,5.81,1.03ZM.9839,10h8.99A4.8406,4.8406,0,0,0,6.9,8.68L5.57,3.74c.46-.04,1.02.06,1.27-.01L5.23,1.04a3.5252,3.5252,0,0,0-.62.11A2.96,2.96,0,0,0,4,1.38v3.1c.25-.08.68-.42,1.08-.6L6.35,8.63q-.39-.03-.84-.03C1.99,8.6.9839,10,.9839,10Z"/>
</svg>