<svg xmlns="http://www.w3.org/2000/svg" width="11" height="11" viewBox="0 0 11 11"><title>beach-11 copy-5.4</title><g id="2f78044d-07b0-4fab-a91e-1dcb2a375649" data-name="icon concepts: sports &amp; leisure"><path d="M3.5,1.65V4.47a1.7024,1.7024,0,0,0-.58-.04c-.28.07-.56.47-.83.57A3.1261,3.1261,0,0,1,3.5,1.65Zm2.31-.62L7.26,3.45a1.2161,1.2161,0,0,1,.45-.31c.27-.07.7.13,1,.09A3.1057,3.1057,0,0,0,5.81,1.03ZM.7,10h9.6A5.7211,5.7211,0,0,0,6.9,8.68L5.57,3.74c.46-.04,1.02.06,1.27-.01L5.23,1.04a3.52,3.52,0,0,0-.62.11A2.9573,2.9573,0,0,0,4,1.38v3.1c.25-.08.68-.42,1.08-.6L6.35,8.63q-.39-.03-.84-.03C1.99,8.6.7,10,.7,10Z"/></g></svg>