<?xml version="1.0" encoding="utf-8"?>
<!-- Generator: Adobe Illustrator 19.2.1, SVG Export Plug-In . SVG Version: 6.00 Build 0)  -->
<!DOCTYPE svg PUBLIC "-//W3C//DTD SVG 1.1//EN" "http://www.w3.org/Graphics/SVG/1.1/DTD/svg11.dtd">
<svg version="1.1" id="Layer_1" xmlns="http://www.w3.org/2000/svg" xmlns:xlink="http://www.w3.org/1999/xlink" x="0px" y="0px"
	 width="15px" height="15px" viewBox="0 0 15 15" style="enable-background:new 0 0 15 15;" xml:space="preserve">
<path d="M12,5V2c0,0-1-1-4.5-1S3,2,3,2v3c0.0288,1.3915,0.3706,2.7586,1,4c0.6255,1.4348,0.6255,3.0652,0,4.5c0,0,0,1,3.5,1
	s3.5-1,3.5-1c-0.6255-1.4348-0.6255-3.0652,0-4.5C11.6294,7.7586,11.9712,6.3915,12,5z M7.5,13.5
	c-0.7966,0.035-1.5937-0.0596-2.36-0.28c0.203-0.7224,0.304-1.4696,0.3-2.22h4.12c-0.004,0.7504,0.097,1.4976,0.3,2.22
	C9.0937,13.4404,8.2966,13.535,7.5,13.5z M7.5,5C6.3136,5.0299,5.1306,4.8609,4,4.5v-2C5.131,2.1411,6.3137,1.9722,7.5,2
	C8.6863,1.9722,9.869,2.1411,11,2.5v2C9.8694,4.8609,8.6864,5.0299,7.5,5z"/>
</svg>
