<svg id="Layer_1" data-name="Layer 1" xmlns="http://www.w3.org/2000/svg" width="15" height="15" viewBox="0 0 15 15">
  <title>beer-15</title>
  <path d="M7.5,1C4,1,3,2,3,2V5A10,10,0,0,0,4,9a6.23,6.23,0,0,1,0,4.5s0,1,3.5,1,3.5-1,3.5-1A6.23,6.23,0,0,1,11,9a10,10,0,0,0,1-4V2S11,1,7.5,1Zm0,12.5a7.21,7.21,0,0,1-2.36-.28A8.32,8.32,0,0,0,5.44,11H9.56a7.64,7.64,0,0,0,.06,1,8.72,8.72,0,0,0,.24,1.22A7.21,7.21,0,0,1,7.5,13.5Zm3.5-9a12.45,12.45,0,0,1-7,0s0-2,0-2a12.5,12.5,0,0,1,7,0S11,4.5,11,4.5Z"/>
</svg>
