<svg id="Layer_1" data-name="Layer 1" xmlns="http://www.w3.org/2000/svg" width="15" height="15" viewBox="0 0 15 15">
  <title>beer-15</title>
  <path d="M12,5V2S11,1,7.5,1,3,2,3,2V5A9.27,9.27,0,0,0,4,9a5.63,5.63,0,0,1,0,4.5s0,1,3.5,1,3.5-1,3.5-1A5.63,5.63,0,0,1,11,9,9.27,9.27,0,0,0,12,5ZM7.5,13.5a7.37,7.37,0,0,1-2.36-.28A8.05,8.05,0,0,0,5.44,11H9.56a8.05,8.05,0,0,0,.3,2.22A7.37,7.37,0,0,1,7.5,13.5ZM7.5,5A10.63,10.63,0,0,1,4,4.5v-2A10.74,10.74,0,0,1,7.5,2a10.74,10.74,0,0,1,3.5.5v2A10.63,10.63,0,0,1,7.5,5Z"/>
</svg>
