<svg id="Layer_1" data-name="Layer 1" xmlns="http://www.w3.org/2000/svg" width="11" height="11" viewBox="0 0 11 11">
  <title>beer-11</title>
  <path d="M5.5,1c-2.3,0-3,.66-3,0.66v2a6.6,6.6,0,0,0,.66,2.65,4.13,4.13,0,0,1,0,3s0,0.66,2.32.66,2.32-.66,2.32-0.66a4.13,4.13,0,0,1,0-3,6.6,6.6,0,0,0,.66-2.65v-2S7.8,1,5.5,1Zm0,8.28A4.77,4.77,0,0,1,3.94,9.1a5.51,5.51,0,0,0,.2-1.47H6.86a5.06,5.06,0,0,0,0,.66,5.77,5.77,0,0,0,.16.81A4.77,4.77,0,0,1,5.5,9.29Zm2.32-6a8.24,8.24,0,0,1-4.63,0S3.18,2,3.18,2A8.28,8.28,0,0,1,7.82,2S7.85,3.33,7.82,3.33Z"/>
</svg>
