<?xml version="1.0" encoding="UTF-8"?>
<svg id="bicycle-share-11" xmlns="http://www.w3.org/2000/svg" width="11" height="11" viewBox="0 0 11 11">
  <path d="M7,1A1,1,0,1,1,8,2,1,1,0,0,1,7,1ZM1.973,7.1a1.5,1.5,0,0,1,1.654.408.5.5,0,0,0,.749-.663h0A2.519,2.519,0,0,0,2.363,6a2.5,2.5,0,1,0,2.008,4.158A.5.5,0,0,0,3.623,9.5a1.5,1.5,0,1,1-1.65-2.4ZM7.1,4.8a.5.5,0,0,0,.4.2h2a.5.5,0,1,0,.014-1H7.75L6.4,2.2A.5.5,0,0,0,6.014,2a.506.506,0,0,0-.368.147l-2,2a.5.5,0,0,0,0,.707L5,6.207V8.5a.5.5,0,0,0,1,.015V6a.505.505,0,0,0-.144-.353L5.1,4.895l1.165-1.2ZM9.387,6.162A2.526,2.526,0,0,0,8.643,6a2.525,2.525,0,0,0-2.014.838.5.5,0,0,0,.75.664,1.5,1.5,0,1,1,0,1.992.5.5,0,0,0-.78.627c.011.013.022.025.034.037a2.5,2.5,0,1,0,2.752-4Z"/>
</svg>