<?xml version="1.0" encoding="utf-8"?>
<!-- Generator: Adobe Illustrator 19.2.1, SVG Export Plug-In . SVG Version: 6.00 Build 0)  -->
<!DOCTYPE svg PUBLIC "-//W3C//DTD SVG 1.1//EN" "http://www.w3.org/Graphics/SVG/1.1/DTD/svg11.dtd">
<svg version="1.1"
	 id="svg4619" inkscape:version="0.91 r13725" sodipodi:docname="bike-share-15.svg" xmlns:cc="http://creativecommons.org/ns#" xmlns:dc="http://purl.org/dc/elements/1.1/" xmlns:inkscape="http://www.inkscape.org/namespaces/inkscape" xmlns:rdf="http://www.w3.org/1999/02/22-rdf-syntax-ns#" xmlns:sodipodi="http://sodipodi.sourceforge.net/DTD/sodipodi-0.dtd" xmlns:svg="http://www.w3.org/2000/svg"
	 xmlns="http://www.w3.org/2000/svg" xmlns:xlink="http://www.w3.org/1999/xlink" x="0px" y="0px" width="15px" height="15px"
	 viewBox="0 0 15 15" style="enable-background:new 0 0 15 15;" xml:space="preserve">
<sodipodi:namedview  bordercolor="#666666" borderopacity="1" gridtolerance="10" guidetolerance="10" id="namedview3364" inkscape:current-layer="svg4619" inkscape:cx="0.18747857" inkscape:cy="7.9979934" inkscape:document-units="px" inkscape:object-nodes="true" inkscape:object-paths="true" inkscape:pageopacity="0" inkscape:pageshadow="2" inkscape:snap-bbox="true" inkscape:snap-intersection-paths="true" inkscape:snap-smooth-nodes="true" inkscape:window-height="755" inkscape:window-maximized="0" inkscape:window-width="1280" inkscape:window-x="0" inkscape:window-y="23" inkscape:zoom="1" objecttolerance="10" pagecolor="#ffffff" showgrid="false">
	<inkscape:grid  color="#ff0000" empspacing="2" id="grid3368" opacity="0.1254902" spacingx="0.5" spacingy="0.5" type="xygrid">
		</inkscape:grid>
</sodipodi:namedview>
<path id="circle4604" inkscape:connector-curvature="0" sodipodi:nodetypes="sssssccccccccccccccccccccssssssssssssssssssss" d="
	M10,1C9.4477,1,9,1.4477,9,2c0,0.5523,0.4477,1,1,1s1-0.4477,1-1C11,1.4477,10.5523,1,10,1z M8.1445,2.9941
	c-0.13,0.0005-0.2547,0.0517-0.3477,0.1426l-2.6406,2.5c-0.2256,0.2128-0.2051,0.5775,0.043,0.7637L7,7.75v2.75
	c-0.01,0.6762,1.0096,0.6762,1,0v-3c0.0003-0.1574-0.0735-0.3057-0.1992-0.4004L7.0332,6.5234l1.818-1.7212l0.7484,0.9985
	C9.6943,5.9265,9.8426,6.0003,10,6h1.5c0.6761,0.01,0.6761-1.0096,0-1h-1.25L9.5,4L8.9004,3.1992
	C8.8103,3.0756,8.6685,3,8.5156,2.9941H8.1445z M3,7c-1.6569,0-3,1.3432-3,3s1.3431,3,3,3s3-1.3432,3-3S4.6569,7,3,7z M12,7
	c-1.6569,0-3,1.3432-3,3s1.3431,3,3,3s3-1.3432,3-3S13.6569,7,12,7z M3,8c1.1046,0,2,0.8954,2,2s-0.8954,2-2,2s-2-0.8954-2-2
	S1.8954,8,3,8z M12,8c1.1046,0,2,0.8954,2,2s-0.8954,2-2,2s-2-0.8954-2-2S10.8954,8,12,8z"/>
</svg>
