<?xml version="1.0" encoding="UTF-8" standalone="no"?>
<!-- Generator: Adobe Illustrator 18.1.0, SVG Export Plug-In . SVG Version: 6.00 Build 0)  -->

<svg
   xmlns:dc="http://purl.org/dc/elements/1.1/"
   xmlns:cc="http://creativecommons.org/ns#"
   xmlns:rdf="http://www.w3.org/1999/02/22-rdf-syntax-ns#"
   xmlns:svg="http://www.w3.org/2000/svg"
   xmlns="http://www.w3.org/2000/svg"
   xmlns:sodipodi="http://sodipodi.sourceforge.net/DTD/sodipodi-0.dtd"
   xmlns:inkscape="http://www.inkscape.org/namespaces/inkscape"
   version="1.1"
   id="svg4619"
   sodipodi:docname="bike-share-15.svg"
   inkscape:version="0.91 r13725"
   x="0px"
   y="0px"
   width="15px"
   height="15px"
   viewBox="-292 193 15 15"
   enable-background="new -292 193 15 15"
   xml:space="preserve"><metadata
     id="metadata3536"><rdf:RDF><cc:Work
         rdf:about=""><dc:format>image/svg+xml</dc:format><dc:type
           rdf:resource="http://purl.org/dc/dcmitype/StillImage" /><dc:title></dc:title></cc:Work></rdf:RDF></metadata><defs
     id="defs3534" /><sodipodi:namedview
     inkscape:window-maximized="0"
     inkscape:window-y="23"
     inkscape:window-x="0"
     inkscape:snap-smooth-nodes="true"
     inkscape:object-nodes="true"
     inkscape:object-paths="true"
     inkscape:snap-bbox="true"
     inkscape:document-units="px"
     inkscape:current-layer="svg4619"
     inkscape:pageopacity="0"
     inkscape:window-height="755"
     inkscape:window-width="1280"
     inkscape:pageshadow="2"
     inkscape:snap-intersection-paths="true"
     pagecolor="#ffffff"
     bordercolor="#666666"
     inkscape:cx="0.18747857"
     inkscape:cy="7.9979934"
     gridtolerance="10"
     objecttolerance="10"
     borderopacity="1"
     showgrid="false"
     id="namedview3364"
     guidetolerance="10"
     inkscape:zoom="1"><inkscape:grid
       type="xygrid"
       color="#ff0000"
       spacingy="0.5"
       spacingx="0.5"
       empspacing="2"
       opacity="0.1254902"
       id="grid3368" /></sodipodi:namedview><path
     style="color:#000000;clip-rule:nonzero;display:inline;overflow:visible;visibility:visible;opacity:1;isolation:auto;mix-blend-mode:normal;color-interpolation:sRGB;color-interpolation-filters:linearRGB;solid-color:#000000;solid-opacity:1;fill:#000000;fill-opacity:1;fill-rule:nonzero;stroke:none;stroke-width:1;stroke-linecap:round;stroke-linejoin:round;stroke-miterlimit:4;stroke-dasharray:none;stroke-dashoffset:0;stroke-opacity:1;marker:none;color-rendering:auto;image-rendering:auto;shape-rendering:auto;text-rendering:auto;enable-background:accumulate"
     d="m -282,194 c -0.55228,0 -1,0.44771 -1,1 0,0.55228 0.44772,1 1,1 0.55228,0 1,-0.44772 1,-1 0,-0.55229 -0.44772,-1 -1,-1 z m -1.85547,1.99414 c -0.13001,5.2e-4 -0.25472,0.0517 -0.34765,0.14258 l -2.64063,2.5 c -0.22558,0.21281 -0.20509,0.57751 0.043,0.76367 L -285,200.75 l 0,2.75 c -0.01,0.67616 1.00956,0.67616 1,0 l 0,-3 c 3e-4,-0.15738 -0.0735,-0.30571 -0.19922,-0.40039 l -0.76758,-0.57617 1.81799,-1.72116 0.74842,0.9985 c 0.0947,0.12571 0.24301,0.19952 0.40039,0.19922 l 1.5,0 c 0.67616,0.01 0.67616,-1.00956 0,-1 l -1.25,0 -0.75,-1 -0.59961,-0.80078 c -0.0901,-0.12362 -0.23188,-0.19918 -0.38477,-0.20508 z M -289,200 c -1.65685,0 -3,1.34315 -3,3 0,1.65685 1.34315,3 3,3 1.65685,0 3,-1.34315 3,-3 0,-1.65685 -1.34315,-3 -3,-3 z m 9,0 c -1.65685,0 -3,1.34315 -3,3 0,1.65685 1.34315,3 3,3 1.65685,0 3,-1.34315 3,-3 0,-1.65685 -1.34315,-3 -3,-3 z m -9,1 c 1.10457,0 2,0.89543 2,2 0,1.10457 -0.89543,2 -2,2 -1.10457,0 -2,-0.89543 -2,-2 0,-1.10457 0.89543,-2 2,-2 z m 9,0 c 1.10457,0 2,0.89543 2,2 0,1.10457 -0.89543,2 -2,2 -1.10457,0 -2,-0.89543 -2,-2 0,-1.10457 0.89543,-2 2,-2 z"
     id="circle4604"
     inkscape:connector-curvature="0"
     sodipodi:nodetypes="sssssccccccccccccccccccccssssssssssssssssssss" /></svg>