<?xml version="1.0" encoding="utf-8"?>
<!-- Generator: Adobe Illustrator 19.2.1, SVG Export Plug-In . SVG Version: 6.00 Build 0)  -->
<!DOCTYPE svg PUBLIC "-//W3C//DTD SVG 1.1//EN" "http://www.w3.org/Graphics/SVG/1.1/DTD/svg11.dtd">
<svg version="1.1"
	 id="svg4619" inkscape:version="0.91 r13725" sodipodi:docname="bicycle-15.svg" xmlns:cc="http://creativecommons.org/ns#" xmlns:dc="http://purl.org/dc/elements/1.1/" xmlns:inkscape="http://www.inkscape.org/namespaces/inkscape" xmlns:rdf="http://www.w3.org/1999/02/22-rdf-syntax-ns#" xmlns:sodipodi="http://sodipodi.sourceforge.net/DTD/sodipodi-0.dtd" xmlns:svg="http://www.w3.org/2000/svg"
	 xmlns="http://www.w3.org/2000/svg" xmlns:xlink="http://www.w3.org/1999/xlink" x="0px" y="0px" width="15px" height="15px"
	 viewBox="0 0 15 15" style="enable-background:new 0 0 15 15;" xml:space="preserve">
<sodipodi:namedview  bordercolor="#666666" borderopacity="1" gridtolerance="10" guidetolerance="10" id="namedview3364" inkscape:current-layer="svg4619" inkscape:cx="4.6281545" inkscape:cy="10.703675" inkscape:document-units="px" inkscape:object-nodes="true" inkscape:object-paths="true" inkscape:pageopacity="0" inkscape:pageshadow="2" inkscape:snap-bbox="true" inkscape:snap-intersection-paths="true" inkscape:snap-smooth-nodes="true" inkscape:window-height="755" inkscape:window-maximized="0" inkscape:window-width="1280" inkscape:window-x="0" inkscape:window-y="23" inkscape:zoom="128" objecttolerance="10" pagecolor="#ffffff" showgrid="true">
	<inkscape:grid  color="#ff0000" empspacing="2" id="grid3368" opacity="0.1254902" spacingx="0.5" spacingy="0.5" type="xygrid">
		</inkscape:grid>
</sodipodi:namedview>
<path id="path4668" inkscape:connector-curvature="0" sodipodi:nodetypes="ccccccccccccsssscccsssscccccsccccsssscssscccccc" d="
	M7.5,2c-0.6761-0.01-0.6761,1.0096,0,1H9v1.2656l-2.8027,2.334L5.2226,4H5.5c0.6761,0.01,0.6761-1.0096,0-1h-2
	c-0.6761-0.01-0.6761,1.0096,0,1h0.6523L5.043,6.375C4.5752,6.1424,4.0559,6,3.5,6C1.5729,6,0,7.5729,0,9.5S1.5729,13,3.5,13
	S7,11.4271,7,9.5c0-0.6699-0.2003-1.2911-0.5293-1.8242L9.291,5.3262l0.4629,1.1602C8.7114,7.0937,8,8.2112,8,9.5
	c0,1.9271,1.5729,3.5,3.5,3.5S15,11.4271,15,9.5S13.4271,6,11.5,6c-0.2831,0-0.5544,0.0434-0.8184,0.1074L10,4.4023V2.5
	c0-0.2761-0.2239-0.5-0.5-0.5H7.5z M3.5,7c0.5923,0,1.1276,0.2119,1.5547,0.5527l-1.875,1.5625
	c-0.5109,0.4273,0.1278,1.1945,0.6406,0.7695l1.875-1.5625C5.8835,8.674,6,9.0711,6,9.5C6,10.8866,4.8866,12,3.5,12S1,10.8866,1,9.5
	S2.1133,7,3.5,7L3.5,7z M11.5,7C12.8866,7,14,8.1134,14,9.5S12.8866,12,11.5,12S9,10.8866,9,9.5c0-0.877,0.4468-1.6421,1.125-2.0879
	l0.9102,2.2734c0.246,0.6231,1.1804,0.2501,0.9297-0.3711l-0.9082-2.2695C11.2009,7.0193,11.3481,7,11.5,7L11.5,7z"/>
</svg>
