<?xml version="1.0" encoding="utf-8"?>
<!-- Generator: Adobe Illustrator 19.2.1, SVG Export Plug-In . SVG Version: 6.00 Build 0)  -->
<svg version="1.1" id="Layer_1" xmlns="http://www.w3.org/2000/svg" xmlns:xlink="http://www.w3.org/1999/xlink" x="0px" y="0px"
	 width="15px" height="15px" viewBox="0 0 15 15" style="enable-background:new 0 0 15 15;" xml:space="preserve">
<title>blood-bank-15</title>
<path d="M11.2,7.1L11.2,7.1L7.5,2L3.8,7.1h0C3.3,7.8,3,8.7,3,9.6C3,12,5,14,7.5,14c0,0,0,0,0,0C10,14,12,12,12,9.6c0,0,0,0,0,0
	C12,8.7,11.7,7.8,11.2,7.1z M10,10H8v2H7v-2H5V9h2V7h1v2h2V10z"/>
</svg>
