<?xml version="1.0" encoding="UTF-8"?>
<svg id="bowling-alley-11" xmlns="http://www.w3.org/2000/svg" width="11" height="11" viewBox="0 0 11 11">
  <path id="icon_concepts:_sports_leisure" d="M6.02,3.94c.04-.1.13-.4.17-.49A2.8252,2.8252,0,0,0,4.5,3a3.5,3.5,0,0,0,0,7,2.88,2.88,0,0,0,1.54-.4,8.5971,8.5971,0,0,1-.4-2.61A12.7588,12.7588,0,0,1,6.02,3.94ZM2.5,6.98a.48.48,0,1,1,.48-.48A.4867.4867,0,0,1,2.5,6.98Zm1-2a.48.48,0,1,1,.48-.48A.4867.4867,0,0,1,3.5,4.98Zm1,2a.48.48,0,1,1,.48-.48A.4867.4867,0,0,1,4.5,6.98ZM8.0981,2.4992c0-.5-.1-.5-.1-1,0-.7816.5-.7.5-.7s.5-.0814.5.7c0,.5-.1.5-.1,1,0,1.5,1.075,2.5039,1.075,4.5,0,1.5-.475,3-.975,3h-1c-.5,0-.975-1.5-.975-3C7.0231,5.0031,8.0981,3.9992,8.0981,2.4992Z"/>
</svg>