<?xml version="1.0" encoding="UTF-8"?>
<svg height="15" viewBox="0 0 15 15" width="15" xmlns="http://www.w3.org/2000/svg" id="bowling-alley">
  <path d="m8.33662 4.89105c-.60376 1.34786-.93024 2.80339-.96 4.28-.00962 1.25345.18631 2.49995.57999 3.68995-.74723.4225-1.59161.6431-2.44999.64-.79184.0011-1.5726-.1859-2.27801-.5456-.70541-.3598-1.3153-.8819-1.77947-1.5234-.464166-.6415-.769332-1.3841-.890375-2.16662-.121043-.78253-.054503-1.58262.194144-2.3344.248651-.75178.672291-1.43375 1.236051-1.98978.56376-.55604 1.25152-.97022 2.00667-1.20846.75514-.23825 1.55607-.29373 2.33685-.1619.78078.13184 1.51908.44723 2.15413.92021-.04.13-.09999.26-.14999.4zm-4.71001 3.11c0-.12262-.03636-.2425-.10448-.34445-.06813-.10196-.16496-.18143-.27825-.22836-.11329-.04692-.23795-.0592-.35822-.03528-.12027.02393-.23074.08298-.31745.16968-.08671.08671-.14576.19719-.16968.31745-.02392.12027-.01165.24493.03528.35822s.12639.21013.22835.27825c.10196.06813.22183.10449.34445.10449.08017.00126.1598-.01329.23434-.04281.07455-.02951.14255-.07343.20012-.12923.05758-.0558.10359-.12239.13543-.19597.03183-.07359.04886-.15272.05011-.23289 0-.0063 0-.0127 0-.0191zm.38-1.38c.12263 0 .2425-.03636.34446-.10449s.18142-.16496.22835-.27825.05921-.23795.03528-.35822c-.02392-.12026-.08297-.23074-.16968-.31745-.08671-.0867-.19718-.14575-.31745-.16968-.12027-.02392-.24493-.01164-.35822.03528-.11329.04693-.21012.1264-.27825.22836-.06812.10196-.10448.22183-.10448.34445-.00125.08018.01331.15982.04285.23437.02953.07455.07346.14256.12928.20013s.12243.10359.19603.13541c.07361.03183.15276.04885.23294.05009zm1.62001 1.38c0-.12262-.03637-.2425-.10449-.34445-.06813-.10196-.16496-.18143-.27825-.22836-.11329-.04692-.23795-.0592-.35822-.03528-.12027.02393-.23074.08298-.31745.16968-.08671.08671-.14576.19719-.16968.31745-.02392.12027-.01165.24493.03528.35822s.12639.21013.22835.27825c.10196.06813.22183.10449.34446.10449.08016.00126.15979-.01329.23433-.04281.07455-.02951.14255-.07343.20012-.12923.05758-.0558.10359-.12239.13543-.19597.03183-.07359.04886-.15272.05012-.23289 0-.0063 0-.0127 0-.0191zm4.80218-5.3341c0-.7222-.1444-.7222-.1444-1.4444-.0001-.19154.0759-.375271.2113-.510775s.319-.211682.5106-.211775c.1915-.000093.3752.075907.5107.21128s.2117.31903.2118.51057v.0007c0 .7222-.1444.7222-.1444 1.4444 0 2.1667 1.5528 3.6168 1.5528 6.5 0 2.16675-.6861 4.33325-1.4083 4.33325h-1.4445c-.72219 0-1.40829-2.1666-1.40829-4.33325-.0001-2.8833 1.55269-4.3334 1.55269-6.5z"/>
</svg>