<svg xmlns="http://www.w3.org/2000/svg" width="15" height="15" viewBox="0 0 15 15"><title>bowling-alley-15 copy-v0.3</title><g id="icon_concepts:_sports_leisure" data-name="icon concepts: sports &amp; leisure"><path d="M8.83,5.39a11.0125,11.0125,0,0,0-.96,4.28,11.47,11.47,0,0,0,.58,3.69A4.9428,4.9428,0,0,1,6,14,5,5,0,1,1,8.98,4.99C8.94,5.12,8.88,5.25,8.83,5.39ZM4.12,8.5a.62.62,0,1,0-.62.62A.6105.6105,0,0,0,4.12,8.5ZM4.5,7.12a.62.62,0,1,0-.62-.62A.6106.6106,0,0,0,4.5,7.12ZM6.12,8.5a.62.62,0,1,0-.62.62A.6105.6105,0,0,0,6.12,8.5Zm4.8022-5.3341c0-.7222-.1444-.7222-.1444-1.4444a.7222.7222,0,1,1,1.4444,0c0,.7222-.1444.7222-.1444,1.4444,0,2.1667,1.5528,3.6168,1.5528,6.5,0,2.1667-.6861,4.3333-1.4083,4.3333H10.7778c-.7222,0-1.4083-2.1667-1.4083-4.3333C9.3694,6.7826,10.9222,5.3325,10.9222,3.1659Z"/></g></svg>