<svg xmlns="http://www.w3.org/2000/svg" width="15" height="15" viewBox="0 0 15 15"><title>bowling-alley-15 copy-5.4</title><g id="2b8d5b98-2657-4435-a94e-4ddd10c9a7b7" data-name="icon concepts: sports &amp; leisure"><path d="M10.91,3c-.01-.57-.13-.62-.13-1.28a.72.72,0,1,1,1.44,0c0,.66-.12.71-.13,1.28Zm1.25,1H10.84c-.31,1.74-1.47,3.17-1.47,5.67,0,2.16.69,4.33,1.41,4.33h1.44c.72,0,1.41-2.17,1.41-4.33C13.63,7.17,12.47,5.74,12.16,4ZM8.83,5.39a11.0125,11.0125,0,0,0-.96,4.28,11.47,11.47,0,0,0,.58,3.69A4.9428,4.9428,0,0,1,6,14,5,5,0,1,1,8.98,4.99C8.94,5.12,8.88,5.25,8.83,5.39ZM4.12,8.5a.62.62,0,1,0-.62.62A.6105.6105,0,0,0,4.12,8.5ZM4.5,7.12a.62.62,0,1,0-.62-.62A.6106.6106,0,0,0,4.5,7.12ZM6.12,8.5a.62.62,0,1,0-.62.62A.6105.6105,0,0,0,6.12,8.5Z"/></g></svg>