<svg id="Layer_1" data-name="Layer 1" xmlns="http://www.w3.org/2000/svg" width="11" height="11" viewBox="0 0 11 11">
  <title>bridge-11</title>
  <path d="M9.4,4.244A6.744,6.744,0,0,0,0,5.841V9H1V8.5a1.911,1.911,0,0,1,1.818-2q.091,0,.182,0A1.911,1.911,0,0,1,5,8.318Q5,8.409,5,8.5V9H6V8.5a1.911,1.911,0,0,1,1.818-2q.091,0,.182,0a1.911,1.911,0,0,1,2,1.818q0,.091,0,.182V9h1V5.841A6.745,6.745,0,0,0,9.4,4.244ZM.5,6A6.238,6.238,0,0,1,2,4.588V6Zm2,0V4.269c.012-.007.023-.016.036-.023A6.238,6.238,0,0,1,4,3.688V6Zm2,0V3.584A6.218,6.218,0,0,1,6,3.522V6Zm2,0V3.585A6.273,6.273,0,0,1,8,4.026V6Zm2,0V4.27A6.2,6.2,0,0,1,10.491,6Z"/>
</svg>
