<?xml version="1.0" encoding="UTF-8"?>
<svg id="bridge-11" xmlns="http://www.w3.org/2000/svg" width="11" height="11" viewBox="0 0 11 11">
  <path d="M0,5.835V9h1c0-1.105,0.896-2.006,2-2.006c1.103,0,1.998,0.903,2,2.006h1c0-1.105,0.895-2.006,1.999-2.006&#xA;&#x9;C9.102,6.994,9.997,7.897,10,9h1V5.835C8.083,1.806,2.389,2.312,0,5.835z M2,6H0.5C0.919,5.449,1.426,4.966,2,4.582V6z M4,6H2.5&#xA;&#x9;V4.263C2.963,4.016,3.491,3.806,4,3.682V6z M6,6H4.5V3.578c0.496-0.081,1-0.102,1.5-0.062V6z M8,6H6.5V3.579&#xA;&#x9;C7.017,3.663,7.52,3.811,8,4.02V6z M8.5,6V4.264C9.28,4.691,9.968,5.287,10.5,6H8.5z"/>
</svg>