<svg id="Layer_1" data-name="Layer 1" xmlns="http://www.w3.org/2000/svg" width="15" height="15" viewBox="0 0 15 15">
  <title>bridge-15</title>
  <path d="M12.9,6.742A9.242,9.242,0,0,0,0,8.842V13H2V12a2.07,2.07,0,0,1,2-2,2.07,2.07,0,0,1,2,2v1H9V12a2.07,2.07,0,0,1,2-2,2.07,2.07,0,0,1,2,2v1h2V8.842A9.243,9.243,0,0,0,12.9,6.742ZM9.5,5.734a8.785,8.785,0,0,1,1.5.5V9H9.5Zm-.5-.1V9H7.5V5.506A8.757,8.757,0,0,1,9,5.634Zm-5.5.843A8.721,8.721,0,0,1,5,5.871V9H3.5ZM5.5,9V5.73A8.686,8.686,0,0,1,7,5.515V9ZM3,6.744V9H.511A8.739,8.739,0,0,1,3,6.744ZM11.5,9V6.5l-.053-.053A8.681,8.681,0,0,1,14.5,9Z"/>
</svg>
