<svg xmlns="http://www.w3.org/2000/svg" width="11" height="11" viewBox="0 0 11 11">
  <title>buddhism</title>
  <path d="M11,5.8V5.3H9.988A4.473,4.473,0,0,0,8.85,2.554l.827-.827-.354-.354L8.5,2.2A4.474,4.474,0,0,0,5.75,1.062V0h-.5V1.062a4.471,4.471,0,0,0-2.7,1.1l-.875-.886-.355.352L2.19,2.5A4.477,4.477,0,0,0,1.012,5.3H0v.5H1.012A4.474,4.474,0,0,0,2.15,8.546l-.827.827.354.354L2.5,8.9A4.474,4.474,0,0,0,5.25,10.038V11h.5v-.962A4.475,4.475,0,0,0,8.5,8.895l.82.831.355-.352L8.854,8.54A4.473,4.473,0,0,0,9.988,5.8ZM9.561,5.3H6.1L8.548,2.856A4.049,4.049,0,0,1,9.561,5.3ZM8.194,2.5,5.75,4.946V1.489A4.048,4.048,0,0,1,8.194,2.5ZM5.25,1.489v3.4l-2.4-2.428A4.045,4.045,0,0,1,5.25,1.489ZM2.491,2.809,4.951,5.3H1.439A4.053,4.053,0,0,1,2.491,2.809ZM1.439,5.8H4.9L2.452,8.244A4.049,4.049,0,0,1,1.439,5.8ZM2.806,8.6,5.25,6.153V9.61A4.049,4.049,0,0,1,2.806,8.6ZM5.75,9.61v-3.5L8.2,8.591A4.049,4.049,0,0,1,5.75,9.61Zm2.8-1.374L6.147,5.8H9.561A4.048,4.048,0,0,1,8.554,8.236Z"/>
</svg>
