<svg xmlns="http://www.w3.org/2000/svg" width="11" height="11" viewBox="0 0 11 11">
  <title>buddhism</title>
  <path d="M9.5,5l-.547.036a3.46,3.46,0,0,0-.682-1.652l.411-.359a.5.5,0,0,0-.707-.707l-.359.411a3.46,3.46,0,0,0-1.652-.682L6,1.5a.5.5,0,0,0-1,0l.036.547a3.46,3.46,0,0,0-1.652.682l-.359-.411a.5.5,0,0,0-.707.707l.411.359a3.46,3.46,0,0,0-.682,1.652L1.5,5a.5.5,0,0,0,0,1l.547-.036a3.46,3.46,0,0,0,.682,1.652l-.411.359a.5.5,0,1,0,.707.707l.359-.411a3.46,3.46,0,0,0,1.652.682L5,9.5a.5.5,0,0,0,1,0l-.036-.547a3.46,3.46,0,0,0,1.652-.682l.359.411a.5.5,0,1,0,.707-.707l-.411-.359a3.46,3.46,0,0,0,.682-1.652L9.5,6a.5.5,0,0,0,0-1Zm-1.54.1-1.789.119L7.522,4.04A2.476,2.476,0,0,1,7.96,5.1Zm-1-1.625L5.778,4.829,5.9,3.04A2.475,2.475,0,0,1,6.96,3.478ZM5.1,3.04l.119,1.789L4.04,3.478A2.475,2.475,0,0,1,5.1,3.04Zm-1.625,1L4.829,5.222,3.04,5.1A2.476,2.476,0,0,1,3.478,4.04ZM3.04,5.9l1.789-.119L3.478,6.96A2.475,2.475,0,0,1,3.04,5.9Zm1,1.625L5.222,6.171,5.1,7.96A2.476,2.476,0,0,1,4.04,7.522ZM5.9,7.96,5.778,6.171,6.96,7.522A2.476,2.476,0,0,1,5.9,7.96Zm1.625-1L6.171,5.778,7.96,5.9A2.475,2.475,0,0,1,7.522,6.96Z"/>
</svg>
