<svg xmlns="http://www.w3.org/2000/svg" width="11" height="11" viewBox="0 0 11 11">
  <title>buddhism</title>
  <path d="M10.5,5H9.95A4.449,4.449,0,0,0,9,2.705H9A4.5,4.5,0,0,0,8.295,2h0A4.449,4.449,0,0,0,6,1.05V.5a.5.5,0,0,0-1,0v.55A4.464,4.464,0,0,0,2,2.705H2A4.449,4.449,0,0,0,1.05,5H.5a.5.5,0,0,0,0,1h.55A4.464,4.464,0,0,0,2.705,9h0A4.449,4.449,0,0,0,5,9.95v.55a.5.5,0,0,0,1,0V9.95A4.449,4.449,0,0,0,8.295,9h0A4.5,4.5,0,0,0,9,8.295H9A4.449,4.449,0,0,0,9.95,6h.55a.5.5,0,0,0,0-1ZM6,1.8a3.71,3.71,0,0,1,1.764.728L6,4.293Zm-1,0V4.293L3.236,2.529A3.71,3.71,0,0,1,5,1.8ZM2.529,3.236,4.293,5H1.8A3.709,3.709,0,0,1,2.529,3.236Zm0,4.528A3.709,3.709,0,0,1,1.8,6H4.293ZM5,9.2a3.709,3.709,0,0,1-1.764-.728L5,6.707ZM5.5,6A.5.5,0,1,1,6,5.5.5.5,0,0,1,5.5,6ZM6,9.2V6.707L7.764,8.471A3.709,3.709,0,0,1,6,9.2ZM8.471,7.764,6.707,6H9.2A3.709,3.709,0,0,1,8.471,7.764ZM6.707,5,8.471,3.236A3.709,3.709,0,0,1,9.2,5Z"/>
</svg>
