<svg xmlns="http://www.w3.org/2000/svg" width="11" height="11" viewBox="0 0 11 11">
  <title>buddhism</title>
  <path d="M9.5,5a.5.5,0,0,0-.334.133,1.476,1.476,0,0,0-.21-.067,3.46,3.46,0,0,0-.7-1.705,1.479,1.479,0,0,0,.1-.194.5.5,0,0,0,.33-.849.5.5,0,0,0-.707,0,.5.5,0,0,0-.142.33,1.485,1.485,0,0,0-.194.1,3.46,3.46,0,0,0-1.705-.7,1.474,1.474,0,0,0-.067-.21A.5.5,0,0,0,6,1.5a.5.5,0,0,0-1,0,.494.494,0,0,0,.133.334,1.482,1.482,0,0,0-.067.21,3.461,3.461,0,0,0-1.705.7,1.475,1.475,0,0,0-.194-.1.494.494,0,0,0-.142-.33.5.5,0,0,0-.707.707.494.494,0,0,0,.33.142,1.476,1.476,0,0,0,.1.194,3.46,3.46,0,0,0-.7,1.705,1.474,1.474,0,0,0-.21.067A.5.5,0,0,0,1.5,5a.5.5,0,0,0,0,1,.494.494,0,0,0,.334-.133,1.482,1.482,0,0,0,.21.067,3.461,3.461,0,0,0,.7,1.705,1.479,1.479,0,0,0-.1.194.5.5,0,0,0-.33.142.5.5,0,1,0,.707.707.494.494,0,0,0,.142-.33,1.48,1.48,0,0,0,.194-.1,3.46,3.46,0,0,0,1.705.7,1.482,1.482,0,0,0,.067.21A.5.5,0,0,0,5,9.5a.5.5,0,0,0,1,0,.5.5,0,0,0-.133-.334,1.476,1.476,0,0,0,.067-.21,3.46,3.46,0,0,0,1.705-.7,1.483,1.483,0,0,0,.194.1.5.5,0,0,0,.142.33.5.5,0,1,0,.707-.707.5.5,0,0,0-.33-.142,1.482,1.482,0,0,0-.1-.194,3.46,3.46,0,0,0,.7-1.705,1.482,1.482,0,0,0,.21-.067A.5.5,0,0,0,9.5,6a.5.5,0,0,0,0-1ZM6,3.051a2.484,2.484,0,0,1,.876.366L6,4.293ZM6,5.5A.5.5,0,1,1,5.5,5,.5.5,0,0,1,6,5.5ZM5,4.293l-.876-.876A2.484,2.484,0,0,1,5,3.051ZM4.293,5H3.051a2.484,2.484,0,0,1,.366-.876Zm0,1-.876.876A2.484,2.484,0,0,1,3.051,6ZM5,6.707V7.949a2.484,2.484,0,0,1-.876-.366Zm1,0,.876.876A2.484,2.484,0,0,1,6,7.949ZM6.707,6H7.949a2.484,2.484,0,0,1-.366.876Zm0-1,.876-.876A2.484,2.484,0,0,1,7.949,5Z"/>
</svg>
