<svg xmlns="http://www.w3.org/2000/svg" width="14.9976" height="14.9976" viewBox="0 0 14.9976 14.9976">
  <title>buddhism-15</title>
  <path d="M13.4978,6.9989H12.9649a5.4631,5.4631,0,0,0-1.2478-3.0105L12.0951,3.61A0.5,0.5,0,0,0,11.4,2.8912h0l-0.0123.0123L11.01,3.2815A5.4641,5.4641,0,0,0,7.9987,2.0327V1.5a0.5,0.5,0,0,0-1,0V2.0327A5.4641,5.4641,0,0,0,3.9884,3.2815L3.61,2.9a0.5,0.5,0,0,0-.7069.7069L3.2815,3.9844A5.4631,5.4631,0,0,0,2.0327,6.9989H1.5a0.5,0.5,0,0,0,0,1H2.0327A5.4631,5.4631,0,0,0,3.28,11.0092l-0.3779.3779a0.5,0.5,0,0,0,.6946.7192l0.0123-.0123,0.3779-.3779a5.4621,5.4621,0,0,0,3.0115,1.2488v0.5329a0.5,0.5,0,0,0,1,0V12.9649a5.4631,5.4631,0,0,0,3.0105-1.2488l0.3779,0.3779a0.5,0.5,0,0,0,.7192-0.6946l-0.0123-.0123h0l-0.3779-.3779a5.4641,5.4641,0,0,0,1.2488-3.0105h0.5329A0.5,0.5,0,0,0,13.4978,6.9989ZM7.9987,3.0505a4.4493,4.4493,0,0,1,2.2926.9488l-2.15,2.15a1.4847,1.4847,0,0,0-.143-0.058V3.0505Zm-1,0V6.091a1.4848,1.4848,0,0,0-.143.058l-2.15-2.15A4.4493,4.4493,0,0,1,6.9989,3.0505Zm-3,1.6557,2.15,2.15a1.4848,1.4848,0,0,0-.058.143H3.0505A4.4493,4.4493,0,0,1,3.9994,4.7062ZM3.0505,7.9987H6.091a1.5,1.5,0,0,0,.058.143l-2.15,2.15A4.4483,4.4483,0,0,1,3.0505,7.9987Zm3.9484,3.9484a4.4493,4.4493,0,0,1-2.2926-.9488l2.15-2.15a1.4849,1.4849,0,0,0,.143.058v3.0405Zm1,0V8.9066a1.4778,1.4778,0,0,0,.143-0.058l2.15,2.15A4.4483,4.4483,0,0,1,7.9987,11.9471Zm3-1.6557-2.15-2.15a1.5,1.5,0,0,0,.058-0.143h3.0415A4.4483,4.4483,0,0,1,10.9982,10.2914ZM8.9066,6.9989a1.4849,1.4849,0,0,0-.058-0.143l2.15-2.15a4.4493,4.4493,0,0,1,.9488,2.2926H8.9066Z"/>
</svg>
