<svg xmlns="http://www.w3.org/2000/svg" width="15" height="15" viewBox="0 0 15 15">
  <title>buddhism</title>
  <path d="M13.5,7h-.533a5.464,5.464,0,0,0-1.248-3.011l.378-.378a.5.5,0,1,0-.707-.707l-.378.378A5.465,5.465,0,0,0,8,2.033V1.5a.5.5,0,0,0-1,0v.533A5.465,5.465,0,0,0,3.989,3.282L3.611,2.9a.5.5,0,0,0-.707.707l.378.378A5.464,5.464,0,0,0,2.033,7H1.5a.5.5,0,0,0,0,1h.533a5.464,5.464,0,0,0,1.248,3.011l-.378.378a.5.5,0,1,0,.707.707l.378-.378A5.463,5.463,0,0,0,7,12.967V13.5a.5.5,0,0,0,1,0v-.533a5.464,5.464,0,0,0,3.011-1.249l.378.378a.5.5,0,1,0,.707-.707h0l-.378-.378A5.465,5.465,0,0,0,12.967,8H13.5a.5.5,0,0,0,0-1ZM8,3.051A4.45,4.45,0,0,1,10.293,4L8.143,6.15A1.485,1.485,0,0,0,8,6.092Zm-1,0V6.092a1.485,1.485,0,0,0-.143.058L4.707,4A4.45,4.45,0,0,1,7,3.051ZM4,4.707,6.15,6.857A1.485,1.485,0,0,0,6.092,7H3.051A4.45,4.45,0,0,1,4,4.707ZM3.051,8H6.092a1.5,1.5,0,0,0,.058.143L4,10.293A4.449,4.449,0,0,1,3.051,8ZM7,11.949A4.45,4.45,0,0,1,4.707,11L6.857,8.85A1.485,1.485,0,0,0,7,8.908Zm1,0V8.908a1.478,1.478,0,0,0,.143-.058L10.293,11A4.449,4.449,0,0,1,8,11.949Zm3-1.656L8.85,8.143A1.5,1.5,0,0,0,8.908,8h3.042A4.449,4.449,0,0,1,11,10.293ZM8.908,7a1.485,1.485,0,0,0-.058-.143L11,4.707A4.45,4.45,0,0,1,11.949,7Z"/>
</svg>
