<svg xmlns="http://www.w3.org/2000/svg" width="15" height="15" viewBox="0 0 15 15">
  <title>buddhism</title>
  <path d="M13.5,7a.5.5,0,0,0-.334.133,1.494,1.494,0,0,0-.188-.06,5.471,5.471,0,0,0-1.3-3.144,1.5,1.5,0,0,0,.091-.176.5.5,0,0,0,.33-.142.5.5,0,1,0-.707-.707.5.5,0,0,0-.142.33,1.491,1.491,0,0,0-.176.091,5.471,5.471,0,0,0-3.144-1.3,1.494,1.494,0,0,0-.06-.188A.5.5,0,0,0,8,1.5a.5.5,0,0,0-1,0,.5.5,0,0,0,.133.334,1.494,1.494,0,0,0-.06.188,5.471,5.471,0,0,0-3.144,1.3,1.49,1.49,0,0,0-.176-.091.494.494,0,0,0-.142-.33.5.5,0,0,0-.707.707.5.5,0,0,0,.33.142,1.489,1.489,0,0,0,.091.176,5.471,5.471,0,0,0-1.3,3.144,1.493,1.493,0,0,0-.188.06.5.5,0,1,0,0,.733,1.493,1.493,0,0,0,.188.06,5.471,5.471,0,0,0,1.3,3.144,1.481,1.481,0,0,0-.091.176.5.5,0,1,0,.519.519,1.485,1.485,0,0,0,.176-.091,5.47,5.47,0,0,0,3.144,1.3,1.493,1.493,0,0,0,.06.188.5.5,0,1,0,.733,0,1.493,1.493,0,0,0,.06-.188,5.47,5.47,0,0,0,3.144-1.3,1.492,1.492,0,0,0,.176.091.5.5,0,1,0,.519-.519,1.487,1.487,0,0,0-.091-.177,5.471,5.471,0,0,0,1.3-3.144,1.494,1.494,0,0,0,.188-.06A.5.5,0,0,0,13.5,8a.5.5,0,0,0,0-1ZM8.143,6.15A1.485,1.485,0,0,0,8,6.092V3.051A4.45,4.45,0,0,1,10.293,4ZM7.5,8A.5.5,0,1,1,8,7.5.5.5,0,0,1,7.5,8ZM7,6.092a1.485,1.485,0,0,0-.143.058L4.707,4A4.45,4.45,0,0,1,7,3.051Zm-.85.765A1.485,1.485,0,0,0,6.092,7H3.051A4.45,4.45,0,0,1,4,4.707ZM6.092,8a1.5,1.5,0,0,0,.058.143L4,10.293A4.449,4.449,0,0,1,3.051,8Zm.765.85A1.485,1.485,0,0,0,7,8.908v3.042A4.45,4.45,0,0,1,4.707,11ZM8,8.908a1.479,1.479,0,0,0,.143-.058L10.293,11A4.449,4.449,0,0,1,8,11.949Zm.85-.765A1.5,1.5,0,0,0,8.908,8h3.042A4.449,4.449,0,0,1,11,10.293ZM8.908,7a1.485,1.485,0,0,0-.058-.143L11,4.707A4.45,4.45,0,0,1,11.949,7Z"/>
</svg>
