<svg xmlns="http://www.w3.org/2000/svg" width="11.0016" height="11.0016" viewBox="0 0 11.0016 11.0016">
  <title>buddhism-11</title>
  <path d="M11.0016,5.8008v-0.5H9.9895A4.4736,4.4736,0,0,0,8.8513,2.5544l0.8271-.8271L9.3244,1.3732,8.5012,2.2a4.4747,4.4747,0,0,0-2.75-1.1382V0h-0.5V1.0622a4.4717,4.4717,0,0,0-2.7,1.1L1.6752,1.2762,1.32,1.6282,2.19,2.5a4.4777,4.4777,0,0,0-1.1782,2.8H0v0.5H1.0121A4.4747,4.4747,0,0,0,2.15,8.5472l-0.8271.8271L1.6772,9.7284,2.5,8.9013a4.4747,4.4747,0,0,0,2.75,1.1382v0.9621h0.5V10.0395a4.4756,4.4756,0,0,0,2.75-1.1432l0.82,0.8311,0.3551-.3521L8.8553,8.5412a4.4737,4.4737,0,0,0,1.1342-2.74h1.0121Zm-1.4392-.5H6.1009L8.5492,2.8564A4.05,4.05,0,0,1,9.5624,5.3008ZM8.1952,2.5L5.7508,4.9467V1.4892A4.0486,4.0486,0,0,1,8.1952,2.5ZM5.2508,1.4892v3.4L2.85,2.4614A4.0456,4.0456,0,0,1,5.2508,1.4892Zm-2.7594,1.32,2.46,2.4914H1.4392A4.0536,4.0536,0,0,1,2.4914,2.8094ZM1.4392,5.8008H4.9007L2.4524,8.2452A4.05,4.05,0,0,1,1.4392,5.8008Zm1.3672,2.8L5.2508,6.1539V9.6114A4.05,4.05,0,0,1,2.8064,8.6013Zm2.9444,1.01V6.1109l2.45,2.4814A4.05,4.05,0,0,1,5.7508,9.6114Zm2.8-1.3742L6.1479,5.8008H9.5624A4.0486,4.0486,0,0,1,8.5552,8.2372H8.5512Z"/>
</svg>
