<?xml version="1.0" encoding="utf-8"?>
<!-- Generator: Adobe Illustrator 19.2.1, SVG Export Plug-In . SVG Version: 6.00 Build 0)  -->
<!DOCTYPE svg PUBLIC "-//W3C//DTD SVG 1.1//EN" "http://www.w3.org/Graphics/SVG/1.1/DTD/svg11.dtd">
<svg version="1.1"
	 id="svg4764" inkscape:version="0.91+devel+osxmenu r12911" sodipodi:docname="bus-11.svg" xmlns:cc="http://creativecommons.org/ns#" xmlns:dc="http://purl.org/dc/elements/1.1/" xmlns:inkscape="http://www.inkscape.org/namespaces/inkscape" xmlns:rdf="http://www.w3.org/1999/02/22-rdf-syntax-ns#" xmlns:sodipodi="http://sodipodi.sourceforge.net/DTD/sodipodi-0.dtd" xmlns:svg="http://www.w3.org/2000/svg"
	 xmlns="http://www.w3.org/2000/svg" xmlns:xlink="http://www.w3.org/1999/xlink" x="0px" y="0px" width="11px" height="11px"
	 viewBox="0 0 11 11" style="enable-background:new 0 0 11 11;" xml:space="preserve">
<path id="path8043" inkscape:connector-curvature="0" d="M3,0C2,0,1,0.5312,1,2v4v3.5c0,0,0,0.5,0.5,0.5L2,10.0156V10.5
	c0,0,0,0.5,0.5,0.5H3c0,0,0.5,0,0.5-0.5v-0.4844L7.5,10v0.5c0,0,0,0.5,0.5,0.5h0.5C9,11,9,10.5,9,10.5v-0.4844L9.5,10
	c0,0,0.5,0,0.5-0.5V6V2c0-1.5-1-2-2-2H3z M3.75,1h3.5C7.3885,1,7.5,1.1115,7.5,1.25S7.3885,1.5,7.25,1.5h-3.5
	C3.6115,1.5,3.5,1.3885,3.5,1.25S3.6115,1,3.75,1z M3,2h5c1,0,1,1,1,1v2c0,0,0,1-1,1H3C2,6,2,5,2,5V3C2,3,2,2,3,2z M2.75,7.5
	c0.4142,0,0.75,0.3358,0.75,0.75C3.5,8.6642,3.1642,9,2.75,9S2,8.6642,2,8.25C2,7.8358,2.3358,7.5,2.75,7.5z M8.25,7.5
	C8.6642,7.5,9,7.8358,9,8.25C9,8.6642,8.6642,9,8.25,9C7.8358,9,7.5,8.6642,7.5,8.25C7.5,7.8358,7.8358,7.5,8.25,7.5z"/>
</svg>
