<?xml version="1.0" encoding="utf-8"?>
<!-- Generator: Adobe Illustrator 19.2.1, SVG Export Plug-In . SVG Version: 6.00 Build 0)  -->
<!DOCTYPE svg PUBLIC "-//W3C//DTD SVG 1.1//EN" "http://www.w3.org/Graphics/SVG/1.1/DTD/svg11.dtd">
<svg version="1.1" id="Layer_1" xmlns="http://www.w3.org/2000/svg" xmlns:xlink="http://www.w3.org/1999/xlink" x="0px" y="0px"
	 width="11px" height="11px" viewBox="0 0 11 11" style="enable-background:new 0 0 11 11;" xml:space="preserve">
<path d="M7,9.5C7,9.7761,6.7761,10,6.5,10h-4C2.2239,10,2,9.7761,2,9.5S2.2239,9,2.5,9h4C6.7761,9,7,9.2239,7,9.5z M8,3H7V2H2v4
	c0.0016,1.3807,1.1222,2.4987,2.5029,2.4971C5.4948,8.4959,6.3921,7.9085,6.79,7H8c1.1046,0,2-0.8954,2-2S9.1046,3,8,3z M8,6H7V4h1
	c0.5523,0,1,0.4477,1,1S8.5523,6,8,6z"/>
</svg>
