<?xml version="1.0" encoding="UTF-8"?>
<svg xmlns="http://www.w3.org/2000/svg" id="car-repair" width="15" height="15" viewBox="0 0 15 15">
  <path d="M13.8,9.8a1,1,0,0,0-.4-.5l-.8-.6L11.5,6.5a1.05,1.05,0,0,0-.9-.5H4.4a1.05,1.05,0,0,0-.9.5L2.4,8.7l-.8.6a1,1,0,0,0-.4.5l-.2.7v4a.458.458,0,0,0,.4.5H3.5a.457.457,0,0,0,.5-.4V14h7v.5a.457.457,0,0,0,.4.5h2.1a.457.457,0,0,0,.5-.4V10.5ZM4.4,7h6.2l1,2H3.4ZM5,11.6a.456.456,0,0,1-.5.4H2.4a.456.456,0,0,1-.4-.5V10.4c.1-.3.3-.5.6-.4l2,.4c.2,0,.4.3.4.5Zm8-.1a.456.456,0,0,1-.4.5H10.5a.456.456,0,0,1-.5-.4v-.7c0-.2.2-.5.4-.5l2-.4c.3-.1.5.1.6.4ZM13,1a1,1,0,0,1,1,1V3a1,1,0,0,1-1,1H5.269A2.478,2.478,0,0,1,1,3.5H3.2l.8-1-.8-1H1.015A2.475,2.475,0,0,1,5.251,1Z"/>
</svg>