<?xml version="1.0" encoding="UTF-8" standalone="no"?>
<!-- Created with Inkscape (http://www.inkscape.org/) -->

<svg
   xmlns:dc="http://purl.org/dc/elements/1.1/"
   xmlns:cc="http://creativecommons.org/ns#"
   xmlns:rdf="http://www.w3.org/1999/02/22-rdf-syntax-ns#"
   xmlns:svg="http://www.w3.org/2000/svg"
   xmlns="http://www.w3.org/2000/svg"
   xmlns:sodipodi="http://sodipodi.sourceforge.net/DTD/sodipodi-0.dtd"
   xmlns:inkscape="http://www.inkscape.org/namespaces/inkscape"
   version="1.1"
   width="11"
   height="11"
   id="svg4764"
   xml:space="preserve"
   inkscape:version="0.91+devel+osxmenu r12911"
   sodipodi:docname="car-11.svg"
   viewBox="0 0 11 11"><sodipodi:namedview
     pagecolor="#ffffff"
     bordercolor="#666666"
     borderopacity="1"
     objecttolerance="10"
     gridtolerance="10"
     guidetolerance="10"
     inkscape:pageopacity="0"
     inkscape:pageshadow="2"
     inkscape:window-width="955"
     inkscape:window-height="761"
     id="namedview3382"
     inkscape:document-units="px"
     showgrid="true"
     inkscape:zoom="45.254834"
     inkscape:cx="7.7639425"
     inkscape:cy="4.0864581"
     inkscape:current-layer="svg4764"
     inkscape:snap-bbox="true"
     inkscape:bbox-paths="true"
     inkscape:bbox-nodes="true"
     inkscape:snap-bbox-edge-midpoints="true"
     inkscape:snap-bbox-midpoints="true"
     inkscape:object-paths="true"
     inkscape:snap-intersection-paths="true"
     inkscape:object-nodes="true"
     inkscape:snap-smooth-nodes="true"
     inkscape:window-x="0"
     inkscape:window-y="0"
     inkscape:window-maximized="0"><inkscape:grid
       type="xygrid"
       id="grid3333"
       spacingx="0.5"
       spacingy="0.5"
       color="#fb0000"
       opacity="0.1254902"
       empspacing="2" /></sodipodi:namedview><metadata
     id="metadata27"><rdf:RDF><cc:Work
         rdf:about=""><dc:format>image/svg+xml</dc:format><dc:type
           rdf:resource="http://purl.org/dc/dcmitype/StillImage" /><dc:title /></cc:Work></rdf:RDF></metadata><defs
     id="defs25" /><path
     style="fill:#000000;fill-opacity:1"
     d="M 2.5 1 C 2.5 1 1.75 1 1.5 2 L 1 4 C 1 4 0 4.5 0 5.5 L 0 8 C 0 8 0 9 1 9 L 1 9.5 C 1 10 1.5 10 1.5 10 L 2.5 10 C 2.5 10 3 10 3 9.5 L 3 9 L 8 9 L 8 9.5 C 8 10 8.5 10 8.5 10 L 9.5 10 C 9.5 10 10 10 10 9.5 L 10 9 C 11 9 11 8 11 8 L 11 5.5 C 11 4.5 10 4 10 4 L 9.5 2 C 9.244114 0.97645611 8.5 1 8.5 1 L 2.5 1 z M 2.5 2 L 8.5 2 L 8.75 3 C 9.0074763 4.0299052 8 4 8 4 L 3 4 C 3 4 1.9967854 4.0128585 2.25 3 L 2.5 2 z M 2 6 A 1 1 0 0 1 3 7 A 1 1 0 0 1 2 8 A 1 1 0 0 1 1 7 A 1 1 0 0 1 2 6 z M 9 6 A 1 1 0 0 1 10 7 A 1 1 0 0 1 9 8 A 1 1 0 0 1 8 7 A 1 1 0 0 1 9 6 z "
     id="path8522-6-8" /></svg>
