<?xml version="1.0" encoding="UTF-8"?>
<svg xmlns="http://www.w3.org/2000/svg" id="car-rental" width="15" height="15" viewBox="0 0 15 15">
  <path d="M13.8,9.8c-0.1-0.2-0.2-0.4-0.4-0.5l-0.8-0.6l-1.1-2.2C11.3,6.2,11,6,10.6,6H4.4C4,6,3.7,6.2,3.5,6.5L2.4,8.7L1.6,9.3&#xA;&#x9;C1.4,9.4,1.3,9.6,1.2,9.8L1,10.5v4C1,14.7,1.2,15,1.4,15h2.1C3.7,15,4,14.8,4,14.6V14h7v0.5c0,0.2,0.2,0.5,0.4,0.5h2.1&#xA;&#x9;c0.2,0,0.5-0.2,0.5-0.4v-4.1L13.8,9.8z M4.4,7h6.2l1,2H3.4L4.4,7z M5,11.6C5,11.8,4.7,12,4.5,12H2.4C2.2,12,2,11.7,2,11.5v-1.1&#xA;&#x9;c0.1-0.3,0.3-0.5,0.6-0.4l2,0.4c0.2,0,0.4,0.3,0.4,0.5V11.6z M13,11.5c0,0.2-0.2,0.5-0.4,0.5h-2.1c-0.2,0-0.5-0.2-0.5-0.4v-0.7&#xA;&#x9;c0-0.2,0.2-0.5,0.4-0.5l2-0.4c0.3-0.1,0.5,0.1,0.6,0.4V11.5z M13.5,0h-2c-0.6,0-1.2,0.4-1.4,1H2L1,2v1l1,1l1.5-1.5L5,4l1.5-1.5L8,4&#xA;&#x9;h2.1c0.2,0.6,0.8,1,1.4,1h2C13.8,5,14,4.8,14,4.5v-4C14,0.2,13.8,0,13.5,0z M13,3.5C13,3.8,12.8,4,12.5,4S12,3.8,12,3.5v-2&#xA;&#x9;C12,1.2,12.2,1,12.5,1S13,1.2,13,1.5V3.5z"/>
</svg>