<?xml version="1.0" encoding="utf-8"?>
<!-- Generator: Adobe Illustrator 22.1.0, SVG Export Plug-In . SVG Version: 6.00 Build 0)  -->
<svg version="1.1" id="start_here" xmlns="http://www.w3.org/2000/svg" xmlns:xlink="http://www.w3.org/1999/xlink" x="0px" y="0px"
	 width="15px" height="15px" viewBox="0 0 15 15" style="enable-background:new 0 0 15 15;" xml:space="preserve">
<g>
	<path d="M11.5039,1H10C9.2616,1,8.6238,1.4047,8.2774,2H3.5l-1,1l1,1l1-1l1,1l1-1l1,1h0.7774C8.6238,4.5953,9.2616,5,10,5h1.4982
		C11.7753,5,12,4.7753,12,4.4982V1.4961C12,1.2221,11.7779,1,11.5039,1z M11,3.5C11,3.7761,10.7761,4,10.5,4S10,3.7761,10,3.5v-1
		C10,2.2238,10.2239,2,10.5,2S11,2.2238,11,2.5V3.5z"/>
	<path d="M10.9252,9.0103l-0.3636-2.1802C10.4824,6.3491,10.0713,6,9.583,6H5.417C4.9302,6,4.5186,6.3486,4.4385,6.8291
		L4.0746,9.0117C3.4776,9.0436,3,9.5277,3,10.1327V13h1c0,0.5522,0.4477,1,1,1s1-0.4478,1-1h3c0,0.5522,0.4477,1,1,1s1-0.4478,1-1h1
		v-2.8744C12,9.522,11.5219,9.0383,10.9252,9.0103z M4.75,12C4.3358,12,4,11.6642,4,11.25c0-0.4142,0.3358-0.75,0.75-0.75
		s0.75,0.3358,0.75,0.75C5.5,11.6642,5.1642,12,4.75,12z M5.0887,9L5.417,7l4.1582-0.0068L9.9098,9H5.0887z M10.25,12
		c-0.4142,0-0.75-0.3358-0.75-0.75c0-0.4142,0.3358-0.75,0.75-0.75S11,10.8358,11,11.25C11,11.6642,10.6642,12,10.25,12z"/>
</g>
</svg>
