<?xml version="1.0" encoding="utf-8"?>
<!-- Generator: Adobe Illustrator 22.1.0, SVG Export Plug-In . SVG Version: 6.00 Build 0)  -->
<svg version="1.1" id="start_here" xmlns="http://www.w3.org/2000/svg" xmlns:xlink="http://www.w3.org/1999/xlink" x="0px" y="0px"
	 width="15px" height="15px" viewBox="0 0 15 15" style="enable-background:new 0 0 15 15;" xml:space="preserve">
<g>
	<path d="M10.9252,9.0103l-0.3636-2.1802C10.4824,6.3491,10.0713,6,9.583,6H5.417C4.9302,6,4.5186,6.3486,4.4385,6.8291
		L4.0746,9.0117C3.4776,9.0436,3,9.5277,3,10.1327V13h1c0,0.5522,0.4477,1,1,1s1-0.4478,1-1h3c0,0.5522,0.4477,1,1,1s1-0.4478,1-1h1
		v-2.8744C12,9.522,11.5219,9.0383,10.9252,9.0103z M4.75,12C4.3358,12,4,11.6642,4,11.25c0-0.4142,0.3358-0.75,0.75-0.75
		s0.75,0.3358,0.75,0.75C5.5,11.6642,5.1642,12,4.75,12z M5.0887,9L5.417,7l4.1582-0.0068L9.9098,9H5.0887z M10.25,12
		c-0.4142,0-0.75-0.3358-0.75-0.75c0-0.4142,0.3358-0.75,0.75-0.75S11,10.8358,11,11.25C11,11.6642,10.6642,12,10.25,12z"/>
	<path d="M12,2H5.7889C5.4029,1.1177,4.5247,0.5,3.5,0.5S1.5971,1.1177,1.2111,2H3.5L4,3L3.5,4H1.2111
		C1.5972,4.8821,2.4754,5.5,3.5,5.5S5.4028,4.8821,5.7889,4H12c0.5527,0,1-0.4478,1-1S12.5527,2,12,2z"/>
</g>
</svg>
