<?xml version="1.0" encoding="UTF-8"?>
<svg version="1.1" id="car-11" xmlns="http://www.w3.org/2000/svg" width="11px" height="11px" viewBox="0 0 11 11">
  <path d="M9,4L8.11,1.34C8.0418,1.1381,7.8531,1.0016,7.64,1H3.36C3.1469,1.0016,2.9582,1.1381,2.89,1.34L2,4C1.4477,4,1,4.4477,1,5&#xA;&#x9;v3h1v1c0,0.5523,0.4477,1,1,1s1-0.4477,1-1V8h3v1c0,0.5523,0.4477,1,1,1s1-0.4477,1-1V8h1V5C10,4.4477,9.5523,4,9,4z M3,7&#xA;&#x9;C2.4477,7,2,6.5523,2,6s0.4477-1,1-1s1,0.4477,1,1S3.5523,7,3,7z M3,4l0.62-2h3.76L8,4H3z M8,7C7.4477,7,7,6.5523,7,6s0.4477-1,1-1&#xA;&#x9;s1,0.4477,1,1S8.5523,7,8,7z"/>
</svg>