<?xml version="1.0" encoding="utf-8"?>
<!-- Generator: Adobe Illustrator 22.1.0, SVG Export Plug-In . SVG Version: 6.00 Build 0)  -->
<svg version="1.1" id="start_here" xmlns="http://www.w3.org/2000/svg" xmlns:xlink="http://www.w3.org/1999/xlink" x="0px" y="0px"
	 width="11px" height="11px" viewBox="0 0 11 11" style="enable-background:new 0 0 11 11;" xml:space="preserve">
<g>
	<path d="M9.5,1.75H4.3517C4.0547,1.0176,3.3389,0.5,2.5,0.5c-0.7384,0-1.3762,0.4047-1.7226,1H2.5l0.5,1l-0.5,1H0.7774
		c0.3464,0.5953,0.9842,1,1.7226,1c0.8389,0,1.5547-0.5176,1.8517-1.25H9.5c0.4141,0,0.75-0.3359,0.75-0.75S9.9141,1.75,9.5,1.75z"
		/>
	<path d="M9.0252,7H8.84L8.5615,5.3301C8.4824,4.8491,8.0713,4.5,7.583,4.5H3.417c-0.4883,0-0.8994,0.3491-0.9785,0.8291L2.1599,7
		H1.981C1.4391,7,1,7.4391,1,7.9809V10h1c0,0.5522,0.4477,1,1,1s1-0.4478,1-1h3c0,0.5522,0.4477,1,1,1s1-0.4478,1-1h1V7.9748
		C10,7.4364,9.5635,7,9.0252,7z M3.25,9.5C2.8358,9.5,2.5,9.1642,2.5,8.75C2.5,8.3358,2.8358,8,3.25,8S4,8.3358,4,8.75
		C4,9.1642,3.6642,9.5,3.25,9.5z M3.1708,7L3.417,5.5l4.1582-0.0068L7.8264,7H3.1708z M7.75,9.5C7.3358,9.5,7,9.1642,7,8.75
		C7,8.3358,7.3358,8,7.75,8S8.5,8.3358,8.5,8.75C8.5,9.1642,8.1642,9.5,7.75,9.5z"/>
</g>
</svg>
