<?xml version="1.0" encoding="utf-8"?>
<!-- Generator: Adobe Illustrator 22.1.0, SVG Export Plug-In . SVG Version: 6.00 Build 0)  -->
<svg version="1.1" id="start_here" xmlns="http://www.w3.org/2000/svg" xmlns:xlink="http://www.w3.org/1999/xlink" x="0px" y="0px"
	 width="11px" height="11px" viewBox="0 0 11 11" style="enable-background:new 0 0 11 11;" xml:space="preserve">
<g>
	<path d="M9.0252,7H8.84L8.5615,5.3301C8.4824,4.8491,8.0713,4.5,7.583,4.5H3.417c-0.4883,0-0.8994,0.3491-0.9785,0.8291L2.1599,7
		H1.981C1.4391,7,1,7.4391,1,7.9809V10h1c0,0.5522,0.4477,1,1,1s1-0.4478,1-1h3c0,0.5522,0.4477,1,1,1s1-0.4478,1-1h1V7.9748
		C10,7.4364,9.5635,7,9.0252,7z M3.25,9C2.8358,9,2.5,8.6642,2.5,8.25c0-0.4142,0.3358-0.75,0.75-0.75S4,7.8358,4,8.25
		C4,8.6642,3.6642,9,3.25,9z M3.1708,7L3.417,5.5l4.1582-0.0068L7.8264,7H3.1708z M7.75,9C7.3358,9,7,8.6642,7,8.25
		C7,7.8358,7.3358,7.5,7.75,7.5S8.5,7.8358,8.5,8.25C8.5,8.6642,8.1642,9,7.75,9z"/>
	<path d="M9.4969,0H7.9973C7.4465,0,7,0.4465,7,0.9972V1H2.5l-1,1l1,1l1-1l1,1l1-1l1,1h0.5008C7.0031,3.5526,7.4509,4,8.004,4
		h1.4938C9.7751,4,10,3.7751,10,3.4977V0.5031C10,0.2252,9.7748,0,9.4969,0z M9,2.5C9,2.7761,8.7761,3,8.5,3S8,2.7761,8,2.5v-1
		C8,1.2238,8.2239,1,8.5,1S9,1.2238,9,1.5V2.5z"/>
</g>
</svg>
