<?xml version="1.0" encoding="UTF-8"?>
<svg xmlns="http://www.w3.org/2000/svg" id="car" width="15" height="15" viewBox="0 0 15 15">
  <path d="M13.8,6.8a1,1,0,0,0-.4-.5l-.8-.6L11.5,3.5a1.05,1.05,0,0,0-.9-.5H4.4a1.05,1.05,0,0,0-.9.5L2.4,5.7l-.8.6a1,1,0,0,0-.4.5L1,7.5v4a.458.458,0,0,0,.4.5H3.5a.457.457,0,0,0,.5-.4V11h7v.5a.457.457,0,0,0,.4.5h2.1a.457.457,0,0,0,.5-.4V7.5ZM4.4,4h6.2l1,2H3.4ZM5,8.6a.457.457,0,0,1-.5.4H2.4A.456.456,0,0,1,2,8.5V7.4c.1-.3.3-.5.6-.4l2,.4c.2,0,.4.3.4.5Zm8-.1a.456.456,0,0,1-.4.5H10.5a.456.456,0,0,1-.5-.4V7.9c0-.2.2-.5.4-.5l2-.4c.3-.1.5.1.6.4Z"/>
</svg>