<?xml version="1.0" encoding="UTF-8"?>
<svg xmlns="http://www.w3.org/2000/svg" id="car" width="15" height="15" viewBox="0 0 15 15">
  <path d="M13.8,6.9l-1.2-1.2l-1.1-2.2C11.3,3.2,11,3,10.6,3H4.4C4,3,3.7,3.2,3.5,3.5L2.4,5.7L1.2,6.9C1.1,6.9,1,7.1,1,7.2v4.3&#xA;&#x9;C1,11.8,1.2,12,1.5,12h2C3.7,12,4,11.8,4,11.6V11h7v0.5c0,0.2,0.2,0.5,0.4,0.5h2.1c0.3,0,0.5-0.2,0.5-0.5V7.2&#xA;&#x9;C14,7.1,13.9,6.9,13.8,6.9z M4.5,4h6l1,2h-8L4.5,4z M5,8.6C5,8.8,4.7,9,4.5,9H2.4C2.2,9,2,8.7,2,8.5V7.4C2.1,7.1,2.3,6.9,2.6,7&#xA;&#x9;l2,0.4C4.8,7.4,5,7.7,5,7.9V8.6z M13,8.5C13,8.7,12.8,9,12.6,9h-2.1C10.3,9,10,8.8,10,8.6V7.9c0-0.2,0.2-0.5,0.4-0.5l2-0.4&#xA;&#x9;c0.3-0.1,0.5,0.1,0.6,0.4V8.5z"/>
</svg>