<?xml version="1.0" encoding="utf-8"?>
<!-- Generator: Adobe Illustrator 22.1.0, SVG Export Plug-In . SVG Version: 6.00 Build 0)  -->
<svg version="1.1" id="start_here" xmlns="http://www.w3.org/2000/svg" xmlns:xlink="http://www.w3.org/1999/xlink" x="0px" y="0px"
	 width="11px" height="11px" viewBox="0 0 11 11" style="enable-background:new 0 0 11 11;" xml:space="preserve">
<path d="M6.1364,6.85C6.4266,7.2446,6.8886,7.5,7.4091,7.5C8.2877,7.5,9,6.7725,9,5.875c0-0.3667-0.1234-0.7014-0.324-0.9733
	L8.6818,4.9L5.5,1L2.3182,4.9L2.324,4.9017C2.1234,5.1736,2,5.5083,2,5.875C2,6.7725,2.7123,7.5,3.5909,7.5
	c0.5205,0,0.9825-0.2554,1.2728-0.65C4.918,6.776,5.0147,6.6443,5.125,6.4942V8.5c0,0.5-1.75,0.75-1.75,0.75
	C3.1679,9.25,3,9.4179,3,9.625S3.1679,10,3.375,10h1.75h0.75h1.75C7.8321,10,8,9.8321,8,9.625S7.8321,9.25,7.625,9.25
	c0,0-1.75-0.25-1.75-0.75V6.4942C5.9853,6.6443,6.082,6.776,6.1364,6.85z"/>
</svg>
