<svg id="Layer_1" data-name="Layer 1" xmlns="http://www.w3.org/2000/svg" width="11" height="11" viewBox="0 0 11 11">
  <title>castle-11</title>
  <path d="M8.67,0.81V2.29A0.69,0.69,0,0,1,8,3H3.09a0.69,0.69,0,0,1-.7-0.7V0.81a0.34,0.34,0,1,1,.69,0V1.5H4V1H4A0.5,0.5,0,0,1,5,1H5V1.5H6V1H6A0.5,0.5,0,0,1,7,1H7V1.5H8V0.81A0.34,0.34,0,1,1,8.67.81Zm1.39,8.82a0.35,0.35,0,0,1-.35.35H1.35a0.35,0.35,0,0,1,0-.7H1.7a0.68,0.68,0,0,0,.7-0.7s0.7-3.2.7-3.89A0.68,0.68,0,0,1,3.79,4H7.27a0.68,0.68,0,0,1,.7.7c0,0.7.7,3.89,0.7,3.89a0.68,0.68,0,0,0,.7.7H9.71A0.35,0.35,0,0,1,10.06,9.64ZM6.5,7.5a1,1,0,0,0-2,0v2h2v-2Z"/>
</svg>
