<?xml version="1.0" encoding="utf-8"?>
<!-- Generator: Adobe Illustrator 17.1.0, SVG Export Plug-In . SVG Version: 6.00 Build 0)  -->
<!DOCTYPE svg PUBLIC "-//W3C//DTD SVG 1.1//EN" "http://www.w3.org/Graphics/SVG/1.1/DTD/svg11.dtd">
<svg version="1.1" id="Layer_1" xmlns="http://www.w3.org/2000/svg" xmlns:xlink="http://www.w3.org/1999/xlink" x="0px" y="0px"
	 width="11px" height="11px" viewBox="0 0 11 11" enable-background="new 0 0 11 11" xml:space="preserve">
<path d="M9.5,10H8.8L8.1,4.4C8,4.2,7.8,4,7.6,4H3.4C3.2,4,3,4.2,2.9,4.4L2.2,10H1.5C1.2,10,1,10.2,1,10.5C1,10.8,1.2,11,1.5,11h8
	c0.3,0,0.5-0.2,0.5-0.5C10,10.2,9.8,10,9.5,10z M6,10H5V7.7C5,7.3,5.2,7,5.5,7h0C5.8,7,6,7.3,6,7.7V10z M9,0.5v2C9,2.8,8.8,3,8.5,3
	h-6C2.2,3,2,2.8,2,2.5v-2C2,0.2,2.2,0,2.5,0S3,0.2,3,0.5V1h1V0.5C4,0.2,4.2,0,4.5,0S5,0.2,5,0.5V1h1V0.5C6,0.2,6.2,0,6.5,0
	S7,0.2,7,0.5V1h1V0.5C8,0.2,8.2,0,8.5,0S9,0.2,9,0.5z"/>
</svg>
