<svg id="Layer_1" data-name="Layer 1" xmlns="http://www.w3.org/2000/svg" width="15" height="15" viewBox="0 0 15 15">
  <title>castle-15</title>
  <path d="M11,4H4A1,1,0,0,1,3,3V0.5a0.49,0.49,0,0,1,1,0V2H5V1A1,1,0,0,1,7,1V2H8V1a1,1,0,0,1,2,0V2h1V0.5a0.49,0.49,0,0,1,1,0V3A1,1,0,0,1,11,4Zm3,10.5a0.5,0.5,0,0,1-.5.5H1.5a0.5,0.5,0,0,1,0-1H2a1,1,0,0,0,1-1S4,7,4,6A1,1,0,0,1,5,5h5a1,1,0,0,1,1,1c0,1,1,7,1,7a1,1,0,0,0,1,1h0.5A0.5,0.5,0,0,1,14,14.49Zm-5-4a1.5,1.5,0,0,0-3,0V14H9V10.5Z" fill="#010101"/>
</svg>
