<?xml version="1.0" encoding="UTF-8"?>
<svg xmlns="http://www.w3.org/2000/svg" id="caution" width="15" height="15" viewBox="0 0 15 15">
  <path d="M6.5,0.6c0.2-0.5,0.9-0.8,1.4-0.5c0.2,0.1,0.4,0.3,0.5,0.5l3.2,6.2l3.2,6.2c0.3,0.6,0.1,1.4-0.5,1.7&#xA;&#x9;c-0.2,0.1-0.3,0.1-0.5,0.2H1.1c-0.7-0.1-1.2-0.7-1.1-1.4c0-0.2,0.1-0.3,0.2-0.5l3.2-6.2L6.5,0.6z M9,5.5C9,5.2,8.8,5,8.5,5h-2&#xA;&#x9;C6.2,5,6,5.2,6,5.5l0.5,3.4h2L9,5.5z M9,11.5C9,10.7,8.4,10,7.5,10S6,10.7,6,11.5S6.7,13,7.5,13S9,12.4,9,11.5z"/>
</svg>