<?xml version="1.0" encoding="UTF-8" standalone="no"?>
<!-- Generator: Adobe Illustrator 19.2.1, SVG Export Plug-In . SVG Version: 6.00 Build 0)  -->

<svg
   xmlns:dc="http://purl.org/dc/elements/1.1/"
   xmlns:cc="http://creativecommons.org/ns#"
   xmlns:rdf="http://www.w3.org/1999/02/22-rdf-syntax-ns#"
   xmlns:svg="http://www.w3.org/2000/svg"
   xmlns="http://www.w3.org/2000/svg"
   xmlns:sodipodi="http://sodipodi.sourceforge.net/DTD/sodipodi-0.dtd"
   xmlns:inkscape="http://www.inkscape.org/namespaces/inkscape"
   version="1.1"
   id="Layer_1"
   x="0px"
   y="0px"
   width="15px"
   height="15px"
   viewBox="0 0 15 15"
   style="enable-background:new 0 0 15 15;"
   xml:space="preserve"
   inkscape:version="0.91 r13725"
   sodipodi:docname="cave-15.svg"><metadata
     id="metadata9"><rdf:RDF><cc:Work
         rdf:about=""><dc:format>image/svg+xml</dc:format><dc:type
           rdf:resource="http://purl.org/dc/dcmitype/StillImage" /><dc:title /></cc:Work></rdf:RDF></metadata><defs
     id="defs7" /><sodipodi:namedview
     pagecolor="#ffffff"
     bordercolor="#666666"
     borderopacity="1"
     objecttolerance="10"
     gridtolerance="10"
     guidetolerance="10"
     inkscape:pageopacity="0"
     inkscape:pageshadow="2"
     inkscape:window-width="1920"
     inkscape:window-height="1027"
     id="namedview5"
     showgrid="true"
     inkscape:zoom="44.500586"
     inkscape:cx="5.2827328"
     inkscape:cy="6.8298252"
     inkscape:window-x="-8"
     inkscape:window-y="-8"
     inkscape:window-maximized="1"
     inkscape:current-layer="Layer_1"
     inkscape:snap-bbox="true"
     inkscape:snap-smooth-nodes="true"
     inkscape:bbox-paths="true"
     inkscape:bbox-nodes="true"
     inkscape:snap-bbox-edge-midpoints="true"
     inkscape:snap-bbox-midpoints="true"
     inkscape:object-paths="true"
     inkscape:snap-intersection-paths="true"
     inkscape:object-nodes="true"
     inkscape:snap-midpoints="true"><inkscape:grid
       type="xygrid"
       id="grid4137"
       empspacing="1" /></sodipodi:namedview><g
     id="g4265"
     style="stroke-linecap:butt"
     transform="translate(0,-1039.3723)" /><path
     style="opacity:1;fill:#000000;fill-opacity:1;stroke:none;stroke-width:1;stroke-linecap:butt;stroke-linejoin:miter;stroke-miterlimit:4;stroke-dasharray:none;stroke-opacity:1"
     d="M 6,3 C 5.5937109,3 5.2714014,3.2725675 5,3.5515426 L 3.2325044,5.3232256 C 3,5.5235948 3.0038935,5.8766301 3,6 L 3,7 1.5420975,8.1320284 C 1.2716386,8.3559989 1,8.6313217 1,9 l 0,3 1,0 -0.00211,-3 c 4e-7,0 0.7557477,-0.5906403 1.3782937,-1.0772182 C 4,7.4441132 4,7.4515302 3.9995193,7.0019531 L 4,6 5.9894538,4 6.9873446,4 8.0232527,5.2633056 C 8.4019379,5.7267525 8.5570451,6 8.9831261,6 L 10.978908,6 11,7 c 0.0055,0.2620325 0.123554,0.38688 0.267583,0.5624226 C 11.499053,7.8896329 13,10 13,10 L 13.0021,12 14,12 13.999823,9.9863281 C 14,9.6725168 13.731924,9.290025 13.454738,9 L 12,7 12,5.5696836 C 11.994664,5.2973738 11.724005,4.9999748 11.452218,5 L 9,5 7.6993003,3.4213122 C 7.4690935,3 7.1099615,2.9999913 7,3 Z M 7.5,8 C 7,8 6.2949557,8.15633 5.7399811,8.5234375 4.6596885,9.2377523 3.9940499,10.557698 3.9936722,11.986328 l 3.4926178,0 3.492618,0 C 10.97853,10.557698 10.312892,9.2377522 9.2325988,8.5234375 8.7257067,8.1881246 8,8 7.5,8 Z"
     id="path4142"
     inkscape:connector-curvature="0"
     sodipodi:nodetypes="ccccccccccccccccccscccccccccccccccccccc" /><path
     style="opacity:1;fill:none;fill-opacity:1;stroke:none;stroke-width:1;stroke-linecap:round;stroke-linejoin:round;stroke-miterlimit:4.19999981;stroke-dasharray:none;stroke-opacity:1"
     d="m 0.5,-0.01011738 15,0 0,15.00000038 -15,0 z"
     id="rect4137-6" /></svg>