<?xml version="1.0" encoding="UTF-8" standalone="no"?>
<!-- Generator: Adobe Illustrator 19.2.1, SVG Export Plug-In . SVG Version: 6.00 Build 0)  -->

<svg
   xmlns:dc="http://purl.org/dc/elements/1.1/"
   xmlns:cc="http://creativecommons.org/ns#"
   xmlns:rdf="http://www.w3.org/1999/02/22-rdf-syntax-ns#"
   xmlns:svg="http://www.w3.org/2000/svg"
   xmlns="http://www.w3.org/2000/svg"
   xmlns:sodipodi="http://sodipodi.sourceforge.net/DTD/sodipodi-0.dtd"
   xmlns:inkscape="http://www.inkscape.org/namespaces/inkscape"
   version="1.1"
   id="Layer_1"
   x="0px"
   y="0px"
   width="15px"
   height="15px"
   viewBox="0 0 15 15"
   style="enable-background:new 0 0 15 15;"
   xml:space="preserve"
   inkscape:version="0.91 r13725"
   sodipodi:docname="cave-15.svg"><metadata
     id="metadata9"><rdf:RDF><cc:Work
         rdf:about=""><dc:format>image/svg+xml</dc:format><dc:type
           rdf:resource="http://purl.org/dc/dcmitype/StillImage" /><dc:title></dc:title></cc:Work></rdf:RDF></metadata><defs
     id="defs7" /><sodipodi:namedview
     pagecolor="#ffffff"
     bordercolor="#666666"
     borderopacity="1"
     objecttolerance="10"
     gridtolerance="10"
     guidetolerance="10"
     inkscape:pageopacity="0"
     inkscape:pageshadow="2"
     inkscape:window-width="1280"
     inkscape:window-height="666"
     id="namedview5"
     showgrid="true"
     inkscape:zoom="15.733333"
     inkscape:cx="11.350513"
     inkscape:cy="9.5646267"
     inkscape:window-x="-8"
     inkscape:window-y="-8"
     inkscape:window-maximized="1"
     inkscape:current-layer="Layer_1"
     inkscape:snap-bbox="true"
     inkscape:snap-smooth-nodes="true"
     inkscape:bbox-paths="true"
     inkscape:bbox-nodes="true"
     inkscape:snap-bbox-edge-midpoints="true"
     inkscape:snap-bbox-midpoints="true"
     inkscape:object-paths="true"
     inkscape:snap-intersection-paths="true"
     inkscape:object-nodes="true"
     inkscape:snap-midpoints="true"><inkscape:grid
       type="xygrid"
       id="grid4137"
       empspacing="1" /></sodipodi:namedview><g
     id="g4265"
     style="stroke-linecap:butt"
     transform="translate(0,-1039.3723)" /><path
     style="opacity:1;fill:#000000;fill-opacity:1;stroke:none;stroke-width:1;stroke-linecap:butt;stroke-linejoin:miter;stroke-miterlimit:4;stroke-dasharray:none;stroke-opacity:1"
     d="M 5.7851562 3 C 5.6487064 2.9999799 5.5181746 3.0557205 5.4238281 3.1542969 L 3.1894531 5.1484375 C 3.1040754 5.2375779 3.0546829 5.3551457 3.0507812 5.4785156 L 3.0117188 6.7734375 L 1.1464844 8.4394531 C 1.0527163 8.533209 1.0000255 8.6603692 1 8.7929688 L 1 11.492188 C 0.990438 12.168347 2.0095616 12.168347 2 11.492188 L 2 9 L 3.859375 7.3398438 C 3.9494103 7.2499501 4.0017945 7.1291172 4.0058594 7.0019531 L 4.0449219 5.6992188 L 6 4 L 7 4 L 8.6972656 5.8984375 C 8.7843656 5.9644672 8.8907008 6.000141 9 6 L 11 6 L 11.005859 6.9980469 C 11.007959 7.0942899 11.037807 7.1878796 11.091797 7.2675781 L 13.027344 10.140625 L 13.027344 11.492188 C 13.017744 12.168349 14.036906 12.168349 14.027344 11.492188 L 14.027344 9.9863281 C 14.027721 9.8869511 13.998489 9.7897159 13.943359 9.7070312 L 12.001953 6.8300781 L 11.990234 5.4902344 C 11.984887 5.2179246 11.762596 4.9999748 11.490234 5 L 9.1699219 5 L 7.4746094 3.1035156 C 7.3872268 3.0363815 7.2801158 2.9999913 7.1699219 3 L 5.7851562 3 z M 7.5820312 7.9882812 A 3.5 3.9999998 0 0 0 5.75 8.5234375 A 3.5 3.9999998 0 0 0 4 11.986328 L 7.5 11.986328 L 11 11.986328 A 3.5 3.9999998 0 0 0 9.25 8.5234375 A 3.5 3.9999998 0 0 0 7.5820312 7.9882812 z "
     id="path4142" /><path
     style="opacity:1;fill:none;fill-opacity:1;stroke:none;stroke-width:1;stroke-linecap:round;stroke-linejoin:round;stroke-miterlimit:4.19999981;stroke-dasharray:none;stroke-opacity:1"
     d="m 0.5,-0.01011738 15,0 0,15.00000038 -15,0 z"
     id="rect4137-6" /></svg>