<?xml version="1.0" encoding="UTF-8" standalone="no"?>
<!-- Generator: Adobe Illustrator 19.2.1, SVG Export Plug-In . SVG Version: 6.00 Build 0)  -->

<svg
   xmlns:dc="http://purl.org/dc/elements/1.1/"
   xmlns:cc="http://creativecommons.org/ns#"
   xmlns:rdf="http://www.w3.org/1999/02/22-rdf-syntax-ns#"
   xmlns:svg="http://www.w3.org/2000/svg"
   xmlns="http://www.w3.org/2000/svg"
   xmlns:sodipodi="http://sodipodi.sourceforge.net/DTD/sodipodi-0.dtd"
   xmlns:inkscape="http://www.inkscape.org/namespaces/inkscape"
   version="1.1"
   id="Layer_1"
   x="0px"
   y="0px"
   width="11"
   height="11"
   viewBox="0 0 11 11"
   xml:space="preserve"
   inkscape:version="0.91 r13725"
   sodipodi:docname="cave-11.svg"><metadata
     id="metadata9"><rdf:RDF><cc:Work
         rdf:about=""><dc:format>image/svg+xml</dc:format><dc:type
           rdf:resource="http://purl.org/dc/dcmitype/StillImage" /><dc:title></dc:title></cc:Work></rdf:RDF></metadata><defs
     id="defs7" /><sodipodi:namedview
     pagecolor="#ffffff"
     bordercolor="#666666"
     borderopacity="1"
     objecttolerance="10"
     gridtolerance="10"
     guidetolerance="10"
     inkscape:pageopacity="0"
     inkscape:pageshadow="2"
     inkscape:window-width="1920"
     inkscape:window-height="1027"
     id="namedview5"
     showgrid="true"
     inkscape:zoom="128"
     inkscape:cx="5.0872618"
     inkscape:cy="4.9920728"
     inkscape:window-x="-8"
     inkscape:window-y="-8"
     inkscape:window-maximized="1"
     inkscape:current-layer="Layer_1"
     inkscape:snap-bbox="true"
     inkscape:snap-smooth-nodes="true"
     inkscape:bbox-paths="true"
     inkscape:bbox-nodes="true"
     inkscape:snap-bbox-edge-midpoints="true"
     inkscape:snap-bbox-midpoints="true"
     inkscape:object-paths="true"
     inkscape:snap-intersection-paths="true"
     inkscape:object-nodes="true"
     inkscape:snap-midpoints="true"
     inkscape:snap-global="true"><inkscape:grid
       type="xygrid"
       id="grid4137"
       empspacing="1" /></sodipodi:namedview><path
     style="color:#000000;font-style:normal;font-variant:normal;font-weight:normal;font-stretch:normal;font-size:medium;line-height:normal;font-family:sans-serif;text-indent:0;text-align:start;text-decoration:none;text-decoration-line:none;text-decoration-style:solid;text-decoration-color:#000000;letter-spacing:normal;word-spacing:normal;text-transform:none;direction:ltr;block-progression:tb;writing-mode:lr-tb;baseline-shift:baseline;text-anchor:start;white-space:normal;clip-rule:nonzero;display:inline;overflow:visible;visibility:visible;opacity:1;isolation:auto;mix-blend-mode:normal;color-interpolation:sRGB;color-interpolation-filters:linearRGB;solid-color:#000000;solid-opacity:1;fill:#000000;fill-opacity:1;fill-rule:evenodd;stroke:none;stroke-width:1px;stroke-linecap:round;stroke-linejoin:round;stroke-miterlimit:4;stroke-dasharray:none;stroke-dashoffset:0;stroke-opacity:1;color-rendering:auto;image-rendering:auto;shape-rendering:auto;text-rendering:auto;enable-background:accumulate"
     d="M 4.5,1.9921875 C 4.3674005,1.992213 4.2402403,2.0449035 4.1464844,2.1386719 l -1,1 C 3.0527163,3.2324278 3.0000255,3.359588 3,3.4921875 l 0,0.9472656 -1.8535157,2 C 1.0527163,6.533209 1.0000255,6.6603692 1,6.7929687 L 1,8.4921875 1,9 2,9 2,8 2,7 3.8756127,5 C 3.9693808,4.9062441 4.0220716,4.7790839 4.0220971,4.6464844 L 4,3.6992188 4.7070312,2.9921875 5.7929688,3 6.6464844,3.8535156 C 6.7402403,3.9472837 6.8674005,3.9999745 7,4 l 1,-0.00781 0,1.125 c 1.328e-4,0.077297 0.018183,0.1535108 0.052734,0.2226563 L 9,7.234375 9,8 9,8.4921875 9,9 9.5,9 10,9 10,8.4921875 10,8 10,7.1171875 C 9.9998671,7.0398893 9.9818164,6.9636767 9.9472656,6.8945312 L 9,5 9,3.4921875 c -2.76e-5,-0.2761309 -0.2238691,-0.4999724 -0.5,-0.5 L 7.2070312,3 6.3535156,2.1464844 C 6.2597597,2.0527163 6.1325995,2.0000255 6,2 Z M 5.5585938,6 C 5.099893,5.9874756 4.6471664,6.1266722 4.25,6.4023438 3.4766056,6.9381672 3.000125,7.9283533 3,9 L 5.5,9 8,9 C 7.999875,7.9283533 7.5233944,6.9381672 6.75,6.4023438 6.3872446,6.1505175 5.9775544,6.0121631 5.5585938,6 Z"
     id="path8218"
     inkscape:connector-curvature="0"
     sodipodi:nodetypes="cccccccccccccccccccccccccccccccccccccccccccccc" /></svg>