<?xml version="1.0" encoding="utf-8"?>
<!-- Generator: Adobe Illustrator 19.2.1, SVG Export Plug-In . SVG Version: 6.00 Build 0)  -->
<!DOCTYPE svg PUBLIC "-//W3C//DTD SVG 1.1//EN" "http://www.w3.org/Graphics/SVG/1.1/DTD/svg11.dtd">
<svg version="1.1" id="Layer_1" xmlns="http://www.w3.org/2000/svg" xmlns:xlink="http://www.w3.org/1999/xlink" x="0px" y="0px"
	 width="11px" height="11px" viewBox="0 0 11 11" style="enable-background:new 0 0 11 11;" xml:space="preserve">
<path d="M8.65,8H8l0,0l1-5.61c0.0167-0.1981-0.1304-0.3722-0.3286-0.3889C8.6577,1.9999,8.6438,1.9996,8.63,2H7.16
	c0-0.65-0.7-1-1.67-1S3.66,1.35,3.66,2H2.35C2.1512,2.0048,1.994,2.1699,1.9988,2.3686C1.999,2.3758,1.9994,2.3829,2,2.39L3,8l0,0
	H2.35C2.1567,7.9999,1.9999,8.1566,1.9999,8.3499c0,0.0034,0,0.0068,0.0001,0.0101V10h7V8.36
	c0.0055-0.1932-0.1466-0.3543-0.3399-0.3599C8.6568,8,8.6534,8,8.65,8z M7,5H4V4h3V5z"/>
</svg>
