<svg id="Layer_1" data-name="Layer 1" xmlns="http://www.w3.org/2000/svg" width="15" height="15" viewBox="0 0 15 15">
  <title>charging-station-15</title>
  <g id="Layer_12" data-name="Layer 12">
    <path d="M13,4V2.49A.5.5,0,0,0,12.5,2a.51.51,0,0,0-.5.518V5a1,1,0,0,0,1,1v5.5a.5.5,0,0,1-1,0v-2A1.5,1.5,0,0,0,10.5,8H9V2A1,1,0,0,0,8,1H2A1,1,0,0,0,1,2V13a1,1,0,0,0,1,1H8a1,1,0,0,0,1-1V9h1.5a.5.5,0,0,1,.5.5v2a1.5,1.5,0,0,0,3,0V5A1,1,0,0,0,13,4ZM3.648,12.334,4.5,8.5H2.856a.25.25,0,0,1-.235-.335l1.818-5A.25.25,0,0,1,4.675,3H6.6a.25.25,0,0,1,.223.361L5,7H7.5a.25.25,0,0,1,.2.4L4.658,12.724A.547.547,0,0,1,4.182,13h0A.547.547,0,0,1,3.648,12.334Z"/>
  </g>
</svg>
