<?xml version="1.0" encoding="utf-8"?>
<!-- Generator: Adobe Illustrator 22.1.0, SVG Export Plug-In . SVG Version: 6.00 Build 0)  -->
<svg version="1.1" id="start_here" xmlns="http://www.w3.org/2000/svg" xmlns:xlink="http://www.w3.org/1999/xlink" x="0px" y="0px"
	 width="11px" height="11px" viewBox="0 0 11 11" enable-background="new 0 0 11 11" xml:space="preserve">
<path d="M9.5,3H9V1.5C9,1.2239,8.7761,1,8.5,1S8,1.2239,8,1.5V3c0,0.5523,0.4477,1,1,1v4.25C9,8.3881,8.8881,8.5,8.75,8.5
	S8.5,8.3881,8.5,8.25V6.5C8.5,5.6716,7.8284,5,7,5V2c0-0.5523-0.4477-1-1-1H2C1.4477,1,1,1.4477,1,2v7c0,0.5523,0.4477,1,1,1h4
	c0.5523,0,1-0.4477,1-1V6c0.2761,0,0.5,0.2239,0.5,0.5v1.75c0,0.6904,0.5596,1.25,1.25,1.25S10,8.9404,10,8.25V3.5
	C10,3.2239,9.7761,3,9.5,3z M3.5,8.75H3L4,6H1.75L4.5,2.25H5L4,5h2.25L3.5,8.75z"/>
</svg>
