<?xml version="1.0" encoding="UTF-8"?>
<svg id="charging-station" height="15" viewBox="0 0 15 15" width="15" xmlns="http://www.w3.org/2000/svg">
  <path d="M2.64585 7.80112L7.75248 0.837532C7.90807 0.625354 8.15545 0.5 8.41856 0.5C8.9632 0.5 9.35876 1.01788 9.21546 1.54333L8.08612 5.68422C8.04275 5.84326 8.16247 6 8.32731 6H11.7466C12.1627 6 12.5 6.3373 12.5 6.75337C12.5 6.91361 12.4489 7.06967 12.3542 7.19888L7.24752 14.1625C7.09193 14.3746 6.84455 14.5 6.58144 14.5C6.0368 14.5 5.64124 13.9821 5.78454 13.4567L6.91388 9.31578C6.95725 9.15674 6.83753 9 6.67269 9H3.25337C2.83729 9 2.5 8.66271 2.5 8.24663C2.5 8.08639 2.55109 7.93033 2.64585 7.80112Z"/>
</svg>