<?xml version="1.0" encoding="UTF-8" standalone="no"?>
<!-- Created with Inkscape (http://www.inkscape.org/) -->

<svg
   xmlns:dc="http://purl.org/dc/elements/1.1/"
   xmlns:cc="http://creativecommons.org/ns#"
   xmlns:rdf="http://www.w3.org/1999/02/22-rdf-syntax-ns#"
   xmlns:svg="http://www.w3.org/2000/svg"
   xmlns="http://www.w3.org/2000/svg"
   xmlns:sodipodi="http://sodipodi.sourceforge.net/DTD/sodipodi-0.dtd"
   xmlns:inkscape="http://www.inkscape.org/namespaces/inkscape"
   version="1.1"
   width="11"
   height="11"
   id="svg4764"
   inkscape:version="0.91+devel+osxmenu r12911"
   sodipodi:docname="cinema-11.svg"
   viewBox="0 0 11 11">
  <sodipodi:namedview
     pagecolor="#ffffff"
     bordercolor="#666666"
     borderopacity="1"
     objecttolerance="10"
     gridtolerance="10"
     guidetolerance="10"
     inkscape:pageopacity="0"
     inkscape:pageshadow="2"
     inkscape:window-width="846"
     inkscape:window-height="734"
     id="namedview3353"
     inkscape:document-units="px"
     showgrid="false"
     inkscape:zoom="8"
     inkscape:cx="34.486951"
     inkscape:cy="3.9919081"
     inkscape:current-layer="svg4764"
     inkscape:snap-bbox="true"
     inkscape:bbox-paths="true"
     inkscape:bbox-nodes="true"
     inkscape:snap-bbox-midpoints="true"
     inkscape:snap-bbox-edge-midpoints="true"
     inkscape:object-paths="true"
     inkscape:snap-intersection-paths="true"
     inkscape:object-nodes="true"
     inkscape:snap-smooth-nodes="true"
     inkscape:window-x="0"
     inkscape:window-y="0"
     inkscape:window-maximized="0">
    <inkscape:grid
       type="xygrid"
       id="grid3333"
       spacingx="0.5"
       spacingy="0.5"
       color="#ff0000"
       opacity="0.1254902"
       empspacing="2" />
  </sodipodi:namedview>
  <defs
     id="defs4766" />
  <metadata
     id="metadata4769">
    <rdf:RDF>
      <cc:Work
         rdf:about="">
        <dc:format>image/svg+xml</dc:format>
        <dc:type
           rdf:resource="http://purl.org/dc/dcmitype/StillImage" />
        <dc:title></dc:title>
      </cc:Work>
    </rdf:RDF>
  </metadata>
  <path
     style="opacity:1;fill:#000000;fill-opacity:1;stroke:none;stroke-width:0.99999994;stroke-linecap:round;stroke-linejoin:round;stroke-miterlimit:4;stroke-dasharray:none;stroke-dashoffset:0;stroke-opacity:1;marker:none"
     d="M 3 1 C 1.8954305 1 1 1.8954305 1 3 C 1 4.1045695 1.8954305 5 3 5 C 4.1045695 5 5 4.1045695 5 3 C 5 1.8954305 4.1045695 1 3 1 z M 5 3 C 5 4.1045695 5.8954305 5 7 5 C 8.1045695 5 9 4.1045695 9 3 C 9 1.8954305 8.1045695 1 7 1 C 5.8954305 1 5 1.8954305 5 3 z M 7 5 L 4.5 5 L 3 5 L 2 5 L 0.5 5 C 0.223 5 0 5.223 0 5.5 C 0 5.777 0.223 6 0.5 6 L 1 6 L 1 8 C 1 8.554 1.446 9 2 9 L 7 9 C 7.554 9 8 8.554 8 8 L 8 7 L 9.5 7.5 L 10 8 L 11 8 L 11 5 L 10 5 L 9.5 5.5 L 8 6 C 8 5.446 7.554 5 7 5 z M 3 2 C 3.5522847 2 4 2.4477153 4 3 C 4 3.5522847 3.5522847 4 3 4 C 2.4477153 4 2 3.5522847 2 3 C 2 2.4477153 2.4477153 2 3 2 z M 7 2 C 7.5522847 2 8 2.4477153 8 3 C 8 3.5522847 7.5522847 4 7 4 C 6.4477153 4 6 3.5522847 6 3 C 6 2.4477153 6.4477153 2 7 2 z "
     id="rect4952" />
</svg>
