<svg id="Layer_1" data-name="Layer 1" xmlns="http://www.w3.org/2000/svg" width="11" height="11" viewBox="0 0 11 11">
  <title>cinema-11</title>
  <path d="M9.61,4.74a0.37,0.37,0,0,0-.37.37h0l-1.5.37V5.11a0.37,0.37,0,0,0-.37-0.37H7.1A1.68,1.68,0,1,0,5,4.74H3.6a1.31,1.31,0,1,0-1.83,0H1.37A0.37,0.37,0,0,0,1,5.11v3a0.37,0.37,0,0,0,.37.37h6a0.37,0.37,0,0,0,.37-0.37V7l1.5,0.37a0.37,0.37,0,0,0,.75,0V5.12A0.37,0.37,0,0,0,9.61,4.74ZM6.05,2.5a0.94,0.94,0,1,1-.94.94A0.94,0.94,0,0,1,6.05,2.5Zm-3.37.75a0.56,0.56,0,1,1-.56.56A0.56,0.56,0,0,1,2.68,3.24Z"/>
</svg>
