<svg id="Layer_1" data-name="Layer 1" xmlns="http://www.w3.org/2000/svg" width="9" height="8" viewBox="0 0 9 8">
  <title>cinema-11</title>
  <path d="M2.5,2A1.5,1.5,0,1,0,4,3.5,1.5,1.5,0,0,0,2.5,2Zm0,2.5a1,1,0,1,1,1-1A1,1,0,0,1,2.5,4.5ZM6,1A2,2,0,1,0,8,3,2,2,0,0,0,6,1ZM6,4.5A1.5,1.5,0,1,1,7.5,3,1.5,1.5,0,0,1,6,4.5Zm4,1v2a0.5,0.5,0,0,1-1,0H9A0.66,0.66,0,0,0,8.49,7H8V8.63A0.37,0.37,0,0,1,7.63,9H1.37A0.37,0.37,0,0,1,1,8.63V5.37A0.37,0.37,0,0,1,1.37,5H7.63A0.37,0.37,0,0,1,8,5.37V6H8.49A0.66,0.66,0,0,0,9,5.5,0.5,0.5,0,0,1,10,5.5Z" transform="translate(-1 -1)"/>
</svg>
