<?xml version="1.0" encoding="utf-8"?>
<!-- Generator: Adobe Illustrator 19.2.1, SVG Export Plug-In . SVG Version: 6.00 Build 0)  -->
<!DOCTYPE svg PUBLIC "-//W3C//DTD SVG 1.1//EN" "http://www.w3.org/Graphics/SVG/1.1/DTD/svg11.dtd">
<svg version="1.1" id="Layer_1" xmlns="http://www.w3.org/2000/svg" xmlns:xlink="http://www.w3.org/1999/xlink" x="0px" y="0px"
	 width="15px" height="15px" viewBox="0 0 15 15" style="enable-background:new 0 0 15 15;" xml:space="preserve">
<title>cinema-15</title>
<path d="M13.5,7C13.2,7,13,7.2,13,7.5l0,0L11,8V7.5C11,7.2,10.8,7,10.5,7h-0.4c1-0.8,1.1-2.2,0.4-3.2c-0.8-1-2.2-1.1-3.2-0.4
	S6.2,5.7,7,6.6C7.1,6.8,7.2,6.9,7.3,7H5.5c0.7-0.7,0.7-1.8,0-2.5S3.7,3.8,3,4.5S2.3,6.3,3,7c0,0,0,0,0,0H2.5C2.2,7,2,7.2,2,7.5v4
	C2,11.8,2.2,12,2.5,12h8c0.3,0,0.5-0.2,0.5-0.5V10l2,0.5c0,0.3,0.2,0.5,0.5,0.5s0.5-0.2,0.5-0.5v-3C14,7.2,13.8,7,13.5,7z M8.8,4
	C9.4,4,10,4.6,10,5.2S9.4,6.5,8.8,6.5S7.5,5.9,7.5,5.2S8.1,4,8.8,4z M4.2,5C4.7,5,5,5.3,5,5.8S4.7,6.5,4.2,6.5S3.5,6.2,3.5,5.8
	S3.8,5,4.2,5z"/>
</svg>
