<svg id="Layer_1" data-name="Layer 1" xmlns="http://www.w3.org/2000/svg" width="12" height="9" viewBox="0 0 12 9">
  <title>cinema-15</title>
  <path d="M13.5,7a0.5,0.5,0,0,0-.5.5h0L11,8V7.5A0.5,0.5,0,0,0,10.5,7H10.15a2.25,2.25,0,1,0-2.8,0H5.47A1.75,1.75,0,1,0,3,7H2.5a0.5,0.5,0,0,0-.5.5v4a0.5,0.5,0,0,0,.5.5h8a0.5,0.5,0,0,0,.5-0.5V10l2,0.5a0.5,0.5,0,0,0,1,0v-3A0.5,0.5,0,0,0,13.5,7ZM8.75,4A1.25,1.25,0,1,1,7.5,5.25,1.25,1.25,0,0,1,8.75,4ZM4.25,5a0.75,0.75,0,1,1-.75.75A0.75,0.75,0,0,1,4.25,5Z" transform="translate(-2 -3)"/>
</svg>
