<svg id="Layer_1" data-name="Layer 1" xmlns="http://www.w3.org/2000/svg" width="15" height="15" viewBox="0 0 15 15">
  <title>cinema-15</title>
  <path d="M14,7.5v2a0.5,0.5,0,0,1-1,0S13.06,9,12,9H11v2.5a0.5,0.5,0,0,1-.5.5h-8A0.5,0.5,0,0,1,2,11.5v-4A0.5,0.5,0,0,1,2.5,7h8a0.5,0.5,0,0,1,.5.5V8h1c1.06,0,1-.5,1-0.5A0.5,0.5,0,0,1,14,7.5ZM8.5,7A2.5,2.5,0,1,1,11,4.5,2.5,2.5,0,0,1,8.5,7Zm2-2.5a2,2,0,1,0-2,2A2,2,0,0,0,10.5,4.5ZM4,7A2,2,0,1,1,6,5,2,2,0,0,1,4,7ZM5.5,5A1.5,1.5,0,1,0,4,6.5,1.5,1.5,0,0,0,5.5,5Z"/>
</svg>
