<svg xmlns="http://www.w3.org/2000/svg" width="11.0016" height="11.0016" viewBox="0 0 11.0016 11.0016">
  <title>city-11</title>
  <path d="M9.7514,3h-0.75V1.25A0.25,0.25,0,0,0,8.7513,1h-0.5a0.25,0.25,0,0,0-.25.25V3h-0.75a0.25,0.25,0,0,0-.25.25V7.001H5.2518a0.251,0.251,0,0,0-.251.251v2.5a0.251,0.251,0,0,0,.251.249H9.7524a0.25,0.25,0,0,0,.249-0.25V3.25A0.25,0.25,0,0,0,9.7514,3ZM6.0009,8.0012h1v1h-1v-1Zm3,1h-1v-1h1v1Zm0-2h-1v-1h1v1Zm0-2h-1v-1h1v1Zm-3-3.7505A0.25,0.25,0,0,0,5.7508,1H3.25A0.25,0.25,0,0,0,3,1.25V2H2.25A0.25,0.25,0,0,0,2,2.25V3H1.25A0.25,0.25,0,0,0,1,3.25V9.7514a0.25,0.25,0,0,0,.25.25h2.75V6.0009h2V1.25ZM3,9.0013H2v-1H3v1Zm0-2H2v-1H3v1Zm0-2H2v-1H3v1Zm2,0h-1v-1h1v1Zm0-2h-1V2h1V3Z"/>
</svg>
