<svg id="Layer_1" data-name="Layer 1" xmlns="http://www.w3.org/2000/svg" width="11" height="11" viewBox="0 0 11 11">
  <title>city-11</title>
  <path d="M9.75,3H9V1.25A.25.25,0,0,0,8.75,1h-.5A.25.25,0,0,0,8,1.25V3H7.25A.25.25,0,0,0,7,3.25V7H5.251A.251.251,0,0,0,5,7.251v2.5A.251.251,0,0,0,5.251,10h4.5A.25.25,0,0,0,10,9.75V3.25A.25.25,0,0,0,9.75,3ZM6,8H7V9H6ZM9,9H8V8H9ZM9,7H8V6H9ZM9,5H8V4H9ZM6,1.25A.25.25,0,0,0,5.75,1H3.25A.25.25,0,0,0,3,1.25V2H2.25A.25.25,0,0,0,2,2.25V3H1.25A.25.25,0,0,0,1,3.25v6.5a.25.25,0,0,0,.25.25H4V6H6ZM3,9H2V8H3ZM3,7H2V6H3ZM3,5H2V4H3ZM5,5H4V4H5ZM5,3H4V2H5Z"/>
</svg>
