<svg id="Layer_1" data-name="Layer 1" xmlns="http://www.w3.org/2000/svg" width="15" height="15" viewBox="0 0 15 15">
  <title>city-15</title>
  <g>
    <path d="M7.75,4H7V2.25A.25.25,0,0,0,6.75,2H3.25A.25.25,0,0,0,3,2.25V4H2.25A.25.25,0,0,0,2,4.25v8.5a.25.25,0,0,0,.25.25h5.5A.25.25,0,0,0,8,12.75V4.25A.25.25,0,0,0,7.75,4ZM4,12H3V11H4Zm0-2H3V9H4ZM4,8H3V7H4ZM4,6H3V5H4Zm3,6H6V11H7Zm0-2H6V9H7ZM7,8H6V7H7ZM7,6H6V5H7Z"/>
    <path d="M12.75,4h-.5a.25.25,0,0,0-.25.25V6H10V4.25A.25.25,0,0,0,9.75,4h-.5A.25.25,0,0,0,9,4.25v7.5a.25.25,0,0,0,.25.25h3.5a.25.25,0,0,0,.25-.25V4.25A.25.25,0,0,0,12.75,4ZM12,10H10V9h2Zm0-2H10V7h2Z"/>
  </g>
</svg>
