<svg xmlns="http://www.w3.org/2000/svg" width="14.9976" height="14.9976" viewBox="0 0 14.9976 14.9976">
  <title>city-15</title>
  <path d="M13.6368,3.9994H11.9981V1.3608A0.3609,0.3609,0,0,0,11.6371,1h-0.278a0.3609,0.3609,0,0,0-.3609.3609h0V3.9994H9.36a0.3609,0.3609,0,0,0-.3609.3609h0V9.9984H5.3621a0.3629,0.3629,0,0,0-.3629.3629v3.2745a0.3629,0.3629,0,0,0,.3629.3619h8.2747a0.3609,0.3609,0,0,0,.3609-0.3609h0V4.36a0.3609,0.3609,0,0,0-.3609-0.3609h0ZM6.9989,11.9981h-1v-1h1v1Zm2,0h-1v-1h1v1Zm2,0h-1v-1h1v1Zm0-2h-1v-1h1v1Zm0-2h-1v-1h1v1Zm0-2h-1v-1h1v1Zm2,5.999h-1v-1h1v1Zm0-2h-1v-1h1v1Zm0-2h-1v-1h1v1Zm0-2h-1v-1h1v1ZM7.9987,1.3608A0.3609,0.3609,0,0,0,7.6378,1H5.36a0.3609,0.3609,0,0,0-.3609.3609h0V3H3.36A0.3609,0.3609,0,0,0,3,3.36H3V3.9994H1.3608A0.3609,0.3609,0,0,0,1,4.36H1v9.2765a0.3609,0.3609,0,0,0,.3609.3609H3.9994V8.9986H7.9987V1.3608ZM3,11.9981H2v-1H3v1Zm0-2H2v-1H3v1Zm0-2H2v-1H3v1Zm0-2H2v-1H3v1Zm2,2h-1v-1h1v1Zm0-2h-1v-1h1v1Zm2,2h-1v-1h1v1Zm0-2h-1v-1h1v1Zm0-2h-1V3h1v1Z"/>
</svg>
