<svg id="college-JP-15" xmlns="http://www.w3.org/2000/svg" width="12" height="13.0016" viewBox="0 0 12 13.0016">
  <title>college-JP-15</title>
  <path d="M11,2H7V1A1,1,0,0,0,5,1V2H1A1,1,0,0,0,1,4h.67A10.8169,10.8169,0,0,0,3.65,7.8113c.3331.4313.6594.8248.9785,1.1936a14.3825,14.3825,0,0,1-2.6074,2.117,1,1,0,1,0,.955,1.7581h0A15.65,15.65,0,0,0,6,10.4621,15.65,15.65,0,0,0,9.0239,12.88a1,1,0,1,0,.9551-1.7578A14.3789,14.3789,0,0,1,7.3717,9.0051c.3191-.3688.6453-.7622.9784-1.1935A10.818,10.818,0,0,0,10.33,4H11a1,1,0,0,0,0-2ZM6.7671,6.5887c-.2614.3385-.5154.6413-.767.937-.2517-.2957-.5057-.5985-.7672-.937A9.5885,9.5885,0,0,1,3.7676,4H8.2319A9.5789,9.5789,0,0,1,6.7671,6.5887Z"/>
</svg>
