<?xml version="1.0" encoding="UTF-8"?>
<svg id="college-JP-11" xmlns="http://www.w3.org/2000/svg" width="11" height="11" viewBox="0 0 11 11">
  <path d="M9.25,2.2491h-3v-.75a.75.75,0,0,0-1.5,0v.75h-3a.75.75,0,0,0,0,1.5h.4031a9.1387,9.1387,0,0,0,1.66,2.9668c.2183.2743.429.5208.6357.7544a6.0883,6.0883,0,0,1-1.9,1.3062A.75.75,0,0,0,2.94,10.2248,6.7275,6.7275,0,0,0,5.4976,8.5525,6.7223,6.7223,0,0,0,8.061,10.2248a.7363.7363,0,0,0,.188.0243.7463.7463,0,0,0,.7173-.5507.7557.7557,0,0,0-.5152-.9219A6.024,6.024,0,0,1,6.5461,7.47c.2066-.2335.4173-.48.6355-.7541A9.1934,9.1934,0,0,0,8.845,3.7491H9.25a.75.75,0,0,0,0-1.5ZM6.0078,5.7823c-.177.2223-.3431.41-.51.6011-.1675-.1915-.3336-.3785-.5108-.6011A8.51,8.51,0,0,1,3.75,3.7491H7.2469A8.574,8.574,0,0,1,6.0078,5.7823Z"/>
</svg>