<svg id="college-JP-11" xmlns="http://www.w3.org/2000/svg" width="9" height="9.5017" viewBox="0 0 9 9.5017">
  <title>college-JP-11</title>
  <path d="M8.25,1.5h-3V.75a.75.75,0,0,0-1.5,0V1.5h-3A.75.75,0,0,0,.75,3h.4031a9.1387,9.1387,0,0,0,1.66,2.9668c.2183.2743.429.5208.6357.7544a6.09,6.09,0,0,1-1.9,1.3062A.75.75,0,1,0,1.94,9.4756,6.7273,6.7273,0,0,0,4.4976,7.8034,6.722,6.722,0,0,0,7.061,9.4756.7364.7364,0,0,0,7.249,9.5a.7464.7464,0,0,0,.7173-.5507.7557.7557,0,0,0-.5152-.9219A6.024,6.024,0,0,1,5.5461,6.721c.2066-.2335.4173-.48.6355-.7542A9.1929,9.1929,0,0,0,7.845,3H8.25a.75.75,0,0,0,0-1.5ZM5.0078,5.0332c-.177.2223-.3431.41-.51.6011-.1675-.1915-.3336-.3785-.5108-.6011A8.514,8.514,0,0,1,2.75,3H6.2469A8.574,8.574,0,0,1,5.0078,5.0332Z" transform="translate(0 0)"/>
</svg>
