<?xml version="1.0" encoding="UTF-8" standalone="no"?>
<svg
   xmlns:dc="http://purl.org/dc/elements/1.1/"
   xmlns:cc="http://creativecommons.org/ns#"
   xmlns:rdf="http://www.w3.org/1999/02/22-rdf-syntax-ns#"
   xmlns:svg="http://www.w3.org/2000/svg"
   xmlns="http://www.w3.org/2000/svg"
   version="1.1"
   id="svg5301"
   viewBox="0 0 11 11"
   height="11"
   width="11">
  <defs
     id="defs5303" />
  <metadata
     id="metadata5306">
    <rdf:RDF>
      <cc:Work
         rdf:about="">
        <dc:format>image/svg+xml</dc:format>
        <dc:type
           rdf:resource="http://purl.org/dc/dcmitype/StillImage" />
        <dc:title></dc:title>
      </cc:Work>
    </rdf:RDF>
  </metadata>
  <g
     id="layer1" />
  <path
     id="path4167-4"
     d="M 1.5390625 0.001953125 C 1.3533187 -0.010751675 1.1440516 0.060680525 0.98632812 0.25195312 C 0.88730323 0.43062102 0.63074583 0.90147236 0.50195312 1.2128906 C 0.24445303 1.8356272 -0.013233196 2.6870961 0 3.6269531 C 0.026249004 5.4909611 1.0625 6.7890625 1.0625 6.7890625 C 1.4820845 7.3407721 2.3276868 6.6943258 1.8671875 6.1738281 C 1.8671875 6.1738281 1.0468146 5.1347591 1.0253906 3.6132812 C 1.014792 2.8604953 1.2324728 2.1212312 1.4570312 1.578125 C 1.5693094 1.3065218 1.682386 1.0818978 1.765625 0.93164062 C 1.805927 0.85821233 1.8394931 0.8094505 1.8613281 0.7734375 L 1.8632812 0.76367188 C 1.9394348 0.67403777 1.9816688 0.55930338 1.9804688 0.44335938 C 2.0094977 0.19656557 1.7959792 0.019960125 1.5390625 0.001953125 z M 9.4609375 0.001953125 C 9.2040205 0.019960125 8.990502 0.19656567 9.0195312 0.44335938 C 9.0183312 0.55930347 9.0605617 0.67403787 9.1367188 0.76367188 L 9.1386719 0.7734375 C 9.1605019 0.8094515 9.194075 0.85821303 9.234375 0.93164062 C 9.317615 1.0818977 9.4306908 1.3065219 9.5429688 1.578125 C 9.7675268 2.1212313 9.9852084 2.8604954 9.9746094 3.6132812 C 9.9531894 5.1347591 9.1328125 6.1738281 9.1328125 6.1738281 C 8.6723128 6.6943258 9.517916 7.3407717 9.9375 6.7890625 C 9.9375 6.7890625 10.973751 5.4909611 11 3.6269531 C 11.01323 2.6870959 10.755547 1.8356272 10.498047 1.2128906 C 10.369255 0.90147232 10.112697 0.43062102 10.013672 0.25195312 C 9.8559492 0.060680525 9.6466815 -0.010751775 9.4609375 0.001953125 z M 3.0957031 1 L 3.0957031 1.0019531 C 3.0788241 1.0010516 3.0618009 1.0010516 3.0449219 1.0019531 C 2.8802144 1.0139731 2.7312263 1.1081154 2.6484375 1.2519531 C 2.6484375 1.2519531 1.9926265 2.3009183 2 3.5039062 C 2.00732 4.6987809 2.6425781 5.7597656 2.6425781 5.7597656 C 2.9922149 6.3191901 3.8290582 5.8030152 3.4941406 5.234375 C 3.4941406 5.234375 3.003034 4.3081859 2.9980469 3.4941406 C 2.9931069 2.688309 3.5058595 1.7675781 3.5058594 1.7675781 C 3.7092968 1.4379334 3.4811842 1.0098162 3.0957031 1 z M 7.9492188 1 C 7.5638968 1.00996 7.3358591 1.4340551 7.5390625 1.7617188 C 7.5390625 1.7617188 8.051864 2.6793805 8.046875 3.4804688 C 8.041875 4.2895223 7.5410156 5.2402344 7.5410156 5.2402344 C 7.2061215 5.8053571 8.0429361 6.3158281 8.3925781 5.7597656 C 8.3925781 5.7597656 9.0376379 4.675975 9.0449219 3.4882812 C 9.0523219 2.292523 8.3964844 1.25 8.3964844 1.25 C 8.3136944 1.1070268 8.164707 1.0139007 8 1.0019531 C 7.98312 1.001057 7.9660987 1.001057 7.9492188 1.0019531 L 7.9492188 1 z M 5.4980469 2.1015625 C 4.6714211 2.1015625 4.0019502 2.76965 4.0019531 3.59375 C 4.0020613 4.22605 4.4020734 4.7892 5 5 L 5.015625 10.111328 L 3.5019531 10.111328 C 3.2339604 10.111328 3.0195312 10.32655 3.0195312 10.59375 L 3.0195312 10.625 C 3.0195312 10.8921 3.2339604 11.105469 3.5019531 11.105469 L 7.5253906 11.105469 C 7.793384 11.105469 8.0078125 10.8921 8.0078125 10.625 L 8.0078125 10.59375 C 8.0078125 10.32655 7.7933836 10.110845 7.5253906 10.111328 L 6.0117188 10.111328 L 5.9980469 4.9980469 C 6.5953148 4.7875469 6.9951788 4.22535 6.9960938 3.59375 C 6.9960967 2.76965 6.3246727 2.1015625 5.4980469 2.1015625 z "
     style="opacity:1;fill:#000000;fill-opacity:1;stroke:none;stroke-width:1;stroke-linecap:round;stroke-linejoin:round;stroke-miterlimit:4;stroke-dasharray:none;stroke-opacity:1" />
</svg>
