<?xml version="1.0" encoding="UTF-8" standalone="no"?>
<svg
   xmlns:dc="http://purl.org/dc/elements/1.1/"
   xmlns:cc="http://creativecommons.org/ns#"
   xmlns:rdf="http://www.w3.org/1999/02/22-rdf-syntax-ns#"
   xmlns:svg="http://www.w3.org/2000/svg"
   xmlns="http://www.w3.org/2000/svg"
   width="15"
   height="15"
   viewBox="0 0 15 15"
   id="svg5301"
   version="1.1">
  <defs
     id="defs5303" />
  <metadata
     id="metadata5306">
    <rdf:RDF>
      <cc:Work
         rdf:about="">
        <dc:format>image/svg+xml</dc:format>
        <dc:type
           rdf:resource="http://purl.org/dc/dcmitype/StillImage" />
        <dc:title></dc:title>
      </cc:Work>
    </rdf:RDF>
  </metadata>
  <path
     id="path4167-4"
     d="m 2.5390625,1.0019531 c -0.1857438,-0.0127048 -0.3950109,0.058727 -0.5527344,0.25 C 1.8873032,1.430621 1.6307458,1.9014723 1.5019531,2.2128906 1.244453,2.8356272 0.9867668,3.6870961 1,4.6269531 c 0.026249,1.864008 1.0625,3.1621094 1.0625,3.1621094 0.4195845,0.5517096 1.2651868,-0.094737 0.8046875,-0.6152344 0,0 -0.8203729,-1.039069 -0.8417969,-2.5605469 C 2.014792,3.8604953 2.2305197,3.1212312 2.4550781,2.578125 2.5673563,2.3065218 2.682386,2.0818978 2.765625,1.9316406 2.805927,1.8582127 2.8394931,1.8094509 2.8613281,1.7734375 l 0.00195,-0.00977 C 2.9394348,1.6740378 2.9816687,1.5593034 2.9804688,1.4433594 3.0094977,1.1965656 2.7959792,1.0199601 2.5390625,1.0019531 Z m 9.9257815,0 c -0.256271,0.018 -0.468409,0.1966594 -0.439453,0.4433594 -0.0012,0.1159 0.04122,0.2287594 0.117187,0.3183594 l 0.002,0.00977 c 0.02178,0.036 0.0555,0.084803 0.0957,0.1582031 0.08303,0.1502 0.194645,0.3749844 0.306641,0.6464844 0.223994,0.5429 0.44026,1.2807031 0.429687,2.0332031 -0.02137,1.5209 -0.83789,2.5605469 -0.83789,2.5605469 -0.459342,0.5203 0.382251,1.1667344 0.800781,0.6152344 0,0 1.034364,-1.2988094 1.060547,-3.1621094 0.0132,-0.9395 -0.2451,-1.7896094 -0.501953,-2.4121094 -0.128469,-0.3113 -0.383646,-0.7823375 -0.482422,-0.9609375 -0.157327,-0.1912 -0.365504,-0.26269997 -0.550781,-0.25 z m -1.988282,0.9921875 c -0.385322,0.01 -0.6153123,0.436525 -0.412109,0.765625 0,0 0.514755,0.9200094 0.509766,1.7246094 -0.005,0.8126 -0.507813,1.7675781 -0.507813,1.7675781 -0.3348938,0.5676 0.501921,1.0819375 0.851563,0.5234375 0,0 0.645059,-1.0903031 0.652343,-2.2832031 0.0074,-1.201 -0.648437,-2.2480469 -0.648437,-2.2480469 -0.08279,-0.1436 -0.229824,-0.2360468 -0.394531,-0.2480468 -0.01688,-9e-4 -0.0339,-9e-4 -0.05078,0 z m -5.9707026,0.00781 0,0.00195 c -0.016879,-9e-4 -0.033902,-8.999e-4 -0.050781,0 -0.1647075,0.012 -0.3117424,0.1064 -0.3945312,0.25 0,0 -0.655811,1.0470469 -0.6484375,2.2480469 0.00732,1.1929 0.6425781,2.2519531 0.6425781,2.2519531 0.3496368,0.5585 1.1864801,0.044263 0.8515625,-0.5234374 0,0 -0.4930598,-0.9236282 -0.4980469,-1.7363282 -0.00494,-0.8045 0.5097657,-1.7265625 0.5097657,-1.7265625 0.2034373,-0.3291 -0.026628,-0.755825 -0.4121094,-0.765625 z m 2.9804687,0.9882813 c -0.8266258,0 -1.4960966,0.6680875 -1.4960937,1.4921875 C 5.9903426,5.1147219 6.4020734,5.7892 7,6 l 0,7 -1.5166493,0.0059 c -0.2679907,0.001 -0.4824219,0.213269 -0.4824219,0.480469 l 0,0.03125 C 5.0009288,13.784678 5.215358,14 5.4833507,14 l 4.0146962,0 c 0.2679934,0 0.4824219,-0.215322 0.4824219,-0.482422 l 0,-0.03125 c 0,-0.2672 -0.2144305,-0.479421 -0.4824219,-0.480469 L 8,13 8,6 C 8.5972679,5.7895 8.9815069,5.1140219 8.9824219,4.4824219 c 2.9e-6,-0.8241 -0.669468,-1.4921875 -1.4960938,-1.4921875 z"
     style="opacity:1;fill:#000000;fill-opacity:1;stroke:none;stroke-width:1;stroke-linecap:round;stroke-linejoin:round;stroke-miterlimit:4;stroke-dasharray:none;stroke-opacity:1" />
</svg>
