<svg xmlns="http://www.w3.org/2000/svg" width="11" height="11" viewBox="0 0 11 11"><title>con</title><g id="icon_concepts:_food_drink" data-name="icon concepts: food &amp; drink"><g id="confectionary-store-final"><path d="M9.2407,2.513a.7461.7461,0,0,0-.7461-.7461.7461.7461,0,1,0-1.4922,0V3.5132A2.4888,2.4888,0,0,0,3.5113,7H1.7485a.7461.7461,0,0,0,0,1.4922.7461.7461,0,0,0,.7461.7461.7461.7461,0,0,0,1.4922,0V7.4778A2.4887,2.4887,0,0,0,7.493,4.0052H9.2407a.7461.7461,0,0,0,0-1.4922ZM7.1293,4.78a.8158.8158,0,0,1-.1772.2438,1.6611,1.6611,0,0,1-1.0761.3018H5.6748V5.1387a1.9718,1.9718,0,0,0-.3877-1.3213,1.1554,1.1554,0,0,0-.0958-.07A1.748,1.748,0,0,1,7.1293,4.78ZM4.78,3.8707a.8158.8158,0,0,1,.2438.1772A1.6481,1.6481,0,0,1,5.3252,5.124v.2012H5.1387a1.9869,1.9869,0,0,0-1.3213.3877,1.1554,1.1554,0,0,0-.07.0958A1.748,1.748,0,0,1,4.78,3.8707ZM3.8707,6.22a.8184.8184,0,0,1,.1772-.2437A1.6385,1.6385,0,0,1,5.124,5.6748h.2012v.1865a1.9718,1.9718,0,0,0,.3877,1.3213,1.1554,1.1554,0,0,0,.0958.07A1.7479,1.7479,0,0,1,3.8707,6.22Zm2.35.909a.8158.8158,0,0,1-.2438-.1772A1.6481,1.6481,0,0,1,5.6748,5.876V5.6748h.1865c.0078,0,.0508.0039.1192.0039a1.88,1.88,0,0,0,1.2021-.3916,1.1554,1.1554,0,0,0,.07-.0958A1.748,1.748,0,0,1,6.22,7.1293Z"/></g></g></svg>