<svg xmlns="http://www.w3.org/2000/svg" width="15" height="15" viewBox="0 0 15 15"><title>con</title><g id="icon_concepts:_food_drink" data-name="icon concepts: food &amp; drink"><g id="confectionary-store-final"><path d="M13,4a1,1,0,0,0-1-1,1,1,0,0,0-2,0V5.0673A3.4808,3.4808,0,0,0,4.3583,9H2a1,1,0,0,0,0,2,1,1,0,0,0,1,1,1,1,0,0,0,2,0V9.9326A3.4807,3.4807,0,0,0,10.6417,6H13a1,1,0,0,0,0-2ZM9.681,6.3185a1.0813,1.0813,0,0,1-.307.5458A2.1374,2.1374,0,0,1,7.9883,7.25H7.75L7.749,7.0322A2.5821,2.5821,0,0,0,7.24,5.2969a1.5557,1.5557,0,0,0-.2592-.2334,2.4634,2.4634,0,0,1,2.7,1.255Zm-3.3626-1a1.0809,1.0809,0,0,1,.5459.307A2.1243,2.1243,0,0,1,7.25,7.0117v.2388l-.2178.0005A2.5669,2.5669,0,0,0,5.2969,7.76a1.5462,1.5462,0,0,0-.2333.2591,2.4634,2.4634,0,0,1,1.2548-2.7ZM5.319,8.6815a1.0813,1.0813,0,0,1,.307-.5458A2.1374,2.1374,0,0,1,7.0117,7.75h.2388l.0005.2178A2.5821,2.5821,0,0,0,7.76,9.7031a1.5462,1.5462,0,0,0,.2591.2333,2.4633,2.4633,0,0,1-2.7-1.2549Zm3.3625.9995a1.0813,1.0813,0,0,1-.5458-.307A2.1243,2.1243,0,0,1,7.75,7.9883V7.75l.2178-.0005c.01.001.0664.0049.1562.0049A2.4661,2.4661,0,0,0,9.7031,7.24a1.5462,1.5462,0,0,0,.2333-.2591,2.4633,2.4633,0,0,1-1.2549,2.7Z"/></g></g></svg>