<?xml version="1.0" encoding="UTF-8" standalone="no"?>
<!-- Generator: Adobe Illustrator 19.2.1, SVG Export Plug-In . SVG Version: 6.00 Build 0)  -->

<svg
   xmlns:dc="http://purl.org/dc/elements/1.1/"
   xmlns:cc="http://creativecommons.org/ns#"
   xmlns:rdf="http://www.w3.org/1999/02/22-rdf-syntax-ns#"
   xmlns:svg="http://www.w3.org/2000/svg"
   xmlns="http://www.w3.org/2000/svg"
   xmlns:sodipodi="http://sodipodi.sourceforge.net/DTD/sodipodi-0.dtd"
   xmlns:inkscape="http://www.inkscape.org/namespaces/inkscape"
   version="1.1"
   id="Layer_1"
   x="0px"
   y="0px"
   width="15px"
   height="15px"
   viewBox="0 0 15 15"
   style="enable-background:new 0 0 15 15;"
   xml:space="preserve"
   inkscape:version="0.91 r13725"
   sodipodi:docname="construction-site-11.svg"><metadata
     id="metadata9"><rdf:RDF><cc:Work
         rdf:about=""><dc:format>image/svg+xml</dc:format><dc:type
           rdf:resource="http://purl.org/dc/dcmitype/StillImage" /><dc:title></dc:title></cc:Work></rdf:RDF></metadata><defs
     id="defs7" /><sodipodi:namedview
     pagecolor="#ffffff"
     bordercolor="#666666"
     borderopacity="1"
     objecttolerance="10"
     gridtolerance="10"
     guidetolerance="10"
     inkscape:pageopacity="0"
     inkscape:pageshadow="2"
     inkscape:window-width="1280"
     inkscape:window-height="666"
     id="namedview5"
     showgrid="true"
     inkscape:zoom="22.250293"
     inkscape:cx="10.601652"
     inkscape:cy="6.3415196"
     inkscape:window-x="-8"
     inkscape:window-y="-8"
     inkscape:window-maximized="1"
     inkscape:current-layer="Layer_1"
     inkscape:snap-bbox="true"
     inkscape:snap-smooth-nodes="true"
     inkscape:bbox-paths="true"
     inkscape:bbox-nodes="true"
     inkscape:snap-bbox-edge-midpoints="true"
     inkscape:snap-bbox-midpoints="true"
     inkscape:object-paths="true"
     inkscape:snap-intersection-paths="true"
     inkscape:object-nodes="true"
     inkscape:snap-midpoints="true"><inkscape:grid
       type="xygrid"
       id="grid4137"
       empspacing="1" /></sodipodi:namedview><rect
     style="opacity:1;fill:none;fill-opacity:1;stroke:none;stroke-width:1;stroke-linecap:round;stroke-linejoin:round;stroke-miterlimit:4.19999981;stroke-dasharray:none;stroke-opacity:1"
     id="rect3335-7"
     width="17"
     height="17"
     x="-4.0576174e-006"
     y="-1.0000008" /><path
     style="opacity:1;fill:#000000;fill-opacity:1;stroke:none;stroke-width:0.5;stroke-linecap:round;stroke-linejoin:round;stroke-miterlimit:4;stroke-dasharray:none;stroke-dashoffset:0;stroke-opacity:1"
     d="M 2.75 3 C 2.6089464 3 2.4835597 3.064722 2.3710938 3.1542969 C 2.1512655 3.2905572 2 3.5009593 2 3.75 L 2 8.25 L 2 8.5 C 2 8.7770035 2.2229965 9 2.5 9 L 9.5 9 C 9.7770035 9 10 8.7770035 10 8.5 L 10 7.5 C 10 7.2229965 9.7770035 7 9.5 7 L 8 7 L 8 3.8339844 C 8 3.6364809 7.916332 3.462821 7.7949219 3.3203125 C 7.784472 3.3054273 7.7747837 3.2913497 7.7636719 3.2773438 C 7.7418617 3.254802 7.7196204 3.2350149 7.6953125 3.2148438 C 7.5697383 3.0884742 7.4201481 3 7.25 3 L 2.75 3 z M 12.488281 3 A 0.49870937 0.49965539 0 0 0 12.082031 3.2265625 C 12.082031 3.2265625 11 4.8625128 11 7.5019531 C 11 10.141394 12.082031 11.777344 12.082031 11.777344 A 0.49973159 0.50067955 0 1 0 12.910156 11.220703 C 12.910156 11.220703 11.998047 9.8758555 11.998047 7.5019531 C 11.998047 5.1280501 12.910156 3.7851562 12.910156 3.7851562 A 0.49870937 0.49965539 0 0 0 12.488281 3 z M 4 5 L 6 5 L 6 7 L 4 7 L 4 5 z M 3.1191406 10 C 2.498935 10 2 10.445999 2 11 C 2 11.554 2.498935 12 3.1191406 12 L 8.8808594 12 C 9.501065 12 10 11.554 10 11 C 10 10.445999 9.501065 10 8.8808594 10 L 3.1191406 10 z "
     id="rect5072" /></svg>