<?xml version="1.0" encoding="UTF-8" standalone="no"?>
<!-- Generator: Adobe Illustrator 19.2.1, SVG Export Plug-In . SVG Version: 6.00 Build 0)  -->

<svg
   xmlns:dc="http://purl.org/dc/elements/1.1/"
   xmlns:cc="http://creativecommons.org/ns#"
   xmlns:rdf="http://www.w3.org/1999/02/22-rdf-syntax-ns#"
   xmlns:svg="http://www.w3.org/2000/svg"
   xmlns="http://www.w3.org/2000/svg"
   xmlns:sodipodi="http://sodipodi.sourceforge.net/DTD/sodipodi-0.dtd"
   xmlns:inkscape="http://www.inkscape.org/namespaces/inkscape"
   version="1.1"
   id="Layer_1"
   x="0px"
   y="0px"
   width="15px"
   height="15px"
   viewBox="0 0 15 15"
   style="enable-background:new 0 0 15 15;"
   xml:space="preserve"
   inkscape:version="0.91 r13725"
   sodipodi:docname="construction-site-15.svg"><metadata
     id="metadata9"><rdf:RDF><cc:Work
         rdf:about=""><dc:format>image/svg+xml</dc:format><dc:type
           rdf:resource="http://purl.org/dc/dcmitype/StillImage" /><dc:title></dc:title></cc:Work></rdf:RDF></metadata><defs
     id="defs7" /><sodipodi:namedview
     pagecolor="#ffffff"
     bordercolor="#666666"
     borderopacity="1"
     objecttolerance="10"
     gridtolerance="10"
     guidetolerance="10"
     inkscape:pageopacity="0"
     inkscape:pageshadow="2"
     inkscape:window-width="1280"
     inkscape:window-height="666"
     id="namedview5"
     showgrid="true"
     inkscape:zoom="22.250293"
     inkscape:cx="3.8826394"
     inkscape:cy="6.3415196"
     inkscape:window-x="-8"
     inkscape:window-y="-8"
     inkscape:window-maximized="1"
     inkscape:current-layer="Layer_1"
     inkscape:snap-bbox="true"
     inkscape:snap-smooth-nodes="true"
     inkscape:bbox-paths="true"
     inkscape:bbox-nodes="true"
     inkscape:snap-bbox-edge-midpoints="true"
     inkscape:snap-bbox-midpoints="true"
     inkscape:object-paths="true"
     inkscape:snap-intersection-paths="true"
     inkscape:object-nodes="true"
     inkscape:snap-midpoints="true"><inkscape:grid
       type="xygrid"
       id="grid4137"
       empspacing="1" /></sodipodi:namedview><rect
     style="opacity:1;fill:none;fill-opacity:1;stroke:none;stroke-width:1;stroke-linecap:round;stroke-linejoin:round;stroke-miterlimit:4.19999981;stroke-dasharray:none;stroke-opacity:1"
     id="rect3335-7"
     width="17"
     height="17"
     x="-4.0576174e-006"
     y="-1.0000008" /><path
     style="opacity:1;fill:#000000;fill-opacity:1;stroke:none;stroke-width:0.5;stroke-linecap:round;stroke-linejoin:round;stroke-miterlimit:4;stroke-dasharray:none;stroke-dashoffset:0;stroke-opacity:1"
     d="M 13.265625 2 A 0.69640994 0.67790605 0 0 0 12.568359 2.5488281 C 11.795864 6.209248 11.809299 9.9625484 12.617188 13.441406 A 0.69640994 0.67790605 0 1 0 13.974609 13.142578 C 13.213443 9.8649434 13.197724 6.3000152 13.931641 2.8222656 A 0.69640994 0.67790605 0 0 0 13.402344 2.015625 A 0.69640994 0.67790605 0 0 0 13.265625 2 z M 1.875 3 C 1.8486377 3 1.826537 3.0149944 1.8007812 3.0175781 C 1.3519213 3.0620513 1 3.4204046 1 3.875 L 1 9.125 L 1 9.25 C 1 9.6655056 1.3344944 10 1.75 10 L 10.25 10 C 10.665505 10 11 9.6655056 11 9.25 L 11 7.75 C 11 7.3344944 10.665505 7 10.25 7 L 8 7 L 8 4 C 8 3.4460048 7.6097502 3 7.125 3 L 1.875 3 z M 3 5 L 6 5 L 6 7 L 3 7 L 3 5 z M 2.3984375 11 C 1.6231805 11 1 11.668999 1 12.5 C 1 13.331 1.6231805 14 2.3984375 14 L 9.6015625 14 C 10.376819 14 11 13.331 11 12.5 C 11 11.668999 10.376819 11 9.6015625 11 L 2.3984375 11 z "
     id="rect5072" /></svg>