<?xml version="1.0" encoding="UTF-8"?>
<svg id="convenience-11" xmlns="http://www.w3.org/2000/svg" width="11" height="11" viewBox="0 0 11 11">
  <g id="convenience-store-11">
    <path d="M8.8211,4.2685h-.62c-.1554-.6-.28-1.0651-.2826-1.0734l-.0111-.05c0-.0011-.12-.5479-.41-.5479H3.519c-.2889,0-.4091.5468-.41.5523-.008.0333-.136.5119-.293,1.1185h-.62c.1756-.6809.3228-1.2291.3228-1.2291s.1875-1.0417,1-1.0417h.4963a.4932.4932,0,0,1,.4829-.4153h2a.4932.4932,0,0,1,.4829.4153h.5171c.8125,0,1,1.0417,1,1.0417S8.6454,3.5876,8.8211,4.2685ZM2.9189,9.9954a.4945.4945,0,0,1-.4828-.368c-.23-.8736-.8-3.0538-.9379-3.63a.5.5,0,1,1,0-1h8a.5.5,0,0,1,0,1c-.1375.5763-.7156,2.7587-.9487,3.6313a.4948.4948,0,0,1-.4825.3665Zm1.094-3.2968a.5129.5129,0,0,0-1.0235,0V8.51a.5129.5129,0,0,0,1.0235,0Zm1.9971,0a.5129.5129,0,0,0-1.0235,0V8.51a.5129.5129,0,0,0,1.0235,0Zm2.0058,0a.5129.5129,0,0,0-1.0236,0V8.51a.5129.5129,0,0,0,1.0236,0Z"/>
  </g>
</svg>