<svg xmlns="http://www.w3.org/2000/svg" width="11" height="11" viewBox="0 0 11 11"><title>fare</title><g id="icon_concepts:_food_drink" data-name="icon concepts: food &amp; drink"><g id="convenience-store-final"><path d="M8.8211,4.2685h-.62c-.1554-.6-.28-1.0651-.2826-1.0734l-.0111-.05c0-.0011-.12-.5479-.41-.5479H3.519c-.2889,0-.4091.5468-.41.5523-.008.0333-.136.5119-.293,1.1185h-.62c.1756-.6809.3228-1.2291.3228-1.2291s.1875-1.0417,1-1.0417h.4963a.4932.4932,0,0,1,.4829-.4153h2a.4932.4932,0,0,1,.4829.4153h.5171c.8125,0,1,1.0417,1,1.0417S8.6454,3.5876,8.8211,4.2685ZM9.9982,5.4976a.5.5,0,0,1-.5.5c-.1733.7264-.8592,3.3187-.8592,3.3187s-.12.6675-.6408.6675h-5c-.5206,0-.6407-.6675-.6407-.6675S1.6716,6.724,1.4982,5.9976a.5.5,0,1,1,0-1h8A.5.5,0,0,1,9.9982,5.4976ZM4.0129,6.6986a.5129.5129,0,0,0-1.0235,0V8.51a.5129.5129,0,0,0,1.0235,0Zm1.9971,0a.5129.5129,0,0,0-1.0235,0V8.51a.5129.5129,0,0,0,1.0235,0Zm2.0058,0a.5129.5129,0,0,0-1.0236,0V8.51a.5129.5129,0,0,0,1.0236,0Z" fill="#010101"/></g></g></svg>