<svg id="Layer_1" data-name="Layer 1" xmlns="http://www.w3.org/2000/svg" width="15" height="15" viewBox="0 0 15 15">
  <title>cricket-15</title>
  <path d="M8.5,1.5A1.5,1.5,0,1,1,7,0,1.5,1.5,0,0,1,8.5,1.5Zm1.9,5.76h0L9,4.81l0-.08,0-.07h0l0,0A0.5,0.5,0,0,0,8.5,4.5H5.25A0.75,0.75,0,0,0,4.56,5h0L3.25,9.26a0.5,0.5,0,0,0,0,.08L2,13.39H2a0.48,0.48,0,0,0,0,.11,0.5,0.5,0,0,0,1,0L4.16,9.66h0l0.25-.84,2.06,2.32L6,13.5a0.5,0.5,0,0,0,1,0l0.48-2.4v0a0.47,0.47,0,0,0,0-.08,0.48,0.48,0,0,0-.1-0.29v0L5.5,8.5l1-3H8.21L9.55,7.77h0A0.49,0.49,0,0,0,10,8a0.5,0.5,0,0,0,.5-0.5A0.49,0.49,0,0,0,10.4,7.26ZM13.62,11a0.75,0.75,0,1,0,.75.75A0.75,0.75,0,0,0,13.62,11Zm-3-1.14V9.13a0.25,0.25,0,0,0-.5,0V9.86a0.49,0.49,0,0,0-.25.42v3.34a0.5,0.5,0,1,0,1,0V10.29A0.49,0.49,0,0,0,10.59,9.86Z"/>
</svg>
