<svg id="Layer_1" data-name="Layer 1" xmlns="http://www.w3.org/2000/svg" width="11" height="11" viewBox="0 0 11 11">
  <title>cricket-11</title>
  <path d="M5.5,1a1,1,0,1,1-1-1A1,1,0,0,1,5.5,1ZM8.35,4h0L7,2.81l0-.08,0-.07h0l0,0A0.5,0.5,0,0,0,6.5,2.5H3.25A0.75,0.75,0,0,0,2.56,3h0L1.25,7.26a0.5,0.5,0,0,0,0,.08L0.5,10h0a0.51,0.51,0,1,0,1,.11L2.5,7,5,8,4.5,10.32a0.5,0.5,0,0,0,1,0L6,7.92v0a0.47,0.47,0,0,0,0-.08,0.48,0.48,0,0,0-.1-0.29v0L3.5,6.5l1-3H6.21l1.29,1h0a0.49,0.49,0,0,0,.43.25,0.5,0.5,0,0,0,.5-0.5A0.49,0.49,0,0,0,8.35,4Zm1.9,3a0.75,0.75,0,1,0,.75.75A0.75,0.75,0,0,0,10.25,7Zm-2-.76V5.51a0.25,0.25,0,1,0-.5,0V6.24a0.49,0.49,0,0,0-.25.42V10a0.5,0.5,0,1,0,1,0V6.66A0.49,0.49,0,0,0,8.22,6.24Z"/>
</svg>
