<svg id="Layer_1" data-name="Layer 1" xmlns="http://www.w3.org/2000/svg" width="11" height="11" viewBox="0 0 11 11">
  <title>cricket-11</title>
  <path d="M6,1A1,1,0,1,1,5,0,1,1,0,0,1,6,1ZM8.88,5.18l-1-2h0l0,0A0.5,0.5,0,0,0,7.5,3H2.77A0.74,0.74,0,0,0,2,3.65l0,0L1,10.36H1a0.48,0.48,0,0,0,0,.14,0.5,0.5,0,0,0,.5.5A0.49,0.49,0,0,0,2,10.64H2L3.22,6.75l0,0,0.21-.83,0.4,0.44h0L5,7.6,5,10.5a0.5,0.5,0,0,0,1,0l0-3H6v0A0.48,0.48,0,0,0,5.9,7.22v0L4.45,5.5,5.5,4H7.21L8.13,5.84h0A0.49,0.49,0,0,0,8.5,6,0.5,0.5,0,0,0,9,5.51,0.88,0.88,0,0,0,8.88,5.18ZM10.5,8a0.5,0.5,0,1,0,.5.5A0.5,0.5,0,0,0,10.5,8ZM8.69,8V7.25a0.25,0.25,0,0,0-.5,0V8a0.49,0.49,0,0,0-.25.42V10.5a0.5,0.5,0,0,0,1,0V8.41A0.49,0.49,0,0,0,8.69,8Z"/>
</svg>
