<svg id="Layer_1" data-name="Layer 1" xmlns="http://www.w3.org/2000/svg" width="15" height="15" viewBox="0 0 15 15">
  <title>cricket-15</title>
  <path d="M8,1.5A1.5,1.5,0,1,1,6.5,0,1.5,1.5,0,0,1,8,1.5Zm2.88,5.68h0l-2-2h0l0,0A0.5,0.5,0,0,0,8.48,5H3.75A0.74,0.74,0,0,0,3,5.64l0,0-1,7.7H2a0.48,0.48,0,0,0,0,.14,0.5,0.5,0,0,0,.5.5A0.49,0.49,0,0,0,3,13.64H3L4.2,9.75l0,0,0.26-.83,0.4,0.44h0L6,10.6v2.9a0.5,0.5,0,0,0,1,0l0-3H7v0a0.48,0.48,0,0,0-.08-0.22v0L5.48,8.5l1-2.5H8.19l2,1.84h0a0.49,0.49,0,0,0,.37.17A0.5,0.5,0,0,0,11,7.5,0.49,0.49,0,0,0,10.88,7.18ZM14,11.27a0.75,0.75,0,1,0,.75.75A0.75,0.75,0,0,0,14,11.27ZM10.76,9.74V9a0.25,0.25,0,1,0-.5,0V9.74a0.49,0.49,0,0,0-.25.42V13.5a0.5,0.5,0,0,0,1,0V10.16A0.49,0.49,0,0,0,10.76,9.74Z"/>
</svg>
