<svg id="Layer_1" data-name="Layer 1" xmlns="http://www.w3.org/2000/svg" width="11" height="11" viewBox="0 0 11 11">
  <title>cross-11</title>
  <path d="M1.2,0.2l4.3,4.3L9.8,0.2A0.67,0.67,0,0,1,10.3,0a0.75,0.75,0,0,1,.7.7,0.66,0.66,0,0,1-.2.48L6.49,5.5,10.8,9.82a0.66,0.66,0,0,1,.2.48,0.75,0.75,0,0,1-.7.7,0.67,0.67,0,0,1-.5-0.2L5.5,6.51,1.2,10.8a0.67,0.67,0,0,1-.5.2A0.75,0.75,0,0,1,0,10.3,0.66,0.66,0,0,1,.2,9.82L4.51,5.5,0.2,1.18A0.66,0.66,0,0,1,0,.7,0.75,0.75,0,0,1,.7,0,0.67,0.67,0,0,1,1.2.2Z"/>
</svg>
