<svg id="Layer_1" data-name="Layer 1" xmlns="http://www.w3.org/2000/svg" width="11" height="11" viewBox="0 0 11 11">
  <title>cross-11</title>
  <path d="M2.2,1.19l3.3,3.3L8.8,1.2A0.67,0.67,0,0,1,9.3,1a0.75,0.75,0,0,1,.7.7,0.66,0.66,0,0,1-.2.48L6.49,5.5,9.8,8.82a0.66,0.66,0,0,1,.2.48,0.75,0.75,0,0,1-.7.7,0.67,0.67,0,0,1-.5-0.2L5.5,6.51,2.21,9.8a0.67,0.67,0,0,1-.5.2A0.75,0.75,0,0,1,1,9.29a0.66,0.66,0,0,1,.2-0.48L4.51,5.5,1.19,2.18A0.66,0.66,0,0,1,1,1.7,0.75,0.75,0,0,1,1.7,1,0.67,0.67,0,0,1,2.2,1.19Z"/>
</svg>
