<svg id="Layer_1" data-name="Layer 1" xmlns="http://www.w3.org/2000/svg" width="11" height="11" viewBox="0 0 11 11">
  <title>dam-11</title>
  <path d="M10.44,8.85a0.89,0.89,0,0,1-1.14.3L8.21,8.56a0.5,0.5,0,0,0-.41,0l-2.12.91a0.5,0.5,0,0,1-.37,0l-1.6-.69,0.37,1.61A0.5,0.5,0,0,1,3.6,11H0.5A0.5,0.5,0,0,1,0,10.5V0.5A0.5,0.5,0,0,1,.5,0H1.29a0.5,0.5,0,0,1,.49.39L2.44,3.25l0.3-.18a0.5,0.5,0,0,1,.43,0L5.31,4a0.5,0.5,0,0,0,.37,0L7.8,3a0.5,0.5,0,0,1,.41,0l1.88,1a0.89,0.89,0,0,1-.8,1.6L8.21,5.06A0.5,0.5,0,0,0,7.8,5L5.69,6a0.5,0.5,0,0,1-.37,0l-2.1-.91a0.49,0.49,0,0,0-.36,0L3.2,6.55,5.31,7.47a0.5,0.5,0,0,0,.37,0L7.8,6.55a0.5,0.5,0,0,1,.41,0l1.88,1A0.89,0.89,0,0,1,10.44,8.85Z"/>
</svg>
