<svg id="Layer_1" data-name="Layer 1" xmlns="http://www.w3.org/2000/svg" width="11" height="11" viewBox="0 0 11 11">
  <title>dam-11</title>
  <path d="M10,7.51a0.5,0.5,0,0,1-.5.5h0a1,1,0,0,0-.67.34,2.14,2.14,0,0,1-1,.6,1.89,1.89,0,0,1-1.76-.37L5.73,8.23a0.77,0.77,0,0,0-1.08,0L5,9.38A0.5,0.5,0,0,1,4.5,10h-3A0.5,0.5,0,0,1,1,9.5v-8A0.5,0.5,0,0,1,1.49,1h0.7a0.5,0.5,0,0,1,.49.39L3.41,3.9l0.1-.06C3.67,3.72,3.82,3.57,4,3.44a1.9,1.9,0,0,1,2.45,0c0.15,0.13.29,0.27,0.44,0.39a0.75,0.75,0,0,0,1,0L8.3,3.43A1.78,1.78,0,0,1,9.49,3h0a0.5,0.5,0,0,1,0,1h0a1,1,0,0,0-.67.34,2.14,2.14,0,0,1-1,.6,1.89,1.89,0,0,1-1.76-.37L5.73,4.23a0.77,0.77,0,0,0-1.1,0c-0.14.12-.27,0.25-0.42,0.37a2,2,0,0,1-.52.29L4.36,7.21a1.88,1.88,0,0,1,2.06.24c0.15,0.13.29,0.27,0.44,0.39a0.75,0.75,0,0,0,1,0L8.3,7.42A1.78,1.78,0,0,1,9.49,7h0A0.5,0.5,0,0,1,10,7.51Z"/>
</svg>
