<svg id="Layer_1" data-name="Layer 1" xmlns="http://www.w3.org/2000/svg" width="15" height="15" viewBox="0 0 15 15">
  <title>dam-15</title>
  <path d="M13.94,9.5a0.5,0.5,0,0,1-.5.5h0a1,1,0,0,0-.67.34,2.14,2.14,0,0,1-1,.6,1.89,1.89,0,0,1-1.76-.37l-0.39-.35a0.77,0.77,0,0,0-1.1,0c-0.14.12-.27,0.25-0.42,0.37a1.91,1.91,0,0,1-2.46-.07L5.3,10.19l-0.1-.06L5.5,11.35l0.49,2A0.5,0.5,0,0,1,5.5,14h-4A0.5,0.5,0,0,1,1,13.5V1.5A0.5,0.5,0,0,1,1.5,1H2.6a0.5,0.5,0,0,1,.49.39L4,5.06,4,5.2a1.88,1.88,0,0,1,2,.24c0.16,0.13.31,0.28,0.47,0.41a0.75,0.75,0,0,0,1,0c0.16-.13.31-0.28,0.47-0.41a1.9,1.9,0,0,1,2.45,0c0.15,0.13.29,0.27,0.44,0.39a0.75,0.75,0,0,0,1,0l0.47-.41A1.78,1.78,0,0,1,13.43,5h0a0.5,0.5,0,1,1,0,1h0a1,1,0,0,0-.67.34,2.14,2.14,0,0,1-1,.6,1.89,1.89,0,0,1-1.76-.37L9.67,6.23a0.77,0.77,0,0,0-1.1,0c-0.14.12-.27,0.25-0.42,0.37a1.91,1.91,0,0,1-2.46-.07L5.3,6.19a0.75,0.75,0,0,0-1,0l-0.06.05L4.93,9A1.9,1.9,0,0,1,6,9.43c0.16,0.13.31,0.28,0.47,0.41a0.75,0.75,0,0,0,1,0c0.16-.13.31-0.28,0.47-0.41a1.9,1.9,0,0,1,2.45,0c0.15,0.13.29,0.27,0.44,0.39a0.75,0.75,0,0,0,1,0l0.47-.41A1.78,1.78,0,0,1,13.43,9h0A0.5,0.5,0,0,1,13.94,9.5Z"/>
</svg>
