<?xml version="1.0" encoding="utf-8"?>
<!-- Generator: Adobe Illustrator 19.2.1, SVG Export Plug-In . SVG Version: 6.00 Build 0)  -->
<!DOCTYPE svg PUBLIC "-//W3C//DTD SVG 1.1//EN" "http://www.w3.org/Graphics/SVG/1.1/DTD/svg11.dtd">
<svg version="1.1" id="Layer_1" xmlns="http://www.w3.org/2000/svg" xmlns:xlink="http://www.w3.org/1999/xlink" x="0px" y="0px"
	 width="11px" height="11px" viewBox="0 0 11 11" style="enable-background:new 0 0 11 11;" xml:space="preserve">
<path d="M6.62,8.5l3.11,1.55l-0.45,0.89L5.5,9.06l-3.78,1.89l-0.45-0.89L4.38,8.5l-3.1-1.55l0.45-0.89L5.5,7.94l3.78-1.89l0.44,0.9
	L6.62,8.5z M8.5,3.21V3.5l-1,1v1l-2,1l-2-1v-1l-1-1V3C2.4438,1.3994,3.6958,0.0562,5.2964,0C5.3643-0.0024,5.4322-0.0024,5.5,0
	c1.7059,0.0484,3.0495,1.4705,3.0011,3.1764C8.5008,3.1876,8.5004,3.1988,8.5,3.21z M4.71,2.71c0-0.4363-0.3537-0.79-0.79-0.79
	S3.13,2.2737,3.13,2.71c0,0.4363,0.3537,0.79,0.79,0.79l0,0C4.3563,3.5,4.71,3.1463,4.71,2.71z M5,4.5H4.5v1H5V4.5z M6.5,4.5H6v1
	h0.5V4.5z M7.86,2.71c0-0.4363-0.3537-0.79-0.79-0.79S6.28,2.2737,6.28,2.71S6.6337,3.5,7.07,3.5l0,0
	C7.5063,3.5,7.86,3.1463,7.86,2.71z"/>
</svg>
