<svg id="Layer_1" data-name="Layer 1" xmlns="http://www.w3.org/2000/svg" width="15" height="15" viewBox="0 0 15 15">
  <title>danger-15</title>
  <path d="M14.47,14.18a0.5,0.5,0,0,1-.47.32,0.51,0.51,0,0,1-.18,0L7.5,12,1.18,14.47a0.5,0.5,0,0,1-.65-0.29,0.5,0.5,0,0,1,.29-0.65l5.29-2-5.29-2a0.5,0.5,0,0,1,.36-0.93L7.5,11l6.32-2.43a0.5,0.5,0,1,1,.36.93l-5.29,2,5.29,2A0.5,0.5,0,0,1,14.47,14.18ZM11.5,4V5L10,7V8.5l-2.5,1L5,8.5V7L3.5,5V4A4,4,0,0,1,11.5,4ZM7,6.5H6V8H7V6.5ZM7,3.25A1.25,1.25,0,1,0,5.75,4.5,1.25,1.25,0,0,0,7,3.25ZM9,6.5H8V8H9V6.5Zm1.5-3.25A1.25,1.25,0,1,0,9.25,4.5,1.25,1.25,0,0,0,10.5,3.25Z"/>
</svg>
