<svg id="Layer_1" data-name="Layer 1" xmlns="http://www.w3.org/2000/svg" width="15" height="15" viewBox="0 0 15 15">
  <title>danger-15</title>
  <path d="M13.94,14.68a0.5,0.5,0,0,1-.47.32,0.51,0.51,0,0,1-.18,0L7.5,12.56,1.7,15a0.5,0.5,0,0,1-.65-0.29A0.5,0.5,0,0,1,1.34,14l4.85-2L1.34,10A0.5,0.5,0,1,1,1.7,9.07l5.8,2.41,5.8-2.41a0.5,0.5,0,1,1,.36.93L8.8,12l4.85,2A0.5,0.5,0,0,1,13.94,14.68ZM12,4.23V4.68a1,1,0,0,1-.2.59A17.72,17.72,0,0,1,10,7V8.16a0.5,0.5,0,0,1-.32.47L7.52,9.5H7.45L5.28,8.63A0.5,0.5,0,0,1,5,8.16V7A17.57,17.57,0,0,1,3.18,5.27,1,1,0,0,1,3,4.68V4.23A4.6,4.6,0,0,1,7.11,0L7.47,0h0L7.86,0A4.59,4.59,0,0,1,12,4.23ZM6,4A1,1,0,1,0,5,5,1,1,0,0,0,6,4ZM7,7A0.5,0.5,0,0,0,6,7V7.5a0.5,0.5,0,0,0,1,0V7ZM9,7A0.5,0.5,0,0,0,8,7V7.5a0.5,0.5,0,0,0,1,0V7Zm2-3a1,1,0,1,0-1,1A1,1,0,0,0,11,4Z"/>
</svg>
