<svg xmlns="http://www.w3.org/2000/svg" width="11" height="11" viewBox="0 0 11 11">
  <title>defibrillator-11</title>
  <path d="M1.42,4.7955C-0.2131,1.5291,3.9327-.6514,5.512,2.6149,7.0914-.6514,11.2371,1.5291,9.6039,4.7955c-0.0225.0377-.0483,0.0732-0.071,0.1108H8.3867L7.5586,3.252a0.65,0.65,0,0,0-1.1172,0L5,6.1338,4.5586,5.252A0.6243,0.6243,0,0,0,4,4.9063H1.4913C1.4685,4.8687,1.4427,4.8332,1.42,4.7955ZM8,6.1563a0.6243,0.6243,0,0,1-.5586-0.3457L7,4.9287,5.5586,7.8105a0.6241,0.6241,0,0,1-1.1172,0L3.6133,6.1563H2.3006a24.2269,24.2269,0,0,0,2.8973,3.449L5.2134,9.6208A0.44,0.44,0,0,0,5.835,9.6053a24.2289,24.2289,0,0,0,2.8905-3.449H8Z"/>
</svg>
