<svg id="Layer_1" data-name="Layer 1" xmlns="http://www.w3.org/2000/svg" width="11" height="11" viewBox="0 0 11 11">
  <title>doctor-11</title>
  <path d="M9.5,5.87A1.48,1.48,0,1,0,7.65,7.3V7.72a1.85,1.85,0,0,1-3.71,0A3.27,3.27,0,0,1,5.05,5.4H5A2.58,2.58,0,0,0,6.17,3.28V1.79A1.11,1.11,0,0,0,5.05.68H4.5a0.37,0.37,0,0,0,0,.74H5.05a0.37,0.37,0,0,1,.37.37V3.28h0A1.85,1.85,0,0,1,3.58,5.13V5.4h0V5.13A1.85,1.85,0,0,1,1.72,3.28h0V1.79a0.37,0.37,0,0,1,.37-0.37H2.61a0.37,0.37,0,0,0,0-.74H2.09A1.11,1.11,0,0,0,1,1.79V3.28A2.58,2.58,0,0,0,2.1,5.4h0A3.27,3.27,0,0,1,3.2,7.72a2.59,2.59,0,0,0,5.19,0V7.3A1.48,1.48,0,0,0,9.5,5.87ZM8,6.61a0.74,0.74,0,1,1,.74-0.74A0.74,0.74,0,0,1,8,6.61Z"/>
</svg>
