<svg id="Layer_1" data-name="Layer 1" xmlns="http://www.w3.org/2000/svg" width="15" height="15" viewBox="0 0 15 15">
  <title>doctor-15</title>
  <path d="M5.5,7A2.5,2.5,0,0,1,3,4.5H3v-2A0.5,0.5,0,0,1,3.5,2H4A0.5,0.5,0,0,0,4,1H3.5A1.5,1.5,0,0,0,2,2.5v2A3.49,3.49,0,0,0,3.51,7.37h0A4.41,4.41,0,0,1,5,10.5a3.5,3.5,0,0,0,7,0V9.93a2,2,0,1,0-1,0V10.5a2.5,2.5,0,0,1-5,0A4.41,4.41,0,0,1,7.5,7.37h0A3.49,3.49,0,0,0,9,4.5v-2A1.5,1.5,0,0,0,7.5,1H7A0.5,0.5,0,0,0,7,2H7.5a0.5,0.5,0,0,1,.5.5v2H8A2.5,2.5,0,0,1,5.5,7m6,2a1,1,0,1,1,1-1A1,1,0,0,1,11.5,9Z"/>
</svg>
