<?xml version="1.0" encoding="UTF-8" standalone="no"?>
<!-- Generator: Adobe Illustrator 19.2.1, SVG Export Plug-In . SVG Version: 6.00 Build 0)  -->

<svg
   xmlns:dc="http://purl.org/dc/elements/1.1/"
   xmlns:cc="http://creativecommons.org/ns#"
   xmlns:rdf="http://www.w3.org/1999/02/22-rdf-syntax-ns#"
   xmlns:svg="http://www.w3.org/2000/svg"
   xmlns="http://www.w3.org/2000/svg"
   xmlns:sodipodi="http://sodipodi.sourceforge.net/DTD/sodipodi-0.dtd"
   xmlns:inkscape="http://www.inkscape.org/namespaces/inkscape"
   version="1.1"
   id="svg2"
   inkscape:version="0.91 r13725"
   sodipodi:docname="dog-park-15.svg"
   x="0px"
   y="0px"
   width="15px"
   height="15px"
   viewBox="0 0 15 15"
   style="enable-background:new 0 0 15 15;"
   xml:space="preserve"><metadata
     id="metadata13"><rdf:RDF><cc:Work
         rdf:about=""><dc:format>image/svg+xml</dc:format><dc:type
           rdf:resource="http://purl.org/dc/dcmitype/StillImage" /><dc:title></dc:title></cc:Work></rdf:RDF></metadata><defs
     id="defs11" /><sodipodi:namedview
     pagecolor="#ffffff"
     bordercolor="#666666"
     borderopacity="1"
     objecttolerance="10"
     gridtolerance="10"
     guidetolerance="10"
     inkscape:pageopacity="0"
     inkscape:pageshadow="2"
     inkscape:window-width="1899"
     inkscape:window-height="779"
     id="namedview9"
     showgrid="false"
     inkscape:zoom="15.733333"
     inkscape:cx="-1.1122881"
     inkscape:cy="7.5"
     inkscape:window-x="0"
     inkscape:window-y="0"
     inkscape:window-maximized="0"
     inkscape:current-layer="svg2" /><g
     id="g3"><path
       style="fill:#010101;"
       d="M 10.300781 1.2207031 C 9.9144812 1.2207031 9.6 1.2 9.5 2 L 9.0996094 4.5214844 L 11.5 6.5 L 13.5 6.5 C 14.9 6.5 15 5.5410156 15 5.5410156 L 13.099609 3.3222656 C 12.399609 2.6222656 11.7 2.5 11 2.5 L 11 2 C 11 2 11.067481 1.2206031 10.300781 1.2207031 z M 4.75 1.5 C 4.75 1.5 3.7992187 1.5206031 3.1992188 1.7207031 C 2.5992187 1.9207031 2 2.6210938 2 3.6210938 L 2 7.5214844 C 2 9.2214844 1.3 9.5 1 9.5 C 1 9.5 0 9.5214844 0 10.521484 L 0 12.720703 C 0 12.720703 0.00078125 13.521484 0.80078125 13.521484 L 1 13.521484 L 1.5 13.521484 L 2 13.521484 L 2 13.021484 L 2 12.822266 C 2 12.422266 1.8 12.221094 1.5 12.121094 L 1.5 11.021484 C 2.5 11.021484 2.6 10.820703 3 10.720703 L 3.5507812 12.917969 C 3.6507813 13.217969 3.7507813 13.417578 4.0507812 13.517578 L 5.0507812 13.517578 L 6 13.5 L 6 12.699219 C 6 12.022819 5 12 5 12 L 5 9.5 L 8.5 9.5 L 9.1992188 12.121094 C 9.5992188 13.521094 10.5 13.5 10.5 13.5 L 11 13.5 L 12 13.5 L 12 12.699219 C 12 11.987419 11 12 11 12 L 11.099609 7.921875 L 8 5.5 L 3.5 5.5 L 3.5 3.5 C 3.5 3.1 3.7765 3.0053 4 3 C 4.4941 2.9882 4.75 3 4.75 3 C 5.1642 3 5.5 2.6642 5.5 2.25 C 5.5 1.8358 5.1642 1.5 4.75 1.5 z M 11.75 4 C 11.8881 4 12 4.1119 12 4.25 C 12 4.3881 11.8881 4.5 11.75 4.5 C 11.6119 4.5 11.5 4.3881 11.5 4.25 C 11.5 4.1119 11.6119 4 11.75 4 z "
       id="path5" /></g></svg>