<?xml version="1.0" encoding="utf-8"?>
<!-- Generator: Adobe Illustrator 19.2.1, SVG Export Plug-In . SVG Version: 6.00 Build 0)  -->
<!DOCTYPE svg PUBLIC "-//W3C//DTD SVG 1.1//EN" "http://www.w3.org/Graphics/SVG/1.1/DTD/svg11.dtd">
<svg version="1.1"
	 id="svg2" inkscape:version="0.91+devel+osxmenu r12911" sodipodi:docname="dog-park-15.svg" xmlns:cc="http://creativecommons.org/ns#" xmlns:dc="http://purl.org/dc/elements/1.1/" xmlns:inkscape="http://www.inkscape.org/namespaces/inkscape" xmlns:rdf="http://www.w3.org/1999/02/22-rdf-syntax-ns#" xmlns:sodipodi="http://sodipodi.sourceforge.net/DTD/sodipodi-0.dtd" xmlns:svg="http://www.w3.org/2000/svg"
	 xmlns="http://www.w3.org/2000/svg" xmlns:xlink="http://www.w3.org/1999/xlink" x="0px" y="0px" width="15px" height="15px"
	 viewBox="0 0 15 15" style="enable-background:new 0 0 15 15;" xml:space="preserve">
<g>
	<path style="fill:#010101;" d="M13.1,3.3216C12.4,2.6216,11.7,2.5,11,2.5V2c0,0,0.0667-0.7785-0.7-0.7784
		C9.9137,1.2216,9.6,1.2,9.5,2L9.1,4.5215L11.5,6.5h2c1.4,0,1.5-0.9588,1.5-0.9588L13.1,3.3216z M11.75,4.5
		c-0.1381,0-0.25-0.1119-0.25-0.25S11.6119,4,11.75,4S12,4.1119,12,4.25S11.8881,4.5,11.75,4.5z"/>
	<path style="fill:#010101;" d="M11,12l0.1-4.0784L8,5.5H3.5v-2C3.5,3.1,3.7765,3.0053,4,3c0.4941-0.0118,0.75,0,0.75,0
		C5.1642,3,5.5,2.6642,5.5,2.25S5.1642,1.5,4.75,1.5c0,0-0.95,0.0215-1.55,0.2216c-0.6,0.2-1.2,0.9-1.2,1.9v3.9
		C2,9.2216,1.3,9.5,1,9.5c0,0-1,0.0215-1,1.0215v2.2c0,0,0,0.8,0.8,0.8H1h0.5H2v-0.5v-0.2c0-0.4-0.2-0.6-0.5-0.7v-1.1
		c1,0,1.1-0.2,1.5-0.3l0.55,2.1961c0.1,0.3,0.2,0.5,0.5,0.6h1L6,13.5v-0.8C6,12.0236,5,12,5,12V9.5h3.5l0.7,2.6216
		c0.4,1.4,1.3,1.3784,1.3,1.3784H11h1v-0.8C12,11.9882,11,12,11,12z"/>
</g>
</svg>
