<?xml version="1.0" encoding="utf-8"?>
<!-- Generator: Adobe Illustrator 18.1.0, SVG Export Plug-In . SVG Version: 6.00 Build 0)  -->
<!DOCTYPE svg PUBLIC "-//W3C//DTD SVG 1.1//EN" "http://www.w3.org/Graphics/SVG/1.1/DTD/svg11.dtd">
<svg version="1.1"
	 id="svg2" sodipodi:docname="dog-park-15.svg" inkscape:version="0.91+devel+osxmenu r12911" xmlns:svg="http://www.w3.org/2000/svg" xmlns:rdf="http://www.w3.org/1999/02/22-rdf-syntax-ns#" xmlns:sodipodi="http://sodipodi.sourceforge.net/DTD/sodipodi-0.dtd" xmlns:inkscape="http://www.inkscape.org/namespaces/inkscape" xmlns:dc="http://purl.org/dc/elements/1.1/" xmlns:cc="http://creativecommons.org/ns#"
	 xmlns="http://www.w3.org/2000/svg" xmlns:xlink="http://www.w3.org/1999/xlink" x="0px" y="0px" width="15px" height="15px"
	 viewBox="-292 193 15 15" enable-background="new -292 193 15 15" xml:space="preserve">
<sodipodi:namedview  inkscape:snap-intersection-paths="true" inkscape:snap-bbox-edge-midpoints="false" inkscape:snap-smooth-nodes="true" inkscape:object-nodes="true" inkscape:object-paths="true" inkscape:bbox-nodes="true" inkscape:bbox-paths="true" inkscape:snap-bbox="true" inkscape:document-units="px" inkscape:current-layer="svg2" inkscape:pageopacity="0" inkscape:window-height="480" inkscape:window-width="640" inkscape:pageshadow="2" pagecolor="#ffffff" bordercolor="#666666" inkscape:cx="5.0980521" inkscape:cy="8.6770708" gridtolerance="10" objecttolerance="10" borderopacity="1" showgrid="false" id="namedview3432" guidetolerance="10" inkscape:zoom="22.627417" fit-margin-left="0" fit-margin-top="0" inkscape:snap-nodes="true" fit-margin-bottom="0" fit-margin-right="0">
	
		<inkscape:grid  color="#ff3f3f" type="xygrid" opacity="0.07058824" empspacing="2" spacingx="0.44117647" spacingy="0.44117647" id="grid4873">
		</inkscape:grid>
</sodipodi:namedview>
<path id="path4877" sodipodi:nodetypes="ccccccccccccccccccccccccccccccccccccccccccccccccccccc" inkscape:connector-curvature="0" d="
	M-281.8,193.7c0,0-0.6,0-0.7,0.8l-0.5,2.5l2.5,2h2c1.4,0,1.5-1,1.5-1l-2-2.2c-0.7-0.7-1.3-0.8-2-0.8v-0.5
	C-281,194.5-281,193.7-281.8,193.7z M-287.8,194c0,0-0.5,0-1.1,0.2s-1.2,0.9-1.2,1.9l0,3.9c0,1.7-0.7,2-1,2c0,0-1,0-1,1v2.2
	c0,0,0,0.8,0.8,0.8h0.2h0.5h0.5v-0.5v-0.2c0-0.4-0.2-0.6-0.5-0.7v-1.1c1,0,1.1-0.2,1.5-0.3l0.6,2.3c0.1,0.3,0.2,0.5,0.5,0.6h1h0h1
	v-0.8c0-0.8-1-0.8-1-0.8V202h3.3l0.8,2.6c0.4,1.4,1.1,1.4,1.1,1.4l0.8,0h1v-0.8c0-0.8-1-0.8-1-0.8v-4l-3-2.5h-4.5v-1.9
	c0-0.4,0.1-0.4,0.3-0.5c0.2-0.1,0.4-0.1,0.4-0.1C-286.8,195.5-286.8,194-287.8,194z M-280.3,196.5c0.1,0,0.3,0.1,0.3,0.2
	s-0.1,0.2-0.2,0.2s-0.2-0.1-0.2-0.2C-280.5,196.6-280.4,196.5-280.3,196.5z"/>
</svg>
