<?xml version="1.0" encoding="utf-8"?>
<!-- Generator: Adobe Illustrator 19.2.1, SVG Export Plug-In . SVG Version: 6.00 Build 0)  -->
<!DOCTYPE svg PUBLIC "-//W3C//DTD SVG 1.1//EN" "http://www.w3.org/Graphics/SVG/1.1/DTD/svg11.dtd">
<svg version="1.1"
	 id="svg2" inkscape:version="0.91+devel+osxmenu r12911" sodipodi:docname="dog-park-11.svg" xmlns:cc="http://creativecommons.org/ns#" xmlns:dc="http://purl.org/dc/elements/1.1/" xmlns:inkscape="http://www.inkscape.org/namespaces/inkscape" xmlns:rdf="http://www.w3.org/1999/02/22-rdf-syntax-ns#" xmlns:sodipodi="http://sodipodi.sourceforge.net/DTD/sodipodi-0.dtd" xmlns:svg="http://www.w3.org/2000/svg"
	 xmlns="http://www.w3.org/2000/svg" xmlns:xlink="http://www.w3.org/1999/xlink" x="0px" y="0px" width="11px" height="11px"
	 viewBox="0 0 11 11" style="enable-background:new 0 0 11 11;" xml:space="preserve">
<path id="rect4698" inkscape:connector-curvature="0" sodipodi:nodetypes="ccccscsccccssccccccccccccscccsccscssccsscc" d="M7.5,1
	c0,0-0.3457,0.0371-0.5,0.5l-0.5,2l2,1.5H10c1,0,1-1,1-1L9.5,2.5C9,2,8.5,2,8,2V1.5C8,1.5,8,1,7.5,1z M2.5,2
	c0,0-0.3534-0.0069-0.7227,0.1777S1,2.8333,1,3.5v0.9648C0.9996,4.4766,0.9996,4.4883,1,4.5V5v0.5C1,6.5,1,7,0.5,7C0.5,7,0,7,0,7.5
	v2c0,0,0,0.5,0.5,0.5S1,9.5,1,9.5V8c0.3537,0,0.6906-0.1371,1-0.2988V9.5c0,0,0,0.5,0.5,0.5S3,9.5,3,9.5V7h3l0.6641,1.9922
	C7,9.9999,7.5,10,7.5,10H8c0,0,0.5,0,0.5-0.5S8,9,8,9V6.5C8,5.6094,7.3678,5.2449,7,5L5.498,4H2V3.5
	c0-0.3333,0.0919-0.3624,0.2227-0.4277C2.3534,3.0069,2.5,3,2.5,3C3.1762,3.0096,3.1762,1.9904,2.5,2z"/>
</svg>
