<?xml version="1.0" encoding="utf-8"?>
<!-- Generator: Adobe Illustrator 19.2.1, SVG Export Plug-In . SVG Version: 6.00 Build 0)  -->
<!DOCTYPE svg PUBLIC "-//W3C//DTD SVG 1.1//EN" "http://www.w3.org/Graphics/SVG/1.1/DTD/svg11.dtd">
<svg version="1.1" id="Layer_1" xmlns="http://www.w3.org/2000/svg" xmlns:xlink="http://www.w3.org/1999/xlink" x="0px" y="0px"
	 width="11px" height="11px" viewBox="0 0 11 11" style="enable-background:new 0 0 11 11;" xml:space="preserve">
<path d="M10,3H5C4.7239,3,4.5,3.2239,4.5,3.5V5h-2V2.51C2.4945,1.6816,3.1616,1.0056,3.99,1C3.9933,1,3.9967,1,4,1h6V3z M4.38,8.56
	L4.38,8.56L3.49,7L2.6,8.55l0,0C2.5286,8.6893,2.4909,8.8435,2.49,9c0.0003,0.5523,0.4482,0.9998,1.0005,0.9995
	C4.0424,9.9992,4.4897,9.5519,4.49,9C4.4875,8.8468,4.4499,8.6963,4.38,8.56z"/>
</svg>
