<?xml version="1.0" encoding="utf-8"?>
<!-- Generator: Adobe Illustrator 19.2.1, SVG Export Plug-In . SVG Version: 6.00 Build 0)  -->
<!DOCTYPE svg PUBLIC "-//W3C//DTD SVG 1.1//EN" "http://www.w3.org/Graphics/SVG/1.1/DTD/svg11.dtd">
<svg version="1.1" id="Layer_1" xmlns="http://www.w3.org/2000/svg" xmlns:xlink="http://www.w3.org/1999/xlink" x="0px" y="0px"
	 width="15px" height="15px" viewBox="0 0 15 15" style="enable-background:new 0 0 15 15;" xml:space="preserve">
<path d="M5,1h9v3H6.5C6.2239,4,6,4.2239,6,4.5V7H3V3C3,1.8954,3.8954,1,5,1z M5.9,11.94L5.9,11.94L5.9,11.94L5.9,11.94L4.5,9
	l-1.39,2.93C3.0535,12.1156,3.0166,12.3067,3,12.5c-0.0021,0.8284,0.6678,1.5017,1.4962,1.5038
	C5.3246,14.0059,5.9979,13.3361,6,12.5076c0.0005-0.1946-0.0369-0.3873-0.11-0.5676H5.9z"/>
</svg>
