<svg id="Layer_1" data-name="Layer 1" xmlns="http://www.w3.org/2000/svg" width="15" height="15" viewBox="0 0 15 15">
  <title>embassy-15</title>
  <path d="M6.65,2C5.43,2,4.48,3.38,4.11,3.82A0.49,0.49,0,0,0,4,4.14v4.4a0.44,0.44,0,0,0,.72.36A3,3,0,0,1,6.65,7.73C8.06,7.73,8.6,9,10.07,9A5.28,5.28,0,0,0,12.8,7.91a0.49,0.49,0,0,0,.2-0.4V2.45A0.44,0.44,0,0,0,12.38,2a5.75,5.75,0,0,1-2.31,1.06C8.6,3.08,8.12,2,6.65,2ZM2.5,3a1,1,0,1,1,1-1A1,1,0,0,1,2.5,3ZM3,4v9.48a0.5,0.5,0,0,1-1,0V4A0.5,0.5,0,0,1,3,4Z"/>
</svg>
