<svg id="Layer_1" data-name="Layer 1" xmlns="http://www.w3.org/2000/svg" width="11" height="11" viewBox="0 0 11 11">
  <title>embassy-11</title>
  <path d="M6,1.34A4.16,4.16,0,0,0,3.59,2.45a0.34,0.34,0,0,0-.09.23v3.2a0.34,0.34,0,0,0,.57.26A3.31,3.31,0,0,1,6,5.5C7.11,5.5,7.35,6,8.5,6a3.19,3.19,0,0,0,1.83-.58,0.35,0.35,0,0,0,.16-0.29V1.87A0.34,0.34,0,0,0,10,1.55a3.17,3.17,0,0,1-1.5.52C7.35,2.08,7.15,1.34,6,1.34ZM1.5,1a1,1,0,1,1-1,1A1,1,0,0,1,1.5,1ZM2,4v6a0.5,0.5,0,0,1-1,0V4A0.5,0.5,0,0,1,2,4Z"/>
</svg>
