<svg id="Layer_1" data-name="Layer 1" xmlns="http://www.w3.org/2000/svg" width="11" height="11" viewBox="0 0 11 11">
  <title>embassy-15</title>
  <path d="M5.5,2A4.07,4.07,0,0,0,3.09,3.06,0.36,0.36,0,0,0,3,3.3V6.62a0.34,0.34,0,0,0,.57.27A3.23,3.23,0,0,1,5.5,6.22C6.61,6.22,6.85,7,8,7a3.08,3.08,0,0,0,1.83-.84A0.36,0.36,0,0,0,10,5.84V2.37A0.35,0.35,0,0,0,9.5,2,3.13,3.13,0,0,1,8,2.67C6.85,2.67,6.65,2,5.5,2Zm-4-.5a1,1,0,1,1-1,1A1,1,0,0,1,1.5,1.5ZM2,4.5v6a0.5,0.5,0,0,1-1,0v-6A0.5,0.5,0,0,1,2,4.5Z"/>
</svg>
