<svg xmlns="http://www.w3.org/2000/svg" width="11" height="11" viewBox="0 0 11 11">
  <title>emergency-phone-11</title>
  <g id="Layer_8" data-name="Layer 8">
    <g id="Layer_2" data-name="Layer 2">
      <path d="M5.35,7.91a.37.37,0,0,0,.52,0l.44-.43L8.09,9.24l-.21.24a1.6,1.6,0,0,1-1,.52h-1a1.6,1.6,0,0,1-1-.52l-.41-.29L1.78,6.478l-.26-.26a1.6,1.6,0,0,1-.52-1v-1a1.6,1.6,0,0,1,.52-1l.21-.34,1.74,1.76-.43.44a.37.37,0,0,0,0,.52Zm3,.09.52.48a.73.73,0,0,0,0-1l-.74-.74a.73.73,0,0,0-1,0l.52.52ZM3.028,2.688l.71.71.53.52a.73.73,0,0,0,0-1l-.71-.71a.73.73,0,0,0-1,0Z"/>
      <path d="M6,3.266H7.266V2h.5V3.266H8.99l.01.5H7.776L7.786,5h-.51l-.01-1.234H6Z"/>
    </g>
  </g>
</svg>
