<svg xmlns="http://www.w3.org/2000/svg" width="15" height="15" viewBox="0 0 15 15">
  <title>emergency-phone-15</title>
  <g id="Layer_8" data-name="Layer 8">
    <g id="Layer_2" data-name="Layer 2">
      <path d="M7.88,11.49a.51.51,0,0,0,.72,0l.72-.72,2.18,2.16-.37.37a2.24,2.24,0,0,1-1.44.7H8.24a2.24,2.24,0,0,1-1.45-.7l-.36-.36L2.08,8.59l-.36-.36A2.24,2.24,0,0,1,1,6.78V5.33a2.24,2.24,0,0,1,.72-1.45l.36-.36L4.26,5.69l-.73.73a.51.51,0,0,0,0,.72Zm4-.34.72.72a1,1,0,0,0,.036-1.414h0L12.6,10.42l-.72-.72a1,1,0,0,0-1.414-.036h0L10.43,9.7l.72.72Zm-8-8,.72.75.72.72a1,1,0,0,0,.036-1.414h0L5.325,3.17,4.6,2.45a1,1,0,0,0-1.414-.036h0l-.036.036Z"/>
      <path d="M10,4V2h1V4h2V5H11V7H10V5H8V4Z"/>
    </g>
  </g>
</svg>
