<svg xmlns="http://www.w3.org/2000/svg" width="15" height="15" viewBox="0 0 15 15">
  <title>maki-icon-15</title>
  <g id="_15" data-name="15">
    <g>
      <path d="M4.92,5.669l.513-.513a.24.24,0,0,0-.007-.324L3.664,3.07a.241.241,0,0,0-.332-.007l-.509.509Z"/>
      <path d="M11.211,11.961l.535-.535a.226.226,0,0,0-.042-.315L9.956,9.364a.247.247,0,0,0-.342,0l-.5.5Z"/>
      <path d="M8.777,10.2l-.283.282a.156.156,0,0,1-.215,0L4.361,6.563a.237.237,0,0,1,0-.336l.222-.222-2.1-2.1-.314.314A.215.215,0,0,0,2.1,4.4V6.984a.219.219,0,0,0,.076.187l5.416,5.416a.294.294,0,0,0,.227.1l1.186,0,1.364,0a.308.308,0,0,0,.221-.1l.29-.29Z"/>
    </g>
    <path d="M9.9,2V4h-2V5h2V7h1V5h2V4H10.937a.033.033,0,0,1-.033-.033V2Z"/>
  </g>
</svg>
