<svg xmlns="http://www.w3.org/2000/svg" width="11" height="11" viewBox="0 0 11 11">
  <title>maki-icon-11</title>
  <g id="_11" data-name="11">
    <g>
      <path d="M8.068,9.063,8.235,8.9a.262.262,0,0,0,0-.369L7.085,7.377a.231.231,0,0,0-.331,0l-.186.186Z"/>
      <path d="M6.214,7.917l-.465.465a.225.225,0,0,1-.181.078.262.262,0,0,1-.2-.091L2.726,5.721a.256.256,0,0,1-.064-.158.208.208,0,0,1,.055-.143l.5-.5-1.5-1.5-.553.553a.275.275,0,0,0-.093.185V5.979a.253.253,0,0,0,.079.162L2.568,7.563,5,9.993a.282.282,0,0,0,.175.07H6.921a.276.276,0,0,0,.222-.074l.572-.572Z"/>
      <path d="M3.568,4.564l.185-.186a.251.251,0,0,0,0-.336L2.618,2.906a.251.251,0,0,0-.392,0l-.157.157Z"/>
    </g>
    <path d="M7.063,2.058v1L5.532,3.027v1l1.508.031a.023.023,0,0,1,.023.024L7.032,5.589h1l.031-1.508a.023.023,0,0,1,.023-.023H9.563v-1H8.086a.023.023,0,0,1-.023-.023V1.558h-1Z"/>
  </g>
</svg>
