<svg xmlns="http://www.w3.org/2000/svg" width="15" height="15" viewBox="0 0 15 15">
  <title>emergency-phone-15</title>
  <g id="Layer_2" data-name="Layer 2">
    <path d="M8.855,10.49a.51.51,0,0,0,.72,0l.72-.72,2.18,2.16-.37.37a2.24,2.24,0,0,1-1.44.7H9.215a2.24,2.24,0,0,1-1.45-.7l-.36-.36L3.055,7.59l-.36-.36a2.24,2.24,0,0,1-.72-1.45V4.33a2.24,2.24,0,0,1,.72-1.45l.36-.36,2.18,2.17-.73.73a.51.51,0,0,0,0,.72Zm4-.34.72.72a1,1,0,0,0,.036-1.414l-.036-.036-.72-.72a1,1,0,0,0-1.414-.036l-.036.036.72.72Zm-8-8,.72.75.72.72a1,1,0,0,0,.036-1.414L6.3,2.17l-.72-.72a1,1,0,0,0-1.414-.036l-.036.036Z"/>
    <path d="M10,3.5v-2h1v2h2v1H11v2H10v-2H8v-1Z"/>
  </g>
</svg>
