<svg id="Layer_1" data-name="Layer 1" xmlns="http://www.w3.org/2000/svg" width="15" height="15" viewBox="0 0 15 15">
  <title>emergency-phone-15</title>
  <path d="M7.935,11.376a.51.51,0,0,0,.72,0l.72-.72,2.18,2.16-.37.37a2.24,2.24,0,0,1-1.44.7H8.3a2.24,2.24,0,0,1-1.45-.7l-5.07-5.07a2.24,2.24,0,0,1-.72-1.45V5.216a2.24,2.24,0,0,1,.72-1.45l.36-.36,2.18,2.17-.73.73a.51.51,0,0,0,0,.72Zm4.72.38a1,1,0,0,0,.036-1.414h0l-.036-.036-.72-.72a1,1,0,0,0-1.414-.036h0l-.036.036Zm-7.28-7.25a1,1,0,0,0,.036-1.414h0l-.756-.756A1,1,0,0,0,3.241,2.3h0L3.2,2.336ZM10,2V4H8V5h2V7h1V5h2V4H11V2Z"/>
</svg>
