<svg id="Layer_1" data-name="Layer 1" xmlns="http://www.w3.org/2000/svg" width="8.5" height="8.988" viewBox="0 0 8.5 8.988">
  <title>emergency-phone-11</title>
  <g id="Layer_2" data-name="Layer 2">
    <path d="M5.35,7.9a.37.37,0,0,0,.52,0l.44-.43,1.78,1.76-.21.24a1.6,1.6,0,0,1-1,.52h-1a1.6,1.6,0,0,1-1-.52l-.41-.29L1.78,6.468l-.26-.26a1.6,1.6,0,0,1-.52-1v-1a1.6,1.6,0,0,1,.52-1l.21-.34,1.74,1.76-.43.44a.37.37,0,0,0,0,.52Zm3,.09.52.48a.73.73,0,0,0,0-1l-.74-.74a.73.73,0,0,0-1,0l.52.52ZM3.028,2.678l.71.71.53.52a.73.73,0,0,0,0-1l-.71-.71a.73.73,0,0,0-1,0Z" transform="translate(-1 -1)"/>
    <path d="M8,1V2.5H9.5v1H8V5H7V3.5H5.5v-1H7V1Z" transform="translate(-1 -1)"/>
  </g>
</svg>
