<svg id="Layer_1" data-name="Layer 1" xmlns="http://www.w3.org/2000/svg" width="11" height="11" viewBox="0 0 11 11">
  <title>emergency-phone-11</title>
  <path d="M8.886,8.53a.73.73,0,0,0,0-1l-.74-.74a.73.73,0,0,0-1,0Zm-4.6-4.56a.73.73,0,0,0,0-1l-.71-.71a.73.73,0,0,0-1,0ZM3.056,5.65l2.31,2.31a.37.37,0,0,0,.52,0l.44-.43,1.76,1.74a2.27,2.27,0,0,1-1.34.73h-1a1.345,1.345,0,0,1-1-.52L1.536,6.27a1.345,1.345,0,0,1-.52-1v-1a2.27,2.27,0,0,1,.73-1.34l1.74,1.76-.43.44a.37.37,0,0,0,0,.52"/>
  <polygon points="8 2.5 6.5 2.5 6.5 3.5 8 3.5 8 5 9 5 9 3.5 10.5 3.5 10.5 2.5 9 2.5 9 1 8 1 8 2.5"/>
</svg>
