<svg xmlns="http://www.w3.org/2000/svg" width="15" height="15" viewBox="0 0 15 15">
  <title>entrance-alt1-15</title>
  <g id="Layer_10" data-name="Layer 10">
    <g>
      <path d="M6.631,10.867,10,7.5l0,0,0,0L6.631,4.129a.249.249,0,0,0-.352,0l-.354.354a.249.249,0,0,0,0,.352l.03.03,0,0L8.093,7.01,1.249,7A.249.249,0,0,0,1,7.25v.5A.249.249,0,0,0,1.249,8l6.823.01L5.952,10.131h0l-.028.028a.249.249,0,0,0,0,.352l.354.354A.249.249,0,0,0,6.631,10.867Z"/>
      <path d="M12.5,1h-6a.5.5,0,0,0-.5.5v.25a.25.25,0,0,0,.5,0V1.5h5.75a.25.25,0,0,1,.25.25v11.5a.25.25,0,0,1-.25.25H6.75a.25.25,0,0,1-.25-.25.25.25,0,0,0-.5,0v.25a.5.5,0,0,0,.5.5h6a.5.5,0,0,0,.5-.5V1.5A.5.5,0,0,0,12.5,1Z"/>
    </g>
  </g>
</svg>
