<svg xmlns="http://www.w3.org/2000/svg" width="15" height="15" viewBox="0 0 15 15">
  <title>entrance-alt1-15</title>
  <g id="Layer_9" data-name="Layer 9">
    <g>
      <path d="M13,13.13a.248.248,0,0,1-.25.25.355.355,0,0,1-.1-.02.242.242,0,0,1-.15-.23.25.25,0,0,1,.5,0Z"/>
      <path d="M12.75,3.42a.25.25,0,0,1,0-.5.355.355,0,0,1,.1.02.242.242,0,0,1,.15.23A.248.248,0,0,1,12.75,3.42Z"/>
      <path d="M8.35,1.14a.242.242,0,0,1,.15.23.25.25,0,1,1-.25-.25A.355.355,0,0,1,8.35,1.14Z"/>
      <path d="M8.25,2.87a.248.248,0,0,1,.25.25.25.25,0,1,1-.5,0A.248.248,0,0,1,8.25,2.87Z"/>
      <path d="M8.25,11.1a.258.258,0,0,1,.14.22.248.248,0,0,1-.25.25.3.3,0,0,1-.1-.02.253.253,0,0,1-.15-.23.292.292,0,0,1,.02-.09.262.262,0,0,1,.23-.16.12.12,0,0,1,.08.02A.037.037,0,0,1,8.25,11.1Z"/>
      <path d="M8.25,1.62a.248.248,0,0,0,.25-.25.242.242,0,0,0-.15-.23l4.5,1.8a.355.355,0,0,0-.1-.02.25.25,0,1,0,.25.25v9.96a.25.25,0,0,0-.5,0,.242.242,0,0,0,.15.23L8.04,11.55a.3.3,0,0,0,.1.02.248.248,0,0,0,.25-.25.258.258,0,0,0-.14-.22l4.25,1.66V3.34l-4-1.6V3.12a.25.25,0,0,0-.5,0V1.37A.248.248,0,0,0,8.25,1.62Z"/>
    </g>
    <g>
      <path d="M10.54,7.27a.251.251,0,0,1,0,.46.3.3,0,0,1-.1.02.25.25,0,1,1,0-.5A.3.3,0,0,1,10.54,7.27Z"/>
      <path d="M10.54,7.27a.3.3,0,0,0-.1-.02.25.25,0,1,0,0,.5.3.3,0,0,0,.1-.02L6.37,9.82A.261.261,0,0,0,6.5,9.6a.25.25,0,0,0-.5,0V8H1V7H6V5.4a.25.25,0,0,0,.5,0,.287.287,0,0,0-.07-.18Z"/>
      <path d="M6.43,5.22a.287.287,0,0,1,.07.18.25.25,0,1,1-.25-.25.12.12,0,0,1,.08.02A.191.191,0,0,1,6.43,5.22Z"/>
      <path d="M6.5,9.6a.261.261,0,0,1-.13.22.06.06,0,0,1-.04.01.12.12,0,0,1-.08.02A.254.254,0,0,1,6,9.6a.25.25,0,0,1,.5,0Z"/>
    </g>
  </g>
</svg>
