<svg id="Layer_1" data-name="Layer 1" xmlns="http://www.w3.org/2000/svg" width="11" height="11" viewBox="0 0 11 11">
  <title>entrance-11</title>
  <path d="M4,2.25A0.75,0.75,0,1,1,4.75,3,0.75,0.75,0,0,1,4,2.25ZM9.27,4H7.88a0.73,0.73,0,0,0-.52.21l-4,4a0.73,0.73,0,0,1-.51.21H1.73A0.73,0.73,0,0,0,1,9.15H1a0.73,0.73,0,0,0,.73.73H3.62a0.73,0.73,0,0,0,.51-0.21l4-4A0.73,0.73,0,0,1,8.61,5.5H9.27A0.73,0.73,0,0,0,10,4.77h0A0.73,0.73,0,0,0,9.27,4ZM4.75,3.5A0.75,0.75,0,0,0,4,4.25V6L5.5,4.5V4.25A0.75,0.75,0,0,0,4.75,3.5Z"/>
</svg>
