<svg xmlns="http://www.w3.org/2000/svg" width="11" height="11" viewBox="0 0 11 11">
  <title>entrance-alt1-11</title>
  <g id="Layer_9" data-name="Layer 9">
    <g>
      <path d="M9.51,2.67V9.72a.265.265,0,0,0-.53,0,.291.291,0,0,0,.14.24L5.99,8.48a.355.355,0,0,0,.1.02.254.254,0,0,0,.25-.25.25.25,0,0,0-.08-.18L9,9.35V2.8h.01a.274.274,0,0,0,.23.14A.269.269,0,0,0,9.51,2.67Z"/>
      <path d="M9.35,2.43a.265.265,0,0,1,.16.24.269.269,0,0,1-.27.27.274.274,0,0,1-.23-.14V2.79a.259.259,0,0,1,.23-.38A.425.425,0,0,1,9.35,2.43Z"/>
      <path d="M9.35,2.43a.425.425,0,0,0-.11-.02.259.259,0,0,0-.23.38V2.8H9L6,1.53V2.75a.25.25,0,0,0-.5,0V1.19a.31.31,0,1,0,.62,0A.3.3,0,0,0,5.97.93Z"/>
      <path d="M9.24,9.46a.265.265,0,1,1,0,.53.108.108,0,0,1-.08-.02c-.02,0-.03,0-.04-.01a.291.291,0,0,1-.14-.24A.265.265,0,0,1,9.24,9.46Z"/>
      <path d="M6.26,8.07a.25.25,0,0,1,.08.18.254.254,0,0,1-.25.25.355.355,0,0,1-.1-.02.242.242,0,0,1-.15-.23.232.232,0,0,1,.21-.24l.16.03A.085.085,0,0,1,6.26,8.07Z"/>
      <path d="M6.21,8.04l-.16-.03A.06.06,0,0,1,6.09,8,.192.192,0,0,1,6.21,8.04Z"/>
      <path d="M5.97.93a.3.3,0,0,1,.15.26A.31.31,0,1,1,5.81.88a.2.2,0,0,1,.08.01Z"/>
      <path d="M5.97.93,5.89.89A.2.2,0,0,1,5.97.93Z" fill="#42ccc8"/>
      <path d="M6,2.75a.246.246,0,0,1-.1.2l-.4-.18V2.75a.25.25,0,0,1,.5,0Z"/>
      <path d="M5.5,2.77l.4.18A.246.246,0,0,1,5.75,3,.251.251,0,0,1,5.5,2.77Z"/>
    </g>
    <g>
      <path d="M4,5V4.42a.26.26,0,1,0,.36-.24L6.51,5.26a.108.108,0,0,0-.08-.02.26.26,0,0,0,0,.52.108.108,0,0,0,.08-.02L4.4,6.8a.275.275,0,0,0,.12-.22.26.26,0,0,0-.52,0V6H1V5Z"/>
      <path d="M6.55,5.28a.246.246,0,0,1,.14.22.274.274,0,0,1-.14.23c-.01.01-.02.01-.04.01a.108.108,0,0,1-.08.02.26.26,0,0,1,0-.52.108.108,0,0,1,.08.02C6.53,5.26,6.54,5.26,6.55,5.28Z"/>
      <path d="M4.36,4.18A.26.26,0,1,1,4,4.42a.258.258,0,0,1,.26-.26A.3.3,0,0,1,4.36,4.18Z"/>
      <path d="M4.52,6.58a.275.275,0,0,1-.12.22c-.01.01-.02.01-.04.02a.3.3,0,0,1-.1.02A.258.258,0,0,1,4,6.58a.26.26,0,0,1,.52,0Z"/>
    </g>
  </g>
</svg>
