<svg id="Layer_1" data-name="Layer 1" xmlns="http://www.w3.org/2000/svg" width="11" height="11" viewBox="0 0 11 11">
  <title>entrance-11</title>
  <path d="M3,2A1,1,0,1,1,4,3,1,1,0,0,1,3,2Zm8,2.54A1.55,1.55,0,0,1,9.46,6.08H8.35a0.2,0.2,0,0,0-.14.06L4.7,10.64a1.19,1.19,0,0,1-.85.35H1.56a1.54,1.54,0,1,1,0-3.09H3V4.49a1,1,0,0,1,2,0V5.66L6.77,3.39A1.22,1.22,0,0,1,7.66,3h1.8A1.55,1.55,0,0,1,11,4.53Zm-1,0A0.54,0.54,0,0,0,9.46,4H7.66A0.2,0.2,0,0,0,7.52,4L4,8.51a1.22,1.22,0,0,1-.89.4H1.56a0.54,0.54,0,1,0,0,1.09H3.86A0.2,0.2,0,0,0,4,10L7.46,5.47a1.22,1.22,0,0,1,.89-0.4H9.46A0.54,0.54,0,0,0,10,4.53Z" fill="#231f20"/>
</svg>
