<svg id="Layer_1" data-name="Layer 1" xmlns="http://www.w3.org/2000/svg" width="15" height="15" viewBox="0 0 15 15">
  <title>entrance-alt1-15</title>
  <path d="M6.554,9.639a.5.5,0,0,0,.707.707L9.928,7.669a.25.25,0,0,0,0-.354h0L7.261,4.639a.5.5,0,0,0-.707.707L8.2,6.993H1.5a.5.5,0,1,0,0,1H8.2Z"/>
  <path d="M5,1A1,1,0,0,0,4,2v.5H5V2h6.5a.5.5,0,0,1,.5.5v10a.5.5,0,0,1-.5.5H5v-.5H4V13a1,1,0,0,0,1,1h7a1,1,0,0,0,1-1V2a1,1,0,0,0-1-1Z"/>
  <g>
    <circle cx="4.5" cy="2.5" r="0.5"/>
    <circle cx="4.5" cy="12.5" r="0.5"/>
    <path d="M5.5,2H5v.5A.5.5,0,0,1,5.5,2Z"/>
    <path d="M5,12.5V13h.5A.5.5,0,0,1,5,12.5Z"/>
  </g>
</svg>
