<svg id="Layer_1" data-name="Layer 1" xmlns="http://www.w3.org/2000/svg" width="11" height="11" viewBox="0 0 11 11">
  <title>entrance-alt1-11</title>
  <g>
    <path d="M9.5,1h-5a.5.5,0,0,0-.5.5v.25a.25.25,0,0,0,.5,0,.25.25,0,0,1,.25-.25h4.5a.25.25,0,0,1,.25.25v7.5a.25.25,0,0,1-.25.25H4.75a.25.25,0,0,1-.25-.25.25.25,0,0,0-.5,0V9.5a.5.5,0,0,0,.5.5h5a.5.5,0,0,0,.5-.5v-8A.5.5,0,0,0,9.5,1Z"/>
    <path d="M4.854,7.148a.5.5,0,0,0,.707.707L7.729,5.677a.25.25,0,0,0,0-.358L5.574,3.141a.5.5,0,0,0-.707.707L6,5H1.5a.5.5,0,0,0,0,1H6Z"/>
  </g>
</svg>
