<svg id="Layer_1" data-name="Layer 1" xmlns="http://www.w3.org/2000/svg" width="15" height="15" viewBox="0 0 15 15">
  <title>entrance-alt1-15</title>
  <path d="M6.852,9.646a.5.5,0,0,0,.707.707l2.667-2.677a.25.25,0,0,0,0-.354l0,0L7.559,4.646a.5.5,0,0,0-.707.707L8.5,7h-7a.5.5,0,0,0,0,1h7Z"/>
  <path d="M7,1A1,1,0,0,0,6,2v.5H7V2h4.5a.5.5,0,0,1,.5.5v10a.5.5,0,0,1-.5.5H7v-.5H6V13a1,1,0,0,0,1,1H12a1,1,0,0,0,1-1V2a1,1,0,0,0-1-1Z"/>
  <g>
    <circle cx="6.5" cy="2.5" r="0.5"/>
    <circle cx="6.5" cy="12.5" r="0.5"/>
    <path d="M7.5,2H7v.5A.5.5,0,0,1,7.5,2Z"/>
    <path d="M7,12.5V13h.5A.5.5,0,0,1,7,12.5Z"/>
  </g>
</svg>
