<svg id="Layer_1" data-name="Layer 1" xmlns="http://www.w3.org/2000/svg" width="15" height="15" viewBox="0 0 15 15">
  <title>entrance-15</title>
  <path d="M13,3H10.42a1.51,1.51,0,0,0-1.06.44L7,5.79V4.5a1,1,0,0,0-2,0V7.79L3.94,8.85A0.49,0.49,0,0,1,3.59,9H2a2,2,0,0,0,0,4H4.58a1.49,1.49,0,0,0,1.06-.44l5.41-5.41A0.5,0.5,0,0,1,11.41,7H13A2,2,0,0,0,13,3Zm0,3H11.41a1.51,1.51,0,0,0-1.06.44L4.94,11.85h0a0.5,0.5,0,0,1-.36.15H2a1,1,0,0,1,0-2H3.59a1.49,1.49,0,0,0,1.06-.44l5.42-5.42A0.5,0.5,0,0,1,10.42,4H13A1,1,0,0,1,13,6ZM5,2A1,1,0,1,1,6,3,1,1,0,0,1,5,2Z" fill="#231f20"/>
</svg>
