<svg id="Layer_1" data-name="Layer 1" xmlns="http://www.w3.org/2000/svg" width="15" height="15" viewBox="0 0 15 15">
  <title>fast-food-15</title>
  <path d="M14,8a1,1,0,0,1-1,1H2A1,1,0,0,1,2,7H13A1,1,0,0,1,14,8ZM3.5,10H2v1.5A1.5,1.5,0,0,0,3.5,13h8A1.5,1.5,0,0,0,13,11.5V10H3.5ZM3,6H2V4A2,2,0,0,1,4,2h7a2,2,0,0,1,2,2V6H3Zm8-1.5A0.5,0.5,0,1,0,11.5,4,0.5,0.5,0,0,0,11,4.5Zm-2-1A0.5,0.5,0,1,0,9.5,3,0.5,0.5,0,0,0,9,3.5Zm-2,1A0.5,0.5,0,1,0,7.5,4,0.5,0.5,0,0,0,7,4.5Zm-2-1A0.5,0.5,0,1,0,5.5,3,0.5,0.5,0,0,0,5,3.5Zm-2,1A0.5,0.5,0,1,0,3.5,4,0.5,0.5,0,0,0,3,4.5Z"/>
</svg>
