<svg id="Layer_1" data-name="Layer 1" xmlns="http://www.w3.org/2000/svg" width="15" height="15" viewBox="0 0 15 15">
  <title>fast-food-15</title>
  <path d="M11,1H4A2,2,0,0,0,2,3V5H13V3A2,2,0,0,0,11,1ZM3.5,4A0.5,0.5,0,1,1,4,3.5,0.5,0.5,0,0,1,3.5,4Zm2-1A0.5,0.5,0,1,1,6,2.5,0.5,0.5,0,0,1,5.5,3Zm2,1A0.5,0.5,0,1,1,8,3.5,0.5,0.5,0,0,1,7.5,4Zm2-1A0.5,0.5,0,1,1,10,2.5,0.5,0.5,0,0,1,9.5,3Zm2,1A0.5,0.5,0,1,1,12,3.5,0.5,0.5,0,0,1,11.5,4ZM14,8a1,1,0,0,1-1,1H2A1,1,0,0,1,2,7H13A1,1,0,0,1,14,8Zm-1,3v1.5A1.5,1.5,0,0,1,11.5,14h-8A1.5,1.5,0,0,1,2,12.5V11H13Z"/>
</svg>
