<?xml version="1.0" encoding="utf-8"?>
<!-- Generator: Adobe Illustrator 18.1.0, SVG Export Plug-In . SVG Version: 6.00 Build 0)  -->
<!DOCTYPE svg PUBLIC "-//W3C//DTD SVG 1.1//EN" "http://www.w3.org/Graphics/SVG/1.1/DTD/svg11.dtd">
<svg version="1.1"
	 id="svg4619" sodipodi:docname="fast-food-15.svg" inkscape:version="0.91 r13725" xmlns:svg="http://www.w3.org/2000/svg" xmlns:rdf="http://www.w3.org/1999/02/22-rdf-syntax-ns#" xmlns:sodipodi="http://sodipodi.sourceforge.net/DTD/sodipodi-0.dtd" xmlns:inkscape="http://www.inkscape.org/namespaces/inkscape" xmlns:dc="http://purl.org/dc/elements/1.1/" xmlns:cc="http://creativecommons.org/ns#"
	 xmlns="http://www.w3.org/2000/svg" xmlns:xlink="http://www.w3.org/1999/xlink" x="0px" y="0px" width="15px" height="15px"
	 viewBox="-292 193 15 15" enable-background="new -292 193 15 15" xml:space="preserve">
<path id="rect3337" sodipodi:nodetypes="cccccccscccccccccccccccccccccccccccccccccccccccssccssscccscccc" inkscape:connector-curvature="0" d="
	M-288,194c0,0-3,0-3,3l0,1.7l0.8,0.2h11.5l0.8-0.2l0-1.8c0-3-3-3-3.1-3H-288z M-286.5,195c0.3,0,0.5,0.2,0.5,0.4l0,0
	c0,0.3-0.2,0.5-0.4,0.5c-0.3,0-0.5-0.2-0.5-0.4C-287,195.3-286.8,195-286.5,195C-286.5,195-286.5,195-286.5,195z M-282.5,195
	L-282.5,195c0.3,0,0.5,0.2,0.5,0.4l0,0c0,0.3-0.2,0.5-0.4,0.5c-0.3,0-0.5-0.2-0.5-0.4C-283,195.3-282.8,195-282.5,195
	C-282.5,195-282.5,195-282.5,195z M-288.5,197L-288.5,197c0.3,0,0.5,0.2,0.5,0.4l0,0c0,0.3-0.2,0.5-0.4,0.5c-0.3,0-0.5-0.2-0.5-0.4
	C-289,197.3-288.8,197-288.5,197C-288.5,197-288.5,197-288.5,197z M-284.5,197c0.3,0,0.5,0.2,0.5,0.4l0,0c0,0.3-0.2,0.5-0.4,0.5
	c-0.3,0-0.5-0.2-0.5-0.4C-285,197.3-284.8,197-284.5,197C-284.5,197-284.5,197-284.5,197z M-280.5,197c0.3,0,0.5,0.2,0.5,0.4l0,0
	c0,0.3-0.2,0.5-0.4,0.5c-0.3,0-0.5-0.2-0.5-0.4C-281,197.3-280.8,197-280.5,197C-280.5,197-280.5,197-280.5,197L-280.5,197z
	 M-290.5,200c-0.8,0-1.5,0.7-1.5,1.5s0.7,1.5,1.5,1.5h12c0.8,0,1.5-0.7,1.5-1.5s-0.7-1.5-1.5-1.5H-290.5z M-290,204l-1,0.2l0,0.7
	c0,2,2,2,6.5,2s6.5,0,6.5-2l0-0.8l-1-0.2H-290z"/>
</svg>
