<svg id="Layer_1" data-name="Layer 1" xmlns="http://www.w3.org/2000/svg" width="11" height="11" viewBox="0 0 11 11">
  <title>fence-11</title>
  <path d="M9.5,7H9V5h.5a.5.5,0,0,0,0-1H9V3l-.278-.555a.254.254,0,0,0-.443,0L8,3V4H7V3l-.278-.555a.254.254,0,0,0-.443,0L6,3V4H5V3l-.278-.555a.254.254,0,0,0-.443,0L4,3V4H3V3l-.278-.555a.254.254,0,0,0-.443,0L2,3V4H1.5a.5.5,0,0,0,0,1H2V7H1.5a.5.5,0,0,0,0,1H2v.5a.5.5,0,0,0,1,0V8H4v.5a.5.5,0,0,0,1,0V8H6v.5a.5.5,0,0,0,1,0V8H8v.5a.5.5,0,0,0,1,0V8h.5a.5.5,0,0,0,0-1ZM3,7V5H4V7ZM5,7V5H6V7ZM7,7V5H8V7Z"/>
</svg>
