<svg id="Layer_1" data-name="Layer 1" xmlns="http://www.w3.org/2000/svg" width="15" height="15" viewBox="0 0 15 15">
  <title>ferry-15</title>
  <path d="M5.33,11a3,3,0,0,1,1.85.67l0.26,0.23,0.05,0,0.31-.28a2.89,2.89,0,0,1,3.44-.18L13.5,7,12,6V2.45A1.54,1.54,0,0,0,10.5,1H10A0.94,0.94,0,0,0,9,0H6A0.94,0.94,0,0,0,5,1H4.5A1.54,1.54,0,0,0,3,2.45V6L1.5,7l2.25,4.53A2.93,2.93,0,0,1,5.33,11ZM4,2.45A0.47,0.47,0,0,1,4.5,2h6a0.47,0.47,0,0,1,.5.5v3l-3.5-2L4,5.45v-3ZM14,12v1a1,1,0,0,0-.68.34,2.15,2.15,0,0,1-1,.6,1.91,1.91,0,0,1-1.77-.37l-0.39-.35a0.78,0.78,0,0,0-1.1,0c-0.14.12-.27,0.25-0.42,0.37a1.92,1.92,0,0,1-2.48-.07L5.82,13.2a0.76,0.76,0,0,0-1,0c-0.19.15-.36,0.32-0.55,0.47a1.91,1.91,0,0,1-2.35-.06l-0.31-.27A0.94,0.94,0,0,0,1,13V12a1.26,1.26,0,0,1,.75.14,6.2,6.2,0,0,1,.79.58,0.84,0.84,0,0,0,.81.25,0.93,0.93,0,0,0,.31-0.16c0.16-.12.29-0.26,0.45-0.39a1.92,1.92,0,0,1,2.45,0c0.16,0.13.31,0.28,0.47,0.41a0.76,0.76,0,0,0,1,0c0.16-.13.31-0.28,0.47-0.41a1.92,1.92,0,0,1,2.46,0c0.15,0.13.29,0.27,0.44,0.39a0.76,0.76,0,0,0,1,0l0.47-.41A1.79,1.79,0,0,1,14,12Z"/>
</svg>
