<svg id="Layer_1" data-name="Layer 1" xmlns="http://www.w3.org/2000/svg" width="11" height="11" viewBox="0 0 11 11">
  <title>ferry-11</title>
  <path d="M11,9.45v0.77a0.83,0.83,0,0,0-.57.26,1.86,1.86,0,0,1-.81.46,1.74,1.74,0,0,1-1.49-.29l-0.33-.27a0.71,0.71,0,0,0-.93,0c-0.12.09-.23,0.2-0.35,0.28a1.75,1.75,0,0,1-2.1-.05l-0.33-.27a0.69,0.69,0,0,0-.83,0c-0.16.11-.3,0.25-0.46,0.36a1.75,1.75,0,0,1-2,0l-0.26-.21A0.82,0.82,0,0,0,0,10.22V9.45a1.16,1.16,0,0,1,.63.11A5.26,5.26,0,0,1,1.3,10,0.76,0.76,0,0,0,2,10.2a0.82,0.82,0,0,0,.26-0.12c0.13-.09.25-0.2,0.38-0.3a1.75,1.75,0,0,1,2.07,0l0.4,0.31a0.69,0.69,0,0,0,.81,0l0.4-.31a1.75,1.75,0,0,1,2.08,0l0.38,0.3a0.69,0.69,0,0,0,.82,0L10,9.77A1.61,1.61,0,0,1,11,9.45ZM2.61,7.61L1,5l1-.91V1.15A1.18,1.18,0,0,1,3.19,0H7.81A1.18,1.18,0,0,1,9,1.15V4.09L10,5,8.39,7.62a2.22,2.22,0,0,0-2.65.14L5.5,8l0,0-0.2-.18A2.22,2.22,0,0,0,2.61,7.61Zm0.2-4L5.5,2,8.19,3.63V1.15A0.36,0.36,0,0,0,7.81.77H3.19a0.36,0.36,0,0,0-.38.38V3.63Z"/>
</svg>
