<?xml version="1.0" encoding="UTF-8" standalone="no"?>
<!-- Created with Inkscape (http://www.inkscape.org/) -->

<svg
   xmlns:dc="http://purl.org/dc/elements/1.1/"
   xmlns:cc="http://creativecommons.org/ns#"
   xmlns:rdf="http://www.w3.org/1999/02/22-rdf-syntax-ns#"
   xmlns:svg="http://www.w3.org/2000/svg"
   xmlns="http://www.w3.org/2000/svg"
   xmlns:sodipodi="http://sodipodi.sourceforge.net/DTD/sodipodi-0.dtd"
   xmlns:inkscape="http://www.inkscape.org/namespaces/inkscape"
   version="1.1"
   width="11"
   height="11"
   id="svg4764"
   inkscape:version="0.91+devel+osxmenu r12911"
   sodipodi:docname="ferry-11.svg"
   viewBox="0 0 11 11">
  <sodipodi:namedview
     pagecolor="#ffffff"
     bordercolor="#666666"
     borderopacity="1"
     objecttolerance="10"
     gridtolerance="10"
     guidetolerance="10"
     inkscape:pageopacity="0"
     inkscape:pageshadow="2"
     inkscape:window-width="975"
     inkscape:window-height="716"
     id="namedview3376"
     inkscape:document-units="px"
     showgrid="true"
     inkscape:zoom="22.627417"
     inkscape:cx="2.5919409"
     inkscape:cy="7.9822884"
     inkscape:current-layer="svg4764"
     inkscape:snap-bbox="true"
     inkscape:bbox-paths="true"
     inkscape:snap-bbox-edge-midpoints="true"
     inkscape:bbox-nodes="true"
     inkscape:snap-bbox-midpoints="true"
     inkscape:object-paths="true"
     inkscape:snap-intersection-paths="true"
     inkscape:object-nodes="true"
     inkscape:snap-smooth-nodes="true"
     inkscape:window-x="0"
     inkscape:window-y="0"
     inkscape:window-maximized="0"
     showborder="true"
     showguides="false"
     inkscape:guide-bbox="true">
    <inkscape:grid
       type="xygrid"
       id="grid3333"
       spacingx="0.25"
       spacingy="0.25"
       color="#ff0009"
       opacity="0.1254902"
       empspacing="4" />
    <sodipodi:guide
       position="5.5,10.25"
       orientation="1,0"
       id="guide4707" />
  </sodipodi:namedview>
  <defs
     id="defs4766" />
  <metadata
     id="metadata4769">
    <rdf:RDF>
      <cc:Work
         rdf:about="">
        <dc:format>image/svg+xml</dc:format>
        <dc:type
           rdf:resource="http://purl.org/dc/dcmitype/StillImage" />
        <dc:title></dc:title>
      </cc:Work>
    </rdf:RDF>
  </metadata>
  <path
     style="fill:#000000;fill-opacity:1"
     d="M 3.5 0 C 3.5 0 2 0 2 1.5 L 2 4.4453125 L 1 5 L 2.71875 8 L 3.25 8 C 3.8935958 8 4.3744687 8.2753906 4.7265625 8.4628906 C 5.0786563 8.6503896 5.301971 8.75 5.5 8.75 C 5.698029 8.75 5.9213437 8.6503896 6.2734375 8.4628906 C 6.6255313 8.2753906 7.1124319 8.087877 7.75 8 L 8.28125 8 L 10 5 L 9 4.4453125 L 9 1.5 C 9 1.5 9 0 7.5 0 L 3.5 0 z M 3.5 1 L 7.5 1 C 7.5 1 8 1 8 1.5 L 8 3.8886719 L 5.5 2.5 L 3 3.8886719 L 3 1.5 C 3 1.5 3 1 3.5 1 z M 2.25 9 C 2.25 9 1.5 9 1.5 9.625 C 1.5 10.25 2.25 10.25 2.25 10.25 L 3.25 10.25 C 3.448029 10.25 3.6713437 10.34961 4.0234375 10.537109 C 4.3755313 10.724609 4.8564042 11 5.5 11 C 6.1435958 11 6.6244687 10.724609 6.9765625 10.537109 C 7.3286563 10.349609 7.551971 10.25 7.75 10.25 L 8.75 10.25 C 8.75 10.25 9.5 10.25 9.5 9.625 C 9.5 9 8.75 9 8.75 9 L 7.75 9 C 7.1064042 9 6.6255313 9.2753906 6.2734375 9.4628906 C 5.9213437 9.6503906 5.698029 9.75 5.5 9.75 C 5.301971 9.75 5.0786563 9.6503896 4.7265625 9.4628906 C 4.3744687 9.2753906 3.8935958 9 3.25 9 L 2.25 9 z "
     id="path4715" />
</svg>
