<?xml version="1.0" encoding="UTF-8"?>
<svg version="1.1" id="ferry-JP-11" xmlns="http://www.w3.org/2000/svg" width="11px" height="11px" viewBox="0 0 11 11">
  <path d="M8.9504,4.3636C8.93,4.2804,8.746,3.5373,8.5277,3.0743C8.2884,2.5658,6.8095-0.0159,5.5674-0.0159&#xA;&#x9;c-1.2417,0-2.7203,2.5817-2.9596,3.0902C2.3892,3.5373,2.2055,4.2808,2.1851,4.364C2.171,4.4215,2.1641,4.4808,2.1641,4.5401v5.1805&#xA;&#x9;c0,0.4117,0.3335,0.7449,0.7449,0.7449h5.3176c0.4117,0,0.7449-0.3331,0.7449-0.7449V4.5401&#xA;&#x9;C8.9715,4.4808,8.9642,4.4215,8.9504,4.3636z M7.4817,8.9756H3.6539V4.6324c0.06-0.2321,0.1866-0.6798,0.3011-0.9231&#xA;&#x9;c0.4208-0.8926,1.2167-1.8717,1.6127-2.1754c0.3965,0.3037,1.1916,1.2828,1.6121,2.175c0.1149,0.2433,0.2415,0.6914,0.3019,0.9235&#xA;&#x9;V8.9756z"/>
</svg>