<?xml version="1.0" encoding="UTF-8"?>
<svg version="1.1" id="ferry-JP" xmlns="http://www.w3.org/2000/svg" width="15" height="15" viewBox="0 0 15 15">
  <path d="M11.6104,6.3047c-0.0273-0.1118-0.2744-1.1094-0.5674-1.731c-0.3213-0.6826-2.3066-4.1484-3.9741-4.1484&#xA;&#x9;c-1.667,0-3.6519,3.4658-3.9731,4.1484c-0.2935,0.6216-0.54,1.6196-0.5674,1.7314C2.5093,6.3823,2.5,6.4619,2.5,6.5415v6.9546&#xA;&#x9;c0,0.5527,0.4478,1,1,1h7.1387c0.5527,0,1-0.4473,1-1V6.5415C11.6387,6.4619,11.6289,6.3823,11.6104,6.3047z M9.6387,12.4961H4.5&#xA;&#x9;V6.6655C4.5806,6.354,4.7505,5.7529,4.9043,5.4263c0.5649-1.1982,1.6333-2.5127,2.165-2.9204&#xA;&#x9;C7.6016,2.9136,8.6689,4.228,9.2334,5.4258C9.3877,5.7524,9.5576,6.354,9.6387,6.6655V12.4961z"/>
</svg>