<?xml version="1.0" encoding="utf-8"?>
<!-- Generator: Adobe Illustrator 18.1.0, SVG Export Plug-In . SVG Version: 6.00 Build 0)  -->
<!DOCTYPE svg PUBLIC "-//W3C//DTD SVG 1.1//EN" "http://www.w3.org/Graphics/SVG/1.1/DTD/svg11.dtd">
<svg version="1.1"
	 id="svg4619" sodipodi:docname="ferry-15.svg" inkscape:version="0.91+devel+osxmenu r12911" xmlns:svg="http://www.w3.org/2000/svg" xmlns:rdf="http://www.w3.org/1999/02/22-rdf-syntax-ns#" xmlns:sodipodi="http://sodipodi.sourceforge.net/DTD/sodipodi-0.dtd" xmlns:inkscape="http://www.inkscape.org/namespaces/inkscape" xmlns:dc="http://purl.org/dc/elements/1.1/" xmlns:cc="http://creativecommons.org/ns#"
	 xmlns="http://www.w3.org/2000/svg" xmlns:xlink="http://www.w3.org/1999/xlink" x="0px" y="0px" width="15px" height="15px"
	 viewBox="-292 193 15 15" enable-background="new -292 193 15 15" xml:space="preserve">
<sodipodi:namedview  inkscape:guide-bbox="true" inkscape:window-maximized="0" inkscape:window-y="0" inkscape:window-x="0" inkscape:window-height="728" inkscape:window-width="1008" inkscape:snap-smooth-nodes="true" inkscape:object-nodes="true" inkscape:object-paths="true" inkscape:snap-bbox-midpoints="true" inkscape:bbox-nodes="true" inkscape:current-layer="svg4619" inkscape:pageshadow="2" inkscape:document-units="px" inkscape:pageopacity="0" inkscape:snap-bbox="true" inkscape:bbox-paths="true" inkscape:snap-intersection-paths="true" scale-x="1e-05" objecttolerance="10" guidetolerance="10" gridtolerance="10" id="namedview3382" showguides="false" borderopacity="1" bordercolor="#666666" pagecolor="#ffffff" inkscape:cy="7.7271989" inkscape:cx="36.574996" inkscape:zoom="16" showgrid="false" inkscape:snap-bbox-edge-midpoints="true">
	
		<inkscape:grid  color="#ff0000" type="xygrid" spacingy="0.441175" id="grid3333" opacity="0.1254902" spacingx="0.441175" empspacing="2">
		</inkscape:grid>
	<sodipodi:guide  orientation="1,0" position="6.617625,13.676425" id="guide4828"></sodipodi:guide>
</sodipodi:namedview>
<path id="path4840" inkscape:connector-curvature="0" d="M-286,193c-0.6,0-1,0.4-1,1h-0.5c-0.8,0-1.5,0.7-1.5,1.5v3.6l-1.5,0.9
	l2.5,4h0.5c0.8,0,1.3,0.3,1.8,0.6c0.5,0.3,0.8,0.4,1.2,0.4s0.7-0.2,1.2-0.4c0.5-0.3,1-0.6,1.8-0.6h0.5l2.5-4l-1.5-0.9v-3.6
	c0-0.8-0.7-1.5-1.5-1.5h-0.5c0-0.6-0.4-1-1-1H-286z M-287.5,195h6c0.3,0,0.5,0.2,0.5,0.5v3l-3.5-2l-3.5,2v-3
	C-288,195.2-287.8,195-287.5,195z M-289,205.5c0,0-1,0-1,0.8s1,0.8,1,0.8h1.4c0.4,0,0.7,0.2,1.2,0.4s1.1,0.6,1.9,0.6
	c0.8,0,1.4-0.3,1.9-0.6s0.8-0.4,1.2-0.4h1.4c0,0,1,0,1-0.8c0-0.8-1-0.8-1-0.8h-1.4c-0.8,0-1.4,0.3-1.9,0.6s-0.8,0.4-1.2,0.4
	c-0.4,0-0.7-0.2-1.2-0.4s-1.1-0.6-1.9-0.6H-289z"/>
</svg>
