<svg id="Layer_1" data-name="Layer 1" xmlns="http://www.w3.org/2000/svg" width="11" height="11" viewBox="0 0 11 11">
  <title>ferry-11</title>
  <path d="M3.83,8a2.27,2.27,0,0,1,1.43.51l0.2,0.18,0,0,0.24-.21a2.22,2.22,0,0,1,2.65-.14L10.12,5.5,9,4.81V2A1.18,1.18,0,0,0,7.81.88H7.42A0.73,0.73,0,0,0,6.65.12H4.35a0.73,0.73,0,0,0-.77.77H3.19A1.18,1.18,0,0,0,2,2V4.81L0.88,5.5,2.61,8.33A2.25,2.25,0,0,1,3.83,8ZM2.81,2a0.36,0.36,0,0,1,.38-0.38H7.81A0.36,0.36,0,0,1,8.19,2V4.35L5.5,2.81,2.81,4.35V2Zm7.69,6.7V9.51a0.73,0.73,0,0,0-.52.26,1.66,1.66,0,0,1-.74.46,1.47,1.47,0,0,1-1.36-.29l-0.3-.27a0.6,0.6,0,0,0-.85,0c-0.11.09-.21,0.2-0.32,0.28a1.48,1.48,0,0,1-1.9-.05l-0.3-.27a0.58,0.58,0,0,0-.76,0C3.31,9.76,3.18,9.89,3,10a1.47,1.47,0,0,1-1.8,0L1,9.75A0.72,0.72,0,0,0,.5,9.51V8.74a1,1,0,0,1,.58.11,4.77,4.77,0,0,1,.61.44,0.65,0.65,0,0,0,.62.19,0.72,0.72,0,0,0,.24-0.12c0.12-.09.23-0.2,0.34-0.3a1.48,1.48,0,0,1,1.89,0L5.13,9.38a0.58,0.58,0,0,0,.74,0l0.36-.31a1.48,1.48,0,0,1,1.89,0l0.34,0.3a0.58,0.58,0,0,0,.75,0l0.36-.31A1.38,1.38,0,0,1,10.5,8.74Z"/>
</svg>
