<?xml version="1.0" encoding="utf-8"?>
<!-- Generator: Adobe Illustrator 19.2.1, SVG Export Plug-In . SVG Version: 6.00 Build 0)  -->
<!DOCTYPE svg PUBLIC "-//W3C//DTD SVG 1.1//EN" "http://www.w3.org/Graphics/SVG/1.1/DTD/svg11.dtd">
<svg version="1.1"
	 id="svg4619" inkscape:version="0.91 r13725" sodipodi:docname="fire-station-15.svg" xmlns:cc="http://creativecommons.org/ns#" xmlns:dc="http://purl.org/dc/elements/1.1/" xmlns:inkscape="http://www.inkscape.org/namespaces/inkscape" xmlns:rdf="http://www.w3.org/1999/02/22-rdf-syntax-ns#" xmlns:sodipodi="http://sodipodi.sourceforge.net/DTD/sodipodi-0.dtd" xmlns:svg="http://www.w3.org/2000/svg"
	 xmlns="http://www.w3.org/2000/svg" xmlns:xlink="http://www.w3.org/1999/xlink" x="0px" y="0px" width="15px" height="15px"
	 viewBox="0 0 15 15" style="enable-background:new 0 0 15 15;" xml:space="preserve">
<path id="path10041-3-3" inkscape:connector-curvature="0" sodipodi:nodetypes="cccsssccccsssc" d="M7.5,0.5L5,4.5l-1.5-2
	C2.9452,3.4753,0.8036,5.7924,0.8036,8.3036C0.8036,12.002,3.8017,15,7.5,15s6.6964-2.998,6.6964-6.6964
	c0-2.5112-2.1416-4.8283-2.6964-5.8036l-1.5,2L7.5,0.5z M7.5,7c0,0,2.5,2.5618,2.5,4.5c0,0.8371-0.8259,2-2.5,2S5,12.3371,5,11.5
	C5,9.6283,7.5,7,7.5,7z"/>
</svg>
