<?xml version="1.0" encoding="utf-8"?>
<!-- Generator: Adobe Illustrator 19.2.1, SVG Export Plug-In . SVG Version: 6.00 Build 0)  -->
<!DOCTYPE svg PUBLIC "-//W3C//DTD SVG 1.1//EN" "http://www.w3.org/Graphics/SVG/1.1/DTD/svg11.dtd">
<svg version="1.1"
	 id="svg4764" inkscape:version="0.91 r13725" sodipodi:docname="fire-station-11.svg" xmlns:cc="http://creativecommons.org/ns#" xmlns:dc="http://purl.org/dc/elements/1.1/" xmlns:inkscape="http://www.inkscape.org/namespaces/inkscape" xmlns:rdf="http://www.w3.org/1999/02/22-rdf-syntax-ns#" xmlns:sodipodi="http://sodipodi.sourceforge.net/DTD/sodipodi-0.dtd" xmlns:svg="http://www.w3.org/2000/svg"
	 xmlns="http://www.w3.org/2000/svg" xmlns:xlink="http://www.w3.org/1999/xlink" x="0px" y="0px" width="11px" height="11px"
	 viewBox="0 0 11 11" style="enable-background:new 0 0 11 11;" xml:space="preserve">
<path id="path10041-3-2" inkscape:connector-curvature="0" sodipodi:nodetypes="cccsssccccsssc" d="M5.5,0l-2,4L2,2
	C1.595,2.7121,0,4.1667,0,6c0,2.7001,2.7999,5,5.5,5S11,8.7001,11,6c0-1.8333-1.595-3.2879-2-4L7.5,4L5.5,0z M5.5,5.5
	c0,0,2,1.585,2,3c0,0.6111-0.7778,1.2778-2,1.2778s-2-0.6667-2-1.2778C3.5,7.1336,5.5,5.5,5.5,5.5z"/>
</svg>
