<svg id="Layer_1" data-name="Layer 1" xmlns="http://www.w3.org/2000/svg" width="11" height="11" viewBox="0 0 11 11">
  <title>florist-11</title>
  <path d="M6.01,10.002h0M6.2495,8A6.3152,6.3152,0,0,1,7.41,5.3037l-0.77-.6387A6.7662,6.7662,0,0,0,5.4111,7.1943,4.82,4.82,0,0,0,4.3564,5.64L3.6631,6.36A4.06,4.06,0,0,1,4.6407,8H3L4.01,9.999,7.01,10,8,8H6.2495ZM3.7643,3.5054a0.7488,0.7488,0,0,0-.0117-1.4976,0.7388,0.7388,0,0,0-.5613.2656,0.75,0.75,0,1,0-1.3833,0,0.7388,0.7388,0,0,0-.5613-0.2656,0.7483,0.7483,0,0,0-.0176,1.4965,0.7488,0.7488,0,0,0,.0117,1.4976,0.7392,0.7392,0,0,0,.5579-0.2606,0.7357,0.7357,0,0,0-.0491.2431,0.75,0.75,0,0,0,1.5,0,0.7292,0.7292,0,0,0-.0441-0.2181A0.7476,0.7476,0,1,0,3.7643,3.5054Zm-1.2676.7289a0.75,0.75,0,1,1,.75-0.75A0.75,0.75,0,0,1,2.4967,4.2344ZM9.7709,2.5211a0.7488,0.7488,0,0,0-.0117-1.4976,0.7389,0.7389,0,0,0-.5614.2657,0.75,0.75,0,1,0-1.3832,0,0.7386,0.7386,0,0,0-.5613-0.2656A0.7483,0.7483,0,0,0,7.2357,2.52a0.7488,0.7488,0,0,0,.0117,1.4976,0.7393,0.7393,0,0,0,.5579-0.26A0.7366,0.7366,0,0,0,7.7562,4a0.75,0.75,0,1,0,1.5,0,0.7292,0.7292,0,0,0-.0441-0.2181A0.7476,0.7476,0,1,0,9.7709,2.5211ZM8.5034,3.25a0.75,0.75,0,1,1,.75-0.75A0.75,0.75,0,0,1,8.5034,3.25Z"/>
</svg>
