<svg id="Layer_1" data-name="Layer 1" xmlns="http://www.w3.org/2000/svg" width="15" height="15" viewBox="0 0 15 15">
  <title>florist-15</title>
  <path d="M3,4A1,1,0,1,1,4,5,1,1,0,0,1,3,4ZM6,6A1,1,0,1,0,5,5,1,1,0,0,0,6,6ZM6,8A1,1,0,1,0,5,7,1,1,0,0,0,6,8ZM2,6A1,1,0,1,0,1,5,1,1,0,0,0,2,6ZM2,8A1,1,0,1,0,1,7,1,1,0,0,0,2,8ZM4,9A1,1,0,1,0,3,8,1,1,0,0,0,4,9Zm7-6a1,1,0,1,0-1-1A1,1,0,0,0,11,3Zm2,1a1,1,0,1,0-1-1A1,1,0,0,0,13,4Zm0,2a1,1,0,1,0-1-1A1,1,0,0,0,13,6ZM9,4A1,1,0,1,0,8,3,1,1,0,0,0,9,4ZM9,6A1,1,0,1,0,8,5,1,1,0,0,0,9,6Zm2,1a1,1,0,1,0-1-1A1,1,0,0,0,11,7ZM8.1949,11A9.4,9.4,0,0,1,9.416,7.2773L8.584,6.7227a9.7693,9.7693,0,0,0-1.2995,3.6391A9.371,9.371,0,0,0,6.416,8.7227l-0.832.5547A8.34,8.34,0,0,1,6.4586,11H5l2,3H8l2-3H8.1949Z"/>
</svg>
