<svg id="Layer_1" data-name="Layer 1" xmlns="http://www.w3.org/2000/svg" width="13" height="13" viewBox="0 0 13 13">
  <title>fuel-15</title>
  <path d="M12,2H11.5V4.5A1.5,1.5,0,0,0,13,6v5.5a0.5,0.5,0,0,1-1,0V9a1.5,1.5,0,0,0-1.5-1.5h-1V2a1,1,0,0,0-1-1H2A1,1,0,0,0,1,2V13a1,1,0,0,0,1,1H8.5a1,1,0,0,0,1-1V8.5h1A0.5,0.5,0,0,1,11,9v2.5a1.5,1.5,0,0,0,3,0V4A2,2,0,0,0,12,2ZM8.5,6.5A0.5,0.5,0,0,1,8,7H2.5A0.5,0.5,0,0,1,2,6.5v-3A0.5,0.5,0,0,1,2.5,3H8a0.5,0.5,0,0,1,.5.5v3Z" transform="translate(-1 -1)"/>
</svg>
