<?xml version="1.0" encoding="UTF-8" standalone="no"?>
<!-- Created with Inkscape (http://www.inkscape.org/) -->

<svg
   xmlns:dc="http://purl.org/dc/elements/1.1/"
   xmlns:cc="http://creativecommons.org/ns#"
   xmlns:rdf="http://www.w3.org/1999/02/22-rdf-syntax-ns#"
   xmlns:svg="http://www.w3.org/2000/svg"
   xmlns="http://www.w3.org/2000/svg"
   xmlns:sodipodi="http://sodipodi.sourceforge.net/DTD/sodipodi-0.dtd"
   xmlns:inkscape="http://www.inkscape.org/namespaces/inkscape"
   version="1.1"
   width="11"
   height="11"
   id="svg4764"
   inkscape:version="0.91+devel+osxmenu r12911"
   sodipodi:docname="fuel-11.svg"
   viewBox="0 0 11 11">
  <sodipodi:namedview
     pagecolor="#ffffff"
     bordercolor="#666666"
     borderopacity="1"
     objecttolerance="10"
     gridtolerance="10"
     guidetolerance="10"
     inkscape:pageopacity="0"
     inkscape:pageshadow="2"
     inkscape:window-width="986"
     inkscape:window-height="759"
     id="namedview3400"
     inkscape:document-units="px"
     showgrid="false"
     inkscape:zoom="22.627417"
     inkscape:cx="4.3845752"
     inkscape:cy="4.3009164"
     inkscape:current-layer="svg4764"
     inkscape:snap-bbox="true"
     inkscape:bbox-paths="true"
     inkscape:bbox-nodes="true"
     inkscape:snap-bbox-edge-midpoints="true"
     inkscape:snap-bbox-midpoints="true"
     inkscape:object-paths="true"
     inkscape:snap-intersection-paths="true"
     inkscape:object-nodes="true"
     inkscape:snap-smooth-nodes="true"
     inkscape:window-x="0"
     inkscape:window-y="0"
     inkscape:window-maximized="0">
    <inkscape:grid
       type="xygrid"
       id="grid3333"
       spacingx="0.5"
       spacingy="0.5"
       color="#ff0000"
       opacity="0.1254902"
       empspacing="2" />
  </sodipodi:namedview>
  <defs
     id="defs4766" />
  <metadata
     id="metadata4769">
    <rdf:RDF>
      <cc:Work
         rdf:about="">
        <dc:format>image/svg+xml</dc:format>
        <dc:type
           rdf:resource="http://purl.org/dc/dcmitype/StillImage" />
        <dc:title />
      </cc:Work>
    </rdf:RDF>
  </metadata>
  <path
     style="fill:#000000;fill-opacity:1"
     d="M 2.5,1 C 2.5,1 2,1 2,1.5 l 0,8 c 0,0 0,0.5 0.5,0.5 l 5,0 C 7.5,10 8,10 8,9.5 l 0,-1 1.5,0 c 0,0 1,0 1,-1 l 0,-3 C 10.5,3.75 9.6324555,3.3162278 9,3 L 8,2.5 8,1.5 C 8,1 7.5,1 7.5,1 Z m 1,1 3,0 C 6.5,2 7,2 7,2.5 l 0,2 C 7,5 6.5,5 6.5,5 l -3,0 C 3,5 3,4.5 3,4.5 l 0,-2 C 3,2.5 3,2 3.5,2 Z M 4.25,3 C 4.1115,3 4,3.1115 4,3.25 l 0,0.5 C 4,3.8885 4.1115,4 4.25,4 4.3885,4 4.5,3.8885 4.5,3.75 l 0,-0.5 C 4.5,3.1115 4.3885,3 4.25,3 Z m 1.5,0 C 5.6115,3 5.5,3.1115 5.5,3.25 l 0,0.5 C 5.5,3.8885 5.6115,4 5.75,4 5.8885,4 6,3.8885 6,3.75 L 6,3.25 C 6,3.1115 5.8885,3 5.75,3 Z M 8,4 8.5,4 9.5,4.5 9.5,7 C 9.5,7.5 9,7.5 9,7.5 l -1,0 z"
     id="rect7223-2-4-9-3"
     inkscape:connector-curvature="0"
     sodipodi:nodetypes="ccccccccccccccccccccccccccccccccccccccccccccc" />
</svg>
