<svg id="Layer_1" data-name="Layer 1" xmlns="http://www.w3.org/2000/svg" width="15" height="15" viewBox="0 0 15 15">
  <title>fuel-15</title>
  <path d="M13,6h0v5.5a0.5,0.5,0,0,1-1,0v-2A1.5,1.5,0,0,0,10.5,8H9V2A1,1,0,0,0,8,1H2A1,1,0,0,0,1,2V13a1,1,0,0,0,1,1H8a1,1,0,0,0,1-1V9l1.5,0a0.5,0.5,0,0,1,.5.5v2a1.5,1.5,0,0,0,3,0V5a1,1,0,0,0-1-1h0V2.49A0.5,0.5,0,0,0,12.5,2a0.51,0.51,0,0,0-.5.55V5a1,1,0,1,0,1-1M8,6.5a0.5,0.5,0,0,1-.5.5h-5A0.5,0.5,0,0,1,2,6.5v-3A0.5,0.5,0,0,1,2.5,3h5a0.5,0.5,0,0,1,.5.5v3Z"/>
</svg>
