<svg id="Layer_1" data-name="Layer 1" xmlns="http://www.w3.org/2000/svg" width="9" height="9" viewBox="0 0 9 9">
  <title>fuel-11</title>
  <path id="maki_2" data-name="maki 2" d="M8.5,1.5H8V3A1,1,0,0,0,9,4H9V8.25c0,0.28-.5.28-0.5,0V6.5A1.5,1.5,0,0,0,7,5V2A1,1,0,0,0,6,1H2A1,1,0,0,0,1,2V9a1,1,0,0,0,1,1H6A1,1,0,0,0,7,9V6a0.5,0.5,0,0,1,.5.5V8.25a1.25,1.25,0,0,0,2.5,0h0V3A1.5,1.5,0,0,0,8.5,1.5ZM6,4.5A0.49,0.49,0,0,1,5.51,5h-3A0.51,0.51,0,0,1,2,4.48V3a0.5,0.5,0,0,1,.5-0.5h3A0.5,0.5,0,0,1,6,3V4.5Z" transform="translate(-1 -1)"/>
</svg>
