<?xml version="1.0" encoding="utf-8"?>
<!-- Generator: Adobe Illustrator 19.2.1, SVG Export Plug-In . SVG Version: 6.00 Build 0)  -->
<!DOCTYPE svg PUBLIC "-//W3C//DTD SVG 1.1//EN" "http://www.w3.org/Graphics/SVG/1.1/DTD/svg11.dtd">
<svg version="1.1" id="Layer_1" xmlns="http://www.w3.org/2000/svg" xmlns:xlink="http://www.w3.org/1999/xlink" x="0px" y="0px"
	 width="15px" height="15px" viewBox="0 0 15 15" style="enable-background:new 0 0 15 15;" xml:space="preserve">
<path d="M13,6L13,6v5.5c0,0.2761-0.2239,0.5-0.5,0.5S12,11.7761,12,11.5v-2C12,8.6716,11.3284,8,10.5,8H9V2c0-0.5523-0.4477-1-1-1H2
	C1.4477,1,1,1.4477,1,2v11c0,0.5523,0.4477,1,1,1h6c0.5523,0,1-0.4477,1-1V9h1.5C10.7761,9,11,9.2239,11,9.5v2
	c0,0.8284,0.6716,1.5,1.5,1.5s1.5-0.6716,1.5-1.5V5c0-0.5523-0.4477-1-1-1l0,0V2.49C12.9946,2.2178,12.7723,1.9999,12.5,2
	c-0.2816,0.0047-0.5062,0.2367-0.5015,0.5184C11.9987,2.5289,11.9992,2.5395,12,2.55V5C12,5.5523,12.4477,6,13,6s1-0.4477,1-1
	s-0.4477-1-1-1 M8,6.5C8,6.7761,7.7761,7,7.5,7h-5C2.2239,7,2,6.7761,2,6.5v-3C2,3.2239,2.2239,3,2.5,3h5C7.7761,3,8,3.2239,8,3.5
	V6.5z"/>
</svg>
