<svg id="Layer_1" data-name="Layer 1" xmlns="http://www.w3.org/2000/svg" width="11" height="11" viewBox="0 0 11 11">
  <title>fuel-11</title>
  <path d="M9.5,2.5H9v-1H9s0,0,0,0a0.5,0.5,0,0,0-1,0s0,0,0,0H8V3A1,1,0,0,0,9,4V8.25a0.25,0.25,0,0,1-.5,0V6.5A1.5,1.5,0,0,0,7,5V2A1,1,0,0,0,6,1H2A1,1,0,0,0,1,2V9a1,1,0,0,0,1,1H6A1,1,0,0,0,7,9V6a0.5,0.5,0,0,1,.5.5V8.25a1.25,1.25,0,0,0,2.5,0V3A0.5,0.5,0,0,0,9.5,2.5ZM6,4.5a0.49,0.49,0,0,1-.48.5h-3A0.51,0.51,0,0,1,2,4.49H2V3a0.5,0.5,0,0,1,.5-0.5h3A0.5,0.5,0,0,1,6,3V4.5Z"/>
</svg>
