<svg xmlns="http://www.w3.org/2000/svg" width="15" height="15" viewBox="0 0 15 15">
  <title>gaming</title>
  <path d="M11.5,6H8V5.506A.459.459,0,0,1,8.5,5h2A1.458,1.458,0,0,0,12,3.5v-1a.5.5,0,0,0-1,0v1a.458.458,0,0,1-.5.5h-2A1.458,1.458,0,0,0,7,5.5V6H3.5A2.784,2.784,0,0,0,1,9a2.784,2.784,0,0,0,2.5,3,2.33,2.33,0,0,0,1.851-1h4.3A2.33,2.33,0,0,0,11.5,12,2.784,2.784,0,0,0,14,9,2.784,2.784,0,0,0,11.5,6Zm-8,4.5A1.5,1.5,0,1,1,5,9,1.5,1.5,0,0,1,3.5,10.5Zm9-1H12V10a.5.5,0,0,1-1,0V9.5h-.5a.5.5,0,0,1,0-1H11V8a.5.5,0,0,1,1,0v.5h.5a.5.5,0,0,1,0,1Zm-9,0A.5.5,0,1,1,4,9,.5.5,0,0,1,3.5,9.5Z"/>
</svg>
