<svg xmlns="http://www.w3.org/2000/svg" width="15" height="15" viewBox="0 0 15 15">
  <title>gaming</title>
  <path d="M13.134,12.486a1.5,1.5,0,0,1-1.838-.464l-1.14-1.378H4.839L3.7,12.03h0a1.5,1.5,0,0,1-2.657-1.25l.674-3.672.017.008A2.443,2.443,0,0,1,4.207,5.007V5H7V3.5A1.458,1.458,0,0,1,8.413,2H11.5a.5.5,0,0,1,0,1h-3a.459.459,0,0,0-.5.506V5h2.792v.006a2.443,2.443,0,0,1,2.477,2.109l.011-.005.683,3.679h0A1.5,1.5,0,0,1,13.134,12.486ZM6,7.5A1.5,1.5,0,1,0,4.5,9,1.5,1.5,0,0,0,6,7.5Zm6,0a.5.5,0,0,0-.5-.5H11V6.5a.5.5,0,0,0-1,0V7H9.5a.5.5,0,0,0,0,1H10v.5a.5.5,0,0,0,1,0V8h.5A.5.5,0,0,0,12,7.5Z"/>
</svg>
