<svg xmlns="http://www.w3.org/2000/svg" width="15" height="15" viewBox="0 0 15 15">
  <title>gaming</title>
  <path d="M13.827,7.99A3,3,0,0,0,11,6H8V3.506A.459.459,0,0,1,8.5,3a.458.458,0,0,1,.5.5,1.5,1.5,0,0,0,3,0v-1a.5.5,0,0,0-1,0v1a.5.5,0,0,1-1,0A1.458,1.458,0,0,0,8.585,2H8.5A1.458,1.458,0,0,0,7,3.415Q7,3.457,7,3.5V6H4a3,3,0,1,0,2.212,5h2.57a2.994,2.994,0,0,0,5.044-3.01ZM11,7.5a.5.5,0,1,1-.5.5A.5.5,0,0,1,11,7.5Zm-6,2H4.5V10a.5.5,0,0,1-1,0V9.5H3a.5.5,0,0,1,0-1h.5V8a.5.5,0,0,1,1,0v.5H5a.5.5,0,0,1,0,1Zm5,0a.5.5,0,1,1,.5-.5A.5.5,0,0,1,10,9.5Zm1,1a.5.5,0,1,1,.5-.5A.5.5,0,0,1,11,10.5Zm1-1a.5.5,0,1,1,.5-.5A.5.5,0,0,1,12,9.5Z"/>
</svg>
