<svg xmlns="http://www.w3.org/2000/svg" width="15" height="15" viewBox="0 0 15 15">
  <title>gaming</title>
  <g>
    <circle cx="4.5" cy="7.5" r="0.5"/>
    <path d="M13.962,10.789h0L13.28,7.11l-.011.005a2.443,2.443,0,0,0-2.477-2.109V5H8V3.506A.459.459,0,0,1,8.5,3h3a.5.5,0,0,0,0-1h-3A1.458,1.458,0,0,0,7,3.5V5H4.208v.006A2.443,2.443,0,0,0,1.732,7.115l-.017-.008-.674,3.672A1.5,1.5,0,0,0,3.7,12.029h0L4.84,10.643h5.316l1.14,1.378a1.5,1.5,0,0,0,2.665-1.232ZM4.5,9A1.5,1.5,0,1,1,6,7.5,1.5,1.5,0,0,1,4.5,9Zm7-1H11v.5a.5.5,0,0,1-1,0V8H9.5a.5.5,0,0,1,0-1H10V6.5a.5.5,0,0,1,1,0V7h.5a.5.5,0,0,1,0,1Z"/>
  </g>
</svg>
