<?xml version="1.0" standalone="no"?>
<!DOCTYPE svg PUBLIC "-//W3C//DTD SVG 1.1//EN" "http://www.w3.org/Graphics/SVG/1.1/DTD/svg11.dtd">
<svg width="11px" height="11px" viewBox="0 0 11 11" version="1.1" xmlns="http://www.w3.org/2000/svg" xmlns:xlink="http://www.w3.org/1999/xlink" style="enable-background: new 0 0 15 15;" xml:space="preserve">
    <path d="M3,2.994C3.004,1.893 3.898,1 5,1C6.104,1 7,1.896 7,3L7,6.295L8,5.295L8,4.518C8,4.512 8,4.506 8,4.5C8,4.224 8.224,4 8.5,4C8.645,4 8.776,4.062 8.868,4.161L9.839,5.132C9.849,5.142 9.858,5.151 9.868,5.161L9.875,5.169L9.875,5.169C9.953,5.257 10,5.373 10,5.5C10,5.776 9.776,6 9.5,6C9.473,6 9.447,5.998 9.422,5.994L8.711,5.994L7,7.705L7,8C7,8.552 6.552,9 6,9L4,9C3.448,9 3,8.552 3,8L3,7C1.896,7 1,6.104 1,5C1,3.896 1.896,3 3,3L3,2.994ZM3,6.25L3,3.75C2.31,3.75 1.75,4.31 1.75,5C1.75,5.69 2.31,6.25 3,6.25ZM6.25,3C6.25,2.31 5.69,1.75 5,1.75C4.31,1.75 3.75,2.31 3.75,3L6.25,3Z" style="fill:black;"/>
</svg>
