<?xml version="1.0" standalone="no"?>
<!DOCTYPE svg PUBLIC "-//W3C//DTD SVG 1.1//EN" "http://www.w3.org/Graphics/SVG/1.1/DTD/svg11.dtd">
<svg width="11px" height="11px" viewBox="0 0 11 11" version="1.1" xmlns="http://www.w3.org/2000/svg" xmlns:xlink="http://www.w3.org/1999/xlink" style="enable-background: new 0 0 15 15;" xml:space="preserve">
    <path d="M2,4C2,2.896 2.896,2 4,2C5.104,2 6,2.896 6,4C6,4 6,7 6,7L6.293,7C6.784,6.509 7.267,6.008 7.762,5.52C7.543,5.292 7.329,5.06 7.119,4.824C7.073,4.767 7.037,4.704 7.018,4.633C6.958,4.416 7.055,4.181 7.249,4.068C7.312,4.031 7.382,4.01 7.455,4.002C7.475,4.001 7.495,4 7.515,4C7.637,4.006 7.748,4.051 7.839,4.133C8.533,4.8 9.242,5.456 9.881,6.176C9.927,6.233 9.963,6.296 9.982,6.367C10,6.431 10.004,6.499 9.996,6.564C9.988,6.624 9.97,6.681 9.942,6.734C9.837,6.932 9.605,7.038 9.387,6.987C9.308,6.969 9.238,6.931 9.176,6.881C8.941,6.673 8.711,6.46 8.484,6.243C7.948,6.809 7.407,7.373 6.819,7.885C6.733,7.954 6.634,7.992 6.523,7.999C6.349,8.003 6.174,8.006 6,8.006L6,8.25C6,8.664 5.664,9 5.25,9L2.75,9L2.745,9C2.333,8.997 2,8.662 2,8.25L2,4ZM5.25,4C5.25,3.31 4.69,2.75 4,2.75C3.31,2.75 2.75,3.31 2.75,4L5.25,4Z" style="fill:black;"/>
</svg>
