<?xml version="1.0" standalone="no"?>
<!DOCTYPE svg PUBLIC "-//W3C//DTD SVG 1.1//EN" "http://www.w3.org/Graphics/SVG/1.1/DTD/svg11.dtd">
<svg width="15px" height="15px" viewBox="0 0 15 15" version="1.1" xmlns="http://www.w3.org/2000/svg" xmlns:xlink="http://www.w3.org/1999/xlink" style="enable-background:new 0 0 15 15;" xml:space="preserve">
    <path d="M2.847,5.32L2.847,5.303C2.852,5.219 2.86,5.136 2.87,5.053C2.97,4.307 3.237,3.564 3.757,3.029C3.842,2.942 3.933,2.861 4.029,2.788C4.17,2.679 4.323,2.587 4.483,2.513C4.81,2.361 5.161,2.286 5.516,2.258C5.626,2.252 5.736,2.249 5.845,2.25C6.316,2.262 6.786,2.352 7.208,2.58C7.346,2.655 7.478,2.744 7.6,2.845C8.132,3.284 8.456,3.94 8.611,4.622C8.663,4.845 8.697,5.074 8.71,5.303L8.711,5.338L8.711,9.816L9.702,9.816C10.522,8.952 11.322,8.065 12.156,7.215C11.838,6.878 11.529,6.534 11.233,6.176C11.19,6.119 11.159,6.055 11.143,5.983C11.103,5.796 11.18,5.596 11.333,5.492C11.386,5.456 11.444,5.434 11.505,5.423C11.533,5.419 11.56,5.417 11.588,5.418C11.694,5.424 11.788,5.465 11.868,5.538C12.732,6.406 13.617,7.257 14.399,8.206C14.442,8.263 14.474,8.327 14.489,8.399C14.535,8.609 14.431,8.831 14.245,8.922C14.195,8.946 14.141,8.96 14.086,8.964C14.031,8.967 13.976,8.96 13.924,8.941C13.864,8.921 13.811,8.887 13.764,8.844C13.444,8.522 13.121,8.203 12.802,7.88C11.95,8.82 11.074,9.736 10.176,10.626C10.098,10.694 10.011,10.732 9.91,10.742C9.511,10.754 9.111,10.755 8.711,10.743L8.711,11.515C8.711,12.196 8.185,12.75 7.538,12.75L4.019,12.75C3.372,12.75 2.846,12.196 2.846,11.515C2.846,11.109 2.843,10.703 2.839,10.297L1.055,8.418L1.054,8.417C0.713,8.079 0.5,7.599 0.5,7.067C0.5,6.045 1.288,5.214 2.259,5.214C2.465,5.214 2.663,5.252 2.847,5.32ZM2.828,5.987C2.659,5.888 2.465,5.832 2.259,5.832C1.612,5.832 1.086,6.386 1.086,7.067C1.086,7.458 1.259,7.807 1.529,8.033L2.829,9.403C2.816,8.264 2.803,7.125 2.828,5.987ZM3.432,5.35C3.432,5.35 3.432,5.35 3.432,5.35ZM8.124,5.338C8.123,5.327 8.123,5.315 8.122,5.304C8.111,5.157 8.09,5.012 8.063,4.867C7.947,4.262 7.667,3.657 7.183,3.287C7.096,3.221 7.003,3.162 6.906,3.112C6.573,2.94 6.204,2.877 5.836,2.868C5.778,2.867 5.779,2.867 5.721,2.868C5.365,2.877 5.009,2.935 4.685,3.095C4.575,3.148 4.471,3.213 4.373,3.287C3.784,3.738 3.507,4.52 3.438,5.259C3.435,5.297 3.435,5.296 3.433,5.333L3.433,5.338L8.124,5.338Z"/>
</svg>
