<?xml version="1.0" encoding="utf-8"?>
<!-- Generator: Adobe Illustrator 19.2.1, SVG Export Plug-In . SVG Version: 6.00 Build 0)  -->
<!DOCTYPE svg PUBLIC "-//W3C//DTD SVG 1.1//EN" "http://www.w3.org/Graphics/SVG/1.1/DTD/svg11.dtd">
<svg version="1.1" id="Layer_1" xmlns="http://www.w3.org/2000/svg" xmlns:xlink="http://www.w3.org/1999/xlink" x="0px" y="0px"
	 width="11px" height="11px" viewBox="0 0 11 11" style="enable-background:new 0 0 11 11;" xml:space="preserve">
<path d="M10,6c0.0043,2.2091-1.783,4.0035-3.9922,4.0078C5.9218,10.008,5.8358,10.0054,5.75,10
	c-2.2048,0.1381-4.1041-1.5374-4.2422-3.7422C1.5024,6.172,1.4998,6.086,1.5,6c1.6411-0.1206,3.1886,0.7762,3.9,2.26V5h-2
	C2.9085,5.0055,2.5056,4.6116,2.5001,4.1201C2.5,4.1167,2.5,4.1134,2.5,4.11V1.84C2.492,1.6469,2.6421,1.4838,2.8352,1.4758
	C2.9567,1.4708,3.0721,1.5292,3.14,1.63L4.28,3l1.17-2.33c0.0996-0.1657,0.3146-0.2193,0.4803-0.1197
	C5.9794,0.5798,6.0205,0.6209,6.05,0.67L7.22,3l1.13-1.38c0.0982-0.1665,0.3128-0.2219,0.4793-0.1237
	C8.946,1.5651,9.0125,1.6951,9,1.83v2.28C9,4.6015,8.6016,5,8.1101,5.0001C8.1067,5.0001,8.1034,5,8.1,5h-2v3.26
	C6.8114,6.7762,8.3589,5.8794,10,6z"/>
</svg>
