<svg xmlns="http://www.w3.org/2000/svg" width="15" height="15" viewBox="0 0 15 15">
	<title>garden-center-15</title>
    <path id="v5-merged" d="M9,10.293L13.646,5.646L14.354,6.354L9,11.707L9,12.125L8.991,12.133C8.926,12.622 8.507,13 8,13C8,13 5,13 5,13L4.472,13L1.736,10.264L1.732,10.268C0.757,9.292 0.757,7.708 1.732,6.732C2.22,6.244 2.86,6 3.5,6L3.5,6L4,6L4,5.5C4,4.12 5.12,3 6.5,3C7.88,3 9,4.12 9,5.5L9,10.293ZM4,7L3.5,7L3.5,7C3.116,7 2.732,7.147 2.439,7.439C1.855,8.024 1.854,8.971 2.436,9.557L2.439,9.553L4,11.114L4,7ZM8,6L8,5.5C8,4.672 7.328,4 6.5,4C5.672,4 5,4.672 5,5.5L5,6L8,6Z"/>
</svg>
