<svg id="Layer_1" data-name="Layer 1" xmlns="http://www.w3.org/2000/svg" width="11" height="11" viewBox="0 0 11 11">
  <title>gift-11</title>
  <path d="M0,5h4.5V6H0V5ZM1,9.79A1.21,1.21,0,0,0,2.22,11h2.3V7H1V9.79ZM7.64,4H3.36A1.26,1.26,0,0,1,2,2.5,1.41,1.41,0,0,1,3.42,1a2.12,2.12,0,0,1,2.1,1.69A2.13,2.13,0,0,1,7.62,1,1.43,1.43,0,0,1,9,2.52,1.27,1.27,0,0,1,7.64,4ZM4.82,3.25a1.43,1.43,0,0,0-1.4-1.5,0.68,0.68,0,0,0-.7.75,0.68,0.68,0,0,0,.7.75h1.4Zm2.8,0a0.68,0.68,0,0,0,.7-0.75,0.71,0.71,0,0,0-.7-0.75,1.43,1.43,0,0,0-1.4,1.5h1.4ZM6.52,5V6H11V5H6.52Zm0,6H8.81A1.21,1.21,0,0,0,10,9.79V7H6.52v4Z"/>
</svg>
