<svg id="Layer_1" data-name="Layer 1" xmlns="http://www.w3.org/2000/svg" width="11" height="11" viewBox="0 0 11 11">
  <title>gift-11</title>
  <path d="M4.5,7v3.5H2.69A1.21,1.21,0,0,1,1.48,9.29V7h3Zm2,0v3.5H8.29A1.21,1.21,0,0,0,9.5,9.29V7h-3ZM9,1.5A1.27,1.27,0,0,1,7.62,3H3.33A1.26,1.26,0,0,1,2,1.48,1.41,1.41,0,0,1,3.4,0,2.12,2.12,0,0,1,5.5,1.67,2.13,2.13,0,0,1,7.6,0,1.43,1.43,0,0,1,9,1.5Zm-4.2.73A1.43,1.43,0,0,0,3.4.73a0.68,0.68,0,0,0-.7.75,0.68,0.68,0,0,0,.7.75H4.8Zm3.5-.75A0.71,0.71,0,0,0,7.6.73a1.43,1.43,0,0,0-1.4,1.5H7.6A0.68,0.68,0,0,0,8.3,1.48ZM0.48,6h4V4.48h-4V6Zm6,0h4V4.48h-4V6Z"/>
</svg>
