<svg id="Layer_1" data-name="Layer 1" xmlns="http://www.w3.org/2000/svg" width="15" height="15" viewBox="0 0 15 15">
  <title>gift-15</title>
  <path d="M6.5,5.5v2H1v-2H6.5Zm2,0v2H14v-2H8.5ZM2,8.5v4A1.5,1.5,0,0,0,3.5,14h3V8.5H2Zm6.5,0V14h3A1.5,1.5,0,0,0,13,12.5v-4H8.5Zm4-6a1.75,1.75,0,0,1-2,2H4.41a1.73,1.73,0,0,1-1.91-2,1.94,1.94,0,0,1,2-2,3,3,0,0,1,3,2.25A3,3,0,0,1,10.5.5,2,2,0,0,1,12.5,2.53Zm-6,1a2,2,0,0,0-2-2,0.92,0.92,0,0,0-1,1,0.92,0.92,0,0,0,1,1h2Zm5-1a1,1,0,0,0-1-1,2,2,0,0,0-2,2h2A0.92,0.92,0,0,0,11.5,2.5Z"/>
</svg>
