<svg id="Layer_1" data-name="Layer 1" xmlns="http://www.w3.org/2000/svg" width="15" height="15" viewBox="0 0 15 15">
  <title>gift-15</title>
  <path d="M6.5,5V7H0V5H6.5Zm2,0V7H15V5H8.5ZM1,8V12.5A1.5,1.5,0,0,0,2.5,14h4V8H1ZM8.5,8v6h4A1.5,1.5,0,0,0,14,12.5V8H8.5Zm2-8a3,3,0,0,0-3,2.25A3,3,0,0,0,4.5,0a1.94,1.94,0,0,0-2,2A1.73,1.73,0,0,0,4.41,4h6.13a1.75,1.75,0,0,0,2-2A2,2,0,0,0,10.5,0Zm-6,3a0.92,0.92,0,0,1-1-1,0.92,0.92,0,0,1,1-1,2,2,0,0,1,2,2h-2Zm6,0h-2a2,2,0,0,1,2-2,1,1,0,0,1,1,1A0.92,0.92,0,0,1,10.5,3Z"/>
</svg>
