<svg id="Layer_1" data-name="Layer 1" xmlns="http://www.w3.org/2000/svg" width="11" height="11" viewBox="0 0 11 11">
  <title>gift-11</title>
  <path d="M0,5H4V6H0V5ZM1,9.79A1.21,1.21,0,0,0,2.2,11H4V7H1V9.79ZM7.62,4H3.33A1.26,1.26,0,0,1,2,2.5,1.41,1.41,0,0,1,3.4,1,2.12,2.12,0,0,1,5.5,2.69,2.13,2.13,0,0,1,7.6,1,1.43,1.43,0,0,1,9,2.52,1.27,1.27,0,0,1,7.62,4ZM4.8,3.25a1.43,1.43,0,0,0-1.4-1.5,0.68,0.68,0,0,0-.7.75,0.68,0.68,0,0,0,.7.75H4.8Zm2.8,0A0.68,0.68,0,0,0,8.3,2.5a0.71,0.71,0,0,0-.7-0.75,1.43,1.43,0,0,0-1.4,1.5H7.6ZM7,5V6h4V5H7Zm0,6H8.79A1.21,1.21,0,0,0,10,9.79V7H7v4Z"/>
</svg>
