<?xml version="1.0" encoding="utf-8"?>
<!-- Generator: Adobe Illustrator 22.1.0, SVG Export Plug-In . SVG Version: 6.00 Build 0)  -->
<svg version="1.1" id="start_here" xmlns="http://www.w3.org/2000/svg" xmlns:xlink="http://www.w3.org/1999/xlink" x="0px" y="0px"
	 width="11px" height="11px" viewBox="0 0 11 11" style="enable-background:new 0 0 11 11;" xml:space="preserve">
<g>
	<g>
		<path d="M6.5,10H6V8.9496C7.0402,8.8331,7.9799,8.3841,8.682,7.682L8.1504,7.1504C7.4713,7.8294,6.5339,8.25,5.5,8.25
			c-2.0677,0-3.75-1.6823-3.75-3.75c0-1.0339,0.4206-1.9713,1.0996-2.6504L2.318,1.318C1.5037,2.1323,1,3.2573,1,4.5
			c0,2.314,1.7532,4.1979,4,4.4496V10H4.5C4.2239,10,4,10.2238,4,10.5C4,10.7761,4.2239,11,4.5,11h2C6.7761,11,7,10.7761,7,10.5
			C7,10.2238,6.7761,10,6.5,10z"/>
	</g>
	<g>
		<path d="M5.5,7C6.8807,7,8,5.8807,8,4.5C8,3.1193,6.8807,2,5.5,2S3,3.1193,3,4.5C3,5.8807,4.1193,7,5.5,7z M4.9549,2.5847
			l0.4928,0.6168v0.8362l0.6129,1.1115h1.3224C7.2133,5.6406,6.8611,6.0414,6.4035,6.275L5.5,5.5h-1L3.5323,4.1791
			C3.6572,3.4099,4.2178,2.7946,4.9549,2.5847z"/>
	</g>
</g>
</svg>
