<?xml version="1.0" encoding="utf-8"?>
<!-- Generator: Adobe Illustrator 22.1.0, SVG Export Plug-In . SVG Version: 6.00 Build 0)  -->
<svg version="1.1" id="start_here" xmlns="http://www.w3.org/2000/svg" xmlns:xlink="http://www.w3.org/1999/xlink" x="0px" y="0px"
	 width="15px" height="15px" viewBox="0 0 15 15" style="enable-background:new 0 0 15 15;" xml:space="preserve">
<g>
	<g>
		<path d="M11.9807,9.4807l-0.7208-0.7208C10.3425,9.8168,9.006,10.5,7.5,10.5c-2.757,0-5-2.243-5-5
			c0-1.506,0.6832-2.8425,1.7401-3.7599L3.5193,1.0193C2.2831,2.1183,1.5,3.7158,1.5,5.5c0,3.1449,2.4208,5.72,5.5,5.9747V13H6.5
			C6.2239,13,6,13.2238,6,13.5C6,13.7761,6.2239,14,6.5,14h2C8.7761,14,9,13.7761,9,13.5C9,13.2238,8.7761,13,8.5,13H8v-1.5273
			C9.5806,11.341,10.9858,10.5997,11.9807,9.4807z"/>
	</g>
	<g>
		<path d="M7.5,9C9.433,9,11,7.433,11,5.5S9.433,2,7.5,2S4,3.567,4,5.5S5.567,9,7.5,9z M8.5,4l0.3638-0.5915
			c0.3463,0.2263,0.6249,0.5394,0.8235,0.9042L9.5,5h-1V4z M6.6563,3.1563L7.5,4v1L8,6h1.5h0.4396
			C9.7708,6.826,9.2026,7.5041,8.4381,7.8144L8,7H6.5L5.0504,5C5.2251,4.1396,5.8452,3.4486,6.6563,3.1563z"/>
	</g>
</g>
</svg>
