<svg id="Layer_1" data-name="Layer 1" xmlns="http://www.w3.org/2000/svg" width="11" height="11" viewBox="0 0 11 11">
  <title>grill-11</title>
  <path d="M9.95215,10.24609L6.99054,5.62024A4.08,4.08,0,0,0,9,2H2A4.07657,4.07657,0,0,0,4.03369,5.63538L2.60938,8.00183C2.5719,7.999,2.53827,7.98438,2.5,7.98438a1.5,1.5,0,1,0,1.4082,2H8.59766l0.5127,0.80078A0.4998,0.4998,0,1,0,9.95215,10.24609ZM2.5,9.98438a0.5,0.5,0,1,1,.5-0.5A0.5,0.5,0,0,1,2.5,9.98438Zm1.4082-1a1.498,1.498,0,0,0-.38208-0.56549L5.007,5.95856a3.03466,3.03466,0,0,0,.493.05707,3.03961,3.03961,0,0,0,.51837-0.06L7.95746,8.98438H3.9082ZM3.5,1A0.5,0.5,0,1,1,4,.5,0.5,0.5,0,0,1,3.5,1Zm2,0A0.5,0.5,0,1,1,6,.5,0.5,0.5,0,0,1,5.5,1Zm2,0A0.5,0.5,0,1,1,8,.5,0.5,0.5,0,0,1,7.5,1Z"/>
</svg>
