<?xml version="1.0" encoding="utf-8"?>
<!-- Generator: Adobe Illustrator 19.2.1, SVG Export Plug-In . SVG Version: 6.00 Build 0)  -->
<!DOCTYPE svg PUBLIC "-//W3C//DTD SVG 1.1//EN" "http://www.w3.org/Graphics/SVG/1.1/DTD/svg11.dtd">
<svg version="1.1"
	 id="svg4764" inkscape:version="0.91 r13725" sodipodi:docname="grocery-11.svg" xmlns:cc="http://creativecommons.org/ns#" xmlns:dc="http://purl.org/dc/elements/1.1/" xmlns:inkscape="http://www.inkscape.org/namespaces/inkscape" xmlns:rdf="http://www.w3.org/1999/02/22-rdf-syntax-ns#" xmlns:sodipodi="http://sodipodi.sourceforge.net/DTD/sodipodi-0.dtd" xmlns:svg="http://www.w3.org/2000/svg"
	 xmlns="http://www.w3.org/2000/svg" xmlns:xlink="http://www.w3.org/1999/xlink" x="0px" y="0px" width="11px" height="11px"
	 viewBox="0 0 11 11" style="enable-background:new 0 0 11 11;" xml:space="preserve">
<path id="rect7842-7" d="M9.75,1.5C9.7464,1.4999,9.4324,1.4942,9.1191,1.6875C8.8041,1.8819,8.5,2.3013,8.5,3H8.2539H1l0.75,3.5
	C1.8571,7,2.5,7,2.5,7h6c0,0-0.0027,0.2466-0.1523,0.4961S7.9306,8,7.25,8H2C1.6619,7.9952,1.6619,8.5048,2,8.5h1.25h4
	c0.8194,0,1.302-0.3705,1.5273-0.7461C9.0027,7.3784,9,7,9,7V3c0-0.567,0.1959-0.7725,0.3809-0.8867
	C9.5659,1.9991,9.7461,2,9.7461,2C9.7474,2,9.7487,2,9.75,2h0.5c0.3381,0.0048,0.3381-0.5048,0-0.5H9.7539H9.75z M7.25,8.5
	C6.8358,8.5,6.5,8.8358,6.5,9.25S6.8358,10,7.25,10S8,9.6642,8,9.25S7.6642,8.5,7.25,8.5z M3.25,8.5C2.8358,8.5,2.5,8.8358,2.5,9.25
	S2.8358,10,3.25,10S4,9.6642,4,9.25S3.6642,8.5,3.25,8.5z"/>
</svg>
