<?xml version="1.0" encoding="utf-8"?>
<!-- Generator: Adobe Illustrator 19.2.1, SVG Export Plug-In . SVG Version: 6.00 Build 0)  -->
<!DOCTYPE svg PUBLIC "-//W3C//DTD SVG 1.1//EN" "http://www.w3.org/Graphics/SVG/1.1/DTD/svg11.dtd">
<svg version="1.1"
	 id="svg4619" inkscape:version="0.91+devel+osxmenu r12911" sodipodi:docname="grocery-15.svg" xmlns:cc="http://creativecommons.org/ns#" xmlns:dc="http://purl.org/dc/elements/1.1/" xmlns:inkscape="http://www.inkscape.org/namespaces/inkscape" xmlns:rdf="http://www.w3.org/1999/02/22-rdf-syntax-ns#" xmlns:sodipodi="http://sodipodi.sourceforge.net/DTD/sodipodi-0.dtd" xmlns:svg="http://www.w3.org/2000/svg"
	 xmlns="http://www.w3.org/2000/svg" xmlns:xlink="http://www.w3.org/1999/xlink" x="0px" y="0px" width="15px" height="15px"
	 viewBox="0 0 15 15" style="enable-background:new 0 0 15 15;" xml:space="preserve">
<g>
	<path d="M3.2001,14c0,0.6,0.4,1,1,1c0.6,0,1-0.4,1-1c0-0.6-0.4-1-1-1C3.6001,13,3.2001,13.4,3.2001,14z"/>
	<path d="M8.2001,14c0,0.6,0.4,1,1,1c0.6,0,1-0.4,1-1c0-0.6-0.4-1-1-1C8.6001,13,8.2001,13.4,8.2001,14z"/>
	<path d="M13.25,1.5c-0.0178,0-0.05,0-0.05,0s-1.3921-0.0412-1.947,0.5C10.7195,2.5202,10.5,2.9177,10.5,4H1.2001l1.3935,4.814
		c0.0035,0.0073,0.0104,0.0139,0.0142,0.0211c0.2344,0.6573,0.8458,1.1308,1.5768,1.1583C4.1876,9.9947,4.2001,10,4.2001,10h6.5v0.2
		c0,0,0,0.3-0.2,0.7c-0.2,0.4-0.3,0.6-1.1,0.6H2.9c-1,0-1,1.5,0,1.5h1.2h0.1h4.9h0.1h0.1c1.2,0,2.1-0.7,2.4-1.4
		c0.3-0.7,0.3-1.3,0.3-1.3V10L12,4c0-0.5236,0.2294-1,0.7-1c0,0,0.5323,0,0.55,0C13.6642,3,14,2.6642,14,2.25S13.6642,1.5,13.25,1.5
		z"/>
</g>
</svg>
