<?xml version="1.0" encoding="UTF-8" standalone="no"?>
<!-- Generator: Adobe Illustrator 19.2.1, SVG Export Plug-In . SVG Version: 6.00 Build 0)  -->

<svg
   xmlns:dc="http://purl.org/dc/elements/1.1/"
   xmlns:cc="http://creativecommons.org/ns#"
   xmlns:rdf="http://www.w3.org/1999/02/22-rdf-syntax-ns#"
   xmlns:svg="http://www.w3.org/2000/svg"
   xmlns="http://www.w3.org/2000/svg"
   xmlns:sodipodi="http://sodipodi.sourceforge.net/DTD/sodipodi-0.dtd"
   xmlns:inkscape="http://www.inkscape.org/namespaces/inkscape"
   version="1.1"
   id="svg4619"
   inkscape:version="0.91 r13725"
   sodipodi:docname="grocery-15.svg"
   x="0px"
   y="0px"
   width="15px"
   height="15px"
   viewBox="0 0 15 15"
   style="enable-background:new 0 0 15 15;"
   xml:space="preserve"><metadata
     id="metadata15"><rdf:RDF><cc:Work
         rdf:about=""><dc:format>image/svg+xml</dc:format><dc:type
           rdf:resource="http://purl.org/dc/dcmitype/StillImage" /><dc:title></dc:title></cc:Work></rdf:RDF></metadata><defs
     id="defs13" /><sodipodi:namedview
     pagecolor="#ffffff"
     bordercolor="#666666"
     borderopacity="1"
     objecttolerance="10"
     gridtolerance="10"
     guidetolerance="10"
     inkscape:pageopacity="0"
     inkscape:pageshadow="2"
     inkscape:window-width="1751"
     inkscape:window-height="731"
     id="namedview11"
     showgrid="false"
     inkscape:zoom="15.733333"
     inkscape:cx="-1.1122881"
     inkscape:cy="7.5"
     inkscape:window-x="20"
     inkscape:window-y="43"
     inkscape:window-maximized="0"
     inkscape:current-layer="svg4619" /><g
     id="g3"><path
       d="M 13.199219 1.5 C 13.199219 1.5 11.808806 1.4588 11.253906 2 C 10.720406 2.5202 10.5 2.9177 10.5 4 L 1.1992188 4 L 2.59375 8.8144531 C 2.59725 8.8217531 2.6036219 8.8287375 2.6074219 8.8359375 C 2.8418219 9.4932375 3.4545469 9.9666406 4.1855469 9.9941406 C 4.1885469 9.9954406 4.1992187 10 4.1992188 10 L 10.699219 10 L 10.699219 10.199219 C 10.699219 10.199219 10.7 10.500391 10.5 10.900391 C 10.3 11.300391 10.200391 11.5 9.4003906 11.5 L 2.9003906 11.5 C 1.9003906 11.5 1.9003906 13 2.9003906 13 L 4.0996094 13 L 4.1992188 13 L 9.0996094 13 L 9.1992188 13 L 9.3007812 13 C 10.500781 13 11.399219 12.299609 11.699219 11.599609 C 11.999219 10.899609 12 10.300781 12 10.300781 L 12 10 L 12 4 C 12 3.4764 12.228619 3 12.699219 3 L 13.25 3 C 13.6642 3 14 2.6642 14 2.25 C 14 1.8358 13.6642 1.5 13.25 1.5 L 13.199219 1.5 z M 9.1992188 13 C 8.5992188 13 8.1992188 13.4 8.1992188 14 C 8.1992188 14.6 8.5992187 15 9.1992188 15 C 9.7992187 15 10.199219 14.6 10.199219 14 C 10.199219 13.4 9.7992188 13 9.1992188 13 z M 4.1992188 13 C 3.5992188 13 3.1992188 13.4 3.1992188 14 C 3.1992188 14.6 3.5992187 15 4.1992188 15 C 4.7992188 15 5.1992188 14.6 5.1992188 14 C 5.1992188 13.4 4.7992187 13 4.1992188 13 z "
       id="path5" /></g></svg>