<?xml version="1.0" encoding="utf-8"?>
<!-- Generator: Adobe Illustrator 19.2.1, SVG Export Plug-In . SVG Version: 6.00 Build 0)  -->
<!DOCTYPE svg PUBLIC "-//W3C//DTD SVG 1.1//EN" "http://www.w3.org/Graphics/SVG/1.1/DTD/svg11.dtd">
<svg version="1.1"
	 id="svg4619" inkscape:version="0.91+devel+osxmenu r12911" sodipodi:docname="hairdresser-15.svg" xmlns:cc="http://creativecommons.org/ns#" xmlns:dc="http://purl.org/dc/elements/1.1/" xmlns:inkscape="http://www.inkscape.org/namespaces/inkscape" xmlns:rdf="http://www.w3.org/1999/02/22-rdf-syntax-ns#" xmlns:sodipodi="http://sodipodi.sourceforge.net/DTD/sodipodi-0.dtd" xmlns:svg="http://www.w3.org/2000/svg"
	 xmlns="http://www.w3.org/2000/svg" xmlns:xlink="http://www.w3.org/1999/xlink" x="0px" y="0px" width="15px" height="15px"
	 viewBox="0 0 15 15" style="enable-background:new 0 0 15 15;" xml:space="preserve">
<path style="fill:#010101;" d="M15,3c0,0-2-0.6-3.5,0.5l-4.3,3C6.4,5.9,5.2,5.2,4,4.8V4c0-1.1-0.9-2-2-2C0.9,2,0,2.9,0,4v1.5
	C0,6,0.5,6,0.5,6H2h0.5C4.5,6,6,7.5,6,7.5S4.5,9,2.5,9H2H0.5C0.5,9,0,9,0,9.5V11c0,1.1,0.9,2,2,2c1.1,0,2-0.9,2-2v-0.8
	c1.2-0.4,2.4-1.1,3.2-1.7l4.3,3C13,12.6,15,12,15,12L8.5,7.5L15,3z M3,5H2H1V4c0-0.6,0.4-1,1-1c0.6,0,1,0.4,1,1V5z M3,11
	c0,0.6-0.4,1-1,1c-0.6,0-1-0.4-1-1v-1h1h1V11z M7.25,8c-0.2761,0-0.5-0.2239-0.5-0.5S6.9739,7,7.25,7s0.5,0.2239,0.5,0.5
	S7.5261,8,7.25,8z"/>
</svg>
