<?xml version="1.0" encoding="utf-8"?>
<!-- Generator: Adobe Illustrator 19.2.1, SVG Export Plug-In . SVG Version: 6.00 Build 0)  -->
<!DOCTYPE svg PUBLIC "-//W3C//DTD SVG 1.1//EN" "http://www.w3.org/Graphics/SVG/1.1/DTD/svg11.dtd">
<svg version="1.1"
	 id="svg4619" inkscape:version="0.91 r13725" sodipodi:docname="harbor-15.svg" xmlns:cc="http://creativecommons.org/ns#" xmlns:dc="http://purl.org/dc/elements/1.1/" xmlns:inkscape="http://www.inkscape.org/namespaces/inkscape" xmlns:rdf="http://www.w3.org/1999/02/22-rdf-syntax-ns#" xmlns:sodipodi="http://sodipodi.sourceforge.net/DTD/sodipodi-0.dtd" xmlns:svg="http://www.w3.org/2000/svg"
	 xmlns="http://www.w3.org/2000/svg" xmlns:xlink="http://www.w3.org/1999/xlink" x="0px" y="0px" width="15px" height="15px"
	 viewBox="0 0 15 15" style="enable-background:new 0 0 15 15;" xml:space="preserve">
<path id="path5263" d="M7.5,0C5.5,0,4,1.567,4,3.5c0.0024,1.5629,1.0397,2.902,2.5,3.3379v6.0391
	c-0.9305-0.1647-1.8755-0.5496-2.6484-1.2695C2.7992,10.6273,2.002,9.0676,2.002,6.498c0.0077-0.5646-0.4531-1.0236-1.0176-1.0137
	C0.4329,5.493-0.0076,5.9465,0,6.498c0,3.0029,1.0119,5.1955,2.4902,6.5723C3.9685,14.4471,5.8379,15,7.5,15
	c1.6656,0,3.535-0.5596,5.0117-1.9395S14.998,9.4868,14.998,6.498c0.0648-1.3953-2.0628-1.3953-1.998,0
	c0,2.553-0.7997,4.1149-1.8535,5.0996C10.3731,12.3203,9.4288,12.7084,8.5,12.875V6.8418C9.9607,6.4058,10.9986,5.0642,11,3.5
	C11,1.567,9.5,0,7.5,0z M7.5,2C8.3284,2,9,2.6716,9,3.5S8.3284,5,7.5,5S6,4.3284,6,3.5S6.6716,2,7.5,2z"/>
</svg>
