<?xml version="1.0" encoding="utf-8"?>
<!-- Generator: Adobe Illustrator 22.1.0, SVG Export Plug-In . SVG Version: 6.00 Build 0)  -->
<svg version="1.1" id="start_here" xmlns="http://www.w3.org/2000/svg" xmlns:xlink="http://www.w3.org/1999/xlink" x="0px" y="0px"
	 width="11px" height="11px" viewBox="0 0 11 11" style="enable-background:new 0 0 11 11;" xml:space="preserve">
<g id="GaLBQ6.tif_2_">
	<g>
		<path d="M1.2174,8.3652C0.8535,8.8127,0.9497,9.4896,1.423,9.8184c0.4178,0.2902,0.9442,0.238,1.3172-0.1347
			c1.2813-1.2802,2.562-2.5611,3.841-3.8436C6.6447,5.7764,6.6952,5.7546,6.788,5.7863c0.4279,0.1458,0.8659,0.1627,1.3055,0.0611
			c1.3402-0.3096,2.1605-1.6406,1.8354-2.9751C9.906,2.7783,9.8722,2.6868,9.8351,2.567C9.7998,2.6112,8.8376,3.5803,8.3764,4.0471
			c-0.0587,0.0595-0.1167,0.0784-0.195,0.0665C8.0791,4.0979,7.2868,4.034,7,4C6.9522,3.5907,6.9268,3.1638,6.8846,2.7619
			c-0.004-0.0378,0.0229-0.0894,0.0517-0.1185C7.2869,2.2885,8.2679,1.31,8.4116,1.1666C8.1,1.0195,7.5652,0.9615,7.1668,1.0263
			c-1.5072,0.245-2.4274,1.7518-1.95,3.1974c0.0262,0.0795,0.0098,0.1259-0.0469,0.1824L1.2174,8.3652z"/>
	</g>
</g>
</svg>
