<?xml version="1.0" encoding="UTF-8" standalone="no"?>
<!-- Created with Inkscape (http://www.inkscape.org/) -->

<svg
   xmlns:dc="http://purl.org/dc/elements/1.1/"
   xmlns:cc="http://creativecommons.org/ns#"
   xmlns:rdf="http://www.w3.org/1999/02/22-rdf-syntax-ns#"
   xmlns:svg="http://www.w3.org/2000/svg"
   xmlns="http://www.w3.org/2000/svg"
   xmlns:sodipodi="http://sodipodi.sourceforge.net/DTD/sodipodi-0.dtd"
   xmlns:inkscape="http://www.inkscape.org/namespaces/inkscape"
   version="1.1"
   width="15"
   height="15"
   id="svg4619"
   viewBox="0 0 15 15"
   inkscape:version="0.91 r13725"
   sodipodi:docname="heliport-15.svg">
  <metadata
     id="metadata8">
    <rdf:RDF>
      <cc:Work
         rdf:about="">
        <dc:format>image/svg+xml</dc:format>
        <dc:type
           rdf:resource="http://purl.org/dc/dcmitype/StillImage" />
        <dc:title></dc:title>
      </cc:Work>
    </rdf:RDF>
  </metadata>
  <defs
     id="defs6" />
  <sodipodi:namedview
     pagecolor="#ffffff"
     bordercolor="#666666"
     borderopacity="1"
     objecttolerance="10"
     gridtolerance="10"
     guidetolerance="10"
     inkscape:pageopacity="0"
     inkscape:pageshadow="2"
     inkscape:window-width="1366"
     inkscape:window-height="607"
     id="namedview4"
     showgrid="true"
     inkscape:snap-bbox="true"
     inkscape:bbox-paths="true"
     inkscape:bbox-nodes="true"
     inkscape:object-paths="true"
     inkscape:zoom="31.466667"
     inkscape:cx="9.0508989"
     inkscape:cy="6.1991352"
     inkscape:window-x="0"
     inkscape:window-y="0"
     inkscape:window-maximized="0"
     inkscape:current-layer="svg4619">
    <inkscape:grid
       type="xygrid"
       id="grid3336" />
  </sodipodi:namedview>
  <path
     style="opacity:1;fill:#000000;fill-opacity:1;stroke:none;stroke-width:0.99999994;stroke-linecap:round;stroke-linejoin:miter;stroke-miterlimit:4;stroke-dasharray:none;stroke-dashoffset:0;stroke-opacity:1"
     d="M 3.9999999,2.0000002 C 3,2.0000002 3,3.0000004 3.9999999,3.0000004 l 4.0000001,0 0,1 c -0.277,0 -0.4999999,0.2230002 -0.4999999,0.5 l 0,0.5 -2.5,0 -1.0292969,0 -0.039062,0 C 3.7040624,4.1200634 2.912204,3.5010661 2.0000001,3.5000004 0.89543048,3.5000004 0,4.3954308 0,5.5000005 0,6.6045701 0.89543048,7.5000006 2.0000001,7.5000006 2.3722464,7.499025 2.7368339,7.3941813 3.0527343,7.1972661 L 5.4999999,10.5 C 6.5073676,11.950493 8.3181816,12 9,12 l 5,0 c 0,0 1,0 1,-1 l 0,-0.994141 C 15,9.2734383 14.873989,8.873989 14.5,8.5000007 l -3,-3.0000002 c 0,0 -0.591616,-0.5000001 -1.273439,-0.5000001 l -0.7265608,0 0,-0.5 c 0,-0.2769998 -0.2230002,-0.5 -0.5000002,-0.5 l 0,-1 4,0 c 1,0 1,-1.0000002 0,-1.0000002 l -9.0000001,0 z M 2.0000001,4.5000004 C 2.5522846,4.5000004 3,4.9477157 3,5.5000005 c 0,0.5522848 -0.4477154,1 -0.9999999,1 -0.5522851,0 -1.0000001,-0.4477152 -1.00000018,-1 C 1,4.9477157 1.447715,4.5000004 2.0000001,4.5000004 Z m 8.0000009,1.5000001 c 0.499999,0 0.78956,0.323094 0.999998,0.5 l 2.5,2.5000003 -3.499998,0 c 0,0 -1.000001,0 -1.000001,-1.0000001 L 9,7.0000006 c 0,0 3e-7,-1 1.000001,-1.0000001 z"
     id="path10415"
     inkscape:connector-curvature="0" />
</svg>
