<?xml version="1.0" encoding="utf-8"?>
<!-- Generator: Adobe Illustrator 19.2.1, SVG Export Plug-In . SVG Version: 6.00 Build 0)  -->
<!DOCTYPE svg PUBLIC "-//W3C//DTD SVG 1.1//EN" "http://www.w3.org/Graphics/SVG/1.1/DTD/svg11.dtd">
<svg version="1.1"
	 id="svg4764" inkscape:version="0.91+devel+osxmenu r12911" sodipodi:docname="heliport-11.svg" xmlns:cc="http://creativecommons.org/ns#" xmlns:dc="http://purl.org/dc/elements/1.1/" xmlns:inkscape="http://www.inkscape.org/namespaces/inkscape" xmlns:rdf="http://www.w3.org/1999/02/22-rdf-syntax-ns#" xmlns:sodipodi="http://sodipodi.sourceforge.net/DTD/sodipodi-0.dtd" xmlns:svg="http://www.w3.org/2000/svg"
	 xmlns="http://www.w3.org/2000/svg" xmlns:xlink="http://www.w3.org/1999/xlink" x="0px" y="0px" width="11px" height="11px"
	 viewBox="0 0 11 11" style="enable-background:new 0 0 11 11;" xml:space="preserve">
<path id="path10415" inkscape:connector-curvature="0" sodipodi:nodetypes="ssccccccsccsscssccsccssssssssscsccccsc" d="M3,1
	C2.723,1,2.5,1.223,2.5,1.5S2.7236,1.9824,3,2h3v2H2.9141h-0.002C2.7004,3.4014,2.1349,3.0009,1.5,3C0.6716,3,0,3.6716,0,4.5
	S0.6716,6,1.5,6c0.3794-0.0007,0.7444-0.1452,1.0215-0.4043L4.5,8.5c0.6812,1,1.5,1,2,1h3.5352c0,0,0.9648-0.0008,0.9648-1v-1
	c0-0.5-0.5-1-0.5-1l-2-2c0,0-0.5-0.5-1-0.5H7V2h3c0.277,0,0.5-0.223,0.5-0.5S10.277,1,10,1H3z M1.5,4C1.7761,4,2,4.2239,2,4.5
	S1.7761,5,1.5,5S1,4.7761,1,4.5S1.2239,4,1.5,4z M7.75,5C7.75,5,8,5,8.5,5.5L10,7H7.5C7.5,7,7,7,7,6.5v-1C7,5.5,7,5,7.5,5H7.75z"/>
</svg>
