<?xml version="1.0" encoding="UTF-8" standalone="no"?>
<!-- Generator: Adobe Illustrator 19.2.1, SVG Export Plug-In . SVG Version: 6.00 Build 0)  -->

<svg
   xmlns:dc="http://purl.org/dc/elements/1.1/"
   xmlns:cc="http://creativecommons.org/ns#"
   xmlns:rdf="http://www.w3.org/1999/02/22-rdf-syntax-ns#"
   xmlns:svg="http://www.w3.org/2000/svg"
   xmlns="http://www.w3.org/2000/svg"
   xmlns:sodipodi="http://sodipodi.sourceforge.net/DTD/sodipodi-0.dtd"
   xmlns:inkscape="http://www.inkscape.org/namespaces/inkscape"
   version="1.1"
   id="Layer_1"
   x="0px"
   y="0px"
   width="15px"
   height="15px"
   viewBox="0 0 15 15"
   style="enable-background:new 0 0 15 15;"
   xml:space="preserve"
   inkscape:version="0.91 r13725"
   sodipodi:docname="hiker-15.svg"><metadata
     id="metadata9"><rdf:RDF><cc:Work
         rdf:about=""><dc:format>image/svg+xml</dc:format><dc:type
           rdf:resource="http://purl.org/dc/dcmitype/StillImage" /><dc:title></dc:title></cc:Work></rdf:RDF></metadata><defs
     id="defs7" /><sodipodi:namedview
     pagecolor="#ffffff"
     bordercolor="#666666"
     borderopacity="1"
     objecttolerance="10"
     gridtolerance="10"
     guidetolerance="10"
     inkscape:pageopacity="0"
     inkscape:pageshadow="2"
     inkscape:window-width="1920"
     inkscape:window-height="1027"
     id="namedview5"
     showgrid="true"
     inkscape:zoom="45.254834"
     inkscape:cx="6.5199336"
     inkscape:cy="7.3088384"
     inkscape:window-x="-8"
     inkscape:window-y="-8"
     inkscape:window-maximized="1"
     inkscape:current-layer="Layer_1"
     inkscape:snap-bbox="true"
     inkscape:snap-smooth-nodes="true"
     inkscape:bbox-paths="true"
     inkscape:bbox-nodes="true"
     inkscape:snap-bbox-edge-midpoints="true"
     inkscape:snap-bbox-midpoints="true"
     inkscape:object-paths="true"
     inkscape:snap-intersection-paths="true"
     inkscape:object-nodes="true"
     inkscape:snap-midpoints="true"
     inkscape:snap-global="true"><inkscape:grid
       type="xygrid"
       id="grid4137"
       empspacing="1" /></sodipodi:namedview><g
     id="g4265"
     style="stroke-linecap:butt"
     transform="translate(0.05625072,-1040.1444)" /><path
     style="color:#000000;font-style:normal;font-variant:normal;font-weight:normal;font-stretch:normal;font-size:medium;line-height:normal;font-family:sans-serif;text-indent:0;text-align:start;text-decoration:none;text-decoration-line:none;text-decoration-style:solid;text-decoration-color:#000000;letter-spacing:normal;word-spacing:normal;text-transform:none;direction:ltr;block-progression:tb;writing-mode:lr-tb;baseline-shift:baseline;text-anchor:start;white-space:normal;clip-rule:nonzero;display:inline;overflow:visible;visibility:visible;opacity:1;isolation:auto;mix-blend-mode:normal;color-interpolation:sRGB;color-interpolation-filters:linearRGB;solid-color:#000000;solid-opacity:1;fill:#000000;fill-opacity:1;fill-rule:nonzero;stroke:none;stroke-width:0.43209872;stroke-linecap:round;stroke-linejoin:round;stroke-miterlimit:4;stroke-dasharray:none;stroke-dashoffset:0;stroke-opacity:1;color-rendering:auto;image-rendering:auto;shape-rendering:auto;text-rendering:auto;enable-background:accumulate"
     d="M 9,1 C 8.8621659,1 8.7286332,1.0281152 8.609375,1.078125 8.4904587,1.1289037 8.3832288,1.2027087 8.2929688,1.2929688 8.2025938,1.3833438 8.1285938,1.4896562 8.078125,1.609375 l 0,0.00195 C 8.0273223,1.7308465 8,1.8625686 8,2 8,2.1374314 8.0273223,2.2691535 8.078125,2.3886719 l 0,0.00195 c 0.050779,0.1189163 0.1245837,0.2261462 0.2148438,0.3164062 0.090375,0.090375 0.1966874,0.1643751 0.3164062,0.2148438 l 0.00195,0 C 8.7308465,2.9726777 8.8625686,3 9,3 9.1374314,3 9.2711066,2.9726777 9.390625,2.921875 9.6284576,2.8203177 9.8203177,2.6284576 9.921875,2.390625 l 0,-0.00195 C 9.9726777,2.2691535 10,2.1374314 10,2 10,1.8625686 9.9726777,1.7288934 9.921875,1.609375 9.8714062,1.4896562 9.7974062,1.3833438 9.7070312,1.2929688 9.6167712,1.2027087 9.5095413,1.1289037 9.390625,1.078125 l -0.00195,0 C 9.2691535,1.0273223 9.1374314,1 9,1 Z M 8,3.2675756 5.4238281,4.0722656 C 5.2728851,4.1100014 5.1608594,4.1993456 5.0722656,4.3125 5.0036024,4.4001986 4.9354652,4.4987571 4.9042969,4.6152344 L 4.1289062,7.3203125 c -0.071604,0.2675854 0.08593,0.5397244 0.3535157,0.6113281 0.2675854,0.071604 0.5416776,-0.08593 0.6132812,-0.3535156 L 5.8378906,5 7.4825369,4.5004402 5,10 2.4238281,11.015625 C 2.1550985,11.082805 1.9328176,11.352364 2,11.621094 2.067182,11.889823 2.3420433,12.067182 2.6107729,12 L 5.4746094,11 C 5.6612175,10.94898 6.0896001,10.690725 6.2531785,10.420057 L 7.5234375,8.6972656 C 7.684736,8.5647015 7.7712747,8.6202358 7.9140628,8.7109376 L 9.7937915,9.8725678 10,10 l 4.21e-4,0.271187 0.0051,3.273735 C 10.005891,13.796739 10.20876,14 10.5055,14 c 0.29674,0 0.500392,-0.203261 0.5,-0.455078 L 11,9.9960938 C 11,9.6881075 11.02849,9.3725806 10.78125,9.1582031 L 8.6096378,7.1962571 9.4960938,4.9902344 10.59398,6.6337702 C 10.698913,6.7878202 10.991961,7.0156244 11.132583,7 L 12,7 12,13.445312 C 12,13.753091 12.223,14 12.5,14 12.777,14 13,13.75309 13,13.445312 L 13,7 13.5,7 C 13.777,7 14,6.777 14,6.5 14,6.223 13.777,6 13.5,6 L 13,6 13,4.5546875 C 13,4.2469097 12.777,4 12.5,4 12.223,4 12,4.2469097 12,4.5546875 L 12,6 11.333984,5.984375 10,4 C 9.6285653,3.4792205 8.9134348,3 8,3.2675756 Z"
     id="path11665"
     inkscape:connector-curvature="0"
     sodipodi:nodetypes="scsccsccsccscccscsccsccsccscccccsccccccccscscccccccssscssscssscccc" /></svg>