<?xml version="1.0" encoding="UTF-8" standalone="no"?>
<!-- Generator: Adobe Illustrator 19.2.1, SVG Export Plug-In . SVG Version: 6.00 Build 0)  -->

<svg
   xmlns:dc="http://purl.org/dc/elements/1.1/"
   xmlns:cc="http://creativecommons.org/ns#"
   xmlns:rdf="http://www.w3.org/1999/02/22-rdf-syntax-ns#"
   xmlns:svg="http://www.w3.org/2000/svg"
   xmlns="http://www.w3.org/2000/svg"
   xmlns:sodipodi="http://sodipodi.sourceforge.net/DTD/sodipodi-0.dtd"
   xmlns:inkscape="http://www.inkscape.org/namespaces/inkscape"
   version="1.1"
   id="Layer_1"
   x="0px"
   y="0px"
   width="11"
   height="11"
   viewBox="0 0 11 11"
   xml:space="preserve"
   inkscape:version="0.91 r13725"
   sodipodi:docname="hiker-11.svg"><metadata
     id="metadata9"><rdf:RDF><cc:Work
         rdf:about=""><dc:format>image/svg+xml</dc:format><dc:type
           rdf:resource="http://purl.org/dc/dcmitype/StillImage" /><dc:title></dc:title></cc:Work></rdf:RDF></metadata><defs
     id="defs7" /><sodipodi:namedview
     pagecolor="#ffffff"
     bordercolor="#666666"
     borderopacity="1"
     objecttolerance="10"
     gridtolerance="10"
     guidetolerance="10"
     inkscape:pageopacity="0"
     inkscape:pageshadow="2"
     inkscape:window-width="1920"
     inkscape:window-height="1027"
     id="namedview5"
     showgrid="true"
     inkscape:zoom="45.254834"
     inkscape:cx="6.4502956"
     inkscape:cy="6.2269472"
     inkscape:window-x="-8"
     inkscape:window-y="-8"
     inkscape:window-maximized="1"
     inkscape:current-layer="Layer_1"
     inkscape:snap-bbox="true"
     inkscape:snap-smooth-nodes="true"
     inkscape:bbox-paths="true"
     inkscape:bbox-nodes="true"
     inkscape:snap-bbox-edge-midpoints="true"
     inkscape:snap-bbox-midpoints="true"
     inkscape:object-paths="true"
     inkscape:snap-intersection-paths="true"
     inkscape:object-nodes="true"
     inkscape:snap-midpoints="true"
     inkscape:snap-global="true"><inkscape:grid
       type="xygrid"
       id="grid4137"
       empspacing="1" /></sodipodi:namedview><g
     id="g4265"
     style="stroke-linecap:butt"
     transform="translate(-2.943749,-1044.367)" /><path
     style="color:#000000;font-style:normal;font-variant:normal;font-weight:normal;font-stretch:normal;font-size:medium;line-height:normal;font-family:sans-serif;text-indent:0;text-align:start;text-decoration:none;text-decoration-line:none;text-decoration-style:solid;text-decoration-color:#000000;letter-spacing:normal;word-spacing:normal;text-transform:none;direction:ltr;block-progression:tb;writing-mode:lr-tb;baseline-shift:baseline;text-anchor:start;white-space:normal;clip-rule:nonzero;display:inline;overflow:visible;visibility:visible;opacity:1;isolation:auto;mix-blend-mode:normal;color-interpolation:sRGB;color-interpolation-filters:linearRGB;solid-color:#000000;solid-opacity:1;fill:#000000;fill-opacity:1;fill-rule:nonzero;stroke:none;stroke-width:0.43209872;stroke-linecap:round;stroke-linejoin:round;stroke-miterlimit:4;stroke-dasharray:none;stroke-dashoffset:0;stroke-opacity:1;color-rendering:auto;image-rendering:auto;shape-rendering:auto;text-rendering:auto;enable-background:accumulate"
     d="m 6.503906,0.0097656 c -0.137834,0 -0.271367,0.028115 -0.390625,0.078125 C 5.994365,0.1386696 5.887135,0.2124743 5.796875,0.3027344 5.706505,0.3931094 5.6325,0.4994218 5.582031,0.6191406 l 0,0.00195 c -0.050803,0.1195215 -0.078125,0.2512436 -0.078125,0.388675 0,0.1374314 0.02732,0.2691535 0.07813,0.3886719 l 0,0.00195 c 0.05078,0.1189163 0.124584,0.2261462 0.214844,0.3164062 0.09038,0.090375 0.196687,0.1643751 0.316406,0.2148438 l 0.002,0 c 0.119467,0.050806 0.251189,0.078128 0.38862,0.078128 0.137431,0 0.271107,-0.027322 0.390625,-0.078125 0.237833,-0.1015573 0.429693,-0.2934174 0.53125,-0.53125 l 0,-0.00195 C 7.476584,1.278919 7.503906,1.1471969 7.503906,1.0097655 c 0,-0.1374314 -0.02732,-0.2711066 -0.07813,-0.390625 C 7.375306,0.4994218 7.301307,0.3931094 7.210932,0.3027344 7.120672,0.2124744 7.013442,0.1386693 6.894526,0.0878906 l -0.002,0 C 6.77306,0.0370876 6.641337,0.0097656 6.503906,0.0097656 Z m -1,2.2675755 -2.2005215,0.7949244 c -0.150943,0.037736 -0.262969,0.12708 -0.351562,0.2402345 -0.06866,0.087699 -0.136801,0.186257 -0.167969,0.3027344 L 2.1657855,5.3886719 C 2.0941855,5.6562573 2.2517155,5.9283963 2.5193015,6 2.7868865,6.071604 3.0609795,5.91407 3.1325825,5.6464844 L 3.7174475,4 4.986443,3.5102058 3.276692,8 1.3323366,8.8830425 c -0.268729,0.06718 -0.45786443,0.3809331 -0.39068243,0.6496631 0.06718,0.2687291 0.34204303,0.446088 0.61077303,0.3789061 L 3.6408155,9 C 4.0883883,8.756932 4.1011269,8.7570163 4.2647059,8.4863483 L 5.1104854,6.986328 C 5.2717834,6.853764 5.3583224,6.909298 5.5011104,7 L 6.793792,7.8725677 7,8 l 4.21e-4,0.2711869 0.0051,2.2737351 C 7.0060858,10.796739 7.20876,11 7.5055,11 c 0.29674,0 0.5005434,-0.203261 0.5,-0.455078 L 8,7.9960937 C 8,7.6881075 8.02849,7.3725806 7.78125,7.158203 L 6.2461265,6 7,4 7.59398,4.6337701 C 7.698913,4.7878202 7.991961,5.0156244 8.132583,5 L 9,5 9,10.445312 C 9,10.753091 9.223,11 9.5,11 9.777,11 10,10.75309 10,10.445312 L 10,5 10.5,5 C 10.777,5 11,4.777 11,4.5 11,4.223 10.777,4 10.5,4 L 10,4 10,3.3943768 C 10,3.086599 9.777,2.8396893 9.5,2.8396893 9.223,2.8396893 9,3.086599 9,3.3943768 L 9,4 8.333984,3.984375 7.503906,3.0097656 c -0.371435,-0.5207796 -1.086565,-1 -2,-0.7324245 z"
     id="path11665"
     inkscape:connector-curvature="0"
     sodipodi:nodetypes="scsccsccsccscccscsccsccsccscccccsccccccccscscccccccssscssscssscccc" /></svg>