<?xml version="1.0" encoding="UTF-8" standalone="no"?>
<!-- Generator: Adobe Illustrator 19.2.1, SVG Export Plug-In . SVG Version: 6.00 Build 0)  -->

<svg
   xmlns:dc="http://purl.org/dc/elements/1.1/"
   xmlns:cc="http://creativecommons.org/ns#"
   xmlns:rdf="http://www.w3.org/1999/02/22-rdf-syntax-ns#"
   xmlns:svg="http://www.w3.org/2000/svg"
   xmlns="http://www.w3.org/2000/svg"
   xmlns:sodipodi="http://sodipodi.sourceforge.net/DTD/sodipodi-0.dtd"
   xmlns:inkscape="http://www.inkscape.org/namespaces/inkscape"
   version="1.1"
   id="Layer_1"
   x="0px"
   y="0px"
   width="11"
   height="11"
   viewBox="0 0 11 11"
   xml:space="preserve"
   inkscape:version="0.91 r13725"
   sodipodi:docname="hiker-11.svg"><metadata
     id="metadata9"><rdf:RDF><cc:Work
         rdf:about=""><dc:format>image/svg+xml</dc:format><dc:type
           rdf:resource="http://purl.org/dc/dcmitype/StillImage" /><dc:title /></cc:Work></rdf:RDF></metadata><defs
     id="defs7" /><sodipodi:namedview
     pagecolor="#ffffff"
     bordercolor="#666666"
     borderopacity="1"
     objecttolerance="10"
     gridtolerance="10"
     guidetolerance="10"
     inkscape:pageopacity="0"
     inkscape:pageshadow="2"
     inkscape:window-width="1920"
     inkscape:window-height="1027"
     id="namedview5"
     showgrid="true"
     inkscape:zoom="45.254834"
     inkscape:cx="-0.15700586"
     inkscape:cy="6.3766632"
     inkscape:window-x="-8"
     inkscape:window-y="-8"
     inkscape:window-maximized="1"
     inkscape:current-layer="Layer_1"
     inkscape:snap-bbox="true"
     inkscape:snap-smooth-nodes="true"
     inkscape:bbox-paths="true"
     inkscape:bbox-nodes="true"
     inkscape:snap-bbox-edge-midpoints="true"
     inkscape:snap-bbox-midpoints="true"
     inkscape:object-paths="true"
     inkscape:snap-intersection-paths="true"
     inkscape:object-nodes="true"
     inkscape:snap-midpoints="true"
     inkscape:snap-global="true"><inkscape:grid
       type="xygrid"
       id="grid4137"
       empspacing="1" /></sodipodi:namedview><path
     style="color:#000000;font-style:normal;font-variant:normal;font-weight:normal;font-stretch:normal;font-size:medium;line-height:normal;font-family:sans-serif;text-indent:0;text-align:start;text-decoration:none;text-decoration-line:none;text-decoration-style:solid;text-decoration-color:#000000;letter-spacing:normal;word-spacing:normal;text-transform:none;direction:ltr;block-progression:tb;writing-mode:lr-tb;baseline-shift:baseline;text-anchor:start;white-space:normal;clip-rule:nonzero;display:inline;overflow:visible;visibility:visible;opacity:1;isolation:auto;mix-blend-mode:normal;color-interpolation:sRGB;color-interpolation-filters:linearRGB;solid-color:#000000;solid-opacity:1;fill:#000000;fill-opacity:1;fill-rule:nonzero;stroke:none;stroke-width:0.43209872;stroke-linecap:round;stroke-linejoin:round;stroke-miterlimit:4;stroke-dasharray:none;stroke-dashoffset:0;stroke-opacity:1;color-rendering:auto;image-rendering:auto;shape-rendering:auto;text-rendering:auto;enable-background:accumulate"
     d="m 6.503906,0.0097656 c -0.137834,0 -0.271367,0.028115 -0.390625,0.078125 C 5.994365,0.1386696 5.887135,0.2124743 5.796875,0.3027344 5.706505,0.3931094 5.6325,0.4994218 5.582031,0.6191406 l 0,0.00195 c -0.050803,0.1195215 -0.078125,0.2512436 -0.078125,0.388675 0,0.1374314 0.02732,0.2691535 0.07813,0.3886719 l 0,0.00195 c 0.05078,0.1189163 0.124584,0.2261462 0.214844,0.3164062 0.09038,0.090375 0.196687,0.1643751 0.316406,0.2148438 l 0.002,0 c 0.119467,0.050806 0.251189,0.078128 0.38862,0.078128 0.137431,0 0.271107,-0.027322 0.390625,-0.078125 0.237833,-0.1015573 0.429693,-0.2934174 0.53125,-0.53125 l 0,-0.00195 C 7.476584,1.278919 7.503906,1.1471969 7.503906,1.0097655 c 0,-0.1374314 -0.02732,-0.2711066 -0.07813,-0.390625 C 7.375306,0.4994218 7.301307,0.3931094 7.210932,0.3027344 7.120672,0.2124744 7.013442,0.1386693 6.894526,0.0878906 l -0.002,0 C 6.77306,0.0370876 6.641337,0.0097656 6.503906,0.0097656 Z m -1,2.2675755 -1.7590382,0.2773464 C 3.3325299,2.6604822 3,2.5557582 3,3 L 3,5.5135 C 3,5.8162417 3.2714768,6 3.5195315,6 3.7965313,6 4,5.7675856 4,5.5 L 4,3.5772445 5,3.4477058 3.386067,8 1.5,8 C 1.2202225,8 1,8.2133246 1,8.5 1,8.7866754 1.2478428,9 1.5,9 L 3.9220655,9 C 4.3203125,9 4.4029887,8.748297 4.5459559,8.4863483 L 5.1104854,6.986328 C 5.2717834,6.853764 5.3583224,6.909298 5.5011104,7 L 6.793792,7.8725677 7,8 l 4.21e-4,0.2711869 0.0051,2.2737351 C 7.0060858,10.796739 7.20876,11 7.5055,11 c 0.29674,0 0.5005434,-0.203261 0.5,-0.455078 L 8,7.9960937 C 8,7.6881075 8.02849,7.3725806 7.78125,7.158203 L 6.4180015,6 7,4 7.5608344,4.6779643 C 7.6657674,4.8320144 7.798611,5 8,5 l 1,0 0,5.445312 C 9,10.753091 9.223,11 9.5,11 9.777,11 10,10.75309 10,10.445312 L 10,5 10.5,5 C 10.777,5 11,4.777 11,4.5 11,4.223 10.777,4 10.5,4 L 10,4 10,3.5506268 C 10,3.242849 9.777,3 9.5,3 9.223,3 9,3.242849 9,3.5506268 L 9,4 8.2676927,4 7.503906,3.0097656 c -0.371435,-0.5207796 -1.086565,-1 -2,-0.7324245 z"
     id="path11665"
     inkscape:connector-curvature="0"
     sodipodi:nodetypes="scsccsccsccscccscsccsccccsccccczccccccccscscccccccssscssscssscccc" /></svg>