<?xml version="1.0" encoding="UTF-8" standalone="no"?>
<!-- Generator: Adobe Illustrator 19.2.1, SVG Export Plug-In . SVG Version: 6.00 Build 0)  -->

<svg
   xmlns:dc="http://purl.org/dc/elements/1.1/"
   xmlns:cc="http://creativecommons.org/ns#"
   xmlns:rdf="http://www.w3.org/1999/02/22-rdf-syntax-ns#"
   xmlns:svg="http://www.w3.org/2000/svg"
   xmlns="http://www.w3.org/2000/svg"
   xmlns:sodipodi="http://sodipodi.sourceforge.net/DTD/sodipodi-0.dtd"
   xmlns:inkscape="http://www.inkscape.org/namespaces/inkscape"
   version="1.1"
   id="Layer_1"
   x="0px"
   y="0px"
   width="15px"
   height="15px"
   viewBox="0 0 15 15"
   style="enable-background:new 0 0 15 15;"
   xml:space="preserve"
   inkscape:version="0.91 r13725"
   sodipodi:docname="hiker-15.svg"><metadata
     id="metadata9"><rdf:RDF><cc:Work
         rdf:about=""><dc:format>image/svg+xml</dc:format><dc:type
           rdf:resource="http://purl.org/dc/dcmitype/StillImage" /><dc:title /></cc:Work></rdf:RDF></metadata><defs
     id="defs7" /><sodipodi:namedview
     pagecolor="#ffffff"
     bordercolor="#666666"
     borderopacity="1"
     objecttolerance="10"
     gridtolerance="10"
     guidetolerance="10"
     inkscape:pageopacity="0"
     inkscape:pageshadow="2"
     inkscape:window-width="1920"
     inkscape:window-height="1027"
     id="namedview5"
     showgrid="true"
     inkscape:zoom="32"
     inkscape:cx="4.984375"
     inkscape:cy="9.6423916"
     inkscape:window-x="-8"
     inkscape:window-y="-8"
     inkscape:window-maximized="1"
     inkscape:current-layer="Layer_1"
     inkscape:snap-bbox="true"
     inkscape:snap-smooth-nodes="true"
     inkscape:bbox-paths="true"
     inkscape:bbox-nodes="true"
     inkscape:snap-bbox-edge-midpoints="true"
     inkscape:snap-bbox-midpoints="true"
     inkscape:object-paths="true"
     inkscape:snap-intersection-paths="true"
     inkscape:object-nodes="true"
     inkscape:snap-midpoints="true"
     inkscape:snap-global="true"><inkscape:grid
       type="xygrid"
       id="grid4137"
       empspacing="1" /></sodipodi:namedview><path
     style="color:#000000;font-style:normal;font-variant:normal;font-weight:normal;font-stretch:normal;font-size:medium;line-height:normal;font-family:sans-serif;text-indent:0;text-align:start;text-decoration:none;text-decoration-line:none;text-decoration-style:solid;text-decoration-color:#000000;letter-spacing:normal;word-spacing:normal;text-transform:none;direction:ltr;block-progression:tb;writing-mode:lr-tb;baseline-shift:baseline;text-anchor:start;white-space:normal;clip-rule:nonzero;display:inline;overflow:visible;visibility:visible;opacity:1;isolation:auto;mix-blend-mode:normal;color-interpolation:sRGB;color-interpolation-filters:linearRGB;solid-color:#000000;solid-opacity:1;fill:#000000;fill-opacity:1;fill-rule:nonzero;stroke:none;stroke-width:0.43209872;stroke-linecap:round;stroke-linejoin:round;stroke-miterlimit:4;stroke-dasharray:none;stroke-dashoffset:0;stroke-opacity:1;color-rendering:auto;image-rendering:auto;shape-rendering:auto;text-rendering:auto;enable-background:accumulate"
     d="m 8.012105,0.996094 c -0.1378341,0 -0.2713668,0.0281152 -0.390625,0.078125 C 7.5025637,1.1249977 7.3953338,1.1988027 7.3050738,1.2890628 7.2146988,1.3794378 7.1406988,1.4857502 7.09023,1.605469 l 0,0.00195 C 7.039427,1.7269405 7.012105,1.8586626 7.012105,1.996094 c 0,0.1374314 0.027322,0.2691535 0.078125,0.3886719 l 0,0.00195 c 0.050779,0.1189163 0.1245837,0.2261462 0.2148438,0.3164062 0.090375,0.090375 0.1966874,0.1643751 0.3164062,0.2148438 l 0.00195,0 c 0.1195215,0.050806 0.2512436,0.078128 0.388675,0.078128 0.1374314,0 0.2711066,-0.027322 0.390625,-0.078125 0.2378326,-0.1015573 0.4296927,-0.2934174 0.53125,-0.53125 l 0,-0.00195 C 8.9847827,2.2652475 9.012105,2.1335254 9.012105,1.996094 9.012105,1.8586626 8.9847827,1.7249874 8.93398,1.605469 8.8835112,1.4857502 8.8095112,1.3794378 8.7191362,1.2890628 8.6288762,1.1988027 8.5216463,1.1249977 8.40273,1.074219 l -0.00195,0 C 8.2812585,1.0234163 8.1495364,0.996094 8.012105,0.996094 Z m -1,2.2675756 -2.4261675,0.808596 C 4.1608274,4.2462383 4,4.5286271 4,5 L 4,7.4991573 C 4,7.7888398 4.2323664,8 4.5093668,8 4.854292,8 4.9283964,7.7483418 5,7.4807562 L 5,5 6.4946419,4.4965342 5,10 2.523265,10 C 2.2655839,10.015625 2,10.232726 2,10.501456 2,10.778455 2.3088977,11.03125 2.5886758,11 L 5,11 c 0.1866081,-0.05102 0.7590818,0 1,-0.552599 L 6.8211927,8.753964 C 6.86921,8.6565561 7.1510612,8.6417777 7.211818,8.767636 l 0.800287,1.563821 0,0 4.21e-4,0.271187 0.0051,2.942278 C 8.0180625,13.796739 8.220865,14 8.517605,14 c 0.29674,0 0.50039,-0.203261 0.5,-0.455078 l -0.0055,-3.548828 c 0,-0.307986 -0.07434,-0.4253852 -0.2207606,-0.7706039 L 8,7 8.5081988,4.9863284 9.606085,6.6298642 C 9.711018,6.7839142 10.011878,7.0156244 10.1525,7 L 11,7 l 0.01211,6.441406 c 5.78e-4,0.307778 0.223,0.554688 0.5,0.554688 0.277,0 0.5,-0.24691 0.5,-0.554688 L 12,7 12.512105,6.996094 C 12.789097,6.9939813 13,6.777 13,6.5 13,6.223 12.789105,5.996094 12.512105,5.996094 L 12,6 12.012105,4.5507815 c 0.0026,-0.3077671 -0.223,-0.5546875 -0.5,-0.5546875 -0.277,0 -0.5,0.2469097 -0.5,0.5546875 L 11,6 10.346089,6 9.012105,3.996094 c -0.3714347,-0.5207795 -1.0865652,-1 -2,-0.7324244 z"
     id="path11665"
     inkscape:connector-curvature="0"
     sodipodi:nodetypes="scsccsccsccscccscsccsccccscccccsccccccccscscccccccssscssscssscccc" /></svg>