<svg id="Layer_1" data-name="Layer 1" xmlns="http://www.w3.org/2000/svg" width="11" height="11" viewBox="0 0 11 11">
  <title>hiker-11</title>
    <path d="M4,1A1,1,0,1,1,5,2,1,1,0,0,1,4,1ZM8.5,5H7L5.5,3H3.9a.5.5,0,0,0-.493.412l-1.4,7a.494.494,0,0,0,.968.2l.874-3.838L6,8.5v2a.5.5,0,0,0,1,0V8L5.136,6.273l.2-1.821L6.5,6h2a.5.5,0,0,0,0-1ZM1.748,3H1.259a.252.252,0,0,0-.249.211l-.517,2.5A.252.252,0,0,0,.742,6h.489a.252.252,0,0,0,.249-.211L2,3.294A.252.252,0,0,0,1.748,3ZM8.5,2a.5.5,0,0,0-.5.5V4H9V2.5A.5.5,0,0,0,8.5,2ZM8,10.5a.5.5,0,0,0,1,0V7H8Z"/>
</svg>
