<?xml version="1.0" encoding="UTF-8"?>
<svg version="1.1" id="historic" xmlns="http://www.w3.org/2000/svg" width="15" height="15" viewBox="0 0 15 15">
  <path d="m8.61591 1.33174c-.27459-.20366-.67282-.33174-1.11591-.33174s-.84132.12808-1.11591.33174c-.07264.05387-.14664.11369-.22219.17476-.29355.23729-.61051.4935-.9619.4935h-3.2c-.55228 0-1 .44772-1 1v7c0 .5523.44772 1 1 1h4.75v2.25c0 .4142.33579.75.75.75s.75-.3358.75-.75v-2.25h4.75c.5523 0 1-.4477 1-1v-7c0-.55228-.4477-1-1-1h-3.2c-.35139 0-.66835-.25621-.9619-.4935-.07555-.06107-.14955-.12089-.22219-.17476zm-5.61591 3.66826v-1h9v1zm0 1h4v1h-4zm0 2h7v1h-7z"/>
</svg>