<svg version="1.1" xmlns="http://www.w3.org/2000/svg" xmlns:xlink="http://www.w3.org/1999/xlink"
	 width="11px" height="11px" viewBox="0 0 11 11">
<path d="M10.0015,4.7507c0,0.13807-0.11193,0.25-0.25,0.25H1.25c-0.13807,0-0.25-0.11193-0.25-0.25
	c-0.00054-0.07163,0.02839-0.14033,0.08-0.19l4.2378-3.4545l0.016-0.016c0.10112-0.09209,0.2577-0.08493,0.35,0.016l2.3174,1.8892
	V1.5c0-0.27614,0.22386-0.5,0.5-0.5s0.5,0.22386,0.5,0.5v2.31l0.92,0.75C9.9731,4.60979,10.00215,4.67878,10.0015,4.7507z M2,9.7514
	c-0.00111,0.13696,0.10902,0.24889,0.24598,0.25c0.00001,0,0.00001,0,0.00002,0h2.7547v-2h1v2h2.7526
	c0.13697,0,0.248-0.11103,0.248-0.248l0,0l0,0V6.0009H2V9.7514z"/>
</svg>
