<svg id="Layer_2" data-name="Layer 2" xmlns="http://www.w3.org/2000/svg" width="11.1" height="11.1" viewBox="0 0 11.1 11.1">
  <title>Maki_home</title>
  <path d="M9.336,5.224l0-.007L8.06,3.817V2.3h0a.25.25,0,0,0-.25-.249H7.29a.25.25,0,0,0-.25.249h0v.4L5.925,1.478A.492.492,0,0,0,5.55,1.3a.5.5,0,0,0-.38.174L1.761,5.217l0,.007a.493.493,0,0,0-.128.326.5.5,0,0,0,.5.5H3.05v3h1.5V7.55h0a.5.5,0,0,1,.5-.5h1a.5.5,0,0,1,.5.5h0v1.5h1.5v-3h.914a.5.5,0,0,0,.5-.5A.493.493,0,0,0,9.336,5.224Z"/>
  <line x1="7.81" y1="2.05" x2="8.06" y2="2.3" fill="#f7931e"/>
</svg>
