<svg xmlns="http://www.w3.org/2000/svg" width="15" height="15" viewBox="0 0 15 15">
  <title>horse-riding-15</title>
  <g id="Layer_10" data-name="Layer 10">
    <path d="M2.759,8A1.872,1.872,0,0,0,1,9.973V10.5s0,.532.5.532S2,10.5,2,10.5V9.97A2.968,2.968,0,0,1,2.759,8Z"/>
    <circle cx="7.958" cy="2" r="1"/>
    <path d="M6.253,3.032A1.493,1.493,0,0,0,5,4.5V7H8V4.5a1.932,1.932,0,0,0-.091-.505A1.99,1.99,0,0,1,6.253,3.032Z"/>
    <path d="M4.5,11a1.5,1.5,0,0,1,0-3"/>
    <g>
      <path d="M4.011,13.605h.01A.493.493,0,0,0,4.5,14a.5.5,0,0,0,.5-.5V11L3.022,9.757Z"/>
      <path d="M5.75,11a.773.773,0,0,1,.734.594l.546,2.077h0A.5.5,0,0,0,8,13.5V11l-2.179-.256Z"/>
      <path d="M9.821,10.744,9.75,11a.773.773,0,0,1,.734.594l.533,2.035h.009A.493.493,0,0,0,11.5,14a.5.5,0,0,0,.5-.5V11Z"/>
    </g>
    <path d="M9.5,8h-5v3H10l.039-3.5A.535.535,0,0,1,9.5,8Z"/>
    <path d="M13.38,4.077,12,3.6c-.017-.007-.035-.009-.052-.015l-.265-.076A1.157,1.157,0,0,0,11.5,3.5a1.25,1.25,0,0,0-1.25,1.25L10,8v3h2V6.5a.5.5,0,0,1,.5-.5H13a1,1,0,0,0,.38-1.923ZM11.5,5a.5.5,0,1,1,.5-.5A.5.5,0,0,1,11.5,5Z"/>
  </g>
</svg>
