<svg id="Layer_1" data-name="Layer 1" xmlns="http://www.w3.org/2000/svg" width="11" height="11" viewBox="0 0 11 11">
  <title>horse-riding-11</title>
  <path d="M5,0A1,1,0,1,1,4,1,1,1,0,0,1,5,0ZM6,3.515a.472.472,0,0,0-.442-.5.484.484,0,0,0-.058,0h-1a.472.472,0,0,0-.5.442.485.485,0,0,0,0,.058V5H6Zm4.88.953V4.46L9,3V2.5L7,5H6L7,6.014v1a.5.5,0,0,1-1,0v-.5l-2-1.5L3,5a1,1,0,0,0-.8.446A1.189,1.189,0,0,0,1.247,5,1.21,1.21,0,0,0,0,5.988C0,7.3.635,7.471.635,7.471a.33.33,0,0,0,.115.023A.253.253,0,0,0,1,7.25V6a.49.49,0,0,1,.48-.5H1.5A.5.5,0,0,1,2,6H2V8.014l-.3.6a1.609,1.609,0,0,0-.2.6v1.542a.244.244,0,1,0,.488,0H2V9.514a.367.367,0,0,1,.1-.3l.9-1.2v.741l.014.121.453,1.94A.256.256,0,0,0,3.709,11a.25.25,0,0,0,.25-.25v-.016l-.242-1.61a.6.6,0,0,1,.025-.236L3.8,8.714,4,8H6v.755l.014.121.452,1.94A.256.256,0,0,0,6.709,11a.25.25,0,0,0,.25-.25v-.016l-.241-1.61a.6.6,0,0,1,.025-.236L6.8,8.714,7,8a.978.978,0,0,0,.934-.661L8.5,4.5a.623.623,0,0,0,.71.454.563.563,0,0,0,.143-.07l.883.065a.821.821,0,0,0,.406.154A.343.343,0,0,0,11,4.784.484.484,0,0,0,10.88,4.468Z"/>
</svg>
