<svg xmlns="http://www.w3.org/2000/svg" width="11" height="11" viewBox="0 0 11 11">
  <title>horse-riding-11</title>
  <g id="Layer_10" data-name="Layer 10">
    <circle cx="5.5" cy="1.5" r="0.5"/>
    <path d="M3,8A1,1,0,0,1,3,6"/>
    <path d="M4,3.5V5H5.5V3.5s0-.972-.75-.972S4,3.5,4,3.5Z"/>
    <path d="M9.606,4.021v-.01L7.93,3.522v.014A.722.722,0,0,0,7.75,3.5.749.749,0,0,0,7,4.244H7V5.5a.5.5,0,0,1-.5.5H3V8H8V5.25A.25.25,0,0,1,8.25,5H9.5a.5.5,0,0,0,.5-.5A.493.493,0,0,0,9.606,4.021ZM8.25,4.5a.25.25,0,1,1,.25-.25A.25.25,0,0,1,8.25,4.5Z"/>
    <path d="M1.881,6.011A.939.939,0,0,0,1,7V8s.056.239.251.239S1.5,8,1.5,8V7h0A1.488,1.488,0,0,1,1.881,6.011Z"/>
    <g>
      <path d="M2.5,9.75a.25.25,0,0,0,.5,0V7.5L2,7Z"/>
      <path d="M4.5,9.75a.25.25,0,0,0,.5,0V8H4Z"/>
      <path d="M7,8l.5,1.75a.25.25,0,0,0,.5,0V8Z"/>
    </g>
  </g>
</svg>
