<svg id="Layer_1" data-name="Layer 1" xmlns="http://www.w3.org/2000/svg" width="15" height="15" viewBox="0 0 15 15">
  <title>horse-riding-15</title>
  <g>
    <circle cx="7" cy="1" r="1"/>
    <path d="M8,3.5a.48.48,0,0,0,0-.058A.472.472,0,0,0,7.5,3h-1a.48.48,0,0,0-.058,0A.472.472,0,0,0,6,3.5V7H8Z"/>
    <path d="M1.2,7A1.29,1.29,0,0,0,0,8.2a1.078,1.078,0,0,0,.039.3l.452,1.723a.848.848,0,0,1,.009.112.524.524,0,0,1-.132.338l-.011.009L.342,10.7,0,11l.632-.183A.558.558,0,0,0,1,10.329V8.4a.661.661,0,0,1,.7-.6.891.891,0,0,1,.8.5A1.324,1.324,0,0,0,1.2,7Z"/>
  </g>
  <path d="M15,7.493c0-.081,0-.2,0-.287a.5.5,0,0,0-.139-.343L14.85,6.85,12.8,4.8l.085-.509-.014-.009c0-.02.022-.033.022-.054a.25.25,0,0,0-.25-.25.242.242,0,0,0-.149.062l-.009-.006L9,7H8L9,8V9.5a.5.5,0,0,1-1,0v-1L6,7H4A1.5,1.5,0,0,0,2.5,8.5V11l-.3,1-.158.715L2,13v1.75a.25.25,0,0,0,.25.25.247.247,0,0,0,.243-.234H2.5L2.6,13.1a.49.49,0,0,1,.1-.3L4,11v1.089l.009.1L4.5,14.8a.255.255,0,0,0,.246.2A.25.25,0,0,0,5,14.754H5L4.855,12.3l.045-.2L5.5,11H8v1.1l.009.068a.519.519,0,0,0,.01.077l.016.117.473,2.451A.257.257,0,0,0,8.75,15,.25.25,0,0,0,9,14.75l-.01-2.576L9,12.093l.367-1.173a1,1,0,0,0,.543-.517h.005L12,7l.055.021a.747.747,0,0,0,.7.479.735.735,0,0,0,.323-.08l1.082.423a.493.493,0,0,0,.35.145.487.487,0,0,0,.475-.4l.02-.01V7.5h0Z"/>
</svg>
