<svg id="Layer_1" data-name="Layer 1" xmlns="http://www.w3.org/2000/svg" width="11" height="11" viewBox="0 0 11 11">
  <title>horse-riding</title>
  <g>
    <circle cx="5" cy="1" r="1"/>
    <path d="M6,3.515a.472.472,0,0,0-.442-.5.484.484,0,0,0-.058,0h-1a.472.472,0,0,0-.5.442.485.485,0,0,0,0,.058V5H6Z"/>
    <path d="M2,6A.945.945,0,0,0,1,5,.945.945,0,0,0,0,6a.791.791,0,0,0,.1.3A8.693,8.693,0,0,1,.5,7.4a.516.516,0,0,1,0,.1.316.316,0,0,1-.1.2L0,8H.8A.215.215,0,0,0,1,7.8V6.1a.472.472,0,0,1,.442-.5.484.484,0,0,1,.058,0A.664.664,0,0,1,2,6Z"/>
    <path d="M10.879,5.041l0-.008L9.5,3.514v-.5l-2.5,2H6l1,1v1a.5.5,0,1,1-1,0v-.5l-2-1.5H3a1,1,0,0,0-1,1v2l-.3.6a1.609,1.609,0,0,0-.2.6v1.548a.244.244,0,0,0,.488,0H2V9.514a.367.367,0,0,1,.1-.3l.9-1.2v.741l.014.121.453,1.94A.256.256,0,0,0,3.709,11a.25.25,0,0,0,.25-.25v-.016l-.242-1.61a.6.6,0,0,1,.025-.236L3.8,8.714l.2-.7H6v.741l.014.121.452,1.94A.256.256,0,0,0,6.709,11a.25.25,0,0,0,.25-.25v-.016l-.241-1.61a.6.6,0,0,1,.025-.236L6.8,8.714l.2-.7a.991.991,0,0,0,.934-.675L9,5.014l0,0a.5.5,0,0,0,.5.484.493.493,0,0,0,.206-.047l.53.33h.014a.486.486,0,0,0,.249.076.5.5,0,0,0,.5-.5A.492.492,0,0,0,10.879,5.041Z"/>
  </g>
</svg>
