<svg id="Layer_1" data-name="Layer 1" xmlns="http://www.w3.org/2000/svg" width="15" height="15" viewBox="0 0 15 15">
  <title>horse-riding-15</title>
  <path d="M6,1A1,1,0,1,1,7,2,1,1,0,0,1,6,1ZM8,3.5a.484.484,0,0,0,0-.058A.472.472,0,0,0,7.5,3h-1a.484.484,0,0,0-.058,0A.472.472,0,0,0,6,3.5V7H8Zm6.85,3.644L12.8,4.8l.085-.509a.478.478,0,0,0,.008-.063.25.25,0,0,0-.25-.25.346.346,0,0,0-.158.056L9,7H8L9,8V9.5a.5.5,0,0,1-1,0v-1L6,7H4a1.5,1.5,0,0,0-1.243.661A1.466,1.466,0,0,0,1.563,7H1.5A1.449,1.449,0,0,0,0,8.4v.082A3.781,3.781,0,0,0,.559,10.4a.278.278,0,0,0,.191.1A.25.25,0,0,0,1,10.25V9s-.02-.924.753-1c.5-.048.747.253.747.5V11L2,13v1.75a.25.25,0,0,0,.25.25.254.254,0,0,0,.25-.234L2.6,13.1a.49.49,0,0,1,.1-.3L4,11v1.089l.009.1L4.5,14.8a.255.255,0,0,0,.246.2A.25.25,0,0,0,5,14.754H5L4.855,12.3l.045-.2L5.5,11H8v1.1l.009.068a.519.519,0,0,0,.01.077l.016.117.473,2.451A.257.257,0,0,0,8.75,15,.25.25,0,0,0,9,14.75l-.01-2.576L9,12.093,9.367,11a1.155,1.155,0,0,0,.543-.6l2.161-3.767a.863.863,0,0,0,1.023.4l1.066.818a.591.591,0,0,0,.35.135.487.487,0,0,0,.475-.4A.552.552,0,0,0,14.85,7.144Z"/>
</svg>
