<?xml version="1.0" encoding="UTF-8"?>
<svg version="1.1" id="hot-spring-11" xmlns="http://www.w3.org/2000/svg" width="11" height="11" viewBox="0 0 11 11">
  <path d="M10,8.4978c0,.2749-.1439.4978-.3214.4978h0a.6364.6364,0,0,0-.3857.3286,1.428,1.428,0,0,1-.6429.5974.911.911,0,0,1-1.1314-.3684l-.2507-.3485-.0072-.011a.3851.3851,0,0,0-.7.011c-.0964.1195-.1736.2589-.27.3684a.9242.9242,0,0,1-1.5814-.07l-.2507-.3485a.3669.3669,0,0,0-.6429,0c-.1221.1494-.2314.3286-.3536.468a.9054.9054,0,0,1-1.4978-.06l-.2314-.2589a.557.557,0,0,0-.4115-.3087h0C1.1439,8.9956,1,8.7727,1,8.4978S1.1439,8,1.3214,8H1.36a.58.58,0,0,1,.4371.1593,4.6474,4.6474,0,0,1,.5079.5775.438.438,0,0,0,.5143.2489.5732.5732,0,0,0,.1928-.1593c.0965-.12.1865-.2589.2829-.3883a.9174.9174,0,0,1,1.5686,0c.1028.1294.1993.2788.3021.4082a.3668.3668,0,0,0,.6429,0c.1028-.1294.1993-.2788.3021-.4082a.9186.9186,0,0,1,1.575,0c.0964.1294.1864.2688.2829.3883a.3667.3667,0,0,0,.6428,0l.3022-.4082A.9371.9371,0,0,1,9.6786,8h0C9.8561,8,10,8.2229,10,8.4978Zm-8.2941-5.93a1.2909,1.2909,0,0,0-.3137,1.287,1.9308,1.9308,0,0,0,.7428.9011,1.4447,1.4447,0,0,1,.3615.29.2336.2336,0,0,1,.0511.1185.3715.3715,0,0,1-.0087.1519,3.6892,3.6892,0,0,1-.4538.5954A.9181.9181,0,0,0,1.9,6.85c.2932-.5749.7733-.3588,1.3943-.9166a1.18,1.18,0,0,0,.3338-.59,1.4286,1.4286,0,0,0-.0175-.6972,1.9254,1.9254,0,0,0-.7438-.9031,1.5107,1.5107,0,0,1-.3649-.2906.3094.3094,0,0,1-.0429-.2709,3.65,3.65,0,0,1,.4538-.5946A.9173.9173,0,0,0,3.1,1.65C2.8084,2.2252,2.3267,2.01,1.7059,2.5674ZM4.6548,2.3a1.6465,1.6465,0,0,0-.2821,1.3373,2.1625,2.1625,0,0,0,.71,1.0752,1.2156,1.2156,0,0,1,.4042.4556.8047.8047,0,0,1,.03.5188,4.11,4.11,0,0,1-.4708.7382A1.1673,1.1673,0,0,0,4.9,7.5c.2672-.7083.8269-.5858,1.4455-1.2995A1.6515,1.6515,0,0,0,6.63,4.863a2.1577,2.1577,0,0,0-.71-1.0772A1.2428,1.2428,0,0,1,5.5122,3.33a.8068.8068,0,0,1-.0306-.5193,4.0555,4.0555,0,0,1,.4707-.7373A1.1662,1.1662,0,0,0,6.1,1C5.8347,1.7084,5.2728,1.5864,4.6548,2.3Zm3.0511.2672a1.2909,1.2909,0,0,0-.3137,1.287,1.9308,1.9308,0,0,0,.7428.9011,1.4447,1.4447,0,0,1,.3615.29.2336.2336,0,0,1,.0511.1185.3715.3715,0,0,1-.0087.1519,3.6892,3.6892,0,0,1-.4538.5954A.9181.9181,0,0,0,7.9,6.85c.2932-.5749.7733-.3588,1.3943-.9166a1.18,1.18,0,0,0,.3338-.59,1.4286,1.4286,0,0,0-.0175-.6972,1.9254,1.9254,0,0,0-.7438-.9031,1.5107,1.5107,0,0,1-.3649-.2906.3094.3094,0,0,1-.0429-.2709,3.65,3.65,0,0,1,.4538-.5946A.9173.9173,0,0,0,9.1,1.65C8.8084,2.2252,8.3267,2.01,7.7059,2.5674Z"/>
</svg>