<?xml version="1.0" encoding="UTF-8"?>
<svg xmlns="http://www.w3.org/2000/svg" id="hot-spring-15" width="15" height="15" viewBox="0 0 15 15">
  <path d="M13.536,12.008h0a1.586,1.586,0,0,0-1.105.416l-.437.407a.662.662,0,0,1-.928,0c-.139-.119-.269-.258-.409-.387a1.679,1.679,0,0,0-2.275,0c-.148.129-.288.278-.436.407a.663.663,0,0,1-.929,0c-.148-.129-.288-.278-.436-.407a1.68,1.68,0,0,0-2.266,0c-.139.129-.269.268-.408.387a.86.86,0,0,1-.279.159.75.75,0,0,1-.743-.248,5.824,5.824,0,0,0-.733-.576,1.089,1.089,0,0,0-.632-.158H1.464a.5.5,0,0,0,0,.992h0a.845.845,0,0,1,.6.307l.334.258a1.676,1.676,0,0,0,2.164.06c.176-.139.334-.317.51-.466a.663.663,0,0,1,.929,0l.362.347a1.687,1.687,0,0,0,2.284.07c.14-.11.251-.248.39-.367a.683.683,0,0,1,.962-.059.555.555,0,0,1,.049.048l.01.011.363.347a1.668,1.668,0,0,0,1.634.367,1.963,1.963,0,0,0,.928-.6A.919.919,0,0,1,13.536,13h0a.5.5,0,0,0,0-.992ZM2.415,3.547a2.14,2.14,0,0,0-.364,1.731,2.644,2.644,0,0,0,.887,1.375,1.832,1.832,0,0,1,.462.506.953.953,0,0,1,.057.561,4.3,4.3,0,0,1-.537.918A1.472,1.472,0,0,0,2.773,10c.373-.87,1.013-.644,1.812-1.546a1.941,1.941,0,0,0,.37-.826,2.243,2.243,0,0,0,0-.905,2.64,2.64,0,0,0-.888-1.378A1.864,1.864,0,0,1,3.6,4.839a.954.954,0,0,1-.058-.561,4.207,4.207,0,0,1,.537-.917A1.473,1.473,0,0,0,4.227,2C3.856,2.87,3.214,2.645,2.415,3.547Zm5.049-1.5a4.008,4.008,0,0,0-1.1,1.077,2.834,2.834,0,0,0-.329,1.844,3.153,3.153,0,0,0,.835,1.615,2.031,2.031,0,0,1,.52.783,1.9,1.9,0,0,1,.042.911A5.651,5.651,0,0,1,6.874,9.43a1.962,1.962,0,0,0-.1,1.57,2.214,2.214,0,0,1,.761-1.047,4.022,4.022,0,0,0,1.1-1.077,2.842,2.842,0,0,0,.332-1.844A3.147,3.147,0,0,0,8.13,5.414a2.054,2.054,0,0,1-.525-.783,1.9,1.9,0,0,1-.044-.911A5.592,5.592,0,0,1,8.12,2.569,1.964,1.964,0,0,0,8.225,1,2.216,2.216,0,0,1,7.464,2.048Zm2.951,1.5a2.14,2.14,0,0,0-.364,1.731,2.644,2.644,0,0,0,.887,1.375,1.832,1.832,0,0,1,.462.506.953.953,0,0,1,.057.561,4.3,4.3,0,0,1-.537.918A1.472,1.472,0,0,0,10.773,10c.373-.87,1.013-.644,1.812-1.546a1.941,1.941,0,0,0,.37-.826,2.243,2.243,0,0,0,0-.905,2.64,2.64,0,0,0-.888-1.378,1.864,1.864,0,0,1-.467-.506.954.954,0,0,1-.058-.561,4.207,4.207,0,0,1,.537-.917A1.473,1.473,0,0,0,12.227,2C11.856,2.87,11.214,2.645,10.415,3.547Z"/>
</svg>