<?xml version="1.0" encoding="UTF-8"?>
<svg version="1.1" id="hot-spring-15" xmlns="http://www.w3.org/2000/svg" width="15" height="15" viewBox="0 0 15 15">
  <path d="M13.5357,12h0a1.5859,1.5859,0,0,0-1.105.4182l-.4364.4082a.662.662,0,0,1-.9286,0c-.1393-.12-.2693-.2589-.4086-.3883a1.6745,1.6745,0,0,0-2.275,0c-.1485.1294-.2878.2788-.4364.4082a.662.662,0,0,1-.9286,0c-.1485-.1294-.2878-.2788-.4364-.4082a1.6743,1.6743,0,0,0-2.2657,0c-.1393.1294-.2693.2688-.4086.3883a.8368.8368,0,0,1-.2785.1593.748.748,0,0,1-.7429-.2489,5.761,5.761,0,0,0-.7336-.5775A1.0809,1.0809,0,0,0,1.52,12H1.4643a.499.499,0,0,0,0,.9956h0a.8432.8432,0,0,1,.5943.3087l.3343.2589a1.6714,1.6714,0,0,0,2.1635.06c.1765-.1394.3343-.3186.5107-.468a.6622.6622,0,0,1,.9286,0l.3622.3485a1.6834,1.6834,0,0,0,2.2842.07c.1393-.11.2508-.2489.39-.3684a.6815.6815,0,0,1,1.0112-.011l.01.011.3621.3485a1.6659,1.6659,0,0,0,1.6343.3684,1.9677,1.9677,0,0,0,.9286-.5974.9137.9137,0,0,1,.5571-.3286h0a.499.499,0,0,0,0-.9956ZM2.3811,3.5473a2.0881,2.0881,0,0,0-.376,1.7309A2.6428,2.6428,0,0,0,2.92,6.6526a1.8469,1.8469,0,0,1,.4767.5063.92.92,0,0,1,.0588.5607,4.2643,4.2643,0,0,1-.5535.918A1.4358,1.4358,0,0,0,2.75,10c.3852-.87,1.0452-.6437,1.8693-1.5463a1.9175,1.9175,0,0,0,.3819-.826,2.18,2.18,0,0,0-.003-.9049,2.63,2.63,0,0,0-.9154-1.3773,1.8814,1.8814,0,0,1-.4812-.5068.9185.9185,0,0,1-.06-.561,4.183,4.183,0,0,1,.5532-.9171A1.4343,1.4343,0,0,0,4.25,2C3.8673,2.87,3.2049,2.6449,2.3811,3.5473ZM7.4646,2.0479A4.061,4.061,0,0,0,6.3288,3.1248a2.7575,2.7575,0,0,0-.34,1.8438A3.118,3.118,0,0,0,6.8512,6.584a2.0248,2.0248,0,0,1,.5377.7832,1.8379,1.8379,0,0,1,.0434.9108A5.59,5.59,0,0,1,6.8543,9.43,1.9058,1.9058,0,0,0,6.75,11a2.2256,2.2256,0,0,1,.7865-1.0475,4.074,4.074,0,0,0,1.135-1.0763,2.7593,2.7593,0,0,0,.3431-1.8439A3.1031,3.1031,0,0,0,8.152,5.4142,2.05,2.05,0,0,1,7.61,4.6307,1.8341,1.8341,0,0,1,7.5645,3.72a5.483,5.483,0,0,1,.5779-1.151A1.9045,1.9045,0,0,0,8.25,1,2.2179,2.2179,0,0,1,7.4646,2.0479Zm2.9165,1.4994a2.0881,2.0881,0,0,0-.376,1.7309A2.6428,2.6428,0,0,0,10.92,6.6526a1.8469,1.8469,0,0,1,.4767.5063.92.92,0,0,1,.0588.5607,4.2643,4.2643,0,0,1-.5535.918A1.4358,1.4358,0,0,0,10.75,10c.3852-.87,1.0452-.6437,1.8693-1.5463a1.9175,1.9175,0,0,0,.3819-.826,2.18,2.18,0,0,0-.003-.9049,2.63,2.63,0,0,0-.9154-1.3773,1.8814,1.8814,0,0,1-.4812-.5068.9185.9185,0,0,1-.06-.561,4.183,4.183,0,0,1,.5532-.9171A1.4343,1.4343,0,0,0,12.25,2C11.8673,2.87,11.2049,2.6449,10.3811,3.5473Z"/>
</svg>