<?xml version="1.0" encoding="utf-8"?>
<!-- Generator: Adobe Illustrator 19.2.1, SVG Export Plug-In . SVG Version: 6.00 Build 0)  -->
<!DOCTYPE svg PUBLIC "-//W3C//DTD SVG 1.1//EN" "http://www.w3.org/Graphics/SVG/1.1/DTD/svg11.dtd">
<svg version="1.1" id="Layer_1" xmlns="http://www.w3.org/2000/svg" xmlns:xlink="http://www.w3.org/1999/xlink" x="0px" y="0px"
	 width="11px" height="11px" viewBox="0 0 11 11" style="enable-background:new 0 0 11 11;" xml:space="preserve">
<path d="M4,6c0.541,0.0007,1.0676-0.1748,1.5-0.5C5.9324,5.8252,6.459,6.0007,7,6l-1,4.69c-0.1082,0.2541-0.4019,0.3723-0.656,0.264
	c-0.1188-0.0506-0.2134-0.1452-0.264-0.264L4,6z M7,2H6.91c0.2826-0.7787-0.1195-1.6391-0.8982-1.9218S4.3726,0.1978,4.09,0.9765
	C3.97,1.3071,3.97,1.6694,4.09,2H4C3.1716,2,2.5,2.6716,2.5,3.5S3.1716,5,4,5s1.5-0.6716,1.5-1.5l0,0l0,0l0,0
	C5.5,4.3284,6.1716,5,7,5s1.5-0.6716,1.5-1.5S7.8284,2,7,2z"/>
</svg>
