<?xml version="1.0" encoding="utf-8"?>
<!-- Generator: Adobe Illustrator 18.1.0, SVG Export Plug-In . SVG Version: 6.00 Build 0)  -->
<!DOCTYPE svg PUBLIC "-//W3C//DTD SVG 1.1//EN" "http://www.w3.org/Graphics/SVG/1.1/DTD/svg11.dtd">
<svg version="1.1"
	 id="svg4619" sodipodi:docname="ice-cream-15.svg" inkscape:version="0.91 r13725" xmlns:svg="http://www.w3.org/2000/svg" xmlns:rdf="http://www.w3.org/1999/02/22-rdf-syntax-ns#" xmlns:sodipodi="http://sodipodi.sourceforge.net/DTD/sodipodi-0.dtd" xmlns:inkscape="http://www.inkscape.org/namespaces/inkscape" xmlns:dc="http://purl.org/dc/elements/1.1/" xmlns:cc="http://creativecommons.org/ns#"
	 xmlns="http://www.w3.org/2000/svg" xmlns:xlink="http://www.w3.org/1999/xlink" x="0px" y="0px" width="15px" height="15px"
	 viewBox="-292 193 15 15" enable-background="new -292 193 15 15" xml:space="preserve">
<path id="rect3349" sodipodi:nodetypes="sscsscsssssscsscsssccccccccc" inkscape:connector-curvature="0" d="M-284.8,194
	c-0.6,0-1,0.4-1,1c0,0.6,0.4,1,1,1h-1.3c-0.6,0-1,0.4-1,1c0,0.6,0.4,1,1,1h-1.3c-0.6,0-1,0.4-1,1c0,0.6,0.4,1,1,1h6c0.6,0,1-0.4,1-1
	c0-0.6-0.4-1-1-1h-1.3c0.6,0,1-0.4,1-1c0-0.6-0.4-1-1-1h-1.3c0.6,0,1-0.4,1-1c0-0.6-0.4-1-1-1H-284.8z M-288,200.5v2h1l1,4.5h3
	l1-4.5h1v-2H-288z"/>
</svg>
