<?xml version="1.0" encoding="UTF-8" standalone="no"?>
<svg
   xmlns:dc="http://purl.org/dc/elements/1.1/"
   xmlns:cc="http://creativecommons.org/ns#"
   xmlns:rdf="http://www.w3.org/1999/02/22-rdf-syntax-ns#"
   xmlns:svg="http://www.w3.org/2000/svg"
   xmlns="http://www.w3.org/2000/svg"
   xml:space="preserve"
   viewBox="0 0 11 11"
   height="11"
   width="11"
   y="0px"
   x="0px"
   id="Layer_1"
   version="1.1"><metadata
     id="metadata9"><rdf:RDF><cc:Work
         rdf:about=""><dc:format>image/svg+xml</dc:format><dc:type
           rdf:resource="http://purl.org/dc/dcmitype/StillImage" /><dc:title></dc:title></cc:Work></rdf:RDF></metadata><defs
     id="defs7" /><path
     id="path13928"
     d="m 5.0000001,2.9999991 2,2 -1,1 -1,0 -1,-1 -2,0 c -0.4763289,0 -1,0.5092141 -1,1 l 0,2.0000001 0.5,-1e-7 c 0.024803,-0.8333331 0.6429473,-1.5 1.5,-1.5 0.8570525,0 1.50578,0.666667 1.50578,1.5000001 l 1.99422,0 c -0.00781,-1.0000001 0.7362871,-1.4846705 1.5,-1.5000001 0.7637129,-0.01533 1.5070532,0.7329582 1.5,1.5 l 0.4999999,0 0,-2 c 0,-0.6952751 -0.4392005,-1 -0.9999999,-1 l -1,0 -2,-2 z"
     style="fill:#000000;fill-opacity:1;fill-rule:nonzero;stroke:none" /><path
     id="path4138"
     d="M 9,8 A 1,1 0 0 1 8,9 1,1 0 0 1 7,8 1,1 0 0 1 8,7 1,1 0 0 1 9,8 Z"
     style="opacity:1;fill:#000000;fill-opacity:1;stroke:none;stroke-width:1;stroke-linecap:round;stroke-linejoin:round;stroke-miterlimit:4;stroke-dasharray:none;stroke-dashoffset:0;stroke-opacity:1" /><path
     id="path4138-9"
     d="M 4,8 A 1,1 0 0 1 3,9 1,1 0 0 1 2,8 1,1 0 0 1 3,7 1,1 0 0 1 4,8 Z"
     style="opacity:1;fill:#000000;fill-opacity:1;stroke:none;stroke-width:1;stroke-linecap:round;stroke-linejoin:round;stroke-miterlimit:4;stroke-dasharray:none;stroke-dashoffset:0;stroke-opacity:1" /></svg>