<?xml version="1.0" encoding="UTF-8" standalone="no"?>
<!-- Generator: Adobe Illustrator 19.2.1, SVG Export Plug-In . SVG Version: 6.00 Build 0)  -->

<svg
   xmlns:dc="http://purl.org/dc/elements/1.1/"
   xmlns:cc="http://creativecommons.org/ns#"
   xmlns:rdf="http://www.w3.org/1999/02/22-rdf-syntax-ns#"
   xmlns:svg="http://www.w3.org/2000/svg"
   xmlns="http://www.w3.org/2000/svg"
   xmlns:sodipodi="http://sodipodi.sourceforge.net/DTD/sodipodi-0.dtd"
   xmlns:inkscape="http://www.inkscape.org/namespaces/inkscape"
   version="1.1"
   id="Layer_1"
   x="0px"
   y="0px"
   width="15px"
   height="15px"
   viewBox="0 0 15 15"
   style="enable-background:new 0 0 15 15;"
   xml:space="preserve"
   inkscape:version="0.91 r13725"
   sodipodi:docname="jeep-15.svg"><metadata
     id="metadata9"><rdf:RDF><cc:Work
         rdf:about=""><dc:format>image/svg+xml</dc:format><dc:type
           rdf:resource="http://purl.org/dc/dcmitype/StillImage" /><dc:title /></cc:Work></rdf:RDF></metadata><defs
     id="defs7" /><sodipodi:namedview
     pagecolor="#ffffff"
     bordercolor="#666666"
     borderopacity="1"
     objecttolerance="10"
     gridtolerance="10"
     guidetolerance="10"
     inkscape:pageopacity="0"
     inkscape:pageshadow="2"
     inkscape:window-width="1920"
     inkscape:window-height="1027"
     id="namedview5"
     showgrid="true"
     inkscape:zoom="45.254834"
     inkscape:cx="3.6111573"
     inkscape:cy="7.9332616"
     inkscape:window-x="-8"
     inkscape:window-y="-8"
     inkscape:window-maximized="1"
     inkscape:current-layer="Layer_1"
     inkscape:snap-bbox="true"
     inkscape:snap-smooth-nodes="true"
     inkscape:bbox-paths="true"
     inkscape:bbox-nodes="true"
     inkscape:snap-bbox-edge-midpoints="true"
     inkscape:snap-bbox-midpoints="true"
     inkscape:object-paths="true"
     inkscape:snap-intersection-paths="true"
     inkscape:object-nodes="true"
     inkscape:snap-midpoints="true"
     inkscape:snap-global="true"><inkscape:grid
       type="xygrid"
       id="grid4137"
       empspacing="1" /></sodipodi:namedview><path
     inkscape:connector-curvature="0"
     style="fill:#000000;fill-opacity:1;fill-rule:nonzero;stroke:none"
     d="m 8.0010293,4.0000003 1.9999997,2 -0.9999997,2 -3,0 -1,-2 -2.9228738,0 c -0.6793479,0 -1.0771262,0.4725718 -1.0771262,1.0615147 l 0,2.938485 0.1523437,0 c 0.035375,-0.9999997 1.1590228,-1.9999997 2.3813649,-1.9999997 1.2223421,0 2.4662914,1 2.4662914,1.9999997 l 3,0 c 0,-0.9999997 1.2605227,-2.0003542 2.4331457,-1.9999997 1.172623,3.545e-4 2.347475,1 2.416203,1.9999997 l 0.150651,0 0,-1.4378476 0,-1.7884971 c 0,0 -5.91e-4,-0.2492513 -0.304687,-0.4942603 -0.3041,-0.245009 -0.56198,-0.2793947 -0.56198,-0.2793947 l -2.133333,0 -1.9999997,-2 z"
     id="path13928"
     sodipodi:nodetypes="ccccccccczcczccccscccc" /><path
     style="opacity:1;fill:#000000;fill-opacity:1;stroke:none;stroke-width:1;stroke-linecap:round;stroke-linejoin:round;stroke-miterlimit:4;stroke-dasharray:none;stroke-dashoffset:0;stroke-opacity:1"
     d="M 13,10.5 A 1.5,1.5 0 0 1 11.5,12 1.5,1.5 0 0 1 10,10.5 1.5,1.5 0 0 1 11.5,9 1.5,1.5 0 0 1 13,10.5 Z"
     id="path4138" /><path
     inkscape:connector-curvature="0"
     style="opacity:1;fill:#000000;fill-opacity:1;stroke:none;stroke-width:1;stroke-linecap:round;stroke-linejoin:round;stroke-miterlimit:4;stroke-dasharray:none;stroke-dashoffset:0;stroke-opacity:1"
     d="M 5,10.5 A 1.5,1.5 0 0 1 3.5,12 1.5,1.5 0 0 1 2,10.5 1.5,1.5 0 0 1 3.5,9 1.5,1.5 0 0 1 5,10.5 Z"
     id="path4138-0" /></svg>