<?xml version="1.0" encoding="utf-8"?>
<!-- Generator: Adobe Illustrator 22.1.0, SVG Export Plug-In . SVG Version: 6.00 Build 0)  -->
<svg version="1.1" id="start_here" xmlns="http://www.w3.org/2000/svg" xmlns:xlink="http://www.w3.org/1999/xlink" x="0px" y="0px"
	 width="11px" height="11px" viewBox="0 0 11 11" xml:space="preserve">
<path d="M7.574,3.6944L6.7227,4.3329C7.4811,4.7628,8,5.5677,8,6.5C8,7.8785,6.8785,9,5.5,9S3,7.8785,3,6.5
	c0-0.9323,0.5189-1.7372,1.2773-2.1671L3.426,3.6944C2.5652,4.332,2,5.3465,2,6.5C2,8.433,3.567,10,5.5,10S9,8.433,9,6.5
	C9,5.3465,8.4348,4.332,7.574,3.6944z M7.5,2.5L6.5,1h-2l-1,1.5l2,1.5L7.5,2.5z"/>
</svg>
