<svg xmlns="http://www.w3.org/2000/svg" width="15" height="15" viewBox="0 0 15 15">
  <title>karaoke</title>
  <g>
    <path d="M12.1,2.9a2.5,2.5,0,0,0-3.536,0L12.1,6.439A2.5,2.5,0,0,0,12.1,2.9Z"/>
    <path d="M11.707,6.757,8.243,3.293a2.476,2.476,0,0,0-.381,1.033l2.812,2.812A2.476,2.476,0,0,0,11.707,6.757Z"/>
    <path d="M5.025,12.8,4.318,12.1a.458.458,0,0,1,0-.707l.354-.354a1,1,0,0,0,1.414,0l.707-.707L9.621,7.5,7.5,5.379,4.672,8.207l-.707.707a1,1,0,0,0,0,1.414l-.354.354a1.458,1.458,0,0,0,0,2.121l.707.707a.5.5,0,0,0,.707-.707Z"/>
  </g>
</svg>
