<svg id="Layer_1" data-name="Layer 1" xmlns="http://www.w3.org/2000/svg" width="11" height="11" viewBox="0 0 11 11">
  <title>landuse-11</title>
  <path d="M6,7.6v3.152A.249.249,0,0,1,5.75,11H1.25A.25.25,0,0,1,1,10.75V6.5a.5.5,0,0,1,1,0V9H3V6.5a.5.5,0,0,1,1,0V9L5.577,7.419a.248.248,0,0,1,.173-.072h0A.25.25,0,0,1,6,7.6ZM3.657.052a.251.251,0,0,0-.313.005l-2.249,1.8a.251.251,0,0,0-.095.2V4.749A.251.251,0,0,0,1.251,5h1.5A.251.251,0,0,0,3,4.749V3H4V4.749A.251.251,0,0,0,4.251,5h1.5A.251.251,0,0,0,6,4.749v-2.7a.251.251,0,0,0-.094-.2ZM11,3.25v6.5a.25.25,0,0,1-.25.25H7.25A.25.25,0,0,1,7,9.75V3.25A.25.25,0,0,1,7.25,3H8V2.25A.25.25,0,0,1,8.25,2h1.5a.25.25,0,0,1,.25.25V3h.75A.25.25,0,0,1,11,3.25ZM10,8H8V9h2Zm0-2H8V7h2Zm0-2H8V5h2Z"/>
</svg>
