<svg id="Layer_1" data-name="Layer 1" xmlns="http://www.w3.org/2000/svg" width="15" height="15" viewBox="0 0 15 15">
  <title>landuse-15</title>
  <path d="M5.653.463a.251.251,0,0,0-.313,0L2.093,4.005A.251.251,0,0,0,2,4.2V6.75A.251.251,0,0,0,2.25,7h2.5A.251.251,0,0,0,5,6.75V5H6V6.75A.251.251,0,0,0,6.25,7h2.5A.251.251,0,0,0,9,6.75V4.2A.251.251,0,0,0,8.906,4ZM8,8.964a.248.248,0,0,0-.386-.206L5,10.5H4v-2a.5.5,0,0,0-1,0v2H2v-2a.5.5,0,0,0-1,0v4.25a.25.25,0,0,0,.25.25h6.5A.25.25,0,0,0,8,12.75ZM13.75,5H13V4.25A.25.25,0,0,0,12.75,4h-1.5a.25.25,0,0,0-.25.25V5h-.75a.25.25,0,0,0-.25.25v6.5a.249.249,0,0,0,.249.249h3.5A.249.249,0,0,0,14,11.752h0V5.25A.25.25,0,0,0,13.75,5ZM13,11H11V10h2Zm0-2H11V8h2Zm0-2H11V6h2Z"/>
</svg>
