<?xml version="1.0" encoding="utf-8"?>
<!-- Generator: Adobe Illustrator 19.2.1, SVG Export Plug-In . SVG Version: 6.00 Build 0)  -->
<svg version="1.1" id="Layer_1" xmlns="http://www.w3.org/2000/svg" xmlns:xlink="http://www.w3.org/1999/xlink" x="0px" y="0px"
	 width="11px" height="11px" viewBox="0 0 11 11" style="enable-background:new 0 0 11 11;" xml:space="preserve">
<title>landmark</title>
<path d="M9.5,9H8V5h1l1-2C9.3,3.1,8.7,3.1,8,3C7.3,2.7,6.6,2.4,6,2V1.5C6,1.2,5.8,1,5.5,1S5,1.2,5,1.5V2C4.4,2.4,3.7,2.7,3,3
	C2.3,3.1,1.7,3.1,1,3l1,2h1v4H1.5C1.2,9,1,9.2,1,9.5S1.2,10,1.5,10h8C9.8,10,10,9.8,10,9.5S9.8,9,9.5,9z M7,9H4V5h3V9z"/>
</svg>
