<svg id="Layer_1" data-name="Layer 1" xmlns="http://www.w3.org/2000/svg" width="15" height="15" viewBox="0 0 15 15">
  <title>landuse-15</title>
  <path d="M6.156.555a.251.251,0,0,0-.313,0l-2.75,2.3A.251.251,0,0,0,3,3.05v3.7A.251.251,0,0,0,3.25,7h1.5A.251.251,0,0,0,5,6.75V3.93H7V6.75A.251.251,0,0,0,7.25,7h1.5A.251.251,0,0,0,9,6.75V3.05a.251.251,0,0,0-.094-.2ZM12.5,7a2.5,2.5,0,0,0-.5,4.95V14a.5.5,0,0,0,1,0V11.95A2.5,2.5,0,0,0,12.5,7ZM8,10.464a.248.248,0,0,0-.386-.206L5,12H4V9.5a.5.5,0,0,0-1,0V12H2V9.5a.5.5,0,0,0-1,0v4.179a.25.25,0,0,0,.25.25h6.5a.25.25,0,0,0,.25-.25Z"/>
</svg>
