<svg xmlns="http://www.w3.org/2000/svg" width="11" height="11" viewBox="0 0 11 11">
  <title>landuse-11</title>
  <g id="Layer_10" data-name="Layer 10">
    <g>
      <path d="M8.5,7.147,7.073,8.573a.25.25,0,1,0,.354.354L8.5,7.854,9.573,8.927a.25.25,0,1,0,.354-.354Z"/>
      <rect x="8" y="9" width="1" height="1"/>
      <path d="M7.427,6.927,8.5,5.854,9.573,6.927a.25.25,0,1,0,.354-.354L8.5,5.146,7.073,6.573a.25.25,0,0,0,.354.354Z"/>
    </g>
    <path d="M3.5,4,1,6.01V9.5a.5.5,0,0,0,.5.5h4A.5.5,0,0,0,6,9.5V6.01ZM5.25,9.5H1.75a.25.25,0,0,1-.25-.25v-3l2-1.609,2,1.609v3A.25.25,0,0,1,5.25,9.5Z"/>
    <path d="M7.75,1h-.5A.25.25,0,0,0,7,1.25v.5A.25.25,0,0,1,6.75,2H5.25A.25.25,0,0,0,5,2.25v1.5A.25.25,0,0,0,5.25,4h2.5A.25.25,0,0,0,8,3.75V1.25A.25.25,0,0,0,7.75,1Z"/>
    <rect x="3" y="8" width="1" height="2"/>
  </g>
</svg>
