<svg id="Layer_1" data-name="Layer 1" xmlns="http://www.w3.org/2000/svg" width="11" height="11" viewBox="0 0 11 11">
  <title>landuse-11-alternative</title>
  <path d="M4.344,1.125l-2.249,1.8A.251.251,0,0,0,2,3.12V5.749A.251.251,0,0,0,2.251,6h1.5A.251.251,0,0,0,4,5.749V4H5V5.749A.251.251,0,0,0,5.251,6h1.5A.251.251,0,0,0,7,5.749V3.12a.251.251,0,0,0-.094-.2l-2.249-1.8A.251.251,0,0,0,4.344,1.125Z"/>
  <path d="M5.5,7a.5.5,0,0,0-.5.5V9H4V7.5a.5.5,0,0,0-1,0V9H2V7.5a.5.5,0,0,0-1,0v3.25a.251.251,0,0,0,.25.25h4.5A.251.251,0,0,0,6,10.75V7.5A.5.5,0,0,0,5.5,7Z"/>
  <path d="M9.5,5A1.5,1.5,0,0,0,9,7.908V9.5a.5.5,0,0,0,1,0V7.908A1.5,1.5,0,0,0,9.5,5Z"/>
</svg>
