<svg id="Layer_1" data-name="Layer 1" xmlns="http://www.w3.org/2000/svg" width="11" height="11" viewBox="0 0 11 11">
  <title>landuse-11</title>
  <path d="M4.344.057l-2.249,1.8a.251.251,0,0,0-.095.2V4.681a.251.251,0,0,0,.251.251h1.5A.251.251,0,0,0,4,4.681V3H5V4.681a.251.251,0,0,0,.251.251h1.5A.251.251,0,0,0,7,4.681V2.052a.251.251,0,0,0-.094-.2L4.657.052A.251.251,0,0,0,4.344.057ZM9.5,5A1.5,1.5,0,0,0,9,7.908V9.5a.5.5,0,0,0,1,0V7.908A1.5,1.5,0,0,0,9.5,5ZM5.75,7.347a.248.248,0,0,0-.173.072h0L4,9V6.5a.5.5,0,0,0-1,0V9H2V6.5a.5.5,0,0,0-1,0v4.25a.25.25,0,0,0,.25.25h4.5A.249.249,0,0,0,6,10.752H6V7.6a.25.25,0,0,0-.247-.253Z"/>
</svg>
