<svg id="Layer_1" data-name="Layer 1" xmlns="http://www.w3.org/2000/svg" width="11" height="11" viewBox="0 0 11 11">
  <title>landuse-11</title>
  <path d="M1,4.749.995,2.057a.251.251,0,0,1,.1-.2L3.344.057A.251.251,0,0,1,3.657.052l2.249,1.8a.251.251,0,0,1,.094.2v2.7A.251.251,0,0,1,5.751,5h-1.5A.251.251,0,0,1,4,4.749V3H3V4.752A.251.251,0,0,1,2.746,5h-1.5A.247.247,0,0,1,1,4.749Zm4.753,2.6h0a.248.248,0,0,0-.173.072L4,9V6.5a.5.5,0,0,0-1,0V9H2V6.5a.5.5,0,0,0-1,0v4.25a.25.25,0,0,0,.25.25h4.5A.249.249,0,0,0,6,10.752V7.6A.25.25,0,0,0,5.753,7.347ZM11,3.253v6.5a.247.247,0,0,1-.247.247H7.247A.247.247,0,0,1,7,9.753v-6.5A.252.252,0,0,1,7.252,3H8V2.248A.248.248,0,0,1,8.248,2H9.754A.246.246,0,0,1,10,2.246V3h.747A.253.253,0,0,1,11,3.253ZM10,8H8V9h2Zm0-2H8V7h2Zm0-2H8V5h2Z"/>
</svg>
