<svg xmlns="http://www.w3.org/2000/svg" width="15" height="15" viewBox="0 0 15 15">
  <title>landuse-15</title>
  <g id="Layer_10" data-name="Layer 10">
    <path d="M7.5,14H1.5a.5.5,0,0,1-.5-.5V9L4.5,6,8,9v4.5A.5.5,0,0,1,7.5,14Zm-5.257-.98H6.754a.255.255,0,0,0,.255-.255V9.446L4.5,7.3,1.991,9.446v3.319A.255.255,0,0,0,2.246,13.02Z"/>
    <polygon points="11 14 11 13 12 12 13 13 13 14 11 14"/>
    <path d="M10.75,1h-.5a.25.25,0,0,0-.25.25v1.5A.247.247,0,0,1,9.753,3H6.247A.247.247,0,0,0,6,3.247V4.753A.247.247,0,0,0,6.247,5h4.506A.247.247,0,0,0,11,4.753V1.25A.25.25,0,0,0,10.75,1Z"/>
    <path d="M13.848,7.852,12,6,10.153,7.853a.5.5,0,1,0,.707.707L12,7.414l1.141,1.145a.5.5,0,1,0,.707-.707Z"/>
    <path d="M13.848,10.852,12,9l-1.847,1.853a.5.5,0,0,0,.707.707L12,10.414l1.141,1.145a.5.5,0,1,0,.707-.707Z"/>
    <rect x="4" y="11" width="1" height="2.5"/>
  </g>
</svg>
