<?xml version="1.0" encoding="UTF-8" standalone="no"?>
<svg
   xmlns:dc="http://purl.org/dc/elements/1.1/"
   xmlns:cc="http://creativecommons.org/ns#"
   xmlns:rdf="http://www.w3.org/1999/02/22-rdf-syntax-ns#"
   xmlns:svg="http://www.w3.org/2000/svg"
   xmlns="http://www.w3.org/2000/svg"
   xmlns:sodipodi="http://sodipodi.sourceforge.net/DTD/sodipodi-0.dtd"
   xmlns:inkscape="http://www.inkscape.org/namespaces/inkscape"
   version="1.1"
   width="15"
   height="15"
   id="svg4619"
   xml:space="preserve"
   viewBox="0 0 15 15"
   inkscape:version="0.91 r13725"
   sodipodi:docname="laundry-15.svg"><metadata
     id="metadata8"><rdf:RDF><cc:Work
         rdf:about=""><dc:format>image/svg+xml</dc:format><dc:type
           rdf:resource="http://purl.org/dc/dcmitype/StillImage" /><dc:title></dc:title></cc:Work></rdf:RDF></metadata><defs
     id="defs6" /><sodipodi:namedview
     pagecolor="#ffffff"
     bordercolor="#666666"
     borderopacity="1"
     objecttolerance="10"
     gridtolerance="10"
     guidetolerance="10"
     inkscape:pageopacity="0"
     inkscape:pageshadow="2"
     inkscape:window-width="1437"
     inkscape:window-height="720"
     id="namedview4"
     showgrid="true"
     inkscape:zoom="22.250293"
     inkscape:cx="2.9065264"
     inkscape:cy="9.7433301"
     inkscape:window-x="0"
     inkscape:window-y="0"
     inkscape:window-maximized="0"
     inkscape:current-layer="svg4619"><inkscape:grid
       type="xygrid"
       id="grid3336" /></sodipodi:namedview><path
     style="fill:#000000;fill-opacity:1"
     d="m 8,1.0000001 -2,2 -3,0 c 0,0 -1,0 -1,1 L 2,13 c 0,1 1,1 1,1 l 9,0 c 0,0 1,0 1,-1 L 13,2.0000001 c 0,-1.0000001 -1,-1 -1,-1 l -4,0 z m 0.5,1 2,0 c 0.277,0 0.5,0.223 0.5,0.5 0,0.277 -0.223,0.5 -0.5,0.5 l -2,0 c -0.277,0 -0.5,-0.223 -0.5,-0.5 0,-0.277 0.223,-0.5 0.5,-0.5 z m -1,4 c 1.6568543,0 3,1.3431458 3,2.9999999 0,1.656854 -1.3431457,3 -3,3 -1.6568543,0 -3,-1.343146 -3,-3 0,-1.6568541 1.3431457,-2.9999999 3,-2.9999999 z"
     id="path3291-2"
     inkscape:connector-curvature="0" /></svg>