<?xml version="1.0" encoding="utf-8"?>
<!-- Generator: Adobe Illustrator 18.1.0, SVG Export Plug-In . SVG Version: 6.00 Build 0)  -->
<!DOCTYPE svg PUBLIC "-//W3C//DTD SVG 1.1//EN" "http://www.w3.org/Graphics/SVG/1.1/DTD/svg11.dtd">
<svg version="1.1"
	 id="svg4619" sodipodi:docname="library-15.svg" inkscape:version="0.91+devel+osxmenu r12911" xmlns:svg="http://www.w3.org/2000/svg" xmlns:rdf="http://www.w3.org/1999/02/22-rdf-syntax-ns#" xmlns:sodipodi="http://sodipodi.sourceforge.net/DTD/sodipodi-0.dtd" xmlns:inkscape="http://www.inkscape.org/namespaces/inkscape" xmlns:dc="http://purl.org/dc/elements/1.1/" xmlns:cc="http://creativecommons.org/ns#"
	 xmlns="http://www.w3.org/2000/svg" xmlns:xlink="http://www.w3.org/1999/xlink" x="0px" y="0px" width="15px" height="15px"
	 viewBox="-292 193 15 15" enable-background="new -292 193 15 15" xml:space="preserve">
<sodipodi:namedview  inkscape:window-maximized="0" inkscape:window-y="0" inkscape:window-x="0" inkscape:snap-smooth-nodes="true" inkscape:object-nodes="true" inkscape:bbox-paths="true" inkscape:bbox-nodes="true" inkscape:snap-bbox="true" inkscape:document-units="px" inkscape:current-layer="svg4619" inkscape:object-paths="true" inkscape:pageopacity="0" inkscape:window-height="647" inkscape:pageshadow="2" inkscape:window-width="884" inkscape:snap-intersection-paths="true" inkscape:guide-bbox="true" pagecolor="#ffffff" bordercolor="#666666" inkscape:cx="1.276155" inkscape:cy="12.26932" gridtolerance="10" objecttolerance="10" borderopacity="1" showgrid="true" id="namedview3441" guidetolerance="10" inkscape:zoom="22.627417" showguides="false">
	
		<inkscape:grid  color="#ff0000" type="xygrid" opacity="0.1254902" empspacing="2" spacingx="0.44117647" spacingy="0.44117647" id="grid3333">
		</inkscape:grid>
</sodipodi:namedview>
<path id="rect5810" inkscape:connector-curvature="0" d="M-291.5,194.8c-0.5,0-0.5,0.5-0.5,0.5v7.5c0,0,0,0.7,0.7,0.9l5.3,1.4v0.3
	c0,0.3,0.3,0.6,0.6,0.6h1.7c0.3,0,0.6-0.3,0.6-0.6v-0.3l5.3-1.4c0.7-0.2,0.7-0.9,0.7-0.9v-7.5c0,0,0-0.7-0.7-0.5l-6.8,1.9l-6.8-1.9
	C-291.4,194.8-291.5,194.8-291.5,194.8z M-291,196l6,1.6v6.5l-6-1.6C-291,202.5-291,196-291,196z M-278,196v6.5l-6,1.6v-6.5
	L-278,196z M-289.5,197.7v0.5l2.5,0.7v-0.5C-287,198.4-289.5,197.7-289.5,197.7z M-279.5,197.7l-3,0.8v0.5l3-0.8V197.7z
	 M-289.5,198.7v0.5l3,0.8v-0.5C-286.5,199.5-289.5,198.7-289.5,198.7z M-279.5,198.7l-3,0.8v0.5l3-0.8V198.7z M-289.5,199.7v0.5
	l1.5,0.4v-0.5L-289.5,199.7z M-280.5,200l-2,0.5v0.5l2-0.5V200z M-289.5,200.7v0.5l3,0.8v-0.5C-286.5,201.5-289.5,200.7-289.5,200.7
	z M-279.5,200.7l-3,0.8v0.5l3-0.8C-279.5,201.2-279.5,200.7-279.5,200.7z"/>
</svg>
