<svg id="Layer_1" data-name="Layer 1" xmlns="http://www.w3.org/2000/svg" width="15" height="15" viewBox="0 0 15 15">
  <title>library-15</title>
  <path d="M7.47,4.92S5.7,3,1,3v8c4.7,0,6.47,2,6.47,2S9.3,11,14,11V3C9.3,3,7.47,4.92,7.47,4.92ZM13,10a10.84,10.84,0,0,0-5.53,1.68A10.56,10.56,0,0,0,2,10V4C5.4,4.26,6.73,5.6,6.75,5.61L7.48,6.35,8.2,5.6S9.6,4.26,13,4v6Zm-5,.24-0.1-.17A14.52,14.52,0,0,1,12,8.89l0,0.2A14.27,14.27,0,0,0,8,10.27Zm0-1-0.1-.17A14.51,14.51,0,0,1,12,7.9l0,0.2A14.29,14.29,0,0,0,8,9.29Zm0-1-0.1-.17A14.49,14.49,0,0,1,12,6.9l0,0.2A14.24,14.24,0,0,0,8,8.29Zm0-1-0.1-.17A14.45,14.45,0,0,1,12,5.9l0,0.2A14.28,14.28,0,0,0,8,7.29Zm-1.1,3A13.9,13.9,0,0,0,3,9.08l0-.2A13.91,13.91,0,0,1,7,10.1Zm0-1A13.9,13.9,0,0,0,3,8.1l0-.2A14.12,14.12,0,0,1,7,9.11Zm0-1A13.86,13.86,0,0,0,3,7.1l0-.2A13.87,13.87,0,0,1,7,8.11Zm0-1A13.9,13.9,0,0,0,3,6.1l0-.2A14.1,14.1,0,0,1,7,7.11Z"/>
</svg>
