<?xml version="1.0" encoding="UTF-8"?>
<svg version="1.1" id="library" xmlns="http://www.w3.org/2000/svg" width="15" height="15" viewBox="0 0 15 15">
  <path d="M1.1076,9.6397C1.0128,9.5679,1.0264,9.4488,1.0264,9.4488L1.5259,3.064c0,0,0.0082-0.0688,0.0388-0.104&#xA;&#x9;C1.584,2.938,1.609,2.9074,1.6544,2.8872c0.3632-0.1615,1.495-0.6504,2.5858-0.8684C5.378,1.7927,6.2664,2.1615,6.5907,2.546&#xA;&#x9;c0.2397,0.2777,0.3698,0.4871,0.3698,0.7995v5.5202c0,0,0.0062,0.1122-0.0953,0.1801c-0.0239,0.016-0.1316,0.0749-0.242,0.0026&#xA;&#x9;C6.0205,8.6537,5.435,8.6886,4.1383,8.6886c-0.8431,0-2.1609,0.6375-2.788,0.97C1.2244,9.7253,1.1263,9.654,1.1076,9.6397z&#xA;&#x9; M8.366,9.0484c0.6027-0.3947,1.1882-0.3598,2.4851-0.3598c0.8431,0,2.1609,0.6375,2.788,0.97&#xA;&#x9;c0.1258,0.0666,0.2239-0.0046,0.2426-0.0188c0.0947-0.0718,0.0812-0.191,0.0812-0.191L13.4634,3.064c0,0-0.0082-0.0688-0.0388-0.104&#xA;&#x9;c-0.0193-0.0221-0.0443-0.0527-0.0896-0.0729c-0.3632-0.1615-1.495-0.6504-2.5858-0.8684C9.6112,1.7926,8.7228,2.1614,8.3985,2.5459&#xA;&#x9;C8.1589,2.8237,8.0287,3.033,8.0287,3.3454v5.5202c0,0-0.0062,0.1122,0.0953,0.1801C8.1478,9.0618,8.2556,9.1207,8.366,9.0484z&#xA;&#x9; M13.9674,11.4998c-0.0205-0.0312-0.0475-0.0644-0.0926-0.0858c-0.6336-0.3025-2.2425-1.2766-3.162-1.2441&#xA;&#x9;c-0.9399,0.0337-2.3227,0.2254-2.7234,1.1661c-0.018,0.0423-0.0352,0.0613-0.0728,0.0905&#xA;&#x9;c-0.0565,0.0441-0.1255,0.0412-0.1255,0.0412H7.4996H7.4897H7.1981c0,0-0.069,0.0028-0.1256-0.0412&#xA;&#x9;c-0.0375-0.0292-0.0547-0.0482-0.0728-0.0905c-0.4006-0.9407-1.7835-1.1323-2.7234-1.1661&#xA;&#x9;c-0.9195-0.0325-2.5283,0.9416-3.162,1.2441c-0.045,0.0215-0.0721,0.0546-0.0926,0.0858c-0.0275,0.042-0.0272,0.1184-0.0272,0.1184&#xA;&#x9;v0.5542c0,0-0.0014,0.1061,0.0849,0.1688c0.0759,0.0551,0.165,0.0596,0.2425,0.0155c0.5568-0.3159,1.7008-0.9123,2.5015-0.9123&#xA;&#x9;c1.04,0,2.0536,0.3507,2.1462,1.3088c0.0045,0.0471,0.0187,0.0724,0.0423,0.1088c0.0215,0.0332,0.0827,0.069,0.1179,0.0775&#xA;&#x9;c0.2468,0.06,0.7655,0.165,1.3596,0.1664v0.0004c0.0017,0,0.0033-0.0002,0.0049-0.0002c0.0016,0,0.0032,0.0002,0.0049,0.0002&#xA;&#x9;v-0.0004c0.5942-0.0012,1.1127-0.1064,1.3596-0.1664c0.0352-0.0085,0.0964-0.0443,0.1179-0.0775&#xA;&#x9;c0.0237-0.0364,0.0378-0.0616,0.0423-0.1088c0.0928-0.9579,1.1062-1.3088,2.1462-1.3088c0.8007,0,1.9447,0.5964,2.5015,0.9123&#xA;&#x9;c0.0776,0.044,0.1666,0.0395,0.2425-0.0155c0.0863-0.0626,0.0849-0.1688,0.0849-0.1688v-0.5542&#xA;&#x9;C13.9947,11.6182,13.9949,11.5418,13.9674,11.4998z"/>
</svg>