<?xml version="1.0" encoding="UTF-8"?>
<svg version="1.1" xmlns="http://www.w3.org/2000/svg" width="15px" height="15px" viewBox="0 0 15 15" id="library-15">
  <g id="Layer_1">
    <path d="M0.1343,9.9615C0.0251,9.8788,0.0407,9.7415,0.0407,9.7415l0.5757-7.3577c0,0,0.0095-0.0793,0.0447-0.1198&#xA;&#x9;&#x9;c0.0222-0.0255,0.051-0.0607,0.1033-0.084c0.4185-0.1861,1.7228-0.7495,2.9799-1.0007c1.3112-0.2606,2.335,0.1644,2.7087,0.6075&#xA;&#x9;&#x9;c0.2762,0.32,0.4262,0.5613,0.4262,0.9213v6.3614c0,0,0.0072,0.1293-0.1098,0.2076C6.7419,9.2955,6.6177,9.3634,6.4905,9.2801&#xA;&#x9;&#x9;C5.7959,8.8253,5.1212,8.8655,3.6268,8.8655c-0.9716,0-2.4902,0.7347-3.2129,1.1178C0.2689,10.0601,0.1559,9.978,0.1343,9.9615z&#xA;&#x9;&#x9; M8.4988,9.2801c0.6946-0.4548,1.3693-0.4146,2.8638-0.4146c0.9716,0,2.4902,0.7347,3.2129,1.1178&#xA;&#x9;&#x9;c0.145,0.0768,0.258-0.0053,0.2796-0.0217c0.1091-0.0827,0.0936-0.2201,0.0936-0.2201l-0.5757-7.3577&#xA;&#x9;&#x9;c0,0-0.0095-0.0793-0.0447-0.1198c-0.0222-0.0255-0.051-0.0607-0.1033-0.084c-0.4186-0.1861-1.7228-0.7495-2.9799-1.0007&#xA;&#x9;&#x9;C9.9338,0.9186,8.91,1.3436,8.5363,1.7867C8.2601,2.1068,8.1101,2.348,8.1101,2.708v6.3614c0,0-0.0072,0.1293,0.1098,0.2076&#xA;&#x9;&#x9;C8.2474,9.2955,8.3716,9.3634,8.4988,9.2801z M14.9538,12.1051c-0.0236-0.036-0.0547-0.0742-0.1067-0.0989&#xA;&#x9;&#x9;c-0.7302-0.3486-2.5842-1.4711-3.6438-1.4337c-1.0831,0.0388-2.6766,0.2597-3.1384,1.3438&#xA;&#x9;&#x9;c-0.0208,0.0488-0.0406,0.0706-0.0839,0.1043c-0.0651,0.0508-0.1446,0.0475-0.1446,0.0475H7.5004H7.489H7.1529&#xA;&#x9;&#x9;c0,0-0.0795,0.0032-0.1447-0.0475c-0.0432-0.0337-0.063-0.0555-0.0839-0.1043c-0.4617-1.084-2.0553-1.3049-3.1384-1.3438&#xA;&#x9;&#x9;c-1.0596-0.0374-2.9136,1.0851-3.6438,1.4337c-0.0519,0.0248-0.0831,0.0629-0.1067,0.0989&#xA;&#x9;&#x9;c-0.0317,0.0484-0.0314,0.1364-0.0314,0.1364v0.6386c0,0-0.0016,0.1223,0.0978,0.1945c0.0875,0.0635,0.1901,0.0687,0.2795,0.0179&#xA;&#x9;&#x9;c0.6417-0.364,1.96-1.0513,2.8827-1.0513c1.1985,0,2.3665,0.4042,2.4733,1.5082c0.0052,0.0543,0.0215,0.0834,0.0488,0.1254&#xA;&#x9;&#x9;c0.0248,0.0383,0.0953,0.0795,0.1359,0.0893c0.2844,0.0691,0.8821,0.1902,1.5668,0.1917v0.0005&#xA;&#x9;&#x9;c0.002,0,0.0038-0.0002,0.0057-0.0002s0.0037,0.0002,0.0057,0.0002v-0.0005c0.6847-0.0014,1.2823-0.1226,1.5668-0.1917&#xA;&#x9;&#x9;c0.0406-0.0098,0.1111-0.051,0.1359-0.0893c0.0273-0.042,0.0436-0.071,0.0488-0.1254c0.1069-1.1039,1.2748-1.5082,2.4733-1.5082&#xA;&#x9;&#x9;c0.9227,0,2.241,0.6873,2.8827,1.0513c0.0894,0.0507,0.192,0.0455,0.2795-0.0179c0.0994-0.0721,0.0978-0.1945,0.0978-0.1945&#xA;&#x9;&#x9;v-0.6386C14.9852,12.2415,14.9855,12.1535,14.9538,12.1051z"/>
  </g>
  <g id="Layer_2"/>
</svg>