<?xml version="1.0" encoding="UTF-8" standalone="no"?>
<!-- Created with Inkscape (http://www.inkscape.org/) -->

<svg
   xmlns:dc="http://purl.org/dc/elements/1.1/"
   xmlns:cc="http://creativecommons.org/ns#"
   xmlns:rdf="http://www.w3.org/1999/02/22-rdf-syntax-ns#"
   xmlns:svg="http://www.w3.org/2000/svg"
   xmlns="http://www.w3.org/2000/svg"
   xmlns:sodipodi="http://sodipodi.sourceforge.net/DTD/sodipodi-0.dtd"
   xmlns:inkscape="http://www.inkscape.org/namespaces/inkscape"
   version="1.1"
   width="11"
   height="11"
   id="svg4764"
   inkscape:version="0.91+devel+osxmenu r12911"
   sodipodi:docname="library-11.svg"
   viewBox="0 0 11 11">
  <sodipodi:namedview
     pagecolor="#ffffff"
     bordercolor="#666666"
     borderopacity="1"
     objecttolerance="10"
     gridtolerance="10"
     guidetolerance="10"
     inkscape:pageopacity="0"
     inkscape:pageshadow="2"
     inkscape:window-width="1027"
     inkscape:window-height="727"
     id="namedview3435"
     inkscape:document-units="px"
     showgrid="true"
     inkscape:zoom="64"
     inkscape:cx="7.4900636"
     inkscape:cy="4.7205433"
     inkscape:current-layer="svg4764"
     inkscape:snap-bbox="true"
     inkscape:bbox-paths="true"
     inkscape:bbox-nodes="true"
     inkscape:object-paths="true"
     inkscape:snap-intersection-paths="true"
     inkscape:object-nodes="true"
     inkscape:snap-smooth-nodes="true"
     inkscape:snap-bbox-edge-midpoints="true"
     inkscape:window-x="0"
     inkscape:window-y="0"
     inkscape:window-maximized="0"
     showguides="false">
    <inkscape:grid
       type="xygrid"
       id="grid3333"
       spacingx="0.5"
       spacingy="0.5"
       color="#ff0000"
       opacity="0.1254902"
       empspacing="2" />
  </sodipodi:namedview>
  <defs
     id="defs4766" />
  <metadata
     id="metadata4769">
    <rdf:RDF>
      <cc:Work
         rdf:about="">
        <dc:format>image/svg+xml</dc:format>
        <dc:type
           rdf:resource="http://purl.org/dc/dcmitype/StillImage" />
        <dc:title />
      </cc:Work>
    </rdf:RDF>
  </metadata>
  <path
     style="fill:#000000;fill-opacity:1;fill-rule:evenodd;stroke:none;stroke-width:1px;stroke-linecap:butt;stroke-linejoin:miter;stroke-opacity:1"
     d="M 0.3359375 1.6132812 C 0.0009765625 1.6176312 0 2 0 2 L 0 7.5 C 0 7.5 -0.01418 8.000754 0.5 8.140625 L 4.5039062 9.2285156 C 4.5036846 9.2360509 4.5 9.2424091 4.5 9.25 C 4.5 9.6655 4.8345 10 5.25 10 L 5.75 10 C 6.1655 10 6.5 9.6655 6.5 9.25 C 6.5 9.2424091 6.4963155 9.2360509 6.4960938 9.2285156 L 10.5 8.140625 C 11.01418 8.000754 11 7.5 11 7.5 L 11 2 C 11 2 11 1.5003547 10.5 1.6367188 L 5.5 3 L 0.5 1.6367188 C 0.4375 1.6196732 0.38378906 1.6126599 0.3359375 1.6132812 z M 1 2.5 L 5.25 3.6582031 L 5.25 8.4316406 L 1 7.2734375 L 1 2.5 z M 10 2.5 L 10 7.2734375 L 5.75 8.4316406 L 5.75 3.6582031 L 10 2.5 z M 2 3.9550781 L 2 4.4550781 L 4 5 L 4 4.5 L 2 3.9550781 z M 9 3.9550781 L 7 4.5 L 7 5 L 9 4.4550781 L 9 3.9550781 z M 2 5.5 L 2 6 L 4 6.5449219 L 4 6.0449219 L 2 5.5 z M 9 5.5 L 7 6.0449219 L 7 6.5449219 L 9 6 L 9 5.5 z "
     id="path6122" />
</svg>
