<svg id="Layer_1" data-name="Layer 1" xmlns="http://www.w3.org/2000/svg" width="11" height="11" viewBox="0 0 11 11">
  <title>library-11</title>
  <path d="M5.49,3.33S4.26,2,1,2V7.55c3.26,0,4.49,1.39,4.49,1.39S6.76,7.55,10,7.55V2C6.76,2,5.49,3.33,5.49,3.33ZM9.33,6.88A7.52,7.52,0,0,0,5.49,8,7.32,7.32,0,0,0,1.69,6.88V2.72A5.25,5.25,0,0,1,5,3.81L5.49,4.32,6,3.81A5.5,5.5,0,0,1,9.33,2.72V6.88ZM5.87,7L5.8,6.92a10.08,10.08,0,0,1,2.82-.84l0,0.14A9.88,9.88,0,0,0,5.87,7Zm0-.68L5.8,6.24A10.06,10.06,0,0,1,8.62,5.4l0,0.14A9.89,9.89,0,0,0,5.87,6.36Zm0-.69L5.8,5.55a10,10,0,0,1,2.82-.84l0,0.14A9.84,9.84,0,0,0,5.87,5.67Zm0-.69L5.8,4.85A10.08,10.08,0,0,1,8.62,4l0,0.14A9.88,9.88,0,0,0,5.87,5ZM5.11,7a9.61,9.61,0,0,0-2.73-.82l0-.14a9.65,9.65,0,0,1,2.78.84Zm0-.68a9.63,9.63,0,0,0-2.73-.82l0-.14a9.79,9.79,0,0,1,2.78.84Zm0-.69a9.6,9.6,0,0,0-2.73-.82l0-.14a9.77,9.77,0,0,1,2.78.84Zm0-.69a9.61,9.61,0,0,0-2.73-.82L2.4,4a9.65,9.65,0,0,1,2.78.84Z"/>
</svg>
