<?xml version="1.0" encoding="UTF-8"?>
<svg width="15" height="15" viewBox="0 0 15 15" xmlns="http://www.w3.org/2000/svg" id="lift_gate">
  <path d="M1 4C1 2.89543 1.89543 2 3 2C4.10457 2 5 2.89543 5 4V12.25C5 12.6642 4.66421 13 4.25 13H1.75C1.33579 13 1 12.6642 1 12.25V4ZM4 4C4 3.44772 3.55228 3 3 3C2.44772 3 2 3.44772 2 4C2 4.55228 2.44772 5 3 5C3.55228 5 4 4.55228 4 4Z"/>
  <path d="M8.49999 6L6.99999 3H5.82928C5.93984 3.31278 5.99999 3.64936 5.99999 4V6H8.49999Z"/>
  <path d="M9.99999 6H11.5L9.99999 3H8.49999L9.99999 6Z"/>
  <path d="M13.25 6H13L11.5 3H13.25C13.6642 3 14 3.33579 14 3.75V5.25C14 5.66421 13.6642 6 13.25 6Z"/>
</svg>