<?xml version="1.0" encoding="UTF-8"?>
<svg version="1.1" id="lighthouse-JP" xmlns="http://www.w3.org/2000/svg" width="15" height="15" viewBox="0 0 15 15">
  <path d="M14,7h-1c-0.1-1.1-0.5-2.2-1.2-3l0.7-0.7c0.2-0.2,0.2-0.5,0-0.7c-0.2-0.2-0.5-0.2-0.7,0l0,0L11,3.3C10.2,2.6,9.1,2.1,8,2V1&#xA;&#x9;c0-0.3-0.2-0.5-0.5-0.5S7,0.7,7,1v1C5.9,2.1,4.8,2.6,4,3.3L3.3,2.5c-0.2-0.2-0.5-0.2-0.7,0c-0.2,0.2-0.2,0.5,0,0.7L3.3,4&#xA;&#x9;C2.6,4.8,2.1,5.9,2,7H1C0.7,7,0.5,7.2,0.5,7.5S0.7,8,1,8h1c0.1,1.1,0.5,2.2,1.2,3l-0.7,0.7c-0.2,0.2-0.2,0.5,0,0.7&#xA;&#x9;c0.2,0.2,0.5,0.2,0.7,0l0,0L4,11.7c0.9,0.7,1.9,1.1,3,1.2v1c0,0.3,0.2,0.5,0.5,0.5S8,14.3,8,14v-1c1.1-0.1,2.2-0.5,3-1.2l0.7,0.7&#xA;&#x9;c0.2,0.2,0.5,0.2,0.7,0c0.2-0.2,0.2-0.5,0-0.7l0,0L11.7,11c0.7-0.9,1.1-1.9,1.2-3h1c0.3,0,0.5-0.2,0.5-0.5C14.5,7.2,14.3,7,14,7z&#xA;&#x9; M4.3,10.7c-1.8-1.8-1.8-4.6,0-6.4s4.6-1.8,6.4,0c2.6,2.7,0.7,5.8,0,6.4C8.5,12.7,5.8,12.1,4.3,10.7z M8.9,8.9c-0.8,0.8-2,0.8-2.8,0&#xA;&#x9;c-0.8-0.8-0.8-2,0-2.8s2-0.8,2.8,0S9.7,8.1,8.9,8.9z"/>
</svg>