<?xml version="1.0" encoding="UTF-8"?>
<svg version="1.1" id="lighthouse-JP" xmlns="http://www.w3.org/2000/svg" width="15" height="15" viewBox="0 0 15 15">
  <path d="M9,7.5C9,8.3284,8.3284,9,7.5,9S6,8.3284,6,7.5S6.6716,6,7.5,6S9,6.6716,9,7.5z M13.5,7.5C13.5,7.7764,13.2764,8,13,8&#xA;&#x9;h-1.083c-0.0965,0.8563-0.4264,1.6337-0.9347,2.2753l0.7599,0.7599c0.1953,0.1953,0.1953,0.5117,0,0.707&#xA;&#x9;c-0.0977,0.0977-0.2256,0.1465-0.3535,0.1465s-0.2559-0.0488-0.3535-0.1465l-0.7573-0.7573C9.6374,11.5012,8.8592,11.8392,8,11.9413&#xA;&#x9;V13c0,0.2764-0.2236,0.5-0.5,0.5S7,13.2764,7,13v-1.0527c-0.8677-0.0914-1.6558-0.4222-2.305-0.9358l-0.7307,0.7307&#xA;&#x9;c-0.0977,0.0977-0.2256,0.1465-0.3535,0.1465s-0.2559-0.0488-0.3535-0.1465c-0.1953-0.1953-0.1953-0.5117,0-0.707l0.7276-0.7276&#xA;&#x9;C3.462,9.66,3.1217,8.871,3.0236,8H2C1.7236,8,1.5,7.7764,1.5,7.5S1.7236,7,2,7h1.023C3.1202,6.1282,3.46,5.3383,3.9828,4.6898&#xA;&#x9;L3.2573,3.9644c-0.1953-0.1953-0.1953-0.5117,0-0.707s0.5117-0.1953,0.707,0l0.728,0.728C5.342,3.4706,6.1311,3.139,7,3.0474V2&#xA;&#x9;c0-0.2764,0.2236-0.5,0.5-0.5S8,1.7236,8,2v1.0534c0.8604,0.1022,1.6396,0.4411,2.2805,0.9586l0.7547-0.7547&#xA;&#x9;c0.1953-0.1953,0.5117-0.1953,0.707,0s0.1953,0.5117,0,0.707l-0.7578,0.7578C11.4926,5.3645,11.822,6.1428,11.9175,7H13&#xA;&#x9;C13.2764,7,13.5,7.2236,13.5,7.5z M10.9677,7.4974c0-0.1703-0.0267-0.3335-0.0503-0.4974c-0.084-0.5826-0.3062-1.1165-0.6411-1.5697&#xA;&#x9;c-0.1995-0.27-0.4368-0.5072-0.704-0.7101C9.1197,4.3768,8.5859,4.1436,8,4.0535C7.826,4.0268,7.6517,4,7.4703,4&#xA;&#x9;C7.3093,4,7.1553,4.0264,7,4.0475c-0.5941,0.081-1.1387,0.3049-1.5994,0.646C5.1309,4.8932,4.8936,5.1306,4.691,5.398&#xA;&#x9;C4.3424,5.8583,4.1094,6.403,4.0232,7C3.9996,7.1639,3.9729,7.3271,3.9729,7.4974c0,0.1721,0.0267,0.3371,0.0508,0.5026&#xA;&#x9;c0.0869,0.5962,0.3207,1.14,0.6694,1.5994c0.2029,0.2672,0.4401,0.5045,0.7101,0.704c0.4601,0.34,1.0039,0.563,1.5968,0.6439&#xA;&#x9;c0.1553,0.0212,0.3093,0.0475,0.4703,0.0475c0.1814,0,0.3557-0.0268,0.5297-0.0535c0.5847-0.0899,1.1176-0.3222,1.5696-0.6646&#xA;&#x9;c0.2674-0.2026,0.5048-0.4399,0.7045-0.7096C10.6091,9.1146,10.832,8.5817,10.9169,8C10.941,7.8345,10.9677,7.6695,10.9677,7.4974z"/>
</svg>