<?xml version="1.0" encoding="UTF-8"?>
<svg version="1.1" id="lighthouse-JP-11" xmlns="http://www.w3.org/2000/svg" width="11px" height="11px" viewBox="0 0 11 11">
  <path d="M7.1739,5.5201c0,0.9441-0.7653,1.7094-1.7094,1.7094S3.755,6.4642,3.755,5.5201s0.7653-1.7094,1.7094-1.7094&#xA;&#x9;S7.1739,4.576,7.1739,5.5201z M9.308,6.0525C9.2151,6.7255,8.95,7.3428,8.5574,7.8604l0.8192,0.8192L8.6238,9.4324L7.8046,8.6132&#xA;&#x9;C7.287,9.0058,6.6698,9.2708,5.9967,9.3637v1.1569H4.932V9.3637c-0.6731-0.0929-1.2903-0.358-1.8079-0.7506L2.3048,9.4324&#xA;&#x9;L1.5521,8.6796l0.8193-0.8193C1.9789,7.3427,1.7139,6.7255,1.621,6.0525H0.5092V4.9877H1.621&#xA;&#x9;C1.7139,4.3147,1.979,3.6974,2.3715,3.1798L1.5521,2.3606l0.7528-0.7528L3.1243,2.427C3.6418,2.0345,4.2589,1.7694,4.932,1.6764&#xA;&#x9;V0.5195h1.0647v1.1569c0.6732,0.0929,1.2905,0.3581,1.8081,0.7507l0.8191-0.8193l0.7528,0.7528L8.5575,3.18&#xA;&#x9;C8.95,3.6975,9.2151,4.3148,9.308,4.9877h1.202v1.0647H9.308z M8.2842,5.5201c0-1.5548-1.265-2.8198-2.8198-2.8198&#xA;&#x9;s-2.8195,1.265-2.8195,2.8198s1.2647,2.8198,2.8195,2.8198S8.2842,7.0749,8.2842,5.5201z"/>
</svg>