<?xml version="1.0" encoding="UTF-8"?>
<svg version="1.1" id="lighthouse-JP" xmlns="http://www.w3.org/2000/svg" width="15" height="15" viewBox="0 0 15 15">
  <path d="M9.8841,7.4843c0,1.3301-1.0782,2.4083-2.4083,2.4083S5.0675,8.8144,5.0675,7.4843S6.1457,5.076,7.4758,5.076&#xA;&#x9;S9.8841,6.1543,9.8841,7.4843z M12.8906,8.2344c-0.1309,0.9482-0.5043,1.8179-1.0574,2.5471l1.1541,1.1541l-1.0605,1.0605&#xA;&#x9;l-1.1541-1.1541c-0.7292,0.5531-1.5988,0.9265-2.5471,1.0574v1.6299h-1.5v-1.6299c-0.9483-0.1309-1.8179-0.5044-2.547-1.0575&#xA;&#x9;l-1.1542,1.1542l-1.0605-1.0605l1.1543-1.1543c-0.553-0.7291-0.9263-1.5987-1.0571-2.5469H0.4946v-1.5H2.061&#xA;&#x9;c0.1309-0.9482,0.5043-1.8179,1.0573-2.5471L1.9639,3.0332l1.0605-1.0605l1.1544,1.1541c0.7291-0.553,1.5986-0.9265,2.5468-1.0574&#xA;&#x9;V0.4395h1.5v1.6299c0.9484,0.1309,1.8181,0.5045,2.5472,1.0576l1.1539-1.1543l1.0605,1.0605l-1.154,1.1544&#xA;&#x9;c0.553,0.7291,0.9265,1.5987,1.0573,2.5468h1.6934v1.5H12.8906z M11.4482,7.4844c0-2.1904-1.7822-3.9727-3.9727-3.9727&#xA;&#x9;S3.5034,5.2939,3.5034,7.4844s1.7817,3.9727,3.9722,3.9727S11.4482,9.6748,11.4482,7.4844z"/>
</svg>