<?xml version="1.0" encoding="UTF-8"?>
<svg version="1.1" id="lighthouse-JP" xmlns="http://www.w3.org/2000/svg" width="15" height="15" viewBox="0 0 15 15">
  <path d="M13.504,7h-0.5329c-0.1-1.1071-0.5353-2.1573-1.2478-3.0105l0.378-0.3784c0.196-0.1945,0.1973-0.511,0.0029-0.7071&#xA;&#x9;c-0.191-0.1925-0.5006-0.1977-0.6979-0.0117l-0.0123,0.0123l-0.3777,0.378c-0.8533-0.713-1.9039-1.1486-3.0113-1.2488V1.5011&#xA;&#x9;c0-0.2761-0.2239-0.5-0.5-0.5s-0.5,0.2239-0.5,0.5v0.5327c-1.1071,0.1003-2.1573,0.536-3.0103,1.2488L3.6161,2.9011&#xA;&#x9;C3.4163,2.7106,3.0997,2.7183,2.9092,2.9182c-0.184,0.1931-0.184,0.4966,0,0.6898l0.3784,0.3775&#xA;&#x9;C2.574,4.8397,2.1383,5.8914,2.0389,7H1.5062c-0.2761,0-0.5,0.2239-0.5,0.5S1.23,8,1.5062,8h0.5327&#xA;&#x9;c0.0999,1.1069,0.535,2.1571,1.2473,3.0103l-0.3779,0.3779c-0.1954,0.1951-0.1956,0.5117-0.0004,0.7072&#xA;&#x9;c0.1906,0.1907,0.498,0.1961,0.695,0.0121l0.0123-0.0123l0.3779-0.3779c0.8533,0.7131,1.904,1.1488,3.0115,1.2488v0.5329&#xA;&#x9;c0,0.2761,0.2239,0.5,0.5,0.5s0.5-0.2239,0.5-0.5V12.966c1.1072-0.1003,2.1574-0.5359,3.0105-1.2488l0.3779,0.3779&#xA;&#x9;c0.1952,0.1954,0.5118,0.1956,0.7072,0.0004c0.1907-0.1905,0.1961-0.498,0.0121-0.695l-0.0123-0.0123l-0.3779-0.3779&#xA;&#x9;c0.7128-0.8531,1.1484-1.9033,1.2488-3.0105h0.5329c0.2761-0.0054,0.4955-0.2337,0.4901-0.5098&#xA;&#x9;C13.9885,7.2217,13.7723,7.0054,13.504,7z M7.5,12C5.0147,11.9952,3,9.9853,3,7.5S5.0154,2.9426,7.5,3&#xA;&#x9;c3.7668,0.087,4.5398,3.6106,4.5,4.5C11.8684,10.4403,9.5409,12.0039,7.5,12z M9.5,7.5c0,1.1046-0.8954,2-2,2s-2-0.8954-2-2&#xA;&#x9;s0.8954-2,2-2S9.5,6.3954,9.5,7.5z"/>
</svg>