<?xml version="1.0" encoding="UTF-8"?>
<svg version="1.1" id="lighthouse-JP" xmlns="http://www.w3.org/2000/svg" width="15" height="15" viewBox="0 0 15 15">
  <path d="M9.5,7.4c0,1.1-0.9,2-2,2c-1.1,0-2-0.9-2-2s0.9-2,2-2C8.6,5.4,9.5,6.3,9.5,7.4z M14,7.5C14,7.8,13.8,8,13.5,8h-1.6&#xA;&#x9;c-0.1,0.9-0.4,1.6-1,2.3c0,0,0,0,0,0l1.1,1.1c0.2,0.2,0.2,0.5,0,0.7c-0.1,0.1-0.2,0.1-0.4,0.1s-0.3,0-0.4-0.1L10.3,11&#xA;&#x9;c-0.6,0.5-1.4,0.8-2.3,0.9v1.6C8,13.8,7.8,14,7.5,14S7,13.8,7,13.5v-1.6c-0.9-0.1-1.7-0.4-2.3-0.9l-1.1,1.1&#xA;&#x9;c-0.1,0.1-0.2,0.1-0.4,0.1s-0.3,0-0.4-0.1c-0.2-0.2-0.2-0.5,0-0.7L4,10.3C3.5,9.7,3.1,8.9,3,8H1.5C1.2,8,1,7.8,1,7.5S1.2,7,1.5,7H3&#xA;&#x9;c0.1-0.9,0.4-1.7,1-2.4l-1-1c-0.2-0.2-0.2-0.5,0-0.7s0.5-0.2,0.7,0l1,1c0,0,0,0,0,0C5.3,3.4,6.1,3.1,7,3V1.5C7,1.2,7.2,1,7.5,1&#xA;&#x9;S8,1.2,8,1.5V3c0.9,0.1,1.7,0.5,2.3,1c0,0,0,0,0,0l1.1-1.1c0.2-0.2,0.5-0.2,0.7,0s0.2,0.5,0,0.7L11,4.7c0,0,0,0,0,0&#xA;&#x9;c0.5,0.7,0.8,1.4,0.9,2.3h1.6C13.8,7,14,7.2,14,7.5z M11.1,7.4c0-2-1.6-3.6-3.6-3.6S3.8,5.5,3.8,7.4s1.6,3.6,3.6,3.6&#xA;&#x9;S11.1,9.4,11.1,7.4z"/>
</svg>