<?xml version="1.0" encoding="utf-8"?>
<!-- Generator: Adobe Illustrator 19.2.1, SVG Export Plug-In . SVG Version: 6.00 Build 0)  -->
<!DOCTYPE svg PUBLIC "-//W3C//DTD SVG 1.1//EN" "http://www.w3.org/Graphics/SVG/1.1/DTD/svg11.dtd">
<svg version="1.1"
	 id="svg4619" inkscape:version="0.91+devel+osxmenu r12911" sodipodi:docname="lodging-15.svg" xmlns:cc="http://creativecommons.org/ns#" xmlns:dc="http://purl.org/dc/elements/1.1/" xmlns:inkscape="http://www.inkscape.org/namespaces/inkscape" xmlns:rdf="http://www.w3.org/1999/02/22-rdf-syntax-ns#" xmlns:sodipodi="http://sodipodi.sourceforge.net/DTD/sodipodi-0.dtd" xmlns:svg="http://www.w3.org/2000/svg"
	 xmlns="http://www.w3.org/2000/svg" xmlns:xlink="http://www.w3.org/1999/xlink" x="0px" y="0px" width="15px" height="15px"
	 viewBox="0 0 15 15" style="enable-background:new 0 0 15 15;" xml:space="preserve">
<path id="rect6507" style="fill:#010101;" d="M0.5,2.5C0.2,2.5,0,2.7,0,3v7.5v2C0,12.8,0.2,13,0.5,13S1,12.8,1,12.5V11h13v1.5
	c0,0.3,0.2,0.5,0.5,0.5s0.5-0.2,0.5-0.5v-2c0-0.3-0.2-0.5-0.5-0.5H1V3C1,2.7,0.8,2.5,0.5,2.5z M3.5,3C2.7,3,2,3.7,2,4.5l0,0
	C2,5.3,2.7,6,3.5,6l0,0C4.3,6,5,5.3,5,4.5l0,0C5,3.7,4.3,3,3.5,3L3.5,3z M7,4C5.5,4,5.5,5.5,5.5,5.5V7h-3C2.2,7,2,7.2,2,7.5v1
	C2,8.8,2.2,9,2.5,9H6h9V6.5C15,4,12.5,4,12.5,4H7z"/>
</svg>
