<?xml version="1.0" encoding="utf-8"?>
<!-- Generator: Adobe Illustrator 19.2.1, SVG Export Plug-In . SVG Version: 6.00 Build 0)  -->
<!DOCTYPE svg PUBLIC "-//W3C//DTD SVG 1.1//EN" "http://www.w3.org/Graphics/SVG/1.1/DTD/svg11.dtd">
<svg version="1.1" id="Layer_1" xmlns="http://www.w3.org/2000/svg" xmlns:xlink="http://www.w3.org/1999/xlink" x="0px" y="0px"
	 width="11px" height="11px" viewBox="0 0 11 11" style="enable-background:new 0 0 11 11;" xml:space="preserve">
<path id="rect6430" d="M1.5,2C1.2239,2,1,2.2239,1,2.5v6C1,8.7761,1.2239,9,1.5,9S2,8.7761,2,8.5V8h7v0.5C9,8.7761,9.2239,9,9.5,9
	S10,8.7761,10,8.5v-1C10,7.2239,9.7761,7,9.5,7H2V2.5C2,2.2239,1.7761,2,1.5,2z M3.5,2c-0.5523,0-1,0.4477-1,1s0.4477,1,1,1
	s1-0.4477,1-1S4.0523,2,3.5,2z M6,3C5.4477,3,5,3.4477,5,4v1H3C2.7239,5,2.5,5.2239,2.5,5.5S2.7239,6,3,6h7V5c0-1.1046-0.8954-2-2-2
	H6z"/>
</svg>
