<svg id="Layer_1" data-name="Layer 1" xmlns="http://www.w3.org/2000/svg" width="15" height="15" viewBox="0 0 15 15">
  <title>logging-15</title>
  <g id="Layer_1-2" data-name="Layer 1-2">
    <path d="M13.76,2.64A.969.969,0,0,0,14,1.99h0a1,1,0,0,0-1.62-.77c-.03.02-.06.05-.09.07L12,1.5,11.5,1H11v.5l.5.5-.5.5L10.5,2H10v.5l.5.5-.5.5L9.5,3H9v.5l.5.5L9,4.5,8.5,4H8v.5l.5.5L8,5.5,7.5,5H7v.5l.5.5L7,6.5,6.5,6H6v.5l.5.5L6,7.5,5.5,7H5L6,8l.25.25,5.84-5.84L12.5,2H13v.5l-.41.41L6.75,8.75,8,10V9.5L7.5,9,8,8.5l.5.5H9V8.5L8.5,8,9,7.5l.5.5H10V7.5L9.5,7l.5-.5.5.5H11V6.5L10.5,6l.5-.5.5.5H12V5.5L11.5,5l.5-.5.5.5H13V4.5L12.5,4l.5-.5.5.5H14V3.5L13.5,3l.2-.28C13.72,2.69,13.74,2.67,13.76,2.64Z"/>
  </g>
  <g id="Layer_2" data-name="Layer 2">
    <path d="M1,12l1.01,1.01a2.949,2.949,0,0,0,1.9.818,2.446,2.446,0,0,0,.877-.177A3.363,3.363,0,0,0,6.46,12.163,8.037,8.037,0,0,0,7,11L3.83,7.83A3.033,3.033,0,0,0,1.491,7H1v.494h.482s1.476,0,1.888.719a1.249,1.249,0,0,1-.114,1.525Z"/>
  </g>
</svg>
