<svg id="Layer_1" data-name="Layer 1" xmlns="http://www.w3.org/2000/svg" width="11" height="11" viewBox="0 0 11 11">
  <title>logging-11</title>
  <path d="M9.25,1a.409.409,0,0,0-.11.01.668.668,0,0,0-.44.24.5.5,0,0,0-.07.08L8,2H7V3H6V4H5V5H4l.75.75L8.5,2H9v.5L5.25,6.25,6,7V6H7V5H8V4H9V3l.78-.72a.734.734,0,0,0,.21-.42L10,1.75A.755.755,0,0,0,9.25,1Z"/>
  <path d="M4.33,7.33l-.66-.66-.131-.131A1.118,1.118,0,0,0,2.5,5.5H1.25a.25.25,0,0,0,0,.5h1a.671.671,0,0,1,.28.06.73.73,0,0,1,.42.44A.934.934,0,0,1,3,6.714a.483.483,0,0,1,0,.194.348.348,0,0,1-.074.172c-.1.122-.228.228-.34.34L2.5,7.5l-.93.93a1.845,1.845,0,0,0,.1.24,1.551,1.551,0,0,0,.624.643,1.342,1.342,0,0,0,1.315,0A5.035,5.035,0,0,0,4.33,8.67L5,8Z"/>
</svg>
