<svg id="Layer_1" data-name="Layer 1" xmlns="http://www.w3.org/2000/svg" width="15" height="15" viewBox="0 0 15 15">
  <title>logging-15-alt</title>
  <g>
    <path d="M3.982,7.508,3.974,7.5v0A1.748,1.748,0,0,0,1,8.75a.25.25,0,0,0,.5,0,1.25,1.25,0,0,1,2.5,0A1.989,1.989,0,0,1,3.5,10l-.838.838L1.5,12l.815.811a2.5,2.5,0,0,0,3.445-.056l.013-.013h.006L7,11.5l.487-.487L3.992,7.518Z"/>
    <path d="M13.915,3.415,13.89,3.39,13.5,3l.2-.28c.02-.03.04-.05.06-.08A.969.969,0,0,0,14,1.99a1,1,0,0,0-1.62-.77c-.03.02-.06.05-.09.07L12,1.5l-.394-.394a.354.354,0,0,0-.525.475l.025.025.4.4-.5.5-.4-.4a.354.354,0,0,0-.525.475l.025.025L10.5,3l-.5.5-.4-.4a.354.354,0,1,0-.525.475L9.1,3.6l.4.4L9,4.5l-.4-.4a.354.354,0,0,0-.517.483l.024.024L8.5,5,8,5.5l-.392-.392a.354.354,0,1,0-.556.439.358.358,0,0,0,.056.056l.4.4L7,6.5l-.394-.394a.354.354,0,1,0-.525.475l.025.025.4.4L6,7.5l-.4-.4a.355.355,0,0,0-.5,0l.5.5.648.644L12.09,2.41,12.5,2H13v.5l-.41.41L6.751,8.749l.085.085.557.557.5.5a.355.355,0,0,0,0-.5l-.008-.009L7.5,9,8,8.5l.39.39a.354.354,0,1,0,.525-.475L8.89,8.39,8.5,8,9,7.5l.392.392a.354.354,0,1,0,.525-.475l-.025-.025L9.5,7l.5-.5.377.377A.35.35,0,0,0,10.64,7a.355.355,0,0,0,.252-.6L10.5,6l.5-.5.39.39a.354.354,0,1,0,.525-.475L11.89,5.39,11.5,5l.5-.5.388.388a.354.354,0,1,0,.525-.475l-.025-.025L12.5,4l.5-.5.39.39a.354.354,0,1,0,.525-.475Z"/>
  </g>
</svg>
