<svg id="Layer_1" data-name="Layer 1" xmlns="http://www.w3.org/2000/svg" width="15" height="15" viewBox="0 0 15 15">
  <title>logging-15</title>
  <g>
    <path d="M13.7,2.72c.02-.03.04-.05.06-.08A.969.969,0,0,0,14,1.99a1,1,0,0,0-1.62-.77c-.03.02-.06.05-.09.07L12,1.5,11.5,1H11v.5l.5.5-.5.5L10.5,2H10v.5l.5.5-.5.5L9.5,3H9v.5l.5.5L9,4.5,8.5,4H8v.5l.5.5L8,5.5,7.5,5H7v.5l.5.5L7,6.5,6.5,6H6v.5l.5.5L6,7.5,5.5,7H5L6,8l.25.25,5.84-5.84L12.5,2H13v.5l-.41.41L6.75,8.75,8,10V9.5L7.5,9,8,8.5l.5.5H9V8.5L8.5,8,9,7.5l.5.5H10V7.5L9.5,7l.5-.5.5.5H11V6.5L10.5,6l.5-.5.5.5H12V5.5L11.5,5l.5-.5.5.5H13V4.5L12.5,4l.5-.5.5.5H14V3.5L13.5,3Z"/>
    <path d="M2.372,7.1H1.25a.25.25,0,0,0,0,.5H2.372a1.25,1.25,0,0,1,.9,2.112l-.886.9L1,12l1.01,1.01.017.016.112.1a2.474,2.474,0,0,0,3.92-.537h0L7,11,3.653,7.653A1.73,1.73,0,0,0,2.372,7.1Z"/>
  </g>
</svg>
