<svg id="Layer_1" data-name="Layer 1" xmlns="http://www.w3.org/2000/svg" width="11" height="11" viewBox="0 0 11 11">
  <title>logging-11</title>
  <path d="M9.25,1a.409.409,0,0,0-.11.01.668.668,0,0,0-.44.24L8,2H7.263A.25.25,0,0,0,7,2.236a.243.243,0,0,0,0,.025V3H6.263a.256.256,0,0,0-.19.073A.248.248,0,0,0,6,3.252V4H5.237a.275.275,0,0,0-.164.073A.248.248,0,0,0,5,4.252V5H4.249a.257.257,0,0,0-.176.075l.178.178.5.5L8.5,2H9v.5L5.25,6.25l.5.5.177.177A.249.249,0,0,0,6,6.749V6h.751a.25.25,0,0,0,.176-.073A.266.266,0,0,0,7,5.759V5h.748A.248.248,0,0,0,8,4.756H8V4h.751a.267.267,0,0,0,.176-.073A.258.258,0,0,0,9,3.733V3l.78-.72a.734.734,0,0,0,.21-.42L10,1.75A.755.755,0,0,0,9.25,1ZM2,8,1.569,6.8h0a1.422,1.422,0,0,1-.07-.465V6.25A.25.25,0,0,1,1.749,6h1a.25.25,0,0,0,0-.5H1.5A.5.5,0,0,0,1,6v.415a2,2,0,0,0,.106.642L1.57,8.43a1.841,1.841,0,0,0,.1.24,1.551,1.551,0,0,0,.624.643,1.342,1.342,0,0,0,1.315,0C3.869,9.122,5,8,5,8L3.5,6.5Z"/>
</svg>
