<svg id="Layer_1" data-name="Layer 1" xmlns="http://www.w3.org/2000/svg" width="11" height="11" viewBox="0 0 11 11">
  <title>logging-11</title>
  <path d="M9.25,1a.409.409,0,0,0-.11.01.668.668,0,0,0-.44.24.5.5,0,0,0-.07.08L8,2H7V3H6V4H5V5H4l.75.75L8.5,2H9v.5L5.25,6.25,6,7V6H7V5H8V4H9V3l.78-.72a.734.734,0,0,0,.21-.42L10,1.75A.755.755,0,0,0,9.25,1Z"/>
  <g>
    <path d="M1.5,5.75a.248.248,0,0,0-.246-.25H2.5a1,1,0,0,1,1,1l.17.17.66.66L5,8l-.67.67a1.326,1.326,0,0,1-.66.66,1.387,1.387,0,0,1-1.34,0,1.326,1.326,0,0,1-.66-.66.72.72,0,0,1-.1-.24L2.5,7.5l.08-.08a2.729,2.729,0,0,0,.34-.34.818.818,0,0,0,.05-.14A.628.628,0,0,0,3,6.75a.7.7,0,0,0-.05-.25.73.73,0,0,0-.42-.44A.671.671,0,0,0,2.25,6h-1a.248.248,0,0,0,.25-.246h0Z"/>
    <circle cx="1.25" cy="5.75" r="0.25"/>
  </g>
</svg>
