<svg id="Layer_1" data-name="Layer 1" xmlns="http://www.w3.org/2000/svg" width="13" height="13" viewBox="0 0 13 13">
  <title>logging-15</title>
  <g>
    <path d="M12,0a.994.994,0,0,1,1,.99.969.969,0,0,1-.24.65L11.38.22A1,1,0,0,1,12,0Z"/>
    <path d="M5.75,7.75l5.84-5.84A.946.946,0,0,0,12,2a1.017,1.017,0,0,0,.7-.28L12.5,2l.5.5V3h-.5L12,2.5l-.5.5.5.5V4h-.5L11,3.5l-.5.5.5.5V5h-.5L10,4.5,9.5,5l.5.5V6H9.5L9,5.5,8.5,6l.5.5V7H8.5L8,6.5,7.5,7l.5.5V8H7.5L7,7.5,6.5,8l.5.5V9Z"/>
    <path d="M11,1a.99.99,0,0,1,.29-.71c.03-.02.06-.05.09-.07l1.38,1.42c-.02.03-.04.05-.06.08A1.017,1.017,0,0,1,12,2a.946.946,0,0,1-.41-.09L12,1.5V1h-.5l-.41.41A.946.946,0,0,1,11,1Z"/>
    <path d="M5.4,11.2a2.288,2.288,0,0,1-.39.78Z"/>
    <path d="M4.97,8.97,6,10l-.6,1.2a2.37,2.37,0,0,0,.1-.7,1.77,1.77,0,0,0-.01-.23,1.569,1.569,0,0,0-.09-.43A2.365,2.365,0,0,0,4.97,8.97Z"/>
    <path d="M5,7,4,6h.5l.5.5L5.5,6,5,5.5V5h.5l.5.5L6.5,5,6,4.5V4h.5l.5.5L7.5,4,7,3.5V3h.5l.5.5L8.5,3,8,2.5V2h.5l.5.5L9.5,2,9,1.5V1h.5l.5.5.5-.5L10,.5V0h.5l.5.5.29-.21A.99.99,0,0,0,11,1a.946.946,0,0,0,.09.41L5.25,7.25Z"/>
    <path d="M5,12a2.491,2.491,0,0,1-2,1,2.37,2.37,0,0,1-.7-.1Z"/>
    <path d="M5.4,9.84A3.268,3.268,0,0,0,3.31,8.02a2.458,2.458,0,0,1,1.22.51l.02.01.4.4.02.03A2.365,2.365,0,0,1,5.4,9.84Z"/>
    <path d="M1.49,12.49l-.48-.48A2.478,2.478,0,0,1,.5,10.5L1.62,9.38l.41-.41a1.681,1.681,0,0,0,1.28-.95A3.268,3.268,0,0,1,5.4,9.84a2.979,2.979,0,0,1,.09.43,1.77,1.77,0,0,1,.01.23,2.37,2.37,0,0,1-.1.7l-.39.78c0,.01,0,.02-.01.02l-2.7.9A2.69,2.69,0,0,1,1.49,12.49Z"/>
    <path d="M3.48,7.48,4.53,8.53a2.458,2.458,0,0,0-1.22-.51A1.482,1.482,0,0,0,3.48,7.48Z"/>
    <path d="M3.03,7.02v.01c-.01,0-.01,0-.01-.01Z"/>
    <path d="M3,7.5a1.449,1.449,0,0,0-.17-.67L3,7l.02.02c0,.01,0,.01.01.01s.01.01.02.01l.43.44a1.482,1.482,0,0,1-.17.54C3.21,8.01,3.1,8,3,8l-.08-.05A1.156,1.156,0,0,0,3,7.5Z"/>
    <path d="M2.9,8c.02-.02.03-.03.02-.05L3,8Z"/>
    <path d="M3,8l-.17.17A.363.363,0,0,0,2.9,8Z"/>
    <path d="M2.5,8.05a1.211,1.211,0,0,0,0-.38l.42.28c.01.02,0,.03-.02.05C2.76,8.01,2.63,8.03,2.5,8.05Z"/>
    <path d="M2.83,8.17l-.44.44a3.467,3.467,0,0,0,.11-.56c.13-.02.26-.04.4-.05A.363.363,0,0,1,2.83,8.17Z"/>
    <polygon points="2.5 7.64 2.5 7.65 2.49 7.64 2.5 7.64"/>
    <path d="M2.39,8.61l.44-.44a1.287,1.287,0,0,1-.65.65Z"/>
    <path d="M2.17,6.17a1.326,1.326,0,0,1,.66.66Z"/>
    <path d="M3.31,8.02a1.681,1.681,0,0,1-1.28.95l.14-.14.01-.01a1.287,1.287,0,0,0,.65-.65L3,8C3.1,8,3.21,8.01,3.31,8.02Z"/>
    <path d="M1.49,12.49a2.726,2.726,0,0,1-.48-.48Z"/>
    <path d="M2.17,6.17l.66.66A1.449,1.449,0,0,1,3,7.5a1.156,1.156,0,0,1-.08.45L2.5,7.67V7.64H2.49V7.63A1.226,1.226,0,0,0,1.25,6.5H.39A1.48,1.48,0,0,1,1.5,6,1.449,1.449,0,0,1,2.17,6.17Z"/>
    <path d="M.5,10.5a2.478,2.478,0,0,0,.51,1.51L0,11Z"/>
    <path d="M.52,6H1.5a1.48,1.48,0,0,0-1.11.5H.18A1.7,1.7,0,0,1,.52,6Z"/>
    <path d="M.52,6a1.7,1.7,0,0,0-.34.5H0V6Z"/>
  </g>
</svg>
