<?xml version="1.0" encoding="UTF-8"?>
<svg id="marae" width="15" height="15" viewBox="0 0 15 15" xmlns="http://www.w3.org/2000/svg">
  <path d="M 7.5,1 A 0.5,0.5 0 0 0 7,1.5 V 2.7246094 L 3,5.2773438 V 4.1386719 a 0.5,0.5 0 0 0 -0.5,-0.5 0.5,0.5 0 0 0 -0.5,0.5 V 5.9160156 L 1.2304688,6.40625 A 0.5,0.5 0 0 0 1.078125,7.0957031 0.5,0.5 0 0 0 1.7695312,7.25 L 2,7.1035156 V 10.5 v 2 h 1 v -2 -4.0351562 L 7.4941406,3.5976562 12,6.6015625 V 10.5 v 2 h 1 v -2 -3.2324219 l 0.222656,0.1484375 A 0.5,0.5 0 0 0 13.916016,7.2773438 0.5,0.5 0 0 0 13.777344,6.5839844 L 13,6.0664062 V 4.1386719 a 0.5,0.5 0 0 0 -0.5,-0.5 0.5,0.5 0 0 0 -0.5,0.5 V 5.3984375 L 8,2.7324219 V 1.5 A 0.5,0.5 0 0 0 7.5,1 Z m 0,4 C 7.403316,5 7.3066316,5.0280107 7.2226562,5.0839844 l -3,2 C 4.0835645,7.17672 4.0000135,7.3328282 4,7.5 V 11 H 5 V 8 h 2 v 3 h 4 V 7.5 C 10.999987,7.3328283 10.91644,7.17672 10.777344,7.0839844 l -3.0000002,-2 C 7.6933684,5.0280107 7.596684,5 7.5,5 Z M 8,8 h 2 V 9 H 8 Z"/>
</svg>