<?xml version="1.0" encoding="UTF-8"?>
<svg id="marae" width="15" height="15" viewBox="0 0 15 15" xmlns="http://www.w3.org/2000/svg">
  <path d="M 7,3.4988644 V 4.3398438 L 3,7.7695312 V 7.0019294 A 0.50192937,0.50192937 45 0 0 2.4980706,6.5 0.49903625,0.49903625 134.88924 0 0 2,7 V 8.6289062 L 1.1981956,9.3157808 a 0.46886424,0.46886424 94.388426 0 0 -0.05076,0.6614324 l 0.00296,0.00345 a 0.52497091,0.52497091 4.3714057 0 0 0.7401426,0.056579 L 2,9.9433594 V 11.5 H 3 V 9.0859375 L 7.5,5.2304688 12,9.0859375 V 11.5 h 1 V 9.9433594 l 0.125993,0.1080636 a 0.50318272,0.50318272 175.62862 0 0 0.709424,-0.054231 l 0.01102,-0.01284 A 0.47872812,0.47872812 85.639423 0 0 13.794963,9.3093073 L 13,8.6269531 V 6.9983408 A 0.49834077,0.49834077 45 0 0 12.501659,6.5 H 12.5 A 0.5,0.5 135 0 0 12,7 V 7.7695312 L 8,4.3398438 V 3.5 A 0.5,0.5 45 0 0 7.5,3 h -0.00114 A 0.49886437,0.49886437 135 0 0 7,3.4988644 Z M 7.5,6 4,9 v 2 H 5 V 9.5361093 A 0.53610925,0.53610925 135 0 1 5.5361092,9 H 6.4918998 A 0.50810015,0.50810015 45 0 1 7,9.5081002 V 11 h 4 V 9 Z M 8.487077,9 H 9.4428033 A 0.55719669,0.55719669 45 0 1 10,9.5571967 V 10 H 8 V 9.487077 A 0.48707699,0.48707699 135 0 1 8.487077,9 Z"/>
</svg>