<svg id="Layer_1" data-name="Layer 1" xmlns="http://www.w3.org/2000/svg" width="15" height="15" viewBox="0 0 15 15">
  <title>marker-stroked-15</title>
  <path d="M7.5,0c-.149-.007-.316-.007-.464,0A5.066,5.066,0,0,0,2.2,5.286c0,2.6,3.927,7.971,4.9,9.16L7.5,15l.589-.863C10.1,11.4,12.767,7.5,12.767,5.286q.01-.225,0-.45A5.049,5.049,0,0,0,7.5,0Zm0,13.5c-1.527-2-4.3-6.382-4.3-8.214A4.1,4.1,0,0,1,4.18,2.391,4.353,4.353,0,0,1,7.5,1h0A4.837,4.837,0,0,1,8,1a4.032,4.032,0,0,1,3.8,4.286C11.8,7.331,8.75,11.79,7.5,13.5Z"/>
</svg>
