<?xml version="1.0" encoding="UTF-8"?>
<svg version="1.1" id="monument-JP-11" xmlns="http://www.w3.org/2000/svg" width="11px" height="11px" viewBox="0 0 11 11">
  <g>
    <path d="M8.7584,10.5338H2.249c-0.4024,0-0.7287-0.3259-0.7287-0.7287V2.9154c0-0.0793,0.0128-0.1583,0.0384-0.2334&#xA;&#x9;&#x9;C1.5886,2.593,1.8658,1.8003,2.333,1.3117c0.6184-0.6458,1.5592-1.0315,2.5167-1.0315c0.9483,0,1.656,0.385,2.2765,1.0301&#xA;&#x9;&#x9;c0.4804,0.4989,0.7679,1.2713,0.7992,1.3578c0.0285,0.0793,0.0434,0.163,0.0434,0.2473v6.161h0.7895&#xA;&#x9;&#x9;c0.4028,0,0.7287,0.3259,0.7287,0.7287S9.1612,10.5338,8.7584,10.5338z M2.9778,9.0764h3.5337V3.0535&#xA;&#x9;&#x9;C6.4161,2.8268,6.2467,2.4977,6.0766,2.3212C5.7243,1.9558,5.4094,1.7377,4.8497,1.7377c-0.5593,0-1.1201,0.2231-1.4638,0.5818&#xA;&#x9;&#x9;c-0.158,0.1651-0.3181,0.4964-0.4081,0.7255V9.0764z"/>
  </g>
</svg>