<?xml version="1.0" encoding="UTF-8"?>
<svg version="1.1" id="monument-JP-15" xmlns="http://www.w3.org/2000/svg" width="15px" height="15px" viewBox="0 0 15 15">
  <g>
    <path d="M11.9326,14.4961H3c-0.5522,0-1-0.4473-1-1V4.0415c0-0.1089,0.0176-0.2173,0.0527-0.3203&#xA;&#x9;&#x9;c0.041-0.1221,0.4214-1.21,1.0625-1.8804c0.8486-0.8862,2.1396-1.4155,3.4536-1.4155c1.3013,0,2.5864,0.5283,3.438,1.4136&#xA;&#x9;&#x9;c0.6592,0.6846,1.0537,1.7446,1.0967,1.8633c0.0391,0.1089,0.0596,0.2236,0.0596,0.3394v8.4546h0.7695c0.5527,0,1,0.4473,1,1&#xA;&#x9;&#x9;S12.4854,14.4961,11.9326,14.4961z M4,12.4961h5.1631V4.231c-0.1309-0.311-0.3633-0.7627-0.5967-1.0049&#xA;&#x9;&#x9;C8.083,2.7246,7.3369,2.4253,6.5688,2.4253c-0.7676,0-1.5371,0.3062-2.0088,0.7983C4.3433,3.4502,4.1235,3.9048,4,4.2192V12.4961z"/>
  </g>
</svg>