<?xml version="1.0" encoding="UTF-8" standalone="no"?>
<svg
   xmlns:dc="http://purl.org/dc/elements/1.1/"
   xmlns:cc="http://creativecommons.org/ns#"
   xmlns:rdf="http://www.w3.org/1999/02/22-rdf-syntax-ns#"
   xmlns:svg="http://www.w3.org/2000/svg"
   xmlns="http://www.w3.org/2000/svg"
   version="1.1"
   id="Layer_1"
   x="0px"
   y="0px"
   width="15px"
   height="15px"
   viewBox="0 0 15 15"
   style="enable-background:new 0 0 15 15;"
   xml:space="preserve"><metadata
     id="metadata9"><rdf:RDF><cc:Work
         rdf:about=""><dc:format>image/svg+xml</dc:format><dc:type
           rdf:resource="http://purl.org/dc/dcmitype/StillImage" /><dc:title></dc:title></cc:Work></rdf:RDF></metadata><defs
     id="g4265" /><path
     style="color:#000000;font-style:normal;font-variant:normal;font-weight:normal;font-stretch:normal;font-size:medium;line-height:normal;font-family:sans-serif;text-indent:0;text-align:start;text-decoration:none;text-decoration-line:none;text-decoration-style:solid;text-decoration-color:#000000;letter-spacing:normal;word-spacing:normal;text-transform:none;direction:ltr;block-progression:tb;writing-mode:lr-tb;baseline-shift:baseline;text-anchor:start;white-space:normal;clip-rule:nonzero;display:inline;overflow:visible;visibility:visible;opacity:1;isolation:auto;mix-blend-mode:normal;color-interpolation:sRGB;color-interpolation-filters:linearRGB;solid-color:#000000;solid-opacity:1;fill:#000000;fill-opacity:1;fill-rule:evenodd;stroke:none;stroke-width:1px;stroke-linecap:round;stroke-linejoin:round;stroke-miterlimit:4;stroke-dasharray:none;stroke-dashoffset:0;stroke-opacity:1;color-rendering:auto;image-rendering:auto;shape-rendering:auto;text-rendering:auto;enable-background:accumulate"
     d="m 13.587442,9.9994342 c -0.0902,0.00321 -0.176664,0.036819 -0.245348,0.095374 L 11,12 9.46875,12 c 0,0 -0.1789236,-0.01657 -0.3858859,0 -0.2069623,0.01657 -1.0417844,0.429412 -1.0417844,0.429412 L 6.1832702,13.263657 C 5.8484365,13.479574 6.0005136,13.998832 6.3989257,14 l 7.2010183,0 C 13.82088,13.999978 13.999978,13.820879 14,13.599943 l 0,-3.202053 c 8.7e-5,-0.225911 -0.186757,-0.4070923 -0.412558,-0.400056 z"
     id="path4145-5" /><path
     style="opacity:1;fill:#000000;fill-opacity:1;stroke:none;stroke-width:1;stroke-linecap:round;stroke-linejoin:round;stroke-miterlimit:4;stroke-dasharray:none;stroke-dashoffset:0;stroke-opacity:1"
     d="M 5,11 A 2,2 0 0 1 3,13 2,2 0 0 1 1,11 2,2 0 0 1 3,9 2,2 0 0 1 5,11 Z"
     id="path6184" /><path
     style="opacity:1;fill:#000000;fill-opacity:1;stroke:none;stroke-width:1;stroke-linecap:round;stroke-linejoin:round;stroke-miterlimit:4;stroke-dasharray:none;stroke-dashoffset:0;stroke-opacity:1"
     d="M 12,9 A 2,2 0 0 1 10,11 2,2 0 0 1 8,9 2,2 0 0 1 10,7 2,2 0 0 1 12,9 Z"
     id="path6184-2" /><path
     id="path4162"
     d="M 8,2.0000001 A 1,0.99999997 0 0 1 7,3 1,0.99999997 0 0 1 6,2.0000001 1,0.99999997 0 0 1 7,1 1,0.99999997 0 0 1 8,2.0000001 Z"
     style="opacity:1;fill:#000000;fill-opacity:1;stroke:none;stroke-width:1;stroke-linecap:round;stroke-linejoin:round;stroke-miterlimit:4;stroke-dasharray:none;stroke-dashoffset:0;stroke-opacity:1" /><path
     id="rect4167"
     d="m 6.296875,3.1054688 c -0.1865679,0.00963 -0.3705592,0.089275 -0.5078125,0.234375 L 3.2137908,6 C 2.8027115,6.4245297 3.0835166,6.8430512 3.3230032,6.9278871 L 6,8 6,10.539063 c 0,0.259688 0.2090625,0.46875 0.5,0.46875 0.2909375,0 0.5,-0.209062 0.5,-0.46875 L 7,7.46875 C 7,7.2100945 6.8811284,7.1152344 6.7148438,7 L 5.1675285,6 6.4747243,4.6785771 7.1328125,5.6015625 C 7.2969902,5.8242894 7.4302142,6 7.6503906,6 L 9.5546875,6 C 9.8143611,6.00273 10.023437,5.7909375 10.023437,5.5 10.023437,5.2090625 9.8143603,5.0027982 9.5546875,5 L 8,5 7.0488281,3.53125 C 6.8947261,3.2345749 6.601516,3.1117572 6.296875,3.1054688 Z"
     style="opacity:1;fill:#000000;fill-opacity:1;stroke:none;stroke-width:1;stroke-linecap:round;stroke-linejoin:round;stroke-miterlimit:4;stroke-dasharray:none;stroke-dashoffset:0;stroke-opacity:1" /></svg>