<?xml version="1.0" encoding="UTF-8" standalone="no"?>
<svg
   xmlns:dc="http://purl.org/dc/elements/1.1/"
   xmlns:cc="http://creativecommons.org/ns#"
   xmlns:rdf="http://www.w3.org/1999/02/22-rdf-syntax-ns#"
   xmlns:svg="http://www.w3.org/2000/svg"
   xmlns="http://www.w3.org/2000/svg"
   xml:space="preserve"
   viewBox="0 0 11 11"
   height="11"
   width="11"
   y="0px"
   x="0px"
   id="Layer_1"
   version="1.1"><metadata
     id="metadata9"><rdf:RDF><cc:Work
         rdf:about=""><dc:format>image/svg+xml</dc:format><dc:type
           rdf:resource="http://purl.org/dc/dcmitype/StillImage" /><dc:title></dc:title></cc:Work></rdf:RDF></metadata><defs
     id="defs7" /><path
     id="path4142-5"
     d="M 3.9276298,9 A 1.9276298,1.9276298 0 0 1 2,10.92763 1.9276298,1.9276298 0 0 1 0.07237017,9 1.9276298,1.9276298 0 0 1 2,7.0723702 1.9276298,1.9276298 0 0 1 3.9276298,9 Z"
     style="opacity:1;fill:#000000;fill-opacity:1;stroke:#000000;stroke-width:0.14474033;stroke-linecap:round;stroke-linejoin:round;stroke-miterlimit:4;stroke-dasharray:none;stroke-opacity:1" /><path
     id="path4142-3"
     d="M 10.92763,7 A 1.9276298,1.9276298 0 0 1 9,8.9276298 1.9276298,1.9276298 0 0 1 7.0723702,7 1.9276298,1.9276298 0 0 1 9,5.0723702 1.9276298,1.9276298 0 0 1 10.92763,7 Z"
     style="opacity:1;fill:#000000;fill-opacity:1;stroke:#000000;stroke-width:0.14474033;stroke-linecap:round;stroke-linejoin:round;stroke-miterlimit:4;stroke-dasharray:none;stroke-opacity:1" /><path
     id="rect6206"
     d="M 10.25,9.5 C 10.17453,9.4998026 10.099469,9.510996 10.027344,9.533203 L 7.3226789,10 C 7.2098109,10.020927 7,10.233226 7,10.512082 7,10.790938 7.2559375,11 7.4170313,11 L 10.25,11 C 10.664214,11 11,10.664214 11,10.25 11,9.8357864 10.664214,9.5 10.25,9.5 Z"
     style="opacity:1;fill:#000000;fill-opacity:1;stroke:none;stroke-width:1;stroke-linecap:round;stroke-linejoin:round;stroke-miterlimit:4;stroke-dasharray:none;stroke-dashoffset:0;stroke-opacity:1" /><path
     style="opacity:1;fill:#000000;fill-opacity:1;stroke:none;stroke-width:1;stroke-linecap:round;stroke-linejoin:round;stroke-miterlimit:4;stroke-dasharray:none;stroke-dashoffset:0;stroke-opacity:1"
     d="M 4.625,2.430798 C 4.3792446,2.4324698 4.178267,2.5691519 4,3 L 3.1254498,5.3227723 C 2.9363872,5.7345794 2.9441997,6.0929469 3.3245059,6.2780031 L 5,7 5,9.539063 c 0,0.259688 0.2090625,0.46875 0.5,0.46875 0.2909375,0 0.5,-0.209062 0.5,-0.46875 L 6,6.46875 C 6,6.2100945 5.8811284,6.1152344 5.7148438,6 L 4.5674627,5.4017426 5,4.1169508 5.34375,4.6195549 C 5.5463859,4.8498941 5.6589592,5 6,5 L 7.5270721,5 C 7.7867457,5.00273 8,4.7972988 8,4.5063613 8,4.2154238 7.7867449,4.0027982 7.5270721,4 L 6,4 5.2597656,2.8526729 C 5.1056636,2.5559978 4.8707554,2.4291261 4.625,2.430798 Z"
     id="rect4167" /><path
     id="path5259"
     d="M 6,1 A 1,1 0 0 1 5,2 1,1 0 0 1 4,1 1,1 0 0 1 5,0 1,1 0 0 1 6,1 Z"
     style="opacity:1;fill:#000000;fill-opacity:1;stroke:none;stroke-width:1;stroke-linecap:round;stroke-linejoin:round;stroke-miterlimit:4;stroke-dasharray:none;stroke-dashoffset:0;stroke-opacity:1" /></svg>