<?xml version="1.0" encoding="utf-8"?>
<!-- Generator: Adobe Illustrator 19.2.1, SVG Export Plug-In . SVG Version: 6.00 Build 0)  -->
<!DOCTYPE svg PUBLIC "-//W3C//DTD SVG 1.1//EN" "http://www.w3.org/Graphics/SVG/1.1/DTD/svg11.dtd">
<svg version="1.1"
	 id="svg4619" inkscape:version="0.91+devel+osxmenu r12911" sodipodi:docname="museum-15.svg" xmlns:cc="http://creativecommons.org/ns#" xmlns:dc="http://purl.org/dc/elements/1.1/" xmlns:inkscape="http://www.inkscape.org/namespaces/inkscape" xmlns:rdf="http://www.w3.org/1999/02/22-rdf-syntax-ns#" xmlns:sodipodi="http://sodipodi.sourceforge.net/DTD/sodipodi-0.dtd" xmlns:svg="http://www.w3.org/2000/svg"
	 xmlns="http://www.w3.org/2000/svg" xmlns:xlink="http://www.w3.org/1999/xlink" x="0px" y="0px" width="15px" height="15px"
	 viewBox="0 0 15 15" style="enable-background:new 0 0 15 15;" xml:space="preserve">
<path id="path7509" inkscape:connector-curvature="0" d="M7.5,0L1,3.4453V4h13V3.4453L7.5,0z M2,5v5l-1,1.5547V13h13v-1.4453L13,10
	V5H2z M4.6152,6c0.169-0.0023,0.3318,0.0639,0.4512,0.1836L7.5,8.6172l2.4336-2.4336c0.2445-0.2437,0.6402-0.2432,0.884,0.0013
	C10.9341,6.3017,10.9997,6.46,11,6.625v4.2422c0.0049,0.3452-0.271,0.629-0.6162,0.6338c-0.3452,0.0049-0.629-0.271-0.6338-0.6162
	c-0.0001-0.0059-0.0001-0.0118,0-0.0177V8.1328L7.9414,9.9414c-0.244,0.2433-0.6388,0.2433-0.8828,0L5.25,8.1328v2.7344
	c0.0049,0.3452-0.271,0.629-0.6162,0.6338C4.2887,11.5059,4.0049,11.2301,4,10.8849c-0.0001-0.0059-0.0001-0.0118,0-0.0177V6.625
	C4,6.2836,4.2739,6.0054,4.6152,6z"/>
</svg>
