<?xml version="1.0" encoding="utf-8"?>
<!-- Generator: Adobe Illustrator 19.2.1, SVG Export Plug-In . SVG Version: 6.00 Build 0)  -->
<!DOCTYPE svg PUBLIC "-//W3C//DTD SVG 1.1//EN" "http://www.w3.org/Graphics/SVG/1.1/DTD/svg11.dtd">
<svg version="1.1" id="Layer_1" xmlns="http://www.w3.org/2000/svg" xmlns:xlink="http://www.w3.org/1999/xlink" x="0px" y="0px"
	 width="11px" height="11px" viewBox="0 0 11 11" style="enable-background:new 0 0 11 11;" xml:space="preserve">
<path d="M9.5,0.5C9.4238,0.4993,9.3484,0.5164,9.28,0.55L3.5,2C3.2239,2,3,2.2239,3,2.5v4.59
	C2.219,6.8139,1.3619,7.2232,1.0858,8.0042S1.219,9.6423,2,9.9184s1.6381-0.1332,1.9142-0.9142C3.9715,8.8423,4.0005,8.6717,4,8.5
	V5.38l5-1.25v1.46C8.219,5.3139,7.3619,5.7232,7.0858,6.5042C6.8097,7.2853,7.219,8.1423,8,8.4184s1.6381-0.1332,1.9142-0.9142
	C9.9715,7.3423,10.0005,7.1717,10,7V1C10,0.7239,9.7761,0.5,9.5,0.5z M4,4.38v-1.5l5-1.25v1.5L4,4.38z"/>
</svg>
