<svg id="Layer_1" data-name="Layer 1" xmlns="http://www.w3.org/2000/svg" width="15" height="15" viewBox="0 0 15 15">
  <title>natural-15</title>
  <path d="M7.721,10.75a.234.234,0,0,0-.045-.108l.01-.018L7.65,10.58l-.008-.009L5,8H6.289a.25.25,0,0,0,.25-.25.242.242,0,0,0-.062-.15V7.59L4.7,5.235a.255.255,0,0,0-.391,0L2.518,7.589V7.6a.243.243,0,0,0-.062.15.25.25,0,0,0,.25.25H4L1.356,10.573h0l-.021.027v.011a.24.24,0,0,0-.058.141A.25.25,0,0,0,1.529,11H3L1.435,12.565a.255.255,0,0,0,.18.435H4v1H5V13H7.385a.255.255,0,0,0,.18-.435L6,11H7.471A.25.25,0,0,0,7.721,10.75Zm6.6.885h0l-2.6-5.184a.252.252,0,0,0-.451,0L8.682,11.635A.252.252,0,0,0,8.908,12h5.185a.252.252,0,0,0,.225-.365ZM10.25,10,11.5,7.5,12.75,10Zm.858-8.049.007.011A2.809,2.809,0,0,0,10.5,3.5,4.113,4.113,0,0,1,8.753,6.278a.5.5,0,0,1-.51,0A4.109,4.109,0,0,1,6.5,3.5,2.76,2.76,0,0,0,5.91,2V1.994l-.018-.027V1.961a.24.24,0,0,1-.057-.138.25.25,0,0,1,.25-.25c.02,0,.032.017.05.021l.007-.01A1.931,1.931,0,0,1,7.5,2.5L8.28.94a.246.246,0,0,1,.44,0L9.5,2.5a1.944,1.944,0,0,1,1.379-.923v.006c.011,0,.018-.012.029-.012a.25.25,0,0,1,.25.25A.238.238,0,0,1,11.108,1.951Z"/>
</svg>
