<?xml version="1.0" encoding="UTF-8"?>
<svg id="nightclub" xmlns="http://www.w3.org/2000/svg" width="15" height="15" viewBox="0 0 15 15">
  <path d="M13 0C13.1443 0 13.2674 0.104298 13.2911 0.246598L13.3856 0.813808C13.454 1.22429 13.7757 1.54595 14.1862 1.61437L14.7534 1.7089C14.8957 1.73262 15 1.85574 15 2C15 2.14426 14.8957 2.26738 14.7534 2.2911L14.1862 2.38563C13.7757 2.45405 13.454 2.77571 13.3856 3.18619L13.2911 3.7534C13.2674 3.8957 13.1443 4 13 4C12.8557 4 12.7326 3.8957 12.7089 3.7534L12.6144 3.18619C12.546 2.77571 12.2243 2.45405 11.8138 2.38563L11.2466 2.2911C11.1043 2.26738 11 2.14426 11 2C11 1.85574 11.1043 1.73262 11.2466 1.7089L11.8138 1.61437C12.2243 1.54595 12.546 1.22429 12.6144 0.813808L12.7089 0.246598C12.7326 0.104297 12.8557 0 13 0Z M3.2057 0.18557L6.28947 2.90344C6.91966 3.45885 7.67962 3.84654 8.4992 4.03072L10.3991 4.45767C11.141 4.62438 11.6408 5.31986 11.5622 6.07618L11.3605 8.01788C11.3261 8.34867 11.0473 8.6 10.7147 8.6C10.3316 8.6 10.0318 8.26993 10.0685 7.88855L10.1872 6.65628C10.2209 6.30677 9.9461 6.00427 9.59497 6.00427C9.26638 6.00427 9 6.27065 9 6.59924V8.85444C9 9.2827 9.09169 9.70599 9.2689 10.0959L11.0612 14.039C11.2667 14.491 10.9362 15.0043 10.4396 15.0043C10.1719 15.0043 9.92887 14.8478 9.81807 14.604L7.75182 10.0583C7.59846 9.72088 7.26206 9.50427 6.89146 9.50427C6.64081 9.50427 6.40043 9.60384 6.2232 9.78108L5.39172 10.6126C5.1354 10.8689 4.95356 11.19 4.86564 11.5417L4.13368 14.4695C4.05512 14.7838 3.77275 15.0043 3.44881 15.0043C2.97593 15.0043 2.63676 14.5484 2.77264 14.0955L3.78266 10.7287C3.92532 10.2532 4.18377 9.82051 4.53482 9.46945L5.12132 8.88295C5.68393 8.32034 6 7.55728 6 6.76163V5.61646C6 5.06365 5.77118 4.53548 5.36788 4.15739L2.21958 1.20586C2.07948 1.07452 2 0.891048 2 0.699015C2 0.315319 2.31105 0.00427246 2.69474 0.00427246H2.7258C2.90251 0.00427246 3.07314 0.0687345 3.2057 0.18557Z M8.5 3.00427C9.32843 3.00427 10 2.3327 10 1.50427C10 0.675845 9.32843 0.00427246 8.5 0.00427246C7.67157 0.00427246 7 0.675845 7 1.50427C7 2.3327 7.67157 3.00427 8.5 3.00427Z M2.2911 3.7466C2.26738 3.6043 2.14426 3.5 2 3.5C1.85574 3.5 1.73262 3.6043 1.7089 3.7466L1.61437 4.31381C1.54595 4.72429 1.22429 5.04595 0.813808 5.11437L0.246598 5.2089C0.104298 5.23262 0 5.35574 0 5.5C0 5.64426 0.104297 5.76738 0.246598 5.7911L0.813808 5.88563C1.22429 5.95405 1.54595 6.27571 1.61437 6.68619L1.7089 7.2534C1.73262 7.3957 1.85574 7.5 2 7.5C2.14426 7.5 2.26738 7.3957 2.2911 7.2534L2.38563 6.68619C2.45405 6.27571 2.77571 5.95405 3.18619 5.88563L3.7534 5.7911C3.8957 5.76738 4 5.64426 4 5.5C4 5.35574 3.8957 5.23262 3.7534 5.2089L3.18619 5.11437C2.77571 5.04595 2.45405 4.72429 2.38563 4.31381L2.2911 3.7466Z"/>
</svg>