<?xml version="1.0" encoding="UTF-8"?>
<svg xmlns="http://www.w3.org/2000/svg" width="15" height="15" viewBox="0 0 15 15" id="observation-tower">
  <path d="M12.25,12.5h-.821L10.125,9V7H10.5a.5022.5022,0,0,0,.4951-.4326l.5-3.5A.4962.4962,0,0,0,11,2.5H10A.5.5,0,0,0,9.5,2H8.25V.75a.75.75,0,0,0-1.5,0V2H5.5a.5.5,0,0,0-.5.5H4a.4962.4962,0,0,0-.4951.5674l.5,3.5A.5022.5022,0,0,0,4.5,7h.375V9L3.571,12.5H2.75a.75.75,0,0,0,0,1.5h9.5a.75.75,0,0,0,0-1.5ZM5.5026,3.4971h4.9207l-.2141,1.5H4.7908l-.2141-1.5ZM8.375,7V8.5H6.625V7ZM6.5006,9.4971H8.4994L9.5,12.5h-4Z"/>
</svg>