<?xml version="1.0" encoding="utf-8"?>
<!-- Generator: Adobe Illustrator 22.1.0, SVG Export Plug-In . SVG Version: 6.00 Build 0)  -->
<svg version="1.1" id="start_here" xmlns="http://www.w3.org/2000/svg" xmlns:xlink="http://www.w3.org/1999/xlink" x="0px" y="0px"
	 width="11px" height="11px" viewBox="0 0 11 11" style="enable-background:new 0 0 11 11;" xml:space="preserve">
<path d="M10.5,4.5c-0.0246,0-0.0457,0.0106-0.0694,0.014C10.2798,3.85,9.8149,3.5,9,3.5H7.5c-0.8845,0-1.3546,0.4145-1.4567,1.1969
	C5.8868,4.6503,5.6987,4.6084,5.5,4.6084S5.1132,4.6503,4.9567,4.6969C4.8546,3.9145,4.3845,3.5,3.5,3.5H2
	c-0.8149,0-1.2798,0.35-1.4306,1.014C0.5457,4.5106,0.5246,4.5,0.5,4.5C0.2239,4.5,0,4.7238,0,5c0,0.2761,0.2239,0.5,0.5,0.5
	c0,1.5,1,2,2.25,2S5,7,5,5.5V5.4735c0.1148-0.0472,0.3174-0.1151,0.5-0.1151S5.8852,5.4263,6,5.4735V5.5c0,1.5,1,2,2.25,2
	s2.25-0.5,2.25-2C10.7761,5.5,11,5.2761,11,5C11,4.7238,10.7761,4.5,10.5,4.5z M4.25,5.5c0,0.6492-0.1817,1.25-1.5,1.25
	s-1.5-0.6008-1.5-1.25V5c0-0.5888,0.1612-0.75,0.75-0.75h1.5c0.5888,0,0.75,0.1612,0.75,0.75V5.5z M9.75,5.5
	c0,0.6492-0.1817,1.25-1.5,1.25s-1.5-0.6008-1.5-1.25V5c0-0.5888,0.1612-0.75,0.75-0.75H9c0.5888,0,0.75,0.1612,0.75,0.75V5.5z"/>
</svg>
