<?xml version="1.0" encoding="utf-8"?>
<!-- Generator: Adobe Illustrator 22.1.0, SVG Export Plug-In . SVG Version: 6.00 Build 0)  -->
<svg version="1.1" id="start_here" xmlns="http://www.w3.org/2000/svg" xmlns:xlink="http://www.w3.org/1999/xlink" x="0px" y="0px"
	 width="11px" height="11px" viewBox="0 0 11 11" enable-background="new 0 0 11 11" xml:space="preserve">
<path d="M10.5,4c-0.0246,0-0.0457,0.0106-0.0694,0.014C10.2798,3.35,9.8149,3,9,3H7.5C6.6155,3,6.1454,3.4145,6.0433,4.1969
	C5.8868,4.1503,5.6987,4.1084,5.5,4.1084S5.1132,4.1503,4.9567,4.1969C4.8546,3.4145,4.3845,3,3.5,3H2
	C1.1851,3,0.7202,3.35,0.5694,4.014C0.5457,4.0106,0.5246,4,0.5,4C0.2239,4,0,4.2238,0,4.5C0,4.7761,0.2239,5,0.5,5
	c0,1.5,1,2,2.25,2S5,6.5,5,5V4.9735c0.1148-0.0472,0.3174-0.1151,0.5-0.1151S5.8852,4.9263,6,4.9735V5c0,1.5,1,2,2.25,2
	s2.25-0.5,2.25-2C10.7761,5,11,4.7761,11,4.5C11,4.2238,10.7761,4,10.5,4z M4.25,5c0,0.6492-0.1817,1.25-1.5,1.25
	S1.25,5.6492,1.25,5V4.5c0-0.5888,0.1612-0.75,0.75-0.75h1.5c0.5888,0,0.75,0.1612,0.75,0.75V5z M9.75,5
	c0,0.6492-0.1817,1.25-1.5,1.25S6.75,5.6492,6.75,5V4.5c0-0.5888,0.1612-0.75,0.75-0.75H9c0.5888,0,0.75,0.1612,0.75,0.75V5z"/>
</svg>
