<?xml version="1.0" encoding="utf-8"?>
<!-- Generator: Adobe Illustrator 22.1.0, SVG Export Plug-In . SVG Version: 6.00 Build 0)  -->
<svg version="1.1" id="start_here" xmlns="http://www.w3.org/2000/svg" xmlns:xlink="http://www.w3.org/1999/xlink" x="0px" y="0px"
	 width="15px" height="15px" viewBox="0 0 15 15" style="enable-background:new 0 0 15 15;" xml:space="preserve">
<path d="M13.5,2.5h-1V1.5027C12.5,1.225,12.2749,1,11.9973,1H1.5027C1.2251,1,1,1.225,1,1.5027v2.9946C1,4.7749,1.2251,5,1.5027,5
	h10.4946C12.2749,5,12.5,4.7749,12.5,4.4973V3.5H13v3.1021L6.8877,8.0127C6.6606,8.0654,6.5,8.2676,6.5,8.5v1.5074
	c-0.2783,0.02-0.5,0.246-0.5,0.5295v2.9261C6,13.7596,6.2404,14,6.5369,14h0.9261C7.7596,14,8,13.7596,8,13.4631v-2.9261
	c0-0.2834-0.2217-0.5095-0.5-0.5295v-1.11l6.1123-1.4102C13.8389,7.4351,14,7.2329,14,7V3C14,2.7236,13.7764,2.5,13.5,2.5z"/>
</svg>
