<?xml version="1.0" encoding="utf-8"?>
<!-- Generator: Adobe Illustrator 22.1.0, SVG Export Plug-In . SVG Version: 6.00 Build 0)  -->
<svg version="1.1" id="start_here" xmlns="http://www.w3.org/2000/svg" xmlns:xlink="http://www.w3.org/1999/xlink" x="0px" y="0px"
	 width="11px" height="11px" viewBox="0 0 11 11" style="enable-background:new 0 0 11 11;" xml:space="preserve">
<path d="M10,2H9V1.3631C9,1.1625,8.8374,1,8.6369,1H1.3631C1.1626,1,1,1.1625,1,1.3631v2.2737C1,3.8374,1.1626,4,1.3631,4h7.2738
	C8.8374,4,9,3.8374,9,3.6368V3h0.5v2.0176L4.8965,5.9917C4.665,6.0405,4.5,6.2446,4.5,6.481v1.0959H4.459
	C4.2055,7.5769,4,7.7824,4,8.0359v2.0051C4,10.2945,4.2055,10.5,4.459,10.5h1.082C5.7945,10.5,6,10.2945,6,10.041V8.0359
	c0-0.2535-0.2055-0.459-0.459-0.459H5.5V6.8862l4.6035-0.9741C10.335,5.8633,10.5,5.6592,10.5,5.4229V2.5
	C10.5,2.2236,10.2764,2,10,2z"/>
</svg>
