<svg id="Layer_1" data-name="Layer 1" xmlns="http://www.w3.org/2000/svg" width="11" height="11" viewBox="0 0 11 11">
  <title>park-alt1-11</title>
  <path d="M9.571,8.563,7.425,6.416a.255.255,0,0,1-.069-.174.25.25,0,0,1,.245-.25h.8a.25.25,0,0,0,.25-.25.246.246,0,0,0-.068-.165l-.008-.008L6.436,3.423l-.012-.012L6.4,3.392a.27.27,0,0,1-.051-.149A.25.25,0,0,1,6.6,2.992h.878a.25.25,0,0,0,.25-.25A.234.234,0,0,0,7.68,2.6l-.03-.036h0L5.694.224A.25.25,0,0,0,5.343.186h0A.256.256,0,0,0,5.3.23L3.346,2.578h.006a.246.246,0,0,0-.068.164.25.25,0,0,0,.25.25H4.4a.25.25,0,0,1,.25.25.262.262,0,0,1-.066.17l-.014.014L2.431,5.563a.247.247,0,0,0-.077.178.25.25,0,0,0,.25.25h.789a.25.25,0,0,1,.25.25.3.3,0,0,1-.063.17L1.43,8.563a.258.258,0,0,0-.079.179.25.25,0,0,0,.25.25H5V10H6V8.992H9.4a.248.248,0,0,0,.171-.429Z"/>
</svg>
