<svg xmlns="http://www.w3.org/2000/svg" width="11" height="11" viewBox="0 0 11 11">
  <title>park-alt1-11</title>
  <g id="Layer_9" data-name="Layer 9">
    <g>
      <path d="M7.74,6.65a.355.355,0,0,1,.02.1A.254.254,0,0,1,7.51,7a.25.25,0,0,1,0-.5.241.241,0,0,1,.17.07A.21.21,0,0,1,7.74,6.65Z"/>
      <path d="M7.76,8.75A.254.254,0,0,1,7.51,9a.25.25,0,1,1,0-.5.241.241,0,0,1,.17.07.21.21,0,0,1,.06.08A.355.355,0,0,1,7.76,8.75Z"/>
      <path d="M7.01,4.5a.241.241,0,0,1,.17.07.21.21,0,0,1,.06.08.355.355,0,0,1,.02.1A.254.254,0,0,1,7.01,5a.25.25,0,0,1,0-.5Z"/>
      <path d="M6.74,2.65a.355.355,0,0,1,.02.1A.254.254,0,0,1,6.51,3a.25.25,0,0,1,0-.5.241.241,0,0,1,.17.07A.21.21,0,0,1,6.74,2.65Z"/>
      <path d="M4.5,2.5a.287.287,0,0,0-.18.07l1-1.33a.287.287,0,0,0-.07.18.25.25,0,0,0,.5,0,.287.287,0,0,0-.07-.18l1,1.33a.241.241,0,0,0-.17-.07.25.25,0,0,0,0,.5H6L7.18,4.57a.241.241,0,0,0-.17-.07.25.25,0,0,0,0,.5H6.5L7.68,6.57a.241.241,0,0,0-.17-.07.25.25,0,0,0,0,.5H6.5L7.68,8.57a.241.241,0,0,0-.17-.07.25.25,0,1,0,0,.5H6v1H5V9H3.5a.25.25,0,0,0,0-.5.287.287,0,0,0-.18.07L4.5,7h-1a.25.25,0,0,0,0-.5.287.287,0,0,0-.18.07L4.5,5H4a.25.25,0,0,0,0-.5.287.287,0,0,0-.18.07L5,3H4.52a.251.251,0,0,0,.23-.25A.248.248,0,0,0,4.5,2.5Z"/>
      <path d="M5.5,1.67a.248.248,0,0,1-.25-.25.287.287,0,0,1,.07-.18.266.266,0,0,1,.36,0,.287.287,0,0,1,.07.18A.248.248,0,0,1,5.5,1.67Z"/>
      <path d="M4.48,3a.251.251,0,0,1-.23-.25.355.355,0,0,1,.02-.1.351.351,0,0,1,.05-.08A.287.287,0,0,1,4.5,2.5a.248.248,0,0,1,.25.25A.251.251,0,0,1,4.52,3H4.48Z"/>
      <path d="M4.25,4.75a.25.25,0,0,1-.5,0,.355.355,0,0,1,.02-.1.351.351,0,0,1,.05-.08A.287.287,0,0,1,4,4.5.248.248,0,0,1,4.25,4.75Z"/>
      <path d="M3.5,6.5a.25.25,0,1,1-.25.25.355.355,0,0,1,.02-.1.351.351,0,0,1,.05-.08A.287.287,0,0,1,3.5,6.5Z"/>
      <path d="M3.5,8.5a.25.25,0,1,1-.25.25.355.355,0,0,1,.02-.1.351.351,0,0,1,.05-.08A.287.287,0,0,1,3.5,8.5Z"/>
    </g>
  </g>
</svg>
