<svg id="Layer_1" data-name="Layer 1" xmlns="http://www.w3.org/2000/svg" width="15" height="15" viewBox="0 0 15 15">
  <title>park-15</title>
  <path d="M8.5,9v4a1,1,0,0,1-2,0V9.74A3.21,3.21,0,0,0,7.77,8.8,4,4,0,0,0,8.5,9ZM13,5.25a1.24,1.24,0,0,0-.83-1.17,1.24,1.24,0,0,0,.33-0.83A1.25,1.25,0,0,0,11.25,2a1.2,1.2,0,0,0-.29.06,1.21,1.21,0,0,0-2.25-.46A1.24,1.24,0,0,0,8.25,1.5a1.19,1.19,0,0,0-.23,0,1.74,1.74,0,0,0-2.88.53A1.22,1.22,0,0,0,4.75,2,1.25,1.25,0,0,0,3.5,3.25,1.22,1.22,0,0,0,3.78,4h0A1.25,1.25,0,0,0,2.5,5.25a1.23,1.23,0,0,0,1,1.21,1.74,1.74,0,0,0,3.38.81,2,2,0,0,0,.5-0.35,2.44,2.44,0,0,0,2.13.52A1.23,1.23,0,0,0,10.75,8.5,1.25,1.25,0,0,0,12,7.25a1.22,1.22,0,0,0-.28-0.76h0A1.25,1.25,0,0,0,13,5.25Z"/>
</svg>
