<svg id="Layer_1" data-name="Layer 1" xmlns="http://www.w3.org/2000/svg" width="15" height="15" viewBox="0 0 15 15">
  <title>park-15</title>
  <path d="M14,5.75A1.75,1.75,0,0,0,13,4.14,1.24,1.24,0,0,0,11.75,3a1.2,1.2,0,0,0-.29.06,1.2,1.2,0,0,0-2-.78s0,0,0,0a1.25,1.25,0,0,0-2.5,0S7,2.3,7,2.33a1.22,1.22,0,0,0-2,.74A1.49,1.49,0,0,0,4.51,3a1.5,1.5,0,0,0-1.4,2.07,1.49,1.49,0,0,0,0,2.87A1.49,1.49,0,0,0,6,7.71,1.22,1.22,0,0,0,6.65,8v5L5,14h5L8.4,13V11A6.8,6.8,0,0,1,11.17,9,1.49,1.49,0,0,0,13,7.52a1.48,1.48,0,0,0,0-.16A1.75,1.75,0,0,0,14,5.75ZM8.4,10.26V6.82a1.53,1.53,0,0,0,1.33.78l0.28,0a1.49,1.49,0,0,0,.57,1.12A7.25,7.25,0,0,0,8.4,10.26Z"/>
</svg>
