<svg id="Layer_1" data-name="Layer 1" xmlns="http://www.w3.org/2000/svg" width="15" height="15" viewBox="0 0 15 15">
  <title>park-alt1-15</title>
  <path d="M11.577,12.57l-.009-.009-2.14-2.14a.269.269,0,0,1-.074-.18A.25.25,0,0,1,9.6,9.992h1.447a.25.25,0,0,0,.25-.25.258.258,0,0,0-.079-.179L9.07,7.411a.3.3,0,0,1-.063-.17.25.25,0,0,1,.25-.25H10.4a.25.25,0,0,0,.25-.25.247.247,0,0,0-.077-.178L8.432,4.426l-.014-.014a.262.262,0,0,1-.066-.17.25.25,0,0,1,.25-.25h.866a.25.25,0,0,0,.25-.25.246.246,0,0,0-.068-.164h.006L7.7,1.23a.253.253,0,0,0-.042-.044A.249.249,0,0,0,7.5,1.131h0a.249.249,0,0,0-.158.055A.253.253,0,0,0,7.3,1.23L5.346,3.578h.006a.246.246,0,0,0-.068.164.25.25,0,0,0,.25.25H6.4a.25.25,0,0,1,.25.25.262.262,0,0,1-.066.17l-.014.014L4.431,6.563a.247.247,0,0,0-.077.178.25.25,0,0,0,.25.25H5.745a.25.25,0,0,1,.25.25.3.3,0,0,1-.063.17L3.782,9.563a.258.258,0,0,0-.079.179.25.25,0,0,0,.25.25H5.4a.25.25,0,0,1,.248.249.269.269,0,0,1-.074.18l-2.14,2.14-.009.009a.248.248,0,0,0,.18.422H7v1H8v-1h3.4a.248.248,0,0,0,.18-.422Z"/>
</svg>
