<svg id="Layer_1" data-name="Layer 1" xmlns="http://www.w3.org/2000/svg" width="11" height="11" viewBox="0 0 11 11">
  <title>park-11</title>
  <path d="M11,3.75A1.75,1.75,0,0,0,9.25,2a1.73,1.73,0,0,0-.8.2A1.24,1.24,0,0,0,7.21,1,1.19,1.19,0,0,0,7,1.05,1.23,1.23,0,0,0,5.75,0,1.25,1.25,0,0,0,4.62.73,1.21,1.21,0,0,0,4,.52a1.23,1.23,0,0,0-1,.55A1.49,1.49,0,0,0,2.51,1,1.51,1.51,0,0,0,1.11,3.08,1.49,1.49,0,0,0,1.08,6a1.49,1.49,0,0,0,2.55.52l0.12,0a1.24,1.24,0,0,0,.86-0.35V10L3,11H8l-1.6-1V9A8.42,8.42,0,0,1,8.78,7a1.49,1.49,0,0,0,.7-0.34l0,0h0A1.49,1.49,0,0,0,10,5.5a1.47,1.47,0,0,0,0-.17A1.75,1.75,0,0,0,11,3.75ZM6.36,8.25V6L6.54,6a1.52,1.52,0,0,0,.53-0.1,1.5,1.5,0,0,0,.89,1A8.82,8.82,0,0,0,6.36,8.25Z"/>
</svg>
