<svg id="Layer_1" data-name="Layer 1" xmlns="http://www.w3.org/2000/svg" width="11" height="11" viewBox="0 0 11 11">
  <title>park-alt1-11</title>
  <path d="M9.571,8.563,7.425,6.424a.255.255,0,0,1-.069-.174A.25.25,0,0,1,7.6,6h.8a.25.25,0,0,0,.25-.25.246.246,0,0,0-.068-.165l-.008-.008L6.4,3.4a.27.27,0,0,1-.051-.149A.25.25,0,0,1,6.6,3H7.48a.257.257,0,0,0,.25-.258A.234.234,0,0,0,7.68,2.6L5.694.224A.223.223,0,0,0,5.343.186h0C5.327.2,3.352,2.578,3.352,2.578a.246.246,0,0,0-.068.164A.257.257,0,0,0,3.534,3H4.4a.25.25,0,0,1,.25.25.262.262,0,0,1-.066.17L2.431,5.571a.247.247,0,0,0-.077.178A.251.251,0,0,0,2.6,6h.789a.249.249,0,0,1,.25.249.3.3,0,0,1-.063.17L1.43,8.563A.253.253,0,0,0,1.6,9H5v1H6V9H9.4a.255.255,0,0,0,.249-.255A.248.248,0,0,0,9.571,8.563Z"/>
</svg>
