<svg id="Layer_1" data-name="Layer 1" xmlns="http://www.w3.org/2000/svg" width="11" height="11" viewBox="0 0 11 11">
  <title>park-alt1-11</title>
  <path d="M8.521,8.561l-2.14-2.14a.269.269,0,0,1-.074-.18.25.25,0,0,1,.248-.249h1.8a.25.25,0,0,0,.25-.25.258.258,0,0,0-.079-.179L6.375,3.411a.3.3,0,0,1-.063-.17.25.25,0,0,1,.25-.25h.789a.25.25,0,0,0,.25-.25.247.247,0,0,0-.077-.178L5.678.679h0a.249.249,0,0,0-.351,0L3.476,2.563a.247.247,0,0,0-.077.178.25.25,0,0,0,.25.25h.789a.25.25,0,0,1,.25.25.3.3,0,0,1-.063.17L2.475,5.563a.258.258,0,0,0-.079.179.25.25,0,0,0,.25.25h1.8a.25.25,0,0,1,.248.249.269.269,0,0,1-.074.18l-2.14,2.14L2.47,8.57a.248.248,0,0,0,.18.422H5v1L5.5,10,6,9.992v-1H8.35a.248.248,0,0,0,.18-.422Z"/>
</svg>
