<svg id="Layer_1" data-name="Layer 1" xmlns="http://www.w3.org/2000/svg" width="11" height="11" viewBox="0 0 11 11">
  <title>park-alt1-11</title>
  <g id="Layer_10" data-name="Layer 10">
    <path d="M5.5,10H6V9H8.266a.254.254,0,0,0,.2-.407L6.5,7H8.264a.247.247,0,0,0,.2-.4L6.5,5H7.758a.248.248,0,0,0,.2-.4L6,3H7.245a.252.252,0,0,0,.2-.4L5.7,1.094A.252.252,0,0,0,5.5,1"/>
  </g>
  <g id="Layer_10-2" data-name="Layer 10">
    <path d="M5.5,1a.252.252,0,0,0-.2.1L3.555,2.6a.252.252,0,0,0,.2.4H5L3.042,4.6a.248.248,0,0,0,.2.4H4.5L2.536,6.6a.247.247,0,0,0,.2.4H4.5L2.534,8.593a.254.254,0,0,0,.2.407H5v1h.5"/>
  </g>
</svg>
