<?xml version="1.0" encoding="UTF-8"?>
<svg width="15" height="15" viewBox="0 0 15 15" xmlns="http://www.w3.org/2000/svg" id="parking_paid">
  <path d="M2 13V2H6.5C8.433 2 10 3.567 10 5.5C10 6.15267 9.82135 6.76362 9.51029 7.28661C8.74786 7.59276 8.10154 8.12692 7.65572 8.80469C7.29391 8.93122 6.90499 9 6.5 9H4V13H2ZM6.5 7C7.32843 7 8 6.32843 8 5.5C8 4.67157 7.32843 4 6.5 4H4V7H6.5Z"/>
  <path d="M11 14C12.6569 14 14 12.6569 14 11C14 9.34315 12.6569 8 11 8C9.34315 8 8 9.34315 8 11C8 12.6569 9.34315 14 11 14ZM11.5 9.12763C11.8975 9.1858 12.1633 9.32212 12.4831 9.66783L11.8199 10.2701L11.8019 10.2527C11.6924 10.1463 11.5866 10.0434 11.4352 9.99676C11.1704 9.91525 10.3742 9.92733 10.6443 10.4035C10.7908 10.53 11.0341 10.5599 11.321 10.5817C12.0823 10.6395 12.4991 10.936 12.4991 11.6882C12.4991 12.0241 12.3736 12.3039 12.1561 12.5079C11.9815 12.6716 11.7545 12.7804 11.5 12.8362V13.2H10.5V12.8589C10.0925 12.7981 9.81057 12.6424 9.50095 12.2894L10.059 11.6882C10.3391 11.975 11.0461 12.1509 11.4352 11.9297C11.6549 11.7795 11.5414 11.5029 11.2994 11.4422C11.1714 11.4102 11.035 11.3974 10.8961 11.3843C10.5684 11.3535 10.2267 11.3214 9.94804 11.0321C9.74543 10.8349 9.66105 10.6144 9.66105 10.3012C9.66105 9.98599 9.76654 9.70564 9.96883 9.49409C10.1086 9.34797 10.2889 9.24043 10.5 9.17515V8.79999H11.5V9.12763Z"/>
</svg>