<svg id="Layer_1" data-name="Layer 1" xmlns="http://www.w3.org/2000/svg" width="15" height="15" viewBox="0 0 15 15">
  <title>park-alt1-15</title>
  <path d="M11.572,12.563,9.43,10.421A.251.251,0,0,1,9.6,9.992h1.8a.248.248,0,0,0,.171-.429L9.425,7.416a.255.255,0,0,1-.069-.174.25.25,0,0,1,.245-.25h.8a.25.25,0,0,0,.25-.25.246.246,0,0,0-.068-.165l-.008-.008L8.436,4.423l-.012-.012L8.4,4.392a.27.27,0,0,1-.051-.149A.25.25,0,0,1,8.6,3.992h.872a.25.25,0,0,0,.25-.25.234.234,0,0,0-.042-.137l-.03-.036V3.563L7.694,1.224A.25.25,0,0,0,7.3,1.23L5.346,3.578h.006a.246.246,0,0,0-.068.164.25.25,0,0,0,.25.25H6.4a.25.25,0,0,1,.25.25.262.262,0,0,1-.066.17l-.014.014L4.431,6.563a.247.247,0,0,0-.077.178.25.25,0,0,0,.25.25h.789a.25.25,0,0,1,.25.25.3.3,0,0,1-.063.17L3.43,9.563a.258.258,0,0,0-.079.179.25.25,0,0,0,.25.25H5.4a.25.25,0,0,1,.248.249.269.269,0,0,1-.074.18l-2.14,2.14-.009.009a.248.248,0,0,0,.18.422H7v1H8v-1h3.4a.25.25,0,0,0,.25-.25A.246.246,0,0,0,11.572,12.563Z"/>
</svg>
