<svg id="Layer_1" data-name="Layer 1" xmlns="http://www.w3.org/2000/svg" width="15" height="15" viewBox="0 0 15 15">
  <title>park-15</title>
  <path d="M11.07,8.5A3.07,3.07,0,0,0,11.74,7a1.49,1.49,0,0,0,.15-2.92,1.5,1.5,0,0,0-2.23-1.8,2.48,2.48,0,0,0-4.32,0,1.5,1.5,0,0,0-2.23,1.8A1.49,1.49,0,0,0,3.22,7a4.26,4.26,0,0,0,1,2.52A3.77,3.77,0,0,0,6.5,10.62v3.21H3V14h9V13.83H8.5V9.68A3.84,3.84,0,0,0,11.07,8.5ZM11.23,7a2.55,2.55,0,0,1-.55,1.18,3.33,3.33,0,0,1-2.18,1V7h2.73ZM4.59,9.16A3.73,3.73,0,0,1,3.73,7H6.5v3.12A3.26,3.26,0,0,1,4.59,9.16Z"/>
</svg>
