<svg id="Layer_1" data-name="Layer 1" xmlns="http://www.w3.org/2000/svg" width="15" height="15" viewBox="0 0 15 15">
  <title>park-15</title>
  <path d="M13,5.5a1.5,1.5,0,0,0-1.11-1.44,1.5,1.5,0,0,0-2.23-1.8,2.48,2.48,0,0,0-4.32,0,1.5,1.5,0,0,0-2.23,1.8A1.49,1.49,0,0,0,3.38,7a3.66,3.66,0,0,0,.81,2A3.89,3.89,0,0,0,7,10.26V13.5a0.5,0.5,0,0,0,.5.5h0A0.5,0.5,0,0,0,8,13.5V10.26A4,4,0,0,0,10.86,9,3.81,3.81,0,0,0,11.74,7,1.5,1.5,0,0,0,13,5.5ZM4.57,8.72A3.16,3.16,0,0,1,3.88,7H7V9.76A3.4,3.4,0,0,1,4.57,8.72Zm5.92,0A3.55,3.55,0,0,1,8,9.76V7h3.23A3.29,3.29,0,0,1,10.49,8.71Z"/>
</svg>
