<svg id="Layer_1" data-name="Layer 1" xmlns="http://www.w3.org/2000/svg" width="11" height="11" viewBox="0 0 11 11">
  <title>park-11</title>
  <path d="M6,6.62V9.73a0.76,0.76,0,1,1-1.51,0V7.22a2.43,2.43,0,0,0,1-.72A3,3,0,0,0,6,6.62ZM9.48,3.77a1,1,0,0,0-.64-0.9,1,1,0,0,0-.7-1.6,0.91,0.91,0,0,0-.22,0A0.93,0.93,0,0,0,6.2,1,0.94,0.94,0,0,0,5.85.88a0.9,0.9,0,0,0-.18,0,1.33,1.33,0,0,0-2.2.41,0.93,0.93,0,0,0-.29-0.06,1,1,0,0,0-1,1,1,1,0,0,0,.21.58h0a1,1,0,0,0-1,1,1,1,0,0,0,.79.93A1.33,1.33,0,0,0,3.56,6.27a1.33,1.33,0,0,0,1.27-.95A1.53,1.53,0,0,0,5.21,5a1.85,1.85,0,0,0,1.62.4,1,1,0,0,0,.93.82,1,1,0,0,0,1-1A1,1,0,0,0,8.5,4.73h0A1,1,0,0,0,9.48,3.77Z"/>
</svg>
