<svg xmlns="http://www.w3.org/2000/svg" width="15" height="15" viewBox="0 0 15 15">
  <title>park-alt1-15</title>
  <g id="Layer_9" data-name="Layer 9">
    <g>
      <path d="M9,10h.6a.254.254,0,0,0-.25.25.25.25,0,0,0,.08.18Z"/>
      <path d="M6,10l-.43.43a.287.287,0,0,0,.07-.18A.248.248,0,0,0,5.39,10Z"/>
      <path d="M6,7l-.43.43a.287.287,0,0,0,.07-.18A.248.248,0,0,0,5.39,7Z"/>
      <path d="M9.35,7.25a.25.25,0,0,0,.08.18L9,7h.6A.254.254,0,0,0,9.35,7.25Z"/>
      <path d="M8.4,4.4,8,4h.6a.25.25,0,0,0-.2.4Z"/>
      <path d="M6.65,4.25A.248.248,0,0,0,6.4,4H7l-.4.4A.246.246,0,0,0,6.65,4.25Z"/>
      <path d="M11.15,9.75a.25.25,0,0,1,.4-.2.121.121,0,0,1,.05.05.25.25,0,1,1-.45.15Z"/>
      <path d="M11.15,12.75a.25.25,0,0,1,.4-.2.121.121,0,0,1,.05.05.25.25,0,1,1-.45.15Z"/>
      <path d="M10.6,6.6a.25.25,0,1,1-.05-.05A.121.121,0,0,1,10.6,6.6Z"/>
      <path d="M9.72,3.75a.25.25,0,1,1-.25-.25.227.227,0,0,1,.16.06.218.218,0,0,1,.07.09A.355.355,0,0,1,9.72,3.75Z"/>
      <path d="M7.75,1.38a.25.25,0,0,1-.5,0,.3.3,0,0,1,.02-.1c0-.01.01-.01.01-.02a.27.27,0,0,1,.07-.08.25.25,0,0,1,.3,0l.07.08c0,.01.01.01.01.02A.3.3,0,0,1,7.75,1.38Z"/>
      <path d="M5.54,3.5a.25.25,0,0,1,0,.5.248.248,0,0,1-.25-.25.24.24,0,0,1,.25-.25Z"/>
      <path d="M4.43,6.57A.261.261,0,0,1,4.6,6.5a.25.25,0,0,1,0,.5.254.254,0,0,1-.25-.25A.25.25,0,0,1,4.43,6.57Z"/>
      <path d="M3.6,9.5a.25.25,0,1,1-.2.1.121.121,0,0,1,.05-.05A.246.246,0,0,1,3.6,9.5Z"/>
      <path d="M3.6,12.5a.25.25,0,1,1-.2.1.121.121,0,0,1,.05-.05A.246.246,0,0,1,3.6,12.5Z"/>
      <path d="M3.45,12.55l2.12-2.12L6,10H3.6a.25.25,0,1,0-.15-.45L5.57,7.43,6,7H4.6a.25.25,0,0,0,0-.5.261.261,0,0,0-.17.07L6.55,4.45A.121.121,0,0,0,6.6,4.4L7,4H5.54a.25.25,0,0,0,0-.5.287.287,0,0,0-.18.07L7.27,1.28a.3.3,0,0,0-.02.1.25.25,0,0,0,.5,0,.3.3,0,0,0-.02-.1l1.9,2.28a.227.227,0,0,0-.16-.06.25.25,0,0,0,0,.5H8l.4.4a.121.121,0,0,0,.05.05l2.1,2.1A.25.25,0,1,0,10.4,7H9l.43.43,2.12,2.12a.25.25,0,1,0-.15.45H9l.43.43,2.12,2.12a.25.25,0,1,0-.15.45H8v1H7V13H3.6a.25.25,0,1,0-.15-.45Z"/>
    </g>
  </g>
</svg>
