<?xml version="1.0" encoding="utf-8"?>
<!-- Generator: Adobe Illustrator 19.2.1, SVG Export Plug-In . SVG Version: 6.00 Build 0)  -->
<!DOCTYPE svg PUBLIC "-//W3C//DTD SVG 1.1//EN" "http://www.w3.org/Graphics/SVG/1.1/DTD/svg11.dtd">
<svg version="1.1" id="Layer_1" xmlns="http://www.w3.org/2000/svg" xmlns:xlink="http://www.w3.org/1999/xlink" x="0px" y="0px"
	 width="15px" height="15px" viewBox="0 0 15 15" style="enable-background:new 0 0 15 15;" xml:space="preserve">
<path d="M11.85,8.37c-0.9532,0.7086-2.1239,1.0623-3.31,1H5.79V14H3V1h5.72c1.1305-0.0605,2.244,0.2952,3.13,1
	c0.8321,0.8147,1.2543,1.9601,1.15,3.12C13.1271,6.3214,12.7045,7.5159,11.85,8.37z M9.75,3.7C9.3254,3.3892,8.8052,3.237,8.28,3.27
	H5.79v3.82h2.49c0.5315,0.0326,1.056-0.1351,1.47-0.47c0.3795-0.3947,0.5693-0.9346,0.52-1.48C10.324,4.606,10.1327,4.0763,9.75,3.7
	z"/>
</svg>
