<svg id="Layer_1" data-name="Layer 1" xmlns="http://www.w3.org/2000/svg" width="11" height="11" viewBox="0 0 11 11">
  <title>park-11</title>
  <path d="M9,3a1,1,0,0,0-1.68-.72,2,2,0,0,0-3.71,0A1,1,0,0,0,3,2,1,1,0,0,0,2,3,1,1,0,0,0,2,5H2.24a3,3,0,0,0,.71,1.77A3,3,0,0,0,5,7.7v2.8a0.5,0.5,0,0,0,.5.5h0A0.5,0.5,0,0,0,6,10.5V7.7a3,3,0,0,0,2.1-.94A2.91,2.91,0,0,0,8.76,5H9A1,1,0,0,0,9,3ZM3.32,6.45A2.49,2.49,0,0,1,2.74,5H5V7.2A2.54,2.54,0,0,1,3.32,6.45Zm4.4,0A2.53,2.53,0,0,1,6,7.2V5H8.26A2.41,2.41,0,0,1,7.72,6.43Z"/>
</svg>
