<svg id="Layer_1" data-name="Layer 1" xmlns="http://www.w3.org/2000/svg" width="15" height="15" viewBox="0 0 15 15">
  <title>park-15</title>
  <path d="M13,5.5a1.5,1.5,0,0,0-1.11-1.44,1.5,1.5,0,0,0-2.23-1.8,2.48,2.48,0,0,0-4.32,0,1.5,1.5,0,0,0-2.23,1.8A1.49,1.49,0,0,0,3.22,7a4.26,4.26,0,0,0,1,2.52A4,4,0,0,0,7,10.7V13.5a0.5,0.5,0,0,0,.5.5h0A0.5,0.5,0,0,0,8,13.5V9.74A4.12,4.12,0,0,0,11.07,8.5,3.07,3.07,0,0,0,11.74,7,1.5,1.5,0,0,0,13,5.5ZM4.59,9.16A3.73,3.73,0,0,1,3.73,7H7v3.2A3.5,3.5,0,0,1,4.59,9.16Zm6.09-1A3.64,3.64,0,0,1,8,9.24V7h3.23A2.55,2.55,0,0,1,10.68,8.18Z"/>
</svg>
