<svg id="Layer_1" data-name="Layer 1" xmlns="http://www.w3.org/2000/svg" width="11" height="11" viewBox="0 0 11 11">
  <title>park-11</title>
  <path d="M6,10.82V8.7a3,3,0,0,0,2.1-.94A2.93,2.93,0,0,0,8.76,6a1.49,1.49,0,0,0,.13-2.92A1.5,1.5,0,0,0,7.2,1,2,2,0,0,0,3.72,1L3.5,1A1.5,1.5,0,0,0,2.11,3.06a1.49,1.49,0,0,0,0,2.89,2.92,2.92,0,0,0,.64.9A3.66,3.66,0,0,0,5,7.73v3.09H1V11h9V10.82H6ZM7.72,7.44A2.53,2.53,0,0,1,6,8.21V6H8.26A2.41,2.41,0,0,1,7.72,7.44Zm-4.61-1A2.38,2.38,0,0,1,2.72,6H5V7.23A3.16,3.16,0,0,1,3.11,6.48Z"/>
</svg>
