<?xml version="1.0" encoding="utf-8"?>
<!-- Generator: Adobe Illustrator 19.2.1, SVG Export Plug-In . SVG Version: 6.00 Build 0)  -->
<!DOCTYPE svg PUBLIC "-//W3C//DTD SVG 1.1//EN" "http://www.w3.org/Graphics/SVG/1.1/DTD/svg11.dtd">
<svg version="1.1" id="Layer_1" xmlns="http://www.w3.org/2000/svg" xmlns:xlink="http://www.w3.org/1999/xlink" x="0px" y="0px"
	 width="11px" height="11px" viewBox="0 0 11 11" style="enable-background:new 0 0 11 11;" xml:space="preserve">
<path d="M6,4l2-2C7.9899,1.9304,7.9899,1.8596,8,1.79c0-0.4142,0.3358-0.75,0.75-0.75S9.5,1.3758,9.5,1.79S9.1642,2.54,8.75,2.54
	H8.64L7.5,4H6z M9.48,5.83L8.65,7.5l0.83,1.67V10h-8V9.17L2.32,7.5L1.48,5.83V5h8V5.83z M7.5,7H6V5.5H5V7H3.5v1H5v1.5h1V8h1.5V7z"/>
</svg>
