<?xml version="1.0" encoding="UTF-8" standalone="no"?>
<!-- Generator: Adobe Illustrator 17.1.0, SVG Export Plug-In . SVG Version: 6.00 Build 0)  -->

<svg
   xmlns:dc="http://purl.org/dc/elements/1.1/"
   xmlns:cc="http://creativecommons.org/ns#"
   xmlns:rdf="http://www.w3.org/1999/02/22-rdf-syntax-ns#"
   xmlns:svg="http://www.w3.org/2000/svg"
   xmlns="http://www.w3.org/2000/svg"
   xmlns:sodipodi="http://sodipodi.sourceforge.net/DTD/sodipodi-0.dtd"
   xmlns:inkscape="http://www.inkscape.org/namespaces/inkscape"
   version="1.1"
   id="svg4764"
   x="0px"
   y="0px"
   height="11"
   width="11"
   viewBox="0 0 11 11"
   enable-background="new 0 0 11 11"
   xml:space="preserve"
   inkscape:version="0.91 r13725"
   sodipodi:docname="picnic-site-11.svg"><metadata
     id="metadata4147"><rdf:RDF><cc:Work
         rdf:about=""><dc:format>image/svg+xml</dc:format><dc:type
           rdf:resource="http://purl.org/dc/dcmitype/StillImage" /><dc:title></dc:title></cc:Work></rdf:RDF></metadata><defs
     id="defs4145" /><sodipodi:namedview
     pagecolor="#ffffff"
     bordercolor="#666666"
     borderopacity="1"
     objecttolerance="10"
     gridtolerance="10"
     guidetolerance="10"
     inkscape:pageopacity="0"
     inkscape:pageshadow="2"
     inkscape:window-width="1282"
     inkscape:window-height="705"
     id="namedview4143"
     showgrid="true"
     inkscape:zoom="22.627417"
     inkscape:cx="7.2566396"
     inkscape:cy="3.0972726"
     inkscape:current-layer="svg4764"
     inkscape:snap-nodes="true"
     inkscape:object-paths="true"
     inkscape:snap-intersection-paths="true"
     inkscape:object-nodes="true"
     inkscape:snap-bbox="true"
     inkscape:bbox-paths="true"
     inkscape:bbox-nodes="true"
     inkscape:snap-smooth-nodes="true"
     inkscape:window-x="459"
     inkscape:window-y="156"
     inkscape:window-maximized="0"
     showguides="false"><inkscape:grid
       type="xygrid"
       id="grid4700"
       spacingx="0.5"
       spacingy="0.5"
       color="#ff3f3f"
       opacity="0.05490196"
       empspacing="2" /></sodipodi:namedview><path
     style="color:#000000;clip-rule:nonzero;display:inline;overflow:visible;visibility:visible;opacity:1;isolation:auto;mix-blend-mode:normal;color-interpolation:sRGB;color-interpolation-filters:linearRGB;solid-color:#000000;solid-opacity:1;fill:#000000;fill-opacity:1;fill-rule:nonzero;stroke:none;stroke-width:2;stroke-linecap:round;stroke-linejoin:round;stroke-miterlimit:4;stroke-dasharray:none;stroke-dashoffset:0;stroke-opacity:1;marker:none;color-rendering:auto;image-rendering:auto;shape-rendering:auto;text-rendering:auto;enable-background:accumulate"
     d="M 2.75 2 C 2.3345 2 2 2.3345 2 2.75 C 2 3.1655 2.3345 3.5 2.75 3.5 L 4 3.5 L 3.5390625 5 L 1.75 5 C 1.3345 5 1 5.3345 1 5.75 C 1 6.1655 1.3345 6.5 1.75 6.5 L 3.0761719 6.5 L 2 10 L 3 10 L 4.0761719 6.5 L 6.9238281 6.5 L 8 10 L 9 10 L 7.9238281 6.5 L 9.25 6.5 C 9.6655 6.5 10 6.1655 10 5.75 C 10 5.3345 9.6655 5 9.25 5 L 7.4609375 5 L 7 3.5 L 8.25 3.5 C 8.6655 3.5 9 3.1655 9 2.75 C 9 2.3345 8.6655 2 8.25 2 L 2.75 2 z M 5 3.5 L 6 3.5 L 6.4609375 5 L 4.5390625 5 L 5 3.5 z "
     id="rect4760" /></svg>