<?xml version="1.0" encoding="UTF-8" standalone="no"?>
<!-- Generator: Adobe Illustrator 18.1.0, SVG Export Plug-In . SVG Version: 6.00 Build 0)  -->

<svg
   xmlns:dc="http://purl.org/dc/elements/1.1/"
   xmlns:cc="http://creativecommons.org/ns#"
   xmlns:rdf="http://www.w3.org/1999/02/22-rdf-syntax-ns#"
   xmlns:svg="http://www.w3.org/2000/svg"
   xmlns="http://www.w3.org/2000/svg"
   xmlns:sodipodi="http://sodipodi.sourceforge.net/DTD/sodipodi-0.dtd"
   xmlns:inkscape="http://www.inkscape.org/namespaces/inkscape"
   version="1.1"
   id="svg4619"
   sodipodi:docname="picnic-site-15.svg"
   inkscape:version="0.91 r13725"
   x="0px"
   y="0px"
   width="15px"
   height="15px"
   viewBox="-292 193 15 15"
   enable-background="new -292 193 15 15"
   xml:space="preserve"><defs
     id="defs4138" /><sodipodi:namedview
     pagecolor="#ffffff"
     bordercolor="#666666"
     borderopacity="1"
     objecttolerance="10"
     gridtolerance="10"
     guidetolerance="10"
     inkscape:pageopacity="0"
     inkscape:pageshadow="2"
     inkscape:window-width="1544"
     inkscape:window-height="894"
     id="namedview4136"
     showgrid="true"
     inkscape:zoom="22.627417"
     inkscape:cx="9.9900247"
     inkscape:cy="4.9367408"
     inkscape:window-x="94"
     inkscape:window-y="118"
     inkscape:window-maximized="0"
     inkscape:current-layer="svg4619"
     inkscape:snap-bbox="true"
     inkscape:bbox-paths="true"
     inkscape:object-paths="true"
     inkscape:object-nodes="true"
     inkscape:snap-smooth-nodes="true"
     inkscape:snap-intersection-paths="true"
     showborder="true"
     showguides="true"
     inkscape:guide-bbox="true"
     inkscape:snap-nodes="false"
     inkscape:bbox-nodes="true"><inkscape:grid
       type="xygrid"
       id="grid4714"
       spacingx="0.5"
       spacingy="0.5"
       color="#ff0000"
       opacity="0.1254902"
       empspacing="2" /></sodipodi:namedview><path
     style="color:#000000;clip-rule:nonzero;display:inline;overflow:visible;visibility:visible;opacity:1;isolation:auto;mix-blend-mode:normal;color-interpolation:sRGB;color-interpolation-filters:linearRGB;solid-color:#000000;solid-opacity:1;fill:#000000;fill-opacity:1;fill-rule:nonzero;stroke:none;stroke-width:2;stroke-linecap:round;stroke-linejoin:round;stroke-miterlimit:4;stroke-dasharray:none;stroke-dashoffset:0;stroke-opacity:1;marker:none;color-rendering:auto;image-rendering:auto;shape-rendering:auto;text-rendering:auto;enable-background:accumulate"
     d="m -288.5,196 c -0.554,0 -1,0.446 -1,1 0,0.554 0.446,1 1,1 l 1.29687,0 -0.64453,2 -2.15234,0 c -0.554,0 -1,0.446 -1,1 0,0.554 0.446,1 1,1 l 1.50976,0 -0.96875,3.00977 a 0.75015118,0.75015118 0 1 0 1.42774,0.46094 l 1.11719,-3.47071 3.82812,0 1.11719,3.47071 a 0.75014787,0.75014787 0 0 0 1.42773,-0.46094 L -281.50977,202 -280,202 c 0.554,0 1,-0.446 1,-1 0,-0.554 -0.446,-1 -1,-1 l -2.15234,0 -0.64454,-2 1.29688,0 c 0.554,0 1,-0.446 1,-1 0,-0.554 -0.446,-1 -1,-1 l -7,0 z m 2.87305,2 1.2539,0 0.64453,2 -2.54297,0 0.64454,-2 z"
     id="rect4760"
     inkscape:connector-curvature="0" /><metadata
     id="metadata4873"><rdf:RDF><cc:Work
         rdf:about=""><dc:title></dc:title></cc:Work></rdf:RDF></metadata></svg>