<?xml version="1.0" encoding="utf-8"?>
<!-- Generator: Adobe Illustrator 19.2.1, SVG Export Plug-In . SVG Version: 6.00 Build 0)  -->
<!DOCTYPE svg PUBLIC "-//W3C//DTD SVG 1.1//EN" "http://www.w3.org/Graphics/SVG/1.1/DTD/svg11.dtd">
<svg version="1.1"
	 id="svg4764" inkscape:version="0.91 r13725" sodipodi:docname="picnic-site-11.svg" xmlns:cc="http://creativecommons.org/ns#" xmlns:dc="http://purl.org/dc/elements/1.1/" xmlns:inkscape="http://www.inkscape.org/namespaces/inkscape" xmlns:rdf="http://www.w3.org/1999/02/22-rdf-syntax-ns#" xmlns:sodipodi="http://sodipodi.sourceforge.net/DTD/sodipodi-0.dtd" xmlns:svg="http://www.w3.org/2000/svg"
	 xmlns="http://www.w3.org/2000/svg" xmlns:xlink="http://www.w3.org/1999/xlink" x="0px" y="0px" width="11px" height="11px"
	 viewBox="0 0 11 11" style="enable-background:new 0 0 11 11;" xml:space="preserve">
<path id="rect4760" d="M2.75,2C2.3345,2,2,2.3345,2,2.75S2.3345,3.5,2.75,3.5H4L3.5391,5H1.75C1.3345,5,1,5.3345,1,5.75
	S1.3345,6.5,1.75,6.5h1.3262L2,10h1l1.0762-3.5h2.8477L8,10h1L7.9238,6.5H9.25C9.6655,6.5,10,6.1655,10,5.75S9.6655,5,9.25,5H7.4609
	L7,3.5h1.25C8.6655,3.5,9,3.1655,9,2.75S8.6655,2,8.25,2H2.75z M5,3.5h1L6.4609,5H4.5391L5,3.5z"/>
</svg>
