<?xml version="1.0" encoding="utf-8"?>
<!-- Generator: Adobe Illustrator 19.2.1, SVG Export Plug-In . SVG Version: 6.00 Build 0)  -->
<!DOCTYPE svg PUBLIC "-//W3C//DTD SVG 1.1//EN" "http://www.w3.org/Graphics/SVG/1.1/DTD/svg11.dtd">
<svg version="1.1" id="Layer_1" xmlns="http://www.w3.org/2000/svg" xmlns:xlink="http://www.w3.org/1999/xlink" x="0px" y="0px"
	 width="11px" height="11px" viewBox="0 0 11 11" style="enable-background:new 0 0 11 11;" xml:space="preserve">
<path d="M4,2C3.4477,2,3,1.5523,3,1s0.4477-1,1-1s1,0.4477,1,1S4.5523,2,4,2z M10.5,8H9L8,5L7,3.25L8,3l2.3,1l0,0
	c0.2761,0.0994,0.5806-0.0439,0.68-0.32c0.0994-0.2761-0.0439-0.5806-0.32-0.68l0,0L8,2H6L4,3L3,4H1.47
	c-0.2761,0-0.5,0.2239-0.5,0.5S1.1939,5,1.47,5H4l1-1l1,2L4,7v3.5C4,10.7761,4.2239,11,4.5,11S5,10.7761,5,10.5V7.39L7,7l1,2h2.5
	C10.7761,9,11,8.7761,11,8.5S10.7761,8,10.5,8z"/>
</svg>
