<svg id="Layer_1" data-name="Layer 1" xmlns="http://www.w3.org/2000/svg" width="15" height="15" viewBox="0 0 15 15">
  <title>pitch-15</title>
  <path d="M8.5,1.75A1.25,1.25,0,1,1,9.75,3,1.25,1.25,0,0,1,8.5,1.75ZM13.5,6H11L10.61,4.38A0.5,0.5,0,0,0,10.12,4H4.86L3.21,5.09h0A0.49,0.49,0,0,0,3,5.5a0.5,0.5,0,0,0,.5.5,0.49,0.49,0,0,0,.29-0.1h0L5,5H8L5,10H1.5a0.5,0.5,0,0,0,0,1h4a0.5,0.5,0,0,0,.36-0.16h0l0,0A0.49,0.49,0,0,0,6,10.68L7,9.06l3.86,1.85L10,13.32h0a0.5,0.5,0,1,0,.93.37h0l1-2.93h0A0.49,0.49,0,0,0,12,10.5,0.5,0.5,0,0,0,11.69,10L8.5,8.5,10,6l0.08,0.24v0L10.33,7,13.5,7A0.5,0.5,0,0,0,13.5,6Z"/>
</svg>
