<svg id="Layer_1" data-name="Layer 1" xmlns="http://www.w3.org/2000/svg" width="11" height="11" viewBox="0 0 11 11">
  <title>pitch-11</title>
  <path d="M10.26,6a0.5,0.5,0,0,1-.5.5l-2.26,0L6.91,5,6.14,6.58,7.35,7.64h0A0.5,0.5,0,0,1,7.5,8a0.49,0.49,0,0,1-.07.24h0l-1,1.93h0a0.5,0.5,0,1,1-.93-0.37h0v0L6.32,8.41,4.46,7.06,3.4,8.8h0A0.49,0.49,0,0,1,3,9H1A0.5,0.5,0,0,1,1,8H2.74L5,4.5H3l-1.21.9h0a0.49,0.49,0,0,1-.29.1A0.5,0.5,0,0,1,1,5a0.49,0.49,0,0,1,.22-0.4h0L2.86,3.5H7.12a0.5,0.5,0,0,1,.48.38L8.3,5.5H9.76A0.5,0.5,0,0,1,10.26,6ZM6.5,2.5a1,1,0,1,0-1-1A1,1,0,0,0,6.5,2.5Z"/>
</svg>
