<svg id="Layer_1" data-name="Layer 1" xmlns="http://www.w3.org/2000/svg" width="15" height="15" viewBox="0 0 15 15">
  <title>playground-15</title>
  <path d="M2,1.15A1.5,1.5,0,1,1,3.16,3,1.5,1.5,0,0,1,2,1.15ZM13,12.32a1,1,0,0,1-.8,1.17A1,1,0,0,1,11.13,13h0L9.45,9.63,8,9.92,7.78,10H7.72v2.15L8.34,12l0.14,0a0.52,0.52,0,0,1,.19,1l-5,1h0a0.51,0.51,0,0,1-.17,0,0.52,0.52,0,0,1-.2-1h0l4.15-.83V10l-3.22.58v0a1,1,0,0,1-.5,0,1,1,0,0,1-.71-0.68H3L2,5.83H2A1,1,0,0,1,2,5.4,1,1,0,0,1,2.8,4.65h0L7.5,4.13V0H7.72v4.1H7.78L8,4.08,8.4,4H8.61a0.5,0.5,0,0,1,.37.6A0.49,0.49,0,0,1,8.49,5L8,5.08l-0.22,0H7.72V7.94H7.78L8,7.88l1.81-.36h0l0,0a1,1,0,0,1,1,.6h0l2,3.94h0A1,1,0,0,1,13,12.32ZM7.5,5.13L5,5.4,5.74,8.34,7.5,8V5.13Z"/>
</svg>
