<svg id="Layer_1" data-name="Layer 1" xmlns="http://www.w3.org/2000/svg" width="11" height="11" viewBox="0 0 11 11">
  <title>playground-11</title>
  <path d="M1,0.79A1,1,0,1,1,1.76,2,1,1,0,0,1,1,.79Zm9,7.62a0.5,0.5,0,0,1-.91.36h0l0,0A0.49,0.49,0,0,1,9,8.59H9L8.08,6.09,6.5,6.64v2.6L7.27,9,7.41,9a0.52,0.52,0,0,1,.3,1l-4,1a0.94,0.94,0,0,1-.17,0,0.52,0.52,0,0,1-.31-1h0l3-.74V6.7L3,7.76H3a1,1,0,0,1-.46,0,1,1,0,0,1-.71-0.68h0L1,3.8H1a1,1,0,0,1,0-.43,1,1,0,0,1,.77-0.75h0l4.46-.55V0H6.5V2H6.62a0.5,0.5,0,0,1,.37.6A0.49,0.49,0,0,1,6.5,3h0V5.61L8.19,5a0.49,0.49,0,0,1,.52.28h0L10,8.3h0A0.48,0.48,0,0,1,10,8.41ZM6.28,5.68V3.06L3.5,3.39,4.23,6.3Z"/>
</svg>
