<svg id="Layer_1" data-name="Layer 1" xmlns="http://www.w3.org/2000/svg" width="15" height="15" viewBox="0 0 15 15">
  <title>playground-15</title>
  <g>
    <circle cx="4" cy="2.5" r="1.5" transform="translate(0.64 5.81) rotate(-76.62)"/>
    <path d="M12.87,12h0l-2-3.94h0a1,1,0,0,0-1-.6l0,0h0L8,7.88V5.08L8.47,5h0A0.49,0.49,0,0,0,9,4.65,0.5,0.5,0,0,0,8.59,4H8.38L8,4.08V1H7.78V4.1l-4,.41h0A1,1,0,0,0,3,5.27,1,1,0,0,0,3,5.7H3L4,9.79h0a1,1,0,0,0,.71.68,1,1,0,0,0,.5,0v0l2.5-.5v1.95l-2.11.6v0a0.24,0.24,0,0,0-.18.22,0.25,0.25,0,0,0,.25.25l0.06,0v0l3.51-1v0a0.24,0.24,0,0,0,.18-0.22,0.25,0.25,0,0,0-.25-0.25,0.23,0.23,0,0,0-.09,0v0L8,11.85V9.92l1.45-.29L11.11,13h0a1,1,0,0,0,1.06.53,1,1,0,0,0,.8-1.17A1,1,0,0,0,12.87,12ZM5.74,8.34L5,5.4l2.78-.3V7.93Z"/>
  </g>
</svg>
