<?xml version="1.0" encoding="UTF-8" standalone="no"?>
<!-- Generator: Adobe Illustrator 17.1.0, SVG Export Plug-In . SVG Version: 6.00 Build 0)  -->

<svg
   xmlns:dc="http://purl.org/dc/elements/1.1/"
   xmlns:cc="http://creativecommons.org/ns#"
   xmlns:rdf="http://www.w3.org/1999/02/22-rdf-syntax-ns#"
   xmlns:svg="http://www.w3.org/2000/svg"
   xmlns="http://www.w3.org/2000/svg"
   xmlns:sodipodi="http://sodipodi.sourceforge.net/DTD/sodipodi-0.dtd"
   xmlns:inkscape="http://www.inkscape.org/namespaces/inkscape"
   version="1.1"
   id="svg4764"
   x="0px"
   y="0px"
   height="11"
   width="11"
   viewBox="0 0 11 11"
   enable-background="new 0 0 11 11"
   xml:space="preserve"
   inkscape:version="0.91 r13725"
   sodipodi:docname="playground-11.svg"><metadata
     id="metadata4147"><rdf:RDF><cc:Work
         rdf:about=""><dc:format>image/svg+xml</dc:format><dc:type
           rdf:resource="http://purl.org/dc/dcmitype/StillImage" /><dc:title></dc:title></cc:Work></rdf:RDF></metadata><defs
     id="defs4145" /><sodipodi:namedview
     pagecolor="#ffffff"
     bordercolor="#666666"
     borderopacity="1"
     objecttolerance="10"
     gridtolerance="10"
     guidetolerance="10"
     inkscape:pageopacity="0"
     inkscape:pageshadow="2"
     inkscape:window-width="1282"
     inkscape:window-height="705"
     id="namedview4143"
     showgrid="true"
     inkscape:zoom="32"
     inkscape:cx="6.5054996"
     inkscape:cy="5.1987976"
     inkscape:current-layer="svg4764"
     inkscape:snap-nodes="true"
     inkscape:object-paths="true"
     inkscape:snap-intersection-paths="true"
     inkscape:object-nodes="true"
     inkscape:snap-bbox="true"
     inkscape:bbox-paths="true"
     inkscape:bbox-nodes="true"
     inkscape:snap-smooth-nodes="true"
     inkscape:window-x="459"
     inkscape:window-y="156"
     inkscape:window-maximized="0"><inkscape:grid
       type="xygrid"
       id="grid4700"
       spacingx="0.5"
       spacingy="0.5"
       color="#ff3f3f"
       opacity="0.05490196"
       empspacing="2" /></sodipodi:namedview><path
     style="color:#000000;font-style:normal;font-variant:normal;font-weight:normal;font-stretch:normal;font-size:medium;line-height:normal;font-family:sans-serif;text-indent:0;text-align:start;text-decoration:none;text-decoration-line:none;text-decoration-style:solid;text-decoration-color:#000000;letter-spacing:normal;word-spacing:normal;text-transform:none;direction:ltr;block-progression:tb;writing-mode:lr-tb;baseline-shift:baseline;text-anchor:start;white-space:normal;clip-rule:nonzero;display:inline;overflow:visible;visibility:visible;opacity:1;isolation:auto;mix-blend-mode:normal;color-interpolation:sRGB;color-interpolation-filters:linearRGB;solid-color:#000000;solid-opacity:1;fill:#000000;fill-opacity:1;fill-rule:nonzero;stroke:none;stroke-width:1.50000012;stroke-linecap:round;stroke-linejoin:round;stroke-miterlimit:4;stroke-dasharray:none;stroke-dashoffset:0;stroke-opacity:1;marker:none;color-rendering:auto;image-rendering:auto;shape-rendering:auto;text-rendering:auto;enable-background:accumulate"
     d="M 3 1 L 1 2.5 L 1 9.5 C 1 9.5 1 10 1.5 10 C 2 10 2 9.5 2 9.5 L 2 9 L 4 9 L 4 9.5 C 4 9.5 4 10 4.5 10 C 5 10 5 9.5 5 9.5 L 5 6.5 C 5.487815 6.5 5.7239705 6.6254583 5.9765625 6.8535156 C 6.2291555 7.0815729 6.468051 7.453089 6.734375 7.890625 C 7.000699 8.328161 7.2932591 8.8315189 7.7675781 9.2597656 C 8.2418981 9.6880123 8.928112 10 9.75 10 L 10 10 L 10 8.5 L 9.75 8.5 C 9.262185 8.5 9.0260305 8.3745417 8.7734375 8.1464844 C 8.5208455 7.9184271 8.281949 7.546911 8.015625 7.109375 C 7.749301 6.671839 7.4567409 6.1684811 6.9824219 5.7402344 C 6.5081019 5.3119877 5.821888 5 5 5 L 5 2.5 L 3 1 z M 2 6 L 4 6 L 4 7 L 2 7 L 2 6 z M 2 7.5 L 4 7.5 L 4 8.5 L 2 8.5 L 2 7.5 z "
     id="path5096" /></svg>