<svg id="Layer_1" data-name="Layer 1" xmlns="http://www.w3.org/2000/svg" width="11" height="11" viewBox="0 0 11 11">
  <title>playground-11</title>
  <path d="M1,0.79A1,1,0,1,1,1.76,2,1,1,0,0,1,1,.79Zm9.85,7.37h0l-2-2h0A0.49,0.49,0,0,0,8.5,6L8.37,6h0L6.5,6.55V4h0A0.49,0.49,0,0,0,7,3.59,0.5,0.5,0,0,0,6.62,3H6.5v-3H6.28V3l-4.46.55h0A1,1,0,0,0,1,4.3a1,1,0,0,0,0,.43H1L1.81,7.86h0a1,1,0,0,0,.71.68,1,1,0,0,0,.46,0H3l3.29-.89V9.27l-3,.74h0a0.52,0.52,0,0,0,.31,1,0.94,0.94,0,0,0,.17,0l4-1a0.52,0.52,0,0,0-.3-1L7.27,9,6.5,9.22V7.58l1.83-.51,1.81,1.78h0A0.5,0.5,0,1,0,10.86,8.16ZM6.28,6.61l-2.07.46L3.5,4.33,6.28,4V6.61Z"/>
</svg>
