<svg id="Playground" xmlns="http://www.w3.org/2000/svg" width="22" height="22" viewBox="0 0 22 22">
  <title>playground-11</title>
  <path d="M6.53,7.29a1,1,0,1,1,.75,1.22A1,1,0,0,1,6.53,7.29ZM15,14.91a0.5,0.5,0,0,1-.91.36h0l0,0A0.49,0.49,0,0,1,14,15.09h0l-0.93-2.5-1.58.55v1.72l1.16-.33h0l0.09,0a0.25,0.25,0,0,1,.08.49h0L9.32,16H9.25A0.25,0.25,0,0,1,9,15.76a0.25,0.25,0,0,1,.17-0.24h0l2.11-.6V13.2l-2.78.85h0a0.95,0.95,0,0,1-1.17-.67h0L6.52,10.2h0a1,1,0,0,1,0-.43A1,1,0,0,1,7.29,9h0l4-.46V6.5H11.5v2h0.12a0.5,0.5,0,0,1,.37.6,0.49,0.49,0,0,1-.49.37h0v2.58l1.69-.59a0.49,0.49,0,0,1,.52.28h0l1.24,3h0A0.48,0.48,0,0,1,15,14.91Zm-3.71-2.73V9.56L8.5,9.89,9.23,12.8Z"/>
  <circle cx="2.52" cy="12.08" r="0.5" transform="translate(-1.77 0.51) rotate(-8.54)"/>
  <circle cx="3.75" cy="15" r="0.5" transform="translate(-2.7 0.95) rotate(-10.63)"/>
  <circle cx="0.75" cy="9.03" r="0.5" transform="translate(-8.21 7.67) rotate(-76.62)"/>
  <polygon points="0.53 6.5 0.53 14.79 0.75 14.8 0.75 6.51 0.53 6.5"/>
  <polygon points="0.75 8.53 -3.42 9.02 -3.19 10 0.75 9.53 0.75 8.53"/>
  <circle cx="2" cy="14.55" r="0.25"/>
  <polygon points="1.91 14.32 2.08 14.79 -1.43 15.79 -1.58 15.31 1.91 14.32"/>
  <polygon points="-2.25 14.05 2.75 12.52 2.44 11.59 -2.44 13.08 -2.25 14.05"/>
  <polygon points="2.97 11.87 4.21 14.8 3.33 15.27 2.14 12.16 2.97 11.87"/>
  <circle cx="4.5" cy="3.5" r="0.5" fill="#ec2226"/>
  <circle cx="9" cy="3" r="1" fill="#ec2226"/>
  <circle cx="12.5" cy="2.5" r="1.5" fill="#ec2226"/>
  <circle cx="17" cy="2" r="2" fill="#ec2226"/>
  <rect x="5.5" y="5.5" width="11" height="11" fill="none" stroke="#ec2226" stroke-miterlimit="10" stroke-width="0.1"/>
</svg>
