<?xml version="1.0" encoding="utf-8"?>
<!-- Generator: Adobe Illustrator 19.2.1, SVG Export Plug-In . SVG Version: 6.00 Build 0)  -->
<!DOCTYPE svg PUBLIC "-//W3C//DTD SVG 1.1//EN" "http://www.w3.org/Graphics/SVG/1.1/DTD/svg11.dtd">
<svg version="1.1"
	 id="svg4619" inkscape:version="0.91+devel+osxmenu r12911" sodipodi:docname="police-15.svg" xmlns:cc="http://creativecommons.org/ns#" xmlns:dc="http://purl.org/dc/elements/1.1/" xmlns:inkscape="http://www.inkscape.org/namespaces/inkscape" xmlns:rdf="http://www.w3.org/1999/02/22-rdf-syntax-ns#" xmlns:sodipodi="http://sodipodi.sourceforge.net/DTD/sodipodi-0.dtd" xmlns:svg="http://www.w3.org/2000/svg"
	 xmlns="http://www.w3.org/2000/svg" xmlns:xlink="http://www.w3.org/1999/xlink" x="0px" y="0px" width="15px" height="15px"
	 viewBox="0 0 15 15" style="enable-background:new 0 0 15 15;" xml:space="preserve">
<path id="rect4718" d="M5.5,1L6,2h5l0.5-1H5.5z M6,2.5v1.25c0,0,0,2.75,2.5,2.75S11,3.75,11,3.75V2.5H6z M1.9844,3.9863
	C1.4329,3.9949,0.9924,4.4485,1,5v4c-0.0001,0.6398,0.5922,1.1152,1.2168,0.9766L5,9.3574V14l5.8789-6.9297
	C10.7391,7.0294,10.5947,7,10.4414,7H6.5L3,7.7539V5C3.0077,4.4362,2.5481,3.9775,1.9844,3.9863z M11.748,7.7109L6.4121,14H12
	V8.5586C12,8.2451,11.9061,7.9548,11.748,7.7109z"/>
</svg>
