<?xml version="1.0" encoding="utf-8"?>
<!-- Generator: Adobe Illustrator 19.2.1, SVG Export Plug-In . SVG Version: 6.00 Build 0)  -->
<!DOCTYPE svg PUBLIC "-//W3C//DTD SVG 1.1//EN" "http://www.w3.org/Graphics/SVG/1.1/DTD/svg11.dtd">
<svg version="1.1"
	 id="svg4764" inkscape:version="0.91+devel+osxmenu r12911" sodipodi:docname="police-11.svg" xmlns:cc="http://creativecommons.org/ns#" xmlns:dc="http://purl.org/dc/elements/1.1/" xmlns:inkscape="http://www.inkscape.org/namespaces/inkscape" xmlns:rdf="http://www.w3.org/1999/02/22-rdf-syntax-ns#" xmlns:sodipodi="http://sodipodi.sourceforge.net/DTD/sodipodi-0.dtd" xmlns:svg="http://www.w3.org/2000/svg"
	 xmlns="http://www.w3.org/2000/svg" xmlns:xlink="http://www.w3.org/1999/xlink" x="0px" y="0px" width="11px" height="11px"
	 viewBox="0 0 11 11" style="enable-background:new 0 0 11 11;" xml:space="preserve">
<path id="circle4929" inkscape:connector-curvature="0" sodipodi:nodetypes="ccccccsssccscccccccsccscccsc" d="M4.5,0.5l0.5,1h3
	l0.5-1H4.5z M5,2v1c0,0.8284,0.6716,1.5,1.5,1.5S8,3.8284,8,3V2H5z M1.75,3C1,3,1,3.75,1,3.75v3
	c0.0006,0.506,0.4918,0.8663,0.9746,0.7148L4,6.8262V10l4-5H5c0,0-0.1945,0-0.4238,0.0723L2.5,5.7266V3.75C2.5,3.75,2.5,3,1.75,3z
	 M8.7715,5.3887L5,10h4V6C9,5.7648,8.9064,5.5591,8.7715,5.3887z"/>
</svg>
