<?xml version="1.0" encoding="UTF-8"?>
<svg version="1.1" id="post-11" xmlns="http://www.w3.org/2000/svg" width="11px" height="11px" viewBox="0 0 11 11">
  <path d="M10,5.5V9c0,0.5523-0.4477,1-1,1H2c-0.5523,0-1-0.4477-1-1V5.5C1,5.2239,1.2239,5,1.5,5c0.0692-0.0152,0.1408-0.0152,0.21,0&#xA;&#x9;l0,0L5.5,7l3.8-2l0,0c0.066-0.0138,0.134-0.0138,0.2,0C9.7761,5,10,5.2239,10,5.5z M1.25,2.92L1.25,2.92L1.33,3L5.5,5l4.19-2l0,0&#xA;&#x9;h0.06l0,0C9.9296,2.9019,10.0292,2.7025,10,2.5C10,2.2239,9.7761,2,9.5,2h-8C1.2239,2,1,2.2239,1,2.5&#xA;&#x9;C1.0026,2.6745,1.0978,2.8345,1.25,2.92z"/>
</svg>