<?xml version="1.0" encoding="UTF-8"?>
<svg xmlns="http://www.w3.org/2000/svg" width="15" height="15" viewBox="0 0 15 15" id="racetrack-cycling">
  <path d="M12,7.5a3,3,0,1,0,3,3A3,3,0,0,0,12,7.5Zm0,5a2,2,0,1,1,2-2A1.99995,1.99995,0,0,1,12,12.5ZM8.95349,8.15988l-.981,2.44055a.6249.6249,0,0,1-1.16015-.46484l.78174-1.94348-2.788-1.654a.62508.62508,0,0,1-.04638-1.04493l3.125-2.25a.62315.62315,0,0,1,.77636.03614L11.05957,5.375H12.875a.625.625,0,0,1,0,1.25H10.8252a.62466.62466,0,0,1-.41114-.1543L8.76611,5.0304,6.978,6.37152l1.7138,1.01786A.62543.62543,0,0,1,8.95349,8.15988Zm-.8421-6.6954A.25.25,0,0,1,8.22186,1.008L12,1a1.5,1.5,0,0,1,0,3l-.01166-.00116V4H11ZM3,7.5a3,3,0,1,0,3,3A3,3,0,0,0,3,7.5ZM3,12a1.5,1.5,0,1,1,1.5-1.5A1.5,1.5,0,0,1,3,12Z"/>
</svg>