<?xml version="1.0" encoding="UTF-8"?>
<svg xmlns="http://www.w3.org/2000/svg" width="15" height="15" viewBox="0 0 15 15" id="racetrack">
  <path d="M3.77,5.7164l.4619.8864-.8845.4628-.462-.8864ZM2.4628,7.5285l.4618.8864.8846-.4628-.4618-.8865Zm1.7691-.9257.4619.8864.8846-.4628L5.1165,6.14Zm7.8827-.4236L11.23,5.7164l-.4619.8864.8846.4628Zm-.9239,1.7729.8846.4628.462-.8864-.8846-.4629ZM9.8834,6.14l-.4619.8865.8847.4628.4619-.8864Zm4.5329.4783-1.532,2.9775a.7408.7408,0,0,1-.4386.3691.7431.7431,0,0,1-.5711-.05l-3.7893-1.98L8.0579,7.99l1.8893,3.7864a.5006.5006,0,0,1-.2232.6709.4924.4924,0,0,1-.2227.0527.5.5,0,0,1-.4468-.2764L7.5,9.1082,5.9455,12.2236a.5.5,0,0,1-.4468.2764.4931.4931,0,0,1-.2228-.0527.5007.5007,0,0,1-.2231-.6709L6.9421,7.99l-.0274-.0549L3.1253,9.915A.7424.7424,0,0,1,2.78,10a.7515.7515,0,0,1-.2261-.0352.7409.7409,0,0,1-.4385-.3691L.5837,6.6182a.7509.7509,0,0,1,.324-1.0118L4.7626,3.6223l-.1988-.3987a.4992.4992,0,1,1,.8926-.4472L7.5,6.8719,9.5435,2.7764a.4992.4992,0,1,1,.8927.4472l-.1988.3987,3.8548,1.9841a.7508.7508,0,0,1,.3241,1.0118Zm-8.8379.4082.7-.3663-.4463-.8946L5.1165,6.14l-.4619-.8864.7311-.3826-.4-.8009L4.24,4.4539l.4152.7967-.8846.4629-.4183-.8028-.8878.4569.4215.8087-.8846.4629L1.577,5.8244l-.4417.2274a.246.246,0,0,0-.1243.1455.2514.2514,0,0,0,.0161.1923l.309.6.6647-.3478.462.8864-.6693.35.4574.8888.6737-.3526.4264.8183.885-.4623-.4268-.8188.8846-.4629.427.8195.885-.4623Zm8.4106-.8291a.2463.2463,0,0,0-.1243-.1455l-.4417-.2273-.4246.8147-.8846-.4629.4214-.8087-.8877-.4569-.4183.8028-.8846-.4629.4152-.7967L10.0139,4.07l-.4.8009.7311.3826-.462.8864-.7155-.3744L8.7216,6.66l.7.3663-.4272.82.8849.4623.427-.8195.8845.4629-.4267.8188.885.4623.4263-.8183.6738.3526.4574-.8888-.6692-.35.4618-.8864.6648.3478.3089-.6A.2518.2518,0,0,0,13.989,6.1973Z"/>
</svg>