<?xml version="1.0" encoding="UTF-8"?>
<svg xmlns="http://www.w3.org/2000/svg" width="15" height="15" viewBox="0 0 15 15" id="racetrack-cycling">
  <path d="M8 0l3 3h1c2 0 2-3 0-3H8zm.463 2a.5.5 0 00-.317.146l-2.5 2.5a.5.5 0 00.042.745l2.158 1.726L6.57 9.242a.5.5 0 00.86.516l1.5-2.5a.5.5 0 00-.117-.649L7.304 5.402 9 3.707l1.146 1.147A.5.5 0 0010.5 5H13a.5.5 0 000-1h-2.293L8.854 2.146A.5.5 0 008.463 2zM2.949 6A3 3 0 000 9a3 3 0 006 0 3 3 0 00-3.05-3zm9 0A3 3 0 009 9a3 3 0 006 0 3 3 0 00-3.05-3zm.1 1A2 2 0 0114 9a2 2 0 01-4 0 2 2 0 012.049-2z"/>
</svg>