<?xml version="1.0" encoding="UTF-8"?>
<svg xmlns="http://www.w3.org/2000/svg" width="15" height="15" viewBox="0 0 15 15" id="racetrack-boat">
  <path d="M5.5,4.25A1.25,1.25,0,1,1,6.75,5.5,1.25,1.25,0,0,1,5.5,4.25ZM2.5,10a9.72045,9.72045,0,0,1,5-2C9.10217,8,7.398,9.51965,9,9.5A4.04856,4.04856,0,0,0,10.5,9c2.13483-1.20441,3.76428-2.8974,4-5l-2.8844.96149L9.7998,3.59961a.50019.50019,0,1,0-.5996.80078l1.2611.94586-4.20623,1.402L5.00769,6.08734A.75211.75211,0,0,0,3.99347,6.395l-.73938,1.3537L1,8.5C1.5918,9.13043,2.08881,9.63812,2.5,10Zm7.54,1.29492C9.09082,12.09375,8.01465,13,7.12988,13H7.126c-.1377,0-.19434-.001-.24512-.68848a1.77683,1.77683,0,0,0-.53516-1.40039,1.40617,1.40617,0,0,0-1.21093-.14746,12.977,12.977,0,0,0-3.958,2.35449.50029.50029,0,0,0,.64648.76368,12.3144,12.3144,0,0,1,3.542-2.14551c.25489-.05957.36915-.03516.38965-.01758.083.06055.11231.45508.12793.667.042.56348.1211,1.61133,1.24024,1.61426h.00781c1.249,0,2.41992-.98633,3.55273-1.94043,1.20606-1.01367,2.02442-1.64355,2.46192-1.207a.49995.49995,0,0,0,.709-.70508C12.74023,9.02441,11.30469,10.22949,10.04,11.29492Z"/>
</svg>