<?xml version="1.0" encoding="UTF-8"?>
<svg xmlns="http://www.w3.org/2000/svg" width="15" height="15" viewBox="0 0 15 15" id="racetrack-boat">
  <path d="M10.0643 12.2159C10.5334 11.7034 11.0001 11.1935 11.6581 10.9742C12.5793 10.6671 13.2483 11.052 13.5246 11.2547C14.2487 11.7857 14.915 11.0343 14.116 10.4483C13.6891 10.1352 12.6709 9.58253 11.3419 10.0255C10.6217 10.2656 10.1292 10.7922 9.63699 11.3186C9.23687 11.7465 8.8369 12.1742 8.31487 12.4477C7.69576 12.772 7.25001 12.4211 7.25001 11.8125V11.8004C7.25022 11.0022 6.84182 10.5 6.00001 10.5C5.5093 10.5 5.00785 10.7582 4.5 11C3.32489 11.5596 2.18201 12.2859 1.18286 13.1134C0.972221 13.2885 0.939671 13.6085 1.1159 13.82C1.3664 14.1206 1.69666 13.9821 1.94528 13.7821C2.02777 13.7157 2.14794 13.6203 2.29705 13.5056C2.8956 13.0452 3.95631 12.2814 4.87904 11.8421C5.35556 11.6151 5.74073 11.5 6.00001 11.5C6.24998 11.5 6.24998 11.6016 6.24998 11.8396C6.24796 13.166 7.54023 13.9824 8.77891 13.3335C9.28306 13.0694 9.67448 12.6418 10.0643 12.2159V12.2159ZM2.5 10C4 9 5.75492 8 7.5 8C8.25 8 8.25 8.375 8.25 8.75C8.25 9.125 8.25 9.5 9 9.5C11.5275 9.5 14.3632 6.28623 14.5 4L12 4.8L9.65801 4.02555C9.04625 3.82163 8.73002 4.77031 9.34178 4.97423L10.5 5.3L9 5.8L5 4.75C4.76394 4.67131 4.61128 4.77744 4.5 5L3 7.8L1 8.5L2.5 10ZM5 3C5 2.4477 5.4477 2 6 2C6.5523 2 7 2.4477 7 3C7 3.5523 6.5523 4 6 4C5.4477 4 5 3.5523 5 3Z"/>
</svg>