<?xml version="1.0" encoding="UTF-8"?>
<svg xmlns="http://www.w3.org/2000/svg" width="15" height="15" viewBox="0 0 15 15" id="racetrack-horse">
  <path d="M9,2.5a1,1,0,1,1,1,1A1,1,0,0,1,9,2.5Zm5.293,5.40527a.50054.50054,0,0,1-.68359-.09277l-.587-.7337a.97244.97244,0,0,1-.2724.0462.874.874,0,0,1-.80133-.52716L9.77209,8.733,11.96,12.11426a.25.25,0,0,1-.38672.3125L9.04547,9.899,5,9l-.40546.20276A3.34653,3.34653,0,0,1,2.167,10.74512l-.6875,1.60351A.24812.24812,0,0,1,1.25,12.5a.23857.23857,0,0,1-.08887-.0166.25014.25014,0,0,1-.14843-.3125l.75-2.25a.25476.25476,0,0,1,.3164-.1582.99387.99387,0,0,0,.75977-.11817,1.262,1.262,0,0,0,.15991-.13422L2.99823,7.50342A1.23737,1.23737,0,0,1,3.127,6.89905a1.62622,1.62622,0,0,0-.667-.277,1.55258,1.55258,0,0,0-.97851.16992A2.83767,2.83767,0,0,1,.24945,7,.24789.24789,0,0,1,0,6.75.25075.25075,0,0,1,.25,6.5a1.75647,1.75647,0,0,0,1.00391-.34082A2.22262,2.22262,0,0,1,2.5,5.75a1.77416,1.77416,0,0,1,1.22009.48517A1.472,1.472,0,0,1,4.5,6H6.625L5.66382,4.69745a.7199.7199,0,0,1,.39129-1.15808A.49909.49909,0,0,1,6.25,3.5H8.5a.49965.49965,0,0,1,.35352.14648L10.42263,5.2199l2.20921-1.18963a.247.247,0,0,1,.27929.02832.251.251,0,0,1,.07617.27051l-.15332.46,1.585,2.43842A.49987.49987,0,0,1,14.293,7.90527ZM9.57135,5.77838l-.71759-.71759L6.709,6.59277a.50053.50053,0,0,0,.582.81446Z"/>
</svg>