<?xml version="1.0" encoding="utf-8"?>
<!-- Generator: Adobe Illustrator 19.2.1, SVG Export Plug-In . SVG Version: 6.00 Build 0)  -->
<!DOCTYPE svg PUBLIC "-//W3C//DTD SVG 1.1//EN" "http://www.w3.org/Graphics/SVG/1.1/DTD/svg11.dtd">
<svg version="1.1"
	 id="svg4764" inkscape:version="0.91+devel+osxmenu r12911" sodipodi:docname="rail-light-11.svg" xmlns:cc="http://creativecommons.org/ns#" xmlns:dc="http://purl.org/dc/elements/1.1/" xmlns:inkscape="http://www.inkscape.org/namespaces/inkscape" xmlns:rdf="http://www.w3.org/1999/02/22-rdf-syntax-ns#" xmlns:sodipodi="http://sodipodi.sourceforge.net/DTD/sodipodi-0.dtd" xmlns:svg="http://www.w3.org/2000/svg"
	 xmlns="http://www.w3.org/2000/svg" xmlns:xlink="http://www.w3.org/1999/xlink" x="0px" y="0px" width="11px" height="11px"
	 viewBox="0 0 11 11" style="enable-background:new 0 0 11 11;" xml:space="preserve">
<path id="path14245" inkscape:connector-curvature="0" sodipodi:nodetypes="cccccccccccccccccccccccccccccccccccccccccccc" d="M4,0
	C3.5,0,3.5,0.5,3.5,0.5S3.5,1,4,1h1v0.9707L4,2c0,0-1,0-1,1v3c0,2,2,2,2,2h1c0,0,2,0,2-2V3c0-1-1-1-1-1H6V1h1c0.5,0,0.5-0.5,0.5-0.5
	S7.5,0,7,0H4z M5.5,3L7,3.5V5H5.5H4V3.5L5.5,3z M5.5,6C5.777,6,6,6.223,6,6.5S5.777,7,5.5,7S5,6.777,5,6.5S5.223,6,5.5,6z
	 M2.834,8.5L2,11h1.5l0.334-1h3.332L7.5,11H9L8.166,8.5H6.668L6.834,9H4.166l0.166-0.5H2.834z"/>
</svg>
