<svg id="Layer_1" data-name="Layer 1" xmlns="http://www.w3.org/2000/svg" width="11" height="11" viewBox="0 0 11 11">
  <title>rail-11</title>
  <path d="M9,0.5H2a1,1,0,0,0-1,1V6A1,1,0,0,0,2,7H9a1,1,0,0,0,1-1V1.5A1,1,0,0,0,9,.5ZM3.5,6A0.5,0.5,0,1,1,4,5.5,0.5,0.5,0,0,1,3.5,6Zm1-2.5A0.5,0.5,0,0,1,4,4H3a0.5,0.5,0,0,1-.5-0.5v-1A0.5,0.5,0,0,1,3,2H4a0.5,0.5,0,0,1,.5.5v1ZM7.5,6A0.5,0.5,0,1,1,8,5.5,0.5,0.5,0,0,1,7.5,6Zm1-2.5A0.5,0.5,0,0,1,8,4H7a0.5,0.5,0,0,1-.5-0.5v-1A0.5,0.5,0,0,1,7,2H8a0.5,0.5,0,0,1,.5.5v1Zm1,7A0.5,0.5,0,0,1,9,11a0.49,0.49,0,0,1-.43-0.27h0L8.19,10H2.81l-0.37.74h0A0.49,0.49,0,0,1,2,11a0.5,0.5,0,0,1-.5-0.5,0.49,0.49,0,0,1,.07-0.24h0l1-2h0A0.49,0.49,0,0,1,3,8a0.5,0.5,0,0,1,.46.7L3.31,9H7.69L7.54,8.7a0.5,0.5,0,0,1,.9-0.43h0l1,2h0A0.49,0.49,0,0,1,9.5,10.5Z"/>
</svg>
