<svg id="Layer_1" data-name="Layer 1" xmlns="http://www.w3.org/2000/svg" width="11" height="11" viewBox="0 0 11 11">
  <title>rail-11</title>
  <path d="M9,10.5a0.5,0.5,0,0,1-.5.5,0.49,0.49,0,0,1-.43-0.27h0L7.69,10H3.31l-0.37.74h0A0.49,0.49,0,0,1,2.5,11,0.5,0.5,0,0,1,2,10.5a0.49,0.49,0,0,1,.07-0.24h0l1-2h0A0.49,0.49,0,0,1,3.5,8,0.5,0.5,0,0,1,4,8.7L3.81,9H7.19L7,8.7a0.5,0.5,0,0,1,.9-0.43h0l1,2h0A0.49,0.49,0,0,1,9,10.5ZM8,0H3A1,1,0,0,0,2,1V6A1,1,0,0,0,3,7H8A1,1,0,0,0,9,6V1A1,1,0,0,0,8,0ZM3.5,6A0.5,0.5,0,1,1,4,5.5,0.5,0.5,0,0,1,3.5,6Zm0-2A0.5,0.5,0,0,1,3,3.5v-2A0.5,0.5,0,0,1,3.5,1H5.29V4H3.5Zm4,2A0.5,0.5,0,1,1,8,5.5,0.5,0.5,0,0,1,7.5,6ZM8,3.5a0.5,0.5,0,0,1-.5.5H5.69V1H7.5a0.5,0.5,0,0,1,.5.5v2Z"/>
</svg>
