<svg id="Layer_1" data-name="Layer 1" xmlns="http://www.w3.org/2000/svg" width="15" height="15" viewBox="0 0 15 15">
  <title>rail-15</title>
  <g>
    <path d="M12,1H3A1,1,0,0,0,2,2v8a1,1,0,0,0,1,1h9a1,1,0,0,0,1-1V2A1,1,0,0,0,12,1Zm-6.24.5h3.5a0.25,0.25,0,0,1,0,.5H5.75A0.25,0.25,0,0,1,5.75,1.5ZM5,10A1,1,0,1,1,6,9,1,1,0,0,1,5,10ZM7,7H3.5A0.5,0.5,0,0,1,3,6.5v-3A0.5,0.5,0,0,1,3.5,3H7V7Zm3,3a1,1,0,1,1,1-1A1,1,0,0,1,10,10Zm2-3.5a0.5,0.5,0,0,1-.5.5H8V3h3.5a0.5,0.5,0,0,1,.5.5v3Z"/>
    <path d="M12,1H3A1,1,0,0,0,2,2v8a1,1,0,0,0,1,1h9a1,1,0,0,0,1-1V2A1,1,0,0,0,12,1Zm-6.24.5h3.5a0.25,0.25,0,0,1,0,.5H5.75A0.25,0.25,0,0,1,5.75,1.5ZM5,10A1,1,0,1,1,6,9,1,1,0,0,1,5,10ZM7,7H3.5A0.5,0.5,0,0,1,3,6.5v-3A0.5,0.5,0,0,1,3.5,3H7V7Zm3,3a1,1,0,1,1,1-1A1,1,0,0,1,10,10Zm2-3.5a0.5,0.5,0,0,1-.5.5H8V3h3.5a0.5,0.5,0,0,1,.5.5v3Z"/>
  </g>
  <path d="M11.93,14.26h0l-1-2h0a0.5,0.5,0,0,0-.91.41l0,0h0L10.19,13H4.81l0.13-.27h0l0,0a0.5,0.5,0,0,0-.91-0.41h0l-1,2h0A0.49,0.49,0,0,0,3,14.5a0.5,0.5,0,0,0,.5.5,0.49,0.49,0,0,0,.43-0.26h0l0-.05H4L4.31,14h6.38L11,14.69h0l0,0.05h0a0.49,0.49,0,0,0,.43.26,0.5,0.5,0,0,0,.5-0.5A0.49,0.49,0,0,0,11.93,14.26Z"/>
</svg>
