<?xml version="1.0" encoding="UTF-8" standalone="no"?>
<!-- Generator: Adobe Illustrator 18.1.0, SVG Export Plug-In . SVG Version: 6.00 Build 0)  -->

<svg
   xmlns:dc="http://purl.org/dc/elements/1.1/"
   xmlns:cc="http://creativecommons.org/ns#"
   xmlns:rdf="http://www.w3.org/1999/02/22-rdf-syntax-ns#"
   xmlns:svg="http://www.w3.org/2000/svg"
   xmlns="http://www.w3.org/2000/svg"
   xmlns:sodipodi="http://sodipodi.sourceforge.net/DTD/sodipodi-0.dtd"
   xmlns:inkscape="http://www.inkscape.org/namespaces/inkscape"
   version="1.1"
   id="svg4764"
   sodipodi:docname="rail-11.svg"
   inkscape:version="0.91 r13725"
   x="0px"
   y="0px"
   width="11"
   height="11"
   viewBox="0 0 11 11"
   enable-background="new 0 0 599 400"
   xml:space="preserve"><metadata
     id="metadata8"><rdf:RDF><cc:Work
         rdf:about=""><dc:format>image/svg+xml</dc:format><dc:type
           rdf:resource="http://purl.org/dc/dcmitype/StillImage" /><dc:title></dc:title></cc:Work></rdf:RDF></metadata><defs
     id="defs6" /><sodipodi:namedview
     inkscape:window-maximized="0"
     inkscape:window-y="0"
     inkscape:window-x="2"
     inkscape:window-height="744"
     inkscape:window-width="980"
     inkscape:snap-smooth-nodes="true"
     inkscape:object-nodes="true"
     inkscape:object-paths="true"
     inkscape:snap-bbox-midpoints="true"
     inkscape:bbox-nodes="true"
     inkscape:current-layer="svg4764"
     inkscape:pageshadow="2"
     inkscape:pageopacity="0"
     inkscape:snap-bbox="true"
     inkscape:bbox-paths="true"
     inkscape:snap-intersection-paths="true"
     objecttolerance="10"
     guidetolerance="10"
     gridtolerance="10"
     id="namedview4"
     showguides="false"
     borderopacity="1"
     bordercolor="#666666"
     pagecolor="#ffffff"
     inkscape:cy="4.4026086"
     inkscape:cx="4.8136867"
     inkscape:zoom="38.666667"
     showgrid="true"
     inkscape:snap-bbox-edge-midpoints="true"><inkscape:grid
       color="#ee0007"
       type="xygrid"
       spacingy="0.5"
       id="grid3336"
       opacity="0.1254902"
       spacingx="0.5"
       empspacing="2" /></sodipodi:namedview><path
     id="path14003"
     d="M 3.001,0 C 3.001,0 2,0 2,1.001 l 0,4.9995 c 0,1.001 1.001,1.001 1.001,1.001 l 2.49975,0 2.49975,0 c 0,0 1.001,0 1.001,-1.001 l 0,-4.9995 c 0,0 0,-1.001 -1.001,-1.001 L 3.001,0 Z m 0.5005,1.001 1.49875,0 0,3.00025 -1.49875,0 C 3.22375,4.00125 3.001,3.7785 3.001,3.50075 l 0,-2.002 C 3.001,1.22375 3.22375,1.001 3.5015,1.001 Z m 2.49975,0 1.49875,0 c 0.27775,0 0.5005,0.22275 0.5005,0.5005 l 0,1.99925 c 0,0.27775 -0.22275,0.5005 -0.5005,0.5005 l -1.49875,0 0,-3.00025 z M 3.5015,4.9995 c 0.275,0 0.5005,0.22275 0.5005,0.5005 0,0.27775 -0.22275,0.5005 -0.5005,0.5005 C 3.2265,6.0005 3.001,5.77775 3.001,5.5 3.001,5.22225 3.22375,4.9995 3.5015,4.9995 Z m 3.9985,0 C 7.775,4.9995 8.0005,5.22225 8.0005,5.5 8.0005,5.77775 7.77775,6.0005 7.5,6.0005 7.225,6.0005 6.9995,5.77775 6.9995,5.5 6.9995,5.22225 7.225,4.9995 7.5,4.9995 Z M 3.001,7.99975 2,11 3.49875,11 3.8315,9.999 l 3.333,0 L 7.49725,11 8.996,11 7.995,7.99975 l -1.49875,0 0.33275,1.001 -2.6675,0 0.33275,-1.001 -1.49325,0 z"
     inkscape:connector-curvature="0" /></svg>