<?xml version="1.0" encoding="utf-8"?>
<!-- Generator: Adobe Illustrator 19.2.1, SVG Export Plug-In . SVG Version: 6.00 Build 0)  -->
<!DOCTYPE svg PUBLIC "-//W3C//DTD SVG 1.1//EN" "http://www.w3.org/Graphics/SVG/1.1/DTD/svg11.dtd">
<svg version="1.1" id="Layer_1" xmlns="http://www.w3.org/2000/svg" xmlns:xlink="http://www.w3.org/1999/xlink" x="0px" y="0px"
	 width="15px" height="15px" viewBox="0 0 15 15" style="enable-background:new 0 0 15 15;" xml:space="preserve">
<g>
	<path d="M12,1H3C2.4477,1,2,1.4477,2,2v8c0,0.5523,0.4477,1,1,1h9c0.5523,0,1-0.4477,1-1V2C13,1.4477,12.5523,1,12,1z M5.76,1.5
		h3.5c0.1381,0,0.25,0.1119,0.25,0.25S9.3981,2,9.26,2H5.75C5.6119,2,5.5,1.8881,5.5,1.75S5.6119,1.5,5.75,1.5H5.76z M5,10
		c-0.5523,0-1-0.4477-1-1s0.4477-1,1-1s1,0.4477,1,1S5.5523,10,5,10z M7,7H3.5C3.2239,7,3,6.7761,3,6.5v-3C3,3.2239,3.2239,3,3.5,3
		H7V7z M10,10c-0.5523,0-1-0.4477-1-1s0.4477-1,1-1s1,0.4477,1,1S10.5523,10,10,10z M12,6.5C12,6.7761,11.7761,7,11.5,7H8V3h3.5
		C11.7761,3,12,3.2239,12,3.5V6.5z"/>
	<path d="M12,1H3C2.4477,1,2,1.4477,2,2v8c0,0.5523,0.4477,1,1,1h9c0.5523,0,1-0.4477,1-1V2C13,1.4477,12.5523,1,12,1z M5.76,1.5
		h3.5c0.1381,0,0.25,0.1119,0.25,0.25S9.3981,2,9.26,2H5.75C5.6119,2,5.5,1.8881,5.5,1.75S5.6119,1.5,5.75,1.5H5.76z M5,10
		c-0.5523,0-1-0.4477-1-1s0.4477-1,1-1s1,0.4477,1,1S5.5523,10,5,10z M7,7H3.5C3.2239,7,3,6.7761,3,6.5v-3C3,3.2239,3.2239,3,3.5,3
		H7V7z M10,10c-0.5523,0-1-0.4477-1-1s0.4477-1,1-1s1,0.4477,1,1S10.5523,10,10,10z M12,6.5C12,6.7761,11.7761,7,11.5,7H8V3h3.5
		C11.7761,3,12,3.2239,12,3.5V6.5z"/>
</g>
<path d="M11.93,14.26L11.93,14.26l-1-2l0,0c-0.1287-0.2443-0.4311-0.338-0.6754-0.2092C10.0313,12.1684,9.9307,12.434,10.02,12.67
	l0,0l0,0L10.19,13H4.81l0.13-0.27l0,0l0,0c0.0977-0.2583-0.0325-0.5469-0.2908-0.6446C4.4132,11.9962,4.1476,12.0968,4.03,12.32l0,0
	l-1,2l0,0C3.0088,14.3776,2.9986,14.4387,3,14.5C3,14.7761,3.2239,15,3.5,15c0.1802-0.001,0.3454-0.1008,0.43-0.26l0,0v-0.05H4
	L4.31,14h6.38L11,14.69l0,0v0.05l0,0c0.0846,0.1592,0.2498,0.259,0.43,0.26c0.2761,0,0.5-0.2239,0.5-0.5
	C11.9499,14.4212,11.9499,14.3388,11.93,14.26z"/>
</svg>
