<?xml version="1.0" encoding="UTF-8"?>
<svg version="1.1" id="rail-light-11" xmlns="http://www.w3.org/2000/svg" width="11px" height="11px" viewBox="0 0 11 11">
  <path id="path14245" d="M4,0&#xA;&#x9;C3.5,0,3.5,0.5,3.5,0.5S3.5,1,4,1h1v0.9707L4,2c0,0-1,0-1,1v3c0,2,2,2,2,2h1c0,0,2,0,2-2V3c0-1-1-1-1-1H6V1h1c0.5,0,0.5-0.5,0.5-0.5&#xA;&#x9;S7.5,0,7,0H4z M5.5,3L7,3.5V5H5.5H4V3.5L5.5,3z M5.5,6C5.777,6,6,6.223,6,6.5S5.777,7,5.5,7S5,6.777,5,6.5S5.223,6,5.5,6z&#xA;&#x9; M2.834,8.5L2,11h1.5l0.334-1h3.332L7.5,11H9L8.166,8.5H6.668L6.834,9H4.166l0.166-0.5H2.834z"/>
</svg>