<?xml version="1.0" encoding="utf-8"?>
<!-- Generator: Adobe Illustrator 19.2.1, SVG Export Plug-In . SVG Version: 6.00 Build 0)  -->
<!DOCTYPE svg PUBLIC "-//W3C//DTD SVG 1.1//EN" "http://www.w3.org/Graphics/SVG/1.1/DTD/svg11.dtd">
<svg version="1.1"
	 id="svg4619" inkscape:version="0.91+devel+osxmenu r12911" sodipodi:docname="rail-metro-15.svg" xmlns:cc="http://creativecommons.org/ns#" xmlns:dc="http://purl.org/dc/elements/1.1/" xmlns:inkscape="http://www.inkscape.org/namespaces/inkscape" xmlns:rdf="http://www.w3.org/1999/02/22-rdf-syntax-ns#" xmlns:sodipodi="http://sodipodi.sourceforge.net/DTD/sodipodi-0.dtd" xmlns:svg="http://www.w3.org/2000/svg"
	 xmlns="http://www.w3.org/2000/svg" xmlns:xlink="http://www.w3.org/1999/xlink" x="0px" y="0px" width="15px" height="15px"
	 viewBox="0 0 15 15" style="enable-background:new 0 0 15 15;" xml:space="preserve">
<path id="path5258" d="M5.5,0c0,0-0.75,0-1,1L3,6.5V10c0,1,1,1,1,1h7c0,0,1,0,1-1V6.5L10.5,1c-0.2727-1-1-1-1-1H5.5z M6.5,1.5h2
	c0,0,0.5357,0,0.75,1L10,6c0.2146,1.0017-1,1-1,1H6c0,0-1.2146,0.0017-1-1l0.75-3.5C5.9643,1.5,6.5,1.5,6.5,1.5z M5,8
	c0.5523,0,1,0.4477,1,1s-0.4477,1-1,1S4,9.5523,4,9S4.4477,8,5,8z M6.75,8h1.5C8.3885,8,8.5,8.1115,8.5,8.25S8.3885,8.5,8.25,8.5
	h-1.5C6.6115,8.5,6.5,8.3885,6.5,8.25S6.6115,8,6.75,8z M10,8c0.5523,0,1,0.4477,1,1s-0.4477,1-1,1S9,9.5523,9,9S9.4477,8,10,8z
	 M4.125,12L3,15h1.5l0.375-1h5.25l0.375,1H12l-1.125-3h-1.5l0.375,1h-4.5l0.375-1H4.125z"/>
</svg>
