<?xml version="1.0" encoding="utf-8"?>
<!-- Generator: Adobe Illustrator 19.2.1, SVG Export Plug-In . SVG Version: 6.00 Build 0)  -->
<!DOCTYPE svg PUBLIC "-//W3C//DTD SVG 1.1//EN" "http://www.w3.org/Graphics/SVG/1.1/DTD/svg11.dtd">
<svg version="1.1"
	 id="svg4764" inkscape:version="0.91+devel+osxmenu r12911" sodipodi:docname="rail-metro-11.svg" xmlns:cc="http://creativecommons.org/ns#" xmlns:dc="http://purl.org/dc/elements/1.1/" xmlns:inkscape="http://www.inkscape.org/namespaces/inkscape" xmlns:rdf="http://www.w3.org/1999/02/22-rdf-syntax-ns#" xmlns:sodipodi="http://sodipodi.sourceforge.net/DTD/sodipodi-0.dtd" xmlns:svg="http://www.w3.org/2000/svg"
	 xmlns="http://www.w3.org/2000/svg" xmlns:xlink="http://www.w3.org/1999/xlink" x="0px" y="0px" width="11px" height="11px"
	 viewBox="0 0 11 11" style="enable-background:new 0 0 11 11;" xml:space="preserve">
<path id="path14200" d="M3.5,0C3,0,3,0.5,3,0.5L2,5v1c0,1.0244,1,1,1,1h5c0,0,1,0,1-1V5L8,0.5C8,0.5,8,0,7.5,0H3.5z M4,1h3l0.5,3h-4
	L4,1z M3.5,5C3.7761,5,4,5.2239,4,5.5S3.7761,6,3.5,6S3,5.7761,3,5.5S3.2239,5,3.5,5z M5.25,5h0.5C5.8885,5,6,5.1115,6,5.25
	S5.8885,5.5,5.75,5.5h-0.5C5.1115,5.5,5,5.3885,5,5.25S5.1115,5,5.25,5z M7.5,5C7.7761,5,8,5.2239,8,5.5S7.7761,6,7.5,6
	S7,5.7761,7,5.5S7.2239,5,7.5,5z M3,8l-1,3h1.5l0.334-1h3.332L7.5,11H9L8,8H6.5l0.334,1H4.166L4.5,8H3z"/>
</svg>
