<svg id="Layer_1" data-name="Layer 1" xmlns="http://www.w3.org/2000/svg" width="11" height="11" viewBox="0 0 11 11">
  <title>recycling-11</title>
  <g id="Layer_11" data-name="Layer 11">
    <path d="M4.576,4.023l-.613,1.39a.246.246,0,0,1-.429.038l-.185-.273A3.43,3.43,0,0,0,2.106,7.056a3.473,3.473,0,0,0-.024,1.607.508.508,0,0,1-.345.625.523.523,0,0,1-.621-.378A4.419,4.419,0,0,1,2.787,4.35l-.158-.235a.246.246,0,0,1,.2-.383l1.519-.055a.246.246,0,0,1,.229.345Zm5.715,4.11a.507.507,0,0,0-.712-.041,3.477,3.477,0,0,1-3.177.8A3.127,3.127,0,0,1,5.93,8.72l.113-.246a.246.246,0,0,0-.255-.347l-1.513.193A.246.246,0,0,0,4.1,8.7l.835,1.271a.246.246,0,0,0,.43-.032l.143-.31a3.984,3.984,0,0,0,.649.232,4.47,4.47,0,0,0,4.081-1.019A.507.507,0,0,0,10.291,8.133ZM7.7,4.764l-.326.027a.246.246,0,0,0-.176.393L8.11,6.4a.246.246,0,0,0,.416-.035L9.22,5.013a.246.246,0,0,0-.24-.357l-.294.023A4.481,4.481,0,0,0,5.612.881a.5.5,0,0,0-.317.951A3.485,3.485,0,0,1,7.7,4.764Z"/>
  </g>
</svg>
