<svg xmlns="http://www.w3.org/2000/svg" width="11" height="11" viewBox="0 0 11 11">
  <title>recycling-11</title>
  <path d="M9.7986,6.7528S9.552,6.3245,9.51,6.2512a.5.5,0,1,0-.8669.4974c.0629.1094.29.5039.29.5039a.5.5,0,0,1-.4324.75H6.9986V7.5062a.4989.4989,0,0,0-.8524-.3587l-1,.9994a.5.5,0,0,0,0,.7067h0l1,.9994a.499.499,0,0,0,.8524-.3587V9.001H8.5008A1.4985,1.4985,0,0,0,9.7987,6.7523ZM2.5,8.9991S2.9942,9,3.0788,9a.5.5,0,1,0,.0027-.9995C2.9552,8,2.5,8,2.5,8a.5.5,0,0,1-.4329-.7493L2.8181,5.95l.4278.2474a.4989.4989,0,0,0,.7368-.5589L3.62,4.3706a.5.5,0,0,0-.612-.3534h0l-1.3671.2688a.499.499,0,0,0-.1156.9176L1.953,5.45,1.2019,6.7511A1.4985,1.4985,0,0,0,2.5,8.9995ZM4.2039,1.5556s-.2476.4277-.29.5008a.5.5,0,1,0,.8642.502c.0633-.1092.2913-.5032.2913-.5032a.5.5,0,0,1,.8653,0l.7511,1.3009-.4294.2479a.4989.4989,0,0,0,.1156.9176l1.3654.3661a.5.5,0,0,0,.6121-.3533h0l.3656-1.3656A.499.499,0,0,0,7.9782,2.61l-.4273.2467L6.8,1.5554a1.4985,1.4985,0,0,0-2.5964,0Z"/>
</svg>
