<svg id="Layer_2" data-name="Layer 2" xmlns="http://www.w3.org/2000/svg" width="15" height="15" viewBox="0 0 15 15">
  <title>recycling-15</title>
<path d="M2.464,9.116c-0.331,0.599-0.936,1.692,0.164,2.4059c0.3457,0.2221,0.7317,0.374,1.136,0.447
	c0.3079,0.042,0.3282,0.5045-0.033,0.4974c-0.3851-0.015-2.2615-0.1595-2.578-1.5563c-0.1646-0.816,0.0032-1.5506,0.478-2.351
	l0.6838-1.2353L1,6.598L4.442,4.5l0.06,4.031L3.188,7.8057L2.464,9.116z M6.7,2.034c1.155-0.628,1.823,0.43,2.191,1.007
	l0.8059,1.2631L8.431,5.112L12,6.986L11.803,2.96l-1.2639,0.8066L9.779,2.578C9.2572,1.8321,8.875,1.2812,7.944,1.033
	C6.307,0.7203,5.3007,2.6194,5.311,2.607c-0.1639,0.2871,0.2156,0.5399,0.451,0.21C6.0202,2.4969,6.339,2.2309,6.7,2.034z
	 M13.294,8.221c-0.0877-0.1897-0.5487-0.1413-0.419,0.267c0.1312,0.3892,0.1845,0.8003,0.157,1.21C12.939,11.01,11.684,11,11,11H9.5
	V9.5l-3.5,2l3.488,2.025L9.4926,12H11c0.8906,0.0153,1.5999-0.1759,2.2-0.713C14.4,10.226,13.294,8.221,13.294,8.221z"/>
</svg>
