<svg id="Layer_1" data-name="Layer 1" xmlns="http://www.w3.org/2000/svg" width="15" height="15" viewBox="0 0 15 15">
  <title>recycling-15</title>
<path d="M5.0829,3.1686C4.8714,2.9911,4.8448,2.6766,5.0223,2.465C5.6265,1.8529,6.3724,1.3636,7.19,1.053
	c0.1395-0.0634,0.2949-0.0615,0.4274-0.0011c0.2351,0.107,0.4707,0.2192,0.6978,0.3569c1.7082,1.0364,2.7028,2.7954,2.8525,4.6489
	l1.0545-0.1514c0.196-0.0282,0.3445,0.1736,0.2591,0.3524l-1.1935,2.4997c-0.0763,0.1597-0.2905,0.1904-0.4086,0.0586L9.0309,6.7539
	C8.8987,6.6064,8.9843,6.371,9.1804,6.3429l0.992-0.1424c-0.1076-1.5673-0.9337-3.0618-2.3759-3.9367
	C7.6608,2.1814,7.5158,2.1312,7.3757,2.0633L7.3758,2.059c-0.5951,0.2488-1.1342,0.6073-1.588,1.0535
	C5.61,3.3211,5.2934,3.3453,5.0829,3.1686z M13.7948,9.3181c-0.0944-0.2595-0.3801-0.3937-0.6397-0.2993
	c-0.2581,0.094-0.3955,0.3802-0.3038,0.6385c0.1595,0.6161,0.2004,1.2622,0.1184,1.902l-0.0036-0.0023
	c-0.129,0.0874-0.2448,0.1878-0.3842,0.2642c-1.4788,0.8115-3.1862,0.7797-4.5972,0.0892l0.3727-0.9302
	c0.0737-0.1839-0.0873-0.3757-0.2812-0.335l-2.7109,0.5692c-0.1732,0.0364-0.2537,0.2372-0.1535,0.3832L6.78,13.881
	c0.1121,0.1633,0.361,0.1357,0.4348-0.0482L7.611,12.844c1.6801,0.7971,3.7007,0.8151,5.4523-0.1461
	c0.2328-0.1278,0.4478-0.2758,0.658-0.4258c0.1185-0.0846,0.1979-0.2183,0.2127-0.3708
	C14.0735,11.0381,14.0228,10.1475,13.7948,9.3181z M5.2721,8.3762L6.1346,5.744C6.1898,5.5757,6.056,5.4056,5.8795,5.4195
	L3.118,5.6357C2.9205,5.6511,2.8199,5.8805,2.9424,6.0363l0.6584,0.8374C2.0704,7.93,1.0445,9.671,1.0011,11.6685
	c-0.0057,0.2655,0.015,0.5257,0.0398,0.7828c0.014,0.145,0.09,0.2805,0.2147,0.3696c0.6777,0.5527,1.4744,0.9542,2.3066,1.1714
	c0.2719,0.0479,0.531-0.1324,0.579-0.4044c0.0476-0.2705-0.1315-0.5326-0.4011-0.5824c-0.6133-0.1699-1.1933-0.4575-1.7064-0.8484
	l0.0038-0.002c-0.0112-0.1554-0.0403-0.306-0.0368-0.4648c0.0367-1.6865,0.9179-3.1493,2.2214-4.0259l0.6193,0.7878
	C4.9638,8.608,5.2104,8.5645,5.2721,8.3762z"/>
</svg>
