<svg id="Layer_1" data-name="Layer 1" xmlns="http://www.w3.org/2000/svg" width="11" height="11" viewBox="0 0 11 11">
<title>recycling-11</title>
<path d="M4.244,3.9889L3.6,5.9559c-0.06,0.182-0.295,0.229-0.421,0.084L2.8383,5.6466C2.4949,6.0452,2.2387,6.515,2.107,7.0309
	C1.9863,7.509,1.9821,8.0048,2.0678,8.4888c0.2637,0.2183,0.5504,0.399,0.8552,0.5341c0.613,0.323,0.226,1.126-0.314,0.953
	c-0.492-0.158-0.99-0.525-1.332-0.833C1.2664,9.1335,1.2621,9.1206,1.2526,9.1106C1.2238,9.081,1.2,9.0491,1.1788,9.0128
	C1.167,8.992,1.1569,8.9717,1.1483,8.9497C1.139,8.9272,1.1233,8.9091,1.117,8.8849C0.7781,7.441,1.1964,5.949,2.1782,4.8847
	L1.785,4.4308c-0.126-0.145-0.045-0.371,0.144-0.404l2.038-0.358C4.15,3.6369,4.302,3.8119,4.244,3.9889z M3.964,2.5135
	C4.2333,2.317,4.5337,2.1594,4.8541,2.0397C5.3163,2.2076,5.7439,2.4594,6.097,2.8026C6.4783,3.1749,6.7569,3.6314,6.9303,4.128
	L6.419,4.2265c-0.188,0.037-0.265,0.264-0.137,0.407l1.382,1.541c0.124,0.139,0.351,0.095,0.415-0.08l0.71-1.944
	c0.065-0.18-0.091-0.363-0.279-0.327L7.9199,3.9373C7.489,2.5551,6.4063,1.4473,4.987,1.0186
	c-0.0237-0.0065-0.0469-0.002-0.0706-0.0051c-0.0247-0.0038-0.0486-0.0052-0.074-0.0053C4.8032,1.0087,4.7663,1.0129,4.7289,1.022
	C4.7135,1.0255,4.6982,1.0225,4.683,1.0275c-0.438,0.142-1.004,0.39-1.387,0.737C2.876,2.1455,3.378,2.8825,3.964,2.5135z
	 M9.902,7.8925c0.096-0.45,0.165-1.065,0.056-1.57c-0.12-0.554-1.009-0.488-0.983,0.204c0.0353,0.3295,0.0216,0.6663-0.0341,1.0016
	C8.5622,7.8479,8.1279,8.0943,7.65,8.2296C7.1368,8.373,6.6019,8.386,6.085,8.2878l0.17-0.4913c0.063-0.181-0.096-0.361-0.283-0.322
	l-2.025,0.426c-0.182,0.038-0.258,0.257-0.138,0.4l1.329,1.586c0.122,0.147,0.358,0.103,0.421-0.078l0.1964-0.5679
	C7.168,9.5589,8.6685,9.1754,9.75,8.1595c0.0099-0.0097,0.0135-0.0227,0.0224-0.033C9.8049,8.0916,9.8307,8.053,9.8525,8.009
	C9.8586,7.9961,9.864,7.9837,9.8689,7.9704C9.8793,7.9439,9.8961,7.9214,9.902,7.8925z"/>
</svg>
