<?xml version="1.0" encoding="utf-8"?>
<!-- Generator: Adobe Illustrator 20.1.0, SVG Export Plug-In . SVG Version: 6.00 Build 0)  -->
<svg version="1.1"
	 id="svg4764" inkscape:version="0.91 r13725" sodipodi:docname="ranger-station-11.svg" xmlns:cc="http://creativecommons.org/ns#" xmlns:dc="http://purl.org/dc/elements/1.1/" xmlns:inkscape="http://www.inkscape.org/namespaces/inkscape" xmlns:rdf="http://www.w3.org/1999/02/22-rdf-syntax-ns#" xmlns:sodipodi="http://sodipodi.sourceforge.net/DTD/sodipodi-0.dtd" xmlns:svg="http://www.w3.org/2000/svg"
	 xmlns="http://www.w3.org/2000/svg" xmlns:xlink="http://www.w3.org/1999/xlink" x="0px" y="0px" width="11px" height="11px"
	 viewBox="0 0 11 11" style="enable-background:new 0 0 11 11;" xml:space="preserve">
<g>
	<path d="M9.6,6.8L9.2,6.1C9,5.8,8.7,5.8,8.5,5.9S8.2,6.3,8.3,6.6l0.4,0.7c0.1,0.2,0,0.4,0,0.5C8.7,7.8,8.5,8,8.3,8H7V7L5,8.5L7,10
		V9h1.3c0.5,0,1-0.3,1.3-0.8C9.8,7.8,9.8,7.2,9.6,6.8z"/>
	<path d="M3.5,8H2.7C2.5,8,2.3,7.8,2.3,7.8s-0.1-0.3,0-0.5l0.6-1.1l0.9,0.5L3.5,4.2l-2.3,1l0.9,0.5L1.4,6.8c-0.3,0.5-0.3,1,0,1.5
		C1.7,8.7,2.2,9,2.7,9h0.8C3.8,9,4,8.8,4,8.5S3.8,8,3.5,8z"/>
	<path d="M5.5,2.2c0.1,0,0.3,0,0.4,0.2l0.6,1.1L5.7,4.1L8,5l0.3-2.5L7.4,3.1c0,0,0,0,0,0L6.8,2C6.5,1.5,6,1.2,5.5,1.2S4.5,1.5,4.2,2
		L3.8,2.6C3.7,2.9,3.8,3.2,4,3.3c0.2,0.1,0.5,0.1,0.7-0.2l0.4-0.7C5.2,2.2,5.4,2.2,5.5,2.2z"/>
</g>
</svg>
