<svg xmlns="http://www.w3.org/2000/svg" width="15" height="15" viewBox="0 0 15 15">
  <title>recycling-15</title>
  <path d="M7.4993,2.0669a1.52,1.52,0,0,1,1.299.75L9.55,4.1188l.4342-.2507a.5.5,0,0,1,.7488.4337l.134,2.198a.5.5,0,0,1-.25.433l0,0v0a.5.5,0,0,1-.5,0l-1.866-1.198A.5.5,0,0,1,8.25,4.8695l.4342-.2507L7.9323,3.3171a.5.5,0,0,0-.8655,0S6.301,4.6444,6.2377,4.7537a.5.5,0,0,1-.8648-.5024c.0424-.0731.8279-1.4342.8279-1.4342A1.52,1.52,0,0,1,7.4993,2.0669ZM12.8019,9.75s-.8229-1.4261-.865-1.4994a.5.5,0,0,0-.8675.4977c.0629.1095.8665,1.5016.8665,1.5016a.5.5,0,0,1-.4327.75H10v-.5013a.5.5,0,0,0-.75-.4317l-2,1A.5.5,0,0,0,7,11.5H7l0,0a.5.5,0,0,0,.25.4329l2,1a.5.5,0,0,0,.75-.4316V12h1.5031a1.4993,1.4993,0,0,0,1.2988-2.25ZM4.75,6.0669a.5.5,0,0,0-.5,0L2.5167,7.3333a.5.5,0,0,0-.0012.8653l.4342.2507L2.1981,9.751a1.4993,1.4993,0,0,0,1.2988,2.25s1.6465,0,1.731.0006a.5.5,0,0,0,.0027-1c-.1263,0-1.7337,0-1.7337,0a.5.5,0,0,1-.4327-.75l.7516-1.3017L4.25,9.2a.5.5,0,0,0,.7489-.4337L5,6.5a.5.5,0,0,0-.25-.4329"/>
</svg>
