<?xml version="1.0" encoding="utf-8"?>
<!-- Generator: Adobe Illustrator 20.1.0, SVG Export Plug-In . SVG Version: 6.00 Build 0)  -->
<svg version="1.1" id="Layer_1" xmlns="http://www.w3.org/2000/svg" xmlns:xlink="http://www.w3.org/1999/xlink" x="0px" y="0px"
	 width="15px" height="15px" viewBox="0 0 15 15" style="enable-background:new 0 0 15 15;" xml:space="preserve">
<path d="M5.2,11l-1.7,0c-0.1,0-0.2,0-0.2-0.1l0,0c-0.2-0.1-0.3-0.4-0.2-0.7L3.8,9l0-0.1l0.4,0.3c0.1,0,0.2,0.1,0.2,0.1
	C4.8,9.3,5,9,5,8.8l0.1-2.2c0-0.2-0.1-0.3-0.2-0.4c0,0,0,0,0,0c0,0,0,0,0,0C4.7,6,4.5,6,4.4,6.1L2.5,7.3C2.3,7.5,2.2,7.8,2.3,8
	c0,0.1,0.1,0.1,0.2,0.2L3,8.4L2.2,9.7c-0.4,0.7-0.2,1.6,0.5,2C3,11.9,3.2,12,3.5,12l1.7,0c0.3,0,0.5-0.2,0.5-0.5
	C5.7,11.2,5.5,11,5.2,11z"/>
<path d="M12.8,9.7l-0.9-1.5c-0.1-0.2-0.4-0.3-0.7-0.2c-0.2,0.1-0.3,0.4-0.2,0.7l0.9,1.5c0,0.1,0.1,0.2,0.1,0.2v0
	c0,0.3-0.2,0.5-0.5,0.5h-1.4H10v-0.5c0-0.1,0-0.2-0.1-0.2C9.8,10,9.5,9.9,9.2,10.1l-2,1C7.1,11.2,7,11.3,7,11.5c0,0,0,0,0,0s0,0,0,0
	c0,0.2,0.1,0.3,0.3,0.4l2,1c0.2,0.1,0.5,0.1,0.7-0.2c0-0.1,0.1-0.2,0.1-0.2V12h1.5c0.8,0,1.5-0.7,1.5-1.5C13,10.2,12.9,10,12.8,9.7z
	"/>
<path d="M7.3,3.1L7.3,3.1C7.5,3,7.8,3.1,7.9,3.3l0.7,1.2l0,0.1L8.2,4.9C8.2,4.9,8.1,5,8.1,5.1C7.9,5.3,8,5.6,8.3,5.7L10.1,7
	c0.2,0.1,0.4,0.1,0.5,0c0,0,0,0,0,0c0,0,0,0,0,0c0.1-0.1,0.2-0.2,0.2-0.4l-0.1-2.2c0-0.3-0.2-0.5-0.5-0.5c-0.1,0-0.2,0-0.2,0.1
	L9.6,4.1L8.8,2.8c-0.4-0.7-1.3-1-2-0.5C6.5,2.4,6.3,2.6,6.2,2.8L5.3,4.3C5.2,4.6,5.3,4.9,5.5,5c0.2,0.1,0.5,0.1,0.7-0.2l0.9-1.5
	C7.1,3.2,7.2,3.2,7.3,3.1z"/>
</svg>
