<svg xmlns="http://www.w3.org/2000/svg" width="15" height="15" viewBox="0 0 15 15">
  <title>recycling-15</title>
  <g id="Layer_11" data-name="Layer 11">
    <path d="M6.237,5.784,5.118,8.147a.249.249,0,0,1-.43.034l-.425-.621A5.5,5.5,0,0,0,2.6,12.621a.5.5,0,1,1-.984.185A6.5,6.5,0,0,1,3.692,6.725L3.2,6.007a.249.249,0,0,1,.187-.388L5.995,5.43A.249.249,0,0,1,6.237,5.784Zm7.68,4.887a.5.5,0,0,0-.708.011c-.108.109-.221.213-.341.313a5.472,5.472,0,0,1-4.69,1.128l.313-.789A.249.249,0,0,0,8.223,11l-2.585.391a.249.249,0,0,0-.158.4l1.613,2.058a.249.249,0,0,0,.427-.062l.287-.722a6.473,6.473,0,0,0,5.7-1.3c.147-.123.286-.252.419-.385A.5.5,0,0,0,13.917,10.671ZM6.058,2.081A5.452,5.452,0,0,1,10.2,6.634l-.855.009a.249.249,0,0,0-.211.376l1.342,2.244a.249.249,0,0,0,.429,0L12.2,6.986a.249.249,0,0,0-.219-.371l-.78.008A6.419,6.419,0,0,0,6.282,1.11a.517.517,0,0,0-.613.379A.5.5,0,0,0,6.058,2.081Z"/>
  </g>
</svg>
