<?xml version="1.0" encoding="utf-8"?>
<!-- Generator: Adobe Illustrator 20.1.0, SVG Export Plug-In . SVG Version: 6.00 Build 0)  -->
<svg version="1.1"
	 id="svg4764" inkscape:version="0.91 r13725" sodipodi:docname="ranger-station-11.svg" xmlns:cc="http://creativecommons.org/ns#" xmlns:dc="http://purl.org/dc/elements/1.1/" xmlns:inkscape="http://www.inkscape.org/namespaces/inkscape" xmlns:rdf="http://www.w3.org/1999/02/22-rdf-syntax-ns#" xmlns:sodipodi="http://sodipodi.sourceforge.net/DTD/sodipodi-0.dtd" xmlns:svg="http://www.w3.org/2000/svg"
	 xmlns="http://www.w3.org/2000/svg" xmlns:xlink="http://www.w3.org/1999/xlink" x="0px" y="0px" width="11px" height="11px"
	 viewBox="0 0 11 11" style="enable-background:new 0 0 11 11;" xml:space="preserve">
<path d="M9.8,6.7L8.9,5.3C8.8,5,8.5,4.9,8.2,5.1C8,5.2,7.9,5.5,8.1,5.8l0.9,1.5C9,7.3,9,7.4,9,7.5v0C9,7.8,8.8,8,8.5,8H8l0-0.5
	c0-0.1,0-0.3-0.1-0.4C7.7,7,7.3,7,7.1,7.1l-1,1c0,0,0,0,0,0C6,8.3,6,8.7,6.1,8.9l1,1c0.2,0.2,0.5,0.2,0.7,0C8,9.8,8,9.6,8,9.5L8,9
	h0.5C9.3,9,10,8.3,10,7.5C10,7.2,9.9,7,9.8,6.7z"/>
<path d="M2.5,9l1.7,0c0.3,0,0.5-0.2,0.5-0.5C4.7,8.2,4.5,8,4.2,8L2.5,8C2.4,8,2.3,8,2.3,7.9l0,0C2,7.8,1.9,7.5,2.1,7.3l0.3-0.4
	l0.4,0.2C2.9,7.1,3,7.2,3.1,7.1c0.3-0.1,0.4-0.3,0.4-0.6L3.1,5.1c0,0,0,0,0,0C3,4.9,2.8,4.7,2.5,4.8L1.1,5.2
	C0.9,5.2,0.7,5.5,0.8,5.8C0.8,5.9,0.9,6,1,6.1l0.4,0.2L1.2,6.8C0.8,7.5,1,8.4,1.7,8.8C2,8.9,2.2,9,2.5,9z"/>
<path d="M4.2,1.6L3.3,3.1C3.2,3.3,3.3,3.6,3.5,3.7c0.2,0.1,0.5,0.1,0.7-0.2l0.9-1.5c0-0.1,0.1-0.1,0.2-0.2l0,0
	c0.2-0.1,0.5-0.1,0.7,0.2l0.3,0.4L5.8,2.7C5.6,2.8,5.6,2.9,5.5,3C5.4,3.3,5.6,3.6,5.9,3.7L7.2,4c0,0,0,0,0,0
	c0.3,0.1,0.5-0.1,0.6-0.4l0.4-1.4C8.3,2,8.1,1.8,7.9,1.7c-0.1,0-0.3,0-0.4,0.1L7.1,2L6.8,1.6c-0.4-0.7-1.3-1-2-0.5
	C4.5,1.1,4.3,1.3,4.2,1.6z"/>
</svg>
