<?xml version="1.0" encoding="utf-8"?>
<!-- Generator: Adobe Illustrator 19.2.1, SVG Export Plug-In . SVG Version: 6.00 Build 0)  -->
<!DOCTYPE svg PUBLIC "-//W3C//DTD SVG 1.1//EN" "http://www.w3.org/Graphics/SVG/1.1/DTD/svg11.dtd">
<svg version="1.1"
	 id="svg4619" inkscape:version="0.91 r13725" sodipodi:docname="religious-muslim-15.svg" xmlns:cc="http://creativecommons.org/ns#" xmlns:dc="http://purl.org/dc/elements/1.1/" xmlns:inkscape="http://www.inkscape.org/namespaces/inkscape" xmlns:rdf="http://www.w3.org/1999/02/22-rdf-syntax-ns#" xmlns:sodipodi="http://sodipodi.sourceforge.net/DTD/sodipodi-0.dtd" xmlns:svg="http://www.w3.org/2000/svg"
	 xmlns="http://www.w3.org/2000/svg" xmlns:xlink="http://www.w3.org/1999/xlink" x="0px" y="0px" width="15px" height="15px"
	 viewBox="0 0 15 15" style="enable-background:new 0 0 15 15;" xml:space="preserve">
<path id="path7552-2-1" inkscape:connector-curvature="0" sodipodi:nodetypes="ssscssscsccccccccccc" d="M6.7941,0C3,0,0,3,0,6.7941
	s3,6.7941,6.7941,6.7941c2.1176,0,4.4118-0.7059,5.6471-2.2941C11.6471,11.8235,10.1471,12.4412,9,12.4412
	c-2.9118,0-5.1176-2.9118-5.1176-5.8235S6.0882,1.1471,9,1.1471c1.0588,0,2.5588,0.6176,3.4412,1.1471
	C11.2059,0.7059,8.9118,0,6.7941,0z M11,3l-1,2.5H7L9.5,7l-1,3L11,8.5l2.5,1.5l-1-3L15,5.5h-3L11,3z"/>
</svg>
