<?xml version="1.0" encoding="UTF-8"?>
<svg height="15" viewBox="0 0 15 15" width="15" xmlns="http://www.w3.org/2000/svg" id="religious-muslim">
  <g>
    <path d="m6.7941.600006c-3.7941 0-6.7941 3.000004-6.7941 6.794104 0 3.79409 3 6.79409 6.7941 6.79409 2.1176 0 4.4118-.7059 5.6471-2.2941-.7941.5294-2.2941 1.1471-3.4412 1.1471-2.9118 0-5.1176-2.9118-5.1176-5.82349 0-2.9117 2.2058-5.4706 5.1176-5.4706 1.0588 0 2.5588.6176 3.4412 1.1471-1.2353-1.5883-3.5294-2.294204-5.6471-2.294204zm4.2059 3.000004-1 2.5h-3l2.5 1.5-1 2.99999 2.5-1.49999 2.5 1.49999-1-2.99999 2.5-1.5h-3z"/>
  </g>
</svg>