<?xml version="1.0" encoding="utf-8"?>
<!-- Generator: Adobe Illustrator 19.2.1, SVG Export Plug-In . SVG Version: 6.00 Build 0)  -->
<svg version="1.1" id="Layer_1" xmlns="http://www.w3.org/2000/svg" xmlns:xlink="http://www.w3.org/1999/xlink" x="0px" y="0px"
	 width="11px" height="11px" viewBox="0 0 11 11" style="enable-background:new 0 0 11 11;" xml:space="preserve">
<title>buildings</title>
<path d="M8.8,8C9.5,7.9,10,7.2,10,6.5C10,5.7,9.3,5,8.5,5S7,5.7,7,6.5C7,7.2,7.5,7.9,8.2,8v1.5H6.4H6V1H2v8.5H1V10h1h4.4h1.9h0.5H10
	V9.5H8.8V8z M3,2h2v1H3V2z M3,4h2v1H3V4z M3,6h2v1H3V6z"/>
</svg>
