<?xml version="1.0" encoding="UTF-8"?>
<svg height="15" viewBox="0 0 15 15" width="15" xmlns="http://www.w3.org/2000/svg" id="restaurant-pizza">
  <g>
    <path d="m1.39264 7.93149-1.3681039-.6167c1.5196439-3.35969 4.2993439-5.98717 7.7392039-7.31540035l.027.06999995.5115 1.3306004-.0037.0013c-3.0653 1.19296-5.54331 3.53616-6.9057 6.53zm10.96306 4.96001-9.93566-4.47851c1.2533-2.75494 3.53341-4.91118 6.354-6.0088l.0033-.0013.8163 2.1222c-.0281-.0022-.0521-.0162-.0808-.0162-.17607-.00099-.34961.04181-.50503.12454-.15541.08274-.28782.20282-.3853.34943-.09749.14661-.15699.31517-.17316.49049s.01151.35191.08053.51388c.06903.16197.17724.30424.3149.414s.30046.18358.47373.21481c.17327.03122.35159.01888.51891-.03592.16728-.0548.31838-.15035.43958-.27803l2.413 6.27291c.0177.046.0213.0962.0104.1443s-.0358.0918-.0717.1257c-.0358.0338-.0809.0563-.1295.0645s-.0985.0017-.1435-.0185zm-4.92996-5.37271c.00002-.18285-.05419-.36161-.15576-.51365-.10157-.15205-.24596-.27056-.41488-.34055-.16893-.06999-.35482-.08831-.53416-.05265-.17935.03566-.34409.1237-.47339.25299s-.21736.29402-.25304.47336-.01738.36523.05259.53417c.06997.16893.18847.31333.3405.41492.15204.10159.33078.15581.51364.15581.12142-.00003.24165-.02397.35382-.07047s.21408-.11464.29991-.20052c.08583-.08589.1539-.18784.20033-.30004.04642-.1122.07029-.23245.07024-.35387zm3.01686 2.03c0-.18299-.0542-.36187-.1559-.51401-.1017-.15215-.2461-.27074-.4152-.34076-.16906-.07003-.35509-.08835-.53456-.05265s-.34433.12381-.47372.2532c-.12939.1294-.21751.29425-.25321.47372s-.01737.3655.05265.53456c.07003.16905.18861.31355.34076.41525.15215.1016.33103.1559.51402.1559.12156 0 .24193-.024.35423-.0706.11229-.0466.21433-.1148.30023-.2008s.154-.1881.2004-.30049c.0464-.11235.0703-.23275.0701-.35432z"/>
  </g>
</svg>