<svg xmlns="http://www.w3.org/2000/svg" width="15" height="15" viewBox="0 0 15 15"><title>fare</title><g id="icon_concepts:_food_drink" data-name="icon concepts: food &amp; drink"><g id="restaurant-noodles-final"><path d="M4.457,11.9665,1,8,.9882,7H14V8l-3.4961,3.9821ZM3.9882,2.5a.5.5,0,0,0-1,0v.5671l-1.7969.3675a.25.25,0,1,0,.094.4911l1.7029-.2776v.5662l-1.75.0357a.25.25,0,0,0,0,.5l1.75.0357V5.998h1Zm9.5,1.5-7.5.153V3.1592l7.594-1.2378a.5.5,0,0,0-.1881-.9822L5.9792,2.4555a.4963.4963,0,0,0-.991.0445v.1582l-.493.1008v.6435l.493-.08v.8514l-.493.01v.633L13.4882,5a.5.5,0,0,0,0-1Zm-3.5,9.0063H5.0055v.5694H9.9882Z"/></g></g></svg>