<svg xmlns="http://www.w3.org/2000/svg" width="11" height="11" viewBox="0 0 11 11"><title>fare</title><g id="icon_concepts:_food_drink" data-name="icon concepts: food &amp; drink"><g id="restaurant-pizza-final"><path d="M1.7738,6.3439.86,5.9376A10.038,10.038,0,0,1,5.9376.86l.4064.9144h0a9.0333,9.0333,0,0,0-4.57,4.57Z"/><path d="M9.7379,9.41,7.825,5.1062a.7116.7116,0,0,1-.3458.0987A.7267.7267,0,0,1,7.24,3.79L6.75,2.6877h0A8.03,8.03,0,0,0,2.6877,6.75L9.41,9.7379A.2483.2483,0,0,0,9.7379,9.41ZM5.5,7.0281a.5162.5162,0,1,1,.5162-.5162A.5162.5162,0,0,1,5.5,7.0281Zm2,1.165A.693.693,0,1,1,8.1931,7.5.6929.6929,0,0,1,7.5,8.1931Z"/></g></g></svg>