<?xml version="1.0" encoding="UTF-8"?>
<svg id="restaurant-pizza-11" xmlns="http://www.w3.org/2000/svg" width="11" height="11" viewBox="0 0 11 11">
  <g id="restaurant-pizza-11">
    <path d="M1.9366,6.5067,1.0224,6.1A10.038,10.038,0,0,1,6.1,1.0224l.4064.9144h0a9.0333,9.0333,0,0,0-4.57,4.57ZM9.62,9.9471,2.897,6.9594A8.03,8.03,0,0,1,6.9594,2.897h0l.391.88a.7476.7476,0,0,0-.6288.7318.7578.7578,0,0,0,.7578.7578.7424.7424,0,0,0,.4578-.1694l2.01,4.5223A.2482.2482,0,0,1,9.62,9.9471ZM6.2524,6.4955a.75.75,0,1,0-.75.75A.75.75,0,0,0,6.2524,6.4955Zm1.9841,1.006a.74.74,0,1,0-.74.74A.74.74,0,0,0,8.2365,7.5015Z"/>
  </g>
</svg>