<svg xmlns="http://www.w3.org/2000/svg" width="11" height="11" viewBox="0 0 11 11"><title>fare</title><g id="icon_concepts:_food_drink" data-name="icon concepts: food &amp; drink"><g id="restaurant-seafood-final"><path d="M9.978,7.7246V7.2754H8.7418L7.7169,6.4343l.679-1.1059c.0152,0,.0255.0049.0411.0049,0,0,1.5408,0,1.5408-1.4444A4.9593,4.9593,0,0,0,8.437,1l.5466,3H8L7,2S6.959,3.9665,6.9926,4a1.4065,1.4065,0,0,0,.6862,1.1574L7.17,5.9857l-.12-.0984a2.5519,2.5519,0,0,0-3.11,0l-.1359.1116L3.291,5.1611A1.4056,1.4056,0,0,0,3.9861,4c0-.031-.0075-2-.0075-2l-1,2-1.0415.0009L2.5417,1A4.9615,4.9615,0,0,0,1.0038,3.8889c0,1.4444,1.5379,1.4444,1.5379,1.4444.0121,0,.02-.0036.032-.0038l.6845,1.1174-1.01.8285H.9951v.4492h1a.4832.4832,0,0,0,.1653.3273A3.3267,3.3267,0,0,0,1.34,9.37l.4258.1445a2.8487,2.8487,0,0,1,.87-1.2875l1.8989.7621,1.842.017,1.9654-.7746a2.8488,2.8488,0,0,1,.864,1.283L9.6323,9.37A3.3225,3.3225,0,0,0,8.82,8.06a.4853.4853,0,0,0,.1756-.3354ZM3.47,7.9637A.4637.4637,0,1,1,3.9338,7.5.4638.4638,0,0,1,3.47,7.9637Zm4.0232,0A.4637.4637,0,1,1,7.957,7.5.4637.4637,0,0,1,7.4933,7.9637Z"/></g></g></svg>