<?xml version="1.0" encoding="UTF-8"?>
<svg id="restaurant-seafood-11" xmlns="http://www.w3.org/2000/svg" width="11" height="11" viewBox="0 0 11 11">
  <g id="restaurant-seafood-11">
    <path d="M8.478,7.1855H9.9722v.6H8.6465A3.3857,3.3857,0,0,1,9.6982,9.3311L9.13,9.5244A2.7584,2.7584,0,0,0,7.87,7.9763L6.3715,8.9914,4.53,8.9744,3.0376,8.0105A2.7482,2.7482,0,0,0,1.832,9.5244l-.5683-.1933A3.3857,3.3857,0,0,1,2.3154,7.7852H.99v-.6H2.4882a.539.539,0,0,1,.0727-.081l.7122-.6387-.7-1.1433c-.0146,0-.0246.0048-.04.0048,0,0-1.5334,0-1.5334-1.4445A4.9644,4.9644,0,0,1,2.5334.994L2,3V4H3l.9918-2.006v2a1.4231,1.4231,0,0,1-.7024,1.159l.5132.838.132-.1184a2.5517,2.5517,0,0,1,3.11,0l.116.1043.5148-.8381A1.4264,1.4264,0,0,1,7.0072,3.994v-2L8,4H9V3L8.4656.994A4.9682,4.9682,0,0,1,9.994,3.8828c0,1.4445-1.5284,1.4445-1.5284,1.4445-.0294,0-.05-.0083-.0777-.0094L7.6907,6.4531l.6729.6049A.5511.5511,0,0,1,8.478,7.1855Z"/>
  </g>
</svg>