<svg xmlns="http://www.w3.org/2000/svg" width="15" height="15" viewBox="0 0 15 15"><title>fare</title><g id="icon_concepts:_food_drink" data-name="icon concepts: food &amp; drink"><g id="restaurant-pizza-final"><path d="M2.6018,8.8618,1.2338,8.245A14.0482,14.0482,0,0,1,8.9729.93l.5385,1.4-.0036.0014a12.6125,12.6125,0,0,0-6.9057,6.53Zm10.8469,4.89L3.5132,9.2734a11.6035,11.6035,0,0,1,6.354-6.0088l.0033-.0012.8163,2.1222c-.028-.0022-.0522-.0163-.0808-.0163A1.062,1.062,0,1,0,11.37,7.1625l2.4127,6.273A.2487.2487,0,0,1,13.4487,13.7515Zm-5.1778-5.29a.7917.7917,0,1,0-.7917.7917A.7918.7918,0,0,0,8.2709,8.4614Zm3.1482,2.0631a.9252.9252,0,1,0-.9252.9253A.9251.9251,0,0,0,11.4191,10.5245Z"/></g></g></svg>