<?xml version="1.0" encoding="UTF-8"?>
<svg id="restaurant-noodle-11" xmlns="http://www.w3.org/2000/svg" width="11" height="11" viewBox="0 0 11 11">
  <g id="restaurant-noodle-11">
    <path d="M3.4688,8.81,1,6.625V6h9v.625L7.5156,8.8259ZM2.9934,1.7137a.3324.3324,0,0,0-.6648,0v.88l-1.0979.24a.25.25,0,0,0,.0928.4913L2.3286,3.148V3.58L1.25,3.6019a.25.25,0,1,0,0,.5l1.0786.0221V5.3249h.6648ZM9.5,3.3519l-.4912.1932-4.1764.046V2.6652l4.0543-.7879.5192.1141A.5.5,0,1,0,9.22,1.0088L8.7751,1.28l-3.9427.8471V1.7137a.3324.3324,0,0,0-.6648,0v.5575l-.6259.1368v.4788l.6259-.11v.8208L3.5417,3.61v.4863l5.4566.0394L9.5,4.3519a.5.5,0,1,0,0-1ZM7.5313,9.7435H3.4531V9.988H7.5313Z"/>
  </g>
</svg>