<svg xmlns="http://www.w3.org/2000/svg" width="15" height="15" viewBox="0 0 15 15"><title>fare</title><g id="icon_concepts:_food_drink" data-name="icon concepts: food &amp; drink"><g id="restaurant-seafood-final"><path d="M10.5861,9.3884,11.59,7.7543a2.1821,2.1821,0,0,0,.3579.0465,2.0181,2.0181,0,0,0,2.0515-2.08c0-2.08-1.98-4.7026-1.98-4.7026l.5232,4.8626H11.3658l-1.3314-2.88s-.0546,2.8315-.01,2.88a2.2342,2.2342,0,0,0,.635,1.4613L9.7842,8.7675l-.07-.0544a3.85,3.85,0,0,0-4.4784,0l-.0935.0725-.8455-1.38a2.1772,2.1772,0,0,0,.71-1.5244c0-.0446-.01-2.88-.01-2.88l-1.3413,2.88-1.3.0012.6279-4.8638S.9953,3.6411.9953,5.7209A2.0332,2.0332,0,0,0,3.07,7.8008a2.1724,2.1724,0,0,0,.2658-.0343L4.34,9.4066l-.9659.7477H.9951v.6484H2.5786a.5608.5608,0,0,0-.0735.6554,4.7889,4.7889,0,0,0-1.0129,1.7138l.6133.209a4.1553,4.1553,0,0,1,.9248-1.54,1.1558,1.1558,0,0,0,.31.0434l2.7516,1.0418,2.6522.0231,2.8644-1.0649a1.1794,1.1794,0,0,0,.288-.0348,4.1314,4.1314,0,0,1,.922,1.5309l.6133-.209a4.7905,4.7905,0,0,0-.9991-1.6986.56.56,0,0,0-.0621-.6706h1.5583v-.6484H11.5754ZM5.4778,10.96a.4641.4641,0,1,1,.4641-.464A.464.464,0,0,1,5.4778,10.96Zm4.0291,0a.4641.4641,0,1,1,.464-.464A.464.464,0,0,1,9.5069,10.96Z"/></g></g></svg>