<?xml version="1.0" encoding="UTF-8"?>
<svg xmlns="http://www.w3.org/2000/svg" id="road-accident" width="15" height="15" viewBox="0 0 15 15">
  <path d="M13,1.2c-0.8-0.4-1.7-0.7-2.6-0.9L9.6,4.6c0.3,0.1,0.6,0.2,1,0.4L13,1.2z M8,4.4l0.9-4.3C8,0,7,0,6.1,0.1L7,4.4&#xA;&#x9;C7.3,4.3,7.7,4.3,8,4.4z M5.4,4.6L4.6,0.3C3.7,0.5,2.8,0.9,2,1.2L4.4,5C4.8,4.9,5.1,4.7,5.4,4.6z M14,10.8l0,3.6&#xA;&#x9;c0,0.3-0.3,0.6-0.6,0.6l-1.8,0c-0.3,0-0.6-0.2-0.6-0.6V14l-7,0l0,0.4C4,14.8,3.7,15,3.4,15H1.6C1.3,15,1,14.8,1,14.4v-3.6&#xA;&#x9;c0-0.1,0-0.2,0-0.3l0.2-0.7c0.1-0.2,0.2-0.4,0.4-0.5l1.1-0.8l0.8-1.7C3.7,6.4,4,6.2,4.3,6.2c2.1-0.2,4.2-0.2,6.3,0&#xA;&#x9;c0.4,0,0.7,0.3,0.9,0.6l0.8,1.7l0,0l1.1,0.8c0.2,0.1,0.3,0.3,0.4,0.5l0.2,0.7C14,10.6,14,10.7,14,10.8z M5,10.9&#xA;&#x9;c0-0.3-0.2-0.5-0.4-0.5l-2-0.4C2.3,10,2.1,10.2,2,10.4c0,0,0,0.1,0,0.1v0.9C2,11.8,2.2,12,2.5,12h2C4.8,12,5,11.8,5,11.5V10.9z&#xA;&#x9; M11.7,9l-0.9-1.9c0-0.1-0.1-0.1-0.2-0.1c-2-0.2-4.1-0.2-6.1,0C4.4,6.9,4.3,7,4.3,7.1L3.3,9L11.7,9z M13,10.5c0-0.3-0.2-0.5-0.5-0.5&#xA;&#x9;c0,0,0,0-0.1,0l-2,0.4c-0.2,0-0.4,0.3-0.4,0.5v0.6c0,0.3,0.2,0.5,0.5,0.5h2c0.3,0,0.5-0.2,0.5-0.5L13,10.5z"/>
</svg>