<?xml version="1.0" encoding="utf-8"?>
<!-- Generator: Adobe Illustrator 19.2.1, SVG Export Plug-In . SVG Version: 6.00 Build 0)  -->
<!DOCTYPE svg PUBLIC "-//W3C//DTD SVG 1.1//EN" "http://www.w3.org/Graphics/SVG/1.1/DTD/svg11.dtd">
<svg version="1.1"
	 id="svg4764" inkscape:version="0.91+devel+osxmenu r12911" sodipodi:docname="rocket-11.svg" xmlns:cc="http://creativecommons.org/ns#" xmlns:dc="http://purl.org/dc/elements/1.1/" xmlns:inkscape="http://www.inkscape.org/namespaces/inkscape" xmlns:rdf="http://www.w3.org/1999/02/22-rdf-syntax-ns#" xmlns:sodipodi="http://sodipodi.sourceforge.net/DTD/sodipodi-0.dtd" xmlns:svg="http://www.w3.org/2000/svg"
	 xmlns="http://www.w3.org/2000/svg" xmlns:xlink="http://www.w3.org/1999/xlink" x="0px" y="0px" width="11px" height="11px"
	 viewBox="0 0 11 11" style="enable-background:new 0 0 11 11;" xml:space="preserve">
<path id="path7143" d="M9,1C7.488,1,5.4077,2.1459,4.0488,4H3C2.1988,4,1.8162,4.3675,1.5,5L1,6h1h1l1,1l1,1v1v1l1-0.5
	C6.6325,9.1838,7,8.8012,7,8V6.9512C8.8541,5.5923,10,3.512,10,2V1H9z M7.5,3C7.7761,3,8,3.2239,8,3.5S7.7761,4,7.5,4
	S7,3.7761,7,3.5S7.2239,3,7.5,3z M2.75,7.25L2.5,7.5C2,8,2,9,2,9s0.9448,0.0552,1.5-0.5l0.25-0.25L2.75,7.25z"/>
</svg>
