<?xml version="1.0" encoding="UTF-8"?>
<svg id="school-JP-11" xmlns="http://www.w3.org/2000/svg" width="11" height="11" viewBox="0 0 11 11">
  <path d="M9.25,2.25h-3V1.5a.75.75,0,1,0-1.5,0v.75h-3a.75.75,0,0,0,0,1.5h.4031a9.1387,9.1387,0,0,0,1.66,2.9668c.2183.2743.429.5208.6357.7544a6.09,6.09,0,0,1-1.9,1.3062A.75.75,0,0,0,2.94,10.2253,6.7273,6.7273,0,0,0,5.4976,8.5531,6.722,6.722,0,0,0,8.061,10.2253a.7364.7364,0,0,0,.188.0244.7464.7464,0,0,0,.7173-.5507.7557.7557,0,0,0-.5152-.9219,6.024,6.024,0,0,1-1.905-1.3064c.2066-.2335.4173-.48.6355-.7542A9.1929,9.1929,0,0,0,8.845,3.75H9.25a.75.75,0,0,0,0-1.5ZM6.0078,5.7829c-.177.2223-.3431.41-.51.6011-.1675-.1915-.3336-.3785-.5108-.6011A8.514,8.514,0,0,1,3.75,3.75H7.2469A8.574,8.574,0,0,1,6.0078,5.7829Z"/>
</svg>