<svg id="school-JP-11" xmlns="http://www.w3.org/2000/svg" width="9" height="9.5006" viewBox="0 0 9 9.5006">
  <title>school-JP-11</title>
  <path d="M9.25,1.9983h-3v-.75a.75.75,0,0,0-1.5,0v.75h-3a.75.75,0,0,0,0,1.5h.4031a9.1387,9.1387,0,0,0,1.66,2.9668c.2183.2743.429.5208.6357.7544a6.0884,6.0884,0,0,1-1.9,1.3062A.75.75,0,0,0,2.94,9.9739,6.7273,6.7273,0,0,0,5.4976,8.3017,6.722,6.722,0,0,0,8.061,9.9739a.7364.7364,0,0,0,.188.0244.7464.7464,0,0,0,.7173-.5507.7557.7557,0,0,0-.5152-.9219,6.024,6.024,0,0,1-1.905-1.3064c.2066-.2335.4173-.48.6355-.7542A9.1929,9.1929,0,0,0,8.845,3.4983H9.25a.75.75,0,0,0,0-1.5ZM6.0078,5.5315c-.177.2223-.3431.41-.51.6011-.1675-.1915-.3336-.3785-.5108-.6011A8.512,8.512,0,0,1,3.75,3.4983H7.2469A8.574,8.574,0,0,1,6.0078,5.5315Z" transform="translate(-1 -0.4983)"/>
</svg>
