<svg id="school-JP-15" xmlns="http://www.w3.org/2000/svg" width="12" height="13.0016" viewBox="0 0 12 13.0016">
  <title>school-JP-15</title>
  <path d="M12.5,3h-4V2a1,1,0,0,0-2,0V3h-4a1,1,0,0,0,0,2h.67A10.8169,10.8169,0,0,0,5.15,8.8113c.3331.4313.6594.8248.9785,1.1936a14.3825,14.3825,0,0,1-2.6074,2.117,1,1,0,0,0,.955,1.7581h0A15.65,15.65,0,0,0,7.5,11.4621,15.65,15.65,0,0,0,10.5239,13.88a1,1,0,1,0,.9551-1.7578,14.3789,14.3789,0,0,1-2.6073-2.1171c.3191-.3688.6453-.7622.9784-1.1935A10.818,10.818,0,0,0,11.83,5h.67a1,1,0,0,0,0-2ZM8.2671,7.5887c-.2614.3385-.5154.6413-.767.937-.2517-.2957-.5057-.5985-.7672-.937A9.5885,9.5885,0,0,1,5.2676,5H9.7319A9.5789,9.5789,0,0,1,8.2671,7.5887Z" transform="translate(-1.5 -1)"/>
</svg>
