<?xml version="1.0" encoding="UTF-8" standalone="no"?>
<!-- Generator: Adobe Illustrator 17.1.0, SVG Export Plug-In . SVG Version: 6.00 Build 0)  -->

<svg
   xmlns:dc="http://purl.org/dc/elements/1.1/"
   xmlns:cc="http://creativecommons.org/ns#"
   xmlns:rdf="http://www.w3.org/1999/02/22-rdf-syntax-ns#"
   xmlns:svg="http://www.w3.org/2000/svg"
   xmlns="http://www.w3.org/2000/svg"
   xmlns:sodipodi="http://sodipodi.sourceforge.net/DTD/sodipodi-0.dtd"
   xmlns:inkscape="http://www.inkscape.org/namespaces/inkscape"
   version="1.1"
   id="svg4619"
   x="0px"
   y="0px"
   viewBox="0 0 15 15"
   enable-background="new 0 0 15 15"
   xml:space="preserve"
   inkscape:version="0.91+devel+osxmenu r12911"
   sodipodi:docname="school-15.svg"
   width="15"
   height="15"><metadata
     id="metadata8"><rdf:RDF><cc:Work
         rdf:about=""><dc:format>image/svg+xml</dc:format><dc:type
           rdf:resource="http://purl.org/dc/dcmitype/StillImage" /><dc:title /></cc:Work></rdf:RDF></metadata><defs
     id="defs6" /><sodipodi:namedview
     pagecolor="#ffffff"
     bordercolor="#666666"
     borderopacity="1"
     objecttolerance="10"
     gridtolerance="10"
     guidetolerance="10"
     inkscape:pageopacity="0"
     inkscape:pageshadow="2"
     inkscape:window-width="1002"
     inkscape:window-height="739"
     id="namedview4"
     showgrid="false"
     inkscape:snap-bbox="true"
     inkscape:bbox-paths="true"
     inkscape:bbox-nodes="true"
     inkscape:snap-bbox-edge-midpoints="true"
     inkscape:snap-bbox-midpoints="true"
     inkscape:object-paths="true"
     inkscape:snap-intersection-paths="true"
     inkscape:object-nodes="true"
     inkscape:snap-smooth-nodes="true"
     inkscape:zoom="22.627417"
     inkscape:cx="8.8940297"
     inkscape:cy="8.0716757"
     inkscape:window-x="1"
     inkscape:window-y="0"
     inkscape:window-maximized="0"
     inkscape:current-layer="svg4619"
     showguides="false"
     inkscape:guide-bbox="true"><inkscape:grid
       type="xygrid"
       id="grid3336"
       spacingx="0.5"
       spacingy="0.5"
       color="#ff0000"
       opacity="0.1254902"
       empspacing="2" /><sodipodi:guide
       position="6.8767349,9.1234884"
       orientation="0.70710678,0.70710678"
       id="guide7589" /><sodipodi:guide
       position="8.5,8.25"
       orientation="0.71016186,-0.70403845"
       id="guide7610" /></sodipodi:namedview><path
     style="fill:#000000;fill-opacity:1;fill-rule:evenodd;stroke:none;stroke-width:1px;stroke-linecap:butt;stroke-linejoin:miter;stroke-opacity:1"
     d="M 10.867188 1.2539062 C 10.749999 1.2773438 10.625 1.3398437 10.5 1.4648438 L 6.5 5.5 C 6.00431 6 6 7 6 7 L 6 8 L 7 8 C 7.5366691 8 8 8 8.5 7.5 C 8.5 7.5 10.999253 4.975695 12.5 3.4648438 C 12.5 3.4648438 13.017389 2.982233 12.5 2.4648438 L 11.5 1.4648438 C 11.5 1.4648438 11.21875 1.1835939 10.867188 1.2539062 z M 1.7128906 3.8964844 C 1.3115566 3.833253 1 4.0579428 1 4.5996094 L 1 11 L 6 13 C 6 14 7 14 7 14 L 8 14 C 8 14 9 14 9 13 L 14 11 L 14 4.5996094 C 14 4.1660829 13.797164 3.9446744 13.511719 3.9023438 L 9.2070312 8.2070312 L 8.7070312 8.7070312 C 8.5195197 8.8945677 8.265199 8.9999489 8 9 L 8 12.5 L 7 12.5 L 7 9 L 6 9 C 5.4477381 8.9999448 5.0000552 8.5522619 5 8 L 5 5.1992188 L 2.1367188 4.0546875 C 1.9913806 3.9707764 1.8466676 3.9175615 1.7128906 3.8964844 z M 7.25 5.5 L 8.5 6.75 L 8.1269531 7.1269531 C 7.768307 7.4887185 7.3186887 7.5 7 7.5 L 6.5 7.5 L 6.5 7 C 6.5 6.6813113 6.6280379 6.1280333 6.8769531 5.8769531 L 7.25 5.5 z "
     id="path6911" /></svg>
