<?xml version="1.0" encoding="UTF-8"?>
<svg width="15" height="15" viewBox="0 0 15 15" xmlns="http://www.w3.org/2000/svg" id="school">
  <path d="m3.165 2.806 2.405.683.41-1.442a.5.5 0 0 0-.344-.618l-1.443-.41a.5.5 0 0 0-.618.345l-.41 1.442Zm-2.146 7.558a.5.5 0 0 0 0 .276l.55 1.897a.15.15 0 0 0 .245.07l1.464-1.326a.5.5 0 0 0 .146-.234l1.873-6.596-2.405-.683-1.873 6.596ZM10 5c-2.25 0-3-.75-3-3 2.25 0 3 .75 3 3Zm-1.4 7.984a.866.866 0 0 0 .25-.092c.405-.209.896-.21 1.301 0 .09.047.179.082.255.093 1.95.292 4.68-3.72 3.143-6.417-.406-.712-1.278-1.2-2.049-1.2a2.44 2.44 0 0 0-1.46.477.964.964 0 0 1-1.09.01 2.715 2.715 0 0 0-1.563-.488c-.548 0-1.125.211-1.497.633l-.84 3c.32 2.164 2.14 4.2 3.55 3.984Z"/>
</svg>