<?xml version="1.0" encoding="utf-8"?>
<!-- Generator: Adobe Illustrator 19.2.1, SVG Export Plug-In . SVG Version: 6.00 Build 0)  -->
<svg version="1.1" id="Layer_1" xmlns="http://www.w3.org/2000/svg" xmlns:xlink="http://www.w3.org/1999/xlink" x="0px" y="0px"
	 width="15px" height="15px" viewBox="0 0 15 15" style="enable-background:new 0 0 15 15;" xml:space="preserve">
<title>scooter-15</title>
<path d="M14,12.5c0,0.8-0.7,1.5-1.5,1.5S11,13.3,11,12.5s0.7-1.5,1.5-1.5S14,11.7,14,12.5z M3.5,14c0.6,0,1.2-0.4,1.4-1l-2.8,0
	C2.3,13.6,2.9,14,3.5,14z M13.5,6H13V4h0.5C13.8,4,14,3.8,14,3.5S13.8,3,13.5,3H13V1.8c0-0.1-0.1-0.2-0.2-0.2H9.2
	C9.1,1.5,9,1.6,9,1.8S9.1,2,9.2,2H12v4.6L7.6,11H6V6h1.8C7.9,6,8,5.9,8,5.8S7.9,5.5,7.8,5.5H2.2C2.1,5.5,2,5.6,2,5.8S2.1,6,2.2,6H3
	v2H2.5C1.7,8,1,8.7,1,9.5v2C1,11.8,1.2,12,1.5,12h5.9c0.4,0,0.8-0.2,1.1-0.4v0L10,10h3.5c0.3,0,0.5-0.2,0.5-0.5v-3
	C14,6.2,13.8,6,13.5,6z"/>
</svg>
