<svg id="Layer_1" data-name="Layer 1" xmlns="http://www.w3.org/2000/svg" width="11" height="11" viewBox="0 0 11 11">
  <title>scooter-11</title>
  <path d="M10,8.5A1.5,1.5,0,1,1,8.5,7,1.5,1.5,0,0,1,10,8.5Zm-8.9028.49A1.5006,1.5006,0,0,0,3.934,8.9887ZM3.9688,4H4.75a0.25,0.25,0,0,0,0-.5H2.2564V3.5032L2.2488,3.5a0.25,0.25,0,0,0,0,.5l0.0076-.0032V4H2.9688V5h-0.5a1.5,1.5,0,0,0-1.5,1.5v1a0.5,0.5,0,0,0,.5.5H3.9882L7.0064,6H9.4979A0.5021,0.5021,0,0,0,10,5.4979v-1.01a0.5,0.5,0,0,0-.5-0.5H9V2H9.5a0.5,0.5,0,0,0,0-1H5.2813a0.25,0.25,0,0,0,0,.5H8V4.1412L3.9688,6.8059"/>
</svg>
