<svg id="Layer_1" data-name="Layer 1" xmlns="http://www.w3.org/2000/svg" width="15" height="15" viewBox="0 0 15 15">
  <title>scooter-15</title>
  <path d="M14,12.5A1.5,1.5,0,1,1,12.5,11,1.5,1.5,0,0,1,14,12.5ZM3.5,14a1.5006,1.5006,0,0,0,1.4186-1.0113L2.0818,12.99A1.5007,1.5007,0,0,0,3.5,14Zm10-8H13V4h0.5a0.5,0.5,0,0,0,0-1H13V1.75a0.25,0.25,0,0,0-.25-0.25H9.25a0.25,0.25,0,0,0,0,.5H12V6.5868L7.5869,11H6V6H7.75a0.25,0.25,0,0,0,0-.5H2.25a0.25,0.25,0,0,0,0,.5H3V8H2.5A1.5,1.5,0,0,0,1,9.5v2a0.5,0.5,0,0,0,.5.5H7.3785a1.4957,1.4957,0,0,0,1.0607-.4393l0,0.0015L10.001,10h3.4969A0.5021,0.5021,0,0,0,14,9.4979V6.5A0.5,0.5,0,0,0,13.5,6Z"/>
</svg>
