<?xml version="1.0" encoding="utf-8"?>
<!-- Generator: Adobe Illustrator 22.1.0, SVG Export Plug-In . SVG Version: 6.00 Build 0)  -->
<svg version="1.1" id="start_here" xmlns="http://www.w3.org/2000/svg" xmlns:xlink="http://www.w3.org/1999/xlink" x="0px" y="0px"
	 width="15px" height="15px" viewBox="0 0 15 15" enable-background="new 0 0 15 15" xml:space="preserve">
<g>
	<path d="M9.5,7C9.086,6.7652,8.6109,6.4041,8.1848,6.0524l-2.1743-2.831C5.8204,2.9729,5.4644,2.927,5.2227,3.1172
		C5.0977,3.214,5.0262,3.3536,5.0097,3.5H5V5H3.2087C3.0751,5,2.9469,4.9469,2.8524,4.8524C2.8524,4.8524,2.5,4,2,4
		S1.4997,4,1.4997,4C1.2238,4,1,4.2237,1,4.4997V6.25v0.634V9h5.5c1.5,0,2,1,3.5,1s4,0,4,0V9.5C14,8,10.5469,7.5938,9.5,7z"/>
	<path d="M9.5,11c-0.6318,0-1.0469-0.207-1.5264-0.4473C7.4556,10.2939,6.8682,10,6,10H1.5004H1v1.4996
		C1,11.7759,1.224,12,1.5004,12h3.9993C5.776,12,6,11.7759,6,11.4996V11c0.6318,0,1.0464,0.207,1.5264,0.4473
		C8.0449,11.7061,8.6318,12,9.5,12h4c0.2764,0,0.5-0.2236,0.5-0.5V11H9.5z"/>
</g>
</svg>
