<?xml version="1.0" encoding="utf-8"?>
<!-- Generator: Adobe Illustrator 22.1.0, SVG Export Plug-In . SVG Version: 6.00 Build 0)  -->
<svg version="1.1" id="start_here" xmlns="http://www.w3.org/2000/svg" xmlns:xlink="http://www.w3.org/1999/xlink" x="0px" y="0px"
	 width="11px" height="11px" viewBox="0 0 11 11" style="enable-background:new 0 0 11 11;" xml:space="preserve">
<g>
	<path d="M9.5,8h-3C6.1514,8,5.8623,7.8071,5.5273,7.584C5.1172,7.3101,4.6514,7,4,7H3.9283H1.5H1v1.4283C1,8.744,1.256,9,1.5717,9
		h2.3566C4.244,9,4.5,8.744,4.5,8.4283V8.1289C4.6548,8.2046,4.8082,8.3062,4.9727,8.416C5.3828,8.6895,5.8486,9,6.5,9h3
		C9.7764,9,10,8.7764,10,8.5S9.7764,8,9.5,8z"/>
	<path d="M8.9962,5H7.5l-2-1.5V3c0-0.55-0.45-1-1-1H2V1.5C2,1.2238,1.7761,1,1.5,1S1,1.2238,1,1.5v1.2726V3v1.5192v0.439V6h3.5
		C5.5,6,6,7,7,7c1.0385,0,3,0,3,0V6.0038C10,5.4494,9.5506,5,8.9962,5z"/>
</g>
</svg>
