<?xml version="1.0" encoding="utf-8"?>
<!-- Generator: Adobe Illustrator 22.1.0, SVG Export Plug-In . SVG Version: 6.00 Build 0)  -->
<svg version="1.1" id="start_here" xmlns="http://www.w3.org/2000/svg" xmlns:xlink="http://www.w3.org/1999/xlink" x="0px" y="0px"
	 width="15px" height="15px" viewBox="0 0 15 15" style="enable-background:new 0 0 15 15;" xml:space="preserve">
<g>
	<path d="M13.5,11h-4c-0.6318,0-1.0469-0.207-1.5264-0.4473C7.4556,10.2939,6.8682,10,6,10H5.4996H1.5004H1.5
		C1.2236,10,1,10.2236,1,10.5c0,0.0001,0.0001,0.0001,0.0001,0.0002S1,10.5003,1,10.5004v0.9993C1,11.7759,1.224,12,1.5004,12
		h3.9993C5.776,12,6,11.7759,6,11.4996V11c0.6318,0,1.0464,0.207,1.5264,0.4473C8.0449,11.7061,8.6318,12,9.5,12h4
		c0.2764,0,0.5-0.2236,0.5-0.5S13.7764,11,13.5,11z"/>
	<path d="M12.25,7.5h-1.0229c-0.148,0-0.2928-0.0438-0.416-0.126L8.4435,5.7957C8.1664,5.611,8,5.2999,8,4.9669V4.116
		C8,3.4996,7.5004,3,6.884,3H2.116C2.0749,3,2.04,3.0191,2,3.0234V2.5C2,2.2238,1.7761,2,1.5,2S1,2.2238,1,2.5v1.616V5v1.25v0.634V9
		h5.5c1.5,0,2,1,3.5,1s4,0,4,0s0-0.3358,0-0.75C14,8.2835,13.2165,7.5,12.25,7.5z"/>
</g>
</svg>
