<svg id="Layer_1" data-name="Layer 1" xmlns="http://www.w3.org/2000/svg" width="15" height="15" viewBox="0 0 15 15">
  <title>shop-15</title>
  <path d="M13.33,6H11.5L11.11,3.67A2,2,0,0,0,9.7,2.18,3.76,3.76,0,0,0,8.62,2H6.38a3.76,3.76,0,0,0-1.08.18A2,2,0,0,0,3.89,3.67L3.5,6H1.67a0.5,0.5,0,0,0-.48.65l1.88,6.3h0A1.5,1.5,0,0,0,4.5,14h6a1.5,1.5,0,0,0,1.42-1.05h0l1.88-6.3A0.5,0.5,0,0,0,13.33,6ZM4.52,6L4.88,3.83a0.91,0.91,0,0,1,.74-0.7A2.85,2.85,0,0,1,6.38,3H8.62a2.85,2.85,0,0,1,.77.13,0.91,0.91,0,0,1,.74.7L10.48,6h-6Z"/>
</svg>
