<?xml version="1.0" encoding="UTF-8" standalone="no"?>
<!-- Generator: Adobe Illustrator 17.1.0, SVG Export Plug-In . SVG Version: 6.00 Build 0)  -->

<svg
   xmlns:dc="http://purl.org/dc/elements/1.1/"
   xmlns:cc="http://creativecommons.org/ns#"
   xmlns:rdf="http://www.w3.org/1999/02/22-rdf-syntax-ns#"
   xmlns:svg="http://www.w3.org/2000/svg"
   xmlns="http://www.w3.org/2000/svg"
   xmlns:sodipodi="http://sodipodi.sourceforge.net/DTD/sodipodi-0.dtd"
   xmlns:inkscape="http://www.inkscape.org/namespaces/inkscape"
   version="1.1"
   id="svg4619"
   x="0px"
   y="0px"
   height='15'
   width='15'
   viewBox="0 0 15 15"
   enable-background="new 0 0 15 15"
   xml:space="preserve"
   inkscape:version="0.91+devel+osxmenu r12911"
   sodipodi:docname="shop-15.svg"><metadata
     id="metadata8"><rdf:RDF><cc:Work
         rdf:about=""><dc:format>image/svg+xml</dc:format><dc:type
           rdf:resource="http://purl.org/dc/dcmitype/StillImage" /><dc:title></dc:title></cc:Work></rdf:RDF></metadata><defs
     id="defs6" /><sodipodi:namedview
     pagecolor="#ffffff"
     bordercolor="#666666"
     borderopacity="1"
     objecttolerance="10"
     gridtolerance="10"
     guidetolerance="10"
     inkscape:pageopacity="0"
     inkscape:pageshadow="2"
     inkscape:window-width="883"
     inkscape:window-height="658"
     id="namedview4"
     showgrid="true"
     inkscape:snap-bbox="true"
     inkscape:bbox-paths="true"
     inkscape:bbox-nodes="true"
     inkscape:snap-bbox-edge-midpoints="true"
     inkscape:snap-bbox-midpoints="true"
     inkscape:snap-nodes="true"
     inkscape:object-paths="true"
     inkscape:snap-intersection-paths="true"
     inkscape:object-nodes="true"
     inkscape:snap-smooth-nodes="true"
     inkscape:zoom="32"
     inkscape:cx="11.877082"
     inkscape:cy="8.6086223"
     inkscape:window-x="327"
     inkscape:window-y="11"
     inkscape:window-maximized="0"
     inkscape:current-layer="svg4619"><inkscape:grid
       type="xygrid"
       id="grid3336"
       spacingx="0.5"
       spacingy="0.5"
       empspacing="2"
       color="#ff0000"
       opacity="0.1254902" /></sodipodi:namedview><path
     style="opacity:1;fill:#000000;fill-opacity:1;stroke:none;stroke-width:0.5;stroke-linecap:round;stroke-linejoin:round;stroke-miterlimit:4;stroke-dasharray:none;stroke-dashoffset:0;stroke-opacity:1;marker:none"
     d="m 6.3828125,1 c 0,0 -0.5152046,-0.003938 -1.078125,0.1816406 C 4.7417671,1.3672188 4.0310503,1.8136987 3.8886719,2.6679688 L 3.5,5 1,5 1,7 1,11 c 0,0 0,2 2,2 l 9,0 c 2,0 2,-2 2,-2 L 14,7 14,5 11.5,5 11.111329,2.6679688 C 10.968951,1.8136987 10.258233,1.3672188 9.695313,1.1816406 9.1323926,0.9960625 8.617188,1 8.617188,1 Z m 0,1 2.2343755,0 c 0,0 0.3806287,0.00394 0.765625,0.1308594 0.3849963,0.1269218 0.672893,0.3056756 0.740234,0.7011718 L 10.484376,5 4.515625,5 4.8769531,2.8320312 C 4.9429081,2.4363013 5.2321912,2.2577812 5.6171875,2.1308594 6.0021838,2.0039375 6.3828125,2 6.3828125,2 Z M 5.5,7 9.5,7 C 9.777,7 10,7.223 10,7.5 10,7.777 9.777,8 9.5,8 l -4,0 C 5.223,8 5,7.777 5,7.5 5,7.223 5.223,7 5.5,7 Z"
     id="rect4696"
     inkscape:connector-curvature="0"
     sodipodi:nodetypes="cssccccssccccssccccssccsscsssssss" /></svg>
