<?xml version="1.0" encoding="utf-8"?>
<!-- Generator: Adobe Illustrator 19.2.1, SVG Export Plug-In . SVG Version: 6.00 Build 0)  -->
<!DOCTYPE svg PUBLIC "-//W3C//DTD SVG 1.1//EN" "http://www.w3.org/Graphics/SVG/1.1/DTD/svg11.dtd">
<svg version="1.1" id="Layer_1" xmlns="http://www.w3.org/2000/svg" xmlns:xlink="http://www.w3.org/1999/xlink" x="0px" y="0px"
	 width="11px" height="11px" viewBox="0 0 11 11" style="enable-background:new 0 0 11 11;" xml:space="preserve">
<path d="M9.6,4H8.49L8.2,2.27C8.0832,1.7303,7.6738,1.3015,7.14,1.16C6.8794,1.0669,6.6064,1.013,6.33,1H4.67
	c-0.2721,0.0075-0.5416,0.0547-0.8,0.14C3.3269,1.2815,2.9117,1.7199,2.8,2.27L2.51,4H1.34
	C1.1357,4.0055,0.9746,4.1755,0.9801,4.3798C0.9811,4.4173,0.9878,4.4545,1,4.49l1.21,4.7l0,0C2.3454,9.6605,2.7706,9.9885,3.26,10
	h4.48C8.2331,9.9928,8.6635,9.6639,8.8,9.19l0,0l1.2-4.7c0.0682-0.1926-0.0326-0.4041-0.2252-0.4723
	C9.7188,3.9978,9.6588,3.9918,9.6,4z M3.27,4l0.27-1.61c0.061-0.2688,0.2782-0.4741,0.55-0.52c0.1846-0.0591,0.3763-0.0928,0.57-0.1
	h1.67c0.1937,0.0072,0.3854,0.0409,0.57,0.1c0.2718,0.0459,0.489,0.2512,0.55,0.52L7.73,4H3.27z"/>
</svg>
