<?xml version="1.0" encoding="UTF-8" standalone="no"?>
<!-- Generator: Adobe Illustrator 17.1.0, SVG Export Plug-In . SVG Version: 6.00 Build 0)  -->

<svg
   xmlns:dc="http://purl.org/dc/elements/1.1/"
   xmlns:cc="http://creativecommons.org/ns#"
   xmlns:rdf="http://www.w3.org/1999/02/22-rdf-syntax-ns#"
   xmlns:svg="http://www.w3.org/2000/svg"
   xmlns="http://www.w3.org/2000/svg"
   xmlns:sodipodi="http://sodipodi.sourceforge.net/DTD/sodipodi-0.dtd"
   xmlns:inkscape="http://www.inkscape.org/namespaces/inkscape"
   version="1.1"
   id="svg4764"
   x="0px"
   y="0px"
   height='11'
   width='11'
   viewBox="0 0 11 11"
   enable-background="new 0 0 11 11"
   xml:space="preserve"
   inkscape:version="0.91+devel+osxmenu r12911"
   sodipodi:docname="shop-11.svg"><metadata
     id="metadata8"><rdf:RDF><cc:Work
         rdf:about=""><dc:format>image/svg+xml</dc:format><dc:type
           rdf:resource="http://purl.org/dc/dcmitype/StillImage" /><dc:title></dc:title></cc:Work></rdf:RDF></metadata><defs
     id="defs6" /><sodipodi:namedview
     pagecolor="#ffffff"
     bordercolor="#666666"
     borderopacity="1"
     objecttolerance="10"
     gridtolerance="10"
     guidetolerance="10"
     inkscape:pageopacity="0"
     inkscape:pageshadow="2"
     inkscape:window-width="931"
     inkscape:window-height="749"
     id="namedview4"
     showgrid="false"
     inkscape:snap-bbox="true"
     inkscape:bbox-paths="true"
     inkscape:bbox-nodes="true"
     inkscape:snap-bbox-midpoints="true"
     inkscape:snap-bbox-edge-midpoints="true"
     inkscape:object-paths="true"
     inkscape:snap-intersection-paths="true"
     inkscape:object-nodes="true"
     inkscape:snap-smooth-nodes="true"
     inkscape:zoom="32"
     inkscape:cx="1.5842653"
     inkscape:cy="2.0766387"
     inkscape:window-x="0"
     inkscape:window-y="0"
     inkscape:window-maximized="0"
     inkscape:current-layer="svg4764"><inkscape:grid
       type="xygrid"
       id="grid3336"
       spacingx="0.5"
       spacingy="0.5"
       empspacing="2"
       color="#ff0000"
       opacity="0.1254902" /></sodipodi:namedview><path
     style="opacity:1;fill:#000000;fill-opacity:1;stroke:none;stroke-width:0.5;stroke-linecap:round;stroke-linejoin:round;stroke-miterlimit:4;stroke-dasharray:none;stroke-dashoffset:0;stroke-opacity:1;marker:none"
     d="M 5,1 C 4.4095549,1 3.9341421,1.1693219 3.6015625,1.4414062 3.2689829,1.7134907 3.0935885,2.0670525 3.015625,2.3789062 L 2.609375,4 1,4 1,6 1,8 c 0,1.1079999 0.892,2 2,2 l 5,0 c 1.108,0 2,-0.8920001 2,-2 L 10,6 10,4 8.390625,4 7.984375,2.3789062 C 7.8140876,1.6977567 7.2660792,1.3293475 6.8339844,1.1679688 6.4018896,1.0065899 6.0117188,1 6.0117188,1 l -0.00586,0 z m 0,1 0.9882812,0 c 0,0 0.2388225,0.00938 0.4960938,0.1054688 0.2572713,0.096086 0.4590018,0.2266325 0.53125,0.515625 L 7.359375,4 3.640625,4 3.984375,2.6210938 C 4.0207439,2.475618 4.0955377,2.328427 4.234375,2.2148438 4.3732123,2.1012604 4.5904451,2 5,2 Z m -0.5,3 2,0 C 6.777,5 7,5.223 7,5.5 7,5.777 6.777,6 6.5,6 l -2,0 C 4.223,6 4,5.777 4,5.5 4,5.223 4.223,5 4.5,5 Z"
     id="rect4696"
     inkscape:connector-curvature="0"
     sodipodi:nodetypes="cccccccccccccccccccccccccccccccccc" /></svg>
