<svg id="Layer_1" data-name="Layer 1" xmlns="http://www.w3.org/2000/svg" width="11" height="11" viewBox="0 0 11 11">
  <title>shop-11</title>
  <path d="M9.6,4H8.49L8.2,2.27A1.47,1.47,0,0,0,7.14,1.16,2.8,2.8,0,0,0,6.33,1H4.67a2.8,2.8,0,0,0-.8.14A1.47,1.47,0,0,0,2.8,2.27L2.51,4H1.34A0.37,0.37,0,0,0,1,4.49l1.21,4.7h0A1.12,1.12,0,0,0,3.26,10H7.74A1.12,1.12,0,0,0,8.8,9.19h0L10,4.49A0.37,0.37,0,0,0,9.6,4ZM3.27,4L3.54,2.39a0.68,0.68,0,0,1,.55-0.52,2.13,2.13,0,0,1,.57-0.1H6.33a2.13,2.13,0,0,1,.57.1,0.68,0.68,0,0,1,.55.52L7.73,4H3.27Z"/>
</svg>
