<?xml version="1.0" encoding="UTF-8" standalone="no"?>
<svg
   xmlns:dc="http://purl.org/dc/elements/1.1/"
   xmlns:cc="http://creativecommons.org/ns#"
   xmlns:rdf="http://www.w3.org/1999/02/22-rdf-syntax-ns#"
   xmlns:svg="http://www.w3.org/2000/svg"
   xmlns="http://www.w3.org/2000/svg"
   xml:space="preserve"
   viewBox="0 0 11 11"
   height="11"
   width="11"
   y="0px"
   x="0px"
   id="Layer_1"
   version="1.1"><metadata
     id="metadata9"><rdf:RDF><cc:Work
         rdf:about=""><dc:format>image/svg+xml</dc:format><dc:type
           rdf:resource="http://purl.org/dc/dcmitype/StillImage" /><dc:title></dc:title></cc:Work></rdf:RDF></metadata><defs
     id="defs7" /><path
     id="rect5302"
     d="M 5,1 C 4.8350165,1 4.6857281,1.0489586 4.5488281,1.1191406 3.7265439,1.5518002 2.8395875,2.0569999 2,2.5234375 2.8201894,2.9716979 3.7295267,3.4513296 4.5175781,3.859375 4.6624693,3.940855 4.8212836,4 5,4 L 6,4 6,9 4.5390625,9 C 4.2403485,9 4,9.223 4,9.5 4,9.777 4.2403485,10 4.5390625,10 l 3.921875,0 C 8.7596515,10 9,9.777 9,9.5 9,9.223 8.7596515,9 8.4609375,9 L 7,9 7,4 8,4 C 8.554,4 9,3.554 9,3 L 9,2 C 9,1.446 8.554,1 8,1 Z"
     style="opacity:1;fill:#000000;fill-opacity:1;stroke:none;stroke-width:1;stroke-linecap:round;stroke-linejoin:round;stroke-miterlimit:4;stroke-dasharray:none;stroke-dashoffset:0;stroke-opacity:1" /></svg>