<?xml version="1.0" encoding="UTF-8"?>
<svg height="15" viewBox="0 0 15 15" width="15" xmlns="http://www.w3.org/2000/svg" id="skiing">
  <g>
    <path d="m15 5.5c0 .8284-.6716 1.5-1.5 1.5s-1.5-.6716-1.5-1.5.6716-1.5 1.5-1.5 1.5.6716 1.5 1.5zm-1.28 7.39c-.0623-.1197-.2083-.1684-.33-.11-.6846.4194-1.5208.5111-2.28.25l-6.32995-3.17 2.72-1.36v-3l1.5.75v3l1.49995.75 1.5-.75-1.5-.75v-4.5l-2.99995-1.5-1.5.75v4.5l-2.72 1.36-2.670005-1.33c-.1243-.0608-.2742-.0093-.335.115s-.0093.2742.115.335l10.499955 5.25c.3156.135.6568.1998 1 .19.5998-.0103 1.1889-.161 1.72-.44.1236-.0615.174-.2116.1125-.3352-.0008-.0016-.0017-.0032-.0025-.0048z"/>
  </g>
</svg>