<svg id="Layer_1" data-name="Layer 1" xmlns="http://www.w3.org/2000/svg" width="15" height="15" viewBox="0 0 15 15">
  <title>slaughterhouse-15</title>
  <path d="M15,7.771a.341.341,0,0,0-.341-.341c-.037,0-.121.059-.159.07L12,5.5a1.687,1.687,0,0,1,1.5-1s-2-.5-2.5,1L10.5,5V6l-.955.14a2.1,2.1,0,0,1-.9-.269A1.993,1.993,0,0,0,8.358,5.7a.976.976,0,0,0-.227-.089,1.842,1.842,0,0,0-1.26,0H6.843c-.028.013-.055.022-.083.034l-.068.028a15.149,15.149,0,0,1-3.814-.038c-.042-.019-.086-.033-.13-.049H2.736A2.027,2.027,0,0,0,0,7.5V9.922a1.356,1.356,0,0,0,.056.354H.045s.009.029.021.072v.008c.1.353.476,1.79.039,2.47a.35.35,0,0,0-.055.3l.4,1.7H.477A.238.238,0,0,0,.707,15a.25.25,0,0,0,.25-.25c0-.006-.006-.01-.006-.016H.957l-.19-1.522A.33.33,0,0,1,.9,12.826,1.886,1.886,0,0,0,1.574,11.4,8.2,8.2,0,0,0,3,11.5v.573l.018.107.446,2.57.009.053h.012a.24.24,0,0,0,.229.2.25.25,0,0,0,.25-.25L4,11.5H8l.18.738a.342.342,0,0,0,.008.076l.3,2.481H8.5a.242.242,0,0,0,.234.21.25.25,0,0,0,.25-.25l-.075-2.3a.354.354,0,0,1,.068-.33A3.272,3.272,0,0,0,9.5,11,5.309,5.309,0,0,0,11,9h1.5l1.137-.206S15,9.476,15,8.1c-.008-.067.029-.04,0-.1C15.03,7.96,14.992,7.821,15,7.771Z"/>
</svg>
