<svg id="Layer_2" data-name="Layer 2" xmlns="http://www.w3.org/2000/svg" width="11" height="11" viewBox="0 0 11 11">
  <title>slaughterhouse-11-01</title>
  <path d="M11,5.75v.241C11,7,10,6.5,10,6.5H8A3.081,3.081,0,0,1,7,8a2.848,2.848,0,0,1-.416.9.26.26,0,0,0-.05.242l.458,1.55A.227.227,0,0,1,7,10.75a.25.25,0,0,1-.25.25.259.259,0,0,1-.244-.173L6,9V8.5H2.75l-.21.42a.25.25,0,0,0-.02.168L3,10.75a.25.25,0,0,1-.25.25.26.26,0,0,1-.237-.172L2,9V8.5a4.013,4.013,0,0,1-.843-.139,1.383,1.383,0,0,1-.5,1.045.242.242,0,0,0-.094.282l.414.99a.213.213,0,0,1,.011.072.25.25,0,0,1-.25.25.253.253,0,0,1-.228-.148L0,9.5a6.031,6.031,0,0,0,0-2v-2A1.486,1.486,0,0,1,2,4.1s.768.132,1.1.154A2.457,2.457,0,0,0,4,4.087,1.666,1.666,0,0,1,4.5,4a1.648,1.648,0,0,1,.844.257,3.166,3.166,0,0,0,.9.23L7,4.5s.966-.484,1-.5V3.5l.5.5A1.474,1.474,0,0,1,10,3.5.914.914,0,0,0,9,4l1,1,.68.529a.425.425,0,0,1,.07-.029A.238.238,0,0,1,11,5.75Z"/>
</svg>
