<?xml version="1.0" encoding="UTF-8"?>
<svg height="15" viewBox="0 0 15 15" width="15" xmlns="http://www.w3.org/2000/svg" id="slaughterhouse">
  <g>
    <path d="m15.0001 6.10001c0 1.376-1.363.694-1.363.694l-1.137.206h-1.5c-.3337.77657-.848 1.46224-1.50004 2-.101.40492-.27852.78679-.523 1.12499-.077.091-.061.2-.068.33l.091 2.3c-.00361.0679-.03328.1318-.08283.1784-.04956.0466-.11517.0722-.18317.0716-.05688-.0012-.11152-.0224-.15431-.0599s-.07101-.0889-.07969-.1451l-.5-3.29999h-4v3.25299c0 .0655-.02603.1283-.07235.1747-.04632.0463-.10915.0723-.17465.0723-.05695-.0009-.11188-.0212-.1557-.0576-.04383-.0363-.07392-.0866-.0853-.1424l-.512-2.8v-.49999c-.47734.00824-.95449-.02522-1.426-.1-.00276.27226-.06443.54069-.18078.78689-.11634.2461-.28461.4642-.493224.6391-.128.083-.148.211-.133.386 0 0 .19 1.532.19 1.538 0 .0663-.026339.1299-.073223.1768s-.110473.0732-.176777.0732c-.052097.0002-.10281-.0168-.144357-.0482s-.071634-.0756-.085643-.1258l-.427-1.7c-.0140642-.0509-.0164221-.1043-.006897-.1563.0095251-.0519.0306861-.1011.061897-.1437.437-.68-.049-2.54999-.049-2.54999-.0342705-.11499-.05310205-.23404-.05600003-.354v-2.422c-.00244128-.32855.07501913-.65276.22571003-.94473.15069-.29196.370094-.54292.639315-.73125.269219-.18834.580189-.30841.906119-.34987.32593-.04147.65706-.00308.96486.11185 0 0 .1.03.142.049 1.26465.1733 2.54614.18606 3.814.038l.179-.062c.40694-.14811.85305-.14811 1.26 0 .0791.02002.15537.04993.227.089.10028.04887.19628.10608.287.171.27028.11183.56375.15611.855.129h1.00004v-1l.5.5c.5-1.5 2.5-1 2.5-1-.319.00776-.6293.10583-.8948.28284-.2655.177-.4754.42568-.6052.71716l2.5 2c.0578-.03294.1206-.05625.186-.069.0841.00106.1644.03544.2233.09561s.0915.14122.0907.22539z"/>
  </g>
</svg>