<svg xmlns="http://www.w3.org/2000/svg" width="11" height="11" viewBox="0 0 11 11">
  <title>slaughterhouse-11</title>
  <path d="M9.49,3.7733l0.7956,1.31a0.127,0.127,0,0,1,.1938.05c0.0808,0.1358.279,0.2709-.0993,0.5655s-0.2836.2822-.7249,0.1648-1.3132-.33-1.3132-0.33S6.8521,6.37,6.751,6.9105a5.7163,5.7163,0,0,0-.034,1.6523,0.6029,0.6029,0,0,1,.2689.3426c0.006,0.1735-.56.1139-0.56,0.1139A0.9959,0.9959,0,0,1,5.56,8.75a1.039,1.039,0,0,1,.0892-0.44c-0.03-.3018-0.1962-1.8409-0.1962-1.8409L3.7976,6.352a4.2345,4.2345,0,0,0-.3451,1.9436,0.65,0.65,0,0,0,.1933.4689c0.2075,0.1937.1773,0.24-.0717,0.2548s-0.6076.1643-.62-0.4537a13.4969,13.4969,0,0,1,.0291-2.2483,1.4545,1.4545,0,0,0-1.0018.0921A1.9641,1.9641,0,0,0,1.535,7.7587a1.3669,1.3669,0,0,0,.1851.9566c0.0811,0.0771.4741,0.3068,0.0585,0.3042S0.9713,9.11.9977,8.7247s0.0943-.2493.1094-0.5511A10.71,10.71,0,0,0,1.092,6.4094C1.009,5.85.1567,3.8866,0.9047,3.7333A12.1113,12.1113,0,0,1,4.623,3.4819c1.9691,0.1272,3.4831.2959,3.4831,0.2959a1.4224,1.4224,0,0,0,.6362-0.3844,1.992,1.992,0,0,0,.6432-0.96,0.9661,0.9661,0,0,1-.2433,1.0695Z" fill="#010101"/>
</svg>
