<svg xmlns="http://www.w3.org/2000/svg" width="15" height="15" viewBox="0 0 15 15">
  <title>slaughterhouse</title>
  <path d="M13.0526,4.7978l1.0934,1.8a0.1745,0.1745,0,0,1,.2663.0691c0.111,0.1866.3834,0.3723-.1365,0.7772s-0.39.3879-.9962,0.2265-1.8049-.4542-1.8049-0.4542S9.4266,8.3663,9.2876,9.11A7.8564,7.8564,0,0,0,9.2409,11.38a1.0567,1.0567,0,0,1,.5826.49,2.1763,2.1763,0,0,1-.9922.1216s-1.1373.0706-1.1809-.3549c-0.0477-.4646.1641-0.19,0.1226-0.6052s-0.27-2.53-.27-2.53l-2.2749-.16a5.82,5.82,0,0,0-.4742,2.6713,0.8938,0.8938,0,0,0,.2657.6445c0.2851,0.2662.1536,0.3547-.1891,0.3489-0.4666-.0078-0.7369.025-0.7613-0.6223a17.0277,17.0277,0,0,1,.04-3.09,1.999,1.999,0,0,0-1.3768.1266,2.6994,2.6994,0,0,0-.6141,1.8544A1.8786,1.8786,0,0,0,2.3733,11.59c0.1115,0.1059.6516,0.4217,0.08,0.418s-1.0968.0392-1.0732-.405c0.0282-.53.13-0.3427,0.15-0.7574A22.2515,22.2515,0,0,0,1.51,8.4208C1.3958,7.1458.4664,5.0247,1.4792,4.75a12.5277,12.5277,0,0,1,4.8837-.3527C9.0692,4.5721,11.15,4.804,11.15,4.804a1.4111,1.4111,0,0,0,.8744-0.5283,2.7368,2.7368,0,0,0,.854-1.3188A1.2961,1.2961,0,0,1,12.574,4.426Z" fill="#010101"/>
</svg>
