<svg id="Layer_2" data-name="Layer 2" xmlns="http://www.w3.org/2000/svg" width="11" height="11" viewBox="0 0 11 11">
  <title>slaughterhouse-11</title>
  <path d="M11,5.75a.25.25,0,0,0-.25-.25c-.027,0-.046.021-.07.029L10,5l-.922-.825A.9.9,0,0,1,10,3.554,1.385,1.385,0,0,0,8.538,4C8.525,4,8.513,4,8.5,4L8,3.5v.65c-.033.019-.072.031-.1.052l-.089.079c-.008.007-.016.013-.023.021L7,4.5l-.756-.013a1.681,1.681,0,0,1-.9-.23l-.005,0h0A1.493,1.493,0,0,0,4.5,4a2.8,2.8,0,0,0-.5.087,2.457,2.457,0,0,1-.9.167,8.969,8.969,0,0,1-.99-.121c-.031-.014-.063-.024-.1-.036l-.009,0h0A1.486,1.486,0,0,0,0,5.5V7.276a.993.993,0,0,0,.041.259l-.008,0,.016.053,0,.006C.125,7.849.4,8.9.079,9.4a.256.256,0,0,0-.04.22L.51,10.852l.018-.007A.235.235,0,0,0,.738,11a.25.25,0,0,0,.25-.25c0-.026-.02-.043-.028-.066l.017-.006L.563,9.688a.242.242,0,0,1,.094-.282,1.383,1.383,0,0,0,.5-1.045A3.992,3.992,0,0,0,2,8.488v.485l.013.078.5,1.777.018,0A.237.237,0,0,0,2.75,11,.25.25,0,0,0,3,10.75c0-.011-.01-.017-.011-.027l.011,0L2.52,9.088a.25.25,0,0,1,.02-.168l.21-.42H6v.472a.252.252,0,0,0,.006.055l.5,1.8.017,0A.238.238,0,0,0,6.75,11,.25.25,0,0,0,7,10.75c0-.023-.019-.038-.024-.059l.016,0-.458-1.55a.26.26,0,0,1,.05-.242,1.932,1.932,0,0,0,.329-.745A3.7,3.7,0,0,0,8,6.5h2s1,.5,1-.509a.445.445,0,0,0-.042-.141A.231.231,0,0,0,11,5.75Z"/>
</svg>
