<?xml version="1.0" encoding="UTF-8"?>
<svg height="15" viewBox="0 0 15 15" width="15" xmlns="http://www.w3.org/2000/svg" id="slipway">
  <g>
    <path d="m2.00001 10 11.99999 1.495v.505h-11.99999zm11.99999-3.99999-1 1v.5833l-7.80359-3.2515.0624-.1248 1.3515-1.3623h.8311c.08983-.0043.17455-.04301.23661-.1081.06205-.06509.09666-.15157.09666-.2415s-.03461-.17641-.09666-.2415c-.06206-.06509-.14678-.1038-.23661-.1081h-.9766c-.09296.00006-.18212.03691-.248.1025l-1.4942 1.5049c-.02627.02682-.04832.05747-.0654.0909l-.109.218-2.5482-1.0618c0 2-.0293 3.9578 2.8595 4.4994 1.4198.2662 8.14049 1.5006 8.14049 1.5006l2-2z"/>
  </g>
</svg>