<svg xmlns="http://www.w3.org/2000/svg" width="15" height="15" viewBox="0 0 15 15">
  <title>snowmobile-15</title>
  <path d="M6,13.5a.5.5,0,0,1-.5.5H2.969a3.0029,3.0029,0,0,1-1.44-.3679L.26,12.9387a.5.5,0,0,1,.48-.8775l1.0447.5709A3.0028,3.0028,0,0,0,3.2245,13H5.5A.5.5,0,0,1,6,13.5ZM8,10H8L7,9V5.5a.5.5,0,0,0-.9612-.1924h0l-.952,2.4684a.5.5,0,0,1-.3153.2967L1.6888,9.05a.9991.9991,0,0,0-.3031,1.7383l1.347,1.0107A1.002,1.002,0,0,0,3.3342,12H6.7935a.4984.4984,0,0,1,.3525.146l1.5611,1.5611A1,1,0,0,0,9.4142,14H12.69a1,1,0,0,0,.8945-.5528l1.3618-2.7236A.5.5,0,0,0,14.4993,10Z"/>
</svg>
