<svg xmlns="http://www.w3.org/2000/svg" width="11" height="11" viewBox="0 0 11 11">
  <title>snowmobile-11</title>
  <path d="M4,8.5a.5.5,0,0,1-.5.5H.5a.5.5,0,0,1,0-1h3A.5.5,0,0,1,4,8.5Zm7-3a.5.5,0,0,0-.5-.5.9289.9289,0,0,0-.0969.0094L6,6H5.5A.5.5,0,0,1,5,5.5v-3a.5.5,0,0,0-.9314-.2528L3,4,.3118,5.038A.4989.4989,0,0,0,0,5.5a.5209.5209,0,0,0,.0864.2809L1,7l2.4113.0007a.4876.4876,0,0,1,.314.1149L5.7234,8.7709A.9964.9964,0,0,0,6.3591,9H9.4949a.5045.5045,0,0,0,.4512-.73L9,7l1.7792-1.0852A.5033.5033,0,0,0,11,5.5Z"/>
</svg>
