<svg xmlns="http://www.w3.org/2000/svg" width="15" height="15" viewBox="0 0 15 15">
  <title>snowmobile-15</title>
  <path d="M6,13.5a.5.5,0,0,1-.5.5H3a3,3,0,0,1-1.44-.37L.26,12.94a.5.5,0,0,1,.48-.88l1,.57A3,3,0,0,0,3.22,13H5.5A.5.5,0,0,1,6,13.5ZM9,2a1,1,0,1,0,1,1A1,1,0,0,0,9,2Zm5.5,8H11.8L11,5.81A1,1,0,0,0,9,6v.69l-.72.36a.5.5,0,1,0,.45.89l.58-.29.3,1.54L8,10H8L7,9V5.5a.5.5,0,0,0-1-.19H6l-1,2.47a.5.5,0,0,1-.32.3l-3.08,1a1,1,0,0,0-.3,1.74l1.35,1a1,1,0,0,0,.6.2H5.79a.5.5,0,0,1,.35.15l1.56,1.56a1,1,0,0,0,.71.29h4.28a1,1,0,0,0,.89-.55l1.36-2.72A.5.5,0,0,0,14.5,10Z"/>
</svg>
