<svg id="Layer_1" data-name="Layer 1" xmlns="http://www.w3.org/2000/svg" width="15" height="15" viewBox="0 0 15 15">
  <title>soccer-15</title>
  <path d="M11,2.5A1.5,1.5,0,1,1,9.5,1,1.5,1.5,0,0,1,11,2.5ZM11,12a1,1,0,1,0,1,1A1,1,0,0,0,11,12ZM9.49,8.54L11,5.72A0.5,0.5,0,0,0,10.56,5H3.5a0.5,0.5,0,0,0,0,1H6.2L5.3,7.77l-1.2,2.44,0,0A0.49,0.49,0,0,0,4,10.5a0.5,0.5,0,0,0,.5.5H4.82a0.49,0.49,0,0,0,.42-0.23L6.66,8H8.32L5.6,13.24h0a0.49,0.49,0,0,0-.08.25A0.5,0.5,0,0,0,6,14H6.35a0.49,0.49,0,0,0,.42-0.23Z"/>
</svg>
