<svg id="Layer_1" data-name="Layer 1" xmlns="http://www.w3.org/2000/svg" width="11" height="11" viewBox="0 0 11 11">
  <title>soccer-11</title>
  <path d="M8,1.25A1.25,1.25,0,1,1,6.75,0,1.25,1.25,0,0,1,8,1.25ZM8,8.48a1,1,0,1,0,1,1A1,1,0,0,0,8,8.48ZM6.44,7L8,4.22A0.5,0.5,0,0,0,7.51,3.5H1.42a0.5,0.5,0,0,0,0,1L3,4.52,2.22,6.27,1.55,7.7l0,0A0.49,0.49,0,0,0,1.45,8a0.5,0.5,0,0,0,.5.5H2.21a0.49,0.49,0,0,0,.42-0.23L3.51,6.5H5.28L3.61,9.74h0a0.49,0.49,0,0,0-.08.25,0.5,0.5,0,0,0,.5.5H4.35a0.49,0.49,0,0,0,.42-0.23Z"/>
</svg>
