<?xml version="1.0" encoding="utf-8"?>
<!-- Generator: Adobe Illustrator 19.2.1, SVG Export Plug-In . SVG Version: 6.00 Build 0)  -->
<!DOCTYPE svg PUBLIC "-//W3C//DTD SVG 1.1//EN" "http://www.w3.org/Graphics/SVG/1.1/DTD/svg11.dtd">
<svg version="1.1" id="Layer_1" xmlns="http://www.w3.org/2000/svg" xmlns:xlink="http://www.w3.org/1999/xlink" x="0px" y="0px"
	 width="11px" height="11px" viewBox="0 0 11 11" style="enable-background:new 0 0 11 11;" xml:space="preserve">
<path d="M9,1.25C8.9996,1.9404,8.4397,2.4997,7.7494,2.4994S6.4996,1.9391,6.5,1.2487C6.5004,0.5584,7.0603-0.001,7.7506-0.0006
	C7.7638-0.0006,7.7769-0.0004,7.79,0C8.4647,0.0216,9.0003,0.575,9,1.25z M9,8.48c-0.5523,0-1,0.4477-1,1s0.4477,1,1,1s1-0.4477,1-1
	S9.5523,8.48,9,8.48z M10.81,5.09L8.94,3.18l0,0C8.8477,3.0648,8.7076,2.9984,8.56,3H1.51c-0.2761,0-0.5,0.2239-0.5,0.5
	S1.2339,4,1.51,4H5L2.07,8.3l0,0c-0.0138,0.066-0.0138,0.134,0,0.2C2.012,8.7761,2.1889,9.047,2.465,9.105
	C2.7411,9.163,3.012,8.9861,3.07,8.71H3L4.16,7H6l-1.93,3.24l0,0C4.0228,10.3184,3.9986,10.4085,4,10.5
	c-0.0552,0.2761,0.1239,0.5448,0.4,0.6c0.2761,0.0552,0.5448-0.1239,0.6-0.4l0,0l3.67-6.38l1.48,1.48
	c0.1812,0.2084,0.497,0.2305,0.7054,0.0493c0.2084-0.1812,0.2305-0.497,0.0493-0.7054C10.8879,5.1246,10.8696,5.1065,10.85,5.09
	L10.81,5.09z"/>
</svg>
