<?xml version="1.0" encoding="UTF-8"?>
<svg version="1.1" id="sushi-11" xmlns="http://www.w3.org/2000/svg" width="11px" height="11px" viewBox="0 0 11 11">
  <path id="path4999" d="M3.5,2.5C3.2,2.5,3,2.6,3,2.9l0,0H2.1c-1.1,0-2,0.8-2,1.9c0,0.5,0.3,1,0.7,1.4&#xA;&#x9;C0.3,6.5,0,6.9,0,7.5C0,8.3,0.7,9,1.6,9h1.9h2h1.9C8.3,9,9,8.3,9,7.5c0-0.2,0-0.4-0.1-0.6l1,0.5c0.4,0.2,0.8,0,1-0.3&#xA;&#x9;c0.2-0.4-0.053-0.7941-0.3427-0.9442L9.8,5.8l0.5-0.1c0.4-0.1,0.7-0.4,0.6-0.8c-0.1-0.4-0.4-0.6-0.8-0.6l0,0H10L8.4,4.6&#xA;&#x9;C8,3.9,7.3,3.1,6,3c0,0,0-0.5-0.5-0.5l0,0H3.5z M4,3.5h1v4.4l0,0l0,0H4l0,0l0,0V3.5z M7,5.9c0.2,0,0.3,0.1,0.4,0.3l0.1-0.1&#xA;&#x9;C7.6,5.9,7.8,5.9,8,6s0.2,0.3,0.1,0.5L7.8,7C7.9,7.1,8,7.2,8,7.4c0,0.3-0.2,0.5-0.6,0.5H6v-1h0.7V6.3C6.7,6.1,6.8,5.9,7,5.9z M1.9,6&#xA;&#x9;C2,6,2.2,6,2.3,6.2l0.1,0.2c0.1-0.1,0.2-0.1,0.3-0.1C2.9,6.3,3,6.5,3,6.6v0.8l0,0v0.5H1.6C1.2,7.9,1,7.7,1,7.4s0.2-0.5,0.6-0.5h0.3&#xA;&#x9;L1.7,6.5c-0.1-0.2,0-0.4,0.1-0.5C1.8,6,1.8,6,1.9,6z"/>
</svg>