<?xml version="1.0" encoding="utf-8"?>
<!-- Generator: Adobe Illustrator 19.2.1, SVG Export Plug-In . SVG Version: 6.00 Build 0)  -->
<!DOCTYPE svg PUBLIC "-//W3C//DTD SVG 1.1//EN" "http://www.w3.org/Graphics/SVG/1.1/DTD/svg11.dtd">
<svg version="1.1"
	 id="svg4619" inkscape:version="0.91 r13725" sodipodi:docname="sushi-11.svg" xmlns:cc="http://creativecommons.org/ns#" xmlns:dc="http://purl.org/dc/elements/1.1/" xmlns:inkscape="http://www.inkscape.org/namespaces/inkscape" xmlns:rdf="http://www.w3.org/1999/02/22-rdf-syntax-ns#" xmlns:sodipodi="http://sodipodi.sourceforge.net/DTD/sodipodi-0.dtd" xmlns:svg="http://www.w3.org/2000/svg"
	 xmlns="http://www.w3.org/2000/svg" xmlns:xlink="http://www.w3.org/1999/xlink" x="0px" y="0px" width="11px" height="11px"
	 viewBox="0 0 11 11" style="enable-background:new 0 0 11 11;" xml:space="preserve">
<path id="path4999" style="fill:#010101;" d="M3.5,2.5C3.2,2.5,3,2.6,3,2.9l0,0H2.1c-1.1,0-2,0.8-2,1.9c0,0.5,0.3,1,0.7,1.4
	C0.3,6.5,0,6.9,0,7.5C0,8.3,0.7,9,1.6,9h1.9h2h1.9C8.3,9,9,8.3,9,7.5c0-0.2,0-0.4-0.1-0.6l1,0.5c0.4,0.2,0.8,0,1-0.3
	c0.2-0.4-0.053-0.7941-0.3427-0.9442L9.8,5.8l0.5-0.1c0.4-0.1,0.7-0.4,0.6-0.8c-0.1-0.4-0.4-0.6-0.8-0.6l0,0H10L8.4,4.6
	C8,3.9,7.3,3.1,6,3c0,0,0-0.5-0.5-0.5l0,0H3.5z M4,3.5h1v4.4l0,0l0,0H4l0,0l0,0V3.5z M7,5.9c0.2,0,0.3,0.1,0.4,0.3l0.1-0.1
	C7.6,5.9,7.8,5.9,8,6s0.2,0.3,0.1,0.5L7.8,7C7.9,7.1,8,7.2,8,7.4c0,0.3-0.2,0.5-0.6,0.5H6v-1h0.7V6.3C6.7,6.1,6.8,5.9,7,5.9z M1.9,6
	C2,6,2.2,6,2.3,6.2l0.1,0.2c0.1-0.1,0.2-0.1,0.3-0.1C2.9,6.3,3,6.5,3,6.6v0.8l0,0v0.5H1.6C1.2,7.9,1,7.7,1,7.4s0.2-0.5,0.6-0.5h0.3
	L1.7,6.5c-0.1-0.2,0-0.4,0.1-0.5C1.8,6,1.8,6,1.9,6z"/>
</svg>
