<?xml version="1.0" encoding="UTF-8" standalone="no"?>
<!-- Created with Inkscape (http://www.inkscape.org/) -->

<svg
   xmlns:dc="http://purl.org/dc/elements/1.1/"
   xmlns:cc="http://creativecommons.org/ns#"
   xmlns:rdf="http://www.w3.org/1999/02/22-rdf-syntax-ns#"
   xmlns:svg="http://www.w3.org/2000/svg"
   xmlns="http://www.w3.org/2000/svg"
   xmlns:sodipodi="http://sodipodi.sourceforge.net/DTD/sodipodi-0.dtd"
   xmlns:inkscape="http://www.inkscape.org/namespaces/inkscape"
   version="1.1"
   width="15"
   height="15"
   id="svg4619"
   inkscape:version="0.91 r13725"
   sodipodi:docname="sushi-15.svg"
   viewBox="0 0 15 15">
  <sodipodi:namedview
     pagecolor="#ffffff"
     bordercolor="#666666"
     borderopacity="1"
     objecttolerance="10"
     gridtolerance="10"
     guidetolerance="10"
     inkscape:pageopacity="0"
     inkscape:pageshadow="2"
     inkscape:window-width="1570"
     inkscape:window-height="998"
     id="namedview3359"
     inkscape:document-units="px"
     showgrid="true"
     inkscape:zoom="64"
     inkscape:cx="8.1854173"
     inkscape:cy="6.8631852"
     inkscape:current-layer="svg4619"
     inkscape:snap-bbox="true"
     inkscape:bbox-paths="true"
     inkscape:bbox-nodes="true"
     inkscape:snap-bbox-edge-midpoints="true"
     inkscape:snap-bbox-midpoints="false"
     inkscape:object-paths="true"
     inkscape:object-nodes="true"
     inkscape:snap-intersection-paths="true"
     inkscape:snap-smooth-nodes="true"
     inkscape:window-x="216"
     inkscape:window-y="0"
     inkscape:window-maximized="0"
     inkscape:snap-object-midpoints="false"
     inkscape:snap-center="true"
     inkscape:snap-nodes="true"
     showguides="true"
     inkscape:guide-bbox="true"
     showborder="true">
    <inkscape:grid
       type="xygrid"
       id="grid3333"
       spacingx="0.5"
       spacingy="0.5"
       color="#ff0000"
       opacity="0.1254902"
       empspacing="2" />
    <sodipodi:guide
       position="0,12.5"
       orientation="1,0"
       id="guide4850" />
    <sodipodi:guide
       position="4.5,15"
       orientation="0,1"
       id="guide4852" />
    <sodipodi:guide
       position="15,10.5"
       orientation="1,0"
       id="guide4854" />
    <sodipodi:guide
       position="6.5,0"
       orientation="0,1"
       id="guide4856" />
  </sodipodi:namedview>
  <defs
     id="defs4621" />
  <metadata
     id="metadata4624">
    <rdf:RDF>
      <cc:Work
         rdf:about="">
        <dc:format>image/svg+xml</dc:format>
        <dc:type
           rdf:resource="http://purl.org/dc/dcmitype/StillImage" />
        <dc:title></dc:title>
      </cc:Work>
    </rdf:RDF>
  </metadata>
  <path
     style="color:#000000;font-style:normal;font-variant:normal;font-weight:normal;font-stretch:normal;font-size:medium;line-height:normal;font-family:sans-serif;text-indent:0;text-align:start;text-decoration:none;text-decoration-line:none;text-decoration-style:solid;text-decoration-color:#000000;letter-spacing:normal;word-spacing:normal;text-transform:none;direction:ltr;block-progression:tb;writing-mode:lr-tb;baseline-shift:baseline;text-anchor:start;white-space:normal;clip-rule:nonzero;display:inline;overflow:visible;visibility:visible;opacity:1;isolation:auto;mix-blend-mode:normal;color-interpolation:sRGB;color-interpolation-filters:linearRGB;solid-color:#000000;solid-opacity:1;fill:#000000;fill-opacity:1;fill-rule:nonzero;stroke:none;stroke-width:1.5;stroke-linecap:round;stroke-linejoin:round;stroke-miterlimit:4;stroke-dasharray:none;stroke-dashoffset:0;stroke-opacity:1;marker:none;color-rendering:auto;image-rendering:auto;shape-rendering:auto;text-rendering:auto;enable-background:accumulate"
     d="M 5.5 3 A 0.50005 0.50005 0 0 0 5 3.5 L 2.75 3.5 C 1.2265 3.5 0 4.7265 0 6.25 C 0 7.0773959 0.36874688 7.8091906 0.94335938 8.3125 C 0.38025084 8.6674741 0 9.2893385 0 10 C 0 11.099351 0.90064863 12 2 12 L 5.5 12 L 7.5 12 L 10 12 C 11.099351 12 12 11.099351 12 10 C 12 9.5117238 11.813728 9.0706359 11.519531 8.7226562 L 13.697266 9.6855469 A 0.750075 0.750075 0 1 0 14.302734 8.3144531 L 12.492188 7.5117188 L 14.123047 7.2402344 A 0.750075 0.750075 0 0 0 14.003906 5.7480469 A 0.750075 0.750075 0 0 0 13.876953 5.7597656 L 11.746094 6.1152344 C 11.259515 4.9520545 10.038676 3.783742 8 3.5488281 L 8 3.5 A 0.50005 0.50005 0 0 0 7.5 3 L 5.5 3 z M 6 4 L 7 4 L 7 9 L 7 11 L 6 11 L 6 9 L 6 4 z M 9.5 8 C 9.7590216 8 9.9638317 8.1974174 9.9902344 8.4492188 L 10.066406 8.3164062 C 10.204906 8.0765172 10.510111 7.9962656 10.75 8.1347656 C 10.989889 8.2732656 11.070141 8.5765174 10.931641 8.8164062 L 10.673828 9.2636719 C 10.872726 9.4450079 11 9.7020914 11 10 C 11 10.562649 10.562649 11 10 11 L 8 11 L 8 9 L 9 9 L 9 8.5 C 9 8.223 9.223 8 9.5 8 z M 2.4394531 8.0703125 C 2.6328239 8.0460843 2.8297185 8.1364897 2.9335938 8.3164062 L 3.1347656 8.6640625 C 3.2260282 8.5647271 3.3538497 8.5 3.5 8.5 C 3.777 8.5 4 8.723 4 9 L 5 9 L 5 11 L 2 11 C 1.4373514 11 1 10.562649 1 10 C 1 9.4373514 1.4373514 9 2 9 L 2.1738281 9 L 2.0683594 8.8164062 C 1.9298594 8.5765172 2.010111 8.2732656 2.25 8.1347656 C 2.3099723 8.1001406 2.3749962 8.0783886 2.4394531 8.0703125 z "
     id="path4999" />
</svg>
