<?xml version="1.0" encoding="utf-8"?>
<!-- Generator: Adobe Illustrator 18.1.0, SVG Export Plug-In . SVG Version: 6.00 Build 0)  -->
<!DOCTYPE svg PUBLIC "-//W3C//DTD SVG 1.1//EN" "http://www.w3.org/Graphics/SVG/1.1/DTD/svg11.dtd">
<svg version="1.1"
	 id="svg4619" sodipodi:docname="sushi-11.svg" inkscape:version="0.91 r13725" xmlns:svg="http://www.w3.org/2000/svg" xmlns:rdf="http://www.w3.org/1999/02/22-rdf-syntax-ns#" xmlns:sodipodi="http://sodipodi.sourceforge.net/DTD/sodipodi-0.dtd" xmlns:inkscape="http://www.inkscape.org/namespaces/inkscape" xmlns:dc="http://purl.org/dc/elements/1.1/" xmlns:cc="http://creativecommons.org/ns#"
	 xmlns="http://www.w3.org/2000/svg" xmlns:xlink="http://www.w3.org/1999/xlink" x="0px" y="0px" width="11px" height="11px"
	 viewBox="-294 195 11 11" enable-background="new -294 195 11 11" xml:space="preserve">
<sodipodi:namedview  inkscape:snap-intersection-paths="true" inkscape:snap-bbox-edge-midpoints="true" inkscape:guide-bbox="true" inkscape:window-maximized="0" inkscape:window-y="0" inkscape:window-x="216" inkscape:snap-smooth-nodes="true" inkscape:object-nodes="true" inkscape:object-paths="true" inkscape:snap-bbox-midpoints="false" inkscape:bbox-nodes="true" inkscape:bbox-paths="true" inkscape:snap-bbox="true" inkscape:document-units="px" inkscape:current-layer="svg4619" inkscape:pageopacity="0" inkscape:window-height="998" inkscape:window-width="1570" inkscape:pageshadow="2" pagecolor="#ffffff" bordercolor="#666666" inkscape:cx="7.8526638" inkscape:cy="5.9526233" showborder="true" gridtolerance="10" objecttolerance="10" borderopacity="1" showgrid="true" id="namedview3359" guidetolerance="10" inkscape:zoom="64" inkscape:snap-center="true" showguides="false" inkscape:snap-object-midpoints="false" inkscape:snap-nodes="true">
	<inkscape:grid  color="#ff0000" type="xygrid" opacity="0.1254902" empspacing="2" spacingx="0.5" spacingy="0.5" id="grid3333">
		</inkscape:grid>
	<sodipodi:guide  id="guide4850" position="0,12.5" orientation="1,0"></sodipodi:guide>
	<sodipodi:guide  id="guide4852" position="4.5,15" orientation="0,1"></sodipodi:guide>
	<sodipodi:guide  id="guide4854" position="15,10.5" orientation="1,0"></sodipodi:guide>
	<sodipodi:guide  id="guide4856" position="6.5,0" orientation="0,1"></sodipodi:guide>
</sodipodi:namedview>
<path id="path4999" d="M-290.5,197.5c-0.3,0-0.5,0.2-0.5,0.5c0,0,0,0,0,0h-0.9c-1.1,0-2,0.8-2,1.9c0,0.5,0.3,1,0.7,1.4
	c-0.5,0.3-0.8,0.7-0.8,1.3c0,0.8,0.7,1.5,1.6,1.5h1.9h2h1.9c0.9,0,1.6-0.7,1.6-1.5c0-0.2,0-0.4-0.1-0.6l1,0.5c0.4,0.2,0.8,0,1-0.3
	c0.2-0.4,0-0.8-0.3-1c0,0,0,0-0.1,0l-0.7-0.3l0.5-0.1c0.4-0.1,0.7-0.4,0.6-0.8c-0.1-0.4-0.4-0.6-0.8-0.6c0,0,0,0,0,0
	c0,0-0.1,0-0.1,0l-1.6,0.3c-0.4-0.7-1.2-1.3-2.5-1.4v0c0-0.3-0.2-0.5-0.5-0.5c0,0,0,0,0,0H-290.5z M-290,198.5h1v4.5h0v0h-1v0h0
	V198.5z M-287,201c0.2,0,0.3,0.1,0.4,0.3l0.1-0.1c0.1-0.2,0.3-0.2,0.5-0.1s0.2,0.3,0.1,0.5l-0.3,0.5c0.1,0.1,0.2,0.2,0.2,0.4
	c0,0.3-0.2,0.5-0.6,0.5h-1.4v-1h0.7v-0.6C-287.3,201.2-287.2,201-287,201z M-292.1,201.1c0.1,0,0.3,0,0.4,0.2l0.1,0.2
	c0.1-0.1,0.2-0.1,0.3-0.1c0.2,0,0.3,0.2,0.3,0.3v0.8c0,0,0,0,0,0v0.5h-1.4c-0.4,0-0.6-0.2-0.6-0.5s0.2-0.5,0.6-0.5h0.3l-0.2-0.4
	c-0.1-0.2,0-0.4,0.1-0.5C-292.2,201.1-292.2,201.1-292.1,201.1z"/>
</svg>
