<?xml version="1.0" encoding="UTF-8"?>
<svg version="1.1" id="swimming-11" xmlns="http://www.w3.org/2000/svg" width="11px" height="11px" viewBox="0 0 11 11">
  <path id="path8421-9-1-0-7" d="M8.0039,0.4941l-0.6992,0.502L4.6035,2.5977&#xA;&#x9;C4.3036,2.6967,4.2042,3.1962,4.4023,3.4961l0.5996,1.002l-2.5,2l1,1.002l2-1.002L7.5039,7.5l1-1.002l-3.002-3.502l3.002-1.5v-1.002&#xA;&#x9;C8.5039,0.4941,8.0039,0.4941,8.0039,0.4941z M9.0059,2.9961c-0.553,0-1.002,0.4489-1.002,1.002s0.4489,1,1.002,1&#xA;&#x9;c0.553,0,1-0.447,1-1S9.5589,2.9961,9.0059,2.9961z M2,7.998L0,9v1l2-1l1.5,1l2-1l2,1L9,9l2,1V9L9,7.998L7.5,9l-2-1.002L3.5,9&#xA;&#x9;L2,7.998z"/>
</svg>