<?xml version="1.0" encoding="UTF-8" standalone="no"?>
<!-- Generator: Adobe Illustrator 18.1.0, SVG Export Plug-In . SVG Version: 6.00 Build 0)  -->

<svg
   xmlns:dc="http://purl.org/dc/elements/1.1/"
   xmlns:cc="http://creativecommons.org/ns#"
   xmlns:rdf="http://www.w3.org/1999/02/22-rdf-syntax-ns#"
   xmlns:svg="http://www.w3.org/2000/svg"
   xmlns="http://www.w3.org/2000/svg"
   xmlns:sodipodi="http://sodipodi.sourceforge.net/DTD/sodipodi-0.dtd"
   xmlns:inkscape="http://www.inkscape.org/namespaces/inkscape"
   version="1.1"
   id="svg4764"
   sodipodi:docname="swimming-11.svg"
   inkscape:version="0.91 r13725"
   x="0px"
   y="0px"
   width="11"
   height="11"
   viewBox="0 0 11 11"
   enable-background="new 0 0 599 400"
   xml:space="preserve"><metadata
     id="metadata10"><rdf:RDF><cc:Work
         rdf:about=""><dc:format>image/svg+xml</dc:format><dc:type
           rdf:resource="http://purl.org/dc/dcmitype/StillImage" /><dc:title></dc:title></cc:Work></rdf:RDF></metadata><defs
     id="defs8" /><sodipodi:namedview
     inkscape:window-maximized="0"
     inkscape:window-y="0"
     inkscape:window-x="0"
     inkscape:window-height="759"
     inkscape:window-width="999"
     inkscape:snap-smooth-nodes="true"
     inkscape:object-nodes="true"
     inkscape:object-paths="true"
     inkscape:snap-bbox-midpoints="true"
     inkscape:bbox-nodes="true"
     inkscape:current-layer="svg4764"
     inkscape:pageshadow="2"
     inkscape:pageopacity="0"
     inkscape:snap-bbox="true"
     inkscape:bbox-paths="true"
     inkscape:snap-intersection-paths="true"
     objecttolerance="10"
     guidetolerance="10"
     gridtolerance="10"
     id="namedview4"
     borderopacity="1"
     bordercolor="#666666"
     pagecolor="#ffffff"
     inkscape:cy="3.573248"
     inkscape:cx="4.6315699"
     inkscape:zoom="30.341309"
     showgrid="true"
     inkscape:snap-bbox-edge-midpoints="true"><inkscape:grid
       color="#ff0000"
       type="xygrid"
       spacingy="0.5"
       id="grid3336"
       opacity="0.1254902"
       spacingx="0.5"
       empspacing="2" /></sodipodi:namedview><path
     d="M 8.00391,0.49414 7.30469,0.996093 4.60352,2.597656 C 4.30362,2.696706 4.20424,3.196194 4.40234,3.496093 l 0.59961,1.001954 -2.5,2 1,1.001953 2,-1.001953 L 7.50391,7.5 l 1,-1.001953 -3.00196,-3.501954 3.00196,-1.5 0,-1.001953 -0.5,0 z m 1.00195,2.501953 c -0.55302,0 -1.00195,0.448927 -1.00195,1.001954 0,0.553027 0.44893,1 1.00195,1 0.55303,0 1,-0.446973 1,-1 0,-0.553027 -0.44697,-1.001954 -1,-1.001954 z M 2,7.998047 0,9 l 0,1 2,-1 1.5,1 2,-1 2,1 L 9,9 11,10 11,9 9,7.998047 7.5,9 5.5,7.998047 3.5,9 2,7.998047 Z"
     id="path8421-9-1-0-7"
     inkscape:connector-curvature="0" /></svg>