<?xml version="1.0" encoding="UTF-8"?>
<svg id="table-tennis-11" xmlns="http://www.w3.org/2000/svg" width="11" height="11" viewBox="0 0 11 11">
  <path id="icon_concepts:_sports_leisure" d="M8.5928,7.2324a2.6052,2.6052,0,0,1-1.1448.642L3.1149,3.5413a2.604,2.604,0,0,1,.6419-1.1448C5.3189.8451,7.33.4386,8.9459,2.0541,10.5507,3.659,10.1549,5.6811,8.5928,7.2324ZM3,5.2531a2.5994,2.5994,0,0,1-.0135,1.1555,2.7324,2.7324,0,0,1-.3638.77C1.8845,8.0455,1.05,8.5163,1.05,8.8266A2.3857,2.3857,0,0,0,2.1734,9.95c.31,0,.77-.8024,1.6583-1.5621a2.5178,2.5178,0,0,1,.8024-.3959A2.6735,2.6735,0,0,1,5.7255,8Z"/>
</svg>