<svg xmlns="http://www.w3.org/2000/svg" width="15" height="15" viewBox="0 0 15 15"><title>table-tennis-15 copy-5.4</title><g id="eaace08b-de8c-4218-a554-53610696f694" data-name="icon concepts: sports &amp; leisure"><path d="M11.11,10.55a3.5279,3.5279,0,0,1-1.77.91L3.52,5.65a3.7288,3.7288,0,0,1,.93-1.76c2.09-2.09,4.82-2.6,7.04-.38S13.2,8.46,11.11,10.55ZM4.6423,12.04a3.556,3.556,0,0,1,1.0815-.5173,4.6242,4.6242,0,0,1,1.8033.1548L3.314,7.4815a4.4517,4.4517,0,0,1,.1455,1.8608,3.39,3.39,0,0,1-.482,1.0329C1.9848,11.5442,1.0039,11.9737,1.0039,12.4A1.701,1.701,0,0,0,2.6,13.996C3.0263,13.996,3.4492,13.0581,4.6423,12.04Z"/></g></svg>