<svg xmlns="http://www.w3.org/2000/svg" width="11" height="11" viewBox="0 0 11 11"><title>table-tennis-11 copy-5.4</title><g id="24ec4ea5-581c-4acf-8b87-78c9ebc4dbd1" data-name="icon concepts: sports &amp; leisure"><path d="M8.63,6.9a2.4345,2.4345,0,0,1-1.07.6L3.51,3.45a2.4343,2.4343,0,0,1,.6-1.07C5.57.93,7.45.55,8.96,2.06,10.46,3.56,10.09,5.45,8.63,6.9ZM3.34,5.05a2.5321,2.5321,0,0,1,.05,1.08,2.5523,2.5523,0,0,1-.34.72c-.69.81-1.47,1.25-1.47,1.54A2.2292,2.2292,0,0,0,2.63,9.44c.29,0,.72-.75,1.55-1.46a2.3522,2.3522,0,0,1,.75-.37,2.598,2.598,0,0,1,1.02.05Z"/></g></svg>