<svg xmlns="http://www.w3.org/2000/svg" width="15" height="15" viewBox="0 0 15 15"><title>table-tennis-15 copy-v0.3</title><g id="icon_concepts:_sports_leisure" data-name="icon concepts: sports &amp; leisure"><path d="M11.9676,10.2275a3.8113,3.8113,0,0,1-1.9122.9831L3.7678,4.9338A4.0283,4.0283,0,0,1,4.7725,3.0324C7.03.7745,9.98.2235,12.3781,2.6219S14.2255,7.97,11.9676,10.2275Zm-6.987,1.6093a3.8417,3.8417,0,0,1,1.1684-.5588A4.5323,4.5323,0,0,1,8,11.4452L3.5456,7a4.4134,4.4134,0,0,1,.1572,1.9223,3.6624,3.6624,0,0,1-.5208,1.1159C2.11,11.3012,1.05,11.7652,1.05,12.2261A1.8377,1.8377,0,0,0,2.7739,13.95C3.2348,13.95,3.6917,12.9368,4.9806,11.8368Z"/></g></svg>