<?xml version="1.0" encoding="UTF-8"?>
<svg height="15" viewBox="0 0 15 15" width="15" xmlns="http://www.w3.org/2000/svg" id="taxi">
  <path d="m4.75002 2.5c-.13807 0-.25-.11193-.25-.25v-1.499999c0-.138071.11193-.25.25-.25h1.5c.13807 0 .25.111929.25.25v1.499999c0 .13807-.11193.25-.25.25zm-2 2c-.13807 0-.25-.11193-.25-.25v-1.5c0-.13807.11193-.25.25-.25h1.5c.1381 0 .25.11193.25.25v1.5c0 .13807-.1119.25-.25.25zm7.99998 0c-.1381 0-.25-.11193-.25-.25v-1.5c0-.13807.1119-.25.25-.25h1.5c.1381 0 .25.11193.25.25v1.5c0 .13807-.1119.25-.25.25zm-4.24998-.25c0 .13807.11193.25.25.25h1.5c.13807 0 .25-.11193.25-.25v-1.5c0-.13807-.11193-.25-.25-.25h-1.5c-.13807 0-.25.11193-.25.25zm2-2c0 .13807.11193.25.25.25h1.49998c.1381 0 .25-.11193.25-.25v-1.5c0-.13807-.1119-.25-.25-.25h-1.49998c-.13807 0-.25.11193-.25.25zm-6.50002 7.45711c0-.13261.05268-.25979.14645-.35356l.85355-.85355 1.35435-2.25725c.09036-.1506.25311-.24275.42875-.24275h5.4338c.1756 0 .3384.09215.4288.24275l1.3543 2.25725.8536.85355c.0937.09377.1464.22095.1464.35356v3.79289c0 .2761-.2239.5-.5.5h-1.5c-.2761 0-.5-.2239-.5-.5v-.5h-6v.5c0 .2761-.22386.5-.5.5h-1.5c-.27614 0-.5-.2239-.5-.5zm1.86623-.70711h7.26757l-1.19999-2h-4.86762zm1.63377 2.2v-.3721c0-.1907-.13458-.3548-.32155-.3922l-1.81961-.3639c-.18564-.0372-.35884.1048-.35884.2941v.8341c0 .1657.13431.3.3.3h1.9c.16569 0 .3-.1343.3-.3zm6.5 0v-.7121c0-.2524-.2309-.4417-.4784-.3922l-1.78043.3561c-.14023.028-.24117.1511-.24117.2941v.4541c0 .1657.13431.3.3.3h1.9c.1657 0 .3-.1343.3-.3z"/>
</svg>