<?xml version="1.0" encoding="utf-8"?>
<!-- Generator: Adobe Illustrator 19.2.1, SVG Export Plug-In . SVG Version: 6.00 Build 0)  -->
<svg version="1.1" id="Layer_1" xmlns="http://www.w3.org/2000/svg" xmlns:xlink="http://www.w3.org/1999/xlink" x="0px" y="0px"
	 width="11px" height="11px" viewBox="0 0 11 11" style="enable-background:new 0 0 11 11;" xml:space="preserve">
<title>teahouse</title>
<path d="M6.2,4C7.4,3.7,8,3.7,8,2.5c0-0.6-0.4-0.8-1.6-1.3C5.6,0.9,5.3,0.9,5.3,0.1C5,1,5.2,1.3,6.1,1.8C8.1,2.8,6.2,4,6.2,4z
	 M3.9,4C4.6,3.8,5,3.8,5,3.1C5,2.7,4.7,2.6,4,2.2C3.5,2,3.3,1.5,3.3,1C3.1,1.6,3.2,2.3,3.8,2.6C5,3.2,3.9,4,3.9,4z M9,5H2l1,3
	c0.3,0.4,0.6,0.7,1,1v2h3V9c0.4-0.3,0.7-0.6,1-1L9,5z"/>
</svg>
