<?xml version="1.0" encoding="utf-8"?>
<!-- Generator: Adobe Illustrator 19.2.1, SVG Export Plug-In . SVG Version: 6.00 Build 0)  -->
<svg version="1.1" id="Layer_1" xmlns="http://www.w3.org/2000/svg" xmlns:xlink="http://www.w3.org/1999/xlink" x="0px" y="0px"
	 width="11px" height="11px" viewBox="0 0 11 11" style="enable-background:new 0 0 11 11;" xml:space="preserve">
<title>teahouse</title>
<path d="M2,4c0.2,1.4,0.6,2.7,1,4c0.3,0.4,0.6,0.7,1,1v1h3V9c0.4-0.3,0.7-0.6,1-1c0.4-1.3,0.8-2.6,1-4H2z"/>
<path d="M6.7,1c-0.4,0.1-0.6,0.2-1,0.4C5.5,1.6,5.5,1.7,5.4,2c0-0.1-0.1-0.1-0.1-0.2C5,1.5,4.7,1.4,4.3,1.3c0.1,0.4,0.2,0.7,0.4,1
	C5.1,2.5,5.6,2.8,5.9,3c0,0-0.2-0.5-0.4-0.8C5.9,2.1,6,2.2,6.3,2C6.5,1.6,6.5,1.4,6.7,1z"/>
</svg>
