<svg id="Layer_1" data-name="Layer 1" xmlns="http://www.w3.org/2000/svg" width="15" height="15" viewBox="0 0 15 15">
  <title>telephone-15</title>
  <path d="M4.51,8.88a0.51,0.51,0,0,0,0,.72l0.72,0.72L3.07,12.5,2.7,12.13A2.24,2.24,0,0,1,2,10.69V9.24A2.24,2.24,0,0,1,2.7,7.79l0.36-.36L7.41,3.08l0.36-.36A2.24,2.24,0,0,1,9.22,2h1.45a2.24,2.24,0,0,1,1.45.72l0.36,0.36L10.31,5.26,9.58,4.53a0.51,0.51,0,0,0-.72,0Zm0.34,4-0.72.72a1,1,0,0,0,1.45,0l0.72-.72a1,1,0,0,0,0-1.45l-0.72.72Zm8-8L12.1,5.6l-0.72.72a1,1,0,0,0,1.45,0l0.72-.72a1,1,0,0,0,0-1.45Z"/>
</svg>
