<?xml version="1.0" encoding="utf-8"?>
<!-- Generator: Adobe Illustrator 19.2.1, SVG Export Plug-In . SVG Version: 6.00 Build 0)  -->
<svg version="1.1" id="Layer_1" xmlns="http://www.w3.org/2000/svg" xmlns:xlink="http://www.w3.org/1999/xlink" x="0px" y="0px"
	 width="11px" height="11px" viewBox="0 0 11 11" style="enable-background:new 0 0 11 11;" xml:space="preserve">
<path d="M3.6,5.9C3.4,6,3.4,6.3,3.6,6.4L4,6.8L2.2,8.6L2,8.4c-0.3-0.3-0.5-0.6-0.5-1v-1c0-0.4,0.2-0.8,0.5-1L2.3,5l3-3
	c0.3-0.3,0.6-0.5,1-0.5h1c0.4,0,0.8,0.2,1,0.5l0.3,0.3L6.8,4L6.4,3.6C6.3,3.4,6,3.4,5.9,3.6L3.6,5.9z M3.5,8.9L3,9.4
	c0.3,0.3,0.7,0.3,1,0l0.7-0.7c0.3-0.3,0.3-0.7,0-1L4.2,8.2L3.5,8.9z M8.8,3.6L8.1,4.3L7.6,4.8c0.3,0.3,0.7,0.3,1,0l0.7-0.7
	c0.3-0.3,0.3-0.7,0-1L8.8,3.6z"/>
</svg>
