<svg id="Layer_1" data-name="Layer 1" xmlns="http://www.w3.org/2000/svg" width="11" height="11" viewBox="0 0 11 11">
  <title>telephone-11</title>
  <path d="M3.87,4.51a0.37,0.37,0,0,0-.37.37V5.5H1V5.21a1.6,1.6,0,0,1,.37-1.1L2.1,3.37A1.6,1.6,0,0,1,3.2,3H7.79a1.6,1.6,0,0,1,1.1.37L9.62,4.11A1.6,1.6,0,0,1,10,5.21V5.5H7.51V4.87a0.37,0.37,0,0,0-.37-0.37H3.87ZM1.73,6.27H1A0.73,0.73,0,0,0,1.73,7h1a0.73,0.73,0,0,0,.73-0.73H1.73Zm7.51,0H7.51A0.73,0.73,0,0,0,8.24,7h1A0.73,0.73,0,0,0,10,6.27H9.25Z"/>
</svg>
