<svg xmlns="http://www.w3.org/2000/svg" width="15" height="15" viewBox="0 0 15 15"><title>tennis-15 copy-v0.3</title><g id="icon_concepts:_sports_leisure" data-name="icon concepts: sports &amp; leisure"><path d="M13.1284,1.87c-1.5418-1.5406-4.5535-.7759-6.28,1.05a6.8282,6.8282,0,0,0-1.88,4.4,5.7276,5.7276,0,0,1-.57,2.72.6813.6813,0,0,0-.67.17l-2.49,2.5a.6941.6941,0,0,0,0,.98l.07.07a.7051.7051,0,0,0,.98,0l2.5-2.49a.6831.6831,0,0,0,.18-.66,8.5679,8.5679,0,0,1,3.12-.58,6.549,6.549,0,0,0,3.99-1.87C14.1084,6.13,14.579,3.3194,13.1284,1.87Zm-2.2-.04a2.3071,2.3071,0,0,1,1.64.61,2.5482,2.5482,0,0,1,.5,2.44l-2.95-2.96A3.8644,3.8644,0,0,1,10.9284,1.83Zm-4.57,6.81a2.6485,2.6485,0,0,1-.48-2.55l3.04,3.04A2.8521,2.8521,0,0,1,6.3584,8.64Zm2.88.39-3.26-3.27a5.1649,5.1649,0,0,1,.49-1.08l3.85,3.85A5.5123,5.5123,0,0,1,9.2384,9.03Zm1.34-.66-3.94-3.95a5.2053,5.2053,0,0,1,.74-.9l4.1,4.1A5.6858,5.6858,0,0,1,10.5784,8.37Zm1.11-.96-4.1-4.1a5.5717,5.5717,0,0,1,.84-.65l3.92,3.92A5.7212,5.7212,0,0,1,11.6884,7.41Zm.82-1.09L8.6984,2.5a4.1718,4.1718,0,0,1,1.09-.48l3.2,3.2A5.566,5.566,0,0,1,12.5084,6.32Z"/></g></svg>
