<svg id="Layer_1" data-name="Layer 1" xmlns="http://www.w3.org/2000/svg" width="11" height="11" viewBox="0 0 11 11">
  <title>tennis-11</title>
  <path d="M6.23,3.55a1.1,1.1,0,1,1-1.1-1.1A1.1,1.1,0,0,1,6.23,3.55Zm3.9,0.25L8.76,2.42a1,1,0,0,1-.51.15,1.65,1.65,0,0,1-1.13-.51A1.31,1.31,0,0,1,6.86.26,0.92,0.92,0,0,1,7.53,0,1.65,1.65,0,0,1,8.66.52,1.39,1.39,0,0,1,9,2.17L10.4,3.54ZM8.66,2.05A1,1,0,0,0,8.4.78,1.29,1.29,0,0,0,7.53.37a0.57,0.57,0,0,0-.41.15A1,1,0,0,0,7.38,1.8a1.29,1.29,0,0,0,.87.41A0.57,0.57,0,0,0,8.66,2.05ZM9.43,4.14a0.37,0.37,0,0,0-.52,0l-1,1H4L1.83,8.07h0L0.07,10.41a0.37,0.37,0,0,0,.07.51A0.36,0.36,0,0,0,.37,11a0.37,0.37,0,0,0,.29-0.15L2.75,8.07H3.67v2.57a0.37,0.37,0,1,0,.73,0V8.07L6,5.87H8.22L9.43,4.66A0.37,0.37,0,0,0,9.43,4.14ZM8.8,7.33A0.37,0.37,0,0,0,8.43,7H6.75L6.49,6.71A0.37,0.37,0,0,0,6,7.23L6.45,7.7h2A0.37,0.37,0,0,0,8.8,7.33Z"/>
</svg>
