<svg xmlns="http://www.w3.org/2000/svg" width="11" height="11" viewBox="0 0 11 11"><title>tennis-11 copy-5.4</title><g id="9424ddd6-734a-4e7a-989d-5aadee62e745" data-name="icon concepts: sports &amp; leisure"><path d="M9.38,1.63a2.1058,2.1058,0,0,0-1.52-.58A3.82,3.82,0,0,0,5.24,2.24,3.7815,3.7815,0,0,0,4.05,5v.01a3.6772,3.6772,0,0,1-.5,2.06.6957.6957,0,0,0-.25-.05.6252.6252,0,0,0-.42.17L1.19,8.88a.61.61,0,0,0,0,.85l.09.09a.5917.5917,0,0,0,.85,0L3.82,8.13a.5994.5994,0,0,0,.12-.67,5.9928,5.9928,0,0,1,2.05-.5H6a.7561.7561,0,0,0,.15.01A3.82,3.82,0,0,0,8.77,5.78C10.09,4.46,10.36,2.61,9.38,1.63ZM6.15,6.47a1.659,1.659,0,0,1-1.17-.44,1.923,1.923,0,0,1-.31-1.98L6.95,6.33A2.5437,2.5437,0,0,1,6.15,6.47Zm1.06-.23L4.77,3.8a3.7209,3.7209,0,0,1,.7-1.07L8.28,5.55A3.5557,3.5557,0,0,1,7.21,6.24Zm1.25-.87L5.64,2.54a3.9247,3.9247,0,0,1,1.04-.71h.01l2.5,2.5A3.5771,3.5771,0,0,1,8.46,5.37Zm.83-1.29L6.94,1.72a2.7621,2.7621,0,0,1,.92-.17,1.6155,1.6155,0,0,1,1.17.44,1.7157,1.7157,0,0,1,.41,1.52A3,3,0,0,1,9.29,4.08Z"/></g></svg>
