<svg id="Layer_1" data-name="Layer 1" xmlns="http://www.w3.org/2000/svg" width="15" height="15" viewBox="0 0 15 15">
  <title>tennis-15</title>
  <path d="M8,4.5A1.5,1.5,0,1,1,6.5,3,1.5,1.5,0,0,1,8,4.5Zm6.38,0.55h0L12.81,3.46a1.89,1.89,0,0,0-.5-2.25,2.25,2.25,0,0,0-1.54-.7,1.26,1.26,0,0,0-.91.35,1.79,1.79,0,0,0,.35,2.45,2.25,2.25,0,0,0,1.54.7,1.3,1.3,0,0,0,.69-0.21L14,5.39h0a0.23,0.23,0,0,0,.2.12,0.25,0.25,0,0,0,.25-0.25A0.24,0.24,0,0,0,14.38,5.05ZM12.31,3.3a0.77,0.77,0,0,1-.56.2A1.76,1.76,0,0,1,10.57,3a1.33,1.33,0,0,1-.35-1.74A0.78,0.78,0,0,1,10.77,1,1.76,1.76,0,0,1,12,1.56,1.33,1.33,0,0,1,12.31,3.3Zm0.54,2.34a0.5,0.5,0,0,0-.71,0L10.79,7H5.89a0.5,0.5,0,0,0-.48.38L4.62,10.49h0L3.9,13.36a0.5,0.5,0,0,0,.31.63l0.16,0a0.5,0.5,0,0,0,.47-0.34l0.8-3.19H7v3a0.5,0.5,0,0,0,1,0v-3L9,8h2.21l1.65-1.65A0.5,0.5,0,0,0,12.85,5.65Z"/>
</svg>
