<svg id="Layer_1" data-name="Layer 1" xmlns="http://www.w3.org/2000/svg" width="11" height="11" viewBox="0 0 11 11">
  <title>tennis-11</title>
  <path d="M3,3A1,1,0,1,1,2,2,1,1,0,0,1,3,3ZM9.87,4.55h0L8.3,3A1.89,1.89,0,0,0,7.8.7,2.25,2.25,0,0,0,6.26,0a1.26,1.26,0,0,0-.91.35A1.79,1.79,0,0,0,5.7,2.8a2.25,2.25,0,0,0,1.54.7,1.3,1.3,0,0,0,.69-0.21l1.6,1.6h0a0.23,0.23,0,0,0,.2.12A0.25,0.25,0,0,0,10,4.75,0.24,0.24,0,0,0,9.87,4.55ZM7.8,2.8a0.77,0.77,0,0,1-.56.2,1.76,1.76,0,0,1-1.19-.55A1.33,1.33,0,0,1,5.7.7,0.78,0.78,0,0,1,6.26.5a1.76,1.76,0,0,1,1.19.55A1.33,1.33,0,0,1,7.8,2.8ZM6.5,5h-5a0.5,0.5,0,0,0-.5.5v5a0.5,0.5,0,0,0,1,0V8H3v2.5a0.5,0.5,0,0,0,1,0V6H6.5A0.5,0.5,0,0,0,6.5,5Z"/>
</svg>
