<svg id="Layer_1" data-name="Layer 1" xmlns="http://www.w3.org/2000/svg" width="15" height="15" viewBox="0 0 15 15">
  <title>tennis-15</title>
  <path d="M8.5,4.5A1.5,1.5,0,1,1,7,3,1.5,1.5,0,0,1,8.5,4.5ZM14,4.75a0.25,0.25,0,0,1-.25.25,0.23,0.23,0,0,1-.2-0.12h0l-1.6-1.6a1.3,1.3,0,0,1-.69.21,2.25,2.25,0,0,1-1.54-.7A1.79,1.79,0,0,1,9.36.35,1.26,1.26,0,0,1,10.27,0a2.25,2.25,0,0,1,1.54.7A1.89,1.89,0,0,1,12.31,3l1.58,1.58h0A0.24,0.24,0,0,1,14,4.75ZM11.81,2.8a1.33,1.33,0,0,0-.35-1.74A1.76,1.76,0,0,0,10.27.5a0.78,0.78,0,0,0-.56.2,1.33,1.33,0,0,0,.35,1.74A1.76,1.76,0,0,0,11.25,3,0.77,0.77,0,0,0,11.81,2.8Zm1,2.85a0.5,0.5,0,0,0-.71,0L10.79,7H5.89a0.5,0.5,0,0,0-.48.38L4.62,10.49h0L3.9,13.36a0.5,0.5,0,0,0,.31.63l0.16,0a0.5,0.5,0,0,0,.47-0.34l0.8-3.19H7.49v3a0.5,0.5,0,0,0,1,0v-3L9,8h2.21l1.65-1.65A0.5,0.5,0,0,0,12.85,5.65Z"/>
</svg>
