<svg id="Layer_1" data-name="Layer 1" xmlns="http://www.w3.org/2000/svg" width="11" height="11" viewBox="0 0 11 11">
  <title>tennis-11</title>
  <path d="M5.5,2.5a1,1,0,1,1-1-1A1,1,0,0,1,5.5,2.5ZM10,3.78l-1.2-1.2a0.83,0.83,0,0,1-.44.13,1.43,1.43,0,0,1-1-.45A1.14,1.14,0,0,1,7.19.71,0.8,0.8,0,0,1,7.77.49a1.43,1.43,0,0,1,1,.45,1.21,1.21,0,0,1,.32,1.43l1.19,1.19ZM8.74,2.27a0.85,0.85,0,0,0-.22-1.11A1.12,1.12,0,0,0,7.77.81a0.49,0.49,0,0,0-.35.13A0.85,0.85,0,0,0,7.64,2a1.12,1.12,0,0,0,.76.35A0.49,0.49,0,0,0,8.74,2.27ZM9.5,4a0.5,0.5,0,0,0-.95-0.22h0v0h0L8,5H3.5l-1,2.5V9.92h0a0.48,0.48,0,0,0,0,.09,0.51,0.51,0,0,0,1,0,0.48,0.48,0,0,0,0-.09h0V7.5h1l1,2.69h0a0.5,0.5,0,0,0,.92-0.38h0l-1-2.3L6,6H8.5L9.45,4.22h0A0.49,0.49,0,0,0,9.5,4Z"/>
</svg>
