<svg xmlns="http://www.w3.org/2000/svg" width="15" height="15" viewBox="0 0 15 15"><title>tennis-15 copy-5.4</title><g id="51f27e57-a5cf-4150-945e-0c52f6e2ec24" data-name="icon concepts: sports &amp; leisure"><path d="M13.1284,1.87a3.0248,3.0248,0,0,0-2.2-.84,6.01,6.01,0,0,0-4.08,1.89,6.0033,6.0033,0,0,0-1.88,3.99.1275.1275,0,0,0-.01.06c.01.11.01.22.01.35a5.0658,5.0658,0,0,1-.57,2.72.5657.5657,0,0,0-.18-.03.733.733,0,0,0-.49.2l-2.49,2.5a.6941.6941,0,0,0,0,.98l.07.07a.6721.6721,0,0,0,.49.2.6566.6566,0,0,0,.49-.2l2.5-2.49a.6831.6831,0,0,0,.18-.66,7.6261,7.6261,0,0,1,3.03-.57.2768.2768,0,0,0,.09-.01,5.9877,5.9877,0,0,0,3.99-1.87C14.1084,6.13,14.5784,3.32,13.1284,1.87Zm-2.2-.04a2.2979,2.2979,0,0,1,1.64.61,2.4843,2.4843,0,0,1,.55,2.22,1.74,1.74,0,0,1-.05.22l-2.95-2.96A3.8644,3.8644,0,0,1,10.9284,1.83Zm-2.93,7.41a2.2845,2.2845,0,0,1-1.64-.6,2.6536,2.6536,0,0,1-.48-2.55l3.04,3.04A4.2,4.2,0,0,1,7.9984,9.24Zm1.24-.21-3.26-3.27a5.1649,5.1649,0,0,1,.49-1.08l3.85,3.85A5.5123,5.5123,0,0,1,9.2384,9.03Zm1.34-.66-3.94-3.95a5.2053,5.2053,0,0,1,.74-.9l4.1,4.1A5.6858,5.6858,0,0,1,10.5784,8.37Zm1.11-.96-4.1-4.1a5.5717,5.5717,0,0,1,.84-.65l3.92,3.92A5.7212,5.7212,0,0,1,11.6884,7.41Zm.82-1.09L8.6984,2.5a4.1718,4.1718,0,0,1,1.09-.48l3.2,3.2A5.566,5.566,0,0,1,12.5084,6.32Z"/><path d="M4.9684,6.91a.1275.1275,0,0,0-.01.06V6.9Z"/><path d="M8.0984,10.04h-.1a.2768.2768,0,0,0,.09-.01Z"/></g></svg>
