<?xml version="1.0" encoding="UTF-8"?>
<svg version="1.1" id="terminal" xmlns="http://www.w3.org/2000/svg" width="15" height="15" viewBox="0 0 15 15">
  <path d="M3.29913 2.10044C3.42689 2.03656 3.57588 2.03037 3.70851 2.08345L9.63537 4.45538L13.1486 2.99828C13.8194 2.72008 14.5901 3.02189 14.8935 3.68161C15.2212 4.39398 14.8756 5.23477 14.1417 5.51075L4.70887 9.05752C3.973 9.33421 3.14328 9.15412 2.58833 8.59726L0.195519 6.1962C0.0992589 6.0996 0.12577 5.93712 0.24774 5.87613L0.754504 5.62275C0.907406 5.5463 1.08877 5.55326 1.23536 5.64122L3.5 7L6.54756 5.73604L2.74423 2.69526C2.6302 2.6041 2.6491 2.42545 2.77968 2.36016L3.29913 2.10044Z M0.5 12C0.223858 12 0 12.2239 0 12.5C0 12.7761 0.223858 13 0.5 13H14.5C14.7761 13 15 12.7761 15 12.5C15 12.2239 14.7761 12 14.5 12H0.5Z"/>
</svg>