<?xml version="1.0" encoding="UTF-8"?>
<svg height="15" viewBox="0 0 15 15" width="15" xmlns="http://www.w3.org/2000/svg" id="theatre">
  <path d="m2 2s-1 0-1 1v5.1582c0 1.7303.354 3.8418 3.5 3.8418h.5v-3l-2.5 1s0-2.5 2.5-2.5v-1.5c0-.7078.0868-1.3209.5-1.7754.3815-.4196 1.0046-1.2572 2.6562-.4707l.8438.5488v-1.3027s0-1-1-1c-.7078 0-1.9776 1-3 1s-2.2135-1-3-1zm1 2c.5523 0 1 .4477 1 1s-.4477 1-1 1-1-.4477-1-1 .4477-1 1-1zm4 1s-1 0-1 1v5c0 2 1 4 4 4s4-2 4-4v-5c0-1-1-1-1-1-.7078 0-1.9776 1-3 1s-2.2135-1-3-1zm1 2c.5523 0 1 .4477 1 1s-.4477 1-1 1-1-.4477-1-1 .4477-1 1-1zm4 0c.5523 0 1 .4477 1 1s-.4477 1-1 1-1-.4477-1-1 .4477-1 1-1zm-4.5 4h2.5 2.5s0 2.5-2.5 2.5-2.5-2.5-2.5-2.5z"/>
</svg>