<svg id="Layer_1" data-name="Layer 1" xmlns="http://www.w3.org/2000/svg" width="11" height="11" viewBox="0 0 11 11">
  <title>toilet-11</title>
  <path d="M3.33,2.19a1.1,1.1,0,1,1,1.1-1.1A1.1,1.1,0,0,1,3.33,2.19Zm6.94-1.1a1.1,1.1,0,1,0-1.1,1.1A1.1,1.1,0,0,0,10.27,1.1ZM6.51,4.93h0L4.7,3.12h0A0.37,0.37,0,0,0,4.43,3H2.22a0.37,0.37,0,0,0-.25.1H2L0.14,4.93a0.38,0.38,0,1,0,.53.53L2.25,3.88,0.77,8H2.23v2.51a0.37,0.37,0,0,0,0,.11,0.38,0.38,0,0,0,.75,0H3V8H3.69v2.63h0a0.38,0.38,0,0,0,.75,0,0.37,0.37,0,0,0,0-.11V8H5.88L4.41,3.88,6,5.46H6a0.37,0.37,0,0,0,.28.12,0.38,0.38,0,0,0,.38-0.38A0.37,0.37,0,0,0,6.51,4.93ZM8.62,7v3.63a0.37,0.37,0,1,0,.73,0V7H11V3.37A0.37,0.37,0,0,0,10.63,3H7.71a0.37,0.37,0,0,0-.37.37V7H8.62Z"/>
</svg>
