<svg id="Layer_1" data-name="Layer 1" xmlns="http://www.w3.org/2000/svg" width="11" height="11" viewBox="0 0 11 11">
  <title>toilet-11</title>
  <path d="M3.28,2.19a1.1,1.1,0,1,1,1.1-1.1A1.1,1.1,0,0,1,3.28,2.19Zm7-1.1a1.1,1.1,0,1,0-1.1,1.1A1.1,1.1,0,0,0,10.27,1.1ZM6.47,4.89h0L4.66,3.07h0A0.37,0.37,0,0,0,4.39,3H2.18a0.37,0.37,0,0,0-.25.1h0L0.1,4.89a0.38,0.38,0,1,0,.53.53L2.21,3.84,0.73,8.08H2.19v2.43a0.37,0.37,0,0,0,0,.11,0.38,0.38,0,0,0,.75,0h0V8.08H3.65v2.56h0a0.38,0.38,0,0,0,.75,0,0.37,0.37,0,0,0,0-.11V8.08H5.84L4.36,3.84,5.94,5.42h0a0.37,0.37,0,0,0,.28.12A0.38,0.38,0,0,0,6.6,5.16,0.37,0.37,0,0,0,6.47,4.89ZM10.63,3H7.71a0.37,0.37,0,0,0-.37.37V7a0.37,0.37,0,0,0,.73,0v3.65a0.37,0.37,0,1,0,.73,0V7H9.54v3.65a0.37,0.37,0,1,0,.73,0V7A0.37,0.37,0,1,0,11,7V3.33A0.37,0.37,0,0,0,10.63,3Z"/>
</svg>
