<svg id="Layer_1" data-name="Layer 1" xmlns="http://www.w3.org/2000/svg" width="15" height="15" viewBox="0 0 15 15">
  <title>toilet-15</title>
  <path d="M4.5,3A1.5,1.5,0,1,1,6,1.5,1.5,1.5,0,0,1,4.5,3ZM14,1.5A1.5,1.5,0,1,0,12.5,3,1.5,1.5,0,0,0,14,1.5ZM8.86,6.64h0L6.38,4.15h0A0.51,0.51,0,0,0,6,4H3a0.51,0.51,0,0,0-.35.14h0L0.14,6.63a0.52,0.52,0,1,0,.73.73L3,5.2,1,11H3v3.33a0.5,0.5,0,0,0,0,.15,0.51,0.51,0,0,0,1,0H4V11H5v3.5H5a0.51,0.51,0,0,0,1,0,0.5,0.5,0,0,0,0-.15V11H8L6,5.2,8.14,7.36h0a0.51,0.51,0,0,0,.38.17A0.52,0.52,0,0,0,9,7,0.51,0.51,0,0,0,8.86,6.64ZM14.5,4h-4a0.5,0.5,0,0,0-.5.5v5a0.5,0.5,0,0,0,1,0v5a0.5,0.5,0,0,0,1,0v-5h1v5a0.5,0.5,0,0,0,1,0v-5a0.5,0.5,0,0,0,1,0v-5A0.5,0.5,0,0,0,14.5,4Z"/>
</svg>
