<?xml version="1.0" encoding="UTF-8"?>
<svg version="1.1" id="toll-booth" xmlns="http://www.w3.org/2000/svg" width="15" height="15" viewBox="0 0 15 15">
  <path d="M1.5 0C1.22386 0 1 0.223858 1 0.5V1V12H0.5C0.223858 12 0 12.2239 0 12.5C0 12.7761 0.223858 13 0.5 13H1H6H7.5C7.77614 13 8 12.7761 8 12.5C8 12.2239 7.77614 12 7.5 12H6V8.72998L12.789 3.95968C13.0149 3.80092 13.0694 3.48905 12.9106 3.26311L12.6231 2.85401C12.4644 2.62806 12.1525 2.5736 11.9266 2.73236L6 6.8967V1H7V0.5C7 0.223858 6.77614 0 6.5 0H1.5ZM2.5 2C2.22386 2 2 2.22386 2 2.5V6.5C2 6.77614 2.22386 7 2.5 7H4.5C4.77614 7 5 6.77614 5 6.5V2.5C5 2.22386 4.77614 2 4.5 2H2.5Z"/>
</svg>