<?xml version="1.0" encoding="UTF-8"?>
<svg height="15" viewBox="0 0 15 15" width="15" xmlns="http://www.w3.org/2000/svg" id="toll-booth">
  <path d="m3.5 1c-.27614 0-.5.22386-.5.5v.5 11h-.5c-.27614 0-.5.2239-.5.5s.22386.5.5.5h7c.27614 0 .5-.2239.5-.5s-.22386-.5-.5-.5h-1.5v-2.9013l6.7761-4.55294c.2292-.15401.2902-.46467.1362-.69387l-.2789-.41502c-.154-.22921-.4646-.29017-.6938-.13617l-5.9396 3.99082v-6.29152h.5c.27614 0 .5-.22386.5-.5s-.22386-.5-.5-.5zm.5 2.5c0-.27614.22386-.5.5-.5h2c.27614 0 .5.22386.5.5v4c0 .27614-.22386.5-.5.5h-2c-.27614 0-.5-.22386-.5-.5z"/>
</svg>