<svg xmlns="http://www.w3.org/2000/svg" width="15" height="15" viewBox="0 0 15 15">
  <title>town-15</title>
  <g id="Layer_7" data-name="Layer 7">
    <path d="M4.5,1.5,2,4V14H4V12H5v2H7V4ZM3,4,4.5,2.5,6,4Z"/>
    <path d="M10.5,2.5,8,5v8h2V11h1v2h2V5ZM9,5l1.5-1.5L12,5Z"/>
    <rect x="3" y="9" width="1" height="1" fill="#edefef"/>
    <rect x="5" y="9" width="1" height="1" fill="#edefef"/>
    <rect x="9" y="8" width="1" height="1" fill="#edefef"/>
    <rect x="11" y="8" width="1" height="1" fill="#edefef"/>
    <rect x="9" y="6" width="1" height="1" fill="#edefef"/>
    <rect x="11" y="6" width="1" height="1" fill="#edefef"/>
    <rect x="3" y="7" width="1" height="1" fill="#edefef"/>
    <rect x="5" y="7" width="1" height="1" fill="#edefef"/>
    <rect x="3" y="5" width="1" height="1" fill="#edefef"/>
    <rect x="5" y="5" width="1" height="1" fill="#edefef"/>
  </g>
</svg>
