<svg id="Layer_1" data-name="Layer 1" xmlns="http://www.w3.org/2000/svg" width="11" height="11" viewBox="0 0 11 11">
  <title>town-11</title>
  <path d="M6,4.089l-.072-.175L3.695,1.1a.242.242,0,0,0-.331-.05.343.343,0,0,0-.069.05L1.071,3.915,1,4.089V9.75a.25.25,0,0,0,.25.25h1.5A.25.25,0,0,0,3,9.75V8H4V9.75a.25.25,0,0,0,.25.25H5V5.793a.5.5,0,0,1,.147-.354L6,4.4ZM3,7H2V6H3ZM3,5H2V4H3Zm6.946.932L8.194,3.742a.248.248,0,0,0-.387,0L6.054,5.932A.248.248,0,0,0,6,6.087V9.752A.248.248,0,0,0,6.248,10h3.5A.248.248,0,0,0,10,9.756V6.087A.248.248,0,0,0,9.946,5.932ZM7,6H8V7H7ZM9,9H8V8H9Z"/>
</svg>
