<svg id="Layer_1" data-name="Layer 1" xmlns="http://www.w3.org/2000/svg" width="15" height="15" viewBox="0 0 15 15">
  <title>town-15</title>
  <g id="Layer_10" data-name="Layer 10">
    <path d="M4.79,1.815,2.042,5.936A.252.252,0,0,0,2,6.076v7.671A.252.252,0,0,0,2.252,14h1.5A.252.252,0,0,0,4,13.748V12H6v1.748A.252.252,0,0,0,6.252,14h1.5A.252.252,0,0,0,8,13.748V6.076a.252.252,0,0,0-.042-.14L5.21,1.815A.252.252,0,0,0,4.79,1.815ZM4,10H3V9H4ZM4,8H3V7H4Zm3,2H6V9H7ZM7,8H6V7H7Z"/>
    <path d="M11.342,6.126l-2.247,1.8a.253.253,0,0,0-.095.2v4.625A.253.253,0,0,0,9.253,13h1.494A.253.253,0,0,0,11,12.747V11h1v1.747a.253.253,0,0,0,.253.253h1.494A.253.253,0,0,0,14,12.747V8.122a.253.253,0,0,0-.095-.2l-2.247-1.8A.253.253,0,0,0,11.342,6.126ZM11,10H10V9h1Zm2,0H12V9h1Z"/>
  </g>
</svg>
