<svg id="Layer_1" data-name="Layer 1" xmlns="http://www.w3.org/2000/svg" width="15" height="15" viewBox="0 0 15 15">
  <title>town-15</title>
  <path d="M12.9,8.922l-2.247-1.8a.253.253,0,0,0-.316,0L8.1,8.926a.253.253,0,0,0-.1.2V14H9.747A.253.253,0,0,0,10,13.747h0V12h1v1.747a.253.253,0,0,0,.253.253h1.494A.253.253,0,0,0,13,13.747h0V9.122A.253.253,0,0,0,12.9,8.922ZM10,11H9V10h1Zm2,0H11V10h1ZM8.958,6,5.71,1.815a.252.252,0,0,0-.42,0L2.042,5.936A.252.252,0,0,0,2,6.076v7.671A.252.252,0,0,0,2.251,14h2.5A.252.252,0,0,0,5,13.748V12H6v1.748A.252.252,0,0,0,6.252,14H7V8.046a.5.5,0,0,1,.188-.391L9,6.14A.252.252,0,0,0,8.958,6ZM4,10H3V9H4ZM4,7H3V6H4Zm2,3H5V9H6ZM6,7H5V6H6Z"/>
</svg>
