<?xml version="1.0" encoding="UTF-8"?>
<svg width="15" height="15" viewBox="0 0 15 15" xmlns="http://www.w3.org/2000/svg" id="tunnel">
  <path d="M4 1C1.79086 1 0 2.79086 0 5V13.5C0 13.7761 0.223858 14 0.5 14H2.5C2.77614 14 3 13.7761 3 13.5V9.5C3 7.01472 5.01472 5 7.5 5C9.98528 5 12 7.01472 12 9.5V13.5C12 13.7761 12.2239 14 12.5 14H14.5C14.7761 14 15 13.7761 15 13.5V5C15 2.79086 13.2091 1 11 1H4ZM11 10.6703V10C11 7.79086 9.433 6 7.5 6C5.567 6 4 7.79086 4 10V13.2417C4 13.6007 4.36703 13.8427 4.69696 13.7013L10.697 11.1299C10.8808 11.0511 11 10.8703 11 10.6703Z"/>
</svg>