<svg id="Layer_1" data-name="Layer 1" xmlns="http://www.w3.org/2000/svg" width="15" height="15" viewBox="0 0 15 15">
  <title>veterinary-15</title>
  <g>
    <path id="path3340" d="M7.5,6c-2.5,0-3,2.28-3,3.47h0a6.15,6.15,0,0,0-1.7.89,2,2,0,0,0-.4,2.78,2.06,2.06,0,0,0,2.8.4,4,4,0,0,1,2.3-.69,4,4,0,0,1,2.3.69,2,2,0,0,0,2.8-.3,1.93,1.93,0,0,0-.3-2.78l-0.1-.1a9,9,0,0,0-1.7-.89h0C10.5,8.29,10,6,7.5,6Z"/>
    <path id="ellipse4153" d="M2.08,4.3a1.58,1.58,0,0,0-.76,2A1.52,1.52,0,0,0,2.93,7.7a1.58,1.58,0,0,0,.76-2A1.52,1.52,0,0,0,2.08,4.3Z"/>
    <path id="ellipse4163" d="M12.93,4.3a1.58,1.58,0,0,1,.76,2A1.52,1.52,0,0,1,12.08,7.7a1.58,1.58,0,0,1-.76-2A1.52,1.52,0,0,1,12.93,4.3Z"/>
    <path id="ellipse4165" d="M5.08,1.3c-0.68.09-1,.94-0.76,1.87A1.77,1.77,0,0,0,5.93,4.7c0.68-.09,1-0.94.76-1.87A1.77,1.77,0,0,0,5.08,1.3Z"/>
    <path id="ellipse4167" d="M9.93,1.3c0.68,0.09,1,.94.76,1.87A1.77,1.77,0,0,1,9.07,4.7c-0.68-.08-1-0.94-0.76-1.87A1.77,1.77,0,0,1,9.93,1.3Z"/>
  </g>
</svg>
