<svg id="Layer_1" data-name="Layer 1" xmlns="http://www.w3.org/2000/svg" width="11" height="11" viewBox="0 0 11 11">
  <title>veterinary-11</title>
  <path d="M5.5,4.32A2.2,2.2,0,0,0,3.36,6.78h0a4.4,4.4,0,0,0-1.21.63,1.42,1.42,0,0,0-.29,2,1.48,1.48,0,0,0,2,.28A2.89,2.89,0,0,1,5.5,9.17a2.89,2.89,0,0,1,1.64.49,1.41,1.41,0,0,0,2-.21,1.35,1.35,0,0,0-.21-2L8.85,7.41a6.4,6.4,0,0,0-1.21-.63h0A2.2,2.2,0,0,0,5.5,4.32ZM1.63,3.12a1.11,1.11,0,0,0-.55,1.44,1.08,1.08,0,0,0,1.15,1,1.11,1.11,0,0,0,.55-1.44A1.08,1.08,0,0,0,1.63,3.12Zm7.74,0a1.11,1.11,0,0,1,.55,1.44,1.08,1.08,0,0,1-1.15,1,1.11,1.11,0,0,1-.55-1.44A1.08,1.08,0,0,1,9.37,3.12ZM3.77,1a1,1,0,0,0-.55,1.32A1.26,1.26,0,0,0,4.38,3.41a1,1,0,0,0,.55-1.32A1.26,1.26,0,0,0,3.77,1ZM7.23,1a1,1,0,0,1,.55,1.32A1.26,1.26,0,0,1,6.62,3.41a1,1,0,0,1-.55-1.32A1.26,1.26,0,0,1,7.23,1Z"/>
</svg>
