<svg width="11" height="11" viewBox="0 0 11 11">
 <title>viewpoint-11</title>
 <path d="m4.6035 1.5293c-0.53543 0.077479-1.0588 0.2257-1.5566 0.4375l1.7754 4.3652c0.13757-0.056693 0.2824-0.096018 0.42969-0.11719l-0.64844-4.6855zm1.7891 0l-0.64844 4.6836c0.14774 0.018898 0.29336 0.059679 0.43164 0.11523l1.7773-4.3711c-0.49929-0.20976-1.0243-0.35253-1.5605-0.42773zm3.084 1.3535l-2.875 3.6914c0.11775 0.091464 0.22294 0.19654 0.31445 0.31445l3.6543-2.8398c-0.31353-0.43377-0.68081-0.82561-1.0937-1.166zm-7.9512 0.0058594c-0.41359 0.34016-0.78164 0.73218-1.0957 1.166l3.6562 2.8438c0.090346-0.11792 0.19393-0.22419 0.31055-0.31641l-2.8711-3.6934zm3.9746 4.1113a0.99999 0.99999 0 0 0 -1 1 0.99999 0.99999 0 0 0 1 1 0.99999 0.99999 0 0 0 1 -1 0.99999 0.99999 0 0 0 -1 -1z" style="paint-order:markers fill stroke"/>
</svg>
