<svg xmlns="http://www.w3.org/2000/svg" width="15" height="15" viewBox="0 0 15 15"><title>viewpoint-15 copy-5.4</title><g id="cf3b542b-d2af-4732-9b92-9e3dc05e460f" data-name="icon concepts: sports &amp; leisure"><path d="M6.02,8.425a2.3848,2.3848,0,0,0-.46.44l-4.55-3.5a7.9971,7.9971,0,0,1,1.51-1.51Zm6.46-4.56-3.5,4.55a2.3967,2.3967,0,0,1,.45.45l4.56-3.5A7.9436,7.9436,0,0,0,12.48,3.865ZM7.3042,10.0129a1.5,1.5,0,1,0,1.6829,1.2914A1.5,1.5,0,0,0,7.3042,10.0129ZM6.43,2.235a7.9328,7.9328,0,0,0-2.06.55l2.2,5.32a2.0419,2.0419,0,0,1,.61-.17Zm2.14.01-.75,5.69a2.4908,2.4908,0,0,1,.61.16l2.2-5.3A7.2135,7.2135,0,0,0,8.57,2.245Z"/></g></svg>