<svg width="15" height="15" viewBox="0 0 15 15">
  <title>viewpoint-15</title>
  <path d="m6.2715 2.502c-0.7339 0.1062-1.4524 0.30911-2.1348 0.59961l2.4336 5.9824c0.18856-0.077858 0.38796-0.13105 0.58984-0.16016l-0.88867-6.4219zm2.4512 0l-0.88867 6.4199c0.2025 0.026457 0.40227 0.081857 0.5918 0.1582l2.4375-5.9922c-0.68436-0.28762-1.4055-0.48287-2.1406-0.58594zm4.2285 1.8555l-3.9414 5.0586c0.16139 0.12548 0.30619 0.27014 0.43164 0.43164l5.0078-3.8926c-0.42973-0.59456-0.93199-1.1311-1.498-1.5977zm-10.898 0.0078125c-0.5669 0.46624-1.0715 1.003-1.502 1.5977l5.0117 3.8984c0.12383-0.16176 0.26594-0.30717 0.42578-0.43359l-3.9355-5.0625zm5.4473 5.6348a1.5 1.5 0 0 0 -1.5 1.5 1.5 1.5 0 0 0 1.5 1.5 1.5 1.5 0 0 0 1.5 -1.5 1.5 1.5 0 0 0 -1.5 -1.5z" style="paint-order:markers fill stroke"/>
</svg>
