<svg id="Layer_1" data-name="Layer 1" xmlns="http://www.w3.org/2000/svg" width="15" height="15" viewBox="0 0 15 15">
  <title>village-15</title>
  <g>
    <path d="M13.615,9.573,13,8.76V4.5a.5.5,0,0,0-1,0V7.439l-1.309-1.73a.219.219,0,0,0-.359-.023.13.13,0,0,1-.015.014L7.073,9.575a.249.249,0,0,0,.18.425H8v3.751A.253.253,0,0,0,8.249,14H9.743A.253.253,0,0,0,10,13.751h0V12h1v1.747a.253.253,0,0,0,.253.253h1.494A.253.253,0,0,0,13,13.751V10h.438a.25.25,0,0,0,.177-.427ZM11,10H10V9h1Z"/>
    <path d="M7,7,4.676,4.676a.249.249,0,0,0-.351,0L2,7.767V4.5a.5.5,0,0,0-1,0v9.25a.25.25,0,0,0,.25.25h5.5A.25.25,0,0,0,7,13.75V11H5.125a.5.5,0,0,1-.5-.5.534.534,0,0,1,.1-.315ZM3,11H2V10H3Z"/>
  </g>
</svg>
