<svg id="Layer_1" data-name="Layer 1" xmlns="http://www.w3.org/2000/svg" width="15" height="15" viewBox="0 0 15 15">
  <title>village-15</title>
  <g>
    <path d="M3.648,11.08a.714.714,0,0,1,.009-1L6.979,6.025,6.185,5.2a.25.25,0,0,0-.354,0L1.353,10.577v0A.245.245,0,0,0,1.527,11l0,.007H2v2.747A.253.253,0,0,0,2.249,14H4.743A.253.253,0,0,0,5,13.751V12h.785v-.722l-1.629.005A.7.7,0,0,1,3.648,11.08Z"/>
    <path d="M13.615,9.573,13,8.879V5.519c0-.007,0-.013,0-.019a.5.5,0,0,0-1,0h0V7.754L10.179,5.709A.254.254,0,0,0,9.806,5.7L6.073,9.575a.249.249,0,0,0,.18.425H7v3.751A.253.253,0,0,0,7.249,14H8.743A.253.253,0,0,0,9,13.751V12h2v1.747a.253.253,0,0,0,.253.253h1.494A.253.253,0,0,0,13,13.751L13,10h.438a.25.25,0,0,0,.177-.427ZM9,11H8V10H9Zm3,0H11V10h1Z"/>
  </g>
</svg>
