<?xml version="1.0" encoding="UTF-8"?>
<svg height="15" viewBox="0 0 15 15" width="15" xmlns="http://www.w3.org/2000/svg" id="village">
  <path d="m6.17603 2.176c-.04669-.04666-.11-.07287-.176-.07287-.06601 0-.12931.02621-.176.07287l-4.4 4.4c-.03398.03505-.05696.07928-.0661.12723-.00913.04796-.00403.09754.01469.14263.01871.04509.05022.08372.09063.11111.04042.02739.08796.04234.13678.04303h1.4v4.751c0 .066.02623.1294.07293.1761s.11003.0729.17607.0729h3.5c.0327.0003.06513-.0059.09544-.0182s.05791-.0304.08122-.0533c.0233-.023.04187-.0503.05462-.0804.01276-.0301.01946-.0624.01972-.0951v-5.43c.00004-.06603.02629-.12934.073-.176l1.427-1.647zm-.176 7.824h-1v-1h1zm0-2h-1v-1h1zm6.74997-4h-.5c-.0663 0-.1299.02633-.1767.07322-.0469.04688-.0733.11047-.0733.17678v1.75l-1.324-1.824c-.0467-.04666-.11-.07287-.176-.07287s-.1293.02621-.176.07287l-2.26797 2.756c-.03615.04395-.05594.09908-.056.156v4.66c-.0004.0327.00565.0652.0178.0955.01215.0304.03016.058.053.0814.02285.0234.05008.0421.08014.055s.06236.0197.09506.0201h1.5c.03322.0001.06615-.0063.09689-.0189.03075-.0126.05871-.0311.0823-.0545s.04233-.0512.05517-.0819c.01283-.0306.01951-.0635.01961-.0967v-1.748h1v1.747c0 .0671.0267.1314.0741.1789.0475.0474.1118.0741.1789.0741h1.5c.0656-.0008.1283-.0273.1745-.0739s.0723-.1095.0725-.1751v-7.501c0-.06631-.0263-.1299-.0732-.17678-.0469-.04689-.1105-.07322-.1768-.07322zm-2.75 5h-.99997v-1h.99997zm2 0h-1v-1h1z"/>
</svg>