<svg id="Layer_1" data-name="Layer 1" xmlns="http://www.w3.org/2000/svg" width="11" height="11" viewBox="0 0 11 11">
  <title>village-11</title>
  <g>
    <path d="M9.676,4.595,8.192,2.74a.245.245,0,0,0-.383,0L6.324,4.595A.249.249,0,0,0,6.519,5H8V7.25a.25.25,0,0,0,.25.25h.5A.25.25,0,0,0,9,7.25V5h.481A.249.249,0,0,0,9.676,4.595Z"/>
    <path d="M5.654,6.585l-.009-.011h0L3.693,4.231a.251.251,0,0,0-.385,0L1.356,6.573h0l-.027.032.007.014a.238.238,0,0,0-.054.13.25.25,0,0,0,.25.25H2V9.75a.25.25,0,0,0,.25.25h.5A.25.25,0,0,0,3,9.75V8H4V9.75a.25.25,0,0,0,.25.25h.5A.25.25,0,0,0,5,9.75V7h.5l.006-.016a.232.232,0,0,0,.146-.394Z"/>
  </g>
</svg>
