<svg id="Layer_1" data-name="Layer 1" xmlns="http://www.w3.org/2000/svg" width="15" height="15" viewBox="0 0 15 15">
  <title>village-15</title>
  <g>
    <path d="M9.623,8.581l0,0-.007-.008L5.686,4.207a.25.25,0,0,0-.372,0L1.385,8.572l0,.005-.008.009,0,0a.245.245,0,0,0-.066.159.25.25,0,0,0,.25.25H3v3.75a.25.25,0,0,0,.25.25h1.5A.25.25,0,0,0,5,12.75V11H6v1.75a.25.25,0,0,0,.25.25h1.5A.25.25,0,0,0,8,12.75V9H9.442a.25.25,0,0,0,.25-.25.247.247,0,0,0-.07-.168Z"/>
    <path d="M13.687,7.6l0-.009L11.212,4.283a.25.25,0,0,0-.408.011L10,5.5,11,7v4.25a.25.25,0,0,0,.25.25h.5a.25.25,0,0,0,.25-.25V8h1.5a.25.25,0,0,0,.25-.25A.244.244,0,0,0,13.687,7.6Z"/>
  </g>
</svg>
