<svg id="Layer_1" data-name="Layer 1" xmlns="http://www.w3.org/2000/svg" width="11" height="11" viewBox="0 0 11 11">
  <title>village-11</title>
  <path d="M2.777,2.3.3,5.6a.272.272,0,0,0-.05.15A.25.25,0,0,0,.5,6H1V9.745A.255.255,0,0,0,1.255,10h2.49A.255.255,0,0,0,4,9.745H4V5.467A.253.253,0,0,1,4.064,5.3L5,4.5,3.2,2.316A.255.255,0,0,0,2.777,2.3ZM3,7H2V6H3ZM9.75,3h-.5A.25.25,0,0,0,9,3.25V5.2L7.658,4.126a.253.253,0,0,0-.316,0L5.1,5.926a.253.253,0,0,0-.095.2V9.747A.253.253,0,0,0,5.253,10H6.747A.253.253,0,0,0,7,9.747H7V8H8V9.747A.253.253,0,0,0,8.253,10H9.747A.253.253,0,0,0,10,9.747h0V3.25A.25.25,0,0,0,9.75,3ZM7,7H6V6H7ZM9,7H8V6H9Z"/>
</svg>
