<svg id="Layer_1" data-name="Layer 1" xmlns="http://www.w3.org/2000/svg" width="11" height="11" viewBox="0 0 11 11">
  <title>village-11-01</title>
  <g>
    <path d="M9.927,6.573,9,5.584V3.25a.25.25,0,0,0-.5,0v1.8l-.823-.878a.25.25,0,0,0-.353,0l-2.251,2.4A.25.25,0,0,0,5.249,7H6V9.751A.249.249,0,0,0,6.249,10h.5A.249.249,0,0,0,7,9.753V8H8V9.751A.249.249,0,0,0,8.249,10h.5A.249.249,0,0,0,9,9.753V7h.75a.25.25,0,0,0,.177-.427ZM8,7H7V6H8Z"/>
    <path d="M3.657,7.613C3.569,7.42,3.326,7.05,4,6.225L6.034,3.754,4.689,2.216a.251.251,0,0,0-.354-.024.255.255,0,0,0-.024.024L2,5.538V2.5a.5.5,0,0,0-1,0V7l.023-.011c-.006.022-.023.04-.023.063v2.7A.249.249,0,0,0,1.249,10h3.5A.249.249,0,0,0,5,9.753V8H4.306C4.044,8,3.9,7.86,3.657,7.613ZM3,8H2V7H3Z"/>
  </g>
</svg>
