<svg id="Layer_1" data-name="Layer 1" xmlns="http://www.w3.org/2000/svg" width="11" height="11" viewBox="0 0 11 11">
  <title>village-11</title>
  <g>
    <path d="M2.938,7.874A.714.714,0,0,1,2.944,7l3.09-3.246L4.689,2.216a.251.251,0,0,0-.378,0L1.375,5.572A.25.25,0,0,0,1.551,6V6H2V9.751A.249.249,0,0,0,2.249,10h1.5A.249.249,0,0,0,4,9.751V8.022l-.694,0A.512.512,0,0,1,2.938,7.874Z"/>
    <path d="M10.074,6.573,9.5,6V3.25a.25.25,0,0,0-.5,0V5.5L7.676,4.176a.25.25,0,0,0-.353,0l-2.394,2.4A.25.25,0,0,0,5.106,7H5.5V9.751A.249.249,0,0,0,5.749,10h1A.249.249,0,0,0,7,9.751V8H8V9.751A.249.249,0,0,0,8.249,10h1A.249.249,0,0,0,9.5,9.751V7h.4a.25.25,0,0,0,.177-.427ZM8,7H7V6H8Z"/>
  </g>
</svg>
