<?xml version="1.0" encoding="utf-8"?>
<!-- Generator: Adobe Illustrator 19.2.1, SVG Export Plug-In . SVG Version: 6.00 Build 0)  -->
<!DOCTYPE svg PUBLIC "-//W3C//DTD SVG 1.1//EN" "http://www.w3.org/Graphics/SVG/1.1/DTD/svg11.dtd">
<svg version="1.1"
	 id="svg4764" inkscape:version="0.91 r13725" sodipodi:docname="volcano-11.svg" xmlns:cc="http://creativecommons.org/ns#" xmlns:dc="http://purl.org/dc/elements/1.1/" xmlns:inkscape="http://www.inkscape.org/namespaces/inkscape" xmlns:rdf="http://www.w3.org/1999/02/22-rdf-syntax-ns#" xmlns:sodipodi="http://sodipodi.sourceforge.net/DTD/sodipodi-0.dtd" xmlns:svg="http://www.w3.org/2000/svg"
	 xmlns="http://www.w3.org/2000/svg" xmlns:xlink="http://www.w3.org/1999/xlink" x="0px" y="0px" width="11px" height="11px"
	 viewBox="0 0 11 11" style="enable-background:new 0 0 11 11;" xml:space="preserve">
<path id="rect3338" d="M3,1l1.5,3h2L8,3V2L6,3V1H5.5L5,2.5L3.5,1H3z M3.5215,5l-2.498,4.1602C0.8007,9.5296,1.0679,9.9999,1.5,10h8
	c0.4321-0.0001,0.6993-0.4704,0.4766-0.8398L7.4785,5H7v0.5C7,5.777,6.777,6,6.5,6S6,5.777,6,5.5C6,5.2239,5.7761,5,5.5,5
	S5,5.2239,5,5.5v2C5,7.777,4.777,8,4.5,8S4,7.777,4,7.5V5H3.5215z"/>
</svg>
