<?xml version="1.0" encoding="utf-8"?>
<!-- Generator: Adobe Illustrator 19.2.1, SVG Export Plug-In . SVG Version: 6.00 Build 0)  -->
<!DOCTYPE svg PUBLIC "-//W3C//DTD SVG 1.1//EN" "http://www.w3.org/Graphics/SVG/1.1/DTD/svg11.dtd">
<svg version="1.1"
	 id="svg4619" inkscape:version="0.91 r13725" sodipodi:docname="volcano-15.svg" xmlns:cc="http://creativecommons.org/ns#" xmlns:dc="http://purl.org/dc/elements/1.1/" xmlns:inkscape="http://www.inkscape.org/namespaces/inkscape" xmlns:rdf="http://www.w3.org/1999/02/22-rdf-syntax-ns#" xmlns:sodipodi="http://sodipodi.sourceforge.net/DTD/sodipodi-0.dtd" xmlns:svg="http://www.w3.org/2000/svg"
	 xmlns="http://www.w3.org/2000/svg" xmlns:xlink="http://www.w3.org/1999/xlink" x="0px" y="0px" width="15px" height="15px"
	 viewBox="0 0 15 15" style="enable-background:new 0 0 15 15;" xml:space="preserve">
<path id="path6447" inkscape:connector-curvature="0" style="fill:#010101;" d="M8.4844,1.0002
	c-0.1464,0.005-0.2835,0.0731-0.375,0.1875L6.4492,3.2619L4.8438,1.7385C4.4079,1.3374,3.7599,1.893,4.0899,2.385l1.666,2.4004
	C5.9472,5.061,6.3503,5.0737,6.5586,4.8108C6.7249,4.6009,7,4.133,7.5,4.133s0.7929,0.4907,0.9414,0.6777
	c0.175,0.2204,0.4973,0.2531,0.7129,0.0723l1.668-1.4004c0.4408-0.3741,0.0006-1.0735-0.5273-0.8379L9,3.2268V1.5002
	C9.0002,1.2179,8.7666,0.9915,8.4844,1.0002L8.4844,1.0002z M5,6.0002L2.0762,11.924C1.9993,12.0009,2,12.155,2,12.3088
	c0,0.5385,0.3837,0.6914,0.6914,0.6914h9.6172c0.3846,0,0.6914-0.153,0.6914-0.6914c0-0.1538,0.0008-0.2309-0.0762-0.3848L10,6.0002
	c-0.5,0-1,0.5-1,1v0.5c0,0.277-0.223,0.5-0.5,0.5S8,7.7772,8,7.5002v-0.5c0-0.2761-0.2238-0.5-0.5-0.5S7,6.7241,7,7.0002v2
	c0,0.277-0.223,0.5-0.5,0.5S6,9.2772,6,9.0002v-2C6,6.5002,5.5,6.0002,5,6.0002z"/>
</svg>
