<?xml version="1.0" encoding="UTF-8" standalone="no"?>
<!-- Generator: Adobe Illustrator 18.1.0, SVG Export Plug-In . SVG Version: 6.00 Build 0)  -->

<svg
   xmlns:dc="http://purl.org/dc/elements/1.1/"
   xmlns:cc="http://creativecommons.org/ns#"
   xmlns:rdf="http://www.w3.org/1999/02/22-rdf-syntax-ns#"
   xmlns:svg="http://www.w3.org/2000/svg"
   xmlns="http://www.w3.org/2000/svg"
   xmlns:sodipodi="http://sodipodi.sourceforge.net/DTD/sodipodi-0.dtd"
   xmlns:inkscape="http://www.inkscape.org/namespaces/inkscape"
   version="1.1"
   id="svg4619"
   sodipodi:docname="volcano-15.svg"
   inkscape:version="0.91 r13725"
   x="0px"
   y="0px"
   width="15px"
   height="15px"
   viewBox="-292 193 15 15"
   enable-background="new -292 193 15 15"
   xml:space="preserve"><defs
     id="defs4138" /><sodipodi:namedview
     pagecolor="#ffffff"
     bordercolor="#666666"
     borderopacity="1"
     objecttolerance="10"
     gridtolerance="10"
     guidetolerance="10"
     inkscape:pageopacity="0"
     inkscape:pageshadow="2"
     inkscape:window-width="1544"
     inkscape:window-height="894"
     id="namedview4136"
     showgrid="false"
     inkscape:zoom="32"
     inkscape:cx="7.326856"
     inkscape:cy="7.4445799"
     inkscape:window-x="61"
     inkscape:window-y="325"
     inkscape:window-maximized="0"
     inkscape:current-layer="svg4619"
     inkscape:snap-bbox="true"
     inkscape:bbox-paths="true"
     inkscape:object-paths="true"
     inkscape:object-nodes="true"
     inkscape:snap-smooth-nodes="true"
     inkscape:snap-intersection-paths="true"
     showborder="true"
     showguides="false"
     inkscape:guide-bbox="true"
     inkscape:snap-nodes="true"
     inkscape:bbox-nodes="true"><inkscape:grid
       type="xygrid"
       id="grid4714"
       spacingx="0.5"
       spacingy="0.5"
       color="#ff0000"
       opacity="0.1254902"
       empspacing="2" /><sodipodi:guide
       position="7.5,11.5"
       orientation="-0.85255609,0.52263574"
       id="guide5600" /></sodipodi:namedview><metadata
     id="metadata4873"><rdf:RDF><cc:Work
         rdf:about=""><dc:title></dc:title></cc:Work></rdf:RDF></metadata><path
     inkscape:connector-curvature="0"
     style="fill:#000000;fill-opacity:1"
     d="m -283.51559,193.99996 c -0.14643,0.005 -0.2835,0.0731 -0.375,0.1875 l -1.66016,2.07422 -1.60547,-1.52344 c -0.43586,-0.40112 -1.08386,0.15455 -0.75391,0.64648 l 1.66602,2.40039 c 0.1913,0.27561 0.59438,0.28835 0.80273,0.0254 0.16626,-0.20983 0.44141,-0.67773 0.94141,-0.67773 0.5,0 0.7929,0.49067 0.94141,0.67773 0.17496,0.22039 0.49725,0.25305 0.71289,0.0723 l 1.66797,-1.40039 c 0.4408,-0.37414 6.4e-4,-1.07349 -0.52735,-0.83789 l -1.29492,0.58203 0,-1.72656 c 1.1e-4,-0.28235 -0.23341,-0.50879 -0.51562,-0.5 z m -3.48438,5 -2.92383,5.92383 c -0.0769,0.0769 -0.0762,0.23092 -0.0762,0.38476 0,0.53846 0.38372,0.69141 0.69141,0.69141 l 9.61718,0 c 0.38462,0 0.69141,-0.15295 0.69141,-0.69141 0,-0.15384 7.9e-4,-0.23092 -0.0762,-0.38476 l -2.92377,-5.92383 c -0.5,0 -1,0.5 -1,1 l 0,0.5 c 0,0.277 -0.223,0.5 -0.5,0.5 -0.277,0 -0.5,-0.223 -0.5,-0.5 l 0,-0.5 a 0.5,0.5 0 0 0 -0.5,-0.5 0.5,0.5 0 0 0 -0.5,0.5 l 0,2 c 0,0.277 -0.223,0.5 -0.5,0.5 -0.277,0 -0.5,-0.223 -0.5,-0.5 l 0,-2 c 0,-0.5 -0.5,-1 -1,-1 z"
     id="path6447" /></svg>