<svg xmlns="http://www.w3.org/2000/svg" width="15" height="15" viewBox="0 0 15 15"><title>volleyball-15 copy-5.4</title><g id="e086ca83-8703-4df5-a97c-5939eb32113a" data-name="icon concepts: sports &amp; leisure"><path d="M13.91,7.94a5.9081,5.9081,0,0,1-.13.94,8.8219,8.8219,0,0,0-2.17-1.49,8.8877,8.8877,0,0,0-1.4-.56,8.6128,8.6128,0,0,0-1.82-.35.22.22,0,0,0-.08-.01A7.32,7.32,0,0,1,7.5,4.59c-.01-.01-.01-.01,0-.02a7.7585,7.7585,0,0,1,1.52.15,7.0967,7.0967,0,0,1,1.56.5,6.8571,6.8571,0,0,1,1.4.78A7.4172,7.4172,0,0,1,13.91,7.94Zm-1.87-5a6.2223,6.2223,0,0,0-1.85-1.27,4.271,4.271,0,0,0-.98-.36,5.6389,5.6389,0,0,0-1.55-.23,1.2911,1.2911,0,0,0-.32,0A7.4265,7.4265,0,0,0,7.21,2.5c0,.2.01.39.02.58a2.2725,2.2725,0,0,1,.26-.01,2.6342,2.6342,0,0,1,.28.01,8.2865,8.2865,0,0,1,1.49.16,8.9858,8.9858,0,0,1,1.35.37,8.7882,8.7882,0,0,1,1.53.7,10.1811,10.1811,0,0,1,1.39.97A6.458,6.458,0,0,0,12.04,2.94ZM4.01,8.76a9.406,9.406,0,0,1-.62-1.37,9.1044,9.1044,0,0,1-.37-1.41,9.1761,9.1761,0,0,1-.16-1.67V4.28a8.4539,8.4539,0,0,1,.1-1.34A6.28,6.28,0,0,0,1.47,5.3a6.2212,6.2212,0,0,0-.4,2.2c0,.15.01.3.02.44a5.9081,5.9081,0,0,0,.13.94,5.7363,5.7363,0,0,0,.41,1.23c.22-.05.44-.11.65-.17a8.02,8.02,0,0,0,1.9-.88C4.12,8.96,4.06,8.86,4.01,8.76Zm2.6-2.28a9.0009,9.0009,0,0,1-.63-1.76,9.1388,9.1388,0,0,1-.24-1.48c-.02-.25-.03-.49-.03-.74a9.39,9.39,0,0,1,.08-1.19,4.271,4.271,0,0,0-.98.36,7.7037,7.7037,0,0,0-.42,1.94c-.02.22-.03.44-.03.67a7.2639,7.2639,0,0,0,.06.93,7.4214,7.4214,0,0,0,.37,1.63,6.4715,6.4715,0,0,0,.59,1.28A8.0184,8.0184,0,0,0,6.65,6.55.2506.2506,0,0,1,6.61,6.48ZM12.7,9.93s0-.01-.01,0a7.0137,7.0137,0,0,0-1.7-1.16c-.06.1-.11.19-.17.29a8.7843,8.7843,0,0,1-.88,1.22,8.9205,8.9205,0,0,1-1.06,1.07,10.4173,10.4173,0,0,1-1.38.98,8.9937,8.9937,0,0,1-2.64,1.02,6.2982,6.2982,0,0,0,5.28,0,5.9665,5.9665,0,0,0,2.42-1.89,4.8294,4.8294,0,0,0,.65-1.03A6.0205,6.0205,0,0,0,12.7,9.93Zm-5.17-2c-.01.01-.02.03-.03.04a9.2611,9.2611,0,0,1-1.25,1.4,9.5961,9.5961,0,0,1-1.19.91,9.2684,9.2684,0,0,1-2.62,1.18,6.0949,6.0949,0,0,0,.53.61,7.7356,7.7356,0,0,0,3.15-.72,7.3854,7.3854,0,0,0,1.38-.82A7.6428,7.6428,0,0,0,8.75,9.37a7.7434,7.7434,0,0,0,.82-1.15A7.3412,7.3412,0,0,0,7.53,7.93Z"/></g></svg>