<svg xmlns="http://www.w3.org/2000/svg" width="11" height="11" viewBox="0 0 11 11"><title>volleyball-11 copy-5.4</title><g id="7614b72a-b35d-437a-9bff-e89e6af64e27" data-name="icon concepts: sports &amp; leisure"><path d="M9.99,5.73a3.6626,3.6626,0,0,1-.1.74A6.3226,6.3226,0,0,0,7.44,5.05a5.9539,5.9539,0,0,0-1.32-.27c-.03,0-.07-.01-.11-.01A4.6055,4.6055,0,0,1,5.5,3.64a1.0542,1.0542,0,0,1-.06-.24h.12a4.8814,4.8814,0,0,1,1.01.11,5.0363,5.0363,0,0,1,1.14.36,4.8349,4.8349,0,0,1,.94.53A5.1352,5.1352,0,0,1,9.99,5.73ZM9.33,7.31a5.1961,5.1961,0,0,0-1.36-.97c-.05.1-.11.19-.17.29a5.8676,5.8676,0,0,1-.59.82,7.1846,7.1846,0,0,1-.78.78,6.7267,6.7267,0,0,1-.93.65,6.365,6.365,0,0,1-1.86.72,4.5242,4.5242,0,0,0,3.72,0,4.161,4.161,0,0,0,1.25-.86,3.1964,3.1964,0,0,0,.43-.47,3.75,3.75,0,0,0,.48-.76A1.1911,1.1911,0,0,0,9.33,7.31ZM8.68,2.32a4.51,4.51,0,0,0-1.24-.88,3.9787,3.9787,0,0,0-.75-.28,4.34,4.34,0,0,0-1.03-.15,1.2833,1.2833,0,0,0-.32,0A5.3609,5.3609,0,0,0,5.25,2c0,.14.01.28.02.41a1.6182,1.6182,0,0,1,.22-.01,1.9244,1.9244,0,0,1,.24.01,6.6519,6.6519,0,0,1,1,.11,5.7021,5.7021,0,0,1,1,.28,6.7752,6.7752,0,0,1,1.02.47,6.6617,6.6617,0,0,1,.98.69A4.5662,4.5662,0,0,0,8.68,2.32ZM3.03,6.34a5.8073,5.8073,0,0,1-.4-.92,5.7868,5.7868,0,0,1-.28-1.03,6.8608,6.8608,0,0,1-.1-1.12V3.25a5.6549,5.6549,0,0,1,.07-.93A4.3943,4.3943,0,0,0,1.27,3.97,4.3217,4.3217,0,0,0,1,5.5a1.7687,1.7687,0,0,0,.01.23,4.4162,4.4162,0,0,0,.09.73,4.0747,4.0747,0,0,0,.31.91,1.0684,1.0684,0,0,0,.27-.07A5.0691,5.0691,0,0,0,3.2,6.63C3.14,6.53,3.08,6.44,3.03,6.34Zm3.88-.4a5.4986,5.4986,0,0,0-1.35-.19c-.02.03-.04.05-.06.08a6.25,6.25,0,0,1-.91,1.01,5.8323,5.8323,0,0,1-.8.61,6.5721,6.5721,0,0,1-1.83.82,3.1964,3.1964,0,0,0,.43.47,5.1716,5.1716,0,0,0,2.18-.51,5.4162,5.4162,0,0,0,.93-.55,5.5973,5.5973,0,0,0,.91-.84A4.8067,4.8067,0,0,0,7,6.01a.052.052,0,0,0,.02-.04A.2285.2285,0,0,0,6.91,5.94ZM4.88,4.78a5.6434,5.6434,0,0,1-.45-1.27,6.3831,6.3831,0,0,1-.16-.99c-.01-.17-.02-.35-.02-.52a5.8319,5.8319,0,0,1,.06-.84,3.9787,3.9787,0,0,0-.75.28A5.5789,5.5789,0,0,0,3.27,2.8c-.01.15-.02.3-.02.45a4.2174,4.2174,0,0,0,.04.62,4.71,4.71,0,0,0,.27,1.18,5.0971,5.0971,0,0,0,.42.92A.052.052,0,0,0,4,6.01a.1781.1781,0,0,0,.08-.07h.01a5.6774,5.6774,0,0,0,.84-1.06A.3127.3127,0,0,1,4.88,4.78Z"/></g></svg>