<?xml version="1.0" encoding="utf-8"?>
<!-- Generator: Adobe Illustrator 19.2.1, SVG Export Plug-In . SVG Version: 6.00 Build 0)  -->
<!DOCTYPE svg PUBLIC "-//W3C//DTD SVG 1.1//EN" "http://www.w3.org/Graphics/SVG/1.1/DTD/svg11.dtd">
<svg version="1.1" id="Layer_1" xmlns="http://www.w3.org/2000/svg" xmlns:xlink="http://www.w3.org/1999/xlink" x="0px" y="0px"
	 width="15px" height="15px" viewBox="0 0 15 15" style="enable-background:new 0 0 15 15;" xml:space="preserve">
<path d="M13.5,5c-0.0762,0.0003-0.1514-0.0168-0.22-0.05L7.5,2L1.72,4.93C1.4632,5.0515,1.1565,4.9418,1.035,4.685
	S1.0232,4.1215,1.28,4L7.5,0.92L13.72,4c0.2761,0.0608,0.4508,0.3339,0.39,0.61C14.0492,4.8861,13.7761,5.0608,13.5,5z M5,10H2v3h3
	V10z M9,10H6v3h3V10z M13,10h-3v3h3V10z M11,6H8v3h3V6z M7,6H4v3h3V6z"/>
</svg>
