<?xml version="1.0" encoding="utf-8"?>
<!-- Generator: Adobe Illustrator 22.1.0, SVG Export Plug-In . SVG Version: 6.00 Build 0)  -->
<svg version="1.1" id="start_here" xmlns="http://www.w3.org/2000/svg" xmlns:xlink="http://www.w3.org/1999/xlink" x="0px" y="0px"
	 width="15px" height="15px" viewBox="0 0 15 15" style="enable-background:new 0 0 15 15;" xml:space="preserve">
<g>
	<path d="M12.5,7H12c-0.0175,0-0.0323,0.0082-0.0494,0.0099C11.8021,5.6575,11.0757,4.4804,10,3.7599V1.4977
		C10,1.2228,9.7772,1,9.5023,1H5.4977C5.2228,1,5,1.2228,5,1.4977v2.2621C3.7946,4.5673,3,5.9402,3,7.5s0.7946,2.9327,2,3.7401
		v2.2621C5,13.7771,5.2228,14,5.4977,14h4.0045C9.7772,14,10,13.7771,10,13.5022v-2.2621c1.0757-0.7205,1.8021-1.8976,1.9506-3.2501
		C11.9677,7.9918,11.9825,8,12,8h0.5C12.7761,8,13,7.7761,13,7.5C13,7.2238,12.7761,7,12.5,7z M7.5,11C5.567,11,4,9.433,4,7.5
		S5.567,4,7.5,4S11,5.567,11,7.5S9.433,11,7.5,11z"/>
	<path d="M9,7H8V5.5C8,5.2238,7.7761,5,7.5,5S7,5.2238,7,5.5v2C7,7.7761,7.2239,8,7.5,8H9c0.2761,0,0.5-0.2239,0.5-0.5
		C9.5,7.2238,9.2761,7,9,7z"/>
</g>
</svg>
