<?xml version="1.0" encoding="UTF-8"?>
<svg version="1.1" id="watch-11" xmlns="http://www.w3.org/2000/svg" width="11px" height="11px" viewBox="0 0 11 11">
  <g>
    <path d="M9.0769,5.1538H8.9651C8.8412,3.9112,8.0789,2.8648,7,2.3497V1H4v1.3497C2.8208,2.9127,2,4.1062,2,5.5&#xA;&#x9;&#x9;s0.8208,2.5873,2,3.1503V10h3V8.6503c1.0789-0.5151,1.8413-1.5615,1.9651-2.8041h0.1118c0.1912,0,0.3462-0.155,0.3462-0.3461&#xA;&#x9;&#x9;S9.2681,5.1538,9.0769,5.1538z M5.5,8C4.1193,8,3,6.8807,3,5.5C3,4.1193,4.1193,3,5.5,3S8,4.1193,8,5.5C8,6.8807,6.8807,8,5.5,8z"/>
    <path d="M6.5,5H6V4c0-0.2762-0.2239-0.5-0.5-0.5S5,3.7238,5,4v1.5C5,5.7761,5.2239,6,5.5,6h1C6.7761,6,7,5.7761,7,5.5&#xA;&#x9;&#x9;C7,5.2238,6.7761,5,6.5,5z"/>
  </g>
</svg>