<?xml version="1.0" encoding="UTF-8" standalone="no"?>
<svg
   xmlns:dc="http://purl.org/dc/elements/1.1/"
   xmlns:cc="http://creativecommons.org/ns#"
   xmlns:rdf="http://www.w3.org/1999/02/22-rdf-syntax-ns#"
   xmlns:svg="http://www.w3.org/2000/svg"
   xmlns="http://www.w3.org/2000/svg"
   xml:space="preserve"
   viewBox="0 0 11 11"
   height="11"
   width="11"
   y="0px"
   x="0px"
   id="Layer_1"
   version="1.1"><metadata
     id="metadata9"><rdf:RDF><cc:Work
         rdf:about=""><dc:format>image/svg+xml</dc:format><dc:type
           rdf:resource="http://purl.org/dc/dcmitype/StillImage" /><dc:title></dc:title></cc:Work></rdf:RDF></metadata><defs
     id="defs7" /><path
     id="path5325"
     d="M 1.4804688,0.99990699 C 1.2155088,0.99990699 1,1.2200839 1,1.5099077 1,1.7308764 1.1600594,1.999907 1.5019531,1.999907 c 0.9129349,0 1.5685221,0.1364448 1.9394531,0.3847656 C 3.7977905,2.623255 3.9847007,2.957998 4,3.6581101 L 4,7.499907 c 0,0.277 0.223,0.5 0.5,0.5 0.277,0 0.5,-0.223 0.5,-0.5 0.00112,-1.3268526 0,-2.6870459 0,-4 C 5,2.7568553 4.7171003,2.5332425 4.5585938,2.1463914 4.9346751,2.2110992 5.2357215,2.3094764 5.4414062,2.4471726 5.7977905,2.685755 5.9847007,3.020498 6,3.7206101 L 6,7.499907 c 0,0.277 0.223,0.5 0.5,0.5 0.277,0 0.5,-0.223 0.5,-0.5 0.00168,-1.3290407 0,-2.6840493 0,-4 C 7,2.7610819 6.6660045,2.4804554 6.4785156,2.0799851 6.8909495,2.1443856 7.2210076,2.2487493 7.4394531,2.3983445 7.7980199,2.6438971 7.9893253,2.9938508 8,3.7323289 L 8,7.499907 c 0,0.277 0.223,0.5 0.5,0.5 0.277,0 0.5,-0.223 0.5,-0.5 0.0033,-1.3232343 0,-2.7013648 0,-4 C 9,2.7647274 8.562921,1.999907 8.009766,1.5663132 7.33751,1.1319276 6.6823538,0.99990699 6.015625,0.99990699 Z M 3.484375,8.484282 c -0.413804,0.0017 -0.6466314,0.476538 -0.3945312,0.804687 0,0 0.5033597,0.710052 1.40625,0.710938 0.4299004,4.65e-4 0.7601667,-0.167638 0.9980468,-0.335938 0.2375554,0.168443 0.5733903,0.336268 1.0039063,0.335938 0.4286018,-3.21e-4 0.7627984,-0.168273 1,-0.335938 l 0.00195,0 C 7.7498986,9.834952 8.11272,10.004545 8.566403,9.999907 9.464807,9.990907 9.927731,9.253813 9.927731,9.253813 10.128618,8.923383 9.894471,8.49974 9.507809,8.494048 9.324675,8.491148 9.154584,8.588508 9.06445,8.747954 c 0,0 -0.114934,0.247998 -0.507812,0.251953 C 8.174231,9.003807 7.8828094,8.681548 7.8828094,8.681548 7.6801984,8.436296 7.3031069,8.440086 7.1054657,8.689348 c 0,0 -0.2790525,0.310301 -0.6074219,0.310547 C 6.1705121,9.000158 5.8906219,8.689348 5.8906219,8.689348 5.6866302,8.43181 5.2939453,8.437613 5.0976531,8.701068 c 0,0 -0.2405385,0.299216 -0.5996093,0.298828 C 4.1093479,8.999524 3.90625,8.712798 3.90625,8.712798 3.8137365,8.569731 3.6547466,8.483611 3.484375,8.484282 Z"
     style="color:#000000;font-style:normal;font-variant:normal;font-weight:normal;font-stretch:normal;font-size:medium;line-height:normal;font-family:sans-serif;text-indent:0;text-align:start;text-decoration:none;text-decoration-line:none;text-decoration-style:solid;text-decoration-color:#000000;letter-spacing:normal;word-spacing:normal;text-transform:none;direction:ltr;block-progression:tb;writing-mode:lr-tb;baseline-shift:baseline;text-anchor:start;white-space:normal;clip-rule:nonzero;display:inline;overflow:visible;visibility:visible;opacity:1;isolation:auto;mix-blend-mode:normal;color-interpolation:sRGB;color-interpolation-filters:linearRGB;solid-color:#000000;solid-opacity:1;fill:#000000;fill-opacity:1;fill-rule:evenodd;stroke:none;stroke-width:1.0085212px;stroke-linecap:round;stroke-linejoin:miter;stroke-miterlimit:4;stroke-dasharray:none;stroke-dashoffset:0;stroke-opacity:1;color-rendering:auto;image-rendering:auto;shape-rendering:auto;text-rendering:auto;enable-background:accumulate" /></svg>