<svg xmlns="http://www.w3.org/2000/svg" width="15" height="15" viewBox="0 0 15 15">
  <title>waterfall-15</title>
  <g id="Layer_12" data-name="Layer 12">
    <path d="M5,1S1,1,1,5V9.789A2.959,2.959,0,0,0,0,12a3,3,0,0,0,3,3,2.971,2.971,0,0,0,1.569-.455,2.48,2.48,0,0,0,2.863,0A2.971,2.971,0,0,0,9,15a2.992,2.992,0,0,0,.985-5.82l.015,0V5a1.959,1.959,0,0,1,2-2h3V1Zm6,11a1.985,1.985,0,0,1-2.449,1.945l-.017-.005a2,2,0,0,1-1.178-.805,1.493,1.493,0,0,1-2.71,0,2,2,0,0,1-1.178.805l-.017.005A1.993,1.993,0,0,1,2,10.277V7A.5.5,0,0,1,3,7v4a.5.5,0,0,0,1,0V8A.5.5,0,0,1,5,8v4a.5.5,0,0,0,1,0V7A.5.5,0,0,1,7,7v3.5a.5.5,0,0,0,1,0v-5a.5.5,0,0,1,1,0V9a2.727,2.727,0,0,1,.526.053A2.982,2.982,0,0,0,9,9v1A2,2,0,0,1,11,12Z"/>
  </g>
</svg>
