<?xml version="1.0" encoding="UTF-8" standalone="no"?>
<svg
   xmlns:dc="http://purl.org/dc/elements/1.1/"
   xmlns:cc="http://creativecommons.org/ns#"
   xmlns:rdf="http://www.w3.org/1999/02/22-rdf-syntax-ns#"
   xmlns:svg="http://www.w3.org/2000/svg"
   xmlns="http://www.w3.org/2000/svg"
   xmlns:sodipodi="http://sodipodi.sourceforge.net/DTD/sodipodi-0.dtd"
   xmlns:inkscape="http://www.inkscape.org/namespaces/inkscape"
   width="15"
   height="15"
   viewBox="0 0 15 15"
   id="svg5301"
   version="1.1"
   inkscape:version="0.91 r13725"
   sodipodi:docname="water-well-15.svg">
  <sodipodi:namedview
     pagecolor="#ffffff"
     bordercolor="#666666"
     borderopacity="1"
     objecttolerance="10"
     gridtolerance="10"
     guidetolerance="10"
     inkscape:pageopacity="0"
     inkscape:pageshadow="2"
     inkscape:window-width="1920"
     inkscape:window-height="1027"
     id="namedview5487"
     showgrid="true"
     inkscape:object-paths="true"
     inkscape:snap-intersection-paths="true"
     inkscape:object-nodes="true"
     inkscape:snap-smooth-nodes="true"
     inkscape:snap-midpoints="true"
     inkscape:zoom="44.500587"
     inkscape:cx="15.422337"
     inkscape:cy="10.159918"
     inkscape:window-x="-8"
     inkscape:window-y="-8"
     inkscape:window-maximized="1"
     inkscape:current-layer="svg5301">
    <inkscape:grid
       type="xygrid"
       id="grid6035" />
  </sodipodi:namedview>
  <defs
     id="defs5303" />
  <metadata
     id="metadata5306">
    <rdf:RDF>
      <cc:Work
         rdf:about="">
        <dc:format>image/svg+xml</dc:format>
        <dc:type
           rdf:resource="http://purl.org/dc/dcmitype/StillImage" />
        <dc:title></dc:title>
      </cc:Work>
    </rdf:RDF>
  </metadata>
  <path
     style="opacity:1;fill:#000000;fill-opacity:1;stroke:none;stroke-width:1;stroke-linecap:round;stroke-linejoin:round;stroke-miterlimit:4;stroke-dasharray:none;stroke-dashoffset:0;stroke-opacity:1"
     d="M 7.5 1 A 6.5 6.5 0 0 0 1 7.5 A 6.5 6.5 0 0 0 7.5 14 A 6.5 6.5 0 0 0 14 7.5 A 6.5 6.5 0 0 0 7.5 1 z M 7.5 2.5 A 4.9999997 5.0000001 0 0 1 12.5 7.5 A 4.9999997 5.0000001 0 0 1 7.5 12.5 A 4.9999997 5.0000001 0 0 1 2.5 7.5 A 4.9999997 5.0000001 0 0 1 7.5 2.5 z M 7.5 6 A 1.5 1.5 0 0 0 6 7.5 A 1.5 1.5 0 0 0 7.5 9 A 1.5 1.5 0 0 0 9 7.5 A 1.5 1.5 0 0 0 7.5 6 z "
     id="path6033" />
</svg>
