<?xml version="1.0" encoding="UTF-8" standalone="no"?>
<svg
   xmlns:dc="http://purl.org/dc/elements/1.1/"
   xmlns:cc="http://creativecommons.org/ns#"
   xmlns:rdf="http://www.w3.org/1999/02/22-rdf-syntax-ns#"
   xmlns:svg="http://www.w3.org/2000/svg"
   xmlns="http://www.w3.org/2000/svg"
   xmlns:sodipodi="http://sodipodi.sourceforge.net/DTD/sodipodi-0.dtd"
   xmlns:inkscape="http://www.inkscape.org/namespaces/inkscape"
   width="11"
   height="11"
   viewBox="0 0 11 11"
   id="svg5301"
   version="1.1"
   inkscape:version="0.91 r13725"
   sodipodi:docname="water-well-11.svg">
  <sodipodi:namedview
     pagecolor="#ffffff"
     bordercolor="#666666"
     borderopacity="1"
     objecttolerance="10"
     gridtolerance="10"
     guidetolerance="10"
     inkscape:pageopacity="0"
     inkscape:pageshadow="2"
     inkscape:window-width="1920"
     inkscape:window-height="1027"
     id="namedview6068"
     showgrid="true"
     inkscape:zoom="60.682618"
     inkscape:cx="9.8762409"
     inkscape:cy="4.3267832"
     inkscape:window-x="-8"
     inkscape:window-y="-8"
     inkscape:window-maximized="1"
     inkscape:current-layer="svg5301">
    <inkscape:grid
       type="xygrid"
       id="grid6610" />
  </sodipodi:namedview>
  <defs
     id="defs5303" />
  <metadata
     id="metadata5306">
    <rdf:RDF>
      <cc:Work
         rdf:about="">
        <dc:format>image/svg+xml</dc:format>
        <dc:type
           rdf:resource="http://purl.org/dc/dcmitype/StillImage" />
        <dc:title></dc:title>
      </cc:Work>
    </rdf:RDF>
  </metadata>
  <path
     style="opacity:1;fill:#000000;fill-opacity:1;stroke:none;stroke-width:1;stroke-linecap:round;stroke-linejoin:round;stroke-miterlimit:4;stroke-dasharray:none;stroke-dashoffset:0;stroke-opacity:1"
     d="M 5.5 1 C 3.0147186 1 1 3.0147186 1 5.5 C 1 7.9852814 3.0147186 10 5.5 10 C 7.9852814 10 10 7.9852814 10 5.5 C 10 3.0147186 7.9852814 1 5.5 1 z M 5.5 2 C 7.4329966 2 9 3.5670034 9 5.5 C 9 7.4329966 7.4329966 9 5.5 9 C 3.5670034 9 2 7.4329966 2 5.5 C 2 3.5670034 3.5670034 2 5.5 2 z M 5.5 4.5 A 1 1 0 0 0 4.5 5.5 A 1 1 0 0 0 5.5 6.5 A 1 1 0 0 0 6.5 5.5 A 1 1 0 0 0 5.5 4.5 z "
     id="path4269" />
</svg>
