<?xml version="1.0" encoding="UTF-8" standalone="no"?>
<svg
   xmlns:dc="http://purl.org/dc/elements/1.1/"
   xmlns:cc="http://creativecommons.org/ns#"
   xmlns:rdf="http://www.w3.org/1999/02/22-rdf-syntax-ns#"
   xmlns:svg="http://www.w3.org/2000/svg"
   xmlns="http://www.w3.org/2000/svg"
   xmlns:sodipodi="http://sodipodi.sourceforge.net/DTD/sodipodi-0.dtd"
   xmlns:inkscape="http://www.inkscape.org/namespaces/inkscape"
   width="15"
   height="15"
   viewBox="0 0 15 15"
   id="svg5301"
   version="1.1"
   inkscape:version="0.91 r13725"
   sodipodi:docname="water-hole-11.svg">
  <sodipodi:namedview
     pagecolor="#ffffff"
     bordercolor="#666666"
     borderopacity="1"
     objecttolerance="10"
     gridtolerance="10"
     guidetolerance="10"
     inkscape:pageopacity="0"
     inkscape:pageshadow="2"
     inkscape:window-width="1920"
     inkscape:window-height="1027"
     id="namedview4290"
     showgrid="true"
     inkscape:zoom="20.223254"
     inkscape:cx="-2.5611332"
     inkscape:cy="3.3698201"
     inkscape:window-x="-8"
     inkscape:window-y="-8"
     inkscape:window-maximized="1"
     inkscape:current-layer="svg5301">
    <inkscape:grid
       type="xygrid"
       id="grid4298" />
  </sodipodi:namedview>
  <defs
     id="defs5303" />
  <metadata
     id="metadata5306">
    <rdf:RDF>
      <cc:Work
         rdf:about="">
        <dc:format>image/svg+xml</dc:format>
        <dc:type
           rdf:resource="http://purl.org/dc/dcmitype/StillImage" />
        <dc:title></dc:title>
      </cc:Work>
    </rdf:RDF>
  </metadata>
  <path
     style="opacity:1;fill:#000000;fill-opacity:1;stroke:none;stroke-width:1;stroke-linecap:round;stroke-linejoin:round;stroke-miterlimit:4;stroke-dasharray:none;stroke-dashoffset:0;stroke-opacity:1"
     d="M 1.5 7 A 0.5 0.5 0 0 0 1 7.5 A 0.5 0.5 0 0 0 1.0019531 7.5351562 C 1.0211287 11.108617 3.9220306 14 7.5 14 C 11.072703 14 13.970429 11.116972 13.998047 7.5507812 A 0.5 0.5 0 0 0 14 7.5 A 0.5 0.5 0 0 0 13.5 7 A 0.5 0.5 0 0 0 13 7.5 C 13 10.537566 10.537566 13 7.5 13 C 4.4624339 13 2 10.537566 2 7.5 A 0.5 0.5 0 0 0 1.5 7 z "
     id="path4243" />
</svg>
