<?xml version="1.0" encoding="UTF-8" standalone="no"?>
<!-- Generator: Adobe Illustrator 19.2.1, SVG Export Plug-In . SVG Version: 6.00 Build 0)  -->

<svg
   xmlns:dc="http://purl.org/dc/elements/1.1/"
   xmlns:cc="http://creativecommons.org/ns#"
   xmlns:rdf="http://www.w3.org/1999/02/22-rdf-syntax-ns#"
   xmlns:svg="http://www.w3.org/2000/svg"
   xmlns="http://www.w3.org/2000/svg"
   xmlns:sodipodi="http://sodipodi.sourceforge.net/DTD/sodipodi-0.dtd"
   xmlns:inkscape="http://www.inkscape.org/namespaces/inkscape"
   version="1.1"
   id="Layer_1"
   x="0px"
   y="0px"
   width="15px"
   height="15px"
   viewBox="0 0 15 15"
   style="enable-background:new 0 0 15 15;"
   xml:space="preserve"
   inkscape:version="0.91 r13725"
   sodipodi:docname="waterfall-15.svg"><metadata
     id="metadata9"><rdf:RDF><cc:Work
         rdf:about=""><dc:format>image/svg+xml</dc:format><dc:type
           rdf:resource="http://purl.org/dc/dcmitype/StillImage" /><dc:title></dc:title></cc:Work></rdf:RDF></metadata><defs
     id="defs7" /><sodipodi:namedview
     pagecolor="#ffffff"
     bordercolor="#666666"
     borderopacity="1"
     objecttolerance="10"
     gridtolerance="10"
     guidetolerance="10"
     inkscape:pageopacity="0"
     inkscape:pageshadow="2"
     inkscape:window-width="1920"
     inkscape:window-height="1027"
     id="namedview5"
     showgrid="true"
     inkscape:zoom="32.990088"
     inkscape:cx="15.330858"
     inkscape:cy="4.2734749"
     inkscape:window-x="-8"
     inkscape:window-y="-8"
     inkscape:window-maximized="1"
     inkscape:current-layer="Layer_1"
     inkscape:snap-bbox="true"
     inkscape:snap-smooth-nodes="true"
     inkscape:snap-bbox-midpoints="true"
     inkscape:object-nodes="true"
     inkscape:snap-intersection-paths="true"
     inkscape:object-paths="true"
     inkscape:snap-midpoints="true"
     inkscape:bbox-paths="true"
     inkscape:bbox-nodes="true"
     inkscape:snap-bbox-edge-midpoints="true"
     inkscape:snap-object-midpoints="true"
     inkscape:snap-global="true"><inkscape:grid
       type="xygrid"
       id="grid4137"
       empspacing="1" /></sodipodi:namedview><path
     style="opacity:1;fill:#000000;fill-opacity:1;stroke:none;stroke-width:1;stroke-linecap:round;stroke-linejoin:round;stroke-miterlimit:4;stroke-dasharray:none;stroke-dashoffset:0;stroke-opacity:1"
     d="M 1,1 1,2 4,2 C 5.108,2 6,2.892 6,4 L 6,6.8691406 6,10 6,10.5 C 6,10.777 6.223,11 6.5,11 6.777,11 7,10.777 7,10.5 L 7,6.6914062 7,4 C 7,3.226703 6.7017898,2.5308766 6.2246094,2 L 7,2 C 8.108,2 9,2.892 9,4 L 9,6.8691406 9,10 9,10.5 C 9,10.777 9.223,11 9.5,11 9.777,11 10,10.777 10,10.5 L 10,6.6914062 10,4 C 10,3.226703 9.7017898,2.5308766 9.2246094,2 L 10,2 c 1.108,0 2,0.892 2,2 L 12,6.8691406 12,10 l 0,0.5 c 0,0.277 0.223,0.5 0.5,0.5 0.277,0 0.5,-0.223 0.5,-0.5 L 13,6.6914062 13,4 C 13,2.338 11.662,1 10,1 L 4,1 Z"
     id="path6370"
     inkscape:connector-curvature="0"
     sodipodi:nodetypes="ccssccssscscssccssscscssccssscsscc" /><path
     d="m 14,12 0,1.003686 C 13.461851,13 13.583509,13.99652 12.51975,13.99826 11.455991,14 11.499259,12.995472 10.986247,12.997736 10.473235,13 10.486753,14.008902 9.495579,14 8.5044053,13.991098 8.5972562,13 8,13 7.4027438,13 7.5437994,14 6.4562196,13.996761 5.3686398,13.993522 5.4338829,13 5,13.003686 L 5,12 c 1,-0.02517 0.9810368,1 1.4905184,1 C 7,13 7,12 8,12 c 1,0 0.9953394,1 1.5,1 0.504661,0 0.536162,-0.999298 1.518081,-0.999649 C 12,12 12,13 12.5,13 13,13 13,12 14,12 Z"
     id="path6408"
     inkscape:connector-curvature="0"
     sodipodi:nodetypes="cczzzzzcczzzzzc" /></svg>