<?xml version="1.0" encoding="UTF-8" standalone="no"?>
<!-- Generator: Adobe Illustrator 19.2.1, SVG Export Plug-In . SVG Version: 6.00 Build 0)  -->

<svg
   xmlns:dc="http://purl.org/dc/elements/1.1/"
   xmlns:cc="http://creativecommons.org/ns#"
   xmlns:rdf="http://www.w3.org/1999/02/22-rdf-syntax-ns#"
   xmlns:svg="http://www.w3.org/2000/svg"
   xmlns="http://www.w3.org/2000/svg"
   xmlns:sodipodi="http://sodipodi.sourceforge.net/DTD/sodipodi-0.dtd"
   xmlns:inkscape="http://www.inkscape.org/namespaces/inkscape"
   version="1.1"
   id="Layer_1"
   x="0px"
   y="0px"
   width="15px"
   height="15px"
   viewBox="0 0 15 15"
   style="enable-background:new 0 0 15 15;"
   xml:space="preserve"
   inkscape:version="0.91 r13725"
   sodipodi:docname="waterfall-11.svg"><metadata
     id="metadata9"><rdf:RDF><cc:Work
         rdf:about=""><dc:format>image/svg+xml</dc:format><dc:type
           rdf:resource="http://purl.org/dc/dcmitype/StillImage" /><dc:title></dc:title></cc:Work></rdf:RDF></metadata><defs
     id="defs7" /><sodipodi:namedview
     pagecolor="#ffffff"
     bordercolor="#666666"
     borderopacity="1"
     objecttolerance="10"
     gridtolerance="10"
     guidetolerance="10"
     inkscape:pageopacity="0"
     inkscape:pageshadow="2"
     inkscape:window-width="1280"
     inkscape:window-height="666"
     id="namedview5"
     showgrid="true"
     inkscape:zoom="32"
     inkscape:cx="12.346694"
     inkscape:cy="9.2025639"
     inkscape:window-x="-8"
     inkscape:window-y="-8"
     inkscape:window-maximized="1"
     inkscape:current-layer="Layer_1"
     inkscape:snap-bbox="true"
     inkscape:snap-smooth-nodes="true"
     inkscape:snap-bbox-midpoints="true"
     inkscape:object-nodes="true"
     inkscape:snap-intersection-paths="true"
     inkscape:object-paths="true"
     inkscape:snap-midpoints="true"
     inkscape:bbox-paths="true"
     inkscape:bbox-nodes="true"
     inkscape:snap-bbox-edge-midpoints="true"
     inkscape:snap-object-midpoints="true"
     inkscape:snap-global="true"><inkscape:grid
       type="xygrid"
       id="grid4137"
       empspacing="1" /></sodipodi:namedview><path
     style="color:#000000;font-style:normal;font-variant:normal;font-weight:normal;font-stretch:normal;font-size:medium;line-height:normal;font-family:sans-serif;text-indent:0;text-align:start;text-decoration:none;text-decoration-line:none;text-decoration-style:solid;text-decoration-color:#000000;letter-spacing:normal;word-spacing:normal;text-transform:none;direction:ltr;block-progression:tb;writing-mode:lr-tb;baseline-shift:baseline;text-anchor:start;white-space:normal;clip-rule:nonzero;display:inline;overflow:visible;visibility:visible;opacity:1;isolation:auto;mix-blend-mode:normal;color-interpolation:sRGB;color-interpolation-filters:linearRGB;solid-color:#000000;solid-opacity:1;fill:#000000;fill-opacity:1;fill-rule:evenodd;stroke:none;stroke-width:1.0085212px;stroke-linecap:round;stroke-linejoin:miter;stroke-miterlimit:4;stroke-dasharray:none;stroke-dashoffset:0;stroke-opacity:1;color-rendering:auto;image-rendering:auto;shape-rendering:auto;text-rendering:auto;enable-background:accumulate"
     d="M 3.4804688,3 C 3.2155088,3 3,3.2201769 3,3.5100007 3,3.7309694 3.1600594,4 3.5019531,4 4.414888,4 5.0704752,4.1364448 5.4414062,4.3847656 5.7977905,4.623348 5.9847007,4.958091 6,5.6582031 L 6,9.5 C 6,9.777 6.223,10 6.5,10 6.777,10 7,9.777 7,9.5 7.0011229,8.1731474 7,6.8129541 7,5.5 7,4.7569483 6.7171003,4.5333355 6.5585938,4.1464844 6.9346751,4.2111922 7.2357215,4.3095694 7.4414062,4.4472656 7.7977905,4.685848 7.9847007,5.020591 8,5.7207031 L 8,9.5 C 8,9.777 8.223,10 8.5,10 8.777,10 9,9.777 9,9.5 9.0016841,8.1709593 9,6.8159507 9,5.5 9,4.7611749 8.6660045,4.4805484 8.4785156,4.0800781 8.8909495,4.1444786 9.2210076,4.2488423 9.4394531,4.3984375 9.7980199,4.6439901 9.9893253,4.9939438 10,5.7324219 L 10,9.5 C 10,9.777 10.223,10 10.5,10 10.777,10 11,9.777 11,9.5 11.0033,8.1767657 11,6.7986352 11,5.5 11,4.7648204 10.562921,4 10.009766,3.5664062 9.33751,3.1320206 8.6823538,3 8.015625,3 Z m 2.0039062,7.484375 c -0.413804,0.0017 -0.6466314,0.476538 -0.3945312,0.804687 0,0 0.5033597,0.710052 1.40625,0.710938 0.4299004,4.65e-4 0.7601667,-0.167638 0.9980468,-0.335938 C 7.731696,11.832505 8.0675309,12.00033 8.4980469,12 c 0.4286018,-3.21e-4 0.7627984,-0.168273 1,-0.335938 l 0.00195,0 C 9.7498986,11.835045 10.11272,12.004638 10.566403,12 c 0.898404,-0.009 1.361328,-0.746094 1.361328,-0.746094 0.200887,-0.33043 -0.03326,-0.754073 -0.419922,-0.759765 -0.183134,-0.0029 -0.353225,0.09446 -0.443359,0.253906 0,0 -0.114934,0.247998 -0.507812,0.251953 -0.382407,0.0039 -0.6738286,-0.318359 -0.6738286,-0.318359 -0.202611,-0.245252 -0.5797025,-0.241462 -0.7773437,0.0078 0,0 -0.2790525,0.310301 -0.6074219,0.310547 -0.3275317,2.63e-4 -0.6074219,-0.310547 -0.6074219,-0.310547 -0.2039917,-0.257538 -0.5966766,-0.251735 -0.7929688,0.01172 0,0 -0.2405385,0.299216 -0.5996093,0.298828 C 6.1093479,10.999617 5.90625,10.712891 5.90625,10.712891 5.8137365,10.569824 5.6547466,10.483704 5.484375,10.484375 Z"
     id="path5325"
     inkscape:connector-curvature="0"
     sodipodi:nodetypes="cccscsscccscsscccscssccccccccccccccccccccccccc" /></svg>