<?xml version="1.0" encoding="utf-8"?>
<!-- Generator: Adobe Illustrator 22.1.0, SVG Export Plug-In . SVG Version: 6.00 Build 0)  -->
<svg version="1.1" id="start_here" xmlns="http://www.w3.org/2000/svg" xmlns:xlink="http://www.w3.org/1999/xlink" x="0px" y="0px"
	 width="11px" height="11px" viewBox="0 0 11 11" style="enable-background:new 0 0 11 11;" xml:space="preserve">
<path d="M1,8l1.8-1l1.8,1l0.4448-0.2469C4.6756,7.6046,4.3381,7.3939,4.0498,7.127l1.7755-1.7755
	C5.9139,5.4143,6.0137,5.4553,6.125,5.4747v1.6787l0.25-0.1388V5.4747c0.1113-0.0195,0.2111-0.0604,0.2997-0.1232L8.4502,7.127
	c-0.2443,0.2263-0.527,0.4075-0.8311,0.5501l0.5255,0.2922C9.2502,7.317,10,6.1265,10,4.75C10,2.6789,8.321,1,6.25,1
	C5.2786,1,4.402,1.379,3.7358,1.9849L2.8125,1L0,4h1V8z M8.627,6.9502L6.8515,5.1747C6.9143,5.0861,6.9553,4.9863,6.9747,4.875
	h2.5126C9.4562,5.6757,9.1371,6.3994,8.627,6.9502z M9.4874,4.625H6.9747C6.9553,4.5137,6.9143,4.4139,6.8515,4.3253L8.627,2.5498
	C9.1371,3.1006,9.4562,3.8243,9.4874,4.625z M6.375,1.5126C7.1757,1.5438,7.8994,1.8629,8.4502,2.373L6.6747,4.1485
	C6.5861,4.0857,6.4863,4.0447,6.375,4.0253V1.5126z M6.125,1.5126v2.5126C6.0137,4.0447,5.9139,4.0857,5.8253,4.1485L4.0498,2.373
	C4.6006,1.8629,5.3243,1.5438,6.125,1.5126z M3.873,2.5498l1.7755,1.7755C5.5857,4.4139,5.5447,4.5137,5.5253,4.625H3.0126
	C3.0438,3.8243,3.3629,3.1006,3.873,2.5498z M5.5253,4.875c0.0195,0.1113,0.0604,0.2111,0.1232,0.2997L3.873,6.9502
	C3.3629,6.3994,3.0438,5.6757,3.0126,4.875H5.5253z M7.1071,8.3923L7.1071,8.3923L6.4014,8L4.6,9L3.808,8.56l0,0L2.8,8L1.792,8.56
	l0,0L1,9v1l1.8-1l1.8,1l1.8014-1L8.2,10L10,9V8L8.2,9L7.1071,8.3923z"/>
</svg>
