<?xml version="1.0" encoding="UTF-8" standalone="no"?>
<!-- Generator: Adobe Illustrator 19.2.1, SVG Export Plug-In . SVG Version: 6.00 Build 0)  -->

<svg
   xmlns:dc="http://purl.org/dc/elements/1.1/"
   xmlns:cc="http://creativecommons.org/ns#"
   xmlns:rdf="http://www.w3.org/1999/02/22-rdf-syntax-ns#"
   xmlns:svg="http://www.w3.org/2000/svg"
   xmlns="http://www.w3.org/2000/svg"
   xmlns:sodipodi="http://sodipodi.sourceforge.net/DTD/sodipodi-0.dtd"
   xmlns:inkscape="http://www.inkscape.org/namespaces/inkscape"
   version="1.1"
   id="Layer_1"
   x="0px"
   y="0px"
   width="15px"
   height="15px"
   viewBox="0 0 15 15"
   style="enable-background:new 0 0 15 15;"
   xml:space="preserve"
   inkscape:version="0.91 r13725"
   sodipodi:docname="waterfall-15.svg"><metadata
     id="metadata9"><rdf:RDF><cc:Work
         rdf:about=""><dc:format>image/svg+xml</dc:format><dc:type
           rdf:resource="http://purl.org/dc/dcmitype/StillImage" /><dc:title></dc:title></cc:Work></rdf:RDF></metadata><defs
     id="defs7" /><sodipodi:namedview
     pagecolor="#ffffff"
     bordercolor="#666666"
     borderopacity="1"
     objecttolerance="10"
     gridtolerance="10"
     guidetolerance="10"
     inkscape:pageopacity="0"
     inkscape:pageshadow="2"
     inkscape:window-width="1280"
     inkscape:window-height="666"
     id="namedview5"
     showgrid="true"
     inkscape:zoom="64"
     inkscape:cx="6.6194223"
     inkscape:cy="3.8643396"
     inkscape:window-x="-8"
     inkscape:window-y="-8"
     inkscape:window-maximized="1"
     inkscape:current-layer="Layer_1"
     inkscape:snap-bbox="true"
     inkscape:snap-smooth-nodes="true"
     inkscape:snap-bbox-midpoints="true"
     inkscape:object-nodes="true"
     inkscape:snap-intersection-paths="true"
     inkscape:object-paths="true"
     inkscape:snap-midpoints="true"
     inkscape:bbox-paths="true"
     inkscape:bbox-nodes="true"
     inkscape:snap-bbox-edge-midpoints="true"
     inkscape:snap-object-midpoints="true"
     inkscape:snap-global="true"><inkscape:grid
       type="xygrid"
       id="grid4137"
       empspacing="1" /></sodipodi:namedview><path
     style="opacity:1;fill:#000000;fill-opacity:1;stroke:none;stroke-width:25;stroke-linecap:round;stroke-linejoin:miter;stroke-miterlimit:4;stroke-dasharray:none;stroke-dashoffset:0;stroke-opacity:1"
     d="M 8.5039062,0.99609375 C 6.1858686,1.0348829 3.8291194,1.0136719 1.4980469,1.0136719 c -0.277,0 -0.50000002,0.223 -0.50000002,0.5 0,0.277 0.22300002,0.5 0.50000002,0.5 l 1.0039062,0 c 0.9129349,0 1.5685222,0.1364448 1.9394531,0.3847656 C 4.7977905,2.6370199 4.9847007,2.9735746 5,3.6738281 L 5,10.5 C 5,10.777 5.223,11 5.5,11 5.777,11 6,10.777 6,10.5 6.0111447,8.039699 5.9931726,5.6275096 6,3.5 6,2.5758805 5.7251397,2.3678631 5.5039062,2.0761719 6.4157485,2.0763806 7.0707593,2.2128068 7.4414062,2.4609375 7.7977905,2.6995199 7.9847007,3.0360746 8,3.7363281 L 8,10.5 C 8,10.777 8.223,11 8.5,11 8.777,11 9,10.777 9,10.5 9.0006591,8.1751299 9,5.8102583 9,3.5 9,2.5373998 8.6768515,2.3118617 8.4238281,2.0136719 l 0.3789063,0 c 0.00826,0 0.015281,-0.00351 0.023437,-0.00391 C 9.566682,2.0395809 10.121322,2.163959 10.445311,2.3808557 10.795517,2.6153038 10.979149,2.9458168 11,3.6210938 L 11,10.5 c 0,0.277 0.223,0.5 0.5,0.5 0.277,0 0.5,-0.223 0.5,-0.5 5.13e-4,-2.3201644 0,-4.6989479 0,-7 C 12,2.4657969 11.47502,1.9706834 11,1.5488281 10.413008,1.0275325 9.5046848,0.99609375 8.5039062,0.99609375 Z M 12.982422,11.984375 c -0.195124,0.01094 -0.366005,0.134522 -0.4375,0.316406 0,0 -0.315406,0.673124 -0.955078,0.681641 -0.62593,0.0083 -1.167969,-0.744141 -1.167969,-0.744141 -0.198572,-0.313085 -0.6568292,-0.30887 -0.8496094,0.0078 0,0 -0.52508,0.735781 -1.0722656,0.736328 -0.5460822,5.46e-4 -1.0722656,-0.736328 -1.0722656,-0.736328 -0.1979983,-0.325178 -0.6722494,-0.318726 -0.8613282,0.01172 0,0 -0.474815,0.725366 -1.0664062,0.72461 -0.6341194,-8e-4 -1.0605469,-0.714844 -1.0605469,-0.714844 C 4.3519669,12.100987 4.1783853,11.997592 3.9902344,12 c -0.3803186,0.0044 -0.6167245,0.414916 -0.4296875,0.746094 0,0 0.6335053,1.234661 1.9375,1.236328 0.7160856,9.15e-4 1.1847617,-0.344461 1.5039062,-0.681641 0.319879,0.336197 0.7897035,0.682351 1.5,0.681641 0.7277078,-7.27e-4 1.1925841,-0.357667 1.5097659,-0.699219 0.335185,0.345478 0.826968,0.709403 1.591797,0.699219 1.297986,-0.01728 1.851562,-1.269531 1.851562,-1.269531 0.177248,-0.343913 -0.08636,-0.750223 -0.472656,-0.728516 z"
     id="rect5315"
     inkscape:connector-curvature="0"
     sodipodi:nodetypes="ccsssscsscccscsscccscscssccsccccccsccccccscscscc" /></svg>