<svg xmlns="http://www.w3.org/2000/svg" width="11" height="11" viewBox="0 0 11 11">
  <title>waterfall-11</title>
  <g id="Layer_12" data-name="Layer 12">
    <path d="M10,2h1V1H4A2.938,2.938,0,0,0,1,4V6.151a2.711,2.711,0,0,0-1,2.1A2.75,2.75,0,0,0,2.75,11a2.682,2.682,0,0,0,1.407-.411,2.4,2.4,0,0,0,2.686,0A2.681,2.681,0,0,0,8.25,11a2.75,2.75,0,0,0,0-5.5c-.086,0-.167.016-.25.024V4A1.959,1.959,0,0,1,10,2ZM8.25,6.5a1.75,1.75,0,0,1,0,3.5,1.726,1.726,0,0,1-.721-.167,1.756,1.756,0,0,1-.3-.177c-.036-.026-.074-.048-.107-.076a1.742,1.742,0,0,1-.32-.348,1.529,1.529,0,0,1-.285.354c-.034.032-.072.058-.109.087a1.466,1.466,0,0,1-1.816,0c-.036-.029-.075-.055-.109-.087A1.527,1.527,0,0,1,4.2,9.232a1.742,1.742,0,0,1-.32.348c-.033.028-.072.05-.107.076a1.756,1.756,0,0,1-.3.177A1.726,1.726,0,0,1,2.75,10,1.746,1.746,0,0,1,2,6.675V4.5H2a.5.5,0,0,1,1,0H3V8H3A.5.5,0,0,0,4,8H4V5.5a.5.5,0,0,1,1,0v2H5a.5.5,0,0,0,1,0H6V4.49a.5.5,0,0,1,1,0V7H7A.5.5,0,0,0,8,7H8V6.537A1.645,1.645,0,0,1,8.25,6.5Z"/>
  </g>
</svg>
