<?xml version="1.0" encoding="UTF-8"?>
<svg id="waterfall-11" xmlns="http://www.w3.org/2000/svg" width="11" height="11" viewBox="0 0 11 11">
  <path d="M9.9,2H11V1H4C2.4,1,1,2.2,1,3.9c0,0,0,0,0,0c0,0,0,3.4,0,3.4C0,7.8-0.3,9,0.3,10c0.6,1,1.8,1.3,2.7,0.7&#xA;&#x9;c0.7,0.4,1.7,0.3,2.3-0.2c1.4,0.9,3.2,0.6,4.2-0.8c0.9-1.4,0.6-3.2-0.8-4.2C8.5,5.4,8.2,5.3,8,5.2V4C8,2.9,8.8,2,9.9,2z M9,8&#xA;&#x9;c0,1.1-0.9,2-2,2c-1,0-1.1-0.3-1.3-0.5H4.9C4.7,9.7,4.5,10,4,10S3.3,9.8,3.2,9.5H2.8C2.7,9.8,2.4,10,2,10c-0.6,0-1-0.4-1-1&#xA;&#x9;s0.4-1,1-1V7V5c0,0,0-0.5,0.5-0.5S3,5,3,5v2.5C3,7.5,3,8,3.5,8S4,7.5,4,7.5V6c0,0,0-0.5,0.5-0.5S5,6,5,6v1.5C5,7.5,5,8,5.5,8&#xA;&#x9;S6,7.5,6,7.5V5c0,0,0-0.5,0.5-0.5S7,5,7,5v1C8.1,6,9,6.9,9,8z"/>
</svg>