<svg id="Layer_1" data-name="Layer 1" xmlns="http://www.w3.org/2000/svg" width="11" height="11" viewBox="0 0 11 11">
  <title>wetland-11</title>
  <path d="M0.86,3.66A1.68,1.68,0,0,1,2,3.27,1.82,1.82,0,0,1,4,4.82l0.6,3.62A1.77,1.77,0,0,0,3,8.47L2.41,4.82A1.7,1.7,0,0,0,.86,3.66ZM5.37,9a0.2,0.2,0,0,0,.25,0L5.8,8.86,6,8.7a1.85,1.85,0,0,1,2.35,0L9,4.82a1.7,1.7,0,0,1,1.55-1.16,1.68,1.68,0,0,0-1.16-.39A1.82,1.82,0,0,0,7.43,4.82L7.82,2.5A1.7,1.7,0,0,1,9.36,1.34,1.68,1.68,0,0,0,8.2,1,1.82,1.82,0,0,0,6.27,2.5L5.21,8.88Zm4.2,0.75-0.36.32a0.58,0.58,0,0,1-.75,0l-0.34-.3a1.47,1.47,0,0,0-1.89,0l-0.36.32a0.58,0.58,0,0,1-.74,0L4.77,9.77a1.47,1.47,0,0,0-1.89,0c-0.12.1-.22,0.21-0.34,0.3a0.71,0.71,0,0,1-.24.12A0.65,0.65,0,0,1,1.69,10a4.77,4.77,0,0,0-.61-0.45A1,1,0,0,0,.5,9.44v0.77a0.72,0.72,0,0,1,.49.24l0.24,0.21a1.46,1.46,0,0,0,1.8,0c0.15-.11.28-0.24,0.42-0.36a0.58,0.58,0,0,1,.76,0l0.3,0.27a1.47,1.47,0,0,0,1.9.05c0.11-.09.21-0.19,0.32-0.28a0.6,0.6,0,0,1,.85,0l0.3,0.27a1.46,1.46,0,0,0,1.36.29A1.66,1.66,0,0,0,10,10.48a0.73,0.73,0,0,1,.52-0.27V9.44A1.38,1.38,0,0,0,9.57,9.76Z"/>
</svg>
