<svg id="Layer_1" data-name="Layer 1" xmlns="http://www.w3.org/2000/svg" width="11" height="11" viewBox="0 0 11 11">
  <title>wetland-11</title>
  <path d="M1.11,3.33A1.58,1.58,0,0,1,2.19,3,1.71,1.71,0,0,1,4,4.41L4.57,7.8a1.66,1.66,0,0,0-1.44,0L2.56,4.41A1.6,1.6,0,0,0,1.11,3.33ZM5.45,8.21a2.47,2.47,0,0,1,.94-0.47l0.9-5.5A1.6,1.6,0,0,1,8.74,1.16,1.58,1.58,0,0,0,7.65.8,1.71,1.71,0,0,0,5.84,2.24L4.9,7.88A2.49,2.49,0,0,1,5.45,8.21Zm3.13-.36h0A2.51,2.51,0,0,1,8.94,7.6L9.44,4.39a1.6,1.6,0,0,1,1.45-1.09A1.58,1.58,0,0,0,9.8,2.94,1.71,1.71,0,0,0,8,4.39l-0.48,3A2.47,2.47,0,0,1,8.57,7.85Zm1.56,0.9h0a1.29,1.29,0,0,0-.86.3l-0.34.3a0.54,0.54,0,0,1-.7,0L7.91,9.07a1.38,1.38,0,0,0-1.77,0l-0.34.3a0.54,0.54,0,0,1-.69,0L4.77,9.05A1.38,1.38,0,0,0,3,9.06c-0.11.09-.21,0.19-0.32,0.28a0.67,0.67,0,0,1-.22.11,0.61,0.61,0,0,1-.58-0.18,4.46,4.46,0,0,0-.57-0.42A0.89,0.89,0,0,0,.8,8.75h0a0.36,0.36,0,1,0,0,.72h0a0.67,0.67,0,0,1,.46.23l0.22,0.2a1.37,1.37,0,0,0,1.69,0c0.14-.1.26-0.23,0.4-0.34a0.54,0.54,0,0,1,.71,0L4.53,9.85a1.38,1.38,0,0,0,1.78,0c0.11-.08.2-0.18,0.3-0.27a0.56,0.56,0,0,1,.79,0L7.69,9.88A1.37,1.37,0,0,0,9,10.15a1.55,1.55,0,0,0,.69-0.43,0.68,0.68,0,0,1,.49-0.25h0A0.36,0.36,0,0,0,10.13,8.74Z"/>
</svg>
