<svg id="Layer_1" data-name="Layer 1" xmlns="http://www.w3.org/2000/svg" width="15" height="15" viewBox="0 0 15 15">
  <title>wheelchair-15</title>
  <path d="M12,1.5A1.5,1.5,0,1,1,10.5,0,1.5,1.5,0,0,1,12,1.5ZM2.82,4.87L4.56,3.16,6.41,4.45,5.67,5.7A5.49,5.49,0,0,1,8.38,7.58l0.88-1.5a0.86,0.86,0,0,0-.34-1.17L8.3,4.54,4.79,2.1a0.5,0.5,0,0,0-.64.05l-2,2A0.5,0.5,0,0,0,2.82,4.87Zm5.31,6.07A4.11,4.11,0,0,1,6.59,14.1,4,4,0,0,1,4.07,15,4.07,4.07,0,0,1,0,10.94,4,4,0,0,1,.91,8.41a4.15,4.15,0,0,1,.63-0.63,4,4,0,0,1,2.53-.91A4.07,4.07,0,0,1,8.13,10.94ZM6,12.21A2.29,2.29,0,0,0,2.79,9a1.72,1.72,0,0,0-.63.63,2.29,2.29,0,0,0,3.17,3.17A3.12,3.12,0,0,0,6,12.21Zm8.2,1-2.49-5A0.75,0.75,0,0,0,11,7.75H8.51a5.46,5.46,0,0,1,.76,1.5h1.26l2.29,4.58A0.75,0.75,0,1,0,14.17,13.16Z"/>
</svg>
