<svg id="Layer_1" data-name="Layer 1" xmlns="http://www.w3.org/2000/svg" width="11" height="11" viewBox="0 0 11 11">
  <title>wheel-chair-11</title>
  <path d="M4,1A1,1,0,1,0,3,2,1,1,0,0,0,4,1Zm6,0A1,1,0,1,0,9,2,1,1,0,0,0,10,1ZM6,4.75A0.25,0.25,0,0,1,5.75,5a0.25,0.25,0,0,1-.17-0.07h0L4.18,3.73,5,7H3.5v3.5a0.5,0.5,0,0,1-1,0V7H1L1.82,3.73,0.43,4.93h0A0.25,0.25,0,0,1,.25,5,0.25,0.25,0,0,1,0,4.75,0.24,0.24,0,0,1,.06,4.59h0L1.82,3.07h0A0.25,0.25,0,0,1,2,3H4a0.25,0.25,0,0,1,.17.07h0L5.91,4.57h0A0.24,0.24,0,0,1,6,4.75Zm5-1.38V7a0.37,0.37,0,1,1-.73,0H9.38v3.61a0.38,0.38,0,0,1-.75,0V7H7.75A0.37,0.37,0,1,1,7,7V3.37A0.37,0.37,0,0,1,7.38,3h3.25A0.37,0.37,0,0,1,11,3.37Z"/>
</svg>
