<svg id="Layer_1" data-name="Layer 1" xmlns="http://www.w3.org/2000/svg" width="11" height="11" viewBox="0 0 11 11">
  <title>wheelchair-11</title>
  <path d="M9,2A1,1,0,1,1,8,1,1,1,0,0,1,9,2ZM2.5,4a0.5,0.5,0,0,0,.18,0h0l1.79-.83L4.93,3.65l-0.54.85A3.74,3.74,0,0,1,6.46,5.56l0.44-.8a0.64,0.64,0,0,0-.2-0.89L4.85,2.15h0A0.49,0.49,0,0,0,4.3,2h0l-2,1h0A0.5,0.5,0,0,0,2.5,4ZM6.59,8.2a2.74,2.74,0,0,1-.51,1.57,2.42,2.42,0,0,1-.71.71A2.74,2.74,0,0,1,3.79,11,2.8,2.8,0,0,1,1,8.2a2.74,2.74,0,0,1,.52-1.58,4,4,0,0,1,.71-0.71A2.74,2.74,0,0,1,3.79,5.4,2.8,2.8,0,0,1,6.59,8.2Zm-1.4.69A1.54,1.54,0,0,0,5.37,8.2,1.58,1.58,0,0,0,3.79,6.63a1.54,1.54,0,0,0-.69.18,2.14,2.14,0,0,0-.71.7,1.54,1.54,0,0,0-.18.7A1.58,1.58,0,0,0,3.79,9.78a1.54,1.54,0,0,0,.7-0.18A1.9,1.9,0,0,0,5.19,8.89ZM9,6.4A0.49,0.49,0,0,0,8.47,6H6.82a3.73,3.73,0,0,1,.52,1L8,7,9,9.59a0.5,0.5,0,0,0,.49.4h0.1A0.5,0.5,0,0,0,10,9.4Z"/>
</svg>
