<svg id="Layer_1" data-name="Layer 1" xmlns="http://www.w3.org/2000/svg" width="15" height="15" viewBox="0 0 15 15">
  <title>wheelchair-15</title>
  <path d="M12,1.5A1.5,1.5,0,1,1,10.5,0,1.5,1.5,0,0,1,12,1.5ZM9.38,4.14l-1.3-.78L8,3.34,5.82,2.06A0.5,0.5,0,0,0,5.4,2L2.34,3A0.5,0.5,0,0,0,2.67,4L5.5,3,6.78,3.81,5.67,5.7A5.49,5.49,0,0,1,8.38,7.58L9.72,5.31A0.86,0.86,0,0,0,9.38,4.14Zm-1.25,6.8A4.11,4.11,0,0,1,6.59,14.1,4,4,0,0,1,4.07,15,4.07,4.07,0,0,1,0,10.94,4,4,0,0,1,.91,8.41a4.15,4.15,0,0,1,.63-0.63,4,4,0,0,1,2.53-.91A4.07,4.07,0,0,1,8.13,10.94ZM6,12.21A2.29,2.29,0,0,0,2.79,9a1.72,1.72,0,0,0-.63.63,2.29,2.29,0,0,0,3.17,3.17A3.12,3.12,0,0,0,6,12.21Zm8,1.06-2.49-5A0.5,0.5,0,0,0,11,8H8.68a5.46,5.46,0,0,1,.5,1h1.51L13,13.72A0.5,0.5,0,1,0,13.94,13.27Z"/>
</svg>
