<?xml version="1.0" encoding="utf-8"?>
<!-- Generator: Adobe Illustrator 22.1.0, SVG Export Plug-In . SVG Version: 6.00 Build 0)  -->
<svg version="1.1" id="start_here" xmlns="http://www.w3.org/2000/svg" xmlns:xlink="http://www.w3.org/1999/xlink" x="0px" y="0px"
	 width="11px" height="11px" viewBox="0 0 11 11" style="enable-background:new 0 0 11 11;" xml:space="preserve">
<path d="M6.375,3.9375L5.9375,3.5L6.375,3.0625h0.4375L9,0.875L8.125,0L5.9375,2.1875V2.625L5.5,3.0625L5.0625,2.625V2.1875L2.875,0
	L2,0.875l2.1875,2.1875H4.625L5.0625,3.5L4.625,3.9375H4.1875L2,6.125L2.875,7l2.1875-2.1875V4.375L5.5,3.9375L5.9375,4.375v0.4375
	L8.125,7L9,6.125L6.8125,3.9375H6.375z M8.5,10H8L7,7.5L5.5,6L4,7.5L3,10H2.5C2.2239,10,2,10.2238,2,10.5
	C2,10.7761,2.2239,11,2.5,11h6C8.7761,11,9,10.7761,9,10.5C9,10.2238,8.7761,10,8.5,10z M6,9.9717C6,9.9873,5.9874,10,5.9717,10
	H5.0283C5.0126,10,5,9.9873,5,9.9717v-0.972C5,8.7238,5.2238,8.5,5.4998,8.5C5.7761,8.5,6,8.7239,6,9.0002V9.9717z"/>
</svg>
