<?xml version="1.0" encoding="utf-8"?>
<!-- Generator: Adobe Illustrator 19.2.1, SVG Export Plug-In . SVG Version: 6.00 Build 0)  -->
<!DOCTYPE svg PUBLIC "-//W3C//DTD SVG 1.1//EN" "http://www.w3.org/Graphics/SVG/1.1/DTD/svg11.dtd">
<svg version="1.1"
	 id="svg4764" inkscape:version="0.91+devel+osxmenu r12911" sodipodi:docname="zoo-11.svg" xmlns:cc="http://creativecommons.org/ns#" xmlns:dc="http://purl.org/dc/elements/1.1/" xmlns:inkscape="http://www.inkscape.org/namespaces/inkscape" xmlns:rdf="http://www.w3.org/1999/02/22-rdf-syntax-ns#" xmlns:sodipodi="http://sodipodi.sourceforge.net/DTD/sodipodi-0.dtd" xmlns:svg="http://www.w3.org/2000/svg"
	 xmlns="http://www.w3.org/2000/svg" xmlns:xlink="http://www.w3.org/1999/xlink" x="0px" y="0px" width="11px" height="11px"
	 viewBox="0 0 11 11" style="enable-background:new 0 0 11 11;" xml:space="preserve">
<path style="fill:#010101;" d="M8,2C7.1,2,6.5,2.5,6.2,3.1C6.2,3.1,5.5,4,5,4H3C2.5,4,2,4.5,2,4.5l-2,2V7h0.5l1.2-1.2L1.9,6
	C1.9,6,1,7.7,1,9c0,0.5,0.5,0.5,0.5,0.5H2c0,0,0.2,0,0-0.2L1.8,9.1c0-0.5,0.8-1.4,1.2-1.9c0,0,0,0.8,0,1.4
	c0,0.3,0.1111,0.9,0.4111,0.9h0.5c0,0,0.2,0,0-0.2l-0.2-0.2C3.5111,8.7,4.3,7.5,4.3,7.5h1.8L6.6,9c0.2,0.5,0.5,0.5,0.5,0.5h1
	c0.2,0,0.7-0.2,0.2-0.5L8.1,8.8V7l0,0c1,0,1.1-1.3,1.5-1.7l0.7-0.1c0.2,0,0.8-0.2,0.8-0.8V4L9.9,3l0,0C9.4,2.4,8.7,2,8,2z"/>
</svg>
