<?xml version="1.0" encoding="UTF-8" standalone="no"?>
<!-- Created with Inkscape (http://www.inkscape.org/) -->

<svg
   xmlns:dc="http://purl.org/dc/elements/1.1/"
   xmlns:cc="http://creativecommons.org/ns#"
   xmlns:rdf="http://www.w3.org/1999/02/22-rdf-syntax-ns#"
   xmlns:svg="http://www.w3.org/2000/svg"
   xmlns="http://www.w3.org/2000/svg"
   version="1.1"
   width="100"
   height="100"
   id="svg6584">
  <defs
     id="defs6586" />
  <metadata
     id="metadata6589">
    <rdf:RDF>
      <cc:Work
         rdf:about="">
        <dc:format>image/svg+xml</dc:format>
        <dc:type
           rdf:resource="http://purl.org/dc/dcmitype/StillImage" />
        <dc:title></dc:title>
      </cc:Work>
    </rdf:RDF>
  </metadata>
  <g
     transform="translate(0,-952.362)"
     id="layer1">
    <path
       d="m 85.416667,1008.6124 0,4.1667 -29.166667,-4.1667 0,16.6659 8.333333,8.3341 c 0,2.0834 -2.083333,4.1667 -4.166666,4.1667 -8.333334,0 -20.833334,0 -20.833334,0 -2.083333,0 -4.166666,-2.0833 -4.166666,-4.1667 l 8.333333,-8.3341 0,-16.6667 -29.166667,4.1667 0,-4.1667 L 43.75,991.94492 c 0,0 0,-1.38875 0,-8.33333 0,-4.16666 2.083333,-16.66665 6.25,-16.66665 4.166667,0 6.25,12.49999 6.25,16.66665 0,6.94458 0,8.33333 0,8.33333 z"
       id="path7712"
       style="fill:#000000;fill-opacity:1;stroke:none;display:inline" />
  </g>
</svg>
