<?xml version="1.0" encoding="UTF-8" standalone="no"?>
<!-- Created with Inkscape (http://www.inkscape.org/) -->

<svg
   xmlns:dc="http://purl.org/dc/elements/1.1/"
   xmlns:cc="http://creativecommons.org/ns#"
   xmlns:rdf="http://www.w3.org/1999/02/22-rdf-syntax-ns#"
   xmlns:svg="http://www.w3.org/2000/svg"
   xmlns="http://www.w3.org/2000/svg"
   version="1.1"
   width="100"
   height="100"
   id="svg6584">
  <defs
     id="defs6586" />
  <metadata
     id="metadata6589">
    <rdf:RDF>
      <cc:Work
         rdf:about="">
        <dc:format>image/svg+xml</dc:format>
        <dc:type
           rdf:resource="http://purl.org/dc/dcmitype/StillImage" />
        <dc:title></dc:title>
      </cc:Work>
    </rdf:RDF>
  </metadata>
  <g
     transform="translate(0,-952.362)"
     id="layer1">
    <path
       d="m 43.75,971.11207 c -20.833334,0 -33.333334,16.66664 -33.333334,24.99996 0,8.33327 4.166667,14.58327 12.5,14.58327 8.333334,0 12.5,2.0833 12.5,8.3333 0,8.3333 6.25,14.5833 14.583334,14.5833 27.083334,0 39.583334,-14.5833 39.583334,-29.1666 0,-24.99991 -20.833334,-33.33323 -45.833334,-33.33323 z m -5.208334,8.33332 c 2.876418,0 5.208334,2.33191 5.208334,5.20832 0,2.87641 -2.331916,5.20833 -5.208334,5.20833 -2.876416,0 -5.208332,-2.33192 -5.208332,-5.20833 0,-2.87641 2.331916,-5.20832 5.208332,-5.20832 z m 16.666668,0 c 2.876374,0 5.208332,2.33195 5.208332,5.20832 0,2.87637 -2.331958,5.20833 -5.208332,5.20833 -2.876376,0 -5.208333,-2.33196 -5.208333,-5.20833 0,-2.87637 2.331958,-5.20832 5.208333,-5.20832 z M 71.875,987.77871 c 2.876418,0 5.208334,2.33191 5.208334,5.20832 0,2.87641 -2.331916,5.20832 -5.208334,5.20832 -2.876417,0 -5.208333,-2.33191 -5.208333,-5.20832 0,-2.87641 2.331917,-5.20832 5.208333,-5.20832 z m -47.916666,4.16666 c 2.876416,0 5.208333,2.33191 5.208333,5.20832 0,2.87641 -2.331917,5.20831 -5.208333,5.20831 -2.876417,0 -5.208334,-2.3319 -5.208334,-5.20831 0,-2.87641 2.331917,-5.20832 5.208334,-5.20832 z m 26.041667,20.83323 c 3.451791,0 6.25,2.7982 6.25,6.25 0,3.4518 -2.798209,6.25 -6.25,6.25 -3.451792,0 -6.25,-2.7982 -6.25,-6.25 0,-3.4518 2.798208,-6.25 6.25,-6.25 z"
       id="path6511"
       style="color:#000000;fill:#000000;fill-opacity:1;stroke:none;stroke-width:0.9999997;marker:none;visibility:visible;display:inline;overflow:visible;enable-background:accumulate" />
  </g>
</svg>
