<?xml version="1.0" encoding="UTF-8" standalone="no"?>
<!-- Created with Inkscape (http://www.inkscape.org/) -->

<svg
   xmlns:dc="http://purl.org/dc/elements/1.1/"
   xmlns:cc="http://creativecommons.org/ns#"
   xmlns:rdf="http://www.w3.org/1999/02/22-rdf-syntax-ns#"
   xmlns:svg="http://www.w3.org/2000/svg"
   xmlns="http://www.w3.org/2000/svg"
   version="1.1"
   width="100"
   height="100"
   id="svg6584">
  <defs
     id="defs6586" />
  <metadata
     id="metadata6589">
    <rdf:RDF>
      <cc:Work
         rdf:about="">
        <dc:format>image/svg+xml</dc:format>
        <dc:type
           rdf:resource="http://purl.org/dc/dcmitype/StillImage" />
        <dc:title></dc:title>
      </cc:Work>
    </rdf:RDF>
  </metadata>
  <g
     transform="translate(0,-952.362)"
     id="layer1">
    <path
       d="m 22.916665,973.19533 c -2.308375,0 -4.166667,1.85833 -4.166667,4.16666 l 0,37.50001 c 0,2.3083 1.858292,4.1666 4.166667,4.1666 l 45.83333,0 c 2.30838,0 4.16667,-1.8583 4.16667,-4.1666 l 0,-4.1667 2.08333,0 c 2.08334,0 2.08334,-2.0833 2.08334,-2.0833 l 0,-2.0833 4.16666,0 c 4.16667,0 8.33334,-4.1667 8.33334,-8.33342 l 0,-4.1666 0,-8.33336 c 0,-2.08334 -2.08334,-4.16666 -4.16667,-4.16666 l -12.5,0 0,-4.16667 c 0,-2.30833 -1.85829,-4.16666 -4.16667,-4.16666 z m 50,12.49999 10.41667,0 c 2.08333,0 2.08333,2.08336 2.08333,2.08336 l 0,10.4166 c 0,2.08342 -2.08333,4.16672 -4.16667,4.16672 l -8.33333,0 z m -62.5,37.50008 6.25,6.25 c 1.032875,1.0329 2.083333,2.0833 4.166667,2.0833 17.361125,0 50.000003,0 50.000003,0 2.08333,0 3.13012,-1.0467 4.16666,-2.0833 l 6.25,-6.25 z"
       id="rect9826-2-1"
       style="color:#000000;fill:#000000;fill-opacity:1;fill-rule:nonzero;stroke:none;stroke-width:2;marker:none;visibility:visible;display:inline;overflow:visible;enable-background:accumulate" />
  </g>
</svg>
