<?xml version="1.0" encoding="UTF-8" standalone="no"?>
<!-- Created with Inkscape (http://www.inkscape.org/) -->

<svg
   xmlns:dc="http://purl.org/dc/elements/1.1/"
   xmlns:cc="http://creativecommons.org/ns#"
   xmlns:rdf="http://www.w3.org/1999/02/22-rdf-syntax-ns#"
   xmlns:svg="http://www.w3.org/2000/svg"
   xmlns="http://www.w3.org/2000/svg"
   version="1.1"
   width="100"
   height="100"
   id="svg6584">
  <defs
     id="defs6586" />
  <metadata
     id="metadata6589">
    <rdf:RDF>
      <cc:Work
         rdf:about="">
        <dc:format>image/svg+xml</dc:format>
        <dc:type
           rdf:resource="http://purl.org/dc/dcmitype/StillImage" />
        <dc:title></dc:title>
      </cc:Work>
    </rdf:RDF>
  </metadata>
  <g
     transform="translate(0,-952.362)"
     id="layer1">
    <path
       d="m 39.583333,975.2787 c -12.5,0 -25,6.25 -25,16.6666 l 0,8.3334 70.833334,0 0,-8.3334 c -8.4e-5,-10.4166 -12.5,-16.6666 -25.000001,-16.6666 z m 2.083333,4.1666 c 1.154167,0 2.083334,0.9292 2.083334,2.0834 0,1.1541 -0.929167,2.0833 -2.083334,2.0833 -1.154166,0 -2.083333,-0.9292 -2.083333,-2.0833 0,-1.1542 0.929167,-2.0834 2.083333,-2.0834 z m 16.666667,0 c 1.154167,0 2.083333,0.9292 2.083333,2.0834 0,1.1541 -0.929166,2.0833 -2.083333,2.0833 -1.154167,0 -2.083333,-0.9292 -2.083333,-2.0833 0,-1.1542 0.929166,-2.0834 2.083333,-2.0834 z m -25,8.3334 c 1.154167,0 2.083333,0.9291 2.083333,2.0833 0,1.1542 -0.929166,2.0833 -2.083333,2.0833 -1.154167,0 -2.083333,-0.9291 -2.083333,-2.0833 0,-1.1542 0.929166,-2.0833 2.083333,-2.0833 z m 16.666667,0 c 1.154166,0 2.083333,0.9291 2.083333,2.0833 0,1.1542 -0.929167,2.0833 -2.083333,2.0833 -1.154167,0 -2.083334,-0.9291 -2.083334,-2.0833 0,-1.1542 0.929167,-2.0833 2.083334,-2.0833 z m 16.666666,0 c 1.154167,0 2.083334,0.9291 2.083334,2.0833 0,1.1542 -0.929167,2.0833 -2.083334,2.0833 -1.154166,0 -2.083333,-0.9291 -2.083333,-2.0833 0,-1.1542 0.929167,-2.0833 2.083333,-2.0833 z m -52.083333,16.6666 c -2.083458,0 -4.166708,2.0833 -4.166667,4.1667 4.2e-5,2.0833 2.083209,4.1666 4.166667,4.1666 l 70.833334,0 c 2.083375,0 4.166625,-2.0833 4.166666,-4.1666 8.4e-5,-2.0834 -2.083291,-4.1667 -4.166666,-4.1667 z m 0,12.5 0,4.1667 c 0,4.1667 4.166666,8.3333 8.333333,8.3333 l 54.166667,0 c 4.166667,0 8.333334,-4.1666 8.333334,-8.3333 l 0,-4.1667 z"
       id="rect13326-2-5-2-3"
       style="color:#000000;fill:#000000;fill-opacity:1;stroke:none;stroke-width:2;marker:none;visibility:visible;display:inline;overflow:visible;enable-background:accumulate" />
  </g>
</svg>
