<?xml version="1.0" encoding="UTF-8" standalone="no"?>
<!-- Created with Inkscape (http://www.inkscape.org/) -->

<svg
   xmlns:dc="http://purl.org/dc/elements/1.1/"
   xmlns:cc="http://creativecommons.org/ns#"
   xmlns:rdf="http://www.w3.org/1999/02/22-rdf-syntax-ns#"
   xmlns:svg="http://www.w3.org/2000/svg"
   xmlns="http://www.w3.org/2000/svg"
   version="1.1"
   width="100"
   height="100"
   id="svg6584">
  <defs
     id="defs6586" />
  <metadata
     id="metadata6589">
    <rdf:RDF>
      <cc:Work
         rdf:about="">
        <dc:format>image/svg+xml</dc:format>
        <dc:type
           rdf:resource="http://purl.org/dc/dcmitype/StillImage" />
        <dc:title></dc:title>
      </cc:Work>
    </rdf:RDF>
  </metadata>
  <g
     transform="translate(0,-952.362)"
     id="layer1">
    <path
       d="m 50.000003,966.94535 -14.58334,20.83332 -8.33333,-12.49999 c -2.76162,4.85513 -12.5,16.66665 -12.5,29.16662 0,18.4095 17.00717,33.3334 35.41667,33.3334 18.409497,0 35.416664,-14.9239 35.416664,-33.3334 0,-12.49997 -9.738375,-24.31149 -12.5,-29.16662 l -8.333334,12.49999 z m 0,33.33335 c 0,0 14.58333,11.1858 14.58333,20.8333 0,4.1667 -6.25,8.3333 -14.58333,8.3333 -8.33334,0 -14.58334,-4.1666 -14.58334,-8.3333 0,-9.317 14.58334,-20.8333 14.58334,-20.8333 z"
       id="path10041-3"
       style="color:#000000;fill:#000000;fill-opacity:1;fill-rule:nonzero;stroke:none;stroke-width:2;marker:none;visibility:visible;display:inline;overflow:visible;enable-background:accumulate" />
  </g>
</svg>
