<?xml version="1.0" encoding="UTF-8" standalone="no"?>
<!-- Created with Inkscape (http://www.inkscape.org/) -->

<svg
   xmlns:dc="http://purl.org/dc/elements/1.1/"
   xmlns:cc="http://creativecommons.org/ns#"
   xmlns:rdf="http://www.w3.org/1999/02/22-rdf-syntax-ns#"
   xmlns:svg="http://www.w3.org/2000/svg"
   xmlns="http://www.w3.org/2000/svg"
   version="1.1"
   width="100"
   height="100"
   id="svg6584">
  <defs
     id="defs6586" />
  <metadata
     id="metadata6589">
    <rdf:RDF>
      <cc:Work
         rdf:about="">
        <dc:format>image/svg+xml</dc:format>
        <dc:type
           rdf:resource="http://purl.org/dc/dcmitype/StillImage" />
        <dc:title></dc:title>
      </cc:Work>
    </rdf:RDF>
  </metadata>
  <g
     transform="translate(0,-952.362)"
     id="layer1">
    <path
       d="m 32.5,969.02868 c -1.054167,0 -1.25,2.33166 -1.25,4.16666 l 0,8.33333 c 0,8.46333 8.333332,12.76041 16.666666,12.49999 l 0,33.33334 C 43.75,1019.0287 31.25,1006.5287 18.749999,1010.6953 c 0,0 10.416667,25 31.250001,25 20.833334,0 31.25,-25 31.25,-25 -12.5,-4.1666 -25,8.3334 -29.166667,16.6667 l 0,-33.33334 C 60.416666,994.28699 68.75,989.992 68.75,981.52867 l 0,-8.33333 c 0,-1.835 -0.195001,-4.16666 -1.25,-4.16666 -0.803833,0 -1.773416,0.94 -2.916667,2.08333 l -6.25,6.25 -6.25,-7.03125 c -0.652375,-0.73375 -1.029,-1.30208 -2.083334,-1.30208 -1.054375,0 -1.430958,0.56833 -2.083333,1.30208 l -6.25,7.03125 -6.25,-6.25 c -1.14325,-1.14333 -2.112834,-2.08333 -2.916667,-2.08333 z"
       id="path6080-4"
       style="color:#000000;fill:#000000;fill-opacity:1;fill-rule:nonzero;stroke:none;stroke-width:2;marker:none;visibility:visible;display:inline;overflow:visible;enable-background:accumulate" />
  </g>
</svg>
