<?xml version="1.0" encoding="UTF-8" standalone="no"?>
<!-- Created with Inkscape (http://www.inkscape.org/) -->

<svg
   xmlns:dc="http://purl.org/dc/elements/1.1/"
   xmlns:cc="http://creativecommons.org/ns#"
   xmlns:rdf="http://www.w3.org/1999/02/22-rdf-syntax-ns#"
   xmlns:svg="http://www.w3.org/2000/svg"
   xmlns="http://www.w3.org/2000/svg"
   version="1.1"
   width="100"
   height="100"
   id="svg6584">
  <defs
     id="defs6586" />
  <metadata
     id="metadata6589">
    <rdf:RDF>
      <cc:Work
         rdf:about="">
        <dc:format>image/svg+xml</dc:format>
        <dc:type
           rdf:resource="http://purl.org/dc/dcmitype/StillImage" />
        <dc:title></dc:title>
      </cc:Work>
    </rdf:RDF>
  </metadata>
  <g
     transform="translate(0,-952.362)"
     id="layer1">
    <path
       d="m 81.25,969.02871 c -2.430554,0 -4.587079,0.68083 -6.119792,2.21354 -1.532712,1.53271 -2.213541,3.68923 -2.213541,6.11979 l -58.333334,0 8.333333,37.49996 50.000001,0 0,4.1667 -45.833334,0 c -4.166667,0 -4.166667,4.1666 0,4.1666 l 6.25,0 33.333334,0 6.25,0 c 2.083333,0 4.166667,-2.0833 4.166667,-4.1666 l 0,-4.1667 0,-33.3333 0,-4.16666 c 0,0 0.360833,-2.70459 0.911458,-3.25521 0.550621,-0.55062 1.519096,-0.91146 3.255208,-0.91146 0.462609,0 1.217704,0 1.666667,0 2.083333,0 2.5,-1.03613 2.5,-2.08333 0,-1.03092 -0.416667,-2.08333 -2.5,-2.08333 -0.545717,0 -1.09495,0 -1.666667,0 z m -14.583333,54.16659 c -3.451779,0 -6.25,2.7982 -6.25,6.25 0,3.4518 2.798221,6.25 6.25,6.25 3.451779,0 6.25,-2.7982 6.25,-6.25 0,-3.4518 -2.798221,-6.25 -6.25,-6.25 z m -33.333334,0 c -3.451779,0 -6.25,2.7982 -6.25,6.25 0,3.4518 2.798221,6.25 6.25,6.25 3.451779,0 6.25,-2.7982 6.25,-6.25 0,-3.4518 -2.798221,-6.25 -6.25,-6.25 z"
       id="rect7842"
       style="color:#000000;fill:#000000;fill-opacity:1;stroke:none;stroke-width:2;marker:none;visibility:visible;display:inline;overflow:visible;enable-background:accumulate" />
  </g>
</svg>
