<?xml version="1.0" encoding="utf-8"?>
<!-- Generator: Adobe Illustrator 14.0.0, SVG Export Plug-In . SVG Version: 6.00 Build 43363)  -->
<!DOCTYPE svg PUBLIC "-//W3C//DTD SVG 1.0//EN" "http://www.w3.org/TR/2001/REC-SVG-20010904/DTD/svg10.dtd">
<svg version="1.0" id="Layer_1" xmlns="http://www.w3.org/2000/svg" xmlns:xlink="http://www.w3.org/1999/xlink" x="0px" y="0px"
	 width="100px" height="87.496px" viewBox="0 0 100 87.496" enable-background="new 0 0 100 87.496" xml:space="preserve">
<path d="M99.893,40.437c-1.558-4.123-3.11-8.249-4.666-12.372c-1.04-2.757-1.659-5.849-3.784-7.975
	c-1.039-1.041-2.077-2.078-3.115-3.116c-0.001,0-0.002-0.002-0.004-0.004c0.873-0.896,1.747-1.793,2.62-2.69
	c0.403-0.413,0.431-1.067,0.038-1.461c-1.485-1.484-2.971-2.969-4.456-4.455c-0.393-0.392-1.047-0.365-1.462,0.037
	c-0.896,0.872-1.794,1.747-2.69,2.621c-0.001-0.001-0.001-0.002-0.002-0.003C78.951,7.599,75.53,4.177,72.11,0.757
	c-0.605-0.606-1.6-0.624-2.187-0.038c-3.868,3.867-7.736,7.736-11.604,11.604c-0.587,0.586-0.568,1.58,0.037,2.187
	c3.347,3.348,6.693,6.693,10.041,10.039c-3.303,3.193-6.955,6.738-9.878,9.554c-2.96,2.851-5.92,5.7-8.88,8.549
	c-2.262-2.173-4.524-4.349-6.787-6.522c-3.756-3.608-8.778-8.484-12.534-12.095c4.337-2.897,9.306-6.428,13.642-9.326
	c1.13-0.755,1.211-2.008,0.41-3.031c-3.224-4.123-5.182-6.982-8.406-11.105c-0.486-0.62-1.674-0.752-2.309-0.312
	c-6.426,4.442-14.592,8.569-19.71,13.688C8.829,19.064,4.703,27.23,0.259,33.656c-0.439,0.636-0.309,1.822,0.312,2.309
	c4.124,3.225,6.982,5.183,11.105,8.407c1.024,0.801,2.277,0.719,3.031-0.411c2.898-4.336,6.43-9.304,9.327-13.643
	c3.609,3.757,8.485,8.779,12.094,12.534c2.131,2.218,4.262,4.436,6.394,6.652c-3.564,3.433-7.13,6.864-10.694,10.297
	c-6.169,5.942-12.338,11.883-18.507,17.822c-0.289,0.278-0.577,0.556-0.865,0.834c-0.795,0.765-0.802,2.058-0.071,2.789
	c1.163,1.163,1.693,1.692,2.856,2.855c1.164,1.164,1.693,1.694,2.857,2.857c0.729,0.729,2.024,0.724,2.789-0.072
	c0.278-0.287,0.555-0.576,0.833-0.863c5.94-6.17,11.881-12.339,17.821-18.509c3.385-3.515,6.77-7.03,10.154-10.545
	c3.613,3.76,7.226,7.519,10.838,11.278c5.642,5.869,11.282,11.74,16.924,17.61c0.264,0.273,0.527,0.548,0.792,0.822
	c0.726,0.756,1.987,0.73,2.719,0c1.163-1.163,1.692-1.692,2.855-2.856c1.164-1.164,1.694-1.693,2.857-2.856
	c0.729-0.73,0.755-1.992,0-2.719c-0.274-0.265-0.55-0.527-0.824-0.791c-5.87-5.641-11.74-11.282-17.609-16.924
	c-3.806-3.658-7.612-7.314-11.418-10.973c2.804-2.913,5.608-5.825,8.412-8.737c2.814-2.923,6.359-6.575,9.553-9.877
	c0.965,0.964,1.93,1.929,2.895,2.894c1.972,1.973,4.679,2.538,7.249,3.51c4.365,1.647,8.731,3.294,13.098,4.94
	c0.663,0.251,1.178,0.04,1.49-0.364C99.931,41.614,100.143,41.1,99.893,40.437z"/>
</svg>
