<?xml version="1.0" encoding="UTF-8" standalone="no"?>
<!-- Created with Inkscape (http://www.inkscape.org/) -->

<svg
   xmlns:dc="http://purl.org/dc/elements/1.1/"
   xmlns:cc="http://creativecommons.org/ns#"
   xmlns:rdf="http://www.w3.org/1999/02/22-rdf-syntax-ns#"
   xmlns:svg="http://www.w3.org/2000/svg"
   xmlns="http://www.w3.org/2000/svg"
   version="1.1"
   width="100"
   height="100"
   id="svg6584">
  <defs
     id="defs6586" />
  <metadata
     id="metadata6589">
    <rdf:RDF>
      <cc:Work
         rdf:about="">
        <dc:format>image/svg+xml</dc:format>
        <dc:type
           rdf:resource="http://purl.org/dc/dcmitype/StillImage" />
        <dc:title></dc:title>
      </cc:Work>
    </rdf:RDF>
  </metadata>
  <g
     transform="translate(0,-952.362)"
     id="layer1">
    <path
       d="m 39.583333,964.86203 c -2.083333,0 -4.166667,2.08333 -4.166667,4.16665 l 0,4.16667 29.166668,0 0,-4.16667 c 0,-2.08333 -2.083334,-4.16665 -4.166668,-4.16665 z m -4.166667,12.49999 0,2.08333 c 0,8.05413 6.52925,14.58333 14.583334,14.58333 8.054083,0 14.583334,-6.5292 14.583334,-14.58333 l 0,-2.08333 z M 31.25,998.19538 c -6.25,0 -8.333334,10.41662 -8.333334,16.66672 l 0,24.9999 11.197917,0 L 62.5,998.19538 z m 37.5,0 -28.385417,41.66662 36.718751,0 0,-24.9999 C 77.083334,1008.612 75,998.19538 68.75,998.19538 z"
       id="rect7805-5"
       style="color:#000000;fill:#000000;fill-opacity:1;stroke:none;stroke-width:2;marker:none;visibility:visible;display:inline;overflow:visible;enable-background:accumulate" />
  </g>
</svg>
