<svg xmlns="http://www.w3.org/2000/svg" xmlns:xlink="http://www.w3.org/1999/xlink" version="1.1" id="Layer_1" x="0px" y="0px" width="53.86px" height="53.86px" viewBox="0 0 53.86 53.86" enable-background="new 0 0 53.86 53.86" xml:space="preserve">
<g>
	<path fill-rule="evenodd" clip-rule="evenodd" d="M36.269,7.497c-1.703,1.13-2.59,3.074-4.514,3.983   c-1.129-1.703-3.073-2.591-3.982-4.514c1.438-1.217,2.765-2.544,3.982-3.983C33.592,4.156,35.095,5.66,36.269,7.497z"/>
	<path fill-rule="evenodd" clip-rule="evenodd" d="M21.399,8.028c3.875,5.104,15.917,8.745,19.65,1.062   c1.79,0.955,2.902,2.587,4.248,3.983C39.523,21.77,23.745,15.975,21.399,8.028z"/>
	<path fill-rule="evenodd" clip-rule="evenodd" d="M21.93,27.147c3.149,3.294,7.469,7.389,7.436,13.807   c-0.056,11.022-13.944,10.064-19.65,4.514C5.107,40.99,2.216,34.372,1.217,28.209c1.346,0.984,1.604,2.938,2.39,4.515   c2.264,4.537,6.429,11.51,12.746,11.949c3.97,0.274,7.636-1.59,8.763-4.779c1.751-4.955-1.895-8.494-3.717-11.419   c-0.951,1.263-1.933,2.493-2.921,3.717c-1.732-1.542-3.37-3.179-5.045-4.779c1.21-1.793,2.884-2.274,4.249-3.718   c1.681-1.778,3.804-6.844-0.531-7.701c-2.896-0.572-5.452,1.366-7.435,2.921c-0.875,0.685-3.021,3.434-3.453,3.452   c-1.479,0.063-3.676-4.24-4.514-4.78c3.884-2.731,6.901-7.549,13.277-6.373C21.396,12.39,25.728,20.57,21.93,27.147z"/>
	<path fill-rule="evenodd" clip-rule="evenodd" d="M38.394,29.271c4.551,5.259,14.455-0.85,10.622-6.904   c-7.264-1.659-16.356,14.546-23.103,3.452c7.396,2.416,9.768-5.706,17.792-7.436c2.275-0.49,6.627,1.218,7.701,3.188   c2.198,4.032,1.571,14.358-3.984,14.604C43.785,36.337,39.413,32.254,38.394,29.271z"/>
</g>
</svg>