<?xml version="1.0" encoding="UTF-8" standalone="no"?>
<!-- Created with Inkscape (http://www.inkscape.org/) -->

<svg
   xmlns:dc="http://purl.org/dc/elements/1.1/"
   xmlns:cc="http://creativecommons.org/ns#"
   xmlns:rdf="http://www.w3.org/1999/02/22-rdf-syntax-ns#"
   xmlns:svg="http://www.w3.org/2000/svg"
   xmlns="http://www.w3.org/2000/svg"
   xmlns:sodipodi="http://sodipodi.sourceforge.net/DTD/sodipodi-0.dtd"
   xmlns:inkscape="http://www.inkscape.org/namespaces/inkscape"
   width="100"
   height="100"
   id="svg2"
   version="1.1"
   inkscape:version="0.48.2 r9819"
   sodipodi:docname="religious-buddhism.svg">
  <title
     id="title3857">Dharma Wheel</title>
  <defs
     id="defs4" />
  <sodipodi:namedview
     id="base"
     pagecolor="#ffffff"
     bordercolor="#666666"
     borderopacity="1.0"
     inkscape:pageopacity="0.0"
     inkscape:pageshadow="2"
     inkscape:zoom="5.07"
     inkscape:cx="42.275235"
     inkscape:cy="46.51545"
     inkscape:document-units="px"
     inkscape:current-layer="layer1"
     showgrid="false"
     inkscape:window-width="1920"
     inkscape:window-height="1058"
     inkscape:window-x="0"
     inkscape:window-y="0"
     inkscape:window-maximized="0" />
  <metadata
     id="metadata7">
    <rdf:RDF>
      <cc:Work
         rdf:about="">
        <dc:format>image/svg+xml</dc:format>
        <dc:type
           rdf:resource="http://purl.org/dc/dcmitype/StillImage" />
        <dc:title>Dharma Wheel</dc:title>
        <dc:date>2013-03-04</dc:date>
        <dc:creator>
          <cc:Agent>
            <dc:title>Alec Dhuse</dc:title>
          </cc:Agent>
        </dc:creator>
        <dc:rights>
          <cc:Agent>
            <dc:title>Creative Commons CC0 - No Rights Reserved</dc:title>
          </cc:Agent>
        </dc:rights>
        <dc:language />
        <dc:subject>
          <rdf:Bag>
            <rdf:li>Buddhism</rdf:li>
            <rdf:li>Dharma</rdf:li>
            <rdf:li>Wheel</rdf:li>
          </rdf:Bag>
        </dc:subject>
        <cc:license
           rdf:resource="http://creativecommons.org/licenses/publicdomain/" />
      </cc:Work>
      <cc:License
         rdf:about="http://creativecommons.org/licenses/publicdomain/">
        <cc:permits
           rdf:resource="http://creativecommons.org/ns#Reproduction" />
        <cc:permits
           rdf:resource="http://creativecommons.org/ns#Distribution" />
        <cc:permits
           rdf:resource="http://creativecommons.org/ns#DerivativeWorks" />
      </cc:License>
    </rdf:RDF>
  </metadata>
  <g
     inkscape:label="Layer 1"
     inkscape:groupmode="layer"
     id="layer1"
     transform="translate(0,-952.36218)">
    <g
       id="g2993"
       transform="matrix(0.81260679,0,0,0.8116803,9.3967724,188.76241)">
      <path
         id="path3984"
         transform="translate(0,952.36218)"
         style="fill:#000000;fill-opacity:1;fill-rule:nonzero;stroke:none"
         d="m 48.992389,53.273515 c -0.872341,-0.349394 -1.61518,-1.005048 -2.005483,-1.770104 -1.108551,-2.17294 0.489052,-4.909262 2.871943,-4.918969 0.956985,-0.0039 2.389074,0.685892 2.909987,1.401647 0.787415,1.081939 0.748918,2.98522 -0.08404,4.155003 -0.756707,1.062697 -2.517907,1.602839 -3.692406,1.132423 l 0,0 z m -0.02276,42.710171 C 48.593171,95.814532 48.117748,95.524743 47.913135,95.339712 47.366958,94.8458 46.794133,93.625465 46.794133,92.95581 c 0,-0.659686 0.195276,-0.590674 -3.155818,-1.11529 C 36.777902,90.766522 31.101916,88.436428 25.055441,84.211915 24.001526,83.475572 23.021773,82.87311 22.87821,82.87311 c -0.143562,0 -0.609208,0.177515 -1.034767,0.394477 -0.929937,0.474109 -2.17764,0.506456 -3.233866,0.08384 -1.809337,-0.723955 -2.498018,-3.243819 -1.357539,-4.967199 L 17.782264,77.583 16.833538,76.329761 C 12.026978,69.980442 9.0383134,63.043163 8.1386731,56.147272 7.7772493,53.376899 7.8555706,53.54654 6.8696909,53.398698 4.4441353,53.034964 3.1663652,50.72444 4.1549015,48.48969 4.6020743,47.478781 5.4425629,46.843331 6.5795576,46.656528 6.9714029,46.592152 7.3906672,46.478501 7.511256,46.403972 7.6318445,46.329445 7.8716684,45.295933 8.0441976,44.107278 9.0888901,36.909781 12.180956,29.639311 16.650084,23.871988 l 0.555683,-0.717098 -0.534078,-0.955571 c -1.033486,-1.849107 -0.53318,-3.961788 1.14038,-4.815575 1.083698,-0.552861 2.629817,-0.518358 3.619611,0.08077 l 0.771669,0.467101 2.18691,-1.61683 c 2.74305,-2.027993 5.026215,-3.400033 7.860825,-4.723861 4.237743,-1.9791248 7.181233,-2.8311776 12.719337,-3.6818711 1.313229,-0.2017215 1.440221,-0.2628416 1.546316,-0.7442298 0.426566,-1.9354821 0.903445,-2.6225373 2.150968,-3.0989712 2.215761,-0.8462064 4.370278,0.4155469 4.722716,2.7657702 0.148345,0.9892322 0.129586,0.9789596 2.180832,1.1942643 2.535328,0.2661156 6.281087,1.2251359 9.467456,2.4239376 4.156239,1.563694 7.23961,3.311536 11.311339,6.411955 l 1.054927,0.803275 0.946527,-0.532069 c 1.771452,-0.995781 3.667363,-0.636534 4.815028,0.912375 0.32297,0.435887 0.412613,0.846308 0.412613,1.889121 0,1.152149 -0.07394,1.429187 -0.546933,2.049315 l -0.546931,0.717066 1.458428,2.028922 c 4.411848,6.137631 6.88202,12.059771 7.921485,18.991447 0.425791,2.839397 0.486474,2.973813 1.411006,3.125472 2.384519,0.391152 3.496105,2.680386 2.435833,5.016434 -0.310837,0.68485 -0.579772,0.935635 -1.425649,1.329436 -0.573399,0.266946 -1.236269,0.486224 -1.47304,0.487284 -0.498335,0.0022 -0.552093,0.144842 -0.855747,2.270171 -0.944178,6.608474 -3.534241,12.948326 -7.737426,18.939367 -0.949211,1.352965 -1.725839,2.565294 -1.725839,2.694067 0,0.128771 0.188056,0.622604 0.417904,1.097403 0.321195,0.663501 0.397157,1.113412 0.32826,1.944218 -0.211888,2.555095 -2.603757,3.750541 -5.161367,2.579628 l -1.099002,-0.503138 -1.23698,0.911069 c -6.155925,4.534011 -12.420641,7.198899 -19.382937,8.245126 -1.193294,0.179315 -2.271726,0.355122 -2.396517,0.390678 -0.124789,0.03556 -0.288053,0.448048 -0.362808,0.916645 -0.17116,1.072906 -0.908541,2.228961 -1.674304,2.624953 -0.899815,0.465312 -2.167566,0.548331 -2.956953,0.193637 l 0,0 z M 48.621084,75.920447 C 48.577697,70.252301 48.511776,65.51701 48.474591,65.397576 48.437407,65.278144 47.929754,65.131171 47.34647,65.07097 46.040798,64.936213 43.581958,64.003416 41.833078,62.979384 l -1.31214,-0.768305 -7.119813,7.137325 c -4.667061,4.67854 -7.119812,7.274896 -7.119812,7.536665 0,0.443138 0.649804,1.00995 3.216437,2.805637 5.195965,3.635238 10.447044,5.485114 18.183957,6.405933 0.325444,0.03873 0.687688,0.08372 0.804988,0.09998 0.151393,0.02098 0.190385,-2.960607 0.134389,-10.276168 z m 8.57856,9.405344 c 5.399172,-1.0789 9.987884,-3.13157 14.545179,-6.506503 0.759369,-0.562355 1.624085,-1.267474 1.92159,-1.566929 l 0.540919,-0.544466 -2.358929,-2.489382 c -1.29741,-1.369162 -4.514197,-4.68573 -7.148414,-7.370152 l -4.789485,-4.880766 -2.0896,1.190316 c -1.640116,0.934274 -2.541688,1.302185 -4.191321,1.710383 l -2.101722,0.520069 0,10.28741 c 0,5.658077 0.04271,10.330124 0.09492,10.382327 0.156253,0.156253 2.996848,-0.216749 5.576868,-0.732307 z M 31.073176,67.192637 38.288606,60.092045 37.492439,58.908613 C 36.30696,57.146501 35.587494,55.518457 35.129096,53.560716 34.903382,52.596733 34.686679,51.696282 34.647535,51.559712 34.591255,51.363355 32.41895,51.322086 24.265131,51.362473 l -10.311235,0.05107 0.06161,1.47929 c 0.07814,1.876174 0.847586,5.752611 1.635193,8.237984 0.729895,2.303261 2.723787,6.464174 4.136528,8.632235 1.329736,2.040676 3.518365,4.66442 3.828073,4.589122 0.133349,-0.03242 3.489394,-3.254213 7.457879,-7.159538 z m 47.223728,5.177515 c 0.753127,-1.003452 1.748695,-2.388048 2.212371,-3.076878 1.152432,-1.712034 3.025998,-5.653028 3.759237,-7.907448 0.715272,-2.199175 1.506556,-6.001108 1.695783,-8.147824 l 0.134741,-1.5286 -10.378477,0 -10.378477,0 -0.122971,0.542406 c -0.656303,2.89487 -1.099149,4.052073 -2.321021,6.065089 -0.395081,0.650888 -0.718557,1.317361 -0.718835,1.481051 -7.89e-4,0.429989 14.159351,14.396661 14.596028,14.396661 0.08376,0 0.768495,-0.821006 1.521621,-1.824457 z M 52.231281,61.557757 c 3.350681,-0.603562 6.78029,-3.277805 8.337487,-6.501164 2.596803,-5.375321 0.781647,-11.679741 -4.31038,-14.970879 -2.031955,-1.313314 -3.441904,-1.690383 -6.308436,-1.687087 -2.075892,0.0024 -2.668071,0.07525 -3.747535,0.461132 -4.779274,1.708466 -7.889546,5.996759 -7.889546,10.87773 0,2.237209 0.266138,3.501197 1.10043,5.226351 0.900205,1.861446 1.830676,3.070937 3.1891,4.1454 2.852943,2.25658 6.104395,3.083387 9.62888,2.448517 l 0,0 z M 86.148324,48.208416 C 85.172019,40.855023 84.207293,37.39424 81.955934,33.168968 81.098125,31.559061 78.766892,28.095696 77.579752,26.667552 l -0.567637,-0.682878 -1.340593,1.175975 c -0.737326,0.646785 -4.091367,3.888623 -7.453426,7.204084 l -6.112835,6.028111 0.704381,1.1711 c 1.211233,2.013787 1.560394,2.842308 2.105923,4.997111 l 0.529412,2.091148 3.840259,0.105075 c 2.112142,0.05779 6.792491,0.124361 10.400775,0.147929 l 6.560517,0.04285 -0.0982,-0.739645 z M 34.867599,47.370152 c 0.454725,-2.244839 1.328611,-4.363614 2.511189,-6.088492 l 0.590759,-0.861666 -7.335128,-7.323738 -7.335126,-7.323738 -0.88871,0.970166 c -1.260977,1.376554 -3.622686,4.997118 -4.770859,7.313858 -1.108411,2.236511 -2.018808,4.703197 -2.693459,7.29783 -0.510346,1.96273 -1.179058,6.699904 -0.989153,7.007176 0.07803,0.126249 3.765421,0.177446 10.405796,0.144479 l 10.284945,-0.05106 0.219746,-1.084812 z m 8.804144,-11.336748 c 0.603647,-0.276359 1.930349,-0.706276 2.948228,-0.955373 l 1.850691,-0.452901 0.0511,-10.233189 c 0.02811,-5.628255 -0.02489,-10.309186 -0.117775,-10.40207 -0.228773,-0.228773 -3.159314,0.141945 -6.042209,0.764349 -5.628108,1.215084 -10.692308,3.673697 -15.561544,7.554959 l -1.552079,1.23716 1.453459,1.479759 c 0.799405,0.813868 4.146738,4.084517 7.438521,7.268111 l 5.985061,5.788351 1.224501,-0.773343 c 0.673477,-0.42534 1.718395,-0.999456 2.322042,-1.275813 l 0,0 z m 23.652394,-5.080166 c 4.005531,-3.930682 7.253448,-7.236895 7.217594,-7.34714 -0.03585,-0.110244 -0.67957,-0.71778 -1.430482,-1.35008 -4.315282,-3.633663 -10.483676,-6.593288 -15.863467,-7.611365 -3.100718,-0.586783 -5.355179,-0.854232 -5.550903,-0.658509 -0.09554,0.09554 -0.149791,4.738041 -0.121503,10.398 l 0.0511,10.225392 1.747779,0.463943 c 1.856087,0.49269 4.505221,1.666249 5.648671,2.502337 0.379684,0.277626 0.764154,0.509127 0.854379,0.514446 0.09022,0.0053 3.441296,-3.206341 7.446828,-7.137024 l 0,0 z M 54.284321,48.639363 c -0.105797,-0.278265 -0.192357,-0.568313 -0.192357,-0.64455 0,-0.07624 0.919649,-1.055132 2.043664,-2.175322 l 2.043664,-2.036709 0.699614,1.251279 c 0.602857,1.078225 1.327456,3.203329 1.327456,3.893161 0,0.149268 -0.903932,0.218078 -2.864842,0.218078 l -2.864843,0 -0.192356,-0.505937 z m 1.605571,5.755619 c -1.900992,-1.907483 -2.00214,-2.049843 -1.81192,-2.55016 l 0.201467,-0.529897 2.94567,0 2.945671,0 -0.244837,1.035503 c -0.251499,1.063677 -1.090909,2.872664 -1.686709,3.634972 -0.335231,0.428918 -0.340295,0.42549 -2.349342,-1.590418 l 0,0 z m -4.756508,2.880345 0,-2.915338 0.570853,-0.215473 c 0.553455,-0.208906 0.631849,-0.154269 2.572158,1.792666 2.267327,2.27507 2.255311,2.134486 0.270236,3.161582 -0.86825,0.44924 -2.763429,1.081617 -3.265318,1.089559 -0.08136,0.0013 -0.147929,-1.309561 -0.147929,-2.912996 z m -3.695355,2.611276 c -1.02137,-0.275067 -2.585785,-0.996934 -3.260878,-1.504663 -0.318035,-0.23919 -0.169057,-0.441347 1.692151,-2.296191 1.82695,-1.820702 2.096109,-2.020049 2.567673,-1.901694 l 0.526784,0.132214 0,2.937198 c 0,2.225188 -0.05977,2.934051 -0.246549,2.924217 -0.135601,-0.0071 -0.711233,-0.138126 -1.279181,-0.291081 z m -5.611217,-3.788641 c -0.514744,-0.602829 -1.332879,-2.231883 -1.639611,-3.264763 -0.538479,-1.813254 -0.684385,-1.715513 2.560893,-1.715513 l 2.857314,0 0.30489,0.729706 0.304891,0.729707 -1.925762,1.933015 c -1.059169,1.063159 -1.980239,1.933016 -2.046822,1.933016 -0.06658,0 -0.25369,-0.155326 -0.415793,-0.345168 z M 39.89078,48.589383 c 0,-1.02299 1.506786,-4.572289 1.941077,-4.572289 0.07534,0 1.036951,0.909764 2.136918,2.021697 1.753679,1.772754 1.978682,2.076342 1.82729,2.465483 -0.168045,0.431944 -0.249141,0.443787 -3.038968,0.443787 -2.639464,0 -2.866317,-0.02839 -2.866317,-0.358678 z m 5.427398,-4.371703 c -1.879066,-1.886143 -1.94534,-1.981531 -1.574209,-2.265738 0.846805,-0.648473 2.443327,-1.465371 3.445559,-1.763001 1.880706,-0.55851 1.774231,-0.711149 1.774231,2.543455 l 0,2.857314 -0.714423,0.298505 c -0.392933,0.164177 -0.771817,0.298505 -0.841965,0.298505 -0.07015,0 -1.010285,-0.886068 -2.089193,-1.96904 l 0,0 z m 6.357612,1.712743 -0.542406,-0.214331 0,-2.945714 0,-2.945713 0.838264,0.130082 c 0.951095,0.14759 3.352333,1.234763 4.092702,1.852992 l 0.493097,0.411749 -1.968686,1.983616 c -1.082777,1.090989 -2.059109,1.974174 -2.169625,1.962633 -0.110517,-0.01154 -0.445022,-0.117431 -0.743346,-0.235314 z" />
    </g>
  </g>
</svg>
