<?xml version="1.0" encoding="UTF-8" standalone="no"?>
<!-- Created with Inkscape (http://www.inkscape.org/) -->

<svg
   xmlns:dc="http://purl.org/dc/elements/1.1/"
   xmlns:cc="http://creativecommons.org/ns#"
   xmlns:rdf="http://www.w3.org/1999/02/22-rdf-syntax-ns#"
   xmlns:svg="http://www.w3.org/2000/svg"
   xmlns="http://www.w3.org/2000/svg"
   version="1.1"
   width="100"
   height="100"
   id="svg6584">
  <defs
     id="defs6586" />
  <metadata
     id="metadata6589">
    <rdf:RDF>
      <cc:Work
         rdf:about="">
        <dc:format>image/svg+xml</dc:format>
        <dc:type
           rdf:resource="http://purl.org/dc/dcmitype/StillImage" />
        <dc:title></dc:title>
      </cc:Work>
    </rdf:RDF>
  </metadata>
  <g
     transform="translate(0,-952.362)"
     id="layer1">
    <path
       d="m 39.583333,966.94535 c -13.807125,0 -25,11.19291 -25,24.99998 0,13.80707 11.192875,25.00007 25,25.00007 l 20.833334,0 18.75,18.7499 c 1.317833,1.318 2.109375,2.0834 3.776042,2.0834 0.520833,0 1.171875,0 1.822916,-0.6509 0.65125,-0.6512 0.651042,-1.302 0.651042,-1.8229 0,-1.6666 -0.907833,-2.6008 -2.083333,-3.7762 l -18.750001,-18.7501 0,-20.83327 c 0,-13.80707 -11.192875,-24.99998 -25,-24.99998 z m 20.833334,33.33335 0,12.4999 -12.5,0 z m -39.583334,16.6667 c -3.45179,0 -6.25,2.7983 -6.25,6.25 0,3.4516 2.79821,6.2499 6.25,6.2499 3.45179,0 6.25,-2.7983 6.25,-6.2499 0,-3.4517 -2.79821,-6.25 -6.25,-6.25 z"
       id="path11507"
       style="color:#000000;fill:#000000;fill-opacity:1;fill-rule:nonzero;stroke:none;stroke-width:2;marker:none;visibility:visible;display:inline;overflow:visible;enable-background:accumulate" />
  </g>
</svg>
