<?xml version="1.0" encoding="UTF-8" standalone="no"?>
<!-- Created with Inkscape (http://www.inkscape.org/) -->

<svg
   xmlns:dc="http://purl.org/dc/elements/1.1/"
   xmlns:cc="http://creativecommons.org/ns#"
   xmlns:rdf="http://www.w3.org/1999/02/22-rdf-syntax-ns#"
   xmlns:svg="http://www.w3.org/2000/svg"
   xmlns="http://www.w3.org/2000/svg"
   version="1.1"
   width="100"
   height="100"
   id="svg6584">
  <defs
     id="defs6586" />
  <metadata
     id="metadata6589">
    <rdf:RDF>
      <cc:Work
         rdf:about="">
        <dc:format>image/svg+xml</dc:format>
        <dc:type
           rdf:resource="http://purl.org/dc/dcmitype/StillImage" />
        <dc:title></dc:title>
      </cc:Work>
    </rdf:RDF>
  </metadata>
  <g
     transform="translate(0,-952.362)"
     id="layer1">
    <path
       d="m 18.75,964.86195 c -1.964167,0 -4.166667,2.08334 -4.166667,4.16667 l 0,29.16672 c 0,9.23336 4.166667,20.83346 20.833334,20.83346 1.4945,0 2.859083,-0.071 4.166666,-0.2584 l 0,-12.2396 -16.666667,0 c 0,0 2.083334,-8.33338 12.500001,-8.33338 2.083333,0 2.902208,0.30834 4.166666,0.78125 l 0,-9.11459 c 0,-3.81959 1.522042,-7.01085 4.166667,-8.33335 4.166667,-2.08334 5.848833,-1.24209 8.333333,0 C 56.25,983.61407 56.25,983.61407 56.25,983.61407 l 0,-14.58336 c 0,-2.08334 -2.2025,-4.16668 -4.166667,-4.16668 -4.166666,0 -8.333333,4.16668 -16.666666,4.16668 -8.333334,0 -12.500001,-4.16668 -16.666667,-4.16668 z m 7.291666,14.58336 c 2.8765,0 5.208334,2.33167 5.208334,5.20834 0,2.87667 -2.331834,5.20834 -5.208334,5.20834 -2.8765,0 -5.208333,-2.33167 -5.208333,-5.20834 0,-2.87667 2.331833,-5.20834 5.208333,-5.20834 z m 21.875001,6.25001 c -1.964167,0 -4.166667,2.08334 -4.166667,4.16666 l 0,29.16682 c 0,9.2333 4.166667,20.8333 20.833333,20.8333 16.666667,0 20.833334,-11.6 20.833334,-20.8333 l 0,-29.16682 c 0,-2.08333 -2.2025,-4.16666 -4.166667,-4.16666 -4.166666,0 -8.333333,4.16666 -16.666667,4.16666 -8.333333,0 -12.5,-4.16666 -16.666666,-4.16666 z m 7.291666,14.58338 c 2.8765,0 5.208334,2.3317 5.208334,5.2084 0,2.8766 -2.331834,5.2083 -5.208334,5.2083 -2.8765,0 -5.208333,-2.3317 -5.208333,-5.2083 0,-2.8767 2.331833,-5.2084 5.208333,-5.2084 z m 18.75,0 c 2.8765,0 5.208334,2.3317 5.208334,5.2084 0,2.8766 -2.331834,5.2083 -5.208334,5.2083 -2.8765,0 -5.208333,-2.3317 -5.208333,-5.2083 0,-2.8767 2.331833,-5.2084 5.208333,-5.2084 z m -21.875,22.9167 25.000001,0 c 0,0 -2.083334,8.3334 -12.500001,8.3334 -10.416666,0 -12.5,-8.3334 -12.5,-8.3334 z"
       id="path6342"
       style="color:#000000;fill:#000000;fill-opacity:1;fill-rule:nonzero;stroke:none;stroke-width:0.055;marker:none;visibility:visible;display:inline;overflow:visible;enable-background:accumulate" />
  </g>
</svg>
