<?xml version="1.0" encoding="UTF-8" standalone="no"?>
<!-- Created with Inkscape (http://www.inkscape.org/) -->

<svg
   xmlns:dc="http://purl.org/dc/elements/1.1/"
   xmlns:cc="http://creativecommons.org/ns#"
   xmlns:rdf="http://www.w3.org/1999/02/22-rdf-syntax-ns#"
   xmlns:svg="http://www.w3.org/2000/svg"
   xmlns="http://www.w3.org/2000/svg"
   version="1.1"
   width="100"
   height="100"
   id="svg6584">
  <defs
     id="defs6586" />
  <metadata
     id="metadata6589">
    <rdf:RDF>
      <cc:Work
         rdf:about="">
        <dc:format>image/svg+xml</dc:format>
        <dc:type
           rdf:resource="http://purl.org/dc/dcmitype/StillImage" />
        <dc:title></dc:title>
      </cc:Work>
    </rdf:RDF>
  </metadata>
  <g
     transform="translate(0,-952.362)"
     id="layer1">
    <path
       d="m 54.166512,960.69535 c -1.154167,0 -2.083334,0.92917 -2.083334,2.08333 l 0,79.16662 c 0,1.1542 0.929167,2.0834 2.083334,2.0834 1.154166,0 2.083333,-0.9292 2.083333,-2.0834 l 0,-79.16662 c 0,-1.15416 -0.929167,-2.08333 -2.083333,-2.08333 z m -22.916667,4.16666 c -4.602375,0 -8.333334,3.73083 -8.333334,8.33333 0,4.6025 3.730959,8.33333 8.333334,8.33333 4.602375,0 8.333333,-3.73083 8.333333,-8.33333 0,-4.6025 -3.730958,-8.33333 -8.333333,-8.33333 z m 43.75,0 c -4.602375,0 -8.333333,3.73083 -8.333333,8.33333 0,4.6025 3.730958,8.33333 8.333333,8.33333 4.602375,0 8.333334,-3.73083 8.333334,-8.33333 0,-4.6025 -3.730959,-8.33333 -8.333334,-8.33333 z m -50,20.83332 -10.354167,31.24997 c -0.362917,1.0958 0.931792,2.0833 2.085958,2.0833 l 6.184875,0 0,18.7501 c 0,1.1541 0.929167,2.0833 2.083334,2.0833 1.154167,0 2.083333,-0.9292 2.083333,-2.0833 l 0,-18.7501 8.333334,0 0,18.7501 c 0,1.1541 0.929166,2.0833 2.083333,2.0833 1.154167,0 2.083333,-0.9292 2.083333,-2.0833 l 0,-18.7501 6.25,0 c 1.154167,0 2.497584,-1.0063 2.083334,-2.0833 L 37.499845,985.69533 z m 43.75,0 c -2.308375,0 -4.166667,1.85833 -4.166667,4.16665 l 0,4.16667 0,6.24995 0,12.5 0,25.0001 c 0,1.1541 0.929167,2.0833 2.083334,2.0833 1.154167,0 2.083333,-0.9292 2.083333,-2.0833 l 0,-22.9168 12.5,0 0,22.9168 c 0,1.1541 0.929167,2.0833 2.083334,2.0833 1.154166,0 2.083333,-0.9292 2.083333,-2.0833 l 0,-25.0001 0,-12.5 0,-6.24995 0,-4.16667 c 0,-2.30832 -1.858292,-4.16665 -4.166667,-4.16665 z"
       id="path16479"
       style="color:#000000;fill:#000000;fill-opacity:1;fill-rule:nonzero;stroke:none;stroke-width:2;marker:none;visibility:visible;display:inline;overflow:visible;enable-background:accumulate" />
  </g>
</svg>
