<?xml version="1.0" encoding="UTF-8" standalone="no"?>
<!-- Created with Inkscape (http://www.inkscape.org/) -->

<svg
   xmlns:dc="http://purl.org/dc/elements/1.1/"
   xmlns:cc="http://creativecommons.org/ns#"
   xmlns:rdf="http://www.w3.org/1999/02/22-rdf-syntax-ns#"
   xmlns:svg="http://www.w3.org/2000/svg"
   xmlns="http://www.w3.org/2000/svg"
   version="1.1"
   width="100"
   height="100"
   id="svg6584">
  <defs
     id="defs6586" />
  <metadata
     id="metadata6589">
    <rdf:RDF>
      <cc:Work
         rdf:about="">
        <dc:format>image/svg+xml</dc:format>
        <dc:type
           rdf:resource="http://purl.org/dc/dcmitype/StillImage" />
        <dc:title></dc:title>
      </cc:Work>
    </rdf:RDF>
  </metadata>
  <g
     transform="translate(0,-952.362)"
     id="layer1">
    <path
       d="m 29.166666,971.11206 c -1.154166,0 -2.083333,0.92917 -2.083333,2.08333 0,1.15417 0.929167,2.08333 2.083333,2.08333 l 16.666667,0 -2.083333,12.49999 0,4.16667 -29.166667,8.33332 0,8.3333 29.166667,0 0,16.6666 -10.416667,4.1667 0,4.1666 33.333334,0 0,-4.1666 -10.416667,-4.1667 0,-8.2029 0,-8.4637 29.166667,0 0,-8.3333 -29.166667,-8.33332 0,-4.16667 -2.083333,-12.49999 16.666666,0 c 1.154167,0 2.083334,-0.92916 2.083334,-2.08333 0,-1.15416 -0.929167,-2.08333 -2.083334,-2.08333 z"
       id="path6154"
       style="fill:#000000;fill-opacity:1;stroke:none;display:inline" />
  </g>
</svg>
