<?xml version="1.0" encoding="UTF-8" standalone="no"?>
<!-- Created with Inkscape (http://www.inkscape.org/) -->

<svg
   xmlns:dc="http://purl.org/dc/elements/1.1/"
   xmlns:cc="http://creativecommons.org/ns#"
   xmlns:rdf="http://www.w3.org/1999/02/22-rdf-syntax-ns#"
   xmlns:svg="http://www.w3.org/2000/svg"
   xmlns="http://www.w3.org/2000/svg"
   version="1.1"
   width="100"
   height="100"
   id="svg6584">
  <defs
     id="defs6586" />
  <metadata
     id="metadata6589">
    <rdf:RDF>
      <cc:Work
         rdf:about="">
        <dc:format>image/svg+xml</dc:format>
        <dc:type
           rdf:resource="http://purl.org/dc/dcmitype/StillImage" />
        <dc:title></dc:title>
      </cc:Work>
    </rdf:RDF>
  </metadata>
  <g
     transform="translate(0,-952.362)"
     id="layer1">
    <path
       d="m 33.333333,966.94533 -18.75,16.66665 0,33.33332 c 0,2.0833 2.083333,4.1666 4.166667,4.1666 l 14.84375,0 8.072917,14.5834 c 1.157416,2.0834 2.083333,2.0834 4.166666,2.0834 l 8.333334,0 c 2.083333,0 3.00925,0 4.166666,-2.0834 l 8.072917,-14.5834 14.84375,0 c 2.083334,0 4.166667,-2.0833 4.166667,-4.1666 l 0,-33.33332 -18.75,-16.66665 -33.333334,0 z M 31.25,983.61198 l 37.5,0 0,25.00002 -37.5,0 0,-25.00002 z m 4.166666,4.16667 0,16.66665 29.166667,0 0,-16.66665 -29.166667,0 z m 2.343751,33.33325 5.989583,0 0,4.1667 4.166667,0 0,-4.1667 4.166666,0 0,4.1667 4.166667,0 0,-4.1667 5.989583,0 -2.34375,4.1667 -3.645833,0 0,4.1667 1.432292,0 -1.432292,2.6042 0,-2.6042 -4.166667,0 0,4.1667 -4.166666,0 0,-4.1667 -4.166667,0 0,2.6042 -1.432292,-2.6042 1.432292,0 0,-4.1667 -3.645833,0 -2.34375,-4.1667 z m 10.15625,8.3334 4.166666,0 0,-4.1667 -4.166666,0 0,4.1667 z"
       id="rect5769-7"
       style="color:#000000;fill:#000000;fill-opacity:1;fill-rule:nonzero;stroke:none;stroke-width:1;marker:none;visibility:visible;display:inline;overflow:visible;enable-background:accumulate" />
  </g>
</svg>
