<?xml version="1.0" encoding="UTF-8" standalone="no"?>
<!-- Created with Inkscape (http://www.inkscape.org/) -->

<svg
   xmlns:dc="http://purl.org/dc/elements/1.1/"
   xmlns:cc="http://creativecommons.org/ns#"
   xmlns:rdf="http://www.w3.org/1999/02/22-rdf-syntax-ns#"
   xmlns:svg="http://www.w3.org/2000/svg"
   xmlns="http://www.w3.org/2000/svg"
   version="1.1"
   width="100"
   height="100"
   id="svg6584">
  <defs
     id="defs6586" />
  <metadata
     id="metadata6589">
    <rdf:RDF>
      <cc:Work
         rdf:about="">
        <dc:format>image/svg+xml</dc:format>
        <dc:type
           rdf:resource="http://purl.org/dc/dcmitype/StillImage" />
        <dc:title></dc:title>
      </cc:Work>
    </rdf:RDF>
  </metadata>
  <g
     transform="translate(0,-952.362)"
     id="layer1">
    <path
       d="m 49.999999,973.19532 c -2.083334,-4.2e-4 -3.025392,0.9975 -3.645834,2.08333 l -25.911458,47.91675 -5.598959,0 c -2.444096,0 -4.427083,1.8583 -4.427083,4.1666 0,2.3083 1.982987,4.1667 4.427083,4.1667 l 8.072917,0 54.166667,0 8.072913,0 c 2.4441,0 4.42709,-1.8584 4.42709,-4.1667 0,-2.3083 -1.98299,-4.1666 -4.42709,-4.1666 l -5.598954,0 -25.911459,-47.91675 c -0.620442,-1.08583 -1.5625,-2.08375 -3.645833,-2.08333 z m 0,20.83333 14.583333,29.16675 -29.166667,0 z"
       id="path11349-0"
       style="font-size:medium;font-style:normal;font-variant:normal;font-weight:normal;font-stretch:normal;text-indent:0;text-align:start;text-decoration:none;line-height:normal;letter-spacing:normal;word-spacing:normal;text-transform:none;direction:ltr;block-progression:tb;writing-mode:lr-tb;text-anchor:start;baseline-shift:baseline;color:#000000;fill:#000000;fill-opacity:1;fill-rule:nonzero;stroke:none;stroke-width:2;marker:none;visibility:visible;display:inline;overflow:visible;enable-background:accumulate;font-family:Sans;-inkscape-font-specification:Sans" />
  </g>
</svg>
