<?xml version="1.0" encoding="UTF-8" standalone="no"?>
<!-- Created with Inkscape (http://www.inkscape.org/) -->

<svg
   xmlns:dc="http://purl.org/dc/elements/1.1/"
   xmlns:cc="http://creativecommons.org/ns#"
   xmlns:rdf="http://www.w3.org/1999/02/22-rdf-syntax-ns#"
   xmlns:svg="http://www.w3.org/2000/svg"
   xmlns="http://www.w3.org/2000/svg"
   version="1.1"
   width="100"
   height="100"
   id="svg6584">
  <defs
     id="defs6586" />
  <metadata
     id="metadata6589">
    <rdf:RDF>
      <cc:Work
         rdf:about="">
        <dc:format>image/svg+xml</dc:format>
        <dc:type
           rdf:resource="http://purl.org/dc/dcmitype/StillImage" />
        <dc:title></dc:title>
      </cc:Work>
    </rdf:RDF>
  </metadata>
  <g
     transform="translate(0,-952.362)"
     id="layer1">
    <path
       d="m 75,966.94534 -9.375,2.73458 4.557291,12.36957 8.984376,-2.60416 z m -15.104167,4.29708 -12.239583,3.51541 0.260416,0.52084 2.34375,6.38041 2.083334,5.46874 12.239583,-3.51583 z m -17.838542,5.07791 -10.807292,3.125 4.687501,12.36999 10.807291,-3.125 -2.734375,-7.03124 z m -16.40625,4.6875 -8.984375,2.60416 4.166667,12.49999 9.375,-2.73416 z m -4.817708,15.10415 0,37.50002 c 0,2.3083 1.858291,4.1667 4.166666,4.1667 l 54.166668,0 c 2.308375,0 4.166666,-1.8584 4.166666,-4.1667 l 0,-37.50002 z m 8.333333,8.33332 45.833334,0 0,12.5 -45.833334,0 z"
       id="rect7568-8-4"
       style="color:#000000;fill:#000000;fill-opacity:1;fill-rule:nonzero;stroke:none;stroke-width:2;marker:none;visibility:visible;display:inline;overflow:visible;enable-background:accumulate" />
  </g>
</svg>
