<?xml version="1.0" encoding="UTF-8" standalone="no"?>
<!-- Created with Inkscape (http://www.inkscape.org/) -->

<svg
   xmlns:dc="http://purl.org/dc/elements/1.1/"
   xmlns:cc="http://creativecommons.org/ns#"
   xmlns:rdf="http://www.w3.org/1999/02/22-rdf-syntax-ns#"
   xmlns:svg="http://www.w3.org/2000/svg"
   xmlns="http://www.w3.org/2000/svg"
   version="1.1"
   width="100"
   height="100"
   id="svg6584">
  <defs
     id="defs6586" />
  <metadata
     id="metadata6589">
    <rdf:RDF>
      <cc:Work
         rdf:about="">
        <dc:format>image/svg+xml</dc:format>
        <dc:type
           rdf:resource="http://purl.org/dc/dcmitype/StillImage" />
        <dc:title></dc:title>
      </cc:Work>
    </rdf:RDF>
  </metadata>
  <g
     transform="translate(0,-952.362)"
     id="layer1">
    <path
       d="m 14.583332,977.36199 c -2.308334,0 -4.166667,1.85833 -4.166667,4.16666 l 0,41.66665 c 0,2.3083 1.858333,4.1667 4.166667,4.1667 l 70.833333,0 c 2.30833,0 4.16667,-1.8584 4.16667,-4.1667 l 0,-41.66665 c 0,-2.30833 -1.85834,-4.16666 -4.16667,-4.16666 z m -2.083334,8.33333 74.999997,0 0,8.33332 -74.999997,0 z m 2.083334,24.99998 12.5,0 0,8.3333 -12.5,0 z m 37.500003,4.1666 29.16666,0 0,4.1667 -29.16666,0 z"
       id="rect10401"
       style="color:#000000;fill:#000000;fill-opacity:1;fill-rule:nonzero;stroke:none;stroke-width:2;marker:none;visibility:visible;display:inline;overflow:visible;enable-background:accumulate" />
  </g>
</svg>
