<?xml version="1.0" encoding="UTF-8" standalone="no"?>
<!-- Created with Inkscape (http://www.inkscape.org/) -->

<svg
   xmlns:dc="http://purl.org/dc/elements/1.1/"
   xmlns:cc="http://creativecommons.org/ns#"
   xmlns:rdf="http://www.w3.org/1999/02/22-rdf-syntax-ns#"
   xmlns:svg="http://www.w3.org/2000/svg"
   xmlns="http://www.w3.org/2000/svg"
   version="1.1"
   width="100"
   height="100"
   id="svg6584">
  <defs
     id="defs6586" />
  <metadata
     id="metadata6589">
    <rdf:RDF>
      <cc:Work
         rdf:about="">
        <dc:format>image/svg+xml</dc:format>
        <dc:type
           rdf:resource="http://purl.org/dc/dcmitype/StillImage" />
        <dc:title></dc:title>
      </cc:Work>
    </rdf:RDF>
  </metadata>
  <g
     transform="translate(0,-952.362)"
     id="layer1">
    <path
       d="m 27.083333,962.7787 c -2.308334,0 -4.166667,1.85833 -4.166667,4.16666 l 0,4.16667 0,4.16666 0,25.00001 0,37.4999 c 0,2.0834 2.083333,4.1667 4.166667,4.1667 2.083333,0 4.166667,-2.0833 4.166667,-4.1667 l 0,-42.70826 c 1.422624,-0.60375 2.808125,-1.04167 4.166667,-1.04167 8.333333,0 20.627584,10.41663 29.166667,10.41663 3.644417,0 8.85625,-1.4337 12.5,-4.1666 l 0,-29.16667 c -4.133042,3.09958 -8.319583,6.24999 -12.5,6.24999 -8.333333,0 -20.804333,-10.41666 -29.166667,-10.41666 -1.402833,0 -2.776459,0.25 -4.166667,0.52084 l 0,-0.52084 c 0,-2.30833 -1.858334,-4.16666 -4.166667,-4.16666 z"
       id="rect9498-4"
       style="color:#000000;fill:#000000;fill-opacity:1;stroke:none;stroke-width:2;marker:none;visibility:visible;display:inline;overflow:visible;enable-background:accumulate" />
  </g>
</svg>
