<?xml version="1.0" encoding="UTF-8" standalone="no"?>
<!-- Created with Inkscape (http://www.inkscape.org/) -->

<svg
   xmlns:dc="http://purl.org/dc/elements/1.1/"
   xmlns:cc="http://creativecommons.org/ns#"
   xmlns:rdf="http://www.w3.org/1999/02/22-rdf-syntax-ns#"
   xmlns:svg="http://www.w3.org/2000/svg"
   xmlns="http://www.w3.org/2000/svg"
   version="1.1"
   width="100"
   height="100"
   id="svg6584">
  <defs
     id="defs6586" />
  <metadata
     id="metadata6589">
    <rdf:RDF>
      <cc:Work
         rdf:about="">
        <dc:format>image/svg+xml</dc:format>
        <dc:type
           rdf:resource="http://purl.org/dc/dcmitype/StillImage" />
        <dc:title></dc:title>
      </cc:Work>
    </rdf:RDF>
  </metadata>
  <g
     transform="translate(0,-952.362)"
     id="layer1">
    <path
       d="m 39.583333,960.69527 c -2.308333,0 -4.166667,1.85834 -4.166667,4.16667 l -8.333333,0 c -2.308333,0 -4.166667,1.85834 -4.166667,4.16668 l 0,25.26041 -8.333333,3.9063 8.333333,16.66667 0,8.3333 13.281251,3.9063 c 0.4555,0.15 0.863208,0.2583 1.302083,0.2583 0.438875,0 0.918917,-0.1417 1.302083,-0.2583 L 50,1023.1953 l 11.197917,3.9063 c 0.429666,0.1416 0.863208,0.2583 1.302083,0.2583 0.438875,0 0.893083,-0.1333 1.302083,-0.2583 l 13.28125,-3.9063 0,-8.3333 8.333334,-16.66667 -8.333334,-3.9063 0,-25.26041 c 0,-2.30834 -1.858333,-4.16668 -4.166666,-4.16668 l -8.333334,0 c 0,-2.30833 -1.858333,-4.16667 -4.166666,-4.16667 z M 31.25,973.19529 l 37.5,0 0,17.18754 L 54.166667,983.61197 50,981.52864 45.833333,983.61197 31.25,990.38283 z m -8.333334,58.33331 c -0.443708,0 -1.009458,0.1417 -1.302083,0.2584 l -7.03125,2.3437 0,8.4638 8.333333,-2.7346 13.281251,3.9104 c 0.4555,0.15 0.863208,0.2584 1.302083,0.2584 0.438875,0 0.918917,-0.1375 1.302083,-0.2584 L 50,1039.8599 l 11.197917,3.9104 c 0.429666,0.1417 0.863208,0.2584 1.302083,0.2584 0.438875,0 0.893083,-0.1292 1.302083,-0.2584 l 13.28125,-3.9104 8.333334,2.7346 0,-8.4638 -7.03125,-2.3437 c -0.414167,-0.1375 -0.862375,-0.2584 -1.302084,-0.2584 -0.439708,0 -0.877583,0.1209 -1.302083,0.2584 L 62.5,1035.6932 51.302083,1031.787 c -0.439666,-0.1459 -0.862375,-0.2584 -1.302083,-0.2584 -0.439708,0 -0.903125,0.1334 -1.302083,0.2584 L 37.5,1035.6932 24.21875,1031.787 c -0.538209,-0.2042 -0.858375,-0.2584 -1.302084,-0.2584 z"
       id="path8421-9-1-0-1"
       style="color:#000000;fill:#000000;fill-opacity:1;fill-rule:nonzero;stroke:none;stroke-width:2;marker:none;visibility:visible;display:inline;overflow:visible;enable-background:accumulate" />
  </g>
</svg>
