<?xml version="1.0" encoding="UTF-8" standalone="no"?>
<!-- Created with Inkscape (http://www.inkscape.org/) -->

<svg
   xmlns:dc="http://purl.org/dc/elements/1.1/"
   xmlns:cc="http://creativecommons.org/ns#"
   xmlns:rdf="http://www.w3.org/1999/02/22-rdf-syntax-ns#"
   xmlns:svg="http://www.w3.org/2000/svg"
   xmlns="http://www.w3.org/2000/svg"
   xmlns:sodipodi="http://sodipodi.sourceforge.net/DTD/sodipodi-0.dtd"
   xmlns:inkscape="http://www.inkscape.org/namespaces/inkscape"
   version="1.1"
   width="100"
   height="100"
   id="svg6584"
   inkscape:version="0.48.2 r9819"
   sodipodi:docname="fuel.svg">
  <sodipodi:namedview
     pagecolor="#ffffff"
     bordercolor="#666666"
     borderopacity="1"
     objecttolerance="10"
     gridtolerance="10"
     guidetolerance="10"
     inkscape:pageopacity="0"
     inkscape:pageshadow="2"
     inkscape:window-width="964"
     inkscape:window-height="614"
     id="namedview12"
     showgrid="false"
     inkscape:zoom="2.36"
     inkscape:cx="-3.1779661"
     inkscape:cy="50"
     inkscape:window-x="0"
     inkscape:window-y="0"
     inkscape:window-maximized="0"
     inkscape:current-layer="svg6584" />
  <defs
     id="defs6586" />
  <metadata
     id="metadata6589">
    <rdf:RDF>
      <cc:Work
         rdf:about="">
        <dc:format>image/svg+xml</dc:format>
        <dc:type
           rdf:resource="http://purl.org/dc/dcmitype/StillImage" />
        <dc:title />
      </cc:Work>
    </rdf:RDF>
  </metadata>
  <path
     d="m 22.916666,12.500032 c -2.308373,0 -4.166666,1.858332 -4.166666,4.166663 l 0,66.66661 c 0,2.083331 2.083333,4.166663 4.166666,4.166663 l 37.500001,0 c 2.083333,0 4.166666,-2.083332 4.166666,-4.166663 l 0,-20.833316 2.083334,0 c 2.083333,0 2.083333,2.083332 2.083333,2.083332 l 0,8.333326 c 0,4.166663 2.083333,6.249995 6.25,6.249995 4.166667,0 6.25,-2.083332 6.25,-6.249995 0,-4.861246 0,-18.749984 0,-22.916647 0,-4.166663 -8.333333,-8.333326 -8.333333,-12.499989 l 0,-12.49999 -4.166667,0 -4.166667,-4.166663 0,-4.166663 c 0,-2.308331 -1.858291,-4.166663 -4.166666,-4.166663 z m 4.166667,8.333326 29.166667,0 0,16.666653 -29.166667,0 z m 37.5,12.49999 4.166667,0 c 0,0 0,3.47208 0,6.249994 0,4.166663 8.333334,8.333326 8.333334,12.49999 l 0,20.833315 C 77.083334,74.999979 75,74.999979 75,74.999979 c 0,0 -2.083333,0 -2.083333,-2.083332 0,0 0,-8.333326 0,-10.416658 0,-2.083331 -2.083334,-4.166663 -4.166667,-4.166663 -1.388887,0 -4.166667,0 -4.166667,0 z"
     id="rect7223-2-4-9"
     style="color:#000000;fill:#000000;fill-opacity:1;fill-rule:nonzero;stroke:none;stroke-width:2;marker:none;visibility:visible;display:inline;overflow:visible;enable-background:accumulate"
     inkscape:connector-curvature="0" />
</svg>
