<?xml version="1.0" encoding="UTF-8" standalone="no"?>
<!-- Created with Inkscape (http://www.inkscape.org/) -->

<svg
   xmlns:dc="http://purl.org/dc/elements/1.1/"
   xmlns:cc="http://creativecommons.org/ns#"
   xmlns:rdf="http://www.w3.org/1999/02/22-rdf-syntax-ns#"
   xmlns:svg="http://www.w3.org/2000/svg"
   xmlns="http://www.w3.org/2000/svg"
   version="1.1"
   width="100"
   height="100"
   id="svg6584">
  <defs
     id="defs6586" />
  <metadata
     id="metadata6589">
    <rdf:RDF>
      <cc:Work
         rdf:about="">
        <dc:format>image/svg+xml</dc:format>
        <dc:type
           rdf:resource="http://purl.org/dc/dcmitype/StillImage" />
        <dc:title></dc:title>
      </cc:Work>
    </rdf:RDF>
  </metadata>
  <g
     transform="translate(0,-952.362)"
     id="layer1">
    <path
       d="m 43.75,971.11206 c -2.308333,0 -4.166667,1.85833 -4.166667,4.16666 l 0,16.66666 -16.666666,0 c -2.308334,0 -4.166667,1.85833 -4.166667,4.16666 l 0,12.49996 c 0,2.3084 1.858333,4.1667 4.166667,4.1667 l 16.666666,0 0,16.6666 c 0,2.3083 1.858334,4.1666 4.166667,4.1666 l 12.5,0 c 2.308334,0 4.166667,-1.8583 4.166667,-4.1666 l 0,-16.6666 16.666667,0 c 2.308333,0 4.166666,-1.8583 4.166666,-4.1667 l 0,-12.49996 c 0,-2.30833 -1.858333,-4.16666 -4.166666,-4.16666 l -16.666667,0 0,-16.66666 c 0,-2.30833 -1.858333,-4.16666 -4.166667,-4.16666 z"
       id="rect8206-4"
       style="color:#000000;fill:#000000;fill-opacity:1;stroke:none;stroke-width:2;marker:none;visibility:visible;display:inline;overflow:visible;enable-background:accumulate" />
  </g>
</svg>
