<?xml version="1.0" encoding="UTF-8" standalone="no"?>
<!-- Created with Inkscape (http://www.inkscape.org/) -->

<svg
   xmlns:dc="http://purl.org/dc/elements/1.1/"
   xmlns:cc="http://creativecommons.org/ns#"
   xmlns:rdf="http://www.w3.org/1999/02/22-rdf-syntax-ns#"
   xmlns:svg="http://www.w3.org/2000/svg"
   xmlns="http://www.w3.org/2000/svg"
   version="1.1"
   width="100"
   height="100"
   id="svg6584">
  <defs
     id="defs6586" />
  <metadata
     id="metadata6589">
    <rdf:RDF>
      <cc:Work
         rdf:about="">
        <dc:format>image/svg+xml</dc:format>
        <dc:type
           rdf:resource="http://purl.org/dc/dcmitype/StillImage" />
        <dc:title></dc:title>
      </cc:Work>
    </rdf:RDF>
  </metadata>
  <g
     transform="translate(0,-952.362)"
     id="layer1">
    <path
       d="m 64.583323,975.27872 c 0,5.55542 0,16.66665 0,16.66665 l -12.499992,0 0,-12.49999 -16.666655,12.49999 0,-12.49999 -16.666654,12.49999 c -1.846706,1.385 -4.166664,2.08333 -4.166664,6.24999 l 0,31.24984 c 0,2.3084 1.85829,4.1667 4.166664,4.1667 l 62.499955,0 c 2.308374,0 4.166664,-1.8583 4.166664,-4.1667 l 0,-33.33317 c 0,-2.30833 -1.85829,-4.16666 -4.166664,-4.16666 l -8.333326,0 c 0,0 0,-11.11123 0,-16.66664 0,-2.08333 -2.2025,-4.16666 -4.166664,-4.16666 -1.964166,0 -4.166664,2.08333 -4.166664,4.16666 z"
       id="path9151"
       style="color:#000000;fill:#000000;fill-opacity:1;fill-rule:nonzero;stroke:none;stroke-width:2;marker:none;visibility:visible;display:inline;overflow:visible;enable-background:accumulate" />
  </g>
</svg>
