<?xml version="1.0" encoding="UTF-8" standalone="no"?>
<!-- Created with Inkscape (http://www.inkscape.org/) -->

<svg
   xmlns:dc="http://purl.org/dc/elements/1.1/"
   xmlns:cc="http://creativecommons.org/ns#"
   xmlns:rdf="http://www.w3.org/1999/02/22-rdf-syntax-ns#"
   xmlns:svg="http://www.w3.org/2000/svg"
   xmlns="http://www.w3.org/2000/svg"
   version="1.1"
   width="100"
   height="100"
   id="svg6584">
  <defs
     id="defs6586" />
  <metadata
     id="metadata6589">
    <rdf:RDF>
      <cc:Work
         rdf:about="">
        <dc:format>image/svg+xml</dc:format>
        <dc:type
           rdf:resource="http://purl.org/dc/dcmitype/StillImage" />
        <dc:title></dc:title>
      </cc:Work>
    </rdf:RDF>
  </metadata>
  <g
     transform="translate(0,-952.362)"
     id="layer1">
    <path
       d="m 49.999999,962.7787 c 0,0 -10.793917,8.35041 -10.416667,12.49999 l 0,45.83331 -8.333333,0 c -2.308375,0 -4.166667,1.8583 -4.166667,4.1666 l 0,8.3334 -4.166666,0 c -2.308292,0 -4.166667,1.8583 -4.166667,4.1666 l 0,4.1667 62.500001,0 0,-4.1667 c 0,-2.3083 -1.858376,-4.1666 -4.166667,-4.1666 l -4.166667,0 0,-8.3334 c 0,-2.3083 -1.858292,-4.1666 -4.166667,-4.1666 l -8.333333,0 0,-45.83331 c 0,-4.16666 -10.416667,-12.49999 -10.416667,-12.49999 z"
       id="path11719"
       style="color:#000000;fill:#000000;fill-opacity:1;stroke:none;stroke-width:3;marker:none;visibility:visible;display:inline;overflow:visible;enable-background:accumulate" />
  </g>
</svg>
