<?xml version="1.0" encoding="UTF-8" standalone="no"?>
<!-- Created with Inkscape (http://www.inkscape.org/) -->

<svg
   xmlns:dc="http://purl.org/dc/elements/1.1/"
   xmlns:cc="http://creativecommons.org/ns#"
   xmlns:rdf="http://www.w3.org/1999/02/22-rdf-syntax-ns#"
   xmlns:svg="http://www.w3.org/2000/svg"
   xmlns="http://www.w3.org/2000/svg"
   xmlns:sodipodi="http://sodipodi.sourceforge.net/DTD/sodipodi-0.dtd"
   xmlns:inkscape="http://www.inkscape.org/namespaces/inkscape"
   version="1.1"
   width="100"
   height="100"
   id="svg6584"
   inkscape:version="0.48.2 r9819"
   sodipodi:docname="religious-islam.svg">
  <sodipodi:namedview
     pagecolor="#ffffff"
     bordercolor="#666666"
     borderopacity="1"
     objecttolerance="10"
     gridtolerance="10"
     guidetolerance="10"
     inkscape:pageopacity="0"
     inkscape:pageshadow="2"
     inkscape:window-width="850"
     inkscape:window-height="561"
     id="namedview10"
     showgrid="false"
     inkscape:zoom="2.36"
     inkscape:cx="-3.1779661"
     inkscape:cy="50"
     inkscape:window-x="0"
     inkscape:window-y="0"
     inkscape:window-maximized="0"
     inkscape:current-layer="svg6584" />
  <defs
     id="defs6586" />
  <metadata
     id="metadata6589">
    <rdf:RDF>
      <cc:Work
         rdf:about="">
        <dc:format>image/svg+xml</dc:format>
        <dc:type
           rdf:resource="http://purl.org/dc/dcmitype/StillImage" />
        <dc:title />
      </cc:Work>
    </rdf:RDF>
  </metadata>
  <path
     inkscape:connector-curvature="0"
     style="color:#000000;fill:#000000;fill-opacity:1;fill-rule:nonzero;stroke:none;stroke-width:2;marker:none;visibility:visible;display:inline;overflow:visible;enable-background:accumulate"
     id="path7552-2"
     d="M 47.916666,14.583363 C 28.356583,14.583363 12.5,30.440016 12.5,49.999999 c 0,19.559984 15.856583,35.416637 35.416666,35.416637 10.936517,0 20.716879,-4.970412 27.213542,-12.760406 -4.244996,2.763331 -9.27085,4.42708 -14.713542,4.42708 -14.957713,0 -27.083333,-12.125407 -27.083333,-27.08331 0,-14.957904 12.12562,-27.083311 27.083333,-27.083311 5.442692,0 10.468546,1.663749 14.713542,4.42708 C 68.633545,19.553775 58.853183,14.583363 47.916666,14.583363 z M 68.75,31.250015 l -4.166667,12.49999 -14.583334,0 L 62.5,52.083331 56.25,66.666652 68.75,58.333326 81.25,66.666652 75,52.083331 l 12.5,-8.333326 -14.583334,0 -4.166667,-12.49999 z" />
</svg>
