<?xml version="1.0" encoding="UTF-8" standalone="no"?>
<!-- Created with Inkscape (http://www.inkscape.org/) -->

<svg
   xmlns:dc="http://purl.org/dc/elements/1.1/"
   xmlns:cc="http://creativecommons.org/ns#"
   xmlns:rdf="http://www.w3.org/1999/02/22-rdf-syntax-ns#"
   xmlns:svg="http://www.w3.org/2000/svg"
   xmlns="http://www.w3.org/2000/svg"
   xmlns:sodipodi="http://sodipodi.sourceforge.net/DTD/sodipodi-0.dtd"
   xmlns:inkscape="http://www.inkscape.org/namespaces/inkscape"
   version="1.1"
   width="100"
   height="100"
   id="svg6584"
   inkscape:version="0.48.2 r9819"
   sodipodi:docname="religious-christian.svg">
  <sodipodi:namedview
     pagecolor="#ffffff"
     bordercolor="#666666"
     borderopacity="1"
     objecttolerance="10"
     gridtolerance="10"
     guidetolerance="10"
     inkscape:pageopacity="0"
     inkscape:pageshadow="2"
     inkscape:window-width="1032"
     inkscape:window-height="655"
     id="namedview10"
     showgrid="false"
     inkscape:zoom="2.36"
     inkscape:cx="-3.1779661"
     inkscape:cy="50"
     inkscape:window-x="0"
     inkscape:window-y="0"
     inkscape:window-maximized="0"
     inkscape:current-layer="svg6584" />
  <defs
     id="defs6586" />
  <metadata
     id="metadata6589">
    <rdf:RDF>
      <cc:Work
         rdf:about="">
        <dc:format>image/svg+xml</dc:format>
        <dc:type
           rdf:resource="http://purl.org/dc/dcmitype/StillImage" />
        <dc:title />
      </cc:Work>
    </rdf:RDF>
  </metadata>
  <path
     inkscape:connector-curvature="0"
     style="color:#000000;fill:#000000;fill-opacity:1;fill-rule:nonzero;stroke:none;stroke-width:2;marker:none;visibility:visible;display:inline;overflow:visible;enable-background:accumulate"
     id="rect7432-3"
     d="m 50,12.499999 c -3.4625,0 -6.25,2.7875 -6.25,6.25 l 0,14.583334 -14.583333,0 c -3.462918,-4.17e-4 -6.249875,2.7875 -6.25,6.25 -4.58e-4,3.462083 2.787124,6.249583 6.25,6.25 l 14.583333,0 0,35.416667 c -8.76e-4,3.462083 2.787416,6.25 6.25,6.25 3.462041,8.33e-4 6.249583,-2.786667 6.25,-6.25 l 0,-35.416667 14.583333,0 c 3.462875,-4.17e-4 6.250458,-2.787917 6.25,-6.25 -1.25e-4,-3.4625 -2.787083,-6.250417 -6.25,-6.25 l -14.583333,0 0,-14.583334 c 0,-3.4625 -2.7875,-6.25 -6.25,-6.25 z" />
</svg>
