<?xml version="1.0" encoding="UTF-8" standalone="no"?>
<!-- Created with Inkscape (http://www.inkscape.org/) -->

<svg
   xmlns:dc="http://purl.org/dc/elements/1.1/"
   xmlns:cc="http://creativecommons.org/ns#"
   xmlns:rdf="http://www.w3.org/1999/02/22-rdf-syntax-ns#"
   xmlns:svg="http://www.w3.org/2000/svg"
   xmlns="http://www.w3.org/2000/svg"
   xmlns:sodipodi="http://sodipodi.sourceforge.net/DTD/sodipodi-0.dtd"
   xmlns:inkscape="http://www.inkscape.org/namespaces/inkscape"
   width="100"
   height="100"
   id="svg6584"
   version="1.1"
   inkscape:version="0.48.2 r9819"
   sodipodi:docname="base.svg">
  <defs
     id="defs6586" />
  <sodipodi:namedview
     id="base"
     pagecolor="#ffffff"
     bordercolor="#666666"
     borderopacity="1.0"
     inkscape:pageopacity="0.0"
     inkscape:pageshadow="2"
     inkscape:zoom="0.7"
     inkscape:cx="-94.613276"
     inkscape:cy="111.83042"
     inkscape:document-units="px"
     inkscape:current-layer="layer1"
     showgrid="true"
     inkscape:snap-nodes="false"
     inkscape:snap-bbox="true"
     inkscape:window-width="952"
     inkscape:window-height="848"
     inkscape:window-x="80"
     inkscape:window-y="68"
     inkscape:window-maximized="0">
    <inkscape:grid
       type="xygrid"
       id="grid6592"
       empspacing="5"
       visible="true"
       enabled="true"
       snapvisiblegridlinesonly="true" />
  </sodipodi:namedview>
  <metadata
     id="metadata6589">
    <rdf:RDF>
      <cc:Work
         rdf:about="">
        <dc:format>image/svg+xml</dc:format>
        <dc:type
           rdf:resource="http://purl.org/dc/dcmitype/StillImage" />
        <dc:title></dc:title>
      </cc:Work>
    </rdf:RDF>
  </metadata>
  <g
     inkscape:label="Layer 1"
     inkscape:groupmode="layer"
     id="layer1"
     transform="translate(0,-952.362)">
    <path
       id="rect6848-8"
       d="m 59.374999,964.86188 c -4.039583,0 -7.291666,3.25208 -7.291666,7.29166 0,4.03958 3.252083,7.29166 7.291666,7.29166 4.039584,0 7.291667,-3.25208 7.291667,-7.29166 0,-4.03958 -3.252083,-7.29166 -7.291667,-7.29166 z m -33.333333,8.33333 c -4.039584,0 -7.291667,3.25208 -7.291667,7.29166 0,4.03958 3.252083,7.29166 7.291667,7.29166 4.039583,0 7.291667,-3.25208 7.291667,-7.29166 0,-4.03958 -3.252084,-7.29166 -7.291667,-7.29166 z m 38.541667,8.33332 c -1.552825,0 -4.110034,0.56042 -6.25,2.08333 l -13.541667,9.63541 c -3.674183,2.61458 -0.302833,7.21583 3.125,4.94792 l 8.854167,-5.85937 c 0,0 5.837679,12.51768 3.645833,18.35938 -0.07321,0.1951 -0.135458,0.3722 -0.130208,0.5208 l -9.114584,24.2188 c -1.045587,2.788 0.965775,4.4548 2.994792,4.427 1.3305,-0.018 2.603246,-0.8043 3.255208,-2.3437 L 68.75,1010.6952 c 0,0 2.083333,12.4992 10.416667,12.5 5.007709,4e-4 8.680554,0 11.458334,0 3.125,0 3.125,-3.125 3.125,-3.125 0,0 0,-3.125 -3.125,-3.125 -2.083334,0 -7.291667,-8e-4 -9.375,0 -4.446613,0 -4.166667,-6.6771 -4.166667,-10.4167 0,-6.2508 -4.166667,-16.66664 -4.166667,-16.66664 l 12.5,8.33333 c 3.776641,2.51791 7.048009,-1.94042 3.385417,-4.6875 l -13.802083,-9.89583 c -2.51468,-1.79124 -3.320096,-2.08291 -6.25,-2.08333 0,0 -2.083334,0 -4.166667,0 z m -43.750001,8.33333 c -2.083333,0 -3.06865,0.98541 -4.166666,2.08333 l -8.8541665,8.85411 c -1.14,1.14 -1.5625,2.1605 -1.5625,3.6459 0,2.0833 3.1846959,3.065 4.9479165,1.3021 l 7.552083,-7.55211 c 4.166667,0 5.729167,10.41661 4.166667,14.58331 l -6.25,16.6667 c -1.731088,4.6162 4.767766,6.0358 6.25,2.0833 l 6.25,-16.6666 c 0,0 2.083333,4.1666 6.25,4.1666 l 12.5,0 c 4.166667,0 4.166667,-6.25 0,-6.25 l -10.416667,0 c -2.083333,0 -2.083333,-4.1667 -2.083333,-6.25 0,-8.33331 -4.166667,-16.66664 -8.333333,-16.66664 z"
       style="color:#000000;fill:#000000;fill-opacity:1;fill-rule:nonzero;stroke:none;stroke-width:2;marker:none;visibility:visible;display:inline;overflow:visible;enable-background:accumulate"
       inkscape:connector-curvature="0"
       sodipodi:nodetypes="ssssssssssscccccccscccscscscccccsscssccssscsssssss" />
  </g>
</svg>
