<?xml version="1.0" encoding="UTF-8" standalone="no"?>
<!-- Created with Inkscape (http://www.inkscape.org/) -->

<svg
   xmlns:dc="http://purl.org/dc/elements/1.1/"
   xmlns:cc="http://creativecommons.org/ns#"
   xmlns:rdf="http://www.w3.org/1999/02/22-rdf-syntax-ns#"
   xmlns:svg="http://www.w3.org/2000/svg"
   xmlns="http://www.w3.org/2000/svg"
   version="1.1"
   width="100"
   height="100"
   id="svg6584">
  <defs
     id="defs6586" />
  <metadata
     id="metadata6589">
    <rdf:RDF>
      <cc:Work
         rdf:about="">
        <dc:format>image/svg+xml</dc:format>
        <dc:type
           rdf:resource="http://purl.org/dc/dcmitype/StillImage" />
        <dc:title></dc:title>
      </cc:Work>
    </rdf:RDF>
  </metadata>
  <g
     transform="translate(0,-952.362)"
     id="layer1">
    <path
       d="m 47.916668,969.0283 c -4.166666,0 -8.333333,2.08333 -8.333333,8.33333 0,2.23624 0.182042,2.61749 0.651042,4.55749 l 2.864583,11.84874 -15.494792,9.50544 -14.0625,-8.20336 c -0.467991,-0.27499 -1.078176,-0.28333 -1.822916,-0.12916 -0.744742,0.15416 -1.303628,1.03625 -1.302084,1.95291 0.0015,0.91667 0.401463,1.4475 1.041667,1.82292 l 60.416667,35.41659 c 1.898213,1.0959 3.610767,1.5371 5.208333,1.5625 1.1176,0 2.215759,-0.1458 3.125,-0.5208 2.208967,-0.9079 3.591096,-2.5492 4.557292,-3.5154 0.484108,-0.4846 0.651042,-1.0754 0.651042,-1.6929 0,-0.8813 -0.536546,-1.8175 -1.692709,-1.9529 -0.74607,-0.087 -1.352004,0.1833 -1.822916,0.7812 -0.9781,1.24 -2.199025,2.17 -3.255209,2.6042 -1.056183,0.4341 -2.224229,0.5104 -4.6875,-0.9117 l -38.671875,-22.6562 14.973959,-8.72376 c 1.386358,-0.95 2.091725,-2.795 1.692708,-4.42708 l -1.692708,-6.90124 14.89832,8.76999 2.810013,10.71129 c 0.32125,1.1991 1.207921,2.2333 2.34375,2.7345 l 9.505208,4.1667 c 6.692,2.9333 7.645621,-3.4412 3.385417,-5.2875 l -7.8125,-3.3854 -6.640625,-26.03958 -12.760417,-7.29166 c -3.276133,-1.89124 -5.989583,-3.12499 -8.072917,-3.12499 z m 33.333334,8.33333 c -4.602375,0 -8.333333,3.73083 -8.333333,8.33332 0,4.6025 3.730958,8.33333 8.333333,8.33333 4.602375,0 8.333333,-3.73083 8.333333,-8.33333 0,-4.60249 -3.730958,-8.33332 -8.333333,-8.33332 z"
       id="rect10364"
       style="color:#000000;fill:#000000;fill-opacity:1;fill-rule:nonzero;stroke:none;stroke-width:2;marker:none;visibility:visible;display:inline;overflow:visible;enable-background:accumulate" />
  </g>
</svg>
