<?xml version="1.0" encoding="UTF-8" standalone="no"?>
<!-- Created with Inkscape (http://www.inkscape.org/) -->

<svg
   xmlns:dc="http://purl.org/dc/elements/1.1/"
   xmlns:cc="http://creativecommons.org/ns#"
   xmlns:rdf="http://www.w3.org/1999/02/22-rdf-syntax-ns#"
   xmlns:svg="http://www.w3.org/2000/svg"
   xmlns="http://www.w3.org/2000/svg"
   version="1.1"
   width="100"
   height="100"
   id="svg6584">
  <defs
     id="defs6586" />
  <metadata
     id="metadata6589">
    <rdf:RDF>
      <cc:Work
         rdf:about="">
        <dc:format>image/svg+xml</dc:format>
        <dc:type
           rdf:resource="http://purl.org/dc/dcmitype/StillImage" />
        <dc:title></dc:title>
      </cc:Work>
    </rdf:RDF>
  </metadata>
  <g
     transform="translate(0,-952.362)"
     id="layer1">
    <path
       d="m 50,966.94535 c -19.5135,0 -35.416667,15.90332 -35.416667,35.41665 0,19.5134 15.903167,35.4167 35.416667,35.4167 19.5135,0 35.416667,-15.9033 35.416667,-35.4167 C 85.416667,982.84867 69.5135,966.94535 50,966.94535 z m 0,6.24999 c 11.108375,0 20.72325,6.14083 25.651042,15.23458 -4.65,3.08499 -8.924125,4.69707 -8.984375,7.68207 -0.04208,2.08292 0,2.67167 0,4.16671 0,2.0833 1.085375,4.7641 4.166666,6.25 l 7.291667,3.5158 c -0.83475,3.0866 -2.176625,5.8775 -3.90625,8.4634 L 68.75,1014.862 c -3.125,-2.0834 -6.25,-3.4721 -8.333333,-2.0834 l -6.25,4.1668 c -2.889084,1.9262 -2.587375,4.1666 -2.083334,6.25 l 1.953125,8.0729 c -1.321833,0.1833 -2.663041,0.2583 -4.036458,0.2583 -2.888708,0 -5.70225,-0.3958 -8.333333,-1.1717 l 0,-7.1616 c 0,-4.1667 -2.083334,-6.25 -4.166667,-8.3334 -2.083333,-2.0833 -4.166667,-4.1667 -8.333334,-4.1667 l -7.161458,0 c -0.77525,-2.6291 -1.171875,-5.4425 -1.171875,-8.3312 0,-16.1575 13.009,-29.16666 29.166667,-29.16666 z m -12.5,14.58333 -2.083333,8.33332 c -0.591206,2.365 -2.166792,4.80541 0,6.25001 l 6.25,4.1667 c 4.166666,2.7779 6.004083,1.1645 8.333333,0 l 4.166667,-2.0834 c 3.105666,-1.5529 4.166666,-2.0833 4.166666,-6.24998 l 0,-8.33332 c 0,-2.08333 0.03417,-3.32667 -4.166666,-4.16667 L 43.75,983.612 c -4.363583,-0.87291 -5.184771,-0.0958 -6.25,4.16667 z"
       id="path10911-4-1-7-6-7"
       style="color:#000000;fill:#000000;fill-opacity:1;fill-rule:nonzero;stroke:none;stroke-width:2;marker:none;visibility:visible;display:inline;overflow:visible;enable-background:accumulate" />
  </g>
</svg>
