<?xml version="1.0" encoding="UTF-8" standalone="no"?>
<!-- Created with Inkscape (http://www.inkscape.org/) -->

<svg
   xmlns:dc="http://purl.org/dc/elements/1.1/"
   xmlns:cc="http://creativecommons.org/ns#"
   xmlns:rdf="http://www.w3.org/1999/02/22-rdf-syntax-ns#"
   xmlns:svg="http://www.w3.org/2000/svg"
   xmlns="http://www.w3.org/2000/svg"
   version="1.1"
   width="100"
   height="100"
   id="svg6584">
  <defs
     id="defs6586" />
  <metadata
     id="metadata6589">
    <rdf:RDF>
      <cc:Work
         rdf:about="">
        <dc:format>image/svg+xml</dc:format>
        <dc:type
           rdf:resource="http://purl.org/dc/dcmitype/StillImage" />
        <dc:title></dc:title>
      </cc:Work>
    </rdf:RDF>
  </metadata>
  <g
     transform="translate(0,-952.362)"
     id="layer1">
    <path
       d="m 60.9375,975.27977 c -0.659042,0 -1.807708,0.3875 -2.34375,0.65125 l -16.666667,8.07291 c -2.218416,1.05042 -3.025583,4.27916 -1.5625,6.24999 l 5.078125,6.90083 -18.619792,14.45325 8.59375,2.7342 11.197917,-3.6458 c 0.399167,-0.1334 0.862375,-0.2584 1.302084,-0.2584 0.439708,0 0.862416,0.1167 1.302083,0.2584 l 11.197917,3.6458 5.859375,-1.9529 -16.015625,-23.17704 12.630208,-6.38041 c 2.50825,-1.25417 2.343292,-3.405 2.083333,-4.6875 -0.24625,-1.21583 -1.745958,-2.86458 -4.036458,-2.86458 z m 7.8125,12.49999 c -4.602375,0 -8.333333,3.73083 -8.333333,8.33333 0,4.60251 3.730958,8.33331 8.333333,8.33331 4.602375,0 8.333333,-3.7308 8.333333,-8.33331 0,-4.6025 -3.730958,-8.33333 -8.333333,-8.33333 z m -45.833334,29.16664 c -0.443708,0 -1.009458,0.1416 -1.302083,0.2583 l -7.03125,2.3438 0,8.5937 8.333333,-2.8646 11.197917,3.9062 c 0.4555,0.15 0.863208,0.2584 1.302083,0.2584 0.438876,0 0.918917,-0.1375 1.302084,-0.2584 l 11.197917,-3.9062 11.197916,3.9062 c 0.429667,0.1417 0.863209,0.2584 1.302084,0.2584 0.438875,0 0.893083,-0.1292 1.302083,-0.2584 l 11.197917,-3.9062 12.5,4.1666 0,-8.5937 -11.197917,-3.6458 c -0.414167,-0.1375 -0.862375,-0.2583 -1.302083,-0.2583 -0.439709,0 -0.877584,0.1208 -1.302084,0.2583 l -11.197916,3.6458 -11.197917,-3.6458 c -0.439667,-0.1458 -0.862375,-0.2583 -1.302083,-0.2583 -0.439709,0 -0.903125,0.1333 -1.302084,0.2583 l -11.197917,3.6458 -11.197916,-3.6458 c -0.538209,-0.2042 -0.858375,-0.2583 -1.302084,-0.2583 z"
       id="path8421-9-1-0"
       style="color:#000000;fill:#000000;fill-opacity:1;fill-rule:nonzero;stroke:none;stroke-width:2;marker:none;visibility:visible;display:inline;overflow:visible;enable-background:accumulate" />
  </g>
</svg>
