<?xml version="1.0" encoding="UTF-8" standalone="no"?>
<!-- Created with Inkscape (http://www.inkscape.org/) -->

<svg
   xmlns:dc="http://purl.org/dc/elements/1.1/"
   xmlns:cc="http://creativecommons.org/ns#"
   xmlns:rdf="http://www.w3.org/1999/02/22-rdf-syntax-ns#"
   xmlns:svg="http://www.w3.org/2000/svg"
   xmlns="http://www.w3.org/2000/svg"
   version="1.1"
   width="100"
   height="100"
   id="svg6584">
  <defs
     id="defs6586" />
  <metadata
     id="metadata6589">
    <rdf:RDF>
      <cc:Work
         rdf:about="">
        <dc:format>image/svg+xml</dc:format>
        <dc:type
           rdf:resource="http://purl.org/dc/dcmitype/StillImage" />
        <dc:title></dc:title>
      </cc:Work>
    </rdf:RDF>
  </metadata>
  <g
     transform="translate(0,-952.362)"
     id="layer1">
    <path
       d="m 49.999995,964.86205 -31.249997,20.83332 62.499997,0 z m -27.08333,24.99998 c -2.308375,0 -4.166667,1.85833 -4.166667,4.16666 l 0,29.16671 -7.291666,12.5 c -0.618084,1.0596 -1.041667,1.4862 -1.041667,2.0833 0,2.0833 2.631875,2.0833 4.166667,2.0833 l 70.833333,0 c 1.47913,0 4.16667,0 4.16667,-2.0833 0,-0.6092 -0.36084,-0.9162 -1.04167,-2.0833 l -7.29167,-12.5 0,-29.16671 c 0,-2.30833 -1.85829,-4.16666 -4.16666,-4.16666 z m 8.333333,8.33333 c 2.308334,0 3.787167,1.88954 4.166667,4.16664 l 0,25 -8.333333,0 0,-8.3333 0,-16.6667 c 0,-2.3083 1.858333,-4.16664 4.166666,-4.16664 z m 18.749997,0 c 2.30834,0 4.20275,1.85874 4.16667,4.16664 l 0,16.6667 0,8.3333 -8.33333,0 0,-8.3333 0,-16.6667 c 0,-2.3083 1.85833,-4.16664 4.16666,-4.16664 z m 18.75,0 c 2.30834,0 4.16667,1.85834 4.16667,4.16664 l 0,25 -8.33333,0 0,-8.3333 0,-16.6667 c 0,-2.3083 1.85833,-4.16664 4.16666,-4.16664 z"
       id="rect7645-6"
       style="color:#000000;fill:#000000;fill-opacity:1;fill-rule:nonzero;stroke:none;stroke-width:1;marker:none;visibility:visible;display:inline;overflow:visible;enable-background:accumulate" />
  </g>
</svg>
