<?xml version="1.0" encoding="UTF-8" standalone="no"?>
<!-- Created with Inkscape (http://www.inkscape.org/) -->

<svg
   xmlns:dc="http://purl.org/dc/elements/1.1/"
   xmlns:cc="http://creativecommons.org/ns#"
   xmlns:rdf="http://www.w3.org/1999/02/22-rdf-syntax-ns#"
   xmlns:svg="http://www.w3.org/2000/svg"
   xmlns="http://www.w3.org/2000/svg"
   version="1.1"
   width="100"
   height="100"
   id="svg6584">
  <defs
     id="defs6586" />
  <metadata
     id="metadata6589">
    <rdf:RDF>
      <cc:Work
         rdf:about="">
        <dc:format>image/svg+xml</dc:format>
        <dc:type
           rdf:resource="http://purl.org/dc/dcmitype/StillImage" />
        <dc:title></dc:title>
      </cc:Work>
    </rdf:RDF>
  </metadata>
  <g
     transform="translate(0,-952.362)"
     id="layer1">
    <path
       d="m 41.66667,962.7787 c -1.15417,0 -2.08334,0.9292 -2.08334,2.0833 l 0,6.25 -16.66666,0 c -2.30834,0 -4.16667,1.8583 -4.16667,4.1667 0,2.3083 1.85833,4.1666 4.16667,4.1666 l 54.16666,0 c 2.30834,0 4.16667,-1.8583 4.16667,-4.1666 0,-2.3084 -1.85833,-4.1667 -4.16667,-4.1667 l -16.66666,0 0,-6.25 c 0,-1.1541 -0.92913,-2.0833 -2.08334,-2.0833 z m 2.08333,4.1666 12.5,0 0,4.1667 -12.5,0 z M 22.91667,983.612 c -2.30834,0 -4.48113,1.89 -4.10155,4.1667 l 8.26821,49.9999 c 0.37667,2.2771 1.85834,4.1667 4.16667,4.1667 l 37.5,0 c 2.30833,0 3.78708,-1.89 4.16667,-4.1667 l 8.26821,-49.9999 c 0.37666,-2.2771 -1.79321,-4.1667 -4.10155,-4.1667 z"
       id="rect5636"
       style="color:#000000;fill:#000000;fill-opacity:1;fill-rule:nonzero;stroke:none;stroke-width:2;marker:none;visibility:visible;display:inline;overflow:visible;enable-background:accumulate" />
  </g>
</svg>
