<?xml version="1.0" encoding="UTF-8" standalone="no"?>
<!-- Created with Inkscape (http://www.inkscape.org/) -->

<svg
   xmlns:dc="http://purl.org/dc/elements/1.1/"
   xmlns:cc="http://creativecommons.org/ns#"
   xmlns:rdf="http://www.w3.org/1999/02/22-rdf-syntax-ns#"
   xmlns:svg="http://www.w3.org/2000/svg"
   xmlns="http://www.w3.org/2000/svg"
   version="1.1"
   width="100"
   height="100"
   id="svg6584">
  <defs
     id="defs6586" />
  <metadata
     id="metadata6589">
    <rdf:RDF>
      <cc:Work
         rdf:about="">
        <dc:format>image/svg+xml</dc:format>
        <dc:type
           rdf:resource="http://purl.org/dc/dcmitype/StillImage" />
        <dc:title></dc:title>
      </cc:Work>
    </rdf:RDF>
  </metadata>
  <g
     transform="translate(0,-952.362)"
     id="layer1">
    <path
       d="m 45.833336,973.19536 -39.583305,22.91663 8.333327,0 0,4.16661 0,25.0001 0,4.1666 c 0,2.0834 1.858332,4.1667 4.166664,4.1667 l 12.499991,0 0,-20.8333 c 0,-2.3084 1.858291,-4.1667 4.166664,-4.1667 l 29.166646,0 c 2.308373,0 4.09458,1.8595 4.166663,4.1667 l 0,20.8333 12.499992,0 c 2.308331,0 4.166663,-1.8583 4.166663,-4.1667 l 0,-4.1666 0,-25.0001 0,-4.16661 8.333328,0 -39.583305,-22.91663 C 52.38554,972.16411 50.632666,971.11412 50,971.11203 c -0.63275,-0.002 -2.358248,1.03625 -4.166664,2.08333 z m -10.416659,39.58334 0,4.1666 29.166646,0 0,-4.1666 z m 0,8.3333 0,4.1667 29.166646,0 0,-4.1667 z m 0,8.3333 0,4.1667 29.166646,0 0,-4.1667 z"
       id="path4181"
       style="color:#000000;fill:#000000;fill-opacity:1;fill-rule:nonzero;stroke:none;stroke-width:1;marker:none;visibility:visible;display:inline;overflow:visible;enable-background:accumulate" />
  </g>
</svg>
