<?xml version="1.0" encoding="UTF-8" standalone="no"?>
<!-- Generator: Adobe Illustrator 17.1.0, SVG Export Plug-In . SVG Version: 6.00 Build 0)  -->

<svg
   xmlns:dc="http://purl.org/dc/elements/1.1/"
   xmlns:cc="http://creativecommons.org/ns#"
   xmlns:rdf="http://www.w3.org/1999/02/22-rdf-syntax-ns#"
   xmlns:svg="http://www.w3.org/2000/svg"
   xmlns="http://www.w3.org/2000/svg"
   xmlns:sodipodi="http://sodipodi.sourceforge.net/DTD/sodipodi-0.dtd"
   xmlns:inkscape="http://www.inkscape.org/namespaces/inkscape"
   version="1.1"
   id="svg4619"
   inkscape:version="0.91+devel+osxmenu r12911"
   sodipodi:docname="alcohol-shop-15.svg"
   x="0px"
   y="0px"
   height='15'
   width='15'
   viewBox="0 0 15 15"
   enable-background="new 0 0 15 15"
   xml:space="preserve"><metadata
     id="metadata14"><rdf:RDF><cc:Work
         rdf:about=""><dc:format>image/svg+xml</dc:format><dc:type
           rdf:resource="http://purl.org/dc/dcmitype/StillImage" /><dc:title /></cc:Work></rdf:RDF></metadata><defs
     id="defs12" /><sodipodi:namedview
     inkscape:snap-bbox="true"
     inkscape:bbox-paths="true"
     inkscape:bbox-nodes="true"
     inkscape:window-x="0"
     inkscape:window-y="23"
     inkscape:window-width="1280"
     inkscape:object-paths="true"
     inkscape:pageopacity="0"
     inkscape:window-height="755"
     inkscape:current-layer="svg4619"
     inkscape:window-maximized="0"
     inkscape:document-units="px"
     inkscape:pageshadow="2"
     id="namedview3369"
     gridtolerance="10"
     borderopacity="1"
     bordercolor="#666666"
     inkscape:cx="6.7747589"
     guidetolerance="10"
     showgrid="true"
     pagecolor="#ffffff"
     inkscape:cy="8.704676"
     objecttolerance="10"
     inkscape:zoom="22.627417"
     inkscape:snap-intersection-paths="true"
     inkscape:object-nodes="true"
     inkscape:snap-smooth-nodes="true"
     inkscape:snap-bbox-edge-midpoints="true"><inkscape:grid
       type="xygrid"
       id="grid3387"
       spacingx="0.5"
       spacingy="0.5"
       empspacing="2"
       color="#e0001a"
       opacity="0.1254902" /></sodipodi:namedview><path
     style="fill:#000000;fill-opacity:1;stroke-width:1.13333344"
     d="M 4,0 C 3.723,0 3.5,0.223 3.5,0.5 L 3.5,1 C 3.223,1 3,1.223 3,1.5 3,1.777 3.223,2 3.5,2 l 0,0.5 C 3.5,3.9324328 1,5.5675674 1,7 l 0,6 c 0,1 1,1 1,1 l 5,0 c 0,0 1,-0.126765 1,-1 L 8,7 C 8,5.6494896 5.5,3.8505103 5.5,2.5 L 5.5,2 C 5.777,2 6,1.777 6,1.5 6,1.223 5.777,1 5.5,1 l 0,-0.5 C 5.5,0.223 5.277,0 5,0 Z M 9,6 9.2832031,8.4863281 C 9.4857791,9.9043648 11,10 11,10 l 0,2.5 c 0,1.000637 -1,1.25 -1,1.25 l 0,0.25 3,0 0,-0.25 c 0,0 -1,-0.244948 -1,-1.25 L 12,10 c 0,0 1.282377,-0.092731 1.582031,-1.5136719 L 14,6 Z m 1,1 3,0 -0.25,1 -2.5,0 z M 4.5,8 C 5.3284271,8 6,8.8954305 6,10 6,11.104569 5.3284271,12 4.5,12 3.6715729,12 3,11.104569 3,10 3,8.8954305 3.6715729,8 4.5,8 Z"
     id="path5715"
     inkscape:connector-curvature="0"
     sodipodi:nodetypes="ccccccccccccccccccccccsccccscccccccccsssss" /></svg>
