<?xml version="1.0" encoding="UTF-8" standalone="no"?>
<!-- Generator: Adobe Illustrator 17.1.0, SVG Export Plug-In . SVG Version: 6.00 Build 0)  -->

<svg
   xmlns:dc="http://purl.org/dc/elements/1.1/"
   xmlns:cc="http://creativecommons.org/ns#"
   xmlns:rdf="http://www.w3.org/1999/02/22-rdf-syntax-ns#"
   xmlns:svg="http://www.w3.org/2000/svg"
   xmlns="http://www.w3.org/2000/svg"
   xmlns:sodipodi="http://sodipodi.sourceforge.net/DTD/sodipodi-0.dtd"
   xmlns:inkscape="http://www.inkscape.org/namespaces/inkscape"
   version="1.1"
   id="svg4764"
   sodipodi:docname="america-football-11.svg"
   inkscape:version="0.91 r13725"
   x="0px"
   y="0px"
   height='11'
   width='11'
   viewBox="0 0 11 11"
   enable-background="new 0 0 11 11"
   xml:space="preserve"><metadata
     id="metadata9"><rdf:RDF><cc:Work
         rdf:about=""><dc:format>image/svg+xml</dc:format><dc:type
           rdf:resource="http://purl.org/dc/dcmitype/StillImage" /><dc:title /></cc:Work></rdf:RDF></metadata><defs
     id="defs7" /><sodipodi:namedview
     id="namedview3375"
     inkscape:current-layer="svg4764"
     inkscape:window-height="723"
     inkscape:pageopacity="0"
     inkscape:window-width="1016"
     inkscape:window-y="0"
     inkscape:pageshadow="2"
     inkscape:document-units="px"
     inkscape:window-maximized="0"
     inkscape:window-x="-4"
     inkscape:cx="6.6819609"
     borderopacity="1"
     objecttolerance="10"
     bordercolor="#666666"
     gridtolerance="10"
     showgrid="false"
     inkscape:cy="5.0592054"
     inkscape:zoom="1"
     guidetolerance="10"
     pagecolor="#ffffff"
     inkscape:snap-bbox="true"
     inkscape:bbox-paths="true"
     inkscape:bbox-nodes="true"
     inkscape:snap-bbox-edge-midpoints="true"
     inkscape:snap-bbox-midpoints="true"
     inkscape:object-paths="true"
     inkscape:snap-intersection-paths="true"
     inkscape:object-nodes="true"
     inkscape:snap-smooth-nodes="true"
     inkscape:snap-global="true"><inkscape:grid
       type="xygrid"
       id="grid3385"
       spacingx="0.5"
       spacingy="0.5"
       color="#fb001a"
       opacity="0.1254902"
       empspacing="2" /></sodipodi:namedview><path
     style="fill:#000000;fill-opacity:1"
     d="M 5.4999999,2.4999997 C 1.5,2.4999997 0,6 0,6 0,6 1.5,9.5000002 5.5000001,9.4999998 9.5,9.4999997 11,5.9999998 11,5.9999998 c 0,0 -1.4999999,-3.4999999 -5.5000001,-3.5000001 z m 2.5000002,4.0000001 -1,0 0,0.5000001 c 0,0.2999999 -0.2,0.5 -0.5,0.5 -0.3,-10e-8 -0.5,-0.2000001 -0.5,-0.5 l 0,-0.5000001 -1,0 0,0.5000001 c 0,0.2999999 -0.2000001,0.4999999 -0.5000001,0.5 -0.3,0 -0.5,-0.2000001 -0.5,-0.5 l 0,-0.5000001 -1,0 c -0.3,0 -0.5,-0.1999999 -0.5,-0.5 C 2.5,5.7000001 2.7,5.5000001 3,5.4999999 l 1,-10e-8 0,-0.5 c 0,-0.2999999 0.2,-0.5 0.5,-0.5 0.3,10e-8 0.5000001,0.2000001 0.5000001,0.5 l 0,0.5 1,0 0,-0.5 c 0,-0.2999999 0.2,-0.4999999 0.5,-0.5 0.3,0 0.5,0.2000001 0.5,0.5 l 0,0.5 1,10e-8 c 0.3,-10e-8 0.5,0.1999999 0.4999999,0.4999999 10e-8,0.3000001 -0.1999999,0.5 -0.4999999,0.5 z"
     id="path5"
     inkscape:connector-curvature="0"
     inkscape:export-filename="/Users/MapBox/Desktop/football-for-ants.png"
     inkscape:export-xdpi="90"
     inkscape:export-ydpi="90" /></svg>
