<?xml version="1.0" encoding="UTF-8" standalone="no"?>
<!-- Generator: Adobe Illustrator 17.1.0, SVG Export Plug-In . SVG Version: 6.00 Build 0)  -->

<svg
   xmlns:dc="http://purl.org/dc/elements/1.1/"
   xmlns:cc="http://creativecommons.org/ns#"
   xmlns:rdf="http://www.w3.org/1999/02/22-rdf-syntax-ns#"
   xmlns:svg="http://www.w3.org/2000/svg"
   xmlns="http://www.w3.org/2000/svg"
   xmlns:sodipodi="http://sodipodi.sourceforge.net/DTD/sodipodi-0.dtd"
   xmlns:inkscape="http://www.inkscape.org/namespaces/inkscape"
   version="1.1"
   id="svg4619"
   sodipodi:docname="art-gallery-15.svg"
   inkscape:version="0.91 r13725"
   x="0px"
   y="0px"
   height='15'
   width='15'
   viewBox="0 0 15 15"
   enable-background="new 0 0 15 15"
   xml:space="preserve"><metadata
     id="metadata9"><rdf:RDF><cc:Work
         rdf:about=""><dc:format>image/svg+xml</dc:format><dc:type
           rdf:resource="http://purl.org/dc/dcmitype/StillImage" /><dc:title /></cc:Work></rdf:RDF></metadata><defs
     id="defs7" /><sodipodi:namedview
     id="namedview3346"
     inkscape:current-layer="svg4619"
     inkscape:window-height="750"
     inkscape:pageopacity="0"
     inkscape:window-width="1196"
     inkscape:window-y="0"
     inkscape:pageshadow="2"
     inkscape:document-units="px"
     inkscape:window-maximized="0"
     inkscape:window-x="-2"
     inkscape:cx="9.7234113"
     borderopacity="1"
     objecttolerance="10"
     bordercolor="#666666"
     gridtolerance="10"
     showgrid="false"
     inkscape:cy="3.9251733"
     inkscape:zoom="1"
     guidetolerance="10"
     pagecolor="#ffffff"
     inkscape:object-paths="true"
     inkscape:snap-intersection-paths="true"
     inkscape:object-nodes="true"
     inkscape:snap-bbox="true"
     inkscape:bbox-paths="true"
     inkscape:bbox-nodes="true"
     inkscape:snap-bbox-edge-midpoints="true"
     inkscape:snap-bbox-midpoints="true"
     inkscape:snap-smooth-nodes="true"><inkscape:grid
       type="xygrid"
       id="grid3432"
       spacingx="0.5"
       spacingy="0.5"
       color="#ee00ff"
       opacity="0.1254902"
       empspacing="2" /></sodipodi:namedview><path
     d="M 13.24344,5.2844187 C 12.290493,4.0217024 10.982497,3.016581 9.1470588,2.548766 7.3116212,2.0809509 4.8234545,1.8962431 3.3823529,2.548766 1.9412514,3.2012887 0.5,4.3605305 0.5,5.8428836 0.5,8.3134718 4.4215592,8.2200389 3.9944233,9.8958729 3.6486472,11.252501 4.2808304,12.773404 6.1162674,13.24122 7.9517053,13.709034 9.8700592,13.518096 11.311162,12.865575 12.752262,12.213051 14.5,10.78406 14.5,9.1370012 14.5,7.5722954 14.196388,6.547135 13.24344,5.2844187 Z M 3.1509628,6.5364172 C 2.672153,6.4143784 2.4343053,6.0138128 2.5563441,5.535003 2.678383,5.0561932 3.0789485,4.8183458 3.5577584,4.9403846 4.0365682,5.0624233 4.2744159,5.4629889 4.1523771,5.9417987 4.0303382,6.4206084 3.6297727,6.6584558 3.1509628,6.5364172 Z M 5.654498,5.049871 C 5.1756881,4.9278322 4.9378413,4.5272666 5.0598801,4.0484569 5.1819181,3.5696471 5.5824845,3.3317997 6.0612935,3.4538384 6.5401034,3.575877 6.7779511,3.9764427 6.6559122,4.4552525 6.5338734,4.9340623 6.1333079,5.1719096 5.654498,5.049871 Z m 0.8685658,6.595315 C 5.8846506,11.482468 5.4684174,10.781479 5.6311353,10.143066 5.793854,9.5046528 6.4948439,9.0884195 7.1332571,9.2511383 7.7716702,9.4138562 8.1879026,10.114846 8.0251847,10.753259 7.862466,11.391673 7.1614761,11.807906 6.5230638,11.645186 Z M 8.5492541,5.3627552 C 8.0704442,5.2407165 7.8325966,4.8401508 7.9546354,4.361341 8.0766742,3.8825312 8.4772398,3.6446839 8.9560494,3.7667226 9.4348593,3.8887613 9.6727069,4.2893269 9.5506681,4.7681366 9.4286293,5.2469464 9.0280638,5.4847938 8.5492541,5.3627552 Z m 1.9950399,0.5084945 c 0.122039,-0.4788098 0.522605,-0.7166572 1.001414,-0.5946184 0.47881,0.1220386 0.716658,0.5226043 0.594619,1.0014141 C 12.018288,6.7568552 11.617723,6.9947026 11.138914,6.8726639 10.660103,6.7506252 10.422256,6.3500595 10.544294,5.8712497 Z M 11.725744,9.57181 C 11.246934,9.4497711 11.009087,9.0492052 11.131126,8.5703954 11.253164,8.0915856 11.653729,7.8537382 12.13254,7.9757768 12.611349,8.0978156 12.849197,8.4983812 12.727158,8.977191 12.60512,9.4560011 12.204554,9.693848 11.725744,9.57181 Z"
     id="path5"
     style="fill:#000000;fill-opacity:1"
     inkscape:connector-curvature="0"
     sodipodi:nodetypes="sssssssssssssssssssssssssssssssssssssss" /></svg>
