<?xml version="1.0" encoding="UTF-8" standalone="no"?>
<!-- Created with Inkscape (http://www.inkscape.org/) -->

<svg
   xmlns:dc="http://purl.org/dc/elements/1.1/"
   xmlns:cc="http://creativecommons.org/ns#"
   xmlns:rdf="http://www.w3.org/1999/02/22-rdf-syntax-ns#"
   xmlns:svg="http://www.w3.org/2000/svg"
   xmlns="http://www.w3.org/2000/svg"
   xmlns:sodipodi="http://sodipodi.sourceforge.net/DTD/sodipodi-0.dtd"
   xmlns:inkscape="http://www.inkscape.org/namespaces/inkscape"
   version="1.1"
   width="15"
   height="15"
   id="svg4619"
   inkscape:version="0.91 r13725"
   sodipodi:docname="attraction-15.svg"
   viewBox="0 0 15 15">
  <sodipodi:namedview
     pagecolor="#ffffff"
     bordercolor="#666666"
     borderopacity="1"
     objecttolerance="10"
     gridtolerance="10"
     guidetolerance="10"
     inkscape:pageopacity="0"
     inkscape:pageshadow="2"
     inkscape:window-width="1920"
     inkscape:window-height="912"
     id="namedview3418"
     inkscape:document-units="px"
     showgrid="true"
     inkscape:zoom="45.254834"
     inkscape:cx="2.7751241"
     inkscape:cy="6.8534847"
     inkscape:window-x="-6"
     inkscape:window-y="0"
     inkscape:window-maximized="0"
     inkscape:current-layer="svg4619"
     inkscape:snap-bbox="true"
     inkscape:bbox-paths="true"
     inkscape:bbox-nodes="true"
     inkscape:snap-bbox-edge-midpoints="true"
     inkscape:snap-bbox-midpoints="false"
     inkscape:object-paths="true"
     inkscape:snap-intersection-paths="true"
     inkscape:object-nodes="true"
     inkscape:snap-smooth-nodes="true"
     showguides="true"
     inkscape:guide-bbox="true"
     showborder="false"
     inkscape:showpageshadow="false"
     borderlayer="false">
    <inkscape:grid
       type="xygrid"
       id="grid3440"
       spacingx="0.44117647"
       spacingy="0.44117647"
       color="#ff001a"
       opacity="0.1254902"
       empspacing="2" />
    <sodipodi:guide
       position="0,13.235294"
       orientation="1,0"
       id="guide7786" />
    <sodipodi:guide
       position="13.235294,13.235294"
       orientation="0,1"
       id="guide7788" />
    <sodipodi:guide
       position="13.235294,0"
       orientation="1,0"
       id="guide7790" />
    <sodipodi:guide
       position="0,0"
       orientation="0,1"
       id="guide7792" />
  </sodipodi:namedview>
  <defs
     id="defs4621" />
  <metadata
     id="metadata4624">
    <rdf:RDF>
      <cc:Work
         rdf:about="">
        <dc:format>image/svg+xml</dc:format>
        <dc:type
           rdf:resource="http://purl.org/dc/dcmitype/StillImage" />
        <dc:title></dc:title>
      </cc:Work>
    </rdf:RDF>
  </metadata>
  <path
     style="color:#000000;clip-rule:nonzero;display:inline;overflow:visible;visibility:visible;opacity:1;isolation:auto;mix-blend-mode:normal;color-interpolation:sRGB;color-interpolation-filters:linearRGB;solid-color:#000000;solid-opacity:1;fill:#000000;fill-opacity:1;fill-rule:nonzero;stroke:none;stroke-width:2;stroke-linecap:butt;stroke-linejoin:miter;stroke-miterlimit:4;stroke-dasharray:none;stroke-dashoffset:0;stroke-opacity:1;marker:none;color-rendering:auto;image-rendering:auto;shape-rendering:auto;text-rendering:auto;enable-background:accumulate"
     d="M 6 2 C 5.446 2 5.2477563 2.5044873 5 3 L 4.5 4 L 2.5 4 C 1.6689999 4 1 4.6689999 1 5.5 L 1 10.5 C 1 11.331 1.6689999 12 2.5 12 L 12.5 12 C 13.331 12 14 11.331 14 10.5 L 14 5.5 C 14 4.6689999 13.331 4 12.5 4 L 10.5 4 L 10 3 C 9.75 2.5 9.5540001 2 9 2 L 6 2 z M 2.5 5 A 0.5 0.5 0 0 1 3 5.5 A 0.5 0.5 0 0 1 2.5 6 A 0.5 0.5 0 0 1 2 5.5 A 0.5 0.5 0 0 1 2.5 5 z M 7.5 5 A 3.0000001 3.0000001 0 0 1 10.5 8 A 3.0000001 3.0000001 0 0 1 7.5 11 A 3.0000001 3.0000001 0 0 1 4.5 8 A 3.0000001 3.0000001 0 0 1 7.5 5 z M 7.5 6.5 A 1.4999999 1.4999999 0 0 0 6 8 A 1.4999999 1.4999999 0 0 0 7.5 9.5 A 1.4999999 1.4999999 0 0 0 9 8 A 1.4999999 1.4999999 0 0 0 7.5 6.5 z "
     id="rect7143" />
</svg>
