<?xml version="1.0" encoding="UTF-8" standalone="no"?>
<!-- Generator: Adobe Illustrator 17.1.0, SVG Export Plug-In . SVG Version: 6.00 Build 0)  -->

<svg
   xmlns:dc="http://purl.org/dc/elements/1.1/"
   xmlns:cc="http://creativecommons.org/ns#"
   xmlns:rdf="http://www.w3.org/1999/02/22-rdf-syntax-ns#"
   xmlns:svg="http://www.w3.org/2000/svg"
   xmlns="http://www.w3.org/2000/svg"
   xmlns:sodipodi="http://sodipodi.sourceforge.net/DTD/sodipodi-0.dtd"
   xmlns:inkscape="http://www.inkscape.org/namespaces/inkscape"
   version="1.1"
   id="svg4764"
   sodipodi:docname="bakery-11.svg"
   inkscape:version="0.91 r13725"
   x="0px"
   y="0px"
   height='11'
   width='11'
   viewBox="0 0 11 11"
   enable-background="new 0 0 11 11"
   xml:space="preserve"><metadata
     id="metadata8"><rdf:RDF><cc:Work
         rdf:about=""><dc:format>image/svg+xml</dc:format><dc:type
           rdf:resource="http://purl.org/dc/dcmitype/StillImage" /><dc:title /></cc:Work></rdf:RDF></metadata><defs
     id="defs6" /><sodipodi:namedview
     id="namedview3352"
     inkscape:current-layer="svg4764"
     inkscape:window-height="659"
     inkscape:pageopacity="0"
     inkscape:window-width="818"
     inkscape:window-y="18"
     inkscape:pageshadow="2"
     inkscape:document-units="px"
     inkscape:window-maximized="0"
     inkscape:window-x="25"
     inkscape:cx="5.0034033"
     borderopacity="1"
     objecttolerance="10"
     bordercolor="#666666"
     gridtolerance="10"
     showgrid="false"
     inkscape:cy="5.1930019"
     inkscape:zoom="1"
     guidetolerance="10"
     pagecolor="#ffffff"
     inkscape:snap-bbox="true"
     inkscape:bbox-paths="true"
     inkscape:snap-bbox-edge-midpoints="true"
     inkscape:bbox-nodes="true"
     inkscape:snap-bbox-midpoints="true"
     inkscape:object-paths="true"
     inkscape:snap-intersection-paths="true"
     inkscape:object-nodes="true"
     inkscape:snap-smooth-nodes="true"><inkscape:grid
       type="xygrid"
       id="grid3434"
       spacingx="0.5"
       spacingy="0.5"
       color="#d30016"
       opacity="0.1254902"
       empspacing="2" /></sodipodi:namedview><path
     id="path5836"
     style="fill:#000000;fill-opacity:1"
     inkscape:connector-curvature="0"
     d="m 4.5,2 c -1,0 -1,1 -1,1 L 5,7.5 C 5,7.5 5,8 5.5,8 6,8 6,7.5 6,7.5 L 7.5,3 c 0,0 0,-1 -1,-1 z m 4.5,1.5 -2,4 1.5,0 1,1 0.5,0 c 1,0 1,-0.9 1,-0.9 L 11,6.3 Z M 0,6.3 0,7.5 c 0,0 0.02960301,1.0097438 0.99999997,1 C 1.970397,8.49026 1.5,8.5 1.5,8.5 l 1,-1 1.5,0 -2,-4 z"
     sodipodi:nodetypes="zcczcczzcccczccccczccccc" /></svg>
