<?xml version="1.0" encoding="UTF-8" standalone="no"?>
<!-- Generator: Adobe Illustrator 17.1.0, SVG Export Plug-In . SVG Version: 6.00 Build 0)  -->

<svg
   xmlns:dc="http://purl.org/dc/elements/1.1/"
   xmlns:cc="http://creativecommons.org/ns#"
   xmlns:rdf="http://www.w3.org/1999/02/22-rdf-syntax-ns#"
   xmlns:svg="http://www.w3.org/2000/svg"
   xmlns="http://www.w3.org/2000/svg"
   xmlns:sodipodi="http://sodipodi.sourceforge.net/DTD/sodipodi-0.dtd"
   xmlns:inkscape="http://www.inkscape.org/namespaces/inkscape"
   version="1.1"
   id="svg4764"
   inkscape:version="0.91+devel+osxmenu r12911"
   sodipodi:docname="bank-11.svg"
   x="0px"
   y="0px"
   height='11'
   width='11'
   viewBox="0 0 11 11"
   enable-background="new 0 0 11 11"
   xml:space="preserve"><metadata
     id="metadata13"><rdf:RDF><cc:Work
         rdf:about=""><dc:format>image/svg+xml</dc:format><dc:type
           rdf:resource="http://purl.org/dc/dcmitype/StillImage" /><dc:title></dc:title></cc:Work></rdf:RDF></metadata><defs
     id="defs11" /><sodipodi:namedview
     inkscape:window-x="-3"
     inkscape:window-y="0"
     inkscape:window-width="871"
     inkscape:pageopacity="0"
     inkscape:window-height="745"
     inkscape:current-layer="svg4764"
     inkscape:window-maximized="0"
     inkscape:document-units="px"
     inkscape:pageshadow="2"
     id="namedview3364"
     gridtolerance="10"
     borderopacity="1"
     bordercolor="#666666"
     inkscape:cx="-4.5569393"
     guidetolerance="10"
     showgrid="false"
     pagecolor="#ffffff"
     inkscape:cy="9.117552"
     objecttolerance="10"
     inkscape:zoom="16"
     inkscape:snap-bbox="true"
     inkscape:bbox-paths="true"
     inkscape:bbox-nodes="true"
     inkscape:snap-bbox-edge-midpoints="true"
     inkscape:snap-bbox-midpoints="true"
     inkscape:object-paths="true"
     inkscape:snap-intersection-paths="true"
     inkscape:object-nodes="true"
     inkscape:snap-smooth-nodes="true"><inkscape:grid
       type="xygrid"
       id="grid3442"
       spacingx="0.5"
       spacingy="0.5"
       color="#c4001f"
       opacity="0.1254902"
       empspacing="2" /></sodipodi:namedview><path
     style="fill:#000000"
     d="M 1 2 C 0 2 0 3 0 3 L 0 8 C 0 9 1 9 1 9 L 10 9 C 11 9 11 8 11 8 L 11 3 C 11 3 11 2 10 2 L 1 2 z M 1 3 L 2.5 3 A 0.5 0.5 0 0 1 3 3.5 A 0.5 0.5 0 0 1 2.5 4 A 0.5 0.5 0 0 1 2 3.5 L 1.5 4 A 0.5 0.5 0 0 1 2 4.5 A 0.5 0.5 0 0 1 1.5 5 A 0.5 0.5 0 0 1 1 4.5 L 1 3 z M 5.5 3 C 6.6045695 3 7.5 4.1192881 7.5 5.5 C 7.5 6.8807119 6.6045695 8 5.5 8 C 4.3954305 8 3.5 6.8807119 3.5 5.5 C 3.5 4.1192881 4.3954305 3 5.5 3 z M 8.5 3 L 10 3 L 10 4.5 A 0.5 0.5 0 0 1 9.5 5 A 0.5 0.5 0 0 1 9 4.5 A 0.5 0.5 0 0 1 9.5 4 L 9 3.5 A 0.5 0.5 0 0 1 8.5 4 A 0.5 0.5 0 0 1 8 3.5 A 0.5 0.5 0 0 1 8.5 3 z M 1.5 6 A 0.5 0.5 0 0 1 2 6.5 A 0.5 0.5 0 0 1 1.5 7 L 2 7.5 A 0.5 0.5 0 0 1 2.5 7 A 0.5 0.5 0 0 1 3 7.5 A 0.5 0.5 0 0 1 2.5 8 L 1 8 L 1 6.5 A 0.5 0.5 0 0 1 1.5 6 z M 9.5 6 A 0.5 0.5 0 0 1 10 6.5 L 10 8 L 8.5 8 A 0.5 0.5 0 0 1 8 7.5 A 0.5 0.5 0 0 1 8.5 7 A 0.5 0.5 0 0 1 9 7.5 L 9.5 7 A 0.5 0.5 0 0 1 9 6.5 A 0.5 0.5 0 0 1 9.5 6 z "
     id="path5622" /><path
     style="opacity:1;fill:#000000;fill-opacity:1;stroke:none;stroke-width:2.63156796;stroke-linecap:round;stroke-linejoin:round;stroke-miterlimit:4;stroke-dasharray:none;stroke-dashoffset:0;stroke-opacity:1;marker:none"
     d="M 4.9023438 4.25 A 1 1.25 0 0 0 4.7011719 4.5 L 6.2988281 4.5 A 1 1.25 0 0 0 6.0976562 4.25 L 4.9023438 4.25 z M 4.5859375 4.75 A 1 1.25 0 0 0 4.5214844 5 L 6.4804688 5 A 1 1.25 0 0 0 6.4160156 4.75 L 4.5859375 4.75 z M 4.5 5.25 A 1 1.25 0 0 0 4.5195312 5.5 L 6.4785156 5.5 A 1 1.25 0 0 0 6.5 5.25 L 4.5 5.25 z M 4.5859375 5.75 A 1 1.25 0 0 0 4.703125 6 L 6.2988281 6 A 1 1.25 0 0 0 6.4140625 5.75 L 4.5859375 5.75 z M 4.9023438 6.25 A 1 1.25 0 0 0 4.9355469 6.28125 L 4.5 6.5 L 6.5 6.5 L 6.0644531 6.28125 A 1 1.25 0 0 0 6.0976562 6.25 L 4.9023438 6.25 z M 4.5820312 6.75 C 4.6110252 6.8288881 4.6379952 6.9090909 4.6914062 7 L 6.3183594 7 C 6.3707926 6.9090448 6.3961675 6.8289159 6.4238281 6.75 L 4.5820312 6.75 z M 4.8925781 7.25 C 5.0394868 7.3915355 5.2331992 7.5 5.5 7.5 C 5.7739472 7.5 5.9701349 7.3915355 6.1171875 7.25 L 4.8925781 7.25 z "
     id="path5835" /></svg>
