<?xml version="1.0" encoding="UTF-8" standalone="no"?>
<!-- Created with Inkscape (http://www.inkscape.org/) -->

<svg
   xmlns:dc="http://purl.org/dc/elements/1.1/"
   xmlns:cc="http://creativecommons.org/ns#"
   xmlns:rdf="http://www.w3.org/1999/02/22-rdf-syntax-ns#"
   xmlns:svg="http://www.w3.org/2000/svg"
   xmlns="http://www.w3.org/2000/svg"
   xmlns:sodipodi="http://sodipodi.sourceforge.net/DTD/sodipodi-0.dtd"
   xmlns:inkscape="http://www.inkscape.org/namespaces/inkscape"
   version="1.1"
   width="11"
   height="11"
   id="svg4764"
   inkscape:version="0.91 r"
   sodipodi:docname="beer-11.svg"
   viewBox="0 0 11 11">
  <sodipodi:namedview
     pagecolor="#ffffff"
     bordercolor="#666666"
     borderopacity="1"
     objecttolerance="10"
     gridtolerance="10"
     guidetolerance="10"
     inkscape:pageopacity="0"
     inkscape:pageshadow="2"
     inkscape:window-width="924"
     inkscape:window-height="755"
     id="namedview3412"
     inkscape:document-units="px"
     showgrid="true"
     inkscape:zoom="11.313708"
     inkscape:cx="14.644445"
     inkscape:cy="3.7850107"
     inkscape:current-layer="svg4764"
     inkscape:snap-bbox="true"
     inkscape:bbox-paths="true"
     inkscape:bbox-nodes="true"
     inkscape:snap-bbox-edge-midpoints="false"
     inkscape:snap-bbox-midpoints="false"
     inkscape:object-paths="true"
     inkscape:snap-intersection-paths="true"
     inkscape:object-nodes="true"
     inkscape:snap-smooth-nodes="true"
     inkscape:window-x="13"
     inkscape:window-y="0"
     inkscape:window-maximized="0"
     inkscape:showpageshadow="false"
     showborder="false"
     showguides="true"
     inkscape:guide-bbox="true"
     inkscape:snap-global="true"
     inkscape:snap-nodes="true">
    <inkscape:grid
       type="xygrid"
       id="grid3444"
       spacingy="0.5"
       spacingx="0.5"
       color="#de001c"
       opacity="0.1254902"
       empspacing="2" />
    <sodipodi:guide
       position="0,11"
       orientation="1,0"
       id="guide9150" />
    <sodipodi:guide
       position="11,11"
       orientation="1,0"
       id="guide9152" />
    <sodipodi:guide
       position="0,11"
       orientation="0,1"
       id="guide9154" />
    <sodipodi:guide
       position="0,0"
       orientation="0,1"
       id="guide9156" />
  </sodipodi:namedview>
  <defs
     id="defs4766" />
  <metadata
     id="metadata4769">
    <rdf:RDF>
      <cc:Work
         rdf:about="">
        <dc:format>image/svg+xml</dc:format>
        <dc:type
           rdf:resource="http://purl.org/dc/dcmitype/StillImage" />
        <dc:title></dc:title>
      </cc:Work>
    </rdf:RDF>
  </metadata>
  <path
     style="fill:#000000;fill-rule:evenodd;stroke:none;stroke-width:1px;stroke-linecap:butt;stroke-linejoin:miter;stroke-opacity:1"
     d="M 5.5 0.125 C 4.25 0.125 3 0.25 2.5 0.5 C 2.5 0.5 2 1.5 2 3 C 2 5.5 3.5 6.5 3 10.5 C 3.5 11 7.5 11 8 10.5 C 7.5 6.5 9 5.5 9 3 C 9 1.5 8.5 0.5 8.5 0.5 C 8 0.25 6.75 0.125 5.5 0.125 z M 5.40625 0.875 C 6.4375 0.875 7.5 1 8 1.25 L 8.25 2.25 C 7 3 4 3 2.75 2.25 L 3 1.25 C 3.375 1 4.375 0.875 5.40625 0.875 z M 4.0507812 9.1621094 C 4.4941773 9.294656 4.9927851 9.3645417 5.5 9.3652344 C 6.0072149 9.3645417 6.5058227 9.294656 6.9492188 9.1621094 C 6.9597923 9.3509193 6.974156 9.793248 7 10 C 6.5 10.5 4.5 10.5 4 10 C 4.025844 9.793248 4.0402076 9.3509193 4.0507812 9.1621094 z "
     id="path10577" />
</svg>
