<?xml version="1.0" encoding="UTF-8" standalone="no"?>
<!-- Created with Inkscape (http://www.inkscape.org/) -->

<svg
   xmlns:dc="http://purl.org/dc/elements/1.1/"
   xmlns:cc="http://creativecommons.org/ns#"
   xmlns:rdf="http://www.w3.org/1999/02/22-rdf-syntax-ns#"
   xmlns:svg="http://www.w3.org/2000/svg"
   xmlns="http://www.w3.org/2000/svg"
   xmlns:sodipodi="http://sodipodi.sourceforge.net/DTD/sodipodi-0.dtd"
   xmlns:inkscape="http://www.inkscape.org/namespaces/inkscape"
   version="1.1"
   width="15"
   height="15"
   id="svg4619"
   inkscape:version="0.91 r13725"
   sodipodi:docname="beer-15.svg"
   viewBox="0 0 15 15">
  <sodipodi:namedview
     pagecolor="#ffffff"
     bordercolor="#666666"
     borderopacity="1"
     objecttolerance="10"
     gridtolerance="10"
     guidetolerance="10"
     inkscape:pageopacity="0"
     inkscape:pageshadow="2"
     inkscape:window-width="1511"
     inkscape:window-height="857"
     id="namedview3418"
     inkscape:document-units="px"
     showgrid="false"
     inkscape:zoom="1"
     inkscape:cx="8.7360522"
     inkscape:cy="4.5580653"
     inkscape:window-x="0"
     inkscape:window-y="23"
     inkscape:window-maximized="0"
     inkscape:current-layer="svg4619"
     inkscape:snap-bbox="true"
     inkscape:bbox-paths="true"
     inkscape:bbox-nodes="true"
     inkscape:snap-bbox-edge-midpoints="true"
     inkscape:snap-bbox-midpoints="true"
     inkscape:object-paths="true"
     inkscape:snap-intersection-paths="true"
     inkscape:object-nodes="true"
     inkscape:snap-smooth-nodes="true"
     showguides="false"
     inkscape:guide-bbox="true"
     showborder="true">
    <inkscape:grid
       type="xygrid"
       id="grid3440"
       spacingx="0.44117647"
       spacingy="0.44117647"
       color="#ff001a"
       opacity="0.1254902"
       empspacing="2" />
    <sodipodi:guide
       position="0,13.235294"
       orientation="1,0"
       id="guide7786" />
    <sodipodi:guide
       position="13.235294,13.235294"
       orientation="0,1"
       id="guide7788" />
    <sodipodi:guide
       position="13.235294,0"
       orientation="1,0"
       id="guide7790" />
    <sodipodi:guide
       position="0,0"
       orientation="0,1"
       id="guide7792" />
  </sodipodi:namedview>
  <defs
     id="defs4621" />
  <metadata
     id="metadata4624">
    <rdf:RDF>
      <cc:Work
         rdf:about="">
        <dc:format>image/svg+xml</dc:format>
        <dc:type
           rdf:resource="http://purl.org/dc/dcmitype/StillImage" />
        <dc:title></dc:title>
      </cc:Work>
    </rdf:RDF>
  </metadata>
  <path
     style="fill:#000000;fill-rule:evenodd;stroke:none;stroke-width:1px;stroke-linecap:butt;stroke-linejoin:miter;stroke-opacity:1"
     d="m 7.5000002,0.55882338 c -0.4705882,0 -3.2941178,0 -3.764706,0.70588272 0,0 -0.4705883,1.8823531 -0.4705883,3.2941174 0,2.3529408 1.4117647,5.1764702 0.9411765,8.9411775 0,1.411764 6.5882356,1.411764 6.5882356,0 -0.470587,-3.7647073 0.941176,-6.5882367 0.941176,-8.9411775 0,-1.4117643 -0.470588,-3.2941174 -0.470588,-3.2941174 C 10.794118,0.55882338 7.9705884,0.55882338 7.5000002,0.55882338 Z m 0,0.94117662 c 0.4705882,0 2.8235298,0 3.2941168,0.4705877 0,0 0.470589,1.4117654 0.235294,1.8823531 -1.1764699,0.7058827 -5.8823525,0.7058827 -7.0588231,0 C 3.7352942,3.3823531 4.205882,1.9705877 4.205882,1.9705877 4.6764707,1.5 7.0294121,1.5 7.5000002,1.5 Z M 5.194853,12.005515 c 0.417314,0.124756 0.8933823,0.384876 2.3051471,0.426471 1.4117649,0.04159 1.887833,-0.301716 2.3051472,-0.426471 0.00995,0.177704 0.023474,1.064602 0.047794,1.259192 -0.4705879,0.470588 -4.2352942,0.470588 -4.7058825,0 0.024324,-0.19459 0.037842,-1.081488 0.047794,-1.259192 z"
     id="path10577"
     inkscape:connector-curvature="0"
     sodipodi:nodetypes="zcsccsczzcccczczcccc" />
</svg>
