<?xml version="1.0" encoding="UTF-8" standalone="no"?>
<!-- Generator: Adobe Illustrator 18.1.0, SVG Export Plug-In . SVG Version: 6.00 Build 0)  -->

<svg
   xmlns:dc="http://purl.org/dc/elements/1.1/"
   xmlns:cc="http://creativecommons.org/ns#"
   xmlns:rdf="http://www.w3.org/1999/02/22-rdf-syntax-ns#"
   xmlns:svg="http://www.w3.org/2000/svg"
   xmlns="http://www.w3.org/2000/svg"
   xmlns:sodipodi="http://sodipodi.sourceforge.net/DTD/sodipodi-0.dtd"
   xmlns:inkscape="http://www.inkscape.org/namespaces/inkscape"
   version="1.1"
   id="svg4764"
   sodipodi:docname="bike-share-11.svg"
   inkscape:version="0.91 r13725"
   x="0px"
   y="0px"
   width="11px"
   height="11px"
   viewBox="-294 195 11 11"
   enable-background="new -294 195 11 11"
   xml:space="preserve"><metadata
     id="metadata4798"><rdf:RDF><cc:Work
         rdf:about=""><dc:format>image/svg+xml</dc:format><dc:type
           rdf:resource="http://purl.org/dc/dcmitype/StillImage" /><dc:title /></cc:Work></rdf:RDF></metadata><defs
     id="defs4796" /><sodipodi:namedview
     inkscape:window-maximized="0"
     inkscape:window-y="0"
     inkscape:window-x="16"
     inkscape:snap-smooth-nodes="true"
     inkscape:object-nodes="true"
     inkscape:object-paths="true"
     inkscape:bbox-nodes="true"
     inkscape:bbox-paths="true"
     inkscape:snap-bbox="true"
     inkscape:document-units="px"
     inkscape:current-layer="svg4764"
     inkscape:pageopacity="0"
     inkscape:window-height="784"
     inkscape:window-width="1495"
     inkscape:pageshadow="2"
     inkscape:snap-intersection-paths="true"
     inkscape:snap-bbox-edge-midpoints="true"
     pagecolor="#ffffff"
     bordercolor="#666666"
     inkscape:cx="1.2197585"
     inkscape:cy="4.8663967"
     gridtolerance="10"
     objecttolerance="10"
     borderopacity="1"
     showgrid="true"
     id="namedview3424"
     guidetolerance="10"
     inkscape:zoom="45.254834"><inkscape:grid
       type="xygrid"
       color="#ff0000"
       spacingy="0.5"
       spacingx="0.5"
       empspacing="2"
       opacity="0.1254902"
       id="grid3436" /></sodipodi:namedview><path
     inkscape:connector-curvature="0"
     style="color:#000000;clip-rule:nonzero;display:inline;overflow:visible;visibility:visible;opacity:1;isolation:auto;mix-blend-mode:normal;color-interpolation:sRGB;color-interpolation-filters:linearRGB;solid-color:#000000;solid-opacity:1;fill:#000000;fill-opacity:1;fill-rule:nonzero;stroke:none;stroke-width:1;stroke-linecap:round;stroke-linejoin:round;stroke-miterlimit:4;stroke-dasharray:none;stroke-dashoffset:0;stroke-opacity:1;marker:none;color-rendering:auto;image-rendering:auto;shape-rendering:auto;text-rendering:auto;enable-background:accumulate"
     d="m -286.0039,195 a 1,1 0 0 0 -1,1 1,1 0 0 0 1,1 1,1 0 0 0 1,-1 1,1 0 0 0 -1,-1 z m -1.98633,2 a 0.50005,0.50005 0 0 0 -0.36719,0.14648 l -2,2 a 0.50005,0.50005 0 0 0 0,0.70704 l 1.35352,1.35351 0,2.29297 a 0.50005,0.50005 0 1 0 1,0 l 0,-2.5 a 0.50005,0.50005 0 0 0 -0.14453,-0.35352 l -0.75196,-0.75195 1.16602,-1.20312 0.83203,1.10937 A 0.50005,0.50005 0 0 0 -286.5039,200 l 2,0 a 0.50005,0.50005 0 1 0 0,-1 l -1.75,0 -1.34961,-1.80078 A 0.50005,0.50005 0 0 0 -287.99023,197 Z m -3.65039,4.00391 c -0.25027,0.0139 -0.5018,0.0665 -0.74414,0.1582 -0.96936,0.36683 -1.61424,1.29753 -1.61524,2.33398 -10e-4,1.03645 0.64106,1.97027 1.60938,2.33985 0.96831,0.36957 2.06834,0.10003 2.75781,-0.67383 a 0.5001386,0.5001386 0 0 0 -0.74805,-0.66406 c -0.41541,0.46629 -1.07087,0.62697 -1.65429,0.40429 -0.58341,-0.22267 -0.96573,-0.77983 -0.96485,-1.40429 8.8e-4,-0.62447 0.3847,-1.17938 0.96875,-1.40039 0.58405,-0.22102 1.24021,-0.0592 1.6543,0.4082 a 0.5001386,0.5001386 0 1 0 0.74805,-0.66406 c -0.34363,-0.38791 -0.78953,-0.6486 -1.27149,-0.76758 -0.24098,-0.0595 -0.48997,-0.0842 -0.74023,-0.0703 z m 6.27929,0 c -0.25026,-0.0139 -0.49926,0.0108 -0.74023,0.0703 -0.48196,0.11898 -0.9298,0.37967 -1.27344,0.76758 a 0.500869,0.500869 0 1 0 0.75,0.66406 c 0.41409,-0.46743 1.06831,-0.62922 1.65235,-0.4082 0.58405,0.22101 0.96787,0.77592 0.96875,1.40039 8.9e-4,0.62446 -0.38143,1.18162 -0.96485,1.40429 -0.58342,0.22268 -1.23888,0.062 -1.65429,-0.40429 a 0.50005,0.50005 0 1 0 -0.7461,0.66406 c 0.68947,0.77386 1.78949,1.0434 2.75781,0.67383 0.96832,-0.36958 1.6089,-1.3034 1.60743,-2.33985 -0.001,-1.03645 -0.64391,-1.96715 -1.61328,-2.33398 -0.24235,-0.0917 -0.49388,-0.14429 -0.74415,-0.1582 z"
     id="path4632" /></svg>