<?xml version="1.0" encoding="UTF-8" standalone="no"?>
<!-- Generator: Adobe Illustrator 18.1.0, SVG Export Plug-In . SVG Version: 6.00 Build 0)  -->

<svg
   xmlns:dc="http://purl.org/dc/elements/1.1/"
   xmlns:cc="http://creativecommons.org/ns#"
   xmlns:rdf="http://www.w3.org/1999/02/22-rdf-syntax-ns#"
   xmlns:svg="http://www.w3.org/2000/svg"
   xmlns="http://www.w3.org/2000/svg"
   xmlns:sodipodi="http://sodipodi.sourceforge.net/DTD/sodipodi-0.dtd"
   xmlns:inkscape="http://www.inkscape.org/namespaces/inkscape"
   version="1.1"
   id="svg4619"
   sodipodi:docname="bicycle-15.svg"
   inkscape:version="0.91 r13725"
   x="0px"
   y="0px"
   width="15px"
   height="15px"
   viewBox="-292 193 15 15"
   enable-background="new -292 193 15 15"
   xml:space="preserve"><metadata
     id="metadata3536"><rdf:RDF><cc:Work
         rdf:about=""><dc:format>image/svg+xml</dc:format><dc:type
           rdf:resource="http://purl.org/dc/dcmitype/StillImage" /><dc:title></dc:title></cc:Work></rdf:RDF></metadata><defs
     id="defs3534" /><sodipodi:namedview
     inkscape:window-maximized="0"
     inkscape:window-y="23"
     inkscape:window-x="0"
     inkscape:snap-smooth-nodes="true"
     inkscape:object-nodes="true"
     inkscape:object-paths="true"
     inkscape:snap-bbox="true"
     inkscape:document-units="px"
     inkscape:current-layer="svg4619"
     inkscape:pageopacity="0"
     inkscape:window-height="755"
     inkscape:window-width="1280"
     inkscape:pageshadow="2"
     inkscape:snap-intersection-paths="true"
     pagecolor="#ffffff"
     bordercolor="#666666"
     inkscape:cx="4.6281545"
     inkscape:cy="10.703675"
     gridtolerance="10"
     objecttolerance="10"
     borderopacity="1"
     showgrid="true"
     id="namedview3364"
     guidetolerance="10"
     inkscape:zoom="128"><inkscape:grid
       type="xygrid"
       color="#ff0000"
       spacingy="0.5"
       spacingx="0.5"
       empspacing="2"
       opacity="0.1254902"
       id="grid3368" /></sodipodi:namedview><path
     inkscape:connector-curvature="0"
     style="color:#000000;font-style:normal;font-variant:normal;font-weight:normal;font-stretch:normal;font-size:medium;line-height:normal;font-family:sans-serif;text-indent:0;text-align:start;text-decoration:none;text-decoration-line:none;text-decoration-style:solid;text-decoration-color:#000000;letter-spacing:normal;word-spacing:normal;text-transform:none;direction:ltr;block-progression:tb;writing-mode:lr-tb;baseline-shift:baseline;text-anchor:start;white-space:normal;clip-rule:nonzero;display:inline;overflow:visible;visibility:visible;opacity:1;isolation:auto;mix-blend-mode:normal;color-interpolation:sRGB;color-interpolation-filters:linearRGB;solid-color:#000000;solid-opacity:1;fill:#000000;fill-opacity:1;fill-rule:nonzero;stroke:none;stroke-width:1;stroke-linecap:round;stroke-linejoin:round;stroke-miterlimit:4;stroke-dasharray:none;stroke-dashoffset:0;stroke-opacity:1;marker:none;color-rendering:auto;image-rendering:auto;shape-rendering:auto;text-rendering:auto;enable-background:accumulate"
     d="m -284.50003,195 c -0.67616,-0.01 -0.67616,1.00956 0,1 l 1.5,0 0,1.26562 -2.80273,2.33399 -0.97461,-2.59961 0.27734,0 c 0.67616,0.01 0.67616,-1.00956 0,-1 l -1.99997,0 c -0.67616,-0.01 -0.67616,1.00956 0,1 l 0.65234,0 0.89063,2.375 C -287.42477,199.14243 -287.94405,199 -288.5,199 c -1.92707,0 -3.5,1.57293 -3.5,3.5 0,1.92707 1.57293,3.5 3.5,3.5 1.92707,0 3.5,-1.57293 3.5,-3.5 0,-0.66989 -0.20035,-1.29112 -0.5293,-1.82422 l 2.82032,-2.34961 0.46289,1.16016 C -283.28865,200.09373 -284,201.21115 -284,202.5 c 0,1.92707 1.57293,3.5 3.5,3.5 1.92707,0 3.5,-1.57293 3.5,-3.5 0,-1.92707 -1.57293,-3.5 -3.5,-3.5 -0.28313,0 -0.55438,0.0434 -0.81836,0.10742 l -0.68167,-1.70508 0,-1.90234 c -3e-5,-0.27613 -0.22387,-0.49997 -0.5,-0.5 z m -4,5 c 0.59234,0 1.12757,0.21188 1.55469,0.55273 l -1.875,1.5625 c -0.51091,0.42727 0.12779,1.1945 0.64062,0.76954 l 1.875,-1.5625 c 0.1882,0.35176 0.30469,0.7488 0.30469,1.17773 0,1.38663 -1.11337,2.5 -2.5,2.5 -1.38663,0 -2.5,-1.11337 -2.5,-2.5 0,-1.38663 1.11337,-2.5 2.5,-2.5 z m 8,0 c 1.38663,0 2.5,1.11337 2.5,2.5 0,1.38663 -1.11337,2.5 -2.5,2.5 -1.38663,0 -2.5,-1.11337 -2.5,-2.5 0,-0.877 0.44681,-1.64206 1.125,-2.08789 l 0.91016,2.27344 c 0.24596,0.62314 1.18043,0.25012 0.92968,-0.3711 l -0.9082,-2.26953 c 0.14426,-0.0256 0.29143,-0.0449 0.44336,-0.0449 z"
     id="path4668"
     sodipodi:nodetypes="ccccccccccccsssscccsssscccccsccccsssscssscccccc" /></svg>