<?xml version="1.0" encoding="UTF-8" standalone="no"?>
<!-- Created with Inkscape (http://www.inkscape.org/) -->

<svg
   xmlns:dc="http://purl.org/dc/elements/1.1/"
   xmlns:cc="http://creativecommons.org/ns#"
   xmlns:rdf="http://www.w3.org/1999/02/22-rdf-syntax-ns#"
   xmlns:svg="http://www.w3.org/2000/svg"
   xmlns="http://www.w3.org/2000/svg"
   xmlns:sodipodi="http://sodipodi.sourceforge.net/DTD/sodipodi-0.dtd"
   xmlns:inkscape="http://www.inkscape.org/namespaces/inkscape"
   version="1.1"
   width="15"
   height="15"
   id="svg4619"
   xml:space="preserve"
   inkscape:version="0.91+devel+osxmenu r12911"
   sodipodi:docname="car-15.svg"
   viewBox="0 0 15 15"><sodipodi:namedview
     pagecolor="#ffffff"
     bordercolor="#666666"
     borderopacity="1"
     objecttolerance="10"
     gridtolerance="10"
     guidetolerance="10"
     inkscape:pageopacity="0"
     inkscape:pageshadow="2"
     inkscape:window-width="1247"
     inkscape:window-height="755"
     id="namedview3388"
     inkscape:document-units="px"
     showgrid="true"
     inkscape:object-paths="true"
     inkscape:snap-intersection-paths="true"
     inkscape:object-nodes="true"
     inkscape:snap-smooth-nodes="true"
     inkscape:zoom="32"
     inkscape:cx="5.289578"
     inkscape:cy="6.1142938"
     inkscape:window-x="0"
     inkscape:window-y="23"
     inkscape:window-maximized="0"
     inkscape:current-layer="svg4619"
     inkscape:snap-bbox="true"
     inkscape:bbox-paths="true"
     inkscape:bbox-nodes="true"
     inkscape:snap-bbox-edge-midpoints="true"
     inkscape:snap-bbox-midpoints="true"
     showguides="true"
     inkscape:guide-bbox="true"><inkscape:grid
       type="xygrid"
       id="grid3390"
       spacingx="0.44117647"
       spacingy="0.44117647"
       color="#ff0000"
       opacity="0.1254902"
       empspacing="2" /></sodipodi:namedview><metadata
     id="metadata3166"><rdf:RDF><cc:Work
         rdf:about=""><dc:format>image/svg+xml</dc:format><dc:type
           rdf:resource="http://purl.org/dc/dcmitype/StillImage" /><dc:title /></cc:Work></rdf:RDF></metadata><defs
     id="defs3164" /><path
     style="fill:#000000;fill-opacity:1;stroke-width:0.99999994"
     d="M 3.5 2 C 3.5 2 2.3750001 2 2 3.5 L 1.5 5.5 C 1.5 5.5 0 6.5 0 8 L 0 11 C 0 11 -7.5555557e-09 12 1 12 L 2 12 L 2 13 C 1.9999999 14 3 14 3 14 L 3.5 14 C 3.5 14 4.5 14 4.5 13 L 4.5 12 L 10.5 12 L 10.5 13 C 10.5 14 11.5 14 11.5 14 L 12 14 C 12 14 13 14 13 13 L 13 12 L 14 12 C 15 12 15 11 15 11 L 15 8 C 15 6.5 13.5 5.5 13.5 5.5 L 13 3.5 C 12.624999 2 11.5 2 11.5 2 L 3.5 2 z M 3.25 3.5 L 11.75 3.5 L 12 4.5 C 12.375001 6 11 6 11 6 L 4 6 C 4 6 2.6250001 6 3 4.5 L 3.25 3.5 z M 3.25 8.5 A 1.25 1.25 0 0 1 4.5 9.75 A 1.25 1.25 0 0 1 3.25 11 A 1.25 1.25 0 0 1 2 9.75 A 1.25 1.25 0 0 1 3.25 8.5 z M 11.75 8.5 A 1.25 1.25 0 0 1 13 9.75 A 1.25 1.25 0 0 1 11.75 11 A 1.25 1.25 0 0 1 10.5 9.75 A 1.25 1.25 0 0 1 11.75 8.5 z "
     id="path8522-6-8-5" /></svg>
