<?xml version="1.0" encoding="utf-8"?>
<!-- Generator: Adobe Illustrator 18.1.0, SVG Export Plug-In . SVG Version: 6.00 Build 0)  -->
<!DOCTYPE svg PUBLIC "-//W3C//DTD SVG 1.1//EN" "http://www.w3.org/Graphics/SVG/1.1/DTD/svg11.dtd">
<svg version="1.1"
	 id="svg4619" sodipodi:docname="college-15.svg" inkscape:version="0.91 r13725" xmlns:svg="http://www.w3.org/2000/svg" xmlns:rdf="http://www.w3.org/1999/02/22-rdf-syntax-ns#" xmlns:sodipodi="http://sodipodi.sourceforge.net/DTD/sodipodi-0.dtd" xmlns:inkscape="http://www.inkscape.org/namespaces/inkscape" xmlns:dc="http://purl.org/dc/elements/1.1/" xmlns:cc="http://creativecommons.org/ns#"
	 xmlns="http://www.w3.org/2000/svg" xmlns:xlink="http://www.w3.org/1999/xlink" x="0px" y="0px" width="15px" height="15px"
	 viewBox="-292 193 15 15" enable-background="new -292 193 15 15" xml:space="preserve">
<sodipodi:namedview  inkscape:snap-intersection-paths="true" inkscape:snap-bbox-edge-midpoints="true" inkscape:window-maximized="0" inkscape:window-y="0" inkscape:window-x="0" inkscape:snap-smooth-nodes="true" inkscape:object-nodes="true" inkscape:object-paths="true" inkscape:snap-bbox-midpoints="true" inkscape:bbox-nodes="true" inkscape:bbox-paths="true" inkscape:snap-bbox="true" inkscape:document-units="px" inkscape:current-layer="svg4619" inkscape:pageopacity="0" inkscape:window-height="866" inkscape:window-width="1261" inkscape:pageshadow="2" pagecolor="#ffffff" bordercolor="#666666" inkscape:cx="3.4672296" inkscape:cy="4.435226" gridtolerance="10" objecttolerance="10" borderopacity="1" showgrid="true" id="namedview3407" guidetolerance="10" inkscape:zoom="90.509668">
	
		<inkscape:grid  color="#ff000d" type="xygrid" opacity="0.1254902" empspacing="2" spacingx="0.44117647" spacingy="0.44117647" id="grid3333">
		</inkscape:grid>
</sodipodi:namedview>
<path id="path9" d="M-284.5,194.5l-7.5,3.5l2,0.9v1.7c-0.6,0.2-1,0.8-1,1.4s0.4,1.2,1,1.4v0.1l-0.9,2.1c-0.3,0.9-0.1,1.9,1.4,1.9
	s1.7-1,1.4-1.9l-0.9-2.1c0.6-0.3,1-0.8,1-1.5s-0.4-1.2-1-1.4v-1.2l4.5,2.1l7.5-3.5L-284.5,194.5z M-280.1,201l-4.5,2l-2.4-1.1v0.1
	c0,0.7-0.3,1.3-0.8,1.8l0.6,1.4v0.1c0.1,0.4,0.2,0.8,0.1,1.2c0.7,0.3,1.5,0.5,2.5,0.5c3.3,0,4.5-2,4.5-3V201z"/>
</svg>
