<?xml version="1.0" encoding="utf-8"?>
<!-- Generator: Adobe Illustrator 18.1.0, SVG Export Plug-In . SVG Version: 6.00 Build 0)  -->
<!DOCTYPE svg PUBLIC "-//W3C//DTD SVG 1.1//EN" "http://www.w3.org/Graphics/SVG/1.1/DTD/svg11.dtd">
<svg version="1.1"
	 id="svg4764" sodipodi:docname="college-11.svg" inkscape:version="0.91+devel+osxmenu r12911" xmlns:svg="http://www.w3.org/2000/svg" xmlns:rdf="http://www.w3.org/1999/02/22-rdf-syntax-ns#" xmlns:sodipodi="http://sodipodi.sourceforge.net/DTD/sodipodi-0.dtd" xmlns:inkscape="http://www.inkscape.org/namespaces/inkscape" xmlns:dc="http://purl.org/dc/elements/1.1/" xmlns:cc="http://creativecommons.org/ns#"
	 xmlns="http://www.w3.org/2000/svg" xmlns:xlink="http://www.w3.org/1999/xlink" x="0px" y="0px" width="11" height="11"
	 viewBox="-294 195 11 11" enable-background="new -294 195 11 11" xml:space="preserve">
<path d="M-292,202.3c0.3-0.2,0.5-0.5,0.5-0.8c0-0.4-0.2-0.7-0.6-0.9v-1.2l3.6,1.6l5.5-2.5l-5.5-2.5l-5.5,2.5l1.2,0.5v1.6
	c-0.4,0.2-0.6,0.5-0.6,0.9c0,0.3,0.2,0.6,0.5,0.8l-0.5,1.7c-0.3,1,0.5,1,0.5,1h1c0,0,0.8,0,0.5-1L-292,202.3z"/>
<path d="M-290.5,201.2c0,0.1,0,0.2,0,0.3v0c0,0.4-0.2,0.8-0.4,1.1c0.2,0.4,0.4,0.8,0.4,1.4v0.6c0.5,0.2,1.2,0.4,2,0.4
	c2.5,0,3.5-1.5,3.5-1.5v-3l-3.5,1.6L-290.5,201.2z"/>
</svg>
