<svg id="Layer_1" data-name="Layer 1" xmlns="http://www.w3.org/2000/svg" width="15" height="15" viewBox="0 0 15 15">
  <title>dam-15</title>
  <path d="M15,11.06a0.89,0.89,0,0,1-1.29.82l-1.48-.76a0.49,0.49,0,0,0-.45,0L9.23,12.43a0.49,0.49,0,0,1-.45,0L6.26,11.14a0.49,0.49,0,0,0-.51,0l-0.26.18,0.49,2A0.5,0.5,0,0,1,5.5,14h-4A0.5,0.5,0,0,1,1,13.5V1.5A0.5,0.5,0,0,1,1.5,1H2.6a0.5,0.5,0,0,1,.49.39L4,5.06l1.79-1a0.49,0.49,0,0,1,.47,0L8.77,5.38a0.49,0.49,0,0,0,.46,0L11.77,4a0.49,0.49,0,0,1,.46,0l2.28,1.2a0.93,0.93,0,0,1,.49.83,0.89,0.89,0,0,1-1.29.83l-1.48-.77a0.49,0.49,0,0,0-.45,0L9.23,7.44a0.49,0.49,0,0,1-.45,0L6.26,6.14a0.49,0.49,0,0,0-.51,0l-1.29.92L5,9.48l0.72-.4a0.49,0.49,0,0,1,.47,0l2.54,1.31a0.49,0.49,0,0,0,.46,0l2.54-1.33a0.49,0.49,0,0,1,.46,0l2.28,1.18A0.92,0.92,0,0,1,15,11.06Z"/>
</svg>
