<svg id="Layer_1" data-name="Layer 1" xmlns="http://www.w3.org/2000/svg" width="11" height="11" viewBox="0 0 11 11">
  <title>danger-11</title>
  <path d="M6.62,8.5l3.11,1.55-0.45.89L5.5,9.06,1.72,10.95l-0.45-.89L4.38,8.5,1.28,6.95l0.45-.89L5.5,7.94,9.28,6.05,9.72,6.95ZM8.5,3.21V3.5l-1,1v1l-2,1-2-1v-1l-1-1V3a2.9,2.9,0,0,1,3-3A3.09,3.09,0,0,1,8.5,3.21Zm-3.79-.5a0.79,0.79,0,1,0-.79.79A0.79,0.79,0,0,0,4.71,2.71ZM5,4.5H4.5v1H5v-1Zm1.5,0H6v1H6.5v-1ZM7.86,2.71a0.79,0.79,0,1,0-.79.79A0.79,0.79,0,0,0,7.86,2.71Z"/>
</svg>
