<?xml version="1.0" encoding="utf-8"?>
<!-- Generator: Adobe Illustrator 18.1.0, SVG Export Plug-In . SVG Version: 6.00 Build 0)  -->
<!DOCTYPE svg PUBLIC "-//W3C//DTD SVG 1.1//EN" "http://www.w3.org/Graphics/SVG/1.1/DTD/svg11.dtd">
<svg version="1.1"
	 id="svg4619" sodipodi:docname="doctor-11.svg" inkscape:version="0.91 r13725" xmlns:svg="http://www.w3.org/2000/svg" xmlns:rdf="http://www.w3.org/1999/02/22-rdf-syntax-ns#" xmlns:sodipodi="http://sodipodi.sourceforge.net/DTD/sodipodi-0.dtd" xmlns:inkscape="http://www.inkscape.org/namespaces/inkscape" xmlns:dc="http://purl.org/dc/elements/1.1/" xmlns:cc="http://creativecommons.org/ns#"
	 xmlns="http://www.w3.org/2000/svg" xmlns:xlink="http://www.w3.org/1999/xlink" x="0px" y="0px" width="11px" height="11px"
	 viewBox="-294 195 11 11" enable-background="new -294 195 11 11" xml:space="preserve">
<sodipodi:namedview  inkscape:showpageshadow="false" inkscape:guide-bbox="true" inkscape:window-maximized="0" inkscape:window-y="29" inkscape:window-x="101" inkscape:snap-smooth-nodes="true" inkscape:object-nodes="true" inkscape:object-paths="true" inkscape:snap-bbox-midpoints="false" inkscape:bbox-nodes="true" inkscape:bbox-paths="true" inkscape:snap-bbox="true" inkscape:document-units="px" inkscape:current-layer="svg4619" inkscape:pageopacity="0" inkscape:window-height="912" inkscape:window-width="1920" inkscape:pageshadow="2" inkscape:snap-intersection-paths="true" inkscape:snap-bbox-edge-midpoints="true" borderlayer="false" pagecolor="#ffffff" bordercolor="#666666" inkscape:cx="15.719407" inkscape:cy="6.4606424" showguides="false" showborder="true" gridtolerance="10" objecttolerance="10" borderopacity="1" showgrid="false" id="namedview3418" guidetolerance="10" inkscape:zoom="16">
	
		<inkscape:grid  type="xygrid" color="#ff001a" spacingy="0.44117647" spacingx="0.44117647" empspacing="2" opacity="0.1254902" id="grid3440">
		</inkscape:grid>
	<sodipodi:guide  position="0,13.235294" orientation="1,0" id="guide7786"></sodipodi:guide>
	<sodipodi:guide  position="13.235294,13.235294" orientation="0,1" id="guide7788"></sodipodi:guide>
	<sodipodi:guide  position="9.7058823,11.029412" orientation="1,0" id="guide7790"></sodipodi:guide>
	<sodipodi:guide  position="2.2058824,3.5294118" orientation="0,1" id="guide7792"></sodipodi:guide>
	<sodipodi:guide  position="4.8529412,1.7647059" orientation="1,0" id="guide4699"></sodipodi:guide>
	<sodipodi:guide  position="3.0882353,9.7058823" orientation="1,0" id="guide5819"></sodipodi:guide>
</sodipodi:namedview>
<path id="path4697" inkscape:connector-curvature="0" d="M-292,196c-0.5,0-1,0.5-1,1l0,0.5c0,0.5,0,1.2,0.5,2
	c0.7,1.1,1.5,1.5,1.5,2.5c0,1,0.3,1.6,0.8,2.2c0.5,0.5,1.3,0.8,2.2,0.8c0.9,0,1.6-0.3,2.2-0.8s0.8-1.3,0.8-2.2v-0.1
	c0.6-0.2,1-0.8,1-1.4c0-0.8-0.7-1.5-1.5-1.5c-0.8,0-1.5,0.7-1.5,1.5c0,0.6,0.4,1.2,1,1.4v0.1c0,0.6-0.2,1.1-0.5,1.5
	c-0.3,0.3-0.8,0.5-1.5,0.5c-0.6,0-1.1-0.2-1.5-0.5c-0.3-0.3-0.5-0.7-0.5-1.5c0-1,0.7-1.4,1.5-2.5c0.5-0.7,0.5-1.5,0.5-2V197
	c0-0.5-0.5-1-1-1l-0.5,0c-0.5,0-0.5,0.7,0,0.7l0.5,0c0.2,0,0.2,0.2,0.2,0.2l0,0.5c0,0.3-0.1,0.9-0.4,1.4s-0.6,0.8-1.4,0.8
	c-0.8,0-1.1-0.3-1.4-0.8c-0.3-0.5-0.4-1.1-0.4-1.5l0-0.5c0,0,0.1-0.2,0.3-0.2h0.5c0.5,0,0.5-0.8,0-0.8C-291.5,196-291.8,196-292,196
	z M-285.5,199.8c0.4,0,0.8,0.3,0.8,0.7c0,0.4-0.3,0.8-0.7,0.8c0,0,0,0,0,0c-0.4,0-0.8-0.3-0.8-0.7c0,0,0,0,0,0
	C-286.3,200.1-285.9,199.8-285.5,199.8z"/>
</svg>
