<?xml version="1.0" encoding="UTF-8" standalone="no"?>
<!-- Created with Inkscape (http://www.inkscape.org/) -->

<svg
   xmlns:dc="http://purl.org/dc/elements/1.1/"
   xmlns:cc="http://creativecommons.org/ns#"
   xmlns:rdf="http://www.w3.org/1999/02/22-rdf-syntax-ns#"
   xmlns:svg="http://www.w3.org/2000/svg"
   xmlns="http://www.w3.org/2000/svg"
   xmlns:sodipodi="http://sodipodi.sourceforge.net/DTD/sodipodi-0.dtd"
   xmlns:inkscape="http://www.inkscape.org/namespaces/inkscape"
   version="1.1"
   width="15"
   height="15"
   id="svg4619"
   inkscape:version="0.91+devel+osxmenu r12911"
   sodipodi:docname="embassy-15.svg"
   viewBox="0 0 15 15">
  <sodipodi:namedview
     pagecolor="#ffffff"
     bordercolor="#666666"
     borderopacity="1"
     objecttolerance="10"
     gridtolerance="10"
     guidetolerance="10"
     inkscape:pageopacity="0"
     inkscape:pageshadow="2"
     inkscape:window-width="986"
     inkscape:window-height="694"
     id="namedview3346"
     inkscape:document-units="px"
     showgrid="false"
     inkscape:zoom="16"
     inkscape:cx="4.6942974"
     inkscape:cy="3.8257542"
     inkscape:current-layer="svg4619"
     inkscape:window-x="0"
     inkscape:window-y="0"
     inkscape:window-maximized="0"
     inkscape:snap-bbox="true"
     inkscape:bbox-paths="true"
     inkscape:bbox-nodes="true"
     inkscape:snap-bbox-edge-midpoints="true"
     inkscape:snap-bbox-midpoints="true"
     inkscape:object-paths="true"
     inkscape:snap-intersection-paths="true"
     inkscape:object-nodes="true"
     inkscape:snap-smooth-nodes="true">
    <inkscape:grid
       type="xygrid"
       id="grid3333"
       spacingx="0.5"
       spacingy="0.5"
       color="#ff0000"
       opacity="0.1254902"
       empspacing="2" />
  </sodipodi:namedview>
  <defs
     id="defs4621" />
  <metadata
     id="metadata4624">
    <rdf:RDF>
      <cc:Work
         rdf:about="">
        <dc:format>image/svg+xml</dc:format>
        <dc:type
           rdf:resource="http://purl.org/dc/dcmitype/StillImage" />
        <dc:title />
      </cc:Work>
    </rdf:RDF>
  </metadata>
  <path
     style="fill:#000000;fill-opacity:1;stroke-width:1"
     d="M 6.8164062 2 C 5.1585114 2 3.5 4 3.5 4 L 3.5 10 C 3.5 10 5.1585114 8 6.8164062 8 C 8.4128974 8 9.0256986 10 10.683594 10 C 12.341488 10 14 7.7773437 14 7.7773438 L 14 2 C 14 2 12.341488 4 10.683594 4 C 9.0256986 4 8.474301 2 6.8164062 2 z M 2.4355469 2.4726562 A 0.52777779 0.52777791 0 0 0 1.9453125 3 A 0.52777779 0.52777791 0 0 0 1.9453125 3.0371094 L 1.9453125 12.060547 C 1.6909026 13.488917 0.5 13.5 0.5 13.5 L 0.5 14 L 4.5 14 L 4.5 13.5 C 4.5 13.5 3 13.499999 3 11.5 L 3 9.9453125 L 3 3 A 0.52777779 0.52777791 0 0 0 2.4726562 2.4726562 A 0.52777779 0.52777791 0 0 0 2.4355469 2.4726562 z "
     id="path5391" />
</svg>
