<?xml version="1.0" encoding="utf-8"?>
<!-- Generator: Adobe Illustrator 18.1.0, SVG Export Plug-In . SVG Version: 6.00 Build 0)  -->
<!DOCTYPE svg PUBLIC "-//W3C//DTD SVG 1.1//EN" "http://www.w3.org/Graphics/SVG/1.1/DTD/svg11.dtd">
<svg version="1.1"
	 id="svg4764" sodipodi:docname="fast-food-11.svg" inkscape:version="0.91+devel+osxmenu r12911" xmlns:svg="http://www.w3.org/2000/svg" xmlns:rdf="http://www.w3.org/1999/02/22-rdf-syntax-ns#" xmlns:sodipodi="http://sodipodi.sourceforge.net/DTD/sodipodi-0.dtd" xmlns:inkscape="http://www.inkscape.org/namespaces/inkscape" xmlns:dc="http://purl.org/dc/elements/1.1/" xmlns:cc="http://creativecommons.org/ns#"
	 xmlns="http://www.w3.org/2000/svg" xmlns:xlink="http://www.w3.org/1999/xlink" x="0px" y="0px" width="11px" height="11px"
	 viewBox="-294 195 11 11" enable-background="new -294 195 11 11" xml:space="preserve">
<sodipodi:namedview  inkscape:snap-intersection-paths="true" inkscape:snap-bbox-edge-midpoints="true" inkscape:guide-bbox="true" inkscape:window-maximized="0" inkscape:window-y="14" inkscape:window-x="68" inkscape:snap-smooth-nodes="true" inkscape:object-nodes="true" inkscape:object-paths="true" inkscape:snap-bbox-midpoints="true" inkscape:bbox-nodes="true" inkscape:bbox-paths="true" inkscape:snap-bbox="true" inkscape:document-units="px" inkscape:current-layer="svg4764" inkscape:pageopacity="0" inkscape:window-height="624" inkscape:window-width="1185" inkscape:pageshadow="2" pagecolor="#ffffff" bordercolor="#666666" inkscape:cx="4.8572242" inkscape:cy="5.1695726" showborder="true" gridtolerance="10" objecttolerance="10" borderopacity="1" showgrid="false" id="namedview3364" guidetolerance="10" inkscape:zoom="32" showguides="false" inkscape:snap-global="true" inkscape:showpageshadow="false">
	<inkscape:grid  color="#ff0000" type="xygrid" opacity="0.1254902" empspacing="2" spacingx="0.5" spacingy="0.5" id="grid3333">
		</inkscape:grid>
	<sodipodi:guide  id="guide7169" position="0,11" orientation="1,0"></sodipodi:guide>
	<sodipodi:guide  id="guide7171" position="0,11" orientation="0,1"></sodipodi:guide>
	<sodipodi:guide  id="guide7173" position="11,11" orientation="1,0"></sodipodi:guide>
	<sodipodi:guide  id="guide7175" position="0,0" orientation="0,1"></sodipodi:guide>
</sodipodi:namedview>
<path d="M-283.5,198.5c0-2.5-4-2.5-4-2.5h-2c0,0-4,0-4,2.5v1.5h10V198.5z"/>
<path d="M-283.5,201h-10c-0.3,0-0.5,0.2-0.5,0.5s0.2,0.5,0.5,0.5h10c0.3,0,0.5-0.2,0.5-0.5S-283.2,201-283.5,201z"/>
<path d="M-284,203h-9c-0.3,0-0.5,0.2-0.5,0.5v1c0,0.3,0.2,0.5,0.5,0.5h9c0.3,0,0.5-0.2,0.5-0.5v-1C-283.5,203.2-283.7,203-284,203z"
	/>
</svg>
