<?xml version="1.0" encoding="utf-8"?>
<!-- Generator: Adobe Illustrator 19.2.1, SVG Export Plug-In . SVG Version: 6.00 Build 0)  -->
<svg version="1.1"
	 id="svg4619" inkscape:version="0.91 r13725" sodipodi:docname="fire-station-15.svg" xmlns:cc="http://creativecommons.org/ns#" xmlns:dc="http://purl.org/dc/elements/1.1/" xmlns:inkscape="http://www.inkscape.org/namespaces/inkscape" xmlns:rdf="http://www.w3.org/1999/02/22-rdf-syntax-ns#" xmlns:sodipodi="http://sodipodi.sourceforge.net/DTD/sodipodi-0.dtd" xmlns:svg="http://www.w3.org/2000/svg"
	 xmlns="http://www.w3.org/2000/svg" xmlns:xlink="http://www.w3.org/1999/xlink" x="0px" y="0px" viewBox="0 0 30 30"
	 style="enable-background:new 0 0 30 30;" xml:space="preserve">
<style type="text/css">
	.st0{fill:none;stroke:#999999;stroke-width:0.1;stroke-miterlimit:10;}
	.st1{fill:none;stroke:#000000;stroke-width:0.1;stroke-miterlimit:10;}
</style>
<sodipodi:namedview  bordercolor="#666666" borderopacity="1" gridtolerance="10" guidetolerance="10" id="namedview3394" inkscape:bbox-nodes="true" inkscape:bbox-paths="true" inkscape:current-layer="svg4619" inkscape:cx="5.7518618" inkscape:cy="15.184605" inkscape:document-units="px" inkscape:object-nodes="true" inkscape:object-paths="true" inkscape:pageopacity="0" inkscape:pageshadow="2" inkscape:snap-bbox="true" inkscape:snap-bbox-edge-midpoints="true" inkscape:snap-bbox-midpoints="true" inkscape:snap-intersection-paths="true" inkscape:snap-smooth-nodes="true" inkscape:window-height="755" inkscape:window-maximized="0" inkscape:window-width="1129" inkscape:window-x="0" inkscape:window-y="0" inkscape:zoom="25.414249" objecttolerance="10" pagecolor="#ffffff" showgrid="true">
	<inkscape:grid  color="#ff0000" empspacing="2" id="grid3333" opacity="0.1254902" spacingx="0.5" spacingy="0.5" type="xygrid">
		</inkscape:grid>
</sodipodi:namedview>
<path id="path10041-3-3" inkscape:connector-curvature="0" sodipodi:nodetypes="cccsssccccsssc" class="st0" d="M15,8l-2.5,4L11,10
	c-0.6,1-2.7,3.3-2.7,5.8c0,3.7,3,6.7,6.7,6.7s6.7-3,6.7-6.7c0-2.5-2.1-4.8-2.7-5.8l-1.5,2L15,8z M15,14.5c0,0,2.5,2.6,2.5,4.5
	c0,0.8-0.8,2-2.5,2s-2.5-1.2-2.5-2C12.5,17.1,15,14.5,15,14.5z"/>
<rect x="7.5" y="7.5" class="st1" width="15" height="15"/>
<path class="st1" d="M21.5,30c0,3.6-2.9,6.5-6.5,6.5S8.5,33.6,8.5,30c0-1.3,0.4-2.5,1-3.5c1.2-1.8,3.2-3,5.5-3c2.3,0,4.3,1.2,5.5,3
	C21.1,27.5,21.5,28.7,21.5,30z"/>
<path class="st1" d="M9.5,12.5L11,10l1.5,2L15,8l2.5,4l1.5-2l1.5,2.5c0.6,1,1,2.2,1,3.5c0,3.6-2.9,6.5-6.5,6.5S8.5,19.6,8.5,16
	C8.5,14.7,8.9,13.5,9.5,12.5z"/>
<ellipse class="st0" cx="15" cy="19" rx="2.5" ry="2"/>
</svg>
