<?xml version="1.0" encoding="utf-8"?>
<!-- Generator: Adobe Illustrator 18.1.0, SVG Export Plug-In . SVG Version: 6.00 Build 0)  -->
<!DOCTYPE svg PUBLIC "-//W3C//DTD SVG 1.1//EN" "http://www.w3.org/Graphics/SVG/1.1/DTD/svg11.dtd">
<svg version="1.1"
	 id="svg4619" sodipodi:docname="fuel-15.svg" inkscape:version="0.91+devel+osxmenu r12911" xmlns:svg="http://www.w3.org/2000/svg" xmlns:rdf="http://www.w3.org/1999/02/22-rdf-syntax-ns#" xmlns:sodipodi="http://sodipodi.sourceforge.net/DTD/sodipodi-0.dtd" xmlns:inkscape="http://www.inkscape.org/namespaces/inkscape" xmlns:dc="http://purl.org/dc/elements/1.1/" xmlns:cc="http://creativecommons.org/ns#"
	 xmlns="http://www.w3.org/2000/svg" xmlns:xlink="http://www.w3.org/1999/xlink" x="0px" y="0px" width="15px" height="15px"
	 viewBox="-292 193 15 15" enable-background="new -292 193 15 15" xml:space="preserve">
<sodipodi:namedview  inkscape:window-maximized="0" inkscape:window-y="0" inkscape:window-x="0" inkscape:snap-smooth-nodes="true" inkscape:object-nodes="true" inkscape:bbox-paths="true" inkscape:bbox-nodes="true" inkscape:snap-bbox="true" inkscape:document-units="px" inkscape:current-layer="svg4619" inkscape:pageopacity="0" inkscape:window-height="709" inkscape:pageshadow="2" inkscape:window-width="910" inkscape:snap-intersection-paths="true" inkscape:snap-bbox-edge-midpoints="true" pagecolor="#ffffff" bordercolor="#666666" inkscape:cx="5.5214925" inkscape:cy="9.4277002" gridtolerance="10" objecttolerance="10" borderopacity="1" showgrid="false" id="namedview3406" guidetolerance="10" inkscape:zoom="22.627417">
	
		<inkscape:grid  color="#ff0000" type="xygrid" opacity="0.1254902" empspacing="2" spacingx="0.44117647" spacingy="0.44117647" id="grid3333">
		</inkscape:grid>
</sodipodi:namedview>
<path id="path7262" d="M-289,194c-0.5,0-1,0.5-1,1v11c0,0,0,1,1,1h7c1,0,1-1,1-1v-1h1h1c1,0,1-1,1-1v-1.5c0-1.1-1-1.4-1-2.5v-2.5
	c0-1-1-1.5-2-1.5v-1c0-1-1-1-1-1H-289z M-288,196h5c1,0,1,1,1,1v2c0,1-1,1-1,1h-5c0,0-1,0-1-1v-2C-289,196-288,196-288,196z
	 M-287.5,197l-0.5,0.2v0.2h0.5v1.5h0.5v-2H-287.5z M-285,197c-0.3,0-0.5,0.4-0.5,1s0.2,1,0.5,1s0.5-0.4,0.5-1S-284.7,197-285,197z
	 M-283.5,197c-0.3,0-0.5,0.4-0.5,1l0,0c0,0.6,0.2,1,0.5,1l0,0c0.3,0,0.5-0.4,0.5-1l0,0C-283,197.4-283.2,197-283.5,197L-283.5,197z
	 M-286.2,198.5c-0.1,0-0.2,0.1-0.2,0.2s0.1,0.2,0.2,0.2s0.2-0.1,0.2-0.2S-286.1,198.5-286.2,198.5z M-281,200h1v0.5
	c0,1.1,1,1.4,1,2.5v0.5c0,0.5-0.5,0.5-0.5,0.5h-1.5V200z"/>
</svg>
