<?xml version="1.0" encoding="utf-8"?>
<!-- Generator: Adobe Illustrator 18.1.0, SVG Export Plug-In . SVG Version: 6.00 Build 0)  -->
<!DOCTYPE svg PUBLIC "-//W3C//DTD SVG 1.1//EN" "http://www.w3.org/Graphics/SVG/1.1/DTD/svg11.dtd">
<svg version="1.1"
	 id="svg4619" sodipodi:docname="garden-15.svg" inkscape:version="0.91+devel+osxmenu r12911" xmlns:svg="http://www.w3.org/2000/svg" xmlns:rdf="http://www.w3.org/1999/02/22-rdf-syntax-ns#" xmlns:sodipodi="http://sodipodi.sourceforge.net/DTD/sodipodi-0.dtd" xmlns:inkscape="http://www.inkscape.org/namespaces/inkscape" xmlns:dc="http://purl.org/dc/elements/1.1/" xmlns:cc="http://creativecommons.org/ns#"
	 xmlns="http://www.w3.org/2000/svg" xmlns:xlink="http://www.w3.org/1999/xlink" x="0px" y="0px" width="15px" height="15px"
	 viewBox="-292 193 15 15" enable-background="new -292 193 15 15" xml:space="preserve">
<sodipodi:namedview  inkscape:snap-smooth-nodes="true" inkscape:object-nodes="true" inkscape:snap-bbox="true" inkscape:document-units="px" inkscape:current-layer="svg4619" inkscape:object-paths="true" inkscape:pageopacity="0" inkscape:window-height="480" inkscape:pageshadow="2" inkscape:window-width="640" inkscape:snap-intersection-paths="true" pagecolor="#ffffff" bordercolor="#666666" inkscape:cx="6.0683696" inkscape:cy="9.9730985" gridtolerance="10" objecttolerance="10" borderopacity="1" showgrid="false" id="namedview3418" guidetolerance="10" inkscape:zoom="22.627417">
	
		<inkscape:grid  color="#ff3f3f" type="xygrid" opacity="0.1254902" empspacing="2" spacingx="0.44117647" spacingy="0.44117647" id="grid8408">
		</inkscape:grid>
</sodipodi:namedview>
<path id="path8375" sodipodi:nodetypes="sssssscccsscccccssscssscccscccsc" inkscape:connector-curvature="0" d="M-284.5,193
	c-2.1,0-4.1,0.7-4.1,2.7v2c0,1.2,0.7,2.5,2,2.7c1.1,0.2,3.4-0.2,3.4-2.8c0-0.7-0.5-1.7-1.4-1.7c-1.7,0-3-0.5-3-1c0-0.6,1.3-1,3-1
	c0.5,0,1,0,1.5,0.1C-282.9,193.5-283.7,193-284.5,193z M-281.1,194c-0.3,0-0.5,0.2-0.6,0.6c0.1,0.1,0.2,0.2,0.2,0.4
	c0,0.2-0.2,0.4-0.6,0.6c-0.1,0.1-0.2,0.1-0.3,0.1c-0.1,0-0.3,0.1-0.4,0.1c-0.1,0.1-0.2,0.3,0,0.6c0.2,0.3,0.3,0.8,0.3,1.3
	c0,1.4-0.4,2.2-1.3,2.8c-1.1,0.7,0,0.7,0,0.7c1.9,0,3.4-1.7,3.4-3.4V195C-280.4,194.4-280.8,194-281.1,194z M-285,202l-0.2,4.6
	c-0.8-1.6-2.8-3.6-5.8-1.6c0,0,2.3,3,6.5,3s6.5-3,6.5-3c-3-2-5,0-5.8,1.6l-0.2-4.6c0,0,0-0.5-0.5-0.5S-285,202-285,202z"/>
</svg>
