<svg id="Layer_1" data-name="Layer 1" xmlns="http://www.w3.org/2000/svg" width="15" height="15" viewBox="0 0 15 15">
  <title>gift-15</title>
  <path d="M6.5,5.5v4h-5v-4h5Zm2,0v4h5v-4h-5ZM1.5,11v2.5A1.5,1.5,0,0,0,3,15H6.5V11h-5Zm7,0v4H12a1.5,1.5,0,0,0,1.5-1.5V11h-5Zm4-9a1.75,1.75,0,0,1-2,2H4.41A1.73,1.73,0,0,1,2.5,2a1.94,1.94,0,0,1,2-2,3,3,0,0,1,3,2.25A3,3,0,0,1,10.5,0,2,2,0,0,1,12.5,2Zm-6,1a2,2,0,0,0-2-2,0.92,0.92,0,0,0-1,1,0.92,0.92,0,0,0,1,1h2Zm5-1a1,1,0,0,0-1-1,2,2,0,0,0-2,2h2A0.92,0.92,0,0,0,11.5,2Z"/>
</svg>
