<svg id="Layer_1" data-name="Layer 1" xmlns="http://www.w3.org/2000/svg" width="11" height="11" viewBox="0 0 11 11">
  <title>gift-11</title>
  <path d="M4.5,8v3H2.21A1.21,1.21,0,0,1,1,9.79V8H4.5Zm2,0v3H8.79A1.21,1.21,0,0,0,10,9.79V8H6.5ZM9,1.52A1.27,1.27,0,0,1,7.62,3H3.33A1.26,1.26,0,0,1,2,1.5,1.41,1.41,0,0,1,3.4,0,2.12,2.12,0,0,1,5.5,1.69,2.13,2.13,0,0,1,7.6,0,1.43,1.43,0,0,1,9,1.52Zm-4.2.73A1.43,1.43,0,0,0,3.4.75a0.68,0.68,0,0,0-.7.75,0.68,0.68,0,0,0,.7.75H4.8ZM8.3,1.5A0.71,0.71,0,0,0,7.6.75a1.43,1.43,0,0,0-1.4,1.5H7.6A0.68,0.68,0,0,0,8.3,1.5ZM1,6H4.5V4.5H1V6ZM6.5,6H10V4.5H6.5V6Z"/>
</svg>
