<?xml version="1.0" encoding="utf-8"?>
<!-- Generator: Adobe Illustrator 18.1.0, SVG Export Plug-In . SVG Version: 6.00 Build 0)  -->
<!DOCTYPE svg PUBLIC "-//W3C//DTD SVG 1.1//EN" "http://www.w3.org/Graphics/SVG/1.1/DTD/svg11.dtd">
<svg version="1.1"
	 id="svg4619" sodipodi:docname="golf-15.svg" inkscape:version="0.91+devel+osxmenu r12911" xmlns:svg="http://www.w3.org/2000/svg" xmlns:rdf="http://www.w3.org/1999/02/22-rdf-syntax-ns#" xmlns:sodipodi="http://sodipodi.sourceforge.net/DTD/sodipodi-0.dtd" xmlns:inkscape="http://www.inkscape.org/namespaces/inkscape" xmlns:dc="http://purl.org/dc/elements/1.1/" xmlns:cc="http://creativecommons.org/ns#"
	 xmlns="http://www.w3.org/2000/svg" xmlns:xlink="http://www.w3.org/1999/xlink" x="0px" y="0px" width="15px" height="15px"
	 viewBox="-292 193 15 15" enable-background="new -292 193 15 15" xml:space="preserve">
<path id="path11758" sodipodi:nodetypes="ccccccccccccccccccscccccssccsssss" inkscape:connector-curvature="0" d="M-288.2,194.2
	l-0.1,0.3l-0.3,0.6c0,0.1,0,0.2,0,0.2c0,0.4,0.3,0.7,0.7,0.7c0.3,0,0.5-0.2,0.6-0.5c0,0,0,0,0,0l0.2-0.5l5.6,2.3l-3.9,2.7
	c-0.4,0.3-0.4,0.7-0.3,1.1l0.9,2.1l-1.3,3.9c-0.2,0.5,0.2,0.9,0.6,0.9c0.3,0,0.5-0.1,0.6-0.5l1.4-4l0.1,0.3v3.5c0,0,0,0.7,0.7,0.7
	s0.7-0.7,0.7-0.7V204c0-0.2,0-0.3-0.1-0.5l-1.4-3.4l2.7-1.9c0.2-0.2,0.4-0.3,0.4-0.6c0-0.3-0.2-0.5-0.4-0.6l-7.2-2.9
	C-287.9,194-288.1,194-288.2,194.2L-288.2,194.2z M-286.5,197c-0.8,0-1.5,0.7-1.5,1.5s0.7,1.5,1.5,1.5s1.5-0.7,1.5-1.5
	S-285.7,197-286.5,197z"/>
</svg>
