<?xml version="1.0" encoding="UTF-8" standalone="no"?>
<!-- Created with Inkscape (http://www.inkscape.org/) -->

<svg
   xmlns:dc="http://purl.org/dc/elements/1.1/"
   xmlns:cc="http://creativecommons.org/ns#"
   xmlns:rdf="http://www.w3.org/1999/02/22-rdf-syntax-ns#"
   xmlns:svg="http://www.w3.org/2000/svg"
   xmlns="http://www.w3.org/2000/svg"
   xmlns:sodipodi="http://sodipodi.sourceforge.net/DTD/sodipodi-0.dtd"
   xmlns:inkscape="http://www.inkscape.org/namespaces/inkscape"
   version="1.1"
   width="11"
   height="11"
   id="svg4764"
   inkscape:version="0.91+devel+osxmenu r12911"
   sodipodi:docname="hairdresser-11.svg"
   viewBox="0 0 11 11">
  <sodipodi:namedview
     pagecolor="#ffffff"
     bordercolor="#666666"
     borderopacity="1"
     objecttolerance="10"
     gridtolerance="10"
     guidetolerance="10"
     inkscape:pageopacity="0"
     inkscape:pageshadow="2"
     inkscape:window-width="1029"
     inkscape:window-height="646"
     id="namedview3340"
     inkscape:document-units="px"
     showgrid="true"
     inkscape:snap-bbox="true"
     inkscape:bbox-paths="true"
     inkscape:bbox-nodes="true"
     inkscape:zoom="45.254834"
     inkscape:cx="7.9010014"
     inkscape:cy="4.4138636"
     inkscape:window-x="0"
     inkscape:window-y="23"
     inkscape:window-maximized="0"
     inkscape:current-layer="svg4764"
     inkscape:object-paths="true"
     inkscape:object-nodes="true"
     inkscape:snap-intersection-paths="true"
     inkscape:snap-smooth-nodes="true"
     inkscape:snap-nodes="true">
    <inkscape:grid
       type="xygrid"
       id="grid3342"
       spacingx="0.5"
       spacingy="0.5"
       empspacing="2"
       color="#ff0000"
       opacity="0.1254902" />
  </sodipodi:namedview>
  <defs
     id="defs4766" />
  <metadata
     id="metadata4769">
    <rdf:RDF>
      <cc:Work
         rdf:about="">
        <dc:format>image/svg+xml</dc:format>
        <dc:type
           rdf:resource="http://purl.org/dc/dcmitype/StillImage" />
        <dc:title />
      </cc:Work>
    </rdf:RDF>
  </metadata>
  <path
     style="fill:#000000;fill-opacity:1;fill-rule:evenodd;stroke:none;stroke-width:1px;stroke-linecap:butt;stroke-linejoin:miter;stroke-opacity:1"
     d="M 1.5 2 A 1.5 1.5 0 0 0 0 3.5 L 0 4.5 C 0 5 0.5 5 0.5 5 L 1.5 5 C 3 5 4 5.5 4 5.5 C 4 5.5 3 6 1.5 6 L 0.5 6 C 0.5 6 1.4802974e-16 6 0 6.5 L 0 7.5 A 1.5 1.5 0 0 0 1.5 9 A 1.5 1.5 0 0 0 3 7.5 L 3 6.8847656 C 3.808196 6.7270055 4.5864906 6.4316405 5.2246094 6.1425781 L 8.5 8 C 10 8.75 11 8 11 8 L 6.5 5.5 L 11 3 C 11 3 10 2.25 8.5 3 L 5.2246094 4.8574219 C 4.5865585 4.5683903 3.8081416 4.273053 3 4.1152344 L 3 3.5039062 A 1.5 1.5 0 0 0 3 3.5 A 1.5 1.5 0 0 0 1.5 2 z M 1.5 3 A 0.5 0.5 0 0 1 2 3.5 A 0.5 0.5 0 0 1 1.5 4 A 0.5 0.5 0 0 1 1 3.5 A 0.5 0.5 0 0 1 1.5 3 z M 5.2324219 5.25 A 0.25 0.25 0 0 1 5.25 5.25 A 0.25 0.25 0 0 1 5.5 5.5 A 0.25 0.25 0 0 1 5.25 5.75 A 0.25 0.25 0 0 1 5 5.5 A 0.25 0.25 0 0 1 5.2324219 5.25 z M 1.5 7 A 0.5 0.5 0 0 1 2 7.5 A 0.5 0.5 0 0 1 1.5 8 A 0.5 0.5 0 0 1 1 7.5 A 0.5 0.5 0 0 1 1.5 7 z "
     id="path6232" />
</svg>
