<?xml version="1.0" encoding="UTF-8" standalone="no"?>
<!-- Created with Inkscape (http://www.inkscape.org/) -->

<svg
   xmlns:dc="http://purl.org/dc/elements/1.1/"
   xmlns:cc="http://creativecommons.org/ns#"
   xmlns:rdf="http://www.w3.org/1999/02/22-rdf-syntax-ns#"
   xmlns:svg="http://www.w3.org/2000/svg"
   xmlns="http://www.w3.org/2000/svg"
   xmlns:sodipodi="http://sodipodi.sourceforge.net/DTD/sodipodi-0.dtd"
   xmlns:inkscape="http://www.inkscape.org/namespaces/inkscape"
   version="1.1"
   width="11"
   height="11"
   id="svg4764"
   inkscape:version="0.91 r13725"
   sodipodi:docname="harbor-11.svg"
   viewBox="0 0 11 11">
  <sodipodi:namedview
     pagecolor="#ffffff"
     bordercolor="#666666"
     borderopacity="1"
     objecttolerance="10"
     gridtolerance="10"
     guidetolerance="10"
     inkscape:pageopacity="0"
     inkscape:pageshadow="2"
     inkscape:window-width="1920"
     inkscape:window-height="959"
     id="namedview3352"
     inkscape:document-units="px"
     showgrid="false"
     inkscape:snap-bbox="true"
     inkscape:object-paths="true"
     inkscape:bbox-paths="true"
     inkscape:bbox-nodes="true"
     inkscape:object-nodes="true"
     inkscape:snap-intersection-paths="true"
     inkscape:snap-smooth-nodes="true"
     inkscape:zoom="16"
     inkscape:cx="2.9243644"
     inkscape:cy="4.0762194"
     inkscape:current-layer="svg4764"
     inkscape:window-x="76"
     inkscape:window-y="0"
     inkscape:window-maximized="0"
     inkscape:snap-nodes="true"
     inkscape:snap-bbox-edge-midpoints="true">
    <inkscape:grid
       type="xygrid"
       id="grid3407"
       spacingx="0.5"
       spacingy="0.5"
       color="#ff0000"
       opacity="0.1254902"
       empspacing="2" />
  </sodipodi:namedview>
  <defs
     id="defs4766" />
  <metadata
     id="metadata4769">
    <rdf:RDF>
      <cc:Work
         rdf:about="">
        <dc:format>image/svg+xml</dc:format>
        <dc:type
           rdf:resource="http://purl.org/dc/dcmitype/StillImage" />
        <dc:title></dc:title>
      </cc:Work>
    </rdf:RDF>
  </metadata>
  <path
     style="opacity:1;fill:#000000;fill-opacity:1;stroke:none;stroke-width:1;stroke-linecap:round;stroke-linejoin:miter;stroke-miterlimit:4;stroke-dasharray:none;stroke-dashoffset:0;stroke-opacity:1"
     d="M 5.5 0 C 4.1192881 0 3 1.1192881 3 2.5 C 3.0018327 3.5981385 3.721663 4.5466119 4.75 4.8710938 L 4.75 9.4160156 C 4.0910131 9.3010557 3.4118878 9.0407167 2.8574219 8.5585938 C 2.088577 7.8900621 1.5 6.8296669 1.5 5 C 1.5055122 4.5773634 1.1609023 4.2336371 0.73828125 4.2402344 C 0.3248373 4.2467008 -0.00539271 4.5865407 0 5 C 0 7.1703331 0.77305943 8.7349379 1.8730469 9.6914062 C 2.9730343 10.647875 4.3333184 11 5.5 11 C 6.6666816 11 8.0269657 10.647875 9.1269531 9.6914062 C 10.226941 8.7349379 11 7.1703331 11 5 C 11.014344 3.985758 9.4856561 3.985758 9.5 5 C 9.5 6.8296669 8.911423 7.8900621 8.1425781 8.5585938 C 7.5881122 9.0407167 6.9089869 9.3010557 6.25 9.4160156 L 6.25 4.875 C 7.2795194 4.5500036 7.9998809 3.5994972 8 2.5 C 8 1.1192881 6.8807119 0 5.5 0 z M 5.5 1.5 C 6.0522847 1.5 6.5 1.9477153 6.5 2.5 C 6.5 3.0522847 6.0522847 3.5 5.5 3.5 C 4.9477153 3.5 4.5 3.0522847 4.5 2.5 C 4.5 1.9477153 4.9477153 1.5 5.5 1.5 z "
     id="path5263" />
</svg>
