<?xml version="1.0" encoding="utf-8"?>
<!-- Generator: Adobe Illustrator 18.1.0, SVG Export Plug-In . SVG Version: 6.00 Build 0)  -->
<!DOCTYPE svg PUBLIC "-//W3C//DTD SVG 1.1//EN" "http://www.w3.org/Graphics/SVG/1.1/DTD/svg11.dtd">
<svg version="1.1"
	 id="svg4619" sodipodi:docname="hospital-15.svg" inkscape:version="0.91 r13725" xmlns:svg="http://www.w3.org/2000/svg" xmlns:rdf="http://www.w3.org/1999/02/22-rdf-syntax-ns#" xmlns:sodipodi="http://sodipodi.sourceforge.net/DTD/sodipodi-0.dtd" xmlns:inkscape="http://www.inkscape.org/namespaces/inkscape" xmlns:dc="http://purl.org/dc/elements/1.1/" xmlns:cc="http://creativecommons.org/ns#"
	 xmlns="http://www.w3.org/2000/svg" xmlns:xlink="http://www.w3.org/1999/xlink" x="0px" y="0px" width="15px" height="15px"
	 viewBox="-292 193 15 15" enable-background="new -292 193 15 15" xml:space="preserve">
<sodipodi:namedview  inkscape:window-maximized="0" inkscape:window-y="0" inkscape:window-x="0" inkscape:bbox-nodes="true" inkscape:bbox-paths="true" inkscape:snap-bbox="true" inkscape:document-units="px" inkscape:current-layer="svg4619" inkscape:pageopacity="0" inkscape:window-height="1035" inkscape:window-width="1920" inkscape:pageshadow="2" inkscape:snap-bbox-edge-midpoints="false" pagecolor="#ffffff" bordercolor="#666666" inkscape:cx="-0.55637729" inkscape:cy="9.0510325" gridtolerance="10" objecttolerance="10" borderopacity="1" showgrid="false" id="namedview3382" guidetolerance="10" inkscape:zoom="11.313708">
	<inkscape:grid  type="xygrid" color="#ff3f3f" spacingy="0.5" spacingx="0.5" empspacing="2" opacity="0.1254902" id="grid3383">
		</inkscape:grid>
</sodipodi:namedview>
<path id="rect4194" inkscape:connector-curvature="0" d="M-285,194c-0.6,0-1,0.4-1,1v4h-4c-0.6,0-1,0.4-1,1v1c0,0.6,0.4,1,1,1h4v4
	c0,0.6,0.4,1,1,1h1c0.6,0,1-0.4,1-1v-4h4c0.6,0,1-0.4,1-1v-1c0-0.6-0.4-1-1-1h-4v-4c0-0.6-0.4-1-1-1H-285z"/>
</svg>
