<?xml version="1.0" encoding="UTF-8" standalone="no"?>
<!-- Created with Inkscape (http://www.inkscape.org/) -->

<svg
   xmlns:dc="http://purl.org/dc/elements/1.1/"
   xmlns:cc="http://creativecommons.org/ns#"
   xmlns:rdf="http://www.w3.org/1999/02/22-rdf-syntax-ns#"
   xmlns:svg="http://www.w3.org/2000/svg"
   xmlns="http://www.w3.org/2000/svg"
   xmlns:sodipodi="http://sodipodi.sourceforge.net/DTD/sodipodi-0.dtd"
   xmlns:inkscape="http://www.inkscape.org/namespaces/inkscape"
   version="1.1"
   width="11"
   height="11"
   id="svg4764"
   xml:space="preserve"
   inkscape:version="0.91 r13725"
   sodipodi:docname="ice-cream-11.svg"
   viewBox="0 0 11 11"><sodipodi:namedview
     pagecolor="#ffffff"
     bordercolor="#666666"
     borderopacity="1"
     objecttolerance="10"
     gridtolerance="10"
     guidetolerance="10"
     inkscape:pageopacity="0"
     inkscape:pageshadow="2"
     inkscape:window-width="929"
     inkscape:window-height="739"
     id="namedview3393"
     inkscape:document-units="px"
     showgrid="true"
     inkscape:object-paths="true"
     inkscape:snap-intersection-paths="true"
     inkscape:snap-bbox="true"
     inkscape:bbox-paths="true"
     inkscape:bbox-nodes="true"
     inkscape:zoom="37.502848"
     inkscape:cx="7.1024324"
     inkscape:cy="5.4565424"
     inkscape:current-layer="svg4764"
     inkscape:object-nodes="true"
     inkscape:snap-smooth-nodes="true"
     inkscape:snap-bbox-edge-midpoints="true"
     inkscape:window-x="0"
     inkscape:window-y="0"
     inkscape:window-maximized="0"><inkscape:grid
       type="xygrid"
       id="grid3404"
       spacingx="0.5"
       spacingy="0.5"
       color="#ff0000"
       opacity="0.1254902"
       empspacing="2" /></sodipodi:namedview><metadata
     id="metadata27"><rdf:RDF><cc:Work
         rdf:about=""><dc:format>image/svg+xml</dc:format><dc:type
           rdf:resource="http://purl.org/dc/dcmitype/StillImage" /><dc:title></dc:title></cc:Work></rdf:RDF></metadata><defs
     id="defs25" /><path
     style="opacity:1;fill:#000000;fill-opacity:1;stroke:none;stroke-width:1;stroke-linecap:round;stroke-linejoin:miter;stroke-miterlimit:4;stroke-dasharray:none;stroke-dashoffset:0;stroke-opacity:1"
     d="M 5.25 0.5 C 4.8345 0.5 4.5 0.8345 4.5 1.25 C 4.5 1.6655 4.8345 2 5.25 2 L 4.25 2 C 3.8345 2 3.5 2.3345 3.5 2.75 C 3.5 3.1655 3.8345 3.5 4.25 3.5 L 3.25 3.5 C 2.8345 3.5 2.5 3.8345 2.5 4.25 C 2.5 4.6655 2.8345 5 3.25 5 L 7.75 5 C 8.1655 5 8.5 4.6655 8.5 4.25 C 8.5 3.8345 8.1655 3.5 7.75 3.5 L 6.75 3.5 C 7.1655 3.5 7.5 3.1655 7.5 2.75 C 7.5 2.3345 7.1655 2 6.75 2 L 5.75 2 C 6.1655 2 6.5 1.6655 6.5 1.25 C 6.5 0.8345 6.1655 0.5 5.75 0.5 L 5.25 0.5 z M 3 5.5 L 3 7 L 3.5 7 L 4 11 L 7 11 L 7.5 7 L 8 7 L 8 5.5 L 3 5.5 z "
     id="rect3349" /></svg>
