<?xml version="1.0" encoding="utf-8"?>
<!-- Generator: Adobe Illustrator 19.2.0, SVG Export Plug-In . SVG Version: 6.00 Build 0)  -->
<svg version="1.1"
	 id="svg4619" inkscape:version="0.91 r13725" sodipodi:docname="mountain-15.svg" xmlns:cc="http://creativecommons.org/ns#" xmlns:dc="http://purl.org/dc/elements/1.1/" xmlns:inkscape="http://www.inkscape.org/namespaces/inkscape" xmlns:rdf="http://www.w3.org/1999/02/22-rdf-syntax-ns#" xmlns:sodipodi="http://sodipodi.sourceforge.net/DTD/sodipodi-0.dtd" xmlns:svg="http://www.w3.org/2000/svg"
	 xmlns="http://www.w3.org/2000/svg" xmlns:xlink="http://www.w3.org/1999/xlink" x="0px" y="0px" height="15" width="15" viewBox="0 0 15 15"
	 style="enable-background:new 0 0 15 15;" xml:space="preserve">
<sodipodi:namedview  bordercolor="#666666" borderopacity="1" gridtolerance="10" guidetolerance="10" id="namedview4136" inkscape:bbox-nodes="true" inkscape:bbox-paths="true" inkscape:current-layer="svg4619" inkscape:cx="-4.1020648" inkscape:cy="-0.83077493" inkscape:guide-bbox="true" inkscape:object-nodes="true" inkscape:object-paths="true" inkscape:pageopacity="0" inkscape:pageshadow="2" inkscape:snap-bbox="true" inkscape:snap-intersection-paths="true" inkscape:snap-nodes="true" inkscape:snap-smooth-nodes="true" inkscape:window-height="894" inkscape:window-maximized="0" inkscape:window-width="1544" inkscape:window-x="94" inkscape:window-y="72" inkscape:zoom="16" objecttolerance="10" pagecolor="#ffffff" showborder="true" showgrid="true" showguides="false">
	<inkscape:grid  color="#ff0000" empspacing="2" id="grid4714" opacity="0.1254902" spacingx="0.5" spacingy="0.5" type="xygrid">
		</inkscape:grid>
	<sodipodi:guide  id="guide5600" orientation="-0.85255609,0.52263574" position="7.5,11.5"></sodipodi:guide>
</sodipodi:namedview>
<path id="path5571" inkscape:connector-curvature="0" sodipodi:nodetypes="sccssssccsccccccccc" d="M7.5,2C7.2,2,7.1,2.2,6.9,2.4
	l-5.8,9.5C1,12,1,12.2,1,12.3C1,12.8,1.4,13,1.7,13h11.6c0.4,0,0.7-0.2,0.7-0.7c0-0.2,0-0.2-0.1-0.4L8.2,2.4C8,2.2,7.8,2,7.5,2z
	 M7.5,3.5L10.8,9H10L8.5,7.5L7.5,9l-1-1.5L5,9H4.1L7.5,3.5z"/>
</svg>
