<svg id="Layer_1" data-name="Layer 1" xmlns="http://www.w3.org/2000/svg" width="11" height="11" viewBox="0 0 11 11">
  <title>parking-garage-11</title>
  <path d="M7.25,7.44a2.35,2.35,0,0,1-1.53.44H4.45V10H3.19V4H5.8a2.13,2.13,0,0,1,1.44.46,1.79,1.79,0,0,1,.54,1.43A1.84,1.84,0,0,1,7.25,7.44Zm-1-2.16a1,1,0,0,0-.68-0.2H4.45V6.84H5.6a1,1,0,0,0,.68-0.22,0.87,0.87,0,0,0,.24-0.68A0.82,0.82,0,0,0,6.28,5.28Zm4.16-2a0.5,0.5,0,0,0-.19-0.68l-4.5-2.5a0.5,0.5,0,0,0-.49,0l-4.5,2.5a0.5,0.5,0,0,0,.49.87L5.5,1.07,9.76,3.44A0.5,0.5,0,0,0,10.44,3.24Z"/>
</svg>
