<?xml version="1.0" encoding="UTF-8" standalone="no"?>
<!-- Generator: Adobe Illustrator 17.1.0, SVG Export Plug-In . SVG Version: 6.00 Build 0)  -->

<svg
   xmlns:dc="http://purl.org/dc/elements/1.1/"
   xmlns:cc="http://creativecommons.org/ns#"
   xmlns:rdf="http://www.w3.org/1999/02/22-rdf-syntax-ns#"
   xmlns:svg="http://www.w3.org/2000/svg"
   xmlns="http://www.w3.org/2000/svg"
   xmlns:sodipodi="http://sodipodi.sourceforge.net/DTD/sodipodi-0.dtd"
   xmlns:inkscape="http://www.inkscape.org/namespaces/inkscape"
   version="1.1"
   id="svg4619"
   x="0px"
   y="0px"
   height='15'
   width='15'
   viewBox="0 0 15 15"
   enable-background="new 0 0 15 15"
   xml:space="preserve"
   inkscape:version="0.91+devel+osxmenu r12911"
   sodipodi:docname="park-15.svg"><metadata
     id="metadata9571"><rdf:RDF><cc:Work
         rdf:about=""><dc:format>image/svg+xml</dc:format><dc:type
           rdf:resource="http://purl.org/dc/dcmitype/StillImage" /><dc:title /></cc:Work></rdf:RDF></metadata><defs
     id="defs9569" /><sodipodi:namedview
     pagecolor="#ffffff"
     bordercolor="#666666"
     borderopacity="1"
     objecttolerance="10"
     gridtolerance="10"
     guidetolerance="10"
     inkscape:pageopacity="0"
     inkscape:pageshadow="2"
     inkscape:window-width="640"
     inkscape:window-height="480"
     id="namedview9567"
     showgrid="false"
     inkscape:snap-bbox="true"
     inkscape:bbox-paths="true"
     inkscape:bbox-nodes="true"
     inkscape:snap-bbox-edge-midpoints="true"
     inkscape:object-paths="true"
     inkscape:object-nodes="true"
     inkscape:snap-smooth-nodes="true"
     inkscape:zoom="5.6568542"
     inkscape:cx="-39.406021"
     inkscape:cy="40.074143"
     inkscape:current-layer="svg4619"><inkscape:grid
       type="xygrid"
       id="grid10171"
       spacingx="0.5"
       spacingy="0.5"
       color="#ff3f3f"
       opacity="0.1254902"
       empspacing="2" /></sodipodi:namedview><path
     style="color:#000000;font-style:normal;font-variant:normal;font-weight:normal;font-stretch:normal;font-size:medium;line-height:normal;font-family:sans-serif;text-indent:0;text-align:start;text-decoration:none;text-decoration-line:none;text-decoration-style:solid;text-decoration-color:#000000;letter-spacing:normal;word-spacing:normal;text-transform:none;direction:ltr;block-progression:tb;writing-mode:lr-tb;baseline-shift:baseline;text-anchor:start;white-space:normal;shape-padding:0;clip-rule:nonzero;display:inline;overflow:visible;visibility:visible;opacity:1;isolation:auto;mix-blend-mode:normal;color-interpolation:sRGB;color-interpolation-filters:linearRGB;solid-color:#000000;solid-opacity:1;fill:#000000;fill-opacity:1;fill-rule:nonzero;stroke:none;stroke-width:1;stroke-linecap:round;stroke-linejoin:round;stroke-miterlimit:4;stroke-dasharray:none;stroke-dashoffset:0;stroke-opacity:1;color-rendering:auto;image-rendering:auto;shape-rendering:auto;text-rendering:auto;enable-background:accumulate"
     d="M 7.4785156,0 C 7.3919085,0.00379885 7.3077767,0.03004797 7.234375,0.07617187 l -4,2.50000003 C 2.9268465,2.7689135 2.9206252,3.2147684 3.222656,3.4160156 c 0,0 0.8948713,0.4617623 1.9804688,0.7773438 L 1.2421875,6.5703125 c -0.35653798,0.2125902 -0.31377439,0.7419314 0.072266,0.8945313 0,0 1.6426444,0.5146745 3.5429688,0.796875 L 1.2773438,10.052734 c -0.38689446,0.192379 -0.36413467,0.751796 0.037109,0.91211 0,0 2.6855472,1.285156 5.1855469,1.535156 l 3e-7,2 c 2.76e-5,0.276131 0.2238691,0.499972 0.5,0.5 l 1,0 c 0.2761309,-2.8e-5 0.4999724,-0.223869 0.5,-0.5 l 0,-2 c 2.5,-0.25 5.185547,-1.535156 5.185547,-1.535156 0.401244,-0.160313 0.424004,-0.719731 0.03711,-0.91211 L 10.142578,8.2617188 c 1.900325,-0.2822005 3.542969,-0.796875 3.542969,-0.796875 0.386039,-0.1526027 0.428799,-0.6819433 0.07226,-0.8945313 L 9.796875,4.1933594 C 10.882473,3.8777779 11.777344,3.4160156 11.777344,3.4160156 12.079375,3.214768 12.073153,2.7689131 11.765624,2.5761719 l -4,-2.50000003 C 7.6798458,0.02228639 7.5797246,-0.00427646 7.4785156,0 Z"
     id="path10181"
     inkscape:connector-curvature="0"
     sodipodi:nodetypes="cccccccccccccccccccccccccc" /></svg>
