<svg id="Layer_1" data-name="Layer 1" xmlns="http://www.w3.org/2000/svg" width="15" height="15" viewBox="0 0 15 15">
  <title>parking-garage-15</title>
  <path d="M10.5,10.14a3.53,3.53,0,0,1-2.29.66H6.31V14H4.41V5H8.33a3.2,3.2,0,0,1,2.16.69,2.69,2.69,0,0,1,.81,2.15A2.76,2.76,0,0,1,10.5,10.14ZM9,6.9a1.56,1.56,0,0,0-1-.3H6.31V9.25H8a1.48,1.48,0,0,0,1-.32,1.31,1.31,0,0,0,.36-1A1.23,1.23,0,0,0,9,6.9Zm5.41-2.69a0.5,0.5,0,0,0-.24-0.66L7.5,0.45,0.79,3.55a0.5,0.5,0,1,0,.42.91L7.5,1.55l6.29,2.9A0.5,0.5,0,0,0,14.45,4.21Z" fill="#231f20"/>
</svg>
