<?xml version="1.0" encoding="UTF-8" standalone="no"?>
<!-- Generator: Adobe Illustrator 18.1.0, SVG Export Plug-In . SVG Version: 6.00 Build 0)  -->

<svg
   xmlns:dc="http://purl.org/dc/elements/1.1/"
   xmlns:cc="http://creativecommons.org/ns#"
   xmlns:rdf="http://www.w3.org/1999/02/22-rdf-syntax-ns#"
   xmlns:svg="http://www.w3.org/2000/svg"
   xmlns="http://www.w3.org/2000/svg"
   xmlns:sodipodi="http://sodipodi.sourceforge.net/DTD/sodipodi-0.dtd"
   xmlns:inkscape="http://www.inkscape.org/namespaces/inkscape"
   version="1.1"
   id="svg4619"
   sodipodi:docname="playground-15.svg"
   inkscape:version="0.91 r13725"
   x="0px"
   y="0px"
   width="15px"
   height="15px"
   viewBox="-292 193 15 15"
   enable-background="new -292 193 15 15"
   xml:space="preserve"><metadata
     id="metadata4140"><rdf:RDF><cc:Work
         rdf:about=""><dc:format>image/svg+xml</dc:format><dc:type
           rdf:resource="http://purl.org/dc/dcmitype/StillImage" /><dc:title></dc:title></cc:Work></rdf:RDF></metadata><defs
     id="defs4138" /><sodipodi:namedview
     pagecolor="#ffffff"
     bordercolor="#666666"
     borderopacity="1"
     objecttolerance="10"
     gridtolerance="10"
     guidetolerance="10"
     inkscape:pageopacity="0"
     inkscape:pageshadow="2"
     inkscape:window-width="1645"
     inkscape:window-height="863"
     id="namedview4136"
     showgrid="true"
     inkscape:zoom="32"
     inkscape:cx="12.322261"
     inkscape:cy="5.8922944"
     inkscape:window-x="104"
     inkscape:window-y="66"
     inkscape:window-maximized="0"
     inkscape:current-layer="svg4619"
     inkscape:snap-bbox="true"
     inkscape:bbox-paths="true"
     inkscape:object-paths="true"
     inkscape:object-nodes="true"
     inkscape:snap-smooth-nodes="true"
     inkscape:snap-intersection-paths="true"><inkscape:grid
       type="xygrid"
       id="grid4714" /></sodipodi:namedview><path
     d="m -288.5,194.5 -2.5,2 0,9 c 0,0 0,0.5 0.5,0.5 0.5,0 0.5,-0.5 0.5,-0.5 l 0,-0.5 3,0 0,0.5 c 0,0 0,0.5 0.5,0.5 0.5,0 0.5,-0.5 0.5,-0.5 l 0,-4.45581 c 0.49898,0 1.00078,0.25542 1.30078,0.55542 0.4,0.3 0.69961,0.9 1.09961,1.5 0.4,0.6 0.80039,1.30039 1.40039,1.90039 0.5,0.5 1.19922,1 2.19922,1 l 1.5,0 0,-2 c -2.5,0 -3.04895,-1.44355 -3.40039,-2 -0.4,-0.6 -0.80039,-1.30039 -1.40039,-1.90039 C -283.90078,199.49961 -285,199 -286,199 l 0,-2.5 z m -1.5,6.5 3,0 0,1 -3,0 z m 0,2 3,0 0,1 -3,0 z"
     id="path4134"
     inkscape:connector-curvature="0"
     sodipodi:nodetypes="cccsccccscccssscccsccccccccccccc" /></svg>