<?xml version="1.0" encoding="UTF-8" standalone="no"?>
<!-- Generator: Adobe Illustrator 17.1.0, SVG Export Plug-In . SVG Version: 6.00 Build 0)  -->

<svg
   xmlns:dc="http://purl.org/dc/elements/1.1/"
   xmlns:cc="http://creativecommons.org/ns#"
   xmlns:rdf="http://www.w3.org/1999/02/22-rdf-syntax-ns#"
   xmlns:svg="http://www.w3.org/2000/svg"
   xmlns="http://www.w3.org/2000/svg"
   xmlns:sodipodi="http://sodipodi.sourceforge.net/DTD/sodipodi-0.dtd"
   xmlns:inkscape="http://www.inkscape.org/namespaces/inkscape"
   version="1.1"
   id="svg4619"
   x="0px"
   y="0px"
   height='15'
   width='15'
   viewBox="0 0 15 15"
   enable-background="new 0 0 15 15"
   xml:space="preserve"
   inkscape:version="0.91 r13725"
   sodipodi:docname="rail-15.svg"><metadata
     id="metadata8"><rdf:RDF><cc:Work
         rdf:about=""><dc:format>image/svg+xml</dc:format><dc:type
           rdf:resource="http://purl.org/dc/dcmitype/StillImage" /><dc:title></dc:title></cc:Work></rdf:RDF></metadata><defs
     id="defs6" /><sodipodi:namedview
     pagecolor="#ffffff"
     bordercolor="#666666"
     borderopacity="1"
     objecttolerance="10"
     gridtolerance="10"
     guidetolerance="10"
     inkscape:pageopacity="0"
     inkscape:pageshadow="2"
     inkscape:window-width="1192"
     inkscape:window-height="749"
     id="namedview4"
     showgrid="false"
     inkscape:snap-bbox="true"
     inkscape:bbox-paths="true"
     inkscape:bbox-nodes="true"
     inkscape:snap-bbox-edge-midpoints="true"
     inkscape:snap-bbox-midpoints="true"
     inkscape:object-paths="true"
     inkscape:snap-intersection-paths="true"
     inkscape:object-nodes="true"
     inkscape:snap-smooth-nodes="true"
     inkscape:zoom="22.627417"
     inkscape:cx="6.2725029"
     inkscape:cy="5.5140115"
     inkscape:window-x="30"
     inkscape:window-y="0"
     inkscape:window-maximized="0"
     inkscape:current-layer="svg4619"><inkscape:grid
       type="xygrid"
       id="grid3336"
       spacingx="0.5"
       spacingy="0.5"
       empspacing="2"
       color="#ff0000"
       opacity="0.1254902" /></sodipodi:namedview><path
     inkscape:connector-curvature="0"
     id="path14003"
     d="M 3.5,0 C 3.5,0 2,-2.4545453e-8 2,1.5 l 0,8 C 2,11 3.5,11 3.5,11 l 8,0 c 0,0 1.5,0 1.5,-1.5 l 0,-8 C 13,1.5 13,0 11.5,0 l -8,0 z m 2.25,0.5 3.5,0 C 9.3885,0.5 9.5,0.6115 9.5,0.75 9.5,0.8885 9.3885,1 9.25,1 L 5.75,1 C 5.6115,1 5.5,0.8885 5.5,0.75 5.5,0.6115 5.6115,0.5 5.75,0.5 Z M 4,2 7,2 7,7 4,7 C 3,7 3,6 3,6 L 3,3 C 3,2 4,2 4,2 Z m 4,0 3,0 c 0,0 1,-7.996e-4 1,1 l 0,3 c 0,1 -1,1 -1,1 L 8,7 8,2 Z M 5,8 A 0.99999998,0.99999998 0 0 1 6,9 0.99999998,0.99999998 0 0 1 5,10 0.99999998,0.99999998 0 0 1 4,9 0.99999998,0.99999998 0 0 1 5,8 Z m 5,0 A 0.99999998,0.99999998 0 0 1 11,9 0.99999998,0.99999998 0 0 1 10,10 0.99999998,0.99999998 0 0 1 9,9 0.99999998,0.99999998 0 0 1 10,8 Z M 4.125,12 3,15 l 1.5,0 0.375,-1 5.25,0 0.375,1 1.5,0 -1.125,-3 -1.5,0 0.375,1 -4.5,0 0.375,-1 -1.5,0 z"
     style="fill:#000000;fill-opacity:1;fill-rule:evenodd;stroke:none;stroke-width:1px;stroke-linecap:butt;stroke-linejoin:miter;stroke-opacity:1" /></svg>