<?xml version="1.0" encoding="UTF-8" standalone="no"?>
<!-- Generator: Adobe Illustrator 17.1.0, SVG Export Plug-In . SVG Version: 6.00 Build 0)  -->

<svg
   xmlns:dc="http://purl.org/dc/elements/1.1/"
   xmlns:cc="http://creativecommons.org/ns#"
   xmlns:rdf="http://www.w3.org/1999/02/22-rdf-syntax-ns#"
   xmlns:svg="http://www.w3.org/2000/svg"
   xmlns="http://www.w3.org/2000/svg"
   xmlns:sodipodi="http://sodipodi.sourceforge.net/DTD/sodipodi-0.dtd"
   xmlns:inkscape="http://www.inkscape.org/namespaces/inkscape"
   version="1.1"
   id="svg4764"
   x="0px"
   y="0px"
   height='11'
   width='11'
   viewBox="0 0 11 11"
   enable-background="new 0 0 11 11"
   xml:space="preserve"
   inkscape:version="0.91+devel+osxmenu r12911"
   sodipodi:docname="rocket-11.svg"><metadata
     id="metadata8"><rdf:RDF><cc:Work
         rdf:about=""><dc:format>image/svg+xml</dc:format><dc:type
           rdf:resource="http://purl.org/dc/dcmitype/StillImage" /><dc:title /></cc:Work></rdf:RDF></metadata><defs
     id="defs6" /><sodipodi:namedview
     pagecolor="#ffffff"
     bordercolor="#666666"
     borderopacity="1"
     objecttolerance="10"
     gridtolerance="10"
     guidetolerance="10"
     inkscape:pageopacity="0"
     inkscape:pageshadow="2"
     inkscape:window-width="819"
     inkscape:window-height="677"
     id="namedview4"
     showgrid="false"
     inkscape:snap-bbox="true"
     inkscape:bbox-paths="true"
     inkscape:bbox-nodes="true"
     inkscape:snap-bbox-edge-midpoints="true"
     inkscape:snap-bbox-midpoints="true"
     inkscape:object-paths="true"
     inkscape:snap-intersection-paths="true"
     inkscape:object-nodes="true"
     inkscape:snap-smooth-nodes="true"
     inkscape:zoom="32"
     inkscape:cx="9.4445051"
     inkscape:cy="4.2650334"
     inkscape:window-x="29"
     inkscape:window-y="38"
     inkscape:window-maximized="0"
     inkscape:current-layer="svg4764"><inkscape:grid
       type="xygrid"
       id="grid3336"
       spacingx="0.5"
       spacingy="0.5"
       empspacing="2"
       color="#ff0000"
       opacity="0.1254902" /></sodipodi:namedview><path
     style="fill:#000000;fill-opacity:1"
     d="M 9 1 C 7.4879756 1 5.407655 2.1458844 4.0488281 4 L 3 4 C 2.19877 4.0000006 1.816225 4.3675417 1.5 5 L 1 6 L 2 6 L 3 6 L 4 7 L 5 8 L 5 9 L 5 10 L 6 9.5 C 6.632455 9.183773 7 8.8012293 7 8 L 7 6.9511719 C 8.8541156 5.592345 10 3.5120244 10 2 L 10 1 L 9 1 z M 7.5 3 A 0.5 0.5 0 0 1 8 3.5 A 0.5 0.5 0 0 1 7.5 4 A 0.5 0.5 0 0 1 7 3.5 A 0.5 0.5 0 0 1 7.5 3 z M 2.75 7.25 L 2.5 7.5 C 2 8 2 9 2 9 C 2 9 2.9447573 9.055243 3.5 8.5 L 3.75 8.25 L 2.75 7.25 z "
     id="path7143" /></svg>
