<?xml version="1.0" encoding="UTF-8" standalone="no"?>
<!-- Generator: Adobe Illustrator 17.1.0, SVG Export Plug-In . SVG Version: 6.00 Build 0)  -->

<svg
   xmlns:dc="http://purl.org/dc/elements/1.1/"
   xmlns:cc="http://creativecommons.org/ns#"
   xmlns:rdf="http://www.w3.org/1999/02/22-rdf-syntax-ns#"
   xmlns:svg="http://www.w3.org/2000/svg"
   xmlns="http://www.w3.org/2000/svg"
   xmlns:sodipodi="http://sodipodi.sourceforge.net/DTD/sodipodi-0.dtd"
   xmlns:inkscape="http://www.inkscape.org/namespaces/inkscape"
   version="1.1"
   id="svg4619"
   x="0px"
   y="0px"
   height='15'
   width='15'
   viewBox="0 0 15 15"
   enable-background="new 0 0 15 15"
   xml:space="preserve"
   inkscape:version="0.91 r13725"
   sodipodi:docname="suitcase-15.svg"><metadata
     id="metadata8"><rdf:RDF><cc:Work
         rdf:about=""><dc:format>image/svg+xml</dc:format><dc:type
           rdf:resource="http://purl.org/dc/dcmitype/StillImage" /><dc:title></dc:title></cc:Work></rdf:RDF></metadata><defs
     id="defs6" /><sodipodi:namedview
     pagecolor="#ffffff"
     bordercolor="#666666"
     borderopacity="1"
     objecttolerance="10"
     gridtolerance="10"
     guidetolerance="10"
     inkscape:pageopacity="0"
     inkscape:pageshadow="2"
     inkscape:window-width="1325"
     inkscape:window-height="904"
     id="namedview4"
     showgrid="true"
     inkscape:snap-bbox="true"
     inkscape:bbox-paths="true"
     inkscape:bbox-nodes="true"
     inkscape:snap-bbox-edge-midpoints="true"
     inkscape:snap-bbox-midpoints="true"
     inkscape:object-paths="true"
     inkscape:snap-intersection-paths="true"
     inkscape:object-nodes="true"
     inkscape:snap-smooth-nodes="true"
     inkscape:zoom="31.466667"
     inkscape:cx="8.8494095"
     inkscape:cy="8.1635274"
     inkscape:window-x="759"
     inkscape:window-y="48"
     inkscape:window-maximized="0"
     inkscape:current-layer="svg4619"><inkscape:grid
       type="xygrid"
       id="grid3336"
       spacingx="0.5"
       spacingy="0.5"
       empspacing="2"
       color="#ff0000"
       opacity="0.1254902" /></sodipodi:namedview><path
     style="fill:#000000;fill-opacity:1"
     id="path17"
     inkscape:connector-curvature="0"
     d="M 11,4 11,2 C 11,1 10,1 10,1 L 5.0497046,1 C 5.0497046,1 3.9458423,1.00147 4,2 L 4,4 2,4 C 2,4 1,4 1,5 l 0,7 c 0,1 1,1 1,1 l 11,0 c 0,0 1,0 1,-1 L 14,5 C 14,4 13,4 13,4 Z m -5.5,-1.5 4,0 0,1.5 -4,0 z"
     sodipodi:nodetypes="csccsccssccssccccccc" /></svg>