<svg id="Layer_1" data-name="Layer 1" xmlns="http://www.w3.org/2000/svg" width="15" height="15" viewBox="0 0 15 15">
  <title>tennis-15</title>
  <path d="M8.5,4.84A1.5,1.5,0,1,1,7,3.34,1.5,1.5,0,0,1,8.5,4.84Zm5.32,0.34L11.94,3.29a1.3,1.3,0,0,1-.69.21,2.25,2.25,0,0,1-1.54-.7A1.79,1.79,0,0,1,9.36.35,1.26,1.26,0,0,1,10.27,0a2.25,2.25,0,0,1,1.54.7A1.89,1.89,0,0,1,12.31,3l1.87,1.87Zm-2-2.38a1.33,1.33,0,0,0-.35-1.74A1.76,1.76,0,0,0,10.27.5a0.78,0.78,0,0,0-.56.2,1.33,1.33,0,0,0,.35,1.74A1.76,1.76,0,0,0,11.25,3,0.77,0.77,0,0,0,11.81,2.8Zm1,2.85a0.5,0.5,0,0,0-.71,0L10.79,7H5.5l-3,4h0L0.1,14.2a0.5,0.5,0,0,0,.1.7,0.49,0.49,0,0,0,.3.1,0.5,0.5,0,0,0,.4-0.2L3.75,11H5v3.5a0.5,0.5,0,0,0,1,0V11L8.25,8h3l1.65-1.65A0.5,0.5,0,0,0,12.85,5.65ZM11.5,9.5H9.21L8.85,9.15a0.5,0.5,0,0,0-.71.71L8.79,10.5H11.5A0.5,0.5,0,0,0,11.5,9.5Z"/>
</svg>
