<?xml version="1.0" encoding="UTF-8" standalone="no"?>
<!-- Generator: Adobe Illustrator 18.1.0, SVG Export Plug-In . SVG Version: 6.00 Build 0)  -->

<svg
   xmlns:dc="http://purl.org/dc/elements/1.1/"
   xmlns:cc="http://creativecommons.org/ns#"
   xmlns:rdf="http://www.w3.org/1999/02/22-rdf-syntax-ns#"
   xmlns:svg="http://www.w3.org/2000/svg"
   xmlns="http://www.w3.org/2000/svg"
   xmlns:sodipodi="http://sodipodi.sourceforge.net/DTD/sodipodi-0.dtd"
   xmlns:inkscape="http://www.inkscape.org/namespaces/inkscape"
   version="1.1"
   id="svg2"
   sodipodi:docname="toilet-11.svg"
   inkscape:version="0.91 r13725"
   x="0px"
   y="0px"
   width="11px"
   height="11px"
   viewBox="0 0 11 11"
   xml:space="preserve"><metadata
     id="metadata11"><rdf:RDF><cc:Work
         rdf:about=""><dc:format>image/svg+xml</dc:format><dc:type
           rdf:resource="http://purl.org/dc/dcmitype/StillImage" /><dc:title></dc:title></cc:Work></rdf:RDF></metadata><defs
     id="defs9" /><sodipodi:namedview
     inkscape:guide-bbox="true"
     inkscape:window-maximized="0"
     inkscape:window-y="169"
     inkscape:window-x="534"
     inkscape:window-height="1002"
     inkscape:window-width="1628"
     inkscape:snap-smooth-nodes="true"
     inkscape:object-nodes="true"
     inkscape:object-paths="true"
     inkscape:snap-bbox-midpoints="false"
     inkscape:bbox-nodes="true"
     inkscape:current-layer="svg2"
     inkscape:pageshadow="2"
     inkscape:document-units="px"
     inkscape:pageopacity="0.0"
     inkscape:snap-bbox="true"
     inkscape:bbox-paths="true"
     inkscape:snap-intersection-paths="true"
     id="base"
     units="px"
     showguides="true"
     showborder="true"
     borderopacity="1.0"
     bordercolor="#666666"
     pagecolor="#ffffff"
     inkscape:cy="5.5000152"
     inkscape:cx="-5.3717667"
     inkscape:zoom="22.627417"
     showgrid="false"
     inkscape:snap-bbox-edge-midpoints="true"><inkscape:grid
       color="#ff3f00"
       type="xygrid"
       spacingy="0.5"
       id="grid3336"
       opacity="0.1254902"
       spacingx="0.5"
       empspacing="2" /></sodipodi:namedview><path
     d="M 3.3007812 0 A 1.2 1.2 0 0 0 2.0996094 1.1992188 A 1.2 1.2 0 0 0 3.3007812 2.4003906 A 1.2 1.2 0 0 0 4.5 1.1992188 A 1.2 1.2 0 0 0 3.3007812 0 z M 8.8007812 0 A 1.2 1.2 0 0 0 7.5996094 1.1992188 A 1.2 1.2 0 0 0 8.8007812 2.4003906 A 1.2 1.2 0 0 0 10 1.1992188 A 1.2 1.2 0 0 0 8.8007812 0 z M 2.5 3 L 0 8.5 L 2.5 8.5 L 2.5 11 L 4 11 L 4 8.5 L 6.5 8.5 L 4 3 L 2.5 3 z M 7 3 C 6.7 3 6.5 3.2 6.5 3.5 L 6.5 6.5 C 6.5 6.8 6.7 7 7 7 L 7.1992188 7 L 7.5 7 L 7.5 8.5 L 8 8.5 L 8 11 L 9.5 11 L 9.5 8.5 L 10 8.5 L 10 7 L 10.5 7 C 10.8 7 11 6.8 11 6.5 L 11 3.5 C 11 3.2 10.8 3 10.5 3 L 10.400391 3 L 10 3 L 9 3 L 8.5 3 L 7.5 3 L 7 3 z "
     id="path3340" /></svg>