<?xml version="1.0" encoding="utf-8"?>
<!-- Generator: Adobe Illustrator 18.1.0, SVG Export Plug-In . SVG Version: 6.00 Build 0)  -->
<!DOCTYPE svg PUBLIC "-//W3C//DTD SVG 1.1//EN" "http://www.w3.org/Graphics/SVG/1.1/DTD/svg11.dtd">
<svg version="1.1"
	 id="svg2" sodipodi:docname="vets-15.svg" inkscape:version="0.91 r13725" xmlns:svg="http://www.w3.org/2000/svg" xmlns:rdf="http://www.w3.org/1999/02/22-rdf-syntax-ns#" xmlns:sodipodi="http://sodipodi.sourceforge.net/DTD/sodipodi-0.dtd" xmlns:inkscape="http://www.inkscape.org/namespaces/inkscape" xmlns:dc="http://purl.org/dc/elements/1.1/" xmlns:cc="http://creativecommons.org/ns#"
	 xmlns="http://www.w3.org/2000/svg" xmlns:xlink="http://www.w3.org/1999/xlink" x="0px" y="0px" width="15px" height="15px"
	 viewBox="-292 193 15 15" enable-background="new -292 193 15 15" xml:space="preserve">
<sodipodi:namedview  inkscape:guide-bbox="true" inkscape:window-maximized="0" inkscape:window-y="186" inkscape:window-x="341" inkscape:window-height="781" inkscape:window-width="1481" inkscape:snap-smooth-nodes="true" inkscape:object-nodes="true" inkscape:object-paths="true" inkscape:snap-bbox-midpoints="true" inkscape:bbox-nodes="true" inkscape:current-layer="layer1" inkscape:pageshadow="2" inkscape:document-units="px" inkscape:pageopacity="0.0" inkscape:snap-bbox="true" inkscape:bbox-paths="true" inkscape:snap-intersection-paths="true" id="base" units="px" showguides="true" showborder="false" borderopacity="1.0" bordercolor="#666666" pagecolor="#ffffff" inkscape:cy="5.1870371" inkscape:cx="18.055213" inkscape:zoom="5.6568542" showgrid="false" inkscape:snap-bbox-edge-midpoints="true">
	<inkscape:grid  color="#ff3f00" type="xygrid" spacingy="0.5" id="grid3336" opacity="0.1254902" spacingx="0.5" empspacing="2">
		</inkscape:grid>
</sodipodi:namedview>
<path id="path3340" d="M-284.5,199c-2.5,0-3,2.3-3,3.5c0,0,0,0,0,0c-1.1,0.4-1.7,0.9-1.7,0.9c-0.9,0.7-1,1.9-0.4,2.8
	c0.7,0.9,1.9,1,2.8,0.4c0,0,0.9-0.7,2.3-0.7s2.3,0.7,2.3,0.7c0.8,0.7,2.1,0.6,2.8-0.3c0.7-0.8,0.6-2.1-0.3-2.8c0,0-0.1-0.1-0.1-0.1
	c0,0-0.7-0.5-1.7-0.9c0,0,0,0,0,0C-281.5,201.3-282,199-284.5,199z"/>
<path id="ellipse4153" d="M-290,197c-0.8,0.2-1.2,1.3-0.9,2.4c0.3,1.1,1.1,1.8,1.9,1.6c0.8-0.2,1.2-1.3,0.9-2.4
	C-288.4,197.5-289.2,196.8-290,197z"/>
<path id="ellipse4163" d="M-279,197c0.8,0.2,1.2,1.3,0.9,2.4c-0.3,1.1-1.1,1.8-1.9,1.6c-0.8-0.2-1.2-1.3-0.9-2.4
	S-279.8,196.8-279,197z"/>
<path id="ellipse4165" d="M-287,194c-0.8,0.1-1.2,1.1-0.9,2.2c0.3,1.1,1.1,1.9,1.9,1.8c0.8-0.1,1.2-1.1,0.9-2.2
	C-285.4,194.7-286.2,193.9-287,194z"/>
<path id="ellipse4167" d="M-282,194c0.8,0.1,1.2,1.1,0.9,2.2c-0.3,1.1-1.1,1.9-1.9,1.8s-1.2-1.1-0.9-2.2
	C-283.6,194.7-282.8,193.9-282,194z"/>
</svg>
