<svg id="Layer_1" data-name="Layer 1" xmlns="http://www.w3.org/2000/svg" width="15" height="15" viewBox="0 0 15 15">
  <title>wetland-15</title>
  <path d="M1.48,4.5A2.18,2.18,0,0,1,3,4a2.36,2.36,0,0,1,2.5,2l0.78,4.68a2.3,2.3,0,0,0-2,.05L3.48,6A2.21,2.21,0,0,0,1.48,4.5Zm5.83,6.93a0.25,0.25,0,0,0,.33,0l0.23-.2L8.11,11a2.39,2.39,0,0,1,3,0L12,6a2.21,2.21,0,0,1,2-1.5,2.18,2.18,0,0,0-1.5-.5A2.36,2.36,0,0,0,10,6l0.5-3a2.21,2.21,0,0,1,2-1.5A2.18,2.18,0,0,0,11,1a2.36,2.36,0,0,0-2.5,2L7.11,11.25Zm5.43,1-0.47.41a0.75,0.75,0,0,1-1,0c-0.15-.12-0.29-0.26-0.44-0.39a1.9,1.9,0,0,0-2.45,0c-0.16.13-.31,0.28-0.47,0.41a0.75,0.75,0,0,1-1,0c-0.16-.13-0.31-0.28-0.47-0.41a1.9,1.9,0,0,0-2.44,0c-0.15.13-.29,0.27-0.44,0.39a0.92,0.92,0,0,1-.3.16,0.84,0.84,0,0,1-.8-0.25,6.17,6.17,0,0,0-.79-0.58A1.25,1.25,0,0,0,1,12v1a0.93,0.93,0,0,1,.64.31L2,13.57a1.89,1.89,0,0,0,2.33.06c0.19-.14.36-0.32,0.55-0.47a0.75,0.75,0,0,1,1,0l0.39,0.35a1.91,1.91,0,0,0,2.46.07c0.15-.11.27-0.25,0.42-0.37a0.77,0.77,0,0,1,1.1,0l0.39,0.35a1.89,1.89,0,0,0,1.76.37,2.14,2.14,0,0,0,1-.6A1,1,0,0,1,14,13V12A1.78,1.78,0,0,0,12.75,12.4Z"/>
</svg>
