<svg id="Layer_1" data-name="Layer 1" xmlns="http://www.w3.org/2000/svg" width="15" height="15" viewBox="0 0 15 15">
  <title>wheelchair-15</title>
  <path d="M1.8,7.6a4,4,0,0,1,2.27-.73,4.07,4.07,0,0,1,4.06,4.07,4,4,0,0,1-.73,2.27L6.11,11.91a2.24,2.24,0,0,0,.25-1A2.29,2.29,0,0,0,4.07,8.65a2.24,2.24,0,0,0-1,.25ZM10.5,0A1.5,1.5,0,1,0,12,1.5,1.5,1.5,0,0,0,10.5,0ZM3.88,4.07L5.1,2.65l1.51,0.9L5.39,5.63A5.48,5.48,0,0,1,8.2,7.35L9.5,5.13a0.89,0.89,0,0,0-.31-1.22L5.26,1.57a0.5,0.5,0,0,0-.64.1L3.12,3.42A0.5,0.5,0,1,0,3.88,4.07ZM5.05,13a2.24,2.24,0,0,1-1,.25,2.29,2.29,0,0,1-2.29-2.29A2.24,2.24,0,0,1,2,10L0.74,8.66A4,4,0,0,0,0,10.94,4.07,4.07,0,0,0,4.07,15a4,4,0,0,0,2.28-.74Zm8.41,0.34-2-5A0.5,0.5,0,0,0,11,8H8.68a5.46,5.46,0,0,1,.5,1h1.48l1.88,4.69A0.5,0.5,0,1,0,13.46,13.31Z"/>
</svg>
