<svg id="Layer_1" data-name="Layer 1" xmlns="http://www.w3.org/2000/svg" width="11" height="11" viewBox="0 0 11 11">
  <title>wheelchair-11</title>
  <path d="M2.22,5.41A2.74,2.74,0,0,1,3.8,4.9,2.8,2.8,0,0,1,6.6,7.7a2.74,2.74,0,0,1-.51,1.57L5.2,8.39A1.54,1.54,0,0,0,5.38,7.7,1.58,1.58,0,0,0,3.8,6.12a1.54,1.54,0,0,0-.69.18ZM7.42,0a1,1,0,1,0,1,1A1,1,0,0,0,7.42,0ZM3.36,3.36L4.2,2.68,4.94,3.15,4.4,4A3.74,3.74,0,0,1,6.52,5.12l0.62-1a0.64,0.64,0,0,0-.2-0.89L6.74,3.11h0L4.39,1.62a0.5,0.5,0,0,0-.63.07l-1.12,1A0.5,0.5,0,0,0,3.36,3.36ZM4.49,9.1a1.54,1.54,0,0,1-.7.18A1.58,1.58,0,0,1,2.22,7.7,1.54,1.54,0,0,1,2.4,7L1.52,6.12A2.74,2.74,0,0,0,1,7.7a2.8,2.8,0,0,0,2.8,2.8A2.74,2.74,0,0,0,5.38,10ZM9,5.9a0.49,0.49,0,0,0-.52-0.4H6.83a3.73,3.73,0,0,1,.52,1L8,6.49,9,9.61a0.5,0.5,0,0,0,.49.4h0.1A0.5,0.5,0,0,0,10,9.41Z"/>
</svg>
