<?xml version="1.0" encoding="utf-8"?>
<!-- Generator: Adobe Illustrator 18.1.0, SVG Export Plug-In . SVG Version: 6.00 Build 0)  -->
<!DOCTYPE svg PUBLIC "-//W3C//DTD SVG 1.1//EN" "http://www.w3.org/Graphics/SVG/1.1/DTD/svg11.dtd">
<svg version="1.1"
	 id="svg4764" sodipodi:docname="zoo-11.svg" inkscape:version="0.91+devel+osxmenu r12911" xmlns:svg="http://www.w3.org/2000/svg" xmlns:rdf="http://www.w3.org/1999/02/22-rdf-syntax-ns#" xmlns:sodipodi="http://sodipodi.sourceforge.net/DTD/sodipodi-0.dtd" xmlns:inkscape="http://www.inkscape.org/namespaces/inkscape" xmlns:dc="http://purl.org/dc/elements/1.1/" xmlns:cc="http://creativecommons.org/ns#"
	 xmlns="http://www.w3.org/2000/svg" xmlns:xlink="http://www.w3.org/1999/xlink" x="0px" y="0px" width="11px" height="11px"
	 viewBox="-294 195 11 11" enable-background="new -294 195 11 11" xml:space="preserve">
<path d="M-286,197c-0.9,0-1.5,0.5-1.8,1.1c0,0-0.7,0.9-1.2,0.9h-2c-0.5,0-1,0.5-1,0.5l-2,2v0.5h0.5l1.2-1.2l0.2,0.2
	c0,0-0.7,1.3-0.7,2.6c0,0.5,0.5,0.5,0.5,0.5h0.5c0,0,0.2,0,0-0.2l-0.2-0.2c0-0.5,0.6-1,1-1.5c0,0,0,0.6,0,1.2c0,0.3,0.2,0.8,0.5,0.8
	h0.5c0,0,0.2,0,0-0.2l-0.2-0.2c-0.2-0.4,0.5-1.5,0.5-1.5h1.8l0.5,1.5c0.2,0.5,0.5,0.5,0.5,0.5h1c0.2,0,0.7-0.2,0.2-0.5l-0.2-0.2V202
	v0c1,0,1.1-1.3,1.5-1.7l0.7-0.1c0.2,0,0.8-0.2,0.8-0.8V199l-1.2-1l0,0C-284.6,197.4-285.3,197-286,197z"/>
</svg>
