<?xml version="1.0" encoding="utf-8"?>
<!-- Generator: Adobe Illustrator 18.1.1, SVG Export Plug-In . SVG Version: 6.00 Build 0)  -->
<svg version="1.1" xmlns="http://www.w3.org/2000/svg" xmlns:xlink="http://www.w3.org/1999/xlink" x="0px" y="0px"
	 viewBox="0 0 24 24" enable-background="new 0 0 24 24" xml:space="preserve">
<g id="shadows-text-objects" display="none">
	
		<text transform="matrix(1 0 0 1 8.7739 18.4326)" display="inline" opacity="0.2" font-family="'FrutigerLTStd-Roman'" font-size="17">0</text>
</g>
<g id="numbers-text-objects" display="none">
	<text transform="matrix(1 0 0 1 7.7739 17.4329)" display="inline" font-family="'FrutigerLTStd-Roman'" font-size="17">0</text>
</g>
<g id="shadows-outlines">
	<g opacity="0.2">
		<path d="M13.499,6.364c3.281,0,4.029,3.536,4.029,6.136s-0.748,6.137-4.029,6.137c-3.28,0-4.028-3.536-4.028-6.137
			S10.219,6.364,13.499,6.364z M13.499,17.243c2.04,0,2.228-3.264,2.228-4.743c0-1.496-0.272-4.742-2.228-4.742
			c-1.955,0-2.227,3.247-2.227,4.742C11.272,13.979,11.459,17.243,13.499,17.243z"/>
	</g>
</g>
<g id="numbers-outlines">
	<g>
		<path d="M12.5,5.364c3.281,0,4.029,3.536,4.029,6.136s-0.748,6.137-4.029,6.137S8.471,14.101,8.471,11.5S9.219,5.364,12.5,5.364z
			 M12.5,16.243c2.04,0,2.227-3.264,2.227-4.743c0-1.496-0.272-4.742-2.227-4.742c-1.955,0-2.227,3.247-2.227,4.742
			C10.272,12.979,10.459,16.243,12.5,16.243z"/>
	</g>
</g>
</svg>
