<?xml version="1.0" encoding="utf-8"?>
<!-- Generator: Adobe Illustrator 18.1.1, SVG Export Plug-In . SVG Version: 6.00 Build 0)  -->
<svg version="1.1" xmlns="http://www.w3.org/2000/svg" xmlns:xlink="http://www.w3.org/1999/xlink" x="0px" y="0px"
	 viewBox="0 0 18 18" enable-background="new 0 0 18 18" xml:space="preserve">
<g id="shadows-text-objects" display="none">
	
		<text transform="matrix(1 0 0 1 6.636 13.7503)" display="inline" opacity="0.2" font-family="'FrutigerLTStd-Roman'" font-size="13">0</text>
</g>
<g id="numbers-text-objects" display="none">
	<text transform="matrix(1 0 0 1 5.8862 13.0002)" display="inline" font-family="'FrutigerLTStd-Roman'" font-size="13">0</text>
</g>
<g id="shadows-outlines">
	<g opacity="0.2">
		<path d="M10.25,4.52c2.51,0,3.081,2.704,3.081,4.693c0,1.989-0.571,4.693-3.081,4.693c-2.509,0-3.081-2.704-3.081-4.693
			C7.169,7.224,7.741,4.52,10.25,4.52z M10.25,12.84c1.561,0,1.703-2.496,1.703-3.626c0-1.144-0.208-3.627-1.703-3.627
			S8.547,8.069,8.547,9.213C8.547,10.344,8.69,12.84,10.25,12.84z"/>
	</g>
</g>
<g id="numbers-outlines">
	<g>
		<path d="M9.5,3.77c2.51,0,3.081,2.704,3.081,4.693c0,1.989-0.571,4.693-3.081,4.693c-2.509,0-3.08-2.704-3.08-4.693
			C6.42,6.474,6.991,3.77,9.5,3.77z M9.5,12.09c1.561,0,1.703-2.496,1.703-3.626c0-1.144-0.208-3.627-1.703-3.627
			c-1.494,0-1.703,2.483-1.703,3.627C7.797,9.594,7.94,12.09,9.5,12.09z"/>
	</g>
</g>
</svg>
