<?xml version="1.0" encoding="utf-8"?>
<!-- Generator: Adobe Illustrator 18.1.1, SVG Export Plug-In . SVG Version: 6.00 Build 0)  -->
<svg version="1.1" xmlns="http://www.w3.org/2000/svg" xmlns:xlink="http://www.w3.org/1999/xlink" x="0px" y="0px"
	 viewBox="0 0 12 12" enable-background="new 0 0 12 12" xml:space="preserve">
<g id="shadows-text-objects" display="none">
	
		<text transform="matrix(1 0 0 1 3.4981 9.142)" display="inline" opacity="0.2" font-family="'FrutigerLTStd-Roman'" font-size="9">0</text>
</g>
<g id="numbers-text-objects" display="none">
	<text transform="matrix(1 0 0 1 2.998 8.6418)" display="inline" font-family="'FrutigerLTStd-Roman'" font-size="9">0</text>
</g>
<g id="shadows-outlines">
	<g opacity="0.2">
		<path d="M6.001,2.75c1.737,0,2.134,1.873,2.134,3.25c0,1.376-0.396,3.25-2.134,3.25S3.867,7.377,3.867,6
			C3.867,4.623,4.264,2.75,6.001,2.75z M6.001,8.512C7.081,8.512,7.18,6.784,7.18,6c0-0.793-0.144-2.512-1.179-2.512
			S4.821,5.208,4.821,6C4.821,6.784,4.921,8.512,6.001,8.512z"/>
	</g>
</g>
<g id="numbers-outlines">
	<g>
		<path d="M5.501,2.25c1.737,0,2.134,1.873,2.134,3.25c0,1.377-0.396,3.25-2.134,3.25S3.367,6.877,3.367,5.5
			C3.367,4.123,3.764,2.25,5.501,2.25z M5.501,8.012c1.08,0,1.179-1.728,1.179-2.511c0-0.793-0.144-2.512-1.179-2.512
			c-1.036,0-1.18,1.719-1.18,2.512C4.321,6.284,4.42,8.012,5.501,8.012z"/>
	</g>
</g>
</svg>
