<?xml version="1.0" encoding="utf-8"?>
<!-- Generator: Adobe Illustrator 18.1.1, SVG Export Plug-In . SVG Version: 6.00 Build 0)  -->
<svg version="1.1" xmlns="http://www.w3.org/2000/svg" xmlns:xlink="http://www.w3.org/1999/xlink" x="0px" y="0px"
	 viewBox="0 0 12 12" enable-background="new 0 0 12 12" xml:space="preserve">
<g id="shadows-text-objects" display="none">
	<text transform="matrix(1 0 0 1 2.9981 9.142)" display="inline" opacity="0.2" font-family="'FrutigerLTStd-Bold'" font-size="9">0</text>
</g>
<g id="numbers-text-objects" display="none">
	
		<text transform="matrix(1 0 0 1 2.498 8.6418)" display="inline" fill="#FFFFFF" font-family="'FrutigerLTStd-Bold'" font-size="9">0</text>
</g>
<g id="shadows-outlines">
	<g opacity="0.2">
		<path d="M3.313,6.018c0-1.575,0.477-3.268,2.179-3.268c1.836,0,2.196,1.81,2.196,3.268c0,1.458-0.378,3.232-2.196,3.232
			C3.557,9.25,3.313,7.332,3.313,6.018z M6.428,6.018c0-0.811,0-2.332-0.936-2.332c-0.918,0-0.918,1.521-0.918,2.332
			c0,0.792-0.01,2.295,0.918,2.295C6.438,8.313,6.428,6.81,6.428,6.018z"/>
	</g>
</g>
<g id="numbers-outlines">
	<g>
		<path fill="#FFFFFF" d="M2.812,5.518c0-1.575,0.478-3.268,2.18-3.268c1.836,0,2.196,1.81,2.196,3.268
			c0,1.459-0.378,3.232-2.196,3.232C3.057,8.75,2.812,6.833,2.812,5.518z M5.928,5.518c0-0.811,0-2.332-0.936-2.332
			c-0.918,0-0.918,1.521-0.918,2.332c0,0.792-0.01,2.295,0.918,2.295C5.938,7.813,5.928,6.31,5.928,5.518z"/>
	</g>
</g>
</svg>
