<?xml version="1.0" encoding="utf-8"?>
<!-- Generator: Adobe Illustrator 18.1.1, SVG Export Plug-In . SVG Version: 6.00 Build 0)  -->
<svg version="1.1" xmlns="http://www.w3.org/2000/svg" xmlns:xlink="http://www.w3.org/1999/xlink" x="0px" y="0px"
	 viewBox="0 0 18 18" enable-background="new 0 0 18 18" xml:space="preserve">
<g id="shadows-text-objects" display="none">
	
		<text transform="matrix(1 0 0 1 6.636 13.7503)" display="inline" opacity="0.2" font-family="'FrutigerLTStd-Bold'" font-size="13">0</text>
</g>
<g id="numbers-text-objects" display="none">
	
		<text transform="matrix(1 0 0 1 5.8862 13.0002)" display="inline" fill="#FFFFFF" font-family="'FrutigerLTStd-Bold'" font-size="13">0</text>
</g>
<g id="shadows-outlines">
	<g opacity="0.2">
		<path d="M7.091,9.24c0-2.275,0.689-4.72,3.146-4.72c2.652,0,3.172,2.613,3.172,4.72c0,2.105-0.546,4.667-3.172,4.667
			C7.442,13.906,7.091,11.137,7.091,9.24z M11.59,9.24c0-1.17,0-3.368-1.353-3.368c-1.326,0-1.326,2.197-1.326,3.368
			c0,1.143-0.013,3.314,1.326,3.314C11.603,12.554,11.59,10.383,11.59,9.24z"/>
	</g>
</g>
<g id="numbers-outlines">
	<g>
		<path fill="#FFFFFF" d="M6.342,8.49c0-2.275,0.688-4.72,3.146-4.72c2.652,0,3.172,2.613,3.172,4.72
			c0,2.105-0.546,4.667-3.172,4.667C6.692,13.156,6.342,10.387,6.342,8.49z M10.84,8.49c0-1.17,0-3.368-1.353-3.368
			c-1.326,0-1.326,2.197-1.326,3.368c0,1.144-0.013,3.314,1.326,3.314C10.853,11.804,10.84,9.633,10.84,8.49z"/>
	</g>
</g>
</svg>
