<?xml version="1.0" encoding="utf-8"?>
<!-- Generator: Adobe Illustrator 18.1.1, SVG Export Plug-In . SVG Version: 6.00 Build 0)  -->
<svg version="1.1" xmlns="http://www.w3.org/2000/svg" xmlns:xlink="http://www.w3.org/1999/xlink" x="0px" y="0px"
	 viewBox="0 0 12 12" enable-background="new 0 0 12 12" xml:space="preserve">
<g id="shadows-text-objects" display="none">
	
		<text transform="matrix(1 0 0 1 3.4981 9.142)" display="inline" opacity="0.2" font-family="'FrutigerLTStd-Roman'" font-size="9">2</text>
</g>
<g id="numbers-text-objects" display="none">
	<text transform="matrix(1 0 0 1 2.998 8.6418)" display="inline" font-family="'FrutigerLTStd-Roman'" font-size="9">2</text>
</g>
<g id="shadows-outlines">
	<g opacity="0.2">
		<path d="M3.948,8.179c0.324-0.288,0.729-0.64,1.126-1.009c0.692-0.648,1.809-1.665,1.809-2.683c0-0.585-0.521-0.999-1.206-0.999
			c-0.558,0-1.099,0.216-1.44,0.405l-0.09-0.774C4.669,2.894,5.227,2.75,5.794,2.75c1.134,0,2.043,0.612,2.043,1.791
			c0,1.045-1.125,2.161-1.818,2.854C5.668,7.746,5.218,8.124,4.912,8.403h3.016v0.738H3.948V8.179z"/>
	</g>
</g>
<g id="numbers-outlines">
	<g>
		<path d="M3.448,7.679c0.324-0.288,0.729-0.64,1.126-1.009c0.692-0.648,1.809-1.665,1.809-2.683c0-0.585-0.521-0.999-1.206-0.999
			c-0.558,0-1.099,0.216-1.44,0.405l-0.09-0.774C4.168,2.394,4.727,2.25,5.294,2.25c1.134,0,2.043,0.612,2.043,1.791
			c0,1.045-1.125,2.161-1.818,2.854C5.168,7.246,4.718,7.624,4.412,7.903h3.016v0.738H3.448V7.679z"/>
	</g>
</g>
</svg>
