<?xml version="1.0" encoding="utf-8"?>
<!-- Generator: Adobe Illustrator 18.1.1, SVG Export Plug-In . SVG Version: 6.00 Build 0)  -->
<svg version="1.1" xmlns="http://www.w3.org/2000/svg" xmlns:xlink="http://www.w3.org/1999/xlink" x="0px" y="0px"
	 viewBox="0 0 24 24" enable-background="new 0 0 24 24" xml:space="preserve">
<g id="shadows-text-objects" display="none">
	
		<text transform="matrix(1 0 0 1 8.7739 18.4326)" display="inline" opacity="0.2" font-family="'FrutigerLTStd-Bold'" font-size="17">2</text>
</g>
<g id="numbers-text-objects" display="none">
	
		<text transform="matrix(1 0 0 1 7.7739 17.4329)" display="inline" fill="#FFFFFF" font-family="'FrutigerLTStd-Bold'" font-size="17">2</text>
</g>
<g id="shadows-outlines">
	<g opacity="0.2">
		<path d="M9.471,18.433v-1.989c1.104-1.07,5.134-4.436,5.134-6.611c0-1.088-0.97-1.599-1.938-1.599
			c-1.003,0-1.954,0.442-2.736,0.952L9.742,7.214c1.071-0.544,2.312-0.851,3.52-0.851c2.261,0,3.723,1.14,3.723,3.469
			c0,2.516-2.533,4.827-4.471,6.73h4.845v1.87H9.471z"/>
	</g>
</g>
<g id="numbers-outlines">
	<g>
		<path fill="#FFFFFF" d="M8.471,17.433v-1.989c1.105-1.07,5.134-4.436,5.134-6.611c0-1.088-0.97-1.599-1.938-1.599
			c-1.002,0-1.954,0.442-2.736,0.952L8.742,6.214c1.071-0.544,2.312-0.85,3.52-0.85c2.261,0,3.723,1.139,3.723,3.468
			c0,2.516-2.533,4.827-4.471,6.73h4.845v1.87H8.471z"/>
	</g>
</g>
</svg>
