<?xml version="1.0" encoding="utf-8"?>
<!-- Generator: Adobe Illustrator 18.1.1, SVG Export Plug-In . SVG Version: 6.00 Build 0)  -->
<svg version="1.1" xmlns="http://www.w3.org/2000/svg" xmlns:xlink="http://www.w3.org/1999/xlink" x="0px" y="0px"
	 viewBox="0 0 18 18" enable-background="new 0 0 18 18" xml:space="preserve">
<g id="shadows-text-objects" display="none">
	
		<text transform="matrix(1 0 0 1 6.636 13.7503)" display="inline" opacity="0.2" font-family="'FrutigerLTStd-Roman'" font-size="13">2</text>
</g>
<g id="numbers-text-objects" display="none">
	
		<text transform="matrix(1 0 0 1 5.8862 13.0002)" display="inline" fill="#FFFFFF" font-family="'FrutigerLTStd-Roman'" font-size="13">2</text>
</g>
<g id="shadows-outlines">
	<g opacity="0.2">
		<path d="M7.286,12.359c0.468-0.416,1.053-0.924,1.625-1.456c1.001-0.937,2.613-2.405,2.613-3.874c0-0.846-0.754-1.443-1.742-1.443
			c-0.806,0-1.586,0.312-2.08,0.585l-0.13-1.118C8.326,4.728,9.132,4.52,9.951,4.52c1.639,0,2.951,0.885,2.951,2.588
			c0,1.508-1.625,3.119-2.626,4.12c-0.507,0.508-1.157,1.054-1.6,1.456h4.355v1.066H7.286V12.359z"/>
	</g>
</g>
<g id="numbers-outlines">
	<g>
		<path fill="#FFFFFF" d="M6.536,11.609c0.468-0.416,1.054-0.924,1.625-1.456c1.001-0.937,2.613-2.405,2.613-3.874
			c0-0.846-0.754-1.443-1.742-1.443c-0.806,0-1.586,0.312-2.08,0.585l-0.13-1.118C7.576,3.978,8.383,3.77,9.201,3.77
			c1.639,0,2.951,0.885,2.951,2.588c0,1.508-1.625,3.119-2.626,4.12c-0.507,0.508-1.157,1.054-1.599,1.456h4.354V13H6.536V11.609z"
			/>
	</g>
</g>
</svg>
