<?xml version="1.0" encoding="utf-8"?>
<!-- Generator: Adobe Illustrator 18.1.1, SVG Export Plug-In . SVG Version: 6.00 Build 0)  -->
<svg version="1.1" xmlns="http://www.w3.org/2000/svg" xmlns:xlink="http://www.w3.org/1999/xlink" x="0px" y="0px"
	 viewBox="0 0 18 18" enable-background="new 0 0 18 18" xml:space="preserve">
<g id="shadows-text-objects" display="none">
	
		<text transform="matrix(1 0 0 1 6.636 13.7503)" display="inline" opacity="0.2" font-family="'FrutigerLTStd-Roman'" font-size="13">3</text>
</g>
<g id="numbers-text-objects" display="none">
	<text transform="matrix(1 0 0 1 5.8862 13.0002)" display="inline" font-family="'FrutigerLTStd-Roman'" font-size="13">3</text>
</g>
<g id="shadows-outlines">
	<g opacity="0.2">
		<path d="M8.521,8.498h0.728c0.937,0,2.249-0.325,2.249-1.482c0-1.04-0.832-1.43-1.781-1.43c-0.818,0-1.469,0.221-2.015,0.494
			L7.624,4.923C8.222,4.702,9.132,4.52,9.899,4.52c1.599,0,2.978,0.754,2.978,2.471c0,1.144-0.91,1.872-1.95,2.066v0.026
			c1.209,0.247,2.027,0.962,2.027,2.249c0,2.08-1.78,2.574-3.575,2.574c-0.728,0-1.508-0.183-2.08-0.352l0.078-1.209
			c0.468,0.234,1.209,0.494,1.989,0.494c0.988,0,2.21-0.39,2.21-1.547c0-1.353-1.092-1.729-2.262-1.729H8.521V8.498z"/>
	</g>
</g>
<g id="numbers-outlines">
	<g>
		<path d="M7.771,7.748H8.5c0.936,0,2.248-0.325,2.248-1.482c0-1.04-0.832-1.43-1.781-1.43c-0.818,0-1.469,0.221-2.015,0.494
			L6.874,4.173C7.473,3.952,8.383,3.77,9.149,3.77c1.599,0,2.978,0.754,2.978,2.471c0,1.144-0.91,1.872-1.95,2.066v0.026
			c1.209,0.247,2.027,0.962,2.027,2.249c0,2.08-1.78,2.574-3.575,2.574c-0.728,0-1.508-0.183-2.08-0.352l0.078-1.209
			c0.469,0.234,1.209,0.494,1.989,0.494c0.988,0,2.21-0.39,2.21-1.547c0-1.353-1.092-1.729-2.262-1.729H7.771V7.748z"/>
	</g>
</g>
</svg>
