<?xml version="1.0" encoding="utf-8"?>
<!-- Generator: Adobe Illustrator 18.1.1, SVG Export Plug-In . SVG Version: 6.00 Build 0)  -->
<svg version="1.1" xmlns="http://www.w3.org/2000/svg" xmlns:xlink="http://www.w3.org/1999/xlink" x="0px" y="0px"
	 viewBox="0 0 24 24" enable-background="new 0 0 24 24" xml:space="preserve">
<g id="shadows-text-objects" display="none">
	
		<text transform="matrix(1 0 0 1 8.7739 18.4326)" display="inline" opacity="0.2" font-family="'FrutigerLTStd-Bold'" font-size="17">3</text>
</g>
<g id="numbers-text-objects" display="none">
	<text transform="matrix(1 0 0 1 7.7739 17.4329)" display="inline" font-family="'FrutigerLTStd-Bold'" font-size="17">3</text>
</g>
<g id="shadows-outlines">
	<g opacity="0.2">
		<path d="M9.675,16.223c0.816,0.323,1.7,0.544,2.635,0.544c0.985,0,2.499-0.476,2.499-1.683c0-1.394-1.105-1.854-2.618-1.854
			h-1.156v-1.869h1.088c1.597,0,2.635-0.527,2.635-1.564c0-1.189-0.97-1.563-2.04-1.563c-0.935,0-1.836,0.222-2.669,0.63
			L9.913,6.959c0.952-0.374,2.091-0.596,3.315-0.596c1.462,0,3.909,0.511,3.909,3.043c0,1.615-1.003,2.38-2.209,2.839v0.034
			c1.513,0.204,2.261,1.377,2.261,2.821c0,2.822-2.567,3.536-4.539,3.536c-1.037,0-2.227-0.136-3.11-0.391L9.675,16.223z"/>
	</g>
</g>
<g id="numbers-outlines">
	<g>
		<path d="M8.675,15.223c0.816,0.323,1.7,0.544,2.635,0.544c0.986,0,2.499-0.476,2.499-1.683c0-1.394-1.105-1.853-2.618-1.853
			h-1.156v-1.87h1.088c1.598,0,2.635-0.526,2.635-1.563c0-1.19-0.969-1.564-2.04-1.564c-0.935,0-1.836,0.222-2.669,0.63L8.913,5.959
			c0.952-0.374,2.091-0.595,3.315-0.595c1.462,0,3.909,0.51,3.909,3.043c0,1.614-1.003,2.379-2.209,2.838v0.034
			c1.513,0.204,2.261,1.377,2.261,2.821c0,2.822-2.567,3.536-4.539,3.536c-1.037,0-2.227-0.136-3.11-0.391L8.675,15.223z"/>
	</g>
</g>
</svg>
