<?xml version="1.0" encoding="utf-8"?>
<!-- Generator: Adobe Illustrator 18.1.1, SVG Export Plug-In . SVG Version: 6.00 Build 0)  -->
<svg version="1.1" xmlns="http://www.w3.org/2000/svg" xmlns:xlink="http://www.w3.org/1999/xlink" x="0px" y="0px"
	 viewBox="0 0 24 24" enable-background="new 0 0 24 24" xml:space="preserve">
<g id="shadows-text-objects" display="none">
	
		<text transform="matrix(1 0 0 1 8.7739 18.4326)" display="inline" opacity="0.2" font-family="'FrutigerLTStd-Roman'" font-size="17">3</text>
</g>
<g id="numbers-text-objects" display="none">
	<text transform="matrix(1 0 0 1 7.7739 17.4329)" display="inline" font-family="'FrutigerLTStd-Roman'" font-size="17">3</text>
</g>
<g id="shadows-outlines">
	<g opacity="0.2">
		<path d="M11.239,11.565h0.952c1.224,0,2.94-0.425,2.94-1.938c0-1.359-1.088-1.869-2.328-1.869c-1.071,0-1.921,0.289-2.635,0.646
			l-0.102-1.514c0.782-0.289,1.972-0.527,2.974-0.527c2.091,0,3.894,0.986,3.894,3.23c0,1.496-1.19,2.447-2.55,2.703v0.033
			c1.58,0.323,2.651,1.258,2.651,2.94c0,2.72-2.329,3.366-4.675,3.366c-0.952,0-1.972-0.238-2.72-0.459l0.102-1.581
			c0.612,0.306,1.581,0.646,2.601,0.646c1.291,0,2.89-0.511,2.89-2.023c0-1.768-1.428-2.261-2.958-2.261h-1.037V11.565z"/>
	</g>
</g>
<g id="numbers-outlines">
	<g>
		<path d="M10.239,10.565h0.952c1.224,0,2.94-0.425,2.94-1.938c0-1.36-1.088-1.87-2.328-1.87c-1.071,0-1.921,0.289-2.635,0.646
			L9.066,5.891c0.782-0.289,1.972-0.526,2.975-0.526c2.09,0,3.893,0.985,3.893,3.229c0,1.496-1.19,2.447-2.55,2.703v0.033
			c1.58,0.323,2.651,1.258,2.651,2.94c0,2.72-2.329,3.366-4.675,3.366c-0.952,0-1.972-0.238-2.72-0.459l0.102-1.581
			c0.612,0.306,1.581,0.646,2.601,0.646c1.292,0,2.89-0.511,2.89-2.023c0-1.768-1.428-2.261-2.958-2.261h-1.037V10.565z"/>
	</g>
</g>
</svg>
