<?xml version="1.0" encoding="utf-8"?>
<!-- Generator: Adobe Illustrator 18.1.1, SVG Export Plug-In . SVG Version: 6.00 Build 0)  -->
<svg version="1.1" xmlns="http://www.w3.org/2000/svg" xmlns:xlink="http://www.w3.org/1999/xlink" x="0px" y="0px"
	 viewBox="0 0 12 12" enable-background="new 0 0 12 12" xml:space="preserve">
<g id="shadows-text-objects" display="none">
	
		<text transform="matrix(1 0 0 1 2.9981 9.142)" display="inline" opacity="0.2" font-family="'FrutigerLTStd-Roman'" font-size="9">3</text>
</g>
<g id="numbers-text-objects" display="none">
	
		<text transform="matrix(1 0 0 1 2.498 8.6418)" display="inline" fill="#FFFFFF" font-family="'FrutigerLTStd-Roman'" font-size="9">3</text>
</g>
<g id="shadows-outlines">
	<g opacity="0.2">
		<path d="M4.304,5.505h0.504c0.648,0,1.558-0.226,1.558-1.026c0-0.721-0.576-0.99-1.233-0.99c-0.567,0-1.018,0.153-1.396,0.342
			L3.683,3.029C4.097,2.876,4.727,2.75,5.258,2.75c1.107,0,2.062,0.522,2.062,1.71c0,0.792-0.63,1.297-1.351,1.432v0.018
			c0.838,0.172,1.404,0.667,1.404,1.558c0,1.44-1.233,1.783-2.476,1.783c-0.504,0-1.044-0.126-1.44-0.243l0.055-0.838
			c0.324,0.162,0.837,0.343,1.377,0.343c0.685,0,1.53-0.271,1.53-1.071c0-0.937-0.756-1.197-1.566-1.197H4.304V5.505z"/>
	</g>
</g>
<g id="numbers-outlines">
	<g>
		<path fill="#FFFFFF" d="M3.803,5.005h0.505c0.647,0,1.558-0.226,1.558-1.026c0-0.721-0.576-0.99-1.233-0.99
			c-0.567,0-1.018,0.153-1.396,0.342L3.182,2.529C3.596,2.376,4.227,2.25,4.758,2.25c1.107,0,2.062,0.522,2.062,1.71
			c0,0.792-0.63,1.297-1.351,1.432v0.018c0.838,0.172,1.404,0.667,1.404,1.558c0,1.44-1.233,1.783-2.476,1.783
			c-0.504,0-1.044-0.126-1.44-0.243l0.055-0.838c0.324,0.162,0.837,0.343,1.377,0.343c0.684,0,1.53-0.271,1.53-1.071
			c0-0.937-0.756-1.197-1.566-1.197h-0.55V5.005z"/>
	</g>
</g>
</svg>
