<?xml version="1.0" encoding="utf-8"?>
<!-- Generator: Adobe Illustrator 18.1.1, SVG Export Plug-In . SVG Version: 6.00 Build 0)  -->
<svg version="1.1" xmlns="http://www.w3.org/2000/svg" xmlns:xlink="http://www.w3.org/1999/xlink" x="0px" y="0px"
	 viewBox="0 0 12 12" enable-background="new 0 0 12 12" xml:space="preserve">
<g id="shadows-text-objects" display="none">
	<text transform="matrix(1 0 0 1 2.9981 9.142)" display="inline" opacity="0.2" font-family="'FrutigerLTStd-Bold'" font-size="9">3</text>
</g>
<g id="numbers-text-objects" display="none">
	
		<text transform="matrix(1 0 0 1 2.498 8.6418)" display="inline" fill="#FFFFFF" font-family="'FrutigerLTStd-Bold'" font-size="9">3</text>
</g>
<g id="shadows-outlines">
	<g opacity="0.2">
		<path d="M3.476,7.972c0.432,0.171,0.9,0.288,1.396,0.288c0.521,0,1.323-0.253,1.323-0.892c0-0.738-0.585-0.981-1.387-0.981H4.195
			v-0.99h0.576c0.847,0,1.396-0.279,1.396-0.828c0-0.63-0.513-0.828-1.08-0.828c-0.495,0-0.973,0.117-1.413,0.333L3.602,3.065
			C4.105,2.867,4.709,2.75,5.357,2.75c0.773,0,2.07,0.27,2.07,1.611c0,0.855-0.531,1.26-1.171,1.503v0.019
			C7.059,5.99,7.454,6.612,7.454,7.377c0,1.494-1.359,1.873-2.403,1.873c-0.549,0-1.18-0.072-1.647-0.207L3.476,7.972z"/>
	</g>
</g>
<g id="numbers-outlines">
	<g>
		<path fill="#FFFFFF" d="M2.975,7.472c0.433,0.171,0.9,0.288,1.396,0.288c0.521,0,1.323-0.253,1.323-0.892
			c0-0.738-0.585-0.981-1.387-0.981H3.695v-0.99h0.576c0.846,0,1.396-0.279,1.396-0.828c0-0.63-0.513-0.828-1.08-0.828
			c-0.495,0-0.973,0.117-1.413,0.333L3.102,2.565C3.605,2.367,4.209,2.25,4.857,2.25c0.773,0,2.07,0.27,2.07,1.611
			c0,0.855-0.531,1.26-1.171,1.503v0.019C6.559,5.49,6.954,6.112,6.954,6.877c0,1.494-1.359,1.873-2.403,1.873
			c-0.549,0-1.18-0.072-1.647-0.207L2.975,7.472z"/>
	</g>
</g>
</svg>
