<?xml version="1.0" encoding="UTF-8" standalone="no"?>
<!-- Created with Inkscape (http://www.inkscape.org/) -->

<svg
   xmlns:dc="http://purl.org/dc/elements/1.1/"
   xmlns:cc="http://creativecommons.org/ns#"
   xmlns:rdf="http://www.w3.org/1999/02/22-rdf-syntax-ns#"
   xmlns:svg="http://www.w3.org/2000/svg"
   xmlns="http://www.w3.org/2000/svg"
   xmlns:sodipodi="http://sodipodi.sourceforge.net/DTD/sodipodi-0.dtd"
   xmlns:inkscape="http://www.inkscape.org/namespaces/inkscape"
   width="18"
   height="18"
   id="svg27640"
   version="1.1"
   inkscape:version="0.48.2 r9819"
   sodipodi:docname="airport-white-18.svg">
  <defs
     id="defs27642" />
  <sodipodi:namedview
     id="base"
     pagecolor="#ffffff"
     bordercolor="#666666"
     borderopacity="1.0"
     inkscape:pageopacity="0.0"
     inkscape:pageshadow="2"
     inkscape:zoom="4.8734"
     inkscape:cx="16.343826"
     inkscape:cy="1.8159806"
     inkscape:document-units="px"
     inkscape:current-layer="layer1"
     showgrid="false"
     inkscape:window-width="741"
     inkscape:window-height="597"
     inkscape:window-x="3131"
     inkscape:window-y="638"
     inkscape:window-maximized="0">
    <inkscape:grid
       type="xygrid"
       id="grid2986" />
  </sodipodi:namedview>
  <metadata
     id="metadata27645">
    <rdf:RDF>
      <cc:Work
         rdf:about="">
        <dc:format>image/svg+xml</dc:format>
        <dc:type
           rdf:resource="http://purl.org/dc/dcmitype/StillImage" />
        <dc:title></dc:title>
      </cc:Work>
    </rdf:RDF>
  </metadata>
  <g
     inkscape:label="Layer 1"
     inkscape:groupmode="layer"
     id="layer1"
     transform="translate(0,-1034.3622)">
    <g
       id="g14096"
       transform="matrix(1.5,0,0,1.5,-426.22077,763.41263)">
      <path
         style="opacity:0;fill:#272525"
         inkscape:connector-curvature="0"
         id="path14098"
         d="m 294.73106,192.61398 c 0.79166,0 1.43519,-0.6411 1.43519,-1.43276 v -9.13326 c 0,-0.79166 -0.64232,-1.43398 -1.43519,-1.43398 h -9.13205 c -0.79166,0 -1.43276,0.64111 -1.43276,1.43398 v 9.13326 c 0,0.79045 0.63988,1.43276 1.43276,1.43276 h 9.13205 z" />
      <g
         id="g14100"
         style="opacity:0.6;fill:none;stroke:#1d1d1c;stroke-width:0.5;stroke-miterlimit:4;stroke-opacity:1;stroke-dasharray:none"
         transform="matrix(1.2142062,0,0,1.2142062,258.47243,-142.27987)">
        <path
           style="fill:none;stroke:#1d1d1c;stroke-width:0.5;stroke-miterlimit:4;stroke-opacity:1;stroke-dasharray:none"
           inkscape:connector-curvature="0"
           id="path14102"
           d="m 28.628,272.625 c 0.233,0 0.421,-0.188 0.421,-0.422 0,-0.232 -0.188,-0.421 -0.421,-0.421 -0.233,0 -0.421,0.189 -0.421,0.421 0,0.233 0.188,0.422 0.421,0.422 z m -0.973,-0.423 c 0,-0.536 0.435,-0.972 0.973,-0.972 0.536,0 0.972,0.436 0.972,0.972 0,0.538 -0.436,0.974 -0.972,0.974 -0.538,0 -0.973,-0.436 -0.973,-0.974 z" />
        <path
           style="fill:none;stroke:#1d1d1c;stroke-width:0.5;stroke-miterlimit:4;stroke-opacity:1;stroke-dasharray:none"
           inkscape:connector-curvature="0"
           id="path14104"
           d="m 30.075,271.161 -0.002,-0.98 c 0,-0.391 -0.348,-0.35 -0.348,-0.35 H 27.76 l -0.717,-1.209 h -0.422 l 0.717,1.209 -0.543,0.919 -1.238,-0.002 c -0.428,-0.878 -1.297,-0.823 -1.297,-0.823 h -2.348 v 2.088 h 0.336 c 0.045,-0.71 0.727,-1.273 1.447,-1.273 0.72,0 1.404,0.564 1.447,1.273 l 2.041,0.002 c 0.043,-0.711 0.727,-1.275 1.447,-1.275 0.72,0 1.406,0.564 1.447,1.276 l 0.127,10e-4 c 0.141,0 0.254,-0.114 0.254,-0.254 v -0.602 h -0.383 z" />
        <path
           style="fill:none;stroke:#1d1d1c;stroke-width:0.5;stroke-miterlimit:4;stroke-opacity:1;stroke-dasharray:none"
           inkscape:connector-curvature="0"
           id="path14106"
           d="m 23.692,272.625 c 0.233,0 0.423,-0.188 0.423,-0.422 0,-0.232 -0.189,-0.421 -0.423,-0.421 -0.231,0 -0.421,0.189 -0.421,0.421 0,0.233 0.19,0.422 0.421,0.422 z m -0.971,-0.423 c 0,-0.536 0.436,-0.972 0.972,-0.972 0.538,0 0.972,0.436 0.972,0.972 0,0.538 -0.434,0.974 -0.972,0.974 -0.537,0 -0.972,-0.436 -0.972,-0.974 z" />
      </g>
      <g
         id="g14109"
         transform="matrix(1.2142062,0,0,1.2142062,258.47243,-142.27987)"
         style="fill:#ffffff;fill-opacity:1">
        <path
           d="m 28.628,272.625 c 0.233,0 0.421,-0.188 0.421,-0.422 0,-0.232 -0.188,-0.421 -0.421,-0.421 -0.233,0 -0.421,0.189 -0.421,0.421 0,0.233 0.188,0.422 0.421,0.422 z m -0.973,-0.423 c 0,-0.536 0.435,-0.972 0.973,-0.972 0.536,0 0.972,0.436 0.972,0.972 0,0.538 -0.436,0.974 -0.972,0.974 -0.538,0 -0.973,-0.436 -0.973,-0.974 z"
           id="path14111"
           inkscape:connector-curvature="0"
           style="fill:#ffffff;fill-opacity:1" />
        <path
           d="m 30.075,271.161 -0.002,-0.98 c 0,-0.391 -0.348,-0.35 -0.348,-0.35 H 27.76 l -0.717,-1.209 h -0.422 l 0.717,1.209 -0.543,0.919 -1.238,-0.002 c -0.428,-0.878 -1.297,-0.823 -1.297,-0.823 h -2.348 v 2.088 h 0.336 c 0.045,-0.71 0.727,-1.273 1.447,-1.273 0.72,0 1.404,0.564 1.447,1.273 l 2.041,0.002 c 0.043,-0.711 0.727,-1.275 1.447,-1.275 0.72,0 1.406,0.564 1.447,1.276 l 0.127,10e-4 c 0.141,0 0.254,-0.114 0.254,-0.254 v -0.602 h -0.383 z"
           id="path14113"
           inkscape:connector-curvature="0"
           style="fill:#ffffff;fill-opacity:1" />
        <path
           d="m 23.692,272.625 c 0.233,0 0.423,-0.188 0.423,-0.422 0,-0.232 -0.189,-0.421 -0.423,-0.421 -0.231,0 -0.421,0.189 -0.421,0.421 0,0.233 0.19,0.422 0.421,0.422 z m -0.971,-0.423 c 0,-0.536 0.436,-0.972 0.972,-0.972 0.538,0 0.972,0.436 0.972,0.972 0,0.538 -0.434,0.974 -0.972,0.974 -0.537,0 -0.972,-0.436 -0.972,-0.974 z"
           id="path14115"
           inkscape:connector-curvature="0"
           style="fill:#ffffff;fill-opacity:1" />
      </g>
    </g>
  </g>
</svg>
