<?xml version="1.0" encoding="utf-8"?>
<!-- Generator: Adobe Illustrator 18.1.1, SVG Export Plug-In . SVG Version: 6.00 Build 0)  -->
<svg version="1.1" xmlns="http://www.w3.org/2000/svg" xmlns:xlink="http://www.w3.org/1999/xlink" x="0px" y="0px"
	 viewBox="0 0 18 18" enable-background="new 0 0 18 18" xml:space="preserve">
<g id="shadows-text-objects" display="none">
	
		<text transform="matrix(1 0 0 1 6.636 13.7503)" display="inline" opacity="0.2" font-family="'FrutigerLTStd-Bold'" font-size="13">5</text>
</g>
<g id="numbers-text-objects" display="none">
	<text transform="matrix(1 0 0 1 5.8862 13.0002)" display="inline" font-family="'FrutigerLTStd-Bold'" font-size="13">5</text>
</g>
<g id="shadows-outlines">
	<g opacity="0.2">
		<path d="M13.007,6.028H9.509L9.47,7.965c0.208-0.039,0.481-0.091,0.832-0.091c1.274,0,2.926,0.598,2.926,2.951
			c0,1.703-1.196,3.081-3.536,3.081c-0.702,0-1.521-0.117-2.119-0.261l0.039-1.625c0.441,0.183,1.065,0.455,1.858,0.455
			c0.949,0,1.938-0.441,1.938-1.599c0-1.17-1.04-1.573-2.08-1.573c-0.559,0-1.092,0.078-1.625,0.247l0.091-4.875h5.214V6.028z"/>
	</g>
</g>
<g id="numbers-outlines">
	<g>
		<path d="M12.257,5.278H8.76L8.721,7.215c0.207-0.039,0.48-0.091,0.832-0.091c1.273,0,2.925,0.598,2.925,2.951
			c0,1.703-1.196,3.081-3.536,3.081c-0.702,0-1.521-0.117-2.119-0.261l0.039-1.625c0.441,0.183,1.066,0.455,1.859,0.455
			c0.949,0,1.937-0.441,1.937-1.599c0-1.17-1.04-1.573-2.08-1.573c-0.559,0-1.092,0.078-1.625,0.247l0.091-4.875h5.214V5.278z"/>
	</g>
</g>
</svg>
