<?xml version="1.0" encoding="utf-8"?>
<!-- Generator: Adobe Illustrator 18.1.1, SVG Export Plug-In . SVG Version: 6.00 Build 0)  -->
<svg version="1.1" xmlns="http://www.w3.org/2000/svg" xmlns:xlink="http://www.w3.org/1999/xlink" x="0px" y="0px"
	 viewBox="0 0 24 24" enable-background="new 0 0 24 24" xml:space="preserve">
<g id="shadows-text-objects" display="none">
	
		<text transform="matrix(1 0 0 1 8.7739 18.4326)" display="inline" opacity="0.2" font-family="'FrutigerLTStd-Roman'" font-size="17">5</text>
</g>
<g id="numbers-text-objects" display="none">
	<text transform="matrix(1 0 0 1 7.7739 17.4329)" display="inline" font-family="'FrutigerLTStd-Roman'" font-size="17">5</text>
</g>
<g id="shadows-outlines">
	<g opacity="0.2">
		<path d="M16.899,7.962h-4.93l-0.102,3.179c0.323-0.086,0.85-0.17,1.53-0.17c2.091,0,3.842,1.563,3.842,3.671
			c0,2.602-2.074,3.995-4.539,3.995c-1.292,0-2.125-0.238-2.55-0.391l0.051-1.599c0.731,0.408,1.428,0.596,2.465,0.596
			c1.411,0,2.771-0.833,2.771-2.347c0-1.699-1.275-2.532-2.873-2.532c-1.02,0-1.666,0.17-2.295,0.442l0.102-6.238h6.528V7.962z"/>
	</g>
</g>
<g id="numbers-outlines">
	<g>
		<path d="M15.899,6.962h-4.93l-0.102,3.179c0.323-0.085,0.85-0.17,1.53-0.17c2.091,0,3.842,1.563,3.842,3.671
			c0,2.602-2.074,3.995-4.539,3.995c-1.292,0-2.125-0.238-2.55-0.391l0.051-1.599c0.731,0.408,1.428,0.596,2.465,0.596
			c1.411,0,2.771-0.833,2.771-2.347c0-1.699-1.275-2.532-2.873-2.532c-1.02,0-1.666,0.17-2.295,0.442l0.102-6.238h6.528V6.962z"/>
	</g>
</g>
</svg>
