<?xml version="1.0" encoding="utf-8"?>
<!-- Generator: Adobe Illustrator 18.1.1, SVG Export Plug-In . SVG Version: 6.00 Build 0)  -->
<svg version="1.1" xmlns="http://www.w3.org/2000/svg" xmlns:xlink="http://www.w3.org/1999/xlink" x="0px" y="0px"
	 viewBox="0 0 18 18" enable-background="new 0 0 18 18" xml:space="preserve">
<g id="shadows-text-objects" display="none">
	
		<text transform="matrix(1 0 0 1 6.636 13.7503)" display="inline" opacity="0.2" font-family="'FrutigerLTStd-Roman'" font-size="13">5</text>
</g>
<g id="numbers-text-objects" display="none">
	<text transform="matrix(1 0 0 1 5.8862 13.0002)" display="inline" font-family="'FrutigerLTStd-Roman'" font-size="13">5</text>
</g>
<g id="shadows-outlines">
	<g opacity="0.2">
		<path d="M12.851,5.742H9.08L9.002,8.173c0.247-0.064,0.65-0.13,1.17-0.13c1.6,0,2.938,1.196,2.938,2.808
			c0,1.989-1.586,3.056-3.472,3.056c-0.987,0-1.625-0.183-1.949-0.299l0.039-1.223c0.559,0.312,1.092,0.455,1.885,0.455
			c1.079,0,2.119-0.637,2.119-1.794c0-1.3-0.975-1.938-2.197-1.938c-0.78,0-1.274,0.131-1.755,0.339l0.078-4.771h4.992V5.742z"/>
	</g>
</g>
<g id="numbers-outlines">
	<g>
		<path d="M12.101,4.992H8.33L8.252,7.423c0.248-0.064,0.65-0.13,1.17-0.13c1.6,0,2.938,1.196,2.938,2.808
			c0,1.989-1.586,3.056-3.472,3.056c-0.987,0-1.625-0.183-1.949-0.299l0.039-1.223c0.559,0.312,1.092,0.455,1.885,0.455
			c1.079,0,2.119-0.637,2.119-1.794c0-1.3-0.975-1.938-2.197-1.938c-0.779,0-1.273,0.131-1.755,0.339l0.078-4.771h4.992V4.992z"/>
	</g>
</g>
</svg>
