<?xml version="1.0" encoding="utf-8"?>
<!-- Generator: Adobe Illustrator 18.1.1, SVG Export Plug-In . SVG Version: 6.00 Build 0)  -->
<svg version="1.1" xmlns="http://www.w3.org/2000/svg" xmlns:xlink="http://www.w3.org/1999/xlink" x="0px" y="0px"
	 viewBox="0 0 12 12" enable-background="new 0 0 12 12" xml:space="preserve">
<g id="shadows-text-objects" display="none">
	
		<text transform="matrix(1 0 0 1 2.9981 9.142)" display="inline" opacity="0.2" font-family="'FrutigerLTStd-Roman'" font-size="9">5</text>
</g>
<g id="numbers-text-objects" display="none">
	
		<text transform="matrix(1 0 0 1 2.498 8.6418)" display="inline" fill="#FFFFFF" font-family="'FrutigerLTStd-Roman'" font-size="9">5</text>
</g>
<g id="shadows-outlines">
	<g opacity="0.2">
		<path d="M7.302,3.596H4.69L4.637,5.279c0.171-0.045,0.45-0.09,0.811-0.09c1.106,0,2.034,0.828,2.034,1.944
			c0,1.378-1.099,2.116-2.403,2.116c-0.685,0-1.126-0.126-1.351-0.207l0.027-0.847C4.142,8.412,4.511,8.512,5.06,8.512
			c0.747,0,1.468-0.441,1.468-1.242c0-0.9-0.675-1.342-1.521-1.342c-0.54,0-0.882,0.09-1.216,0.234l0.055-3.304h3.457V3.596z"/>
	</g>
</g>
<g id="numbers-outlines">
	<g>
		<path fill="#FFFFFF" d="M6.802,3.096H4.19L4.137,4.779c0.171-0.045,0.45-0.09,0.811-0.09c1.106,0,2.034,0.828,2.034,1.944
			c0,1.378-1.099,2.116-2.403,2.116c-0.685,0-1.126-0.126-1.352-0.207l0.027-0.847C3.642,7.912,4.011,8.012,4.56,8.012
			c0.747,0,1.468-0.441,1.468-1.242c0-0.9-0.676-1.342-1.521-1.342c-0.541,0-0.883,0.09-1.216,0.234l0.054-3.304h3.458V3.096z"/>
	</g>
</g>
</svg>
