<?xml version="1.0" encoding="utf-8"?>
<!-- Generator: Adobe Illustrator 18.1.1, SVG Export Plug-In . SVG Version: 6.00 Build 0)  -->
<svg version="1.1" xmlns="http://www.w3.org/2000/svg" xmlns:xlink="http://www.w3.org/1999/xlink" x="0px" y="0px"
	 viewBox="0 0 24 24" enable-background="new 0 0 24 24" xml:space="preserve">
<g id="shadows-text-objects" display="none">
	
		<text transform="matrix(1 0 0 1 8.7739 18.4326)" display="inline" opacity="0.2" font-family="'FrutigerLTStd-Bold'" font-size="17">5</text>
</g>
<g id="numbers-text-objects" display="none">
	
		<text transform="matrix(1 0 0 1 7.7739 17.4329)" display="inline" fill="#FFFFFF" font-family="'FrutigerLTStd-Bold'" font-size="17">5</text>
</g>
<g id="shadows-outlines">
	<g opacity="0.2">
		<path d="M17.104,8.336H12.53l-0.051,2.532c0.271-0.051,0.629-0.118,1.088-0.118c1.666,0,3.824,0.781,3.824,3.858
			c0,2.227-1.563,4.028-4.623,4.028c-0.918,0-1.989-0.153-2.771-0.34l0.051-2.125c0.578,0.238,1.394,0.595,2.431,0.595
			c1.24,0,2.533-0.578,2.533-2.091c0-1.529-1.36-2.057-2.721-2.057c-0.73,0-1.428,0.102-2.124,0.323l0.118-6.374h6.817V8.336z"/>
	</g>
</g>
<g id="numbers-outlines">
	<g>
		<path fill="#FFFFFF" d="M16.104,7.336h-4.572l-0.052,2.532c0.272-0.051,0.629-0.118,1.088-0.118c1.666,0,3.824,0.781,3.824,3.858
			c0,2.227-1.563,4.028-4.623,4.028c-0.918,0-1.989-0.153-2.771-0.34l0.051-2.125c0.578,0.238,1.395,0.595,2.431,0.595
			c1.241,0,2.533-0.578,2.533-2.091c0-1.529-1.36-2.057-2.72-2.057c-0.731,0-1.428,0.103-2.125,0.323l0.119-6.374h6.816V7.336z"/>
	</g>
</g>
</svg>
