<?xml version="1.0" encoding="utf-8"?>
<!-- Generator: Adobe Illustrator 18.1.1, SVG Export Plug-In . SVG Version: 6.00 Build 0)  -->
<svg version="1.1" xmlns="http://www.w3.org/2000/svg" xmlns:xlink="http://www.w3.org/1999/xlink" x="0px" y="0px"
	 viewBox="0 0 12 12" enable-background="new 0 0 12 12" xml:space="preserve">
<g id="shadows-text-objects" display="none">
	<text transform="matrix(1 0 0 1 3.4981 9.142)" display="inline" opacity="0.2" font-family="'FrutigerLTStd-Bold'" font-size="9">6</text>
</g>
<g id="numbers-text-objects" display="none">
	<text transform="matrix(1 0 0 1 2.998 8.6418)" display="inline" font-family="'FrutigerLTStd-Bold'" font-size="9">6</text>
</g>
<g id="shadows-outlines">
	<g opacity="0.2">
		<path d="M7.64,3.992C7.307,3.849,6.964,3.74,6.541,3.74c-1.089,0-1.458,1.008-1.494,1.944l0.018,0.018
			c0.298-0.432,0.685-0.63,1.216-0.63c1.188,0,1.836,0.756,1.836,1.918c0,1.359-0.666,2.26-2.088,2.26
			c-1.747,0-2.134-1.45-2.134-2.926c0-1.702,0.549-3.574,2.584-3.574c0.459,0,0.891,0.072,1.323,0.225L7.64,3.992z M5.154,7.197
			c0,0.594,0.253,1.116,0.874,1.116c0.585,0,0.828-0.567,0.828-1.125c0-0.612-0.253-1.18-0.855-1.18
			C5.389,6.009,5.154,6.566,5.154,7.197z"/>
	</g>
</g>
<g id="numbers-outlines">
	<g>
		<path d="M7.14,3.492C6.807,3.349,6.464,3.24,6.041,3.24c-1.09,0-1.459,1.008-1.494,1.944l0.018,0.018
			c0.297-0.432,0.684-0.63,1.215-0.63c1.188,0,1.837,0.756,1.837,1.918c0,1.359-0.666,2.26-2.089,2.26
			c-1.746,0-2.133-1.45-2.133-2.926c0-1.702,0.549-3.574,2.584-3.574c0.459,0,0.891,0.072,1.323,0.225L7.14,3.492z M4.654,6.697
			c0,0.594,0.252,1.116,0.873,1.116c0.586,0,0.829-0.567,0.829-1.125c0-0.612-0.253-1.18-0.855-1.18
			C4.889,5.509,4.654,6.066,4.654,6.697z"/>
	</g>
</g>
</svg>
