<?xml version="1.0" encoding="utf-8"?>
<!-- Generator: Adobe Illustrator 18.1.1, SVG Export Plug-In . SVG Version: 6.00 Build 0)  -->
<svg version="1.1" xmlns="http://www.w3.org/2000/svg" xmlns:xlink="http://www.w3.org/1999/xlink" x="0px" y="0px"
	 viewBox="0 0 24 24" enable-background="new 0 0 24 24" xml:space="preserve">
<g id="shadows-text-objects" display="none">
	
		<text transform="matrix(1 0 0 1 8.7739 18.4326)" display="inline" opacity="0.2" font-family="'FrutigerLTStd-Roman'" font-size="17">6</text>
</g>
<g id="numbers-text-objects" display="none">
	<text transform="matrix(1 0 0 1 7.7739 17.4329)" display="inline" font-family="'FrutigerLTStd-Roman'" font-size="17">6</text>
</g>
<g id="shadows-outlines">
	<g opacity="0.2">
		<path d="M16.678,8.25c-0.611-0.322-1.343-0.492-2.107-0.492c-2.21,0-3.281,2.039-3.314,4.317l0.034-0.017
			c0.799-0.782,1.615-1.088,2.601-1.088c2.295,0,3.569,1.614,3.569,3.739c0,2.448-1.648,3.927-3.808,3.927
			c-3.314,0-3.995-2.992-3.995-5.694c0-3.213,1.054-6.579,4.811-6.579c0.815,0,2.022,0.188,2.447,0.375L16.678,8.25z M13.669,12.364
			c-1.41,0-2.209,1.054-2.209,2.38c0,1.122,0.697,2.499,2.09,2.499c1.429,0,2.108-1.225,2.108-2.499
			C15.658,13.639,15.013,12.364,13.669,12.364z"/>
	</g>
</g>
<g id="numbers-outlines">
	<g>
		<path d="M15.678,7.251c-0.611-0.323-1.343-0.493-2.107-0.493c-2.21,0-3.281,2.04-3.314,4.317l0.034-0.017
			c0.799-0.782,1.615-1.088,2.601-1.088c2.295,0,3.569,1.614,3.569,3.739c0,2.448-1.648,3.927-3.808,3.927
			c-3.314,0-3.995-2.992-3.995-5.694c0-3.213,1.054-6.578,4.811-6.578c0.815,0,2.022,0.187,2.447,0.374L15.678,7.251z
			 M12.669,11.364c-1.411,0-2.21,1.054-2.21,2.38c0,1.122,0.697,2.499,2.091,2.499c1.428,0,2.108-1.225,2.108-2.499
			C14.658,12.639,14.013,11.364,12.669,11.364z"/>
	</g>
</g>
</svg>
