<?xml version="1.0" encoding="utf-8"?>
<!-- Generator: Adobe Illustrator 18.1.1, SVG Export Plug-In . SVG Version: 6.00 Build 0)  -->
<svg version="1.1" xmlns="http://www.w3.org/2000/svg" xmlns:xlink="http://www.w3.org/1999/xlink" x="0px" y="0px"
	 viewBox="0 0 18 18" enable-background="new 0 0 18 18" xml:space="preserve">
<g id="shadows-text-objects" display="none">
	
		<text transform="matrix(1 0 0 1 6.636 13.7503)" display="inline" opacity="0.2" font-family="'FrutigerLTStd-Bold'" font-size="13">6</text>
</g>
<g id="numbers-text-objects" display="none">
	
		<text transform="matrix(1 0 0 1 5.8862 13.0002)" display="inline" fill="#FFFFFF" font-family="'FrutigerLTStd-Bold'" font-size="13">6</text>
</g>
<g id="shadows-outlines">
	<g opacity="0.2">
		<path d="M12.616,6.313c-0.48-0.208-0.975-0.363-1.586-0.363c-1.573,0-2.106,1.456-2.158,2.808l0.026,0.026
			c0.429-0.624,0.987-0.91,1.755-0.91c1.716,0,2.652,1.092,2.652,2.769c0,1.964-0.962,3.264-3.017,3.264
			c-2.522,0-3.081-2.094-3.081-4.226c0-2.457,0.793-5.161,3.731-5.161c0.663,0,1.287,0.104,1.911,0.325L12.616,6.313z M9.028,10.942
			c0,0.857,0.364,1.611,1.261,1.611c0.846,0,1.196-0.818,1.196-1.625c0-0.884-0.364-1.703-1.235-1.703
			C9.366,9.226,9.028,10.032,9.028,10.942z"/>
	</g>
</g>
<g id="numbers-outlines">
	<g>
		<path fill="#FFFFFF" d="M11.866,5.563C11.386,5.355,10.892,5.2,10.28,5.2c-1.573,0-2.106,1.456-2.158,2.808l0.026,0.026
			c0.429-0.624,0.988-0.91,1.755-0.91c1.716,0,2.652,1.092,2.652,2.769c0,1.964-0.962,3.264-3.017,3.264
			c-2.521,0-3.081-2.094-3.081-4.226c0-2.457,0.794-5.161,3.731-5.161c0.663,0,1.287,0.104,1.911,0.325L11.866,5.563z M8.278,10.192
			c0,0.857,0.364,1.611,1.261,1.611c0.846,0,1.196-0.818,1.196-1.625c0-0.884-0.364-1.703-1.235-1.703
			C8.616,8.476,8.278,9.282,8.278,10.192z"/>
	</g>
</g>
</svg>
