<?xml version="1.0" encoding="utf-8"?>
<!-- Generator: Adobe Illustrator 18.1.1, SVG Export Plug-In . SVG Version: 6.00 Build 0)  -->
<svg version="1.1" xmlns="http://www.w3.org/2000/svg" xmlns:xlink="http://www.w3.org/1999/xlink" x="0px" y="0px"
	 viewBox="0 0 18 18" enable-background="new 0 0 18 18" xml:space="preserve">
<g id="shadows-text-objects" display="none">
	
		<text transform="matrix(1 0 0 1 6.636 13.7503)" display="inline" opacity="0.2" font-family="'FrutigerLTStd-Roman'" font-size="13">6</text>
</g>
<g id="numbers-text-objects" display="none">
	
		<text transform="matrix(1 0 0 1 5.8862 13.0002)" display="inline" fill="#FFFFFF" font-family="'FrutigerLTStd-Roman'" font-size="13">6</text>
</g>
<g id="shadows-outlines">
	<g opacity="0.2">
		<path d="M12.682,5.963c-0.468-0.247-1.027-0.377-1.612-0.377c-1.69,0-2.509,1.56-2.535,3.302l0.026-0.013
			c0.61-0.598,1.234-0.832,1.988-0.832c1.756,0,2.73,1.235,2.73,2.86c0,1.872-1.261,3.003-2.912,3.003
			c-2.535,0-3.055-2.288-3.055-4.355c0-2.457,0.806-5.031,3.679-5.031c0.624,0,1.547,0.144,1.872,0.286L12.682,5.963z M10.38,9.108
			c-1.079,0-1.689,0.807-1.689,1.82c0,0.858,0.532,1.911,1.599,1.911c1.093,0,1.612-0.936,1.612-1.911
			C11.901,10.084,11.407,9.108,10.38,9.108z"/>
	</g>
</g>
<g id="numbers-outlines">
	<g>
		<path fill="#FFFFFF" d="M11.932,5.213c-0.468-0.247-1.027-0.377-1.612-0.377c-1.69,0-2.509,1.56-2.535,3.302l0.026-0.013
			c0.611-0.598,1.234-0.832,1.988-0.832c1.756,0,2.73,1.235,2.73,2.86c0,1.872-1.261,3.003-2.912,3.003
			c-2.535,0-3.055-2.288-3.055-4.355c0-2.457,0.806-5.031,3.679-5.031c0.624,0,1.547,0.144,1.872,0.286L11.932,5.213z M9.631,8.358
			c-1.08,0-1.69,0.807-1.69,1.82c0,0.858,0.532,1.911,1.599,1.911c1.093,0,1.612-0.936,1.612-1.911
			C11.151,9.334,10.657,8.358,9.631,8.358z"/>
	</g>
</g>
</svg>
