<?xml version="1.0" encoding="utf-8"?>
<!-- Generator: Adobe Illustrator 18.1.1, SVG Export Plug-In . SVG Version: 6.00 Build 0)  -->
<svg version="1.1" xmlns="http://www.w3.org/2000/svg" xmlns:xlink="http://www.w3.org/1999/xlink" x="0px" y="0px"
	 viewBox="0 0 24 24" enable-background="new 0 0 24 24" xml:space="preserve">
<g id="shadows-text-objects" display="none">
	
		<text transform="matrix(1 0 0 1 8.7739 18.4326)" display="inline" opacity="0.2" font-family="'FrutigerLTStd-Bold'" font-size="17">6</text>
</g>
<g id="numbers-text-objects" display="none">
	
		<text transform="matrix(1 0 0 1 7.7739 17.4329)" display="inline" fill="#FFFFFF" font-family="'FrutigerLTStd-Bold'" font-size="17">6</text>
</g>
<g id="shadows-outlines">
	<g opacity="0.2">
		<path d="M16.593,8.709c-0.629-0.271-1.274-0.476-2.073-0.476c-2.058,0-2.754,1.904-2.822,3.672l0.034,0.034
			c0.561-0.816,1.292-1.189,2.295-1.189c2.244,0,3.468,1.428,3.468,3.62c0,2.566-1.258,4.267-3.944,4.267
			c-3.297,0-4.028-2.737-4.028-5.524c0-3.213,1.037-6.749,4.879-6.749c0.867,0,1.683,0.137,2.499,0.426L16.593,8.709z
			 M11.901,14.761c0,1.122,0.476,2.108,1.648,2.108c1.105,0,1.564-1.071,1.564-2.125c0-1.156-0.476-2.227-1.615-2.227
			C12.344,12.518,11.901,13.571,11.901,14.761z"/>
	</g>
</g>
<g id="numbers-outlines">
	<g>
		<path fill="#FFFFFF" d="M15.593,7.71c-0.629-0.272-1.274-0.477-2.073-0.477c-2.057,0-2.754,1.904-2.822,3.672l0.034,0.034
			c0.562-0.815,1.292-1.189,2.295-1.189c2.244,0,3.468,1.428,3.468,3.62c0,2.566-1.258,4.267-3.943,4.267
			c-3.298,0-4.029-2.737-4.029-5.524c0-3.213,1.037-6.748,4.879-6.748c0.867,0,1.683,0.136,2.499,0.425L15.593,7.71z M10.901,13.761
			c0,1.122,0.476,2.108,1.649,2.108c1.104,0,1.563-1.071,1.563-2.125c0-1.156-0.476-2.227-1.614-2.227
			C11.344,11.518,10.901,12.571,10.901,13.761z"/>
	</g>
</g>
</svg>
