<?xml version="1.0" encoding="utf-8"?>
<!-- Generator: Adobe Illustrator 18.1.1, SVG Export Plug-In . SVG Version: 6.00 Build 0)  -->
<svg version="1.1" xmlns="http://www.w3.org/2000/svg" xmlns:xlink="http://www.w3.org/1999/xlink" x="0px" y="0px"
	 viewBox="0 0 12 12" enable-background="new 0 0 12 12" xml:space="preserve">
<g id="shadows-text-objects" display="none">
	
		<text transform="matrix(1 0 0 1 2.9981 9.142)" display="inline" opacity="0.2" font-family="'FrutigerLTStd-Roman'" font-size="9">6</text>
</g>
<g id="numbers-text-objects" display="none">
	
		<text transform="matrix(1 0 0 1 2.498 8.6418)" display="inline" fill="#FFFFFF" font-family="'FrutigerLTStd-Roman'" font-size="9">6</text>
</g>
<g id="shadows-outlines">
	<g opacity="0.2">
		<path d="M7.185,3.749C6.86,3.578,6.473,3.488,6.068,3.488c-1.171,0-1.737,1.08-1.756,2.286l0.019-0.009
			c0.423-0.414,0.854-0.576,1.377-0.576c1.215,0,1.891,0.855,1.891,1.98c0,1.297-0.873,2.08-2.017,2.08
			c-1.756,0-2.115-1.585-2.115-3.017c0-1.701,0.558-3.483,2.547-3.483c0.433,0,1.071,0.099,1.297,0.198L7.185,3.749z M5.591,5.928
			c-0.747,0-1.17,0.558-1.17,1.261c0,0.594,0.369,1.323,1.107,1.323c0.756,0,1.116-0.648,1.116-1.323
			C6.645,6.603,6.302,5.928,5.591,5.928z"/>
	</g>
</g>
<g id="numbers-outlines">
	<g>
		<path fill="#FFFFFF" d="M6.685,3.249C6.36,3.078,5.973,2.988,5.568,2.988c-1.171,0-1.738,1.08-1.756,2.286L3.83,5.266
			c0.424-0.414,0.855-0.576,1.378-0.576c1.215,0,1.891,0.855,1.891,1.98c0,1.297-0.873,2.08-2.017,2.08
			c-1.756,0-2.115-1.585-2.115-3.017c0-1.701,0.558-3.483,2.547-3.483c0.433,0,1.071,0.099,1.297,0.198L6.685,3.249z M5.091,5.428
			c-0.747,0-1.171,0.558-1.171,1.261c0,0.594,0.369,1.323,1.107,1.323c0.757,0,1.117-0.648,1.117-1.323
			C6.145,6.103,5.802,5.428,5.091,5.428z"/>
	</g>
</g>
</svg>
