<?xml version="1.0" encoding="utf-8"?>
<!-- Generator: Adobe Illustrator 18.1.1, SVG Export Plug-In . SVG Version: 6.00 Build 0)  -->
<svg version="1.1" xmlns="http://www.w3.org/2000/svg" xmlns:xlink="http://www.w3.org/1999/xlink" x="0px" y="0px"
	 viewBox="0 0 12 12" enable-background="new 0 0 12 12" xml:space="preserve">
<g id="shadows-text-objects" display="none">
	<text transform="matrix(1 0 0 1 3.4981 9.142)" display="inline" opacity="0.2" font-family="'FrutigerLTStd-Bold'" font-size="9">8</text>
</g>
<g id="numbers-text-objects" display="none">
	<text transform="matrix(1 0 0 1 2.998 8.6418)" display="inline" font-family="'FrutigerLTStd-Bold'" font-size="9">8</text>
</g>
<g id="shadows-outlines">
	<g opacity="0.2">
		<path d="M4.966,5.864c-0.63-0.278-1.044-0.801-1.044-1.458c0-1.125,0.854-1.656,1.998-1.656c1.107,0,2.106,0.459,2.106,1.513
			c0,0.566-0.351,1.224-1.044,1.503v0.009c0.828,0.388,1.206,0.928,1.206,1.647c0,1.27-0.918,1.828-2.16,1.828
			c-1.225,0-2.215-0.531-2.215-1.81c0-0.702,0.396-1.188,1.152-1.558V5.864z M6.028,8.313c0.504,0,0.899-0.315,0.899-0.837
			c0-0.622-0.53-0.919-1.053-1.09c-0.45,0.216-0.801,0.504-0.801,1.035C5.074,7.944,5.523,8.313,6.028,8.313z M6.118,5.388
			C6.469,5.262,6.82,4.865,6.82,4.479c0-0.468-0.297-0.792-0.774-0.792c-0.459,0-0.918,0.252-0.918,0.756
			C5.128,4.982,5.686,5.226,6.118,5.388z"/>
	</g>
</g>
<g id="numbers-outlines">
	<g>
		<path d="M4.465,5.364C3.836,5.086,3.422,4.563,3.422,3.906c0-1.125,0.854-1.656,1.998-1.656c1.107,0,2.106,0.459,2.106,1.513
			c0,0.566-0.351,1.224-1.044,1.503v0.009c0.828,0.388,1.206,0.928,1.206,1.647c0,1.27-0.918,1.828-2.161,1.828
			c-1.225,0-2.215-0.531-2.215-1.81c0-0.702,0.396-1.188,1.152-1.558V5.364z M5.527,7.813c0.505,0,0.9-0.315,0.9-0.837
			c0-0.622-0.531-0.919-1.053-1.09c-0.45,0.216-0.801,0.504-0.801,1.035C4.574,7.444,5.023,7.813,5.527,7.813z M5.617,4.888
			C5.969,4.762,6.32,4.365,6.32,3.979c0-0.468-0.297-0.792-0.774-0.792c-0.459,0-0.919,0.252-0.919,0.756
			C4.627,4.482,5.186,4.726,5.617,4.888z"/>
	</g>
</g>
</svg>
