<?xml version="1.0" encoding="utf-8"?>
<!-- Generator: Adobe Illustrator 18.1.1, SVG Export Plug-In . SVG Version: 6.00 Build 0)  -->
<svg version="1.1" xmlns="http://www.w3.org/2000/svg" xmlns:xlink="http://www.w3.org/1999/xlink" x="0px" y="0px"
	 viewBox="0 0 12 12" enable-background="new 0 0 12 12" xml:space="preserve">
<g id="shadows-text-objects" display="none">
	
		<text transform="matrix(1 0 0 1 3.4981 9.142)" display="inline" opacity="0.2" font-family="'FrutigerLTStd-Roman'" font-size="9">8</text>
</g>
<g id="numbers-text-objects" display="none">
	<text transform="matrix(1 0 0 1 2.998 8.6418)" display="inline" font-family="'FrutigerLTStd-Roman'" font-size="9">8</text>
</g>
<g id="shadows-outlines">
	<g opacity="0.2">
		<path d="M3.841,7.494c0-0.837,0.576-1.396,1.332-1.656V5.819c-0.918-0.324-1.18-0.972-1.18-1.566c0-0.801,0.757-1.503,2.035-1.503
			c1.242,0,1.944,0.72,1.944,1.413c0,0.702-0.288,1.17-1.135,1.62c0.757,0.262,1.323,0.829,1.323,1.666
			c0,1.26-0.999,1.801-2.178,1.801C4.921,9.25,3.841,8.655,3.841,7.494z M5.839,6.171c-0.513,0.36-1.044,0.531-1.044,1.27
			c0,0.692,0.639,1.071,1.27,1.071c0.603,0,1.125-0.36,1.143-0.99C7.234,6.639,6.514,6.495,5.839,6.171z M6.19,5.522
			C6.928,4.955,7.019,4.712,7.019,4.28c0-0.594-0.612-0.792-1.062-0.792c-0.414,0-1.062,0.297-1.062,0.891
			C4.894,4.812,5.344,5.108,6.19,5.522z"/>
	</g>
</g>
<g id="numbers-outlines">
	<g>
		<path d="M3.34,6.994c0-0.837,0.576-1.396,1.332-1.656V5.319C3.754,4.995,3.493,4.348,3.493,3.753c0-0.801,0.757-1.503,2.034-1.503
			c1.243,0,1.945,0.72,1.945,1.413c0,0.702-0.288,1.17-1.135,1.62c0.757,0.262,1.323,0.829,1.323,1.666
			c0,1.26-0.999,1.801-2.179,1.801C4.42,8.75,3.34,8.155,3.34,6.994z M5.339,5.671c-0.513,0.36-1.044,0.531-1.044,1.27
			c0,0.692,0.639,1.071,1.27,1.071c0.603,0,1.125-0.36,1.143-0.99C6.734,6.139,6.014,5.995,5.339,5.671z M5.689,5.022
			C6.428,4.455,6.519,4.212,6.519,3.78c0-0.594-0.612-0.792-1.063-0.792c-0.414,0-1.062,0.297-1.062,0.891
			C4.394,4.312,4.844,4.608,5.689,5.022z"/>
	</g>
</g>
</svg>
