<?xml version="1.0" encoding="utf-8"?>
<!-- Generator: Adobe Illustrator 18.1.1, SVG Export Plug-In . SVG Version: 6.00 Build 0)  -->
<svg version="1.1" xmlns="http://www.w3.org/2000/svg" xmlns:xlink="http://www.w3.org/1999/xlink" x="0px" y="0px"
	 viewBox="0 0 18 18" enable-background="new 0 0 18 18" xml:space="preserve">
<g id="shadows-text-objects" display="none">
	
		<text transform="matrix(1 0 0 1 6.636 13.7503)" display="inline" opacity="0.2" font-family="'FrutigerLTStd-Bold'" font-size="13">8</text>
</g>
<g id="numbers-text-objects" display="none">
	<text transform="matrix(1 0 0 1 5.8862 13.0002)" display="inline" font-family="'FrutigerLTStd-Bold'" font-size="13">8</text>
</g>
<g id="shadows-outlines">
	<g opacity="0.2">
		<path d="M8.755,9.018c-0.91-0.402-1.508-1.156-1.508-2.105c0-1.625,1.235-2.393,2.886-2.393c1.6,0,3.043,0.663,3.043,2.185
			c0,0.819-0.508,1.768-1.509,2.171v0.013c1.196,0.56,1.742,1.339,1.742,2.379c0,1.833-1.326,2.64-3.12,2.64
			c-1.768,0-3.198-0.768-3.198-2.613c0-1.014,0.572-1.716,1.664-2.249V9.018z M10.289,12.554c0.729,0,1.301-0.455,1.301-1.209
			c0-0.896-0.768-1.326-1.521-1.573c-0.65,0.312-1.157,0.729-1.157,1.495C8.911,12.021,9.562,12.554,10.289,12.554z M10.419,8.329
			c0.508-0.182,1.015-0.754,1.015-1.313c0-0.676-0.43-1.144-1.118-1.144c-0.663,0-1.326,0.364-1.326,1.092
			C8.989,7.744,9.795,8.095,10.419,8.329z"/>
	</g>
</g>
<g id="numbers-outlines">
	<g>
		<path d="M8.006,8.268c-0.91-0.402-1.509-1.156-1.509-2.105c0-1.625,1.235-2.393,2.886-2.393c1.6,0,3.043,0.663,3.043,2.185
			c0,0.819-0.508,1.768-1.509,2.171v0.013c1.196,0.56,1.742,1.339,1.742,2.379c0,1.833-1.326,2.64-3.12,2.64
			c-1.768,0-3.197-0.768-3.197-2.613c0-1.014,0.571-1.716,1.664-2.249V8.268z M9.539,11.804c0.729,0,1.301-0.455,1.301-1.209
			c0-0.896-0.768-1.326-1.521-1.573c-0.65,0.312-1.157,0.729-1.157,1.495C8.161,11.271,8.812,11.804,9.539,11.804z M9.67,7.579
			c0.507-0.182,1.014-0.754,1.014-1.313c0-0.676-0.43-1.144-1.118-1.144c-0.663,0-1.326,0.364-1.326,1.092
			C8.239,6.994,9.045,7.345,9.67,7.579z"/>
	</g>
</g>
</svg>
