<?xml version="1.0" encoding="utf-8"?>
<!-- Generator: Adobe Illustrator 18.1.1, SVG Export Plug-In . SVG Version: 6.00 Build 0)  -->
<svg version="1.1" xmlns="http://www.w3.org/2000/svg" xmlns:xlink="http://www.w3.org/1999/xlink" x="0px" y="0px"
	 viewBox="0 0 18 18" enable-background="new 0 0 18 18" xml:space="preserve">
<g id="shadows-text-objects" display="none">
	
		<text transform="matrix(1 0 0 1 6.636 13.7503)" display="inline" opacity="0.2" font-family="'FrutigerLTStd-Roman'" font-size="13">8</text>
</g>
<g id="numbers-text-objects" display="none">
	<text transform="matrix(1 0 0 1 5.8862 13.0002)" display="inline" font-family="'FrutigerLTStd-Roman'" font-size="13">8</text>
</g>
<g id="shadows-outlines">
	<g opacity="0.2">
		<path d="M7.13,11.371c0-1.209,0.832-2.016,1.924-2.393V8.953C7.729,8.485,7.351,7.549,7.351,6.691
			c0-1.157,1.093-2.172,2.938-2.172c1.794,0,2.809,1.04,2.809,2.041c0,1.015-0.416,1.69-1.639,2.341
			c1.093,0.377,1.911,1.195,1.911,2.404c0,1.82-1.442,2.601-3.146,2.601C8.69,13.906,7.13,13.048,7.13,11.371z M10.017,9.46
			c-0.741,0.52-1.509,0.767-1.509,1.833c0,1.001,0.923,1.547,1.833,1.547c0.872,0,1.626-0.52,1.651-1.43
			C12.031,10.136,10.991,9.928,10.017,9.46z M10.523,8.524c1.066-0.819,1.196-1.171,1.196-1.795c0-0.857-0.885-1.144-1.534-1.144
			c-0.599,0-1.534,0.429-1.534,1.287C8.651,7.497,9.301,7.926,10.523,8.524z"/>
	</g>
</g>
<g id="numbers-outlines">
	<g>
		<path d="M6.381,10.621c0-1.209,0.832-2.016,1.924-2.393V8.203C6.979,7.735,6.602,6.799,6.602,5.941
			c0-1.157,1.092-2.172,2.938-2.172c1.794,0,2.809,1.04,2.809,2.041c0,1.015-0.416,1.69-1.639,2.341
			c1.093,0.377,1.911,1.195,1.911,2.404c0,1.82-1.442,2.601-3.146,2.601C7.94,13.156,6.381,12.298,6.381,10.621z M9.267,8.71
			c-0.741,0.52-1.509,0.767-1.509,1.833c0,1.001,0.924,1.547,1.834,1.547c0.871,0,1.625-0.52,1.65-1.43
			C11.281,9.386,10.241,9.178,9.267,8.71z M9.773,7.774c1.066-0.819,1.196-1.171,1.196-1.795c0-0.857-0.885-1.144-1.534-1.144
			c-0.598,0-1.534,0.429-1.534,1.287C7.901,6.747,8.551,7.176,9.773,7.774z"/>
	</g>
</g>
</svg>
