<?xml version="1.0" encoding="utf-8"?>
<!-- Generator: Adobe Illustrator 18.1.1, SVG Export Plug-In . SVG Version: 6.00 Build 0)  -->
<svg version="1.1" xmlns="http://www.w3.org/2000/svg" xmlns:xlink="http://www.w3.org/1999/xlink" x="0px" y="0px"
	 viewBox="0 0 24 24" enable-background="new 0 0 24 24" xml:space="preserve">
<g id="shadows-text-objects" display="none">
	
		<text transform="matrix(1 0 0 1 8.7739 18.4326)" display="inline" opacity="0.2" font-family="'FrutigerLTStd-Bold'" font-size="17">8</text>
</g>
<g id="numbers-text-objects" display="none">
	
		<text transform="matrix(1 0 0 1 7.7739 17.4329)" display="inline" fill="#FFFFFF" font-family="'FrutigerLTStd-Bold'" font-size="17">8</text>
</g>
<g id="shadows-outlines">
	<g opacity="0.2">
		<path d="M11.544,12.245c-1.189-0.526-1.972-1.513-1.972-2.753c0-2.125,1.615-3.129,3.774-3.129c2.091,0,3.978,0.867,3.978,2.856
			c0,1.071-0.663,2.312-1.972,2.839v0.017c1.563,0.731,2.277,1.751,2.277,3.11c0,2.397-1.733,3.451-4.08,3.451
			c-2.312,0-4.182-1.003-4.182-3.417c0-1.325,0.748-2.243,2.176-2.94V12.245z M13.55,16.869c0.952,0,1.7-0.596,1.7-1.581
			c0-1.173-1.003-1.733-1.988-2.058c-0.851,0.408-1.514,0.952-1.514,1.955C11.748,16.172,12.599,16.869,13.55,16.869z M13.72,11.344
			c0.664-0.237,1.326-0.985,1.326-1.717c0-0.883-0.561-1.495-1.462-1.495c-0.866,0-1.733,0.476-1.733,1.428
			C11.851,10.58,12.904,11.039,13.72,11.344z"/>
	</g>
</g>
<g id="numbers-outlines">
	<g>
		<path fill="#FFFFFF" d="M10.545,11.245c-1.189-0.526-1.973-1.513-1.973-2.753c0-2.125,1.615-3.128,3.774-3.128
			c2.091,0,3.978,0.867,3.978,2.855c0,1.071-0.663,2.312-1.972,2.839v0.017c1.563,0.731,2.277,1.751,2.277,3.11
			c0,2.397-1.733,3.451-4.079,3.451c-2.312,0-4.182-1.003-4.182-3.417c0-1.325,0.748-2.243,2.176-2.94V11.245z M12.551,15.869
			c0.951,0,1.699-0.596,1.699-1.581c0-1.173-1.003-1.733-1.988-2.057c-0.85,0.407-1.514,0.951-1.514,1.954
			C10.748,15.172,11.599,15.869,12.551,15.869z M12.721,10.345c0.663-0.238,1.325-0.986,1.325-1.717
			c0-0.884-0.561-1.496-1.462-1.496c-0.866,0-1.733,0.476-1.733,1.428C10.851,9.58,11.904,10.039,12.721,10.345z"/>
	</g>
</g>
</svg>
