<?xml version="1.0" encoding="utf-8"?>
<!-- Generator: Adobe Illustrator 18.1.1, SVG Export Plug-In . SVG Version: 6.00 Build 0)  -->
<svg version="1.1" xmlns="http://www.w3.org/2000/svg" xmlns:xlink="http://www.w3.org/1999/xlink" x="0px" y="0px"
	 viewBox="0 0 12 12" enable-background="new 0 0 12 12" xml:space="preserve">
<g id="shadows-text-objects" display="none">
	
		<text transform="matrix(1 0 0 1 2.9981 9.142)" display="inline" opacity="0.2" font-family="'FrutigerLTStd-Roman'" font-size="9">8</text>
</g>
<g id="numbers-text-objects" display="none">
	
		<text transform="matrix(1 0 0 1 2.498 8.6418)" display="inline" fill="#FFFFFF" font-family="'FrutigerLTStd-Roman'" font-size="9">8</text>
</g>
<g id="shadows-outlines">
	<g opacity="0.2">
		<path d="M3.341,7.494c0-0.837,0.576-1.396,1.332-1.656V5.819c-0.918-0.324-1.18-0.972-1.18-1.566c0-0.801,0.757-1.503,2.035-1.503
			c1.242,0,1.944,0.72,1.944,1.413c0,0.702-0.288,1.17-1.135,1.62c0.757,0.262,1.323,0.829,1.323,1.666
			c0,1.26-0.999,1.801-2.178,1.801C4.421,9.25,3.341,8.655,3.341,7.494z M5.339,6.171c-0.513,0.36-1.044,0.531-1.044,1.27
			c0,0.692,0.639,1.071,1.27,1.071c0.603,0,1.125-0.36,1.143-0.99C6.734,6.639,6.014,6.495,5.339,6.171z M5.69,5.522
			C6.428,4.955,6.519,4.712,6.519,4.28c0-0.594-0.612-0.792-1.062-0.792c-0.414,0-1.062,0.297-1.062,0.891
			C4.394,4.812,4.844,5.108,5.69,5.522z"/>
	</g>
</g>
<g id="numbers-outlines">
	<g>
		<path fill="#FFFFFF" d="M2.84,6.994c0-0.837,0.576-1.396,1.332-1.656V5.319C3.254,4.995,2.993,4.348,2.993,3.753
			c0-0.801,0.757-1.503,2.034-1.503c1.243,0,1.945,0.72,1.945,1.413c0,0.702-0.288,1.17-1.135,1.62
			c0.757,0.262,1.323,0.829,1.323,1.666c0,1.26-0.999,1.801-2.179,1.801C3.92,8.75,2.84,8.155,2.84,6.994z M4.839,5.671
			c-0.513,0.36-1.044,0.531-1.044,1.27c0,0.692,0.639,1.071,1.27,1.071c0.603,0,1.125-0.36,1.143-0.99
			C6.234,6.139,5.514,5.995,4.839,5.671z M5.189,5.022C5.928,4.455,6.019,4.212,6.019,3.78c0-0.594-0.612-0.792-1.063-0.792
			c-0.414,0-1.062,0.297-1.062,0.891C3.894,4.312,4.344,4.608,5.189,5.022z"/>
	</g>
</g>
</svg>
