<?xml version="1.0" encoding="utf-8"?>
<!-- Generator: Adobe Illustrator 18.1.1, SVG Export Plug-In . SVG Version: 6.00 Build 0)  -->
<svg version="1.1" xmlns="http://www.w3.org/2000/svg" xmlns:xlink="http://www.w3.org/1999/xlink" x="0px" y="0px"
	 viewBox="0 0 24 24" enable-background="new 0 0 24 24" xml:space="preserve">
<g id="shadows-text-objects" display="none">
	
		<text transform="matrix(1 0 0 1 8.7739 18.4326)" display="inline" opacity="0.2" font-family="'FrutigerLTStd-Roman'" font-size="17">8</text>
</g>
<g id="numbers-text-objects" display="none">
	
		<text transform="matrix(1 0 0 1 7.7739 17.4329)" display="inline" fill="#FFFFFF" font-family="'FrutigerLTStd-Roman'" font-size="17">8</text>
</g>
<g id="shadows-outlines">
	<g opacity="0.2">
		<path d="M9.42,15.322c0-1.581,1.088-2.635,2.516-3.128V12.16c-1.734-0.611-2.227-1.836-2.227-2.957c0-1.514,1.428-2.84,3.841-2.84
			c2.347,0,3.672,1.36,3.672,2.67c0,1.325-0.544,2.209-2.142,3.059c1.428,0.493,2.499,1.564,2.499,3.146
			c0,2.38-1.887,3.399-4.114,3.399C11.459,18.637,9.42,17.515,9.42,15.322z M13.193,12.823c-0.969,0.68-1.972,1.003-1.972,2.396
			c0,1.31,1.207,2.023,2.396,2.023c1.14,0,2.125-0.681,2.159-1.87C15.828,13.707,14.469,13.436,13.193,12.823z M13.856,11.6
			c1.394-1.071,1.563-1.53,1.563-2.346c0-1.122-1.155-1.496-2.006-1.496c-0.782,0-2.006,0.561-2.006,1.683
			C11.408,10.256,12.259,10.817,13.856,11.6z"/>
	</g>
</g>
<g id="numbers-outlines">
	<g>
		<path fill="#FFFFFF" d="M8.42,14.322c0-1.581,1.088-2.635,2.516-3.128V11.16c-1.734-0.611-2.227-1.836-2.227-2.957
			c0-1.514,1.428-2.839,3.842-2.839c2.346,0,3.671,1.359,3.671,2.669c0,1.325-0.544,2.209-2.142,3.06
			c1.428,0.492,2.499,1.563,2.499,3.145c0,2.38-1.887,3.399-4.114,3.399C10.459,17.637,8.42,16.515,8.42,14.322z M12.193,11.823
			c-0.969,0.68-1.972,1.003-1.972,2.396c0,1.31,1.207,2.023,2.397,2.023c1.139,0,2.124-0.681,2.158-1.87
			C14.828,12.707,13.469,12.436,12.193,11.823z M12.856,10.6c1.394-1.071,1.563-1.53,1.563-2.346c0-1.122-1.155-1.496-2.006-1.496
			c-0.781,0-2.006,0.562-2.006,1.683C10.408,9.257,11.259,9.817,12.856,10.6z"/>
	</g>
</g>
</svg>
