<?xml version="1.0" encoding="utf-8"?>
<!-- Generator: Adobe Illustrator 18.1.1, SVG Export Plug-In . SVG Version: 6.00 Build 0)  -->
<svg version="1.1" xmlns="http://www.w3.org/2000/svg" xmlns:xlink="http://www.w3.org/1999/xlink" x="0px" y="0px"
	 viewBox="0 0 18 18" enable-background="new 0 0 18 18" xml:space="preserve">
<g id="shadows-text-objects" display="none">
	
		<text transform="matrix(1 0 0 1 6.636 13.7503)" display="inline" opacity="0.2" font-family="'FrutigerLTStd-Roman'" font-size="13">9</text>
</g>
<g id="numbers-text-objects" display="none">
	<text transform="matrix(1 0 0 1 5.8862 13.0002)" display="inline" font-family="'FrutigerLTStd-Roman'" font-size="13">9</text>
</g>
<g id="shadows-outlines">
	<g opacity="0.2">
		<path d="M7.819,12.463c0.468,0.247,1.026,0.377,1.611,0.377c1.69,0,2.51-1.56,2.536-3.302L11.94,9.551
			c-0.611,0.598-1.235,0.832-1.989,0.832c-1.755,0-2.73-1.235-2.73-2.859c0-1.872,1.262-3.004,2.912-3.004
			c2.535,0,3.056,2.288,3.056,4.355c0,2.457-0.806,5.031-3.68,5.031c-0.624,0-1.547-0.144-1.872-0.286L7.819,12.463z M10.12,9.316
			c1.079,0,1.69-0.806,1.69-1.819c0-0.858-0.533-1.911-1.6-1.911c-1.092,0-1.612,0.936-1.612,1.911
			C8.599,8.342,9.093,9.316,10.12,9.316z"/>
	</g>
</g>
<g id="numbers-outlines">
	<g>
		<path d="M7.069,11.713c0.468,0.247,1.026,0.377,1.612,0.377c1.689,0,2.509-1.56,2.535-3.302L11.19,8.801
			c-0.611,0.598-1.235,0.832-1.989,0.832c-1.755,0-2.73-1.235-2.73-2.859c0-1.872,1.262-3.004,2.912-3.004
			c2.535,0,3.056,2.288,3.056,4.355c0,2.457-0.806,5.031-3.679,5.031c-0.625,0-1.547-0.144-1.873-0.286L7.069,11.713z M9.37,8.566
			c1.079,0,1.69-0.806,1.69-1.819c0-0.858-0.533-1.911-1.6-1.911c-1.092,0-1.611,0.936-1.611,1.911
			C7.85,7.592,8.344,8.566,9.37,8.566z"/>
	</g>
</g>
</svg>
