<?xml version="1.0" encoding="utf-8"?>
<!-- Generator: Adobe Illustrator 18.1.1, SVG Export Plug-In . SVG Version: 6.00 Build 0)  -->
<svg version="1.1" xmlns="http://www.w3.org/2000/svg" xmlns:xlink="http://www.w3.org/1999/xlink" x="0px" y="0px"
	 viewBox="0 0 24 24" enable-background="new 0 0 24 24" xml:space="preserve">
<g id="shadows-text-objects" display="none">
	
		<text transform="matrix(1 0 0 1 8.7739 18.4326)" display="inline" opacity="0.2" font-family="'FrutigerLTStd-Roman'" font-size="17">9</text>
</g>
<g id="numbers-text-objects" display="none">
	<text transform="matrix(1 0 0 1 7.7739 17.4329)" display="inline" font-family="'FrutigerLTStd-Roman'" font-size="17">9</text>
</g>
<g id="shadows-outlines">
	<g opacity="0.2">
		<path d="M10.321,16.75c0.612,0.322,1.343,0.493,2.108,0.493c2.21,0,3.28-2.04,3.314-4.317l-0.034,0.017
			c-0.799,0.781-1.614,1.088-2.601,1.088c-2.295,0-3.569-1.615-3.569-3.739c0-2.448,1.648-3.928,3.808-3.928
			c3.314,0,3.994,2.992,3.994,5.695c0,3.212-1.054,6.578-4.81,6.578c-0.816,0-2.023-0.188-2.448-0.374L10.321,16.75z M13.329,12.637
			c1.411,0,2.21-1.055,2.21-2.381c0-1.121-0.696-2.498-2.091-2.498c-1.428,0-2.107,1.224-2.107,2.498
			C11.341,11.361,11.987,12.637,13.329,12.637z"/>
	</g>
</g>
<g id="numbers-outlines">
	<g>
		<path d="M9.321,15.75c0.612,0.322,1.343,0.493,2.108,0.493c2.21,0,3.28-2.04,3.314-4.317l-0.034,0.017
			c-0.799,0.781-1.614,1.088-2.601,1.088c-2.295,0-3.569-1.615-3.569-3.739c0-2.448,1.648-3.927,3.808-3.927
			c3.314,0,3.994,2.991,3.994,5.694c0,3.212-1.054,6.578-4.81,6.578c-0.816,0-2.023-0.188-2.448-0.374L9.321,15.75z M12.33,11.637
			c1.411,0,2.209-1.054,2.209-2.38c0-1.122-0.696-2.499-2.091-2.499c-1.428,0-2.107,1.224-2.107,2.499
			C10.341,10.361,10.987,11.637,12.33,11.637z"/>
	</g>
</g>
</svg>
