<?xml version="1.0" encoding="utf-8"?>
<!-- Generator: Adobe Illustrator 18.1.1, SVG Export Plug-In . SVG Version: 6.00 Build 0)  -->
<svg version="1.1" xmlns="http://www.w3.org/2000/svg" xmlns:xlink="http://www.w3.org/1999/xlink" x="0px" y="0px"
	 viewBox="0 0 12 12" enable-background="new 0 0 12 12" xml:space="preserve">
<g id="shadows-text-objects" display="none">
	
		<text transform="matrix(1 0 0 1 3.4981 9.142)" display="inline" opacity="0.2" font-family="'FrutigerLTStd-Roman'" font-size="9">9</text>
</g>
<g id="numbers-text-objects" display="none">
	<text transform="matrix(1 0 0 1 2.998 8.6418)" display="inline" font-family="'FrutigerLTStd-Roman'" font-size="9">9</text>
</g>
<g id="shadows-outlines">
	<g opacity="0.2">
		<path d="M4.317,8.25c0.324,0.172,0.711,0.262,1.116,0.262c1.17,0,1.737-1.081,1.756-2.287L7.171,6.233
			C6.748,6.647,6.316,6.81,5.794,6.81c-1.216,0-1.891-0.854-1.891-1.98c0-1.296,0.873-2.079,2.017-2.079
			c1.756,0,2.115,1.584,2.115,3.016c0,1.701-0.558,3.484-2.547,3.484c-0.433,0-1.071-0.1-1.297-0.198L4.317,8.25z M5.911,6.071
			c0.747,0,1.17-0.558,1.17-1.26c0-0.594-0.369-1.323-1.107-1.323c-0.756,0-1.116,0.648-1.116,1.323
			C4.857,5.396,5.2,6.071,5.911,6.071z"/>
	</g>
</g>
<g id="numbers-outlines">
	<g>
		<path d="M3.817,7.75c0.324,0.172,0.711,0.262,1.116,0.262c1.17,0,1.737-1.081,1.756-2.287L6.671,5.733
			C6.248,6.147,5.816,6.31,5.294,6.31c-1.216,0-1.891-0.854-1.891-1.98c0-1.296,0.873-2.079,2.017-2.079
			c1.756,0,2.115,1.584,2.115,3.016c0,1.701-0.558,3.484-2.547,3.484c-0.433,0-1.072-0.1-1.297-0.198L3.817,7.75z M5.41,5.571
			c0.748,0,1.171-0.558,1.171-1.26c0-0.594-0.369-1.323-1.107-1.323c-0.756,0-1.116,0.648-1.116,1.323
			C4.357,4.896,4.699,5.571,5.41,5.571z"/>
	</g>
</g>
</svg>
