<?xml version="1.0" encoding="utf-8"?>
<!-- Generator: Adobe Illustrator 18.1.1, SVG Export Plug-In . SVG Version: 6.00 Build 0)  -->
<svg version="1.1" xmlns="http://www.w3.org/2000/svg" xmlns:xlink="http://www.w3.org/1999/xlink" x="0px" y="0px"
	 viewBox="0 0 24 24" enable-background="new 0 0 24 24" xml:space="preserve">
<g id="shadows-text-objects" display="none">
	
		<text transform="matrix(1 0 0 1 8.7739 18.4326)" display="inline" opacity="0.2" font-family="'FrutigerLTStd-Bold'" font-size="17">9</text>
</g>
<g id="numbers-text-objects" display="none">
	
		<text transform="matrix(1 0 0 1 7.7739 17.4329)" display="inline" fill="#FFFFFF" font-family="'FrutigerLTStd-Bold'" font-size="17">9</text>
</g>
<g id="shadows-outlines">
	<g opacity="0.2">
		<path d="M10.423,16.291c0.629,0.271,1.274,0.476,2.073,0.476c2.058,0,2.754-1.903,2.822-3.671l-0.034-0.035
			c-0.561,0.834-1.292,1.19-2.295,1.19c-2.244,0-3.468-1.428-3.468-3.62c0-2.567,1.258-4.268,3.943-4.268
			c3.298,0,4.029,2.737,4.029,5.525c0,3.212-1.037,6.748-4.879,6.748c-0.867,0-1.683-0.136-2.499-0.425L10.423,16.291z
			 M15.114,10.239c0-1.122-0.476-2.107-1.649-2.107c-1.104,0-1.563,1.071-1.563,2.124c0,1.156,0.476,2.228,1.615,2.228
			C14.672,12.483,15.114,11.43,15.114,10.239z"/>
	</g>
</g>
<g id="numbers-outlines">
	<g>
		<path fill="#FFFFFF" d="M9.423,15.291c0.629,0.271,1.274,0.476,2.073,0.476c2.058,0,2.754-1.903,2.822-3.671l-0.034-0.034
			c-0.561,0.833-1.292,1.189-2.295,1.189c-2.243,0-3.468-1.428-3.468-3.62c0-2.567,1.258-4.267,3.943-4.267
			c3.298,0,4.029,2.736,4.029,5.524c0,3.212-1.037,6.748-4.879,6.748c-0.867,0-1.683-0.136-2.498-0.425L9.423,15.291z M14.114,9.239
			c0-1.121-0.476-2.107-1.649-2.107c-1.104,0-1.563,1.071-1.563,2.125c0,1.155,0.476,2.227,1.615,2.227
			C13.672,11.483,14.114,10.43,14.114,9.239z"/>
	</g>
</g>
</svg>
