<?xml version="1.0" encoding="UTF-8" standalone="no"?>
<!-- Created with Inkscape (http://www.inkscape.org/) -->

<svg
   xmlns:dc="http://purl.org/dc/elements/1.1/"
   xmlns:cc="http://creativecommons.org/ns#"
   xmlns:rdf="http://www.w3.org/1999/02/22-rdf-syntax-ns#"
   xmlns:svg="http://www.w3.org/2000/svg"
   xmlns="http://www.w3.org/2000/svg"
   xmlns:sodipodi="http://sodipodi.sourceforge.net/DTD/sodipodi-0.dtd"
   xmlns:inkscape="http://www.inkscape.org/namespaces/inkscape"
   width="18"
   height="18"
   id="svg4619"
   version="1.1"
   inkscape:version="0.48.4 r9939"
   sodipodi:docname="aed-18.svg">
  <defs
     id="defs4621" />
  <sodipodi:namedview
     id="base"
     pagecolor="#ffffff"
     bordercolor="#666666"
     borderopacity="1.0"
     inkscape:pageopacity="0.0"
     inkscape:pageshadow="2"
     inkscape:zoom="16"
     inkscape:cx="6.010587"
     inkscape:cy="9.5762446"
     inkscape:document-units="px"
     inkscape:current-layer="layer1"
     showgrid="true"
     showguides="true"
     inkscape:guide-bbox="true"
     inkscape:window-width="1280"
     inkscape:window-height="776"
     inkscape:window-x="0"
     inkscape:window-y="24"
     inkscape:window-maximized="1"
     inkscape:snap-bbox="true"
     showborder="false">
    <inkscape:grid
       type="xygrid"
       id="grid4627"
       empspacing="5"
       visible="true"
       enabled="true"
       snapvisiblegridlinesonly="true" />
    <sodipodi:guide
       orientation="0,1"
       position="7,18"
       id="guide4659" />
    <sodipodi:guide
       orientation="1,0"
       position="18,9"
       id="guide4661" />
    <sodipodi:guide
       orientation="0,1"
       position="16,17"
       id="guide4663" />
    <sodipodi:guide
       orientation="1,0"
       position="17,14"
       id="guide4665" />
    <sodipodi:guide
       orientation="1,0"
       position="0,16"
       id="guide4667" />
    <sodipodi:guide
       orientation="0,1"
       position="8,0"
       id="guide4669" />
    <sodipodi:guide
       orientation="1,0"
       position="2,10"
       id="guide4671" />
    <sodipodi:guide
       orientation="0,1"
       position="12,2"
       id="guide4673" />
  </sodipodi:namedview>
  <metadata
     id="metadata4624">
    <rdf:RDF>
      <cc:Work
         rdf:about="">
        <dc:format>image/svg+xml</dc:format>
        <dc:type
           rdf:resource="http://purl.org/dc/dcmitype/StillImage" />
        <dc:title></dc:title>
      </cc:Work>
    </rdf:RDF>
  </metadata>
  <g
     inkscape:label="Layer 1"
     inkscape:groupmode="layer"
     id="layer1"
     transform="translate(0,-1034.3622)">
    <rect
       style="fill:#ff0000;fill-opacity:0;stroke:none"
       id="rect5156"
       width="18"
       height="18.000017"
       x="1.7763568e-15"
       y="1034.3622" />
    <path
       id="path5132"
       transform="translate(0,1034.3622)"
       d="M 12.90625 1.0625 C 11.355347 1.1194634 9.8645832 2 9.5 3.09375 C 9.0833333 1.84375 7.2083333 0.88535 5.4375 1.09375 C 3.6666667 1.30205 2 2.6667 2 6 C 2 9.3333 5.3333333 11 9.5 16 C 13.666667 11 17 9.3333 17 6 C 17 2.2499813 14.900269 0.9892614 12.90625 1.0625 z M 8 4 L 11 4 L 9.8125 7 L 13 7 L 9 13 L 9 9 L 6 9 L 8 4 z "
       style="fill:#444444;fill-opacity:1;stroke:#ffffff;stroke-linejoin:round;stroke-linecap:round;stroke-width:2;stroke-miterlimit:4;stroke-dasharray:none;opacity:0.3" />
    <path
       style="fill:#444444;fill-opacity:1;stroke:none"
       d="M 12.90625 1.0625 C 11.355347 1.1194634 9.8645832 2 9.5 3.09375 C 9.0833333 1.84375 7.2083333 0.88535 5.4375 1.09375 C 3.6666667 1.30205 2 2.6667 2 6 C 2 9.3333 5.3333333 11 9.5 16 C 13.666667 11 17 9.3333 17 6 C 17 2.2499813 14.900269 0.9892614 12.90625 1.0625 z M 8 4 L 11 4 L 9.8125 7 L 13 7 L 9 13 L 9 9 L 6 9 L 8 4 z "
       id="path3859"
       transform="translate(0,1034.3622)" />
  </g>
</svg>
