<?xml version="1.0" encoding="utf-8"?>
<!-- Generator: Adobe Illustrator 15.1.0, SVG Export Plug-In . SVG Version: 6.00 Build 0)  -->
<!DOCTYPE svg PUBLIC "-//W3C//DTD SVG 1.1//EN" "http://www.w3.org/Graphics/SVG/1.1/DTD/svg11.dtd">
<svg version="1.1"
	 id="svg" xmlns:dc="http://purl.org/dc/elements/1.1/" xmlns:cc="http://creativecommons.org/ns#" xmlns:rdf="http://www.w3.org/1999/02/22-rdf-syntax-ns#" xmlns:svg="http://www.w3.org/2000/svg" xmlns:inkscape="http://www.inkscape.org/namespaces/inkscape" inkscape:version="0.48.2 r9819" sodipodi:docname="marker-stroked-12.svg" xmlns:sodipodi="http://sodipodi.sourceforge.net/DTD/sodipodi-0.dtd"
	 xmlns="http://www.w3.org/2000/svg" xmlns:xlink="http://www.w3.org/1999/xlink" x="0px" y="0px" width="12px" height="12px"
	 viewBox="0 0 12 12" enable-background="new 0 0 12 12" xml:space="preserve">
<g id="layer1" transform="translate(0,-1028.3622)">
	<g id="aerialway-12">

			<path opacity="0.3" fill="#444444" stroke="#FFFFFF" stroke-width="2" stroke-linecap="round" stroke-linejoin="round" enable-background="new    " d="
			M7.436,1031.682l2.564-0.32v-1l-2.758,0.345c-0.184-0.208-0.443-0.345-0.742-0.345c-0.186,0-0.351,0.064-0.5,0.153
			c-0.149-0.088-0.313-0.153-0.5-0.153c-0.439,0-0.801,0.286-0.936,0.679L2,1031.362v1l2.757-0.345
			c0.184,0.208,0.444,0.345,0.743,0.345v1H3c-0.552,0-1,0.448-1,1v3c0,0.553,0.448,1,1,1h6c0.553,0,1-0.447,1-1v-3
			c0-0.552-0.447-1-1-1H6.501v-1C6.939,1032.362,7.301,1032.076,7.436,1031.682z M5.5,1036.362H3v-2h2.5V1036.362z M9,1036.362H6.5
			v-2H9V1036.362z"/>
		<path fill="#49484A" d="M7.436,1031.682l2.564-0.32v-1l-2.758,0.345c-0.184-0.208-0.443-0.345-0.742-0.345
			c-0.186,0-0.351,0.064-0.5,0.153c-0.149-0.088-0.313-0.153-0.5-0.153c-0.439,0-0.801,0.286-0.936,0.679L2,1031.362v1l2.757-0.345
			c0.184,0.208,0.444,0.345,0.743,0.345v1H3c-0.552,0-1,0.448-1,1v3c0,0.553,0.448,1,1,1h6c0.553,0,1-0.447,1-1v-3
			c0-0.552-0.447-1-1-1H6.501v-1C6.939,1032.362,7.301,1032.076,7.436,1031.682z M5.5,1036.362H3v-2h2.5V1036.362z M9,1036.362H6.5
			v-2H9V1036.362z"/>
	</g>
</g>
<rect id="canvas" style="fill:none;stroke:none;visibility:hidden" width="12" height="12"/>
</svg>
