<?xml version="1.0" encoding="utf-8"?>
<!-- Generator: Adobe Illustrator 15.1.0, SVG Export Plug-In . SVG Version: 6.00 Build 0)  -->
<!DOCTYPE svg PUBLIC "-//W3C//DTD SVG 1.1//EN" "http://www.w3.org/Graphics/SVG/1.1/DTD/svg11.dtd">
<svg version="1.1"
	 id="svg4619" xmlns:dc="http://purl.org/dc/elements/1.1/" xmlns:cc="http://creativecommons.org/ns#" xmlns:rdf="http://www.w3.org/1999/02/22-rdf-syntax-ns#" xmlns:svg="http://www.w3.org/2000/svg" xmlns:inkscape="http://www.inkscape.org/namespaces/inkscape" inkscape:version="0.48.2 r9819" sodipodi:docname="maki-18-base.svg" xmlns:sodipodi="http://sodipodi.sourceforge.net/DTD/sodipodi-0.dtd"
	 xmlns="http://www.w3.org/2000/svg" xmlns:xlink="http://www.w3.org/1999/xlink" x="0px" y="0px" width="18px" height="18px"
	 viewBox="0 0 18 18" enable-background="new 0 0 18 18" xml:space="preserve">
<g id="layer1" transform="translate(0,-1028.3622)">
	<g id="aerialway-18">

			<path opacity="0.3" fill="#444444" stroke="#FFFFFF" stroke-width="2" stroke-linecap="round" stroke-linejoin="round" enable-background="new    " d="
			M15,1031.862l-3.899,0.487c-0.273-0.298-0.663-0.487-1.101-0.487c-0.386,0-0.734,0.149-1,0.389
			c-0.265-0.239-0.613-0.389-0.999-0.389c-0.672,0-1.235,0.444-1.426,1.053L3,1033.362l0.001,0.999l3.606-0.451
			c0.22,0.557,0.76,0.952,1.395,0.952c0.176,0,0.342-0.036,0.499-0.091v1.091h-4c-0.828,0-1.5,0.672-1.5,1.5v4.5
			c0,0.829,0.672,1.5,1.5,1.5h9c0.829,0,1.5-0.671,1.5-1.5v-4.5c0-0.828-0.671-1.5-1.5-1.5h-4v-1.092
			c0.157,0.056,0.323,0.092,0.5,0.092c0.829,0,1.5-0.671,1.5-1.5c0-0.021-0.006-0.041-0.006-0.062l3.506-0.438V1031.862z
			 M8.5,1040.362h-4v-3h4V1040.362z M13.5,1037.362v3h-4v-3H13.5z"/>
		<path fill="#49484A" d="M15,1031.862l-3.899,0.487c-0.273-0.298-0.663-0.487-1.101-0.487c-0.386,0-0.734,0.149-1,0.389
			c-0.265-0.239-0.613-0.389-0.999-0.389c-0.672,0-1.235,0.444-1.426,1.053L3,1033.362l0.001,0.999l3.606-0.451
			c0.22,0.557,0.76,0.952,1.395,0.952c0.176,0,0.342-0.036,0.499-0.091v1.091h-4c-0.828,0-1.5,0.672-1.5,1.5v4.5
			c0,0.829,0.672,1.5,1.5,1.5h9c0.829,0,1.5-0.671,1.5-1.5v-4.5c0-0.828-0.671-1.5-1.5-1.5h-4v-1.092
			c0.157,0.056,0.323,0.092,0.5,0.092c0.829,0,1.5-0.671,1.5-1.5c0-0.021-0.006-0.041-0.006-0.062l3.506-0.438V1031.862z
			 M8.5,1040.362h-4v-3h4V1040.362z M13.5,1037.362v3h-4v-3H13.5z"/>
	</g>
</g>
<rect id="canvas" style="fill:none;stroke:none;visibility:hidden" width="18" height="18"/>
</svg>
