<?xml version="1.0" encoding="UTF-8" standalone="no"?>
<!-- Created with Inkscape (http://www.inkscape.org/) -->

<svg
   xmlns:dc="http://purl.org/dc/elements/1.1/"
   xmlns:cc="http://creativecommons.org/ns#"
   xmlns:rdf="http://www.w3.org/1999/02/22-rdf-syntax-ns#"
   xmlns:svg="http://www.w3.org/2000/svg"
   xmlns="http://www.w3.org/2000/svg"
   xmlns:inkscape="http://www.inkscape.org/namespaces/inkscape"
   version="1.1"
   width="18"
   height="18"
   id="svg4619">
  <defs
     id="defs4621" />
  <metadata
     id="metadata4624">
    <rdf:RDF>
      <cc:Work
         rdf:about="">
        <dc:format>image/svg+xml</dc:format>
        <dc:type
           rdf:resource="http://purl.org/dc/dcmitype/StillImage" />
        <dc:title />
      </cc:Work>
    </rdf:RDF>
  </metadata>
  <g
     transform="translate(0,-1034.3622)"
     id="layer1">
    <g
       transform="translate(-108,-256)"
       id="airfield-18"
       style="display:inline">
      <g
         transform="translate(0,1)"
         id="g12538">
        <path
           d="m 113.32353,1292.3622 c -0.21182,0 -0.38235,0.1705 -0.38235,0.3824 0,0.2118 0.17053,0.3823 0.38235,0.3823 l 3.05882,0 -0.38235,2.2353 0,0.9411 -5,1.5294 0,1.5295 5,0 0,3.4118 -2,0.8235 0,0.7647 7,0 0,-0.7647 -2,-0.8235 0,-3.4118 5,0 0,-1.5295 -5,-1.5294 0,-0.9411 -0.38235,-2.2353 3.05882,0 c 0.21182,0 0.38235,-0.1705 0.38235,-0.3823 0,-0.2119 -0.17053,-0.3824 -0.38235,-0.3824 z"
           inkscape:connector-curvature="0"
           id="path15781"
           style="opacity:0.3;color:#000000;fill:#ffffff;fill-opacity:1;fill-rule:nonzero;stroke:#ffffff;stroke-width:2;stroke-linecap:butt;stroke-linejoin:round;stroke-miterlimit:4;stroke-opacity:1;stroke-dasharray:none;stroke-dashoffset:0;marker:none;visibility:visible;display:inline;overflow:visible;enable-background:accumulate" />
        <path
           d="m 113.32353,1292.3622 c -0.21182,0 -0.38235,0.1705 -0.38235,0.3824 0,0.2118 0.17053,0.3823 0.38235,0.3823 l 3.05882,0 -0.38235,2.2353 0,0.9411 -5,1.5294 0,1.5295 5,0 0,3.4118 -2,0.8235 0,0.7647 7,0 0,-0.7647 -2,-0.8235 0,-3.4118 5,0 0,-1.5295 -5,-1.5294 0,-0.9411 -0.38235,-2.2353 3.05882,0 c 0.21182,0 0.38235,-0.1705 0.38235,-0.3823 0,-0.2119 -0.17053,-0.3824 -0.38235,-0.3824 z"
           inkscape:connector-curvature="0"
           id="path6220"
           style="fill:#444444;fill-opacity:1;stroke:none;display:inline" />
      </g>
    </g>
  </g>
  <rect
     width="18"
     height="18"
     x="0"
     y="0"
     id="canvas"
     style="fill:none;stroke:none;visibility:hidden" />
</svg>
