<?xml version="1.0" encoding="UTF-8" standalone="no"?>
<!-- Created with Inkscape (http://www.inkscape.org/) -->

<svg
   xmlns:dc="http://purl.org/dc/elements/1.1/"
   xmlns:cc="http://creativecommons.org/ns#"
   xmlns:rdf="http://www.w3.org/1999/02/22-rdf-syntax-ns#"
   xmlns:svg="http://www.w3.org/2000/svg"
   xmlns="http://www.w3.org/2000/svg"
   xmlns:sodipodi="http://sodipodi.sourceforge.net/DTD/sodipodi-0.dtd"
   xmlns:inkscape="http://www.inkscape.org/namespaces/inkscape"
   width="24"
   height="24"
   id="svg27349"
   version="1.1"
   inkscape:version="0.48.2 r9819"
   sodipodi:docname="airport-black-24.svg">
  <defs
     id="defs27351" />
  <sodipodi:namedview
     id="base"
     pagecolor="#ffffff"
     bordercolor="#666666"
     borderopacity="1.0"
     inkscape:pageopacity="0.0"
     inkscape:pageshadow="2"
     inkscape:zoom="8.6123905"
     inkscape:cx="11.808263"
     inkscape:cy="10.533919"
     inkscape:document-units="px"
     inkscape:current-layer="layer1"
     showgrid="true"
     inkscape:window-width="721"
     inkscape:window-height="573"
     inkscape:window-x="3070"
     inkscape:window-y="448"
     inkscape:window-maximized="0"
     gridtolerance="10">
    <inkscape:grid
       type="xygrid"
       id="grid3004"
       empspacing="5"
       visible="true"
       enabled="true"
       snapvisiblegridlinesonly="true" />
  </sodipodi:namedview>
  <metadata
     id="metadata27354">
    <rdf:RDF>
      <cc:Work
         rdf:about="">
        <dc:format>image/svg+xml</dc:format>
        <dc:type
           rdf:resource="http://purl.org/dc/dcmitype/StillImage" />
        <dc:title />
      </cc:Work>
    </rdf:RDF>
  </metadata>
  <g
     inkscape:label="Layer 1"
     inkscape:groupmode="layer"
     id="layer1"
     transform="translate(0,-1028.3622)">
    <g
       id="airport-black-24"
       transform="matrix(2.4284124,0,0,2.4284124,-51.415056,845.38638)"
       inkscape:label="airport-black-24">
      <path
         d="m 29.861,85.317 c 0.652,0 1.182,-0.529 1.182,-1.182 v -7.521 c 0,-0.652 -0.529,-1.181 -1.182,-1.181 H 22.34 c -0.652,0 -1.18,0.528 -1.18,1.181 v 7.521 c 0,0.652 0.527,1.182 1.18,1.182 h 7.521 z"
         id="path6743"
         inkscape:connector-curvature="0"
         style="fill:#272525;fill-opacity:0" />
      <path
         style="opacity:0.6;fill:#272525;stroke:#ffffff;stroke-width:0.5;stroke-miterlimit:0;stroke-opacity:1;stroke-dasharray:none"
         inkscape:connector-curvature="0"
         id="path21154"
         d="m 25.67,76.825 c 0.002,-0.58 0.877,-0.58 0.877,0.017 v 2.437 l 3.41,2.051 v 0.9 l -3.395,-1.117 v 1.82 l 0.785,0.615 v 0.711 l -1.211,-0.376 -1.211,0.376 v -0.711 l 0.777,-0.615 v -1.82 l -3.396,1.117 v -0.9 l 3.363,-2.051 v -2.454 z" />
      <path
         d="m 25.67,76.825 c 0.002,-0.58 0.877,-0.58 0.877,0.017 v 2.437 l 3.41,2.051 v 0.9 l -3.395,-1.117 v 1.82 l 0.785,0.615 v 0.711 l -1.211,-0.376 -1.211,0.376 v -0.711 l 0.777,-0.615 v -1.82 l -3.396,1.117 v -0.9 l 3.363,-2.051 v -2.454 z"
         id="path6747"
         inkscape:connector-curvature="0"
         style="fill:#272525" />
    </g>
  </g>
</svg>
