<?xml version="1.0" encoding="UTF-8" standalone="no"?>
<svg width="24px" height="24px" viewBox="0 0 24 24" version="1.1" xmlns="http://www.w3.org/2000/svg" xmlns:xlink="http://www.w3.org/1999/xlink" xmlns:sketch="http://www.bohemiancoding.com/sketch/ns">
    <!-- Generator: Sketch 3.2.2 (9983) - http://www.bohemiancoding.com/sketch -->
    <title>airport-white-s1-24</title>
    <desc>Created with Sketch.</desc>
    <defs></defs>
    <g id="Page-1" stroke="none" stroke-width="1" fill="none" fill-rule="evenodd" sketch:type="MSPage">
        <path d="M12,5 L13,3 L14,3 L15,5 L15,11 L25,17 L25,19 L24,19 L16,16 L15,16 L15,22 L16,22 L16,23 L17,24 L17,25 L16,25 L14,24 L13,24 L11,25 L10,25 L10,24 L11,23 L11,22 L12,22 L12,16 L11,16 L4,19 L3,19 L3,17 L12,11 L12,5" id="Fill-74" opacity="0.1" fill="#0A0B09" sketch:type="MSShapeGroup"></path>
        <path d="M11,4 L12,2 L13,2 L14,4 L14,10 L24,16 L24,18 L23,18 L15,15 L14,15 L14,21 L15,21 L15,22 L16,23 L16,24 L15,24 L13,23 L12,23 L10,24 L9,24 L9,23 L10,22 L10,21 L11,21 L11,15 L10,15 L3,18 L2,18 L2,16 L11,10 L11,4" id="Fill-73" opacity="0.2" fill="#0A0B09" sketch:type="MSShapeGroup"></path>
        <path d="M10,3 L11,1 L12,1 L13,3 L13,9 L23,15 L23,17 L22,17 L14,14 L13,14 L13,20 L14,20 L14,21 L15,22 L15,23 L14,23 L12,22 L11,22 L9,23 L8,23 L8,22 L9,21 L9,20 L10,20 L10,14 L9,14 L2,17 L1,17 L1,15 L10,9 L10,3" id="Fill-70" fill="#FFFFFF" sketch:type="MSShapeGroup"></path>
    </g>
</svg>