<?xml version="1.0" encoding="utf-8"?>
<!-- Generator: Adobe Illustrator 18.1.1, SVG Export Plug-In . SVG Version: 6.00 Build 0)  -->
<svg version="1.1" xmlns="http://www.w3.org/2000/svg" xmlns:xlink="http://www.w3.org/1999/xlink" x="0px" y="0px"
	 viewBox="0 0 24 24" enable-background="new 0 0 24 24" xml:space="preserve">
<g id="shadows">
	<g opacity="0.2">
		<polygon points="12,5.5 12.7,4 13.5,4 14.3,5.5 14.3,10.2 22,14.8 22,16.4 21.2,16.4 15,14 14.3,14 14.3,18.7 15,18.7 15,19.5 
			15.8,20.2 15.8,21 15,21 13.5,20.2 12.7,20.2 11.2,21 10.4,21 10.4,20.2 11.2,19.5 11.2,18.7 12,18.7 12,14 11.2,14 5.8,16.4 
			5,16.4 5,14.8 12,10.2 		"/>
	</g>
</g>
<g id="icons">
	<g>
		<polygon fill="#FFFFFF" points="11,4.5 11.7,3 12.5,3 13.3,4.5 13.3,9.2 21,13.8 21,15.4 20.2,15.4 14,13 13.3,13 13.3,17.7 
			14,17.7 14,18.5 14.8,19.2 14.8,20 14,20 12.5,19.2 11.7,19.2 10.2,20 9.4,20 9.4,19.2 10.2,18.5 10.2,17.7 11,17.7 11,13 
			10.2,13 4.8,15.4 4,15.4 4,13.8 11,9.2 		"/>
	</g>
</g>
<g id="guides">
</g>
</svg>
