<?xml version="1.0" encoding="UTF-8" standalone="no"?>
<!-- Created with Inkscape (http://www.inkscape.org/) -->

<svg
   xmlns:dc="http://purl.org/dc/elements/1.1/"
   xmlns:cc="http://creativecommons.org/ns#"
   xmlns:rdf="http://www.w3.org/1999/02/22-rdf-syntax-ns#"
   xmlns:svg="http://www.w3.org/2000/svg"
   xmlns="http://www.w3.org/2000/svg"
   xmlns:sodipodi="http://sodipodi.sourceforge.net/DTD/sodipodi-0.dtd"
   xmlns:inkscape="http://www.inkscape.org/namespaces/inkscape"
   width="24"
   height="24"
   id="svg27577"
   version="1.1"
   inkscape:version="0.48.2 r9819"
   sodipodi:docname="airport-white-24.svg">
  <defs
     id="defs27579" />
  <sodipodi:namedview
     id="base"
     pagecolor="#ffffff"
     bordercolor="#666666"
     borderopacity="1.0"
     inkscape:pageopacity="0.0"
     inkscape:pageshadow="2"
     inkscape:zoom="6.0294752"
     inkscape:cx="15.081873"
     inkscape:cy="10.234128"
     inkscape:document-units="px"
     inkscape:current-layer="layer1"
     showgrid="false"
     inkscape:window-width="721"
     inkscape:window-height="454"
     inkscape:window-x="776"
     inkscape:window-y="355"
     inkscape:window-maximized="0" />
  <metadata
     id="metadata27582">
    <rdf:RDF>
      <cc:Work
         rdf:about="">
        <dc:format>image/svg+xml</dc:format>
        <dc:type
           rdf:resource="http://purl.org/dc/dcmitype/StillImage" />
        <dc:title />
      </cc:Work>
    </rdf:RDF>
  </metadata>
  <g
     inkscape:label="Layer 1"
     inkscape:groupmode="layer"
     id="layer1"
     transform="translate(0,-1028.3622)">
    <g
       id="g24493"
       transform="matrix(2.5313785,0,0,2.5313785,-91.3022,836.79546)">
      <path
         d="m 37.024,75.634 c -0.54,0 -0.979,0.44 -0.979,0.98 v 7.521 c 0,0.542 0.439,0.981 0.979,0.981 h 7.521 c 0.542,0 0.981,-0.44 0.981,-0.981 v -7.521 c 0,-0.541 -0.44,-0.98 -0.981,-0.98 h -7.521 z"
         id="path5329"
         inkscape:connector-curvature="0"
         style="opacity:0;fill:#ffffff" />
      <path
         style="opacity:0.6;fill:#ffffff;fill-opacity:1;stroke:#1d1d1c;stroke-width:0.5;stroke-miterlimit:4;stroke-opacity:1;stroke-dasharray:none"
         inkscape:connector-curvature="0"
         id="path24491"
         d="m 40.354,76.825 c 0.002,-0.58 0.877,-0.58 0.877,0.017 v 2.437 l 3.41,2.051 v 0.9 l -3.395,-1.117 v 1.82 l 0.785,0.615 v 0.711 l -1.211,-0.376 -1.211,0.376 v -0.711 l 0.777,-0.615 v -1.82 L 36.99,82.23 v -0.9 l 3.363,-2.051 v -2.454 z" />
      <path
         d="m 40.354,76.825 c 0.002,-0.58 0.877,-0.58 0.877,0.017 v 2.437 l 3.41,2.051 v 0.9 l -3.395,-1.117 v 1.82 l 0.785,0.615 v 0.711 l -1.211,-0.376 -1.211,0.376 v -0.711 l 0.777,-0.615 v -1.82 L 36.99,82.23 v -0.9 l 3.363,-2.051 v -2.454 z"
         id="path5333"
         inkscape:connector-curvature="0"
         style="fill:#ffffff;fill-opacity:1;stroke:none" />
    </g>
  </g>
</svg>
