<?xml version="1.0" encoding="UTF-8" standalone="no"?>
<svg width="24px" height="24px" viewBox="0 0 24 24" version="1.1" xmlns="http://www.w3.org/2000/svg" xmlns:xlink="http://www.w3.org/1999/xlink" xmlns:sketch="http://www.bohemiancoding.com/sketch/ns">
    <!-- Generator: Sketch 3.2.2 (9983) - http://www.bohemiancoding.com/sketch -->
    <title>airport-white-24-s2</title>
    <desc>Created with Sketch.</desc>
    <defs></defs>
    <g id="Page-1" stroke="none" stroke-width="1" fill="none" fill-rule="evenodd" sketch:type="MSPage">
        <rect id="gray" fill="#F0F0F0" sketch:type="MSShapeGroup" x="-79" y="-63" width="155" height="191"></rect>
        <path d="M11,4 L12,2 L13,2 L14,4 L14,10 L24,16 L24,18 L23,18 L15,15 L14,15 L14,21 L15,21 L15,22 L16,23 L16,24 L15,24 L13,23 L12,23 L10,24 L9,24 L9,23 L10,22 L10,21 L11,21 L11,15 L10,15 L3,18 L2,18 L2,16 L11,10 L11,4" id="Fill-73" opacity="0.3" fill="#0A0B09" sketch:type="MSShapeGroup"></path>
        <path d="M10,3 L11,1 L12,1 L13,3 L13,9 L23,15 L23,17 L22,17 L14,14 L13,14 L13,20 L14,20 L14,21 L15,22 L15,23 L14,23 L12,22 L11,22 L9,23 L8,23 L8,22 L9,21 L9,20 L10,20 L10,14 L9,14 L2,17 L1,17 L1,15 L10,9 L10,3" id="Fill-70" fill="#FFFFFF" sketch:type="MSShapeGroup"></path>
    </g>
</svg>