<?xml version="1.0" encoding="utf-8"?>
<!-- Generator: Adobe Illustrator 18.1.1, SVG Export Plug-In . SVG Version: 6.00 Build 0)  -->
<svg version="1.1" xmlns="http://www.w3.org/2000/svg" xmlns:xlink="http://www.w3.org/1999/xlink" x="0px" y="0px"
	 viewBox="0 0 12 12" enable-background="new 0 0 12 12" xml:space="preserve">
<g id="shadows">
	<g opacity="0.2">
		<polygon points="5.1,10.5 6.4,9.2 6.4,6.6 3.1,7.9 2.5,7.9 2.5,7.3 6.4,4.7 6.4,2.1 7,1.5 7.6,2.1 7.6,4.7 11.5,7.3 11.5,7.9 
			10.9,7.9 7.6,6.6 7.6,9.2 8.9,10.5 		"/>
	</g>
</g>
<g id="icons">
	<g>
		<polygon points="4.6,10 5.9,8.7 5.9,6.1 2.6,7.4 2,7.4 2,6.8 5.9,4.2 5.9,1.6 6.5,1 7.1,1.6 7.1,4.2 11,6.8 11,7.4 10.4,7.4 
			7.1,6.1 7.1,8.7 8.4,10 		"/>
	</g>
</g>
<g id="guides">
</g>
</svg>
