<?xml version="1.0" encoding="utf-8"?>
<!-- Generator: Adobe Illustrator 18.1.1, SVG Export Plug-In . SVG Version: 6.00 Build 0)  -->
<svg version="1.1" xmlns="http://www.w3.org/2000/svg" xmlns:xlink="http://www.w3.org/1999/xlink" x="0px" y="0px"
	 viewBox="0 0 18 18" enable-background="new 0 0 18 18" xml:space="preserve">
<g id="shadows">
	<g opacity="0.2">
		<polygon points="7.5,15.8 9.3,13.9 9.3,10.2 4.7,12 3.8,12 3.8,11.1 9.3,7.4 9.3,3.7 10.2,2.8 11.2,3.7 11.2,7.4 16.8,11.1 
			16.8,12 15.8,12 11.2,10.2 11.2,13.9 13,15.8 		"/>
	</g>
</g>
<g id="icons">
	<g>
		<polygon points="6.7,15 8.6,13.1 8.6,9.4 3.9,11.3 3,11.3 3,10.4 8.6,6.6 8.6,2.9 9.5,2 10.4,2.9 10.4,6.6 16,10.4 16,11.3 
			15.1,11.3 10.4,9.4 10.4,13.1 12.3,15 		"/>
	</g>
</g>
<g id="guides">
</g>
</svg>
