<?xml version="1.0" encoding="UTF-8" standalone="no"?>
<!-- Created with Inkscape (http://www.inkscape.org/) -->

<svg
   xmlns:dc="http://purl.org/dc/elements/1.1/"
   xmlns:cc="http://creativecommons.org/ns#"
   xmlns:rdf="http://www.w3.org/1999/02/22-rdf-syntax-ns#"
   xmlns:svg="http://www.w3.org/2000/svg"
   xmlns="http://www.w3.org/2000/svg"
   xmlns:inkscape="http://www.inkscape.org/namespaces/inkscape"
   version="1.1"
   width="18"
   height="18"
   id="svg4619">
  <defs
     id="defs4621" />
  <metadata
     id="metadata4624">
    <rdf:RDF>
      <cc:Work
         rdf:about="">
        <dc:format>image/svg+xml</dc:format>
        <dc:type
           rdf:resource="http://purl.org/dc/dcmitype/StillImage" />
        <dc:title />
      </cc:Work>
    </rdf:RDF>
  </metadata>
  <g
     transform="translate(0,-1034.3622)"
     id="layer1">
    <g
       transform="translate(-108,-16)"
       id="airport-18"
       style="display:inline">
      <g
         id="g21737">
        <path
           d="m 124.5,1060.3622 0,1 -5.5,-1 0,3 2,1.2222 0,0.7778 -6,0 0,-0.7778 2,-1.2222 0,-3 -5.5,1 0,-1 5.5,-3 c 0,0 0,-1.7036 0,-3 0,-0.7777 0.22222,-2 1,-2 0.77777,0 1,1.2223 1,2 0,1.2964 0,3 0,3 z"
           inkscape:connector-curvature="0"
           id="path14268"
           style="opacity:0.3;color:#000000;fill:none;stroke:#ffffff;stroke-width:2;stroke-linecap:round;stroke-linejoin:round;stroke-miterlimit:4;stroke-opacity:1;stroke-dasharray:none;stroke-dashoffset:0;marker:none;visibility:visible;display:inline;overflow:visible;enable-background:accumulate" />
        <path
           d="m 124.5,1060.3622 0,1 -5.5,-1 0,3 2,1.2222 0,0.7778 -6,0 0,-0.7778 2,-1.2222 0,-3 -5.5,1 0,-1 5.5,-3 c 0,0 0,-1.7036 0,-3 0,-0.7777 0.22222,-2 1,-2 0.77777,0 1,1.2223 1,2 0,1.2964 0,3 0,3 z"
           inkscape:connector-curvature="0"
           id="path7712-0"
           style="fill:#444444;fill-opacity:1;stroke:none;display:inline" />
      </g>
    </g>
  </g>
  <rect
     width="18"
     height="18"
     x="0"
     y="0"
     id="canvas"
     style="fill:none;stroke:none;visibility:hidden" />
</svg>
