<?xml version="1.0" encoding="UTF-8" standalone="no"?>
<!-- Created with Inkscape (http://www.inkscape.org/) -->

<svg
   xmlns:dc="http://purl.org/dc/elements/1.1/"
   xmlns:cc="http://creativecommons.org/ns#"
   xmlns:rdf="http://www.w3.org/1999/02/22-rdf-syntax-ns#"
   xmlns:svg="http://www.w3.org/2000/svg"
   xmlns="http://www.w3.org/2000/svg"
   xmlns:inkscape="http://www.inkscape.org/namespaces/inkscape"
   version="1.1"
   width="24"
   height="24"
   id="svg4460">
  <defs
     id="defs4462" />
  <metadata
     id="metadata4465">
    <rdf:RDF>
      <cc:Work
         rdf:about="">
        <dc:format>image/svg+xml</dc:format>
        <dc:type
           rdf:resource="http://purl.org/dc/dcmitype/StillImage" />
        <dc:title />
      </cc:Work>
    </rdf:RDF>
  </metadata>
  <g
     transform="translate(0,-1028.3622)"
     id="layer1">
    <g
       transform="translate(-84,-22)"
       id="airport-24"
       style="display:inline">
      <g
         transform="translate(84,-2)"
         id="g6678">
        <g
           id="g14771">
          <path
             d="m 21,1065.3622 0,1 -7,-1 0,0.031 0,3.9688 2,2.0002 c 0,0.5 -0.5,1 -1,1 -2,0 -5,0 -5,0 -0.5,0 -1,-0.5 -1,-1 l 2,-2.0002 0,-4 -7,1 0,-1 7,-4 c 0,0 0,-0.3333 0,-2 0,-1 0.5,-4 1.5,-4 1,0 1.5,3 1.5,4 0,1.6667 0,2 0,2 z"
             inkscape:connector-curvature="0"
             id="path14304"
             style="opacity:0.3;color:#000000;fill:none;stroke:#ffffff;stroke-width:2;stroke-linecap:round;stroke-linejoin:round;stroke-miterlimit:4;stroke-opacity:1;stroke-dasharray:none;stroke-dashoffset:0;marker:none;visibility:visible;display:inline;overflow:visible;enable-background:accumulate" />
          <path
             d="m 21,1065.8622 0,0.5 -7,-1 0,3.9998 2,2.0002 c 0,0.5 -0.5,1 -1,1 -2,0 -5,0 -5,0 -0.5,0 -1,-0.5 -1,-1 l 2,-2.0002 0,-4 -7,1 0,-0.4998 c 0,-0.5 0.3056731,-0.6379 0.5,-0.75 l 6.5,-3.7502 c 0,0 0,-0.3333 0,-2 0,-1 0.5,-4 1.5,-4 1,0 1.5,3 1.5,4 0,1.6667 0,2 0,2 l 6.5,3.7502 c 0.27841,0.1606 0.5,0.2411 0.5,0.75 z"
             inkscape:connector-curvature="0"
             id="path7712"
             style="fill:#444444;fill-opacity:1;stroke:none;display:inline" />
        </g>
      </g>
    </g>
  </g>
  <rect
     width="24"
     height="24"
     x="0"
     y="0"
     id="canvas"
     style="fill:none;stroke:none;visibility:hidden" />
</svg>
