<?xml version="1.0" encoding="UTF-8" standalone="no"?>
<!-- Created with Inkscape (http://www.inkscape.org/) -->

<svg
   xmlns:dc="http://purl.org/dc/elements/1.1/"
   xmlns:cc="http://creativecommons.org/ns#"
   xmlns:rdf="http://www.w3.org/1999/02/22-rdf-syntax-ns#"
   xmlns:svg="http://www.w3.org/2000/svg"
   xmlns="http://www.w3.org/2000/svg"
   xmlns:inkscape="http://www.inkscape.org/namespaces/inkscape"
   version="1.1"
   width="12"
   height="12"
   id="svg4764">
  <defs
     id="defs4766" />
  <metadata
     id="metadata4769">
    <rdf:RDF>
      <cc:Work
         rdf:about="">
        <dc:format>image/svg+xml</dc:format>
        <dc:type
           rdf:resource="http://purl.org/dc/dcmitype/StillImage" />
        <dc:title />
      </cc:Work>
    </rdf:RDF>
  </metadata>
  <g
     transform="translate(0,-1040.3622)"
     id="layer1">
    <g
       transform="translate(-126,-10)"
       id="airport-12"
       style="display:inline">
      <g
         transform="translate(-1,-1)"
         id="g21733">
        <path
           d="m 137,1057.7908 0,0.5714 -3,-0.5 0,2 1,1.0556 0,0.4444 -3,0 0,-0.4444 1,-1.0556 0,-2 -3,0.5 0,-0.5714 3,-1.4286 c 0,0 0,-1.2592 0,-2 0,-0.4444 0.0556,-1 0.5,-1 0.44444,0 0.5,0.5556 0.5,1 0,0.7408 0,2 0,2 z"
           inkscape:connector-curvature="0"
           id="path14232"
           style="opacity:0.3;color:#000000;fill:none;stroke:#ffffff;stroke-width:2;stroke-linecap:round;stroke-linejoin:round;stroke-miterlimit:4;stroke-opacity:1;stroke-dasharray:none;stroke-dashoffset:0;marker:none;visibility:visible;display:inline;overflow:visible;enable-background:accumulate" />
        <path
           d="m 137,1057.7908 0,0.5714 -3,-0.5 0,2 1,1.0556 0,0.4444 -3,0 0,-0.4444 1,-1.0556 0,-2 -3,0.5 0,-0.5714 3,-1.4286 c 0,0 0,-1.2592 0,-2 0,-0.4444 0.0556,-1 0.5,-1 0.44444,0 0.5,0.5556 0.5,1 0,0.7408 0,2 0,2 z"
           inkscape:connector-curvature="0"
           id="path7712-0-5"
           style="fill:#444444;fill-opacity:1;stroke:none;display:inline" />
      </g>
    </g>
  </g>
  <rect
     width="12"
     height="12"
     x="0"
     y="0"
     id="canvas"
     style="fill:none;stroke:none;visibility:hidden" />
</svg>
