<?xml version="1.0" encoding="UTF-8" standalone="no"?>
<!-- Created with Inkscape (http://www.inkscape.org/) -->

<svg
   xmlns:dc="http://purl.org/dc/elements/1.1/"
   xmlns:cc="http://creativecommons.org/ns#"
   xmlns:rdf="http://www.w3.org/1999/02/22-rdf-syntax-ns#"
   xmlns:svg="http://www.w3.org/2000/svg"
   xmlns="http://www.w3.org/2000/svg"
   xmlns:sodipodi="http://sodipodi.sourceforge.net/DTD/sodipodi-0.dtd"
   xmlns:inkscape="http://www.inkscape.org/namespaces/inkscape"
   width="12"
   height="12"
   id="svg27703"
   version="1.1"
   inkscape:version="0.48.2 r9819"
   sodipodi:docname="airport-white-12.svg">
  <defs
     id="defs27705" />
  <sodipodi:namedview
     id="base"
     pagecolor="#ffffff"
     bordercolor="#666666"
     borderopacity="1.0"
     inkscape:pageopacity="0.0"
     inkscape:pageshadow="2"
     inkscape:zoom="11.666125"
     inkscape:cx="16.676762"
     inkscape:cy="7.1874659"
     inkscape:document-units="px"
     inkscape:current-layer="layer1"
     showgrid="false"
     inkscape:window-width="1099"
     inkscape:window-height="656"
     inkscape:window-x="2867"
     inkscape:window-y="472"
     inkscape:window-maximized="0" />
  <metadata
     id="metadata27708">
    <rdf:RDF>
      <cc:Work
         rdf:about="">
        <dc:format>image/svg+xml</dc:format>
        <dc:type
           rdf:resource="http://purl.org/dc/dcmitype/StillImage" />
        <dc:title />
      </cc:Work>
    </rdf:RDF>
  </metadata>
  <g
     inkscape:label="Layer 1"
     inkscape:groupmode="layer"
     id="layer1"
     transform="translate(0,-1040.3622)">
    <path
       style="opacity:0;fill:#ffffff"
       inkscape:connector-curvature="0"
       id="path27571"
       d="m 1.1971166,1040.265 c -0.68347218,0 -1.23910978,0.5569 -1.23910978,1.2404 v 9.5192 c 0,0.686 0.5556376,1.2417 1.23910978,1.2417 h 9.5192494 c 0.686003,0 1.241641,-0.5569 1.241641,-1.2417 v -9.5192 c 0,-0.6848 -0.556903,-1.2404 -1.241641,-1.2404 H 1.1971166 z" />
    <g
       id="g27569"
       transform="matrix(1.2656893,0,0,1.2656893,-45.621492,944.63214)">
      <path
         d="m 37.024,75.634 c -0.54,0 -0.979,0.44 -0.979,0.98 v 7.521 c 0,0.542 0.439,0.981 0.979,0.981 h 7.521 c 0.542,0 0.981,-0.44 0.981,-0.981 v -7.521 c 0,-0.541 -0.44,-0.98 -0.981,-0.98 h -7.521 z"
         id="path27571-7"
         inkscape:connector-curvature="0"
         style="opacity:0;fill:#ffffff" />
      <path
         style="opacity:0.6;fill:#ffffff;fill-opacity:1;stroke:#1d1d1c;stroke-width:0.5;stroke-miterlimit:4;stroke-opacity:1;stroke-dasharray:none"
         inkscape:connector-curvature="0"
         id="path27573"
         d="m 40.354,76.825 c 0.002,-0.58 0.877,-0.58 0.877,0.017 v 2.437 l 3.41,2.051 v 0.9 l -3.395,-1.117 v 1.82 l 0.785,0.615 v 0.711 l -1.211,-0.376 -1.211,0.376 v -0.711 l 0.777,-0.615 v -1.82 L 36.99,82.23 v -0.9 l 3.363,-2.051 v -2.454 z" />
      <path
         d="m 40.354,76.825 c 0.002,-0.58 0.877,-0.58 0.877,0.017 v 2.437 l 3.41,2.051 v 0.9 l -3.395,-1.117 v 1.82 l 0.785,0.615 v 0.711 l -1.211,-0.376 -1.211,0.376 v -0.711 l 0.777,-0.615 v -1.82 L 36.99,82.23 v -0.9 l 3.363,-2.051 v -2.454 z"
         id="path27575"
         inkscape:connector-curvature="0"
         style="fill:#ffffff;fill-opacity:1;stroke:none" />
    </g>
  </g>
</svg>
