<?xml version="1.0" encoding="UTF-8" standalone="no"?>
<svg width="18px" height="18px" viewBox="0 0 18 18" version="1.1" xmlns="http://www.w3.org/2000/svg" xmlns:xlink="http://www.w3.org/1999/xlink" xmlns:sketch="http://www.bohemiancoding.com/sketch/ns">
    <!-- Generator: Sketch 3.2.2 (9983) - http://www.bohemiancoding.com/sketch -->
    <title>airport-white-18-s2</title>
    <desc>Created with Sketch.</desc>
    <defs></defs>
    <g id="Page-1" stroke="none" stroke-width="1" fill="none" fill-rule="evenodd" sketch:type="MSPage">
        <rect id="gray" fill="#F0F0F0" sketch:type="MSShapeGroup" x="-109" y="-63" width="155" height="191"></rect>
        <path d="M8.54545455,3.45454545 L9.27272727,2 L10,2 L10.7272727,3.45454545 L10.7272727,7.81818182 L18,12.1818182 L18,13.6363636 L17.2727273,13.6363636 L11.4545455,11.4545455 L10.7272727,11.4545455 L10.7272727,15.8181818 L11.4545455,15.8181818 L11.4545455,16.5454545 L12.1818182,17.2727273 L12.1818182,18 L11.4545455,18 L10,17.2727273 L9.27272727,17.2727273 L7.81818182,18 L7.09090909,18 L7.09090909,17.2727273 L7.81818182,16.5454545 L7.81818182,15.8181818 L8.54545455,15.8181818 L8.54545455,11.4545455 L7.81818182,11.4545455 L2.72727273,13.6363636 L2,13.6363636 L2,12.1818182 L8.54545455,7.81818182 L8.54545455,3.45454545" id="Fill-72" opacity="0.3" fill="#0A0B09" sketch:type="MSShapeGroup"></path>
        <path d="M7.54545455,2.45454545 L8.27272727,1 L9,1 L9.72727273,2.45454545 L9.72727273,6.81818182 L17,11.1818182 L17,12.6363636 L16.2727273,12.6363636 L10.4545455,10.4545455 L9.72727273,10.4545455 L9.72727273,14.8181818 L10.4545455,14.8181818 L10.4545455,15.5454545 L11.1818182,16.2727273 L11.1818182,17 L10.4545455,17 L9,16.2727273 L8.27272727,16.2727273 L6.81818182,17 L6.09090909,17 L6.09090909,16.2727273 L6.81818182,15.5454545 L6.81818182,14.8181818 L7.54545455,14.8181818 L7.54545455,10.4545455 L6.81818182,10.4545455 L1.72727273,12.6363636 L1,12.6363636 L1,11.1818182 L7.54545455,6.81818182 L7.54545455,2.45454545" id="Fill-72" fill="#FFFFFF" sketch:type="MSShapeGroup"></path>
    </g>
</svg>