<?xml version="1.0" encoding="utf-8"?>
<!-- Generator: Adobe Illustrator 18.1.1, SVG Export Plug-In . SVG Version: 6.00 Build 0)  -->
<svg version="1.1" xmlns="http://www.w3.org/2000/svg" xmlns:xlink="http://www.w3.org/1999/xlink" x="0px" y="0px"
	 viewBox="0 0 12 12" enable-background="new 0 0 12 12" xml:space="preserve">
<g id="shadows">
	<g opacity="0.2">
		<polygon points="4.1,10.5 5.4,9.2 5.4,6.6 2.1,7.9 1.5,7.9 1.5,7.3 5.4,4.7 5.4,2.1 6,1.5 6.6,2.1 6.6,4.7 10.5,7.3 10.5,7.9 
			9.9,7.9 6.6,6.6 6.6,9.2 7.9,10.5 		"/>
	</g>
</g>
<g id="icons">
	<g>
		<polygon points="3.6,10 4.9,8.7 4.9,6.1 1.6,7.4 1,7.4 1,6.8 4.9,4.2 4.9,1.6 5.5,1 6.1,1.6 6.1,4.2 10,6.8 10,7.4 9.4,7.4 
			6.1,6.1 6.1,8.7 7.4,10 		"/>
	</g>
</g>
<g id="guides">
</g>
</svg>
