<?xml version="1.0" encoding="UTF-8" standalone="no"?>
<svg width="12px" height="12px" viewBox="0 0 12 12" version="1.1" xmlns="http://www.w3.org/2000/svg" xmlns:xlink="http://www.w3.org/1999/xlink" xmlns:sketch="http://www.bohemiancoding.com/sketch/ns">
    <!-- Generator: Sketch 3.2.2 (9983) - http://www.bohemiancoding.com/sketch -->
    <title>airport-white-12</title>
    <desc>Created with Sketch.</desc>
    <defs></defs>
    <g id="Page-1" stroke="none" stroke-width="1" fill="none" fill-rule="evenodd" sketch:type="MSPage">
        <path d="M4.85714286,12 L6.28571429,10.5714286 L6.28571429,7.71428571 L2.71428571,9.14285714 L2,9.14285714 L2,8.42857143 L6.28571429,5.57142857 L6.28571429,2.71428571 L7,2 L7.71428571,2.71428571 L7.71428571,5.57142857 L12,8.42857143 L12,9.14285714 L11.2857143,9.14285714 L7.71428571,7.71428571 L7.71428571,10.5714286 L9.14285714,12 L4.85714286,12" id="Fill-71" opacity="0.5" fill="#0A0B09" sketch:type="MSShapeGroup"></path>
        <path d="M3.85714286,11 L5.28571429,9.57142857 L5.28571429,6.71428571 L1.71428571,8.14285714 L1,8.14285714 L1,7.42857143 L5.28571429,4.57142857 L5.28571429,1.71428571 L6,1 L6.71428571,1.71428571 L6.71428571,4.57142857 L11,7.42857143 L11,8.14285714 L10.2857143,8.14285714 L6.71428571,6.71428571 L6.71428571,9.57142857 L8.14285714,11 L3.85714286,11" id="Fill-71" opacity="0.75" fill="#0A0B09" sketch:type="MSShapeGroup"></path>
        <path d="M2.85714286,10 L4.28571429,8.57142857 L4.28571429,5.71428571 L0.714285714,7.14285714 L0,7.14285714 L0,6.42857143 L4.28571429,3.57142857 L4.28571429,0.714285714 L5,0 L5.71428571,0.714285714 L5.71428571,3.57142857 L10,6.42857143 L10,7.14285714 L9.28571429,7.14285714 L5.71428571,5.71428571 L5.71428571,8.57142857 L7.14285714,10 L2.85714286,10" id="Fill-71" fill="#FFFFFF" sketch:type="MSShapeGroup"></path>
    </g>
</svg>