<?xml version="1.0" encoding="UTF-8" standalone="no"?>
<svg width="18px" height="18px" viewBox="0 0 18 18" version="1.1" xmlns="http://www.w3.org/2000/svg" xmlns:xlink="http://www.w3.org/1999/xlink" xmlns:sketch="http://www.bohemiancoding.com/sketch/ns">
    <!-- Generator: Sketch 3.2.2 (9983) - http://www.bohemiancoding.com/sketch -->
    <title>airport-black-s2-18</title>
    <desc>Created with Sketch.</desc>
    <defs></defs>
    <g id="Page-1" stroke="none" stroke-width="1" fill="none" fill-rule="evenodd" sketch:type="MSPage">
        <g id="Fill-72-+-Fill-72-+-Fill-72" sketch:type="MSLayerGroup" transform="translate(1.000000, 1.000000)" fill="#0A0B09">
            <path d="M7.54545455,2.45454545 L8.27272727,1 L9,1 L9.72727273,2.45454545 L9.72727273,6.81818182 L17,11.1818182 L17,12.6363636 L16.2727273,12.6363636 L10.4545455,10.4545455 L9.72727273,10.4545455 L9.72727273,14.8181818 L10.4545455,14.8181818 L10.4545455,15.5454545 L11.1818182,16.2727273 L11.1818182,17 L10.4545455,17 L9,16.2727273 L8.27272727,16.2727273 L6.81818182,17 L6.09090909,17 L6.09090909,16.2727273 L6.81818182,15.5454545 L6.81818182,14.8181818 L7.54545455,14.8181818 L7.54545455,10.4545455 L6.81818182,10.4545455 L1.72727273,12.6363636 L1,12.6363636 L1,11.1818182 L7.54545455,6.81818182 L7.54545455,2.45454545" id="Fill-72" opacity="0.3" sketch:type="MSShapeGroup"></path>
            <path d="M6.54545455,1.45454545 L7.27272727,0 L8,0 L8.72727273,1.45454545 L8.72727273,5.81818182 L16,10.1818182 L16,11.6363636 L15.2727273,11.6363636 L9.45454545,9.45454545 L8.72727273,9.45454545 L8.72727273,13.8181818 L9.45454545,13.8181818 L9.45454545,14.5454545 L10.1818182,15.2727273 L10.1818182,16 L9.45454545,16 L8,15.2727273 L7.27272727,15.2727273 L5.81818182,16 L5.09090909,16 L5.09090909,15.2727273 L5.81818182,14.5454545 L5.81818182,13.8181818 L6.54545455,13.8181818 L6.54545455,9.45454545 L5.81818182,9.45454545 L0.727272727,11.6363636 L0,11.6363636 L0,10.1818182 L6.54545455,5.81818182 L6.54545455,1.45454545" id="Fill-72" sketch:type="MSShapeGroup"></path>
        </g>
    </g>
</svg>