<?xml version="1.0" encoding="UTF-8" standalone="no"?>
<!-- Created with Inkscape (http://www.inkscape.org/) -->

<svg
   xmlns:dc="http://purl.org/dc/elements/1.1/"
   xmlns:cc="http://creativecommons.org/ns#"
   xmlns:rdf="http://www.w3.org/1999/02/22-rdf-syntax-ns#"
   xmlns:svg="http://www.w3.org/2000/svg"
   xmlns="http://www.w3.org/2000/svg"
   xmlns:inkscape="http://www.inkscape.org/namespaces/inkscape"
   version="1.1"
   width="18"
   height="18"
   id="svg4619">
  <defs
     id="defs4621" />
  <metadata
     id="metadata4624">
    <rdf:RDF>
      <cc:Work
         rdf:about="">
        <dc:format>image/svg+xml</dc:format>
        <dc:type
           rdf:resource="http://purl.org/dc/dcmitype/StillImage" />
        <dc:title />
      </cc:Work>
    </rdf:RDF>
  </metadata>
  <g
     transform="translate(0,-1034.3622)"
     id="layer1">
    <g
       transform="translate(-576,-39.999983)"
       id="alcohol-shop-18"
       style="display:inline">
      <path
         d="m 702.5,26 -0.5,0.5 0,3 -2,2.5 0,8 6,0 0,-8 -2,-2.5 0,-3 -0.5,-0.5 -1,0 z m 4.5,6 0,3 c 0,0 0,1 1,1 l 1,0 0,3 -1.5,0.5 -0.5,0.5 5,0 -0.5,-0.5 -1.5,-0.5 0,-3 1,0 c 1,0 1,-1 1,-1 l 0,-3 -5,0 z"
         inkscape:connector-curvature="0"
         transform="translate(-120,1050.3622)"
         id="path8747"
         style="opacity:0.3;color:#000000;fill:#ffffff;fill-opacity:1;fill-rule:nonzero;stroke:#ffffff;stroke-width:2;stroke-linecap:round;stroke-linejoin:round;stroke-miterlimit:4;stroke-opacity:1;stroke-dasharray:none;stroke-dashoffset:0;marker:none;visibility:visible;display:inline;overflow:visible;enable-background:accumulate" />
      <path
         d="m 582.5,1076.3622 -0.5,0.5 0,3 -2,2.5 0,8 6,0 0,-8 -2,-2.5 0,-3 -0.5,-0.5 -1,0 z m 4.5,6 0,3 c 0,0 0,1 1,1 l 1,0 0,3 -1.5,0.5 -0.5,0.5 5,0 -0.5,-0.5 -1.5,-0.5 0,-3 1,0 c 1,0 1,-1 1,-1 l 0,-3 -5,0 z"
         inkscape:connector-curvature="0"
         id="path5792"
         style="color:#000000;fill:#444444;fill-opacity:1;fill-rule:nonzero;stroke:none;stroke-width:0.99999988;marker:none;visibility:visible;display:inline;overflow:visible;enable-background:accumulate" />
    </g>
  </g>
  <rect
     width="18"
     height="18"
     x="0"
     y="0"
     id="canvas"
     style="fill:none;stroke:none;visibility:hidden" />
</svg>
