<?xml version="1.0" encoding="UTF-8" standalone="no"?>
<!-- Created with Inkscape (http://www.inkscape.org/) -->

<svg
   xmlns:dc="http://purl.org/dc/elements/1.1/"
   xmlns:cc="http://creativecommons.org/ns#"
   xmlns:rdf="http://www.w3.org/1999/02/22-rdf-syntax-ns#"
   xmlns:svg="http://www.w3.org/2000/svg"
   xmlns="http://www.w3.org/2000/svg"
   xmlns:inkscape="http://www.inkscape.org/namespaces/inkscape"
   version="1.1"
   width="24"
   height="24"
   id="svg4460">
  <defs
     id="defs4462" />
  <metadata
     id="metadata4465">
    <rdf:RDF>
      <cc:Work
         rdf:about="">
        <dc:format>image/svg+xml</dc:format>
        <dc:type
           rdf:resource="http://purl.org/dc/dcmitype/StillImage" />
        <dc:title />
      </cc:Work>
    </rdf:RDF>
  </metadata>
  <g
     transform="translate(0,-1028.3622)"
     id="layer1">
    <g
       transform="translate(-552,-45.999983)"
       id="alcohol-shop-24"
       style="display:inline">
      <path
         d="m 680,27 c -0.55401,0 -0.5,0.6273 -0.5,1 l 0,2.5 c 0,0.5 -0.49764,1.2488 -1,1.5 -1,0.5 -1.5,1 -1.5,2 l 0,9 c 0,0.554 0.44599,1 1,1 l 5,0 c 0.55401,0 1,-0.446 1,-1 l 0,-9 c 0,-1 -0.5,-1.5 -1.5,-2 -0.49864,-0.2493 -1,-1 -1,-1.5 l 0,-2.5 c 0,-0.5 0.054,-1 -0.5,-1 z m 6,7 0,3 c 0,1 1,2 2,2 l 1,0 0,2.5 c 0,0.5 -1,1.5 -2,1.5 -1,0 -1,1 -1,1 l 7,0 c 0,0 0,-1 -1,-1 -1,0 -2,-1 -2,-1.5 l 0,-2.5 1,0 c 1,0 2,-1 2,-2 l 0,-3 z"
         inkscape:connector-curvature="0"
         transform="translate(-120,1050.3622)"
         id="path8739"
         style="opacity:0.3;color:#000000;fill:#ffffff;fill-opacity:1;fill-rule:nonzero;stroke:#ffffff;stroke-width:2;stroke-linecap:round;stroke-linejoin:round;stroke-miterlimit:4;stroke-opacity:1;stroke-dasharray:none;stroke-dashoffset:0;marker:none;visibility:visible;display:inline;overflow:visible;enable-background:accumulate" />
      <path
         d="m 560,1077.3622 c -0.55401,0 -0.5,0.6273 -0.5,1 l 0,2.5 c 0,0.5 -0.49764,1.2488 -1,1.5 -1,0.5 -1.5,1 -1.5,2 l 0,9 c 0,0.554 0.44599,1 1,1 l 5,0 c 0.55401,0 1,-0.446 1,-1 l 0,-9 c 0,-1 -0.5,-1.5 -1.5,-2 -0.49864,-0.2493 -1,-1 -1,-1.5 l 0,-2.5 c 0,-0.5 0.054,-1 -0.5,-1 z m 6,7 0,3 c 0,1 1,2 2,2 l 1,0 0,2.5 c 0,0.5 -1,1.5 -2,1.5 -1,0 -1,1 -1,1 l 7,0 c 0,0 0,-1 -1,-1 -1,0 -2,-1 -2,-1.5 l 0,-2.5 1,0 c 1,0 2,-1 2,-2 l 0,-3 z"
         inkscape:connector-curvature="0"
         id="rect7216"
         style="color:#000000;fill:#444444;fill-opacity:1;fill-rule:nonzero;stroke:none;stroke-width:0.99999988;marker:none;visibility:visible;display:inline;overflow:visible;enable-background:accumulate" />
    </g>
  </g>
  <rect
     width="24"
     height="24"
     x="0"
     y="0"
     id="canvas"
     style="fill:none;stroke:none;visibility:hidden" />
</svg>
