<?xml version="1.0" encoding="UTF-8" standalone="no"?>
<!-- Created with Inkscape (http://www.inkscape.org/) -->

<svg
   xmlns:dc="http://purl.org/dc/elements/1.1/"
   xmlns:cc="http://creativecommons.org/ns#"
   xmlns:rdf="http://www.w3.org/1999/02/22-rdf-syntax-ns#"
   xmlns:svg="http://www.w3.org/2000/svg"
   xmlns="http://www.w3.org/2000/svg"
   xmlns:inkscape="http://www.inkscape.org/namespaces/inkscape"
   version="1.1"
   width="18"
   height="18"
   id="svg4619">
  <defs
     id="defs4621" />
  <metadata
     id="metadata4624">
    <rdf:RDF>
      <cc:Work
         rdf:about="">
        <dc:format>image/svg+xml</dc:format>
        <dc:type
           rdf:resource="http://purl.org/dc/dcmitype/StillImage" />
        <dc:title />
      </cc:Work>
    </rdf:RDF>
  </metadata>
  <g
     transform="translate(0,-1034.3622)"
     id="layer1">
    <g
       transform="translate(-498,-64)"
       id="america-football-18"
       style="display:inline">
      <g
         id="g21422">
        <path
           d="m 507.5,1102.3622 c -4.78947,0 -6.5,4.5 -6.5,4.5 0,0 1.71053,4.5 6.5,4.5 4.78947,0 6.5,-4.5 6.5,-4.5 0,0 -1.71053,-4.5 -6.5,-4.5 z m -2.25,3 c 0.1385,0 0.25,0.1115 0.25,0.25 l 0,0.75 1.75,0 0,-0.75 c 0,-0.1385 0.1115,-0.25 0.25,-0.25 0.1385,0 0.25,0.1115 0.25,0.25 l 0,0.75 1.75,0 0,-0.75 c 0,-0.1385 0.1115,-0.25 0.25,-0.25 0.1385,0 0.28359,0.1156 0.25,0.25 l 0,0.75 0.5625,0 c 0.24622,0 0.4375,0.223 0.4375,0.5 0,0.277 -0.19128,0.5 -0.4375,0.5 l -0.5625,0 0,0.75 c 0,0.1385 -0.1115,0.25 -0.25,0.25 -0.1385,0 -0.21641,-0.1156 -0.25,-0.25 l 0,-0.75 -1.75,0 0,0.75 c 0,0.1385 -0.1115,0.25 -0.25,0.25 -0.1385,0 -0.25,-0.1115 -0.25,-0.25 l 0,-0.75 -1.75,0 0,0.75 c 0,0.1385 -0.1115,0.25 -0.25,0.25 -0.1385,0 -0.25,-0.1115 -0.25,-0.25 l 0,-0.75 -0.5625,0 c -0.24622,0 -0.4375,-0.223 -0.4375,-0.5 0,-0.277 0.19128,-0.5 0.4375,-0.5 l 0.5625,0 0,-0.75 c 0,-0.1385 0.1115,-0.25 0.25,-0.25 z"
           inkscape:connector-curvature="0"
           id="path14436"
           style="opacity:0.3;color:#000000;fill:#ffffff;fill-opacity:1;fill-rule:nonzero;stroke:#ffffff;stroke-width:2;stroke-linecap:butt;stroke-linejoin:miter;stroke-miterlimit:4;stroke-opacity:1;stroke-dasharray:none;stroke-dashoffset:0;marker:none;visibility:visible;display:inline;overflow:visible;enable-background:accumulate" />
        <path
           d="m 507.5,1102.3622 c -4.78947,0 -6.5,4.5 -6.5,4.5 0,0 1.71053,4.5 6.5,4.5 4.78947,0 6.5,-4.5 6.5,-4.5 0,0 -1.71053,-4.5 -6.5,-4.5 z m -2.25,3 c 0.1385,0 0.25,0.1115 0.25,0.25 l 0,0.75 1.75,0 0,-0.75 c 0,-0.1385 0.1115,-0.25 0.25,-0.25 0.1385,0 0.25,0.1115 0.25,0.25 l 0,0.75 1.75,0 0,-0.75 c 0,-0.1385 0.1115,-0.25 0.25,-0.25 0.1385,0 0.28359,0.1156 0.25,0.25 l 0,0.75 0.5625,0 c 0.24622,0 0.4375,0.223 0.4375,0.5 0,0.277 -0.19128,0.5 -0.4375,0.5 l -0.5625,0 0,0.75 c 0,0.1385 -0.1115,0.25 -0.25,0.25 -0.1385,0 -0.21641,-0.1156 -0.25,-0.25 l 0,-0.75 -1.75,0 0,0.75 c 0,0.1385 -0.1115,0.25 -0.25,0.25 -0.1385,0 -0.25,-0.1115 -0.25,-0.25 l 0,-0.75 -1.75,0 0,0.75 c 0,0.1385 -0.1115,0.25 -0.25,0.25 -0.1385,0 -0.25,-0.1115 -0.25,-0.25 l 0,-0.75 -0.5625,0 c -0.24622,0 -0.4375,-0.223 -0.4375,-0.5 0,-0.277 0.19128,-0.5 0.4375,-0.5 l 0.5625,0 0,-0.75 c 0,-0.1385 0.1115,-0.25 0.25,-0.25 z"
           inkscape:connector-curvature="0"
           id="path11300-2"
           style="color:#000000;fill:#444444;fill-opacity:1;fill-rule:nonzero;stroke:none;stroke-width:2;marker:none;visibility:visible;display:inline;overflow:visible;enable-background:accumulate" />
      </g>
    </g>
  </g>
  <rect
     width="18"
     height="18"
     x="0"
     y="0"
     id="canvas"
     style="fill:none;stroke:none;visibility:hidden" />
</svg>
