<?xml version="1.0" encoding="utf-8"?>
<!-- Generator: Adobe Illustrator 18.1.1, SVG Export Plug-In . SVG Version: 6.00 Build 0)  -->
<svg version="1.1" xmlns="http://www.w3.org/2000/svg" xmlns:xlink="http://www.w3.org/1999/xlink" x="0px" y="0px"
	 viewBox="0 0 24 24" enable-background="new 0 0 24 24" xml:space="preserve">
<g id="shadows">
	<g opacity="0.2">
		<path d="M17.4,11.7c-1.1,0.8-2.5,1.2-3.9,1.2c-1.4,0-2.8-0.4-3.9-1.2l-0.9,1.3c0.1,0.1,0.2,0.1,0.3,0.2h0.2v0.1
			c0.4,0.2,0.9,0.5,1.3,0.6h0.2v0.1c0.8,0.3,1.7,0.4,2.6,0.4c1,0,1.9-0.2,2.8-0.5v0h0.1c0.5-0.2,1-0.4,1.5-0.7v-0.1h0.1
			c0.1-0.1,0.2-0.1,0.3-0.2L17.4,11.7z"/>
		<path d="M17.1,17.1c1-0.3,2-0.8,2.9-1.4l-0.9-1.3c-0.2,0.1-0.4,0.2-0.6,0.4v0.1h-0.1c-0.5,0.3-1,0.5-1.5,0.7v0.1h-0.2
			c-1,0.4-2.1,0.6-3.3,0.6c-1.1,0-2.2-0.2-3.3-0.6H10v-0.1c-0.5-0.2-1-0.4-1.4-0.7H8.5v0v0c-0.2-0.1-0.4-0.2-0.5-0.3L7,15.7
			c0.9,0.6,1.8,1.1,2.8,1.4H10v0c1.1,0.4,2.3,0.5,3.5,0.5c1.2,0,2.4-0.2,3.5-0.5v0H17.1z"/>
		<path d="M20.8,17.2L20.8,17.2c-1,0.6-2,1.1-3,1.5v0h-0.1c-1.3,0.4-2.7,0.7-4.1,0.7c-1.4,0-2.8-0.2-4.1-0.7H9.2v0
			c-1.1-0.4-2.1-0.9-3-1.5h0l-0.9,1.3c2.3,1.6,5.1,2.5,8.1,2.5c3,0,5.8-0.9,8.1-2.5L20.8,17.2z"/>
		<polygon points="12.3,11.7 14.7,11.7 14.7,8.6 15.4,8.6 15.4,11 16.2,11 16.2,7.9 14.7,7.1 12.3,7.1 10.8,7.9 10.8,11 11.6,11 
			11.6,8.6 12.3,8.6 		"/>
		<path d="M13.8,6.3h-0.7c-0.5,0-0.8-0.4-0.8-0.8V4.8c0-0.5,0.4-0.8,0.8-0.8h0.7c0.5,0,0.8,0.4,0.8,0.8v0.7
			C14.7,5.9,14.3,6.3,13.8,6.3z"/>
	</g>
</g>
<g id="icons">
	<g>
		<path fill="#FFFFFF" d="M16.4,10.7c-1.1,0.8-2.5,1.2-3.9,1.2c-1.4,0-2.8-0.4-3.9-1.2l-0.9,1.3c0.1,0.1,0.2,0.1,0.3,0.2h0.2v0.1
			c0.4,0.2,0.9,0.5,1.3,0.6h0.2v0.1c0.8,0.3,1.7,0.4,2.6,0.4c1,0,1.9-0.2,2.8-0.5v0h0.1c0.5-0.2,1-0.4,1.5-0.7v-0.1h0.1
			c0.1-0.1,0.2-0.1,0.3-0.2L16.4,10.7z"/>
		<path fill="#FFFFFF" d="M16.1,16.1c1-0.3,2-0.8,2.9-1.4l-0.9-1.3c-0.2,0.1-0.4,0.2-0.6,0.4v0.1h-0.1c-0.5,0.3-1,0.5-1.5,0.7v0.1
			h-0.2c-1,0.4-2.1,0.6-3.3,0.6c-1.1,0-2.2-0.2-3.3-0.6H9v-0.1c-0.5-0.2-1-0.4-1.4-0.7H7.5v0v0c-0.2-0.1-0.4-0.2-0.5-0.3L6,14.7
			c0.9,0.6,1.8,1.1,2.8,1.4H9v0c1.1,0.4,2.3,0.5,3.5,0.5c1.2,0,2.4-0.2,3.5-0.5v0H16.1z"/>
		<path fill="#FFFFFF" d="M19.8,16.2L19.8,16.2c-1,0.6-2,1.1-3,1.5v0h-0.1c-1.3,0.4-2.7,0.7-4.1,0.7c-1.4,0-2.8-0.2-4.1-0.7H8.2v0
			c-1.1-0.4-2.1-0.9-3-1.5h0l-0.9,1.3c2.3,1.6,5.1,2.5,8.1,2.5c3,0,5.8-0.9,8.1-2.5L19.8,16.2z"/>
		<polygon fill="#FFFFFF" points="11.3,10.7 13.7,10.7 13.7,7.6 14.4,7.6 14.4,10 15.2,10 15.2,6.9 13.7,6.1 11.3,6.1 9.8,6.9 
			9.8,10 10.6,10 10.6,7.6 11.3,7.6 		"/>
		<path fill="#FFFFFF" d="M12.8,5.3h-0.7c-0.5,0-0.8-0.4-0.8-0.8V3.8c0-0.5,0.4-0.8,0.8-0.8h0.7c0.5,0,0.8,0.4,0.8,0.8v0.7
			C13.7,4.9,13.3,5.3,12.8,5.3z"/>
	</g>
</g>
<g id="guides">
</g>
</svg>
