<?xml version="1.0" encoding="UTF-8" standalone="no"?>
<svg width="18px" height="18px" viewBox="0 0 18 18" version="1.1" xmlns="http://www.w3.org/2000/svg" xmlns:xlink="http://www.w3.org/1999/xlink" xmlns:sketch="http://www.bohemiancoding.com/sketch/ns">
    <!-- Generator: Sketch 3.2.2 (9983) - http://www.bohemiancoding.com/sketch -->
    <title>amphitheater-white-18</title>
    <desc>Created with Sketch.</desc>
    <defs></defs>
    <g id="Page-1" stroke="none" stroke-width="1" fill="none" fill-rule="evenodd" sketch:type="MSPage">
        <path d="M13.7037037,9.30183673 C12.637037,10.0332613 11.3333333,10.4639405 9.94074074,10.4639405 C8.56296296,10.4639405 7.27407407,10.039831 6.20740741,9.32008585 L5.37037037,10.5705153 C5.47407407,10.640592 5.58518519,10.6960693 5.6962963,10.7617661 L5.92592593,10.7617661 L5.92592593,10.8975395 C6.33333333,11.1260185 6.74814815,11.3333284 7.19259259,11.4917308 L7.40740741,11.4917308 L7.40740741,11.5661872 C8.20740741,11.8267846 9.05925926,11.9698576 9.94074074,11.9698576 C10.8740741,11.9698576 11.762963,11.7990459 12.5925926,11.5136297 L12.5925926,11.4917308 L12.6592593,11.4917308 C13.1481481,11.3179992 13.6296296,11.1136091 14.0740741,10.8522817 L14.0740741,10.7617661 L14.2148148,10.7617661 C14.3259259,10.6946093 14.437037,10.6289125 14.5407407,10.556646 L13.7037037,9.30183673" id="Fill-510" opacity="0.5" fill="#0A0B09" sketch:type="MSShapeGroup"></path>
        <path d="M13.4518519,14.4115895 C14.4296296,14.0882152 15.3481481,13.636367 16.1851852,13.0699144 L15.3481481,11.8355441 C15.1703704,11.9537984 14.9925926,12.0640231 14.8148148,12.1705979 L14.8148148,12.2216955 L14.7259259,12.2216955 C14.2888889,12.4764531 13.8148148,12.6917927 13.3333333,12.8735539 L13.3333333,12.9516601 L13.1259259,12.9516601 C12.1481481,13.2932836 11.0888889,13.4801546 9.99259259,13.4801546 C8.9037037,13.4801546 7.85185185,13.2903638 6.87407407,12.9516601 L6.66666667,12.9516601 L6.66666667,12.8786637 C6.18518519,12.6998223 5.73333333,12.4713434 5.2962963,12.2216955 L5.18518519,12.2216955 L5.18518519,12.1603784 C5.00740741,12.0581834 4.82962963,11.9647479 4.65925926,11.8516034 L3.81481481,13.0735642 C4.64444444,13.6392869 5.56296296,14.0889451 6.53333333,14.4115895 L6.66666667,14.4115895 L6.66666667,14.4583073 C7.71851852,14.7911711 8.83703704,14.9714724 9.99259259,14.9714724 C11.1555556,14.9714724 12.2814815,14.7889813 13.3333333,14.4539275 L13.3333333,14.4115895 L13.4518519,14.4115895" id="Fill-511" opacity="0.5" fill="#0A0B09" sketch:type="MSShapeGroup"></path>
        <path d="M16.9555556,14.4531975 L16.9037037,14.4531975 C16.037037,15.0408191 15.0814815,15.5138362 14.0740741,15.8671391 L14.0740741,15.9131269 L13.9407407,15.9131269 C12.7037037,16.3328566 11.3777778,16.5671752 9.99259259,16.5671752 C8.60740741,16.5671752 7.27407407,16.3328566 6.02962963,15.9131269 L5.92592593,15.9131269 L5.92592593,15.8758987 C4.91111111,15.5218658 3.94814815,15.0459288 3.06666667,14.4531975 L3.04444444,14.4531975 L2.22222222,15.6788082 C4.43703704,17.1825355 7.11111111,18.0614129 9.99259259,18.0614129 C12.8740741,18.0614129 15.5555556,17.1766957 17.7777778,15.6649389 L16.9555556,14.4531975" id="Fill-512" opacity="0.5" fill="#0A0B09" sketch:type="MSShapeGroup"></path>
        <path d="M8.88888889,9.30183673 L11.1111111,9.30183673 L11.1111111,6.381978 L11.8518519,6.381978 L11.8518519,8.57187205 L12.5925926,8.57187205 L12.5925926,5.65201331 L11.1111111,4.92204863 L8.88888889,4.92204863 L7.40740741,5.65201331 L7.40740741,8.57187205 L8.14814815,8.57187205 L8.14814815,6.381978 L8.88888889,6.381978 L8.88888889,9.30183673" id="Fill-513" opacity="0.5" fill="#0A0B09" sketch:type="MSShapeGroup"></path>
        <path d="M10.3111111,4.19208394 L9.68888889,4.19208394 C9.24444444,4.19208394 8.88888889,3.839511 8.88888889,3.40518202 L8.88888889,2.78836186 C8.88888889,2.35403287 9.24444444,2.00218989 9.68888889,2.00218989 L10.3111111,2.00218989 C10.7555556,2.00218989 11.1111111,2.35403287 11.1111111,2.78836186 L11.1111111,3.40518202 C11.1111111,3.839511 10.7555556,4.19208394 10.3111111,4.19208394" id="Fill-514" opacity="0.5" fill="#0A0B09" sketch:type="MSShapeGroup"></path>
        <path d="M12.7037037,8.30183673 C11.637037,9.03326134 10.3333333,9.46394051 8.94074074,9.46394051 C7.56296296,9.46394051 6.27407407,9.03983102 5.20740741,8.32008585 L4.37037037,9.57051535 C4.47407407,9.64059196 4.58518519,9.69606927 4.6962963,9.7617661 L4.92592593,9.7617661 L4.92592593,9.89753953 C5.33333333,10.1260185 5.74814815,10.3333284 6.19259259,10.4917308 L6.40740741,10.4917308 L6.40740741,10.5661872 C7.20740741,10.8267846 8.05925926,10.9698576 8.94074074,10.9698576 C9.87407407,10.9698576 10.762963,10.7990459 11.5925926,10.5136297 L11.5925926,10.4917308 L11.6592593,10.4917308 C12.1481481,10.3179992 12.6296296,10.1136091 13.0740741,9.85228172 L13.0740741,9.7617661 L13.2148148,9.7617661 C13.3259259,9.69460935 13.437037,9.62891252 13.5407407,9.55664602 L12.7037037,8.30183673" id="Fill-510" opacity="0.75" fill="#0A0B09" sketch:type="MSShapeGroup"></path>
        <path d="M12.4518519,13.4115895 C13.4296296,13.0882152 14.3481481,12.636367 15.1851852,12.0699144 L14.3481481,10.8355441 C14.1703704,10.9537984 13.9925926,11.0640231 13.8148148,11.1705979 L13.8148148,11.2216955 L13.7259259,11.2216955 C13.2888889,11.4764531 12.8148148,11.6917927 12.3333333,11.8735539 L12.3333333,11.9516601 L12.1259259,11.9516601 C11.1481481,12.2932836 10.0888889,12.4801546 8.99259259,12.4801546 C7.9037037,12.4801546 6.85185185,12.2903638 5.87407407,11.9516601 L5.66666667,11.9516601 L5.66666667,11.8786637 C5.18518519,11.6998223 4.73333333,11.4713434 4.2962963,11.2216955 L4.18518519,11.2216955 L4.18518519,11.1603784 C4.00740741,11.0581834 3.82962963,10.9647479 3.65925926,10.8516034 L2.81481481,12.0735642 C3.64444444,12.6392869 4.56296296,13.0889451 5.53333333,13.4115895 L5.66666667,13.4115895 L5.66666667,13.4583073 C6.71851852,13.7911711 7.83703704,13.9714724 8.99259259,13.9714724 C10.1555556,13.9714724 11.2814815,13.7889813 12.3333333,13.4539275 L12.3333333,13.4115895 L12.4518519,13.4115895" id="Fill-511" opacity="0.75" fill="#0A0B09" sketch:type="MSShapeGroup"></path>
        <path d="M15.9555556,13.4531975 L15.9037037,13.4531975 C15.037037,14.0408191 14.0814815,14.5138362 13.0740741,14.8671391 L13.0740741,14.9131269 L12.9407407,14.9131269 C11.7037037,15.3328566 10.3777778,15.5671752 8.99259259,15.5671752 C7.60740741,15.5671752 6.27407407,15.3328566 5.02962963,14.9131269 L4.92592593,14.9131269 L4.92592593,14.8758987 C3.91111111,14.5218658 2.94814815,14.0459288 2.06666667,13.4531975 L2.04444444,13.4531975 L1.22222222,14.6788082 C3.43703704,16.1825355 6.11111111,17.0614129 8.99259259,17.0614129 C11.8740741,17.0614129 14.5555556,16.1766957 16.7777778,14.6649389 L15.9555556,13.4531975" id="Fill-512" opacity="0.75" fill="#0A0B09" sketch:type="MSShapeGroup"></path>
        <path d="M7.88888889,8.30183673 L10.1111111,8.30183673 L10.1111111,5.381978 L10.8518519,5.381978 L10.8518519,7.57187205 L11.5925926,7.57187205 L11.5925926,4.65201331 L10.1111111,3.92204863 L7.88888889,3.92204863 L6.40740741,4.65201331 L6.40740741,7.57187205 L7.14814815,7.57187205 L7.14814815,5.381978 L7.88888889,5.381978 L7.88888889,8.30183673" id="Fill-513" opacity="0.75" fill="#0A0B09" sketch:type="MSShapeGroup"></path>
        <path d="M9.31111111,3.19208394 L8.68888889,3.19208394 C8.24444444,3.19208394 7.88888889,2.839511 7.88888889,2.40518202 L7.88888889,1.78836186 C7.88888889,1.35403287 8.24444444,1.00218989 8.68888889,1.00218989 L9.31111111,1.00218989 C9.75555556,1.00218989 10.1111111,1.35403287 10.1111111,1.78836186 L10.1111111,2.40518202 C10.1111111,2.839511 9.75555556,3.19208394 9.31111111,3.19208394" id="Fill-514" opacity="0.75" fill="#0A0B09" sketch:type="MSShapeGroup"></path>
        <path d="M11.7037037,7.30183673 C10.637037,8.03326134 9.33333333,8.46394051 7.94074074,8.46394051 C6.56296296,8.46394051 5.27407407,8.03983102 4.20740741,7.32008585 L3.37037037,8.57051535 C3.47407407,8.64059196 3.58518519,8.69606927 3.6962963,8.7617661 L3.92592593,8.7617661 L3.92592593,8.89753953 C4.33333333,9.12601847 4.74814815,9.33332844 5.19259259,9.49173078 L5.40740741,9.49173078 L5.40740741,9.56618718 C6.20740741,9.82678457 7.05925926,9.96985765 7.94074074,9.96985765 C8.87407407,9.96985765 9.76296296,9.79904591 10.5925926,9.51362972 L10.5925926,9.49173078 L10.6592593,9.49173078 C11.1481481,9.31799919 11.6296296,9.11360907 12.0740741,8.85228172 L12.0740741,8.7617661 L12.2148148,8.7617661 C12.3259259,8.69460935 12.437037,8.62891252 12.5407407,8.55664602 L11.7037037,7.30183673" id="Fill-510" fill="#FFFFFF" sketch:type="MSShapeGroup"></path>
        <path d="M11.4518519,12.4115895 C12.4296296,12.0882152 13.3481481,11.636367 14.1851852,11.0699144 L13.3481481,9.83554415 C13.1703704,9.95379842 12.9925926,10.0640231 12.8148148,10.1705979 L12.8148148,10.2216955 L12.7259259,10.2216955 C12.2888889,10.4764531 11.8148148,10.6917927 11.3333333,10.8735539 L11.3333333,10.9516601 L11.1259259,10.9516601 C10.1481481,11.2932836 9.08888889,11.4801546 7.99259259,11.4801546 C6.9037037,11.4801546 5.85185185,11.2903638 4.87407407,10.9516601 L4.66666667,10.9516601 L4.66666667,10.8786637 C4.18518519,10.6998223 3.73333333,10.4713434 3.2962963,10.2216955 L3.18518519,10.2216955 L3.18518519,10.1603784 C3.00740741,10.0581834 2.82962963,9.96474789 2.65925926,9.85160337 L1.81481481,11.0735642 C2.64444444,11.6392869 3.56296296,12.0889451 4.53333333,12.4115895 L4.66666667,12.4115895 L4.66666667,12.4583073 C5.71851852,12.7911711 6.83703704,12.9714724 7.99259259,12.9714724 C9.15555556,12.9714724 10.2814815,12.7889813 11.3333333,12.4539275 L11.3333333,12.4115895 L11.4518519,12.4115895" id="Fill-511" fill="#FFFFFF" sketch:type="MSShapeGroup"></path>
        <path d="M14.9555556,12.4531975 L14.9037037,12.4531975 C14.037037,13.0408191 13.0814815,13.5138362 12.0740741,13.8671391 L12.0740741,13.9131269 L11.9407407,13.9131269 C10.7037037,14.3328566 9.37777778,14.5671752 7.99259259,14.5671752 C6.60740741,14.5671752 5.27407407,14.3328566 4.02962963,13.9131269 L3.92592593,13.9131269 L3.92592593,13.8758987 C2.91111111,13.5218658 1.94814815,13.0459288 1.06666667,12.4531975 L1.04444444,12.4531975 L0.222222222,13.6788082 C2.43703704,15.1825355 5.11111111,16.0614129 7.99259259,16.0614129 C10.8740741,16.0614129 13.5555556,15.1766957 15.7777778,13.6649389 L14.9555556,12.4531975" id="Fill-512" fill="#FFFFFF" sketch:type="MSShapeGroup"></path>
        <path d="M6.88888889,7.30183673 L9.11111111,7.30183673 L9.11111111,4.381978 L9.85185185,4.381978 L9.85185185,6.57187205 L10.5925926,6.57187205 L10.5925926,3.65201331 L9.11111111,2.92204863 L6.88888889,2.92204863 L5.40740741,3.65201331 L5.40740741,6.57187205 L6.14814815,6.57187205 L6.14814815,4.381978 L6.88888889,4.381978 L6.88888889,7.30183673" id="Fill-513" fill="#FFFFFF" sketch:type="MSShapeGroup"></path>
        <path d="M8.31111111,2.19208394 L7.68888889,2.19208394 C7.24444444,2.19208394 6.88888889,1.839511 6.88888889,1.40518202 L6.88888889,0.788361858 C6.88888889,0.354032872 7.24444444,0.00218989405 7.68888889,0.00218989405 L8.31111111,0.00218989405 C8.75555556,0.00218989405 9.11111111,0.354032872 9.11111111,0.788361858 L9.11111111,1.40518202 C9.11111111,1.839511 8.75555556,2.19208394 8.31111111,2.19208394" id="Fill-514" fill="#FFFFFF" sketch:type="MSShapeGroup"></path>
    </g>
</svg>