<?xml version="1.0" encoding="utf-8"?>
<!-- Generator: Adobe Illustrator 18.1.1, SVG Export Plug-In . SVG Version: 6.00 Build 0)  -->
<svg version="1.1" xmlns="http://www.w3.org/2000/svg" xmlns:xlink="http://www.w3.org/1999/xlink" x="0px" y="0px"
	 viewBox="0 0 18 18" enable-background="new 0 0 18 18" xml:space="preserve">
<g id="shadows">
	<g opacity="0.2">
		<path d="M13.7,10.8c-1,0.6-2.2,1-3.4,1c-1.3,0-2.4-0.4-3.4-0.9l-0.8,1c1.2,0.7,2.6,1.2,4.2,1.2c1.6,0,3-0.4,4.2-1.2L13.7,10.8z"/>
		<path d="M14.7,13.2c-1.3,0.9-2.8,1.4-4.4,1.4c-1.6,0-3.1-0.5-4.4-1.3l-0.7,1c1.5,1,3.2,1.6,5.1,1.6c1.9,0,3.7-0.6,5.1-1.6
			L14.7,13.2z"/>
		<polygon points="7.9,6.5 7,7.4 7,9.2 7.9,9.2 7.9,7.4 8.9,7.4 8.9,10.2 11.6,10.2 11.6,7.4 12.6,7.4 12.6,9.2 13.5,9.2 13.5,7.4 
			12.6,6.5 		"/>
		<path d="M10.2,5.5L10.2,5.5c-0.8,0-1.4-0.6-1.4-1.4s0.6-1.4,1.4-1.4s1.4,0.6,1.4,1.4S11,5.5,10.2,5.5z"/>
	</g>
</g>
<g id="icons">
	<g>
		<path d="M12.9,10c-1,0.6-2.2,1-3.4,1c-1.3,0-2.4-0.4-3.4-0.9l-0.8,1c1.2,0.7,2.6,1.2,4.2,1.2c1.6,0,3-0.4,4.2-1.2L12.9,10z"/>
		<path d="M13.9,12.4c-1.3,0.9-2.8,1.4-4.4,1.4c-1.6,0-3.1-0.5-4.4-1.3l-0.7,1c1.5,1,3.2,1.6,5.1,1.6c1.9,0,3.7-0.6,5.1-1.6
			L13.9,12.4z"/>
		<polygon points="7.2,5.7 6.2,6.6 6.2,8.5 7.2,8.5 7.2,6.6 8.1,6.6 8.1,9.4 10.9,9.4 10.9,6.6 11.8,6.6 11.8,8.5 12.8,8.5 
			12.8,6.6 11.8,5.7 		"/>
		<path d="M9.5,4.8L9.5,4.8c-0.8,0-1.4-0.6-1.4-1.4S8.7,2,9.5,2s1.4,0.6,1.4,1.4S10.3,4.8,9.5,4.8z"/>
	</g>
</g>
<g id="guides">
</g>
</svg>
