<?xml version="1.0" encoding="utf-8"?>
<!-- Generator: Adobe Illustrator 18.1.1, SVG Export Plug-In . SVG Version: 6.00 Build 0)  -->
<svg version="1.1" xmlns="http://www.w3.org/2000/svg" xmlns:xlink="http://www.w3.org/1999/xlink" x="0px" y="0px"
	 viewBox="0 0 12 12" enable-background="new 0 0 12 12" xml:space="preserve">
<g id="shadows">
	<g opacity="0.2">
		<path d="M9.4,7C8.7,7.5,7.9,7.7,7,7.7c-0.9,0-1.7-0.2-2.4-0.7L4.1,7.8C4.9,8.3,5.9,8.6,7,8.6c1.1,0,2.1-0.3,2.9-0.8L9.4,7z"/>
		<path d="M10.1,8.7C9.2,9.3,8.1,9.6,7,9.6c-1.1,0-2.2-0.3-3-0.9L3.5,9.4c1,0.7,2.2,1.1,3.5,1.1c1.3,0,2.5-0.4,3.5-1.1L10.1,8.7z"/>
		<polygon points="5.4,4.1 4.8,4.7 4.8,6 5.4,6 5.4,4.7 6,4.7 6,6.6 8,6.6 8,4.7 8.6,4.7 8.6,6 9.2,6 9.2,4.7 8.6,4.1 		"/>
		<path d="M7,3.4L7,3.4c-0.5,0-1-0.4-1-1s0.4-1,1-1s1,0.4,1,1S7.5,3.4,7,3.4z"/>
	</g>
</g>
<g id="icons">
	<g>
		<path d="M8.9,6.5C8.2,7,7.4,7.2,6.5,7.2C5.6,7.2,4.8,7,4.1,6.6L3.6,7.3c0.8,0.5,1.8,0.8,2.9,0.8c1.1,0,2.1-0.3,2.9-0.8L8.9,6.5z"
			/>
		<path d="M9.6,8.2C8.7,8.8,7.6,9.1,6.5,9.1c-1.1,0-2.2-0.3-3-0.9L3,8.9C4,9.6,5.2,10,6.5,10C7.8,10,9,9.6,10,8.9L9.6,8.2z"/>
		<polygon points="4.9,3.6 4.2,4.2 4.2,5.5 4.9,5.5 4.9,4.2 5.5,4.2 5.5,6.1 7.5,6.1 7.5,4.2 8.1,4.2 8.1,5.5 8.8,5.5 8.8,4.2 
			8.1,3.6 		"/>
		<path d="M6.5,2.9L6.5,2.9c-0.5,0-1-0.4-1-1s0.4-1,1-1s1,0.4,1,1S7,2.9,6.5,2.9z"/>
	</g>
</g>
<g id="guides">
</g>
</svg>
