<?xml version="1.0" encoding="UTF-8" standalone="no"?>
<!-- Created with Inkscape (http://www.inkscape.org/) -->

<svg
   xmlns:dc="http://purl.org/dc/elements/1.1/"
   xmlns:cc="http://creativecommons.org/ns#"
   xmlns:rdf="http://www.w3.org/1999/02/22-rdf-syntax-ns#"
   xmlns:svg="http://www.w3.org/2000/svg"
   xmlns="http://www.w3.org/2000/svg"
   xmlns:sodipodi="http://sodipodi.sourceforge.net/DTD/sodipodi-0.dtd"
   xmlns:inkscape="http://www.inkscape.org/namespaces/inkscape"
   width="18"
   height="18"
   id="svg27920"
   version="1.1"
   inkscape:version="0.48.2 r9819"
   sodipodi:docname="New document 45">
  <defs
     id="defs27922" />
  <sodipodi:namedview
     id="base"
     pagecolor="#ffffff"
     bordercolor="#666666"
     borderopacity="1.0"
     inkscape:pageopacity="0.0"
     inkscape:pageshadow="2"
     inkscape:zoom="7.7632816"
     inkscape:cx="9.8062954"
     inkscape:cy="8.0084746"
     inkscape:document-units="px"
     inkscape:current-layer="layer1"
     showgrid="false"
     inkscape:window-width="483"
     inkscape:window-height="454"
     inkscape:window-x="1134"
     inkscape:window-y="228"
     inkscape:window-maximized="0" />
  <metadata
     id="metadata27925">
    <rdf:RDF>
      <cc:Work
         rdf:about="">
        <dc:format>image/svg+xml</dc:format>
        <dc:type
           rdf:resource="http://purl.org/dc/dcmitype/StillImage" />
        <dc:title></dc:title>
      </cc:Work>
    </rdf:RDF>
  </metadata>
  <g
     inkscape:label="Layer 1"
     inkscape:groupmode="layer"
     id="layer1"
     transform="translate(0,-1034.3622)">
    <g
       transform="matrix(1.8213093,0,0,1.8213093,-38.522099,873.82612)"
       id="g27766">
      <path
         style="opacity:0;fill:#272525"
         inkscape:connector-curvature="0"
         id="path27768"
         d="m 29.862,98.017 c 0.652,0 1.181,-0.527 1.181,-1.18 v -7.522 c 0,-0.652 -0.528,-1.181 -1.181,-1.181 h -7.521 c -0.652,0 -1.181,0.528 -1.181,1.181 v 7.522 c 0,0.652 0.528,1.18 1.181,1.18 h 7.521 z" />
      <g
         id="g27770"
         style="opacity:0.6;stroke:#ffffff;stroke-width:0.5;stroke-miterlimit:40;stroke-opacity:1;stroke-dasharray:none">
        <circle
           d="m 26.572,89.318001 c 0,0.272276 -0.220723,0.493 -0.493,0.493 -0.272276,0 -0.493,-0.220724 -0.493,-0.493 0,-0.272277 0.220724,-0.493 0.493,-0.493 0.272277,0 0.493,0.220723 0.493,0.493 z"
           style="fill:#272525;stroke:#ffffff;stroke-width:0.5;stroke-miterlimit:40;stroke-opacity:1;stroke-dasharray:none"
           sodipodi:ry="0.493"
           sodipodi:rx="0.493"
           sodipodi:cy="89.318001"
           sodipodi:cx="26.079"
           id="circle27772"
           r="0.493"
           cy="89.318001"
           cx="26.079" />
        <g
           id="g27774"
           style="stroke:#ffffff;stroke-width:0.5;stroke-miterlimit:40;stroke-opacity:1;stroke-dasharray:none">
          <path
             d="m 26.867,89.971 h -1.584 c -0.35,0 -0.631,0.286 -0.631,0.641 v 1.182 c 0,0.294 0.389,0.294 0.389,0 v -1.141 h 0.403 v 1.438 c 0.206,0.049 0.417,0.086 0.64,0.086 0.221,0 0.43,-0.037 0.635,-0.085 v -1.439 h 0.4 v 1.141 c 0,0.296 0.388,0.296 0.388,0 v -1.175 c 0,-0.326 -0.255,-0.648 -0.64,-0.648 z"
             id="path27776"
             inkscape:connector-curvature="0"
             style="fill:#272525;stroke:#ffffff;stroke-width:0.5;stroke-miterlimit:40;stroke-opacity:1;stroke-dasharray:none" />
          <path
             d="m 27.947,92.552 c -0.531,0.364 -1.178,0.578 -1.871,0.578 -0.688,0 -1.328,-0.211 -1.861,-0.569 l -0.418,0.622 c 0.65,0.441 1.436,0.696 2.279,0.696 0.85,0 1.639,-0.258 2.291,-0.703 l -0.42,-0.624 z"
             id="path27778"
             inkscape:connector-curvature="0"
             style="fill:#272525;stroke:#ffffff;stroke-width:0.5;stroke-miterlimit:40;stroke-opacity:1;stroke-dasharray:none" />
          <path
             d="m 28.746,93.833 c -0.76,0.518 -1.678,0.818 -2.666,0.818 -0.983,0 -1.897,-0.298 -2.656,-0.81 l -0.422,0.608 c 0.877,0.596 1.938,0.944 3.078,0.944 1.143,0 2.203,-0.35 3.084,-0.946 l -0.418,-0.614 z"
             id="path27780"
             inkscape:connector-curvature="0"
             style="fill:#272525;stroke:#ffffff;stroke-width:0.5;stroke-miterlimit:40;stroke-opacity:1;stroke-dasharray:none" />
          <path
             d="m 29.539,95.104 c -0.987,0.67 -2.178,1.062 -3.461,1.062 -1.281,0 -2.471,-0.39 -3.457,-1.058 l -0.412,0.616 c 1.103,0.748 2.436,1.185 3.869,1.185 1.437,0 2.772,-0.44 3.879,-1.192 l -0.418,-0.613 z"
             id="path27782"
             inkscape:connector-curvature="0"
             style="fill:#272525;stroke:#ffffff;stroke-width:0.5;stroke-miterlimit:40;stroke-opacity:1;stroke-dasharray:none" />
        </g>
      </g>
      <g
         id="g27784">
        <circle
           d="m 26.572,89.318001 c 0,0.272276 -0.220723,0.493 -0.493,0.493 -0.272276,0 -0.493,-0.220724 -0.493,-0.493 0,-0.272277 0.220724,-0.493 0.493,-0.493 0.272277,0 0.493,0.220723 0.493,0.493 z"
           cx="26.079"
           cy="89.318001"
           r="0.493"
           id="circle27786"
           sodipodi:cx="26.079"
           sodipodi:cy="89.318001"
           sodipodi:rx="0.493"
           sodipodi:ry="0.493"
           style="fill:#272525" />
        <g
           id="g27788">
          <path
             style="fill:#272525"
             inkscape:connector-curvature="0"
             id="path27790"
             d="m 26.867,89.971 h -1.584 c -0.35,0 -0.631,0.286 -0.631,0.641 v 1.182 c 0,0.294 0.389,0.294 0.389,0 v -1.141 h 0.403 v 1.438 c 0.206,0.049 0.417,0.086 0.64,0.086 0.221,0 0.43,-0.037 0.635,-0.085 v -1.439 h 0.4 v 1.141 c 0,0.296 0.388,0.296 0.388,0 v -1.175 c 0,-0.326 -0.255,-0.648 -0.64,-0.648 z" />
          <path
             style="fill:#272525"
             inkscape:connector-curvature="0"
             id="path27792"
             d="m 27.947,92.552 c -0.531,0.364 -1.178,0.578 -1.871,0.578 -0.688,0 -1.328,-0.211 -1.861,-0.569 l -0.418,0.622 c 0.65,0.441 1.436,0.696 2.279,0.696 0.85,0 1.639,-0.258 2.291,-0.703 l -0.42,-0.624 z" />
          <path
             style="fill:#272525"
             inkscape:connector-curvature="0"
             id="path27794"
             d="m 28.746,93.833 c -0.76,0.518 -1.678,0.818 -2.666,0.818 -0.983,0 -1.897,-0.298 -2.656,-0.81 l -0.422,0.608 c 0.877,0.596 1.938,0.944 3.078,0.944 1.143,0 2.203,-0.35 3.084,-0.946 l -0.418,-0.614 z" />
          <path
             style="fill:#272525"
             inkscape:connector-curvature="0"
             id="path27796"
             d="m 29.539,95.104 c -0.987,0.67 -2.178,1.062 -3.461,1.062 -1.281,0 -2.471,-0.39 -3.457,-1.058 l -0.412,0.616 c 1.103,0.748 2.436,1.185 3.869,1.185 1.437,0 2.772,-0.44 3.879,-1.192 l -0.418,-0.613 z" />
        </g>
      </g>
    </g>
  </g>
</svg>
