<?xml version="1.0" encoding="UTF-8" standalone="no"?>
<svg width="12px" height="12px" viewBox="0 0 12 12" version="1.1" xmlns="http://www.w3.org/2000/svg" xmlns:xlink="http://www.w3.org/1999/xlink" xmlns:sketch="http://www.bohemiancoding.com/sketch/ns">
    <!-- Generator: Sketch 3.2.2 (9983) - http://www.bohemiancoding.com/sketch -->
    <title>amphitheater-white-12</title>
    <desc>Created with Sketch.</desc>
    <defs></defs>
    <g id="Page-1" stroke="none" stroke-width="1" fill="none" fill-rule="evenodd" sketch:type="MSPage">
        <g id="Group" sketch:type="MSLayerGroup" transform="translate(2.000000, 2.000000)" fill="#0A0B09" opacity="0.5">
            <path d="M6.66909091,6.3316 C5.91272727,6.80826667 4.98181818,7.0884 3.99272727,7.0884 C3.00363636,7.0884 2.08727273,6.81193333 1.32363636,6.34333333 L0.727272727,7.15733333 C1.65818182,7.7352 2.78545455,8.06886667 3.99272727,8.06886667 C5.20727273,8.06886667 6.34181818,7.7308 7.27272727,7.14853333 L6.66909091,6.3316" id="Fill-77" sketch:type="MSShapeGroup"></path>
            <path d="M7.45454545,8.22653333 C6.47272727,8.90486667 5.28,9.2972 3.99272727,9.2972 C2.72,9.2972 1.53454545,8.90706667 0.545454545,8.2368 L0,9.0332 C1.14181818,9.81346667 2.51636364,10.2688667 3.99272727,10.2688667 C5.48363636,10.2688667 6.85818182,9.81053333 8,9.03026667 L7.45454545,8.22653333" id="Fill-78" sketch:type="MSShapeGroup"></path>
            <path d="M2.18181818,2.93553333 L1.45454545,3.66886667 L1.45454545,5.13553333 L2.18181818,5.13553333 L2.18181818,3.66886667 L2.90909091,3.66886667 L2.90909091,5.86886667 L5.09090909,5.86886667 L5.09090909,3.66886667 L5.81818182,3.66886667 L5.81818182,5.13553333 L6.54545455,5.13553333 L6.54545455,3.66886667 L5.81818182,2.93553333 L2.18181818,2.93553333" id="Fill-79" sketch:type="MSShapeGroup"></path>
            <path d="M4,2.2022 L4,2.2022 C3.39636364,2.2022 2.90909091,1.7094 2.90909091,1.1022 C2.90909091,0.494266667 3.39636364,0.0022 4,0.0022 C4.60363636,0.0022 5.09090909,0.494266667 5.09090909,1.1022 C5.09090909,1.7094 4.60363636,2.2022 4,2.2022" id="Fill-80" sketch:type="MSShapeGroup"></path>
        </g>
        <g id="Group" sketch:type="MSLayerGroup" transform="translate(1.000000, 1.000000)" fill="#0A0B09" opacity="0.75">
            <path d="M6.66909091,6.3316 C5.91272727,6.80826667 4.98181818,7.0884 3.99272727,7.0884 C3.00363636,7.0884 2.08727273,6.81193333 1.32363636,6.34333333 L0.727272727,7.15733333 C1.65818182,7.7352 2.78545455,8.06886667 3.99272727,8.06886667 C5.20727273,8.06886667 6.34181818,7.7308 7.27272727,7.14853333 L6.66909091,6.3316" id="Fill-77" sketch:type="MSShapeGroup"></path>
            <path d="M7.45454545,8.22653333 C6.47272727,8.90486667 5.28,9.2972 3.99272727,9.2972 C2.72,9.2972 1.53454545,8.90706667 0.545454545,8.2368 L0,9.0332 C1.14181818,9.81346667 2.51636364,10.2688667 3.99272727,10.2688667 C5.48363636,10.2688667 6.85818182,9.81053333 8,9.03026667 L7.45454545,8.22653333" id="Fill-78" sketch:type="MSShapeGroup"></path>
            <path d="M2.18181818,2.93553333 L1.45454545,3.66886667 L1.45454545,5.13553333 L2.18181818,5.13553333 L2.18181818,3.66886667 L2.90909091,3.66886667 L2.90909091,5.86886667 L5.09090909,5.86886667 L5.09090909,3.66886667 L5.81818182,3.66886667 L5.81818182,5.13553333 L6.54545455,5.13553333 L6.54545455,3.66886667 L5.81818182,2.93553333 L2.18181818,2.93553333" id="Fill-79" sketch:type="MSShapeGroup"></path>
            <path d="M4,2.2022 L4,2.2022 C3.39636364,2.2022 2.90909091,1.7094 2.90909091,1.1022 C2.90909091,0.494266667 3.39636364,0.0022 4,0.0022 C4.60363636,0.0022 5.09090909,0.494266667 5.09090909,1.1022 C5.09090909,1.7094 4.60363636,2.2022 4,2.2022" id="Fill-80" sketch:type="MSShapeGroup"></path>
        </g>
        <g id="Group" sketch:type="MSLayerGroup" fill="#FFFFFF">
            <path d="M6.66909091,6.3316 C5.91272727,6.80826667 4.98181818,7.0884 3.99272727,7.0884 C3.00363636,7.0884 2.08727273,6.81193333 1.32363636,6.34333333 L0.727272727,7.15733333 C1.65818182,7.7352 2.78545455,8.06886667 3.99272727,8.06886667 C5.20727273,8.06886667 6.34181818,7.7308 7.27272727,7.14853333 L6.66909091,6.3316" id="Fill-77" sketch:type="MSShapeGroup"></path>
            <path d="M7.45454545,8.22653333 C6.47272727,8.90486667 5.28,9.2972 3.99272727,9.2972 C2.72,9.2972 1.53454545,8.90706667 0.545454545,8.2368 L0,9.0332 C1.14181818,9.81346667 2.51636364,10.2688667 3.99272727,10.2688667 C5.48363636,10.2688667 6.85818182,9.81053333 8,9.03026667 L7.45454545,8.22653333" id="Fill-78" sketch:type="MSShapeGroup"></path>
            <path d="M2.18181818,2.93553333 L1.45454545,3.66886667 L1.45454545,5.13553333 L2.18181818,5.13553333 L2.18181818,3.66886667 L2.90909091,3.66886667 L2.90909091,5.86886667 L5.09090909,5.86886667 L5.09090909,3.66886667 L5.81818182,3.66886667 L5.81818182,5.13553333 L6.54545455,5.13553333 L6.54545455,3.66886667 L5.81818182,2.93553333 L2.18181818,2.93553333" id="Fill-79" sketch:type="MSShapeGroup"></path>
            <path d="M4,2.2022 L4,2.2022 C3.39636364,2.2022 2.90909091,1.7094 2.90909091,1.1022 C2.90909091,0.494266667 3.39636364,0.0022 4,0.0022 C4.60363636,0.0022 5.09090909,0.494266667 5.09090909,1.1022 C5.09090909,1.7094 4.60363636,2.2022 4,2.2022" id="Fill-80" sketch:type="MSShapeGroup"></path>
        </g>
    </g>
</svg>