<?xml version="1.0" encoding="utf-8"?>
<!-- Generator: Adobe Illustrator 18.0.0, SVG Export Plug-In . SVG Version: 6.00 Build 0)  -->
<!DOCTYPE svg PUBLIC "-//W3C//DTD SVG 1.1//EN" "http://www.w3.org/Graphics/SVG/1.1/DTD/svg11.dtd" [
	<!ENTITY ns_flows "http://ns.adobe.com/Flows/1.0/">
	<!ENTITY ns_extend "http://ns.adobe.com/Extensibility/1.0/">
	<!ENTITY ns_ai "http://ns.adobe.com/AdobeIllustrator/10.0/">
	<!ENTITY ns_graphs "http://ns.adobe.com/Graphs/1.0/">
	<!ENTITY st0 "opacity:0.1;">
	<!ENTITY st1 "fill:#010101;">
	<!ENTITY st2 "opacity:0.2;">
]>
<svg version="1.1" id="Layer_1" xmlns:x="&ns_extend;" xmlns:i="&ns_ai;" xmlns:graph="&ns_graphs;"
	 xmlns="http://www.w3.org/2000/svg" xmlns:xlink="http://www.w3.org/1999/xlink" xmlns:a="http://ns.adobe.com/AdobeSVGViewerExtensions/3.0/"
	 x="0px" y="0px" width="23px" height="24px" viewBox="0 0 23 24" style="enable-background:new 0 0 23 24;" xml:space="preserve">
<g style="&st0;">
	<path style="&st1;" d="M17.5,12c-1.4,1-3.2,1.6-5.1,1.6c-1.9,0-3.6-0.6-5-1.6l-1.1,1.7c0.1,0.1,0.3,0.2,0.4,0.3H7v0.2
		c0.5,0.3,1.1,0.6,1.7,0.8H9v0.1c1.1,0.4,2.2,0.6,3.4,0.6c1.3,0,2.5-0.2,3.6-0.6v0h0.1c0.7-0.2,1.3-0.5,1.9-0.9V14h0.2
		c0.1-0.1,0.3-0.2,0.4-0.3L17.5,12z"/>
	<path style="&st1;" d="M17.2,19c1.3-0.4,2.6-1.1,3.7-1.8l-1.1-1.7c-0.2,0.2-0.5,0.3-0.7,0.5V16h-0.1c-0.6,0.3-1.2,0.6-1.9,0.9V17
		h-0.3c-1.3,0.5-2.7,0.7-4.2,0.7c-1.5,0-2.9-0.3-4.2-0.7H8v-0.1c-0.6-0.2-1.3-0.6-1.9-0.9H6v0v-0.1c-0.2-0.1-0.5-0.3-0.7-0.4
		l-1.1,1.7c1.1,0.8,2.4,1.4,3.7,1.8H8v0.1c1.4,0.5,2.9,0.7,4.5,0.7c1.6,0,3.1-0.3,4.5-0.7V19H17.2z"/>
	<path style="&st1;" d="M21.9,19.1L21.9,19.1c-1.2,0.8-2.5,1.5-3.9,1.9v0.1h-0.2c-1.7,0.6-3.5,0.9-5.3,0.9c-1.9,0-3.7-0.3-5.3-0.9H7
		V21c-1.4-0.5-2.7-1.1-3.9-1.9h0L2,20.7C5,22.8,8.6,24,12.5,24c3.9,0,7.5-1.2,10.5-3.3L21.9,19.1z"/>
	<polygon style="&st1;" points="11,12 14,12 14,8 15,8 15,11 16,11 16,7 14,6 11,6 9,7 9,11 10,11 10,8 11,8 	"/>
	<path style="&st1;" d="M12.9,5h-0.8C11.5,5,11,4.5,11,3.9V3.1C11,2.5,11.5,2,12.1,2h0.8C13.5,2,14,2.5,14,3.1v0.8
		C14,4.5,13.5,5,12.9,5z"/>
</g>
<g style="&st2;">
	<path style="&st1;" d="M16.5,11c-1.4,1-3.2,1.6-5.1,1.6c-1.9,0-3.6-0.6-5-1.6l-1.1,1.7c0.1,0.1,0.3,0.2,0.4,0.3H6v0.2
		c0.5,0.3,1.1,0.6,1.7,0.8H8v0.1c1.1,0.4,2.2,0.6,3.4,0.6c1.3,0,2.5-0.2,3.6-0.6v0h0.1c0.7-0.2,1.3-0.5,1.9-0.9V13h0.2
		c0.1-0.1,0.3-0.2,0.4-0.3L16.5,11z"/>
	<path style="&st1;" d="M16.2,18c1.3-0.4,2.6-1.1,3.7-1.8l-1.1-1.7c-0.2,0.2-0.5,0.3-0.7,0.5V15h-0.1c-0.6,0.3-1.2,0.6-1.9,0.9V16
		h-0.3c-1.3,0.5-2.7,0.7-4.2,0.7c-1.5,0-2.9-0.3-4.2-0.7H7v-0.1c-0.6-0.2-1.3-0.6-1.9-0.9H5v0v-0.1c-0.2-0.1-0.5-0.3-0.7-0.4
		l-1.1,1.7c1.1,0.8,2.4,1.4,3.7,1.8H7v0.1c1.4,0.5,2.9,0.7,4.5,0.7c1.6,0,3.1-0.3,4.5-0.7V18H16.2z"/>
	<path style="&st1;" d="M20.9,18.1L20.9,18.1c-1.2,0.8-2.5,1.5-3.9,1.9v0.1h-0.2c-1.7,0.6-3.5,0.9-5.3,0.9c-1.9,0-3.7-0.3-5.3-0.9H6
		V20c-1.4-0.5-2.7-1.1-3.9-1.9h0L1,19.7C4,21.8,7.6,23,11.5,23c3.9,0,7.5-1.2,10.5-3.3L20.9,18.1z"/>
	<polygon style="&st1;" points="10,11 13,11 13,7 14,7 14,10 15,10 15,6 13,5 10,5 8,6 8,10 9,10 9,7 10,7 	"/>
	<path style="&st1;" d="M11.9,4h-0.8C10.5,4,10,3.5,10,2.9V2.1C10,1.5,10.5,1,11.1,1h0.8C12.5,1,13,1.5,13,2.1v0.8
		C13,3.5,12.5,4,11.9,4z"/>
</g>
<g>
	<path style="&st1;" d="M15.5,10c-1.4,1-3.2,1.6-5.1,1.6c-1.9,0-3.6-0.6-5-1.6l-1.1,1.7c0.1,0.1,0.3,0.2,0.4,0.3H5v0.2
		c0.5,0.3,1.1,0.6,1.7,0.8H7v0.1c1.1,0.4,2.2,0.6,3.4,0.6c1.3,0,2.5-0.2,3.6-0.6v0h0.1c0.7-0.2,1.3-0.5,1.9-0.9V12h0.2
		c0.1-0.1,0.3-0.2,0.4-0.3L15.5,10z"/>
	<path style="&st1;" d="M15.2,17c1.3-0.4,2.6-1.1,3.7-1.8l-1.1-1.7c-0.2,0.2-0.5,0.3-0.7,0.5V14h-0.1c-0.6,0.3-1.2,0.6-1.9,0.9V15
		h-0.3c-1.3,0.5-2.7,0.7-4.2,0.7c-1.5,0-2.9-0.3-4.2-0.7H6v-0.1c-0.6-0.2-1.3-0.6-1.9-0.9H4v0v-0.1c-0.2-0.1-0.5-0.3-0.7-0.4
		l-1.1,1.7c1.1,0.8,2.4,1.4,3.7,1.8H6v0.1c1.4,0.5,2.9,0.7,4.5,0.7c1.6,0,3.1-0.3,4.5-0.7V17H15.2z"/>
	<path style="&st1;" d="M19.9,17.1L19.9,17.1c-1.2,0.8-2.5,1.5-3.9,1.9v0.1h-0.2c-1.7,0.6-3.5,0.9-5.3,0.9c-1.9,0-3.7-0.3-5.3-0.9H5
		V19c-1.4-0.5-2.7-1.1-3.9-1.9h0L0,18.7C3,20.8,6.6,22,10.5,22c3.9,0,7.5-1.2,10.5-3.3L19.9,17.1z"/>
	<polygon style="&st1;" points="9,10 12,10 12,6 13,6 13,9 14,9 14,5 12,4 9,4 7,5 7,9 8,9 8,6 9,6 	"/>
	<path style="&st1;" d="M10.9,3h-0.8C9.5,3,9,2.5,9,1.9V1.1C9,0.5,9.5,0,10.1,0h0.8C11.5,0,12,0.5,12,1.1v0.8C12,2.5,11.5,3,10.9,3z
		"/>
</g>
</svg>
