<?xml version="1.0" encoding="utf-8"?>
<!-- Generator: Adobe Illustrator 18.1.1, SVG Export Plug-In . SVG Version: 6.00 Build 0)  -->
<svg version="1.1" xmlns="http://www.w3.org/2000/svg" xmlns:xlink="http://www.w3.org/1999/xlink" x="0px" y="0px"
	 viewBox="0 0 12 12" enable-background="new 0 0 12 12" xml:space="preserve">
<g id="shadows">
	<g opacity="0.2">
		<path d="M8.4,7C7.7,7.5,6.9,7.7,6,7.7c-0.9,0-1.7-0.2-2.4-0.7L3.1,7.8C3.9,8.3,4.9,8.6,6,8.6c1.1,0,2.1-0.3,2.9-0.8L8.4,7z"/>
		<path d="M9.1,8.7C8.2,9.3,7.1,9.6,6,9.6c-1.1,0-2.2-0.3-3-0.9L2.5,9.4c1,0.7,2.2,1.1,3.5,1.1c1.3,0,2.5-0.4,3.5-1.1L9.1,8.7z"/>
		<polygon points="4.4,4.1 3.8,4.7 3.8,6 4.4,6 4.4,4.7 5,4.7 5,6.6 7,6.6 7,4.7 7.6,4.7 7.6,6 8.3,6 8.3,4.7 7.6,4.1 		"/>
		<path d="M6,3.4L6,3.4c-0.5,0-1-0.4-1-1s0.4-1,1-1s1,0.4,1,1S6.5,3.4,6,3.4z"/>
	</g>
</g>
<g id="icons">
	<g>
		<path fill="#FFFFFF" d="M7.9,6.5C7.2,7,6.4,7.2,5.5,7.2C4.6,7.2,3.8,7,3.1,6.6L2.6,7.3c0.8,0.5,1.8,0.8,2.9,0.8
			c1.1,0,2.1-0.3,2.9-0.8L7.9,6.5z"/>
		<path fill="#FFFFFF" d="M8.6,8.2C7.7,8.8,6.6,9.1,5.5,9.1c-1.1,0-2.2-0.3-3-0.9L2,8.9C3,9.6,4.2,10,5.5,10C6.8,10,8,9.6,9,8.9
			L8.6,8.2z"/>
		<polygon fill="#FFFFFF" points="3.9,3.6 3.3,4.2 3.3,5.5 3.9,5.5 3.9,4.2 4.5,4.2 4.5,6.1 6.5,6.1 6.5,4.2 7.1,4.2 7.1,5.5 
			7.8,5.5 7.8,4.2 7.1,3.6 		"/>
		<path fill="#FFFFFF" d="M5.5,2.9L5.5,2.9c-0.5,0-1-0.4-1-1s0.4-1,1-1s1,0.4,1,1S6,2.9,5.5,2.9z"/>
	</g>
</g>
<g id="guides">
</g>
</svg>
