<?xml version="1.0" encoding="UTF-8" standalone="no"?>
<!-- Created with Inkscape (http://www.inkscape.org/) -->

<svg
   xmlns:dc="http://purl.org/dc/elements/1.1/"
   xmlns:cc="http://creativecommons.org/ns#"
   xmlns:rdf="http://www.w3.org/1999/02/22-rdf-syntax-ns#"
   xmlns:svg="http://www.w3.org/2000/svg"
   xmlns="http://www.w3.org/2000/svg"
   version="1.1"
   width="24"
   height="24"
   id="svg4460">
  <defs
     id="defs4462" />
  <metadata
     id="metadata4465">
    <rdf:RDF>
      <cc:Work
         rdf:about="">
        <dc:format>image/svg+xml</dc:format>
        <dc:type
           rdf:resource="http://purl.org/dc/dcmitype/StillImage" />
        <dc:title></dc:title>
      </cc:Work>
    </rdf:RDF>
  </metadata>
  <g
     transform="translate(0,-1028.3622)"
     id="layer1">
    <g
       transform="translate(-318,-262)"
       id="art-gallery-24"
       style="display:inline">
      <g
         id="g6548">
        <path
           d="m 449,244 c -5,0 -8,4 -8,6 0,2 1,3.5 3,3.5 2,0 3,0.5 3,2 0,2 1.5,3.5 3.5,3.5 6.5,0 9.5,-3.5 9.5,-7 0,-6 -5,-8 -11,-8 z m -1.25,2 c 0.69034,0 1.25,0.55966 1.25,1.25 0,0.69034 -0.55966,1.25 -1.25,1.25 -0.69034,0 -1.25,-0.55966 -1.25,-1.25 0,-0.69034 0.55966,-1.25 1.25,-1.25 z m 4,0 c 0.69033,0 1.25,0.55967 1.25,1.25 0,0.69033 -0.55967,1.25 -1.25,1.25 -0.69033,0 -1.25,-0.55967 -1.25,-1.25 0,-0.69033 0.55967,-1.25 1.25,-1.25 z m 4,2 c 0.69034,0 1.25,0.55966 1.25,1.25 0,0.69034 -0.55966,1.25 -1.25,1.25 -0.69034,0 -1.25,-0.55966 -1.25,-1.25 0,-0.69034 0.55966,-1.25 1.25,-1.25 z m -11.5,1 c 0.69034,0 1.25,0.55966 1.25,1.25 0,0.69034 -0.55966,1.25 -1.25,1.25 -0.69034,0 -1.25,-0.55966 -1.25,-1.25 0,-0.69034 0.55966,-1.25 1.25,-1.25 z m 6.25,5 c 0.82843,0 1.5,0.67157 1.5,1.5 0,0.82843 -0.67157,1.5 -1.5,1.5 -0.82843,0 -1.5,-0.67157 -1.5,-1.5 0,-0.82843 0.67157,-1.5 1.5,-1.5 z"
           transform="translate(-120,1050.3622)"
           id="path3190"
           style="opacity:0.3;color:#000000;fill:#ffffff;fill-opacity:1;fill-rule:nonzero;stroke:#ffffff;stroke-width:2;stroke-linecap:round;stroke-linejoin:round;stroke-miterlimit:4;stroke-opacity:1;stroke-dasharray:none;stroke-dashoffset:0;marker:none;visibility:visible;display:inline;overflow:visible;enable-background:accumulate" />
        <path
           d="m 449,244 c -5,0 -8,4 -8,6 0,2 1,3.5 3,3.5 2,0 3,0.5 3,2 0,2 1.5,3.5 3.5,3.5 6.5,0 9.5,-3.5 9.5,-7 0,-6 -5,-8 -11,-8 z m -1.25,2 c 0.69034,0 1.25,0.55966 1.25,1.25 0,0.69034 -0.55966,1.25 -1.25,1.25 -0.69034,0 -1.25,-0.55966 -1.25,-1.25 0,-0.69034 0.55966,-1.25 1.25,-1.25 z m 4,0 c 0.69033,0 1.25,0.55967 1.25,1.25 0,0.69033 -0.55967,1.25 -1.25,1.25 -0.69033,0 -1.25,-0.55967 -1.25,-1.25 0,-0.69033 0.55967,-1.25 1.25,-1.25 z m 4,2 c 0.69034,0 1.25,0.55966 1.25,1.25 0,0.69034 -0.55966,1.25 -1.25,1.25 -0.69034,0 -1.25,-0.55966 -1.25,-1.25 0,-0.69034 0.55966,-1.25 1.25,-1.25 z m -11.5,1 c 0.69034,0 1.25,0.55966 1.25,1.25 0,0.69034 -0.55966,1.25 -1.25,1.25 -0.69034,0 -1.25,-0.55966 -1.25,-1.25 0,-0.69034 0.55966,-1.25 1.25,-1.25 z m 6.25,5 c 0.82843,0 1.5,0.67157 1.5,1.5 0,0.82843 -0.67157,1.5 -1.5,1.5 -0.82843,0 -1.5,-0.67157 -1.5,-1.5 0,-0.82843 0.67157,-1.5 1.5,-1.5 z"
           transform="translate(-120,1050.3622)"
           id="path6511"
           style="color:#000000;fill:#444444;fill-opacity:1;stroke:none;stroke-width:0.9999997;marker:none;visibility:visible;display:inline;overflow:visible;enable-background:accumulate" />
      </g>
    </g>
  </g>
  <rect
     width="24"
     height="24"
     x="0"
     y="0"
     id="canvas"
     style="fill:none;stroke:none;visibility:hidden" />
</svg>
