<?xml version="1.0" encoding="utf-8"?>
<!-- Generator: Adobe Illustrator 18.1.1, SVG Export Plug-In . SVG Version: 6.00 Build 0)  -->
<svg version="1.1" xmlns="http://www.w3.org/2000/svg" xmlns:xlink="http://www.w3.org/1999/xlink" x="0px" y="0px"
	 viewBox="0 0 12 12" enable-background="new 0 0 12 12" xml:space="preserve">
<g id="shadows-text-objects" display="none">
	<text transform="matrix(1 0 0 1 3.2505 9.142)" display="inline" opacity="0.2" font-family="'FrutigerLTStd-Bold'" font-size="9">B</text>
</g>
<g id="letters-text-objects" display="none">
	<text transform="matrix(1 0 0 1 2.7505 8.6418)" display="inline" font-family="'FrutigerLTStd-Bold'" font-size="9">B</text>
</g>
<g id="shadows-outlines">
	<g opacity="0.2">
		<path d="M3.979,2.858h2.197c0.81,0,2.025,0.233,2.025,1.61c0,0.748-0.504,1.27-1.252,1.405v0.018
			c0.855,0.081,1.44,0.657,1.44,1.432c0,1.584-1.422,1.818-2.214,1.818H3.979V2.858z M5.24,5.396h0.514
			c0.53,0,1.188-0.117,1.188-0.766c0-0.729-0.639-0.782-1.215-0.782H5.24V5.396z M5.24,8.151h0.595c0.585,0,1.296-0.145,1.296-0.873
			c0-0.819-0.666-0.945-1.296-0.945H5.24V8.151z"/>
	</g>
</g>
<g id="letters-outlines">
	<g>
		<path d="M3.498,2.358h1.701c1.306,0,2.206,0.423,2.206,1.584c0,0.864-0.505,1.296-1.297,1.494v0.019
			c0.855,0.071,1.459,0.63,1.459,1.512c0,1.351-1.117,1.675-2.396,1.675H3.498V2.358z M4.398,5.041h0.494
			c0.874,0,1.612-0.081,1.612-1.009c0-0.747-0.64-0.937-1.161-0.937H4.398V5.041z M4.398,7.903h0.675
			c0.81,0,1.539-0.171,1.539-1.018c0-0.972-0.854-1.107-1.629-1.107H4.398V7.903z"/>
	</g>
	<g>
		<path d="M3.479,2.358h2.196c0.811,0,2.026,0.233,2.026,1.61c0,0.748-0.504,1.27-1.252,1.405v0.018
			c0.855,0.081,1.44,0.657,1.44,1.432c0,1.584-1.422,1.818-2.215,1.818H3.479V2.358z M4.74,4.896h0.514
			c0.53,0,1.188-0.117,1.188-0.766c0-0.729-0.639-0.782-1.215-0.782H4.74V4.896z M4.74,7.651h0.594c0.586,0,1.297-0.145,1.297-0.873
			c0-0.819-0.666-0.945-1.297-0.945H4.74V7.651z"/>
	</g>
</g>
<g id="guides_and_set-up" display="none">
</g>
</svg>
