<?xml version="1.0" encoding="utf-8"?>
<!-- Generator: Adobe Illustrator 18.1.1, SVG Export Plug-In . SVG Version: 6.00 Build 0)  -->
<svg version="1.1" xmlns="http://www.w3.org/2000/svg" xmlns:xlink="http://www.w3.org/1999/xlink" x="0px" y="0px"
	 viewBox="0 0 18 18" enable-background="new 0 0 18 18" xml:space="preserve">
<g id="shadows-text-objects" display="none">
	
		<text transform="matrix(1 0 0 1 6.2781 13.7503)" display="inline" opacity="0.2" font-family="'FrutigerLTStd-Roman'" font-size="13">B</text>
</g>
<g id="letters-text-objects" display="none">
	
		<text transform="matrix(1 0 0 1 5.5283 13.0002)" display="inline" fill="#FFFFFF" font-family="'FrutigerLTStd-Roman'" font-size="13">B</text>
</g>
<g id="shadows-outlines">
	<g opacity="0.2">
		<path d="M7.357,4.676h2.457C11.699,4.676,13,5.287,13,6.964c0,1.248-0.729,1.872-1.872,2.158v0.025
			c1.234,0.104,2.105,0.91,2.105,2.185c0,1.95-1.612,2.418-3.458,2.418H7.357V4.676z M8.657,8.55h0.715
			c1.261,0,2.327-0.117,2.327-1.456c0-1.079-0.923-1.352-1.677-1.352H8.657V8.55z M8.657,12.684h0.975
			c1.171,0,2.224-0.247,2.224-1.469c0-1.404-1.235-1.599-2.354-1.599H8.657V12.684z"/>
	</g>
</g>
<g id="letters-outlines">
	<g>
		<path fill="#FFFFFF" d="M6.607,3.926h2.457c1.885,0,3.186,0.611,3.186,2.288c0,1.248-0.729,1.872-1.872,2.158v0.025
			c1.234,0.104,2.105,0.91,2.105,2.185c0,1.95-1.612,2.418-3.458,2.418H6.607V3.926z M7.907,7.8h0.716
			c1.26,0,2.326-0.117,2.326-1.456c0-1.079-0.923-1.352-1.677-1.352H7.907V7.8z M7.907,11.934h0.976c1.17,0,2.223-0.247,2.223-1.469
			c0-1.404-1.234-1.599-2.354-1.599H7.907V11.934z"/>
	</g>
</g>
<g id="guides_and_set-up" display="none">
</g>
</svg>
