<?xml version="1.0" encoding="utf-8"?>
<!-- Generator: Adobe Illustrator 18.1.1, SVG Export Plug-In . SVG Version: 6.00 Build 0)  -->
<svg version="1.1" xmlns="http://www.w3.org/2000/svg" xmlns:xlink="http://www.w3.org/1999/xlink" x="0px" y="0px"
	 viewBox="0 0 24 24" enable-background="new 0 0 24 24" xml:space="preserve">
<g id="shadows-text-objects" display="none">
	
		<text transform="matrix(1 0 0 1 8.3066 18.4326)" display="inline" opacity="0.2" font-family="'FrutigerLTStd-Bold'" font-size="17">B</text>
</g>
<g id="letters-text-objects" display="none">
	
		<text transform="matrix(1 0 0 1 7.3066 17.4329)" display="inline" fill="#FFFFFF" font-family="'FrutigerLTStd-Bold'" font-size="17">B</text>
</g>
<g id="shadows-outlines">
	<g opacity="0.2">
		<path d="M9.684,6.568h4.147c1.53,0,3.824,0.441,3.824,3.042c0,1.411-0.951,2.397-2.362,2.651v0.035
			c1.615,0.152,2.72,1.24,2.72,2.702c0,2.991-2.686,3.434-4.182,3.434H9.684V6.568z M12.063,11.361h0.969
			c1.003,0,2.244-0.221,2.244-1.445c0-1.377-1.207-1.479-2.296-1.479h-0.917V11.361z M12.063,16.562h1.121
			c1.105,0,2.448-0.271,2.448-1.648c0-1.547-1.258-1.785-2.448-1.785h-1.121V16.562z"/>
	</g>
</g>
<g id="letters-outlines">
	<g>
		<path fill="#FFFFFF" d="M8.717,5.568h3.213c2.465,0,4.165,0.799,4.165,2.991c0,1.632-0.952,2.448-2.447,2.822v0.033
			c1.614,0.137,2.753,1.19,2.753,2.855c0,2.55-2.107,3.162-4.521,3.162H8.717V5.568z M10.418,10.634h0.934
			c1.649,0,3.043-0.153,3.043-1.904c0-1.41-1.206-1.768-2.192-1.768h-1.784V10.634z M10.418,16.039h1.274
			c1.529,0,2.906-0.323,2.906-1.921c0-1.836-1.614-2.091-3.076-2.091h-1.104V16.039z"/>
	</g>
	<g>
		<path fill="#FFFFFF" d="M8.684,5.568h4.147c1.53,0,3.824,0.441,3.824,3.042c0,1.411-0.951,2.397-2.362,2.652v0.034
			c1.615,0.152,2.72,1.24,2.72,2.702c0,2.991-2.686,3.434-4.182,3.434H8.684V5.568z M11.063,10.361h0.969
			c1.003,0,2.244-0.221,2.244-1.444c0-1.377-1.207-1.479-2.296-1.479h-0.917V10.361z M11.063,15.562h1.122
			c1.104,0,2.447-0.271,2.447-1.648c0-1.547-1.258-1.785-2.447-1.785h-1.122V15.562z"/>
	</g>
</g>
<g id="guides_and_set-up" display="none">
</g>
</svg>
