<?xml version="1.0" encoding="utf-8"?>
<!-- Generator: Adobe Illustrator 18.1.1, SVG Export Plug-In . SVG Version: 6.00 Build 0)  -->
<svg version="1.1" xmlns="http://www.w3.org/2000/svg" xmlns:xlink="http://www.w3.org/1999/xlink" x="0px" y="0px"
	 viewBox="0 0 12 12" enable-background="new 0 0 12 12" xml:space="preserve">
<g id="shadows-text-objects" display="none">
	
		<text transform="matrix(1 0 0 1 2.7505 9.142)" display="inline" opacity="0.2" font-family="'FrutigerLTStd-Roman'" font-size="9">B</text>
</g>
<g id="letters-text-objects" display="none">
	
		<text transform="matrix(1 0 0 1 2.2505 8.6418)" display="inline" fill="#FFFFFF" font-family="'FrutigerLTStd-Roman'" font-size="9">B</text>
</g>
<g id="shadows-outlines">
	<g opacity="0.2">
		<path d="M3.498,2.858h1.701c1.306,0,2.206,0.423,2.206,1.584c0,0.864-0.505,1.296-1.297,1.494v0.019
			c0.855,0.071,1.459,0.63,1.459,1.512c0,1.351-1.117,1.675-2.395,1.675H3.498V2.858z M4.398,5.541h0.495
			c0.873,0,1.611-0.081,1.611-1.009c0-0.747-0.64-0.937-1.161-0.937H4.398V5.541z M4.398,8.403h0.675
			c0.811,0,1.539-0.171,1.539-1.018c0-0.972-0.854-1.107-1.629-1.107H4.398V8.403z"/>
	</g>
</g>
<g id="letters-outlines">
	<g>
		<path fill="#FFFFFF" d="M2.998,2.358h1.701c1.306,0,2.206,0.423,2.206,1.584c0,0.864-0.505,1.296-1.297,1.494v0.019
			c0.855,0.071,1.459,0.63,1.459,1.512c0,1.351-1.117,1.675-2.396,1.675H2.998V2.358z M3.898,5.041h0.494
			c0.874,0,1.612-0.081,1.612-1.009c0-0.747-0.64-0.937-1.161-0.937H3.898V5.041z M3.898,7.903h0.675
			c0.81,0,1.539-0.171,1.539-1.018c0-0.972-0.854-1.107-1.629-1.107H3.898V7.903z"/>
	</g>
</g>
<g id="guides_and_set-up" display="none">
</g>
</svg>
