<?xml version="1.0" encoding="utf-8"?>
<!-- Generator: Adobe Illustrator 18.1.1, SVG Export Plug-In . SVG Version: 6.00 Build 0)  -->
<svg version="1.1" xmlns="http://www.w3.org/2000/svg" xmlns:xlink="http://www.w3.org/1999/xlink" x="0px" y="0px"
	 viewBox="0 0 24 24" enable-background="new 0 0 24 24" xml:space="preserve">
<g id="shadows-text-objects" display="none">
	
		<text transform="matrix(1 0 0 1 8.3066 18.4326)" display="inline" opacity="0.2" font-family="'FrutigerLTStd-Roman'" font-size="17">B</text>
</g>
<g id="letters-text-objects" display="none">
	
		<text transform="matrix(1 0 0 1 7.3066 17.4329)" display="inline" fill="#FFFFFF" font-family="'FrutigerLTStd-Roman'" font-size="17">B</text>
</g>
<g id="shadows-outlines">
	<g opacity="0.2">
		<path d="M9.717,6.568h3.213c2.465,0,4.165,0.799,4.165,2.991c0,1.632-0.952,2.448-2.447,2.822v0.033
			c1.614,0.137,2.753,1.19,2.753,2.855c0,2.55-2.107,3.162-4.521,3.162H9.717V6.568z M11.417,11.634h0.935
			c1.649,0,3.043-0.153,3.043-1.904c0-1.41-1.206-1.768-2.192-1.768h-1.785V11.634z M11.417,17.039h1.275
			c1.529,0,2.906-0.323,2.906-1.921c0-1.836-1.615-2.091-3.076-2.091h-1.105V17.039z"/>
	</g>
</g>
<g id="letters-outlines">
	<g>
		<path fill="#FFFFFF" d="M8.717,5.568h3.213c2.465,0,4.165,0.799,4.165,2.991c0,1.632-0.952,2.448-2.447,2.822v0.033
			c1.614,0.137,2.753,1.19,2.753,2.855c0,2.55-2.107,3.162-4.521,3.162H8.717V5.568z M10.418,10.634h0.934
			c1.649,0,3.043-0.153,3.043-1.904c0-1.41-1.206-1.768-2.192-1.768h-1.784V10.634z M10.418,16.039h1.274
			c1.529,0,2.906-0.323,2.906-1.921c0-1.836-1.614-2.091-3.076-2.091h-1.104V16.039z"/>
	</g>
</g>
<g id="guides_and_set-up" display="none">
</g>
</svg>
