<?xml version="1.0" encoding="UTF-8" standalone="no"?>
<!-- Created with Inkscape (http://www.inkscape.org/) -->

<svg
   xmlns:dc="http://purl.org/dc/elements/1.1/"
   xmlns:cc="http://creativecommons.org/ns#"
   xmlns:rdf="http://www.w3.org/1999/02/22-rdf-syntax-ns#"
   xmlns:svg="http://www.w3.org/2000/svg"
   xmlns="http://www.w3.org/2000/svg"
   xmlns:inkscape="http://www.inkscape.org/namespaces/inkscape"
   version="1.1"
   width="18"
   height="18"
   id="svg4619">
  <defs
     id="defs4621" />
  <metadata
     id="metadata4624">
    <rdf:RDF>
      <cc:Work
         rdf:about="">
        <dc:format>image/svg+xml</dc:format>
        <dc:type
           rdf:resource="http://purl.org/dc/dcmitype/StillImage" />
        <dc:title />
      </cc:Work>
    </rdf:RDF>
  </metadata>
  <g
     transform="translate(0,-1034.3622)"
     id="layer1"
     style="display:inline">
    <g
       id="g6407">
      <path
         d="m 9.0000005,1040.3622 c -0.9999998,0 -1.5,0.5 -1.5,1.5 l 0.9999997,4 0.5000003,0.5 0.9999995,0 0.500001,-0.5 0.999999,-4 c 0,-1 -0.5,-1.5 -1.5,-1.5 z m -2.5000005,1.5 -1.9999998,1 1.4999997,3.5 1.0000003,0 0.4999995,-0.5 z m 6,0 -1,4 0.5,0.5 1,0 1.5,-3.5 z m -8.5,2 -0.5,0.5 -0.5000001,1.5 0,1.5 0.5000001,0 1.5,-1 z m 11,0 -1,2.5 1,1 1,0 0,-1.5 -0.5,-1.5 z"
         inkscape:connector-curvature="0"
         id="path6366"
         style="opacity:0.3;color:#000000;fill:none;stroke:#ffffff;stroke-width:2;stroke-miterlimit:4;stroke-opacity:1;stroke-dasharray:none;marker:none;visibility:visible;display:inline;overflow:visible;enable-background:accumulate" />
      <path
         d="m 9.0000005,1040.3622 c -0.9999997,0 -1.5,0.5 -1.5,1.5 l 0.9999997,4 0.5000003,0.5 0.9999995,0 0.500001,-0.5 0.999999,-4 c 0,-1 -0.5,-1.5 -1.5,-1.5 z m -2.5000005,1.5 -1.9999997,1 1.4999997,3.5 1.0000002,0 0.4999996,-0.5 z m 6,0 -1,4 0.5,0.5 1,0 1.5,-3.5 z m -8.5,2 -0.5,0.5 -0.5,1.5 0,1.5 0.5,0 1.5,-1 z m 11,0 -1,2.5 1,1 1,0 0,-1.5 -0.5,-1.5 z"
         inkscape:connector-curvature="0"
         id="path5230"
         style="color:#000000;fill:#444444;fill-opacity:1;fill-rule:nonzero;stroke:none;stroke-width:0;marker:none;visibility:visible;display:inline;overflow:visible;enable-background:accumulate" />
    </g>
  </g>
  <rect
     width="18"
     height="18"
     x="0"
     y="0"
     id="canvas"
     style="fill:none;stroke:none;visibility:hidden" />
</svg>
