<?xml version="1.0" encoding="UTF-8" standalone="no"?>
<!-- Created with Inkscape (http://www.inkscape.org/) -->

<svg
   xmlns:dc="http://purl.org/dc/elements/1.1/"
   xmlns:cc="http://creativecommons.org/ns#"
   xmlns:rdf="http://www.w3.org/1999/02/22-rdf-syntax-ns#"
   xmlns:svg="http://www.w3.org/2000/svg"
   xmlns="http://www.w3.org/2000/svg"
   xmlns:sodipodi="http://sodipodi.sourceforge.net/DTD/sodipodi-0.dtd"
   xmlns:inkscape="http://www.inkscape.org/namespaces/inkscape"
   width="12"
   height="12"
   id="svg4764"
   version="1.1"
   inkscape:version="0.48.2 r9819"
   sodipodi:docname="bakery-12.svg">
  <defs
     id="defs4766" />
  <sodipodi:namedview
     id="base"
     pagecolor="#ffffff"
     bordercolor="#666666"
     borderopacity="1.0"
     inkscape:pageopacity="0.0"
     inkscape:pageshadow="2"
     inkscape:zoom="88"
     inkscape:cx="6.4310792"
     inkscape:cy="6.4512666"
     inkscape:document-units="px"
     inkscape:current-layer="g4256"
     showgrid="true"
     showguides="true"
     inkscape:guide-bbox="true"
     inkscape:window-width="1920"
     inkscape:window-height="1032"
     inkscape:window-x="0"
     inkscape:window-y="22"
     inkscape:window-maximized="1">
    <inkscape:grid
       type="xygrid"
       id="grid4772"
       empspacing="5"
       visible="true"
       enabled="true"
       snapvisiblegridlinesonly="true"
       spacingx="0.5px"
       spacingy="0.5px" />
    <sodipodi:guide
       orientation="0,1"
       position="2,12"
       id="guide4789" />
    <sodipodi:guide
       orientation="1,0"
       position="12,10"
       id="guide4791" />
    <sodipodi:guide
       orientation="0,1"
       position="10,0"
       id="guide4793" />
    <sodipodi:guide
       orientation="1,0"
       position="0,9"
       id="guide4795" />
    <sodipodi:guide
       orientation="0,1"
       position="5,11"
       id="guide4797" />
    <sodipodi:guide
       orientation="1,0"
       position="11,7"
       id="guide4799" />
    <sodipodi:guide
       orientation="0,1"
       position="9,2"
       id="guide4801" />
    <sodipodi:guide
       orientation="1,0"
       position="2,5"
       id="guide4803" />
  </sodipodi:namedview>
  <metadata
     id="metadata4769">
    <rdf:RDF>
      <cc:Work
         rdf:about="">
        <dc:format>image/svg+xml</dc:format>
        <dc:type
           rdf:resource="http://purl.org/dc/dcmitype/StillImage" />
        <dc:title />
      </cc:Work>
    </rdf:RDF>
  </metadata>
  <g
     inkscape:label="bakery"
     inkscape:groupmode="layer"
     id="layer1"
     transform="translate(0,-1040.3622)"
     style="display:inline">
    <g
       transform="matrix(0.45000001,0,0,0.45000001,0.64999977,1037.3372)"
       style="display:inline"
       id="g4256">
      <g
         id="g4180"
         style="stroke:#ffffff;stroke-opacity:1;stroke-width:4.44444435000000038;stroke-miterlimit:4;stroke-dasharray:none;opacity:0.5">
        <path
           style="color:#000000;fill:#444444;fill-opacity:1;fill-rule:nonzero;stroke:#ffffff;stroke-width:4.44444435000000038;stroke-miterlimit:4;stroke-opacity:1;stroke-dasharray:none;marker:none;visibility:visible;display:inline;overflow:visible;enable-background:accumulate;stroke-linecap:butt;stroke-linejoin:miter;stroke-dashoffset:0"
           d="m 9.666667,16.722222 1.111111,5.555555 c 0,0 0,1.111111 1.111111,1.111111 l 2.222222,0 c 1.111111,0 1.111111,-1.111111 1.111111,-1.111111 l 1.111111,-5.555555 c 0,-1.5 -0.722222,-2.222222 -2.222222,-2.222222 -0.1288,0 -1.722222,0 -2.222222,0 -1.5,0 -2.222222,0.722222 -2.222222,2.222222 z m 8.888889,1.111111 c -1,0 -1.111111,1.111111 -1.111111,1.111111 l -1.111112,3.333333 c 0,0.5 0,1.111111 0,1.111111 l 2.222223,0 c 0,0 1.390995,-2.964455 2.222222,-4.444444 0,-1.111111 -1.222222,-1.111111 -1.222222,-1.111111 z m 1.111111,5.555555 c 0,0 0,1.111111 1.111111,1.111111 l 1.111111,0 c 0,0 1.111111,0 1.111111,-1.111111 l 0,-2.222222 c 0,-1.111111 -1.111111,-1.111111 -1.111111,-1.111111 z"
           id="path4182"
           inkscape:connector-curvature="0"
           sodipodi:nodetypes="ccsscccccsccccccscsccccc" />
        <path
           sodipodi:nodetypes="sccccccscsccccc"
           inkscape:connector-curvature="0"
           id="path4184"
           d="m 7.4444448,17.833333 c 1,0 1.111111,1.111111 1.111111,1.111111 l 1.111112,3.333333 c 0,0.5 0,1.111111 0,1.111111 l -2.222223,0 c 0,0 -1.390995,-2.964455 -2.2222223,-4.444444 0,-1.111111 1.2222223,-1.111111 1.2222223,-1.111111 z m -1.111111,5.555555 c 0,0 0,1.111111 -1.1111113,1.111111 l -1.111111,0 c 0,0 -1.111111,0 -1.111111,-1.111111 l 0,-2.222222 c 0,-1.111111 1.111111,-1.111111 1.111111,-1.111111 z"
           style="color:#000000;fill:#444444;fill-opacity:1;fill-rule:nonzero;stroke:#ffffff;stroke-width:4.44444435000000038;stroke-linecap:butt;stroke-linejoin:miter;stroke-miterlimit:4;stroke-opacity:1;stroke-dasharray:none;stroke-dashoffset:0;marker:none;visibility:visible;display:inline;overflow:visible;enable-background:accumulate" />
      </g>
      <g
         id="g4176">
        <path
           sodipodi:nodetypes="ccsscccccsccccccscsccccc"
           inkscape:connector-curvature="0"
           id="path3146"
           d="m 9.666667,16.722222 1.111111,5.555555 c 0,0 0,1.111111 1.111111,1.111111 l 2.222222,0 c 1.111111,0 1.111111,-1.111111 1.111111,-1.111111 l 1.111111,-5.555555 c 0,-1.5 -0.722222,-2.222222 -2.222222,-2.222222 -0.1288,0 -1.722222,0 -2.222222,0 -1.5,0 -2.222222,0.722222 -2.222222,2.222222 z m 8.888889,1.111111 c -1,0 -1.111111,1.111111 -1.111111,1.111111 l -1.111112,3.333333 c 0,0.5 0,1.111111 0,1.111111 l 2.222223,0 c 0,0 1.390995,-2.964455 2.222222,-4.444444 0,-1.111111 -1.222222,-1.111111 -1.222222,-1.111111 z m 1.111111,5.555555 c 0,0 0,1.111111 1.111111,1.111111 l 1.111111,0 c 0,0 1.111111,0 1.111111,-1.111111 l 0,-2.222222 c 0,-1.111111 -1.111111,-1.111111 -1.111111,-1.111111 z"
           style="color:#000000;fill:#444444;fill-opacity:1;fill-rule:nonzero;stroke:#ffffff;stroke-width:0;stroke-miterlimit:4;stroke-opacity:1;stroke-dasharray:none;marker:none;visibility:visible;display:inline;overflow:visible;enable-background:accumulate;stroke-linecap:butt;stroke-linejoin:miter;stroke-dashoffset:0" />
        <path
           style="color:#000000;fill:#444444;fill-opacity:1;fill-rule:nonzero;stroke:#ffffff;stroke-width:0;stroke-linecap:butt;stroke-linejoin:miter;stroke-miterlimit:4;stroke-opacity:1;stroke-dasharray:none;stroke-dashoffset:0;marker:none;visibility:visible;display:inline;overflow:visible;enable-background:accumulate"
           d="m 7.4444448,17.833333 c 1,0 1.111111,1.111111 1.111111,1.111111 l 1.111112,3.333333 c 0,0.5 0,1.111111 0,1.111111 l -2.222223,0 c 0,0 -1.390995,-2.964455 -2.2222223,-4.444444 0,-1.111111 1.2222223,-1.111111 1.2222223,-1.111111 z m -1.111111,5.555555 c 0,0 0,1.111111 -1.1111113,1.111111 l -1.111111,0 c 0,0 -1.111111,0 -1.111111,-1.111111 l 0,-2.222222 c 0,-1.111111 1.111111,-1.111111 1.111111,-1.111111 z"
           id="path4174"
           inkscape:connector-curvature="0"
           sodipodi:nodetypes="sccccccscsccccc" />
      </g>
    </g>
  </g>
</svg>
