<?xml version="1.0" encoding="UTF-8" standalone="no"?>
<!-- Created with Inkscape (http://www.inkscape.org/) -->

<svg
   xmlns:dc="http://purl.org/dc/elements/1.1/"
   xmlns:cc="http://creativecommons.org/ns#"
   xmlns:rdf="http://www.w3.org/1999/02/22-rdf-syntax-ns#"
   xmlns:svg="http://www.w3.org/2000/svg"
   xmlns="http://www.w3.org/2000/svg"
   xmlns:inkscape="http://www.inkscape.org/namespaces/inkscape"
   version="1.1"
   width="24"
   height="24"
   id="svg4460">
  <defs
     id="defs4462" />
  <metadata
     id="metadata4465">
    <rdf:RDF>
      <cc:Work
         rdf:about="">
        <dc:format>image/svg+xml</dc:format>
        <dc:type
           rdf:resource="http://purl.org/dc/dcmitype/StillImage" />
        <dc:title />
      </cc:Work>
    </rdf:RDF>
  </metadata>
  <g
     transform="translate(0,-1028.3622)"
     id="layer1">
    <g
       transform="translate(-318,-141.99998)"
       id="bank-24"
       style="display:inline">
      <g
         transform="translate(318,167)"
         id="g10450"
         style="display:inline">
        <path
           d="M 4,5 C 3.446,5 3,5.446 3,6 l 0,10 c 0,0.554 0.446,1 1,1 l 17,0 c 0.554,0 1,-0.446 1,-1 L 22,6 C 22,5.446 21.554,5 21,5 z m -0.5,2 18,0 0,2 -18,0 z m 0.5,6 3,0 0,2 -3,0 z m 9,1 7,0 0,1 -7,0 z"
           inkscape:connector-curvature="0"
           transform="translate(0,1004.3622)"
           id="path10415"
           style="opacity:0.3;color:#000000;fill:#444444;fill-opacity:1;fill-rule:nonzero;stroke:#ffffff;stroke-width:2;marker:none;visibility:visible;display:inline;overflow:visible;enable-background:accumulate" />
        <path
           d="M 4,5 C 3.446,5 3,5.446 3,6 l 0,10 c 0,0.554 0.446,1 1,1 l 17,0 c 0.554,0 1,-0.446 1,-1 L 22,6 C 22,5.446 21.554,5 21,5 z m -0.5,2 18,0 0,2 -18,0 z m 0.5,6 3,0 0,2 -3,0 z m 9,1 7,0 0,1 -7,0 z"
           inkscape:connector-curvature="0"
           transform="translate(0,1004.3622)"
           id="rect10401"
           style="color:#000000;fill:#444444;fill-opacity:1;fill-rule:nonzero;stroke:none;stroke-width:2;marker:none;visibility:visible;display:inline;overflow:visible;enable-background:accumulate" />
      </g>
    </g>
  </g>
  <rect
     width="24"
     height="24"
     x="0"
     y="0"
     id="canvas"
     style="fill:none;stroke:none;visibility:hidden" />
</svg>
