<?xml version="1.0" encoding="UTF-8" standalone="no"?>
<!-- Created with Inkscape (http://www.inkscape.org/) -->

<svg
   xmlns:dc="http://purl.org/dc/elements/1.1/"
   xmlns:cc="http://creativecommons.org/ns#"
   xmlns:rdf="http://www.w3.org/1999/02/22-rdf-syntax-ns#"
   xmlns:svg="http://www.w3.org/2000/svg"
   xmlns="http://www.w3.org/2000/svg"
   xmlns:inkscape="http://www.inkscape.org/namespaces/inkscape"
   version="1.1"
   width="18"
   height="18"
   id="svg4619">
  <defs
     id="defs4621" />
  <metadata
     id="metadata4624">
    <rdf:RDF>
      <cc:Work
         rdf:about="">
        <dc:format>image/svg+xml</dc:format>
        <dc:type
           rdf:resource="http://purl.org/dc/dcmitype/StillImage" />
        <dc:title />
      </cc:Work>
    </rdf:RDF>
  </metadata>
  <g
     transform="translate(0,-1034.3622)"
     id="layer1">
    <g
       transform="translate(-341.99999,-135.99998)"
       id="bank-18"
       style="display:inline">
      <g
         transform="translate(-1,-2)"
         id="g21558">
        <path
           d="m 346.72222,1177.3622 c -0.40011,0 -0.72222,0.3221 -0.72222,0.7223 l 0,6.5555 c 0,0.4001 0.32211,0.7222 0.72222,0.7222 l 11.55556,0 c 0.40011,0 0.72222,-0.3221 0.72222,-0.7222 l 0,-6.5555 c 0,-0.4002 -0.32211,-0.7223 -0.72222,-0.7223 z m -0.22222,1.5 12,0 0,1.5 -12,0 z m 0.5,4 2,0 0,1.5 -2,0 z m 6,0.7777 5,0 0,0.7223 -5,0 z"
           inkscape:connector-curvature="0"
           id="path15287"
           style="opacity:0.3;color:#000000;fill:#444444;fill-opacity:1;fill-rule:nonzero;stroke:#ffffff;stroke-width:2;stroke-linecap:butt;stroke-linejoin:miter;stroke-miterlimit:4;stroke-opacity:1;stroke-dasharray:none;stroke-dashoffset:0;marker:none;visibility:visible;display:inline;overflow:visible;enable-background:accumulate" />
        <path
           d="m 346.72222,1177.3622 c -0.40011,0 -0.72222,0.3221 -0.72222,0.7223 l 0,6.5555 c 0,0.4001 0.32211,0.7222 0.72222,0.7222 l 11.55556,0 c 0.40011,0 0.72222,-0.3221 0.72222,-0.7222 l 0,-6.5555 c 0,-0.4002 -0.32211,-0.7223 -0.72222,-0.7223 z m -0.22222,1.5 12,0 0,1.5 -12,0 z m 0.5,4 2,0 0,1.5 -2,0 z m 6,0.7777 5,0 0,0.7223 -5,0 z"
           inkscape:connector-curvature="0"
           id="rect10401-9"
           style="color:#000000;fill:#444444;fill-opacity:1;fill-rule:nonzero;stroke:none;stroke-width:2;marker:none;visibility:visible;display:inline;overflow:visible;enable-background:accumulate" />
      </g>
    </g>
  </g>
  <rect
     width="18"
     height="18"
     x="0"
     y="0"
     id="canvas"
     style="fill:none;stroke:none;visibility:hidden" />
</svg>
