<?xml version="1.0" encoding="UTF-8" standalone="no"?>
<!-- Created with Inkscape (http://www.inkscape.org/) -->

<svg
   xmlns:dc="http://purl.org/dc/elements/1.1/"
   xmlns:cc="http://creativecommons.org/ns#"
   xmlns:rdf="http://www.w3.org/1999/02/22-rdf-syntax-ns#"
   xmlns:svg="http://www.w3.org/2000/svg"
   xmlns="http://www.w3.org/2000/svg"
   xmlns:inkscape="http://www.inkscape.org/namespaces/inkscape"
   version="1.1"
   width="24"
   height="24"
   id="svg4460">
  <defs
     id="defs4462" />
  <metadata
     id="metadata4465">
    <rdf:RDF>
      <cc:Work
         rdf:about="">
        <dc:format>image/svg+xml</dc:format>
        <dc:type
           rdf:resource="http://purl.org/dc/dcmitype/StillImage" />
        <dc:title />
      </cc:Work>
    </rdf:RDF>
  </metadata>
  <g
     transform="translate(0,-1028.3622)"
     id="layer1">
    <g
       transform="translate(-318,-117.99998)"
       id="bar-24"
       style="display:inline">
      <g
         transform="translate(-1,0)"
         id="g16670">
        <path
           d="m 324,1150.3622 c -0.5,0 -1,6e-4 -1,0.25 0,0.2506 0.34281,0.5479 0.5,0.75 l 7.5,7.8125 0,6.1875 -4,1 c -0.5,0.1667 -1,0.5 -1,1 l 11,0 c 0,-0.5 -0.5,-0.8333 -1,-1 l -4,-1 0,-6.1875 7.5,-7.8125 c 0.15719,-0.2021 0.5,-0.4994 0.5,-0.75 0,-0.2494 -0.5,-0.25 -1,-0.25 z"
           inkscape:connector-curvature="0"
           id="path15624"
           style="opacity:0.3;color:#000000;fill:none;stroke:#ffffff;stroke-width:2;stroke-linecap:round;stroke-linejoin:round;stroke-miterlimit:4;stroke-opacity:1;stroke-dasharray:none;stroke-dashoffset:0;marker:none;visibility:visible;display:inline;overflow:visible;enable-background:accumulate" />
        <path
           d="m 324,1150.3622 c -0.5,0 -1,6e-4 -1,0.25 0,0.2506 0.34281,0.5479 0.5,0.75 l 7.5,7.8125 0,6.1875 -4,1 c -0.5,0.1667 -1,0.5 -1,1 l 11,0 c 0,-0.5 -0.5,-0.8333 -1,-1 l -4,-1 0,-6.1875 7.5,-7.8125 c 0.15719,-0.2021 0.5,-0.4994 0.5,-0.75 0,-0.2494 -0.5,-0.25 -1,-0.25 z"
           inkscape:connector-curvature="0"
           id="path15601-4"
           style="color:#000000;fill:#444444;fill-opacity:1;stroke:none;stroke-width:2;marker:none;visibility:visible;display:inline;overflow:visible;enable-background:accumulate" />
      </g>
    </g>
  </g>
  <rect
     width="24"
     height="24"
     x="0"
     y="0"
     id="canvas"
     style="fill:none;stroke:none;visibility:hidden" />
</svg>
