<?xml version="1.0" encoding="UTF-8" standalone="no"?>
<!-- Created with Inkscape (http://www.inkscape.org/) -->

<svg
   xmlns:dc="http://purl.org/dc/elements/1.1/"
   xmlns:cc="http://creativecommons.org/ns#"
   xmlns:rdf="http://www.w3.org/1999/02/22-rdf-syntax-ns#"
   xmlns:svg="http://www.w3.org/2000/svg"
   xmlns="http://www.w3.org/2000/svg"
   xmlns:inkscape="http://www.inkscape.org/namespaces/inkscape"
   version="1.1"
   width="18"
   height="18"
   id="svg4619">
  <defs
     id="defs4621" />
  <metadata
     id="metadata4624">
    <rdf:RDF>
      <cc:Work
         rdf:about="">
        <dc:format>image/svg+xml</dc:format>
        <dc:type
           rdf:resource="http://purl.org/dc/dcmitype/StillImage" />
        <dc:title />
      </cc:Work>
    </rdf:RDF>
  </metadata>
  <g
     transform="translate(0,-1034.3622)"
     id="layer1">
    <g
       transform="translate(-341.99999,-111.99998)"
       id="bar-18"
       style="display:inline">
      <g
         id="g21570">
        <path
           d="m 346,1149.3622 c -0.40625,0 -1,0.047 -1,0.25 0,0.2036 0.37228,0.5858 0.5,0.75 l 5.5,6 0,4 -2.8125,1.1875 c -0.40625,0.1354 -0.6875,0.3125 -0.6875,0.8125 l 8,0 c 0,-0.5 -0.40625,-0.6771 -0.8125,-0.8125 l -2.6875,-1.1875 0,-4 5.5,-6 c 0.12772,-0.1642 0.5,-0.5464 0.5,-0.75 0,-0.2026 -0.59375,-0.25 -1,-0.25 z"
           inkscape:connector-curvature="0"
           id="path15230"
           style="opacity:0.3;color:#000000;fill:none;stroke:#ffffff;stroke-width:2;stroke-linecap:round;stroke-linejoin:round;stroke-miterlimit:4;stroke-opacity:1;stroke-dasharray:none;stroke-dashoffset:0;marker:none;visibility:visible;display:inline;overflow:visible;enable-background:accumulate" />
        <path
           d="m 346,1149.3622 c -0.40625,0 -1,0.047 -1,0.25 0,0.2036 0.37228,0.5858 0.5,0.75 l 5.5,6 0,4 -2.8125,1.1875 c -0.40625,0.1354 -0.6875,0.3125 -0.6875,0.8125 l 8,0 c 0,-0.5 -0.40625,-0.6771 -0.8125,-0.8125 l -2.6875,-1.1875 0,-4 5.5,-6 c 0.12772,-0.1642 0.5,-0.5464 0.5,-0.75 0,-0.2026 -0.59375,-0.25 -1,-0.25 z"
           inkscape:connector-curvature="0"
           id="path15601-4-0"
           style="color:#000000;fill:#444444;fill-opacity:1;stroke:none;stroke-width:2;marker:none;visibility:visible;display:inline;overflow:visible;enable-background:accumulate" />
      </g>
    </g>
  </g>
  <rect
     width="18"
     height="18"
     x="0"
     y="0"
     id="canvas"
     style="fill:none;stroke:none;visibility:hidden" />
</svg>
