<?xml version="1.0" encoding="UTF-8" standalone="no"?>
<!-- Created with Inkscape (http://www.inkscape.org/) -->

<svg
   xmlns:dc="http://purl.org/dc/elements/1.1/"
   xmlns:cc="http://creativecommons.org/ns#"
   xmlns:rdf="http://www.w3.org/1999/02/22-rdf-syntax-ns#"
   xmlns:svg="http://www.w3.org/2000/svg"
   xmlns="http://www.w3.org/2000/svg"
   xmlns:inkscape="http://www.inkscape.org/namespaces/inkscape"
   version="1.1"
   width="18"
   height="18"
   id="svg4619">
  <defs
     id="defs4621" />
  <metadata
     id="metadata4624">
    <rdf:RDF>
      <cc:Work
         rdf:about="">
        <dc:format>image/svg+xml</dc:format>
        <dc:type
           rdf:resource="http://purl.org/dc/dcmitype/StillImage" />
        <dc:title />
      </cc:Work>
    </rdf:RDF>
  </metadata>
  <g
     transform="translate(0,-1034.3622)"
     id="layer1">
    <g
       transform="translate(-498,-136)"
       id="baseball-18"
       style="display:inline">
      <g
         id="g21410">
        <path
           d="m 503,1172.3622 c 0,0 -1,0 -1.5,0.5 -0.5,0.5 -0.5,1.5 -0.5,1.5 2.5,3.5 7.07972,6.1418 8,7 l 2.59375,2.4063 -0.59375,0.5937 0,1 1,0 1,-1 1,-1 0,-1 -1,0 -0.59375,0.5938 L 510,1180.3622 c -2.36211,-2.5328 -3.5,-5.5 -7,-8 z m 1.75,9 c -0.69036,0 -1.25,0.5596 -1.25,1.25 0,0.6904 0.55964,1.25 1.25,1.25 0.69036,0 1.25,-0.5596 1.25,-1.25 0,-0.6904 -0.55964,-1.25 -1.25,-1.25 z"
           inkscape:connector-curvature="0"
           id="path20866"
           style="opacity:0.3;color:#000000;fill:none;stroke:#ffffff;stroke-width:2;stroke-linecap:round;stroke-linejoin:round;stroke-miterlimit:4;stroke-opacity:1;stroke-dasharray:none;stroke-dashoffset:0;marker:none;visibility:visible;display:inline;overflow:visible;enable-background:accumulate" />
        <path
           d="m 503,1172.3622 c 0,0 -1,0 -1.5,0.5 -0.5,0.5 -0.5,1.5 -0.5,1.5 2.5,3.5 7.07972,6.1418 8,7 l 2.59375,2.4063 -0.59375,0.5937 0,1 1,0 1,-1 1,-1 0,-1 -1,0 -0.59375,0.5938 L 510,1180.3622 c -2.36211,-2.5328 -3.5,-5.5 -7,-8 z m 1.75,9 c -0.69036,0 -1.25,0.5596 -1.25,1.25 0,0.6904 0.55964,1.25 1.25,1.25 0.69036,0 1.25,-0.5596 1.25,-1.25 0,-0.6904 -0.55964,-1.25 -1.25,-1.25 z"
           inkscape:connector-curvature="0"
           id="path20837"
           style="color:#000000;fill:#444444;fill-opacity:1;fill-rule:nonzero;stroke:none;stroke-width:2;marker:none;visibility:visible;display:inline;overflow:visible;enable-background:accumulate" />
      </g>
    </g>
  </g>
  <rect
     width="18"
     height="18"
     x="0"
     y="0"
     id="canvas"
     style="fill:none;stroke:none;visibility:hidden" />
</svg>
