<?xml version="1.0" encoding="UTF-8" standalone="no"?>
<!-- Created with Inkscape (http://www.inkscape.org/) -->

<svg
   xmlns:dc="http://purl.org/dc/elements/1.1/"
   xmlns:cc="http://creativecommons.org/ns#"
   xmlns:rdf="http://www.w3.org/1999/02/22-rdf-syntax-ns#"
   xmlns:svg="http://www.w3.org/2000/svg"
   xmlns="http://www.w3.org/2000/svg"
   xmlns:inkscape="http://www.inkscape.org/namespaces/inkscape"
   version="1.1"
   width="24"
   height="24"
   id="svg4460">
  <defs
     id="defs4462" />
  <metadata
     id="metadata4465">
    <rdf:RDF>
      <cc:Work
         rdf:about="">
        <dc:format>image/svg+xml</dc:format>
        <dc:type
           rdf:resource="http://purl.org/dc/dcmitype/StillImage" />
        <dc:title />
      </cc:Work>
    </rdf:RDF>
  </metadata>
  <g
     transform="translate(0,-1028.3622)"
     id="layer1">
    <g
       transform="translate(-474,-142)"
       id="baseball-24"
       style="display:inline">
      <g
         id="g21377">
        <path
           d="m 480,1173.3622 c -1.25235,0 -2,0.7534 -2,2 0,1 2,2.5 3,3.5 1.99995,2 5.30187,3.8019 8.5,7 l 3,3 -0.5,0.5 c 0,0.5 0.5,1 1,1 l 1,-1 1,-1 c 0,-0.5 -0.5,-1 -1,-1 l -0.5,0.5 -3,-3 c -2.86335,-2.8633 -5.00005,-6.5 -7,-8.5 -1,-1 -2.5,-3 -3.5,-3 z m 3.5,10 c -0.82843,0 -1.5,0.6716 -1.5,1.5 0,0.8284 0.67157,1.5 1.5,1.5 0.82843,0 1.5,-0.6716 1.5,-1.5 0,-0.8284 -0.67157,-1.5 -1.5,-1.5 z"
           inkscape:connector-curvature="0"
           id="path20818"
           style="opacity:0.3;color:#000000;fill:none;stroke:#ffffff;stroke-width:2;stroke-linecap:round;stroke-linejoin:round;stroke-miterlimit:4;stroke-opacity:1;stroke-dasharray:none;stroke-dashoffset:0;marker:none;visibility:visible;display:inline;overflow:visible;enable-background:accumulate" />
        <path
           d="m 480,1173.3622 c -1.25235,0 -2,0.7534 -2,2 0,1 2,2.5 3,3.5 1.99995,2 5.30187,3.8019 8.5,7 l 3,3 -0.5,0.5 c 0,0.5 0.5,1 1,1 l 1,-1 1,-1 c 0,-0.5 -0.5,-1 -1,-1 l -0.5,0.5 -3,-3 c -2.86335,-2.8633 -5.00005,-6.5 -7,-8.5 -1,-1 -2.5,-3 -3.5,-3 z m 3.5,10 c -0.82843,0 -1.5,0.6716 -1.5,1.5 0,0.8284 0.67157,1.5 1.5,1.5 0.82843,0 1.5,-0.6716 1.5,-1.5 0,-0.8284 -0.67157,-1.5 -1.5,-1.5 z"
           inkscape:connector-curvature="0"
           id="path20806"
           style="color:#000000;fill:#444444;fill-opacity:1;fill-rule:nonzero;stroke:none;stroke-width:2;marker:none;visibility:visible;display:inline;overflow:visible;enable-background:accumulate" />
      </g>
    </g>
  </g>
  <rect
     width="24"
     height="24"
     x="0"
     y="0"
     id="canvas"
     style="fill:none;stroke:none;visibility:hidden" />
</svg>
