<?xml version="1.0" encoding="UTF-8" standalone="no"?>
<!-- Created with Inkscape (http://www.inkscape.org/) -->

<svg
   xmlns:dc="http://purl.org/dc/elements/1.1/"
   xmlns:cc="http://creativecommons.org/ns#"
   xmlns:rdf="http://www.w3.org/1999/02/22-rdf-syntax-ns#"
   xmlns:svg="http://www.w3.org/2000/svg"
   xmlns="http://www.w3.org/2000/svg"
   xmlns:inkscape="http://www.inkscape.org/namespaces/inkscape"
   version="1.1"
   width="24"
   height="24"
   id="svg4460">
  <defs
     id="defs4462" />
  <metadata
     id="metadata4465">
    <rdf:RDF>
      <cc:Work
         rdf:about="">
        <dc:format>image/svg+xml</dc:format>
        <dc:type
           rdf:resource="http://purl.org/dc/dcmitype/StillImage" />
        <dc:title />
      </cc:Work>
    </rdf:RDF>
  </metadata>
  <g
     transform="translate(0,-1028.3622)"
     id="layer1">
    <g
       transform="translate(-474,-118)"
       id="basketball-24"
       style="display:inline">
      <g
         transform="translate(-2,0)"
         id="g21373">
        <path
           d="m 484.5,1149.3622 -4.5,4 0,8 c 0,0.5 0.5,1 1,1 l 3.5625,0 1.9375,3.5 c 0.27778,0.5 0.5,0.5 1,0.5 l 2,0 c 0.5,0 0.72222,0 1,-0.5 l 1.9375,-3.5 3.5625,0 c 0.5,0 1,-0.5 1,-1 l 0,-8 -4.5,-4 -8,0 z m -0.5,4 9,0 0,6 -9,0 0,-6 z m 1,1 0,4 7,0 0,-4 -7,0 z m 0.5625,8 1.4375,0 0,1 1,0 0,-1 1,0 0,1 1,0 0,-1 1.4375,0 -0.5625,1 -0.875,0 0,1 0.34375,0 -0.34375,0.625 0,-0.625 -1,0 0,1 -1,0 0,-1 -1,0 0,0.625 -0.34375,-0.625 0.34375,0 0,-1 -0.875,0 -0.5625,-1 z m 2.4375,2 1,0 0,-1 -1,0 0,1 z"
           inkscape:connector-curvature="0"
           id="path20760"
           style="opacity:0.3;color:#000000;fill:#ffffff;fill-opacity:1;fill-rule:nonzero;stroke:#ffffff;stroke-width:2;stroke-linecap:round;stroke-linejoin:round;stroke-miterlimit:4;stroke-opacity:1;stroke-dasharray:none;stroke-dashoffset:0;marker:none;visibility:visible;display:inline;overflow:visible;enable-background:accumulate" />
        <path
           d="m 484.5,1149.3622 -4.5,4 0,8 c 0,0.5 0.5,1 1,1 l 3.5625,0 1.9375,3.5 c 0.27778,0.5 0.5,0.5 1,0.5 l 2,0 c 0.5,0 0.72222,0 1,-0.5 l 1.9375,-3.5 3.5625,0 c 0.5,0 1,-0.5 1,-1 l 0,-8 -4.5,-4 -8,0 z m -0.5,4 9,0 0,6 -9,0 0,-6 z m 1,1 0,4 7,0 0,-4 -7,0 z m 0.5625,8 1.4375,0 0,1 1,0 0,-1 1,0 0,1 1,0 0,-1 1.4375,0 -0.5625,1 -0.875,0 0,1 0.34375,0 -0.34375,0.625 0,-0.625 -1,0 0,1 -1,0 0,-1 -1,0 0,0.625 -0.34375,-0.625 0.34375,0 0,-1 -0.875,0 -0.5625,-1 z m 2.4375,2 1,0 0,-1 -1,0 0,1 z"
           inkscape:connector-curvature="0"
           id="rect5769-7"
           style="color:#000000;fill:#444444;fill-opacity:1;fill-rule:nonzero;stroke:none;stroke-width:1;marker:none;visibility:visible;display:inline;overflow:visible;enable-background:accumulate" />
      </g>
    </g>
  </g>
  <rect
     width="24"
     height="24"
     x="0"
     y="0"
     id="canvas"
     style="fill:none;stroke:none;visibility:hidden" />
</svg>
