<?xml version="1.0" encoding="UTF-8" standalone="no"?>
<!-- Created with Inkscape (http://www.inkscape.org/) -->

<svg
   xmlns:dc="http://purl.org/dc/elements/1.1/"
   xmlns:cc="http://creativecommons.org/ns#"
   xmlns:rdf="http://www.w3.org/1999/02/22-rdf-syntax-ns#"
   xmlns:svg="http://www.w3.org/2000/svg"
   xmlns="http://www.w3.org/2000/svg"
   xmlns:sodipodi="http://sodipodi.sourceforge.net/DTD/sodipodi-0.dtd"
   xmlns:inkscape="http://www.inkscape.org/namespaces/inkscape"
   width="12"
   height="12"
   id="svg27703"
   version="1.1"
   inkscape:version="0.48.2 r9819"
   sodipodi:docname="bear-white-12.svg">
  <defs
     id="defs27705" />
  <sodipodi:namedview
     id="base"
     pagecolor="#ffffff"
     bordercolor="#666666"
     borderopacity="1.0"
     inkscape:pageopacity="0.0"
     inkscape:pageshadow="2"
     inkscape:zoom="11.666125"
     inkscape:cx="5.4537757"
     inkscape:cy="7.1874659"
     inkscape:document-units="px"
     inkscape:current-layer="layer1"
     showgrid="false"
     inkscape:window-width="483"
     inkscape:window-height="454"
     inkscape:window-x="2633"
     inkscape:window-y="651"
     inkscape:window-maximized="0">
    <inkscape:grid
       type="xygrid"
       id="grid2987" />
  </sodipodi:namedview>
  <metadata
     id="metadata27708">
    <rdf:RDF>
      <cc:Work
         rdf:about="">
        <dc:format>image/svg+xml</dc:format>
        <dc:type
           rdf:resource="http://purl.org/dc/dcmitype/StillImage" />
        <dc:title></dc:title>
      </cc:Work>
    </rdf:RDF>
  </metadata>
  <g
     inkscape:label="Layer 1"
     inkscape:groupmode="layer"
     id="layer1"
     transform="translate(0,-1040.3622)">
    <path
       style="opacity:0;fill:#ffffff"
       inkscape:connector-curvature="0"
       id="path27571"
       d="m 1.1971166,1040.265 c -0.68347218,0 -1.23910978,0.5569 -1.23910978,1.2404 v 9.5192 c 0,0.686 0.5556376,1.2417 1.23910978,1.2417 h 9.5192494 c 0.686003,0 1.241641,-0.5569 1.241641,-1.2417 v -9.5192 c 0,-0.6848 -0.556903,-1.2404 -1.241641,-1.2404 H 1.1971166 z" />
    <g
       id="g3825"
       transform="matrix(-1,0,0,1,38.704826,924.82919)">
      <rect
         style="opacity:0.6;fill:none;stroke:none"
         id="rect3811"
         width="12"
         height="12"
         x="26.704548"
         y="115.53273" />
      <path
         d="m 29.506726,118.96266 c 0,0 -0.287877,-0.44259 -0.512832,-0.37404 -0.247556,0.0753 -0.120647,0.5678 -0.120647,0.5678 -0.461369,0.08 -0.662979,0.77004 -1.488201,0.82501 -0.302839,0.0202 -0.02536,0.78278 0.800392,0.94873 1.147904,0.23079 1.973975,0.80846 2.089317,1.16945 0.06908,0.21625 0.68993,2.37305 0.426245,2.76492 0,0 -0.496278,0.11545 -0.259758,0.57756 0.06218,0.1216 1.088906,0.0833 1.151511,-0.14622 0.02472,-0.0909 0.270901,-0.87562 0.270901,-0.87562 0.223256,0.25657 0.21551,0.55124 0.03385,0.76537 -0.148236,0.17466 0.182511,0.52047 0.650989,0.36895 0.562173,-0.18187 0.590505,-1.70997 0.590505,-2.3147 0,0 1.058134,0.39219 2.157757,0.19917 0,0 0.137096,1.32914 0.07481,1.41498 -0.06441,0.0888 -0.453834,0.28597 -0.197471,0.60219 0.176249,0.21741 0.665101,0.16574 0.818006,0.0297 0.326502,-0.29032 0.683458,-1.60842 0.683458,-1.60842 0,0 0.320984,1.01675 0.266443,1.07108 -0.340614,0.33828 -0.1233,0.66977 0.222939,0.66977 0,0 0.581379,0.0984 0.712213,-0.42551 0,0 -0.147387,-2.72608 -0.04637,-3.28804 0.236627,-1.31683 -2.453169,-1.92782 -2.82827,-1.964 -0.641757,-0.062 -2.155742,-0.0654 -2.339844,-0.12702 -0.168716,-0.0566 -0.582228,-0.29297 -0.867453,-0.34719 -0.230897,-0.0439 -0.567586,0.0532 -0.753173,0.0214 -0.211585,-0.0363 -0.801135,-0.30899 -0.801135,-0.30899 0,0 0.02876,-0.41044 -0.242781,-0.48333 -0.181979,-0.049 -0.491397,0.26697 -0.491397,0.26697 z"
         id="path3817"
         inkscape:connector-curvature="0"
         style="opacity:0.6;fill:none;stroke:#1d1d1c;stroke-width:0.29813948;stroke-miterlimit:4;stroke-opacity:1;stroke-dasharray:none" />
      <path
         style="fill:#ffffff;fill-opacity:1"
         inkscape:connector-curvature="0"
         id="path3815"
         d="m 29.506726,118.96266 c 0,0 -0.287877,-0.44259 -0.512832,-0.37404 -0.247556,0.0753 -0.120647,0.5678 -0.120647,0.5678 -0.461369,0.08 -0.662979,0.77004 -1.488201,0.82501 -0.302839,0.0202 -0.02536,0.78278 0.800392,0.94873 1.147904,0.23079 1.973975,0.80846 2.089317,1.16945 0.06908,0.21625 0.68993,2.37305 0.426245,2.76492 0,0 -0.496278,0.11545 -0.259758,0.57756 0.06218,0.1216 1.088906,0.0833 1.151511,-0.14622 0.02472,-0.0909 0.270901,-0.87562 0.270901,-0.87562 0.223256,0.25657 0.21551,0.55124 0.03385,0.76537 -0.148236,0.17466 0.182511,0.52047 0.650989,0.36895 0.562173,-0.18187 0.590505,-1.70997 0.590505,-2.3147 0,0 1.058134,0.39219 2.157757,0.19917 0,0 0.137096,1.32914 0.07481,1.41498 -0.06441,0.0888 -0.453834,0.28597 -0.197471,0.60219 0.176249,0.21741 0.665101,0.16574 0.818006,0.0297 0.326502,-0.29032 0.683458,-1.60842 0.683458,-1.60842 0,0 0.320984,1.01675 0.266443,1.07108 -0.340614,0.33828 -0.1233,0.66977 0.222939,0.66977 0,0 0.581379,0.0984 0.712213,-0.42551 0,0 -0.147387,-2.72608 -0.04637,-3.28804 0.236627,-1.31683 -2.453169,-1.92782 -2.82827,-1.964 -0.641757,-0.062 -2.155742,-0.0654 -2.339844,-0.12702 -0.168716,-0.0566 -0.582228,-0.29297 -0.867453,-0.34719 -0.230897,-0.0439 -0.567586,0.0532 -0.753173,0.0214 -0.211585,-0.0363 -0.801135,-0.30899 -0.801135,-0.30899 0,0 0.02876,-0.41044 -0.242781,-0.48333 -0.181979,-0.049 -0.491397,0.26697 -0.491397,0.26697 z" />
    </g>
  </g>
</svg>
