<?xml version="1.0" encoding="UTF-8" standalone="no"?>
<!-- Created with Inkscape (http://www.inkscape.org/) -->

<svg
   xmlns:dc="http://purl.org/dc/elements/1.1/"
   xmlns:cc="http://creativecommons.org/ns#"
   xmlns:rdf="http://www.w3.org/1999/02/22-rdf-syntax-ns#"
   xmlns:svg="http://www.w3.org/2000/svg"
   xmlns="http://www.w3.org/2000/svg"
   xmlns:sodipodi="http://sodipodi.sourceforge.net/DTD/sodipodi-0.dtd"
   xmlns:inkscape="http://www.inkscape.org/namespaces/inkscape"
   width="24"
   height="24"
   id="svg27349"
   version="1.1"
   inkscape:version="0.48.2 r9819"
   sodipodi:docname="bear-black-24.svg">
  <defs
     id="defs27351" />
  <sodipodi:namedview
     id="base"
     pagecolor="#ffffff"
     bordercolor="#666666"
     borderopacity="1.0"
     inkscape:pageopacity="0.0"
     inkscape:pageshadow="2"
     inkscape:zoom="8.6123905"
     inkscape:cx="11.808263"
     inkscape:cy="10.533919"
     inkscape:document-units="px"
     inkscape:current-layer="layer1"
     showgrid="false"
     inkscape:window-width="483"
     inkscape:window-height="454"
     inkscape:window-x="3648"
     inkscape:window-y="148"
     inkscape:window-maximized="0"
     gridtolerance="10">
    <inkscape:grid
       type="xygrid"
       id="grid3004"
       empspacing="5"
       visible="true"
       enabled="true"
       snapvisiblegridlinesonly="true" />
  </sodipodi:namedview>
  <metadata
     id="metadata27354">
    <rdf:RDF>
      <cc:Work
         rdf:about="">
        <dc:format>image/svg+xml</dc:format>
        <dc:type
           rdf:resource="http://purl.org/dc/dcmitype/StillImage" />
        <dc:title></dc:title>
      </cc:Work>
    </rdf:RDF>
  </metadata>
  <g
     inkscape:label="Layer 1"
     inkscape:groupmode="layer"
     id="layer1"
     transform="translate(0,-1028.3622)">
    <g
       id="g3841"
       transform="matrix(-2,0,0,2,77.36861,836.99385)">
      <path
         d="m 29.506726,99.076299 c 0,0 -0.287877,-0.442588 -0.512832,-0.37404 -0.247556,0.07534 -0.120647,0.567801 -0.120647,0.567801 -0.461369,0.08 -0.662979,0.77004 -1.488201,0.82501 -0.302839,0.0201 -0.02536,0.78277 0.800392,0.94873 1.147904,0.23079 1.973975,0.80846 2.089317,1.16944 0.06908,0.21626 0.68993,2.37306 0.426245,2.76493 0,0 -0.496278,0.11545 -0.259758,0.57756 0.06218,0.1216 1.088906,0.0833 1.151511,-0.14622 0.02472,-0.0909 0.270901,-0.87562 0.270901,-0.87562 0.223256,0.25657 0.21551,0.55124 0.03385,0.76537 -0.148236,0.17465 0.182511,0.52047 0.650989,0.36894 0.562173,-0.18187 0.590505,-1.70997 0.590505,-2.31469 0,0 1.058134,0.39218 2.157757,0.19917 0,0 0.137096,1.32914 0.07481,1.41498 -0.06441,0.0888 -0.453834,0.28597 -0.197471,0.60218 0.176249,0.21742 0.665101,0.16574 0.818006,0.0297 0.326502,-0.29032 0.683458,-1.60842 0.683458,-1.60842 0,0 0.320984,1.01675 0.266443,1.07107 -0.340614,0.33829 -0.1233,0.66977 0.222939,0.66977 0,0 0.581379,0.0984 0.712213,-0.4255 0,0 -0.147387,-2.72609 -0.04637,-3.28804 0.236627,-1.31684 -2.453169,-1.92782 -2.82827,-1.964 -0.641757,-0.06197 -2.155742,-0.06537 -2.339844,-0.127022 -0.168716,-0.05659 -0.582228,-0.29297 -0.867453,-0.34719 -0.230897,-0.04394 -0.567586,0.05325 -0.753173,0.02141 -0.211585,-0.03631 -0.801135,-0.308992 -0.801135,-0.308992 0,0 0.02876,-0.410437 -0.242781,-0.483332 -0.181979,-0.04901 -0.491397,0.266972 -0.491397,0.266972 z"
         id="path3843"
         inkscape:connector-curvature="0"
         style="opacity:0.6;fill:none;stroke:#ffffff;stroke-width:0.29813948;stroke-miterlimit:4;stroke-opacity:1;stroke-dasharray:none" />
      <path
         inkscape:connector-curvature="0"
         id="path3845"
         d="m 29.506726,99.076299 c 0,0 -0.287877,-0.442588 -0.512832,-0.37404 -0.247556,0.07534 -0.120647,0.567801 -0.120647,0.567801 -0.461369,0.08 -0.662979,0.77004 -1.488201,0.82501 -0.302839,0.0201 -0.02536,0.78277 0.800392,0.94873 1.147904,0.23079 1.973975,0.80846 2.089317,1.16944 0.06908,0.21626 0.68993,2.37306 0.426245,2.76493 0,0 -0.496278,0.11545 -0.259758,0.57756 0.06218,0.1216 1.088906,0.0833 1.151511,-0.14622 0.02472,-0.0909 0.270901,-0.87562 0.270901,-0.87562 0.223256,0.25657 0.21551,0.55124 0.03385,0.76537 -0.148236,0.17465 0.182511,0.52047 0.650989,0.36894 0.562173,-0.18187 0.590505,-1.70997 0.590505,-2.31469 0,0 1.058134,0.39218 2.157757,0.19917 0,0 0.137096,1.32914 0.07481,1.41498 -0.06441,0.0888 -0.453834,0.28597 -0.197471,0.60218 0.176249,0.21742 0.665101,0.16574 0.818006,0.0297 0.326502,-0.29032 0.683458,-1.60842 0.683458,-1.60842 0,0 0.320984,1.01675 0.266443,1.07107 -0.340614,0.33829 -0.1233,0.66977 0.222939,0.66977 0,0 0.581379,0.0984 0.712213,-0.4255 0,0 -0.147387,-2.72609 -0.04637,-3.28804 0.236627,-1.31684 -2.453169,-1.92782 -2.82827,-1.964 -0.641757,-0.06197 -2.155742,-0.06537 -2.339844,-0.127022 -0.168716,-0.05659 -0.582228,-0.29297 -0.867453,-0.34719 -0.230897,-0.04394 -0.567586,0.05325 -0.753173,0.02141 -0.211585,-0.03631 -0.801135,-0.308992 -0.801135,-0.308992 0,0 0.02876,-0.410437 -0.242781,-0.483332 -0.181979,-0.04901 -0.491397,0.266972 -0.491397,0.266972 z" />
      <rect
         style="opacity:0.6;fill:none;stroke:none"
         id="rect3847"
         width="12"
         height="12"
         x="26.704548"
         y="95.646362" />
    </g>
  </g>
</svg>
