<?xml version="1.0" encoding="utf-8"?>
<!-- Generator: Adobe Illustrator 18.1.1, SVG Export Plug-In . SVG Version: 6.00 Build 0)  -->
<svg version="1.1" xmlns="http://www.w3.org/2000/svg" xmlns:xlink="http://www.w3.org/1999/xlink" x="0px" y="0px"
	 viewBox="0 0 12 12" enable-background="new 0 0 12 12" xml:space="preserve">
<g id="shadows">
	<g opacity="0.2">
		<path d="M7,5.7c-0.1,0-0.2,0-0.2-0.2L6.4,4.9L5.5,5.7l0.7,0.4c0.3,0.1,0.3,0.4,0.3,0.4v1.7c0,0.2-0.2,0.3-0.3,0.3
			C6,8.5,5.9,8.4,5.9,8.2V6.8L4.6,6.1C4.4,6,4.3,5.9,4.3,5.7c0-0.1,0-0.2,0.1-0.3l1.3-1.3c0.2-0.2,0.4-0.1,0.4-0.1
			c0.3,0,0.4,0.2,0.4,0.2l0.7,1l1,0c0.4,0,0.4,0.5,0,0.5L7,5.7L7,5.7z"/>
		<polygon points="7.1,2.3 7.7,2.3 7.7,2.9 8.3,2.9 8.3,3.5 7.7,3.5 7.7,4 7.1,4 7.1,3.5 6.6,3.5 6.6,2.9 7.1,2.9 		"/>
		<path d="M2.1,6.3h2.2v0.6h0.6v2.2H4.3v0.6H2.1V9.1H1.5V6.8h0.6V6.3z M2.6,7.4H2.1v1.1h0.6v0.6h1.1V8.5h0.6V7.4H3.8V6.8H2.6V7.4z"
			/>
		<path d="M7.7,6.3h2.2v0.6h0.6v2.2H9.9v0.6H7.7V9.1H7.1V6.8h0.6V6.3z M8.3,7.4H7.7v1.1h0.6v0.6h1.1V8.5h0.6V7.4H9.4V6.8H8.3V7.4z"
			/>
	</g>
</g>
<g id="icons">
	<g>
		<path fill="#FFFFFF" d="M6.5,5.2c-0.1,0-0.2,0-0.2-0.2L5.9,4.4L5,5.2l0.7,0.4C6.1,5.7,6.1,6,6.1,6v1.7C6.1,7.9,5.9,8,5.7,8
			C5.5,8,5.4,7.9,5.4,7.7V6.3L4.1,5.6C3.9,5.5,3.8,5.4,3.8,5.2c0-0.1,0-0.2,0.1-0.3l1.3-1.3c0.2-0.2,0.4-0.1,0.4-0.1
			C5.8,3.4,6,3.7,6,3.7l0.7,1l1,0c0.4,0,0.4,0.5,0,0.5L6.5,5.2L6.5,5.2z"/>
		<polygon fill="#FFFFFF" points="6.6,1.8 7.2,1.8 7.2,2.4 7.8,2.4 7.8,3 7.2,3 7.2,3.5 6.6,3.5 6.6,3 6.1,3 6.1,2.4 6.6,2.4 		"/>
		<path fill="#FFFFFF" d="M1.6,5.8h2.2v0.6h0.6v2.2H3.8v0.6H1.6V8.6H1V6.3h0.6V5.8z M2.1,6.9H1.6V8h0.6v0.6h1.1V8h0.6V6.9H3.3V6.3
			H2.1V6.9z"/>
		<path fill="#FFFFFF" d="M7.2,5.8h2.2v0.6H10v2.2H9.4v0.6H7.2V8.6H6.6V6.3h0.6V5.8z M7.8,6.9H7.2V8h0.6v0.6h1.1V8h0.6V6.9H8.9V6.3
			H7.8V6.9z"/>
	</g>
</g>
<g id="guides">
</g>
</svg>
