<?xml version="1.0" encoding="UTF-8" standalone="no"?>
<svg width="12px" height="12px" viewBox="0 0 12 12" version="1.1" xmlns="http://www.w3.org/2000/svg" xmlns:xlink="http://www.w3.org/1999/xlink" xmlns:sketch="http://www.bohemiancoding.com/sketch/ns">
    <!-- Generator: Sketch 3.2.2 (9983) - http://www.bohemiancoding.com/sketch -->
    <title>bicycle-trail-white-12</title>
    <desc>Created with Sketch.</desc>
    <defs></defs>
    <g id="Page-1" stroke="none" stroke-width="1" fill="none" fill-rule="evenodd" sketch:type="MSPage">
        <g id="Group" sketch:type="MSLayerGroup" transform="translate(2.000000, 2.000000)" fill="#0A0B09" opacity="0.5">
            <path d="M6.71,4.20785714 C6.6,4.21 6.49,4.155 6.4075,4.01642857 L5.92625,3.24428571 L4.95,4.25357143 L5.8575,4.75142857 C6.22875,4.93785714 6.17375,5.27928571 6.17375,5.27928571 L6.17375,7.41857143 C6.17375,7.66142857 5.988125,7.85928571 5.754375,7.85928571 C5.520625,7.85928571 5.328125,7.66142857 5.328125,7.41857143 L5.328125,5.70571429 L3.75375,4.795 C3.568125,4.68571429 3.4375,4.47785714 3.4375,4.24 C3.4375,4.07571429 3.499375,3.92571429 3.595625,3.81357143 L5.1425,2.20285714 C5.335,1.97714286 5.603125,2.01285714 5.603125,2.01285714 C5.92625,2.01285714 6.098125,2.30714286 6.098125,2.30714286 L6.9025,3.61642857 L8.12625,3.61428571 C8.559375,3.61428571 8.559375,4.21 8.12625,4.21 L6.71,4.21 L6.71,4.20785714" id="Fill-108" sketch:type="MSShapeGroup"></path>
            <path d="M6.875,0.00214285714 L7.5625,0.00214285714 L7.5625,0.716428571 L8.25,0.716428571 L8.25,1.43071429 L7.5625,1.43071429 L7.5625,2.145 L6.875,2.145 L6.875,1.43071429 L6.1875,1.43071429 L6.1875,0.716428571 L6.875,0.716428571 L6.875,0.00214285714" id="Fill-109" sketch:type="MSShapeGroup"></path>
            <path d="M1.375,6.43071429 L0.6875,6.43071429 L0.6875,7.85928571 L1.375,7.85928571 L1.375,8.57357143 L2.75,8.57357143 L2.75,7.85928571 L3.4375,7.85928571 L3.4375,6.43071429 L2.75,6.43071429 L2.75,5.71642857 L1.375,5.71642857 L1.375,6.43071429 L1.375,6.43071429 Z M0.6875,5.00214286 L3.4375,5.00214286 L3.4375,5.71642857 L4.125,5.71642857 L4.125,8.57357143 L3.4375,8.57357143 L3.4375,9.28785714 L0.6875,9.28785714 L0.6875,8.57357143 L0,8.57357143 L0,5.71642857 L0.6875,5.71642857 L0.6875,5.00214286 L0.6875,5.00214286 Z" id="Fill-110" sketch:type="MSShapeGroup"></path>
            <path d="M8.25,6.43071429 L7.5625,6.43071429 L7.5625,7.85928571 L8.25,7.85928571 L8.25,8.57357143 L9.625,8.57357143 L9.625,7.85928571 L10.3125,7.85928571 L10.3125,6.43071429 L9.625,6.43071429 L9.625,5.71642857 L8.25,5.71642857 L8.25,6.43071429 L8.25,6.43071429 Z M7.5625,5.00214286 L10.3125,5.00214286 L10.3125,5.71642857 L11,5.71642857 L11,8.57357143 L10.3125,8.57357143 L10.3125,9.28785714 L7.5625,9.28785714 L7.5625,8.57357143 L6.875,8.57357143 L6.875,5.71642857 L7.5625,5.71642857 L7.5625,5.00214286 L7.5625,5.00214286 Z" id="Fill-111" sketch:type="MSShapeGroup"></path>
        </g>
        <g id="Group" sketch:type="MSLayerGroup" transform="translate(1.000000, 1.000000)" fill="#0A0B09" opacity="0.75">
            <path d="M6.71,4.20785714 C6.6,4.21 6.49,4.155 6.4075,4.01642857 L5.92625,3.24428571 L4.95,4.25357143 L5.8575,4.75142857 C6.22875,4.93785714 6.17375,5.27928571 6.17375,5.27928571 L6.17375,7.41857143 C6.17375,7.66142857 5.988125,7.85928571 5.754375,7.85928571 C5.520625,7.85928571 5.328125,7.66142857 5.328125,7.41857143 L5.328125,5.70571429 L3.75375,4.795 C3.568125,4.68571429 3.4375,4.47785714 3.4375,4.24 C3.4375,4.07571429 3.499375,3.92571429 3.595625,3.81357143 L5.1425,2.20285714 C5.335,1.97714286 5.603125,2.01285714 5.603125,2.01285714 C5.92625,2.01285714 6.098125,2.30714286 6.098125,2.30714286 L6.9025,3.61642857 L8.12625,3.61428571 C8.559375,3.61428571 8.559375,4.21 8.12625,4.21 L6.71,4.21 L6.71,4.20785714" id="Fill-108" sketch:type="MSShapeGroup"></path>
            <path d="M6.875,0.00214285714 L7.5625,0.00214285714 L7.5625,0.716428571 L8.25,0.716428571 L8.25,1.43071429 L7.5625,1.43071429 L7.5625,2.145 L6.875,2.145 L6.875,1.43071429 L6.1875,1.43071429 L6.1875,0.716428571 L6.875,0.716428571 L6.875,0.00214285714" id="Fill-109" sketch:type="MSShapeGroup"></path>
            <path d="M1.375,6.43071429 L0.6875,6.43071429 L0.6875,7.85928571 L1.375,7.85928571 L1.375,8.57357143 L2.75,8.57357143 L2.75,7.85928571 L3.4375,7.85928571 L3.4375,6.43071429 L2.75,6.43071429 L2.75,5.71642857 L1.375,5.71642857 L1.375,6.43071429 L1.375,6.43071429 Z M0.6875,5.00214286 L3.4375,5.00214286 L3.4375,5.71642857 L4.125,5.71642857 L4.125,8.57357143 L3.4375,8.57357143 L3.4375,9.28785714 L0.6875,9.28785714 L0.6875,8.57357143 L0,8.57357143 L0,5.71642857 L0.6875,5.71642857 L0.6875,5.00214286 L0.6875,5.00214286 Z" id="Fill-110" sketch:type="MSShapeGroup"></path>
            <path d="M8.25,6.43071429 L7.5625,6.43071429 L7.5625,7.85928571 L8.25,7.85928571 L8.25,8.57357143 L9.625,8.57357143 L9.625,7.85928571 L10.3125,7.85928571 L10.3125,6.43071429 L9.625,6.43071429 L9.625,5.71642857 L8.25,5.71642857 L8.25,6.43071429 L8.25,6.43071429 Z M7.5625,5.00214286 L10.3125,5.00214286 L10.3125,5.71642857 L11,5.71642857 L11,8.57357143 L10.3125,8.57357143 L10.3125,9.28785714 L7.5625,9.28785714 L7.5625,8.57357143 L6.875,8.57357143 L6.875,5.71642857 L7.5625,5.71642857 L7.5625,5.00214286 L7.5625,5.00214286 Z" id="Fill-111" sketch:type="MSShapeGroup"></path>
        </g>
        <g id="Group" sketch:type="MSLayerGroup" fill="#FFFFFF">
            <path d="M6.71,4.20785714 C6.6,4.21 6.49,4.155 6.4075,4.01642857 L5.92625,3.24428571 L4.95,4.25357143 L5.8575,4.75142857 C6.22875,4.93785714 6.17375,5.27928571 6.17375,5.27928571 L6.17375,7.41857143 C6.17375,7.66142857 5.988125,7.85928571 5.754375,7.85928571 C5.520625,7.85928571 5.328125,7.66142857 5.328125,7.41857143 L5.328125,5.70571429 L3.75375,4.795 C3.568125,4.68571429 3.4375,4.47785714 3.4375,4.24 C3.4375,4.07571429 3.499375,3.92571429 3.595625,3.81357143 L5.1425,2.20285714 C5.335,1.97714286 5.603125,2.01285714 5.603125,2.01285714 C5.92625,2.01285714 6.098125,2.30714286 6.098125,2.30714286 L6.9025,3.61642857 L8.12625,3.61428571 C8.559375,3.61428571 8.559375,4.21 8.12625,4.21 L6.71,4.21 L6.71,4.20785714" id="Fill-108" sketch:type="MSShapeGroup"></path>
            <path d="M6.875,0.00214285714 L7.5625,0.00214285714 L7.5625,0.716428571 L8.25,0.716428571 L8.25,1.43071429 L7.5625,1.43071429 L7.5625,2.145 L6.875,2.145 L6.875,1.43071429 L6.1875,1.43071429 L6.1875,0.716428571 L6.875,0.716428571 L6.875,0.00214285714" id="Fill-109" sketch:type="MSShapeGroup"></path>
            <path d="M1.375,6.43071429 L0.6875,6.43071429 L0.6875,7.85928571 L1.375,7.85928571 L1.375,8.57357143 L2.75,8.57357143 L2.75,7.85928571 L3.4375,7.85928571 L3.4375,6.43071429 L2.75,6.43071429 L2.75,5.71642857 L1.375,5.71642857 L1.375,6.43071429 L1.375,6.43071429 Z M0.6875,5.00214286 L3.4375,5.00214286 L3.4375,5.71642857 L4.125,5.71642857 L4.125,8.57357143 L3.4375,8.57357143 L3.4375,9.28785714 L0.6875,9.28785714 L0.6875,8.57357143 L0,8.57357143 L0,5.71642857 L0.6875,5.71642857 L0.6875,5.00214286 L0.6875,5.00214286 Z" id="Fill-110" sketch:type="MSShapeGroup"></path>
            <path d="M8.25,6.43071429 L7.5625,6.43071429 L7.5625,7.85928571 L8.25,7.85928571 L8.25,8.57357143 L9.625,8.57357143 L9.625,7.85928571 L10.3125,7.85928571 L10.3125,6.43071429 L9.625,6.43071429 L9.625,5.71642857 L8.25,5.71642857 L8.25,6.43071429 L8.25,6.43071429 Z M7.5625,5.00214286 L10.3125,5.00214286 L10.3125,5.71642857 L11,5.71642857 L11,8.57357143 L10.3125,8.57357143 L10.3125,9.28785714 L7.5625,9.28785714 L7.5625,8.57357143 L6.875,8.57357143 L6.875,5.71642857 L7.5625,5.71642857 L7.5625,5.00214286 L7.5625,5.00214286 Z" id="Fill-111" sketch:type="MSShapeGroup"></path>
        </g>
    </g>
</svg>