<?xml version="1.0" encoding="UTF-8" standalone="no"?>
<svg width="18px" height="18px" viewBox="0 0 18 18" version="1.1" xmlns="http://www.w3.org/2000/svg" xmlns:xlink="http://www.w3.org/1999/xlink" xmlns:sketch="http://www.bohemiancoding.com/sketch/ns">
    <!-- Generator: Sketch 3.2.2 (9983) - http://www.bohemiancoding.com/sketch -->
    <title>bicycle-trail-black-18</title>
    <desc>Created with Sketch.</desc>
    <defs></defs>
    <g id="Page-1" stroke="none" stroke-width="1" fill="none" fill-rule="evenodd" sketch:type="MSPage">
        <path d="M2,13.3159125 C2,11.5019503 3.4962963,10.0332613 5.33333333,10.0332613 C7.17777778,10.0332613 8.66666667,11.5019503 8.66666667,13.3159125 C8.66666667,15.1320647 7.17777778,16.5992937 5.33333333,16.5992937 C3.4962963,16.6007536 2,15.1320647 2,13.3159125 L2,13.3159125 Z M5.33333333,15.8707889 C6.76296296,15.8707889 7.92592593,14.7276642 7.92592593,13.3151826 C7.92592593,11.9048908 6.76296296,10.7610361 5.33333333,10.7610361 C3.9037037,10.7610361 2.74074074,11.9048908 2.74074074,13.3151826 C2.74074074,14.7276642 3.9037037,15.8707889 5.33333333,15.8707889 L5.33333333,15.8707889 Z" id="Fill-104" opacity="0.1" fill="#0A0B09" sketch:type="MSShapeGroup"></path>
        <path d="M12.3703704,13.3159125 C12.3703704,11.5019503 13.8666667,10.0332613 15.7037037,10.0332613 C17.5481481,10.0332613 19.037037,11.5019503 19.037037,13.3159125 C19.037037,15.1320647 17.5481481,16.5992937 15.7037037,16.5992937 C13.8666667,16.6007536 12.3703704,15.1320647 12.3703704,13.3159125 L12.3703704,13.3159125 Z M15.7037037,15.8707889 C17.1333333,15.8707889 18.2962963,14.7276642 18.2962963,13.3151826 C18.2962963,11.9048908 17.1333333,10.7610361 15.7037037,10.7610361 C14.2740741,10.7610361 13.1111111,11.9048908 13.1111111,13.3151826 C13.1111111,14.7276642 14.2740741,15.8707889 15.7037037,15.8707889 L15.7037037,15.8707889 Z" id="Fill-105" opacity="0.1" fill="#0A0B09" sketch:type="MSShapeGroup"></path>
        <path d="M12.5037037,8.42149932 C12.3185185,8.42514914 12.1259259,8.33682342 11.9851852,8.11491415 L11.1777778,6.87470416 L9.51851852,8.49522575 L11.0592593,9.29453708 C11.6962963,9.5938226 11.6,10.142756 11.6,10.142756 L11.6,13.5786998 C11.6,13.967771 11.2814815,14.2853056 10.8814815,14.2853056 C10.4888889,14.2853056 10.1703704,13.967771 10.1703704,13.5786998 L10.1703704,10.8274629 L7.4962963,9.36534366 C7.17777778,9.18942217 6.96296296,8.85509834 6.96296296,8.47332681 C6.96296296,8.2090796 7.06666667,7.96965118 7.22962963,7.78861994 L9.85185185,5.2016251 C10.1777778,4.83956262 10.6296296,4.89722983 10.6296296,4.89722983 C11.1777778,4.89722983 11.4666667,5.36951698 11.4666667,5.36951698 L12.8296296,7.47254523 L14.8962963,7.46889541 C15.637037,7.46889541 15.637037,8.42514914 14.8962963,8.42514914 L12.5037037,8.42514914 L12.5037037,8.42149932" id="Fill-106" opacity="0.1" fill="#0A0B09" sketch:type="MSShapeGroup"></path>
        <path d="M12.3703704,2 L13.8518519,2 L13.8518519,2.72996468 L14.5925926,2.72996468 L14.5925926,4.18989405 L13.8518519,4.18989405 L13.8518519,4.91985873 L12.3703704,4.91985873 L12.3703704,4.18989405 L11.6296296,4.18989405 L11.6296296,2.72996468 L12.3703704,2.72996468 L12.3703704,2" id="Fill-107" opacity="0.1" fill="#0A0B09" sketch:type="MSShapeGroup"></path>
        <path d="M1,12.3159125 C1,10.5019503 2.4962963,9.03326134 4.33333333,9.03326134 C6.17777778,9.03326134 7.66666667,10.5019503 7.66666667,12.3159125 C7.66666667,14.1320647 6.17777778,15.5992937 4.33333333,15.5992937 C2.4962963,15.6007536 1,14.1320647 1,12.3159125 L1,12.3159125 Z M4.33333333,14.8707889 C5.76296296,14.8707889 6.92592593,13.7276642 6.92592593,12.3151826 C6.92592593,10.9048908 5.76296296,9.76103613 4.33333333,9.76103613 C2.9037037,9.76103613 1.74074074,10.9048908 1.74074074,12.3151826 C1.74074074,13.7276642 2.9037037,14.8707889 4.33333333,14.8707889 L4.33333333,14.8707889 Z" id="Fill-104" opacity="0.2" fill="#0A0B09" sketch:type="MSShapeGroup"></path>
        <path d="M11.3703704,12.3159125 C11.3703704,10.5019503 12.8666667,9.03326134 14.7037037,9.03326134 C16.5481481,9.03326134 18.037037,10.5019503 18.037037,12.3159125 C18.037037,14.1320647 16.5481481,15.5992937 14.7037037,15.5992937 C12.8666667,15.6007536 11.3703704,14.1320647 11.3703704,12.3159125 L11.3703704,12.3159125 Z M14.7037037,14.8707889 C16.1333333,14.8707889 17.2962963,13.7276642 17.2962963,12.3151826 C17.2962963,10.9048908 16.1333333,9.76103613 14.7037037,9.76103613 C13.2740741,9.76103613 12.1111111,10.9048908 12.1111111,12.3151826 C12.1111111,13.7276642 13.2740741,14.8707889 14.7037037,14.8707889 L14.7037037,14.8707889 Z" id="Fill-105" opacity="0.2" fill="#0A0B09" sketch:type="MSShapeGroup"></path>
        <path d="M11.5037037,7.42149932 C11.3185185,7.42514914 11.1259259,7.33682342 10.9851852,7.11491415 L10.1777778,5.87470416 L8.51851852,7.49522575 L10.0592593,8.29453708 C10.6962963,8.5938226 10.6,9.14275604 10.6,9.14275604 L10.6,12.5786998 C10.6,12.967771 10.2814815,13.2853056 9.88148148,13.2853056 C9.48888889,13.2853056 9.17037037,12.967771 9.17037037,12.5786998 L9.17037037,9.82746292 L6.4962963,8.36534366 C6.17777778,8.18942217 5.96296296,7.85509834 5.96296296,7.47332681 C5.96296296,7.2090796 6.06666667,6.96965118 6.22962963,6.78861994 L8.85185185,4.2016251 C9.17777778,3.83956262 9.62962963,3.89722983 9.62962963,3.89722983 C10.1777778,3.89722983 10.4666667,4.36951698 10.4666667,4.36951698 L11.8296296,6.47254523 L13.8962963,6.46889541 C14.637037,6.46889541 14.637037,7.42514914 13.8962963,7.42514914 L11.5037037,7.42514914 L11.5037037,7.42149932" id="Fill-106" opacity="0.2" fill="#0A0B09" sketch:type="MSShapeGroup"></path>
        <path d="M11.3703704,1 L12.8518519,1 L12.8518519,1.72996468 L13.5925926,1.72996468 L13.5925926,3.18989405 L12.8518519,3.18989405 L12.8518519,3.91985873 L11.3703704,3.91985873 L11.3703704,3.18989405 L10.6296296,3.18989405 L10.6296296,1.72996468 L11.3703704,1.72996468 L11.3703704,1" id="Fill-107" opacity="0.2" fill="#0A0B09" sketch:type="MSShapeGroup"></path>
        <path d="M0,11.3159125 C0,9.50195029 1.4962963,8.03326134 3.33333333,8.03326134 C5.17777778,8.03326134 6.66666667,9.50195029 6.66666667,11.3159125 C6.66666667,13.1320647 5.17777778,14.5992937 3.33333333,14.5992937 C1.4962963,14.6007536 0,13.1320647 0,11.3159125 L0,11.3159125 Z M3.33333333,13.8707889 C4.76296296,13.8707889 5.92592593,12.7276642 5.92592593,11.3151826 C5.92592593,9.90489079 4.76296296,8.76103613 3.33333333,8.76103613 C1.9037037,8.76103613 0.740740741,9.90489079 0.740740741,11.3151826 C0.740740741,12.7276642 1.9037037,13.8707889 3.33333333,13.8707889 L3.33333333,13.8707889 Z" id="Fill-104" fill="#0A0B09" sketch:type="MSShapeGroup"></path>
        <path d="M10.3703704,11.3159125 C10.3703704,9.50195029 11.8666667,8.03326134 13.7037037,8.03326134 C15.5481481,8.03326134 17.037037,9.50195029 17.037037,11.3159125 C17.037037,13.1320647 15.5481481,14.5992937 13.7037037,14.5992937 C11.8666667,14.6007536 10.3703704,13.1320647 10.3703704,11.3159125 L10.3703704,11.3159125 Z M13.7037037,13.8707889 C15.1333333,13.8707889 16.2962963,12.7276642 16.2962963,11.3151826 C16.2962963,9.90489079 15.1333333,8.76103613 13.7037037,8.76103613 C12.2740741,8.76103613 11.1111111,9.90489079 11.1111111,11.3151826 C11.1111111,12.7276642 12.2740741,13.8707889 13.7037037,13.8707889 L13.7037037,13.8707889 Z" id="Fill-105" fill="#0A0B09" sketch:type="MSShapeGroup"></path>
        <path d="M10.5037037,6.42149932 C10.3185185,6.42514914 10.1259259,6.33682342 9.98518519,6.11491415 L9.17777778,4.87470416 L7.51851852,6.49522575 L9.05925926,7.29453708 C9.6962963,7.5938226 9.6,8.14275604 9.6,8.14275604 L9.6,11.5786998 C9.6,11.967771 9.28148148,12.2853056 8.88148148,12.2853056 C8.48888889,12.2853056 8.17037037,11.967771 8.17037037,11.5786998 L8.17037037,8.82746292 L5.4962963,7.36534366 C5.17777778,7.18942217 4.96296296,6.85509834 4.96296296,6.47332681 C4.96296296,6.2090796 5.06666667,5.96965118 5.22962963,5.78861994 L7.85185185,3.2016251 C8.17777778,2.83956262 8.62962963,2.89722983 8.62962963,2.89722983 C9.17777778,2.89722983 9.46666667,3.36951698 9.46666667,3.36951698 L10.8296296,5.47254523 L12.8962963,5.46889541 C13.637037,5.46889541 13.637037,6.42514914 12.8962963,6.42514914 L10.5037037,6.42514914 L10.5037037,6.42149932" id="Fill-106" fill="#0A0B09" sketch:type="MSShapeGroup"></path>
        <path d="M10.3703704,0 L11.8518519,0 L11.8518519,0.729964684 L12.5925926,0.729964684 L12.5925926,2.18989405 L11.8518519,2.18989405 L11.8518519,2.91985873 L10.3703704,2.91985873 L10.3703704,2.18989405 L9.62962963,2.18989405 L9.62962963,0.729964684 L10.3703704,0.729964684 L10.3703704,0" id="Fill-107" fill="#0A0B09" sketch:type="MSShapeGroup"></path>
    </g>
</svg>