<?xml version="1.0" encoding="utf-8"?>
<!-- Generator: Adobe Illustrator 18.1.1, SVG Export Plug-In . SVG Version: 6.00 Build 0)  -->
<svg version="1.1" xmlns="http://www.w3.org/2000/svg" xmlns:xlink="http://www.w3.org/1999/xlink" x="0px" y="0px"
	 viewBox="0 0 18 18" enable-background="new 0 0 18 18" xml:space="preserve">
<g id="shadows">
	<g opacity="0.2">
		<path d="M11.7,8.8c-0.1,0-0.3-0.1-0.4-0.2l-0.6-0.9L9.6,8.8l1.1,0.6C11.1,9.6,11,10,11,10v2.4c0,0.3-0.2,0.5-0.5,0.5
			s-0.5-0.2-0.5-0.5v-1.9l-1.9-1C8,9.3,7.8,9.1,7.8,8.8c0-0.2,0.1-0.4,0.2-0.5l1.8-1.8c0.2-0.3,0.5-0.2,0.5-0.2
			c0.4,0,0.6,0.3,0.6,0.3l1,1.5l1.4,0c0.5,0,0.5,0.7,0,0.7L11.7,8.8L11.7,8.8z"/>
		<polygon points="11.9,4 12.7,4 12.7,4.8 13.5,4.8 13.5,5.6 12.7,5.6 12.7,6.4 11.9,6.4 11.9,5.6 11.1,5.6 11.1,4.8 11.9,4.8 		"/>
		<path d="M4.6,9.7h3.3v0.8h0.8v3.2H7.8v0.8H4.6v-0.8H3.7v-3.2h0.8V9.7z M5.4,11.3H4.6v1.6h0.8v0.8H7v-0.8h0.8v-1.6H7v-0.8H5.4V11.3
			z"/>
		<path d="M12.7,9.7h3.3v0.8h0.8v3.2h-0.8v0.8h-3.3v-0.8h-0.8v-3.2h0.8V9.7z M13.5,11.3h-0.8v1.6h0.8v0.8h1.6v-0.8h0.8v-1.6h-0.8
			v-0.8h-1.6V11.3z"/>
	</g>
</g>
<g id="icons">
	<g>
		<path fill="#FFFFFF" d="M10.9,8c-0.1,0-0.3-0.1-0.4-0.2L10,6.9L8.8,8.1l1.1,0.6c0.4,0.2,0.4,0.6,0.4,0.6v2.4
			c0,0.3-0.2,0.5-0.5,0.5s-0.5-0.2-0.5-0.5V9.7l-1.9-1C7.2,8.5,7.1,8.3,7.1,8c0-0.2,0.1-0.4,0.2-0.5l1.8-1.8
			c0.2-0.3,0.5-0.2,0.5-0.2c0.4,0,0.6,0.3,0.6,0.3l1,1.5l1.4,0c0.5,0,0.5,0.7,0,0.7L10.9,8L10.9,8z"/>
		<polygon fill="#FFFFFF" points="11.1,3.2 11.9,3.2 11.9,4 12.8,4 12.8,4.8 11.9,4.8 11.9,5.7 11.1,5.7 11.1,4.8 10.3,4.8 10.3,4 
			11.1,4 		"/>
		<path fill="#FFFFFF" d="M3.8,8.9h3.3v0.8h0.8V13H7.1v0.8H3.8V13H3V9.7h0.8V8.9z M4.6,10.5H3.8v1.6h0.8V13h1.6v-0.8h0.8v-1.6H6.2
			V9.7H4.6V10.5z"/>
		<path fill="#FFFFFF" d="M11.9,8.9h3.3v0.8H16V13h-0.8v0.8h-3.3V13h-0.8V9.7h0.8V8.9z M12.8,10.5h-0.8v1.6h0.8V13h1.6v-0.8h0.8
			v-1.6h-0.8V9.7h-1.6V10.5z"/>
	</g>
</g>
<g id="guides">
</g>
</svg>
