<?xml version="1.0" encoding="utf-8"?>
<!-- Generator: Adobe Illustrator 18.0.0, SVG Export Plug-In . SVG Version: 6.00 Build 0)  -->
<!DOCTYPE svg PUBLIC "-//W3C//DTD SVG 1.1//EN" "http://www.w3.org/Graphics/SVG/1.1/DTD/svg11.dtd" [
	<!ENTITY ns_flows "http://ns.adobe.com/Flows/1.0/">
	<!ENTITY ns_extend "http://ns.adobe.com/Extensibility/1.0/">
	<!ENTITY ns_ai "http://ns.adobe.com/AdobeIllustrator/10.0/">
	<!ENTITY ns_graphs "http://ns.adobe.com/Graphs/1.0/">
	<!ENTITY st0 "opacity:0.5;">
	<!ENTITY st1 "fill:#010101;">
	<!ENTITY st2 "opacity:0.75;">
	<!ENTITY st3 "fill:#FFFFFF;">
]>
<svg version="1.1" id="Layer_1" xmlns:x="&ns_extend;" xmlns:i="&ns_ai;" xmlns:graph="&ns_graphs;"
	 xmlns="http://www.w3.org/2000/svg" xmlns:xlink="http://www.w3.org/1999/xlink" xmlns:a="http://ns.adobe.com/AdobeSVGViewerExtensions/3.0/"
	 x="0px" y="0px" width="25px" height="22px" viewBox="0 0 25 22" style="enable-background:new 0 0 25 22;" xml:space="preserve">
<g style="&st0;">
	<path style="&st1;" d="M6.5,21c1.9,0,3.5-1.6,3.5-3.5c0-1.9-1.6-3.5-3.5-3.5C4.6,14,3,15.6,3,17.5C3,19.4,4.6,21,6.5,21z M2,17.5
		C2,15,4,13,6.5,13C9,13,11,15,11,17.5C11,20,9,22,6.5,22C4,22,2,20,2,17.5z"/>
	<path style="&st1;" d="M20.5,21c1.9,0,3.5-1.6,3.5-3.5c0-1.9-1.6-3.5-3.5-3.5c-1.9,0-3.5,1.6-3.5,3.5C17,19.4,18.6,21,20.5,21z
		 M16,17.5c0-2.5,2-4.5,4.5-4.5c2.5,0,4.5,2,4.5,4.5c0,2.5-2,4.5-4.5,4.5C18,22,16,20,16,17.5z"/>
	<path style="&st1;" d="M16.2,10.8c-0.2,0-0.5-0.1-0.7-0.4l-1.1-1.7l-2.2,2.2l2.1,1.1c0.9,0.4,0.7,1.2,0.7,1.2v4.7c0,0.5-0.4,1-1,1
		s-1-0.4-1-1v-3.8l-3.6-2c-0.4-0.2-0.7-0.7-0.7-1.2c0-0.4,0.1-0.7,0.4-0.9l3.5-3.5C13,5.9,13.7,6,13.7,6c0.7,0,1.1,0.6,1.1,0.6
		l1.8,2.9l2.8,0c1,0,1,1.3,0,1.3L16.2,10.8L16.2,10.8z"/>
	<polygon style="&st1;" points="16,2 18,2 18,3 19,3 19,5 18,5 18,6 16,6 16,5 15,5 15,3 16,3 	"/>
</g>
<g style="&st2;">
	<path style="&st1;" d="M5.5,20C7.4,20,9,18.4,9,16.5C9,14.6,7.4,13,5.5,13C3.6,13,2,14.6,2,16.5C2,18.4,3.6,20,5.5,20z M1,16.5
		C1,14,3,12,5.5,12C8,12,10,14,10,16.5C10,19,8,21,5.5,21C3,21,1,19,1,16.5z"/>
	<path style="&st1;" d="M19.5,20c1.9,0,3.5-1.6,3.5-3.5c0-1.9-1.6-3.5-3.5-3.5c-1.9,0-3.5,1.6-3.5,3.5C16,18.4,17.6,20,19.5,20z
		 M15,16.5c0-2.5,2-4.5,4.5-4.5c2.5,0,4.5,2,4.5,4.5c0,2.5-2,4.5-4.5,4.5C17,21,15,19,15,16.5z"/>
	<path style="&st1;" d="M15.2,9.8c-0.2,0-0.5-0.1-0.7-0.4l-1.1-1.7l-2.2,2.2l2.1,1.1c0.9,0.4,0.7,1.2,0.7,1.2v4.7c0,0.5-0.4,1-1,1
		s-1-0.4-1-1v-3.8l-3.6-2C8,10.8,7.7,10.4,7.7,9.9c0-0.4,0.1-0.7,0.4-0.9l3.5-3.5C12,4.9,12.7,5,12.7,5c0.7,0,1.1,0.6,1.1,0.6
		l1.8,2.9l2.8,0c1,0,1,1.3,0,1.3L15.2,9.8L15.2,9.8z"/>
	<polygon style="&st1;" points="15,1 17,1 17,2 18,2 18,4 17,4 17,5 15,5 15,4 14,4 14,2 15,2 	"/>
</g>
<g>
	<path style="&st3;" d="M4.5,19C6.4,19,8,17.4,8,15.5C8,13.6,6.4,12,4.5,12C2.6,12,1,13.6,1,15.5C1,17.4,2.6,19,4.5,19z M0,15.5
		C0,13,2,11,4.5,11C7,11,9,13,9,15.5C9,18,7,20,4.5,20C2,20,0,18,0,15.5z"/>
	<path style="&st3;" d="M18.5,19c1.9,0,3.5-1.6,3.5-3.5c0-1.9-1.6-3.5-3.5-3.5c-1.9,0-3.5,1.6-3.5,3.5C15,17.4,16.6,19,18.5,19z
		 M14,15.5c0-2.5,2-4.5,4.5-4.5c2.5,0,4.5,2,4.5,4.5c0,2.5-2,4.5-4.5,4.5C16,20,14,18,14,15.5z"/>
	<path style="&st3;" d="M14.2,8.8c-0.2,0-0.5-0.1-0.7-0.4l-1.1-1.7l-2.2,2.2l2.1,1.1c0.9,0.4,0.7,1.2,0.7,1.2v4.7c0,0.5-0.4,1-1,1
		s-1-0.4-1-1v-3.8l-3.6-2C7,9.8,6.7,9.4,6.7,8.9c0-0.4,0.1-0.7,0.4-0.9l3.5-3.5C11,3.9,11.7,4,11.7,4c0.7,0,1.1,0.6,1.1,0.6l1.8,2.9
		l2.8,0c1,0,1,1.3,0,1.3L14.2,8.8L14.2,8.8z"/>
	<polygon style="&st3;" points="14,0 16,0 16,1 17,1 17,3 16,3 16,4 14,4 14,3 13,3 13,1 14,1 	"/>
</g>
</svg>
