<?xml version="1.0" encoding="utf-8"?>
<!-- Generator: Adobe Illustrator 18.1.1, SVG Export Plug-In . SVG Version: 6.00 Build 0)  -->
<svg version="1.1" xmlns="http://www.w3.org/2000/svg" xmlns:xlink="http://www.w3.org/1999/xlink" x="0px" y="0px"
	 viewBox="0 0 12 12" enable-background="new 0 0 12 12" xml:space="preserve">
<g id="shadows">
	<g opacity="0.2">
		<path d="M8,5.7c-0.1,0-0.2,0-0.2-0.2L7.4,4.9L6.5,5.7l0.7,0.4c0.3,0.1,0.3,0.4,0.3,0.4v1.7c0,0.2-0.2,0.3-0.3,0.3
			C7,8.5,6.9,8.4,6.9,8.2V6.8L5.6,6.1C5.4,6,5.3,5.9,5.3,5.7c0-0.1,0-0.2,0.1-0.3l1.3-1.3c0.2-0.2,0.4-0.1,0.4-0.1
			c0.3,0,0.4,0.2,0.4,0.2l0.7,1l1,0c0.4,0,0.4,0.5,0,0.5L8,5.7L8,5.7z"/>
		<polygon points="8.1,2.3 8.7,2.3 8.7,2.9 9.2,2.9 9.2,3.5 8.7,3.5 8.7,4 8.1,4 8.1,3.5 7.6,3.5 7.6,2.9 8.1,2.9 		"/>
		<path d="M3.1,6.3h2.2v0.6h0.6v2.2H5.3v0.6H3.1V9.1H2.5V6.8h0.6V6.3z M3.6,7.4H3.1v1.1h0.6v0.6h1.1V8.5h0.6V7.4H4.8V6.8H3.6V7.4z"
			/>
		<path d="M8.7,6.3h2.2v0.6h0.6v2.2h-0.6v0.6H8.7V9.1H8.1V6.8h0.6V6.3z M9.2,7.4H8.7v1.1h0.6v0.6h1.1V8.5h0.6V7.4h-0.6V6.8H9.2V7.4z
			"/>
	</g>
</g>
<g id="icons">
	<g>
		<path d="M7.5,5.2c-0.1,0-0.2,0-0.2-0.2L6.9,4.4L6,5.2l0.7,0.4C7.1,5.7,7.1,6,7.1,6v1.7C7.1,7.9,6.9,8,6.7,8C6.5,8,6.4,7.9,6.4,7.7
			V6.3L5.1,5.6C4.9,5.5,4.8,5.4,4.8,5.2c0-0.1,0-0.2,0.1-0.3l1.3-1.3c0.2-0.2,0.4-0.1,0.4-0.1C6.8,3.4,7,3.7,7,3.7l0.7,1l1,0
			c0.4,0,0.4,0.5,0,0.5L7.5,5.2L7.5,5.2z"/>
		<polygon points="7.6,1.8 8.2,1.8 8.2,2.4 8.7,2.4 8.7,3 8.2,3 8.2,3.5 7.6,3.5 7.6,3 7.1,3 7.1,2.4 7.6,2.4 		"/>
		<path d="M2.6,5.8h2.2v0.6h0.6v2.2H4.8v0.6H2.6V8.6H2V6.3h0.6V5.8z M3.1,6.9H2.6V8h0.6v0.6h1.1V8h0.6V6.9H4.3V6.3H3.1V6.9z"/>
		<path d="M8.2,5.8h2.2v0.6H11v2.2h-0.6v0.6H8.2V8.6H7.6V6.3h0.6V5.8z M8.7,6.9H8.2V8h0.6v0.6h1.1V8h0.6V6.9H9.9V6.3H8.7V6.9z"/>
	</g>
</g>
<g id="guides">
</g>
</svg>
