<?xml version="1.0" encoding="utf-8"?>
<!-- Generator: Adobe Illustrator 18.1.1, SVG Export Plug-In . SVG Version: 6.00 Build 0)  -->
<svg version="1.1" xmlns="http://www.w3.org/2000/svg" xmlns:xlink="http://www.w3.org/1999/xlink" x="0px" y="0px"
	 viewBox="0 0 24 24" enable-background="new 0 0 24 24" xml:space="preserve">
<g id="shadows">
	<g opacity="0.2">
		<path d="M8.3,19.2c1.4,0,2.6-1.2,2.6-2.6c0-1.4-1.2-2.6-2.6-2.6c-1.4,0-2.6,1.2-2.6,2.6C5.7,18,6.9,19.2,8.3,19.2z M5,16.6
			c0-1.8,1.5-3.3,3.3-3.3c1.8,0,3.3,1.5,3.3,3.3c0,1.8-1.5,3.3-3.3,3.3C6.5,19.9,5,18.4,5,16.6z"/>
		<path d="M18.7,19.2c1.4,0,2.6-1.2,2.6-2.6c0-1.4-1.2-2.6-2.6-2.6c-1.4,0-2.6,1.2-2.6,2.6C16.1,18,17.2,19.2,18.7,19.2z M15.3,16.6
			c0-1.8,1.5-3.3,3.3-3.3c1.8,0,3.3,1.5,3.3,3.3c0,1.8-1.5,3.3-3.3,3.3C16.8,19.9,15.3,18.4,15.3,16.6z"/>
		<path d="M15.5,11.6c-0.2,0-0.4-0.1-0.5-0.3L14.2,10l-1.7,1.6l1.5,0.8c0.6,0.3,0.5,0.9,0.5,0.9v3.5c0,0.4-0.3,0.7-0.7,0.7
			c-0.4,0-0.7-0.3-0.7-0.7V14l-2.7-1.5c-0.3-0.2-0.5-0.5-0.5-0.9c0-0.3,0.1-0.5,0.3-0.7l2.6-2.6C13.2,8,13.6,8,13.6,8
			c0.5,0,0.8,0.5,0.8,0.5l1.4,2.1l2.1,0c0.7,0,0.7,1,0,1L15.5,11.6L15.5,11.6z"/>
		<polygon points="15.3,5.1 16.8,5.1 16.8,5.8 17.6,5.8 17.6,7.3 16.8,7.3 16.8,8.1 15.3,8.1 15.3,7.3 14.6,7.3 14.6,5.8 15.3,5.8 
					"/>
	</g>
</g>
<g id="icons">
	<g>
		<path fill="#FFFFFF" d="M7.3,18.2c1.4,0,2.6-1.2,2.6-2.6c0-1.4-1.2-2.6-2.6-2.6c-1.4,0-2.6,1.2-2.6,2.6C4.7,17,5.9,18.2,7.3,18.2z
			 M4,15.6c0-1.8,1.5-3.3,3.3-3.3c1.8,0,3.3,1.5,3.3,3.3c0,1.8-1.5,3.3-3.3,3.3C5.5,18.9,4,17.4,4,15.6z"/>
		<path fill="#FFFFFF" d="M17.7,18.2c1.4,0,2.6-1.2,2.6-2.6c0-1.4-1.2-2.6-2.6-2.6c-1.4,0-2.6,1.2-2.6,2.6
			C15.1,17,16.2,18.2,17.7,18.2z M14.3,15.6c0-1.8,1.5-3.3,3.3-3.3c1.8,0,3.3,1.5,3.3,3.3c0,1.8-1.5,3.3-3.3,3.3
			C15.8,18.9,14.3,17.4,14.3,15.6z"/>
		<path fill="#FFFFFF" d="M14.5,10.6c-0.2,0-0.4-0.1-0.5-0.3L13.2,9l-1.7,1.6l1.5,0.8c0.6,0.3,0.5,0.9,0.5,0.9v3.5
			c0,0.4-0.3,0.7-0.7,0.7c-0.4,0-0.7-0.3-0.7-0.7V13l-2.7-1.5C9.2,11.4,9,11.1,9,10.7c0-0.3,0.1-0.5,0.3-0.7l2.6-2.6
			C12.2,7,12.6,7,12.6,7c0.5,0,0.8,0.5,0.8,0.5l1.4,2.1l2.1,0c0.7,0,0.7,1,0,1L14.5,10.6L14.5,10.6z"/>
		<polygon fill="#FFFFFF" points="14.3,4.1 15.8,4.1 15.8,4.8 16.6,4.8 16.6,6.3 15.8,6.3 15.8,7.1 14.3,7.1 14.3,6.3 13.6,6.3 
			13.6,4.8 14.3,4.8 		"/>
	</g>
</g>
<g id="guides">
</g>
</svg>
