<?xml version="1.0" encoding="UTF-8" standalone="no"?>
<!-- Created with Inkscape (http://www.inkscape.org/) -->

<svg
   xmlns:dc="http://purl.org/dc/elements/1.1/"
   xmlns:cc="http://creativecommons.org/ns#"
   xmlns:rdf="http://www.w3.org/1999/02/22-rdf-syntax-ns#"
   xmlns:svg="http://www.w3.org/2000/svg"
   xmlns="http://www.w3.org/2000/svg"
   xmlns:sodipodi="http://sodipodi.sourceforge.net/DTD/sodipodi-0.dtd"
   xmlns:inkscape="http://www.inkscape.org/namespaces/inkscape"
   width="18"
   height="18"
   id="svg27920"
   version="1.1"
   inkscape:version="0.48.2 r9819"
   sodipodi:docname="boat-launch-white-18.svg">
  <defs
     id="defs27922" />
  <sodipodi:namedview
     id="base"
     pagecolor="#ffffff"
     bordercolor="#666666"
     borderopacity="1.0"
     inkscape:pageopacity="0.0"
     inkscape:pageshadow="2"
     inkscape:zoom="10.042824"
     inkscape:cx="9.5252289"
     inkscape:cy="7.8711472"
     inkscape:document-units="px"
     inkscape:current-layer="layer1"
     showgrid="false"
     inkscape:window-width="483"
     inkscape:window-height="454"
     inkscape:window-x="1047"
     inkscape:window-y="321"
     inkscape:window-maximized="0" />
  <metadata
     id="metadata27925">
    <rdf:RDF>
      <cc:Work
         rdf:about="">
        <dc:format>image/svg+xml</dc:format>
        <dc:type
           rdf:resource="http://purl.org/dc/dcmitype/StillImage" />
        <dc:title></dc:title>
      </cc:Work>
    </rdf:RDF>
  </metadata>
  <g
     inkscape:label="Layer 1"
     inkscape:groupmode="layer"
     id="layer1"
     transform="translate(0,-1034.3622)">
    <g
       transform="matrix(1.8209408,0,0,1.8209408,-227.59224,652.79387)"
       id="g29131">
      <path
         d="m 133.668,219.395 c 0.652,0 1.182,-0.527 1.182,-1.18 v -7.522 c 0,-0.652 -0.529,-1.181 -1.182,-1.181 h -7.521 c -0.652,0 -1.182,0.528 -1.182,1.181 v 7.522 c 0,0.652 0.529,1.18 1.182,1.18 h 7.521 z"
         id="path29133"
         inkscape:connector-curvature="0"
         style="opacity:0;fill:#272525" />
      <g
         style="opacity:0.6;fill:none;stroke:#1d1d1c;stroke-width:0.5;stroke-miterlimit:4;stroke-opacity:1;stroke-dasharray:none"
         id="g29135"
         transform="translate(103.807,83.279)">
        <path
           d="m 23.512,134.353 c 0.792,0 1.435,-0.642 1.435,-1.435 0,-0.792 -0.643,-1.434 -1.435,-1.434 -0.79,0 -1.433,0.642 -1.433,1.434 0,0.793 0.643,1.435 1.433,1.435 z m -1.759,-1.435 c 0,-0.972 0.789,-1.759 1.759,-1.759 0.973,0 1.761,0.787 1.761,1.759 0,0.973 -0.788,1.759 -1.761,1.759 -0.97,0.001 -1.759,-0.786 -1.759,-1.759 z"
           id="path29137"
           inkscape:connector-curvature="0"
           style="fill:none;stroke:#1d1d1c;stroke-width:0.5;stroke-miterlimit:4;stroke-opacity:1;stroke-dasharray:none" />
        <path
           d="m 28.691,134.37 c 0.79,0 1.433,-0.642 1.433,-1.434 0,-0.792 -0.643,-1.435 -1.433,-1.435 -0.792,0 -1.435,0.642 -1.435,1.435 0.001,0.792 0.643,1.434 1.435,1.434 z m -1.76,-1.434 c 0,-0.973 0.789,-1.759 1.761,-1.759 0.97,0 1.759,0.787 1.759,1.759 0,0.972 -0.789,1.759 -1.759,1.759 -0.972,0 -1.761,-0.787 -1.761,-1.759 z"
           id="path29139"
           inkscape:connector-curvature="0"
           style="fill:none;stroke:#1d1d1c;stroke-width:0.5;stroke-miterlimit:4;stroke-opacity:1;stroke-dasharray:none" />
        <circle
           cx="26.936001"
           cy="127.981"
           r="0.66100001"
           id="circle29141"
           sodipodi:cx="26.936001"
           sodipodi:cy="127.981"
           sodipodi:rx="0.66100001"
           sodipodi:ry="0.66100001"
           style="fill:none;stroke:#1d1d1c;stroke-width:0.5;stroke-miterlimit:4;stroke-opacity:1;stroke-dasharray:none"
           d="m 27.597001,127.981 c 0,0.36506 -0.29594,0.661 -0.661,0.661 -0.36506,0 -0.661,-0.29594 -0.661,-0.661 0,-0.36506 0.29594,-0.661 0.661,-0.661 0.36506,0 0.661,0.29594 0.661,0.661 z" />
        <path
           d="m 26.963,130.248 c -0.096,0.002 -0.199,-0.046 -0.275,-0.166 l -0.43,-0.672 -0.887,0.878 0.822,0.433 c 0.338,0.162 0.287,0.459 0.287,0.459 v 1.861 c 0,0.211 -0.17,0.383 -0.381,0.383 -0.211,0 -0.381,-0.172 -0.381,-0.383 v -1.49 l -1.426,-0.792 c -0.17,-0.095 -0.285,-0.276 -0.285,-0.483 0,-0.143 0.053,-0.273 0.143,-0.371 l 1.398,-1.401 c 0.174,-0.196 0.416,-0.165 0.416,-0.165 0.293,0 0.447,0.256 0.447,0.256 l 0.727,1.139 1.104,-0.002 c 0.396,0 0.396,0.518 0,0.518 h -1.279 z"
           id="path29143"
           inkscape:connector-curvature="0"
           style="fill:none;stroke:#1d1d1c;stroke-width:0.5;stroke-miterlimit:4;stroke-opacity:1;stroke-dasharray:none" />
      </g>
      <g
         id="g29145"
         transform="translate(103.807,83.279)"
         style="fill:#ffffff;fill-opacity:1">
        <path
           style="fill:#ffffff;fill-opacity:1"
           inkscape:connector-curvature="0"
           id="path29147"
           d="m 23.512,134.353 c 0.792,0 1.435,-0.642 1.435,-1.435 0,-0.792 -0.643,-1.434 -1.435,-1.434 -0.79,0 -1.433,0.642 -1.433,1.434 0,0.793 0.643,1.435 1.433,1.435 z m -1.759,-1.435 c 0,-0.972 0.789,-1.759 1.759,-1.759 0.973,0 1.761,0.787 1.761,1.759 0,0.973 -0.788,1.759 -1.761,1.759 -0.97,0.001 -1.759,-0.786 -1.759,-1.759 z" />
        <path
           style="fill:#ffffff;fill-opacity:1"
           inkscape:connector-curvature="0"
           id="path29149"
           d="m 28.691,134.37 c 0.79,0 1.433,-0.642 1.433,-1.434 0,-0.792 -0.643,-1.435 -1.433,-1.435 -0.792,0 -1.435,0.642 -1.435,1.435 0.001,0.792 0.643,1.434 1.435,1.434 z m -1.76,-1.434 c 0,-0.973 0.789,-1.759 1.761,-1.759 0.97,0 1.759,0.787 1.759,1.759 0,0.972 -0.789,1.759 -1.759,1.759 -0.972,0 -1.761,-0.787 -1.761,-1.759 z" />
        <circle
           style="fill:#ffffff;fill-opacity:1"
           sodipodi:ry="0.66100001"
           sodipodi:rx="0.66100001"
           sodipodi:cy="127.981"
           sodipodi:cx="26.936001"
           id="circle29151"
           r="0.66100001"
           cy="127.981"
           cx="26.936001"
           d="m 27.597001,127.981 c 0,0.36506 -0.29594,0.661 -0.661,0.661 -0.36506,0 -0.661,-0.29594 -0.661,-0.661 0,-0.36506 0.29594,-0.661 0.661,-0.661 0.36506,0 0.661,0.29594 0.661,0.661 z" />
        <path
           style="fill:#ffffff;fill-opacity:1"
           inkscape:connector-curvature="0"
           id="path29153"
           d="m 26.963,130.248 c -0.096,0.002 -0.199,-0.046 -0.275,-0.166 l -0.43,-0.672 -0.887,0.878 0.822,0.433 c 0.338,0.162 0.287,0.459 0.287,0.459 v 1.861 c 0,0.211 -0.17,0.383 -0.381,0.383 -0.211,0 -0.381,-0.172 -0.381,-0.383 v -1.49 l -1.426,-0.792 c -0.17,-0.095 -0.285,-0.276 -0.285,-0.483 0,-0.143 0.053,-0.273 0.143,-0.371 l 1.398,-1.401 c 0.174,-0.196 0.416,-0.165 0.416,-0.165 0.293,0 0.447,0.256 0.447,0.256 l 0.727,1.139 1.104,-0.002 c 0.396,0 0.396,0.518 0,0.518 h -1.279 z" />
      </g>
    </g>
  </g>
</svg>
