<?xml version="1.0" encoding="utf-8"?>
<!-- Generator: Adobe Illustrator 18.1.1, SVG Export Plug-In . SVG Version: 6.00 Build 0)  -->
<svg version="1.1" xmlns="http://www.w3.org/2000/svg" xmlns:xlink="http://www.w3.org/1999/xlink" x="0px" y="0px"
	 viewBox="0 0 24 24" enable-background="new 0 0 24 24" xml:space="preserve">
<g id="shadows">
	<g opacity="0.2">
		<path d="M16.5,5.9H5v5.4h14.7v-0.8l-1.9-3.9C17.5,6.2,17,5.9,16.5,5.9z M8.1,10.6H5.8V8.2l0.8-0.8h0.8l0.8,0.8V10.6z M11.2,10.6
			H8.9V8.2l0.8-0.8h0.8l0.8,0.8V10.6z M14.3,10.6H12V8.2l0.8-0.8h0.8l0.8,0.8V10.6z M15.8,10.6V7.5h0.8h0.8l1.5,3.1H15.8z"/>
		<polygon points="7.3,16 8.1,16 9.6,15.2 10.4,15.2 12,16 12.7,16 14.3,15.2 15,15.2 16.6,16 17.4,16 18.9,15.2 19.5,15.2 22,12.1 
			5,12.1 5,15.2 5.8,15.2 		"/>
		<polygon points="5,16.8 5.8,16.8 7.3,17.5 8.1,17.5 9.6,16.8 10.4,16.8 12,17.5 12.7,17.5 14.3,16.8 15,16.8 16.6,17.5 17.4,17.5 
			18.9,16.8 19.7,16.8 21.2,17.5 22,17.5 22,19.1 21.2,19.1 19.7,18.3 18.9,18.3 17.4,19.1 16.6,19.1 15,18.3 14.3,18.3 12.7,19.1 
			12,19.1 10.4,18.3 9.6,18.3 8.1,19.1 7.3,19.1 5.8,18.3 5,18.3 		"/>
	</g>
</g>
<g id="icons">
	<g>
		<path d="M15.5,4.9H4v5.4h14.7V9.6l-1.9-3.9C16.5,5.2,16,4.9,15.5,4.9z M7.1,9.6H4.8V7.2l0.8-0.8h0.8l0.8,0.8V9.6z M10.2,9.6H7.9
			V7.2l0.8-0.8h0.8l0.8,0.8V9.6z M13.3,9.6H11V7.2l0.8-0.8h0.8l0.8,0.8V9.6z M14.8,9.6V6.5h0.8h0.8l1.5,3.1H14.8z"/>
		<polygon points="6.3,15 7.1,15 8.6,14.2 9.4,14.2 11,15 11.7,15 13.3,14.2 14,14.2 15.6,15 16.4,15 17.9,14.2 18.5,14.2 21,11.1 
			4,11.1 4,14.2 4.8,14.2 		"/>
		<polygon points="4,15.8 4.8,15.8 6.3,16.5 7.1,16.5 8.6,15.8 9.4,15.8 11,16.5 11.7,16.5 13.3,15.8 14,15.8 15.6,16.5 16.4,16.5 
			17.9,15.8 18.7,15.8 20.2,16.5 21,16.5 21,18.1 20.2,18.1 18.7,17.3 17.9,17.3 16.4,18.1 15.6,18.1 14,17.3 13.3,17.3 11.7,18.1 
			11,18.1 9.4,17.3 8.6,17.3 7.1,18.1 6.3,18.1 4.8,17.3 4,17.3 		"/>
	</g>
</g>
<g id="guides">
</g>
</svg>
