<?xml version="1.0" encoding="UTF-8" standalone="no"?>
<!-- Created with Inkscape (http://www.inkscape.org/) -->

<svg
   xmlns:dc="http://purl.org/dc/elements/1.1/"
   xmlns:cc="http://creativecommons.org/ns#"
   xmlns:rdf="http://www.w3.org/1999/02/22-rdf-syntax-ns#"
   xmlns:svg="http://www.w3.org/2000/svg"
   xmlns="http://www.w3.org/2000/svg"
   xmlns:sodipodi="http://sodipodi.sourceforge.net/DTD/sodipodi-0.dtd"
   xmlns:inkscape="http://www.inkscape.org/namespaces/inkscape"
   width="12"
   height="12"
   id="svg27498"
   version="1.1"
   inkscape:version="0.48.2 r9819"
   sodipodi:docname="store-black-12.svg">
  <defs
     id="defs27500" />
  <sodipodi:namedview
     id="base"
     pagecolor="#ffffff"
     bordercolor="#666666"
     borderopacity="1.0"
     inkscape:pageopacity="0.0"
     inkscape:pageshadow="2"
     inkscape:zoom="10.676107"
     inkscape:cx="9.6789942"
     inkscape:cy="5.7946291"
     inkscape:document-units="px"
     inkscape:current-layer="layer1"
     showgrid="false"
     inkscape:window-width="483"
     inkscape:window-height="454"
     inkscape:window-x="3716"
     inkscape:window-y="644"
     inkscape:window-maximized="0" />
  <metadata
     id="metadata27503">
    <rdf:RDF>
      <cc:Work
         rdf:about="">
        <dc:format>image/svg+xml</dc:format>
        <dc:type
           rdf:resource="http://purl.org/dc/dcmitype/StillImage" />
        <dc:title></dc:title>
      </cc:Work>
    </rdf:RDF>
  </metadata>
  <g
     inkscape:label="Layer 1"
     inkscape:groupmode="layer"
     id="layer1"
     transform="translate(0,-1040.3622)">
    <g
       transform="translate(-168.43104,887.01967)"
       id="g14561">
      <path
         d="m 178.99191,165.34723 c 0.79158,0 1.43383,-0.64104 1.43383,-1.43383 v -9.13113 c 0,-0.79158 -0.64104,-1.43383 -1.43383,-1.43383 h -9.13112 c -0.79159,0 -1.43505,0.64225 -1.43505,1.43383 v 9.13113 c 0,0.79158 0.64225,1.43383 1.43505,1.43383 h 9.13112 z"
         id="path28452"
         inkscape:connector-curvature="0"
         style="opacity:0;fill:#272525" />
      <path
         style="opacity:0.6;fill:#272525;stroke:#ffffff;stroke-width:0.60704172;stroke-miterlimit:4;stroke-opacity:1;stroke-dasharray:none"
         inkscape:connector-curvature="0"
         id="path28456"
         d="m 171.0603,155.76325 2.02024,0.54998 1.12181,-0.77822 0.38972,0.0935 -1.11089,0.78066 6.12263,1.67907 -0.448,1.64387 -6.14569,-1.67543 c -2.38082,-0.70781 -1.94739,-2.29583 -1.94739,-2.29583" />
      <path
         style="opacity:0.6;fill:#272525;stroke:#ffffff;stroke-width:0.60704172;stroke-miterlimit:4;stroke-opacity:1;stroke-dasharray:none"
         inkscape:connector-curvature="0"
         id="path28462"
         d="m 174.99757,160.48725 c 0.24889,0 0.45043,-0.20032 0.45043,-0.44921 0,-0.24889 -0.20154,-0.45042 -0.45043,-0.45042 -0.24888,0 -0.45042,0.20153 -0.45042,0.45042 0,0.24889 0.20154,0.44921 0.45042,0.44921 z m 4.51154,2.76083 c -0.21975,0 -0.42857,-0.0498 -0.61433,-0.13355 -0.19304,-0.0886 -0.40914,-0.14084 -0.63496,-0.14084 -0.22582,0 -0.44193,0.0522 -0.63254,0.14084 -0.18818,0.0838 -0.39701,0.13355 -0.61676,0.13355 -0.21974,0 -0.42857,-0.0498 -0.61675,-0.13355 -0.19183,-0.0886 -0.40793,-0.14084 -0.63254,-0.14084 -0.22703,0 -0.44192,0.0522 -0.63496,0.14084 -0.18576,0.0838 -0.39701,0.13355 -0.61554,0.13355 -0.21854,0 -0.42857,-0.0498 -0.61554,-0.13355 -0.19304,-0.0886 -0.41036,-0.14084 -0.63497,-0.14084 -0.2246,0 -0.44193,0.0522 -0.63254,0.14084 -0.18697,0.0838 -0.39822,0.13355 -0.61675,0.13355 -0.21854,0 -0.42857,-0.0498 -0.61676,-0.13355 -0.19061,-0.0886 -0.40793,-0.14084 -0.63253,-0.14084 -0.22461,0 -0.44193,0.0522 -0.63375,0.14084 -0.18697,0.0838 -0.39822,0.13355 -0.61554,0.13355 l -0.0146,-3.66896 5.05423,1.39255 c -0.34845,-0.16876 -0.59005,-0.52205 -0.59005,-0.93363 0,-0.57426 0.46499,-1.03804 1.03804,-1.03804 0.57305,0 1.03804,0.46499 1.03804,1.03804 0,0.57305 -0.4662,1.03804 -1.03804,1.03804 -0.034,0 -0.0692,-0.007 -0.10198,-0.0109 l 4.60623,1.26993 0.005,0.91299 z" />
      <path
         d="m 171.0603,155.76325 2.02024,0.54998 1.12181,-0.77822 0.38972,0.0935 -1.11089,0.78066 6.12263,1.67907 -0.448,1.64387 -6.14569,-1.67543 c -2.38082,-0.70781 -1.94739,-2.29583 -1.94739,-2.29583"
         id="path28466"
         inkscape:connector-curvature="0"
         style="fill:#272525" />
      <path
         d="m 174.99757,160.48725 c 0.24889,0 0.45043,-0.20032 0.45043,-0.44921 0,-0.24889 -0.20154,-0.45042 -0.45043,-0.45042 -0.24888,0 -0.45042,0.20153 -0.45042,0.45042 0,0.24889 0.20154,0.44921 0.45042,0.44921 z m 4.51154,2.76083 c -0.21975,0 -0.42857,-0.0498 -0.61433,-0.13355 -0.19304,-0.0886 -0.40914,-0.14084 -0.63496,-0.14084 -0.22582,0 -0.44193,0.0522 -0.63254,0.14084 -0.18818,0.0838 -0.39701,0.13355 -0.61676,0.13355 -0.21974,0 -0.42857,-0.0498 -0.61675,-0.13355 -0.19183,-0.0886 -0.40793,-0.14084 -0.63254,-0.14084 -0.22703,0 -0.44192,0.0522 -0.63496,0.14084 -0.18576,0.0838 -0.39701,0.13355 -0.61554,0.13355 -0.21854,0 -0.42857,-0.0498 -0.61554,-0.13355 -0.19304,-0.0886 -0.41036,-0.14084 -0.63497,-0.14084 -0.2246,0 -0.44193,0.0522 -0.63254,0.14084 -0.18697,0.0838 -0.39822,0.13355 -0.61675,0.13355 -0.21854,0 -0.42857,-0.0498 -0.61676,-0.13355 -0.19061,-0.0886 -0.40793,-0.14084 -0.63253,-0.14084 -0.22461,0 -0.44193,0.0522 -0.63375,0.14084 -0.18697,0.0838 -0.39822,0.13355 -0.61554,0.13355 l -0.0146,-3.66896 5.05423,1.39255 c -0.34845,-0.16876 -0.59005,-0.52205 -0.59005,-0.93363 0,-0.57426 0.46499,-1.03804 1.03804,-1.03804 0.57305,0 1.03804,0.46499 1.03804,1.03804 0,0.57305 -0.4662,1.03804 -1.03804,1.03804 -0.034,0 -0.0692,-0.007 -0.10198,-0.0109 l 4.60623,1.26993 0.005,0.91299 z"
         id="path28472"
         inkscape:connector-curvature="0"
         style="fill:#272525" />
    </g>
  </g>
</svg>
