<?xml version="1.0" encoding="utf-8"?>
<!-- Generator: Adobe Illustrator 18.1.1, SVG Export Plug-In . SVG Version: 6.00 Build 0)  -->
<svg version="1.1" xmlns="http://www.w3.org/2000/svg" xmlns:xlink="http://www.w3.org/1999/xlink" x="0px" y="0px"
	 viewBox="0 0 12 12" enable-background="new 0 0 12 12" xml:space="preserve">
<g id="shadows">
	<g opacity="0.2">
		<polygon points="1.5,5.7 1.5,7.6 9.2,7.6 9.2,7 9.9,7 9.9,6.3 10.5,6.3 10.5,5.7 		"/>
		<path d="M8.6,3.7V3.1H7.9V2.5H1.5V5h7.7V3.7H8.6z M2.8,4.4H2.1V3.1h0.6V4.4z M4.1,4.4H3.4V3.1h0.6V4.4z M5.4,4.4H4.7V3.1h0.6V4.4z
			 M7.9,4.4H6.6V3.1h0.6v0.6h0.6V4.4z"/>
		<path d="M10.5,8.6L9.9,8.9H9.2L7.9,8.3H7.3L6,8.9H5.4L4.1,8.3H3.4L2.1,8.9H1.5v0.6h0.6l1.3-0.6h0.6l1.3,0.6H6l1.3-0.6h0.6l1.3,0.6
			h0.6l0.6-0.3c0-0.1,0-0.2,0-0.3C10.5,8.8,10.5,8.7,10.5,8.6z"/>
	</g>
</g>
<g id="icons">
	<g>
		<polygon fill="#FFFFFF" points="1,5.2 1,7.1 8.7,7.1 8.7,6.5 9.4,6.5 9.4,5.8 10,5.8 10,5.2 		"/>
		<path fill="#FFFFFF" d="M8.1,3.2V2.6H7.4V2H1v2.6h7.7V3.2H8.1z M2.3,3.9H1.6V2.6h0.6V3.9z M3.6,3.9H2.9V2.6h0.6V3.9z M4.9,3.9H4.2
			V2.6h0.6V3.9z M7.4,3.9H6.1V2.6h0.6v0.6h0.6V3.9z"/>
		<path fill="#FFFFFF" d="M10,8.1L9.4,8.4H8.7L7.4,7.8H6.8L5.5,8.4H4.9L3.6,7.8H2.9L1.6,8.4H1V9h0.6l1.3-0.6h0.6L4.9,9h0.6l1.3-0.6
			h0.6L8.7,9h0.6L10,8.7c0-0.1,0-0.2,0-0.3C10,8.3,10,8.2,10,8.1z"/>
	</g>
</g>
<g id="guides">
</g>
</svg>
