<?xml version="1.0" encoding="utf-8"?>
<!-- Generator: Adobe Illustrator 18.1.1, SVG Export Plug-In . SVG Version: 6.00 Build 0)  -->
<svg version="1.1" xmlns="http://www.w3.org/2000/svg" xmlns:xlink="http://www.w3.org/1999/xlink" x="0px" y="0px"
	 viewBox="0 0 18 18" enable-background="new 0 0 18 18" xml:space="preserve">
<g id="shadows">
	<g opacity="0.2">
		<polygon points="16.8,13 16.8,12 14,11.2 14,12 		"/>
		<polygon points="3.8,8.3 3.8,9.2 10.2,11.1 10.2,10.2 		"/>
		<polygon points="6.3,7.2 7.5,7.4 8.1,7.7 15.8,9.9 16.2,8.7 16.8,7.1 8.4,4.8 10.2,2.8 9.3,2.8 7.4,4.5 4.7,3.7 		"/>
		<polygon points="3.8,15.8 3.8,11.1 16.8,14.8 16.8,15.8 		"/>
		<rect x="11.2" y="10.2" width="1.9" height="1.9"/>
	</g>
</g>
<g id="icons">
	<g>
		<polygon points="16,12.2 16,11.3 13.2,10.5 13.2,11.3 		"/>
		<polygon points="3,7.6 3,8.5 9.5,10.4 9.5,9.4 		"/>
		<polygon points="5.6,6.4 6.7,6.6 7.4,7 15,9.2 15.4,8 16,6.4 7.7,4 9.4,2 8.6,2 6.7,3.7 3.9,2.9 		"/>
		<polygon points="3,15 3,10.4 16,14.1 16,15 		"/>
		<rect x="10.4" y="9.4" width="1.9" height="1.9"/>
	</g>
</g>
<g id="guides">
</g>
</svg>
