<?xml version="1.0" encoding="utf-8"?>
<!-- Generator: Adobe Illustrator 18.1.1, SVG Export Plug-In . SVG Version: 6.00 Build 0)  -->
<svg version="1.1" xmlns="http://www.w3.org/2000/svg" xmlns:xlink="http://www.w3.org/1999/xlink" x="0px" y="0px"
	 viewBox="0 0 12 12" enable-background="new 0 0 12 12" xml:space="preserve">
<g id="shadows">
	<g opacity="0.2">
		<polygon points="10.5,8.6 10.5,7.9 8.6,7.4 8.6,7.9 		"/>
		<polygon points="1.5,5.4 1.5,6 6,7.3 6,6.6 		"/>
		<polygon points="3.3,4.6 4.1,4.7 4.5,4.9 9.8,6.5 10.1,5.6 10.5,4.5 4.7,2.9 6,1.5 5.4,1.5 4.1,2.7 2.1,2.1 		"/>
		<polygon points="1.5,10.5 1.5,7.3 10.5,9.9 10.5,10.5 		"/>
		<rect x="6.6" y="6.6" width="1.3" height="1.3"/>
	</g>
</g>
<g id="icons">
	<g>
		<polygon points="10,8.1 10,7.4 8.1,6.9 8.1,7.4 		"/>
		<polygon points="1,4.9 1,5.5 5.5,6.8 5.5,6.1 		"/>
		<polygon points="2.8,4.1 3.6,4.2 4,4.4 9.3,6 9.6,5.1 10,4 4.2,2.4 5.5,1 4.9,1 3.6,2.2 1.6,1.6 		"/>
		<polygon points="1,10 1,6.8 10,9.4 10,10 		"/>
		<rect x="6.1" y="6.1" width="1.3" height="1.3"/>
	</g>
</g>
<g id="guides">
</g>
</svg>
