<?xml version="1.0" encoding="utf-8"?>
<!-- Generator: Adobe Illustrator 18.1.1, SVG Export Plug-In . SVG Version: 6.00 Build 0)  -->
<svg version="1.1" xmlns="http://www.w3.org/2000/svg" xmlns:xlink="http://www.w3.org/1999/xlink" x="0px" y="0px"
	 viewBox="0 0 12 12" enable-background="new 0 0 12 12" xml:space="preserve">
<g id="shadows">
	<g opacity="0.2">
		<polygon points="11.5,8.6 11.5,7.9 9.6,7.4 9.6,7.9 		"/>
		<polygon points="2.5,5.4 2.5,6 7,7.3 7,6.6 		"/>
		<polygon points="4.3,4.6 5.1,4.7 5.5,4.9 10.8,6.5 11.1,5.6 11.5,4.5 5.7,2.9 7,1.5 6.4,1.5 5.1,2.7 3.1,2.1 		"/>
		<polygon points="2.5,10.5 2.5,7.3 11.5,9.9 11.5,10.5 		"/>
		<rect x="7.6" y="6.6" width="1.3" height="1.3"/>
	</g>
</g>
<g id="icons">
	<g>
		<polygon fill="#FFFFFF" points="11,8.1 11,7.4 9.1,6.9 9.1,7.4 		"/>
		<polygon fill="#FFFFFF" points="2,4.9 2,5.5 6.5,6.8 6.5,6.1 		"/>
		<polygon fill="#FFFFFF" points="3.8,4.1 4.6,4.2 5,4.4 10.3,6 10.6,5.1 11,4 5.2,2.4 6.5,1 5.9,1 4.6,2.2 2.6,1.6 		"/>
		<polygon fill="#FFFFFF" points="2,10 2,6.8 11,9.4 11,10 		"/>
		<rect x="7.1" y="6.1" fill="#FFFFFF" width="1.3" height="1.3"/>
	</g>
</g>
<g id="guides">
</g>
</svg>
