<?xml version="1.0" encoding="utf-8"?>
<!-- Generator: Adobe Illustrator 18.1.1, SVG Export Plug-In . SVG Version: 6.00 Build 0)  -->
<svg version="1.1" xmlns="http://www.w3.org/2000/svg" xmlns:xlink="http://www.w3.org/1999/xlink" x="0px" y="0px"
	 viewBox="0 0 12 12" enable-background="new 0 0 12 12" xml:space="preserve">
<g id="shadows">
	<g opacity="0.2">
		<polygon points="2.5,5.7 2.5,7.6 10.2,7.6 10.2,7 10.9,7 10.9,6.3 11.5,6.3 11.5,5.7 		"/>
		<path d="M9.6,3.7V3.1H8.9V2.5H2.5V5h7.7V3.7H9.6z M3.8,4.4H3.1V3.1h0.6V4.4z M5.1,4.4H4.4V3.1h0.6V4.4z M6.4,4.4H5.7V3.1h0.6V4.4z
			 M8.9,4.4H7.6V3.1h0.6v0.6h0.6V4.4z"/>
		<path d="M11.5,8.6l-0.6,0.3h-0.6L8.9,8.3H8.3L7,8.9H6.4L5.1,8.3H4.4L3.1,8.9H2.5v0.6h0.6l1.3-0.6h0.6l1.3,0.6H7l1.3-0.6h0.6
			l1.3,0.6h0.6l0.6-0.3c0-0.1,0-0.2,0-0.3C11.5,8.8,11.5,8.7,11.5,8.6z"/>
	</g>
</g>
<g id="icons">
	<g>
		<polygon fill="#FFFFFF" points="2,5.2 2,7.1 9.7,7.1 9.7,6.5 10.4,6.5 10.4,5.8 11,5.8 11,5.2 		"/>
		<path fill="#FFFFFF" d="M9.1,3.2V2.6H8.4V2H2v2.6h7.7V3.2H9.1z M3.3,3.9H2.6V2.6h0.6V3.9z M4.6,3.9H3.9V2.6h0.6V3.9z M5.9,3.9H5.2
			V2.6h0.6V3.9z M8.4,3.9H7.1V2.6h0.6v0.6h0.6V3.9z"/>
		<path fill="#FFFFFF" d="M11,8.1l-0.6,0.3H9.7L8.4,7.8H7.8L6.5,8.4H5.9L4.6,7.8H3.9L2.6,8.4H2V9h0.6l1.3-0.6h0.6L5.9,9h0.6l1.3-0.6
			h0.6L9.7,9h0.6L11,8.7c0-0.1,0-0.2,0-0.3C11,8.3,11,8.2,11,8.1z"/>
	</g>
</g>
<g id="guides">
</g>
</svg>
