<?xml version="1.0" encoding="UTF-8" standalone="no"?>
<svg width="18px" height="18px" viewBox="0 0 18 18" version="1.1" xmlns="http://www.w3.org/2000/svg" xmlns:xlink="http://www.w3.org/1999/xlink" xmlns:sketch="http://www.bohemiancoding.com/sketch/ns">
    <!-- Generator: Sketch 3.2.2 (9983) - http://www.bohemiancoding.com/sketch -->
    <title>boat-launch-white-18</title>
    <desc>Created with Sketch.</desc>
    <defs></defs>
    <g id="Page-1" stroke="none" stroke-width="1" fill="none" fill-rule="evenodd" sketch:type="MSPage">
        <g id="Group" sketch:type="MSLayerGroup" transform="translate(1.099998, 2.000000)" fill="#0A0B09" opacity="0.5">
            <path d="M3.41212222,1.09275713 L6.67138148,1.96652486 L8.30101111,0 L9.04175185,0 L7.56027037,2.18989405 L17.1899,4.78710839 L16.4491593,7.29964684 L6.56027037,4.73674083 C2.71582593,3.61259522 3.41952963,1.08910731 3.41952963,1.08910731" id="Fill-86" sketch:type="MSShapeGroup"></path>
            <path d="M0.893603704,8.02961152 L0.893603704,13.869329 L3.11582593,13.1393643 L6.07878889,13.869329 L9.04175185,13.1393643 L12.0047148,13.869329 L14.9676778,13.1393643 L17.1899,13.869329 L17.1899,12.4093996 L0.893603704,8.02961152" id="Fill-87" sketch:type="MSShapeGroup"></path>
            <path d="M0.893603704,4.3797881 L0.893603704,5.10975278 L7.56027037,7.29964684 L7.56027037,6.56968215 L0.893603704,4.3797881" id="Fill-88" sketch:type="MSShapeGroup"></path>
            <path d="M12.0047148,8.02961152 L12.0047148,8.7595762 L17.1899,10.2195056 L17.1899,9.48954089 L12.0047148,8.02961152" id="Fill-89" sketch:type="MSShapeGroup"></path>
            <path d="M10.5232333,8.4413116 C10.5232333,8.61723309 10.3824926,8.7595762 10.1973074,8.7595762 L9.36767778,8.7595762 C9.18249259,8.7595762 9.04175185,8.61723309 9.04175185,8.4413116 L9.04175185,7.61718147 C9.04175185,7.44198995 9.18249259,7.29964684 9.36767778,7.29964684 L10.1973074,7.29964684 C10.3824926,7.29964684 10.5232333,7.44198995 10.5232333,7.61718147 L10.5232333,8.4413116 L10.5232333,8.4413116 Z M9.78249259,6.56968215 C8.96767778,6.56968215 8.30101111,7.22300054 8.30101111,8.02961152 C8.30101111,8.83549253 8.96767778,9.48954089 9.78249259,9.48954089 C10.5973074,9.48954089 11.2639741,8.83549253 11.2639741,8.02961152 C11.2639741,7.22300054 10.5973074,6.56968215 9.78249259,6.56968215 L9.78249259,6.56968215 Z" id="Fill-90" sketch:type="MSShapeGroup"></path>
        </g>
        <g id="Group" sketch:type="MSLayerGroup" transform="translate(0.099998, 1.000000)" fill="#0A0B09" opacity="0.75">
            <path d="M3.41212222,1.09275713 L6.67138148,1.96652486 L8.30101111,0 L9.04175185,0 L7.56027037,2.18989405 L17.1899,4.78710839 L16.4491593,7.29964684 L6.56027037,4.73674083 C2.71582593,3.61259522 3.41952963,1.08910731 3.41952963,1.08910731" id="Fill-86" sketch:type="MSShapeGroup"></path>
            <path d="M0.893603704,8.02961152 L0.893603704,13.869329 L3.11582593,13.1393643 L6.07878889,13.869329 L9.04175185,13.1393643 L12.0047148,13.869329 L14.9676778,13.1393643 L17.1899,13.869329 L17.1899,12.4093996 L0.893603704,8.02961152" id="Fill-87" sketch:type="MSShapeGroup"></path>
            <path d="M0.893603704,4.3797881 L0.893603704,5.10975278 L7.56027037,7.29964684 L7.56027037,6.56968215 L0.893603704,4.3797881" id="Fill-88" sketch:type="MSShapeGroup"></path>
            <path d="M12.0047148,8.02961152 L12.0047148,8.7595762 L17.1899,10.2195056 L17.1899,9.48954089 L12.0047148,8.02961152" id="Fill-89" sketch:type="MSShapeGroup"></path>
            <path d="M10.5232333,8.4413116 C10.5232333,8.61723309 10.3824926,8.7595762 10.1973074,8.7595762 L9.36767778,8.7595762 C9.18249259,8.7595762 9.04175185,8.61723309 9.04175185,8.4413116 L9.04175185,7.61718147 C9.04175185,7.44198995 9.18249259,7.29964684 9.36767778,7.29964684 L10.1973074,7.29964684 C10.3824926,7.29964684 10.5232333,7.44198995 10.5232333,7.61718147 L10.5232333,8.4413116 L10.5232333,8.4413116 Z M9.78249259,6.56968215 C8.96767778,6.56968215 8.30101111,7.22300054 8.30101111,8.02961152 C8.30101111,8.83549253 8.96767778,9.48954089 9.78249259,9.48954089 C10.5973074,9.48954089 11.2639741,8.83549253 11.2639741,8.02961152 C11.2639741,7.22300054 10.5973074,6.56968215 9.78249259,6.56968215 L9.78249259,6.56968215 Z" id="Fill-90" sketch:type="MSShapeGroup"></path>
        </g>
        <g id="Group" sketch:type="MSLayerGroup" transform="translate(-0.900002, 0.000000)" fill="#FFFFFF">
            <path d="M3.41212222,1.09275713 L6.67138148,1.96652486 L8.30101111,0 L9.04175185,0 L7.56027037,2.18989405 L17.1899,4.78710839 L16.4491593,7.29964684 L6.56027037,4.73674083 C2.71582593,3.61259522 3.41952963,1.08910731 3.41952963,1.08910731" id="Fill-86" sketch:type="MSShapeGroup"></path>
            <path d="M0.893603704,8.02961152 L0.893603704,13.869329 L3.11582593,13.1393643 L6.07878889,13.869329 L9.04175185,13.1393643 L12.0047148,13.869329 L14.9676778,13.1393643 L17.1899,13.869329 L17.1899,12.4093996 L0.893603704,8.02961152" id="Fill-87" sketch:type="MSShapeGroup"></path>
            <path d="M0.893603704,4.3797881 L0.893603704,5.10975278 L7.56027037,7.29964684 L7.56027037,6.56968215 L0.893603704,4.3797881" id="Fill-88" sketch:type="MSShapeGroup"></path>
            <path d="M12.0047148,8.02961152 L12.0047148,8.7595762 L17.1899,10.2195056 L17.1899,9.48954089 L12.0047148,8.02961152" id="Fill-89" sketch:type="MSShapeGroup"></path>
            <path d="M10.5232333,8.4413116 C10.5232333,8.61723309 10.3824926,8.7595762 10.1973074,8.7595762 L9.36767778,8.7595762 C9.18249259,8.7595762 9.04175185,8.61723309 9.04175185,8.4413116 L9.04175185,7.61718147 C9.04175185,7.44198995 9.18249259,7.29964684 9.36767778,7.29964684 L10.1973074,7.29964684 C10.3824926,7.29964684 10.5232333,7.44198995 10.5232333,7.61718147 L10.5232333,8.4413116 L10.5232333,8.4413116 Z M9.78249259,6.56968215 C8.96767778,6.56968215 8.30101111,7.22300054 8.30101111,8.02961152 C8.30101111,8.83549253 8.96767778,9.48954089 9.78249259,9.48954089 C10.5973074,9.48954089 11.2639741,8.83549253 11.2639741,8.02961152 C11.2639741,7.22300054 10.5973074,6.56968215 9.78249259,6.56968215 L9.78249259,6.56968215 Z" id="Fill-90" sketch:type="MSShapeGroup"></path>
        </g>
    </g>
</svg>