<?xml version="1.0" encoding="UTF-8" standalone="no"?>
<svg width="18px" height="18px" viewBox="0 0 18 18" version="1.1" xmlns="http://www.w3.org/2000/svg" xmlns:xlink="http://www.w3.org/1999/xlink" xmlns:sketch="http://www.bohemiancoding.com/sketch/ns">
    <!-- Generator: Sketch 3.2.2 (9983) - http://www.bohemiancoding.com/sketch -->
    <title>boat-tour-black-18</title>
    <desc>Created with Sketch.</desc>
    <defs></defs>
    <g id="Page-1" stroke="none" stroke-width="1" fill="none" fill-rule="evenodd" sketch:type="MSPage">
        <path d="M12.3703704,6.3797881 L12.3703704,3.45992937 L13.8518519,3.45992937 L15.3333333,6.3797881 L12.3703704,6.3797881 L12.3703704,6.3797881 Z M10.8888889,6.3797881 L8.66666667,6.3797881 L8.66666667,4.18989405 L9.40740741,3.45992937 L10.1481481,3.45992937 L10.8888889,4.18989405 L10.8888889,6.3797881 L10.8888889,6.3797881 Z M7.92592593,6.3797881 L5.7037037,6.3797881 L5.7037037,4.18989405 L6.44444444,3.45992937 L7.18518519,3.45992937 L7.92592593,4.18989405 L7.92592593,6.3797881 L7.92592593,6.3797881 Z M4.96296296,6.3797881 L2.74074074,6.3797881 L2.74074074,4.18989405 L3.48148148,3.45992937 L4.22222222,3.45992937 L4.96296296,4.18989405 L4.96296296,6.3797881 L4.96296296,6.3797881 Z M13.0444444,2 L2,2 L2,7.10975278 L16.0740741,7.10975278 L16.0740741,6.3797881 L14.2148148,2.70879571 C13.9925926,2.27446672 13.5407407,2 13.0444444,2 L13.0444444,2 Z" id="Fill-94" opacity="0.1" fill="#0A0B09" sketch:type="MSShapeGroup"></path>
        <path d="M4.22222222,11.4895409 L4.96296296,11.4895409 L6.44444444,10.7595762 L7.18518519,10.7595762 L8.66666667,11.4895409 L9.40740741,11.4895409 L10.8888889,10.7595762 L11.6296296,10.7595762 L13.1111111,11.4895409 L13.8518519,11.4895409 L15.3333333,10.7595762 L15.9259259,10.7595762 L18.2962963,7.83971747 L2,7.83971747 L2,10.7595762 L2.74074074,10.7595762 L4.22222222,11.4895409" id="Fill-95" opacity="0.1" fill="#0A0B09" sketch:type="MSShapeGroup"></path>
        <path d="M2,12.2195056 L2.74074074,12.2195056 L4.22222222,12.9494703 L4.96296296,12.9494703 L6.44444444,12.2195056 L7.18518519,12.2195056 L8.66666667,12.9494703 L9.40740741,12.9494703 L10.8888889,12.2195056 L11.6296296,12.2195056 L13.1111111,12.9494703 L13.8518519,12.9494703 L15.3333333,12.2195056 L16.0740741,12.2195056 L17.5555556,12.9494703 L18.2962963,12.9494703 L18.2962963,14.4093996 L17.5555556,14.4093996 L16.0740741,13.6794349 L15.3333333,13.6794349 L13.8518519,14.4093996 L13.1111111,14.4093996 L11.6296296,13.6794349 L10.8888889,13.6794349 L9.40740741,14.4093996 L8.66666667,14.4093996 L7.18518519,13.6794349 L6.44444444,13.6794349 L4.96296296,14.4093996 L4.22222222,14.4093996 L2.74074074,13.6794349 L2,13.6794349 L2,12.2195056" id="Fill-96" opacity="0.1" fill="#0A0B09" sketch:type="MSShapeGroup"></path>
        <path d="M11.3703704,5.3797881 L11.3703704,2.45992937 L12.8518519,2.45992937 L14.3333333,5.3797881 L11.3703704,5.3797881 L11.3703704,5.3797881 Z M9.88888889,5.3797881 L7.66666667,5.3797881 L7.66666667,3.18989405 L8.40740741,2.45992937 L9.14814815,2.45992937 L9.88888889,3.18989405 L9.88888889,5.3797881 L9.88888889,5.3797881 Z M6.92592593,5.3797881 L4.7037037,5.3797881 L4.7037037,3.18989405 L5.44444444,2.45992937 L6.18518519,2.45992937 L6.92592593,3.18989405 L6.92592593,5.3797881 L6.92592593,5.3797881 Z M3.96296296,5.3797881 L1.74074074,5.3797881 L1.74074074,3.18989405 L2.48148148,2.45992937 L3.22222222,2.45992937 L3.96296296,3.18989405 L3.96296296,5.3797881 L3.96296296,5.3797881 Z M12.0444444,1 L1,1 L1,6.10975278 L15.0740741,6.10975278 L15.0740741,5.3797881 L13.2148148,1.70879571 C12.9925926,1.27446672 12.5407407,1 12.0444444,1 L12.0444444,1 Z" id="Fill-94" opacity="0.2" fill="#0A0B09" sketch:type="MSShapeGroup"></path>
        <path d="M3.22222222,10.4895409 L3.96296296,10.4895409 L5.44444444,9.7595762 L6.18518519,9.7595762 L7.66666667,10.4895409 L8.40740741,10.4895409 L9.88888889,9.7595762 L10.6296296,9.7595762 L12.1111111,10.4895409 L12.8518519,10.4895409 L14.3333333,9.7595762 L14.9259259,9.7595762 L17.2962963,6.83971747 L1,6.83971747 L1,9.7595762 L1.74074074,9.7595762 L3.22222222,10.4895409" id="Fill-95" opacity="0.2" fill="#0A0B09" sketch:type="MSShapeGroup"></path>
        <path d="M1,11.2195056 L1.74074074,11.2195056 L3.22222222,11.9494703 L3.96296296,11.9494703 L5.44444444,11.2195056 L6.18518519,11.2195056 L7.66666667,11.9494703 L8.40740741,11.9494703 L9.88888889,11.2195056 L10.6296296,11.2195056 L12.1111111,11.9494703 L12.8518519,11.9494703 L14.3333333,11.2195056 L15.0740741,11.2195056 L16.5555556,11.9494703 L17.2962963,11.9494703 L17.2962963,13.4093996 L16.5555556,13.4093996 L15.0740741,12.6794349 L14.3333333,12.6794349 L12.8518519,13.4093996 L12.1111111,13.4093996 L10.6296296,12.6794349 L9.88888889,12.6794349 L8.40740741,13.4093996 L7.66666667,13.4093996 L6.18518519,12.6794349 L5.44444444,12.6794349 L3.96296296,13.4093996 L3.22222222,13.4093996 L1.74074074,12.6794349 L1,12.6794349 L1,11.2195056" id="Fill-96" opacity="0.2" fill="#0A0B09" sketch:type="MSShapeGroup"></path>
        <path d="M10.3703704,4.3797881 L10.3703704,1.45992937 L11.8518519,1.45992937 L13.3333333,4.3797881 L10.3703704,4.3797881 L10.3703704,4.3797881 Z M8.88888889,4.3797881 L6.66666667,4.3797881 L6.66666667,2.18989405 L7.40740741,1.45992937 L8.14814815,1.45992937 L8.88888889,2.18989405 L8.88888889,4.3797881 L8.88888889,4.3797881 Z M5.92592593,4.3797881 L3.7037037,4.3797881 L3.7037037,2.18989405 L4.44444444,1.45992937 L5.18518519,1.45992937 L5.92592593,2.18989405 L5.92592593,4.3797881 L5.92592593,4.3797881 Z M2.96296296,4.3797881 L0.740740741,4.3797881 L0.740740741,2.18989405 L1.48148148,1.45992937 L2.22222222,1.45992937 L2.96296296,2.18989405 L2.96296296,4.3797881 L2.96296296,4.3797881 Z M11.0444444,0 L0,0 L0,5.10975278 L14.0740741,5.10975278 L14.0740741,4.3797881 L12.2148148,0.708795708 C11.9925926,0.274466721 11.5407407,0 11.0444444,0 L11.0444444,0 Z" id="Fill-94" fill="#0A0B09" sketch:type="MSShapeGroup"></path>
        <path d="M2.22222222,9.48954089 L2.96296296,9.48954089 L4.44444444,8.7595762 L5.18518519,8.7595762 L6.66666667,9.48954089 L7.40740741,9.48954089 L8.88888889,8.7595762 L9.62962963,8.7595762 L11.1111111,9.48954089 L11.8518519,9.48954089 L13.3333333,8.7595762 L13.9259259,8.7595762 L16.2962963,5.83971747 L0,5.83971747 L0,8.7595762 L0.740740741,8.7595762 L2.22222222,9.48954089" id="Fill-95" fill="#0A0B09" sketch:type="MSShapeGroup"></path>
        <path d="M0,10.2195056 L0.740740741,10.2195056 L2.22222222,10.9494703 L2.96296296,10.9494703 L4.44444444,10.2195056 L5.18518519,10.2195056 L6.66666667,10.9494703 L7.40740741,10.9494703 L8.88888889,10.2195056 L9.62962963,10.2195056 L11.1111111,10.9494703 L11.8518519,10.9494703 L13.3333333,10.2195056 L14.0740741,10.2195056 L15.5555556,10.9494703 L16.2962963,10.9494703 L16.2962963,12.4093996 L15.5555556,12.4093996 L14.0740741,11.6794349 L13.3333333,11.6794349 L11.8518519,12.4093996 L11.1111111,12.4093996 L9.62962963,11.6794349 L8.88888889,11.6794349 L7.40740741,12.4093996 L6.66666667,12.4093996 L5.18518519,11.6794349 L4.44444444,11.6794349 L2.96296296,12.4093996 L2.22222222,12.4093996 L0.740740741,11.6794349 L0,11.6794349 L0,10.2195056" id="Fill-96" fill="#0A0B09" sketch:type="MSShapeGroup"></path>
    </g>
</svg>