<?xml version="1.0" encoding="utf-8"?>
<!-- Generator: Adobe Illustrator 18.0.0, SVG Export Plug-In . SVG Version: 6.00 Build 0)  -->
<!DOCTYPE svg PUBLIC "-//W3C//DTD SVG 1.1//EN" "http://www.w3.org/Graphics/SVG/1.1/DTD/svg11.dtd" [
	<!ENTITY ns_flows "http://ns.adobe.com/Flows/1.0/">
	<!ENTITY ns_extend "http://ns.adobe.com/Extensibility/1.0/">
	<!ENTITY ns_ai "http://ns.adobe.com/AdobeIllustrator/10.0/">
	<!ENTITY ns_graphs "http://ns.adobe.com/Graphs/1.0/">
	<!ENTITY st0 "opacity:0.5;">
	<!ENTITY st1 "fill:#010101;">
	<!ENTITY st2 "opacity:0.75;">
	<!ENTITY st3 "fill:#FFFFFF;">
]>
<svg version="1.1" id="Layer_1" xmlns:x="&ns_extend;" xmlns:i="&ns_ai;" xmlns:graph="&ns_graphs;"
	 xmlns="http://www.w3.org/2000/svg" xmlns:xlink="http://www.w3.org/1999/xlink" xmlns:a="http://ns.adobe.com/AdobeSVGViewerExtensions/3.0/"
	 x="0px" y="0px" width="24px" height="21px" viewBox="0 0 24 21" style="enable-background:new 0 0 24 21;" xml:space="preserve">
<g style="&st0;">
	<path style="&st1;" d="M5.4,3.5l4.4,1.2L12,2h1l-2,3l13,3.6L23,12L9.6,8.5C4.5,6.9,5.4,3.5,5.4,3.5"/>
	<polygon style="&st1;" points="2,13 2,21 5,20 9,21 13,20 17,21 21,20 24,21 24,19 	"/>
	<polygon style="&st1;" points="2,8 2,9 11,12 11,11 	"/>
	<polygon style="&st1;" points="17,13 17,14 24,16 24,15 	"/>
	<path style="&st1;" d="M14,11c-1.1,0-2,0.9-2,2s0.9,2,2,2c1.1,0,2-0.9,2-2S15.1,11,14,11z M15,13.6c0,0.2-0.2,0.4-0.4,0.4h-1.1
		c-0.2,0-0.4-0.2-0.4-0.4v-1.1c0-0.2,0.2-0.4,0.4-0.4h1.1c0.2,0,0.4,0.2,0.4,0.4V13.6z"/>
</g>
<g style="&st2;">
	<path style="&st1;" d="M4.4,2.5l4.4,1.2L11,1h1l-2,3l13,3.6L22,11L8.6,7.5C3.5,5.9,4.4,2.5,4.4,2.5"/>
	<polygon style="&st1;" points="1,12 1,20 4,19 8,20 12,19 16,20 20,19 23,20 23,18 	"/>
	<polygon style="&st1;" points="1,7 1,8 10,11 10,10 	"/>
	<polygon style="&st1;" points="16,12 16,13 23,15 23,14 	"/>
	<path style="&st1;" d="M13,10c-1.1,0-2,0.9-2,2s0.9,2,2,2c1.1,0,2-0.9,2-2S14.1,10,13,10z M14,12.6c0,0.2-0.2,0.4-0.4,0.4h-1.1
		c-0.2,0-0.4-0.2-0.4-0.4v-1.1c0-0.2,0.2-0.4,0.4-0.4h1.1c0.2,0,0.4,0.2,0.4,0.4V12.6z"/>
</g>
<g>
	<path style="&st3;" d="M3.4,1.5l4.4,1.2L10,0h1L9,3l13,3.6L21,10L7.6,6.5C2.5,4.9,3.4,1.5,3.4,1.5"/>
	<polygon style="&st3;" points="0,11 0,19 3,18 7,19 11,18 15,19 19,18 22,19 22,17 	"/>
	<polygon style="&st3;" points="0,6 0,7 9,10 9,9 	"/>
	<polygon style="&st3;" points="15,11 15,12 22,14 22,13 	"/>
	<path style="&st3;" d="M12,9c-1.1,0-2,0.9-2,2s0.9,2,2,2c1.1,0,2-0.9,2-2S13.1,9,12,9z M13,11.6c0,0.2-0.2,0.4-0.4,0.4h-1.1
		c-0.2,0-0.4-0.2-0.4-0.4v-1.1c0-0.2,0.2-0.4,0.4-0.4h1.1c0.2,0,0.4,0.2,0.4,0.4V11.6z"/>
</g>
</svg>
