<?xml version="1.0" encoding="UTF-8" standalone="no"?>
<svg width="12px" height="12px" viewBox="0 0 12 12" version="1.1" xmlns="http://www.w3.org/2000/svg" xmlns:xlink="http://www.w3.org/1999/xlink" xmlns:sketch="http://www.bohemiancoding.com/sketch/ns">
    <!-- Generator: Sketch 3.2.2 (9983) - http://www.bohemiancoding.com/sketch -->
    <title>boat-launch-black-12</title>
    <desc>Created with Sketch.</desc>
    <defs></defs>
    <g id="Page-1" stroke="none" stroke-width="1" fill="none" fill-rule="evenodd" sketch:type="MSPage">
        <g id="Group" sketch:type="MSLayerGroup" transform="translate(2.000000, 2.000000)" fill-opacity="0.1" fill="#0A0B09">
            <path d="M10,8.06886667 L10,7.33553333 L7.85714286,6.70706667 L7.85714286,7.33553333 L10,8.06886667" id="Fill-181" sketch:type="MSShapeGroup"></path>
            <path d="M0,4.4022 L0,5.13553333 L5,6.6022 L5,5.86886667 L0,4.4022" id="Fill-182" sketch:type="MSShapeGroup"></path>
            <path d="M1.97142857,3.5134 L2.85714286,3.66886667 L3.36428571,3.9226 L9.25,5.64886667 L9.55714286,4.72266667 L10,3.45913333 L3.60714286,1.58326667 L4.95714286,0.0022 L4.28571429,0.0022 L2.83571429,1.35813333 L0.714285714,0.735533333 L1.97142857,3.5134" id="Fill-183" sketch:type="MSShapeGroup"></path>
            <path d="M0,10.2688667 L0,6.6022 L10,9.53553333 L10,10.2688667 L0,10.2688667" id="Fill-184" sketch:type="MSShapeGroup"></path>
            <path d="M5.71428571,5.86886667 L7.14285714,5.86886667 L7.14285714,7.33553333 L5.71428571,7.33553333 L5.71428571,5.86886667 Z" id="Fill-185" sketch:type="MSShapeGroup"></path>
        </g>
        <g id="Group" sketch:type="MSLayerGroup" transform="translate(1.000000, 1.000000)" fill="#0A0B09" opacity="0.2">
            <path d="M10,8.06886667 L10,7.33553333 L7.85714286,6.70706667 L7.85714286,7.33553333 L10,8.06886667" id="Fill-181" sketch:type="MSShapeGroup"></path>
            <path d="M0,4.4022 L0,5.13553333 L5,6.6022 L5,5.86886667 L0,4.4022" id="Fill-182" sketch:type="MSShapeGroup"></path>
            <path d="M1.97142857,3.5134 L2.85714286,3.66886667 L3.36428571,3.9226 L9.25,5.64886667 L9.55714286,4.72266667 L10,3.45913333 L3.60714286,1.58326667 L4.95714286,0.0022 L4.28571429,0.0022 L2.83571429,1.35813333 L0.714285714,0.735533333 L1.97142857,3.5134" id="Fill-183" sketch:type="MSShapeGroup"></path>
            <path d="M0,10.2688667 L0,6.6022 L10,9.53553333 L10,10.2688667 L0,10.2688667" id="Fill-184" sketch:type="MSShapeGroup"></path>
            <path d="M5.71428571,5.86886667 L7.14285714,5.86886667 L7.14285714,7.33553333 L5.71428571,7.33553333 L5.71428571,5.86886667 Z" id="Fill-185" sketch:type="MSShapeGroup"></path>
        </g>
        <g id="Group" sketch:type="MSLayerGroup" fill="#0A0B09">
            <path d="M10,8.06886667 L10,7.33553333 L7.85714286,6.70706667 L7.85714286,7.33553333 L10,8.06886667" id="Fill-181" sketch:type="MSShapeGroup"></path>
            <path d="M0,4.4022 L0,5.13553333 L5,6.6022 L5,5.86886667 L0,4.4022" id="Fill-182" sketch:type="MSShapeGroup"></path>
            <path d="M1.97142857,3.5134 L2.85714286,3.66886667 L3.36428571,3.9226 L9.25,5.64886667 L9.55714286,4.72266667 L10,3.45913333 L3.60714286,1.58326667 L4.95714286,0.0022 L4.28571429,0.0022 L2.83571429,1.35813333 L0.714285714,0.735533333 L1.97142857,3.5134" id="Fill-183" sketch:type="MSShapeGroup"></path>
            <path d="M0,10.2688667 L0,6.6022 L10,9.53553333 L10,10.2688667 L0,10.2688667" id="Fill-184" sketch:type="MSShapeGroup"></path>
            <path d="M5.71428571,5.86886667 L7.14285714,5.86886667 L7.14285714,7.33553333 L5.71428571,7.33553333 L5.71428571,5.86886667 Z" id="Fill-185" sketch:type="MSShapeGroup"></path>
        </g>
    </g>
</svg>