<?xml version="1.0" encoding="utf-8"?>
<!-- Generator: Adobe Illustrator 18.1.1, SVG Export Plug-In . SVG Version: 6.00 Build 0)  -->
<svg version="1.1" xmlns="http://www.w3.org/2000/svg" xmlns:xlink="http://www.w3.org/1999/xlink" x="0px" y="0px"
	 viewBox="0 0 24 24" enable-background="new 0 0 24 24" xml:space="preserve">
<g id="shadows">
	<g opacity="0.2">
		<path d="M7.6,6.3L11,7.2l1.7-2.1h0.8L12,7.5l10,2.7l-0.8,2.7l-10.3-2.7C6.9,9,7.6,6.3,7.6,6.3"/>
		<polygon points="5,13.7 5,19.8 7.3,19.1 10.4,19.8 13.5,19.1 16.6,19.8 19.7,19.1 22,19.8 22,18.3 		"/>
		<polygon points="5,9.8 5,10.6 12,12.9 12,12.1 		"/>
		<polygon points="16.6,13.7 16.6,14.4 22,16 22,15.2 		"/>
		<path d="M14.3,12.1c-0.9,0-1.5,0.7-1.5,1.5c0,0.9,0.7,1.5,1.5,1.5c0.9,0,1.5-0.7,1.5-1.5C15.8,12.8,15.1,12.1,14.3,12.1z M15,14.1
			c0,0.2-0.2,0.3-0.3,0.3h-0.9c-0.2,0-0.3-0.2-0.3-0.3v-0.9c0-0.2,0.2-0.3,0.3-0.3h0.9c0.2,0,0.3,0.2,0.3,0.3V14.1z"/>
	</g>
</g>
<g id="icons">
	<g>
		<path d="M6.6,5.3L10,6.2l1.7-2.1h0.8L11,6.5l10,2.7l-0.8,2.7L9.9,9.2C5.9,8,6.6,5.3,6.6,5.3"/>
		<polygon points="4,12.7 4,18.8 6.3,18.1 9.4,18.8 12.5,18.1 15.6,18.8 18.7,18.1 21,18.8 21,17.3 		"/>
		<polygon points="4,8.8 4,9.6 11,11.9 11,11.1 		"/>
		<polygon points="15.6,12.7 15.6,13.4 21,15 21,14.2 		"/>
		<path d="M13.3,11.1c-0.9,0-1.5,0.7-1.5,1.5c0,0.9,0.7,1.5,1.5,1.5c0.9,0,1.5-0.7,1.5-1.5C14.8,11.8,14.1,11.1,13.3,11.1z M14,13.1
			c0,0.2-0.2,0.3-0.3,0.3h-0.9c-0.2,0-0.3-0.2-0.3-0.3v-0.9c0-0.2,0.2-0.3,0.3-0.3h0.9c0.2,0,0.3,0.2,0.3,0.3V13.1z"/>
	</g>
</g>
<g id="guides">
</g>
</svg>
