<?xml version="1.0" encoding="UTF-8" standalone="no"?>
<!-- Created with Inkscape (http://www.inkscape.org/) -->

<svg
   xmlns:dc="http://purl.org/dc/elements/1.1/"
   xmlns:cc="http://creativecommons.org/ns#"
   xmlns:rdf="http://www.w3.org/1999/02/22-rdf-syntax-ns#"
   xmlns:svg="http://www.w3.org/2000/svg"
   xmlns="http://www.w3.org/2000/svg"
   xmlns:sodipodi="http://sodipodi.sourceforge.net/DTD/sodipodi-0.dtd"
   xmlns:inkscape="http://www.inkscape.org/namespaces/inkscape"
   width="24"
   height="24"
   id="svg27830"
   version="1.1"
   inkscape:version="0.48.2 r9819"
   sodipodi:docname="boat-launch-black-24.svg">
  <defs
     id="defs27832" />
  <sodipodi:namedview
     id="base"
     pagecolor="#ffffff"
     bordercolor="#666666"
     borderopacity="1.0"
     inkscape:pageopacity="0.0"
     inkscape:pageshadow="2"
     inkscape:zoom="7.070788"
     inkscape:cx="14.778265"
     inkscape:cy="10.857501"
     inkscape:document-units="px"
     inkscape:current-layer="layer1"
     showgrid="false"
     inkscape:window-width="483"
     inkscape:window-height="454"
     inkscape:window-x="1083"
     inkscape:window-y="432"
     inkscape:window-maximized="0" />
  <metadata
     id="metadata27835">
    <rdf:RDF>
      <cc:Work
         rdf:about="">
        <dc:format>image/svg+xml</dc:format>
        <dc:type
           rdf:resource="http://purl.org/dc/dcmitype/StillImage" />
        <dc:title></dc:title>
      </cc:Work>
    </rdf:RDF>
  </metadata>
  <g
     inkscape:label="Layer 1"
     inkscape:groupmode="layer"
     id="layer1"
     transform="translate(0,-1028.3622)">
    <g
       transform="translate(-120.66852,858.89998)"
       id="g28764">
      <path
         style="opacity:0;fill:#272525"
         inkscape:connector-curvature="0"
         id="path28720"
         d="m 141.96358,193.58114 c 1.58316,0 2.86766,-1.28207 2.86766,-2.86766 v -18.26225 c 0,-1.58316 -1.28207,-2.86766 -2.86766,-2.86766 h -18.26224 c -1.58317,0 -2.8701,1.2845 -2.8701,2.86766 v 18.26225 c 0,1.58316 1.2845,2.86766 2.8701,2.86766 h 18.26224 z" />
      <g
         transform="matrix(2.4281667,0,0,2.4281667,69.453663,-75.258191)"
         id="g28722"
         style="opacity:0.6;fill:none;stroke:#1d1d1c;stroke-width:0.5;stroke-miterlimit:4;stroke-opacity:1;stroke-dasharray:none">
        <path
           style="fill:none;stroke:#1d1d1c;stroke-width:0.5;stroke-miterlimit:4;stroke-opacity:1;stroke-dasharray:none"
           inkscape:connector-curvature="0"
           id="path28724"
           d="m 23.329,102.823 1.664,0.453 0.924,-0.641 0.321,0.077 -0.915,0.643 5.043,1.383 -0.369,1.354 -5.062,-1.38 c -1.961,-0.583 -1.604,-1.891 -1.604,-1.891" />
        <path
           style="fill:none;stroke:#1d1d1c;stroke-width:0.5;stroke-miterlimit:4;stroke-opacity:1;stroke-dasharray:none"
           inkscape:connector-curvature="0"
           id="path28726"
           d="m 27.703,106.286 c -0.006,-0.113 -0.027,-0.221 -0.064,-0.323 l 2.282,0.636 -0.073,0.28 -2.145,-0.593 z" />
        <path
           style="fill:none;stroke:#1d1d1c;stroke-width:0.5;stroke-miterlimit:4;stroke-opacity:1;stroke-dasharray:none"
           inkscape:connector-curvature="0"
           id="path28728"
           d="m 25.631,105.713 c 0.062,-0.09 0.135,-0.171 0.218,-0.24 l -3.807,-1.051 v 0.302 l 3.589,0.989 z" />
        <path
           style="fill:none;stroke:#1d1d1c;stroke-width:0.5;stroke-miterlimit:4;stroke-opacity:1;stroke-dasharray:none"
           inkscape:connector-curvature="0"
           id="path28730"
           d="m 26.572,106.714 c 0.205,0 0.371,-0.165 0.371,-0.37 0,-0.205 -0.166,-0.371 -0.371,-0.371 -0.205,0 -0.371,0.166 -0.371,0.371 0,0.205 0.166,0.37 0.371,0.37 z m 3.716,2.274 c -0.181,0 -0.353,-0.041 -0.506,-0.11 -0.159,-0.073 -0.337,-0.116 -0.523,-0.116 -0.186,0 -0.364,0.043 -0.521,0.116 -0.155,0.069 -0.327,0.11 -0.508,0.11 -0.181,0 -0.353,-0.041 -0.508,-0.11 -0.158,-0.073 -0.336,-0.116 -0.521,-0.116 -0.187,0 -0.364,0.043 -0.523,0.116 -0.153,0.069 -0.327,0.11 -0.507,0.11 -0.18,0 -0.353,-0.041 -0.507,-0.11 -0.159,-0.073 -0.338,-0.116 -0.523,-0.116 -0.185,0 -0.364,0.043 -0.521,0.116 -0.154,0.069 -0.328,0.11 -0.508,0.11 -0.18,0 -0.353,-0.041 -0.508,-0.11 -0.157,-0.073 -0.336,-0.116 -0.521,-0.116 -0.185,0 -0.364,0.043 -0.522,0.116 -0.154,0.069 -0.328,0.11 -0.507,0.11 l -0.012,-3.022 4.163,1.147 c -0.287,-0.139 -0.486,-0.43 -0.486,-0.769 0,-0.473 0.383,-0.855 0.855,-0.855 0.472,0 0.855,0.383 0.855,0.855 0,0.472 -0.384,0.855 -0.855,0.855 -0.028,0 -0.057,-0.006 -0.084,-0.009 l 3.794,1.046 0.004,0.752 z" />
      </g>
      <g
         style="fill:#ffffff;fill-opacity:1"
         transform="matrix(2.4281667,0,0,2.4281667,69.453663,-75.258191)"
         id="g28732">
        <path
           d="m 23.329,102.823 1.664,0.453 0.924,-0.641 0.321,0.077 -0.915,0.643 5.043,1.383 -0.369,1.354 -5.062,-1.38 c -1.961,-0.583 -1.604,-1.891 -1.604,-1.891"
           id="path28734"
           inkscape:connector-curvature="0"
           style="fill:#ffffff;fill-opacity:1" />
        <path
           d="m 27.703,106.286 c -0.006,-0.113 -0.027,-0.221 -0.064,-0.323 l 2.282,0.636 -0.073,0.28 -2.145,-0.593 z"
           id="path28736"
           inkscape:connector-curvature="0"
           style="fill:#ffffff;fill-opacity:1" />
        <path
           d="m 25.631,105.713 c 0.062,-0.09 0.135,-0.171 0.218,-0.24 l -3.807,-1.051 v 0.302 l 3.589,0.989 z"
           id="path28738"
           inkscape:connector-curvature="0"
           style="fill:#ffffff;fill-opacity:1" />
        <path
           d="m 26.572,106.714 c 0.205,0 0.371,-0.165 0.371,-0.37 0,-0.205 -0.166,-0.371 -0.371,-0.371 -0.205,0 -0.371,0.166 -0.371,0.371 0,0.205 0.166,0.37 0.371,0.37 z m 3.716,2.274 c -0.181,0 -0.353,-0.041 -0.506,-0.11 -0.159,-0.073 -0.337,-0.116 -0.523,-0.116 -0.186,0 -0.364,0.043 -0.521,0.116 -0.155,0.069 -0.327,0.11 -0.508,0.11 -0.181,0 -0.353,-0.041 -0.508,-0.11 -0.158,-0.073 -0.336,-0.116 -0.521,-0.116 -0.187,0 -0.364,0.043 -0.523,0.116 -0.153,0.069 -0.327,0.11 -0.507,0.11 -0.18,0 -0.353,-0.041 -0.507,-0.11 -0.159,-0.073 -0.338,-0.116 -0.523,-0.116 -0.185,0 -0.364,0.043 -0.521,0.116 -0.154,0.069 -0.328,0.11 -0.508,0.11 -0.18,0 -0.353,-0.041 -0.508,-0.11 -0.157,-0.073 -0.336,-0.116 -0.521,-0.116 -0.185,0 -0.364,0.043 -0.522,0.116 -0.154,0.069 -0.328,0.11 -0.507,0.11 l -0.012,-3.022 4.163,1.147 c -0.287,-0.139 -0.486,-0.43 -0.486,-0.769 0,-0.473 0.383,-0.855 0.855,-0.855 0.472,0 0.855,0.383 0.855,0.855 0,0.472 -0.384,0.855 -0.855,0.855 -0.028,0 -0.057,-0.006 -0.084,-0.009 l 3.794,1.046 0.004,0.752 z"
           id="path28740"
           inkscape:connector-curvature="0"
           style="fill:#ffffff;fill-opacity:1" />
      </g>
    </g>
  </g>
</svg>
