<?xml version="1.0" encoding="utf-8"?>
<!-- Generator: Adobe Illustrator 18.1.1, SVG Export Plug-In . SVG Version: 6.00 Build 0)  -->
<svg version="1.1" xmlns="http://www.w3.org/2000/svg" xmlns:xlink="http://www.w3.org/1999/xlink" x="0px" y="0px"
	 viewBox="0 0 18 18" enable-background="new 0 0 18 18" xml:space="preserve">
<g id="shadows">
	<g opacity="0.2">
		<polygon points="3.8,8.8 3.8,11.6 14.9,11.6 14.9,10.6 15.8,10.6 15.8,9.7 16.7,9.7 16.7,8.8 		"/>
		<path d="M14,6V5.1H13V4.1H3.8v3.7h11.1V6H14z M5.6,6.9H4.7V5.1h0.9V6.9z M7.5,6.9H6.5V5.1h0.9V6.9z M9.3,6.9H8.4V5.1h0.9V6.9z
			 M13,6.9h-1.9V5.1h0.9V6H13V6.9z"/>
		<path d="M16.7,13l-0.9,0.5h-0.9L13,12.5h-0.9l-1.9,0.9H9.3l-1.9-0.9H6.5l-1.9,0.9H3.8v0.9h0.9l1.9-0.9h0.9l1.9,0.9h0.9l1.9-0.9H13
			l1.9,0.9h0.9l0.9-0.5c0-0.2,0-0.3,0-0.5C16.7,13.3,16.7,13.1,16.7,13z"/>
	</g>
</g>
<g id="icons">
	<g>
		<polygon fill="#FFFFFF" points="3,8 3,10.8 14.1,10.8 14.1,9.9 15.1,9.9 15.1,9 16,9 16,8 		"/>
		<path fill="#FFFFFF" d="M13.2,5.2V4.3h-0.9V3.4H3v3.7h11.1V5.2H13.2z M4.9,6.2H3.9V4.3h0.9V6.2z M6.7,6.2H5.8V4.3h0.9V6.2z
			 M8.6,6.2H7.6V4.3h0.9V6.2z M12.3,6.2h-1.9V4.3h0.9v0.9h0.9V6.2z"/>
		<path fill="#FFFFFF" d="M16,12.2l-0.9,0.5h-0.9l-1.9-0.9h-0.9l-1.9,0.9H8.6l-1.9-0.9H5.8l-1.9,0.9H3v0.9h0.9l1.9-0.9h0.9l1.9,0.9
			h0.9l1.9-0.9h0.9l1.9,0.9h0.9l0.9-0.5c0-0.2,0-0.3,0-0.5C16,12.5,16,12.4,16,12.2z"/>
	</g>
</g>
<g id="guides">
</g>
</svg>
