<?xml version="1.0" encoding="UTF-8" standalone="no"?>
<svg width="12px" height="12px" viewBox="0 0 12 12" version="1.1" xmlns="http://www.w3.org/2000/svg" xmlns:xlink="http://www.w3.org/1999/xlink" xmlns:sketch="http://www.bohemiancoding.com/sketch/ns">
    <!-- Generator: Sketch 3.2.2 (9983) - http://www.bohemiancoding.com/sketch -->
    <title>boat-tour-black-12</title>
    <desc>Created with Sketch.</desc>
    <defs></defs>
    <g id="Page-1" stroke="none" stroke-width="1" fill="none" fill-rule="evenodd" sketch:type="MSPage">
        <g id="Fill-97-+-Fill-98-+-Fill-99" sketch:type="MSLayerGroup" transform="translate(2.000000, 2.000000)" fill-opacity="0.1" fill="#0A0B09">
            <path d="M0,3.75225 L0,6.00225 L8.57142857,6.00225 L8.57142857,5.25225 L9.28571429,5.25225 L9.28571429,4.50225 L10,4.50225 L10,3.75225 L0,3.75225" id="Fill-97" sketch:type="MSShapeGroup"></path>
            <path d="M7.14285714,2.25225 L5.71428571,2.25225 L5.71428571,0.75225 L6.42857143,0.75225 L6.42857143,1.50225 L7.14285714,1.50225 L7.14285714,2.25225 L7.14285714,2.25225 Z M3.57142857,0.75225 L4.28571429,0.75225 L4.28571429,2.25225 L3.57142857,2.25225 L3.57142857,0.75225 Z M2.14285714,0.75225 L2.85714286,0.75225 L2.85714286,2.25225 L2.14285714,2.25225 L2.14285714,0.75225 Z M0.714285714,0.75225 L1.42857143,0.75225 L1.42857143,2.25225 L0.714285714,2.25225 L0.714285714,0.75225 Z M7.85714286,1.50225 L7.85714286,0.75225 L7.14285714,0.75225 L7.14285714,0.00225 L0,0.00225 L0,3.00225 L8.57142857,3.00225 L8.57142857,1.50225 L7.85714286,1.50225 L7.85714286,1.50225 Z" id="Fill-98" sketch:type="MSShapeGroup"></path>
            <path d="M10,7.12725 L9.28571429,7.50225 L8.57142857,7.50225 L7.14285714,6.75225 L6.42857143,6.75225 L5,7.50225 L4.28571429,7.50225 L2.85714286,6.75225 L2.14285714,6.75225 L0.714285714,7.50225 L0,7.50225 L0,8.25225 L0.714285714,8.25225 L2.14285714,7.50225 L2.85714286,7.50225 L4.28571429,8.25225 L5,8.25225 L6.42857143,7.50225 L7.14285714,7.50225 L8.57142857,8.25225 L9.28571429,8.25225 L10,7.87725 L10,7.50225 L10,7.12725" id="Fill-99" sketch:type="MSShapeGroup"></path>
        </g>
        <g id="Fill-97-+-Fill-98-+-Fill-99" sketch:type="MSLayerGroup" transform="translate(1.000000, 1.000000)" fill="#0A0B09" opacity="0.2">
            <path d="M0,3.75225 L0,6.00225 L8.57142857,6.00225 L8.57142857,5.25225 L9.28571429,5.25225 L9.28571429,4.50225 L10,4.50225 L10,3.75225 L0,3.75225" id="Fill-97" sketch:type="MSShapeGroup"></path>
            <path d="M7.14285714,2.25225 L5.71428571,2.25225 L5.71428571,0.75225 L6.42857143,0.75225 L6.42857143,1.50225 L7.14285714,1.50225 L7.14285714,2.25225 L7.14285714,2.25225 Z M3.57142857,0.75225 L4.28571429,0.75225 L4.28571429,2.25225 L3.57142857,2.25225 L3.57142857,0.75225 Z M2.14285714,0.75225 L2.85714286,0.75225 L2.85714286,2.25225 L2.14285714,2.25225 L2.14285714,0.75225 Z M0.714285714,0.75225 L1.42857143,0.75225 L1.42857143,2.25225 L0.714285714,2.25225 L0.714285714,0.75225 Z M7.85714286,1.50225 L7.85714286,0.75225 L7.14285714,0.75225 L7.14285714,0.00225 L0,0.00225 L0,3.00225 L8.57142857,3.00225 L8.57142857,1.50225 L7.85714286,1.50225 L7.85714286,1.50225 Z" id="Fill-98" sketch:type="MSShapeGroup"></path>
            <path d="M10,7.12725 L9.28571429,7.50225 L8.57142857,7.50225 L7.14285714,6.75225 L6.42857143,6.75225 L5,7.50225 L4.28571429,7.50225 L2.85714286,6.75225 L2.14285714,6.75225 L0.714285714,7.50225 L0,7.50225 L0,8.25225 L0.714285714,8.25225 L2.14285714,7.50225 L2.85714286,7.50225 L4.28571429,8.25225 L5,8.25225 L6.42857143,7.50225 L7.14285714,7.50225 L8.57142857,8.25225 L9.28571429,8.25225 L10,7.87725 L10,7.50225 L10,7.12725" id="Fill-99" sketch:type="MSShapeGroup"></path>
        </g>
        <g id="Fill-97-+-Fill-98-+-Fill-99" sketch:type="MSLayerGroup" fill="#0A0B09">
            <path d="M0,3.75225 L0,6.00225 L8.57142857,6.00225 L8.57142857,5.25225 L9.28571429,5.25225 L9.28571429,4.50225 L10,4.50225 L10,3.75225 L0,3.75225" id="Fill-97" sketch:type="MSShapeGroup"></path>
            <path d="M7.14285714,2.25225 L5.71428571,2.25225 L5.71428571,0.75225 L6.42857143,0.75225 L6.42857143,1.50225 L7.14285714,1.50225 L7.14285714,2.25225 L7.14285714,2.25225 Z M3.57142857,0.75225 L4.28571429,0.75225 L4.28571429,2.25225 L3.57142857,2.25225 L3.57142857,0.75225 Z M2.14285714,0.75225 L2.85714286,0.75225 L2.85714286,2.25225 L2.14285714,2.25225 L2.14285714,0.75225 Z M0.714285714,0.75225 L1.42857143,0.75225 L1.42857143,2.25225 L0.714285714,2.25225 L0.714285714,0.75225 Z M7.85714286,1.50225 L7.85714286,0.75225 L7.14285714,0.75225 L7.14285714,0.00225 L0,0.00225 L0,3.00225 L8.57142857,3.00225 L8.57142857,1.50225 L7.85714286,1.50225 L7.85714286,1.50225 Z" id="Fill-98" sketch:type="MSShapeGroup"></path>
            <path d="M10,7.12725 L9.28571429,7.50225 L8.57142857,7.50225 L7.14285714,6.75225 L6.42857143,6.75225 L5,7.50225 L4.28571429,7.50225 L2.85714286,6.75225 L2.14285714,6.75225 L0.714285714,7.50225 L0,7.50225 L0,8.25225 L0.714285714,8.25225 L2.14285714,7.50225 L2.85714286,7.50225 L4.28571429,8.25225 L5,8.25225 L6.42857143,7.50225 L7.14285714,7.50225 L8.57142857,8.25225 L9.28571429,8.25225 L10,7.87725 L10,7.50225 L10,7.12725" id="Fill-99" sketch:type="MSShapeGroup"></path>
        </g>
    </g>
</svg>