<?xml version="1.0" encoding="utf-8"?>
<!-- Generator: Adobe Illustrator 18.0.0, SVG Export Plug-In . SVG Version: 6.00 Build 0)  -->
<!DOCTYPE svg PUBLIC "-//W3C//DTD SVG 1.1//EN" "http://www.w3.org/Graphics/SVG/1.1/DTD/svg11.dtd" [
	<!ENTITY ns_flows "http://ns.adobe.com/Flows/1.0/">
	<!ENTITY ns_extend "http://ns.adobe.com/Extensibility/1.0/">
	<!ENTITY ns_ai "http://ns.adobe.com/AdobeIllustrator/10.0/">
	<!ENTITY ns_graphs "http://ns.adobe.com/Graphs/1.0/">
	<!ENTITY st0 "opacity:0.1;">
	<!ENTITY st1 "fill:#010101;">
	<!ENTITY st2 "opacity:0.2;">
]>
<svg version="1.1" id="Layer_1" xmlns:x="&ns_extend;" xmlns:i="&ns_ai;" xmlns:graph="&ns_graphs;"
	 xmlns="http://www.w3.org/2000/svg" xmlns:xlink="http://www.w3.org/1999/xlink" xmlns:a="http://ns.adobe.com/AdobeSVGViewerExtensions/3.0/"
	 x="0px" y="0px" width="20px" height="24px" viewBox="0 0 20 24" style="enable-background:new 0 0 20 24;" xml:space="preserve">
<g style="&st0;">
	<path style="&st1;" d="M14,2H8c0,0-6,0.1-6,8c0,2.6,0,11,0,11h2v3h2v-3h10v3h2v-3h2c0,0,0-3.2,0-11C20,2.1,14,2,14,2z M7,4h8v1H7V4
		z M6,18H4v-2h2V18z M18,18h-2v-2h2V18z M18,13H4V7.2C4,6.5,4.5,6,5.2,6H17c0.6,0,1,0.4,1,1V13z"/>
</g>
<g style="&st2;">
	<path style="&st1;" d="M13,1H7c0,0-6,0.1-6,8c0,2.6,0,11,0,11h2v3h2v-3h10v3h2v-3h2c0,0,0-3.2,0-11C19,1.1,13,1,13,1z M6,3h8v1H6V3
		z M5,17H3v-2h2V17z M17,17h-2v-2h2V17z M17,12H3V6.2C3,5.5,3.5,5,4.2,5H16c0.6,0,1,0.4,1,1V12z"/>
</g>
<g>
	<path style="&st1;" d="M12,0H6c0,0-6,0.1-6,8c0,2.6,0,11,0,11h2v3h2v-3h10v3h2v-3h2c0,0,0-3.2,0-11C18,0.1,12,0,12,0z M5,2h8v1H5V2
		z M4,16H2v-2h2V16z M16,16h-2v-2h2V16z M16,11H2V5.2C2,4.5,2.5,4,3.2,4H15c0.6,0,1,0.4,1,1V11z"/>
</g>
</svg>
