<?xml version="1.0" encoding="UTF-8" standalone="no"?>
<svg width="12px" height="12px" viewBox="0 0 12 12" version="1.1" xmlns="http://www.w3.org/2000/svg" xmlns:xlink="http://www.w3.org/1999/xlink" xmlns:sketch="http://www.bohemiancoding.com/sketch/ns">
    <!-- Generator: Sketch 3.2.2 (9983) - http://www.bohemiancoding.com/sketch -->
    <title>bus-stop-black-12</title>
    <desc>Created with Sketch.</desc>
    <defs></defs>
    <g id="Page-1" stroke="none" stroke-width="1" fill="none" fill-rule="evenodd" sketch:type="MSPage">
        <path d="M9.27272727,7 L2.72727273,7 L2.72727273,4.85714286 L3.45454545,4.14285714 L8.54545455,4.14285714 L9.27272727,4.85714286 L9.27272727,7 L9.27272727,7 Z M8.54545455,8.42857143 L9.27272727,8.42857143 L9.27272727,9.14285714 L8.54545455,9.14285714 L8.54545455,8.42857143 Z M2.72727273,8.42857143 L3.45454545,8.42857143 L3.45454545,9.14285714 L2.72727273,9.14285714 L2.72727273,8.42857143 Z M4.18181818,2.71428571 L7.81818182,2.71428571 L7.81818182,3.42857143 L4.18181818,3.42857143 L4.18181818,2.71428571 Z M9.27272727,2.71428571 L7.81818182,2 L4.18181818,2 L2.72727273,2.71428571 L2,3.42857143 L2,10.5714286 L2.72727273,10.5714286 L2.72727273,12 L3.45454545,12 L3.45454545,10.5714286 L8.54545455,10.5714286 L8.54545455,12 L9.27272727,12 L9.27272727,10.5714286 L10,10.5714286 L10,3.42857143 L9.27272727,2.71428571 L9.27272727,2.71428571 Z" id="Fill-114" fill-opacity="0.1" fill="#0A0B09" sketch:type="MSShapeGroup"></path>
        <path d="M8.27272727,6 L1.72727273,6 L1.72727273,3.85714286 L2.45454545,3.14285714 L7.54545455,3.14285714 L8.27272727,3.85714286 L8.27272727,6 L8.27272727,6 Z M7.54545455,7.42857143 L8.27272727,7.42857143 L8.27272727,8.14285714 L7.54545455,8.14285714 L7.54545455,7.42857143 Z M1.72727273,7.42857143 L2.45454545,7.42857143 L2.45454545,8.14285714 L1.72727273,8.14285714 L1.72727273,7.42857143 Z M3.18181818,1.71428571 L6.81818182,1.71428571 L6.81818182,2.42857143 L3.18181818,2.42857143 L3.18181818,1.71428571 Z M8.27272727,1.71428571 L6.81818182,1 L3.18181818,1 L1.72727273,1.71428571 L1,2.42857143 L1,9.57142857 L1.72727273,9.57142857 L1.72727273,11 L2.45454545,11 L2.45454545,9.57142857 L7.54545455,9.57142857 L7.54545455,11 L8.27272727,11 L8.27272727,9.57142857 L9,9.57142857 L9,2.42857143 L8.27272727,1.71428571 L8.27272727,1.71428571 Z" id="Fill-114" opacity="0.2" fill="#0A0B09" sketch:type="MSShapeGroup"></path>
        <path d="M7.27272727,5 L0.727272727,5 L0.727272727,2.85714286 L1.45454545,2.14285714 L6.54545455,2.14285714 L7.27272727,2.85714286 L7.27272727,5 L7.27272727,5 Z M6.54545455,6.42857143 L7.27272727,6.42857143 L7.27272727,7.14285714 L6.54545455,7.14285714 L6.54545455,6.42857143 Z M0.727272727,6.42857143 L1.45454545,6.42857143 L1.45454545,7.14285714 L0.727272727,7.14285714 L0.727272727,6.42857143 Z M2.18181818,0.714285714 L5.81818182,0.714285714 L5.81818182,1.42857143 L2.18181818,1.42857143 L2.18181818,0.714285714 Z M7.27272727,0.714285714 L5.81818182,0 L2.18181818,0 L0.727272727,0.714285714 L0,1.42857143 L0,8.57142857 L0.727272727,8.57142857 L0.727272727,10 L1.45454545,10 L1.45454545,8.57142857 L6.54545455,8.57142857 L6.54545455,10 L7.27272727,10 L7.27272727,8.57142857 L8,8.57142857 L8,1.42857143 L7.27272727,0.714285714 L7.27272727,0.714285714 Z" id="Fill-114" fill="#0A0B09" sketch:type="MSShapeGroup"></path>
    </g>
</svg>