<?xml version="1.0" encoding="utf-8"?>
<!-- Generator: Adobe Illustrator 18.1.1, SVG Export Plug-In . SVG Version: 6.00 Build 0)  -->
<svg version="1.1" xmlns="http://www.w3.org/2000/svg" xmlns:xlink="http://www.w3.org/1999/xlink" x="0px" y="0px"
	 viewBox="0 0 18 18" enable-background="new 0 0 18 18" xml:space="preserve">
<g id="shadows">
	<g opacity="0.2">
		<path d="M14.4,3.7l-1.9-0.9H7.9L6.1,3.7L5.1,4.6v9.3h0.9v1.9H7v-1.9h6.5v1.9h0.9v-1.9h0.9V4.6L14.4,3.7z M7.9,3.7h4.6v0.9H7.9V3.7
			z M7,12H6.1v-0.9H7V12z M14.4,12h-0.9v-0.9h0.9V12z M14.4,9.2H6.1V6.5L7,5.5h6.5l0.9,0.9V9.2z"/>
	</g>
</g>
<g id="icons">
	<g>
		<path fill="#FFFFFF" d="M13.7,2.9L11.8,2H7.2L5.3,2.9L4.4,3.9v9.3h0.9V15h0.9v-1.9h6.5V15h0.9v-1.9h0.9V3.9L13.7,2.9z M7.2,2.9
			h4.6v0.9H7.2V2.9z M6.2,11.3H5.3v-0.9h0.9V11.3z M13.7,11.3h-0.9v-0.9h0.9V11.3z M13.7,8.5H5.3V5.7l0.9-0.9h6.5l0.9,0.9V8.5z"/>
	</g>
</g>
<g id="guides">
</g>
</svg>
