<?xml version="1.0" encoding="UTF-8" standalone="no"?>
<svg width="18px" height="18px" viewBox="0 0 18 18" version="1.1" xmlns="http://www.w3.org/2000/svg" xmlns:xlink="http://www.w3.org/1999/xlink" xmlns:sketch="http://www.bohemiancoding.com/sketch/ns">
    <!-- Generator: Sketch 3.2.2 (9983) - http://www.bohemiancoding.com/sketch -->
    <title>bus-stop-white-18</title>
    <desc>Created with Sketch.</desc>
    <defs></defs>
    <g id="Page-1" stroke="none" stroke-width="1" fill="none" fill-rule="evenodd" sketch:type="MSPage">
        <path d="M13.8518519,9.91145368 L3.48148148,9.91145368 L3.48148148,5.65356968 C3.48148148,5.18347243 3.86666667,4.8017009 4.34814815,4.8017009 L13.1111111,4.8017009 C13.5185185,4.8017009 13.8518519,5.12872507 13.8518519,5.53239554 L13.8518519,9.91145368 L13.8518519,9.91145368 Z M12.3703704,12.1013477 L13.8518519,12.1013477 L13.8518519,13.5612771 L12.3703704,13.5612771 L12.3703704,12.1013477 Z M3.48148148,12.1013477 L4.96296296,12.1013477 L4.96296296,13.5612771 L3.48148148,13.5612771 L3.48148148,12.1013477 Z M5.7037037,3.34177153 L11.6296296,3.34177153 L11.6296296,4.07173621 L5.7037037,4.07173621 L5.7037037,3.34177153 Z M10.8888889,1.88184216 L6.44444444,1.88184216 C6.44444444,1.88184216 2,1.94242923 2,7.72155963 L2,15.7511711 L3.48148148,15.7511711 L3.48148148,17.9410652 L4.96296296,17.9410652 L4.96296296,15.7511711 L12.3703704,15.7511711 L12.3703704,17.9410652 L13.8518519,17.9410652 L13.8518519,15.7511711 L15.3333333,15.7511711 L15.3333333,7.72155963 C15.3333333,1.94242923 10.8888889,1.88184216 10.8888889,1.88184216 L10.8888889,1.88184216 Z" id="Fill-113" opacity="0.5" fill="#0A0B09" sketch:type="MSShapeGroup"></path>
        <path d="M12.8518519,8.91145368 L2.48148148,8.91145368 L2.48148148,4.65356968 C2.48148148,4.18347243 2.86666667,3.8017009 3.34814815,3.8017009 L12.1111111,3.8017009 C12.5185185,3.8017009 12.8518519,4.12872507 12.8518519,4.53239554 L12.8518519,8.91145368 L12.8518519,8.91145368 Z M11.3703704,11.1013477 L12.8518519,11.1013477 L12.8518519,12.5612771 L11.3703704,12.5612771 L11.3703704,11.1013477 Z M2.48148148,11.1013477 L3.96296296,11.1013477 L3.96296296,12.5612771 L2.48148148,12.5612771 L2.48148148,11.1013477 Z M4.7037037,2.34177153 L10.6296296,2.34177153 L10.6296296,3.07173621 L4.7037037,3.07173621 L4.7037037,2.34177153 Z M9.88888889,0.881842162 L5.44444444,0.881842162 C5.44444444,0.881842162 1,0.942429231 1,6.72155963 L1,14.7511711 L2.48148148,14.7511711 L2.48148148,16.9410652 L3.96296296,16.9410652 L3.96296296,14.7511711 L11.3703704,14.7511711 L11.3703704,16.9410652 L12.8518519,16.9410652 L12.8518519,14.7511711 L14.3333333,14.7511711 L14.3333333,6.72155963 C14.3333333,0.942429231 9.88888889,0.881842162 9.88888889,0.881842162 L9.88888889,0.881842162 Z" id="Fill-113" opacity="0.75" fill="#0A0B09" sketch:type="MSShapeGroup"></path>
        <path d="M11.8518519,7.91145368 L1.48148148,7.91145368 L1.48148148,3.65356968 C1.48148148,3.18347243 1.86666667,2.8017009 2.34814815,2.8017009 L11.1111111,2.8017009 C11.5185185,2.8017009 11.8518519,3.12872507 11.8518519,3.53239554 L11.8518519,7.91145368 L11.8518519,7.91145368 Z M10.3703704,10.1013477 L11.8518519,10.1013477 L11.8518519,11.5612771 L10.3703704,11.5612771 L10.3703704,10.1013477 Z M1.48148148,10.1013477 L2.96296296,10.1013477 L2.96296296,11.5612771 L1.48148148,11.5612771 L1.48148148,10.1013477 Z M3.7037037,1.34177153 L9.62962963,1.34177153 L9.62962963,2.07173621 L3.7037037,2.07173621 L3.7037037,1.34177153 Z M8.88888889,-0.118157838 L4.44444444,-0.118157838 C4.44444444,-0.118157838 0,-0.0575707688 0,5.72155963 L0,13.7511711 L1.48148148,13.7511711 L1.48148148,15.9410652 L2.96296296,15.9410652 L2.96296296,13.7511711 L10.3703704,13.7511711 L10.3703704,15.9410652 L11.8518519,15.9410652 L11.8518519,13.7511711 L13.3333333,13.7511711 L13.3333333,5.72155963 C13.3333333,-0.0575707688 8.88888889,-0.118157838 8.88888889,-0.118157838 L8.88888889,-0.118157838 Z" id="Fill-113" fill="#FFFFFF" sketch:type="MSShapeGroup"></path>
    </g>
</svg>