<?xml version="1.0" encoding="utf-8"?>
<!-- Generator: Adobe Illustrator 18.1.1, SVG Export Plug-In . SVG Version: 6.00 Build 0)  -->
<svg version="1.1" xmlns="http://www.w3.org/2000/svg" xmlns:xlink="http://www.w3.org/1999/xlink" x="0px" y="0px"
	 viewBox="0 0 12 12" enable-background="new 0 0 12 12" xml:space="preserve">
<g id="shadows">
	<g opacity="0.2">
		<path d="M9.9,2.1L8.6,1.5H5.4L4.1,2.1L3.5,2.8v6.4h0.6v1.3h0.6V9.2h4.5v1.3h0.6V9.2h0.6V2.8L9.9,2.1z M5.4,2.1h3.2v0.6H5.4V2.1z
			 M4.8,7.9H4.1V7.3h0.6V7.9z M9.9,7.9H9.2V7.3h0.6V7.9z M9.9,6H4.1V4.1l0.6-0.6h4.5l0.6,0.6V6z"/>
	</g>
</g>
<g id="icons">
	<g>
		<path fill="#FFFFFF" d="M9.4,1.6L8.1,1H4.9L3.6,1.6L3,2.3v6.4h0.6V10h0.6V8.7h4.5V10h0.6V8.7H10V2.3L9.4,1.6z M4.9,1.6h3.2v0.6
			H4.9V1.6z M4.3,7.4H3.6V6.8h0.6V7.4z M9.4,7.4H8.8V6.8h0.6V7.4z M9.4,5.5H3.6V3.6l0.6-0.6h4.5l0.6,0.6V5.5z"/>
	</g>
</g>
<g id="guides">
</g>
</svg>
