<?xml version="1.0" encoding="UTF-8" standalone="no"?>
<!-- Created with Inkscape (http://www.inkscape.org/) -->

<svg
   xmlns:dc="http://purl.org/dc/elements/1.1/"
   xmlns:cc="http://creativecommons.org/ns#"
   xmlns:rdf="http://www.w3.org/1999/02/22-rdf-syntax-ns#"
   xmlns:svg="http://www.w3.org/2000/svg"
   xmlns="http://www.w3.org/2000/svg"
   xmlns:sodipodi="http://sodipodi.sourceforge.net/DTD/sodipodi-0.dtd"
   xmlns:inkscape="http://www.inkscape.org/namespaces/inkscape"
   width="12"
   height="12"
   id="svg27498"
   version="1.1"
   inkscape:version="0.48.2 r9819"
   sodipodi:docname="bus-shuttle-stop-black-18.svg">
  <defs
     id="defs27500" />
  <sodipodi:namedview
     id="base"
     pagecolor="#ffffff"
     bordercolor="#666666"
     borderopacity="1.0"
     inkscape:pageopacity="0.0"
     inkscape:pageshadow="2"
     inkscape:zoom="10.676107"
     inkscape:cx="8.4773277"
     inkscape:cy="5.7946291"
     inkscape:document-units="px"
     inkscape:current-layer="layer1"
     showgrid="false"
     inkscape:window-width="721"
     inkscape:window-height="454"
     inkscape:window-x="2867"
     inkscape:window-y="322"
     inkscape:window-maximized="0" />
  <metadata
     id="metadata27503">
    <rdf:RDF>
      <cc:Work
         rdf:about="">
        <dc:format>image/svg+xml</dc:format>
        <dc:type
           rdf:resource="http://purl.org/dc/dcmitype/StillImage" />
        <dc:title></dc:title>
      </cc:Work>
    </rdf:RDF>
  </metadata>
  <g
     inkscape:label="Layer 1"
     inkscape:groupmode="layer"
     id="layer1"
     transform="translate(0,-1040.3622)">
    <g
       id="g11854"
       transform="translate(-119.88064,735.03765)">
      <path
         d="m 130.44258,317.32986 c 0.79166,0 1.43276,-0.63989 1.43276,-1.43276 v -9.13205 c 0,-0.79166 -0.63988,-1.43519 -1.43276,-1.43519 h -9.13205 c -0.79166,0 -1.43519,0.64231 -1.43519,1.43519 v 9.13205 c 0,0.79166 0.64232,1.43276 1.43519,1.43276 h 9.13205 z"
         id="path11845"
         inkscape:connector-curvature="0"
         style="opacity:0;fill:#272525" />
      <path
         style="opacity:0.6;fill:none;stroke:#1d1d1c;stroke-width:0.60710311;stroke-miterlimit:4;stroke-opacity:1;stroke-dasharray:none"
         inkscape:connector-curvature="0"
         id="path11847"
         d="m 128.48406,311.28797 h -5.21744 c -0.15178,0 -0.27805,-0.12628 -0.27805,-0.27805 0,-0.0255 0.005,-0.0498 0.01,-0.0741 l 0.27805,-2.06051 c 0.0243,-0.12749 0.13721,-0.22827 0.2732,-0.22827 h 4.65284 c 0.13477,0 0.24891,0.0996 0.27319,0.22827 l 0.27806,2.06051 c 0.005,0.0243 0.01,0.0473 0.01,0.0741 -0.001,0.15177 -0.12749,0.27805 -0.27927,0.27805 z m -0.20884,2.24385 c -0.29384,0 -0.53182,-0.23677 -0.53182,-0.53182 0,-0.29262 0.23798,-0.53061 0.53182,-0.53061 0.29141,0 0.53061,0.23799 0.53061,0.53061 0,0.29505 -0.2392,0.53182 -0.53061,0.53182 z m -4.80704,0 c -0.29141,0 -0.53061,-0.23677 -0.53061,-0.53182 0,-0.29262 0.23798,-0.53061 0.53061,-0.53061 0.29384,0 0.53182,0.23799 0.53182,0.53061 0.001,0.29505 -0.23798,0.53182 -0.53182,0.53182 z m 0.82444,-5.81726 h 3.15937 c 0.31084,0 0.31084,0.58768 0,0.58768 h -3.15937 c -0.31083,0.001 -0.31083,-0.58768 0,-0.58768 z m 4.73177,0.68481 c -0.0947,-0.47111 -0.39584,-0.65931 -0.84873,-0.84751 -0.4529,-0.18821 -1.51291,-0.41405 -2.30214,-0.41405 -0.79166,0 -1.85166,0.22584 -2.30456,0.41405 -0.4529,0.1882 -0.75402,0.37761 -0.84873,0.84751 l -0.33877,2.61297 v 3.60013 h 0.58525 v 0.5646 c 0,0.68724 1.00779,0.68724 1.00779,0 v -0.5646 h 3.79925 v 0.5646 c 0,0.68724 1.00537,0.68724 1.00537,0 v -0.5646 h 0.58524 v -3.60013 l -0.33997,-2.61297 z" />
      <path
         d="m 128.48406,311.28797 h -5.21744 c -0.15178,0 -0.27805,-0.12628 -0.27805,-0.27805 0,-0.0255 0.005,-0.0498 0.01,-0.0741 l 0.27805,-2.06051 c 0.0243,-0.12749 0.13721,-0.22827 0.2732,-0.22827 h 4.65284 c 0.13477,0 0.24891,0.0996 0.27319,0.22827 l 0.27806,2.06051 c 0.005,0.0243 0.01,0.0473 0.01,0.0741 -0.001,0.15177 -0.12749,0.27805 -0.27927,0.27805 z m -0.20884,2.24385 c -0.29384,0 -0.53182,-0.23677 -0.53182,-0.53182 0,-0.29262 0.23798,-0.53061 0.53182,-0.53061 0.29141,0 0.53061,0.23799 0.53061,0.53061 0,0.29505 -0.2392,0.53182 -0.53061,0.53182 z m -4.80704,0 c -0.29141,0 -0.53061,-0.23677 -0.53061,-0.53182 0,-0.29262 0.23798,-0.53061 0.53061,-0.53061 0.29384,0 0.53182,0.23799 0.53182,0.53061 0.001,0.29505 -0.23798,0.53182 -0.53182,0.53182 z m 0.82444,-5.81726 h 3.15937 c 0.31084,0 0.31084,0.58768 0,0.58768 h -3.15937 c -0.31083,0.001 -0.31083,-0.58768 0,-0.58768 z m 4.73177,0.68481 c -0.0947,-0.47111 -0.39584,-0.65931 -0.84873,-0.84751 -0.4529,-0.18821 -1.51291,-0.41405 -2.30214,-0.41405 -0.79166,0 -1.85166,0.22584 -2.30456,0.41405 -0.4529,0.1882 -0.75402,0.37761 -0.84873,0.84751 l -0.33877,2.61297 v 3.60013 h 0.58525 v 0.5646 c 0,0.68724 1.00779,0.68724 1.00779,0 v -0.5646 h 3.79925 v 0.5646 c 0,0.68724 1.00537,0.68724 1.00537,0 v -0.5646 h 0.58524 v -3.60013 l -0.33997,-2.61297 z"
         id="path11849"
         inkscape:connector-curvature="0"
         style="fill:#ffffff;fill-opacity:1" />
    </g>
  </g>
</svg>
