<?xml version="1.0" encoding="UTF-8" standalone="no"?>
<!-- Created with Inkscape (http://www.inkscape.org/) -->

<svg
   xmlns:dc="http://purl.org/dc/elements/1.1/"
   xmlns:cc="http://creativecommons.org/ns#"
   xmlns:rdf="http://www.w3.org/1999/02/22-rdf-syntax-ns#"
   xmlns:svg="http://www.w3.org/2000/svg"
   xmlns="http://www.w3.org/2000/svg"
   version="1.1"
   width="18"
   height="18"
   id="svg4619">
  <defs
     id="defs4621" />
  <metadata
     id="metadata4624">
    <rdf:RDF>
      <cc:Work
         rdf:about="">
        <dc:format>image/svg+xml</dc:format>
        <dc:type
           rdf:resource="http://purl.org/dc/dcmitype/StillImage" />
        <dc:title></dc:title>
      </cc:Work>
    </rdf:RDF>
  </metadata>
  <path
     d="M 6.5,2 6.5,3 5,3 C 4.5,3 4,3.5 4,4 l 0,10 1,0 0,1 2,0 0,-1 5,0 0,1 2,0 0,-1 1,0 0,-10 C 15,3.5 14.5,3 14,3 l -1.5,0 0,-1 -6,0 z M 6,4 13,4 13,8 6,8 6,4 z m 0.75,6.5 c 0.41421,0 0.75,0.33579 0.75,0.75 C 7.5,11.66421 7.16421,12 6.75,12 6.33579,12 6,11.66421 6,11.25 6,10.83579 6.33579,10.5 6.75,10.5 z m 5.5,0 c 0.41421,0 0.75,0.33579 0.75,0.75 0,0.41421 -0.33579,0.75 -0.75,0.75 -0.41421,0 -0.75,-0.33579 -0.75,-0.75 0,-0.41421 0.33579,-0.75 0.75,-0.75 z"
     id="path12748"
     style="opacity:0.3;color:#000000;fill:#ffffff;fill-opacity:1;fill-rule:nonzero;stroke:#ffffff;stroke-width:2;stroke-linecap:round;stroke-linejoin:round;stroke-miterlimit:4;stroke-opacity:1;stroke-dasharray:none;stroke-dashoffset:0;marker:none;visibility:visible;display:inline;overflow:visible;enable-background:accumulate" />
  <path
     d="M 6.5,2 6.5,3 5,3 C 4.5,3 4,3.5 4,4 l 0,10 1,0 0,1 2,0 0,-1 5,0 0,1 2,0 0,-1 1,0 0,-10 C 15,3.5 14.5,3 14,3 l -1.5,0 0,-1 -6,0 z M 6,4 13,4 13,8 6,8 6,4 z m 0.75,6.5 c 0.41421,0 0.75,0.33579 0.75,0.75 C 7.5,11.66421 7.16421,12 6.75,12 6.33579,12 6,11.66421 6,11.25 6,10.83579 6.33579,10.5 6.75,10.5 z m 5.5,0 c 0.41421,0 0.75,0.33579 0.75,0.75 0,0.41421 -0.33579,0.75 -0.75,0.75 -0.41421,0 -0.75,-0.33579 -0.75,-0.75 0,-0.41421 0.33579,-0.75 0.75,-0.75 z"
     id="path8522-6-8-58"
     style="color:#000000;fill:#444444;fill-opacity:1;fill-rule:nonzero;stroke:none;stroke-width:2;marker:none;visibility:visible;display:inline;overflow:visible;enable-background:accumulate" />
  <rect
     width="18"
     height="18"
     x="0"
     y="0"
     id="canvas"
     style="fill:none;stroke:none;visibility:hidden" />
</svg>
