<?xml version="1.0" encoding="utf-8"?>
<!-- Generator: Adobe Illustrator 18.1.1, SVG Export Plug-In . SVG Version: 6.00 Build 0)  -->
<svg version="1.1" xmlns="http://www.w3.org/2000/svg" xmlns:xlink="http://www.w3.org/1999/xlink" x="0px" y="0px"
	 viewBox="0 0 12 12" enable-background="new 0 0 12 12" xml:space="preserve">
<g id="shadows">
	<g opacity="0.2">
		<path d="M8.9,2.1L7.6,1.5H4.4L3.1,2.1L2.5,2.8v6.4h0.6v1.3h0.6V9.2h4.5v1.3h0.6V9.2h0.6V2.8L8.9,2.1z M4.4,2.1h3.2v0.6H4.4V2.1z
			 M3.8,7.9H3.1V7.3h0.6V7.9z M8.9,7.9H8.3V7.3h0.6V7.9z M8.9,6H3.1V4.1l0.6-0.6h4.5l0.6,0.6V6z"/>
	</g>
</g>
<g id="icons">
	<g>
		<path fill="#FFFFFF" d="M8.4,1.6L7.1,1H3.9L2.6,1.6L2,2.3v6.4h0.6V10h0.6V8.7h4.5V10h0.6V8.7H9V2.3L8.4,1.6z M3.9,1.6h3.2v0.6H3.9
			V1.6z M3.3,7.4H2.6V6.8h0.6V7.4z M8.4,7.4H7.8V6.8h0.6V7.4z M8.4,5.5H2.6V3.6l0.6-0.6h4.5l0.6,0.6V5.5z"/>
	</g>
</g>
<g id="guides">
</g>
</svg>
