<?xml version="1.0" encoding="utf-8"?>
<!-- Generator: Adobe Illustrator 18.1.1, SVG Export Plug-In . SVG Version: 6.00 Build 0)  -->
<svg version="1.1" xmlns="http://www.w3.org/2000/svg" xmlns:xlink="http://www.w3.org/1999/xlink" x="0px" y="0px"
	 viewBox="0 0 24 24" enable-background="new 0 0 24 24" xml:space="preserve">
<g id="shadows">
	<g opacity="0.2">
		<path d="M15.8,4h-4.6c0,0-4.6,0.1-4.6,6.2c0,2,0,8.5,0,8.5h1.5V21h1.5v-2.3h7.7V21h1.5v-2.3h1.5c0,0,0-2.4,0-8.5
			C20.5,4.1,15.8,4,15.8,4z M10.4,5.5h6.2v0.8h-6.2V5.5z M9.6,16.4H8.1v-1.5h1.5V16.4z M18.9,16.4h-1.5v-1.5h1.5V16.4z M18.9,12.5
			H8.1V8c0-0.5,0.4-0.9,0.9-0.9h9.1c0.4,0,0.8,0.3,0.8,0.8V12.5z"/>
	</g>
</g>
<g id="icons">
	<g>
		<path d="M14.8,3h-4.6c0,0-4.6,0.1-4.6,6.2c0,2,0,8.5,0,8.5h1.5V20h1.5v-2.3h7.7V20h1.5v-2.3h1.5c0,0,0-2.4,0-8.5
			C19.5,3.1,14.8,3,14.8,3z M9.4,4.5h6.2v0.8H9.4V4.5z M8.6,15.4H7.1v-1.5h1.5V15.4z M17.9,15.4h-1.5v-1.5h1.5V15.4z M17.9,11.5H7.1
			V7c0-0.5,0.4-0.9,0.9-0.9h9.1c0.4,0,0.8,0.3,0.8,0.8V11.5z"/>
	</g>
</g>
<g id="guides">
</g>
</svg>
