<?xml version="1.0" encoding="utf-8"?>
<!-- Generator: Adobe Illustrator 18.1.1, SVG Export Plug-In . SVG Version: 6.00 Build 0)  -->
<svg version="1.1" xmlns="http://www.w3.org/2000/svg" xmlns:xlink="http://www.w3.org/1999/xlink" x="0px" y="0px"
	 viewBox="0 0 18 18" enable-background="new 0 0 18 18" xml:space="preserve">
<g id="shadows-text-objects" display="none">
	
		<text transform="matrix(1 0 0 1 6.2781 13.7503)" display="inline" opacity="0.2" font-family="'FrutigerLTStd-Roman'" font-size="13">C</text>
</g>
<g id="letters-text-objects" display="none">
	<text transform="matrix(1 0 0 1 5.5283 13.0002)" display="inline" font-family="'FrutigerLTStd-Roman'" font-size="13">C</text>
</g>
<g id="shadows-outlines">
	<g opacity="0.2">
		<path d="M13.701,6.171c-0.571-0.338-1.209-0.507-1.872-0.507c-2.093,0-3.484,1.508-3.484,3.549c0,2.132,1.534,3.549,3.42,3.549
			c0.649,0,1.521-0.169,1.976-0.441l0.078,1.261c-0.688,0.286-1.534,0.325-2.066,0.325c-2.874,0-4.785-1.847-4.785-4.732
			c0-2.795,2.028-4.654,4.798-4.654c0.702,0,1.391,0.104,2.041,0.391L13.701,6.171z"/>
	</g>
</g>
<g id="letters-outlines">
	<g>
		<path d="M12.951,5.421c-0.571-0.338-1.209-0.507-1.872-0.507c-2.093,0-3.483,1.508-3.483,3.549c0,2.132,1.533,3.549,3.419,3.549
			c0.649,0,1.521-0.169,1.976-0.441l0.078,1.261c-0.688,0.286-1.534,0.325-2.066,0.325c-2.873,0-4.785-1.847-4.785-4.732
			c0-2.795,2.029-4.654,4.798-4.654c0.702,0,1.391,0.104,2.041,0.391L12.951,5.421z"/>
	</g>
</g>
<g id="guides_and_set-up" display="none">
</g>
</svg>
