<?xml version="1.0" encoding="utf-8"?>
<!-- Generator: Adobe Illustrator 18.1.1, SVG Export Plug-In . SVG Version: 6.00 Build 0)  -->
<svg version="1.1" xmlns="http://www.w3.org/2000/svg" xmlns:xlink="http://www.w3.org/1999/xlink" x="0px" y="0px"
	 viewBox="0 0 12 12" enable-background="new 0 0 12 12" xml:space="preserve">
<g id="shadows-text-objects" display="none">
	<text transform="matrix(1 0 0 1 3.2505 9.142)" display="inline" opacity="0.2" font-family="'FrutigerLTStd-Bold'" font-size="9">C</text>
</g>
<g id="letters-text-objects" display="none">
	<text transform="matrix(1 0 0 1 2.7505 8.6418)" display="inline" font-family="'FrutigerLTStd-Bold'" font-size="9">C</text>
</g>
<g id="shadows-outlines">
	<g opacity="0.2">
		<path d="M8.553,9.052C8.094,9.159,7.599,9.25,7.122,9.25c-2.035,0-3.448-1.018-3.448-3.143c0-2.151,1.314-3.357,3.448-3.357
			c0.414,0,0.963,0.081,1.422,0.261l-0.09,1.062C7.977,3.804,7.545,3.74,7.095,3.74c-1.296,0-2.106,0.99-2.106,2.277
			c0,1.278,0.792,2.242,2.134,2.242c0.495,0,1.08-0.108,1.377-0.262L8.553,9.052z"/>
	</g>
</g>
<g id="letters-outlines">
	<g>
		<path d="M7.891,3.394C7.495,3.159,7.054,3.042,6.595,3.042c-1.45,0-2.413,1.044-2.413,2.458c0,1.477,1.062,2.457,2.368,2.457
			c0.45,0,1.053-0.116,1.368-0.306l0.054,0.873C7.495,8.723,6.91,8.75,6.541,8.75c-1.99,0-3.313-1.278-3.313-3.277
			c0-1.936,1.404-3.223,3.322-3.223c0.486,0,0.963,0.072,1.413,0.27L7.891,3.394z"/>
	</g>
	<g>
		<path d="M8.053,8.552C7.594,8.659,7.099,8.75,6.622,8.75c-2.035,0-3.448-1.018-3.448-3.143c0-2.151,1.314-3.357,3.448-3.357
			c0.414,0,0.963,0.081,1.422,0.261l-0.09,1.062C7.477,3.304,7.045,3.24,6.595,3.24c-1.296,0-2.106,0.99-2.106,2.277
			c0,1.278,0.792,2.242,2.134,2.242c0.495,0,1.08-0.108,1.377-0.262L8.053,8.552z"/>
	</g>
</g>
<g id="guides_and_set-up" display="none">
</g>
</svg>
