<?xml version="1.0" encoding="utf-8"?>
<!-- Generator: Adobe Illustrator 18.1.1, SVG Export Plug-In . SVG Version: 6.00 Build 0)  -->
<svg version="1.1" xmlns="http://www.w3.org/2000/svg" xmlns:xlink="http://www.w3.org/1999/xlink" x="0px" y="0px"
	 viewBox="0 0 12 12" enable-background="new 0 0 12 12" xml:space="preserve">
<g id="shadows-text-objects" display="none">
	
		<text transform="matrix(1 0 0 1 2.7505 9.142)" display="inline" opacity="0.2" font-family="'FrutigerLTStd-Roman'" font-size="9">C</text>
</g>
<g id="letters-text-objects" display="none">
	
		<text transform="matrix(1 0 0 1 2.2505 8.6418)" display="inline" fill="#FFFFFF" font-family="'FrutigerLTStd-Roman'" font-size="9">C</text>
</g>
<g id="shadows-outlines">
	<g opacity="0.2">
		<path d="M7.891,3.894C7.495,3.659,7.054,3.542,6.595,3.542C5.146,3.542,4.183,4.586,4.183,6c0,1.477,1.062,2.457,2.367,2.457
			c0.45,0,1.053-0.116,1.368-0.306l0.054,0.873C7.495,9.223,6.91,9.25,6.541,9.25c-1.99,0-3.313-1.278-3.313-3.277
			c0-1.936,1.404-3.223,3.322-3.223c0.486,0,0.963,0.072,1.413,0.27L7.891,3.894z"/>
	</g>
</g>
<g id="letters-outlines">
	<g>
		<path fill="#FFFFFF" d="M7.391,3.394C6.995,3.159,6.554,3.042,6.095,3.042c-1.45,0-2.413,1.044-2.413,2.458
			c0,1.477,1.062,2.457,2.368,2.457c0.45,0,1.053-0.116,1.368-0.306l0.054,0.873C6.995,8.723,6.41,8.75,6.041,8.75
			c-1.99,0-3.313-1.278-3.313-3.277c0-1.936,1.404-3.223,3.322-3.223c0.486,0,0.963,0.072,1.413,0.27L7.391,3.394z"/>
	</g>
</g>
<g id="guides_and_set-up" display="none">
</g>
</svg>
