<?xml version="1.0" encoding="UTF-8" standalone="no"?>
<!-- Created with Inkscape (http://www.inkscape.org/) -->

<svg
   xmlns:dc="http://purl.org/dc/elements/1.1/"
   xmlns:cc="http://creativecommons.org/ns#"
   xmlns:rdf="http://www.w3.org/1999/02/22-rdf-syntax-ns#"
   xmlns:svg="http://www.w3.org/2000/svg"
   xmlns="http://www.w3.org/2000/svg"
   version="1.1"
   width="18"
   height="18"
   viewBox="-402.5 403.5 18 18"
   id="svg4619"
   xml:space="preserve"><metadata
     id="metadata3025"><rdf:RDF><cc:Work
         rdf:about=""><dc:format>image/svg+xml</dc:format><dc:type
           rdf:resource="http://purl.org/dc/dcmitype/StillImage" /><dc:title></dc:title></cc:Work></rdf:RDF></metadata><defs
     id="defs3023" /><g
     transform="translate(0,-1034.3622)"
     id="layer1" /><path
     d="M 9,2 C 8.448,2 8,2.447 8,3 L 8,4 7,4 C 7,3.447 7,3 7,3 L 4,3 C 4,3 4,3.447 4,4 3.38951,4 3.5,4 3,4 l 0,8 c 0,0.553 0.448,1 1,1 l 11,0 c 0.552,0 1,-0.447 1,-1 L 16,5 C 16,4.447 15.553,4 15,4 L 13,4 13,3 C 13,2.447 12.552,2 12,2 z m 1.5,3.5 c 1.65687,0 3,1.34315 3,3 0,1.65684 -1.34313,3 -3,3 -1.65685,0 -3,-1.34316 -3,-3 0,-1.65685 1.34315,-3 3,-3 z"
     transform="translate(-402.5,403.5)"
     id="path14943"
     style="opacity:0.3;fill:none;stroke:#ffffff;stroke-width:2;stroke-linecap:round;stroke-linejoin:round;stroke-miterlimit:4;stroke-opacity:1;stroke-dasharray:none" /><path
     d="M 9,2 C 8.448,2 8,2.447 8,3 L 8,4 7,4 C 7,3.447 7,3 7,3 L 4,3 C 4,3 4,3.447 4,4 3.38951,4 3.5,4 3,4 l 0,8 c 0,0.553 0.448,1 1,1 l 11,0 c 0.552,0 1,-0.447 1,-1 L 16,5 C 16,4.447 15.553,4 15,4 L 13,4 13,3 C 13,2.447 12.552,2 12,2 z m 1.5,3.5 c 1.65687,0 3,1.34315 3,3 0,1.65684 -1.34313,3 -3,3 -1.65685,0 -3,-1.34316 -3,-3 0,-1.65685 1.34315,-3 3,-3 z"
     transform="translate(-402.5,403.5)"
     id="path3019"
     style="fill:#454545" /><path
     d="m -390.5,412 c 0,0.82843 -0.67157,1.5 -1.5,1.5 -0.82843,0 -1.5,-0.67157 -1.5,-1.5 0,-0.82843 0.67157,-1.5 1.5,-1.5 0.82843,0 1.5,0.67157 1.5,1.5 z"
     id="circle3021"
     style="fill:#454545" /><rect
     width="18"
     height="18"
     x="0"
     y="0"
     id="canvas"
     style="fill:none;stroke:none;visibility:hidden" /></svg>