<?xml version="1.0" encoding="utf-8"?>
<!-- Generator: Adobe Illustrator 15.1.0, SVG Export Plug-In . SVG Version: 6.00 Build 0)  -->
<!DOCTYPE svg PUBLIC "-//W3C//DTD SVG 1.1//EN" "http://www.w3.org/Graphics/SVG/1.1/DTD/svg11.dtd">
<svg version="1.1"
	 id="svg4764" sodipodi:docname="marker-stroked-12.svg" inkscape:version="0.48.2 r9819" xmlns:sodipodi="http://sodipodi.sourceforge.net/DTD/sodipodi-0.dtd" xmlns:inkscape="http://www.inkscape.org/namespaces/inkscape" xmlns:svg="http://www.w3.org/2000/svg" xmlns:rdf="http://www.w3.org/1999/02/22-rdf-syntax-ns#" xmlns:cc="http://creativecommons.org/ns#" xmlns:dc="http://purl.org/dc/elements/1.1/"
	 xmlns="http://www.w3.org/2000/svg" xmlns:xlink="http://www.w3.org/1999/xlink" x="0px" y="0px" width="12px" height="12px"
	 viewBox="-402.5 403.5 12 12" enable-background="new -402.5 403.5 12 12" xml:space="preserve">
<sodipodi:namedview  id="base" inkscape:pageopacity="0.0" borderopacity="1.0" inkscape:cx="5.4435686" inkscape:pageshadow="2" inkscape:zoom="22.627417" inkscape:document-units="px" inkscape:current-layer="layer1" inkscape:guide-bbox="true" showguides="true" inkscape:window-width="957" showgrid="true" inkscape:window-height="704" inkscape:window-x="96" inkscape:cy="2.8129693" inkscape:window-y="60" inkscape:window-maximized="0" pagecolor="#ffffff" bordercolor="#666666">
	<inkscape:grid  type="xygrid" id="grid4772" enabled="true" empspacing="5" visible="true" snapvisiblegridlinesonly="true">
		</inkscape:grid>
	<sodipodi:guide  id="guide4789" position="2,12" orientation="0,1"></sodipodi:guide>
	<sodipodi:guide  id="guide4791" position="12,10" orientation="1,0"></sodipodi:guide>
	<sodipodi:guide  id="guide4793" position="10,0" orientation="0,1"></sodipodi:guide>
	<sodipodi:guide  id="guide4795" position="0,9" orientation="1,0"></sodipodi:guide>
	<sodipodi:guide  id="guide4797" position="5,11" orientation="0,1"></sodipodi:guide>
	<sodipodi:guide  id="guide4799" position="11,7" orientation="1,0"></sodipodi:guide>
	<sodipodi:guide  id="guide4801" position="9,2" orientation="0,1"></sodipodi:guide>
	<sodipodi:guide  id="guide4803" position="2,5" orientation="1,0"></sodipodi:guide>
</sodipodi:namedview>
<g id="layer1" transform="translate(0,-1040.3622)" inkscape:groupmode="layer" inkscape:label="Layer 1">
</g>
<g id="photo">
	<path opacity="0.3" fill="#FFFFFF" stroke="#FFFFFF" stroke-width="2" stroke-miterlimit="10" d="M-394,407.5v-1l-0.5-0.5h-2
		l-0.5,0.5v1h-1V407l-0.5-0.5h-1l-0.5,0.5v0.5h-0.5v6h9v-6H-394z"/>
	<g>
		<polygon fill="#454545" points="-395,409.515 -396,409.5 -396.5,410.015 -396.5,410.985 -396,411.5 -395,411.485 -394.5,410.985 
			-394.5,410.015 		"/>
		<path fill="#454545" d="M-394,407.5v-1l-0.5-0.5h-2l-0.5,0.5v1h-1V407l-0.5-0.5h-1l-0.5,0.5v0.5h-0.5v6h9v-6H-394z M-393.5,411.5
			l-1,1h-2l-1-1v-2l1-1h2l1,1V411.5z"/>
	</g>
</g>
</svg>
