<?xml version="1.0" encoding="UTF-8" standalone="no"?>
<!-- Created with Inkscape (http://www.inkscape.org/) -->

<svg
   xmlns:dc="http://purl.org/dc/elements/1.1/"
   xmlns:cc="http://creativecommons.org/ns#"
   xmlns:rdf="http://www.w3.org/1999/02/22-rdf-syntax-ns#"
   xmlns:svg="http://www.w3.org/2000/svg"
   xmlns="http://www.w3.org/2000/svg"
   xmlns:inkscape="http://www.inkscape.org/namespaces/inkscape"
   version="1.1"
   width="24"
   height="24"
   viewBox="-402.5 403.5 24 24"
   id="svg4460"
   xml:space="preserve"><metadata
     id="metadata3052"><rdf:RDF><cc:Work
         rdf:about=""><dc:format>image/svg+xml</dc:format><dc:type
           rdf:resource="http://purl.org/dc/dcmitype/StillImage" /><dc:title /></cc:Work></rdf:RDF></metadata><defs
     id="defs3050" /><g
     transform="translate(0,-1028.3622)"
     id="layer1" /><g
     transform="translate(0,-2)"
     id="photo"><path
       d="m -381.5,411.5 h -4 v -1 c 0,-0.553 -0.448,-1 -1,-1 h -4 c -0.552,0 -1,0.447 -1,1 v 1 h -3 c 0,-0.553 -0.448,-1 -1,-1 h -1 c -0.552,0 -1,0.447 -1,1 h -1 c -0.552,0 -1,0.447 -1,1 v 10 c 0,0.553 0.448,1 1,1 h 17 c 0.552,0 1,-0.447 1,-1 v -10 c 0,-0.553 -0.448,-1 -1,-1 z"
       inkscape:connector-curvature="0"
       id="path3042"
       style="opacity:0.3;fill:#ffffff;stroke:#ffffff;stroke-width:2;stroke-miterlimit:10" /><g
       id="g3044"><path
         d="M 12,4 C 11.448,4 11,4.447 11,5 L 11,6 8,6 C 8,5.447 7.552,5 7,5 L 6,5 C 5.448,5 5,5.447 5,6 L 4,6 C 3.448,6 3,6.447 3,7 l 0,10 c 0,0.553 0.448,1 1,1 l 17,0 c 0.552,0 1,-0.447 1,-1 L 22,7 C 22,6.447 21.552,6 21,6 L 17,6 17,5 C 17,4.447 16.552,4 16,4 l -4,0 z m 2,4 c 2.209,0 4,1.791 4,4 0,2.209 -1.791,4 -4,4 -2.209,0 -4,-1.791 -4,-4 0,-2.209 1.791,-4 4,-4 z m 0,2 c -1.104569,0 -2,0.895431 -2,2 0,1.104569 0.895431,2 2,2 1.104569,0 2,-0.895431 2,-2 0,-1.104569 -0.895431,-2 -2,-2 z"
         inkscape:connector-curvature="0"
         transform="translate(-402.5,405.5)"
         id="path3046"
         style="fill:#454545" /></g></g><rect
     width="24"
     height="24"
     x="0"
     y="0"
     id="canvas"
     style="fill:none;stroke:none;visibility:hidden" /></svg>