<?xml version="1.0" encoding="UTF-8" standalone="no"?>
<!-- Created with Inkscape (http://www.inkscape.org/) -->

<svg
   xmlns:dc="http://purl.org/dc/elements/1.1/"
   xmlns:cc="http://creativecommons.org/ns#"
   xmlns:rdf="http://www.w3.org/1999/02/22-rdf-syntax-ns#"
   xmlns:svg="http://www.w3.org/2000/svg"
   xmlns="http://www.w3.org/2000/svg"
   xmlns:inkscape="http://www.inkscape.org/namespaces/inkscape"
   version="1.1"
   width="12"
   height="12"
   viewBox="-402.5 403.5 12 12"
   id="svg4764"
   xml:space="preserve"><metadata
     id="metadata25"><rdf:RDF><cc:Work
         rdf:about=""><dc:format>image/svg+xml</dc:format><dc:type
           rdf:resource="http://purl.org/dc/dcmitype/StillImage" /></cc:Work></rdf:RDF></metadata><defs
     id="defs23" /><g
     transform="translate(0,-1)"
     id="g3188"
     style="opacity:0.3;fill:#ffffff;fill-opacity:1;stroke:none"><path
       d="m -399.59375,405.5 c -0.49158,0.0463 -0.90838,0.50624 -0.90625,1 -0.52358,5e-5 -0.99995,0.47642 -1,1 l 0,6 c 5e-5,0.52358 0.47642,0.99995 1,1 l 9,0 c 0.52358,-5e-5 0.99995,-0.47642 1,-1 l 0,-6 c -5e-5,-0.52358 -0.47642,-0.99995 -1,-1 l -1,0 c -5e-5,-0.52358 -0.47642,-0.99995 -1,-1 l -3,0 c -0.28347,10e-4 -0.56397,0.12986 -0.75,0.34375 -0.18603,-0.21389 -0.46653,-0.34245 -0.75,-0.34375 l -1.5,0 c -0.0312,-10e-4 -0.0625,-10e-4 -0.0937,0 z"
       inkscape:connector-curvature="0"
       id="path3192"
       style="font-size:medium;font-style:normal;font-variant:normal;font-weight:normal;font-stretch:normal;text-indent:0;text-align:start;text-decoration:none;line-height:normal;letter-spacing:normal;word-spacing:normal;text-transform:none;direction:ltr;block-progression:tb;writing-mode:lr-tb;text-anchor:start;baseline-shift:baseline;color:#000000;fill:#ffffff;fill-opacity:1;stroke:none;stroke-width:2;marker:none;visibility:visible;display:inline;overflow:visible;enable-background:accumulate;font-family:Sans;-inkscape-font-specification:Sans" /><polygon
       points="-396,411.5 -395,411.485 -394.5,410.985 -394.5,410.015 -395,409.515 -396,409.5 -396.5,410.015 -396.5,410.985 "
       id="polygon3190"
       style="fill:#ffffff;fill-opacity:1;stroke:none" /></g><g
     transform="translate(0,-1040.3622)"
     id="layer1" /><g
     transform="translate(0,-1)"
     id="g17"><polygon
       points="-396,411.5 -395,411.485 -394.5,410.985 -394.5,410.015 -395,409.515 -396,409.5 -396.5,410.015 -396.5,410.985 "
       id="polygon19"
       style="fill:#454545" /><path
       d="m -393.5,407.5 c 0,-0.66667 0,-0.33333 0,-1 l -3,0 c 0,0.66667 0,0.33333 0,1 l -1.5,0 c 0,-0.33333 0,-0.66667 0,-1 l -1.5,0 c 0,0.33333 0,0.66667 0,1 l -1,0 0,6 9,0 0,-6 z m 0,4 -1,1 -2,0 -1,-1 0,-2 1,-1 2,0 1,1 z"
       inkscape:connector-curvature="0"
       id="path21"
       style="fill:#454545" /></g><rect
     width="12"
     height="12"
     x="0"
     y="0"
     id="canvas"
     style="fill:none;stroke:none;visibility:hidden" /></svg>