<?xml version="1.0" encoding="utf-8"?>
<!-- Generator: Adobe Illustrator 15.1.0, SVG Export Plug-In . SVG Version: 6.00 Build 0)  -->
<!DOCTYPE svg PUBLIC "-//W3C//DTD SVG 1.1//EN" "http://www.w3.org/Graphics/SVG/1.1/DTD/svg11.dtd">
<svg version="1.1"
	 id="svg4619" sodipodi:docname="maki-18-base.svg" inkscape:version="0.48.2 r9819" xmlns:sodipodi="http://sodipodi.sourceforge.net/DTD/sodipodi-0.dtd" xmlns:inkscape="http://www.inkscape.org/namespaces/inkscape" xmlns:svg="http://www.w3.org/2000/svg" xmlns:rdf="http://www.w3.org/1999/02/22-rdf-syntax-ns#" xmlns:cc="http://creativecommons.org/ns#" xmlns:dc="http://purl.org/dc/elements/1.1/"
	 xmlns="http://www.w3.org/2000/svg" xmlns:xlink="http://www.w3.org/1999/xlink" x="0px" y="0px" width="18px" height="18px"
	 viewBox="-402.5 403.5 18 18" enable-background="new -402.5 403.5 18 18" xml:space="preserve">
<sodipodi:namedview  id="base" inkscape:pageopacity="0.0" borderopacity="1.0" inkscape:cx="5.9619453" inkscape:pageshadow="2" inkscape:zoom="16" inkscape:document-units="px" inkscape:current-layer="layer1" inkscape:guide-bbox="true" showguides="true" inkscape:window-width="1008" showgrid="true" inkscape:window-height="662" inkscape:window-x="76" inkscape:cy="11.948034" inkscape:window-y="40" inkscape:window-maximized="0" pagecolor="#ffffff" bordercolor="#666666">
	<inkscape:grid  type="xygrid" id="grid4627" enabled="true" empspacing="5" visible="true" snapvisiblegridlinesonly="true">
		</inkscape:grid>
	<sodipodi:guide  id="guide4659" position="7,18" orientation="0,1"></sodipodi:guide>
	<sodipodi:guide  id="guide4661" position="18,9" orientation="1,0"></sodipodi:guide>
	<sodipodi:guide  id="guide4663" position="16,17" orientation="0,1"></sodipodi:guide>
	<sodipodi:guide  id="guide4665" position="17,14" orientation="1,0"></sodipodi:guide>
	<sodipodi:guide  id="guide4667" position="0,16" orientation="1,0"></sodipodi:guide>
	<sodipodi:guide  id="guide4669" position="8,0" orientation="0,1"></sodipodi:guide>
	<sodipodi:guide  id="guide4671" position="2,10" orientation="1,0"></sodipodi:guide>
	<sodipodi:guide  id="guide4673" position="12,2" orientation="0,1"></sodipodi:guide>
</sodipodi:namedview>
<g id="layer1" transform="translate(0,-1034.3622)" inkscape:groupmode="layer" inkscape:label="Layer 1">
</g>
<g id="photo">
	<path opacity="0.3" fill="#FFFFFF" stroke="#FFFFFF" stroke-width="2" stroke-miterlimit="10" d="M-386.5,408.5h-2v-1
		c0-0.553-0.448-1-1-1h-3c-0.552,0-1,0.447-1,1v1h-2c0-0.553-0.448-1-1-1h-1c-0.552,0-1,0.447-1,1h-1c-0.552,0-1,0.447-1,1v7
		c0,0.553,0.448,1,1,1h13c0.552,0,1-0.447,1-1v-7C-385.5,408.947-385.947,408.5-386.5,408.5z"/>
	<g>
		<path fill="#454545" d="M-386.5,408.5h-2v-1c0-0.553-0.448-1-1-1h-3c-0.552,0-1,0.447-1,1v1h-2c0-0.553-0.448-1-1-1h-1
			c-0.552,0-1,0.447-1,1h-1c-0.552,0-1,0.447-1,1v7c0,0.553,0.448,1,1,1h13c0.552,0,1-0.447,1-1v-7
			C-385.5,408.947-385.947,408.5-386.5,408.5z M-391,415.75c-1.519,0-2.75-1.231-2.75-2.75s1.231-2.75,2.75-2.75
			s2.75,1.231,2.75,2.75S-389.481,415.75-391,415.75z"/>
		<circle fill="#454545" cx="-391" cy="413" r="1.5"/>
	</g>
</g>
</svg>
