<?xml version="1.0" encoding="UTF-8" standalone="no"?>
<!-- Created with Inkscape (http://www.inkscape.org/) -->

<svg
   xmlns:dc="http://purl.org/dc/elements/1.1/"
   xmlns:cc="http://creativecommons.org/ns#"
   xmlns:rdf="http://www.w3.org/1999/02/22-rdf-syntax-ns#"
   xmlns:svg="http://www.w3.org/2000/svg"
   xmlns="http://www.w3.org/2000/svg"
   xmlns:inkscape="http://www.inkscape.org/namespaces/inkscape"
   version="1.1"
   width="18"
   height="18"
   viewBox="-402.5 403.5 18 18"
   id="svg4619"
   xml:space="preserve"><metadata
     id="metadata3025"><rdf:RDF><cc:Work
         rdf:about=""><dc:format>image/svg+xml</dc:format><dc:type
           rdf:resource="http://purl.org/dc/dcmitype/StillImage" /></cc:Work></rdf:RDF></metadata><defs
     id="defs3023" /><path
     d="m -393.5,404.5 c -0.72645,0 -1.14956,0.40934 -1.5,1 -0.13153,-0.0385 -0.38229,0.0181 -0.5,0 l -3,0 c -0.52358,5e-5 -0.99995,0.47642 -1,1 -0.52358,5e-5 -0.99995,0.47642 -1,1 l 0,8 c 0,1.09308 0.90814,2 2,2 l 11,0 c 1.09186,0 2,-0.90692 2,-2 l 0,-7 c 0,-1.09188 -0.90812,-2 -2,-2 l -1,0 c 0,-1.09308 -0.90814,-2 -2,-2 z"
     inkscape:connector-curvature="0"
     id="path3880"
     style="font-size:medium;font-style:normal;font-variant:normal;font-weight:normal;font-stretch:normal;text-indent:0;text-align:start;text-decoration:none;line-height:normal;letter-spacing:normal;word-spacing:normal;text-transform:none;direction:ltr;block-progression:tb;writing-mode:lr-tb;text-anchor:start;baseline-shift:baseline;opacity:0.3;color:#000000;fill:#ffffff;fill-opacity:1;stroke:none;stroke-width:2;marker:none;visibility:visible;display:inline;overflow:visible;enable-background:accumulate;font-family:Sans;-inkscape-font-specification:Sans" /><g
     transform="translate(0,-1034.3622)"
     id="layer1" /><path
     d="M 9,2 C 8.448,2 8,2.447 8,3 L 8,4 7,4 C 7,3.447 7,3 7,3 L 4,3 C 4,3 4,3.447 4,4 3.38951,4 3.5,4 3,4 l 0,8 c 0,0.553 0.448,1 1,1 l 11,0 c 0.552,0 1,-0.447 1,-1 L 16,5 C 16,4.447 15.553,4 15,4 L 13,4 13,3 C 13,2.447 12.552,2 12,2 z m 1.5,3.5 c 1.65687,0 3,1.34315 3,3 0,1.65684 -1.34313,3 -3,3 -1.65685,0 -3,-1.34316 -3,-3 0,-1.65685 1.34315,-3 3,-3 z"
     inkscape:connector-curvature="0"
     transform="translate(-402.5,403.5)"
     id="path3019"
     style="fill:#454545" /><path
     d="m -390.5,412 c 0,0.82843 -0.67157,1.5 -1.5,1.5 -0.82843,0 -1.5,-0.67157 -1.5,-1.5 0,-0.82843 0.67157,-1.5 1.5,-1.5 0.82843,0 1.5,0.67157 1.5,1.5 z"
     inkscape:connector-curvature="0"
     id="circle3021"
     style="fill:#454545" /><rect
     width="18"
     height="18"
     x="0"
     y="0"
     id="canvas"
     style="fill:none;stroke:none;visibility:hidden" /></svg>