<?xml version="1.0" encoding="utf-8"?>
<!-- Generator: Adobe Illustrator 15.1.0, SVG Export Plug-In . SVG Version: 6.00 Build 0)  -->
<!DOCTYPE svg PUBLIC "-//W3C//DTD SVG 1.1//EN" "http://www.w3.org/Graphics/SVG/1.1/DTD/svg11.dtd">
<svg version="1.1"
	 id="svg4460" sodipodi:docname="marker-stroked-24.svg" inkscape:version="0.48.2 r9819" xmlns:sodipodi="http://sodipodi.sourceforge.net/DTD/sodipodi-0.dtd" xmlns:inkscape="http://www.inkscape.org/namespaces/inkscape" xmlns:svg="http://www.w3.org/2000/svg" xmlns:rdf="http://www.w3.org/1999/02/22-rdf-syntax-ns#" xmlns:cc="http://creativecommons.org/ns#" xmlns:dc="http://purl.org/dc/elements/1.1/"
	 xmlns="http://www.w3.org/2000/svg" xmlns:xlink="http://www.w3.org/1999/xlink" x="0px" y="0px" width="24px" height="24px"
	 viewBox="-402.5 403.5 24 24" enable-background="new -402.5 403.5 24 24" xml:space="preserve">
<sodipodi:namedview  id="base" inkscape:pageopacity="0.0" borderopacity="1.0" inkscape:cx="15.622727" inkscape:pageshadow="2" inkscape:zoom="11.313708" inkscape:document-units="px" inkscape:current-layer="layer1" inkscape:guide-bbox="true" showguides="true" inkscape:window-width="1220" showgrid="true" inkscape:window-height="833" inkscape:window-x="56" inkscape:cy="6.9146856" inkscape:window-y="20" inkscape:window-maximized="0" pagecolor="#ffffff" bordercolor="#666666">
	<inkscape:grid  type="xygrid" id="grid4468" enabled="true" empspacing="5" visible="true" snapvisiblegridlinesonly="true">
		</inkscape:grid>
	<sodipodi:guide  id="guide4470" position="0,20" orientation="1,0"></sodipodi:guide>
	<sodipodi:guide  id="guide4472" position="4,24" orientation="0,1"></sodipodi:guide>
	<sodipodi:guide  id="guide4474" position="24,13" orientation="1,0"></sodipodi:guide>
	<sodipodi:guide  id="guide4476" position="15,0" orientation="0,1"></sodipodi:guide>
	<sodipodi:guide  id="guide4478" position="23,20" orientation="1,0"></sodipodi:guide>
	<sodipodi:guide  id="guide4480" position="20,23" orientation="0,1"></sodipodi:guide>
	<sodipodi:guide  id="guide4482" position="2,5" orientation="1,0"></sodipodi:guide>
	<sodipodi:guide  id="guide4484" position="7,2" orientation="0,1"></sodipodi:guide>
	<sodipodi:guide  id="guide4486" position="13,16" orientation="1,0"></sodipodi:guide>
	<sodipodi:guide  id="guide4490" position="16,13" orientation="0,1"></sodipodi:guide>
</sodipodi:namedview>
<g id="layer1" transform="translate(0,-1028.3622)" inkscape:groupmode="layer" inkscape:label="Layer 1">
</g>
<g id="photo">
	<path opacity="0.3" fill="#FFFFFF" stroke="#FFFFFF" stroke-width="2" stroke-miterlimit="10" d="M-381.5,411.5h-4v-1
		c0-0.553-0.448-1-1-1h-4c-0.552,0-1,0.447-1,1v1h-3c0-0.553-0.448-1-1-1h-1c-0.552,0-1,0.447-1,1h-1c-0.552,0-1,0.447-1,1v10
		c0,0.553,0.448,1,1,1h17c0.552,0,1-0.447,1-1v-10C-380.5,411.947-380.948,411.5-381.5,411.5z"/>
	<g>
		<path fill="#454545" d="M-381.5,411.5h-4v-1c0-0.553-0.448-1-1-1h-4c-0.552,0-1,0.447-1,1v1h-3c0-0.553-0.448-1-1-1h-1
			c-0.552,0-1,0.447-1,1h-1c-0.552,0-1,0.447-1,1v10c0,0.553,0.448,1,1,1h17c0.552,0,1-0.447,1-1v-10
			C-380.5,411.947-380.948,411.5-381.5,411.5z M-388.5,421.5c-2.209,0-4-1.791-4-4s1.791-4,4-4s4,1.791,4,4
			S-386.291,421.5-388.5,421.5z"/>
		<circle fill="#454545" cx="-388.5" cy="417.5" r="2"/>
	</g>
</g>
</svg>
