<?xml version="1.0" encoding="UTF-8" standalone="no"?>
<!-- Generator: Adobe Illustrator 15.1.0, SVG Export Plug-In . SVG Version: 6.00 Build 0)  -->

<svg
   xmlns:dc="http://purl.org/dc/elements/1.1/"
   xmlns:cc="http://creativecommons.org/ns#"
   xmlns:rdf="http://www.w3.org/1999/02/22-rdf-syntax-ns#"
   xmlns:svg="http://www.w3.org/2000/svg"
   xmlns="http://www.w3.org/2000/svg"
   xmlns:sodipodi="http://sodipodi.sourceforge.net/DTD/sodipodi-0.dtd"
   xmlns:inkscape="http://www.inkscape.org/namespaces/inkscape"
   version="1.1"
   id="svg4764"
   sodipodi:docname="camera-12.svg"
   inkscape:version="0.48.2 r9819"
   x="0px"
   y="0px"
   width="12px"
   height="12px"
   viewBox="-402.5 403.5 12 12"
   enable-background="new -402.5 403.5 12 12"
   xml:space="preserve"><metadata
   id="metadata25"><rdf:RDF><cc:Work
       rdf:about=""><dc:format>image/svg+xml</dc:format><dc:type
         rdf:resource="http://purl.org/dc/dcmitype/StillImage" /></cc:Work></rdf:RDF></metadata><defs
   id="defs23">
	
	
</defs>
<sodipodi:namedview
   id="base"
   inkscape:pageopacity="0.0"
   borderopacity="1.0"
   inkscape:cx="-0.087681415"
   inkscape:pageshadow="2"
   inkscape:zoom="32"
   inkscape:document-units="px"
   inkscape:current-layer="svg4764"
   inkscape:guide-bbox="true"
   showguides="true"
   inkscape:window-width="1338"
   showgrid="true"
   inkscape:window-height="826"
   inkscape:window-x="302"
   inkscape:cy="9.0001536"
   inkscape:window-y="14"
   inkscape:window-maximized="0"
   pagecolor="#ffffff"
   bordercolor="#666666">
	<inkscape:grid
   type="xygrid"
   id="grid4772"
   enabled="true"
   empspacing="2"
   visible="true"
   snapvisiblegridlinesonly="true">
		</inkscape:grid>
	<sodipodi:guide
   id="guide4789"
   position="2,12"
   orientation="0,1" />
	<sodipodi:guide
   id="guide4791"
   position="12,10"
   orientation="1,0" />
	<sodipodi:guide
   id="guide4793"
   position="10,0"
   orientation="0,1" />
	<sodipodi:guide
   id="guide4795"
   position="0,9"
   orientation="1,0" />
	<sodipodi:guide
   id="guide4797"
   position="0,11"
   orientation="0,1" />
	<sodipodi:guide
   id="guide4799"
   position="11,7"
   orientation="1,0" />
	<sodipodi:guide
   id="guide4801"
   position="9,2"
   orientation="0,1" />
	<sodipodi:guide
   id="guide4803"
   position="2,5"
   orientation="1,0" />
</sodipodi:namedview>
<g
   transform="translate(0,-1)"
   id="g3188"
   style="fill:#ffffff;stroke:none;stroke-opacity:1;stroke-width:2;stroke-miterlimit:4;stroke-dasharray:none;stroke-linejoin:round;stroke-linecap:round;fill-opacity:1;opacity:0.3">
		<path
   style="font-size:medium;font-style:normal;font-variant:normal;font-weight:normal;font-stretch:normal;text-indent:0;text-align:start;text-decoration:none;line-height:normal;letter-spacing:normal;word-spacing:normal;text-transform:none;direction:ltr;block-progression:tb;writing-mode:lr-tb;text-anchor:start;baseline-shift:baseline;color:#000000;fill:#ffffff;fill-opacity:1;stroke:none;stroke-width:2;marker:none;visibility:visible;display:inline;overflow:visible;enable-background:accumulate;font-family:Sans;-inkscape-font-specification:Sans"
   d="m -399.59375,405.5 c -0.49158,0.0463 -0.90838,0.50624 -0.90625,1 -0.52358,5e-5 -0.99995,0.47642 -1,1 l 0,6 c 5e-5,0.52358 0.47642,0.99995 1,1 l 9,0 c 0.52358,-5e-5 0.99995,-0.47642 1,-1 l 0,-6 c -5e-5,-0.52358 -0.47642,-0.99995 -1,-1 l -1,0 c -5e-5,-0.52358 -0.47642,-0.99995 -1,-1 l -3,0 c -0.28347,10e-4 -0.56397,0.12986 -0.75,0.34375 -0.18603,-0.21389 -0.46653,-0.34245 -0.75,-0.34375 l -1.5,0 c -0.0312,-10e-4 -0.0625,-10e-4 -0.0937,0 z"
   id="path3192"
   inkscape:connector-curvature="0"
   sodipodi:nodetypes="ccccccccccccccccc" /><polygon
   points="-396.5,410.985 -396,411.5 -395,411.485 -394.5,410.985 -394.5,410.015 -395,409.515 -396,409.5 -396.5,410.015 "
   id="polygon3190"
   style="fill:#ffffff;stroke:none;stroke-opacity:1;stroke-width:2;stroke-miterlimit:4;stroke-dasharray:none;stroke-linejoin:round;stroke-linecap:round;fill-opacity:1" />
		
	</g><g
   id="layer1"
   transform="translate(0,-1040.3622)"
   inkscape:groupmode="layer"
   inkscape:label="Layer 1">
</g>
<g
   id="g17"
   transform="translate(0,-1)">
		<polygon
   style="fill:#454545"
   id="polygon19"
   points="-396.5,410.985 -396,411.5 -395,411.485 -394.5,410.985 -394.5,410.015 -395,409.515 -396,409.5 -396.5,410.015 " />
		<path
   style="fill:#454545"
   inkscape:connector-curvature="0"
   id="path21"
   d="m -393.5,407.5 c 0,-0.66667 0,-0.33333 0,-1 l -3,0 c 0,0.66667 0,0.33333 0,1 l -1.5,0 c 0,-0.33333 0,-0.66667 0,-1 l -1.5,0 c 0,0.33333 0,0.66667 0,1 l -1,0 0,6 9,0 0,-6 z m 0,4 -1,1 -2,0 -1,-1 0,-2 1,-1 2,0 1,1 z"
   sodipodi:nodetypes="cccccccccccccccccccccc" />
	</g>
</svg>