<?xml version="1.0" encoding="UTF-8" standalone="no"?>
<!-- Created with Inkscape (http://www.inkscape.org/) -->

<svg
   xmlns:dc="http://purl.org/dc/elements/1.1/"
   xmlns:cc="http://creativecommons.org/ns#"
   xmlns:rdf="http://www.w3.org/1999/02/22-rdf-syntax-ns#"
   xmlns:svg="http://www.w3.org/2000/svg"
   xmlns="http://www.w3.org/2000/svg"
   version="1.1"
   width="12"
   height="12"
   viewBox="-402.5 403.5 12 12"
   id="svg4764"
   xml:space="preserve"><metadata
     id="metadata25"><rdf:RDF><cc:Work
         rdf:about=""><dc:format>image/svg+xml</dc:format><dc:type
           rdf:resource="http://purl.org/dc/dcmitype/StillImage" /><dc:title></dc:title></cc:Work></rdf:RDF></metadata><defs
     id="defs23" /><g
     transform="translate(0,-1)"
     id="g3188"
     style="opacity:0.3;fill:#ffffff;fill-opacity:1;stroke:none"><polygon
       points="-395,411.485 -394.5,410.985 -394.5,410.015 -395,409.515 -396,409.5 -396.5,410.015 -396.5,410.985 -396,411.5 "
       id="polygon3190"
       style="fill:#ffffff;fill-opacity:1;stroke:none" /></g><g
     transform="translate(0,-1040.3622)"
     id="layer1" /><path
     d="M 3,2 3,3 2,3 2,9 11,9 11,3 9,3 9,2 6,2 6,3 4.5,3 4.5,2 3,2 z M 6,4 8,4 9,5 9,7 8,8 6,8 5,7 5,5 6,4 z M 6.5,5 6,5.5 6,6.5 6.5,7 7.5,7 8,6.5 8,5.5 7.5,5 6.5,5 z"
     transform="translate(-402.5,403.5)"
     id="path15542"
     style="opacity:0.3;fill:none;stroke:#ffffff;stroke-width:2;stroke-linecap:round;stroke-linejoin:round;stroke-miterlimit:4;stroke-opacity:1;stroke-dasharray:none" /><path
     d="M 3,2 3,3 2,3 2,9 11,9 11,3 9,3 9,2 6,2 6,3 4.5,3 4.5,2 3,2 z M 6,4 8,4 9,5 9,7 8,8 6,8 5,7 5,5 6,4 z M 6.5,5 6,5.5 6,6.5 6.5,7 7.5,7 8,6.5 8,5.5 7.5,5 6.5,5 z"
     transform="translate(-402.5,403.5)"
     id="polygon19"
     style="fill:#454545" /><rect
     width="12"
     height="12"
     x="0"
     y="0"
     id="canvas"
     style="fill:none;stroke:none;visibility:hidden" /></svg>