<?xml version="1.0" encoding="UTF-8" standalone="no"?>
<!-- Generator: Adobe Illustrator 15.1.0, SVG Export Plug-In . SVG Version: 6.00 Build 0)  -->

<svg
   xmlns:dc="http://purl.org/dc/elements/1.1/"
   xmlns:cc="http://creativecommons.org/ns#"
   xmlns:rdf="http://www.w3.org/1999/02/22-rdf-syntax-ns#"
   xmlns:svg="http://www.w3.org/2000/svg"
   xmlns="http://www.w3.org/2000/svg"
   xmlns:sodipodi="http://sodipodi.sourceforge.net/DTD/sodipodi-0.dtd"
   xmlns:inkscape="http://www.inkscape.org/namespaces/inkscape"
   version="1.1"
   id="svg4460"
   sodipodi:docname="camera-24.svg"
   inkscape:version="0.48.2 r9819"
   x="0px"
   y="0px"
   width="24px"
   height="24px"
   viewBox="-402.5 403.5 24 24"
   enable-background="new -402.5 403.5 24 24"
   xml:space="preserve"><metadata
   id="metadata3052"><rdf:RDF><cc:Work
       rdf:about=""><dc:format>image/svg+xml</dc:format><dc:type
         rdf:resource="http://purl.org/dc/dcmitype/StillImage" /></cc:Work></rdf:RDF></metadata><defs
   id="defs3050" />
<sodipodi:namedview
   id="base"
   inkscape:pageopacity="0.0"
   borderopacity="1.0"
   inkscape:cx="15.622727"
   inkscape:pageshadow="2"
   inkscape:zoom="15.999999"
   inkscape:document-units="px"
   inkscape:current-layer="layer1"
   inkscape:guide-bbox="true"
   showguides="true"
   inkscape:window-width="1220"
   showgrid="true"
   inkscape:window-height="833"
   inkscape:window-x="196"
   inkscape:cy="13.985754"
   inkscape:window-y="90"
   inkscape:window-maximized="0"
   pagecolor="#ffffff"
   bordercolor="#666666">
	<inkscape:grid
   type="xygrid"
   id="grid4468"
   enabled="true"
   empspacing="2"
   visible="true"
   snapvisiblegridlinesonly="true">
		</inkscape:grid>
	<sodipodi:guide
   id="guide4470"
   position="0,20"
   orientation="1,0" />
	<sodipodi:guide
   id="guide4472"
   position="4,24"
   orientation="0,1" />
	<sodipodi:guide
   id="guide4474"
   position="24,13"
   orientation="1,0" />
	<sodipodi:guide
   id="guide4476"
   position="15,0"
   orientation="0,1" />
	<sodipodi:guide
   id="guide4478"
   position="23,20"
   orientation="1,0" />
	<sodipodi:guide
   id="guide4480"
   position="20,23"
   orientation="0,1" />
	<sodipodi:guide
   id="guide4482"
   position="2,5"
   orientation="1,0" />
	<sodipodi:guide
   id="guide4484"
   position="7,2"
   orientation="0,1" />
	<sodipodi:guide
   id="guide4486"
   position="13,16"
   orientation="1,0" />
	<sodipodi:guide
   id="guide4490"
   position="16,13"
   orientation="0,1" />
</sodipodi:namedview>
<g
   id="layer1"
   transform="translate(0,-1028.3622)"
   inkscape:groupmode="layer"
   inkscape:label="Layer 1">
</g>
<g
   id="photo"
   transform="translate(0,-2)">
	<path
   stroke-miterlimit="10"
   d="m -381.5,411.5 h -4 v -1 c 0,-0.553 -0.448,-1 -1,-1 h -4 c -0.552,0 -1,0.447 -1,1 v 1 h -3 c 0,-0.553 -0.448,-1 -1,-1 h -1 c -0.552,0 -1,0.447 -1,1 h -1 c -0.552,0 -1,0.447 -1,1 v 10 c 0,0.553 0.448,1 1,1 h 17 c 0.552,0 1,-0.447 1,-1 v -10 c 0,-0.553 -0.448,-1 -1,-1 z"
   id="path3042"
   inkscape:connector-curvature="0"
   style="opacity:0.3;fill:#ffffff;stroke:#ffffff;stroke-width:2;stroke-miterlimit:10" />
	<g
   id="g3044">
		<path
   d="m -381.5,411.5 h -4 v -1 c 0,-0.553 -0.448,-1 -1,-1 h -4 c -0.552,0 -1,0.447 -1,1 v 1 h -3 c 0,-0.553 -0.448,-1 -1,-1 h -1 c -0.552,0 -1,0.447 -1,1 h -1 c -0.552,0 -1,0.447 -1,1 v 10 c 0,0.553 0.448,1 1,1 h 17 c 0.552,0 1,-0.447 1,-1 v -10 c 0,-0.553 -0.448,-1 -1,-1 z m -7,10 c -2.209,0 -4,-1.791 -4,-4 0,-2.209 1.791,-4 4,-4 2.209,0 4,1.791 4,4 0,2.209 -1.791,4 -4,4 z"
   id="path3046"
   inkscape:connector-curvature="0"
   style="fill:#454545" />
		<circle
   cx="-388.5"
   cy="417.5"
   r="2"
   id="circle3048"
   sodipodi:cx="-388.5"
   sodipodi:cy="417.5"
   sodipodi:rx="2"
   sodipodi:ry="2"
   style="fill:#454545"
   d="m -386.5,417.5 c 0,1.10457 -0.89543,2 -2,2 -1.10457,0 -2,-0.89543 -2,-2 0,-1.10457 0.89543,-2 2,-2 1.10457,0 2,0.89543 2,2 z" />
	</g>
</g>
</svg>