<?xml version="1.0" encoding="UTF-8" standalone="no"?>
<!-- Created with Inkscape (http://www.inkscape.org/) -->

<svg
   xmlns:dc="http://purl.org/dc/elements/1.1/"
   xmlns:cc="http://creativecommons.org/ns#"
   xmlns:rdf="http://www.w3.org/1999/02/22-rdf-syntax-ns#"
   xmlns:svg="http://www.w3.org/2000/svg"
   xmlns="http://www.w3.org/2000/svg"
   xmlns:sodipodi="http://sodipodi.sourceforge.net/DTD/sodipodi-0.dtd"
   xmlns:inkscape="http://www.inkscape.org/namespaces/inkscape"
   width="18"
   height="18"
   id="svg27435"
   version="1.1"
   inkscape:version="0.48.2 r9819"
   sodipodi:docname="camping-black-18.svg">
  <defs
     id="defs27437" />
  <sodipodi:namedview
     id="base"
     pagecolor="#ffffff"
     bordercolor="#666666"
     borderopacity="1.0"
     inkscape:pageopacity="0.0"
     inkscape:pageshadow="2"
     inkscape:zoom="7.9891803"
     inkscape:cx="12.590799"
     inkscape:cy="8.9588378"
     inkscape:document-units="px"
     inkscape:current-layer="layer1"
     showgrid="false"
     inkscape:window-width="483"
     inkscape:window-height="454"
     inkscape:window-x="2888"
     inkscape:window-y="588"
     inkscape:window-maximized="0" />
  <metadata
     id="metadata27440">
    <rdf:RDF>
      <cc:Work
         rdf:about="">
        <dc:format>image/svg+xml</dc:format>
        <dc:type
           rdf:resource="http://purl.org/dc/dcmitype/StillImage" />
        <dc:title></dc:title>
      </cc:Work>
    </rdf:RDF>
  </metadata>
  <g
     inkscape:label="Layer 1"
     inkscape:groupmode="layer"
     id="layer1"
     transform="translate(0,-1034.3622)">
    <g
       id="g11626"
       transform="matrix(0.75,0,0,0.75,-88.439556,836.54986)">
      <path
         style="opacity:0;fill:#272525"
         inkscape:connector-curvature="0"
         id="path11628"
         d="m 139.06586,287.73232 c 1.583,0 2.8698,-1.28437 2.8698,-2.8698 v -18.26039 c 0,-1.58301 -1.28437,-2.86738 -2.8698,-2.86738 h -18.2604 c -1.583,0 -2.8698,1.28194 -2.8698,2.86738 v 18.26039 c 0,1.58301 1.28437,2.8698 2.8698,2.8698 h 18.2604 z" />
      <path
         d="M 125.76571,282.11412 130,274 l 4.23915,8.11412 h -8.47344 z m 12.14446,0 L 130,266.9736 l -7.90531,15.14052 h -1.67284 v 1.09013 h 19.03005 v -1.09013 h -1.54173 z"
         id="path11630"
         inkscape:connector-curvature="0"
         style="opacity:0.6;fill:none;stroke:#1d1d1c;stroke-width:1.12399995;stroke-miterlimit:4;stroke-opacity:1;stroke-dasharray:none" />
      <path
         style="fill:#ffffff;fill-opacity:1"
         inkscape:connector-curvature="0"
         id="path11632"
         d="M 125.76571,282.11412 130,274 l 4.23915,8.11412 h -8.47344 z m 12.14446,0 L 130,266.9736 l -7.90531,15.14052 h -1.67284 v 1.09013 h 19.03005 v -1.09013 h -1.54173 z" />
    </g>
  </g>
</svg>
