<?xml version="1.0" encoding="utf-8"?>
<!-- Generator: Adobe Illustrator 18.1.1, SVG Export Plug-In . SVG Version: 6.00 Build 0)  -->
<svg version="1.1" xmlns="http://www.w3.org/2000/svg" xmlns:xlink="http://www.w3.org/1999/xlink" x="0px" y="0px"
	 viewBox="0 0 24 24" enable-background="new 0 0 24 24" xml:space="preserve">
<g id="shadows">
	<g opacity="0.2">
		<path d="M11.2,12.5c-0.3-0.3-2.2-2.7-0.3-4.4c1.7-1.6,2-3.5,1.4-4.1c0,0,3.4,2.3,1.5,6.2c-0.6,0.7-1.4,1.5-0.8,3.1L11.2,12.5z"/>
		<path d="M14.7,13.3c0-0.7-0.7-0.1,0.4-2.4c0.9-0.8,0.6-1.4,0.4-2.2c0,0,2.8,1.1,0.7,4.1L14.7,13.3z"/>
		<polygon points="5.4,16.4 6.9,16.4 6.9,19.5 20.1,19.5 20.1,16.4 21.6,16.4 21.6,19.5 20.1,21 6.9,21 5.4,19.5 		"/>
		<polygon points="8.5,13.3 18.5,17.1 18.5,18.7 8.5,14.8 		"/>
		<polygon points="8.5,17.1 8.5,18.7 11.5,17.5 9.5,16.8 		"/>
		<polygon points="18.5,13.3 15.5,14.4 17.5,15.2 18.5,14.8 		"/>
	</g>
</g>
<g id="icons">
	<g>
		<path d="M10.2,11.5c-0.3-0.3-2.2-2.7-0.3-4.4c1.7-1.6,2-3.5,1.4-4.1c0,0,3.4,2.3,1.5,6.2c-0.6,0.7-1.4,1.5-0.8,3.1L10.2,11.5z"/>
		<path d="M13.7,12.3c0-0.7-0.7-0.1,0.4-2.4C15,9,14.7,8.5,14.4,7.6c0,0,2.8,1.1,0.7,4.1L13.7,12.3z"/>
		<polygon points="4.4,15.4 5.9,15.4 5.9,18.5 19.1,18.5 19.1,15.4 20.6,15.4 20.6,18.5 19.1,20 5.9,20 4.4,18.5 		"/>
		<polygon points="7.5,12.3 17.5,16.1 17.5,17.7 7.5,13.8 		"/>
		<polygon points="7.5,16.1 7.5,17.7 10.5,16.5 8.5,15.8 		"/>
		<polygon points="17.5,12.3 14.5,13.4 16.5,14.2 17.5,13.8 		"/>
	</g>
</g>
<g id="guides">
</g>
</svg>
