<?xml version="1.0" encoding="utf-8"?>
<!-- Generator: Adobe Illustrator 18.1.1, SVG Export Plug-In . SVG Version: 6.00 Build 0)  -->
<svg version="1.1" xmlns="http://www.w3.org/2000/svg" xmlns:xlink="http://www.w3.org/1999/xlink" x="0px" y="0px"
	 viewBox="0 0 12 12" enable-background="new 0 0 12 12" xml:space="preserve">
<g id="shadows">
	<g opacity="0.2">
		<polygon points="2.8,7.9 3.5,7.9 3.5,9.9 10.5,9.9 10.5,7.9 11.2,7.9 11.2,9.9 10.5,10.5 3.5,10.5 2.8,9.9 		"/>
		<polyline points="5.4,7.7 6,7.7 6.7,8.2 7.3,8.2 8,8.7 8.6,8.7 9.3,9.2 9.9,9.2 9.9,8.7 9.3,8.7 8.6,8.2 8,8.2 7.3,7.7 6.7,7.7 
			6,7.2 5.4,7.2 4.8,6.6 4.1,6.6 4.1,7.2 4.8,7.2 5.4,7.7 		"/>
		<polygon points="7.3,6.6 8,6.6 8,6 8.6,6 9.3,5.4 8.6,4.1 8.6,3.4 8,3.4 8,5.4 7.3,5.4 		"/>
		<polygon points="6.7,6.6 6,6.6 6,6 4.8,5.4 5.4,3.4 6,2.8 6.7,2.1 6.7,1.5 7.3,1.5 7.3,3.4 6.7,5.4 		"/>
		<rect x="8.6" y="6.6" width="1.3" height="0.6"/>
		<rect x="4.1" y="8.6" width="1.3" height="0.6"/>
	</g>
</g>
<g id="icons">
	<g>
		<polygon fill="#FFFFFF" points="2.3,7.4 3,7.4 3,9.4 10,9.4 10,7.4 10.7,7.4 10.7,9.4 10,10 3,10 2.3,9.4 		"/>
		<polyline fill="#FFFFFF" points="4.9,7.2 5.5,7.2 6.2,7.7 6.8,7.7 7.5,8.2 8.1,8.2 8.8,8.7 9.4,8.7 9.4,8.2 8.8,8.2 8.1,7.7 
			7.5,7.7 6.8,7.2 6.2,7.2 5.5,6.7 4.9,6.7 4.3,6.1 3.6,6.1 3.6,6.7 4.3,6.7 4.9,7.2 		"/>
		<polygon fill="#FFFFFF" points="6.8,6.1 7.5,6.1 7.5,5.5 8.1,5.5 8.8,4.9 8.1,3.6 8.1,2.9 7.5,2.9 7.5,4.9 6.8,4.9 		"/>
		<polygon fill="#FFFFFF" points="6.2,6.1 5.5,6.1 5.5,5.5 4.3,4.9 4.9,2.9 5.5,2.3 6.2,1.6 6.2,1 6.8,1 6.8,2.9 6.2,4.9 		"/>
		<rect x="8.1" y="6.1" fill="#FFFFFF" width="1.3" height="0.6"/>
		<rect x="3.6" y="8.1" fill="#FFFFFF" width="1.3" height="0.6"/>
	</g>
</g>
<g id="guides">
</g>
</svg>
