<?xml version="1.0" encoding="UTF-8" standalone="no"?>
<!-- Created with Inkscape (http://www.inkscape.org/) -->

<svg
   xmlns:dc="http://purl.org/dc/elements/1.1/"
   xmlns:cc="http://creativecommons.org/ns#"
   xmlns:rdf="http://www.w3.org/1999/02/22-rdf-syntax-ns#"
   xmlns:svg="http://www.w3.org/2000/svg"
   xmlns="http://www.w3.org/2000/svg"
   xmlns:sodipodi="http://sodipodi.sourceforge.net/DTD/sodipodi-0.dtd"
   xmlns:inkscape="http://www.inkscape.org/namespaces/inkscape"
   width="12"
   height="12"
   id="svg27498"
   version="1.1"
   inkscape:version="0.48.2 r9819"
   sodipodi:docname="airport-black-12.svg">
  <defs
     id="defs27500" />
  <sodipodi:namedview
     id="base"
     pagecolor="#ffffff"
     bordercolor="#666666"
     borderopacity="1.0"
     inkscape:pageopacity="0.0"
     inkscape:pageshadow="2"
     inkscape:zoom="10.676107"
     inkscape:cx="8.4773277"
     inkscape:cy="5.7946291"
     inkscape:document-units="px"
     inkscape:current-layer="layer1"
     showgrid="false"
     inkscape:window-width="721"
     inkscape:window-height="454"
     inkscape:window-x="1486"
     inkscape:window-y="613"
     inkscape:window-maximized="0" />
  <metadata
     id="metadata27503">
    <rdf:RDF>
      <cc:Work
         rdf:about="">
        <dc:format>image/svg+xml</dc:format>
        <dc:type
           rdf:resource="http://purl.org/dc/dcmitype/StillImage" />
        <dc:title></dc:title>
      </cc:Work>
    </rdf:RDF>
  </metadata>
  <g
     inkscape:label="Layer 1"
     inkscape:groupmode="layer"
     id="layer1"
     transform="translate(0,-1040.3622)">
    <g
       id="g3773">
      <path
         d="m 10.559793,1052.3669 c 0.791503,0 1.434902,-0.6422 1.434902,-1.4349 v -9.1302 c 0,-0.7915 -0.642185,-1.4337 -1.434902,-1.4337 H 1.4295966 c -0.79150228,0 -1.43490134,0.641 -1.43490134,1.4337 v 9.1302 c 0,0.7915 0.6421851,1.4349 1.43490134,1.4349 h 9.1301964 z"
         id="path10805"
         inkscape:connector-curvature="0"
         style="opacity:0;fill:#272525" />
      <path
         style="opacity:0.6;fill:#272525;stroke:#ffffff;stroke-width:0.60698026;stroke-miterlimit:4;stroke-opacity:1;stroke-dasharray:none"
         inkscape:connector-curvature="0"
         id="path10807"
         d="m 3.9097179,1049.5578 2.1171471,-4.0571 2.119575,4.0571 H 3.9097179 z m 6.0722304,0 -3.9550833,-7.5703 -3.9526554,7.5703 H 1.2377908 v 0.5451 h 9.5150222 v -0.5451 H 9.9819483 z" />
      <path
         d="m 3.9097179,1049.5578 2.1171471,-4.0571 2.119575,4.0571 H 3.9097179 z m 6.0722304,0 -3.9550833,-7.5703 -3.9526554,7.5703 H 1.2377908 v 0.5451 h 9.5150222 v -0.5451 H 9.9819483 z"
         id="path10809"
         inkscape:connector-curvature="0"
         style="fill:#272525" />
    </g>
  </g>
</svg>
