<?xml version="1.0" encoding="UTF-8" standalone="no"?>
<!-- Created with Inkscape (http://www.inkscape.org/) -->

<svg
   xmlns:dc="http://purl.org/dc/elements/1.1/"
   xmlns:cc="http://creativecommons.org/ns#"
   xmlns:rdf="http://www.w3.org/1999/02/22-rdf-syntax-ns#"
   xmlns:svg="http://www.w3.org/2000/svg"
   xmlns="http://www.w3.org/2000/svg"
   xmlns:inkscape="http://www.inkscape.org/namespaces/inkscape"
   version="1.1"
   width="18"
   height="18"
   id="svg4619">
  <defs
     id="defs4621" />
  <metadata
     id="metadata4624">
    <rdf:RDF>
      <cc:Work
         rdf:about="">
        <dc:format>image/svg+xml</dc:format>
        <dc:type
           rdf:resource="http://purl.org/dc/dcmitype/StillImage" />
        <dc:title />
      </cc:Work>
    </rdf:RDF>
  </metadata>
  <g
     transform="translate(0,-1034.3622)"
     id="layer1">
    <g
       transform="translate(-186,-184)"
       id="campsite-18"
       style="display:inline">
      <g
         transform="translate(-1,-3)"
         id="g21677">
        <path
           d="m 196.5,1225.3626 c -0.36111,-10e-5 -0.5244,0.1729 -0.63194,0.3611 l -3.86806,8.1385 -1.5,0 c -0.5,0 -0.5,0.7778 -0.5,0.7778 0,0 0,0.7222 0.5,0.7222 l 12,0 c 0.5,0 0.5,-0.7222 0.5,-0.7222 0,0 0,-0.7777 -0.5,-0.7778 l -1.5,-4e-4 -3.86806,-8.1385 c -0.10754,-0.1882 -0.27083,-0.3612 -0.63194,-0.3611 z"
           inkscape:connector-curvature="0"
           id="path12873"
           style="font-size:medium;font-style:normal;font-variant:normal;font-weight:normal;font-stretch:normal;text-indent:0;text-align:start;text-decoration:none;line-height:normal;letter-spacing:normal;word-spacing:normal;text-transform:none;direction:ltr;block-progression:tb;writing-mode:lr-tb;text-anchor:start;baseline-shift:baseline;opacity:0.3;color:#000000;fill:#ffffff;stroke:#ffffff;stroke-width:2;stroke-linecap:round;stroke-linejoin:round;stroke-miterlimit:4;stroke-opacity:1;stroke-dasharray:none;stroke-dashoffset:0;marker:none;visibility:visible;display:inline;overflow:visible;enable-background:accumulate;font-family:Sans;-inkscape-font-specification:Sans" />
        <path
           d="m 196.5,1225.3626 c -0.36111,-10e-5 -0.5244,0.1729 -0.63194,0.3611 l -3.86806,8.1385 -1.5,0 c -0.5,0 -0.5,0.7778 -0.5,0.7778 0,0 0,0.7222 0.5,0.7222 l 12,0 c 0.5,0 0.5,-0.7222 0.5,-0.7222 0,0 0,-0.7777 -0.5,-0.7778 l -1.5,-4e-4 -3.86806,-8.1385 c -0.10754,-0.1882 -0.27083,-0.3612 -0.63194,-0.3611 z m 0,2.9996 2.5,5.5 -5,0 z"
           inkscape:connector-curvature="0"
           id="path11349-0-7"
           style="font-size:medium;font-style:normal;font-variant:normal;font-weight:normal;font-stretch:normal;text-indent:0;text-align:start;text-decoration:none;line-height:normal;letter-spacing:normal;word-spacing:normal;text-transform:none;direction:ltr;block-progression:tb;writing-mode:lr-tb;text-anchor:start;baseline-shift:baseline;color:#000000;fill:#444444;fill-opacity:1;fill-rule:nonzero;stroke:none;stroke-width:2;marker:none;visibility:visible;display:inline;overflow:visible;enable-background:accumulate;font-family:Sans;-inkscape-font-specification:Sans" />
      </g>
    </g>
  </g>
  <rect
     width="18"
     height="18"
     x="0"
     y="0"
     id="canvas"
     style="fill:none;stroke:none;visibility:hidden" />
</svg>
