<?xml version="1.0" encoding="UTF-8" standalone="no"?>
<svg width="18px" height="18px" viewBox="0 0 18 18" version="1.1" xmlns="http://www.w3.org/2000/svg" xmlns:xlink="http://www.w3.org/1999/xlink" xmlns:sketch="http://www.bohemiancoding.com/sketch/ns">
    <!-- Generator: Sketch 3.2.2 (9983) - http://www.bohemiancoding.com/sketch -->
    <title>campfire-black-18</title>
    <desc>Created with Sketch.</desc>
    <defs></defs>
    <g id="Page-1" stroke="none" stroke-width="1" fill="none" fill-rule="evenodd" sketch:type="MSPage">
        <path d="M7.59259259,9.97330834 C7.2962963,9.67256289 5.51851852,7.44544064 7.31111111,5.84608802 C8.95555556,4.36571964 9.21481481,2.54372779 8.66666667,1.94077696 C8.66666667,1.94077696 11.9407407,4.0876031 10.1481481,7.78049443 C9.53333333,8.43746265 8.80740741,9.20538549 9.35555556,10.7003532 L7.59259259,9.97330834" id="Fill-121" opacity="0.1" fill="#0A0B09" sketch:type="MSShapeGroup"></path>
        <path d="M10.8888889,10.7003532 C10.8592593,10.0448449 10.2444444,10.5784491 11.2888889,8.41921353 C12.162963,7.62355202 11.8592593,7.10673703 11.6296296,6.32056506 C11.6296296,6.32056506 14.2814815,7.3242665 12.2592593,10.1725887 L10.8888889,10.7003532" id="Fill-122" opacity="0.1" fill="#0A0B09" sketch:type="MSShapeGroup"></path>
        <path d="M2,13.6202119 L3.48148148,13.6202119 L3.48148148,16.5400706 L16.0740741,16.5400706 L16.0740741,13.6202119 L17.5555556,13.6202119 L17.5555556,16.5400706 L16.0740741,18 L3.48148148,18 L2,16.5400706 L2,13.6202119" id="Fill-123" opacity="0.1" fill="#0A0B09" sketch:type="MSShapeGroup"></path>
        <path d="M4.96296296,10.7003532 L14.5925926,14.3501766 L14.5925926,15.8101059 L4.96296296,12.1602825 L4.96296296,10.7003532" id="Fill-124" opacity="0.1" fill="#0A0B09" sketch:type="MSShapeGroup"></path>
        <path d="M4.96296296,14.3501766 L4.96296296,15.8101059 L7.85185185,14.7151589 L5.92592593,13.9851942 L4.96296296,14.3501766" id="Fill-125" opacity="0.1" fill="#0A0B09" sketch:type="MSShapeGroup"></path>
        <path d="M14.5925926,10.7003532 L11.7037037,11.7953002 L13.6296296,12.5252649 L14.5925926,12.1602825 L14.5925926,10.7003532" id="Fill-126" opacity="0.1" fill="#0A0B09" sketch:type="MSShapeGroup"></path>
        <path d="M6.59259259,8.97330834 C6.2962963,8.67256289 4.51851852,6.44544064 6.31111111,4.84608802 C7.95555556,3.36571964 8.21481481,1.54372779 7.66666667,0.940776963 C7.66666667,0.940776963 10.9407407,3.0876031 9.14814815,6.78049443 C8.53333333,7.43746265 7.80740741,8.20538549 8.35555556,9.70035316 L6.59259259,8.97330834" id="Fill-121" opacity="0.2" fill="#0A0B09" sketch:type="MSShapeGroup"></path>
        <path d="M9.88888889,9.70035316 C9.85925926,9.04484488 9.24444444,9.57844906 10.2888889,7.41921353 C11.162963,6.62355202 10.8592593,6.10673703 10.6296296,5.32056506 C10.6296296,5.32056506 13.2814815,6.3242665 11.2592593,9.1725887 L9.88888889,9.70035316" id="Fill-122" opacity="0.2" fill="#0A0B09" sketch:type="MSShapeGroup"></path>
        <path d="M1,12.6202119 L2.48148148,12.6202119 L2.48148148,15.5400706 L15.0740741,15.5400706 L15.0740741,12.6202119 L16.5555556,12.6202119 L16.5555556,15.5400706 L15.0740741,17 L2.48148148,17 L1,15.5400706 L1,12.6202119" id="Fill-123" opacity="0.2" fill="#0A0B09" sketch:type="MSShapeGroup"></path>
        <path d="M3.96296296,9.70035316 L13.5925926,13.3501766 L13.5925926,14.8101059 L3.96296296,11.1602825 L3.96296296,9.70035316" id="Fill-124" opacity="0.2" fill="#0A0B09" sketch:type="MSShapeGroup"></path>
        <path d="M3.96296296,13.3501766 L3.96296296,14.8101059 L6.85185185,13.7151589 L4.92592593,12.9851942 L3.96296296,13.3501766" id="Fill-125" opacity="0.2" fill="#0A0B09" sketch:type="MSShapeGroup"></path>
        <path d="M13.5925926,9.70035316 L10.7037037,10.7953002 L12.6296296,11.5252649 L13.5925926,11.1602825 L13.5925926,9.70035316" id="Fill-126" opacity="0.2" fill="#0A0B09" sketch:type="MSShapeGroup"></path>
        <path d="M5.59259259,7.97330834 C5.2962963,7.67256289 3.51851852,5.44544064 5.31111111,3.84608802 C6.95555556,2.36571964 7.21481481,0.543727791 6.66666667,-0.0592230372 C6.66666667,-0.0592230372 9.94074074,2.0876031 8.14814815,5.78049443 C7.53333333,6.43746265 6.80740741,7.20538549 7.35555556,8.70035316 L5.59259259,7.97330834" id="Fill-121" fill="#0A0B09" sketch:type="MSShapeGroup"></path>
        <path d="M8.88888889,8.70035316 C8.85925926,8.04484488 8.24444444,8.57844906 9.28888889,6.41921353 C10.162963,5.62355202 9.85925926,5.10673703 9.62962963,4.32056506 C9.62962963,4.32056506 12.2814815,5.3242665 10.2592593,8.1725887 L8.88888889,8.70035316" id="Fill-122" fill="#0A0B09" sketch:type="MSShapeGroup"></path>
        <path d="M0,11.6202119 L1.48148148,11.6202119 L1.48148148,14.5400706 L14.0740741,14.5400706 L14.0740741,11.6202119 L15.5555556,11.6202119 L15.5555556,14.5400706 L14.0740741,16 L1.48148148,16 L0,14.5400706 L0,11.6202119" id="Fill-123" fill="#0A0B09" sketch:type="MSShapeGroup"></path>
        <path d="M2.96296296,8.70035316 L12.5925926,12.3501766 L12.5925926,13.8101059 L2.96296296,10.1602825 L2.96296296,8.70035316" id="Fill-124" fill="#0A0B09" sketch:type="MSShapeGroup"></path>
        <path d="M2.96296296,12.3501766 L2.96296296,13.8101059 L5.85185185,12.7151589 L3.92592593,11.9851942 L2.96296296,12.3501766" id="Fill-125" fill="#0A0B09" sketch:type="MSShapeGroup"></path>
        <path d="M12.5925926,8.70035316 L9.7037037,9.79530019 L11.6296296,10.5252649 L12.5925926,10.1602825 L12.5925926,8.70035316" id="Fill-126" fill="#0A0B09" sketch:type="MSShapeGroup"></path>
    </g>
</svg>