<?xml version="1.0" encoding="UTF-8" standalone="no"?>
<svg width="12px" height="12px" viewBox="0 0 12 12" version="1.1" xmlns="http://www.w3.org/2000/svg" xmlns:xlink="http://www.w3.org/1999/xlink" xmlns:sketch="http://www.bohemiancoding.com/sketch/ns">
    <!-- Generator: Sketch 3.2.2 (9983) - http://www.bohemiancoding.com/sketch -->
    <title>campfire-black-12</title>
    <desc>Created with Sketch.</desc>
    <defs></defs>
    <g id="Page-1" stroke="none" stroke-width="1" fill="none" fill-rule="evenodd" sketch:type="MSPage">
        <g id="Group-+-Group-+-Group" sketch:type="MSLayerGroup" transform="translate(0.000000, -0.500000)" fill="#0A0B09">
            <g id="Group" transform="translate(2.000000, 2.000000)" fill-opacity="0.1" sketch:type="MSShapeGroup">
                <path d="M0.135642857,7.83709667 L0.849928571,7.83709667 L0.849928571,10.0370967 L8.70707143,10.0370967 L8.70707143,7.83709667 L9.42135714,7.83709667 L9.42135714,10.0370967 L8.70707143,10.77043 L0.849928571,10.77043 L0.135642857,10.0370967 L0.135642857,7.83709667" id="Fill-127"></path>
                <path d="M2.99278571,7.54376333 L3.70707143,7.54376333 L4.42135714,8.13043 L5.13564286,8.13043 L5.84992857,8.71709667 L6.56421429,8.71709667 L7.2785,9.30376333 L7.99278571,9.30376333 L7.99278571,8.71709667 L7.2785,8.71709667 L6.56421429,8.13043 L5.84992857,8.13043 L5.13564286,7.54376333 L4.42135714,7.54376333 L3.70707143,6.95709667 L2.99278571,6.95709667 L2.2785,6.37043 L1.56421429,6.37043 L1.56421429,6.95709667 L2.2785,6.95709667 L2.99278571,7.54376333" id="Fill-128"></path>
                <path d="M5.13564286,6.37043 L5.84992857,6.37043 L5.84992857,5.63709667 L6.56421429,5.63709667 L7.2785,4.90376333 L6.56421429,3.43709667 L6.56421429,2.70376333 L5.84992857,2.70376333 L5.84992857,4.90376333 L5.13564286,4.90376333 L5.13564286,6.37043" id="Fill-129"></path>
                <path d="M4.42135714,6.37043 L3.70707143,6.37043 L3.70707143,5.63709667 L2.2785,4.90376333 L2.99278571,2.70376333 L4.42135714,1.23709667 L4.42135714,0.503763333 L5.13564286,0.503763333 L5.13564286,2.70376333 L4.42135714,4.90376333 L4.42135714,6.37043" id="Fill-130"></path>
                <path d="M6.56421429,6.37043 L7.99278571,6.37043 L7.99278571,7.10376333 L6.56421429,7.10376333 L6.56421429,6.37043 Z" id="Fill-131"></path>
                <path d="M1.56421429,8.57043 L2.99278571,8.57043 L2.99278571,9.30376333 L1.56421429,9.30376333 L1.56421429,8.57043 Z" id="Fill-132"></path>
            </g>
            <g id="Group" transform="translate(1.000000, 1.000000)" opacity="0.2" sketch:type="MSShapeGroup">
                <path d="M0.135642857,7.83709667 L0.849928571,7.83709667 L0.849928571,10.0370967 L8.70707143,10.0370967 L8.70707143,7.83709667 L9.42135714,7.83709667 L9.42135714,10.0370967 L8.70707143,10.77043 L0.849928571,10.77043 L0.135642857,10.0370967 L0.135642857,7.83709667" id="Fill-127"></path>
                <path d="M2.99278571,7.54376333 L3.70707143,7.54376333 L4.42135714,8.13043 L5.13564286,8.13043 L5.84992857,8.71709667 L6.56421429,8.71709667 L7.2785,9.30376333 L7.99278571,9.30376333 L7.99278571,8.71709667 L7.2785,8.71709667 L6.56421429,8.13043 L5.84992857,8.13043 L5.13564286,7.54376333 L4.42135714,7.54376333 L3.70707143,6.95709667 L2.99278571,6.95709667 L2.2785,6.37043 L1.56421429,6.37043 L1.56421429,6.95709667 L2.2785,6.95709667 L2.99278571,7.54376333" id="Fill-128"></path>
                <path d="M5.13564286,6.37043 L5.84992857,6.37043 L5.84992857,5.63709667 L6.56421429,5.63709667 L7.2785,4.90376333 L6.56421429,3.43709667 L6.56421429,2.70376333 L5.84992857,2.70376333 L5.84992857,4.90376333 L5.13564286,4.90376333 L5.13564286,6.37043" id="Fill-129"></path>
                <path d="M4.42135714,6.37043 L3.70707143,6.37043 L3.70707143,5.63709667 L2.2785,4.90376333 L2.99278571,2.70376333 L4.42135714,1.23709667 L4.42135714,0.503763333 L5.13564286,0.503763333 L5.13564286,2.70376333 L4.42135714,4.90376333 L4.42135714,6.37043" id="Fill-130"></path>
                <path d="M6.56421429,6.37043 L7.99278571,6.37043 L7.99278571,7.10376333 L6.56421429,7.10376333 L6.56421429,6.37043 Z" id="Fill-131"></path>
                <path d="M1.56421429,8.57043 L2.99278571,8.57043 L2.99278571,9.30376333 L1.56421429,9.30376333 L1.56421429,8.57043 Z" id="Fill-132"></path>
            </g>
            <g id="Group" sketch:type="MSShapeGroup">
                <path d="M0.135642857,7.83709667 L0.849928571,7.83709667 L0.849928571,10.0370967 L8.70707143,10.0370967 L8.70707143,7.83709667 L9.42135714,7.83709667 L9.42135714,10.0370967 L8.70707143,10.77043 L0.849928571,10.77043 L0.135642857,10.0370967 L0.135642857,7.83709667" id="Fill-127"></path>
                <path d="M2.99278571,7.54376333 L3.70707143,7.54376333 L4.42135714,8.13043 L5.13564286,8.13043 L5.84992857,8.71709667 L6.56421429,8.71709667 L7.2785,9.30376333 L7.99278571,9.30376333 L7.99278571,8.71709667 L7.2785,8.71709667 L6.56421429,8.13043 L5.84992857,8.13043 L5.13564286,7.54376333 L4.42135714,7.54376333 L3.70707143,6.95709667 L2.99278571,6.95709667 L2.2785,6.37043 L1.56421429,6.37043 L1.56421429,6.95709667 L2.2785,6.95709667 L2.99278571,7.54376333" id="Fill-128"></path>
                <path d="M5.13564286,6.37043 L5.84992857,6.37043 L5.84992857,5.63709667 L6.56421429,5.63709667 L7.2785,4.90376333 L6.56421429,3.43709667 L6.56421429,2.70376333 L5.84992857,2.70376333 L5.84992857,4.90376333 L5.13564286,4.90376333 L5.13564286,6.37043" id="Fill-129"></path>
                <path d="M4.42135714,6.37043 L3.70707143,6.37043 L3.70707143,5.63709667 L2.2785,4.90376333 L2.99278571,2.70376333 L4.42135714,1.23709667 L4.42135714,0.503763333 L5.13564286,0.503763333 L5.13564286,2.70376333 L4.42135714,4.90376333 L4.42135714,6.37043" id="Fill-130"></path>
                <path d="M6.56421429,6.37043 L7.99278571,6.37043 L7.99278571,7.10376333 L6.56421429,7.10376333 L6.56421429,6.37043 Z" id="Fill-131"></path>
                <path d="M1.56421429,8.57043 L2.99278571,8.57043 L2.99278571,9.30376333 L1.56421429,9.30376333 L1.56421429,8.57043 Z" id="Fill-132"></path>
            </g>
        </g>
    </g>
</svg>