<?xml version="1.0" encoding="UTF-8" standalone="no"?>
<!-- Created with Inkscape (http://www.inkscape.org/) -->

<svg
   xmlns:dc="http://purl.org/dc/elements/1.1/"
   xmlns:cc="http://creativecommons.org/ns#"
   xmlns:rdf="http://www.w3.org/1999/02/22-rdf-syntax-ns#"
   xmlns:svg="http://www.w3.org/2000/svg"
   xmlns="http://www.w3.org/2000/svg"
   xmlns:inkscape="http://www.inkscape.org/namespaces/inkscape"
   version="1.1"
   width="24"
   height="24"
   id="svg4460">
  <defs
     id="defs4462" />
  <metadata
     id="metadata4465">
    <rdf:RDF>
      <cc:Work
         rdf:about="">
        <dc:format>image/svg+xml</dc:format>
        <dc:type
           rdf:resource="http://purl.org/dc/dcmitype/StillImage" />
        <dc:title />
      </cc:Work>
    </rdf:RDF>
  </metadata>
  <g
     transform="translate(0,-1028.3622)"
     id="layer1">
    <g
       transform="translate(-162,-190)"
       id="campsite-24"
       style="display:inline">
      <g
         transform="translate(162,213)"
         id="g11443"
         style="display:inline">
        <path
           d="M 12.5,5 C 12,4.9999 11.773906,5.2394 11.625,5.5 L 5.40625,17 4.0625,17 C 3.4759168,17 3,17.446005 3,18 c 0,0.553995 0.4759168,1 1.0625,1 L 6,19 l 13,0 1.9375,0 C 21.524083,19 22,18.553995 22,18 22,17.446005 21.524083,17 20.9375,17 L 19.59375,17 13.375,5.5 C 13.226094,5.2394 13,4.9999 12.5,5 z m 0,5 3.5,7 -7,0 z"
           inkscape:connector-curvature="0"
           transform="translate(0,1004.3622)"
           id="path11424"
           style="font-size:medium;font-style:normal;font-variant:normal;font-weight:normal;font-stretch:normal;text-indent:0;text-align:start;text-decoration:none;line-height:normal;letter-spacing:normal;word-spacing:normal;text-transform:none;direction:ltr;block-progression:tb;writing-mode:lr-tb;text-anchor:start;baseline-shift:baseline;opacity:0.3;color:#000000;fill:none;stroke:#ffffff;stroke-width:2;stroke-linecap:round;stroke-linejoin:round;stroke-miterlimit:4;stroke-opacity:1;stroke-dasharray:none;stroke-dashoffset:0;marker:none;visibility:visible;display:inline;overflow:visible;enable-background:accumulate;font-family:Sans;-inkscape-font-specification:Sans" />
        <path
           d="M 12.5,5 C 12,4.9999 11.773906,5.2394 11.625,5.5 L 5.40625,17 4.0625,17 C 3.4759168,17 3,17.446005 3,18 c 0,0.553995 0.4759168,1 1.0625,1 L 6,19 l 13,0 1.9375,0 C 21.524083,19 22,18.553995 22,18 22,17.446005 21.524083,17 20.9375,17 L 19.59375,17 13.375,5.5 C 13.226094,5.2394 13,4.9999 12.5,5 z m 0,5 3.5,7 -7,0 z"
           inkscape:connector-curvature="0"
           transform="translate(0,1004.3622)"
           id="path11349-0"
           style="font-size:medium;font-style:normal;font-variant:normal;font-weight:normal;font-stretch:normal;text-indent:0;text-align:start;text-decoration:none;line-height:normal;letter-spacing:normal;word-spacing:normal;text-transform:none;direction:ltr;block-progression:tb;writing-mode:lr-tb;text-anchor:start;baseline-shift:baseline;color:#000000;fill:#444444;fill-opacity:1;fill-rule:nonzero;stroke:none;stroke-width:2;marker:none;visibility:visible;display:inline;overflow:visible;enable-background:accumulate;font-family:Sans;-inkscape-font-specification:Sans" />
      </g>
    </g>
  </g>
  <rect
     width="24"
     height="24"
     x="0"
     y="0"
     id="canvas"
     style="fill:none;stroke:none;visibility:hidden" />
</svg>
