<?xml version="1.0" encoding="UTF-8" standalone="no"?>
<!-- Created with Inkscape (http://www.inkscape.org/) -->

<svg
   xmlns:dc="http://purl.org/dc/elements/1.1/"
   xmlns:cc="http://creativecommons.org/ns#"
   xmlns:rdf="http://www.w3.org/1999/02/22-rdf-syntax-ns#"
   xmlns:svg="http://www.w3.org/2000/svg"
   xmlns="http://www.w3.org/2000/svg"
   xmlns:sodipodi="http://sodipodi.sourceforge.net/DTD/sodipodi-0.dtd"
   xmlns:inkscape="http://www.inkscape.org/namespaces/inkscape"
   width="24"
   height="24"
   id="svg27349"
   version="1.1"
   inkscape:version="0.48.2 r9819"
   sodipodi:docname="airport-black-24.svg">
  <defs
     id="defs27351" />
  <sodipodi:namedview
     id="base"
     pagecolor="#ffffff"
     bordercolor="#666666"
     borderopacity="1.0"
     inkscape:pageopacity="0.0"
     inkscape:pageshadow="2"
     inkscape:zoom="8.8081266"
     inkscape:cx="11.449912"
     inkscape:cy="8.5492675"
     inkscape:document-units="px"
     inkscape:current-layer="layer1"
     showgrid="false"
     inkscape:window-width="629"
     inkscape:window-height="573"
     inkscape:window-x="3154"
     inkscape:window-y="550"
     inkscape:window-maximized="0" />
  <metadata
     id="metadata27354">
    <rdf:RDF>
      <cc:Work
         rdf:about="">
        <dc:format>image/svg+xml</dc:format>
        <dc:type
           rdf:resource="http://purl.org/dc/dcmitype/StillImage" />
        <dc:title></dc:title>
      </cc:Work>
    </rdf:RDF>
  </metadata>
  <g
     inkscape:label="Layer 1"
     inkscape:groupmode="layer"
     id="layer1"
     transform="translate(0,-1028.3622)">
    <g
       id="g10795"
       transform="matrix(2.4279211,0,0,2.4279211,-51.234983,629.50807)">
      <path
         style="opacity:0;fill:#272525"
         inkscape:connector-curvature="0"
         id="path10797"
         d="m 29.861,174.215 c 0.652,0 1.182,-0.529 1.182,-1.182 v -7.521 c 0,-0.652 -0.529,-1.181 -1.182,-1.181 H 22.34 c -0.652,0 -1.182,0.528 -1.182,1.181 v 7.521 c 0,0.652 0.529,1.182 1.182,1.182 h 7.521 z" />
      <path
         d="m 24.383,171.901 1.744,-3.342 1.746,3.342 h -3.49 z m 5.002,0 -3.258,-6.236 -3.256,6.236 h -0.689 v 0.449 h 7.838 v -0.449 h -0.635 z"
         id="path10799"
         inkscape:connector-curvature="0"
         style="opacity:0.6;fill:#272525;stroke:#ffffff;stroke-width:0.5;stroke-miterlimit:4;stroke-opacity:1;stroke-dasharray:none" />
      <path
         style="fill:#272525"
         inkscape:connector-curvature="0"
         id="path10801"
         d="m 24.383,171.901 1.744,-3.342 1.746,3.342 h -3.49 z m 5.002,0 -3.258,-6.236 -3.256,6.236 h -0.689 v 0.449 h 7.838 v -0.449 h -0.635 z" />
    </g>
  </g>
</svg>
