<?xml version="1.0" encoding="UTF-8" standalone="no"?>
<svg width="18px" height="18px" viewBox="0 0 18 18" version="1.1" xmlns="http://www.w3.org/2000/svg" xmlns:xlink="http://www.w3.org/1999/xlink" xmlns:sketch="http://www.bohemiancoding.com/sketch/ns">
    <!-- Generator: Sketch 3.2.2 (9983) - http://www.bohemiancoding.com/sketch -->
    <title>campground-black-18</title>
    <desc>Created with Sketch.</desc>
    <defs></defs>
    <g id="Page-1" stroke="none" stroke-width="1" fill="none" fill-rule="evenodd" sketch:type="MSPage">
        <path d="M6.44444444,15.6272752 L10.1481481,8.32762836 L13.8518519,15.6272752 L6.44444444,15.6272752 L6.44444444,15.6272752 Z M16.8148148,15.6272752 L10.1481481,2.48791089 L3.48148148,15.6272752 L2,15.6272752 L2,16.3572399 L18.2962963,16.3572399 L18.2962963,15.6272752 L16.8148148,15.6272752 L16.8148148,15.6272752 Z" id="Fill-133" opacity="0.1" fill="#0A0B09" sketch:type="MSShapeGroup"></path>
        <path d="M5.44444444,14.6272752 L9.14814815,7.32762836 L12.8518519,14.6272752 L5.44444444,14.6272752 L5.44444444,14.6272752 Z M15.8148148,14.6272752 L9.14814815,1.48791089 L2.48148148,14.6272752 L1,14.6272752 L1,15.3572399 L17.2962963,15.3572399 L17.2962963,14.6272752 L15.8148148,14.6272752 L15.8148148,14.6272752 Z" id="Fill-133" opacity="0.2" fill="#0A0B09" sketch:type="MSShapeGroup"></path>
        <path d="M4.44444444,13.6272752 L8.14814815,6.32762836 L11.8518519,13.6272752 L4.44444444,13.6272752 L4.44444444,13.6272752 Z M14.8148148,13.6272752 L8.14814815,0.487910894 L1.48148148,13.6272752 L0,13.6272752 L0,14.3572399 L16.2962963,14.3572399 L16.2962963,13.6272752 L14.8148148,13.6272752 L14.8148148,13.6272752 Z" id="Fill-133" fill="#0A0B09" sketch:type="MSShapeGroup"></path>
    </g>
</svg>