<?xml version="1.0" encoding="UTF-8" standalone="no"?>
<svg width="12px" height="12px" viewBox="0 0 12 12" version="1.1" xmlns="http://www.w3.org/2000/svg" xmlns:xlink="http://www.w3.org/1999/xlink" xmlns:sketch="http://www.bohemiancoding.com/sketch/ns">
    <!-- Generator: Sketch 3.2.2 (9983) - http://www.bohemiancoding.com/sketch -->
    <title>campground-black-12</title>
    <desc>Created with Sketch.</desc>
    <defs></defs>
    <g id="Page-1" stroke="none" stroke-width="1" fill="none" fill-rule="evenodd" sketch:type="MSPage">
        <path d="M4.11764706,9.81212121 L6.94117647,5.55096419 L9.76470588,9.81212121 L4.11764706,9.81212121 L4.11764706,9.81212121 Z M11.1764706,9.81212121 L6.94117647,2 L2.70588235,9.81212121 L2,9.81212121 L2,10.522314 L11.8823529,10.522314 L11.8823529,9.81212121 L11.1764706,9.81212121 L11.1764706,9.81212121 Z" id="Fill-134" fill-opacity="0.1" fill="#0A0B09" sketch:type="MSShapeGroup"></path>
        <path d="M3.11764706,8.81212121 L5.94117647,4.55096419 L8.76470588,8.81212121 L3.11764706,8.81212121 L3.11764706,8.81212121 Z M10.1764706,8.81212121 L5.94117647,1 L1.70588235,8.81212121 L1,8.81212121 L1,9.52231405 L10.8823529,9.52231405 L10.8823529,8.81212121 L10.1764706,8.81212121 L10.1764706,8.81212121 Z" id="Fill-134" opacity="0.2" fill="#0A0B09" sketch:type="MSShapeGroup"></path>
        <path d="M2.11764706,7.81212121 L4.94117647,3.55096419 L7.76470588,7.81212121 L2.11764706,7.81212121 L2.11764706,7.81212121 Z M9.17647059,7.81212121 L4.94117647,0 L0.705882353,7.81212121 L0,7.81212121 L0,8.52231405 L9.88235294,8.52231405 L9.88235294,7.81212121 L9.17647059,7.81212121 L9.17647059,7.81212121 Z" id="Fill-134" fill="#0A0B09" sketch:type="MSShapeGroup"></path>
    </g>
</svg>