<?xml version="1.0" encoding="utf-8"?>
<!-- Generator: Adobe Illustrator 18.1.1, SVG Export Plug-In . SVG Version: 6.00 Build 0)  -->
<svg version="1.1" xmlns="http://www.w3.org/2000/svg" xmlns:xlink="http://www.w3.org/1999/xlink" x="0px" y="0px"
	 viewBox="0 0 12 12" enable-background="new 0 0 12 12" xml:space="preserve">
<g id="shadows">
	<g opacity="0.2">
		<polygon points="1.8,7.9 2.5,7.9 2.5,9.9 9.5,9.9 9.5,7.9 10.2,7.9 10.2,9.9 9.5,10.5 2.5,10.5 1.8,9.9 		"/>
		<polyline points="4.4,7.7 5,7.7 5.7,8.2 6.3,8.2 7,8.7 7.6,8.7 8.3,9.2 8.9,9.2 8.9,8.7 8.3,8.7 7.6,8.2 7,8.2 6.3,7.7 5.7,7.7 
			5,7.2 4.4,7.2 3.8,6.6 3.1,6.6 3.1,7.2 3.8,7.2 4.4,7.7 		"/>
		<polygon points="6.3,6.6 7,6.6 7,6 7.6,6 8.3,5.4 7.6,4.1 7.6,3.4 7,3.4 7,5.4 6.3,5.4 		"/>
		<polygon points="5.7,6.6 5,6.6 5,6 3.8,5.4 4.4,3.4 5,2.8 5.7,2.1 5.7,1.5 6.3,1.5 6.3,3.4 5.7,5.4 		"/>
		<rect x="7.6" y="6.6" width="1.3" height="0.6"/>
		<rect x="3.1" y="8.6" width="1.3" height="0.6"/>
	</g>
</g>
<g id="icons">
	<g>
		<polygon points="1.3,7.4 2,7.4 2,9.4 9,9.4 9,7.4 9.7,7.4 9.7,9.4 9,10 2,10 1.3,9.4 		"/>
		<polyline points="3.9,7.2 4.5,7.2 5.2,7.7 5.8,7.7 6.5,8.2 7.1,8.2 7.8,8.7 8.4,8.7 8.4,8.2 7.8,8.2 7.1,7.7 6.5,7.7 5.8,7.2 
			5.2,7.2 4.5,6.7 3.9,6.7 3.3,6.1 2.6,6.1 2.6,6.7 3.3,6.7 3.9,7.2 		"/>
		<polygon points="5.8,6.1 6.5,6.1 6.5,5.5 7.1,5.5 7.8,4.9 7.1,3.6 7.1,2.9 6.5,2.9 6.5,4.9 5.8,4.9 		"/>
		<polygon points="5.2,6.1 4.5,6.1 4.5,5.5 3.3,4.9 3.9,2.9 4.5,2.3 5.2,1.6 5.2,1 5.8,1 5.8,2.9 5.2,4.9 		"/>
		<rect x="7.1" y="6.1" width="1.3" height="0.6"/>
		<rect x="2.6" y="8.1" width="1.3" height="0.6"/>
	</g>
</g>
<g id="guides">
</g>
</svg>
