<?xml version="1.0" encoding="UTF-8" standalone="no"?>
<!-- Created with Inkscape (http://www.inkscape.org/) -->

<svg
   xmlns:dc="http://purl.org/dc/elements/1.1/"
   xmlns:cc="http://creativecommons.org/ns#"
   xmlns:rdf="http://www.w3.org/1999/02/22-rdf-syntax-ns#"
   xmlns:svg="http://www.w3.org/2000/svg"
   xmlns="http://www.w3.org/2000/svg"
   xmlns:sodipodi="http://sodipodi.sourceforge.net/DTD/sodipodi-0.dtd"
   xmlns:inkscape="http://www.inkscape.org/namespaces/inkscape"
   width="18"
   height="18"
   id="svg27435"
   version="1.1"
   inkscape:version="0.48.2 r9819"
   sodipodi:docname="campfire-black-18.svg">
  <defs
     id="defs27437" />
  <sodipodi:namedview
     id="base"
     pagecolor="#ffffff"
     bordercolor="#666666"
     borderopacity="1.0"
     inkscape:pageopacity="0.0"
     inkscape:pageshadow="2"
     inkscape:zoom="7.9891803"
     inkscape:cx="12.590799"
     inkscape:cy="8.9588378"
     inkscape:document-units="px"
     inkscape:current-layer="layer1"
     showgrid="false"
     inkscape:window-width="483"
     inkscape:window-height="454"
     inkscape:window-x="3603"
     inkscape:window-y="344"
     inkscape:window-maximized="0" />
  <metadata
     id="metadata27440">
    <rdf:RDF>
      <cc:Work
         rdf:about="">
        <dc:format>image/svg+xml</dc:format>
        <dc:type
           rdf:resource="http://purl.org/dc/dcmitype/StillImage" />
        <dc:title></dc:title>
      </cc:Work>
    </rdf:RDF>
  </metadata>
  <g
     inkscape:label="Layer 1"
     inkscape:groupmode="layer"
     id="layer1"
     transform="translate(0,-1034.3622)">
    <g
       transform="matrix(1.8211251,0,0,1.8211251,-364.69459,400.29828)"
       id="g12740">
      <path
         style="opacity:0;fill:#272525"
         inkscape:connector-curvature="0"
         id="path12742"
         d="m 209.105,358.392 c 0.652,0 1.181,-0.527 1.181,-1.18 v -7.521 c 0,-0.652 -0.528,-1.182 -1.181,-1.182 h -7.521 c -0.652,0 -1.182,0.529 -1.182,1.182 v 7.521 c 0,0.652 0.529,1.18 1.182,1.18 h 7.521 z" />
      <g
         id="g12744"
         style="opacity:0.6;stroke:#1d1d1c;stroke-width:0.5;stroke-miterlimit:4;stroke-opacity:1;stroke-dasharray:none"
         transform="translate(179.243,196.877)">
        <g
           id="g12746"
           style="stroke:#1d1d1c;stroke-width:0.5;stroke-miterlimit:4;stroke-opacity:1;stroke-dasharray:none">
          <path
             d="m 22.692,158.569 h -0.725 v 1.428 c 0,0.438 0.393,0.794 0.876,0.794 h 6.347 c 0.483,0 0.877,-0.357 0.877,-0.794 v -1.428 h -0.726 v 1.276 c 0,0.161 -0.144,0.29 -0.32,0.29 h -6.009 c -0.178,0 -0.32,-0.129 -0.32,-0.29 v -1.276 z"
             id="path12748"
             inkscape:connector-curvature="0"
             style="fill:#272525;stroke:#1d1d1c;stroke-width:0.5;stroke-miterlimit:4;stroke-opacity:1;stroke-dasharray:none" />
          <polygon
             points="28.457,158.398 23.571,156.767 23.571,157.892 28.457,159.523 "
             id="polygon12750"
             style="fill:#272525;stroke:#1d1d1c;stroke-width:0.5;stroke-miterlimit:4;stroke-opacity:1;stroke-dasharray:none" />
          <path
             d="m 24.698,156.768 c -0.168,-0.189 -1.285,-1.48 -0.158,-2.598 0.939,-0.932 1.076,-1.714 0.76,-2.094 0,0 2.391,0.982 0.984,3.262 -0.24,0.387 -0.842,0.844 -0.527,1.785 l -1.059,-0.355 z"
             id="path12752"
             inkscape:connector-curvature="0"
             style="fill:#272525;stroke:#1d1d1c;stroke-width:0.5;stroke-miterlimit:4;stroke-opacity:1;stroke-dasharray:none" />
          <path
             d="m 26.166,157.078 c -0.051,-0.191 -0.28,-0.607 0.419,-1.436 0.374,-0.441 0.515,-1.096 0.548,-1.342 0,0 1.238,0.71 0.007,2.446 l -0.974,0.332 z"
             id="path12754"
             inkscape:connector-curvature="0"
             style="fill:#272525;stroke:#1d1d1c;stroke-width:0.5;stroke-miterlimit:4;stroke-opacity:1;stroke-dasharray:none" />
          <polygon
             points="28.457,156.667 28.457,157.792 28.113,157.905 26.43,157.344 "
             id="polygon12756"
             style="fill:#272525;stroke:#1d1d1c;stroke-width:0.5;stroke-miterlimit:4;stroke-opacity:1;stroke-dasharray:none" />
        </g>
        <polygon
           style="fill:#272525;stroke:#1d1d1c;stroke-width:0.5;stroke-miterlimit:4;stroke-opacity:1;stroke-dasharray:none"
           id="polygon12758"
           points="23.571,159.623 23.571,158.498 23.916,158.386 25.6,158.947 " />
      </g>
      <g
         id="g12760"
         transform="translate(179.243,196.877)"
         style="fill:#ffffff;fill-opacity:1;stroke:none">
        <g
           id="g12762"
           style="fill:#ffffff;fill-opacity:1;stroke:none">
          <path
             style="fill:#ffffff;fill-opacity:1;stroke:none"
             inkscape:connector-curvature="0"
             id="path12764"
             d="m 22.692,158.569 h -0.725 v 1.428 c 0,0.438 0.393,0.794 0.876,0.794 h 6.347 c 0.483,0 0.877,-0.357 0.877,-0.794 v -1.428 h -0.726 v 1.276 c 0,0.161 -0.144,0.29 -0.32,0.29 h -6.009 c -0.178,0 -0.32,-0.129 -0.32,-0.29 v -1.276 z" />
          <polygon
             style="fill:#ffffff;fill-opacity:1;stroke:none"
             id="polygon12766"
             points="28.457,158.398 23.571,156.767 23.571,157.892 28.457,159.523 " />
          <path
             style="fill:#ffffff;fill-opacity:1;stroke:none"
             inkscape:connector-curvature="0"
             id="path12768"
             d="m 24.698,156.768 c -0.168,-0.189 -1.285,-1.48 -0.158,-2.598 0.939,-0.932 1.076,-1.714 0.76,-2.094 0,0 2.391,0.982 0.984,3.262 -0.24,0.387 -0.842,0.844 -0.527,1.785 l -1.059,-0.355 z" />
          <path
             style="fill:#ffffff;fill-opacity:1;stroke:none"
             inkscape:connector-curvature="0"
             id="path12770"
             d="m 26.166,157.078 c -0.051,-0.191 -0.28,-0.607 0.419,-1.436 0.374,-0.441 0.515,-1.096 0.548,-1.342 0,0 1.238,0.71 0.007,2.446 l -0.974,0.332 z" />
          <polygon
             style="fill:#ffffff;fill-opacity:1;stroke:none"
             id="polygon12772"
             points="28.457,156.667 28.457,157.792 28.113,157.905 26.43,157.344 " />
        </g>
        <polygon
           points="23.571,159.623 23.571,158.498 23.916,158.386 25.6,158.947 "
           id="polygon12774"
           style="fill:#ffffff;fill-opacity:1;stroke:none" />
      </g>
    </g>
  </g>
</svg>
