<?xml version="1.0" encoding="utf-8"?>
<!-- Generator: Adobe Illustrator 18.1.1, SVG Export Plug-In . SVG Version: 6.00 Build 0)  -->
<svg version="1.1" xmlns="http://www.w3.org/2000/svg" xmlns:xlink="http://www.w3.org/1999/xlink" x="0px" y="0px"
	 viewBox="0 0 12 12" enable-background="new 0 0 12 12" xml:space="preserve">
<g id="shadows">
</g>
<g id="icons">
	<g opacity="0.2">
		<path d="M9.2,9.4L6.2,3.9L3.1,9.4H2.5v0.6l7.3,0V9.4H9.2z M4.8,9.4l1.4-3l1.4,3H4.8z"/>
	</g>
	<polygon opacity="0.2" points="10.6,8.5 10.5,8.4 7.5,3 7.1,3.7 10.2,9.1 10.9,9.1 	"/>
	<polygon opacity="0.2" points="8.8,2.1 8.5,2.7 11.5,8.1 11.5,6.8 	"/>
	<g>
		<path d="M8.8,8.9L5.7,3.4L2.6,8.9H2v0.6l7.3,0V8.9H8.8z M4.2,8.9l1.4-3l1.4,3H4.2z"/>
	</g>
	<polygon points="10.1,8 10,7.9 7,2.5 6.6,3.2 9.7,8.6 10.4,8.6 	"/>
	<polygon points="8.3,1.6 8,2.2 11,7.6 11,6.3 	"/>
</g>
<g id="guides" display="none">
</g>
</svg>
