<?xml version="1.0" encoding="UTF-8" standalone="no"?>
<!-- Created with Inkscape (http://www.inkscape.org/) -->

<svg
   xmlns:dc="http://purl.org/dc/elements/1.1/"
   xmlns:cc="http://creativecommons.org/ns#"
   xmlns:rdf="http://www.w3.org/1999/02/22-rdf-syntax-ns#"
   xmlns:svg="http://www.w3.org/2000/svg"
   xmlns="http://www.w3.org/2000/svg"
   xmlns:inkscape="http://www.inkscape.org/namespaces/inkscape"
   version="1.1"
   width="12"
   height="12"
   id="svg4764">
  <defs
     id="defs4766" />
  <metadata
     id="metadata4769">
    <rdf:RDF>
      <cc:Work
         rdf:about="">
        <dc:format>image/svg+xml</dc:format>
        <dc:type
           rdf:resource="http://purl.org/dc/dcmitype/StillImage" />
        <dc:title />
      </cc:Work>
    </rdf:RDF>
  </metadata>
  <g
     transform="translate(0,-1040.3622)"
     id="layer1">
    <g
       transform="translate(-204,-178)"
       id="campsite-12"
       style="display:inline">
      <g
         transform="translate(-1,-1)"
         id="g21673">
        <path
           d="m 211.53125,1221.3622 c -0.25,0 -0.36305,0.1197 -0.4375,0.25 l -2.85938,5.75 -0.73437,0 c -0.29329,0 -0.5,0.223 -0.5,0.5 0,0.277 0.20671,0.5 0.5,0.5 l 1.03125,0 6,0 0.9375,0 c 0.29329,0 0.53125,-0.223 0.53125,-0.5 0,-0.277 -0.23796,-0.5 -0.53125,-0.5 l -0.64063,0 -2.85937,-5.75 c -0.0745,-0.1303 -0.1875,-0.25 -0.4375,-0.25 z"
           inkscape:connector-curvature="0"
           id="path12871"
           style="font-size:medium;font-style:normal;font-variant:normal;font-weight:normal;font-stretch:normal;text-indent:0;text-align:start;text-decoration:none;line-height:normal;letter-spacing:normal;word-spacing:normal;text-transform:none;direction:ltr;block-progression:tb;writing-mode:lr-tb;text-anchor:start;baseline-shift:baseline;opacity:0.3;color:#000000;fill:#ffffff;stroke:#ffffff;stroke-width:2;stroke-linecap:round;stroke-linejoin:round;stroke-miterlimit:4;stroke-opacity:1;stroke-dasharray:none;stroke-dashoffset:0;marker:none;visibility:visible;display:inline;overflow:visible;enable-background:accumulate;font-family:Sans;-inkscape-font-specification:Sans" />
        <path
           d="m 211.53125,1221.3622 c -0.25,0 -0.36305,0.1197 -0.4375,0.25 l -2.85938,5.75 -0.73437,0 c -0.29329,0 -0.5,0.223 -0.5,0.5 0,0.277 0.20671,0.5 0.5,0.5 l 1.03125,0 6,0 0.9375,0 c 0.29329,0 0.53125,-0.223 0.53125,-0.5 0,-0.277 -0.23796,-0.5 -0.53125,-0.5 l -0.64063,0 -2.85937,-5.75 c -0.0745,-0.1303 -0.1875,-0.25 -0.4375,-0.25 z m 0,2.5 1.5,3.5 -3,0 z"
           inkscape:connector-curvature="0"
           id="path11349-0-3"
           style="font-size:medium;font-style:normal;font-variant:normal;font-weight:normal;font-stretch:normal;text-indent:0;text-align:start;text-decoration:none;line-height:normal;letter-spacing:normal;word-spacing:normal;text-transform:none;direction:ltr;block-progression:tb;writing-mode:lr-tb;text-anchor:start;baseline-shift:baseline;color:#000000;fill:#444444;fill-opacity:1;fill-rule:nonzero;stroke:none;stroke-width:2;marker:none;visibility:visible;display:inline;overflow:visible;enable-background:accumulate;font-family:Sans;-inkscape-font-specification:Sans" />
      </g>
    </g>
  </g>
  <rect
     width="12"
     height="12"
     x="0"
     y="0"
     id="canvas"
     style="fill:none;stroke:none;visibility:hidden" />
</svg>
