<?xml version="1.0" encoding="utf-8"?>
<!-- Generator: Adobe Illustrator 18.1.1, SVG Export Plug-In . SVG Version: 6.00 Build 0)  -->
<svg version="1.1" xmlns="http://www.w3.org/2000/svg" xmlns:xlink="http://www.w3.org/1999/xlink" x="0px" y="0px"
	 viewBox="0 0 18 18" enable-background="new 0 0 18 18" xml:space="preserve">
<g id="shadows">
	<g opacity="0.2">
		<polygon points="4.2,12 5.1,12 5.1,14.8 15.4,14.8 15.4,12 16.3,12 16.3,14.8 15.4,15.8 5.1,15.8 4.2,14.8 		"/>
		<polyline points="7.9,11.7 8.9,11.7 9.8,12.4 10.7,12.4 11.6,13.2 12.6,13.2 13.5,13.9 14.4,13.9 14.4,13.2 13.5,13.2 12.6,12.4 
			11.6,12.4 10.7,11.7 9.8,11.7 8.9,10.9 7.9,10.9 7,10.2 6.1,10.2 6.1,10.9 7,10.9 7.9,11.7 		"/>
		<polygon points="10.7,10.2 11.6,10.2 11.6,9.2 12.6,9.2 13.5,8.3 12.6,6.5 12.6,5.5 11.6,5.5 11.6,8.3 10.7,8.3 		"/>
		<polygon points="9.8,10.2 8.9,10.2 8.9,9.2 7,8.3 7.9,5.5 8.9,4.6 9.8,3.7 9.8,2.8 10.7,2.8 10.7,5.5 9.8,8.3 		"/>
		<rect x="12.6" y="10.2" width="1.9" height="0.9"/>
		<rect x="6.1" y="13" width="1.9" height="0.9"/>
	</g>
</g>
<g id="icons">
	<g>
		<polygon points="3.5,11.3 4.4,11.3 4.4,14.1 14.6,14.1 14.6,11.3 15.5,11.3 15.5,14.1 14.6,15 4.4,15 3.5,14.1 		"/>
		<polyline points="7.2,10.9 8.1,10.9 9,11.7 10,11.7 10.9,12.4 11.8,12.4 12.8,13.1 13.7,13.1 13.7,12.4 12.8,12.4 11.8,11.7 
			10.9,11.7 10,10.9 9,10.9 8.1,10.2 7.2,10.2 6.2,9.4 5.3,9.4 5.3,10.2 6.2,10.2 7.2,10.9 		"/>
		<polygon points="10,9.4 10.9,9.4 10.9,8.5 11.8,8.5 12.8,7.6 11.8,5.7 11.8,4.8 10.9,4.8 10.9,7.6 10,7.6 		"/>
		<polygon points="9,9.4 8.1,9.4 8.1,8.5 6.2,7.6 7.2,4.8 8.1,3.9 9,2.9 9,2 10,2 10,4.8 9,7.6 		"/>
		<rect x="11.8" y="9.4" width="1.9" height="0.9"/>
		<rect x="5.3" y="12.2" width="1.9" height="0.9"/>
	</g>
</g>
<g id="guides">
</g>
</svg>
