<?xml version="1.0" encoding="UTF-8" standalone="no"?>
<!-- Created with Inkscape (http://www.inkscape.org/) -->

<svg
   xmlns:dc="http://purl.org/dc/elements/1.1/"
   xmlns:cc="http://creativecommons.org/ns#"
   xmlns:rdf="http://www.w3.org/1999/02/22-rdf-syntax-ns#"
   xmlns:svg="http://www.w3.org/2000/svg"
   xmlns="http://www.w3.org/2000/svg"
   xmlns:sodipodi="http://sodipodi.sourceforge.net/DTD/sodipodi-0.dtd"
   xmlns:inkscape="http://www.inkscape.org/namespaces/inkscape"
   width="12"
   height="12"
   id="svg27498"
   version="1.1"
   inkscape:version="0.48.2 r9819"
   sodipodi:docname="canoe-access-white-12.svg">
  <defs
     id="defs27500" />
  <sodipodi:namedview
     id="base"
     pagecolor="#ffffff"
     bordercolor="#666666"
     borderopacity="1.0"
     inkscape:pageopacity="0.0"
     inkscape:pageshadow="2"
     inkscape:zoom="9.9066575"
     inkscape:cx="8.3700198"
     inkscape:cy="5.0434735"
     inkscape:document-units="px"
     inkscape:current-layer="layer1"
     showgrid="false"
     inkscape:window-width="483"
     inkscape:window-height="454"
     inkscape:window-x="3857"
     inkscape:window-y="98"
     inkscape:window-maximized="0" />
  <metadata
     id="metadata27503">
    <rdf:RDF>
      <cc:Work
         rdf:about="">
        <dc:format>image/svg+xml</dc:format>
        <dc:type
           rdf:resource="http://purl.org/dc/dcmitype/StillImage" />
        <dc:title></dc:title>
      </cc:Work>
    </rdf:RDF>
  </metadata>
  <g
     inkscape:label="Layer 1"
     inkscape:groupmode="layer"
     id="layer1"
     transform="translate(0,-1040.3622)">
    <g
       transform="matrix(1.2142062,0,0,1.2142062,-25.737012,825.35231)"
       id="g13040">
      <path
         d="m 29.862,186.915 c 0.652,0 1.181,-0.528 1.181,-1.181 v -7.521 c 0,-0.652 -0.528,-1.181 -1.181,-1.181 h -7.521 c -0.652,0 -1.181,0.529 -1.181,1.181 v 7.521 c 0,0.652 0.528,1.181 1.181,1.181 h 7.521 z"
         id="path13042"
         inkscape:connector-curvature="0"
         style="opacity:0;fill:#272525" />
      <g
         style="opacity:0.6;stroke:#ffffff;stroke-width:0.5;stroke-miterlimit:4;stroke-opacity:1;stroke-dasharray:none"
         id="g13044">
        <circle
           d="m 25.638001,179.043 c 0,0.42194 -0.342055,0.764 -0.764,0.764 -0.421946,0 -0.764,-0.34206 -0.764,-0.764 0,-0.42195 0.342054,-0.764 0.764,-0.764 0.421945,0 0.764,0.34205 0.764,0.764 z"
           cx="24.874001"
           cy="179.043"
           r="0.764"
           id="circle13046"
           sodipodi:cx="24.874001"
           sodipodi:cy="179.043"
           sodipodi:rx="0.764"
           sodipodi:ry="0.764"
           style="fill:#272525;stroke:#ffffff;stroke-width:0.5;stroke-miterlimit:4;stroke-opacity:1;stroke-dasharray:none" />
        <path
           d="m 22.056,183.984 c 0.179,0 0.351,-0.041 0.505,-0.11 0.158,-0.073 0.337,-0.116 0.522,-0.116 0.185,0 0.364,0.043 0.521,0.116 0.155,0.069 0.328,0.109 0.509,0.109 0.18,0 0.353,-0.04 0.507,-0.109 0.157,-0.073 0.336,-0.116 0.522,-0.116 0.186,0 0.363,0.043 0.522,0.116 0.153,0.069 0.327,0.109 0.507,0.109 0.18,0 0.354,-0.04 0.507,-0.109 0.159,-0.073 0.337,-0.116 0.523,-0.116 0.186,0 0.363,0.043 0.521,0.116 0.155,0.069 0.328,0.109 0.508,0.109 0.181,0 0.353,-0.04 0.508,-0.109 0.157,-0.073 0.336,-0.116 0.521,-0.116 0.159,0 0.313,0.03 0.453,0.085 0.227,-0.248 0.367,-0.578 0.367,-0.939 0,-0.77 -0.623,-1.393 -1.392,-1.393 l -0.156,0.017 c -0.171,0.694 -0.865,0.724 -0.865,0.724 l -3.178,-0.001 -0.266,-0.156 0.641,-1.075 0.701,0.405 c 0.42,0.272 0.639,-0.109 0.639,-0.109 l 0.703,-1.146 c 0.306,-0.498 -0.343,-0.897 -0.646,-0.397 l -0.492,0.804 -1.17,-0.647 c -0.811,-0.452 -1.154,0.297 -1.154,0.297 l -0.919,1.574 c -0.156,0.327 -0.017,0.468 -0.017,0.468 l -0.454,-0.001 v 1.716 z"
           id="path13048"
           inkscape:connector-curvature="0"
           style="fill:#272525;stroke:#ffffff;stroke-width:0.5;stroke-miterlimit:4;stroke-opacity:1;stroke-dasharray:none" />
        <path
           d="m 30.29,185.504 c -0.18,0 -0.353,-0.04 -0.506,-0.109 -0.159,-0.073 -0.337,-0.116 -0.523,-0.116 -0.186,0 -0.364,0.043 -0.521,0.116 -0.155,0.069 -0.327,0.109 -0.508,0.109 -0.18,0 -0.353,-0.04 -0.508,-0.109 -0.158,-0.073 -0.336,-0.116 -0.521,-0.116 -0.187,0 -0.364,0.043 -0.523,0.116 -0.153,0.069 -0.327,0.109 -0.507,0.109 -0.18,0 -0.354,-0.04 -0.507,-0.109 -0.159,-0.073 -0.337,-0.116 -0.522,-0.116 -0.187,0 -0.365,0.043 -0.522,0.116 -0.154,0.069 -0.327,0.109 -0.507,0.109 -0.181,0 -0.354,-0.04 -0.509,-0.109 -0.157,-0.073 -0.336,-0.116 -0.521,-0.116 -0.185,0 -0.364,0.043 -0.522,0.116 -0.154,0.069 -0.327,0.109 -0.507,0.109 v -0.76 c 0.18,0 0.353,-0.041 0.507,-0.11 0.158,-0.073 0.337,-0.116 0.522,-0.116 0.185,0 0.364,0.043 0.521,0.116 0.155,0.069 0.328,0.11 0.509,0.11 0.18,0 0.353,-0.041 0.507,-0.11 0.157,-0.073 0.336,-0.116 0.522,-0.116 0.186,0 0.363,0.043 0.522,0.116 0.153,0.069 0.327,0.11 0.507,0.11 0.18,0 0.354,-0.041 0.507,-0.11 0.159,-0.073 0.337,-0.116 0.523,-0.116 0.186,0 0.363,0.043 0.521,0.116 0.155,0.069 0.328,0.11 0.508,0.11 0.181,0 0.353,-0.041 0.508,-0.11 0.157,-0.073 0.336,-0.116 0.521,-0.116 0.187,0 0.364,0.043 0.523,0.116 0.153,0.069 0.326,0.11 0.506,0.11 v 0.76 z"
           id="path13050"
           inkscape:connector-curvature="0"
           style="fill:#272525;stroke:#ffffff;stroke-width:0.5;stroke-miterlimit:4;stroke-opacity:1;stroke-dasharray:none" />
      </g>
      <g
         id="g13052">
        <circle
           d="m 25.638001,179.043 c 0,0.42194 -0.342055,0.764 -0.764,0.764 -0.421946,0 -0.764,-0.34206 -0.764,-0.764 0,-0.42195 0.342054,-0.764 0.764,-0.764 0.421945,0 0.764,0.34205 0.764,0.764 z"
           style="fill:#272525"
           sodipodi:ry="0.764"
           sodipodi:rx="0.764"
           sodipodi:cy="179.043"
           sodipodi:cx="24.874001"
           id="circle13054"
           r="0.764"
           cy="179.043"
           cx="24.874001" />
        <path
           style="fill:#272525"
           inkscape:connector-curvature="0"
           id="path13056"
           d="m 22.056,183.984 c 0.179,0 0.351,-0.041 0.505,-0.11 0.158,-0.073 0.337,-0.116 0.522,-0.116 0.185,0 0.364,0.043 0.521,0.116 0.155,0.069 0.328,0.109 0.509,0.109 0.18,0 0.353,-0.04 0.507,-0.109 0.157,-0.073 0.336,-0.116 0.522,-0.116 0.186,0 0.363,0.043 0.522,0.116 0.153,0.069 0.327,0.109 0.507,0.109 0.18,0 0.354,-0.04 0.507,-0.109 0.159,-0.073 0.337,-0.116 0.523,-0.116 0.186,0 0.363,0.043 0.521,0.116 0.155,0.069 0.328,0.109 0.508,0.109 0.181,0 0.353,-0.04 0.508,-0.109 0.157,-0.073 0.336,-0.116 0.521,-0.116 0.159,0 0.313,0.03 0.453,0.085 0.227,-0.248 0.367,-0.578 0.367,-0.939 0,-0.77 -0.623,-1.393 -1.392,-1.393 l -0.156,0.017 c -0.171,0.694 -0.865,0.724 -0.865,0.724 l -3.178,-0.001 -0.266,-0.156 0.641,-1.075 0.701,0.405 c 0.42,0.272 0.639,-0.109 0.639,-0.109 l 0.703,-1.146 c 0.306,-0.498 -0.343,-0.897 -0.646,-0.397 l -0.492,0.804 -1.17,-0.647 c -0.811,-0.452 -1.154,0.297 -1.154,0.297 l -0.919,1.574 c -0.156,0.327 -0.017,0.468 -0.017,0.468 l -0.454,-0.001 v 1.716 z" />
        <path
           style="fill:#272525"
           inkscape:connector-curvature="0"
           id="path13058"
           d="m 30.29,185.504 c -0.18,0 -0.353,-0.04 -0.506,-0.109 -0.159,-0.073 -0.337,-0.116 -0.523,-0.116 -0.186,0 -0.364,0.043 -0.521,0.116 -0.155,0.069 -0.327,0.109 -0.508,0.109 -0.18,0 -0.353,-0.04 -0.508,-0.109 -0.158,-0.073 -0.336,-0.116 -0.521,-0.116 -0.187,0 -0.364,0.043 -0.523,0.116 -0.153,0.069 -0.327,0.109 -0.507,0.109 -0.18,0 -0.354,-0.04 -0.507,-0.109 -0.159,-0.073 -0.337,-0.116 -0.522,-0.116 -0.187,0 -0.365,0.043 -0.522,0.116 -0.154,0.069 -0.327,0.109 -0.507,0.109 -0.181,0 -0.354,-0.04 -0.509,-0.109 -0.157,-0.073 -0.336,-0.116 -0.521,-0.116 -0.185,0 -0.364,0.043 -0.522,0.116 -0.154,0.069 -0.327,0.109 -0.507,0.109 v -0.76 c 0.18,0 0.353,-0.041 0.507,-0.11 0.158,-0.073 0.337,-0.116 0.522,-0.116 0.185,0 0.364,0.043 0.521,0.116 0.155,0.069 0.328,0.11 0.509,0.11 0.18,0 0.353,-0.041 0.507,-0.11 0.157,-0.073 0.336,-0.116 0.522,-0.116 0.186,0 0.363,0.043 0.522,0.116 0.153,0.069 0.327,0.11 0.507,0.11 0.18,0 0.354,-0.041 0.507,-0.11 0.159,-0.073 0.337,-0.116 0.523,-0.116 0.186,0 0.363,0.043 0.521,0.116 0.155,0.069 0.328,0.11 0.508,0.11 0.181,0 0.353,-0.041 0.508,-0.11 0.157,-0.073 0.336,-0.116 0.521,-0.116 0.187,0 0.364,0.043 0.523,0.116 0.153,0.069 0.326,0.11 0.506,0.11 v 0.76 z" />
      </g>
    </g>
  </g>
</svg>
