<?xml version="1.0" encoding="UTF-8" standalone="no"?>
<svg width="12px" height="12px" viewBox="0 0 12 12" version="1.1" xmlns="http://www.w3.org/2000/svg" xmlns:xlink="http://www.w3.org/1999/xlink" xmlns:sketch="http://www.bohemiancoding.com/sketch/ns">
    <!-- Generator: Sketch 3.2.2 (9983) - http://www.bohemiancoding.com/sketch -->
    <title>canoe-access-black-12</title>
    <desc>Created with Sketch.</desc>
    <defs></defs>
    <g id="Page-1" stroke="none" stroke-width="1" fill="none" fill-rule="evenodd" sketch:type="MSPage">
        <path d="M12.0164,10.1672176 L11.3105176,10.522314 L10.6046353,10.522314 L9.19287059,9.81212121 L8.48698824,9.81212121 L7.07522353,10.522314 L6.36934118,10.522314 L4.95757647,9.81212121 L4.25169412,9.81212121 L2.83992941,10.522314 L2.13404706,10.522314 L2.13404706,11.2325069 L2.83992941,11.2325069 L4.25169412,10.522314 L4.95757647,10.522314 L6.36934118,11.2325069 L7.07522353,11.2325069 L8.48698824,10.522314 L9.19287059,10.522314 L10.6046353,11.2325069 L11.3105176,11.2325069 L12.0164,10.8774105 L12.0164,10.522314 L12.0164,10.1672176" id="Fill-141" fill-opacity="0.1" fill="#0A0B09" sketch:type="MSShapeGroup"></path>
        <path d="M4.95491765,2 L6.36668235,2 L6.36668235,3.42038567 L4.95491765,3.42038567 L4.95491765,2 Z" id="Fill-142" fill-opacity="0.1" fill="#0A0B09" sketch:type="MSShapeGroup"></path>
        <path d="M2.76235294,8.97134986 L4.17411765,8.26115702 L4.88,8.26115702 L6.29176471,8.97134986 L6.99764706,8.97134986 L8.40941176,8.26115702 L9.11529412,8.26115702 L10.5270588,8.97134986 L11.2047059,8.97134986 L11.8823529,7.55096419 L10.4705882,6.13057851 L9.76470588,5.77548209 L9.76470588,6.84077135 L4.82352941,6.84077135 L4.82352941,6.13057851 L6.94117647,6.13057851 L8.35294118,5.42038567 L8.35294118,4 L7.29411765,4.35509642 L6.94117647,5.06528926 L5.88235294,5.06528926 L4.82352941,4 L4.11764706,4 L2,6.84077135 L2,8.97134986 L2.76235294,8.97134986" id="Fill-143" fill-opacity="0.1" fill="#0A0B09" sketch:type="MSShapeGroup"></path>
        <path d="M11.0164,9.16721763 L10.3105176,9.52231405 L9.60463529,9.52231405 L8.19287059,8.81212121 L7.48698824,8.81212121 L6.07522353,9.52231405 L5.36934118,9.52231405 L3.95757647,8.81212121 L3.25169412,8.81212121 L1.83992941,9.52231405 L1.13404706,9.52231405 L1.13404706,10.2325069 L1.83992941,10.2325069 L3.25169412,9.52231405 L3.95757647,9.52231405 L5.36934118,10.2325069 L6.07522353,10.2325069 L7.48698824,9.52231405 L8.19287059,9.52231405 L9.60463529,10.2325069 L10.3105176,10.2325069 L11.0164,9.87741047 L11.0164,9.52231405 L11.0164,9.16721763" id="Fill-141" opacity="0.2" fill="#0A0B09" sketch:type="MSShapeGroup"></path>
        <path d="M3.95491765,1 L5.36668235,1 L5.36668235,2.42038567 L3.95491765,2.42038567 L3.95491765,1 Z" id="Fill-142" opacity="0.2" fill="#0A0B09" sketch:type="MSShapeGroup"></path>
        <path d="M1.76235294,7.97134986 L3.17411765,7.26115702 L3.88,7.26115702 L5.29176471,7.97134986 L5.99764706,7.97134986 L7.40941176,7.26115702 L8.11529412,7.26115702 L9.52705882,7.97134986 L10.2047059,7.97134986 L10.8823529,6.55096419 L9.47058824,5.13057851 L8.76470588,4.77548209 L8.76470588,5.84077135 L3.82352941,5.84077135 L3.82352941,5.13057851 L5.94117647,5.13057851 L7.35294118,4.42038567 L7.35294118,3 L6.29411765,3.35509642 L5.94117647,4.06528926 L4.88235294,4.06528926 L3.82352941,3 L3.11764706,3 L1,5.84077135 L1,7.97134986 L1.76235294,7.97134986" id="Fill-143" opacity="0.2" fill="#0A0B09" sketch:type="MSShapeGroup"></path>
        <path d="M10.0164,8.16721763 L9.31051765,8.52231405 L8.60463529,8.52231405 L7.19287059,7.81212121 L6.48698824,7.81212121 L5.07522353,8.52231405 L4.36934118,8.52231405 L2.95757647,7.81212121 L2.25169412,7.81212121 L0.839929412,8.52231405 L0.134047059,8.52231405 L0.134047059,9.23250689 L0.839929412,9.23250689 L2.25169412,8.52231405 L2.95757647,8.52231405 L4.36934118,9.23250689 L5.07522353,9.23250689 L6.48698824,8.52231405 L7.19287059,8.52231405 L8.60463529,9.23250689 L9.31051765,9.23250689 L10.0164,8.87741047 L10.0164,8.52231405 L10.0164,8.16721763" id="Fill-141" fill="#0A0B09" sketch:type="MSShapeGroup"></path>
        <path d="M2.95491765,0 L4.36668235,0 L4.36668235,1.42038567 L2.95491765,1.42038567 L2.95491765,0 Z" id="Fill-142" fill="#0A0B09" sketch:type="MSShapeGroup"></path>
        <path d="M0.762352941,6.97134986 L2.17411765,6.26115702 L2.88,6.26115702 L4.29176471,6.97134986 L4.99764706,6.97134986 L6.40941176,6.26115702 L7.11529412,6.26115702 L8.52705882,6.97134986 L9.20470588,6.97134986 L9.88235294,5.55096419 L8.47058824,4.13057851 L7.76470588,3.77548209 L7.76470588,4.84077135 L2.82352941,4.84077135 L2.82352941,4.13057851 L4.94117647,4.13057851 L6.35294118,3.42038567 L6.35294118,2 L5.29411765,2.35509642 L4.94117647,3.06528926 L3.88235294,3.06528926 L2.82352941,2 L2.11764706,2 L0,4.84077135 L0,6.97134986 L0.762352941,6.97134986" id="Fill-143" fill="#0A0B09" sketch:type="MSShapeGroup"></path>
    </g>
</svg>