<?xml version="1.0" encoding="utf-8"?>
<!-- Generator: Adobe Illustrator 18.1.1, SVG Export Plug-In . SVG Version: 6.00 Build 0)  -->
<svg version="1.1" xmlns="http://www.w3.org/2000/svg" xmlns:xlink="http://www.w3.org/1999/xlink" x="0px" y="0px"
	 viewBox="0 0 12 12" enable-background="new 0 0 12 12" xml:space="preserve">
<g id="shadows">
	<g opacity="0.2">
		<path d="M11.5,9.2l-0.6,0.3h-0.6L8.9,8.9H8.3L7,9.5H6.4L5.1,8.9H4.4L3.1,9.5H2.5v0.6h0.6l1.3-0.6h0.6l1.3,0.6H7l1.3-0.6h0.6
			l1.3,0.6h0.6l0.6-0.3c0-0.1,0-0.2,0-0.3S11.5,9.3,11.5,9.2z"/>
		<rect x="5.1" y="1.8" width="1.3" height="1.3"/>
		<polygon points="3.2,8.3 4.5,7.6 5.1,7.6 6.4,8.3 7.1,8.3 8.3,7.6 9,7.6 10.3,8.3 10.9,8.3 11.5,7 10.2,5.7 9.6,5.4 9.6,6.3 
			5.1,6.3 5.1,5.7 7,5.7 8.3,5 8.3,3.7 7.3,4.1 7,4.7 6,4.7 5.1,3.7 4.4,3.7 2.5,6.3 2.5,8.3 		"/>
	</g>
</g>
<g id="icons">
	<g>
		<path fill="#FFFFFF" d="M11,8.7L10.4,9H9.7L8.4,8.4H7.8L6.5,9H5.9L4.6,8.4H3.9L2.6,9H2v0.6h0.6L3.9,9h0.6l1.3,0.6h0.6L7.8,9h0.6
			l1.3,0.6h0.6L11,9.4c0-0.1,0-0.2,0-0.3S11,8.8,11,8.7z"/>
		<rect x="4.6" y="1.3" fill="#FFFFFF" width="1.3" height="1.3"/>
		<polygon fill="#FFFFFF" points="2.7,7.8 4,7.1 4.6,7.1 5.9,7.8 6.6,7.8 7.8,7.1 8.5,7.1 9.8,7.8 10.4,7.8 11,6.5 9.7,5.2 9.1,4.9 
			9.1,5.8 4.6,5.8 4.6,5.2 6.5,5.2 7.8,4.5 7.8,3.2 6.8,3.6 6.5,4.2 5.5,4.2 4.6,3.2 3.9,3.2 2,5.8 2,7.8 		"/>
	</g>
</g>
<g id="guides">
</g>
</svg>
