<?xml version="1.0" encoding="utf-8"?>
<!-- Generator: Adobe Illustrator 18.0.0, SVG Export Plug-In . SVG Version: 6.00 Build 0)  -->
<!DOCTYPE svg PUBLIC "-//W3C//DTD SVG 1.1//EN" "http://www.w3.org/Graphics/SVG/1.1/DTD/svg11.dtd" [
	<!ENTITY ns_flows "http://ns.adobe.com/Flows/1.0/">
	<!ENTITY ns_extend "http://ns.adobe.com/Extensibility/1.0/">
	<!ENTITY ns_ai "http://ns.adobe.com/AdobeIllustrator/10.0/">
	<!ENTITY ns_graphs "http://ns.adobe.com/Graphs/1.0/">
	<!ENTITY st0 "opacity:0.5;">
	<!ENTITY st1 "fill:#010101;">
	<!ENTITY st2 "opacity:0.75;">
	<!ENTITY st3 "fill:#FFFFFF;">
]>
<svg version="1.1" id="Layer_1" xmlns:x="&ns_extend;" xmlns:i="&ns_ai;" xmlns:graph="&ns_graphs;"
	 xmlns="http://www.w3.org/2000/svg" xmlns:xlink="http://www.w3.org/1999/xlink" xmlns:a="http://ns.adobe.com/AdobeSVGViewerExtensions/3.0/"
	 x="0px" y="0px" width="24px" height="23px" viewBox="0 0 24 23" style="enable-background:new 0 0 24 23;" xml:space="preserve">
<g style="&st0;">
	<path style="&st1;" d="M5,18l2,1h1l2-1h1l2,1h1l2-1h1l2,1h1l2-1h0.2c0.1-0.1,0.1-0.2,0.2-0.1c0.6-0.7,1-1.5,1-2.5
		c0-2.1-1.7-3.7-3.7-3.7l-0.4,0c-0.5,1.9-2.3,1.9-2.3,1.9l-8.5,0l-0.7-0.4l1.7-2.9l1.9,1.1c1.1,0.7,1.7-0.3,1.7-0.3L15,8.1
		C15.8,6.7,14,5.7,13.2,7l-1.3,2.1L8.8,7.4C6.6,6.2,5.7,8.2,5.7,8.2l-2.5,4.2c-0.4,0.9,0,1.2,0,1.2l-1.2,0V19l2-1H5z"/>
	<polygon style="&st1;" points="23,20 22,20 20,21 19,21 17,20 16,20 14,21 13,21 11,20 10,20 8,21 7,21 5,20 4,20 2,21 2,23 4,22 
		5,22 7,23 8,23 10,22 11,22 13,23 14,23 16,22 17,22 19,23 20,23 22,22 23,22 24,22.5 24,20.5 	"/>
	<circle style="&st1;" cx="10" cy="4" r="2"/>
</g>
<g style="&st2;">
	<path style="&st1;" d="M4,17l2,1h1l2-1h1l2,1h1l2-1h1l2,1h1l2-1h0.2c0.1-0.1,0.1-0.2,0.2-0.1c0.6-0.7,1-1.5,1-2.5
		c0-2.1-1.7-3.7-3.7-3.7l-0.4,0c-0.5,1.9-2.3,1.9-2.3,1.9l-8.5,0l-0.7-0.4l1.7-2.9l1.9,1.1c1.1,0.7,1.7-0.3,1.7-0.3L14,7.1
		C14.8,5.7,13,4.7,12.2,6l-1.3,2.1L7.8,6.4C5.6,5.2,4.7,7.2,4.7,7.2l-2.5,4.2c-0.4,0.9,0,1.2,0,1.2l-1.2,0V18l2-1H4z"/>
	<polygon style="&st1;" points="22,19 21,19 19,20 18,20 16,19 15,19 13,20 12,20 10,19 9,19 7,20 6,20 4,19 3,19 1,20 1,22 3,21 
		4,21 6,22 7,22 9,21 10,21 12,22 13,22 15,21 16,21 18,22 19,22 21,21 22,21 23,21.5 23,19.5 	"/>
	<circle style="&st1;" cx="9" cy="3" r="2"/>
</g>
<g>
	<path style="&st3;" d="M3,16l2,1h1l2-1h1l2,1h1l2-1h1l2,1h1l2-1h0.2c0.1-0.1,0.1-0.2,0.2-0.1c0.6-0.7,1-1.5,1-2.5
		c0-2.1-1.7-3.7-3.7-3.7l-0.4,0c-0.5,1.9-2.3,1.9-2.3,1.9l-8.5,0l-0.7-0.4l1.7-2.9l1.9,1.1c1.1,0.7,1.7-0.3,1.7-0.3L13,6.1
		C13.8,4.7,12,3.7,11.2,5L9.9,7.1L6.8,5.4C4.6,4.2,3.7,6.2,3.7,6.2l-2.5,4.2c-0.4,0.9,0,1.2,0,1.2l-1.2,0V17l2-1H3z"/>
	<polygon style="&st3;" points="21,18 20,18 18,19 17,19 15,18 14,18 12,19 11,19 9,18 8,18 6,19 5,19 3,18 2,18 0,19 0,21 2,20 
		3,20 5,21 6,21 8,20 9,20 11,21 12,21 14,20 15,20 17,21 18,21 20,20 21,20 22,20.5 22,18.5 	"/>
	<circle style="&st3;" cx="8" cy="2" r="2"/>
</g>
</svg>
