<?xml version="1.0" encoding="UTF-8" standalone="no"?>
<svg width="18px" height="18px" viewBox="0 0 18 18" version="1.1" xmlns="http://www.w3.org/2000/svg" xmlns:xlink="http://www.w3.org/1999/xlink" xmlns:sketch="http://www.bohemiancoding.com/sketch/ns">
    <!-- Generator: Sketch 3.2.2 (9983) - http://www.bohemiancoding.com/sketch -->
    <title>canoe-access-black-18</title>
    <desc>Created with Sketch.</desc>
    <defs></defs>
    <g id="Page-1" stroke="none" stroke-width="1" fill="none" fill-rule="evenodd" sketch:type="MSPage">
        <path d="M4.22222222,13.6794349 L5.7037037,14.4093996 L6.44444444,14.4093996 L7.92592593,13.6794349 L8.66666667,13.6794349 L10.1481481,14.4093996 L10.8888889,14.4093996 L12.3703704,13.6794349 L13.1111111,13.6794349 L14.5925926,14.4093996 L15.3333333,14.4093996 L16.8148148,13.6794349 L17,13.6794349 C17.0518519,13.5998688 17.1037037,13.5589908 17.1555556,13.5786998 C17.6,13.0954632 17.8814815,12.4516343 17.8814815,11.7479484 C17.8814815,10.246411 16.6444444,9.0317498 15.1259259,9.0317498 L14.8148148,9.06532817 C14.4740741,10.4186827 13.1037037,10.4770799 13.1037037,10.4770799 L6.81481481,10.47489 L6.28888889,10.1704947 L7.55555556,8.0747661 L8.94814815,8.86385792 C9.77777778,9.39454224 10.2074074,8.6514382 10.2074074,8.6514382 L11.6,6.4170163 C12.2074074,5.44616327 10.9185185,4.66802092 10.3259259,5.64325374 L9.34814815,7.21121788 L7.03703704,5.94910894 C5.42962963,5.0673116 4.74814815,6.52797093 4.74814815,6.52797093 L2.93333333,9.59747243 C2.62222222,10.2347316 2.8962963,10.5099283 2.8962963,10.5099283 L2,10.5077384 L2,14.4093996 L3.48148148,13.6794349 L4.22222222,13.6794349" id="Fill-138" opacity="0.1" fill="#0A0B09" sketch:type="MSShapeGroup"></path>
        <path d="M17.5555556,15.1393643 L16.8148148,15.1393643 L15.3333333,15.869329 L14.5925926,15.869329 L13.1111111,15.1393643 L12.3703704,15.1393643 L10.8888889,15.869329 L10.1481481,15.869329 L8.66666667,15.1393643 L7.92592593,15.1393643 L6.44444444,15.869329 L5.7037037,15.869329 L4.22222222,15.1393643 L3.48148148,15.1393643 L2,15.869329 L2,17.3292584 L3.48148148,16.5992937 L4.22222222,16.5992937 L5.7037037,17.3292584 L6.44444444,17.3292584 L7.92592593,16.5992937 L8.66666667,16.5992937 L10.1481481,17.3292584 L10.8888889,17.3292584 L12.3703704,16.5992937 L13.1111111,16.5992937 L14.5925926,17.3292584 L15.3333333,17.3292584 L16.8148148,16.5992937 L17.5555556,16.5992937 L18.2962963,16.964276 L18.2962963,15.5043466 L17.5555556,15.1393643" id="Fill-139" opacity="0.1" fill="#0A0B09" sketch:type="MSShapeGroup"></path>
        <path d="M9.40740741,3.45992937 C9.40740741,4.26581038 8.74074074,4.91985873 7.92592593,4.91985873 C7.11111111,4.91985873 6.44444444,4.26581038 6.44444444,3.45992937 C6.44444444,2.65331839 7.11111111,2 7.92592593,2 C8.74074074,2 9.40740741,2.65331839 9.40740741,3.45992937" id="Fill-140" opacity="0.1" fill="#0A0B09" sketch:type="MSShapeGroup"></path>
        <path d="M3.22222222,12.6794349 L4.7037037,13.4093996 L5.44444444,13.4093996 L6.92592593,12.6794349 L7.66666667,12.6794349 L9.14814815,13.4093996 L9.88888889,13.4093996 L11.3703704,12.6794349 L12.1111111,12.6794349 L13.5925926,13.4093996 L14.3333333,13.4093996 L15.8148148,12.6794349 L16,12.6794349 C16.0518519,12.5998688 16.1037037,12.5589908 16.1555556,12.5786998 C16.6,12.0954632 16.8814815,11.4516343 16.8814815,10.7479484 C16.8814815,9.24641103 15.6444444,8.0317498 14.1259259,8.0317498 L13.8148148,8.06532817 C13.4740741,9.41868269 12.1037037,9.47707987 12.1037037,9.47707987 L5.81481481,9.47488998 L5.28888889,9.1704947 L6.55555556,7.0747661 L7.94814815,7.86385792 C8.77777778,8.39454224 9.20740741,7.6514382 9.20740741,7.6514382 L10.6,5.4170163 C11.2074074,4.44616327 9.91851852,3.66802092 9.32592593,4.64325374 L8.34814815,6.21121788 L6.03703704,4.94910894 C4.42962963,4.0673116 3.74814815,5.52797093 3.74814815,5.52797093 L1.93333333,8.59747243 C1.62222222,9.23473159 1.8962963,9.50992828 1.8962963,9.50992828 L1,9.50773839 L1,13.4093996 L2.48148148,12.6794349 L3.22222222,12.6794349" id="Fill-138" opacity="0.2" fill="#0A0B09" sketch:type="MSShapeGroup"></path>
        <path d="M16.5555556,14.1393643 L15.8148148,14.1393643 L14.3333333,14.869329 L13.5925926,14.869329 L12.1111111,14.1393643 L11.3703704,14.1393643 L9.88888889,14.869329 L9.14814815,14.869329 L7.66666667,14.1393643 L6.92592593,14.1393643 L5.44444444,14.869329 L4.7037037,14.869329 L3.22222222,14.1393643 L2.48148148,14.1393643 L1,14.869329 L1,16.3292584 L2.48148148,15.5992937 L3.22222222,15.5992937 L4.7037037,16.3292584 L5.44444444,16.3292584 L6.92592593,15.5992937 L7.66666667,15.5992937 L9.14814815,16.3292584 L9.88888889,16.3292584 L11.3703704,15.5992937 L12.1111111,15.5992937 L13.5925926,16.3292584 L14.3333333,16.3292584 L15.8148148,15.5992937 L16.5555556,15.5992937 L17.2962963,15.964276 L17.2962963,14.5043466 L16.5555556,14.1393643" id="Fill-139" opacity="0.2" fill="#0A0B09" sketch:type="MSShapeGroup"></path>
        <path d="M8.40740741,2.45992937 C8.40740741,3.26581038 7.74074074,3.91985873 6.92592593,3.91985873 C6.11111111,3.91985873 5.44444444,3.26581038 5.44444444,2.45992937 C5.44444444,1.65331839 6.11111111,1 6.92592593,1 C7.74074074,1 8.40740741,1.65331839 8.40740741,2.45992937" id="Fill-140" opacity="0.2" fill="#0A0B09" sketch:type="MSShapeGroup"></path>
        <path d="M2.22222222,11.6794349 L3.7037037,12.4093996 L4.44444444,12.4093996 L5.92592593,11.6794349 L6.66666667,11.6794349 L8.14814815,12.4093996 L8.88888889,12.4093996 L10.3703704,11.6794349 L11.1111111,11.6794349 L12.5925926,12.4093996 L13.3333333,12.4093996 L14.8148148,11.6794349 L15,11.6794349 C15.0518519,11.5998688 15.1037037,11.5589908 15.1555556,11.5786998 C15.6,11.0954632 15.8814815,10.4516343 15.8814815,9.74794838 C15.8814815,8.24641103 14.6444444,7.0317498 13.1259259,7.0317498 L12.8148148,7.06532817 C12.4740741,8.41868269 11.1037037,8.47707987 11.1037037,8.47707987 L4.81481481,8.47488998 L4.28888889,8.1704947 L5.55555556,6.0747661 L6.94814815,6.86385792 C7.77777778,7.39454224 8.20740741,6.6514382 8.20740741,6.6514382 L9.6,4.4170163 C10.2074074,3.44616327 8.91851852,2.66802092 8.32592593,3.64325374 L7.34814815,5.21121788 L5.03703704,3.94910894 C3.42962963,3.0673116 2.74814815,4.52797093 2.74814815,4.52797093 L0.933333333,7.59747243 C0.622222222,8.23473159 0.896296296,8.50992828 0.896296296,8.50992828 L0,8.50773839 L0,12.4093996 L1.48148148,11.6794349 L2.22222222,11.6794349" id="Fill-138" fill="#0A0B09" sketch:type="MSShapeGroup"></path>
        <path d="M15.5555556,13.1393643 L14.8148148,13.1393643 L13.3333333,13.869329 L12.5925926,13.869329 L11.1111111,13.1393643 L10.3703704,13.1393643 L8.88888889,13.869329 L8.14814815,13.869329 L6.66666667,13.1393643 L5.92592593,13.1393643 L4.44444444,13.869329 L3.7037037,13.869329 L2.22222222,13.1393643 L1.48148148,13.1393643 L0,13.869329 L0,15.3292584 L1.48148148,14.5992937 L2.22222222,14.5992937 L3.7037037,15.3292584 L4.44444444,15.3292584 L5.92592593,14.5992937 L6.66666667,14.5992937 L8.14814815,15.3292584 L8.88888889,15.3292584 L10.3703704,14.5992937 L11.1111111,14.5992937 L12.5925926,15.3292584 L13.3333333,15.3292584 L14.8148148,14.5992937 L15.5555556,14.5992937 L16.2962963,14.964276 L16.2962963,13.5043466 L15.5555556,13.1393643" id="Fill-139" fill="#0A0B09" sketch:type="MSShapeGroup"></path>
        <path d="M7.40740741,1.45992937 C7.40740741,2.26581038 6.74074074,2.91985873 5.92592593,2.91985873 C5.11111111,2.91985873 4.44444444,2.26581038 4.44444444,1.45992937 C4.44444444,0.653318392 5.11111111,0 5.92592593,0 C6.74074074,0 7.40740741,0.653318392 7.40740741,1.45992937" id="Fill-140" fill="#0A0B09" sketch:type="MSShapeGroup"></path>
    </g>
</svg>