<?xml version="1.0" encoding="utf-8"?>
<!-- Generator: Adobe Illustrator 18.1.1, SVG Export Plug-In . SVG Version: 6.00 Build 0)  -->
<svg version="1.1" xmlns="http://www.w3.org/2000/svg" xmlns:xlink="http://www.w3.org/1999/xlink" x="0px" y="0px"
	 viewBox="0 0 18 18" enable-background="new 0 0 18 18" xml:space="preserve">
<g id="shadows">
	<g opacity="0.2">
		<path d="M16.7,13.9l-0.9,0.5h-0.9L13,13.4h-0.9l-1.9,0.9H9.3l-1.9-0.9H6.5l-1.9,0.9H3.8v0.9h0.9l1.9-0.9h0.9l1.9,0.9h0.9l1.9-0.9
			H13l1.9,0.9h0.9l0.9-0.5c0-0.2,0-0.3,0-0.5C16.7,14.2,16.7,14,16.7,13.9z"/>
		<rect x="7.5" y="3.2" width="1.9" height="1.9"/>
		<polygon points="4.8,12.5 6.6,11.6 7.5,11.6 9.4,12.5 10.3,12.5 12.2,11.6 13.1,11.6 15,12.5 15.9,12.5 16.7,10.6 14.9,8.8 
			14,8.3 14,9.7 7.5,9.7 7.5,8.8 10.2,8.8 12.1,7.9 12.1,6 10.7,6.5 10.2,7.4 8.9,7.4 7.5,6 6.5,6 3.8,9.7 3.8,12.5 		"/>
	</g>
</g>
<g id="icons">
	<g>
		<path d="M16,13.1l-0.9,0.5h-0.9l-1.9-0.9h-0.9l-1.9,0.9H8.6l-1.9-0.9H5.8l-1.9,0.9H3v0.9h0.9l1.9-0.9h0.9l1.9,0.9h0.9l1.9-0.9h0.9
			l1.9,0.9h0.9l0.9-0.5c0-0.2,0-0.3,0-0.5C16,13.4,16,13.3,16,13.1z"/>
		<rect x="6.7" y="2.5" width="1.9" height="1.9"/>
		<polygon points="4,11.8 5.9,10.8 6.8,10.8 8.6,11.8 9.6,11.8 11.4,10.8 12.4,10.8 14.2,11.8 15.1,11.8 16,9.9 14.1,8 13.2,7.6 
			13.2,9 6.7,9 6.7,8 9.5,8 11.4,7.1 11.4,5.2 10,5.7 9.5,6.6 8.1,6.6 6.7,5.2 5.8,5.2 3,9 3,11.8 		"/>
	</g>
</g>
<g id="guides">
</g>
</svg>
