<?xml version="1.0" encoding="utf-8"?>
<!-- Generator: Adobe Illustrator 18.1.1, SVG Export Plug-In . SVG Version: 6.00 Build 0)  -->
<svg version="1.1" xmlns="http://www.w3.org/2000/svg" xmlns:xlink="http://www.w3.org/1999/xlink" x="0px" y="0px"
	 viewBox="0 0 12 12" enable-background="new 0 0 12 12" xml:space="preserve">
<g id="shadows">
	<g opacity="0.2">
		<path d="M10.5,9.2L9.9,9.5H9.2L7.9,8.9H7.3L6,9.5H5.4L4.1,8.9H3.4L2.1,9.5H1.5v0.6h0.6l1.3-0.6h0.6l1.3,0.6H6l1.3-0.6h0.6l1.3,0.6
			h0.6l0.6-0.3c0-0.1,0-0.2,0-0.3S10.5,9.3,10.5,9.2z"/>
		<rect x="4.1" y="1.8" width="1.3" height="1.3"/>
		<polygon points="2.2,8.3 3.5,7.6 4.1,7.6 5.4,8.3 6.1,8.3 7.3,7.6 8,7.6 9.3,8.3 9.9,8.3 10.5,7 9.2,5.7 8.6,5.4 8.6,6.3 4.1,6.3 
			4.1,5.7 6,5.7 7.3,5 7.3,3.7 6.3,4.1 6,4.7 5,4.7 4.1,3.7 3.4,3.7 1.5,6.3 1.5,8.3 		"/>
	</g>
</g>
<g id="icons">
	<g>
		<path fill="#FFFFFF" d="M10,8.7L9.4,9H8.7L7.4,8.4H6.8L5.5,9H4.9L3.6,8.4H2.9L1.6,9H1v0.6h0.6L2.9,9h0.6l1.3,0.6h0.6L6.8,9h0.6
			l1.3,0.6h0.6L10,9.4c0-0.1,0-0.2,0-0.3S10,8.8,10,8.7z"/>
		<rect x="3.6" y="1.3" fill="#FFFFFF" width="1.3" height="1.3"/>
		<polygon fill="#FFFFFF" points="1.7,7.8 3,7.1 3.6,7.1 4.9,7.8 5.6,7.8 6.8,7.1 7.5,7.1 8.8,7.8 9.4,7.8 10,6.5 8.7,5.2 8.1,4.9 
			8.1,5.8 3.6,5.8 3.6,5.2 5.5,5.2 6.8,4.5 6.8,3.2 5.8,3.6 5.5,4.2 4.5,4.2 3.6,3.2 2.9,3.2 1,5.8 1,7.8 		"/>
	</g>
</g>
<g id="guides">
</g>
</svg>
