<?xml version="1.0" encoding="utf-8"?>
<!-- Generator: Adobe Illustrator 18.1.1, SVG Export Plug-In . SVG Version: 6.00 Build 0)  -->
<svg version="1.1" xmlns="http://www.w3.org/2000/svg" xmlns:xlink="http://www.w3.org/1999/xlink" x="0px" y="0px"
	 viewBox="0 0 24 24" enable-background="new 0 0 24 24" xml:space="preserve">
<g id="shadows">
	<g opacity="0.2">
		<path d="M7.3,16.8l1.5,0.8h0.8l1.5-0.8H12l1.5,0.8h0.8l1.5-0.8h0.8l1.5,0.8h0.8l1.5-0.8h0.2c0.1-0.1,0.1-0.1,0.2-0.1
			c0.5-0.5,0.8-1.2,0.8-1.9c0-1.6-1.3-2.9-2.9-2.9l-0.3,0c-0.4,1.4-1.8,1.5-1.8,1.5l-6.6,0L9.5,13l1.3-2.2l1.4,0.8
			c0.9,0.6,1.3-0.2,1.3-0.2L15,9.1c0.6-1-0.7-1.9-1.3-0.8l-1,1.7l-2.4-1.3C8.6,7.6,7.9,9.2,7.9,9.2L6,12.4c-0.3,0.7,0,1,0,1l-0.9,0
			v4.1l1.5-0.8H7.3z"/>
		<polygon points="21.2,18.3 20.5,18.3 18.9,19.1 18.1,19.1 16.6,18.3 15.8,18.3 14.3,19.1 13.5,19.1 12,18.3 11.2,18.3 9.6,19.1 
			8.9,19.1 7.3,18.3 6.5,18.3 5,19.1 5,20.6 6.5,19.8 7.3,19.8 8.9,20.6 9.6,20.6 11.2,19.8 12,19.8 13.5,20.6 14.3,20.6 15.8,19.8 
			16.6,19.8 18.1,20.6 18.9,20.6 20.5,19.8 21.2,19.8 22,20.2 22,18.7 		"/>
		<circle cx="11.2" cy="5.9" r="1.5"/>
	</g>
</g>
<g id="icons">
	<g>
		<path fill="#FFFFFF" d="M6.3,15.8l1.5,0.8h0.8l1.5-0.8H11l1.5,0.8h0.8l1.5-0.8h0.8l1.5,0.8h0.8l1.5-0.8h0.2
			c0.1-0.1,0.1-0.1,0.2-0.1c0.5-0.5,0.8-1.2,0.8-1.9c0-1.6-1.3-2.9-2.9-2.9l-0.3,0c-0.4,1.4-1.8,1.5-1.8,1.5l-6.6,0L8.5,12l1.3-2.2
			l1.4,0.8c0.9,0.6,1.3-0.2,1.3-0.2L14,8.1c0.6-1-0.7-1.9-1.3-0.8l-1,1.7L9.3,7.6C7.6,6.6,6.9,8.2,6.9,8.2L5,11.4c-0.3,0.7,0,1,0,1
			l-0.9,0v4.1l1.5-0.8H6.3z"/>
		<polygon fill="#FFFFFF" points="20.2,17.3 19.5,17.3 17.9,18.1 17.1,18.1 15.6,17.3 14.8,17.3 13.3,18.1 12.5,18.1 11,17.3 
			10.2,17.3 8.6,18.1 7.9,18.1 6.3,17.3 5.5,17.3 4,18.1 4,19.6 5.5,18.8 6.3,18.8 7.9,19.6 8.6,19.6 10.2,18.8 11,18.8 12.5,19.6 
			13.3,19.6 14.8,18.8 15.6,18.8 17.1,19.6 17.9,19.6 19.5,18.8 20.2,18.8 21,19.2 21,17.7 		"/>
		<circle fill="#FFFFFF" cx="10.2" cy="4.9" r="1.5"/>
	</g>
</g>
<g id="guides">
</g>
</svg>
