<?xml version="1.0" encoding="utf-8"?>
<!-- Generator: Adobe Illustrator 15.1.0, SVG Export Plug-In . SVG Version: 6.00 Build 0)  -->
<!DOCTYPE svg PUBLIC "-//W3C//DTD SVG 1.1//EN" "http://www.w3.org/Graphics/SVG/1.1/DTD/svg11.dtd">
<svg version="1.1"
	 id="svg4619" xmlns:dc="http://purl.org/dc/elements/1.1/" xmlns:cc="http://creativecommons.org/ns#" xmlns:inkscape="http://www.inkscape.org/namespaces/inkscape" inkscape:version="0.48.2 r9819" xmlns:sodipodi="http://sodipodi.sourceforge.net/DTD/sodipodi-0.dtd" xmlns:svg="http://www.w3.org/2000/svg" xmlns:rdf="http://www.w3.org/1999/02/22-rdf-syntax-ns#" sodipodi:docname="maki-18-base.svg"
	 xmlns="http://www.w3.org/2000/svg" xmlns:xlink="http://www.w3.org/1999/xlink" x="0px" y="0px" width="18px" height="18px"
	 viewBox="-402.5 403.5 18 18" enable-background="new -402.5 403.5 18 18" xml:space="preserve">
<sodipodi:namedview  inkscape:window-maximized="0" pagecolor="#ffffff" inkscape:window-y="40" inkscape:window-x="76" inkscape:cy="11.948034" inkscape:window-height="662" showgrid="true" inkscape:window-width="1008" inkscape:guide-bbox="true" showguides="true" inkscape:current-layer="layer1" id="base" inkscape:pageopacity="0.0" borderopacity="1.0" inkscape:cx="5.9619453" inkscape:pageshadow="2" inkscape:zoom="16" inkscape:document-units="px" bordercolor="#666666">
	<inkscape:grid  type="xygrid" id="grid4627" enabled="true" empspacing="5" visible="true" snapvisiblegridlinesonly="true">
		</inkscape:grid>
	<sodipodi:guide  id="guide4659" position="7,18" orientation="0,1"></sodipodi:guide>
	<sodipodi:guide  id="guide4661" position="18,9" orientation="1,0"></sodipodi:guide>
	<sodipodi:guide  id="guide4663" position="16,17" orientation="0,1"></sodipodi:guide>
	<sodipodi:guide  id="guide4665" position="17,14" orientation="1,0"></sodipodi:guide>
	<sodipodi:guide  id="guide4667" position="0,16" orientation="1,0"></sodipodi:guide>
	<sodipodi:guide  id="guide4669" position="8,0" orientation="0,1"></sodipodi:guide>
	<sodipodi:guide  id="guide4671" position="2,10" orientation="1,0"></sodipodi:guide>
	<sodipodi:guide  id="guide4673" position="12,2" orientation="0,1"></sodipodi:guide>
</sodipodi:namedview>
<g id="layer1" transform="translate(0,-1034.3622)" inkscape:groupmode="layer" inkscape:label="Layer 1">
</g>
<g id="car2">
	<path opacity="0.3" fill="#FFFFFF" stroke="#FFFFFF" stroke-width="2" stroke-miterlimit="10" enable-background="new    " d="
		M-387.5,411.5h-1v-3l-2-2h-6l-2,2v3h-1c-0.552,0-1,0.447-1,1v3.999l2,0.001v2h2v-2h6v2h2v-2l2-0.001V412.5
		C-386.5,411.947-386.948,411.5-387.5,411.5z"/>
	<path fill="#464545" d="M-387.5,411.5h-1v-3l-2-2h-6l-2,2v3h-1c-0.552,0-1,0.447-1,1v3.999l2,0.001v2h2v-2h6v2h2v-2l2-0.001V412.5
		C-386.5,411.947-386.948,411.5-387.5,411.5z M-399,414c0-0.553,0.448-1,1-1s1,0.447,1,1s-0.448,1-1,1S-399,414.553-399,414z
		 M-396.5,409.5l1-1h4l1,1v2h-6V409.5z M-389,415c-0.552,0-1-0.447-1-1s0.448-1,1-1s1,0.447,1,1S-388.448,415-389,415z"/>
</g>
</svg>
