<?xml version="1.0" encoding="UTF-8" standalone="no"?>
<!-- Generator: Adobe Illustrator 15.1.0, SVG Export Plug-In . SVG Version: 6.00 Build 0)  -->

<svg
   xmlns:dc="http://purl.org/dc/elements/1.1/"
   xmlns:cc="http://creativecommons.org/ns#"
   xmlns:rdf="http://www.w3.org/1999/02/22-rdf-syntax-ns#"
   xmlns:svg="http://www.w3.org/2000/svg"
   xmlns="http://www.w3.org/2000/svg"
   xmlns:sodipodi="http://sodipodi.sourceforge.net/DTD/sodipodi-0.dtd"
   xmlns:inkscape="http://www.inkscape.org/namespaces/inkscape"
   version="1.1"
   id="svg4764"
   sodipodi:docname="car-12.svg"
   inkscape:version="0.48.2 r9819"
   x="0px"
   y="0px"
   width="12px"
   height="12px"
   viewBox="-402.5 403.5 12 12"
   enable-background="new -402.5 403.5 12 12"
   xml:space="preserve"><metadata
   id="metadata27"><rdf:RDF><cc:Work
       rdf:about=""><dc:format>image/svg+xml</dc:format><dc:type
         rdf:resource="http://purl.org/dc/dcmitype/StillImage" /><dc:title></dc:title></cc:Work></rdf:RDF></metadata><defs
   id="defs25" />
<sodipodi:namedview
   id="base"
   inkscape:pageopacity="0.0"
   borderopacity="1.0"
   inkscape:cx="9.4830799"
   inkscape:pageshadow="2"
   inkscape:zoom="45.254834"
   inkscape:document-units="px"
   inkscape:current-layer="layer1"
   inkscape:guide-bbox="true"
   showguides="false"
   inkscape:window-width="1321"
   showgrid="false"
   inkscape:window-height="841"
   inkscape:window-x="461"
   inkscape:cy="9.6140801"
   inkscape:window-y="26"
   inkscape:window-maximized="0"
   pagecolor="#ffffff"
   bordercolor="#666666"
   inkscape:object-paths="true"
   inkscape:object-nodes="true">
	<inkscape:grid
   type="xygrid"
   id="grid4772"
   enabled="true"
   empspacing="2"
   visible="true"
   snapvisiblegridlinesonly="true"
   spacingx="0.5px"
   spacingy="0.5px">
		</inkscape:grid>
	<sodipodi:guide
   id="guide4789"
   position="2,12"
   orientation="0,1" />
	<sodipodi:guide
   id="guide4791"
   position="12,10"
   orientation="1,0" />
	<sodipodi:guide
   id="guide4793"
   position="10,0"
   orientation="0,1" />
	<sodipodi:guide
   id="guide4795"
   position="0,9"
   orientation="1,0" />
	<sodipodi:guide
   id="guide4797"
   position="5,11"
   orientation="0,1" />
	<sodipodi:guide
   id="guide4799"
   position="11,7"
   orientation="1,0" />
	<sodipodi:guide
   id="guide4801"
   position="9,2"
   orientation="0,1" />
	<sodipodi:guide
   id="guide4803"
   position="2,5"
   orientation="1,0" />
</sodipodi:namedview>
<g
   id="layer1"
   transform="translate(0,-1040.3622)"
   inkscape:groupmode="layer"
   inkscape:label="Layer 1">
<path
   sodipodi:nodetypes="ccccccccccccccccccccccssssssssss"
   inkscape:connector-curvature="0"
   id="path5457"
   d="m -398.5,1445.8622 -1,3 -1,1 0,3 1,0 0,1 1,0 0,-1 5,0 0,1 1,0 0,-1 1,0 0,-3 -1,-1 -1,-3 z m 1,1 3,0 0.66667,2 -4.33334,0 z m -1.5,4 c 0.27614,0 0.5,0.2239 0.5,0.5 0,0.2761 -0.22386,0.5 -0.5,0.5 -0.27614,0 -0.5,-0.2239 -0.5,-0.5 0,-0.2761 0.22386,-0.5 0.5,-0.5 z m 6,0 c 0.27614,0 0.5,0.2239 0.5,0.5 0,0.2761 -0.22386,0.5 -0.5,0.5 -0.27614,0 -0.5,-0.2239 -0.5,-0.5 0,-0.2761 0.22386,-0.5 0.5,-0.5 z"
   style="color:#000000;fill:#ffffff;fill-opacity:1;fill-rule:nonzero;stroke:#ffffff;stroke-width:2;marker:none;visibility:visible;display:inline;overflow:visible;enable-background:accumulate;opacity:0.29999999999999999;stroke-linecap:round;stroke-linejoin:round;stroke-miterlimit:4;stroke-opacity:1;stroke-dasharray:none;stroke-dashoffset:0" /><g
   id="laundry-2"
   transform="matrix(0.5,0,0,0.5,-201.25,1242.6122)"><g
     id="g3289" /></g><path
   style="color:#000000;fill:#444444;fill-opacity:1;fill-rule:nonzero;stroke:none;stroke-width:2;marker:none;visibility:visible;display:inline;overflow:visible;enable-background:accumulate"
   d="m -398.5,1445.8622 -1,3 -1,1 0,3 1,0 0,1 1,0 0,-1 5,0 0,1 1,0 0,-1 1,0 0,-3 -1,-1 -1,-3 z m 1,1 3,0 0.66667,2 -4.33334,0 z m -1.5,4 c 0.27614,0 0.5,0.2239 0.5,0.5 0,0.2761 -0.22386,0.5 -0.5,0.5 -0.27614,0 -0.5,-0.2239 -0.5,-0.5 0,-0.2761 0.22386,-0.5 0.5,-0.5 z m 6,0 c 0.27614,0 0.5,0.2239 0.5,0.5 0,0.2761 -0.22386,0.5 -0.5,0.5 -0.27614,0 -0.5,-0.2239 -0.5,-0.5 0,-0.2761 0.22386,-0.5 0.5,-0.5 z"
   id="path8522-6-8"
   inkscape:connector-curvature="0"
   sodipodi:nodetypes="ccccccccccccccccccccccssssssssss" /></g>

</svg>