<?xml version="1.0" encoding="utf-8"?>
<!-- Generator: Adobe Illustrator 15.1.0, SVG Export Plug-In . SVG Version: 6.00 Build 0)  -->
<!DOCTYPE svg PUBLIC "-//W3C//DTD SVG 1.1//EN" "http://www.w3.org/Graphics/SVG/1.1/DTD/svg11.dtd">
<svg version="1.1"
	 id="svg4460" xmlns:dc="http://purl.org/dc/elements/1.1/" xmlns:cc="http://creativecommons.org/ns#" xmlns:inkscape="http://www.inkscape.org/namespaces/inkscape" inkscape:version="0.48.2 r9819" xmlns:sodipodi="http://sodipodi.sourceforge.net/DTD/sodipodi-0.dtd" xmlns:svg="http://www.w3.org/2000/svg" xmlns:rdf="http://www.w3.org/1999/02/22-rdf-syntax-ns#" sodipodi:docname="marker-stroked-24.svg"
	 xmlns="http://www.w3.org/2000/svg" xmlns:xlink="http://www.w3.org/1999/xlink" x="0px" y="0px" width="24px" height="24px"
	 viewBox="-402.5 403.5 24 24" enable-background="new -402.5 403.5 24 24" xml:space="preserve">
<sodipodi:namedview  inkscape:window-maximized="0" pagecolor="#ffffff" inkscape:window-y="20" inkscape:window-x="56" inkscape:cy="6.9146856" inkscape:window-height="833" showgrid="true" inkscape:window-width="1220" inkscape:guide-bbox="true" showguides="true" inkscape:current-layer="layer1" id="base" inkscape:pageopacity="0.0" borderopacity="1.0" inkscape:cx="15.622727" inkscape:pageshadow="2" inkscape:zoom="11.313708" inkscape:document-units="px" bordercolor="#666666">
	<inkscape:grid  type="xygrid" id="grid4468" enabled="true" empspacing="5" visible="true" snapvisiblegridlinesonly="true">
		</inkscape:grid>
	<sodipodi:guide  id="guide4470" position="0,20" orientation="1,0"></sodipodi:guide>
	<sodipodi:guide  id="guide4472" position="4,24" orientation="0,1"></sodipodi:guide>
	<sodipodi:guide  id="guide4474" position="24,13" orientation="1,0"></sodipodi:guide>
	<sodipodi:guide  id="guide4476" position="15,0" orientation="0,1"></sodipodi:guide>
	<sodipodi:guide  id="guide4478" position="23,20" orientation="1,0"></sodipodi:guide>
	<sodipodi:guide  id="guide4480" position="20,23" orientation="0,1"></sodipodi:guide>
	<sodipodi:guide  id="guide4482" position="2,5" orientation="1,0"></sodipodi:guide>
	<sodipodi:guide  id="guide4484" position="7,2" orientation="0,1"></sodipodi:guide>
	<sodipodi:guide  id="guide4486" position="13,16" orientation="1,0"></sodipodi:guide>
	<sodipodi:guide  id="guide4490" position="16,13" orientation="0,1"></sodipodi:guide>
</sodipodi:namedview>
<g id="layer1" transform="translate(0,-1028.3622)" inkscape:groupmode="layer" inkscape:label="Layer 1">
</g>
<g id="car2">
	<path opacity="0.3" fill="#FFFFFF" stroke="#FFFFFF" stroke-width="2" stroke-linejoin="round" enable-background="new    " d="
		M-382.5,414.5h-1v-4l-2-2h-9l-2,2v4h-1c-0.552,0-1,0.447-1,1v6h2v2h2v-2h9v2h2v-2h2v-6.002
		C-381.501,414.946-381.948,414.5-382.5,414.5z"/>
	<path fill="#464545" d="M-382.5,414.5h-1v-4l-2-2h-9l-2,2v4h-1c-0.552,0-1,0.447-1,1v6h2v2h2v-2h9v2h2v-2h2v-6.002
		C-381.501,414.946-381.948,414.5-382.5,414.5z M-393.5,410.5h7l1,1v3h-9v-3L-393.5,410.5z M-395,419.25
		c-0.689,0-1.25-0.559-1.25-1.25s0.561-1.25,1.25-1.25s1.25,0.559,1.25,1.25S-394.311,419.25-395,419.25z M-385,419.25
		c-0.689,0-1.25-0.559-1.25-1.25s0.561-1.25,1.25-1.25s1.25,0.559,1.25,1.25S-384.311,419.25-385,419.25z"/>
</g>
</svg>
