<?xml version="1.0" encoding="UTF-8" standalone="no"?>
<!-- Created with Inkscape (http://www.inkscape.org/) -->

<svg
   xmlns:dc="http://purl.org/dc/elements/1.1/"
   xmlns:cc="http://creativecommons.org/ns#"
   xmlns:rdf="http://www.w3.org/1999/02/22-rdf-syntax-ns#"
   xmlns:svg="http://www.w3.org/2000/svg"
   xmlns="http://www.w3.org/2000/svg"
   xmlns:inkscape="http://www.inkscape.org/namespaces/inkscape"
   version="1.1"
   width="24"
   height="24"
   id="svg4460">
  <defs
     id="defs4462" />
  <metadata
     id="metadata4465">
    <rdf:RDF>
      <cc:Work
         rdf:about="">
        <dc:format>image/svg+xml</dc:format>
        <dc:type
           rdf:resource="http://purl.org/dc/dcmitype/StillImage" />
        <dc:title />
      </cc:Work>
    </rdf:RDF>
  </metadata>
  <g
     transform="translate(0,-1028.3622)"
     id="layer1">
    <path
       d="M 9.28125,3 C 8.5690024,3 8,3.4461 8,4 8,4.5541 8.5690024,5 9.28125,5 L 10,5 10,9 5,19 5.96875,20 9,20 l 7,0 1.03125,0 1.9375,0 L 20,19 15,9 15,5 15.71875,5 C 16.430998,5 17,4.5541 17,4 17,3.4461 16.430998,3 15.71875,3 L 9.28125,3 z M 12,5 l 1,0 0,4 3,6 -7,0 3,-6 0,-4 z"
       inkscape:connector-curvature="0"
       transform="translate(0,1028.3622)"
       id="path2996"
       style="opacity:0.3;color:#000000;fill:none;stroke:#ffffff;stroke-width:2;stroke-linecap:round;stroke-linejoin:round;stroke-miterlimit:4;stroke-opacity:1;stroke-dasharray:none;stroke-dashoffset:0;marker:none;visibility:visible;display:inline;overflow:visible;enable-background:accumulate" />
    <path
       d="M 9.28125,3 C 8.5690024,3 8,3.4461 8,4 8,4.5541 8.5690024,5 9.28125,5 L 10,5 10,9 5,19 5.96875,20 9,20 l 7,0 1.03125,0 1.9375,0 L 20,19 15,9 15,5 15.71875,5 C 16.430998,5 17,4.5541 17,4 17,3.4461 16.430998,3 15.71875,3 L 9.28125,3 z M 12,5 l 1,0 0,4 3,6 -7,0 3,-6 0,-4 z"
       inkscape:connector-curvature="0"
       transform="translate(0,1028.3622)"
       id="rect3012"
       style="opacity:0.98999999;fill:#454545;fill-opacity:1;fill-rule:evenodd;stroke:#000000;stroke-width:0;stroke-linecap:butt;stroke-linejoin:miter;stroke-miterlimit:4;stroke-opacity:1" />
  </g>
  <rect
     width="24"
     height="24"
     x="0"
     y="0"
     id="canvas"
     style="fill:none;stroke:none;visibility:hidden" />
</svg>
