<?xml version="1.0" encoding="UTF-8" standalone="no"?>
<!-- Created with Inkscape (http://www.inkscape.org/) -->

<svg
   xmlns:dc="http://purl.org/dc/elements/1.1/"
   xmlns:cc="http://creativecommons.org/ns#"
   xmlns:rdf="http://www.w3.org/1999/02/22-rdf-syntax-ns#"
   xmlns:svg="http://www.w3.org/2000/svg"
   xmlns="http://www.w3.org/2000/svg"
   xmlns:inkscape="http://www.inkscape.org/namespaces/inkscape"
   version="1.1"
   width="18"
   height="18"
   id="svg4619">
  <defs
     id="defs4621" />
  <metadata
     id="metadata4624">
    <rdf:RDF>
      <cc:Work
         rdf:about="">
        <dc:format>image/svg+xml</dc:format>
        <dc:type
           rdf:resource="http://purl.org/dc/dcmitype/StillImage" />
        <dc:title />
      </cc:Work>
    </rdf:RDF>
  </metadata>
  <g
     transform="translate(0,-1034.3622)"
     id="layer1">
    <path
       d="m 6,1036.3622 0,1 1,0 0,3 -4,9 3,0 1,0 6,0 1,0 2,0 -4,-9 0,-3 1,0 0,-1 -1,0 -5,0 z m 3,1 1,0 0,3 2,5 -5,0 2,-5 z"
       inkscape:connector-curvature="0"
       id="path2998"
       style="opacity:0.3;color:#000000;fill:none;stroke:#ffffff;stroke-width:2;stroke-linecap:round;stroke-linejoin:round;stroke-miterlimit:4;stroke-opacity:1;stroke-dasharray:none;stroke-dashoffset:0;marker:none;visibility:visible;display:inline;overflow:visible;enable-background:accumulate" />
    <path
       d="m 6,1036.3622 0,1 1,0 0,3 -4,9 3,0 1,0 6,0 1,0 2,0 -4,-9 0,-3 1,0 0,-1 -1,0 -5,0 z m 3,1 1,0 0,3 2,5 -5,0 2,-5 z"
       inkscape:connector-curvature="0"
       id="rect3012-2-8"
       style="opacity:0.98999999;fill:#454545;fill-opacity:1;fill-rule:evenodd;stroke:#000000;stroke-width:0;stroke-linecap:butt;stroke-linejoin:miter;stroke-miterlimit:4;stroke-opacity:1" />
  </g>
  <rect
     width="18"
     height="18"
     x="0"
     y="0"
     id="canvas"
     style="fill:none;stroke:none;visibility:hidden" />
</svg>
