<?xml version="1.0" encoding="UTF-8" standalone="no"?>
<!-- Created with Inkscape (http://www.inkscape.org/) -->

<svg
   xmlns:dc="http://purl.org/dc/elements/1.1/"
   xmlns:cc="http://creativecommons.org/ns#"
   xmlns:rdf="http://www.w3.org/1999/02/22-rdf-syntax-ns#"
   xmlns:svg="http://www.w3.org/2000/svg"
   xmlns="http://www.w3.org/2000/svg"
   xmlns:inkscape="http://www.inkscape.org/namespaces/inkscape"
   version="1.1"
   width="12"
   height="12"
   id="svg4764">
  <defs
     id="defs4766" />
  <metadata
     id="metadata4769">
    <rdf:RDF>
      <cc:Work
         rdf:about="">
        <dc:format>image/svg+xml</dc:format>
        <dc:type
           rdf:resource="http://purl.org/dc/dcmitype/StillImage" />
        <dc:title />
      </cc:Work>
    </rdf:RDF>
  </metadata>
  <g
     transform="translate(0,-1040.3622)"
     id="layer1">
    <path
       d="m 4,1 0,1 1,0 0,2 -3,6 2,0 0.5,0 4.125,0 L 9,10 11,10 8,4 8,2 9,2 9,1 8.28125,1 4.71875,1 4,1 z M 6,2 7,2 7,4 8.5,7 4.5,7 6,4 6,2 z"
       inkscape:connector-curvature="0"
       transform="translate(0,1040.3622)"
       id="path3899"
       style="opacity:0.3;color:#000000;fill:none;stroke:#ffffff;stroke-width:2;stroke-linecap:round;stroke-linejoin:round;stroke-miterlimit:4;stroke-opacity:1;stroke-dasharray:none;stroke-dashoffset:0;marker:none;visibility:visible;display:inline;overflow:visible;enable-background:accumulate" />
    <path
       d="m 4,1 0,1 1,0 0,2 -3,6 2,0 0.5,0 4.125,0 L 9,10 11,10 8,4 8,2 9,2 9,1 8.28125,1 4.71875,1 4,1 z M 6,2 7,2 7,4 8.5,7 4.5,7 6,4 6,2 z"
       inkscape:connector-curvature="0"
       transform="translate(0,1040.3622)"
       id="rect3012-2-8"
       style="opacity:0.98999999;fill:#454545;fill-opacity:1;fill-rule:evenodd;stroke:#000000;stroke-width:0;stroke-linecap:butt;stroke-linejoin:miter;stroke-miterlimit:4;stroke-opacity:1" />
  </g>
  <rect
     width="12"
     height="12"
     x="0"
     y="0"
     id="canvas"
     style="fill:none;stroke:none;visibility:hidden" />
</svg>
