<?xml version="1.0" encoding="UTF-8" standalone="no"?>
<!-- Created with Inkscape (http://www.inkscape.org/) -->

<svg
   xmlns:dc="http://purl.org/dc/elements/1.1/"
   xmlns:cc="http://creativecommons.org/ns#"
   xmlns:rdf="http://www.w3.org/1999/02/22-rdf-syntax-ns#"
   xmlns:svg="http://www.w3.org/2000/svg"
   xmlns="http://www.w3.org/2000/svg"
   xmlns:inkscape="http://www.inkscape.org/namespaces/inkscape"
   version="1.1"
   width="24"
   height="24"
   id="svg4460">
  <defs
     id="defs4462" />
  <metadata
     id="metadata4465">
    <rdf:RDF>
      <cc:Work
         rdf:about="">
        <dc:format>image/svg+xml</dc:format>
        <dc:type
           rdf:resource="http://purl.org/dc/dcmitype/StillImage" />
        <dc:title />
      </cc:Work>
    </rdf:RDF>
  </metadata>
  <g
     transform="translate(0,-1028.3622)"
     id="layer1">
    <g
       transform="translate(-240,-141.99998)"
       id="cinema-24"
       style="display:inline">
      <g
         id="g23190">
        <path
           d="m 258,1173.3622 -2.25,0.6563 1.09375,2.9687 2.15625,-0.625 z m -3.625,1.0313 -2.9375,0.8437 0.0625,0.125 0.5625,1.5313 0.5,1.3125 2.9375,-0.8438 z m -4.28125,1.2187 -2.59375,0.75 1.125,2.9688 2.59375,-0.75 -0.65625,-1.6875 z m -3.9375,1.125 -2.15625,0.625 1,3 2.25,-0.6562 z m -1.15625,3.625 0,9 c 0,0.554 0.44599,1 1,1 l 13,0 c 0.55401,0 1,-0.446 1,-1 l 0,-9 z m 2,2 11,0 0,3 -11,0 z"
           inkscape:connector-curvature="0"
           id="path14717"
           style="opacity:0.3;color:#000000;fill:#ffffff;fill-opacity:1;fill-rule:nonzero;stroke:#ffffff;stroke-width:2;stroke-linecap:round;stroke-linejoin:round;stroke-miterlimit:4;stroke-opacity:1;stroke-dasharray:none;stroke-dashoffset:0;marker:none;visibility:visible;display:inline;overflow:visible;enable-background:accumulate" />
        <path
           d="m 258,1173.3622 -2.25,0.6563 1.09375,2.9687 2.15625,-0.625 z m -3.625,1.0313 -2.9375,0.8437 0.0625,0.125 0.5625,1.5313 0.5,1.3125 2.9375,-0.8438 z m -4.28125,1.2187 -2.59375,0.75 1.125,2.9688 2.59375,-0.75 -0.65625,-1.6875 z m -3.9375,1.125 -2.15625,0.625 1,3 2.25,-0.6562 z m -1.15625,3.625 0,9 c 0,0.554 0.44599,1 1,1 l 13,0 c 0.55401,0 1,-0.446 1,-1 l 0,-9 z m 2,2 11,0 0,3 -11,0 z"
           inkscape:connector-curvature="0"
           id="rect7568-8-4"
           style="color:#000000;fill:#444444;fill-opacity:1;fill-rule:nonzero;stroke:none;stroke-width:2;marker:none;visibility:visible;display:inline;overflow:visible;enable-background:accumulate" />
      </g>
    </g>
  </g>
  <rect
     width="24"
     height="24"
     x="0"
     y="0"
     id="canvas"
     style="fill:none;stroke:none;visibility:hidden" />
</svg>
