<?xml version="1.0" encoding="UTF-8" standalone="no"?>
<svg
   xmlns:dc="http://purl.org/dc/elements/1.1/"
   xmlns:cc="http://creativecommons.org/ns#"
   xmlns:rdf="http://www.w3.org/1999/02/22-rdf-syntax-ns#"
   xmlns:svg="http://www.w3.org/2000/svg"
   xmlns="http://www.w3.org/2000/svg"
   id="svg4460"
   height="24"
   width="24"
   version="1.1">
  <defs
     id="defs4462" />
  <metadata
     id="metadata4465">
    <rdf:RDF>
      <cc:Work
         rdf:about="">
        <dc:format>image/svg+xml</dc:format>
        <dc:type
           rdf:resource="http://purl.org/dc/dcmitype/StillImage" />
        <dc:title></dc:title>
      </cc:Work>
    </rdf:RDF>
  </metadata>
  <g
     id="layer1"
     transform="translate(0,-1028.3622)">
    <g
       style="display:inline"
       id="circle-24"
       transform="translate(72,-46)">
      <g
         id="g11227"
         transform="matrix(-1,0,0,1,-108,70.000002)">
        <path
           style="color:#000000;display:inline;overflow:visible;visibility:visible;opacity:0.3;fill:#ffffff;fill-opacity:1;fill-rule:nonzero;stroke:#ffffff;stroke-width:1.94116688;stroke-miterlimit:4;stroke-dasharray:none;marker:none;enable-background:accumulate"
           id="path8568"
           transform="matrix(1.0303081,0,0,1.0303081,-61.121232,1003.2409)"
           d="m 20.5,12.25 c 0,4.556352 -3.693651,8.249996 -8.25,8.249996 C 7.6936509,20.499996 4,16.806352 4,12.25 4,7.6936477 7.6936509,4.0000036 12.25,4.0000036 c 4.556349,0 8.25,3.6936441 8.25,8.2499964 z" />
        <path
           style="color:#000000;display:inline;overflow:visible;visibility:visible;fill:#444444;fill-opacity:1;fill-rule:nonzero;stroke:none;stroke-width:2;marker:none;enable-background:accumulate"
           id="path8564"
           transform="matrix(1.0303132,0,0,1.0303132,-61.121337,1003.2409)"
           d="m 20.5,12.25 c 0,4.556352 -3.693651,8.249996 -8.25,8.249996 C 7.6936509,20.499996 4,16.806352 4,12.25 4,7.6936477 7.6936509,4.0000036 12.25,4.0000036 c 4.556349,0 8.25,3.6936441 8.25,8.2499964 z" />
      </g>
    </g>
  </g>
  <rect
     style="fill:none;stroke:none;visibility:hidden"
     id="canvas"
     y="0"
     x="0"
     height="24"
     width="24" />
</svg>
