<?xml version="1.0" encoding="UTF-8" standalone="no"?>
<svg
   xmlns:dc="http://purl.org/dc/elements/1.1/"
   xmlns:cc="http://creativecommons.org/ns#"
   xmlns:rdf="http://www.w3.org/1999/02/22-rdf-syntax-ns#"
   xmlns:svg="http://www.w3.org/2000/svg"
   xmlns="http://www.w3.org/2000/svg"
   id="svg4764"
   height="12"
   width="12"
   version="1.1">
  <defs
     id="defs4766" />
  <metadata
     id="metadata4769">
    <rdf:RDF>
      <cc:Work
         rdf:about="">
        <dc:format>image/svg+xml</dc:format>
        <dc:type
           rdf:resource="http://purl.org/dc/dcmitype/StillImage" />
        <dc:title></dc:title>
      </cc:Work>
    </rdf:RDF>
  </metadata>
  <g
     style="stroke:#ffffff;stroke-width:2;stroke-miterlimit:4;stroke-dasharray:none;stroke-linejoin:round;stroke-linecap:round;opacity:0.3"
     transform="translate(0,-1040.3622)"
     id="g4736">
    <g
       transform="translate(30,-34)"
       id="g4738"
       style="display:inline;stroke:#ffffff;stroke-width:2;stroke-miterlimit:4;stroke-dasharray:none;stroke-linejoin:round;stroke-linecap:round">
      <g
         style="stroke:#ffffff;stroke-width:2;stroke-miterlimit:4;stroke-dasharray:none;stroke-linejoin:round;stroke-linecap:round"
         transform="translate(1,0)"
         id="g4740" />
    </g>
  </g>
  <path
     style="color:#000000;display:inline;overflow:visible;visibility:visible;opacity:0.3;fill:#444444;fill-opacity:1;fill-rule:nonzero;stroke:#ffffff;stroke-width:2;stroke-linecap:round;stroke-linejoin:round;stroke-miterlimit:4;stroke-dasharray:none;marker:none;enable-background:accumulate"
     id="path8089"
     d="m 1.9999997,5.5000182 c 0,2.485283 2.0147188,4.4999978 4.5000001,4.4999978 C 8.9852811,10.000016 11,7.9853012 11,5.5000182 11,3.0147351 8.9852811,1.0000202 6.4999998,1.0000202 c -2.4852813,0 -4.5000001,2.0147149 -4.5000001,4.499998 z" />
  <path
     d="m 1.9999997,5.5000182 c 0,2.485283 2.0147188,4.4999978 4.5000001,4.4999978 C 8.9852811,10.000016 11,7.9853012 11,5.5000182 11,3.0147351 8.9852811,1.0000202 6.4999998,1.0000202 c -2.4852813,0 -4.5000001,2.0147149 -4.5000001,4.499998 z"
     id="path8564-0"
     style="color:#000000;display:inline;overflow:visible;visibility:visible;fill:#444444;fill-opacity:1;fill-rule:nonzero;stroke:none;stroke-width:2;marker:none;enable-background:accumulate" />
  <rect
     style="fill:none;stroke:none;visibility:hidden"
     id="canvas"
     y="0"
     x="0"
     height="12"
     width="12" />
</svg>
