<?xml version="1.0" encoding="UTF-8" standalone="no"?>
<svg
   xmlns:dc="http://purl.org/dc/elements/1.1/"
   xmlns:cc="http://creativecommons.org/ns#"
   xmlns:rdf="http://www.w3.org/1999/02/22-rdf-syntax-ns#"
   xmlns:svg="http://www.w3.org/2000/svg"
   xmlns="http://www.w3.org/2000/svg"
   id="svg4619"
   height="18"
   width="18"
   version="1.1">
  <defs
     id="defs4621" />
  <metadata
     id="metadata4624">
    <rdf:RDF>
      <cc:Work
         rdf:about="">
        <dc:format>image/svg+xml</dc:format>
        <dc:type
           rdf:resource="http://purl.org/dc/dcmitype/StillImage" />
        <dc:title></dc:title>
      </cc:Work>
    </rdf:RDF>
  </metadata>
  <g
     id="layer1"
     transform="translate(0,-1034.3622)">
    <g
       style="display:inline"
       id="circle-18"
       transform="translate(48.000002,-39.999983)">
      <g
         id="g21885">
        <path
           style="color:#000000;display:inline;overflow:visible;visibility:visible;opacity:0.3;fill:#ffffff;fill-opacity:1;fill-rule:nonzero;stroke:#ffffff;stroke-width:2.53846145;stroke-linecap:butt;stroke-linejoin:miter;stroke-miterlimit:4;stroke-dasharray:none;stroke-dashoffset:0;stroke-opacity:1;marker:none;enable-background:accumulate"
           id="path17427"
           transform="matrix(-0.78787879,0,0,0.78787879,-28.848485,1073.2107)"
           d="m 20.5,12.25 c 0,4.556352 -3.693651,8.249996 -8.25,8.249996 C 7.6936509,20.499996 4,16.806352 4,12.25 4,7.6936477 7.6936509,4.0000036 12.25,4.0000036 c 4.556349,0 8.25,3.6936441 8.25,8.2499964 z" />
        <path
           style="color:#000000;display:inline;overflow:visible;visibility:visible;fill:#444444;fill-opacity:1;fill-rule:nonzero;stroke:none;stroke-width:2;marker:none;enable-background:accumulate"
           id="path8564-0-4"
           transform="matrix(-0.78787879,0,0,0.78787879,-28.848485,1073.2107)"
           d="m 20.5,12.25 c 0,4.556352 -3.693651,8.249996 -8.25,8.249996 C 7.6936509,20.499996 4,16.806352 4,12.25 4,7.6936477 7.6936509,4.0000036 12.25,4.0000036 c 4.556349,0 8.25,3.6936441 8.25,8.2499964 z" />
      </g>
    </g>
  </g>
  <rect
     style="fill:none;stroke:none;visibility:hidden"
     id="canvas"
     y="0"
     x="0"
     height="18"
     width="18" />
</svg>
