<?xml version="1.0" encoding="UTF-8" standalone="no"?>
<!-- Created with Inkscape (http://www.inkscape.org/) -->

<svg
   xmlns:dc="http://purl.org/dc/elements/1.1/"
   xmlns:cc="http://creativecommons.org/ns#"
   xmlns:rdf="http://www.w3.org/1999/02/22-rdf-syntax-ns#"
   xmlns:svg="http://www.w3.org/2000/svg"
   xmlns="http://www.w3.org/2000/svg"
   xmlns:inkscape="http://www.inkscape.org/namespaces/inkscape"
   version="1.1"
   width="12"
   height="12"
   id="svg4764">
  <defs
     id="defs4766" />
  <metadata
     id="metadata4769">
    <rdf:RDF>
      <cc:Work
         rdf:about="">
        <dc:format>image/svg+xml</dc:format>
        <dc:type
           rdf:resource="http://purl.org/dc/dcmitype/StillImage" />
        <dc:title />
      </cc:Work>
    </rdf:RDF>
  </metadata>
  <g
     transform="translate(0,-1040.3622)"
     id="layer1">
    <g
       transform="translate(-672,-225.99998)"
       id="city-12"
       style="display:inline">
      <path
         d="m 675,1267.3622 0,1 -1,0 0,8 4,0 0,-8 -1,0 0,-1 -2,0 z m 5,1 0,2 -1,0 0,7 4,0 0,-7 -1,0 0,-2 -0.5,0 0,2 -1,0 0,-2 -0.5,0 z m -5,1 2,0 0,0.5 -2,0 0,-0.5 z m 0,2 2,0 0,0.5 -2,0 0,-0.5 z m 5,0 2,0 0,0.5 -2,0 0,-0.5 z m -5,2 2,0 0,0.5 -2,0 0,-0.5 z m 5,0 2,0 0,0.5 -2,0 0,-0.5 z m 0,2 2,0 0,0.5 -2,0 0,-0.5 z"
         inkscape:connector-curvature="0"
         id="path9461"
         style="opacity:0.3;color:#000000;fill:#ffffff;fill-opacity:1;fill-rule:nonzero;stroke:#ffffff;stroke-width:2;stroke-linecap:round;stroke-linejoin:round;stroke-miterlimit:4;stroke-opacity:1;stroke-dasharray:none;stroke-dashoffset:0;marker:none;visibility:visible;display:inline;overflow:visible;enable-background:accumulate" />
      <path
         d="m 675,1267.3622 0,1 -1,0 0,8 4,0 0,-8 -1,0 0,-1 -2,0 z m 5,1 0,2 -1,0 0,7 4,0 0,-7 -1,0 0,-2 -0.5,0 0,2 -1,0 0,-2 -0.5,0 z m -5,1 2,0 0,0.5 -2,0 0,-0.5 z m 0,2 2,0 0,0.5 -2,0 0,-0.5 z m 5,0 2,0 0,0.5 -2,0 0,-0.5 z m -5,2 2,0 0,0.5 -2,0 0,-0.5 z m 5,0 2,0 0,0.5 -2,0 0,-0.5 z m 0,2 2,0 0,0.5 -2,0 0,-0.5 z"
         inkscape:connector-curvature="0"
         id="path9230"
         style="color:#000000;fill:#444444;fill-opacity:1;fill-rule:nonzero;stroke:none;stroke-width:0.46545455;marker:none;visibility:visible;display:inline;overflow:visible;enable-background:accumulate" />
    </g>
  </g>
  <rect
     width="12"
     height="12"
     x="0"
     y="0"
     id="canvas"
     style="fill:none;stroke:none;visibility:hidden" />
</svg>
