<?xml version="1.0" encoding="UTF-8" standalone="no"?>
<!-- Created with Inkscape (http://www.inkscape.org/) -->

<svg
   xmlns:dc="http://purl.org/dc/elements/1.1/"
   xmlns:cc="http://creativecommons.org/ns#"
   xmlns:rdf="http://www.w3.org/1999/02/22-rdf-syntax-ns#"
   xmlns:svg="http://www.w3.org/2000/svg"
   xmlns="http://www.w3.org/2000/svg"
   xmlns:sodipodi="http://sodipodi.sourceforge.net/DTD/sodipodi-0.dtd"
   xmlns:inkscape="http://www.inkscape.org/namespaces/inkscape"
   width="18"
   height="18"
   id="svg4619"
   version="1.1"
   inkscape:version="0.48.2 r9819"
   sodipodi:docname="clothing-store-18.svg">
  <defs
     id="defs4621" />
  <sodipodi:namedview
     id="base"
     pagecolor="#ffffff"
     bordercolor="#666666"
     borderopacity="1.0"
     inkscape:pageopacity="0.0"
     inkscape:pageshadow="2"
     inkscape:zoom="16.000001"
     inkscape:cx="-2.4494606"
     inkscape:cy="8.6100561"
     inkscape:document-units="px"
     inkscape:current-layer="layer1"
     showgrid="true"
     showguides="true"
     inkscape:guide-bbox="true"
     inkscape:window-width="1294"
     inkscape:window-height="751"
     inkscape:window-x="203"
     inkscape:window-y="225"
     inkscape:window-maximized="0">
    <inkscape:grid
       type="xygrid"
       id="grid4627"
       empspacing="2"
       visible="true"
       enabled="true"
       snapvisiblegridlinesonly="true"
       spacingx="0.5px"
       spacingy="0.5px"
       empcolor="#0000ff"
       empopacity="0.23137255" />
    <sodipodi:guide
       orientation="0,1"
       position="7,18"
       id="guide4659" />
    <sodipodi:guide
       orientation="1,0"
       position="18,9"
       id="guide4661" />
    <sodipodi:guide
       orientation="0,1"
       position="16,17"
       id="guide4663" />
    <sodipodi:guide
       orientation="1,0"
       position="17,14"
       id="guide4665" />
    <sodipodi:guide
       orientation="1,0"
       position="0,16"
       id="guide4667" />
    <sodipodi:guide
       orientation="0,1"
       position="8,0"
       id="guide4669" />
    <sodipodi:guide
       orientation="1,0"
       position="2,10"
       id="guide4671" />
    <sodipodi:guide
       orientation="0,1"
       position="12,2"
       id="guide4673" />
  </sodipodi:namedview>
  <metadata
     id="metadata4624">
    <rdf:RDF>
      <cc:Work
         rdf:about="">
        <dc:format>image/svg+xml</dc:format>
        <dc:type
           rdf:resource="http://purl.org/dc/dcmitype/StillImage" />
        <dc:title />
      </cc:Work>
    </rdf:RDF>
  </metadata>
  <g
     inkscape:label="Layer 1"
     inkscape:groupmode="layer"
     id="layer1"
     transform="translate(0,-1034.3622)"
     style="display:inline">
    <path
       sodipodi:type="inkscape:offset"
       inkscape:radius="1.0164659"
       inkscape:original="M 7 2 L 5 3 L 2 7 L 4 9 L 5 8 L 6 8 L 6 15 L 13 15 L 13 8 L 14 8 L 15 9 L 17 7 L 14 3 L 12 2 C 12 2.7730997 11.743986 3.4680836 11.34375 4 C 10.886227 4.6080514 10.236463 5 9.5 5 C 8.7635372 5 8.1137729 4.6080514 7.65625 4 C 7.2560143 3.4680836 7 2.7730997 7 2 z "
       style="fill:#ffffff;fill-opacity:1;stroke:none;opacity:0.3"
       id="path3039"
       d="m 6.96875,0.96875 a 1.0165675,1.0165675 0 0 0 -0.4375,0.125 l -2,1 A 1.0165675,1.0165675 0 0 0 4.1875,2.375 l -3,4 a 1.0165675,1.0165675 0 0 0 0.09375,1.34375 l 2,2 a 1.0165675,1.0165675 0 0 0 1.4375,0 l 0.25,-0.25 0,5.53125 A 1.0165675,1.0165675 0 0 0 6,16.03125 l 7,0 A 1.0165675,1.0165675 0 0 0 14.03125,15 l 0,-5.53125 0.25,0.25 a 1.0165675,1.0165675 0 0 0 1.4375,0 l 2,-2 A 1.0165675,1.0165675 0 0 0 17.8125,6.375 l -3,-4 A 1.0165675,1.0165675 0 0 0 14.46875,2.09375 l -2,-1 A 1.0165675,1.0165675 0 0 0 10.96875,2 c 0,0.5486961 -0.167808,1.016577 -0.4375,1.375 C 10.225542,3.7812876 9.8758181,3.96875 9.5,3.96875 9.1241822,3.96875 8.7744573,3.7812873 8.46875,3.375 8.1990576,3.0165767 8.03125,2.5486959 8.03125,2 A 1.0165675,1.0165675 0 0 0 6.96875,0.96875 z"
       transform="translate(0,1034.3622)" />
    <path
       style="fill:#444444;fill-opacity:1;stroke:none"
       d="M 7 2 L 5 3 L 2 7 L 4 9 L 5 8 L 6 8 L 6 15 L 13 15 L 13 8 L 14 8 L 15 9 L 17 7 L 14 3 L 12 2 C 12 2.7730997 11.743986 3.4680836 11.34375 4 C 10.886227 4.6080514 10.236463 5 9.5 5 C 8.7635372 5 8.1137729 4.6080514 7.65625 4 C 7.2560143 3.4680836 7 2.7730997 7 2 z "
       transform="translate(0,1034.3622)"
       id="rect3340-6" />
    <path
       sodipodi:type="arc"
       style="fill:#ffffff;fill-opacity:1;stroke:none"
       id="path3076"
       sodipodi:cx="13"
       sodipodi:cy="-4"
       sodipodi:rx="3"
       sodipodi:ry="3"
       d="m 16,-4 c 0,1.6568542 -1.343146,3 -3,3 -1.656854,0 -3,-1.3431458 -3,-3 0,-1.6568542 1.343146,-3 3,-3 1.656854,0 3,1.3431458 3,3 z"
       transform="matrix(0.83333335,0,0,-0.97822941,-1.3333335,1056.4493)" />
  </g>
</svg>
