<?xml version="1.0" encoding="UTF-8" standalone="no"?>
<!-- Created with Inkscape (http://www.inkscape.org/) -->

<svg
   xmlns:dc="http://purl.org/dc/elements/1.1/"
   xmlns:cc="http://creativecommons.org/ns#"
   xmlns:rdf="http://www.w3.org/1999/02/22-rdf-syntax-ns#"
   xmlns:svg="http://www.w3.org/2000/svg"
   xmlns="http://www.w3.org/2000/svg"
   xmlns:inkscape="http://www.inkscape.org/namespaces/inkscape"
   version="1.1"
   width="12"
   height="12"
   id="svg4764">
  <defs
     id="defs4766" />
  <metadata
     id="metadata4769">
    <rdf:RDF>
      <cc:Work
         rdf:about="">
        <dc:format>image/svg+xml</dc:format>
        <dc:type
           rdf:resource="http://purl.org/dc/dcmitype/StillImage" />
        <dc:title />
      </cc:Work>
    </rdf:RDF>
  </metadata>
  <g
     transform="translate(0,-1040.3622)"
     id="layer1"
     style="display:inline">
    <g
       id="g3075">
      <path
         d="M 4,1 3,2 2,4 2,5 4,5 4,10 9,10 9,5 11,5 11,4 10,2 9,1 8,1 8,1.75 C 8,2.25 7.5,3 6.5,3 5.5,3 5,2.25 5,1.75 L 5,1 z"
         inkscape:connector-curvature="0"
         transform="translate(0,1040.3622)"
         id="path4668"
         style="opacity:0.3;fill:#444444;fill-opacity:1;stroke:#ffffff;stroke-width:2;stroke-linecap:round;stroke-linejoin:round;stroke-miterlimit:4;stroke-dasharray:none" />
      <path
         d="M 4,1 3,2 2,4 2,5 4,5 4,10 9,10 9,5 11,5 11,4 10,2 9,1 8,1 8,1.75 C 8,2.25 7.5,3 6.5,3 5.5,3 5,2.25 5,1.75 L 5,1 z"
         inkscape:connector-curvature="0"
         transform="translate(0,1040.3622)"
         id="rect3131"
         style="fill:#444444;fill-opacity:1;stroke:none" />
    </g>
  </g>
  <rect
     width="12"
     height="12"
     x="0"
     y="0"
     id="canvas"
     style="fill:none;stroke:none;visibility:hidden" />
</svg>
