<?xml version="1.0" encoding="UTF-8" standalone="no"?>
<!-- Created with Inkscape (http://www.inkscape.org/) -->

<svg
   xmlns:dc="http://purl.org/dc/elements/1.1/"
   xmlns:cc="http://creativecommons.org/ns#"
   xmlns:rdf="http://www.w3.org/1999/02/22-rdf-syntax-ns#"
   xmlns:svg="http://www.w3.org/2000/svg"
   xmlns="http://www.w3.org/2000/svg"
   xmlns:inkscape="http://www.inkscape.org/namespaces/inkscape"
   version="1.1"
   width="24"
   height="24"
   id="svg4460">
  <defs
     id="defs4462" />
  <metadata
     id="metadata4465">
    <rdf:RDF>
      <cc:Work
         rdf:about="">
        <dc:format>image/svg+xml</dc:format>
        <dc:type
           rdf:resource="http://purl.org/dc/dcmitype/StillImage" />
        <dc:title />
      </cc:Work>
    </rdf:RDF>
  </metadata>
  <g
     transform="translate(0,-1028.3622)"
     id="layer1"
     style="display:inline">
    <path
       d="m 9.4375,1032.3622 c -0.1237016,-0.01 -0.2720875,0.019 -0.4375,0.094 -1.017646,0.4434 -2,0.9062 -2,0.9062 0,0 -2.822436,2.6037 -3.8750001,3.6563 -0.183054,0.1831 -0.192273,0.4738 0,0.7187 L 5.625,1040.2062 c 0.1748,0.2043 0.544297,0.2398 0.75,0.031 l 0.625,-0.875 1,0 0,8 4.5,0 4.5,0 0,-8 1,0 0.625,0.875 c 0.205703,0.2086 0.5752,0.1733 0.75,-0.031 l 2.5,-2.4688 c 0.192273,-0.2449 0.183054,-0.5356 0,-0.7187 -1.052564,-1.0526 -3.875,-3.6563 -3.875,-3.6563 0,0 -0.982354,-0.4628 -2,-0.9062 -0.66165,-0.298 -0.98639,0.1773 -1,0.4375 0.01766,1.0396 -1.090611,2.4973 -2.5,2.4687 -1.409389,0.029 -2.51766,-1.4291 -2.5,-2.4687 -0.010207,-0.1952 -0.1913953,-0.5111 -0.5625,-0.5313 z"
       inkscape:connector-curvature="0"
       id="path4670"
       style="opacity:0.3;fill:#444444;fill-opacity:1;stroke:#ffffff;stroke-width:2;stroke-linecap:round;stroke-linejoin:round;stroke-miterlimit:4;stroke-dasharray:none;marker-start:none;display:inline" />
    <path
       d="m 9.4375,1032.3622 c -0.1237016,-0.01 -0.2720875,0.019 -0.4375,0.094 -1.017646,0.4434 -2,0.9062 -2,0.9062 0,0 -2.822436,2.6037 -3.8750001,3.6563 -0.183054,0.1831 -0.192273,0.4738 0,0.7187 L 5.625,1040.2062 c 0.1748,0.2043 0.544297,0.2398 0.75,0.031 l 0.625,-0.875 1,0 0,8 4.5,0 4.5,0 0,-8 1,0 0.625,0.875 c 0.205703,0.2086 0.5752,0.1733 0.75,-0.031 l 2.5,-2.4688 c 0.192273,-0.2449 0.183054,-0.5356 0,-0.7187 -1.052564,-1.0526 -3.875,-3.6563 -3.875,-3.6563 0,0 -0.982354,-0.4628 -2,-0.9062 -0.66165,-0.298 -0.98639,0.1773 -1,0.4375 0.01766,1.0396 -1.090611,2.4973 -2.5,2.4687 -1.409389,0.029 -2.51766,-1.4291 -2.5,-2.4687 -0.010207,-0.1952 -0.1913953,-0.5111 -0.5625,-0.5313 z"
       inkscape:connector-curvature="0"
       id="path4103"
       style="fill:#444444;fill-opacity:1;stroke:none;stroke-width:0.2;marker-start:none;display:inline" />
  </g>
  <rect
     width="24"
     height="24"
     x="0"
     y="0"
     id="canvas"
     style="fill:none;stroke:none;visibility:hidden" />
</svg>
