<?xml version="1.0" encoding="UTF-8" standalone="no"?>
<!-- Created with Inkscape (http://www.inkscape.org/) -->

<svg
   xmlns:dc="http://purl.org/dc/elements/1.1/"
   xmlns:cc="http://creativecommons.org/ns#"
   xmlns:rdf="http://www.w3.org/1999/02/22-rdf-syntax-ns#"
   xmlns:svg="http://www.w3.org/2000/svg"
   xmlns="http://www.w3.org/2000/svg"
   xmlns:sodipodi="http://sodipodi.sourceforge.net/DTD/sodipodi-0.dtd"
   xmlns:inkscape="http://www.inkscape.org/namespaces/inkscape"
   width="24"
   height="24"
   id="svg4460"
   version="1.1"
   inkscape:version="0.48.2 r9819"
   sodipodi:docname="clothing-store-24.svg">
  <defs
     id="defs4462">
    <inkscape:path-effect
       effect="spiro"
       id="path-effect4093"
       is_visible="true" />
    <inkscape:path-effect
       effect="bend_path"
       id="path-effect4091"
       is_visible="true"
       bendpath="M 3,11.5 22,11"
       prop_scale="1"
       scale_y_rel="false"
       vertical="false"
       bendpath-nodetypes="cc" />
    <inkscape:path-effect
       effect="bend_path"
       id="path-effect3897"
       is_visible="true"
       bendpath="m 3,11.5 19,0"
       prop_scale="1.01"
       scale_y_rel="false"
       vertical="false" />
  </defs>
  <sodipodi:namedview
     id="base"
     pagecolor="#ffffff"
     bordercolor="#666666"
     borderopacity="1.0"
     inkscape:pageopacity="0.0"
     inkscape:pageshadow="2"
     inkscape:zoom="22.627415"
     inkscape:cx="4.6143862"
     inkscape:cy="11.902041"
     inkscape:document-units="px"
     inkscape:current-layer="layer1"
     showgrid="true"
     showguides="false"
     inkscape:guide-bbox="true"
     inkscape:window-width="1565"
     inkscape:window-height="832"
     inkscape:window-x="-124"
     inkscape:window-y="134"
     inkscape:window-maximized="0"
     inkscape:snap-nodes="true"
     inkscape:snap-bbox="true"
     inkscape:snap-grids="false">
    <inkscape:grid
       type="xygrid"
       id="grid4468"
       empspacing="2"
       visible="true"
       enabled="true"
       snapvisiblegridlinesonly="true"
       spacingx="0.5px"
       spacingy="0.5px"
       dotted="false" />
    <sodipodi:guide
       orientation="1,0"
       position="0,20"
       id="guide4470" />
    <sodipodi:guide
       orientation="0,1"
       position="4,24"
       id="guide4472" />
    <sodipodi:guide
       orientation="1,0"
       position="24,13"
       id="guide4474" />
    <sodipodi:guide
       orientation="0,1"
       position="15,0"
       id="guide4476" />
    <sodipodi:guide
       orientation="1,0"
       position="23,9"
       id="guide4478" />
    <sodipodi:guide
       orientation="0,1"
       position="20,23"
       id="guide4480" />
    <sodipodi:guide
       orientation="1,0"
       position="2.0312502,15.312501"
       id="guide4482" />
    <sodipodi:guide
       orientation="0,1"
       position="7,2"
       id="guide4484" />
    <sodipodi:guide
       orientation="1,0"
       position="13,16"
       id="guide4486" />
    <sodipodi:guide
       orientation="0,1"
       position="16,13"
       id="guide4490" />
  </sodipodi:namedview>
  <metadata
     id="metadata4465">
    <rdf:RDF>
      <cc:Work
         rdf:about="">
        <dc:format>image/svg+xml</dc:format>
        <dc:type
           rdf:resource="http://purl.org/dc/dcmitype/StillImage" />
        <dc:title />
      </cc:Work>
    </rdf:RDF>
  </metadata>
  <g
     inkscape:label="Layer 1"
     inkscape:groupmode="layer"
     id="layer1"
     transform="translate(0,-1028.3622)"
     style="display:inline">
    <g
       id="g3131">
      <path
         d="m 9.6875,1032.0312 c -0.2225286,-0.028 -0.3639522,0.01 -0.46875,0.031 a 0.53130318,0.53130318 0 0 0 -0.03125,0.031 l -2.34375,0.7812 A 0.53130318,0.53130318 0 0 0 6.625,1033 l -2,2 -1.625,1.625 a 0.53130318,0.53130318 0 0 0 -0.0625,0.062 c -0.149724,0.199 -0.2592976,0.4459 -0.25,0.7187 0.0093,0.2729 0.1543108,0.4633 0.28125,0.625 A 0.53130318,0.53130318 0 0 0 3,1038.0938 l 2.21875,2.25 c 0.00975,0.011 0.021079,0.02 0.03125,0.031 0.3809847,0.4084 1.0489862,0.4577 1.46875,0.031 l 0.5,-0.5 0.25,0 0,7.4688 A 0.53130318,0.53130318 0 0 0 8,1047.9062 l 4.5,0 4.5,0 a 0.53130318,0.53130318 0 0 0 0.53125,-0.5312 l 0,-7.4688 0.25,0 0.5,0.5 c 0.419965,0.4259 1.087593,0.3768 1.46875,-0.031 0.01018,-0.011 0.0215,-0.02 0.03125,-0.031 L 22,1038.0938 a 0.53130318,0.53130318 0 0 0 0.03125,-0.063 c 0.126989,-0.1617 0.271967,-0.3521 0.28125,-0.625 0.0093,-0.2728 -0.100288,-0.5197 -0.25,-0.7187 A 0.53130318,0.53130318 0 0 0 22,1036.625 l -1.625,-1.625 -2,-2 a 0.53130318,0.53130318 0 0 0 -0.21875,-0.125 l -2.34375,-0.7812 a 0.53130318,0.53130318 0 0 0 -0.03125,0 c -0.309387,-0.083 -0.611638,-0.066 -0.875,0.094 -0.2507,0.1515 -0.418494,0.4345 -0.46875,0.7187 -0.001,0.01 -0.03033,-0.01 -0.03125,0 -0.0018,0.01 0.0019,0.021 0,0.031 -0.214237,1.1338 -1.015421,1.9063 -1.90625,1.9063 -0.890829,0 -1.692013,-0.7725 -1.90625,-1.9063 -0.0012,-0.01 0.0015,-0.022 0,-0.031 -0.07008,-0.4322 -0.452322,-0.8176 -0.90625,-0.875 z"
         id="path3930"
         style="fill:#ffffff;fill-opacity:1;stroke:none;stroke-width:0.20000000000000001;marker-start:none;opacity:0.3"
         inkscape:original="M 9.625 1032.5625 C 9.544503 1032.5525 9.44121 1032.5727 9.34375 1032.5938 L 7 1033.375 L 5 1035.375 L 3.375 1037 C 3.1559421 1037.2912 3.1868395 1037.479 3.375 1037.7188 L 5.625 1040 C 5.7998006 1040.2048 6.1380464 1040.2402 6.34375 1040.0312 L 7 1039.375 L 8 1039.375 L 8 1047.375 L 12.5 1047.375 L 17 1047.375 L 17 1039.375 L 18 1039.375 L 18.65625 1040.0312 C 18.861953 1040.2398 19.2002 1040.2045 19.375 1040 L 21.625 1037.7188 C 21.813211 1037.479 21.844058 1037.2912 21.625 1037 L 20 1035.375 L 18 1033.375 L 15.65625 1032.5938 C 15.266409 1032.4894 14.9782 1032.6918 14.9375 1033 C 14.695897 1034.3537 13.700252 1035.375 12.5 1035.375 C 11.299748 1035.375 10.304103 1034.3537 10.0625 1033 C 10.03197 1032.7689 9.866491 1032.593 9.625 1032.5625 z "
         inkscape:radius="0.53125006"
         sodipodi:type="inkscape:offset" />
      <path
         inkscape:connector-curvature="0"
         id="path4103"
         d="m 9.625,1032.5497 c -0.080497,-0.01 -0.18379,0.01 -0.28125,0.031 L 7,1033.3622 l -2,2 -1.625,1.625 c -0.2190579,0.2912 -0.1881605,0.4791 0,0.7188 l 2.25,2.2812 c 0.1748006,0.2048 0.5130464,0.2399 0.71875,0.031 L 7,1039.3622 l 1,0 0,8 4.5,0 4.5,0 0,-8 1,0 0.65625,0.6563 c 0.205703,0.2086 0.54395,0.1735 0.71875,-0.031 l 2.25,-2.2812 c 0.188211,-0.2397 0.219058,-0.4276 0,-0.7188 l -1.625,-1.625 -2,-2 -2.34375,-0.7812 c -0.389841,-0.1044 -0.67805,0.098 -0.71875,0.4062 -0.241603,1.3537 -1.237248,2.375 -2.4375,2.375 -1.200252,0 -2.195897,-1.0213 -2.4375,-2.375 -0.03053,-0.2311 -0.196009,-0.407 -0.4375,-0.4375 z"
         style="fill:#444444;fill-opacity:1;stroke:none;stroke-width:0.2;marker-start:none" />
    </g>
  </g>
</svg>
