<?xml version="1.0" encoding="UTF-8" standalone="no"?>
<!-- Created with Inkscape (http://www.inkscape.org/) -->

<svg
   xmlns:dc="http://purl.org/dc/elements/1.1/"
   xmlns:cc="http://creativecommons.org/ns#"
   xmlns:rdf="http://www.w3.org/1999/02/22-rdf-syntax-ns#"
   xmlns:svg="http://www.w3.org/2000/svg"
   xmlns="http://www.w3.org/2000/svg"
   xmlns:sodipodi="http://sodipodi.sourceforge.net/DTD/sodipodi-0.dtd"
   xmlns:inkscape="http://www.inkscape.org/namespaces/inkscape"
   width="24"
   height="24"
   id="svg4460"
   version="1.1"
   inkscape:version="0.48.2 r9819"
   sodipodi:docname="clothing-store-24.svg">
  <defs
     id="defs4462" />
  <sodipodi:namedview
     id="base"
     pagecolor="#ffffff"
     bordercolor="#666666"
     borderopacity="1.0"
     inkscape:pageopacity="0.0"
     inkscape:pageshadow="2"
     inkscape:zoom="13.00375"
     inkscape:cx="9.0977503"
     inkscape:cy="19.467598"
     inkscape:document-units="px"
     inkscape:current-layer="layer1"
     showgrid="false"
     showguides="false"
     inkscape:guide-bbox="true"
     inkscape:window-width="1220"
     inkscape:window-height="833"
     inkscape:window-x="299"
     inkscape:window-y="9"
     inkscape:window-maximized="0">
    <inkscape:grid
       type="xygrid"
       id="grid4468"
       empspacing="5"
       visible="true"
       enabled="true"
       snapvisiblegridlinesonly="true" />
    <sodipodi:guide
       orientation="1,0"
       position="0,20"
       id="guide4470" />
    <sodipodi:guide
       orientation="0,1"
       position="4,24"
       id="guide4472" />
    <sodipodi:guide
       orientation="1,0"
       position="24,13"
       id="guide4474" />
    <sodipodi:guide
       orientation="0,1"
       position="15,0"
       id="guide4476" />
    <sodipodi:guide
       orientation="1,0"
       position="23,9"
       id="guide4478" />
    <sodipodi:guide
       orientation="0,1"
       position="20,23"
       id="guide4480" />
    <sodipodi:guide
       orientation="1,0"
       position="2,5"
       id="guide4482" />
    <sodipodi:guide
       orientation="0,1"
       position="7,2"
       id="guide4484" />
    <sodipodi:guide
       orientation="1,0"
       position="13,16"
       id="guide4486" />
    <sodipodi:guide
       orientation="0,1"
       position="16,13"
       id="guide4490" />
  </sodipodi:namedview>
  <metadata
     id="metadata4465">
    <rdf:RDF>
      <cc:Work
         rdf:about="">
        <dc:format>image/svg+xml</dc:format>
        <dc:type
           rdf:resource="http://purl.org/dc/dcmitype/StillImage" />
        <dc:title />
      </cc:Work>
    </rdf:RDF>
  </metadata>
  <g
     inkscape:label="Layer 1"
     inkscape:groupmode="layer"
     id="layer1"
     transform="translate(0,-1028.3622)">
    <rect
       style="fill:#ffe1d8;fill-opacity:1;fill-rule:evenodd;stroke:none;stroke-opacity:1"
       id="rect3012"
       width="19"
       height="19"
       x="3"
       y="1030.3622" />
    <rect
       style="fill:#444444;fill-opacity:1;stroke:none"
       id="rect3782"
       width="11"
       height="9.0000734"
       x="7"
       y="1039.3622" />
    <rect
       y="1032.1122"
       x="-27"
       height="19"
       width="19"
       id="rect3792"
       style="fill:#ffe1d8;fill-opacity:1;fill-rule:evenodd;stroke:none" />
    <rect
       y="1035.1122"
       x="-23"
       height="14.000036"
       width="11"
       id="rect3794"
       style="fill:#444444;fill-opacity:1;stroke:none" />
    <path
       sodipodi:nodetypes="ccccc"
       inkscape:connector-curvature="0"
       id="path3796"
       d="m -22.666667,1034.1122 -4.333333,4 3,3 6.666667,-7 z"
       style="fill:#444444;fill-opacity:1;stroke:none" />
    <path
       style="fill:#444444;fill-opacity:1;stroke:none"
       d="M -12.349515,1034.1564 -8,1038.1122 l -3,3 -6.747573,-6.9558 z"
       id="path3798"
       inkscape:connector-curvature="0"
       sodipodi:nodetypes="ccccc" />
    <path
       transform="matrix(1.5,0,0,-1.9166761,-37,1022.6955)"
       d="m 16,-4 c 0,1.6568542 -1.343146,3 -3,3 -1.656854,0 -3,-1.3431458 -3,-3 0,-1.6568542 1.343146,-3 3,-3 1.656854,0 3,1.3431458 3,3 z"
       sodipodi:ry="3"
       sodipodi:rx="3"
       sodipodi:cy="-4"
       sodipodi:cx="13"
       id="path3800"
       style="fill:#ffe1d8;fill-opacity:1;stroke:none"
       sodipodi:type="arc" />
    <rect
       style="fill:#ffe1d8;fill-opacity:1;fill-rule:evenodd;stroke:none"
       id="rect3802"
       width="19"
       height="19"
       x="-27"
       y="1032.1122" />
    <rect
       style="fill:#444444;fill-opacity:1;stroke:none"
       id="rect3804"
       width="11"
       height="14.000036"
       x="-23"
       y="1035.1122" />
    <path
       style="fill:#444444;fill-opacity:1;stroke:none"
       d="m -22.666667,1034.1122 -4.333333,4 3,3 6.666667,-7 z"
       id="path3806"
       inkscape:connector-curvature="0"
       sodipodi:nodetypes="ccccc" />
    <path
       sodipodi:nodetypes="ccccc"
       inkscape:connector-curvature="0"
       id="path3808"
       d="M -12.349515,1034.1564 -8,1038.1122 l -3,3 -6.747573,-6.9558 z"
       style="fill:#444444;fill-opacity:1;stroke:none" />
    <path
       sodipodi:type="arc"
       style="fill:#ffe1d8;fill-opacity:1;stroke:none"
       id="path3810"
       sodipodi:cx="13"
       sodipodi:cy="-4"
       sodipodi:rx="3"
       sodipodi:ry="3"
       d="m 16,-4 c 0,1.6568542 -1.343146,3 -3,3 -1.656854,0 -3,-1.3431458 -3,-3 0,-1.6568542 1.343146,-3 3,-3 1.656854,0 3,1.3431458 3,3 z"
       transform="matrix(1.5,0,0,-1.9166761,-37,1022.6955)" />
    <rect
       style="fill:#ffe1d8;fill-opacity:1;fill-rule:evenodd;stroke:none"
       id="rect3890"
       width="19"
       height="19"
       x="-27"
       y="1032.1122" />
    <rect
       style="fill:#444444;fill-opacity:1;stroke:none"
       id="rect3892"
       width="11"
       height="14.000036"
       x="-23"
       y="1035.1122" />
    <path
       style="fill:#444444;fill-opacity:1;stroke:none"
       d="m -22.666667,1034.1122 -4.333333,4 3,3 6.666667,-7 z"
       id="path3894"
       inkscape:connector-curvature="0"
       sodipodi:nodetypes="ccccc" />
    <path
       sodipodi:nodetypes="ccccc"
       inkscape:connector-curvature="0"
       id="path3896"
       d="M -12.349515,1034.1564 -8,1038.1122 l -3,3 -6.747573,-6.9558 z"
       style="fill:#444444;fill-opacity:1;stroke:none" />
    <path
       sodipodi:type="arc"
       style="fill:#ffe1d8;fill-opacity:1;stroke:none"
       id="path3898"
       sodipodi:cx="13"
       sodipodi:cy="-4"
       sodipodi:rx="3"
       sodipodi:ry="3"
       d="m 16,-4 c 0,1.6568542 -1.343146,3 -3,3 -1.656854,0 -3,-1.3431458 -3,-3 0,-1.6568542 1.343146,-3 3,-3 1.656854,0 3,1.3431458 3,3 z"
       transform="matrix(1.5,0,0,-1.9166761,-37,1022.6955)" />
    <rect
       y="1032.1122"
       x="-27"
       height="19"
       width="19"
       id="rect3900"
       style="fill:#ffe1d8;fill-opacity:1;fill-rule:evenodd;stroke:none" />
    <rect
       y="1035.1122"
       x="-23"
       height="14.000036"
       width="11"
       id="rect3902"
       style="fill:#444444;fill-opacity:1;stroke:none" />
    <path
       sodipodi:nodetypes="ccccc"
       inkscape:connector-curvature="0"
       id="path3904"
       d="m -22.666667,1034.1122 -4.333333,4 3,3 6.666667,-7 z"
       style="fill:#444444;fill-opacity:1;stroke:none" />
    <path
       style="fill:#444444;fill-opacity:1;stroke:none"
       d="M -12.349515,1034.4064 -8,1038.3622 l -3,3 -6.747573,-6.9558 z"
       id="path3906"
       inkscape:connector-curvature="0"
       sodipodi:nodetypes="ccccc" />
    <path
       transform="matrix(1.5,0,0,-1.9166761,-37,1022.6955)"
       d="m 16,-4 c 0,1.6568542 -1.343146,3 -3,3 -1.656854,0 -3,-1.3431458 -3,-3 0,-1.6568542 1.343146,-3 3,-3 1.656854,0 3,1.3431458 3,3 z"
       sodipodi:ry="3"
       sodipodi:rx="3"
       sodipodi:cy="-4"
       sodipodi:cx="13"
       id="path3908"
       style="fill:#ffe1d8;fill-opacity:1;stroke:none"
       sodipodi:type="arc" />
    <path
       style="fill:#444444;fill-opacity:1;stroke:none"
       d="m -44.1875,1034.3617 -4.3125,4 3,3 1,-1.0625 0,9.0625 11,0 0,-9.0312 1,1.0312 3,-3 -4.375,-3.9687 -1.78125,0 c -0.103082,0.1496 -0.198877,0.3018 -0.3125,0.4375 -0.06256,0.074 -0.121731,0.1494 -0.1875,0.2187 -0.05456,0.058 -0.130905,0.1011 -0.1875,0.1563 -0.12348,0.1203 -0.242345,0.24 -0.375,0.3437 -0.05302,0.041 -0.10184,0.087 -0.15625,0.125 -0.08116,0.057 -0.165877,0.1052 -0.25,0.1563 -0.141145,0.086 -0.288547,0.1524 -0.4375,0.2187 -0.07876,0.035 -0.169207,0.064 -0.25,0.094 -0.07943,0.028 -0.137612,0.071 -0.21875,0.094 -0.02001,0.01 -0.04238,-0.01 -0.0625,0 -0.14647,0.038 -0.317473,0.074 -0.46875,0.094 -0.142942,0.018 -0.290178,0.031 -0.4375,0.031 -0.159354,0 -0.3136,-0.01 -0.46875,-0.031 -0.01033,0 -0.02094,0 -0.03125,0 -0.06071,-0.01 -0.127537,-0.019 -0.1875,-0.031 -0.107922,-0.021 -0.20724,-0.063 -0.3125,-0.094 -0.114695,-0.033 -0.232524,-0.049 -0.34375,-0.094 -0.04399,-0.017 -0.0816,-0.043 -0.125,-0.062 -0.09584,-0.042 -0.188439,-0.075 -0.28125,-0.125 -0.05141,-0.028 -0.105836,-0.064 -0.15625,-0.094 -0.289244,-0.1739 -0.560695,-0.4117 -0.8125,-0.6563 -0.152274,-0.1479 -0.301289,-0.2982 -0.4375,-0.4687 -0.03213,-0.04 -0.06258,-0.083 -0.09375,-0.125 -0.05461,-0.073 -0.10468,-0.1427 -0.15625,-0.2188 l -1.78125,0 z"
       id="rect4052"
       inkscape:connector-curvature="0" />
    <rect
       y="1031.3622"
       x="8"
       height="8.0026245"
       width="10"
       id="rect3795"
       style="fill:#444444;fill-opacity:1;stroke:none" />
    <path
       style="fill:#444444;fill-opacity:1"
       d="m 8,1031.3622 c 0,0 -5,0 -5,9 2.5,0 5,0 5,0 z"
       id="path3023"
       inkscape:connector-curvature="0"
       sodipodi:nodetypes="cccc" />
    <path
       sodipodi:nodetypes="cccc"
       inkscape:connector-curvature="0"
       id="path3018"
       d="m 18,1031.3622 c 0,0 4,0 4,9 -2,0 -4,0 -4,0 z"
       style="fill:#444444;fill-opacity:1" />
    <rect
       style="fill:#ffe1d8;fill-opacity:1"
       id="rect3022"
       width="0.96126127"
       height="9.063345"
       x="6.0387387"
       y="1039.2988" />
    <rect
       y="1039.3622"
       x="17.99654"
       height="3.2957568"
       width="1"
       id="rect3024"
       style="fill:#ffe1d8;fill-opacity:1" />
    <path
       sodipodi:type="arc"
       style="fill:#ffffff;fill-opacity:1;stroke:none"
       id="path3790"
       sodipodi:cx="13"
       sodipodi:cy="-4"
       sodipodi:rx="3"
       sodipodi:ry="3"
       d="m 16,-4 c 0,1.6568542 -1.343146,3 -3,3 -1.656854,0 -3,-1.3431458 -3,-3 0,-1.6568542 1.343146,-3 3,-3 1.656854,0 3,1.3431458 3,3 z"
       transform="matrix(1.5,0,0,-1.9166761,-7,1020.9455)" />
  </g>
</svg>
