<?xml version="1.0" encoding="UTF-8" standalone="no"?>
<!-- Created with Inkscape (http://www.inkscape.org/) -->

<svg
   xmlns:dc="http://purl.org/dc/elements/1.1/"
   xmlns:cc="http://creativecommons.org/ns#"
   xmlns:rdf="http://www.w3.org/1999/02/22-rdf-syntax-ns#"
   xmlns:svg="http://www.w3.org/2000/svg"
   xmlns="http://www.w3.org/2000/svg"
   xmlns:sodipodi="http://sodipodi.sourceforge.net/DTD/sodipodi-0.dtd"
   xmlns:inkscape="http://www.inkscape.org/namespaces/inkscape"
   width="12"
   height="12"
   id="svg4764"
   version="1.1"
   inkscape:version="0.48.2 r9819"
   sodipodi:docname="clothing-store-12.svg">
  <defs
     id="defs4766" />
  <sodipodi:namedview
     id="base"
     pagecolor="#ffffff"
     bordercolor="#666666"
     borderopacity="1.0"
     inkscape:pageopacity="0.0"
     inkscape:pageshadow="2"
     inkscape:zoom="32"
     inkscape:cx="5.7236388"
     inkscape:cy="7.6291873"
     inkscape:document-units="px"
     inkscape:current-layer="layer1"
     showgrid="true"
     showguides="false"
     inkscape:guide-bbox="true"
     inkscape:window-width="1220"
     inkscape:window-height="791"
     inkscape:window-x="17"
     inkscape:window-y="115"
     inkscape:window-maximized="0"
     inkscape:showpageshadow="true"
     showborder="true"
     borderlayer="true">
    <inkscape:grid
       type="xygrid"
       id="grid4772"
       empspacing="2"
       visible="true"
       enabled="true"
       snapvisiblegridlinesonly="true"
       spacingx="0.5px"
       spacingy="0.5px"
       empcolor="#0000ff"
       empopacity="0.4627451" />
    <sodipodi:guide
       orientation="0,1"
       position="2,12"
       id="guide4789" />
    <sodipodi:guide
       orientation="1,0"
       position="12,10"
       id="guide4791" />
    <sodipodi:guide
       orientation="0,1"
       position="10,0"
       id="guide4793" />
    <sodipodi:guide
       orientation="1,0"
       position="0,9"
       id="guide4795" />
    <sodipodi:guide
       orientation="0,1"
       position="5,11"
       id="guide4797" />
    <sodipodi:guide
       orientation="1,0"
       position="11,7"
       id="guide4799" />
    <sodipodi:guide
       orientation="0,1"
       position="9,2"
       id="guide4801" />
    <sodipodi:guide
       orientation="1,0"
       position="2,5"
       id="guide4803" />
  </sodipodi:namedview>
  <metadata
     id="metadata4769">
    <rdf:RDF>
      <cc:Work
         rdf:about="">
        <dc:format>image/svg+xml</dc:format>
        <dc:type
           rdf:resource="http://purl.org/dc/dcmitype/StillImage" />
        <dc:title />
      </cc:Work>
    </rdf:RDF>
  </metadata>
  <g
     inkscape:groupmode="layer"
     id="layer2"
     inkscape:label="original"
     style="display:none"
     sodipodi:insensitive="true">
    <path
       style="fill:#ff0000;fill-opacity:1;stroke:none"
       d="M 4.8235294,20.6912 C 4.3529412,20.6912 2,20.6912 2,24.9265 l 1.4117647,0 0,-0.9412 0.4705882,0 c 0,1.7159 0,3.1633 0,4.7059 l 5.1764706,0 c 0,-1.6125 0,-3.3008 0,-4.6912 l 0.4705883,0 0,0.9265 1.4117642,0 c 0,-4.2039 -2.3288871,-4.2396 -2.8235289,-4.2353 0,1.0396 -0.7374137,1.8824 -1.6470589,1.8824 -0.9096451,0 -1.6470588,-0.8428 -1.6470588,-1.8824 z"
       id="rect3192"
       inkscape:connector-curvature="0"
       sodipodi:nodetypes="ccccccccccccsc" />
    <rect
       style="fill:#ffffff;fill-opacity:1"
       id="rect3109"
       width="0.48450437"
       height="4.8713341"
       x="11.79483"
       y="5.5872803" />
    <path
       sodipodi:type="arc"
       style="fill:#ffffff;fill-opacity:1;stroke:none"
       id="path3336"
       sodipodi:cx="13"
       sodipodi:cy="-4"
       sodipodi:rx="3"
       sodipodi:ry="3"
       d="m 16,-4 a 3,3 0 1 1 -6,0 3,3 0 1 1 6,0 z"
       transform="matrix(0.62476467,0,0,-0.71401517,-1.6361533,0.03305892)" />
    <rect
       style="fill:#ff0000;fill-opacity:1;stroke:none"
       id="rect3340"
       width="5.8906379"
       height="7.0030909"
       x="2.6093619"
       y="2.9969089" />
    <path
       sodipodi:nodetypes="ccccc"
       inkscape:connector-curvature="0"
       id="path3342"
       d="M 2.4039322,2.2221951 0.46731208,5.070596 1.9194279,6.0982297 2.4039322,5.129221 z"
       style="fill:#ff0000;fill-opacity:1;stroke:none" />
    <path
       inkscape:connector-curvature="0"
       id="path3344"
       d="m 2.4039322,2.2221951 1.9380173,-0.4845043 0.9690091,3.3915302 -2.9070264,0 z"
       style="fill:#ff0000;fill-opacity:1;stroke:none"
       sodipodi:nodetypes="ccccc" />
    <rect
       y="5.1292129"
       x="8.2179852"
       height="5.3551345"
       width="0.48450416"
       id="rect3352"
       style="fill:#ffffff;fill-opacity:1" />
    <rect
       style="fill:#ffffff;fill-opacity:1"
       id="rect3346"
       width="0.48450437"
       height="5.3551345"
       x="2.4039323"
       y="5.1292129" />
    <path
       style="fill:#ff0000;fill-opacity:1;stroke:none"
       d="M 8.7024888,2.2221951 10.639108,5.070596 9.1869933,6.0982297 8.7024888,5.129221 z"
       id="path3354"
       inkscape:connector-curvature="0"
       sodipodi:nodetypes="ccccc" />
    <path
       sodipodi:nodetypes="ccccc"
       style="fill:#ff0000;fill-opacity:1;stroke:none"
       d="M 8.7024888,2.2221951 6.7644713,1.7376908 5.7954623,5.129221 l 2.9070265,0 z"
       id="path3356"
       inkscape:connector-curvature="0" />
    <path
       transform="matrix(0.48450434,0,0,-0.64600443,-0.50309372,-0.84631651)"
       d="m 16,-4 a 3,3 0 1 1 -6,0 3,3 0 1 1 6,0 z"
       sodipodi:ry="3"
       sodipodi:rx="3"
       sodipodi:cy="-4"
       sodipodi:cx="13"
       id="path3338"
       style="fill:#ffffff;fill-opacity:1;stroke:none"
       sodipodi:type="arc" />
  </g>
  <g
     inkscape:label="Layer 1"
     inkscape:groupmode="layer"
     id="layer1"
     transform="translate(0,-1040.3622)"
     style="display:inline">
    <rect
       style="fill:#444444;fill-opacity:1;stroke:none"
       id="rect3050"
       width="5"
       height="5"
       x="-22"
       y="1045.3622" />
    <path
       style="fill:#444444;fill-opacity:1;stroke:none"
       d="m -23,1042.3622 7,0 1,2 -9,0 z"
       id="rect3059"
       inkscape:connector-curvature="0"
       sodipodi:nodetypes="ccccc" />
    <path
       sodipodi:nodetypes="ccccc"
       inkscape:connector-curvature="0"
       id="path3062"
       d="m -23,1042.3622 7,0 0,1 -7,0 z"
       style="fill:#444444;fill-opacity:1;stroke:none" />
    <rect
       style="fill:#444444;fill-opacity:1;stroke:none"
       id="rect3068"
       width="1.5"
       height="3.0000391"
       x="-24"
       y="1044.3622" />
    <rect
       y="1044.3622"
       x="-16.5"
       height="3.0000131"
       width="1.5"
       id="rect3070"
       style="fill:#444444;fill-opacity:1;stroke:none" />
    <rect
       y="1045.3622"
       x="31"
       height="5"
       width="5"
       id="rect3072"
       style="fill:#444444;fill-opacity:1;stroke:none" />
    <path
       sodipodi:nodetypes="ccccc"
       inkscape:connector-curvature="0"
       id="path3074"
       d="m 28.999999,1044.3622 9,0 0,2 -9,0 z"
       style="fill:#444444;fill-opacity:1;stroke:none" />
    <path
       style="fill:#444444;fill-opacity:1;stroke:none"
       d="m 31.999999,1042.3622 3,0 3,2 -9,0 z"
       id="path3076"
       inkscape:connector-curvature="0"
       sodipodi:nodetypes="ccccc" />
    <path
       transform="matrix(0.75,0,0,1.25,29.749999,1040.6122)"
       d="M 7,1 C 7,2.1045695 6.1045695,3 5,3 3.8954305,3 3,2.1045695 3,1 c 0,-1.1045695 0.8954305,-2 2,-2 1.1045695,0 2,0.8954305 2,2 z"
       sodipodi:ry="2"
       sodipodi:rx="2"
       sodipodi:cy="1"
       sodipodi:cx="5"
       id="path3078"
       style="fill:#ffffff;fill-opacity:1;stroke:none"
       sodipodi:type="arc" />
    <rect
       y="1045.3622"
       x="29"
       height="2.0000174"
       width="1"
       id="rect3080"
       style="fill:#444444;fill-opacity:1;stroke:none" />
    <rect
       style="fill:#444444;fill-opacity:1;stroke:none"
       id="rect3082"
       width="1"
       height="2"
       x="37"
       y="1045.3622" />
    <rect
       style="fill:#444444;fill-opacity:1;stroke:none"
       id="rect3084"
       width="7"
       height="2"
       x="-23"
       y="1044.3622" />
    <path
       sodipodi:type="arc"
       style="fill:#ffffff;fill-opacity:1;stroke:none"
       id="path3066"
       sodipodi:cx="5"
       sodipodi:cy="1"
       sodipodi:rx="2"
       sodipodi:ry="2"
       d="M 7,1 C 7,2.1045695 6.1045695,3 5,3 3.8954305,3 3,2.1045695 3,1 c 0,-1.1045695 0.8954305,-2 2,-2 1.1045695,0 2,0.8954305 2,2 z"
       transform="matrix(0.75,0,0,1,-23.25,1041.3622)" />
    <rect
       y="1045.3622"
       x="18"
       height="5"
       width="5"
       id="rect3086"
       style="fill:#444444;fill-opacity:1;stroke:none" />
    <path
       sodipodi:nodetypes="ccccc"
       inkscape:connector-curvature="0"
       id="path3088"
       d="m 17,1043.3622 7,0 1,2 -9,0 z"
       style="fill:#444444;fill-opacity:1;stroke:none" />
    <path
       style="fill:#444444;fill-opacity:1;stroke:none"
       d="m 19.333333,1042.3622 2.333334,0 2.333333,1 -7,0 z"
       id="path3090"
       inkscape:connector-curvature="0"
       sodipodi:nodetypes="ccccc" />
    <path
       transform="matrix(0.75,0,0,1.25,16.75,1040.6122)"
       d="M 7,1 C 7,2.1045695 6.1045695,3 5,3 3.8954305,3 3,2.1045695 3,1 c 0,-1.1045695 0.8954305,-2 2,-2 1.1045695,0 2,0.8954305 2,2 z"
       sodipodi:ry="2"
       sodipodi:rx="2"
       sodipodi:cy="1"
       sodipodi:cx="5"
       id="path3092"
       style="fill:#ffffff;fill-opacity:1;stroke:none"
       sodipodi:type="arc" />
    <rect
       y="1045.3622"
       x="16"
       height="2.0000174"
       width="1"
       id="rect3094"
       style="fill:#444444;fill-opacity:1;stroke:none" />
    <rect
       style="fill:#444444;fill-opacity:1;stroke:none"
       id="rect3096"
       width="1"
       height="2"
       x="24"
       y="1045.3622" />
    <rect
       y="1045.3622"
       x="17"
       height="1"
       width="7"
       id="rect3098"
       style="fill:#444444;fill-opacity:1;stroke:none" />
    <rect
       y="1044.3622"
       x="-11"
       height="6.0000172"
       width="5"
       id="rect3115"
       style="fill:#444444;fill-opacity:1;stroke:none" />
    <path
       sodipodi:nodetypes="ccccc"
       inkscape:connector-curvature="0"
       id="path3117"
       d="m -12,1042.3622 6.9999999,0 1.0000001,2 -9,0 z"
       style="fill:#444444;fill-opacity:1;stroke:none" />
    <path
       style="fill:#444444;fill-opacity:1;stroke:none"
       d="m -10,1041.3622 3,0 1.9999999,1 -6.9999999,0 z"
       id="path3119"
       inkscape:connector-curvature="0"
       sodipodi:nodetypes="ccccc" />
    <path
       transform="matrix(0.75,0,0,1.5,-12.25,1039.8622)"
       d="M 7,1 C 7,2.1045695 6.1045695,3 5,3 3.8954305,3 3,2.1045695 3,1 c 0,-1.1045695 0.8954305,-2 2,-2 1.1045695,0 2,0.8954305 2,2 z"
       sodipodi:ry="2"
       sodipodi:rx="2"
       sodipodi:cy="1"
       sodipodi:cx="5"
       id="path3121"
       style="fill:#ffffff;fill-opacity:1;stroke:none"
       sodipodi:type="arc" />
    <rect
       y="1044.3622"
       x="-13"
       height="3.0000434"
       width="1"
       id="rect3123"
       style="fill:#444444;fill-opacity:1;stroke:none" />
    <rect
       style="fill:#444444;fill-opacity:1;stroke:none"
       id="rect3125"
       width="1"
       height="3.0000174"
       x="-5"
       y="1044.3622" />
    <rect
       y="1044.3622"
       x="-12"
       height="1.5000174"
       width="7"
       id="rect3127"
       style="fill:#444444;fill-opacity:1;stroke:none" />
    <path
       style="fill:#444444;fill-opacity:1;stroke:none"
       d="M 4 1 L 3 2 L 2 4 L 2 5 L 4 5 L 4 10 L 9 10 L 9 5 L 11 5 L 11 4 L 10 2 L 9 1 L 8 1 L 8 2.5 L 7 2.5 L 7 3 L 6 3 L 6 2.5 L 5 2.5 L 5 1 L 4 1 z "
       transform="translate(0,1040.3622)"
       id="rect3131" />
    <path
       sodipodi:type="arc"
       style="fill:#ffffff;fill-opacity:1;stroke:none"
       id="path3137"
       sodipodi:cx="5"
       sodipodi:cy="1"
       sodipodi:rx="2"
       sodipodi:ry="2"
       d="M 7,1 C 7,2.1045695 6.1045695,3 5,3 3.8954305,3 3,2.1045695 3,1 c 0,-1.1045695 0.8954305,-2 2,-2 1.1045695,0 2,0.8954305 2,2 z"
       transform="matrix(0.75,0,0,1.5,11.721417,1024.8622)" />
    <rect
       style="fill:#000000;fill-opacity:0;stroke:none"
       id="rect3149"
       width="1"
       height="2"
       x="4.5"
       y="1042.3622" />
    <rect
       y="1042.3622"
       x="4.5"
       height="2"
       width="1"
       id="rect3151"
       style="fill:#000000;fill-opacity:0;stroke:none" />
    <rect
       y="1021.3622"
       x="4"
       height="6.0000172"
       width="5"
       id="rect3157"
       style="fill:#444444;fill-opacity:1;stroke:none" />
    <path
       sodipodi:nodetypes="ccccc"
       inkscape:connector-curvature="0"
       id="path3159"
       d="m 3,1019.3622 6.9999999,0 1.0000001,1 -9,0 z"
       style="fill:#444444;fill-opacity:1;stroke:none" />
    <path
       style="fill:#444444;fill-opacity:1;stroke:none"
       d="m 4,1018.3622 5,0 0.9999999,1 -6.9999999,0 z"
       id="path3161"
       inkscape:connector-curvature="0"
       sodipodi:nodetypes="ccccc" />
    <rect
       y="1020.3622"
       x="2"
       height="2.9999926"
       width="1"
       id="rect3163"
       style="fill:#444444;fill-opacity:1;stroke:none" />
    <rect
       style="fill:#444444;fill-opacity:1;stroke:none"
       id="rect3165"
       width="1"
       height="2.9999669"
       x="10"
       y="1020.3622" />
    <rect
       y="1019.8622"
       x="3"
       height="2.4999838"
       width="7"
       id="rect3167"
       style="fill:#444444;fill-opacity:1;stroke:none" />
    <rect
       y="1016.3622"
       x="5"
       height="3.5000174"
       width="3"
       id="rect3169"
       style="fill:#ffffff;fill-opacity:1;stroke:none" />
    <rect
       y="1018.854"
       x="6"
       height="1.5"
       width="1"
       id="rect3171"
       style="fill:#ffffff;fill-opacity:1;stroke:none" />
    <rect
       y="1019.3622"
       x="4.5"
       height="2"
       width="1"
       id="rect3173"
       style="fill:#000000;fill-opacity:0;stroke:none" />
    <rect
       style="fill:#000000;fill-opacity:0;stroke:none"
       id="rect3175"
       width="1"
       height="2"
       x="4.5"
       y="1019.3622" />
    <rect
       y="1019.3622"
       x="5"
       height="2"
       width="0.5"
       id="rect3177"
       style="fill:#444444;fill-opacity:1;stroke:none" />
    <rect
       style="fill:#444444;fill-opacity:1;stroke:none"
       id="rect3179"
       width="0.5"
       height="2"
       x="7.5"
       y="1019.3622" />
    <rect
       y="1061.3622"
       x="4"
       height="6.0000172"
       width="5"
       id="rect3181"
       style="fill:#444444;fill-opacity:1;stroke:none" />
    <path
       sodipodi:nodetypes="ccccc"
       inkscape:connector-curvature="0"
       id="path3183"
       d="m 3,1059.3622 6.9999999,0 1.0000001,1 -9,0 z"
       style="fill:#444444;fill-opacity:1;stroke:none" />
    <path
       style="fill:#444444;fill-opacity:1;stroke:none"
       d="m 4,1058.3622 5,0 0.9999999,1 -6.9999999,0 z"
       id="path3185"
       inkscape:connector-curvature="0"
       sodipodi:nodetypes="ccccc" />
    <rect
       y="1060.3622"
       x="2"
       height="4.0000076"
       width="1.5"
       id="rect3187"
       style="fill:#444444;fill-opacity:1;stroke:none" />
    <rect
       style="fill:#444444;fill-opacity:1;stroke:none"
       id="rect3189"
       width="1.5"
       height="3.9999733"
       x="9.5"
       y="1060.3622" />
    <rect
       y="1060.3622"
       x="3"
       height="1.9999834"
       width="7"
       id="rect3191"
       style="fill:#444444;fill-opacity:1;stroke:none" />
    <rect
       y="1056.3622"
       x="5"
       height="3.5000174"
       width="3"
       id="rect3193"
       style="fill:#ffffff;fill-opacity:1;stroke:none" />
    <rect
       y="1058.854"
       x="6"
       height="1.5"
       width="1"
       id="rect3195"
       style="fill:#ffffff;fill-opacity:1;stroke:none" />
    <rect
       y="1059.3622"
       x="4.5"
       height="2"
       width="1"
       id="rect3197"
       style="fill:#000000;fill-opacity:0;stroke:none" />
    <rect
       style="fill:#000000;fill-opacity:0;stroke:none"
       id="rect3199"
       width="1"
       height="2"
       x="4.5"
       y="1059.3622" />
    <rect
       y="1059.3622"
       x="5"
       height="2"
       width="0.5"
       id="rect3201"
       style="fill:#444444;fill-opacity:1;stroke:none" />
    <rect
       style="fill:#444444;fill-opacity:1;stroke:none"
       id="rect3203"
       width="0.5"
       height="2"
       x="7.5"
       y="1059.3622" />
    <path
       sodipodi:nodetypes="ccccc"
       inkscape:connector-curvature="0"
       id="path3067"
       d="m 4,1032.3622 5,0 0,6 -5,0 z"
       style="fill:#444444;fill-opacity:1;stroke:none" />
    <path
       sodipodi:nodetypes="ccccc"
       inkscape:connector-curvature="0"
       id="path3069"
       d="m 3,1030.3622 6.9999999,0 1.0000001,2 -9,0 z"
       style="fill:#444444;fill-opacity:1;stroke:none" />
    <path
       style="fill:#444444;fill-opacity:1;stroke:none"
       d="m 4,1029.3622 5,0 0.9999999,1 -6.9999999,0 z"
       id="path3071"
       inkscape:connector-curvature="0"
       sodipodi:nodetypes="ccccc" />
    <rect
       y="1032.3622"
       x="2"
       height="0.99997431"
       width="9"
       id="rect3073"
       style="fill:#444444;fill-opacity:1;stroke:none" />
    <rect
       y="1027.3622"
       x="5"
       height="3.5000174"
       width="3"
       id="rect3075"
       style="fill:#ffffff;fill-opacity:1;stroke:none" />
    <rect
       y="1029.854"
       x="6"
       height="1.5"
       width="1"
       id="rect3077"
       style="fill:#ffffff;fill-opacity:1;stroke:none" />
    <rect
       y="1030.3622"
       x="4.5"
       height="2"
       width="1"
       id="rect3079"
       style="fill:#000000;fill-opacity:0;stroke:none" />
    <rect
       style="fill:#000000;fill-opacity:0;stroke:none"
       id="rect3081"
       width="1"
       height="2"
       x="4.5"
       y="1030.3622" />
    <rect
       y="1030.3622"
       x="5"
       height="2"
       width="0.5"
       id="rect3083"
       style="fill:#444444;fill-opacity:1;stroke:none" />
    <rect
       style="fill:#444444;fill-opacity:1;stroke:none"
       id="rect3085"
       width="0.5"
       height="2"
       x="7.5"
       y="1030.3622" />
    <rect
       style="fill:#444444;fill-opacity:1;stroke:none"
       id="rect3087"
       width="3"
       height="1.9999834"
       x="5"
       y="1031.3622" />
  </g>
</svg>
