<?xml version="1.0" encoding="UTF-8" standalone="no"?>
<!-- Created with Inkscape (http://www.inkscape.org/) -->

<svg
   xmlns:dc="http://purl.org/dc/elements/1.1/"
   xmlns:cc="http://creativecommons.org/ns#"
   xmlns:rdf="http://www.w3.org/1999/02/22-rdf-syntax-ns#"
   xmlns:svg="http://www.w3.org/2000/svg"
   xmlns="http://www.w3.org/2000/svg"
   xmlns:sodipodi="http://sodipodi.sourceforge.net/DTD/sodipodi-0.dtd"
   xmlns:inkscape="http://www.inkscape.org/namespaces/inkscape"
   width="24"
   height="24"
   id="svg4460"
   version="1.1"
   inkscape:version="0.48.2 r9819"
   sodipodi:docname="clothing-store-24.svg">
  <defs
     id="defs4462">
    <inkscape:path-effect
       effect="spiro"
       id="path-effect4093"
       is_visible="true" />
    <inkscape:path-effect
       effect="bend_path"
       id="path-effect4091"
       is_visible="true"
       bendpath="M 3,11.5 22,11"
       prop_scale="1"
       scale_y_rel="false"
       vertical="false"
       bendpath-nodetypes="cc" />
    <inkscape:path-effect
       effect="bend_path"
       id="path-effect3897"
       is_visible="true"
       bendpath="m 3,11.5 19,0"
       prop_scale="1.01"
       scale_y_rel="false"
       vertical="false" />
  </defs>
  <sodipodi:namedview
     id="base"
     pagecolor="#ffffff"
     bordercolor="#666666"
     borderopacity="1.0"
     inkscape:pageopacity="0.0"
     inkscape:pageshadow="2"
     inkscape:zoom="11.313708"
     inkscape:cx="17.97618"
     inkscape:cy="4.5557167"
     inkscape:document-units="px"
     inkscape:current-layer="layer1"
     showgrid="true"
     showguides="true"
     inkscape:guide-bbox="true"
     inkscape:window-width="1280"
     inkscape:window-height="756"
     inkscape:window-x="-12"
     inkscape:window-y="0"
     inkscape:window-maximized="0"
     inkscape:snap-nodes="true"
     inkscape:snap-bbox="true"
     inkscape:snap-grids="false">
    <inkscape:grid
       type="xygrid"
       id="grid4468"
       empspacing="2"
       visible="true"
       enabled="true"
       snapvisiblegridlinesonly="true"
       spacingx="0.5px"
       spacingy="0.5px"
       dotted="false" />
    <sodipodi:guide
       orientation="1,0"
       position="0,20"
       id="guide4470" />
    <sodipodi:guide
       orientation="0,1"
       position="4,24"
       id="guide4472" />
    <sodipodi:guide
       orientation="1,0"
       position="24,13"
       id="guide4474" />
    <sodipodi:guide
       orientation="0,1"
       position="15,0"
       id="guide4476" />
    <sodipodi:guide
       orientation="1,0"
       position="23,9"
       id="guide4478" />
    <sodipodi:guide
       orientation="0,1"
       position="20,23"
       id="guide4480" />
    <sodipodi:guide
       orientation="1,0"
       position="2.0312502,15.312501"
       id="guide4482" />
    <sodipodi:guide
       orientation="0,1"
       position="7,2"
       id="guide4484" />
    <sodipodi:guide
       orientation="1,0"
       position="13,16"
       id="guide4486" />
    <sodipodi:guide
       orientation="0,1"
       position="16,13"
       id="guide4490" />
  </sodipodi:namedview>
  <metadata
     id="metadata4465">
    <rdf:RDF>
      <cc:Work
         rdf:about="">
        <dc:format>image/svg+xml</dc:format>
        <dc:type
           rdf:resource="http://purl.org/dc/dcmitype/StillImage" />
        <dc:title />
      </cc:Work>
    </rdf:RDF>
  </metadata>
  <g
     inkscape:label="Layer 1"
     inkscape:groupmode="layer"
     id="layer1"
     transform="translate(0,-1028.3622)"
     style="display:inline">
    <path
       sodipodi:type="inkscape:offset"
       inkscape:radius="0.99828964"
       inkscape:original="M 9.78125 1032.375 C 9.694928 1032.358 9.602343 1032.3853 9.5 1032.4062 L 7 1033.375 C 7 1033.375 4.208814 1035.9786 3.15625 1037.0312 C 2.973196 1037.2143 2.963977 1037.5051 3.15625 1037.75 L 5.65625 1040.2188 C 5.83105 1040.4233 6.169297 1040.4588 6.375 1040.25 L 7 1039.375 L 8 1039.375 L 8 1047.375 L 12.5 1047.375 L 17 1047.375 L 17 1039.375 L 18 1039.375 L 18.625 1040.25 C 18.830703 1040.4586 19.2002 1040.423 19.375 1040.2188 L 21.875 1037.75 C 22.067273 1037.5051 22.058054 1037.2143 21.875 1037.0312 C 20.822436 1035.9787 18 1033.375 18 1033.375 L 15.5 1032.4062 C 15.090628 1032.3093 14.7907 1032.5668 14.75 1032.875 C 14.7363 1034.4616 13.909389 1035.4036 12.5 1035.375 C 11.090611 1035.404 10.2637 1034.4616 10.25 1032.875 C 10.21947 1032.6439 10.040216 1032.4254 9.78125 1032.375 z "
       style="fill:#ffffff;fill-opacity:1;stroke:none;stroke-width:0.20000000000000001;marker-start:none;display:inline;opacity:0.3"
       id="path3780"
       d="m 9.96875,1031.4062 c -0.4179003,-0.082 -0.6052397,0.021 -0.65625,0.031 a 0.99838947,0.99838947 0 0 0 -0.1875,0.031 l -2.5,0.9687 a 0.99838947,0.99838947 0 0 0 -0.3125,0.2187 c 0,0 -2.7804822,2.5617 -3.875,3.6563 -0.5448612,0.545 -0.5013772,1.5035 -0.0625,2.0625 a 0.99838947,0.99838947 0 0 0 0.09375,0.094 l 2.4375,2.4062 0.0625,0.062 L 5,1040.9062 c 0.5391787,0.5477 1.3955112,0.5951 2,0.063 l 0,6.4062 a 0.99838947,0.99838947 0 0 0 1,1 l 4.5,0 4.5,0 a 0.99838947,0.99838947 0 0 0 1,-1 l 0,-6.4062 c 0.632321,0.5663 1.462003,0.5234 2.03125,-0.063 l 0.03125,0.031 0.0625,-0.062 2.4375,-2.4062 a 0.99838947,0.99838947 0 0 0 0.09375,-0.094 c 0.438877,-0.559 0.482361,-1.5175 -0.0625,-2.0625 -1.101428,-1.1014 -3.90625,-3.6563 -3.90625,-3.6563 a 0.99838947,0.99838947 0 0 0 -0.3125,-0.2187 l -2.5,-0.9687 a 0.99838947,0.99838947 0 0 0 -0.15625,-0.031 c -0.901481,-0.2134 -1.85416,0.4448 -1.96875,1.3125 a 0.99838947,0.99838947 0 0 0 0,0.125 c -0.0054,0.6216 -0.162523,0.9848 -0.34375,1.1875 -0.181227,0.2027 -0.396538,0.3222 -0.875,0.3125 a 0.99838947,0.99838947 0 0 0 -0.0625,0 c -0.478316,0.01 -0.693771,-0.1097 -0.875,-0.3125 -0.181229,-0.2028 -0.338383,-0.5659 -0.34375,-1.1875 a 0.99838947,0.99838947 0 0 0 0,-0.125 c -0.08628,-0.6531 -0.576003,-1.2065 -1.28125,-1.3438 z" />
    <path
       inkscape:connector-curvature="0"
       style="fill:#444444;fill-opacity:1;stroke:none;stroke-width:0.2;marker-start:none;display:inline"
       d="m 9.4375,1032.3622 c -0.1237016,-0.01 -0.2720875,0.019 -0.4375,0.094 -1.017646,0.4434 -2,0.9062 -2,0.9062 0,0 -2.822436,2.6037 -3.8750001,3.6563 -0.183054,0.1831 -0.192273,0.4738 0,0.7187 L 5.625,1040.2062 c 0.1748,0.2043 0.544297,0.2398 0.75,0.031 l 0.625,-0.875 1,0 0,8 4.5,0 4.5,0 0,-8 1,0 0.625,0.875 c 0.205703,0.2086 0.5752,0.1733 0.75,-0.031 l 2.5,-2.4688 c 0.192273,-0.2449 0.183054,-0.5356 0,-0.7187 -1.052564,-1.0526 -3.875,-3.6563 -3.875,-3.6563 0,0 -0.982354,-0.4628 -2,-0.9062 -0.66165,-0.298 -0.98639,0.1773 -1,0.4375 0.01766,1.0396 -1.090611,2.4973 -2.5,2.4687 -1.409389,0.029 -2.51766,-1.4291 -2.5,-2.4687 -0.010207,-0.1952 -0.1913953,-0.5111 -0.5625,-0.5313 z"
       id="path4103" />
  </g>
</svg>
