<?xml version="1.0" encoding="UTF-8" standalone="no"?>
<!-- Created with Inkscape (http://www.inkscape.org/) -->

<svg
   xmlns:dc="http://purl.org/dc/elements/1.1/"
   xmlns:cc="http://creativecommons.org/ns#"
   xmlns:rdf="http://www.w3.org/1999/02/22-rdf-syntax-ns#"
   xmlns:svg="http://www.w3.org/2000/svg"
   xmlns="http://www.w3.org/2000/svg"
   xmlns:sodipodi="http://sodipodi.sourceforge.net/DTD/sodipodi-0.dtd"
   xmlns:inkscape="http://www.inkscape.org/namespaces/inkscape"
   width="12"
   height="12"
   id="svg4764"
   version="1.1"
   inkscape:version="0.48.2 r9819"
   sodipodi:docname="clothing-store-12.svg">
  <defs
     id="defs4766" />
  <sodipodi:namedview
     id="base"
     pagecolor="#ffffff"
     bordercolor="#666666"
     borderopacity="1.0"
     inkscape:pageopacity="0.0"
     inkscape:pageshadow="2"
     inkscape:zoom="32"
     inkscape:cx="9.1798331"
     inkscape:cy="7.6291873"
     inkscape:document-units="px"
     inkscape:current-layer="layer1"
     showgrid="true"
     showguides="false"
     inkscape:guide-bbox="true"
     inkscape:window-width="1220"
     inkscape:window-height="791"
     inkscape:window-x="268"
     inkscape:window-y="113"
     inkscape:window-maximized="0"
     inkscape:showpageshadow="true"
     showborder="true"
     borderlayer="true">
    <inkscape:grid
       type="xygrid"
       id="grid4772"
       empspacing="2"
       visible="true"
       enabled="true"
       snapvisiblegridlinesonly="true"
       spacingx="0.5px"
       spacingy="0.5px"
       empcolor="#0000ff"
       empopacity="0.4627451" />
    <sodipodi:guide
       orientation="0,1"
       position="2,12"
       id="guide4789" />
    <sodipodi:guide
       orientation="1,0"
       position="12,10"
       id="guide4791" />
    <sodipodi:guide
       orientation="0,1"
       position="10,0"
       id="guide4793" />
    <sodipodi:guide
       orientation="1,0"
       position="0,9"
       id="guide4795" />
    <sodipodi:guide
       orientation="0,1"
       position="5,11"
       id="guide4797" />
    <sodipodi:guide
       orientation="1,0"
       position="11,7"
       id="guide4799" />
    <sodipodi:guide
       orientation="0,1"
       position="9,2"
       id="guide4801" />
    <sodipodi:guide
       orientation="1,0"
       position="2,5"
       id="guide4803" />
  </sodipodi:namedview>
  <metadata
     id="metadata4769">
    <rdf:RDF>
      <cc:Work
         rdf:about="">
        <dc:format>image/svg+xml</dc:format>
        <dc:type
           rdf:resource="http://purl.org/dc/dcmitype/StillImage" />
        <dc:title />
      </cc:Work>
    </rdf:RDF>
  </metadata>
  <g
     inkscape:label="Layer 1"
     inkscape:groupmode="layer"
     id="layer1"
     transform="translate(0,-1040.3622)"
     style="display:inline">
    <g
       id="g3075">
      <path
         transform="translate(0,1040.3622)"
         d="m 3.90625,0 a 1.0001,1.0001 0 0 0 -0.625,0.28125 l -1,1 A 1.0001,1.0001 0 0 0 2.09375,1.5625 l -1,2 A 1.0001,1.0001 0 0 0 1,4 l 0,1 a 1.0001,1.0001 0 0 0 1,1 l 1,0 0,4 a 1.0001,1.0001 0 0 0 1,1 l 5,0 a 1.0001,1.0001 0 0 0 1,-1 l 0,-4 1,0 A 1.0001,1.0001 0 0 0 12,5 L 12,4 A 1.0001,1.0001 0 0 0 11.90625,3.5625 l -1,-2 a 1.0001,1.0001 0 0 0 -0.1875,-0.28125 l -1,-1 A 1.0001,1.0001 0 0 0 9,0 L 8,0 A 1.0001,1.0001 0 0 0 7,1 L 7,1.5 A 1.0001,1.0001 0 0 0 6.53125,1.625 1.0001,1.0001 0 0 0 6.5,1.625 1.0001,1.0001 0 0 0 6,1.5 L 6,1 A 1.0001,1.0001 0 0 0 5,0 L 4,0 A 1.0001,1.0001 0 0 0 3.90625,0 z"
         id="path3071"
         style="opacity:0.3;fill:#ffffff;fill-opacity:1;stroke:none"
         inkscape:original="M 4 1 L 3 2 L 2 4 L 2 5 L 4 5 L 4 10 L 9 10 L 9 5 L 11 5 L 11 4 L 10 2 L 9 1 L 8 1 L 8 2.5 L 7 2.5 L 7 3 L 6 3 L 6 2.5 L 5 2.5 L 5 1 L 4 1 z "
         inkscape:radius="1"
         sodipodi:type="inkscape:offset" />
      <path
         id="rect3131"
         transform="translate(0,1040.3622)"
         d="M 4 1 L 3 2 L 2 4 L 2 5 L 4 5 L 4 10 L 9 10 L 9 5 L 11 5 L 11 4 L 10 2 L 9 1 L 8 1 L 8 2.5 L 7 2.5 L 7 3 L 6 3 L 6 2.5 L 5 2.5 L 5 1 L 4 1 z "
         style="fill:#444444;fill-opacity:1;stroke:none" />
    </g>
  </g>
</svg>
