<?xml version="1.0" encoding="UTF-8" standalone="no"?>
<!-- Created with Inkscape (http://www.inkscape.org/) -->

<svg
   xmlns:dc="http://purl.org/dc/elements/1.1/"
   xmlns:cc="http://creativecommons.org/ns#"
   xmlns:rdf="http://www.w3.org/1999/02/22-rdf-syntax-ns#"
   xmlns:svg="http://www.w3.org/2000/svg"
   xmlns="http://www.w3.org/2000/svg"
   xmlns:sodipodi="http://sodipodi.sourceforge.net/DTD/sodipodi-0.dtd"
   xmlns:inkscape="http://www.inkscape.org/namespaces/inkscape"
   width="18"
   height="18"
   id="svg4619"
   version="1.1"
   inkscape:version="0.48.2 r9819"
   sodipodi:docname="clothing-store-18.svg">
  <defs
     id="defs4621" />
  <sodipodi:namedview
     id="base"
     pagecolor="#ffffff"
     bordercolor="#666666"
     borderopacity="1.0"
     inkscape:pageopacity="0.0"
     inkscape:pageshadow="2"
     inkscape:zoom="11.313709"
     inkscape:cx="5.1130391"
     inkscape:cy="11.110056"
     inkscape:document-units="px"
     inkscape:current-layer="layer1"
     showgrid="false"
     showguides="false"
     inkscape:guide-bbox="true"
     inkscape:window-width="1294"
     inkscape:window-height="751"
     inkscape:window-x="-38"
     inkscape:window-y="28"
     inkscape:window-maximized="0">
    <inkscape:grid
       type="xygrid"
       id="grid4627"
       empspacing="2"
       visible="true"
       enabled="true"
       snapvisiblegridlinesonly="true"
       spacingx="0.5px"
       spacingy="0.5px"
       empcolor="#0000ff"
       empopacity="0.23137255" />
    <sodipodi:guide
       orientation="0,1"
       position="7,18"
       id="guide4659" />
    <sodipodi:guide
       orientation="1,0"
       position="18,9"
       id="guide4661" />
    <sodipodi:guide
       orientation="0,1"
       position="16,17"
       id="guide4663" />
    <sodipodi:guide
       orientation="1,0"
       position="17,14"
       id="guide4665" />
    <sodipodi:guide
       orientation="1,0"
       position="0,16"
       id="guide4667" />
    <sodipodi:guide
       orientation="0,1"
       position="8,0"
       id="guide4669" />
    <sodipodi:guide
       orientation="1,0"
       position="2,10"
       id="guide4671" />
    <sodipodi:guide
       orientation="0,1"
       position="12,2"
       id="guide4673" />
  </sodipodi:namedview>
  <metadata
     id="metadata4624">
    <rdf:RDF>
      <cc:Work
         rdf:about="">
        <dc:format>image/svg+xml</dc:format>
        <dc:type
           rdf:resource="http://purl.org/dc/dcmitype/StillImage" />
        <dc:title />
      </cc:Work>
    </rdf:RDF>
  </metadata>
  <g
     inkscape:groupmode="layer"
     id="layer3"
     inkscape:label="original 2"
     sodipodi:insensitive="true"
     style="display:none">
    <rect
       style="fill:#ffffff;fill-opacity:1"
       id="rect3109"
       width="0.71433717"
       height="7.1821342"
       x="18.845631"
       y="7.6636419" />
    <path
       sodipodi:type="arc"
       style="fill:#ffffff;fill-opacity:1;stroke:none"
       id="path3336"
       sodipodi:cx="13"
       sodipodi:cy="-4"
       sodipodi:rx="3"
       sodipodi:ry="3"
       d="m 16,-4 a 3,3 0 1 1 -6,0 3,3 0 1 1 6,0 z"
       transform="matrix(0.92113239,0,0,-1.0527203,-0.95656843,-0.5253173)" />
    <rect
       style="fill:#ff0000;fill-opacity:1;stroke:none"
       id="rect3340"
       width="8.6849613"
       height="10.325126"
       x="5.3028789"
       y="3.8444848" />
    <path
       sodipodi:nodetypes="ccccc"
       inkscape:connector-curvature="0"
       id="path3342"
       d="M 5,2.7022727 2.1447114,6.9018607 4.2856628,8.4169698 5,6.9882954 z"
       style="fill:#ff0000;fill-opacity:1;stroke:none" />
    <path
       inkscape:connector-curvature="0"
       id="path3344"
       d="M 5,2.7022727 7.8573485,1.9879351 9.2860227,6.9882954 5,6.9882954 z"
       style="fill:#ff0000;fill-opacity:1;stroke:none"
       sodipodi:nodetypes="ccccc" />
    <rect
       y="6.9882836"
       x="13.572045"
       height="7.8954339"
       width="0.71433687"
       id="rect3352"
       style="fill:#ffffff;fill-opacity:1" />
    <rect
       style="fill:#ffffff;fill-opacity:1"
       id="rect3346"
       width="0.71433717"
       height="7.8954339"
       x="5"
       y="6.9882836" />
    <path
       style="fill:#ff0000;fill-opacity:1;stroke:none"
       d="m 14.286383,2.7022727 2.855289,4.199588 -2.140951,1.5151091 -0.714338,-1.4286744 z"
       id="path3354"
       inkscape:connector-curvature="0"
       sodipodi:nodetypes="ccccc" />
    <path
       sodipodi:nodetypes="ccccc"
       style="fill:#ff0000;fill-opacity:1;stroke:none"
       d="m 14.286383,2.7022727 -2.857348,-0.7143376 -1.428675,5.0003603 4.286023,0 z"
       id="path3356"
       inkscape:connector-curvature="0" />
    <path
       transform="matrix(0.71433716,0,0,-0.95244757,0.71397692,-1.8218393)"
       d="m 16,-4 a 3,3 0 1 1 -6,0 3,3 0 1 1 6,0 z"
       sodipodi:ry="3"
       sodipodi:rx="3"
       sodipodi:cy="-4"
       sodipodi:cx="13"
       id="path3338"
       style="fill:#ffffff;fill-opacity:1;stroke:none"
       sodipodi:type="arc" />
  </g>
  <g
     inkscape:groupmode="layer"
     id="layer2"
     inkscape:label="original"
     sodipodi:insensitive="true"
     style="display:none">
    <path
       style="fill:#ff0000;fill-opacity:1;stroke:none"
       d="m 6.6153846,2.9230996 c -0.7692308,0 -4.6153846,0 -4.6153846,6.9231 l 2.3076923,0 0,-1.5385 0.7692308,0 c 0,2.8047004 0,5.1707004 0,7.6923004 l 8.4615389,0 c 0,-2.6359 0,-5.3955 0,-7.6683004 l 0.76923,0 0,1.5145 2.307693,0 c 0,-6.8717 -3.806836,-6.9302 -4.615385,-6.9231 0,1.6993 -1.205388,3.0769 -2.6923077,3.0769 -1.48692,0 -2.6923077,-1.3776 -2.6923077,-3.0769 z"
       id="rect3192"
       inkscape:connector-curvature="0"
       sodipodi:nodetypes="ccccccccccccsc" />
  </g>
  <g
     inkscape:label="Layer 1"
     inkscape:groupmode="layer"
     id="layer1"
     transform="translate(0,-1034.3622)"
     style="display:inline">
    <path
       sodipodi:nodetypes="ccccccccccccsc"
       inkscape:connector-curvature="0"
       id="path3017"
       d="m -11.923077,1036.9536 c -0.769231,0 -4.615385,0 -4.615385,6.9231 l 2.307692,0 0,-1.5385 0.769231,0 c 0,2.8047 0,5.1707 0,7.6923 l 8.461539,0 c 0,-2.6359 0,-5.3955 0,-7.6683 l 0.76923,0 0,1.5145 2.307693,0 c 0,-6.8717 -3.806836,-6.9302 -4.615385,-6.9231 0,1.6993 -1.205388,3.0769 -2.6923077,3.0769 -1.4869203,0 -2.6923073,-1.3776 -2.6923073,-3.0769 z"
       style="fill:#444444;fill-opacity:1;stroke:none" />
    <rect
       style="fill:#444444;fill-opacity:1;stroke:none"
       id="rect3038"
       width="9"
       height="10.500038"
       x="5"
       y="1084.3622" />
    <path
       style="fill:#444444;fill-opacity:1;stroke:none;display:inline"
       d="m 4,1081.3622 11,0 2,3 -15,0 z"
       id="rect3059"
       inkscape:connector-curvature="0"
       sodipodi:nodetypes="ccccc" />
    <path
       sodipodi:nodetypes="ccccc"
       inkscape:connector-curvature="0"
       id="path3062"
       d="m 7,1079.8622 5,0 3,1.5 -11,0 z"
       style="fill:#444444;fill-opacity:1;stroke:none;display:inline" />
    <rect
       style="fill:#444444;fill-opacity:1;stroke:none;display:inline"
       id="rect3068"
       width="2"
       height="4.5000324"
       x="2"
       y="1084.3622" />
    <rect
       y="1084.3622"
       x="15"
       height="4.4999938"
       width="2"
       id="rect3070"
       style="fill:#444444;fill-opacity:1;stroke:none;display:inline" />
    <rect
       style="fill:#444444;fill-opacity:1;stroke:none;display:inline"
       id="rect3084"
       width="11.375"
       height="2.750057"
       x="3.625"
       y="1084.1122" />
    <path
       sodipodi:type="arc"
       style="fill:#ffffff;fill-opacity:1;stroke:none"
       id="path3057"
       sodipodi:cx="10.25"
       sodipodi:cy="4.25"
       sodipodi:rx="2.75"
       sodipodi:ry="2.75"
       d="m 13,4.25 a 2.75,2.75 0 1 1 -5.5,0 2.75,2.75 0 1 1 5.5,0 z"
       transform="matrix(0.90909091,0,0,1.2727355,0.18181817,1074.9531)" />
    <rect
       y="1040.8622"
       x="27"
       height="8.5000172"
       width="9"
       id="rect3060"
       style="fill:#444444;fill-opacity:1;stroke:none" />
    <path
       sodipodi:nodetypes="ccccc"
       inkscape:connector-curvature="0"
       id="path3063"
       d="m 26,1037.8622 11,0 2,3 -15,0 z"
       style="fill:#444444;fill-opacity:1;stroke:none;display:inline" />
    <path
       style="fill:#444444;fill-opacity:1;stroke:none;display:inline"
       d="m 29,1036.3622 5,0 3,1.5 -11,0 z"
       id="path3065"
       inkscape:connector-curvature="0"
       sodipodi:nodetypes="ccccc" />
    <rect
       y="1040.8622"
       x="24"
       height="3.00001"
       width="2"
       id="rect3067"
       style="fill:#444444;fill-opacity:1;stroke:none;display:inline" />
    <rect
       style="fill:#444444;fill-opacity:1;stroke:none;display:inline"
       id="rect3069"
       width="2"
       height="2.9999843"
       x="37"
       y="1040.8622" />
    <rect
       y="1040.6122"
       x="25.625"
       height="1.250018"
       width="11.375"
       id="rect3071"
       style="fill:#444444;fill-opacity:1;stroke:none;display:inline" />
    <path
       transform="matrix(0.90909091,0,0,1.2727355,22.181818,1031.4531)"
       d="M 13,4.25 C 13,5.7687831 11.768783,7 10.25,7 8.7312169,7 7.5,5.7687831 7.5,4.25 7.5,2.7312169 8.7312169,1.5 10.25,1.5 11.768783,1.5 13,2.7312169 13,4.25 z"
       sodipodi:ry="2.75"
       sodipodi:rx="2.75"
       sodipodi:cy="4.25"
       sodipodi:cx="10.25"
       id="path3073"
       style="fill:#ffffff;fill-opacity:1;stroke:none"
       sodipodi:type="arc" />
    <rect
       y="1017.9872"
       x="5"
       height="10.500038"
       width="9"
       id="rect3075"
       style="fill:#444444;fill-opacity:1;stroke:none" />
    <path
       sodipodi:nodetypes="ccccc"
       inkscape:connector-curvature="0"
       id="path3077"
       d="m 4,1014.9872 11,0 2,3 -15,0 z"
       style="fill:#444444;fill-opacity:1;stroke:none;display:inline" />
    <path
       style="fill:#444444;fill-opacity:1;stroke:none;display:inline"
       d="m 7,1013.4872 5,0 3,1.5 -11,0 z"
       id="path3079"
       inkscape:connector-curvature="0"
       sodipodi:nodetypes="ccccc" />
    <rect
       y="1017.9872"
       x="2"
       height="4.5000324"
       width="2"
       id="rect3081"
       style="fill:#444444;fill-opacity:1;stroke:none;display:inline" />
    <rect
       style="fill:#444444;fill-opacity:1;stroke:none;display:inline"
       id="rect3083"
       width="2"
       height="4.4999938"
       x="15"
       y="1017.9872" />
    <rect
       y="1017.7372"
       x="3.625"
       height="2.750057"
       width="11.375"
       id="rect3085"
       style="fill:#444444;fill-opacity:1;stroke:none;display:inline" />
    <path
       transform="matrix(0.90909091,0,0,1.2727355,0.18181818,1008.5781)"
       d="M 13,4.25 C 13,5.7687831 11.768783,7 10.25,7 8.7312169,7 7.5,5.7687831 7.5,4.25 7.5,2.7312169 8.7312169,1.5 10.25,1.5 11.768783,1.5 13,2.7312169 13,4.25 z"
       sodipodi:ry="2.75"
       sodipodi:rx="2.75"
       sodipodi:cy="4.25"
       sodipodi:cx="10.25"
       id="path3087"
       style="fill:#ffffff;fill-opacity:1;stroke:none"
       sodipodi:type="arc" />
    <rect
       style="fill:#ffffff;fill-opacity:1"
       id="rect3109-7"
       width="0.71433717"
       height="7.1821342"
       x="18.845631"
       y="1042.0259" />
    <path
       sodipodi:type="arc"
       style="fill:#ffffff;fill-opacity:1;stroke:none"
       id="path3336-9"
       sodipodi:cx="13"
       sodipodi:cy="-4"
       sodipodi:rx="3"
       sodipodi:ry="3"
       d="m 16,-4 c 0,1.6568542 -1.343146,3 -3,3 -1.656854,0 -3,-1.3431458 -3,-3 0,-1.6568542 1.343146,-3 3,-3 1.656854,0 3,1.3431458 3,3 z"
       transform="matrix(0.92113239,0,0,-1.0527203,-0.9569284,1033.8486)" />
    <path
       style="fill:#444444;fill-opacity:1;stroke:none"
       d="M 7 2 L 5 3 L 2 7 L 4 9 L 5 8 L 6 8 L 6 15 L 13 15 L 13 8 L 14 8 L 15 9 L 17 7 L 14 3 L 12 2 C 12 2.7730997 11.743986 3.4680836 11.34375 4 C 10.886227 4.6080514 10.236463 5 9.5 5 C 8.7635372 5 8.1137729 4.6080514 7.65625 4 C 7.2560143 3.4680836 7 2.7730997 7 2 z "
       transform="translate(0,1034.3622)"
       id="rect3340-6" />
    <rect
       y="1065.9606"
       x="18.845631"
       height="7.1821342"
       width="0.71433717"
       id="rect3055"
       style="fill:#ffffff;fill-opacity:1" />
    <path
       transform="matrix(0.92113239,0,0,-1.0527203,-0.9569284,1057.7833)"
       d="m 16,-4 a 3,3 0 1 1 -6,0 3,3 0 1 1 6,0 z"
       sodipodi:ry="3"
       sodipodi:rx="3"
       sodipodi:cy="-4"
       sodipodi:cx="13"
       id="path3058"
       style="fill:#ffffff;fill-opacity:1;stroke:none"
       sodipodi:type="arc" />
    <rect
       y="1062.1531"
       x="5.3025188"
       height="11.143873"
       width="8.6849613"
       id="rect3061"
       style="fill:#444444;fill-opacity:1;stroke:none" />
    <rect
       style="fill:#ffffff;fill-opacity:1"
       id="rect3063"
       width="1.2863818"
       height="8.5117884"
       x="13"
       y="1065.2852" />
    <rect
       y="1065.2852"
       x="5"
       height="8.5117884"
       width="0.99999976"
       id="rect3065"
       style="fill:#ffffff;fill-opacity:1" />
    <path
       style="fill:#444444;fill-opacity:1;stroke:none"
       d="m 5,1061.2969 -3,4 2,2 1,-1 z"
       id="path3067"
       inkscape:connector-curvature="0"
       sodipodi:nodetypes="ccccc" />
    <path
       sodipodi:nodetypes="ccccc"
       style="fill:#444444;fill-opacity:1;stroke:none"
       d="m 5,1061.2969 2,-1 2,6 -4,0 z"
       id="path3069"
       inkscape:connector-curvature="0" />
    <path
       sodipodi:nodetypes="ccccc"
       inkscape:connector-curvature="0"
       id="path3071"
       d="m 14,1061.2969 3,4 -2,2 -1,-1 z"
       style="fill:#444444;fill-opacity:1;stroke:none" />
    <path
       inkscape:connector-curvature="0"
       id="path3074"
       d="m 14,1061.2969 -2,-1 -2,6 4,0 z"
       style="fill:#444444;fill-opacity:1;stroke:none"
       sodipodi:nodetypes="ccccc" />
    <path
       sodipodi:type="arc"
       style="fill:#ffffff;fill-opacity:1;stroke:none"
       id="path3076"
       sodipodi:cx="13"
       sodipodi:cy="-4"
       sodipodi:rx="3"
       sodipodi:ry="3"
       d="m 16,-4 a 3,3 0 1 1 -6,0 3,3 0 1 1 6,0 z"
       transform="matrix(0.83333335,0,0,-0.97822941,-1.3333335,1056.4493)" />
  </g>
</svg>
