<?xml version="1.0" encoding="UTF-8" standalone="no"?>
<!-- Created with Inkscape (http://www.inkscape.org/) -->

<svg
   xmlns:dc="http://purl.org/dc/elements/1.1/"
   xmlns:cc="http://creativecommons.org/ns#"
   xmlns:rdf="http://www.w3.org/1999/02/22-rdf-syntax-ns#"
   xmlns:svg="http://www.w3.org/2000/svg"
   xmlns="http://www.w3.org/2000/svg"
   version="1.1"
   width="18"
   height="18"
   id="svg4619">
  <defs
     id="defs4621" />
  <metadata
     id="metadata4624">
    <rdf:RDF>
      <cc:Work
         rdf:about="">
        <dc:format>image/svg+xml</dc:format>
        <dc:type
           rdf:resource="http://purl.org/dc/dcmitype/StillImage" />
        <dc:title></dc:title>
      </cc:Work>
    </rdf:RDF>
  </metadata>
  <g
     transform="translate(0,-1034.3622)"
     id="layer1"
     style="display:inline">
    <path
       d="M 7,2 5,3 2,7 4,9 5,8 l 1,0 0,7 7,0 0,-7 1,0 1,1 L 17,7 14,3 12,2 C 12,2.7730997 11.743986,3.4680836 11.34375,4 10.886227,4.6080514 10.236463,5 9.5,5 8.7635372,5 8.1137729,4.6080514 7.65625,4 7.2560143,3.4680836 7,2.7730997 7,2 z"
       transform="translate(0,1034.3622)"
       id="path4569"
       style="opacity:0.3;color:#000000;fill:#ffffff;fill-opacity:1;fill-rule:nonzero;stroke:#ffffff;stroke-width:2;stroke-linecap:butt;stroke-linejoin:round;stroke-miterlimit:4;stroke-opacity:1;stroke-dasharray:none;stroke-dashoffset:0;marker:none;visibility:visible;display:inline;overflow:visible;enable-background:accumulate" />
    <path
       d="M 7,2 5,3 2,7 4,9 5,8 l 1,0 0,7 7,0 0,-7 1,0 1,1 L 17,7 14,3 12,2 C 12,2.7730997 11.743986,3.4680836 11.34375,4 10.886227,4.6080514 10.236463,5 9.5,5 8.7635372,5 8.1137729,4.6080514 7.65625,4 7.2560143,3.4680836 7,2.7730997 7,2 z"
       transform="translate(0,1034.3622)"
       id="rect3340-6"
       style="fill:#444444;fill-opacity:1;stroke:none" />
  </g>
  <rect
     width="18"
     height="18"
     x="0"
     y="0"
     id="canvas"
     style="fill:none;stroke:none;visibility:hidden" />
</svg>
