<?xml version="1.0" encoding="UTF-8" standalone="no"?>
<!-- Created with Inkscape (http://www.inkscape.org/) -->

<svg
   xmlns:dc="http://purl.org/dc/elements/1.1/"
   xmlns:cc="http://creativecommons.org/ns#"
   xmlns:rdf="http://www.w3.org/1999/02/22-rdf-syntax-ns#"
   xmlns:svg="http://www.w3.org/2000/svg"
   xmlns="http://www.w3.org/2000/svg"
   xmlns:inkscape="http://www.inkscape.org/namespaces/inkscape"
   version="1.1"
   width="24"
   height="24"
   id="svg4460">
  <defs
     id="defs4462" />
  <metadata
     id="metadata4465">
    <rdf:RDF>
      <cc:Work
         rdf:about="">
        <dc:format>image/svg+xml</dc:format>
        <dc:type
           rdf:resource="http://purl.org/dc/dcmitype/StillImage" />
        <dc:title />
      </cc:Work>
    </rdf:RDF>
  </metadata>
  <g
     transform="translate(0,-1028.3622)"
     id="layer1">
    <g
       transform="translate(-240,-46)"
       id="college-24"
       style="display:inline">
      <g
         id="g16649">
        <g
           transform="translate(240,68)"
           id="g7474">
          <path
             d="M 12.5,7 3,12 12.5,17 18,14.21875 c 0,0 0,2.520833 0,3.78125 0,2 2,2 2,2 l 0,-1 c 0,0 -1,-0.05719 -1,-1 0,-1.5 0,-4.34375 0,-4.34375 L 22,12 z M 8,16 8,18 c 0,0.4967 0.3250891,1.1625 1,1.5 l 3.5,1.5 3,-1.5 C 16.174911,19.1625 17.047132,18.494459 17,18 l 0,-2 -4.5,2.1875 z"
             inkscape:connector-curvature="0"
             transform="translate(0,1004.3622)"
             id="path14929"
             style="opacity:0.3;color:#000000;fill:none;stroke:#ffffff;stroke-width:2;stroke-linecap:round;stroke-linejoin:round;stroke-miterlimit:4;stroke-opacity:1;stroke-dasharray:none;stroke-dashoffset:0;marker:none;visibility:visible;display:inline;overflow:visible;enable-background:accumulate" />
          <path
             d="M 12.5,7 3,12 12.5,17 18,14.21875 c 0,0 0,2.520833 0,3.78125 0,2 2,2 2,2 l 0,-1 c 0,0 -1,-0.05719 -1,-1 0,-1.5 0,-4.34375 0,-4.34375 L 22,12 z M 8,16 8,18 c 0,0.4967 0.3250891,1.1625 1,1.5 l 3.5,1.5 3,-1.5 C 16.174911,19.1625 17.047132,18.494459 17,18 l 0,-2 -4.5,2.1875 z"
             inkscape:connector-curvature="0"
             transform="translate(0,1004.3622)"
             id="path7442"
             style="color:#000000;fill:#444444;fill-opacity:1;stroke:none;stroke-width:2;marker:none;visibility:visible;display:inline;overflow:visible;enable-background:accumulate" />
        </g>
      </g>
    </g>
  </g>
  <rect
     width="24"
     height="24"
     x="0"
     y="0"
     id="canvas"
     style="fill:none;stroke:none;visibility:hidden" />
</svg>
