<?xml version="1.0" encoding="UTF-8" standalone="no"?>
<!-- Created with Inkscape (http://www.inkscape.org/) -->

<svg
   xmlns:dc="http://purl.org/dc/elements/1.1/"
   xmlns:cc="http://creativecommons.org/ns#"
   xmlns:rdf="http://www.w3.org/1999/02/22-rdf-syntax-ns#"
   xmlns:svg="http://www.w3.org/2000/svg"
   xmlns="http://www.w3.org/2000/svg"
   xmlns:inkscape="http://www.inkscape.org/namespaces/inkscape"
   version="1.1"
   width="18"
   height="18"
   id="svg4619">
  <defs
     id="defs4621" />
  <metadata
     id="metadata4624">
    <rdf:RDF>
      <cc:Work
         rdf:about="">
        <dc:format>image/svg+xml</dc:format>
        <dc:type
           rdf:resource="http://purl.org/dc/dcmitype/StillImage" />
        <dc:title />
      </cc:Work>
    </rdf:RDF>
  </metadata>
  <g
     transform="translate(0,-1034.3622)"
     id="layer1">
    <g
       transform="translate(-264,-40)"
       id="college-18"
       style="display:inline">
      <g
         transform="translate(-1,0)"
         id="g21624">
        <path
           d="m 274.5,1078.3622 -6.5,3.5 6.5,3.5 4.5,-2.3437 0,3.5625 c 0,1.7812 1.5,1.5312 1.5,1.5312 l 0,-0.75 c 0,0 -0.78125,0 -0.78125,-0.7812 l 0,-3.9688 1.28125,-0.75 z m -3.5,6.5 0,1.4375 c 0,0.3588 0.51257,0.8187 1,1.0625 l 2.5,1 2.5,-1 c 0.48743,-0.2438 1,-0.7037 1,-1.0625 l 0,-1.4375 -3.5,1.5 z"
           inkscape:connector-curvature="0"
           id="path13130"
           style="opacity:0.3;color:#000000;fill:none;stroke:#ffffff;stroke-width:2;stroke-linecap:round;stroke-linejoin:round;stroke-miterlimit:4;stroke-opacity:1;stroke-dasharray:none;stroke-dashoffset:0;marker:none;visibility:visible;display:inline;overflow:visible;enable-background:accumulate" />
        <path
           d="m 274.5,1078.3622 -6.5,3.5 6.5,3.5 4.5,-2.3437 0,3.5625 c 0,1.7812 1.5,1.5312 1.5,1.5312 l 0,-0.75 c 0,0 -0.78125,0 -0.78125,-0.7812 l 0,-3.9688 1.28125,-0.75 z m -3.5,6.5 0,1.4375 c 0,0.3588 0.51257,0.8187 1,1.0625 l 2.5,1 2.5,-1 c 0.48743,-0.2438 1,-0.7037 1,-1.0625 l 0,-1.4375 -3.5,1.5 z"
           inkscape:connector-curvature="0"
           id="path7442-0"
           style="color:#000000;fill:#444444;fill-opacity:1;stroke:none;stroke-width:2;marker:none;visibility:visible;display:inline;overflow:visible;enable-background:accumulate" />
      </g>
    </g>
  </g>
  <rect
     width="18"
     height="18"
     x="0"
     y="0"
     id="canvas"
     style="fill:none;stroke:none;visibility:hidden" />
</svg>
