<?xml version="1.0" encoding="UTF-8" standalone="no"?>
<!-- Created with Inkscape (http://www.inkscape.org/) -->

<svg
   xmlns:dc="http://purl.org/dc/elements/1.1/"
   xmlns:cc="http://creativecommons.org/ns#"
   xmlns:rdf="http://www.w3.org/1999/02/22-rdf-syntax-ns#"
   xmlns:svg="http://www.w3.org/2000/svg"
   xmlns="http://www.w3.org/2000/svg"
   xmlns:inkscape="http://www.inkscape.org/namespaces/inkscape"
   version="1.1"
   width="18"
   height="18"
   id="svg4619">
  <defs
     id="defs4621" />
  <metadata
     id="metadata4624">
    <rdf:RDF>
      <cc:Work
         rdf:about="">
        <dc:format>image/svg+xml</dc:format>
        <dc:type
           rdf:resource="http://purl.org/dc/dcmitype/StillImage" />
        <dc:title />
      </cc:Work>
    </rdf:RDF>
  </metadata>
  <g
     transform="translate(0,-1034.3622)"
     id="layer1">
    <g
       transform="translate(-654.00002,-63.999983)"
       id="commercial-18"
       style="display:inline">
      <path
         d="m 658.78125,1100.3622 -0.78125,0.7813 0,13.2187 11,0 0,-13.2187 -0.78125,-0.7813 z m 1.21875,2.5 2,0 0,0.5 -2,0 z m 5,0 2,0 0,0.5 -2,0 z m -5,2 2,0 0,0.5 -2,0 z m 5,0 2,0 0,0.5 -2,0 z m -5,2 2,0 0,0.5 -2,0 z m 5,0 2,0 0,0.5 -2,0 z m -5,2 2,0 0,0.5 -2,0 z m 5,0 2,0 0,0.5 -2,0 z"
         inkscape:connector-curvature="0"
         id="path8954"
         style="opacity:0.3;color:#000000;fill:#ffffff;fill-opacity:1;fill-rule:nonzero;stroke:#ffffff;stroke-width:2;stroke-linecap:butt;stroke-linejoin:round;stroke-miterlimit:4;stroke-opacity:1;stroke-dasharray:none;stroke-dashoffset:0;marker:none;visibility:visible;display:inline;overflow:visible;enable-background:accumulate" />
      <path
         d="M 778.78125,50 778,50.78125 778,64 l 4,0 0,-3 3,0 0,3 4,0 0,-13.21875 L 788.21875,50 l -9.4375,0 z M 780,52 l 2,0 0,1 -2,0 0,-1 z m 5,0 2,0 0,1 -2,0 0,-1 z m -5,2 2,0 0,1 -2,0 0,-1 z m 5,0 2,0 0,1 -2,0 0,-1 z m -5,2 2,0 0,1 -2,0 0,-1 z m 5,0 2,0 0,1 -2,0 0,-1 z m -5,2 2,0 0,1 -2,0 0,-1 z m 5,0 2,0 0,1 -2,0 0,-1 z"
         inkscape:connector-curvature="0"
         transform="translate(-120,1050.3622)"
         id="path5406"
         style="color:#000000;fill:#444444;fill-opacity:1;fill-rule:nonzero;stroke:none;stroke-width:2;marker:none;visibility:visible;display:inline;overflow:visible;enable-background:accumulate" />
    </g>
  </g>
  <rect
     width="18"
     height="18"
     x="0"
     y="0"
     id="canvas"
     style="fill:none;stroke:none;visibility:hidden" />
</svg>
