<?xml version="1.0" encoding="UTF-8" standalone="no"?>
<!-- Created with Inkscape (http://www.inkscape.org/) -->

<svg
   xmlns:dc="http://purl.org/dc/elements/1.1/"
   xmlns:cc="http://creativecommons.org/ns#"
   xmlns:rdf="http://www.w3.org/1999/02/22-rdf-syntax-ns#"
   xmlns:svg="http://www.w3.org/2000/svg"
   xmlns="http://www.w3.org/2000/svg"
   xmlns:inkscape="http://www.inkscape.org/namespaces/inkscape"
   version="1.1"
   width="24"
   height="24"
   id="svg4460">
  <defs
     id="defs4462" />
  <metadata
     id="metadata4465">
    <rdf:RDF>
      <cc:Work
         rdf:about="">
        <dc:format>image/svg+xml</dc:format>
        <dc:type
           rdf:resource="http://purl.org/dc/dcmitype/StillImage" />
        <dc:title />
      </cc:Work>
    </rdf:RDF>
  </metadata>
  <g
     transform="translate(0,-1028.3622)"
     id="layer1">
    <g
       transform="translate(-474,-214)"
       id="cricket-24"
       style="display:inline">
      <g
         id="g21385">
        <path
           d="m 479,1246.3623 c -1,1 -1,2 -1,2 l 10,10 1.5,-0.5 4,4 c 0.31628,0.3163 0.50625,0.5 0.90625,0.5 0.125,0 0.28125,0 0.4375,-0.1562 0.1563,-0.1563 0.15625,-0.3125 0.15625,-0.4375 0,-0.4 -0.21788,-0.6242 -0.5,-0.9063 l -4,-4 0.5,-1.5 -10,-10 c 0,0 -1,0 -2,1 z m 3.5,9 c -0.82843,0 -1.5,0.6716 -1.5,1.5 0,0.8284 0.67157,1.5 1.5,1.5 0.82843,0 1.5,-0.6716 1.5,-1.5 0,-0.8284 -0.67157,-1.5 -1.5,-1.5 z"
           inkscape:connector-curvature="0"
           id="path9409"
           style="opacity:0.3;color:#000000;fill:none;stroke:#ffffff;stroke-width:2;stroke-linecap:butt;stroke-linejoin:miter;stroke-miterlimit:4;stroke-opacity:1;stroke-dasharray:none;stroke-dashoffset:0;marker:none;visibility:visible;display:inline;overflow:visible;enable-background:accumulate" />
        <path
           d="m 479,1246.3623 c -1,1 -1,2 -1,2 l 10,10 1.5,-0.5 4,4 c 0.31628,0.3163 0.50625,0.5 0.90625,0.5 0.125,0 0.28125,0 0.4375,-0.1562 0.1563,-0.1563 0.15625,-0.3125 0.15625,-0.4375 0,-0.4 -0.21788,-0.6242 -0.5,-0.9063 l -4,-4 0.5,-1.5 -10,-10 c 0,0 -1,0 -2,1 z m 3.5,9 c -0.82843,0 -1.5,0.6716 -1.5,1.5 0,0.8284 0.67157,1.5 1.5,1.5 0.82843,0 1.5,-0.6716 1.5,-1.5 0,-0.8284 -0.67157,-1.5 -1.5,-1.5 z"
           inkscape:connector-curvature="0"
           id="path9336-3"
           style="color:#000000;fill:#444444;fill-opacity:1;fill-rule:nonzero;stroke:none;stroke-width:2;marker:none;visibility:visible;display:inline;overflow:visible;enable-background:accumulate" />
      </g>
    </g>
  </g>
  <rect
     width="24"
     height="24"
     x="0"
     y="0"
     id="canvas"
     style="fill:none;stroke:none;visibility:hidden" />
</svg>
