<?xml version="1.0" encoding="UTF-8" standalone="no"?>
<!-- Created with Inkscape (http://www.inkscape.org/) -->

<svg
   xmlns:dc="http://purl.org/dc/elements/1.1/"
   xmlns:cc="http://creativecommons.org/ns#"
   xmlns:rdf="http://www.w3.org/1999/02/22-rdf-syntax-ns#"
   xmlns:svg="http://www.w3.org/2000/svg"
   xmlns="http://www.w3.org/2000/svg"
   xmlns:inkscape="http://www.inkscape.org/namespaces/inkscape"
   version="1.1"
   width="18"
   height="18"
   id="svg4619">
  <defs
     id="defs4621" />
  <metadata
     id="metadata4624">
    <rdf:RDF>
      <cc:Work
         rdf:about="">
        <dc:format>image/svg+xml</dc:format>
        <dc:type
           rdf:resource="http://purl.org/dc/dcmitype/StillImage" />
        <dc:title />
      </cc:Work>
    </rdf:RDF>
  </metadata>
  <g
     transform="translate(0,-1034.3622)"
     id="layer1">
    <g
       transform="translate(-498,-208)"
       id="cricket-18"
       style="display:inline">
      <g
         transform="translate(-1,-1)"
         id="g21398">
        <path
           d="m 504.4375,1245.331 c 0,0 -0.8125,0 -1.625,0.8125 -0.8125,0.8125 -0.8125,1.625 -0.8125,1.625 l 8.125,8.125 1.21875,-0.4062 2.4375,2.4375 c 0.25698,0.2569 0.425,0.4062 0.75,0.4062 0.10156,0 0.21679,0 0.34375,-0.125 0.12699,-0.127 0.125,-0.2421 0.125,-0.3437 0,-0.325 -0.17703,-0.5208 -0.40625,-0.75 l -2.4375,-2.4375 0.40625,-1.2188 -8.125,-8.125 z m 2.3125,10.0313 c -0.69036,0 -1.25,0.5596 -1.25,1.25 0,0.6903 0.55964,1.25 1.25,1.25 0.69036,0 1.25,-0.5597 1.25,-1.25 0,-0.6904 -0.55964,-1.25 -1.25,-1.25 z"
           inkscape:connector-curvature="0"
           id="path9336-3-6-1"
           style="opacity:0.3;color:#000000;fill:none;stroke:#ffffff;stroke-width:2;stroke-linecap:round;stroke-linejoin:round;stroke-miterlimit:4;stroke-opacity:1;stroke-dasharray:none;stroke-dashoffset:0;marker:none;visibility:visible;display:inline;overflow:visible;enable-background:accumulate" />
        <path
           d="m 504.4375,1245.331 c 0,0 -0.8125,0 -1.625,0.8125 -0.8125,0.8125 -0.8125,1.625 -0.8125,1.625 l 8.125,8.125 1.21875,-0.4063 2.4375,2.4375 c 0.25698,0.2569 0.425,0.4063 0.75,0.4063 0.10156,0 0.21679,0 0.34375,-0.125 0.12699,-0.127 0.125,-0.2422 0.125,-0.3438 0,-0.325 -0.17703,-0.5208 -0.40625,-0.75 l -2.4375,-2.4375 0.40625,-1.2187 -8.125,-8.125 z m 2.3125,10.0312 c -0.69036,0 -1.25,0.5596 -1.25,1.25 0,0.6904 0.55964,1.25 1.25,1.25 0.69036,0 1.25,-0.5596 1.25,-1.25 0,-0.6904 -0.55964,-1.25 -1.25,-1.25 z"
           inkscape:connector-curvature="0"
           id="path9336-3-6"
           style="color:#000000;fill:#444444;fill-opacity:1;fill-rule:nonzero;stroke:none;stroke-width:2;marker:none;visibility:visible;display:inline;overflow:visible;enable-background:accumulate" />
      </g>
    </g>
  </g>
  <rect
     width="18"
     height="18"
     x="0"
     y="0"
     id="canvas"
     style="fill:none;stroke:none;visibility:hidden" />
</svg>
