<?xml version="1.0" encoding="utf-8"?>
<!-- Generator: Adobe Illustrator 18.0.0, SVG Export Plug-In . SVG Version: 6.00 Build 0)  -->
<!DOCTYPE svg PUBLIC "-//W3C//DTD SVG 1.1//EN" "http://www.w3.org/Graphics/SVG/1.1/DTD/svg11.dtd" [
	<!ENTITY ns_flows "http://ns.adobe.com/Flows/1.0/">
	<!ENTITY ns_extend "http://ns.adobe.com/Extensibility/1.0/">
	<!ENTITY ns_ai "http://ns.adobe.com/AdobeIllustrator/10.0/">
	<!ENTITY ns_graphs "http://ns.adobe.com/Graphs/1.0/">
	<!ENTITY st0 "opacity:0.1;">
	<!ENTITY st1 "fill:#010101;">
	<!ENTITY st2 "opacity:0.2;">
]>
<svg version="1.1" id="Layer_1" xmlns:x="&ns_extend;" xmlns:i="&ns_ai;" xmlns:graph="&ns_graphs;"
	 xmlns="http://www.w3.org/2000/svg" xmlns:xlink="http://www.w3.org/1999/xlink" xmlns:a="http://ns.adobe.com/AdobeSVGViewerExtensions/3.0/"
	 x="0px" y="0px" width="27px" height="24px" viewBox="0 0 27 24" style="enable-background:new 0 0 27 24;" xml:space="preserve">
<g style="&st0;">
	<path style="&st1;" d="M14.5,7.9l-2.6,3c-0.2,0.2-0.4,0.3-0.7,0.3c-0.5,0-0.8-0.4-0.8-0.8c0-0.3,0.1-0.5,0.3-0.6l2.8-3.3
		c0.2-0.2,0.4-0.3,0.7-0.3L18,6c0.3,0,0.8,1.5,1,1l2.6,2.1L23.8,7c0.2-0.1,0.3-0.2,0.6-0.2c0.5,0,0.9,0.4,0.9,0.9
		c0,0.2-0.1,0.4-0.2,0.6l-2.6,2.6c-0.8,0.8-1.4,0.1-1.4,0.1l-1.6-1.6l-2.5,2.9l2.3,2.3c0,0,0.5,0.4,0.2,1.3l-1.3,5.7
		C18,22.1,17.5,22,17,22c-0.6,0-1.1,0-1.1-0.6c0-0.1,0-0.2,0-0.3l1.1-4.7l-2.6-2.5l-2.2,2.5c0,0-0.4,0.4-1.3,0.4l-4.5,0
		c-0.5,0-1.2-0.3-1.3-0.8c-0.1-0.6,0.5-1.2,1-1.4c0.1,0,0.2,0,0.3,0l3.9,0L16,7.9L14.5,7.9z"/>
	<rect x="3" y="10" style="&st1;" width="6" height="1"/>
	<polygon style="&st1;" points="7,23 7,24 25,24 26,23 26,22 25,22 25,23 	"/>
	<polygon style="&st1;" points="20,22 21,22 27,9 26,9 	"/>
	<polygon style="&st1;" points="2,16 3,16 8,21 9,21 9,22 8,22 	"/>
	<polygon style="&st1;" points="19,2 21,2 21,3 22,3 22,5 21,5 21,6 19,6 19,5 18,5 18,3 19,3 	"/>
</g>
<g style="&st2;">
	<path style="&st1;" d="M13.5,6.9l-2.6,3c-0.2,0.2-0.4,0.3-0.7,0.3c-0.5,0-0.8-0.4-0.8-0.8c0-0.3,0.1-0.5,0.3-0.6l2.8-3.3
		c0.2-0.2,0.4-0.3,0.7-0.3L17,5c0.3,0,0.8,1.5,1,1l2.6,2.1L22.8,6c0.2-0.1,0.3-0.2,0.6-0.2c0.5,0,0.9,0.4,0.9,0.9
		c0,0.2-0.1,0.4-0.2,0.6l-2.6,2.6C20.6,10.6,20,9.9,20,9.9l-1.6-1.6l-2.5,2.9l2.3,2.3c0,0,0.5,0.4,0.2,1.3l-1.3,5.7
		C17,21.1,16.5,21,16,21c-0.6,0-1.1,0-1.1-0.6c0-0.1,0-0.2,0-0.3l1.1-4.7l-2.6-2.5l-2.2,2.5c0,0-0.4,0.4-1.3,0.4l-4.5,0
		c-0.5,0-1.2-0.3-1.3-0.8c-0.1-0.6,0.5-1.2,1-1.4c0.1,0,0.2,0,0.3,0l3.9,0L15,6.9L13.5,6.9z"/>
	<rect x="2" y="9" style="&st1;" width="6" height="1"/>
	<polygon style="&st1;" points="6,22 6,23 24,23 25,22 25,21 24,21 24,22 	"/>
	<polygon style="&st1;" points="19,21 20,21 26,8 25,8 	"/>
	<polygon style="&st1;" points="1,15 2,15 7,20 8,20 8,21 7,21 	"/>
	<polygon style="&st1;" points="18,1 20,1 20,2 21,2 21,4 20,4 20,5 18,5 18,4 17,4 17,2 18,2 	"/>
</g>
<g>
	<path style="&st1;" d="M12.5,5.9l-2.6,3C9.7,9.1,9.5,9.3,9.2,9.3c-0.5,0-0.8-0.4-0.8-0.8c0-0.3,0.1-0.5,0.3-0.6l2.8-3.3
		c0.2-0.2,0.4-0.3,0.7-0.3L16,4c0.3,0,0.8,1.5,1,1l2.6,2.1L21.8,5c0.2-0.1,0.3-0.2,0.6-0.2c0.5,0,0.9,0.4,0.9,0.9
		c0,0.2-0.1,0.4-0.2,0.6l-2.6,2.6C19.6,9.6,19,8.9,19,8.9l-1.6-1.6l-2.5,2.9l2.3,2.3c0,0,0.5,0.4,0.2,1.3l-1.3,5.7
		C16,20.1,15.5,20,15,20c-0.6,0-1.1,0-1.1-0.6c0-0.1,0-0.2,0-0.3l1.1-4.7l-2.6-2.5l-2.2,2.5c0,0-0.4,0.4-1.3,0.4l-4.5,0
		c-0.5,0-1.2-0.3-1.3-0.8c-0.1-0.6,0.5-1.2,1-1.4c0.1,0,0.2,0,0.3,0l3.9,0L14,5.9L12.5,5.9z"/>
	<rect x="1" y="8" style="&st1;" width="6" height="1"/>
	<polygon style="&st1;" points="5,21 5,22 23,22 24,21 24,20 23,20 23,21 	"/>
	<polygon style="&st1;" points="18,20 19,20 25,7 24,7 	"/>
	<polygon style="&st1;" points="0,14 1,14 6,19 7,19 7,20 6,20 	"/>
	<polygon style="&st1;" points="17,0 19,0 19,1 20,1 20,3 19,3 19,4 17,4 17,3 16,3 16,1 17,1 	"/>
</g>
</svg>
