<?xml version="1.0" encoding="UTF-8" standalone="no"?>
<!-- Created with Inkscape (http://www.inkscape.org/) -->

<svg
   xmlns:dc="http://purl.org/dc/elements/1.1/"
   xmlns:cc="http://creativecommons.org/ns#"
   xmlns:rdf="http://www.w3.org/1999/02/22-rdf-syntax-ns#"
   xmlns:svg="http://www.w3.org/2000/svg"
   xmlns="http://www.w3.org/2000/svg"
   xmlns:inkscape="http://www.inkscape.org/namespaces/inkscape"
   version="1.1"
   width="24"
   height="24"
   id="svg4460">
  <defs
     id="defs4462" />
  <metadata
     id="metadata4465">
    <rdf:RDF>
      <cc:Work
         rdf:about="">
        <dc:format>image/svg+xml</dc:format>
        <dc:type
           rdf:resource="http://purl.org/dc/dcmitype/StillImage" />
        <dc:title />
      </cc:Work>
    </rdf:RDF>
  </metadata>
  <g
     transform="translate(0,-1028.3622)"
     id="layer1">
    <g
       transform="translate(72,-214)"
       id="cross-24"
       style="display:inline">
      <path
         d="m -66.91667,1245.3622 c -0.54166,0 -1.08333,0.5421 -1.08333,1.0833 0,0.2697 0.0882,0.5283 0.30469,0.7448 l 6.67187,6.6719 -6.67187,6.6719 c -0.21656,0.2165 -0.30469,0.4751 -0.30469,0.7448 0,0.5412 0.54167,1.0833 1.08333,1.0833 0.27084,0 0.54167,-0.067 0.77865,-0.3046 l 6.63802,-6.6381 6.63802,6.6381 c 0.23698,0.2374 0.50781,0.3046 0.77865,0.3046 0.54166,0 1.08333,-0.5421 1.08333,-1.0833 0,-0.2697 -0.0882,-0.5283 -0.30469,-0.7448 l -6.67187,-6.6719 6.67187,-6.6719 c 0.21656,-0.2165 0.30469,-0.4751 0.30469,-0.7448 0,-0.5412 -0.54167,-1.0833 -1.08333,-1.0833 -0.27084,0 -0.54167,0.067 -0.77865,0.3047 l -6.63802,6.638 -6.63802,-6.638 c -0.23698,-0.2375 -0.50781,-0.3047 -0.77865,-0.3047 z"
         inkscape:connector-curvature="0"
         id="path7139"
         style="font-size:medium;font-style:normal;font-variant:normal;font-weight:normal;font-stretch:normal;text-indent:0;text-align:start;text-decoration:none;line-height:normal;letter-spacing:normal;word-spacing:normal;text-transform:none;direction:ltr;block-progression:tb;writing-mode:lr-tb;text-anchor:start;baseline-shift:baseline;opacity:0.3;color:#000000;fill:#ffffff;fill-opacity:1;fill-rule:nonzero;stroke:#ffffff;stroke-width:2;stroke-linecap:butt;stroke-linejoin:round;stroke-miterlimit:4;stroke-opacity:1;stroke-dasharray:none;stroke-dashoffset:0;marker:none;visibility:visible;display:inline;overflow:visible;enable-background:accumulate;font-family:Sans;-inkscape-font-specification:Sans" />
      <path
         d="m -66.91667,1245.3622 c -0.54166,0 -1.08333,0.5421 -1.08333,1.0833 0,0.2697 0.0882,0.5283 0.30469,0.7448 l 6.67187,6.6719 -6.67187,6.6719 c -0.21656,0.2165 -0.30469,0.4751 -0.30469,0.7448 0,0.5412 0.54167,1.0833 1.08333,1.0833 0.27084,0 0.54167,-0.067 0.77865,-0.3046 l 6.63802,-6.6381 6.63802,6.6381 c 0.23698,0.2374 0.50781,0.3046 0.77865,0.3046 0.54166,0 1.08333,-0.5421 1.08333,-1.0833 0,-0.2697 -0.0882,-0.5283 -0.30469,-0.7448 l -6.67187,-6.6719 6.67187,-6.6719 c 0.21656,-0.2165 0.30469,-0.4751 0.30469,-0.7448 0,-0.5412 -0.54167,-1.0833 -1.08333,-1.0833 -0.27084,0 -0.54167,0.067 -0.77865,0.3047 l -6.63802,6.638 -6.63802,-6.638 c -0.23698,-0.2375 -0.50781,-0.3047 -0.77865,-0.3047 z"
         inkscape:connector-curvature="0"
         id="path15001-8-9"
         style="font-size:medium;font-style:normal;font-variant:normal;font-weight:normal;font-stretch:normal;text-indent:0;text-align:start;text-decoration:none;line-height:normal;letter-spacing:normal;word-spacing:normal;text-transform:none;direction:ltr;block-progression:tb;writing-mode:lr-tb;text-anchor:start;baseline-shift:baseline;color:#000000;fill:#444444;fill-opacity:1;stroke:none;stroke-width:2;marker:none;visibility:visible;display:inline;overflow:visible;enable-background:accumulate;font-family:Sans;-inkscape-font-specification:Sans" />
    </g>
  </g>
  <rect
     width="24"
     height="24"
     x="0"
     y="0"
     id="canvas"
     style="fill:none;stroke:none;visibility:hidden" />
</svg>
