<?xml version="1.0" encoding="UTF-8" standalone="no"?>
<!-- Created with Inkscape (http://www.inkscape.org/) -->

<svg
   xmlns:dc="http://purl.org/dc/elements/1.1/"
   xmlns:cc="http://creativecommons.org/ns#"
   xmlns:rdf="http://www.w3.org/1999/02/22-rdf-syntax-ns#"
   xmlns:svg="http://www.w3.org/2000/svg"
   xmlns="http://www.w3.org/2000/svg"
   xmlns:sodipodi="http://sodipodi.sourceforge.net/DTD/sodipodi-0.dtd"
   xmlns:inkscape="http://www.inkscape.org/namespaces/inkscape"
   width="24"
   height="24"
   id="svg27349"
   version="1.1"
   inkscape:version="0.48.2 r9819"
   sodipodi:docname="cross-country-ski-trail-black-24.svg">
  <defs
     id="defs27351" />
  <sodipodi:namedview
     id="base"
     pagecolor="#ffffff"
     bordercolor="#666666"
     borderopacity="1.0"
     inkscape:pageopacity="0.0"
     inkscape:pageshadow="2"
     inkscape:zoom="9.0833806"
     inkscape:cx="14.197891"
     inkscape:cy="13.129232"
     inkscape:document-units="px"
     inkscape:current-layer="layer1"
     showgrid="false"
     inkscape:window-width="629"
     inkscape:window-height="573"
     inkscape:window-x="2658"
     inkscape:window-y="16"
     inkscape:window-maximized="0" />
  <metadata
     id="metadata27354">
    <rdf:RDF>
      <cc:Work
         rdf:about="">
        <dc:format>image/svg+xml</dc:format>
        <dc:type
           rdf:resource="http://purl.org/dc/dcmitype/StillImage" />
        <dc:title></dc:title>
      </cc:Work>
    </rdf:RDF>
  </metadata>
  <g
     inkscape:label="Layer 1"
     inkscape:groupmode="layer"
     id="layer1"
     transform="translate(0,-1028.3622)">
    <g
       id="g13755"
       transform="matrix(2.4281667,0,0,2.4281667,-473.97252,-146.95055)">
      <path
         style="opacity:0;fill:#272525"
         inkscape:connector-curvature="0"
         id="path13710"
         d="m 203.945,493.917 c 0.652,0 1.182,-0.529 1.182,-1.182 v -7.521 c 0,-0.652 -0.529,-1.181 -1.182,-1.181 h -7.521 c -0.652,0 -1.181,0.529 -1.181,1.181 v 7.521 c 0,0.652 0.528,1.182 1.181,1.182 h 7.521 z" />
      <g
         transform="translate(174.084,294.302)"
         id="g13712"
         style="opacity:0.6;fill:none;stroke:#1d1d1c;stroke-width:0.5;stroke-miterlimit:4;stroke-opacity:1;stroke-dasharray:none">
        <path
           inkscape:connector-curvature="0"
           d="m 30.191,198.003 c -10e-4,0.222 -0.185,0.4 -0.405,0.399 h -6.585 v 0.272 h 6.584 c 0.371,0.001 0.674,-0.296 0.676,-0.669 l -0.27,-0.002 z"
           id="path13714"
           style="fill:none;stroke:#1d1d1c;stroke-width:0.5;stroke-miterlimit:4;stroke-opacity:1;stroke-dasharray:none" />
        <circle
           d="m 28.885,191.21201 c 0,0.36561 -0.296388,0.662 -0.662,0.662 -0.365613,0 -0.662,-0.29639 -0.662,-0.662 0,-0.36562 0.296387,-0.662 0.662,-0.662 0.365612,0 0.662,0.29638 0.662,0.662 z"
           style="fill:none;stroke:#1d1d1c;stroke-width:0.5;stroke-miterlimit:4;stroke-opacity:1;stroke-dasharray:none"
           sodipodi:ry="0.662"
           sodipodi:rx="0.662"
           sodipodi:cy="191.21201"
           sodipodi:cx="28.223"
           id="circle13716"
           r="0.662"
           cy="191.21201"
           cx="28.223" />
        <path
           style="fill:none;stroke:#1d1d1c;stroke-width:0.5;stroke-miterlimit:4;stroke-opacity:1;stroke-dasharray:none"
           inkscape:connector-curvature="0"
           id="path13718"
           d="m 24.029,197.569 -2.201,-2.208 0.001,0.386 2.049,2.057 c 0.235,0.255 0.639,-0.04 0.639,-0.04 l -0.193,-0.208 c 0,0 -0.19,0.125 -0.289,0.019 l -0.006,-0.006 z" />
        <rect
           style="fill:none;stroke:#1d1d1c;stroke-width:0.5;stroke-miterlimit:4;stroke-opacity:1;stroke-dasharray:none"
           id="rect13720"
           height="0.26899999"
           width="2.253"
           y="193.405"
           x="21.847" />
        <polygon
           style="fill:none;stroke:#1d1d1c;stroke-width:0.5;stroke-miterlimit:4;stroke-opacity:1;stroke-dasharray:none"
           id="polygon13722"
           points="30.189,192.762 30.446,192.87 27.889,198.019 27.605,198.019 " />
        <path
           style="fill:none;stroke:#1d1d1c;stroke-width:0.5;stroke-miterlimit:4;stroke-opacity:1;stroke-dasharray:none"
           inkscape:connector-curvature="0"
           id="path13724"
           d="m 25.945,192.365 -1.029,1.188 c -0.061,0.075 -0.153,0.122 -0.257,0.122 -0.185,0 -0.333,-0.149 -0.333,-0.333 0,-0.1 0.043,-0.188 0.112,-0.25 l 1.109,-1.278 c 0.062,-0.073 0.153,-0.121 0.257,-0.121 l 1.606,0 c 0.118,0 0.224,0.047 0.302,0.123 l 1.024,1.024 0.849,-0.847 c 0.06,-0.05 0.137,-0.081 0.221,-0.081 0.19,0 0.344,0.154 0.344,0.344 0,0.083 -0.028,0.158 -0.077,0.218 l -1.023,1.031 c -0.311,0.31 -0.561,0.047 -0.561,0.047 l -0.628,-0.631 -0.981,1.135 0.899,0.899 c 0,0 0.189,0.176 0.081,0.526 l -0.504,2.246 c -0.04,0.195 -0.213,0.342 -0.419,0.342 -0.236,0 -0.428,-0.192 -0.428,-0.428 0,-0.037 0.004,-0.073 0.014,-0.107 l 0.414,-1.843 -1.021,-0.993 -0.879,0.98 c 0,0 -0.143,0.176 -0.52,0.162 l -1.782,0.003 c -0.199,0.003 -0.38,-0.133 -0.425,-0.334 -0.053,-0.23 0.09,-0.456 0.32,-0.507 0.036,-0.008 0.072,-0.011 0.107,-0.01 l 1.533,0.004 2.267,-2.628 -0.592,-0.003 z" />
      </g>
      <g
         style="fill:#ffffff;fill-opacity:1"
         transform="translate(174.084,294.302)"
         id="g13726">
        <path
           style="fill:#ffffff;fill-opacity:1"
           inkscape:connector-curvature="0"
           id="path13728"
           d="m 30.191,198.003 c -10e-4,0.222 -0.185,0.4 -0.405,0.399 h -6.585 v 0.272 h 6.584 c 0.371,0.001 0.674,-0.296 0.676,-0.669 l -0.27,-0.002 z" />
        <circle
           d="m 28.885,191.21201 c 0,0.36561 -0.296388,0.662 -0.662,0.662 -0.365613,0 -0.662,-0.29639 -0.662,-0.662 0,-0.36562 0.296387,-0.662 0.662,-0.662 0.365612,0 0.662,0.29638 0.662,0.662 z"
           cx="28.223"
           cy="191.21201"
           r="0.662"
           id="circle13730"
           sodipodi:cx="28.223"
           sodipodi:cy="191.21201"
           sodipodi:rx="0.662"
           sodipodi:ry="0.662"
           style="fill:#ffffff;fill-opacity:1" />
        <path
           d="m 24.029,197.569 -2.201,-2.208 0.001,0.386 2.049,2.057 c 0.235,0.255 0.639,-0.04 0.639,-0.04 l -0.193,-0.208 c 0,0 -0.19,0.125 -0.289,0.019 l -0.006,-0.006 z"
           id="path13732"
           inkscape:connector-curvature="0"
           style="fill:#ffffff;fill-opacity:1" />
        <rect
           x="21.847"
           y="193.405"
           width="2.253"
           height="0.26899999"
           id="rect13734"
           style="fill:#ffffff;fill-opacity:1" />
        <polygon
           points="30.189,192.762 30.446,192.87 27.889,198.019 27.605,198.019 "
           id="polygon13736"
           style="fill:#ffffff;fill-opacity:1" />
        <path
           d="m 25.945,192.365 -1.029,1.188 c -0.061,0.075 -0.153,0.122 -0.257,0.122 -0.185,0 -0.333,-0.149 -0.333,-0.333 0,-0.1 0.043,-0.188 0.112,-0.25 l 1.109,-1.278 c 0.062,-0.073 0.153,-0.121 0.257,-0.121 l 1.606,0 c 0.118,0 0.224,0.047 0.302,0.123 l 1.024,1.024 0.849,-0.847 c 0.06,-0.05 0.137,-0.081 0.221,-0.081 0.19,0 0.344,0.154 0.344,0.344 0,0.083 -0.028,0.158 -0.077,0.218 l -1.023,1.031 c -0.311,0.31 -0.561,0.047 -0.561,0.047 l -0.628,-0.631 -0.981,1.135 0.899,0.899 c 0,0 0.189,0.176 0.081,0.526 l -0.504,2.246 c -0.04,0.195 -0.213,0.342 -0.419,0.342 -0.236,0 -0.428,-0.192 -0.428,-0.428 0,-0.037 0.004,-0.073 0.014,-0.107 l 0.414,-1.843 -1.021,-0.993 -0.879,0.98 c 0,0 -0.143,0.176 -0.52,0.162 l -1.782,0.003 c -0.199,0.003 -0.38,-0.133 -0.425,-0.334 -0.053,-0.23 0.09,-0.456 0.32,-0.507 0.036,-0.008 0.072,-0.011 0.107,-0.01 l 1.533,0.004 2.267,-2.628 -0.592,-0.003 z"
           id="path13738"
           inkscape:connector-curvature="0"
           style="fill:#ffffff;fill-opacity:1" />
      </g>
    </g>
  </g>
</svg>
