<?xml version="1.0" encoding="utf-8"?>
<!-- Generator: Adobe Illustrator 18.1.1, SVG Export Plug-In . SVG Version: 6.00 Build 0)  -->
<svg version="1.1" xmlns="http://www.w3.org/2000/svg" xmlns:xlink="http://www.w3.org/1999/xlink" x="0px" y="0px"
	 viewBox="0 0 12 12" enable-background="new 0 0 12 12" xml:space="preserve">
<g id="shadows">
	<g opacity="0.2">
		<path d="M6.8,3.4l-1,1.1C5.8,4.6,5.7,4.7,5.6,4.7c-0.2,0-0.3-0.1-0.3-0.3c0-0.1,0-0.2,0.1-0.2l1.1-1.2c0.1-0.1,0.1-0.1,0.2-0.1
			h1.5c0.1,0,0,0.6,0.1,0.6l1.2,0.5l0.8-0.8C10.4,3,10.4,3,10.5,3c0.2,0,0.3,0.1,0.3,0.3c0,0.1,0,0.2-0.1,0.2l-1,1
			c-0.3,0.3-0.5,0-0.5,0L8.7,4l-1,1.4l0.9,0.6c0,0,0.2,0.2,0.1,0.5L8.3,8.6c0,0.2-0.3,0.6-0.5,0.6c-0.2,0-0.4-0.5-0.4-0.7l0-0.1
			l0.4-1.8l-1-1L5.9,6.6c0,0-0.1,0-0.5,0H3.7c-0.2,0-0.5,0-0.6-0.2C3.1,6.2,3.4,6,3.6,6l0.1,0l2,0l1.7-2.5L6.8,3.4z"/>
		<polygon points="3.8,9.9 3.8,10.5 10.9,10.5 11.5,9.9 11.5,9.2 10.9,9.2 10.9,9.9 		"/>
		<polygon points="2.5,7.3 3.1,7.3 5.1,9.2 4.4,9.2 		"/>
		<polygon points="8.9,9.2 9.6,9.2 11.5,4.1 10.9,4.1 		"/>
		<rect x="8.3" y="1.5" width="1.3" height="1.3"/>
	</g>
</g>
<g id="icons">
	<g>
		<path fill="#FFFFFF" d="M6.3,2.9l-1,1.1C5.3,4.1,5.2,4.2,5.1,4.2C4.9,4.2,4.8,4,4.8,3.9c0-0.1,0-0.2,0.1-0.2l1.1-1.2
			C6,2.3,6.1,2.3,6.2,2.3h1.5c0.1,0,0,0.6,0.1,0.6L9,3.4l0.8-0.8c0.1,0,0.1-0.1,0.2-0.1c0.2,0,0.3,0.1,0.3,0.3c0,0.1,0,0.2-0.1,0.2
			l-1,1c-0.3,0.3-0.5,0-0.5,0L8.2,3.5l-1,1.4l0.9,0.6c0,0,0.2,0.2,0.1,0.5L7.8,8.1c0,0.2-0.3,0.6-0.5,0.6C7,8.7,6.9,8.2,6.9,8l0-0.1
			l0.4-1.8l-1-1L5.4,6.1c0,0-0.1,0-0.5,0H3.2C3,6.1,2.7,6.1,2.6,6C2.6,5.7,2.9,5.5,3.1,5.5l0.1,0l2,0l1.7-2.5L6.3,2.9z"/>
		<polygon fill="#FFFFFF" points="3.3,9.4 3.3,10 10.4,10 11,9.4 11,8.7 10.4,8.7 10.4,9.4 		"/>
		<polygon fill="#FFFFFF" points="2,6.8 2.6,6.8 4.6,8.7 3.9,8.7 		"/>
		<polygon fill="#FFFFFF" points="8.4,8.7 9.1,8.7 11,3.6 10.4,3.6 		"/>
		<rect x="7.8" y="1" fill="#FFFFFF" width="1.3" height="1.3"/>
	</g>
</g>
<g id="guides">
</g>
</svg>
