<?xml version="1.0" encoding="UTF-8" standalone="no"?>
<!-- Created with Inkscape (http://www.inkscape.org/) -->

<svg
   xmlns:dc="http://purl.org/dc/elements/1.1/"
   xmlns:cc="http://creativecommons.org/ns#"
   xmlns:rdf="http://www.w3.org/1999/02/22-rdf-syntax-ns#"
   xmlns:svg="http://www.w3.org/2000/svg"
   xmlns="http://www.w3.org/2000/svg"
   xmlns:inkscape="http://www.inkscape.org/namespaces/inkscape"
   version="1.1"
   width="18"
   height="18"
   id="svg4619">
  <defs
     id="defs4621" />
  <metadata
     id="metadata4624">
    <rdf:RDF>
      <cc:Work
         rdf:about="">
        <dc:format>image/svg+xml</dc:format>
        <dc:type
           rdf:resource="http://purl.org/dc/dcmitype/StillImage" />
        <dc:title />
      </cc:Work>
    </rdf:RDF>
  </metadata>
  <g
     transform="translate(0,-1034.3622)"
     id="layer1">
    <g
       transform="translate(48,-208)"
       id="cross-18"
       style="display:inline">
      <g
         id="g21943">
        <path
           d="m -43.916667,1244.3622 c -0.541666,0 -1.083333,0.5421 -1.083333,1.0833 0,0.2697 0.08818,0.5283 0.304688,0.7448 l 4.671875,4.6719 -4.671875,4.6719 c -0.216559,0.2165 -0.304688,0.4751 -0.304688,0.7448 0,0.5412 0.541667,1.0833 1.083333,1.0833 0.270834,0 0.541667,-0.067 0.778646,-0.3046 l 4.638021,-4.6381 4.638021,4.6381 c 0.236979,0.2374 0.507812,0.3046 0.778646,0.3046 0.541666,0 1.083333,-0.5421 1.083333,-1.0833 0,-0.2697 -0.08818,-0.5283 -0.304687,-0.7448 l -4.671875,-4.6719 4.671875,-4.6719 c 0.216558,-0.2165 0.304687,-0.4751 0.304687,-0.7448 0,-0.5412 -0.541667,-1.0833 -1.083333,-1.0833 -0.270834,0 -0.541667,0.067 -0.778646,0.3047 l -4.638021,4.638 -4.638021,-4.638 c -0.236979,-0.2375 -0.507812,-0.3047 -0.778646,-0.3047 z"
           inkscape:connector-curvature="0"
           id="path12599"
           style="font-size:medium;font-style:normal;font-variant:normal;font-weight:normal;font-stretch:normal;text-indent:0;text-align:start;text-decoration:none;line-height:normal;letter-spacing:normal;word-spacing:normal;text-transform:none;direction:ltr;block-progression:tb;writing-mode:lr-tb;text-anchor:start;baseline-shift:baseline;opacity:0.3;color:#000000;fill:#ffffff;fill-opacity:1;fill-rule:nonzero;stroke:#ffffff;stroke-width:2;stroke-linecap:butt;stroke-linejoin:round;stroke-miterlimit:4;stroke-opacity:1;stroke-dasharray:none;stroke-dashoffset:0;marker:none;visibility:visible;display:inline;overflow:visible;enable-background:accumulate;font-family:Sans;-inkscape-font-specification:Sans" />
        <path
           d="m -43.916667,1244.3622 c -0.541666,0 -1.083333,0.5421 -1.083333,1.0833 0,0.2697 0.08818,0.5283 0.304688,0.7448 l 4.671875,4.6719 -4.671875,4.6719 c -0.216559,0.2165 -0.304688,0.4751 -0.304688,0.7448 0,0.5412 0.541667,1.0833 1.083333,1.0833 0.270834,0 0.541667,-0.067 0.778646,-0.3046 l 4.638021,-4.6381 4.638021,4.6381 c 0.236979,0.2374 0.507812,0.3046 0.778646,0.3046 0.541666,0 1.083333,-0.5421 1.083333,-1.0833 0,-0.2697 -0.08818,-0.5283 -0.304687,-0.7448 l -4.671875,-4.6719 4.671875,-4.6719 c 0.216558,-0.2165 0.304687,-0.4751 0.304687,-0.7448 0,-0.5412 -0.541667,-1.0833 -1.083333,-1.0833 -0.270834,0 -0.541667,0.067 -0.778646,0.3047 l -4.638021,4.638 -4.638021,-4.638 c -0.236979,-0.2375 -0.507812,-0.3047 -0.778646,-0.3047 z"
           inkscape:connector-curvature="0"
           id="path15001-8"
           style="font-size:medium;font-style:normal;font-variant:normal;font-weight:normal;font-stretch:normal;text-indent:0;text-align:start;text-decoration:none;line-height:normal;letter-spacing:normal;word-spacing:normal;text-transform:none;direction:ltr;block-progression:tb;writing-mode:lr-tb;text-anchor:start;baseline-shift:baseline;color:#000000;fill:#444444;fill-opacity:1;stroke:none;stroke-width:2;marker:none;visibility:visible;display:inline;overflow:visible;enable-background:accumulate;font-family:Sans;-inkscape-font-specification:Sans" />
      </g>
    </g>
  </g>
  <rect
     width="18"
     height="18"
     x="0"
     y="0"
     id="canvas"
     style="fill:none;stroke:none;visibility:hidden" />
</svg>
