<?xml version="1.0" encoding="utf-8"?>
<!-- Generator: Adobe Illustrator 18.1.1, SVG Export Plug-In . SVG Version: 6.00 Build 0)  -->
<svg version="1.1" xmlns="http://www.w3.org/2000/svg" xmlns:xlink="http://www.w3.org/1999/xlink" x="0px" y="0px"
	 viewBox="0 0 24 24" enable-background="new 0 0 24 24" xml:space="preserve">
<g id="shadows">
	<g opacity="0.2">
		<path d="M13.5,9l-1.8,2.1c-0.1,0.1-0.3,0.2-0.4,0.2c-0.3,0-0.6-0.3-0.6-0.6c0-0.2,0.1-0.3,0.2-0.4l1.9-2.2
			c0.1-0.1,0.3-0.2,0.4-0.2l2.6-0.1c0.2,0,0.5,1,0.7,0.7l1.8,1.5l1.5-1.5c0.1-0.1,0.2-0.1,0.4-0.1c0.3,0,0.6,0.3,0.6,0.6
			c0,0.1,0,0.3-0.1,0.4L18.9,11c-0.5,0.5-1,0.1-1,0.1L16.8,10l-1.7,2l1.6,1.6c0,0,0.3,0.3,0.1,0.9L16,18.3c-0.1,0.3-0.4,0.3-0.7,0.3
			c-0.4,0-0.7,0-0.7-0.4c0-0.1,0-0.1,0-0.2l0.7-3.2l-1.8-1.7l-1.5,1.7c0,0-0.2,0.3-0.9,0.3l-3.1,0c-0.3,0-0.8-0.2-0.9-0.5
			c-0.1-0.4,0.3-0.8,0.7-0.9c0.1,0,0.1,0,0.2,0l2.7,0l3.9-4.6L13.5,9z"/>
		<rect x="5.7" y="10.5" width="4.1" height="0.7"/>
		<polygon points="8.4,19.3 8.4,20 20.6,20 21.3,19.3 21.3,18.6 20.6,18.6 20.6,19.3 		"/>
		<polygon points="17.2,18.6 17.9,18.6 22,9.8 21.3,9.8 		"/>
		<polygon points="5,14.5 5.7,14.5 9.1,17.9 9.8,17.9 9.8,18.6 9.1,18.6 		"/>
		<polygon points="16.6,5 17.9,5 17.9,5.7 18.6,5.7 18.6,7.1 17.9,7.1 17.9,7.7 16.6,7.7 16.6,7.1 15.9,7.1 15.9,5.7 16.6,5.7 		"/>
	</g>
</g>
<g id="icons">
	<g>
		<path fill="#FFFFFF" d="M12.5,8l-1.8,2.1c-0.1,0.1-0.3,0.2-0.4,0.2c-0.3,0-0.6-0.3-0.6-0.6c0-0.2,0.1-0.3,0.2-0.4l1.9-2.2
			c0.1-0.1,0.3-0.2,0.4-0.2l2.6-0.1c0.2,0,0.5,1,0.7,0.7l1.8,1.5l1.5-1.5c0.1-0.1,0.2-0.1,0.4-0.1c0.3,0,0.6,0.3,0.6,0.6
			c0,0.1,0,0.3-0.1,0.4L17.9,10c-0.5,0.5-1,0.1-1,0.1L15.8,9l-1.7,2l1.6,1.6c0,0,0.3,0.3,0.1,0.9L15,17.3c-0.1,0.3-0.4,0.3-0.7,0.3
			c-0.4,0-0.7,0-0.7-0.4c0-0.1,0-0.1,0-0.2l0.7-3.2l-1.8-1.7l-1.5,1.7c0,0-0.2,0.3-0.9,0.3l-3.1,0c-0.3,0-0.8-0.2-0.9-0.5
			c-0.1-0.4,0.3-0.8,0.7-0.9c0.1,0,0.1,0,0.2,0l2.7,0l3.9-4.6L12.5,8z"/>
		<rect x="4.7" y="9.5" fill="#FFFFFF" width="4.1" height="0.7"/>
		<polygon fill="#FFFFFF" points="7.4,18.3 7.4,19 19.6,19 20.3,18.3 20.3,17.6 19.6,17.6 19.6,18.3 		"/>
		<polygon fill="#FFFFFF" points="16.2,17.6 16.9,17.6 21,8.8 20.3,8.8 		"/>
		<polygon fill="#FFFFFF" points="4,13.5 4.7,13.5 8.1,16.9 8.8,16.9 8.8,17.6 8.1,17.6 		"/>
		<polygon fill="#FFFFFF" points="15.6,4 16.9,4 16.9,4.7 17.6,4.7 17.6,6.1 16.9,6.1 16.9,6.7 15.6,6.7 15.6,6.1 14.9,6.1 
			14.9,4.7 15.6,4.7 		"/>
	</g>
</g>
<g id="guides">
</g>
</svg>
