<?xml version="1.0" encoding="UTF-8" standalone="no"?>
<svg width="18px" height="18px" viewBox="0 0 18 18" version="1.1" xmlns="http://www.w3.org/2000/svg" xmlns:xlink="http://www.w3.org/1999/xlink" xmlns:sketch="http://www.bohemiancoding.com/sketch/ns">
    <!-- Generator: Sketch 3.2.2 (9983) - http://www.bohemiancoding.com/sketch -->
    <title>cross-country-skiing-white-18</title>
    <desc>Created with Sketch.</desc>
    <defs></defs>
    <g id="Page-1" stroke="none" stroke-width="1" fill="none" fill-rule="evenodd" sketch:type="MSPage">
        <path d="M11.2666667,6.32285086 L9.32592593,8.53318392 C9.20740741,8.67260717 9.03703704,8.76020293 8.83703704,8.76020293 C8.48888889,8.76020293 8.21481481,8.48281635 8.21481481,8.14046292 C8.21481481,7.95432192 8.28888889,7.79080983 8.42222222,7.67547541 L10.5185185,5.29798044 C10.6296296,5.16220701 10.8074074,5.07315132 11,5.07315132 L13.8666667,4.91985873 C14.0888889,4.91985873 14.4222222,6.04327438 14.6074074,5.64982342 L16.5333333,7.20683809 L18.1407407,5.63084434 C18.2518519,5.53813882 18.4,5.48047161 18.5555556,5.48047161 C18.9111111,5.48047161 19.2074074,5.76661777 19.2074074,6.11992067 C19.2074074,6.27467319 19.1555556,6.41409644 19.0592593,6.52578104 L17.1259259,8.44339826 C16.5407407,9.02080033 16.0666667,8.53099402 16.0666667,8.53099402 L14.8814815,7.35721081 L13.0296296,9.46826868 L14.7259259,11.1406178 C14.7259259,11.1406178 15.0888889,11.4683719 14.8814815,12.1195004 L13.9333333,16.2978183 C13.8518519,16.6598807 13.5111111,16.5992937 13.1259259,16.5992937 C12.6814815,16.5992937 12.3333333,16.5766648 12.3333333,16.137956 C12.3333333,16.0686093 12.3407407,16.0014526 12.3555556,15.9386756 L13.1407407,12.5100315 L11.2148148,10.6632209 L9.55555556,12.4859427 C9.55555556,12.4859427 9.28148148,12.8129669 8.57037037,12.7874181 L5.20740741,12.7925278 C4.82962963,12.7983676 4.31851852,12.5932475 4.23703704,12.2195056 C4.13333333,11.7917463 4.57777778,11.3231089 5.00740741,11.2282135 C5.07407407,11.2136142 5.14814815,11.2077745 5.21481481,11.2099644 L8.1037037,11.2172641 L12.3851852,6.32869057 L11.2666667,6.32285086" id="Fill-150" opacity="0.5" fill="#0A0B09" sketch:type="MSShapeGroup"></path>
        <path d="M2.74074074,7.83971747 L7.18518519,7.83971747 L7.18518519,8.56968215 L2.74074074,8.56968215 L2.74074074,7.83971747 Z" id="Fill-151" opacity="0.5" fill="#0A0B09" sketch:type="MSShapeGroup"></path>
        <path d="M5.7037037,17.3292584 L5.7037037,18.059223 L19.037037,18.059223 L19.7777778,17.3292584 L19.7777778,16.5992937 L19.037037,16.5992937 L19.037037,17.3292584 L5.7037037,17.3292584" id="Fill-152" opacity="0.5" fill="#0A0B09" sketch:type="MSShapeGroup"></path>
        <path d="M15.3333333,16.5992937 L16.0740741,16.5992937 L20.5185185,7.10975278 L19.7777778,7.10975278 L15.3333333,16.5992937" id="Fill-153" opacity="0.5" fill="#0A0B09" sketch:type="MSShapeGroup"></path>
        <path d="M2,12.2195056 L2.74074074,12.2195056 L6.44444444,15.869329 L7.18518519,15.869329 L7.18518519,16.5992937 L6.44444444,16.5992937 L2,12.2195056" id="Fill-154" opacity="0.5" fill="#0A0B09" sketch:type="MSShapeGroup"></path>
        <path d="M14.5925926,2 L16.0740741,2 L16.0740741,2.72996468 L16.8148148,2.72996468 L16.8148148,4.18989405 L16.0740741,4.18989405 L16.0740741,4.91985873 L14.5925926,4.91985873 L14.5925926,4.18989405 L13.8518519,4.18989405 L13.8518519,2.72996468 L14.5925926,2.72996468 L14.5925926,2" id="Fill-155" opacity="0.5" fill="#0A0B09" sketch:type="MSShapeGroup"></path>
        <path d="M10.2666667,5.32285086 L8.32592593,7.53318392 C8.20740741,7.67260717 8.03703704,7.76020293 7.83703704,7.76020293 C7.48888889,7.76020293 7.21481481,7.48281635 7.21481481,7.14046292 C7.21481481,6.95432192 7.28888889,6.79080983 7.42222222,6.67547541 L9.51851852,4.29798044 C9.62962963,4.16220701 9.80740741,4.07315132 10,4.07315132 L12.8666667,3.91985873 C13.0888889,3.91985873 13.4222222,5.04327438 13.6074074,4.64982342 L15.5333333,6.20683809 L17.1407407,4.63084434 C17.2518519,4.53813882 17.4,4.48047161 17.5555556,4.48047161 C17.9111111,4.48047161 18.2074074,4.76661777 18.2074074,5.11992067 C18.2074074,5.27467319 18.1555556,5.41409644 18.0592593,5.52578104 L16.1259259,7.44339826 C15.5407407,8.02080033 15.0666667,7.53099402 15.0666667,7.53099402 L13.8814815,6.35721081 L12.0296296,8.46826868 L13.7259259,10.1406178 C13.7259259,10.1406178 14.0888889,10.4683719 13.8814815,11.1195004 L12.9333333,15.2978183 C12.8518519,15.6598807 12.5111111,15.5992937 12.1259259,15.5992937 C11.6814815,15.5992937 11.3333333,15.5766648 11.3333333,15.137956 C11.3333333,15.0686093 11.3407407,15.0014526 11.3555556,14.9386756 L12.1407407,11.5100315 L10.2148148,9.66322086 L8.55555556,11.4859427 C8.55555556,11.4859427 8.28148148,11.8129669 7.57037037,11.7874181 L4.20740741,11.7925278 C3.82962963,11.7983676 3.31851852,11.5932475 3.23703704,11.2195056 C3.13333333,10.7917463 3.57777778,10.3231089 4.00740741,10.2282135 C4.07407407,10.2136142 4.14814815,10.2077745 4.21481481,10.2099644 L7.1037037,10.2172641 L11.3851852,5.32869057 L10.2666667,5.32285086" id="Fill-150" opacity="0.75" fill="#0A0B09" sketch:type="MSShapeGroup"></path>
        <path d="M1.74074074,6.83971747 L6.18518519,6.83971747 L6.18518519,7.56968215 L1.74074074,7.56968215 L1.74074074,6.83971747 Z" id="Fill-151" opacity="0.75" fill="#0A0B09" sketch:type="MSShapeGroup"></path>
        <path d="M4.7037037,16.3292584 L4.7037037,17.059223 L18.037037,17.059223 L18.7777778,16.3292584 L18.7777778,15.5992937 L18.037037,15.5992937 L18.037037,16.3292584 L4.7037037,16.3292584" id="Fill-152" opacity="0.75" fill="#0A0B09" sketch:type="MSShapeGroup"></path>
        <path d="M14.3333333,15.5992937 L15.0740741,15.5992937 L19.5185185,6.10975278 L18.7777778,6.10975278 L14.3333333,15.5992937" id="Fill-153" opacity="0.75" fill="#0A0B09" sketch:type="MSShapeGroup"></path>
        <path d="M1,11.2195056 L1.74074074,11.2195056 L5.44444444,14.869329 L6.18518519,14.869329 L6.18518519,15.5992937 L5.44444444,15.5992937 L1,11.2195056" id="Fill-154" opacity="0.75" fill="#0A0B09" sketch:type="MSShapeGroup"></path>
        <path d="M13.5925926,1 L15.0740741,1 L15.0740741,1.72996468 L15.8148148,1.72996468 L15.8148148,3.18989405 L15.0740741,3.18989405 L15.0740741,3.91985873 L13.5925926,3.91985873 L13.5925926,3.18989405 L12.8518519,3.18989405 L12.8518519,1.72996468 L13.5925926,1.72996468 L13.5925926,1" id="Fill-155" opacity="0.75" fill="#0A0B09" sketch:type="MSShapeGroup"></path>
        <path d="M9.26666667,4.32285086 L7.32592593,6.53318392 C7.20740741,6.67260717 7.03703704,6.76020293 6.83703704,6.76020293 C6.48888889,6.76020293 6.21481481,6.48281635 6.21481481,6.14046292 C6.21481481,5.95432192 6.28888889,5.79080983 6.42222222,5.67547541 L8.51851852,3.29798044 C8.62962963,3.16220701 8.80740741,3.07315132 9,3.07315132 L11.8666667,2.91985873 C12.0888889,2.91985873 12.4222222,4.04327438 12.6074074,3.64982342 L14.5333333,5.20683809 L16.1407407,3.63084434 C16.2518519,3.53813882 16.4,3.48047161 16.5555556,3.48047161 C16.9111111,3.48047161 17.2074074,3.76661777 17.2074074,4.11992067 C17.2074074,4.27467319 17.1555556,4.41409644 17.0592593,4.52578104 L15.1259259,6.44339826 C14.5407407,7.02080033 14.0666667,6.53099402 14.0666667,6.53099402 L12.8814815,5.35721081 L11.0296296,7.46826868 L12.7259259,9.14061777 C12.7259259,9.14061777 13.0888889,9.46837191 12.8814815,10.1195004 L11.9333333,14.2978183 C11.8518519,14.6598807 11.5111111,14.5992937 11.1259259,14.5992937 C10.6814815,14.5992937 10.3333333,14.5766648 10.3333333,14.137956 C10.3333333,14.0686093 10.3407407,14.0014526 10.3555556,13.9386756 L11.1407407,10.5100315 L9.21481481,8.66322086 L7.55555556,10.4859427 C7.55555556,10.4859427 7.28148148,10.8129669 6.57037037,10.7874181 L3.20740741,10.7925278 C2.82962963,10.7983676 2.31851852,10.5932475 2.23703704,10.2195056 C2.13333333,9.79174626 2.57777778,9.32310894 3.00740741,9.22821353 C3.07407407,9.21361424 3.14814815,9.20777452 3.21481481,9.20996441 L6.1037037,9.21726406 L10.3851852,4.32869057 L9.26666667,4.32285086" id="Fill-150" fill="#FFFFFF" sketch:type="MSShapeGroup"></path>
        <path d="M0.740740741,5.83971747 L5.18518519,5.83971747 L5.18518519,6.56968215 L0.740740741,6.56968215 L0.740740741,5.83971747 Z" id="Fill-151" fill="#FFFFFF" sketch:type="MSShapeGroup"></path>
        <path d="M3.7037037,15.3292584 L3.7037037,16.059223 L17.037037,16.059223 L17.7777778,15.3292584 L17.7777778,14.5992937 L17.037037,14.5992937 L17.037037,15.3292584 L3.7037037,15.3292584" id="Fill-152" fill="#FFFFFF" sketch:type="MSShapeGroup"></path>
        <path d="M13.3333333,14.5992937 L14.0740741,14.5992937 L18.5185185,5.10975278 L17.7777778,5.10975278 L13.3333333,14.5992937" id="Fill-153" fill="#FFFFFF" sketch:type="MSShapeGroup"></path>
        <path d="M0,10.2195056 L0.740740741,10.2195056 L4.44444444,13.869329 L5.18518519,13.869329 L5.18518519,14.5992937 L4.44444444,14.5992937 L0,10.2195056" id="Fill-154" fill="#FFFFFF" sketch:type="MSShapeGroup"></path>
        <path d="M12.5925926,0 L14.0740741,0 L14.0740741,0.729964684 L14.8148148,0.729964684 L14.8148148,2.18989405 L14.0740741,2.18989405 L14.0740741,2.91985873 L12.5925926,2.91985873 L12.5925926,2.18989405 L11.8518519,2.18989405 L11.8518519,0.729964684 L12.5925926,0.729964684 L12.5925926,0" id="Fill-155" fill="#FFFFFF" sketch:type="MSShapeGroup"></path>
    </g>
</svg>