<?xml version="1.0" encoding="utf-8"?>
<!-- Generator: Adobe Illustrator 18.1.1, SVG Export Plug-In . SVG Version: 6.00 Build 0)  -->
<svg version="1.1" xmlns="http://www.w3.org/2000/svg" xmlns:xlink="http://www.w3.org/1999/xlink" x="0px" y="0px"
	 viewBox="0 0 12 12" enable-background="new 0 0 12 12" xml:space="preserve">
<g id="shadows">
	<g opacity="0.2">
		<path d="M5.8,3.4l-1,1.1C4.8,4.6,4.7,4.7,4.6,4.7c-0.2,0-0.3-0.1-0.3-0.3c0-0.1,0-0.2,0.1-0.2l1.1-1.2c0.1-0.1,0.1-0.1,0.2-0.1
			h1.5c0.1,0,0,0.6,0.1,0.6l1.2,0.5l0.8-0.8C9.4,3,9.4,3,9.5,3c0.2,0,0.3,0.1,0.3,0.3c0,0.1,0,0.2-0.1,0.2l-1,1
			c-0.3,0.3-0.5,0-0.5,0L7.7,4l-1,1.4l0.9,0.6c0,0,0.2,0.2,0.1,0.5L7.3,8.6c0,0.2-0.3,0.6-0.5,0.6c-0.2,0-0.4-0.5-0.4-0.7l0-0.1
			l0.4-1.8l-1-1L4.9,6.6c0,0-0.1,0-0.5,0H2.7c-0.2,0-0.5,0-0.6-0.2C2.1,6.2,2.4,6,2.6,6l0.1,0l2,0l1.7-2.5L5.8,3.4z"/>
		<polygon points="2.8,9.9 2.8,10.5 9.9,10.5 10.5,9.9 10.5,9.2 9.9,9.2 9.9,9.9 		"/>
		<polygon points="1.5,7.3 2.1,7.3 4.1,9.2 3.4,9.2 		"/>
		<polygon points="7.9,9.2 8.6,9.2 10.5,4.1 9.9,4.1 		"/>
		<rect x="7.3" y="1.5" width="1.3" height="1.3"/>
	</g>
</g>
<g id="icons">
	<g>
		<path d="M5.3,2.9l-1,1.1C4.3,4.1,4.2,4.2,4.1,4.2C3.9,4.2,3.8,4,3.8,3.9c0-0.1,0-0.2,0.1-0.2l1.1-1.2C5,2.3,5.1,2.3,5.2,2.3h1.5
			c0.1,0,0,0.6,0.1,0.6L8,3.4l0.8-0.8c0.1,0,0.1-0.1,0.2-0.1c0.2,0,0.3,0.1,0.3,0.3c0,0.1,0,0.2-0.1,0.2l-1,1c-0.3,0.3-0.5,0-0.5,0
			L7.2,3.5l-1,1.4l0.9,0.6c0,0,0.2,0.2,0.1,0.5L6.8,8.1c0,0.2-0.3,0.6-0.5,0.6C6,8.7,5.9,8.2,5.9,8l0-0.1l0.4-1.8l-1-1L4.4,6.1
			c0,0-0.1,0-0.5,0H2.2C2,6.1,1.7,6.1,1.6,6C1.6,5.7,1.9,5.5,2.1,5.5l0.1,0l2,0l1.7-2.5L5.3,2.9z"/>
		<polygon points="2.3,9.4 2.3,10 9.4,10 10,9.4 10,8.7 9.4,8.7 9.4,9.4 		"/>
		<polygon points="1,6.8 1.6,6.8 3.6,8.7 2.9,8.7 		"/>
		<polygon points="7.4,8.7 8.1,8.7 10,3.6 9.4,3.6 		"/>
		<rect x="6.8" y="1" width="1.3" height="1.3"/>
	</g>
</g>
<g id="guides">
</g>
</svg>
