<?xml version="1.0" encoding="utf-8"?>
<!-- Generator: Adobe Illustrator 18.1.1, SVG Export Plug-In . SVG Version: 6.00 Build 0)  -->
<svg version="1.1" xmlns="http://www.w3.org/2000/svg" xmlns:xlink="http://www.w3.org/1999/xlink" x="0px" y="0px"
	 viewBox="0 0 18 18" enable-background="new 0 0 18 18" xml:space="preserve">
<g id="shadows">
	<g opacity="0.2">
		<path d="M10,5.5L8.6,7.2C8.5,7.3,8.3,7.4,8.2,7.4c-0.3,0-0.5-0.2-0.5-0.5c0-0.1,0.1-0.3,0.2-0.3l1.5-1.8c0.1-0.1,0.2-0.2,0.4-0.2
			H12c0.2,0,0,0.8,0.1,0.9l1.8,0.7L15,5c0.1-0.1,0.2-0.1,0.3-0.1c0.3,0,0.5,0.2,0.5,0.5c0,0.1,0,0.2-0.1,0.3l-1.4,1.4
			c-0.4,0.4-0.8,0.1-0.8,0.1l-0.9-0.9l-1.5,2l1.4,0.8c0,0,0.3,0.2,0.1,0.7L12.1,13c-0.1,0.3-0.5,0.9-0.7,0.9c-0.3,0-0.6-0.7-0.6-1
			l0-0.1l0.6-2.6L9.9,8.8l-1.2,1.4c0,0-0.2,0.1-0.7,0H5.5c-0.3,0-0.8,0-0.9-0.3C4.6,9.6,5.1,9.3,5.4,9.2l0.1,0.1l2.9-0.1l2.4-3.6
			L10,5.5z"/>
		<polygon points="5.6,14.8 5.6,15.8 15.8,15.8 16.8,14.8 16.8,13.9 15.8,13.9 15.8,14.8 		"/>
		<polygon points="3.8,11.1 4.7,11.1 7.5,13.9 6.5,13.9 		"/>
		<polygon points="13,13.9 14,13.9 16.8,6.5 15.8,6.5 		"/>
		<rect x="12.1" y="2.7" width="1.9" height="1.9"/>
	</g>
</g>
<g id="icons">
	<g>
		<path d="M9.2,4.8L7.8,6.4C7.7,6.5,7.6,6.6,7.5,6.6C7.2,6.6,7,6.4,7,6.1C7,6,7,5.9,7.1,5.8L8.7,4C8.8,3.9,8.9,3.9,9,3.9h2.2
			c0.2,0,0,0.8,0.1,0.9l1.8,0.7l1.2-1.2c0.1-0.1,0.2-0.1,0.3-0.1c0.3,0,0.5,0.2,0.5,0.5c0,0.1,0,0.2-0.1,0.3l-1.4,1.4
			c-0.4,0.4-0.8,0.1-0.8,0.1l-0.9-0.9l-1.5,2l1.4,0.8c0,0,0.3,0.2,0.1,0.7l-0.5,3.1c-0.1,0.3-0.5,0.9-0.7,0.9c-0.3,0-0.6-0.7-0.6-1
			l0-0.1l0.6-2.6L9.2,8L8,9.4c0,0-0.2,0.1-0.7,0H4.8c-0.3,0-0.8,0-0.9-0.3C3.9,8.8,4.3,8.5,4.6,8.4l0.1,0.1l2.9-0.1l2.4-3.6L9.2,4.8
			z"/>
		<polygon points="4.9,14.1 4.9,15 15.1,15 16,14.1 16,13.1 15.1,13.1 15.1,14.1 		"/>
		<polygon points="3,10.4 3.9,10.4 6.7,13.1 5.8,13.1 		"/>
		<polygon points="12.3,13.1 13.2,13.1 16,5.7 15.1,5.7 		"/>
		<rect x="11.4" y="2" width="1.9" height="1.9"/>
	</g>
</g>
<g id="guides">
</g>
</svg>
