<?xml version="1.0" encoding="UTF-8" standalone="no"?>
<svg width="12px" height="12px" viewBox="0 0 12 12" version="1.1" xmlns="http://www.w3.org/2000/svg" xmlns:xlink="http://www.w3.org/1999/xlink" xmlns:sketch="http://www.bohemiancoding.com/sketch/ns">
    <!-- Generator: Sketch 3.2.2 (9983) - http://www.bohemiancoding.com/sketch -->
    <title>cross-country-ski-trail-black-12</title>
    <desc>Created with Sketch.</desc>
    <defs></defs>
    <g id="Page-1" stroke="none" stroke-width="1" fill="none" fill-rule="evenodd" sketch:type="MSPage">
        <path d="M6.74352941,4.13341928 L5.65647059,5.39401157 C5.59294118,5.47355317 5.49411765,5.52397686 5.38117647,5.52397686 C5.19058824,5.52397686 5.03529412,5.36560386 5.03529412,5.17030083 C5.03529412,5.0637719 5.07764706,4.97073664 5.14823529,4.90468871 L6.32,3.54822039 C6.38352941,3.47151956 6.48235294,3.42038567 6.59529412,3.42038567 L8.28941176,3.42038567 C8.40941176,3.42038567 8.26823529,4.04961653 8.35294118,4.13057851 L9.68705882,4.6376562 L10.5835294,3.73855207 C10.6470588,3.6852876 10.7247059,3.65261873 10.8164706,3.65261873 C11.0141176,3.65261873 11.1764706,3.81596309 11.1764706,4.01765785 C11.1764706,4.10572176 11.1482353,4.18526336 11.0917647,4.24918072 L10.0188235,5.34287769 C9.68705882,5.67240716 9.42588235,5.39330138 9.42588235,5.39330138 L8.76235294,4.72358953 L7.64705882,6.26115702 L8.67764706,6.88186556 C8.67764706,6.88186556 8.87529412,7.06864628 8.76235294,7.44007713 L8.35294118,9.8234843 C8.31058824,10.0308606 8.00705882,10.522314 7.78823529,10.522314 C7.54117647,10.522314 7.33647059,9.98327769 7.33647059,9.73257961 L7.35058824,9.61894876 L7.78823529,7.66307769 L6.70823529,6.60915152 L5.78352941,7.64958402 C5.78352941,7.64958402 5.63529412,7.69645675 5.23294118,7.6815427 L3.35529412,7.6815427 C3.14352941,7.68438347 2.75529412,7.68367328 2.70588235,7.46990523 C2.64941176,7.22630909 3.00235294,6.98626391 3.24235294,6.93228926 L3.35529412,6.97134986 L5.52941176,6.92518733 L7.36470588,4.13697025 L6.74352941,4.13341928" id="Fill-156" fill-opacity="0.1" fill="#0A0B09" sketch:type="MSShapeGroup"></path>
        <path d="M3.41176471,11.2325069 L3.41176471,11.9426997 L11.1764706,11.9426997 L11.8823529,11.2325069 L11.8823529,10.522314 L11.1764706,10.522314 L11.1764706,11.2325069 L3.41176471,11.2325069" id="Fill-157" fill-opacity="0.1" fill="#0A0B09" sketch:type="MSShapeGroup"></path>
        <path d="M2,8.39173554 L2.70588235,8.39173554 L4.82352941,10.522314 L4.11764706,10.522314 L2,8.39173554" id="Fill-158" fill-opacity="0.1" fill="#0A0B09" sketch:type="MSShapeGroup"></path>
        <path d="M9.05882353,10.522314 L9.76470588,10.522314 L11.8823529,4.84077135 L11.1764706,4.84077135 L9.05882353,10.522314" id="Fill-159" fill-opacity="0.1" fill="#0A0B09" sketch:type="MSShapeGroup"></path>
        <path d="M8.35294118,2 L9.76470588,2 L9.76470588,3.42038567 L8.35294118,3.42038567 L8.35294118,2 Z" id="Fill-160" fill-opacity="0.1" fill="#0A0B09" sketch:type="MSShapeGroup"></path>
        <path d="M5.74352941,3.13341928 L4.65647059,4.39401157 C4.59294118,4.47355317 4.49411765,4.52397686 4.38117647,4.52397686 C4.19058824,4.52397686 4.03529412,4.36560386 4.03529412,4.17030083 C4.03529412,4.0637719 4.07764706,3.97073664 4.14823529,3.90468871 L5.32,2.54822039 C5.38352941,2.47151956 5.48235294,2.42038567 5.59529412,2.42038567 L7.28941176,2.42038567 C7.40941176,2.42038567 7.26823529,3.04961653 7.35294118,3.13057851 L8.68705882,3.6376562 L9.58352941,2.73855207 C9.64705882,2.6852876 9.72470588,2.65261873 9.81647059,2.65261873 C10.0141176,2.65261873 10.1764706,2.81596309 10.1764706,3.01765785 C10.1764706,3.10572176 10.1482353,3.18526336 10.0917647,3.24918072 L9.01882353,4.34287769 C8.68705882,4.67240716 8.42588235,4.39330138 8.42588235,4.39330138 L7.76235294,3.72358953 L6.64705882,5.26115702 L7.67764706,5.88186556 C7.67764706,5.88186556 7.87529412,6.06864628 7.76235294,6.44007713 L7.35294118,8.8234843 C7.31058824,9.03086061 7.00705882,9.52231405 6.78823529,9.52231405 C6.54117647,9.52231405 6.33647059,8.98327769 6.33647059,8.73257961 L6.35058824,8.61894876 L6.78823529,6.66307769 L5.70823529,5.60915152 L4.78352941,6.64958402 C4.78352941,6.64958402 4.63529412,6.69645675 4.23294118,6.6815427 L2.35529412,6.6815427 C2.14352941,6.68438347 1.75529412,6.68367328 1.70588235,6.46990523 C1.64941176,6.22630909 2.00235294,5.98626391 2.24235294,5.93228926 L2.35529412,5.97134986 L4.52941176,5.92518733 L6.36470588,3.13697025 L5.74352941,3.13341928" id="Fill-156" opacity="0.2" fill="#0A0B09" sketch:type="MSShapeGroup"></path>
        <path d="M2.41176471,10.2325069 L2.41176471,10.9426997 L10.1764706,10.9426997 L10.8823529,10.2325069 L10.8823529,9.52231405 L10.1764706,9.52231405 L10.1764706,10.2325069 L2.41176471,10.2325069" id="Fill-157" opacity="0.2" fill="#0A0B09" sketch:type="MSShapeGroup"></path>
        <path d="M1,7.39173554 L1.70588235,7.39173554 L3.82352941,9.52231405 L3.11764706,9.52231405 L1,7.39173554" id="Fill-158" opacity="0.2" fill="#0A0B09" sketch:type="MSShapeGroup"></path>
        <path d="M8.05882353,9.52231405 L8.76470588,9.52231405 L10.8823529,3.84077135 L10.1764706,3.84077135 L8.05882353,9.52231405" id="Fill-159" opacity="0.2" fill="#0A0B09" sketch:type="MSShapeGroup"></path>
        <path d="M7.35294118,1 L8.76470588,1 L8.76470588,2.42038567 L7.35294118,2.42038567 L7.35294118,1 Z" id="Fill-160" opacity="0.2" fill="#0A0B09" sketch:type="MSShapeGroup"></path>
        <path d="M4.74352941,2.13341928 L3.65647059,3.39401157 C3.59294118,3.47355317 3.49411765,3.52397686 3.38117647,3.52397686 C3.19058824,3.52397686 3.03529412,3.36560386 3.03529412,3.17030083 C3.03529412,3.0637719 3.07764706,2.97073664 3.14823529,2.90468871 L4.32,1.54822039 C4.38352941,1.47151956 4.48235294,1.42038567 4.59529412,1.42038567 L6.28941176,1.42038567 C6.40941176,1.42038567 6.26823529,2.04961653 6.35294118,2.13057851 L7.68705882,2.6376562 L8.58352941,1.73855207 C8.64705882,1.6852876 8.72470588,1.65261873 8.81647059,1.65261873 C9.01411765,1.65261873 9.17647059,1.81596309 9.17647059,2.01765785 C9.17647059,2.10572176 9.14823529,2.18526336 9.09176471,2.24918072 L8.01882353,3.34287769 C7.68705882,3.67240716 7.42588235,3.39330138 7.42588235,3.39330138 L6.76235294,2.72358953 L5.64705882,4.26115702 L6.67764706,4.88186556 C6.67764706,4.88186556 6.87529412,5.06864628 6.76235294,5.44007713 L6.35294118,7.8234843 C6.31058824,8.03086061 6.00705882,8.52231405 5.78823529,8.52231405 C5.54117647,8.52231405 5.33647059,7.98327769 5.33647059,7.73257961 L5.35058824,7.61894876 L5.78823529,5.66307769 L4.70823529,4.60915152 L3.78352941,5.64958402 C3.78352941,5.64958402 3.63529412,5.69645675 3.23294118,5.6815427 L1.35529412,5.6815427 C1.14352941,5.68438347 0.755294118,5.68367328 0.705882353,5.46990523 C0.649411765,5.22630909 1.00235294,4.98626391 1.24235294,4.93228926 L1.35529412,4.97134986 L3.52941176,4.92518733 L5.36470588,2.13697025 L4.74352941,2.13341928" id="Fill-156" fill="#0A0B09" sketch:type="MSShapeGroup"></path>
        <path d="M1.41176471,9.23250689 L1.41176471,9.94269972 L9.17647059,9.94269972 L9.88235294,9.23250689 L9.88235294,8.52231405 L9.17647059,8.52231405 L9.17647059,9.23250689 L1.41176471,9.23250689" id="Fill-157" fill="#0A0B09" sketch:type="MSShapeGroup"></path>
        <path d="M0,6.39173554 L0.705882353,6.39173554 L2.82352941,8.52231405 L2.11764706,8.52231405 L0,6.39173554" id="Fill-158" fill="#0A0B09" sketch:type="MSShapeGroup"></path>
        <path d="M7.05882353,8.52231405 L7.76470588,8.52231405 L9.88235294,2.84077135 L9.17647059,2.84077135 L7.05882353,8.52231405" id="Fill-159" fill="#0A0B09" sketch:type="MSShapeGroup"></path>
        <path d="M6.35294118,0 L7.76470588,0 L7.76470588,1.42038567 L6.35294118,1.42038567 L6.35294118,0 Z" id="Fill-160" fill="#0A0B09" sketch:type="MSShapeGroup"></path>
    </g>
</svg>