<?xml version="1.0" encoding="utf-8"?>
<!-- Generator: Adobe Illustrator 18.1.1, SVG Export Plug-In . SVG Version: 6.00 Build 0)  -->
<svg version="1.1" xmlns="http://www.w3.org/2000/svg" xmlns:xlink="http://www.w3.org/1999/xlink" x="0px" y="0px"
	 viewBox="0 0 12 12" enable-background="new 0 0 12 12" xml:space="preserve">
<g id="shadows-text-objects" display="none">
	<text transform="matrix(1 0 0 1 2.751 9.142)" display="inline" opacity="0.2" font-family="'FrutigerLTStd-Roman'" font-size="9">D</text>
</g>
<g id="letters-text-objects" display="none">
	<text transform="matrix(1 0 0 1 2.251 8.6418)" display="inline" font-family="'FrutigerLTStd-Roman'" font-size="9">D</text>
</g>
<g id="shadows-outlines">
	<g opacity="0.2">
		<path d="M3.498,2.858h1.854c1.864,0,3.35,1.152,3.35,3.087c0,2.107-1.278,3.196-3.35,3.196H3.498V2.858z M4.398,8.35h0.945
			c1.549,0,2.403-0.747,2.403-2.368c0-1.467-0.999-2.331-2.295-2.331H4.398V8.35z"/>
	</g>
</g>
<g id="letters-outlines">
	<g>
		<path d="M2.998,2.358h1.854c1.864,0,3.35,1.152,3.35,3.087c0,2.107-1.278,3.196-3.35,3.196H2.998V2.358z M3.898,7.85h0.945
			c1.549,0,2.403-0.747,2.403-2.368c0-1.467-0.999-2.331-2.296-2.331H3.898V7.85z"/>
	</g>
</g>
<g id="guides_and_set-up" display="none">
</g>
</svg>
