<?xml version="1.0" encoding="utf-8"?>
<!-- Generator: Adobe Illustrator 18.1.1, SVG Export Plug-In . SVG Version: 6.00 Build 0)  -->
<svg version="1.1" xmlns="http://www.w3.org/2000/svg" xmlns:xlink="http://www.w3.org/1999/xlink" x="0px" y="0px"
	 viewBox="0 0 18 18" enable-background="new 0 0 18 18" xml:space="preserve">
<g id="shadows-text-objects" display="none">
	
		<text transform="matrix(1 0 0 1 5.5569 13.7503)" display="inline" opacity="0.2" font-family="'FrutigerLTStd-Roman'" font-size="13">D</text>
</g>
<g id="letters-text-objects" display="none">
	<text transform="matrix(1 0 0 1 4.8071 13.0002)" display="inline" font-family="'FrutigerLTStd-Roman'" font-size="13">D</text>
</g>
<g id="shadows-outlines">
	<g opacity="0.2">
		<path d="M6.636,4.676h2.679c2.691,0,4.836,1.664,4.836,4.459c0,3.042-1.846,4.615-4.836,4.615H6.636V4.676z M7.936,12.606h1.365
			c2.236,0,3.472-1.079,3.472-3.42c0-2.118-1.443-3.366-3.315-3.366H7.936V12.606z"/>
	</g>
</g>
<g id="letters-outlines">
	<g>
		<path d="M5.887,3.926h2.678c2.691,0,4.836,1.664,4.836,4.459C13.4,11.427,11.555,13,8.564,13H5.887V3.926z M7.186,11.856h1.365
			c2.236,0,3.472-1.079,3.472-3.42c0-2.118-1.443-3.366-3.315-3.366H7.186V11.856z"/>
	</g>
</g>
<g id="guides_and_set-up" display="none">
</g>
</svg>
