<?xml version="1.0" encoding="utf-8"?>
<!-- Generator: Adobe Illustrator 18.1.1, SVG Export Plug-In . SVG Version: 6.00 Build 0)  -->
<svg version="1.1" xmlns="http://www.w3.org/2000/svg" xmlns:xlink="http://www.w3.org/1999/xlink" x="0px" y="0px"
	 viewBox="0 0 24 24" enable-background="new 0 0 24 24" xml:space="preserve">
<g id="shadows-text-objects" display="none">
	
		<text transform="matrix(1 0 0 1 7.3632 18.4326)" display="inline" opacity="0.2" font-family="'FrutigerLTStd-Roman'" font-size="17">D</text>
</g>
<g id="letters-text-objects" display="none">
	<text transform="matrix(1 0 0 1 6.3633 17.4329)" display="inline" font-family="'FrutigerLTStd-Roman'" font-size="17">D</text>
</g>
<g id="shadows-outlines">
	<g opacity="0.2">
		<path d="M8.774,6.568h3.502c3.519,0,6.324,2.176,6.324,5.83c0,3.978-2.414,6.034-6.324,6.034H8.774V6.568z M10.474,16.937h1.785
			c2.924,0,4.538-1.41,4.538-4.47c0-2.771-1.887-4.403-4.334-4.403h-1.989V16.937z"/>
	</g>
</g>
<g id="letters-outlines">
	<g>
		<path d="M7.774,5.568h3.502c3.519,0,6.324,2.176,6.324,5.83c0,3.978-2.414,6.034-6.324,6.034H7.774V5.568z M9.474,15.937h1.785
			c2.924,0,4.538-1.41,4.538-4.47c0-2.771-1.887-4.403-4.334-4.403H9.474V15.937z"/>
	</g>
</g>
<g id="guides_and_set-up" display="none">
</g>
</svg>
