<?xml version="1.0" encoding="UTF-8" standalone="no"?>
<!-- Created with Inkscape (http://www.inkscape.org/) -->

<svg
   xmlns:dc="http://purl.org/dc/elements/1.1/"
   xmlns:cc="http://creativecommons.org/ns#"
   xmlns:rdf="http://www.w3.org/1999/02/22-rdf-syntax-ns#"
   xmlns:svg="http://www.w3.org/2000/svg"
   xmlns="http://www.w3.org/2000/svg"
   xmlns:inkscape="http://www.inkscape.org/namespaces/inkscape"
   version="1.1"
   width="24"
   height="24"
   id="svg4460">
  <defs
     id="defs4462" />
  <metadata
     id="metadata4465">
    <rdf:RDF>
      <cc:Work
         rdf:about="">
        <dc:format>image/svg+xml</dc:format>
        <dc:type
           rdf:resource="http://purl.org/dc/dcmitype/StillImage" />
        <dc:title />
      </cc:Work>
    </rdf:RDF>
  </metadata>
  <g
     transform="translate(0,-1028.3622)"
     id="layer1">
    <g
       transform="translate(-476,-285.99998)"
       id="dam-24"
       style="display:inline">
      <g
         transform="translate(2,0)"
         id="g7277">
        <path
           d="m 478,1320.3622 c 0,2.2083 0,6.625 0,6.625 l 0,2.0313 0,1.9687 0,1.375 c 0,0.5 0.5,1 1,1 l 5,0 -4,-14 c 0,0 -0.66667,0 -1,0 -0.5,0 -1,0.5 -1,1 z m 8.5,6 c -0.10553,0 -0.21675,0.033 -0.3125,0.062 l -2.4375,0.8438 0.53125,1.875 2.21875,-0.7813 2.6875,0.9375 c 0.10312,0.034 0.20717,0.062 0.3125,0.062 0.10533,0 0.21434,-0.032 0.3125,-0.062 l 3.1875,-0.9375 2,0.6563 0,-2.0313 -1.6875,-0.5625 c -0.0994,-0.033 -0.20697,-0.062 -0.3125,-0.062 -0.10553,0 -0.21062,0.029 -0.3125,0.062 l -3.1875,0.9375 -2.6875,-0.9375 c -0.10552,-0.035 -0.20697,-0.062 -0.3125,-0.062 z m 0,4 c -0.10553,0 -0.21675,0.033 -0.3125,0.062 l -1.375,0.4688 0.53125,1.875 1.15625,-0.4063 2.6875,0.9375 c 0.10312,0.034 0.20717,0.062 0.3125,0.062 0.10533,0 0.21434,-0.032 0.3125,-0.062 l 3.1875,-0.9375 2,0.6563 0,-2.0313 -1.6875,-0.5625 c -0.0994,-0.033 -0.20697,-0.062 -0.3125,-0.062 -0.10553,0 -0.21062,0.029 -0.3125,0.062 l -3.1875,0.9375 -2.6875,-0.9375 c -0.10552,-0.035 -0.20697,-0.062 -0.3125,-0.062 z"
           inkscape:connector-curvature="0"
           id="path7063"
           style="opacity:0.3;color:#000000;fill:#ffffff;fill-opacity:1;fill-rule:nonzero;stroke:#ffffff;stroke-width:2;stroke-linecap:round;stroke-linejoin:round;stroke-miterlimit:4;stroke-opacity:1;stroke-dasharray:none;stroke-dashoffset:0;marker:none;visibility:visible;display:inline;overflow:visible;enable-background:accumulate" />
        <path
           d="m 478,1320.3622 c 0,2.2083 0,6.625 0,6.625 l 0,2.0313 0,1.9687 0,1.375 c 0,0.5 0.5,1 1,1 l 5,0 -4,-14 c 0,0 -0.66667,0 -1,0 -0.5,0 -1,0.5 -1,1 z m 8.5,6 c -0.10553,0 -0.21675,0.033 -0.3125,0.062 l -2.4375,0.8438 0.53125,1.875 2.21875,-0.7813 2.6875,0.9375 c 0.10312,0.034 0.20717,0.062 0.3125,0.062 0.10533,0 0.21434,-0.032 0.3125,-0.062 l 3.1875,-0.9375 2,0.6563 0,-2.0313 -1.6875,-0.5625 c -0.0994,-0.033 -0.20697,-0.062 -0.3125,-0.062 -0.10553,0 -0.21062,0.029 -0.3125,0.062 l -3.1875,0.9375 -2.6875,-0.9375 c -0.10552,-0.035 -0.20697,-0.062 -0.3125,-0.062 z m 0,4 c -0.10553,0 -0.21675,0.033 -0.3125,0.062 l -1.375,0.4688 0.53125,1.875 1.15625,-0.4063 2.6875,0.9375 c 0.10312,0.034 0.20717,0.062 0.3125,0.062 0.10533,0 0.21434,-0.032 0.3125,-0.062 l 3.1875,-0.9375 2,0.6563 0,-2.0313 -1.6875,-0.5625 c -0.0994,-0.033 -0.20697,-0.062 -0.3125,-0.062 -0.10553,0 -0.21062,0.029 -0.3125,0.062 l -3.1875,0.9375 -2.6875,-0.9375 c -0.10552,-0.035 -0.20697,-0.062 -0.3125,-0.062 z"
           inkscape:connector-curvature="0"
           id="path7047"
           style="color:#000000;fill:#444444;fill-opacity:1;fill-rule:nonzero;stroke:none;stroke-width:2;marker:none;visibility:visible;display:inline;overflow:visible;enable-background:accumulate" />
      </g>
    </g>
  </g>
  <rect
     width="24"
     height="24"
     x="0"
     y="0"
     id="canvas"
     style="fill:none;stroke:none;visibility:hidden" />
</svg>
