<?xml version="1.0" encoding="UTF-8" standalone="no"?>
<!-- Created with Inkscape (http://www.inkscape.org/) -->

<svg
   xmlns:dc="http://purl.org/dc/elements/1.1/"
   xmlns:cc="http://creativecommons.org/ns#"
   xmlns:rdf="http://www.w3.org/1999/02/22-rdf-syntax-ns#"
   xmlns:svg="http://www.w3.org/2000/svg"
   xmlns="http://www.w3.org/2000/svg"
   xmlns:inkscape="http://www.inkscape.org/namespaces/inkscape"
   version="1.1"
   width="12"
   height="12"
   id="svg4764">
  <defs
     id="defs4766" />
  <metadata
     id="metadata4769">
    <rdf:RDF>
      <cc:Work
         rdf:about="">
        <dc:format>image/svg+xml</dc:format>
        <dc:type
           rdf:resource="http://purl.org/dc/dcmitype/StillImage" />
        <dc:title />
      </cc:Work>
    </rdf:RDF>
  </metadata>
  <g
     transform="translate(0,-1040.3622)"
     id="layer1">
    <g
       transform="translate(-594,-9.9999826)"
       id="danger-12"
       style="display:inline">
      <path
         d="m 599.5,1051.3622 -1.5,1.5 c 0,0 0,1.3333 0,2 l 1,1 c 0,0.1667 0,0.5 0,0.5 l 1.5,1 1.5,-1 0,-0.5 1,-1 0,-2 -1.5,-1.5 z m -0.5,2 1,0 0,0.5 -1,0 z m 2,0 1,0 0,0.5 -1,0 z m -5,3 0,1 0.56039,0.2802 2.43961,1.2198 -3,1.5 0,1 0.5,0 5.5,-2.5 3,-1.5 0,-1 -0.5,0 -3,1.5 -0.5,0.5 -1,0 -0.5,-0.5 -3,-1.5 z m 7,3 -1.5,0.5 3,1.5 0.5,0 0,-1 z"
         inkscape:connector-curvature="0"
         id="path5690"
         style="opacity:0.3;color:#000000;fill:#ffffff;fill-opacity:1;fill-rule:nonzero;stroke:#ffffff;stroke-width:2;stroke-linecap:round;stroke-linejoin:round;stroke-miterlimit:4;stroke-opacity:1;stroke-dasharray:none;stroke-dashoffset:0;marker:none;visibility:visible;display:inline;overflow:visible;enable-background:accumulate" />
      <path
         d="m 599.5,1051.3622 -1.5,1.5 c 0,0 0,1.3333 0,2 l 1,1 c 0,0.1667 0,0.5 0,0.5 l 1.5,1 1.5,-1 0,-0.5 1,-1 0,-2 -1.5,-1.5 z m -0.5,2 1,0 0,0.5 -1,0 z m 2,0 1,0 0,0.5 -1,0 z m -5,3 0,1 0.56039,0.2802 2.43961,1.2198 -3,1.5 0,1 0.5,0 5.5,-2.5 3,-1.5 0,-1 -0.5,0 -3,1.5 -0.5,0.5 -1,0 -0.5,-0.5 -3,-1.5 z m 7,3 -1.5,0.5 3,1.5 0.5,0 0,-1 z"
         inkscape:connector-curvature="0"
         id="path4274"
         style="color:#000000;fill:#444444;fill-opacity:1;fill-rule:nonzero;stroke:none;stroke-width:0;marker:none;visibility:visible;display:inline;overflow:visible;enable-background:accumulate" />
    </g>
  </g>
  <rect
     width="12"
     height="12"
     x="0"
     y="0"
     id="canvas"
     style="fill:none;stroke:none;visibility:hidden" />
</svg>
