<?xml version="1.0" encoding="UTF-8" standalone="no"?>
<!-- Created with Inkscape (http://www.inkscape.org/) -->

<svg
   xmlns:dc="http://purl.org/dc/elements/1.1/"
   xmlns:cc="http://creativecommons.org/ns#"
   xmlns:rdf="http://www.w3.org/1999/02/22-rdf-syntax-ns#"
   xmlns:svg="http://www.w3.org/2000/svg"
   xmlns="http://www.w3.org/2000/svg"
   xmlns:inkscape="http://www.inkscape.org/namespaces/inkscape"
   version="1.1"
   width="18"
   height="18"
   id="svg4619">
  <defs
     id="defs4621" />
  <metadata
     id="metadata4624">
    <rdf:RDF>
      <cc:Work
         rdf:about="">
        <dc:format>image/svg+xml</dc:format>
        <dc:type
           rdf:resource="http://purl.org/dc/dcmitype/StillImage" />
        <dc:title />
      </cc:Work>
    </rdf:RDF>
  </metadata>
  <g
     transform="translate(0,-1034.3622)"
     id="layer1">
    <g
       transform="translate(-576.00002,-15.999983)"
       id="danger-18"
       style="display:inline">
      <path
         d="m 584.5,1052.3622 -1.5,0.5 -1,1.5 0,2.5 1.5,1 0,1.5 2,1 2,-1 0,-1.5 1.5,-1 0,-2.5 -1,-1.5 -1.5,-0.5 z m -0.5,2.5 0.5,0 0.5,0.5 0,0.5 -0.5,0.5 -0.5,0 -0.5,-0.5 0,-0.5 z m 2.5,0 0.5,0 0.5,0.5 0,0.5 -0.5,0.5 -0.5,0 -0.5,-0.5 0,-0.5 z m -6.5,5 0,1 3.875,1.75 -3.875,1.75 0,1 1,0 10,-4.5 0,-1 -1,0 -4.5,2.0313 -4.5,-2.0313 z m 8.21875,3.25 -1.59375,0.7188 3.375,1.5312 1,0 0,-1 z"
         inkscape:connector-curvature="0"
         id="path5653"
         style="opacity:0.3;color:#000000;fill:#ffffff;fill-opacity:1;fill-rule:nonzero;stroke:#ffffff;stroke-width:2;stroke-linecap:round;stroke-linejoin:round;stroke-miterlimit:4;stroke-opacity:1;stroke-dasharray:none;stroke-dashoffset:0;marker:none;visibility:visible;display:inline;overflow:visible;enable-background:accumulate" />
      <path
         d="m 584.5,1052.3622 -1.5,0.5 -1,1.5 0,2.5 1.5,1 0,1.5 2,1 2,-1 0,-1.5 1.5,-1 0,-2.5 -1,-1.5 -1.5,-0.5 z m -0.5,2.5 0.5,0 0.5,0.5 0,0.5 -0.5,0.5 -0.5,0 -0.5,-0.5 0,-0.5 z m 2.5,0 0.5,0 0.5,0.5 0,0.5 -0.5,0.5 -0.5,0 -0.5,-0.5 0,-0.5 z m -6.5,5 0,1 3.875,1.75 -3.875,1.75 0,1 1,0 10,-4.5 0,-1 -1,0 -4.5,2.0313 -4.5,-2.0313 z m 8.21875,3.25 -1.59375,0.7188 3.375,1.5312 1,0 0,-1 z"
         inkscape:connector-curvature="0"
         id="path5517"
         style="color:#000000;fill:#444444;fill-opacity:1;fill-rule:nonzero;stroke:none;stroke-width:0;marker:none;visibility:visible;display:inline;overflow:visible;enable-background:accumulate" />
    </g>
  </g>
  <rect
     width="18"
     height="18"
     x="0"
     y="0"
     id="canvas"
     style="fill:none;stroke:none;visibility:hidden" />
</svg>
