<?xml version="1.0" encoding="utf-8"?>
<!-- Generator: Adobe Illustrator 15.1.0, SVG Export Plug-In . SVG Version: 6.00 Build 0)  -->
<!DOCTYPE svg PUBLIC "-//W3C//DTD SVG 1.1//EN" "http://www.w3.org/Graphics/SVG/1.1/DTD/svg11.dtd">
<svg version="1.1"
	 id="svg4764" sodipodi:docname="marker-stroked-12.svg" inkscape:version="0.48.2 r9819" xmlns:dc="http://purl.org/dc/elements/1.1/" xmlns:rdf="http://www.w3.org/1999/02/22-rdf-syntax-ns#" xmlns:inkscape="http://www.inkscape.org/namespaces/inkscape" xmlns:sodipodi="http://sodipodi.sourceforge.net/DTD/sodipodi-0.dtd" xmlns:cc="http://creativecommons.org/ns#" xmlns:svg="http://www.w3.org/2000/svg"
	 xmlns="http://www.w3.org/2000/svg" xmlns:xlink="http://www.w3.org/1999/xlink" x="0px" y="0px" width="12px" height="12px"
	 viewBox="0 0 12 12" enable-background="new 0 0 12 12" xml:space="preserve">
<g id="layer1" transform="translate(0,-1028.3622)">
	<g id="dentist-12" transform="translate(-162,-142)">

			<path opacity="0.3" fill="#444444" stroke="#FFFFFF" stroke-width="2" stroke-linecap="round" stroke-linejoin="round" enable-background="new    " d="
			M166,1180.862c-1,0-1.438-2.802-1.771-4.397c-0.283-1.354-0.727-3.832,0.927-4.103c1.632-0.269,1.666,1,2.843,1
			c1.178,0,1.21-1.27,2.841-1c1.657,0.271,1.212,2.748,0.93,4.103c-0.334,1.595-0.771,4.397-1.771,4.397s-0.822-2-2-2
			C166.816,1178.862,167,1180.862,166,1180.862z"/>
		<path fill="#49484A" d="M166,1180.862c-1,0-1.438-2.802-1.771-4.397c-0.283-1.354-0.727-3.832,0.927-4.103
			c1.632-0.269,1.666,1,2.843,1c1.178,0,1.21-1.27,2.841-1c1.657,0.271,1.212,2.748,0.93,4.103
			c-0.334,1.595-0.771,4.397-1.771,4.397s-0.822-2-2-2C166.816,1178.862,167,1180.862,166,1180.862z"/>
	</g>
</g>
<rect id="canvas" style="fill:none;stroke:none;visibility:hidden" width="12" height="12"/>
</svg>
