<?xml version="1.0" encoding="utf-8"?>
<!-- Generator: Adobe Illustrator 15.1.0, SVG Export Plug-In . SVG Version: 6.00 Build 0)  -->
<!DOCTYPE svg PUBLIC "-//W3C//DTD SVG 1.1//EN" "http://www.w3.org/Graphics/SVG/1.1/DTD/svg11.dtd">
<svg version="1.1"
	 id="svg4619" sodipodi:docname="maki-18-base.svg" inkscape:version="0.48.2 r9819" xmlns:dc="http://purl.org/dc/elements/1.1/" xmlns:rdf="http://www.w3.org/1999/02/22-rdf-syntax-ns#" xmlns:inkscape="http://www.inkscape.org/namespaces/inkscape" xmlns:sodipodi="http://sodipodi.sourceforge.net/DTD/sodipodi-0.dtd" xmlns:cc="http://creativecommons.org/ns#" xmlns:svg="http://www.w3.org/2000/svg"
	 xmlns="http://www.w3.org/2000/svg" xmlns:xlink="http://www.w3.org/1999/xlink" x="0px" y="0px" width="18px" height="18px"
	 viewBox="0 0 18 18" enable-background="new 0 0 18 18" xml:space="preserve">
<g id="layer1" transform="translate(0,-1028.3622)">
	<g id="dentist-18" transform="translate(-162,-142)">

			<path opacity="0.3" fill="#444444" stroke="#FFFFFF" stroke-width="2" stroke-linecap="round" stroke-linejoin="round" enable-background="new    " d="
			M167.5,1185.862c-1.5,0-1.656-3.953-2.156-6.346c-0.424-2.031-1.09-5.747,1.391-6.154c2.448-0.403,2.499,1.5,4.265,1.5
			c1.767,0,1.814-1.904,4.262-1.5c2.485,0.407,1.817,4.122,1.394,6.154c-0.501,2.393-0.655,6.346-2.155,6.346
			s-1.733-3.001-3.5-3.001C169.224,1182.861,169,1185.862,167.5,1185.862z"/>
		<path fill="#49484A" d="M167.5,1185.862c-1.5,0-1.656-3.953-2.156-6.346c-0.424-2.031-1.09-5.747,1.391-6.154
			c2.448-0.403,2.499,1.5,4.265,1.5c1.767,0,1.814-1.904,4.262-1.5c2.485,0.407,1.817,4.122,1.394,6.154
			c-0.501,2.393-0.655,6.346-2.155,6.346s-1.733-3-3.5-3C169.224,1182.861,169,1185.862,167.5,1185.862z"/>
	</g>
</g>
<rect id="canvas" style="fill:none;stroke:none;visibility:hidden" width="18" height="18" />
</svg>
