<?xml version="1.0" encoding="utf-8"?>
<!-- Generator: Adobe Illustrator 15.1.0, SVG Export Plug-In . SVG Version: 6.00 Build 0)  -->
<!DOCTYPE svg PUBLIC "-//W3C//DTD SVG 1.1//EN" "http://www.w3.org/Graphics/SVG/1.1/DTD/svg11.dtd">
<svg version="1.1"
	 id="Ebene_1" xmlns:inkscape="http://www.inkscape.org/namespaces/inkscape" xmlns:rdf="http://www.w3.org/1999/02/22-rdf-syntax-ns#" xmlns:svg="http://www.w3.org/2000/svg" xmlns:cc="http://creativecommons.org/ns#" xmlns:dc="http://purl.org/dc/elements/1.1/"
	 xmlns="http://www.w3.org/2000/svg" xmlns:xlink="http://www.w3.org/1999/xlink" x="0px" y="0px" width="24px" height="24px"
	 viewBox="0 0 24 24" enable-background="new 0 0 24 24" xml:space="preserve">
<g id="layer1" transform="translate(0,-1028.3622)">
	<g id="dentist-24" transform="translate(-162,-142)">

			<path opacity="0.3" fill="#444444" stroke="#FFFFFF" stroke-width="2" stroke-linecap="round" stroke-linejoin="round" enable-background="new    " d="
			M169.5,1190.862c-2,0-2.375-5.104-3.041-8.294c-0.566-2.709-1.454-8.086,1.854-8.629c3.264-0.538,3.331,1.929,5.686,1.929
			c2.355,0,2.421-2.468,5.683-1.929c3.314,0.543,2.424,5.919,1.858,8.629c-0.668,3.191-1.04,8.294-3.04,8.294
			s-2.146-4.494-4.501-4.494C171.63,1186.368,171.5,1190.862,169.5,1190.862z"/>
		<path fill="#49484A" d="M169.5,1190.862c-2,0-2.375-5.104-3.041-8.294c-0.566-2.709-1.454-8.086,1.854-8.629
			c3.264-0.538,3.331,1.929,5.686,1.929c2.355,0,2.421-2.468,5.683-1.929c3.314,0.543,2.424,5.919,1.858,8.629
			c-0.668,3.19-1.04,8.294-3.04,8.294s-2.146-4.493-4.501-4.493C171.63,1186.368,171.5,1190.862,169.5,1190.862z"/>
	</g>
</g>
<rect id="canvas" style="fill:none;stroke:none;visibility:hidden" width="24" height="24" />
</svg>
