<?xml version="1.0" encoding="UTF-8" standalone="no"?>
<!-- Created with Inkscape (http://www.inkscape.org/) -->

<svg
   xmlns:dc="http://purl.org/dc/elements/1.1/"
   xmlns:cc="http://creativecommons.org/ns#"
   xmlns:rdf="http://www.w3.org/1999/02/22-rdf-syntax-ns#"
   xmlns:svg="http://www.w3.org/2000/svg"
   xmlns="http://www.w3.org/2000/svg"
   xmlns:inkscape="http://www.inkscape.org/namespaces/inkscape"
   version="1.1"
   width="18"
   height="18"
   id="svg4619">
  <defs
     id="defs4621" />
  <metadata
     id="metadata4624">
    <rdf:RDF>
      <cc:Work
         rdf:about="">
        <dc:format>image/svg+xml</dc:format>
        <dc:type
           rdf:resource="http://purl.org/dc/dcmitype/StillImage" />
        <dc:title />
      </cc:Work>
    </rdf:RDF>
  </metadata>
  <g
     transform="translate(0,-1034.3622)"
     id="layer1">
    <g
       transform="translate(-342,-329)"
       id="disability-18"
       style="display:inline">
      <path
         d="m 350.5,1364.3622 c -1.10457,0 -2,0.8954 -2,2 0,1.1046 0.89543,2 2,2 1.10457,0 2,-0.8954 2,-2 0,-1.1046 -0.89543,-2 -2,-2 z m -0.5,5 -1,1 0,4 1,1 4.375,0 2.625,3 1,0 0,-1 -2.5,-3.125 -0.5,-0.375 -2,0 -1,-3.5 -1,-1 -1,0 z m -2,1.5 c -1.74838,0.6175 -3,2.5403 -3,4.5 0,2.4853 2.01472,4.5 4.5,4.5 2.23171,0 4.08276,-1.3689 4.4375,-3.5 l -1.4375,0 c -0.40358,1.2975 -1.38217,2 -2.8125,2 -1.76041,0 -3.1875,-1.4271 -3.1875,-3.1875 0,-1.1382 0.6025,-2.2486 1.5,-2.8125 l 0,-1.5 z"
         inkscape:connector-curvature="0"
         id="path7591"
         style="opacity:0.3;color:#000000;fill:none;stroke:#ffffff;stroke-width:2;stroke-linecap:round;stroke-linejoin:round;stroke-miterlimit:4;stroke-opacity:1;stroke-dasharray:none;stroke-dashoffset:0;marker:none;visibility:visible;display:inline;overflow:visible;enable-background:accumulate" />
      <path
         d="m 350.5,1364.3622 c -1.10457,0 -2,0.8954 -2,2 0,1.1046 0.89543,2 2,2 1.10457,0 2,-0.8954 2,-2 0,-1.1046 -0.89543,-2 -2,-2 z m -0.5,5 -1,1 0,4 1,1 4.375,0 2.625,3 1,0 0,-1 -2.5,-3.125 -0.5,-0.375 -2,0 -1,-3.5 -1,-1 -1,0 z m -2,1.5 c -1.74838,0.6175 -3,2.5403 -3,4.5 0,2.4853 2.01472,4.5 4.5,4.5 2.23171,0 4.08276,-1.3689 4.4375,-3.5 l -1.4375,0 c -0.40358,1.2975 -1.38217,2 -2.8125,2 -1.76041,0 -3.1875,-1.4271 -3.1875,-3.1875 0,-1.1382 0.6025,-2.2486 1.5,-2.8125 l 0,-1.5 z"
         inkscape:connector-curvature="0"
         id="path7539"
         style="color:#000000;fill:#444444;fill-opacity:1;fill-rule:nonzero;stroke:none;stroke-width:2;marker:none;visibility:visible;display:inline;overflow:visible;enable-background:accumulate" />
    </g>
  </g>
  <rect
     width="18"
     height="18"
     x="0"
     y="0"
     id="canvas"
     style="fill:none;stroke:none;visibility:hidden" />
</svg>
