<?xml version="1.0" encoding="UTF-8" standalone="no"?>
<!-- Created with Inkscape (http://www.inkscape.org/) -->

<svg
   xmlns:dc="http://purl.org/dc/elements/1.1/"
   xmlns:cc="http://creativecommons.org/ns#"
   xmlns:rdf="http://www.w3.org/1999/02/22-rdf-syntax-ns#"
   xmlns:svg="http://www.w3.org/2000/svg"
   xmlns="http://www.w3.org/2000/svg"
   xmlns:inkscape="http://www.inkscape.org/namespaces/inkscape"
   version="1.1"
   width="12"
   height="12"
   id="svg4764">
  <defs
     id="defs4766" />
  <metadata
     id="metadata4769">
    <rdf:RDF>
      <cc:Work
         rdf:about="">
        <dc:format>image/svg+xml</dc:format>
        <dc:type
           rdf:resource="http://purl.org/dc/dcmitype/StillImage" />
        <dc:title />
      </cc:Work>
    </rdf:RDF>
  </metadata>
  <g
     transform="translate(0,-1040.3622)"
     id="layer1">
    <g
       transform="translate(-360,-322.99998)"
       id="disability-12"
       style="display:inline">
      <path
         d="m 365.5,1364.3622 c -0.82843,0 -1.5,0.6716 -1.5,1.5 0,0.8284 0.67157,1.5 1.5,1.5 0.82843,0 1.5,-0.6716 1.5,-1.5 0,-0.8284 -0.67157,-1.5 -1.5,-1.5 z m -0.5,3.5 0,3.5 3.25,0 1.75,2 1,0 0,-0.5 -2,-2.5 -1.65625,0 -0.84375,-2.5 -1.5,0 z m -1,0.5 c -1.16559,0.4117 -2,1.6935 -2,3 0,1.6569 1.34315,3 3,3 1.36817,0 2.51442,-0.7711 2.875,-2 l -1.03125,0 c -0.32327,0.6419 -0.90219,1 -1.71875,1 -1.17361,0 -2.125,-0.9514 -2.125,-2.125 0,-0.7588 0.40167,-1.499 1,-1.875 l 0,-1 z"
         inkscape:connector-curvature="0"
         id="path7618"
         style="opacity:0.3;color:#000000;fill:none;stroke:#ffffff;stroke-width:2;stroke-linecap:round;stroke-linejoin:round;stroke-miterlimit:4;stroke-opacity:1;stroke-dasharray:none;stroke-dashoffset:0;marker:none;visibility:visible;display:inline;overflow:visible;enable-background:accumulate" />
      <path
         d="m 365.5,1364.3622 c -0.82843,0 -1.5,0.6716 -1.5,1.5 0,0.8284 0.67157,1.5 1.5,1.5 0.82843,0 1.5,-0.6716 1.5,-1.5 0,-0.8284 -0.67157,-1.5 -1.5,-1.5 z m -0.5,3.5 0,3.5 3.25,0 1.75,2 1,0 0,-0.5 -2,-2.5 -1.65625,0 -0.84375,-2.5 -1.5,0 z m -1,0.5 c -1.16559,0.4117 -2,1.6935 -2,3 0,1.6569 1.34315,3 3,3 1.36817,0 2.51442,-0.7711 2.875,-2 l -1.03125,0 c -0.32327,0.6419 -0.90219,1 -1.71875,1 -1.17361,0 -2.125,-0.9514 -2.125,-2.125 0,-0.7588 0.40167,-1.499 1,-1.875 l 0,-1 z"
         inkscape:connector-curvature="0"
         id="path7562"
         style="color:#000000;fill:#444444;fill-opacity:1;fill-rule:nonzero;stroke:none;stroke-width:2;marker:none;visibility:visible;display:inline;overflow:visible;enable-background:accumulate" />
    </g>
  </g>
  <rect
     width="12"
     height="12"
     x="0"
     y="0"
     id="canvas"
     style="fill:none;stroke:none;visibility:hidden" />
</svg>
