<?xml version="1.0" encoding="UTF-8" standalone="no"?>
<svg
   xmlns:dc="http://purl.org/dc/elements/1.1/"
   xmlns:cc="http://creativecommons.org/ns#"
   xmlns:rdf="http://www.w3.org/1999/02/22-rdf-syntax-ns#"
   xmlns:svg="http://www.w3.org/2000/svg"
   xmlns="http://www.w3.org/2000/svg"
   id="svg2"
   height="24"
   width="24"
   version="1.1">
  <metadata
     id="metadata14">
    <rdf:RDF>
      <cc:Work
         rdf:about="">
        <dc:format>image/svg+xml</dc:format>
        <dc:type
           rdf:resource="http://purl.org/dc/dcmitype/StillImage" />
        <dc:title></dc:title>
      </cc:Work>
    </rdf:RDF>
  </metadata>
  <defs
     id="defs12" />
  <path
     d="m 6,5 -1,2 1,3 c -1,1 -1,2 -1,3 l -2,5 2,0 C 4.5179283,16.6105 5.7533498,15.6156 6.5,14.5 L 6,18 8,18 c -1.0043724,-1.587 0.3998945,-3.3997 1,-5 1,0 1.5,1 4,1 l -1,4 2,0 c -0.876022,-1.1183 -0.0756,-1.8488 0.5,-3 l 1.5,3 2,0 c -1.578269,-0.9097 -1.583004,-2.332 -2,-4 l 0.5,-2.5 -2,-3 L 13,9 7.5,9 6,7 7,5 6,5 z m 12,0 -2,1 -1,2 2,3 c 0.5,-1 2,-1 4.5,-1 L 22,8.5 18,6.5 18,6 19,5 18,5 z"
     id="path4731"
     style="fill:#444444;fill-opacity:1;stroke:#ffffff;stroke-width:2;stroke-miterlimit:4;stroke-dasharray:none;stroke-linejoin:round;stroke-linecap:round;opacity:0.3" />
  <path
     style="fill:#444444;fill-opacity:1"
     id="path6"
     d="m 6,5 -1,2 1,3 c -1,1 -1,2 -1,3 l -2,5 2,0 C 4.5179283,16.6105 5.7533498,15.6156 6.5,14.5 L 6,18 8,18 c -1.0043724,-1.587 0.3998945,-3.3997 1,-5 1,0 1.5,1 4,1 l -1,4 2,0 c -0.876022,-1.1183 -0.0756,-1.8488 0.5,-3 l 1.5,3 2,0 c -1.578269,-0.9097 -1.583004,-2.332 -2,-4 l 0.5,-2.5 -2,-3 L 13,9 7.5,9 6,7 7,5 6,5 z m 12,0 -2,1 -1,2 2,3 c 0.5,-1 2,-1 4.5,-1 L 22,8.5 18,6.5 18,6 19,5 18,5 z" />
  <rect
     style="fill:none;stroke:none;visibility:hidden"
     id="canvas"
     y="0"
     x="0"
     height="24"
     width="24" />
</svg>
