<?xml version="1.0" encoding="UTF-8" standalone="no"?>
<svg
   xmlns:dc="http://purl.org/dc/elements/1.1/"
   xmlns:cc="http://creativecommons.org/ns#"
   xmlns:rdf="http://www.w3.org/1999/02/22-rdf-syntax-ns#"
   xmlns:svg="http://www.w3.org/2000/svg"
   xmlns="http://www.w3.org/2000/svg"
   id="svg2"
   height="18"
   width="18"
   version="1.1">
  <metadata
     id="metadata15">
    <rdf:RDF>
      <cc:Work
         rdf:about="">
        <dc:format>image/svg+xml</dc:format>
        <dc:type
           rdf:resource="http://purl.org/dc/dcmitype/StillImage" />
        <dc:title></dc:title>
      </cc:Work>
    </rdf:RDF>
  </metadata>
  <defs
     id="defs13" />
  <path
     style="fill:#444444;stroke:#ffffff;stroke-width:2;stroke-miterlimit:4;stroke-dasharray:none;stroke-linejoin:round;stroke-linecap:round;opacity:0.3"
     d="M 14 3 L 12.5 4 L 11.5 6 L 13.5 8 L 14 7 L 16.5 7 L 17 6 L 14 4.5 L 15 3 L 14 3 z M 5 4 L 3.5 6 L 4.625 8.125 L 4.1503906 9.3242188 L 4.25 10 L 2 14 L 3 14 L 5.5 11 L 5 14 L 6 14 L 7 10 L 10.5 11 L 9.5 14 L 11 14 L 12 11 L 12.5 14 L 14 14 L 13 11 L 13 8.5 L 11 6.5 L 10 7 L 6 7 L 4.5 6 L 6 4 L 5 4 z "
     id="path4734" />
  <path
     id="path6"
     d="M 14 3 L 12.5 4 L 11.5 6 L 13.5 8 L 14 7 L 16.5 7 L 17 6 L 14 4.5 L 15 3 L 14 3 z M 5 4 L 3.5 6 L 4.625 8.125 L 4.1503906 9.3242188 L 4.25 10 L 2 14 L 3 14 L 5.5 11 L 5 14 L 6 14 L 7 10 L 10.5 11 L 9.5 14 L 11 14 L 12 11 L 12.5 14 L 14 14 L 13 11 L 13 8.5 L 11 6.5 L 10 7 L 6 7 L 4.5 6 L 6 4 L 5 4 z "
     style="fill:#444444" />
  <rect
     style="fill:none;stroke:none;visibility:hidden"
     id="canvas"
     y="0"
     x="0"
     height="18"
     width="18" />
</svg>
