<?xml version="1.0" encoding="UTF-8" standalone="no"?>
<svg
   xmlns:dc="http://purl.org/dc/elements/1.1/"
   xmlns:cc="http://creativecommons.org/ns#"
   xmlns:rdf="http://www.w3.org/1999/02/22-rdf-syntax-ns#"
   xmlns:svg="http://www.w3.org/2000/svg"
   xmlns="http://www.w3.org/2000/svg"
   xmlns:sodipodi="http://sodipodi.sourceforge.net/DTD/sodipodi-0.dtd"
   xmlns:inkscape="http://www.inkscape.org/namespaces/inkscape"
   width="18"
   height="18"
   id="svg3084"
   version="1.1"
   inkscape:version="0.48.4 r9939"
   sodipodi:docname="dog-park-18.svg">
  <metadata
     id="metadata3096">
    <rdf:RDF>
      <cc:Work
         rdf:about="">
        <dc:format>image/svg+xml</dc:format>
        <dc:type
           rdf:resource="http://purl.org/dc/dcmitype/StillImage" />
      </cc:Work>
    </rdf:RDF>
  </metadata>
  <defs
     id="defs3094" />
  <sodipodi:namedview
     pagecolor="#ffffff"
     bordercolor="#666666"
     borderopacity="1"
     objecttolerance="10"
     gridtolerance="10"
     guidetolerance="10"
     inkscape:pageopacity="0"
     inkscape:pageshadow="2"
     inkscape:window-width="1920"
     inkscape:window-height="1053"
     id="namedview3092"
     showgrid="false"
     inkscape:zoom="26.222222"
     inkscape:cx="3.8997454"
     inkscape:cy="9.0661484"
     inkscape:window-x="0"
     inkscape:window-y="27"
     inkscape:window-maximized="1"
     inkscape:current-layer="svg3084" />
  <path
     style="fill:#444444;fill-opacity:1;stroke:#ffffff;stroke-linejoin:round;stroke-linecap:round;stroke-width:2;stroke-miterlimit:4;stroke-dasharray:none;opacity:0.3"
     id="path4485"
     d="M 14 3 L 12.5 4 L 11.5 6 L 13.5 8 L 14 7 L 16.5 7 L 17 6 L 14 4.5 L 15 3 L 14 3 z M 5 4 L 3.5 6 L 4.625 8.125 L 4.15625 9.3125 L 4.25 10 L 2 14 L 3 14 L 5.5 11 L 5 14 L 6 14 L 7 10 L 10.5 11 L 9.5 14 L 11 14 L 12 11 L 12.5 14 L 14 14 L 13 11 L 13 8.5 L 11 6.5 L 10 7 L 6 7 L 4.5 6 L 6 4 L 5 4 z " />
  <path
     d="M 14 3 L 12.5 4 L 11.5 6 L 13.5 8 L 14 7 L 16.5 7 L 17 6 L 14 4.5 L 15 3 L 14 3 z M 5 4 L 3.5 6 L 4.625 8.125 L 4.15625 9.3125 L 4.25 10 L 2 14 L 3 14 L 5.5 11 L 5 14 L 6 14 L 7 10 L 10.5 11 L 9.5 14 L 11 14 L 12 11 L 12.5 14 L 14 14 L 13 11 L 13 8.5 L 11 6.5 L 10 7 L 6 7 L 4.5 6 L 6 4 L 5 4 z "
     id="path3088"
     style="fill:#444444;fill-opacity:1" />
</svg>
