<?xml version="1.0" encoding="UTF-8" standalone="no"?>
<svg
   xmlns:dc="http://purl.org/dc/elements/1.1/"
   xmlns:cc="http://creativecommons.org/ns#"
   xmlns:rdf="http://www.w3.org/1999/02/22-rdf-syntax-ns#"
   xmlns:svg="http://www.w3.org/2000/svg"
   xmlns="http://www.w3.org/2000/svg"
   xmlns:sodipodi="http://sodipodi.sourceforge.net/DTD/sodipodi-0.dtd"
   xmlns:inkscape="http://www.inkscape.org/namespaces/inkscape"
   width="12"
   height="12"
   id="svg3070"
   version="1.1"
   inkscape:version="0.48.4 r9939"
   sodipodi:docname="dog-park-12.svg">
  <metadata
     id="metadata3082">
    <rdf:RDF>
      <cc:Work
         rdf:about="">
        <dc:format>image/svg+xml</dc:format>
        <dc:type
           rdf:resource="http://purl.org/dc/dcmitype/StillImage" />
      </cc:Work>
    </rdf:RDF>
  </metadata>
  <defs
     id="defs3080" />
  <sodipodi:namedview
     pagecolor="#ffffff"
     bordercolor="#666666"
     borderopacity="1"
     objecttolerance="10"
     gridtolerance="10"
     guidetolerance="10"
     inkscape:pageopacity="0"
     inkscape:pageshadow="2"
     inkscape:window-width="1920"
     inkscape:window-height="1053"
     id="namedview3078"
     showgrid="false"
     inkscape:zoom="73"
     inkscape:cx="3.6027397"
     inkscape:cy="6"
     inkscape:window-x="0"
     inkscape:window-y="27"
     inkscape:window-maximized="1"
     inkscape:current-layer="svg3070" />
  <path
     style="fill:#444444;fill-opacity:1;stroke:#ffffff;stroke-linejoin:round;stroke-linecap:round;stroke-width:2;stroke-miterlimit:4;stroke-dasharray:none;opacity:0.3"
     id="path4996"
     d="M 8 2 L 7.5 3.5 L 7 5 L 9 6 L 10 6 L 11 5 L 11 4 L 10 4 L 9 3 L 9 2 L 8 2 z M 4 3 L 3 4 L 3 6 L 3 7 L 2 10 L 3 10 L 3.71875 8.5625 L 4 8 L 4 10 L 5 10 L 5 8 L 6.5 8 L 6 10 L 7 10 L 7.5 8.5 L 8 8.5 L 8 10 L 9 10 L 9 8 L 9 7 L 6 5 L 4 5 L 4 4 L 5 3 L 4 3 z " />
  <path
     d="M 8 2 L 7.5 3.5 L 7 5 L 9 6 L 10 6 L 11 5 L 11 4 L 10 4 L 9 3 L 9 2 L 8 2 z M 4 3 L 3 4 L 3 6 L 3 7 L 2 10 L 3 10 L 3.71875 8.5625 L 4 8 L 4 10 L 5 10 L 5 8 L 6.5 8 L 6 10 L 7 10 L 7.5 8.5 L 8 8.5 L 8 10 L 9 10 L 9 8 L 9 7 L 6 5 L 4 5 L 4 4 L 5 3 L 4 3 z "
     id="path3074"
     style="fill:#444444;fill-opacity:1" />
</svg>
