<?xml version="1.0" encoding="UTF-8" standalone="no"?>
<!-- Created with Inkscape (http://www.inkscape.org/) -->

<svg
   xmlns:dc="http://purl.org/dc/elements/1.1/"
   xmlns:cc="http://creativecommons.org/ns#"
   xmlns:rdf="http://www.w3.org/1999/02/22-rdf-syntax-ns#"
   xmlns:svg="http://www.w3.org/2000/svg"
   xmlns="http://www.w3.org/2000/svg"
   xmlns:sodipodi="http://sodipodi.sourceforge.net/DTD/sodipodi-0.dtd"
   xmlns:inkscape="http://www.inkscape.org/namespaces/inkscape"
   width="12"
   height="12"
   id="svg4764"
   version="1.1"
   inkscape:version="0.48.2 r9819"
   sodipodi:docname="dog-park-12.svg">
  <defs
     id="defs4766" />
  <sodipodi:namedview
     id="base"
     pagecolor="#ffffff"
     bordercolor="#666666"
     borderopacity="1.0"
     inkscape:pageopacity="0.0"
     inkscape:pageshadow="2"
     inkscape:zoom="45.254834"
     inkscape:cx="2.075261"
     inkscape:cy="6.2469703"
     inkscape:document-units="px"
     inkscape:current-layer="layer1"
     showgrid="true"
     showguides="true"
     inkscape:guide-bbox="true"
     inkscape:window-width="1445"
     inkscape:window-height="818"
     inkscape:window-x="280"
     inkscape:window-y="47"
     inkscape:window-maximized="0"
     inkscape:snap-page="false"
     inkscape:snap-grids="true"
     inkscape:snap-to-guides="true">
    <inkscape:grid
       type="xygrid"
       id="grid4772"
       empspacing="2"
       visible="true"
       enabled="true"
       snapvisiblegridlinesonly="true" />
    <sodipodi:guide
       orientation="0,1"
       position="2,12"
       id="guide4789" />
    <sodipodi:guide
       orientation="1,0"
       position="12,10"
       id="guide4791" />
    <sodipodi:guide
       orientation="0,1"
       position="10,0"
       id="guide4793" />
    <sodipodi:guide
       orientation="1,0"
       position="0,9"
       id="guide4795" />
    <sodipodi:guide
       orientation="0,1"
       position="5,11"
       id="guide4797" />
    <sodipodi:guide
       orientation="1,0"
       position="11,7"
       id="guide4799" />
    <sodipodi:guide
       orientation="0,1"
       position="9,2"
       id="guide4801" />
    <sodipodi:guide
       orientation="1,0"
       position="2,5"
       id="guide4803" />
  </sodipodi:namedview>
  <metadata
     id="metadata4769">
    <rdf:RDF>
      <cc:Work
         rdf:about="">
        <dc:format>image/svg+xml</dc:format>
        <dc:type
           rdf:resource="http://purl.org/dc/dcmitype/StillImage" />
        <dc:title />
      </cc:Work>
    </rdf:RDF>
  </metadata>
  <g
     inkscape:label="Layer 1"
     inkscape:groupmode="layer"
     id="layer1"
     transform="translate(0,-1040.3622)">
    <g
       id="g3009">
      <path
         transform="translate(0,0.99998835)"
         d="M 8.84375,1040.875 A 0.50828383,0.50828383 0 0 0 8.625,1041 l -1.5,1.5 a 0.50828383,0.50828383 0 0 0 -0.09375,0.2188 l -0.375,1.1562 -2.15625,0 0,-0.25 0.875,-0.875 A 0.50828383,0.50828383 0 0 0 5,1041.875 l -1,0 A 0.50828383,0.50828383 0 0 0 3.625,1042 l -1,1 a 0.50828383,0.50828383 0 0 0 -0.125,0.375 l 0,2 0,0.9375 0,0.062 -0.96875,2.8438 A 0.50828383,0.50828383 0 0 0 2,1049.875 l 1,0 a 0.50828383,0.50828383 0 0 0 0.46875,-0.2812 L 3.5,1049.5312 a 0.50828383,0.50828383 0 0 0 0.5,0.3438 l 1,0 a 0.50828383,0.50828383 0 0 0 0.5,-0.375 0.50828383,0.50828383 0 0 0 0.5,0.375 l 1,0 a 0.50828383,0.50828383 0 0 0 0.46875,-0.3438 L 7.5,1049.4688 a 0.50828383,0.50828383 0 0 0 0.5,0.4062 l 1,0 a 0.50828383,0.50828383 0 0 0 0.5,-0.5 l 0,-2 A 0.50828383,0.50828383 0 0 0 9.375,1047 l -0.625,-0.625 0.5,-0.5 0.75,0 a 0.50828383,0.50828383 0 0 0 0.375,-0.125 l 1,-1 a 0.50828383,0.50828383 0 0 0 0.125,-0.375 l 0,-1 a 0.50828383,0.50828383 0 0 0 -0.5,-0.5 l -1.5,0 0,-0.25 0.875,-0.875 A 0.50828383,0.50828383 0 0 0 10,1040.875 l -1,0 a 0.50828383,0.50828383 0 0 0 -0.15625,0 z m -3.34375,7 0.34375,0 -0.34375,1.375 0,-1.375 z"
         id="path3005"
         style="fill:#ffffff;fill-opacity:1;stroke:none;opacity:0.3"
         inkscape:original="M 9 1041.375 L 7.5 1042.875 L 7 1044.375 L 4 1044.375 L 4 1043.375 L 5 1042.375 L 4 1042.375 L 3 1043.375 L 3 1045.375 L 3 1046.375 L 2 1049.375 L 3 1049.375 L 3.71875 1047.9062 L 4 1047.375 L 4 1049.375 L 5 1049.375 L 5 1047.375 L 6.5 1047.375 L 6 1049.375 L 7 1049.375 L 7.5 1047.875 L 8 1047.875 L 8 1049.375 L 9 1049.375 L 9 1047.375 L 8 1046.375 L 9 1045.375 L 10 1045.375 L 11 1044.375 L 11 1043.375 L 9 1043.375 L 9 1042.375 L 10 1041.375 L 9 1041.375 z "
         inkscape:radius="0.50823301"
         sodipodi:type="inkscape:offset" />
      <path
         sodipodi:nodetypes="cccccccccccccccccccccccccccccccccc"
         inkscape:connector-curvature="0"
         id="path3077"
         d="m 4,1043.3622 -1,1 0,2 0,1 -1,3 1,0 0.725,-1.45 0.275,-0.55 0,2 1,0 0,-2 1.5,0 -0.5,2 1,0 0.5,-1.5 0.5,0 0,1.5 1,0 0,-2 -1,-1 1,-1 1,0 1,-1 0,-1 -2,0 0,-1 1,-1 -1,0 -1.5,1.5 -0.5,1.5 -3,0 0,-1 1,-1 z"
         style="fill:#444444;fill-opacity:1;stroke:none" />
    </g>
  </g>
</svg>
