<?xml version="1.0" encoding="UTF-8" standalone="no"?>
<!-- Created with Inkscape (http://www.inkscape.org/) -->

<svg
   xmlns:dc="http://purl.org/dc/elements/1.1/"
   xmlns:cc="http://creativecommons.org/ns#"
   xmlns:rdf="http://www.w3.org/1999/02/22-rdf-syntax-ns#"
   xmlns:svg="http://www.w3.org/2000/svg"
   xmlns="http://www.w3.org/2000/svg"
   xmlns:sodipodi="http://sodipodi.sourceforge.net/DTD/sodipodi-0.dtd"
   xmlns:inkscape="http://www.inkscape.org/namespaces/inkscape"
   width="18"
   height="18"
   id="svg4619"
   version="1.1"
   inkscape:version="0.48.2 r9819"
   sodipodi:docname="dog-park-18.svg">
  <defs
     id="defs4621" />
  <sodipodi:namedview
     id="base"
     pagecolor="#ffffff"
     bordercolor="#666666"
     borderopacity="1.0"
     inkscape:pageopacity="0.0"
     inkscape:pageshadow="2"
     inkscape:zoom="32"
     inkscape:cx="7.8963683"
     inkscape:cy="9.3021263"
     inkscape:document-units="px"
     inkscape:current-layer="layer1"
     showgrid="false"
     showguides="false"
     inkscape:guide-bbox="true"
     inkscape:window-width="1121"
     inkscape:window-height="858"
     inkscape:window-x="200"
     inkscape:window-y="45"
     inkscape:window-maximized="0"
     inkscape:snap-grids="true"
     inkscape:snap-to-guides="false">
    <inkscape:grid
       type="xygrid"
       id="grid4627"
       empspacing="2"
       visible="true"
       enabled="true"
       snapvisiblegridlinesonly="true" />
    <sodipodi:guide
       orientation="0,1"
       position="7,18"
       id="guide4659" />
    <sodipodi:guide
       orientation="1,0"
       position="18,9"
       id="guide4661" />
    <sodipodi:guide
       orientation="0,1"
       position="16,17"
       id="guide4663" />
    <sodipodi:guide
       orientation="1,0"
       position="17,14"
       id="guide4665" />
    <sodipodi:guide
       orientation="1,0"
       position="0,16"
       id="guide4667" />
    <sodipodi:guide
       orientation="0,1"
       position="8,0"
       id="guide4669" />
    <sodipodi:guide
       orientation="1,0"
       position="2,10"
       id="guide4671" />
    <sodipodi:guide
       orientation="0,1"
       position="12,2"
       id="guide4673" />
  </sodipodi:namedview>
  <metadata
     id="metadata4624">
    <rdf:RDF>
      <cc:Work
         rdf:about="">
        <dc:format>image/svg+xml</dc:format>
        <dc:type
           rdf:resource="http://purl.org/dc/dcmitype/StillImage" />
        <dc:title></dc:title>
      </cc:Work>
    </rdf:RDF>
  </metadata>
  <g
     inkscape:groupmode="layer"
     id="layer2"
     inkscape:label="safe zone"
     sodipodi:insensitive="true"
     style="display:none">
    <rect
       style="opacity:0.1;fill:#444444;fill-opacity:1;stroke:none;display:inline"
       id="rect3012"
       width="15"
       height="15"
       x="2"
       y="1" />
  </g>
  <g
     inkscape:label="Layer 1"
     inkscape:groupmode="layer"
     id="layer1"
     transform="translate(0,-1034.3622)">
    <path
       sodipodi:nodetypes="cccccccccc"
       inkscape:connector-curvature="0"
       id="path3052"
       d="m 12.5,1038.3622 1.5,-1 1,0 -1,1.5 3,1.5 -0.5,1 -2.5,0 -0.5,1 -2,-2 z"
       style="fill:#444444;fill-opacity:1;stroke:none" />
    <path
       sodipodi:nodetypes="ccccccccccccccccccccccccc"
       inkscape:connector-curvature="0"
       id="path3054"
       d="m 13,1042.8622 -2,-2 -1,0.5 -4,0 -1.5,-1 1.5,-2 -1,0 -1.5,2 1.125,2.125 -0.475,1.2 0.1,0.675 -2.25,4 1,0 2.5,-3 -0.5,3 1,0 1,-4 3.5,1 -1,3 1.5,0 1,-3 0.5,3 1.5,0 -1,-3 z"
       style="fill:#444444;fill-opacity:1;stroke:none" />
  </g>
  <g
     inkscape:groupmode="layer"
     id="layer3"
     inkscape:label="original"
     sodipodi:insensitive="true"
     style="display:none">
    <path
       sodipodi:nodetypes="cccccccccc"
       inkscape:connector-curvature="0"
       id="path3066"
       d="m 12.5625,5 1.5,-0.75 0.75,0 -0.75,0.75 0,0.375 3,1.5 L 16.6875,8 c -1.875,0 -3,0 -3.375,0.75 l -1.5,-2.25 z"
       style="opacity:0.5;fill:#ff0000;fill-opacity:1;stroke:none" />
    <path
       style="opacity:0.5;fill:#ff0000;fill-opacity:1;stroke:none"
       d="m 12.9375,9.125 -1.5,-2.25 -1.125,0.375 -4.125,0 -1.125,-1.5 0.75,-1.5 -0.75,0 -0.75,1.5 0.75,2.25 c -0.75,0.75 -0.75,1.5 -0.75,2.25 l -1.5,3.75 1.5,0 C 3.9509462,12.9579 4.8775123,12.2117 5.4375,11.375 L 5.0625,14 l 1.5,0 c -0.7532793,-1.1902 0.2999209,-2.5498 0.75,-3.75 0.75,0 1.125,0.75 3,0.75 l -0.75,3 1.5,0 c -0.657017,-0.8387 -0.0567,-1.3866 0.375,-2.25 l 1.125,2.25 1.5,0 c -1.183702,-0.6823 -1.187253,-1.749 -1.5,-3 z"
       id="path3078"
       inkscape:connector-curvature="0"
       sodipodi:nodetypes="cccccccccccccccccccccccc" />
  </g>
</svg>
