<?xml version="1.0" encoding="UTF-8" standalone="no"?>
<svg
   xmlns:dc="http://purl.org/dc/elements/1.1/"
   xmlns:cc="http://creativecommons.org/ns#"
   xmlns:rdf="http://www.w3.org/1999/02/22-rdf-syntax-ns#"
   xmlns:svg="http://www.w3.org/2000/svg"
   xmlns="http://www.w3.org/2000/svg"
   xmlns:sodipodi="http://sodipodi.sourceforge.net/DTD/sodipodi-0.dtd"
   xmlns:inkscape="http://www.inkscape.org/namespaces/inkscape"
   width="24"
   height="24"
   id="svg3098"
   version="1.1"
   inkscape:version="0.48.4 r9939"
   sodipodi:docname="dog-park-24.svg">
  <metadata
     id="metadata3110">
    <rdf:RDF>
      <cc:Work
         rdf:about="">
        <dc:format>image/svg+xml</dc:format>
        <dc:type
           rdf:resource="http://purl.org/dc/dcmitype/StillImage" />
      </cc:Work>
    </rdf:RDF>
  </metadata>
  <defs
     id="defs3108" />
  <sodipodi:namedview
     pagecolor="#ffffff"
     bordercolor="#666666"
     borderopacity="1"
     objecttolerance="10"
     gridtolerance="10"
     guidetolerance="10"
     inkscape:pageopacity="0"
     inkscape:pageshadow="2"
     inkscape:window-width="1920"
     inkscape:window-height="1053"
     id="namedview3106"
     showgrid="false"
     showguides="true"
     inkscape:zoom="27.812867"
     inkscape:cx="4.4539659"
     inkscape:cy="12.657779"
     inkscape:window-x="0"
     inkscape:window-y="27"
     inkscape:window-maximized="1"
     inkscape:current-layer="svg3098" />
  <path
     style="fill:#444444;fill-opacity:1;stroke:#ffffff;stroke-linejoin:round;stroke-linecap:round;stroke-width:2;stroke-miterlimit:4;stroke-dasharray:none;opacity:0.3"
     id="path3974"
     d="M 6 5 L 5 7 L 6 10 C 5 11 5 12 5 13 L 3 18 L 5 18 C 4.5179283 16.6105 5.7533498 15.6156 6.5 14.5 L 6 18 L 8 18 C 6.9956276 16.413 8.3998945 14.6003 9 13 C 10 13 10.5 14 13 14 L 12 18 L 14 18 C 13.123978 16.8817 13.9244 16.1512 14.5 15 L 16 18 L 18 18 C 16.421731 17.0903 16.416996 15.668 16 14 L 16.5 11.5 L 14.5 8.5 L 13 9 L 7.5 9 L 6 7 L 7 5 L 6 5 z M 18 5 L 16 6 L 15 8 L 17 11 C 17.5 10 19 10 21.5 10 L 22 8.5 L 18 6.5 L 18 6 L 19 5 L 18 5 z " />
  <path
     d="M 6 5 L 5 7 L 6 10 C 5 11 5 12 5 13 L 3 18 L 5 18 C 4.5179283 16.6105 5.7533498 15.6156 6.5 14.5 L 6 18 L 8 18 C 6.9956276 16.413 8.3998945 14.6003 9 13 C 10 13 10.5 14 13 14 L 12 18 L 14 18 C 13.123978 16.8817 13.9244 16.1512 14.5 15 L 16 18 L 18 18 C 16.421731 17.0903 16.416996 15.668 16 14 L 16.5 11.5 L 14.5 8.5 L 13 9 L 7.5 9 L 6 7 L 7 5 L 6 5 z M 18 5 L 16 6 L 15 8 L 17 11 C 17.5 10 19 10 21.5 10 L 22 8.5 L 18 6.5 L 18 6 L 19 5 L 18 5 z "
     id="path3102"
     style="fill:#444444;fill-opacity:1" />
</svg>
