<?xml version="1.0" encoding="UTF-8" standalone="no"?>
<!-- Created with Inkscape (http://www.inkscape.org/) -->

<svg
   xmlns:dc="http://purl.org/dc/elements/1.1/"
   xmlns:cc="http://creativecommons.org/ns#"
   xmlns:rdf="http://www.w3.org/1999/02/22-rdf-syntax-ns#"
   xmlns:svg="http://www.w3.org/2000/svg"
   xmlns="http://www.w3.org/2000/svg"
   xmlns:sodipodi="http://sodipodi.sourceforge.net/DTD/sodipodi-0.dtd"
   xmlns:inkscape="http://www.inkscape.org/namespaces/inkscape"
   width="12"
   height="12"
   id="svg4764"
   version="1.1"
   inkscape:version="0.48.2 r9819"
   sodipodi:docname="dog-park-12.svg">
  <defs
     id="defs4766" />
  <sodipodi:namedview
     id="base"
     pagecolor="#ffffff"
     bordercolor="#666666"
     borderopacity="1.0"
     inkscape:pageopacity="0.0"
     inkscape:pageshadow="2"
     inkscape:zoom="1"
     inkscape:cx="9.3296229"
     inkscape:cy="-31.510811"
     inkscape:document-units="px"
     inkscape:current-layer="layer1"
     showgrid="false"
     showguides="false"
     inkscape:guide-bbox="true"
     inkscape:window-width="1445"
     inkscape:window-height="818"
     inkscape:window-x="58"
     inkscape:window-y="65"
     inkscape:window-maximized="0"
     inkscape:snap-page="false"
     inkscape:snap-grids="true"
     inkscape:snap-to-guides="true">
    <inkscape:grid
       type="xygrid"
       id="grid4772"
       empspacing="2"
       visible="true"
       enabled="true"
       snapvisiblegridlinesonly="true" />
    <sodipodi:guide
       orientation="0,1"
       position="2,12"
       id="guide4789" />
    <sodipodi:guide
       orientation="1,0"
       position="12,10"
       id="guide4791" />
    <sodipodi:guide
       orientation="0,1"
       position="10,0"
       id="guide4793" />
    <sodipodi:guide
       orientation="1,0"
       position="0,9"
       id="guide4795" />
    <sodipodi:guide
       orientation="0,1"
       position="5,11"
       id="guide4797" />
    <sodipodi:guide
       orientation="1,0"
       position="11,7"
       id="guide4799" />
    <sodipodi:guide
       orientation="0,1"
       position="9,2"
       id="guide4801" />
    <sodipodi:guide
       orientation="1,0"
       position="2,5"
       id="guide4803" />
  </sodipodi:namedview>
  <metadata
     id="metadata4769">
    <rdf:RDF>
      <cc:Work
         rdf:about="">
        <dc:format>image/svg+xml</dc:format>
        <dc:type
           rdf:resource="http://purl.org/dc/dcmitype/StillImage" />
        <dc:title />
      </cc:Work>
    </rdf:RDF>
  </metadata>
  <g
     inkscape:label="Layer 1"
     inkscape:groupmode="layer"
     id="layer1"
     transform="translate(0,-1040.3622)">
    <path
       transform="translate(0,1040.3622)"
       style="opacity:0.3;fill:#ffffff;fill-opacity:1;stroke:none"
       d="M 9,1.5 C 8.8707946,1.5036509 8.7439577,1.561304 8.65625,1.65625 l -1.5,1.5 c -0.055508,0.051624 -0.098696,0.1164067 -0.125,0.1875 L 6.5625,4.75 6.21875,4.5625 C 6.1521058,4.5248529 6.0764737,4.5032437 6,4.5 l -1.5,0 0,-0.3125 0.84375,-0.84375 C 5.6321921,3.0768878 5.3928105,2.4893148 5,2.5 l -1,0 C 3.8707946,2.5036509 3.7439577,2.561304 3.65625,2.65625 l -1,1 C 2.561304,3.7439577 2.5036509,3.8707946 2.5,4 l 0,2 0,0.9375 L 2.5,7 1.53125,9.84375 C 1.4207604,10.140685 1.6832814,10.508214 2,10.5 l 1,0 c 0.1828968,-0.0014 0.3603,-0.115439 0.4375,-0.28125 L 3.53125,10.0625 C 3.5547134,10.294647 3.766788,10.492583 4,10.5 l 1,0 c 0.2533588,0.0071 0.4907585,-0.21546 0.5,-0.46875 0.00924,0.25329 0.2466412,0.475852 0.5,0.46875 l 1,0 c 0.2076432,0.0015 0.4077705,-0.145257 0.46875,-0.34375 L 7.5,10.03125 C 7.5092415,10.28454 7.7466412,10.507102 8,10.5 l 1,0 c 0.2637286,0.0073 0.5073187,-0.236271 0.5,-0.5 l 0,-2 0,-1.5 0.5,0 c 0.129205,-0.00365 0.256042,-0.061304 0.34375,-0.15625 l 1,-1 C 11.438696,5.2560423 11.496349,5.1292054 11.5,5 l 0,-1 C 11.507319,3.7362714 11.263729,3.4926813 11,3.5 l -1.5,0 0,-0.3125 0.84375,-0.84375 C 10.632192,2.0768878 10.392811,1.4893148 10,1.5 z"
       id="path3009"
       inkscape:connector-curvature="0"
       sodipodi:nodetypes="cccccccccccccccccccccccccccccccccccccccccccccc" />
    <path
       style="fill:#444444;fill-opacity:1;stroke:none"
       d="m 4,1043.3622 -1,1 0,2 0,1 -1,3 1,0 0.725,-1.45 0.275,-0.55 0,2 1,0 0,-2 1.5,0 -0.5,2 1,0 0.5,-1.5 0.5,0 0,1.5 1,0 0,-2 0,-1 -3,-2 -2,0 0,-1 1,-1 z"
       id="path3077"
       inkscape:connector-curvature="0"
       sodipodi:nodetypes="ccccccccccccccccccccccccc" />
    <path
       sodipodi:nodetypes="cccccccccccc"
       inkscape:connector-curvature="0"
       id="path3005"
       d="m 9,1046.3622 1,0 1,-1 0,-1 -1,0 -1,-1 0,0 0,-1 -1,0 -0.5,1.5 -0.5,1.5 z"
       style="fill:#444444;fill-opacity:1;stroke:none" />
  </g>
</svg>
