<?xml version="1.0" encoding="UTF-8" standalone="no"?>
<!-- Created with Inkscape (http://www.inkscape.org/) -->

<svg
   xmlns:dc="http://purl.org/dc/elements/1.1/"
   xmlns:cc="http://creativecommons.org/ns#"
   xmlns:rdf="http://www.w3.org/1999/02/22-rdf-syntax-ns#"
   xmlns:svg="http://www.w3.org/2000/svg"
   xmlns="http://www.w3.org/2000/svg"
   xmlns:sodipodi="http://sodipodi.sourceforge.net/DTD/sodipodi-0.dtd"
   xmlns:inkscape="http://www.inkscape.org/namespaces/inkscape"
   width="24"
   height="24"
   id="svg4460"
   version="1.1"
   inkscape:version="0.48.2 r9819"
   sodipodi:docname="dog-park-24.svg">
  <defs
     id="defs4462" />
  <sodipodi:namedview
     id="base"
     pagecolor="#ffffff"
     bordercolor="#666666"
     borderopacity="1.0"
     inkscape:pageopacity="0.0"
     inkscape:pageshadow="2"
     inkscape:zoom="15.999999"
     inkscape:cx="12.16056"
     inkscape:cy="11.380818"
     inkscape:document-units="px"
     inkscape:current-layer="layer1"
     showgrid="false"
     showguides="false"
     inkscape:guide-bbox="true"
     inkscape:window-width="1543"
     inkscape:window-height="930"
     inkscape:window-x="360"
     inkscape:window-y="127"
     inkscape:window-maximized="0">
    <inkscape:grid
       type="xygrid"
       id="grid4468"
       empspacing="2"
       visible="true"
       enabled="true"
       snapvisiblegridlinesonly="true" />
    <sodipodi:guide
       orientation="1,0"
       position="0,20"
       id="guide4470" />
    <sodipodi:guide
       orientation="0,1"
       position="4,24"
       id="guide4472" />
    <sodipodi:guide
       orientation="1,0"
       position="24,13"
       id="guide4474" />
    <sodipodi:guide
       orientation="0,1"
       position="15,0"
       id="guide4476" />
    <sodipodi:guide
       orientation="1,0"
       position="23,20"
       id="guide4478" />
    <sodipodi:guide
       orientation="0,1"
       position="20,23"
       id="guide4480" />
    <sodipodi:guide
       orientation="1,0"
       position="2,5"
       id="guide4482" />
    <sodipodi:guide
       orientation="0,1"
       position="7,2"
       id="guide4484" />
    <sodipodi:guide
       orientation="1,0"
       position="13,16"
       id="guide4486" />
    <sodipodi:guide
       orientation="0,1"
       position="16,13"
       id="guide4490" />
  </sodipodi:namedview>
  <metadata
     id="metadata4465">
    <rdf:RDF>
      <cc:Work
         rdf:about="">
        <dc:format>image/svg+xml</dc:format>
        <dc:type
           rdf:resource="http://purl.org/dc/dcmitype/StillImage" />
        <dc:title></dc:title>
      </cc:Work>
    </rdf:RDF>
  </metadata>
  <g
     inkscape:groupmode="layer"
     id="layer2"
     inkscape:label="safe zone"
     style="display:none">
    <rect
       style="opacity:0.1;fill:#444444;fill-opacity:1;stroke:none"
       id="rect3012"
       width="19"
       height="19"
       x="3"
       y="2" />
  </g>
  <g
     inkscape:label="Layer 1"
     inkscape:groupmode="layer"
     id="layer1"
     transform="translate(0,-1028.3622)">
    <g
       style="display:inline"
       transform="translate(-448,-262)"
       id="g6877">
      <path
         sodipodi:nodetypes="ccccccccccccccccccccccccccc"
         inkscape:connector-curvature="0"
         id="path6857"
         d="m 477,1295.3622 1,1 -2,2 0,1 3,0.5 c 0,1.5 2.52937,0.6765 2.99995,3.5 l 5e-5,5 1,0 1,-4 1,4 1,0 0,-4 c 2,0 3,-1 4,-1 0,0 0.5,1.6502 0.5,2.5 0,0.8498 -0.5,2.5 -0.5,2.5 l 1,0 1.5,-4 1.5,4 1,0 c 0,0 0,-2.6667 0,-4 0,-0.5 -1,-1 -1,-1.5 0,-1.4121 1,-1.5 1,-2.5 0,-0.2838 0,-2.5 0,-3 0,-0.5 -0.5,-1 -1,-1 l -13,0 -1,-1 z"
         style="opacity:0.3;color:#000000;fill:#ffffff;fill-opacity:1;fill-rule:nonzero;stroke:#ffffff;stroke-width:2;stroke-linecap:round;stroke-linejoin:round;stroke-miterlimit:4;stroke-opacity:1;stroke-dasharray:none;stroke-dashoffset:0;marker:none;visibility:visible;display:inline;overflow:visible;enable-background:accumulate" />
      <path
         style="color:#000000;fill:#444444;fill-opacity:1;fill-rule:nonzero;stroke:none;stroke-width:2;marker:none;visibility:visible;display:inline;overflow:visible;enable-background:accumulate"
         d="m 477,1295.3622 1,1 -2,2 0,1 3,0.5 c 0,1.5 2.52937,0.6765 2.99995,3.5 l 5e-5,5 1,0 1,-4 1,4 1,0 0,-4 c 2,0 3,-1 4,-1 0,0 0.5,1.6502 0.5,2.5 0,0.8498 -0.5,2.5 -0.5,2.5 l 1,0 1.5,-4 1.5,4 1,0 c 0,0 0,-2.6667 0,-4 0,-0.5 -1,-1 -1,-1.5 0,-1.4121 1,-1.5 1,-2.5 0,-0.2838 0,-2.5 0,-3 0,-0.5 -0.5,-1 -1,-1 l -13,0 -1,-1 z"
         id="rect6653"
         inkscape:connector-curvature="0"
         sodipodi:nodetypes="ccccccccccccccccccccccccccc" />
    </g>
    <path
       style="fill:#444444;fill-opacity:1;stroke:none"
       d="m -4,1039.8622 -2,-3 -1.5,0.5 -5.5,0 -1.5,-2 1,-2 -1,0 -1,2 1,3 c -1,1 -1,2 -1,3 l -2,5 2.5,0 0,-1.5 -1,0 2,-2 -0.5,3.5 2.5,0 0,-1.5 -1,0 1.5,-3.5 c 1,0 1.5,1 4,1 l -1,4 2.5,0 0,-1.5 -1,0 1,-1.5 1.5,3 2,0 0,-1.5 -1.5,0 -0.5,-2.5 z"
       id="path3050"
       inkscape:connector-curvature="0"
       sodipodi:nodetypes="cccccccccccccccccccccccccccccccc" />
    <path
       sodipodi:nodetypes="ccccccccc"
       inkscape:connector-curvature="0"
       id="path3052"
       d="m -37.166667,1034.5955 3.666667,-1.2333 -1,2 3,1.5 -0.5,1.5 -3.5,0 -1,1 -2,-3 z"
       style="fill:#444444;fill-opacity:1;stroke:none" />
    <path
       sodipodi:nodetypes="cccccccccccccccccccccccc"
       inkscape:connector-curvature="0"
       id="path3054"
       d="m -37,1039.8622 -2,-3 -7.5,1 -1,-1.5 1,-2 -2,2 0.5,2 -0.633334,1.6 0.133334,0.9 -2,5.5 1.5,0 0.5,-1 2,-3 0,4 1,0 1,-5 4.5,1 -0.5,4 1,0 1,-4 1,4 1,3e-4 -0.5,-4.0003 z"
       style="fill:#444444;fill-opacity:1;stroke:none" />
    <path
       sodipodi:nodetypes="ccccccccc"
       inkscape:connector-curvature="0"
       id="path3056"
       d="m -58.939418,1035.3622 1.5,-2 0,2 3,1.5 -0.5,1.5 -3.5,0 -1,1 -2,-3 z"
       style="fill:#444444;fill-opacity:1;stroke:none" />
    <path
       sodipodi:nodetypes="cccccccccccccccccccccccc"
       inkscape:connector-curvature="0"
       id="path3058"
       d="m -59.939418,1039.8622 -2,-3 -7.5,1 -1,-1.5 1,-2 -2,2 0.5,2 -0.633333,1.6 0.133333,2.4 -2,4 1.5,0 0.5,-1 2,-3 0,4 1,0 1,-5 4,1 -1,4 1,0 1.5,-3.5 1.5,3.5 1,0 -1,-4 z"
       style="fill:#444444;fill-opacity:1;stroke:none" />
    <path
       style="fill:#444444;fill-opacity:1;stroke:none"
       d="M 7.333333,1020.5955 10,1019.3622 l 1,0 -1,2 3,1.5 -0.5,1.5 -4.5,1 -2,-3 z"
       id="path3060"
       inkscape:connector-curvature="0"
       sodipodi:nodetypes="ccccccccc" />
    <path
       sodipodi:nodetypes="ccccccccc"
       inkscape:connector-curvature="0"
       id="path3062"
       d="M 16.333333,1016.5955 20,1015.3622 l -1,2 3,1.5 -0.5,1.5 -3.5,0 -1,1 -2,-3 z"
       style="fill:#444444;fill-opacity:1;stroke:none" />
    <path
       sodipodi:nodetypes="cccccccc"
       inkscape:connector-curvature="0"
       id="path3064"
       d="M 17.333333,1022.5955 21,1021.3622 l -1,2 3,1.5 -0.5,1.5 c -2.5,0 -4,0 -4.5,1 l -2,-3 z"
       style="fill:#444444;fill-opacity:1;stroke:none" />
    <path
       sodipodi:nodetypes="cccccccccc"
       inkscape:connector-curvature="0"
       id="path3066"
       d="m 16,1034.3622 2,-1 1,0 -1,1 0,0.5 4,2 -0.5,1.5 c -2.5,0 -4,0 -4.5,1 l -2,-3 z"
       style="fill:#444444;fill-opacity:1;stroke:none" />
    <path
       style="fill:#444444;fill-opacity:1;stroke:none"
       d="m 25.833333,1023.5955 2.666667,-1.2333 1,0 -1,2 3,1.5 -0.5,1.5 c -2.5,0 -4,0 -4.5,1 l -2,-3 z"
       id="path3068"
       inkscape:connector-curvature="0"
       sodipodi:nodetypes="ccccccccc" />
    <path
       sodipodi:nodetypes="ccccccccccccccccccccccccc"
       inkscape:connector-curvature="0"
       id="path3070"
       d="m 17.5,1092.7372 -2,-3 -0.5,0.5 -7,0 -1,-2 2,-2 -1,0 -2,2 0.5,3 -0.6333336,1.6 0.1333336,1.4 -2,5 1,0 2.5,-3 -0.5,3 1,0 2,-5 c 1,0 1.5,1 4,1 l -1,4 1,0 1.5,-3 1.5,3 1,0 -1,-4 z"
       style="fill:#444444;fill-opacity:1;stroke:none" />
    <path
       sodipodi:nodetypes="cccccccccccccccccccccccc"
       inkscape:connector-curvature="0"
       id="path3072"
       d="m 16.5,1078.8622 -2,-3 -0.5,0.5 -7,0 -1,-2 2,-2 -1,0 -2,2 0.5,3 c -0.5,1 -0.5,2 -0.5,3 l -2,5 1,0 2.5,-3 -0.5,3 1,0 2,-5 c 1,0 1.5,1 4,1 l -1,4 1,0 1.5,-3 1.5,3 1,0 -1,-4 z"
       style="fill:#444444;fill-opacity:1;stroke:none" />
    <path
       sodipodi:nodetypes="cccccccccccccccccccccccccccc"
       inkscape:connector-curvature="0"
       id="path3074"
       d="m 16.5,1061.8622 -2,-3 -1.5,0.5 -5.5,0 -1.5,-2 1,-2 -1,0 -1,2 1,3 c -1,1 -1,2 -1,3 l -2,5 2,0 -0.1999235,-0.9601 1.6999235,-2.5399 -0.5,3.5 2,0 -0.5,-1 1.5,-4 c 1,0 1.5,1 4,1 l -1,4 2,0 -0.528761,-0.9425 1.028761,-2.0575 1.5,3 2,0 -1.251148,-1.0046 L 16,1064.3622 z"
       style="fill:#444444;fill-opacity:1;stroke:none" />
    <path
       sodipodi:nodetypes="cccccccccccccccccccccccccccccccc"
       inkscape:connector-curvature="0"
       id="path3076"
       d="m 16.5,1108.8622 -2,-3 -1.5,0.5 -5.5,0 -1.5,-2 1,-2 -1,0 -1,2 1,3 c -1,1 -1,2 -1,3 l -2,5 2.5,0 0,-1.5 -1,0 2,-2 -0.5,3.5 2.5,0 0,-1.5 -1,0 1.5,-3.5 c 1,0 1.5,1 4,1 l -1,4 2.5,0 0,-1.5 -1,0 1,-1.5 1.5,3 2,0 0,-1.5 -1.5,0 -0.5,-2.5 z"
       style="fill:#444444;fill-opacity:1;stroke:none" />
    <path
       style="fill:#444444;fill-opacity:1;stroke:none"
       d="m 16.5,1039.8622 -2,-3 -1.5,0.5 -5.5,0 -1.5,-2 1,-2 -1,0 -1,2 1,3 c -1,1 -1,2 -1,3 l -2,5 2,0 c -0.4820717,-1.3895 0.7533498,-2.3844 1.5,-3.5 l -0.5,3.5 2,0 c -1.0043724,-1.587 0.3998945,-3.3997 1,-5 1,0 1.5,1 4,1 l -1,4 2,0 c -0.876022,-1.1183 -0.0756,-1.8488 0.5,-3 l 1.5,3 2,0 c -1.578269,-0.9097 -1.583004,-2.332 -2,-4 z"
       id="path3078"
       inkscape:connector-curvature="0"
       sodipodi:nodetypes="cccccccccccccccccccccccc" />
  </g>
</svg>
