<?xml version="1.0" encoding="utf-8"?>
<!-- Generator: Adobe Illustrator 18.0.0, SVG Export Plug-In . SVG Version: 6.00 Build 0)  -->
<!DOCTYPE svg PUBLIC "-//W3C//DTD SVG 1.1//EN" "http://www.w3.org/Graphics/SVG/1.1/DTD/svg11.dtd" [
	<!ENTITY ns_flows "http://ns.adobe.com/Flows/1.0/">
	<!ENTITY ns_extend "http://ns.adobe.com/Extensibility/1.0/">
	<!ENTITY ns_ai "http://ns.adobe.com/AdobeIllustrator/10.0/">
	<!ENTITY ns_graphs "http://ns.adobe.com/Graphs/1.0/">
	<!ENTITY st0 "opacity:0.5;">
	<!ENTITY st1 "fill:#010101;">
	<!ENTITY st2 "opacity:0.75;">
	<!ENTITY st3 "fill:#FFFFFF;">
]>
<svg version="1.1" id="Layer_1" xmlns:x="&ns_extend;" xmlns:i="&ns_ai;" xmlns:graph="&ns_graphs;"
	 xmlns="http://www.w3.org/2000/svg" xmlns:xlink="http://www.w3.org/1999/xlink" xmlns:a="http://ns.adobe.com/AdobeSVGViewerExtensions/3.0/"
	 x="0px" y="0px" width="24px" height="23px" viewBox="0 0 24 23" style="enable-background:new 0 0 24 23;" xml:space="preserve">
<g style="&st0;">
	<path style="&st1;" d="M14.3,2.4c-1.1-0.8-2.6-0.5-3.4,0.7c-0.4,0.6-0.5,1.4-0.3,2l1.3,4.2L8,10.5c-0.5,0.2-0.9,0.6-0.9,1.2
		C7,12.5,7.6,12.9,8.4,13c0.2,0,0.3,0,0.5,0l5.3-1.6c0.4-0.1,0.8-0.5,0.9-0.9c0-0.2,0.1-0.4,0.1-0.6L14.3,7l3.2,1.9l0.4,2.8
		c0,0.5,0.3,0.8,0.6,1L22,15c0.5,0.2,1.6,0.2,1.9-0.3c0.3-0.5,0.1-1-0.4-1.3L20,11.5V9h-1V7h1c-0.4-0.8-0.5-1.5-1-1.8L14.3,2.4
		L14.3,2.4z"/>
	<polygon style="&st1;" points="2,11 21,22 23,22 23,21 24,21 24,22 23,23 21,23 2,12 	"/>
	<polygon style="&st1;" points="21,6 23,6 23,7 24,7 24,9 23,9 23,10 21,10 21,9 20,9 20,7 21,7 	"/>
</g>
<g style="&st2;">
	<path style="&st1;" d="M13.3,1.4C12.2,0.7,10.7,1,9.9,2.1c-0.4,0.6-0.5,1.4-0.3,2l1.3,4.2L7,9.5c-0.5,0.2-0.9,0.6-0.9,1.2
		C6,11.5,6.6,11.9,7.4,12c0.2,0,0.3,0,0.5,0l5.3-1.6c0.4-0.1,0.8-0.5,0.9-0.9c0-0.2,0.1-0.4,0.1-0.6L13.3,6l3.2,1.9l0.4,2.8
		c0,0.5,0.3,0.8,0.6,1L21,14c0.5,0.2,1.6,0.2,1.9-0.3c0.3-0.5,0.1-1-0.4-1.3L19,10.5V8h-1V6h1c-0.4-0.8-0.5-1.5-1-1.8L13.3,1.4
		L13.3,1.4z"/>
	<polygon style="&st1;" points="1,10 20,21 22,21 22,20 23,20 23,21 22,22 20,22 1,11 	"/>
	<polygon style="&st1;" points="20,5 22,5 22,6 23,6 23,8 22,8 22,9 20,9 20,8 19,8 19,6 20,6 	"/>
</g>
<g>
	<path style="&st3;" d="M12.3,0.4C11.2-0.3,9.7,0,8.9,1.1c-0.4,0.6-0.5,1.4-0.3,2l1.3,4.2L6,8.5C5.5,8.7,5.2,9.2,5.1,9.7
		C5,10.5,5.6,10.9,6.4,11c0.2,0,0.3,0,0.5,0l5.3-1.6C12.6,9.2,13,8.8,13,8.5c0-0.2,0.1-0.4,0.1-0.6L12.3,5l3.2,1.9l0.4,2.8
		c0,0.5,0.3,0.8,0.6,1L20,13c0.5,0.2,1.6,0.2,1.9-0.3c0.3-0.5,0.1-1-0.4-1.3L18,9.5V7h-1V5h1c-0.4-0.8-0.5-1.5-1-1.8L12.3,0.4
		L12.3,0.4z"/>
	<polygon style="&st3;" points="0,9 19,20 21,20 21,19 22,19 22,20 21,21 19,21 0,10 	"/>
	<polygon style="&st3;" points="19,4 21,4 21,5 22,5 22,7 21,7 21,8 19,8 19,7 18,7 18,5 19,5 	"/>
</g>
</svg>
