<?xml version="1.0" encoding="utf-8"?>
<!-- Generator: Adobe Illustrator 18.1.1, SVG Export Plug-In . SVG Version: 6.00 Build 0)  -->
<svg version="1.1" xmlns="http://www.w3.org/2000/svg" xmlns:xlink="http://www.w3.org/1999/xlink" x="0px" y="0px"
	 viewBox="0 0 12 12" enable-background="new 0 0 12 12" xml:space="preserve">
<g id="shadows">
	<g opacity="0.2">
		<path d="M6.2,2.3C5.7,2,5.2,2.1,4.9,2.6C4.7,2.8,4.7,3.1,4.8,3.3l0.5,1.6L3.8,5.4C3.6,5.5,3.5,5.6,3.4,5.8c0,0.3,0.2,0.5,0.5,0.6
			c0.1,0,0.1,0,0.2,0L6,5.7c0.1-0.1,0-0.2,0-0.3c0-0.1,0,0,0,0V4.1l1.3,0.6l0.2,1.1c0,0.2,0.1,0.3,0.2,0.4l1.6,0.9
			c0.2,0.1,0.4,0,0.5-0.1c0.1-0.2,0-0.4-0.1-0.5L8.4,5.8L8.3,3.9c0-0.2-0.1-0.4-0.3-0.5L6.2,2.3z"/>
		<polygon points="1.5,5.4 1.5,6 7.3,9.9 9.9,9.9 9.9,9.2 7.3,9.2 		"/>
		<rect x="9.2" y="3.4" width="1.3" height="1.3"/>
	</g>
</g>
<g id="icons">
	<g>
		<path fill="#FFFFFF" d="M5.7,1.8c-0.4-0.3-1-0.2-1.3,0.3C4.2,2.3,4.2,2.6,4.3,2.8l0.5,1.6L3.3,4.9C3.1,5,3,5.1,2.9,5.3
			c0,0.3,0.2,0.5,0.5,0.6c0.1,0,0.1,0,0.2,0l1.9-0.7c0.1-0.1,0-0.2,0-0.3c0-0.1,0,0,0,0V3.6l1.3,0.6L7,5.3c0,0.2,0.1,0.3,0.2,0.4
			l1.6,0.9c0.2,0.1,0.4,0,0.5-0.1c0.1-0.2,0-0.4-0.1-0.5L7.9,5.3L7.8,3.4c0-0.2-0.1-0.4-0.3-0.5L5.7,1.8z"/>
		<polygon fill="#FFFFFF" points="1,4.9 1,5.5 6.8,9.4 9.4,9.4 9.4,8.7 6.8,8.7 		"/>
		<rect x="8.7" y="2.9" fill="#FFFFFF" width="1.3" height="1.3"/>
	</g>
</g>
<g id="guides">
</g>
</svg>
