<?xml version="1.0" encoding="utf-8"?>
<!-- Generator: Adobe Illustrator 18.1.1, SVG Export Plug-In . SVG Version: 6.00 Build 0)  -->
<svg version="1.1" xmlns="http://www.w3.org/2000/svg" xmlns:xlink="http://www.w3.org/1999/xlink" x="0px" y="0px"
	 viewBox="0 0 24 24" enable-background="new 0 0 24 24" xml:space="preserve">
<g id="shadows">
	<g opacity="0.2">
		<path d="M14.5,4.7c-0.9-0.6-2-0.4-2.6,0.5c-0.3,0.5-0.4,1.1-0.3,1.6l1,3.2l-3,1c-0.4,0.1-0.7,0.5-0.7,0.9c-0.1,0.6,0.4,0.9,1,1
			c0.1,0,0.2,0,0.4,0l4.1-1.3c0.3-0.1,0.6-0.4,0.7-0.7c0-0.2,0.1-0.3,0-0.5l-0.6-2.2l2.5,1.5l0.3,2.1c0,0.4,0.2,0.6,0.5,0.8l2.7,1.8
			c0.4,0.2,1.3,0.2,1.5-0.2c0.2-0.4,0.1-0.8-0.3-1l-2.7-1.5v-2h-0.8V8.3h0.8c-0.3-0.6-0.4-1.1-0.8-1.4L14.5,4.7L14.5,4.7z"/>
		<polygon points="5,11.3 19.7,19.8 21.2,19.8 21.2,19.1 22,19.1 22,19.8 21.2,20.6 19.7,20.6 5,12.1 		"/>
		<polygon points="19.7,7.5 21.2,7.5 21.2,8.3 22,8.3 22,9.8 21.2,9.8 21.2,10.6 19.7,10.6 19.7,9.8 18.9,9.8 18.9,8.3 19.7,8.3 		
			"/>
	</g>
</g>
<g id="icons">
	<g>
		<path fill="#FFFFFF" d="M13.5,3.7c-0.9-0.6-2-0.4-2.6,0.5c-0.3,0.5-0.4,1.1-0.3,1.6l1,3.2l-3,1c-0.4,0.1-0.7,0.5-0.7,0.9
			c-0.1,0.6,0.4,0.9,1,1c0.1,0,0.2,0,0.4,0l4.1-1.3c0.3-0.1,0.6-0.4,0.7-0.7c0-0.2,0.1-0.3,0-0.5l-0.6-2.2l2.5,1.5l0.3,2.1
			c0,0.4,0.2,0.6,0.5,0.8l2.7,1.8c0.4,0.2,1.3,0.2,1.5-0.2c0.2-0.4,0.1-0.8-0.3-1l-2.7-1.5v-2h-0.8V7.3h0.8
			c-0.3-0.6-0.4-1.1-0.8-1.4L13.5,3.7L13.5,3.7z"/>
		<polygon fill="#FFFFFF" points="4,10.3 18.7,18.8 20.2,18.8 20.2,18.1 21,18.1 21,18.8 20.2,19.6 18.7,19.6 4,11.1 		"/>
		<polygon fill="#FFFFFF" points="18.7,6.5 20.2,6.5 20.2,7.3 21,7.3 21,8.8 20.2,8.8 20.2,9.6 18.7,9.6 18.7,8.8 17.9,8.8 
			17.9,7.3 18.7,7.3 		"/>
	</g>
</g>
<g id="guides">
</g>
</svg>
