<?xml version="1.0" encoding="UTF-8" standalone="no"?>
<svg width="12px" height="12px" viewBox="0 0 12 12" version="1.1" xmlns="http://www.w3.org/2000/svg" xmlns:xlink="http://www.w3.org/1999/xlink" xmlns:sketch="http://www.bohemiancoding.com/sketch/ns">
    <!-- Generator: Sketch 3.2.2 (9983) - http://www.bohemiancoding.com/sketch -->
    <title>downhill-skiing-white-12</title>
    <desc>Created with Sketch.</desc>
    <defs></defs>
    <g id="Page-1" stroke="none" stroke-width="1" fill="none" fill-rule="evenodd" sketch:type="MSPage">
        <g id="Fill-167-+-Fill-168-+-Fill-169" sketch:type="MSLayerGroup" transform="translate(2.000000, 3.000000)" fill="#0A0B09" opacity="0.5">
            <path d="M5.25875294,0.661154022 C4.79287059,0.347248788 4.17169412,0.470822342 3.85404706,0.940259807 C3.68463529,1.19663942 3.63522353,1.52048736 3.71992941,1.78467909 L4.2564,3.54524713 L2.63992941,4.06226752 C2.44228235,4.1432295 2.28698824,4.33356118 2.25875294,4.56792482 C2.2164,4.91094796 2.47051765,5.13749948 2.80934118,5.17798047 C2.88698824,5.18721298 2.94345882,5.16377661 3.01404706,5.14673198 L5.07522353,4.41381298 C5.23757647,4.35486697 5.06110588,4.19436339 5.07522353,4.05232482 C5.08934118,3.95005705 5.0964,4.09990774 5.07522353,4.03883116 L5.07522353,2.61844548 L6.48698824,3.32863832 L6.74110588,4.54519865 C6.75522353,4.74689342 6.84698824,4.89177275 7.00228235,4.97841628 L8.73169412,5.99470223 C8.92228235,6.09910058 9.15522353,6.02808129 9.26110588,5.83561904 C9.36698824,5.64528736 9.2964,5.4024014 9.10581176,5.29729287 L7.7364,4.49477496 L7.58110588,2.4380565 C7.55287059,2.19232978 7.42581176,1.97145981 7.22816471,1.83439259 L5.25875294,0.661154022" id="Fill-167" sketch:type="MSShapeGroup"></path>
            <path d="M0.134047059,4.03883116 L0.134047059,4.74902399 L6.48698824,9.01018102 L9.31051765,9.01018102 L9.31051765,8.29998818 L6.48698824,8.29998818 L0.134047059,4.03883116" id="Fill-168" sketch:type="MSShapeGroup"></path>
            <path d="M8.60463529,1.90825264 L10.0164,1.90825264 L10.0164,3.32863832 L8.60463529,3.32863832 L8.60463529,1.90825264 Z" id="Fill-169" sketch:type="MSShapeGroup"></path>
        </g>
        <g id="Fill-167-+-Fill-168-+-Fill-169" sketch:type="MSLayerGroup" transform="translate(1.000000, 2.000000)" fill="#0A0B09" opacity="0.75">
            <path d="M5.25875294,0.661154022 C4.79287059,0.347248788 4.17169412,0.470822342 3.85404706,0.940259807 C3.68463529,1.19663942 3.63522353,1.52048736 3.71992941,1.78467909 L4.2564,3.54524713 L2.63992941,4.06226752 C2.44228235,4.1432295 2.28698824,4.33356118 2.25875294,4.56792482 C2.2164,4.91094796 2.47051765,5.13749948 2.80934118,5.17798047 C2.88698824,5.18721298 2.94345882,5.16377661 3.01404706,5.14673198 L5.07522353,4.41381298 C5.23757647,4.35486697 5.06110588,4.19436339 5.07522353,4.05232482 C5.08934118,3.95005705 5.0964,4.09990774 5.07522353,4.03883116 L5.07522353,2.61844548 L6.48698824,3.32863832 L6.74110588,4.54519865 C6.75522353,4.74689342 6.84698824,4.89177275 7.00228235,4.97841628 L8.73169412,5.99470223 C8.92228235,6.09910058 9.15522353,6.02808129 9.26110588,5.83561904 C9.36698824,5.64528736 9.2964,5.4024014 9.10581176,5.29729287 L7.7364,4.49477496 L7.58110588,2.4380565 C7.55287059,2.19232978 7.42581176,1.97145981 7.22816471,1.83439259 L5.25875294,0.661154022" id="Fill-167" sketch:type="MSShapeGroup"></path>
            <path d="M0.134047059,4.03883116 L0.134047059,4.74902399 L6.48698824,9.01018102 L9.31051765,9.01018102 L9.31051765,8.29998818 L6.48698824,8.29998818 L0.134047059,4.03883116" id="Fill-168" sketch:type="MSShapeGroup"></path>
            <path d="M8.60463529,1.90825264 L10.0164,1.90825264 L10.0164,3.32863832 L8.60463529,3.32863832 L8.60463529,1.90825264 Z" id="Fill-169" sketch:type="MSShapeGroup"></path>
        </g>
        <g id="Fill-167-+-Fill-168-+-Fill-169" sketch:type="MSLayerGroup" transform="translate(0.000000, 1.000000)" fill="#FFFFFF">
            <path d="M5.25875294,0.661154022 C4.79287059,0.347248788 4.17169412,0.470822342 3.85404706,0.940259807 C3.68463529,1.19663942 3.63522353,1.52048736 3.71992941,1.78467909 L4.2564,3.54524713 L2.63992941,4.06226752 C2.44228235,4.1432295 2.28698824,4.33356118 2.25875294,4.56792482 C2.2164,4.91094796 2.47051765,5.13749948 2.80934118,5.17798047 C2.88698824,5.18721298 2.94345882,5.16377661 3.01404706,5.14673198 L5.07522353,4.41381298 C5.23757647,4.35486697 5.06110588,4.19436339 5.07522353,4.05232482 C5.08934118,3.95005705 5.0964,4.09990774 5.07522353,4.03883116 L5.07522353,2.61844548 L6.48698824,3.32863832 L6.74110588,4.54519865 C6.75522353,4.74689342 6.84698824,4.89177275 7.00228235,4.97841628 L8.73169412,5.99470223 C8.92228235,6.09910058 9.15522353,6.02808129 9.26110588,5.83561904 C9.36698824,5.64528736 9.2964,5.4024014 9.10581176,5.29729287 L7.7364,4.49477496 L7.58110588,2.4380565 C7.55287059,2.19232978 7.42581176,1.97145981 7.22816471,1.83439259 L5.25875294,0.661154022" id="Fill-167" sketch:type="MSShapeGroup"></path>
            <path d="M0.134047059,4.03883116 L0.134047059,4.74902399 L6.48698824,9.01018102 L9.31051765,9.01018102 L9.31051765,8.29998818 L6.48698824,8.29998818 L0.134047059,4.03883116" id="Fill-168" sketch:type="MSShapeGroup"></path>
            <path d="M8.60463529,1.90825264 L10.0164,1.90825264 L10.0164,3.32863832 L8.60463529,3.32863832 L8.60463529,1.90825264 Z" id="Fill-169" sketch:type="MSShapeGroup"></path>
        </g>
    </g>
</svg>