<?xml version="1.0" encoding="UTF-8" standalone="no"?>
<svg width="18px" height="18px" viewBox="0 0 18 18" version="1.1" xmlns="http://www.w3.org/2000/svg" xmlns:xlink="http://www.w3.org/1999/xlink" xmlns:sketch="http://www.bohemiancoding.com/sketch/ns">
    <!-- Generator: Sketch 3.2.2 (9983) - http://www.bohemiancoding.com/sketch -->
    <title>downhill-skiing-white-18</title>
    <desc>Created with Sketch.</desc>
    <defs></defs>
    <g id="Page-1" stroke="none" stroke-width="1" fill="none" fill-rule="evenodd" sketch:type="MSPage">
        <path d="M11.1037037,2.3024158 C10.2814815,1.75494229 9.16296296,1.97101184 8.60740741,2.78711235 C8.3037037,3.23385074 8.21481481,3.79738347 8.37037037,4.2558013 L9.31851852,7.31800314 L6.45185185,8.21731963 C6.0962963,8.35820282 5.82222222,8.69033675 5.77037037,9.09838701 C5.6962963,9.69403819 6.14814815,9.95901537 6.75555556,10.0298219 C6.88888889,10.0458812 6.98518519,10.0597505 7.11111111,10.0298219 L11.0222222,8.82903004 C11.3037037,8.72610502 11.6222222,8.44725851 11.6518519,8.20126041 C11.6740741,8.02314903 11.7333333,7.87350627 11.6962963,7.76693142 L11.0962963,5.67193278 L13.4518519,7.04937614 L13.7333333,9.05750898 C13.7555556,9.408622 13.9185185,9.66191974 14.1925926,9.81083254 L16.8148148,11.4897513 C17.1481481,11.6715125 18.0222222,11.6372042 18.2074074,11.3021504 C18.4,10.9707464 18.2666667,10.5480969 17.9333333,10.3663357 L15.3333333,8.97064319 L15.3333333,7.10996321 L14.5925926,7.10996321 L14.5925926,5.65003384 L15.3333333,5.65003384 C15.0592593,5.05657255 14.9481481,4.58136554 14.6,4.34266709 L11.1037037,2.30314577 L11.1037037,2.3024158" id="Fill-164" opacity="0.5" fill="#0A0B09" sketch:type="MSShapeGroup"></path>
        <path d="M2,8.56989258 L16.0740741,16.5995041 L17.5555556,16.5995041 L17.5555556,15.8695394 L18.2962963,15.8695394 L18.2962963,16.5995041 L17.5555556,17.3294688 L16.0740741,17.3294688 L2,9.29985726 L2,8.56989258" id="Fill-165" opacity="0.5" fill="#0A0B09" sketch:type="MSShapeGroup"></path>
        <path d="M16.0740741,4.92006916 L17.5555556,4.92006916 L17.5555556,5.65003384 L18.2962963,5.65003384 L18.2962963,7.10996321 L17.5555556,7.10996321 L17.5555556,7.83992789 L16.0740741,7.83992789 L16.0740741,7.10996321 L15.3333333,7.10996321 L15.3333333,5.65003384 L16.0740741,5.65003384 L16.0740741,4.92006916" id="Fill-166" opacity="0.5" fill="#0A0B09" sketch:type="MSShapeGroup"></path>
        <path d="M10.1037037,1.3024158 C9.28148148,0.75494229 8.16296296,0.971011837 7.60740741,1.78711235 C7.3037037,2.23385074 7.21481481,2.79738347 7.37037037,3.2558013 L8.31851852,6.31800314 L5.45185185,7.21731963 C5.0962963,7.35820282 4.82222222,7.69033675 4.77037037,8.09838701 C4.6962963,8.69403819 5.14814815,8.95901537 5.75555556,9.02982194 C5.88888889,9.04588117 5.98518519,9.05975049 6.11111111,9.02982194 L10.0222222,7.82903004 C10.3037037,7.72610502 10.6222222,7.44725851 10.6518519,7.20126041 C10.6740741,7.02314903 10.7333333,6.87350627 10.6962963,6.76693142 L10.0962963,4.67193278 L12.4518519,6.04937614 L12.7333333,8.05750898 C12.7555556,8.408622 12.9185185,8.66191974 13.1925926,8.81083254 L15.8148148,10.4897513 C16.1481481,10.6715125 17.0222222,10.6372042 17.2074074,10.3021504 C17.4,9.97074642 17.2666667,9.54809687 16.9333333,9.36633566 L14.3333333,7.97064319 L14.3333333,6.10996321 L13.5925926,6.10996321 L13.5925926,4.65003384 L14.3333333,4.65003384 C14.0592593,4.05657255 13.9481481,3.58136554 13.6,3.34266709 L10.1037037,1.30314577 L10.1037037,1.3024158" id="Fill-164" opacity="0.75" fill="#0A0B09" sketch:type="MSShapeGroup"></path>
        <path d="M1,7.56989258 L15.0740741,15.5995041 L16.5555556,15.5995041 L16.5555556,14.8695394 L17.2962963,14.8695394 L17.2962963,15.5995041 L16.5555556,16.3294688 L15.0740741,16.3294688 L1,8.29985726 L1,7.56989258" id="Fill-165" opacity="0.75" fill="#0A0B09" sketch:type="MSShapeGroup"></path>
        <path d="M15.0740741,3.92006916 L16.5555556,3.92006916 L16.5555556,4.65003384 L17.2962963,4.65003384 L17.2962963,6.10996321 L16.5555556,6.10996321 L16.5555556,6.83992789 L15.0740741,6.83992789 L15.0740741,6.10996321 L14.3333333,6.10996321 L14.3333333,4.65003384 L15.0740741,4.65003384 L15.0740741,3.92006916" id="Fill-166" opacity="0.75" fill="#0A0B09" sketch:type="MSShapeGroup"></path>
        <path d="M9.1037037,0.302415803 C8.28148148,-0.24505771 7.16296296,-0.0289881635 6.60740741,0.787112353 C6.3037037,1.23385074 6.21481481,1.79738347 6.37037037,2.2558013 L7.31851852,5.31800314 L4.45185185,6.21731963 C4.0962963,6.35820282 3.82222222,6.69033675 3.77037037,7.09838701 C3.6962963,7.69403819 4.14814815,7.95901537 4.75555556,8.02982194 C4.88888889,8.04588117 4.98518519,8.05975049 5.11111111,8.02982194 L9.02222222,6.82903004 C9.3037037,6.72610502 9.62222222,6.44725851 9.65185185,6.20126041 C9.67407407,6.02314903 9.73333333,5.87350627 9.6962963,5.76693142 L9.0962963,3.67193278 L11.4518519,5.04937614 L11.7333333,7.05750898 C11.7555556,7.408622 11.9185185,7.66191974 12.1925926,7.81083254 L14.8148148,9.48975131 C15.1481481,9.67151252 16.0222222,9.63720418 16.2074074,9.30215039 C16.4,8.97074642 16.2666667,8.54809687 15.9333333,8.36633566 L13.3333333,6.97064319 L13.3333333,5.10996321 L12.5925926,5.10996321 L12.5925926,3.65003384 L13.3333333,3.65003384 C13.0592593,3.05657255 12.9481481,2.58136554 12.6,2.34266709 L9.1037037,0.303145767 L9.1037037,0.302415803" id="Fill-164" fill="#FFFFFF" sketch:type="MSShapeGroup"></path>
        <path d="M0,6.56989258 L14.0740741,14.5995041 L15.5555556,14.5995041 L15.5555556,13.8695394 L16.2962963,13.8695394 L16.2962963,14.5995041 L15.5555556,15.3294688 L14.0740741,15.3294688 L0,7.29985726 L0,6.56989258" id="Fill-165" fill="#FFFFFF" sketch:type="MSShapeGroup"></path>
        <path d="M14.0740741,2.92006916 L15.5555556,2.92006916 L15.5555556,3.65003384 L16.2962963,3.65003384 L16.2962963,5.10996321 L15.5555556,5.10996321 L15.5555556,5.83992789 L14.0740741,5.83992789 L14.0740741,5.10996321 L13.3333333,5.10996321 L13.3333333,3.65003384 L14.0740741,3.65003384 L14.0740741,2.92006916" id="Fill-166" fill="#FFFFFF" sketch:type="MSShapeGroup"></path>
    </g>
</svg>