<?xml version="1.0" encoding="utf-8"?>
<!-- Generator: Adobe Illustrator 18.1.1, SVG Export Plug-In . SVG Version: 6.00 Build 0)  -->
<svg version="1.1" xmlns="http://www.w3.org/2000/svg" xmlns:xlink="http://www.w3.org/1999/xlink" x="0px" y="0px"
	 viewBox="0 0 18 18" enable-background="new 0 0 18 18" xml:space="preserve">
<g id="shadows">
	<g opacity="0.2">
		<path d="M10.5,3.9C9.9,3.5,9.1,3.7,8.6,4.3C8.4,4.6,8.4,5,8.5,5.4l0.7,2.3L7,8.4C6.8,8.5,6.6,8.7,6.5,9C6.5,9.5,6.8,9.8,7.3,9.8
			c0.1,0,0.2,0,0.3,0l2.7-1c0.2-0.1,0-0.3,0-0.5c0-0.1,0,0.1,0,0V6.5l1.9,0.9L12.4,9c0,0.3,0.1,0.5,0.3,0.6l2.3,1.3
			c0.2,0.1,0.6,0,0.7-0.2c0.1-0.2,0-0.6-0.2-0.7l-1.8-1l-0.2-2.7c0-0.3-0.2-0.6-0.5-0.8L10.5,3.9z"/>
		<polygon points="3.7,8.3 3.7,9.2 12.1,14.8 15.8,14.8 15.8,13.9 12.1,13.9 		"/>
		<rect x="14.9" y="5.5" width="1.9" height="1.9"/>
	</g>
</g>
<g id="icons">
	<g>
		<path fill="#FFFFFF" d="M9.7,3.2C9.1,2.7,8.3,2.9,7.9,3.5C7.7,3.9,7.6,4.3,7.7,4.6l0.7,2.3L6.3,7.6C6,7.7,5.8,8,5.8,8.3
			C5.7,8.7,6.1,9,6.5,9.1c0.1,0,0.2,0,0.3,0l2.7-1c0.2-0.1,0-0.3,0-0.5c0-0.1,0,0.1,0,0V5.7l1.9,0.9l0.3,1.6c0,0.3,0.1,0.5,0.3,0.6
			l2.3,1.3c0.2,0.1,0.6,0,0.7-0.2c0.1-0.2,0-0.6-0.2-0.7l-1.8-1l-0.2-2.7c0-0.3-0.2-0.6-0.5-0.8L9.7,3.2z"/>
		<polygon fill="#FFFFFF" points="3,7.6 3,8.5 11.4,14.1 15.1,14.1 15.1,13.1 11.4,13.1 		"/>
		<rect x="14.1" y="4.8" fill="#FFFFFF" width="1.9" height="1.9"/>
	</g>
</g>
<g id="guides">
</g>
</svg>
