<?xml version="1.0" encoding="UTF-8" standalone="no"?>
<!-- Created with Inkscape (http://www.inkscape.org/) -->

<svg
   xmlns:dc="http://purl.org/dc/elements/1.1/"
   xmlns:cc="http://creativecommons.org/ns#"
   xmlns:rdf="http://www.w3.org/1999/02/22-rdf-syntax-ns#"
   xmlns:svg="http://www.w3.org/2000/svg"
   xmlns="http://www.w3.org/2000/svg"
   xmlns:sodipodi="http://sodipodi.sourceforge.net/DTD/sodipodi-0.dtd"
   xmlns:inkscape="http://www.inkscape.org/namespaces/inkscape"
   width="24"
   height="24"
   id="svg27349"
   version="1.1"
   inkscape:version="0.48.2 r9819"
   sodipodi:docname="fishing-white-24.svg">
  <defs
     id="defs27351" />
  <sodipodi:namedview
     id="base"
     pagecolor="#ffffff"
     bordercolor="#666666"
     borderopacity="1.0"
     inkscape:pageopacity="0.0"
     inkscape:pageshadow="2"
     inkscape:zoom="9.0833806"
     inkscape:cx="14.197891"
     inkscape:cy="13.129232"
     inkscape:document-units="px"
     inkscape:current-layer="layer1"
     showgrid="false"
     inkscape:window-width="629"
     inkscape:window-height="573"
     inkscape:window-x="2658"
     inkscape:window-y="16"
     inkscape:window-maximized="0" />
  <metadata
     id="metadata27354">
    <rdf:RDF>
      <cc:Work
         rdf:about="">
        <dc:format>image/svg+xml</dc:format>
        <dc:type
           rdf:resource="http://purl.org/dc/dcmitype/StillImage" />
        <dc:title></dc:title>
      </cc:Work>
    </rdf:RDF>
  </metadata>
  <g
     inkscape:label="Layer 1"
     inkscape:groupmode="layer"
     id="layer1"
     transform="translate(0,-1028.3622)">
    <g
       id="g14607"
       transform="matrix(2.4281667,0,0,2.4281667,-681.49418,730.2016)">
      <path
         style="opacity:0;fill:#272525"
         inkscape:connector-curvature="0"
         id="path14574"
         d="m 289.365,132.677 c 0.652,0 1.181,-0.529 1.181,-1.182 v -7.521 c 0,-0.652 -0.528,-1.182 -1.181,-1.182 h -7.522 c -0.651,0 -1.181,0.529 -1.181,1.182 v 7.521 c 0,0.652 0.529,1.182 1.181,1.182 h 7.522 z" />
      <g
         transform="translate(259.503,-79.638)"
         id="g14576"
         style="opacity:0.6;fill:none;stroke:#1d1d1c;stroke-width:0.5;stroke-miterlimit:4;stroke-opacity:1;stroke-dasharray:none">
        <circle
           d="m 30.008,205.84 c 0,0.36506 -0.29594,0.661 -0.661,0.661 -0.36506,0 -0.661,-0.29594 -0.661,-0.661 0,-0.36506 0.29594,-0.661 0.661,-0.661 0.36506,0 0.661,0.29594 0.661,0.661 z"
           style="fill:none;stroke:#1d1d1c;stroke-width:0.5;stroke-miterlimit:4;stroke-opacity:1;stroke-dasharray:none"
           sodipodi:ry="0.66100001"
           sodipodi:rx="0.66100001"
           sodipodi:cy="205.84"
           sodipodi:cx="29.347"
           id="circle14578"
           r="0.66100001"
           cy="205.84"
           cx="29.347" />
        <g
           id="g14580"
           style="fill:none;stroke:#1d1d1c;stroke-width:0.5;stroke-miterlimit:4;stroke-opacity:1;stroke-dasharray:none">
          <path
             d="m 29.021,211.267 c 0.319,0.189 0.731,0.086 0.922,-0.234 l -0.231,-0.139 c -0.113,0.191 -0.361,0.252 -0.551,0.139 l -6.966,-4.09 -0.137,0.233 6.963,4.091 z"
             id="path14582"
             inkscape:connector-curvature="0"
             style="fill:none;stroke:#1d1d1c;stroke-width:0.5;stroke-miterlimit:4;stroke-opacity:1;stroke-dasharray:none" />
          <path
             d="m 26.499,203.97 c -0.402,-0.271 -0.946,-0.164 -1.218,0.24 -0.149,0.221 -0.19,0.5 -0.117,0.727 l 0.463,1.516 -1.396,0.445 c -0.175,0.07 -0.31,0.234 -0.333,0.436 -0.036,0.295 0.184,0.49 0.479,0.525 0.067,0.008 0.112,-0.012 0.175,-0.027 l 1.906,-0.631 c 0.14,-0.051 0.293,-0.189 0.308,-0.311 0.011,-0.088 0.039,-0.162 0.021,-0.215 l -0.29,-1.037 1.146,0.682 0.139,0.994 c 0.012,0.174 0.091,0.299 0.225,0.373 l 1.498,0.875 c 0.164,0.09 0.371,0.029 0.461,-0.137 0.091,-0.164 0.029,-0.373 -0.135,-0.463 l -1.185,-0.691 -0.137,-1.771 c -0.021,-0.212 -0.136,-0.402 -0.304,-0.52 l -1.706,-1.01 z"
             id="path14584"
             inkscape:connector-curvature="0"
             style="fill:none;stroke:#1d1d1c;stroke-width:0.5;stroke-miterlimit:4;stroke-opacity:1;stroke-dasharray:none" />
        </g>
      </g>
      <g
         style="fill:#ffffff;fill-opacity:1"
         transform="translate(259.503,-79.638)"
         id="g14586">
        <circle
           d="m 30.008,205.84 c 0,0.36506 -0.29594,0.661 -0.661,0.661 -0.36506,0 -0.661,-0.29594 -0.661,-0.661 0,-0.36506 0.29594,-0.661 0.661,-0.661 0.36506,0 0.661,0.29594 0.661,0.661 z"
           cx="29.347"
           cy="205.84"
           r="0.66100001"
           id="circle14588"
           sodipodi:cx="29.347"
           sodipodi:cy="205.84"
           sodipodi:rx="0.66100001"
           sodipodi:ry="0.66100001"
           style="fill:#ffffff;fill-opacity:1" />
        <g
           style="fill:#ffffff;fill-opacity:1"
           id="g14590">
          <path
             style="fill:#ffffff;fill-opacity:1"
             inkscape:connector-curvature="0"
             id="path14592"
             d="m 29.021,211.267 c 0.319,0.189 0.731,0.086 0.922,-0.234 l -0.231,-0.139 c -0.113,0.191 -0.361,0.252 -0.551,0.139 l -6.966,-4.09 -0.137,0.233 6.963,4.091 z" />
          <path
             style="fill:#ffffff;fill-opacity:1"
             inkscape:connector-curvature="0"
             id="path14594"
             d="m 26.499,203.97 c -0.402,-0.271 -0.946,-0.164 -1.218,0.24 -0.149,0.221 -0.19,0.5 -0.117,0.727 l 0.463,1.516 -1.396,0.445 c -0.175,0.07 -0.31,0.234 -0.333,0.436 -0.036,0.295 0.184,0.49 0.479,0.525 0.067,0.008 0.112,-0.012 0.175,-0.027 l 1.906,-0.631 c 0.14,-0.051 0.293,-0.189 0.308,-0.311 0.011,-0.088 0.039,-0.162 0.021,-0.215 l -0.29,-1.037 1.146,0.682 0.139,0.994 c 0.012,0.174 0.091,0.299 0.225,0.373 l 1.498,0.875 c 0.164,0.09 0.371,0.029 0.461,-0.137 0.091,-0.164 0.029,-0.373 -0.135,-0.463 l -1.185,-0.691 -0.137,-1.771 c -0.021,-0.212 -0.136,-0.402 -0.304,-0.52 l -1.706,-1.01 z" />
        </g>
      </g>
    </g>
  </g>
</svg>
