<?xml version="1.0" encoding="utf-8"?>
<!-- Generator: Adobe Illustrator 18.1.1, SVG Export Plug-In . SVG Version: 6.00 Build 0)  -->
<svg version="1.1" xmlns="http://www.w3.org/2000/svg" xmlns:xlink="http://www.w3.org/1999/xlink" x="0px" y="0px"
	 viewBox="0 0 18 18" enable-background="new 0 0 18 18" xml:space="preserve">
<g id="shadows">
	<g opacity="0.2">
		<polygon points="13.5,2.8 12.6,2.8 12.6,3.7 10.7,3.7 10.7,2.8 9.8,2.8 9.8,3.7 7.9,3.7 7.9,2.8 7,2.8 7,4.6 7.9,4.6 7.9,5.5 
			9.8,5.5 9.8,4.6 10.7,4.6 10.7,5.5 12.6,5.5 12.6,4.6 13.5,4.6 13.5,3.7 		"/>
		<polygon points="5.1,2.8 6.1,2.8 6.1,4.6 7.9,14.8 12.6,14.8 14.4,4.6 14.4,2.8 15.4,2.8 13.5,15.8 7,15.8 		"/>
	</g>
</g>
<g id="icons">
	<g>
		<polygon points="12.8,2 11.8,2 11.8,2.9 10,2.9 10,2 9,2 9,2.9 7.2,2.9 7.2,2 6.2,2 6.2,3.9 7.2,3.9 7.2,4.8 9,4.8 9,3.9 10,3.9 
			10,4.8 11.8,4.8 11.8,3.9 12.8,3.9 12.8,2.9 		"/>
		<polygon points="4.4,2 5.3,2 5.3,3.9 7.2,14.1 11.8,14.1 13.7,3.9 13.7,2 14.6,2 12.8,15 6.2,15 		"/>
	</g>
</g>
<g id="guides">
</g>
</svg>
