<?xml version="1.0" encoding="UTF-8" standalone="no"?>
<svg width="12px" height="12px" viewBox="0 0 12 12" version="1.1" xmlns="http://www.w3.org/2000/svg" xmlns:xlink="http://www.w3.org/1999/xlink" xmlns:sketch="http://www.bohemiancoding.com/sketch/ns">
    <!-- Generator: Sketch 3.2.2 (9983) - http://www.bohemiancoding.com/sketch -->
    <title>drinking-water-black-12</title>
    <desc>Created with Sketch.</desc>
    <defs></defs>
    <g id="Page-1" stroke="none" stroke-width="1" fill="none" fill-rule="evenodd" sketch:type="MSPage">
        <path d="M8.35294118,2 L7.64705882,2 L7.64705882,2.71019284 L6.23529412,2.71019284 L6.23529412,2 L5.52941176,2 L5.52941176,2.71019284 L4.11764706,2.71019284 L4.11764706,2 L3.41176471,2 L3.41176471,3.42038567 L4.11764706,3.42038567 L4.11764706,4.13057851 L5.52941176,4.13057851 L5.52941176,3.42038567 L6.23529412,3.42038567 L6.23529412,4.13057851 L7.64705882,4.13057851 L7.64705882,3.42038567 L8.35294118,3.42038567 L8.35294118,2" id="Fill-174" fill-opacity="0.1" fill="#0A0B09" sketch:type="MSShapeGroup"></path>
        <path d="M2,2 L2.70588235,2 L2.70588235,3.42038567 L4.11764706,11.2325069 L7.64705882,11.2325069 L9.05882353,3.42038567 L9.05882353,2 L9.76470588,2 L8.35294118,11.9426997 L3.41176471,11.9426997 L2,2" id="Fill-175" fill-opacity="0.1" fill="#0A0B09" sketch:type="MSShapeGroup"></path>
        <path d="M7.35294118,1 L6.64705882,1 L6.64705882,1.71019284 L5.23529412,1.71019284 L5.23529412,1 L4.52941176,1 L4.52941176,1.71019284 L3.11764706,1.71019284 L3.11764706,1 L2.41176471,1 L2.41176471,2.42038567 L3.11764706,2.42038567 L3.11764706,3.13057851 L4.52941176,3.13057851 L4.52941176,2.42038567 L5.23529412,2.42038567 L5.23529412,3.13057851 L6.64705882,3.13057851 L6.64705882,2.42038567 L7.35294118,2.42038567 L7.35294118,1" id="Fill-174" opacity="0.2" fill="#0A0B09" sketch:type="MSShapeGroup"></path>
        <path d="M1,1 L1.70588235,1 L1.70588235,2.42038567 L3.11764706,10.2325069 L6.64705882,10.2325069 L8.05882353,2.42038567 L8.05882353,1 L8.76470588,1 L7.35294118,10.9426997 L2.41176471,10.9426997 L1,1" id="Fill-175" opacity="0.2" fill="#0A0B09" sketch:type="MSShapeGroup"></path>
        <path d="M6.35294118,0 L5.64705882,0 L5.64705882,0.710192837 L4.23529412,0.710192837 L4.23529412,0 L3.52941176,0 L3.52941176,0.710192837 L2.11764706,0.710192837 L2.11764706,0 L1.41176471,0 L1.41176471,1.42038567 L2.11764706,1.42038567 L2.11764706,2.13057851 L3.52941176,2.13057851 L3.52941176,1.42038567 L4.23529412,1.42038567 L4.23529412,2.13057851 L5.64705882,2.13057851 L5.64705882,1.42038567 L6.35294118,1.42038567 L6.35294118,0" id="Fill-174" fill="#0A0B09" sketch:type="MSShapeGroup"></path>
        <path d="M0,0 L0.705882353,0 L0.705882353,1.42038567 L2.11764706,9.23250689 L5.64705882,9.23250689 L7.05882353,1.42038567 L7.05882353,0 L7.76470588,0 L6.35294118,9.94269972 L1.41176471,9.94269972 L0,0" id="Fill-175" fill="#0A0B09" sketch:type="MSShapeGroup"></path>
    </g>
</svg>