<?xml version="1.0" encoding="UTF-8" standalone="no"?>
<!-- Created with Inkscape (http://www.inkscape.org/) -->

<svg
   xmlns:dc="http://purl.org/dc/elements/1.1/"
   xmlns:cc="http://creativecommons.org/ns#"
   xmlns:rdf="http://www.w3.org/1999/02/22-rdf-syntax-ns#"
   xmlns:svg="http://www.w3.org/2000/svg"
   xmlns="http://www.w3.org/2000/svg"
   xmlns:sodipodi="http://sodipodi.sourceforge.net/DTD/sodipodi-0.dtd"
   xmlns:inkscape="http://www.inkscape.org/namespaces/inkscape"
   width="24"
   height="24"
   id="svg27349"
   version="1.1"
   inkscape:version="0.48.2 r9819"
   sodipodi:docname="cross-country-ski-trail-white-24.svg">
  <defs
     id="defs27351" />
  <sodipodi:namedview
     id="base"
     pagecolor="#ffffff"
     bordercolor="#666666"
     borderopacity="1.0"
     inkscape:pageopacity="0.0"
     inkscape:pageshadow="2"
     inkscape:zoom="9.0833806"
     inkscape:cx="14.197891"
     inkscape:cy="13.129232"
     inkscape:document-units="px"
     inkscape:current-layer="layer1"
     showgrid="false"
     inkscape:window-width="629"
     inkscape:window-height="573"
     inkscape:window-x="2658"
     inkscape:window-y="16"
     inkscape:window-maximized="0" />
  <metadata
     id="metadata27354">
    <rdf:RDF>
      <cc:Work
         rdf:about="">
        <dc:format>image/svg+xml</dc:format>
        <dc:type
           rdf:resource="http://purl.org/dc/dcmitype/StillImage" />
        <dc:title></dc:title>
      </cc:Work>
    </rdf:RDF>
  </metadata>
  <g
     inkscape:label="Layer 1"
     inkscape:groupmode="layer"
     id="layer1"
     transform="translate(0,-1028.3622)">
    <g
       id="g14098"
       transform="matrix(2.4284124,0,0,2.4284124,-468.99368,-264.91912)">
      <path
         d="m 201.875,542.446 c 0.652,0 1.181,-0.529 1.181,-1.182 v -7.521 c 0,-0.652 -0.528,-1.181 -1.181,-1.181 h -7.521 c -0.652,0 -1.181,0.528 -1.181,1.181 v 7.521 c 0,0.652 0.528,1.182 1.181,1.182 h 7.521 z"
         id="path14069"
         inkscape:connector-curvature="0"
         style="opacity:0;fill:#272525" />
      <g
         id="g14090">
        <g
           id="g14071"
           style="opacity:0.6;fill:none;stroke:#1d1d1c;stroke-width:0.5;stroke-miterlimit:4;stroke-opacity:1;stroke-dasharray:none"
           transform="translate(172.013,317.431)">
          <path
             style="fill:none;stroke:#1d1d1c;stroke-width:0.5;stroke-miterlimit:4;stroke-opacity:1;stroke-dasharray:none"
             inkscape:connector-curvature="0"
             id="path14073"
             d="m 27.807,217.827 c -0.129,0.125 -0.304,0.174 -0.496,0.174 -0.245,0 -0.468,-0.1 -0.596,-0.289 -0.127,0.193 -0.352,0.289 -0.6,0.289 -0.245,0 -0.466,-0.102 -0.594,-0.291 -0.127,0.195 -0.351,0.291 -0.602,0.291 -0.182,0 -0.348,-0.041 -0.473,-0.152 l -0.095,-0.68 c 0.13,0.172 0.336,0.283 0.567,0.283 0.251,0 0.475,-0.123 0.602,-0.318 0.128,0.189 0.349,0.318 0.594,0.318 0.248,0 0.473,-0.123 0.6,-0.316 0.128,0.189 0.351,0.316 0.596,0.316 0.25,0 0.471,-0.129 0.597,-0.324 l -0.1,0.699 z" />
          <polygon
             style="fill:none;stroke:#1d1d1c;stroke-width:0.5;stroke-miterlimit:4;stroke-opacity:1;stroke-dasharray:none"
             id="polygon14075"
             points="27.987,223.569 29.07,216.656 28.342,216.663 27.356,222.84 24.902,222.84 23.917,216.663 23.188,216.656 24.271,223.569 " />
        </g>
        <g
           id="g14077"
           transform="translate(172.013,317.431)"
           style="fill:#ffffff;fill-opacity:1">
          <path
             d="m 27.807,217.827 c -0.129,0.125 -0.304,0.174 -0.496,0.174 -0.245,0 -0.468,-0.1 -0.596,-0.289 -0.127,0.193 -0.352,0.289 -0.6,0.289 -0.245,0 -0.466,-0.102 -0.594,-0.291 -0.127,0.195 -0.351,0.291 -0.602,0.291 -0.182,0 -0.348,-0.041 -0.473,-0.152 l -0.095,-0.68 c 0.13,0.172 0.336,0.283 0.567,0.283 0.251,0 0.475,-0.123 0.602,-0.318 0.128,0.189 0.349,0.318 0.594,0.318 0.248,0 0.473,-0.123 0.6,-0.316 0.128,0.189 0.351,0.316 0.596,0.316 0.25,0 0.471,-0.129 0.597,-0.324 l -0.1,0.699 z"
             id="path14079"
             inkscape:connector-curvature="0"
             style="fill:#ffffff;fill-opacity:1" />
          <polygon
             points="27.987,223.569 29.07,216.656 28.342,216.663 27.356,222.84 24.902,222.84 23.917,216.663 23.188,216.656 24.271,223.569 "
             id="polygon14081"
             style="fill:#ffffff;fill-opacity:1" />
        </g>
      </g>
    </g>
  </g>
</svg>
