<?xml version="1.0" encoding="utf-8"?>
<!-- Generator: Adobe Illustrator 18.0.0, SVG Export Plug-In . SVG Version: 6.00 Build 0)  -->
<!DOCTYPE svg PUBLIC "-//W3C//DTD SVG 1.1//EN" "http://www.w3.org/Graphics/SVG/1.1/DTD/svg11.dtd" [
	<!ENTITY ns_flows "http://ns.adobe.com/Flows/1.0/">
	<!ENTITY ns_extend "http://ns.adobe.com/Extensibility/1.0/">
	<!ENTITY ns_ai "http://ns.adobe.com/AdobeIllustrator/10.0/">
	<!ENTITY ns_graphs "http://ns.adobe.com/Graphs/1.0/">
	<!ENTITY st0 "opacity:0.1;">
	<!ENTITY st1 "fill:#010101;">
	<!ENTITY st2 "opacity:0.2;">
]>
<svg version="1.1" id="Layer_1" xmlns:x="&ns_extend;" xmlns:i="&ns_ai;" xmlns:graph="&ns_graphs;"
	 xmlns="http://www.w3.org/2000/svg" xmlns:xlink="http://www.w3.org/1999/xlink" xmlns:a="http://ns.adobe.com/AdobeSVGViewerExtensions/3.0/"
	 x="0px" y="0px" width="20px" height="24px" viewBox="0 0 20 24" style="enable-background:new 0 0 20 24;" xml:space="preserve">
<g style="&st0;">
	<polygon style="&st1;" points="20,2 18,2 15,22 7,22 4,2 2,2 5.5,24 16.5,24 	"/>
	<polygon style="&st1;" points="6,2 7,2 7,3 9,3 9,2 10,2 10,3 12,3 12,2 13,2 13,3 15,3 15,2 16,2 16,4 15,4 15,5 13,5 13,4 12,4 
		12,5 10,5 10,4 9,4 9,5 7,5 7,4 6,4 	"/>
</g>
<g style="&st2;">
	<polygon style="&st1;" points="19,1 17,1 14,21 6,21 3,1 1,1 4.5,23 15.5,23 	"/>
	<polygon style="&st1;" points="5,1 6,1 6,2 8,2 8,1 9,1 9,2 11,2 11,1 12,1 12,2 14,2 14,1 15,1 15,3 14,3 14,4 12,4 12,3 11,3 
		11,4 9,4 9,3 8,3 8,4 6,4 6,3 5,3 	"/>
</g>
<g>
	<polygon style="&st1;" points="18,0 16,0 13,20 5,20 2,0 0,0 3.5,22 14.5,22 	"/>
	<polygon style="&st1;" points="4,0 5,0 5,1 7,1 7,0 8,0 8,1 10,1 10,0 11,0 11,1 13,1 13,0 14,0 14,2 13,2 13,3 11,3 11,2 10,2 
		10,3 8,3 8,2 7,2 7,3 5,3 5,2 4,2 	"/>
</g>
</svg>
