<?xml version="1.0" encoding="utf-8"?>
<!-- Generator: Adobe Illustrator 18.1.1, SVG Export Plug-In . SVG Version: 6.00 Build 0)  -->
<svg version="1.1" xmlns="http://www.w3.org/2000/svg" xmlns:xlink="http://www.w3.org/1999/xlink" x="0px" y="0px"
	 viewBox="0 0 12 12" enable-background="new 0 0 12 12" xml:space="preserve">
<g id="shadows">
	<g opacity="0.2">
		<polygon points="9.2,1.5 8.6,1.5 8.6,2.1 7.3,2.1 7.3,1.5 6.7,1.5 6.7,2.1 5.4,2.1 5.4,1.5 4.8,1.5 4.8,2.8 5.4,2.8 5.4,3.4 
			6.7,3.4 6.7,2.8 7.3,2.8 7.3,3.4 8.6,3.4 8.6,2.8 9.2,2.8 9.2,2.1 		"/>
		<polygon points="3.5,1.5 4.1,1.5 4.1,2.8 5.4,9.9 8.6,9.9 9.9,2.8 9.9,1.5 10.5,1.5 9.2,10.5 4.8,10.5 		"/>
	</g>
</g>
<g id="icons">
	<g>
		<polygon points="8.8,1 8.1,1 8.1,1.6 6.8,1.6 6.8,1 6.2,1 6.2,1.6 4.9,1.6 4.9,1 4.2,1 4.2,2.3 4.9,2.3 4.9,2.9 6.2,2.9 6.2,2.3 
			6.8,2.3 6.8,2.9 8.1,2.9 8.1,2.3 8.8,2.3 8.8,1.6 		"/>
		<polygon points="3,1 3.6,1 3.6,2.3 4.9,9.4 8.1,9.4 9.4,2.3 9.4,1 10,1 8.8,10 4.2,10 		"/>
	</g>
</g>
<g id="guides">
</g>
</svg>
