<?xml version="1.0" encoding="utf-8"?>
<!-- Generator: Adobe Illustrator 18.1.1, SVG Export Plug-In . SVG Version: 6.00 Build 0)  -->
<svg version="1.1" xmlns="http://www.w3.org/2000/svg" xmlns:xlink="http://www.w3.org/1999/xlink" x="0px" y="0px"
	 viewBox="0 0 24 24" enable-background="new 0 0 24 24" xml:space="preserve">
<g id="shadows">
	<g opacity="0.2">
		<polygon points="20.5,4 18.9,4 16.6,19.5 10.4,19.5 8.1,4 6.5,4 9.3,21 17.7,21 		"/>
		<polygon points="9.6,4 10.4,4 10.4,4.8 12,4.8 12,4 12.7,4 12.7,4.8 14.3,4.8 14.3,4 15,4 15,4.8 16.6,4.8 16.6,4 17.4,4 
			17.4,5.5 16.6,5.5 16.6,6.3 15,6.3 15,5.5 14.3,5.5 14.3,6.3 12.7,6.3 12.7,5.5 12,5.5 12,6.3 10.4,6.3 10.4,5.5 9.6,5.5 		"/>
	</g>
</g>
<g id="icons">
	<g>
		<polygon points="19.5,3 17.9,3 15.6,18.5 9.4,18.5 7.1,3 5.5,3 8.3,20 16.7,20 		"/>
		<polygon points="8.6,3 9.4,3 9.4,3.8 11,3.8 11,3 11.7,3 11.7,3.8 13.3,3.8 13.3,3 14,3 14,3.8 15.6,3.8 15.6,3 16.4,3 16.4,4.5 
			15.6,4.5 15.6,5.3 14,5.3 14,4.5 13.3,4.5 13.3,5.3 11.7,5.3 11.7,4.5 11,4.5 11,5.3 9.4,5.3 9.4,4.5 8.6,4.5 		"/>
	</g>
</g>
<g id="guides">
</g>
</svg>
