<?xml version="1.0" encoding="UTF-8" standalone="no"?>
<svg width="18px" height="18px" viewBox="0 0 18 18" version="1.1" xmlns="http://www.w3.org/2000/svg" xmlns:xlink="http://www.w3.org/1999/xlink" xmlns:sketch="http://www.bohemiancoding.com/sketch/ns">
    <!-- Generator: Sketch 3.2.2 (9983) - http://www.bohemiancoding.com/sketch -->
    <title>drinking-water-black-18</title>
    <desc>Created with Sketch.</desc>
    <defs></defs>
    <g id="Page-1" stroke="none" stroke-width="1" fill="none" fill-rule="evenodd" sketch:type="MSPage">
        <path d="M15.3333333,2 L13.8518519,2 L11.6296296,16.5992937 L5.7037037,16.5992937 L3.48148148,2 L2,2 L4.60740741,18.059223 L12.7259259,18.059223 L15.3333333,2" id="Fill-172" opacity="0.1" fill="#0A0B09" sketch:type="MSShapeGroup"></path>
        <path d="M4.96296296,2 L5.7037037,2 L5.7037037,2.72996468 L7.18518519,2.72996468 L7.18518519,2 L7.92592593,2 L7.92592593,2.72996468 L9.40740741,2.72996468 L9.40740741,2 L10.1481481,2 L10.1481481,2.72996468 L11.6296296,2.72996468 L11.6296296,2 L12.3703704,2 L12.3703704,3.45992937 L11.6296296,3.45992937 L11.6296296,4.18989405 L10.1481481,4.18989405 L10.1481481,3.45992937 L9.40740741,3.45992937 L9.40740741,4.18989405 L7.92592593,4.18989405 L7.92592593,3.45992937 L7.18518519,3.45992937 L7.18518519,4.18989405 L5.7037037,4.18989405 L5.7037037,3.45992937 L4.96296296,3.45992937 L4.96296296,2" id="Fill-173" opacity="0.1" fill="#0A0B09" sketch:type="MSShapeGroup"></path>
        <path d="M14.3333333,1 L12.8518519,1 L10.6296296,15.5992937 L4.7037037,15.5992937 L2.48148148,1 L1,1 L3.60740741,17.059223 L11.7259259,17.059223 L14.3333333,1" id="Fill-172" opacity="0.2" fill="#0A0B09" sketch:type="MSShapeGroup"></path>
        <path d="M3.96296296,1 L4.7037037,1 L4.7037037,1.72996468 L6.18518519,1.72996468 L6.18518519,1 L6.92592593,1 L6.92592593,1.72996468 L8.40740741,1.72996468 L8.40740741,1 L9.14814815,1 L9.14814815,1.72996468 L10.6296296,1.72996468 L10.6296296,1 L11.3703704,1 L11.3703704,2.45992937 L10.6296296,2.45992937 L10.6296296,3.18989405 L9.14814815,3.18989405 L9.14814815,2.45992937 L8.40740741,2.45992937 L8.40740741,3.18989405 L6.92592593,3.18989405 L6.92592593,2.45992937 L6.18518519,2.45992937 L6.18518519,3.18989405 L4.7037037,3.18989405 L4.7037037,2.45992937 L3.96296296,2.45992937 L3.96296296,1" id="Fill-173" opacity="0.2" fill="#0A0B09" sketch:type="MSShapeGroup"></path>
        <path d="M13.3333333,0 L11.8518519,0 L9.62962963,14.5992937 L3.7037037,14.5992937 L1.48148148,0 L0,0 L2.60740741,16.059223 L10.7259259,16.059223 L13.3333333,0" id="Fill-172" fill="#0A0B09" sketch:type="MSShapeGroup"></path>
        <path d="M2.96296296,0 L3.7037037,0 L3.7037037,0.729964684 L5.18518519,0.729964684 L5.18518519,0 L5.92592593,0 L5.92592593,0.729964684 L7.40740741,0.729964684 L7.40740741,0 L8.14814815,0 L8.14814815,0.729964684 L9.62962963,0.729964684 L9.62962963,0 L10.3703704,0 L10.3703704,1.45992937 L9.62962963,1.45992937 L9.62962963,2.18989405 L8.14814815,2.18989405 L8.14814815,1.45992937 L7.40740741,1.45992937 L7.40740741,2.18989405 L5.92592593,2.18989405 L5.92592593,1.45992937 L5.18518519,1.45992937 L5.18518519,2.18989405 L3.7037037,2.18989405 L3.7037037,1.45992937 L2.96296296,1.45992937 L2.96296296,0" id="Fill-173" fill="#0A0B09" sketch:type="MSShapeGroup"></path>
    </g>
</svg>