<?xml version="1.0" encoding="utf-8"?>
<!-- Generator: Adobe Illustrator 18.1.1, SVG Export Plug-In . SVG Version: 6.00 Build 0)  -->
<svg version="1.1" xmlns="http://www.w3.org/2000/svg" xmlns:xlink="http://www.w3.org/1999/xlink" x="0px" y="0px"
	 viewBox="0 0 12 12" enable-background="new 0 0 12 12" xml:space="preserve">
<g id="shadows">
	<g opacity="0.2">
		<polygon points="8.3,1.5 7.6,1.5 7.6,2.1 6.3,2.1 6.3,1.5 5.7,1.5 5.7,2.1 4.4,2.1 4.4,1.5 3.8,1.5 3.8,2.8 4.4,2.8 4.4,3.4 
			5.7,3.4 5.7,2.8 6.3,2.8 6.3,3.4 7.6,3.4 7.6,2.8 8.3,2.8 8.3,2.1 		"/>
		<polygon points="2.5,1.5 3.1,1.5 3.1,2.8 4.4,9.9 7.6,9.9 8.9,2.8 8.9,1.5 9.5,1.5 8.3,10.5 3.8,10.5 		"/>
	</g>
</g>
<g id="icons">
	<g>
		<polygon fill="#FFFFFF" points="7.8,1 7.1,1 7.1,1.6 5.8,1.6 5.8,1 5.2,1 5.2,1.6 3.9,1.6 3.9,1 3.3,1 3.3,2.3 3.9,2.3 3.9,2.9 
			5.2,2.9 5.2,2.3 5.8,2.3 5.8,2.9 7.1,2.9 7.1,2.3 7.8,2.3 7.8,1.6 		"/>
		<polygon fill="#FFFFFF" points="2,1 2.6,1 2.6,2.3 3.9,9.4 7.1,9.4 8.4,2.3 8.4,1 9,1 7.8,10 3.3,10 		"/>
	</g>
</g>
<g id="guides">
</g>
</svg>
