<?xml version="1.0" encoding="UTF-8" standalone="no"?>
<!-- Created with Inkscape (http://www.inkscape.org/) -->

<svg
   xmlns:dc="http://purl.org/dc/elements/1.1/"
   xmlns:cc="http://creativecommons.org/ns#"
   xmlns:rdf="http://www.w3.org/1999/02/22-rdf-syntax-ns#"
   xmlns:svg="http://www.w3.org/2000/svg"
   xmlns="http://www.w3.org/2000/svg"
   xmlns:inkscape="http://www.inkscape.org/namespaces/inkscape"
   version="1.1"
   width="18"
   height="18"
   id="svg4619">
  <defs
     id="defs4621" />
  <metadata
     id="metadata4624">
    <rdf:RDF>
      <cc:Work
         rdf:about="">
        <dc:format>image/svg+xml</dc:format>
        <dc:type
           rdf:resource="http://purl.org/dc/dcmitype/StillImage" />
        <dc:title />
      </cc:Work>
    </rdf:RDF>
  </metadata>
  <g
     transform="translate(0,-1034.3622)"
     id="layer1">
    <g
       transform="matrix(0.75000125,0,0,0.75000125,-240.0004,48.588889)"
       id="emergency-telephone-18"
       style="display:inline">
      <path
         d="m 327.99998,1316.3622 -4.66666,4.6667 4.66666,0 z m 7.33332,0.6667 -11.33331,11.3333 0,3.3333 1.75,1.75 3.99999,-4 -1.08333,-1.0833 6.66665,-6.6667 1.08334,1.0834 3.99999,-4 -1.75,-1.75 z m 5.58333,2.25 -3.99999,4 0.41666,0.4166 1.33333,0 2.66666,-2.6666 0,-1.3334 z m -10.66665,10.6666 -3.99999,4 0.41666,0.4167 1.33333,0 2.66667,-2.6667 0,-1.3333 z"
         inkscape:connector-curvature="0"
         id="path6250"
         style="opacity:0.3;color:#000000;fill:none;stroke:#ffffff;stroke-width:2.66666222;stroke-linecap:round;stroke-linejoin:round;stroke-miterlimit:4;stroke-opacity:1;stroke-dasharray:none;stroke-dashoffset:0;marker:none;visibility:visible;display:inline;overflow:visible;enable-background:accumulate" />
      <path
         d="m 327.99998,1316.3622 -4.66665,4.6667 4.66665,0 z m 7.33333,0.6667 -11.33332,11.3333 0,3.3333 1.75,1.75 3.99999,-4 -1.08333,-1.0833 6.66666,-6.6667 1.08333,1.0834 3.99999,-4 -1.75,-1.75 z m 5.58332,2.25 -3.99999,4 0.41666,0.4166 1.33333,0 2.66667,-2.6666 0,-1.3334 z m -10.66665,10.6666 -3.99999,4 0.41666,0.4167 1.33333,0 2.66667,-2.6667 0,-1.3333 z"
         inkscape:connector-curvature="0"
         id="path6252"
         style="color:#000000;fill:#444444;fill-opacity:1;stroke:none;stroke-width:1;marker:none;visibility:visible;display:inline;overflow:visible;enable-background:accumulate" />
    </g>
  </g>
  <rect
     width="18"
     height="18"
     x="0"
     y="0"
     id="canvas"
     style="fill:none;stroke:none;visibility:hidden" />
</svg>
