<?xml version="1.0" encoding="UTF-8" standalone="no"?>
<svg width="18px" height="18px" viewBox="0 0 18 18" version="1.1" xmlns="http://www.w3.org/2000/svg" xmlns:xlink="http://www.w3.org/1999/xlink" xmlns:sketch="http://www.bohemiancoding.com/sketch/ns">
    <!-- Generator: Sketch 3.2.2 (9983) - http://www.bohemiancoding.com/sketch -->
    <title>emergency-telephone-black-18</title>
    <desc>Created with Sketch.</desc>
    <defs></defs>
    <g id="Page-1" stroke="none" stroke-width="1" fill="none" fill-rule="evenodd" sketch:type="MSPage">
        <g id="Fill-475-+-Fill-476-+-Fill-477" sketch:type="MSLayerGroup" transform="translate(6.000000, 2.000000)" fill="#1B8EBB" opacity="0.1">
            <path d="M4.14814815,0.0611246944 C3.38518519,0.14142081 0.525925926,1.40425971 0.444444444,7.87904645 C0.362962963,14.6969166 3.37037037,16.134947 4.14814815,16.1203477 L4.14814815,11.7405596 C3.51111111,11.7405596 3.32592593,10.9667971 3.17777778,9.55066558 C3.08148148,8.61631079 3.05185185,7.78415105 3.17777778,6.63080685 C3.26666667,5.82784569 3.48148148,4.4409128 4.14814815,4.4409128 L4.14814815,0.0611246944" id="Fill-475" sketch:type="MSShapeGroup"></path>
            <path d="M4.88888889,0.0611246944 L6.37037037,0.0611246944 L7.11111111,0.791089378 L7.11111111,3.71094811 L6.37037037,4.4409128 L4.88888889,4.4409128 L4.88888889,0.0611246944" id="Fill-476" sketch:type="MSShapeGroup"></path>
            <path d="M4.88888889,11.7405596 L6.37037037,11.7405596 L7.11111111,12.4705243 L7.11111111,15.390383 L6.37037037,16.1203477 L4.88888889,16.1203477 L4.88888889,11.7405596" id="Fill-477" sketch:type="MSShapeGroup"></path>
        </g>
        <g id="Fill-475-+-Fill-476-+-Fill-477" sketch:type="MSLayerGroup" transform="translate(5.000000, 1.000000)" fill="#1B8EBB" opacity="0.2">
            <path d="M4.14814815,0.0611246944 C3.38518519,0.14142081 0.525925926,1.40425971 0.444444444,7.87904645 C0.362962963,14.6969166 3.37037037,16.134947 4.14814815,16.1203477 L4.14814815,11.7405596 C3.51111111,11.7405596 3.32592593,10.9667971 3.17777778,9.55066558 C3.08148148,8.61631079 3.05185185,7.78415105 3.17777778,6.63080685 C3.26666667,5.82784569 3.48148148,4.4409128 4.14814815,4.4409128 L4.14814815,0.0611246944" id="Fill-475" sketch:type="MSShapeGroup"></path>
            <path d="M4.88888889,0.0611246944 L6.37037037,0.0611246944 L7.11111111,0.791089378 L7.11111111,3.71094811 L6.37037037,4.4409128 L4.88888889,4.4409128 L4.88888889,0.0611246944" id="Fill-476" sketch:type="MSShapeGroup"></path>
            <path d="M4.88888889,11.7405596 L6.37037037,11.7405596 L7.11111111,12.4705243 L7.11111111,15.390383 L6.37037037,16.1203477 L4.88888889,16.1203477 L4.88888889,11.7405596" id="Fill-477" sketch:type="MSShapeGroup"></path>
        </g>
        <g id="Fill-475-+-Fill-476-+-Fill-477" sketch:type="MSLayerGroup" transform="translate(4.000000, 0.000000)" fill="#1B8EBB">
            <path d="M4.14814815,0.0611246944 C3.38518519,0.14142081 0.525925926,1.40425971 0.444444444,7.87904645 C0.362962963,14.6969166 3.37037037,16.134947 4.14814815,16.1203477 L4.14814815,11.7405596 C3.51111111,11.7405596 3.32592593,10.9667971 3.17777778,9.55066558 C3.08148148,8.61631079 3.05185185,7.78415105 3.17777778,6.63080685 C3.26666667,5.82784569 3.48148148,4.4409128 4.14814815,4.4409128 L4.14814815,0.0611246944" id="Fill-475" sketch:type="MSShapeGroup"></path>
            <path d="M4.88888889,0.0611246944 L6.37037037,0.0611246944 L7.11111111,0.791089378 L7.11111111,3.71094811 L6.37037037,4.4409128 L4.88888889,4.4409128 L4.88888889,0.0611246944" id="Fill-476" sketch:type="MSShapeGroup"></path>
            <path d="M4.88888889,11.7405596 L6.37037037,11.7405596 L7.11111111,12.4705243 L7.11111111,15.390383 L6.37037037,16.1203477 L4.88888889,16.1203477 L4.88888889,11.7405596" id="Fill-477" sketch:type="MSShapeGroup"></path>
        </g>
    </g>
</svg>