<?xml version="1.0" encoding="UTF-8" standalone="no"?>
<svg width="12px" height="12px" viewBox="0 0 12 12" version="1.1" xmlns="http://www.w3.org/2000/svg" xmlns:xlink="http://www.w3.org/1999/xlink" xmlns:sketch="http://www.bohemiancoding.com/sketch/ns">
    <!-- Generator: Sketch 3.2.2 (9983) - http://www.bohemiancoding.com/sketch -->
    <title>emergency-telephone-white-12</title>
    <desc>Created with Sketch.</desc>
    <defs></defs>
    <g id="Page-1" stroke="none" stroke-width="1" fill="none" fill-rule="evenodd" sketch:type="MSPage">
        <g id="Fill-481-+-Fill-482-+-Fill-483" sketch:type="MSLayerGroup" transform="translate(5.000000, 1.438084)" fill-opacity="0.1" fill="#1B8EBB">
            <path d="M2.25169412,0.52718483 C1.78581176,0.581140438 0.183458824,1.42901428 0.134047059,5.7762947 C0.134047059,10.3548134 1.77875294,11.3260144 2.25169412,11.3183064 L2.25169412,8.23512883 C1.86345882,8.23512883 1.75051765,7.85743958 1.65875294,6.90936246 C1.60228235,6.27731106 1.58816471,5.71463114 1.65875294,4.94383674 C1.71522353,4.40428066 1.84934118,3.61036243 2.25169412,3.61036243 L2.25169412,0.52718483" id="Fill-481" sketch:type="MSShapeGroup"></path>
            <path d="M2.95757647,8.23512883 L3.66345882,8.23512883 L4.36934118,9.00592323 L4.36934118,10.547512 L3.66345882,11.3183064 L2.95757647,11.3183064 L2.95757647,8.23512883" id="Fill-482" sketch:type="MSShapeGroup"></path>
            <path d="M2.95757647,0.52718483 L3.66345882,0.52718483 L4.36934118,1.29797923 L4.36934118,2.83956803 L3.66345882,3.61036243 L2.95757647,3.61036243 L2.95757647,0.52718483" id="Fill-483" sketch:type="MSShapeGroup"></path>
        </g>
        <g id="Fill-481-+-Fill-482-+-Fill-483" sketch:type="MSLayerGroup" transform="translate(4.000000, 0.438084)" fill="#1B8EBB" opacity="0.2">
            <path d="M2.25169412,0.52718483 C1.78581176,0.581140438 0.183458824,1.42901428 0.134047059,5.7762947 C0.134047059,10.3548134 1.77875294,11.3260144 2.25169412,11.3183064 L2.25169412,8.23512883 C1.86345882,8.23512883 1.75051765,7.85743958 1.65875294,6.90936246 C1.60228235,6.27731106 1.58816471,5.71463114 1.65875294,4.94383674 C1.71522353,4.40428066 1.84934118,3.61036243 2.25169412,3.61036243 L2.25169412,0.52718483" id="Fill-481" sketch:type="MSShapeGroup"></path>
            <path d="M2.95757647,8.23512883 L3.66345882,8.23512883 L4.36934118,9.00592323 L4.36934118,10.547512 L3.66345882,11.3183064 L2.95757647,11.3183064 L2.95757647,8.23512883" id="Fill-482" sketch:type="MSShapeGroup"></path>
            <path d="M2.95757647,0.52718483 L3.66345882,0.52718483 L4.36934118,1.29797923 L4.36934118,2.83956803 L3.66345882,3.61036243 L2.95757647,3.61036243 L2.95757647,0.52718483" id="Fill-483" sketch:type="MSShapeGroup"></path>
        </g>
        <g id="Fill-481-+-Fill-482-+-Fill-483" sketch:type="MSLayerGroup" transform="translate(3.000000, -0.561916)" fill="#1B8EBB">
            <path d="M2.25169412,0.52718483 C1.78581176,0.581140438 0.183458824,1.42901428 0.134047059,5.7762947 C0.134047059,10.3548134 1.77875294,11.3260144 2.25169412,11.3183064 L2.25169412,8.23512883 C1.86345882,8.23512883 1.75051765,7.85743958 1.65875294,6.90936246 C1.60228235,6.27731106 1.58816471,5.71463114 1.65875294,4.94383674 C1.71522353,4.40428066 1.84934118,3.61036243 2.25169412,3.61036243 L2.25169412,0.52718483" id="Fill-481" sketch:type="MSShapeGroup"></path>
            <path d="M2.95757647,8.23512883 L3.66345882,8.23512883 L4.36934118,9.00592323 L4.36934118,10.547512 L3.66345882,11.3183064 L2.95757647,11.3183064 L2.95757647,8.23512883" id="Fill-482" sketch:type="MSShapeGroup"></path>
            <path d="M2.95757647,0.52718483 L3.66345882,0.52718483 L4.36934118,1.29797923 L4.36934118,2.83956803 L3.66345882,3.61036243 L2.95757647,3.61036243 L2.95757647,0.52718483" id="Fill-483" sketch:type="MSShapeGroup"></path>
        </g>
    </g>
</svg>