<?xml version="1.0" encoding="UTF-8" standalone="no"?>
<!-- Created with Inkscape (http://www.inkscape.org/) -->

<svg
   xmlns:dc="http://purl.org/dc/elements/1.1/"
   xmlns:cc="http://creativecommons.org/ns#"
   xmlns:rdf="http://www.w3.org/1999/02/22-rdf-syntax-ns#"
   xmlns:svg="http://www.w3.org/2000/svg"
   xmlns="http://www.w3.org/2000/svg"
   version="1.1"
   width="24"
   height="24"
   id="svg4460">
  <defs
     id="defs4462" />
  <metadata
     id="metadata4465">
    <rdf:RDF>
      <cc:Work
         rdf:about="">
        <dc:format>image/svg+xml</dc:format>
        <dc:type
           rdf:resource="http://purl.org/dc/dcmitype/StillImage" />
        <dc:title></dc:title>
      </cc:Work>
    </rdf:RDF>
  </metadata>
  <path
     d="M 7,3 C 6.5,3 5.9917766,3.5336 6,4 l 0,4 2,0 0,-3 9,0 0,13 -9,0 0,-3 -2,0 0,4 c 5.24e-5,0.5233 0.4764155,0.9999 1,1 l 11,0 c 0.523584,-10e-5 0.999948,-0.4767 1,-1 L 19,4 C 18.999948,3.4767 18.523584,3.0001 18,3 L 7,3 z m 3.5,4 C 10.208007,6.9719031 10,7.21875 10,7.5 L 10,10 3.5,10 C 2.6716736,10 2,10.6725 2,11.5 2,12.3275 2.6716736,13.0002 3.5,13 l 6.5,0 0,2.5 c 0.0052,0.3582 0.48479,0.639 0.78125,0.4375 l 5,-4.03125 c 0.263953,-0.1741 0.281053,-0.6189 0.03125,-0.8125 l -5,-3.96875 C 10.699117,7.0469 10.597331,7.0093656 10.5,7 z"
     id="path5585"
     style="opacity:0.3;fill:none;stroke:#ffffff;stroke-width:2;stroke-linecap:round;stroke-linejoin:round;stroke-miterlimit:4;stroke-opacity:1;stroke-dasharray:none" />
  <path
     d="M 7,3 C 6.5,3 5.9917766,3.5336 6,4 l 0,4 2,0 0,-3 9,0 0,13 -9,0 0,-3 -2,0 0,4 c 5.24e-5,0.5233 0.4764155,0.9999 1,1 l 11,0 c 0.523584,-10e-5 0.999948,-0.4767 1,-1 L 19,4 C 18.999948,3.4767 18.523584,3.0001 18,3 L 7,3 z m 3.5,4 C 10.208007,6.9719031 10,7.21875 10,7.5 L 10,10 3.5,10 C 2.6716736,10 2,10.6725 2,11.5 2,12.3275 2.6716736,13.0002 3.5,13 l 6.5,0 0,2.5 c 0.0052,0.3582 0.48479,0.639 0.78125,0.4375 l 5,-4.03125 c 0.263953,-0.1741 0.281053,-0.6189 0.03125,-0.8125 l -5,-3.96875 C 10.699117,7.0469 10.597331,7.0093656 10.5,7 z"
     id="path3826"
     style="fill:#444444;fill-opacity:1;stroke:none" />
  <rect
     width="24"
     height="24"
     x="0"
     y="0"
     id="canvas"
     style="fill:none;stroke:none;visibility:hidden" />
</svg>
