<?xml version="1.0" encoding="UTF-8" standalone="no"?>
<!-- Created with Inkscape (http://www.inkscape.org/) -->

<svg
   xmlns:dc="http://purl.org/dc/elements/1.1/"
   xmlns:cc="http://creativecommons.org/ns#"
   xmlns:rdf="http://www.w3.org/1999/02/22-rdf-syntax-ns#"
   xmlns:svg="http://www.w3.org/2000/svg"
   xmlns="http://www.w3.org/2000/svg"
   xmlns:inkscape="http://www.inkscape.org/namespaces/inkscape"
   version="1.1"
   width="12"
   height="12"
   id="svg4764">
  <defs
     id="defs4766" />
  <metadata
     id="metadata4769">
    <rdf:RDF>
      <cc:Work
         rdf:about="">
        <dc:format>image/svg+xml</dc:format>
        <dc:type
           rdf:resource="http://purl.org/dc/dcmitype/StillImage" />
        <dc:title />
      </cc:Work>
    </rdf:RDF>
  </metadata>
  <g
     transform="translate(0,-1040.3622)"
     id="layer1">
    <path
       d="m 2.8125,1051.3622 c -0.4584025,-0.088 -0.8207234,-0.5334 -0.8125,-1 l 0,-3 -1,0 c -0.5235845,-10e-5 -0.9999476,-0.4764 -1,-1 l 0,-1 c 5.24e-5,-0.5236 0.4764155,-0.9999 1,-1 l 1,0 0,-3 c 5.24e-5,-0.5236 0.4764155,-0.9999 1,-1 l 7,0 c 0.523584,10e-5 0.999948,0.4764 1,1 l 0,9 c -5.2e-5,0.5236 -0.476416,0.9999 -1,1 -2.3886165,0 -4.811906,0 -7.1875,0 z"
       inkscape:connector-curvature="0"
       id="path3025"
       style="font-size:medium;font-style:normal;font-variant:normal;font-weight:normal;font-stretch:normal;text-indent:0;text-align:start;text-decoration:none;line-height:normal;letter-spacing:normal;word-spacing:normal;text-transform:none;direction:ltr;block-progression:tb;writing-mode:lr-tb;text-anchor:start;baseline-shift:baseline;opacity:0.3;color:#000000;fill:#ffffff;fill-opacity:1;stroke:none;stroke-width:2;marker:none;visibility:visible;display:inline;overflow:visible;enable-background:accumulate;font-family:Sans;-inkscape-font-specification:Sans" />
    <path
       d="m 3,1041.3622 0,3 1,0 0,-2 5,0 0,7 -5,0 0,-2 -1,0 0,3 7,0 0,-9 -7,0 z"
       inkscape:connector-curvature="0"
       id="rect3955"
       style="fill:#444444;stroke:none" />
    <path
       d="m 5,1043.3622 0,2 -4,0 0,1 4,0 0,2 1,0 0,-1 1,0 0,-1 1,0 0,-1 -1,0 0,-1 -1,0 0,-1 -1,0 z"
       inkscape:connector-curvature="0"
       id="path3961"
       style="font-size:medium;font-style:normal;font-variant:normal;font-weight:normal;font-stretch:normal;text-indent:0;text-align:start;text-decoration:none;line-height:normal;letter-spacing:normal;word-spacing:normal;text-transform:none;direction:ltr;block-progression:tb;writing-mode:lr-tb;text-anchor:start;baseline-shift:baseline;color:#000000;fill:#444444;fill-opacity:1;fill-rule:nonzero;stroke:none;stroke-width:2.74518514;marker:none;visibility:visible;display:inline;overflow:visible;enable-background:accumulate;font-family:Sans;-inkscape-font-specification:Sans" />
  </g>
  <rect
     width="12"
     height="12"
     x="0"
     y="0"
     id="canvas"
     style="fill:none;stroke:none;visibility:hidden" />
</svg>
