<?xml version="1.0" encoding="UTF-8" standalone="no"?>
<!-- Created with Inkscape (http://www.inkscape.org/) -->

<svg
   xmlns:dc="http://purl.org/dc/elements/1.1/"
   xmlns:cc="http://creativecommons.org/ns#"
   xmlns:rdf="http://www.w3.org/1999/02/22-rdf-syntax-ns#"
   xmlns:svg="http://www.w3.org/2000/svg"
   xmlns="http://www.w3.org/2000/svg"
   xmlns:sodipodi="http://sodipodi.sourceforge.net/DTD/sodipodi-0.dtd"
   xmlns:inkscape="http://www.inkscape.org/namespaces/inkscape"
   width="18"
   height="18"
   id="svg4619"
   version="1.1"
   inkscape:version="0.48.2 r9819"
   sodipodi:docname="entrance-18.svg">
  <defs
     id="defs4621" />
  <sodipodi:namedview
     id="base"
     pagecolor="#ffffff"
     bordercolor="#666666"
     borderopacity="1.0"
     inkscape:pageopacity="0.0"
     inkscape:pageshadow="2"
     inkscape:zoom="11.313708"
     inkscape:cx="5.6874999"
     inkscape:cy="13.987918"
     inkscape:document-units="px"
     inkscape:current-layer="layer1"
     showgrid="true"
     showguides="true"
     inkscape:guide-bbox="true"
     inkscape:window-width="1337"
     inkscape:window-height="947"
     inkscape:window-x="149"
     inkscape:window-y="11"
     inkscape:window-maximized="0"
     inkscape:snap-to-guides="false"
     inkscape:snap-nodes="true"
     inkscape:snap-grids="true">
    <inkscape:grid
       type="xygrid"
       id="grid4627"
       empspacing="2"
       visible="true"
       enabled="true"
       snapvisiblegridlinesonly="true"
       color="#ff00ff"
       opacity="0.1254902"
       empcolor="#ff00ff"
       empopacity="0.25098039" />
    <sodipodi:guide
       orientation="0,1"
       position="7,18"
       id="guide4659" />
    <sodipodi:guide
       orientation="1,0"
       position="18,9"
       id="guide4661" />
    <sodipodi:guide
       orientation="0,1"
       position="16,17"
       id="guide4663" />
    <sodipodi:guide
       orientation="1,0"
       position="17,14"
       id="guide4665" />
    <sodipodi:guide
       orientation="1,0"
       position="0,16"
       id="guide4667" />
    <sodipodi:guide
       orientation="0,1"
       position="8,0"
       id="guide4669" />
    <sodipodi:guide
       orientation="1,0"
       position="2,10"
       id="guide4671" />
    <sodipodi:guide
       orientation="0,1"
       position="12,2"
       id="guide4673" />
    <sodipodi:guide
       orientation="1,0"
       position="3,15"
       id="guide3017" />
    <sodipodi:guide
       orientation="0,1"
       position="9,16"
       id="guide3019" />
    <sodipodi:guide
       orientation="1,0"
       position="16,13.5"
       id="guide3021" />
    <sodipodi:guide
       orientation="0,1"
       position="6.5,3"
       id="guide3023" />
  </sodipodi:namedview>
  <metadata
     id="metadata4624">
    <rdf:RDF>
      <cc:Work
         rdf:about="">
        <dc:format>image/svg+xml</dc:format>
        <dc:type
           rdf:resource="http://purl.org/dc/dcmitype/StillImage" />
        <dc:title />
      </cc:Work>
    </rdf:RDF>
  </metadata>
  <g
     inkscape:label="Layer 1"
     inkscape:groupmode="layer"
     id="layer1"
     transform="translate(0,-1034.3622)">
    <path
       style="font-size:medium;font-style:normal;font-variant:normal;font-weight:normal;font-stretch:normal;text-indent:0;text-align:start;text-decoration:none;line-height:normal;letter-spacing:normal;word-spacing:normal;text-transform:none;direction:ltr;block-progression:tb;writing-mode:lr-tb;text-anchor:start;baseline-shift:baseline;color:#000000;fill:#ffffff;fill-opacity:1;stroke:none;stroke-width:2;marker:none;visibility:visible;display:inline;overflow:visible;enable-background:accumulate;font-family:Sans;-inkscape-font-specification:Sans;opacity:0.3"
       d="M 5.71875,1 C 5.6870106,1.0088636 5.6557097,1.0192973 5.625,1.03125 4.6577909,1.21585 3.9971402,2.0193 4,3 4.000031,3.011 3.9998129,3.02125 4,3.03125 L 4,6 3,6 C 2.4764155,6.0000524 2.0000524,6.4764155 2,7 l 0,3 c 5.24e-5,0.523584 0.4764155,0.999948 1,1 l 1,0 0,3 c 2.134e-4,1.13 0.8700307,1.9998 2,2 l 9,0 c 1.129969,-2e-4 1.999786,-0.87 2,-2 L 17,3 C 16.999786,1.87 16.12997,1.0002 15,1 L 6.09375,1 6,1 C 5.906217,1 5.8123769,0.99 5.71875,1 z m 4,4 L 13,5 13,7.28125 z M 13,9.71875 13,12 9.71875,12 z"
       transform="translate(0,1034.3622)"
       id="path3008"
       inkscape:connector-curvature="0"
       sodipodi:nodetypes="cccccccccccccccccsccccccccc" />
    <path
       style="font-size:medium;font-style:normal;font-variant:normal;font-weight:normal;font-stretch:normal;text-indent:0;text-align:start;text-decoration:none;line-height:normal;letter-spacing:normal;word-spacing:normal;text-transform:none;direction:ltr;block-progression:tb;writing-mode:lr-tb;text-anchor:start;baseline-shift:baseline;color:#000000;fill:#444444;fill-opacity:1;stroke:none;stroke-width:2.00017786;marker:none;visibility:visible;display:inline;overflow:visible;enable-background:accumulate;font-family:Sans;-inkscape-font-specification:Sans"
       d="M 5.8125,2 C 5.3541124,2.0874993 4.9918117,2.5334078 5,3 l 0,3 2,0 0,-2 7,0 0,9 -7,0 0,-2 -2,0 0,3 c 9.89e-5,0.523572 0.4764282,0.999901 1,1 l 9,0 c 0.523572,-9.9e-5 0.999901,-0.476428 1,-1 L 16,3 C 15.999901,2.4764282 15.523572,2.0000989 15,2 L 6,2 c -0.062316,-0.00587 -0.1251837,-0.00587 -0.1875,0 z"
       transform="translate(0,1034.3622)"
       id="rect3795"
       inkscape:connector-curvature="0"
       sodipodi:nodetypes="cccccccccccccccccc" />
    <path
       style="fill:#444444;fill-opacity:1;stroke:#444444;stroke-width:0;stroke-linecap:butt;stroke-linejoin:round;stroke-miterlimit:4;stroke-opacity:1;stroke-dasharray:none"
       d="M 8 5 L 8 7 L 3 7 L 3 10 L 8 10 L 8 12 L 13 8.5 L 8 5 z "
       transform="translate(0,1034.3622)"
       id="rect3045" />
  </g>
</svg>
