<?xml version="1.0" encoding="UTF-8" standalone="no"?>
<!-- Created with Inkscape (http://www.inkscape.org/) -->

<svg
   xmlns:dc="http://purl.org/dc/elements/1.1/"
   xmlns:cc="http://creativecommons.org/ns#"
   xmlns:rdf="http://www.w3.org/1999/02/22-rdf-syntax-ns#"
   xmlns:svg="http://www.w3.org/2000/svg"
   xmlns="http://www.w3.org/2000/svg"
   xmlns:inkscape="http://www.inkscape.org/namespaces/inkscape"
   version="1.1"
   width="18"
   height="18"
   id="svg4619">
  <defs
     id="defs4621" />
  <metadata
     id="metadata4624">
    <rdf:RDF>
      <cc:Work
         rdf:about="">
        <dc:format>image/svg+xml</dc:format>
        <dc:type
           rdf:resource="http://purl.org/dc/dcmitype/StillImage" />
        <dc:title />
      </cc:Work>
    </rdf:RDF>
  </metadata>
  <g
     transform="translate(0,-1034.3622)"
     id="layer1">
    <path
       d="m 4.71875,1035.3622 c -0.031739,0.01 -0.06304,0.019 -0.09375,0.031 -0.9672091,0.1846 -1.6278598,0.988 -1.625,1.9687 3.1e-5,0.011 -1.871e-4,0.021 0,0.031 l 0,2.9687 -1,0 c -0.5235845,10e-5 -0.9999476,0.4764 -1,1 l 0,3 c 5.24e-5,0.5236 0.4764155,0.9999 1,1 l 1,0 0,3 c 2.134e-4,1.13 0.8700307,1.9998 2,2 l 9,0 c 1.129969,-2e-4 1.999786,-0.87 2,-2 l 0,-11 c -2.14e-4,-1.13 -0.87003,-1.9998 -2,-2 l -8.90625,0 -0.09375,0 c -0.093783,0 -0.1876231,-0.01 -0.28125,0 z m 4,4 3.28125,0 0,2.2813 z M 12,1044.081 l 0,2.2812 -3.28125,0 z"
       inkscape:connector-curvature="0"
       id="path3008"
       style="font-size:medium;font-style:normal;font-variant:normal;font-weight:normal;font-stretch:normal;text-indent:0;text-align:start;text-decoration:none;line-height:normal;letter-spacing:normal;word-spacing:normal;text-transform:none;direction:ltr;block-progression:tb;writing-mode:lr-tb;text-anchor:start;baseline-shift:baseline;opacity:0.3;color:#000000;fill:#ffffff;fill-opacity:1;stroke:none;stroke-width:2;marker:none;visibility:visible;display:inline;overflow:visible;enable-background:accumulate;font-family:Sans;-inkscape-font-specification:Sans" />
    <path
       d="m 4.8125,1036.3622 c -0.4583876,0.087 -0.8206883,0.5334 -0.8125,1 l 0,3 2,0 0,-2 7,0 0,9 -7,0 0,-2 -2,0 0,3 c 9.89e-5,0.5236 0.4764282,0.9999 1,1 l 9,0 c 0.523572,-10e-5 0.999901,-0.4764 1,-1 l 0,-11 c -9.9e-5,-0.5236 -0.476428,-0.9999 -1,-1 l -9,0 c -0.062316,-0.01 -0.1251837,-0.01 -0.1875,0 z"
       inkscape:connector-curvature="0"
       id="rect3795"
       style="font-size:medium;font-style:normal;font-variant:normal;font-weight:normal;font-stretch:normal;text-indent:0;text-align:start;text-decoration:none;line-height:normal;letter-spacing:normal;word-spacing:normal;text-transform:none;direction:ltr;block-progression:tb;writing-mode:lr-tb;text-anchor:start;baseline-shift:baseline;color:#000000;fill:#444444;fill-opacity:1;stroke:none;stroke-width:2.00017786;marker:none;visibility:visible;display:inline;overflow:visible;enable-background:accumulate;font-family:Sans;-inkscape-font-specification:Sans" />
    <path
       d="m 7,1039.3622 0,2 -5,0 0,3 5,0 0,2 5,-3.5 -5,-3.5 z"
       inkscape:connector-curvature="0"
       id="rect3045"
       style="fill:#444444;fill-opacity:1;stroke:#444444;stroke-width:0;stroke-linecap:butt;stroke-linejoin:round;stroke-miterlimit:4;stroke-opacity:1;stroke-dasharray:none" />
  </g>
  <rect
     width="18"
     height="18"
     x="0"
     y="0"
     id="canvas"
     style="fill:none;stroke:none;visibility:hidden" />
</svg>
