<?xml version="1.0" encoding="UTF-8" standalone="no"?>
<!-- Created with Inkscape (http://www.inkscape.org/) -->

<svg
   xmlns:dc="http://purl.org/dc/elements/1.1/"
   xmlns:cc="http://creativecommons.org/ns#"
   xmlns:rdf="http://www.w3.org/1999/02/22-rdf-syntax-ns#"
   xmlns:svg="http://www.w3.org/2000/svg"
   xmlns="http://www.w3.org/2000/svg"
   version="1.1"
   width="18"
   height="18"
   id="svg4619">
  <defs
     id="defs4621" />
  <metadata
     id="metadata4624">
    <rdf:RDF>
      <cc:Work
         rdf:about="">
        <dc:format>image/svg+xml</dc:format>
        <dc:type
           rdf:resource="http://purl.org/dc/dcmitype/StillImage" />
        <dc:title></dc:title>
      </cc:Work>
    </rdf:RDF>
  </metadata>
  <path
     d="M 4.8125,2 C 4.3541124,2.087 3.9918117,2.5334 4,3 l 0,3 2,0 0,-2 7,0 0,9 -7,0 0,-2 -2,0 0,3 c 9.89e-5,0.5236 0.4764282,0.9999 1,1 l 9,0 c 0.523572,-10e-5 0.999901,-0.4764 1,-1 L 15,3 C 14.999901,2.4764 14.523572,2.0001 14,2 L 5,2 C 4.937684,1.99 4.8748163,1.99 4.8125,2 z M 7,5 7,7 2,7 2,10 7,10 7,12 12,8.5 7,5 z"
     id="path4987"
     style="font-size:medium;font-style:normal;font-variant:normal;font-weight:normal;font-stretch:normal;text-indent:0;text-align:start;text-decoration:none;line-height:normal;letter-spacing:normal;word-spacing:normal;text-transform:none;direction:ltr;block-progression:tb;writing-mode:lr-tb;text-anchor:start;baseline-shift:baseline;opacity:0.3;color:#000000;fill:none;stroke:#ffffff;stroke-width:2;stroke-linecap:round;stroke-linejoin:round;stroke-miterlimit:4;stroke-opacity:1;stroke-dasharray:none;marker:none;visibility:visible;display:inline;overflow:visible;enable-background:accumulate;font-family:Sans;-inkscape-font-specification:Sans" />
  <path
     d="M 4.8125,2 C 4.3541124,2.087 3.9918117,2.5334 4,3 l 0,3 2,0 0,-2 7,0 0,9 -7,0 0,-2 -2,0 0,3 c 9.89e-5,0.5236 0.4764282,0.9999 1,1 l 9,0 c 0.523572,-10e-5 0.999901,-0.4764 1,-1 L 15,3 C 14.999901,2.4764 14.523572,2.0001 14,2 L 5,2 C 4.937684,1.99 4.8748163,1.99 4.8125,2 z M 7,5 7,7 2,7 2,10 7,10 7,12 12,8.5 7,5 z"
     id="rect3795"
     style="font-size:medium;font-style:normal;font-variant:normal;font-weight:normal;font-stretch:normal;text-indent:0;text-align:start;text-decoration:none;line-height:normal;letter-spacing:normal;word-spacing:normal;text-transform:none;direction:ltr;block-progression:tb;writing-mode:lr-tb;text-anchor:start;baseline-shift:baseline;color:#000000;fill:#444444;fill-opacity:1;stroke:none;stroke-width:2.00017786;marker:none;visibility:visible;display:inline;overflow:visible;enable-background:accumulate;font-family:Sans;-inkscape-font-specification:Sans" />
  <rect
     width="18"
     height="18"
     x="0"
     y="0"
     id="canvas"
     style="fill:none;stroke:none;visibility:hidden" />
</svg>
