<?xml version="1.0" encoding="UTF-8" standalone="no"?>
<!-- Created with Inkscape (http://www.inkscape.org/) -->

<svg
   xmlns:dc="http://purl.org/dc/elements/1.1/"
   xmlns:cc="http://creativecommons.org/ns#"
   xmlns:rdf="http://www.w3.org/1999/02/22-rdf-syntax-ns#"
   xmlns:svg="http://www.w3.org/2000/svg"
   xmlns="http://www.w3.org/2000/svg"
   xmlns:sodipodi="http://sodipodi.sourceforge.net/DTD/sodipodi-0.dtd"
   xmlns:inkscape="http://www.inkscape.org/namespaces/inkscape"
   width="24"
   height="24"
   id="svg4460"
   version="1.1"
   inkscape:version="0.48.2 r9819"
   sodipodi:docname="entrance-24.svg">
  <defs
     id="defs4462" />
  <sodipodi:namedview
     id="base"
     pagecolor="#ffffff"
     bordercolor="#666666"
     borderopacity="1.0"
     inkscape:pageopacity="0.0"
     inkscape:pageshadow="2"
     inkscape:zoom="37.263158"
     inkscape:cx="10.5"
     inkscape:cy="12.5"
     inkscape:document-units="px"
     inkscape:current-layer="layer1"
     showgrid="false"
     showguides="true"
     inkscape:guide-bbox="true"
     inkscape:window-width="1541"
     inkscape:window-height="926"
     inkscape:window-x="6"
     inkscape:window-y="0"
     inkscape:window-maximized="0"
     inkscape:snap-grids="true"
     inkscape:snap-to-guides="true"
     inkscape:snap-nodes="true"
     inkscape:snap-midpoints="true"
     inkscape:object-nodes="false"
     inkscape:snap-bbox="true"
     inkscape:bbox-paths="true"
     inkscape:bbox-nodes="true"
     inkscape:snap-bbox-edge-midpoints="true"
     inkscape:snap-bbox-midpoints="true">
    <inkscape:grid
       type="xygrid"
       id="grid4468"
       empspacing="2"
       visible="true"
       enabled="true"
       snapvisiblegridlinesonly="true"
       empcolor="#ff00ff"
       empopacity="0.25098039"
       color="#ff00ff"
       opacity="0.1254902" />
    <sodipodi:guide
       orientation="1,0"
       position="0,20"
       id="guide4470" />
    <sodipodi:guide
       orientation="0,1"
       position="4,24"
       id="guide4472" />
    <sodipodi:guide
       orientation="1,0"
       position="24,13"
       id="guide4474" />
    <sodipodi:guide
       orientation="0,1"
       position="15,0"
       id="guide4476" />
    <sodipodi:guide
       orientation="1,0"
       position="23,20"
       id="guide4478" />
    <sodipodi:guide
       orientation="0,1"
       position="20,23"
       id="guide4480" />
    <sodipodi:guide
       orientation="1,0"
       position="2,5"
       id="guide4482" />
    <sodipodi:guide
       orientation="0,1"
       position="7,2"
       id="guide4484" />
    <sodipodi:guide
       orientation="1,0"
       position="13,16"
       id="guide4486" />
    <sodipodi:guide
       orientation="0,1"
       position="16,13"
       id="guide4490" />
    <sodipodi:guide
       orientation="1,0"
       position="3,22"
       id="guide3027" />
    <sodipodi:guide
       orientation="0,1"
       position="5.5,22"
       id="guide3029" />
    <sodipodi:guide
       orientation="0,1"
       position="5,3"
       id="guide3031" />
    <sodipodi:guide
       orientation="1,0"
       position="22,14"
       id="guide3033" />
  </sodipodi:namedview>
  <metadata
     id="metadata4465">
    <rdf:RDF>
      <cc:Work
         rdf:about="">
        <dc:format>image/svg+xml</dc:format>
        <dc:type
           rdf:resource="http://purl.org/dc/dcmitype/StillImage" />
        <dc:title />
      </cc:Work>
    </rdf:RDF>
  </metadata>
  <g
     inkscape:label="Layer 1"
     inkscape:groupmode="layer"
     id="layer1"
     transform="translate(0,-1028.3622)">
    <path
       style="font-size:medium;font-style:normal;font-variant:normal;font-weight:normal;font-stretch:normal;text-indent:0;text-align:start;text-decoration:none;line-height:normal;letter-spacing:normal;word-spacing:normal;text-transform:none;direction:ltr;block-progression:tb;writing-mode:lr-tb;text-anchor:start;baseline-shift:baseline;color:#000000;fill:#ffffff;fill-opacity:1;stroke:none;stroke-width:2;marker:none;visibility:visible;display:inline;overflow:visible;enable-background:accumulate;font-family:Sans;-inkscape-font-specification:Sans;opacity:0.3"
       d="M 7,2 C 6.3946667,2 5.9322146,2.2811 5.59375,2.625 5.2552854,2.9689 4.9893687,3.397 5,4 l 0,4 c 5.24e-5,0.5236 0.4764155,0.9999 1,1 L 3.5,9 C 2.1272827,9 1,10.1314 1,11.5 1,12.8686 2.133269,14.0003 3.5,14 L 6,14 c -0.5235845,10e-5 -0.9999476,0.4764 -1,1 l 0,4 c 1.132e-4,1.1301 0.8704528,1.9998 2,2 l 11,0 c 1.129547,-2e-4 1.999888,-0.8699 2,-2 L 20,4 C 19.999888,2.8699 19.129547,2.0002 18,2 z m 9,4 0,3.96875 C 14.458929,8.7444991 12.900706,7.5121513 11.375,6.28125 10.921337,5.96885 10.5,6 10.53125,5.984375 12.5,6 11.444789,6 16,6 z M 16,13.03125 16,17 10.53125,17 c -2.8109185,-1.516563 -1.7955052,-0.523689 0,0 0.272865,0.0084 0.546628,-0.0694 0.8125,-0.25 0.02173,-0.02 0.04259,-0.0405 0.0625,-0.0625 z"
       transform="translate(0,1028.3622)"
       id="path3793"
       inkscape:connector-curvature="0"
       sodipodi:nodetypes="sscccsscccccccccscccccccccccc" />
    <path
       style="fill:#444444;fill-opacity:1;stroke:none"
       d="m 10,1035.8622 0,2.5 -6.5,0 c -0.8283264,0 -1.5,0.6764 -1.5,1.5039 0,0.8275 0.6716736,1.4963 1.5,1.4961 l 6.4990267,0 9.733e-4,2.5 c 0.0052,0.3582 0.483722,0.6359 0.780182,0.4344 l 5.011109,-4.019 c 0.263953,-0.1741 0.281053,-0.6181 0.03125,-0.8117 l -5.011109,-3.9725 C 10.357902,1035.181 10,1035.4872 10,1035.8622 z"
       id="path3826"
       inkscape:connector-curvature="0"
       sodipodi:nodetypes="ccsssccccccc" />
    <path
       style="font-size:medium;font-style:normal;font-variant:normal;font-weight:normal;font-stretch:normal;text-indent:0;text-align:start;text-decoration:none;line-height:normal;letter-spacing:normal;word-spacing:normal;text-transform:none;direction:ltr;block-progression:tb;writing-mode:lr-tb;text-anchor:start;baseline-shift:baseline;color:#000000;fill:#444444;fill-opacity:1;stroke:none;stroke-width:2;marker:none;visibility:visible;display:inline;overflow:visible;enable-background:accumulate;font-family:Sans;-inkscape-font-specification:Sans"
       d="m 7,1031.3622 c -0.5,0 -1.0082234,0.533 -1,0.9994 l 0,4.0006 2,0 0,-3 9,0 0,13 -9,0 0,-3 -2,0 0,4.0006 c 5.24e-5,0.5233 0.4764155,0.9993 1,0.9994 l 11,0 c 0.523584,-10e-5 0.999948,-0.4761 1,-0.9994 l 0,-15.0012 c -5.2e-5,-0.5233 -0.476416,-0.9993 -1,-0.9994 -3.721257,0 -7.29509,0 -11,0 z"
       id="rect3795"
       inkscape:connector-curvature="0"
       sodipodi:nodetypes="ccccccccccccccccc" />
  </g>
</svg>
