<?xml version="1.0" encoding="UTF-8" standalone="no"?>
<!-- Created with Inkscape (http://www.inkscape.org/) -->

<svg
   xmlns:dc="http://purl.org/dc/elements/1.1/"
   xmlns:cc="http://creativecommons.org/ns#"
   xmlns:rdf="http://www.w3.org/1999/02/22-rdf-syntax-ns#"
   xmlns:svg="http://www.w3.org/2000/svg"
   xmlns="http://www.w3.org/2000/svg"
   xmlns:sodipodi="http://sodipodi.sourceforge.net/DTD/sodipodi-0.dtd"
   xmlns:inkscape="http://www.inkscape.org/namespaces/inkscape"
   width="24"
   height="24"
   id="svg4460"
   version="1.1"
   inkscape:version="0.48.4 r9939"
   sodipodi:docname="entrance-24.svg">
  <defs
     id="defs4462" />
  <sodipodi:namedview
     id="base"
     pagecolor="#ffffff"
     bordercolor="#666666"
     borderopacity="1.0"
     inkscape:pageopacity="0.0"
     inkscape:pageshadow="2"
     inkscape:zoom="22.627417"
     inkscape:cx="13.726279"
     inkscape:cy="11.838826"
     inkscape:document-units="px"
     inkscape:current-layer="layer1"
     showgrid="true"
     showguides="true"
     inkscape:guide-bbox="true"
     inkscape:window-width="1920"
     inkscape:window-height="1053"
     inkscape:window-x="0"
     inkscape:window-y="27"
     inkscape:window-maximized="1"
     inkscape:snap-grids="true"
     inkscape:snap-to-guides="true"
     inkscape:snap-nodes="true"
     inkscape:snap-midpoints="true"
     inkscape:object-nodes="false"
     inkscape:snap-bbox="true"
     inkscape:bbox-paths="true"
     inkscape:bbox-nodes="true"
     inkscape:snap-bbox-edge-midpoints="true"
     inkscape:snap-bbox-midpoints="true">
    <inkscape:grid
       type="xygrid"
       id="grid4468"
       empspacing="2"
       visible="true"
       enabled="true"
       snapvisiblegridlinesonly="true"
       empcolor="#ff00ff"
       empopacity="0.25098039"
       color="#ff00ff"
       opacity="0.1254902" />
    <sodipodi:guide
       orientation="1,0"
       position="0,20"
       id="guide4470" />
    <sodipodi:guide
       orientation="0,1"
       position="4,24"
       id="guide4472" />
    <sodipodi:guide
       orientation="1,0"
       position="24,13"
       id="guide4474" />
    <sodipodi:guide
       orientation="0,1"
       position="15,0"
       id="guide4476" />
    <sodipodi:guide
       orientation="1,0"
       position="23,20"
       id="guide4478" />
    <sodipodi:guide
       orientation="0,1"
       position="20,23"
       id="guide4480" />
    <sodipodi:guide
       orientation="1,0"
       position="2,5"
       id="guide4482" />
    <sodipodi:guide
       orientation="0,1"
       position="7,2"
       id="guide4484" />
    <sodipodi:guide
       orientation="1,0"
       position="13,16"
       id="guide4486" />
    <sodipodi:guide
       orientation="0,1"
       position="16,13"
       id="guide4490" />
    <sodipodi:guide
       orientation="1,0"
       position="3,22"
       id="guide3027" />
    <sodipodi:guide
       orientation="0,1"
       position="5.5,22"
       id="guide3029" />
    <sodipodi:guide
       orientation="0,1"
       position="5,3"
       id="guide3031" />
    <sodipodi:guide
       orientation="1,0"
       position="22,14"
       id="guide3033" />
  </sodipodi:namedview>
  <metadata
     id="metadata4465">
    <rdf:RDF>
      <cc:Work
         rdf:about="">
        <dc:format>image/svg+xml</dc:format>
        <dc:type
           rdf:resource="http://purl.org/dc/dcmitype/StillImage" />
        <dc:title />
      </cc:Work>
    </rdf:RDF>
  </metadata>
  <g
     inkscape:label="Layer 1"
     inkscape:groupmode="layer"
     id="layer1"
     transform="translate(0,-1028.3622)">
    <path
       id="path9452"
       d="M 7 3 C 6.5 3 5.9917766 3.5336 6 4 L 6 8 L 8 8 L 8 5 L 17 5 L 17 18 L 8 18 L 8 15 L 6 15 L 6 19 C 6.0000524 19.5233 6.4764155 19.9999 7 20 L 18 20 C 18.523584 19.9999 18.999948 19.5233 19 19 L 19 4 C 18.999948 3.4767 18.523584 3.0001 18 3 L 7 3 z M 10.5 7 C 10.208007 6.9719031 10 7.21875 10 7.5 L 10 10 L 3.5 10 C 2.6716736 10 2 10.6725 2 11.5 C 2 12.3275 2.6716736 13.0002 3.5 13 L 10 13 L 10 15.5 C 10.0052 15.8582 10.48479 16.139 10.78125 15.9375 L 15.78125 11.90625 C 16.045203 11.73215 16.062303 11.28735 15.8125 11.09375 L 10.8125 7.125 C 10.699117 7.0469 10.597331 7.0093656 10.5 7 z "
       style="fill:#444444;fill-opacity:1;stroke:#ffffff;stroke-width:2;stroke-miterlimit:4;stroke-dasharray:none;stroke-linejoin:round;stroke-linecap:round;opacity:0.3"
       transform="translate(0,1028.3622)" />
    <path
       style="fill:#444444;fill-opacity:1;stroke:none"
       d="M 7 3 C 6.5 3 5.9917766 3.5336 6 4 L 6 8 L 8 8 L 8 5 L 17 5 L 17 18 L 8 18 L 8 15 L 6 15 L 6 19 C 6.0000524 19.5233 6.4764155 19.9999 7 20 L 18 20 C 18.523584 19.9999 18.999948 19.5233 19 19 L 19 4 C 18.999948 3.4767 18.523584 3.0001 18 3 L 7 3 z M 10.5 7 C 10.208007 6.9719031 10 7.21875 10 7.5 L 10 10 L 3.5 10 C 2.6716736 10 2 10.6725 2 11.5 C 2 12.3275 2.6716736 13.0002 3.5 13 L 10 13 L 10 15.5 C 10.0052 15.8582 10.48479 16.139 10.78125 15.9375 L 15.78125 11.90625 C 16.045203 11.73215 16.062303 11.28735 15.8125 11.09375 L 10.8125 7.125 C 10.699117 7.0469 10.597331 7.0093656 10.5 7 z "
       id="path3826"
       transform="translate(0,1028.3622)" />
  </g>
</svg>
