<?xml version="1.0" encoding="UTF-8" standalone="no"?>
<!-- Created with Inkscape (http://www.inkscape.org/) -->

<svg
   xmlns:dc="http://purl.org/dc/elements/1.1/"
   xmlns:cc="http://creativecommons.org/ns#"
   xmlns:rdf="http://www.w3.org/1999/02/22-rdf-syntax-ns#"
   xmlns:svg="http://www.w3.org/2000/svg"
   xmlns="http://www.w3.org/2000/svg"
   xmlns:inkscape="http://www.inkscape.org/namespaces/inkscape"
   version="1.1"
   width="12"
   height="12"
   id="svg4764">
  <defs
     id="defs4766" />
  <metadata
     id="metadata4769">
    <rdf:RDF>
      <cc:Work
         rdf:about="">
        <dc:format>image/svg+xml</dc:format>
        <dc:type
           rdf:resource="http://purl.org/dc/dcmitype/StillImage" />
        <dc:title />
      </cc:Work>
    </rdf:RDF>
  </metadata>
  <g
     transform="translate(0,-1040.3622)"
     id="layer1">
    <g
       transform="translate(-360,-81.999983)"
       id="fast-food-12"
       style="display:inline">
      <g
         id="g21578">
        <path
           d="m 365.5,1125.3622 c -1.42105,0 -3.1488,0.8723 -3.05264,2.0526 l 0,1.1974 8.05264,0 0,-1.1974 c 0,-1.1842 -1.57895,-2.0526 -3,-2.0526 z m -3.5,4 0,1 9,0 0,-1 z m 0.49996,1.75 c 0,0.4737 0.52632,1.25 1,1.25 l 6,0 c 0.47368,0 1,-0.7763 1,-1.25 z"
           inkscape:connector-curvature="0"
           id="path5504"
           style="opacity:0.3;color:#000000;fill:none;stroke:#ffffff;stroke-width:2;stroke-linecap:round;stroke-linejoin:round;stroke-miterlimit:4;stroke-opacity:1;stroke-dasharray:none;stroke-dashoffset:0;marker:none;visibility:visible;display:inline;overflow:visible;enable-background:accumulate" />
        <path
           d="m 365.5,1125.3622 c -1.42105,0 -3.1488,0.8723 -3.05264,2.0526 l 0,1.1974 8.05264,0 0,-1.1974 c 0,-1.1842 -1.57895,-2.0526 -3,-2.0526 z m -3.5,4 0,1 9,0 0,-1 z m 0.49996,1.75 c 0,0.4737 0.52632,1.25 1,1.25 l 6,0 c 0.47368,0 1,-0.7763 1,-1.25 z"
           inkscape:connector-curvature="0"
           id="rect13326-2-5-2-3-1"
           style="color:#000000;fill:#444444;fill-opacity:1;stroke:none;stroke-width:2;marker:none;visibility:visible;display:inline;overflow:visible;enable-background:accumulate" />
      </g>
    </g>
  </g>
  <rect
     width="12"
     height="12"
     x="0"
     y="0"
     id="canvas"
     style="fill:none;stroke:none;visibility:hidden" />
</svg>
