<?xml version="1.0" encoding="UTF-8" standalone="no"?>
<!-- Created with Inkscape (http://www.inkscape.org/) -->

<svg
   xmlns:dc="http://purl.org/dc/elements/1.1/"
   xmlns:cc="http://creativecommons.org/ns#"
   xmlns:rdf="http://www.w3.org/1999/02/22-rdf-syntax-ns#"
   xmlns:svg="http://www.w3.org/2000/svg"
   xmlns="http://www.w3.org/2000/svg"
   xmlns:inkscape="http://www.inkscape.org/namespaces/inkscape"
   version="1.1"
   width="18"
   height="18"
   id="svg4619">
  <defs
     id="defs4621" />
  <metadata
     id="metadata4624">
    <rdf:RDF>
      <cc:Work
         rdf:about="">
        <dc:format>image/svg+xml</dc:format>
        <dc:type
           rdf:resource="http://purl.org/dc/dcmitype/StillImage" />
        <dc:title />
      </cc:Work>
    </rdf:RDF>
  </metadata>
  <g
     transform="translate(0,-1034.3622)"
     id="layer1">
    <g
       transform="translate(-341.99999,-87.999983)"
       id="fast-food-18"
       style="display:inline">
      <g
         transform="translate(-1,-1)"
         id="g21574">
        <path
           d="m 350.5,1127.3622 c -2.05263,0 -3.5,0.7895 -3.5,2.5 l 0,1.5 11,0 0,-1.5 c 0,-1.7105 -1.44737,-2.5 -3.5,-2.5 l -4,0 z m 0,1.125 c 0.20711,0 0.375,0.1679 0.375,0.375 0,0.2071 -0.16789,0.375 -0.375,0.375 -0.20711,0 -0.375,-0.1679 -0.375,-0.375 0,-0.2071 0.16789,-0.375 0.375,-0.375 z m 4,0 c 0.20711,0 0.375,0.1679 0.375,0.375 0,0.2071 -0.16789,0.375 -0.375,0.375 -0.20711,0 -0.375,-0.1679 -0.375,-0.375 0,-0.2071 0.16789,-0.375 0.375,-0.375 z m -6,1 c 0.20711,0 0.375,0.1679 0.375,0.375 0,0.2071 -0.16789,0.375 -0.375,0.375 -0.20711,0 -0.375,-0.1679 -0.375,-0.375 0,-0.2071 0.16789,-0.375 0.375,-0.375 z m 4,0 c 0.20711,0 0.375,0.1679 0.375,0.375 0,0.2071 -0.16789,0.375 -0.375,0.375 -0.20711,0 -0.375,-0.1679 -0.375,-0.375 0,-0.2071 0.16789,-0.375 0.375,-0.375 z m 4,0 c 0.20711,0 0.375,0.1679 0.375,0.375 0,0.2071 -0.16789,0.375 -0.375,0.375 -0.20711,0 -0.375,-0.1679 -0.375,-0.375 0,-0.2071 0.16789,-0.375 0.375,-0.375 z m -9.5,2.875 c -0.34213,0 -0.50001,0.1579 -0.5,0.5 10e-6,0.3422 0.15787,0.5 0.5,0.5 l 11,0 c 0.34211,0 0.49999,-0.1578 0.5,-0.5 10e-6,-0.3421 -0.15789,-0.5 -0.5,-0.5 l -11,0 z m 0,2 0,0.625 c 0,0.6842 0.69079,1.375 1.375,1.375 l 8.25,0 c 0.68421,0 1.375,-0.6908 1.375,-1.375 l 0,-0.625 -11,0 z"
           inkscape:connector-curvature="0"
           id="path15098"
           style="opacity:0.3;color:#000000;fill:none;stroke:#ffffff;stroke-width:2;stroke-linecap:round;stroke-linejoin:round;stroke-miterlimit:4;stroke-opacity:1;stroke-dasharray:none;stroke-dashoffset:0;marker:none;visibility:visible;display:inline;overflow:visible;enable-background:accumulate" />
        <path
           d="m 350.5,1127.3622 c -2.05263,0 -3.5,0.7895 -3.5,2.5 l 0,1.5 11,0 0,-1.5 c 0,-1.7105 -1.44737,-2.5 -3.5,-2.5 l -4,0 z m 0,1.125 c 0.20711,0 0.375,0.1679 0.375,0.375 0,0.2071 -0.16789,0.375 -0.375,0.375 -0.20711,0 -0.375,-0.1679 -0.375,-0.375 0,-0.2071 0.16789,-0.375 0.375,-0.375 z m 4,0 c 0.20711,0 0.375,0.1679 0.375,0.375 0,0.2071 -0.16789,0.375 -0.375,0.375 -0.20711,0 -0.375,-0.1679 -0.375,-0.375 0,-0.2071 0.16789,-0.375 0.375,-0.375 z m -6,1 c 0.20711,0 0.375,0.1679 0.375,0.375 0,0.2071 -0.16789,0.375 -0.375,0.375 -0.20711,0 -0.375,-0.1679 -0.375,-0.375 0,-0.2071 0.16789,-0.375 0.375,-0.375 z m 4,0 c 0.20711,0 0.375,0.1679 0.375,0.375 0,0.2071 -0.16789,0.375 -0.375,0.375 -0.20711,0 -0.375,-0.1679 -0.375,-0.375 0,-0.2071 0.16789,-0.375 0.375,-0.375 z m 4,0 c 0.20711,0 0.375,0.1679 0.375,0.375 0,0.2071 -0.16789,0.375 -0.375,0.375 -0.20711,0 -0.375,-0.1679 -0.375,-0.375 0,-0.2071 0.16789,-0.375 0.375,-0.375 z m -9.5,2.875 c -0.34213,0 -0.50001,0.1579 -0.5,0.5 10e-6,0.3422 0.15787,0.5 0.5,0.5 l 11,0 c 0.34211,0 0.49999,-0.1578 0.5,-0.5 10e-6,-0.3421 -0.15789,-0.5 -0.5,-0.5 l -11,0 z m 0,2 0,0.625 c 0,0.6842 0.69079,1.375 1.375,1.375 l 8.25,0 c 0.68421,0 1.375,-0.6908 1.375,-1.375 l 0,-0.625 -11,0 z"
           inkscape:connector-curvature="0"
           id="rect13326-2-5-2-3-6"
           style="color:#000000;fill:#444444;fill-opacity:1;stroke:none;stroke-width:2;marker:none;visibility:visible;display:inline;overflow:visible;enable-background:accumulate" />
      </g>
    </g>
  </g>
  <rect
     width="18"
     height="18"
     x="0"
     y="0"
     id="canvas"
     style="fill:none;stroke:none;visibility:hidden" />
</svg>
