<?xml version="1.0" encoding="UTF-8" standalone="no"?>
<!-- Created with Inkscape (http://www.inkscape.org/) -->

<svg
   xmlns:dc="http://purl.org/dc/elements/1.1/"
   xmlns:cc="http://creativecommons.org/ns#"
   xmlns:rdf="http://www.w3.org/1999/02/22-rdf-syntax-ns#"
   xmlns:svg="http://www.w3.org/2000/svg"
   xmlns="http://www.w3.org/2000/svg"
   xmlns:inkscape="http://www.inkscape.org/namespaces/inkscape"
   version="1.1"
   width="24"
   height="24"
   id="svg4460">
  <defs
     id="defs4462" />
  <metadata
     id="metadata4465">
    <rdf:RDF>
      <cc:Work
         rdf:about="">
        <dc:format>image/svg+xml</dc:format>
        <dc:type
           rdf:resource="http://purl.org/dc/dcmitype/StillImage" />
        <dc:title />
      </cc:Work>
    </rdf:RDF>
  </metadata>
  <g
     transform="translate(0,-1028.3622)"
     id="layer1">
    <g
       transform="translate(-84,-310)"
       id="ferry-24"
       style="display:inline">
      <g
         transform="translate(0,-2.6171874e-6)"
         id="g30990"
         style="display:inline">
        <path
           d="m 214,289 c -0.554,0 -1,0.446 -1,1 l -2,0 c -0.554,0 -1,0.446 -1,1 l 0,6.0625 -2,0.9375 2,4 0,2 c 1.5,0 2.5,1.0005 3.5,1 1,5e-4 1.5,-1 3,-1 1.5,0 2,0.9995 3,1 1,5e-4 2,-1 3.5,-1 l 0,-2 2,-4 -2,-0.9375 0,-6.0625 c 0,-0.554 -0.446,-1 -1,-1 l -2,0 c 0,-0.554 -0.446,-1 -1,-1 l -5,0 z m -2,3 9,0 0,4.125 -4.5,-2.125 -4.5,2.125 0,-4.125 z m -2,14 c -0.69406,0 -1.33976,0.4049 -2,0.625 l 0,2.03125 c 0,0 1,-0.65575 2,-0.65625 1,-5e-4 2,1 3.5,1 1.5,0 1.97352,-0.9653 3,-1 1,5e-4 1.5,1 3,1 1.5,0 2.5,-1 3.5,-1 0.70165,0 2,0.65625 2,0.65625 l 0,-2.03125 c -0.6416,-0.2468 -1.34343,-0.625 -2,-0.625 -1.5,0 -2.5,1.0005 -3.5,1 -1,-5e-4 -1.5,-1 -3,-1 -1.5,0 -2,1.0005 -3,1 -1,5e-4 -2,-1 -3.5,-1 z"
           inkscape:connector-curvature="0"
           transform="translate(-120,1050.3622)"
           id="path4644"
           style="opacity:0.3;color:#000000;fill:#ffffff;fill-opacity:1;fill-rule:nonzero;stroke:#ffffff;stroke-width:2;stroke-linecap:butt;stroke-linejoin:round;stroke-miterlimit:4;stroke-opacity:1;stroke-dasharray:none;stroke-dashoffset:0;marker:none;visibility:visible;display:inline;overflow:visible;enable-background:accumulate" />
        <path
           d="m 214,289 c -0.554,0 -1,0.446 -1,1 l -2,0 c -0.554,0 -1,0.446 -1,1 l 0,6.0625 -2,0.9375 2,4 0,2 c 1.5,0 2.5,1.0005 3.5,1 1,5e-4 1.5,-1 3,-1 1.5,0 2,0.9995 3,1 1,5e-4 2,-1 3.5,-1 l 0,-2 2,-4 -2,-0.9375 0,-6.0625 c 0,-0.554 -0.446,-1 -1,-1 l -2,0 c 0,-0.554 -0.446,-1 -1,-1 l -5,0 z m -2,3 9,0 0,4.125 -4.5,-2.125 -4.5,2.125 0,-4.125 z m -2,14 c -0.69406,0 -1.33976,0.4049 -2,0.625 l 0,2.03125 c 0,0 1,-0.65575 2,-0.65625 1,-5e-4 2,1 3.5,1 1.5,0 1.97352,-0.9653 3,-1 1,5e-4 1.5,1 3,1 1.5,0 2.5,-1 3.5,-1 0.70165,0 2,0.65625 2,0.65625 l 0,-2.03125 c -0.6416,-0.2468 -1.34343,-0.625 -2,-0.625 -1.5,0 -2.5,1.0005 -3.5,1 -1,-5e-4 -1.5,-1 -3,-1 -1.5,0 -2,1.0005 -3,1 -1,5e-4 -2,-1 -3.5,-1 z"
           inkscape:connector-curvature="0"
           transform="translate(-120,1050.3622)"
           id="path8421-9-1-0-1"
           style="color:#000000;fill:#444444;fill-opacity:1;fill-rule:nonzero;stroke:none;stroke-width:2;marker:none;visibility:visible;display:inline;overflow:visible;enable-background:accumulate" />
      </g>
    </g>
  </g>
  <rect
     width="24"
     height="24"
     x="0"
     y="0"
     id="canvas"
     style="fill:none;stroke:none;visibility:hidden" />
</svg>
