<?xml version="1.0" encoding="UTF-8" standalone="no"?>
<!-- Created with Inkscape (http://www.inkscape.org/) -->

<svg
   xmlns:dc="http://purl.org/dc/elements/1.1/"
   xmlns:cc="http://creativecommons.org/ns#"
   xmlns:rdf="http://www.w3.org/1999/02/22-rdf-syntax-ns#"
   xmlns:svg="http://www.w3.org/2000/svg"
   xmlns="http://www.w3.org/2000/svg"
   xmlns:inkscape="http://www.inkscape.org/namespaces/inkscape"
   version="1.1"
   width="18"
   height="18"
   id="svg4619">
  <defs
     id="defs4621" />
  <metadata
     id="metadata4624">
    <rdf:RDF>
      <cc:Work
         rdf:about="">
        <dc:format>image/svg+xml</dc:format>
        <dc:type
           rdf:resource="http://purl.org/dc/dcmitype/StillImage" />
        <dc:title />
      </cc:Work>
    </rdf:RDF>
  </metadata>
  <g
     transform="translate(0,-1034.3622)"
     id="layer1">
    <g
       transform="translate(-108,-304)"
       id="ferry-18"
       style="display:inline">
      <path
         d="m 116,1339.3622 c -0.5,0 -1,0.5 -1,1 l -1.17646,0 c -0.45624,0 -0.85294,0.5438 -0.85294,1 l 0.0294,3.5 -2,1 2,3.5 0,1.5 2.5,1 2,-1 2,1 2.5,-1 0,-1.5 2,-3.5 -2,-1 0,-3.5 c 0,-0.4562 -0.36729,-1 -0.82353,-1 l -1.17647,0 c 0,-0.5 -0.5,-1 -1,-1 z m -2,2 7,0 0,3.0441 -3.5,-2.0441 -3.5,2.0441 z m -1,11 -2,1 0,1.5 2,-1 2.5,1 2,-1 2,1 2.5,-0.8534 2,0.8534 0,-1.5 -2,-1 -2.5,1 -2,-1 -2,1 z"
         inkscape:connector-curvature="0"
         id="path7245"
         style="opacity:0.3;color:#000000;fill:#ffffff;fill-opacity:1;fill-rule:nonzero;stroke:#ffffff;stroke-width:2;stroke-linecap:butt;stroke-linejoin:round;stroke-miterlimit:4;stroke-opacity:1;stroke-dasharray:none;stroke-dashoffset:0;marker:none;visibility:visible;display:inline;overflow:visible;enable-background:accumulate" />
      <path
         d="m 116,1339.3622 c -0.5,0 -1,0.5 -1,1 l -1.17646,0 c -0.45624,0 -0.85294,0.5438 -0.85294,1 l 0.0294,3.5 -2,1 2,3.5 0,1.5 2.5,1 2,-1 2,1 2.5,-1 0,-1.5 2,-3.5 -2,-1 0,-3.5 c 0,-0.4562 -0.36729,-1 -0.82353,-1 l -1.17647,0 c 0,-0.5 -0.5,-1 -1,-1 z m -2,2 7,0 0,3.0441 -3.5,-2.0441 -3.5,2.0441 z m -1,11 -2,1 0,1.5 2,-1 2.5,1 2,-1 2,1 2.5,-0.8534 2,0.8534 0,-1.5 -2,-1 -2.5,1 -2,-1 -2,1 z"
         inkscape:connector-curvature="0"
         id="path30964"
         style="color:#000000;fill:#444444;fill-opacity:1;fill-rule:nonzero;stroke:none;stroke-width:2;marker:none;visibility:visible;display:inline;overflow:visible;enable-background:accumulate" />
    </g>
  </g>
  <rect
     width="18"
     height="18"
     x="0"
     y="0"
     id="canvas"
     style="fill:none;stroke:none;visibility:hidden" />
</svg>
