<?xml version="1.0" encoding="UTF-8" standalone="no"?>
<!-- Created with Inkscape (http://www.inkscape.org/) -->

<svg
   xmlns:dc="http://purl.org/dc/elements/1.1/"
   xmlns:cc="http://creativecommons.org/ns#"
   xmlns:rdf="http://www.w3.org/1999/02/22-rdf-syntax-ns#"
   xmlns:svg="http://www.w3.org/2000/svg"
   xmlns="http://www.w3.org/2000/svg"
   version="1.1"
   width="24"
   height="24"
   id="svg4460">
  <defs
     id="defs4462" />
  <metadata
     id="metadata4465">
    <rdf:RDF>
      <cc:Work
         rdf:about="">
        <dc:format>image/svg+xml</dc:format>
        <dc:type
           rdf:resource="http://purl.org/dc/dcmitype/StillImage" />
        <dc:title></dc:title>
      </cc:Work>
    </rdf:RDF>
  </metadata>
  <path
     d="M 12.5,3 9,8 7,5 c -0.66279,1.165233 -3,4 -3,7 0,4.418278 4.08172,8 8.5,8 4.41828,0 8.5,-3.581722 8.5,-8 0,-3 -2.33721,-5.834767 -3,-7 l -2,3 z m 0,8 c 0,0 3.5,2.684593 3.5,5 0,1 -1.5,2 -3.5,2 -2,0 -3.5,-1 -3.5,-2 0,-2.236068 3.5,-5 3.5,-5 z"
     id="path6495"
     style="opacity:0.3;color:#000000;fill:#ffffff;fill-opacity:1;fill-rule:nonzero;stroke:#ffffff;stroke-width:2;stroke-linecap:round;stroke-linejoin:round;stroke-miterlimit:4;stroke-opacity:1;stroke-dasharray:none;stroke-dashoffset:0;marker:none;visibility:visible;display:inline;overflow:visible;enable-background:accumulate" />
  <path
     d="M 12.5,3 9,8 7,5 c -0.66279,1.165233 -3,4 -3,7 0,4.418278 4.08172,8 8.5,8 4.41828,0 8.5,-3.581722 8.5,-8 0,-3 -2.33721,-5.834767 -3,-7 l -2,3 z m 0,8 c 0,0 3.5,2.684593 3.5,5 0,1 -1.5,2 -3.5,2 -2,0 -3.5,-1 -3.5,-2 0,-2.236068 3.5,-5 3.5,-5 z"
     id="path10041-3"
     style="color:#000000;fill:#444444;fill-opacity:1;fill-rule:nonzero;stroke:none;stroke-width:2;marker:none;visibility:visible;display:inline;overflow:visible;enable-background:accumulate" />
  <rect
     width="24"
     height="24"
     x="0"
     y="0"
     id="canvas"
     style="fill:none;stroke:none;visibility:hidden" />
</svg>
