<?xml version="1.0" encoding="UTF-8" standalone="no"?>
<!-- Created with Inkscape (http://www.inkscape.org/) -->

<svg
   xmlns:dc="http://purl.org/dc/elements/1.1/"
   xmlns:cc="http://creativecommons.org/ns#"
   xmlns:rdf="http://www.w3.org/1999/02/22-rdf-syntax-ns#"
   xmlns:svg="http://www.w3.org/2000/svg"
   xmlns="http://www.w3.org/2000/svg"
   version="1.1"
   width="12"
   height="12"
   id="svg4764">
  <defs
     id="defs4766" />
  <metadata
     id="metadata4769">
    <rdf:RDF>
      <cc:Work
         rdf:about="">
        <dc:format>image/svg+xml</dc:format>
        <dc:type
           rdf:resource="http://purl.org/dc/dcmitype/StillImage" />
        <dc:title></dc:title>
      </cc:Work>
    </rdf:RDF>
  </metadata>
  <path
     d="M 6.5,1 5,4 3.5,2.5 C 3.16861,3.0826 2,4.5 2,6 2,8.2092 4.29086,10 6.5,10 8.70914,10 11,8.2092 11,6 11,4.5 9.83139,3.0826 9.5,2.5 L 8,4 z m 0,4.5 C 6.5,5.5 8,6.8423 8,8 8,8.5 7.5,9 6.5,9 5.5,9 5,8.5 5,8 5,6.882 6.5,5.5 6.5,5.5 z"
     id="path6252"
     style="opacity:0.3;color:#000000;fill:#ffffff;fill-opacity:1;fill-rule:nonzero;stroke:#ffffff;stroke-width:2;stroke-linecap:round;stroke-linejoin:round;stroke-miterlimit:4;stroke-opacity:1;stroke-dasharray:none;stroke-dashoffset:0;marker:none;visibility:visible;display:inline;overflow:visible;enable-background:accumulate" />
  <path
     d="M 6.5,1 5,4 3.5,2.5 C 3.16861,3.0826 2,4.5 2,6 2,8.2092 4.29086,10 6.5,10 8.70914,10 11,8.2092 11,6 11,4.5 9.83139,3.0826 9.5,2.5 L 8,4 z m 0,4.5 C 6.5,5.5 8,6.8423 8,8 8,8.5 7.5,9 6.5,9 5.5,9 5,8.5 5,8 5,6.882 6.5,5.5 6.5,5.5 z"
     id="path10041-3-2"
     style="color:#000000;fill:#444444;fill-opacity:1;fill-rule:nonzero;stroke:none;stroke-width:2;marker:none;visibility:visible;display:inline;overflow:visible;enable-background:accumulate" />
  <rect
     width="12"
     height="12"
     x="0"
     y="0"
     id="canvas"
     style="fill:none;stroke:none;visibility:hidden" />
</svg>
