<?xml version="1.0" encoding="UTF-8" standalone="no"?>
<!-- Created with Inkscape (http://www.inkscape.org/) -->

<svg
   xmlns:dc="http://purl.org/dc/elements/1.1/"
   xmlns:cc="http://creativecommons.org/ns#"
   xmlns:rdf="http://www.w3.org/1999/02/22-rdf-syntax-ns#"
   xmlns:svg="http://www.w3.org/2000/svg"
   xmlns="http://www.w3.org/2000/svg"
   version="1.1"
   width="18"
   height="18"
   id="svg4619">
  <defs
     id="defs4621" />
  <metadata
     id="metadata4624">
    <rdf:RDF>
      <cc:Work
         rdf:about="">
        <dc:format>image/svg+xml</dc:format>
        <dc:type
           rdf:resource="http://purl.org/dc/dcmitype/StillImage" />
        <dc:title></dc:title>
      </cc:Work>
    </rdf:RDF>
  </metadata>
  <path
     d="M 9.5,2 7,6 5.5,4 C 4.96148,4.9467 3,7.0625 3,9.5 3,13.0899 5.91015,16 9.5,16 13.08985,16 16,13.0899 16,9.5 16,7.0625 14.03852,4.9467 13.5,4 L 12,6 z m 0,6.5 c 0,0 2.5,2.3687 2.5,4.25 0,0.8125 -0.875,1.75 -2.5,1.75 C 7.875,14.5 7,13.5625 7,12.75 7,10.9332 9.5,8.5 9.5,8.5 z"
     id="path6378"
     style="opacity:0.3;color:#000000;fill:#ffffff;fill-opacity:1;fill-rule:nonzero;stroke:#ffffff;stroke-width:2;stroke-linecap:round;stroke-linejoin:round;stroke-miterlimit:4;stroke-opacity:1;stroke-dasharray:none;stroke-dashoffset:0;marker:none;visibility:visible;display:inline;overflow:visible;enable-background:accumulate" />
  <path
     d="M 9.5,2 7,6 5.5,4 C 4.96148,4.9467 3,7.0625 3,9.5 3,13.0899 5.91015,16 9.5,16 13.08985,16 16,13.0899 16,9.5 16,7.0625 14.03852,4.9467 13.5,4 L 12,6 z m 0,6.5 c 0,0 2.5,2.3687 2.5,4.25 0,0.8125 -0.875,1.75 -2.5,1.75 C 7.875,14.5 7,13.5625 7,12.75 7,10.9332 9.5,8.5 9.5,8.5 z"
     id="path10041-3-3"
     style="color:#000000;fill:#444444;fill-opacity:1;fill-rule:nonzero;stroke:none;stroke-width:2;marker:none;visibility:visible;display:inline;overflow:visible;enable-background:accumulate" />
  <rect
     width="18"
     height="18"
     x="0"
     y="0"
     id="canvas"
     style="fill:none;stroke:none;visibility:hidden" />
</svg>
