<?xml version="1.0" encoding="UTF-8" standalone="no"?>
<svg width="18px" height="18px" viewBox="0 0 18 18" version="1.1" xmlns="http://www.w3.org/2000/svg" xmlns:xlink="http://www.w3.org/1999/xlink" xmlns:sketch="http://www.bohemiancoding.com/sketch/ns">
    <!-- Generator: Sketch 3.2.2 (9983) - http://www.bohemiancoding.com/sketch -->
    <title>first-aid-white-18</title>
    <desc>Created with Sketch.</desc>
    <defs></defs>
    <g id="Page-1" stroke="none" stroke-width="1" fill="none" fill-rule="evenodd" sketch:type="MSPage">
        <path d="M18.2962963,7.10975278 L13.1111111,7.10975278 L13.1111111,2 L7.18518519,2 L7.18518519,7.10975278 L2,7.10975278 L2,12.9494703 L7.18518519,12.9494703 L7.18518519,18.059223 L13.1111111,18.059223 L13.1111111,12.9494703 L18.2962963,12.9494703 L18.2962963,7.10975278" id="Fill-177" opacity="0.5" fill="#0A0B09" sketch:type="MSShapeGroup"></path>
        <path d="M17.2962963,6.10975278 L12.1111111,6.10975278 L12.1111111,1 L6.18518519,1 L6.18518519,6.10975278 L1,6.10975278 L1,11.9494703 L6.18518519,11.9494703 L6.18518519,17.059223 L12.1111111,17.059223 L12.1111111,11.9494703 L17.2962963,11.9494703 L17.2962963,6.10975278" id="Fill-177" opacity="0.75" fill="#0A0B09" sketch:type="MSShapeGroup"></path>
        <path d="M16.2962963,5.10975278 L11.1111111,5.10975278 L11.1111111,0 L5.18518519,0 L5.18518519,5.10975278 L0,5.10975278 L0,10.9494703 L5.18518519,10.9494703 L5.18518519,16.059223 L11.1111111,16.059223 L11.1111111,10.9494703 L16.2962963,10.9494703 L16.2962963,5.10975278" id="Fill-177" fill="#FFFFFF" sketch:type="MSShapeGroup"></path>
    </g>
</svg>