<?xml version="1.0" encoding="UTF-8" standalone="no"?>
<!-- Created with Inkscape (http://www.inkscape.org/) -->

<svg
   xmlns:dc="http://purl.org/dc/elements/1.1/"
   xmlns:cc="http://creativecommons.org/ns#"
   xmlns:rdf="http://www.w3.org/1999/02/22-rdf-syntax-ns#"
   xmlns:svg="http://www.w3.org/2000/svg"
   xmlns="http://www.w3.org/2000/svg"
   xmlns:sodipodi="http://sodipodi.sourceforge.net/DTD/sodipodi-0.dtd"
   xmlns:inkscape="http://www.inkscape.org/namespaces/inkscape"
   width="12"
   height="12"
   id="svg27498"
   version="1.1"
   inkscape:version="0.48.2 r9819"
   sodipodi:docname="boat-launch-white-12.svg">
  <defs
     id="defs27500" />
  <sodipodi:namedview
     id="base"
     pagecolor="#ffffff"
     bordercolor="#666666"
     borderopacity="1.0"
     inkscape:pageopacity="0.0"
     inkscape:pageshadow="2"
     inkscape:zoom="10.676107"
     inkscape:cx="9.6789942"
     inkscape:cy="5.7946291"
     inkscape:document-units="px"
     inkscape:current-layer="layer1"
     showgrid="false"
     inkscape:window-width="483"
     inkscape:window-height="454"
     inkscape:window-x="3716"
     inkscape:window-y="644"
     inkscape:window-maximized="0" />
  <metadata
     id="metadata27503">
    <rdf:RDF>
      <cc:Work
         rdf:about="">
        <dc:format>image/svg+xml</dc:format>
        <dc:type
           rdf:resource="http://purl.org/dc/dcmitype/StillImage" />
        <dc:title></dc:title>
      </cc:Work>
    </rdf:RDF>
  </metadata>
  <g
     inkscape:label="Layer 1"
     inkscape:groupmode="layer"
     id="layer1"
     transform="translate(0,-1040.3622)">
    <g
       id="g14658"
       transform="matrix(1.2142062,0,0,1.2142062,-25.69548,763.73369)">
      <path
         style="opacity:0;fill:#272525"
         inkscape:connector-curvature="0"
         id="path14660"
         d="m 29.861,237.715 c 0.652,0 1.18,-0.529 1.18,-1.182 v -7.521 c 0,-0.652 -0.527,-1.182 -1.18,-1.182 H 22.34 c -0.652,0 -1.182,0.529 -1.182,1.182 v 7.521 c 0,0.652 0.529,1.182 1.182,1.182 h 7.521 z" />
      <polygon
         points="29.07,233.78 29.07,231.752 27.043,231.752 27.045,229.729 25.02,229.729 25.021,231.752 22.994,231.752 22.994,233.78 25.021,233.78 25.02,235.803 27.045,235.803 27.043,233.78 "
         id="polygon14662"
         style="opacity:0.6;fill:#272525;stroke:#ffffff;stroke-width:0.5;stroke-miterlimit:4;stroke-opacity:1;stroke-dasharray:none" />
      <polygon
         style="fill:#272525"
         id="polygon14664"
         points="29.07,233.78 29.07,231.752 27.043,231.752 27.045,229.729 25.02,229.729 25.021,231.752 22.994,231.752 22.994,233.78 25.021,233.78 25.02,235.803 27.045,235.803 27.043,233.78 " />
    </g>
  </g>
</svg>
