<?xml version="1.0" encoding="UTF-8" standalone="no"?>
<svg width="12px" height="12px" viewBox="0 0 12 12" version="1.1" xmlns="http://www.w3.org/2000/svg" xmlns:xlink="http://www.w3.org/1999/xlink" xmlns:sketch="http://www.bohemiancoding.com/sketch/ns">
    <!-- Generator: Sketch 3.2.2 (9983) - http://www.bohemiancoding.com/sketch -->
    <title>first-aid-black-12</title>
    <desc>Created with Sketch.</desc>
    <defs></defs>
    <g id="Page-1" stroke="none" stroke-width="1" fill="none" fill-rule="evenodd" sketch:type="MSPage">
        <path d="M11.8823529,5.55096419 L8.35294118,5.55096419 L8.35294118,2 L5.52941176,2 L5.52941176,5.55096419 L2,5.55096419 L2,8.39173554 L5.52941176,8.39173554 L5.52941176,11.9426997 L8.35294118,11.9426997 L8.35294118,8.39173554 L11.8823529,8.39173554 L11.8823529,5.55096419" id="Fill-178" fill-opacity="0.1" fill="#0A0B09" sketch:type="MSShapeGroup"></path>
        <path d="M10.8823529,4.55096419 L7.35294118,4.55096419 L7.35294118,1 L4.52941176,1 L4.52941176,4.55096419 L1,4.55096419 L1,7.39173554 L4.52941176,7.39173554 L4.52941176,10.9426997 L7.35294118,10.9426997 L7.35294118,7.39173554 L10.8823529,7.39173554 L10.8823529,4.55096419" id="Fill-178" opacity="0.2" fill="#0A0B09" sketch:type="MSShapeGroup"></path>
        <path d="M9.88235294,3.55096419 L6.35294118,3.55096419 L6.35294118,0 L3.52941176,0 L3.52941176,3.55096419 L0,3.55096419 L0,6.39173554 L3.52941176,6.39173554 L3.52941176,9.94269972 L6.35294118,9.94269972 L6.35294118,6.39173554 L9.88235294,6.39173554 L9.88235294,3.55096419" id="Fill-178" fill="#0A0B09" sketch:type="MSShapeGroup"></path>
    </g>
</svg>