<?xml version="1.0" encoding="utf-8"?>
<!-- Generator: Adobe Illustrator 18.1.1, SVG Export Plug-In . SVG Version: 6.00 Build 0)  -->
<svg version="1.1" xmlns="http://www.w3.org/2000/svg" xmlns:xlink="http://www.w3.org/1999/xlink" x="0px" y="0px"
	 viewBox="0 0 12 12" enable-background="new 0 0 12 12" xml:space="preserve">
<g id="shadows">
	<g opacity="0.2">
		<path d="M5.1,7.1L5.1,7.1l0,0.2L7,7.6v0.6H5.1v0.1l0,0c1.7,1.4,3.9,1.8,6.4,1.8V5.7C7.4,5.7,5.1,7.1,5.1,7.1z M8.3,7.6H7.6V7h0.6
			V7.6z"/>
		<polygon points="11.5,1.8 11.5,2.5 8.9,2.5 7,3.7 3.8,7 3.1,7 2.5,6.3 2.5,5.7 2.5,4.4 3.1,4.4 3.8,4.4 3.8,5.7 3.1,5 3.1,6.3 
			3.8,6.3 7,3.1 8.9,1.8 		"/>
	</g>
</g>
<g id="icons">
	<g>
		<path d="M4.6,6.6L4.6,6.6l0,0.2l1.9,0.3v0.6H4.6v0.1l0,0C6.3,9.3,8.5,9.7,11,9.7V5.2C6.9,5.2,4.6,6.6,4.6,6.6z M7.8,7.1H7.1V6.5
			h0.6V7.1z"/>
		<polygon points="11,1.3 11,2 8.4,2 6.5,3.2 3.3,6.5 2.6,6.5 2,5.8 2,5.2 2,3.9 2.6,3.9 3.3,3.9 3.3,5.2 2.6,4.5 2.6,5.8 3.3,5.8 
			6.5,2.6 8.4,1.3 		"/>
	</g>
</g>
<g id="guides">
</g>
</svg>
