<?xml version="1.0" encoding="utf-8"?>
<!-- Generator: Adobe Illustrator 18.0.0, SVG Export Plug-In . SVG Version: 6.00 Build 0)  -->
<!DOCTYPE svg PUBLIC "-//W3C//DTD SVG 1.1//EN" "http://www.w3.org/Graphics/SVG/1.1/DTD/svg11.dtd" [
	<!ENTITY ns_flows "http://ns.adobe.com/Flows/1.0/">
	<!ENTITY ns_extend "http://ns.adobe.com/Extensibility/1.0/">
	<!ENTITY ns_ai "http://ns.adobe.com/AdobeIllustrator/10.0/">
	<!ENTITY ns_graphs "http://ns.adobe.com/Graphs/1.0/">
	<!ENTITY st0 "opacity:0.5;">
	<!ENTITY st1 "fill:#010101;">
	<!ENTITY st2 "opacity:0.75;">
	<!ENTITY st3 "fill:#FFFFFF;">
]>
<svg version="1.1" id="Layer_1" xmlns:x="&ns_extend;" xmlns:i="&ns_ai;" xmlns:graph="&ns_graphs;"
	 xmlns="http://www.w3.org/2000/svg" xmlns:xlink="http://www.w3.org/1999/xlink" xmlns:a="http://ns.adobe.com/AdobeSVGViewerExtensions/3.0/"
	 x="0px" y="0px" width="24px" height="22px" viewBox="0 0 24 22" style="enable-background:new 0 0 24 22;" xml:space="preserve">
<g style="&st0;">
	<path style="&st1;" d="M8.1,14.6L8,14.8L8.1,15l3.9,1c0.2,0.1,0.2,1,0,1H8.1L8,17.1l0,0.1c4.3,3.4,9.2,4.8,15,4.8V10
		C13,10,8.1,14.6,8.1,14.6z M15,15h-1v-1h1V15z"/>
	<path style="&st1;" d="M21,2c-3.3,0-5.7,1.5-9.3,4.5c-0.1,0-0.4-0.1-0.4-0.1c-0.6,0-1,0.5-1,1c0,0,0,0.2,0.1,0.3
		c-0.1,0.1-2.9,2.7-2.9,2.7L5,13c-0.2,0.2-0.7,0-1,0c-0.3,0-0.6,0-0.8-0.3c-0.2-0.2-0.3-0.5-0.3-0.8c0-0.3,0.1-0.6,0.4-0.9
		c0,0,0.2-0.1,0.3-0.2c0,0.2,0.1,0.9,0.1,0.9L6,9L3.5,9.9c-0.6,0.2-0.8,0.5-0.8,0.5c-0.8,0.7-0.9,1.8-0.1,2.9C4,13.9,3.4,13.8,5,14
		l1-1l1.8-1.8c0,0,2.9-2.8,3-2.8c0.1,0,0.4,0.1,0.4,0.1c0.6,0,1-0.5,1-1c0,0,0-0.2,0-0.3C15.7,4.3,17.9,3,21,3c0.6,0,3,0,3,0V2H21z"
		/>
</g>
<g style="&st2;">
	<path style="&st1;" d="M7.1,13.6L7,13.8L7.1,14l3.9,1c0.2,0.1,0.2,1,0,1H7.1L7,16.1l0,0.1c4.3,3.4,9.2,4.8,15,4.8V9
		C12,9,7.1,13.6,7.1,13.6z M14,14h-1v-1h1V14z"/>
	<path style="&st1;" d="M20,1c-3.3,0-5.7,1.5-9.3,4.5c-0.1,0-0.4-0.1-0.4-0.1c-0.6,0-1,0.5-1,1c0,0,0,0.2,0.1,0.3
		C9.1,6.8,6.3,9.5,6.3,9.5L4,12c-0.2,0.2-0.7,0-1,0c-0.3,0-0.6,0-0.8-0.3c-0.2-0.2-0.3-0.5-0.3-0.8c0-0.3,0.1-0.6,0.4-0.9
		c0,0,0.2-0.1,0.3-0.2c0,0.2,0.1,0.9,0.1,0.9L5,8L2.5,8.9C1.9,9.1,1.7,9.4,1.6,9.4c-0.8,0.7-0.9,1.8-0.1,2.9C3,12.9,2.4,12.8,4,13
		l1-1l1.8-1.8c0,0,2.9-2.8,3-2.8c0.1,0,0.4,0.1,0.4,0.1c0.6,0,1-0.5,1-1c0,0,0-0.2,0-0.3C14.7,3.3,16.9,2,20,2c0.6,0,3,0,3,0V1H20z"
		/>
</g>
<g>
	<path style="&st3;" d="M6.1,12.6L6,12.8L6.1,13l3.9,1c0.2,0.1,0.2,1,0,1H6.1L6,15.1l0,0.1c4.3,3.4,9.2,4.8,15,4.8V8
		C11,8,6.1,12.6,6.1,12.6z M13,13h-1v-1h1V13z"/>
	<path style="&st3;" d="M19,0c-3.3,0-5.7,1.5-9.3,4.5c-0.1,0-0.4-0.1-0.4-0.1c-0.6,0-1,0.5-1,1c0,0,0,0.2,0.1,0.3
		C8.1,5.8,5.3,8.5,5.3,8.5L3,11c-0.2,0.2-0.7,0-1,0c-0.3,0-0.6,0-0.8-0.3C1,10.5,0.9,10.2,0.9,9.9c0-0.3,0.1-0.6,0.4-0.9
		c0,0,0.2-0.1,0.3-0.2c0,0.2,0.1,0.9,0.1,0.9L4,7L1.5,7.9C0.9,8.1,0.7,8.4,0.6,8.4c-0.8,0.7-0.9,1.8-0.1,2.9C2,11.9,1.4,11.8,3,12
		l1-1l1.8-1.8c0,0,2.9-2.8,3-2.8c0.1,0,0.4,0.1,0.4,0.1c0.6,0,1-0.5,1-1c0,0,0-0.2,0-0.3C13.7,2.3,15.9,1,19,1c0.6,0,3,0,3,0V0H19z"
		/>
</g>
</svg>
