<?xml version="1.0" encoding="utf-8"?>
<!-- Generator: Adobe Illustrator 18.1.1, SVG Export Plug-In . SVG Version: 6.00 Build 0)  -->
<svg version="1.1" xmlns="http://www.w3.org/2000/svg" xmlns:xlink="http://www.w3.org/1999/xlink" x="0px" y="0px"
	 viewBox="0 0 24 24" enable-background="new 0 0 24 24" xml:space="preserve">
<g id="shadows">
	<g opacity="0.2">
		<path d="M9.7,14.5l-0.1,0.1l0.1,0.2l3,0.8c0.1,0.1,0.2,0.8,0,0.8h-3l-0.1,0.1l0,0.1c3.3,2.7,7.1,3.7,11.6,3.7V11
			C13.5,11,9.7,14.5,9.7,14.5z M15,14.8h-0.8V14H15V14.8z"/>
		<path d="M19.7,4.8c-2.6,0-4.4,1.2-7.2,3.5c-0.1,0-0.3-0.1-0.3-0.1c-0.4,0-0.8,0.4-0.8,0.8c0,0,0,0.1,0,0.2
			c-0.1,0.1-2.3,2.1-2.3,2.1l-1.8,2c-0.2,0.2-0.5,0-0.8,0c-0.2,0-0.5,0-0.6-0.2c-0.2-0.2-0.2-0.4-0.2-0.6c0-0.2,0.1-0.5,0.3-0.7
			c0,0,0.1-0.1,0.3-0.1c0,0.2,0.1,0.7,0.1,0.7l1.8-2.1l-1.9,0.7c-0.5,0.2-0.6,0.4-0.7,0.4c-0.6,0.6-0.7,1.4-0.1,2.2
			c1.1,0.4,0.7,0.4,1.9,0.5l0.8-0.8l1.4-1.4c0,0,2.3-2.1,2.3-2.2c0.1,0,0.3,0.1,0.3,0.1c0.4,0,0.8-0.4,0.8-0.8c0,0,0-0.1,0-0.2
			c2.7-2.2,4.4-3.2,6.8-3.2c0.5,0,2.3,0,2.3,0V4.8H19.7z"/>
	</g>
</g>
<g id="icons">
	<g>
		<path fill="#FFFFFF" d="M8.7,13.5l-0.1,0.1l0.1,0.2l3,0.8c0.1,0.1,0.2,0.8,0,0.8h-3l-0.1,0.1l0,0.1c3.3,2.7,7.1,3.7,11.6,3.7V10
			C12.5,10,8.7,13.5,8.7,13.5z M14,13.8h-0.8V13H14V13.8z"/>
		<path fill="#FFFFFF" d="M18.7,3.8c-2.6,0-4.4,1.2-7.2,3.5c-0.1,0-0.3-0.1-0.3-0.1c-0.4,0-0.8,0.4-0.8,0.8c0,0,0,0.1,0,0.2
			c-0.1,0.1-2.3,2.1-2.3,2.1l-1.8,2c-0.2,0.2-0.5,0-0.8,0c-0.2,0-0.5,0-0.6-0.2c-0.2-0.2-0.2-0.4-0.2-0.6c0-0.2,0.1-0.5,0.3-0.7
			c0,0,0.1-0.1,0.3-0.1c0,0.2,0.1,0.7,0.1,0.7l1.8-2.1L5.2,9.9c-0.5,0.2-0.6,0.4-0.7,0.4c-0.6,0.6-0.7,1.4-0.1,2.2
			c1.1,0.4,0.7,0.4,1.9,0.5l0.8-0.8l1.4-1.4c0,0,2.3-2.1,2.3-2.2c0.1,0,0.3,0.1,0.3,0.1c0.4,0,0.8-0.4,0.8-0.8c0,0,0-0.1,0-0.2
			c2.7-2.2,4.4-3.2,6.8-3.2c0.5,0,2.3,0,2.3,0V3.8H18.7z"/>
	</g>
</g>
<g id="guides">
</g>
</svg>
