<?xml version="1.0" encoding="UTF-8" standalone="no"?>
<!-- Created with Inkscape (http://www.inkscape.org/) -->

<svg
   xmlns:dc="http://purl.org/dc/elements/1.1/"
   xmlns:cc="http://creativecommons.org/ns#"
   xmlns:rdf="http://www.w3.org/1999/02/22-rdf-syntax-ns#"
   xmlns:svg="http://www.w3.org/2000/svg"
   xmlns="http://www.w3.org/2000/svg"
   xmlns:sodipodi="http://sodipodi.sourceforge.net/DTD/sodipodi-0.dtd"
   xmlns:inkscape="http://www.inkscape.org/namespaces/inkscape"
   width="18"
   height="18"
   id="svg27435"
   version="1.1"
   inkscape:version="0.48.2 r9819"
   sodipodi:docname="drinking-water-black-18.svg">
  <defs
     id="defs27437" />
  <sodipodi:namedview
     id="base"
     pagecolor="#ffffff"
     bordercolor="#666666"
     borderopacity="1.0"
     inkscape:pageopacity="0.0"
     inkscape:pageshadow="2"
     inkscape:zoom="7.9891803"
     inkscape:cx="12.590799"
     inkscape:cy="8.9588378"
     inkscape:document-units="px"
     inkscape:current-layer="layer1"
     showgrid="false"
     inkscape:window-width="497"
     inkscape:window-height="512"
     inkscape:window-x="3353"
     inkscape:window-y="102"
     inkscape:window-maximized="0" />
  <metadata
     id="metadata27440">
    <rdf:RDF>
      <cc:Work
         rdf:about="">
        <dc:format>image/svg+xml</dc:format>
        <dc:type
           rdf:resource="http://purl.org/dc/dcmitype/StillImage" />
        <dc:title></dc:title>
      </cc:Work>
    </rdf:RDF>
  </metadata>
  <g
     inkscape:label="Layer 1"
     inkscape:groupmode="layer"
     id="layer1"
     transform="translate(0,-1034.3622)">
    <g
       transform="matrix(1.8209408,0,0,1.8209408,-38.517098,596.35912)"
       id="g14295">
      <path
         d="m 29.862,250.414 c 0.652,0 1.182,-0.528 1.182,-1.181 v -7.521 c 0,-0.652 -0.529,-1.181 -1.182,-1.181 h -7.521 c -0.652,0 -1.182,0.529 -1.182,1.181 v 7.521 c 0,0.652 0.529,1.181 1.182,1.181 h 7.521 z"
         id="path14297"
         inkscape:connector-curvature="0"
         style="opacity:0;fill:#272525" />
      <g
         style="opacity:0.6;stroke:#ffffff;stroke-width:0.5;stroke-miterlimit:4;stroke-opacity:1;stroke-dasharray:none"
         id="g14299">
        <path
           d="m 26.854,246.713 c 0.178,0 0.32,-0.144 0.32,-0.321 0,-0.177 -0.143,-0.321 -0.32,-0.321 -0.177,0 -0.322,0.144 -0.322,0.321 0,0.177 0.145,0.321 0.322,0.321 z m 3.184,2.316 c -1.904,0.028 -3.895,-0.335 -5.418,-1.56 l 0,0 c -0.01,-0.009 -0.014,-0.021 -0.014,-0.035 0,-0.028 0.023,-0.051 0.051,-0.051 l 1.502,0.002 c 0.072,0 0.133,-0.06 0.133,-0.133 0,-0.055 -0.025,-0.093 -0.084,-0.122 l -1.357,-0.648 c -0.025,-0.016 -0.043,-0.044 -0.043,-0.076 0,-0.024 0.01,-0.046 0.025,-0.063 l 0,0 c 0,0 1.654,-1.462 5.205,-1.43 v 4.116 z"
           id="path14301"
           inkscape:connector-curvature="0"
           style="fill:#272525;stroke:#ffffff;stroke-width:0.5;stroke-miterlimit:4;stroke-opacity:1;stroke-dasharray:none" />
        <path
           d="m 29.313,241.74 c -1.177,0.013 -2.328,0.515 -3.619,1.574 -0.048,-0.013 -0.154,-0.042 -0.154,-0.042 -0.205,0 -0.372,0.166 -0.372,0.371 0,0 0.015,0.069 0.023,0.112 -0.04,0.037 -1.043,0.979 -1.043,0.979 l -0.887,0.836 c -0.083,0.076 -0.191,0.114 -0.304,0.109 -0.112,-0.005 -0.215,-0.054 -0.29,-0.137 -0.073,-0.081 -0.108,-0.182 -0.108,-0.283 0,-0.114 0.046,-0.228 0.136,-0.311 0,0 0.067,-0.037 0.118,-0.066 0.011,0.076 0.042,0.308 0.042,0.308 l 0.724,-0.922 -0.798,0.272 c -0.21,0.072 -0.297,0.178 -0.3,0.183 -0.292,0.265 -0.315,0.729 -0.045,1.028 0.272,0.3 0.736,0.321 1.036,0.05 l 0.008,-0.01 0.841,-0.801 c 0,0 1.039,-0.982 1.072,-1.015 0.05,0.013 0.148,0.038 0.148,0.038 0.204,0 0.37,-0.167 0.37,-0.372 0,0 -0.01,-0.054 -0.017,-0.093 1.249,-1.027 2.341,-1.515 3.435,-1.527 0.225,-0.002 0.405,0.027 0.7,0.09 l 0.061,0.013 v -0.292 l -0.04,-0.008 c -0.306,-0.064 -0.506,-0.087 -0.737,-0.084 z"
           id="path14303"
           inkscape:connector-curvature="0"
           style="fill:#272525;stroke:#ffffff;stroke-width:0.5;stroke-miterlimit:4;stroke-opacity:1;stroke-dasharray:none" />
      </g>
      <g
         id="g14305">
        <path
           style="fill:#272525"
           inkscape:connector-curvature="0"
           id="path14307"
           d="m 26.854,246.713 c 0.178,0 0.32,-0.144 0.32,-0.321 0,-0.177 -0.143,-0.321 -0.32,-0.321 -0.177,0 -0.322,0.144 -0.322,0.321 0,0.177 0.145,0.321 0.322,0.321 z m 3.184,2.316 c -1.904,0.028 -3.895,-0.335 -5.418,-1.56 l 0,0 c -0.01,-0.009 -0.014,-0.021 -0.014,-0.035 0,-0.028 0.023,-0.051 0.051,-0.051 l 1.502,0.002 c 0.072,0 0.133,-0.06 0.133,-0.133 0,-0.055 -0.025,-0.093 -0.084,-0.122 l -1.357,-0.648 c -0.025,-0.016 -0.043,-0.044 -0.043,-0.076 0,-0.024 0.01,-0.046 0.025,-0.063 l 0,0 c 0,0 1.654,-1.462 5.205,-1.43 v 4.116 z" />
        <path
           style="fill:#272525"
           inkscape:connector-curvature="0"
           id="path14309"
           d="m 29.313,241.74 c -1.177,0.013 -2.328,0.515 -3.619,1.574 -0.048,-0.013 -0.154,-0.042 -0.154,-0.042 -0.205,0 -0.372,0.166 -0.372,0.371 0,0 0.015,0.069 0.023,0.112 -0.04,0.037 -1.043,0.979 -1.043,0.979 l -0.887,0.836 c -0.083,0.076 -0.191,0.114 -0.304,0.109 -0.112,-0.005 -0.215,-0.054 -0.29,-0.137 -0.073,-0.081 -0.108,-0.182 -0.108,-0.283 0,-0.114 0.046,-0.228 0.136,-0.311 0,0 0.067,-0.037 0.118,-0.066 0.011,0.076 0.042,0.308 0.042,0.308 l 0.724,-0.922 -0.798,0.272 c -0.21,0.072 -0.297,0.178 -0.3,0.183 -0.292,0.265 -0.315,0.729 -0.045,1.028 0.272,0.3 0.736,0.321 1.036,0.05 l 0.008,-0.01 0.841,-0.801 c 0,0 1.039,-0.982 1.072,-1.015 0.05,0.013 0.148,0.038 0.148,0.038 0.204,0 0.37,-0.167 0.37,-0.372 0,0 -0.01,-0.054 -0.017,-0.093 1.249,-1.027 2.341,-1.515 3.435,-1.527 0.225,-0.002 0.405,0.027 0.7,0.09 l 0.061,0.013 v -0.292 l -0.04,-0.008 c -0.306,-0.064 -0.506,-0.087 -0.737,-0.084 z" />
      </g>
    </g>
  </g>
</svg>
