<?xml version="1.0" encoding="utf-8"?>
<!-- Generator: Adobe Illustrator 18.1.1, SVG Export Plug-In . SVG Version: 6.00 Build 0)  -->
<svg version="1.1" xmlns="http://www.w3.org/2000/svg" xmlns:xlink="http://www.w3.org/1999/xlink" x="0px" y="0px"
	 viewBox="0 0 18 18" enable-background="new 0 0 18 18" xml:space="preserve">
<g id="shadows">
	<g opacity="0.2">
		<path d="M7.5,10.8l0,0.1l0.1,0.1l2.7,0.5v0.9H7.5v0.2l0,0.1c2.5,2,5.6,2.6,9.3,2.6V8.8C10.8,8.8,7.5,10.8,7.5,10.8z M12.1,11.6
			h-0.9v-0.9h0.9V11.6z"/>
		<polygon points="16.7,3.2 16.7,4.1 13,4.1 10.2,6 5.6,10.6 4.7,10.6 3.8,9.7 3.8,8.8 3.8,6.9 4.7,6.9 5.6,6.9 5.6,8.8 4.7,7.9 
			4.7,9.7 5.6,9.7 10.2,5.1 13,3.2 		"/>
	</g>
</g>
<g id="icons">
	<g>
		<path d="M6.8,10.1l0,0.1l0.1,0.1l2.7,0.5v0.9H6.7v0.2l0,0.1c2.5,2,5.6,2.6,9.3,2.6V8C10,8,6.8,10.1,6.8,10.1z M11.4,10.8h-0.9V9.9
			h0.9V10.8z"/>
		<polygon points="16,2.5 16,3.4 12.3,3.4 9.5,5.2 4.9,9.9 3.9,9.9 3,9 3,8 3,6.2 3.9,6.2 4.9,6.2 4.9,8 3.9,7.1 3.9,9 4.9,9 
			9.5,4.3 12.3,2.5 		"/>
	</g>
</g>
<g id="guides">
</g>
</svg>
