<?xml version="1.0" encoding="UTF-8" standalone="no"?>
<svg width="18px" height="18px" viewBox="0 0 18 18" version="1.1" xmlns="http://www.w3.org/2000/svg" xmlns:xlink="http://www.w3.org/1999/xlink" xmlns:sketch="http://www.bohemiancoding.com/sketch/ns">
    <!-- Generator: Sketch 3.2.2 (9983) - http://www.bohemiancoding.com/sketch -->
    <title>fishing-white-18</title>
    <desc>Created with Sketch.</desc>
    <defs></defs>
    <g id="Page-1" stroke="none" stroke-width="1" fill="none" fill-rule="evenodd" sketch:type="MSPage">
        <path d="M10.8903308,10.7595762 L11.6310716,10.7595762 L11.6310716,11.4895409 L10.8903308,11.4895409 L10.8903308,10.7595762 Z M6.49773825,11.2048547 L6.4458864,11.3362483 L6.53477529,11.4895409 L9.40884936,12.2195056 C9.53477529,12.2779027 9.55699751,12.9494703 9.40884936,12.9494703 L6.5495901,12.9494703 L6.4458864,13.058965 L6.47551603,13.1246618 C9.63847899,15.6357403 13.2977382,16.5992937 17.5569975,16.5992937 L17.5569975,7.83971747 C10.1495901,7.83971747 6.49773825,11.2048547 6.49773825,11.2048547 L6.49773825,11.2048547 Z" id="Fill-186" opacity="0.5" fill="#0A0B09" sketch:type="MSShapeGroup"></path>
        <path d="M16.075516,2 C13.6310716,2.02919859 11.8458864,3.10954632 9.15699751,5.27754143 C9.06070121,5.25564249 8.83847899,5.19724531 8.83847899,5.19724531 C8.41625677,5.19724531 8.06810862,5.53302907 8.06810862,5.95640858 C8.06810862,5.95640858 8.09773825,6.09510187 8.11255306,6.18269764 C8.03107158,6.2556941 5.9495901,8.19010052 5.9495901,8.19010052 L4.21625677,10.0296115 C4.0458864,10.1902037 3.71255306,10.0442108 3.47551603,10.0296115 C3.2458864,10.0223119 3.02366417,10.0150122 2.86810862,9.8398207 C2.71996047,9.67922847 2.6458864,9.46753871 2.6458864,9.2631486 C2.6458864,9.0295599 2.74218269,8.7959712 2.92736788,8.62807933 C2.92736788,8.62807933 3.06810862,8.54778321 3.17181232,8.48938604 C3.19403454,8.64997827 3.26070121,9.12445531 3.26070121,9.12445531 L4.95699751,7.10975278 L3.10514566,7.78861994 C2.66810862,7.93461288 2.49033084,8.15360228 2.48292343,8.16820158 C1.87551603,8.70837544 1.83847899,9.48213801 2.38662714,10.2704999 C3.4458864,10.6719804 3.0458864,10.6427819 4.21625677,10.7595762 L4.95699751,10.0296115 L6.30514566,8.71567509 C6.30514566,8.71567509 8.46810862,6.70097256 8.53477529,6.63527574 C8.63847899,6.65717468 8.8458864,6.70827221 8.8458864,6.70827221 C9.26810862,6.70827221 9.60884936,6.37248845 9.60884936,5.94910894 C9.60884936,5.94910894 9.59403454,5.83961424 9.57921973,5.75931812 C12.1718123,3.65701983 13.801442,2.75916327 16.075516,2.72996468 L18.2977382,2.72996468 L18.2977382,2 L16.075516,2" id="Fill-187" opacity="0.5" fill="#0A0B09" sketch:type="MSShapeGroup"></path>
        <path d="M9.89033084,9.7595762 L10.6310716,9.7595762 L10.6310716,10.4895409 L9.89033084,10.4895409 L9.89033084,9.7595762 Z M5.49773825,10.2048547 L5.4458864,10.3362483 L5.53477529,10.4895409 L8.40884936,11.2195056 C8.53477529,11.2779027 8.55699751,11.9494703 8.40884936,11.9494703 L5.5495901,11.9494703 L5.4458864,12.058965 L5.47551603,12.1246618 C8.63847899,14.6357403 12.2977382,15.5992937 16.5569975,15.5992937 L16.5569975,6.83971747 C9.1495901,6.83971747 5.49773825,10.2048547 5.49773825,10.2048547 L5.49773825,10.2048547 Z" id="Fill-186" opacity="0.75" fill="#0A0B09" sketch:type="MSShapeGroup"></path>
        <path d="M15.075516,1 C12.6310716,1.02919859 10.8458864,2.10954632 8.15699751,4.27754143 C8.06070121,4.25564249 7.83847899,4.19724531 7.83847899,4.19724531 C7.41625677,4.19724531 7.06810862,4.53302907 7.06810862,4.95640858 C7.06810862,4.95640858 7.09773825,5.09510187 7.11255306,5.18269764 C7.03107158,5.2556941 4.9495901,7.19010052 4.9495901,7.19010052 L3.21625677,9.02961152 C3.0458864,9.19020375 2.71255306,9.04421081 2.47551603,9.02961152 C2.2458864,9.02231187 2.02366417,9.01501222 1.86810862,8.8398207 C1.71996047,8.67922847 1.6458864,8.46753871 1.6458864,8.2631486 C1.6458864,8.0295599 1.74218269,7.7959712 1.92736788,7.62807933 C1.92736788,7.62807933 2.06810862,7.54778321 2.17181232,7.48938604 C2.19403454,7.64997827 2.26070121,8.12445531 2.26070121,8.12445531 L3.95699751,6.10975278 L2.10514566,6.78861994 C1.66810862,6.93461288 1.49033084,7.15360228 1.48292343,7.16820158 C0.875516026,7.70837544 0.838478989,8.48213801 1.38662714,9.27049986 C2.4458864,9.67198044 2.0458864,9.64278185 3.21625677,9.7595762 L3.95699751,9.02961152 L5.30514566,7.71567509 C5.30514566,7.71567509 7.46810862,5.70097256 7.53477529,5.63527574 C7.63847899,5.65717468 7.8458864,5.70827221 7.8458864,5.70827221 C8.26810862,5.70827221 8.60884936,5.37248845 8.60884936,4.94910894 C8.60884936,4.94910894 8.59403454,4.83961424 8.57921973,4.75931812 C11.1718123,2.65701983 12.801442,1.75916327 15.075516,1.72996468 L17.2977382,1.72996468 L17.2977382,1 L15.075516,1" id="Fill-187" opacity="0.75" fill="#0A0B09" sketch:type="MSShapeGroup"></path>
        <path d="M8.89033084,8.7595762 L9.63107158,8.7595762 L9.63107158,9.48954089 L8.89033084,9.48954089 L8.89033084,8.7595762 Z M4.49773825,9.20485466 L4.4458864,9.3362483 L4.53477529,9.48954089 L7.40884936,10.2195056 C7.53477529,10.2779027 7.55699751,10.9494703 7.40884936,10.9494703 L4.5495901,10.9494703 L4.4458864,11.058965 L4.47551603,11.1246618 C7.63847899,13.6357403 11.2977382,14.5992937 15.5569975,14.5992937 L15.5569975,5.83971747 C8.1495901,5.83971747 4.49773825,9.20485466 4.49773825,9.20485466 L4.49773825,9.20485466 Z" id="Fill-186" fill="#FFFFFF" sketch:type="MSShapeGroup"></path>
        <path d="M14.075516,0 C11.6310716,0.0291985873 9.8458864,1.10954632 7.15699751,3.27754143 C7.06070121,3.25564249 6.83847899,3.19724531 6.83847899,3.19724531 C6.41625677,3.19724531 6.06810862,3.53302907 6.06810862,3.95640858 C6.06810862,3.95640858 6.09773825,4.09510187 6.11255306,4.18269764 C6.03107158,4.2556941 3.9495901,6.19010052 3.9495901,6.19010052 L2.21625677,8.02961152 C2.0458864,8.19020375 1.71255306,8.04421081 1.47551603,8.02961152 C1.2458864,8.02231187 1.02366417,8.01501222 0.868108619,7.8398207 C0.719960471,7.67922847 0.645886397,7.46753871 0.645886397,7.2631486 C0.645886397,7.0295599 0.742182693,6.7959712 0.927367878,6.62807933 C0.927367878,6.62807933 1.06810862,6.54778321 1.17181232,6.48938604 C1.19403454,6.64997827 1.26070121,7.12445531 1.26070121,7.12445531 L2.95699751,5.10975278 L1.10514566,5.78861994 C0.668108619,5.93461288 0.490330841,6.15360228 0.482923434,6.16820158 C-0.124483974,6.70837544 -0.161521011,7.48213801 0.386627137,8.27049986 C1.4458864,8.67198044 1.0458864,8.64278185 2.21625677,8.7595762 L2.95699751,8.02961152 L4.30514566,6.71567509 C4.30514566,6.71567509 6.46810862,4.70097256 6.53477529,4.63527574 C6.63847899,4.65717468 6.8458864,4.70827221 6.8458864,4.70827221 C7.26810862,4.70827221 7.60884936,4.37248845 7.60884936,3.94910894 C7.60884936,3.94910894 7.59403454,3.83961424 7.57921973,3.75931812 C10.1718123,1.65701983 11.801442,0.759163271 14.075516,0.729964684 L16.2977382,0.729964684 L16.2977382,0 L14.075516,0" id="Fill-187" fill="#FFFFFF" sketch:type="MSShapeGroup"></path>
    </g>
</svg>