<?xml version="1.0" encoding="UTF-8" standalone="no"?>
<svg width="12px" height="12px" viewBox="0 0 12 12" version="1.1" xmlns="http://www.w3.org/2000/svg" xmlns:xlink="http://www.w3.org/1999/xlink" xmlns:sketch="http://www.bohemiancoding.com/sketch/ns">
    <!-- Generator: Sketch 3.2.2 (9983) - http://www.bohemiancoding.com/sketch -->
    <title>fishing-white-12</title>
    <desc>Created with Sketch.</desc>
    <defs></defs>
    <g id="Page-1" stroke="none" stroke-width="1" fill="none" fill-rule="evenodd" sketch:type="MSPage">
        <path d="M7.64705882,7.6815427 L8.35294118,7.6815427 L8.35294118,8.39173554 L7.64705882,8.39173554 L7.64705882,7.6815427 Z M4.85176471,7.83778512 L4.82352941,7.91590634 L4.88,8.01533333 L6.94117647,8.39173554 L6.94117647,9.10192837 L4.82352941,9.10192837 L4.82352941,9.22266116 L4.83764706,9.26527273 C6.75764706,10.820595 9.08705882,11.2325069 11.8823529,11.2325069 L11.8823529,6.26115702 C7.35058824,6.26115702 4.85176471,7.83778512 4.85176471,7.83778512 L4.85176471,7.83778512 Z" id="Fill-188" opacity="0.5" fill="#0A0B09" sketch:type="MSShapeGroup"></path>
        <path d="M11.8823529,2 L11.8823529,2.71019284 L9.05882353,2.71019284 L6.94117647,4.13057851 L3.41176471,7.6815427 L2.70588235,7.6815427 L2,6.97134986 L2,4.84077135 L3.41176471,4.84077135 L3.41176471,6.26115702 L2.70588235,5.55096419 L2.70588235,6.97134986 L3.41176471,6.97134986 L6.94117647,3.42038567 L9.05882353,2 L11.8823529,2" id="Fill-189" opacity="0.5" fill="#0A0B09" sketch:type="MSShapeGroup"></path>
        <path d="M6.64705882,6.6815427 L7.35294118,6.6815427 L7.35294118,7.39173554 L6.64705882,7.39173554 L6.64705882,6.6815427 Z M3.85176471,6.83778512 L3.82352941,6.91590634 L3.88,7.01533333 L5.94117647,7.39173554 L5.94117647,8.10192837 L3.82352941,8.10192837 L3.82352941,8.22266116 L3.83764706,8.26527273 C5.75764706,9.82059504 8.08705882,10.2325069 10.8823529,10.2325069 L10.8823529,5.26115702 C6.35058824,5.26115702 3.85176471,6.83778512 3.85176471,6.83778512 L3.85176471,6.83778512 Z" id="Fill-188" opacity="0.75" fill="#0A0B09" sketch:type="MSShapeGroup"></path>
        <path d="M10.8823529,1 L10.8823529,1.71019284 L8.05882353,1.71019284 L5.94117647,3.13057851 L2.41176471,6.6815427 L1.70588235,6.6815427 L1,5.97134986 L1,3.84077135 L2.41176471,3.84077135 L2.41176471,5.26115702 L1.70588235,4.55096419 L1.70588235,5.97134986 L2.41176471,5.97134986 L5.94117647,2.42038567 L8.05882353,1 L10.8823529,1" id="Fill-189" opacity="0.75" fill="#0A0B09" sketch:type="MSShapeGroup"></path>
        <path d="M5.64705882,5.6815427 L6.35294118,5.6815427 L6.35294118,6.39173554 L5.64705882,6.39173554 L5.64705882,5.6815427 Z M2.85176471,5.83778512 L2.82352941,5.91590634 L2.88,6.01533333 L4.94117647,6.39173554 L4.94117647,7.10192837 L2.82352941,7.10192837 L2.82352941,7.22266116 L2.83764706,7.26527273 C4.75764706,8.82059504 7.08705882,9.23250689 9.88235294,9.23250689 L9.88235294,4.26115702 C5.35058824,4.26115702 2.85176471,5.83778512 2.85176471,5.83778512 L2.85176471,5.83778512 Z" id="Fill-188" fill="#FFFFFF" sketch:type="MSShapeGroup"></path>
        <path d="M9.88235294,0 L9.88235294,0.710192837 L7.05882353,0.710192837 L4.94117647,2.13057851 L1.41176471,5.6815427 L0.705882353,5.6815427 L0,4.97134986 L0,2.84077135 L1.41176471,2.84077135 L1.41176471,4.26115702 L0.705882353,3.55096419 L0.705882353,4.97134986 L1.41176471,4.97134986 L4.94117647,1.42038567 L7.05882353,0 L9.88235294,0" id="Fill-189" fill="#FFFFFF" sketch:type="MSShapeGroup"></path>
    </g>
</svg>