<?xml version="1.0" encoding="UTF-8" standalone="no"?>
<!-- Created with Inkscape (http://www.inkscape.org/) -->

<svg
   xmlns:dc="http://purl.org/dc/elements/1.1/"
   xmlns:cc="http://creativecommons.org/ns#"
   xmlns:rdf="http://www.w3.org/1999/02/22-rdf-syntax-ns#"
   xmlns:svg="http://www.w3.org/2000/svg"
   xmlns="http://www.w3.org/2000/svg"
   xmlns:sodipodi="http://sodipodi.sourceforge.net/DTD/sodipodi-0.dtd"
   xmlns:inkscape="http://www.inkscape.org/namespaces/inkscape"
   width="18"
   height="18"
   id="svg27435"
   version="1.1"
   inkscape:version="0.48.2 r9819"
   sodipodi:docname="food-service-white-18.svg">
  <defs
     id="defs27437" />
  <sodipodi:namedview
     id="base"
     pagecolor="#ffffff"
     bordercolor="#666666"
     borderopacity="1.0"
     inkscape:pageopacity="0.0"
     inkscape:pageshadow="2"
     inkscape:zoom="7.9891803"
     inkscape:cx="12.590799"
     inkscape:cy="8.9588378"
     inkscape:document-units="px"
     inkscape:current-layer="layer1"
     showgrid="false"
     inkscape:window-width="483"
     inkscape:window-height="454"
     inkscape:window-x="2977"
     inkscape:window-y="744"
     inkscape:window-maximized="0" />
  <metadata
     id="metadata27440">
    <rdf:RDF>
      <cc:Work
         rdf:about="">
        <dc:format>image/svg+xml</dc:format>
        <dc:type
           rdf:resource="http://purl.org/dc/dcmitype/StillImage" />
        <dc:title></dc:title>
      </cc:Work>
    </rdf:RDF>
  </metadata>
  <g
     inkscape:label="Layer 1"
     inkscape:groupmode="layer"
     id="layer1"
     transform="translate(0,-1034.3622)">
    <g
       id="g11977"
       transform="matrix(1.8213093,0,0,1.8213093,-38.528537,573.13804)">
      <path
         style="opacity:0;fill:#272525"
         inkscape:connector-curvature="0"
         id="path11979"
         d="m 29.863,263.114 c 0.652,0 1.181,-0.528 1.181,-1.18 v -7.522 c 0,-0.652 -0.528,-1.181 -1.181,-1.181 h -7.521 c -0.652,0 -1.181,0.528 -1.181,1.181 v 7.522 c 0,0.651 0.528,1.18 1.181,1.18 h 7.521 z" />
      <g
         id="g11981"
         style="opacity:0.6;stroke:#ffffff;stroke-width:0.5;stroke-miterlimit:4;stroke-opacity:1;stroke-dasharray:none">
        <path
           style="fill:#272525;stroke:#ffffff;stroke-width:0.5;stroke-miterlimit:4;stroke-opacity:1;stroke-dasharray:none"
           inkscape:connector-curvature="0"
           id="path11983"
           d="m 25.673,256.708 c 0,0.261 -0.237,0.539 -0.545,0.539 v 4.402 c 0,0.624 -0.853,0.624 -0.853,0 v -4.402 c -0.3,0 -0.561,-0.231 -0.561,-0.578 v -2.422 c 0,-0.211 0.305,-0.22 0.305,0.008 v 1.791 h 0.255 0.294 -0.022 v -1.805 c 0,-0.202 0.285,-0.21 0.285,0.008 v 1.797 h 0.545 v -1.805 c 0,-0.199 0.297,-0.207 0.297,0.008 v 2.459 z" />
        <path
           style="fill:#272525;stroke:#ffffff;stroke-width:0.5;stroke-miterlimit:4;stroke-opacity:1;stroke-dasharray:none"
           inkscape:connector-curvature="0"
           id="path11985"
           d="m 28.344,254.811 v 6.836 c 0,0.611 -0.854,0.603 -0.854,0 v -2.711 h -0.455 v -4.125 c 0,-0.959 1.309,-0.959 1.309,0 z" />
      </g>
      <g
         id="g11987">
        <path
           d="m 25.673,256.708 c 0,0.261 -0.237,0.539 -0.545,0.539 v 4.402 c 0,0.624 -0.853,0.624 -0.853,0 v -4.402 c -0.3,0 -0.561,-0.231 -0.561,-0.578 v -2.422 c 0,-0.211 0.305,-0.22 0.305,0.008 v 1.791 h 0.255 0.294 -0.022 v -1.805 c 0,-0.202 0.285,-0.21 0.285,0.008 v 1.797 h 0.545 v -1.805 c 0,-0.199 0.297,-0.207 0.297,0.008 v 2.459 z"
           id="path11989"
           inkscape:connector-curvature="0"
           style="fill:#272525" />
        <path
           d="m 28.344,254.811 v 6.836 c 0,0.611 -0.854,0.603 -0.854,0 v -2.711 h -0.455 v -4.125 c 0,-0.959 1.309,-0.959 1.309,0 z"
           id="path11991"
           inkscape:connector-curvature="0"
           style="fill:#272525" />
      </g>
    </g>
  </g>
</svg>
