<?xml version="1.0" encoding="UTF-8" standalone="no"?>
<svg width="24px" height="24px" viewBox="0 0 24 24" version="1.1" xmlns="http://www.w3.org/2000/svg" xmlns:xlink="http://www.w3.org/1999/xlink" xmlns:sketch="http://www.bohemiancoding.com/sketch/ns">
    <!-- Generator: Sketch 3.2.2 (9983) - http://www.bohemiancoding.com/sketch -->
    <title>food-service-white-24-s1</title>
    <desc>Created with Sketch.</desc>
    <defs></defs>
    <g id="Page-1" stroke="none" stroke-width="1" fill="none" fill-rule="evenodd" sketch:type="MSPage">
        <rect id="gray" fill="#F0F0F0" sketch:type="MSShapeGroup" x="-5" y="-93" width="155" height="191"></rect>
        <g id="Fill-847-+-Fill-850" sketch:type="MSLayerGroup" transform="translate(7.000000, 3.000000)" fill="#000000" opacity="0.1">
            <path d="M12,22 L13,22 L14,20.6 L14,0.6 L13,0 L11,0 L11,1 L10,1 L10,13 L12,13 L12,22" id="Fill-847" sketch:type="MSShapeGroup"></path>
            <path d="M2,21 L3,22 L4,21 L4,9 L6,7 L6,0 L5,0 L5,5.5 L3.5,6 L3.5,0 L2.5,0 L2.5,6 L1,5.5 L1,0 L0,0 L0,7 L2,9 L2,21" id="Fill-848" sketch:type="MSShapeGroup"></path>
        </g>
        <g id="Fill-847-+-Fill-849" sketch:type="MSLayerGroup" transform="translate(6.000000, 2.000000)" fill="#000000" opacity="0.2">
            <path d="M12,22 L13,22 L14,20.6 L14,0.6 L13,0 L11,0 L11,1 L10,1 L10,13 L12,13 L12,22" id="Fill-847" sketch:type="MSShapeGroup"></path>
            <path d="M2,21 L3,22 L4,21 L4,9 L6,7 L6,0 L5,0 L5,5.5 L3.5,6 L3.5,0 L2.5,0 L2.5,6 L1,5.5 L1,0 L0,0 L0,7 L2,9 L2,21" id="Fill-848" sketch:type="MSShapeGroup"></path>
        </g>
        <g id="Fill-847-+-Fill-848" sketch:type="MSLayerGroup" transform="translate(5.000000, 1.000000)" fill="#FFFFFF">
            <path d="M12,22 L13,22 L14,20.6 L14,0.6 L13,0 L11,0 L11,1 L10,1 L10,13 L12,13 L12,22" id="Fill-847" sketch:type="MSShapeGroup"></path>
            <path d="M2,21 L3,22 L4,21 L4,9 L6,7 L6,0 L5,0 L5,5.5 L3.5,6 L3.5,0 L2.5,0 L2.5,6 L1,5.5 L1,0 L0,0 L0,7 L2,9 L2,21" id="Fill-848" sketch:type="MSShapeGroup"></path>
        </g>
    </g>
</svg>