<?xml version="1.0" encoding="utf-8"?>
<!-- Generator: Adobe Illustrator 18.1.1, SVG Export Plug-In . SVG Version: 6.00 Build 0)  -->
<svg version="1.1" xmlns="http://www.w3.org/2000/svg" xmlns:xlink="http://www.w3.org/1999/xlink" x="0px" y="0px"
	 viewBox="0 0 24 24" enable-background="new 0 0 24 24" xml:space="preserve">
<g id="shadows">
	<g opacity="0.2">
		<polygon points="17.4,21 18.1,21 18.9,19.9 18.9,4.5 18.1,4 16.6,4 16.6,4.8 15.8,4.8 15.8,14 17.4,14 		"/>
		<polygon points="9.6,20.2 10.4,21 11.2,20.2 11.2,11 12,10.2 12.7,9.4 12.7,4 12,4 12,8.3 10.8,8.6 10.8,4 10,4 10,8.6 8.9,8.3 
			8.9,4 8.1,4 8.1,9.4 8.9,10.2 9.6,11 		"/>
	</g>
</g>
<g id="icons">
	<g>
		<polygon points="16.4,20 17.1,20 17.9,18.9 17.9,3.5 17.1,3 15.6,3 15.6,3.8 14.8,3.8 14.8,13 16.4,13 		"/>
		<polygon points="8.6,19.2 9.4,20 10.2,19.2 10.2,10 11,9.2 11.7,8.4 11.7,3 11,3 11,7.3 9.8,7.6 9.8,3 9,3 9,7.6 7.9,7.3 7.9,3 
			7.1,3 7.1,8.4 7.9,9.2 8.6,10 		"/>
	</g>
</g>
<g id="guides">
</g>
</svg>
