<?xml version="1.0" encoding="UTF-8" standalone="no"?>
<svg width="12px" height="12px" viewBox="0 0 12 12" version="1.1" xmlns="http://www.w3.org/2000/svg" xmlns:xlink="http://www.w3.org/1999/xlink" xmlns:sketch="http://www.bohemiancoding.com/sketch/ns">
    <!-- Generator: Sketch 3.2.2 (9983) - http://www.bohemiancoding.com/sketch -->
    <title>food-service-white-s2-12</title>
    <desc>Created with Sketch.</desc>
    <defs></defs>
    <g id="Page-1" stroke="none" stroke-width="1" fill="none" fill-rule="evenodd" sketch:type="MSPage">
        <path d="M10.4117647,2 L11.1176471,3.13630854 L11.1176471,10.2382369 L10.4117647,11.9426997 L9.70588235,11.9426997 L9.70588235,7.6815427 L9,7.6815427 L9,3.13630854 L9.70588235,2 L10.4117647,2" id="Fill-13" opacity="0.3" fill="#0A0B09" sketch:type="MSShapeGroup"></path>
        <path d="M3,2.01420386 L3.70588235,2 L3.70588235,4.13057851 L4.41176471,4.84077135 L4.41176471,2 L5.11764706,2 L5.11764706,4.84077135 L5.82352941,4.13057851 L5.82352941,2 L6.52941176,2 L6.52941176,5.55096419 L5.82352941,5.55096419 L5.11764706,6.26115702 L5.11764706,11.9426997 L4.41176471,11.9426997 L4.41176471,6.26115702 L3.70588235,5.55096419 L3,5.55096419 L3,2.01420386" id="Fill-14" opacity="0.3" fill="#0A0B09" sketch:type="MSShapeGroup"></path>
        <path d="M9.41176471,1 L10.1176471,2.13630854 L10.1176471,9.23823691 L9.41176471,10.9426997 L8.70588235,10.9426997 L8.70588235,6.6815427 L8,6.6815427 L8,2.13630854 L8.70588235,1 L9.41176471,1" id="Fill-13" fill="#FFFFFF" sketch:type="MSShapeGroup"></path>
        <path d="M2,1.01420386 L2.70588235,1 L2.70588235,3.13057851 L3.41176471,3.84077135 L3.41176471,1 L4.11764706,1 L4.11764706,3.84077135 L4.82352941,3.13057851 L4.82352941,1 L5.52941176,1 L5.52941176,4.55096419 L4.82352941,4.55096419 L4.11764706,5.26115702 L4.11764706,10.9426997 L3.41176471,10.9426997 L3.41176471,5.26115702 L2.70588235,4.55096419 L2,4.55096419 L2,1.01420386" id="Fill-14" fill="#FFFFFF" sketch:type="MSShapeGroup"></path>
    </g>
</svg>