<?xml version="1.0" encoding="UTF-8" standalone="no"?>
<svg width="18px" height="18px" viewBox="0 0 18 18" version="1.1" xmlns="http://www.w3.org/2000/svg" xmlns:xlink="http://www.w3.org/1999/xlink" xmlns:sketch="http://www.bohemiancoding.com/sketch/ns">
    <!-- Generator: Sketch 3.2.2 (9983) - http://www.bohemiancoding.com/sketch -->
    <title>food-service-black-s1-18</title>
    <desc>Created with Sketch.</desc>
    <defs></defs>
    <g id="Page-1" stroke="none" stroke-width="1" fill="none" fill-rule="evenodd" sketch:type="MSPage">
        <path d="M14.4814815,19.059223 L15.2222222,19.059223 L15.962963,18.0372725 L15.962963,3.43797881 L15.2222222,3 L13.7407407,3 L13.7407407,3.72996468 L13,3.72996468 L13,12.4895409 L14.4814815,12.4895409 L14.4814815,19.059223" id="Fill-179" opacity="0.1" fill="#0A0B09" sketch:type="MSShapeGroup"></path>
        <path d="M7.48148148,18.3292584 L8.22222222,19.059223 L8.96296296,18.3292584 L8.96296296,9.56968215 L10.4444444,8.10975278 L10.4444444,3 L9.7037037,3 L9.7037037,7.01480576 L8.59259259,7.3797881 L8.59259259,3 L7.85185185,3 L7.85185185,7.3797881 L6.74074074,7.01480576 L6.74074074,3 L6,3 L6,8.10975278 L7.48148148,9.56968215 L7.48148148,18.3292584" id="Fill-180" opacity="0.1" fill="#0A0B09" sketch:type="MSShapeGroup"></path>
        <path d="M13.4814815,18.059223 L14.2222222,18.059223 L14.962963,17.0372725 L14.962963,2.43797881 L14.2222222,2 L12.7407407,2 L12.7407407,2.72996468 L12,2.72996468 L12,11.4895409 L13.4814815,11.4895409 L13.4814815,18.059223" id="Fill-179" opacity="0.2" fill="#0A0B09" sketch:type="MSShapeGroup"></path>
        <path d="M6.48148148,17.3292584 L7.22222222,18.059223 L7.96296296,17.3292584 L7.96296296,8.56968215 L9.44444444,7.10975278 L9.44444444,2 L8.7037037,2 L8.7037037,6.01480576 L7.59259259,6.3797881 L7.59259259,2 L6.85185185,2 L6.85185185,6.3797881 L5.74074074,6.01480576 L5.74074074,2 L5,2 L5,7.10975278 L6.48148148,8.56968215 L6.48148148,17.3292584" id="Fill-180" opacity="0.2" fill="#0A0B09" sketch:type="MSShapeGroup"></path>
        <path d="M12.4814815,17.059223 L13.2222222,17.059223 L13.962963,16.0372725 L13.962963,1.43797881 L13.2222222,1 L11.7407407,1 L11.7407407,1.72996468 L11,1.72996468 L11,10.4895409 L12.4814815,10.4895409 L12.4814815,17.059223" id="Fill-179" fill="#0A0B09" sketch:type="MSShapeGroup"></path>
        <path d="M5.48148148,16.3292584 L6.22222222,17.059223 L6.96296296,16.3292584 L6.96296296,7.56968215 L8.44444444,6.10975278 L8.44444444,1 L7.7037037,1 L7.7037037,5.01480576 L6.59259259,5.3797881 L6.59259259,1 L5.85185185,1 L5.85185185,5.3797881 L4.74074074,5.01480576 L4.74074074,1 L4,1 L4,6.10975278 L5.48148148,7.56968215 L5.48148148,16.3292584" id="Fill-180" fill="#0A0B09" sketch:type="MSShapeGroup"></path>
    </g>
</svg>