<?xml version="1.0" encoding="UTF-8" standalone="no"?>
<svg width="24px" height="24px" viewBox="0 0 24 24" version="1.1" xmlns="http://www.w3.org/2000/svg" xmlns:xlink="http://www.w3.org/1999/xlink" xmlns:sketch="http://www.bohemiancoding.com/sketch/ns">
    <!-- Generator: Sketch 3.2.2 (9983) - http://www.bohemiancoding.com/sketch -->
    <title>food-service-black-s1-24</title>
    <desc>Created with Sketch.</desc>
    <defs></defs>
    <g id="Page-1" stroke="none" stroke-width="1" fill="none" fill-rule="evenodd" sketch:type="MSPage">
        <g id="Fill-179-+-Fill-182" sketch:type="MSLayerGroup" transform="translate(7.000000, 3.000000)" fill="#0A0B09" opacity="0.1">
            <path d="M12.1176471,22 L13.1176471,22 L14.1176471,20.6 L14.1176471,0.6 L13.1176471,0 L11.1176471,0 L11.1176471,1 L10.1176471,1 L10.1176471,13 L12.1176471,13 L12.1176471,22" id="Fill-179" sketch:type="MSShapeGroup"></path>
            <path d="M2.11764706,21 L3.11764706,22 L4.11764706,21 L4.11764706,9 L6.11764706,7 L6.11764706,0 L5.11764706,0 L5.11764706,5.5 L3.61764706,6 L3.61764706,0 L2.61764706,0 L2.61764706,6 L1.11764706,5.5 L1.11764706,0 L0.117647059,0 L0.117647059,7 L2.11764706,9 L2.11764706,21" id="Fill-180" sketch:type="MSShapeGroup"></path>
        </g>
        <g id="Fill-179-+-Fill-181" sketch:type="MSLayerGroup" transform="translate(6.000000, 2.000000)" fill="#0A0B09" opacity="0.2">
            <path d="M12.1176471,22 L13.1176471,22 L14.1176471,20.6 L14.1176471,0.6 L13.1176471,0 L11.1176471,0 L11.1176471,1 L10.1176471,1 L10.1176471,13 L12.1176471,13 L12.1176471,22" id="Fill-179" sketch:type="MSShapeGroup"></path>
            <path d="M2.11764706,21 L3.11764706,22 L4.11764706,21 L4.11764706,9 L6.11764706,7 L6.11764706,0 L5.11764706,0 L5.11764706,5.5 L3.61764706,6 L3.61764706,0 L2.61764706,0 L2.61764706,6 L1.11764706,5.5 L1.11764706,0 L0.117647059,0 L0.117647059,7 L2.11764706,9 L2.11764706,21" id="Fill-180" sketch:type="MSShapeGroup"></path>
        </g>
        <g id="Fill-179-+-Fill-180" sketch:type="MSLayerGroup" transform="translate(5.000000, 1.000000)" fill="#0A0B09">
            <path d="M12.1176471,22 L13.1176471,22 L14.1176471,20.6 L14.1176471,0.6 L13.1176471,0 L11.1176471,0 L11.1176471,1 L10.1176471,1 L10.1176471,13 L12.1176471,13 L12.1176471,22" id="Fill-179" sketch:type="MSShapeGroup"></path>
            <path d="M2.11764706,21 L3.11764706,22 L4.11764706,21 L4.11764706,9 L6.11764706,7 L6.11764706,0 L5.11764706,0 L5.11764706,5.5 L3.61764706,6 L3.61764706,0 L2.61764706,0 L2.61764706,6 L1.11764706,5.5 L1.11764706,0 L0.117647059,0 L0.117647059,7 L2.11764706,9 L2.11764706,21" id="Fill-180" sketch:type="MSShapeGroup"></path>
        </g>
    </g>
</svg>