<?xml version="1.0" encoding="UTF-8" standalone="no"?>
<svg width="18px" height="18px" viewBox="0 0 18 18" version="1.1" xmlns="http://www.w3.org/2000/svg" xmlns:xlink="http://www.w3.org/1999/xlink" xmlns:sketch="http://www.bohemiancoding.com/sketch/ns">
    <!-- Generator: Sketch 3.2.2 (9983) - http://www.bohemiancoding.com/sketch -->
    <title>food-service-white-18-s1</title>
    <desc>Created with Sketch.</desc>
    <defs></defs>
    <g id="Page-1" stroke="none" stroke-width="1" fill="none" fill-rule="evenodd" sketch:type="MSPage">
        <rect id="gray" fill="#F0F0F0" sketch:type="MSShapeGroup" x="-35" y="-93" width="155" height="191"></rect>
        <path d="M14.5185185,19.059223 L15.2592593,19.059223 L16,18.0372725 L16,3.43797881 L15.2592593,3 L13.7777778,3 L13.7777778,3.72996468 L13.037037,3.72996468 L13.037037,12.4895409 L14.5185185,12.4895409 L14.5185185,19.059223" id="Fill-179" opacity="0.1" fill="#0A0B09" sketch:type="MSShapeGroup"></path>
        <path d="M7.51851852,18.3292584 L8.25925926,19.059223 L9,18.3292584 L9,9.56968215 L10.4814815,8.10975278 L10.4814815,3 L9.74074074,3 L9.74074074,7.01480576 L8.62962963,7.3797881 L8.62962963,3 L7.88888889,3 L7.88888889,7.3797881 L6.77777778,7.01480576 L6.77777778,3 L6.03703704,3 L6.03703704,8.10975278 L7.51851852,9.56968215 L7.51851852,18.3292584" id="Fill-180" opacity="0.1" fill="#0A0B09" sketch:type="MSShapeGroup"></path>
        <path d="M13.5185185,18.059223 L14.2592593,18.059223 L15,17.0372725 L15,2.43797881 L14.2592593,2 L12.7777778,2 L12.7777778,2.72996468 L12.037037,2.72996468 L12.037037,11.4895409 L13.5185185,11.4895409 L13.5185185,18.059223" id="Fill-179" opacity="0.2" fill="#0A0B09" sketch:type="MSShapeGroup"></path>
        <path d="M6.51851852,17.3292584 L7.25925926,18.059223 L8,17.3292584 L8,8.56968215 L9.48148148,7.10975278 L9.48148148,2 L8.74074074,2 L8.74074074,6.01480576 L7.62962963,6.3797881 L7.62962963,2 L6.88888889,2 L6.88888889,6.3797881 L5.77777778,6.01480576 L5.77777778,2 L5.03703704,2 L5.03703704,7.10975278 L6.51851852,8.56968215 L6.51851852,17.3292584" id="Fill-180" opacity="0.2" fill="#0A0B09" sketch:type="MSShapeGroup"></path>
        <path d="M12.5185185,17.059223 L13.2592593,17.059223 L14,16.0372725 L14,1.43797881 L13.2592593,1 L11.7777778,1 L11.7777778,1.72996468 L11.037037,1.72996468 L11.037037,10.4895409 L12.5185185,10.4895409 L12.5185185,17.059223" id="Fill-179" fill="#FFFFFF" sketch:type="MSShapeGroup"></path>
        <path d="M5.51851852,16.3292584 L6.25925926,17.059223 L7,16.3292584 L7,7.56968215 L8.48148148,6.10975278 L8.48148148,1 L7.74074074,1 L7.74074074,5.01480576 L6.62962963,5.3797881 L6.62962963,1 L5.88888889,1 L5.88888889,5.3797881 L4.77777778,5.01480576 L4.77777778,1 L4.03703704,1 L4.03703704,6.10975278 L5.51851852,7.56968215 L5.51851852,16.3292584" id="Fill-180" fill="#FFFFFF" sketch:type="MSShapeGroup"></path>
    </g>
</svg>