<?xml version="1.0" encoding="UTF-8" standalone="no"?>
<svg width="18px" height="18px" viewBox="0 0 18 18" version="1.1" xmlns="http://www.w3.org/2000/svg" xmlns:xlink="http://www.w3.org/1999/xlink" xmlns:sketch="http://www.bohemiancoding.com/sketch/ns">
    <!-- Generator: Sketch 3.2.2 (9983) - http://www.bohemiancoding.com/sketch -->
    <title>food-service-white-18</title>
    <desc>Created with Sketch.</desc>
    <defs></defs>
    <g id="Page-1" stroke="none" stroke-width="1" fill="none" fill-rule="evenodd" sketch:type="MSPage">
        <path d="M10.8888889,18 L11.6296296,18 L12.3703704,16.9780494 L12.3703704,2.37875577 L11.6296296,1.94077696 L10.1481481,1.94077696 L10.1481481,2.67074165 L9.40740741,2.67074165 L9.40740741,11.4303178 L10.8888889,11.4303178 L10.8888889,18" id="Fill-179" opacity="0.5" fill="#0A0B09" sketch:type="MSShapeGroup"></path>
        <path d="M3.48148148,17.2700353 L4.22222222,18 L4.96296296,17.2700353 L4.96296296,8.51045911 L6.44444444,7.05052975 L6.44444444,1.94077696 L5.7037037,1.94077696 L5.7037037,5.95558272 L4.59259259,6.32056506 L4.59259259,1.94077696 L3.85185185,1.94077696 L3.85185185,6.32056506 L2.74074074,5.95558272 L2.74074074,1.94077696 L2,1.94077696 L2,7.05052975 L3.48148148,8.51045911 L3.48148148,17.2700353" id="Fill-180" opacity="0.5" fill="#0A0B09" sketch:type="MSShapeGroup"></path>
        <path d="M9.88888889,17 L10.6296296,17 L11.3703704,15.9780494 L11.3703704,1.37875577 L10.6296296,0.940776963 L9.14814815,0.940776963 L9.14814815,1.67074165 L8.40740741,1.67074165 L8.40740741,10.4303178 L9.88888889,10.4303178 L9.88888889,17" id="Fill-179" opacity="0.75" fill="#0A0B09" sketch:type="MSShapeGroup"></path>
        <path d="M2.48148148,16.2700353 L3.22222222,17 L3.96296296,16.2700353 L3.96296296,7.51045911 L5.44444444,6.05052975 L5.44444444,0.940776963 L4.7037037,0.940776963 L4.7037037,4.95558272 L3.59259259,5.32056506 L3.59259259,0.940776963 L2.85185185,0.940776963 L2.85185185,5.32056506 L1.74074074,4.95558272 L1.74074074,0.940776963 L1,0.940776963 L1,6.05052975 L2.48148148,7.51045911 L2.48148148,16.2700353" id="Fill-180" opacity="0.75" fill="#0A0B09" sketch:type="MSShapeGroup"></path>
        <path d="M8.88888889,16 L9.62962963,16 L10.3703704,14.9780494 L10.3703704,0.378755773 L9.62962963,-0.0592230372 L8.14814815,-0.0592230372 L8.14814815,0.670741646 L7.40740741,0.670741646 L7.40740741,9.43031785 L8.88888889,9.43031785 L8.88888889,16" id="Fill-179" fill="#FFFFFF" sketch:type="MSShapeGroup"></path>
        <path d="M1.48148148,15.2700353 L2.22222222,16 L2.96296296,15.2700353 L2.96296296,6.51045911 L4.44444444,5.05052975 L4.44444444,-0.0592230372 L3.7037037,-0.0592230372 L3.7037037,3.95558272 L2.59259259,4.32056506 L2.59259259,-0.0592230372 L1.85185185,-0.0592230372 L1.85185185,4.32056506 L0.740740741,3.95558272 L0.740740741,-0.0592230372 L0,-0.0592230372 L0,5.05052975 L1.48148148,6.51045911 L1.48148148,15.2700353" id="Fill-180" fill="#FFFFFF" sketch:type="MSShapeGroup"></path>
    </g>
</svg>