<?xml version="1.0" encoding="UTF-8" standalone="no"?>
<svg width="12px" height="12px" viewBox="0 0 12 12" version="1.1" xmlns="http://www.w3.org/2000/svg" xmlns:xlink="http://www.w3.org/1999/xlink" xmlns:sketch="http://www.bohemiancoding.com/sketch/ns">
    <!-- Generator: Sketch 3.2.2 (9983) - http://www.bohemiancoding.com/sketch -->
    <title>food-service-white-12</title>
    <desc>Created with Sketch.</desc>
    <defs></defs>
    <g id="Page-1" stroke="none" stroke-width="1" fill="none" fill-rule="evenodd" sketch:type="MSPage">
        <path d="M9.05882353,2 L9.76470588,3.13630854 L9.76470588,10.2382369 L9.05882353,11.9426997 L8.35294118,11.9426997 L8.35294118,7.6815427 L7.64705882,7.6815427 L7.64705882,3.13630854 L8.35294118,2 L9.05882353,2" id="Fill-13" opacity="0.5" fill="#0A0B09" sketch:type="MSShapeGroup"></path>
        <path d="M2,2.01420386 L2.70588235,2 L2.70588235,4.13057851 L3.41176471,4.84077135 L3.41176471,2 L4.11764706,2 L4.11764706,4.84077135 L4.82352941,4.13057851 L4.82352941,2 L5.52941176,2 L5.52941176,5.55096419 L4.82352941,5.55096419 L4.11764706,6.26115702 L4.11764706,11.9426997 L3.41176471,11.9426997 L3.41176471,6.26115702 L2.70588235,5.55096419 L2,5.55096419 L2,2.01420386" id="Fill-14" opacity="0.5" fill="#0A0B09" sketch:type="MSShapeGroup"></path>
        <path d="M8.05882353,1 L8.76470588,2.13630854 L8.76470588,9.23823691 L8.05882353,10.9426997 L7.35294118,10.9426997 L7.35294118,6.6815427 L6.64705882,6.6815427 L6.64705882,2.13630854 L7.35294118,1 L8.05882353,1" id="Fill-13" opacity="0.75" fill="#0A0B09" sketch:type="MSShapeGroup"></path>
        <path d="M1,1.01420386 L1.70588235,1 L1.70588235,3.13057851 L2.41176471,3.84077135 L2.41176471,1 L3.11764706,1 L3.11764706,3.84077135 L3.82352941,3.13057851 L3.82352941,1 L4.52941176,1 L4.52941176,4.55096419 L3.82352941,4.55096419 L3.11764706,5.26115702 L3.11764706,10.9426997 L2.41176471,10.9426997 L2.41176471,5.26115702 L1.70588235,4.55096419 L1,4.55096419 L1,1.01420386" id="Fill-14" opacity="0.75" fill="#0A0B09" sketch:type="MSShapeGroup"></path>
        <path d="M7.05882353,0 L7.76470588,1.13630854 L7.76470588,8.23823691 L7.05882353,9.94269972 L6.35294118,9.94269972 L6.35294118,5.6815427 L5.64705882,5.6815427 L5.64705882,1.13630854 L6.35294118,0 L7.05882353,0" id="Fill-13" fill="#FFFFFF" sketch:type="MSShapeGroup"></path>
        <path d="M0,0.0142038567 L0.705882353,0 L0.705882353,2.13057851 L1.41176471,2.84077135 L1.41176471,0 L2.11764706,0 L2.11764706,2.84077135 L2.82352941,2.13057851 L2.82352941,0 L3.52941176,0 L3.52941176,3.55096419 L2.82352941,3.55096419 L2.11764706,4.26115702 L2.11764706,9.94269972 L1.41176471,9.94269972 L1.41176471,4.26115702 L0.705882353,3.55096419 L0,3.55096419 L0,0.0142038567" id="Fill-14" fill="#FFFFFF" sketch:type="MSShapeGroup"></path>
    </g>
</svg>