<?xml version="1.0" encoding="utf-8"?>
<!-- Generator: Adobe Illustrator 18.1.1, SVG Export Plug-In . SVG Version: 6.00 Build 0)  -->
<svg version="1.1" xmlns="http://www.w3.org/2000/svg" xmlns:xlink="http://www.w3.org/1999/xlink" x="0px" y="0px"
	 viewBox="0 0 18 18" enable-background="new 0 0 18 18" xml:space="preserve">
<g id="shadows">
	<g opacity="0.2">
		<polygon points="14.4,2.8 15.4,4.2 15.4,13.5 14.4,15.8 13.5,15.8 13.5,10.2 12.6,10.2 12.6,4.2 13.5,2.8 		"/>
		<polygon points="5.1,2.8 6.1,2.8 6.1,5.5 7,6.5 7,2.8 7.9,2.8 7.9,6.5 8.9,5.5 8.9,2.8 9.8,2.8 9.8,7.4 8.9,7.4 7.9,8.3 7.9,15.8 
			7,15.8 7,8.3 6.1,7.4 5.1,7.4 		"/>
	</g>
</g>
<g id="icons">
	<g>
		<polygon points="13.7,2 14.6,3.5 14.6,12.8 13.7,15 12.8,15 12.8,9.4 11.8,9.4 11.8,3.5 12.8,2 		"/>
		<polygon points="4.4,2 5.3,2 5.3,4.8 6.2,5.7 6.2,2 7.2,2 7.2,5.7 8.1,4.8 8.1,2 9,2 9,6.6 8.1,6.6 7.2,7.6 7.2,15 6.2,15 
			6.2,7.6 5.3,6.6 4.4,6.6 		"/>
	</g>
</g>
<g id="guides">
</g>
</svg>
