<?xml version="1.0" encoding="utf-8"?>
<!-- Generator: Adobe Illustrator 18.1.1, SVG Export Plug-In . SVG Version: 6.00 Build 0)  -->
<svg version="1.1" xmlns="http://www.w3.org/2000/svg" xmlns:xlink="http://www.w3.org/1999/xlink" x="0px" y="0px"
	 viewBox="0 0 12 12" enable-background="new 0 0 12 12" xml:space="preserve">
<g id="shadows">
	<g opacity="0.2">
		<polygon points="9.9,1.5 10.5,2.5 10.5,9 9.9,10.5 9.2,10.5 9.2,6.6 8.6,6.6 8.6,2.5 9.2,1.5 		"/>
		<polygon points="3.5,1.5 4.1,1.5 4.1,3.4 4.8,4.1 4.8,1.5 5.4,1.5 5.4,4.1 6,3.4 6,1.5 6.7,1.5 6.7,4.7 6,4.7 5.4,5.4 5.4,10.5 
			4.8,10.5 4.8,5.4 4.1,4.7 3.5,4.7 		"/>
	</g>
</g>
<g id="icons">
	<g>
		<polygon fill="#FFFFFF" points="9.4,1 10,2 10,8.5 9.4,10 8.8,10 8.8,6.1 8.1,6.1 8.1,2 8.8,1 		"/>
		<polygon fill="#FFFFFF" points="3,1 3.6,1 3.6,2.9 4.2,3.6 4.2,1 4.9,1 4.9,3.6 5.5,2.9 5.5,1 6.2,1 6.2,4.2 5.5,4.2 4.9,4.9 
			4.9,10 4.2,10 4.2,4.9 3.6,4.2 3,4.2 		"/>
	</g>
</g>
<g id="guides">
</g>
</svg>
