<?xml version="1.0" encoding="utf-8"?>
<!-- Generator: Adobe Illustrator 18.1.1, SVG Export Plug-In . SVG Version: 6.00 Build 0)  -->
<svg version="1.1" xmlns="http://www.w3.org/2000/svg" xmlns:xlink="http://www.w3.org/1999/xlink" x="0px" y="0px"
	 viewBox="0 0 24 24" enable-background="new 0 0 24 24" xml:space="preserve">
<g id="shadows">
	<g opacity="0.2">
		<polygon points="16.9,20.5 17.6,20.5 18.4,19.4 18.4,4 17.6,3.5 16.1,3.5 16.1,4.3 15.3,4.3 15.3,13.5 16.9,13.5 		"/>
		<polygon points="9.1,19.7 9.9,20.5 10.7,19.7 10.7,10.5 11.5,9.7 12.2,8.9 12.2,3.5 11.5,3.5 11.5,7.8 10.3,8.1 10.3,3.5 9.5,3.5 
			9.5,8.1 8.4,7.8 8.4,3.5 7.6,3.5 7.6,8.9 8.4,9.7 9.1,10.5 		"/>
	</g>
</g>
<g id="icons">
	<g>
		<polygon fill="#FFFFFF" points="15.9,19.5 16.6,19.5 17.4,18.4 17.4,3 16.6,2.5 15.1,2.5 15.1,3.3 14.3,3.3 14.3,12.5 15.9,12.5 
					"/>
		<polygon fill="#FFFFFF" points="8.1,18.7 8.9,19.5 9.7,18.7 9.7,9.5 10.5,8.7 11.2,7.9 11.2,2.5 10.5,2.5 10.5,6.8 9.3,7.1 
			9.3,2.5 8.5,2.5 8.5,7.1 7.4,6.8 7.4,2.5 6.6,2.5 6.6,7.9 7.4,8.7 8.1,9.5 		"/>
	</g>
</g>
<g id="guides">
</g>
</svg>
