<?xml version="1.0" encoding="utf-8"?>
<!-- Generator: Adobe Illustrator 18.1.1, SVG Export Plug-In . SVG Version: 6.00 Build 0)  -->
<svg version="1.1" xmlns="http://www.w3.org/2000/svg" xmlns:xlink="http://www.w3.org/1999/xlink" x="0px" y="0px"
	 viewBox="0 0 12 12" enable-background="new 0 0 12 12" xml:space="preserve">
<g id="shadows">
	<g opacity="0.2">
		<polygon points="8.9,1.5 9.5,2.5 9.5,9 8.9,10.5 8.3,10.5 8.3,6.6 7.6,6.6 7.6,2.5 8.3,1.5 		"/>
		<polygon points="2.5,1.5 3.1,1.5 3.1,3.4 3.8,4.1 3.8,1.5 4.4,1.5 4.4,4.1 5,3.4 5,1.5 5.7,1.5 5.7,4.7 5,4.7 4.4,5.4 4.4,10.5 
			3.8,10.5 3.8,5.4 3.1,4.7 2.5,4.7 		"/>
	</g>
</g>
<g id="icons">
	<g>
		<polygon fill="#FFFFFF" points="8.4,1 9,2 9,8.5 8.4,10 7.8,10 7.8,6.1 7.1,6.1 7.1,2 7.8,1 		"/>
		<polygon fill="#FFFFFF" points="2,1 2.6,1 2.6,2.9 3.3,3.6 3.3,1 3.9,1 3.9,3.6 4.5,2.9 4.5,1 5.2,1 5.2,4.2 4.5,4.2 3.9,4.9 
			3.9,10 3.3,10 3.3,4.9 2.6,4.2 2,4.2 		"/>
	</g>
</g>
<g id="guides">
</g>
</svg>
