<?xml version="1.0" encoding="UTF-8" standalone="no"?>
<svg width="12px" height="12px" viewBox="0 0 12 12" version="1.1" xmlns="http://www.w3.org/2000/svg" xmlns:xlink="http://www.w3.org/1999/xlink" xmlns:sketch="http://www.bohemiancoding.com/sketch/ns">
    <!-- Generator: Sketch 3.2.2 (9983) - http://www.bohemiancoding.com/sketch -->
    <title>four-wheel-drive-road-black-12</title>
    <desc>Created with Sketch.</desc>
    <defs></defs>
    <g id="Page-1" stroke="none" stroke-width="1" fill="none" fill-rule="evenodd" sketch:type="MSPage">
        <g id="Fill-196-+-Fill-197-+-Fill-198" sketch:type="MSLayerGroup" transform="translate(2.000000, 4.477686)" fill-opacity="0.1" fill="#0A0B09">
            <path d="M0.134047059,4.74689342 L0.134047059,1.90612207 L2.95757647,1.90612207 L4.36934118,3.32650774 L5.07522353,3.32650774 L6.48698824,1.90612207 L5.78110588,0.485736391 L6.48698824,0.485736391 L7.19287059,1.90612207 L9.31051765,1.90612207 L9.31051765,2.6163149 L10.0164,3.32650774 L10.0164,4.74689342 L9.31051765,4.74689342 L9.31051765,4.03670058 L8.60463529,4.03670058 L8.60463529,3.32650774 L7.19287059,3.32650774 L7.19287059,4.03670058 L6.48698824,4.03670058 L6.48698824,4.74689342 L3.66345882,4.74689342 L3.66345882,4.03670058 L2.95757647,4.03670058 L2.95757647,3.32650774 L1.54581176,3.32650774 L1.54581176,4.03670058 L0.839929412,4.03670058 L0.839929412,4.74689342 L0.134047059,4.74689342" id="Fill-196" sketch:type="MSShapeGroup"></path>
            <path d="M1.54581176,4.03670058 L2.95757647,4.03670058 L2.95757647,5.45708625 L1.54581176,5.45708625 L1.54581176,4.03670058 Z" id="Fill-197" sketch:type="MSShapeGroup"></path>
            <path d="M7.19287059,4.03670058 L8.60463529,4.03670058 L8.60463529,5.45708625 L7.19287059,5.45708625 L7.19287059,4.03670058 Z" id="Fill-198" sketch:type="MSShapeGroup"></path>
        </g>
        <g id="Fill-196-+-Fill-197-+-Fill-198" sketch:type="MSLayerGroup" transform="translate(1.000000, 3.477686)" fill="#0A0B09" opacity="0.2">
            <path d="M0.134047059,4.74689342 L0.134047059,1.90612207 L2.95757647,1.90612207 L4.36934118,3.32650774 L5.07522353,3.32650774 L6.48698824,1.90612207 L5.78110588,0.485736391 L6.48698824,0.485736391 L7.19287059,1.90612207 L9.31051765,1.90612207 L9.31051765,2.6163149 L10.0164,3.32650774 L10.0164,4.74689342 L9.31051765,4.74689342 L9.31051765,4.03670058 L8.60463529,4.03670058 L8.60463529,3.32650774 L7.19287059,3.32650774 L7.19287059,4.03670058 L6.48698824,4.03670058 L6.48698824,4.74689342 L3.66345882,4.74689342 L3.66345882,4.03670058 L2.95757647,4.03670058 L2.95757647,3.32650774 L1.54581176,3.32650774 L1.54581176,4.03670058 L0.839929412,4.03670058 L0.839929412,4.74689342 L0.134047059,4.74689342" id="Fill-196" sketch:type="MSShapeGroup"></path>
            <path d="M1.54581176,4.03670058 L2.95757647,4.03670058 L2.95757647,5.45708625 L1.54581176,5.45708625 L1.54581176,4.03670058 Z" id="Fill-197" sketch:type="MSShapeGroup"></path>
            <path d="M7.19287059,4.03670058 L8.60463529,4.03670058 L8.60463529,5.45708625 L7.19287059,5.45708625 L7.19287059,4.03670058 Z" id="Fill-198" sketch:type="MSShapeGroup"></path>
        </g>
        <g id="Fill-196-+-Fill-197-+-Fill-198" sketch:type="MSLayerGroup" transform="translate(0.000000, 2.477686)" fill="#0A0B09">
            <path d="M0.134047059,4.74689342 L0.134047059,1.90612207 L2.95757647,1.90612207 L4.36934118,3.32650774 L5.07522353,3.32650774 L6.48698824,1.90612207 L5.78110588,0.485736391 L6.48698824,0.485736391 L7.19287059,1.90612207 L9.31051765,1.90612207 L9.31051765,2.6163149 L10.0164,3.32650774 L10.0164,4.74689342 L9.31051765,4.74689342 L9.31051765,4.03670058 L8.60463529,4.03670058 L8.60463529,3.32650774 L7.19287059,3.32650774 L7.19287059,4.03670058 L6.48698824,4.03670058 L6.48698824,4.74689342 L3.66345882,4.74689342 L3.66345882,4.03670058 L2.95757647,4.03670058 L2.95757647,3.32650774 L1.54581176,3.32650774 L1.54581176,4.03670058 L0.839929412,4.03670058 L0.839929412,4.74689342 L0.134047059,4.74689342" id="Fill-196" sketch:type="MSShapeGroup"></path>
            <path d="M1.54581176,4.03670058 L2.95757647,4.03670058 L2.95757647,5.45708625 L1.54581176,5.45708625 L1.54581176,4.03670058 Z" id="Fill-197" sketch:type="MSShapeGroup"></path>
            <path d="M7.19287059,4.03670058 L8.60463529,4.03670058 L8.60463529,5.45708625 L7.19287059,5.45708625 L7.19287059,4.03670058 Z" id="Fill-198" sketch:type="MSShapeGroup"></path>
        </g>
    </g>
</svg>