<?xml version="1.0" encoding="utf-8"?>
<!-- Generator: Adobe Illustrator 18.1.1, SVG Export Plug-In . SVG Version: 6.00 Build 0)  -->
<svg version="1.1" xmlns="http://www.w3.org/2000/svg" xmlns:xlink="http://www.w3.org/1999/xlink" x="0px" y="0px"
	 viewBox="0 0 12 12" enable-background="new 0 0 12 12" xml:space="preserve">
<g id="shadows">
	<g opacity="0.2">
		<polygon points="2.5,7.6 2.5,5 5.1,5 6.4,6.3 7,6.3 8.3,5 7.6,3.8 8.3,3.8 8.9,5 10.9,5 10.9,5.7 11.5,6.3 11.5,7.6 10.9,7.6 
			10.9,7 10.2,7 10.2,6.3 8.9,6.3 8.9,7 8.3,7 8.3,7.6 5.7,7.6 5.7,7 5.1,7 5.1,6.3 3.8,6.3 3.8,7 3.1,7 3.1,7.6 		"/>
		<rect x="3.8" y="7" width="1.3" height="1.3"/>
		<rect x="8.9" y="7" width="1.3" height="1.3"/>
	</g>
</g>
<g id="icons">
	<g>
		<polygon fill="#FFFFFF" points="2,7.1 2,4.5 4.6,4.5 5.9,5.8 6.5,5.8 7.8,4.5 7.1,3.2 7.8,3.2 8.4,4.5 10.4,4.5 10.4,5.2 11,5.8 
			11,7.1 10.4,7.1 10.4,6.5 9.7,6.5 9.7,5.8 8.4,5.8 8.4,6.5 7.8,6.5 7.8,7.1 5.2,7.1 5.2,6.5 4.6,6.5 4.6,5.8 3.3,5.8 3.3,6.5 
			2.6,6.5 2.6,7.1 		"/>
		<rect x="3.3" y="6.5" fill="#FFFFFF" width="1.3" height="1.3"/>
		<rect x="8.4" y="6.5" fill="#FFFFFF" width="1.3" height="1.3"/>
	</g>
</g>
<g id="guides">
</g>
</svg>
