<?xml version="1.0" encoding="utf-8"?>
<!-- Generator: Adobe Illustrator 18.1.1, SVG Export Plug-In . SVG Version: 6.00 Build 0)  -->
<svg version="1.1" xmlns="http://www.w3.org/2000/svg" xmlns:xlink="http://www.w3.org/1999/xlink" x="0px" y="0px"
	 viewBox="0 0 24 24" enable-background="new 0 0 24 24" xml:space="preserve">
<g id="shadows">
	<g opacity="0.2">
		<polygon points="21.2,12.9 21.2,10.6 16.6,10.6 15,8.2 14.3,8.2 15.8,10.6 14.3,12.1 12,12.1 10.4,10.6 5,10.6 5,15.2 5.8,15.2 
			6.5,15.2 6.5,14.4 6.5,13.7 7.3,13.7 7.3,12.9 10.4,12.9 10.4,13.7 11.2,13.7 11.2,14.4 11.2,15.2 12,15.2 15,15.2 15.8,15.2 
			15.8,14.4 15.8,13.7 16.6,13.7 16.6,12.9 19.7,12.9 19.7,13.7 20.5,13.7 20.5,14.4 20.5,15.2 21.2,15.2 22,15.2 22,13.7 		"/>
		<path d="M8.9,13.7c-0.9,0-1.5,0.7-1.5,1.5s0.7,1.5,1.5,1.5c0.9,0,1.5-0.7,1.5-1.5S9.7,13.7,8.9,13.7z M9.6,15.5
			c0,0.2-0.2,0.4-0.4,0.4H8.5c-0.2,0-0.4-0.2-0.4-0.4v-0.7c0-0.2,0.2-0.4,0.4-0.4h0.7c0.2,0,0.4,0.2,0.4,0.4V15.5z"/>
		<path d="M18.1,13.7c-0.9,0-1.5,0.7-1.5,1.5s0.7,1.5,1.5,1.5c0.9,0,1.5-0.7,1.5-1.5S19,13.7,18.1,13.7z M18.9,15.5
			c0,0.2-0.2,0.4-0.4,0.4h-0.7c-0.2,0-0.4-0.2-0.4-0.4v-0.7c0-0.2,0.2-0.4,0.4-0.4h0.7c0.2,0,0.4,0.2,0.4,0.4V15.5z"/>
	</g>
</g>
<g id="icons">
	<g>
		<polygon fill="#FFFFFF" points="20.2,11.9 20.2,9.6 15.6,9.6 14,7.2 13.3,7.2 14.8,9.6 13.3,11.1 11,11.1 9.4,9.6 4,9.6 4,14.2 
			4.8,14.2 5.5,14.2 5.5,13.4 5.5,12.7 6.3,12.7 6.3,11.9 9.4,11.9 9.4,12.7 10.2,12.7 10.2,13.4 10.2,14.2 11,14.2 14,14.2 
			14.8,14.2 14.8,13.4 14.8,12.7 15.6,12.7 15.6,11.9 18.7,11.9 18.7,12.7 19.5,12.7 19.5,13.4 19.5,14.2 20.2,14.2 21,14.2 
			21,12.7 		"/>
		<path fill="#FFFFFF" d="M7.9,12.7c-0.9,0-1.5,0.7-1.5,1.5c0,0.9,0.7,1.5,1.5,1.5c0.9,0,1.5-0.7,1.5-1.5
			C9.4,13.4,8.7,12.7,7.9,12.7z M8.6,14.5c0,0.2-0.2,0.4-0.4,0.4H7.5c-0.2,0-0.4-0.2-0.4-0.4v-0.7c0-0.2,0.2-0.4,0.4-0.4h0.7
			c0.2,0,0.4,0.2,0.4,0.4V14.5z"/>
		<path fill="#FFFFFF" d="M17.1,12.7c-0.9,0-1.5,0.7-1.5,1.5c0,0.9,0.7,1.5,1.5,1.5c0.9,0,1.5-0.7,1.5-1.5
			C18.7,13.4,18,12.7,17.1,12.7z M17.9,14.5c0,0.2-0.2,0.4-0.4,0.4h-0.7c-0.2,0-0.4-0.2-0.4-0.4v-0.7c0-0.2,0.2-0.4,0.4-0.4h0.7
			c0.2,0,0.4,0.2,0.4,0.4V14.5z"/>
	</g>
</g>
<g id="guides">
</g>
</svg>
