<?xml version="1.0" encoding="utf-8"?>
<!-- Generator: Adobe Illustrator 18.1.1, SVG Export Plug-In . SVG Version: 6.00 Build 0)  -->
<svg version="1.1" xmlns="http://www.w3.org/2000/svg" xmlns:xlink="http://www.w3.org/1999/xlink" x="0px" y="0px"
	 viewBox="0 0 18 18" enable-background="new 0 0 18 18" xml:space="preserve">
<g id="shadows">
	<g opacity="0.2">
		<polygon points="3.7,11.6 3.7,7.9 7.5,7.9 9.3,9.7 10.2,9.7 12.1,7.9 11.2,6 12.1,6 13,7.9 15.8,7.9 15.8,8.8 16.8,9.7 16.8,11.6 
			15.8,11.6 15.8,10.6 14.9,10.6 14.9,9.7 13,9.7 13,10.6 12.1,10.6 12.1,11.6 8.4,11.6 8.4,10.6 7.5,10.6 7.5,9.7 5.6,9.7 
			5.6,10.6 4.7,10.6 4.7,11.6 		"/>
		<rect x="5.6" y="10.6" width="1.9" height="1.9"/>
		<rect x="13" y="10.6" width="1.9" height="1.9"/>
	</g>
</g>
<g id="icons">
	<g>
		<polygon fill="#FFFFFF" points="3,10.8 3,7.1 6.7,7.1 8.6,9 9.5,9 11.4,7.1 10.4,5.2 11.4,5.2 12.3,7.1 15.1,7.1 15.1,8 16,9 
			16,10.8 15.1,10.8 15.1,9.9 14.1,9.9 14.1,9 12.3,9 12.3,9.9 11.4,9.9 11.4,10.8 7.6,10.8 7.6,9.9 6.7,9.9 6.7,9 4.9,9 4.9,9.9 
			3.9,9.9 3.9,10.8 		"/>
		<rect x="4.9" y="9.9" fill="#FFFFFF" width="1.9" height="1.9"/>
		<rect x="12.3" y="9.9" fill="#FFFFFF" width="1.9" height="1.9"/>
	</g>
</g>
<g id="guides">
</g>
</svg>
