<?xml version="1.0" encoding="utf-8"?>
<!-- Generator: Adobe Illustrator 18.1.1, SVG Export Plug-In . SVG Version: 6.00 Build 0)  -->
<svg version="1.1" xmlns="http://www.w3.org/2000/svg" xmlns:xlink="http://www.w3.org/1999/xlink" x="0px" y="0px"
	 viewBox="0 0 12 12" enable-background="new 0 0 12 12" xml:space="preserve">
<g id="shadows">
	<g opacity="0.2">
		<polygon points="1.5,7.6 1.5,5 4.1,5 5.4,6.3 6,6.3 7.3,5 6.6,3.8 7.3,3.8 7.9,5 9.9,5 9.9,5.7 10.5,6.3 10.5,7.6 9.9,7.6 9.9,7 
			9.2,7 9.2,6.3 7.9,6.3 7.9,7 7.3,7 7.3,7.6 4.7,7.6 4.7,7 4.1,7 4.1,6.3 2.8,6.3 2.8,7 2.1,7 2.1,7.6 		"/>
		<rect x="2.8" y="7" width="1.3" height="1.3"/>
		<rect x="7.9" y="7" width="1.3" height="1.3"/>
	</g>
</g>
<g id="icons">
	<g>
		<polygon fill="#FFFFFF" points="1,7.1 1,4.5 3.6,4.5 4.9,5.8 5.5,5.8 6.8,4.5 6.1,3.2 6.8,3.2 7.4,4.5 9.4,4.5 9.4,5.2 10,5.8 
			10,7.1 9.4,7.1 9.4,6.5 8.7,6.5 8.7,5.8 7.4,5.8 7.4,6.5 6.8,6.5 6.8,7.1 4.2,7.1 4.2,6.5 3.6,6.5 3.6,5.8 2.3,5.8 2.3,6.5 
			1.6,6.5 1.6,7.1 		"/>
		<rect x="2.3" y="6.5" fill="#FFFFFF" width="1.3" height="1.3"/>
		<rect x="7.4" y="6.5" fill="#FFFFFF" width="1.3" height="1.3"/>
	</g>
</g>
<g id="guides">
</g>
</svg>
