<?xml version="1.0" encoding="UTF-8" standalone="no"?>
<svg width="18px" height="18px" viewBox="0 0 18 18" version="1.1" xmlns="http://www.w3.org/2000/svg" xmlns:xlink="http://www.w3.org/1999/xlink" xmlns:sketch="http://www.bohemiancoding.com/sketch/ns">
    <!-- Generator: Sketch 3.2.2 (9983) - http://www.bohemiancoding.com/sketch -->
    <title>four-wheel-drive-road-black-18</title>
    <desc>Created with Sketch.</desc>
    <defs></defs>
    <g id="Page-1" stroke="none" stroke-width="1" fill="none" fill-rule="evenodd" sketch:type="MSPage">
        <path d="M17.5555556,8.74218962 L17.5555556,6.55229557 L13.1111111,6.55229557 L11.6296296,4.36240152 L10.8888889,4.36240152 L12.3703704,6.55229557 L10.8888889,8.01222494 L8.66666667,8.01222494 L7.18518519,6.55229557 L2,6.55229557 L2,10.9320837 L3.48148148,10.9320837 L3.48148148,9.47215431 L4.22222222,9.47215431 L4.22222222,8.74218962 L7.18518519,8.74218962 L7.18518519,9.47215431 L7.92592593,9.47215431 L7.92592593,10.9320837 L12.3703704,10.9320837 L12.3703704,9.47215431 L13.1111111,9.47215431 L13.1111111,8.74218962 L16.0740741,8.74218962 L16.0740741,9.47215431 L16.8148148,9.47215431 L16.8148148,10.9320837 L18.2962963,10.9320837 L18.2962963,9.47215431 L17.5555556,8.74218962" id="Fill-193" opacity="0.1" fill="#0A0B09" sketch:type="MSShapeGroup"></path>
        <path d="M6.44444444,11.2532681 C6.44444444,11.4795572 6.25925926,11.6620484 6.02962963,11.6620484 L5.37777778,11.6620484 C5.14814815,11.6620484 4.96296296,11.4795572 4.96296296,11.2532681 L4.96296296,10.6181989 C4.96296296,10.3919098 5.14814815,10.202119 5.37777778,10.202119 L6.02962963,10.202119 C6.25925926,10.202119 6.44444444,10.3919098 6.44444444,10.6181989 L6.44444444,11.2532681 L6.44444444,11.2532681 Z M5.7037037,9.47215431 C4.88888889,9.47215431 4.22222222,10.1291225 4.22222222,10.9320837 C4.22222222,11.7423445 4.88888889,12.392013 5.7037037,12.392013 C6.51851852,12.392013 7.18518519,11.7423445 7.18518519,10.9320837 C7.18518519,10.1291225 6.51851852,9.47215431 5.7037037,9.47215431 L5.7037037,9.47215431 Z" id="Fill-194" opacity="0.1" fill="#0A0B09" sketch:type="MSShapeGroup"></path>
        <path d="M15.3333333,11.2532681 C15.3333333,11.4795572 15.1481481,11.6620484 14.9185185,11.6620484 L14.2666667,11.6620484 C14.037037,11.6620484 13.8518519,11.4795572 13.8518519,11.2532681 L13.8518519,10.6181989 C13.8518519,10.3919098 14.037037,10.202119 14.2666667,10.202119 L14.9185185,10.202119 C15.1481481,10.202119 15.3333333,10.3919098 15.3333333,10.6181989 L15.3333333,11.2532681 L15.3333333,11.2532681 Z M14.5925926,9.47215431 C13.7777778,9.47215431 13.1111111,10.1291225 13.1111111,10.9320837 C13.1111111,11.7423445 13.7777778,12.392013 14.5925926,12.392013 C15.4074074,12.392013 16.0740741,11.7423445 16.0740741,10.9320837 C16.0740741,10.1291225 15.4074074,9.47215431 14.5925926,9.47215431 L14.5925926,9.47215431 Z" id="Fill-195" opacity="0.1" fill="#0A0B09" sketch:type="MSShapeGroup"></path>
        <path d="M16.5555556,7.74218962 L16.5555556,5.55229557 L12.1111111,5.55229557 L10.6296296,3.36240152 L9.88888889,3.36240152 L11.3703704,5.55229557 L9.88888889,7.01222494 L7.66666667,7.01222494 L6.18518519,5.55229557 L1,5.55229557 L1,9.93208367 L2.48148148,9.93208367 L2.48148148,8.47215431 L3.22222222,8.47215431 L3.22222222,7.74218962 L6.18518519,7.74218962 L6.18518519,8.47215431 L6.92592593,8.47215431 L6.92592593,9.93208367 L11.3703704,9.93208367 L11.3703704,8.47215431 L12.1111111,8.47215431 L12.1111111,7.74218962 L15.0740741,7.74218962 L15.0740741,8.47215431 L15.8148148,8.47215431 L15.8148148,9.93208367 L17.2962963,9.93208367 L17.2962963,8.47215431 L16.5555556,7.74218962" id="Fill-193" opacity="0.2" fill="#0A0B09" sketch:type="MSShapeGroup"></path>
        <path d="M5.44444444,10.2532681 C5.44444444,10.4795572 5.25925926,10.6620484 5.02962963,10.6620484 L4.37777778,10.6620484 C4.14814815,10.6620484 3.96296296,10.4795572 3.96296296,10.2532681 L3.96296296,9.61819886 C3.96296296,9.39190981 4.14814815,9.20211899 4.37777778,9.20211899 L5.02962963,9.20211899 C5.25925926,9.20211899 5.44444444,9.39190981 5.44444444,9.61819886 L5.44444444,10.2532681 L5.44444444,10.2532681 Z M4.7037037,8.47215431 C3.88888889,8.47215431 3.22222222,9.12912252 3.22222222,9.93208367 C3.22222222,10.7423445 3.88888889,11.392013 4.7037037,11.392013 C5.51851852,11.392013 6.18518519,10.7423445 6.18518519,9.93208367 C6.18518519,9.12912252 5.51851852,8.47215431 4.7037037,8.47215431 L4.7037037,8.47215431 Z" id="Fill-194" opacity="0.2" fill="#0A0B09" sketch:type="MSShapeGroup"></path>
        <path d="M14.3333333,10.2532681 C14.3333333,10.4795572 14.1481481,10.6620484 13.9185185,10.6620484 L13.2666667,10.6620484 C13.037037,10.6620484 12.8518519,10.4795572 12.8518519,10.2532681 L12.8518519,9.61819886 C12.8518519,9.39190981 13.037037,9.20211899 13.2666667,9.20211899 L13.9185185,9.20211899 C14.1481481,9.20211899 14.3333333,9.39190981 14.3333333,9.61819886 L14.3333333,10.2532681 L14.3333333,10.2532681 Z M13.5925926,8.47215431 C12.7777778,8.47215431 12.1111111,9.12912252 12.1111111,9.93208367 C12.1111111,10.7423445 12.7777778,11.392013 13.5925926,11.392013 C14.4074074,11.392013 15.0740741,10.7423445 15.0740741,9.93208367 C15.0740741,9.12912252 14.4074074,8.47215431 13.5925926,8.47215431 L13.5925926,8.47215431 Z" id="Fill-195" opacity="0.2" fill="#0A0B09" sketch:type="MSShapeGroup"></path>
        <path d="M15.5555556,6.74218962 L15.5555556,4.55229557 L11.1111111,4.55229557 L9.62962963,2.36240152 L8.88888889,2.36240152 L10.3703704,4.55229557 L8.88888889,6.01222494 L6.66666667,6.01222494 L5.18518519,4.55229557 L0,4.55229557 L0,8.93208367 L1.48148148,8.93208367 L1.48148148,7.47215431 L2.22222222,7.47215431 L2.22222222,6.74218962 L5.18518519,6.74218962 L5.18518519,7.47215431 L5.92592593,7.47215431 L5.92592593,8.93208367 L10.3703704,8.93208367 L10.3703704,7.47215431 L11.1111111,7.47215431 L11.1111111,6.74218962 L14.0740741,6.74218962 L14.0740741,7.47215431 L14.8148148,7.47215431 L14.8148148,8.93208367 L16.2962963,8.93208367 L16.2962963,7.47215431 L15.5555556,6.74218962" id="Fill-193" fill="#0A0B09" sketch:type="MSShapeGroup"></path>
        <path d="M4.44444444,9.25326813 C4.44444444,9.47955719 4.25925926,9.66204836 4.02962963,9.66204836 L3.37777778,9.66204836 C3.14814815,9.66204836 2.96296296,9.47955719 2.96296296,9.25326813 L2.96296296,8.61819886 C2.96296296,8.39190981 3.14814815,8.20211899 3.37777778,8.20211899 L4.02962963,8.20211899 C4.25925926,8.20211899 4.44444444,8.39190981 4.44444444,8.61819886 L4.44444444,9.25326813 L4.44444444,9.25326813 Z M3.7037037,7.47215431 C2.88888889,7.47215431 2.22222222,8.12912252 2.22222222,8.93208367 C2.22222222,9.74234447 2.88888889,10.392013 3.7037037,10.392013 C4.51851852,10.392013 5.18518519,9.74234447 5.18518519,8.93208367 C5.18518519,8.12912252 4.51851852,7.47215431 3.7037037,7.47215431 L3.7037037,7.47215431 Z" id="Fill-194" fill="#0A0B09" sketch:type="MSShapeGroup"></path>
        <path d="M13.3333333,9.25326813 C13.3333333,9.47955719 13.1481481,9.66204836 12.9185185,9.66204836 L12.2666667,9.66204836 C12.037037,9.66204836 11.8518519,9.47955719 11.8518519,9.25326813 L11.8518519,8.61819886 C11.8518519,8.39190981 12.037037,8.20211899 12.2666667,8.20211899 L12.9185185,8.20211899 C13.1481481,8.20211899 13.3333333,8.39190981 13.3333333,8.61819886 L13.3333333,9.25326813 L13.3333333,9.25326813 Z M12.5925926,7.47215431 C11.7777778,7.47215431 11.1111111,8.12912252 11.1111111,8.93208367 C11.1111111,9.74234447 11.7777778,10.392013 12.5925926,10.392013 C13.4074074,10.392013 14.0740741,9.74234447 14.0740741,8.93208367 C14.0740741,8.12912252 13.4074074,7.47215431 12.5925926,7.47215431 L12.5925926,7.47215431 Z" id="Fill-195" fill="#0A0B09" sketch:type="MSShapeGroup"></path>
    </g>
</svg>