<?xml version="1.0" encoding="UTF-8" standalone="no"?>
<!-- Created with Inkscape (http://www.inkscape.org/) -->

<svg
   xmlns:dc="http://purl.org/dc/elements/1.1/"
   xmlns:cc="http://creativecommons.org/ns#"
   xmlns:rdf="http://www.w3.org/1999/02/22-rdf-syntax-ns#"
   xmlns:svg="http://www.w3.org/2000/svg"
   xmlns="http://www.w3.org/2000/svg"
   xmlns:inkscape="http://www.inkscape.org/namespaces/inkscape"
   version="1.1"
   width="12"
   height="12"
   id="svg4764">
  <defs
     id="defs4766" />
  <metadata
     id="metadata4769">
    <rdf:RDF>
      <cc:Work
         rdf:about="">
        <dc:format>image/svg+xml</dc:format>
        <dc:type
           rdf:resource="http://purl.org/dc/dcmitype/StillImage" />
        <dc:title />
      </cc:Work>
    </rdf:RDF>
  </metadata>
  <g
     transform="translate(0,-1040.3622)"
     id="layer1">
    <g
       transform="translate(-126,-130)"
       id="fuel-12"
       style="display:inline">
      <g
         id="g21802">
        <path
           d="m 130.5,1171.3622 c -0.27701,0 -0.5,0.223 -0.5,0.5 l 0,8 c 0,0.25 0.25,0.5 0.5,0.5 l 4,0 c 0.25,0 0.5,-0.25 0.5,-0.5 l 0,-0.5 1.25,0 c 0.5,0 0.75,-0.25 0.75,-0.75 l 0,-2.75 c 0,-0.5 -1,-1 -1,-1.5 l 0,-0.25 0,-0.75 -1,-1 0,-0.5 c 0,-0.277 -0.223,-0.5 -0.5,-0.5 l -4,0 z m 0.5,1 3,0 0,2 -3,0 0,-2 z m 4,1.5 0.5,0 0,0.75 c 0,0.5 1,1 1,1.5 l 0,2.25 0,0.25 c 0,0.25 -0.25,0.25 -0.25,0.25 l -0.75,0 0,-1.5 -0.5,0 0,-3.5 z"
           inkscape:connector-curvature="0"
           id="path9111"
           style="opacity:0.3;color:#000000;fill:#ffffff;fill-opacity:1;fill-rule:nonzero;stroke:#ffffff;stroke-width:2;stroke-linecap:butt;stroke-linejoin:round;stroke-miterlimit:4;stroke-opacity:1;stroke-dasharray:none;stroke-dashoffset:0;marker:none;visibility:visible;display:inline;overflow:visible;enable-background:accumulate" />
        <path
           d="m 130.5,1171.3622 c -0.27701,0 -0.5,0.223 -0.5,0.5 l 0,8 c 0,0.25 0.25,0.5 0.5,0.5 l 4,0 c 0.25,0 0.5,-0.25 0.5,-0.5 l 0,-0.5 1.25,0 c 0.5,0 0.75,-0.25 0.75,-0.75 l 0,-2.75 c 0,-0.5 -1,-1 -1,-1.5 l 0,-0.25 0,-0.75 -1,-1 0,-0.5 c 0,-0.277 -0.223,-0.5 -0.5,-0.5 l -4,0 z m 0.5,1 3,0 0,2 -3,0 0,-2 z m 4,1.5 0.5,0 0,0.75 c 0,0.5 1,1 1,1.5 l 0,2.25 0,0.25 c 0,0.25 -0.25,0.25 -0.25,0.25 l -0.75,0 0,-1.5 -0.5,0 0,-3.5 z"
           inkscape:connector-curvature="0"
           id="rect7223-2-4-9-3"
           style="color:#000000;fill:#444444;fill-opacity:1;fill-rule:nonzero;stroke:none;stroke-width:2;marker:none;visibility:visible;display:inline;overflow:visible;enable-background:accumulate" />
      </g>
    </g>
  </g>
  <rect
     width="12"
     height="12"
     x="0"
     y="0"
     id="canvas"
     style="fill:none;stroke:none;visibility:hidden" />
</svg>
