<?xml version="1.0" encoding="utf-8"?>
<!-- Generator: Adobe Illustrator 18.1.1, SVG Export Plug-In . SVG Version: 6.00 Build 0)  -->
<svg version="1.1" xmlns="http://www.w3.org/2000/svg" xmlns:xlink="http://www.w3.org/1999/xlink" x="0px" y="0px"
	 viewBox="0 0 12 12" enable-background="new 0 0 12 12" xml:space="preserve">
<g id="shadows-text-objects" display="none">
	<text transform="matrix(1 0 0 1 2.751 9.142)" display="inline" opacity="0.2" font-family="'FrutigerLTStd-Roman'" font-size="9">G</text>
</g>
<g id="letters-text-objects" display="none">
	<text transform="matrix(1 0 0 1 2.251 8.6418)" display="inline" font-family="'FrutigerLTStd-Roman'" font-size="9">G</text>
</g>
<g id="shadows-outlines">
	<g opacity="0.2">
		<path d="M8.323,3.975c-0.44-0.288-0.918-0.433-1.729-0.433C5.146,3.542,4.183,4.596,4.183,6c0,1.477,1.062,2.457,2.367,2.457
			c0.621,0,0.783-0.062,1.009-0.107V6.44H6.235V5.702h2.224v3.269C8.116,9.088,7.522,9.25,6.541,9.25
			c-1.989,0-3.312-1.278-3.312-3.277c0-1.936,1.404-3.223,3.321-3.223c0.919,0,1.323,0.135,1.846,0.315L8.323,3.975z"/>
	</g>
</g>
<g id="letters-outlines">
	<g>
		<path d="M7.823,3.475c-0.44-0.288-0.918-0.433-1.729-0.433c-1.449,0-2.412,1.054-2.412,2.458c0,1.477,1.062,2.457,2.367,2.457
			c0.621,0,0.783-0.062,1.009-0.107V5.94H5.734V5.202h2.225v3.269C7.616,8.588,7.022,8.75,6.041,8.75
			c-1.989,0-3.312-1.278-3.312-3.277c0-1.936,1.404-3.223,3.321-3.223c0.919,0,1.323,0.135,1.846,0.315L7.823,3.475z"/>
	</g>
</g>
<g id="guides_and_set-up" display="none">
</g>
</svg>
