<?xml version="1.0" encoding="utf-8"?>
<!-- Generator: Adobe Illustrator 18.1.1, SVG Export Plug-In . SVG Version: 6.00 Build 0)  -->
<svg version="1.1" xmlns="http://www.w3.org/2000/svg" xmlns:xlink="http://www.w3.org/1999/xlink" x="0px" y="0px"
	 viewBox="0 0 24 24" enable-background="new 0 0 24 24" xml:space="preserve">
<g id="shadows-text-objects" display="none">
	
		<text transform="matrix(1 0 0 1 7.3632 18.4326)" display="inline" opacity="0.2" font-family="'FrutigerLTStd-Bold'" font-size="17">G</text>
</g>
<g id="letters-text-objects" display="none">
	<text transform="matrix(1 0 0 1 6.3633 17.4329)" display="inline" font-family="'FrutigerLTStd-Bold'" font-size="17">G</text>
</g>
<g id="shadows-outlines">
	<g opacity="0.2">
		<path d="M18.004,8.863c-0.918-0.426-2.107-0.63-3.06-0.63c-2.771,0-4.3,1.87-4.3,4.301c0,2.414,1.496,4.232,4.029,4.232
			c0.646,0,1.155-0.067,1.563-0.17v-3.094h-2.516v-1.87h4.793v6.392c-1.258,0.34-2.566,0.612-3.841,0.612
			c-3.842,0-6.511-1.921-6.511-5.933c0-4.062,2.482-6.341,6.511-6.341c1.377,0,2.465,0.188,3.484,0.494L18.004,8.863z"/>
	</g>
</g>
<g id="letters-outlines">
	<g>
		<path d="M16.885,7.676c-0.832-0.544-1.733-0.815-3.264-0.815c-2.736,0-4.555,1.988-4.555,4.64c0,2.788,2.006,4.641,4.47,4.641
			c1.173,0,1.479-0.119,1.904-0.204v-3.604h-2.499v-1.394h4.199v6.17c-0.646,0.222-1.769,0.527-3.621,0.527
			c-3.757,0-6.255-2.414-6.255-6.188c0-3.654,2.652-6.085,6.272-6.085c1.734,0,2.499,0.255,3.485,0.595L16.885,7.676z"/>
	</g>
	<g>
		<path d="M17.004,7.863c-0.918-0.426-2.107-0.63-3.06-0.63c-2.771,0-4.3,1.87-4.3,4.301c0,2.414,1.496,4.232,4.029,4.232
			c0.646,0,1.155-0.067,1.563-0.17v-3.094h-2.516v-1.869h4.793v6.391c-1.258,0.34-2.566,0.612-3.841,0.612
			c-3.842,0-6.511-1.921-6.511-5.933c0-4.062,2.482-6.34,6.511-6.34c1.377,0,2.465,0.187,3.484,0.493L17.004,7.863z"/>
	</g>
</g>
<g id="guides_and_set-up" display="none">
</g>
</svg>
