<?xml version="1.0" encoding="utf-8"?>
<!-- Generator: Adobe Illustrator 18.1.1, SVG Export Plug-In . SVG Version: 6.00 Build 0)  -->
<svg version="1.1" xmlns="http://www.w3.org/2000/svg" xmlns:xlink="http://www.w3.org/1999/xlink" x="0px" y="0px"
	 viewBox="0 0 12 12" enable-background="new 0 0 12 12" xml:space="preserve">
<g id="shadows-text-objects" display="none">
	<text transform="matrix(1 0 0 1 2.251 9.142)" display="inline" opacity="0.2" font-family="'FrutigerLTStd-Bold'" font-size="9">G</text>
</g>
<g id="letters-text-objects" display="none">
	
		<text transform="matrix(1 0 0 1 1.751 8.6418)" display="inline" fill="#FFFFFF" font-family="'FrutigerLTStd-Bold'" font-size="9">G</text>
</g>
<g id="shadows-outlines">
	<g opacity="0.2">
		<path d="M7.887,4.073C7.4,3.849,6.771,3.74,6.267,3.74c-1.468,0-2.278,0.99-2.278,2.277c0,1.278,0.793,2.242,2.134,2.242
			c0.342,0,0.612-0.036,0.828-0.091V6.531H5.618v-0.99h2.538v3.385C7.49,9.105,6.797,9.25,6.122,9.25
			c-2.034,0-3.447-1.018-3.447-3.143c0-2.151,1.313-3.357,3.447-3.357c0.729,0,1.306,0.099,1.846,0.261L7.887,4.073z"/>
	</g>
</g>
<g id="letters-outlines">
	<g>
		<path fill="#FFFFFF" d="M7.323,3.475c-0.44-0.288-0.918-0.433-1.729-0.433c-1.449,0-2.412,1.054-2.412,2.458
			c0,1.477,1.062,2.457,2.367,2.457c0.621,0,0.783-0.062,1.009-0.107V5.94H5.234V5.202h2.225v3.269
			C7.116,8.588,6.522,8.75,5.541,8.75c-1.989,0-3.312-1.278-3.312-3.277c0-1.936,1.404-3.223,3.321-3.223
			c0.919,0,1.323,0.135,1.846,0.315L7.323,3.475z"/>
	</g>
	<g>
		<path fill="#FFFFFF" d="M7.387,3.573C6.9,3.349,6.271,3.24,5.767,3.24c-1.468,0-2.278,0.99-2.278,2.277
			c0,1.278,0.793,2.242,2.134,2.242c0.342,0,0.612-0.036,0.828-0.091V6.031H5.118v-0.99h2.538v3.385
			C6.99,8.605,6.297,8.75,5.622,8.75c-2.034,0-3.448-1.018-3.448-3.143c0-2.151,1.314-3.357,3.448-3.357
			c0.729,0,1.306,0.099,1.846,0.261L7.387,3.573z"/>
	</g>
</g>
<g id="guides_and_set-up" display="none">
</g>
</svg>
