<?xml version="1.0" encoding="utf-8"?>
<!-- Generator: Adobe Illustrator 18.1.1, SVG Export Plug-In . SVG Version: 6.00 Build 0)  -->
<svg version="1.1" xmlns="http://www.w3.org/2000/svg" xmlns:xlink="http://www.w3.org/1999/xlink" x="0px" y="0px"
	 viewBox="0 0 24 24" enable-background="new 0 0 24 24" xml:space="preserve">
<g id="shadows-text-objects" display="none">
	
		<text transform="matrix(1 0 0 1 7.3632 18.4326)" display="inline" opacity="0.2" font-family="'FrutigerLTStd-Roman'" font-size="17">G</text>
</g>
<g id="letters-text-objects" display="none">
	
		<text transform="matrix(1 0 0 1 6.3633 17.4329)" display="inline" fill="#FFFFFF" font-family="'FrutigerLTStd-Roman'" font-size="17">G</text>
</g>
<g id="shadows-outlines">
	<g opacity="0.2">
		<path d="M17.885,8.676c-0.832-0.544-1.733-0.816-3.264-0.816c-2.736,0-4.556,1.989-4.556,4.641c0,2.788,2.006,4.641,4.471,4.641
			c1.173,0,1.479-0.119,1.904-0.204v-3.604h-2.499v-1.394h4.199v6.17c-0.646,0.222-1.769,0.527-3.621,0.527
			c-3.757,0-6.256-2.414-6.256-6.188c0-3.654,2.652-6.086,6.272-6.086c1.734,0,2.499,0.256,3.485,0.596L17.885,8.676z"/>
	</g>
</g>
<g id="letters-outlines">
	<g>
		<path fill="#FFFFFF" d="M16.885,7.676c-0.832-0.544-1.733-0.815-3.264-0.815c-2.736,0-4.555,1.988-4.555,4.64
			c0,2.788,2.006,4.641,4.47,4.641c1.173,0,1.479-0.119,1.904-0.204v-3.604h-2.499v-1.394h4.199v6.17
			c-0.646,0.222-1.769,0.527-3.621,0.527c-3.757,0-6.256-2.414-6.256-6.188c0-3.654,2.652-6.085,6.272-6.085
			c1.734,0,2.499,0.255,3.485,0.595L16.885,7.676z"/>
	</g>
</g>
<g id="guides_and_set-up" display="none">
</g>
</svg>
