<?xml version="1.0" encoding="UTF-8" standalone="no"?>
<!-- Created with Inkscape (http://www.inkscape.org/) -->

<svg
   xmlns:dc="http://purl.org/dc/elements/1.1/"
   xmlns:cc="http://creativecommons.org/ns#"
   xmlns:rdf="http://www.w3.org/1999/02/22-rdf-syntax-ns#"
   xmlns:svg="http://www.w3.org/2000/svg"
   xmlns="http://www.w3.org/2000/svg"
   xmlns:inkscape="http://www.inkscape.org/namespaces/inkscape"
   version="1.1"
   width="18"
   height="18"
   id="svg4619">
  <defs
     id="defs4621" />
  <metadata
     id="metadata4624">
    <rdf:RDF>
      <cc:Work
         rdf:about="">
        <dc:format>image/svg+xml</dc:format>
        <dc:type
           rdf:resource="http://purl.org/dc/dcmitype/StillImage" />
        <dc:title />
      </cc:Work>
    </rdf:RDF>
  </metadata>
  <g
     transform="translate(0,-1034.3622)"
     id="layer1">
    <g
       transform="translate(-186,-160)"
       id="garden-18"
       style="display:inline">
      <path
         d="m 192,1196.3622 0,2.5 c 0,1.6504 1.375,2.5508 3,2.5 l 0,6.5 c -0.8125,-1.625 -2.5,-3.5 -5,-2.5 0,0 1.5,4 5.5,4 4,0 5.5,-4 5.5,-4 -2.5,-1 -4.1875,0.875 -5,2.5 l 0,-6.5 c 1.625,0.051 3,-0.8496 3,-2.5 l 0,-2.5 -2,2 -1.5,-2 -1.5,2 z"
         inkscape:connector-curvature="0"
         id="path12769"
         style="opacity:0.3;color:#000000;fill:#444444;fill-opacity:1;fill-rule:nonzero;stroke:#ffffff;stroke-width:2;stroke-linecap:round;stroke-linejoin:round;stroke-miterlimit:4;stroke-opacity:1;stroke-dasharray:none;stroke-dashoffset:0;marker:none;visibility:visible;display:inline;overflow:visible;enable-background:accumulate" />
      <g
         transform="translate(-123.49314,910.9719)"
         id="g3625-0-4">
        <path
           d="m 315.49314,285.3903 0,2.5 c 0,1.65038 1.375,2.55078 3,2.5 l 0,6.5 c -0.8125,-1.625 -2.5,-3.5 -5,-2.5 0,0 1.5,4 5.5,4 4,0 5.5,-4 5.5,-4 -2.5,-1 -4.1875,0.875 -5,2.5 l 0,-6.5 c 1.625,0.0508 3,-0.84962 3,-2.5 l 0,-2.49999 -2,1.99999 -1.5,-2 -1.5,2 z"
           inkscape:connector-curvature="0"
           id="path6080-4-1"
           style="color:#000000;fill:#444444;fill-opacity:1;fill-rule:nonzero;stroke:none;stroke-width:2;marker:none;visibility:visible;display:inline;overflow:visible;enable-background:accumulate" />
        <g
           transform="matrix(1.2,0,0,1,-48.6,2.000006)"
           id="g12232-6-0-5"
           style="display:inline">
          <g
             id="g12228-0-5-9" />
        </g>
      </g>
    </g>
  </g>
  <rect
     width="18"
     height="18"
     x="0"
     y="0"
     id="canvas"
     style="fill:none;stroke:none;visibility:hidden" />
</svg>
