<?xml version="1.0" encoding="UTF-8" standalone="no"?>
<!-- Created with Inkscape (http://www.inkscape.org/) -->

<svg
   xmlns:dc="http://purl.org/dc/elements/1.1/"
   xmlns:cc="http://creativecommons.org/ns#"
   xmlns:rdf="http://www.w3.org/1999/02/22-rdf-syntax-ns#"
   xmlns:svg="http://www.w3.org/2000/svg"
   xmlns="http://www.w3.org/2000/svg"
   xmlns:inkscape="http://www.inkscape.org/namespaces/inkscape"
   version="1.1"
   width="24"
   height="24"
   id="svg4460">
  <defs
     id="defs4462" />
  <metadata
     id="metadata4465">
    <rdf:RDF>
      <cc:Work
         rdf:about="">
        <dc:format>image/svg+xml</dc:format>
        <dc:type
           rdf:resource="http://purl.org/dc/dcmitype/StillImage" />
        <dc:title />
      </cc:Work>
    </rdf:RDF>
  </metadata>
  <g
     transform="translate(0,-1028.3622)"
     id="layer1">
    <g
       transform="translate(-162,-166)"
       id="garden-24"
       style="display:inline">
      <path
         d="m 170.3,1198.3622 c -0.253,0 -0.3,0.5596 -0.3,1 l 0,2 c 0,2.0312 2,3.0625 4,3 l 0,8 c -1,-2 -4,-5 -7,-4 0,0 2.5,6 7.5,6 5,0 7.5,-6 7.5,-6 -3,-1 -6,2 -7,4 l 0,-8 c 2,0.062 4,-0.9688 4,-3 l 0,-2 c 0,-0.4404 -0.0468,-1 -0.3,-1 -0.19292,0 -0.42562,0.2256 -0.7,0.5 l -1.5,1.5 -1.5,-1.6875 c -0.15657,-0.1761 -0.24696,-0.3125 -0.5,-0.3125 -0.25305,0 -0.34343,0.1364 -0.5,0.3125 l -1.5,1.6875 -1.5,-1.5 c -0.27438,-0.2744 -0.50708,-0.5 -0.7,-0.5 z"
         inkscape:connector-curvature="0"
         id="path15093"
         style="opacity:0.3;color:#000000;fill:#444444;fill-opacity:1;fill-rule:nonzero;stroke:#ffffff;stroke-width:2;stroke-linecap:round;stroke-linejoin:round;stroke-miterlimit:4;stroke-opacity:1;stroke-dasharray:none;stroke-dashoffset:0;marker:none;visibility:visible;display:inline;overflow:visible;enable-background:accumulate" />
      <path
         d="m 170.3,1198.3622 c -0.253,0 -0.3,0.5596 -0.3,1 l 0,2 c 0,2.0312 2,3.0625 4,3 l 0,8 c -1,-2 -4,-5 -7,-4 0,0 2.5,6 7.5,6 5,0 7.5,-6 7.5,-6 -3,-1 -6,2 -7,4 l 0,-8 c 2,0.062 4,-0.9688 4,-3 l 0,-2 c 0,-0.4404 -0.0468,-1 -0.3,-1 -0.19292,0 -0.42562,0.2256 -0.7,0.5 l -1.5,1.5 -1.5,-1.6875 c -0.15657,-0.1761 -0.24696,-0.3125 -0.5,-0.3125 -0.25305,0 -0.34343,0.1364 -0.5,0.3125 l -1.5,1.6875 -1.5,-1.5 c -0.27438,-0.2744 -0.50708,-0.5 -0.7,-0.5 z"
         inkscape:connector-curvature="0"
         id="path6080-4"
         style="color:#000000;fill:#444444;fill-opacity:1;fill-rule:nonzero;stroke:none;stroke-width:2;marker:none;visibility:visible;display:inline;overflow:visible;enable-background:accumulate" />
    </g>
  </g>
  <rect
     width="24"
     height="24"
     x="0"
     y="0"
     id="canvas"
     style="fill:none;stroke:none;visibility:hidden" />
</svg>
