<?xml version="1.0" encoding="utf-8"?>
<!-- Generator: Adobe Illustrator 18.1.1, SVG Export Plug-In . SVG Version: 6.00 Build 0)  -->
<svg version="1.1" xmlns="http://www.w3.org/2000/svg" xmlns:xlink="http://www.w3.org/1999/xlink" x="0px" y="0px"
	 viewBox="0 0 12 12" enable-background="new 0 0 12 12" xml:space="preserve">
<g id="shadows">
	<g opacity="0.2">
		<path d="M9.8,7.7V7.4V6.2V4.1c0-0.3-0.1-0.5-0.3-0.7L8.3,2.2C8.2,2.2,8,2.4,8,2.4c0,0.1,0.6,0.7,0.6,0.7l0,1
			c0,0.4,0.4,0.7,0.8,0.7v2l0.5,2.3V10c0,0.3-0.2,0-0.5,0c-0.2,0-0.5,0.2-0.5,0V6.2c0-0.4-0.4-0.9-0.8-0.9H7.5V2H7V1.5H4.2V2H3.7
			v8.5h3.8V5.8h0.5c0.2,0,0.5,0.3,0.5,0.5v3.3c0,0.5,0.4,0.9,0.9,0.9c0.5,0,0.9-0.4,0.9-0.9C10.3,9.4,9.8,7.7,9.8,7.7z M9.4,4.3H8.9
			V3.9h0.5V4.3z M7,4.3H6.5H4.6H4.2V2h0.5h1.9H7V4.3z"/>
	</g>
</g>
<g id="icons">
	<g>
		<path fill="#FFFFFF" d="M9.3,7.2V6.9V5.7V3.6c0-0.3-0.1-0.5-0.3-0.7L7.8,1.7c-0.1,0-0.3,0.2-0.3,0.2c0,0.1,0.6,0.7,0.6,0.7l0,1
			c0,0.4,0.4,0.7,0.8,0.7v2l0.5,2.3v0.9c0,0.3-0.2,0-0.5,0c-0.2,0-0.5,0.2-0.5,0V5.7c0-0.4-0.4-0.9-0.8-0.9H7V1.5H6.5V1H3.7v0.5H3.2
			V10H7V5.3h0.5c0.2,0,0.5,0.3,0.5,0.5v3.3c0,0.5,0.4,0.9,0.9,0.9c0.5,0,0.9-0.4,0.9-0.9C9.8,8.9,9.3,7.2,9.3,7.2z M8.9,3.8H8.4V3.4
			h0.5V3.8z M6.5,3.8H6H4.1H3.7V1.5h0.5H6h0.5V3.8z"/>
	</g>
</g>
<g id="guides">
</g>
</svg>
