<?xml version="1.0" encoding="utf-8"?>
<!-- Generator: Adobe Illustrator 18.1.1, SVG Export Plug-In . SVG Version: 6.00 Build 0)  -->
<svg version="1.1" xmlns="http://www.w3.org/2000/svg" xmlns:xlink="http://www.w3.org/1999/xlink" x="0px" y="0px"
	 viewBox="0 0 12 12" enable-background="new 0 0 12 12" xml:space="preserve">
<g id="shadows">
	<g opacity="0.2">
		<path d="M8.8,7.7V7.4V6.2V4.1c0-0.3-0.1-0.5-0.3-0.7L7.3,2.2C7.2,2.2,7,2.4,7,2.4c0,0.1,0.6,0.7,0.6,0.7l0,1
			c0,0.4,0.4,0.7,0.8,0.7v2l0.5,2.3V10c0,0.3-0.2,0-0.5,0c-0.2,0-0.5,0.2-0.5,0V6.2c0-0.4-0.4-0.9-0.8-0.9H6.5V2H6V1.5H3.2V2H2.7
			v8.5h3.8V5.8h0.5c0.2,0,0.5,0.3,0.5,0.5v3.3c0,0.5,0.4,0.9,0.9,0.9c0.5,0,0.9-0.4,0.9-0.9C9.3,9.4,8.8,7.7,8.8,7.7z M8.4,4.3H7.9
			V3.9h0.5V4.3z M6,4.3H5.5H3.6H3.2V2h0.5h1.9H6V4.3z"/>
	</g>
</g>
<g id="icons">
	<g>
		<path fill="#FFFFFF" d="M8.3,7.2V6.9V5.7V3.6c0-0.3-0.1-0.5-0.3-0.7L6.8,1.7c-0.1,0-0.3,0.2-0.3,0.2c0,0.1,0.6,0.7,0.6,0.7l0,1
			c0,0.4,0.4,0.7,0.8,0.7v2l0.5,2.3v0.9c0,0.3-0.2,0-0.5,0c-0.2,0-0.5,0.2-0.5,0V5.7c0-0.4-0.4-0.9-0.8-0.9H6V1.5H5.5V1H2.7v0.5H2.2
			V10H6V5.3h0.5c0.2,0,0.5,0.3,0.5,0.5v3.3c0,0.5,0.4,0.9,0.9,0.9c0.5,0,0.9-0.4,0.9-0.9C8.8,8.9,8.3,7.2,8.3,7.2z M7.9,3.8H7.4V3.4
			h0.5V3.8z M5.5,3.8H5H3.1H2.7V1.5h0.5H5h0.5V3.8z"/>
	</g>
</g>
<g id="guides">
</g>
</svg>
