<?xml version="1.0" encoding="UTF-8" standalone="no"?>
<svg width="12px" height="15px" viewBox="0 0 12 15" version="1.1" xmlns="http://www.w3.org/2000/svg" xmlns:xlink="http://www.w3.org/1999/xlink" xmlns:sketch="http://www.bohemiancoding.com/sketch/ns">
    <!-- Generator: Sketch 3.2.2 (9983) - http://www.bohemiancoding.com/sketch -->
    <title>gas-station-black-12</title>
    <desc>Created with Sketch.</desc>
    <defs></defs>
    <g id="Page-1" stroke="none" stroke-width="1" fill="none" fill-rule="evenodd" sketch:type="MSPage">
        <path d="M2.70588235,2.71019284 L6.94117647,2.71019284 L6.94117647,6.26115702 L2.70588235,6.26115702 L2.70588235,2.71019284 Z M9.76470588,5.55096419 L10.4705882,5.55096419 L10.4705882,6.26115702 L9.76470588,6.26115702 L9.76470588,5.55096419 Z M11.1764706,11.2325069 L11.1764706,5.96997796 C11.1764706,5.53676033 11.0564706,5.18876584 10.7670588,4.89758678 L8.91764706,3.04398347 C8.79058824,3.04398347 8.43764706,3.39907989 8.43764706,3.39907989 C8.43764706,3.5269146 9.35529412,4.44306336 9.35529412,4.44306336 L9.32705882,5.99838567 C9.32705882,6.55233609 9.92,6.99975758 10.4705882,6.99975758 L10.4705882,9.97546556 L11.1764706,13.3630854 L11.1764706,14.7834711 C11.1976471,15.2735041 10.8235294,14.7834711 10.4705882,14.7834711 C10.1458824,14.7834711 9.76470588,15.1314656 9.76470588,14.7834711 L9.76470588,9.10192837 C9.76470588,8.46275482 9.17882353,7.6815427 8.54352941,7.6815427 L7.64705882,7.6815427 L7.64705882,2.71019284 L6.94117647,2.71019284 L6.94117647,2 L2.70588235,2 L2.70588235,2.71019284 L2,2.71019284 L2,15.4936639 L7.64705882,15.4936639 L7.64705882,8.39173554 L8.35294118,8.39173554 C8.59294118,8.39173554 9.05882353,8.86046281 9.05882353,9.10192837 L9.05882353,14.0732782 C9.05882353,14.7834711 9.72235294,15.4936639 10.4705882,15.4936639 C11.1764706,15.4936639 11.8823529,14.8331846 11.8823529,14.0732782 C11.8682353,13.89573 11.1764706,11.2325069 11.1764706,11.2325069 L11.1764706,11.2325069 Z" id="Fill-200" fill-opacity="0.1" fill="#0A0B09" sketch:type="MSShapeGroup"></path>
        <path d="M1.70588235,1.71019284 L5.94117647,1.71019284 L5.94117647,5.26115702 L1.70588235,5.26115702 L1.70588235,1.71019284 Z M8.76470588,4.55096419 L9.47058824,4.55096419 L9.47058824,5.26115702 L8.76470588,5.26115702 L8.76470588,4.55096419 Z M10.1764706,10.2325069 L10.1764706,4.96997796 C10.1764706,4.53676033 10.0564706,4.18876584 9.76705882,3.89758678 L7.91764706,2.04398347 C7.79058824,2.04398347 7.43764706,2.39907989 7.43764706,2.39907989 C7.43764706,2.5269146 8.35529412,3.44306336 8.35529412,3.44306336 L8.32705882,4.99838567 C8.32705882,5.55233609 8.92,5.99975758 9.47058824,5.99975758 L9.47058824,8.97546556 L10.1764706,12.3630854 L10.1764706,13.7834711 C10.1976471,14.2735041 9.82352941,13.7834711 9.47058824,13.7834711 C9.14588235,13.7834711 8.76470588,14.1314656 8.76470588,13.7834711 L8.76470588,8.10192837 C8.76470588,7.46275482 8.17882353,6.6815427 7.54352941,6.6815427 L6.64705882,6.6815427 L6.64705882,1.71019284 L5.94117647,1.71019284 L5.94117647,1 L1.70588235,1 L1.70588235,1.71019284 L1,1.71019284 L1,14.4936639 L6.64705882,14.4936639 L6.64705882,7.39173554 L7.35294118,7.39173554 C7.59294118,7.39173554 8.05882353,7.86046281 8.05882353,8.10192837 L8.05882353,13.0732782 C8.05882353,13.7834711 8.72235294,14.4936639 9.47058824,14.4936639 C10.1764706,14.4936639 10.8823529,13.8331846 10.8823529,13.0732782 C10.8682353,12.89573 10.1764706,10.2325069 10.1764706,10.2325069 L10.1764706,10.2325069 Z" id="Fill-200" opacity="0.2" fill="#0A0B09" sketch:type="MSShapeGroup"></path>
        <path d="M0.705882353,0.710192837 L4.94117647,0.710192837 L4.94117647,4.26115702 L0.705882353,4.26115702 L0.705882353,0.710192837 Z M7.76470588,3.55096419 L8.47058824,3.55096419 L8.47058824,4.26115702 L7.76470588,4.26115702 L7.76470588,3.55096419 Z M9.17647059,9.23250689 L9.17647059,3.96997796 C9.17647059,3.53676033 9.05647059,3.18876584 8.76705882,2.89758678 L6.91764706,1.04398347 C6.79058824,1.04398347 6.43764706,1.39907989 6.43764706,1.39907989 C6.43764706,1.5269146 7.35529412,2.44306336 7.35529412,2.44306336 L7.32705882,3.99838567 C7.32705882,4.55233609 7.92,4.99975758 8.47058824,4.99975758 L8.47058824,7.97546556 L9.17647059,11.3630854 L9.17647059,12.7834711 C9.19764706,13.2735041 8.82352941,12.7834711 8.47058824,12.7834711 C8.14588235,12.7834711 7.76470588,13.1314656 7.76470588,12.7834711 L7.76470588,7.10192837 C7.76470588,6.46275482 7.17882353,5.6815427 6.54352941,5.6815427 L5.64705882,5.6815427 L5.64705882,0.710192837 L4.94117647,0.710192837 L4.94117647,0 L0.705882353,0 L0.705882353,0.710192837 L0,0.710192837 L0,13.4936639 L5.64705882,13.4936639 L5.64705882,6.39173554 L6.35294118,6.39173554 C6.59294118,6.39173554 7.05882353,6.86046281 7.05882353,7.10192837 L7.05882353,12.0732782 C7.05882353,12.7834711 7.72235294,13.4936639 8.47058824,13.4936639 C9.17647059,13.4936639 9.88235294,12.8331846 9.88235294,12.0732782 C9.86823529,11.89573 9.17647059,9.23250689 9.17647059,9.23250689 L9.17647059,9.23250689 Z" id="Fill-200" fill="#0A0B09" sketch:type="MSShapeGroup"></path>
    </g>
</svg>