<?xml version="1.0" encoding="utf-8"?>
<!-- Generator: Adobe Illustrator 18.1.1, SVG Export Plug-In . SVG Version: 6.00 Build 0)  -->
<svg version="1.1" xmlns="http://www.w3.org/2000/svg" xmlns:xlink="http://www.w3.org/1999/xlink" x="0px" y="0px"
	 viewBox="0 0 18 18" enable-background="new 0 0 18 18" xml:space="preserve">
<g id="shadows">
	<g opacity="0.2">
		<path d="M14.4,11.6v-0.4V9.6v-3c0-0.4-0.1-0.8-0.4-1l-1.8-1.8c-0.1,0-0.5,0.3-0.5,0.3c0,0.1,0.9,1,0.9,1l0,1.5c0,0.5,0.6,1,1.1,1
			v2.9l0.7,3.3v1.4c0,0.5-0.3,0-0.7,0c-0.3,0-0.7,0.3-0.7,0V9.6c0-0.6-0.6-1.4-1.2-1.4h-0.9V3.4h-0.7V2.8H6.1v0.7H5.5v12.3h5.5V8.9
			h0.7c0.2,0,0.7,0.5,0.7,0.7v4.8c0,0.7,0.6,1.4,1.4,1.4c0.7,0,1.4-0.6,1.4-1.4C15,14.2,14.4,11.6,14.4,11.6z M13.7,6.9H13V6.2h0.7
			V6.9z M10.3,6.9H9.6H6.8H6.1V3.4h0.7h2.7h0.7V6.9z"/>
	</g>
</g>
<g id="icons">
	<g>
		<path fill="#FFFFFF" d="M13.6,10.9v-0.4V8.8v-3c0-0.4-0.1-0.8-0.4-1L11.4,3C11.3,3,11,3.3,11,3.3c0,0.1,0.9,1,0.9,1l0,1.5
			c0,0.5,0.6,1,1.1,1v2.9l0.7,3.3v1.4c0,0.5-0.3,0-0.7,0c-0.3,0-0.7,0.3-0.7,0V8.8c0-0.6-0.6-1.4-1.2-1.4h-0.9V2.7H9.5V2H5.4v0.7
			H4.7V15h5.5V8.2h0.7c0.2,0,0.7,0.5,0.7,0.7v4.8c0,0.7,0.6,1.4,1.4,1.4c0.7,0,1.4-0.6,1.4-1.4C14.3,13.5,13.6,10.9,13.6,10.9z
			 M12.9,6.1h-0.7V5.4h0.7V6.1z M9.5,6.1H8.8H6.1H5.4V2.7h0.7h2.7h0.7V6.1z"/>
	</g>
</g>
<g id="guides">
</g>
</svg>
