<?xml version="1.0" encoding="UTF-8" standalone="no"?>
<!-- Created with Inkscape (http://www.inkscape.org/) -->

<svg
   xmlns:dc="http://purl.org/dc/elements/1.1/"
   xmlns:cc="http://creativecommons.org/ns#"
   xmlns:rdf="http://www.w3.org/1999/02/22-rdf-syntax-ns#"
   xmlns:svg="http://www.w3.org/2000/svg"
   xmlns="http://www.w3.org/2000/svg"
   xmlns:sodipodi="http://sodipodi.sourceforge.net/DTD/sodipodi-0.dtd"
   xmlns:inkscape="http://www.inkscape.org/namespaces/inkscape"
   width="18"
   height="18"
   id="svg27435"
   version="1.1"
   inkscape:version="0.48.2 r9819"
   sodipodi:docname="food-service-black-18.svg">
  <defs
     id="defs27437" />
  <sodipodi:namedview
     id="base"
     pagecolor="#ffffff"
     bordercolor="#666666"
     borderopacity="1.0"
     inkscape:pageopacity="0.0"
     inkscape:pageshadow="2"
     inkscape:zoom="7.9891803"
     inkscape:cx="12.590799"
     inkscape:cy="8.9588378"
     inkscape:document-units="px"
     inkscape:current-layer="layer1"
     showgrid="false"
     inkscape:window-width="483"
     inkscape:window-height="454"
     inkscape:window-x="2977"
     inkscape:window-y="744"
     inkscape:window-maximized="0" />
  <metadata
     id="metadata27440">
    <rdf:RDF>
      <cc:Work
         rdf:about="">
        <dc:format>image/svg+xml</dc:format>
        <dc:type
           rdf:resource="http://purl.org/dc/dcmitype/StillImage" />
        <dc:title></dc:title>
      </cc:Work>
    </rdf:RDF>
  </metadata>
  <g
     inkscape:label="Layer 1"
     inkscape:groupmode="layer"
     id="layer1"
     transform="translate(0,-1034.3622)">
    <g
       id="g12207"
       transform="matrix(1.8209408,0,0,1.8209408,-38.517098,526.9831)">
      <path
         style="opacity:0;fill:#272525"
         inkscape:connector-curvature="0"
         id="path12209"
         d="m 28.386,287.252 c -0.414,0 -0.776,-0.34 -0.776,-0.729 v -2.892 c 0,-0.132 -0.107,-0.239 -0.239,-0.239 h -0.575 l -0.003,3.839 -3.046,-0.05 v -6.572 c 0,-0.343 0.28,-0.622 0.624,-0.622 h 1.798 c 0.344,0 0.624,0.279 0.624,0.622 0,0 0,0.027 0,0.074 0,0.403 -0.002,2.299 -0.045,2.302 0.003,0 0.616,0 0.616,0 0.353,0 0.639,0.286 0.639,0.639 l -0.004,2.899 c 0,0.191 0.208,0.34 0.388,0.34 0.193,0 0.439,-0.16 0.428,-0.429 l -0.307,-1.655 -0.068,-0.561 0.049,-1.635 -0.137,-0.002 c -0.305,0 -0.552,-0.247 -0.552,-0.55 l 0.015,-0.856 c 0,0 -0.507,-0.503 -0.507,-0.574 0,0 0.195,-0.194 0.266,-0.194 l 1.021,1.017 c 0.16,0.161 0.237,0.353 0.237,0.589 v 2.205 c 0,0 0.063,0.478 0.063,0.481 0,0 0.312,1.727 0.319,1.823 0,0.419 -0.438,0.73 -0.828,0.73 z m 1.476,-8.623 h -7.521 c -0.652,0 -1.182,0.529 -1.182,1.182 v 7.521 c 0,0.652 0.529,1.182 1.182,1.182 h 7.521 c 0.652,0 1.182,-0.529 1.182,-1.182 v -7.521 c 0,-0.652 -0.529,-1.182 -1.182,-1.182 z" />
      <path
         d="m 26.34,282.126 c 0,0.095 -0.075,0.17 -0.172,0.17 H 24.37 c -0.097,0 -0.172,-0.075 -0.172,-0.17 v -1.517 c 0,-0.095 0.075,-0.17 0.172,-0.17 h 1.798 c 0.097,0 0.172,0.075 0.172,0.17 v 1.517 z m 2.097,0.194 c -0.228,-0.05 -0.311,-0.167 -0.311,-0.274 v -0.392 c 0,0 0.151,0.034 0.188,0.043 0.074,0.02 0.121,0.133 0.123,0.231 0.002,0.098 0,0.392 0,0.392 z m 0.458,2.381 c 0,-0.004 -0.063,-0.481 -0.063,-0.481 v -2.205 c 0,-0.236 -0.077,-0.428 -0.237,-0.589 l -1.021,-1.017 c -0.07,0 -0.266,0.194 -0.266,0.194 0,0.071 0.507,0.574 0.507,0.574 l -0.015,0.856 c 0,0.303 0.247,0.55 0.552,0.55 l 0.137,0.002 -0.049,1.635 0.068,0.561 0.307,1.655 c 0.012,0.269 -0.234,0.429 -0.428,0.429 -0.18,0 -0.388,-0.148 -0.388,-0.34 l 0.004,-2.899 c 0,-0.353 -0.286,-0.639 -0.639,-0.639 0,0 -0.613,0 -0.616,0 0.043,-0.002 0.045,-1.899 0.045,-2.302 0,-0.047 0,-0.074 0,-0.074 0,-0.343 -0.28,-0.622 -0.624,-0.622 H 24.37 c -0.344,0 -0.624,0.279 -0.624,0.622 v 6.572 l 3.046,0.05 0.003,-3.839 h 0.575 c 0.132,0 0.239,0.107 0.239,0.239 v 2.892 c 0,0.388 0.362,0.729 0.776,0.729 0.391,0 0.828,-0.312 0.828,-0.729 -0.006,-0.098 -0.318,-1.824 -0.318,-1.824 z"
         id="path12211"
         inkscape:connector-curvature="0"
         style="opacity:0.6;fill:none;stroke:#ffffff;stroke-width:0.5;stroke-miterlimit:4;stroke-opacity:1;stroke-dasharray:none" />
      <path
         style="fill:#272525"
         inkscape:connector-curvature="0"
         id="path12213"
         d="m 26.34,282.126 c 0,0.095 -0.075,0.17 -0.172,0.17 H 24.37 c -0.097,0 -0.172,-0.075 -0.172,-0.17 v -1.517 c 0,-0.095 0.075,-0.17 0.172,-0.17 h 1.798 c 0.097,0 0.172,0.075 0.172,0.17 v 1.517 z m 2.097,0.194 c -0.228,-0.05 -0.311,-0.167 -0.311,-0.274 v -0.392 c 0,0 0.151,0.034 0.188,0.043 0.074,0.02 0.121,0.133 0.123,0.231 0.002,0.098 0,0.392 0,0.392 z m 0.458,2.381 c 0,-0.004 -0.063,-0.481 -0.063,-0.481 v -2.205 c 0,-0.236 -0.077,-0.428 -0.237,-0.589 l -1.021,-1.017 c -0.07,0 -0.266,0.194 -0.266,0.194 0,0.071 0.507,0.574 0.507,0.574 l -0.015,0.856 c 0,0.303 0.247,0.55 0.552,0.55 l 0.137,0.002 -0.049,1.635 0.068,0.561 0.307,1.655 c 0.012,0.269 -0.234,0.429 -0.428,0.429 -0.18,0 -0.388,-0.148 -0.388,-0.34 l 0.004,-2.899 c 0,-0.353 -0.286,-0.639 -0.639,-0.639 0,0 -0.613,0 -0.616,0 0.043,-0.002 0.045,-1.899 0.045,-2.302 0,-0.047 0,-0.074 0,-0.074 0,-0.343 -0.28,-0.622 -0.624,-0.622 H 24.37 c -0.344,0 -0.624,0.279 -0.624,0.622 v 6.572 l 3.046,0.05 0.003,-3.839 h 0.575 c 0.132,0 0.239,0.107 0.239,0.239 v 2.892 c 0,0.388 0.362,0.729 0.776,0.729 0.391,0 0.828,-0.312 0.828,-0.729 -0.006,-0.098 -0.318,-1.824 -0.318,-1.824 z" />
    </g>
  </g>
</svg>
