<?xml version="1.0" encoding="utf-8"?>
<!-- Generator: Adobe Illustrator 18.1.1, SVG Export Plug-In . SVG Version: 6.00 Build 0)  -->
<svg version="1.1" xmlns="http://www.w3.org/2000/svg" xmlns:xlink="http://www.w3.org/1999/xlink" x="0px" y="0px"
	 viewBox="0 0 24 24" enable-background="new 0 0 24 24" xml:space="preserve">
<g id="shadows">
	<g opacity="0.2">
		<path d="M19.7,15.1L19.7,15.1V14V8.8c0-0.6-0.3-1-0.7-1.4l-2.4-2.2c-0.2,0-0.6,0.3-0.6,0.3c0,0.2,1.2,1.4,1.2,1.4l0,2
			c0,0.7,0.6,1.4,1.3,1.4l0.5-0.1V14v1.3l0.8,3.9c0,0.6-0.7,1-1.2,1c-0.4,0-1.1-0.4-1.1-0.8v-6.8c0-0.8-0.4-1.6-1.3-1.6h-1.8V4.8
			h-0.8V4H7.3v0.8H6.5V21h7.7v-9h1.8c0.3,0,0.5,0.3,0.5,0.6v6.8c0,0.9,0.9,1.6,1.9,1.6c0.9,0,2-0.6,2-1.6
			C20.4,19.2,19.7,15.1,19.7,15.1z M18.9,9.4h-0.8V7.9h0.8V9.4z M13.1,8.4l-0.7,0.7H8.4L7.7,8.4V5.7l0.7-0.7h4.1l0.7,0.7V8.4z"/>
	</g>
</g>
<g id="icons">
	<g>
		<path d="M18.7,14.1L18.7,14.1V13V7.8c0-0.6-0.3-1-0.7-1.4l-2.4-2.2c-0.2,0-0.6,0.3-0.6,0.3c0,0.2,1.2,1.4,1.2,1.4l0,2
			c0,0.7,0.6,1.4,1.3,1.4l0.5-0.1V13v1.3l0.8,3.9c0,0.6-0.7,1-1.2,1c-0.4,0-1.1-0.4-1.1-0.8v-6.8c0-0.8-0.4-1.6-1.3-1.6h-1.8V3.8
			h-0.8V3H6.3v0.8H5.5V20h7.7v-9h1.8c0.3,0,0.5,0.3,0.5,0.6v6.8c0,0.9,0.9,1.6,1.9,1.6c0.9,0,2-0.6,2-1.6
			C19.4,18.2,18.7,14.1,18.7,14.1z M17.9,8.4h-0.8V6.9h0.8V8.4z M12.1,7.4l-0.7,0.7H7.4L6.7,7.4V4.7l0.7-0.7h4.1l0.7,0.7V7.4z"/>
	</g>
</g>
<g id="guides">
</g>
</svg>
