<?xml version="1.0" encoding="UTF-8" standalone="no"?>
<svg width="18px" height="18px" viewBox="0 0 18 18" version="1.1" xmlns="http://www.w3.org/2000/svg" xmlns:xlink="http://www.w3.org/1999/xlink" xmlns:sketch="http://www.bohemiancoding.com/sketch/ns">
    <!-- Generator: Sketch 3.2.2 (9983) - http://www.bohemiancoding.com/sketch -->
    <title>gas-station-black-18</title>
    <desc>Created with Sketch.</desc>
    <defs></defs>
    <g id="Page-1" stroke="none" stroke-width="1" fill="none" fill-rule="evenodd" sketch:type="MSPage">
        <path d="M8.2962963,6.13807389 L7.65185185,6.78044281 L3.76296296,6.78044281 L3.11111111,6.13807389 L3.11111111,3.5831975 L3.76296296,2.94812823 L7.65185185,2.94812823 L8.2962963,3.5831975 L8.2962963,6.13807389 L8.2962963,6.13807389 Z M13.1111111,5.59060038 L13.8518519,5.59060038 L13.8518519,7.05052975 L13.1111111,7.05052975 L13.1111111,5.59060038 Z M14.5925926,12.4449688 L14.6148148,12.4449688 L14.5925926,11.3719207 L14.5925926,6.45925835 C14.5925926,5.93368378 14.2962963,5.50300462 13.9333333,5.14532192 L11.6296296,3.05032328 C11.4666667,3.05032328 11.0222222,3.31311057 11.0222222,3.31311057 C11.0222222,3.46640315 12.1703704,4.59054876 12.1703704,4.59054876 L12.1407407,6.49575659 C12.1407407,7.17462374 12.6962963,7.78049443 13.3851852,7.78049443 L13.8518519,7.7293969 L13.8518519,12.6201603 L14.5925926,16.3064819 C14.6222222,16.9123526 13.9037037,17.2700353 13.4666667,17.2700353 C13.0592593,17.2700353 12.3703704,16.9342516 12.3703704,16.510872 L12.3703704,10.0506846 C12.3703704,9.26232274 11.9481481,8.51045911 11.1555556,8.51045911 L9.40740741,8.51045911 L9.40740741,2.67074165 L8.66666667,2.67074165 L8.66666667,1.94077696 L2.74074074,1.94077696 L2.74074074,2.67074165 L2,2.67074165 L2,18 L9.40740741,18 L9.40740741,9.53240967 L11.162963,9.53240967 C11.4666667,9.53240967 11.6296296,9.76599837 11.6296296,10.0652839 L11.6296296,16.510872 C11.6296296,17.3722304 12.5259259,18 13.4592593,18 C14.3481481,18 15.3333333,17.4379272 15.3333333,16.510872 C15.3185185,16.2918826 14.5925926,12.4449688 14.5925926,12.4449688 L14.5925926,12.4449688 Z" id="Fill-1648" opacity="0.1" fill="#0A0B09" sketch:type="MSShapeGroup"></path>
        <path d="M7.2962963,5.13807389 L6.65185185,5.78044281 L2.76296296,5.78044281 L2.11111111,5.13807389 L2.11111111,2.5831975 L2.76296296,1.94812823 L6.65185185,1.94812823 L7.2962963,2.5831975 L7.2962963,5.13807389 L7.2962963,5.13807389 Z M12.1111111,4.59060038 L12.8518519,4.59060038 L12.8518519,6.05052975 L12.1111111,6.05052975 L12.1111111,4.59060038 Z M13.5925926,11.4449688 L13.6148148,11.4449688 L13.5925926,10.3719207 L13.5925926,5.45925835 C13.5925926,4.93368378 13.2962963,4.50300462 12.9333333,4.14532192 L10.6296296,2.05032328 C10.4666667,2.05032328 10.0222222,2.31311057 10.0222222,2.31311057 C10.0222222,2.46640315 11.1703704,3.59054876 11.1703704,3.59054876 L11.1407407,5.49575659 C11.1407407,6.17462374 11.6962963,6.78049443 12.3851852,6.78049443 L12.8518519,6.7293969 L12.8518519,11.6201603 L13.5925926,15.3064819 C13.6222222,15.9123526 12.9037037,16.2700353 12.4666667,16.2700353 C12.0592593,16.2700353 11.3703704,15.9342516 11.3703704,15.510872 L11.3703704,9.0506846 C11.3703704,8.26232274 10.9481481,7.51045911 10.1555556,7.51045911 L8.40740741,7.51045911 L8.40740741,1.67074165 L7.66666667,1.67074165 L7.66666667,0.940776963 L1.74074074,0.940776963 L1.74074074,1.67074165 L1,1.67074165 L1,17 L8.40740741,17 L8.40740741,8.53240967 L10.162963,8.53240967 C10.4666667,8.53240967 10.6296296,8.76599837 10.6296296,9.06528389 L10.6296296,15.510872 C10.6296296,16.3722304 11.5259259,17 12.4592593,17 C13.3481481,17 14.3333333,16.4379272 14.3333333,15.510872 C14.3185185,15.2918826 13.5925926,11.4449688 13.5925926,11.4449688 L13.5925926,11.4449688 Z" id="Fill-1648" opacity="0.2" fill="#0A0B09" sketch:type="MSShapeGroup"></path>
        <path d="M6.2962963,4.13807389 L5.65185185,4.78044281 L1.76296296,4.78044281 L1.11111111,4.13807389 L1.11111111,1.5831975 L1.76296296,0.948128226 L5.65185185,0.948128226 L6.2962963,1.5831975 L6.2962963,4.13807389 L6.2962963,4.13807389 Z M11.1111111,3.59060038 L11.8518519,3.59060038 L11.8518519,5.05052975 L11.1111111,5.05052975 L11.1111111,3.59060038 Z M12.5925926,10.4449688 L12.6148148,10.4449688 L12.5925926,9.37192067 L12.5925926,4.45925835 C12.5925926,3.93368378 12.2962963,3.50300462 11.9333333,3.14532192 L9.62962963,1.05032328 C9.46666667,1.05032328 9.02222222,1.31311057 9.02222222,1.31311057 C9.02222222,1.46640315 10.1703704,2.59054876 10.1703704,2.59054876 L10.1407407,4.49575659 C10.1407407,5.17462374 10.6962963,5.78049443 11.3851852,5.78049443 L11.8518519,5.7293969 L11.8518519,10.6201603 L12.5925926,14.3064819 C12.6222222,14.9123526 11.9037037,15.2700353 11.4666667,15.2700353 C11.0592593,15.2700353 10.3703704,14.9342516 10.3703704,14.510872 L10.3703704,8.0506846 C10.3703704,7.26232274 9.94814815,6.51045911 9.15555556,6.51045911 L7.40740741,6.51045911 L7.40740741,0.670741646 L6.66666667,0.670741646 L6.66666667,-0.0592230372 L0.740740741,-0.0592230372 L0.740740741,0.670741646 L0,0.670741646 L0,16 L7.40740741,16 L7.40740741,7.53240967 L9.16296296,7.53240967 C9.46666667,7.53240967 9.62962963,7.76599837 9.62962963,8.06528389 L9.62962963,14.510872 C9.62962963,15.3722304 10.5259259,16 11.4592593,16 C12.3481481,16 13.3333333,15.4379272 13.3333333,14.510872 C13.3185185,14.2918826 12.5925926,10.4449688 12.5925926,10.4449688 L12.5925926,10.4449688 Z" id="Fill-1648" fill="#0A0B09" sketch:type="MSShapeGroup"></path>
    </g>
</svg>