<?xml version="1.0" encoding="utf-8"?>
<!-- Generator: Adobe Illustrator 15.1.0, SVG Export Plug-In . SVG Version: 6.00 Build 0)  -->
<!DOCTYPE svg PUBLIC "-//W3C//DTD SVG 1.1//EN" "http://www.w3.org/Graphics/SVG/1.1/DTD/svg11.dtd">
<svg version="1.1"
	 id="svg4460" xmlns:dc="http://purl.org/dc/elements/1.1/" xmlns:rdf="http://www.w3.org/1999/02/22-rdf-syntax-ns#" xmlns:cc="http://creativecommons.org/ns#" inkscape:version="0.48.2 r9819" sodipodi:docname="marker-stroked-24.svg" xmlns:sodipodi="http://sodipodi.sourceforge.net/DTD/sodipodi-0.dtd" xmlns:inkscape="http://www.inkscape.org/namespaces/inkscape" xmlns:svg="http://www.w3.org/2000/svg"
	 xmlns="http://www.w3.org/2000/svg" xmlns:xlink="http://www.w3.org/1999/xlink" x="0px" y="0px" width="24px" height="24px"
	 viewBox="-402.5 403.5 24 24" enable-background="new -402.5 403.5 24 24" xml:space="preserve">
<g opacity="0.3" enable-background="new    ">
	<path fill="#FFFFFF" stroke="#FFFFFF" stroke-width="2" stroke-linejoin="round" d="M-387.5,407.5c-1.516,0-2.619,0.904-3,2.236
		c-0.382-1.332-1.451-2.236-3-2.236c-1,0-2,0.7-2,2c0,1.299,0.61,2,1.909,2h2.902h0.305h2.901c1.298,0,1.984-0.686,1.984-1.984
		C-385.5,408.216-386.5,407.5-387.5,407.5z M-387.5,408.5c1,0,1,0.957,1,1s0.051,1-1,1h-2
		C-389.393,409.781-389.121,408.5-387.5,408.5z M-391.5,410.5h-2c-1.051,0-1-0.957-1-1s-0.051-1,1-1
		C-391.881,408.5-391.607,409.781-391.5,410.5z"/>
	<g>
		<path fill="#FFFFFF" stroke="#FFFFFF" stroke-width="2" stroke-linejoin="round" d="M-391.5,417.5v-4h-3.5
			c-0.829,0-1.5,0.672-1.5,1.5v2.5H-391.5z"/>
		<path fill="#FFFFFF" stroke="#FFFFFF" stroke-width="2" stroke-linejoin="round" d="M-389.5,417.5h5V415
			c0-0.828-0.671-1.5-1.5-1.5h-3.5V417.5z"/>
		<path fill="#FFFFFF" stroke="#FFFFFF" stroke-width="2" stroke-linejoin="round" d="M-389.5,419.5v4h3.5
			c0.829,0,1.5-0.672,1.5-1.5v-2.5H-389.5z"/>
		<path fill="#FFFFFF" stroke="#FFFFFF" stroke-width="2" stroke-linejoin="round" d="M-391.5,419.5h-5v2.5
			c0,0.828,0.671,1.5,1.5,1.5h3.5V419.5z"/>
	</g>
</g>
<g>
	<path fill="#454545" d="M-387.5,407.5c-1.516,0-2.619,0.904-3,2.236c-0.382-1.332-1.451-2.236-3-2.236c-1,0-2,0.7-2,2
		c0,1.299,0.61,2,1.909,2h2.902h0.305h2.901c1.298,0,1.984-0.686,1.984-1.984C-385.5,408.216-386.5,407.5-387.5,407.5z
		 M-387.5,408.5c1,0,1,0.957,1,1s0.051,1-1,1h-2C-389.393,409.781-389.121,408.5-387.5,408.5z M-391.5,410.5h-2
		c-1.051,0-1-0.957-1-1s-0.051-1,1-1C-391.881,408.5-391.607,409.781-391.5,410.5z"/>
	<g>
		<path fill="#454545" d="M-391.5,417.5v-4h-3.5c-0.829,0-1.5,0.672-1.5,1.5v2.5H-391.5z"/>
		<path fill="#454545" d="M-389.5,417.5h5V415c0-0.828-0.671-1.5-1.5-1.5h-3.5V417.5z"/>
		<path fill="#454545" d="M-389.5,419.5v4h3.5c0.829,0,1.5-0.672,1.5-1.5v-2.5H-389.5z"/>
		<path fill="#454545" d="M-391.5,419.5h-5v2.5c0,0.828,0.671,1.5,1.5,1.5h3.5V419.5z"/>
	</g>
</g>
</svg>
