<?xml version="1.0" encoding="utf-8"?>
<!-- Generator: Adobe Illustrator 15.1.0, SVG Export Plug-In . SVG Version: 6.00 Build 0)  -->
<!DOCTYPE svg PUBLIC "-//W3C//DTD SVG 1.1//EN" "http://www.w3.org/Graphics/SVG/1.1/DTD/svg11.dtd">
<svg version="1.1"
	 id="svg4619" xmlns:dc="http://purl.org/dc/elements/1.1/" xmlns:rdf="http://www.w3.org/1999/02/22-rdf-syntax-ns#" xmlns:cc="http://creativecommons.org/ns#" inkscape:version="0.48.2 r9819" sodipodi:docname="maki-18-base.svg" xmlns:sodipodi="http://sodipodi.sourceforge.net/DTD/sodipodi-0.dtd" xmlns:inkscape="http://www.inkscape.org/namespaces/inkscape" xmlns:svg="http://www.w3.org/2000/svg"
	 xmlns="http://www.w3.org/2000/svg" xmlns:xlink="http://www.w3.org/1999/xlink" x="0px" y="0px" width="18px" height="18px"
	 viewBox="-402.5 403.5 18 18" enable-background="new -402.5 403.5 18 18" xml:space="preserve">
<g opacity="0.3" enable-background="new    ">
	<g>
		<g>
			<path fill="#FFFFFF" stroke="#FFFFFF" stroke-width="2" stroke-miterlimit="10" d="M-397.5,414.5v2c0,0.553,0.448,1,1,1h2.5v-3
				H-397.5z"/>
			<path fill="#FFFFFF" stroke="#FFFFFF" stroke-width="2" stroke-miterlimit="10" d="M-393,414.5v3h2.5c0.552,0,1-0.447,1-1v-2
				H-393z"/>
		</g>
		<g>
			<path fill="#FFFFFF" stroke="#FFFFFF" stroke-width="2" stroke-miterlimit="10" d="M-394,410.5h-2.5c-0.552,0-1,0.447-1,1v2h3.5
				V410.5z"/>
			<path fill="#FFFFFF" stroke="#FFFFFF" stroke-width="2" stroke-miterlimit="10" d="M-390.5,410.5h-2.5v3h3.5v-2
				C-389.5,410.947-389.948,410.5-390.5,410.5z"/>
		</g>
	</g>
	<path fill="#FFFFFF" stroke="#FFFFFF" stroke-width="2" stroke-miterlimit="10" d="M-391.417,406.665
		c-1.074,0-1.855,0.643-2.126,1.585c-0.27-0.942-0.942-1.585-2.039-1.585c-0.708,0-1.417,0.497-1.417,1.417
		c0,0.921,0.433,1.418,1.352,1.418h1.97h0.216h2.056c0.92,0,1.406-0.485,1.406-1.406S-390.709,406.665-391.417,406.665z
		 M-391.417,407.373c0.708,0,0.708,0.68,0.708,0.709c0,0.031,0.036,0.709-0.708,0.709h-1.417
		C-392.759,408.283-392.565,407.373-391.417,407.373z M-394.165,408.791h-1.417c-0.745,0-0.708-0.678-0.708-0.709
		c0-0.029-0.036-0.709,0.708-0.709C-394.435,407.373-394.241,408.283-394.165,408.791z"/>
</g>
<g>
	<g>
		<g>
			<path fill="#454545" d="M-397.5,414.5v2c0,0.553,0.448,1,1,1h2.5v-3H-397.5z"/>
			<path fill="#454545" d="M-393,414.5v3h2.5c0.552,0,1-0.447,1-1v-2H-393z"/>
		</g>
		<g>
			<path fill="#454545" d="M-394,410.5h-2.5c-0.552,0-1,0.447-1,1v2h3.5V410.5z"/>
			<path fill="#454545" d="M-390.5,410.5h-2.5v3h3.5v-2C-389.5,410.947-389.948,410.5-390.5,410.5z"/>
		</g>
	</g>
	<path fill="#454545" d="M-391.417,406.665c-1.074,0-1.855,0.643-2.126,1.585c-0.27-0.942-0.942-1.585-2.039-1.585
		c-0.708,0-1.417,0.497-1.417,1.417c0,0.921,0.433,1.418,1.352,1.418h1.97h0.216h2.056c0.92,0,1.406-0.485,1.406-1.406
		S-390.709,406.665-391.417,406.665z M-391.417,407.373c0.708,0,0.708,0.68,0.708,0.709c0,0.031,0.036,0.709-0.708,0.709h-1.417
		C-392.759,408.283-392.565,407.373-391.417,407.373z M-394.165,408.791h-1.417c-0.745,0-0.708-0.678-0.708-0.709
		c0-0.029-0.036-0.709,0.708-0.709C-394.435,407.373-394.241,408.283-394.165,408.791z"/>
</g>
</svg>
