<?xml version="1.0" encoding="UTF-8" standalone="no"?>
<!-- Created with Inkscape (http://www.inkscape.org/) -->

<svg
   xmlns:dc="http://purl.org/dc/elements/1.1/"
   xmlns:cc="http://creativecommons.org/ns#"
   xmlns:rdf="http://www.w3.org/1999/02/22-rdf-syntax-ns#"
   xmlns:svg="http://www.w3.org/2000/svg"
   xmlns="http://www.w3.org/2000/svg"
   xmlns:inkscape="http://www.inkscape.org/namespaces/inkscape"
   version="1.1"
   width="12"
   height="12"
   viewBox="-402.5 403.5 12 12"
   id="svg4764"
   xml:space="preserve"><metadata
     id="metadata36"><rdf:RDF><cc:Work
         rdf:about=""><dc:format>image/svg+xml</dc:format><dc:type
           rdf:resource="http://purl.org/dc/dcmitype/StillImage" /></cc:Work></rdf:RDF></metadata><defs
     id="defs34" /><g
     id="g3"
     style="opacity:0.3"><g
       id="g5"><path
         d="m -399,408.498 c -0.276,0 -0.5,0.224 -0.5,0.5 v 1.496 l 2.5,0.006 v -1.996 l -2,-0.006 z"
         inkscape:connector-curvature="0"
         id="path7"
         style="fill:#ffffff;stroke:#ffffff;stroke-width:2;stroke-miterlimit:10" /><path
         d="m -394,408.498 c 0.276,0 0.5,0.224 0.5,0.5 v 1.496 l -2.5,0.006 v -1.996 l 2,-0.006 z"
         inkscape:connector-curvature="0"
         id="path9"
         style="fill:#ffffff;stroke:#ffffff;stroke-width:2;stroke-miterlimit:10" /><path
         d="m -399,413.5 c -0.276,0 -0.5,-0.224 -0.5,-0.5 v -1.506 l 2.5,0.006 v 2.006 l -2,-0.006 z"
         inkscape:connector-curvature="0"
         id="path11"
         style="fill:#ffffff;stroke:#ffffff;stroke-width:2;stroke-miterlimit:10" /><path
         d="m -394,413.5 c 0.276,0 0.5,-0.224 0.5,-0.5 v -1.506 l -2.5,0.006 v 2.006 l 2,-0.006 z"
         inkscape:connector-curvature="0"
         id="path13"
         style="fill:#ffffff;stroke:#ffffff;stroke-width:2;stroke-miterlimit:10" /></g><path
       d="m -394.969,405.502 c -0.734,0 -1.26,0.505 -1.531,1 -0.272,-0.495 -0.798,-1.002 -1.531,-1.002 -0.458,0 -0.969,0.405 -0.969,0.986 0,0.636 0.362,1.016 0.969,1.016 h 0 l 1.829,0.002 h 1.233 c 0.606,0 0.969,-0.38 0.969,-1.016 0,-0.581 -0.511,-0.986 -0.969,-0.986 z m -3.062,1.5 c -0.244,0 -0.469,-0.062 -0.469,-0.516 0,-0.324 0.3,-0.486 0.469,-0.486 0.661,0 1.035,0.613 1.18,1 l -1.18,0.002 z m 3.062,0.002 h -1.18 c 0.146,-0.388 0.519,-1.002 1.18,-1.002 0.168,0 0.469,0.162 0.469,0.486 0,0.453 -0.225,0.516 -0.469,0.516 z"
       inkscape:connector-curvature="0"
       id="path15"
       style="fill:#ffffff;stroke:#ffffff;stroke-width:2;stroke-miterlimit:10" /></g><g
     id="g17"><g
       id="g19"><path
         d="m -399,408.498 c -0.276,0 -0.5,0.224 -0.5,0.5 v 1.496 l 2.5,0.006 v -1.996 l -2,-0.006 z"
         inkscape:connector-curvature="0"
         id="path21"
         style="fill:#454545" /><path
         d="m -394,408.498 c 0.276,0 0.5,0.224 0.5,0.5 v 1.496 l -2.5,0.006 v -1.996 l 2,-0.006 z"
         inkscape:connector-curvature="0"
         id="path23"
         style="fill:#454545" /><path
         d="m -399,413.5 c -0.276,0 -0.5,-0.224 -0.5,-0.5 v -1.506 l 2.5,0.006 v 2.006 l -2,-0.006 z"
         inkscape:connector-curvature="0"
         id="path25"
         style="fill:#454545" /><path
         d="m -394,413.5 c 0.276,0 0.5,-0.224 0.5,-0.5 v -1.506 l -2.5,0.006 v 2.006 l 2,-0.006 z"
         inkscape:connector-curvature="0"
         id="path27"
         style="fill:#454545" /></g><path
       d="m -394.969,405.502 c -0.734,0 -1.26,0.505 -1.531,1 -0.272,-0.495 -0.798,-1.002 -1.531,-1.002 -0.458,0 -0.969,0.405 -0.969,0.986 0,0.636 0.362,1.016 0.969,1.016 h 0 l 1.829,0.002 h 1.233 c 0.606,0 0.969,-0.38 0.969,-1.016 0,-0.581 -0.511,-0.986 -0.969,-0.986 z m -3.062,1.5 c -0.244,0 -0.469,-0.062 -0.469,-0.516 0,-0.324 0.3,-0.486 0.469,-0.486 0.661,0 1.035,0.613 1.18,1 l -1.18,0.002 z m 3.062,0.002 h -1.18 c 0.146,-0.388 0.519,-1.002 1.18,-1.002 0.168,0 0.469,0.162 0.469,0.486 0,0.453 -0.225,0.516 -0.469,0.516 z"
       inkscape:connector-curvature="0"
       id="path29"
       style="fill:#454545" /></g><rect
     width="12"
     height="12"
     x="0"
     y="0"
     id="canvas"
     style="fill:none;stroke:none;visibility:hidden" /></svg>