<?xml version="1.0" encoding="UTF-8" standalone="no"?>
<!-- Generator: Adobe Illustrator 15.1.0, SVG Export Plug-In . SVG Version: 6.00 Build 0)  -->

<svg
   xmlns:dc="http://purl.org/dc/elements/1.1/"
   xmlns:cc="http://creativecommons.org/ns#"
   xmlns:rdf="http://www.w3.org/1999/02/22-rdf-syntax-ns#"
   xmlns:svg="http://www.w3.org/2000/svg"
   xmlns="http://www.w3.org/2000/svg"
   xmlns:sodipodi="http://sodipodi.sourceforge.net/DTD/sodipodi-0.dtd"
   xmlns:inkscape="http://www.inkscape.org/namespaces/inkscape"
   version="1.1"
   id="svg4460"
   inkscape:version="0.48.4 r"
   sodipodi:docname="gift-24.svg"
   x="0px"
   y="0px"
   width="24px"
   height="24px"
   viewBox="-402.5 403.5 24 24"
   enable-background="new -402.5 403.5 24 24"
   xml:space="preserve"><metadata
     id="metadata35"><rdf:RDF><cc:Work
         rdf:about=""><dc:format>image/svg+xml</dc:format><dc:type
           rdf:resource="http://purl.org/dc/dcmitype/StillImage" /></cc:Work></rdf:RDF></metadata><defs
     id="defs33" /><sodipodi:namedview
     pagecolor="#ffffff"
     bordercolor="#666666"
     borderopacity="1"
     objecttolerance="10"
     gridtolerance="10"
     guidetolerance="10"
     inkscape:pageopacity="0"
     inkscape:pageshadow="2"
     inkscape:window-width="830"
     inkscape:window-height="677"
     id="namedview31"
     showgrid="false"
     inkscape:zoom="9.8333333"
     inkscape:cx="7.220339"
     inkscape:cy="12"
     inkscape:window-x="44"
     inkscape:window-y="57"
     inkscape:window-maximized="0"
     inkscape:current-layer="g17" /><g
     opacity="0.3"
     enable-background="new    "
     id="g3"><path
       fill="#FFFFFF"
       stroke="#FFFFFF"
       stroke-width="2"
       stroke-linejoin="round"
       d="M-387.5,407.5c-1.516,0-2.619,0.904-3,2.236   c-0.382-1.332-1.451-2.236-3-2.236c-1,0-2,0.7-2,2c0,1.299,0.61,2,1.909,2h2.902h0.305h2.901c1.298,0,1.984-0.686,1.984-1.984   C-385.5,408.216-386.5,407.5-387.5,407.5z M-387.5,408.5c1,0,1,0.957,1,1s0.051,1-1,1h-2   C-389.393,409.781-389.121,408.5-387.5,408.5z M-391.5,410.5h-2c-1.051,0-1-0.957-1-1s-0.051-1,1-1   C-391.881,408.5-391.607,409.781-391.5,410.5z"
       id="path5" /><g
       id="g7"><path
         fill="#FFFFFF"
         stroke="#FFFFFF"
         stroke-width="2"
         stroke-linejoin="round"
         d="M-391.5,417.5v-4h-3.5    c-0.829,0-1.5,0.672-1.5,1.5v2.5H-391.5z"
         id="path9" /><path
         fill="#FFFFFF"
         stroke="#FFFFFF"
         stroke-width="2"
         stroke-linejoin="round"
         d="M-389.5,417.5h5V415    c0-0.828-0.671-1.5-1.5-1.5h-3.5V417.5z"
         id="path11" /><path
         fill="#FFFFFF"
         stroke="#FFFFFF"
         stroke-width="2"
         stroke-linejoin="round"
         d="M-389.5,419.5v4h3.5    c0.829,0,1.5-0.672,1.5-1.5v-2.5H-389.5z"
         id="path13" /><path
         fill="#FFFFFF"
         stroke="#FFFFFF"
         stroke-width="2"
         stroke-linejoin="round"
         d="M-391.5,419.5h-5v2.5    c0,0.828,0.671,1.5,1.5,1.5h3.5V419.5z"
         id="path15" /></g></g><g
     id="g17"><path
       d="M 9 4 C 8 4 7 4.7 7 6 C 7 7.299 7.60725 8 8.90625 8 L 11.8125 8 L 12.125 8 L 15.03125 8 C 16.32925 8 17 7.32925 17 6.03125 C 16.999 4.73125 16 4 15 4 C 13.484 4 12.381 4.918 12 6.25 C 11.618 4.918 10.549 4 9 4 z M 9 5 C 10.619 5 10.893 6.281 11 7 L 9 7 C 7.949 7 8 6.043 8 6 C 8 5.957 7.949 5 9 5 z M 15 5 C 16 5 16 5.957 16 6 C 16 6.043 16.051 7 15 7 L 13 7 C 13.107 6.281 13.379 5 15 5 z M 7.5 10 C 6.671 10 6 10.672 6 11.5 L 6 14 L 11 14 L 11 10 L 7.5 10 z M 13 10 L 13 14 L 18 14 L 18 11.5 C 18 10.672 17.329 10 16.5 10 L 13 10 z M 6 16 L 6 18.5 C 6 19.328 6.671 20 7.5 20 L 11 20 L 11 16 L 6 16 z M 13 16 L 13 20 L 16.5 20 C 17.329 20 18 19.328 18 18.5 L 18 16 L 13 16 z "
       transform="translate(-402.5,403.5)"
       id="path19"
       style="fill:#444444;fill-opacity:1" /></g></svg>