<?xml version="1.0" encoding="utf-8"?>
<!-- Generator: Adobe Illustrator 15.1.0, SVG Export Plug-In . SVG Version: 6.00 Build 0)  -->
<!DOCTYPE svg PUBLIC "-//W3C//DTD SVG 1.1//EN" "http://www.w3.org/Graphics/SVG/1.1/DTD/svg11.dtd">
<svg version="1.1"
	 id="svg4764" xmlns:dc="http://purl.org/dc/elements/1.1/" xmlns:rdf="http://www.w3.org/1999/02/22-rdf-syntax-ns#" xmlns:cc="http://creativecommons.org/ns#" inkscape:version="0.48.2 r9819" sodipodi:docname="marker-stroked-12.svg" xmlns:sodipodi="http://sodipodi.sourceforge.net/DTD/sodipodi-0.dtd" xmlns:inkscape="http://www.inkscape.org/namespaces/inkscape" xmlns:svg="http://www.w3.org/2000/svg"
	 xmlns="http://www.w3.org/2000/svg" xmlns:xlink="http://www.w3.org/1999/xlink" x="0px" y="0px" width="12px" height="12px"
	 viewBox="-402.5 403.5 12 12" enable-background="new -402.5 403.5 12 12" xml:space="preserve">
<g opacity="0.3">
	<g>
		<path fill="#FFFFFF" stroke="#FFFFFF" stroke-width="2" stroke-miterlimit="10" d="M-399,408.498c-0.276,0-0.5,0.224-0.5,0.5
			v1.496l2.5,0.006v-1.996L-399,408.498z"/>
		<path fill="#FFFFFF" stroke="#FFFFFF" stroke-width="2" stroke-miterlimit="10" d="M-394,408.498c0.276,0,0.5,0.224,0.5,0.5v1.496
			l-2.5,0.006v-1.996L-394,408.498z"/>
		<path fill="#FFFFFF" stroke="#FFFFFF" stroke-width="2" stroke-miterlimit="10" d="M-399,413.5c-0.276,0-0.5-0.224-0.5-0.5v-1.506
			l2.5,0.006v2.006L-399,413.5z"/>
		<path fill="#FFFFFF" stroke="#FFFFFF" stroke-width="2" stroke-miterlimit="10" d="M-394,413.5c0.276,0,0.5-0.224,0.5-0.5v-1.506
			l-2.5,0.006v2.006L-394,413.5z"/>
	</g>
	<path fill="#FFFFFF" stroke="#FFFFFF" stroke-width="2" stroke-miterlimit="10" d="M-394.969,405.502c-0.734,0-1.26,0.505-1.531,1
		c-0.272-0.495-0.798-1.002-1.531-1.002c-0.458,0-0.969,0.405-0.969,0.986c0,0.636,0.362,1.016,0.969,1.016h0l1.829,0.002h1.233
		c0.606,0,0.969-0.38,0.969-1.016C-394,405.907-394.511,405.502-394.969,405.502z M-398.031,407.002
		c-0.244,0-0.469-0.062-0.469-0.516c0-0.324,0.3-0.486,0.469-0.486c0.661,0,1.035,0.613,1.18,1L-398.031,407.002z M-394.969,407.004
		h-1.18c0.146-0.388,0.519-1.002,1.18-1.002c0.168,0,0.469,0.162,0.469,0.486C-394.5,406.941-394.725,407.004-394.969,407.004z"/>
</g>
<g>
	<g>
		<path fill="#454545" d="M-399,408.498c-0.276,0-0.5,0.224-0.5,0.5v1.496l2.5,0.006v-1.996L-399,408.498z"/>
		<path fill="#454545" d="M-394,408.498c0.276,0,0.5,0.224,0.5,0.5v1.496l-2.5,0.006v-1.996L-394,408.498z"/>
		<path fill="#454545" d="M-399,413.5c-0.276,0-0.5-0.224-0.5-0.5v-1.506l2.5,0.006v2.006L-399,413.5z"/>
		<path fill="#454545" d="M-394,413.5c0.276,0,0.5-0.224,0.5-0.5v-1.506l-2.5,0.006v2.006L-394,413.5z"/>
	</g>
	<path fill="#454545" d="M-394.969,405.502c-0.734,0-1.26,0.505-1.531,1c-0.272-0.495-0.798-1.002-1.531-1.002
		c-0.458,0-0.969,0.405-0.969,0.986c0,0.636,0.362,1.016,0.969,1.016h0l1.829,0.002h1.233c0.606,0,0.969-0.38,0.969-1.016
		C-394,405.907-394.511,405.502-394.969,405.502z M-398.031,407.002c-0.244,0-0.469-0.062-0.469-0.516
		c0-0.324,0.3-0.486,0.469-0.486c0.661,0,1.035,0.613,1.18,1L-398.031,407.002z M-394.969,407.004h-1.18
		c0.146-0.388,0.519-1.002,1.18-1.002c0.168,0,0.469,0.162,0.469,0.486C-394.5,406.941-394.725,407.004-394.969,407.004z"/>
</g>
</svg>
