<?xml version="1.0" encoding="UTF-8" standalone="no"?>
<!-- Created with Inkscape (http://www.inkscape.org/) -->

<svg
   xmlns:dc="http://purl.org/dc/elements/1.1/"
   xmlns:cc="http://creativecommons.org/ns#"
   xmlns:rdf="http://www.w3.org/1999/02/22-rdf-syntax-ns#"
   xmlns:svg="http://www.w3.org/2000/svg"
   xmlns="http://www.w3.org/2000/svg"
   xmlns:inkscape="http://www.inkscape.org/namespaces/inkscape"
   version="1.1"
   width="18"
   height="18"
   viewBox="-402.5 403.5 18 18"
   id="svg4619"
   xml:space="preserve"><metadata
     id="metadata44"><rdf:RDF><cc:Work
         rdf:about=""><dc:format>image/svg+xml</dc:format><dc:type
           rdf:resource="http://purl.org/dc/dcmitype/StillImage" /></cc:Work></rdf:RDF></metadata><defs
     id="defs42" /><g
     id="g3"
     style="opacity:0.3"><g
       id="g5"><g
         id="g7"><path
           d="m -397.5,414.5 v 2 c 0,0.553 0.448,1 1,1 h 2.5 v -3 h -3.5 z"
           inkscape:connector-curvature="0"
           id="path9"
           style="fill:#ffffff;stroke:#ffffff;stroke-width:2;stroke-miterlimit:10" /><path
           d="m -393,414.5 v 3 h 2.5 c 0.552,0 1,-0.447 1,-1 v -2 h -3.5 z"
           inkscape:connector-curvature="0"
           id="path11"
           style="fill:#ffffff;stroke:#ffffff;stroke-width:2;stroke-miterlimit:10" /></g><g
         id="g13"><path
           d="m -394,410.5 h -2.5 c -0.552,0 -1,0.447 -1,1 v 2 h 3.5 v -3 z"
           inkscape:connector-curvature="0"
           id="path15"
           style="fill:#ffffff;stroke:#ffffff;stroke-width:2;stroke-miterlimit:10" /><path
           d="m -390.5,410.5 h -2.5 v 3 h 3.5 v -2 c 0,-0.553 -0.448,-1 -1,-1 z"
           inkscape:connector-curvature="0"
           id="path17"
           style="fill:#ffffff;stroke:#ffffff;stroke-width:2;stroke-miterlimit:10" /></g></g><path
       d="m -391.417,406.665 c -1.074,0 -1.855,0.643 -2.126,1.585 -0.27,-0.942 -0.942,-1.585 -2.039,-1.585 -0.708,0 -1.417,0.497 -1.417,1.417 0,0.921 0.433,1.418 1.352,1.418 h 1.97 0.216 2.056 c 0.92,0 1.406,-0.485 1.406,-1.406 0,-0.921 -0.71,-1.429 -1.418,-1.429 z m 0,0.708 c 0.708,0 0.708,0.68 0.708,0.709 0,0.031 0.036,0.709 -0.708,0.709 h -1.417 c 0.075,-0.508 0.269,-1.418 1.417,-1.418 z m -2.748,1.418 h -1.417 c -0.745,0 -0.708,-0.678 -0.708,-0.709 0,-0.029 -0.036,-0.709 0.708,-0.709 1.147,0 1.341,0.91 1.417,1.418 z"
       inkscape:connector-curvature="0"
       id="path19"
       style="fill:#ffffff;stroke:#ffffff;stroke-width:2;stroke-miterlimit:10" /></g><g
     id="g21"><g
       id="g23"><g
         id="g25"><path
           d="m -397.5,414.5 v 2 c 0,0.553 0.448,1 1,1 h 2.5 v -3 h -3.5 z"
           inkscape:connector-curvature="0"
           id="path27"
           style="fill:#454545" /><path
           d="m -393,414.5 v 3 h 2.5 c 0.552,0 1,-0.447 1,-1 v -2 h -3.5 z"
           inkscape:connector-curvature="0"
           id="path29"
           style="fill:#454545" /></g><g
         id="g31"><path
           d="m -394,410.5 h -2.5 c -0.552,0 -1,0.447 -1,1 v 2 h 3.5 v -3 z"
           inkscape:connector-curvature="0"
           id="path33"
           style="fill:#454545" /><path
           d="m -390.5,410.5 h -2.5 v 3 h 3.5 v -2 c 0,-0.553 -0.448,-1 -1,-1 z"
           inkscape:connector-curvature="0"
           id="path35"
           style="fill:#454545" /></g></g><path
       d="m -391.417,406.665 c -1.074,0 -1.855,0.643 -2.126,1.585 -0.27,-0.942 -0.942,-1.585 -2.039,-1.585 -0.708,0 -1.417,0.497 -1.417,1.417 0,0.921 0.433,1.418 1.352,1.418 h 1.97 0.216 2.056 c 0.92,0 1.406,-0.485 1.406,-1.406 0,-0.921 -0.71,-1.429 -1.418,-1.429 z m 0,0.708 c 0.708,0 0.708,0.68 0.708,0.709 0,0.031 0.036,0.709 -0.708,0.709 h -1.417 c 0.075,-0.508 0.269,-1.418 1.417,-1.418 z m -2.748,1.418 h -1.417 c -0.745,0 -0.708,-0.678 -0.708,-0.709 0,-0.029 -0.036,-0.709 0.708,-0.709 1.147,0 1.341,0.91 1.417,1.418 z"
       inkscape:connector-curvature="0"
       id="path37"
       style="fill:#454545" /></g><rect
     width="18"
     height="18"
     x="0"
     y="0"
     id="canvas"
     style="fill:none;stroke:none;visibility:hidden" /></svg>