<?xml version="1.0" encoding="utf-8"?>
<!-- Generator: Adobe Illustrator 18.1.1, SVG Export Plug-In . SVG Version: 6.00 Build 0)  -->
<svg version="1.1" xmlns="http://www.w3.org/2000/svg" xmlns:xlink="http://www.w3.org/1999/xlink" x="0px" y="0px"
	 viewBox="0 0 24 24" enable-background="new 0 0 24 24" xml:space="preserve">
<g id="shadows">
	<g opacity="0.2">
		<path d="M18.1,9.2c0-0.3-0.3-0.4-0.3-0.4L10.4,4L9.7,4.9C9.6,5.1,9.6,6.1,9.8,6.2c0.2,0.1,0.5-0.7,0.6-0.8l0.4-0.6l6,4l-4.9,1.4
			c-0.3,0.1-0.8-0.1-0.7,0.2l1.2,4.1L9,19.7c-0.2,0.4-0.1,1,0.3,1.2c0.4,0.2,0.8-0.1,1-0.5l3.6-5.5l0.2,0.8l-0.5,4.1
			c-0.1,0.4,0.3,1,0.7,1.1c0.4,0.1,0.7-0.4,0.8-0.8l0.6-4.2c0-0.1,0-0.3,0-0.4l-1.2-4.9l3.2-0.6C17.9,9.9,18.2,9.6,18.1,9.2
			L18.1,9.2z"/>
		<path d="M11.8,9.4h-0.5c-0.5,0-0.9-0.4-0.9-0.9V8c0-0.5,0.4-0.9,0.9-0.9h0.5c0.5,0,0.9,0.4,0.9,0.9v0.5C12.7,9,12.3,9.4,11.8,9.4z
			"/>
	</g>
</g>
<g id="icons">
	<g>
		<path fill="#FFFFFF" d="M17.1,8.2c0-0.3-0.3-0.4-0.3-0.4L9.4,3L8.7,3.9C8.6,4.1,8.6,5.1,8.8,5.2C9,5.4,9.3,4.6,9.4,4.4l0.4-0.6
			l6,4l-4.9,1.4c-0.3,0.1-0.8-0.1-0.7,0.2l1.2,4.1L8,18.7c-0.2,0.4-0.1,1,0.3,1.2c0.4,0.2,0.8-0.1,1-0.5l3.6-5.5l0.2,0.8l-0.5,4.1
			c-0.1,0.4,0.3,1,0.7,1.1c0.4,0.1,0.7-0.4,0.8-0.8l0.6-4.2c0-0.1,0-0.3,0-0.4l-1.2-4.9L16.5,9C16.9,8.9,17.2,8.6,17.1,8.2L17.1,8.2
			z"/>
		<path fill="#FFFFFF" d="M10.8,8.4h-0.5C9.8,8.4,9.4,8,9.4,7.5V7c0-0.5,0.4-0.9,0.9-0.9h0.5c0.5,0,0.9,0.4,0.9,0.9v0.5
			C11.7,8,11.3,8.4,10.8,8.4z"/>
	</g>
</g>
<g id="guides">
</g>
</svg>
