<?xml version="1.0" encoding="UTF-8" standalone="no"?>
<!-- Created with Inkscape (http://www.inkscape.org/) -->

<svg
   xmlns:dc="http://purl.org/dc/elements/1.1/"
   xmlns:cc="http://creativecommons.org/ns#"
   xmlns:rdf="http://www.w3.org/1999/02/22-rdf-syntax-ns#"
   xmlns:svg="http://www.w3.org/2000/svg"
   xmlns="http://www.w3.org/2000/svg"
   xmlns:inkscape="http://www.inkscape.org/namespaces/inkscape"
   version="1.1"
   width="12"
   height="12"
   id="svg4764">
  <defs
     id="defs4766" />
  <metadata
     id="metadata4769">
    <rdf:RDF>
      <cc:Work
         rdf:about="">
        <dc:format>image/svg+xml</dc:format>
        <dc:type
           rdf:resource="http://purl.org/dc/dcmitype/StillImage" />
        <dc:title />
      </cc:Work>
    </rdf:RDF>
  </metadata>
  <g
     transform="translate(0,-1040.3622)"
     id="layer1">
    <g
       transform="translate(-516,-154)"
       id="golf-12"
       style="display:inline">
      <g
         id="g21482">
        <path
           d="m 521,1195.3622 c -0.19513,0 -0.5,0.2143 -0.5,0.5 l 0,7.75 c -1.14286,0.035 -1.5,0.8929 -1.5,1.4643 0,0.2857 0.28571,0.2857 0.28571,0.2857 l 6.42858,0 c 0,0 0.28571,0 0.28571,-0.2857 0,-1.4286 -0.64286,-2.5714 -1.5,-2.5714 -0.89848,0 -1.18177,1.5887 -2.07143,1.7142 -0.39012,0.055 -1.05279,-0.1973 -1.42857,-0.3928 l 0,-4.9643 4,-1.5 z"
           inkscape:connector-curvature="0"
           id="path5259"
           style="opacity:0.3;color:#000000;fill:none;stroke:#ffffff;stroke-width:2;stroke-linecap:round;stroke-linejoin:round;stroke-miterlimit:4;stroke-opacity:1;stroke-dasharray:none;stroke-dashoffset:0;marker:none;visibility:visible;display:inline;overflow:visible;enable-background:accumulate" />
        <path
           d="m 521,1195.3622 c -0.19513,0 -0.5,0.2143 -0.5,0.5 l 0,7.75 c -1.14286,0.035 -1.5,0.8929 -1.5,1.4643 0,0.2857 0.28571,0.2857 0.28571,0.2857 l 6.42858,0 c 0,0 0.28571,0 0.28571,-0.2857 0,-1.4286 -0.64286,-2.5714 -1.5,-2.5714 -0.89848,0 -1.18177,1.5887 -2.07143,1.7142 -0.39012,0.055 -1.05279,-0.1973 -1.42857,-0.3928 l 0,-4.9643 4,-1.5 z"
           inkscape:connector-curvature="0"
           id="rect8138-7-8"
           style="color:#000000;fill:#444444;fill-opacity:1;fill-rule:nonzero;stroke:none;stroke-width:2;marker:none;visibility:visible;display:inline;overflow:visible;enable-background:accumulate" />
      </g>
    </g>
  </g>
  <rect
     width="12"
     height="12"
     x="0"
     y="0"
     id="canvas"
     style="fill:none;stroke:none;visibility:hidden" />
</svg>
