<?xml version="1.0" encoding="utf-8"?>
<!-- Generator: Adobe Illustrator 18.1.1, SVG Export Plug-In . SVG Version: 6.00 Build 0)  -->
<svg version="1.1" xmlns="http://www.w3.org/2000/svg" xmlns:xlink="http://www.w3.org/1999/xlink" x="0px" y="0px"
	 viewBox="0 0 18 18" enable-background="new 0 0 18 18" xml:space="preserve">
<g id="shadows">
	<g opacity="0.2">
		<polyline points="12.1,7.4 8.4,8.3 9.3,10.2 8.4,11.1 6.5,15.8 7.5,15.8 9.3,12 10.2,12 10.2,15.8 11.2,15.8 12.1,11.1 11.2,8.3 
			12.1,8.3 14,7.4 		"/>
		<rect x="7.5" y="5.5" width="1.9" height="1.9"/>
		<rect x="13" y="7.4" width="0.9" height="0.9"/>
		<rect x="12.1" y="6.5" width="0.9" height="0.9"/>
		<rect x="11.2" y="5.5" width="0.9" height="0.9"/>
		<rect x="10.2" y="4.6" width="0.9" height="0.9"/>
		<rect x="9.3" y="3.7" width="0.9" height="0.9"/>
		<rect x="8.4" y="2.8" width="0.9" height="0.9"/>
		<rect x="7.5" y="2.8" width="0.9" height="0.9"/>
		<rect x="7.5" y="3.7" width="0.9" height="0.9"/>
	</g>
</g>
<g id="icons">
	<g>
		<polyline fill="#FFFFFF" points="11.4,6.6 7.6,7.6 8.6,9.4 7.6,10.4 5.8,15 6.7,15 8.6,11.3 9.5,11.3 9.5,15 10.4,15 11.4,10.4 
			10.4,7.6 11.4,7.6 13.2,6.6 		"/>
		<rect x="6.7" y="4.8" fill="#FFFFFF" width="1.9" height="1.9"/>
		<rect x="12.3" y="6.6" fill="#FFFFFF" width="0.9" height="0.9"/>
		<rect x="11.4" y="5.7" fill="#FFFFFF" width="0.9" height="0.9"/>
		<rect x="10.4" y="4.8" fill="#FFFFFF" width="0.9" height="0.9"/>
		<rect x="9.5" y="3.9" fill="#FFFFFF" width="0.9" height="0.9"/>
		<rect x="8.6" y="2.9" fill="#FFFFFF" width="0.9" height="0.9"/>
		<rect x="7.6" y="2" fill="#FFFFFF" width="0.9" height="0.9"/>
		<rect x="6.7" y="2" fill="#FFFFFF" width="0.9" height="0.9"/>
		<rect x="6.7" y="2.9" fill="#FFFFFF" width="0.9" height="0.9"/>
	</g>
</g>
<g id="guides">
</g>
</svg>
