<?xml version="1.0" encoding="UTF-8" standalone="no"?>
<svg width="18px" height="18px" viewBox="0 0 18 18" version="1.1" xmlns="http://www.w3.org/2000/svg" xmlns:xlink="http://www.w3.org/1999/xlink" xmlns:sketch="http://www.bohemiancoding.com/sketch/ns">
    <!-- Generator: Sketch 3.2.2 (9983) - http://www.bohemiancoding.com/sketch -->
    <title>golfing-black-18</title>
    <desc>Created with Sketch.</desc>
    <defs></defs>
    <g id="Page-1" stroke="none" stroke-width="1" fill="none" fill-rule="evenodd" sketch:type="MSPage">
        <path d="M13.8074074,7.00054061 C13.762963,6.74505297 13.4962963,6.60635968 13.4814815,6.59176039 L6.40740741,2.05867971 L5.71111111,2.92733768 C5.59259259,3.1171285 5.64444444,4.04418365 5.82962963,4.16827764 C6.02222222,4.29237164 6.26666667,3.55510731 6.39259259,3.36531649 L6.77777778,2.82514262 L12.5481481,6.56986145 L7.82222222,7.87649823 C7.48888889,7.93489541 7.07407407,7.78890247 7.15555556,8.11008693 L8.34814815,12.0226976 L5.02222222,16.93536 C4.82222222,17.2711437 4.94074074,17.8624151 5.28888889,18.0595056 C5.63703704,18.2492964 6.07407407,17.9646102 6.27407407,17.6288264 L9.75555556,12.4606764 L9.94074074,13.1833415 L9.41481481,17.0302554 C9.35555556,17.4171366 9.66666667,17.9938087 10.0592593,18.0595056 C10.4592593,18.1252024 10.7777778,17.6507253 10.8444444,17.2638441 L11.3777778,13.3074355 C11.3925926,13.2052404 11.3777778,12.9789514 11.3481481,12.884056 L10.162963,8.24148058 L13.2518519,7.69400706 C13.5851852,7.63560989 13.8666667,7.32172507 13.8074074,7.00054061" id="Fill-203" opacity="0.1" fill="#0A0B09" sketch:type="MSShapeGroup"></path>
        <path d="M7.77037037,7.16843249 L7.26666667,7.16843249 C6.79259259,7.16843249 6.40740741,6.78885086 6.40740741,6.32167346 L6.40740741,5.82529747 C6.40740741,5.35812008 6.79259259,4.97853844 7.26666667,4.97853844 L7.77037037,4.97853844 C8.24444444,4.97853844 8.62962963,5.35812008 8.62962963,5.82529747 L8.62962963,6.32167346 C8.62962963,6.78885086 8.24444444,7.16843249 7.77037037,7.16843249" id="Fill-204" opacity="0.1" fill="#0A0B09" sketch:type="MSShapeGroup"></path>
        <path d="M12.8074074,6.00054061 C12.762963,5.74505297 12.4962963,5.60635968 12.4814815,5.59176039 L5.40740741,1.05867971 L4.71111111,1.92733768 C4.59259259,2.1171285 4.64444444,3.04418365 4.82962963,3.16827764 C5.02222222,3.29237164 5.26666667,2.55510731 5.39259259,2.36531649 L5.77777778,1.82514262 L11.5481481,5.56986145 L6.82222222,6.87649823 C6.48888889,6.93489541 6.07407407,6.78890247 6.15555556,7.11008693 L7.34814815,11.0226976 L4.02222222,15.93536 C3.82222222,16.2711437 3.94074074,16.8624151 4.28888889,17.0595056 C4.63703704,17.2492964 5.07407407,16.9646102 5.27407407,16.6288264 L8.75555556,11.4606764 L8.94074074,12.1833415 L8.41481481,16.0302554 C8.35555556,16.4171366 8.66666667,16.9938087 9.05925926,17.0595056 C9.45925926,17.1252024 9.77777778,16.6507253 9.84444444,16.2638441 L10.3777778,12.3074355 C10.3925926,12.2052404 10.3777778,11.9789514 10.3481481,11.884056 L9.16296296,7.24148058 L12.2518519,6.69400706 C12.5851852,6.63560989 12.8666667,6.32172507 12.8074074,6.00054061" id="Fill-203" opacity="0.2" fill="#0A0B09" sketch:type="MSShapeGroup"></path>
        <path d="M6.77037037,6.16843249 L6.26666667,6.16843249 C5.79259259,6.16843249 5.40740741,5.78885086 5.40740741,5.32167346 L5.40740741,4.82529747 C5.40740741,4.35812008 5.79259259,3.97853844 6.26666667,3.97853844 L6.77037037,3.97853844 C7.24444444,3.97853844 7.62962963,4.35812008 7.62962963,4.82529747 L7.62962963,5.32167346 C7.62962963,5.78885086 7.24444444,6.16843249 6.77037037,6.16843249" id="Fill-204" opacity="0.2" fill="#0A0B09" sketch:type="MSShapeGroup"></path>
        <path d="M11.8074074,5.00054061 C11.762963,4.74505297 11.4962963,4.60635968 11.4814815,4.59176039 L4.40740741,0.0586797066 L3.71111111,0.92733768 C3.59259259,1.1171285 3.64444444,2.04418365 3.82962963,2.16827764 C4.02222222,2.29237164 4.26666667,1.55510731 4.39259259,1.36531649 L4.77777778,0.825142624 L10.5481481,4.56986145 L5.82222222,5.87649823 C5.48888889,5.93489541 5.07407407,5.78890247 5.15555556,6.11008693 L6.34814815,10.0226976 L3.02222222,14.93536 C2.82222222,15.2711437 2.94074074,15.8624151 3.28888889,16.0595056 C3.63703704,16.2492964 4.07407407,15.9646102 4.27407407,15.6288264 L7.75555556,10.4606764 L7.94074074,11.1833415 L7.41481481,15.0302554 C7.35555556,15.4171366 7.66666667,15.9938087 8.05925926,16.0595056 C8.45925926,16.1252024 8.77777778,15.6507253 8.84444444,15.2638441 L9.37777778,11.3074355 C9.39259259,11.2052404 9.37777778,10.9789514 9.34814815,10.884056 L8.16296296,6.24148058 L11.2518519,5.69400706 C11.5851852,5.63560989 11.8666667,5.32172507 11.8074074,5.00054061" id="Fill-203" fill="#0A0B09" sketch:type="MSShapeGroup"></path>
        <path d="M5.77037037,5.16843249 L5.26666667,5.16843249 C4.79259259,5.16843249 4.40740741,4.78885086 4.40740741,4.32167346 L4.40740741,3.82529747 C4.40740741,3.35812008 4.79259259,2.97853844 5.26666667,2.97853844 L5.77037037,2.97853844 C6.24444444,2.97853844 6.62962963,3.35812008 6.62962963,3.82529747 L6.62962963,4.32167346 C6.62962963,4.78885086 6.24444444,5.16843249 5.77037037,5.16843249" id="Fill-204" fill="#0A0B09" sketch:type="MSShapeGroup"></path>
    </g>
</svg>