<?xml version="1.0" encoding="UTF-8" standalone="no"?>
<!-- Created with Inkscape (http://www.inkscape.org/) -->

<svg
   xmlns:dc="http://purl.org/dc/elements/1.1/"
   xmlns:cc="http://creativecommons.org/ns#"
   xmlns:rdf="http://www.w3.org/1999/02/22-rdf-syntax-ns#"
   xmlns:svg="http://www.w3.org/2000/svg"
   xmlns="http://www.w3.org/2000/svg"
   xmlns:sodipodi="http://sodipodi.sourceforge.net/DTD/sodipodi-0.dtd"
   xmlns:inkscape="http://www.inkscape.org/namespaces/inkscape"
   width="12"
   height="12"
   id="svg27498"
   version="1.1"
   inkscape:version="0.48.2 r9819"
   sodipodi:docname="4-wheel-drive-black-12.svg">
  <defs
     id="defs27500" />
  <sodipodi:namedview
     id="base"
     pagecolor="#ff92ff"
     bordercolor="#666666"
     borderopacity="1.0"
     inkscape:pageopacity="0"
     inkscape:pageshadow="2"
     inkscape:zoom="15.046261"
     inkscape:cx="2.7289703"
     inkscape:cy="5.0632096"
     inkscape:document-units="px"
     inkscape:current-layer="layer1"
     showgrid="false"
     inkscape:window-width="586"
     inkscape:window-height="473"
     inkscape:window-x="2569"
     inkscape:window-y="148"
     inkscape:window-maximized="0">
    <inkscape:grid
       type="xygrid"
       id="grid2986" />
  </sodipodi:namedview>
  <metadata
     id="metadata27503">
    <rdf:RDF>
      <cc:Work
         rdf:about="">
        <dc:format>image/svg+xml</dc:format>
        <dc:type
           rdf:resource="http://purl.org/dc/dcmitype/StillImage" />
        <dc:title></dc:title>
      </cc:Work>
    </rdf:RDF>
  </metadata>
  <g
     inkscape:label="Layer 1"
     inkscape:groupmode="layer"
     id="layer1"
     transform="translate(0,-1040.3622)">
    <g
       id="g14306"
       transform="matrix(1.2134695,0,0,1.2134695,-25.689395,686.79836)">
      <path
         style="opacity:0;fill:#272525"
         inkscape:connector-curvature="0"
         id="path14308"
         d="m 22.386,291.326 c -0.679,0 -1.231,0.555 -1.231,1.233 v 7.425 c 0,0.68 0.553,1.232 1.231,1.232 h 7.426 c 0.68,0 1.232,-0.553 1.232,-1.232 v -7.425 c 0,-0.679 -0.553,-1.233 -1.232,-1.233 h -7.426 z" />
      <g
         id="g14310"
         style="opacity:0.6;fill:none;stroke:#ffffff;stroke-width:0.5;stroke-miterlimit:0;stroke-opacity:1;stroke-dasharray:none">
        <ellipse
           style="fill:none;stroke:#ffffff;stroke-width:0.5;stroke-miterlimit:0;stroke-opacity:1;stroke-dasharray:none"
           sodipodi:ry="0.63700002"
           sodipodi:rx="0.64600003"
           sodipodi:cy="294.056"
           sodipodi:cx="25.490999"
           id="ellipse14312"
           ry="0.63700002"
           rx="0.64600003"
           cy="294.056"
           cx="25.490999"
           d="m 26.136999,294.056 c 0,0.35181 -0.289224,0.637 -0.646,0.637 -0.356776,0 -0.646,-0.28519 -0.646,-0.637 0,-0.35181 0.289224,-0.637 0.646,-0.637 0.356776,0 0.646,0.28519 0.646,0.637 z" />
        <path
           style="fill:none;stroke:#ffffff;stroke-width:0.5;stroke-miterlimit:0;stroke-opacity:1;stroke-dasharray:none"
           inkscape:connector-curvature="0"
           id="path14314"
           d="m 28.766,294.679 c -0.024,-0.138 -0.137,-0.216 -0.144,-0.221 l -3.794,-2.501 -0.353,0.511 c -0.065,0.101 -0.037,0.234 0.063,0.3 0.101,0.066 0.234,0.039 0.3,-0.062 l 0.206,-0.295 3.081,2.033 -2.524,0.454 c -0.179,0.03 -0.308,0.209 -0.268,0.384 l 0.549,2.124 -1.776,2.665 c -0.106,0.182 -0.042,0.415 0.142,0.52 0.186,0.105 0.421,0.041 0.527,-0.141 0,0 1.854,-2.787 1.86,-2.805 0,0 0.096,0.387 0.096,0.389 l -0.278,2.091 c -0.035,0.208 0.106,0.402 0.316,0.438 0.21,0.036 0.409,-0.104 0.444,-0.312 l 0.287,-2.15 c 0.009,-0.055 -0.002,-0.176 -0.015,-0.229 l -0.634,-2.519 1.648,-0.297 c 0.179,-0.031 0.298,-0.201 0.267,-0.377 z" />
      </g>
      <g
         id="g14316">
        <ellipse
           cx="25.490999"
           cy="294.056"
           rx="0.64600003"
           ry="0.63700002"
           id="ellipse14318"
           sodipodi:cx="25.490999"
           sodipodi:cy="294.056"
           sodipodi:rx="0.64600003"
           sodipodi:ry="0.63700002"
           style="fill:#272525"
           d="m 26.136999,294.056 c 0,0.35181 -0.289224,0.637 -0.646,0.637 -0.356776,0 -0.646,-0.28519 -0.646,-0.637 0,-0.35181 0.289224,-0.637 0.646,-0.637 0.356776,0 0.646,0.28519 0.646,0.637 z" />
        <path
           d="m 28.766,294.679 c -0.024,-0.138 -0.137,-0.216 -0.144,-0.221 l -3.794,-2.501 -0.353,0.511 c -0.065,0.101 -0.037,0.234 0.063,0.3 0.101,0.066 0.234,0.039 0.3,-0.062 l 0.206,-0.295 3.081,2.033 -2.524,0.454 c -0.179,0.03 -0.308,0.209 -0.268,0.384 l 0.549,2.124 -1.776,2.665 c -0.106,0.182 -0.042,0.415 0.142,0.52 0.186,0.105 0.421,0.041 0.527,-0.141 0,0 1.854,-2.787 1.86,-2.805 0,0 0.096,0.387 0.096,0.389 l -0.278,2.091 c -0.035,0.208 0.106,0.402 0.316,0.438 0.21,0.036 0.409,-0.104 0.444,-0.312 l 0.287,-2.15 c 0.009,-0.055 -0.002,-0.176 -0.015,-0.229 l -0.634,-2.519 1.648,-0.297 c 0.179,-0.031 0.298,-0.201 0.267,-0.377 z"
           id="path14320"
           inkscape:connector-curvature="0"
           style="fill:#272525" />
      </g>
    </g>
  </g>
</svg>
