<?xml version="1.0" encoding="UTF-8" standalone="no"?>
<svg width="12px" height="12px" viewBox="0 0 12 12" version="1.1" xmlns="http://www.w3.org/2000/svg" xmlns:xlink="http://www.w3.org/1999/xlink" xmlns:sketch="http://www.bohemiancoding.com/sketch/ns">
    <!-- Generator: Sketch 3.2.2 (9983) - http://www.bohemiancoding.com/sketch -->
    <title>golfing-white-12</title>
    <desc>Created with Sketch.</desc>
    <defs></defs>
    <g id="Page-1" stroke="none" stroke-width="1" fill="none" fill-rule="evenodd" sketch:type="MSPage">
        <g id="Group-+-Group-+-Group" sketch:type="MSLayerGroup" transform="translate(2.000000, -0.500000)">
            <g id="Group" transform="translate(2.000000, 2.000000)" fill="#0A0B09" opacity="0.5" sketch:type="MSShapeGroup">
                <path d="M4.36934118,4.03670058 L1.54581176,4.74689342 L2.25169412,6.16727909 L1.54581176,6.87747193 L0.134047059,10.4284361 L0.839929412,10.4284361 L2.25169412,7.58766477 L2.95757647,7.58766477 L2.95757647,10.4284361 L3.66345882,10.4284361 L4.36934118,6.87747193 L3.66345882,4.74689342 L4.36934118,4.74689342 L5.78110588,4.03670058" id="Fill-212"></path>
                <path d="M0.839929412,2.6163149 L2.25169412,2.6163149 L2.25169412,4.03670058 L0.839929412,4.03670058 L0.839929412,2.6163149 Z" id="Fill-213"></path>
                <path d="M5.07522353,4.03670058 L5.78110588,4.03670058 L5.78110588,4.74689342 L5.07522353,4.74689342 L5.07522353,4.03670058 Z" id="Fill-214"></path>
                <path d="M4.36934118,3.32650774 L5.07522353,3.32650774 L5.07522353,4.03670058 L4.36934118,4.03670058 L4.36934118,3.32650774 Z" id="Fill-215"></path>
                <path d="M3.66345882,2.6163149 L4.36934118,2.6163149 L4.36934118,3.32650774 L3.66345882,3.32650774 L3.66345882,2.6163149 Z" id="Fill-216"></path>
                <path d="M2.95757647,1.90612207 L3.66345882,1.90612207 L3.66345882,2.6163149 L2.95757647,2.6163149 L2.95757647,1.90612207 Z" id="Fill-217"></path>
                <path d="M2.25169412,1.19592923 L2.95757647,1.19592923 L2.95757647,1.90612207 L2.25169412,1.90612207 L2.25169412,1.19592923 Z" id="Fill-218"></path>
                <path d="M0.839929412,0.485736391 L2.25169412,0.485736391 L2.25169412,1.19592923 L0.839929412,1.19592923 L0.839929412,0.485736391 Z" id="Fill-219"></path>
                <path d="M0.839929412,1.19592923 L1.54581176,1.19592923 L1.54581176,1.90612207 L0.839929412,1.90612207 L0.839929412,1.19592923 Z" id="Fill-220"></path>
            </g>
            <g id="Group" transform="translate(1.000000, 1.000000)" fill="#0A0B09" opacity="0.75" sketch:type="MSShapeGroup">
                <path d="M4.36934118,4.03670058 L1.54581176,4.74689342 L2.25169412,6.16727909 L1.54581176,6.87747193 L0.134047059,10.4284361 L0.839929412,10.4284361 L2.25169412,7.58766477 L2.95757647,7.58766477 L2.95757647,10.4284361 L3.66345882,10.4284361 L4.36934118,6.87747193 L3.66345882,4.74689342 L4.36934118,4.74689342 L5.78110588,4.03670058" id="Fill-212"></path>
                <path d="M0.839929412,2.6163149 L2.25169412,2.6163149 L2.25169412,4.03670058 L0.839929412,4.03670058 L0.839929412,2.6163149 Z" id="Fill-213"></path>
                <path d="M5.07522353,4.03670058 L5.78110588,4.03670058 L5.78110588,4.74689342 L5.07522353,4.74689342 L5.07522353,4.03670058 Z" id="Fill-214"></path>
                <path d="M4.36934118,3.32650774 L5.07522353,3.32650774 L5.07522353,4.03670058 L4.36934118,4.03670058 L4.36934118,3.32650774 Z" id="Fill-215"></path>
                <path d="M3.66345882,2.6163149 L4.36934118,2.6163149 L4.36934118,3.32650774 L3.66345882,3.32650774 L3.66345882,2.6163149 Z" id="Fill-216"></path>
                <path d="M2.95757647,1.90612207 L3.66345882,1.90612207 L3.66345882,2.6163149 L2.95757647,2.6163149 L2.95757647,1.90612207 Z" id="Fill-217"></path>
                <path d="M2.25169412,1.19592923 L2.95757647,1.19592923 L2.95757647,1.90612207 L2.25169412,1.90612207 L2.25169412,1.19592923 Z" id="Fill-218"></path>
                <path d="M0.839929412,0.485736391 L2.25169412,0.485736391 L2.25169412,1.19592923 L0.839929412,1.19592923 L0.839929412,0.485736391 Z" id="Fill-219"></path>
                <path d="M0.839929412,1.19592923 L1.54581176,1.19592923 L1.54581176,1.90612207 L0.839929412,1.90612207 L0.839929412,1.19592923 Z" id="Fill-220"></path>
            </g>
            <g id="Group" fill="#FFFFFF" sketch:type="MSShapeGroup">
                <path d="M4.36934118,4.03670058 L1.54581176,4.74689342 L2.25169412,6.16727909 L1.54581176,6.87747193 L0.134047059,10.4284361 L0.839929412,10.4284361 L2.25169412,7.58766477 L2.95757647,7.58766477 L2.95757647,10.4284361 L3.66345882,10.4284361 L4.36934118,6.87747193 L3.66345882,4.74689342 L4.36934118,4.74689342 L5.78110588,4.03670058" id="Fill-212"></path>
                <path d="M0.839929412,2.6163149 L2.25169412,2.6163149 L2.25169412,4.03670058 L0.839929412,4.03670058 L0.839929412,2.6163149 Z" id="Fill-213"></path>
                <path d="M5.07522353,4.03670058 L5.78110588,4.03670058 L5.78110588,4.74689342 L5.07522353,4.74689342 L5.07522353,4.03670058 Z" id="Fill-214"></path>
                <path d="M4.36934118,3.32650774 L5.07522353,3.32650774 L5.07522353,4.03670058 L4.36934118,4.03670058 L4.36934118,3.32650774 Z" id="Fill-215"></path>
                <path d="M3.66345882,2.6163149 L4.36934118,2.6163149 L4.36934118,3.32650774 L3.66345882,3.32650774 L3.66345882,2.6163149 Z" id="Fill-216"></path>
                <path d="M2.95757647,1.90612207 L3.66345882,1.90612207 L3.66345882,2.6163149 L2.95757647,2.6163149 L2.95757647,1.90612207 Z" id="Fill-217"></path>
                <path d="M2.25169412,1.19592923 L2.95757647,1.19592923 L2.95757647,1.90612207 L2.25169412,1.90612207 L2.25169412,1.19592923 Z" id="Fill-218"></path>
                <path d="M0.839929412,0.485736391 L2.25169412,0.485736391 L2.25169412,1.19592923 L0.839929412,1.19592923 L0.839929412,0.485736391 Z" id="Fill-219"></path>
                <path d="M0.839929412,1.19592923 L1.54581176,1.19592923 L1.54581176,1.90612207 L0.839929412,1.90612207 L0.839929412,1.19592923 Z" id="Fill-220"></path>
            </g>
        </g>
    </g>
</svg>