<?xml version="1.0" encoding="UTF-8" standalone="no"?>
<!-- Created with Inkscape (http://www.inkscape.org/) -->

<svg
   xmlns:dc="http://purl.org/dc/elements/1.1/"
   xmlns:cc="http://creativecommons.org/ns#"
   xmlns:rdf="http://www.w3.org/1999/02/22-rdf-syntax-ns#"
   xmlns:svg="http://www.w3.org/2000/svg"
   xmlns="http://www.w3.org/2000/svg"
   xmlns:inkscape="http://www.inkscape.org/namespaces/inkscape"
   version="1.1"
   width="24"
   height="24"
   id="svg4460">
  <defs
     id="defs4462" />
  <metadata
     id="metadata4465">
    <rdf:RDF>
      <cc:Work
         rdf:about="">
        <dc:format>image/svg+xml</dc:format>
        <dc:type
           rdf:resource="http://purl.org/dc/dcmitype/StillImage" />
        <dc:title />
      </cc:Work>
    </rdf:RDF>
  </metadata>
  <g
     transform="translate(0,-1028.3622)"
     id="layer1">
    <g
       transform="translate(-474,-166)"
       id="golf-24"
       style="display:inline">
      <g
         id="g16731">
        <path
           d="m 483.5,1196.3623 c -0.34148,0 -0.5,0 -0.5,0.5 l 0,14.4375 c -2,0.062 -3,1.5625 -3,2.5625 0,0.5 0.5,0.5 0.5,0.5 l 12,0 c 0,0 0.5,0 0.5,-0.5 0,-2.5 -1.5,-4.5 -3,-4.5 -1.57233,0 -2.44309,2.7803 -4,3 -0.68271,0.096 -1.3424,-0.3453 -2,-0.6875 l 0,-9.3125 7,-3 -6.49838,-2.785 c -0.37647,-0.1613 -0.7515,-0.215 -1.00162,-0.215 z"
           inkscape:connector-curvature="0"
           id="path8256"
           style="opacity:0.3;color:#000000;fill:none;stroke:#ffffff;stroke-width:2;stroke-linecap:round;stroke-linejoin:round;stroke-miterlimit:4;stroke-opacity:1;stroke-dasharray:none;stroke-dashoffset:0;marker:none;visibility:visible;display:inline;overflow:visible;enable-background:accumulate" />
        <path
           d="m 483.5,1196.3623 c -0.34148,0 -0.5,0 -0.5,0.5 l 0,14.4375 c -2,0.062 -3,1.5625 -3,2.5625 0,0.5 0.5,0.5 0.5,0.5 l 12,0 c 0,0 0.5,0 0.5,-0.5 0,-2.5 -1.5,-4.5 -3,-4.5 -1.57233,0 -2.44309,2.7803 -4,3 -0.68271,0.096 -1.3424,-0.3453 -2,-0.6875 l 0,-9.3125 7,-3 -6.49838,-2.785 c -0.37647,-0.1613 -0.7515,-0.215 -1.00162,-0.215 z"
           inkscape:connector-curvature="0"
           id="rect8138-7"
           style="color:#000000;fill:#444444;fill-opacity:1;fill-rule:nonzero;stroke:none;stroke-width:2;marker:none;visibility:visible;display:inline;overflow:visible;enable-background:accumulate" />
      </g>
    </g>
  </g>
  <rect
     width="24"
     height="24"
     x="0"
     y="0"
     id="canvas"
     style="fill:none;stroke:none;visibility:hidden" />
</svg>
