<?xml version="1.0" encoding="utf-8"?>
<!-- Generator: Adobe Illustrator 18.0.0, SVG Export Plug-In . SVG Version: 6.00 Build 0)  -->
<!DOCTYPE svg PUBLIC "-//W3C//DTD SVG 1.1//EN" "http://www.w3.org/Graphics/SVG/1.1/DTD/svg11.dtd" [
	<!ENTITY ns_flows "http://ns.adobe.com/Flows/1.0/">
	<!ENTITY ns_extend "http://ns.adobe.com/Extensibility/1.0/">
	<!ENTITY ns_ai "http://ns.adobe.com/AdobeIllustrator/10.0/">
	<!ENTITY ns_graphs "http://ns.adobe.com/Graphs/1.0/">
	<!ENTITY st0 "opacity:0.5;">
	<!ENTITY st1 "fill:#010101;">
	<!ENTITY st2 "opacity:0.75;">
	<!ENTITY st3 "fill:#FFFFFF;">
]>
<svg version="1.1" id="Layer_1" xmlns:x="&ns_extend;" xmlns:i="&ns_ai;" xmlns:graph="&ns_graphs;"
	 xmlns="http://www.w3.org/2000/svg" xmlns:xlink="http://www.w3.org/1999/xlink" xmlns:a="http://ns.adobe.com/AdobeSVGViewerExtensions/3.0/"
	 x="0px" y="0px" width="14px" height="24px" viewBox="0 0 14 24" style="enable-background:new 0 0 14 24;" xml:space="preserve">
<g style="&st0;">
	<path style="&st1;" d="M14,8.8c-0.1-0.3-0.4-0.5-0.4-0.6L4,2L3.1,3.2C2.9,3.4,3,4.7,3.2,4.9C3.5,5.1,3.8,4,4,3.8L4.5,3l7.8,5.1
		L5.9,10C5.5,10,4.9,9.8,5,10.3l1.6,5.4l-4.5,6.7c-0.3,0.5-0.1,1.3,0.4,1.5c0.5,0.3,1.1-0.1,1.3-0.6l4.7-7.1l0.2,1l-0.7,5.3
		C8,23,8.4,23.8,8.9,23.9c0.5,0.1,1-0.6,1.1-1.1l0.7-5.4c0-0.1,0-0.4,0-0.6l-1.6-6.4l4.2-0.7C13.7,9.6,14.1,9.2,14,8.8L14,8.8z"/>
	<path style="&st1;" d="M5.8,9H5.2C4.5,9,4,8.5,4,7.8V7.2C4,6.5,4.5,6,5.2,6h0.7C6.5,6,7,6.5,7,7.2v0.7C7,8.5,6.5,9,5.8,9z"/>
</g>
<g style="&st2;">
	<path style="&st1;" d="M13,7.8c-0.1-0.3-0.4-0.5-0.4-0.6L3,1L2.1,2.2C1.9,2.4,2,3.7,2.2,3.9C2.5,4.1,2.8,3,3,2.8L3.5,2l7.8,5.1
		L4.9,9C4.5,9,3.9,8.8,4,9.3l1.6,5.4l-4.5,6.7c-0.3,0.5-0.1,1.3,0.4,1.5c0.5,0.3,1.1-0.1,1.3-0.6l4.7-7.1l0.2,1l-0.7,5.3
		C7,22,7.4,22.8,7.9,22.9c0.5,0.1,1-0.6,1.1-1.1l0.7-5.4c0-0.1,0-0.4,0-0.6L8.1,9.5l4.2-0.7C12.7,8.6,13.1,8.2,13,7.8L13,7.8z"/>
	<path style="&st1;" d="M4.8,8H4.2C3.5,8,3,7.5,3,6.8V6.2C3,5.5,3.5,5,4.2,5h0.7C5.5,5,6,5.5,6,6.2v0.7C6,7.5,5.5,8,4.8,8z"/>
</g>
<g>
	<path style="&st3;" d="M12,6.8c-0.1-0.3-0.4-0.5-0.4-0.6L2,0L1.1,1.2C0.9,1.4,1,2.7,1.2,2.9C1.5,3.1,1.8,2,2,1.8L2.5,1l7.8,5.1
		L3.9,8C3.5,8,2.9,7.8,3,8.3l1.6,5.4l-4.5,6.7c-0.3,0.5-0.1,1.3,0.4,1.5c0.5,0.3,1.1-0.1,1.3-0.6l4.7-7.1l0.2,1l-0.7,5.3
		C6,21,6.4,21.8,6.9,21.9c0.5,0.1,1-0.6,1.1-1.1l0.7-5.4c0-0.1,0-0.4,0-0.6L7.1,8.5l4.2-0.7C11.7,7.6,12.1,7.2,12,6.8L12,6.8z"/>
	<path style="&st3;" d="M3.8,7H3.2C2.5,7,2,6.5,2,5.8V5.2C2,4.5,2.5,4,3.2,4h0.7C4.5,4,5,4.5,5,5.2v0.7C5,6.5,4.5,7,3.8,7z"/>
</g>
</svg>
