<?xml version="1.0" encoding="UTF-8" standalone="no"?>
<!-- Created with Inkscape (http://www.inkscape.org/) -->

<svg
   xmlns:dc="http://purl.org/dc/elements/1.1/"
   xmlns:cc="http://creativecommons.org/ns#"
   xmlns:rdf="http://www.w3.org/1999/02/22-rdf-syntax-ns#"
   xmlns:svg="http://www.w3.org/2000/svg"
   xmlns="http://www.w3.org/2000/svg"
   xmlns:sodipodi="http://sodipodi.sourceforge.net/DTD/sodipodi-0.dtd"
   xmlns:inkscape="http://www.inkscape.org/namespaces/inkscape"
   width="18"
   height="18"
   id="svg27640"
   version="1.1"
   inkscape:version="0.48.2 r9819"
   sodipodi:docname="4-wheel-drive-white-18.svg">
  <defs
     id="defs27642" />
  <sodipodi:namedview
     id="base"
     pagecolor="#ffffff"
     bordercolor="#666666"
     borderopacity="1.0"
     inkscape:pageopacity="0.0"
     inkscape:pageshadow="2"
     inkscape:zoom="4.8734"
     inkscape:cx="16.343826"
     inkscape:cy="1.8159806"
     inkscape:document-units="px"
     inkscape:current-layer="layer1"
     showgrid="false"
     inkscape:window-width="741"
     inkscape:window-height="597"
     inkscape:window-x="3131"
     inkscape:window-y="638"
     inkscape:window-maximized="0">
    <inkscape:grid
       type="xygrid"
       id="grid2986" />
  </sodipodi:namedview>
  <metadata
     id="metadata27645">
    <rdf:RDF>
      <cc:Work
         rdf:about="">
        <dc:format>image/svg+xml</dc:format>
        <dc:type
           rdf:resource="http://purl.org/dc/dcmitype/StillImage" />
        <dc:title></dc:title>
      </cc:Work>
    </rdf:RDF>
  </metadata>
  <g
     inkscape:label="Layer 1"
     inkscape:groupmode="layer"
     id="layer1"
     transform="translate(0,-1034.3622)">
    <g
       id="g14393"
       transform="matrix(1.5,0,0,1.5,-426.36729,716.89952)">
      <path
         style="opacity:0;fill:#272525"
         inkscape:connector-curvature="0"
         id="path14395"
         d="m 285.75771,211.62211 c -0.82395,0 -1.49378,0.67347 -1.49378,1.4962 v 9.01001 c 0,0.82516 0.67105,1.495 1.49378,1.495 h 9.01122 c 0.82516,0 1.495,-0.67105 1.495,-1.495 v -9.01001 c 0,-0.82394 -0.67105,-1.4962 -1.495,-1.4962 h -9.01122 z" />
      <g
         id="g14397"
         style="opacity:0.6;fill:none;stroke:#1d1d1c;stroke-width:0.5;stroke-miterlimit:0;stroke-opacity:1;stroke-dasharray:none"
         transform="matrix(1.2134695,0,0,1.2134695,258.59298,-141.89311)">
        <ellipse
           style="fill:none;stroke:#1d1d1c;stroke-width:0.5;stroke-miterlimit:0;stroke-opacity:1;stroke-dasharray:none"
           sodipodi:ry="0.63700002"
           sodipodi:rx="0.64600003"
           sodipodi:cy="294.056"
           sodipodi:cx="25.490999"
           id="ellipse14399"
           ry="0.63700002"
           rx="0.64600003"
           cy="294.056"
           cx="25.490999"
           d="m 26.136999,294.056 c 0,0.35181 -0.289224,0.637 -0.646,0.637 -0.356776,0 -0.646,-0.28519 -0.646,-0.637 0,-0.35181 0.289224,-0.637 0.646,-0.637 0.356776,0 0.646,0.28519 0.646,0.637 z" />
        <path
           style="fill:none;stroke:#1d1d1c;stroke-width:0.5;stroke-miterlimit:0;stroke-opacity:1;stroke-dasharray:none"
           inkscape:connector-curvature="0"
           id="path14401"
           d="m 28.766,294.679 c -0.024,-0.138 -0.137,-0.216 -0.144,-0.221 l -3.794,-2.501 -0.353,0.511 c -0.065,0.101 -0.037,0.234 0.063,0.3 0.101,0.066 0.234,0.039 0.3,-0.062 l 0.206,-0.295 3.081,2.033 -2.524,0.454 c -0.179,0.03 -0.308,0.209 -0.268,0.384 l 0.549,2.124 -1.776,2.665 c -0.106,0.182 -0.042,0.415 0.142,0.52 0.186,0.105 0.421,0.041 0.527,-0.141 0,0 1.854,-2.787 1.86,-2.805 0,0 0.096,0.387 0.096,0.389 l -0.278,2.091 c -0.035,0.208 0.106,0.402 0.316,0.438 0.21,0.036 0.409,-0.104 0.444,-0.312 l 0.287,-2.15 c 0.009,-0.055 -0.002,-0.176 -0.015,-0.229 l -0.634,-2.519 1.648,-0.297 c 0.179,-0.031 0.298,-0.201 0.267,-0.377 z" />
      </g>
      <g
         id="g14403"
         transform="matrix(1.2134695,0,0,1.2134695,258.59298,-141.89311)"
         style="fill:#ffffff;fill-opacity:1;stroke:none">
        <ellipse
           cx="25.490999"
           cy="294.056"
           rx="0.64600003"
           ry="0.63700002"
           id="ellipse14405"
           sodipodi:cx="25.490999"
           sodipodi:cy="294.056"
           sodipodi:rx="0.64600003"
           sodipodi:ry="0.63700002"
           style="fill:#ffffff;fill-opacity:1;stroke:none"
           d="m 26.136999,294.056 c 0,0.35181 -0.289224,0.637 -0.646,0.637 -0.356776,0 -0.646,-0.28519 -0.646,-0.637 0,-0.35181 0.289224,-0.637 0.646,-0.637 0.356776,0 0.646,0.28519 0.646,0.637 z" />
        <path
           d="m 28.766,294.679 c -0.024,-0.138 -0.137,-0.216 -0.144,-0.221 l -3.794,-2.501 -0.353,0.511 c -0.065,0.101 -0.037,0.234 0.063,0.3 0.101,0.066 0.234,0.039 0.3,-0.062 l 0.206,-0.295 3.081,2.033 -2.524,0.454 c -0.179,0.03 -0.308,0.209 -0.268,0.384 l 0.549,2.124 -1.776,2.665 c -0.106,0.182 -0.042,0.415 0.142,0.52 0.186,0.105 0.421,0.041 0.527,-0.141 0,0 1.854,-2.787 1.86,-2.805 0,0 0.096,0.387 0.096,0.389 l -0.278,2.091 c -0.035,0.208 0.106,0.402 0.316,0.438 0.21,0.036 0.409,-0.104 0.444,-0.312 l 0.287,-2.15 c 0.009,-0.055 -0.002,-0.176 -0.015,-0.229 l -0.634,-2.519 1.648,-0.297 c 0.179,-0.031 0.298,-0.201 0.267,-0.377 z"
           id="path14407"
           inkscape:connector-curvature="0"
           style="fill:#ffffff;fill-opacity:1;stroke:none" />
      </g>
    </g>
  </g>
</svg>
