<?xml version="1.0" encoding="UTF-8" standalone="no"?>
<!-- Created with Inkscape (http://www.inkscape.org/) -->

<svg
   xmlns:dc="http://purl.org/dc/elements/1.1/"
   xmlns:cc="http://creativecommons.org/ns#"
   xmlns:rdf="http://www.w3.org/1999/02/22-rdf-syntax-ns#"
   xmlns:svg="http://www.w3.org/2000/svg"
   xmlns="http://www.w3.org/2000/svg"
   xmlns:inkscape="http://www.inkscape.org/namespaces/inkscape"
   version="1.1"
   width="18"
   height="18"
   id="svg4619">
  <defs
     id="defs4621" />
  <metadata
     id="metadata4624">
    <rdf:RDF>
      <cc:Work
         rdf:about="">
        <dc:format>image/svg+xml</dc:format>
        <dc:type
           rdf:resource="http://purl.org/dc/dcmitype/StillImage" />
        <dc:title />
      </cc:Work>
    </rdf:RDF>
  </metadata>
  <g
     transform="translate(0,-1034.3622)"
     id="layer1">
    <g
       transform="translate(-341.99999,-159.99998)"
       id="grocery-18"
       style="display:inline">
      <g
         transform="translate(-1,-1)"
         id="g21554">
        <path
           d="m 357.5,1198.8622 c -1,0 -1.5,0.5 -1.5,1.5 l -10,0 1.05882,6 9.17647,0 0,1 -8.41176,0 c -0.76471,0 -0.76435,0.7411 0,0.7647 l 1.14706,0 6.11764,0 1.14706,0 c 0.38236,0 0.76471,-0.3824 0.76471,-0.7647 l 0,-1 0,-4.9412 0,-1.0588 c 0,-0.5 0.23836,-0.7353 0.7647,-0.7353 l 1.2353,0 0,-0.7647 z m -2.5,9.2059 c -0.6335,0 -1.14706,0.5136 -1.14706,1.147 0,0.6335 0.51356,1.1471 1.14706,1.1471 0.63351,0 1.14706,-0.5136 1.14706,-1.1471 0,-0.6334 -0.51355,-1.147 -1.14706,-1.147 z m -6,0 c -0.63351,0 -1.14706,0.5136 -1.14706,1.147 0,0.6335 0.51355,1.1471 1.14706,1.1471 0.6335,0 1.14706,-0.5136 1.14706,-1.1471 0,-0.6334 -0.51356,-1.147 -1.14706,-1.147 z"
           inkscape:connector-curvature="0"
           id="path15344"
           style="opacity:0.3;color:#000000;fill:#ffffff;fill-opacity:1;fill-rule:nonzero;stroke:#ffffff;stroke-width:2;stroke-linecap:round;stroke-linejoin:round;stroke-miterlimit:4;stroke-opacity:1;stroke-dasharray:none;stroke-dashoffset:0;marker:none;visibility:visible;display:inline;overflow:visible;enable-background:accumulate" />
        <path
           d="m 357.5,1198.8622 c -1,0 -1.5,0.5 -1.5,1.5 l -10,0 1.05882,6 9.17647,0 0,1 -8.41176,0 c -0.76471,0 -0.76435,0.7411 0,0.7647 l 1.14706,0 6.11764,0 1.14706,0 c 0.38236,0 0.76471,-0.3824 0.76471,-0.7647 l 0,-1 0,-4.9412 0,-1.0588 c 0,-0.5 0.23836,-0.7353 0.7647,-0.7353 l 1.2353,0 0,-0.7647 z m -2.5,9.2059 c -0.6335,0 -1.14706,0.5136 -1.14706,1.147 0,0.6335 0.51356,1.1471 1.14706,1.1471 0.63351,0 1.14706,-0.5136 1.14706,-1.1471 0,-0.6334 -0.51355,-1.147 -1.14706,-1.147 z m -6,0 c -0.63351,0 -1.14706,0.5136 -1.14706,1.147 0,0.6335 0.51355,1.1471 1.14706,1.1471 0.6335,0 1.14706,-0.5136 1.14706,-1.1471 0,-0.6334 -0.51356,-1.147 -1.14706,-1.147 z"
           inkscape:connector-curvature="0"
           id="rect7842-0"
           style="color:#000000;fill:#444444;fill-opacity:1;stroke:none;stroke-width:2;marker:none;visibility:visible;display:inline;overflow:visible;enable-background:accumulate" />
      </g>
    </g>
  </g>
  <rect
     width="18"
     height="18"
     x="0"
     y="0"
     id="canvas"
     style="fill:none;stroke:none;visibility:hidden" />
</svg>
