<?xml version="1.0" encoding="UTF-8" standalone="no"?>
<!-- Created with Inkscape (http://www.inkscape.org/) -->

<svg
   xmlns:dc="http://purl.org/dc/elements/1.1/"
   xmlns:cc="http://creativecommons.org/ns#"
   xmlns:rdf="http://www.w3.org/1999/02/22-rdf-syntax-ns#"
   xmlns:svg="http://www.w3.org/2000/svg"
   xmlns="http://www.w3.org/2000/svg"
   xmlns:inkscape="http://www.inkscape.org/namespaces/inkscape"
   version="1.1"
   width="24"
   height="24"
   id="svg4460">
  <defs
     id="defs4462" />
  <metadata
     id="metadata4465">
    <rdf:RDF>
      <cc:Work
         rdf:about="">
        <dc:format>image/svg+xml</dc:format>
        <dc:type
           rdf:resource="http://purl.org/dc/dcmitype/StillImage" />
        <dc:title />
      </cc:Work>
    </rdf:RDF>
  </metadata>
  <g
     transform="translate(0,-1028.3622)"
     id="layer1">
    <g
       transform="translate(-318,-165.99998)"
       id="grocery-24"
       style="display:inline">
      <g
         transform="translate(317,1217.3623)"
         id="g8119">
        <path
           d="m 21,-19.000017 c -0.583333,0 -1.100899,0.163399 -1.46875,0.53125 C 19.163399,-18.100916 19,-17.58335 19,-17.000017 l -14,0 2,9 12,0 0,1 -11,0 c -1,0 -1,1 0,1 l 1.5,0 8,0 1.5,0 c 0.5,0 1,-0.5 1,-1 l 0,-1 0,-8 0,-1 c 0,0 0.0866,-0.649101 0.21875,-0.78125 0.132149,-0.132149 0.364583,-0.21875 0.78125,-0.21875 0.111026,0 0.292249,0 0.4,0 0.5,0 0.6,-0.248673 0.6,-0.5 0,-0.247421 -0.1,-0.5 -0.6,-0.5 -0.130972,0 -0.262788,0 -0.4,0 z m -3.5,13 c -0.828427,0 -1.5,0.671573 -1.5,1.5 0,0.828427 0.671573,1.5 1.5,1.5 0.828427,0 1.5,-0.671573 1.5,-1.5 0,-0.828427 -0.671573,-1.5 -1.5,-1.5 z m -8,0 c -0.8284271,0 -1.5,0.671573 -1.5,1.5 0,0.828427 0.6715729,1.5 1.5,1.5 0.828427,0 1.5,-0.671573 1.5,-1.5 0,-0.828427 -0.671573,-1.5 -1.5,-1.5 z"
           inkscape:connector-curvature="0"
           id="path8100"
           style="opacity:0.3;color:#000000;fill:#ffffff;fill-opacity:1;fill-rule:nonzero;stroke:#ffffff;stroke-width:2;stroke-linecap:round;stroke-linejoin:round;stroke-miterlimit:4;stroke-opacity:1;stroke-dasharray:none;stroke-dashoffset:0;marker:none;visibility:visible;display:inline;overflow:visible;enable-background:accumulate" />
        <path
           d="m 21,-19.000017 c -0.583333,0 -1.100899,0.163399 -1.46875,0.53125 C 19.163399,-18.100916 19,-17.58335 19,-17.000017 l -14,0 2,9 12,0 0,1 -11,0 c -1,0 -1,1 0,1 l 1.5,0 8,0 1.5,0 c 0.5,0 1,-0.5 1,-1 l 0,-1 0,-8 0,-1 c 0,0 0.0866,-0.649101 0.21875,-0.78125 0.132149,-0.132149 0.364583,-0.21875 0.78125,-0.21875 0.111026,0 0.292249,0 0.4,0 0.5,0 0.6,-0.248673 0.6,-0.5 0,-0.247421 -0.1,-0.5 -0.6,-0.5 -0.130972,0 -0.262788,0 -0.4,0 z m -3.5,13 c -0.828427,0 -1.5,0.671573 -1.5,1.5 0,0.828427 0.671573,1.5 1.5,1.5 0.828427,0 1.5,-0.671573 1.5,-1.5 0,-0.828427 -0.671573,-1.5 -1.5,-1.5 z m -8,0 c -0.8284271,0 -1.5,0.671573 -1.5,1.5 0,0.828427 0.6715729,1.5 1.5,1.5 0.828427,0 1.5,-0.671573 1.5,-1.5 0,-0.828427 -0.671573,-1.5 -1.5,-1.5 z"
           inkscape:connector-curvature="0"
           id="rect7842"
           style="color:#000000;fill:#444444;fill-opacity:1;stroke:none;stroke-width:2;marker:none;visibility:visible;display:inline;overflow:visible;enable-background:accumulate" />
      </g>
    </g>
  </g>
  <rect
     width="24"
     height="24"
     x="0"
     y="0"
     id="canvas"
     style="fill:none;stroke:none;visibility:hidden" />
</svg>
