<?xml version="1.0" encoding="UTF-8" standalone="no"?>
<!-- Created with Inkscape (http://www.inkscape.org/) -->

<svg
   xmlns:dc="http://purl.org/dc/elements/1.1/"
   xmlns:cc="http://creativecommons.org/ns#"
   xmlns:rdf="http://www.w3.org/1999/02/22-rdf-syntax-ns#"
   xmlns:svg="http://www.w3.org/2000/svg"
   xmlns="http://www.w3.org/2000/svg"
   xmlns:inkscape="http://www.inkscape.org/namespaces/inkscape"
   version="1.1"
   width="12"
   height="12"
   id="svg4764">
  <defs
     id="defs4766" />
  <metadata
     id="metadata4769">
    <rdf:RDF>
      <cc:Work
         rdf:about="">
        <dc:format>image/svg+xml</dc:format>
        <dc:type
           rdf:resource="http://purl.org/dc/dcmitype/StillImage" />
        <dc:title />
      </cc:Work>
    </rdf:RDF>
  </metadata>
  <g
     transform="translate(0,-1040.3622)"
     id="layer1">
    <g
       id="g4046">
      <path
         d="m 3,1042.3622 c -0.5522847,0 -1,0.4477 -1,1 0,0.5523 0.4477153,1 1,1 0.1776457,0 0.324162,-0.075 0.46875,-0.1562 L 4,1044.6747 l 0,2.2813 -0.5625,0.5312 c -0.1357737,-0.069 -0.2748047,-0.125 -0.4375,-0.125 -0.5522847,0 -1,0.4477 -1,1 0,0.5523 0.4477153,1 1,1 0.5522847,0 1,-0.4477 1,-1 0,-0.081 -0.044227,-0.1431 -0.0625,-0.2187 l 7.0625,-5.7813 -2.5,0 -3.0625,2.4375 -1.5,-1.2187 C 3.955773,1043.505 4,1043.4434 4,1043.3622 c 0,-0.5523 -0.4477153,-1 -1,-1 z m 4.4375,4.0938 -1.25,1.0312 2.3125,1.875 2.5,0 z"
         inkscape:connector-curvature="0"
         id="path3970"
         style="opacity:0.3;color:#000000;fill:#ffffff;fill-opacity:1;fill-rule:nonzero;stroke:#ffffff;stroke-width:2;stroke-linecap:butt;stroke-linejoin:round;stroke-miterlimit:4;stroke-opacity:1;stroke-dasharray:none;stroke-dashoffset:0;marker:none;visibility:visible;display:inline;overflow:visible;enable-background:accumulate" />
      <path
         d="m 3,1042.3622 c -0.5522847,0 -1,0.4477 -1,1 0,0.5523 0.4477153,1 1,1 0.1776457,0 0.324162,-0.075 0.46875,-0.1562 L 4,1044.6747 l 0,2.2813 -0.5625,0.5312 c -0.1357737,-0.069 -0.2748047,-0.125 -0.4375,-0.125 -0.5522847,0 -1,0.4477 -1,1 0,0.5523 0.4477153,1 1,1 0.5522847,0 1,-0.4477 1,-1 0,-0.081 -0.044227,-0.1431 -0.0625,-0.2187 l 7.0625,-5.7813 -2.5,0 -3.0625,2.4375 -1.5,-1.2187 C 3.955773,1043.505 4,1043.4434 4,1043.3622 c 0,-0.5523 -0.4477153,-1 -1,-1 z m 4.4375,4.0938 -1.25,1.0312 2.3125,1.875 2.5,0 z"
         inkscape:connector-curvature="0"
         id="path3595"
         style="color:#000000;fill:#444444;fill-opacity:1;fill-rule:nonzero;stroke:none;stroke-width:4;marker:none;visibility:visible;display:inline;overflow:visible;enable-background:accumulate" />
    </g>
  </g>
  <rect
     width="12"
     height="12"
     x="0"
     y="0"
     id="canvas"
     style="fill:none;stroke:none;visibility:hidden" />
</svg>
