<?xml version="1.0" encoding="UTF-8" standalone="no"?>
<!-- Created with Inkscape (http://www.inkscape.org/) -->

<svg
   xmlns:dc="http://purl.org/dc/elements/1.1/"
   xmlns:cc="http://creativecommons.org/ns#"
   xmlns:rdf="http://www.w3.org/1999/02/22-rdf-syntax-ns#"
   xmlns:svg="http://www.w3.org/2000/svg"
   xmlns="http://www.w3.org/2000/svg"
   xmlns:sodipodi="http://sodipodi.sourceforge.net/DTD/sodipodi-0.dtd"
   xmlns:inkscape="http://www.inkscape.org/namespaces/inkscape"
   width="24"
   height="24"
   id="svg4460"
   version="1.1"
   inkscape:version="0.48.2 r9819"
   sodipodi:docname="hairdresser-24.svg">
  <defs
     id="defs4462" />
  <sodipodi:namedview
     id="base"
     pagecolor="#ffffff"
     bordercolor="#666666"
     borderopacity="1.0"
     inkscape:pageopacity="0.0"
     inkscape:pageshadow="2"
     inkscape:zoom="32"
     inkscape:cx="9.9609519"
     inkscape:cy="4.3865541"
     inkscape:document-units="px"
     inkscape:current-layer="layer1"
     showgrid="false"
     showguides="true"
     inkscape:guide-bbox="true"
     inkscape:window-width="1313"
     inkscape:window-height="931"
     inkscape:window-x="-223"
     inkscape:window-y="341"
     inkscape:window-maximized="0"
     inkscape:object-paths="true"
     inkscape:object-nodes="true">
    <inkscape:grid
       type="xygrid"
       id="grid4468"
       empspacing="2"
       visible="true"
       enabled="true"
       snapvisiblegridlinesonly="true"
       spacingx="0.5px"
       spacingy="0.5px"
       color="#0000ff"
       opacity="0.0627451" />
    <sodipodi:guide
       orientation="1,0"
       position="0,20"
       id="guide4470" />
    <sodipodi:guide
       orientation="0,1"
       position="4,24"
       id="guide4472" />
    <sodipodi:guide
       orientation="1,0"
       position="24,13"
       id="guide4474" />
    <sodipodi:guide
       orientation="0,1"
       position="15,0"
       id="guide4476" />
    <sodipodi:guide
       orientation="1,0"
       position="23,20"
       id="guide4478" />
    <sodipodi:guide
       orientation="0,1"
       position="20,23"
       id="guide4480" />
    <sodipodi:guide
       orientation="1,0"
       position="2,5"
       id="guide4482" />
    <sodipodi:guide
       orientation="0,1"
       position="7,2"
       id="guide4484" />
    <sodipodi:guide
       orientation="1,0"
       position="13,16"
       id="guide4486" />
    <sodipodi:guide
       orientation="0,1"
       position="7.5,13"
       id="guide4490" />
    <sodipodi:guide
       orientation="-0.5547002,0.83205029"
       position="18,19"
       id="guide3148" />
    <sodipodi:guide
       orientation="0,1"
       position="22.5,18.333333"
       id="guide3183" />
    <sodipodi:guide
       orientation="-0.5547002,-0.83205029"
       position="22.5,18.333333"
       id="guide3185" />
    <sodipodi:guide
       orientation="-0.55632419,-0.83096534"
       position="19.201251,8.8646847"
       id="guide4092" />
  </sodipodi:namedview>
  <metadata
     id="metadata4465">
    <rdf:RDF>
      <cc:Work
         rdf:about="">
        <dc:format>image/svg+xml</dc:format>
        <dc:type
           rdf:resource="http://purl.org/dc/dcmitype/StillImage" />
        <dc:title></dc:title>
      </cc:Work>
    </rdf:RDF>
  </metadata>
  <g
     inkscape:label="Layer 1"
     inkscape:groupmode="layer"
     id="layer1"
     transform="translate(0,-1028.3622)">
    <path
       style="color:#000000;fill:#ffffff;fill-opacity:1;fill-rule:nonzero;stroke:#ffffff;stroke-width:2;marker:none;visibility:visible;display:inline;overflow:visible;enable-background:accumulate;opacity:0.29999999999999999;stroke-linecap:butt;stroke-linejoin:round;stroke-miterlimit:4;stroke-opacity:1;stroke-dasharray:none;stroke-dashoffset:0"
       d="m 6,1032.8622 c -1.6568542,0 -3,1.3431 -3,3 0,1.6569 1.3431458,3 3,3 0.6846707,0 1.3076119,-0.2389 1.8125,-0.625 l 2.40625,1.625 -2.40625,1.625 c -0.5048881,-0.3861 -1.1278293,-0.625 -1.8125,-0.625 -1.6568542,0 -3,1.3431 -3,3 0,1.6569 1.3431458,3 3,3 1.6568542,0 3,-1.3431 3,-3 0,-0.2658 -0.060122,-0.5046 -0.125,-0.75 l 13.625,-9.0937 c -0.5,-0.3334 -1,-0.6563 -2,-0.6563 l -1.5,0 c -1,0 -1.50117,0.3238 -2,0.6563 l -6,4 -2.125,-1.4063 c 0.064878,-0.2454 0.125,-0.4842 0.125,-0.75 0,-1.6569 -1.3431458,-3 -3,-3 z m 9.125,7.9063 -2.75,1.8437 4.625,3.0938 c 0.49883,0.3325 1,0.6562 2,0.6562 l 1.5,0 c 1,0 1.5,-0.3228 2,-0.6562 z"
       id="path4011"
       inkscape:connector-curvature="0"
       sodipodi:nodetypes="ssscccssssccsscccsscccsscc" />
    <path
       sodipodi:nodetypes="ssscccssssccsscccsscccsscc"
       inkscape:connector-curvature="0"
       id="path3136"
       d="m 6,1032.8622 c -1.6568542,0 -3,1.3431 -3,3 0,1.6569 1.3431458,3 3,3 0.6846707,0 1.3076119,-0.2389 1.8125,-0.625 l 2.40625,1.625 -2.40625,1.625 c -0.5048881,-0.3861 -1.1278293,-0.625 -1.8125,-0.625 -1.6568542,0 -3,1.3431 -3,3 0,1.6569 1.3431458,3 3,3 1.6568542,0 3,-1.3431 3,-3 0,-0.2658 -0.060122,-0.5046 -0.125,-0.75 l 13.625,-9.0937 c -0.5,-0.3334 -1,-0.6563 -2,-0.6563 l -1.5,0 c -1,0 -1.50117,0.3238 -2,0.6563 l -6,4 -2.125,-1.4063 c 0.064878,-0.2454 0.125,-0.4842 0.125,-0.75 0,-1.6569 -1.3431458,-3 -3,-3 z m 9.125,7.9063 -2.75,1.8437 4.625,3.0938 c 0.49883,0.3325 1,0.6562 2,0.6562 l 1.5,0 c 1,0 1.5,-0.3228 2,-0.6562 z"
       style="color:#000000;fill:#444444;fill-opacity:1;fill-rule:nonzero;stroke:none;stroke-width:4;marker:none;visibility:visible;display:inline;overflow:visible;enable-background:accumulate" />
  </g>
</svg>
