<?xml version="1.0" encoding="UTF-8" standalone="no"?>
<!-- Created with Inkscape (http://www.inkscape.org/) -->

<svg
   xmlns:dc="http://purl.org/dc/elements/1.1/"
   xmlns:cc="http://creativecommons.org/ns#"
   xmlns:rdf="http://www.w3.org/1999/02/22-rdf-syntax-ns#"
   xmlns:svg="http://www.w3.org/2000/svg"
   xmlns="http://www.w3.org/2000/svg"
   xmlns:sodipodi="http://sodipodi.sourceforge.net/DTD/sodipodi-0.dtd"
   xmlns:inkscape="http://www.inkscape.org/namespaces/inkscape"
   width="12"
   height="12"
   id="svg4764"
   version="1.1"
   inkscape:version="0.48.2 r9819"
   sodipodi:docname="hairdresser-12.svg">
  <defs
     id="defs4766" />
  <sodipodi:namedview
     id="base"
     pagecolor="#ffffff"
     bordercolor="#666666"
     borderopacity="1.0"
     inkscape:pageopacity="0.0"
     inkscape:pageshadow="2"
     inkscape:zoom="17.291975"
     inkscape:cx="5.0060569"
     inkscape:cy="8.9586052"
     inkscape:document-units="px"
     inkscape:current-layer="layer1"
     showgrid="true"
     showguides="true"
     inkscape:guide-bbox="true"
     inkscape:window-width="957"
     inkscape:window-height="704"
     inkscape:window-x="499"
     inkscape:window-y="253"
     inkscape:window-maximized="0"
     inkscape:object-paths="true"
     inkscape:object-nodes="true">
    <inkscape:grid
       type="xygrid"
       id="grid4772"
       empspacing="5"
       visible="true"
       enabled="true"
       snapvisiblegridlinesonly="true" />
    <sodipodi:guide
       orientation="0,1"
       position="2,12"
       id="guide4789" />
    <sodipodi:guide
       orientation="1,0"
       position="12,10"
       id="guide4791" />
    <sodipodi:guide
       orientation="0,1"
       position="10,0"
       id="guide4793" />
    <sodipodi:guide
       orientation="1,0"
       position="0,9"
       id="guide4795" />
    <sodipodi:guide
       orientation="0,1"
       position="5,11"
       id="guide4797" />
    <sodipodi:guide
       orientation="1,0"
       position="11,7"
       id="guide4799" />
    <sodipodi:guide
       orientation="0,1"
       position="9,2"
       id="guide4801" />
    <sodipodi:guide
       orientation="1,0"
       position="2,5"
       id="guide4803" />
    <sodipodi:guide
       orientation="0.62469505,-0.78086881"
       position="8.5,9"
       id="guide3611" />
    <sodipodi:guide
       orientation="0.6343268,0.77306501"
       position="7.867291,2.5061672"
       id="guide3621" />
  </sodipodi:namedview>
  <metadata
     id="metadata4769">
    <rdf:RDF>
      <cc:Work
         rdf:about="">
        <dc:format>image/svg+xml</dc:format>
        <dc:type
           rdf:resource="http://purl.org/dc/dcmitype/StillImage" />
        <dc:title></dc:title>
      </cc:Work>
    </rdf:RDF>
  </metadata>
  <g
     inkscape:label="Layer 1"
     inkscape:groupmode="layer"
     id="layer1"
     transform="translate(0,-1040.3622)">
    <g
       id="g4046">
      <path
         style="opacity:0.3;color:#000000;fill:#ffffff;fill-opacity:1;fill-rule:nonzero;stroke:#ffffff;stroke-width:2;stroke-linecap:butt;stroke-linejoin:round;stroke-miterlimit:4;stroke-opacity:1;stroke-dasharray:none;stroke-dashoffset:0;marker:none;visibility:visible;display:inline;overflow:visible;enable-background:accumulate"
         d="m 3,1042.3622 c -0.5522847,0 -1,0.4477 -1,1 0,0.5523 0.4477153,1 1,1 0.1776457,0 0.324162,-0.075 0.46875,-0.1562 L 4,1044.6747 l 0,2.2813 -0.5625,0.5312 c -0.1357737,-0.069 -0.2748047,-0.125 -0.4375,-0.125 -0.5522847,0 -1,0.4477 -1,1 0,0.5523 0.4477153,1 1,1 0.5522847,0 1,-0.4477 1,-1 0,-0.081 -0.044227,-0.1431 -0.0625,-0.2187 l 7.0625,-5.7813 -2.5,0 -3.0625,2.4375 -1.5,-1.2187 C 3.955773,1043.505 4,1043.4434 4,1043.3622 c 0,-0.5523 -0.4477153,-1 -1,-1 z m 4.4375,4.0938 -1.25,1.0312 2.3125,1.875 2.5,0 z"
         id="path3970"
         inkscape:connector-curvature="0"
         sodipodi:nodetypes="sssccccsssscccccssccccc" />
      <path
         sodipodi:nodetypes="sssccccsssscccccssccccc"
         inkscape:connector-curvature="0"
         id="path3595"
         d="m 3,1042.3622 c -0.5522847,0 -1,0.4477 -1,1 0,0.5523 0.4477153,1 1,1 0.1776457,0 0.324162,-0.075 0.46875,-0.1562 L 4,1044.6747 l 0,2.2813 -0.5625,0.5312 c -0.1357737,-0.069 -0.2748047,-0.125 -0.4375,-0.125 -0.5522847,0 -1,0.4477 -1,1 0,0.5523 0.4477153,1 1,1 0.5522847,0 1,-0.4477 1,-1 0,-0.081 -0.044227,-0.1431 -0.0625,-0.2187 l 7.0625,-5.7813 -2.5,0 -3.0625,2.4375 -1.5,-1.2187 C 3.955773,1043.505 4,1043.4434 4,1043.3622 c 0,-0.5523 -0.4477153,-1 -1,-1 z m 4.4375,4.0938 -1.25,1.0312 2.3125,1.875 2.5,0 z"
         style="color:#000000;fill:#444444;fill-opacity:1;fill-rule:nonzero;stroke:none;stroke-width:4;marker:none;visibility:visible;display:inline;overflow:visible;enable-background:accumulate" />
    </g>
  </g>
</svg>
