<?xml version="1.0" encoding="UTF-8" standalone="no"?>
<!-- Created with Inkscape (http://www.inkscape.org/) -->

<svg
   xmlns:dc="http://purl.org/dc/elements/1.1/"
   xmlns:cc="http://creativecommons.org/ns#"
   xmlns:rdf="http://www.w3.org/1999/02/22-rdf-syntax-ns#"
   xmlns:svg="http://www.w3.org/2000/svg"
   xmlns="http://www.w3.org/2000/svg"
   xmlns:inkscape="http://www.inkscape.org/namespaces/inkscape"
   version="1.1"
   width="24"
   height="24"
   id="svg4460">
  <defs
     id="defs4462" />
  <metadata
     id="metadata4465">
    <rdf:RDF>
      <cc:Work
         rdf:about="">
        <dc:format>image/svg+xml</dc:format>
        <dc:type
           rdf:resource="http://purl.org/dc/dcmitype/StillImage" />
        <dc:title />
      </cc:Work>
    </rdf:RDF>
  </metadata>
  <g
     transform="translate(0,-1028.3622)"
     id="layer1">
    <path
       d="m 6,1032.8622 c -1.6568542,0 -3,1.3431 -3,3 0,1.6569 1.3431458,3 3,3 0.6846707,0 1.3076119,-0.2389 1.8125,-0.625 l 2.40625,1.625 -2.40625,1.625 c -0.5048881,-0.3861 -1.1278293,-0.625 -1.8125,-0.625 -1.6568542,0 -3,1.3431 -3,3 0,1.6569 1.3431458,3 3,3 1.6568542,0 3,-1.3431 3,-3 0,-0.2658 -0.060122,-0.5046 -0.125,-0.75 l 13.625,-9.0937 c -0.5,-0.3334 -1,-0.6563 -2,-0.6563 l -1.5,0 c -1,0 -1.50117,0.3238 -2,0.6563 l -6,4 -2.125,-1.4063 c 0.064878,-0.2454 0.125,-0.4842 0.125,-0.75 0,-1.6569 -1.3431458,-3 -3,-3 z m 9.125,7.9063 -2.75,1.8437 4.625,3.0938 c 0.49883,0.3325 1,0.6562 2,0.6562 l 1.5,0 c 1,0 1.5,-0.3228 2,-0.6562 z"
       inkscape:connector-curvature="0"
       id="path4011"
       style="opacity:0.3;color:#000000;fill:#ffffff;fill-opacity:1;fill-rule:nonzero;stroke:#ffffff;stroke-width:2;stroke-linecap:butt;stroke-linejoin:round;stroke-miterlimit:4;stroke-opacity:1;stroke-dasharray:none;stroke-dashoffset:0;marker:none;visibility:visible;display:inline;overflow:visible;enable-background:accumulate" />
    <path
       d="m 6,1032.8622 c -1.6568542,0 -3,1.3431 -3,3 0,1.6569 1.3431458,3 3,3 0.6846707,0 1.3076119,-0.2389 1.8125,-0.625 l 2.40625,1.625 -2.40625,1.625 c -0.5048881,-0.3861 -1.1278293,-0.625 -1.8125,-0.625 -1.6568542,0 -3,1.3431 -3,3 0,1.6569 1.3431458,3 3,3 1.6568542,0 3,-1.3431 3,-3 0,-0.2658 -0.060122,-0.5046 -0.125,-0.75 l 13.625,-9.0937 c -0.5,-0.3334 -1,-0.6563 -2,-0.6563 l -1.5,0 c -1,0 -1.50117,0.3238 -2,0.6563 l -6,4 -2.125,-1.4063 c 0.064878,-0.2454 0.125,-0.4842 0.125,-0.75 0,-1.6569 -1.3431458,-3 -3,-3 z m 9.125,7.9063 -2.75,1.8437 4.625,3.0938 c 0.49883,0.3325 1,0.6562 2,0.6562 l 1.5,0 c 1,0 1.5,-0.3228 2,-0.6562 z"
       inkscape:connector-curvature="0"
       id="path3136"
       style="color:#000000;fill:#444444;fill-opacity:1;fill-rule:nonzero;stroke:none;stroke-width:4;marker:none;visibility:visible;display:inline;overflow:visible;enable-background:accumulate" />
  </g>
  <rect
     width="24"
     height="24"
     x="0"
     y="0"
     id="canvas"
     style="fill:none;stroke:none;visibility:hidden" />
</svg>
