<?xml version="1.0" encoding="UTF-8" standalone="no"?>
<!-- Created with Inkscape (http://www.inkscape.org/) -->

<svg
   xmlns:dc="http://purl.org/dc/elements/1.1/"
   xmlns:cc="http://creativecommons.org/ns#"
   xmlns:rdf="http://www.w3.org/1999/02/22-rdf-syntax-ns#"
   xmlns:svg="http://www.w3.org/2000/svg"
   xmlns="http://www.w3.org/2000/svg"
   xmlns:inkscape="http://www.inkscape.org/namespaces/inkscape"
   version="1.1"
   width="18"
   height="18"
   id="svg4619">
  <defs
     id="defs4621" />
  <metadata
     id="metadata4624">
    <rdf:RDF>
      <cc:Work
         rdf:about="">
        <dc:format>image/svg+xml</dc:format>
        <dc:type
           rdf:resource="http://purl.org/dc/dcmitype/StillImage" />
        <dc:title />
      </cc:Work>
    </rdf:RDF>
  </metadata>
  <g
     transform="translate(0,-1034.3622)"
     id="layer1">
    <g
       transform="translate(-108,-328)"
       id="harbor-18"
       style="display:inline">
      <path
         d="m 121,1364.3622 -1,0.5 -0.5,0.5 -0.5,1 0,1 0.0937,0.4063 -6.3437,6.3437 c -0.75,-0.75 -0.75,-2.75 0.25,-3.75 l 1,1 0,-4 -1.5,1.5 c -1,1 -1.5,1.5 -1.5,3 l 0,1.5 0,4 4,0 1.5,0 c 1,0 2,-0.5 3,-1.5 l 0.5,-0.5 1,-1 -1,0 -3,0 1,1 c -1,1 -3,1 -3.75,0.25 l 6.34375,-6.3437 0.40625,0.094 1,0 1,-0.5 0.5,-0.5 0.5,-1 0,-1 -0.5,-1 -0.5,-0.5 -1,-0.5 -1,0 z m 0,1.5 0.5,0 0.5,0 0.5,0.5 0,0.5 0,0.5 -0.5,0.5 -0.5,0 -0.5,0 -0.5,-0.5 0,-0.5 0,-0.5 0.5,-0.5 z"
         inkscape:connector-curvature="0"
         id="path7743"
         style="opacity:0.3;color:#000000;fill:#ffffff;fill-opacity:1;fill-rule:nonzero;stroke:#ffffff;stroke-width:2;stroke-linecap:butt;stroke-linejoin:round;stroke-miterlimit:4;stroke-opacity:1;stroke-dasharray:none;stroke-dashoffset:0;marker:none;visibility:visible;display:inline;overflow:visible;enable-background:accumulate" />
      <path
         d="m 121,1364.3622 -1,0.5 -0.5,0.5 -0.5,1 0,1 0.0937,0.4063 -6.3437,6.3437 c -0.75,-0.75 -0.75,-2.75 0.25,-3.75 l 1,1 0,-4 -1.5,1.5 c -1,1 -1.5,1.5 -1.5,3 l 0,1.5 0,4 4,0 1.5,0 c 1,0 2,-0.5 3,-1.5 l 0.5,-0.5 1,-1 -1,0 -3,0 1,1 c -1,1 -3,1 -3.75,0.25 l 6.34375,-6.3437 0.40625,0.094 1,0 1,-0.5 0.5,-0.5 0.5,-1 0,-1 -0.5,-1 -0.5,-0.5 -1,-0.5 -1,0 z m 0,1.5 0.5,0 0.5,0 0.5,0.5 0,0.5 0,0.5 -0.5,0.5 -0.5,0 -0.5,0 -0.5,-0.5 0,-0.5 0,-0.5 0.5,-0.5 z"
         inkscape:connector-curvature="0"
         id="path7366"
         style="color:#000000;fill:#444444;fill-opacity:1;fill-rule:nonzero;stroke:none;stroke-width:2;marker:none;visibility:visible;display:inline;overflow:visible;enable-background:accumulate" />
    </g>
  </g>
  <rect
     width="18"
     height="18"
     x="0"
     y="0"
     id="canvas"
     style="fill:none;stroke:none;visibility:hidden" />
</svg>
