<?xml version="1.0" encoding="UTF-8" standalone="no"?>
<!-- Created with Inkscape (http://www.inkscape.org/) -->

<svg
   xmlns:dc="http://purl.org/dc/elements/1.1/"
   xmlns:cc="http://creativecommons.org/ns#"
   xmlns:rdf="http://www.w3.org/1999/02/22-rdf-syntax-ns#"
   xmlns:svg="http://www.w3.org/2000/svg"
   xmlns="http://www.w3.org/2000/svg"
   xmlns:sodipodi="http://sodipodi.sourceforge.net/DTD/sodipodi-0.dtd"
   xmlns:inkscape="http://www.inkscape.org/namespaces/inkscape"
   width="24"
   height="24"
   id="svg4460"
   version="1.1"
   inkscape:version="0.48.2 r9819"
   sodipodi:docname="heart-24.svg">
  <defs
     id="defs4462" />
  <sodipodi:namedview
     id="base"
     pagecolor="#ffffff"
     bordercolor="#666666"
     borderopacity="1.0"
     inkscape:pageopacity="0.0"
     inkscape:pageshadow="2"
     inkscape:zoom="5.6568542"
     inkscape:cx="14.948161"
     inkscape:cy="19.265556"
     inkscape:document-units="px"
     inkscape:current-layer="layer1"
     showgrid="true"
     showguides="false"
     inkscape:guide-bbox="true"
     inkscape:window-width="1511"
     inkscape:window-height="938"
     inkscape:window-x="26"
     inkscape:window-y="16"
     inkscape:window-maximized="0"
     inkscape:snap-grids="true"
     inkscape:snap-to-guides="false"
     inkscape:object-paths="false"
     inkscape:snap-nodes="false"
     inkscape:snap-bbox="true">
    <inkscape:grid
       type="xygrid"
       id="grid4468"
       empspacing="2"
       visible="true"
       enabled="true"
       snapvisiblegridlinesonly="true"
       color="#ff00ff"
       opacity="0.1254902"
       empcolor="#ff00ff"
       empopacity="0.25098039" />
    <sodipodi:guide
       orientation="1,0"
       position="0,20"
       id="guide4470" />
    <sodipodi:guide
       orientation="0,1"
       position="4,24"
       id="guide4472" />
    <sodipodi:guide
       orientation="1,0"
       position="24,13"
       id="guide4474" />
    <sodipodi:guide
       orientation="0,1"
       position="15,0"
       id="guide4476" />
    <sodipodi:guide
       orientation="1,0"
       position="23,20"
       id="guide4478" />
    <sodipodi:guide
       orientation="0,1"
       position="20,23"
       id="guide4480" />
    <sodipodi:guide
       orientation="1,0"
       position="2,5"
       id="guide4482" />
    <sodipodi:guide
       orientation="0,1"
       position="7,2"
       id="guide4484" />
    <sodipodi:guide
       orientation="1,0"
       position="13,16"
       id="guide4486" />
    <sodipodi:guide
       orientation="0,1"
       position="16,13"
       id="guide4490" />
    <sodipodi:guide
       orientation="1,0"
       position="3,7.5"
       id="guide3012" />
    <sodipodi:guide
       orientation="0,1"
       position="7.5,22"
       id="guide3014" />
    <sodipodi:guide
       orientation="1,0"
       position="22,18.5"
       id="guide3016" />
    <sodipodi:guide
       orientation="0,1"
       position="11,3"
       id="guide3018" />
  </sodipodi:namedview>
  <metadata
     id="metadata4465">
    <rdf:RDF>
      <cc:Work
         rdf:about="">
        <dc:format>image/svg+xml</dc:format>
        <dc:type
           rdf:resource="http://purl.org/dc/dcmitype/StillImage" />
        <dc:title></dc:title>
      </cc:Work>
    </rdf:RDF>
  </metadata>
  <g
     inkscape:label="Layer 1"
     inkscape:groupmode="layer"
     id="layer1"
     transform="translate(0,-1028.3622)">
    <path
       style="color:#000000;fill:#444444;fill-opacity:1;fill-rule:nonzero;stroke:none;stroke-width:2;marker:none;visibility:visible;display:inline;overflow:visible;enable-background:accumulate"
       d="m -22.77996,1040.3622 c -1.718302,2.7838 -5.550121,6.1525 -7.511587,8 -1.961465,-1.8475 -5.783904,-5.2073 -7.487844,-8 -3.718609,-6.0946 1.999431,-11.5 7.487844,-5.0017 4.511587,-6.4983 11.292693,-1.1241 7.511587,5.0017 z"
       id="path7962-4-3-5-3-9"
       inkscape:connector-curvature="0"
       sodipodi:nodetypes="scscs" />
    <path
       sodipodi:nodetypes="scscs"
       inkscape:connector-curvature="0"
       id="path3804"
       d="m 115.47933,1039.3622 c -1.46292,2.9258 -5.53846,7.1527 -7.5,9 -1.96154,-1.8473 -6.03707,-6.0742 -7.5,-9 -2.999995,-6 4,-10.5 7.5,-5 3.5,-5.5 10.5,-1 7.5,5 z"
       style="color:#000000;fill:#444444;fill-opacity:1;fill-rule:nonzero;stroke:none;stroke-width:2;marker:none;visibility:visible;display:inline;overflow:visible;enable-background:accumulate" />
    <path
       sodipodi:nodetypes="scscs"
       inkscape:connector-curvature="0"
       id="path3806"
       d="m 85.729335,1039.3622 c -1.462921,2.9258 -5.53846,7.1527 -7.5,9 -1.96154,-1.8473 -6.037079,-6.0742 -7.5,-9 -3,-6 4,-10 7.5,-4 3.5,-6 10.5,-2 7.5,4 z"
       style="color:#000000;fill:#444444;fill-opacity:1;fill-rule:nonzero;stroke:none;stroke-width:2;marker:none;visibility:visible;display:inline;overflow:visible;enable-background:accumulate" />
    <path
       style="color:#000000;fill:#444444;fill-opacity:1;fill-rule:nonzero;stroke:none;stroke-width:2;marker:none;visibility:visible;display:inline;overflow:visible;enable-background:accumulate"
       d="m 20.28495,1039.3442 c -1.518503,2.9316 -5.748886,7.167 -7.78495,9.018 -2.036066,-1.851 -6.2664478,-6.0864 -7.7849499,-9.018 -3.1139801,-6.012 4.7701282,-10.02 7.7849499,-4.008 3.014822,-6.012 10.898929,-2.004 7.78495,4.008 z"
       id="path3808"
       inkscape:connector-curvature="0"
       sodipodi:nodetypes="scscs" />
    <path
       sodipodi:nodetypes="scscs"
       inkscape:connector-curvature="0"
       id="path3810"
       d="m 54.246678,1039.3622 c -1.511038,2.9258 -5.720623,7.1527 -7.746678,9 -2.026056,-1.8473 -6.23564,-6.0742 -7.746677,-9 -3.098671,-6 4.131561,-10 7.746677,-4 3.615116,-6 10.845348,-2 7.746678,4 z"
       style="color:#000000;fill:#444444;fill-opacity:1;fill-rule:nonzero;stroke:none;stroke-width:2;marker:none;visibility:visible;display:inline;overflow:visible;enable-background:accumulate" />
    <path
       sodipodi:nodetypes="scscs"
       inkscape:connector-curvature="0"
       id="path3812"
       d="m 0.33530397,1000.3622 c -1.333269,2.9258 -5.04760897,7.1527 -6.83530397,9 -1.787696,-1.8473 -5.502036,-6.0742 -6.835303,-9 -2.734122,-6 3.6454948,-10 6.835303,-4 3.189808,-6 9.569424,-2 6.83530397,4 z"
       style="color:#000000;fill:#444444;fill-opacity:1;fill-rule:nonzero;stroke:none;stroke-width:2;marker:none;visibility:visible;display:inline;overflow:visible;enable-background:accumulate" />
    <path
       sodipodi:nodetypes="scscs"
       inkscape:connector-curvature="0"
       id="path3843"
       d="m 20.28495,1115.3582 c -1.518503,2.9316 -5.748886,7.167 -7.78495,9.018 -2.036066,-1.851 -6.2664478,-6.0864 -7.7849499,-9.018 -3.1139801,-6.012 4.7701282,-10.02 7.7849499,-4.008 3.014822,-6.012 10.898929,-2.004 7.78495,4.008 z"
       style="color:#000000;fill:#444444;fill-opacity:1;fill-rule:nonzero;stroke:none;stroke-width:2;marker:none;visibility:visible;display:inline;overflow:visible;enable-background:accumulate" />
  </g>
</svg>
