<?xml version="1.0" encoding="UTF-8" standalone="no"?>
<!-- Created with Inkscape (http://www.inkscape.org/) -->

<svg
   xmlns:dc="http://purl.org/dc/elements/1.1/"
   xmlns:cc="http://creativecommons.org/ns#"
   xmlns:rdf="http://www.w3.org/1999/02/22-rdf-syntax-ns#"
   xmlns:svg="http://www.w3.org/2000/svg"
   xmlns="http://www.w3.org/2000/svg"
   xmlns:inkscape="http://www.inkscape.org/namespaces/inkscape"
   version="1.1"
   width="24"
   height="24"
   id="svg4460">
  <defs
     id="defs4462" />
  <metadata
     id="metadata4465">
    <rdf:RDF>
      <cc:Work
         rdf:about="">
        <dc:format>image/svg+xml</dc:format>
        <dc:type
           rdf:resource="http://purl.org/dc/dcmitype/StillImage" />
        <dc:title />
      </cc:Work>
    </rdf:RDF>
  </metadata>
  <g
     transform="translate(0,-1028.3622)"
     id="layer1">
    <g
       transform="translate(0,2)"
       id="g3821">
      <path
         d="m 7.8032147,1031.3731 c -0.6882734,0.047 -1.3680221,0.2231 -1.97265,0.5324 -2.418512,1.2377 -3.7960055,4.4927 -2.0352738,7.8931 1.6897907,3.2632 5.9239754,7.4001 8.0158471,9.3024 0.367736,0.3483 1.009988,0.3483 1.377724,0 2.09187,-1.9023 6.326056,-6.0392 8.015848,-9.3024 1.76073,-3.4004 0.383238,-6.6554 -2.035274,-7.8931 -2.069458,-1.0589 -4.831952,-0.5235 -6.669436,1.7541 -1.30063,-1.6122 -3.0293089,-2.4007 -4.6967853,-2.2865 z"
         inkscape:connector-curvature="0"
         id="path3045"
         style="font-size:medium;font-style:normal;font-variant:normal;font-weight:normal;font-stretch:normal;text-indent:0;text-align:start;text-decoration:none;line-height:normal;letter-spacing:normal;word-spacing:normal;text-transform:none;direction:ltr;block-progression:tb;writing-mode:lr-tb;text-anchor:start;baseline-shift:baseline;opacity:0.3;color:#000000;fill:#ffffff;fill-opacity:1;fill-rule:nonzero;stroke:none;stroke-width:2;marker:none;visibility:visible;display:inline;overflow:visible;enable-background:accumulate;font-family:Sans;-inkscape-font-specification:Sans" />
      <path
         d="m 20.28495,1039.3442 c -1.518503,2.9316 -5.748886,7.167 -7.78495,9.018 -2.036066,-1.851 -6.2664478,-6.0864 -7.7849499,-9.018 -3.1139801,-6.012 4.7701282,-10.02 7.7849499,-4.008 3.014822,-6.012 10.898929,-2.004 7.78495,4.008 z"
         inkscape:connector-curvature="0"
         id="path3808"
         style="color:#000000;fill:#444444;fill-opacity:1;fill-rule:nonzero;stroke:none;stroke-width:2;marker:none;visibility:visible;display:inline;overflow:visible;enable-background:accumulate" />
    </g>
  </g>
  <rect
     width="24"
     height="24"
     x="0"
     y="0"
     id="canvas"
     style="fill:none;stroke:none;visibility:hidden" />
</svg>
