<?xml version="1.0" encoding="UTF-8" standalone="no"?>
<!-- Created with Inkscape (http://www.inkscape.org/) -->

<svg
   xmlns:dc="http://purl.org/dc/elements/1.1/"
   xmlns:cc="http://creativecommons.org/ns#"
   xmlns:rdf="http://www.w3.org/1999/02/22-rdf-syntax-ns#"
   xmlns:svg="http://www.w3.org/2000/svg"
   xmlns="http://www.w3.org/2000/svg"
   xmlns:inkscape="http://www.inkscape.org/namespaces/inkscape"
   version="1.1"
   width="12"
   height="12"
   id="svg4764">
  <defs
     id="defs4766" />
  <metadata
     id="metadata4769">
    <rdf:RDF>
      <cc:Work
         rdf:about="">
        <dc:format>image/svg+xml</dc:format>
        <dc:type
           rdf:resource="http://purl.org/dc/dcmitype/StillImage" />
        <dc:title />
      </cc:Work>
    </rdf:RDF>
  </metadata>
  <g
     transform="translate(0,-1040.3622)"
     id="layer1"
     style="display:inline">
    <g
       transform="translate(0,1)"
       id="g3780">
      <path
         d="m 2.8131328,1040.3697 c -0.3041649,0.053 -0.5784724,0.2555 -0.7186257,0.5304 l -0.999827,1.9966 c -0.068345,0.1455 -0.10080722,0.3076 -0.093734,0.468 l 0,0.9984 c 4.948e-4,0.117 0.021753,0.2336 0.062489,0.3433 l 0.999827,2.6519 c 0.057503,0.1304 0.1433776,0.2483 0.2499568,0.3431 l 3.4993944,3.4007 c 0.3669453,0.3468 1.0078169,0.3468 1.3747621,0 l 3.4993956,-3.4007 c 0.106579,-0.095 0.192453,-0.2127 0.249956,-0.3431 l 0.999827,-2.6519 c 0.04073,-0.1097 0.06198,-0.2263 0.0625,-0.3433 l 0,-0.9984 c 0.0071,-0.1604 -0.02538,-0.3225 -0.09374,-0.468 l -0.999826,-1.9966 c -0.172718,-0.3253 -0.537601,-0.5388 -0.9060934,-0.5304 l -1.9996543,0 c -0.3090524,-0.01 -0.6192473,0.1333 -0.8123594,0.3744 l -0.6873811,0.9047 -0.6873811,-0.9047 c -0.193112,-0.2411 -0.503307,-0.3841 -0.8123595,-0.3744 l -1.9996539,0 c -0.062306,-0.01 -0.125162,-0.01 -0.1874676,0 z"
         inkscape:connector-curvature="0"
         id="path3004"
         style="font-size:medium;font-style:normal;font-variant:normal;font-weight:normal;font-stretch:normal;text-indent:0;text-align:start;text-decoration:none;line-height:normal;letter-spacing:normal;word-spacing:normal;text-transform:none;direction:ltr;block-progression:tb;writing-mode:lr-tb;text-anchor:start;baseline-shift:baseline;opacity:0.3;color:#000000;fill:#ffffff;fill-opacity:1;fill-rule:nonzero;stroke:none;stroke-width:2;marker:none;visibility:visible;display:inline;overflow:visible;enable-background:accumulate;font-family:Sans;-inkscape-font-specification:Sans" />
      <path
         d="m 10,1041.3622 1,2 0,1 -1,2.6439 -3.4999999,3.3864 L 3,1047.0061 l -1,-2.6439 0,-1 1,-2 2,0 1.5,2 1.5,-2 z"
         inkscape:connector-curvature="0"
         id="path3001"
         style="fill:#444444;fill-opacity:1;stroke:none;display:inline" />
    </g>
  </g>
  <rect
     width="12"
     height="12"
     x="0"
     y="0"
     id="canvas"
     style="fill:none;stroke:none;visibility:hidden" />
</svg>
