<?xml version="1.0" encoding="UTF-8" standalone="no"?>
<!-- Created with Inkscape (http://www.inkscape.org/) -->

<svg
   xmlns:dc="http://purl.org/dc/elements/1.1/"
   xmlns:cc="http://creativecommons.org/ns#"
   xmlns:rdf="http://www.w3.org/1999/02/22-rdf-syntax-ns#"
   xmlns:svg="http://www.w3.org/2000/svg"
   xmlns="http://www.w3.org/2000/svg"
   xmlns:inkscape="http://www.inkscape.org/namespaces/inkscape"
   version="1.1"
   width="18"
   height="18"
   id="svg4619">
  <defs
     id="defs4621" />
  <metadata
     id="metadata4624">
    <rdf:RDF>
      <cc:Work
         rdf:about="">
        <dc:format>image/svg+xml</dc:format>
        <dc:type
           rdf:resource="http://purl.org/dc/dcmitype/StillImage" />
        <dc:title />
      </cc:Work>
    </rdf:RDF>
  </metadata>
  <g
     transform="translate(0,-1034.3622)"
     id="layer1">
    <g
       transform="translate(0,2)"
       id="g4352">
      <path
         d="m 5.870284,1035.3729 c -0.57914,0.017 -1.1607654,0.1731 -1.6584621,0.4377 -1.9907863,1.0589 -2.9372504,3.8404 -1.5645868,6.6608 1.3144313,2.7006 4.5581017,6.0759 6.1644722,7.6301 0.3674988,0.3476 1.0093375,0.3476 1.3768357,0 1.606368,-1.5542 4.850041,-4.9295 6.164473,-7.6301 1.372527,-2.8202 0.42531,-5.5995 -1.564587,-6.6608 -0.99495,-0.5306 -2.245338,-0.6255 -3.379508,-0.094 -0.71463,0.335 -1.347131,0.9824 -1.9087956,1.7512 -0.5606987,-0.7679 -1.1944962,-1.3853 -1.9087959,-1.72 -0.5668231,-0.2655 -1.1419055,-0.3925 -1.7210455,-0.3752 z"
         inkscape:connector-curvature="0"
         id="path3836"
         style="font-size:medium;font-style:normal;font-variant:normal;font-weight:normal;font-stretch:normal;text-indent:0;text-align:start;text-decoration:none;line-height:normal;letter-spacing:normal;word-spacing:normal;text-transform:none;direction:ltr;block-progression:tb;writing-mode:lr-tb;text-anchor:start;baseline-shift:baseline;opacity:0.3;color:#000000;fill:#ffffff;fill-opacity:1;fill-rule:nonzero;stroke:none;stroke-width:2;marker:none;visibility:visible;display:inline;overflow:visible;enable-background:accumulate;font-family:Sans;-inkscape-font-specification:Sans" />
      <path
         d="m 15.440766,1042.0331 c -1.158855,2.3826 -4.387301,5.8248 -5.9411369,7.3291 -1.5538378,-1.5043 -4.7822826,-4.9465 -5.9411379,-7.3291 -2.3764553,-4.8861 3.4462017,-8.4735 5.9411374,-2.6736 2.5059624,-5.811 8.3175914,-2.2125 5.9411374,2.6736 z"
         inkscape:connector-curvature="0"
         id="path3808"
         style="color:#000000;fill:#444444;fill-opacity:1;fill-rule:nonzero;stroke:none;stroke-width:2;marker:none;visibility:visible;display:inline;overflow:visible;enable-background:accumulate" />
    </g>
  </g>
  <rect
     width="18"
     height="18"
     x="0"
     y="0"
     id="canvas"
     style="fill:none;stroke:none;visibility:hidden" />
</svg>
