<?xml version="1.0" encoding="UTF-8" standalone="no"?>
<!-- Created with Inkscape (http://www.inkscape.org/) -->

<svg
   xmlns:dc="http://purl.org/dc/elements/1.1/"
   xmlns:cc="http://creativecommons.org/ns#"
   xmlns:rdf="http://www.w3.org/1999/02/22-rdf-syntax-ns#"
   xmlns:svg="http://www.w3.org/2000/svg"
   xmlns="http://www.w3.org/2000/svg"
   xmlns:sodipodi="http://sodipodi.sourceforge.net/DTD/sodipodi-0.dtd"
   xmlns:inkscape="http://www.inkscape.org/namespaces/inkscape"
   width="12"
   height="12"
   id="svg4764"
   version="1.1"
   inkscape:version="0.48.2 r9819"
   sodipodi:docname="heart-12.svg">
  <defs
     id="defs4766" />
  <sodipodi:namedview
     id="base"
     pagecolor="#ffffff"
     bordercolor="#666666"
     borderopacity="1.0"
     inkscape:pageopacity="0.0"
     inkscape:pageshadow="2"
     inkscape:zoom="1.5278954"
     inkscape:cx="6.5000031"
     inkscape:cy="91.286885"
     inkscape:document-units="px"
     inkscape:current-layer="layer1"
     showgrid="true"
     showguides="true"
     inkscape:guide-bbox="true"
     inkscape:window-width="1194"
     inkscape:window-height="996"
     inkscape:window-x="188"
     inkscape:window-y="0"
     inkscape:window-maximized="0"
     inkscape:snap-nodes="true"
     inkscape:snap-bbox="true"
     inkscape:snap-global="true">
    <inkscape:grid
       type="xygrid"
       id="grid4772"
       empspacing="2"
       visible="true"
       enabled="true"
       snapvisiblegridlinesonly="true"
       color="#ff00ff"
       opacity="0.1254902"
       empcolor="#ff00ff"
       empopacity="0.25098039" />
    <sodipodi:guide
       orientation="0,1"
       position="2,12"
       id="guide4789" />
    <sodipodi:guide
       orientation="1,0"
       position="12,10"
       id="guide4791" />
    <sodipodi:guide
       orientation="0,1"
       position="10,0"
       id="guide4793" />
    <sodipodi:guide
       orientation="1,0"
       position="0,9"
       id="guide4795" />
    <sodipodi:guide
       orientation="0,1"
       position="5,11"
       id="guide4797" />
    <sodipodi:guide
       orientation="1,0"
       position="11,7"
       id="guide4799" />
    <sodipodi:guide
       orientation="0,1"
       position="9,2"
       id="guide4801" />
    <sodipodi:guide
       orientation="1,0"
       position="2,5"
       id="guide4803" />
  </sodipodi:namedview>
  <metadata
     id="metadata4769">
    <rdf:RDF>
      <cc:Work
         rdf:about="">
        <dc:format>image/svg+xml</dc:format>
        <dc:type
           rdf:resource="http://purl.org/dc/dcmitype/StillImage" />
        <dc:title />
      </cc:Work>
    </rdf:RDF>
  </metadata>
  <g
     inkscape:label="Layer 1"
     inkscape:groupmode="layer"
     id="layer1"
     transform="translate(0,-1040.3622)"
     style="display:inline">
    <g
       id="g3780"
       transform="translate(0,1)">
      <path
         sodipodi:nodetypes="ccccccccccccccccccccccccc"
         inkscape:connector-curvature="0"
         id="path3004"
         d="m 2.8131328,1040.3697 c -0.3041649,0.053 -0.5784724,0.2555 -0.7186257,0.5304 l -0.999827,1.9966 c -0.068345,0.1455 -0.10080722,0.3076 -0.093734,0.468 l 0,0.9984 c 4.948e-4,0.117 0.021753,0.2336 0.062489,0.3433 l 0.999827,2.6519 c 0.057503,0.1304 0.1433776,0.2483 0.2499568,0.3431 l 3.4993944,3.4007 c 0.3669453,0.3468 1.0078169,0.3468 1.3747621,0 l 3.4993956,-3.4007 c 0.106579,-0.095 0.192453,-0.2127 0.249956,-0.3431 l 0.999827,-2.6519 c 0.04073,-0.1097 0.06198,-0.2263 0.0625,-0.3433 l 0,-0.9984 c 0.0071,-0.1604 -0.02538,-0.3225 -0.09374,-0.468 l -0.999826,-1.9966 c -0.172718,-0.3253 -0.537601,-0.5388 -0.9060934,-0.5304 l -1.9996543,0 c -0.3090524,-0.01 -0.6192473,0.1333 -0.8123594,0.3744 l -0.6873811,0.9047 -0.6873811,-0.9047 c -0.193112,-0.2411 -0.503307,-0.3841 -0.8123595,-0.3744 l -1.9996539,0 c -0.062306,-0.01 -0.125162,-0.01 -0.1874676,0 z"
         style="font-size:medium;font-style:normal;font-variant:normal;font-weight:normal;font-stretch:normal;text-indent:0;text-align:start;text-decoration:none;line-height:normal;letter-spacing:normal;word-spacing:normal;text-transform:none;direction:ltr;block-progression:tb;writing-mode:lr-tb;text-anchor:start;baseline-shift:baseline;opacity:0.3;color:#000000;fill:#ffffff;fill-opacity:1;fill-rule:nonzero;stroke:none;stroke-width:2;marker:none;visibility:visible;display:inline;overflow:visible;enable-background:accumulate;font-family:Sans;-inkscape-font-specification:Sans" />
      <path
         style="fill:#444444;fill-opacity:1;stroke:none;display:inline"
         inkscape:transform-center-y="0.75248736"
         d="m 10,1041.3622 1,2 0,1 -1,2.6439 -3.4999999,3.3864 L 3,1047.0061 l -1,-2.6439 0,-1 1,-2 2,0 1.5,2 1.5,-2 z"
         id="path3001"
         inkscape:connector-curvature="0"
         sodipodi:nodetypes="ccccccccccccc" />
    </g>
  </g>
</svg>
