<?xml version="1.0" encoding="UTF-8" standalone="no"?>
<!-- Created with Inkscape (http://www.inkscape.org/) -->

<svg
   xmlns:dc="http://purl.org/dc/elements/1.1/"
   xmlns:cc="http://creativecommons.org/ns#"
   xmlns:rdf="http://www.w3.org/1999/02/22-rdf-syntax-ns#"
   xmlns:svg="http://www.w3.org/2000/svg"
   xmlns="http://www.w3.org/2000/svg"
   xmlns:inkscape="http://www.inkscape.org/namespaces/inkscape"
   version="1.1"
   width="18"
   height="18"
   id="svg4619">
  <defs
     id="defs4621" />
  <metadata
     id="metadata4624">
    <rdf:RDF>
      <cc:Work
         rdf:about="">
        <dc:format>image/svg+xml</dc:format>
        <dc:type
           rdf:resource="http://purl.org/dc/dcmitype/StillImage" />
        <dc:title />
      </cc:Work>
    </rdf:RDF>
  </metadata>
  <g
     transform="translate(0,-1034.3622)"
     id="layer1">
    <g
       transform="translate(-108,-40)"
       id="heliport-18"
       style="display:inline">
      <g
         id="g21745">
        <path
           d="m 118.19444,1087.3622 5.02778,0 c 0.38889,0 0.77778,-0.3889 0.77778,-0.7778 l 0,-2.3333 c 0,-0.7778 -0.37392,-1.1517 -0.77778,-1.5556 0,0 -0.51852,-0.5185 -0.77778,-0.7777 -0.25925,-0.2593 -0.77777,-0.5556 -1.55555,-0.5556 l -1.88889,0 0,-2 3.22222,0 c 0.43088,0 0.77778,-0.1247 0.77778,-0.5556 0,-0.4308 -0.29135,-0.4444 -0.72223,-0.4444 l -7.33333,0 c -0.43089,0 -0.83333,0.014 -0.83333,0.4444 0,0.4309 0.34939,0.5092 0.77778,0.5556 l 3.11111,0 0,2 -0.77778,0 -3.32986,0 c -0.26914,-0.4643 -0.76156,-0.7778 -1.3368,-0.7778 -0.85911,0 -1.55556,0.6964 -1.55556,1.5556 0,0.8591 0.69645,1.5555 1.55556,1.5555 0.4488,0 0.83413,-0.2063 1.11805,-0.5104 l 2.77083,2.6215 c 0.80962,0.766 1.36112,1.5556 1.75,1.5556 z m -5.63888,-6 c 0.42955,0 0.77777,0.3482 0.77777,0.7778 0,0.4295 -0.34822,0.7777 -0.77777,0.7777 -0.42956,0 -0.77778,-0.3482 -0.77778,-0.7777 0,-0.4296 0.34822,-0.7778 0.77778,-0.7778 z"
           inkscape:connector-curvature="0"
           id="path14213"
           style="opacity:0.3;color:#000000;fill:none;stroke:#ffffff;stroke-width:2;stroke-linecap:round;stroke-linejoin:round;stroke-miterlimit:4;stroke-opacity:1;stroke-dasharray:none;stroke-dashoffset:0;marker:none;visibility:visible;display:inline;overflow:visible;enable-background:accumulate" />
        <path
           d="m 118.19444,1087.3622 5.02778,0 c 0.38889,0 0.77778,-0.3889 0.77778,-0.7778 l 0,-2.3333 c 0,-0.7778 -0.37392,-1.1517 -0.77778,-1.5556 0,0 -0.51852,-0.5185 -0.77778,-0.7777 -0.25925,-0.2593 -0.77777,-0.5556 -1.55555,-0.5556 l -1.88889,0 0,-2 3.22222,0 c 0.43088,0 0.77778,-0.1247 0.77778,-0.5556 0,-0.4308 -0.29135,-0.4444 -0.72223,-0.4444 l -7.33333,0 c -0.43089,0 -0.83333,0.014 -0.83333,0.4444 0,0.4309 0.34939,0.5092 0.77778,0.5556 l 3.11111,0 0,2 -0.77778,0 -3.32986,0 c -0.26914,-0.4643 -0.76156,-0.7778 -1.3368,-0.7778 -0.85911,0 -1.55556,0.6964 -1.55556,1.5556 0,0.8591 0.69645,1.5555 1.55556,1.5555 0.4488,0 0.83413,-0.2063 1.11805,-0.5104 l 2.77083,2.6215 c 0.80962,0.766 1.36112,1.5556 1.75,1.5556 z m -5.63888,-6 c 0.42955,0 0.77777,0.3482 0.77777,0.7778 0,0.4295 -0.34822,0.7777 -0.77777,0.7777 -0.42956,0 -0.77778,-0.3482 -0.77778,-0.7777 0,-0.4296 0.34822,-0.7778 0.77778,-0.7778 z"
           inkscape:connector-curvature="0"
           id="rect9361-7"
           style="color:#000000;fill:#444444;fill-opacity:1;fill-rule:nonzero;stroke:none;stroke-width:2;marker:none;visibility:visible;display:inline;overflow:visible;enable-background:accumulate" />
      </g>
    </g>
  </g>
  <rect
     width="18"
     height="18"
     x="0"
     y="0"
     id="canvas"
     style="fill:none;stroke:none;visibility:hidden" />
</svg>
