<?xml version="1.0" encoding="UTF-8" standalone="no"?>
<!-- Created with Inkscape (http://www.inkscape.org/) -->

<svg
   xmlns:dc="http://purl.org/dc/elements/1.1/"
   xmlns:cc="http://creativecommons.org/ns#"
   xmlns:rdf="http://www.w3.org/1999/02/22-rdf-syntax-ns#"
   xmlns:svg="http://www.w3.org/2000/svg"
   xmlns="http://www.w3.org/2000/svg"
   xmlns:sodipodi="http://sodipodi.sourceforge.net/DTD/sodipodi-0.dtd"
   xmlns:inkscape="http://www.inkscape.org/namespaces/inkscape"
   width="24"
   height="24"
   id="svg27577"
   version="1.1"
   inkscape:version="0.48.2 r9819"
   sodipodi:docname="golfing-white-24.svg">
  <defs
     id="defs27579" />
  <sodipodi:namedview
     id="base"
     pagecolor="#ffffff"
     bordercolor="#666666"
     borderopacity="1.0"
     inkscape:pageopacity="0.0"
     inkscape:pageshadow="2"
     inkscape:zoom="8.61"
     inkscape:cx="15.081873"
     inkscape:cy="12.396761"
     inkscape:document-units="px"
     inkscape:current-layer="layer1"
     showgrid="false"
     inkscape:window-width="564"
     inkscape:window-height="454"
     inkscape:window-x="3879"
     inkscape:window-y="629"
     inkscape:window-maximized="0">
    <inkscape:grid
       type="xygrid"
       id="grid2986" />
  </sodipodi:namedview>
  <metadata
     id="metadata27582">
    <rdf:RDF>
      <cc:Work
         rdf:about="">
        <dc:format>image/svg+xml</dc:format>
        <dc:type
           rdf:resource="http://purl.org/dc/dcmitype/StillImage" />
        <dc:title></dc:title>
      </cc:Work>
    </rdf:RDF>
  </metadata>
  <g
     inkscape:label="Layer 1"
     inkscape:groupmode="layer"
     id="layer1"
     transform="translate(0,-1028.3622)">
    <g
       id="g14655"
       transform="matrix(2,0,0,2,-580.64935,505.12526)">
      <path
         style="opacity:0;fill:#272525"
         inkscape:connector-curvature="0"
         id="path14657"
         d="m 300.92896,273.63705 c 0.79167,0 1.4352,-0.63989 1.4352,-1.43276 v -9.13326 c 0,-0.79166 -0.64232,-1.43398 -1.4352,-1.43398 h -9.13204 c -0.79166,0 -1.43276,0.6411 -1.43276,1.43398 v 9.13326 c 0,0.79166 0.63988,1.43276 1.43276,1.43276 h 9.13204 z" />
      <circle
         cx="25.323"
         cy="305.41699"
         r="0.56699997"
         id="circle14659"
         sodipodi:cx="25.323"
         sodipodi:cy="305.41699"
         sodipodi:rx="0.56699997"
         sodipodi:ry="0.56699997"
         style="opacity:0.6;fill:none;stroke:#1d1d1c;stroke-width:0.5;stroke-miterlimit:4;stroke-opacity:1;stroke-dasharray:none"
         d="m 25.89,305.41699 c 0,0.31315 -0.253855,0.567 -0.567,0.567 -0.313145,0 -0.567,-0.25385 -0.567,-0.567 0,-0.31314 0.253855,-0.567 0.567,-0.567 0.313145,0 0.567,0.25386 0.567,0.567 z"
         transform="matrix(1.2142062,0,0,1.2142062,264.66791,-107.51806)" />
      <path
         d="m 300.53556,265.99605 -0.73095,-0.13963 -0.42497,0.84387 c 0.0692,0.017 0.13963,0.0243 0.2137,0.0243 0.45411,-10e-4 0.83294,-0.30962 0.94222,-0.72852 z m -8.97177,1.42427 c 0,-0.55975 0.4529,-1.01508 1.01265,-1.01508 h 2.137 v -1.53476 c 0,-0.38126 0.30841,-0.68967 0.68967,-0.68967 0.38126,0 0.68967,0.30841 0.68967,0.68967 v 0.23677 l 1.01751,0.26106 c 0.17727,0.0401 0.2914,0.21855 0.25134,0.39583 -0.0401,0.1797 -0.21856,0.29141 -0.39826,0.25134 l -0.87059,-0.20399 v 0.59253 h 1.02479 l 2.8036,-2.90073 -0.0826,0.75402 1.38055,0.91794 c 0.22827,0.12992 0.31084,0.42497 0.1797,0.65203 -0.10199,0.18213 -0.30598,0.27076 -0.49782,0.23434 l -0.11171,-0.0206 c -0.13235,0.53668 -0.61924,0.93372 -1.19478,0.93372 -0.11413,0 -0.22584,-0.017 -0.32905,-0.0449 l -1.04543,2.137 v 2.93109 c 0,0.25134 -0.20642,0.45533 -0.45776,0.45533 -0.25134,0 -0.45532,-0.20399 -0.45532,-0.45533 V 269 H 295 l -0.41284,0.70667 0.86331,2.05807 c 0.12627,0.22099 0.0473,0.49783 -0.17121,0.62168 -0.22098,0.12628 -0.49782,0.0473 -0.6241,-0.17242 l -1.00779,-2.37499 v -0.75645 l -0.45047,0.7091 v 2.205 c 0,0.25134 -0.20399,0.45533 -0.45533,0.45533 -0.25134,0 -0.45775,-0.20399 -0.45775,-0.45533 v -2.54741 l 0.37761,-0.5901 v -1.99858 l -0.37519,0.57432 v 1.66346 h -0.72123 v -1.67803 z"
         id="path14661"
         inkscape:connector-curvature="0"
         style="opacity:0.6;fill:none;stroke:#1d1d1c;stroke-width:0.60710311;stroke-miterlimit:4;stroke-opacity:1;stroke-dasharray:none" />
      <g
         id="g14664"
         transform="matrix(1.2142062,0,0,1.2142062,264.66791,-107.51806)"
         style="fill:#ffffff;fill-opacity:1">
        <circle
           d="m 25.89,305.41699 c 0,0.31315 -0.253855,0.567 -0.567,0.567 -0.313145,0 -0.567,-0.25385 -0.567,-0.567 0,-0.31314 0.253855,-0.567 0.567,-0.567 0.313145,0 0.567,0.25386 0.567,0.567 z"
           cx="25.323"
           cy="305.41699"
           r="0.56699997"
           id="circle14666"
           sodipodi:cx="25.323"
           sodipodi:cy="305.41699"
           sodipodi:rx="0.56699997"
           sodipodi:ry="0.56699997"
           style="fill:#ffffff;fill-opacity:1" />
        <path
           d="m 29.54,307.62 -0.602,-0.115 -0.35,0.695 c 0.057,0.014 0.115,0.02 0.176,0.02 0.374,-0.001 0.686,-0.255 0.776,-0.6 z m -7.389,1.173 c 0,-0.461 0.373,-0.836 0.834,-0.836 h 1.76 v -1.264 c 0,-0.314 0.254,-0.568 0.568,-0.568 0.314,0 0.568,0.254 0.568,0.568 v 0.195 l 0.838,0.215 c 0.146,0.033 0.24,0.18 0.207,0.326 -0.033,0.148 -0.18,0.24 -0.328,0.207 l -0.717,-0.168 v 0.488 h 0.844 l 2.309,-2.389 -0.068,0.621 1.137,0.756 c 0.188,0.107 0.256,0.35 0.148,0.537 -0.084,0.15 -0.252,0.223 -0.41,0.193 l -0.092,-0.017 c -0.109,0.442 -0.51,0.769 -0.984,0.769 -0.094,0 -0.186,-0.014 -0.271,-0.037 l -0.861,1.76 v 2.414 c 0,0.207 -0.17,0.375 -0.377,0.375 -0.207,0 -0.375,-0.168 -0.375,-0.375 v -2.469 h -1.9 l -0.34,0.582 0.711,1.695 c 0.104,0.182 0.039,0.41 -0.141,0.512 -0.182,0.104 -0.41,0.039 -0.514,-0.142 l -0.83,-1.956 v -0.623 l -0.371,0.584 v 1.816 c 0,0.207 -0.168,0.375 -0.375,0.375 -0.207,0 -0.377,-0.168 -0.377,-0.375 v -2.098 l 0.311,-0.486 v -1.646 l -0.309,0.473 v 1.37 h -0.594 v -1.382 z"
           id="path14669"
           inkscape:connector-curvature="0"
           style="fill:#ffffff;fill-opacity:1" />
      </g>
    </g>
  </g>
</svg>
