<?xml version="1.0" encoding="utf-8"?>
<!-- Generator: Adobe Illustrator 18.1.1, SVG Export Plug-In . SVG Version: 6.00 Build 0)  -->
<svg version="1.1" xmlns="http://www.w3.org/2000/svg" xmlns:xlink="http://www.w3.org/1999/xlink" x="0px" y="0px"
	 viewBox="0 0 24 24" enable-background="new 0 0 24 24" xml:space="preserve">
<g id="shadows">
	<g opacity="0.2">
		<polygon points="20.5,9.4 20.5,11 18.9,12.5 17.4,12.5 17.4,11.7 18.9,11.7 19.7,11 19.7,9.4 		"/>
		<path d="M18.9,7.1V5.5l-1.5,1.5L15,10V9.4l-2.3-0.8V7.9L12,7.1h-0.8l-0.8,0.8V11H5.8L5,11.7v3.9h0.8v-3.1l0.8-0.8h0.8l-0.8,1.5V14
			v6.2L7.3,21l0.8-0.8v-4.6l2.3,4.6l0.8,0.8l0.8-0.8l-2.3-5.4H15v5.4l0.8,0.8l0.8-0.8V14l2.3-4.6l2.3,0.8L22,9.4L18.9,7.1z M12.7,11
			V9.4l2.2,0.7L14.3,11H12.7z"/>
		<circle cx="11.6" cy="5.2" r="1.2"/>
	</g>
</g>
<g id="icons">
	<g>
		<polygon points="19.5,8.4 19.5,10 17.9,11.5 16.4,11.5 16.4,10.7 17.9,10.7 18.7,10 18.7,8.4 		"/>
		<path d="M17.9,6.1V4.5l-1.5,1.5L14,9V8.4l-2.3-0.8V6.9L11,6.1h-0.8L9.4,6.9V10H4.8L4,10.7v3.9h0.8v-3.1l0.8-0.8h0.8l-0.8,1.5V13
			v6.2L6.3,20l0.8-0.8v-4.6l2.3,4.6l0.8,0.8l0.8-0.8l-2.3-5.4H14v5.4l0.8,0.8l0.8-0.8V13l2.3-4.6l2.3,0.8L21,8.4L17.9,6.1z M11.7,10
			V8.4l2.2,0.7L13.3,10H11.7z"/>
		<circle cx="10.6" cy="4.2" r="1.2"/>
	</g>
</g>
<g id="guides">
</g>
</svg>
