<?xml version="1.0" encoding="UTF-8" standalone="no"?>
<!-- Created with Inkscape (http://www.inkscape.org/) -->

<svg
   xmlns:dc="http://purl.org/dc/elements/1.1/"
   xmlns:cc="http://creativecommons.org/ns#"
   xmlns:rdf="http://www.w3.org/1999/02/22-rdf-syntax-ns#"
   xmlns:svg="http://www.w3.org/2000/svg"
   xmlns="http://www.w3.org/2000/svg"
   xmlns:sodipodi="http://sodipodi.sourceforge.net/DTD/sodipodi-0.dtd"
   xmlns:inkscape="http://www.inkscape.org/namespaces/inkscape"
   width="24"
   height="24"
   id="svg27349"
   version="1.1"
   inkscape:version="0.48.2 r9819"
   sodipodi:docname="golfing-black-24.svg">
  <defs
     id="defs27351" />
  <sodipodi:namedview
     id="base"
     pagecolor="#ffffff"
     bordercolor="#666666"
     borderopacity="1.0"
     inkscape:pageopacity="0.0"
     inkscape:pageshadow="2"
     inkscape:zoom="8.6123905"
     inkscape:cx="11.808263"
     inkscape:cy="10.533919"
     inkscape:document-units="px"
     inkscape:current-layer="layer1"
     showgrid="false"
     inkscape:window-width="483"
     inkscape:window-height="454"
     inkscape:window-x="3648"
     inkscape:window-y="148"
     inkscape:window-maximized="0"
     gridtolerance="10">
    <inkscape:grid
       type="xygrid"
       id="grid3004"
       empspacing="5"
       visible="true"
       enabled="true"
       snapvisiblegridlinesonly="true" />
  </sodipodi:namedview>
  <metadata
     id="metadata27354">
    <rdf:RDF>
      <cc:Work
         rdf:about="">
        <dc:format>image/svg+xml</dc:format>
        <dc:type
           rdf:resource="http://purl.org/dc/dcmitype/StillImage" />
        <dc:title></dc:title>
      </cc:Work>
    </rdf:RDF>
  </metadata>
  <g
     inkscape:label="Layer 1"
     inkscape:groupmode="layer"
     id="layer1"
     transform="translate(0,-1028.3622)">
    <g
       transform="matrix(2.4284124,0,0,2.4284124,-51.432978,289.97635)"
       id="g14625">
      <path
         style="opacity:0;fill:#272525"
         inkscape:connector-curvature="0"
         id="path14627"
         d="m 29.864,313.913 c 0.652,0 1.182,-0.527 1.182,-1.18 v -7.522 c 0,-0.652 -0.529,-1.181 -1.182,-1.181 h -7.521 c -0.652,0 -1.18,0.528 -1.18,1.181 v 7.522 c 0,0.652 0.527,1.18 1.18,1.18 h 7.521 z" />
      <g
         id="g14629"
         style="opacity:0.6;fill:none;stroke:#ffffff;stroke-width:0.5;stroke-miterlimit:4;stroke-opacity:1;stroke-dasharray:none">
        <circle
           d="m 25.89,305.41699 c 0,0.31315 -0.253855,0.567 -0.567,0.567 -0.313145,0 -0.567,-0.25385 -0.567,-0.567 0,-0.31314 0.253855,-0.567 0.567,-0.567 0.313145,0 0.567,0.25386 0.567,0.567 z"
           style="fill:none;stroke:#ffffff;stroke-width:0.5;stroke-miterlimit:4;stroke-opacity:1;stroke-dasharray:none"
           sodipodi:ry="0.56699997"
           sodipodi:rx="0.56699997"
           sodipodi:cy="305.41699"
           sodipodi:cx="25.323"
           id="circle14631"
           r="0.56699997"
           cy="305.41699"
           cx="25.323" />
        <path
           style="fill:none;stroke:#ffffff;stroke-width:0.5;stroke-miterlimit:4;stroke-opacity:1;stroke-dasharray:none"
           inkscape:connector-curvature="0"
           id="path14633"
           d="m 29.54,307.62 -0.602,-0.115 -0.35,0.695 c 0.057,0.014 0.115,0.02 0.176,0.02 0.374,-0.001 0.686,-0.255 0.776,-0.6 z m -7.389,1.173 c 0,-0.461 0.373,-0.836 0.834,-0.836 h 1.76 v -1.264 c 0,-0.314 0.254,-0.568 0.568,-0.568 0.314,0 0.568,0.254 0.568,0.568 v 0.195 l 0.838,0.215 c 0.146,0.033 0.24,0.18 0.207,0.326 -0.033,0.148 -0.18,0.24 -0.328,0.207 l -0.717,-0.168 v 0.488 h 0.844 l 2.309,-2.389 -0.068,0.621 1.137,0.756 c 0.188,0.107 0.256,0.35 0.148,0.537 -0.084,0.15 -0.252,0.223 -0.41,0.193 l -0.092,-0.017 c -0.109,0.442 -0.51,0.769 -0.984,0.769 -0.094,0 -0.186,-0.014 -0.271,-0.037 l -0.861,1.76 v 2.414 c 0,0.207 -0.17,0.375 -0.377,0.375 -0.207,0 -0.375,-0.168 -0.375,-0.375 v -2.469 h -1.9 l -0.34,0.582 0.711,1.695 c 0.104,0.182 0.039,0.41 -0.141,0.512 -0.182,0.104 -0.41,0.039 -0.514,-0.142 l -0.83,-1.956 v -0.623 l -0.371,0.584 v 1.816 c 0,0.207 -0.168,0.375 -0.375,0.375 -0.207,0 -0.377,-0.168 -0.377,-0.375 v -2.098 l 0.311,-0.486 v -1.646 l -0.309,0.473 v 1.37 h -0.594 v -1.382 z" />
      </g>
      <g
         id="g14635">
        <circle
           d="m 25.89,305.41699 c 0,0.31315 -0.253855,0.567 -0.567,0.567 -0.313145,0 -0.567,-0.25385 -0.567,-0.567 0,-0.31314 0.253855,-0.567 0.567,-0.567 0.313145,0 0.567,0.25386 0.567,0.567 z"
           cx="25.323"
           cy="305.41699"
           r="0.56699997"
           id="circle14637"
           sodipodi:cx="25.323"
           sodipodi:cy="305.41699"
           sodipodi:rx="0.56699997"
           sodipodi:ry="0.56699997"
           style="fill:#272525" />
        <path
           d="m 29.54,307.62 -0.602,-0.115 -0.35,0.695 c 0.057,0.014 0.115,0.02 0.176,0.02 0.374,-0.001 0.686,-0.255 0.776,-0.6 z m -7.389,1.173 c 0,-0.461 0.373,-0.836 0.834,-0.836 h 1.76 v -1.264 c 0,-0.314 0.254,-0.568 0.568,-0.568 0.314,0 0.568,0.254 0.568,0.568 v 0.195 l 0.838,0.215 c 0.146,0.033 0.24,0.18 0.207,0.326 -0.033,0.148 -0.18,0.24 -0.328,0.207 l -0.717,-0.168 v 0.488 h 0.844 l 2.309,-2.389 -0.068,0.621 1.137,0.756 c 0.188,0.107 0.256,0.35 0.148,0.537 -0.084,0.15 -0.252,0.223 -0.41,0.193 l -0.092,-0.017 c -0.109,0.442 -0.51,0.769 -0.984,0.769 -0.094,0 -0.186,-0.014 -0.271,-0.037 l -0.861,1.76 v 2.414 c 0,0.207 -0.17,0.375 -0.377,0.375 -0.207,0 -0.375,-0.168 -0.375,-0.375 v -2.469 h -1.9 l -0.34,0.582 0.711,1.695 c 0.104,0.182 0.039,0.41 -0.141,0.512 -0.182,0.104 -0.41,0.039 -0.514,-0.142 l -0.83,-1.956 v -0.623 l -0.371,0.584 v 1.816 c 0,0.207 -0.168,0.375 -0.375,0.375 -0.207,0 -0.377,-0.168 -0.377,-0.375 v -2.098 l 0.311,-0.486 v -1.646 l -0.309,0.473 v 1.37 h -0.594 v -1.382 z"
           id="path14639"
           inkscape:connector-curvature="0"
           style="fill:#272525" />
      </g>
    </g>
  </g>
</svg>
