<?xml version="1.0" encoding="UTF-8" standalone="no"?>
<svg width="18px" height="18px" viewBox="0 0 18 18" version="1.1" xmlns="http://www.w3.org/2000/svg" xmlns:xlink="http://www.w3.org/1999/xlink" xmlns:sketch="http://www.bohemiancoding.com/sketch/ns">
    <!-- Generator: Sketch 3.2.2 (9983) - http://www.bohemiancoding.com/sketch -->
    <title>horseback-riding-black-18</title>
    <desc>Created with Sketch.</desc>
    <defs></defs>
    <g id="Page-1" stroke="none" stroke-width="1" fill="none" fill-rule="evenodd" sketch:type="MSPage">
        <path d="M16.7777778,7.26596034 L16.7777778,8.7258897 L15.2962963,10.1858191 L13.8148148,10.1858191 L13.8148148,9.45585439 L15.2962963,9.45585439 L16.037037,8.7258897 L16.037037,7.26596034 L16.7777778,7.26596034" id="Fill-207" opacity="0.1" fill="#0A0B09" sketch:type="MSShapeGroup"></path>
        <path d="M9.37037037,8.7258897 L9.37037037,7.26596034 L11.4740741,7.95942679 L10.8518519,8.7258897 L9.37037037,8.7258897 L9.37037037,8.7258897 Z M15.2962963,5.07606629 L15.2962963,3.61613692 L13.8148148,5.07606629 L11.5925926,7.81343385 L11.5925926,7.26596034 L9.37037037,6.53599565 L9.37037037,5.80603097 L8.62962963,5.07606629 L7.88888889,5.07606629 L7.14814815,5.80603097 L7.14814815,8.7258897 L2.7037037,8.7258897 L1.96296296,9.45585439 L1.96296296,13.1056778 L2.7037037,13.1056778 L2.7037037,10.1858191 L3.44444444,9.45585439 L4.18518519,9.45585439 L3.44444444,10.9157838 L3.44444444,17.4854659 L4.18518519,18.2154306 L4.92592593,17.4854659 L4.92592593,13.1056778 L7.14814815,17.4854659 L7.88888889,18.2154306 L8.62962963,17.4854659 L6.40740741,12.3757131 L11.5925926,12.3757131 L11.5925926,17.4854659 L12.3333333,18.2154306 L13.0740741,17.4854659 L13.0740741,11.6457484 L15.2962963,7.26596034 L17.5185185,7.99592502 L18.2592593,7.26596034 L15.2962963,5.07606629 L15.2962963,5.07606629 Z" id="Fill-208" opacity="0.1" fill="#0A0B09" sketch:type="MSShapeGroup"></path>
        <path d="M9.37037037,3.25115458 C9.37037037,3.85702526 8.87407407,4.3461016 8.25925926,4.3461016 C7.64444444,4.3461016 7.14814815,3.85702526 7.14814815,3.25115458 C7.14814815,2.64528389 7.64444444,2.15620755 8.25925926,2.15620755 C8.87407407,2.15620755 9.37037037,2.64528389 9.37037037,3.25115458" id="Fill-209" opacity="0.1" fill="#0A0B09" sketch:type="MSShapeGroup"></path>
        <path d="M15.7777778,6.26596034 L15.7777778,7.7258897 L14.2962963,9.18581907 L12.8148148,9.18581907 L12.8148148,8.45585439 L14.2962963,8.45585439 L15.037037,7.7258897 L15.037037,6.26596034 L15.7777778,6.26596034" id="Fill-207" opacity="0.2" fill="#0A0B09" sketch:type="MSShapeGroup"></path>
        <path d="M8.37037037,7.7258897 L8.37037037,6.26596034 L10.4740741,6.95942679 L9.85185185,7.7258897 L8.37037037,7.7258897 L8.37037037,7.7258897 Z M14.2962963,4.07606629 L14.2962963,2.61613692 L12.8148148,4.07606629 L10.5925926,6.81343385 L10.5925926,6.26596034 L8.37037037,5.53599565 L8.37037037,4.80603097 L7.62962963,4.07606629 L6.88888889,4.07606629 L6.14814815,4.80603097 L6.14814815,7.7258897 L1.7037037,7.7258897 L0.962962963,8.45585439 L0.962962963,12.1056778 L1.7037037,12.1056778 L1.7037037,9.18581907 L2.44444444,8.45585439 L3.18518519,8.45585439 L2.44444444,9.91578375 L2.44444444,16.4854659 L3.18518519,17.2154306 L3.92592593,16.4854659 L3.92592593,12.1056778 L6.14814815,16.4854659 L6.88888889,17.2154306 L7.62962963,16.4854659 L5.40740741,11.3757131 L10.5925926,11.3757131 L10.5925926,16.4854659 L11.3333333,17.2154306 L12.0740741,16.4854659 L12.0740741,10.6457484 L14.2962963,6.26596034 L16.5185185,6.99592502 L17.2592593,6.26596034 L14.2962963,4.07606629 L14.2962963,4.07606629 Z" id="Fill-208" opacity="0.2" fill="#0A0B09" sketch:type="MSShapeGroup"></path>
        <path d="M8.37037037,2.25115458 C8.37037037,2.85702526 7.87407407,3.3461016 7.25925926,3.3461016 C6.64444444,3.3461016 6.14814815,2.85702526 6.14814815,2.25115458 C6.14814815,1.64528389 6.64444444,1.15620755 7.25925926,1.15620755 C7.87407407,1.15620755 8.37037037,1.64528389 8.37037037,2.25115458" id="Fill-209" opacity="0.2" fill="#0A0B09" sketch:type="MSShapeGroup"></path>
        <path d="M14.7777778,5.26596034 L14.7777778,6.7258897 L13.2962963,8.18581907 L11.8148148,8.18581907 L11.8148148,7.45585439 L13.2962963,7.45585439 L14.037037,6.7258897 L14.037037,5.26596034 L14.7777778,5.26596034" id="Fill-207" fill="#0A0B09" sketch:type="MSShapeGroup"></path>
        <path d="M7.37037037,6.7258897 L7.37037037,5.26596034 L9.47407407,5.95942679 L8.85185185,6.7258897 L7.37037037,6.7258897 L7.37037037,6.7258897 Z M13.2962963,3.07606629 L13.2962963,1.61613692 L11.8148148,3.07606629 L9.59259259,5.81343385 L9.59259259,5.26596034 L7.37037037,4.53599565 L7.37037037,3.80603097 L6.62962963,3.07606629 L5.88888889,3.07606629 L5.14814815,3.80603097 L5.14814815,6.7258897 L0.703703704,6.7258897 L-0.037037037,7.45585439 L-0.037037037,11.1056778 L0.703703704,11.1056778 L0.703703704,8.18581907 L1.44444444,7.45585439 L2.18518519,7.45585439 L1.44444444,8.91578375 L1.44444444,15.4854659 L2.18518519,16.2154306 L2.92592593,15.4854659 L2.92592593,11.1056778 L5.14814815,15.4854659 L5.88888889,16.2154306 L6.62962963,15.4854659 L4.40740741,10.3757131 L9.59259259,10.3757131 L9.59259259,15.4854659 L10.3333333,16.2154306 L11.0740741,15.4854659 L11.0740741,9.64574844 L13.2962963,5.26596034 L15.5185185,5.99592502 L16.2592593,5.26596034 L13.2962963,3.07606629 L13.2962963,3.07606629 Z" id="Fill-208" fill="#0A0B09" sketch:type="MSShapeGroup"></path>
        <path d="M7.37037037,1.25115458 C7.37037037,1.85702526 6.87407407,2.3461016 6.25925926,2.3461016 C5.64444444,2.3461016 5.14814815,1.85702526 5.14814815,1.25115458 C5.14814815,0.64528389 5.64444444,0.156207552 6.25925926,0.156207552 C6.87407407,0.156207552 7.37037037,0.64528389 7.37037037,1.25115458" id="Fill-209" fill="#0A0B09" sketch:type="MSShapeGroup"></path>
    </g>
</svg>