<?xml version="1.0" encoding="utf-8"?>
<!-- Generator: Adobe Illustrator 18.1.1, SVG Export Plug-In . SVG Version: 6.00 Build 0)  -->
<svg version="1.1" xmlns="http://www.w3.org/2000/svg" xmlns:xlink="http://www.w3.org/1999/xlink" x="0px" y="0px"
	 viewBox="0 0 12 12" enable-background="new 0 0 12 12" xml:space="preserve">
<g id="shadows">
	<g opacity="0.2">
		<rect x="5.3" y="1.5" width="1.1" height="1.1"/>
		<path d="M9.8,4.3V3.2L7.6,5.4H6.4V4.3l1.1,0.6V4.3L6.4,3.8V3.2H5.9H5.3v2.2H3.1v2.8h0.6v2.2h0.6V8.2h0.6l0.6,2.2h0.6L5.3,8.2V7.7
			h2.8v2.8h0.6V7.7L9,6.6h0.3h0.6h0.6V6V5.4h0.6V4.9L9.8,4.3z M3.6,6.6V6h0.6L3.6,6.6z M9.8,6H9.2H9.1l0.1-0.6h0.6V6z"/>
	</g>
</g>
<g id="icons">
	<g>
		<rect x="4.8" y="1" width="1.1" height="1.1"/>
		<path d="M9.3,3.8V2.7L7.1,4.9H5.9V3.8l1.1,0.6V3.8L5.9,3.2V2.7H5.4H4.8v2.2H2.6v2.8h0.6V10h0.6V7.8h0.6L4.8,10h0.6L4.8,7.8V7.2
			h2.8V10h0.6V7.2l0.3-1.1h0.3h0.6h0.6V5.5V4.9h0.6V4.4L9.3,3.8z M3.1,6.1V5.5h0.6L3.1,6.1z M9.3,5.5H8.8H8.6l0.1-0.6h0.6V5.5z"/>
	</g>
</g>
<g id="guides">
</g>
</svg>
