<?xml version="1.0" encoding="UTF-8" standalone="no"?>
<svg width="12px" height="12px" viewBox="0 0 12 12" version="1.1" xmlns="http://www.w3.org/2000/svg" xmlns:xlink="http://www.w3.org/1999/xlink" xmlns:sketch="http://www.bohemiancoding.com/sketch/ns">
    <!-- Generator: Sketch 3.2.2 (9983) - http://www.bohemiancoding.com/sketch -->
    <title>horseback-riding-white-12</title>
    <desc>Created with Sketch.</desc>
    <defs></defs>
    <g id="Page-1" stroke="none" stroke-width="1" fill="none" fill-rule="evenodd" sketch:type="MSPage">
        <path d="M4.82352941,2 L6.23529412,2 L6.23529412,3.42038567 L4.82352941,3.42038567 L4.82352941,2 Z" id="Fill-210" opacity="0.5" fill="#0A0B09" sketch:type="MSShapeGroup"></path>
        <path d="M10.4705882,7.6815427 L9.58823529,7.6815427 L9.76470588,6.97134986 L10.4705882,6.97134986 L10.4705882,7.6815427 L10.4705882,7.6815427 Z M2.70588235,8.39173554 L2.70588235,7.6815427 L3.41176471,7.6815427 L2.70588235,8.39173554 L2.70588235,8.39173554 Z M10.4705882,5.55096419 L10.4705882,4.13057851 L7.64705882,6.97134986 L6.23529412,6.97134986 L6.23529412,5.55096419 L7.64705882,6.26115702 L7.64705882,5.55096419 L6.23529412,4.84077135 L6.23529412,4.13057851 L4.82352941,4.13057851 L4.82352941,6.97134986 L2,6.97134986 L2,10.522314 L2.70588235,10.522314 L2.70588235,13.3630854 L3.41176471,13.3630854 L3.41176471,10.522314 L4.11764706,10.522314 L4.82352941,13.3630854 L5.52941176,13.3630854 L4.82352941,10.522314 L4.82352941,9.81212121 L8.35294118,9.81212121 L8.35294118,13.3630854 L9.05882353,13.3630854 L9.05882353,9.81212121 L9.41176471,8.39173554 L11.1764706,8.39173554 L11.1764706,6.97134986 L11.8823529,6.97134986 L11.8823529,6.26115702 L10.4705882,5.55096419 L10.4705882,5.55096419 Z" id="Fill-211" opacity="0.5" fill="#0A0B09" sketch:type="MSShapeGroup"></path>
        <path d="M3.82352941,1 L5.23529412,1 L5.23529412,2.42038567 L3.82352941,2.42038567 L3.82352941,1 Z" id="Fill-210" opacity="0.75" fill="#0A0B09" sketch:type="MSShapeGroup"></path>
        <path d="M9.47058824,6.6815427 L8.58823529,6.6815427 L8.76470588,5.97134986 L9.47058824,5.97134986 L9.47058824,6.6815427 L9.47058824,6.6815427 Z M1.70588235,7.39173554 L1.70588235,6.6815427 L2.41176471,6.6815427 L1.70588235,7.39173554 L1.70588235,7.39173554 Z M9.47058824,4.55096419 L9.47058824,3.13057851 L6.64705882,5.97134986 L5.23529412,5.97134986 L5.23529412,4.55096419 L6.64705882,5.26115702 L6.64705882,4.55096419 L5.23529412,3.84077135 L5.23529412,3.13057851 L3.82352941,3.13057851 L3.82352941,5.97134986 L1,5.97134986 L1,9.52231405 L1.70588235,9.52231405 L1.70588235,12.3630854 L2.41176471,12.3630854 L2.41176471,9.52231405 L3.11764706,9.52231405 L3.82352941,12.3630854 L4.52941176,12.3630854 L3.82352941,9.52231405 L3.82352941,8.81212121 L7.35294118,8.81212121 L7.35294118,12.3630854 L8.05882353,12.3630854 L8.05882353,8.81212121 L8.41176471,7.39173554 L10.1764706,7.39173554 L10.1764706,5.97134986 L10.8823529,5.97134986 L10.8823529,5.26115702 L9.47058824,4.55096419 L9.47058824,4.55096419 Z" id="Fill-211" opacity="0.75" fill="#0A0B09" sketch:type="MSShapeGroup"></path>
        <path d="M2.82352941,0 L4.23529412,0 L4.23529412,1.42038567 L2.82352941,1.42038567 L2.82352941,0 Z" id="Fill-210" fill="#FFFFFF" sketch:type="MSShapeGroup"></path>
        <path d="M8.47058824,5.6815427 L7.58823529,5.6815427 L7.76470588,4.97134986 L8.47058824,4.97134986 L8.47058824,5.6815427 L8.47058824,5.6815427 Z M0.705882353,6.39173554 L0.705882353,5.6815427 L1.41176471,5.6815427 L0.705882353,6.39173554 L0.705882353,6.39173554 Z M8.47058824,3.55096419 L8.47058824,2.13057851 L5.64705882,4.97134986 L4.23529412,4.97134986 L4.23529412,3.55096419 L5.64705882,4.26115702 L5.64705882,3.55096419 L4.23529412,2.84077135 L4.23529412,2.13057851 L2.82352941,2.13057851 L2.82352941,4.97134986 L0,4.97134986 L0,8.52231405 L0.705882353,8.52231405 L0.705882353,11.3630854 L1.41176471,11.3630854 L1.41176471,8.52231405 L2.11764706,8.52231405 L2.82352941,11.3630854 L3.52941176,11.3630854 L2.82352941,8.52231405 L2.82352941,7.81212121 L6.35294118,7.81212121 L6.35294118,11.3630854 L7.05882353,11.3630854 L7.05882353,7.81212121 L7.41176471,6.39173554 L9.17647059,6.39173554 L9.17647059,4.97134986 L9.88235294,4.97134986 L9.88235294,4.26115702 L8.47058824,3.55096419 L8.47058824,3.55096419 Z" id="Fill-211" fill="#FFFFFF" sketch:type="MSShapeGroup"></path>
    </g>
</svg>