<?xml version="1.0" encoding="UTF-8" standalone="no"?>
<svg width="12px" height="12px" viewBox="0 0 12 12" version="1.1" xmlns="http://www.w3.org/2000/svg" xmlns:xlink="http://www.w3.org/1999/xlink" xmlns:sketch="http://www.bohemiancoding.com/sketch/ns">
    <!-- Generator: Sketch 3.2.2 (9983) - http://www.bohemiancoding.com/sketch -->
    <title>hospital-black-12</title>
    <desc>Created with Sketch.</desc>
    <defs></defs>
    <g id="Page-1" stroke="none" stroke-width="1" fill="none" fill-rule="evenodd" sketch:type="MSPage">
        <path d="M8.42550588,2 L8.42550588,5.55096419 L4.19021176,5.55096419 L4.19021176,2 L2.07256471,2 L2.07256471,11.9426997 L4.19021176,11.9426997 L4.19021176,7.6815427 L8.42550588,7.6815427 L8.42550588,11.9426997 L10.5431529,11.9426997 L10.5431529,2 L8.42550588,2" id="Fill-222" opacity="0.1" fill="#000000" sketch:type="MSShapeGroup"></path>
        <path d="M7.42550588,1 L7.42550588,4.55096419 L3.19021176,4.55096419 L3.19021176,1 L1.07256471,1 L1.07256471,10.9426997 L3.19021176,10.9426997 L3.19021176,6.6815427 L7.42550588,6.6815427 L7.42550588,10.9426997 L9.54315294,10.9426997 L9.54315294,1 L7.42550588,1" id="Fill-222" opacity="0.2" fill="#000000" sketch:type="MSShapeGroup"></path>
        <path d="M6.42550588,0 L6.42550588,3.55096419 L2.19021176,3.55096419 L2.19021176,0 L0.0725647059,0 L0.0725647059,9.94269972 L2.19021176,9.94269972 L2.19021176,5.6815427 L6.42550588,5.6815427 L6.42550588,9.94269972 L8.54315294,9.94269972 L8.54315294,0 L6.42550588,0" id="Fill-222" fill="#0A0B09" sketch:type="MSShapeGroup"></path>
    </g>
</svg>