<?xml version="1.0" encoding="UTF-8" standalone="no"?>
<svg width="18px" height="18px" viewBox="0 0 18 18" version="1.1" xmlns="http://www.w3.org/2000/svg" xmlns:xlink="http://www.w3.org/1999/xlink" xmlns:sketch="http://www.bohemiancoding.com/sketch/ns">
    <!-- Generator: Sketch 3.2.2 (9983) - http://www.bohemiancoding.com/sketch -->
    <title>hospital-white-18</title>
    <desc>Created with Sketch.</desc>
    <defs></defs>
    <g id="Page-1" stroke="none" stroke-width="1" fill="none" fill-rule="evenodd" sketch:type="MSPage">
        <path d="M5.7037037,2.03526867 L2,2.03526867 L2,18.0944917 L5.7037037,18.0944917 L5.7037037,10.7948449 L12.3703704,10.7948449 L12.3703704,18.0944917 L16.0740741,18.0944917 L16.0740741,2.03526867 L12.3703704,2.03526867 L12.3703704,7.14502146 L5.7037037,7.14502146 L5.7037037,2.03526867" id="Fill-221" opacity="0.5" fill="#000000" sketch:type="MSShapeGroup"></path>
        <path d="M4.7037037,1.03526867 L1,1.03526867 L1,17.0944917 L4.7037037,17.0944917 L4.7037037,9.79484488 L11.3703704,9.79484488 L11.3703704,17.0944917 L15.0740741,17.0944917 L15.0740741,1.03526867 L11.3703704,1.03526867 L11.3703704,6.14502146 L4.7037037,6.14502146 L4.7037037,1.03526867" id="Fill-221" opacity="0.75" fill="#000000" sketch:type="MSShapeGroup"></path>
        <path d="M3.7037037,0.0352686743 L0,0.0352686743 L0,16.0944917 L3.7037037,16.0944917 L3.7037037,8.79484488 L10.3703704,8.79484488 L10.3703704,16.0944917 L14.0740741,16.0944917 L14.0740741,0.0352686743 L10.3703704,0.0352686743 L10.3703704,5.14502146 L3.7037037,5.14502146 L3.7037037,0.0352686743" id="Fill-221" fill="#FFFFFF" sketch:type="MSShapeGroup"></path>
    </g>
</svg>