<?xml version="1.0" encoding="UTF-8" standalone="no"?>
<!-- Created with Inkscape (http://www.inkscape.org/) -->

<svg
   xmlns:dc="http://purl.org/dc/elements/1.1/"
   xmlns:cc="http://creativecommons.org/ns#"
   xmlns:rdf="http://www.w3.org/1999/02/22-rdf-syntax-ns#"
   xmlns:svg="http://www.w3.org/2000/svg"
   xmlns="http://www.w3.org/2000/svg"
   xmlns:sodipodi="http://sodipodi.sourceforge.net/DTD/sodipodi-0.dtd"
   xmlns:inkscape="http://www.inkscape.org/namespaces/inkscape"
   width="24"
   height="24"
   id="svg27577"
   version="1.1"
   inkscape:version="0.48.2 r9819"
   sodipodi:docname="horseback-riding-white-24.svg">
  <defs
     id="defs27579" />
  <sodipodi:namedview
     id="base"
     pagecolor="#ffffff"
     bordercolor="#666666"
     borderopacity="1.0"
     inkscape:pageopacity="0.0"
     inkscape:pageshadow="2"
     inkscape:zoom="8.61"
     inkscape:cx="15.081873"
     inkscape:cy="12.396761"
     inkscape:document-units="px"
     inkscape:current-layer="layer1"
     showgrid="false"
     inkscape:window-width="564"
     inkscape:window-height="454"
     inkscape:window-x="3879"
     inkscape:window-y="629"
     inkscape:window-maximized="0">
    <inkscape:grid
       type="xygrid"
       id="grid2986" />
  </sodipodi:namedview>
  <metadata
     id="metadata27582">
    <rdf:RDF>
      <cc:Work
         rdf:about="">
        <dc:format>image/svg+xml</dc:format>
        <dc:type
           rdf:resource="http://purl.org/dc/dcmitype/StillImage" />
        <dc:title></dc:title>
      </cc:Work>
    </rdf:RDF>
  </metadata>
  <g
     inkscape:label="Layer 1"
     inkscape:groupmode="layer"
     id="layer1"
     transform="translate(0,-1028.3622)">
    <g
       transform="matrix(2,0,0,2,-724.81718,864.84325)"
       id="g14864">
      <path
         d="m 363.81223,82.00242 c -0.65536,0 -1.18716,0.53301 -1.18716,1.187159 v 9.112053 c 0,0.656572 0.53301,1.188371 1.18716,1.188371 h 9.11084 c 0.65536,0 1.18716,-0.533011 1.18716,-1.188371 v -9.112053 c 0,-0.65536 -0.53301,-1.187159 -1.18716,-1.187159 h -9.11084 z"
         id="path14866"
         inkscape:connector-curvature="0"
         style="opacity:0;fill:#ffffff" />
      <path
         d="m 372.9473,93.735914 c 0.79104,0 1.43428,-0.640824 1.43428,-1.434282 v -9.132647 c 0,-0.789824 -0.64203,-1.434282 -1.43428,-1.434282 h -9.13143 c -0.79225,0 -1.43429,0.643247 -1.43429,1.434282 v 9.132647 c 0,0.792247 0.64083,1.434282 1.43429,1.434282 h 9.13143 z"
         id="path14868"
         inkscape:connector-curvature="0"
         style="opacity:0;fill:#0088cc" />
      <polygon
         transform="matrix(1.211387,0,0,1.211387,336.77044,-301.94669)"
         style="opacity:0.6;fill:none;stroke:#1d1d1c;stroke-width:0.5;stroke-miterlimit:10;stroke-opacity:1;stroke-dasharray:none"
         id="polygon14870"
         points="24.777,324.769 24.777,322.024 27.431,322.024 27.431,324.769 28.76,324.769 28.76,318.599 27.431,318.599 27.431,320.698 24.777,320.698 24.777,318.599 23.449,318.599 23.449,324.769 " />
      <polygon
         transform="matrix(1.211387,0,0,1.211387,336.77044,-301.94669)"
         points="24.777,324.769 24.777,322.024 27.431,322.024 27.431,324.769 28.76,324.769 28.76,318.599 27.431,318.599 27.431,320.698 24.777,320.698 24.777,318.599 23.449,318.599 23.449,324.769 "
         id="polygon14872"
         style="fill:#ffffff;fill-opacity:1" />
    </g>
  </g>
</svg>
