<?xml version="1.0" encoding="UTF-8" standalone="no"?>
<!-- Created with Inkscape (http://www.inkscape.org/) -->

<svg
   xmlns:dc="http://purl.org/dc/elements/1.1/"
   xmlns:cc="http://creativecommons.org/ns#"
   xmlns:rdf="http://www.w3.org/1999/02/22-rdf-syntax-ns#"
   xmlns:svg="http://www.w3.org/2000/svg"
   xmlns="http://www.w3.org/2000/svg"
   xmlns:sodipodi="http://sodipodi.sourceforge.net/DTD/sodipodi-0.dtd"
   xmlns:inkscape="http://www.inkscape.org/namespaces/inkscape"
   width="18"
   height="18"
   id="svg27435"
   version="1.1"
   inkscape:version="0.48.2 r9819"
   sodipodi:docname="horseback-riding-black-18.svg">
  <defs
     id="defs27437" />
  <sodipodi:namedview
     id="base"
     pagecolor="#ffa6ff"
     bordercolor="#666666"
     borderopacity="1.0"
     inkscape:pageopacity="0"
     inkscape:pageshadow="2"
     inkscape:zoom="7.9891803"
     inkscape:cx="12.590799"
     inkscape:cy="8.9588378"
     inkscape:document-units="px"
     inkscape:current-layer="layer1"
     showgrid="false"
     inkscape:window-width="483"
     inkscape:window-height="454"
     inkscape:window-x="3161"
     inkscape:window-y="149"
     inkscape:window-maximized="0">
    <inkscape:grid
       type="xygrid"
       id="grid2986" />
  </sodipodi:namedview>
  <metadata
     id="metadata27440">
    <rdf:RDF>
      <cc:Work
         rdf:about="">
        <dc:format>image/svg+xml</dc:format>
        <dc:type
           rdf:resource="http://purl.org/dc/dcmitype/StillImage" />
        <dc:title></dc:title>
      </cc:Work>
    </rdf:RDF>
  </metadata>
  <g
     inkscape:label="Layer 1"
     inkscape:groupmode="layer"
     id="layer1"
     transform="translate(0,-1034.3622)">
    <g
       transform="matrix(1.8170806,0,0,1.8170806,-38.404529,458.82698)"
       id="g14834">
      <path
         d="m 22.323,316.95 c -0.541,0 -0.98,0.44 -0.98,0.98 v 7.522 c 0,0.542 0.44,0.981 0.98,0.981 h 7.521 c 0.541,0 0.98,-0.44 0.98,-0.981 v -7.522 c 0,-0.541 -0.44,-0.98 -0.98,-0.98 h -7.521 z"
         id="path14836"
         inkscape:connector-curvature="0"
         style="opacity:0;fill:#ffffff" />
      <path
         d="m 29.864,326.636 c 0.653,0 1.184,-0.529 1.184,-1.184 v -7.539 c 0,-0.652 -0.53,-1.184 -1.184,-1.184 h -7.538 c -0.654,0 -1.184,0.531 -1.184,1.184 v 7.539 c 0,0.654 0.529,1.184 1.184,1.184 h 7.538 z"
         id="path14838"
         inkscape:connector-curvature="0"
         style="opacity:0;fill:#0088cc" />
      <polygon
         style="opacity:0.6;fill:none;stroke:#ffffff;stroke-width:0.5;stroke-miterlimit:10;stroke-opacity:1;stroke-dasharray:none"
         id="polygon14840"
         points="24.777,320.698 24.777,318.599 23.449,318.599 23.449,324.769 24.777,324.769 24.777,322.024 27.431,322.024 27.431,324.769 28.76,324.769 28.76,318.599 27.431,318.599 27.431,320.698 " />
      <polygon
         points="24.777,320.698 24.777,318.599 23.449,318.599 23.449,324.769 24.777,324.769 24.777,322.024 27.431,322.024 27.431,324.769 28.76,324.769 28.76,318.599 27.431,318.599 27.431,320.698 "
         id="polygon14842"
         style="fill:#1d1d1c;fill-opacity:1" />
    </g>
  </g>
</svg>
