<?xml version="1.0" encoding="utf-8"?>
<!-- Generator: Adobe Illustrator 18.0.0, SVG Export Plug-In . SVG Version: 6.00 Build 0)  -->
<!DOCTYPE svg PUBLIC "-//W3C//DTD SVG 1.1//EN" "http://www.w3.org/Graphics/SVG/1.1/DTD/svg11.dtd" [
	<!ENTITY ns_flows "http://ns.adobe.com/Flows/1.0/">
	<!ENTITY ns_extend "http://ns.adobe.com/Extensibility/1.0/">
	<!ENTITY ns_ai "http://ns.adobe.com/AdobeIllustrator/10.0/">
	<!ENTITY ns_graphs "http://ns.adobe.com/Graphs/1.0/">
	<!ENTITY st0 "opacity:0.1;">
	<!ENTITY st1 "fill:#010101;">
	<!ENTITY st2 "opacity:0.2;">
	<!ENTITY st3 "fill:#0599CE;">
]>
<svg version="1.1" id="Layer_1" xmlns:x="&ns_extend;" xmlns:i="&ns_ai;" xmlns:graph="&ns_graphs;"
	 xmlns="http://www.w3.org/2000/svg" xmlns:xlink="http://www.w3.org/1999/xlink" xmlns:a="http://ns.adobe.com/AdobeSVGViewerExtensions/3.0/"
	 x="0px" y="0px" width="21px" height="24px" viewBox="0 0 21 24" style="enable-background:new 0 0 21 24;" xml:space="preserve">
<g style="&st0;">
	<polygon style="&st1;" points="7,2 2,2 2,24 7,24 7,14 16,14 16,24 21,24 21,2 16,2 16,9 7,9 	"/>
</g>
<g style="&st2;">
	<polygon style="&st1;" points="6,1 1,1 1,23 6,23 6,13 15,13 15,23 20,23 20,1 15,1 15,8 6,8 	"/>
</g>
<g>
	<polygon style="&st3;" points="5,0 0,0 0,22 5,22 5,12 14,12 14,22 19,22 19,0 14,0 14,7 5,7 	"/>
</g>
</svg>
