<?xml version="1.0" encoding="UTF-8" standalone="no"?>
<!-- Created with Inkscape (http://www.inkscape.org/) -->

<svg
   xmlns:dc="http://purl.org/dc/elements/1.1/"
   xmlns:cc="http://creativecommons.org/ns#"
   xmlns:rdf="http://www.w3.org/1999/02/22-rdf-syntax-ns#"
   xmlns:svg="http://www.w3.org/2000/svg"
   xmlns="http://www.w3.org/2000/svg"
   xmlns:sodipodi="http://sodipodi.sourceforge.net/DTD/sodipodi-0.dtd"
   xmlns:inkscape="http://www.inkscape.org/namespaces/inkscape"
   width="12"
   height="12"
   id="svg27703"
   version="1.1"
   inkscape:version="0.48.2 r9819"
   sodipodi:docname="horseback-riding-white-12.svg">
  <defs
     id="defs27705" />
  <sodipodi:namedview
     id="base"
     pagecolor="#ffffff"
     bordercolor="#666666"
     borderopacity="1.0"
     inkscape:pageopacity="0.0"
     inkscape:pageshadow="2"
     inkscape:zoom="11.666125"
     inkscape:cx="5.4537757"
     inkscape:cy="7.1874659"
     inkscape:document-units="px"
     inkscape:current-layer="layer1"
     showgrid="false"
     inkscape:window-width="483"
     inkscape:window-height="454"
     inkscape:window-x="2633"
     inkscape:window-y="651"
     inkscape:window-maximized="0">
    <inkscape:grid
       type="xygrid"
       id="grid2987" />
  </sodipodi:namedview>
  <metadata
     id="metadata27708">
    <rdf:RDF>
      <cc:Work
         rdf:about="">
        <dc:format>image/svg+xml</dc:format>
        <dc:type
           rdf:resource="http://purl.org/dc/dcmitype/StillImage" />
        <dc:title></dc:title>
      </cc:Work>
    </rdf:RDF>
  </metadata>
  <g
     inkscape:label="Layer 1"
     inkscape:groupmode="layer"
     id="layer1"
     transform="translate(0,-1040.3622)">
    <path
       style="opacity:0;fill:#ffffff"
       inkscape:connector-curvature="0"
       id="path27571"
       d="m 1.1971166,1040.265 c -0.68347218,0 -1.23910978,0.5569 -1.23910978,1.2404 v 9.5192 c 0,0.686 0.5556376,1.2417 1.23910978,1.2417 h 9.5192494 c 0.686003,0 1.241641,-0.5569 1.241641,-1.2417 v -9.5192 c 0,-0.6848 -0.556903,-1.2404 -1.241641,-1.2404 H 1.1971166 z" />
    <g
       transform="translate(-362.3813,958.62661)"
       id="g14828">
      <path
         d="m 363.81223,82.00242 c -0.65536,0 -1.18716,0.53301 -1.18716,1.187159 v 9.112053 c 0,0.656572 0.53301,1.188371 1.18716,1.188371 h 9.11084 c 0.65536,0 1.18716,-0.533011 1.18716,-1.188371 v -9.112053 c 0,-0.65536 -0.53301,-1.187159 -1.18716,-1.187159 h -9.11084 z"
         id="path14816"
         inkscape:connector-curvature="0"
         style="opacity:0;fill:#ffffff" />
      <path
         d="m 372.9473,93.735914 c 0.79104,0 1.43428,-0.640824 1.43428,-1.434282 v -9.132647 c 0,-0.789824 -0.64203,-1.434282 -1.43428,-1.434282 h -9.13143 c -0.79225,0 -1.43429,0.643247 -1.43429,1.434282 v 9.132647 c 0,0.792247 0.64083,1.434282 1.43429,1.434282 h 9.13143 z"
         id="path14818"
         inkscape:connector-curvature="0"
         style="opacity:0;fill:#0088cc" />
      <polygon
         transform="matrix(1.211387,0,0,1.211387,336.77044,-301.94669)"
         style="opacity:0.6;fill:none;stroke:#1d1d1c;stroke-width:0.5;stroke-miterlimit:10;stroke-opacity:1;stroke-dasharray:none"
         id="polygon14820"
         points="24.777,320.698 24.777,318.599 23.449,318.599 23.449,324.769 24.777,324.769 24.777,322.024 27.431,322.024 27.431,324.769 28.76,324.769 28.76,318.599 27.431,318.599 27.431,320.698 " />
      <polygon
         transform="matrix(1.211387,0,0,1.211387,336.77044,-301.94669)"
         points="24.777,320.698 24.777,318.599 23.449,318.599 23.449,324.769 24.777,324.769 24.777,322.024 27.431,322.024 27.431,324.769 28.76,324.769 28.76,318.599 27.431,318.599 27.431,320.698 "
         id="polygon14822"
         style="fill:#ffffff;fill-opacity:1" />
    </g>
  </g>
</svg>
