<?xml version="1.0" encoding="UTF-8" standalone="no"?>
<!-- Created with Inkscape (http://www.inkscape.org/) -->

<svg
   xmlns:dc="http://purl.org/dc/elements/1.1/"
   xmlns:cc="http://creativecommons.org/ns#"
   xmlns:rdf="http://www.w3.org/1999/02/22-rdf-syntax-ns#"
   xmlns:svg="http://www.w3.org/2000/svg"
   xmlns="http://www.w3.org/2000/svg"
   xmlns:sodipodi="http://sodipodi.sourceforge.net/DTD/sodipodi-0.dtd"
   xmlns:inkscape="http://www.inkscape.org/namespaces/inkscape"
   width="24"
   height="24"
   id="svg27349"
   version="1.1"
   inkscape:version="0.48.2 r9819"
   sodipodi:docname="4-wheel-drive-black-24.svg">
  <defs
     id="defs27351" />
  <sodipodi:namedview
     id="base"
     pagecolor="#ffffff"
     bordercolor="#666666"
     borderopacity="1.0"
     inkscape:pageopacity="0.0"
     inkscape:pageshadow="2"
     inkscape:zoom="8.6123905"
     inkscape:cx="11.808263"
     inkscape:cy="10.533919"
     inkscape:document-units="px"
     inkscape:current-layer="layer1"
     showgrid="false"
     inkscape:window-width="483"
     inkscape:window-height="454"
     inkscape:window-x="3648"
     inkscape:window-y="148"
     inkscape:window-maximized="0"
     gridtolerance="10">
    <inkscape:grid
       type="xygrid"
       id="grid3004"
       empspacing="5"
       visible="true"
       enabled="true"
       snapvisiblegridlinesonly="true" />
  </sodipodi:namedview>
  <metadata
     id="metadata27354">
    <rdf:RDF>
      <cc:Work
         rdf:about="">
        <dc:format>image/svg+xml</dc:format>
        <dc:type
           rdf:resource="http://purl.org/dc/dcmitype/StillImage" />
        <dc:title></dc:title>
      </cc:Work>
    </rdf:RDF>
  </metadata>
  <g
     inkscape:label="Layer 1"
     inkscape:groupmode="layer"
     id="layer1"
     transform="translate(0,-1028.3622)">
    <g
       id="g14115"
       transform="matrix(2.4284124,0,0,2.4284124,-50.111921,228.54723)">
      <path
         d="m 29.321,339.21 c 0.652,0 1.181,-0.529 1.181,-1.182 v -7.522 c 0,-0.652 -0.528,-1.181 -1.181,-1.181 H 21.8 c -0.652,0 -1.181,0.529 -1.181,1.181 v 7.522 c 0,0.652 0.528,1.182 1.181,1.182 h 7.521 z"
         id="path14117"
         inkscape:connector-curvature="0"
         style="opacity:0;fill:#ffeded;fill-opacity:1" />
      <g
         style="opacity:0.6;fill:none;stroke:#ffffff;stroke-width:0.5;stroke-miterlimit:4;stroke-opacity:1;stroke-dasharray:none"
         id="g14119">
        <circle
           cx="28.188"
           cy="331.16901"
           r="0.69400001"
           id="circle14121"
           sodipodi:cx="28.188"
           sodipodi:cy="331.16901"
           sodipodi:rx="0.69400001"
           sodipodi:ry="0.69400001"
           style="fill:none;stroke:#ffffff;stroke-width:0.5;stroke-miterlimit:4;stroke-opacity:1;stroke-dasharray:none"
           d="m 28.882,331.16901 c 0,0.38328 -0.310715,0.694 -0.694,0.694 -0.383286,0 -0.694,-0.31072 -0.694,-0.694 0,-0.38329 0.310714,-0.694 0.694,-0.694 0.383285,0 0.694,0.31071 0.694,0.694 z" />
        <path
           d="m 26.216,337.785 h 1.793 c 0,0 0.136,0.014 0.136,-0.128 v -0.142 h 0.265 c 0,0 0.061,0.485 -0.301,0.531 h -1.893 v -0.261 z"
           id="path14124"
           inkscape:connector-curvature="0"
           style="fill:none;stroke:#ffffff;stroke-width:0.5;stroke-miterlimit:4;stroke-opacity:1;stroke-dasharray:none" />
        <path
           d="m 21.743,336.398 1.269,1.268 c 0,0 0.085,0.104 0.186,0.005 l 0.101,-0.101 0.187,0.188 c 0,0 -0.301,0.387 -0.589,0.164 l -1.337,-1.338 0.183,-0.186 z"
           id="path14126"
           inkscape:connector-curvature="0"
           style="fill:none;stroke:#ffffff;stroke-width:0.5;stroke-miterlimit:4;stroke-opacity:1;stroke-dasharray:none" />
        <path
           d="m 26.638,335.957 0.002,1.257 c 0,0.236 0.191,0.428 0.429,0.428 0.216,0 0.427,-0.25 0.427,-0.428 v -1.749 c 0,-0.122 -0.051,-0.232 -0.133,-0.311 l -1.026,-1.023 1.361,-1.361 c 0.256,-0.319 0.121,-0.702 0.121,-0.702 -0.142,-0.425 -0.623,-0.439 -0.623,-0.439 l -3.509,-0.001 c -0.187,0 -0.339,0.151 -0.339,0.339 0,0.188 0.152,0.339 0.339,0.339 l 2.423,0.004 -1.021,1.016 c -0.146,0.149 -0.22,0.317 -0.22,0.537 0,0.211 0.084,0.399 0.224,0.537 l 1.545,1.557 z"
           id="path14129"
           inkscape:connector-curvature="0"
           style="fill:none;stroke:#ffffff;stroke-width:0.5;stroke-miterlimit:4;stroke-opacity:1;stroke-dasharray:none" />
        <path
           d="m 24.876,334.59 c -0.032,-0.031 -0.062,-0.065 -0.089,-0.102 l -2.024,2.028 c -0.153,0.123 -0.203,0.34 -0.111,0.521 0.105,0.207 0.36,0.289 0.567,0.183 0.028,-0.015 0.054,-0.032 0.078,-0.052 l 2.078,-2.081 -0.499,-0.497 z"
           id="path14132"
           inkscape:connector-curvature="0"
           style="fill:none;stroke:#ffffff;stroke-width:0.5;stroke-miterlimit:4;stroke-opacity:1;stroke-dasharray:none" />
      </g>
      <g
         id="g14134">
        <circle
           style="fill:#272525"
           sodipodi:ry="0.69400001"
           sodipodi:rx="0.69400001"
           sodipodi:cy="331.16901"
           sodipodi:cx="28.188"
           id="circle14136"
           r="0.69400001"
           cy="331.16901"
           cx="28.188"
           d="m 28.882,331.16901 c 0,0.38328 -0.310715,0.694 -0.694,0.694 -0.383286,0 -0.694,-0.31072 -0.694,-0.694 0,-0.38329 0.310714,-0.694 0.694,-0.694 0.383285,0 0.694,0.31071 0.694,0.694 z" />
        <path
           style="fill:#272525"
           inkscape:connector-curvature="0"
           id="path14138"
           d="m 26.216,337.785 h 1.793 c 0,0 0.136,0.014 0.136,-0.128 v -0.142 h 0.265 c 0,0 0.061,0.485 -0.301,0.531 h -1.893 v -0.261 z" />
        <path
           style="fill:#272525"
           inkscape:connector-curvature="0"
           id="path14141"
           d="m 21.743,336.398 1.269,1.268 c 0,0 0.085,0.104 0.186,0.005 l 0.101,-0.101 0.187,0.188 c 0,0 -0.301,0.387 -0.589,0.164 l -1.337,-1.338 0.183,-0.186 z" />
        <path
           style="fill:#272525"
           inkscape:connector-curvature="0"
           id="path14143"
           d="m 26.638,335.957 0.002,1.257 c 0,0.236 0.191,0.428 0.429,0.428 0.216,0 0.427,-0.25 0.427,-0.428 v -1.749 c 0,-0.122 -0.051,-0.232 -0.133,-0.311 l -1.026,-1.023 1.361,-1.361 c 0.256,-0.319 0.121,-0.702 0.121,-0.702 -0.142,-0.425 -0.623,-0.439 -0.623,-0.439 l -3.509,-0.001 c -0.187,0 -0.339,0.151 -0.339,0.339 0,0.188 0.152,0.339 0.339,0.339 l 2.423,0.004 -1.021,1.016 c -0.146,0.149 -0.22,0.317 -0.22,0.537 0,0.211 0.084,0.399 0.224,0.537 l 1.545,1.557 z" />
        <path
           style="fill:#272525"
           inkscape:connector-curvature="0"
           id="path14145"
           d="m 24.876,334.59 c -0.032,-0.031 -0.062,-0.065 -0.089,-0.102 l -2.024,2.028 c -0.153,0.123 -0.203,0.34 -0.111,0.521 0.105,0.207 0.36,0.289 0.567,0.183 0.028,-0.015 0.054,-0.032 0.078,-0.052 l 2.078,-2.081 -0.499,-0.497 z" />
      </g>
    </g>
  </g>
</svg>
