<?xml version="1.0" encoding="utf-8"?>
<!-- Generator: Adobe Illustrator 18.1.1, SVG Export Plug-In . SVG Version: 6.00 Build 0)  -->
<svg version="1.1" xmlns="http://www.w3.org/2000/svg" xmlns:xlink="http://www.w3.org/1999/xlink" x="0px" y="0px"
	 viewBox="0 0 12 12" enable-background="new 0 0 12 12" xml:space="preserve">
<g id="shadows">
	<g opacity="0.2">
		<polygon points="2.8,8.6 2.1,8.6 1.5,8.6 1.5,9.2 2.1,9.2 2.1,9.5 2.8,9.5 2.8,10.2 3.4,10.2 3.4,10.5 4.1,10.5 4.7,10.5 4.7,9.9 
			4.1,9.9 3.4,9.9 3.4,9.2 2.8,9.2 		"/>
		<polygon points="8.6,5.4 8.6,4.7 9.2,4.7 9.2,3.4 8.6,3.4 8.6,2.8 7.9,2.8 7.3,2.8 4.1,2.8 4.1,3.8 7.3,3.8 7.3,4.1 6.6,4.1 
			6.6,4.7 6,4.7 6,6 6.6,6 6.6,6.6 7.3,6.6 7.3,7.3 7.9,7.3 7.9,7.9 7.9,9.9 7.3,9.9 7.3,10.5 10.5,10.5 10.5,9.9 9.2,9.9 9.2,7.3 
			9.2,6.6 8.6,6.6 8.6,6 7.9,6 7.9,5.4 		"/>
		<polygon points="6,6 5.4,6 5.4,6.6 4.7,6.6 4.7,7.3 4.1,7.3 4.1,7.9 3.4,7.9 3.4,8.6 3.4,9.2 4,9.2 4.2,9.2 4.7,9.2 4.7,8.6 
			5.4,8.6 5.4,7.9 6,7.9 6,7.3 6.6,7.3 6.6,6.6 6,6.6 		"/>
		<polygon points="9.2,3.4 9.9,3.4 9.9,2.8 10.5,2.8 10.5,2.1 9.9,2.1 9.9,1.5 9.2,1.5 9.2,2.1 8.6,2.1 8.6,2.8 9.2,2.8 		"/>
	</g>
</g>
<g id="icons">
	<g>
		<polygon fill="#FFFFFF" points="2.3,8.1 1.6,8.1 1,8.1 1,8.7 1.6,8.7 1.6,9 2.3,9 2.3,9.7 2.9,9.7 2.9,10 3.6,10 4.2,10 4.2,9.4 
			3.6,9.4 2.9,9.4 2.9,8.7 2.3,8.7 		"/>
		<polygon fill="#FFFFFF" points="8.1,4.9 8.1,4.2 8.7,4.2 8.7,2.9 8.1,2.9 8.1,2.3 7.4,2.3 6.8,2.3 3.6,2.3 3.6,3.2 6.8,3.2 
			6.8,3.6 6.1,3.6 6.1,4.2 5.5,4.2 5.5,5.5 6.1,5.5 6.1,6.1 6.8,6.1 6.8,6.8 7.4,6.8 7.4,7.4 7.4,9.4 6.8,9.4 6.8,10 10,10 10,9.4 
			8.7,9.4 8.7,6.8 8.7,6.1 8.1,6.1 8.1,5.5 7.4,5.5 7.4,4.9 		"/>
		<polygon fill="#FFFFFF" points="5.5,5.5 4.9,5.5 4.9,6.1 4.2,6.1 4.2,6.8 3.6,6.8 3.6,7.4 2.9,7.4 2.9,8.1 2.9,8.7 3.5,8.7 
			3.7,8.7 4.2,8.7 4.2,8.1 4.9,8.1 4.9,7.4 5.5,7.4 5.5,6.8 6.1,6.8 6.1,6.1 5.5,6.1 		"/>
		<polygon fill="#FFFFFF" points="8.7,2.9 9.4,2.9 9.4,2.3 10,2.3 10,1.6 9.4,1.6 9.4,1 8.7,1 8.7,1.6 8.1,1.6 8.1,2.3 8.7,2.3 		
			"/>
	</g>
</g>
<g id="guides">
</g>
</svg>
