<?xml version="1.0" encoding="UTF-8" standalone="no"?>
<svg width="18px" height="18px" viewBox="0 0 18 18" version="1.1" xmlns="http://www.w3.org/2000/svg" xmlns:xlink="http://www.w3.org/1999/xlink" xmlns:sketch="http://www.bohemiancoding.com/sketch/ns">
    <!-- Generator: Sketch 3.2.2 (9983) - http://www.bohemiancoding.com/sketch -->
    <title>ice-skating-black-18</title>
    <desc>Created with Sketch.</desc>
    <defs></defs>
    <g id="Page-1" stroke="none" stroke-width="1" fill="none" fill-rule="evenodd" sketch:type="MSPage">
        <g id="Group" sketch:type="MSLayerGroup" transform="translate(2.000000, 2.425156)" fill="#0A0B09" opacity="0.1">
            <path d="M0.342245989,12.3636364 L1.06951872,12.3636364 L1.06951872,13.8181818 L0.342245989,13.8181818 L0.342245989,12.3636364 Z" id="Fill-229" sketch:type="MSShapeGroup"></path>
            <path d="M1.06951872,13.8181818 L1.79679144,13.8181818 L1.79679144,14.5454545 L1.06951872,14.5454545 L1.06951872,13.8181818 Z" id="Fill-230" sketch:type="MSShapeGroup"></path>
            <path d="M1.79679144,14.5454545 L2.52406417,14.5454545 L2.52406417,15.2727273 L1.79679144,15.2727273 L1.79679144,14.5454545 Z" id="Fill-231" sketch:type="MSShapeGroup"></path>
            <path d="M2.52406417,15.2727273 L3.2513369,15.2727273 L3.2513369,16 L2.52406417,16 L2.52406417,15.2727273 Z" id="Fill-232" sketch:type="MSShapeGroup"></path>
            <path d="M1.06951872,13.0909091 L1.79679144,13.0909091 L1.79679144,13.8181818 L1.06951872,13.8181818 L1.06951872,13.0909091 Z" id="Fill-233" sketch:type="MSShapeGroup"></path>
            <path d="M1.79679144,13.8181818 L2.52406417,13.8181818 L2.52406417,14.5454545 L1.79679144,14.5454545 L1.79679144,13.8181818 Z" id="Fill-234" sketch:type="MSShapeGroup"></path>
            <path d="M2.52406417,14.5454545 L3.2513369,14.5454545 L3.2513369,15.2727273 L2.52406417,15.2727273 L2.52406417,14.5454545 Z" id="Fill-235" sketch:type="MSShapeGroup"></path>
            <path d="M3.2513369,15.2727273 L4.70588235,15.2727273 L4.70588235,16 L3.2513369,16 L3.2513369,15.2727273 Z" id="Fill-236" sketch:type="MSShapeGroup"></path>
            <path d="M14.1604278,14.5454545 L14.8877005,14.5454545 L14.8877005,16 L14.1604278,16 L14.1604278,14.5454545 Z" id="Fill-237" sketch:type="MSShapeGroup"></path>
            <path d="M9.79679144,15.2727273 L14.8877005,15.2727273 L14.8877005,16 L9.79679144,16 L9.79679144,15.2727273 Z" id="Fill-238" sketch:type="MSShapeGroup"></path>
            <path d="M8.34224599,9.45454545 L7.61497326,9.45454545 L7.61497326,8.72727273 L6.16042781,8.72727273 L6.16042781,9.45454545 L5.43315508,9.45454545 L5.43315508,10.1818182 L4.70588235,10.1818182 L4.70588235,10.9090909 L3.97860963,10.9090909 L3.97860963,11.6363636 L3.2513369,11.6363636 L3.2513369,12.3636364 L2.52406417,12.3636364 L2.52406417,13.8181818 L3.2513369,13.8181818 L3.2513369,14.5454545 L3.97860963,14.5454545 L3.97860963,13.8181818 L4.70588235,13.8181818 L4.70588235,13.0909091 L5.43315508,13.0909091 L5.43315508,12.3636364 L6.16042781,12.3636364 L6.16042781,11.6363636 L6.88770053,11.6363636 L6.88770053,10.9090909 L7.61497326,10.9090909 L7.61497326,10.1818182 L8.34224599,10.1818182 L8.34224599,9.45454545" id="Fill-239" sketch:type="MSShapeGroup"></path>
            <path d="M4.70588235,2.18181818 L3.97860963,2.90909091 L4.70588235,3.63636364 L9.79679144,3.63636364 L9.79679144,4.36363636 L9.06951872,4.36363636 L9.06951872,5.09090909 L8.34224599,5.09090909 L8.34224599,5.81818182 L7.61497326,5.81818182 L7.61497326,8 L8.34224599,8 L8.34224599,8.72727273 L9.06951872,8.72727273 L9.06951872,9.45454545 L9.79679144,9.45454545 L9.79679144,10.1818182 L10.5240642,10.1818182 L10.5240642,13.8181818 L11.2513369,14.5454545 L11.9786096,14.5454545 L12.7058824,13.8181818 L12.7058824,9.45454545 L11.9786096,9.45454545 L11.9786096,8.72727273 L11.2513369,8.72727273 L11.2513369,8 L10.5240642,8 L10.5240642,7.27272727 L11.2513369,7.27272727 L11.2513369,6.54545455 L11.9786096,6.54545455 L11.9786096,5.81818182 L12.7058824,5.81818182 L12.7058824,5.09090909 L13.4331551,5.09090909 L13.4331551,2.90909091 L12.7058824,2.90909091 L12.7058824,2.18181818 L4.70588235,2.18181818" id="Fill-240" sketch:type="MSShapeGroup"></path>
            <path d="M13.4331551,0 L14.8877005,0 L14.8877005,0.727272727 L15.6149733,0.727272727 L15.6149733,2.18181818 L14.8877005,2.18181818 L14.8877005,2.90909091 L13.4331551,2.90909091 L13.4331551,2.18181818 L12.7058824,2.18181818 L12.7058824,0.727272727 L13.4331551,0.727272727 L13.4331551,0" id="Fill-241" sketch:type="MSShapeGroup"></path>
        </g>
        <g id="Group" sketch:type="MSLayerGroup" transform="translate(1.000000, 1.425156)" fill="#0A0B09" opacity="0.2">
            <path d="M0.342245989,12.3636364 L1.06951872,12.3636364 L1.06951872,13.8181818 L0.342245989,13.8181818 L0.342245989,12.3636364 Z" id="Fill-229" sketch:type="MSShapeGroup"></path>
            <path d="M1.06951872,13.8181818 L1.79679144,13.8181818 L1.79679144,14.5454545 L1.06951872,14.5454545 L1.06951872,13.8181818 Z" id="Fill-230" sketch:type="MSShapeGroup"></path>
            <path d="M1.79679144,14.5454545 L2.52406417,14.5454545 L2.52406417,15.2727273 L1.79679144,15.2727273 L1.79679144,14.5454545 Z" id="Fill-231" sketch:type="MSShapeGroup"></path>
            <path d="M2.52406417,15.2727273 L3.2513369,15.2727273 L3.2513369,16 L2.52406417,16 L2.52406417,15.2727273 Z" id="Fill-232" sketch:type="MSShapeGroup"></path>
            <path d="M1.06951872,13.0909091 L1.79679144,13.0909091 L1.79679144,13.8181818 L1.06951872,13.8181818 L1.06951872,13.0909091 Z" id="Fill-233" sketch:type="MSShapeGroup"></path>
            <path d="M1.79679144,13.8181818 L2.52406417,13.8181818 L2.52406417,14.5454545 L1.79679144,14.5454545 L1.79679144,13.8181818 Z" id="Fill-234" sketch:type="MSShapeGroup"></path>
            <path d="M2.52406417,14.5454545 L3.2513369,14.5454545 L3.2513369,15.2727273 L2.52406417,15.2727273 L2.52406417,14.5454545 Z" id="Fill-235" sketch:type="MSShapeGroup"></path>
            <path d="M3.2513369,15.2727273 L4.70588235,15.2727273 L4.70588235,16 L3.2513369,16 L3.2513369,15.2727273 Z" id="Fill-236" sketch:type="MSShapeGroup"></path>
            <path d="M14.1604278,14.5454545 L14.8877005,14.5454545 L14.8877005,16 L14.1604278,16 L14.1604278,14.5454545 Z" id="Fill-237" sketch:type="MSShapeGroup"></path>
            <path d="M9.79679144,15.2727273 L14.8877005,15.2727273 L14.8877005,16 L9.79679144,16 L9.79679144,15.2727273 Z" id="Fill-238" sketch:type="MSShapeGroup"></path>
            <path d="M8.34224599,9.45454545 L7.61497326,9.45454545 L7.61497326,8.72727273 L6.16042781,8.72727273 L6.16042781,9.45454545 L5.43315508,9.45454545 L5.43315508,10.1818182 L4.70588235,10.1818182 L4.70588235,10.9090909 L3.97860963,10.9090909 L3.97860963,11.6363636 L3.2513369,11.6363636 L3.2513369,12.3636364 L2.52406417,12.3636364 L2.52406417,13.8181818 L3.2513369,13.8181818 L3.2513369,14.5454545 L3.97860963,14.5454545 L3.97860963,13.8181818 L4.70588235,13.8181818 L4.70588235,13.0909091 L5.43315508,13.0909091 L5.43315508,12.3636364 L6.16042781,12.3636364 L6.16042781,11.6363636 L6.88770053,11.6363636 L6.88770053,10.9090909 L7.61497326,10.9090909 L7.61497326,10.1818182 L8.34224599,10.1818182 L8.34224599,9.45454545" id="Fill-239" sketch:type="MSShapeGroup"></path>
            <path d="M4.70588235,2.18181818 L3.97860963,2.90909091 L4.70588235,3.63636364 L9.79679144,3.63636364 L9.79679144,4.36363636 L9.06951872,4.36363636 L9.06951872,5.09090909 L8.34224599,5.09090909 L8.34224599,5.81818182 L7.61497326,5.81818182 L7.61497326,8 L8.34224599,8 L8.34224599,8.72727273 L9.06951872,8.72727273 L9.06951872,9.45454545 L9.79679144,9.45454545 L9.79679144,10.1818182 L10.5240642,10.1818182 L10.5240642,13.8181818 L11.2513369,14.5454545 L11.9786096,14.5454545 L12.7058824,13.8181818 L12.7058824,9.45454545 L11.9786096,9.45454545 L11.9786096,8.72727273 L11.2513369,8.72727273 L11.2513369,8 L10.5240642,8 L10.5240642,7.27272727 L11.2513369,7.27272727 L11.2513369,6.54545455 L11.9786096,6.54545455 L11.9786096,5.81818182 L12.7058824,5.81818182 L12.7058824,5.09090909 L13.4331551,5.09090909 L13.4331551,2.90909091 L12.7058824,2.90909091 L12.7058824,2.18181818 L4.70588235,2.18181818" id="Fill-240" sketch:type="MSShapeGroup"></path>
            <path d="M13.4331551,0 L14.8877005,0 L14.8877005,0.727272727 L15.6149733,0.727272727 L15.6149733,2.18181818 L14.8877005,2.18181818 L14.8877005,2.90909091 L13.4331551,2.90909091 L13.4331551,2.18181818 L12.7058824,2.18181818 L12.7058824,0.727272727 L13.4331551,0.727272727 L13.4331551,0" id="Fill-241" sketch:type="MSShapeGroup"></path>
        </g>
        <g id="Group" sketch:type="MSLayerGroup" transform="translate(0.000000, 0.425156)" fill="#0A0B09">
            <path d="M0.342245989,12.3636364 L1.06951872,12.3636364 L1.06951872,13.8181818 L0.342245989,13.8181818 L0.342245989,12.3636364 Z" id="Fill-229" sketch:type="MSShapeGroup"></path>
            <path d="M1.06951872,13.8181818 L1.79679144,13.8181818 L1.79679144,14.5454545 L1.06951872,14.5454545 L1.06951872,13.8181818 Z" id="Fill-230" sketch:type="MSShapeGroup"></path>
            <path d="M1.79679144,14.5454545 L2.52406417,14.5454545 L2.52406417,15.2727273 L1.79679144,15.2727273 L1.79679144,14.5454545 Z" id="Fill-231" sketch:type="MSShapeGroup"></path>
            <path d="M2.52406417,15.2727273 L3.2513369,15.2727273 L3.2513369,16 L2.52406417,16 L2.52406417,15.2727273 Z" id="Fill-232" sketch:type="MSShapeGroup"></path>
            <path d="M1.06951872,13.0909091 L1.79679144,13.0909091 L1.79679144,13.8181818 L1.06951872,13.8181818 L1.06951872,13.0909091 Z" id="Fill-233" sketch:type="MSShapeGroup"></path>
            <path d="M1.79679144,13.8181818 L2.52406417,13.8181818 L2.52406417,14.5454545 L1.79679144,14.5454545 L1.79679144,13.8181818 Z" id="Fill-234" sketch:type="MSShapeGroup"></path>
            <path d="M2.52406417,14.5454545 L3.2513369,14.5454545 L3.2513369,15.2727273 L2.52406417,15.2727273 L2.52406417,14.5454545 Z" id="Fill-235" sketch:type="MSShapeGroup"></path>
            <path d="M3.2513369,15.2727273 L4.70588235,15.2727273 L4.70588235,16 L3.2513369,16 L3.2513369,15.2727273 Z" id="Fill-236" sketch:type="MSShapeGroup"></path>
            <path d="M14.1604278,14.5454545 L14.8877005,14.5454545 L14.8877005,16 L14.1604278,16 L14.1604278,14.5454545 Z" id="Fill-237" sketch:type="MSShapeGroup"></path>
            <path d="M9.79679144,15.2727273 L14.8877005,15.2727273 L14.8877005,16 L9.79679144,16 L9.79679144,15.2727273 Z" id="Fill-238" sketch:type="MSShapeGroup"></path>
            <path d="M8.34224599,9.45454545 L7.61497326,9.45454545 L7.61497326,8.72727273 L6.16042781,8.72727273 L6.16042781,9.45454545 L5.43315508,9.45454545 L5.43315508,10.1818182 L4.70588235,10.1818182 L4.70588235,10.9090909 L3.97860963,10.9090909 L3.97860963,11.6363636 L3.2513369,11.6363636 L3.2513369,12.3636364 L2.52406417,12.3636364 L2.52406417,13.8181818 L3.2513369,13.8181818 L3.2513369,14.5454545 L3.97860963,14.5454545 L3.97860963,13.8181818 L4.70588235,13.8181818 L4.70588235,13.0909091 L5.43315508,13.0909091 L5.43315508,12.3636364 L6.16042781,12.3636364 L6.16042781,11.6363636 L6.88770053,11.6363636 L6.88770053,10.9090909 L7.61497326,10.9090909 L7.61497326,10.1818182 L8.34224599,10.1818182 L8.34224599,9.45454545" id="Fill-239" sketch:type="MSShapeGroup"></path>
            <path d="M4.70588235,2.18181818 L3.97860963,2.90909091 L4.70588235,3.63636364 L9.79679144,3.63636364 L9.79679144,4.36363636 L9.06951872,4.36363636 L9.06951872,5.09090909 L8.34224599,5.09090909 L8.34224599,5.81818182 L7.61497326,5.81818182 L7.61497326,8 L8.34224599,8 L8.34224599,8.72727273 L9.06951872,8.72727273 L9.06951872,9.45454545 L9.79679144,9.45454545 L9.79679144,10.1818182 L10.5240642,10.1818182 L10.5240642,13.8181818 L11.2513369,14.5454545 L11.9786096,14.5454545 L12.7058824,13.8181818 L12.7058824,9.45454545 L11.9786096,9.45454545 L11.9786096,8.72727273 L11.2513369,8.72727273 L11.2513369,8 L10.5240642,8 L10.5240642,7.27272727 L11.2513369,7.27272727 L11.2513369,6.54545455 L11.9786096,6.54545455 L11.9786096,5.81818182 L12.7058824,5.81818182 L12.7058824,5.09090909 L13.4331551,5.09090909 L13.4331551,2.90909091 L12.7058824,2.90909091 L12.7058824,2.18181818 L4.70588235,2.18181818" id="Fill-240" sketch:type="MSShapeGroup"></path>
            <path d="M13.4331551,0 L14.8877005,0 L14.8877005,0.727272727 L15.6149733,0.727272727 L15.6149733,2.18181818 L14.8877005,2.18181818 L14.8877005,2.90909091 L13.4331551,2.90909091 L13.4331551,2.18181818 L12.7058824,2.18181818 L12.7058824,0.727272727 L13.4331551,0.727272727 L13.4331551,0" id="Fill-241" sketch:type="MSShapeGroup"></path>
        </g>
    </g>
</svg>