<?xml version="1.0" encoding="UTF-8" standalone="no"?>
<svg width="12px" height="12px" viewBox="0 0 12 12" version="1.1" xmlns="http://www.w3.org/2000/svg" xmlns:xlink="http://www.w3.org/1999/xlink" xmlns:sketch="http://www.bohemiancoding.com/sketch/ns">
    <!-- Generator: Sketch 3.2.2 (9983) - http://www.bohemiancoding.com/sketch -->
    <title>ice-skating-white-12</title>
    <desc>Created with Sketch.</desc>
    <defs></defs>
    <g id="Page-1" stroke="none" stroke-width="1" fill="none" fill-rule="evenodd" sketch:type="MSPage">
        <path d="M3.41176471,9.81212121 L2,9.81212121 L2,10.522314 L2.70588235,10.522314 L2.70588235,10.8774105 L3.41176471,10.8774105 L3.41176471,11.5876033 L4.11764706,11.5876033 L4.11764706,11.9426997 L5.52941176,11.9426997 L5.52941176,11.2325069 L4.11764706,11.2325069 L4.11764706,10.522314 L3.41176471,10.522314 L3.41176471,9.81212121" id="Fill-242" opacity="0.5" fill="#0A0B09" sketch:type="MSShapeGroup"></path>
        <path d="M9.76470588,6.26115702 L9.76470588,5.55096419 L10.4705882,5.55096419 L10.4705882,4.13057851 L9.76470588,4.13057851 L9.76470588,3.42038567 L4.82352941,3.42038567 L4.82352941,4.48567493 L8.35294118,4.48567493 L8.35294118,4.84077135 L7.64705882,4.84077135 L7.64705882,5.55096419 L6.94117647,5.55096419 L6.94117647,6.97134986 L7.64705882,6.97134986 L7.64705882,7.6815427 L8.35294118,7.6815427 L8.35294118,8.39173554 L9.05882353,8.39173554 L9.05882353,11.2325069 L8.35294118,11.2325069 L8.35294118,11.9426997 L11.8823529,11.9426997 L11.8823529,11.2325069 L10.4705882,11.2325069 L10.4705882,7.6815427 L9.76470588,7.6815427 L9.76470588,6.97134986 L9.05882353,6.97134986 L9.05882353,6.26115702 L9.76470588,6.26115702" id="Fill-243" opacity="0.5" fill="#0A0B09" sketch:type="MSShapeGroup"></path>
        <path d="M6.94117647,6.97134986 L6.23529412,6.97134986 L6.23529412,7.6815427 L5.52941176,7.6815427 L5.52941176,8.39173554 L4.82352941,8.39173554 L4.82352941,9.10192837 L4.11764706,9.10192837 L4.11764706,10.522314 L5.52941176,10.522314 L5.52941176,9.81212121 L6.23529412,9.81212121 L6.23529412,9.10192837 L6.94117647,9.10192837 L6.94117647,8.39173554 L7.64705882,8.39173554 L7.64705882,7.6815427 L6.94117647,7.6815427 L6.94117647,6.97134986" id="Fill-244" opacity="0.5" fill="#0A0B09" sketch:type="MSShapeGroup"></path>
        <path d="M10.4705882,4.13057851 L11.1764706,4.13057851 L11.1764706,3.42038567 L11.8823529,3.42038567 L11.8823529,2.71019284 L11.1764706,2.71019284 L11.1764706,2 L10.4705882,2 L10.4705882,2.71019284 L9.76470588,2.71019284 L9.76470588,3.42038567 L10.4705882,3.42038567 L10.4705882,4.13057851" id="Fill-245" opacity="0.5" fill="#0A0B09" sketch:type="MSShapeGroup"></path>
        <path d="M2.41176471,8.81212121 L1,8.81212121 L1,9.52231405 L1.70588235,9.52231405 L1.70588235,9.87741047 L2.41176471,9.87741047 L2.41176471,10.5876033 L3.11764706,10.5876033 L3.11764706,10.9426997 L4.52941176,10.9426997 L4.52941176,10.2325069 L3.11764706,10.2325069 L3.11764706,9.52231405 L2.41176471,9.52231405 L2.41176471,8.81212121" id="Fill-242" opacity="0.75" fill="#0A0B09" sketch:type="MSShapeGroup"></path>
        <path d="M8.76470588,5.26115702 L8.76470588,4.55096419 L9.47058824,4.55096419 L9.47058824,3.13057851 L8.76470588,3.13057851 L8.76470588,2.42038567 L3.82352941,2.42038567 L3.82352941,3.48567493 L7.35294118,3.48567493 L7.35294118,3.84077135 L6.64705882,3.84077135 L6.64705882,4.55096419 L5.94117647,4.55096419 L5.94117647,5.97134986 L6.64705882,5.97134986 L6.64705882,6.6815427 L7.35294118,6.6815427 L7.35294118,7.39173554 L8.05882353,7.39173554 L8.05882353,10.2325069 L7.35294118,10.2325069 L7.35294118,10.9426997 L10.8823529,10.9426997 L10.8823529,10.2325069 L9.47058824,10.2325069 L9.47058824,6.6815427 L8.76470588,6.6815427 L8.76470588,5.97134986 L8.05882353,5.97134986 L8.05882353,5.26115702 L8.76470588,5.26115702" id="Fill-243" opacity="0.75" fill="#0A0B09" sketch:type="MSShapeGroup"></path>
        <path d="M5.94117647,5.97134986 L5.23529412,5.97134986 L5.23529412,6.6815427 L4.52941176,6.6815427 L4.52941176,7.39173554 L3.82352941,7.39173554 L3.82352941,8.10192837 L3.11764706,8.10192837 L3.11764706,9.52231405 L4.52941176,9.52231405 L4.52941176,8.81212121 L5.23529412,8.81212121 L5.23529412,8.10192837 L5.94117647,8.10192837 L5.94117647,7.39173554 L6.64705882,7.39173554 L6.64705882,6.6815427 L5.94117647,6.6815427 L5.94117647,5.97134986" id="Fill-244" opacity="0.75" fill="#0A0B09" sketch:type="MSShapeGroup"></path>
        <path d="M9.47058824,3.13057851 L10.1764706,3.13057851 L10.1764706,2.42038567 L10.8823529,2.42038567 L10.8823529,1.71019284 L10.1764706,1.71019284 L10.1764706,1 L9.47058824,1 L9.47058824,1.71019284 L8.76470588,1.71019284 L8.76470588,2.42038567 L9.47058824,2.42038567 L9.47058824,3.13057851" id="Fill-245" opacity="0.75" fill="#0A0B09" sketch:type="MSShapeGroup"></path>
        <path d="M1.41176471,7.81212121 L0,7.81212121 L0,8.52231405 L0.705882353,8.52231405 L0.705882353,8.87741047 L1.41176471,8.87741047 L1.41176471,9.58760331 L2.11764706,9.58760331 L2.11764706,9.94269972 L3.52941176,9.94269972 L3.52941176,9.23250689 L2.11764706,9.23250689 L2.11764706,8.52231405 L1.41176471,8.52231405 L1.41176471,7.81212121" id="Fill-242" fill="#FFFFFF" sketch:type="MSShapeGroup"></path>
        <path d="M7.76470588,4.26115702 L7.76470588,3.55096419 L8.47058824,3.55096419 L8.47058824,2.13057851 L7.76470588,2.13057851 L7.76470588,1.42038567 L2.82352941,1.42038567 L2.82352941,2.48567493 L6.35294118,2.48567493 L6.35294118,2.84077135 L5.64705882,2.84077135 L5.64705882,3.55096419 L4.94117647,3.55096419 L4.94117647,4.97134986 L5.64705882,4.97134986 L5.64705882,5.6815427 L6.35294118,5.6815427 L6.35294118,6.39173554 L7.05882353,6.39173554 L7.05882353,9.23250689 L6.35294118,9.23250689 L6.35294118,9.94269972 L9.88235294,9.94269972 L9.88235294,9.23250689 L8.47058824,9.23250689 L8.47058824,5.6815427 L7.76470588,5.6815427 L7.76470588,4.97134986 L7.05882353,4.97134986 L7.05882353,4.26115702 L7.76470588,4.26115702" id="Fill-243" fill="#FFFFFF" sketch:type="MSShapeGroup"></path>
        <path d="M4.94117647,4.97134986 L4.23529412,4.97134986 L4.23529412,5.6815427 L3.52941176,5.6815427 L3.52941176,6.39173554 L2.82352941,6.39173554 L2.82352941,7.10192837 L2.11764706,7.10192837 L2.11764706,8.52231405 L3.52941176,8.52231405 L3.52941176,7.81212121 L4.23529412,7.81212121 L4.23529412,7.10192837 L4.94117647,7.10192837 L4.94117647,6.39173554 L5.64705882,6.39173554 L5.64705882,5.6815427 L4.94117647,5.6815427 L4.94117647,4.97134986" id="Fill-244" fill="#FFFFFF" sketch:type="MSShapeGroup"></path>
        <path d="M8.47058824,2.13057851 L9.17647059,2.13057851 L9.17647059,1.42038567 L9.88235294,1.42038567 L9.88235294,0.710192837 L9.17647059,0.710192837 L9.17647059,0 L8.47058824,0 L8.47058824,0.710192837 L7.76470588,0.710192837 L7.76470588,1.42038567 L8.47058824,1.42038567 L8.47058824,2.13057851" id="Fill-245" fill="#FFFFFF" sketch:type="MSShapeGroup"></path>
    </g>
</svg>