<?xml version="1.0" encoding="utf-8"?>
<!-- Generator: Adobe Illustrator 15.1.0, SVG Export Plug-In . SVG Version: 6.00 Build 0)  -->
<!DOCTYPE svg PUBLIC "-//W3C//DTD SVG 1.1//EN" "http://www.w3.org/Graphics/SVG/1.1/DTD/svg11.dtd">
<svg version="1.1"
	 id="svg4619" xmlns:rdf="http://www.w3.org/1999/02/22-rdf-syntax-ns#" xmlns:svg="http://www.w3.org/2000/svg" xmlns:dc="http://purl.org/dc/elements/1.1/" sodipodi:docname="maki-18-base.svg" xmlns:inkscape="http://www.inkscape.org/namespaces/inkscape" inkscape:version="0.48.2 r9819" xmlns:cc="http://creativecommons.org/ns#" xmlns:sodipodi="http://sodipodi.sourceforge.net/DTD/sodipodi-0.dtd"
	 xmlns="http://www.w3.org/2000/svg" xmlns:xlink="http://www.w3.org/1999/xlink" x="0px" y="0px" width="18px" height="18px"
	 viewBox="-402.5 403.5 18 18" enable-background="new -402.5 403.5 18 18" xml:space="preserve">
<sodipodi:namedview  pagecolor="#ffffff" inkscape:zoom="16" bordercolor="#666666" borderopacity="1.0" inkscape:pageopacity="0.0" inkscape:pageshadow="2" inkscape:cx="5.9619453" inkscape:cy="11.948034" inkscape:document-units="px" inkscape:current-layer="layer1" showgrid="true" showguides="true" inkscape:guide-bbox="true" inkscape:window-width="1008" inkscape:window-height="662" inkscape:window-x="76" inkscape:window-y="40" inkscape:window-maximized="0" id="base">
	<inkscape:grid  type="xygrid" enabled="true" empspacing="5" visible="true" snapvisiblegridlinesonly="true" id="grid4627">
		</inkscape:grid>
	<sodipodi:guide  orientation="0,1" position="7,18" id="guide4659"></sodipodi:guide>
	<sodipodi:guide  orientation="1,0" position="18,9" id="guide4661"></sodipodi:guide>
	<sodipodi:guide  orientation="0,1" position="16,17" id="guide4663"></sodipodi:guide>
	<sodipodi:guide  orientation="1,0" position="17,14" id="guide4665"></sodipodi:guide>
	<sodipodi:guide  orientation="1,0" position="0,16" id="guide4667"></sodipodi:guide>
	<sodipodi:guide  orientation="0,1" position="8,0" id="guide4669"></sodipodi:guide>
	<sodipodi:guide  orientation="1,0" position="2,10" id="guide4671"></sodipodi:guide>
	<sodipodi:guide  orientation="0,1" position="12,2" id="guide4673"></sodipodi:guide>
</sodipodi:namedview>
<g id="layer1" transform="translate(0,-1034.3622)" inkscape:label="Layer 1" inkscape:groupmode="layer">
</g>
<g id="ice-cream3_1_">
	<g>
		<path opacity="0.3" fill="#FFFFFF" stroke="#FFFFFF" stroke-width="2" stroke-miterlimit="10" enable-background="new    " d="
			M-389.5,411.5c0.343-0.591,0.5-1.268,0.5-2c0-2.209-1.791-4-4-4s-4,1.791-4,4c0,0.732,0.157,1.409,0.5,2H-389.5z"/>
		<path opacity="0.3" fill="#FFFFFF" stroke="#FFFFFF" stroke-width="2" stroke-miterlimit="10" enable-background="new    " d="
			M-389.5,412.5h-7c0,0,2.439,5.9,2.5,6c0.128,0.344,0.5,1,1,1s0.871-0.656,1-1C-391.939,418.4-389.5,412.5-389.5,412.5z"/>
	</g>
	<path fill="#464545" d="M-389.5,412.5h-7c0,0,2.439,5.9,2.5,6c0.128,0.344,0.5,1,1,1s0.871-0.656,1-1
		C-391.939,418.4-389.5,412.5-389.5,412.5z"/>
	<path fill="#464545" d="M-393,405.5c-2.209,0-4,1.791-4,4c0,0.732,0.157,1.409,0.5,2h7c0.343-0.591,0.5-1.268,0.5-2
		C-389,407.291-390.791,405.5-393,405.5z M-393,407.5c-1.103,0-2,0.897-2,2c0,0.146,0.011,0.286,0.033,0.418
		c0.044,0.272-0.141,0.53-0.413,0.574c-0.027,0.005-0.054,0.007-0.081,0.007c-0.241,0-0.453-0.174-0.493-0.419
		c-0.03-0.185-0.045-0.377-0.045-0.58c0-1.654,1.346-3,3-3c0.276,0,0.5,0.224,0.5,0.5S-392.724,407.5-393,407.5z"/>
</g>
</svg>
