<?xml version="1.0" encoding="utf-8"?>
<!-- Generator: Adobe Illustrator 18.1.1, SVG Export Plug-In . SVG Version: 6.00 Build 0)  -->
<svg version="1.1" xmlns="http://www.w3.org/2000/svg" xmlns:xlink="http://www.w3.org/1999/xlink" x="0px" y="0px"
	 viewBox="0 0 18 18" enable-background="new 0 0 18 18" xml:space="preserve">
<g id="shadows">
	<g opacity="0.2">
		<polygon points="5.6,13 4.7,13 3.8,13 3.8,13.9 4.7,13.9 4.7,14.4 5.6,14.4 5.6,15.3 6.5,15.3 6.5,15.8 7.5,15.8 8.4,15.8 
			8.4,14.8 7.5,14.8 6.5,14.8 6.5,13.9 5.6,13.9 		"/>
		<polygon points="14,8.3 14,7.4 14.9,7.4 14.9,5.5 14,5.5 14,4.6 13,4.6 12.1,4.6 7.5,4.6 7.5,6 12.1,6 12.1,6.5 11.2,6.5 
			11.2,7.4 10.2,7.4 10.2,9.2 11.2,9.2 11.2,10.2 12.1,10.2 12.1,11.1 13,11.1 13,12 13,14.8 12.1,14.8 12.1,15.8 16.8,15.8 
			16.8,14.8 14.9,14.8 14.9,11.1 14.9,10.2 14,10.2 14,9.2 13,9.2 13,8.3 		"/>
		<polygon points="10.2,9.2 9.3,9.2 9.3,10.2 8.4,10.2 8.4,11.1 7.5,11.1 7.5,12 6.5,12 6.5,13 6.5,13.9 7.3,13.9 7.6,13.9 
			8.4,13.9 8.4,13 9.3,13 9.3,12 10.2,12 10.2,11.1 11.2,11.1 11.2,10.2 10.2,10.2 		"/>
		<polygon points="14.9,5.5 15.8,5.5 15.8,4.6 16.8,4.6 16.8,3.7 15.8,3.7 15.8,2.8 14.9,2.8 14.9,3.7 14,3.7 14,4.6 14.9,4.6 		"/>
	</g>
</g>
<g id="icons">
	<g>
		<polygon fill="#FFFFFF" points="4.9,12.2 3.9,12.2 3,12.2 3,13.1 3.9,13.1 3.9,13.6 4.9,13.6 4.9,14.5 5.8,14.5 5.8,15 6.7,15 
			7.6,15 7.6,14.1 6.7,14.1 5.8,14.1 5.8,13.1 4.9,13.1 		"/>
		<polygon fill="#FFFFFF" points="13.2,7.6 13.2,6.6 14.1,6.6 14.1,4.8 13.2,4.8 13.2,3.9 12.3,3.9 11.4,3.9 6.7,3.9 6.7,5.2 
			11.4,5.2 11.4,5.7 10.4,5.7 10.4,6.6 9.5,6.6 9.5,8.5 10.4,8.5 10.4,9.4 11.4,9.4 11.4,10.4 12.3,10.4 12.3,11.3 12.3,14.1 
			11.4,14.1 11.4,15 16,15 16,14.1 14.1,14.1 14.1,10.4 14.1,9.4 13.2,9.4 13.2,8.5 12.3,8.5 12.3,7.6 		"/>
		<polygon fill="#FFFFFF" points="9.5,8.5 8.6,8.5 8.6,9.4 7.6,9.4 7.6,10.4 6.7,10.4 6.7,11.3 5.8,11.3 5.8,12.2 5.8,13.1 
			6.6,13.1 6.8,13.1 7.6,13.1 7.6,12.2 8.6,12.2 8.6,11.3 9.5,11.3 9.5,10.4 10.4,10.4 10.4,9.4 9.5,9.4 		"/>
		<polygon fill="#FFFFFF" points="14.1,4.8 15.1,4.8 15.1,3.9 16,3.9 16,2.9 15.1,2.9 15.1,2 14.1,2 14.1,2.9 13.2,2.9 13.2,3.9 
			14.1,3.9 		"/>
	</g>
</g>
<g id="guides">
</g>
</svg>
