<?xml version="1.0" encoding="utf-8"?>
<!-- Generator: Adobe Illustrator 15.1.0, SVG Export Plug-In . SVG Version: 6.00 Build 0)  -->
<!DOCTYPE svg PUBLIC "-//W3C//DTD SVG 1.1//EN" "http://www.w3.org/Graphics/SVG/1.1/DTD/svg11.dtd">
<svg version="1.1"
	 id="svg4460" xmlns:dc="http://purl.org/dc/elements/1.1/" xmlns:rdf="http://www.w3.org/1999/02/22-rdf-syntax-ns#" xmlns:cc="http://creativecommons.org/ns#" inkscape:version="0.48.2 r9819" sodipodi:docname="marker-stroked-24.svg" xmlns:sodipodi="http://sodipodi.sourceforge.net/DTD/sodipodi-0.dtd" xmlns:inkscape="http://www.inkscape.org/namespaces/inkscape" xmlns:svg="http://www.w3.org/2000/svg"
	 xmlns="http://www.w3.org/2000/svg" xmlns:xlink="http://www.w3.org/1999/xlink" x="0px" y="0px" width="24px" height="24px"
	 viewBox="-402.5 403.5 24 24" enable-background="new -402.5 403.5 24 24" xml:space="preserve">
<g id="ice-cream3_2_">
	<g id="ice-cream3_3_" opacity="0.3">
		<path fill="#FFFFFF" stroke="#FFFFFF" stroke-width="2" stroke-miterlimit="10" d="M-386.5,415.5h-8c0,0,2.92,7.869,3,8
			c0.171,0.457,0.625,1,1,1s0.829-0.543,1-1C-389.42,423.369-386.5,415.5-386.5,415.5z"/>
		<g>
			<path fill="#FFFFFF" stroke="#FFFFFF" stroke-width="2" stroke-miterlimit="10" d="M-395.907,412.274
				c0.047,0.206,0.106,0.407,0.188,0.598c0,0.001,0.001,0.002,0.001,0.003c0.181,0.42,0.441,0.799,0.762,1.115h4.912
				c0.644-0.635,1.044-1.516,1.044-2.49c0-1.188-0.595-2.233-1.5-2.866c0,0,0,0,0,0c-0.074-0.052-0.156-0.093-0.234-0.14
				c-0.098-0.058-0.196-0.114-0.299-0.162c-0.08-0.037-0.162-0.069-0.245-0.101c-0.122-0.046-0.247-0.084-0.375-0.116
				c-0.071-0.018-0.142-0.038-0.214-0.052c-0.206-0.037-0.417-0.063-0.633-0.063c-1.933,0-3.5,1.567-3.5,3.5
				c0,0.243,0.025,0.48,0.072,0.71C-395.923,412.232-395.913,412.252-395.907,412.274z"/>
			<path fill="#FFFFFF" stroke="#FFFFFF" stroke-width="2" stroke-miterlimit="10" d="M-387.5,411.5c0,0.911-0.263,1.754-0.69,2.49
				h2.146c0.644-0.635,1.044-1.516,1.044-2.49c0-1.933-1.567-3.5-3.5-3.5c-0.14,0-0.276,0.017-0.412,0.032
				C-388.042,408.933-387.5,410.152-387.5,411.5z"/>
		</g>
	</g>
	<g>
		<path fill="#464545" d="M-395.907,412.274c0.047,0.206,0.106,0.407,0.188,0.598c0,0.001,0.001,0.002,0.001,0.003
			c0.181,0.42,0.441,0.799,0.762,1.115h4.912c0.644-0.635,1.044-1.516,1.044-2.49c0-1.188-0.595-2.233-1.5-2.866c0,0,0,0,0,0
			c-0.074-0.052-0.156-0.093-0.234-0.14c-0.098-0.058-0.196-0.114-0.299-0.162c-0.08-0.037-0.162-0.069-0.245-0.101
			c-0.122-0.046-0.247-0.084-0.375-0.116c-0.071-0.018-0.142-0.038-0.214-0.052c-0.206-0.037-0.417-0.063-0.633-0.063
			c-1.933,0-3.5,1.567-3.5,3.5c0,0.243,0.025,0.48,0.072,0.71C-395.923,412.232-395.913,412.252-395.907,412.274z"/>
		<path fill="#464545" d="M-387.5,411.5c0,0.911-0.263,1.754-0.69,2.49h2.146c0.644-0.635,1.044-1.516,1.044-2.49
			c0-1.933-1.567-3.5-3.5-3.5c-0.14,0-0.276,0.017-0.412,0.032C-388.042,408.933-387.5,410.152-387.5,411.5z"/>
		<path fill="#464545" d="M-386.5,415.5h-8c0,0,2.92,7.869,3,8c0.171,0.457,0.625,1,1,1s0.829-0.543,1-1
			C-389.42,423.369-386.5,415.5-386.5,415.5z"/>
	</g>
</g>
</svg>
