<?xml version="1.0" encoding="utf-8"?>
<!-- Generator: Adobe Illustrator 18.1.1, SVG Export Plug-In . SVG Version: 6.00 Build 0)  -->
<svg version="1.1" xmlns="http://www.w3.org/2000/svg" xmlns:xlink="http://www.w3.org/1999/xlink" x="0px" y="0px"
	 viewBox="0 0 24 24" enable-background="new 0 0 24 24" xml:space="preserve">
<g id="shadows">
	<g opacity="0.2">
		<rect x="5.4" y="17.9" width="0.8" height="0.8"/>
		<rect x="5.4" y="17.1" width="0.8" height="0.8"/>
		<rect x="6.2" y="18.7" width="0.8" height="0.8"/>
		<rect x="6.9" y="19.5" width="0.8" height="0.8"/>
		<rect x="7.7" y="20.2" width="0.8" height="0.8"/>
		<rect x="6.2" y="17.9" width="0.8" height="0.8"/>
		<rect x="6.9" y="18.7" width="0.8" height="0.8"/>
		<rect x="7.7" y="19.5" width="0.8" height="0.8"/>
		<rect x="8.5" y="20.2" width="0.8" height="0.8"/>
		<rect x="9.3" y="20.2" width="0.8" height="0.8"/>
		<rect x="20.1" y="19.5" width="0.8" height="1.5"/>
		<rect x="15.4" y="20.2" width="5.4" height="0.8"/>
		<polygon points="13.9,14 13.1,14 13.1,13.3 11.6,13.3 11.6,14 10.8,14 10.8,14.8 10,14.8 10,15.6 9.2,15.6 9.2,16.4 8.5,16.4 
			8.5,17.1 7.7,17.1 7.7,18.7 8.5,18.7 8.5,19.5 9.2,19.5 9.2,18.7 10,18.7 10,17.9 10.8,17.9 10.8,17.1 11.6,17.1 11.6,16.4 
			12.3,16.4 12.3,15.6 13.1,15.6 13.1,14.8 13.9,14.8 		"/>
		<polygon points="10,6.3 9.2,7.1 10,7.9 15.4,7.9 15.4,8.6 14.7,8.6 14.7,9.4 13.9,9.4 13.9,10.2 13.1,10.2 13.1,12.5 13.9,12.5 
			13.9,13.3 14.7,13.3 14.7,14 15.4,14 15.4,14.8 16.2,14.8 16.2,15.6 16.2,18.7 17,19.5 17.8,19.5 18.5,18.7 18.5,14 17.8,14 
			17.8,13.3 17,13.3 17,12.5 16.2,12.5 16.2,11.7 17,11.7 17,11 17.8,11 17.8,10.2 18.5,10.2 18.5,9.4 19.3,9.4 19.3,7.1 18.5,7.1 
			18.5,6.3 		"/>
		<polygon points="19.3,4 20.8,4 20.8,4.8 21.6,4.8 21.6,6.3 20.8,6.3 20.8,7.1 19.3,7.1 19.3,6.3 18.5,6.3 18.5,4.8 19.3,4.8 		"/>
	</g>
</g>
<g id="icons">
	<g>
		<rect x="4.4" y="16.9" fill="#FFFFFF" width="0.8" height="0.8"/>
		<rect x="4.4" y="16.1" fill="#FFFFFF" width="0.8" height="0.8"/>
		<rect x="5.2" y="17.7" fill="#FFFFFF" width="0.8" height="0.8"/>
		<rect x="5.9" y="18.5" fill="#FFFFFF" width="0.8" height="0.8"/>
		<rect x="6.7" y="19.2" fill="#FFFFFF" width="0.8" height="0.8"/>
		<rect x="5.2" y="16.9" fill="#FFFFFF" width="0.8" height="0.8"/>
		<rect x="5.9" y="17.7" fill="#FFFFFF" width="0.8" height="0.8"/>
		<rect x="6.7" y="18.5" fill="#FFFFFF" width="0.8" height="0.8"/>
		<rect x="7.5" y="19.2" fill="#FFFFFF" width="0.8" height="0.8"/>
		<rect x="8.3" y="19.2" fill="#FFFFFF" width="0.8" height="0.8"/>
		<rect x="19.1" y="18.5" fill="#FFFFFF" width="0.8" height="1.5"/>
		<rect x="14.4" y="19.2" fill="#FFFFFF" width="5.4" height="0.8"/>
		<polygon fill="#FFFFFF" points="12.9,13 12.1,13 12.1,12.3 10.6,12.3 10.6,13 9.8,13 9.8,13.8 9,13.8 9,14.6 8.2,14.6 8.2,15.4 
			7.5,15.4 7.5,16.1 6.7,16.1 6.7,17.7 7.5,17.7 7.5,18.5 8.2,18.5 8.2,17.7 9,17.7 9,16.9 9.8,16.9 9.8,16.1 10.6,16.1 10.6,15.4 
			11.3,15.4 11.3,14.6 12.1,14.6 12.1,13.8 12.9,13.8 		"/>
		<polygon fill="#FFFFFF" points="9,5.3 8.2,6.1 9,6.9 14.4,6.9 14.4,7.6 13.7,7.6 13.7,8.4 12.9,8.4 12.9,9.2 12.1,9.2 12.1,11.5 
			12.9,11.5 12.9,12.3 13.7,12.3 13.7,13 14.4,13 14.4,13.8 15.2,13.8 15.2,14.6 15.2,17.7 16,18.5 16.8,18.5 17.5,17.7 17.5,13 
			16.8,13 16.8,12.3 16,12.3 16,11.5 15.2,11.5 15.2,10.7 16,10.7 16,10 16.8,10 16.8,9.2 17.5,9.2 17.5,8.4 18.3,8.4 18.3,6.1 
			17.5,6.1 17.5,5.3 		"/>
		<polygon fill="#FFFFFF" points="18.3,3 19.8,3 19.8,3.8 20.6,3.8 20.6,5.3 19.8,5.3 19.8,6.1 18.3,6.1 18.3,5.3 17.5,5.3 
			17.5,3.8 18.3,3.8 		"/>
	</g>
</g>
<g id="guides">
</g>
</svg>
