<?xml version="1.0" encoding="UTF-8" standalone="no"?>
<!-- Created with Inkscape (http://www.inkscape.org/) -->

<svg
   xmlns:dc="http://purl.org/dc/elements/1.1/"
   xmlns:cc="http://creativecommons.org/ns#"
   xmlns:rdf="http://www.w3.org/1999/02/22-rdf-syntax-ns#"
   xmlns:svg="http://www.w3.org/2000/svg"
   xmlns="http://www.w3.org/2000/svg"
   xmlns:inkscape="http://www.inkscape.org/namespaces/inkscape"
   version="1.1"
   width="24"
   height="24"
   viewBox="-402.5 403.5 24 24"
   id="svg4460"
   xml:space="preserve"><metadata
     id="metadata25"><rdf:RDF><cc:Work
         rdf:about=""><dc:format>image/svg+xml</dc:format><dc:type
           rdf:resource="http://purl.org/dc/dcmitype/StillImage" /></cc:Work></rdf:RDF></metadata><defs
     id="defs23" /><g
     id="ice-cream3_2_"><g
       id="ice-cream3_3_"
       style="opacity:0.3"><path
         d="m -386.5,415.5 h -8 c 0,0 2.92,7.869 3,8 0.171,0.457 0.625,1 1,1 0.375,0 0.829,-0.543 1,-1 0.08,-0.131 3,-8 3,-8 z"
         inkscape:connector-curvature="0"
         id="path5"
         style="fill:#ffffff;stroke:#ffffff;stroke-width:2;stroke-miterlimit:10" /><g
         id="g7"><path
           d="m -395.907,412.274 c 0.047,0.206 0.106,0.407 0.188,0.598 0,10e-4 10e-4,0.002 10e-4,0.003 0.181,0.42 0.441,0.799 0.762,1.115 h 4.912 c 0.644,-0.635 1.044,-1.516 1.044,-2.49 0,-1.188 -0.595,-2.233 -1.5,-2.866 0,0 0,0 0,0 -0.074,-0.052 -0.156,-0.093 -0.234,-0.14 -0.098,-0.058 -0.196,-0.114 -0.299,-0.162 -0.08,-0.037 -0.162,-0.069 -0.245,-0.101 -0.122,-0.046 -0.247,-0.084 -0.375,-0.116 -0.071,-0.018 -0.142,-0.038 -0.214,-0.052 -0.206,-0.037 -0.417,-0.063 -0.633,-0.063 -1.933,0 -3.5,1.567 -3.5,3.5 0,0.243 0.025,0.48 0.072,0.71 0.005,0.022 0.015,0.042 0.021,0.064 z"
           inkscape:connector-curvature="0"
           id="path9"
           style="fill:#ffffff;stroke:#ffffff;stroke-width:2;stroke-miterlimit:10" /><path
           d="m -387.5,411.5 c 0,0.911 -0.263,1.754 -0.69,2.49 h 2.146 c 0.644,-0.635 1.044,-1.516 1.044,-2.49 0,-1.933 -1.567,-3.5 -3.5,-3.5 -0.14,0 -0.276,0.017 -0.412,0.032 0.87,0.901 1.412,2.12 1.412,3.468 z"
           inkscape:connector-curvature="0"
           id="path11"
           style="fill:#ffffff;stroke:#ffffff;stroke-width:2;stroke-miterlimit:10" /></g></g><g
       id="g13"><path
         d="M 10,4.5 C 8.067,4.5 6.5,6.067 6.5,8 c 0,0.243 0.0155,0.48875 0.0625,0.71875 0.005,0.022 0.02525,0.0405 0.03125,0.0625 0.047,0.206 0.1055,0.40275 0.1875,0.59375 0.181,0.42 0.429,0.809 0.75,1.125 l 4.9375,0 C 13.11275,9.865 13.5,8.974 13.5,8 13.5,6.812 12.905,5.758 12,5.125 11.926,5.073 11.85925,5.047 11.78125,5 c -0.098,-0.058 -0.2095,-0.10825 -0.3125,-0.15625 -0.08,-0.037 -0.167,-0.093 -0.25,-0.125 -0.122,-0.046 -0.247,-0.06175 -0.375,-0.09375 C 10.77275,4.607 10.697,4.5765 10.625,4.5625 10.419,4.5255 10.216,4.5 10,4.5 z m 4,0 C 13.86,4.5 13.72975,4.51625 13.59375,4.53125 14.46375,5.43225 15,6.652 15,8 c 0,0.911 -0.2605,1.764 -0.6875,2.5 l 2.15625,0 C 17.11275,9.865 17.5,8.974 17.5,8 17.5,6.067 15.933,4.5 14,4.5 z M 8,12 c 0,0 2.92,7.869 3,8 0.171,0.457 0.625,1 1,1 0.375,0 0.829,-0.543 1,-1 0.08,-0.131 3,-8 3,-8 l -8,0 z"
         inkscape:connector-curvature="0"
         transform="translate(-402.5,403.5)"
         id="path15"
         style="fill:#444444;fill-opacity:1" /></g></g><rect
     width="24"
     height="24"
     x="0"
     y="0"
     id="canvas"
     style="fill:none;stroke:none;visibility:hidden" /></svg>