<?xml version="1.0" encoding="utf-8"?>
<!-- Generator: Adobe Illustrator 15.1.0, SVG Export Plug-In . SVG Version: 6.00 Build 0)  -->
<!DOCTYPE svg PUBLIC "-//W3C//DTD SVG 1.1//EN" "http://www.w3.org/Graphics/SVG/1.1/DTD/svg11.dtd">
<svg version="1.1"
	 id="svg4460" xmlns:rdf="http://www.w3.org/1999/02/22-rdf-syntax-ns#" xmlns:svg="http://www.w3.org/2000/svg" xmlns:dc="http://purl.org/dc/elements/1.1/" sodipodi:docname="marker-stroked-24.svg" xmlns:inkscape="http://www.inkscape.org/namespaces/inkscape" inkscape:version="0.48.2 r9819" xmlns:cc="http://creativecommons.org/ns#" xmlns:sodipodi="http://sodipodi.sourceforge.net/DTD/sodipodi-0.dtd"
	 xmlns="http://www.w3.org/2000/svg" xmlns:xlink="http://www.w3.org/1999/xlink" x="0px" y="0px" width="24px" height="24px"
	 viewBox="-402.5 403.5 24 24" enable-background="new -402.5 403.5 24 24" xml:space="preserve">
<sodipodi:namedview  pagecolor="#ffffff" inkscape:zoom="11.313708" bordercolor="#666666" borderopacity="1.0" inkscape:pageopacity="0.0" inkscape:pageshadow="2" inkscape:cx="15.622727" inkscape:cy="6.9146856" inkscape:document-units="px" inkscape:current-layer="layer1" showgrid="true" showguides="true" inkscape:guide-bbox="true" inkscape:window-width="1220" inkscape:window-height="833" inkscape:window-x="56" inkscape:window-y="20" inkscape:window-maximized="0" id="base">
	<inkscape:grid  type="xygrid" enabled="true" empspacing="5" visible="true" snapvisiblegridlinesonly="true" id="grid4468">
		</inkscape:grid>
	<sodipodi:guide  orientation="1,0" position="0,20" id="guide4470"></sodipodi:guide>
	<sodipodi:guide  orientation="0,1" position="4,24" id="guide4472"></sodipodi:guide>
	<sodipodi:guide  orientation="1,0" position="24,13" id="guide4474"></sodipodi:guide>
	<sodipodi:guide  orientation="0,1" position="15,0" id="guide4476"></sodipodi:guide>
	<sodipodi:guide  orientation="1,0" position="23,20" id="guide4478"></sodipodi:guide>
	<sodipodi:guide  orientation="0,1" position="20,23" id="guide4480"></sodipodi:guide>
	<sodipodi:guide  orientation="1,0" position="2,5" id="guide4482"></sodipodi:guide>
	<sodipodi:guide  orientation="0,1" position="7,2" id="guide4484"></sodipodi:guide>
	<sodipodi:guide  orientation="1,0" position="13,16" id="guide4486"></sodipodi:guide>
	<sodipodi:guide  orientation="0,1" position="16,13" id="guide4490"></sodipodi:guide>
</sodipodi:namedview>
<g id="layer1" transform="translate(0,-1028.3622)" inkscape:label="Layer 1" inkscape:groupmode="layer">
</g>
<g id="ice-cream3_1_">
	<g id="ice-cream3" opacity="0.3">
		<path fill="#FFFFFF" stroke="#FFFFFF" stroke-width="2" stroke-miterlimit="10" d="M-390.5,406.5c-2.762,0-5,2.239-5,5
			c0,1.131,0.39,2.162,1.023,3h7.954c0.633-0.838,1.023-1.869,1.023-3C-385.5,408.739-387.738,406.5-390.5,406.5z"/>
		<path fill="#FFFFFF" stroke="#FFFFFF" stroke-width="2" stroke-miterlimit="10" d="M-386.5,415.5h-8c0,0,2.92,7.869,3,8
			c0.171,0.457,0.625,1,1,1s0.829-0.543,1-1C-389.42,423.369-386.5,415.5-386.5,415.5z"/>
	</g>
	<path fill="#464545" d="M-390.5,406.5c-2.762,0-5,2.239-5,5c0,1.131,0.39,2.162,1.023,3h7.954c0.633-0.838,1.023-1.869,1.023-3
		C-385.5,408.739-387.738,406.5-390.5,406.5z M-390.5,409c-1.378,0-2.5,1.121-2.5,2.5c0,0.322,0.038,0.597,0.115,0.839
		c0.084,0.264-0.061,0.545-0.324,0.629c-0.051,0.016-0.102,0.023-0.152,0.023c-0.212,0-0.408-0.136-0.476-0.348
		c-0.109-0.343-0.163-0.716-0.163-1.144c0-1.93,1.57-3.5,3.5-3.5c0.276,0,0.5,0.224,0.5,0.5S-390.224,409-390.5,409z"/>
	<path fill="#464545" d="M-386.5,415.5h-8c0,0,2.92,7.869,3,8c0.171,0.457,0.625,1,1,1s0.829-0.543,1-1
		C-389.42,423.369-386.5,415.5-386.5,415.5z"/>
</g>
</svg>
