<?xml version="1.0" encoding="UTF-8" standalone="no"?>
<!-- Created with Inkscape (http://www.inkscape.org/) -->

<svg
   xmlns:dc="http://purl.org/dc/elements/1.1/"
   xmlns:cc="http://creativecommons.org/ns#"
   xmlns:rdf="http://www.w3.org/1999/02/22-rdf-syntax-ns#"
   xmlns:svg="http://www.w3.org/2000/svg"
   xmlns="http://www.w3.org/2000/svg"
   xmlns:inkscape="http://www.inkscape.org/namespaces/inkscape"
   version="1.1"
   width="12"
   height="12"
   viewBox="-402.5 403.5 12 12"
   id="svg4764"
   xml:space="preserve"><metadata
     id="metadata27"><rdf:RDF><cc:Work
         rdf:about=""><dc:format>image/svg+xml</dc:format><dc:type
           rdf:resource="http://purl.org/dc/dcmitype/StillImage" /></cc:Work></rdf:RDF></metadata><defs
     id="defs25" /><g
     id="ice-cream3_1_"><g
       id="g4"
       style="opacity:0.3"><g
         id="g6"><path
           d="m -399.452,407.426 c 0.005,0.024 0.016,0.046 0.021,0.07 0.03,0.114 0.066,0.228 0.115,0.333 0.006,0.013 0.014,0.023 0.02,0.036 0.057,0.115 0.123,0.227 0.2,0.329 10e-4,10e-4 0.002,0.002 0.003,0.004 0.084,0.109 0.179,0.211 0.283,0.302 h 2.62 c 0.419,-0.366 0.69,-0.899 0.69,-1.5 0,-0.738 -0.405,-1.377 -1.001,-1.723 -0.135,-0.079 -0.281,-0.139 -0.433,-0.186 -0.022,-0.007 -0.045,-0.016 -0.068,-0.021 -0.159,-0.043 -0.325,-0.07 -0.499,-0.07 -1.104,0 -2,0.896 -2,2 10e-4,0.146 0.018,0.289 0.049,0.426 z"
           inkscape:connector-curvature="0"
           id="path8"
           style="fill:#ffffff;stroke:#ffffff;stroke-width:2;stroke-miterlimit:10" /><path
           d="m -394.75,407 c 0,0.554 -0.167,1.068 -0.45,1.5 h 1.01 c 0.419,-0.366 0.69,-0.899 0.69,-1.5 0,-1.104 -0.896,-2 -2,-2 -0.037,0 -0.07,0.013 -0.106,0.015 0.525,0.501 0.856,1.204 0.856,1.985 z"
           inkscape:connector-curvature="0"
           id="path10"
           style="fill:#ffffff;stroke:#ffffff;stroke-width:2;stroke-miterlimit:10" /></g><path
         d="m -398.5,409.5 c 1,2.5 1.5,4.5 2,4.5 0.5,0 1,-2 2,-4.5 h -4 z"
         inkscape:connector-curvature="0"
         id="path12"
         style="fill:#ffffff;stroke:#ffffff;stroke-width:2;stroke-miterlimit:10" /></g><g
       id="g14"><path
         d="m -399.452,407.426 c 0.005,0.024 0.016,0.046 0.021,0.07 0.03,0.114 0.066,0.228 0.115,0.333 0.006,0.013 0.014,0.023 0.02,0.036 0.057,0.115 0.123,0.227 0.2,0.329 10e-4,10e-4 0.002,0.002 0.003,0.004 0.084,0.109 0.179,0.211 0.283,0.302 h 2.62 c 0.419,-0.366 0.69,-0.899 0.69,-1.5 0,-0.738 -0.405,-1.377 -1.001,-1.723 -0.135,-0.079 -0.281,-0.139 -0.433,-0.186 -0.022,-0.007 -0.045,-0.016 -0.068,-0.021 -0.159,-0.043 -0.325,-0.07 -0.499,-0.07 -1.104,0 -2,0.896 -2,2 10e-4,0.146 0.018,0.289 0.049,0.426 z"
         inkscape:connector-curvature="0"
         id="path16"
         style="fill:#464545" /><path
         d="m -394.75,407 c 0,0.554 -0.167,1.068 -0.45,1.5 h 1.01 c 0.419,-0.366 0.69,-0.899 0.69,-1.5 0,-1.104 -0.896,-2 -2,-2 -0.037,0 -0.07,0.013 -0.106,0.015 0.525,0.501 0.856,1.204 0.856,1.985 z"
         inkscape:connector-curvature="0"
         id="path18"
         style="fill:#464545" /></g><path
       d="m -398.5,409.5 c 1,2.5 1.5,4.5 2,4.5 0.5,0 1,-2 2,-4.5 h -4 z"
       inkscape:connector-curvature="0"
       id="path20"
       style="fill:#464545" /></g><rect
     width="12"
     height="12"
     x="0"
     y="0"
     id="canvas"
     style="fill:none;stroke:none;visibility:hidden" /></svg>