<?xml version="1.0" encoding="utf-8"?>
<!-- Generator: Adobe Illustrator 15.1.0, SVG Export Plug-In . SVG Version: 6.00 Build 0)  -->
<!DOCTYPE svg PUBLIC "-//W3C//DTD SVG 1.1//EN" "http://www.w3.org/Graphics/SVG/1.1/DTD/svg11.dtd">
<svg version="1.1"
	 id="svg4764" xmlns:dc="http://purl.org/dc/elements/1.1/" xmlns:rdf="http://www.w3.org/1999/02/22-rdf-syntax-ns#" xmlns:cc="http://creativecommons.org/ns#" inkscape:version="0.48.2 r9819" sodipodi:docname="marker-stroked-12.svg" xmlns:sodipodi="http://sodipodi.sourceforge.net/DTD/sodipodi-0.dtd" xmlns:inkscape="http://www.inkscape.org/namespaces/inkscape" xmlns:svg="http://www.w3.org/2000/svg"
	 xmlns="http://www.w3.org/2000/svg" xmlns:xlink="http://www.w3.org/1999/xlink" x="0px" y="0px" width="12px" height="12px"
	 viewBox="-402.5 403.5 12 12" enable-background="new -402.5 403.5 12 12" xml:space="preserve">
<g id="ice-cream3_1_">
	<g opacity="0.3">
		<g>
			<path fill="#FFFFFF" stroke="#FFFFFF" stroke-width="2" stroke-miterlimit="10" d="M-399.452,407.426
				c0.005,0.024,0.016,0.046,0.021,0.07c0.03,0.114,0.066,0.228,0.115,0.333c0.006,0.013,0.014,0.023,0.02,0.036
				c0.057,0.115,0.123,0.227,0.2,0.329c0.001,0.001,0.002,0.002,0.003,0.004c0.084,0.109,0.179,0.211,0.283,0.302h2.62
				c0.419-0.366,0.69-0.899,0.69-1.5c0-0.738-0.405-1.377-1.001-1.723c-0.135-0.079-0.281-0.139-0.433-0.186
				c-0.022-0.007-0.045-0.016-0.068-0.021c-0.159-0.043-0.325-0.07-0.499-0.07c-1.104,0-2,0.896-2,2
				C-399.5,407.146-399.483,407.289-399.452,407.426z"/>
			<path fill="#FFFFFF" stroke="#FFFFFF" stroke-width="2" stroke-miterlimit="10" d="M-394.75,407c0,0.554-0.167,1.068-0.45,1.5
				h1.01c0.419-0.366,0.69-0.899,0.69-1.5c0-1.104-0.896-2-2-2c-0.037,0-0.07,0.013-0.106,0.015
				C-395.081,405.516-394.75,406.219-394.75,407z"/>
		</g>
		<path fill="#FFFFFF" stroke="#FFFFFF" stroke-width="2" stroke-miterlimit="10" d="M-398.5,409.5c1,2.5,1.5,4.5,2,4.5s1-2,2-4.5
			H-398.5z"/>
	</g>
	<g>
		<path fill="#464545" d="M-399.452,407.426c0.005,0.024,0.016,0.046,0.021,0.07c0.03,0.114,0.066,0.228,0.115,0.333
			c0.006,0.013,0.014,0.023,0.02,0.036c0.057,0.115,0.123,0.227,0.2,0.329c0.001,0.001,0.002,0.002,0.003,0.004
			c0.084,0.109,0.179,0.211,0.283,0.302h2.62c0.419-0.366,0.69-0.899,0.69-1.5c0-0.738-0.405-1.377-1.001-1.723
			c-0.135-0.079-0.281-0.139-0.433-0.186c-0.022-0.007-0.045-0.016-0.068-0.021c-0.159-0.043-0.325-0.07-0.499-0.07
			c-1.104,0-2,0.896-2,2C-399.5,407.146-399.483,407.289-399.452,407.426z"/>
		<path fill="#464545" d="M-394.75,407c0,0.554-0.167,1.068-0.45,1.5h1.01c0.419-0.366,0.69-0.899,0.69-1.5c0-1.104-0.896-2-2-2
			c-0.037,0-0.07,0.013-0.106,0.015C-395.081,405.516-394.75,406.219-394.75,407z"/>
	</g>
	<path fill="#464545" d="M-398.5,409.5c1,2.5,1.5,4.5,2,4.5s1-2,2-4.5H-398.5z"/>
</g>
</svg>
