<?xml version="1.0" encoding="UTF-8" standalone="no"?>
<!-- Created with Inkscape (http://www.inkscape.org/) -->

<svg
   xmlns:dc="http://purl.org/dc/elements/1.1/"
   xmlns:cc="http://creativecommons.org/ns#"
   xmlns:rdf="http://www.w3.org/1999/02/22-rdf-syntax-ns#"
   xmlns:svg="http://www.w3.org/2000/svg"
   xmlns="http://www.w3.org/2000/svg"
   xmlns:inkscape="http://www.inkscape.org/namespaces/inkscape"
   version="1.1"
   width="18"
   height="18"
   viewBox="-402.5 403.5 18 18"
   id="svg4619"
   xml:space="preserve"><metadata
     id="metadata23"><rdf:RDF><cc:Work
         rdf:about=""><dc:format>image/svg+xml</dc:format><dc:type
           rdf:resource="http://purl.org/dc/dcmitype/StillImage" /></cc:Work></rdf:RDF></metadata><defs
     id="defs21" /><g
     id="ice-cream3_3_"><g
       id="g4"><path
         d="m -390,412.5 h -7 c 0,0 2.439,5.9 2.5,6 0.128,0.344 0.5,1 1,1 0.5,0 0.871,-0.656 1,-1 0.061,-0.1 2.5,-6 2.5,-6 z"
         inkscape:connector-curvature="0"
         id="path6"
         style="opacity:0.3;fill:#ffffff;stroke:#ffffff;stroke-width:2;stroke-miterlimit:10" /><path
         d="m -392.78,411.501 c 0.48,-0.532 0.78,-1.229 0.78,-2.001 0,-1.656 -1.343,-3 -3,-3 -1.657,0 -3,1.344 -3,3 0,0.772 0.3,1.469 0.78,2.001 h 4.44 z"
         inkscape:connector-curvature="0"
         id="path8"
         style="opacity:0.3;fill:#ffffff;stroke:#ffffff;stroke-width:2;stroke-miterlimit:10" /><path
         d="m -391.554,411.501 h 1.774 c 0.48,-0.532 0.78,-1.229 0.78,-2.001 0,-1.656 -1.343,-3 -3,-3 -0.117,0 -0.387,-0.013 -0.5,0 0.817,0.733 1.5,1.819 1.5,3 0,0.706 -0.197,1.393 -0.554,2.001 z"
         inkscape:connector-curvature="0"
         id="path10"
         style="opacity:0.3;fill:#ffffff;stroke:#ffffff;stroke-width:2;stroke-miterlimit:10" /></g><path
       d="m -392.78,411.501 c 0.48,-0.532 0.78,-1.229 0.78,-2.001 0,-1.656 -1.343,-3 -3,-3 -1.657,0 -3,1.344 -3,3 0,0.772 0.3,1.469 0.78,2.001 h 4.44 z"
       inkscape:connector-curvature="0"
       id="path12"
       style="fill:#464545" /><path
       d="m -391.554,411.501 h 1.774 c 0.48,-0.532 0.78,-1.229 0.78,-2.001 0,-1.656 -1.343,-3 -3,-3 -0.117,0 -0.387,-0.013 -0.5,0 0.817,0.733 1.5,1.819 1.5,3 0,0.706 -0.197,1.393 -0.554,2.001 z"
       inkscape:connector-curvature="0"
       id="path14"
       style="fill:#464545" /><path
       d="m -390,412.5 h -7 c 0,0 2.439,5.9 2.5,6 0.128,0.344 0.5,1 1,1 0.5,0 0.871,-0.656 1,-1 0.061,-0.1 2.5,-6 2.5,-6 z"
       inkscape:connector-curvature="0"
       id="path16"
       style="fill:#464545" /></g><rect
     width="18"
     height="18"
     x="0"
     y="0"
     id="canvas"
     style="fill:none;stroke:none;visibility:hidden" /></svg>