<?xml version="1.0" encoding="utf-8"?>
<!-- Generator: Adobe Illustrator 15.1.0, SVG Export Plug-In . SVG Version: 6.00 Build 0)  -->
<!DOCTYPE svg PUBLIC "-//W3C//DTD SVG 1.1//EN" "http://www.w3.org/Graphics/SVG/1.1/DTD/svg11.dtd">
<svg version="1.1"
	 id="svg4619" xmlns:dc="http://purl.org/dc/elements/1.1/" xmlns:rdf="http://www.w3.org/1999/02/22-rdf-syntax-ns#" xmlns:cc="http://creativecommons.org/ns#" inkscape:version="0.48.2 r9819" sodipodi:docname="maki-18-base.svg" xmlns:sodipodi="http://sodipodi.sourceforge.net/DTD/sodipodi-0.dtd" xmlns:inkscape="http://www.inkscape.org/namespaces/inkscape" xmlns:svg="http://www.w3.org/2000/svg"
	 xmlns="http://www.w3.org/2000/svg" xmlns:xlink="http://www.w3.org/1999/xlink" x="0px" y="0px" width="18px" height="18px"
	 viewBox="-402.5 403.5 18 18" enable-background="new -402.5 403.5 18 18" xml:space="preserve">
<g id="ice-cream3_3_">
	<g>
		<path opacity="0.3" fill="#FFFFFF" stroke="#FFFFFF" stroke-width="2" stroke-miterlimit="10" enable-background="new    " d="
			M-390,412.5h-7c0,0,2.439,5.9,2.5,6c0.128,0.344,0.5,1,1,1s0.871-0.656,1-1C-392.439,418.4-390,412.5-390,412.5z"/>
		<path opacity="0.3" fill="#FFFFFF" stroke="#FFFFFF" stroke-width="2" stroke-miterlimit="10" enable-background="new    " d="
			M-392.78,411.501c0.48-0.532,0.78-1.229,0.78-2.001c0-1.656-1.343-3-3-3s-3,1.344-3,3c0,0.772,0.3,1.469,0.78,2.001H-392.78z"/>
		<path opacity="0.3" fill="#FFFFFF" stroke="#FFFFFF" stroke-width="2" stroke-miterlimit="10" enable-background="new    " d="
			M-391.554,411.501h1.774c0.48-0.532,0.78-1.229,0.78-2.001c0-1.656-1.343-3-3-3c-0.117,0-0.387-0.013-0.5,0
			c0.817,0.733,1.5,1.819,1.5,3C-391,410.206-391.197,410.893-391.554,411.501z"/>
	</g>
	<path fill="#464545" d="M-392.78,411.501c0.48-0.532,0.78-1.229,0.78-2.001c0-1.656-1.343-3-3-3s-3,1.344-3,3
		c0,0.772,0.3,1.469,0.78,2.001H-392.78z"/>
	<path fill="#464545" d="M-391.554,411.501h1.774c0.48-0.532,0.78-1.229,0.78-2.001c0-1.656-1.343-3-3-3c-0.117,0-0.387-0.013-0.5,0
		c0.817,0.733,1.5,1.819,1.5,3C-391,410.206-391.197,410.893-391.554,411.501z"/>
	<path fill="#464545" d="M-390,412.5h-7c0,0,2.439,5.9,2.5,6c0.128,0.344,0.5,1,1,1s0.871-0.656,1-1
		C-392.439,418.4-390,412.5-390,412.5z"/>
</g>
</svg>
