<?xml version="1.0" encoding="utf-8"?>
<!-- Generator: Adobe Illustrator 15.1.0, SVG Export Plug-In . SVG Version: 6.00 Build 0)  -->
<!DOCTYPE svg PUBLIC "-//W3C//DTD SVG 1.1//EN" "http://www.w3.org/Graphics/SVG/1.1/DTD/svg11.dtd">
<svg version="1.1"
	 id="svg4764" xmlns:rdf="http://www.w3.org/1999/02/22-rdf-syntax-ns#" xmlns:svg="http://www.w3.org/2000/svg" xmlns:dc="http://purl.org/dc/elements/1.1/" sodipodi:docname="marker-stroked-12.svg" xmlns:inkscape="http://www.inkscape.org/namespaces/inkscape" inkscape:version="0.48.2 r9819" xmlns:cc="http://creativecommons.org/ns#" xmlns:sodipodi="http://sodipodi.sourceforge.net/DTD/sodipodi-0.dtd"
	 xmlns="http://www.w3.org/2000/svg" xmlns:xlink="http://www.w3.org/1999/xlink" x="0px" y="0px" width="12px" height="12px"
	 viewBox="-402.5 403.5 12 12" enable-background="new -402.5 403.5 12 12" xml:space="preserve">
<sodipodi:namedview  pagecolor="#ffffff" inkscape:zoom="22.627417" bordercolor="#666666" borderopacity="1.0" inkscape:pageopacity="0.0" inkscape:pageshadow="2" inkscape:cx="5.4435686" inkscape:cy="2.8129693" inkscape:document-units="px" inkscape:current-layer="layer1" showgrid="true" showguides="true" inkscape:guide-bbox="true" inkscape:window-width="957" inkscape:window-height="704" inkscape:window-x="96" inkscape:window-y="60" inkscape:window-maximized="0" id="base">
	<inkscape:grid  type="xygrid" enabled="true" empspacing="5" visible="true" snapvisiblegridlinesonly="true" id="grid4772">
		</inkscape:grid>
	<sodipodi:guide  orientation="0,1" position="2,12" id="guide4789"></sodipodi:guide>
	<sodipodi:guide  orientation="1,0" position="12,10" id="guide4791"></sodipodi:guide>
	<sodipodi:guide  orientation="0,1" position="10,0" id="guide4793"></sodipodi:guide>
	<sodipodi:guide  orientation="1,0" position="0,9" id="guide4795"></sodipodi:guide>
	<sodipodi:guide  orientation="0,1" position="5,11" id="guide4797"></sodipodi:guide>
	<sodipodi:guide  orientation="1,0" position="11,7" id="guide4799"></sodipodi:guide>
	<sodipodi:guide  orientation="0,1" position="9,2" id="guide4801"></sodipodi:guide>
	<sodipodi:guide  orientation="1,0" position="2,5" id="guide4803"></sodipodi:guide>
</sodipodi:namedview>
<g id="layer1" transform="translate(0,-1040.3622)" inkscape:label="Layer 1" inkscape:groupmode="layer">
</g>
<g id="ice-cream3_1_">
	<g opacity="0.3" enable-background="new    ">
		<path fill="#FFFFFF" stroke="#FFFFFF" stroke-width="2" stroke-miterlimit="10" d="M-393.5,408.5c0.258-0.443,0.5-0.951,0.5-1.5
			c0-1.656-1.343-3-3-3s-3,1.344-3,3c0,0.549,0.242,1.057,0.5,1.5H-393.5z"/>
		<path fill="#FFFFFF" stroke="#FFFFFF" stroke-width="2" stroke-miterlimit="10" d="M-393.5,409.5h-5c0,0,1.46,3.934,1.5,4
			c0.085,0.226,0.5,1,1,1s0.914-0.774,1-1C-394.96,413.434-393.5,409.5-393.5,409.5z"/>
	</g>
	<path fill="#464545" d="M-393.5,409.5h-5c0,0,1.46,3.934,1.5,4c0.085,0.226,0.5,1,1,1s0.914-0.774,1-1
		C-394.96,413.434-393.5,409.5-393.5,409.5z"/>
	<path fill="#464545" d="M-396,404c-1.657,0-3,1.344-3,3c0,0.549,0.242,1.057,0.5,1.5h5c0.258-0.443,0.5-0.951,0.5-1.5
		C-393,405.344-394.343,404-396,404z M-396,406c-0.551,0-1,0.448-1,1c0,0.276-0.224,0.5-0.5,0.5s-0.5-0.224-0.5-0.5
		c0-1.103,0.897-2,2-2c0.276,0,0.5,0.224,0.5,0.5S-395.724,406-396,406z"/>
</g>
</svg>
