<?xml version="1.0" encoding="utf-8"?>
<!-- Generator: Adobe Illustrator 18.0.0, SVG Export Plug-In . SVG Version: 6.00 Build 0)  -->
<!DOCTYPE svg PUBLIC "-//W3C//DTD SVG 1.1//EN" "http://www.w3.org/Graphics/SVG/1.1/DTD/svg11.dtd" [
	<!ENTITY ns_flows "http://ns.adobe.com/Flows/1.0/">
	<!ENTITY ns_extend "http://ns.adobe.com/Extensibility/1.0/">
	<!ENTITY ns_ai "http://ns.adobe.com/AdobeIllustrator/10.0/">
	<!ENTITY ns_graphs "http://ns.adobe.com/Graphs/1.0/">
	<!ENTITY st0 "opacity:0.5;">
	<!ENTITY st1 "fill:#010101;">
	<!ENTITY st2 "opacity:0.75;">
	<!ENTITY st3 "fill:#FFFFFF;">
]>
<svg version="1.1" id="Layer_1" xmlns:x="&ns_extend;" xmlns:i="&ns_ai;" xmlns:graph="&ns_graphs;"
	 xmlns="http://www.w3.org/2000/svg" xmlns:xlink="http://www.w3.org/1999/xlink" xmlns:a="http://ns.adobe.com/AdobeSVGViewerExtensions/3.0/"
	 x="0px" y="0px" width="23px" height="24px" viewBox="0 0 23 24" style="enable-background:new 0 0 23 24;" xml:space="preserve">
<g style="&st0;">
	<rect x="2" y="20" style="&st1;" width="1" height="1"/>
	<rect x="2" y="19" style="&st1;" width="1" height="1"/>
	<rect x="3" y="21" style="&st1;" width="1" height="1"/>
	<rect x="4" y="22" style="&st1;" width="1" height="1"/>
	<rect x="5" y="23" style="&st1;" width="1" height="1"/>
	<rect x="3" y="20" style="&st1;" width="1" height="1"/>
	<rect x="4" y="21" style="&st1;" width="1" height="1"/>
	<rect x="5" y="22" style="&st1;" width="1" height="1"/>
	<rect x="6" y="23" style="&st1;" width="1" height="1"/>
	<rect x="7" y="23" style="&st1;" width="1" height="1"/>
	<rect x="21" y="22" style="&st1;" width="1" height="2"/>
	<rect x="15" y="23" style="&st1;" width="7" height="1"/>
	<polygon style="&st1;" points="13,15 12,15 12,14 10,14 10,15 9,15 9,16 8,16 8,17 7,17 7,18 6,18 6,19 5,19 5,21 6,21 6,22 7,22 
		7,21 8,21 8,20 9,20 9,19 10,19 10,18 11,18 11,17 12,17 12,16 13,16 	"/>
	<polygon style="&st1;" points="8,5 7,6 8,7 15,7 15,8 14,8 14,9 13,9 13,10 12,10 12,13 13,13 13,14 14,14 14,15 15,15 15,16 
		16,16 16,17 16,21 17,22 18,22 19,21 19,15 18,15 18,14 17,14 17,13 16,13 16,12 17,12 17,11 18,11 18,10 19,10 19,9 20,9 20,6 
		19,6 19,5 	"/>
	<polygon style="&st1;" points="20,2 22,2 22,3 23,3 23,5 22,5 22,6 20,6 20,5 19,5 19,3 20,3 	"/>
</g>
<g style="&st2;">
	<rect x="1" y="19" style="&st1;" width="1" height="1"/>
	<rect x="1" y="18" style="&st1;" width="1" height="1"/>
	<rect x="2" y="20" style="&st1;" width="1" height="1"/>
	<rect x="3" y="21" style="&st1;" width="1" height="1"/>
	<rect x="4" y="22" style="&st1;" width="1" height="1"/>
	<rect x="2" y="19" style="&st1;" width="1" height="1"/>
	<rect x="3" y="20" style="&st1;" width="1" height="1"/>
	<rect x="4" y="21" style="&st1;" width="1" height="1"/>
	<rect x="5" y="22" style="&st1;" width="1" height="1"/>
	<rect x="6" y="22" style="&st1;" width="1" height="1"/>
	<rect x="20" y="21" style="&st1;" width="1" height="2"/>
	<rect x="14" y="22" style="&st1;" width="7" height="1"/>
	<polygon style="&st1;" points="12,14 11,14 11,13 9,13 9,14 8,14 8,15 7,15 7,16 6,16 6,17 5,17 5,18 4,18 4,20 5,20 5,21 6,21 
		6,20 7,20 7,19 8,19 8,18 9,18 9,17 10,17 10,16 11,16 11,15 12,15 	"/>
	<polygon style="&st1;" points="7,4 6,5 7,6 14,6 14,7 13,7 13,8 12,8 12,9 11,9 11,12 12,12 12,13 13,13 13,14 14,14 14,15 15,15 
		15,16 15,20 16,21 17,21 18,20 18,14 17,14 17,13 16,13 16,12 15,12 15,11 16,11 16,10 17,10 17,9 18,9 18,8 19,8 19,5 18,5 18,4 	
		"/>
	<polygon style="&st1;" points="19,1 21,1 21,2 22,2 22,4 21,4 21,5 19,5 19,4 18,4 18,2 19,2 	"/>
</g>
<g>
	<rect y="18" style="&st3;" width="1" height="1"/>
	<rect y="17" style="&st3;" width="1" height="1"/>
	<rect x="1" y="19" style="&st3;" width="1" height="1"/>
	<rect x="2" y="20" style="&st3;" width="1" height="1"/>
	<rect x="3" y="21" style="&st3;" width="1" height="1"/>
	<rect x="1" y="18" style="&st3;" width="1" height="1"/>
	<rect x="2" y="19" style="&st3;" width="1" height="1"/>
	<rect x="3" y="20" style="&st3;" width="1" height="1"/>
	<rect x="4" y="21" style="&st3;" width="1" height="1"/>
	<rect x="5" y="21" style="&st3;" width="1" height="1"/>
	<rect x="19" y="20" style="&st3;" width="1" height="2"/>
	<rect x="13" y="21" style="&st3;" width="7" height="1"/>
	<polygon style="&st3;" points="11,13 10,13 10,12 8,12 8,13 7,13 7,14 6,14 6,15 5,15 5,16 4,16 4,17 3,17 3,19 4,19 4,20 5,20 
		5,19 6,19 6,18 7,18 7,17 8,17 8,16 9,16 9,15 10,15 10,14 11,14 	"/>
	<polygon style="&st3;" points="6,3 5,4 6,5 13,5 13,6 12,6 12,7 11,7 11,8 10,8 10,11 11,11 11,12 12,12 12,13 13,13 13,14 14,14 
		14,15 14,19 15,20 16,20 17,19 17,13 16,13 16,12 15,12 15,11 14,11 14,10 15,10 15,9 16,9 16,8 17,8 17,7 18,7 18,4 17,4 17,3 	
		"/>
	<polygon style="&st3;" points="18,0 20,0 20,1 21,1 21,3 20,3 20,4 18,4 18,3 17,3 17,1 18,1 	"/>
</g>
</svg>
