<?xml version="1.0" encoding="UTF-8" standalone="no"?>
<!-- Created with Inkscape (http://www.inkscape.org/) -->

<svg
   xmlns:dc="http://purl.org/dc/elements/1.1/"
   xmlns:cc="http://creativecommons.org/ns#"
   xmlns:rdf="http://www.w3.org/1999/02/22-rdf-syntax-ns#"
   xmlns:svg="http://www.w3.org/2000/svg"
   xmlns="http://www.w3.org/2000/svg"
   xmlns:inkscape="http://www.inkscape.org/namespaces/inkscape"
   version="1.1"
   width="18"
   height="18"
   id="svg4619">
  <defs
     id="defs4621" />
  <metadata
     id="metadata4624">
    <rdf:RDF>
      <cc:Work
         rdf:about="">
        <dc:format>image/svg+xml</dc:format>
        <dc:type
           rdf:resource="http://purl.org/dc/dcmitype/StillImage" />
        <dc:title />
      </cc:Work>
    </rdf:RDF>
  </metadata>
  <g
     transform="translate(0,-1034.3622)"
     id="layer1">
    <g
       transform="translate(-654,-63.999983)"
       id="industrial-18"
       style="display:inline">
      <path
         d="m 666,1101.3622 c 0,1.6667 0,4 0,4 l -2,0 0,-2.4706 -3,2.4706 0,-2.4706 -3.17647,2.4706 C 657.46338,1105.6423 657,1105.774 657,1106.5975 l 0,5.9412 c 0,0.4562 0.36729,0.8235 0.82353,0.8235 l 11.35294,0 c 0.45624,0 0.82353,-0.3673 0.82353,-0.8235 l 0,-6.3529 c 0,-0.4563 -0.36729,-0.8236 -0.82353,-0.8236 l -1.17647,0 c 0,0 0,-2.3333 0,-4 l -1,-1 z"
         inkscape:connector-curvature="0"
         id="path11851"
         style="opacity:0.3;color:#000000;fill:#ffffff;fill-opacity:1;fill-rule:nonzero;stroke:#ffffff;stroke-width:2;stroke-linecap:butt;stroke-linejoin:round;stroke-miterlimit:4;stroke-opacity:1;stroke-dasharray:none;stroke-dashoffset:0;marker:none;visibility:visible;display:inline;overflow:visible;enable-background:accumulate" />
      <path
         d="m 666,1101.3622 c 0,1.6667 0,4 0,4 l -2,0 0,-2.4706 -3,2.4706 0,-2.4706 -3.17647,2.4706 C 657.46338,1105.6423 657,1105.774 657,1106.5975 l 0,5.9412 c 0,0.4562 0.36729,0.8235 0.82353,0.8235 l 11.35294,0 c 0.45624,0 0.82353,-0.3673 0.82353,-0.8235 l 0,-6.3529 c 0,-0.4563 -0.36729,-0.8236 -0.82353,-0.8236 l -1.17647,0 c 0,0 0,-2.3333 0,-4 l -1,-1 z"
         inkscape:connector-curvature="0"
         id="path9168"
         style="color:#000000;fill:#444444;fill-opacity:1;fill-rule:nonzero;stroke:none;stroke-width:2;marker:none;visibility:visible;display:inline;overflow:visible;enable-background:accumulate" />
    </g>
  </g>
  <rect
     width="18"
     height="18"
     x="0"
     y="0"
     id="canvas"
     style="fill:none;stroke:none;visibility:hidden" />
</svg>
