<?xml version="1.0" encoding="UTF-8" standalone="no"?>
<svg width="18px" height="18px" viewBox="0 0 18 18" version="1.1" xmlns="http://www.w3.org/2000/svg" xmlns:xlink="http://www.w3.org/1999/xlink" xmlns:sketch="http://www.bohemiancoding.com/sketch/ns">
    <!-- Generator: Sketch 3.2.2 (9983) - http://www.bohemiancoding.com/sketch -->
    <title>information-black-18</title>
    <desc>Created with Sketch.</desc>
    <defs></defs>
    <g id="Page-1" stroke="none" stroke-width="1" fill="none" fill-rule="evenodd" sketch:type="MSPage">
        <path d="M10.1111111,13.6794349 L11.5925926,13.6794349 L11.5925926,15.1393643 L10.1111111,15.1393643 L10.1111111,13.6794349 Z" id="Fill-515" opacity="0.1" fill="#0A0B09" sketch:type="MSShapeGroup"></path>
        <path d="M10.1111111,12.9494703 L11.5925926,12.9494703 L11.5925926,11.4895409 L13.0740741,10.0296115 L13.8148148,8.62807933 L13.8148148,7.10975278 L12.3333333,5.64982342 L10.1111111,5.64982342 L8.62962963,6.3797881 L7.88888889,7.83971747 L7.88888889,9.29964684 L9.37037037,9.29964684 L9.37037037,7.83971747 L10.1111111,7.10975278 L11.5925926,7.10975278 L12.3333333,7.83971747 L12.3333333,8.56968215 L11.5925926,10.0296115 L10.1111111,11.4895409 L10.1111111,12.9494703" id="Fill-516" opacity="0.1" fill="#0A0B09" sketch:type="MSShapeGroup"></path>
        <path d="M10.8518519,3.09494703 C6.96296296,3.09494703 3.81481481,6.20459658 3.81481481,10.0296115 C3.81481481,13.8619261 6.96296296,16.964276 10.8518519,16.964276 C14.7407407,16.964276 17.8888889,13.8619261 17.8888889,10.0296115 C17.8888889,6.20459658 14.7407407,3.09494703 10.8518519,3.09494703 L10.8518519,3.09494703 Z M19,10.0296115 C19,14.4677968 15.3555556,18.059223 10.8518519,18.059223 C6.34814815,18.059223 2.7037037,14.4677968 2.7037037,10.0296115 C2.7037037,5.59872589 6.34814815,2 10.8518519,2 C15.3555556,2 19,5.59872589 19,10.0296115 L19,10.0296115 Z" id="Fill-517" opacity="0.1" fill="#0A0B09" sketch:type="MSShapeGroup"></path>
        <path d="M9.11111111,12.6794349 L10.5925926,12.6794349 L10.5925926,14.1393643 L9.11111111,14.1393643 L9.11111111,12.6794349 Z" id="Fill-515" opacity="0.2" fill="#0A0B09" sketch:type="MSShapeGroup"></path>
        <path d="M9.11111111,11.9494703 L10.5925926,11.9494703 L10.5925926,10.4895409 L12.0740741,9.02961152 L12.8148148,7.62807933 L12.8148148,6.10975278 L11.3333333,4.64982342 L9.11111111,4.64982342 L7.62962963,5.3797881 L6.88888889,6.83971747 L6.88888889,8.29964684 L8.37037037,8.29964684 L8.37037037,6.83971747 L9.11111111,6.10975278 L10.5925926,6.10975278 L11.3333333,6.83971747 L11.3333333,7.56968215 L10.5925926,9.02961152 L9.11111111,10.4895409 L9.11111111,11.9494703" id="Fill-516" opacity="0.2" fill="#0A0B09" sketch:type="MSShapeGroup"></path>
        <path d="M9.85185185,2.09494703 C5.96296296,2.09494703 2.81481481,5.20459658 2.81481481,9.02961152 C2.81481481,12.8619261 5.96296296,15.964276 9.85185185,15.964276 C13.7407407,15.964276 16.8888889,12.8619261 16.8888889,9.02961152 C16.8888889,5.20459658 13.7407407,2.09494703 9.85185185,2.09494703 L9.85185185,2.09494703 Z M18,9.02961152 C18,13.4677968 14.3555556,17.059223 9.85185185,17.059223 C5.34814815,17.059223 1.7037037,13.4677968 1.7037037,9.02961152 C1.7037037,4.59872589 5.34814815,1 9.85185185,1 C14.3555556,1 18,4.59872589 18,9.02961152 L18,9.02961152 Z" id="Fill-517" opacity="0.2" fill="#0A0B09" sketch:type="MSShapeGroup"></path>
        <path d="M8.11111111,11.6794349 L9.59259259,11.6794349 L9.59259259,13.1393643 L8.11111111,13.1393643 L8.11111111,11.6794349 Z" id="Fill-515" fill="#0A0B09" sketch:type="MSShapeGroup"></path>
        <path d="M8.11111111,10.9494703 L9.59259259,10.9494703 L9.59259259,9.48954089 L11.0740741,8.02961152 L11.8148148,6.62807933 L11.8148148,5.10975278 L10.3333333,3.64982342 L8.11111111,3.64982342 L6.62962963,4.3797881 L5.88888889,5.83971747 L5.88888889,7.29964684 L7.37037037,7.29964684 L7.37037037,5.83971747 L8.11111111,5.10975278 L9.59259259,5.10975278 L10.3333333,5.83971747 L10.3333333,6.56968215 L9.59259259,8.02961152 L8.11111111,9.48954089 L8.11111111,10.9494703" id="Fill-516" fill="#0A0B09" sketch:type="MSShapeGroup"></path>
        <path d="M8.85185185,1.09494703 C4.96296296,1.09494703 1.81481481,4.20459658 1.81481481,8.02961152 C1.81481481,11.8619261 4.96296296,14.964276 8.85185185,14.964276 C12.7407407,14.964276 15.8888889,11.8619261 15.8888889,8.02961152 C15.8888889,4.20459658 12.7407407,1.09494703 8.85185185,1.09494703 L8.85185185,1.09494703 Z M17,8.02961152 C17,12.4677968 13.3555556,16.059223 8.85185185,16.059223 C4.34814815,16.059223 0.703703704,12.4677968 0.703703704,8.02961152 C0.703703704,3.59872589 4.34814815,0 8.85185185,0 C13.3555556,0 17,3.59872589 17,8.02961152 L17,8.02961152 Z" id="Fill-517" fill="#0A0B09" sketch:type="MSShapeGroup"></path>
    </g>
</svg>