<?xml version="1.0" encoding="utf-8"?>
<!-- Generator: Adobe Illustrator 18.1.1, SVG Export Plug-In . SVG Version: 6.00 Build 0)  -->
<svg version="1.1" xmlns="http://www.w3.org/2000/svg" xmlns:xlink="http://www.w3.org/1999/xlink" x="0px" y="0px"
	 viewBox="0 0 12 12" enable-background="new 0 0 12 12" xml:space="preserve">
<g id="shadows">
	<g opacity="0.2">
		<path d="M10.9,4.2v-1h-0.6V2.6H9.6V2H8.9v0.2H8.8V1.5H5.2v0.6H5.1V2H4.4v0.6H3.8v0.6H3.1v1H2.5v3.5h0.6v1h0.6v0.6h0.6V10h0.6V9.9
			h0.2v0.6h3.5V9.9h0.2V10h0.6V9.4h0.6V8.7h0.6v-1h0.6V4.2H10.9z M10.2,7.8v0.6H9.6v0.6H8.9v0.6H8.8L8.3,9.9H5.7L5.2,9.7H5.1V9.1
			H4.4V8.4H3.8V7.8H3.3V4.2h0.5V3.6h0.6V2.9h0.6V2.3h0.2h0.5h2.6h0.5h0.2v0.6h0.6v0.6h0.6v0.6h0.5v3.5H10.2z"/>
		<rect x="6.4" y="8.6" width="1.3" height="0.6"/>
		<polygon points="8.3,4.1 8.3,3.4 6.4,3.4 6.4,3.6 5.7,3.6 5.7,4.1 5.7,4.4 5.1,4.4 5.1,4.7 5.1,4.8 5.1,5.4 6.4,5.4 6.4,4.7 
			7.6,4.7 7.6,6 7,6 7,6.6 6.4,6.6 6.4,7.9 7.6,7.9 7.6,6.6 8.3,6.6 8.3,6 8.9,6 8.9,4.1 		"/>
	</g>
</g>
<g id="icons">
	<g>
		<path fill="#FFFFFF" d="M10.4,3.7v-1H9.7V2.1H9.1V1.5H8.4v0.2H8.3V1H4.7v0.6H4.6V1.5H3.9v0.6H3.3v0.6H2.6v1H2v3.5h0.6v1h0.6v0.6
			h0.6v0.6h0.6V9.4h0.2V10h3.5V9.4h0.2v0.2h0.6V8.9h0.6V8.2h0.6v-1H11V3.7H10.4z M9.7,7.3v0.6H9.1v0.6H8.4v0.6H8.3L7.8,9.4H5.2
			L4.7,9.2H4.6V8.6H3.9V7.9H3.3V7.3H2.8V3.7h0.5V3.1h0.6V2.4h0.6V1.8h0.2h0.5h2.6h0.5h0.2v0.6h0.6v0.6h0.6v0.6h0.5v3.5H9.7z"/>
		<rect x="5.9" y="8.1" fill="#FFFFFF" width="1.3" height="0.6"/>
		<polygon fill="#FFFFFF" points="7.8,3.6 7.8,2.9 5.9,2.9 5.9,3.1 5.2,3.1 5.2,3.6 5.2,3.9 4.6,3.9 4.6,4.2 4.6,4.3 4.6,4.9 
			5.9,4.9 5.9,4.2 7.1,4.2 7.1,5.5 6.5,5.5 6.5,6.1 5.9,6.1 5.9,7.4 7.1,7.4 7.1,6.1 7.8,6.1 7.8,5.5 8.4,5.5 8.4,3.6 		"/>
	</g>
</g>
<g id="guides">
</g>
</svg>
