<?xml version="1.0" encoding="utf-8"?>
<!-- Generator: Adobe Illustrator 18.1.1, SVG Export Plug-In . SVG Version: 6.00 Build 0)  -->
<svg version="1.1" xmlns="http://www.w3.org/2000/svg" xmlns:xlink="http://www.w3.org/1999/xlink" x="0px" y="0px"
	 viewBox="0 0 24 24" enable-background="new 0 0 24 24" xml:space="preserve">
<g id="shadows">
	<g opacity="0.2">
		<rect x="12.7" y="16.4" width="1.5" height="1.5"/>
		<polygon points="12.7,15.6 14.3,15.6 14.3,14 15.8,12.5 16.6,11 16.6,9.4 15,7.9 14.3,7.9 12.7,7.9 11.2,8.6 10.4,10.2 10.4,11.7 
			12,11.7 12,10.2 12.7,9.4 14.3,9.4 15,10.2 15,11 14.3,12.5 12.7,14 		"/>
		<path d="M22,12.5c0,4.7-3.8,8.5-8.5,8.5S5,17.2,5,12.5S8.8,4,13.5,4S22,7.8,22,12.5z M13.5,5.2c-4.1,0-7.3,3.3-7.3,7.3
			s3.3,7.3,7.3,7.3s7.3-3.3,7.3-7.3S17.6,5.2,13.5,5.2z"/>
	</g>
</g>
<g id="icons">
	<g>
		<rect x="11.7" y="15.4" fill="#FFFFFF" width="1.5" height="1.5"/>
		<polygon fill="#FFFFFF" points="11.7,14.6 13.3,14.6 13.3,13 14.8,11.5 15.6,10 15.6,8.4 14,6.9 13.3,6.9 11.7,6.9 10.2,7.6 
			9.4,9.2 9.4,10.7 11,10.7 11,9.2 11.7,8.4 13.3,8.4 14,9.2 14,10 13.3,11.5 11.7,13 		"/>
		<path fill="#FFFFFF" d="M21,11.5c0,4.7-3.8,8.5-8.5,8.5S4,16.2,4,11.5S7.8,3,12.5,3S21,6.8,21,11.5z M12.5,4.2
			c-4.1,0-7.3,3.3-7.3,7.3s3.3,7.3,7.3,7.3s7.3-3.3,7.3-7.3S16.6,4.2,12.5,4.2z"/>
	</g>
</g>
<g id="guides">
</g>
</svg>
