<?xml version="1.0" encoding="utf-8"?>
<!-- Generator: Adobe Illustrator 18.0.0, SVG Export Plug-In . SVG Version: 6.00 Build 0)  -->
<!DOCTYPE svg PUBLIC "-//W3C//DTD SVG 1.1//EN" "http://www.w3.org/Graphics/SVG/1.1/DTD/svg11.dtd" [
	<!ENTITY ns_flows "http://ns.adobe.com/Flows/1.0/">
	<!ENTITY ns_extend "http://ns.adobe.com/Extensibility/1.0/">
	<!ENTITY ns_ai "http://ns.adobe.com/AdobeIllustrator/10.0/">
	<!ENTITY ns_graphs "http://ns.adobe.com/Graphs/1.0/">
	<!ENTITY st0 "opacity:0.5;">
	<!ENTITY st1 "fill:#010101;">
	<!ENTITY st2 "opacity:0.75;">
	<!ENTITY st3 "fill:#FFFFFF;">
]>
<svg version="1.1" id="Layer_1" xmlns:x="&ns_extend;" xmlns:i="&ns_ai;" xmlns:graph="&ns_graphs;"
	 xmlns="http://www.w3.org/2000/svg" xmlns:xlink="http://www.w3.org/1999/xlink" xmlns:a="http://ns.adobe.com/AdobeSVGViewerExtensions/3.0/"
	 x="0px" y="0px" width="24px" height="24px" viewBox="0 0 24 24" style="enable-background:new 0 0 24 24;" xml:space="preserve">
<g style="&st0;">
	<rect x="12" y="18" style="&st1;" width="2" height="2"/>
	<polygon style="&st1;" points="12,17 14,17 14,15 16,13 17,11.1 17,9 15,7 14,7 12,7 10,8 9,10 9,12 11,12 11,10 12,9 14,9 15,10 
		15,11 14,13 12,15 	"/>
	<path style="&st1;" d="M24,13c0,6.1-4.9,11-11,11S2,19.1,2,13S6.9,2,13,2S24,6.9,24,13z M13,3.5c-5.2,0-9.5,4.3-9.5,9.5
		s4.3,9.5,9.5,9.5s9.5-4.3,9.5-9.5S18.2,3.5,13,3.5z"/>
</g>
<g style="&st2;">
	<rect x="11" y="17" style="&st1;" width="2" height="2"/>
	<polygon style="&st1;" points="11,16 13,16 13,14 15,12 16,10.1 16,8 14,6 13,6 11,6 9,7 8,9 8,11 10,11 10,9 11,8 13,8 14,9 
		14,10 13,12 11,14 	"/>
	<path style="&st1;" d="M23,12c0,6.1-4.9,11-11,11S1,18.1,1,12S5.9,1,12,1S23,5.9,23,12z M12,2.5c-5.2,0-9.5,4.3-9.5,9.5
		s4.3,9.5,9.5,9.5s9.5-4.3,9.5-9.5S17.2,2.5,12,2.5z"/>
</g>
<g>
	<rect x="10" y="16" style="&st3;" width="2" height="2"/>
	<polygon style="&st3;" points="10,15 12,15 12,13 14,11 15,9.1 15,7 13,5 12,5 10,5 8,6 7,8 7,10 9,10 9,8 10,7 12,7 13,8 13,9 
		12,11 10,13 	"/>
	<path style="&st3;" d="M22,11c0,6.1-4.9,11-11,11S0,17.1,0,11S4.9,0,11,0S22,4.9,22,11z M11,1.5c-5.2,0-9.5,4.3-9.5,9.5
		s4.3,9.5,9.5,9.5s9.5-4.3,9.5-9.5S16.2,1.5,11,1.5z"/>
</g>
</svg>
