<?xml version="1.0" encoding="utf-8"?>
<!-- Generator: Adobe Illustrator 18.1.1, SVG Export Plug-In . SVG Version: 6.00 Build 0)  -->
<svg version="1.1" xmlns="http://www.w3.org/2000/svg" xmlns:xlink="http://www.w3.org/1999/xlink" x="0px" y="0px"
	 viewBox="0 0 24 24" enable-background="new 0 0 24 24" xml:space="preserve">
<g id="shadows">
	<g opacity="0.2">
		<path d="M9.984,4.868C10.882,4.289,11.985,4,13.294,4c1.72,0,3.149,0.411,4.287,1.233s1.707,2.04,1.707,3.653
			c0,0.989-0.247,1.823-0.74,2.5c-0.289,0.411-0.843,0.936-1.663,1.576l-0.807,0.628c-0.441,0.343-0.733,0.742-0.877,1.199
			c-0.091,0.289-0.141,0.738-0.148,1.347h-3.094c0.046-1.286,0.167-2.175,0.363-2.666c0.198-0.491,0.706-1.056,1.526-1.695
			l0.832-0.651c0.272-0.206,0.493-0.43,0.66-0.674c0.303-0.419,0.455-0.879,0.455-1.381c0-0.578-0.169-1.106-0.506-1.581
			c-0.339-0.476-0.955-0.714-1.851-0.714c-0.881,0-1.505,0.293-1.874,0.879c-0.367,0.586-0.552,1.195-0.552,1.827h-3.3
			C7.803,7.311,8.56,5.773,9.984,4.868z M11.879,17.7h3.414V21h-3.414V17.7z"/>
	</g>
</g>
<g id="icons">
	<g>
		<path d="M8.984,3.868C9.882,3.289,10.985,3,12.294,3c1.72,0,3.149,0.411,4.287,1.233s1.707,2.04,1.707,3.653
			c0,0.989-0.247,1.823-0.74,2.5c-0.289,0.411-0.843,0.936-1.663,1.576l-0.807,0.628c-0.441,0.343-0.733,0.742-0.877,1.199
			c-0.091,0.289-0.141,0.738-0.148,1.347h-3.094c0.046-1.286,0.167-2.175,0.363-2.666c0.198-0.491,0.706-1.056,1.526-1.695
			l0.832-0.651c0.272-0.206,0.493-0.43,0.66-0.674c0.303-0.419,0.455-0.879,0.455-1.381c0-0.578-0.169-1.106-0.506-1.581
			c-0.339-0.476-0.955-0.714-1.851-0.714c-0.881,0-1.505,0.293-1.874,0.879c-0.367,0.586-0.552,1.195-0.552,1.827h-3.3
			C6.803,6.311,7.56,4.773,8.984,3.868z M10.879,16.7h3.414V20h-3.414V16.7z"/>
	</g>
</g>
<g id="sandbox">
</g>
</svg>
