<?xml version="1.0" encoding="UTF-8" standalone="no"?>
<!-- Created with Inkscape (http://www.inkscape.org/) -->

<svg
   xmlns:dc="http://purl.org/dc/elements/1.1/"
   xmlns:cc="http://creativecommons.org/ns#"
   xmlns:rdf="http://www.w3.org/1999/02/22-rdf-syntax-ns#"
   xmlns:svg="http://www.w3.org/2000/svg"
   xmlns="http://www.w3.org/2000/svg"
   xmlns:sodipodi="http://sodipodi.sourceforge.net/DTD/sodipodi-0.dtd"
   xmlns:inkscape="http://www.inkscape.org/namespaces/inkscape"
   width="24"
   height="24"
   id="svg27349"
   version="1.1"
   inkscape:version="0.48.2 r9819"
   sodipodi:docname="information-white-24.svg">
  <defs
     id="defs27351" />
  <sodipodi:namedview
     id="base"
     pagecolor="#ffffff"
     bordercolor="#666666"
     borderopacity="1.0"
     inkscape:pageopacity="0.0"
     inkscape:pageshadow="2"
     inkscape:zoom="8.8081266"
     inkscape:cx="11.449912"
     inkscape:cy="8.5492675"
     inkscape:document-units="px"
     inkscape:current-layer="layer1"
     showgrid="false"
     inkscape:window-width="629"
     inkscape:window-height="573"
     inkscape:window-x="2584"
     inkscape:window-y="601"
     inkscape:window-maximized="0" />
  <metadata
     id="metadata27354">
    <rdf:RDF>
      <cc:Work
         rdf:about="">
        <dc:format>image/svg+xml</dc:format>
        <dc:type
           rdf:resource="http://purl.org/dc/dcmitype/StillImage" />
        <dc:title></dc:title>
      </cc:Work>
    </rdf:RDF>
  </metadata>
  <g
     inkscape:label="Layer 1"
     inkscape:groupmode="layer"
     id="layer1"
     transform="translate(0,-1028.3622)">
    <g
       id="g12350"
       transform="matrix(2.4281667,0,0,2.4281667,-51.355378,197.66722)">
      <path
         style="opacity:0;fill:#272525"
         inkscape:connector-curvature="0"
         id="path12352"
         d="m 29.867,352.024 c 0.652,0 1.181,-0.529 1.181,-1.182 v -7.521 c 0,-0.652 -0.528,-1.18 -1.181,-1.18 h -7.521 c -0.652,0 -1.182,0.527 -1.182,1.18 v 7.521 c 0,0.652 0.529,1.182 1.182,1.182 h 7.521 z" />
      <g
         id="g12354"
         style="opacity:0.6;stroke:#ffffff;stroke-width:0.5;stroke-miterlimit:4;stroke-opacity:1;stroke-dasharray:none">
        <path
           style="fill:#272525;stroke:#ffffff;stroke-width:0.5;stroke-miterlimit:4;stroke-opacity:1;stroke-dasharray:none"
           inkscape:connector-curvature="0"
           id="path12356"
           d="m 26.106,350.59 c 1.938,0 3.51,-1.57 3.51,-3.51 0,-1.938 -1.572,-3.508 -3.51,-3.508 -1.939,0 -3.512,1.57 -3.512,3.508 10e-4,1.94 1.573,3.51 3.512,3.51 z m -4.113,-3.509 c 0,-2.271 1.842,-4.111 4.113,-4.111 2.271,0 4.113,1.84 4.113,4.111 0,2.271 -1.842,4.113 -4.113,4.113 -2.271,0 -4.113,-1.842 -4.113,-4.113 z" />
        <path
           style="fill:#272525;stroke:#ffffff;stroke-width:0.5;stroke-miterlimit:4;stroke-opacity:1;stroke-dasharray:none"
           inkscape:connector-curvature="0"
           id="path12358"
           d="m 25.649,348.338 0.838,-0.002 v -0.65 c 0,-0.178 0.083,-0.346 0.302,-0.49 0.221,-0.143 0.836,-0.438 0.836,-1.207 0,-0.771 -0.646,-1.301 -1.188,-1.414 -0.543,-0.111 -1.132,-0.037 -1.549,0.42 -0.375,0.41 -0.452,0.732 -0.452,1.447 h 0.838 v -0.166 c 0,-0.379 0.044,-0.781 0.587,-0.893 0.298,-0.061 0.576,0.033 0.741,0.195 0.189,0.186 0.191,0.602 -0.111,0.807 l -0.472,0.32 c -0.275,0.18 -0.369,0.377 -0.369,0.664 v 0.969 z" />
        <rect
           style="fill:#272525;stroke:#ffffff;stroke-width:0.5;stroke-miterlimit:4;stroke-opacity:1;stroke-dasharray:none"
           id="rect12360"
           height="0.86299998"
           width="0.85000002"
           y="348.71701"
           x="25.643999" />
      </g>
      <g
         id="g12362">
        <path
           d="m 26.106,350.59 c 1.938,0 3.51,-1.57 3.51,-3.51 0,-1.938 -1.572,-3.508 -3.51,-3.508 -1.939,0 -3.512,1.57 -3.512,3.508 10e-4,1.94 1.573,3.51 3.512,3.51 z m -4.113,-3.509 c 0,-2.271 1.842,-4.111 4.113,-4.111 2.271,0 4.113,1.84 4.113,4.111 0,2.271 -1.842,4.113 -4.113,4.113 -2.271,0 -4.113,-1.842 -4.113,-4.113 z"
           id="path12364"
           inkscape:connector-curvature="0"
           style="fill:#272525" />
        <path
           d="m 25.649,348.338 0.838,-0.002 v -0.65 c 0,-0.178 0.083,-0.346 0.302,-0.49 0.221,-0.143 0.836,-0.438 0.836,-1.207 0,-0.771 -0.646,-1.301 -1.188,-1.414 -0.543,-0.111 -1.132,-0.037 -1.549,0.42 -0.375,0.41 -0.452,0.732 -0.452,1.447 h 0.838 v -0.166 c 0,-0.379 0.044,-0.781 0.587,-0.893 0.298,-0.061 0.576,0.033 0.741,0.195 0.189,0.186 0.191,0.602 -0.111,0.807 l -0.472,0.32 c -0.275,0.18 -0.369,0.377 -0.369,0.664 v 0.969 z"
           id="path12366"
           inkscape:connector-curvature="0"
           style="fill:#272525" />
        <rect
           x="25.643999"
           y="348.71701"
           width="0.85000002"
           height="0.86299998"
           id="rect12368"
           style="fill:#272525" />
      </g>
    </g>
  </g>
</svg>
