<?xml version="1.0" encoding="utf-8"?>
<!-- Generator: Adobe Illustrator 18.1.1, SVG Export Plug-In . SVG Version: 6.00 Build 0)  -->
<svg version="1.1" xmlns="http://www.w3.org/2000/svg" xmlns:xlink="http://www.w3.org/1999/xlink" x="0px" y="0px"
	 viewBox="0 0 18 18" enable-background="new 0 0 18 18" xml:space="preserve">
<g id="shadows">
	<g opacity="0.2">
		<path d="M15.8,6.7V5.3h-0.9V4.4H14V3.4H13v0.2h-0.2V2.8H7.7v0.9H7.5V3.4H6.5v0.9H5.6v0.9H4.7v1.4H3.8v5.1h0.9v1.4h0.9v0.9h0.9v0.9
			h0.9v-0.2h0.2v0.9h5.1v-0.9H13v0.2H14v-0.9h0.9v-0.9h0.9v-1.4h0.9V6.7H15.8z M14.9,11.8v0.9H14v0.9H13v0.9h-0.2l-0.7,0.2H8.4
			l-0.7-0.2H7.5v-0.9H6.5v-0.9H5.6v-0.9H4.9V6.7h0.7V5.8h0.9V4.8h0.9V3.9h0.2h0.7h3.7h0.7H13v0.9H14v0.9h0.9v0.9h0.7v5.1H14.9z"/>
		<rect x="9.3" y="13" width="1.9" height="0.9"/>
		<polygon points="12.1,6.5 12.1,5.5 9.3,5.5 9.3,5.8 8.4,5.8 8.4,6.5 8.4,6.9 7.5,6.9 7.5,7.4 7.5,7.5 7.5,8.3 9.3,8.3 9.3,7.4 
			11.2,7.4 11.2,9.2 10.2,9.2 10.2,10.2 9.3,10.2 9.3,12 11.2,12 11.2,10.2 12.1,10.2 12.1,9.2 13,9.2 13,6.5 		"/>
	</g>
</g>
<g id="icons">
	<g>
		<path fill="#FFFFFF" d="M15.1,5.9V4.6h-0.9V3.6h-0.9V2.7h-0.9v0.2h-0.2V2H6.9v0.9H6.7V2.7H5.8v0.9H4.9v0.9H3.9v1.4H3v5.1h0.9v1.4
			h0.9v0.9h0.9v0.9h0.9v-0.2h0.2V15h5.1v-0.9h0.2v0.2h0.9v-0.9h0.9v-0.9h0.9v-1.4H16V5.9H15.1z M14.1,11.1V12h-0.9v0.9h-0.9v0.9
			h-0.2l-0.7,0.2H7.6l-0.7-0.2H6.7v-0.9H5.8V12H4.9v-0.9H4.2V5.9h0.7V5h0.9V4.1h0.9V3.2h0.2h0.7h3.7h0.7h0.2v0.9h0.9V5h0.9v0.9h0.7
			v5.1H14.1z"/>
		<rect x="8.6" y="12.2" fill="#FFFFFF" width="1.9" height="0.9"/>
		<polygon fill="#FFFFFF" points="11.4,5.7 11.4,4.8 8.6,4.8 8.6,5 7.6,5 7.6,5.7 7.6,6.2 6.7,6.2 6.7,6.6 6.7,6.8 6.7,7.6 8.6,7.6 
			8.6,6.6 10.4,6.6 10.4,8.5 9.5,8.5 9.5,9.4 8.6,9.4 8.6,11.3 10.4,11.3 10.4,9.4 11.4,9.4 11.4,8.5 12.3,8.5 12.3,5.7 		"/>
	</g>
</g>
<g id="guides">
</g>
</svg>
