<?xml version="1.0" encoding="utf-8"?>
<!-- Generator: Adobe Illustrator 18.1.1, SVG Export Plug-In . SVG Version: 6.00 Build 0)  -->
<svg version="1.1" xmlns="http://www.w3.org/2000/svg" xmlns:xlink="http://www.w3.org/1999/xlink" x="0px" y="0px"
	 viewBox="0 0 24 24" enable-background="new 0 0 24 24" xml:space="preserve">
<g id="shadows">
</g>
<g id="icons">
	<path opacity="0.2" d="M18.9,5.5c0.9,0,1.5,0.7,1.5,1.5v10.8c0,0.9-0.7,1.5-1.5,1.5H8.1c-0.9,0-1.5-0.7-1.5-1.5V7.1
		c0-0.9,0.7-1.5,1.5-1.5H18.9 M18.9,4H8.1C6.4,4,5,5.4,5,7.1v10.8C5,19.6,6.4,21,8.1,21h10.8c1.7,0,3.1-1.4,3.1-3.1V7.1
		C22,5.4,20.6,4,18.9,4L18.9,4z"/>
	<g>
		<path fill="#FFFFFF" d="M11.5,14v-0.9c0-0.2,0-0.4,0-0.6c0-0.2,0.1-0.3,0.1-0.5c0.1-0.1,0.2-0.3,0.3-0.4c0.1-0.1,0.3-0.3,0.4-0.4
			l1.2-1.3c0.3-0.3,0.4-0.6,0.4-1.1c0-0.4-0.1-0.8-0.4-1c-0.3-0.3-0.6-0.4-1-0.4c-0.5,0-0.8,0.2-1.1,0.5C11.2,8.2,11,8.6,11,9
			L8.9,8.8c0.1-0.5,0.2-1,0.4-1.4c0.2-0.4,0.5-0.7,0.8-1c0.3-0.3,0.7-0.5,1.1-0.6c0.4-0.1,0.9-0.2,1.4-0.2c0.5,0,0.9,0.1,1.4,0.2
			c0.4,0.1,0.8,0.3,1.1,0.6c0.3,0.3,0.5,0.6,0.7,1c0.2,0.4,0.3,0.8,0.3,1.4c0,0.4,0,0.7-0.1,0.9c-0.1,0.3-0.2,0.5-0.4,0.7
			c-0.2,0.2-0.3,0.4-0.6,0.6c-0.2,0.2-0.4,0.4-0.7,0.6c-0.2,0.1-0.3,0.3-0.4,0.4c-0.1,0.1-0.2,0.2-0.3,0.3c-0.1,0.1-0.1,0.2-0.2,0.4
			c0,0.1,0,0.3,0,0.5V14H11.5z M11.2,16.2c0-0.3,0.1-0.6,0.4-0.9s0.6-0.4,0.9-0.4c0.3,0,0.6,0.1,0.9,0.4c0.3,0.2,0.4,0.5,0.4,0.9
			c0,0.3-0.1,0.6-0.4,0.9c-0.3,0.2-0.6,0.4-0.9,0.4c-0.2,0-0.3,0-0.5-0.1c-0.2-0.1-0.3-0.2-0.4-0.3c-0.1-0.1-0.2-0.2-0.3-0.4
			C11.2,16.5,11.2,16.4,11.2,16.2z"/>
	</g>
	<path fill="#FFFFFF" d="M17.9,4.5c0.9,0,1.5,0.7,1.5,1.5v10.8c0,0.9-0.7,1.5-1.5,1.5H7.1c-0.9,0-1.5-0.7-1.5-1.5V6.1
		c0-0.9,0.7-1.5,1.5-1.5H17.9 M17.9,3H7.1C5.4,3,4,4.4,4,6.1v10.8C4,18.6,5.4,20,7.1,20h10.8c1.7,0,3.1-1.4,3.1-3.1V6.1
		C21,4.4,19.6,3,17.9,3L17.9,3z"/>
</g>
<g id="guides" display="none">
</g>
</svg>
