<?xml version="1.0" encoding="utf-8"?>
<!-- Generator: Adobe Illustrator 18.1.1, SVG Export Plug-In . SVG Version: 6.00 Build 0)  -->
<svg version="1.1" xmlns="http://www.w3.org/2000/svg" xmlns:xlink="http://www.w3.org/1999/xlink" x="0px" y="0px"
	 viewBox="0 0 24 24" enable-background="new 0 0 24 24" xml:space="preserve">
<g id="shadows">
	<g opacity="0.2">
		<path d="M8.1,4.694C9.728,4.191,11.428,4,13.129,4C15.763,4,18.9,5.03,18.9,8.022c0,3.257-3.64,4.119-3.903,7.303h-3.496
			c0-3.065,3.09-4.311,3.09-6.442c0-1.22-1.486-1.723-2.634-1.723c-1.318,0-2.587,0.288-3.761,0.886L8.1,4.694z M11.237,17.121
			h4.022V21h-4.022V17.121z"/>
	</g>
</g>
<g id="icons">
	<g>
		<path fill="#FFFFFF" d="M7.1,3.694C8.728,3.191,10.428,3,12.129,3C14.763,3,17.9,4.029,17.9,7.022c0,3.257-3.64,4.119-3.903,7.303
			h-3.496c0-3.065,3.09-4.311,3.09-6.442c0-1.22-1.486-1.723-2.634-1.723c-1.318,0-2.587,0.288-3.761,0.886L7.1,3.694z
			 M10.237,16.121h4.022V20h-4.022V16.121z"/>
	</g>
</g>
<g id="sandbox">
</g>
</svg>
