<?xml version="1.0" encoding="utf-8"?>
<!-- Generator: Adobe Illustrator 18.1.1, SVG Export Plug-In . SVG Version: 6.00 Build 0)  -->
<svg version="1.1" xmlns="http://www.w3.org/2000/svg" xmlns:xlink="http://www.w3.org/1999/xlink" x="0px" y="0px"
	 viewBox="0 0 12 12" enable-background="new 0 0 12 12" xml:space="preserve">
<g id="shadows">
	<g opacity="0.2">
		<path d="M3.141,1.841c0.862-0.266,1.762-0.367,2.662-0.367c1.395,0,3.055,0.545,3.055,2.129c0,1.724-1.927,2.18-2.066,3.866H4.941
			c0-1.622,1.636-2.282,1.636-3.41c0-0.646-0.787-0.912-1.395-0.912c-0.698,0-1.37,0.152-1.991,0.469L3.141,1.841z M4.802,8.473
			h2.129v2.053H4.802V8.473z"/>
	</g>
</g>
<g id="icons">
	<g>
		<path fill="#FFFFFF" d="M2.641,1.341c0.862-0.266,1.762-0.367,2.662-0.367c1.395,0,3.055,0.545,3.055,2.129
			c0,1.724-1.927,2.18-2.066,3.866H4.441c0-1.622,1.636-2.282,1.636-3.41c0-0.646-0.787-0.912-1.395-0.912
			c-0.698,0-1.37,0.152-1.991,0.469L2.641,1.341z M4.302,7.973h2.129v2.053H4.302V7.973z"/>
	</g>
</g>
<g id="sandbox">
</g>
</svg>
