<?xml version="1.0" encoding="UTF-8" standalone="no"?>
<svg width="12px" height="12px" viewBox="0 0 12 12" version="1.1" xmlns="http://www.w3.org/2000/svg" xmlns:xlink="http://www.w3.org/1999/xlink" xmlns:sketch="http://www.bohemiancoding.com/sketch/ns">
    <!-- Generator: Sketch 3.2.2 (9983) - http://www.bohemiancoding.com/sketch -->
    <title>information-black-12</title>
    <desc>Created with Sketch.</desc>
    <defs></defs>
    <g id="Page-1" stroke="none" stroke-width="1" fill="none" fill-rule="evenodd" sketch:type="MSPage">
        <path d="M10.4705882,8.92438017 L10.4705882,9.634573 L9.76470588,9.634573 L9.76470588,10.3447658 L9.05882353,10.3447658 L9.05882353,11.0549587 L8.88235294,11.0549587 L8.35294118,11.2325069 L5.52941176,11.2325069 L5,11.0549587 L4.82352941,11.0549587 L4.82352941,10.3447658 L4.11764706,10.3447658 L4.11764706,9.634573 L3.41176471,9.634573 L3.41176471,8.92438017 L2.88235294,8.92438017 L2.88235294,5.01831956 L3.41176471,5.01831956 L3.41176471,4.30812672 L4.11764706,4.30812672 L4.11764706,3.59793388 L4.82352941,3.59793388 L4.82352941,2.88774105 L9.05882353,2.88774105 L9.05882353,3.59793388 L9.76470588,3.59793388 L9.76470588,4.30812672 L10.4705882,4.30812672 L10.4705882,5.01831956 L11,5.01831956 L11,8.92438017 L10.4705882,8.92438017 L10.4705882,8.92438017 Z M11.1764706,5.01831956 L11.1764706,3.9530303 L10.4705882,3.9530303 L10.4705882,3.24283747 L9.76470588,3.24283747 L9.76470588,2.53264463 L9.05882353,2.53264463 L9.05882353,2.71019284 L8.88235294,2.71019284 L8.88235294,2 L5,2 L5,2.71019284 L4.82352941,2.71019284 L4.82352941,2.53264463 L4.11764706,2.53264463 L4.11764706,3.24283747 L3.41176471,3.24283747 L3.41176471,3.9530303 L2.70588235,3.9530303 L2.70588235,5.01831956 L2,5.01831956 L2,8.92438017 L2.70588235,8.92438017 L2.70588235,9.98966942 L3.41176471,9.98966942 L3.41176471,10.6998623 L4.11764706,10.6998623 L4.11764706,11.4100551 L4.82352941,11.4100551 L4.82352941,11.2325069 L5,11.2325069 L5,11.9426997 L8.88235294,11.9426997 L8.88235294,11.2325069 L9.05882353,11.2325069 L9.05882353,11.4100551 L9.76470588,11.4100551 L9.76470588,10.6998623 L10.4705882,10.6998623 L10.4705882,9.98966942 L11.1764706,9.98966942 L11.1764706,8.92438017 L11.8823529,8.92438017 L11.8823529,5.01831956 L11.1764706,5.01831956 L11.1764706,5.01831956 Z" id="Fill-246" fill-opacity="0.1" fill="#0A0B09" sketch:type="MSShapeGroup"></path>
        <path d="M6.23529412,9.81212121 L7.64705882,9.81212121 L7.64705882,10.522314 L6.23529412,10.522314 L6.23529412,9.81212121 Z" id="Fill-247" fill-opacity="0.1" fill="#0A0B09" sketch:type="MSShapeGroup"></path>
        <path d="M8.35294118,4.84077135 L8.35294118,4.13057851 L6.23529412,4.13057851 L6.23529412,4.32233058 L5.52941176,4.32233058 L5.52941176,5.19586777 L4.82352941,5.19586777 L4.82352941,6.26115702 L6.23529412,6.26115702 L6.23529412,5.55096419 L7.64705882,5.55096419 L7.64705882,6.97134986 L6.94117647,6.97134986 L6.94117647,7.6815427 L6.23529412,7.6815427 L6.23529412,9.10192837 L7.64705882,9.10192837 L7.64705882,7.6815427 L8.35294118,7.6815427 L8.35294118,6.97134986 L9.05882353,6.97134986 L9.05882353,4.84077135 L8.35294118,4.84077135" id="Fill-248" fill-opacity="0.1" fill="#0A0B09" sketch:type="MSShapeGroup"></path>
        <path d="M9.47058824,7.92438017 L9.47058824,8.634573 L8.76470588,8.634573 L8.76470588,9.34476584 L8.05882353,9.34476584 L8.05882353,10.0549587 L7.88235294,10.0549587 L7.35294118,10.2325069 L4.52941176,10.2325069 L4,10.0549587 L3.82352941,10.0549587 L3.82352941,9.34476584 L3.11764706,9.34476584 L3.11764706,8.634573 L2.41176471,8.634573 L2.41176471,7.92438017 L1.88235294,7.92438017 L1.88235294,4.01831956 L2.41176471,4.01831956 L2.41176471,3.30812672 L3.11764706,3.30812672 L3.11764706,2.59793388 L3.82352941,2.59793388 L3.82352941,1.88774105 L8.05882353,1.88774105 L8.05882353,2.59793388 L8.76470588,2.59793388 L8.76470588,3.30812672 L9.47058824,3.30812672 L9.47058824,4.01831956 L10,4.01831956 L10,7.92438017 L9.47058824,7.92438017 L9.47058824,7.92438017 Z M10.1764706,4.01831956 L10.1764706,2.9530303 L9.47058824,2.9530303 L9.47058824,2.24283747 L8.76470588,2.24283747 L8.76470588,1.53264463 L8.05882353,1.53264463 L8.05882353,1.71019284 L7.88235294,1.71019284 L7.88235294,1 L4,1 L4,1.71019284 L3.82352941,1.71019284 L3.82352941,1.53264463 L3.11764706,1.53264463 L3.11764706,2.24283747 L2.41176471,2.24283747 L2.41176471,2.9530303 L1.70588235,2.9530303 L1.70588235,4.01831956 L1,4.01831956 L1,7.92438017 L1.70588235,7.92438017 L1.70588235,8.98966942 L2.41176471,8.98966942 L2.41176471,9.69986226 L3.11764706,9.69986226 L3.11764706,10.4100551 L3.82352941,10.4100551 L3.82352941,10.2325069 L4,10.2325069 L4,10.9426997 L7.88235294,10.9426997 L7.88235294,10.2325069 L8.05882353,10.2325069 L8.05882353,10.4100551 L8.76470588,10.4100551 L8.76470588,9.69986226 L9.47058824,9.69986226 L9.47058824,8.98966942 L10.1764706,8.98966942 L10.1764706,7.92438017 L10.8823529,7.92438017 L10.8823529,4.01831956 L10.1764706,4.01831956 L10.1764706,4.01831956 Z" id="Fill-246" opacity="0.2" fill="#0A0B09" sketch:type="MSShapeGroup"></path>
        <path d="M5.23529412,8.81212121 L6.64705882,8.81212121 L6.64705882,9.52231405 L5.23529412,9.52231405 L5.23529412,8.81212121 Z" id="Fill-247" opacity="0.2" fill="#0A0B09" sketch:type="MSShapeGroup"></path>
        <path d="M7.35294118,3.84077135 L7.35294118,3.13057851 L5.23529412,3.13057851 L5.23529412,3.32233058 L4.52941176,3.32233058 L4.52941176,4.19586777 L3.82352941,4.19586777 L3.82352941,5.26115702 L5.23529412,5.26115702 L5.23529412,4.55096419 L6.64705882,4.55096419 L6.64705882,5.97134986 L5.94117647,5.97134986 L5.94117647,6.6815427 L5.23529412,6.6815427 L5.23529412,8.10192837 L6.64705882,8.10192837 L6.64705882,6.6815427 L7.35294118,6.6815427 L7.35294118,5.97134986 L8.05882353,5.97134986 L8.05882353,3.84077135 L7.35294118,3.84077135" id="Fill-248" opacity="0.2" fill="#0A0B09" sketch:type="MSShapeGroup"></path>
        <path d="M8.47058824,6.92438017 L8.47058824,7.634573 L7.76470588,7.634573 L7.76470588,8.34476584 L7.05882353,8.34476584 L7.05882353,9.05495868 L6.88235294,9.05495868 L6.35294118,9.23250689 L3.52941176,9.23250689 L3,9.05495868 L2.82352941,9.05495868 L2.82352941,8.34476584 L2.11764706,8.34476584 L2.11764706,7.634573 L1.41176471,7.634573 L1.41176471,6.92438017 L0.882352941,6.92438017 L0.882352941,3.01831956 L1.41176471,3.01831956 L1.41176471,2.30812672 L2.11764706,2.30812672 L2.11764706,1.59793388 L2.82352941,1.59793388 L2.82352941,0.887741047 L7.05882353,0.887741047 L7.05882353,1.59793388 L7.76470588,1.59793388 L7.76470588,2.30812672 L8.47058824,2.30812672 L8.47058824,3.01831956 L9,3.01831956 L9,6.92438017 L8.47058824,6.92438017 L8.47058824,6.92438017 Z M9.17647059,3.01831956 L9.17647059,1.9530303 L8.47058824,1.9530303 L8.47058824,1.24283747 L7.76470588,1.24283747 L7.76470588,0.532644628 L7.05882353,0.532644628 L7.05882353,0.710192837 L6.88235294,0.710192837 L6.88235294,0 L3,0 L3,0.710192837 L2.82352941,0.710192837 L2.82352941,0.532644628 L2.11764706,0.532644628 L2.11764706,1.24283747 L1.41176471,1.24283747 L1.41176471,1.9530303 L0.705882353,1.9530303 L0.705882353,3.01831956 L0,3.01831956 L0,6.92438017 L0.705882353,6.92438017 L0.705882353,7.98966942 L1.41176471,7.98966942 L1.41176471,8.69986226 L2.11764706,8.69986226 L2.11764706,9.4100551 L2.82352941,9.4100551 L2.82352941,9.23250689 L3,9.23250689 L3,9.94269972 L6.88235294,9.94269972 L6.88235294,9.23250689 L7.05882353,9.23250689 L7.05882353,9.4100551 L7.76470588,9.4100551 L7.76470588,8.69986226 L8.47058824,8.69986226 L8.47058824,7.98966942 L9.17647059,7.98966942 L9.17647059,6.92438017 L9.88235294,6.92438017 L9.88235294,3.01831956 L9.17647059,3.01831956 L9.17647059,3.01831956 Z" id="Fill-246" fill="#0A0B09" sketch:type="MSShapeGroup"></path>
        <path d="M4.23529412,7.81212121 L5.64705882,7.81212121 L5.64705882,8.52231405 L4.23529412,8.52231405 L4.23529412,7.81212121 Z" id="Fill-247" fill="#0A0B09" sketch:type="MSShapeGroup"></path>
        <path d="M6.35294118,2.84077135 L6.35294118,2.13057851 L4.23529412,2.13057851 L4.23529412,2.32233058 L3.52941176,2.32233058 L3.52941176,3.19586777 L2.82352941,3.19586777 L2.82352941,4.26115702 L4.23529412,4.26115702 L4.23529412,3.55096419 L5.64705882,3.55096419 L5.64705882,4.97134986 L4.94117647,4.97134986 L4.94117647,5.6815427 L4.23529412,5.6815427 L4.23529412,7.10192837 L5.64705882,7.10192837 L5.64705882,5.6815427 L6.35294118,5.6815427 L6.35294118,4.97134986 L7.05882353,4.97134986 L7.05882353,2.84077135 L6.35294118,2.84077135" id="Fill-248" fill="#0A0B09" sketch:type="MSShapeGroup"></path>
    </g>
</svg>