<?xml version="1.0" encoding="utf-8"?>
<!-- Generator: Adobe Illustrator 18.1.1, SVG Export Plug-In . SVG Version: 6.00 Build 0)  -->
<svg version="1.1" xmlns="http://www.w3.org/2000/svg" xmlns:xlink="http://www.w3.org/1999/xlink" x="0px" y="0px"
	 viewBox="0 0 12 12" enable-background="new 0 0 12 12" xml:space="preserve">
<g id="shadows">
	<g opacity="0.2">
		<path d="M9.9,4.2v-1H9.2V2.6H8.6V2H7.9v0.2H7.8V1.5H4.2v0.6H4.1V2H3.4v0.6H2.8v0.6H2.1v1H1.5v3.5h0.6v1h0.6v0.6h0.6V10h0.6V9.9
			h0.2v0.6h3.5V9.9h0.2V10h0.6V9.4h0.6V8.7h0.6v-1h0.6V4.2H9.9z M9.2,7.8v0.6H8.6v0.6H7.9v0.6H7.8L7.3,9.9H4.7L4.2,9.7H4.1V9.1H3.4
			V8.4H2.8V7.8H2.3V4.2h0.5V3.6h0.6V2.9h0.6V2.3h0.2h0.5h2.6h0.5h0.2v0.6h0.6v0.6h0.6v0.6h0.5v3.5H9.2z"/>
		<rect x="5.4" y="8.6" width="1.3" height="0.6"/>
		<polygon points="7.3,4.1 7.3,3.4 5.4,3.4 5.4,3.6 4.7,3.6 4.7,4.1 4.7,4.4 4.1,4.4 4.1,4.7 4.1,4.8 4.1,5.4 5.4,5.4 5.4,4.7 
			6.6,4.7 6.6,6 6,6 6,6.6 5.4,6.6 5.4,7.9 6.6,7.9 6.6,6.6 7.3,6.6 7.3,6 7.9,6 7.9,4.1 		"/>
	</g>
</g>
<g id="icons">
	<g>
		<path fill="#FFFFFF" d="M9.4,3.7v-1H8.7V2.1H8.1V1.5H7.4v0.2H7.3V1H3.7v0.6H3.6V1.5H2.9v0.6H2.3v0.6H1.6v1H1v3.5h0.6v1h0.6v0.6
			h0.6v0.6h0.6V9.4h0.2V10h3.5V9.4h0.2v0.2h0.6V8.9h0.6V8.2h0.6v-1H10V3.7H9.4z M8.7,7.3v0.6H8.1v0.6H7.4v0.6H7.3L6.8,9.4H4.2
			L3.7,9.2H3.6V8.6H2.9V7.9H2.3V7.3H1.8V3.7h0.5V3.1h0.6V2.4h0.6V1.8h0.2h0.5h2.6h0.5h0.2v0.6h0.6v0.6h0.6v0.6h0.5v3.5H8.7z"/>
		<rect x="4.9" y="8.1" fill="#FFFFFF" width="1.3" height="0.6"/>
		<polygon fill="#FFFFFF" points="6.8,3.6 6.8,2.9 4.9,2.9 4.9,3.1 4.2,3.1 4.2,3.6 4.2,3.9 3.6,3.9 3.6,4.2 3.6,4.3 3.6,4.9 
			4.9,4.9 4.9,4.2 6.1,4.2 6.1,5.5 5.5,5.5 5.5,6.1 4.9,6.1 4.9,7.4 6.1,7.4 6.1,6.1 6.8,6.1 6.8,5.5 7.4,5.5 7.4,3.6 		"/>
	</g>
</g>
<g id="guides">
</g>
</svg>
