<?xml version="1.0" encoding="utf-8"?>
<!-- Generator: Adobe Illustrator 18.1.1, SVG Export Plug-In . SVG Version: 6.00 Build 0)  -->
<svg version="1.1" xmlns="http://www.w3.org/2000/svg" xmlns:xlink="http://www.w3.org/1999/xlink" x="0px" y="0px"
	 viewBox="0 0 12 12" enable-background="new 0 0 12 12" xml:space="preserve">
<g id="shadows">
</g>
<g id="icons">
	<path opacity="0.2" d="M8.9,2.1c1.1,0,1.9,0.9,1.9,1.9v3.9c0,1.1-0.9,1.9-1.9,1.9H5.1C4,9.9,3.1,9,3.1,7.9V4.1C3.1,3,4,2.1,5.1,2.1
		H8.9 M8.9,1.5H5.1c-1.4,0-2.6,1.2-2.6,2.6v3.9c0,1.4,1.2,2.6,2.6,2.6h3.9c1.4,0,2.6-1.2,2.6-2.6V4.1C11.5,2.7,10.3,1.5,8.9,1.5
		L8.9,1.5z"/>
	<g>
		<path fill="#FFFFFF" d="M6,6.9V6.3c0-0.2,0-0.3,0-0.4c0-0.1,0.1-0.2,0.1-0.3c0-0.1,0.1-0.2,0.2-0.3s0.2-0.2,0.3-0.3
			C6.8,5,6.9,4.9,7,4.8c0.1-0.1,0.2-0.2,0.3-0.3c0.1-0.1,0.1-0.2,0.2-0.3C7.5,4.1,7.5,4,7.5,3.8c0-0.1,0-0.3-0.1-0.4
			C7.4,3.3,7.3,3.2,7.2,3.2C7.1,3.1,7,3,6.9,3c-0.1,0-0.2-0.1-0.4-0.1C6.2,2.9,6,3,5.8,3.2C5.6,3.3,5.5,3.6,5.5,3.9L4.6,3.8
			c0.1-0.5,0.3-0.9,0.7-1.2C5.6,2.3,6,2.1,6.6,2.1c0.3,0,0.5,0,0.7,0.1c0.2,0.1,0.4,0.2,0.6,0.3C8,2.7,8.1,2.9,8.2,3.1
			c0.1,0.2,0.1,0.4,0.1,0.7c0,0.2,0,0.4-0.1,0.6C8.2,4.6,8.1,4.7,8,4.9L7.4,5.4L7.3,5.5C7.2,5.6,7.2,5.7,7.1,5.7S7,5.9,7,5.9
			c0,0.1-0.1,0.1-0.1,0.2c0,0.1,0,0.2,0,0.3v0.4H6z M5.9,8.1C5.9,8,5.9,7.8,6,7.7c0.1-0.1,0.3-0.2,0.4-0.2c0.2,0,0.3,0.1,0.4,0.2
			C7,7.8,7,8,7,8.1C7,8.3,7,8.4,6.9,8.5C6.8,8.7,6.6,8.7,6.5,8.7C6.3,8.7,6.2,8.7,6,8.5C5.9,8.4,5.9,8.3,5.9,8.1z"/>
	</g>
	<path fill="#FFFFFF" d="M8.4,1.6c1.1,0,1.9,0.9,1.9,1.9v3.9c0,1.1-0.9,1.9-1.9,1.9H4.6c-1.1,0-1.9-0.9-1.9-1.9V3.6
		c0-1.1,0.9-1.9,1.9-1.9H8.4 M8.4,1H4.6C3.2,1,2,2.2,2,3.6v3.9C2,8.8,3.2,10,4.6,10h3.9C9.8,10,11,8.8,11,7.4V3.6
		C11,2.2,9.8,1,8.4,1L8.4,1z"/>
</g>
<g id="guides" display="none">
</g>
</svg>
