<?xml version="1.0" encoding="utf-8"?>
<!-- Generator: Adobe Illustrator 18.1.1, SVG Export Plug-In . SVG Version: 6.00 Build 0)  -->
<svg version="1.1" xmlns="http://www.w3.org/2000/svg" xmlns:xlink="http://www.w3.org/1999/xlink" x="0px" y="0px"
	 viewBox="0 0 12 12" enable-background="new 0 0 12 12" xml:space="preserve">
<g id="shadows">
	<g opacity="0.2">
		<path d="M4.281,1.924C4.72,1.642,5.26,1.5,5.9,1.5c0.841,0,1.539,0.201,2.096,0.603S8.83,3.1,8.83,3.889
			c0,0.484-0.121,0.891-0.362,1.222c-0.141,0.201-0.412,0.458-0.813,0.77L7.26,6.188C7.045,6.356,6.902,6.551,6.832,6.774
			C6.787,6.916,6.763,7.135,6.759,7.433H5.247C5.269,6.804,5.328,6.37,5.424,6.13C5.521,5.89,5.769,5.613,6.17,5.301l0.406-0.318
			c0.133-0.1,0.241-0.21,0.323-0.329c0.148-0.205,0.222-0.43,0.222-0.675c0-0.283-0.083-0.54-0.247-0.773
			C6.709,2.973,6.407,2.856,5.969,2.856c-0.431,0-0.736,0.143-0.916,0.43c-0.18,0.286-0.27,0.584-0.27,0.893H3.17
			C3.215,3.119,3.585,2.367,4.281,1.924z M5.207,8.887h1.669V10.5H5.207V8.887z"/>
	</g>
</g>
<g id="icons">
	<g>
		<path d="M3.781,1.424C4.22,1.141,4.76,1,5.4,1C6.24,1,6.939,1.201,7.495,1.603S8.33,2.6,8.33,3.389
			c0,0.484-0.121,0.891-0.362,1.222c-0.141,0.201-0.412,0.458-0.813,0.77L6.76,5.688C6.545,5.855,6.402,6.051,6.332,6.274
			C6.287,6.415,6.263,6.635,6.259,6.932H4.747c0.022-0.629,0.082-1.063,0.178-1.303c0.097-0.24,0.345-0.516,0.746-0.829l0.406-0.318
			c0.133-0.1,0.241-0.21,0.323-0.329c0.148-0.205,0.222-0.43,0.222-0.675c0-0.283-0.083-0.54-0.247-0.773
			C6.209,2.472,5.907,2.356,5.469,2.356c-0.431,0-0.736,0.143-0.916,0.43c-0.18,0.286-0.27,0.584-0.27,0.893H2.67
			C2.715,2.618,3.085,1.867,3.781,1.424z M4.707,8.387h1.669v1.613H4.707V8.387z"/>
	</g>
</g>
<g id="sandbox">
</g>
</svg>
