<?xml version="1.0" encoding="utf-8"?>
<!-- Generator: Adobe Illustrator 18.1.1, SVG Export Plug-In . SVG Version: 6.00 Build 0)  -->
<svg version="1.1" xmlns="http://www.w3.org/2000/svg" xmlns:xlink="http://www.w3.org/1999/xlink" x="0px" y="0px"
	 viewBox="0 0 18 18" enable-background="new 0 0 18 18" xml:space="preserve">
<g id="shadows">
	<g opacity="0.2">
		<path d="M7.646,3.393C8.311,2.964,9.128,2.75,10.098,2.75c1.274,0,2.332,0.304,3.175,0.913c0.843,0.609,1.264,1.511,1.264,2.706
			c0,0.733-0.183,1.35-0.548,1.852c-0.214,0.304-0.624,0.693-1.232,1.167L12.16,9.853c-0.327,0.254-0.543,0.55-0.65,0.888
			c-0.068,0.214-0.104,0.547-0.11,0.998H9.109c0.034-0.953,0.124-1.611,0.269-1.974c0.147-0.364,0.523-0.782,1.13-1.256l0.616-0.482
			c0.202-0.152,0.365-0.318,0.489-0.499c0.224-0.31,0.337-0.651,0.337-1.023c0-0.428-0.125-0.819-0.375-1.171
			c-0.251-0.352-0.707-0.528-1.371-0.528c-0.652,0-1.115,0.217-1.388,0.651C8.543,5.89,8.407,6.341,8.407,6.809H5.963
			C6.031,5.202,6.592,4.063,7.646,3.393z M9.049,13.306h2.528v2.444H9.049V13.306z"/>
	</g>
</g>
<g id="icons">
	<g>
		<path fill="#FFFFFF" d="M6.896,2.643C7.561,2.214,8.378,2,9.348,2c1.274,0,2.332,0.304,3.175,0.913
			c0.843,0.609,1.264,1.511,1.264,2.706c0,0.733-0.183,1.35-0.548,1.852c-0.214,0.304-0.624,0.693-1.232,1.167L11.41,9.103
			c-0.327,0.254-0.543,0.55-0.65,0.888c-0.068,0.214-0.104,0.547-0.11,0.998H8.359c0.034-0.953,0.124-1.611,0.269-1.974
			c0.147-0.364,0.523-0.782,1.13-1.256l0.616-0.482c0.202-0.152,0.365-0.318,0.489-0.499c0.224-0.31,0.337-0.651,0.337-1.023
			c0-0.428-0.125-0.819-0.375-1.171c-0.251-0.352-0.707-0.528-1.371-0.528c-0.652,0-1.115,0.217-1.388,0.651
			C7.793,5.14,7.657,5.591,7.657,6.059H5.213C5.281,4.452,5.842,3.313,6.896,2.643z M8.299,12.556h2.528V15H8.299V12.556z"/>
	</g>
</g>
<g id="sandbox">
</g>
</svg>
