<?xml version="1.0" encoding="utf-8"?>
<!-- Generator: Adobe Illustrator 18.1.1, SVG Export Plug-In . SVG Version: 6.00 Build 0)  -->
<svg version="1.1" xmlns="http://www.w3.org/2000/svg" xmlns:xlink="http://www.w3.org/1999/xlink" x="0px" y="0px"
	 viewBox="0 0 18 18" enable-background="new 0 0 18 18" xml:space="preserve">
<g id="shadows">
</g>
<g id="icons">
	<path opacity="0.2" d="M13,3.7c1.5,0,2.8,1.2,2.8,2.8V12c0,1.5-1.2,2.8-2.8,2.8H7.5c-1.5,0-2.8-1.2-2.8-2.8V6.5
		c0-1.5,1.2-2.8,2.8-2.8H13 M13,2.8H7.5c-2,0-3.7,1.7-3.7,3.7V12c0,2,1.7,3.7,3.7,3.7H13c2,0,3.7-1.7,3.7-3.7V6.5
		C16.8,4.4,15.1,2.8,13,2.8L13,2.8z"/>
	<g>
		<path d="M8.8,10.5V9.7c0-0.2,0-0.4,0.1-0.6C8.9,9,9,8.8,9,8.7c0.1-0.1,0.2-0.2,0.3-0.4c0.1-0.1,0.3-0.3,0.4-0.4
			c0.1-0.1,0.3-0.3,0.4-0.4c0.1-0.1,0.3-0.3,0.4-0.4c0.1-0.1,0.2-0.3,0.3-0.5c0.1-0.2,0.1-0.3,0.1-0.5s0-0.4-0.1-0.6
			c-0.1-0.2-0.2-0.3-0.3-0.4c-0.1-0.1-0.3-0.2-0.4-0.3C9.9,4.8,9.7,4.7,9.5,4.7c-0.4,0-0.8,0.1-1,0.4C8.3,5.4,8.1,5.7,8,6.2L6.7,6
			c0.1-0.8,0.4-1.3,0.9-1.8c0.5-0.4,1.2-0.6,1.9-0.6c0.4,0,0.7,0.1,1,0.2c0.3,0.1,0.6,0.3,0.8,0.5C11.7,4.5,11.8,4.7,12,5
			s0.2,0.6,0.2,1c0,0.3,0,0.6-0.1,0.9c-0.1,0.2-0.2,0.5-0.4,0.7l-0.8,0.8l-0.1,0.1c-0.1,0.1-0.2,0.2-0.3,0.3
			c-0.1,0.1-0.1,0.2-0.2,0.3c0,0.1-0.1,0.2-0.1,0.3c0,0.1,0,0.3,0,0.5v0.6H8.8z M8.6,12.3c0-0.2,0.1-0.4,0.3-0.6
			c0.2-0.2,0.4-0.3,0.6-0.3s0.4,0.1,0.6,0.3c0.2,0.2,0.3,0.4,0.3,0.6s-0.1,0.4-0.3,0.6c-0.2,0.2-0.4,0.3-0.6,0.3S9,13.1,8.8,12.9
			C8.7,12.7,8.6,12.5,8.6,12.3z"/>
	</g>
	<path d="M12.3,2.9c1.5,0,2.8,1.2,2.8,2.8v5.6c0,1.5-1.2,2.8-2.8,2.8H6.7c-1.5,0-2.8-1.2-2.8-2.8V5.7c0-1.5,1.2-2.8,2.8-2.8H12.3
		 M12.3,2H6.7C4.7,2,3,3.7,3,5.7v5.6c0,2,1.7,3.7,3.7,3.7h5.6c2,0,3.7-1.7,3.7-3.7V5.7C16,3.7,14.3,2,12.3,2L12.3,2z"/>
</g>
<g id="guides" display="none">
</g>
</svg>
