<?xml version="1.0" encoding="utf-8"?>
<!-- Generator: Adobe Illustrator 18.1.1, SVG Export Plug-In . SVG Version: 6.00 Build 0)  -->
<svg version="1.1" xmlns="http://www.w3.org/2000/svg" xmlns:xlink="http://www.w3.org/1999/xlink" x="0px" y="0px"
	 viewBox="0 0 18 18" enable-background="new 0 0 18 18" xml:space="preserve">
<g id="shadows">
	<g opacity="0.2">
		<path d="M6.264,3.262C7.466,2.891,8.721,2.75,9.976,2.75c1.945,0,4.26,0.76,4.26,2.969c0,2.404-2.687,3.04-2.882,5.392H8.774
			c0-2.263,2.281-3.182,2.281-4.755c0-0.901-1.097-1.272-1.945-1.272c-0.973,0-1.91,0.212-2.777,0.654L6.264,3.262z M8.58,12.887
			h2.969v2.863H8.58V12.887z"/>
	</g>
</g>
<g id="icons">
	<g>
		<path fill="#FFFFFF" d="M5.514,2.512C6.716,2.141,7.971,2,9.226,2c1.945,0,4.26,0.76,4.26,2.969c0,2.404-2.687,3.04-2.882,5.392
			H8.024c0-2.263,2.281-3.182,2.281-4.755c0-0.901-1.097-1.272-1.945-1.272c-0.973,0-1.91,0.212-2.777,0.654L5.514,2.512z
			 M7.83,12.137h2.969V15H7.83V12.137z"/>
	</g>
</g>
<g id="sandbox">
</g>
</svg>
