<?xml version="1.0" encoding="utf-8"?>
<!-- Generator: Adobe Illustrator 18.1.1, SVG Export Plug-In . SVG Version: 6.00 Build 0)  -->
<svg version="1.1" xmlns="http://www.w3.org/2000/svg" xmlns:xlink="http://www.w3.org/1999/xlink" x="0px" y="0px"
	 viewBox="0 0 18 18" enable-background="new 0 0 18 18" xml:space="preserve">
<g id="shadows-text-objects" display="none">
	
		<text transform="matrix(1 0 0 1 7.7214 13.7503)" display="inline" opacity="0.2" font-family="'FrutigerLTStd-Roman'" font-size="13">J</text>
</g>
<g id="letters-text-objects" display="none">
	
		<text transform="matrix(1 0 0 1 6.9717 13.0002)" display="inline" fill="#FFFFFF" font-family="'FrutigerLTStd-Roman'" font-size="13">J</text>
</g>
<g id="shadows-outlines">
	<g opacity="0.2">
		<path d="M7.994,12.632c0.286,0.104,0.572,0.13,0.819,0.13c1.17,0,1.482-0.663,1.482-1.768V4.676h1.3v6.734
			c0,1.273-0.585,2.496-2.548,2.496c-0.416,0-0.78-0.052-1.054-0.156V12.632z"/>
	</g>
</g>
<g id="letters-outlines">
	<g>
		<path fill="#FFFFFF" d="M7.244,11.882c0.287,0.104,0.572,0.13,0.819,0.13c1.171,0,1.482-0.663,1.482-1.768V3.926h1.3v6.734
			c0,1.273-0.585,2.496-2.548,2.496c-0.416,0-0.78-0.052-1.054-0.156V11.882z"/>
	</g>
</g>
<g id="guides_and_set-up" display="none">
</g>
</svg>
