<?xml version="1.0" encoding="UTF-8" standalone="no"?>
<!-- Created with Inkscape (http://www.inkscape.org/) -->

<svg
   xmlns:dc="http://purl.org/dc/elements/1.1/"
   xmlns:cc="http://creativecommons.org/ns#"
   xmlns:rdf="http://www.w3.org/1999/02/22-rdf-syntax-ns#"
   xmlns:svg="http://www.w3.org/2000/svg"
   xmlns="http://www.w3.org/2000/svg"
   xmlns:inkscape="http://www.inkscape.org/namespaces/inkscape"
   version="1.1"
   width="24"
   height="24"
   id="svg4460">
  <defs
     id="defs4462" />
  <metadata
     id="metadata4465">
    <rdf:RDF>
      <cc:Work
         rdf:about="">
        <dc:format>image/svg+xml</dc:format>
        <dc:type
           rdf:resource="http://purl.org/dc/dcmitype/StillImage" />
        <dc:title />
      </cc:Work>
    </rdf:RDF>
  </metadata>
  <g
     transform="translate(0,-1028.3622)"
     id="layer1">
    <g
       transform="translate(-630,-213.99998)"
       id="land-use-24"
       style="display:inline">
      <path
         d="m 637.5,1245.3622 c -0.5,0 -0.78339,0.1967 -1,0.5 l -2.5,3.5 2,0 0,3 5,0 0,-3 2,0 -2.5,-3.5 c -0.21661,-0.3033 -0.5,-0.5 -1,-0.5 z m 12.5,0 0,2 -4,0 c -0.5,0 -1,0.5 -1,1 l 0,4 6,0 0,-7 z m -14,9 c -0.5,0 -1,0.5 -1,1 l 0,7 2,0 0,-2 1,0 0,2 4,0 0,-7 c 0,-0.5 -0.5,-1 -1,-1 z m 12,-1 -3,4 1.5,0 -1.5,3 2,0 0,2 2,0 0,-2 2,0 -1.5,-3 1.5,0 z"
         inkscape:connector-curvature="0"
         id="path6039"
         style="opacity:0.3;color:#000000;fill:#ffffff;fill-opacity:1;fill-rule:nonzero;stroke:#ffffff;stroke-width:2;stroke-linecap:round;stroke-linejoin:round;stroke-miterlimit:4;stroke-opacity:1;stroke-dasharray:none;stroke-dashoffset:0;marker:none;visibility:visible;display:inline;overflow:visible;enable-background:accumulate" />
      <path
         d="m 757.5,195 c -0.5,0 -0.78339,0.1967 -1,0.5 l -2.5,3.5 2,0 0,3 5,0 0,-3 2,0 -2.5,-3.5 c -0.21661,-0.3033 -0.5,-0.5 -1,-0.5 l -2,0 z m 12.5,0 0,2 -4,0 c -0.5,0 -1,0.5 -1,1 l 0,4 6,0 0,-7 -1,0 z m -2,8 -3,4 1.5,0 -1.5,3 2,0 0,2 2,0 0,-2 2,0 -1.5,-3 1.5,0 -3,-4 z m -12,1 c -0.5,0 -1,0.5 -1,1 l 0,7 2,0 0,-2 1,0 0,2 4,0 0,-7 c 0,-0.5 -0.5,-1 -1,-1 l -5,0 z m 1,2 1,0 0,1 -1,0 0,-1 z m 2,0 1,0 0,1 -1,0 0,-1 z m -2,2 1,0 0,1 -1,0 0,-1 z m 2,0 1,0 0,1 -1,0 0,-1 z m 0,2 1,0 0,1 -1,0 0,-1 z"
         inkscape:connector-curvature="0"
         transform="translate(-120,1050.3622)"
         id="path5867"
         style="color:#000000;fill:#444444;fill-opacity:1;fill-rule:nonzero;stroke:none;stroke-width:0.46545455;marker:none;visibility:visible;display:inline;overflow:visible;enable-background:accumulate" />
    </g>
  </g>
  <rect
     width="24"
     height="24"
     x="0"
     y="0"
     id="canvas"
     style="fill:none;stroke:none;visibility:hidden" />
</svg>
