<?xml version="1.0" encoding="UTF-8" standalone="no"?>
<!-- Created with Inkscape (http://www.inkscape.org/) -->

<svg
   xmlns:dc="http://purl.org/dc/elements/1.1/"
   xmlns:cc="http://creativecommons.org/ns#"
   xmlns:rdf="http://www.w3.org/1999/02/22-rdf-syntax-ns#"
   xmlns:svg="http://www.w3.org/2000/svg"
   xmlns="http://www.w3.org/2000/svg"
   xmlns:inkscape="http://www.inkscape.org/namespaces/inkscape"
   version="1.1"
   width="12"
   height="12"
   id="svg4764">
  <defs
     id="defs4766" />
  <metadata
     id="metadata4769">
    <rdf:RDF>
      <cc:Work
         rdf:about="">
        <dc:format>image/svg+xml</dc:format>
        <dc:type
           rdf:resource="http://purl.org/dc/dcmitype/StillImage" />
        <dc:title />
      </cc:Work>
    </rdf:RDF>
  </metadata>
  <g
     transform="translate(0,-1040.3622)"
     id="layer1">
    <g
       transform="translate(-672,-201.99998)"
       id="land-use-12"
       style="display:inline">
      <g
         transform="matrix(0.58823529,0,0,0.58823529,302.23531,510.20797)"
         id="g5945">
        <path
           d="m 633.69998,1246.3622 -3.4,3.4 1.7,0 0,3.4 5.1,0 0,-3.4 1.7,0 -3.4,-3.4 z m 10.2,0 0,1.7 -2.23125,0 -1.16875,1.275 0,3.825 5.1,0 0,-6.8 z m -10.2,10.2 -1.7,0 0,6.8 1.7,0 0,-1.7 1.7,0 0,1.7 1.7,0 0,-6.8 -1.7,0 z m 9.35,-1.7 -3.4,4.25 1.7,0 -1.7,2.55 2.55,0 0,1.7 1.7,0 0,-1.7 2.55,0 -1.7,-2.55 1.7,0 z"
           inkscape:connector-curvature="0"
           id="path6010"
           style="opacity:0.3;color:#000000;fill:#ffffff;fill-opacity:1;fill-rule:nonzero;stroke:#ffffff;stroke-width:3.4000001;stroke-linecap:round;stroke-linejoin:round;stroke-miterlimit:4;stroke-opacity:1;stroke-dasharray:none;stroke-dashoffset:0;marker:none;visibility:visible;display:inline;overflow:visible;enable-background:accumulate" />
        <path
           d="m 633.69998,1246.3622 -3.4,3.4 1.7,0 0,3.4 5.1,0 0,-3.4 1.7,0 -3.4,-3.4 z m 10.2,0 0,1.7 -2.23125,0 -1.16875,1.275 0,3.825 5.1,0 0,-6.8 z m -10.2,10.2 -1.7,0 0,6.8 1.7,0 0,-1.7 1.7,0 0,1.7 1.7,0 0,-6.8 -1.7,0 z m 9.35,-1.7 -3.4,4.25 1.7,0 -1.7,2.55 2.55,0 0,1.7 1.7,0 0,-1.7 2.55,0 -1.7,-2.55 1.7,0 z"
           inkscape:connector-curvature="0"
           id="path5947"
           style="color:#000000;fill:#444444;fill-opacity:1;fill-rule:nonzero;stroke:none;stroke-width:0.46545455;marker:none;visibility:visible;display:inline;overflow:visible;enable-background:accumulate" />
      </g>
    </g>
  </g>
  <rect
     width="12"
     height="12"
     x="0"
     y="0"
     id="canvas"
     style="fill:none;stroke:none;visibility:hidden" />
</svg>
