<?xml version="1.0" encoding="utf-8"?>
<!-- Generator: Adobe Illustrator 15.1.0, SVG Export Plug-In . SVG Version: 6.00 Build 0)  -->
<!DOCTYPE svg PUBLIC "-//W3C//DTD SVG 1.1//EN" "http://www.w3.org/Graphics/SVG/1.1/DTD/svg11.dtd">
<svg version="1.1"
	 id="svg4460" sodipodi:docname="marker-stroked-24.svg" inkscape:version="0.48.2 r9819" xmlns:sodipodi="http://sodipodi.sourceforge.net/DTD/sodipodi-0.dtd" xmlns:inkscape="http://www.inkscape.org/namespaces/inkscape" xmlns:svg="http://www.w3.org/2000/svg" xmlns:rdf="http://www.w3.org/1999/02/22-rdf-syntax-ns#" xmlns:cc="http://creativecommons.org/ns#" xmlns:dc="http://purl.org/dc/elements/1.1/"
	 xmlns="http://www.w3.org/2000/svg" xmlns:xlink="http://www.w3.org/1999/xlink" x="0px" y="0px" width="24px" height="24px"
	 viewBox="-402.5 403.5 24 24" enable-background="new -402.5 403.5 24 24" xml:space="preserve">
<sodipodi:namedview  id="base" inkscape:pageopacity="0.0" borderopacity="1.0" inkscape:cx="15.622727" inkscape:pageshadow="2" inkscape:zoom="11.313708" inkscape:document-units="px" inkscape:current-layer="layer1" inkscape:guide-bbox="true" showguides="true" inkscape:window-width="1220" showgrid="true" inkscape:window-height="833" inkscape:window-x="56" inkscape:cy="6.9146856" inkscape:window-y="20" inkscape:window-maximized="0" pagecolor="#ffffff" bordercolor="#666666">
	<inkscape:grid  type="xygrid" id="grid4468" enabled="true" empspacing="5" visible="true" snapvisiblegridlinesonly="true">
		</inkscape:grid>
	<sodipodi:guide  id="guide4470" position="0,20" orientation="1,0"></sodipodi:guide>
	<sodipodi:guide  id="guide4472" position="4,24" orientation="0,1"></sodipodi:guide>
	<sodipodi:guide  id="guide4474" position="24,13" orientation="1,0"></sodipodi:guide>
	<sodipodi:guide  id="guide4476" position="15,0" orientation="0,1"></sodipodi:guide>
	<sodipodi:guide  id="guide4478" position="23,20" orientation="1,0"></sodipodi:guide>
	<sodipodi:guide  id="guide4480" position="20,23" orientation="0,1"></sodipodi:guide>
	<sodipodi:guide  id="guide4482" position="2,5" orientation="1,0"></sodipodi:guide>
	<sodipodi:guide  id="guide4484" position="7,2" orientation="0,1"></sodipodi:guide>
	<sodipodi:guide  id="guide4486" position="13,16" orientation="1,0"></sodipodi:guide>
	<sodipodi:guide  id="guide4490" position="16,13" orientation="0,1"></sodipodi:guide>
</sodipodi:namedview>
<g id="layer1" transform="translate(0,-1028.3622)" inkscape:groupmode="layer" inkscape:label="Layer 1">
</g>
<g id="laundry">
	<path opacity="0.3" fill="#FFFFFF" stroke="#FFFFFF" stroke-width="2" stroke-miterlimit="10" d="M-383.5,405.5h-14
		c-0.552,0-1,0.447-1,1v4v3v10c0,0.553,0.448,1,1,1h14c0.552,0,1-0.447,1-1v-11v-2v-4C-382.5,405.947-382.948,405.5-383.5,405.5z"/>
	<g>
		<path fill="#454545" d="M-383.5,405.5h-14c-0.552,0-1,0.447-1,1v3h16v-3C-382.5,405.947-382.948,405.5-383.5,405.5z M-392.5,408.5
			h-4v-2h4V408.5z M-387.5,408.5h-2v-2h2V408.5z M-384.5,408.5h-2v-2h2V408.5z"/>
		<path fill="#454545" d="M-398.5,410.5v13c0,0.553,0.448,1,1,1h14c0.552,0,1-0.447,1-1v-13H-398.5z M-390.5,422.5
			c-2.762,0-5-2.238-5-5s2.238-5,5-5s5,2.238,5,5S-387.738,422.5-390.5,422.5z"/>
		<path fill="#454545" d="M-390.5,420.5c1.657,0,3-1.344,3-3h-6C-393.5,419.156-392.157,420.5-390.5,420.5z"/>
	</g>
</g>
</svg>
