<?xml version="1.0" encoding="UTF-8" standalone="no"?>
<!-- Generator: Adobe Illustrator 15.1.0, SVG Export Plug-In . SVG Version: 6.00 Build 0)  -->

<svg
   xmlns:dc="http://purl.org/dc/elements/1.1/"
   xmlns:cc="http://creativecommons.org/ns#"
   xmlns:rdf="http://www.w3.org/1999/02/22-rdf-syntax-ns#"
   xmlns:svg="http://www.w3.org/2000/svg"
   xmlns="http://www.w3.org/2000/svg"
   xmlns:sodipodi="http://sodipodi.sourceforge.net/DTD/sodipodi-0.dtd"
   xmlns:inkscape="http://www.inkscape.org/namespaces/inkscape"
   version="1.1"
   id="svg4764"
   sodipodi:docname="laundry-12.svg"
   inkscape:version="0.48.2 r9819"
   x="0px"
   y="0px"
   width="12px"
   height="12px"
   viewBox="-402.5 403.5 12 12"
   enable-background="new -402.5 403.5 12 12"
   xml:space="preserve"><metadata
   id="metadata27"><rdf:RDF><cc:Work
       rdf:about=""><dc:format>image/svg+xml</dc:format><dc:type
         rdf:resource="http://purl.org/dc/dcmitype/StillImage" /></cc:Work></rdf:RDF></metadata><defs
   id="defs25" />
<sodipodi:namedview
   id="base"
   inkscape:pageopacity="0.0"
   borderopacity="1.0"
   inkscape:cx="7.7485725"
   inkscape:pageshadow="2"
   inkscape:zoom="45.254834"
   inkscape:document-units="px"
   inkscape:current-layer="layer1"
   inkscape:guide-bbox="true"
   showguides="true"
   inkscape:window-width="1321"
   showgrid="true"
   inkscape:window-height="841"
   inkscape:window-x="461"
   inkscape:cy="5.5692946"
   inkscape:window-y="26"
   inkscape:window-maximized="0"
   pagecolor="#ffffff"
   bordercolor="#666666">
	<inkscape:grid
   type="xygrid"
   id="grid4772"
   enabled="true"
   empspacing="2"
   visible="true"
   snapvisiblegridlinesonly="true"
   spacingx="0.5px"
   spacingy="0.5px">
		</inkscape:grid>
	<sodipodi:guide
   id="guide4789"
   position="2,12"
   orientation="0,1" />
	<sodipodi:guide
   id="guide4791"
   position="12,10"
   orientation="1,0" />
	<sodipodi:guide
   id="guide4793"
   position="10,0"
   orientation="0,1" />
	<sodipodi:guide
   id="guide4795"
   position="0,9"
   orientation="1,0" />
	<sodipodi:guide
   id="guide4797"
   position="5,11"
   orientation="0,1" />
	<sodipodi:guide
   id="guide4799"
   position="11,7"
   orientation="1,0" />
	<sodipodi:guide
   id="guide4801"
   position="9,2"
   orientation="0,1" />
	<sodipodi:guide
   id="guide4803"
   position="2,5"
   orientation="1,0" />
</sodipodi:namedview>
<g
   id="layer1"
   transform="translate(0,-1040.3622)"
   inkscape:groupmode="layer"
   inkscape:label="Layer 1">
<g
   id="laundry-2"
   transform="matrix(0.5,0,0,0.5,-201.25,1242.6122)"><g
     id="g3289"><path
       id="path4234"
       transform="matrix(2,0,0,2,-404.5,402.5)"
       d="M 7,1 5,3 3,3 3,11 11,11 11,1 10,1 7,1 z M 7,2 8,2 8,3 7,3 7,2 z M 9,2 10,2 10,3 9,3 9,2 z M 6,5 8,5 9,6 9,8 8,9 6,9 5,8 5,6 6,5 z M 6,7 6,7.5 6.5,8 7.5,8 8,7.5 8,7 6,7 z"
       style="opacity:0.3;color:#000000;fill:none;stroke:#ffffff;stroke-width:2;stroke-linecap:butt;stroke-linejoin:miter;stroke-miterlimit:4;stroke-opacity:1;stroke-dasharray:none;stroke-dashoffset:0;marker:none;visibility:visible;display:inline;overflow:visible;enable-background:accumulate"
       inkscape:connector-curvature="0" /><path
       style="fill:#454545"
       d="M 7,1 5,3 3,3 3,11 11,11 11,1 10,1 7,1 z M 7,2 8,2 8,3 7,3 7,2 z M 9,2 10,2 10,3 9,3 9,2 z M 6,5 8,5 9,6 9,8 8,9 6,9 5,8 5,6 6,5 z M 6,7 6,7.5 6.5,8 7.5,8 8,7.5 8,7 6,7 z"
       transform="matrix(2,0,0,2,-404.5,402.5)"
       id="path3291"
       inkscape:connector-curvature="0" /></g></g></g>

</svg>