<?xml version="1.0" encoding="utf-8"?>
<!-- Generator: Adobe Illustrator 15.1.0, SVG Export Plug-In . SVG Version: 6.00 Build 0)  -->
<!DOCTYPE svg PUBLIC "-//W3C//DTD SVG 1.1//EN" "http://www.w3.org/Graphics/SVG/1.1/DTD/svg11.dtd">
<svg version="1.1"
	 id="svg4619" sodipodi:docname="maki-18-base.svg" inkscape:version="0.48.2 r9819" xmlns:sodipodi="http://sodipodi.sourceforge.net/DTD/sodipodi-0.dtd" xmlns:inkscape="http://www.inkscape.org/namespaces/inkscape" xmlns:svg="http://www.w3.org/2000/svg" xmlns:rdf="http://www.w3.org/1999/02/22-rdf-syntax-ns#" xmlns:cc="http://creativecommons.org/ns#" xmlns:dc="http://purl.org/dc/elements/1.1/"
	 xmlns="http://www.w3.org/2000/svg" xmlns:xlink="http://www.w3.org/1999/xlink" x="0px" y="0px" width="18px" height="18px"
	 viewBox="-402.5 403.5 18 18" enable-background="new -402.5 403.5 18 18" xml:space="preserve">
<sodipodi:namedview  id="base" inkscape:pageopacity="0.0" borderopacity="1.0" inkscape:cx="5.9619453" inkscape:pageshadow="2" inkscape:zoom="16" inkscape:document-units="px" inkscape:current-layer="layer1" inkscape:guide-bbox="true" showguides="true" inkscape:window-width="1008" showgrid="true" inkscape:window-height="662" inkscape:window-x="76" inkscape:cy="11.948034" inkscape:window-y="40" inkscape:window-maximized="0" pagecolor="#ffffff" bordercolor="#666666">
	<inkscape:grid  type="xygrid" id="grid4627" enabled="true" empspacing="5" visible="true" snapvisiblegridlinesonly="true">
		</inkscape:grid>
	<sodipodi:guide  id="guide4659" position="7,18" orientation="0,1"></sodipodi:guide>
	<sodipodi:guide  id="guide4661" position="18,9" orientation="1,0"></sodipodi:guide>
	<sodipodi:guide  id="guide4663" position="16,17" orientation="0,1"></sodipodi:guide>
	<sodipodi:guide  id="guide4665" position="17,14" orientation="1,0"></sodipodi:guide>
	<sodipodi:guide  id="guide4667" position="0,16" orientation="1,0"></sodipodi:guide>
	<sodipodi:guide  id="guide4669" position="8,0" orientation="0,1"></sodipodi:guide>
	<sodipodi:guide  id="guide4671" position="2,10" orientation="1,0"></sodipodi:guide>
	<sodipodi:guide  id="guide4673" position="12,2" orientation="0,1"></sodipodi:guide>
</sodipodi:namedview>
<g id="layer1" transform="translate(0,-1034.3622)" inkscape:groupmode="layer" inkscape:label="Layer 1">
</g>
<g id="laundry">
	<path opacity="0.3" fill="#FFFFFF" stroke="#FFFFFF" stroke-width="2" stroke-miterlimit="10" d="M-387.5,418.5
		c0,0.553-0.448,1-1,1h-10c-0.552,0-1-0.447-1-1v-12c0-0.553,0.448-1,1-1h10c0.552,0,1,0.447,1,1V418.5z"/>
	<g>
		<path fill="#454545" d="M-388.5,405.5h-10c-0.552,0-1,0.447-1,1v2h12v-2C-387.5,405.947-387.948,405.5-388.5,405.5z M-394.5,407.5
			h-3v-1h3V407.5z M-391.5,407.5h-1v-1h1V407.5z M-389.5,407.5h-1v-1h1V407.5z"/>
		<path fill="#454545" d="M-399.5,409.5v9c0,0.553,0.448,1,1,1h10c0.552,0,1-0.447,1-1v-9H-399.5z M-393.5,418
			c-1.933,0-3.5-1.567-3.5-3.5s1.567-3.5,3.5-3.5s3.5,1.567,3.5,3.5S-391.567,418-393.5,418z"/>
		<path fill="#454545" d="M-393.5,416.5c1.104,0,2-0.896,2-2h-4C-395.5,415.604-394.604,416.5-393.5,416.5z"/>
	</g>
</g>
</svg>
