<?xml version="1.0" encoding="UTF-8" standalone="no"?>
<!-- Created with Inkscape (http://www.inkscape.org/) -->

<svg
   xmlns:dc="http://purl.org/dc/elements/1.1/"
   xmlns:cc="http://creativecommons.org/ns#"
   xmlns:rdf="http://www.w3.org/1999/02/22-rdf-syntax-ns#"
   xmlns:svg="http://www.w3.org/2000/svg"
   xmlns="http://www.w3.org/2000/svg"
   xmlns:inkscape="http://www.inkscape.org/namespaces/inkscape"
   version="1.1"
   width="12"
   height="12"
   viewBox="-402.5 403.5 12 12"
   id="svg4764"
   xml:space="preserve"><metadata
     id="metadata27"><rdf:RDF><cc:Work
         rdf:about=""><dc:format>image/svg+xml</dc:format><dc:type
           rdf:resource="http://purl.org/dc/dcmitype/StillImage" /></cc:Work></rdf:RDF></metadata><defs
     id="defs25" /><g
     transform="translate(0,-1040.3622)"
     id="layer1"><path
       d="m -396.59375,1443.8622 c -0.23256,0.017 -0.45803,0.1185 -0.625,0.2813 l -1.71875,1.7187 -0.5625,0 c -0.52358,10e-5 -0.99995,0.4764 -1,1 l 0,7 c 5e-5,0.5236 0.47642,0.9999 1,1 l 7,0 c 0.52358,-10e-5 0.99995,-0.4764 1,-1 l 0,-9 c -5e-5,-0.5236 -0.47642,-0.9999 -1,-1 l -1,0 -3,0 c -0.0312,0 -0.0625,0 -0.0937,0 z"
       inkscape:connector-curvature="0"
       id="path3098"
       style="font-size:medium;font-style:normal;font-variant:normal;font-weight:normal;font-stretch:normal;text-indent:0;text-align:start;text-decoration:none;line-height:normal;letter-spacing:normal;word-spacing:normal;text-transform:none;direction:ltr;block-progression:tb;writing-mode:lr-tb;text-anchor:start;baseline-shift:baseline;opacity:0.3;color:#000000;fill:#ffffff;fill-opacity:1;stroke:none;stroke-width:2;marker:none;visibility:visible;display:inline;overflow:visible;enable-background:accumulate;font-family:Sans;-inkscape-font-specification:Sans" /><path
       d="m -396.5,1444.8622 -2,2 -1,0 0,7 7,0 0,-9 -1,0 z m 0,1 1,0 0,1 -1,0 z m 2,0 1,0 0,1 -1,0 z m -2,2 1,0 2,2 0,1 -2,2 -1,0 -2,-2 0,-1 z m -1,2 0,1 1,0 0,1 1,0 0,-1 1,0 0,-1 z"
       inkscape:connector-curvature="0"
       id="path3291"
       style="fill:#454545" /></g><rect
     width="12"
     height="12"
     x="0"
     y="0"
     id="canvas"
     style="fill:none;stroke:none;visibility:hidden" /></svg>