<?xml version="1.0" encoding="UTF-8" standalone="no"?>
<!-- Generator: Adobe Illustrator 15.1.0, SVG Export Plug-In . SVG Version: 6.00 Build 0)  -->

<svg
   xmlns:dc="http://purl.org/dc/elements/1.1/"
   xmlns:cc="http://creativecommons.org/ns#"
   xmlns:rdf="http://www.w3.org/1999/02/22-rdf-syntax-ns#"
   xmlns:svg="http://www.w3.org/2000/svg"
   xmlns="http://www.w3.org/2000/svg"
   xmlns:sodipodi="http://sodipodi.sourceforge.net/DTD/sodipodi-0.dtd"
   xmlns:inkscape="http://www.inkscape.org/namespaces/inkscape"
   version="1.1"
   id="svg4764"
   sodipodi:docname="laundry-12.svg"
   inkscape:version="0.48.2 r9819"
   x="0px"
   y="0px"
   width="12px"
   height="12px"
   viewBox="-402.5 403.5 12 12"
   enable-background="new -402.5 403.5 12 12"
   xml:space="preserve"><metadata
   id="metadata27"><rdf:RDF><cc:Work
       rdf:about=""><dc:format>image/svg+xml</dc:format><dc:type
         rdf:resource="http://purl.org/dc/dcmitype/StillImage" /></cc:Work></rdf:RDF></metadata><defs
   id="defs25" />
<sodipodi:namedview
   id="base"
   inkscape:pageopacity="0.0"
   borderopacity="1.0"
   inkscape:cx="-1.6011684"
   inkscape:pageshadow="2"
   inkscape:zoom="16"
   inkscape:document-units="px"
   inkscape:current-layer="layer1"
   inkscape:guide-bbox="true"
   showguides="false"
   inkscape:window-width="1321"
   showgrid="false"
   inkscape:window-height="841"
   inkscape:window-x="110"
   inkscape:cy="6.9506491"
   inkscape:window-y="35"
   inkscape:window-maximized="0"
   pagecolor="#ffffff"
   bordercolor="#666666">
	<inkscape:grid
   type="xygrid"
   id="grid4772"
   enabled="true"
   empspacing="2"
   visible="true"
   snapvisiblegridlinesonly="true"
   spacingx="0.5px"
   spacingy="0.5px">
		</inkscape:grid>
	<sodipodi:guide
   id="guide4789"
   position="7.5,12"
   orientation="0,1" />
	<sodipodi:guide
   id="guide4791"
   position="12,10"
   orientation="1,0" />
	<sodipodi:guide
   id="guide4793"
   position="10,0"
   orientation="0,1" />
	<sodipodi:guide
   id="guide4795"
   position="0,9"
   orientation="1,0" />
	<sodipodi:guide
   id="guide4797"
   position="5,11"
   orientation="0,1" />
	<sodipodi:guide
   id="guide4799"
   position="11,7"
   orientation="1,0" />
	<sodipodi:guide
   id="guide4801"
   position="9,2"
   orientation="0,1" />
	<sodipodi:guide
   id="guide4803"
   position="2,5"
   orientation="1,0" />
</sodipodi:namedview>
<g
   id="layer1"
   transform="translate(0,-1040.3622)"
   inkscape:groupmode="layer"
   inkscape:label="Layer 1">
<path
   style="font-size:medium;font-style:normal;font-variant:normal;font-weight:normal;font-stretch:normal;text-indent:0;text-align:start;text-decoration:none;line-height:normal;letter-spacing:normal;word-spacing:normal;text-transform:none;direction:ltr;block-progression:tb;writing-mode:lr-tb;text-anchor:start;baseline-shift:baseline;color:#000000;fill:#ffffff;fill-opacity:1;stroke:none;stroke-width:2;marker:none;visibility:visible;display:inline;overflow:visible;enable-background:accumulate;font-family:Sans;-inkscape-font-specification:Sans;opacity:0.3"
   d="m -396.59375,1443.8622 c -0.23256,0.017 -0.45803,0.1185 -0.625,0.2813 l -1.71875,1.7187 -0.5625,0 c -0.52358,10e-5 -0.99995,0.4764 -1,1 l 0,7 c 5e-5,0.5236 0.47642,0.9999 1,1 l 7,0 c 0.52358,-10e-5 0.99995,-0.4764 1,-1 l 0,-9 c -5e-5,-0.5236 -0.47642,-0.9999 -1,-1 l -1,0 -3,0 c -0.0312,-0 -0.0625,-0 -0.0937,0 z"
   id="path3098"
   inkscape:connector-curvature="0"
   sodipodi:nodetypes="ccccccccccccccc" /><path
   style="fill:#454545"
   d="m -396.5,1444.8622 -2,2 -1,0 0,7 7,0 0,-9 -1,0 z m 0,1 1,0 0,1 -1,0 z m 2,0 1,0 0,1 -1,0 z m -2,2 1,0 2,2 0,1 -2,2 -1,0 -2,-2 0,-1 z m -1,2 0,1 1,0 0,1 1,0 0,-1 1,0 0,-1 z"
   id="path3291"
   inkscape:connector-curvature="0"
   sodipodi:nodetypes="cccccccccccccccccccccccccccccccccccc" /></g>

</svg>