<?xml version="1.0" encoding="UTF-8" standalone="no"?>
<!-- Generator: Adobe Illustrator 15.1.0, SVG Export Plug-In . SVG Version: 6.00 Build 0)  -->

<svg
   xmlns:dc="http://purl.org/dc/elements/1.1/"
   xmlns:cc="http://creativecommons.org/ns#"
   xmlns:rdf="http://www.w3.org/1999/02/22-rdf-syntax-ns#"
   xmlns:svg="http://www.w3.org/2000/svg"
   xmlns="http://www.w3.org/2000/svg"
   xmlns:sodipodi="http://sodipodi.sourceforge.net/DTD/sodipodi-0.dtd"
   xmlns:inkscape="http://www.inkscape.org/namespaces/inkscape"
   version="1.1"
   id="svg4764"
   sodipodi:docname="laundry-12.svg"
   inkscape:version="0.48.4 r9939"
   x="0px"
   y="0px"
   width="12px"
   height="12px"
   viewBox="-402.5 403.5 12 12"
   enable-background="new -402.5 403.5 12 12"
   xml:space="preserve"><metadata
     id="metadata27"><rdf:RDF><cc:Work
         rdf:about=""><dc:format>image/svg+xml</dc:format><dc:type
           rdf:resource="http://purl.org/dc/dcmitype/StillImage" /></cc:Work></rdf:RDF></metadata><defs
     id="defs25" /><sodipodi:namedview
     id="base"
     inkscape:pageopacity="0.0"
     borderopacity="1.0"
     inkscape:cx="6.3644786"
     inkscape:pageshadow="2"
     inkscape:zoom="45.254834"
     inkscape:document-units="px"
     inkscape:current-layer="layer1"
     inkscape:guide-bbox="true"
     showguides="false"
     inkscape:window-width="1321"
     showgrid="true"
     inkscape:window-height="841"
     inkscape:window-x="110"
     inkscape:cy="6.6146545"
     inkscape:window-y="35"
     inkscape:window-maximized="0"
     pagecolor="#ffffff"
     bordercolor="#666666"><inkscape:grid
       type="xygrid"
       id="grid4772"
       enabled="true"
       empspacing="2"
       visible="true"
       snapvisiblegridlinesonly="true"
       spacingx="0.5px"
       spacingy="0.5px" /><sodipodi:guide
       id="guide4789"
       position="7.5,12"
       orientation="0,1" /><sodipodi:guide
       id="guide4791"
       position="12,10"
       orientation="1,0" /><sodipodi:guide
       id="guide4793"
       position="10,0"
       orientation="0,1" /><sodipodi:guide
       id="guide4795"
       position="0,9"
       orientation="1,0" /><sodipodi:guide
       id="guide4797"
       position="5,11"
       orientation="0,1" /><sodipodi:guide
       id="guide4799"
       position="11,7"
       orientation="1,0" /><sodipodi:guide
       id="guide4801"
       position="9,2"
       orientation="0,1" /><sodipodi:guide
       id="guide4803"
       position="2,5"
       orientation="1,0" /></sodipodi:namedview><g
     id="layer1"
     transform="translate(0,-1040.3622)"
     inkscape:groupmode="layer"
     inkscape:label="Layer 1"><path
       sodipodi:nodetypes="cccccccccccccccccccccccccccccccccc"
       inkscape:connector-curvature="0"
       id="path4452"
       d="m -396.5,1444.8622 -2,2 -1,0 0,7 7,0 0,-9 -1,0 z m 0,1 1,0 0,1 -1,0 z m 2,0 1,0 0,1 -1,0 z m -2,2 1,0 2,2 0,1 -2,2 -1,0 -2,-2 0,-1 z m -1,2 0,0.75 1.25,1.25 0.5,0 1.25,-1.25 0,-0.75 z"
       style="fill:#454545;stroke:#ffffff;stroke-linejoin:round;stroke-linecap:round;stroke-width:2;stroke-miterlimit:4;stroke-dasharray:none;opacity:0.3" /><path
       style="fill:#454545"
       d="m -396.5,1444.8622 -2,2 -1,0 0,7 7,0 0,-9 -1,0 z m 0,1 1,0 0,1 -1,0 z m 2,0 1,0 0,1 -1,0 z m -2,2 1,0 2,2 0,1 -2,2 -1,0 -2,-2 0,-1 z m -1,2 0,0.75 1.25,1.25 0.5,0 1.25,-1.25 0,-0.75 z"
       id="path3291"
       inkscape:connector-curvature="0"
       sodipodi:nodetypes="cccccccccccccccccccccccccccccccccc" /></g></svg>