<?xml version="1.0" encoding="UTF-8" standalone="no"?>
<!-- Created with Inkscape (http://www.inkscape.org/) -->

<svg
   xmlns:dc="http://purl.org/dc/elements/1.1/"
   xmlns:cc="http://creativecommons.org/ns#"
   xmlns:rdf="http://www.w3.org/1999/02/22-rdf-syntax-ns#"
   xmlns:svg="http://www.w3.org/2000/svg"
   xmlns="http://www.w3.org/2000/svg"
   xmlns:inkscape="http://www.inkscape.org/namespaces/inkscape"
   version="1.1"
   width="18"
   height="18"
   viewBox="-402.5 403.5 18 18"
   id="svg4619"
   xml:space="preserve"><metadata
     id="metadata3166"><rdf:RDF><cc:Work
         rdf:about=""><dc:format>image/svg+xml</dc:format><dc:type
           rdf:resource="http://purl.org/dc/dcmitype/StillImage" /></cc:Work></rdf:RDF></metadata><defs
     id="defs3164" /><g
     transform="translate(0,-1034.3622)"
     id="layer1"><g
       transform="translate(17,0)"
       id="g4308"><g
         transform="translate(-31,1028.3622)"
         id="laundry-7"><g
           id="g3289"><path
             d="M 10.15625,2 7,5 5,5 5,16 16,16 16,2.78125 15.21875,2 10.15625,2 z M 11,3 12,4 11,5 10,4 11,3 z m 3,0 1,1 -1,1 -1,-1 1,-1 z M 10.5,7 C 12.432997,7 14,8.5670034 14,10.5 14,12.432997 12.432997,14 10.5,14 8.5670034,14 7,12.432997 7,10.5 7,8.5670034 8.5670034,7 10.5,7 z m -2,3.5 c 0,1.104569 0.8954305,2 2,2 1.104569,0 2,-0.895431 2,-2 l -2,0 -2,0 z"
             inkscape:connector-curvature="0"
             transform="translate(-389.5,409.5)"
             id="path4332"
             style="opacity:0.3;color:#000000;fill:none;stroke:#ffffff;stroke-width:2;stroke-linecap:butt;stroke-linejoin:miter;stroke-miterlimit:4;stroke-opacity:1;stroke-dasharray:none;stroke-dashoffset:0;marker:none;visibility:visible;display:inline;overflow:visible;enable-background:accumulate" /><path
             d="M 10.15625,2 7,5 5,5 5,16 16,16 16,2.78125 15.21875,2 10.15625,2 z M 11,3 12,4 11,5 10,4 11,3 z m 3,0 1,1 -1,1 -1,-1 1,-1 z M 10.5,7 C 12.432997,7 14,8.5670034 14,10.5 14,12.432997 12.432997,14 10.5,14 8.5670034,14 7,12.432997 7,10.5 7,8.5670034 8.5670034,7 10.5,7 z m -2,3.5 c 0,1.104569 0.8954305,2 2,2 1.104569,0 2,-0.895431 2,-2 l -2,0 -2,0 z"
             inkscape:connector-curvature="0"
             transform="translate(-389.5,409.5)"
             id="path3291"
             style="fill:#454545" /></g></g></g></g><rect
     width="18"
     height="18"
     x="0"
     y="0"
     id="canvas"
     style="fill:none;stroke:none;visibility:hidden" /></svg>