<?xml version="1.0" encoding="UTF-8" standalone="no"?>
<!-- Created with Inkscape (http://www.inkscape.org/) -->

<svg
   xmlns:dc="http://purl.org/dc/elements/1.1/"
   xmlns:cc="http://creativecommons.org/ns#"
   xmlns:rdf="http://www.w3.org/1999/02/22-rdf-syntax-ns#"
   xmlns:svg="http://www.w3.org/2000/svg"
   xmlns="http://www.w3.org/2000/svg"
   xmlns:inkscape="http://www.inkscape.org/namespaces/inkscape"
   version="1.1"
   width="24"
   height="24"
   viewBox="-402.5 403.5 24 24"
   id="svg4460"
   xml:space="preserve"><metadata
     id="metadata3299"><rdf:RDF><cc:Work
         rdf:about=""><dc:format>image/svg+xml</dc:format><dc:type
           rdf:resource="http://purl.org/dc/dcmitype/StillImage" /></cc:Work></rdf:RDF></metadata><defs
     id="defs3297" /><g
     transform="translate(0,-1028.3622)"
     id="layer1" /><g
     id="laundry"><g
       id="g3289"><path
         d="M 12.5,3 C 12.01621,3 11.35355,3.64645 11,4 L 10,5 C 9.64645,5.35355 9,6 8.5,6 L 6,6 C 5.5,6 5,6.5 5,7 l 0,13 c 0,0.553 0.448,1 1,1 l 13,0 c 0.552,0 1,-0.447 1,-1 L 20,4 C 20,3.447 19.552,3 19,3 z M 14,4 c 0.55228,0 1,0.44772 1,1 0,0.55228 -0.44772,1 -1,1 -0.55228,0 -1,-0.44772 -1,-1 0,-0.55228 0.44772,-1 1,-1 z m 3,0 c 0.55228,0 1,0.44772 1,1 0,0.55228 -0.44772,1 -1,1 C 16.44772,6 16,5.55228 16,5 16,4.44772 16.44772,4 17,4 z M 12.5,9 C 14.98528,9 17,11.01472 17,13.5 17,15.98528 14.98528,18 12.5,18 10.01472,18 8,15.98528 8,13.5 8,11.01472 10.01472,9 12.5,9 z m -2.5,4 0,0.5 c 0,1.38071 1.119289,2.5 2.5,2.5 1.380711,0 2.5,-1.11929 2.5,-2.5 L 15,13 z"
         inkscape:connector-curvature="0"
         transform="translate(-402.5,403.5)"
         id="path4161"
         style="opacity:0.3;fill:none;stroke:#ffffff;stroke-width:2;stroke-miterlimit:4;stroke-dasharray:none" /><path
         d="M 12.5,3 C 12.01621,3 11.35355,3.64645 11,4 L 10,5 C 9.64645,5.35355 9,6 8.5,6 L 6,6 C 5.5,6 5,6.5 5,7 l 0,13 c 0,0.553 0.448,1 1,1 l 13,0 c 0.552,0 1,-0.447 1,-1 L 20,4 C 20,3.447 19.552,3 19,3 z M 14,4 c 0.55228,0 1,0.44772 1,1 0,0.55228 -0.44772,1 -1,1 -0.55228,0 -1,-0.44772 -1,-1 0,-0.55228 0.44772,-1 1,-1 z m 3,0 c 0.55228,0 1,0.44772 1,1 0,0.55228 -0.44772,1 -1,1 C 16.44772,6 16,5.55228 16,5 16,4.44772 16.44772,4 17,4 z M 12.5,9 C 14.98528,9 17,11.01472 17,13.5 17,15.98528 14.98528,18 12.5,18 10.01472,18 8,15.98528 8,13.5 8,11.01472 10.01472,9 12.5,9 z m -2.5,4 0,0.5 c 0,1.38071 1.119289,2.5 2.5,2.5 1.380711,0 2.5,-1.11929 2.5,-2.5 L 15,13 z"
         inkscape:connector-curvature="0"
         transform="translate(-402.5,403.5)"
         id="path3291"
         style="fill:#454545" /></g></g><rect
     width="24"
     height="24"
     x="0"
     y="0"
     id="canvas"
     style="fill:none;stroke:none;visibility:hidden" /></svg>