<?xml version="1.0" encoding="utf-8"?>
<!-- Generator: Adobe Illustrator 18.1.1, SVG Export Plug-In . SVG Version: 6.00 Build 0)  -->
<svg version="1.1" xmlns="http://www.w3.org/2000/svg" xmlns:xlink="http://www.w3.org/1999/xlink" x="0px" y="0px"
	 viewBox="0 0 12 12" enable-background="new 0 0 12 12" xml:space="preserve">
<g id="shadows-text-objects" display="none">
	<text transform="matrix(1 0 0 1 2.4991 9.142)" display="inline" opacity="0.2" font-family="'FrutigerLTStd-Bold'" font-size="9">Q</text>
</g>
<g id="letters-text-objects" display="none">
	<text transform="matrix(1 0 0 1 1.999 8.6418)" display="inline" font-family="'FrutigerLTStd-Bold'" font-size="9">Q</text>
</g>
<g id="shadows-outlines">
	<g opacity="0.2">
		<path d="M7.396,10.33L6.299,9.231C6.208,9.25,6.109,9.25,6.001,9.25c-2.017,0-3.078-1.342-3.078-3.269
			c0-1.926,1.08-3.231,3.078-3.231c1.972,0,3.079,1.332,3.079,3.231c0,1.351-0.549,2.44-1.585,2.936l1.423,1.413H7.396z M6.001,8.26
			c1.287,0,1.765-1.144,1.765-2.278c0-1.107-0.514-2.241-1.765-2.241S4.236,4.874,4.236,5.981C4.236,7.116,4.714,8.26,6.001,8.26z"
			/>
	</g>
</g>
<g id="letters-outlines">
	<g>
		<path d="M6.896,9.83L5.799,8.731C5.708,8.75,5.609,8.75,5.501,8.75c-2.017,0-3.079-1.342-3.079-3.269
			c0-1.926,1.08-3.231,3.079-3.231c1.972,0,3.079,1.332,3.079,3.231c0,1.351-0.549,2.44-1.585,2.936L8.418,9.83H6.896z M5.501,7.76
			c1.287,0,1.765-1.144,1.765-2.278c0-1.107-0.514-2.241-1.765-2.241S3.736,4.374,3.736,5.481C3.736,6.616,4.214,7.76,5.501,7.76z"
			/>
	</g>
</g>
<g id="guides_and_set-up" display="none">
</g>
</svg>
