<?xml version="1.0" encoding="utf-8"?>
<!-- Generator: Adobe Illustrator 18.1.1, SVG Export Plug-In . SVG Version: 6.00 Build 0)  -->
<svg version="1.1" xmlns="http://www.w3.org/2000/svg" xmlns:xlink="http://www.w3.org/1999/xlink" x="0px" y="0px"
	 viewBox="0 0 12 12" enable-background="new 0 0 12 12" xml:space="preserve">
<g id="shadows-text-objects" display="none">
	<text transform="matrix(1 0 0 1 4.2496 9.142)" display="inline" opacity="0.2" font-family="'FrutigerLTStd-Bold'" font-size="9">J</text>
</g>
<g id="letters-text-objects" display="none">
	<text transform="matrix(1 0 0 1 3.7495 8.6418)" display="inline" font-family="'FrutigerLTStd-Bold'" font-size="9">J</text>
</g>
<g id="shadows-outlines">
	<g opacity="0.2">
		<path d="M4.448,8.043c0.171,0.063,0.351,0.108,0.603,0.108c0.819,0,0.819-0.657,0.819-1.107V2.858h1.261v4.789
			c0,0.666-0.433,1.603-1.72,1.603c-0.342,0-0.612-0.027-0.963-0.117V8.043z"/>
	</g>
</g>
<g id="letters-outlines">
	<g>
		<path d="M3.938,7.867c0.198,0.072,0.396,0.09,0.567,0.09c0.811,0,1.026-0.459,1.026-1.224V2.358h0.9v4.663
			c0,0.882-0.405,1.729-1.765,1.729c-0.288,0-0.541-0.036-0.729-0.108V7.867z"/>
	</g>
	<g>
		<path d="M3.947,7.543c0.172,0.063,0.352,0.108,0.604,0.108c0.819,0,0.819-0.657,0.819-1.107V2.358h1.261v4.789
			c0,0.666-0.433,1.603-1.721,1.603c-0.342,0-0.611-0.027-0.963-0.117V7.543z"/>
	</g>
</g>
<g id="guides_and_set-up" display="none">
</g>
</svg>
