<?xml version="1.0" encoding="utf-8"?>
<!-- Generator: Adobe Illustrator 18.1.1, SVG Export Plug-In . SVG Version: 6.00 Build 0)  -->
<svg version="1.1" xmlns="http://www.w3.org/2000/svg" xmlns:xlink="http://www.w3.org/1999/xlink" x="0px" y="0px"
	 viewBox="0 0 12 12" enable-background="new 0 0 12 12" xml:space="preserve">
<g id="shadows-text-objects" display="none">
	<text transform="matrix(1 0 0 1 2.751 9.142)" display="inline" opacity="0.2" font-family="'FrutigerLTStd-Bold'" font-size="9">U</text>
</g>
<g id="letters-text-objects" display="none">
	<text transform="matrix(1 0 0 1 2.251 8.6418)" display="inline" font-family="'FrutigerLTStd-Bold'" font-size="9">U</text>
</g>
<g id="shadows-outlines">
	<g opacity="0.2">
		<path d="M3.436,2.858h1.26v3.627c0,1.071,0.343,1.774,1.306,1.774s1.306-0.703,1.306-1.774V2.858h1.26v4.015
			c0,1.684-0.954,2.377-2.565,2.377S3.436,8.557,3.436,6.873V2.858z"/>
	</g>
</g>
<g id="letters-outlines">
	<g>
		<path d="M2.936,2.358h1.26v3.627c0,1.071,0.342,1.774,1.306,1.774c0.963,0,1.306-0.703,1.306-1.774V2.358h1.26v4.015
			c0,1.684-0.954,2.377-2.565,2.377S2.936,8.057,2.936,6.373V2.358z"/>
	</g>
</g>
<g id="guides_and_set-up" display="none">
</g>
</svg>
