<?xml version="1.0" encoding="utf-8"?>
<!-- Generator: Adobe Illustrator 18.1.1, SVG Export Plug-In . SVG Version: 6.00 Build 0)  -->
<svg version="1.1" xmlns="http://www.w3.org/2000/svg" xmlns:xlink="http://www.w3.org/1999/xlink" x="0px" y="0px"
	 viewBox="0 0 24 24" enable-background="new 0 0 24 24" xml:space="preserve">
<g id="shadows-text-objects" display="none">
	
		<text transform="matrix(1 0 0 1 7.3632 18.4326)" display="inline" opacity="0.2" font-family="'FrutigerLTStd-Bold'" font-size="17">U</text>
</g>
<g id="letters-text-objects" display="none">
	
		<text transform="matrix(1 0 0 1 6.3633 17.4329)" display="inline" fill="#FFFFFF" font-family="'FrutigerLTStd-Bold'" font-size="17">U</text>
</g>
<g id="shadows-outlines">
	<g opacity="0.2">
		<path d="M8.655,6.568h2.38v6.85c0,2.023,0.646,3.349,2.464,3.349c1.819,0,2.466-1.325,2.466-3.349v-6.85h2.379v7.581
			c0,3.179-1.802,4.487-4.845,4.487c-3.042,0-4.844-1.309-4.844-4.487V6.568z"/>
	</g>
</g>
<g id="letters-outlines">
	<g>
		<path fill="#FFFFFF" d="M7.655,5.568h2.38v6.85c0,2.023,0.646,3.349,2.465,3.349c1.818,0,2.465-1.325,2.465-3.349v-6.85h2.379
			v7.581c0,3.179-1.802,4.487-4.844,4.487c-3.043,0-4.845-1.309-4.845-4.487V5.568z"/>
	</g>
</g>
<g id="guides_and_set-up" display="none">
</g>
</svg>
