<?xml version="1.0" encoding="utf-8"?>
<!-- Generator: Adobe Illustrator 18.1.1, SVG Export Plug-In . SVG Version: 6.00 Build 0)  -->
<svg version="1.1" xmlns="http://www.w3.org/2000/svg" xmlns:xlink="http://www.w3.org/1999/xlink" x="0px" y="0px"
	 viewBox="0 0 18 18" enable-background="new 0 0 18 18" xml:space="preserve">
<g id="shadows-text-objects" display="none">
	
		<text transform="matrix(1 0 0 1 6.2781 13.7503)" display="inline" opacity="0.2" font-family="'FrutigerLTStd-Bold'" font-size="13">B</text>
</g>
<g id="letters-text-objects" display="none">
	<text transform="matrix(1 0 0 1 5.5283 13.0002)" display="inline" font-family="'FrutigerLTStd-Bold'" font-size="13">B</text>
</g>
<g id="shadows-outlines">
	<g opacity="0.2">
		<path d="M7.331,4.676h3.172c1.171,0,2.926,0.338,2.926,2.327c0,1.079-0.729,1.833-1.808,2.028v0.025
			c1.235,0.117,2.08,0.949,2.08,2.067c0,2.288-2.054,2.626-3.198,2.626H7.331V4.676z M9.151,8.342h0.741
			c0.767,0,1.716-0.169,1.716-1.104c0-1.054-0.923-1.132-1.755-1.132H9.151V8.342z M9.151,12.32h0.857
			c0.846,0,1.873-0.208,1.873-1.262c0-1.183-0.962-1.364-1.873-1.364H9.151V12.32z"/>
	</g>
</g>
<g id="letters-outlines">
	<g>
		<path d="M6.607,3.926h2.457c1.885,0,3.186,0.611,3.186,2.288c0,1.248-0.729,1.872-1.872,2.158v0.025
			c1.234,0.104,2.105,0.91,2.105,2.185c0,1.95-1.612,2.418-3.458,2.418H6.607V3.926z M7.907,7.8h0.716
			c1.26,0,2.326-0.117,2.326-1.456c0-1.079-0.923-1.352-1.677-1.352H7.907V7.8z M7.907,11.934h0.976c1.17,0,2.223-0.247,2.223-1.469
			c0-1.404-1.234-1.599-2.354-1.599H7.907V11.934z"/>
	</g>
	<g>
		<path d="M6.582,3.926h3.172c1.17,0,2.925,0.338,2.925,2.327c0,1.079-0.729,1.833-1.808,2.028v0.025
			c1.235,0.117,2.08,0.949,2.08,2.067c0,2.288-2.054,2.626-3.197,2.626H6.582V3.926z M8.401,7.592h0.741
			c0.768,0,1.716-0.169,1.716-1.104c0-1.054-0.923-1.132-1.755-1.132H8.401V7.592z M8.401,11.57H9.26
			c0.845,0,1.872-0.208,1.872-1.262c0-1.183-0.962-1.364-1.872-1.364H8.401V11.57z"/>
	</g>
</g>
<g id="guides_and_set-up" display="none">
</g>
</svg>
