<?xml version="1.0" encoding="utf-8"?>
<!-- Generator: Adobe Illustrator 18.1.1, SVG Export Plug-In . SVG Version: 6.00 Build 0)  -->
<svg version="1.1" xmlns="http://www.w3.org/2000/svg" xmlns:xlink="http://www.w3.org/1999/xlink" x="0px" y="0px"
	 viewBox="0 0 12 12" enable-background="new 0 0 12 12" xml:space="preserve">
<g id="shadows-text-objects" display="none">
	<text transform="matrix(1 0 0 1 3.2505 9.142)" display="inline" opacity="0.2" font-family="'FrutigerLTStd-Bold'" font-size="9">R</text>
</g>
<g id="letters-text-objects" display="none">
	<text transform="matrix(1 0 0 1 2.7505 8.6418)" display="inline" font-family="'FrutigerLTStd-Bold'" font-size="9">R</text>
</g>
<g id="shadows-outlines">
	<g opacity="0.2">
		<path d="M3.872,2.858h1.359c1.35,0,2.962-0.046,2.962,1.701c0,0.738-0.495,1.35-1.297,1.458v0.019
			c0.342,0.026,0.54,0.368,0.666,0.647l1.009,2.458H7.167L6.411,7.179C6.23,6.711,6.068,6.531,5.537,6.531H5.132v2.61h-1.26V2.858z
			 M5.132,5.541h0.415c0.621,0,1.332-0.091,1.332-0.874c0-0.756-0.702-0.818-1.332-0.818H5.132V5.541z"/>
	</g>
</g>
<g id="letters-outlines">
	<g>
		<path d="M3.371,2.358H4.73c1.351,0,2.963-0.046,2.963,1.701c0,0.738-0.495,1.35-1.297,1.458v0.019
			c0.342,0.026,0.54,0.368,0.666,0.647l1.009,2.458H6.667L5.91,6.679C5.73,6.211,5.568,6.031,5.037,6.031H4.632v2.61H3.371V2.358z
			 M4.632,5.041h0.415c0.621,0,1.332-0.091,1.332-0.874c0-0.756-0.703-0.818-1.332-0.818H4.632V5.041z"/>
	</g>
</g>
<g id="guides_and_set-up" display="none">
</g>
</svg>
