<?xml version="1.0" encoding="utf-8"?>
<!-- Generator: Adobe Illustrator 18.1.1, SVG Export Plug-In . SVG Version: 6.00 Build 0)  -->
<svg version="1.1" xmlns="http://www.w3.org/2000/svg" xmlns:xlink="http://www.w3.org/1999/xlink" x="0px" y="0px"
	 viewBox="0 0 18 18" enable-background="new 0 0 18 18" xml:space="preserve">
<g id="shadows-text-objects" display="none">
	
		<text transform="matrix(1 0 0 1 6.2781 13.7503)" display="inline" opacity="0.2" font-family="'FrutigerLTStd-Bold'" font-size="13">R</text>
</g>
<g id="letters-text-objects" display="none">
	
		<text transform="matrix(1 0 0 1 5.5283 13.0002)" display="inline" fill="#FFFFFF" font-family="'FrutigerLTStd-Bold'" font-size="13">R</text>
</g>
<g id="shadows-outlines">
	<g opacity="0.2">
		<path d="M7.175,4.676h1.964c1.95,0,4.277-0.064,4.277,2.457c0,1.066-0.716,1.95-1.872,2.106v0.025
			c0.493,0.039,0.779,0.533,0.962,0.937l1.456,3.549h-2.028l-1.092-2.834c-0.261-0.676-0.494-0.937-1.262-0.937H8.995v3.771h-1.82
			V4.676z M8.995,8.55h0.598c0.897,0,1.925-0.13,1.925-1.261c0-1.092-1.015-1.184-1.925-1.184H8.995V8.55z"/>
	</g>
</g>
<g id="letters-outlines">
	<g>
		<path fill="#FFFFFF" d="M6.426,3.926h1.963c1.95,0,4.277-0.064,4.277,2.457c0,1.066-0.716,1.95-1.872,2.106v0.025
			c0.493,0.039,0.779,0.533,0.962,0.937L13.212,13h-2.028l-1.092-2.834C9.832,9.49,9.598,9.229,8.83,9.229H8.246V13h-1.82V3.926z
			 M8.246,7.8h0.598c0.896,0,1.924-0.13,1.924-1.261c0-1.092-1.014-1.184-1.924-1.184H8.246V7.8z"/>
	</g>
</g>
<g id="guides_and_set-up" display="none">
</g>
</svg>
