<?xml version="1.0" encoding="utf-8"?>
<!-- Generator: Adobe Illustrator 18.1.1, SVG Export Plug-In . SVG Version: 6.00 Build 0)  -->
<svg version="1.1" xmlns="http://www.w3.org/2000/svg" xmlns:xlink="http://www.w3.org/1999/xlink" x="0px" y="0px"
	 viewBox="0 0 18 18" enable-background="new 0 0 18 18" xml:space="preserve">
<g id="shadows-text-objects" display="none">
	
		<text transform="matrix(1 0 0 1 5.1926 13.7503)" display="inline" opacity="0.2" font-family="'FrutigerLTStd-Bold'" font-size="13">O</text>
</g>
<g id="letters-text-objects" display="none">
	
		<text transform="matrix(1 0 0 1 4.4429 13.0002)" display="inline" fill="#FFFFFF" font-family="'FrutigerLTStd-Bold'" font-size="13">O</text>
</g>
<g id="shadows-outlines">
	<g opacity="0.2">
		<path d="M10.25,4.52c2.848,0,4.446,1.925,4.446,4.667c0,2.743-1.573,4.72-4.446,4.72c-2.912,0-4.446-1.938-4.446-4.72
			C5.804,6.405,7.363,4.52,10.25,4.52z M10.25,12.476c1.859,0,2.548-1.65,2.548-3.289c0-1.599-0.741-3.236-2.548-3.236
			c-1.808,0-2.548,1.638-2.548,3.236C7.702,10.825,8.391,12.476,10.25,12.476z"/>
	</g>
</g>
<g id="letters-outlines">
	<g>
		<path fill="#FFFFFF" d="M9.5,3.77c2.848,0,4.446,1.925,4.446,4.667c0,2.743-1.573,4.72-4.446,4.72
			c-2.912,0-4.446-1.938-4.446-4.72C5.054,5.655,6.613,3.77,9.5,3.77z M9.5,11.726c1.859,0,2.548-1.65,2.548-3.289
			c0-1.599-0.741-3.236-2.548-3.236S6.952,6.838,6.952,8.437C6.952,10.075,7.641,11.726,9.5,11.726z"/>
	</g>
</g>
<g id="guides_and_set-up" display="none">
</g>
</svg>
