<?xml version="1.0" encoding="utf-8"?>
<!-- Generator: Adobe Illustrator 18.1.1, SVG Export Plug-In . SVG Version: 6.00 Build 0)  -->
<svg version="1.1" xmlns="http://www.w3.org/2000/svg" xmlns:xlink="http://www.w3.org/1999/xlink" x="0px" y="0px"
	 viewBox="0 0 24 24" enable-background="new 0 0 24 24" xml:space="preserve">
<g id="shadows-text-objects" display="none">
	
		<text transform="matrix(1 0 0 1 7.8305 18.4326)" display="inline" opacity="0.2" font-family="'FrutigerLTStd-Bold'" font-size="17">K</text>
</g>
<g id="letters-text-objects" display="none">
	<text transform="matrix(1 0 0 1 6.8306 17.4329)" display="inline" font-family="'FrutigerLTStd-Bold'" font-size="17">K</text>
</g>
<g id="shadows-outlines">
	<g opacity="0.2">
		<path d="M9.208,6.568h2.38v5.1l4.284-5.1h2.924l-4.879,5.592l5.082,6.272h-3.11l-4.267-5.507h-0.034v5.507h-2.38V6.568z"/>
	</g>
</g>
<g id="letters-outlines">
	<g>
		<path d="M8.428,5.568h1.7v5.218l5.065-5.218h2.261l-5.575,5.609l6.018,6.255h-2.481l-5.287-5.813v5.813h-1.7V5.568z"/>
	</g>
	<g>
		<path d="M8.208,5.568h2.38v5.1l4.284-5.1h2.924l-4.879,5.592l5.082,6.272h-3.11l-4.267-5.507h-0.034v5.507h-2.38V5.568z"/>
	</g>
</g>
<g id="guides_and_set-up" display="none">
</g>
</svg>
