<?xml version="1.0" encoding="utf-8"?>
<!-- Generator: Adobe Illustrator 18.1.1, SVG Export Plug-In . SVG Version: 6.00 Build 0)  -->
<svg version="1.1" xmlns="http://www.w3.org/2000/svg" xmlns:xlink="http://www.w3.org/1999/xlink" x="0px" y="0px"
	 viewBox="0 0 12 12" enable-background="new 0 0 12 12" xml:space="preserve">
<g id="shadows-text-objects" display="none">
	<text transform="matrix(1 0 0 1 1.752 9.142)" display="inline" opacity="0.2" font-family="'FrutigerLTStd-Bold'" font-size="9">M</text>
</g>
<g id="letters-text-objects" display="none">
	<text transform="matrix(1 0 0 1 1.252 8.6418)" display="inline" font-family="'FrutigerLTStd-Bold'" font-size="9">M</text>
</g>
<g id="shadows-outlines">
	<g opacity="0.2">
		<path d="M2.481,2.858h2.017L5.992,7.62h0.019l1.494-4.762h2.017v6.283H8.314V3.956H8.297L6.604,9.142H5.398L3.706,3.956
			L3.688,3.975v5.167H2.481V2.858z"/>
	</g>
</g>
<g id="letters-outlines">
	<g>
		<path d="M2.062,2.358h1.485L5.52,7.579l1.936-5.221H8.94v6.283h-0.9V3.204H8.021L5.942,8.642H5.061L2.98,3.204H2.963v5.438h-0.9
			V2.358z"/>
	</g>
	<g>
		<path d="M1.98,2.358h2.018L5.492,7.12H5.51l1.495-4.762h2.017v6.283H7.814V3.456H7.797L6.104,8.642H4.898L3.205,3.456L3.188,3.475
			v5.167H1.98V2.358z"/>
	</g>
</g>
<g id="guides_and_set-up" display="none">
</g>
</svg>
