<?xml version="1.0" encoding="utf-8"?>
<!-- Generator: Adobe Illustrator 18.1.1, SVG Export Plug-In . SVG Version: 6.00 Build 0)  -->
<svg version="1.1" xmlns="http://www.w3.org/2000/svg" xmlns:xlink="http://www.w3.org/1999/xlink" x="0px" y="0px"
	 viewBox="0 0 24 24" enable-background="new 0 0 24 24" xml:space="preserve">
<g id="shadows-text-objects" display="none">
	
		<text transform="matrix(1 0 0 1 6.8871 18.4326)" display="inline" opacity="0.2" font-family="'FrutigerLTStd-Bold'" font-size="17">Q</text>
</g>
<g id="letters-text-objects" display="none">
	
		<text transform="matrix(1 0 0 1 5.8872 17.4329)" display="inline" fill="#FFFFFF" font-family="'FrutigerLTStd-Bold'" font-size="17">Q</text>
</g>
<g id="shadows-outlines">
	<g opacity="0.2">
		<path d="M16.135,20.677l-2.074-2.074c-0.17,0.034-0.357,0.034-0.562,0.034c-3.808,0-5.813-2.533-5.813-6.17
			c0-3.639,2.04-6.104,5.813-6.104c3.724,0,5.813,2.516,5.813,6.104c0,2.549-1.036,4.605-2.991,5.541l2.686,2.669H16.135z
			 M13.499,16.767c2.432,0,3.332-2.158,3.332-4.3c0-2.092-0.969-4.233-3.332-4.233c-2.362,0-3.331,2.142-3.331,4.233
			C10.168,14.608,11.068,16.767,13.499,16.767z"/>
	</g>
</g>
<g id="letters-outlines">
	<g>
		<path fill="#FFFFFF" d="M15.135,19.677l-2.074-2.074c-0.17,0.034-0.357,0.034-0.561,0.034c-3.809,0-5.814-2.533-5.814-6.17
			c0-3.638,2.041-6.103,5.814-6.103c3.723,0,5.812,2.516,5.812,6.103c0,2.549-1.036,4.605-2.991,5.541l2.686,2.669H15.135z
			 M12.5,15.767c2.431,0,3.331-2.158,3.331-4.3c0-2.091-0.969-4.233-3.331-4.233c-2.363,0-3.332,2.143-3.332,4.233
			C9.168,13.608,10.068,15.767,12.5,15.767z"/>
	</g>
</g>
<g id="guides_and_set-up" display="none">
</g>
</svg>
