<?xml version="1.0" encoding="utf-8"?>
<!-- Generator: Adobe Illustrator 18.1.1, SVG Export Plug-In . SVG Version: 6.00 Build 0)  -->
<svg version="1.1" xmlns="http://www.w3.org/2000/svg" xmlns:xlink="http://www.w3.org/1999/xlink" x="0px" y="0px"
	 viewBox="0 0 24 24" enable-background="new 0 0 24 24" xml:space="preserve">
<g id="shadows-text-objects" display="none">
	
		<text transform="matrix(1 0 0 1 8.3066 18.4326)" display="inline" opacity="0.2" font-family="'FrutigerLTStd-Bold'" font-size="17">C</text>
</g>
<g id="letters-text-objects" display="none">
	<text transform="matrix(1 0 0 1 7.3066 17.4329)" display="inline" font-family="'FrutigerLTStd-Bold'" font-size="17">C</text>
</g>
<g id="shadows-outlines">
	<g opacity="0.2">
		<path d="M18.318,18.263c-0.866,0.204-1.802,0.374-2.702,0.374c-3.842,0-6.511-1.921-6.511-5.933c0-4.062,2.482-6.341,6.511-6.341
			c0.781,0,1.818,0.153,2.686,0.494l-0.17,2.006c-0.901-0.511-1.717-0.63-2.567-0.63c-2.447,0-3.977,1.87-3.977,4.301
			c0,2.414,1.496,4.232,4.029,4.232c0.935,0,2.039-0.204,2.601-0.493L18.318,18.263z"/>
	</g>
</g>
<g id="letters-outlines">
	<g>
		<path d="M17.013,7.522c-0.748-0.441-1.581-0.662-2.448-0.662c-2.736,0-4.555,1.972-4.555,4.64c0,2.788,2.006,4.641,4.47,4.641
			c0.851,0,1.989-0.221,2.584-0.578l0.103,1.649c-0.901,0.374-2.006,0.425-2.703,0.425c-3.757,0-6.255-2.414-6.255-6.188
			c0-3.654,2.652-6.085,6.272-6.085c0.918,0,1.819,0.136,2.669,0.51L17.013,7.522z"/>
	</g>
	<g>
		<path d="M17.318,17.263c-0.866,0.204-1.802,0.374-2.702,0.374c-3.842,0-6.511-1.921-6.511-5.933c0-4.062,2.482-6.34,6.511-6.34
			c0.781,0,1.818,0.152,2.686,0.493l-0.17,2.006c-0.901-0.511-1.717-0.63-2.567-0.63c-2.447,0-3.977,1.87-3.977,4.301
			c0,2.414,1.496,4.232,4.029,4.232c0.935,0,2.039-0.204,2.601-0.493L17.318,17.263z"/>
	</g>
</g>
<g id="guides_and_set-up" display="none">
</g>
</svg>
