<?xml version="1.0" encoding="utf-8"?>
<!-- Generator: Adobe Illustrator 18.1.1, SVG Export Plug-In . SVG Version: 6.00 Build 0)  -->
<svg version="1.1" xmlns="http://www.w3.org/2000/svg" xmlns:xlink="http://www.w3.org/1999/xlink" x="0px" y="0px"
	 viewBox="0 0 12 12" enable-background="new 0 0 12 12" xml:space="preserve">
<g id="shadows-text-objects" display="none">
	<text transform="matrix(1 0 0 1 2.9981 9.142)" display="inline" opacity="0.2" font-family="'FrutigerLTStd-Bold'" font-size="9">S</text>
</g>
<g id="letters-text-objects" display="none">
	
		<text transform="matrix(1 0 0 1 2.498 8.6418)" display="inline" fill="#FFFFFF" font-family="'FrutigerLTStd-Bold'" font-size="9">S</text>
</g>
<g id="shadows-outlines">
	<g opacity="0.2">
		<path d="M7.104,4.011C6.707,3.839,6.266,3.74,5.825,3.74c-0.433,0-0.99,0.189-0.99,0.873c0,1.089,2.755,0.63,2.755,2.736
			c0,1.378-1.09,1.9-2.359,1.9c-0.684,0-0.99-0.091-1.611-0.243l0.117-1.135C4.169,8.106,4.664,8.26,5.159,8.26
			c0.477,0,1.116-0.243,1.116-0.811c0-1.197-2.755-0.702-2.755-2.782c0-1.404,1.089-1.917,2.196-1.917
			c0.54,0,1.044,0.072,1.504,0.225L7.104,4.011z"/>
	</g>
</g>
<g id="letters-outlines">
	<g>
		<path fill="#FFFFFF" d="M6.604,3.511C6.207,3.339,5.766,3.24,5.324,3.24c-0.432,0-0.99,0.189-0.99,0.873
			c0,1.089,2.756,0.63,2.756,2.736c0,1.378-1.09,1.9-2.359,1.9c-0.684,0-0.99-0.091-1.611-0.243l0.117-1.135
			C3.668,7.606,4.164,7.76,4.658,7.76c0.478,0,1.117-0.243,1.117-0.811c0-1.197-2.756-0.702-2.756-2.782
			c0-1.404,1.09-1.917,2.197-1.917c0.54,0,1.044,0.072,1.504,0.225L6.604,3.511z"/>
	</g>
</g>
<g id="guides_and_set-up" display="none">
</g>
</svg>
