<?xml version="1.0" encoding="utf-8"?>
<!-- Generator: Adobe Illustrator 18.1.1, SVG Export Plug-In . SVG Version: 6.00 Build 0)  -->
<svg version="1.1" xmlns="http://www.w3.org/2000/svg" xmlns:xlink="http://www.w3.org/1999/xlink" x="0px" y="0px"
	 viewBox="0 0 18 18" enable-background="new 0 0 18 18" xml:space="preserve">
<g id="shadows-text-objects" display="none">
	
		<text transform="matrix(1 0 0 1 5.5569 13.7503)" display="inline" opacity="0.2" font-family="'FrutigerLTStd-Bold'" font-size="13">G</text>
</g>
<g id="letters-text-objects" display="none">
	<text transform="matrix(1 0 0 1 4.8071 13.0002)" display="inline" font-family="'FrutigerLTStd-Bold'" font-size="13">G</text>
</g>
<g id="shadows-outlines">
	<g opacity="0.2">
		<path d="M13.695,6.431c-0.702-0.325-1.612-0.48-2.34-0.48c-2.119,0-3.289,1.43-3.289,3.289c0,1.846,1.144,3.236,3.081,3.236
			c0.494,0,0.884-0.052,1.196-0.13V9.979h-1.925V8.55h3.667v4.889c-0.963,0.26-1.964,0.468-2.938,0.468
			c-2.938,0-4.979-1.47-4.979-4.537c0-3.107,1.898-4.85,4.979-4.85c1.053,0,1.885,0.144,2.665,0.377L13.695,6.431z"/>
	</g>
</g>
<g id="letters-outlines">
	<g>
		<path d="M12.854,5.538c-0.637-0.416-1.326-0.624-2.496-0.624c-2.093,0-3.484,1.521-3.484,3.549c0,2.132,1.534,3.549,3.419,3.549
			c0.897,0,1.132-0.091,1.456-0.155V9.1H9.838V8.034h3.212v4.719c-0.494,0.169-1.353,0.403-2.77,0.403
			c-2.873,0-4.784-1.847-4.784-4.732c0-2.795,2.028-4.654,4.797-4.654c1.326,0,1.911,0.195,2.665,0.455L12.854,5.538z"/>
	</g>
	<g>
		<path d="M12.945,5.681c-0.702-0.325-1.612-0.48-2.34-0.48c-2.119,0-3.289,1.43-3.289,3.289c0,1.846,1.145,3.236,3.081,3.236
			c0.494,0,0.884-0.052,1.196-0.13V9.229H9.67V7.8h3.666v4.889c-0.963,0.26-1.964,0.468-2.938,0.468
			c-2.938,0-4.979-1.47-4.979-4.537c0-3.107,1.898-4.85,4.979-4.85c1.053,0,1.885,0.144,2.665,0.377L12.945,5.681z"/>
	</g>
</g>
<g id="guides_and_set-up" display="none">
</g>
</svg>
