<?xml version="1.0" encoding="UTF-8" standalone="no"?>
<!-- Created with Inkscape (http://www.inkscape.org/) -->

<svg
   xmlns:dc="http://purl.org/dc/elements/1.1/"
   xmlns:cc="http://creativecommons.org/ns#"
   xmlns:rdf="http://www.w3.org/1999/02/22-rdf-syntax-ns#"
   xmlns:svg="http://www.w3.org/2000/svg"
   xmlns="http://www.w3.org/2000/svg"
   xmlns:inkscape="http://www.inkscape.org/namespaces/inkscape"
   version="1.1"
   width="18"
   height="18"
   id="svg4619">
  <defs
     id="defs4621" />
  <metadata
     id="metadata4624">
    <rdf:RDF>
      <cc:Work
         rdf:about="">
        <dc:format>image/svg+xml</dc:format>
        <dc:type
           rdf:resource="http://purl.org/dc/dcmitype/StillImage" />
        <dc:title />
      </cc:Work>
    </rdf:RDF>
  </metadata>
  <g
     transform="translate(0,-1034.3622)"
     id="layer1">
    <g
       transform="translate(-264,-64)"
       id="library-18"
       style="display:inline">
      <g
         transform="translate(1,-1)"
         id="g21636">
        <path
           d="m 266,1103.7151 0,7.6471 c 2,2.5 5,1.4706 5,3 l 1,0 0,-6.8824 c 0,-2.2941 -3,-1.6176 -6,-3.7647 z m 13,0 c -3,2.1471 -6,1.4706 -6,3.7647 l 0,6.8824 1,0 c 0,-1.5294 3,-0.5 5,-3 z"
           inkscape:connector-curvature="0"
           id="path14152"
           style="opacity:0.3;color:#000000;fill:none;stroke:#ffffff;stroke-width:2;stroke-linecap:round;stroke-linejoin:round;stroke-miterlimit:4;stroke-opacity:1;stroke-dasharray:none;stroke-dashoffset:0;marker:none;visibility:visible;display:inline;overflow:visible;enable-background:accumulate" />
        <path
           d="m 266,1103.7151 0,7.6471 c 2,2.5 5,1.4706 5,3 l 1,0 0,-6.8824 c 0,-2.2941 -3,-1.6176 -6,-3.7647 z m 13,0 c -3,2.1471 -6,1.4706 -6,3.7647 l 0,6.8824 1,0 c 0,-1.5294 3,-0.5 5,-3 z"
           inkscape:connector-curvature="0"
           id="path7994-9-9-2-1"
           style="color:#000000;fill:#444444;fill-opacity:1;fill-rule:nonzero;stroke:none;stroke-width:1;marker:none;visibility:visible;display:inline;overflow:visible;enable-background:accumulate" />
      </g>
    </g>
  </g>
  <rect
     width="18"
     height="18"
     x="0"
     y="0"
     id="canvas"
     style="fill:none;stroke:none;visibility:hidden" />
</svg>
