<?xml version="1.0" encoding="UTF-8" standalone="no"?>
<!-- Created with Inkscape (http://www.inkscape.org/) -->

<svg
   xmlns:dc="http://purl.org/dc/elements/1.1/"
   xmlns:cc="http://creativecommons.org/ns#"
   xmlns:rdf="http://www.w3.org/1999/02/22-rdf-syntax-ns#"
   xmlns:svg="http://www.w3.org/2000/svg"
   xmlns="http://www.w3.org/2000/svg"
   xmlns:inkscape="http://www.inkscape.org/namespaces/inkscape"
   version="1.1"
   width="24"
   height="24"
   id="svg4460">
  <defs
     id="defs4462" />
  <metadata
     id="metadata4465">
    <rdf:RDF>
      <cc:Work
         rdf:about="">
        <dc:format>image/svg+xml</dc:format>
        <dc:type
           rdf:resource="http://purl.org/dc/dcmitype/StillImage" />
        <dc:title />
      </cc:Work>
    </rdf:RDF>
  </metadata>
  <g
     transform="translate(0,-1028.3622)"
     id="layer1">
    <path
       d="m 13,1030.3622 -2.5,1.5 c -0.513539,0.3081 -0.5,1 -0.5,1 l 0,3.5 -1,0 0,2 1,1 0,1 -1,9 8,0 -1,-9 0,-1 1,-1 0,-2 -1,0 0,-3.5 c 0,0 0.005,-0.697 -0.5,-1 z"
       inkscape:connector-curvature="0"
       id="path5580"
       style="opacity:0.3;color:#000000;fill:#ffffff;fill-opacity:1;fill-rule:nonzero;stroke:#ffffff;stroke-width:2;marker:none;visibility:visible;display:inline;overflow:visible;enable-background:accumulate" />
    <path
       d="m 13,1030.3622 -2.5,1.5 c -0.513539,0.3081 -0.5,1 -0.5,1 l 0,3.5 -1,0 0,2 1,1 0,1 -1,9 8,0 -1,-9 0,-1 1,-1 0,-2 -1,0 0,-3.5 c 0,0 0.005,-0.697 -0.5,-1 z m 1,4 0,2 -2,0 0,-2 c 0,0 0,-1 1,-1 1,0 1,1 1,1 z"
       inkscape:connector-curvature="0"
       id="rect4650"
       style="color:#000000;fill:#444444;fill-opacity:1;fill-rule:nonzero;stroke:none;stroke-width:2;marker:none;visibility:visible;display:inline;overflow:visible;enable-background:accumulate" />
  </g>
  <rect
     width="24"
     height="24"
     x="0"
     y="0"
     id="canvas"
     style="fill:none;stroke:none;visibility:hidden" />
</svg>
