<?xml version="1.0" encoding="UTF-8" standalone="no"?>
<!-- Created with Inkscape (http://www.inkscape.org/) -->

<svg
   xmlns:dc="http://purl.org/dc/elements/1.1/"
   xmlns:cc="http://creativecommons.org/ns#"
   xmlns:rdf="http://www.w3.org/1999/02/22-rdf-syntax-ns#"
   xmlns:svg="http://www.w3.org/2000/svg"
   xmlns="http://www.w3.org/2000/svg"
   xmlns:sodipodi="http://sodipodi.sourceforge.net/DTD/sodipodi-0.dtd"
   xmlns:inkscape="http://www.inkscape.org/namespaces/inkscape"
   width="18"
   height="18"
   id="svg27435"
   version="1.1"
   inkscape:version="0.48.2 r9819"
   sodipodi:docname="ice-skating-black-18.svg">
  <defs
     id="defs27437" />
  <sodipodi:namedview
     id="base"
     pagecolor="#ffa6ff"
     bordercolor="#666666"
     borderopacity="1.0"
     inkscape:pageopacity="0"
     inkscape:pageshadow="2"
     inkscape:zoom="7.9891803"
     inkscape:cx="12.590799"
     inkscape:cy="8.9588378"
     inkscape:document-units="px"
     inkscape:current-layer="layer1"
     showgrid="false"
     inkscape:window-width="483"
     inkscape:window-height="454"
     inkscape:window-x="3161"
     inkscape:window-y="149"
     inkscape:window-maximized="0">
    <inkscape:grid
       type="xygrid"
       id="grid2986" />
  </sodipodi:namedview>
  <metadata
     id="metadata27440">
    <rdf:RDF>
      <cc:Work
         rdf:about="">
        <dc:format>image/svg+xml</dc:format>
        <dc:type
           rdf:resource="http://purl.org/dc/dcmitype/StillImage" />
        <dc:title></dc:title>
      </cc:Work>
    </rdf:RDF>
  </metadata>
  <g
     inkscape:label="Layer 1"
     inkscape:groupmode="layer"
     id="layer1"
     transform="translate(0,-1034.3622)">
    <g
       id="g14203"
       transform="matrix(1.8211251,0,0,1.8211251,-39.526259,387.92982)">
      <path
         d="m 30.414,364.84 c 0.652,0 1.181,-0.527 1.181,-1.18 v -7.523 c 0,-0.65 -0.528,-1.18 -1.181,-1.18 h -7.522 c -0.652,0 -1.181,0.529 -1.181,1.18 v 7.523 c 0,0.652 0.528,1.18 1.181,1.18 h 7.522 z"
         id="path14206"
         inkscape:connector-curvature="0"
         style="opacity:0;fill:#272525" />
      <g
         style="opacity:0.6;fill:none;stroke:#ffffff;stroke-width:0.5;stroke-miterlimit:4;stroke-opacity:1;stroke-dasharray:none"
         id="g14208">
        <ellipse
           d="m 29.161,356.543 c 0,0.36451 -0.311162,0.66 -0.695,0.66 -0.383838,0 -0.695,-0.29549 -0.695,-0.66 0,-0.36451 0.311162,-0.66 0.695,-0.66 0.383838,0 0.695,0.29549 0.695,0.66 z"
           cx="28.466"
           cy="356.543"
           rx="0.69499999"
           ry="0.66000003"
           id="ellipse14210"
           sodipodi:cx="28.466"
           sodipodi:cy="356.543"
           sodipodi:rx="0.69499999"
           sodipodi:ry="0.66000003"
           style="fill:none;stroke:#ffffff;stroke-width:0.5;stroke-miterlimit:4;stroke-opacity:1;stroke-dasharray:none" />
        <rect
           x="24.440001"
           y="361.26599"
           width="0.50700003"
           height="0.50800002"
           id="rect14212"
           style="fill:none;stroke:#ffffff;stroke-width:0.5;stroke-miterlimit:4;stroke-opacity:1;stroke-dasharray:none" />
        <rect
           x="272.59839"
           y="236.7925"
           transform="matrix(0.7062062,0.70800622,-0.70800622,0.7062062,0,0)"
           width="0.5239954"
           height="0.5239954"
           id="rect14214"
           style="fill:none;stroke:#ffffff;stroke-width:0.5;stroke-miterlimit:4;stroke-opacity:1;stroke-dasharray:none" />
        <rect
           x="271.11752"
           y="237.10938"
           transform="matrix(0.70800622,0.7062062,-0.7062062,0.70800622,0,0)"
           width="0.52299541"
           height="0.52199543"
           id="rect14216"
           style="fill:none;stroke:#ffffff;stroke-width:0.5;stroke-miterlimit:4;stroke-opacity:1;stroke-dasharray:none" />
        <polygon
           points="24.11,363.544 23.571,360.673 23.098,360.673 23.715,364.011 25.719,364.011 26.347,360.671 25.875,360.671 25.325,363.544 "
           id="polygon14218"
           style="fill:none;stroke:#ffffff;stroke-width:0.5;stroke-miterlimit:4;stroke-opacity:1;stroke-dasharray:none" />
        <path
           d="m 26.522,358.83 h -1.046 c -0.414,0 -0.414,0.519 0,0.519 l 1.195,-0.002 c 0.089,0 0.181,-0.045 0.25,-0.15 l 0.601,-0.9 -10e-4,5.35 c 0,0.205 0.174,0.371 0.39,0.371 0.215,0 0.39,-0.166 0.39,-0.371 v -3.104 h 0.359 v 3.104 c 0,0.205 0.175,0.371 0.389,0.371 0.216,0 0.39,-0.166 0.39,-0.371 l 0.001,-5.35 h 0.358 v 1.973 c 0,0.396 0.544,0.396 0.543,0 v -2.013 c 0,-0.438 -0.457,-0.87 -0.997,-0.87 h -1.382 c -0.312,0 -0.584,0.152 -0.742,0.385 l -0.698,1.058 z"
           id="path14220"
           inkscape:connector-curvature="0"
           style="fill:none;stroke:#ffffff;stroke-width:0.5;stroke-miterlimit:4;stroke-opacity:1;stroke-dasharray:none" />
      </g>
      <g
         id="g14222">
        <ellipse
           style="fill:#272525"
           sodipodi:ry="0.66000003"
           sodipodi:rx="0.69499999"
           sodipodi:cy="356.543"
           sodipodi:cx="28.466"
           id="ellipse14224"
           ry="0.66000003"
           rx="0.69499999"
           cy="356.543"
           cx="28.466"
           d="m 29.161,356.543 c 0,0.36451 -0.311162,0.66 -0.695,0.66 -0.383838,0 -0.695,-0.29549 -0.695,-0.66 0,-0.36451 0.311162,-0.66 0.695,-0.66 0.383838,0 0.695,0.29549 0.695,0.66 z" />
        <rect
           style="fill:#272525"
           id="rect14226"
           height="0.50800002"
           width="0.50700003"
           y="361.26599"
           x="24.440001" />
        <rect
           style="fill:#272525"
           id="rect14228"
           height="0.5239954"
           width="0.5239954"
           transform="matrix(0.7062062,0.70800622,-0.70800622,0.7062062,0,0)"
           y="236.7925"
           x="272.59839" />
        <rect
           style="fill:#272525"
           id="rect14230"
           height="0.52199543"
           width="0.52299541"
           transform="matrix(0.70800622,0.7062062,-0.7062062,0.70800622,0,0)"
           y="237.10938"
           x="271.11752" />
        <polygon
           style="fill:#272525"
           id="polygon14232"
           points="24.11,363.544 23.571,360.673 23.098,360.673 23.715,364.011 25.719,364.011 26.347,360.671 25.875,360.671 25.325,363.544 " />
        <path
           style="fill:#272525"
           inkscape:connector-curvature="0"
           id="path14234"
           d="m 26.522,358.83 h -1.046 c -0.414,0 -0.414,0.519 0,0.519 l 1.195,-0.002 c 0.089,0 0.181,-0.045 0.25,-0.15 l 0.601,-0.9 -10e-4,5.35 c 0,0.205 0.174,0.371 0.39,0.371 0.215,0 0.39,-0.166 0.39,-0.371 v -3.104 h 0.359 v 3.104 c 0,0.205 0.175,0.371 0.389,0.371 0.216,0 0.39,-0.166 0.39,-0.371 l 0.001,-5.35 h 0.358 v 1.973 c 0,0.396 0.544,0.396 0.543,0 v -2.013 c 0,-0.438 -0.457,-0.87 -0.997,-0.87 h -1.382 c -0.312,0 -0.584,0.152 -0.742,0.385 l -0.698,1.058 z" />
      </g>
    </g>
  </g>
</svg>
