<?xml version="1.0" encoding="utf-8"?>
<!-- Generator: Adobe Illustrator 18.1.1, SVG Export Plug-In . SVG Version: 6.00 Build 0)  -->
<svg version="1.1" xmlns="http://www.w3.org/2000/svg" xmlns:xlink="http://www.w3.org/1999/xlink" x="0px" y="0px"
	 viewBox="0 0 12 12" enable-background="new 0 0 12 12" xml:space="preserve">
<g id="shadows">
	<g opacity="0.2">
		<polygon points="2.8,6.6 3.5,6.6 4.1,9.9 6,9.9 6.7,6.6 7.3,6.6 6.7,10.5 3.5,10.5 		"/>
		<rect x="4.1" y="5.4" width="0.6" height="0.6"/>
		<rect x="4.8" y="6.6" width="0.6" height="0.6"/>
		<rect x="4.8" y="7.9" width="0.6" height="0.6"/>
		<polygon points="8,4.7 8,10.5 8.6,10.5 8.6,6.6 9.2,6.6 9.2,10.5 9.9,10.5 9.9,4.1 10.5,4.1 10.5,6.6 11.2,6.6 11.2,4.1 10.5,3.4 
			9.2,3.4 9.2,4.1 8.6,4.1 8.6,3.4 8,3.4 7.3,4.1 6.7,4.7 5.4,4.7 5.4,5.4 7.3,5.4 7.3,4.7 		"/>
		<circle cx="8.9" cy="2.5" r="1"/>
	</g>
</g>
<g id="icons">
	<g>
		<polygon points="2.3,6.1 3,6.1 3.6,9.4 5.5,9.4 6.2,6.1 6.8,6.1 6.2,10 3,10 		"/>
		<rect x="3.6" y="4.9" width="0.6" height="0.6"/>
		<rect x="4.2" y="6.1" width="0.6" height="0.6"/>
		<rect x="4.2" y="7.4" width="0.6" height="0.6"/>
		<polygon points="7.5,4.2 7.5,10 8.1,10 8.1,6.1 8.8,6.1 8.8,10 9.4,10 9.4,3.6 10,3.6 10,6.1 10.7,6.1 10.7,3.6 10,2.9 8.8,2.9 
			8.8,3.6 8.1,3.6 8.1,2.9 7.5,2.9 6.8,3.6 6.2,4.2 4.9,4.2 4.9,4.9 6.8,4.9 6.8,4.2 		"/>
		<circle cx="8.4" cy="2" r="1"/>
	</g>
</g>
<g id="guides">
</g>
</svg>
