<?xml version="1.0" encoding="UTF-8" standalone="no"?>
<svg width="12px" height="12px" viewBox="0 0 12 12" version="1.1" xmlns="http://www.w3.org/2000/svg" xmlns:xlink="http://www.w3.org/1999/xlink" xmlns:sketch="http://www.bohemiancoding.com/sketch/ns">
    <!-- Generator: Sketch 3.2.2 (9983) - http://www.bohemiancoding.com/sketch -->
    <title>litter-receptacle-white-12</title>
    <desc>Created with Sketch.</desc>
    <defs></defs>
    <g id="Page-1" stroke="none" stroke-width="1" fill="none" fill-rule="evenodd" sketch:type="MSPage">
        <path d="M2,7.6815427 L2.70588235,7.6815427 L3.41176471,11.2325069 L5.52941176,11.2325069 L6.23529412,7.6815427 L6.94117647,7.6815427 L6.23529412,11.9426997 L2.70588235,11.9426997 L2,7.6815427" id="Fill-271" opacity="0.5" fill="#0A0B09" sketch:type="MSShapeGroup"></path>
        <path d="M3.41176471,6.26115702 L4.11764706,6.26115702 L4.11764706,6.97134986 L3.41176471,6.97134986 L3.41176471,6.26115702 Z" id="Fill-272" opacity="0.5" fill="#0A0B09" sketch:type="MSShapeGroup"></path>
        <path d="M4.11764706,7.6815427 L4.82352941,7.6815427 L4.82352941,8.39173554 L4.11764706,8.39173554 L4.11764706,7.6815427 Z" id="Fill-273" opacity="0.5" fill="#0A0B09" sketch:type="MSShapeGroup"></path>
        <path d="M4.11764706,9.10192837 L4.82352941,9.10192837 L4.82352941,9.81212121 L4.11764706,9.81212121 L4.11764706,9.10192837 Z" id="Fill-274" opacity="0.5" fill="#0A0B09" sketch:type="MSShapeGroup"></path>
        <path d="M7.64705882,5.55096419 L7.64705882,11.9426997 L8.35294118,11.9426997 L8.35294118,7.6815427 L9.05882353,7.6815427 L9.05882353,11.9426997 L9.76470588,11.9426997 L9.76470588,4.84077135 L10.4705882,4.84077135 L10.4705882,7.6815427 L11.1764706,7.6815427 L11.1764706,4.84077135 L10.4705882,4.13057851 L9.05882353,4.13057851 L9.05882353,4.84077135 L8.35294118,4.84077135 L8.35294118,4.13057851 L7.64705882,4.13057851 L6.23529412,5.55096419 L4.82352941,5.55096419 L4.82352941,6.26115702 L6.94117647,6.26115702 L6.94117647,5.55096419 L7.64705882,5.55096419" id="Fill-275" opacity="0.5" fill="#0A0B09" sketch:type="MSShapeGroup"></path>
        <path d="M9.76470588,3.06528926 C9.76470588,3.65474931 9.29176471,4.13057851 8.70588235,4.13057851 C8.12,4.13057851 7.64705882,3.65474931 7.64705882,3.06528926 C7.64705882,2.4758292 8.12,2 8.70588235,2 C9.29176471,2 9.76470588,2.4758292 9.76470588,3.06528926" id="Fill-276" opacity="0.5" fill="#0A0B09" sketch:type="MSShapeGroup"></path>
        <path d="M1,6.6815427 L1.70588235,6.6815427 L2.41176471,10.2325069 L4.52941176,10.2325069 L5.23529412,6.6815427 L5.94117647,6.6815427 L5.23529412,10.9426997 L1.70588235,10.9426997 L1,6.6815427" id="Fill-271" opacity="0.75" fill="#0A0B09" sketch:type="MSShapeGroup"></path>
        <path d="M2.41176471,5.26115702 L3.11764706,5.26115702 L3.11764706,5.97134986 L2.41176471,5.97134986 L2.41176471,5.26115702 Z" id="Fill-272" opacity="0.75" fill="#0A0B09" sketch:type="MSShapeGroup"></path>
        <path d="M3.11764706,6.6815427 L3.82352941,6.6815427 L3.82352941,7.39173554 L3.11764706,7.39173554 L3.11764706,6.6815427 Z" id="Fill-273" opacity="0.75" fill="#0A0B09" sketch:type="MSShapeGroup"></path>
        <path d="M3.11764706,8.10192837 L3.82352941,8.10192837 L3.82352941,8.81212121 L3.11764706,8.81212121 L3.11764706,8.10192837 Z" id="Fill-274" opacity="0.75" fill="#0A0B09" sketch:type="MSShapeGroup"></path>
        <path d="M6.64705882,4.55096419 L6.64705882,10.9426997 L7.35294118,10.9426997 L7.35294118,6.6815427 L8.05882353,6.6815427 L8.05882353,10.9426997 L8.76470588,10.9426997 L8.76470588,3.84077135 L9.47058824,3.84077135 L9.47058824,6.6815427 L10.1764706,6.6815427 L10.1764706,3.84077135 L9.47058824,3.13057851 L8.05882353,3.13057851 L8.05882353,3.84077135 L7.35294118,3.84077135 L7.35294118,3.13057851 L6.64705882,3.13057851 L5.23529412,4.55096419 L3.82352941,4.55096419 L3.82352941,5.26115702 L5.94117647,5.26115702 L5.94117647,4.55096419 L6.64705882,4.55096419" id="Fill-275" opacity="0.75" fill="#0A0B09" sketch:type="MSShapeGroup"></path>
        <path d="M8.76470588,2.06528926 C8.76470588,2.65474931 8.29176471,3.13057851 7.70588235,3.13057851 C7.12,3.13057851 6.64705882,2.65474931 6.64705882,2.06528926 C6.64705882,1.4758292 7.12,1 7.70588235,1 C8.29176471,1 8.76470588,1.4758292 8.76470588,2.06528926" id="Fill-276" opacity="0.75" fill="#0A0B09" sketch:type="MSShapeGroup"></path>
        <path d="M0,5.6815427 L0.705882353,5.6815427 L1.41176471,9.23250689 L3.52941176,9.23250689 L4.23529412,5.6815427 L4.94117647,5.6815427 L4.23529412,9.94269972 L0.705882353,9.94269972 L0,5.6815427" id="Fill-271" fill="#FFFFFF" sketch:type="MSShapeGroup"></path>
        <path d="M1.41176471,4.26115702 L2.11764706,4.26115702 L2.11764706,4.97134986 L1.41176471,4.97134986 L1.41176471,4.26115702 Z" id="Fill-272" fill="#FFFFFF" sketch:type="MSShapeGroup"></path>
        <path d="M2.11764706,5.6815427 L2.82352941,5.6815427 L2.82352941,6.39173554 L2.11764706,6.39173554 L2.11764706,5.6815427 Z" id="Fill-273" fill="#FFFFFF" sketch:type="MSShapeGroup"></path>
        <path d="M2.11764706,7.10192837 L2.82352941,7.10192837 L2.82352941,7.81212121 L2.11764706,7.81212121 L2.11764706,7.10192837 Z" id="Fill-274" fill="#FFFFFF" sketch:type="MSShapeGroup"></path>
        <path d="M5.64705882,3.55096419 L5.64705882,9.94269972 L6.35294118,9.94269972 L6.35294118,5.6815427 L7.05882353,5.6815427 L7.05882353,9.94269972 L7.76470588,9.94269972 L7.76470588,2.84077135 L8.47058824,2.84077135 L8.47058824,5.6815427 L9.17647059,5.6815427 L9.17647059,2.84077135 L8.47058824,2.13057851 L7.05882353,2.13057851 L7.05882353,2.84077135 L6.35294118,2.84077135 L6.35294118,2.13057851 L5.64705882,2.13057851 L4.23529412,3.55096419 L2.82352941,3.55096419 L2.82352941,4.26115702 L4.94117647,4.26115702 L4.94117647,3.55096419 L5.64705882,3.55096419" id="Fill-275" fill="#FFFFFF" sketch:type="MSShapeGroup"></path>
        <path d="M7.76470588,1.06528926 C7.76470588,1.65474931 7.29176471,2.13057851 6.70588235,2.13057851 C6.12,2.13057851 5.64705882,1.65474931 5.64705882,1.06528926 C5.64705882,0.475829201 6.12,0 6.70588235,0 C7.29176471,0 7.76470588,0.475829201 7.76470588,1.06528926" id="Fill-276" fill="#FFFFFF" sketch:type="MSShapeGroup"></path>
    </g>
</svg>