<?xml version="1.0" encoding="utf-8"?>
<!-- Generator: Adobe Illustrator 18.1.1, SVG Export Plug-In . SVG Version: 6.00 Build 0)  -->
<svg version="1.1" xmlns="http://www.w3.org/2000/svg" xmlns:xlink="http://www.w3.org/1999/xlink" x="0px" y="0px"
	 viewBox="0 0 12 12" enable-background="new 0 0 12 12" xml:space="preserve">
<g id="shadows">
	<g opacity="0.2">
		<polygon points="1.8,6.6 2.5,6.6 3.1,9.9 5,9.9 5.7,6.6 6.3,6.6 5.7,10.5 2.5,10.5 		"/>
		<rect x="3.1" y="5.4" width="0.6" height="0.6"/>
		<rect x="3.8" y="6.6" width="0.6" height="0.6"/>
		<rect x="3.8" y="7.9" width="0.6" height="0.6"/>
		<polygon points="7,4.7 7,10.5 7.6,10.5 7.6,6.6 8.3,6.6 8.3,10.5 8.9,10.5 8.9,4.1 9.5,4.1 9.5,6.6 10.2,6.6 10.2,4.1 9.5,3.4 
			8.3,3.4 8.3,4.1 7.6,4.1 7.6,3.4 7,3.4 6.3,4.1 5.7,4.7 4.4,4.7 4.4,5.4 6.3,5.4 6.3,4.7 		"/>
		<circle cx="7.9" cy="2.5" r="1"/>
	</g>
</g>
<g id="icons">
	<g>
		<polygon points="1.3,6.1 2,6.1 2.6,9.4 4.5,9.4 5.2,6.1 5.8,6.1 5.2,10 2,10 		"/>
		<rect x="2.6" y="4.9" width="0.6" height="0.6"/>
		<rect x="3.3" y="6.1" width="0.6" height="0.6"/>
		<rect x="3.3" y="7.4" width="0.6" height="0.6"/>
		<polygon points="6.5,4.2 6.5,10 7.1,10 7.1,6.1 7.8,6.1 7.8,10 8.4,10 8.4,3.6 9,3.6 9,6.1 9.7,6.1 9.7,3.6 9,2.9 7.8,2.9 
			7.8,3.6 7.1,3.6 7.1,2.9 6.5,2.9 5.8,3.6 5.2,4.2 3.9,4.2 3.9,4.9 5.8,4.9 5.8,4.2 		"/>
		<circle cx="7.4" cy="2" r="1"/>
	</g>
</g>
<g id="guides">
</g>
</svg>
