<?xml version="1.0" encoding="utf-8"?>
<!-- Generator: Adobe Illustrator 18.1.1, SVG Export Plug-In . SVG Version: 6.00 Build 0)  -->
<svg version="1.1" xmlns="http://www.w3.org/2000/svg" xmlns:xlink="http://www.w3.org/1999/xlink" x="0px" y="0px"
	 viewBox="0 0 18 18" enable-background="new 0 0 18 18" xml:space="preserve">
<g id="shadows">
	<g opacity="0.2">
		<polygon points="4.2,10.2 5.1,10.2 6.1,14.8 8.9,14.8 9.8,10.2 10.7,10.2 9.8,15.8 5.1,15.8 		"/>
		<rect x="6.1" y="8.3" width="0.9" height="0.9"/>
		<rect x="7" y="10.2" width="0.9" height="0.9"/>
		<rect x="7" y="12" width="0.9" height="0.9"/>
		<polygon points="11.6,7.4 11.6,15.8 12.6,15.8 12.6,10.2 13.5,10.2 13.5,15.8 14.4,15.8 14.4,6.5 15.4,6.5 15.4,10.2 16.3,10.2 
			16.3,6.5 15.4,5.5 13.5,5.5 13.5,6.5 12.6,6.5 12.6,5.5 11.6,5.5 10.7,6.5 9.8,7.4 7.9,7.4 7.9,8.3 10.7,8.3 10.7,7.4 		"/>
		<circle cx="13" cy="4.1" r="1.4"/>
	</g>
</g>
<g id="icons">
	<g>
		<polygon points="3.5,9.4 4.4,9.4 5.3,14.1 8.1,14.1 9,9.4 10,9.4 9,15 4.4,15 		"/>
		<rect x="5.3" y="7.6" width="0.9" height="0.9"/>
		<rect x="6.3" y="9.4" width="0.9" height="0.9"/>
		<rect x="6.3" y="11.3" width="0.9" height="0.9"/>
		<polygon points="10.9,6.6 10.9,15 11.8,15 11.8,9.4 12.8,9.4 12.8,15 13.7,15 13.7,5.7 14.6,5.7 14.6,9.4 15.5,9.4 15.5,5.7 
			14.6,4.8 12.8,4.8 12.8,5.7 11.8,5.7 11.8,4.8 10.9,4.8 10,5.7 9,6.6 7.2,6.6 7.2,7.6 10,7.6 10,6.6 		"/>
		<circle cx="12.3" cy="3.4" r="1.4"/>
	</g>
</g>
<g id="guides">
</g>
</svg>
