<?xml version="1.0" encoding="utf-8"?>
<!-- Generator: Adobe Illustrator 18.1.1, SVG Export Plug-In . SVG Version: 6.00 Build 0)  -->
<svg version="1.1" xmlns="http://www.w3.org/2000/svg" xmlns:xlink="http://www.w3.org/1999/xlink" x="0px" y="0px"
	 viewBox="0 0 24 24" enable-background="new 0 0 24 24" xml:space="preserve">
<g id="shadows">
	<g opacity="0.2">
		<path d="M13.2,10.2h-2.2c-0.9,0-0.9,1.1,0,1.1l2.5,0c0.2,0,0.4-0.1,0.5-0.3L15,9v11.2c0,0.4,0.3,0.8,0.8,0.8
			c0.4,0,0.8-0.3,0.8-0.8V14h0.8v6.2c0,0.4,0.3,0.8,0.8,0.8c0.5,0,0.8-0.3,0.8-0.8V9.4h1.2v3.8c0,0.8,1.2,0.8,1.2,0V9
			c0-0.9-1-1.9-2.1-1.9h-1v0.8h-1.5V7.1c-0.7,0-1.6,0.4-1.9,0.9L13.2,10.2L13.2,10.2z"/>
		<polygon points="5.8,14 6.5,14 8.1,20.2 10.4,20.2 12,14 12.7,14 11.2,21 7.3,21 		"/>
		<polygon points="16.6,4 18.1,4 18.1,4.8 18.9,4.8 18.9,6.3 18.1,6.3 18.1,7.1 16.6,7.1 16.6,6.3 15.8,6.3 15.8,4.8 16.6,4.8 		"/>
		<circle cx="8.1" cy="11.7" r="0.8"/>
		<circle cx="9.6" cy="14" r="0.8"/>
		<circle cx="8.9" cy="16.4" r="0.8"/>
	</g>
</g>
<g id="icons">
	<g>
		<path fill="#FFFFFF" d="M12.2,9.2h-2.2c-0.9,0-0.9,1.1,0,1.1l2.5,0c0.2,0,0.4-0.1,0.5-0.3L14,8v11.2c0,0.4,0.3,0.8,0.8,0.8
			c0.4,0,0.8-0.3,0.8-0.8V13h0.8v6.2c0,0.4,0.3,0.8,0.8,0.8c0.5,0,0.8-0.3,0.8-0.8V8.4h1.2v3.8c0,0.8,1.2,0.8,1.2,0V8
			c0-0.9-1-1.9-2.1-1.9h-1v0.8h-1.5V6.1c-0.7,0-1.6,0.4-1.9,0.9L12.2,9.2L12.2,9.2z"/>
		<polygon fill="#FFFFFF" points="4.8,13 5.5,13 7.1,19.2 9.4,19.2 11,13 11.7,13 10.2,20 6.3,20 		"/>
		<polygon fill="#FFFFFF" points="15.6,3 17.1,3 17.1,3.8 17.9,3.8 17.9,5.3 17.1,5.3 17.1,6.1 15.6,6.1 15.6,5.3 14.8,5.3 
			14.8,3.8 15.6,3.8 		"/>
		<circle fill="#FFFFFF" cx="7.1" cy="10.7" r="0.8"/>
		<circle fill="#FFFFFF" cx="8.6" cy="13" r="0.8"/>
		<circle fill="#FFFFFF" cx="7.9" cy="15.4" r="0.8"/>
	</g>
</g>
<g id="guides">
</g>
</svg>
