<?xml version="1.0" encoding="UTF-8" standalone="no"?>
<svg width="18px" height="18px" viewBox="0 0 18 18" version="1.1" xmlns="http://www.w3.org/2000/svg" xmlns:xlink="http://www.w3.org/1999/xlink" xmlns:sketch="http://www.bohemiancoding.com/sketch/ns">
    <!-- Generator: Sketch 3.2.2 (9983) - http://www.bohemiancoding.com/sketch -->
    <title>litter-receptacle-black-18</title>
    <desc>Created with Sketch.</desc>
    <defs></defs>
    <g id="Page-1" stroke="none" stroke-width="1" fill="none" fill-rule="evenodd" sketch:type="MSPage">
        <g id="Group" sketch:type="MSLayerGroup" transform="translate(2.000000, 1.799988)" fill="#0A0B09" opacity="0.1">
            <path d="M7.16296296,6.10996321 L5.06666667,6.10996321 C4.23703704,6.10996321 4.23703704,7.11731447 5.06666667,7.11731447 L7.45925926,7.11001482 C7.64444444,7.11001482 7.82222222,7.02241906 7.96296296,6.81802895 L8.88888889,5.03691512 L8.88888889,15.5995041 C8.88888889,16.0082843 9.2,16.3294688 9.62962963,16.3294688 C10.0592593,16.3294688 10.3703704,16.0009847 10.3703704,15.5995041 L10.3703704,9.75978663 L11.1111111,9.75978663 L11.1111111,15.5995041 C11.1111111,16.0009847 11.4222222,16.3294688 11.8518519,16.3294688 C12.2814815,16.3294688 12.5925926,16.0009847 12.5925926,15.5995041 L12.5925926,5.37999852 L13.7037037,5.37999852 L13.7037037,8.93492653 C13.7037037,9.71598874 14.8148148,9.71598874 14.8148148,8.93492653 L14.8148148,4.95661901 C14.8148148,4.09526068 13.8962963,3.19010447 12.8148148,3.19010447 L11.8518519,3.19010447 L11.8518519,3.92006916 L10.3703704,3.92006916 L10.3703704,3.19010447 C9.74814815,3.19010447 8.88148148,3.54048752 8.56296296,4.00036527 L7.16296296,6.13186215 L7.16296296,6.10996321" id="Fill-255" sketch:type="MSShapeGroup"></path>
            <path d="M0,9.75978663 L0.740740741,9.75978663 L2.22222222,15.5995041 L4.44444444,15.5995041 L5.92592593,9.75978663 L6.66666667,9.75978663 L5.18518519,16.3294688 L1.48148148,16.3294688 L0,9.75978663" id="Fill-256" sketch:type="MSShapeGroup"></path>
            <path d="M10.3703704,0.27024574 L11.8518519,0.27024574 L11.8518519,1.00021042 L12.5925926,1.00021042 L12.5925926,2.46013979 L11.8518519,2.46013979 L11.8518519,3.19010447 L10.3703704,3.19010447 L10.3703704,2.46013979 L9.62962963,2.46013979 L9.62962963,1.00021042 L10.3703704,1.00021042 L10.3703704,0.27024574" id="Fill-257" sketch:type="MSShapeGroup"></path>
            <path d="M2.96296296,7.56989258 C2.96296296,7.9786728 2.62962963,8.29985726 2.22222222,8.29985726 C1.81481481,8.29985726 1.48148148,7.9786728 1.48148148,7.56989258 C1.48148148,7.168412 1.81481481,6.83992789 2.22222222,6.83992789 C2.62962963,6.83992789 2.96296296,7.168412 2.96296296,7.56989258" id="Fill-258" sketch:type="MSShapeGroup"></path>
            <path d="M2.96296296,9.75978663 C2.96296296,9.35830605 3.2962963,9.02982194 3.7037037,9.02982194 C4.11111111,9.02982194 4.44444444,9.35830605 4.44444444,9.75978663 C4.44444444,10.1685668 4.11111111,10.4897513 3.7037037,10.4897513 C3.2962963,10.4897513 2.96296296,10.1685668 2.96296296,9.75978663" id="Fill-259" sketch:type="MSShapeGroup"></path>
            <path d="M3.7037037,11.9496807 C3.7037037,11.5482001 3.37037037,11.219716 2.96296296,11.219716 C2.55555556,11.219716 2.22222222,11.5482001 2.22222222,11.9496807 C2.22222222,12.3584609 2.55555556,12.6796454 2.96296296,12.6796454 C3.37037037,12.6796454 3.7037037,12.3584609 3.7037037,11.9496807" id="Fill-260" sketch:type="MSShapeGroup"></path>
        </g>
        <g id="Group" sketch:type="MSLayerGroup" transform="translate(1.000000, 0.799988)" fill="#0A0B09" opacity="0.2">
            <path d="M7.16296296,6.10996321 L5.06666667,6.10996321 C4.23703704,6.10996321 4.23703704,7.11731447 5.06666667,7.11731447 L7.45925926,7.11001482 C7.64444444,7.11001482 7.82222222,7.02241906 7.96296296,6.81802895 L8.88888889,5.03691512 L8.88888889,15.5995041 C8.88888889,16.0082843 9.2,16.3294688 9.62962963,16.3294688 C10.0592593,16.3294688 10.3703704,16.0009847 10.3703704,15.5995041 L10.3703704,9.75978663 L11.1111111,9.75978663 L11.1111111,15.5995041 C11.1111111,16.0009847 11.4222222,16.3294688 11.8518519,16.3294688 C12.2814815,16.3294688 12.5925926,16.0009847 12.5925926,15.5995041 L12.5925926,5.37999852 L13.7037037,5.37999852 L13.7037037,8.93492653 C13.7037037,9.71598874 14.8148148,9.71598874 14.8148148,8.93492653 L14.8148148,4.95661901 C14.8148148,4.09526068 13.8962963,3.19010447 12.8148148,3.19010447 L11.8518519,3.19010447 L11.8518519,3.92006916 L10.3703704,3.92006916 L10.3703704,3.19010447 C9.74814815,3.19010447 8.88148148,3.54048752 8.56296296,4.00036527 L7.16296296,6.13186215 L7.16296296,6.10996321" id="Fill-255" sketch:type="MSShapeGroup"></path>
            <path d="M0,9.75978663 L0.740740741,9.75978663 L2.22222222,15.5995041 L4.44444444,15.5995041 L5.92592593,9.75978663 L6.66666667,9.75978663 L5.18518519,16.3294688 L1.48148148,16.3294688 L0,9.75978663" id="Fill-256" sketch:type="MSShapeGroup"></path>
            <path d="M10.3703704,0.27024574 L11.8518519,0.27024574 L11.8518519,1.00021042 L12.5925926,1.00021042 L12.5925926,2.46013979 L11.8518519,2.46013979 L11.8518519,3.19010447 L10.3703704,3.19010447 L10.3703704,2.46013979 L9.62962963,2.46013979 L9.62962963,1.00021042 L10.3703704,1.00021042 L10.3703704,0.27024574" id="Fill-257" sketch:type="MSShapeGroup"></path>
            <path d="M2.96296296,7.56989258 C2.96296296,7.9786728 2.62962963,8.29985726 2.22222222,8.29985726 C1.81481481,8.29985726 1.48148148,7.9786728 1.48148148,7.56989258 C1.48148148,7.168412 1.81481481,6.83992789 2.22222222,6.83992789 C2.62962963,6.83992789 2.96296296,7.168412 2.96296296,7.56989258" id="Fill-258" sketch:type="MSShapeGroup"></path>
            <path d="M2.96296296,9.75978663 C2.96296296,9.35830605 3.2962963,9.02982194 3.7037037,9.02982194 C4.11111111,9.02982194 4.44444444,9.35830605 4.44444444,9.75978663 C4.44444444,10.1685668 4.11111111,10.4897513 3.7037037,10.4897513 C3.2962963,10.4897513 2.96296296,10.1685668 2.96296296,9.75978663" id="Fill-259" sketch:type="MSShapeGroup"></path>
            <path d="M3.7037037,11.9496807 C3.7037037,11.5482001 3.37037037,11.219716 2.96296296,11.219716 C2.55555556,11.219716 2.22222222,11.5482001 2.22222222,11.9496807 C2.22222222,12.3584609 2.55555556,12.6796454 2.96296296,12.6796454 C3.37037037,12.6796454 3.7037037,12.3584609 3.7037037,11.9496807" id="Fill-260" sketch:type="MSShapeGroup"></path>
        </g>
        <g id="Group" sketch:type="MSLayerGroup" transform="translate(0.000000, -0.200012)" fill="#0A0B09">
            <path d="M7.16296296,6.10996321 L5.06666667,6.10996321 C4.23703704,6.10996321 4.23703704,7.11731447 5.06666667,7.11731447 L7.45925926,7.11001482 C7.64444444,7.11001482 7.82222222,7.02241906 7.96296296,6.81802895 L8.88888889,5.03691512 L8.88888889,15.5995041 C8.88888889,16.0082843 9.2,16.3294688 9.62962963,16.3294688 C10.0592593,16.3294688 10.3703704,16.0009847 10.3703704,15.5995041 L10.3703704,9.75978663 L11.1111111,9.75978663 L11.1111111,15.5995041 C11.1111111,16.0009847 11.4222222,16.3294688 11.8518519,16.3294688 C12.2814815,16.3294688 12.5925926,16.0009847 12.5925926,15.5995041 L12.5925926,5.37999852 L13.7037037,5.37999852 L13.7037037,8.93492653 C13.7037037,9.71598874 14.8148148,9.71598874 14.8148148,8.93492653 L14.8148148,4.95661901 C14.8148148,4.09526068 13.8962963,3.19010447 12.8148148,3.19010447 L11.8518519,3.19010447 L11.8518519,3.92006916 L10.3703704,3.92006916 L10.3703704,3.19010447 C9.74814815,3.19010447 8.88148148,3.54048752 8.56296296,4.00036527 L7.16296296,6.13186215 L7.16296296,6.10996321" id="Fill-255" sketch:type="MSShapeGroup"></path>
            <path d="M0,9.75978663 L0.740740741,9.75978663 L2.22222222,15.5995041 L4.44444444,15.5995041 L5.92592593,9.75978663 L6.66666667,9.75978663 L5.18518519,16.3294688 L1.48148148,16.3294688 L0,9.75978663" id="Fill-256" sketch:type="MSShapeGroup"></path>
            <path d="M10.3703704,0.27024574 L11.8518519,0.27024574 L11.8518519,1.00021042 L12.5925926,1.00021042 L12.5925926,2.46013979 L11.8518519,2.46013979 L11.8518519,3.19010447 L10.3703704,3.19010447 L10.3703704,2.46013979 L9.62962963,2.46013979 L9.62962963,1.00021042 L10.3703704,1.00021042 L10.3703704,0.27024574" id="Fill-257" sketch:type="MSShapeGroup"></path>
            <path d="M2.96296296,7.56989258 C2.96296296,7.9786728 2.62962963,8.29985726 2.22222222,8.29985726 C1.81481481,8.29985726 1.48148148,7.9786728 1.48148148,7.56989258 C1.48148148,7.168412 1.81481481,6.83992789 2.22222222,6.83992789 C2.62962963,6.83992789 2.96296296,7.168412 2.96296296,7.56989258" id="Fill-258" sketch:type="MSShapeGroup"></path>
            <path d="M2.96296296,9.75978663 C2.96296296,9.35830605 3.2962963,9.02982194 3.7037037,9.02982194 C4.11111111,9.02982194 4.44444444,9.35830605 4.44444444,9.75978663 C4.44444444,10.1685668 4.11111111,10.4897513 3.7037037,10.4897513 C3.2962963,10.4897513 2.96296296,10.1685668 2.96296296,9.75978663" id="Fill-259" sketch:type="MSShapeGroup"></path>
            <path d="M3.7037037,11.9496807 C3.7037037,11.5482001 3.37037037,11.219716 2.96296296,11.219716 C2.55555556,11.219716 2.22222222,11.5482001 2.22222222,11.9496807 C2.22222222,12.3584609 2.55555556,12.6796454 2.96296296,12.6796454 C3.37037037,12.6796454 3.7037037,12.3584609 3.7037037,11.9496807" id="Fill-260" sketch:type="MSShapeGroup"></path>
        </g>
    </g>
</svg>