<?xml version="1.0" encoding="utf-8"?>
<!-- Generator: Adobe Illustrator 18.1.1, SVG Export Plug-In . SVG Version: 6.00 Build 0)  -->
<svg version="1.1" xmlns="http://www.w3.org/2000/svg" xmlns:xlink="http://www.w3.org/1999/xlink" x="0px" y="0px"
	 viewBox="0 0 18 18" enable-background="new 0 0 18 18" xml:space="preserve">
<g id="shadows">
	<g opacity="0.2">
		<polygon points="3.7,5.5 4.7,5.5 4.7,10.2 16.8,10.2 16.8,13 15.8,13 15.8,11.1 4.7,11.1 4.7,13 3.7,13 		"/>
		<polygon points="5.6,9.2 16.8,9.2 16.8,7.4 12.1,6.5 8.4,6.5 8.4,8.3 5.6,8.3 		"/>
		<rect x="5.6" y="6" width="1.9" height="1.4"/>
	</g>
</g>
<g id="icons">
	<g>
		<polygon points="3,4.8 3.9,4.8 3.9,9.4 16,9.4 16,12.2 15.1,12.2 15.1,10.4 3.9,10.4 3.9,12.2 3,12.2 		"/>
		<polygon points="4.9,8.5 16,8.5 16,6.6 11.4,5.7 7.6,5.7 7.6,7.6 4.9,7.6 		"/>
		<rect x="4.9" y="5.3" width="1.9" height="1.4"/>
	</g>
</g>
<g id="guides">
</g>
</svg>
