<?xml version="1.0" encoding="utf-8"?>
<!-- Generator: Adobe Illustrator 18.1.1, SVG Export Plug-In . SVG Version: 6.00 Build 0)  -->
<svg version="1.1" xmlns="http://www.w3.org/2000/svg" xmlns:xlink="http://www.w3.org/1999/xlink" x="0px" y="0px"
	 viewBox="0 0 12 12" enable-background="new 0 0 12 12" xml:space="preserve">
<g id="shadows">
	<g opacity="0.2">
		<polygon points="1.5,3.4 2.1,3.4 2.1,6.6 10.5,6.6 10.5,8.6 9.9,8.6 9.9,7.3 2.1,7.3 2.1,8.6 1.5,8.6 		"/>
		<polygon points="2.8,6 10.5,6 10.5,4.7 7.3,4.1 4.7,4.1 4.7,5.4 2.8,5.4 		"/>
		<rect x="2.8" y="3.8" width="1.3" height="1"/>
	</g>
</g>
<g id="icons">
	<g>
		<polygon fill="#FFFFFF" points="1,2.9 1.6,2.9 1.6,6.1 10,6.1 10,8.1 9.4,8.1 9.4,6.8 1.6,6.8 1.6,8.1 1,8.1 		"/>
		<polygon fill="#FFFFFF" points="2.3,5.5 10,5.5 10,4.2 6.8,3.6 4.2,3.6 4.2,4.9 2.3,4.9 		"/>
		<rect x="2.3" y="3.3" fill="#FFFFFF" width="1.3" height="1"/>
	</g>
</g>
<g id="guides">
</g>
</svg>
