<?xml version="1.0" encoding="UTF-8" standalone="no"?>
<!-- Created with Inkscape (http://www.inkscape.org/) -->

<svg
   xmlns:dc="http://purl.org/dc/elements/1.1/"
   xmlns:cc="http://creativecommons.org/ns#"
   xmlns:rdf="http://www.w3.org/1999/02/22-rdf-syntax-ns#"
   xmlns:svg="http://www.w3.org/2000/svg"
   xmlns="http://www.w3.org/2000/svg"
   xmlns:inkscape="http://www.inkscape.org/namespaces/inkscape"
   version="1.1"
   width="18"
   height="18"
   id="svg4619">
  <defs
     id="defs4621" />
  <metadata
     id="metadata4624">
    <rdf:RDF>
      <cc:Work
         rdf:about="">
        <dc:format>image/svg+xml</dc:format>
        <dc:type
           rdf:resource="http://purl.org/dc/dcmitype/StillImage" />
        <dc:title />
      </cc:Work>
    </rdf:RDF>
  </metadata>
  <g
     transform="translate(0,-1034.3622)"
     id="layer1">
    <g
       transform="translate(-186,-64)"
       id="lodging-18"
       style="display:inline">
      <g
         id="g21721">
        <path
           d="m 190.49999,1102.1123 c -0.82842,0 -1.49999,0.6715 -1.49999,1.5 0,0.8284 0.67157,1.4999 1.49999,1.4999 0.82843,0 1.49999,-0.6715 1.49999,-1.4999 0,-0.8285 -0.67156,-1.5 -1.49999,-1.5 z M 193,1103.3622 c 0,2 -1,3 -2.5,3 l -1,0 c -0.5,0 -0.5,0.5 -0.5,0.5 0,0 0,0.5 0.5,0.5 l 12.5,0 0,-1.7501 c 0,-0.75 0,-2.2499 -3.74997,-2.2499 z m -3.25001,5 c -0.375,0 -0.75,0.375 -0.75,0.75 -1.8e-4,0.743 0,0.8584 0,1.5 0,0.375 0.375,0.75 0.75,0.75 0.375,0 0.74999,-0.375 0.74999,-0.75 l 2e-5,-1.25 10.00002,0 -2e-5,1.25 c -1e-5,0.375 0.375,0.75 0.75,0.75 0.375,0 0.74999,-0.375 0.74999,-0.75 l 0,-1.5 c 0,-0.375 -0.37499,-0.75 -0.74999,-0.75 z"
           inkscape:connector-curvature="0"
           id="path17345"
           style="opacity:0.3;color:#000000;fill:none;stroke:#ffffff;stroke-width:2;stroke-linecap:round;stroke-linejoin:round;stroke-miterlimit:4;stroke-opacity:1;stroke-dasharray:none;stroke-dashoffset:0;marker:none;visibility:visible;display:inline;overflow:visible;enable-background:accumulate" />
        <path
           d="m 190.49999,1102.1123 c -0.82842,0 -1.49999,0.6715 -1.49999,1.5 0,0.8284 0.67157,1.4999 1.49999,1.4999 0.82843,0 1.49999,-0.6715 1.49999,-1.4999 0,-0.8285 -0.67156,-1.5 -1.49999,-1.5 z M 193,1103.3622 c 0,2 -1,3 -2.5,3 l -1,0 c -0.5,0 -0.5,0.5 -0.5,0.5 0,0 0,0.5 0.5,0.5 l 12.5,0 0,-1.7501 c 0,-0.75 0,-2.2499 -3.74997,-2.2499 z m -3.25001,5 c -0.375,0 -0.75,0.375 -0.75,0.75 -1.8e-4,0.743 0,0.8584 0,1.5 0,0.375 0.375,0.75 0.75,0.75 0.375,0 0.74999,-0.375 0.74999,-0.75 l 2e-5,-1.25 10.00002,0 -2e-5,1.25 c -1e-5,0.375 0.375,0.75 0.75,0.75 0.375,0 0.74999,-0.375 0.74999,-0.75 l 0,-1.5 c 0,-0.375 -0.37499,-0.75 -0.74999,-0.75 z"
           inkscape:connector-curvature="0"
           id="path4536-7"
           style="color:#000000;fill:#444444;fill-opacity:1;stroke:none;stroke-width:2;marker:none;visibility:visible;display:inline;overflow:visible;enable-background:accumulate" />
      </g>
    </g>
  </g>
  <rect
     width="18"
     height="18"
     x="0"
     y="0"
     id="canvas"
     style="fill:none;stroke:none;visibility:hidden" />
</svg>
