<?xml version="1.0" encoding="UTF-8" standalone="no"?>
<!-- Created with Inkscape (http://www.inkscape.org/) -->

<svg
   xmlns:dc="http://purl.org/dc/elements/1.1/"
   xmlns:cc="http://creativecommons.org/ns#"
   xmlns:rdf="http://www.w3.org/1999/02/22-rdf-syntax-ns#"
   xmlns:svg="http://www.w3.org/2000/svg"
   xmlns="http://www.w3.org/2000/svg"
   xmlns:sodipodi="http://sodipodi.sourceforge.net/DTD/sodipodi-0.dtd"
   xmlns:inkscape="http://www.inkscape.org/namespaces/inkscape"
   width="12"
   height="12"
   id="svg27498"
   version="1.1"
   inkscape:version="0.48.2 r9819"
   sodipodi:docname="lodging-black-12.svg">
  <defs
     id="defs27500" />
  <sodipodi:namedview
     id="base"
     pagecolor="#ffffff"
     bordercolor="#666666"
     borderopacity="1.0"
     inkscape:pageopacity="0.0"
     inkscape:pageshadow="2"
     inkscape:zoom="10.676107"
     inkscape:cx="9.6789942"
     inkscape:cy="5.7946291"
     inkscape:document-units="px"
     inkscape:current-layer="layer1"
     showgrid="false"
     inkscape:window-width="483"
     inkscape:window-height="454"
     inkscape:window-x="3716"
     inkscape:window-y="644"
     inkscape:window-maximized="0" />
  <metadata
     id="metadata27503">
    <rdf:RDF>
      <cc:Work
         rdf:about="">
        <dc:format>image/svg+xml</dc:format>
        <dc:type
           rdf:resource="http://purl.org/dc/dcmitype/StillImage" />
        <dc:title></dc:title>
      </cc:Work>
    </rdf:RDF>
  </metadata>
  <g
     inkscape:label="Layer 1"
     inkscape:groupmode="layer"
     id="layer1"
     transform="translate(0,-1040.3622)">
    <g
       id="g12779"
       transform="matrix(1.2139605,0,0,1.2139605,-143.74673,555.03945)">
      <path
         d="m 127.11,409.673 c 0.652,0 1.182,-0.529 1.182,-1.18 v -7.523 c 0,-0.65 -0.529,-1.18 -1.182,-1.18 h -7.522 c -0.652,0 -1.181,0.529 -1.181,1.18 v 7.523 c 0,0.65 0.528,1.18 1.181,1.18 h 7.522 z"
         id="path12781"
         inkscape:connector-curvature="0"
         style="opacity:0;fill:#272525" />
      <g
         transform="translate(96.698,32.134)"
         style="opacity:0.6;stroke:#1d1d1c;stroke-width:0.5;stroke-miterlimit:4;stroke-opacity:1;stroke-dasharray:none"
         id="g12783">
        <path
           d="m 29.844,373.475 v 1.188 h 0.626 v -1.775 h -7.011 v -2.568 c 0,-0.172 -0.138,-0.312 -0.312,-0.312 l 0,0 c -0.172,0 -0.311,0.141 -0.311,0.312 v 4.344 h 0.622 v -1.188 h 6.386 z"
           id="path12785"
           inkscape:connector-curvature="0"
           style="fill:#272525;stroke:#1d1d1c;stroke-width:0.5;stroke-miterlimit:4;stroke-opacity:1;stroke-dasharray:none" />
        <circle
           d="m 24.98,371.00699 c 0,0.31093 -0.252064,0.563 -0.563,0.563 -0.310937,0 -0.563,-0.25207 -0.563,-0.563 0,-0.31094 0.252063,-0.563 0.563,-0.563 0.310936,0 0.563,0.25206 0.563,0.563 z"
           cx="24.417"
           cy="371.00699"
           r="0.56300002"
           id="circle12787"
           sodipodi:cx="24.417"
           sodipodi:cy="371.00699"
           sodipodi:rx="0.56300002"
           sodipodi:ry="0.56300002"
           style="fill:#272525;stroke:#1d1d1c;stroke-width:0.5;stroke-miterlimit:4;stroke-opacity:1;stroke-dasharray:none" />
        <path
           d="m 30.48,372.42 -0.002,-0.775 c -0.002,-0.246 -0.208,-0.416 -0.449,-0.445 l -4.426,-0.441 c -0.009,-0.002 -0.017,-0.006 -0.024,-0.006 -0.153,0 -0.277,0.125 -0.277,0.277 v 0.836 h -1.157 c -0.155,0 -0.279,0.125 -0.279,0.277 0,0.154 0.124,0.277 0.279,0.277 h 6.335 z"
           id="path12789"
           inkscape:connector-curvature="0"
           style="fill:#272525;stroke:#1d1d1c;stroke-width:0.5;stroke-miterlimit:4;stroke-opacity:1;stroke-dasharray:none" />
      </g>
      <g
         style="fill:#ffffff;fill-opacity:1"
         transform="translate(96.698,32.134)"
         id="g12791">
        <path
           style="fill:#ffffff;fill-opacity:1"
           inkscape:connector-curvature="0"
           id="path12793"
           d="m 29.844,373.475 v 1.188 h 0.626 v -1.775 h -7.011 v -2.568 c 0,-0.172 -0.138,-0.312 -0.312,-0.312 l 0,0 c -0.172,0 -0.311,0.141 -0.311,0.312 v 4.344 h 0.622 v -1.188 h 6.386 z" />
        <circle
           d="m 24.98,371.00699 c 0,0.31093 -0.252064,0.563 -0.563,0.563 -0.310937,0 -0.563,-0.25207 -0.563,-0.563 0,-0.31094 0.252063,-0.563 0.563,-0.563 0.310936,0 0.563,0.25206 0.563,0.563 z"
           style="fill:#ffffff;fill-opacity:1"
           sodipodi:ry="0.56300002"
           sodipodi:rx="0.56300002"
           sodipodi:cy="371.00699"
           sodipodi:cx="24.417"
           id="circle12795"
           r="0.56300002"
           cy="371.00699"
           cx="24.417" />
        <path
           style="fill:#ffffff;fill-opacity:1"
           inkscape:connector-curvature="0"
           id="path12797"
           d="m 30.48,372.42 -0.002,-0.775 c -0.002,-0.246 -0.208,-0.416 -0.449,-0.445 l -4.426,-0.441 c -0.009,-0.002 -0.017,-0.006 -0.024,-0.006 -0.153,0 -0.277,0.125 -0.277,0.277 v 0.836 h -1.157 c -0.155,0 -0.279,0.125 -0.279,0.277 0,0.154 0.124,0.277 0.279,0.277 h 6.335 z" />
      </g>
    </g>
  </g>
</svg>
