<?xml version="1.0" encoding="UTF-8" standalone="no"?>
<svg width="18px" height="18px" viewBox="0 0 18 18" version="1.1" xmlns="http://www.w3.org/2000/svg" xmlns:xlink="http://www.w3.org/1999/xlink" xmlns:sketch="http://www.bohemiancoding.com/sketch/ns">
    <!-- Generator: Sketch 3.2.2 (9983) - http://www.bohemiancoding.com/sketch -->
    <title>lodging-white-18</title>
    <desc>Created with Sketch.</desc>
    <defs></defs>
    <g id="Page-1" stroke="none" stroke-width="1" fill="none" fill-rule="evenodd" sketch:type="MSPage">
        <g id="Fill-22-+-Fill-23-+-Fill-24" sketch:type="MSLayerGroup" transform="translate(2.000000, 5.000000)" fill="#0A0B09" opacity="0.5">
            <path d="M0.222222222,0.082857919 L1.7037037,0.082857919 L1.7037037,5.92257539 L16.5185185,5.92257539 L16.5185185,9.5723988 L15.037037,9.5723988 L15.037037,7.38250475 L1.7037037,7.38250475 L1.7037037,9.5723988 L0.222222222,9.5723988 L0.222222222,0.082857919" id="Fill-22" sketch:type="MSShapeGroup"></path>
            <path d="M2.44444444,5.1926107 L16.5185185,5.1926107 L16.5185185,3.00271665 L15.7777778,2.27275197 L9.85185185,1.54278729 L5.40740741,1.54278729 L5.40740741,3.73268134 L2.44444444,3.73268134 L2.44444444,5.1926107" id="Fill-23" sketch:type="MSShapeGroup"></path>
            <path d="M4.66666667,1.90776963 C4.66666667,2.51364032 4.17037037,3.00271665 3.55555556,3.00271665 C2.94074074,3.00271665 2.44444444,2.51364032 2.44444444,1.90776963 C2.44444444,1.30189894 2.94074074,0.812822603 3.55555556,0.812822603 C4.17037037,0.812822603 4.66666667,1.30189894 4.66666667,1.90776963" id="Fill-24" sketch:type="MSShapeGroup"></path>
        </g>
        <g id="Fill-22-+-Fill-23-+-Fill-24" sketch:type="MSLayerGroup" transform="translate(1.000000, 4.000000)" fill="#0A0B09" opacity="0.75">
            <path d="M0.222222222,0.082857919 L1.7037037,0.082857919 L1.7037037,5.92257539 L16.5185185,5.92257539 L16.5185185,9.5723988 L15.037037,9.5723988 L15.037037,7.38250475 L1.7037037,7.38250475 L1.7037037,9.5723988 L0.222222222,9.5723988 L0.222222222,0.082857919" id="Fill-22" sketch:type="MSShapeGroup"></path>
            <path d="M2.44444444,5.1926107 L16.5185185,5.1926107 L16.5185185,3.00271665 L15.7777778,2.27275197 L9.85185185,1.54278729 L5.40740741,1.54278729 L5.40740741,3.73268134 L2.44444444,3.73268134 L2.44444444,5.1926107" id="Fill-23" sketch:type="MSShapeGroup"></path>
            <path d="M4.66666667,1.90776963 C4.66666667,2.51364032 4.17037037,3.00271665 3.55555556,3.00271665 C2.94074074,3.00271665 2.44444444,2.51364032 2.44444444,1.90776963 C2.44444444,1.30189894 2.94074074,0.812822603 3.55555556,0.812822603 C4.17037037,0.812822603 4.66666667,1.30189894 4.66666667,1.90776963" id="Fill-24" sketch:type="MSShapeGroup"></path>
        </g>
        <g id="Fill-22-+-Fill-23-+-Fill-24" sketch:type="MSLayerGroup" transform="translate(0.000000, 3.000000)" fill="#FFFFFF">
            <path d="M0.222222222,0.082857919 L1.7037037,0.082857919 L1.7037037,5.92257539 L16.5185185,5.92257539 L16.5185185,9.5723988 L15.037037,9.5723988 L15.037037,7.38250475 L1.7037037,7.38250475 L1.7037037,9.5723988 L0.222222222,9.5723988 L0.222222222,0.082857919" id="Fill-22" sketch:type="MSShapeGroup"></path>
            <path d="M2.44444444,5.1926107 L16.5185185,5.1926107 L16.5185185,3.00271665 L15.7777778,2.27275197 L9.85185185,1.54278729 L5.40740741,1.54278729 L5.40740741,3.73268134 L2.44444444,3.73268134 L2.44444444,5.1926107" id="Fill-23" sketch:type="MSShapeGroup"></path>
            <path d="M4.66666667,1.90776963 C4.66666667,2.51364032 4.17037037,3.00271665 3.55555556,3.00271665 C2.94074074,3.00271665 2.44444444,2.51364032 2.44444444,1.90776963 C2.44444444,1.30189894 2.94074074,0.812822603 3.55555556,0.812822603 C4.17037037,0.812822603 4.66666667,1.30189894 4.66666667,1.90776963" id="Fill-24" sketch:type="MSShapeGroup"></path>
        </g>
    </g>
</svg>