<?xml version="1.0" encoding="UTF-8" standalone="no"?>
<!-- Created with Inkscape (http://www.inkscape.org/) -->

<svg
   xmlns:dc="http://purl.org/dc/elements/1.1/"
   xmlns:cc="http://creativecommons.org/ns#"
   xmlns:rdf="http://www.w3.org/1999/02/22-rdf-syntax-ns#"
   xmlns:svg="http://www.w3.org/2000/svg"
   xmlns="http://www.w3.org/2000/svg"
   xmlns:inkscape="http://www.inkscape.org/namespaces/inkscape"
   version="1.1"
   width="12"
   height="12"
   id="svg4764">
  <defs
     id="defs4766" />
  <metadata
     id="metadata4769">
    <rdf:RDF>
      <cc:Work
         rdf:about="">
        <dc:format>image/svg+xml</dc:format>
        <dc:type
           rdf:resource="http://purl.org/dc/dcmitype/StillImage" />
        <dc:title />
      </cc:Work>
    </rdf:RDF>
  </metadata>
  <g
     transform="translate(0,-1040.3622)"
     id="layer1">
    <g
       transform="translate(-204,-58)"
       id="lodging-12"
       style="display:inline">
      <g
         id="g21717">
        <path
           d="m 207,1100.3622 c -0.55229,0 -1,0.4477 -1,1 0,0.5523 0.44771,1 1,1 0.55228,0 1,-0.4477 1,-1 0,-0.5523 -0.44772,-1 -1,-1 z m 2,1 c 0,1 -0.5,2 -2,2 l -0.75,0 c -0.1263,0 -0.25065,0 -0.25,0.25 1.7e-4,0.068 0,0.3079 0,0.5 0,0.25 0.19428,0.25 0.25,0.25 l 8.75,0 0,-1.5 c 0,-0.5 0,-1.5 -2.5,-1.5 z m -2.5,4 c -0.25,0 -0.5,0.25 -0.5,0.5 -1.2e-4,0.4954 0,0.5723 0,1 0,0.25 0.25,0.5 0.5,0.5 0.25,0 0.5,-0.25 0.5,-0.5 l 0,-0.5 7,0 0,0.5 c 0,0.25 0.25,0.5 0.5,0.5 0.25,0 0.5,-0.25 0.5,-0.5 l 0,-1 c 0,-0.25 -0.25,-0.5 -0.5,-0.5 z"
           inkscape:connector-curvature="0"
           id="path17283"
           style="opacity:0.3;color:#000000;fill:none;stroke:#ffffff;stroke-width:2;stroke-linecap:round;stroke-linejoin:round;stroke-miterlimit:4;stroke-opacity:1;stroke-dasharray:none;stroke-dashoffset:0;marker:none;visibility:visible;display:inline;overflow:visible;enable-background:accumulate" />
        <path
           d="m 207,1100.3622 c -0.55229,0 -1,0.4477 -1,1 0,0.5523 0.44771,1 1,1 0.55228,0 1,-0.4477 1,-1 0,-0.5523 -0.44772,-1 -1,-1 z m 2,1 c 0,1 -0.5,2 -2,2 l -0.75,0 c -0.1263,0 -0.25065,0 -0.25,0.25 1.7e-4,0.068 0,0.3079 0,0.5 0,0.25 0.19428,0.25 0.25,0.25 l 8.75,0 0,-1.5 c 0,-0.5 0,-1.5 -2.5,-1.5 z m -2.5,4 c -0.25,0 -0.5,0.25 -0.5,0.5 -1.2e-4,0.4954 0,0.5723 0,1 0,0.25 0.25,0.5 0.5,0.5 0.25,0 0.5,-0.25 0.5,-0.5 l 0,-0.5 7,0 0,0.5 c 0,0.25 0.25,0.5 0.5,0.5 0.25,0 0.5,-0.25 0.5,-0.5 l 0,-1 c 0,-0.25 -0.25,-0.5 -0.5,-0.5 z"
           inkscape:connector-curvature="0"
           id="path4536-6"
           style="color:#000000;fill:#444444;fill-opacity:1;stroke:none;stroke-width:2;marker:none;visibility:visible;display:inline;overflow:visible;enable-background:accumulate" />
      </g>
    </g>
  </g>
  <rect
     width="12"
     height="12"
     x="0"
     y="0"
     id="canvas"
     style="fill:none;stroke:none;visibility:hidden" />
</svg>
