<?xml version="1.0" encoding="UTF-8" standalone="no"?>
<svg width="12px" height="12px" viewBox="0 0 12 12" version="1.1" xmlns="http://www.w3.org/2000/svg" xmlns:xlink="http://www.w3.org/1999/xlink" xmlns:sketch="http://www.bohemiancoding.com/sketch/ns">
    <!-- Generator: Sketch 3.2.2 (9983) - http://www.bohemiancoding.com/sketch -->
    <title>lodging-white-12</title>
    <desc>Created with Sketch.</desc>
    <defs></defs>
    <g id="Page-1" stroke="none" stroke-width="1" fill="none" fill-rule="evenodd" sketch:type="MSPage">
        <g id="Fill-19-+-Fill-20-+-Fill-21" sketch:type="MSLayerGroup" transform="translate(2.000000, 4.000000)" fill="#0A0B09" opacity="0.5">
            <path d="M0.134047059,0.485736391 L0.839929412,0.485736391 L0.839929412,4.03670058 L10.0164,4.03670058 L10.0164,6.16727909 L9.31051765,6.16727909 L9.31051765,4.74689342 L0.839929412,4.74689342 L0.839929412,6.16727909 L0.134047059,6.16727909 L0.134047059,0.485736391" id="Fill-19" sketch:type="MSShapeGroup"></path>
            <path d="M1.54581176,3.32650774 L10.0164,3.32650774 L10.0164,1.90612207 L6.48698824,1.19592923 L3.66345882,1.19592923 L3.66345882,2.6163149 L1.54581176,2.6163149 L1.54581176,3.32650774" id="Fill-20" sketch:type="MSShapeGroup"></path>
            <path d="M1.54581176,0.84083281 L2.95757647,0.84083281 L2.95757647,1.90612207 L1.54581176,1.90612207 L1.54581176,0.84083281 Z" id="Fill-21" sketch:type="MSShapeGroup"></path>
        </g>
        <g id="Fill-19-+-Fill-20-+-Fill-21" sketch:type="MSLayerGroup" transform="translate(1.000000, 3.000000)" fill="#0A0B09" opacity="0.75">
            <path d="M0.134047059,0.485736391 L0.839929412,0.485736391 L0.839929412,4.03670058 L10.0164,4.03670058 L10.0164,6.16727909 L9.31051765,6.16727909 L9.31051765,4.74689342 L0.839929412,4.74689342 L0.839929412,6.16727909 L0.134047059,6.16727909 L0.134047059,0.485736391" id="Fill-19" sketch:type="MSShapeGroup"></path>
            <path d="M1.54581176,3.32650774 L10.0164,3.32650774 L10.0164,1.90612207 L6.48698824,1.19592923 L3.66345882,1.19592923 L3.66345882,2.6163149 L1.54581176,2.6163149 L1.54581176,3.32650774" id="Fill-20" sketch:type="MSShapeGroup"></path>
            <path d="M1.54581176,0.84083281 L2.95757647,0.84083281 L2.95757647,1.90612207 L1.54581176,1.90612207 L1.54581176,0.84083281 Z" id="Fill-21" sketch:type="MSShapeGroup"></path>
        </g>
        <g id="Fill-19-+-Fill-20-+-Fill-21" sketch:type="MSLayerGroup" transform="translate(0.000000, 2.000000)" fill="#FFFFFF">
            <path d="M0.134047059,0.485736391 L0.839929412,0.485736391 L0.839929412,4.03670058 L10.0164,4.03670058 L10.0164,6.16727909 L9.31051765,6.16727909 L9.31051765,4.74689342 L0.839929412,4.74689342 L0.839929412,6.16727909 L0.134047059,6.16727909 L0.134047059,0.485736391" id="Fill-19" sketch:type="MSShapeGroup"></path>
            <path d="M1.54581176,3.32650774 L10.0164,3.32650774 L10.0164,1.90612207 L6.48698824,1.19592923 L3.66345882,1.19592923 L3.66345882,2.6163149 L1.54581176,2.6163149 L1.54581176,3.32650774" id="Fill-20" sketch:type="MSShapeGroup"></path>
            <path d="M1.54581176,0.84083281 L2.95757647,0.84083281 L2.95757647,1.90612207 L1.54581176,1.90612207 L1.54581176,0.84083281 Z" id="Fill-21" sketch:type="MSShapeGroup"></path>
        </g>
    </g>
</svg>