<?xml version="1.0" encoding="utf-8"?>
<!-- Generator: Adobe Illustrator 18.1.1, SVG Export Plug-In . SVG Version: 6.00 Build 0)  -->
<svg version="1.1" xmlns="http://www.w3.org/2000/svg" xmlns:xlink="http://www.w3.org/1999/xlink" x="0px" y="0px"
	 viewBox="0 0 12 12" enable-background="new 0 0 12 12" xml:space="preserve">
<g id="shadows">
	<g opacity="0.2">
		<polygon points="2.5,3.4 3.1,3.4 3.1,6.6 11.5,6.6 11.5,8.6 10.9,8.6 10.9,7.3 3.1,7.3 3.1,8.6 2.5,8.6 		"/>
		<polygon points="3.8,6 11.5,6 11.5,4.7 8.3,4.1 5.7,4.1 5.7,5.4 3.8,5.4 		"/>
		<rect x="3.8" y="3.8" width="1.3" height="1"/>
	</g>
</g>
<g id="icons">
	<g>
		<polygon fill="#FFFFFF" points="2,2.9 2.6,2.9 2.6,6.1 11,6.1 11,8.1 10.4,8.1 10.4,6.8 2.6,6.8 2.6,8.1 2,8.1 		"/>
		<polygon fill="#FFFFFF" points="3.3,5.5 11,5.5 11,4.2 7.8,3.6 5.2,3.6 5.2,4.9 3.3,4.9 		"/>
		<rect x="3.3" y="3.3" fill="#FFFFFF" width="1.3" height="1"/>
	</g>
</g>
<g id="guides">
</g>
</svg>
