<?xml version="1.0" encoding="utf-8"?>
<!-- Generator: Adobe Illustrator 18.1.1, SVG Export Plug-In . SVG Version: 6.00 Build 0)  -->
<svg version="1.1" xmlns="http://www.w3.org/2000/svg" xmlns:xlink="http://www.w3.org/1999/xlink" x="0px" y="0px"
	 viewBox="0 0 24 24" enable-background="new 0 0 24 24" xml:space="preserve">
<g id="shadows">
	<g opacity="0.2">
		<polygon points="5,7.5 6.5,7.5 6.5,13.7 22,13.7 22,17.5 20.5,17.5 20.5,15.2 6.5,15.2 6.5,17.5 5,17.5 		"/>
		<polygon points="7.3,12.9 22,12.9 22,10.6 21.2,9.8 15,9 10.4,9 10.4,11.3 7.3,11.3 		"/>
		<circle cx="8.5" cy="9.4" r="1.2"/>
	</g>
</g>
<g id="icons">
	<g>
		<polygon fill="#FFFFFF" points="4,6.5 5.5,6.5 5.5,12.7 21,12.7 21,16.5 19.5,16.5 19.5,14.2 5.5,14.2 5.5,16.5 4,16.5 		"/>
		<polygon fill="#FFFFFF" points="6.3,11.9 21,11.9 21,9.6 20.2,8.8 14,8 9.4,8 9.4,10.3 6.3,10.3 		"/>
		<circle fill="#FFFFFF" cx="7.5" cy="8.4" r="1.2"/>
	</g>
</g>
<g id="guides">
</g>
</svg>
