<?xml version="1.0" encoding="utf-8"?>
<!-- Generator: Adobe Illustrator 18.0.0, SVG Export Plug-In . SVG Version: 6.00 Build 0)  -->
<!DOCTYPE svg PUBLIC "-//W3C//DTD SVG 1.1//EN" "http://www.w3.org/Graphics/SVG/1.1/DTD/svg11.dtd" [
	<!ENTITY ns_flows "http://ns.adobe.com/Flows/1.0/">
	<!ENTITY ns_extend "http://ns.adobe.com/Extensibility/1.0/">
	<!ENTITY ns_ai "http://ns.adobe.com/AdobeIllustrator/10.0/">
	<!ENTITY ns_graphs "http://ns.adobe.com/Graphs/1.0/">
	<!ENTITY st0 "opacity:0.5;">
	<!ENTITY st1 "fill:#010101;">
	<!ENTITY st2 "opacity:0.75;">
	<!ENTITY st3 "fill:#FFFFFF;">
]>
<svg version="1.1" id="Layer_1" xmlns:x="&ns_extend;" xmlns:i="&ns_ai;" xmlns:graph="&ns_graphs;"
	 xmlns="http://www.w3.org/2000/svg" xmlns:xlink="http://www.w3.org/1999/xlink" xmlns:a="http://ns.adobe.com/AdobeSVGViewerExtensions/3.0/"
	 x="0px" y="0px" width="24px" height="15px" viewBox="0 0 24 15" style="enable-background:new 0 0 24 15;" xml:space="preserve">
<g style="&st0;">
	<polygon style="&st1;" points="2,2 4,2 4,10 24,10 24,15 22,15 22,12 4,12 4,15 2,15 	"/>
	<polygon style="&st1;" points="5,9 24,9 24,6 23,5 15,4 9,4 9,7 5,7 	"/>
	<circle style="&st1;" cx="6.5" cy="4.5" r="1.5"/>
</g>
<g style="&st2;">
	<polygon style="&st1;" points="1,1 3,1 3,9 23,9 23,14 21,14 21,11 3,11 3,14 1,14 	"/>
	<polygon style="&st1;" points="4,8 23,8 23,5 22,4 14,3 8,3 8,6 4,6 	"/>
	<circle style="&st1;" cx="5.5" cy="3.5" r="1.5"/>
</g>
<g>
	<polygon style="&st3;" points="0,0 2,0 2,8 22,8 22,13 20,13 20,10 2,10 2,13 0,13 	"/>
	<polygon style="&st3;" points="3,7 22,7 22,4 21,3 13,2 7,2 7,5 3,5 	"/>
	<circle style="&st3;" cx="4.5" cy="2.5" r="1.5"/>
</g>
</svg>
