<?xml version="1.0" encoding="UTF-8" standalone="no"?>
<!-- Created with Inkscape (http://www.inkscape.org/) -->

<svg
   xmlns:dc="http://purl.org/dc/elements/1.1/"
   xmlns:cc="http://creativecommons.org/ns#"
   xmlns:rdf="http://www.w3.org/1999/02/22-rdf-syntax-ns#"
   xmlns:svg="http://www.w3.org/2000/svg"
   xmlns="http://www.w3.org/2000/svg"
   xmlns:inkscape="http://www.inkscape.org/namespaces/inkscape"
   version="1.1"
   width="24"
   height="24"
   id="svg4460">
  <defs
     id="defs4462" />
  <metadata
     id="metadata4465">
    <rdf:RDF>
      <cc:Work
         rdf:about="">
        <dc:format>image/svg+xml</dc:format>
        <dc:type
           rdf:resource="http://purl.org/dc/dcmitype/StillImage" />
        <dc:title />
      </cc:Work>
    </rdf:RDF>
  </metadata>
  <g
     transform="translate(0,-1028.3622)"
     id="layer1">
    <g
       transform="translate(-476,-213.99998)"
       id="logging-24"
       style="display:inline">
      <g
         transform="translate(2,0)"
         id="g7355">
        <path
           d="m 768,97 -7.5,7.5 1.25,1.25 7.25,-7.25 0.5,0.5 -7.25,7.25 1.25,1.25 7.5,-7.5 0,-2 -1,-1 z m -11.5,5.5 -2.5,2.5 0.5,0.5 1,0 1,-1 1,1 -3.5,3.5 0,2 3,3 2,0 4.5,-4.5 z"
           inkscape:connector-curvature="0"
           transform="translate(-276,1148.3622)"
           id="path7487"
           style="opacity:0.3;color:#000000;fill:#ffffff;fill-opacity:1;fill-rule:nonzero;stroke:#ffffff;stroke-width:2;stroke-linecap:round;stroke-linejoin:round;stroke-miterlimit:4;stroke-opacity:1;stroke-dasharray:none;stroke-dashoffset:0;marker:none;visibility:visible;display:inline;overflow:visible;enable-background:accumulate" />
        <path
           d="m 768,97 -7.5,7.5 1.25,1.25 7.25,-7.25 0.5,0.5 -7.25,7.25 1.25,1.25 7.5,-7.5 0,-2 -1,-1 z m -11.5,5.5 -2.5,2.5 0.5,0.5 1,0 1,-1 1,1 -3.5,3.5 0,2 3,3 2,0 4.5,-4.5 z"
           inkscape:connector-curvature="0"
           transform="translate(-276,1148.3622)"
           id="path6686"
           style="color:#000000;fill:#444444;fill-opacity:1;fill-rule:nonzero;stroke:none;stroke-width:0.99999982;marker:none;visibility:visible;display:inline;overflow:visible;enable-background:accumulate" />
      </g>
    </g>
  </g>
  <rect
     width="24"
     height="24"
     x="0"
     y="0"
     id="canvas"
     style="fill:none;stroke:none;visibility:hidden" />
</svg>
