<?xml version="1.0" encoding="UTF-8" standalone="no"?>
<!-- Created with Inkscape (http://www.inkscape.org/) -->

<svg
   xmlns:dc="http://purl.org/dc/elements/1.1/"
   xmlns:cc="http://creativecommons.org/ns#"
   xmlns:rdf="http://www.w3.org/1999/02/22-rdf-syntax-ns#"
   xmlns:svg="http://www.w3.org/2000/svg"
   xmlns="http://www.w3.org/2000/svg"
   xmlns:inkscape="http://www.inkscape.org/namespaces/inkscape"
   version="1.1"
   width="18"
   height="18"
   id="svg4619">
  <defs
     id="defs4621" />
  <metadata
     id="metadata4624">
    <rdf:RDF>
      <cc:Work
         rdf:about="">
        <dc:format>image/svg+xml</dc:format>
        <dc:type
           rdf:resource="http://purl.org/dc/dcmitype/StillImage" />
        <dc:title />
      </cc:Work>
    </rdf:RDF>
  </metadata>
  <g
     transform="translate(0,-1034.3622)"
     id="layer1">
    <g
       transform="translate(-108,-232)"
       id="london-underground-18"
       style="display:inline">
      <path
         d="m 237.5,219 c -2.97562,0 -5.43327,2.15859 -5.90625,5 L 230.5,224 c -0.27701,0 -0.5,0.22299 -0.5,0.5 l 0,1 c 0,0.27701 0.22299,0.5 0.5,0.5 l 1.09375,0 c 0.47298,2.84141 2.93063,5 5.90625,5 2.97562,0 5.43327,-2.15859 5.90625,-5 l 1.09375,0 c 0.27701,0 0.5,-0.22299 0.5,-0.5 l 0,-1 c 0,-0.27701 -0.22299,-0.5 -0.5,-0.5 l -1.09375,0 c -0.47298,-2.84141 -2.93063,-5 -5.90625,-5 z m 0,2 c 1.86319,0 3.39908,1.27569 3.84375,3 l -7.6875,0 c 0.44467,-1.72431 1.98056,-3 3.84375,-3 z m -3.84375,5 7.6875,0 c -0.44467,1.72431 -1.98056,3 -3.84375,3 -1.86319,0 -3.39908,-1.27569 -3.84375,-3 z"
         inkscape:connector-curvature="0"
         transform="translate(-120,1050.3622)"
         id="path12749"
         style="opacity:0.3;color:#000000;fill:#ffffff;fill-opacity:1;fill-rule:nonzero;stroke:#ffffff;stroke-width:2;stroke-linecap:butt;stroke-linejoin:round;stroke-miterlimit:4;stroke-opacity:1;stroke-dasharray:none;stroke-dashoffset:0;marker:none;visibility:visible;display:inline;overflow:visible;enable-background:accumulate" />
      <path
         d="m 237.5,219 c -2.97562,0 -5.43327,2.15859 -5.90625,5 L 230.5,224 c -0.27701,0 -0.5,0.22299 -0.5,0.5 l 0,1 c 0,0.27701 0.22299,0.5 0.5,0.5 l 1.09375,0 c 0.47298,2.84141 2.93063,5 5.90625,5 2.97562,0 5.43327,-2.15859 5.90625,-5 l 1.09375,0 c 0.27701,0 0.5,-0.22299 0.5,-0.5 l 0,-1 c 0,-0.27701 -0.22299,-0.5 -0.5,-0.5 l -1.09375,0 c -0.47298,-2.84141 -2.93063,-5 -5.90625,-5 z m 0,2 c 1.86319,0 3.39908,1.27569 3.84375,3 l -7.6875,0 c 0.44467,-1.72431 1.98056,-3 3.84375,-3 z m -3.84375,5 7.6875,0 c -0.44467,1.72431 -1.98056,3 -3.84375,3 -1.86319,0 -3.39908,-1.27569 -3.84375,-3 z"
         inkscape:connector-curvature="0"
         transform="translate(-120,1050.3622)"
         id="path12671"
         style="color:#000000;fill:#444444;fill-opacity:1;fill-rule:nonzero;stroke:none;stroke-width:2;marker:none;visibility:visible;display:inline;overflow:visible;enable-background:accumulate" />
    </g>
  </g>
  <rect
     width="18"
     height="18"
     x="0"
     y="0"
     id="canvas"
     style="fill:none;stroke:none;visibility:hidden" />
</svg>
