<?xml version="1.0" encoding="UTF-8" standalone="no"?>
<!-- Created with Inkscape (http://www.inkscape.org/) -->

<svg
   xmlns:dc="http://purl.org/dc/elements/1.1/"
   xmlns:cc="http://creativecommons.org/ns#"
   xmlns:rdf="http://www.w3.org/1999/02/22-rdf-syntax-ns#"
   xmlns:svg="http://www.w3.org/2000/svg"
   xmlns="http://www.w3.org/2000/svg"
   xmlns:inkscape="http://www.inkscape.org/namespaces/inkscape"
   version="1.1"
   width="24"
   height="24"
   id="svg4460">
  <defs
     id="defs4462" />
  <metadata
     id="metadata4465">
    <rdf:RDF>
      <cc:Work
         rdf:about="">
        <dc:format>image/svg+xml</dc:format>
        <dc:type
           rdf:resource="http://purl.org/dc/dcmitype/StillImage" />
        <dc:title />
      </cc:Work>
    </rdf:RDF>
  </metadata>
  <g
     transform="translate(0,-1028.3622)"
     id="layer1">
    <g
       transform="translate(-84,-238)"
       id="london-underground-24"
       style="display:inline">
      <g
         transform="translate(0,-2.6171874e-6)"
         id="g8833"
         style="display:inline">
        <path
           d="m 96.5,1270.3622 c -3.62438,0 -6.64441,2.5824 -7.34375,6 l -1.15625,0 c -0.5,0 -1,0.5 -1,1 l 0,1 c 0,0.5 0.5,1 1,1 l 1.15625,0 c 0.69934,3.4177 3.71937,6 7.34375,6 3.62438,0 6.64441,-2.5823 7.34375,-6 l 1.15625,0 c 0.5,0 1,-0.5 1,-1 l 0,-1 c 0,-0.5 -0.5,-1 -1,-1 l -1.15625,0 c -0.69934,-3.4176 -3.71937,-6 -7.34375,-6 z m 0,2.5 c 2.05647,0 3.86839,1.6577 4.5,3.5 l -9,0 c 0.63161,-1.8423 2.44353,-3.5 4.5,-3.5 z m -4.5,6.5 9,0 c -0.63161,1.8423 -2.44353,3.5 -4.5,3.5 -2.05647,0 -3.86839,-1.6577 -4.5,-3.5 z"
           inkscape:connector-curvature="0"
           id="path7879"
           style="opacity:0.3;color:#000000;fill:#ffffff;fill-opacity:1;fill-rule:nonzero;stroke:#ffffff;stroke-width:2;stroke-linecap:butt;stroke-linejoin:round;stroke-miterlimit:4;stroke-opacity:1;stroke-dasharray:none;stroke-dashoffset:0;marker:none;visibility:visible;display:inline;overflow:visible;enable-background:accumulate" />
        <path
           d="m 96.5,1270.3622 c -3.62438,0 -6.64441,2.5824 -7.34375,6 l -1.15625,0 c -0.5,0 -1,0.5 -1,1 l 0,1 c 0,0.5 0.5,1 1,1 l 1.15625,0 c 0.69934,3.4177 3.71937,6 7.34375,6 3.62438,0 6.64441,-2.5823 7.34375,-6 l 1.15625,0 c 0.5,0 1,-0.5 1,-1 l 0,-1 c 0,-0.5 -0.5,-1 -1,-1 l -1.15625,0 c -0.69934,-3.4176 -3.71937,-6 -7.34375,-6 z m 0,2.5 c 2.05647,0 3.86839,1.6577 4.5,3.5 l -9,0 c 0.63161,-1.8423 2.44353,-3.5 4.5,-3.5 z m -4.5,6.5 9,0 c -0.63161,1.8423 -2.44353,3.5 -4.5,3.5 -2.05647,0 -3.86839,-1.6577 -4.5,-3.5 z"
           inkscape:connector-curvature="0"
           id="path7698-1"
           style="color:#000000;fill:#444444;fill-opacity:1;fill-rule:nonzero;stroke:none;stroke-width:2;marker:none;visibility:visible;display:inline;overflow:visible;enable-background:accumulate" />
      </g>
    </g>
  </g>
  <rect
     width="24"
     height="24"
     x="0"
     y="0"
     id="canvas"
     style="fill:none;stroke:none;visibility:hidden" />
</svg>
