<?xml version="1.0" encoding="UTF-8" standalone="no"?>
<!-- Created with Inkscape (http://www.inkscape.org/) -->

<svg
   xmlns:dc="http://purl.org/dc/elements/1.1/"
   xmlns:cc="http://creativecommons.org/ns#"
   xmlns:rdf="http://www.w3.org/1999/02/22-rdf-syntax-ns#"
   xmlns:svg="http://www.w3.org/2000/svg"
   xmlns="http://www.w3.org/2000/svg"
   xmlns:inkscape="http://www.inkscape.org/namespaces/inkscape"
   version="1.1"
   width="12"
   height="12"
   id="svg4764">
  <defs
     id="defs4766" />
  <metadata
     id="metadata4769">
    <rdf:RDF>
      <cc:Work
         rdf:about="">
        <dc:format>image/svg+xml</dc:format>
        <dc:type
           rdf:resource="http://purl.org/dc/dcmitype/StillImage" />
        <dc:title />
      </cc:Work>
    </rdf:RDF>
  </metadata>
  <g
     transform="translate(0,-1040.3622)"
     id="layer1">
    <g
       transform="translate(-126,-228)"
       id="london-underground-12"
       style="display:inline">
      <path
         d="m 132.5,1270.3622 c -1.76528,0 -3.22866,1.301 -3.46875,3 l -1.03125,0 0,1 1.03125,0 c 0.24009,1.699 1.70347,3 3.46875,3 1.76528,0 3.22866,-1.301 3.46875,-3 l 1.03125,0 0,-1 -1.03125,0 c -0.24009,-1.699 -1.70347,-3 -3.46875,-3 z m 0,1.5 c 0.93197,0 1.71554,0.6373 1.9375,1.5 l -3.875,0 c 0.22196,-0.8627 1.00553,-1.5 1.9375,-1.5 z m -1.9375,2.5 3.875,0 c -0.22196,0.8627 -1.00553,1.5 -1.9375,1.5 -0.93197,0 -1.71554,-0.6373 -1.9375,-1.5 z"
         inkscape:connector-curvature="0"
         id="path8752"
         style="opacity:0.3;color:#000000;fill:#ffffff;fill-opacity:1;fill-rule:nonzero;stroke:#ffffff;stroke-width:2;stroke-linecap:butt;stroke-linejoin:round;stroke-miterlimit:4;stroke-opacity:1;stroke-dasharray:none;stroke-dashoffset:0;marker:none;visibility:visible;display:inline;overflow:visible;enable-background:accumulate" />
      <path
         d="m 132.5,1270.3622 c -1.76528,0 -3.22866,1.301 -3.46875,3 l -1.03125,0 0,1 1.03125,0 c 0.24009,1.699 1.70347,3 3.46875,3 1.76528,0 3.22866,-1.301 3.46875,-3 l 1.03125,0 0,-1 -1.03125,0 c -0.24009,-1.699 -1.70347,-3 -3.46875,-3 z m 0,1.5 c 0.93197,0 1.71554,0.6373 1.9375,1.5 l -3.875,0 c 0.22196,-0.8627 1.00553,-1.5 1.9375,-1.5 z m -1.9375,2.5 3.875,0 c -0.22196,0.8627 -1.00553,1.5 -1.9375,1.5 -0.93197,0 -1.71554,-0.6373 -1.9375,-1.5 z"
         inkscape:connector-curvature="0"
         id="path8744"
         style="color:#000000;fill:#444444;fill-opacity:1;fill-rule:nonzero;stroke:none;stroke-width:2;marker:none;visibility:visible;display:inline;overflow:visible;enable-background:accumulate" />
    </g>
  </g>
  <rect
     width="12"
     height="12"
     x="0"
     y="0"
     id="canvas"
     style="fill:none;stroke:none;visibility:hidden" />
</svg>
