<?xml version="1.0" encoding="UTF-8" standalone="no"?>
<svg width="18px" height="18px" viewBox="0 0 18 18" version="1.1" xmlns="http://www.w3.org/2000/svg" xmlns:xlink="http://www.w3.org/1999/xlink" xmlns:sketch="http://www.bohemiancoding.com/sketch/ns">
    <!-- Generator: Sketch 3.2.2 (9983) - http://www.bohemiancoding.com/sketch -->
    <title>marina-white-18</title>
    <desc>Created with Sketch.</desc>
    <defs></defs>
    <g id="Page-1" stroke="none" stroke-width="1" fill="none" fill-rule="evenodd" sketch:type="MSPage">
        <path d="M9.40740741,3.45992937 L10.8888889,3.45992937 L10.8888889,4.91985873 L9.40740741,4.91985873 L9.40740741,3.45992937 Z M17.5925926,8.64997827 L14.5037037,10.6792801 C14.2148148,10.8690709 14.237037,11.2924504 14.5481481,11.445743 L15.2518519,11.7961261 L14.5925926,13.16116 C14.0296296,14.7159848 12.5703704,16.3073078 10.8888889,16.5992937 L10.8888889,6.3797881 C11.6888889,6.04400435 12.3703704,5.13154849 12.3703704,4.21909264 C12.3703704,2.99275197 11.3851852,2 10.1481481,2 C8.91111111,2 7.92592593,2.99275197 7.92592593,4.21909264 C7.92592593,5.13154849 8.60740741,6.04400435 9.40740741,6.3797881 L9.40740741,16.5992937 C7.72592593,16.3073078 6.26666667,14.7159848 5.7037037,13.16116 L5.04444444,11.7961261 L5.74814815,11.445743 C6.05925926,11.2924504 6.08148148,10.8690709 5.79259259,10.6792801 L2.7037037,8.64997827 C2.4,8.4528878 2,8.66457756 2,9.01496061 L2,12.5771883 C2,12.9056724 2.35555556,13.1173621 2.65185185,12.9713692 L3.64444444,12.4895925 C3.81481481,12.8472752 4.00740741,13.2414561 4.22222222,13.6867346 C5.06666667,16.2270117 7.28888889,18.059223 10.1481481,18.059223 C13.0074074,18.059223 15.2296296,16.2270117 16.0740741,13.6867346 C16.2888889,13.2414561 16.4814815,12.8472752 16.6518519,12.4895925 L17.6444444,12.9713692 C17.9407407,13.1173621 18.2962963,12.9056724 18.2962963,12.5771883 L18.2962963,9.01496061 C18.2962963,8.66457756 17.8962963,8.4528878 17.5925926,8.64997827 L17.5925926,8.64997827 Z" id="Fill-261" opacity="0.5" fill="#0A0B09" sketch:type="MSShapeGroup"></path>
        <path d="M8.40740741,2.45992937 L9.88888889,2.45992937 L9.88888889,3.91985873 L8.40740741,3.91985873 L8.40740741,2.45992937 Z M16.5925926,7.64997827 L13.5037037,9.67928009 C13.2148148,9.8690709 13.237037,10.2924504 13.5481481,10.445743 L14.2518519,10.7961261 L13.5925926,12.16116 C13.0296296,13.7159848 11.5703704,15.3073078 9.88888889,15.5992937 L9.88888889,5.3797881 C10.6888889,5.04400435 11.3703704,4.13154849 11.3703704,3.21909264 C11.3703704,1.99275197 10.3851852,1 9.14814815,1 C7.91111111,1 6.92592593,1.99275197 6.92592593,3.21909264 C6.92592593,4.13154849 7.60740741,5.04400435 8.40740741,5.3797881 L8.40740741,15.5992937 C6.72592593,15.3073078 5.26666667,13.7159848 4.7037037,12.16116 L4.04444444,10.7961261 L4.74814815,10.445743 C5.05925926,10.2924504 5.08148148,9.8690709 4.79259259,9.67928009 L1.7037037,7.64997827 C1.4,7.4528878 1,7.66457756 1,8.01496061 L1,11.5771883 C1,11.9056724 1.35555556,12.1173621 1.65185185,11.9713692 L2.64444444,11.4895925 C2.81481481,11.8472752 3.00740741,12.2414561 3.22222222,12.6867346 C4.06666667,15.2270117 6.28888889,17.059223 9.14814815,17.059223 C12.0074074,17.059223 14.2296296,15.2270117 15.0740741,12.6867346 C15.2888889,12.2414561 15.4814815,11.8472752 15.6518519,11.4895925 L16.6444444,11.9713692 C16.9407407,12.1173621 17.2962963,11.9056724 17.2962963,11.5771883 L17.2962963,8.01496061 C17.2962963,7.66457756 16.8962963,7.4528878 16.5925926,7.64997827 L16.5925926,7.64997827 Z" id="Fill-261" opacity="0.75" fill="#0A0B09" sketch:type="MSShapeGroup"></path>
        <path d="M7.40740741,1.45992937 L8.88888889,1.45992937 L8.88888889,2.91985873 L7.40740741,2.91985873 L7.40740741,1.45992937 Z M15.5925926,6.64997827 L12.5037037,8.67928009 C12.2148148,8.8690709 12.237037,9.29245042 12.5481481,9.445743 L13.2518519,9.79612605 L12.5925926,11.16116 C12.0296296,12.7159848 10.5703704,14.3073078 8.88888889,14.5992937 L8.88888889,4.3797881 C9.68888889,4.04400435 10.3703704,3.13154849 10.3703704,2.21909264 C10.3703704,0.99275197 9.38518519,0 8.14814815,0 C6.91111111,0 5.92592593,0.99275197 5.92592593,2.21909264 C5.92592593,3.13154849 6.60740741,4.04400435 7.40740741,4.3797881 L7.40740741,14.5992937 C5.72592593,14.3073078 4.26666667,12.7159848 3.7037037,11.16116 L3.04444444,9.79612605 L3.74814815,9.445743 C4.05925926,9.29245042 4.08148148,8.8690709 3.79259259,8.67928009 L0.703703704,6.64997827 C0.4,6.4528878 0,6.66457756 0,7.01496061 L0,10.5771883 C0,10.9056724 0.355555556,11.1173621 0.651851852,10.9713692 L1.64444444,10.4895925 C1.81481481,10.8472752 2.00740741,11.2414561 2.22222222,11.6867346 C3.06666667,14.2270117 5.28888889,16.059223 8.14814815,16.059223 C11.0074074,16.059223 13.2296296,14.2270117 14.0740741,11.6867346 C14.2888889,11.2414561 14.4814815,10.8472752 14.6518519,10.4895925 L15.6444444,10.9713692 C15.9407407,11.1173621 16.2962963,10.9056724 16.2962963,10.5771883 L16.2962963,7.01496061 C16.2962963,6.66457756 15.8962963,6.4528878 15.5925926,6.64997827 L15.5925926,6.64997827 Z" id="Fill-261" fill="#FFFFFF" sketch:type="MSShapeGroup"></path>
    </g>
</svg>