<?xml version="1.0" encoding="utf-8"?>
<!-- Generator: Adobe Illustrator 18.1.1, SVG Export Plug-In . SVG Version: 6.00 Build 0)  -->
<svg version="1.1" xmlns="http://www.w3.org/2000/svg" xmlns:xlink="http://www.w3.org/1999/xlink" x="0px" y="0px"
	 viewBox="0 0 24 24" enable-background="new 0 0 24 24" xml:space="preserve">
<g id="shadows">
	<g opacity="0.2">
		<path d="M21.3,11L18,13.2c-0.3,0.2-0.3,0.7,0.1,0.8l0.7,0.4l-0.7,1.4c-0.6,1.6-2.1,3.3-3.9,3.6V8.6c0.8-0.4,1.5-1.3,1.5-2.3
			c0-1.3-1-2.3-2.3-2.3c-1.3,0-2.3,1-2.3,2.3c0,1,0.7,1.9,1.5,2.3v10.8c-1.8-0.3-3.3-2-3.9-3.6l-0.7-1.4L8.9,14
			c0.3-0.2,0.4-0.6,0.1-0.8L5.7,11c-0.3-0.2-0.7,0-0.7,0.4v3.8c0,0.4,0.4,0.6,0.7,0.4l1-0.5c0.2,0.4,0.4,0.8,0.6,1.3
			c0.9,2.7,3.2,4.6,6.2,4.6s5.3-1.9,6.2-4.6c0.2-0.5,0.4-0.9,0.6-1.3l1,0.5c0.3,0.2,0.7-0.1,0.7-0.4v-3.8C22,11.1,21.6,10.8,21.3,11
			z M12.7,7.1V5.5h1.5v1.5H12.7z"/>
	</g>
</g>
<g id="icons">
	<g>
		<path d="M20.3,10L17,12.2c-0.3,0.2-0.3,0.7,0.1,0.8l0.7,0.4l-0.7,1.4c-0.6,1.6-2.1,3.3-3.9,3.6V7.6c0.8-0.4,1.5-1.3,1.5-2.3
			c0-1.3-1-2.3-2.3-2.3c-1.3,0-2.3,1-2.3,2.3c0,1,0.7,1.9,1.5,2.3v10.8c-1.8-0.3-3.3-2-3.9-3.6l-0.7-1.4L7.9,13
			c0.3-0.2,0.4-0.6,0.1-0.8L4.7,10C4.4,9.8,4,10.1,4,10.4v3.8c0,0.4,0.4,0.6,0.7,0.4l1-0.5c0.2,0.4,0.4,0.8,0.6,1.3
			c0.9,2.7,3.2,4.6,6.2,4.6s5.3-1.9,6.2-4.6c0.2-0.5,0.4-0.9,0.6-1.3l1,0.5c0.3,0.2,0.7-0.1,0.7-0.4v-3.8C21,10.1,20.6,9.8,20.3,10z
			 M11.7,6.1V4.5h1.5v1.5H11.7z"/>
	</g>
</g>
<g id="guides">
</g>
</svg>
