<?xml version="1.0" encoding="utf-8"?>
<!-- Generator: Adobe Illustrator 18.1.1, SVG Export Plug-In . SVG Version: 6.00 Build 0)  -->
<svg version="1.1" xmlns="http://www.w3.org/2000/svg" xmlns:xlink="http://www.w3.org/1999/xlink" x="0px" y="0px"
	 viewBox="0 0 12 12" enable-background="new 0 0 12 12" xml:space="preserve">
<g id="shadows">
	<g opacity="0.2">
		<path d="M9.9,7.9L9.2,5.4L7.3,7.3l1.3,0.6C8.3,8.6,7.4,9.2,6.6,9.4V4.1V3.4h0.6V2.1H6.6V1.5H5.4v0.6H4.7v1.3h0.6v0.6v5.3
			C4.7,9.2,3.7,8.6,3.4,7.9l1.3-0.6L2.8,5.4L2.1,7.9h1.1L2.9,8c0.4,1.2,1.3,2.1,2.5,2.4v0.1h1.3v-0.1C7.8,10.2,8.8,9.3,9.1,8
			L8.8,7.9H9.9z M6.3,3.4H5.7c-0.2,0-0.3-0.2-0.3-0.3V2.5c0-0.2,0.2-0.3,0.3-0.3h0.6c0.2,0,0.3,0.2,0.3,0.3v0.6
			C6.6,3.3,6.5,3.4,6.3,3.4z"/>
	</g>
</g>
<g id="icons">
	<g>
		<path d="M9.4,7.4L8.7,4.9L6.8,6.8l1.3,0.6C7.8,8.1,6.9,8.7,6.1,8.9V3.6V2.9h0.6V1.6H6.1V1H4.9v0.6H4.2v1.3h0.6v0.6v5.3
			C4.2,8.7,3.2,8.1,2.9,7.4l1.3-0.6L2.3,4.9L1.6,7.4h1.1L2.4,7.5c0.4,1.2,1.3,2.1,2.5,2.4V10h1.3V9.9c1.2-0.3,2.1-1.2,2.5-2.4
			L8.3,7.4H9.4z M5.8,2.9H5.2C5,2.9,4.9,2.8,4.9,2.6V2c0-0.2,0.2-0.3,0.3-0.3h0.6C6,1.6,6.1,1.8,6.1,2v0.6C6.1,2.8,6,2.9,5.8,2.9z"
			/>
	</g>
</g>
<g id="guides">
</g>
</svg>
