<?xml version="1.0" encoding="UTF-8" standalone="no"?>
<svg width="12px" height="12px" viewBox="0 0 12 12" version="1.1" xmlns="http://www.w3.org/2000/svg" xmlns:xlink="http://www.w3.org/1999/xlink" xmlns:sketch="http://www.bohemiancoding.com/sketch/ns">
    <!-- Generator: Sketch 3.2.2 (9983) - http://www.bohemiancoding.com/sketch -->
    <title>marina-white-12</title>
    <desc>Created with Sketch.</desc>
    <defs></defs>
    <g id="Page-1" stroke="none" stroke-width="1" fill="none" fill-rule="evenodd" sketch:type="MSPage">
        <path d="M6.56705882,4.13057851 L5.90352941,4.13057851 C5.69882353,4.13057851 5.52941176,3.96723416 5.52941176,3.75417631 L5.52941176,3.08659504 C5.52941176,2.88063912 5.69882353,2.71019284 5.90352941,2.71019284 L6.56705882,2.71019284 C6.77176471,2.71019284 6.94117647,2.88063912 6.94117647,3.08659504 L6.94117647,3.75417631 C6.94117647,3.96723416 6.77176471,4.13057851 6.56705882,4.13057851 L6.56705882,4.13057851 Z M10.4705882,9.10192837 L9.76470588,6.26115702 L7.64705882,8.39173554 L9.05882353,9.10192837 C8.74117647,9.89024242 7.71764706,10.4868044 6.94117647,10.721168 L6.94117647,4.13057851 L7.64705882,4.13057851 L7.64705882,2.71019284 L6.94117647,2.71019284 L6.94117647,2 L5.52941176,2 L5.52941176,2.71019284 L4.82352941,2.71019284 L4.82352941,4.13057851 L5.52941176,4.13057851 L5.52941176,10.721168 C4.75294118,10.4868044 3.72941176,9.89024242 3.41176471,9.10192837 L4.82352941,8.39173554 L2.70588235,6.26115702 L2,9.10192837 L3.17176471,9.10192837 L2.77647059,9.23686501 C3.18588235,10.5720275 4.23764706,11.5876033 5.52941176,11.8645785 L5.52941176,11.9426997 L6.94117647,11.9426997 L6.94117647,11.8645785 C8.23294118,11.5876033 9.28470588,10.5720275 9.68705882,9.23686501 L9.30588235,9.10192837 L10.4705882,9.10192837 L10.4705882,9.10192837 Z" id="Fill-262" opacity="0.5" fill="#0A0B09" sketch:type="MSShapeGroup"></path>
        <path d="M5.56705882,3.13057851 L4.90352941,3.13057851 C4.69882353,3.13057851 4.52941176,2.96723416 4.52941176,2.75417631 L4.52941176,2.08659504 C4.52941176,1.88063912 4.69882353,1.71019284 4.90352941,1.71019284 L5.56705882,1.71019284 C5.77176471,1.71019284 5.94117647,1.88063912 5.94117647,2.08659504 L5.94117647,2.75417631 C5.94117647,2.96723416 5.77176471,3.13057851 5.56705882,3.13057851 L5.56705882,3.13057851 Z M9.47058824,8.10192837 L8.76470588,5.26115702 L6.64705882,7.39173554 L8.05882353,8.10192837 C7.74117647,8.89024242 6.71764706,9.48680441 5.94117647,9.72116804 L5.94117647,3.13057851 L6.64705882,3.13057851 L6.64705882,1.71019284 L5.94117647,1.71019284 L5.94117647,1 L4.52941176,1 L4.52941176,1.71019284 L3.82352941,1.71019284 L3.82352941,3.13057851 L4.52941176,3.13057851 L4.52941176,9.72116804 C3.75294118,9.48680441 2.72941176,8.89024242 2.41176471,8.10192837 L3.82352941,7.39173554 L1.70588235,5.26115702 L1,8.10192837 L2.17176471,8.10192837 L1.77647059,8.23686501 C2.18588235,9.57202755 3.23764706,10.5876033 4.52941176,10.8645785 L4.52941176,10.9426997 L5.94117647,10.9426997 L5.94117647,10.8645785 C7.23294118,10.5876033 8.28470588,9.57202755 8.68705882,8.23686501 L8.30588235,8.10192837 L9.47058824,8.10192837 L9.47058824,8.10192837 Z" id="Fill-262" opacity="0.75" fill="#0A0B09" sketch:type="MSShapeGroup"></path>
        <path d="M4.56705882,2.13057851 L3.90352941,2.13057851 C3.69882353,2.13057851 3.52941176,1.96723416 3.52941176,1.75417631 L3.52941176,1.08659504 C3.52941176,0.880639118 3.69882353,0.710192837 3.90352941,0.710192837 L4.56705882,0.710192837 C4.77176471,0.710192837 4.94117647,0.880639118 4.94117647,1.08659504 L4.94117647,1.75417631 C4.94117647,1.96723416 4.77176471,2.13057851 4.56705882,2.13057851 L4.56705882,2.13057851 Z M8.47058824,7.10192837 L7.76470588,4.26115702 L5.64705882,6.39173554 L7.05882353,7.10192837 C6.74117647,7.89024242 5.71764706,8.48680441 4.94117647,8.72116804 L4.94117647,2.13057851 L5.64705882,2.13057851 L5.64705882,0.710192837 L4.94117647,0.710192837 L4.94117647,0 L3.52941176,0 L3.52941176,0.710192837 L2.82352941,0.710192837 L2.82352941,2.13057851 L3.52941176,2.13057851 L3.52941176,8.72116804 C2.75294118,8.48680441 1.72941176,7.89024242 1.41176471,7.10192837 L2.82352941,6.39173554 L0.705882353,4.26115702 L0,7.10192837 L1.17176471,7.10192837 L0.776470588,7.23686501 C1.18588235,8.57202755 2.23764706,9.58760331 3.52941176,9.86457851 L3.52941176,9.94269972 L4.94117647,9.94269972 L4.94117647,9.86457851 C6.23294118,9.58760331 7.28470588,8.57202755 7.68705882,7.23686501 L7.30588235,7.10192837 L8.47058824,7.10192837 L8.47058824,7.10192837 Z" id="Fill-262" fill="#FFFFFF" sketch:type="MSShapeGroup"></path>
    </g>
</svg>