<?xml version="1.0" encoding="utf-8"?>
<!-- Generator: Adobe Illustrator 18.1.1, SVG Export Plug-In . SVG Version: 6.00 Build 0)  -->
<svg version="1.1" xmlns="http://www.w3.org/2000/svg" xmlns:xlink="http://www.w3.org/1999/xlink" x="0px" y="0px"
	 viewBox="0 0 12 12" enable-background="new 0 0 12 12" xml:space="preserve">
<g id="shadows">
	<g opacity="0.2">
		<path d="M10.9,7.9l-0.6-2.6L8.3,7.3l1.3,0.6C9.3,8.6,8.4,9.2,7.6,9.4V4.1V3.4h0.6V2.1H7.6V1.5H6.4v0.6H5.7v1.3h0.6v0.6v5.3
			C5.7,9.2,4.7,8.6,4.4,7.9l1.3-0.6L3.8,5.4L3.1,7.9h1.1L3.9,8c0.4,1.2,1.3,2.1,2.5,2.4v0.1h1.3v-0.1c1.2-0.3,2.1-1.2,2.5-2.4
			L9.8,7.9H10.9z M7.3,3.4H6.7c-0.2,0-0.3-0.2-0.3-0.3V2.5c0-0.2,0.2-0.3,0.3-0.3h0.6c0.2,0,0.3,0.2,0.3,0.3v0.6
			C7.6,3.3,7.5,3.4,7.3,3.4z"/>
	</g>
</g>
<g id="icons">
	<g>
		<path d="M10.4,7.4L9.7,4.9L7.8,6.8l1.3,0.6C8.8,8.1,7.9,8.7,7.1,8.9V3.6V2.9h0.6V1.6H7.1V1H5.9v0.6H5.2v1.3h0.6v0.6v5.3
			C5.2,8.7,4.2,8.1,3.9,7.4l1.3-0.6L3.3,4.9L2.6,7.4h1.1L3.4,7.5c0.4,1.2,1.3,2.1,2.5,2.4V10h1.3V9.9c1.2-0.3,2.1-1.2,2.5-2.4
			L9.3,7.4H10.4z M6.8,2.9H6.2C6,2.9,5.9,2.8,5.9,2.6V2c0-0.2,0.2-0.3,0.3-0.3h0.6C7,1.6,7.1,1.8,7.1,2v0.6C7.1,2.8,7,2.9,6.8,2.9z"
			/>
	</g>
</g>
<g id="guides">
</g>
</svg>
