<?xml version="1.0" encoding="UTF-8" standalone="no"?>
<!-- Created with Inkscape (http://www.inkscape.org/) -->

<svg
   xmlns:dc="http://purl.org/dc/elements/1.1/"
   xmlns:cc="http://creativecommons.org/ns#"
   xmlns:rdf="http://www.w3.org/1999/02/22-rdf-syntax-ns#"
   xmlns:svg="http://www.w3.org/2000/svg"
   xmlns="http://www.w3.org/2000/svg"
   xmlns:sodipodi="http://sodipodi.sourceforge.net/DTD/sodipodi-0.dtd"
   xmlns:inkscape="http://www.inkscape.org/namespaces/inkscape"
   width="18"
   height="18"
   id="svg27640"
   version="1.1"
   inkscape:version="0.48.2 r9819"
   sodipodi:docname="motor-bike-trail-white-18.svg">
  <defs
     id="defs27642" />
  <sodipodi:namedview
     id="base"
     pagecolor="#ffffff"
     bordercolor="#666666"
     borderopacity="1.0"
     inkscape:pageopacity="0.0"
     inkscape:pageshadow="2"
     inkscape:zoom="4.8734"
     inkscape:cx="16.343826"
     inkscape:cy="1.8159806"
     inkscape:document-units="px"
     inkscape:current-layer="layer1"
     showgrid="false"
     inkscape:window-width="741"
     inkscape:window-height="597"
     inkscape:window-x="3131"
     inkscape:window-y="638"
     inkscape:window-maximized="0">
    <inkscape:grid
       type="xygrid"
       id="grid2986" />
  </sodipodi:namedview>
  <metadata
     id="metadata27645">
    <rdf:RDF>
      <cc:Work
         rdf:about="">
        <dc:format>image/svg+xml</dc:format>
        <dc:type
           rdf:resource="http://purl.org/dc/dcmitype/StillImage" />
        <dc:title></dc:title>
      </cc:Work>
    </rdf:RDF>
  </metadata>
  <g
     inkscape:label="Layer 1"
     inkscape:groupmode="layer"
     id="layer1"
     transform="translate(0,-1034.3622)">
    <g
       transform="matrix(1.8209408,0,0,1.8209408,-664.75318,588.04649)"
       id="g15748">
      <path
         style="opacity:0;fill:#272525"
         inkscape:connector-curvature="0"
         id="path15750"
         d="m 373.324,251.95 c -0.033,0 -0.064,-0.004 -0.094,-0.014 l -0.258,-0.086 c -0.41,1.248 -1.584,2.15 -2.969,2.15 -1.385,0 -2.559,-0.902 -2.969,-2.148 l -0.258,0.084 c -0.029,0.01 -0.061,0.014 -0.094,0.014 -0.176,0 -0.318,-0.143 -0.318,-0.318 0,-0.025 0.002,-0.051 0.008,-0.074 l 0.238,-1.484 c 0.025,-0.139 0.148,-0.244 0.295,-0.244 0.086,0 0.166,0.037 0.221,0.098 l 1.098,1.029 c 0.02,0.016 0.035,0.033 0.051,0.055 0.105,0.141 0.074,0.34 -0.066,0.445 -0.027,0.02 -0.057,0.033 -0.086,0.045 l -0.277,0.092 c 0.271,0.764 0.945,1.34 1.76,1.486 l -0.002,-4.881 c -0.389,-0.166 -0.668,-0.553 -0.668,-1.002 0,-0.602 0.488,-1.088 1.088,-1.088 0.602,0 1.088,0.486 1.088,1.088 0,0.449 -0.27,0.836 -0.66,1.002 l -0.002,4.873 c 0.797,-0.158 1.445,-0.729 1.711,-1.479 l -0.275,-0.092 c -0.029,-0.012 -0.059,-0.025 -0.086,-0.045 -0.141,-0.105 -0.17,-0.305 -0.066,-0.445 0.016,-0.021 0.033,-0.039 0.051,-0.055 l 1.098,-1.029 c 0.057,-0.061 0.135,-0.098 0.223,-0.098 0.145,0 0.266,0.105 0.293,0.244 l 0.238,1.484 c 0.006,0.023 0.008,0.049 0.008,0.074 -0.003,0.176 -0.146,0.319 -0.321,0.319 z m 0.455,-6.864 h -7.521 c -0.652,0 -1.182,0.529 -1.182,1.182 v 7.523 c 0,0.652 0.529,1.18 1.182,1.18 h 7.521 c 0.652,0 1.182,-0.527 1.182,-1.18 v -7.523 c -0.001,-0.652 -0.53,-1.182 -1.182,-1.182 z" />
      <path
         d="m 370.023,247.643 c -0.245,0 -0.445,-0.201 -0.445,-0.447 0,-0.248 0.2,-0.447 0.445,-0.447 0.248,0 0.446,0.199 0.446,0.447 0,0.246 -0.198,0.447 -0.446,0.447 z m 3.611,3.914 -0.238,-1.484 c -0.027,-0.139 -0.148,-0.244 -0.293,-0.244 -0.088,0 -0.166,0.037 -0.223,0.098 l -1.098,1.029 c -0.018,0.016 -0.035,0.033 -0.051,0.055 -0.104,0.141 -0.074,0.34 0.066,0.445 0.027,0.02 0.057,0.033 0.086,0.045 l 0.275,0.092 c -0.266,0.75 -0.914,1.32 -1.711,1.479 l 0.002,-4.873 c 0.391,-0.166 0.66,-0.553 0.66,-1.002 0,-0.602 -0.486,-1.088 -1.088,-1.088 -0.6,0 -1.088,0.486 -1.088,1.088 0,0.449 0.279,0.836 0.668,1.002 l 0.002,4.881 c -0.814,-0.146 -1.488,-0.723 -1.76,-1.486 l 0.277,-0.092 c 0.029,-0.012 0.059,-0.025 0.086,-0.045 0.141,-0.105 0.172,-0.305 0.066,-0.445 -0.016,-0.021 -0.031,-0.039 -0.051,-0.055 l -1.098,-1.029 c -0.055,-0.061 -0.135,-0.098 -0.221,-0.098 -0.146,0 -0.27,0.105 -0.295,0.244 l -0.238,1.484 c -0.006,0.023 -0.008,0.049 -0.008,0.074 0,0.176 0.143,0.318 0.318,0.318 0.033,0 0.064,-0.004 0.094,-0.014 l 0.258,-0.084 c 0.41,1.246 1.584,2.148 2.969,2.148 1.385,0 2.559,-0.902 2.969,-2.15 l 0.258,0.086 c 0.029,0.01 0.061,0.014 0.094,0.014 0.176,0 0.318,-0.143 0.318,-0.318 0.003,-0.026 10e-4,-0.051 -0.005,-0.075 z"
         id="path15752"
         inkscape:connector-curvature="0"
         style="opacity:0.6;fill:none;stroke:#1d1d1c;stroke-width:0.5;stroke-miterlimit:4;stroke-opacity:1;stroke-dasharray:none" />
      <path
         style="fill:#ffffff;fill-opacity:1"
         inkscape:connector-curvature="0"
         id="path15754"
         d="m 370.023,247.643 c -0.245,0 -0.445,-0.201 -0.445,-0.447 0,-0.248 0.2,-0.447 0.445,-0.447 0.248,0 0.446,0.199 0.446,0.447 0,0.246 -0.198,0.447 -0.446,0.447 z m 3.611,3.914 -0.238,-1.484 c -0.027,-0.139 -0.148,-0.244 -0.293,-0.244 -0.088,0 -0.166,0.037 -0.223,0.098 l -1.098,1.029 c -0.018,0.016 -0.035,0.033 -0.051,0.055 -0.104,0.141 -0.074,0.34 0.066,0.445 0.027,0.02 0.057,0.033 0.086,0.045 l 0.275,0.092 c -0.266,0.75 -0.914,1.32 -1.711,1.479 l 0.002,-4.873 c 0.391,-0.166 0.66,-0.553 0.66,-1.002 0,-0.602 -0.486,-1.088 -1.088,-1.088 -0.6,0 -1.088,0.486 -1.088,1.088 0,0.449 0.279,0.836 0.668,1.002 l 0.002,4.881 c -0.814,-0.146 -1.488,-0.723 -1.76,-1.486 l 0.277,-0.092 c 0.029,-0.012 0.059,-0.025 0.086,-0.045 0.141,-0.105 0.172,-0.305 0.066,-0.445 -0.016,-0.021 -0.031,-0.039 -0.051,-0.055 l -1.098,-1.029 c -0.055,-0.061 -0.135,-0.098 -0.221,-0.098 -0.146,0 -0.27,0.105 -0.295,0.244 l -0.238,1.484 c -0.006,0.023 -0.008,0.049 -0.008,0.074 0,0.176 0.143,0.318 0.318,0.318 0.033,0 0.064,-0.004 0.094,-0.014 l 0.258,-0.084 c 0.41,1.246 1.584,2.148 2.969,2.148 1.385,0 2.559,-0.902 2.969,-2.15 l 0.258,0.086 c 0.029,0.01 0.061,0.014 0.094,0.014 0.176,0 0.318,-0.143 0.318,-0.318 0.003,-0.026 10e-4,-0.051 -0.005,-0.075 z" />
    </g>
  </g>
</svg>
