<?xml version="1.0" encoding="UTF-8" standalone="no"?>
<!-- Created with Inkscape (http://www.inkscape.org/) -->

<svg
   xmlns:dc="http://purl.org/dc/elements/1.1/"
   xmlns:cc="http://creativecommons.org/ns#"
   xmlns:rdf="http://www.w3.org/1999/02/22-rdf-syntax-ns#"
   xmlns:svg="http://www.w3.org/2000/svg"
   xmlns="http://www.w3.org/2000/svg"
   xmlns:inkscape="http://www.inkscape.org/namespaces/inkscape"
   version="1.1"
   width="18"
   height="18"
   id="svg4619">
  <defs
     id="defs4621" />
  <metadata
     id="metadata4624">
    <rdf:RDF>
      <cc:Work
         rdf:about="">
        <dc:format>image/svg+xml</dc:format>
        <dc:type
           rdf:resource="http://purl.org/dc/dcmitype/StillImage" />
        <dc:title />
      </cc:Work>
    </rdf:RDF>
  </metadata>
  <g
     transform="translate(0,-1034.3622)"
     id="layer1">
    <g
       transform="translate(48,-232)"
       id="marker-stroked-18"
       style="display:inline">
      <g
         id="g21955">
        <path
           d="m -38.5,1268.3622 c -2.33186,0 -4.5,2 -4.5,4.5 0,2.5278 3.41667,7.0556 4.5,8.5 1.08334,-1.4444 4.5,-5.9722 4.5,-8.5 0,-2.5 -2.16813,-4.5 -4.5,-4.5 z m 0,1.5 c 1.5,0 3,1.2501 3,3 0,2 -2.249996,5 -3,6 -0.749998,-1 -3,-4 -3,-6 0,-1.7499 1.5,-3 3,-3 z"
           inkscape:connector-curvature="0"
           id="path12622"
           style="opacity:0.3;color:#000000;fill:#ffffff;fill-opacity:1;fill-rule:nonzero;stroke:#ffffff;stroke-width:2;stroke-linecap:butt;stroke-linejoin:round;stroke-miterlimit:4;stroke-opacity:1;stroke-dasharray:none;stroke-dashoffset:0;marker:none;visibility:visible;display:inline;overflow:visible;enable-background:accumulate" />
        <path
           d="m -38.5,1268.3622 c -2.33186,0 -4.5,2 -4.5,4.5 0,2.5278 3.41667,7.0556 4.5,8.5 1.08334,-1.4444 4.5,-5.9722 4.5,-8.5 0,-2.5 -2.16813,-4.5 -4.5,-4.5 z m 0,1.5 c 1.5,0 3,1.2501 3,3 0,2 -2.249996,5 -3,6 -0.749998,-1 -3,-4 -3,-6 0,-1.7499 1.5,-3 3,-3 z"
           inkscape:connector-curvature="0"
           id="path7962-4-3-5-3-2-0"
           style="color:#000000;fill:#444444;fill-opacity:1;fill-rule:nonzero;stroke:none;stroke-width:2;marker:none;visibility:visible;display:inline;overflow:visible;enable-background:accumulate" />
      </g>
    </g>
  </g>
  <rect
     width="18"
     height="18"
     x="0"
     y="0"
     id="canvas"
     style="fill:none;stroke:none;visibility:hidden" />
</svg>
