<?xml version="1.0" encoding="UTF-8" standalone="no"?>
<!-- Created with Inkscape (http://www.inkscape.org/) -->

<svg
   xmlns:dc="http://purl.org/dc/elements/1.1/"
   xmlns:cc="http://creativecommons.org/ns#"
   xmlns:rdf="http://www.w3.org/1999/02/22-rdf-syntax-ns#"
   xmlns:svg="http://www.w3.org/2000/svg"
   xmlns="http://www.w3.org/2000/svg"
   xmlns:inkscape="http://www.inkscape.org/namespaces/inkscape"
   version="1.1"
   width="12"
   height="12"
   id="svg4764">
  <defs
     id="defs4766" />
  <metadata
     id="metadata4769">
    <rdf:RDF>
      <cc:Work
         rdf:about="">
        <dc:format>image/svg+xml</dc:format>
        <dc:type
           rdf:resource="http://purl.org/dc/dcmitype/StillImage" />
        <dc:title />
      </cc:Work>
    </rdf:RDF>
  </metadata>
  <g
     transform="translate(0,-1040.3622)"
     id="layer1">
    <g
       transform="translate(30,-226)"
       id="marker-stroked-12"
       style="display:inline">
      <g
         id="g21951">
        <path
           d="m 96.5,217 c -1.61437,0 -3.5,1 -3.5,3.5 0,1.75 2.75,5.5 3.5,6.5 0.75,-1 3.5,-4.75 3.5,-6.5 0,-2.5 -1.88563,-3.5 -3.5,-3.5 z m 0,1 c 1.255621,0 2.5,1 2.5,2.5 0,1.3611 -1.916667,4.2222 -2.5,5 -0.583333,-0.7778 -2.5,-3.6389 -2.5,-5 0,-1.5 1.244379,-2.5 2.5,-2.5 z"
           inkscape:connector-curvature="0"
           transform="translate(-120,1050.3622)"
           id="path4123"
           style="opacity:0.3;color:#000000;fill:#ffffff;fill-opacity:1;fill-rule:nonzero;stroke:#ffffff;stroke-width:2;stroke-linecap:butt;stroke-linejoin:round;stroke-miterlimit:4;stroke-opacity:1;stroke-dasharray:none;stroke-dashoffset:0;marker:none;visibility:visible;display:inline;overflow:visible;enable-background:accumulate" />
        <path
           d="m 96.5,217 c -1.61437,0 -3.5,1 -3.5,3.5 0,1.75 2.75,5.5 3.5,6.5 0.75,-1 3.5,-4.75 3.5,-6.5 0,-2.5 -1.88563,-3.5 -3.5,-3.5 z m 0,1 c 1.255621,0 2.5,1 2.5,2.5 0,1.3611 -1.916667,4.2222 -2.5,5 -0.583333,-0.7778 -2.5,-3.6389 -2.5,-5 0,-1.5 1.244379,-2.5 2.5,-2.5 z"
           inkscape:connector-curvature="0"
           transform="translate(-120,1050.3622)"
           id="path7962-4-3-5-3-8-9"
           style="color:#000000;fill:#444444;fill-opacity:1;fill-rule:nonzero;stroke:none;stroke-width:2;marker:none;visibility:visible;display:inline;overflow:visible;enable-background:accumulate" />
      </g>
    </g>
  </g>
  <rect
     width="12"
     height="12"
     x="0"
     y="0"
     id="canvas"
     style="fill:none;stroke:none;visibility:hidden" />
</svg>
