<?xml version="1.0" encoding="UTF-8" standalone="no"?>
<!-- Created with Inkscape (http://www.inkscape.org/) -->

<svg
   xmlns:dc="http://purl.org/dc/elements/1.1/"
   xmlns:cc="http://creativecommons.org/ns#"
   xmlns:rdf="http://www.w3.org/1999/02/22-rdf-syntax-ns#"
   xmlns:svg="http://www.w3.org/2000/svg"
   xmlns="http://www.w3.org/2000/svg"
   xmlns:inkscape="http://www.inkscape.org/namespaces/inkscape"
   version="1.1"
   width="24"
   height="24"
   id="svg4460">
  <defs
     id="defs4462" />
  <metadata
     id="metadata4465">
    <rdf:RDF>
      <cc:Work
         rdf:about="">
        <dc:format>image/svg+xml</dc:format>
        <dc:type
           rdf:resource="http://purl.org/dc/dcmitype/StillImage" />
        <dc:title />
      </cc:Work>
    </rdf:RDF>
  </metadata>
  <g
     transform="translate(0,-1028.3622)"
     id="layer1">
    <g
       transform="translate(-552,-94)"
       id="minefield-24"
       style="display:inline">
      <g
         id="g13404">
        <path
           d="m 683.5,76 -2.5,7 -6,-4 2,6.5 c 0.45832,1.4895 1,1.5 2,1.5 l 2,0 0,-1 5,0 0,1 2,0 c 1,0 1.50645,-0.4306 2,-1.5 l 2,-6.5 -6,4 -2.5,-7 z m -1.5,11 0,1 c -2.216,0 -4,0.669 -4,1.5 0,0.831 1.784,1.5 4,1.5 l 3,0 c 2.216,0 4,-0.669 4,-1.5 0,-0.831 -1.784,-1.5 -4,-1.5 l 0,-1 -3,0 z"
           inkscape:connector-curvature="0"
           transform="translate(-120,1050.3622)"
           id="path13728"
           style="opacity:0.3;color:#000000;fill:#ffffff;fill-opacity:1;fill-rule:nonzero;stroke:#ffffff;stroke-width:2;stroke-linecap:round;stroke-linejoin:round;stroke-miterlimit:4;stroke-opacity:1;stroke-dasharray:none;stroke-dashoffset:0;marker:none;visibility:visible;display:inline;overflow:visible;enable-background:accumulate" />
        <path
           d="m 564.5,1126.3622 -2.5,7 -6,-4 2,6.5 c 0.45832,1.4895 1,1.5 2,1.5 l 2,0 0,-1 5,0 0,1 2,0 c 1,0 1.50645,-0.4306 2,-1.5 l 2,-6.5 -6,4 -2.5,-7 z m -1.5,11 0,1 c -2.216,0 -4,0.669 -4,1.5 0,0.831 1.784,1.5 4,1.5 l 3,0 c 2.216,0 4,-0.669 4,-1.5 0,-0.831 -1.784,-1.5 -4,-1.5 l 0,-1 -3,0 z"
           inkscape:connector-curvature="0"
           id="path10041-3-3-7"
           style="color:#000000;fill:#444444;fill-opacity:1;fill-rule:nonzero;stroke:none;stroke-width:2;marker:none;visibility:visible;display:inline;overflow:visible;enable-background:accumulate" />
      </g>
    </g>
  </g>
  <rect
     width="24"
     height="24"
     x="0"
     y="0"
     id="canvas"
     style="fill:none;stroke:none;visibility:hidden" />
</svg>
