<?xml version="1.0" encoding="UTF-8" standalone="no"?>
<!-- Created with Inkscape (http://www.inkscape.org/) -->

<svg
   xmlns:dc="http://purl.org/dc/elements/1.1/"
   xmlns:cc="http://creativecommons.org/ns#"
   xmlns:rdf="http://www.w3.org/1999/02/22-rdf-syntax-ns#"
   xmlns:svg="http://www.w3.org/2000/svg"
   xmlns="http://www.w3.org/2000/svg"
   xmlns:inkscape="http://www.inkscape.org/namespaces/inkscape"
   version="1.1"
   width="18"
   height="18"
   id="svg4619">
  <defs
     id="defs4621" />
  <metadata
     id="metadata4624">
    <rdf:RDF>
      <cc:Work
         rdf:about="">
        <dc:format>image/svg+xml</dc:format>
        <dc:type
           rdf:resource="http://purl.org/dc/dcmitype/StillImage" />
        <dc:title />
      </cc:Work>
    </rdf:RDF>
  </metadata>
  <g
     transform="translate(0,-1034.3622)"
     id="layer1">
    <g
       transform="translate(-576.00002,-88.000013)"
       id="minefield-18"
       style="display:inline">
      <g
         id="g13408">
        <path
           d="m 704,74 -2,5.5 -4.5,-3 1.40625,5.25 c 0.37744,1.2266 0.83272,1.25 1.65625,1.25 l 1.4375,0 0,-1 4,0 0,1 1.5,0 c 0.82353,0 1.21855,-0.3693 1.625,-1.25 l 1.375,-5.25 -4.5,3 -2,-5.5 z m -1,9 0,1.03125 c -2.00249,0.151943 -3.5,0.755242 -3.5,1.46875 0,0.828427 2.01472,1.5 4.5,1.5 2.48528,0 4.5,-0.671573 4.5,-1.5 0,-0.713508 -1.49751,-1.316807 -3.5,-1.46875 L 705,83 l -2,0 z"
           inkscape:connector-curvature="0"
           transform="translate(-120,1050.3622)"
           id="path13769"
           style="opacity:0.3;color:#000000;fill:#ffffff;fill-opacity:1;fill-rule:nonzero;stroke:#ffffff;stroke-width:2;stroke-linecap:round;stroke-linejoin:round;stroke-miterlimit:4;stroke-opacity:1;stroke-dasharray:none;stroke-dashoffset:0;marker:none;visibility:visible;display:inline;overflow:visible;enable-background:accumulate" />
        <path
           d="m 585.5,1124.3622 -2,5.5 -4.5,-3 1.40625,5.25 c 0.37744,1.2266 0.83272,1.25 1.65625,1.25 l 1.4375,0 0,-1 4,0 0,1 1.5,0 c 0.82353,0 1.21855,-0.3693 1.625,-1.25 l 1.375,-5.25 -4.5,3 z m -1,9 0,1.0313 c -2.00249,0.1519 -3.5,0.7552 -3.5,1.4687 0,0.8284 2.01472,1.5 4.5,1.5 0.44629,0 0.8774,-0.022 1.2844,-0.062 1.85949,-0.1842 3.2156,-0.7583 3.2156,-1.438 0,-0.7135 -1.49751,-1.3168 -3.5,-1.4687 l 0,-1.0313 z"
           inkscape:connector-curvature="0"
           id="path8994"
           style="color:#000000;fill:#444444;fill-opacity:1;fill-rule:nonzero;stroke:none;stroke-width:2;marker:none;visibility:visible;display:inline;overflow:visible;enable-background:accumulate" />
      </g>
    </g>
  </g>
  <rect
     width="18"
     height="18"
     x="0"
     y="0"
     id="canvas"
     style="fill:none;stroke:none;visibility:hidden" />
</svg>
