<?xml version="1.0" encoding="UTF-8" standalone="no"?>
<!-- Created with Inkscape (http://www.inkscape.org/) -->

<svg
   xmlns:dc="http://purl.org/dc/elements/1.1/"
   xmlns:cc="http://creativecommons.org/ns#"
   xmlns:rdf="http://www.w3.org/1999/02/22-rdf-syntax-ns#"
   xmlns:svg="http://www.w3.org/2000/svg"
   xmlns="http://www.w3.org/2000/svg"
   xmlns:inkscape="http://www.inkscape.org/namespaces/inkscape"
   version="1.1"
   width="12"
   height="12"
   id="svg4764">
  <defs
     id="defs4766" />
  <metadata
     id="metadata4769">
    <rdf:RDF>
      <cc:Work
         rdf:about="">
        <dc:format>image/svg+xml</dc:format>
        <dc:type
           rdf:resource="http://purl.org/dc/dcmitype/StillImage" />
        <dc:title />
      </cc:Work>
    </rdf:RDF>
  </metadata>
  <g
     transform="translate(0,-1040.3622)"
     id="layer1">
    <g
       transform="translate(-594,-82.000003)"
       id="minefield-12"
       style="display:inline">
      <g
         id="g13412">
        <path
           d="m 720.25,73 -1.75,4 -3,-2.5 0.8125,4.09375 C 716.58749,79.48745 716.9,80 717.5,80 l 1.5,0 0,-1 2.5,0 0,1 1.40625,0 c 0.6,0 0.89137,-0.26465 1.1875,-0.90625 L 725,74.5 721.5,77 z m -0.75,6.5 0,1.0625 c -1.14465,0.120929 -2,0.981219 -2,1.4375 l 0,1 2.75,0.0058 L 723,83 l 0,-1 c 0,-0.456281 -0.85535,-1.316571 -2,-1.4375 L 721,79.5 z"
           inkscape:connector-curvature="0"
           transform="translate(-120,1050.3622)"
           id="path9103"
           style="opacity:0.3;color:#000000;fill:#ffffff;fill-opacity:1;fill-rule:nonzero;stroke:#ffffff;stroke-width:2;stroke-linecap:round;stroke-linejoin:round;stroke-miterlimit:4;stroke-opacity:1;stroke-dasharray:none;stroke-dashoffset:0;marker:none;visibility:visible;display:inline;overflow:visible;enable-background:accumulate" />
        <path
           d="m 720.25,73 -1.75,4 -3,-2.5 0.8125,4.09375 C 716.58749,79.48745 716.9,80 717.5,80 l 1.5,0 0,-1 2.5,0 0,1 1.40625,0 c 0.6,0 0.89137,-0.26465 1.1875,-0.90625 L 725,74.5 721.5,77 z m -0.75,6.5 0,1.0625 c -1.14465,0.120929 -2,0.981219 -2,1.4375 l 0,1 2.75,0.0058 L 723,83 l 0,-1 c 0,-0.456281 -0.85535,-1.316571 -2,-1.4375 L 721,79.5 z"
           inkscape:connector-curvature="0"
           transform="translate(-120,1050.3622)"
           id="path8989"
           style="color:#000000;fill:#444444;fill-opacity:1;fill-rule:nonzero;stroke:none;stroke-width:2;marker:none;visibility:visible;display:inline;overflow:visible;enable-background:accumulate" />
      </g>
    </g>
  </g>
  <rect
     width="12"
     height="12"
     x="0"
     y="0"
     id="canvas"
     style="fill:none;stroke:none;visibility:hidden" />
</svg>
