<?xml version="1.0" encoding="UTF-8" standalone="no"?>
<!-- Created with Inkscape (http://www.inkscape.org/) -->

<svg
   xmlns:dc="http://purl.org/dc/elements/1.1/"
   xmlns:cc="http://creativecommons.org/ns#"
   xmlns:rdf="http://www.w3.org/1999/02/22-rdf-syntax-ns#"
   xmlns:svg="http://www.w3.org/2000/svg"
   xmlns="http://www.w3.org/2000/svg"
   version="1.1"
   width="18"
   height="18"
   id="svg4619">
  <defs
     id="defs4621" />
  <metadata
     id="metadata4624">
    <rdf:RDF>
      <cc:Work
         rdf:about="">
        <dc:format>image/svg+xml</dc:format>
        <dc:type
           rdf:resource="http://purl.org/dc/dcmitype/StillImage" />
        <dc:title></dc:title>
      </cc:Work>
    </rdf:RDF>
  </metadata>
  <path
     d="M 6,1 6,3 C 5.499932,3 5,3.598 5,4 l 0,11 c 0,0.4019 0.499932,1 1,1 l 7,0 c 0.500067,0 1,-0.5981 1,-1 L 14,4 C 14,3.598 13.500067,3 13,3 L 8,3 8,1 6,1 z m 1,4 5,0 0,3 -5,0 0,-3 z m 0,4.03125 2,0 L 9,11 7,11 7,9.03125 z m 3,0 2,0 L 12,11 10,11 10,9.03125 z M 7,12 l 2,0 0,2 -2,0 0,-2 z m 3,0 2,0 0,2 -2,0 0,-2 z"
     id="path13506"
     style="opacity:0.3;fill:none;stroke:#ffffff;stroke-width:2;stroke-linecap:round;stroke-linejoin:round;stroke-miterlimit:4;stroke-opacity:1;stroke-dasharray:none" />
  <path
     d="M 6,1 6,3 C 5.499932,3 5,3.598 5,4 l 0,11 c 0,0.4019 0.499932,1 1,1 l 7,0 c 0.500067,0 1,-0.5981 1,-1 L 14,4 C 14,3.598 13.500067,3 13,3 L 8,3 8,1 6,1 z m 1,4 5,0 0,3 -5,0 0,-3 z m 0,4.03125 2,0 L 9,11 7,11 7,9.03125 z m 3,0 2,0 L 12,11 10,11 10,9.03125 z M 7,12 l 2,0 0,2 -2,0 0,-2 z m 3,0 2,0 0,2 -2,0 0,-2 z"
     id="rect6639"
     style="fill:#444444;fill-opacity:1;stroke:none" />
  <rect
     width="18"
     height="18"
     x="0"
     y="0"
     id="canvas"
     style="fill:none;stroke:none;visibility:hidden" />
</svg>
