<?xml version="1.0" encoding="UTF-8" standalone="no"?>
<!-- Created with Inkscape (http://www.inkscape.org/) -->

<svg
   xmlns:dc="http://purl.org/dc/elements/1.1/"
   xmlns:cc="http://creativecommons.org/ns#"
   xmlns:rdf="http://www.w3.org/1999/02/22-rdf-syntax-ns#"
   xmlns:svg="http://www.w3.org/2000/svg"
   xmlns="http://www.w3.org/2000/svg"
   version="1.1"
   width="24"
   height="24"
   id="svg4460">
  <defs
     id="defs4462" />
  <metadata
     id="metadata4465">
    <rdf:RDF>
      <cc:Work
         rdf:about="">
        <dc:format>image/svg+xml</dc:format>
        <dc:type
           rdf:resource="http://purl.org/dc/dcmitype/StillImage" />
        <dc:title></dc:title>
      </cc:Work>
    </rdf:RDF>
  </metadata>
  <path
     d="M 7.875,1 C 7.3873115,1 7,1.3873115 7,1.875 l 0,1.15625 c -0.5586297,0.060037 -1,0.472033 -1,1 l 0,16.9375 C 6,21.53775 6.5043022,22 7.125,22 l 9.75,0 C 17.495698,22 18,21.53775 18,20.96875 L 18,4.03125 C 18,3.46235 17.495698,3 16.875,3 L 9,3 9,1.875 C 9,1.3873115 8.6126885,1 8.125,1 L 7.875,1 z M 9,5 15,5 c 0.532025,0 1,0.5123 1,1 l 0,3 c 0,0.4877 -0.467976,1 -1,1 L 9,10 C 8.4679762,10 8,9.4877 8,9 L 8,6 C 8,5.5123 8.4679762,5 9,5 z m -1,7 2,0 0,2 -2,0 0,-2 z m 3,0.03125 2,0 0,1.96875 -2,0 0,-1.96875 z m 3,0 2,0 L 16,14 14,14 14,12.03125 z M 8,15 l 2,0 0,2 -2,0 0,-2 z m 3,0.03125 2,0 0,1.96875 -2,0 0,-1.96875 z m 3,0 2,0 L 16,17 14,17 14,15.03125 z M 8,18 l 2,0 0,2 -2,0 0,-2 z m 3,0.03125 2,0 0,1.96875 -2,0 0,-1.96875 z m 3,0 2,0 0,1.96875 -2,0 0,-1.96875 z"
     id="path14111"
     style="opacity:0.3;fill:none;stroke:#ffffff;stroke-width:2;stroke-linecap:round;stroke-linejoin:round;stroke-miterlimit:4;stroke-opacity:1;stroke-dasharray:none" />
  <path
     d="M 7.875,1 C 7.3873115,1 7,1.3873115 7,1.875 l 0,1.15625 c -0.5586297,0.060037 -1,0.472033 -1,1 l 0,16.9375 C 6,21.53775 6.5043022,22 7.125,22 l 9.75,0 C 17.495698,22 18,21.53775 18,20.96875 L 18,4.03125 C 18,3.46235 17.495698,3 16.875,3 L 9,3 9,1.875 C 9,1.3873115 8.6126885,1 8.125,1 L 7.875,1 z M 9,5 15,5 c 0.532025,0 1,0.5123 1,1 l 0,3 c 0,0.4877 -0.467976,1 -1,1 L 9,10 C 8.4679762,10 8,9.4877 8,9 L 8,6 C 8,5.5123 8.4679762,5 9,5 z m -1,7 2,0 0,2 -2,0 0,-2 z m 3,0.03125 2,0 0,1.96875 -2,0 0,-1.96875 z m 3,0 2,0 L 16,14 14,14 14,12.03125 z M 8,15 l 2,0 0,2 -2,0 0,-2 z m 3,0.03125 2,0 0,1.96875 -2,0 0,-1.96875 z m 3,0 2,0 L 16,17 14,17 14,15.03125 z M 8,18 l 2,0 0,2 -2,0 0,-2 z m 3,0.03125 2,0 0,1.96875 -2,0 0,-1.96875 z m 3,0 2,0 0,1.96875 -2,0 0,-1.96875 z"
     id="rect6639"
     style="fill:#444444;fill-opacity:1;stroke:none" />
  <rect
     width="24"
     height="24"
     x="0"
     y="0"
     id="canvas"
     style="fill:none;stroke:none;visibility:hidden" />
</svg>
