<?xml version="1.0" encoding="UTF-8" standalone="no"?>
<!-- Created with Inkscape (http://www.inkscape.org/) -->

<svg
   xmlns:dc="http://purl.org/dc/elements/1.1/"
   xmlns:cc="http://creativecommons.org/ns#"
   xmlns:rdf="http://www.w3.org/1999/02/22-rdf-syntax-ns#"
   xmlns:svg="http://www.w3.org/2000/svg"
   xmlns="http://www.w3.org/2000/svg"
   xmlns:sodipodi="http://sodipodi.sourceforge.net/DTD/sodipodi-0.dtd"
   xmlns:inkscape="http://www.inkscape.org/namespaces/inkscape"
   width="24"
   height="24"
   id="svg4460"
   version="1.1"
   inkscape:version="0.48.2 r9819"
   sodipodi:docname="mobilephone-24.svg">
  <defs
     id="defs4462" />
  <sodipodi:namedview
     id="base"
     pagecolor="#ffffff"
     bordercolor="#666666"
     borderopacity="1.0"
     inkscape:pageopacity="0.0"
     inkscape:pageshadow="2"
     inkscape:zoom="16"
     inkscape:cx="12.925313"
     inkscape:cy="15.094688"
     inkscape:document-units="px"
     inkscape:current-layer="layer1"
     showgrid="true"
     showguides="false"
     inkscape:guide-bbox="true"
     inkscape:window-width="1440"
     inkscape:window-height="825"
     inkscape:window-x="0"
     inkscape:window-y="0"
     inkscape:window-maximized="1"
     inkscape:snap-bbox="true">
    <inkscape:grid
       type="xygrid"
       id="grid4468"
       empspacing="2"
       visible="true"
       enabled="true"
       snapvisiblegridlinesonly="true"
       spacingx="0.5px"
       spacingy="0.5px"
       color="#e500ff"
       opacity="0.1254902" />
    <sodipodi:guide
       orientation="1,0"
       position="0,20"
       id="guide4470" />
    <sodipodi:guide
       orientation="0,1"
       position="4,24"
       id="guide4472" />
    <sodipodi:guide
       orientation="1,0"
       position="24,13"
       id="guide4474" />
    <sodipodi:guide
       orientation="0,1"
       position="15,0"
       id="guide4476" />
    <sodipodi:guide
       orientation="1,0"
       position="23,20"
       id="guide4478" />
    <sodipodi:guide
       orientation="0,1"
       position="20,23"
       id="guide4480" />
    <sodipodi:guide
       orientation="1,0"
       position="2,5"
       id="guide4482" />
    <sodipodi:guide
       orientation="0,1"
       position="7,2"
       id="guide4484" />
    <sodipodi:guide
       orientation="1,0"
       position="12.5,12"
       id="guide4486" />
    <sodipodi:guide
       orientation="0,1"
       position="14.5,12.5"
       id="guide4490" />
  </sodipodi:namedview>
  <metadata
     id="metadata4465">
    <rdf:RDF>
      <cc:Work
         rdf:about="">
        <dc:format>image/svg+xml</dc:format>
        <dc:type
           rdf:resource="http://purl.org/dc/dcmitype/StillImage" />
        <dc:title></dc:title>
      </cc:Work>
    </rdf:RDF>
  </metadata>
  <g
     inkscape:label="Layer 1"
     inkscape:groupmode="layer"
     id="layer1"
     transform="translate(0,-1028.3622)">
    <path
       style="fill:#ffffff;fill-opacity:1;stroke:#ffffff;opacity:0.29999999999999999;color:#000000;fill-rule:nonzero;stroke-width:2;stroke-linecap:butt;stroke-linejoin:round;stroke-miterlimit:4;stroke-opacity:1;stroke-dasharray:none;stroke-dashoffset:0;marker:none;visibility:visible;display:inline;overflow:visible;enable-background:accumulate"
       d="M 7.875 1 C 7.3873115 1 7 1.3873115 7 1.875 L 7 3.03125 C 6.4413703 3.0912805 6 3.503283 6 4.03125 L 6 20.96875 C 6 21.53775 6.5043022 22 7.125 22 L 16.875 22 C 17.495698 22 18 21.53775 18 20.96875 L 18 4.03125 C 18 3.46235 17.495698 3 16.875 3 L 9 3 L 9 1.875 C 9 1.3873115 8.6126885 1 8.125 1 L 7.875 1 z M 9 5 L 15 5 C 15.532025 5 16 5.5123 16 6 L 16 10 C 16 10.4877 15.532024 11 15 11 L 9 11 C 8.4679762 11 8 10.4877 8 10 L 8 6 C 8 5.5123 8.4679762 5 9 5 z "
       transform="translate(0,1028.3622)"
       id="path8165" />
    <rect
       ry="1"
       y="1059.3622"
       x="22"
       height="9"
       width="10"
       id="rect7375"
       style="fill:#000000;fill-opacity:1;stroke:none" />
    <rect
       style="fill:#000000;fill-opacity:1;stroke:none"
       id="rect7373"
       width="10"
       height="9"
       x="22"
       y="41"
       transform="translate(0,1028.3622)"
       ry="1" />
    <path
       style="fill:#444444;fill-opacity:1;stroke:none"
       d="m 7.125,1031.3622 c -0.6206978,0 -1.125,0.4623 -1.125,1.0312 l 0,16.9375 c 0,0.569 0.5043022,1.0313 1.125,1.0313 l 9.75,0 c 0.620698,0 1.125,-0.4623 1.125,-1.0313 l 0,-16.9375 c 0,-0.5689 -0.504302,-1.0312 -1.125,-1.0312 z m 1.875,2 6,0 c 0.532025,0 1,0.5123 1,1 l 0,4 c 0,0.4877 -0.467976,1 -1,1 l -6,0 c -0.5320238,0 -1,-0.5123 -1,-1 l 0,-4 c 0,-0.4877 0.4679762,-1 1,-1 z"
       id="rect6639"
       inkscape:connector-curvature="0"
       sodipodi:nodetypes="ssssssssssssssssss" />
    <rect
       style="fill:#444444;fill-opacity:1;stroke:none"
       id="rect6934"
       width="2"
       height="3"
       x="7"
       y="-1032.3622"
       transform="scale(1,-1)"
       ry="0.88030416" />
    <path
       sodipodi:nodetypes="ssssssssssssssssss"
       inkscape:connector-curvature="0"
       id="path6970"
       d="m 33.02734,1031.363 c -0.568973,0 -1.03125,0.4623 -1.03125,1.0313 l 0,16.9375 c 0,0.5689 0.462277,1.0312 1.03125,1.0312 l 8.9375,0 c 0.568973,0 1.03125,-0.4623 1.03125,-1.0312 l 0,-16.9375 c 0,-0.569 -0.462277,-1.0313 -1.03125,-1.0313 z m 1.84375,2 5.25,0 c 0.487689,0 0.875,0.3873 0.875,0.875 l 0,4.125 c 0,0.4877 -0.512311,1 -1,1 l -5,0 c -0.487688,0 -1,-0.5123 -1,-1 l 0,-4.125 c 0,-0.4877 0.387312,-0.875 0.875,-0.875 z"
       style="fill:#000000;fill-opacity:1;stroke:none" />
    <rect
       ry="0.88030416"
       transform="scale(1,-1)"
       y="-1032.3622"
       x="33"
       height="3"
       width="2"
       id="rect6972"
       style="fill:#000000;fill-opacity:1;stroke:none" />
    <rect
       style="fill:#ffffff;fill-opacity:1;stroke:none"
       id="rect6992"
       width="2"
       height="2"
       x="34"
       y="12"
       transform="translate(0,1028.3622)"
       ry="0.88030416" />
    <rect
       ry="0.88030416"
       y="1040.3622"
       x="36.507812"
       height="2"
       width="2"
       id="rect6994"
       style="fill:#ffffff;fill-opacity:1;stroke:none" />
    <rect
       style="fill:#ffffff;fill-opacity:1;stroke:none"
       id="rect6996"
       width="2"
       height="2"
       x="39.015625"
       y="1040.3466"
       ry="0.88030416" />
    <rect
       ry="0.88030416"
       y="1043.3622"
       x="34"
       height="2"
       width="2"
       id="rect6998"
       style="fill:#ffffff;fill-opacity:1;stroke:none" />
    <rect
       style="fill:#ffffff;fill-opacity:1;stroke:none"
       id="rect7000"
       width="2"
       height="2"
       x="36.507812"
       y="1043.3622"
       ry="0.88030416" />
    <rect
       ry="0.88030416"
       y="1043.3466"
       x="39.015625"
       height="2"
       width="2"
       id="rect7002"
       style="fill:#ffffff;fill-opacity:1;stroke:none" />
    <rect
       style="fill:#ffffff;fill-opacity:1;stroke:none"
       id="rect7004"
       width="2"
       height="2"
       x="34"
       y="1046.3622"
       ry="0.88030416" />
    <rect
       ry="0.88030416"
       y="1046.3622"
       x="36.507812"
       height="2"
       width="2"
       id="rect7006"
       style="fill:#ffffff;fill-opacity:1;stroke:none" />
    <rect
       style="fill:#ffffff;fill-opacity:1;stroke:none"
       id="rect7008"
       width="2"
       height="2"
       x="39.015625"
       y="1046.3466"
       ry="0.88030416" />
    <path
       style="fill:#000000;fill-opacity:1;stroke:none"
       d="m 73.875,1031.3622 c -0.568973,0 -1.03125,0.4623 -1.03125,1.0313 l 0,16.9375 c 0,0.5689 0.462277,1.0312 1.03125,1.0312 l 9,0 c 0.568973,0 1,-0.4311 1,-1 l 0,-17 c 0,-0.569 -0.431027,-1 -1,-1 z m 1,1 7,0 c 0.487689,0 1,0.5123 1,1 l 0,13 c 0,0.4877 -0.512311,1 -1,1 l -7,0 c -0.487688,0 -1,-0.5123 -1,-1 l 0,-13 c 0,-0.4877 0.512312,-1 1,-1 z"
       id="path7010"
       inkscape:connector-curvature="0"
       sodipodi:nodetypes="ssssssssssssssssss" />
    <path
       sodipodi:type="arc"
       style="fill:#ffffff;fill-opacity:1;stroke:none"
       id="path7016"
       sodipodi:cx="60"
       sodipodi:cy="21"
       sodipodi:rx="1"
       sodipodi:ry="1"
       d="m 61,21 a 1,1 0 1 1 -2,0 1,1 0 1 1 2,0 z"
       transform="translate(18.375,1027.8622)" />
    <path
       style="fill:#000000;fill-opacity:1;stroke:none"
       d="m 52,1031.3622 c -0.568973,0 -1.03125,0.4623 -1.03125,1.0313 l 0,16.9375 c 0,0.5689 0.462277,1.0312 1.03125,1.0312 l 9,0 c 0.568973,0 1,-0.4311 1,-1 l 0,-17 c 0,-0.569 -0.431027,-1 -1,-1 z m 2,2 5,0 c 0.487689,0 1.00381,0.5123 1,1 l -0.03125,4 c -0.0038,0.4877 -0.481061,1 -0.96875,1 l -5,0 c -0.487688,0 -1,-0.5123 -1,-1 l 0,-4 c 0,-0.4877 0.512312,-1 1,-1 z"
       id="path7024"
       inkscape:connector-curvature="0"
       sodipodi:nodetypes="ssssssssssssssssss" />
    <rect
       style="fill:#000000;fill-opacity:1;stroke:none"
       id="rect7026"
       width="1.9960899"
       height="3"
       x="59.00391"
       y="-1032.3622"
       transform="scale(1,-1)"
       ry="0.88030416" />
    <rect
       ry="0.88030416"
       y="1040.3613"
       x="52.97266"
       height="2"
       width="2"
       id="rect7028"
       style="fill:#ffffff;fill-opacity:1;stroke:none" />
    <rect
       style="fill:#ffffff;fill-opacity:1;stroke:none"
       id="rect7030"
       width="2"
       height="2"
       x="55.480473"
       y="1040.3613"
       ry="0.88030416" />
    <rect
       ry="0.88030416"
       y="1040.3457"
       x="57.988285"
       height="2"
       width="2"
       id="rect7032"
       style="fill:#ffffff;fill-opacity:1;stroke:none" />
    <rect
       style="fill:#ffffff;fill-opacity:1;stroke:none"
       id="rect7034"
       width="2"
       height="2"
       x="52.97266"
       y="1043.3613"
       ry="0.88030416" />
    <rect
       ry="0.88030416"
       y="1043.3613"
       x="55.480473"
       height="2"
       width="2"
       id="rect7036"
       style="fill:#ffffff;fill-opacity:1;stroke:none" />
    <rect
       style="fill:#ffffff;fill-opacity:1;stroke:none"
       id="rect7038"
       width="2"
       height="2"
       x="57.988285"
       y="1043.3457"
       ry="0.88030416" />
    <rect
       ry="0.88030416"
       y="1046.3613"
       x="52.97266"
       height="2"
       width="2"
       id="rect7040"
       style="fill:#ffffff;fill-opacity:1;stroke:none" />
    <rect
       style="fill:#ffffff;fill-opacity:1;stroke:none"
       id="rect7042"
       width="2"
       height="2"
       x="55.480473"
       y="1046.3613"
       ry="0.88030416" />
    <rect
       ry="0.88030416"
       y="1046.3457"
       x="57.988285"
       height="2"
       width="2"
       id="rect7044"
       style="fill:#ffffff;fill-opacity:1;stroke:none" />
    <path
       sodipodi:nodetypes="ssssssssssssssssss"
       inkscape:connector-curvature="0"
       id="path7046"
       d="m -12.968749,1031.3622 c -0.568973,0 -1.03125,0.4622 -1.03125,1.0312 l 0,16.9375 c 0,0.569 0.462277,1.0313 1.03125,1.0313 l 8.9375003,0 c 0.568973,0 1.03125,-0.4623 1.03125,-1.0313 l 0,-16.9375 c 0,-0.569 -0.462277,-1.0312 -1.03125,-1.0312 z m 1.84375,2 5.2500003,0 c 0.487689,0 0.875,0.3873 0.875,0.875 l 0,4.125 c 0,0.4876 -0.512311,1 -1,1 l -5.0000003,0 c -0.487689,0 -1,-0.5124 -1,-1 l 0,-4.125 c 0,-0.4877 0.387311,-0.875 0.875,-0.875 z"
       style="fill:#000000;fill-opacity:1;stroke:none" />
    <rect
       ry="0.88030416"
       transform="scale(1,-1)"
       y="-1032.3622"
       x="-6"
       height="3"
       width="2"
       id="rect7048"
       style="fill:#000000;fill-opacity:1;stroke:none" />
    <path
       transform="matrix(1,0,0,-1,-20.496089,1054.8441)"
       d="m 10,12.75 a 0.75,0.75 0 1 1 -1.5,0 0.75,0.75 0 1 1 1.5,0 z"
       sodipodi:ry="0.75"
       sodipodi:rx="0.75"
       sodipodi:cy="12.75"
       sodipodi:cx="9.25"
       id="path7050"
       style="fill:#ffffff;fill-opacity:1;stroke:none"
       sodipodi:type="arc" />
    <path
       sodipodi:type="arc"
       style="fill:#ffffff;fill-opacity:1;stroke:none"
       id="path7052"
       sodipodi:cx="9.25"
       sodipodi:cy="12.75"
       sodipodi:rx="0.75"
       sodipodi:ry="0.75"
       d="m 10,12.75 a 0.75,0.75 0 1 1 -1.5,0 0.75,0.75 0 1 1 1.5,0 z"
       transform="matrix(1,0,0,-1,-17.749999,1054.8441)" />
    <path
       transform="matrix(1,0,0,-1,-15.00391,1054.8441)"
       d="m 10,12.75 a 0.75,0.75 0 1 1 -1.5,0 0.75,0.75 0 1 1 1.5,0 z"
       sodipodi:ry="0.75"
       sodipodi:rx="0.75"
       sodipodi:cy="12.75"
       sodipodi:cx="9.25"
       id="path7054"
       style="fill:#ffffff;fill-opacity:1;stroke:none"
       sodipodi:type="arc" />
    <path
       sodipodi:type="arc"
       style="fill:#ffffff;fill-opacity:1;stroke:none"
       id="path7056"
       sodipodi:cx="9.25"
       sodipodi:cy="12.75"
       sodipodi:rx="0.75"
       sodipodi:ry="0.75"
       d="m 10,12.75 a 0.75,0.75 0 1 1 -1.5,0 0.75,0.75 0 1 1 1.5,0 z"
       transform="matrix(1,0,0,-1,-20.496089,1057.4388)" />
    <path
       transform="matrix(1,0,0,-1,-17.749999,1057.4388)"
       d="m 10,12.75 a 0.75,0.75 0 1 1 -1.5,0 0.75,0.75 0 1 1 1.5,0 z"
       sodipodi:ry="0.75"
       sodipodi:rx="0.75"
       sodipodi:cy="12.75"
       sodipodi:cx="9.25"
       id="path7058"
       style="fill:#ffffff;fill-opacity:1;stroke:none"
       sodipodi:type="arc" />
    <path
       sodipodi:type="arc"
       style="fill:#ffffff;fill-opacity:1;stroke:none"
       id="path7060"
       sodipodi:cx="9.25"
       sodipodi:cy="12.75"
       sodipodi:rx="0.75"
       sodipodi:ry="0.75"
       d="m 10,12.75 a 0.75,0.75 0 1 1 -1.5,0 0.75,0.75 0 1 1 1.5,0 z"
       transform="matrix(1,0,0,-1,-15.00391,1057.4388)" />
    <path
       transform="matrix(1,0,0,-1,-20.496089,1060.3622)"
       d="m 10,12.75 a 0.75,0.75 0 1 1 -1.5,0 0.75,0.75 0 1 1 1.5,0 z"
       sodipodi:ry="0.75"
       sodipodi:rx="0.75"
       sodipodi:cy="12.75"
       sodipodi:cx="9.25"
       id="path7062"
       style="fill:#ffffff;fill-opacity:1;stroke:none"
       sodipodi:type="arc" />
    <path
       sodipodi:type="arc"
       style="fill:#ffffff;fill-opacity:1;stroke:none"
       id="path7064"
       sodipodi:cx="9.25"
       sodipodi:cy="12.75"
       sodipodi:rx="0.75"
       sodipodi:ry="0.75"
       d="m 10,12.75 a 0.75,0.75 0 1 1 -1.5,0 0.75,0.75 0 1 1 1.5,0 z"
       transform="matrix(1,0,0,-1,-17.749999,1060.3622)" />
    <path
       transform="matrix(1,0,0,-1,-15.00391,1060.3622)"
       d="m 10,12.75 a 0.75,0.75 0 1 1 -1.5,0 0.75,0.75 0 1 1 1.5,0 z"
       sodipodi:ry="0.75"
       sodipodi:rx="0.75"
       sodipodi:cy="12.75"
       sodipodi:cx="9.25"
       id="path7066"
       style="fill:#ffffff;fill-opacity:1;stroke:none"
       sodipodi:type="arc" />
    <path
       sodipodi:nodetypes="ssssssssssssssssss"
       inkscape:connector-curvature="0"
       id="path7167"
       d="m 8.0312498,1059.3622 c -0.568973,0 -1.03125,0.4623 -1.03125,1.0313 l 0,16.9375 c 0,0.569 0.462277,1.0312 1.03125,1.0312 l 8.9375002,0 C 17.537723,1078.3622 18,1077.9 18,1077.331 l 0,-16.9375 c 0,-0.569 -0.462277,-1.0313 -1.03125,-1.0313 z m 1.84375,2 5.2500002,0 c 0.487689,0 0.875,0.3874 0.875,0.875 l 0,4.125 c 0,0.4877 -0.512311,1 -1,1 l -5.0000002,0 c -0.4876885,0 -1,-0.5123 -1,-1 l 0,-4.125 c 0,-0.4876 0.3873115,-0.875 0.875,-0.875 z"
       style="fill:#000000;fill-opacity:1;stroke:none" />
    <path
       transform="matrix(1,0,0,-1,0.50390981,1082.8441)"
       d="m 10,12.75 a 0.75,0.75 0 1 1 -1.5,0 0.75,0.75 0 1 1 1.5,0 z"
       sodipodi:ry="0.75"
       sodipodi:rx="0.75"
       sodipodi:cy="12.75"
       sodipodi:cx="9.25"
       id="path7171"
       style="fill:#ffffff;fill-opacity:1;stroke:none"
       sodipodi:type="arc" />
    <path
       sodipodi:type="arc"
       style="fill:#ffffff;fill-opacity:1;stroke:none"
       id="path7173"
       sodipodi:cx="9.25"
       sodipodi:cy="12.75"
       sodipodi:rx="0.75"
       sodipodi:ry="0.75"
       d="m 10,12.75 a 0.75,0.75 0 1 1 -1.5,0 0.75,0.75 0 1 1 1.5,0 z"
       transform="matrix(1,0,0,-1,3.2499998,1082.8441)" />
    <path
       transform="matrix(1,0,0,-1,5.996089,1082.8441)"
       d="m 10,12.75 a 0.75,0.75 0 1 1 -1.5,0 0.75,0.75 0 1 1 1.5,0 z"
       sodipodi:ry="0.75"
       sodipodi:rx="0.75"
       sodipodi:cy="12.75"
       sodipodi:cx="9.25"
       id="path7175"
       style="fill:#ffffff;fill-opacity:1;stroke:none"
       sodipodi:type="arc" />
    <path
       sodipodi:type="arc"
       style="fill:#ffffff;fill-opacity:1;stroke:none"
       id="path7177"
       sodipodi:cx="9.25"
       sodipodi:cy="12.75"
       sodipodi:rx="0.75"
       sodipodi:ry="0.75"
       d="m 10,12.75 a 0.75,0.75 0 1 1 -1.5,0 0.75,0.75 0 1 1 1.5,0 z"
       transform="matrix(1,0,0,-1,0.50390981,1085.4388)" />
    <path
       transform="matrix(1,0,0,-1,3.2499998,1085.4388)"
       d="m 10,12.75 a 0.75,0.75 0 1 1 -1.5,0 0.75,0.75 0 1 1 1.5,0 z"
       sodipodi:ry="0.75"
       sodipodi:rx="0.75"
       sodipodi:cy="12.75"
       sodipodi:cx="9.25"
       id="path7179"
       style="fill:#ffffff;fill-opacity:1;stroke:none"
       sodipodi:type="arc" />
    <path
       sodipodi:type="arc"
       style="fill:#ffffff;fill-opacity:1;stroke:none"
       id="path7181"
       sodipodi:cx="9.25"
       sodipodi:cy="12.75"
       sodipodi:rx="0.75"
       sodipodi:ry="0.75"
       d="m 10,12.75 a 0.75,0.75 0 1 1 -1.5,0 0.75,0.75 0 1 1 1.5,0 z"
       transform="matrix(1,0,0,-1,5.996089,1085.4388)" />
    <path
       transform="matrix(1,0,0,-1,0.50390981,1088.3622)"
       d="m 10,12.75 a 0.75,0.75 0 1 1 -1.5,0 0.75,0.75 0 1 1 1.5,0 z"
       sodipodi:ry="0.75"
       sodipodi:rx="0.75"
       sodipodi:cy="12.75"
       sodipodi:cx="9.25"
       id="path7183"
       style="fill:#ffffff;fill-opacity:1;stroke:none"
       sodipodi:type="arc" />
    <path
       sodipodi:type="arc"
       style="fill:#ffffff;fill-opacity:1;stroke:none"
       id="path7185"
       sodipodi:cx="9.25"
       sodipodi:cy="12.75"
       sodipodi:rx="0.75"
       sodipodi:ry="0.75"
       d="m 10,12.75 a 0.75,0.75 0 1 1 -1.5,0 0.75,0.75 0 1 1 1.5,0 z"
       transform="matrix(1,0,0,-1,3.2499998,1088.3622)" />
    <path
       transform="matrix(1,0,0,-1,5.996089,1088.3622)"
       d="m 10,12.75 a 0.75,0.75 0 1 1 -1.5,0 0.75,0.75 0 1 1 1.5,0 z"
       sodipodi:ry="0.75"
       sodipodi:rx="0.75"
       sodipodi:cy="12.75"
       sodipodi:cx="9.25"
       id="path7187"
       style="fill:#ffffff;fill-opacity:1;stroke:none"
       sodipodi:type="arc" />
    <rect
       style="fill:#000000;fill-opacity:1;stroke:none"
       id="rect7191"
       width="2"
       height="2.9871616"
       x="8"
       y="1057.3622"
       ry="1" />
    <g
       id="g7364">
      <path
         transform="matrix(0.96120281,0,0,-0.95088414,15.469325,1083.1991)"
         d="m 10,12.75 a 0.75,0.75 0 1 1 -1.5,0 0.75,0.75 0 1 1 1.5,0 z"
         sodipodi:ry="0.75"
         sodipodi:rx="0.75"
         sodipodi:cy="12.75"
         sodipodi:cx="9.25"
         id="path7336"
         style="fill:#ffffff;fill-opacity:1;stroke:none"
         sodipodi:type="arc" />
      <path
         sodipodi:type="arc"
         style="fill:#ffffff;fill-opacity:1;stroke:none"
         id="path7338"
         sodipodi:cx="9.25"
         sodipodi:cy="12.75"
         sodipodi:rx="0.75"
         sodipodi:ry="0.75"
         d="m 10,12.75 a 0.75,0.75 0 1 1 -1.5,0 0.75,0.75 0 1 1 1.5,0 z"
         transform="matrix(0.96120281,0,0,-0.95088414,18.108874,1083.1991)" />
      <path
         transform="matrix(0.96120281,0,0,-0.95088414,20.748423,1083.1991)"
         d="m 10,12.75 a 0.75,0.75 0 1 1 -1.5,0 0.75,0.75 0 1 1 1.5,0 z"
         sodipodi:ry="0.75"
         sodipodi:rx="0.75"
         sodipodi:cy="12.75"
         sodipodi:cx="9.25"
         id="path7340"
         style="fill:#ffffff;fill-opacity:1;stroke:none"
         sodipodi:type="arc" />
    </g>
    <g
       id="g7354"
       transform="translate(0,0.15625)">
      <path
         sodipodi:type="arc"
         style="fill:#ffffff;fill-opacity:1;stroke:none"
         id="path7342"
         sodipodi:cx="9.25"
         sodipodi:cy="12.75"
         sodipodi:rx="0.75"
         sodipodi:ry="0.75"
         d="M 10,12.75 C 10,13.164214 9.6642136,13.5 9.25,13.5 8.8357864,13.5 8.5,13.164214 8.5,12.75 8.5,12.335786 8.8357864,12 9.25,12 9.6642136,12 10,12.335786 10,12.75 z"
         transform="matrix(0.96120281,0,0,-0.95088414,15.469325,1085.6664)" />
      <path
         transform="matrix(0.96120281,0,0,-0.95088414,18.108874,1085.6664)"
         d="M 10,12.75 C 10,13.164214 9.6642136,13.5 9.25,13.5 8.8357864,13.5 8.5,13.164214 8.5,12.75 8.5,12.335786 8.8357864,12 9.25,12 9.6642136,12 10,12.335786 10,12.75 z"
         sodipodi:ry="0.75"
         sodipodi:rx="0.75"
         sodipodi:cy="12.75"
         sodipodi:cx="9.25"
         id="path7344"
         style="fill:#ffffff;fill-opacity:1;stroke:none"
         sodipodi:type="arc" />
      <path
         sodipodi:type="arc"
         style="fill:#ffffff;fill-opacity:1;stroke:none"
         id="path7346"
         sodipodi:cx="9.25"
         sodipodi:cy="12.75"
         sodipodi:rx="0.75"
         sodipodi:ry="0.75"
         d="M 10,12.75 C 10,13.164214 9.6642136,13.5 9.25,13.5 8.8357864,13.5 8.5,13.164214 8.5,12.75 8.5,12.335786 8.8357864,12 9.25,12 9.6642136,12 10,12.335786 10,12.75 z"
         transform="matrix(0.96120281,0,0,-0.95088414,20.748423,1085.6664)" />
    </g>
    <g
       id="g7359">
      <path
         transform="matrix(0.96120281,0,0,-0.95088414,15.469325,1088.4462)"
         d="m 10,12.75 a 0.75,0.75 0 1 1 -1.5,0 0.75,0.75 0 1 1 1.5,0 z"
         sodipodi:ry="0.75"
         sodipodi:rx="0.75"
         sodipodi:cy="12.75"
         sodipodi:cx="9.25"
         id="path7348"
         style="fill:#ffffff;fill-opacity:1;stroke:none"
         sodipodi:type="arc" />
      <path
         sodipodi:type="arc"
         style="fill:#ffffff;fill-opacity:1;stroke:none"
         id="path7350"
         sodipodi:cx="9.25"
         sodipodi:cy="12.75"
         sodipodi:rx="0.75"
         sodipodi:ry="0.75"
         d="m 10,12.75 a 0.75,0.75 0 1 1 -1.5,0 0.75,0.75 0 1 1 1.5,0 z"
         transform="matrix(0.96120281,0,0,-0.95088414,18.108874,1088.4462)" />
      <path
         transform="matrix(0.96120281,0,0,-0.95088414,20.748423,1088.4462)"
         d="m 10,12.75 a 0.75,0.75 0 1 1 -1.5,0 0.75,0.75 0 1 1 1.5,0 z"
         sodipodi:ry="0.75"
         sodipodi:rx="0.75"
         sodipodi:cy="12.75"
         sodipodi:cx="9.25"
         id="path7352"
         style="fill:#ffffff;fill-opacity:1;stroke:none"
         sodipodi:type="arc" />
    </g>
    <rect
       style="fill:#ffffff;fill-opacity:1;stroke:none"
       id="rect7369"
       width="6"
       height="4.9999828"
       x="24"
       y="-1066.3622"
       ry="0.90910363"
       transform="scale(1,-1)" />
    <rect
       ry="1"
       y="1057.3622"
       x="23"
       height="2.9871616"
       width="2"
       id="rect7371"
       style="fill:#000000;fill-opacity:1;stroke:none" />
    <path
       style="fill:#000000;fill-opacity:1;stroke:none"
       d="M 44 31 C 41.23 31 39 33.23 39 36 L 39 40 L 49 40 L 49 36 C 49 33.23 46.77 31 44 31 z M 39 41 L 39 45 C 39 47.77 41.23 50 44 50 C 46.77 50 49 47.77 49 45 L 49 41 L 39 41 z "
       id="rect7377"
       transform="translate(0,1028.3622)" />
    <rect
       style="fill:#000000;fill-opacity:1;stroke:none"
       id="rect7384"
       width="1"
       height="5.5"
       x="40"
       y="1058.3622"
       ry="0.5" />
    <rect
       transform="scale(1,-1)"
       ry="0.90910363"
       y="-1067.3622"
       x="41"
       height="4.9999828"
       width="6"
       id="rect7386"
       style="fill:#ffffff;fill-opacity:1;stroke:none" />
    <g
       id="g7406"
       transform="translate(-0.13548977,0.4142062)">
      <path
         sodipodi:type="arc"
         style="fill:#ffffff;fill-opacity:1;stroke:none"
         id="path7419"
         sodipodi:cx="41"
         sodipodi:cy="43"
         sodipodi:rx="1"
         sodipodi:ry="1"
         d="m 42,43 a 1,1 0 1 1 -2,0 1,1 0 1 1 2,0 z"
         transform="translate(0.13548977,1027.948)" />
      <path
         transform="translate(3.1198648,1027.9793)"
         d="m 42,43 a 1,1 0 1 1 -2,0 1,1 0 1 1 2,0 z"
         sodipodi:ry="1"
         sodipodi:rx="1"
         sodipodi:cy="43"
         sodipodi:cx="41"
         id="path7421"
         style="fill:#ffffff;fill-opacity:1;stroke:none"
         sodipodi:type="arc" />
      <path
         sodipodi:type="arc"
         style="fill:#ffffff;fill-opacity:1;stroke:none"
         id="path7423"
         sodipodi:cx="41"
         sodipodi:cy="43"
         sodipodi:rx="1"
         sodipodi:ry="1"
         d="m 42,43 a 1,1 0 1 1 -2,0 1,1 0 1 1 2,0 z"
         transform="translate(6.1042398,1027.9949)" />
      <path
         transform="translate(0.13548977,1030.448)"
         d="m 42,43 a 1,1 0 1 1 -2,0 1,1 0 1 1 2,0 z"
         sodipodi:ry="1"
         sodipodi:rx="1"
         sodipodi:cy="43"
         sodipodi:cx="41"
         id="path7425"
         style="fill:#ffffff;fill-opacity:1;stroke:none"
         sodipodi:type="arc" />
      <path
         sodipodi:type="arc"
         style="fill:#ffffff;fill-opacity:1;stroke:none"
         id="path7427"
         sodipodi:cx="41"
         sodipodi:cy="43"
         sodipodi:rx="1"
         sodipodi:ry="1"
         d="m 42,43 a 1,1 0 1 1 -2,0 1,1 0 1 1 2,0 z"
         transform="translate(3.1198648,1030.4793)" />
      <path
         transform="translate(6.1042398,1030.4949)"
         d="m 42,43 a 1,1 0 1 1 -2,0 1,1 0 1 1 2,0 z"
         sodipodi:ry="1"
         sodipodi:rx="1"
         sodipodi:cy="43"
         sodipodi:cx="41"
         id="path7429"
         style="fill:#ffffff;fill-opacity:1;stroke:none"
         sodipodi:type="arc" />
      <path
         transform="translate(3.1419619,1032.9984)"
         d="m 42,43 a 1,1 0 1 1 -2,0 1,1 0 1 1 2,0 z"
         sodipodi:ry="1"
         sodipodi:rx="1"
         sodipodi:cy="43"
         sodipodi:cx="41"
         id="path7431"
         style="fill:#ffffff;fill-opacity:1;stroke:none"
         sodipodi:type="arc" />
      <path
         transform="translate(13.13549,1027.948)"
         d="m 42,43 a 1,1 0 1 1 -2,0 1,1 0 1 1 2,0 z"
         sodipodi:ry="1"
         sodipodi:rx="1"
         sodipodi:cy="43"
         sodipodi:cx="41"
         id="path7439"
         style="fill:#ffffff;fill-opacity:1;stroke:none"
         sodipodi:type="arc" />
      <path
         sodipodi:type="arc"
         style="fill:#ffffff;fill-opacity:1;stroke:none"
         id="path7441"
         sodipodi:cx="41"
         sodipodi:cy="43"
         sodipodi:rx="1"
         sodipodi:ry="1"
         d="m 42,43 a 1,1 0 1 1 -2,0 1,1 0 1 1 2,0 z"
         transform="translate(16.119865,1027.9793)" />
      <path
         transform="translate(19.10424,1027.9949)"
         d="m 42,43 a 1,1 0 1 1 -2,0 1,1 0 1 1 2,0 z"
         sodipodi:ry="1"
         sodipodi:rx="1"
         sodipodi:cy="43"
         sodipodi:cx="41"
         id="path7443"
         style="fill:#ffffff;fill-opacity:1;stroke:none"
         sodipodi:type="arc" />
      <path
         sodipodi:type="arc"
         style="fill:#ffffff;fill-opacity:1;stroke:none"
         id="path7445"
         sodipodi:cx="41"
         sodipodi:cy="43"
         sodipodi:rx="1"
         sodipodi:ry="1"
         d="m 42,43 a 1,1 0 1 1 -2,0 1,1 0 1 1 2,0 z"
         transform="translate(13.13549,1030.448)" />
      <path
         transform="translate(16.119865,1030.4793)"
         d="m 42,43 a 1,1 0 1 1 -2,0 1,1 0 1 1 2,0 z"
         sodipodi:ry="1"
         sodipodi:rx="1"
         sodipodi:cy="43"
         sodipodi:cx="41"
         id="path7447"
         style="fill:#ffffff;fill-opacity:1;stroke:none"
         sodipodi:type="arc" />
      <path
         sodipodi:type="arc"
         style="fill:#ffffff;fill-opacity:1;stroke:none"
         id="path7449"
         sodipodi:cx="41"
         sodipodi:cy="43"
         sodipodi:rx="1"
         sodipodi:ry="1"
         d="m 42,43 a 1,1 0 1 1 -2,0 1,1 0 1 1 2,0 z"
         transform="translate(19.10424,1030.4949)" />
      <path
         sodipodi:type="arc"
         style="fill:#ffffff;fill-opacity:1;stroke:none"
         id="path7451"
         sodipodi:cx="41"
         sodipodi:cy="43"
         sodipodi:rx="1"
         sodipodi:ry="1"
         d="m 42,43 a 1,1 0 1 1 -2,0 1,1 0 1 1 2,0 z"
         transform="translate(16.141962,1032.9984)" />
    </g>
    <path
       id="path7433"
       d="m 57,1059.3622 c -2.77,0 -5,2.23 -5,5 l 0,3 10,0 0,-3 c 0,-2.77 -2.23,-5 -5,-5 z m -5,9 0,5 c 0,2.77 2.23,5 5,5 2.77,0 5,-2.23 5,-5 0,-1.3333 0,-13.4931 0,-5 z"
       style="fill:#000000;fill-opacity:1;stroke:none"
       inkscape:connector-curvature="0"
       sodipodi:nodetypes="ssccsscssscc" />
    <rect
       ry="0.5"
       y="1058.3622"
       x="53"
       height="5.5"
       width="1"
       id="rect7435"
       style="fill:#000000;fill-opacity:1;stroke:none" />
    <rect
       style="fill:#ffffff;fill-opacity:1;stroke:none"
       id="rect7437"
       width="6"
       height="4.0000172"
       x="54"
       y="-1066.3622"
       ry="0.90910363"
       transform="scale(1,-1)" />
    <g
       id="g7453"
       transform="translate(30,-1.1733903)">
      <path
         sodipodi:type="arc"
         style="fill:#ffffff;fill-opacity:1;stroke:none"
         id="path7455"
         sodipodi:cx="9.25"
         sodipodi:cy="12.75"
         sodipodi:rx="0.75"
         sodipodi:ry="0.75"
         d="M 10,12.75 C 10,13.164214 9.6642136,13.5 9.25,13.5 8.8357864,13.5 8.5,13.164214 8.5,12.75 8.5,12.335786 8.8357864,12 9.25,12 9.6642136,12 10,12.335786 10,12.75 z"
         transform="matrix(0.96120281,0,0,-0.95088414,15.469325,1083.1991)" />
      <path
         transform="matrix(0.96120281,0,0,-0.95088414,18.108874,1083.1991)"
         d="M 10,12.75 C 10,13.164214 9.6642136,13.5 9.25,13.5 8.8357864,13.5 8.5,13.164214 8.5,12.75 8.5,12.335786 8.8357864,12 9.25,12 9.6642136,12 10,12.335786 10,12.75 z"
         sodipodi:ry="0.75"
         sodipodi:rx="0.75"
         sodipodi:cy="12.75"
         sodipodi:cx="9.25"
         id="path7457"
         style="fill:#ffffff;fill-opacity:1;stroke:none"
         sodipodi:type="arc" />
      <path
         sodipodi:type="arc"
         style="fill:#ffffff;fill-opacity:1;stroke:none"
         id="path7459"
         sodipodi:cx="9.25"
         sodipodi:cy="12.75"
         sodipodi:rx="0.75"
         sodipodi:ry="0.75"
         d="M 10,12.75 C 10,13.164214 9.6642136,13.5 9.25,13.5 8.8357864,13.5 8.5,13.164214 8.5,12.75 8.5,12.335786 8.8357864,12 9.25,12 9.6642136,12 10,12.335786 10,12.75 z"
         transform="matrix(0.96120281,0,0,-0.95088414,20.748423,1083.1991)" />
    </g>
    <g
       transform="translate(30,-1.0171403)"
       id="g7461">
      <path
         transform="matrix(0.96120281,0,0,-0.95088414,15.469325,1085.6664)"
         d="M 10,12.75 C 10,13.164214 9.6642136,13.5 9.25,13.5 8.8357864,13.5 8.5,13.164214 8.5,12.75 8.5,12.335786 8.8357864,12 9.25,12 9.6642136,12 10,12.335786 10,12.75 z"
         sodipodi:ry="0.75"
         sodipodi:rx="0.75"
         sodipodi:cy="12.75"
         sodipodi:cx="9.25"
         id="path7463"
         style="fill:#ffffff;fill-opacity:1;stroke:none"
         sodipodi:type="arc" />
      <path
         sodipodi:type="arc"
         style="fill:#ffffff;fill-opacity:1;stroke:none"
         id="path7465"
         sodipodi:cx="9.25"
         sodipodi:cy="12.75"
         sodipodi:rx="0.75"
         sodipodi:ry="0.75"
         d="M 10,12.75 C 10,13.164214 9.6642136,13.5 9.25,13.5 8.8357864,13.5 8.5,13.164214 8.5,12.75 8.5,12.335786 8.8357864,12 9.25,12 9.6642136,12 10,12.335786 10,12.75 z"
         transform="matrix(0.96120281,0,0,-0.95088414,18.108874,1085.6664)" />
      <path
         transform="matrix(0.96120281,0,0,-0.95088414,20.748423,1085.6664)"
         d="M 10,12.75 C 10,13.164214 9.6642136,13.5 9.25,13.5 8.8357864,13.5 8.5,13.164214 8.5,12.75 8.5,12.335786 8.8357864,12 9.25,12 9.6642136,12 10,12.335786 10,12.75 z"
         sodipodi:ry="0.75"
         sodipodi:rx="0.75"
         sodipodi:cy="12.75"
         sodipodi:cx="9.25"
         id="path7467"
         style="fill:#ffffff;fill-opacity:1;stroke:none"
         sodipodi:type="arc" />
    </g>
    <g
       id="g7469"
       transform="translate(30,-1.1733903)">
      <path
         sodipodi:type="arc"
         style="fill:#ffffff;fill-opacity:1;stroke:none"
         id="path7471"
         sodipodi:cx="9.25"
         sodipodi:cy="12.75"
         sodipodi:rx="0.75"
         sodipodi:ry="0.75"
         d="M 10,12.75 C 10,13.164214 9.6642136,13.5 9.25,13.5 8.8357864,13.5 8.5,13.164214 8.5,12.75 8.5,12.335786 8.8357864,12 9.25,12 9.6642136,12 10,12.335786 10,12.75 z"
         transform="matrix(0.96120281,0,0,-0.95088414,15.469325,1088.4462)" />
      <path
         transform="matrix(0.96120281,0,0,-0.95088414,18.108874,1088.4462)"
         d="M 10,12.75 C 10,13.164214 9.6642136,13.5 9.25,13.5 8.8357864,13.5 8.5,13.164214 8.5,12.75 8.5,12.335786 8.8357864,12 9.25,12 9.6642136,12 10,12.335786 10,12.75 z"
         sodipodi:ry="0.75"
         sodipodi:rx="0.75"
         sodipodi:cy="12.75"
         sodipodi:cx="9.25"
         id="path7473"
         style="fill:#ffffff;fill-opacity:1;stroke:none"
         sodipodi:type="arc" />
      <path
         sodipodi:type="arc"
         style="fill:#ffffff;fill-opacity:1;stroke:none"
         id="path7475"
         sodipodi:cx="9.25"
         sodipodi:cy="12.75"
         sodipodi:rx="0.75"
         sodipodi:ry="0.75"
         d="M 10,12.75 C 10,13.164214 9.6642136,13.5 9.25,13.5 8.8357864,13.5 8.5,13.164214 8.5,12.75 8.5,12.335786 8.8357864,12 9.25,12 9.6642136,12 10,12.335786 10,12.75 z"
         transform="matrix(0.96120281,0,0,-0.95088414,20.748423,1088.4462)" />
    </g>
    <rect
       style="color:#000000;fill:#ffffff;fill-opacity:1;fill-rule:nonzero;stroke:none;stroke-width:2;marker:none;visibility:visible;display:inline;overflow:visible;enable-background:accumulate"
       id="rect8145"
       width="2"
       height="2.0000174"
       x="8"
       y="1040.3608"
       ry="0.00018593912" />
    <rect
       ry="0.00018235292"
       y="1040.3994"
       x="11"
       height="1.9614432"
       width="2"
       id="rect8147"
       style="color:#000000;fill:#ffffff;fill-opacity:1;fill-rule:nonzero;stroke:none;stroke-width:2;marker:none;visibility:visible;display:inline;overflow:visible;enable-background:accumulate" />
    <rect
       style="color:#000000;fill:#ffffff;fill-opacity:1;fill-rule:nonzero;stroke:none;stroke-width:2;marker:none;visibility:visible;display:inline;overflow:visible;enable-background:accumulate"
       id="rect8149"
       width="2"
       height="1.9614432"
       x="14"
       y="1040.3994"
       ry="0.00018235292" />
    <rect
       ry="0.00018593912"
       y="1043.3608"
       x="8"
       height="2.0000174"
       width="2"
       id="rect8151"
       style="color:#000000;fill:#ffffff;fill-opacity:1;fill-rule:nonzero;stroke:none;stroke-width:2;marker:none;visibility:visible;display:inline;overflow:visible;enable-background:accumulate" />
    <rect
       style="color:#000000;fill:#ffffff;fill-opacity:1;fill-rule:nonzero;stroke:none;stroke-width:2;marker:none;visibility:visible;display:inline;overflow:visible;enable-background:accumulate"
       id="rect8153"
       width="2"
       height="1.9614432"
       x="11"
       y="1043.3994"
       ry="0.00018235292" />
    <rect
       ry="0.00018235292"
       y="1043.3994"
       x="14"
       height="1.9614432"
       width="2"
       id="rect8155"
       style="color:#000000;fill:#ffffff;fill-opacity:1;fill-rule:nonzero;stroke:none;stroke-width:2;marker:none;visibility:visible;display:inline;overflow:visible;enable-background:accumulate" />
    <rect
       style="color:#000000;fill:#ffffff;fill-opacity:1;fill-rule:nonzero;stroke:none;stroke-width:2;marker:none;visibility:visible;display:inline;overflow:visible;enable-background:accumulate"
       id="rect8157"
       width="2"
       height="2.0000174"
       x="8"
       y="1046.3608"
       ry="0.00018593912" />
    <rect
       ry="0.00018235292"
       y="1046.3994"
       x="11"
       height="1.9614432"
       width="2"
       id="rect8159"
       style="color:#000000;fill:#ffffff;fill-opacity:1;fill-rule:nonzero;stroke:none;stroke-width:2;marker:none;visibility:visible;display:inline;overflow:visible;enable-background:accumulate" />
    <rect
       style="color:#000000;fill:#ffffff;fill-opacity:1;fill-rule:nonzero;stroke:none;stroke-width:2;marker:none;visibility:visible;display:inline;overflow:visible;enable-background:accumulate"
       id="rect8161"
       width="2"
       height="1.9614432"
       x="14"
       y="1046.3994"
       ry="0.00018235292" />
  </g>
</svg>
