<?xml version="1.0" encoding="UTF-8" standalone="no"?>
<!-- Created with Inkscape (http://www.inkscape.org/) -->

<svg
   xmlns:dc="http://purl.org/dc/elements/1.1/"
   xmlns:cc="http://creativecommons.org/ns#"
   xmlns:rdf="http://www.w3.org/1999/02/22-rdf-syntax-ns#"
   xmlns:svg="http://www.w3.org/2000/svg"
   xmlns="http://www.w3.org/2000/svg"
   version="1.1"
   width="12"
   height="12"
   id="svg4764">
  <defs
     id="defs4766" />
  <metadata
     id="metadata4769">
    <rdf:RDF>
      <cc:Work
         rdf:about="">
        <dc:format>image/svg+xml</dc:format>
        <dc:type
           rdf:resource="http://purl.org/dc/dcmitype/StillImage" />
        <dc:title></dc:title>
      </cc:Work>
    </rdf:RDF>
  </metadata>
  <path
     d="m 5,1 0,1 -1,0 0,8 5.03125,0 0,-8 L 6,2 6,1 5,1 z M 5,3 8,3 8,5 5,5 5,3 z M 5,6 6,6 6,7 5,7 5,6 z M 7,6 8,6 8,7 7,7 7,6 z M 5,8 6,8 6,9 5,9 5,8 z M 7,8 8,8 8,9 7,9 7,8 z"
     id="path13402"
     style="opacity:0.3;fill:none;stroke:#ffffff;stroke-width:2;stroke-linecap:round;stroke-linejoin:round;stroke-miterlimit:4;stroke-opacity:1;stroke-dasharray:none" />
  <path
     d="m 5,1 0,1 -1,0 0,8 5.03125,0 0,-8 L 6,2 6,1 5,1 z M 5,3 8,3 8,5 5,5 5,3 z M 5,6 6,6 6,7 5,7 5,6 z M 7,6 8,6 8,7 7,7 7,6 z M 5,8 6,8 6,9 5,9 5,8 z M 7,8 8,8 8,9 7,9 7,8 z"
     id="rect7768"
     style="fill:#444444;fill-opacity:1;stroke:none" />
  <rect
     width="12"
     height="12"
     x="0"
     y="0"
     id="canvas"
     style="fill:none;stroke:none;visibility:hidden" />
</svg>
