<?xml version="1.0" encoding="UTF-8" standalone="no"?>
<!-- Created with Inkscape (http://www.inkscape.org/) -->

<svg
   xmlns:dc="http://purl.org/dc/elements/1.1/"
   xmlns:cc="http://creativecommons.org/ns#"
   xmlns:rdf="http://www.w3.org/1999/02/22-rdf-syntax-ns#"
   xmlns:svg="http://www.w3.org/2000/svg"
   xmlns="http://www.w3.org/2000/svg"
   xmlns:sodipodi="http://sodipodi.sourceforge.net/DTD/sodipodi-0.dtd"
   xmlns:inkscape="http://www.inkscape.org/namespaces/inkscape"
   width="18"
   height="18"
   id="svg4619"
   version="1.1"
   inkscape:version="0.48.2 r9819"
   sodipodi:docname="maki-18-base.svg">
  <defs
     id="defs4621" />
  <sodipodi:namedview
     id="base"
     pagecolor="#ffffff"
     bordercolor="#666666"
     borderopacity="1.0"
     inkscape:pageopacity="0.0"
     inkscape:pageshadow="2"
     inkscape:zoom="32"
     inkscape:cx="4.4210175"
     inkscape:cy="11.293556"
     inkscape:document-units="px"
     inkscape:current-layer="layer1"
     showgrid="true"
     showguides="true"
     inkscape:guide-bbox="true"
     inkscape:window-width="1440"
     inkscape:window-height="825"
     inkscape:window-x="0"
     inkscape:window-y="0"
     inkscape:window-maximized="1">
    <inkscape:grid
       type="xygrid"
       id="grid4627"
       empspacing="2"
       visible="true"
       enabled="true"
       snapvisiblegridlinesonly="true"
       spacingx="0.5px"
       spacingy="0.5px"
       color="#ff00ff"
       opacity="0.1254902" />
    <sodipodi:guide
       orientation="0,1"
       position="7,18"
       id="guide4659" />
    <sodipodi:guide
       orientation="1,0"
       position="18,9"
       id="guide4661" />
    <sodipodi:guide
       orientation="0,1"
       position="16,17"
       id="guide4663" />
    <sodipodi:guide
       orientation="1,0"
       position="17,14"
       id="guide4665" />
    <sodipodi:guide
       orientation="1,0"
       position="0,16"
       id="guide4667" />
    <sodipodi:guide
       orientation="0,1"
       position="8,0"
       id="guide4669" />
    <sodipodi:guide
       orientation="1,0"
       position="2,10"
       id="guide4671" />
    <sodipodi:guide
       orientation="0,1"
       position="12,2"
       id="guide4673" />
  </sodipodi:namedview>
  <metadata
     id="metadata4624">
    <rdf:RDF>
      <cc:Work
         rdf:about="">
        <dc:format>image/svg+xml</dc:format>
        <dc:type
           rdf:resource="http://purl.org/dc/dcmitype/StillImage" />
        <dc:title></dc:title>
      </cc:Work>
    </rdf:RDF>
  </metadata>
  <g
     inkscape:label="Layer 1"
     inkscape:groupmode="layer"
     id="layer1"
     transform="translate(0,-1034.3622)">
    <path
       style="fill:#000000;fill-opacity:1;stroke:none"
       d="m 6,1015.3622 c -0.4445049,0 -1,0.598 -1,1 l 0,11 c 0,0.4019 0.5554951,1 1,1 l 6,0 c 0.444504,0 1,-0.5981 1,-1 l 0,-11 c 0,-0.402 -0.555496,-1 -1,-1 z"
       id="rect6639"
       inkscape:connector-curvature="0"
       sodipodi:nodetypes="sssssssss" />
    <rect
       style="fill:#000000;fill-opacity:1;stroke:none"
       id="rect7921"
       width="1"
       height="2.5"
       x="6"
       y="1013.362"
       ry="0.5" />
    <rect
       style="fill:#ffffff;fill-opacity:1;stroke:none"
       id="rect7923"
       width="4"
       height="3"
       x="7"
       y="1017.362"
       ry="0" />
    <g
       id="g7969"
       transform="translate(0,-22.000083)">
      <rect
         ry="0.37501305"
         transform="scale(1,-1)"
         y="-1044.8622"
         x="6.0090609"
         height="1.5000522"
         width="1.5"
         id="rect7925"
         style="fill:#ffffff;fill-opacity:1;stroke:none" />
      <rect
         style="fill:#ffffff;fill-opacity:1;stroke:none"
         id="rect7943"
         width="1.5"
         height="1.5000522"
         x="10.5"
         y="-1044.8622"
         transform="scale(1,-1)"
         ry="0.37501305" />
      <rect
         style="fill:#ffffff;fill-opacity:1;stroke:none"
         id="rect7945"
         width="1.5"
         height="1.5000522"
         x="8.25453"
         y="-1044.8622"
         transform="scale(1,-1)"
         ry="0.37501305" />
    </g>
    <g
       id="g7964"
       transform="translate(0,-22.250084)">
      <rect
         style="fill:#ffffff;fill-opacity:1;stroke:none"
         id="rect7947"
         width="1.5"
         height="1.5000522"
         x="6.0090609"
         y="-1047.3622"
         transform="scale(1,-1)"
         ry="0.37501305" />
      <rect
         ry="0.37501305"
         transform="scale(1,-1)"
         y="-1047.3622"
         x="10.5"
         height="1.5000522"
         width="1.5"
         id="rect7949"
         style="fill:#ffffff;fill-opacity:1;stroke:none" />
      <rect
         ry="0.37501305"
         transform="scale(1,-1)"
         y="-1047.3622"
         x="8.25453"
         height="1.5000522"
         width="1.5"
         id="rect7951"
         style="fill:#ffffff;fill-opacity:1;stroke:none" />
    </g>
    <g
       id="g7959"
       transform="translate(0,-22.000083)">
      <rect
         ry="0.37501305"
         transform="scale(1,-1)"
         y="-1049.3622"
         x="6.0090609"
         height="1.5000522"
         width="1.5"
         id="rect7953"
         style="fill:#ffffff;fill-opacity:1;stroke:none" />
      <rect
         style="fill:#ffffff;fill-opacity:1;stroke:none"
         id="rect7955"
         width="1.5"
         height="1.5000522"
         x="10.5"
         y="-1049.3622"
         transform="scale(1,-1)"
         ry="0.37501305" />
      <rect
         style="fill:#ffffff;fill-opacity:1;stroke:none"
         id="rect7957"
         width="1.5"
         height="1.5000522"
         x="8.25453"
         y="-1049.3622"
         transform="scale(1,-1)"
         ry="0.37501305" />
    </g>
    <path
       sodipodi:nodetypes="sssssssss"
       inkscape:connector-curvature="0"
       id="path7974"
       d="m 7,1037.3622 c -0.444505,0 -1,0.598 -1,1 l 0,11 c 0,0.4019 0.555495,1 1,1 l 6,0 c 0.444504,0 1,-0.5981 1,-1 l 0,-11 c 0,-0.402 -0.555496,-1 -1,-1 z"
       style="fill:#000000;fill-opacity:1;stroke:none" />
    <rect
       ry="0.5"
       y="1035.3622"
       x="7"
       height="2.5"
       width="1"
       id="rect7976"
       style="fill:#000000;fill-opacity:1;stroke:none" />
    <rect
       ry="0"
       y="1038.3622"
       x="7"
       height="4.0000172"
       width="6"
       id="rect7978"
       style="fill:#ffffff;fill-opacity:1;stroke:none" />
    <g
       id="g7980"
       transform="translate(1,3.4765626e-5)">
      <rect
         style="fill:#ffffff;fill-opacity:1;stroke:none"
         id="rect7982"
         width="1.5"
         height="1.5000522"
         x="6.0090609"
         y="-1044.8622"
         transform="scale(1,-1)"
         ry="0.37501305" />
      <rect
         ry="0.37501305"
         transform="scale(1,-1)"
         y="-1044.8622"
         x="10.5"
         height="1.5000522"
         width="1.5"
         id="rect7984"
         style="fill:#ffffff;fill-opacity:1;stroke:none" />
      <rect
         ry="0.37501305"
         transform="scale(1,-1)"
         y="-1044.8622"
         x="8.25453"
         height="1.5000522"
         width="1.5"
         id="rect7986"
         style="fill:#ffffff;fill-opacity:1;stroke:none" />
    </g>
    <g
       transform="translate(1,-0.24996572)"
       id="g7988">
      <rect
         ry="0.37501305"
         transform="scale(1,-1)"
         y="-1047.3622"
         x="6.0090609"
         height="1.5000522"
         width="1.5"
         id="rect7990"
         style="fill:#ffffff;fill-opacity:1;stroke:none" />
      <rect
         style="fill:#ffffff;fill-opacity:1;stroke:none"
         id="rect7992"
         width="1.5"
         height="1.5000522"
         x="10.5"
         y="-1047.3622"
         transform="scale(1,-1)"
         ry="0.37501305" />
      <rect
         style="fill:#ffffff;fill-opacity:1;stroke:none"
         id="rect7994"
         width="1.5"
         height="1.5000522"
         x="8.25453"
         y="-1047.3622"
         transform="scale(1,-1)"
         ry="0.37501305" />
    </g>
    <g
       id="g7996"
       transform="translate(1,3.4765626e-5)">
      <rect
         style="fill:#ffffff;fill-opacity:1;stroke:none"
         id="rect7998"
         width="1.5"
         height="1.5000522"
         x="6.0090609"
         y="-1049.3622"
         transform="scale(1,-1)"
         ry="0.37501305" />
      <rect
         ry="0.37501305"
         transform="scale(1,-1)"
         y="-1049.3622"
         x="10.5"
         height="1.5000522"
         width="1.5"
         id="rect8000"
         style="fill:#ffffff;fill-opacity:1;stroke:none" />
      <rect
         ry="0.37501305"
         transform="scale(1,-1)"
         y="-1049.3622"
         x="8.25453"
         height="1.5000522"
         width="1.5"
         id="rect8002"
         style="fill:#ffffff;fill-opacity:1;stroke:none" />
    </g>
  </g>
</svg>
