<?xml version="1.0" encoding="UTF-8" standalone="no"?>
<!-- Created with Inkscape (http://www.inkscape.org/) -->

<svg
   xmlns:dc="http://purl.org/dc/elements/1.1/"
   xmlns:cc="http://creativecommons.org/ns#"
   xmlns:rdf="http://www.w3.org/1999/02/22-rdf-syntax-ns#"
   xmlns:svg="http://www.w3.org/2000/svg"
   xmlns="http://www.w3.org/2000/svg"
   xmlns:sodipodi="http://sodipodi.sourceforge.net/DTD/sodipodi-0.dtd"
   xmlns:inkscape="http://www.inkscape.org/namespaces/inkscape"
   width="18"
   height="18"
   id="svg4619"
   version="1.1"
   inkscape:version="0.48.3.1 r9886"
   sodipodi:docname="mobile-phone-18.svg">
  <defs
     id="defs4621" />
  <sodipodi:namedview
     id="base"
     pagecolor="#ffffff"
     bordercolor="#666666"
     borderopacity="1.0"
     inkscape:pageopacity="0.0"
     inkscape:pageshadow="2"
     inkscape:zoom="22.627417"
     inkscape:cx="-2.6270062"
     inkscape:cy="5.5343699"
     inkscape:document-units="px"
     inkscape:current-layer="g3824"
     showgrid="true"
     showguides="true"
     inkscape:guide-bbox="true"
     inkscape:window-width="1366"
     inkscape:window-height="744"
     inkscape:window-x="0"
     inkscape:window-y="24"
     inkscape:window-maximized="1">
    <inkscape:grid
       type="xygrid"
       id="grid4627"
       empspacing="5"
       visible="true"
       enabled="true"
       snapvisiblegridlinesonly="true" />
    <sodipodi:guide
       orientation="0,1"
       position="7,18"
       id="guide4659" />
    <sodipodi:guide
       orientation="1,0"
       position="18,9"
       id="guide4661" />
    <sodipodi:guide
       orientation="0,1"
       position="16,17"
       id="guide4663" />
    <sodipodi:guide
       orientation="1,0"
       position="17,14"
       id="guide4665" />
    <sodipodi:guide
       orientation="1,0"
       position="0,16"
       id="guide4667" />
    <sodipodi:guide
       orientation="0,1"
       position="8,0"
       id="guide4669" />
    <sodipodi:guide
       orientation="1,0"
       position="2,10"
       id="guide4671" />
    <sodipodi:guide
       orientation="0,1"
       position="12,2"
       id="guide4673" />
  </sodipodi:namedview>
  <metadata
     id="metadata4624">
    <rdf:RDF>
      <cc:Work
         rdf:about="">
        <dc:format>image/svg+xml</dc:format>
        <dc:type
           rdf:resource="http://purl.org/dc/dcmitype/StillImage" />
        <dc:title />
      </cc:Work>
    </rdf:RDF>
  </metadata>
  <g
     inkscape:label="Layer 1"
     inkscape:groupmode="layer"
     id="layer1"
     transform="translate(0,-1034.3622)">
    <g
       id="g3824">
      <g
         id="g3015">
        <rect
           style="opacity:0.3;fill:none;stroke:none"
           id="rect3806"
           width="18"
           height="18"
           x="0"
           y="1034.3622" />
        <g
           id="g3007">
          <g
             id="g2999">
            <rect
               ry="2.7755572e-17"
               rx="2.7755576e-17"
               y="1034.3622"
               x="10"
               height="2.0000174"
               width="3"
               id="rect3024"
               style="opacity:0.3;fill:#ffffff;fill-opacity:1;stroke:none" />
            <rect
               ry="1.0000174"
               rx="1.0000174"
               y="1036.3622"
               x="5"
               height="16"
               width="9"
               id="rect3026"
               style="opacity:0.3;fill:#ffffff;fill-opacity:1;stroke:none" />
          </g>
          <g
             id="g3003">
            <rect
               style="fill:#444444;fill-opacity:1;stroke:none"
               id="rect3536-4"
               width="1"
               height="3.0000174"
               x="11"
               y="1035.3622"
               rx="2.7755576e-17"
               ry="2.7755576e-17" />
            <path
               id="rect3808"
               transform="translate(0,1034.3622)"
               d="M 6.5 3 C 6.223 3 6 3.223 6 3.5 L 6 16.5 C 6 16.777 6.223 17 6.5 17 L 12.5 17 C 12.777 17 13 16.777 13 16.5 L 13 3.5 C 13 3.223 12.777 3 12.5 3 L 6.5 3 z M 7.3125 4 L 11.6875 4 C 11.8537 4 12 4.1463 12 4.3125 L 12 9.6875 C 12 9.8537 11.8537 10 11.6875 10 L 7.3125 10 C 7.1463 10 7 9.8537 7 9.6875 L 7 4.3125 C 7 4.1463 7.1463 4 7.3125 4 z M 7 11 L 8 11 L 8 12 L 7 12 L 7 11 z M 9 11 L 10 11 L 10 12 L 9 12 L 9 11 z M 11 11 L 12 11 L 12 12 L 11 12 L 11 11 z M 7 13 L 8 13 L 8 14 L 7 14 L 7 13 z M 9 13 L 10 13 L 10 14 L 9 14 L 9 13 z M 11 13 L 12 13 L 12 14 L 11 14 L 11 13 z M 7 15 L 8 15 L 8 16 L 7 16 L 7 15 z M 9 15 L 10 15 L 10 16 L 9 16 L 9 15 z M 11 15 L 12 15 L 12 16 L 11 16 L 11 15 z "
               style="fill:#444444;fill-opacity:1;stroke:none" />
          </g>
        </g>
      </g>
    </g>
  </g>
</svg>
