<?xml version="1.0" encoding="UTF-8" standalone="no"?>
<!-- Created with Inkscape (http://www.inkscape.org/) -->

<svg
   xmlns:dc="http://purl.org/dc/elements/1.1/"
   xmlns:cc="http://creativecommons.org/ns#"
   xmlns:rdf="http://www.w3.org/1999/02/22-rdf-syntax-ns#"
   xmlns:svg="http://www.w3.org/2000/svg"
   xmlns="http://www.w3.org/2000/svg"
   xmlns:inkscape="http://www.inkscape.org/namespaces/inkscape"
   version="1.1"
   width="18"
   height="18"
   id="svg4619">
  <defs
     id="defs4621" />
  <metadata
     id="metadata4624">
    <rdf:RDF>
      <cc:Work
         rdf:about="">
        <dc:format>image/svg+xml</dc:format>
        <dc:type
           rdf:resource="http://purl.org/dc/dcmitype/StillImage" />
        <dc:title />
      </cc:Work>
    </rdf:RDF>
  </metadata>
  <g
     transform="translate(0,-1034.3622)"
     id="layer1">
    <path
       d="M 6,1 6,3 C 5.499932,3 5,3.598 5,4 l 0,11 c 0,0.4019 0.499932,1 1,1 l 7,0 c 0.500067,0 1,-0.5981 1,-1 L 14,4 C 14,3.598 13.500067,3 13,3 L 8,3 8,1 6,1 z"
       inkscape:connector-curvature="0"
       transform="translate(0,1034.3622)"
       id="path8686"
       style="opacity:0.3;color:#000000;fill:#ffffff;fill-opacity:1;fill-rule:nonzero;stroke:#ffffff;stroke-width:2;stroke-linecap:butt;stroke-linejoin:round;stroke-miterlimit:4;stroke-opacity:1;stroke-dasharray:none;stroke-dashoffset:0;marker:none;visibility:visible;display:inline;overflow:visible;enable-background:accumulate" />
    <path
       d="m 6,1037.3622 c -0.500068,0 -1,0.5981 -1,1.0001 l 0,11 c 0,0.4019 0.499932,0.9999 1,0.9999 l 7,0 c 0.500067,0 1,-0.598 1,-0.9999 l 0,-11 c 0,-0.402 -0.499933,-1.0001 -1,-1.0001 z"
       inkscape:connector-curvature="0"
       id="rect6639"
       style="fill:#444444;fill-opacity:1;stroke:none" />
    <rect
       width="2"
       height="3.0001395"
       ry="0.00013945313"
       x="6"
       y="1035.3621"
       id="rect7921"
       style="fill:#444444;fill-opacity:1;stroke:none" />
    <rect
       width="5"
       height="3.0001523"
       x="7"
       y="1039.3621"
       id="rect7923"
       style="fill:#ffffff;fill-opacity:1;stroke:none" />
    <rect
       width="2"
       height="2.0000522"
       ry="0"
       x="7"
       y="-1048.3622"
       transform="scale(1,-1)"
       id="rect8121"
       style="fill:#ffffff;fill-opacity:1;stroke:none" />
    <rect
       width="2"
       height="2.0000522"
       ry="0"
       x="10"
       y="-1048.3622"
       transform="scale(1,-1)"
       id="rect8129"
       style="fill:#ffffff;fill-opacity:1;stroke:none" />
    <rect
       width="2"
       height="1.9718878"
       ry="0"
       x="7"
       y="-1045.3622"
       transform="scale(1,-1)"
       id="rect8131"
       style="fill:#ffffff;fill-opacity:1;stroke:none" />
    <rect
       width="2"
       height="1.9718878"
       ry="0"
       x="10"
       y="-1045.3622"
       transform="scale(1,-1)"
       id="rect8133"
       style="fill:#ffffff;fill-opacity:1;stroke:none" />
  </g>
  <rect
     width="18"
     height="18"
     x="0"
     y="0"
     id="canvas"
     style="fill:none;stroke:none;visibility:hidden" />
</svg>
