<?xml version="1.0" encoding="UTF-8" standalone="no"?>
<svg width="12px" height="12px" viewBox="0 0 12 12" version="1.1" xmlns="http://www.w3.org/2000/svg" xmlns:xlink="http://www.w3.org/1999/xlink" xmlns:sketch="http://www.bohemiancoding.com/sketch/ns">
    <!-- Generator: Sketch 3.2.2 (9983) - http://www.bohemiancoding.com/sketch -->
    <title>motor-bike-trail-white-12</title>
    <desc>Created with Sketch.</desc>
    <defs></defs>
    <g id="Page-1" stroke="none" stroke-width="1" fill="none" fill-rule="evenodd" sketch:type="MSPage">
        <path d="M7.42117647,9.59196143 C7.30117647,9.71269421 7.13882353,9.81212121 6.95529412,9.81212121 L6.95529412,7.34775207 L8.64941176,6.97134986 L9.07294118,7.69574656 L7.42117647,9.59196143" id="Fill-296" opacity="0.5" fill="#0A0B09" sketch:type="MSShapeGroup"></path>
        <path d="M5.52941176,4.13057851 L5.07764706,4.13057851 L3.72941176,6.0552011 C3.68,6.14752617 3.64470588,6.26115702 3.64470588,6.36768595 C3.64470588,6.5807438 3.75764706,6.77249587 3.91294118,6.87902479 L5.52941176,7.88749862 L5.52941176,9.59196143 C5.52941176,9.833427 5.91058824,10.032281 6.15058824,10.032281 C6.39058824,10.032281 6.23529412,9.833427 6.23529412,9.59196143 L6.23529412,7.46138292 C6.23529412,7.46138292 6.64470588,7.12049036 6.25647059,6.93584022 L5.13411765,6.33927824 L5.95294118,5.08223691 L6.39058824,5.77112397 C6.47529412,5.90606061 6.59529412,5.96287603 6.70117647,5.96287603 L7.81647059,5.9557741 C8.26823529,5.9557741 8.26823529,5.35921212 7.81647059,5.36631405 L6.91294118,5.36631405 L6.23529412,4.84077135 L5.52941176,4.84077135 L5.52941176,4.13057851" id="Fill-297" opacity="0.5" fill="#0A0B09" sketch:type="MSShapeGroup"></path>
        <path d="M11.1764706,6.26115702 L10.9647059,6.84351515 L10.8658824,6.94294215 L11.1764706,6.97134986 C10.9858824,6.89322865 10.5129412,6.80090358 10.2941176,6.80090358 C10.1458824,6.80090358 9.96235294,6.80090358 9.75058824,6.97134986 L9.55294118,6.63755923 C9.8,6.55943802 9.99764706,6.49552066 10.2094118,6.49552066 C10.5411765,6.49552066 10.9576471,6.0552011 11.1764706,6.26115702" id="Fill-298" opacity="0.5" fill="#0A0B09" sketch:type="MSShapeGroup"></path>
        <path d="M3.45411765,7.07077686 L5.33882353,8.12186226 L5.34588235,8.54087603 L3.18588235,7.34775207 C3.03058824,7.26252893 2.81882353,7.21991736 2.67058824,7.21991736 C2.45176471,7.21991736 2.32470588,7.26963085 2.13411765,7.35485399 L2.09882353,7.35485399 L2,7.255427 L2.02823529,7.19150964 C2.24705882,6.98555372 2.47294118,6.91453444 2.80470588,6.91453444 C2.97411765,6.91453444 3.18588235,6.93584022 3.45411765,7.07077686" id="Fill-299" opacity="0.5" fill="#0A0B09" sketch:type="MSShapeGroup"></path>
        <path d="M9.92,7.95851791 L9.13647059,6.38188981 C9.03764706,6.19723967 8.83294118,6.06940496 8.60705882,6.06940496 L8.09882353,6.06940496 C8,6.06940496 7.91529412,6.14752617 7.91529412,6.2540551 C7.91529412,6.35348209 8,6.43160331 8.09882353,6.43160331 L8.60705882,6.43160331 C8.69176471,6.43160331 8.79058824,6.48841873 8.82588235,6.57364187 L9.56,8.07925069 L9.92,7.95851791" id="Fill-300" opacity="0.5" fill="#0A0B09" sketch:type="MSShapeGroup"></path>
        <path d="M2.70588235,8.39173554 L4.11764706,8.39173554 L4.11764706,9.10192837 L2.70588235,9.10192837 L2.70588235,8.39173554 Z" id="Fill-301" opacity="0.5" fill="#0A0B09" sketch:type="MSShapeGroup"></path>
        <path d="M4.11764706,9.10192837 L4.82352941,9.10192837 L4.82352941,10.522314 L4.11764706,10.522314 L4.11764706,9.10192837 Z" id="Fill-302" opacity="0.5" fill="#0A0B09" sketch:type="MSShapeGroup"></path>
        <path d="M2.70588235,10.522314 L4.11764706,10.522314 L4.11764706,11.2325069 L2.70588235,11.2325069 L2.70588235,10.522314 Z" id="Fill-303" opacity="0.5" fill="#0A0B09" sketch:type="MSShapeGroup"></path>
        <path d="M2,9.10192837 L2.70588235,9.10192837 L2.70588235,10.522314 L2,10.522314 L2,9.10192837 Z" id="Fill-304" opacity="0.5" fill="#0A0B09" sketch:type="MSShapeGroup"></path>
        <path d="M9.76470588,8.39173554 L11.1764706,8.39173554 L11.1764706,9.10192837 L9.76470588,9.10192837 L9.76470588,8.39173554 Z" id="Fill-305" opacity="0.5" fill="#0A0B09" sketch:type="MSShapeGroup"></path>
        <path d="M11.1764706,9.10192837 L11.8823529,9.10192837 L11.8823529,10.522314 L11.1764706,10.522314 L11.1764706,9.10192837 Z" id="Fill-306" opacity="0.5" fill="#0A0B09" sketch:type="MSShapeGroup"></path>
        <path d="M9.76470588,10.522314 L11.1764706,10.522314 L11.1764706,11.2325069 L9.76470588,11.2325069 L9.76470588,10.522314 Z" id="Fill-307" opacity="0.5" fill="#0A0B09" sketch:type="MSShapeGroup"></path>
        <path d="M9.05882353,9.10192837 L9.76470588,9.10192837 L9.76470588,10.522314 L9.05882353,10.522314 L9.05882353,9.10192837 Z" id="Fill-308" opacity="0.5" fill="#0A0B09" sketch:type="MSShapeGroup"></path>
        <path d="M2.70588235,10.522314 L4.11764706,10.522314 L4.11764706,9.10192837 L2.70588235,9.10192837 L2.70588235,10.522314 Z M4.82352941,9.81212121 C4.82352941,10.6004353 4.18823529,11.2325069 3.41176471,11.2325069 C2.63529412,11.2325069 2,10.6004353 2,9.81212121 C2,9.03090909 2.63529412,8.39173554 3.41176471,8.39173554 C4.18823529,8.39173554 4.82352941,9.03090909 4.82352941,9.81212121 L4.82352941,9.81212121 Z" id="Fill-309" opacity="0.5" fill="#0A0B09" sketch:type="MSShapeGroup"></path>
        <path d="M9.76470588,10.522314 L11.1764706,10.522314 L11.1764706,9.10192837 L9.76470588,9.10192837 L9.76470588,10.522314 Z M11.8823529,9.81212121 C11.8823529,10.6004353 11.2470588,11.2325069 10.4705882,11.2325069 C9.69411765,11.2325069 9.05882353,10.6004353 9.05882353,9.81212121 C9.05882353,9.03090909 9.69411765,8.39173554 10.4705882,8.39173554 C11.2470588,8.39173554 11.8823529,9.03090909 11.8823529,9.81212121 L11.8823529,9.81212121 Z" id="Fill-310" opacity="0.5" fill="#0A0B09" sketch:type="MSShapeGroup"></path>
        <path d="M6.72941176,4.13057851 L6.44705882,4.13057851 C5.93882353,4.13057851 5.52941176,3.71866667 5.52941176,3.20732782 L5.52941176,2.92325069 C5.52941176,2.41191185 5.93882353,2 6.44705882,2 L6.72941176,2 C7.23764706,2 7.64705882,2.41191185 7.64705882,2.92325069 L7.64705882,3.20732782 C7.64705882,3.71866667 7.23764706,4.13057851 6.72941176,4.13057851" id="Fill-311" opacity="0.5" fill="#0A0B09" sketch:type="MSShapeGroup"></path>
        <path d="M6.42117647,8.59196143 C6.30117647,8.71269421 6.13882353,8.81212121 5.95529412,8.81212121 L5.95529412,6.34775207 L7.64941176,5.97134986 L8.07294118,6.69574656 L6.42117647,8.59196143" id="Fill-296" opacity="0.75" fill="#0A0B09" sketch:type="MSShapeGroup"></path>
        <path d="M4.52941176,3.13057851 L4.07764706,3.13057851 L2.72941176,5.0552011 C2.68,5.14752617 2.64470588,5.26115702 2.64470588,5.36768595 C2.64470588,5.5807438 2.75764706,5.77249587 2.91294118,5.87902479 L4.52941176,6.88749862 L4.52941176,8.59196143 C4.52941176,8.833427 4.91058824,9.03228099 5.15058824,9.03228099 C5.39058824,9.03228099 5.23529412,8.833427 5.23529412,8.59196143 L5.23529412,6.46138292 C5.23529412,6.46138292 5.64470588,6.12049036 5.25647059,5.93584022 L4.13411765,5.33927824 L4.95294118,4.08223691 L5.39058824,4.77112397 C5.47529412,4.90606061 5.59529412,4.96287603 5.70117647,4.96287603 L6.81647059,4.9557741 C7.26823529,4.9557741 7.26823529,4.35921212 6.81647059,4.36631405 L5.91294118,4.36631405 L5.23529412,3.84077135 L4.52941176,3.84077135 L4.52941176,3.13057851" id="Fill-297" opacity="0.75" fill="#0A0B09" sketch:type="MSShapeGroup"></path>
        <path d="M10.1764706,5.26115702 L9.96470588,5.84351515 L9.86588235,5.94294215 L10.1764706,5.97134986 C9.98588235,5.89322865 9.51294118,5.80090358 9.29411765,5.80090358 C9.14588235,5.80090358 8.96235294,5.80090358 8.75058824,5.97134986 L8.55294118,5.63755923 C8.8,5.55943802 8.99764706,5.49552066 9.20941176,5.49552066 C9.54117647,5.49552066 9.95764706,5.0552011 10.1764706,5.26115702" id="Fill-298" opacity="0.75" fill="#0A0B09" sketch:type="MSShapeGroup"></path>
        <path d="M2.45411765,6.07077686 L4.33882353,7.12186226 L4.34588235,7.54087603 L2.18588235,6.34775207 C2.03058824,6.26252893 1.81882353,6.21991736 1.67058824,6.21991736 C1.45176471,6.21991736 1.32470588,6.26963085 1.13411765,6.35485399 L1.09882353,6.35485399 L1,6.255427 L1.02823529,6.19150964 C1.24705882,5.98555372 1.47294118,5.91453444 1.80470588,5.91453444 C1.97411765,5.91453444 2.18588235,5.93584022 2.45411765,6.07077686" id="Fill-299" opacity="0.75" fill="#0A0B09" sketch:type="MSShapeGroup"></path>
        <path d="M8.92,6.95851791 L8.13647059,5.38188981 C8.03764706,5.19723967 7.83294118,5.06940496 7.60705882,5.06940496 L7.09882353,5.06940496 C7,5.06940496 6.91529412,5.14752617 6.91529412,5.2540551 C6.91529412,5.35348209 7,5.43160331 7.09882353,5.43160331 L7.60705882,5.43160331 C7.69176471,5.43160331 7.79058824,5.48841873 7.82588235,5.57364187 L8.56,7.07925069 L8.92,6.95851791" id="Fill-300" opacity="0.75" fill="#0A0B09" sketch:type="MSShapeGroup"></path>
        <path d="M1.70588235,7.39173554 L3.11764706,7.39173554 L3.11764706,8.10192837 L1.70588235,8.10192837 L1.70588235,7.39173554 Z" id="Fill-301" opacity="0.75" fill="#0A0B09" sketch:type="MSShapeGroup"></path>
        <path d="M3.11764706,8.10192837 L3.82352941,8.10192837 L3.82352941,9.52231405 L3.11764706,9.52231405 L3.11764706,8.10192837 Z" id="Fill-302" opacity="0.75" fill="#0A0B09" sketch:type="MSShapeGroup"></path>
        <path d="M1.70588235,9.52231405 L3.11764706,9.52231405 L3.11764706,10.2325069 L1.70588235,10.2325069 L1.70588235,9.52231405 Z" id="Fill-303" opacity="0.75" fill="#0A0B09" sketch:type="MSShapeGroup"></path>
        <path d="M1,8.10192837 L1.70588235,8.10192837 L1.70588235,9.52231405 L1,9.52231405 L1,8.10192837 Z" id="Fill-304" opacity="0.75" fill="#0A0B09" sketch:type="MSShapeGroup"></path>
        <path d="M8.76470588,7.39173554 L10.1764706,7.39173554 L10.1764706,8.10192837 L8.76470588,8.10192837 L8.76470588,7.39173554 Z" id="Fill-305" opacity="0.75" fill="#0A0B09" sketch:type="MSShapeGroup"></path>
        <path d="M10.1764706,8.10192837 L10.8823529,8.10192837 L10.8823529,9.52231405 L10.1764706,9.52231405 L10.1764706,8.10192837 Z" id="Fill-306" opacity="0.75" fill="#0A0B09" sketch:type="MSShapeGroup"></path>
        <path d="M8.76470588,9.52231405 L10.1764706,9.52231405 L10.1764706,10.2325069 L8.76470588,10.2325069 L8.76470588,9.52231405 Z" id="Fill-307" opacity="0.75" fill="#0A0B09" sketch:type="MSShapeGroup"></path>
        <path d="M8.05882353,8.10192837 L8.76470588,8.10192837 L8.76470588,9.52231405 L8.05882353,9.52231405 L8.05882353,8.10192837 Z" id="Fill-308" opacity="0.75" fill="#0A0B09" sketch:type="MSShapeGroup"></path>
        <path d="M1.70588235,9.52231405 L3.11764706,9.52231405 L3.11764706,8.10192837 L1.70588235,8.10192837 L1.70588235,9.52231405 Z M3.82352941,8.81212121 C3.82352941,9.60043526 3.18823529,10.2325069 2.41176471,10.2325069 C1.63529412,10.2325069 1,9.60043526 1,8.81212121 C1,8.03090909 1.63529412,7.39173554 2.41176471,7.39173554 C3.18823529,7.39173554 3.82352941,8.03090909 3.82352941,8.81212121 L3.82352941,8.81212121 Z" id="Fill-309" opacity="0.75" fill="#0A0B09" sketch:type="MSShapeGroup"></path>
        <path d="M8.76470588,9.52231405 L10.1764706,9.52231405 L10.1764706,8.10192837 L8.76470588,8.10192837 L8.76470588,9.52231405 Z M10.8823529,8.81212121 C10.8823529,9.60043526 10.2470588,10.2325069 9.47058824,10.2325069 C8.69411765,10.2325069 8.05882353,9.60043526 8.05882353,8.81212121 C8.05882353,8.03090909 8.69411765,7.39173554 9.47058824,7.39173554 C10.2470588,7.39173554 10.8823529,8.03090909 10.8823529,8.81212121 L10.8823529,8.81212121 Z" id="Fill-310" opacity="0.75" fill="#0A0B09" sketch:type="MSShapeGroup"></path>
        <path d="M5.72941176,3.13057851 L5.44705882,3.13057851 C4.93882353,3.13057851 4.52941176,2.71866667 4.52941176,2.20732782 L4.52941176,1.92325069 C4.52941176,1.41191185 4.93882353,1 5.44705882,1 L5.72941176,1 C6.23764706,1 6.64705882,1.41191185 6.64705882,1.92325069 L6.64705882,2.20732782 C6.64705882,2.71866667 6.23764706,3.13057851 5.72941176,3.13057851" id="Fill-311" opacity="0.75" fill="#0A0B09" sketch:type="MSShapeGroup"></path>
        <path d="M5.42117647,7.59196143 C5.30117647,7.71269421 5.13882353,7.81212121 4.95529412,7.81212121 L4.95529412,5.34775207 L6.64941176,4.97134986 L7.07294118,5.69574656 L5.42117647,7.59196143" id="Fill-296" fill="#FFFFFF" sketch:type="MSShapeGroup"></path>
        <path d="M3.52941176,2.13057851 L3.07764706,2.13057851 L1.72941176,4.0552011 C1.68,4.14752617 1.64470588,4.26115702 1.64470588,4.36768595 C1.64470588,4.5807438 1.75764706,4.77249587 1.91294118,4.87902479 L3.52941176,5.88749862 L3.52941176,7.59196143 C3.52941176,7.833427 3.91058824,8.03228099 4.15058824,8.03228099 C4.39058824,8.03228099 4.23529412,7.833427 4.23529412,7.59196143 L4.23529412,5.46138292 C4.23529412,5.46138292 4.64470588,5.12049036 4.25647059,4.93584022 L3.13411765,4.33927824 L3.95294118,3.08223691 L4.39058824,3.77112397 C4.47529412,3.90606061 4.59529412,3.96287603 4.70117647,3.96287603 L5.81647059,3.9557741 C6.26823529,3.9557741 6.26823529,3.35921212 5.81647059,3.36631405 L4.91294118,3.36631405 L4.23529412,2.84077135 L3.52941176,2.84077135 L3.52941176,2.13057851" id="Fill-297" fill="#FFFFFF" sketch:type="MSShapeGroup"></path>
        <path d="M9.17647059,4.26115702 L8.96470588,4.84351515 L8.86588235,4.94294215 L9.17647059,4.97134986 C8.98588235,4.89322865 8.51294118,4.80090358 8.29411765,4.80090358 C8.14588235,4.80090358 7.96235294,4.80090358 7.75058824,4.97134986 L7.55294118,4.63755923 C7.8,4.55943802 7.99764706,4.49552066 8.20941176,4.49552066 C8.54117647,4.49552066 8.95764706,4.0552011 9.17647059,4.26115702" id="Fill-298" fill="#FFFFFF" sketch:type="MSShapeGroup"></path>
        <path d="M1.45411765,5.07077686 L3.33882353,6.12186226 L3.34588235,6.54087603 L1.18588235,5.34775207 C1.03058824,5.26252893 0.818823529,5.21991736 0.670588235,5.21991736 C0.451764706,5.21991736 0.324705882,5.26963085 0.134117647,5.35485399 L0.0988235294,5.35485399 L0,5.255427 L0.0282352941,5.19150964 C0.247058824,4.98555372 0.472941176,4.91453444 0.804705882,4.91453444 C0.974117647,4.91453444 1.18588235,4.93584022 1.45411765,5.07077686" id="Fill-299" fill="#FFFFFF" sketch:type="MSShapeGroup"></path>
        <path d="M7.92,5.95851791 L7.13647059,4.38188981 C7.03764706,4.19723967 6.83294118,4.06940496 6.60705882,4.06940496 L6.09882353,4.06940496 C6,4.06940496 5.91529412,4.14752617 5.91529412,4.2540551 C5.91529412,4.35348209 6,4.43160331 6.09882353,4.43160331 L6.60705882,4.43160331 C6.69176471,4.43160331 6.79058824,4.48841873 6.82588235,4.57364187 L7.56,6.07925069 L7.92,5.95851791" id="Fill-300" fill="#FFFFFF" sketch:type="MSShapeGroup"></path>
        <path d="M0.705882353,6.39173554 L2.11764706,6.39173554 L2.11764706,7.10192837 L0.705882353,7.10192837 L0.705882353,6.39173554 Z" id="Fill-301" fill="#FFFFFF" sketch:type="MSShapeGroup"></path>
        <path d="M2.11764706,7.10192837 L2.82352941,7.10192837 L2.82352941,8.52231405 L2.11764706,8.52231405 L2.11764706,7.10192837 Z" id="Fill-302" fill="#FFFFFF" sketch:type="MSShapeGroup"></path>
        <path d="M0.705882353,8.52231405 L2.11764706,8.52231405 L2.11764706,9.23250689 L0.705882353,9.23250689 L0.705882353,8.52231405 Z" id="Fill-303" fill="#FFFFFF" sketch:type="MSShapeGroup"></path>
        <path d="M0,7.10192837 L0.705882353,7.10192837 L0.705882353,8.52231405 L0,8.52231405 L0,7.10192837 Z" id="Fill-304" fill="#FFFFFF" sketch:type="MSShapeGroup"></path>
        <path d="M7.76470588,6.39173554 L9.17647059,6.39173554 L9.17647059,7.10192837 L7.76470588,7.10192837 L7.76470588,6.39173554 Z" id="Fill-305" fill="#FFFFFF" sketch:type="MSShapeGroup"></path>
        <path d="M9.17647059,7.10192837 L9.88235294,7.10192837 L9.88235294,8.52231405 L9.17647059,8.52231405 L9.17647059,7.10192837 Z" id="Fill-306" fill="#FFFFFF" sketch:type="MSShapeGroup"></path>
        <path d="M7.76470588,8.52231405 L9.17647059,8.52231405 L9.17647059,9.23250689 L7.76470588,9.23250689 L7.76470588,8.52231405 Z" id="Fill-307" fill="#FFFFFF" sketch:type="MSShapeGroup"></path>
        <path d="M7.05882353,7.10192837 L7.76470588,7.10192837 L7.76470588,8.52231405 L7.05882353,8.52231405 L7.05882353,7.10192837 Z" id="Fill-308" fill="#FFFFFF" sketch:type="MSShapeGroup"></path>
        <path d="M0.705882353,8.52231405 L2.11764706,8.52231405 L2.11764706,7.10192837 L0.705882353,7.10192837 L0.705882353,8.52231405 Z M2.82352941,7.81212121 C2.82352941,8.60043526 2.18823529,9.23250689 1.41176471,9.23250689 C0.635294118,9.23250689 0,8.60043526 0,7.81212121 C0,7.03090909 0.635294118,6.39173554 1.41176471,6.39173554 C2.18823529,6.39173554 2.82352941,7.03090909 2.82352941,7.81212121 L2.82352941,7.81212121 Z" id="Fill-309" fill="#FFFFFF" sketch:type="MSShapeGroup"></path>
        <path d="M7.76470588,8.52231405 L9.17647059,8.52231405 L9.17647059,7.10192837 L7.76470588,7.10192837 L7.76470588,8.52231405 Z M9.88235294,7.81212121 C9.88235294,8.60043526 9.24705882,9.23250689 8.47058824,9.23250689 C7.69411765,9.23250689 7.05882353,8.60043526 7.05882353,7.81212121 C7.05882353,7.03090909 7.69411765,6.39173554 8.47058824,6.39173554 C9.24705882,6.39173554 9.88235294,7.03090909 9.88235294,7.81212121 L9.88235294,7.81212121 Z" id="Fill-310" fill="#FFFFFF" sketch:type="MSShapeGroup"></path>
        <path d="M4.72941176,2.13057851 L4.44705882,2.13057851 C3.93882353,2.13057851 3.52941176,1.71866667 3.52941176,1.20732782 L3.52941176,0.923250689 C3.52941176,0.411911846 3.93882353,0 4.44705882,0 L4.72941176,0 C5.23764706,0 5.64705882,0.411911846 5.64705882,0.923250689 L5.64705882,1.20732782 C5.64705882,1.71866667 5.23764706,2.13057851 4.72941176,2.13057851" id="Fill-311" fill="#FFFFFF" sketch:type="MSShapeGroup"></path>
    </g>
</svg>