<?xml version="1.0" encoding="UTF-8" standalone="no"?>
<!-- Created with Inkscape (http://www.inkscape.org/) -->

<svg
   xmlns:dc="http://purl.org/dc/elements/1.1/"
   xmlns:cc="http://creativecommons.org/ns#"
   xmlns:rdf="http://www.w3.org/1999/02/22-rdf-syntax-ns#"
   xmlns:svg="http://www.w3.org/2000/svg"
   xmlns="http://www.w3.org/2000/svg"
   xmlns:sodipodi="http://sodipodi.sourceforge.net/DTD/sodipodi-0.dtd"
   xmlns:inkscape="http://www.inkscape.org/namespaces/inkscape"
   width="24"
   height="24"
   id="svg27349"
   version="1.1"
   inkscape:version="0.48.2 r9819"
   sodipodi:docname="litter-receptacle-black-24.svg">
  <defs
     id="defs27351" />
  <sodipodi:namedview
     id="base"
     pagecolor="#ffffff"
     bordercolor="#666666"
     borderopacity="1.0"
     inkscape:pageopacity="0.0"
     inkscape:pageshadow="2"
     inkscape:zoom="8.6123905"
     inkscape:cx="11.808263"
     inkscape:cy="10.533919"
     inkscape:document-units="px"
     inkscape:current-layer="layer1"
     showgrid="false"
     inkscape:window-width="483"
     inkscape:window-height="454"
     inkscape:window-x="3648"
     inkscape:window-y="148"
     inkscape:window-maximized="0"
     gridtolerance="10">
    <inkscape:grid
       type="xygrid"
       id="grid3004"
       empspacing="5"
       visible="true"
       enabled="true"
       snapvisiblegridlinesonly="true" />
  </sodipodi:namedview>
  <metadata
     id="metadata27354">
    <rdf:RDF>
      <cc:Work
         rdf:about="">
        <dc:format>image/svg+xml</dc:format>
        <dc:type
           rdf:resource="http://purl.org/dc/dcmitype/StillImage" />
        <dc:title></dc:title>
      </cc:Work>
    </rdf:RDF>
  </metadata>
  <g
     inkscape:label="Layer 1"
     inkscape:groupmode="layer"
     id="layer1"
     transform="translate(0,-1028.3622)">
    <g
       transform="matrix(2.4281667,0,0,2.4281667,-52.67744,74.028236)"
       id="g15385">
      <path
         d="m 30.414,402.939 c 0.652,0 1.181,-0.527 1.181,-1.18 v -7.521 c 0,-0.652 -0.528,-1.18 -1.181,-1.18 h -7.522 c -0.651,0 -1.181,0.527 -1.181,1.18 v 7.521 c 0,0.652 0.529,1.18 1.181,1.18 h 7.522 z"
         id="path15387"
         inkscape:connector-curvature="0"
         style="opacity:0;fill:#272525" />
      <g
         style="opacity:0.6;fill:none;stroke:#ffffff;stroke-width:0.5;stroke-miterlimit:4;stroke-opacity:1;stroke-dasharray:none"
         id="g15389">
        <path
           d="m 27.213,394.443 c -0.11,-0.424 -0.497,-0.738 -0.954,-0.738 -0.546,0 -0.987,0.439 -0.987,0.984 0,0.092 0.011,0.176 0.034,0.258 h 0.396 c 0.029,0.068 0.061,0.107 0.061,0.107 0.119,0.172 0.318,0.283 0.543,0.283 0.365,0 0.662,-0.297 0.662,-0.662 0,-0.084 0.021,-0.16 -0.014,-0.232 h 0.259 z"
           id="path15391"
           inkscape:connector-curvature="0"
           style="fill:none;stroke:#ffffff;stroke-width:0.5;stroke-miterlimit:4;stroke-opacity:1;stroke-dasharray:none" />
        <path
           d="m 27.186,400.328 c -0.104,0.105 -0.247,0.186 -0.408,0.186 l -10e-4,-2.145 1.484,-0.426 0.372,0.732 -1.447,1.653 z"
           id="path15393"
           inkscape:connector-curvature="0"
           style="fill:none;stroke:#ffffff;stroke-width:0.5;stroke-miterlimit:4;stroke-opacity:1;stroke-dasharray:none" />
        <path
           d="m 25.94,395.422 c -0.098,-0.109 -0.239,-0.178 -0.398,-0.178 -0.169,0 -0.32,0.078 -0.417,0.201 l -1.178,1.799 c -0.048,0.08 -0.075,0.174 -0.075,0.273 0,0.186 0.094,0.348 0.236,0.443 l 1.58,0.877 v 1.492 c 0,0.211 0.171,0.383 0.382,0.383 0.21,0 0.382,-0.172 0.382,-0.383 v -1.863 c 0,0 0.05,-0.297 -0.287,-0.459 l -0.985,-0.516 0.718,-1.096 0.381,0.598 c 0.076,0.121 0.179,0.168 0.273,0.166 l 0.978,-0.004 c 0.398,0 0.398,-0.518 0,-0.516 h -0.793 l -0.797,-1.217 z"
           id="path15395"
           inkscape:connector-curvature="0"
           style="fill:none;stroke:#ffffff;stroke-width:0.5;stroke-miterlimit:4;stroke-opacity:1;stroke-dasharray:none" />
        <path
           d="m 30.27,397.867 c 0.016,0.016 0.024,0.035 0.024,0.061 0,0.047 -0.039,0.086 -0.086,0.086 -0.013,0 -0.021,0 -0.031,-0.004 -0.169,-0.072 -0.276,-0.117 -0.473,-0.117 -0.13,0 -0.291,0.045 -0.477,0.195 l -0.172,-0.34 c 0.215,-0.064 0.391,-0.121 0.575,-0.121 0.294,0 0.448,0.061 0.64,0.24 z"
           id="path15397"
           inkscape:connector-curvature="0"
           style="fill:none;stroke:#ffffff;stroke-width:0.5;stroke-miterlimit:4;stroke-opacity:1;stroke-dasharray:none" />
        <path
           d="m 23.7,398.129 1.658,0.914 0.004,0.367 -1.894,-1.043 c -0.137,-0.07 -0.321,-0.111 -0.452,-0.111 -0.195,0 -0.304,0.045 -0.472,0.117 -0.011,0.004 -0.02,0.004 -0.031,0.004 -0.047,0 -0.087,-0.039 -0.087,-0.086 0,-0.025 0.01,-0.045 0.025,-0.061 0.192,-0.18 0.388,-0.24 0.681,-0.24 0.151,0 0.333,0.018 0.568,0.139 z"
           id="path15399"
           inkscape:connector-curvature="0"
           style="fill:none;stroke:#ffffff;stroke-width:0.5;stroke-miterlimit:4;stroke-opacity:1;stroke-dasharray:none" />
        <path
           d="m 23.854,401.492 c 0.54,0 0.978,-0.438 0.978,-0.979 0,-0.541 -0.438,-0.979 -0.978,-0.979 -0.54,0 -0.978,0.438 -0.978,0.979 0,0.541 0.438,0.979 0.978,0.979 z m -1.411,-0.978 c 0,-0.779 0.632,-1.412 1.411,-1.412 0.78,0 1.412,0.633 1.412,1.412 0,0.779 -0.632,1.412 -1.412,1.412 -0.779,0 -1.411,-0.633 -1.411,-1.412 z"
           id="path15401"
           inkscape:connector-curvature="0"
           style="fill:none;stroke:#ffffff;stroke-width:0.5;stroke-miterlimit:4;stroke-opacity:1;stroke-dasharray:none" />
        <path
           d="m 29.69,401.492 c 0.54,0 0.979,-0.438 0.979,-0.979 0,-0.541 -0.438,-0.979 -0.979,-0.979 -0.541,0 -0.978,0.438 -0.978,0.979 0,0.541 0.438,0.979 0.978,0.979 z m -1.411,-0.978 c 0,-0.779 0.631,-1.412 1.411,-1.412 0.779,0 1.411,0.633 1.411,1.412 0,0.779 -0.632,1.412 -1.411,1.412 -0.78,0 -1.411,-0.633 -1.411,-1.412 z"
           id="path15403"
           inkscape:connector-curvature="0"
           style="fill:none;stroke:#ffffff;stroke-width:0.5;stroke-miterlimit:4;stroke-opacity:1;stroke-dasharray:none" />
        <path
           d="m 29.378,398.9 -0.686,-1.371 c -0.09,-0.164 -0.265,-0.277 -0.466,-0.277 h -0.448 c -0.087,0 -0.158,0.072 -0.158,0.16 0,0.088 0.071,0.158 0.158,0.158 l 0.448,-0.002 c 0.075,0 0.159,0.051 0.191,0.125 l 0.646,1.316 0.315,-0.109 z"
           id="path15405"
           inkscape:connector-curvature="0"
           style="fill:none;stroke:#ffffff;stroke-width:0.5;stroke-miterlimit:4;stroke-opacity:1;stroke-dasharray:none" />
      </g>
      <g
         id="g15407">
        <path
           style="fill:#272525"
           inkscape:connector-curvature="0"
           id="path15409"
           d="m 27.213,394.443 c -0.11,-0.424 -0.497,-0.738 -0.954,-0.738 -0.546,0 -0.987,0.439 -0.987,0.984 0,0.092 0.011,0.176 0.034,0.258 h 0.396 c 0.029,0.068 0.061,0.107 0.061,0.107 0.119,0.172 0.318,0.283 0.543,0.283 0.365,0 0.662,-0.297 0.662,-0.662 0,-0.084 0.021,-0.16 -0.014,-0.232 h 0.259 z" />
        <path
           style="fill:#272525"
           inkscape:connector-curvature="0"
           id="path15411"
           d="m 27.186,400.328 c -0.104,0.105 -0.247,0.186 -0.408,0.186 l -10e-4,-2.145 1.484,-0.426 0.372,0.732 -1.447,1.653 z" />
        <path
           style="fill:#272525"
           inkscape:connector-curvature="0"
           id="path15413"
           d="m 25.94,395.422 c -0.098,-0.109 -0.239,-0.178 -0.398,-0.178 -0.169,0 -0.32,0.078 -0.417,0.201 l -1.178,1.799 c -0.048,0.08 -0.075,0.174 -0.075,0.273 0,0.186 0.094,0.348 0.236,0.443 l 1.58,0.877 v 1.492 c 0,0.211 0.171,0.383 0.382,0.383 0.21,0 0.382,-0.172 0.382,-0.383 v -1.863 c 0,0 0.05,-0.297 -0.287,-0.459 l -0.985,-0.516 0.718,-1.096 0.381,0.598 c 0.076,0.121 0.179,0.168 0.273,0.166 l 0.978,-0.004 c 0.398,0 0.398,-0.518 0,-0.516 h -0.793 l -0.797,-1.217 z" />
        <path
           style="fill:#272525"
           inkscape:connector-curvature="0"
           id="path15415"
           d="m 30.27,397.867 c 0.016,0.016 0.024,0.035 0.024,0.061 0,0.047 -0.039,0.086 -0.086,0.086 -0.013,0 -0.021,0 -0.031,-0.004 -0.169,-0.072 -0.276,-0.117 -0.473,-0.117 -0.13,0 -0.291,0.045 -0.477,0.195 l -0.172,-0.34 c 0.215,-0.064 0.391,-0.121 0.575,-0.121 0.294,0 0.448,0.061 0.64,0.24 z" />
        <path
           style="fill:#272525"
           inkscape:connector-curvature="0"
           id="path15417"
           d="m 23.7,398.129 1.658,0.914 0.004,0.367 -1.894,-1.043 c -0.137,-0.07 -0.321,-0.111 -0.452,-0.111 -0.195,0 -0.304,0.045 -0.472,0.117 -0.011,0.004 -0.02,0.004 -0.031,0.004 -0.047,0 -0.087,-0.039 -0.087,-0.086 0,-0.025 0.01,-0.045 0.025,-0.061 0.192,-0.18 0.388,-0.24 0.681,-0.24 0.151,0 0.333,0.018 0.568,0.139 z" />
        <path
           style="fill:#272525"
           inkscape:connector-curvature="0"
           id="path15419"
           d="m 23.854,401.492 c 0.54,0 0.978,-0.438 0.978,-0.979 0,-0.541 -0.438,-0.979 -0.978,-0.979 -0.54,0 -0.978,0.438 -0.978,0.979 0,0.541 0.438,0.979 0.978,0.979 z m -1.411,-0.978 c 0,-0.779 0.632,-1.412 1.411,-1.412 0.78,0 1.412,0.633 1.412,1.412 0,0.779 -0.632,1.412 -1.412,1.412 -0.779,0 -1.411,-0.633 -1.411,-1.412 z" />
        <path
           style="fill:#272525"
           inkscape:connector-curvature="0"
           id="path15421"
           d="m 29.69,401.492 c 0.54,0 0.979,-0.438 0.979,-0.979 0,-0.541 -0.438,-0.979 -0.979,-0.979 -0.541,0 -0.978,0.438 -0.978,0.979 0,0.541 0.438,0.979 0.978,0.979 z m -1.411,-0.978 c 0,-0.779 0.631,-1.412 1.411,-1.412 0.779,0 1.411,0.633 1.411,1.412 0,0.779 -0.632,1.412 -1.411,1.412 -0.78,0 -1.411,-0.633 -1.411,-1.412 z" />
        <path
           style="fill:#272525"
           inkscape:connector-curvature="0"
           id="path15423"
           d="m 29.378,398.9 -0.686,-1.371 c -0.09,-0.164 -0.265,-0.277 -0.466,-0.277 h -0.448 c -0.087,0 -0.158,0.072 -0.158,0.16 0,0.088 0.071,0.158 0.158,0.158 l 0.448,-0.002 c 0.075,0 0.159,0.051 0.191,0.125 l 0.646,1.316 0.315,-0.109 z" />
      </g>
    </g>
  </g>
</svg>
