<?xml version="1.0" encoding="UTF-8" standalone="no"?>
<svg width="18px" height="18px" viewBox="0 0 18 18" version="1.1" xmlns="http://www.w3.org/2000/svg" xmlns:xlink="http://www.w3.org/1999/xlink" xmlns:sketch="http://www.bohemiancoding.com/sketch/ns">
    <!-- Generator: Sketch 3.2.2 (9983) - http://www.bohemiancoding.com/sketch -->
    <title>motor-bike-trail-black-18</title>
    <desc>Created with Sketch.</desc>
    <defs></defs>
    <g id="Page-1" stroke="none" stroke-width="1" fill="none" fill-rule="evenodd" sketch:type="MSPage">
        <g id="Group" sketch:type="MSLayerGroup" transform="translate(2.000000, 1.199951)" fill="#0A0B09" opacity="0.1">
            <path d="M9.16296296,13.1908856 C8.97037037,13.3879761 8.67407407,13.533969 8.37037037,13.533969 L8.37037037,9.56296115 L11.3333333,8.84759576 L11.3333333,10.3075251 L9.16296296,13.1908856" id="Fill-277" sketch:type="MSShapeGroup"></path>
            <path d="M6.88888889,4.46780766 L6.14814815,4.46780766 L6.14814815,3.78164086 C6.14814815,3.78164086 5.47407407,3.92033415 5.28888889,4.15392285 L3.08148148,7.4825618 C2.99259259,7.62855474 2.94074074,7.80374626 2.94074074,7.98623744 C2.94074074,8.32932084 3.11851852,8.62860636 3.38518519,8.80379788 L6.34814815,10.4316191 L6.34814815,13.1908856 C6.34814815,13.5850666 6.67407407,13.8989514 7.06666667,13.8989514 C7.45925926,13.8989514 7.62962963,13.5850666 7.62962963,13.1908856 L7.62962963,9.74545232 C7.62962963,9.74545232 7.88148148,9.19797881 7.24444444,8.89139364 L5.39259259,7.94243955 L6.74814815,5.91313773 L7.45925926,7.01538441 C7.6,7.24167346 7.8,7.39496604 7.97037037,7.3876664 L9.80740741,7.3876664 C10.5555556,7.3876664 10.5555556,6.35841619 9.80740741,6.35841619 L8.31851852,6.35841619 L6.88888889,4.20502037 L6.88888889,4.46780766" id="Fill-278" sketch:type="MSShapeGroup"></path>
            <path d="M14.9555556,8.635906 L15,8.74540071 C15,8.83299647 14.9259259,8.90599294 14.8444444,8.90599294 L14.7851852,8.89869329 C14.4666667,8.76729965 14.2666667,8.67970388 13.8962963,8.67970388 C13.6518519,8.67970388 13.3481481,8.76729965 13,9.04468623 L12.6740741,8.4169166 C13.0814815,8.30012225 13.4074074,8.11763108 13.7555556,8.11763108 C14.3111111,8.11763108 14.6,8.3074219 14.9555556,8.635906" id="Fill-279" sketch:type="MSShapeGroup"></path>
            <path d="M2.61481481,9.11768269 L5.40740741,10.8112008 L5.40740741,11.4900679 L2.17777778,9.57756045 C1.92592593,9.45346645 1.57777778,9.35857104 1.33333333,9.35857104 C0.962962963,9.35857104 1.13333333,9.43886716 0.814814815,9.5702608 L0.755555556,9.57756045 C0.666666667,9.57756045 0.592592593,9.50456398 0.592592593,9.41696822 L0.637037037,9.30747351 C1,8.97168976 1,8.84759576 1.54814815,8.84759576 C1.82962963,8.84759576 2.17037037,8.89869329 2.61481481,9.11768269" id="Fill-280" sketch:type="MSShapeGroup"></path>
            <path d="M0.222222222,13.533969 C0.222222222,12.0959386 1.38518519,10.9206955 2.81481481,10.9206955 C4.24444444,10.9206955 5.40740741,12.0959386 5.40740741,13.533969 C5.40740741,14.9792991 4.24444444,16.1472426 2.81481481,16.1472426 C1.38518519,16.1472426 0.222222222,14.9792991 0.222222222,13.533969 L0.222222222,13.533969 Z M2.81481481,15.3442814 C3.80740741,15.3442814 4.60740741,14.5340206 4.60740741,13.533969 C4.60740741,12.5339174 3.80740741,11.7236566 2.81481481,11.7236566 C1.82222222,11.7236566 1.01481481,12.5339174 1.01481481,13.533969 C1.01481481,14.5340206 1.82222222,15.3442814 2.81481481,15.3442814 L2.81481481,15.3442814 Z" id="Fill-281" sketch:type="MSShapeGroup"></path>
            <path d="M11.2148148,13.533969 C11.2148148,12.0959386 12.4,10.9206955 13.8666667,10.9206955 C15.3333333,10.9206955 16.5185185,12.0959386 16.5185185,13.533969 C16.5185185,14.9792991 15.3333333,16.1472426 13.8666667,16.1472426 C12.4,16.1472426 11.2148148,14.9792991 11.2148148,13.533969 L11.2148148,13.533969 Z M13.8666667,15.3442814 C14.8814815,15.3442814 15.7037037,14.5340206 15.7037037,13.533969 C15.7037037,12.5339174 14.8814815,11.7236566 13.8666667,11.7236566 C12.8518519,11.7236566 12.0296296,12.5339174 12.0296296,13.533969 C12.0296296,14.5340206 12.8518519,15.3442814 13.8666667,15.3442814 L13.8666667,15.3442814 Z" id="Fill-282" sketch:type="MSShapeGroup"></path>
            <path d="M13.2814815,10.3075251 L12.0740741,8.00813638 C11.9037037,7.70885086 11.4962963,7.3876664 11.1185185,7.3876664 L10.2740741,7.3876664 C10.1111111,7.3876664 9.97777778,7.62855474 9.97777778,7.79644662 C9.97777778,7.95703885 10.1111111,8.11763108 10.2740741,8.11763108 L11.1185185,8.11763108 C11.2592593,8.11763108 11.4148148,8.17602825 11.4740741,8.31472154 L12.6888889,10.3075251 L13.2814815,10.3075251" id="Fill-283" sketch:type="MSShapeGroup"></path>
            <path d="M9.11111111,3.00787829 L9.81481481,3.00787829 C9.83703704,2.89108394 9.85185185,2.76698995 9.85185185,2.64289595 C9.85185185,1.63554469 9.02222222,0.817984243 8,0.817984243 C6.97777778,0.817984243 6.14814815,1.63554469 6.14814815,2.64289595 C6.14814815,3.05897582 6.28888889,3.43125781 6.52592593,3.73784298 L9.11111111,3.73784298 L9.11111111,3.00787829" id="Fill-284" sketch:type="MSShapeGroup"></path>
            <path d="M9.11111111,3.37286064 C9.11111111,3.97873132 8.61481481,4.46780766 8,4.46780766 C7.38518519,4.46780766 6.88888889,3.97873132 6.88888889,3.37286064 C6.88888889,2.76698995 7.38518519,2.27791361 8,2.27791361 C8.61481481,2.27791361 9.11111111,2.76698995 9.11111111,3.37286064" id="Fill-285" sketch:type="MSShapeGroup"></path>
        </g>
        <g id="Group" sketch:type="MSLayerGroup" transform="translate(1.000000, 0.199951)" fill="#0A0B09" opacity="0.2">
            <path d="M9.16296296,13.1908856 C8.97037037,13.3879761 8.67407407,13.533969 8.37037037,13.533969 L8.37037037,9.56296115 L11.3333333,8.84759576 L11.3333333,10.3075251 L9.16296296,13.1908856" id="Fill-277" sketch:type="MSShapeGroup"></path>
            <path d="M6.88888889,4.46780766 L6.14814815,4.46780766 L6.14814815,3.78164086 C6.14814815,3.78164086 5.47407407,3.92033415 5.28888889,4.15392285 L3.08148148,7.4825618 C2.99259259,7.62855474 2.94074074,7.80374626 2.94074074,7.98623744 C2.94074074,8.32932084 3.11851852,8.62860636 3.38518519,8.80379788 L6.34814815,10.4316191 L6.34814815,13.1908856 C6.34814815,13.5850666 6.67407407,13.8989514 7.06666667,13.8989514 C7.45925926,13.8989514 7.62962963,13.5850666 7.62962963,13.1908856 L7.62962963,9.74545232 C7.62962963,9.74545232 7.88148148,9.19797881 7.24444444,8.89139364 L5.39259259,7.94243955 L6.74814815,5.91313773 L7.45925926,7.01538441 C7.6,7.24167346 7.8,7.39496604 7.97037037,7.3876664 L9.80740741,7.3876664 C10.5555556,7.3876664 10.5555556,6.35841619 9.80740741,6.35841619 L8.31851852,6.35841619 L6.88888889,4.20502037 L6.88888889,4.46780766" id="Fill-278" sketch:type="MSShapeGroup"></path>
            <path d="M14.9555556,8.635906 L15,8.74540071 C15,8.83299647 14.9259259,8.90599294 14.8444444,8.90599294 L14.7851852,8.89869329 C14.4666667,8.76729965 14.2666667,8.67970388 13.8962963,8.67970388 C13.6518519,8.67970388 13.3481481,8.76729965 13,9.04468623 L12.6740741,8.4169166 C13.0814815,8.30012225 13.4074074,8.11763108 13.7555556,8.11763108 C14.3111111,8.11763108 14.6,8.3074219 14.9555556,8.635906" id="Fill-279" sketch:type="MSShapeGroup"></path>
            <path d="M2.61481481,9.11768269 L5.40740741,10.8112008 L5.40740741,11.4900679 L2.17777778,9.57756045 C1.92592593,9.45346645 1.57777778,9.35857104 1.33333333,9.35857104 C0.962962963,9.35857104 1.13333333,9.43886716 0.814814815,9.5702608 L0.755555556,9.57756045 C0.666666667,9.57756045 0.592592593,9.50456398 0.592592593,9.41696822 L0.637037037,9.30747351 C1,8.97168976 1,8.84759576 1.54814815,8.84759576 C1.82962963,8.84759576 2.17037037,8.89869329 2.61481481,9.11768269" id="Fill-280" sketch:type="MSShapeGroup"></path>
            <path d="M0.222222222,13.533969 C0.222222222,12.0959386 1.38518519,10.9206955 2.81481481,10.9206955 C4.24444444,10.9206955 5.40740741,12.0959386 5.40740741,13.533969 C5.40740741,14.9792991 4.24444444,16.1472426 2.81481481,16.1472426 C1.38518519,16.1472426 0.222222222,14.9792991 0.222222222,13.533969 L0.222222222,13.533969 Z M2.81481481,15.3442814 C3.80740741,15.3442814 4.60740741,14.5340206 4.60740741,13.533969 C4.60740741,12.5339174 3.80740741,11.7236566 2.81481481,11.7236566 C1.82222222,11.7236566 1.01481481,12.5339174 1.01481481,13.533969 C1.01481481,14.5340206 1.82222222,15.3442814 2.81481481,15.3442814 L2.81481481,15.3442814 Z" id="Fill-281" sketch:type="MSShapeGroup"></path>
            <path d="M11.2148148,13.533969 C11.2148148,12.0959386 12.4,10.9206955 13.8666667,10.9206955 C15.3333333,10.9206955 16.5185185,12.0959386 16.5185185,13.533969 C16.5185185,14.9792991 15.3333333,16.1472426 13.8666667,16.1472426 C12.4,16.1472426 11.2148148,14.9792991 11.2148148,13.533969 L11.2148148,13.533969 Z M13.8666667,15.3442814 C14.8814815,15.3442814 15.7037037,14.5340206 15.7037037,13.533969 C15.7037037,12.5339174 14.8814815,11.7236566 13.8666667,11.7236566 C12.8518519,11.7236566 12.0296296,12.5339174 12.0296296,13.533969 C12.0296296,14.5340206 12.8518519,15.3442814 13.8666667,15.3442814 L13.8666667,15.3442814 Z" id="Fill-282" sketch:type="MSShapeGroup"></path>
            <path d="M13.2814815,10.3075251 L12.0740741,8.00813638 C11.9037037,7.70885086 11.4962963,7.3876664 11.1185185,7.3876664 L10.2740741,7.3876664 C10.1111111,7.3876664 9.97777778,7.62855474 9.97777778,7.79644662 C9.97777778,7.95703885 10.1111111,8.11763108 10.2740741,8.11763108 L11.1185185,8.11763108 C11.2592593,8.11763108 11.4148148,8.17602825 11.4740741,8.31472154 L12.6888889,10.3075251 L13.2814815,10.3075251" id="Fill-283" sketch:type="MSShapeGroup"></path>
            <path d="M9.11111111,3.00787829 L9.81481481,3.00787829 C9.83703704,2.89108394 9.85185185,2.76698995 9.85185185,2.64289595 C9.85185185,1.63554469 9.02222222,0.817984243 8,0.817984243 C6.97777778,0.817984243 6.14814815,1.63554469 6.14814815,2.64289595 C6.14814815,3.05897582 6.28888889,3.43125781 6.52592593,3.73784298 L9.11111111,3.73784298 L9.11111111,3.00787829" id="Fill-284" sketch:type="MSShapeGroup"></path>
            <path d="M9.11111111,3.37286064 C9.11111111,3.97873132 8.61481481,4.46780766 8,4.46780766 C7.38518519,4.46780766 6.88888889,3.97873132 6.88888889,3.37286064 C6.88888889,2.76698995 7.38518519,2.27791361 8,2.27791361 C8.61481481,2.27791361 9.11111111,2.76698995 9.11111111,3.37286064" id="Fill-285" sketch:type="MSShapeGroup"></path>
        </g>
        <g id="Group" sketch:type="MSLayerGroup" transform="translate(0.000000, -0.800049)" fill="#0A0B09">
            <path d="M9.16296296,13.1908856 C8.97037037,13.3879761 8.67407407,13.533969 8.37037037,13.533969 L8.37037037,9.56296115 L11.3333333,8.84759576 L11.3333333,10.3075251 L9.16296296,13.1908856" id="Fill-277" sketch:type="MSShapeGroup"></path>
            <path d="M6.88888889,4.46780766 L6.14814815,4.46780766 L6.14814815,3.78164086 C6.14814815,3.78164086 5.47407407,3.92033415 5.28888889,4.15392285 L3.08148148,7.4825618 C2.99259259,7.62855474 2.94074074,7.80374626 2.94074074,7.98623744 C2.94074074,8.32932084 3.11851852,8.62860636 3.38518519,8.80379788 L6.34814815,10.4316191 L6.34814815,13.1908856 C6.34814815,13.5850666 6.67407407,13.8989514 7.06666667,13.8989514 C7.45925926,13.8989514 7.62962963,13.5850666 7.62962963,13.1908856 L7.62962963,9.74545232 C7.62962963,9.74545232 7.88148148,9.19797881 7.24444444,8.89139364 L5.39259259,7.94243955 L6.74814815,5.91313773 L7.45925926,7.01538441 C7.6,7.24167346 7.8,7.39496604 7.97037037,7.3876664 L9.80740741,7.3876664 C10.5555556,7.3876664 10.5555556,6.35841619 9.80740741,6.35841619 L8.31851852,6.35841619 L6.88888889,4.20502037 L6.88888889,4.46780766" id="Fill-278" sketch:type="MSShapeGroup"></path>
            <path d="M14.9555556,8.635906 L15,8.74540071 C15,8.83299647 14.9259259,8.90599294 14.8444444,8.90599294 L14.7851852,8.89869329 C14.4666667,8.76729965 14.2666667,8.67970388 13.8962963,8.67970388 C13.6518519,8.67970388 13.3481481,8.76729965 13,9.04468623 L12.6740741,8.4169166 C13.0814815,8.30012225 13.4074074,8.11763108 13.7555556,8.11763108 C14.3111111,8.11763108 14.6,8.3074219 14.9555556,8.635906" id="Fill-279" sketch:type="MSShapeGroup"></path>
            <path d="M2.61481481,9.11768269 L5.40740741,10.8112008 L5.40740741,11.4900679 L2.17777778,9.57756045 C1.92592593,9.45346645 1.57777778,9.35857104 1.33333333,9.35857104 C0.962962963,9.35857104 1.13333333,9.43886716 0.814814815,9.5702608 L0.755555556,9.57756045 C0.666666667,9.57756045 0.592592593,9.50456398 0.592592593,9.41696822 L0.637037037,9.30747351 C1,8.97168976 1,8.84759576 1.54814815,8.84759576 C1.82962963,8.84759576 2.17037037,8.89869329 2.61481481,9.11768269" id="Fill-280" sketch:type="MSShapeGroup"></path>
            <path d="M0.222222222,13.533969 C0.222222222,12.0959386 1.38518519,10.9206955 2.81481481,10.9206955 C4.24444444,10.9206955 5.40740741,12.0959386 5.40740741,13.533969 C5.40740741,14.9792991 4.24444444,16.1472426 2.81481481,16.1472426 C1.38518519,16.1472426 0.222222222,14.9792991 0.222222222,13.533969 L0.222222222,13.533969 Z M2.81481481,15.3442814 C3.80740741,15.3442814 4.60740741,14.5340206 4.60740741,13.533969 C4.60740741,12.5339174 3.80740741,11.7236566 2.81481481,11.7236566 C1.82222222,11.7236566 1.01481481,12.5339174 1.01481481,13.533969 C1.01481481,14.5340206 1.82222222,15.3442814 2.81481481,15.3442814 L2.81481481,15.3442814 Z" id="Fill-281" sketch:type="MSShapeGroup"></path>
            <path d="M11.2148148,13.533969 C11.2148148,12.0959386 12.4,10.9206955 13.8666667,10.9206955 C15.3333333,10.9206955 16.5185185,12.0959386 16.5185185,13.533969 C16.5185185,14.9792991 15.3333333,16.1472426 13.8666667,16.1472426 C12.4,16.1472426 11.2148148,14.9792991 11.2148148,13.533969 L11.2148148,13.533969 Z M13.8666667,15.3442814 C14.8814815,15.3442814 15.7037037,14.5340206 15.7037037,13.533969 C15.7037037,12.5339174 14.8814815,11.7236566 13.8666667,11.7236566 C12.8518519,11.7236566 12.0296296,12.5339174 12.0296296,13.533969 C12.0296296,14.5340206 12.8518519,15.3442814 13.8666667,15.3442814 L13.8666667,15.3442814 Z" id="Fill-282" sketch:type="MSShapeGroup"></path>
            <path d="M13.2814815,10.3075251 L12.0740741,8.00813638 C11.9037037,7.70885086 11.4962963,7.3876664 11.1185185,7.3876664 L10.2740741,7.3876664 C10.1111111,7.3876664 9.97777778,7.62855474 9.97777778,7.79644662 C9.97777778,7.95703885 10.1111111,8.11763108 10.2740741,8.11763108 L11.1185185,8.11763108 C11.2592593,8.11763108 11.4148148,8.17602825 11.4740741,8.31472154 L12.6888889,10.3075251 L13.2814815,10.3075251" id="Fill-283" sketch:type="MSShapeGroup"></path>
            <path d="M9.11111111,3.00787829 L9.81481481,3.00787829 C9.83703704,2.89108394 9.85185185,2.76698995 9.85185185,2.64289595 C9.85185185,1.63554469 9.02222222,0.817984243 8,0.817984243 C6.97777778,0.817984243 6.14814815,1.63554469 6.14814815,2.64289595 C6.14814815,3.05897582 6.28888889,3.43125781 6.52592593,3.73784298 L9.11111111,3.73784298 L9.11111111,3.00787829" id="Fill-284" sketch:type="MSShapeGroup"></path>
            <path d="M9.11111111,3.37286064 C9.11111111,3.97873132 8.61481481,4.46780766 8,4.46780766 C7.38518519,4.46780766 6.88888889,3.97873132 6.88888889,3.37286064 C6.88888889,2.76698995 7.38518519,2.27791361 8,2.27791361 C8.61481481,2.27791361 9.11111111,2.76698995 9.11111111,3.37286064" id="Fill-285" sketch:type="MSShapeGroup"></path>
        </g>
    </g>
</svg>