<?xml version="1.0" encoding="utf-8"?>
<!-- Generator: Adobe Illustrator 18.1.1, SVG Export Plug-In . SVG Version: 6.00 Build 0)  -->
<svg version="1.1" xmlns="http://www.w3.org/2000/svg" xmlns:xlink="http://www.w3.org/1999/xlink" x="0px" y="0px"
	 viewBox="0 0 18 18" enable-background="new 0 0 18 18" xml:space="preserve">
<g id="shadows">
	<g opacity="0.2">
		<path d="M10.9,13.1c-0.2,0.2-0.4,0.3-0.6,0.3l0-3.2l2.2-0.5l0.6,0.9L10.9,13.1z"/>
		<path d="M8.4,6L8.4,6H7.8L6,8.5C6,8.6,5.9,8.8,5.9,8.9c0,0.3,0.1,0.5,0.4,0.7l2.1,1.3v2.2c0,0.3,0.5,0.6,0.8,0.6
			c0.3,0,0.1-0.3,0.1-0.6v-2.8c0,0,0.5-0.4,0-0.7L7.9,8.9L9,7.2l0.6,0.9c0.1,0.2,0.3,0.3,0.4,0.2l1.5,0c0.6,0,0.6-0.8,0-0.8h-1.2
			L9.3,6.9H8.4V6z"/>
		<path d="M15.8,8.8l-0.3,0.8l-0.1,0.1l0.4,0c-0.3-0.1-0.9-0.2-1.2-0.2c-0.2,0-0.4,0-0.7,0.2l-0.3-0.4c0.3-0.1,0.6-0.2,0.9-0.2
			C15,9.1,15.5,8.5,15.8,8.8z"/>
		<path d="M5.7,9.8l2.5,1.4l0,0.5l-2.8-1.6C5.1,10.1,4.8,10,4.6,10c-0.3,0-0.5,0.1-0.7,0.2l0,0l-0.1-0.1l0-0.1
			c0.3-0.3,0.6-0.4,1-0.4C5,9.6,5.3,9.7,5.7,9.8z"/>
		<path d="M14.2,11l-1-2.1c-0.1-0.2-0.4-0.4-0.7-0.4h-0.7c-0.1,0-0.2,0.1-0.2,0.2c0,0.1,0.1,0.2,0.2,0.2l0.7,0
			c0.1,0,0.2,0.1,0.3,0.2l1,2L14.2,11z"/>
		<rect x="4.7" y="11.6" width="1.9" height="0.9"/>
		<rect x="6.5" y="12.5" width="0.9" height="1.9"/>
		<rect x="4.7" y="14.4" width="1.9" height="0.9"/>
		<rect x="3.8" y="12.5" width="0.9" height="1.9"/>
		<rect x="14" y="11.6" width="1.9" height="0.9"/>
		<rect x="15.8" y="12.5" width="0.9" height="1.9"/>
		<rect x="14" y="14.4" width="1.9" height="0.9"/>
		<rect x="13" y="12.5" width="0.9" height="1.9"/>
		<path d="M7.5,13.4c0,1-0.8,1.9-1.9,1.9s-1.9-0.8-1.9-1.9s0.8-1.9,1.9-1.9S7.5,12.4,7.5,13.4z M6.5,12.5H4.7v1.9h1.9V12.5z"/>
		<path d="M16.7,13.4c0,1-0.8,1.9-1.9,1.9S13,14.5,13,13.4s0.8-1.9,1.9-1.9S16.7,12.4,16.7,13.4z M15.8,12.5H14v1.9h1.9V12.5z"/>
		<path d="M10,6H9.6C8.9,6,8.4,5.5,8.4,4.8V4.4c0-0.7,0.5-1.2,1.2-1.2H10c0.7,0,1.2,0.5,1.2,1.2v0.4C11.2,5.5,10.6,6,10,6z"/>
	</g>
</g>
<g id="icons">
	<g>
		<path d="M10.1,12.4c-0.2,0.2-0.4,0.3-0.6,0.3l0-3.2L11.7,9l0.6,0.9L10.1,12.4z"/>
		<path d="M7.6,5.2L7.6,5.2H7L5.3,7.8C5.2,7.9,5.2,8,5.2,8.2c0,0.3,0.1,0.5,0.4,0.7l2.1,1.3v2.2c0,0.3,0.5,0.6,0.8,0.6
			c0.3,0,0.1-0.3,0.1-0.6V9.6c0,0,0.5-0.4,0-0.7L7.1,8.1l1.1-1.6l0.6,0.9C8.9,7.6,9,7.6,9.2,7.6l1.5,0c0.6,0,0.6-0.8,0-0.8H9.5
			L8.6,6.2H7.6V5.2z"/>
		<path d="M15.1,8l-0.3,0.8l-0.1,0.1l0.4,0c-0.3-0.1-0.9-0.2-1.2-0.2c-0.2,0-0.4,0-0.7,0.2l-0.3-0.4c0.3-0.1,0.6-0.2,0.9-0.2
			C14.2,8.3,14.8,7.8,15.1,8z"/>
		<path d="M4.9,9.1l2.5,1.4l0,0.5L4.6,9.5C4.4,9.3,4.1,9.3,3.9,9.3c-0.3,0-0.5,0.1-0.7,0.2l0,0L3,9.3l0-0.1c0.3-0.3,0.6-0.4,1-0.4
			C4.3,8.9,4.6,8.9,4.9,9.1z"/>
		<path d="M13.4,10.2l-1-2.1c-0.1-0.2-0.4-0.4-0.7-0.4H11c-0.1,0-0.2,0.1-0.2,0.2c0,0.1,0.1,0.2,0.2,0.2l0.7,0
			c0.1,0,0.2,0.1,0.3,0.2l1,2L13.4,10.2z"/>
		<rect x="3.9" y="10.8" width="1.9" height="0.9"/>
		<rect x="5.8" y="11.8" width="0.9" height="1.9"/>
		<rect x="3.9" y="13.6" width="1.9" height="0.9"/>
		<rect x="3" y="11.8" width="0.9" height="1.9"/>
		<rect x="13.2" y="10.8" width="1.9" height="0.9"/>
		<rect x="15.1" y="11.8" width="0.9" height="1.9"/>
		<rect x="13.2" y="13.6" width="1.9" height="0.9"/>
		<rect x="12.3" y="11.8" width="0.9" height="1.9"/>
		<path d="M6.7,12.7c0,1-0.8,1.9-1.9,1.9S3,13.7,3,12.7s0.8-1.9,1.9-1.9S6.7,11.7,6.7,12.7z M5.8,11.8H3.9v1.9h1.9V11.8z"/>
		<path d="M16,12.7c0,1-0.8,1.9-1.9,1.9s-1.9-0.8-1.9-1.9s0.8-1.9,1.9-1.9S16,11.7,16,12.7z M15.1,11.8h-1.9v1.9h1.9V11.8z"/>
		<path d="M9.2,5.2H8.9C8.2,5.2,7.6,4.7,7.6,4V3.7c0-0.7,0.5-1.2,1.2-1.2h0.4c0.7,0,1.2,0.5,1.2,1.2V4C10.4,4.7,9.9,5.2,9.2,5.2z"/>
	</g>
</g>
</svg>
