<?xml version="1.0" encoding="utf-8"?>
<!-- Generator: Adobe Illustrator 18.1.1, SVG Export Plug-In . SVG Version: 6.00 Build 0)  -->
<svg version="1.1" xmlns="http://www.w3.org/2000/svg" xmlns:xlink="http://www.w3.org/1999/xlink" x="0px" y="0px"
	 viewBox="0 0 18 18" enable-background="new 0 0 18 18" xml:space="preserve">
<g id="shadows">
	<g opacity="0.2">
		<path d="M10.883,13.139c-0.156,0.157-0.37,0.289-0.611,0.289l-0.002-3.225l2.224-0.489l0.557,0.948L10.883,13.139z"/>
		<path d="M8.393,6L8.393,6H7.795L6.029,8.518c-0.072,0.12-0.112,0.261-0.112,0.409c0,0.279,0.141,0.521,0.354,0.664l2.122,1.314
			v2.236c0,0.316,0.502,0.574,0.818,0.574c0.315,0,0.111-0.258,0.111-0.574v-2.792c0,0,0.537-0.445,0.032-0.688L7.877,8.888
			l1.076-1.642l0.571,0.896C9.638,8.323,9.792,8.394,9.933,8.39l1.466-0.006c0.596,0,0.596-0.776,0-0.774H10.21L9.321,6.929H8.393V6
			z"/>
		<path d="M15.821,8.786L15.54,9.543l-0.129,0.129l0.41,0.043c-0.253-0.108-0.87-0.224-1.165-0.224
			c-0.195,0-0.436-0.001-0.715,0.224l-0.258-0.441c0.322-0.096,0.586-0.181,0.862-0.181C14.986,9.092,15.534,8.517,15.821,8.786z"/>
		<path d="M5.659,9.844l2.485,1.37l0.006,0.55l-2.838-1.563c-0.205-0.105-0.481-0.166-0.677-0.166c-0.292,0-0.456,0.068-0.707,0.175
			l-0.046,0.006l-0.13-0.129l0.038-0.091c0.288-0.27,0.581-0.36,1.02-0.36C5.034,9.636,5.307,9.663,5.659,9.844z"/>
		<path d="M14.168,10.999L13.14,8.945c-0.135-0.246-0.397-0.415-0.698-0.415H11.77c-0.13,0-0.237,0.108-0.237,0.24
			c0,0.132,0.106,0.237,0.237,0.237l0.671-0.003c0.112,0,0.238,0.076,0.286,0.187l0.968,1.972L14.168,10.999z"/>
		<rect x="4.679" y="11.571" width="1.857" height="0.929"/>
		<rect x="6.536" y="12.5" width="0.929" height="1.857"/>
		<rect x="4.679" y="14.357" width="1.857" height="0.929"/>
		<rect x="3.75" y="12.5" width="0.929" height="1.857"/>
		<rect x="13.964" y="11.571" width="1.857" height="0.929"/>
		<rect x="15.821" y="12.5" width="0.929" height="1.857"/>
		<rect x="13.964" y="14.357" width="1.857" height="0.929"/>
		<rect x="13.036" y="12.5" width="0.929" height="1.857"/>
		<path d="M7.464,13.429c0,1.026-0.831,1.857-1.857,1.857S3.75,14.454,3.75,13.429s0.831-1.857,1.857-1.857
			S7.464,12.403,7.464,13.429z M6.536,12.5H4.679v1.857h1.857V12.5z"/>
		<path d="M16.75,13.429c0,1.026-0.831,1.857-1.857,1.857s-1.857-0.832-1.857-1.857s0.831-1.857,1.857-1.857
			S16.75,12.403,16.75,13.429z M15.821,12.5h-1.857v1.857h1.857V12.5z"/>
		<path d="M9.971,6H9.6C8.933,6,8.393,5.46,8.393,4.793V4.422c0-0.667,0.541-1.207,1.207-1.207h0.371
			c0.667,0,1.207,0.54,1.207,1.207v0.371C11.179,5.46,10.638,6,9.971,6z"/>
	</g>
</g>
<g id="icons">
	<g>
		<path fill="#FFFFFF" d="M10.133,12.389c-0.156,0.157-0.37,0.289-0.611,0.289L9.52,9.454l2.224-0.489l0.557,0.948L10.133,12.389z"
			/>
		<path fill="#FFFFFF" d="M7.643,5.25L7.643,5.25H7.045L5.279,7.768c-0.072,0.12-0.112,0.261-0.112,0.409
			c0,0.279,0.141,0.521,0.354,0.664l2.122,1.314v2.236c0,0.316,0.502,0.574,0.818,0.574c0.315,0,0.111-0.258,0.111-0.574V9.599
			c0,0,0.537-0.445,0.032-0.688L7.127,8.138l1.076-1.642l0.571,0.896C8.888,7.573,9.042,7.644,9.183,7.64l1.466-0.006
			c0.596,0,0.596-0.776,0-0.774H9.46L8.571,6.179H7.643V5.25z"/>
		<path fill="#FFFFFF" d="M15.071,8.036L14.79,8.793l-0.129,0.129l0.41,0.043c-0.253-0.108-0.87-0.224-1.165-0.224
			c-0.195,0-0.436-0.001-0.715,0.224l-0.258-0.441c0.322-0.096,0.586-0.181,0.862-0.181C14.236,8.342,14.784,7.767,15.071,8.036z"/>
		<path fill="#FFFFFF" d="M4.909,9.094l2.485,1.37l0.006,0.55L4.562,9.451C4.356,9.346,4.081,9.284,3.884,9.284
			c-0.292,0-0.456,0.068-0.707,0.175L3.131,9.466L3,9.337l0.038-0.091c0.288-0.27,0.581-0.36,1.02-0.36
			C4.284,8.886,4.557,8.913,4.909,9.094z"/>
		<path fill="#FFFFFF" d="M13.418,10.249L12.39,8.195c-0.135-0.246-0.397-0.415-0.698-0.415H11.02c-0.13,0-0.237,0.108-0.237,0.24
			c0,0.132,0.106,0.237,0.237,0.237l0.671-0.003c0.112,0,0.238,0.076,0.286,0.187l0.968,1.972L13.418,10.249z"/>
		<rect x="3.929" y="10.821" fill="#FFFFFF" width="1.857" height="0.929"/>
		<rect x="5.786" y="11.75" fill="#FFFFFF" width="0.929" height="1.857"/>
		<rect x="3.929" y="13.607" fill="#FFFFFF" width="1.857" height="0.929"/>
		<rect x="3" y="11.75" fill="#FFFFFF" width="0.929" height="1.857"/>
		<rect x="13.214" y="10.821" fill="#FFFFFF" width="1.857" height="0.929"/>
		<rect x="15.071" y="11.75" fill="#FFFFFF" width="0.929" height="1.857"/>
		<rect x="13.214" y="13.607" fill="#FFFFFF" width="1.857" height="0.929"/>
		<rect x="12.286" y="11.75" fill="#FFFFFF" width="0.929" height="1.857"/>
		<path fill="#FFFFFF" d="M6.714,12.679c0,1.026-0.831,1.857-1.857,1.857S3,13.704,3,12.679s0.831-1.857,1.857-1.857
			S6.714,11.653,6.714,12.679z M5.786,11.75H3.929v1.857h1.857V11.75z"/>
		<path fill="#FFFFFF" d="M16,12.679c0,1.026-0.831,1.857-1.857,1.857s-1.857-0.832-1.857-1.857s0.831-1.857,1.857-1.857
			S16,11.653,16,12.679z M15.071,11.75h-1.857v1.857h1.857V11.75z"/>
		<path fill="#FFFFFF" d="M9.221,5.25H8.85c-0.667,0-1.207-0.54-1.207-1.207V3.672c0-0.667,0.541-1.207,1.207-1.207h0.371
			c0.667,0,1.207,0.54,1.207,1.207v0.371C10.429,4.71,9.888,5.25,9.221,5.25z"/>
	</g>
</g>
</svg>
