<?xml version="1.0" encoding="utf-8"?>
<!-- Generator: Adobe Illustrator 18.1.1, SVG Export Plug-In . SVG Version: 6.00 Build 0)  -->
<svg version="1.1" xmlns="http://www.w3.org/2000/svg" xmlns:xlink="http://www.w3.org/1999/xlink" x="0px" y="0px"
	 viewBox="0 0 24 24" enable-background="new 0 0 24 24" xml:space="preserve">
<g id="shadows">
	<g opacity="0.2">
		<path d="M14.328,17.482c-0.204,0.206-0.512,0.364-0.828,0.364v-4.203l3.091-0.757v1.545L14.328,17.482z"/>
		<path d="M11.955,8.25h-0.773V7.519c0,0-0.703,0.153-0.893,0.394l-2.308,3.526c-0.094,0.157-0.147,0.341-0.147,0.535
			c0,0.364,0.184,0.682,0.462,0.868l3.096,1.719v2.924c0,0.413,0.335,0.75,0.749,0.75c0.412,0,0.586-0.337,0.586-0.75v-3.651
			c0,0,0.26-0.582-0.4-0.9l-1.93-1.011l1.407-2.148l0.747,1.172c0.149,0.237,0.351,0.398,0.535,0.394h1.917
			c0.78,0,0.78-1.092,0-1.088h-1.554l-1.493-2.28V8.25z"/>
		<path d="M20.371,12.659l0.047,0.12c0,0.092-0.076,0.169-0.169,0.169l-0.061-0.008c-0.331-0.141-0.541-0.229-0.927-0.229
			c-0.255,0-0.57,0.088-0.935,0.382l-0.337-0.666c0.421-0.125,0.766-0.312,1.127-0.312C19.693,12.114,19.995,12.309,20.371,12.659z"
			/>
		<path d="M7.497,13.173l2.912,1.791v0.719l-3.367-2.024c-0.268-0.137-0.629-0.237-0.886-0.237c-0.382,0-0.209,0.088-0.539,0.229
			l-0.061,0.008c-0.092,0-0.17-0.076-0.17-0.168l0.049-0.12c0.376-0.353,0.374-0.484,0.948-0.484
			C6.68,12.886,7.036,12.936,7.497,13.173L7.497,13.173z"/>
		<path d="M7.704,19.763c1.035,0,1.874-0.858,1.874-1.919c0-1.06-0.839-1.919-1.874-1.919S5.83,16.784,5.83,17.845
			C5.83,18.905,6.669,19.763,7.704,19.763z M5,17.846c0-1.527,1.211-2.767,2.704-2.767c1.494,0,2.705,1.24,2.705,2.767
			c0,1.527-1.211,2.767-2.705,2.767C6.211,20.614,5,19.373,5,17.846z"/>
		<path d="M19.235,19.763c1.058,0,1.918-0.858,1.918-1.919c0-1.06-0.858-1.919-1.918-1.919c-1.06,0-1.917,0.858-1.917,1.919
			C17.318,18.905,18.177,19.763,19.235,19.763z M16.47,17.846c0-1.527,1.237-2.767,2.765-2.767c1.527,0,2.765,1.24,2.765,2.767
			c0,1.527-1.238,2.767-2.765,2.767C17.706,20.614,16.47,19.373,16.47,17.846z"/>
		<path d="M18.623,14.432l-1.26-2.435c-0.176-0.321-0.604-0.656-0.998-0.656h-0.878c-0.17,0-0.31,0.254-0.31,0.427
			s0.139,0.346,0.31,0.346h0.878c0.147,0,0.312,0.06,0.374,0.205l1.266,2.113H18.623z"/>
		<path d="M14.273,6.705h0.734c0.025-0.125,0.039-0.254,0.039-0.386c0-1.067-0.865-1.932-1.932-1.932s-1.932,0.865-1.932,1.932
			c0,0.437,0.15,0.835,0.395,1.159h2.696V6.705z"/>
		<circle cx="13.114" cy="7.091" r="1.159"/>
	</g>
</g>
<g id="icons">
	<g>
		<path d="M13.328,16.482c-0.204,0.206-0.512,0.364-0.828,0.364v-4.203l3.091-0.757v1.545L13.328,16.482z"/>
		<path d="M10.955,7.25h-0.773V6.519c0,0-0.703,0.153-0.893,0.394l-2.308,3.526c-0.094,0.157-0.147,0.341-0.147,0.535
			c0,0.364,0.184,0.682,0.462,0.868l3.096,1.719v2.924c0,0.413,0.335,0.75,0.749,0.75c0.412,0,0.586-0.337,0.586-0.75v-3.651
			c0,0,0.26-0.582-0.4-0.9l-1.93-1.011l1.407-2.148l0.747,1.172c0.149,0.237,0.351,0.398,0.535,0.394h1.917
			c0.78,0,0.78-1.092,0-1.088h-1.554l-1.493-2.28V7.25z"/>
		<path d="M19.371,11.659l0.047,0.12c0,0.092-0.076,0.169-0.169,0.169l-0.061-0.008c-0.331-0.141-0.541-0.229-0.927-0.229
			c-0.255,0-0.57,0.088-0.935,0.382l-0.337-0.666c0.421-0.125,0.766-0.312,1.127-0.312C18.693,11.114,18.995,11.309,19.371,11.659z"
			/>
		<path d="M6.497,12.173l2.912,1.791v0.719l-3.367-2.024c-0.268-0.137-0.629-0.237-0.886-0.237c-0.382,0-0.209,0.088-0.539,0.229
			l-0.061,0.008c-0.092,0-0.17-0.076-0.17-0.168l0.049-0.12c0.376-0.353,0.374-0.484,0.948-0.484
			C5.68,11.886,6.036,11.936,6.497,12.173L6.497,12.173z"/>
		<path d="M6.704,18.763c1.035,0,1.874-0.858,1.874-1.919s-0.839-1.919-1.874-1.919S4.83,15.784,4.83,16.845
			S5.669,18.763,6.704,18.763z M4,16.846c0-1.527,1.211-2.767,2.704-2.767c1.494,0,2.705,1.24,2.705,2.767s-1.211,2.767-2.705,2.767
			C5.211,19.614,4,18.373,4,16.846z"/>
		<path d="M18.235,18.763c1.058,0,1.918-0.858,1.918-1.919s-0.858-1.919-1.918-1.919c-1.06,0-1.917,0.858-1.917,1.919
			S17.177,18.763,18.235,18.763z M15.47,16.846c0-1.527,1.237-2.767,2.765-2.767c1.527,0,2.765,1.24,2.765,2.767
			s-1.238,2.767-2.765,2.767C16.706,19.614,15.47,18.373,15.47,16.846z"/>
		<path d="M17.623,13.432l-1.26-2.435c-0.176-0.321-0.604-0.656-0.998-0.656h-0.878c-0.17,0-0.31,0.254-0.31,0.427
			s0.139,0.346,0.31,0.346h0.878c0.147,0,0.312,0.06,0.374,0.205l1.266,2.113H17.623z"/>
		<path d="M13.273,5.705h0.734c0.025-0.125,0.039-0.254,0.039-0.386c0-1.067-0.865-1.932-1.932-1.932s-1.932,0.865-1.932,1.932
			c0,0.437,0.15,0.835,0.395,1.159h2.696V5.705z"/>
		<circle cx="12.114" cy="6.091" r="1.159"/>
	</g>
</g>
</svg>
