<?xml version="1.0" encoding="utf-8"?>
<!-- Generator: Adobe Illustrator 18.1.1, SVG Export Plug-In . SVG Version: 6.00 Build 0)  -->
<svg version="1.1" xmlns="http://www.w3.org/2000/svg" xmlns:xlink="http://www.w3.org/1999/xlink" x="0px" y="0px"
	 viewBox="0 0 24 24" enable-background="new 0 0 24 24" xml:space="preserve">
<g id="shadows">
	<g opacity="0.2">
		<path d="M14.3,17.5c-0.2,0.2-0.5,0.4-0.8,0.4v-4.2l3.1-0.8v1.5L14.3,17.5z"/>
		<path d="M12,8.2h-0.8V7.5c0,0-0.7,0.2-0.9,0.4L8,11.4c-0.1,0.2-0.1,0.3-0.1,0.5c0,0.4,0.2,0.7,0.5,0.9l3.1,1.7v2.9
			c0,0.4,0.3,0.8,0.7,0.8c0.4,0,0.6-0.3,0.6-0.8v-3.7c0,0,0.3-0.6-0.4-0.9l-1.9-1l1.4-2.1l0.7,1.2c0.1,0.2,0.4,0.4,0.5,0.4H15
			c0.8,0,0.8-1.1,0-1.1h-1.6L12,8V8.2z"/>
		<path d="M20.4,12.7l0,0.1c0,0.1-0.1,0.2-0.2,0.2l-0.1,0c-0.3-0.1-0.5-0.2-0.9-0.2c-0.3,0-0.6,0.1-0.9,0.4L18,12.4
			c0.4-0.1,0.8-0.3,1.1-0.3C19.7,12.1,20,12.3,20.4,12.7z"/>
		<path d="M7.5,13.2l2.9,1.8v0.7l-3.4-2c-0.3-0.1-0.6-0.2-0.9-0.2c-0.4,0-0.2,0.1-0.5,0.2l-0.1,0c-0.1,0-0.2-0.1-0.2-0.2l0-0.1
			c0.4-0.4,0.4-0.5,0.9-0.5C6.7,12.9,7,12.9,7.5,13.2L7.5,13.2z"/>
		<path d="M7.7,19.8c1,0,1.9-0.9,1.9-1.9c0-1.1-0.8-1.9-1.9-1.9s-1.9,0.9-1.9,1.9C5.8,18.9,6.7,19.8,7.7,19.8z M5,17.8
			c0-1.5,1.2-2.8,2.7-2.8c1.5,0,2.7,1.2,2.7,2.8c0,1.5-1.2,2.8-2.7,2.8C6.2,20.6,5,19.4,5,17.8z"/>
		<path d="M19.2,19.8c1.1,0,1.9-0.9,1.9-1.9c0-1.1-0.9-1.9-1.9-1.9c-1.1,0-1.9,0.9-1.9,1.9C17.3,18.9,18.2,19.8,19.2,19.8z
			 M16.5,17.8c0-1.5,1.2-2.8,2.8-2.8c1.5,0,2.8,1.2,2.8,2.8c0,1.5-1.2,2.8-2.8,2.8C17.7,20.6,16.5,19.4,16.5,17.8z"/>
		<path d="M18.6,14.4L17.4,12c-0.2-0.3-0.6-0.7-1-0.7h-0.9c-0.2,0-0.3,0.3-0.3,0.4s0.1,0.3,0.3,0.3h0.9c0.1,0,0.3,0.1,0.4,0.2
			l1.3,2.1H18.6z"/>
		<path d="M14.3,6.7H15c0-0.1,0-0.3,0-0.4c0-1.1-0.9-1.9-1.9-1.9s-1.9,0.9-1.9,1.9c0,0.4,0.2,0.8,0.4,1.2h2.7V6.7z"/>
		<circle cx="13.1" cy="7.1" r="1.2"/>
	</g>
</g>
<g id="icons">
	<g>
		<path d="M13.3,16.5c-0.2,0.2-0.5,0.4-0.8,0.4v-4.2l3.1-0.8v1.5L13.3,16.5z"/>
		<path d="M11,7.2h-0.8V6.5c0,0-0.7,0.2-0.9,0.4L7,10.4c-0.1,0.2-0.1,0.3-0.1,0.5c0,0.4,0.2,0.7,0.5,0.9l3.1,1.7v2.9
			c0,0.4,0.3,0.8,0.7,0.8c0.4,0,0.6-0.3,0.6-0.8v-3.7c0,0,0.3-0.6-0.4-0.9l-1.9-1l1.4-2.1l0.7,1.2c0.1,0.2,0.4,0.4,0.5,0.4H14
			c0.8,0,0.8-1.1,0-1.1h-1.6L11,7V7.2z"/>
		<path d="M19.4,11.7l0,0.1c0,0.1-0.1,0.2-0.2,0.2l-0.1,0c-0.3-0.1-0.5-0.2-0.9-0.2c-0.3,0-0.6,0.1-0.9,0.4L17,11.4
			c0.4-0.1,0.8-0.3,1.1-0.3C18.7,11.1,19,11.3,19.4,11.7z"/>
		<path d="M6.5,12.2L9.4,14v0.7l-3.4-2c-0.3-0.1-0.6-0.2-0.9-0.2c-0.4,0-0.2,0.1-0.5,0.2l-0.1,0c-0.1,0-0.2-0.1-0.2-0.2l0-0.1
			c0.4-0.4,0.4-0.5,0.9-0.5C5.7,11.9,6,11.9,6.5,12.2L6.5,12.2z"/>
		<path d="M6.7,18.8c1,0,1.9-0.9,1.9-1.9s-0.8-1.9-1.9-1.9s-1.9,0.9-1.9,1.9S5.7,18.8,6.7,18.8z M4,16.8c0-1.5,1.2-2.8,2.7-2.8
			c1.5,0,2.7,1.2,2.7,2.8s-1.2,2.8-2.7,2.8C5.2,19.6,4,18.4,4,16.8z"/>
		<path d="M18.2,18.8c1.1,0,1.9-0.9,1.9-1.9s-0.9-1.9-1.9-1.9c-1.1,0-1.9,0.9-1.9,1.9S17.2,18.8,18.2,18.8z M15.5,16.8
			c0-1.5,1.2-2.8,2.8-2.8c1.5,0,2.8,1.2,2.8,2.8s-1.2,2.8-2.8,2.8C16.7,19.6,15.5,18.4,15.5,16.8z"/>
		<path d="M17.6,13.4L16.4,11c-0.2-0.3-0.6-0.7-1-0.7h-0.9c-0.2,0-0.3,0.3-0.3,0.4s0.1,0.3,0.3,0.3h0.9c0.1,0,0.3,0.1,0.4,0.2
			l1.3,2.1H17.6z"/>
		<path d="M13.3,5.7H14c0-0.1,0-0.3,0-0.4c0-1.1-0.9-1.9-1.9-1.9s-1.9,0.9-1.9,1.9c0,0.4,0.2,0.8,0.4,1.2h2.7V5.7z"/>
		<circle cx="12.1" cy="6.1" r="1.2"/>
	</g>
</g>
</svg>
