<?xml version="1.0" encoding="utf-8"?>
<!-- Generator: Adobe Illustrator 18.0.0, SVG Export Plug-In . SVG Version: 6.00 Build 0)  -->
<!DOCTYPE svg PUBLIC "-//W3C//DTD SVG 1.1//EN" "http://www.w3.org/Graphics/SVG/1.1/DTD/svg11.dtd" [
	<!ENTITY ns_flows "http://ns.adobe.com/Flows/1.0/">
	<!ENTITY ns_extend "http://ns.adobe.com/Extensibility/1.0/">
	<!ENTITY ns_ai "http://ns.adobe.com/AdobeIllustrator/10.0/">
	<!ENTITY ns_graphs "http://ns.adobe.com/Graphs/1.0/">
	<!ENTITY st0 "opacity:0.1;">
	<!ENTITY st1 "fill:#010101;">
	<!ENTITY st2 "opacity:0.2;">
]>
<svg version="1.1" id="Layer_1" xmlns:x="&ns_extend;" xmlns:i="&ns_ai;" xmlns:graph="&ns_graphs;"
	 xmlns="http://www.w3.org/2000/svg" xmlns:xlink="http://www.w3.org/1999/xlink" xmlns:a="http://ns.adobe.com/AdobeSVGViewerExtensions/3.0/"
	 x="0px" y="0px" width="24px" height="23px" viewBox="0 0 24 23" style="enable-background:new 0 0 24 23;" xml:space="preserve">
<g style="&st0;">
	<path style="&st1;" d="M14.1,18.9c-0.3,0.3-0.7,0.5-1.1,0.5V14l4-1v2L14.1,18.9z"/>
	<path style="&st1;" d="M11,7h-1V6.1c0,0-0.9,0.2-1.2,0.5l-3,4.6c-0.1,0.2-0.2,0.4-0.2,0.7c0,0.5,0.2,0.9,0.6,1.1l4,2.2V19
		c0,0.5,0.4,1,1,1c0.5,0,0.8-0.4,0.8-1v-4.7c0,0,0.3-0.8-0.5-1.2L9,11.8L10.8,9l1,1.5c0.2,0.3,0.5,0.5,0.7,0.5h2.5c1,0,1-1.4,0-1.4
		h-2l-1.9-3V7z"/>
	<path style="&st1;" d="M21.9,12.7l0.1,0.2c0,0.1-0.1,0.2-0.2,0.2l-0.1,0c-0.4-0.2-0.7-0.3-1.2-0.3c-0.3,0-0.7,0.1-1.2,0.5l-0.4-0.9
		c0.5-0.2,1-0.4,1.5-0.4C21,12,21.4,12.3,21.9,12.7z"/>
	<path style="&st1;" d="M5.2,13.4L9,15.7v0.9L4.6,14c-0.3-0.2-0.8-0.3-1.1-0.3c-0.5,0-0.3,0.1-0.7,0.3l-0.1,0
		c-0.1,0-0.2-0.1-0.2-0.2l0.1-0.2C3.1,13.2,3,13,3.8,13C4.2,13,4.6,13.1,5.2,13.4L5.2,13.4z"/>
	<path style="&st1;" d="M5.5,21.9c1.3,0,2.4-1.1,2.4-2.5s-1.1-2.5-2.4-2.5S3.1,18,3.1,19.4S4.2,21.9,5.5,21.9z M2,19.4
		c0-2,1.6-3.6,3.5-3.6c1.9,0,3.5,1.6,3.5,3.6S7.4,23,5.5,23C3.6,23,2,21.4,2,19.4z"/>
	<path style="&st1;" d="M20.4,21.9c1.4,0,2.5-1.1,2.5-2.5s-1.1-2.5-2.5-2.5c-1.4,0-2.5,1.1-2.5,2.5S19.1,21.9,20.4,21.9z M16.8,19.4
		c0-2,1.6-3.6,3.6-3.6c2,0,3.6,1.6,3.6,3.6S22.4,23,20.4,23C18.4,23,16.8,21.4,16.8,19.4z"/>
	<path style="&st1;" d="M19.6,15L18,11.8c-0.2-0.4-0.8-0.8-1.3-0.8h-1.1c-0.2,0-0.4,0.3-0.4,0.6s0.2,0.4,0.4,0.4h1.1
		c0.2,0,0.4,0.1,0.5,0.3l1.6,2.7H19.6z"/>
	<path style="&st1;" d="M14,5h0.9C15,4.8,15,4.7,15,4.5C15,3.1,13.9,2,12.5,2S10,3.1,10,4.5c0,0.6,0.2,1.1,0.5,1.5H14V5z"/>
	<circle style="&st1;" cx="12.5" cy="5.5" r="1.5"/>
</g>
<g style="&st2;">
	<path style="&st1;" d="M13.1,17.9c-0.3,0.3-0.7,0.5-1.1,0.5V13l4-1v2L13.1,17.9z"/>
	<path style="&st1;" d="M10,6H9V5.1c0,0-0.9,0.2-1.2,0.5l-3,4.6c-0.1,0.2-0.2,0.4-0.2,0.7c0,0.5,0.2,0.9,0.6,1.1l4,2.2V18
		c0,0.5,0.4,1,1,1c0.5,0,0.8-0.4,0.8-1v-4.7c0,0,0.3-0.8-0.5-1.2L8,10.8L9.8,8l1,1.5C11,9.8,11.2,10,11.5,10h2.5c1,0,1-1.4,0-1.4h-2
		l-1.9-3V6z"/>
	<path style="&st1;" d="M20.9,11.7l0.1,0.2c0,0.1-0.1,0.2-0.2,0.2l-0.1,0c-0.4-0.2-0.7-0.3-1.2-0.3c-0.3,0-0.7,0.1-1.2,0.5l-0.4-0.9
		c0.5-0.2,1-0.4,1.5-0.4C20,11,20.4,11.3,20.9,11.7z"/>
	<path style="&st1;" d="M4.2,12.4L8,14.7v0.9L3.6,13c-0.3-0.2-0.8-0.3-1.1-0.3c-0.5,0-0.3,0.1-0.7,0.3l-0.1,0
		c-0.1,0-0.2-0.1-0.2-0.2l0.1-0.2C2.1,12.2,2,12,2.8,12C3.2,12,3.6,12.1,4.2,12.4L4.2,12.4z"/>
	<path style="&st1;" d="M4.5,20.9c1.3,0,2.4-1.1,2.4-2.5s-1.1-2.5-2.4-2.5S2.1,17,2.1,18.4S3.2,20.9,4.5,20.9z M1,18.4
		c0-2,1.6-3.6,3.5-3.6c1.9,0,3.5,1.6,3.5,3.6S6.4,22,4.5,22C2.6,22,1,20.4,1,18.4z"/>
	<path style="&st1;" d="M19.4,20.9c1.4,0,2.5-1.1,2.5-2.5s-1.1-2.5-2.5-2.5c-1.4,0-2.5,1.1-2.5,2.5S18.1,20.9,19.4,20.9z M15.8,18.4
		c0-2,1.6-3.6,3.6-3.6c2,0,3.6,1.6,3.6,3.6S21.4,22,19.4,22C17.4,22,15.8,20.4,15.8,18.4z"/>
	<path style="&st1;" d="M18.6,14L17,10.8c-0.2-0.4-0.8-0.8-1.3-0.8h-1.1c-0.2,0-0.4,0.3-0.4,0.6s0.2,0.4,0.4,0.4h1.1
		c0.2,0,0.4,0.1,0.5,0.3l1.6,2.7H18.6z"/>
	<path style="&st1;" d="M13,4h0.9C14,3.8,14,3.7,14,3.5C14,2.1,12.9,1,11.5,1S9,2.1,9,3.5C9,4.1,9.2,4.6,9.5,5H13V4z"/>
	<circle style="&st1;" cx="11.5" cy="4.5" r="1.5"/>
</g>
<g>
	<path style="&st1;" d="M12.1,16.9c-0.3,0.3-0.7,0.5-1.1,0.5V12l4-1v2L12.1,16.9z"/>
	<path style="&st1;" d="M9,5H8V4.1c0,0-0.9,0.2-1.2,0.5l-3,4.6C3.7,9.3,3.7,9.6,3.7,9.8c0,0.5,0.2,0.9,0.6,1.1l4,2.2V17
		c0,0.5,0.4,1,1,1c0.5,0,0.8-0.4,0.8-1v-4.7c0,0,0.3-0.8-0.5-1.2L7,9.8L8.8,7l1,1.5C10,8.8,10.2,9,10.5,9h2.5c1,0,1-1.4,0-1.4h-2
		L9,4.6V5z"/>
	<path style="&st1;" d="M19.9,10.7l0.1,0.2c0,0.1-0.1,0.2-0.2,0.2l-0.1,0c-0.4-0.2-0.7-0.3-1.2-0.3c-0.3,0-0.7,0.1-1.2,0.5l-0.4-0.9
		c0.5-0.2,1-0.4,1.5-0.4C19,10,19.4,10.3,19.9,10.7z"/>
	<path style="&st1;" d="M3.2,11.4L7,13.7v0.9L2.6,12c-0.3-0.2-0.8-0.3-1.1-0.3c-0.5,0-0.3,0.1-0.7,0.3l-0.1,0
		c-0.1,0-0.2-0.1-0.2-0.2l0.1-0.2C1.1,11.2,1,11,1.8,11C2.2,11,2.6,11.1,3.2,11.4L3.2,11.4z"/>
	<path style="&st1;" d="M3.5,19.9c1.3,0,2.4-1.1,2.4-2.5s-1.1-2.5-2.4-2.5S1.1,16,1.1,17.4S2.2,19.9,3.5,19.9z M0,17.4
		c0-2,1.6-3.6,3.5-3.6c1.9,0,3.5,1.6,3.5,3.6S5.4,21,3.5,21C1.6,21,0,19.4,0,17.4z"/>
	<path style="&st1;" d="M18.4,19.9c1.4,0,2.5-1.1,2.5-2.5s-1.1-2.5-2.5-2.5c-1.4,0-2.5,1.1-2.5,2.5S17.1,19.9,18.4,19.9z M14.8,17.4
		c0-2,1.6-3.6,3.6-3.6c2,0,3.6,1.6,3.6,3.6S20.4,21,18.4,21C16.4,21,14.8,19.4,14.8,17.4z"/>
	<path style="&st1;" d="M17.6,13L16,9.8C15.8,9.4,15.2,9,14.7,9h-1.1c-0.2,0-0.4,0.3-0.4,0.6s0.2,0.4,0.4,0.4h1.1
		c0.2,0,0.4,0.1,0.5,0.3l1.6,2.7H17.6z"/>
	<path style="&st1;" d="M12,3h0.9C13,2.8,13,2.7,13,2.5C13,1.1,11.9,0,10.5,0S8,1.1,8,2.5C8,3.1,8.2,3.6,8.5,4H12V3z"/>
	<circle style="&st1;" cx="10.5" cy="3.5" r="1.5"/>
</g>
</svg>
