<?xml version="1.0" encoding="utf-8"?>
<!-- Generator: Adobe Illustrator 18.1.1, SVG Export Plug-In . SVG Version: 6.00 Build 0)  -->
<svg version="1.1" xmlns="http://www.w3.org/2000/svg" xmlns:xlink="http://www.w3.org/1999/xlink" x="0px" y="0px"
	 viewBox="0 0 12 12" enable-background="new 0 0 12 12" xml:space="preserve">
<g id="shadows">
	<g opacity="0.2">
		<path d="M6.4,8.7C6.3,8.8,6.2,8.9,6,8.9l0-2.2l1.5-0.3L7.9,7L6.4,8.7z"/>
		<path d="M4.7,3.7L4.7,3.7H4.3L3.1,5.5C3,5.6,3,5.7,3,5.8C3,6,3.1,6.1,3.2,6.2l1.5,0.9v1.5c0,0.2,0.3,0.4,0.6,0.4
			c0.2,0,0.1-0.2,0.1-0.4V6.8c0,0,0.4-0.3,0-0.5l-1-0.5l0.7-1.1l0.4,0.6c0.1,0.1,0.2,0.2,0.3,0.2l1,0c0.4,0,0.4-0.5,0-0.5H6L5.4,4.4
			H4.7V3.7z"/>
		<path d="M9.9,5.7L9.7,6.2L9.6,6.3l0.3,0C9.7,6.2,9.3,6.2,9.1,6.2c-0.1,0-0.3,0-0.5,0.2L8.4,6C8.6,5.9,8.8,5.9,9,5.9
			C9.3,5.9,9.7,5.5,9.9,5.7z"/>
		<path d="M2.8,6.4l1.7,0.9l0,0.4l-2-1.1C2.4,6.6,2.2,6.5,2.1,6.5c-0.2,0-0.3,0-0.5,0.1l0,0L1.5,6.6l0-0.1c0.2-0.2,0.4-0.2,0.7-0.2
			C2.4,6.3,2.6,6.3,2.8,6.4z"/>
		<path d="M8.7,7.2L8,5.8C7.9,5.6,7.7,5.5,7.5,5.5H7.1C7,5.5,6.9,5.6,6.9,5.7S7,5.8,7.1,5.8l0.5,0c0.1,0,0.2,0.1,0.2,0.1l0.7,1.4
			L8.7,7.2z"/>
		<rect x="2.1" y="7.6" width="1.3" height="0.6"/>
		<rect x="3.4" y="8.3" width="0.6" height="1.3"/>
		<rect x="2.1" y="9.5" width="1.3" height="0.6"/>
		<rect x="1.5" y="8.3" width="0.6" height="1.3"/>
		<rect x="8.6" y="7.6" width="1.3" height="0.6"/>
		<rect x="9.9" y="8.3" width="0.6" height="1.3"/>
		<rect x="8.6" y="9.5" width="1.3" height="0.6"/>
		<rect x="7.9" y="8.3" width="0.6" height="1.3"/>
		<path d="M4.1,8.9c0,0.7-0.6,1.3-1.3,1.3S1.5,9.6,1.5,8.9c0-0.7,0.6-1.3,1.3-1.3S4.1,8.2,4.1,8.9z M3.4,8.3H2.1v1.3h1.3V8.3z"/>
		<path d="M10.5,8.9c0,0.7-0.6,1.3-1.3,1.3S7.9,9.6,7.9,8.9c0-0.7,0.6-1.3,1.3-1.3S10.5,8.2,10.5,8.9z M9.9,8.3H8.6v1.3h1.3V8.3z"/>
		<path d="M5.8,3.7H5.6c-0.5,0-0.8-0.4-0.8-0.8V2.7c0-0.5,0.4-0.8,0.8-0.8h0.3c0.5,0,0.8,0.4,0.8,0.8v0.3C6.6,3.4,6.3,3.7,5.8,3.7z"
			/>
	</g>
</g>
<g id="icons">
	<g>
		<path d="M5.9,8.2C5.8,8.3,5.7,8.4,5.5,8.4l0-2.2l1.5-0.3l0.4,0.7L5.9,8.2z"/>
		<path d="M4.2,3.2L4.2,3.2H3.8L2.6,5c0,0.1-0.1,0.2-0.1,0.3c0,0.2,0.1,0.4,0.2,0.5l1.5,0.9v1.5c0,0.2,0.3,0.4,0.6,0.4
			c0.2,0,0.1-0.2,0.1-0.4V6.3c0,0,0.4-0.3,0-0.5l-1-0.5l0.7-1.1L5,4.7c0.1,0.1,0.2,0.2,0.3,0.2l1,0c0.4,0,0.4-0.5,0-0.5H5.5L4.9,3.9
			H4.2V3.2z"/>
		<path d="M9.4,5.2L9.2,5.7L9.1,5.8l0.3,0C9.2,5.7,8.8,5.7,8.6,5.7c-0.1,0-0.3,0-0.5,0.2L7.9,5.5c0.2-0.1,0.4-0.1,0.6-0.1
			C8.8,5.4,9.2,5,9.4,5.2z"/>
		<path d="M2.3,5.9L4,6.9l0,0.4l-2-1.1C1.9,6.1,1.7,6,1.6,6c-0.2,0-0.3,0-0.5,0.1l0,0L1,6.1L1,6c0.2-0.2,0.4-0.2,0.7-0.2
			C1.9,5.8,2.1,5.8,2.3,5.9z"/>
		<path d="M8.2,6.7L7.5,5.3C7.4,5.1,7.2,5,7,5H6.6C6.5,5,6.4,5.1,6.4,5.2s0.1,0.2,0.2,0.2l0.5,0c0.1,0,0.2,0.1,0.2,0.1l0.7,1.4
			L8.2,6.7z"/>
		<rect x="1.6" y="7.1" width="1.3" height="0.6"/>
		<rect x="2.9" y="7.8" width="0.6" height="1.3"/>
		<rect x="1.6" y="9" width="1.3" height="0.6"/>
		<rect x="1" y="7.8" width="0.6" height="1.3"/>
		<rect x="8.1" y="7.1" width="1.3" height="0.6"/>
		<rect x="9.4" y="7.8" width="0.6" height="1.3"/>
		<rect x="8.1" y="9" width="1.3" height="0.6"/>
		<rect x="7.4" y="7.8" width="0.6" height="1.3"/>
		<path d="M3.6,8.4c0,0.7-0.6,1.3-1.3,1.3S1,9.1,1,8.4s0.6-1.3,1.3-1.3S3.6,7.7,3.6,8.4z M2.9,7.8H1.6V9h1.3V7.8z"/>
		<path d="M10,8.4c0,0.7-0.6,1.3-1.3,1.3S7.4,9.1,7.4,8.4S8,7.1,8.7,7.1S10,7.7,10,8.4z M9.4,7.8H8.1V9h1.3V7.8z"/>
		<path d="M5.3,3.2H5.1c-0.5,0-0.8-0.4-0.8-0.8V2.2c0-0.5,0.4-0.8,0.8-0.8h0.3c0.5,0,0.8,0.4,0.8,0.8v0.3C6.1,2.9,5.8,3.2,5.3,3.2z"
			/>
	</g>
</g>
</svg>
