<?xml version="1.0" encoding="utf-8"?>
<!-- Generator: Adobe Illustrator 18.1.1, SVG Export Plug-In . SVG Version: 6.00 Build 0)  -->
<svg version="1.1" xmlns="http://www.w3.org/2000/svg" xmlns:xlink="http://www.w3.org/1999/xlink" x="0px" y="0px"
	 viewBox="0 0 12 12" enable-background="new 0 0 12 12" xml:space="preserve">
<g id="shadows">
	<g opacity="0.2">
		<path d="M7.438,8.693c-0.108,0.109-0.256,0.2-0.423,0.2L7.014,6.66l1.54-0.339l0.386,0.656L7.438,8.693z"/>
		<path d="M5.714,3.75L5.714,3.75H5.3L4.078,5.493C4.028,5.576,4,5.674,4,5.776c0,0.193,0.098,0.361,0.245,0.46l1.469,0.91v1.548
			c0,0.219,0.347,0.397,0.566,0.397c0.218,0,0.077-0.178,0.077-0.397V6.761c0,0,0.372-0.308,0.022-0.476L5.357,5.749l0.745-1.137
			l0.395,0.62c0.079,0.126,0.186,0.175,0.283,0.172l1.015-0.004c0.413,0,0.413-0.537,0-0.536H6.973L6.357,4.393H5.714V3.75z"/>
		<path d="M10.857,5.679l-0.194,0.524l-0.089,0.089l0.284,0.03c-0.175-0.075-0.602-0.155-0.806-0.155
			c-0.135,0-0.302-0.001-0.495,0.155L9.377,6.016C9.6,5.949,9.783,5.89,9.974,5.89C10.279,5.89,10.658,5.493,10.857,5.679z"/>
		<path d="M3.822,6.411l1.72,0.948L5.546,7.74L3.581,6.658C3.439,6.585,3.248,6.543,3.112,6.543c-0.202,0-0.315,0.047-0.49,0.121
			L2.59,6.669L2.5,6.579l0.026-0.063c0.199-0.187,0.402-0.249,0.706-0.249C3.389,6.267,3.578,6.286,3.822,6.411z"/>
		<path d="M9.712,7.211L9.001,5.789c-0.093-0.17-0.275-0.288-0.483-0.288H8.052c-0.09,0-0.164,0.075-0.164,0.166
			s0.074,0.164,0.164,0.164l0.465-0.002c0.078,0,0.165,0.053,0.198,0.13l0.67,1.365L9.712,7.211z"/>
		<rect x="3.143" y="7.607" width="1.286" height="0.643"/>
		<rect x="4.429" y="8.25" width="0.643" height="1.286"/>
		<rect x="3.143" y="9.536" width="1.286" height="0.643"/>
		<rect x="2.5" y="8.25" width="0.643" height="1.286"/>
		<rect x="9.571" y="7.607" width="1.286" height="0.643"/>
		<rect x="10.857" y="8.25" width="0.643" height="1.286"/>
		<rect x="9.571" y="9.536" width="1.286" height="0.643"/>
		<rect x="8.928" y="8.25" width="0.643" height="1.286"/>
		<path d="M5.072,8.893c0,0.71-0.576,1.286-1.286,1.286S2.5,9.603,2.5,8.893c0-0.71,0.576-1.286,1.286-1.286
			S5.072,8.183,5.072,8.893z M4.429,8.25H3.143v1.286h1.286V8.25z"/>
		<path d="M11.5,8.893c0,0.71-0.576,1.286-1.286,1.286c-0.71,0-1.286-0.576-1.286-1.286c0-0.71,0.576-1.286,1.286-1.286
			C10.924,7.607,11.5,8.183,11.5,8.893z M10.857,8.25H9.571v1.286h1.286V8.25z"/>
		<path d="M6.807,3.75H6.55c-0.462,0-0.836-0.374-0.836-0.836V2.657c0-0.462,0.374-0.836,0.836-0.836h0.257
			c0.462,0,0.836,0.374,0.836,0.836v0.257C7.643,3.376,7.269,3.75,6.807,3.75z"/>
	</g>
</g>
<g id="icons">
	<g>
		<path d="M6.938,8.193c-0.108,0.109-0.256,0.2-0.423,0.2L6.514,6.16l1.54-0.339l0.386,0.656L6.938,8.193z"/>
		<path d="M5.214,3.25L5.214,3.25H4.8L3.578,4.993C3.528,5.076,3.5,5.174,3.5,5.276c0,0.193,0.098,0.361,0.245,0.46l1.469,0.91
			v1.548c0,0.219,0.347,0.397,0.566,0.397c0.218,0,0.077-0.178,0.077-0.397V6.261c0,0,0.372-0.308,0.022-0.476L4.857,5.249
			l0.745-1.137l0.395,0.62c0.079,0.126,0.186,0.175,0.283,0.172l1.015-0.004c0.413,0,0.413-0.537,0-0.536H6.473L5.857,3.893H5.214
			V3.25z"/>
		<path d="M10.357,5.179l-0.194,0.524l-0.089,0.089l0.284,0.03c-0.175-0.075-0.602-0.155-0.806-0.155
			c-0.135,0-0.302-0.001-0.495,0.155L8.877,5.516C9.1,5.449,9.283,5.39,9.474,5.39C9.779,5.39,10.158,4.993,10.357,5.179z"/>
		<path d="M3.322,5.911l1.72,0.948L5.046,7.24L3.081,6.158C2.939,6.085,2.748,6.043,2.612,6.043c-0.202,0-0.315,0.047-0.49,0.121
			L2.09,6.169L2,6.079l0.026-0.063c0.199-0.187,0.402-0.249,0.706-0.249C2.889,5.767,3.078,5.786,3.322,5.911z"/>
		<path d="M9.212,6.711L8.501,5.289c-0.093-0.17-0.275-0.288-0.483-0.288H7.552c-0.09,0-0.164,0.075-0.164,0.166
			s0.074,0.164,0.164,0.164l0.465-0.002c0.078,0,0.165,0.053,0.198,0.13l0.67,1.365L9.212,6.711z"/>
		<rect x="2.643" y="7.107" width="1.286" height="0.643"/>
		<rect x="3.929" y="7.75" width="0.643" height="1.286"/>
		<rect x="2.643" y="9.036" width="1.286" height="0.643"/>
		<rect x="2" y="7.75" width="0.643" height="1.286"/>
		<rect x="9.071" y="7.107" width="1.286" height="0.643"/>
		<rect x="10.357" y="7.75" width="0.643" height="1.286"/>
		<rect x="9.071" y="9.036" width="1.286" height="0.643"/>
		<rect x="8.428" y="7.75" width="0.643" height="1.286"/>
		<path d="M4.572,8.393c0,0.71-0.576,1.286-1.286,1.286S2,9.103,2,8.393s0.576-1.286,1.286-1.286S4.572,7.683,4.572,8.393z
			 M3.929,7.75H2.643v1.286h1.286V7.75z"/>
		<path d="M11,8.393c0,0.71-0.576,1.286-1.286,1.286c-0.71,0-1.286-0.576-1.286-1.286s0.576-1.286,1.286-1.286
			C10.424,7.107,11,7.683,11,8.393z M10.357,7.75H9.071v1.286h1.286V7.75z"/>
		<path d="M6.307,3.25H6.05c-0.462,0-0.836-0.374-0.836-0.836V2.157c0-0.462,0.374-0.836,0.836-0.836h0.257
			c0.462,0,0.836,0.374,0.836,0.836v0.257C7.143,2.876,6.769,3.25,6.307,3.25z"/>
	</g>
</g>
</svg>
