<?xml version="1.0" encoding="UTF-8" standalone="no"?>
<!-- Created with Inkscape (http://www.inkscape.org/) -->

<svg
   xmlns:dc="http://purl.org/dc/elements/1.1/"
   xmlns:cc="http://creativecommons.org/ns#"
   xmlns:rdf="http://www.w3.org/1999/02/22-rdf-syntax-ns#"
   xmlns:svg="http://www.w3.org/2000/svg"
   xmlns="http://www.w3.org/2000/svg"
   xmlns:inkscape="http://www.inkscape.org/namespaces/inkscape"
   version="1.1"
   width="18"
   height="18"
   id="svg4619">
  <defs
     id="defs4621" />
  <metadata
     id="metadata4624">
    <rdf:RDF>
      <cc:Work
         rdf:about="">
        <dc:format>image/svg+xml</dc:format>
        <dc:type
           rdf:resource="http://purl.org/dc/dcmitype/StillImage" />
        <dc:title />
      </cc:Work>
    </rdf:RDF>
  </metadata>
  <g
     transform="translate(0,-1034.3622)"
     id="layer1">
    <g
       transform="translate(-186,-88)"
       id="museum-18"
       style="display:inline">
      <g
         transform="translate(-1,-1)"
         id="g21709">
        <path
           d="m 201,1129.3622 -4.5,-3 -4.5,3 0,1.9445 0,5.0555 -1,1.5 c 0,0.3611 0.23397,0.5 0.5,0.5 l 10,0 c 0.25638,0 0.5,-0.1389 0.5,-0.5 l -1,-1.5 0,-5.0555 z"
           inkscape:connector-curvature="0"
           id="path14372"
           style="opacity:0.3;color:#000000;fill:#ffffff;fill-opacity:1;fill-rule:nonzero;stroke:#ffffff;stroke-width:2;stroke-linecap:round;stroke-linejoin:round;stroke-miterlimit:4;stroke-opacity:1;stroke-dasharray:none;stroke-dashoffset:0;marker:none;visibility:visible;display:inline;overflow:visible;enable-background:accumulate" />
        <path
           d="m 196.5,1126.3622 -4.5,3 9,0 z m -3.5,4 c -0.5,0 -1,0.5 -1,0.9445 l 0,5.0555 -1,1.5 c 0,0.3611 0.23397,0.5 0.5,0.5 l 10,0 c 0.25638,0 0.5,-0.1389 0.5,-0.5 l -1,-1.5 0,-5.0555 c 0,-0.4445 -0.5,-0.9445 -1,-0.9445 z m 2,1.5 c 0.5,0 0.5,0 1,1 l 0.5,1 0.5,-1 c 0.5,-1 0.5,-1 1,-1 0.5,0 1,0.5 1,1 l 0,3.5 c 0,0.3611 -0.13889,0.5 -0.5,0.5 -0.36111,0 -0.5,-0.1389 -0.5,-0.5 l 0,-2.8889 -1,1.8889 c -0.2647,0.5 -0.7353,0.5 -1,0 l -1,-1.8889 0,2.8889 c 0,0.3611 -0.13889,0.5 -0.5,0.5 -0.36111,0 -0.50005,-0.1389 -0.50005,-0.5 l 0,-0.7222 5e-5,-2.7778 c 1e-5,-0.5 0.5,-1 1,-1 z"
           inkscape:connector-curvature="0"
           id="rect7645-6-5-0-1"
           style="color:#000000;fill:#444444;fill-opacity:1;fill-rule:nonzero;stroke:none;stroke-width:1;marker:none;visibility:visible;display:inline;overflow:visible;enable-background:accumulate" />
      </g>
    </g>
  </g>
  <rect
     width="18"
     height="18"
     x="0"
     y="0"
     id="canvas"
     style="fill:none;stroke:none;visibility:hidden" />
</svg>
