<?xml version="1.0" encoding="UTF-8" standalone="no"?>
<!-- Created with Inkscape (http://www.inkscape.org/) -->

<svg
   xmlns:dc="http://purl.org/dc/elements/1.1/"
   xmlns:cc="http://creativecommons.org/ns#"
   xmlns:rdf="http://www.w3.org/1999/02/22-rdf-syntax-ns#"
   xmlns:svg="http://www.w3.org/2000/svg"
   xmlns="http://www.w3.org/2000/svg"
   version="1.1"
   width="24"
   height="24"
   id="svg4460">
  <defs
     id="defs4462" />
  <metadata
     id="metadata4465">
    <rdf:RDF>
      <cc:Work
         rdf:about="">
        <dc:format>image/svg+xml</dc:format>
        <dc:type
           rdf:resource="http://purl.org/dc/dcmitype/StillImage" />
        <dc:title></dc:title>
      </cc:Work>
    </rdf:RDF>
  </metadata>
  <path
     d="M 12.5,3 6,8 19,8 z M 7,9 C 6.44599,9 6.07835,9.4516 6,10 l 0,7 -1.75,3 C 4.10167,20.2543 4,20.3567 4,20.5 4,21 4.63165,21 5,21 l 15,0 c 0.35499,0 1,0 1,-0.5 0,-0.1462 -0.0866,-0.2199 -0.25,-0.5 L 19,17 19,10 C 19,9.446 18.55401,9 18,9 z m 2,2 c 0.5,0 1,0 1.5,0 0.5,0 1,1 1,1 l 1,2.5 1,-2.5 c 0.22318,-0.558 0.5,-1 1,-1 0.5,0 1,0 1.5,0 0.554,0 1,0.446 1,1 l 0,5 c 0,0.5 -0.5,1 -1,1 -0.5,0 -1,-0.5 -1,-1 l 0,-4 -1.5,3 c 0,0 -0.5,1 -1,1 -0.5,0 -1,-1 -1,-1 l -1.5,-3 0,4 c 0,0.5 -0.5,1 -1,1 -0.5,0 -1,-0.5 -1,-1 l 0,-1 0,-4 c 0,-0.554 0.446,-1 1,-1 z"
     id="path12199"
     style="opacity:0.3;color:#000000;fill:#ffffff;fill-opacity:1;fill-rule:nonzero;stroke:#ffffff;stroke-width:2;stroke-linecap:round;stroke-linejoin:round;stroke-miterlimit:4;stroke-opacity:1;stroke-dasharray:none;stroke-dashoffset:0;marker:none;visibility:visible;display:inline;overflow:visible;enable-background:accumulate" />
  <path
     d="M 12.5,3 6,8 19,8 z M 7,9 C 6.44599,9 6.07835,9.4516 6,10 l 0,7 -1.75,3 C 4.10167,20.2543 4,20.3567 4,20.5 4,21 4.63165,21 5,21 l 15,0 c 0.35499,0 1,0 1,-0.5 0,-0.1462 -0.0866,-0.2199 -0.25,-0.5 L 19,17 19,10 C 19,9.446 18.55401,9 18,9 z m 2,2 c 0.5,0 1,0 1.5,0 0.5,0 1,1 1,1 l 1,2.5 1,-2.5 c 0.22318,-0.558 0.5,-1 1,-1 0.5,0 1,0 1.5,0 0.554,0 1,0.446 1,1 l 0,5 c 0,0.5 -0.5,1 -1,1 -0.5,0 -1,-0.5 -1,-1 l 0,-4 -1.5,3 c 0,0 -0.5,1 -1,1 -0.5,0 -1,-1 -1,-1 l -1.5,-3 0,4 c 0,0.5 -0.5,1 -1,1 -0.5,0 -1,-0.5 -1,-1 l 0,-1 0,-4 c 0,-0.554 0.446,-1 1,-1 z"
     id="rect7645-6-5-0"
     style="color:#000000;fill:#444444;fill-opacity:1;fill-rule:nonzero;stroke:none;stroke-width:1;marker:none;visibility:visible;display:inline;overflow:visible;enable-background:accumulate" />
  <rect
     width="24"
     height="24"
     x="0"
     y="0"
     id="canvas"
     style="fill:none;stroke:none;visibility:hidden" />
</svg>
