<?xml version="1.0" encoding="UTF-8" standalone="no"?>
<!-- Created with Inkscape (http://www.inkscape.org/) -->

<svg
   xmlns:dc="http://purl.org/dc/elements/1.1/"
   xmlns:cc="http://creativecommons.org/ns#"
   xmlns:rdf="http://www.w3.org/1999/02/22-rdf-syntax-ns#"
   xmlns:svg="http://www.w3.org/2000/svg"
   xmlns="http://www.w3.org/2000/svg"
   version="1.1"
   width="18"
   height="18"
   id="svg4619">
  <defs
     id="defs4621" />
  <metadata
     id="metadata4624">
    <rdf:RDF>
      <cc:Work
         rdf:about="">
        <dc:format>image/svg+xml</dc:format>
        <dc:type
           rdf:resource="http://purl.org/dc/dcmitype/StillImage" />
        <dc:title></dc:title>
      </cc:Work>
    </rdf:RDF>
  </metadata>
  <path
     d="M 9.5,3 5,6 14,6 z M 6,7 C 5.5,7 5,7.5 5,7.9445 L 5,13 4,14.5 C 4,14.8611 4.23397,15 4.5,15 l 10,0 C 14.75638,15 15,14.8611 15,14.5 L 14,13 14,7.9445 C 14,7.5 13.5,7 13,7 z m 2,1.5 c 0.5,0 0.5,0 1,1 l 0.5,1 0.5,-1 c 0.5,-1 0.5,-1 1,-1 0.5,0 1,0.5 1,1 l 0,3.5 c 0,0.3611 -0.13889,0.5 -0.5,0.5 C 11.13889,13.5 11,13.3611 11,13 L 11,10.1111 10,12 C 9.7353,12.5 9.2647,12.5 9,12 L 8,10.1111 8,13 C 8,13.3611 7.86111,13.5 7.5,13.5 7.13889,13.5 6.99995,13.3611 6.99995,13 l 0,-0.7222 L 7,9.5 c 10e-6,-0.5 0.5,-1 1,-1 z"
     id="path12073"
     style="opacity:0.3;color:#000000;fill:#ffffff;fill-opacity:1;fill-rule:nonzero;stroke:#ffffff;stroke-width:2;stroke-linecap:round;stroke-linejoin:round;stroke-miterlimit:4;stroke-opacity:1;stroke-dasharray:none;stroke-dashoffset:0;marker:none;visibility:visible;display:inline;overflow:visible;enable-background:accumulate" />
  <path
     d="M 9.5,3 5,6 14,6 z M 6,7 C 5.5,7 5,7.5 5,7.9445 L 5,13 4,14.5 C 4,14.8611 4.23397,15 4.5,15 l 10,0 C 14.75638,15 15,14.8611 15,14.5 L 14,13 14,7.9445 C 14,7.5 13.5,7 13,7 z m 2,1.5 c 0.5,0 0.5,0 1,1 l 0.5,1 0.5,-1 c 0.5,-1 0.5,-1 1,-1 0.5,0 1,0.5 1,1 l 0,3.5 c 0,0.3611 -0.13889,0.5 -0.5,0.5 C 11.13889,13.5 11,13.3611 11,13 L 11,10.1111 10,12 C 9.7353,12.5 9.2647,12.5 9,12 L 8,10.1111 8,13 C 8,13.3611 7.86111,13.5 7.5,13.5 7.13889,13.5 6.99995,13.3611 6.99995,13 l 0,-0.7222 L 7,9.5 c 10e-6,-0.5 0.5,-1 1,-1 z"
     id="rect7645-6-5-0-1"
     style="color:#000000;fill:#444444;fill-opacity:1;fill-rule:nonzero;stroke:none;stroke-width:1;marker:none;visibility:visible;display:inline;overflow:visible;enable-background:accumulate" />
  <rect
     width="18"
     height="18"
     x="0"
     y="0"
     id="canvas"
     style="fill:none;stroke:none;visibility:hidden" />
</svg>
