<?xml version="1.0" encoding="UTF-8" standalone="no"?>
<!-- Created with Inkscape (http://www.inkscape.org/) -->

<svg
   xmlns:dc="http://purl.org/dc/elements/1.1/"
   xmlns:cc="http://creativecommons.org/ns#"
   xmlns:rdf="http://www.w3.org/1999/02/22-rdf-syntax-ns#"
   xmlns:svg="http://www.w3.org/2000/svg"
   xmlns="http://www.w3.org/2000/svg"
   xmlns:inkscape="http://www.inkscape.org/namespaces/inkscape"
   version="1.1"
   width="12"
   height="12"
   id="svg4764">
  <defs
     id="defs4766" />
  <metadata
     id="metadata4769">
    <rdf:RDF>
      <cc:Work
         rdf:about="">
        <dc:format>image/svg+xml</dc:format>
        <dc:type
           rdf:resource="http://purl.org/dc/dcmitype/StillImage" />
        <dc:title />
      </cc:Work>
    </rdf:RDF>
  </metadata>
  <g
     transform="translate(0,-1040.3622)"
     id="layer1">
    <g
       transform="translate(-204,-82)"
       id="museum-12"
       style="display:inline">
      <g
         transform="translate(1,0)"
         id="g21713">
        <path
           d="m 213,1125.3622 -3.5,-2 -3.5,2 0,5 0,1 -1,1 9,0 -1,-1 0,-1 z m -5.5,2 c 0.25,0 0.5,0 0.75,0 0.25,0 0.5,0.5 0.5,0.5 l 0.75,1.5 0.75,-1.5 c 0.13438,-0.2687 0.25,-0.5 0.5,-0.5 0.25,0 0.5,0 0.75,0 0.277,0 0.5,0.223 0.5,0.5 l 0,2.5 c 0,0.25 -0.25,0.5 -0.5,0.5 -0.25,0 -0.5,-0.25 -0.5,-0.5 l 0,-2 -0.75,1.5 c -0.11941,0.2388 -0.25,0.5 -0.75,0.5 -0.5,0 -0.6306,-0.2612 -0.75,-0.5 l -0.75,-1.5 0,2 c 0,0.25 -0.25,0.5 -0.5,0.5 -0.25,0 -0.5,-0.25 -0.5,-0.5 l 0,-0.5 0,-2 c 0,-0.277 0.223,-0.5 0.5,-0.5 z"
           inkscape:connector-curvature="0"
           id="path9458"
           style="opacity:0.3;color:#000000;fill:#ffffff;stroke:#ffffff;stroke-width:2;stroke-linecap:round;stroke-linejoin:round;stroke-miterlimit:4;stroke-opacity:1;stroke-dasharray:none;stroke-dashoffset:0;marker:none;visibility:visible;display:inline;overflow:visible;enable-background:accumulate" />
        <path
           d="m 209.5,1123.3622 -3.5,2 7,0 z m -3,3 c -0.27701,0 -0.5,0.223 -0.5,0.5 l 0,3.5 0,1 -1,1 9,0 -1,-1 0,-1 0,-3.5 c 0,-0.277 -0.223,-0.5 -0.5,-0.5 z m 1,1 c 0.25,0 0.5,0 0.75,0 0.25,0 0.5,0.5 0.5,0.5 l 0.75,1.5 0.75,-1.5 c 0.13438,-0.2687 0.25,-0.5 0.5,-0.5 0.25,0 0.5,0 0.75,0 0.277,0 0.5,0.223 0.5,0.5 l 0,2.5 c 0,0.25 -0.25,0.5 -0.5,0.5 -0.25,0 -0.5,-0.25 -0.5,-0.5 l 0,-2 -0.75,1.5 c -0.11941,0.2388 -0.25,0.5 -0.75,0.5 -0.5,0 -0.6306,-0.2612 -0.75,-0.5 l -0.75,-1.5 0,2 c 0,0.25 -0.25,0.5 -0.5,0.5 -0.25,0 -0.5,-0.25 -0.5,-0.5 l 0,-0.5 0,-2 c 0,-0.277 0.223,-0.5 0.5,-0.5 z"
           inkscape:connector-curvature="0"
           id="rect7645-6-5-0-0"
           style="color:#000000;fill:#444444;fill-opacity:1;fill-rule:nonzero;stroke:none;stroke-width:1;marker:none;visibility:visible;display:inline;overflow:visible;enable-background:accumulate" />
      </g>
    </g>
  </g>
  <rect
     width="12"
     height="12"
     x="0"
     y="0"
     id="canvas"
     style="fill:none;stroke:none;visibility:hidden" />
</svg>
