<?xml version="1.0" encoding="UTF-8" standalone="no"?>
<!-- Created with Inkscape (http://www.inkscape.org/) -->

<svg
   xmlns:dc="http://purl.org/dc/elements/1.1/"
   xmlns:cc="http://creativecommons.org/ns#"
   xmlns:rdf="http://www.w3.org/1999/02/22-rdf-syntax-ns#"
   xmlns:svg="http://www.w3.org/2000/svg"
   xmlns="http://www.w3.org/2000/svg"
   xmlns:inkscape="http://www.inkscape.org/namespaces/inkscape"
   version="1.1"
   width="18"
   height="18"
   id="svg4619">
  <defs
     id="defs4621" />
  <metadata
     id="metadata4624">
    <rdf:RDF>
      <cc:Work
         rdf:about="">
        <dc:format>image/svg+xml</dc:format>
        <dc:type
           rdf:resource="http://purl.org/dc/dcmitype/StillImage" />
        <dc:title />
      </cc:Work>
    </rdf:RDF>
  </metadata>
  <g
     transform="translate(0,-1034.3622)"
     id="layer1">
    <g
       transform="matrix(0.75,0,0,0.75,-297,66.590563)"
       id="music-18"
       style="display:inline">
      <g
         transform="translate(1,0)"
         id="g7623">
        <g
           id="g7625">
          <path
             d="m 547.5,243 -0.75,0.75 0,7.5 -0.75,0 c -1.24264,0 -2.25,1.00733 -2.25,2.25 0,1.24267 1.00736,2.25 2.25,2.25 1.24263,0 2.25,-1.00733 2.25,-2.25 l 0,-6.5 5.25,0 0,4.25 -0.75,0 c -1.24264,0 -2.25,1.00733 -2.25,2.25 0,1.24267 1.00736,2.25 2.25,2.25 1.24264,0 2.25,-1.00733 2.25,-2.25 l 0,-9.75 -0.75,-0.75 -6.75,0 z"
             inkscape:connector-curvature="0"
             transform="matrix(1.3333333,0,0,1.3333333,-325,970.36219)"
             id="path7672"
             style="opacity:0.3;color:#000000;fill:#ffffff;fill-opacity:1;fill-rule:nonzero;stroke:#ffffff;stroke-width:2;stroke-linecap:round;stroke-linejoin:round;stroke-miterlimit:4;stroke-opacity:1;stroke-dasharray:none;stroke-dashoffset:0;marker:none;visibility:visible;display:inline;overflow:visible;enable-background:accumulate" />
          <path
             d="m 547.5,243 -0.75,0.75 0,7.5 -0.75,0 c -1.24264,0 -2.25,1.00733 -2.25,2.25 0,1.24267 1.00736,2.25 2.25,2.25 1.24263,0 2.25,-1.00733 2.25,-2.25 l 0,-6.5 5.25,0 0,4.25 -0.75,0 c -1.24264,0 -2.25,1.00733 -2.25,2.25 0,1.24267 1.00736,2.25 2.25,2.25 1.24264,0 2.25,-1.00733 2.25,-2.25 l 0,-9.75 -0.75,-0.75 -6.75,0 z"
             inkscape:connector-curvature="0"
             transform="matrix(1.3333333,0,0,1.3333333,-325,970.36219)"
             id="path7627"
             style="fill:#454545;display:inline" />
        </g>
      </g>
    </g>
  </g>
  <rect
     width="18"
     height="18"
     x="0"
     y="0"
     id="canvas"
     style="fill:none;stroke:none;visibility:hidden" />
</svg>
