<?xml version="1.0" encoding="UTF-8" standalone="no"?>
<!-- Created with Inkscape (http://www.inkscape.org/) -->

<svg
   xmlns:dc="http://purl.org/dc/elements/1.1/"
   xmlns:cc="http://creativecommons.org/ns#"
   xmlns:rdf="http://www.w3.org/1999/02/22-rdf-syntax-ns#"
   xmlns:svg="http://www.w3.org/2000/svg"
   xmlns="http://www.w3.org/2000/svg"
   xmlns:inkscape="http://www.inkscape.org/namespaces/inkscape"
   version="1.1"
   width="12"
   height="12"
   id="svg4764">
  <defs
     id="defs4766" />
  <metadata
     id="metadata4769">
    <rdf:RDF>
      <cc:Work
         rdf:about="">
        <dc:format>image/svg+xml</dc:format>
        <dc:type
           rdf:resource="http://purl.org/dc/dcmitype/StillImage" />
        <dc:title />
      </cc:Work>
    </rdf:RDF>
  </metadata>
  <g
     transform="translate(0,-1040.3622)"
     id="layer1">
    <g
       transform="matrix(0.5,0,0,0.5,-198,395.18111)"
       id="music-12"
       style="display:inline">
      <path
         d="m 563,242 0,5.5 -0.5,0 c -0.82843,0 -1.5,0.67155 -1.5,1.5 0,0.82845 0.67157,1.5 1.5,1.5 0.82842,0 1.5,-0.67155 1.5,-1.5 l 0,-4 3,0 0,2.5 -0.5,0 c -0.82842,0 -1.5,0.67155 -1.5,1.5 0,0.82845 0.67157,1.5 1.5,1.5 0.82842,0 1.5,-0.67155 1.5,-1.5 l 0,-7 -5,0 z"
         inkscape:connector-curvature="0"
         transform="matrix(2,0,0,2,-720,810.36218)"
         id="path7691"
         style="opacity:0.3;color:#000000;fill:#ffffff;fill-opacity:1;fill-rule:nonzero;stroke:#ffffff;stroke-width:2;stroke-linecap:round;stroke-linejoin:round;stroke-miterlimit:4;stroke-opacity:1;stroke-dasharray:none;stroke-dashoffset:0;marker:none;visibility:visible;display:inline;overflow:visible;enable-background:accumulate" />
      <path
         d="m 563,242 0,5.5 -0.5,0 c -0.82843,0 -1.5,0.67155 -1.5,1.5 0,0.82845 0.67157,1.5 1.5,1.5 0.82842,0 1.5,-0.67155 1.5,-1.5 l 0,-4 3,0 0,2.5 -0.5,0 c -0.82842,0 -1.5,0.67155 -1.5,1.5 0,0.82845 0.67157,1.5 1.5,1.5 0.82842,0 1.5,-0.67155 1.5,-1.5 l 0,-7 -5,0 z"
         inkscape:connector-curvature="0"
         transform="matrix(2,0,0,2,-720,810.36218)"
         id="path7598"
         style="fill:#454545;display:inline" />
    </g>
  </g>
  <rect
     width="12"
     height="12"
     x="0"
     y="0"
     id="canvas"
     style="fill:none;stroke:none;visibility:hidden" />
</svg>
