<?xml version="1.0" encoding="utf-8"?>
<!-- Generator: Adobe Illustrator 18.1.1, SVG Export Plug-In . SVG Version: 6.00 Build 0)  -->
<svg version="1.1" xmlns="http://www.w3.org/2000/svg" xmlns:xlink="http://www.w3.org/1999/xlink" x="0px" y="0px"
	 viewBox="0 0 12 12" enable-background="new 0 0 12 12" xml:space="preserve">
<g id="shadows-text-objects" display="none">
	<text transform="matrix(1 0 0 1 2.9981 9.142)" display="inline" opacity="0.2" font-family="'FrutigerLTStd-Bold'" font-size="9">5</text>
</g>
<g id="numbers-text-objects" display="none">
	
		<text transform="matrix(1 0 0 1 2.498 8.6418)" display="inline" fill="#FFFFFF" font-family="'FrutigerLTStd-Bold'" font-size="9">5</text>
</g>
<g id="shadows-outlines">
	<g opacity="0.2">
		<path d="M7.409,3.794H4.988L4.961,5.136c0.144-0.027,0.333-0.063,0.576-0.063c0.882,0,2.025,0.414,2.025,2.044
			c0,1.179-0.828,2.134-2.448,2.134c-0.486,0-1.054-0.081-1.468-0.181l0.027-1.125C3.979,8.07,4.412,8.26,4.961,8.26
			c0.657,0,1.341-0.307,1.341-1.107c0-0.811-0.72-1.09-1.439-1.09c-0.388,0-0.757,0.055-1.126,0.171L3.8,2.858h3.609V3.794z"/>
	</g>
</g>
<g id="numbers-outlines">
	<g>
		<path fill="#FFFFFF" d="M6.909,3.294H4.488L4.461,4.636c0.144-0.027,0.333-0.063,0.576-0.063c0.882,0,2.025,0.414,2.025,2.044
			c0,1.179-0.828,2.134-2.449,2.134c-0.486,0-1.053-0.081-1.467-0.181l0.027-1.125C3.479,7.57,3.912,7.76,4.461,7.76
			c0.656,0,1.341-0.307,1.341-1.107c0-0.811-0.72-1.09-1.44-1.09c-0.387,0-0.756,0.055-1.125,0.171l0.062-3.375h3.61V3.294z"/>
	</g>
</g>
</svg>
