<?xml version="1.0" encoding="utf-8"?>
<!-- Generator: Adobe Illustrator 18.1.1, SVG Export Plug-In . SVG Version: 6.00 Build 0)  -->
<svg version="1.1" xmlns="http://www.w3.org/2000/svg" xmlns:xlink="http://www.w3.org/1999/xlink" x="0px" y="0px"
	 viewBox="0 0 18 18" enable-background="new 0 0 18 18" xml:space="preserve">
<g id="shadows-text-objects" display="none">
	
		<text transform="matrix(1 0 0 1 6.636 13.7503)" display="inline" opacity="0.2" font-family="'FrutigerLTStd-Bold'" font-size="13">2</text>
</g>
<g id="numbers-text-objects" display="none">
	
		<text transform="matrix(1 0 0 1 5.8862 13.0002)" display="inline" fill="#FFFFFF" font-family="'FrutigerLTStd-Bold'" font-size="13">2</text>
</g>
<g id="shadows-outlines">
	<g opacity="0.2">
		<path d="M7.169,13.75v-1.521c0.845-0.818,3.927-3.393,3.927-5.057c0-0.832-0.741-1.222-1.482-1.222
			c-0.768,0-1.495,0.338-2.093,0.728L7.377,5.17c0.819-0.416,1.769-0.65,2.691-0.65c1.729,0,2.847,0.871,2.847,2.652
			c0,1.924-1.937,3.692-3.419,5.148h3.705v1.43H7.169z"/>
	</g>
</g>
<g id="numbers-outlines">
	<g>
		<path fill="#FFFFFF" d="M6.42,13v-1.521c0.844-0.818,3.926-3.393,3.926-5.057c0-0.832-0.741-1.222-1.482-1.222
			c-0.768,0-1.495,0.338-2.093,0.728L6.627,4.42c0.819-0.416,1.769-0.65,2.691-0.65c1.729,0,2.847,0.871,2.847,2.652
			c0,1.924-1.937,3.692-3.419,5.148h3.705V13H6.42z"/>
	</g>
</g>
</svg>
