<?xml version="1.0" encoding="utf-8"?>
<!-- Generator: Adobe Illustrator 18.1.1, SVG Export Plug-In . SVG Version: 6.00 Build 0)  -->
<svg version="1.1" xmlns="http://www.w3.org/2000/svg" xmlns:xlink="http://www.w3.org/1999/xlink" x="0px" y="0px"
	 viewBox="0 0 12 12" enable-background="new 0 0 12 12" xml:space="preserve">
<g id="shadows-text-objects" display="none">
	<text transform="matrix(1 0 0 1 3.4981 9.142)" display="inline" opacity="0.2" font-family="'FrutigerLTStd-Bold'" font-size="9">2</text>
</g>
<g id="numbers-text-objects" display="none">
	<text transform="matrix(1 0 0 1 2.998 8.6418)" display="inline" font-family="'FrutigerLTStd-Bold'" font-size="9">2</text>
</g>
<g id="shadows-outlines">
	<g opacity="0.2">
		<path d="M3.867,9.142V8.088c0.585-0.566,2.719-2.35,2.719-3.502c0-0.575-0.513-0.846-1.026-0.846
			c-0.531,0-1.035,0.234-1.449,0.504L4.012,3.2c0.566-0.288,1.224-0.45,1.863-0.45c1.197,0,1.972,0.604,1.972,1.836
			c0,1.333-1.342,2.557-2.368,3.565h2.565v0.99H3.867z"/>
	</g>
</g>
<g id="numbers-outlines">
	<g>
		<path d="M3.367,8.642V7.588c0.585-0.566,2.719-2.35,2.719-3.502c0-0.575-0.514-0.846-1.026-0.846
			c-0.531,0-1.035,0.234-1.449,0.504L3.512,2.7c0.566-0.288,1.224-0.45,1.863-0.45c1.197,0,1.972,0.604,1.972,1.836
			c0,1.333-1.342,2.557-2.368,3.565h2.565v0.99H3.367z"/>
	</g>
</g>
</svg>
