<?xml version="1.0" encoding="utf-8"?>
<!-- Generator: Adobe Illustrator 18.1.1, SVG Export Plug-In . SVG Version: 6.00 Build 0)  -->
<svg version="1.1" xmlns="http://www.w3.org/2000/svg" xmlns:xlink="http://www.w3.org/1999/xlink" x="0px" y="0px"
	 viewBox="0 0 18 18" enable-background="new 0 0 18 18" xml:space="preserve">
<g id="shadows-text-objects" display="none">
	
		<text transform="matrix(1 0 0 1 6.636 13.7503)" display="inline" opacity="0.2" font-family="'FrutigerLTStd-Bold'" font-size="13">9</text>
</g>
<g id="numbers-text-objects" display="none">
	
		<text transform="matrix(1 0 0 1 5.8862 13.0002)" display="inline" fill="#FFFFFF" font-family="'FrutigerLTStd-Bold'" font-size="13">9</text>
</g>
<g id="shadows-outlines">
	<g opacity="0.2">
		<path d="M7.897,12.112c0.48,0.208,0.975,0.363,1.586,0.363c1.573,0,2.106-1.456,2.158-2.808l-0.026-0.026
			c-0.429,0.638-0.988,0.91-1.755,0.91c-1.716,0-2.652-1.092-2.652-2.769c0-1.963,0.962-3.264,3.017-3.264
			c2.521,0,3.081,2.094,3.081,4.226c0,2.457-0.793,5.161-3.731,5.161c-0.663,0-1.287-0.104-1.911-0.325L7.897,12.112z M11.485,7.484
			c0-0.858-0.364-1.612-1.261-1.612c-0.846,0-1.196,0.819-1.196,1.625c0,0.884,0.364,1.703,1.234,1.703
			C11.147,9.2,11.485,8.394,11.485,7.484z"/>
	</g>
</g>
<g id="numbers-outlines">
	<g>
		<path fill="#FFFFFF" d="M7.147,11.362c0.481,0.208,0.975,0.363,1.586,0.363c1.573,0,2.106-1.456,2.158-2.808l-0.026-0.026
			c-0.429,0.638-0.988,0.91-1.755,0.91c-1.716,0-2.652-1.092-2.652-2.769c0-1.963,0.962-3.264,3.017-3.264
			c2.521,0,3.081,2.094,3.081,4.226c0,2.457-0.793,5.161-3.731,5.161c-0.663,0-1.287-0.104-1.911-0.325L7.147,11.362z M10.735,6.734
			c0-0.858-0.364-1.612-1.261-1.612c-0.846,0-1.196,0.819-1.196,1.625c0,0.884,0.364,1.703,1.235,1.703
			C10.397,8.45,10.735,7.644,10.735,6.734z"/>
	</g>
</g>
</svg>
