<?xml version="1.0" encoding="utf-8"?>
<!-- Generator: Adobe Illustrator 18.1.1, SVG Export Plug-In . SVG Version: 6.00 Build 0)  -->
<svg version="1.1" xmlns="http://www.w3.org/2000/svg" xmlns:xlink="http://www.w3.org/1999/xlink" x="0px" y="0px"
	 viewBox="0 0 24 24" enable-background="new 0 0 24 24" xml:space="preserve">
<g id="shadows-text-objects" display="none">
	
		<text transform="matrix(1 0 0 1 8.7739 18.4326)" display="inline" opacity="0.2" font-family="'FrutigerLTStd-Bold'" font-size="17">0</text>
</g>
<g id="numbers-text-objects" display="none">
	<text transform="matrix(1 0 0 1 7.7739 17.4329)" display="inline" font-family="'FrutigerLTStd-Bold'" font-size="17">0</text>
</g>
<g id="shadows-outlines">
	<g opacity="0.2">
		<path d="M9.369,12.534c0-2.975,0.901-6.17,4.114-6.17c3.468,0,4.147,3.417,4.147,6.17s-0.714,6.103-4.147,6.103
			C9.828,18.637,9.369,15.016,9.369,12.534z M15.25,12.534c0-1.53,0-4.402-1.768-4.402c-1.734,0-1.734,2.873-1.734,4.402
			c0,1.496-0.017,4.335,1.734,4.335C15.268,16.869,15.25,14.03,15.25,12.534z"/>
	</g>
</g>
<g id="numbers-outlines">
	<g>
		<path d="M8.369,11.534c0-2.975,0.901-6.17,4.114-6.17c3.468,0,4.147,3.417,4.147,6.17s-0.714,6.103-4.147,6.103
			C8.828,17.637,8.369,14.016,8.369,11.534z M14.25,11.534c0-1.53,0-4.402-1.768-4.402c-1.734,0-1.734,2.873-1.734,4.402
			c0,1.496-0.017,4.335,1.734,4.335C14.268,15.869,14.25,13.03,14.25,11.534z"/>
	</g>
</g>
</svg>
