<?xml version="1.0" encoding="utf-8"?>
<!-- Generator: Adobe Illustrator 18.1.1, SVG Export Plug-In . SVG Version: 6.00 Build 0)  -->
<svg version="1.1" xmlns="http://www.w3.org/2000/svg" xmlns:xlink="http://www.w3.org/1999/xlink" x="0px" y="0px"
	 viewBox="0 0 18 18" enable-background="new 0 0 18 18" xml:space="preserve">
<g id="shadows-text-objects" display="none">
	
		<text transform="matrix(1 0 0 1 6.636 13.7503)" display="inline" opacity="0.2" font-family="'FrutigerLTStd-Bold'" font-size="13">3</text>
</g>
<g id="numbers-text-objects" display="none">
	<text transform="matrix(1 0 0 1 5.8862 13.0002)" display="inline" font-family="'FrutigerLTStd-Bold'" font-size="13">3</text>
</g>
<g id="shadows-outlines">
	<g opacity="0.2">
		<path d="M7.325,12.06c0.624,0.247,1.3,0.416,2.015,0.416c0.754,0,1.911-0.363,1.911-1.287c0-1.065-0.845-1.417-2.002-1.417H8.365
			v-1.43h0.832c1.222,0,2.016-0.402,2.016-1.196c0-0.909-0.742-1.195-1.561-1.195c-0.715,0-1.404,0.169-2.041,0.48L7.507,4.975
			c0.729-0.286,1.6-0.455,2.535-0.455c1.118,0,2.99,0.391,2.99,2.327c0,1.235-0.767,1.82-1.689,2.171v0.026
			c1.156,0.156,1.729,1.053,1.729,2.158c0,2.158-1.963,2.704-3.471,2.704c-0.794,0-1.703-0.104-2.38-0.299L7.325,12.06z"/>
	</g>
</g>
<g id="numbers-outlines">
	<g>
		<path d="M6.575,11.31c0.624,0.247,1.3,0.416,2.015,0.416c0.754,0,1.911-0.363,1.911-1.287c0-1.065-0.845-1.417-2.001-1.417H7.615
			v-1.43h0.832c1.223,0,2.016-0.402,2.016-1.196c0-0.909-0.742-1.195-1.561-1.195c-0.715,0-1.404,0.169-2.041,0.48L6.758,4.225
			C7.485,3.938,8.356,3.77,9.293,3.77c1.117,0,2.989,0.391,2.989,2.327c0,1.235-0.767,1.82-1.689,2.171v0.026
			c1.156,0.156,1.729,1.053,1.729,2.158c0,2.158-1.963,2.704-3.471,2.704c-0.794,0-1.703-0.104-2.38-0.299L6.575,11.31z"/>
	</g>
</g>
</svg>
