<?xml version="1.0" encoding="utf-8"?>
<!-- Generator: Adobe Illustrator 18.1.1, SVG Export Plug-In . SVG Version: 6.00 Build 0)  -->
<svg version="1.1" xmlns="http://www.w3.org/2000/svg" xmlns:xlink="http://www.w3.org/1999/xlink" x="0px" y="0px"
	 viewBox="0 0 12 12" enable-background="new 0 0 12 12" xml:space="preserve">
<g id="shadows-text-objects" display="none">
	<text transform="matrix(1 0 0 1 3.4981 9.142)" display="inline" opacity="0.2" font-family="'FrutigerLTStd-Bold'" font-size="9">9</text>
</g>
<g id="numbers-text-objects" display="none">
	<text transform="matrix(1 0 0 1 2.998 8.6418)" display="inline" font-family="'FrutigerLTStd-Bold'" font-size="9">9</text>
</g>
<g id="shadows-outlines">
	<g opacity="0.2">
		<path d="M4.371,8.007C4.705,8.151,5.047,8.26,5.47,8.26c1.089,0,1.458-1.009,1.494-1.945L6.946,6.297
			c-0.297,0.441-0.685,0.63-1.216,0.63c-1.188,0-1.836-0.756-1.836-1.917c0-1.359,0.666-2.26,2.089-2.26
			c1.746,0,2.133,1.449,2.133,2.926c0,1.701-0.549,3.574-2.583,3.574c-0.459,0-0.892-0.072-1.323-0.226L4.371,8.007z M6.856,4.803
			c0-0.595-0.253-1.116-0.873-1.116c-0.586,0-0.829,0.566-0.829,1.125c0,0.612,0.253,1.179,0.855,1.179
			C6.622,5.99,6.856,5.433,6.856,4.803z"/>
	</g>
</g>
<g id="numbers-outlines">
	<g>
		<path d="M3.871,7.507C4.205,7.651,4.547,7.76,4.97,7.76c1.089,0,1.458-1.009,1.494-1.945L6.446,5.797
			c-0.297,0.441-0.685,0.63-1.216,0.63c-1.188,0-1.836-0.756-1.836-1.917c0-1.359,0.666-2.26,2.088-2.26
			c1.747,0,2.134,1.449,2.134,2.926c0,1.701-0.549,3.574-2.583,3.574c-0.459,0-0.892-0.072-1.324-0.226L3.871,7.507z M6.356,4.303
			c0-0.595-0.253-1.116-0.874-1.116c-0.585,0-0.828,0.566-0.828,1.125c0,0.612,0.252,1.179,0.855,1.179
			C6.122,5.49,6.356,4.933,6.356,4.303z"/>
	</g>
</g>
</svg>
