<?xml version="1.0" encoding="utf-8"?>
<!-- Generator: Adobe Illustrator 18.1.1, SVG Export Plug-In . SVG Version: 6.00 Build 0)  -->
<svg version="1.1" xmlns="http://www.w3.org/2000/svg" xmlns:xlink="http://www.w3.org/1999/xlink" x="0px" y="0px"
	 viewBox="0 0 18 18" enable-background="new 0 0 18 18" xml:space="preserve">
<g id="shadows-text-objects" display="none">
	
		<text transform="matrix(1 0 0 1 5.1926 13.7503)" display="inline" opacity="0.2" font-family="'FrutigerLTStd-Roman'" font-size="13">O</text>
</g>
<g id="letters-text-objects" display="none">
	<text transform="matrix(1 0 0 1 4.4429 13.0002)" display="inline" font-family="'FrutigerLTStd-Roman'" font-size="13">O</text>
</g>
<g id="shadows-outlines">
	<g opacity="0.2">
		<path d="M10.25,4.52c2.756,0,4.368,2.002,4.368,4.693c0,2.756-1.599,4.693-4.368,4.693s-4.368-1.938-4.368-4.693
			C5.882,6.521,7.494,4.52,10.25,4.52z M10.25,12.762c2.093,0,2.99-1.742,2.99-3.549c0-1.846-0.988-3.562-2.99-3.549
			C8.248,5.651,7.26,7.367,7.26,9.213C7.26,11.02,8.157,12.762,10.25,12.762z"/>
	</g>
</g>
<g id="letters-outlines">
	<g>
		<path d="M9.5,3.77c2.756,0,4.368,2.002,4.368,4.693c0,2.756-1.599,4.693-4.368,4.693s-4.368-1.938-4.368-4.693
			C5.132,5.771,6.744,3.77,9.5,3.77z M9.5,12.012c2.093,0,2.99-1.742,2.99-3.549c0-1.846-0.988-3.562-2.99-3.549
			C7.498,4.901,6.51,6.617,6.51,8.463C6.51,10.27,7.407,12.012,9.5,12.012z"/>
	</g>
</g>
<g id="guides_and_set-up" display="none">
</g>
</svg>
