<?xml version="1.0" encoding="utf-8"?>
<!-- Generator: Adobe Illustrator 18.1.1, SVG Export Plug-In . SVG Version: 6.00 Build 0)  -->
<svg version="1.1" xmlns="http://www.w3.org/2000/svg" xmlns:xlink="http://www.w3.org/1999/xlink" x="0px" y="0px"
	 viewBox="0 0 12 12" enable-background="new 0 0 12 12" xml:space="preserve">
<g id="shadows-text-objects" display="none">
	<text transform="matrix(1 0 0 1 1.9991 9.142)" display="inline" opacity="0.2" font-family="'FrutigerLTStd-Bold'" font-size="9">O</text>
</g>
<g id="letters-text-objects" display="none">
	
		<text transform="matrix(1 0 0 1 1.499 8.6418)" display="inline" fill="#FFFFFF" font-family="'FrutigerLTStd-Bold'" font-size="9">O</text>
</g>
<g id="shadows-outlines">
	<g opacity="0.2">
		<path d="M5.501,2.75c1.972,0,3.079,1.332,3.079,3.231S7.49,9.25,5.501,9.25c-2.017,0-3.078-1.342-3.078-3.269
			C2.423,4.056,3.503,2.75,5.501,2.75z M5.501,8.26c1.287,0,1.765-1.144,1.765-2.278c0-1.107-0.514-2.241-1.765-2.241
			S3.736,4.874,3.736,5.981C3.736,7.116,4.214,8.26,5.501,8.26z"/>
	</g>
</g>
<g id="letters-outlines">
	<g>
		<path fill="#FFFFFF" d="M5.001,2.25c1.972,0,3.079,1.332,3.079,3.231S6.99,8.75,5.001,8.75c-2.017,0-3.079-1.342-3.079-3.269
			C1.922,3.556,3.002,2.25,5.001,2.25z M5.001,7.76c1.287,0,1.765-1.144,1.765-2.278c0-1.107-0.514-2.241-1.765-2.241
			S3.236,4.374,3.236,5.481C3.236,6.616,3.714,7.76,5.001,7.76z"/>
	</g>
</g>
<g id="guides_and_set-up" display="none">
</g>
</svg>
