<?xml version="1.0" encoding="UTF-8" standalone="no"?>
<!-- Created with Inkscape (http://www.inkscape.org/) -->

<svg
   xmlns:dc="http://purl.org/dc/elements/1.1/"
   xmlns:cc="http://creativecommons.org/ns#"
   xmlns:rdf="http://www.w3.org/1999/02/22-rdf-syntax-ns#"
   xmlns:svg="http://www.w3.org/2000/svg"
   xmlns="http://www.w3.org/2000/svg"
   xmlns:inkscape="http://www.inkscape.org/namespaces/inkscape"
   version="1.1"
   width="18"
   height="18"
   id="svg4619">
  <defs
     id="defs4621" />
  <metadata
     id="metadata4624">
    <rdf:RDF>
      <cc:Work
         rdf:about="">
        <dc:format>image/svg+xml</dc:format>
        <dc:type
           rdf:resource="http://purl.org/dc/dcmitype/StillImage" />
        <dc:title />
      </cc:Work>
    </rdf:RDF>
  </metadata>
  <g
     transform="translate(0,-1034.3622)"
     id="layer1">
    <g
       transform="translate(-499.99999,-231.99998)"
       id="oil-well-18"
       style="display:inline">
      <g
         transform="translate(2,-3)"
         id="g7341">
        <path
           d="m 506,1271.3622 c -0.38235,10e-5 -0.6636,0.3676 -0.78125,0.75 l -4.21875,13.25 2,0 0.90625,-2.7187 3.59375,-2.0313 3.59375,2.0313 0.90625,2.7187 2,0 -4.21875,-13.25 c -0.11765,-0.3824 -0.3989,-0.7499 -0.78125,-0.75 z m 0,5 3,0 0.5,1.4688 -2,1.2812 -2,-1.2812 z m -0.875,2.6563 1.375,0.8437 -2.0625,1.1875 z m 4.75,0 0.6875,2.0312 -2.0625,-1.1875 z"
           inkscape:connector-curvature="0"
           id="path6454"
           style="opacity:0.3;color:#000000;fill:#ffffff;fill-opacity:1;fill-rule:nonzero;stroke:#ffffff;stroke-width:2;stroke-linecap:round;stroke-linejoin:round;stroke-miterlimit:4;stroke-opacity:1;stroke-dasharray:none;stroke-dashoffset:0;marker:none;visibility:visible;display:inline;overflow:visible;enable-background:accumulate" />
        <path
           d="m 506,1271.3622 c -0.38235,10e-5 -0.6636,0.3676 -0.78125,0.75 l -4.21875,13.25 2,0 0.90625,-2.7187 3.59375,-2.0313 3.59375,2.0313 0.90625,2.7187 2,0 -4.21875,-13.25 c -0.11765,-0.3824 -0.3989,-0.7499 -0.78125,-0.75 z m 0,5 3,0 0.5,1.4688 -2,1.2812 -2,-1.2812 z m -0.875,2.6563 1.375,0.8437 -2.0625,1.1875 z m 4.75,0 0.6875,2.0312 -2.0625,-1.1875 z"
           inkscape:connector-curvature="0"
           id="path5641"
           style="color:#000000;fill:#444444;fill-opacity:1;fill-rule:nonzero;stroke:none;stroke-width:2;marker:none;visibility:visible;display:inline;overflow:visible;enable-background:accumulate" />
      </g>
    </g>
  </g>
  <rect
     width="18"
     height="18"
     x="0"
     y="0"
     id="canvas"
     style="fill:none;stroke:none;visibility:hidden" />
</svg>
