<?xml version="1.0" encoding="UTF-8" standalone="no"?>
<!-- Created with Inkscape (http://www.inkscape.org/) -->

<svg
   xmlns:dc="http://purl.org/dc/elements/1.1/"
   xmlns:cc="http://creativecommons.org/ns#"
   xmlns:rdf="http://www.w3.org/1999/02/22-rdf-syntax-ns#"
   xmlns:svg="http://www.w3.org/2000/svg"
   xmlns="http://www.w3.org/2000/svg"
   xmlns:inkscape="http://www.inkscape.org/namespaces/inkscape"
   version="1.1"
   width="12"
   height="12"
   id="svg4764">
  <defs
     id="defs4766" />
  <metadata
     id="metadata4769">
    <rdf:RDF>
      <cc:Work
         rdf:about="">
        <dc:format>image/svg+xml</dc:format>
        <dc:type
           rdf:resource="http://purl.org/dc/dcmitype/StillImage" />
        <dc:title />
      </cc:Work>
    </rdf:RDF>
  </metadata>
  <g
     transform="translate(0,-1040.3622)"
     id="layer1">
    <g
       transform="translate(-518,-225.99998)"
       id="oil-well-12"
       style="display:inline">
      <g
         transform="translate(2,-3)"
         id="g7337">
        <path
           d="m 521,1270.3622 -3,9 1,0 0.5,0 0.5,-1.5312 2.5,-1.4688 2.5,1.4688 0.5,1.5312 1.5,0 -3,-9 z m 0.5,3 2,0 0.5,1.5313 -0.71875,0.4687 -0.28125,0 0,0.1875 -0.5,0.3125 -0.5,-0.3125 0,-0.1875 -0.28125,0 L 521,1274.8935 z m -0.78125,2.375 0.28125,0.125 0.5,0.25 -0.5,0.25 -0.59375,0.3125 0.0937,-0.3125 0,-0.5 0.1875,0 z m 3.5625,0 0.0312,0.125 0.1875,0 0,0.5 0.0937,0.3125 -0.59365,-0.3125 -0.5,-0.25 0.5,-0.25 z"
           inkscape:connector-curvature="0"
           id="path6518"
           style="opacity:0.3;color:#000000;fill:#ffffff;fill-opacity:1;fill-rule:nonzero;stroke:#ffffff;stroke-width:2;stroke-linecap:round;stroke-linejoin:round;stroke-miterlimit:4;stroke-opacity:1;stroke-dasharray:none;stroke-dashoffset:0;marker:none;visibility:visible;display:inline;overflow:visible;enable-background:accumulate" />
        <path
           d="m 521,1270.3622 -3,9 1,0 0.5,0 0.5,-1.5312 2.5,-1.4688 2.5,1.4688 0.5,1.5312 1.5,0 -3,-9 z m 0.5,3 2,0 0.5,1.5313 -0.71875,0.4687 -0.28125,0 0,0.1875 -0.5,0.3125 -0.5,-0.3125 0,-0.1875 -0.28125,0 L 521,1274.8935 z m -0.78125,2.375 0.28125,0.125 0.5,0.25 -0.5,0.25 -0.59375,0.3125 0.0937,-0.3125 0,-0.5 0.1875,0 z m 3.5625,0 0.0312,0.125 0.1875,0 0,0.5 0.0937,0.3125 -0.59365,-0.3125 -0.5,-0.25 0.5,-0.25 z"
           inkscape:connector-curvature="0"
           id="path6462"
           style="color:#000000;fill:#444444;fill-opacity:1;fill-rule:nonzero;stroke:none;stroke-width:2;marker:none;visibility:visible;display:inline;overflow:visible;enable-background:accumulate" />
      </g>
    </g>
  </g>
  <rect
     width="12"
     height="12"
     x="0"
     y="0"
     id="canvas"
     style="fill:none;stroke:none;visibility:hidden" />
</svg>
