<?xml version="1.0" encoding="utf-8"?>
<!-- Generator: Adobe Illustrator 18.1.1, SVG Export Plug-In . SVG Version: 6.00 Build 0)  -->
<svg version="1.1" xmlns="http://www.w3.org/2000/svg" xmlns:xlink="http://www.w3.org/1999/xlink" x="0px" y="0px"
	 viewBox="0 0 12 12" enable-background="new 0 0 12 12" xml:space="preserve">
<g id="shadows-text-objects" display="none">
	
		<text transform="matrix(1 0 0 1 3.4981 9.142)" display="inline" opacity="0.2" font-family="'FrutigerLTStd-Roman'" font-size="9">P</text>
</g>
<g id="letters-text-objects" display="none">
	<text transform="matrix(1 0 0 1 2.998 8.6418)" display="inline" font-family="'FrutigerLTStd-Roman'" font-size="9">P</text>
</g>
<g id="shadows-outlines">
	<g opacity="0.2">
		<path d="M4.245,2.858h1.647c1.287,0,2.359,0.449,2.359,1.881c0,1.396-1.09,1.891-2.224,1.891H5.146v2.512h-0.9V2.858z
			 M5.146,5.838h0.892c0.558,0,1.26-0.279,1.26-1.107c0-0.792-0.828-1.08-1.386-1.08H5.146V5.838z"/>
	</g>
</g>
<g id="letters-outlines">
	<g>
		<path d="M3.745,2.358h1.647c1.287,0,2.359,0.449,2.359,1.881c0,1.396-1.09,1.891-2.225,1.891H4.646v2.512h-0.9V2.358z
			 M4.646,5.338h0.892c0.558,0,1.26-0.279,1.26-1.107c0-0.792-0.828-1.08-1.387-1.08H4.646V5.338z"/>
	</g>
</g>
<g id="guides_and_set-up" display="none">
</g>
</svg>
