<?xml version="1.0" encoding="utf-8"?>
<!-- Generator: Adobe Illustrator 18.1.1, SVG Export Plug-In . SVG Version: 6.00 Build 0)  -->
<svg version="1.1" xmlns="http://www.w3.org/2000/svg" xmlns:xlink="http://www.w3.org/1999/xlink" x="0px" y="0px"
	 viewBox="0 0 12 12" enable-background="new 0 0 12 12" xml:space="preserve">
<g id="shadows-text-objects" display="none">
	<text transform="matrix(1 0 0 1 3.4981 9.142)" display="inline" opacity="0.2" font-family="'FrutigerLTStd-Bold'" font-size="9">P</text>
</g>
<g id="letters-text-objects" display="none">
	<text transform="matrix(1 0 0 1 2.998 8.6418)" display="inline" font-family="'FrutigerLTStd-Bold'" font-size="9">P</text>
</g>
<g id="shadows-outlines">
	<g opacity="0.2">
		<path d="M4.119,2.858h1.594c1.368,0,2.619,0.396,2.619,1.898c0,1.468-1.071,1.999-2.421,1.999H5.38v2.386H4.119V2.858z
			 M5.38,5.766h0.441c0.63,0,1.197-0.207,1.197-0.937c0-0.729-0.55-0.98-1.197-0.98H5.38V5.766z"/>
	</g>
</g>
<g id="letters-outlines">
	<g>
		<path d="M3.619,2.358h1.594c1.368,0,2.619,0.396,2.619,1.898c0,1.468-1.071,1.999-2.422,1.999H4.879v2.386h-1.26V2.358z
			 M4.879,5.266H5.32c0.631,0,1.198-0.207,1.198-0.937c0-0.729-0.55-0.98-1.198-0.98H4.879V5.266z"/>
	</g>
</g>
<g id="guides_and_set-up" display="none">
</g>
</svg>
