<?xml version="1.0" encoding="utf-8"?>
<!-- Generator: Adobe Illustrator 18.1.1, SVG Export Plug-In . SVG Version: 6.00 Build 0)  -->
<svg version="1.1" xmlns="http://www.w3.org/2000/svg" xmlns:xlink="http://www.w3.org/1999/xlink" x="0px" y="0px"
	 viewBox="0 0 18 18" enable-background="new 0 0 18 18" xml:space="preserve">
<g id="shadows-text-objects" display="none">
	
		<text transform="matrix(1 0 0 1 6.636 13.7503)" display="inline" opacity="0.2" font-family="'FrutigerLTStd-Bold'" font-size="13">P</text>
</g>
<g id="letters-text-objects" display="none">
	<text transform="matrix(1 0 0 1 5.8862 13.0002)" display="inline" font-family="'FrutigerLTStd-Bold'" font-size="13">P</text>
</g>
<g id="shadows-outlines">
	<g opacity="0.2">
		<path d="M7.533,4.676h2.301c1.977,0,3.783,0.572,3.783,2.743c0,2.119-1.547,2.886-3.497,2.886H9.354v3.445h-1.82V4.676z
			 M9.354,8.875H9.99c0.91,0,1.729-0.299,1.729-1.352c0-1.054-0.793-1.418-1.729-1.418H9.354V8.875z"/>
	</g>
</g>
<g id="letters-outlines">
	<g>
		<path d="M6.783,3.926h2.301c1.977,0,3.783,0.572,3.783,2.743c0,2.119-1.547,2.886-3.497,2.886H8.604V13h-1.82V3.926z M8.604,8.125
			H9.24c0.91,0,1.729-0.299,1.729-1.352c0-1.054-0.793-1.418-1.729-1.418H8.604V8.125z"/>
	</g>
</g>
<g id="guides_and_set-up" display="none">
</g>
</svg>
