<?xml version="1.0" encoding="utf-8"?>
<!-- Generator: Adobe Illustrator 18.1.1, SVG Export Plug-In . SVG Version: 6.00 Build 0)  -->
<svg version="1.1" xmlns="http://www.w3.org/2000/svg" xmlns:xlink="http://www.w3.org/1999/xlink" x="0px" y="0px"
	 viewBox="0 0 18 18" enable-background="new 0 0 18 18" xml:space="preserve">
<g id="shadows-text-objects" display="none">
	
		<text transform="matrix(1 0 0 1 6.636 13.7503)" display="inline" opacity="0.2" font-family="'FrutigerLTStd-Roman'" font-size="13">P</text>
</g>
<g id="letters-text-objects" display="none">
	
		<text transform="matrix(1 0 0 1 5.8862 13.0002)" display="inline" fill="#FFFFFF" font-family="'FrutigerLTStd-Roman'" font-size="13">P</text>
</g>
<g id="shadows-outlines">
	<g opacity="0.2">
		<path d="M7.715,4.676h2.379c1.859,0,3.406,0.65,3.406,2.717c0,2.016-1.572,2.73-3.211,2.73H9.015v3.627h-1.3V4.676z M9.015,8.979
			h1.287c0.807,0,1.82-0.402,1.82-1.599c0-1.144-1.195-1.56-2.002-1.56H9.015V8.979z"/>
	</g>
</g>
<g id="letters-outlines">
	<g>
		<path fill="#FFFFFF" d="M6.965,3.926h2.379c1.859,0,3.406,0.65,3.406,2.717c0,2.016-1.572,2.73-3.211,2.73H8.266V13H6.965V3.926z
			 M8.266,8.229h1.287c0.806,0,1.819-0.402,1.819-1.599c0-1.144-1.195-1.56-2.002-1.56H8.266V8.229z"/>
	</g>
</g>
<g id="guides_and_set-up" display="none">
</g>
</svg>
