<?xml version="1.0" encoding="utf-8"?>
<!-- Generator: Adobe Illustrator 18.1.1, SVG Export Plug-In . SVG Version: 6.00 Build 0)  -->
<svg version="1.1" xmlns="http://www.w3.org/2000/svg" xmlns:xlink="http://www.w3.org/1999/xlink" x="0px" y="0px"
	 viewBox="0 0 24 24" enable-background="new 0 0 24 24" xml:space="preserve">
<g id="shadows-text-objects" display="none">
	
		<text transform="matrix(1 0 0 1 8.7739 18.4326)" display="inline" opacity="0.2" font-family="'FrutigerLTStd-Roman'" font-size="17">P</text>
</g>
<g id="letters-text-objects" display="none">
	
		<text transform="matrix(1 0 0 1 7.7739 17.4329)" display="inline" fill="#FFFFFF" font-family="'FrutigerLTStd-Roman'" font-size="17">P</text>
</g>
<g id="shadows-outlines">
	<g opacity="0.2">
		<path d="M10.185,6.568h3.11c2.432,0,4.454,0.85,4.454,3.553c0,2.635-2.057,3.569-4.199,3.569h-1.665v4.742h-1.7V6.568z
			 M11.885,12.194h1.683c1.054,0,2.38-0.526,2.38-2.091c0-1.496-1.563-2.04-2.618-2.04h-1.444V12.194z"/>
	</g>
</g>
<g id="letters-outlines">
	<g>
		<path fill="#FFFFFF" d="M9.185,5.568h3.11c2.432,0,4.454,0.85,4.454,3.553c0,2.635-2.057,3.569-4.198,3.569h-1.666v4.742h-1.7
			V5.568z M10.885,11.194h1.683c1.054,0,2.38-0.526,2.38-2.091c0-1.496-1.563-2.04-2.617-2.04h-1.445V11.194z"/>
	</g>
</g>
<g id="guides_and_set-up" display="none">
</g>
</svg>
