<?xml version="1.0" encoding="UTF-8" standalone="no"?>
<!-- Created with Inkscape (http://www.inkscape.org/) -->

<svg
   xmlns:dc="http://purl.org/dc/elements/1.1/"
   xmlns:cc="http://creativecommons.org/ns#"
   xmlns:rdf="http://www.w3.org/1999/02/22-rdf-syntax-ns#"
   xmlns:svg="http://www.w3.org/2000/svg"
   xmlns="http://www.w3.org/2000/svg"
   xmlns:inkscape="http://www.inkscape.org/namespaces/inkscape"
   version="1.1"
   width="24"
   height="24"
   id="svg4460">
  <defs
     id="defs4462" />
  <metadata
     id="metadata4465">
    <rdf:RDF>
      <cc:Work
         rdf:about="">
        <dc:format>image/svg+xml</dc:format>
        <dc:type
           rdf:resource="http://purl.org/dc/dcmitype/StillImage" />
        <dc:title />
      </cc:Work>
    </rdf:RDF>
  </metadata>
  <g
     transform="translate(0,-1028.3622)"
     id="layer1">
    <g
       transform="translate(-84,-166)"
       id="parking-24"
       style="display:inline">
      <g
         transform="matrix(1.3333333,0,0,1.3333333,84,-160.78737)"
         id="p-24"
         style="display:inline">
        <g
           id="text3827"
           style="font-size:14px;font-style:normal;font-variant:normal;font-weight:bold;font-stretch:normal;text-indent:0;text-align:center;text-decoration:none;line-height:125%;letter-spacing:normal;word-spacing:normal;text-transform:none;direction:ltr;block-progression:tb;writing-mode:lr-tb;text-anchor:middle;color:#000000;fill:#444444;fill-opacity:1;fill-rule:nonzero;stroke:none;stroke-width:2;marker:none;visibility:visible;display:inline;overflow:visible;enable-background:accumulate;font-family:Open Sans;-inkscape-font-specification:Open Sans Bold">
          <path
             d="m 8.8710938,1025.077 0.5976562,0 c 0.55859,0 0.976558,-0.1093 1.253906,-0.3281 0.277339,-0.2226 0.416011,-0.5449 0.416016,-0.9668 -5e-6,-0.4258 -0.117193,-0.7402 -0.351563,-0.9434 -0.230473,-0.2031 -0.593754,-0.3046 -1.0898434,-0.3046 l -0.8261718,0 0,2.5429 m 4.1015622,-1.3593 c -7e-6,0.9218 -0.289069,1.6269 -0.867187,2.1152 -0.574225,0.4883 -1.392583,0.7324 -2.4550784,0.7324 l -0.7792968,0 0,3.0469 -1.8164063,0 0,-8.5664 2.7363281,0 c 1.0390574,0 1.8281194,0.2246 2.3671874,0.6738 0.542962,0.4453 0.814446,1.1113 0.814453,1.9981"
             inkscape:connector-curvature="0"
             id="path15202"
             style="font-size:12px;opacity:0.3;color:#000000;fill:#ffffff;fill-opacity:1;fill-rule:nonzero;stroke:#ffffff;stroke-width:1.5;stroke-linecap:butt;stroke-linejoin:round;stroke-miterlimit:4;stroke-opacity:1;stroke-dasharray:none;stroke-dashoffset:0;marker:none;visibility:visible;display:inline;overflow:visible;enable-background:accumulate" />
          <path
             d="m 8.8710938,1025.077 0.5976562,0 c 0.55859,0 0.976558,-0.1093 1.253906,-0.3281 0.277339,-0.2226 0.416011,-0.5449 0.416016,-0.9668 -5e-6,-0.4258 -0.117193,-0.7402 -0.351563,-0.9434 -0.230473,-0.2031 -0.593754,-0.3046 -1.0898434,-0.3046 l -0.8261718,0 0,2.5429 m 4.1015622,-1.3593 c -7e-6,0.9218 -0.289069,1.6269 -0.867187,2.1152 -0.574225,0.4883 -1.392583,0.7324 -2.4550784,0.7324 l -0.7792968,0 0,3.0469 -1.8164063,0 0,-8.5664 2.7363281,0 c 1.0390574,0 1.8281194,0.2246 2.3671874,0.6738 0.542962,0.4453 0.814446,1.1113 0.814453,1.9981"
             inkscape:connector-curvature="0"
             id="path15189"
             style="font-size:12px;fill:#444444;fill-opacity:1;marker:none" />
        </g>
      </g>
    </g>
  </g>
  <rect
     width="24"
     height="24"
     x="0"
     y="0"
     id="canvas"
     style="fill:none;stroke:none;visibility:hidden" />
</svg>
