<?xml version="1.0" encoding="utf-8"?>
<!-- Generator: Adobe Illustrator 18.0.0, SVG Export Plug-In . SVG Version: 6.00 Build 0)  -->
<!DOCTYPE svg PUBLIC "-//W3C//DTD SVG 1.1//EN" "http://www.w3.org/Graphics/SVG/1.1/DTD/svg11.dtd" [
	<!ENTITY ns_flows "http://ns.adobe.com/Flows/1.0/">
	<!ENTITY ns_extend "http://ns.adobe.com/Extensibility/1.0/">
	<!ENTITY ns_ai "http://ns.adobe.com/AdobeIllustrator/10.0/">
	<!ENTITY ns_graphs "http://ns.adobe.com/Graphs/1.0/">
	<!ENTITY st0 "opacity:0.5;">
	<!ENTITY st1 "fill:#010101;">
	<!ENTITY st2 "opacity:0.75;">
	<!ENTITY st3 "fill:#FFFFFF;">
]>
<svg version="1.1" id="Layer_1" xmlns:x="&ns_extend;" xmlns:i="&ns_ai;" xmlns:graph="&ns_graphs;"
	 xmlns="http://www.w3.org/2000/svg" xmlns:xlink="http://www.w3.org/1999/xlink" xmlns:a="http://ns.adobe.com/AdobeSVGViewerExtensions/3.0/"
	 x="0px" y="0px" width="19px" height="24px" viewBox="0 0 19 24" style="enable-background:new 0 0 19 24;" xml:space="preserve">
<g style="&st0;">
	<path style="&st1;" d="M10.9,13c1.8,0,3.5-1.8,3.5-3.6c0-1.8-1.7-3.4-3.5-3.4h-5v7H10.9z M11.1,2C15.2,2,19,5.3,19,9.5
		c0,4.1-3.9,7.5-8.1,7.5h-5v7H2V2H11.1z"/>
</g>
<g style="&st2;">
	<path style="&st1;" d="M9.9,12c1.8,0,3.5-1.8,3.5-3.6c0-1.8-1.7-3.4-3.5-3.4h-5v7H9.9z M10.1,1C14.2,1,18,4.3,18,8.5
		c0,4.1-3.9,7.5-8.1,7.5h-5v7H1V1H10.1z"/>
</g>
<g>
	<path style="&st3;" d="M8.9,11c1.8,0,3.5-1.8,3.5-3.6c0-1.8-1.7-3.4-3.5-3.4h-5v7H8.9z M9.1,0C13.2,0,17,3.3,17,7.5
		c0,4.1-3.9,7.5-8.1,7.5h-5v7H0V0H9.1z"/>
</g>
</svg>
