<?xml version="1.0" encoding="utf-8"?>
<!-- Generator: Adobe Illustrator 18.1.1, SVG Export Plug-In . SVG Version: 6.00 Build 0)  -->
<svg version="1.1" xmlns="http://www.w3.org/2000/svg" xmlns:xlink="http://www.w3.org/1999/xlink" x="0px" y="0px"
	 viewBox="0 0 24 24" enable-background="new 0 0 24 24" xml:space="preserve">
<g id="shadows">
	<g opacity="0.2">
		<path d="M13.846,12.5c1.411,0,2.723-1.391,2.723-2.8c0-1.411-1.312-2.609-2.723-2.609H9.983V12.5H13.846z M13.965,4
			c3.187,0,6.103,2.579,6.103,5.763c0,3.189-3.035,5.828-6.222,5.828H9.983V21H6.932V4H13.965z"/>
	</g>
</g>
<g id="icons">
	<g>
		<path d="M12.846,11.5c1.411,0,2.723-1.391,2.723-2.8c0-1.411-1.312-2.609-2.723-2.609H8.983V11.5H12.846z M12.965,3
			c3.187,0,6.103,2.579,6.103,5.763c0,3.189-3.035,5.828-6.222,5.828H8.983V20H5.932V3H12.965z"/>
	</g>
</g>
</svg>
