<?xml version="1.0" encoding="UTF-8" standalone="no"?>
<!-- Created with Inkscape (http://www.inkscape.org/) -->

<svg
   xmlns:dc="http://purl.org/dc/elements/1.1/"
   xmlns:cc="http://creativecommons.org/ns#"
   xmlns:rdf="http://www.w3.org/1999/02/22-rdf-syntax-ns#"
   xmlns:svg="http://www.w3.org/2000/svg"
   xmlns="http://www.w3.org/2000/svg"
   xmlns:inkscape="http://www.inkscape.org/namespaces/inkscape"
   version="1.1"
   width="24"
   height="24"
   id="svg4460">
  <defs
     id="defs4462" />
  <metadata
     id="metadata4465">
    <rdf:RDF>
      <cc:Work
         rdf:about="">
        <dc:format>image/svg+xml</dc:format>
        <dc:type
           rdf:resource="http://purl.org/dc/dcmitype/StillImage" />
        <dc:title />
      </cc:Work>
    </rdf:RDF>
  </metadata>
  <g
     transform="translate(0,-1028.3622)"
     id="layer1">
    <g
       transform="translate(-162,-46)"
       id="park2-24"
       style="display:inline">
      <g
         transform="translate(129,0)"
         id="g6674">
        <path
           d="m 52,1085.8622 c 0,-1.0701 -0.679778,-1.9871 -1.625,-2.3437 0.39454,-0.442 0.625,-1.0172 0.625,-1.6563 0,-1.3807 -1.119288,-2.5 -2.5,-2.5 -0.196751,0 -0.378848,0.019 -0.5625,0.062 -0.209307,-1.1692 -1.208135,-2.0625 -2.4375,-2.0622 -1.229365,2e-4 -2.228193,0.8935 -2.4375,2.0627 -0.183652,-0.043 -0.365749,-0.062 -0.5625,-0.062 -1.380712,0 -2.5,1.1193 -2.5,2.5 0,0.6391 0.23046,1.2143 0.625,1.6563 -0.945222,0.3566 -1.625,1.2731 -1.625,2.3432 0,1.3807 1,2.5005 2.5,2.5005 l 0.5,0 2,3.5 0,3.4995 3,0 0,-3.5 2,-3.4995 0.71875,-0.015 C 51,1088.3622 52,1087.1672 52,1085.8622 z m -8,2.5 3,0 -1,2 -1,0 z"
           inkscape:connector-curvature="0"
           id="path20788"
           style="opacity:0.3;color:#000000;fill:#ffffff;fill-opacity:1;fill-rule:nonzero;stroke:#ffffff;stroke-width:2;stroke-linecap:butt;stroke-linejoin:miter;stroke-miterlimit:4;stroke-opacity:1;stroke-dasharray:none;stroke-dashoffset:0;marker:none;visibility:visible;display:inline;overflow:visible;enable-background:accumulate" />
        <path
           d="m 52,1085.8622 c 0,-1.0701 -0.679778,-1.9871 -1.625,-2.3437 0.39454,-0.442 0.625,-1.0172 0.625,-1.6563 0,-1.3807 -1.119288,-2.5 -2.5,-2.5 -0.196751,0 -0.378848,0.019 -0.5625,0.062 -0.209307,-1.1692 -1.208135,-2.0625 -2.4375,-2.0622 -1.229365,2e-4 -2.228193,0.8935 -2.4375,2.0627 -0.183652,-0.043 -0.365749,-0.062 -0.5625,-0.062 -1.380712,0 -2.5,1.1193 -2.5,2.5 0,0.6391 0.23046,1.2143 0.625,1.6563 -0.945222,0.3566 -1.625,1.2731 -1.625,2.3432 0,1.3807 1,2.5005 2.5,2.5005 l 0.5,0 2,3.5 0,3.4995 3,0 0,-3.5 2,-3.4995 0.71875,-0.015 C 51,1088.3622 52,1087.1672 52,1085.8622 z m -8,2.5 3,0 -1,2 -1,0 z"
           inkscape:connector-curvature="0"
           id="path4390-3"
           style="color:#000000;fill:#444444;fill-opacity:1;fill-rule:nonzero;stroke:none;stroke-width:2;marker:none;visibility:visible;display:inline;overflow:visible;enable-background:accumulate" />
      </g>
    </g>
  </g>
  <rect
     width="24"
     height="24"
     x="0"
     y="0"
     id="canvas"
     style="fill:none;stroke:none;visibility:hidden" />
</svg>
