<?xml version="1.0" encoding="UTF-8" standalone="no"?>
<!-- Created with Inkscape (http://www.inkscape.org/) -->

<svg
   xmlns:dc="http://purl.org/dc/elements/1.1/"
   xmlns:cc="http://creativecommons.org/ns#"
   xmlns:rdf="http://www.w3.org/1999/02/22-rdf-syntax-ns#"
   xmlns:svg="http://www.w3.org/2000/svg"
   xmlns="http://www.w3.org/2000/svg"
   xmlns:sodipodi="http://sodipodi.sourceforge.net/DTD/sodipodi-0.dtd"
   xmlns:inkscape="http://www.inkscape.org/namespaces/inkscape"
   width="12"
   height="12"
   id="svg27498"
   version="1.1"
   inkscape:version="0.48.2 r9819"
   sodipodi:docname="parking-white-12.svg">
  <defs
     id="defs27500" />
  <sodipodi:namedview
     id="base"
     pagecolor="#ffffff"
     bordercolor="#666666"
     borderopacity="1.0"
     inkscape:pageopacity="0.0"
     inkscape:pageshadow="2"
     inkscape:zoom="10.676107"
     inkscape:cx="9.6789942"
     inkscape:cy="5.7946291"
     inkscape:document-units="px"
     inkscape:current-layer="layer1"
     showgrid="false"
     inkscape:window-width="483"
     inkscape:window-height="454"
     inkscape:window-x="3716"
     inkscape:window-y="644"
     inkscape:window-maximized="0" />
  <metadata
     id="metadata27503">
    <rdf:RDF>
      <cc:Work
         rdf:about="">
        <dc:format>image/svg+xml</dc:format>
        <dc:type
           rdf:resource="http://purl.org/dc/dcmitype/StillImage" />
        <dc:title></dc:title>
      </cc:Work>
    </rdf:RDF>
  </metadata>
  <g
     inkscape:label="Layer 1"
     inkscape:groupmode="layer"
     id="layer1"
     transform="translate(0,-1040.3622)">
    <g
       id="g13039"
       transform="matrix(1.2142062,0,0,1.2142062,-26.369364,547.69605)">
      <path
         style="opacity:0;fill:#272525"
         inkscape:connector-curvature="0"
         id="path13041"
         d="m 30.415,415.639 c 0.652,0 1.181,-0.529 1.181,-1.182 v -7.521 c 0,-0.652 -0.528,-1.18 -1.181,-1.18 h -7.521 c -0.652,0 -1.181,0.527 -1.181,1.18 v 7.521 c 0,0.652 0.528,1.182 1.181,1.182 h 7.521 z" />
      <path
         d="m 27.349,410.557 c 0.562,0 1.017,-0.455 1.017,-1.016 0,-0.562 -0.455,-1.018 -1.017,-1.018 l -1.498,-0.002 v 2.035 h 1.498 z m -0.02,-3.286 c 1.269,0 2.296,1.027 2.296,2.295 0,1.27 -1.027,2.297 -2.296,2.297 l -1.478,-0.002 v 2.18 h -1.323 v -6.77 h 2.801 z"
         id="path13043"
         inkscape:connector-curvature="0"
         style="opacity:0.6;fill:none;stroke:#ffffff;stroke-width:0.5;stroke-miterlimit:4;stroke-opacity:1;stroke-dasharray:none" />
      <path
         style="fill:#272525"
         inkscape:connector-curvature="0"
         id="path13045"
         d="m 27.349,410.557 c 0.562,0 1.017,-0.455 1.017,-1.016 0,-0.562 -0.455,-1.018 -1.017,-1.018 l -1.498,-0.002 v 2.035 h 1.498 z m -0.02,-3.286 c 1.269,0 2.296,1.027 2.296,2.295 0,1.27 -1.027,2.297 -2.296,2.297 l -1.478,-0.002 v 2.18 h -1.323 v -6.77 h 2.801 z" />
    </g>
  </g>
</svg>
