<?xml version="1.0" encoding="UTF-8" standalone="no"?>
<!-- Created with Inkscape (http://www.inkscape.org/) -->

<svg
   xmlns:dc="http://purl.org/dc/elements/1.1/"
   xmlns:cc="http://creativecommons.org/ns#"
   xmlns:rdf="http://www.w3.org/1999/02/22-rdf-syntax-ns#"
   xmlns:svg="http://www.w3.org/2000/svg"
   xmlns="http://www.w3.org/2000/svg"
   xmlns:inkscape="http://www.inkscape.org/namespaces/inkscape"
   version="1.1"
   width="18"
   height="18"
   id="svg4619">
  <defs
     id="defs4621" />
  <metadata
     id="metadata4624">
    <rdf:RDF>
      <cc:Work
         rdf:about="">
        <dc:format>image/svg+xml</dc:format>
        <dc:type
           rdf:resource="http://purl.org/dc/dcmitype/StillImage" />
        <dc:title />
      </cc:Work>
    </rdf:RDF>
  </metadata>
  <g
     transform="translate(0,-1034.3622)"
     id="layer1">
    <g
       transform="translate(-108,-184)"
       id="parking-18"
       style="display:inline">
      <g
         id="g14050">
        <path
           d="m 115,1222.3622 0,10 2.125,0 0,-3.5625 0.90625,0 c 1.23958,0 2.20507,-0.274 2.875,-0.8437 0.67447,-0.5697 0.99999,-1.3932 1,-2.4688 -1e-5,-1.0345 -0.30404,-1.8242 -0.9375,-2.3437 -0.62891,-0.5241 -1.56901,-0.7812 -2.78125,-0.7813 z m 2.125,1.75 0.96875,0 c 0.57877,0 0.98112,0.1069 1.25,0.3438 0.27343,0.237 0.40624,0.597 0.40625,1.0937 -1e-5,0.4922 -0.14519,0.8652 -0.46875,1.125 -0.32358,0.2552 -0.81707,0.4063 -1.46875,0.4063 l -0.6875,0 z"
           inkscape:connector-curvature="0"
           id="path14042"
           style="font-size:25.21008492px;font-style:normal;font-variant:normal;font-weight:bold;font-stretch:normal;text-indent:0;text-align:start;text-decoration:none;line-height:125%;letter-spacing:0px;word-spacing:0px;text-transform:none;direction:ltr;block-progression:tb;writing-mode:lr-tb;text-anchor:start;baseline-shift:baseline;opacity:0.3;color:#000000;fill:#ffffff;fill-opacity:1;fill-rule:nonzero;stroke:#ffffff;stroke-width:2;stroke-linecap:butt;stroke-linejoin:round;stroke-miterlimit:4;stroke-opacity:1;stroke-dasharray:none;stroke-dashoffset:0;marker:none;visibility:visible;display:inline;overflow:visible;enable-background:accumulate;font-family:Helvetica Neue;-inkscape-font-specification:Helvetica Neue Bold" />
        <path
           d="m 115,1222.3622 0,10 2.125,0 0,-3.5625 0.90625,0 c 1.23958,0 2.20507,-0.274 2.875,-0.8437 0.67447,-0.5697 0.99999,-1.3932 1,-2.4688 -1e-5,-1.0345 -0.30404,-1.8242 -0.9375,-2.3437 -0.62891,-0.5241 -1.56901,-0.7812 -2.78125,-0.7813 z m 2.125,1.75 0.96875,0 c 0.57877,0 0.98112,0.1069 1.25,0.3438 0.27343,0.237 0.40624,0.597 0.40625,1.0937 -1e-5,0.4922 -0.14519,0.8652 -0.46875,1.125 -0.32358,0.2552 -0.81707,0.4063 -1.46875,0.4063 l -0.6875,0 z"
           inkscape:connector-curvature="0"
           id="path8599-0"
           style="font-size:25.21008492px;font-style:normal;font-variant:normal;font-weight:bold;font-stretch:normal;text-indent:0;text-align:start;text-decoration:none;line-height:125%;letter-spacing:0px;word-spacing:0px;text-transform:none;direction:ltr;block-progression:tb;writing-mode:lr-tb;text-anchor:start;baseline-shift:baseline;color:#000000;fill:#444444;fill-opacity:1;fill-rule:nonzero;stroke:none;stroke-width:2;marker:none;visibility:visible;display:inline;overflow:visible;enable-background:accumulate;font-family:Helvetica Neue;-inkscape-font-specification:Helvetica Neue Bold" />
      </g>
    </g>
  </g>
  <rect
     width="18"
     height="18"
     x="0"
     y="0"
     id="canvas"
     style="fill:none;stroke:none;visibility:hidden" />
</svg>
