<?xml version="1.0" encoding="UTF-8" standalone="no"?>
<!-- Created with Inkscape (http://www.inkscape.org/) -->

<svg
   xmlns:dc="http://purl.org/dc/elements/1.1/"
   xmlns:cc="http://creativecommons.org/ns#"
   xmlns:rdf="http://www.w3.org/1999/02/22-rdf-syntax-ns#"
   xmlns:svg="http://www.w3.org/2000/svg"
   xmlns="http://www.w3.org/2000/svg"
   xmlns:inkscape="http://www.inkscape.org/namespaces/inkscape"
   version="1.1"
   width="18"
   height="18"
   id="svg4619">
  <defs
     id="defs4621" />
  <metadata
     id="metadata4624">
    <rdf:RDF>
      <cc:Work
         rdf:about="">
        <dc:format>image/svg+xml</dc:format>
        <dc:type
           rdf:resource="http://purl.org/dc/dcmitype/StillImage" />
        <dc:title />
      </cc:Work>
    </rdf:RDF>
  </metadata>
  <g
     transform="translate(0,-1034.3622)"
     id="layer1">
    <g
       transform="translate(-186,-40)"
       id="park2-18"
       style="display:inline">
      <g
         id="g21725">
        <path
           d="m 200,1083.3622 c 0,-1 -1,-2 -1.5,-2 0.30686,-0.3437 0.61108,-1.0028 0.61108,-1.4999 0,-1.0738 -1.11108,-2.0001 -2.11108,-2.0001 0,-1 -0.5,-1.5 -1.5,-1.5 -1,0 -1.5,0.5 -1.5,1.5 -1,0 -2.11108,0.9266 -2.11108,2.0005 0,0.4971 0.30422,1.1558 0.61108,1.4995 -0.5,0 -1.5,1 -1.5,2 0,1 0.5,2.056 2.05557,2.056 l 0.38889,0 0.0555,0.944 1.5,1.5 -4e-5,2.5 1,0 4e-5,-2.5004 1.5,-1.4996 0.0555,-0.944 0.55902,-0.012 C 199.5,1085.3622 200,1084.3622 200,1083.3622 z m -5.5,2 2,0 0,0.5 -1,1 -1,-1 z"
           inkscape:connector-curvature="0"
           id="path14353"
           style="opacity:0.3;color:#000000;fill:none;stroke:#ffffff;stroke-width:2;stroke-linecap:round;stroke-linejoin:round;stroke-miterlimit:4;stroke-opacity:1;stroke-dasharray:none;stroke-dashoffset:0;marker:none;visibility:visible;display:inline;overflow:visible;enable-background:accumulate" />
        <path
           d="m 200,1083.3622 c 0,-1 -1,-2 -1.5,-2 0.30686,-0.3437 0.61108,-1.0028 0.61108,-1.4999 0,-1.0738 -1.11108,-2.0001 -2.11108,-2.0001 0,-1 -0.5,-1.5 -1.5,-1.5 -1,0 -1.5,0.5 -1.5,1.5 -1,0 -2.11108,0.9266 -2.11108,2.0005 0,0.4971 0.30422,1.1558 0.61108,1.4995 -0.5,0 -1.5,1 -1.5,2 0,1 0.5,2.056 2.05557,2.056 l 0.38889,0 0.0555,0.944 1.5,1.5 -4e-5,2.5 1,0 4e-5,-2.5004 1.5,-1.4996 0.0555,-0.944 0.55902,-0.012 C 199.5,1085.3622 200,1084.3622 200,1083.3622 z m -5.5,2 2,0 0,0.5 -1,1 -1,-1 z"
           inkscape:connector-curvature="0"
           id="path4390-3-6"
           style="color:#000000;fill:#444444;fill-opacity:1;fill-rule:nonzero;stroke:none;stroke-width:2;marker:none;visibility:visible;display:inline;overflow:visible;enable-background:accumulate" />
      </g>
    </g>
  </g>
  <rect
     width="18"
     height="18"
     x="0"
     y="0"
     id="canvas"
     style="fill:none;stroke:none;visibility:hidden" />
</svg>
