<?xml version="1.0" encoding="utf-8"?>
<!-- Generator: Adobe Illustrator 18.1.1, SVG Export Plug-In . SVG Version: 6.00 Build 0)  -->
<svg version="1.1" xmlns="http://www.w3.org/2000/svg" xmlns:xlink="http://www.w3.org/1999/xlink" x="0px" y="0px"
	 viewBox="0 0 12 12" enable-background="new 0 0 12 12" xml:space="preserve">
<g id="shadows">
	<g opacity="0.2">
		<path d="M6.2,5.9c0.7,0,1.7-0.6,1.7-1.4c0-0.7-0.6-1.4-1.4-1.4l-2.3,0v2.7h2.3L6.2,5.9z M6.2,1.5c1.7,0,3.3,1.4,3.3,3.1
			c0,1.7-1.7,3.1-3.3,3.1l-2,0v2.9H2.5v-9H6.2z"/>
	</g>
</g>
<g id="icons">
	<g>
		<path d="M5.7,5.4c0.7,0,1.7-0.6,1.7-1.4c0-0.7-0.6-1.4-1.4-1.4l-2.3,0v2.7H6L5.7,5.4z M5.7,1C7.4,1,9,2.4,9,4.1
			c0,1.7-1.7,3.1-3.3,3.1l-2,0V10H2V1H5.7z"/>
	</g>
</g>
</svg>
