<?xml version="1.0" encoding="UTF-8" standalone="no"?>
<!-- Created with Inkscape (http://www.inkscape.org/) -->

<svg
   xmlns:dc="http://purl.org/dc/elements/1.1/"
   xmlns:cc="http://creativecommons.org/ns#"
   xmlns:rdf="http://www.w3.org/1999/02/22-rdf-syntax-ns#"
   xmlns:svg="http://www.w3.org/2000/svg"
   xmlns="http://www.w3.org/2000/svg"
   xmlns:inkscape="http://www.inkscape.org/namespaces/inkscape"
   version="1.1"
   width="18"
   height="18"
   id="svg4619">
  <defs
     id="defs4621" />
  <metadata
     id="metadata4624">
    <rdf:RDF>
      <cc:Work
         rdf:about="">
        <dc:format>image/svg+xml</dc:format>
        <dc:type
           rdf:resource="http://purl.org/dc/dcmitype/StillImage" />
        <dc:title />
      </cc:Work>
    </rdf:RDF>
  </metadata>
  <g
     transform="translate(0,-1034.3622)"
     id="layer1">
    <g
       transform="translate(-108,-184)"
       id="parking-garage-18"
       style="display:inline">
      <g
         transform="matrix(0.91666667,0,0,1,10.25,0)"
         id="g21820"
         style="fill:#b4b4b4;fill-opacity:1">
        <path
           d="m 117,1219.3622 -6,1.5 0,1.5 6,-1.5 6,1.5 0,-1.5 -6,-1.5 z m -2.72727,4 0,10 2.31818,0 0,-3.5625 0.98864,0 c 1.35227,0 2.40553,-0.274 3.13636,-0.8437 0.73579,-0.5697 1.0909,-1.3932 1.09091,-2.4688 -1e-5,-1.0345 -0.33168,-1.8242 -1.02273,-2.3437 -0.68608,-0.5241 -1.71165,-0.7812 -3.03409,-0.7813 l -3.47727,0 z m 2.31818,1.75 1.05682,0 c 0.63138,0 1.07031,0.1069 1.36363,0.3438 0.29829,0.237 0.44318,0.597 0.44319,1.0937 -1e-5,0.4922 -0.15839,0.8652 -0.51137,1.125 -0.35299,0.2552 -0.89135,0.4063 -1.60227,0.4063 l -0.75,0 0,-2.9688 z"
           inkscape:connector-curvature="0"
           id="path13984"
           style="font-size:25.21008492px;font-style:normal;font-variant:normal;font-weight:bold;font-stretch:normal;text-indent:0;text-align:start;text-decoration:none;line-height:125%;letter-spacing:0px;word-spacing:0px;text-transform:none;direction:ltr;block-progression:tb;writing-mode:lr-tb;text-anchor:start;baseline-shift:baseline;opacity:0.3;color:#000000;fill:#ffffff;fill-opacity:1;fill-rule:nonzero;stroke:#ffffff;stroke-width:2.0889318;stroke-linecap:butt;stroke-linejoin:round;stroke-miterlimit:4;stroke-opacity:1;stroke-dasharray:none;stroke-dashoffset:0;marker:none;visibility:visible;display:inline;overflow:visible;enable-background:accumulate;font-family:Helvetica Neue;-inkscape-font-specification:Helvetica Neue Bold" />
        <path
           d="m 117,1219.3622 -6,1.5 0,1.5 6,-1.5 6,1.5 0,-1.5 -6,-1.5 z m -2.72727,4 0,10 2.31818,0 0,-3.5625 0.98864,0 c 1.35227,0 2.40553,-0.274 3.13636,-0.8437 0.73579,-0.5697 1.0909,-1.3932 1.09091,-2.4688 -1e-5,-1.0345 -0.33168,-1.8242 -1.02273,-2.3437 -0.68608,-0.5241 -1.71165,-0.7812 -3.03409,-0.7813 l -3.47727,0 z m 2.31818,1.75 1.05682,0 c 0.63138,0 1.07031,0.1069 1.36363,0.3438 0.29829,0.237 0.44318,0.597 0.44319,1.0937 -1e-5,0.4922 -0.15839,0.8652 -0.51137,1.125 -0.35299,0.2552 -0.89135,0.4063 -1.60227,0.4063 l -0.75,0 0,-2.9688 z"
           inkscape:connector-curvature="0"
           id="path8599"
           style="font-size:25.21008492px;font-style:normal;font-variant:normal;font-weight:bold;font-stretch:normal;text-indent:0;text-align:start;text-decoration:none;line-height:125%;letter-spacing:0px;word-spacing:0px;text-transform:none;direction:ltr;block-progression:tb;writing-mode:lr-tb;text-anchor:start;baseline-shift:baseline;color:#000000;fill:#444444;fill-opacity:1;fill-rule:nonzero;stroke:none;stroke-width:2;marker:none;visibility:visible;display:inline;overflow:visible;enable-background:accumulate;font-family:Helvetica Neue;-inkscape-font-specification:Helvetica Neue Bold" />
      </g>
    </g>
  </g>
  <rect
     width="18"
     height="18"
     x="0"
     y="0"
     id="canvas"
     style="fill:none;stroke:none;visibility:hidden" />
</svg>
