<?xml version="1.0" encoding="UTF-8" standalone="no"?>
<!-- Created with Inkscape (http://www.inkscape.org/) -->

<svg
   xmlns:dc="http://purl.org/dc/elements/1.1/"
   xmlns:cc="http://creativecommons.org/ns#"
   xmlns:rdf="http://www.w3.org/1999/02/22-rdf-syntax-ns#"
   xmlns:svg="http://www.w3.org/2000/svg"
   xmlns="http://www.w3.org/2000/svg"
   xmlns:inkscape="http://www.inkscape.org/namespaces/inkscape"
   version="1.1"
   width="24"
   height="24"
   id="svg4460">
  <defs
     id="defs4462" />
  <metadata
     id="metadata4465">
    <rdf:RDF>
      <cc:Work
         rdf:about="">
        <dc:format>image/svg+xml</dc:format>
        <dc:type
           rdf:resource="http://purl.org/dc/dcmitype/StillImage" />
        <dc:title />
      </cc:Work>
    </rdf:RDF>
  </metadata>
  <g
     transform="translate(0,-1028.3622)"
     id="layer1">
    <g
       transform="translate(-84,-190)"
       id="parking-garage-24"
       style="display:inline">
      <g
         transform="translate(0,6)"
         id="g15952">
        <path
           d="m 96.5,1216.3622 -6.5,2 0,2 6.5,-2 6.5,2 0,-2 -6.5,-2 z m -3.09375,4.25 0,11.4063 2.40625,0 0,-4.0625 1.0625,0 c 1.41666,0 2.51561,-0.3177 3.28125,-0.9688 0.77082,-0.6511 1.125,-1.5834 1.125,-2.8125 0,-1.1824 -0.33855,-2.0625 -1.0625,-2.6562 -0.71876,-0.5989 -1.77084,-0.9063 -3.15625,-0.9063 l -3.65625,0 z m 2.40625,1.9688 1.125,0 c 0.66145,0 1.1302,0.1354 1.4375,0.4062 0.3125,0.271 0.46875,0.7136 0.46875,1.2813 0,0.5625 -0.19271,0.9844 -0.5625,1.2812 -0.36979,0.2917 -0.91146,0.4375 -1.65625,0.4375 l -0.8125,0 0,-3.4062 z"
           inkscape:connector-curvature="0"
           id="path15229"
           style="font-size:25.21008492px;font-style:normal;font-variant:normal;font-weight:bold;font-stretch:normal;text-indent:0;text-align:start;text-decoration:none;line-height:125%;letter-spacing:0px;word-spacing:0px;text-transform:none;direction:ltr;block-progression:tb;writing-mode:lr-tb;text-anchor:start;baseline-shift:baseline;opacity:0.3;color:#000000;fill:#ffffff;fill-opacity:1;fill-rule:nonzero;stroke:#ffffff;stroke-width:1.99999988;stroke-linecap:butt;stroke-linejoin:round;stroke-miterlimit:4;stroke-opacity:1;stroke-dasharray:none;stroke-dashoffset:0;marker:none;visibility:visible;display:inline;overflow:visible;enable-background:accumulate;font-family:Helvetica Neue;-inkscape-font-specification:Helvetica Neue Bold" />
        <path
           d="m 96.5,1216.3622 -6.5,2 0,2 6.5,-2 6.5,2 0,-2 -6.5,-2 z m -3.09375,4.25 0,11.4063 2.40625,0 0,-4.0625 1.0625,0 c 1.41666,0 2.51561,-0.3177 3.28125,-0.9688 0.77082,-0.6511 1.125,-1.5834 1.125,-2.8125 0,-1.1824 -0.33855,-2.0625 -1.0625,-2.6562 -0.71876,-0.5989 -1.77084,-0.9063 -3.15625,-0.9063 l -3.65625,0 z m 2.40625,1.9688 1.125,0 c 0.66145,0 1.1302,0.1354 1.4375,0.4062 0.3125,0.271 0.46875,0.7136 0.46875,1.2813 0,0.5625 -0.19271,0.9844 -0.5625,1.2812 -0.36979,0.2917 -0.91146,0.4375 -1.65625,0.4375 l -0.8125,0 0,-3.4062 z"
           inkscape:connector-curvature="0"
           id="path8288"
           style="font-size:25.21008492px;font-style:normal;font-variant:normal;font-weight:bold;font-stretch:normal;text-indent:0;text-align:start;text-decoration:none;line-height:125%;letter-spacing:0px;word-spacing:0px;text-transform:none;direction:ltr;block-progression:tb;writing-mode:lr-tb;text-anchor:start;baseline-shift:baseline;color:#000000;fill:#444444;fill-opacity:1;fill-rule:nonzero;stroke:none;stroke-width:2;marker:none;visibility:visible;display:inline;overflow:visible;enable-background:accumulate;font-family:Helvetica Neue;-inkscape-font-specification:Helvetica Neue Bold" />
      </g>
    </g>
  </g>
  <rect
     width="24"
     height="24"
     x="0"
     y="0"
     id="canvas"
     style="fill:none;stroke:none;visibility:hidden" />
</svg>
