<?xml version="1.0" encoding="utf-8"?>
<!-- Generator: Adobe Illustrator 18.1.1, SVG Export Plug-In . SVG Version: 6.00 Build 0)  -->
<svg version="1.1" xmlns="http://www.w3.org/2000/svg" xmlns:xlink="http://www.w3.org/1999/xlink" x="0px" y="0px"
	 viewBox="0 0 18 18" enable-background="new 0 0 18 18" xml:space="preserve">
<g id="shadows">
	<g opacity="0.2">
		<path d="M10.6,9.1c1.1,0,2.5-0.9,2.5-2c0-1.1-0.9-2-2-2l-3.3,0v3.9H11L10.6,9.1z M10.5,2.8c2.4,0,4.8,2,4.8,4.4
			c0,2.4-2.4,4.4-4.8,4.4l-2.8,0v4.2H5.1v-13H10.5z"/>
	</g>
</g>
<g id="icons">
	<g>
		<path fill="#FFFFFF" d="M9.8,8.3c1.1,0,2.5-0.9,2.5-2c0-1.1-0.9-2-2-2l-3.3,0v3.9h3.3L9.8,8.3z M9.8,2c2.4,0,4.8,2,4.8,4.4
			c0,2.4-2.4,4.4-4.8,4.4l-2.8,0V15H4.4V2H9.8z"/>
	</g>
</g>
</svg>
