<?xml version="1.0" encoding="utf-8"?>
<!-- Generator: Adobe Illustrator 18.1.1, SVG Export Plug-In . SVG Version: 6.00 Build 0)  -->
<svg version="1.1" xmlns="http://www.w3.org/2000/svg" xmlns:xlink="http://www.w3.org/1999/xlink" x="0px" y="0px"
	 viewBox="0 0 12 12" enable-background="new 0 0 12 12" xml:space="preserve">
<g id="shadows">
	<g opacity="0.2">
		<path d="M7.215,5.868c0.747,0,1.712-0.605,1.712-1.351c0-0.747-0.646-1.354-1.393-1.354L5.223,3.162v2.705h2.311L7.215,5.868z
			 M7.188,1.5c1.687,0,3.348,1.365,3.348,3.051c0,1.688-1.661,3.054-3.348,3.054L5.223,7.602V10.5H3.464v-9H7.188z"/>
	</g>
</g>
<g id="icons">
	<g>
		<path d="M6.715,5.368c0.747,0,1.712-0.605,1.712-1.351c0-0.747-0.646-1.354-1.393-1.354L4.723,2.662v2.705h2.311L6.715,5.368z
			 M6.688,1c1.687,0,3.348,1.365,3.348,3.051c0,1.688-1.661,3.054-3.348,3.054L4.723,7.102V10H2.964V1H6.688z"/>
	</g>
</g>
</svg>
