<?xml version="1.0" encoding="UTF-8" standalone="no"?>
<!-- Created with Inkscape (http://www.inkscape.org/) -->

<svg
   xmlns:dc="http://purl.org/dc/elements/1.1/"
   xmlns:cc="http://creativecommons.org/ns#"
   xmlns:rdf="http://www.w3.org/1999/02/22-rdf-syntax-ns#"
   xmlns:svg="http://www.w3.org/2000/svg"
   xmlns="http://www.w3.org/2000/svg"
   xmlns:sodipodi="http://sodipodi.sourceforge.net/DTD/sodipodi-0.dtd"
   xmlns:inkscape="http://www.inkscape.org/namespaces/inkscape"
   width="18"
   height="18"
   id="svg27435"
   version="1.1"
   inkscape:version="0.48.2 r9819"
   sodipodi:docname="lodging-white-18.svg">
  <defs
     id="defs27437" />
  <sodipodi:namedview
     id="base"
     pagecolor="#ffffff"
     bordercolor="#666666"
     borderopacity="1.0"
     inkscape:pageopacity="0.0"
     inkscape:pageshadow="2"
     inkscape:zoom="7.9891803"
     inkscape:cx="12.590799"
     inkscape:cy="8.9588378"
     inkscape:document-units="px"
     inkscape:current-layer="layer1"
     showgrid="false"
     inkscape:window-width="483"
     inkscape:window-height="454"
     inkscape:window-x="3219"
     inkscape:window-y="652"
     inkscape:window-maximized="0" />
  <metadata
     id="metadata27440">
    <rdf:RDF>
      <cc:Work
         rdf:about="">
        <dc:format>image/svg+xml</dc:format>
        <dc:type
           rdf:resource="http://purl.org/dc/dcmitype/StillImage" />
        <dc:title></dc:title>
      </cc:Work>
    </rdf:RDF>
  </metadata>
  <g
     inkscape:label="Layer 1"
     inkscape:groupmode="layer"
     id="layer1"
     transform="translate(0,-1034.3622)">
    <g
       transform="matrix(1.8213093,0,0,1.8213093,-211.95907,251.38189)"
       id="g13047">
      <path
         style="opacity:0;fill:#272525"
         inkscape:connector-curvature="0"
         id="path13049"
         d="m 125.086,439.776 c 0.652,0 1.181,-0.529 1.181,-1.182 v -7.521 c 0,-0.652 -0.528,-1.18 -1.181,-1.18 h -7.521 c -0.652,0 -1.181,0.527 -1.181,1.18 v 7.521 c 0,0.652 0.528,1.182 1.181,1.182 h 7.521 z" />
      <path
         d="m 122.02,434.694 c 0.562,0 1.017,-0.455 1.017,-1.016 0,-0.562 -0.455,-1.018 -1.017,-1.018 l -1.498,-0.002 v 2.035 h 1.498 z M 122,431.408 c 1.269,0 2.296,1.027 2.296,2.295 0,1.27 -1.027,2.297 -2.296,2.297 l -1.478,-0.002 v 2.18 h -1.323 v -6.77 H 122 z"
         id="path13051"
         inkscape:connector-curvature="0"
         style="opacity:0.6;fill:none;stroke:#1d1d1c;stroke-width:0.5;stroke-miterlimit:4;stroke-opacity:1;stroke-dasharray:none" />
      <path
         style="fill:#ffffff;fill-opacity:1"
         inkscape:connector-curvature="0"
         id="path13053"
         d="m 122.02,434.694 c 0.562,0 1.017,-0.455 1.017,-1.016 0,-0.562 -0.455,-1.018 -1.017,-1.018 l -1.498,-0.002 v 2.035 h 1.498 z M 122,431.408 c 1.269,0 2.296,1.027 2.296,2.295 0,1.27 -1.027,2.297 -2.296,2.297 l -1.478,-0.002 v 2.18 h -1.323 v -6.77 H 122 z" />
    </g>
  </g>
</svg>
