<?xml version="1.0" encoding="UTF-8" standalone="no"?>
<svg width="18px" height="18px" viewBox="0 0 18 18" version="1.1" xmlns="http://www.w3.org/2000/svg" xmlns:xlink="http://www.w3.org/1999/xlink" xmlns:sketch="http://www.bohemiancoding.com/sketch/ns">
    <!-- Generator: Sketch 3.2.2 (9983) - http://www.bohemiancoding.com/sketch -->
    <title>parking-black-18</title>
    <desc>Created with Sketch.</desc>
    <defs></defs>
    <g id="Page-1" stroke="none" stroke-width="1" fill="none" fill-rule="evenodd" sketch:type="MSPage">
        <path d="M8.74074074,2 C11.8,2 14.5925926,4.43808204 14.5925926,7.44553654 C14.5925926,10.4602907 11.6814815,12.9494703 8.62962963,12.9494703 L4.92592593,12.9494703 L4.92592593,18.059223 L2,18.059223 L2,2 L8.74074074,2 L8.74074074,2 Z M8.62962963,10.0296115 C9.97777778,10.0296115 11.237037,8.71567509 11.237037,7.38713936 C11.237037,6.05130399 9.97777778,4.91985873 8.62962963,4.91985873 L4.92592593,4.91985873 L4.92592593,10.0296115 L8.62962963,10.0296115 L8.62962963,10.0296115 Z" id="Fill-27" opacity="0.1" fill="#0A0B09" sketch:type="MSShapeGroup"></path>
        <path d="M7.74074074,1 C10.8,1 13.5925926,3.43808204 13.5925926,6.44553654 C13.5925926,9.46029068 10.6814815,11.9494703 7.62962963,11.9494703 L3.92592593,11.9494703 L3.92592593,17.059223 L1,17.059223 L1,1 L7.74074074,1 L7.74074074,1 Z M7.62962963,9.02961152 C8.97777778,9.02961152 10.237037,7.71567509 10.237037,6.38713936 C10.237037,5.05130399 8.97777778,3.91985873 7.62962963,3.91985873 L3.92592593,3.91985873 L3.92592593,9.02961152 L7.62962963,9.02961152 L7.62962963,9.02961152 Z" id="Fill-27" opacity="0.2" fill="#0A0B09" sketch:type="MSShapeGroup"></path>
        <path d="M6.74074074,0 C9.8,0 12.5925926,2.43808204 12.5925926,5.44553654 C12.5925926,8.46029068 9.68148148,10.9494703 6.62962963,10.9494703 L2.92592593,10.9494703 L2.92592593,16.059223 L0,16.059223 L0,0 L6.74074074,0 L6.74074074,0 Z M6.62962963,8.02961152 C7.97777778,8.02961152 9.23703704,6.71567509 9.23703704,5.38713936 C9.23703704,4.05130399 7.97777778,2.91985873 6.62962963,2.91985873 L2.92592593,2.91985873 L2.92592593,8.02961152 L6.62962963,8.02961152 L6.62962963,8.02961152 Z" id="Fill-27" fill="#0A0B09" sketch:type="MSShapeGroup"></path>
    </g>
</svg>