<?xml version="1.0" encoding="utf-8"?>
<!-- Generator: Adobe Illustrator 18.1.1, SVG Export Plug-In . SVG Version: 6.00 Build 0)  -->
<svg version="1.1" xmlns="http://www.w3.org/2000/svg" xmlns:xlink="http://www.w3.org/1999/xlink" x="0px" y="0px"
	 viewBox="0 0 18 18" enable-background="new 0 0 18 18" xml:space="preserve">
<g id="shadows">
	<g opacity="0.2">
		<path d="M10.56,9.06c1.079,0,2.473-0.874,2.473-1.951c0-1.079-0.932-1.955-2.012-1.955L7.683,5.15v3.908h3.338L10.56,9.06z
			 M10.521,2.75c2.437,0,4.836,1.972,4.836,4.407c0,2.438-2.399,4.411-4.836,4.411l-2.838-0.004v4.186h-2.54v-13H10.521z"/>
	</g>
</g>
<g id="icons">
	<g>
		<path d="M9.81,8.31c1.079,0,2.473-0.874,2.473-1.951c0-1.079-0.932-1.955-2.012-1.955L6.933,4.4v3.908h3.338L9.81,8.31z M9.771,2
			c2.437,0,4.836,1.972,4.836,4.407c0,2.438-2.399,4.411-4.836,4.411l-2.838-0.004V15h-2.54V2H9.771z"/>
	</g>
</g>
</svg>
