<?xml version="1.0" encoding="UTF-8" standalone="no"?>
<svg width="18px" height="18px" viewBox="0 0 18 18" version="1.1" xmlns="http://www.w3.org/2000/svg" xmlns:xlink="http://www.w3.org/1999/xlink" xmlns:sketch="http://www.bohemiancoding.com/sketch/ns">
    <!-- Generator: Sketch 3.2.2 (9983) - http://www.bohemiancoding.com/sketch -->
    <title>pets-on-leash-black-18</title>
    <desc>Created with Sketch.</desc>
    <defs></defs>
    <g id="Page-1" stroke="none" stroke-width="1" fill="none" fill-rule="evenodd" sketch:type="MSPage">
        <g id="Fill-289-+-Fill-290-+-Fill-291" sketch:type="MSLayerGroup" transform="translate(1.400002, 2.000000)" fill="#0A0B09" opacity="0.1">
            <path d="M2.96296296,8.15240424 L2.96296296,14.7220864 L3.7037037,14.7220864 L3.7037037,15.4520511 L4.44444444,15.4520511 L4.44444444,14.7220864 L5.18518519,14.7220864 L5.18518519,12.5321923 L7.40740741,15.4520511 L8.14814815,15.4520511 L8.88888889,13.9921217 L6.66666667,11.072263 L11.1111111,11.072263 L11.1111111,14.7220864 L11.8518519,14.7220864 L11.8518519,15.4520511 L12.5925926,15.4520511 L12.5925926,14.7220864 L13.3333333,14.7220864 L13.3333333,7.42243955 L10.3703704,5.96251019 L2.96296296,5.96251019 L2.22222222,5.2325455 L1.48148148,5.96251019 L2.96296296,8.15240424" id="Fill-289" sketch:type="MSShapeGroup"></path>
            <path d="M10.3703704,4.50258082 L10.3703704,0.122792719 L11.1111111,0.122792719 L11.1111111,0.852757403 L17.037037,3.77261614 L17.037037,5.2325455 L13.3333333,5.96251019 L10.3703704,4.50258082" id="Fill-290" sketch:type="MSShapeGroup"></path>
            <path d="M0.740740741,0.122792719 L0.740740741,1.21773974 L10.3703704,5.59752785 L10.3703704,4.50258082 L0.740740741,0.122792719" id="Fill-291" sketch:type="MSShapeGroup"></path>
        </g>
        <g id="Fill-289-+-Fill-290-+-Fill-291" sketch:type="MSLayerGroup" transform="translate(0.400002, 1.000000)" fill="#0A0B09" opacity="0.2">
            <path d="M2.96296296,8.15240424 L2.96296296,14.7220864 L3.7037037,14.7220864 L3.7037037,15.4520511 L4.44444444,15.4520511 L4.44444444,14.7220864 L5.18518519,14.7220864 L5.18518519,12.5321923 L7.40740741,15.4520511 L8.14814815,15.4520511 L8.88888889,13.9921217 L6.66666667,11.072263 L11.1111111,11.072263 L11.1111111,14.7220864 L11.8518519,14.7220864 L11.8518519,15.4520511 L12.5925926,15.4520511 L12.5925926,14.7220864 L13.3333333,14.7220864 L13.3333333,7.42243955 L10.3703704,5.96251019 L2.96296296,5.96251019 L2.22222222,5.2325455 L1.48148148,5.96251019 L2.96296296,8.15240424" id="Fill-289" sketch:type="MSShapeGroup"></path>
            <path d="M10.3703704,4.50258082 L10.3703704,0.122792719 L11.1111111,0.122792719 L11.1111111,0.852757403 L17.037037,3.77261614 L17.037037,5.2325455 L13.3333333,5.96251019 L10.3703704,4.50258082" id="Fill-290" sketch:type="MSShapeGroup"></path>
            <path d="M0.740740741,0.122792719 L0.740740741,1.21773974 L10.3703704,5.59752785 L10.3703704,4.50258082 L0.740740741,0.122792719" id="Fill-291" sketch:type="MSShapeGroup"></path>
        </g>
        <g id="Fill-289-+-Fill-290-+-Fill-291" sketch:type="MSLayerGroup" transform="translate(-0.599998, 0.000000)" fill="#0A0B09">
            <path d="M2.96296296,8.15240424 L2.96296296,14.7220864 L3.7037037,14.7220864 L3.7037037,15.4520511 L4.44444444,15.4520511 L4.44444444,14.7220864 L5.18518519,14.7220864 L5.18518519,12.5321923 L7.40740741,15.4520511 L8.14814815,15.4520511 L8.88888889,13.9921217 L6.66666667,11.072263 L11.1111111,11.072263 L11.1111111,14.7220864 L11.8518519,14.7220864 L11.8518519,15.4520511 L12.5925926,15.4520511 L12.5925926,14.7220864 L13.3333333,14.7220864 L13.3333333,7.42243955 L10.3703704,5.96251019 L2.96296296,5.96251019 L2.22222222,5.2325455 L1.48148148,5.96251019 L2.96296296,8.15240424" id="Fill-289" sketch:type="MSShapeGroup"></path>
            <path d="M10.3703704,4.50258082 L10.3703704,0.122792719 L11.1111111,0.122792719 L11.1111111,0.852757403 L17.037037,3.77261614 L17.037037,5.2325455 L13.3333333,5.96251019 L10.3703704,4.50258082" id="Fill-290" sketch:type="MSShapeGroup"></path>
            <path d="M0.740740741,0.122792719 L0.740740741,1.21773974 L10.3703704,5.59752785 L10.3703704,4.50258082 L0.740740741,0.122792719" id="Fill-291" sketch:type="MSShapeGroup"></path>
        </g>
    </g>
</svg>