<?xml version="1.0" encoding="utf-8"?>
<!-- Generator: Adobe Illustrator 18.0.0, SVG Export Plug-In . SVG Version: 6.00 Build 0)  -->
<!DOCTYPE svg PUBLIC "-//W3C//DTD SVG 1.1//EN" "http://www.w3.org/Graphics/SVG/1.1/DTD/svg11.dtd" [
	<!ENTITY ns_flows "http://ns.adobe.com/Flows/1.0/">
	<!ENTITY ns_extend "http://ns.adobe.com/Extensibility/1.0/">
	<!ENTITY ns_ai "http://ns.adobe.com/AdobeIllustrator/10.0/">
	<!ENTITY ns_graphs "http://ns.adobe.com/Graphs/1.0/">
	<!ENTITY st0 "opacity:0.5;">
	<!ENTITY st1 "fill:#010101;">
	<!ENTITY st2 "opacity:0.75;">
	<!ENTITY st3 "fill:#FFFFFF;">
]>
<svg version="1.1" id="Layer_1" xmlns:x="&ns_extend;" xmlns:i="&ns_ai;" xmlns:graph="&ns_graphs;"
	 xmlns="http://www.w3.org/2000/svg" xmlns:xlink="http://www.w3.org/1999/xlink" xmlns:a="http://ns.adobe.com/AdobeSVGViewerExtensions/3.0/"
	 x="0px" y="0px" width="24px" height="23px" viewBox="0 0 24 23" style="enable-background:new 0 0 24 23;" xml:space="preserve">
<g style="&st0;">
	<polygon style="&st1;" points="5,13 5,22 6,22 6,23 7,23 7,22 8,22 8,19 11,23 12,23 13,21 10,17 16,17 16,22 17,22 17,23 18,23 
		18,22 19,22 19,12 15,10 5,10 4,9 3,10 	"/>
	<polygon style="&st1;" points="15,8 15,2 16,2 16,3 24,7 24,9 19,10 	"/>
	<polygon style="&st1;" points="2,2 2,3.5 15,9.5 15,8 	"/>
</g>
<g style="&st2;">
	<polygon style="&st1;" points="4,12 4,21 5,21 5,22 6,22 6,21 7,21 7,18 10,22 11,22 12,20 9,16 15,16 15,21 16,21 16,22 17,22 
		17,21 18,21 18,11 14,9 4,9 3,8 2,9 	"/>
	<polygon style="&st1;" points="14,7 14,1 15,1 15,2 23,6 23,8 18,9 	"/>
	<polygon style="&st1;" points="1,1 1,2.5 14,8.5 14,7 	"/>
</g>
<g>
	<polygon style="&st3;" points="3,11 3,20 4,20 4,21 5,21 5,20 6,20 6,17 9,21 10,21 11,19 8,15 14,15 14,20 15,20 15,21 16,21 
		16,20 17,20 17,10 13,8 3,8 2,7 1,8 	"/>
	<polygon style="&st3;" points="13,6 13,0 14,0 14,1 22,5 22,7 17,8 	"/>
	<polygon style="&st3;" points="0,0 0,1.5 13,7.5 13,6 	"/>
</g>
</svg>
