<?xml version="1.0" encoding="UTF-8" standalone="no"?>
<svg width="12px" height="12px" viewBox="0 0 12 12" version="1.1" xmlns="http://www.w3.org/2000/svg" xmlns:xlink="http://www.w3.org/1999/xlink" xmlns:sketch="http://www.bohemiancoding.com/sketch/ns">
    <!-- Generator: Sketch 3.2.2 (9983) - http://www.bohemiancoding.com/sketch -->
    <title>pets-on-leash-white-12</title>
    <desc>Created with Sketch.</desc>
    <defs></defs>
    <g id="Page-1" stroke="none" stroke-width="1" fill="none" fill-rule="evenodd" sketch:type="MSPage">
        <path d="M9.05882353,6.26115702 L9.05882353,5.90606061 L8.35294118,5.55096419 L3.41176471,5.55096419 L3.41176471,4.84077135 L2.70588235,4.84077135 L3.41176471,6.26115702 L3.41176471,10.522314 L4.82352941,11.2325069 L4.82352941,9.10192837 L6.23529412,11.2325069 L6.94117647,10.522314 L5.52941176,8.39173554 L8.35294118,8.39173554 L8.35294118,10.522314 L9.76470588,11.2325069 L9.76470588,6.26115702 L9.05882353,6.26115702" id="Fill-292" opacity="0.5" fill="#0A0B09" sketch:type="MSShapeGroup"></path>
        <path d="M9.05882353,2.71019284 L9.05882353,2 L8.35294118,2 L8.35294118,4.84077135 L9.05882353,4.84077135 L9.05882353,5.19586777 L9.76470588,5.55096419 L11.8823529,5.55096419 L11.8823529,4.13057851 L9.05882353,2.71019284" id="Fill-293" opacity="0.5" fill="#0A0B09" sketch:type="MSShapeGroup"></path>
        <path d="M2,2 L8.35294118,4.84077135 L8.35294118,5.55096419 L2,2.71019284 L2,2" id="Fill-294" opacity="0.5" fill="#0A0B09" sketch:type="MSShapeGroup"></path>
        <path d="M8.05882353,5.26115702 L8.05882353,4.90606061 L7.35294118,4.55096419 L2.41176471,4.55096419 L2.41176471,3.84077135 L1.70588235,3.84077135 L2.41176471,5.26115702 L2.41176471,9.52231405 L3.82352941,10.2325069 L3.82352941,8.10192837 L5.23529412,10.2325069 L5.94117647,9.52231405 L4.52941176,7.39173554 L7.35294118,7.39173554 L7.35294118,9.52231405 L8.76470588,10.2325069 L8.76470588,5.26115702 L8.05882353,5.26115702" id="Fill-292" opacity="0.75" fill="#0A0B09" sketch:type="MSShapeGroup"></path>
        <path d="M8.05882353,1.71019284 L8.05882353,1 L7.35294118,1 L7.35294118,3.84077135 L8.05882353,3.84077135 L8.05882353,4.19586777 L8.76470588,4.55096419 L10.8823529,4.55096419 L10.8823529,3.13057851 L8.05882353,1.71019284" id="Fill-293" opacity="0.75" fill="#0A0B09" sketch:type="MSShapeGroup"></path>
        <path d="M1,1 L7.35294118,3.84077135 L7.35294118,4.55096419 L1,1.71019284 L1,1" id="Fill-294" opacity="0.75" fill="#0A0B09" sketch:type="MSShapeGroup"></path>
        <path d="M7.05882353,4.26115702 L7.05882353,3.90606061 L6.35294118,3.55096419 L1.41176471,3.55096419 L1.41176471,2.84077135 L0.705882353,2.84077135 L1.41176471,4.26115702 L1.41176471,8.52231405 L2.82352941,9.23250689 L2.82352941,7.10192837 L4.23529412,9.23250689 L4.94117647,8.52231405 L3.52941176,6.39173554 L6.35294118,6.39173554 L6.35294118,8.52231405 L7.76470588,9.23250689 L7.76470588,4.26115702 L7.05882353,4.26115702" id="Fill-292" fill="#FFFFFF" sketch:type="MSShapeGroup"></path>
        <path d="M7.05882353,0.710192837 L7.05882353,0 L6.35294118,0 L6.35294118,2.84077135 L7.05882353,2.84077135 L7.05882353,3.19586777 L7.76470588,3.55096419 L9.88235294,3.55096419 L9.88235294,2.13057851 L7.05882353,0.710192837" id="Fill-293" fill="#FFFFFF" sketch:type="MSShapeGroup"></path>
        <path d="M0,0 L6.35294118,2.84077135 L6.35294118,3.55096419 L0,0.710192837 L0,0" id="Fill-294" fill="#FFFFFF" sketch:type="MSShapeGroup"></path>
    </g>
</svg>