<?xml version="1.0" encoding="UTF-8" standalone="no"?>
<!-- Created with Inkscape (http://www.inkscape.org/) -->

<svg
   xmlns:dc="http://purl.org/dc/elements/1.1/"
   xmlns:cc="http://creativecommons.org/ns#"
   xmlns:rdf="http://www.w3.org/1999/02/22-rdf-syntax-ns#"
   xmlns:svg="http://www.w3.org/2000/svg"
   xmlns="http://www.w3.org/2000/svg"
   xmlns:sodipodi="http://sodipodi.sourceforge.net/DTD/sodipodi-0.dtd"
   xmlns:inkscape="http://www.inkscape.org/namespaces/inkscape"
   width="24"
   height="24"
   id="svg27349"
   version="1.1"
   inkscape:version="0.48.2 r9819"
   sodipodi:docname="marina-black-24.svg">
  <defs
     id="defs27351" />
  <sodipodi:namedview
     id="base"
     pagecolor="#ffffff"
     bordercolor="#666666"
     borderopacity="1.0"
     inkscape:pageopacity="0.0"
     inkscape:pageshadow="2"
     inkscape:zoom="8.6123905"
     inkscape:cx="11.808263"
     inkscape:cy="10.533919"
     inkscape:document-units="px"
     inkscape:current-layer="layer1"
     showgrid="false"
     inkscape:window-width="483"
     inkscape:window-height="454"
     inkscape:window-x="3648"
     inkscape:window-y="148"
     inkscape:window-maximized="0"
     gridtolerance="10">
    <inkscape:grid
       type="xygrid"
       id="grid3004"
       empspacing="5"
       visible="true"
       enabled="true"
       snapvisiblegridlinesonly="true" />
  </sodipodi:namedview>
  <metadata
     id="metadata27354">
    <rdf:RDF>
      <cc:Work
         rdf:about="">
        <dc:format>image/svg+xml</dc:format>
        <dc:type
           rdf:resource="http://purl.org/dc/dcmitype/StillImage" />
        <dc:title></dc:title>
      </cc:Work>
    </rdf:RDF>
  </metadata>
  <g
     inkscape:label="Layer 1"
     inkscape:groupmode="layer"
     id="layer1"
     transform="translate(0,-1028.3622)">
    <g
       id="g15908"
       transform="matrix(2.4281667,0,0,2.4281667,-52.760842,12.325404)">
      <path
         style="opacity:0;fill:#272525"
         inkscape:connector-curvature="0"
         id="path15910"
         d="m 30.415,428.338 c 0.652,0 1.181,-0.527 1.181,-1.18 v -7.521 c 0,-0.652 -0.528,-1.182 -1.181,-1.182 h -7.522 c -0.651,0 -1.181,0.529 -1.181,1.182 v 7.521 c 0,0.652 0.529,1.18 1.181,1.18 h 7.522 z" />
      <g
         id="g15912"
         style="opacity:0.6;fill:none;stroke:#ffffff;stroke-width:0.5;stroke-miterlimit:4;stroke-opacity:1;stroke-dasharray:none">
        <polygon
           style="fill:none;stroke:#ffffff;stroke-width:0.5;stroke-miterlimit:4;stroke-opacity:1;stroke-dasharray:none"
           id="polygon15914"
           points="23.25,420.295 27.516,422.34 27.379,422.648 23.25,420.686 " />
        <path
           style="fill:none;stroke:#ffffff;stroke-width:0.5;stroke-miterlimit:4;stroke-opacity:1;stroke-dasharray:none"
           inkscape:connector-curvature="0"
           id="path15916"
           d="m 25.968,424.805 h 1.807 v 1.613 c 0,0.264 0.214,0.477 0.478,0.477 l 0,0 c 0.264,0 0.478,-0.213 0.478,-0.477 v -1.613 c 0.144,0 0.157,-0.094 0.157,-0.203 v -1.203 l -1.51,-0.738 h -3.21 l -0.414,-0.234 c -0.133,-0.076 -0.302,-0.029 -0.377,0.104 l 0,0 c -0.075,0.133 -0.029,0.301 0.104,0.377 l 0.654,0.375 v 3.137 c 0,0.264 0.214,0.477 0.478,0.477 l 0,0 c 0.264,0 0.478,-0.213 0.478,-0.477 l -0.001,-1.229 0.865,1.461 c 0.135,0.227 0.428,0.301 0.655,0.166 l 0,0 c 0.226,-0.135 0.3,-0.43 0.165,-0.656 l -0.807,-1.357 z" />
        <polygon
           style="fill:none;stroke:#ffffff;stroke-width:0.5;stroke-miterlimit:4;stroke-opacity:1;stroke-dasharray:none"
           id="polygon15918"
           points="27.525,422.332 28.884,422.979 28.884,422.725 29.992,422.723 30.398,421.85 27.525,420.48 " />
      </g>
      <g
         id="g15920">
        <polygon
           points="23.25,420.295 27.516,422.34 27.379,422.648 23.25,420.686 "
           id="polygon15922"
           style="fill:#272525" />
        <path
           d="m 25.968,424.805 h 1.807 v 1.613 c 0,0.264 0.214,0.477 0.478,0.477 l 0,0 c 0.264,0 0.478,-0.213 0.478,-0.477 v -1.613 c 0.144,0 0.157,-0.094 0.157,-0.203 v -1.203 l -1.51,-0.738 h -3.21 l -0.414,-0.234 c -0.133,-0.076 -0.302,-0.029 -0.377,0.104 l 0,0 c -0.075,0.133 -0.029,0.301 0.104,0.377 l 0.654,0.375 v 3.137 c 0,0.264 0.214,0.477 0.478,0.477 l 0,0 c 0.264,0 0.478,-0.213 0.478,-0.477 l -0.001,-1.229 0.865,1.461 c 0.135,0.227 0.428,0.301 0.655,0.166 l 0,0 c 0.226,-0.135 0.3,-0.43 0.165,-0.656 l -0.807,-1.357 z"
           id="path15924"
           inkscape:connector-curvature="0"
           style="fill:#272525" />
        <polygon
           points="27.525,422.332 28.884,422.979 28.884,422.725 29.992,422.723 30.398,421.85 27.525,420.48 "
           id="polygon15926"
           style="fill:#272525" />
      </g>
    </g>
  </g>
</svg>
