<?xml version="1.0" encoding="utf-8"?>
<!-- Generator: Adobe Illustrator 18.1.1, SVG Export Plug-In . SVG Version: 6.00 Build 0)  -->
<svg version="1.1" xmlns="http://www.w3.org/2000/svg" xmlns:xlink="http://www.w3.org/1999/xlink" x="0px" y="0px"
	 viewBox="0 0 24 24" enable-background="new 0 0 24 24" xml:space="preserve">
<g id="shadows">
	<g opacity="0.2">
		<polygon points="7.3,12.9 7.3,19.8 8.1,19.8 8.1,20.6 8.9,20.6 8.9,19.8 9.6,19.8 9.6,17.5 12,20.6 12.7,20.6 13.5,19.1 11.2,16 
			15.8,16 15.8,19.8 16.6,19.8 16.6,20.6 17.4,20.6 17.4,19.8 18.1,19.8 18.1,12.1 15,10.6 7.3,10.6 6.5,9.8 5.8,10.6 		"/>
		<polygon points="15,9 15,4.4 15.8,4.4 15.8,5.2 22,8.2 22,9.8 18.1,10.6 		"/>
		<polygon points="5,4.4 5,5.5 15,10.2 15,9 		"/>
	</g>
</g>
<g id="icons">
	<g>
		<polygon fill="#FFFFFF" points="6.3,11.9 6.3,18.8 7.1,18.8 7.1,19.6 7.9,19.6 7.9,18.8 8.6,18.8 8.6,16.5 11,19.6 11.7,19.6 
			12.5,18.1 10.2,15 14.8,15 14.8,18.8 15.6,18.8 15.6,19.6 16.4,19.6 16.4,18.8 17.1,18.8 17.1,11.1 14,9.6 6.3,9.6 5.5,8.8 
			4.8,9.6 		"/>
		<polygon fill="#FFFFFF" points="14,8 14,3.4 14.8,3.4 14.8,4.2 21,7.2 21,8.8 17.1,9.6 		"/>
		<polygon fill="#FFFFFF" points="4,3.4 4,4.5 14,9.2 14,8 		"/>
	</g>
</g>
</svg>
