<?xml version="1.0" encoding="utf-8"?>
<!-- Generator: Adobe Illustrator 18.1.1, SVG Export Plug-In . SVG Version: 6.00 Build 0)  -->
<svg version="1.1" xmlns="http://www.w3.org/2000/svg" xmlns:xlink="http://www.w3.org/1999/xlink" x="0px" y="0px"
	 viewBox="0 0 18 18" enable-background="new 0 0 18 18" xml:space="preserve">
<g id="shadows">
	<g opacity="0.2">
		<polygon points="13.036,8.786 13.036,8.321 12.107,7.857 5.607,7.857 5.607,6.929 4.679,6.929 5.607,8.786 5.607,14.357 
			7.464,15.286 7.464,14.357 7.464,12.5 9.321,15.286 10.25,14.357 8.393,11.571 12.107,11.571 12.107,14.357 13.964,15.286 
			13.964,14.357 13.964,8.786 		"/>
		<polygon points="13.036,4.143 13.036,3.214 12.107,3.214 12.107,6.929 13.036,6.929 13.036,7.393 13.964,7.857 16.75,7.857 
			16.75,6 		"/>
		<polygon points="3.75,3.214 12.107,6.929 12.107,7.857 3.75,4.143 		"/>
	</g>
</g>
<g id="icons">
	<g>
		<polygon fill="#FFFFFF" points="12.286,8.036 12.286,7.571 11.357,7.107 4.857,7.107 4.857,6.179 3.929,6.179 4.857,8.036 
			4.857,13.607 6.714,14.536 6.714,13.607 6.714,11.75 8.571,14.536 9.5,13.607 7.643,10.821 11.357,10.821 11.357,13.607 
			13.214,14.536 13.214,13.607 13.214,8.036 		"/>
		<polygon fill="#FFFFFF" points="12.286,3.393 12.286,2.464 11.357,2.464 11.357,6.179 12.286,6.179 12.286,6.643 13.214,7.107 
			16,7.107 16,5.25 		"/>
		<polygon fill="#FFFFFF" points="3,2.464 11.357,6.179 11.357,7.107 3,3.393 		"/>
	</g>
</g>
</svg>
