<?xml version="1.0" encoding="utf-8"?>
<!-- Generator: Adobe Illustrator 18.1.1, SVG Export Plug-In . SVG Version: 6.00 Build 0)  -->
<svg version="1.1" xmlns="http://www.w3.org/2000/svg" xmlns:xlink="http://www.w3.org/1999/xlink" x="0px" y="0px"
	 viewBox="0 0 18 18" enable-background="new 0 0 18 18" xml:space="preserve">
<g id="shadows">
	<g opacity="0.2">
		<polygon points="13,8.8 13,8.3 12.1,7.9 5.6,7.9 5.6,6.9 4.7,6.9 5.6,8.8 5.6,14.4 7.5,15.3 7.5,14.4 7.5,12.5 9.3,15.3 
			10.2,14.4 8.4,11.6 12.1,11.6 12.1,14.4 14,15.3 14,14.4 14,8.8 		"/>
		<polygon points="13,4.1 13,3.2 12.1,3.2 12.1,6.9 13,6.9 13,7.4 14,7.9 16.7,7.9 16.7,6 		"/>
		<polygon points="3.8,3.2 12.1,6.9 12.1,7.9 3.8,4.1 		"/>
	</g>
</g>
<g id="icons">
	<g>
		<polygon fill="#FFFFFF" points="12.3,8 12.3,7.6 11.4,7.1 4.9,7.1 4.9,6.2 3.9,6.2 4.9,8 4.9,13.6 6.7,14.5 6.7,13.6 6.7,11.8 
			8.6,14.5 9.5,13.6 7.6,10.8 11.4,10.8 11.4,13.6 13.2,14.5 13.2,13.6 13.2,8 		"/>
		<polygon fill="#FFFFFF" points="12.3,3.4 12.3,2.5 11.4,2.5 11.4,6.2 12.3,6.2 12.3,6.6 13.2,7.1 16,7.1 16,5.2 		"/>
		<polygon fill="#FFFFFF" points="3,2.5 11.4,6.2 11.4,7.1 3,3.4 		"/>
	</g>
</g>
</svg>
