<?xml version="1.0" encoding="utf-8"?>
<!-- Generator: Adobe Illustrator 18.1.1, SVG Export Plug-In . SVG Version: 6.00 Build 0)  -->
<svg version="1.1" xmlns="http://www.w3.org/2000/svg" xmlns:xlink="http://www.w3.org/1999/xlink" x="0px" y="0px"
	 viewBox="0 0 24 24" enable-background="new 0 0 24 24" xml:space="preserve">
<g id="shadows">
	<g opacity="0.2">
		<polygon points="7.318,12.886 7.318,19.841 8.091,19.841 8.091,20.614 8.864,20.614 8.864,19.841 9.636,19.841 9.636,17.523 
			11.955,20.614 12.727,20.614 13.5,19.068 11.182,15.977 15.818,15.977 15.818,19.841 16.591,19.841 16.591,20.614 17.364,20.614 
			17.364,19.841 18.136,19.841 18.136,12.114 15.045,10.568 7.318,10.568 6.546,9.795 5.773,10.568 		"/>
		<polygon points="15.045,9.023 15.045,4.386 15.818,4.386 15.818,5.159 22,8.25 22,9.795 18.136,10.568 		"/>
		<polygon points="5,4.386 5,5.545 15.045,10.182 15.045,9.023 		"/>
	</g>
</g>
<g id="icons">
	<g>
		<polygon fill="#FFFFFF" points="6.318,11.886 6.318,18.841 7.091,18.841 7.091,19.614 7.864,19.614 7.864,18.841 8.636,18.841 
			8.636,16.523 10.955,19.614 11.727,19.614 12.5,18.068 10.182,14.977 14.818,14.977 14.818,18.841 15.591,18.841 15.591,19.614 
			16.364,19.614 16.364,18.841 17.136,18.841 17.136,11.114 14.045,9.568 6.318,9.568 5.546,8.795 4.773,9.568 		"/>
		<polygon fill="#FFFFFF" points="14.045,8.023 14.045,3.386 14.818,3.386 14.818,4.159 21,7.25 21,8.795 17.136,9.568 		"/>
		<polygon fill="#FFFFFF" points="4,3.386 4,4.545 14.045,9.182 14.045,8.023 		"/>
	</g>
</g>
</svg>
