<?xml version="1.0" encoding="utf-8"?>
<!-- Generator: Adobe Illustrator 18.1.1, SVG Export Plug-In . SVG Version: 6.00 Build 0)  -->
<svg version="1.1" xmlns="http://www.w3.org/2000/svg" xmlns:xlink="http://www.w3.org/1999/xlink" x="0px" y="0px"
	 viewBox="0 0 12 12" enable-background="new 0 0 12 12" xml:space="preserve">
<g id="shadows">
	<g opacity="0.2">
		<polygon points="8.928,5.679 8.928,5.357 8.286,5.036 3.786,5.036 3.786,4.393 3.143,4.393 3.786,5.679 3.786,9.536 5.072,10.179 
			5.072,9.536 5.072,8.25 6.357,10.179 7,9.536 5.714,7.607 8.286,7.607 8.286,9.536 9.571,10.179 9.571,9.536 9.571,5.679 		"/>
		<polygon points="8.928,2.464 8.928,1.821 8.286,1.821 8.286,4.393 8.928,4.393 8.928,4.714 9.571,5.036 11.5,5.036 11.5,3.75 		
			"/>
		<polygon points="2.5,1.821 8.286,4.393 8.286,5.036 2.5,2.464 		"/>
	</g>
</g>
<g id="icons">
	<g>
		<polygon points="8.428,5.179 8.428,4.857 7.786,4.536 3.286,4.536 3.286,3.893 2.643,3.893 3.286,5.179 3.286,9.036 4.572,9.679 
			4.572,9.036 4.572,7.75 5.857,9.679 6.5,9.036 5.214,7.107 7.786,7.107 7.786,9.036 9.071,9.679 9.071,9.036 9.071,5.179 		"/>
		<polygon points="8.428,1.964 8.428,1.321 7.786,1.321 7.786,3.893 8.428,3.893 8.428,4.214 9.071,4.536 11,4.536 11,3.25 		"/>
		<polygon points="2,1.321 7.786,3.893 7.786,4.536 2,1.964 		"/>
	</g>
</g>
</svg>
