<?xml version="1.0" encoding="utf-8"?>
<!-- Generator: Adobe Illustrator 18.1.1, SVG Export Plug-In . SVG Version: 6.00 Build 0)  -->
<svg version="1.1" xmlns="http://www.w3.org/2000/svg" xmlns:xlink="http://www.w3.org/1999/xlink" x="0px" y="0px"
	 viewBox="0 0 12 12" enable-background="new 0 0 12 12" xml:space="preserve">
<g id="shadows">
	<g opacity="0.2">
		<polygon points="7.9,5.7 7.9,5.4 7.3,5 2.8,5 2.8,4.4 2.1,4.4 2.8,5.7 2.8,9.5 4.1,10.2 4.1,9.5 4.1,8.3 5.4,10.2 6,9.5 4.7,7.6 
			7.3,7.6 7.3,9.5 8.6,10.2 8.6,9.5 8.6,5.7 		"/>
		<polygon points="7.9,2.5 7.9,1.8 7.3,1.8 7.3,4.4 7.9,4.4 7.9,4.7 8.6,5 10.5,5 10.5,3.7 		"/>
		<polygon points="1.5,1.8 7.3,4.4 7.3,5 1.5,2.5 		"/>
	</g>
</g>
<g id="icons">
	<g>
		<polygon fill="#FFFFFF" points="7.4,5.2 7.4,4.9 6.8,4.5 2.3,4.5 2.3,3.9 1.6,3.9 2.3,5.2 2.3,9 3.6,9.7 3.6,9 3.6,7.8 4.9,9.7 
			5.5,9 4.2,7.1 6.8,7.1 6.8,9 8.1,9.7 8.1,9 8.1,5.2 		"/>
		<polygon fill="#FFFFFF" points="7.4,2 7.4,1.3 6.8,1.3 6.8,3.9 7.4,3.9 7.4,4.2 8.1,4.5 10,4.5 10,3.2 		"/>
		<polygon fill="#FFFFFF" points="1,1.3 6.8,3.9 6.8,4.5 1,2 		"/>
	</g>
</g>
</svg>
