<?xml version="1.0" encoding="UTF-8" standalone="no"?>
<!-- Created with Inkscape (http://www.inkscape.org/) -->

<svg
   xmlns:dc="http://purl.org/dc/elements/1.1/"
   xmlns:cc="http://creativecommons.org/ns#"
   xmlns:rdf="http://www.w3.org/1999/02/22-rdf-syntax-ns#"
   xmlns:svg="http://www.w3.org/2000/svg"
   xmlns="http://www.w3.org/2000/svg"
   xmlns:inkscape="http://www.inkscape.org/namespaces/inkscape"
   version="1.1"
   width="18"
   height="18"
   id="svg4619">
  <defs
     id="defs4621" />
  <metadata
     id="metadata4624">
    <rdf:RDF>
      <cc:Work
         rdf:about="">
        <dc:format>image/svg+xml</dc:format>
        <dc:type
           rdf:resource="http://purl.org/dc/dcmitype/StillImage" />
        <dc:title />
      </cc:Work>
    </rdf:RDF>
  </metadata>
  <g
     transform="translate(0,-1034.3622)"
     id="layer1">
    <g
       transform="translate(-263.99999,-112.00001)"
       id="pharmacy-18"
       style="display:inline">
      <g
         transform="translate(-1,0)"
         id="g23226">
        <path
           d="m 627.5,27 c -1.933,0 -3.5,0.671573 -3.5,1.5 l 0,2.5 c 0,0.828427 1.567,1.5 3.5,1.5 1.933,0 3.5,-0.671573 3.5,-1.5 l 0,-2.5 c 0,-0.828427 -1.567,-1.5 -3.5,-1.5 z m -3.5,5.5 0,6.5 c 0,0 1.00002,1 3.5,1 2.50002,0 3.5,-1 3.5,-1 l 0,-6.5 c 0,0.8284 -1.567,1.5 -3.5,1.5 -1.933,0 -3.5,-0.6716 -3.5,-1.5 z"
           inkscape:connector-curvature="0"
           transform="translate(-353,1122.3622)"
           id="path14654"
           style="opacity:0.3;color:#000000;fill:#ffffff;fill-opacity:1;fill-rule:nonzero;stroke:#ffffff;stroke-width:2;stroke-linecap:round;stroke-linejoin:round;stroke-miterlimit:4;stroke-opacity:1;stroke-dasharray:none;stroke-dashoffset:0;marker:none;visibility:visible;display:inline;overflow:visible;enable-background:accumulate" />
        <path
           d="m 627.5,27 c -1.933,0 -3.5,0.671573 -3.5,1.5 l 0,2.5 c 0,0.828427 1.567,1.5 3.5,1.5 1.933,0 3.5,-0.671573 3.5,-1.5 l 0,-2.5 c 0,-0.828427 -1.567,-1.5 -3.5,-1.5 z m -3.5,5.5 0,6.5 c 0,0 1.00002,1 3.5,1 2.50002,0 3.5,-1 3.5,-1 l 0,-6.5 c 0,0.8284 -1.567,1.5 -3.5,1.5 -1.933,0 -3.5,-0.6716 -3.5,-1.5 z m 2,2.5 c 0.45315,0.092 0.96548,0.15625 1.5,0.15625 0.53452,0 1.04685,-0.06405 1.5,-0.15625 l 0,3 c -0.45315,0.0922 -0.96548,0.15625 -1.5,0.15625 -0.53452,0 -1.04685,-0.06425 -1.5,-0.15625 z"
           inkscape:connector-curvature="0"
           transform="translate(-353,1122.3622)"
           id="path14594"
           style="color:#000000;fill:#444444;fill-opacity:1;stroke:none;stroke-width:2;marker:none;visibility:visible;display:inline;overflow:visible;enable-background:accumulate" />
      </g>
    </g>
  </g>
  <rect
     width="18"
     height="18"
     x="0"
     y="0"
     id="canvas"
     style="fill:none;stroke:none;visibility:hidden" />
</svg>
