<?xml version="1.0" encoding="UTF-8" standalone="no"?>
<!-- Created with Inkscape (http://www.inkscape.org/) -->

<svg
   xmlns:dc="http://purl.org/dc/elements/1.1/"
   xmlns:cc="http://creativecommons.org/ns#"
   xmlns:rdf="http://www.w3.org/1999/02/22-rdf-syntax-ns#"
   xmlns:svg="http://www.w3.org/2000/svg"
   xmlns="http://www.w3.org/2000/svg"
   xmlns:inkscape="http://www.inkscape.org/namespaces/inkscape"
   version="1.1"
   width="24"
   height="24"
   id="svg4460">
  <defs
     id="defs4462" />
  <metadata
     id="metadata4465">
    <rdf:RDF>
      <cc:Work
         rdf:about="">
        <dc:format>image/svg+xml</dc:format>
        <dc:type
           rdf:resource="http://purl.org/dc/dcmitype/StillImage" />
        <dc:title />
      </cc:Work>
    </rdf:RDF>
  </metadata>
  <g
     transform="translate(0,-1028.3622)"
     id="layer1">
    <g
       transform="translate(-240,-117.99998)"
       id="pharmacy-24"
       style="display:inline">
      <g
         id="g23180">
        <path
           d="m 252.5,1148.3622 c -3.03757,0 -5.5,1.1193 -5.5,2.5 l 0,3 c 0,1.3807 2.46243,2.5 5.5,2.5 3.03757,0 5.5,-1.1193 5.5,-2.5 l 0,-3 c 0,-1.3807 -2.46243,-2.5 -5.5,-2.5 z m -5.5,9 0,7.5 c 0,1.3807 2.46243,2.5 5.5,2.5 3.03757,0 5.5,-1.1193 5.5,-2.5 l 0,-7.5 c 0,-1 -0.5,-1 -1,-0.5 -0.83861,0.8935 -2.2278,1.5 -4.5,1.5 -2.22714,0 -3.63511,-0.6347 -4.5,-1.5 -0.5,-0.5 -1,-0.5 -1,0.5 z"
           inkscape:connector-curvature="0"
           id="path24623"
           style="opacity:0.3;color:#000000;fill:#ffffff;fill-opacity:1;fill-rule:nonzero;stroke:#ffffff;stroke-width:2;stroke-linecap:round;stroke-linejoin:round;stroke-miterlimit:4;stroke-opacity:1;stroke-dasharray:none;stroke-dashoffset:0;marker:none;visibility:visible;display:inline;overflow:visible;enable-background:accumulate" />
        <path
           d="m 252.5,1148.3622 c -3.03757,0 -5.5,1.1193 -5.5,2.5 l 0,3 c 0,1.3807 2.46243,2.5 5.5,2.5 3.03757,0 5.5,-1.1193 5.5,-2.5 l 0,-3 c 0,-1.3807 -2.46243,-2.5 -5.5,-2.5 z m -5.5,9 0,7.5 c 0,1.3807 2.46243,2.5 5.5,2.5 3.03757,0 5.5,-1.1193 5.5,-2.5 l 0,-7.5 c 0,-1 -0.5,-1 -1,-0.5 -0.83861,0.8935 -2.2278,1.5 -4.5,1.5 -2.22714,0 -3.63511,-0.6347 -4.5,-1.5 -0.5,-0.5 -1,-0.5 -1,0.5 z m 3,3 c 0.75195,0.1754 1.5967,0.2813 2.5,0.2813 0.9033,0 1.74805,-0.1059 2.5,-0.2813 l 0,4 c -0.75195,0.1754 -1.5967,0.2813 -2.5,0.2813 -0.9033,0 -1.74805,-0.1059 -2.5,-0.2813 z"
           inkscape:connector-curvature="0"
           id="rect14245"
           style="color:#000000;fill:#444444;fill-opacity:1;stroke:none;stroke-width:2;marker:none;visibility:visible;display:inline;overflow:visible;enable-background:accumulate" />
      </g>
    </g>
  </g>
  <rect
     width="24"
     height="24"
     x="0"
     y="0"
     id="canvas"
     style="fill:none;stroke:none;visibility:hidden" />
</svg>
