<?xml version="1.0" encoding="UTF-8" standalone="no"?>
<svg width="18px" height="18px" viewBox="0 0 18 18" version="1.1" xmlns="http://www.w3.org/2000/svg" xmlns:xlink="http://www.w3.org/1999/xlink" xmlns:sketch="http://www.bohemiancoding.com/sketch/ns">
    <!-- Generator: Sketch 3.2.2 (9983) - http://www.bohemiancoding.com/sketch -->
    <title>picnic-area-white-18</title>
    <desc>Created with Sketch.</desc>
    <defs></defs>
    <g id="Page-1" stroke="none" stroke-width="1" fill="none" fill-rule="evenodd" sketch:type="MSPage">
        <path d="M8.14814815,9.8997555 L9.62962963,6.24993208 L11.1111111,6.24993208 L12.5925926,9.8997555 L8.14814815,9.8997555 L8.14814815,9.8997555 Z M18.5185185,9.8997555 L14.0740741,9.8997555 L12.5925926,6.24993208 L15.5555556,6.24993208 L15.5555556,4.79000272 L5.18518519,4.79000272 L5.18518519,6.24993208 L8.14814815,6.24993208 L6.66666667,9.8997555 L2.22222222,9.8997555 L2.22222222,11.3596849 L5.92592593,11.3596849 L4.44444444,15.0095083 L5.92592593,15.0095083 L7.40740741,11.3596849 L13.3333333,11.3596849 L14.8148148,15.0095083 L16.2962963,15.0095083 L14.8148148,11.3596849 L18.5185185,11.3596849 L18.5185185,9.8997555 L18.5185185,9.8997555 Z" id="Fill-30" opacity="0.5" fill="#0A0B09" sketch:type="MSShapeGroup"></path>
        <path d="M7.14814815,8.8997555 L8.62962963,5.24993208 L10.1111111,5.24993208 L11.5925926,8.8997555 L7.14814815,8.8997555 L7.14814815,8.8997555 Z M17.5185185,8.8997555 L13.0740741,8.8997555 L11.5925926,5.24993208 L14.5555556,5.24993208 L14.5555556,3.79000272 L4.18518519,3.79000272 L4.18518519,5.24993208 L7.14814815,5.24993208 L5.66666667,8.8997555 L1.22222222,8.8997555 L1.22222222,10.3596849 L4.92592593,10.3596849 L3.44444444,14.0095083 L4.92592593,14.0095083 L6.40740741,10.3596849 L12.3333333,10.3596849 L13.8148148,14.0095083 L15.2962963,14.0095083 L13.8148148,10.3596849 L17.5185185,10.3596849 L17.5185185,8.8997555 L17.5185185,8.8997555 Z" id="Fill-30" opacity="0.75" fill="#0A0B09" sketch:type="MSShapeGroup"></path>
        <path d="M6.14814815,7.8997555 L7.62962963,4.24993208 L9.11111111,4.24993208 L10.5925926,7.8997555 L6.14814815,7.8997555 L6.14814815,7.8997555 Z M16.5185185,7.8997555 L12.0740741,7.8997555 L10.5925926,4.24993208 L13.5555556,4.24993208 L13.5555556,2.79000272 L3.18518519,2.79000272 L3.18518519,4.24993208 L6.14814815,4.24993208 L4.66666667,7.8997555 L0.222222222,7.8997555 L0.222222222,9.35968487 L3.92592593,9.35968487 L2.44444444,13.0095083 L3.92592593,13.0095083 L5.40740741,9.35968487 L11.3333333,9.35968487 L12.8148148,13.0095083 L14.2962963,13.0095083 L12.8148148,9.35968487 L16.5185185,9.35968487 L16.5185185,7.8997555 L16.5185185,7.8997555 Z" id="Fill-30" fill="#FFFFFF" sketch:type="MSShapeGroup"></path>
    </g>
</svg>