<?xml version="1.0" encoding="utf-8"?>
<!-- Generator: Adobe Illustrator 18.1.1, SVG Export Plug-In . SVG Version: 6.00 Build 0)  -->
<svg version="1.1" xmlns="http://www.w3.org/2000/svg" xmlns:xlink="http://www.w3.org/1999/xlink" x="0px" y="0px"
	 viewBox="0 0 24 24" enable-background="new 0 0 24 24" xml:space="preserve">
<g id="shadows">
	<g opacity="0.2">
		<path d="M22,12.5h-4.636l-1.545-3.864h3.091V7.091H8.091v1.545h3.091L9.636,12.5H5v1.545h3.864l-1.545,3.864h1.545l1.545-3.864
			h6.182l1.545,3.864h1.545l-1.545-3.864H22V12.5z M11.182,12.5l1.545-3.864h1.545l1.545,3.864H11.182z"/>
	</g>
</g>
<g id="icons">
	<g>
		<path d="M21,11.5h-4.636l-1.545-3.864h3.091V6.091H7.091v1.545h3.091L8.636,11.5H4v1.545h3.864l-1.545,3.864h1.545l1.545-3.864
			h6.182l1.545,3.864h1.545l-1.545-3.864H21V11.5z M10.182,11.5l1.545-3.864h1.545l1.545,3.864H10.182z"/>
	</g>
</g>
</svg>
