<?xml version="1.0" encoding="UTF-8" standalone="no"?>
<svg width="12px" height="12px" viewBox="0 0 12 12" version="1.1" xmlns="http://www.w3.org/2000/svg" xmlns:xlink="http://www.w3.org/1999/xlink" xmlns:sketch="http://www.bohemiancoding.com/sketch/ns">
    <!-- Generator: Sketch 3.2.2 (9983) - http://www.bohemiancoding.com/sketch -->
    <title>picnic-area-black-12</title>
    <desc>Created with Sketch.</desc>
    <defs></defs>
    <g id="Page-1" stroke="none" stroke-width="1" fill="none" fill-rule="evenodd" sketch:type="MSPage">
        <path d="M4.82352941,7.0490114 L6.23529412,4.20824005 L7.64705882,4.20824005 L9.05882353,7.0490114 L4.82352941,7.0490114 L4.82352941,7.0490114 Z M11.8823529,7.0490114 L9.76470588,7.0490114 L8.35294118,4.20824005 L10.4705882,4.20824005 L10.4705882,3.49804721 L3.41176471,3.49804721 L3.41176471,4.20824005 L5.52941176,4.20824005 L4.11764706,7.0490114 L2,7.0490114 L2,7.75920424 L4.11764706,7.75920424 L2.70588235,10.5999756 L3.41176471,10.5999756 L4.82352941,7.75920424 L9.05882353,7.75920424 L10.4705882,10.5999756 L11.1764706,10.5999756 L9.76470588,7.75920424 L11.8823529,7.75920424 L11.8823529,7.0490114 L11.8823529,7.0490114 Z" id="Fill-31" fill-opacity="0.1" fill="#0A0B09" sketch:type="MSShapeGroup"></path>
        <path d="M3.82352941,6.0490114 L5.23529412,3.20824005 L6.64705882,3.20824005 L8.05882353,6.0490114 L3.82352941,6.0490114 L3.82352941,6.0490114 Z M10.8823529,6.0490114 L8.76470588,6.0490114 L7.35294118,3.20824005 L9.47058824,3.20824005 L9.47058824,2.49804721 L2.41176471,2.49804721 L2.41176471,3.20824005 L4.52941176,3.20824005 L3.11764706,6.0490114 L1,6.0490114 L1,6.75920424 L3.11764706,6.75920424 L1.70588235,9.59997559 L2.41176471,9.59997559 L3.82352941,6.75920424 L8.05882353,6.75920424 L9.47058824,9.59997559 L10.1764706,9.59997559 L8.76470588,6.75920424 L10.8823529,6.75920424 L10.8823529,6.0490114 L10.8823529,6.0490114 Z" id="Fill-31" opacity="0.2" fill="#0A0B09" sketch:type="MSShapeGroup"></path>
        <path d="M2.82352941,5.0490114 L4.23529412,2.20824005 L5.64705882,2.20824005 L7.05882353,5.0490114 L2.82352941,5.0490114 L2.82352941,5.0490114 Z M9.88235294,5.0490114 L7.76470588,5.0490114 L6.35294118,2.20824005 L8.47058824,2.20824005 L8.47058824,1.49804721 L1.41176471,1.49804721 L1.41176471,2.20824005 L3.52941176,2.20824005 L2.11764706,5.0490114 L0,5.0490114 L0,5.75920424 L2.11764706,5.75920424 L0.705882353,8.59997559 L1.41176471,8.59997559 L2.82352941,5.75920424 L7.05882353,5.75920424 L8.47058824,8.59997559 L9.17647059,8.59997559 L7.76470588,5.75920424 L9.88235294,5.75920424 L9.88235294,5.0490114 L9.88235294,5.0490114 Z" id="Fill-31" fill="#0A0B09" sketch:type="MSShapeGroup"></path>
    </g>
</svg>