<?xml version="1.0" encoding="utf-8"?>
<!-- Generator: Adobe Illustrator 18.1.1, SVG Export Plug-In . SVG Version: 6.00 Build 0)  -->
<svg version="1.1" xmlns="http://www.w3.org/2000/svg" xmlns:xlink="http://www.w3.org/1999/xlink" x="0px" y="0px"
	 viewBox="0 0 12 12" enable-background="new 0 0 12 12" xml:space="preserve">
<g id="shadows">
	<g opacity="0.2">
		<path d="M11.5,6H9.571L8.286,3.429h1.928V2.786H3.786v0.643h1.928L4.429,6H2.5v0.643h1.928L3.143,9.214h0.643l1.286-2.571h3.857
			l1.286,2.571h0.643L9.571,6.643H11.5V6z M5.072,6l1.286-2.571h1.286L8.928,6H5.072z"/>
	</g>
</g>
<g id="icons">
	<g>
		<path d="M11,5.5H9.071L7.786,2.929h1.928V2.286H3.286v0.643h1.928L3.929,5.5H2v0.643h1.928L2.643,8.714h0.643l1.286-2.571h3.857
			l1.286,2.571h0.643L9.071,6.143H11V5.5z M4.572,5.5l1.286-2.571h1.286L8.428,5.5H4.572z"/>
	</g>
</g>
</svg>
