<?xml version="1.0" encoding="utf-8"?>
<!-- Generator: Adobe Illustrator 18.1.1, SVG Export Plug-In . SVG Version: 6.00 Build 0)  -->
<svg version="1.1" xmlns="http://www.w3.org/2000/svg" xmlns:xlink="http://www.w3.org/1999/xlink" x="0px" y="0px"
	 viewBox="0 0 18 18" enable-background="new 0 0 18 18" xml:space="preserve">
<g id="shadows">
	<g opacity="0.2">
		<path d="M16.8,9.2H14l-1.9-3.7h2.8V4.6H5.6v0.9h2.8L6.5,9.2H3.7v0.9h2.8l-1.9,3.7h0.9l1.9-3.7H13l1.9,3.7h0.9L14,10.2h2.8V9.2z
			 M7.5,9.2l1.9-3.7h1.9L13,9.2H7.5z"/>
	</g>
</g>
<g id="icons">
	<g>
		<path d="M16,8.5h-2.8l-1.9-3.7h2.8V3.9H4.9v0.9h2.8L5.8,8.5H3v0.9h2.8l-1.9,3.7h0.9l1.9-3.7h5.6l1.9,3.7h0.9l-1.9-3.7H16V8.5z
			 M6.7,8.5l1.9-3.7h1.9l1.9,3.7H6.7z"/>
	</g>
</g>
</svg>
