<?xml version="1.0" encoding="utf-8"?>
<!-- Generator: Adobe Illustrator 18.1.1, SVG Export Plug-In . SVG Version: 6.00 Build 0)  -->
<svg version="1.1" xmlns="http://www.w3.org/2000/svg" xmlns:xlink="http://www.w3.org/1999/xlink" x="0px" y="0px"
	 viewBox="0 0 24 24" enable-background="new 0 0 24 24" xml:space="preserve">
<g id="shadows">
	<g opacity="0.2">
		<path d="M22,12.5h-4.6l-1.5-3.9h3.1V7.1H8.1v1.5h3.1l-1.5,3.9H5V14h3.9l-1.5,3.9h1.5l1.5-3.9h6.2l1.5,3.9h1.5L18.1,14H22V12.5z
			 M11.2,12.5l1.5-3.9h1.5l1.5,3.9H11.2z"/>
	</g>
</g>
<g id="icons">
	<g>
		<path fill="#FFFFFF" d="M21,11.5h-4.6l-1.5-3.9h3.1V6.1H7.1v1.5h3.1l-1.5,3.9H4V13h3.9l-1.5,3.9h1.5L9.4,13h6.2l1.5,3.9h1.5
			L17.1,13H21V11.5z M10.2,11.5l1.5-3.9h1.5l1.5,3.9H10.2z"/>
	</g>
</g>
</svg>
