<?xml version="1.0" encoding="utf-8"?>
<!-- Generator: Adobe Illustrator 18.1.1, SVG Export Plug-In . SVG Version: 6.00 Build 0)  -->
<svg version="1.1" xmlns="http://www.w3.org/2000/svg" xmlns:xlink="http://www.w3.org/1999/xlink" x="0px" y="0px"
	 viewBox="0 0 12 12" enable-background="new 0 0 12 12" xml:space="preserve">
<g id="shadows">
	<g opacity="0.2">
		<path d="M10.5,6H8.6L7.3,3.4h1.9V2.8H2.8v0.6h1.9L3.4,6H1.5v0.6h1.9L2.1,9.2h0.6l1.3-2.6h3.9l1.3,2.6h0.6L8.6,6.6h1.9V6z M4.1,6
			l1.3-2.6h1.3L7.9,6H4.1z"/>
	</g>
</g>
<g id="icons">
	<g>
		<path fill="#FFFFFF" d="M10,5.5H8.1L6.8,2.9h1.9V2.3H2.3v0.6h1.9L2.9,5.5H1v0.6h1.9L1.6,8.7h0.6l1.3-2.6h3.9l1.3,2.6h0.6L8.1,6.1
			H10V5.5z M3.6,5.5l1.3-2.6h1.3l1.3,2.6H3.6z"/>
	</g>
</g>
</svg>
