<?xml version="1.0" encoding="UTF-8" standalone="no"?>
<!-- Created with Inkscape (http://www.inkscape.org/) -->

<svg
   xmlns:dc="http://purl.org/dc/elements/1.1/"
   xmlns:cc="http://creativecommons.org/ns#"
   xmlns:rdf="http://www.w3.org/1999/02/22-rdf-syntax-ns#"
   xmlns:svg="http://www.w3.org/2000/svg"
   xmlns="http://www.w3.org/2000/svg"
   xmlns:sodipodi="http://sodipodi.sourceforge.net/DTD/sodipodi-0.dtd"
   xmlns:inkscape="http://www.inkscape.org/namespaces/inkscape"
   width="24"
   height="24"
   id="svg27349"
   version="1.1"
   inkscape:version="0.48.2 r9819"
   sodipodi:docname="parking-black-24.svg">
  <defs
     id="defs27351" />
  <sodipodi:namedview
     id="base"
     pagecolor="#ffffff"
     bordercolor="#666666"
     borderopacity="1.0"
     inkscape:pageopacity="0.0"
     inkscape:pageshadow="2"
     inkscape:zoom="8.8081266"
     inkscape:cx="11.449912"
     inkscape:cy="8.5492675"
     inkscape:document-units="px"
     inkscape:current-layer="layer1"
     showgrid="false"
     inkscape:window-width="629"
     inkscape:window-height="573"
     inkscape:window-x="2584"
     inkscape:window-y="601"
     inkscape:window-maximized="0" />
  <metadata
     id="metadata27354">
    <rdf:RDF>
      <cc:Work
         rdf:about="">
        <dc:format>image/svg+xml</dc:format>
        <dc:type
           rdf:resource="http://purl.org/dc/dcmitype/StillImage" />
        <dc:title></dc:title>
      </cc:Work>
    </rdf:RDF>
  </metadata>
  <g
     inkscape:label="Layer 1"
     inkscape:groupmode="layer"
     id="layer1"
     transform="translate(0,-1028.3622)">
    <g
       id="g13157"
       transform="matrix(2.4281667,0,0,2.4281667,-52.686015,-18.471181)">
      <path
         style="opacity:0;fill:#272525"
         inkscape:connector-curvature="0"
         id="path13159"
         d="m 30.415,441.037 c 0.652,0 1.181,-0.527 1.181,-1.18 v -7.521 c 0,-0.652 -0.528,-1.182 -1.181,-1.182 h -7.522 c -0.651,0 -1.181,0.529 -1.181,1.182 v 7.521 c 0,0.652 0.529,1.18 1.181,1.18 h 7.522 z" />
      <path
         d="m 25.343,435.967 h 2.416 l -0.796,-1.971 H 26.14 l -0.797,1.971 z m -1.349,-1.971 v -0.729 h 5.291 v 0.729 h -1.336 l 0.796,1.971 h 1.971 v 0.729 h -1.674 l 0.932,2.295 H 29.07 l -0.932,-2.295 h -3.01 l -0.925,2.295 h -0.904 l 0.925,-2.295 h -1.66 v -0.729 h 1.957 l 0.797,-1.971 h -1.324 z"
         id="path13161"
         inkscape:connector-curvature="0"
         style="opacity:0.6;fill:none;stroke:#ffffff;stroke-width:0.5;stroke-miterlimit:4;stroke-opacity:1;stroke-dasharray:none" />
      <path
         style="fill:#272525"
         inkscape:connector-curvature="0"
         id="path13163"
         d="m 25.343,435.967 h 2.416 l -0.796,-1.971 H 26.14 l -0.797,1.971 z m -1.349,-1.971 v -0.729 h 5.291 v 0.729 h -1.336 l 0.796,1.971 h 1.971 v 0.729 h -1.674 l 0.932,2.295 H 29.07 l -0.932,-2.295 h -3.01 l -0.925,2.295 h -0.904 l 0.925,-2.295 h -1.66 v -0.729 h 1.957 l 0.797,-1.971 h -1.324 z" />
    </g>
  </g>
</svg>
