<?xml version="1.0" encoding="utf-8"?>
<!-- Generator: Adobe Illustrator 18.1.1, SVG Export Plug-In . SVG Version: 6.00 Build 0)  -->
<svg version="1.1" xmlns="http://www.w3.org/2000/svg" xmlns:xlink="http://www.w3.org/1999/xlink" x="0px" y="0px"
	 viewBox="0 0 18 18" enable-background="new 0 0 18 18" xml:space="preserve">
<g id="shadows">
	<g opacity="0.2">
		<path d="M16.75,9.25h-2.786l-1.857-3.714h2.786V4.607H5.607v0.929h2.786L6.536,9.25H3.75v0.929h2.786l-1.857,3.714h0.929
			l1.857-3.714h5.572l1.857,3.714h0.929l-1.857-3.714h2.786V9.25z M7.464,9.25l1.857-3.714h1.857l1.857,3.714H7.464z"/>
	</g>
</g>
<g id="icons">
	<g>
		<path d="M16,8.5h-2.786l-1.857-3.714h2.786V3.857H4.857v0.929h2.786L5.786,8.5H3v0.929h2.786l-1.857,3.714h0.929l1.857-3.714
			h5.572l1.857,3.714h0.929l-1.857-3.714H16V8.5z M6.714,8.5l1.857-3.714h1.857L12.286,8.5H6.714z"/>
	</g>
</g>
</svg>
