<?xml version="1.0" encoding="UTF-8" standalone="no"?>
<!-- Created with Inkscape (http://www.inkscape.org/) -->

<svg
   xmlns:dc="http://purl.org/dc/elements/1.1/"
   xmlns:cc="http://creativecommons.org/ns#"
   xmlns:rdf="http://www.w3.org/1999/02/22-rdf-syntax-ns#"
   xmlns:svg="http://www.w3.org/2000/svg"
   xmlns="http://www.w3.org/2000/svg"
   xmlns:sodipodi="http://sodipodi.sourceforge.net/DTD/sodipodi-0.dtd"
   xmlns:inkscape="http://www.inkscape.org/namespaces/inkscape"
   width="18"
   height="18"
   id="svg27435"
   version="1.1"
   inkscape:version="0.48.2 r9819"
   sodipodi:docname="picnic-black-18.svg">
  <defs
     id="defs27437" />
  <sodipodi:namedview
     id="base"
     pagecolor="#ffffff"
     bordercolor="#666666"
     borderopacity="1.0"
     inkscape:pageopacity="0.0"
     inkscape:pageshadow="2"
     inkscape:zoom="7.9891803"
     inkscape:cx="12.590799"
     inkscape:cy="8.9588378"
     inkscape:document-units="px"
     inkscape:current-layer="layer1"
     showgrid="false"
     inkscape:window-width="483"
     inkscape:window-height="454"
     inkscape:window-x="3219"
     inkscape:window-y="652"
     inkscape:window-maximized="0" />
  <metadata
     id="metadata27440">
    <rdf:RDF>
      <cc:Work
         rdf:about="">
        <dc:format>image/svg+xml</dc:format>
        <dc:type
           rdf:resource="http://purl.org/dc/dcmitype/StillImage" />
        <dc:title></dc:title>
      </cc:Work>
    </rdf:RDF>
  </metadata>
  <g
     inkscape:label="Layer 1"
     inkscape:groupmode="layer"
     id="layer1"
     transform="translate(0,-1034.3622)">
    <g
       transform="matrix(1.8211251,0,0,1.8211251,-208.63775,176.31327)"
       id="g13197">
      <path
         style="opacity:0;fill:#272525"
         inkscape:connector-curvature="0"
         id="path13199"
         d="m 123.275,481.041 c 0.652,0 1.181,-0.527 1.181,-1.18 v -7.521 c 0,-0.652 -0.528,-1.182 -1.181,-1.182 h -7.522 c -0.651,0 -1.181,0.529 -1.181,1.182 v 7.521 c 0,0.652 0.529,1.18 1.181,1.18 h 7.522 z" />
      <path
         d="m 118.203,475.971 h 2.416 L 119.823,474 H 119 l -0.797,1.971 z M 116.854,474 v -0.729 h 5.291 V 474 h -1.336 l 0.796,1.971 h 1.971 v 0.729 h -1.674 l 0.932,2.295 h -0.904 l -0.932,-2.295 h -3.01 l -0.925,2.295 h -0.904 l 0.925,-2.295 h -1.66 v -0.729 h 1.957 L 118.178,474 h -1.324 z"
         id="path13201"
         inkscape:connector-curvature="0"
         style="opacity:0.6;fill:none;stroke:#1d1d1c;stroke-width:0.5;stroke-miterlimit:4;stroke-opacity:1;stroke-dasharray:none" />
      <path
         style="fill:#ffffff;fill-opacity:1"
         inkscape:connector-curvature="0"
         id="path13203"
         d="m 118.203,475.971 h 2.416 L 119.823,474 H 119 l -0.797,1.971 z M 116.854,474 v -0.729 h 5.291 V 474 h -1.336 l 0.796,1.971 h 1.971 v 0.729 h -1.674 l 0.932,2.295 h -0.904 l -0.932,-2.295 h -3.01 l -0.925,2.295 h -0.904 l 0.925,-2.295 h -1.66 v -0.729 h 1.957 L 118.178,474 h -1.324 z" />
    </g>
  </g>
</svg>
