<?xml version="1.0" encoding="UTF-8" standalone="no"?>
<!-- Created with Inkscape (http://www.inkscape.org/) -->

<svg
   xmlns:dc="http://purl.org/dc/elements/1.1/"
   xmlns:cc="http://creativecommons.org/ns#"
   xmlns:rdf="http://www.w3.org/1999/02/22-rdf-syntax-ns#"
   xmlns:svg="http://www.w3.org/2000/svg"
   xmlns="http://www.w3.org/2000/svg"
   xmlns:inkscape="http://www.inkscape.org/namespaces/inkscape"
   version="1.1"
   width="24"
   height="24"
   id="svg4460">
  <defs
     id="defs4462" />
  <metadata
     id="metadata4465">
    <rdf:RDF>
      <cc:Work
         rdf:about="">
        <dc:format>image/svg+xml</dc:format>
        <dc:type
           rdf:resource="http://purl.org/dc/dcmitype/StillImage" />
        <dc:title />
      </cc:Work>
    </rdf:RDF>
  </metadata>
  <g
     transform="translate(0,-1028.3622)"
     id="layer1">
    <g
       transform="translate(-474,-22)"
       id="pitch-24"
       style="display:inline">
      <g
         id="g16714">
        <path
           d="m 486,1052.3622 c -1.10457,0 -2,0.8954 -2,2 0,1.1046 0.89543,2 2,2 1.10457,0 2,-0.8954 2,-2 0,-1.1046 -0.89543,-2 -2,-2 z m -5.75,4 0.5,2 c 0.25,1 0.84716,1 1.59375,1 l 1.65625,0 c 0.59375,1 0.31467,2.4718 0.5,4 l -0.90625,0 c -1,0 -2.59375,1 -1.59375,3 l 1.5,3 c 1,2 2.5,0.5 2,-0.5 l -1.5,-3 c -0.25,-0.5 0.2643,-0.5 0.5,-0.5 1,0 2,0 2,0 l 0.46793,0 c 0,0 1.18374,2.6276 2.5781,4.4285 0.51472,0.6648 1.08486,1.5715 1.7985,1.5715 0.5,0 1.35684,-0.7727 0.44491,-1.861 -1.70774,-2.038 -2.78944,-4.139 -2.78944,-5.139 0,-1.1632 -0.20434,-3.6127 -0.5,-5 l 1.5,0 c 0.488,0.9781 1.25,2.5 1.25,2.5 0.55274,0.9574 1.75,0.8851 1.75,0 0,-0.1215 0,-0.3889 -0.13952,-0.6768 l -1.61048,-3.3232 c -0.10278,-0.2121 -0.25342,-0.5 -1,-0.5 l -2.25,0 -3.5625,0 -1.9375,0 -0.75,-2.5 c -0.3,-1 -1.75,-1 -1.75,0 0,0.5 0.17716,1.1071 0.25,1.5 z"
           inkscape:connector-curvature="0"
           id="path7488"
           style="opacity:0.3;color:#000000;fill:none;stroke:#ffffff;stroke-width:2;stroke-linecap:butt;stroke-linejoin:round;stroke-miterlimit:4;stroke-opacity:1;stroke-dasharray:none;stroke-dashoffset:0;marker:none;visibility:visible;display:inline;overflow:visible;enable-background:accumulate" />
        <path
           d="m 486,1052.3622 c -1.10457,0 -2,0.8954 -2,2 0,1.1046 0.89543,2 2,2 1.10457,0 2,-0.8954 2,-2 0,-1.1046 -0.89543,-2 -2,-2 z m -5.75,4 0.5,2 c 0.25,1 0.84716,1 1.59375,1 l 1.65625,0 c 0.59375,1 0.31467,2.4718 0.5,4 l -0.90625,0 c -1,0 -2.59375,1 -1.59375,3 l 1.5,3 c 1,2 2.5,0.5 2,-0.5 l -1.5,-3 c -0.25,-0.5 0.2643,-0.5 0.5,-0.5 l 2.46793,0 c 0,0 1.18374,2.6276 2.5781,4.4285 0.51472,0.6648 1.08486,1.5715 1.7985,1.5715 0.5,0 1.35684,-0.7727 0.44491,-1.861 -1.70774,-2.038 -2.78944,-4.139 -2.78944,-5.139 0,-1.1632 -0.20434,-3.6127 -0.5,-5 l 1.5,0 c 0.488,0.9781 1.25,2.5 1.25,2.5 0.55274,0.9574 1.75,0.8851 1.75,0 0,-0.1215 0,-0.3889 -0.13952,-0.6768 l -1.61048,-3.3232 c -0.10278,-0.2121 -0.25342,-0.5 -1,-0.5 l -7.75,0 -0.75,-2.5 c -0.3,-1 -1.75,-1 -1.75,0 0,0.5 0.17716,1.1071 0.25,1.5 z"
           inkscape:connector-curvature="0"
           id="path10527-1"
           style="color:#000000;fill:#444444;fill-opacity:1;fill-rule:nonzero;stroke:none;stroke-width:2;marker:none;visibility:visible;display:inline;overflow:visible;enable-background:accumulate" />
      </g>
    </g>
  </g>
  <rect
     width="24"
     height="24"
     x="0"
     y="0"
     id="canvas"
     style="fill:none;stroke:none;visibility:hidden" />
</svg>
