<?xml version="1.0" encoding="UTF-8" standalone="no"?>
<!-- Created with Inkscape (http://www.inkscape.org/) -->

<svg
   xmlns:dc="http://purl.org/dc/elements/1.1/"
   xmlns:cc="http://creativecommons.org/ns#"
   xmlns:rdf="http://www.w3.org/1999/02/22-rdf-syntax-ns#"
   xmlns:svg="http://www.w3.org/2000/svg"
   xmlns="http://www.w3.org/2000/svg"
   xmlns:inkscape="http://www.inkscape.org/namespaces/inkscape"
   version="1.1"
   width="18"
   height="18"
   id="svg4619">
  <defs
     id="defs4621" />
  <metadata
     id="metadata4624">
    <rdf:RDF>
      <cc:Work
         rdf:about="">
        <dc:format>image/svg+xml</dc:format>
        <dc:type
           rdf:resource="http://purl.org/dc/dcmitype/StillImage" />
        <dc:title />
      </cc:Work>
    </rdf:RDF>
  </metadata>
  <g
     transform="translate(0,-1034.3622)"
     id="layer1">
    <g
       transform="translate(-498,-16)"
       id="pitch-18"
       style="display:inline">
      <g
         transform="translate(-1,-1)"
         id="g21462">
        <path
           d="m 508.34321,1053.3622 c -0.75576,0 -1.36842,0.6126 -1.36842,1.3684 0,0.7558 0.61266,1.3684 1.36842,1.3684 0.75576,0 1.36842,-0.6126 1.36842,-1.3684 0,-0.7558 -0.61266,-1.3684 -1.36842,-1.3684 z m -3.93421,2.7368 0.34211,1.3685 c 0.17105,0.6842 0.57963,0.6842 1.09046,0.6842 l 1.13322,0 c 0.40625,0.6842 0.2153,1.7965 0.34211,2.8421 l -0.62007,0 c -0.68421,0 -1.77465,0.6842 -1.09046,2.0526 l 1.02632,2.0527 c 0.68419,1.3684 1.71051,0.3421 1.36842,-0.3421 l -1.02632,-2.0527 c -0.17105,-0.3421 0.18084,-0.3421 0.34211,-0.3421 l 1.68858,0 c 0,0 0.80993,1.6926 1.76396,2.9248 0.35218,0.4548 0.74228,1.0752 1.23056,1.0752 0.3421,0 0.92836,-0.5287 0.30441,-1.2733 -1.16845,-1.3944 -1.90857,-2.832 -1.90857,-3.5162 0,-0.7958 -0.13981,-2.4718 -0.3421,-3.421 l 1.02632,0 c 0.33389,0.6692 0.91994,1.7105 0.91994,1.7105 0.37819,0.6551 1,0.6056 1,0 0,-0.083 -0.01,-0.2617 -0.0955,-0.4631 l -0.96922,-2.2737 c -0.0633,-0.1484 -0.17339,-0.3421 -0.68421,-0.3421 l -5.30263,0 -0.51316,-1.7106 c -0.20526,-0.6842 -1.19737,-0.6842 -1.19737,0 0,0.3421 0.12121,0.7575 0.17105,1.0263 z"
           inkscape:connector-curvature="0"
           id="path21438"
           style="opacity:0.3;color:#000000;fill:none;stroke:#ffffff;stroke-width:2;stroke-linecap:round;stroke-linejoin:round;stroke-miterlimit:4;stroke-opacity:1;stroke-dasharray:none;stroke-dashoffset:0;marker:none;visibility:visible;display:inline;overflow:visible;enable-background:accumulate" />
        <path
           d="m 508.34321,1053.3622 c -0.75576,0 -1.36842,0.6126 -1.36842,1.3684 0,0.7558 0.61266,1.3684 1.36842,1.3684 0.75576,0 1.36842,-0.6126 1.36842,-1.3684 0,-0.7558 -0.61266,-1.3684 -1.36842,-1.3684 z m -3.93421,2.7368 0.34211,1.3685 c 0.17105,0.6842 0.57963,0.6842 1.09046,0.6842 l 1.13322,0 c 0.40625,0.6842 0.2153,1.7965 0.34211,2.8421 l -0.62007,0 c -0.68421,0 -1.77465,0.6842 -1.09046,2.0526 l 1.02632,2.0527 c 0.68419,1.3684 1.71051,0.3421 1.36842,-0.3421 l -1.02632,-2.0527 c -0.17105,-0.3421 0.18084,-0.3421 0.34211,-0.3421 l 1.68858,0 c 0,0 0.80993,1.6926 1.76396,2.9248 0.35218,0.4548 0.74228,1.0752 1.23056,1.0752 0.3421,0 0.92836,-0.5287 0.30441,-1.2733 -1.16845,-1.3944 -1.90857,-2.832 -1.90857,-3.5162 0,-0.7958 -0.13981,-2.4718 -0.3421,-3.421 l 1.02632,0 c 0.33389,0.6692 0.91994,1.7105 0.91994,1.7105 0.37819,0.6551 1,0.6056 1,0 0,-0.083 -0.01,-0.2617 -0.0955,-0.4631 l -0.96922,-2.2737 c -0.0633,-0.1484 -0.17339,-0.3421 -0.68421,-0.3421 l -5.30263,0 -0.51316,-1.7106 c -0.20526,-0.6842 -1.19737,-0.6842 -1.19737,0 0,0.3421 0.12121,0.7575 0.17105,1.0263 z"
           inkscape:connector-curvature="0"
           id="path10527-1-3"
           style="color:#000000;fill:#444444;fill-opacity:1;fill-rule:nonzero;stroke:none;stroke-width:2;marker:none;visibility:visible;display:inline;overflow:visible;enable-background:accumulate" />
      </g>
    </g>
  </g>
  <rect
     width="18"
     height="18"
     x="0"
     y="0"
     id="canvas"
     style="fill:none;stroke:none;visibility:hidden" />
</svg>
