<?xml version="1.0" encoding="UTF-8" standalone="no"?>
<!-- Created with Inkscape (http://www.inkscape.org/) -->

<svg
   xmlns:dc="http://purl.org/dc/elements/1.1/"
   xmlns:cc="http://creativecommons.org/ns#"
   xmlns:rdf="http://www.w3.org/1999/02/22-rdf-syntax-ns#"
   xmlns:svg="http://www.w3.org/2000/svg"
   xmlns="http://www.w3.org/2000/svg"
   xmlns:sodipodi="http://sodipodi.sourceforge.net/DTD/sodipodi-0.dtd"
   xmlns:inkscape="http://www.inkscape.org/namespaces/inkscape"
   width="18"
   height="18"
   id="svg4619"
   version="1.1"
   inkscape:version="0.48.2 r9819"
   sodipodi:docname="playground-18.svg">
  <defs
     id="defs4621" />
  <sodipodi:namedview
     id="base"
     pagecolor="#ffffff"
     bordercolor="#666666"
     borderopacity="1.0"
     inkscape:pageopacity="0.0"
     inkscape:pageshadow="2"
     inkscape:zoom="22.627417"
     inkscape:cx="6.9242225"
     inkscape:cy="12.459682"
     inkscape:document-units="px"
     inkscape:current-layer="layer1"
     showgrid="true"
     showguides="true"
     inkscape:guide-bbox="true"
     inkscape:window-width="1705"
     inkscape:window-height="919"
     inkscape:window-x="110"
     inkscape:window-y="20"
     inkscape:window-maximized="0"
     inkscape:snap-grids="false"
     inkscape:snap-to-guides="false">
    <inkscape:grid
       type="xygrid"
       id="grid4627"
       empspacing="2"
       visible="true"
       enabled="true"
       snapvisiblegridlinesonly="true"
       color="#ff00ff"
       opacity="0.1254902"
       empcolor="#ff00ff"
       empopacity="0.25098039" />
    <sodipodi:guide
       orientation="0,1"
       position="7,18"
       id="guide4659" />
    <sodipodi:guide
       orientation="1,0"
       position="18,9"
       id="guide4661" />
    <sodipodi:guide
       orientation="0,1"
       position="16,17"
       id="guide4663" />
    <sodipodi:guide
       orientation="1,0"
       position="17,14"
       id="guide4665" />
    <sodipodi:guide
       orientation="1,0"
       position="0,16"
       id="guide4667" />
    <sodipodi:guide
       orientation="0,1"
       position="8,0"
       id="guide4669" />
    <sodipodi:guide
       orientation="1,0"
       position="2,10"
       id="guide4671" />
    <sodipodi:guide
       orientation="0,1"
       position="12,2"
       id="guide4673" />
  </sodipodi:namedview>
  <metadata
     id="metadata4624">
    <rdf:RDF>
      <cc:Work
         rdf:about="">
        <dc:format>image/svg+xml</dc:format>
        <dc:type
           rdf:resource="http://purl.org/dc/dcmitype/StillImage" />
        <dc:title />
      </cc:Work>
    </rdf:RDF>
  </metadata>
  <g
     inkscape:label="Layer 1"
     inkscape:groupmode="layer"
     id="layer1"
     transform="translate(0,-1034.3622)"
     style="display:inline">
    <path
       style="color:#000000;fill:#ffffff;fill-opacity:1;fill-rule:nonzero;stroke:none;stroke-width:2;marker:none;visibility:visible;display:inline;overflow:visible;enable-background:accumulate;opacity:0.3"
       d="M 10.75 1 C 9.5205084 1 8.5 2.0209 8.5 3.25 C 8.5 4.3199 9.3330688 5.094 10.34375 5.3125 C 10.27944 5.5099 10.205322 5.62115 10.125 5.90625 C 9.9824874 6.41195 9.8307603 7.16725 9.6875 7.90625 L 7.625 8.46875 C 7.3158044 7.94155 7.0975884 7.569 6.875 7.25 C 7.7737056 6.9541 8.5 6.2392 8.5 5.25 C 8.5 4.0208 7.479299 3 6.25 3 C 5.020701 3 4 4.0208 4 5.25 C 4 5.4652 4.1449148 5.7161 4.21875 5.8125 C 3.897216 6.0674 3.7018506 6.3874 3.53125 6.75 L 2.78125 9.75 L 1.75 10.03125 C 1.3243523 10.14115 0.99970256 10.5604 1 11 L 1 13 C 0.99974157 13.608 1.6613014 14.12065 2.25 13.96875 L 2.71875 13.84375 C 2.4738555 14.44555 2.4948894 15.11095 3.03125 15.59375 C 3.7257516 16.21875 4.6872893 16.19835 5.34375 15.46875 L 6.0625 14.6875 C 5.8670931 15.2816 6.3746414 15.9922 7 16 L 12 16 C 12.660477 15.99 13.17447 15.19735 12.90625 14.59375 L 11.6875 11.875 L 14.5625 13.28125 L 14.59375 13.21875 C 15.38168 13.66955 16.360925 13.53435 16.8125 12.65625 C 17.058546 12.17785 17.040955 11.68515 16.875 11.28125 C 16.729769 10.92765 16.38429 10.6232 15.96875 10.4375 L 16 10.375 L 15.90625 10.34375 L 17.25 9.96875 C 17.675583 9.85885 18.00021 9.4395 18 9 L 18 7 C 18.000198 6.392 17.338666 5.87935 16.75 6.03125 L 14.71875 6.5625 C 14.322204 5.8902 13.827657 4.99295 13.46875 4.53125 C 13.095645 4.07045 13.013922 3.99285 12.78125 3.78125 C 12.91156 3.72425 13 3.4549 13 3.25 C 13 2.0209 11.979491 1 10.75 1 z "
       transform="translate(0,1034.3622)"
       id="path3811" />
    <path
       style="color:#000000;fill:#444444;fill-opacity:1;fill-rule:nonzero;stroke:none;stroke-width:2;marker:none;visibility:visible;display:inline;overflow:visible;enable-background:accumulate"
       d="M 10.75 2 C 10.0575 2 9.5 2.5578 9.5 3.25 C 9.5 3.9429 10.0575 4.5 10.75 4.5 C 11.442498 4.5 12 3.9429 12 3.25 C 12 2.5578 11.442498 2 10.75 2 z M 6.25 4 C 5.5575002 4 5 4.5576 5 5.25 C 5 5.9427 5.5575002 6.5 6.25 6.5 C 6.9425 6.5 7.5 5.9427 7.5 5.25 C 7.5 4.5576 6.9425 4 6.25 4 z M 12 4.5 C 11.753 4.4903496 11.606404 4.8145625 11.5 5 C 11.337624 5.2828873 10.876041 6.6403319 10.53125 8.71875 L 7.1875 9.625 C 6.457321 8.2140732 5.8182454 7.3525782 5.53125 6.96875 C 5.2326859 6.56945 4.7277895 6.161 4.5 7 L 3.59375 10.5625 L 2 11 L 2 13 L 5.25 12.125 L 3.65625 13.96875 C 3.4353699 14.21415 3.4420633 14.62285 3.6875 14.84375 C 3.9329369 15.06465 4.3728699 15.058 4.59375 14.8125 L 7.5 11.53125 L 8.75 11.1875 L 7 15 L 12 15 L 10.125 10.84375 L 11.21875 10.53125 L 15 12.375 C 15.289272 12.5974 15.770636 12.512 15.9375 12.1875 C 16.104363 11.8631 15.911604 11.38725 15.5625 11.28125 L 13.03125 10.0625 L 17 9 L 17 7 L 14.25 7.71875 C 13.514554 6.4466308 13.4312 6.3202804 12.5625 5 C 12.341022 4.6293125 12.1482 4.5057902 12 4.5 z "
       transform="translate(0,1034.3622)"
       id="path3025" />
  </g>
</svg>
