<?xml version="1.0" encoding="UTF-8" standalone="no"?>
<!-- Created with Inkscape (http://www.inkscape.org/) -->

<svg
   xmlns:dc="http://purl.org/dc/elements/1.1/"
   xmlns:cc="http://creativecommons.org/ns#"
   xmlns:rdf="http://www.w3.org/1999/02/22-rdf-syntax-ns#"
   xmlns:svg="http://www.w3.org/2000/svg"
   xmlns="http://www.w3.org/2000/svg"
   xmlns:inkscape="http://www.inkscape.org/namespaces/inkscape"
   version="1.1"
   width="12"
   height="12"
   id="svg4764">
  <defs
     id="defs4766" />
  <metadata
     id="metadata4769">
    <rdf:RDF>
      <cc:Work
         rdf:about="">
        <dc:format>image/svg+xml</dc:format>
        <dc:type
           rdf:resource="http://purl.org/dc/dcmitype/StillImage" />
        <dc:title />
      </cc:Work>
    </rdf:RDF>
  </metadata>
  <g
     transform="translate(0,-1040.3622)"
     id="layer1">
    <path
       d="M 9,1 C 8.446,1 8,1.446 8,2 8,2.554 8.446,3 9,3 9.554,3 10,2.554 10,2 10,1.446 9.554,1 9,1 z M 5,2 C 4.4460001,2 4,2.4459 4,3 4,3.5539 4.4460001,4 5,4 5.5539999,4 6,3.5539 6,3 6,2.4459 5.5539999,2 5,2 z M 8,4 7.53125,6.875 5.40625,7.125 5,5 4,5 3.03125,7.375 2,7.5 2,9 C 3.4165396,8.8426224 4.8334604,8.6886511 6.25,8.53125 L 5,11 8,11 6.75,8.46875 C 8.1665396,8.3113489 9.5834604,8.1573776 11,8 L 11,6.5 9.90625,6.625 9,4 8,4 z"
       inkscape:connector-curvature="0"
       transform="translate(0,1040.3622)"
       id="path4073"
       style="opacity:0.3;color:#000000;fill:none;stroke:#ffffff;stroke-width:2;marker:none;visibility:visible;display:inline;overflow:visible;enable-background:accumulate" />
    <path
       d="M 8,1 C 7.446,1 7,1.446 7,2 7,2.554 7.446,3 8,3 8.554,3 9,2.554 9,2 9,1.446 8.554,1 8,1 z M 5,2 C 4.4460001,2 4,2.4459 4,3 4,3.5539 4.4460001,4 5,4 5.5539999,4 6,3.5539 6,3 6,2.4459 5.5539999,2 5,2 z M 8,4 7.53125,6.875 5.40625,7.125 5,5 4,5 3.03125,7.375 2,7.5 2,9 C 3.4165396,8.8426224 4.8334604,8.6886511 6.25,8.53125 L 5,11 8,11 6.75,8.46875 C 8.1665396,8.3113489 9.5834604,8.1573776 11,8 L 11,6.5 9.90625,6.625 9,4 z"
       inkscape:connector-curvature="0"
       transform="translate(0,1040.3622)"
       id="path4129"
       style="color:#000000;fill:#444444;fill-opacity:1;fill-rule:nonzero;stroke:none;stroke-width:2;marker:none;visibility:visible;display:inline;overflow:visible;enable-background:accumulate" />
  </g>
  <rect
     width="12"
     height="12"
     x="0"
     y="0"
     id="canvas"
     style="fill:none;stroke:none;visibility:hidden" />
</svg>
