<?xml version="1.0" encoding="UTF-8" standalone="no"?>
<!-- Created with Inkscape (http://www.inkscape.org/) -->

<svg
   xmlns:dc="http://purl.org/dc/elements/1.1/"
   xmlns:cc="http://creativecommons.org/ns#"
   xmlns:rdf="http://www.w3.org/1999/02/22-rdf-syntax-ns#"
   xmlns:svg="http://www.w3.org/2000/svg"
   xmlns="http://www.w3.org/2000/svg"
   xmlns:sodipodi="http://sodipodi.sourceforge.net/DTD/sodipodi-0.dtd"
   xmlns:inkscape="http://www.inkscape.org/namespaces/inkscape"
   width="24"
   height="24"
   id="svg4460"
   version="1.1"
   inkscape:version="0.48.2 r9819"
   sodipodi:docname="playground-24.svg">
  <defs
     id="defs4462" />
  <sodipodi:namedview
     id="base"
     pagecolor="#ffffff"
     bordercolor="#666666"
     borderopacity="1.0"
     inkscape:pageopacity="0.0"
     inkscape:pageshadow="2"
     inkscape:zoom="15.999999"
     inkscape:cx="16.331177"
     inkscape:cy="10.284542"
     inkscape:document-units="px"
     inkscape:current-layer="layer1"
     showgrid="true"
     showguides="false"
     inkscape:guide-bbox="true"
     inkscape:window-width="1496"
     inkscape:window-height="988"
     inkscape:window-x="181"
     inkscape:window-y="0"
     inkscape:window-maximized="0"
     inkscape:object-paths="false"
     inkscape:snap-nodes="true"
     inkscape:snap-grids="false"
     inkscape:snap-to-guides="true"
     inkscape:snap-bbox="true">
    <inkscape:grid
       type="xygrid"
       id="grid4468"
       empspacing="2"
       visible="true"
       enabled="true"
       snapvisiblegridlinesonly="true"
       color="#ff00eb"
       opacity="0.1254902"
       empcolor="#ff00f8"
       empopacity="0.25098039" />
    <sodipodi:guide
       orientation="1,0"
       position="0,20"
       id="guide4470" />
    <sodipodi:guide
       orientation="0,1"
       position="4,24"
       id="guide4472" />
    <sodipodi:guide
       orientation="1,0"
       position="24,13"
       id="guide4474" />
    <sodipodi:guide
       orientation="0,1"
       position="21,0"
       id="guide4476" />
    <sodipodi:guide
       orientation="1,0"
       position="23,20"
       id="guide4478" />
    <sodipodi:guide
       orientation="0,1"
       position="20,23"
       id="guide4480" />
    <sodipodi:guide
       orientation="1,0"
       position="2,5"
       id="guide4482" />
    <sodipodi:guide
       orientation="0,1"
       position="7,2"
       id="guide4484" />
    <sodipodi:guide
       orientation="1,0"
       position="12.5,4.5"
       id="guide4486" />
    <sodipodi:guide
       orientation="0,1"
       position="16,13"
       id="guide4490" />
    <sodipodi:guide
       orientation="1,0"
       position="3,14.5"
       id="guide2995" />
    <sodipodi:guide
       orientation="0,1"
       position="5.5,3"
       id="guide2997" />
    <sodipodi:guide
       orientation="1,0"
       position="22,10.5"
       id="guide2999" />
    <sodipodi:guide
       orientation="0,1"
       position="7,22"
       id="guide3001" />
  </sodipodi:namedview>
  <metadata
     id="metadata4465">
    <rdf:RDF>
      <cc:Work
         rdf:about="">
        <dc:format>image/svg+xml</dc:format>
        <dc:type
           rdf:resource="http://purl.org/dc/dcmitype/StillImage" />
        <dc:title />
      </cc:Work>
    </rdf:RDF>
  </metadata>
  <g
     inkscape:label="Layer 1"
     inkscape:groupmode="layer"
     id="layer1"
     transform="translate(0,-1028.3622)">
    <path
       style="font-size:medium;font-style:normal;font-variant:normal;font-weight:normal;font-stretch:normal;text-indent:0;text-align:start;text-decoration:none;line-height:normal;letter-spacing:normal;word-spacing:normal;text-transform:none;direction:ltr;block-progression:tb;writing-mode:lr-tb;text-anchor:start;baseline-shift:baseline;opacity:0.3;color:#000000;fill:#ffffff;fill-opacity:1;fill-rule:nonzero;stroke:none;stroke-width:2;marker:none;visibility:visible;display:inline;overflow:visible;enable-background:accumulate;font-family:Sans;-inkscape-font-specification:Sans"
       d="M 14.5,1 C 13.132217,1 12,2.1323 12,3.5 c 0,1.3073 1.058093,2.3435 2.34375,2.4375 -0.116715,0.3826 -0.224172,0.65045 -0.40625,1.34375 -0.240019,0.9138 -0.514323,2.1624 -0.78125,3.4375 l -2.78125,0.875 C 9.6713027,10.26545 9.0033417,9.10865 8.59375,8.53125 9.3726763,8.10485 10,7.4403 10,6.5 10,5.1323 8.867783,4 7.5,4 6.132217,4 5,5.1323 5,6.5 c 0,0.7694 0.4118377,1.38295 0.96875,1.84375 -0.040722,0.088 -0.1288601,0.1629 -0.15625,0.25 l 0.03125,0 -1.59375,4.96875 -1.5625,0.5 C 2.2946786,14.191724 2.0051752,14.586502 2,15 l 0,2 c -0.011923,0.635758 0.7084855,1.167488 1.3125,0.96875 l 2.09375,-0.65625 0.03125,0 0,0.03125 c -0.6131298,0.7021 -0.6289118,1.6795 0.15625,2.3125 0.7600665,0.613 1.7633602,0.4318 2.3125,-0.3125 0.00939,-0.013 0.02213,-0.01825 0.03125,-0.03125 L 7.96875,19.28125 10.5,16.1875 9.0625,19.625 C 8.8168492,20.232423 9.3448195,21.00678 10,21 l 6,0 c 0.640016,-0.0011 1.157421,-0.742704 0.9375,-1.34375 l -1.90625,-4.9375 4.71875,1.65625 0.03125,0 c 0.891303,0.3514 1.853591,-0.043 2.15625,-1 0.292803,-0.9274 -0.214321,-1.76635 -1.125,-2.03125 l 0.03125,-0.03125 -0.125,-0.03125 -1.21875,-0.4375 2.8125,-0.875 C 22.715252,11.836304 23.007928,11.423897 23,11 L 23,9 C 22.992164,8.3746414 22.281597,7.8670931 21.6875,8.0625 L 19.46875,8.78125 C 18.674294,7.37925 18.29551,6.4095502 17.409879,5.0533471 17.152614,4.6593874 16.902609,4.4134474 16.6875,4.21875 16.808766,4.0588626 16.984375,3.9143125 17,3.5 17.051544,2.1332716 15.867783,1 14.5,1 z"
       transform="translate(0,1028.3622)"
       id="path4031"
       inkscape:connector-curvature="0"
       sodipodi:nodetypes="sscccccssscccccccccccccccccccccccccccccccccscss" />
    <path
       style="color:#000000;fill:#444444;fill-opacity:1;fill-rule:nonzero;stroke:none;stroke-width:2;marker:none;visibility:visible;display:inline;overflow:visible;enable-background:accumulate"
       d="M 14.5 2 C 13.669 2 13 2.6691 13 3.5 C 13 4.3311 13.669 5 14.5 5 C 15.331 5 16 4.3311 16 3.5 C 16 2.6691 15.331 2 14.5 2 z M 7.5 5 C 6.669 5 6 5.6691 6 6.5 C 6 7.3311 6.669 8 7.5 8 C 8.331 8 9 7.3311 9 6.5 C 9 5.6691 8.331 5 7.5 5 z M 16.0625 5 C 15.806253 4.9586484 15.60281 5.2513125 15.5 5.53125 C 15.336627 5.9760912 14.605889 8.4697242 14 11.53125 L 9.90625 12.8125 C 8.9283271 10.893025 8.0403294 9.3886684 7.65625 8.875 C 7.2581646 8.3426 6.9352434 8.41705 6.78125 8.90625 L 5.03125 14.34375 L 3 15 L 3 17 L 8.28125 15.34375 L 6.1875 17.9375 C 5.9449846 18.1858 5.9485751 18.6572 6.21875 18.875 C 6.4889253 19.0929 6.9337416 19.00835 7.125 18.71875 L 10.4375 14.6875 C 10.449296 14.673738 10.460141 14.6692 10.46875 14.65625 L 12.5 14 L 10 20 L 16 20 L 13.5625 13.65625 L 14.34375 13.40625 L 20.125 15.4375 C 20.444144 15.5701 20.864683 15.3915 20.96875 15.0625 C 21.072817 14.7329 20.837405 14.3248 20.5 14.25 L 16.3125 12.78125 L 22 11 L 22 9 L 18.96875 9.96875 C 17.792939 7.9484201 17.44052 7.1898102 16.5625 5.5 C 16.395947 5.1728875 16.216248 5.0248109 16.0625 5 z "
       id="path3025"
       transform="translate(0,1028.3622)" />
    <path
       inkscape:connector-curvature="0"
       style="color:#000000;fill:#444444;fill-opacity:1;fill-rule:nonzero;stroke:none;stroke-width:2;marker:none;visibility:visible;display:inline;overflow:visible;enable-background:accumulate"
       d="m 6.5000545,1277.055 c -0.831,0 -1.5,0.669 -1.5,1.4999 0,0.8311 0.669,1.5001 1.5,1.5001 0.831,0 1.5000005,-0.669 1.5000005,-1.5001 0,-0.8309 -0.6690005,-1.4999 -1.5000005,-1.4999 z"
       id="path3825" />
    <path
       sodipodi:nodetypes="cc"
       inkscape:connector-curvature="0"
       id="path3827"
       d="M 4.5196605,1286.5679 20.519661,1280.568"
       style="fill:none;stroke:#444444;stroke-width:3;stroke-linecap:round;stroke-linejoin:bevel;stroke-miterlimit:4;stroke-opacity:1;stroke-dasharray:none" />
    <path
       inkscape:transform-center-y="-1.1546712"
       transform="matrix(0.51736736,0,0,0.68853067,20.284901,1280.1848)"
       d="m -8.1905251,14.354102 -11.6189499,0 L -14,4.2917962 z"
       inkscape:randomized="0"
       inkscape:rounded="0"
       inkscape:flatsided="true"
       sodipodi:arg2="1.5707963"
       sodipodi:arg1="0.52359878"
       sodipodi:r2="3.3541019"
       sodipodi:r1="6.7082038"
       sodipodi:cy="11"
       sodipodi:cx="-14"
       sodipodi:sides="3"
       id="path3829"
       style="fill:#444444;fill-opacity:1;stroke:none"
       sodipodi:type="star" />
    <path
       style="fill:none;stroke:#ff0606;stroke-width:0.1;stroke-linecap:butt;stroke-miterlimit:4;stroke-opacity:1;stroke-dasharray:none"
       d="m 16.019661,1292.068 -7.0000005,-17"
       id="path3831"
       inkscape:connector-curvature="0"
       sodipodi:nodetypes="cc" />
    <path
       sodipodi:nodetypes="cccc"
       inkscape:connector-curvature="0"
       id="path3833"
       d="m 3.9191758,1286.2655 3.7765712,-1.5399 -1.9813582,-4.0282 z"
       style="fill:#444444;fill-opacity:1;stroke:#444444;stroke-width:0.5;stroke-linecap:round;stroke-linejoin:round;stroke-miterlimit:4;stroke-opacity:1;stroke-dasharray:none" />
    <path
       inkscape:connector-curvature="0"
       id="path3835"
       d="m 7.9231294,1286.366 -2.0265404,3.0398"
       style="fill:#444444;fill-opacity:1;stroke:#444444;stroke-width:1.28961658;stroke-linecap:round;stroke-miterlimit:4;stroke-opacity:1;stroke-dasharray:none" />
    <path
       id="path3837"
       d="m 15.468805,1272.3988 c -0.831,0 -1.5,0.669 -1.5,1.4999 0,0.8311 0.669,1.5001 1.5,1.5001 0.831,0 1.500001,-0.669 1.500001,-1.5001 0,-0.8309 -0.669001,-1.4999 -1.500001,-1.4999 z"
       style="color:#000000;fill:#444444;fill-opacity:1;fill-rule:nonzero;stroke:none;stroke-width:2;marker:none;visibility:visible;display:inline;overflow:visible;enable-background:accumulate"
       inkscape:connector-curvature="0" />
    <path
       style="fill:#444444;fill-opacity:1;stroke:#444444;stroke-width:0.5;stroke-linecap:round;stroke-linejoin:round;stroke-miterlimit:4;stroke-opacity:1;stroke-dasharray:none"
       d="m 15.887926,1280.828 3.776572,-1.5399 -1.981359,-4.0282 z"
       id="path3839"
       inkscape:connector-curvature="0"
       sodipodi:nodetypes="cccc" />
    <path
       style="fill:#444444;fill-opacity:1;stroke:#444444;stroke-width:1.23687005;stroke-linecap:round;stroke-miterlimit:4;stroke-opacity:1;stroke-dasharray:none"
       d="m 17.284441,1282.9195 3.147755,1.5393"
       id="path3841"
       inkscape:connector-curvature="0" />
    <path
       inkscape:connector-curvature="0"
       style="color:#000000;fill:#444444;fill-opacity:1;fill-rule:nonzero;stroke:none;stroke-width:2;marker:none;visibility:visible;display:inline;overflow:visible;enable-background:accumulate"
       d="m 7.7816856,1252.4627 c -0.831,0 -1.5,0.669 -1.5,1.4999 0,0.8311 0.669,1.5001 1.5,1.5001 0.831,0 1.5000005,-0.669 1.5000005,-1.5001 0,-0.8309 -0.6690005,-1.4999 -1.5000005,-1.4999 z"
       id="path3843" />
    <path
       sodipodi:nodetypes="cc"
       inkscape:connector-curvature="0"
       id="path3845"
       d="m 3.5031945,1264.804 18.2539035,-5.4253"
       style="fill:none;stroke:#444444;stroke-width:2;stroke-linecap:butt;stroke-linejoin:bevel;stroke-miterlimit:4;stroke-opacity:1;stroke-dasharray:none" />
    <path
       inkscape:transform-center-y="-1.1546712"
       transform="matrix(0.51736736,0,0,0.68853067,20.240706,1257.9348)"
       d="m -8.1905251,14.354102 -11.6189499,0 L -14,4.2917962 z"
       inkscape:randomized="0"
       inkscape:rounded="0"
       inkscape:flatsided="true"
       sodipodi:arg2="1.5707963"
       sodipodi:arg1="0.52359878"
       sodipodi:r2="3.3541019"
       sodipodi:r1="6.7082038"
       sodipodi:cy="11"
       sodipodi:cx="-14"
       sodipodi:sides="3"
       id="path3847"
       style="fill:#444444;fill-opacity:1;stroke:none"
       sodipodi:type="star" />
    <path
       style="fill:none;stroke:#ff0606;stroke-width:0.1;stroke-linecap:butt;stroke-miterlimit:4;stroke-opacity:1;stroke-dasharray:none"
       d="m 16.019661,1269.818 -7.0000005,-17"
       id="path3849"
       inkscape:connector-curvature="0"
       sodipodi:nodetypes="cc" />
    <path
       sodipodi:nodetypes="cccc"
       inkscape:connector-curvature="0"
       id="path3851"
       d="m 5.1485876,1263.1396 5.2068354,-1.3208 -3.3286744,-5.8041 z"
       style="fill:#444444;fill-opacity:1;stroke:#444444;stroke-width:0.57233816;stroke-linecap:round;stroke-linejoin:round;stroke-miterlimit:4;stroke-opacity:1;stroke-dasharray:none" />
    <path
       inkscape:connector-curvature="0"
       id="path3853"
       d="m 9.1181146,1264.5118 -2.4719672,2.6902"
       style="fill:#444444;fill-opacity:1;stroke:#444444;stroke-width:1.28961658;stroke-linecap:round;stroke-miterlimit:4;stroke-opacity:1;stroke-dasharray:none" />
    <path
       id="path3855"
       d="m 15.468805,1250.1488 c -0.831,0 -1.5,0.669 -1.5,1.4999 0,0.8311 0.669,1.5001 1.5,1.5001 0.831,0 1.500001,-0.669 1.500001,-1.5001 0,-0.8309 -0.669001,-1.4999 -1.500001,-1.4999 z"
       style="color:#000000;fill:#444444;fill-opacity:1;fill-rule:nonzero;stroke:none;stroke-width:2;marker:none;visibility:visible;display:inline;overflow:visible;enable-background:accumulate"
       inkscape:connector-curvature="0" />
    <path
       style="fill:#444444;fill-opacity:1;stroke:#444444;stroke-width:0.5;stroke-linecap:round;stroke-linejoin:round;stroke-miterlimit:4;stroke-opacity:1;stroke-dasharray:none"
       d="m 15.887926,1258.578 3.776572,-1.5399 -1.981359,-4.0282 z"
       id="path3857"
       inkscape:connector-curvature="0"
       sodipodi:nodetypes="cccc" />
    <path
       style="fill:#444444;fill-opacity:1;stroke:#444444;stroke-width:1.23687005;stroke-linecap:round;stroke-miterlimit:4;stroke-opacity:1;stroke-dasharray:none"
       d="m 17.682189,1261.465 3.147755,1.5393"
       id="path3859"
       inkscape:connector-curvature="0" />
    <path
       inkscape:connector-curvature="0"
       style="color:#000000;fill:#444444;fill-opacity:1;fill-rule:nonzero;stroke:none;stroke-width:2;marker:none;visibility:visible;display:inline;overflow:visible;enable-background:accumulate"
       d="m 7.9887924,1229.2367 c -0.831,0 -1.5,0.669 -1.5,1.4999 0,0.8311 0.669,1.5001 1.5,1.5001 0.831,0 1.5000006,-0.669 1.5000006,-1.5001 0,-0.8309 -0.6690006,-1.4999 -1.5000006,-1.4999 z"
       id="path3904" />
    <path
       sodipodi:nodetypes="ccccc"
       inkscape:connector-curvature="0"
       id="path3906"
       d="M 21.522097,1233.2315 3,1239.2159 3.5689721,1241.2314 22,1235.2315 z"
       style="font-size:medium;font-style:normal;font-variant:normal;font-weight:normal;font-stretch:normal;text-indent:0;text-align:start;text-decoration:none;line-height:normal;letter-spacing:normal;word-spacing:normal;text-transform:none;direction:ltr;block-progression:tb;writing-mode:lr-tb;text-anchor:start;baseline-shift:baseline;color:#000000;fill:#444444;fill-opacity:1;stroke:none;stroke-width:2;marker:none;visibility:visible;display:inline;overflow:visible;enable-background:accumulate;font-family:Sans;-inkscape-font-specification:Sans" />
    <path
       sodipodi:nodetypes="cccc"
       inkscape:connector-curvature="0"
       id="path3910"
       d="m 4.9939079,1238.6942 5.0079621,-1.4755 -2.9751214,-4.9818 z"
       style="fill:#444444;fill-opacity:1;stroke:none" />
    <path
       sodipodi:nodetypes="cc"
       inkscape:connector-curvature="0"
       id="path3912"
       d="m 9.3772288,1239.6892 -2.7566618,3.407"
       style="fill:#444444;fill-opacity:1;stroke:#444444;stroke-width:1.25;stroke-linecap:round;stroke-miterlimit:4;stroke-opacity:1;stroke-dasharray:none" />
    <path
       inkscape:transform-center-y="-1.1702593"
       transform="matrix(0.51736736,0,0,0.69784762,20.237184,1234.2322)"
       d="m -8.1905251,14.354102 -11.6189499,0 L -14,4.2917962 z"
       inkscape:randomized="0"
       inkscape:rounded="0"
       inkscape:flatsided="true"
       sodipodi:arg2="1.5707963"
       sodipodi:arg1="0.52359878"
       sodipodi:r2="3.3541019"
       sodipodi:r1="6.7082038"
       sodipodi:cy="11"
       sodipodi:cx="-14"
       sodipodi:sides="3"
       id="path3914"
       style="fill:#444444;fill-opacity:1;stroke:none"
       sodipodi:type="star" />
    <path
       id="path3916"
       d="m 14.505705,1226.7185 c -0.831,0 -1.5,0.669 -1.5,1.4999 0,0.8311 0.669,1.5001 1.5,1.5001 0.831,0 1.500001,-0.669 1.500001,-1.5001 0,-0.8309 -0.669001,-1.4999 -1.500001,-1.4999 z"
       style="color:#000000;fill:#444444;fill-opacity:1;fill-rule:nonzero;stroke:none;stroke-width:2;marker:none;visibility:visible;display:inline;overflow:visible;enable-background:accumulate"
       inkscape:connector-curvature="0" />
    <path
       style="fill:#444444;fill-opacity:1;stroke:#444444;stroke-width:1.25;stroke-linecap:round;stroke-miterlimit:4;stroke-opacity:1;stroke-dasharray:none"
       d="m 16.636226,1237.1924 4.50917,1.458"
       id="path3918"
       inkscape:connector-curvature="0" />
    <path
       style="fill:#444444;fill-opacity:1;stroke:none"
       d="m 15.00768,1235.7256 5.007962,-1.4755 -4.006372,-4.9818 z"
       id="path3920"
       inkscape:connector-curvature="0"
       sodipodi:nodetypes="cccc" />
    <path
       id="path3922"
       d="m 7.9887924,1229.2809 c -0.831,0 -1.5,0.669 -1.5,1.4999 0,0.8311 0.669,1.5001 1.5,1.5001 0.831,0 1.5000006,-0.669 1.5000006,-1.5001 0,-0.8309 -0.6690006,-1.4999 -1.5000006,-1.4999 z"
       style="color:#000000;fill:#444444;fill-opacity:1;fill-rule:nonzero;stroke:none;stroke-width:2;marker:none;visibility:visible;display:inline;overflow:visible;enable-background:accumulate"
       inkscape:connector-curvature="0" />
    <path
       style="fill:#444444;fill-opacity:1;stroke:none"
       d="m 4.9939079,1238.6942 5.0079621,-1.4755 -2.9751214,-4.9818 z"
       id="path3926"
       inkscape:connector-curvature="0"
       sodipodi:nodetypes="cccc" />
    <path
       style="fill:#444444;fill-opacity:1;stroke:#444444;stroke-width:1.25;stroke-linecap:round;stroke-miterlimit:4;stroke-opacity:1;stroke-dasharray:none"
       d="m 9.3772288,1239.6892 -2.7566618,3.407"
       id="path3928"
       inkscape:connector-curvature="0"
       sodipodi:nodetypes="cc" />
    <path
       sodipodi:type="star"
       style="fill:#444444;fill-opacity:1;stroke:none"
       id="path3930"
       sodipodi:sides="3"
       sodipodi:cx="-14"
       sodipodi:cy="11"
       sodipodi:r1="6.7082038"
       sodipodi:r2="3.3541019"
       sodipodi:arg1="0.52359878"
       sodipodi:arg2="1.5707963"
       inkscape:flatsided="true"
       inkscape:rounded="0"
       inkscape:randomized="0"
       d="m -8.1905251,14.354102 -11.6189499,0 L -14,4.2917962 z"
       transform="matrix(0.51736736,0,0,0.69784762,20.237184,1234.2322)"
       inkscape:transform-center-y="-1.1702593" />
    <path
       inkscape:connector-curvature="0"
       style="color:#000000;fill:#444444;fill-opacity:1;fill-rule:nonzero;stroke:none;stroke-width:2;marker:none;visibility:visible;display:inline;overflow:visible;enable-background:accumulate"
       d="m 14.505705,1226.7185 c -0.831,0 -1.5,0.669 -1.5,1.4999 0,0.8311 0.669,1.5001 1.5,1.5001 0.831,0 1.500001,-0.669 1.500001,-1.5001 0,-0.8309 -0.669001,-1.4999 -1.500001,-1.4999 z"
       id="path3932" />
    <path
       inkscape:connector-curvature="0"
       id="path3934"
       d="m 16.636226,1237.1924 4.50917,1.458"
       style="fill:#444444;fill-opacity:1;stroke:#444444;stroke-width:1.25;stroke-linecap:round;stroke-miterlimit:4;stroke-opacity:1;stroke-dasharray:none" />
    <path
       sodipodi:nodetypes="cccc"
       inkscape:connector-curvature="0"
       id="path3936"
       d="m 15.00768,1235.7256 5.007962,-1.4755 -4.006372,-4.9818 z"
       style="fill:#444444;fill-opacity:1;stroke:none" />
    <path
       inkscape:connector-curvature="0"
       style="color:#000000;fill:#444444;fill-opacity:1;fill-rule:nonzero;stroke:none;stroke-width:2;marker:none;visibility:visible;display:inline;overflow:visible;enable-background:accumulate"
       d="m 7.4887924,1208.1629 c -0.831,0 -1.5,0.669 -1.5,1.4999 0,0.8311 0.669,1.5001 1.5,1.5001 0.831,0 1.5000006,-0.669 1.5000006,-1.5001 0,-0.8309 -0.6690006,-1.4999 -1.5000006,-1.4999 z"
       id="path3938" />
    <path
       sodipodi:nodetypes="ccccc"
       inkscape:connector-curvature="0"
       id="path3940"
       d="M 21.522097,1212.1577 3,1218.1421 3.5689721,1220.1576 22,1214.1577 z"
       style="font-size:medium;font-style:normal;font-variant:normal;font-weight:normal;font-stretch:normal;text-indent:0;text-align:start;text-decoration:none;line-height:normal;letter-spacing:normal;word-spacing:normal;text-transform:none;direction:ltr;block-progression:tb;writing-mode:lr-tb;text-anchor:start;baseline-shift:baseline;color:#000000;fill:#444444;fill-opacity:1;stroke:none;stroke-width:2;marker:none;visibility:visible;display:inline;overflow:visible;enable-background:accumulate;font-family:Sans;-inkscape-font-specification:Sans" />
    <path
       sodipodi:nodetypes="cccc"
       inkscape:connector-curvature="0"
       id="path3944"
       d="m 4.9939079,1217.6204 5.0079621,-1.4755 -2.9751214,-4.9818 z"
       style="fill:#444444;fill-opacity:1;stroke:none" />
    <path
       sodipodi:nodetypes="cc"
       inkscape:connector-curvature="0"
       id="path3946"
       d="m 9.3772288,1218.6154 -2.7566618,3.407"
       style="fill:#444444;fill-opacity:1;stroke:#444444;stroke-width:1.25;stroke-linecap:round;stroke-miterlimit:4;stroke-opacity:1;stroke-dasharray:none" />
    <path
       inkscape:transform-center-y="-1.1702593"
       transform="matrix(0.51736736,0,0,0.69784762,20.237184,1213.1584)"
       d="m -8.1905251,14.354102 -11.6189499,0 L -14,4.2917962 z"
       inkscape:randomized="0"
       inkscape:rounded="0"
       inkscape:flatsided="true"
       sodipodi:arg2="1.5707963"
       sodipodi:arg1="0.52359878"
       sodipodi:r2="3.3541019"
       sodipodi:r1="6.7082038"
       sodipodi:cy="11"
       sodipodi:cx="-14"
       sodipodi:sides="3"
       id="path3948"
       style="fill:#444444;fill-opacity:1;stroke:none"
       sodipodi:type="star" />
    <path
       style="fill:#444444;fill-opacity:1;stroke:#444444;stroke-width:1.25;stroke-linecap:round;stroke-miterlimit:4;stroke-opacity:1;stroke-dasharray:none"
       d="m 16.636226,1216.1186 4.50917,1.458"
       id="path3950"
       inkscape:connector-curvature="0" />
    <path
       style="fill:#444444;fill-opacity:1;stroke:none"
       d="m 15.00768,1214.6518 5.007962,-1.4755 -4.006372,-4.9818 z"
       id="path3952"
       inkscape:connector-curvature="0"
       sodipodi:nodetypes="cccc" />
    <path
       inkscape:connector-curvature="0"
       style="color:#000000;fill:#444444;fill-opacity:1;fill-rule:nonzero;stroke:none;stroke-width:2;marker:none;visibility:visible;display:inline;overflow:visible;enable-background:accumulate"
       d="m 14.505705,1206.176 c -0.831,0 -1.5,0.669 -1.5,1.4999 0,0.8311 0.669,1.5001 1.5,1.5001 0.831,0 1.500001,-0.669 1.500001,-1.5001 0,-0.8309 -0.669001,-1.4999 -1.500001,-1.4999 z"
       id="path3956" />
    <path
       inkscape:connector-curvature="0"
       style="color:#000000;fill:#444444;fill-opacity:1;fill-rule:nonzero;stroke:none;stroke-width:2;marker:none;visibility:visible;display:inline;overflow:visible;enable-background:accumulate"
       d="m 7.4887924,1177.3357 c -0.831,0 -1.5,0.669 -1.5,1.4999 0,0.8311 0.669,1.5001 1.5,1.5001 0.831,0 1.5000006,-0.669 1.5000006,-1.5001 0,-0.8309 -0.6690006,-1.4999 -1.5000006,-1.4999 z"
       id="path3960" />
    <path
       sodipodi:nodetypes="ccccc"
       inkscape:connector-curvature="0"
       id="path3962"
       d="M 21.522097,1181.3305 3,1187.3149 3.5689721,1189.3304 22,1183.3305 z"
       style="font-size:medium;font-style:normal;font-variant:normal;font-weight:normal;font-stretch:normal;text-indent:0;text-align:start;text-decoration:none;line-height:normal;letter-spacing:normal;word-spacing:normal;text-transform:none;direction:ltr;block-progression:tb;writing-mode:lr-tb;text-anchor:start;baseline-shift:baseline;color:#000000;fill:#444444;fill-opacity:1;stroke:none;stroke-width:2;marker:none;visibility:visible;display:inline;overflow:visible;enable-background:accumulate;font-family:Sans;-inkscape-font-specification:Sans" />
    <path
       sodipodi:nodetypes="cczcc"
       inkscape:connector-curvature="0"
       id="path3966"
       d="m 4.9939079,1186.7932 5.0079621,-1.4755 c -1.0220003,-2.0212 -1.9957814,-3.5866 -2.3938668,-4.119 -0.3980854,-0.5324 -0.7421357,-0.4622 -0.8961291,0.027 z"
       style="fill:#444444;fill-opacity:1;stroke:none" />
    <path
       sodipodi:nodetypes="cc"
       inkscape:connector-curvature="0"
       id="path3968"
       d="m 9.3993259,1187.3021 -2.7566618,3.407"
       style="fill:#444444;fill-opacity:1;stroke:#444444;stroke-width:1.25;stroke-linecap:round;stroke-miterlimit:4;stroke-opacity:1;stroke-dasharray:none" />
    <path
       inkscape:transform-center-y="-1.1702593"
       transform="matrix(0.51736736,0,0,0.69784762,20.237184,1182.3312)"
       d="m -8.1905251,14.354102 -11.6189499,0 L -14,4.2917962 z"
       inkscape:randomized="0"
       inkscape:rounded="0"
       inkscape:flatsided="true"
       sodipodi:arg2="1.5707963"
       sodipodi:arg1="0.52359878"
       sodipodi:r2="3.3541019"
       sodipodi:r1="6.7082038"
       sodipodi:cy="11"
       sodipodi:cx="-14"
       sodipodi:sides="3"
       id="path3970"
       style="fill:#444444;fill-opacity:1;stroke:none"
       sodipodi:type="star" />
    <path
       style="fill:#444444;fill-opacity:1;stroke:#444444;stroke-width:1.25;stroke-linecap:round;stroke-miterlimit:4;stroke-opacity:1;stroke-dasharray:none"
       d="m 15.61976,1185.6008 4.50917,1.458"
       id="path3972"
       inkscape:connector-curvature="0" />
    <path
       inkscape:connector-curvature="0"
       style="color:#000000;fill:#444444;fill-opacity:1;fill-rule:nonzero;stroke:none;stroke-width:2;marker:none;visibility:visible;display:inline;overflow:visible;enable-background:accumulate"
       d="m 14.505705,1174.6859 c -0.831,0 -1.5,0.669 -1.5,1.4999 0,0.8311 0.669,1.5001 1.5,1.5001 0.831,0 1.500001,-0.669 1.500001,-1.5001 0,-0.8309 -0.669001,-1.4999 -1.500001,-1.4999 z"
       id="path3976" />
    <path
       style="fill:#444444;fill-opacity:1;stroke:none"
       d="m 18.99655,1182.2179 -4.975148,1.5776 c 0.608483,-3.0903 1.297369,-5.145 1.461865,-5.5929 0.164496,-0.4479 0.517568,-0.8772 1.016953,-0.027 0.499385,0.8502 2.49633,4.0427 2.49633,4.0427 z"
       id="path3978"
       inkscape:connector-curvature="0"
       sodipodi:nodetypes="cczzcc" />
    <path
       inkscape:connector-curvature="0"
       style="color:#000000;fill:#444444;fill-opacity:1;fill-rule:nonzero;stroke:none;stroke-width:2;marker:none;visibility:visible;display:inline;overflow:visible;enable-background:accumulate"
       d="m 7.5512924,1149.3508 c -0.831,0 -1.5,0.669 -1.5,1.4999 0,0.8311 0.669,1.5001 1.5,1.5001 0.831,0 1.5000006,-0.669 1.5000006,-1.5001 0,-0.8309 -0.6690006,-1.4999 -1.5000006,-1.4999 z"
       id="path4000" />
    <path
       sodipodi:nodetypes="ccccc"
       inkscape:connector-curvature="0"
       id="path4002"
       d="M 22.022097,1153.3456 3,1159.3613 l 0.00647,2.0155 19.028569,-6.022 z"
       style="font-size:medium;font-style:normal;font-variant:normal;font-weight:normal;font-stretch:normal;text-indent:0;text-align:start;text-decoration:none;line-height:normal;letter-spacing:normal;word-spacing:normal;text-transform:none;direction:ltr;block-progression:tb;writing-mode:lr-tb;text-anchor:start;baseline-shift:baseline;color:#000000;fill:#444444;fill-opacity:1;stroke:none;stroke-width:2;marker:none;visibility:visible;display:inline;overflow:visible;enable-background:accumulate;font-family:Sans;-inkscape-font-specification:Sans" />
    <path
       sodipodi:nodetypes="cczcc"
       inkscape:connector-curvature="0"
       id="path4006"
       d="m 5.0564079,1158.8083 5.0079621,-1.4755 c -1.0220003,-2.0212 -1.9957814,-3.5866 -2.3938668,-4.119 -0.3980854,-0.5324 -0.7421357,-0.4622 -0.8961291,0.027 z"
       style="fill:#444444;fill-opacity:1;stroke:none" />
    <path
       sodipodi:nodetypes="cc"
       inkscape:connector-curvature="0"
       id="path4008"
       d="m 9.4618259,1159.3172 -2.7566618,3.407"
       style="fill:#444444;fill-opacity:1;stroke:#444444;stroke-width:1.25;stroke-linecap:round;stroke-miterlimit:4;stroke-opacity:1;stroke-dasharray:none" />
    <path
       inkscape:transform-center-y="-1.1702593"
       transform="matrix(0.51736736,0,0,0.69784762,20.299684,1154.3463)"
       d="m -8.1905251,14.354102 -11.6189499,0 L -14,4.2917962 z"
       inkscape:randomized="0"
       inkscape:rounded="0"
       inkscape:flatsided="true"
       sodipodi:arg2="1.5707963"
       sodipodi:arg1="0.52359878"
       sodipodi:r2="3.3541019"
       sodipodi:r1="6.7082038"
       sodipodi:cy="11"
       sodipodi:cx="-14"
       sodipodi:sides="3"
       id="path4010"
       style="fill:#444444;fill-opacity:1;stroke:none"
       sodipodi:type="star" />
    <path
       style="fill:#444444;fill-opacity:1;stroke:#444444;stroke-width:1.25;stroke-linecap:round;stroke-miterlimit:4;stroke-opacity:1;stroke-dasharray:none"
       d="m 15.68226,1157.6159 4.50917,1.458"
       id="path4012"
       inkscape:connector-curvature="0" />
    <path
       inkscape:connector-curvature="0"
       style="color:#000000;fill:#444444;fill-opacity:1;fill-rule:nonzero;stroke:none;stroke-width:2;marker:none;visibility:visible;display:inline;overflow:visible;enable-background:accumulate"
       d="m 14.568205,1146.3572 c -0.831,0 -1.5,0.669 -1.5,1.4999 0,0.8311 0.669,1.5001 1.5,1.5001 0.831,0 1.500001,-0.669 1.500001,-1.5001 0,-0.8309 -0.669001,-1.4999 -1.500001,-1.4999 z"
       id="path4016" />
    <path
       style="fill:#444444;fill-opacity:1;stroke:none"
       d="m 19.014856,1154.3656 -4.975148,1.5113 c 0.608483,-3.0903 1.341563,-5.5551 1.506059,-6.003 0.164496,-0.4479 0.517568,-0.8772 1.016953,-0.027 0.6818,1.2344 1.300865,2.5246 2.452136,4.5187 z"
       id="path4018"
       inkscape:connector-curvature="0"
       sodipodi:nodetypes="cczcc" />
  </g>
</svg>
