<?xml version="1.0" encoding="UTF-8" standalone="no"?>
<!-- Created with Inkscape (http://www.inkscape.org/) -->

<svg
   xmlns:dc="http://purl.org/dc/elements/1.1/"
   xmlns:cc="http://creativecommons.org/ns#"
   xmlns:rdf="http://www.w3.org/1999/02/22-rdf-syntax-ns#"
   xmlns:svg="http://www.w3.org/2000/svg"
   xmlns="http://www.w3.org/2000/svg"
   xmlns:sodipodi="http://sodipodi.sourceforge.net/DTD/sodipodi-0.dtd"
   xmlns:inkscape="http://www.inkscape.org/namespaces/inkscape"
   width="18"
   height="18"
   id="svg4619"
   version="1.1"
   inkscape:version="0.48.2 r9819"
   sodipodi:docname="playground-18.svg">
  <defs
     id="defs4621" />
  <sodipodi:namedview
     id="base"
     pagecolor="#ffffff"
     bordercolor="#666666"
     borderopacity="1.0"
     inkscape:pageopacity="0.0"
     inkscape:pageshadow="2"
     inkscape:zoom="32"
     inkscape:cx="7.8089493"
     inkscape:cy="11.131068"
     inkscape:document-units="px"
     inkscape:current-layer="layer1"
     showgrid="true"
     showguides="true"
     inkscape:guide-bbox="true"
     inkscape:window-width="1705"
     inkscape:window-height="919"
     inkscape:window-x="110"
     inkscape:window-y="20"
     inkscape:window-maximized="0"
     inkscape:snap-grids="false"
     inkscape:snap-to-guides="false">
    <inkscape:grid
       type="xygrid"
       id="grid4627"
       empspacing="2"
       visible="true"
       enabled="true"
       snapvisiblegridlinesonly="true"
       color="#ff00ff"
       opacity="0.1254902"
       empcolor="#ff00ff"
       empopacity="0.25098039" />
    <sodipodi:guide
       orientation="0,1"
       position="7,18"
       id="guide4659" />
    <sodipodi:guide
       orientation="1,0"
       position="18,9"
       id="guide4661" />
    <sodipodi:guide
       orientation="0,1"
       position="16,17"
       id="guide4663" />
    <sodipodi:guide
       orientation="1,0"
       position="17,14"
       id="guide4665" />
    <sodipodi:guide
       orientation="1,0"
       position="0,16"
       id="guide4667" />
    <sodipodi:guide
       orientation="0,1"
       position="8,0"
       id="guide4669" />
    <sodipodi:guide
       orientation="1,0"
       position="2,10"
       id="guide4671" />
    <sodipodi:guide
       orientation="0,1"
       position="12,2"
       id="guide4673" />
  </sodipodi:namedview>
  <metadata
     id="metadata4624">
    <rdf:RDF>
      <cc:Work
         rdf:about="">
        <dc:format>image/svg+xml</dc:format>
        <dc:type
           rdf:resource="http://purl.org/dc/dcmitype/StillImage" />
        <dc:title />
      </cc:Work>
    </rdf:RDF>
  </metadata>
  <g
     inkscape:groupmode="layer"
     id="layer2"
     inkscape:label="original"
     style="display:none">
    <path
       id="path3025-5"
       d="m 5.4017742,3.8012 c -0.62325,0 -1.125,0.5018 -1.125,1.1249 0,0.6234 0.50175,1.1251 1.125,1.1251 0.62325,0 1.1250004,-0.5017 1.1250004,-1.1251 0,-0.6231 -0.5017504,-1.1249 -1.1250004,-1.1249 z"
       style="color:#000000;fill:#444444;fill-opacity:1;fill-rule:nonzero;stroke:none;stroke-width:2;marker:none;visibility:visible;display:inline;overflow:visible;enable-background:accumulate"
       inkscape:connector-curvature="0" />
    <path
       style="font-size:medium;font-style:normal;font-variant:normal;font-weight:normal;font-stretch:normal;text-indent:0;text-align:start;text-decoration:none;line-height:normal;letter-spacing:normal;word-spacing:normal;text-transform:none;direction:ltr;block-progression:tb;writing-mode:lr-tb;text-anchor:start;baseline-shift:baseline;color:#000000;fill:#444444;fill-opacity:1;stroke:none;stroke-width:2;marker:none;visibility:visible;display:inline;overflow:visible;enable-background:accumulate;font-family:Sans;-inkscape-font-specification:Sans"
       d="M 16.254878,6.7973 1.9883049,11.3091 1.9931549,12.8207 16.264581,8.3042 z"
       id="path3027-3"
       inkscape:connector-curvature="0"
       sodipodi:nodetypes="ccccc" />
    <path
       sodipodi:nodetypes="cc"
       inkscape:connector-curvature="0"
       id="path3031-9"
       d="M 11.799926,16.5494 6.5499253,3.7994"
       style="fill:none;stroke:#ff0606;stroke-width:0.075;stroke-linecap:butt;stroke-miterlimit:4;stroke-opacity:1;stroke-dasharray:none" />
    <path
       style="fill:#444444;fill-opacity:1;stroke:none"
       d="M 3.5306108,10.8943 7.2865824,9.7877 C 6.5200822,8.2718 5.7897463,7.0978 5.4911823,6.6985 5.1926182,6.2992 4.9345805,6.3518 4.8190855,6.7185 z"
       id="path3033-0"
       inkscape:connector-curvature="0"
       sodipodi:nodetypes="cczcc" />
    <path
       style="fill:#444444;fill-opacity:1;stroke:#444444;stroke-width:0.9375;stroke-linecap:round;stroke-miterlimit:4;stroke-opacity:1;stroke-dasharray:none"
       d="M 6.8346743,11.276 4.767178,13.8313"
       id="path3035-5"
       inkscape:connector-curvature="0"
       sodipodi:nodetypes="cc" />
    <path
       sodipodi:type="star"
       style="fill:#444444;fill-opacity:1;stroke:none"
       id="path3863-5"
       sodipodi:sides="3"
       sodipodi:cx="-14"
       sodipodi:cy="11"
       sodipodi:r1="6.7082038"
       sodipodi:r2="3.3541019"
       sodipodi:arg1="0.52359878"
       sodipodi:arg2="1.5707963"
       inkscape:flatsided="true"
       inkscape:rounded="0"
       inkscape:randomized="0"
       d="m -8.1905251,14.354102 -11.6189499,0 L -14,4.2917962 z"
       transform="matrix(0.38802552,0,0,0.52338571,14.963068,7.5478)"
       inkscape:transform-center-y="-0.87773202" />
    <path
       inkscape:connector-curvature="0"
       id="path3869-6"
       d="m 11.5,10 3.381877,1.0935"
       style="fill:#444444;fill-opacity:1;stroke:#444444;stroke-width:0.9375;stroke-linecap:round;stroke-miterlimit:4;stroke-opacity:1;stroke-dasharray:none" />
    <path
       style="fill:none;stroke:#ff0606;stroke-width:0.075;stroke-linecap:butt;stroke-miterlimit:4;stroke-opacity:1;stroke-dasharray:none"
       d="M 11.799926,16.5494 6.5499253,3.7994"
       id="path3889-3"
       inkscape:connector-curvature="0"
       sodipodi:nodetypes="cc" />
    <path
       id="path3897-2"
       d="m 10.664459,1.556 c -0.62325,0 -1.125,0.5018 -1.125,1.1249 0,0.6234 0.50175,1.1251 1.125,1.1251 0.62325,0 1.125,-0.5017 1.125,-1.1251 0,-0.6231 -0.50175,-1.1249 -1.125,-1.1249 z"
       style="color:#000000;fill:#444444;fill-opacity:1;fill-rule:nonzero;stroke:none;stroke-width:2;marker:none;visibility:visible;display:inline;overflow:visible;enable-background:accumulate"
       inkscape:connector-curvature="0" />
    <path
       sodipodi:nodetypes="cczcc"
       inkscape:connector-curvature="0"
       id="path3958-6"
       d="m 13.999447,7.5623 -3.731361,1.1335 c 0.456362,-2.3177 1.006172,-4.1663 1.129544,-4.5023 0.123372,-0.3359 0.388176,-0.6579 0.762715,-0.02 0.51135,0.9258 0.975649,1.8934 1.839102,3.389 z"
       style="fill:#444444;fill-opacity:1;stroke:none" />
  </g>
  <g
     inkscape:label="Layer 1"
     inkscape:groupmode="layer"
     id="layer1"
     transform="translate(0,-1034.3622)"
     style="display:inline">
    <path
       style="color:#000000;fill:#ffffff;fill-opacity:1;fill-rule:nonzero;stroke:none;stroke-width:2;marker:none;visibility:visible;display:inline;overflow:visible;enable-background:accumulate;opacity:0.3"
       d="M 11 1 C 9.9089362 1 9 1.9093 9 3 C 9 3.9104 9.6876452 4.5781 10.53125 4.8125 C 10.391694 5.1163 10.273102 5.38055 10.125 5.90625 C 9.9824874 6.41195 9.8307603 7.16725 9.6875 7.90625 L 7.625 8.46875 C 7.1919583 7.73045 6.8354336 7.0799 6.59375 6.75 C 7.3682562 6.4728 8 5.8605 8 5 C 8 3.9093 7.0908231 3 6 3 C 4.9091769 3 4 3.9093 4 5 C 4 5.3049 4.1677939 5.53155 4.34375 5.78125 C 4.24947 5.82625 4.1376496 5.8756 4.0625 5.9375 C 3.7520529 6.2088 3.6180484 6.4303 3.53125 6.75 L 2.78125 9.75 L 1.75 10.03125 C 1.3242877 10.14125 0.99961461 10.5603 1 11 L 1 13 C 0.99974157 13.608 1.6613014 14.12065 2.25 13.96875 L 2.71875 13.84375 C 2.4738555 14.44555 2.4948894 15.11095 3.03125 15.59375 C 3.7257516 16.21875 4.6872893 16.19835 5.34375 15.46875 L 6.0625 14.6875 C 5.8670931 15.2816 6.3746414 15.9922 7 16 L 12 16 C 12.660477 15.99 13.17447 15.19735 12.90625 14.59375 L 11.6875 11.875 C 12.582619 12.3516 13.745581 12.86725 14.59375 13.21875 C 15.432376 13.56625 16.360925 13.53435 16.8125 12.65625 C 17.058546 12.17785 17.040955 11.68515 16.875 11.28125 C 16.618884 10.81695 16.256464 10.48055 15.90625 10.34375 L 17.25 9.96875 C 17.675583 9.85885 18.00021 9.4395 18 9 L 18 7 C 18.000198 6.392 17.338666 5.87935 16.75 6.03125 L 14.71875 6.5625 C 14.322204 5.8902 14.128637 5.5524 13.4375 4.5625 C 13.308027 4.377 12.866658 3.9237 12.6875 3.75 C 12.824705 3.5488 13 3.2903 13 3 C 13 1.9093 12.091064 1 11 1 z "
       transform="translate(0,1034.3622)"
       id="path4606" />
    <path
       style="color:#000000;fill:#444444;fill-opacity:1;fill-rule:nonzero;stroke:none;stroke-width:2;marker:none;visibility:visible;display:inline;overflow:visible;enable-background:accumulate"
       d="M 11 2 C 10.446 2 10 2.4463 10 3 C 10 3.5542 10.446 4 11 4 C 11.553998 4 12 3.5542 12 3 C 12 2.4463 11.553998 2 11 2 z M 6 4 C 5.4460001 4 5 4.4461 5 5 C 5 5.5542 5.4460001 6 6 6 C 6.554 6 7 5.5542 7 5 C 7 4.4461 6.554 4 6 4 z M 12 4.5 C 11.753 4.4903496 11.606404 4.8145625 11.5 5 C 11.337624 5.2828873 10.876041 6.6403319 10.53125 8.71875 L 7.1875 9.625 C 6.457321 8.2140732 5.8182454 7.3525782 5.53125 6.96875 C 5.2326859 6.56945 4.7277895 6.161 4.5 7 L 3.59375 10.5625 L 2 11 L 2 13 L 5.25 12.125 L 3.65625 13.96875 C 3.4353699 14.21415 3.4420633 14.62285 3.6875 14.84375 C 3.9329369 15.06465 4.3728699 15.058 4.59375 14.8125 L 7.5 11.53125 L 8.75 11.1875 L 7 15 L 12 15 L 10.125 10.84375 L 11.21875 10.53125 L 15 12.375 C 15.289272 12.5974 15.770636 12.512 15.9375 12.1875 C 16.104363 11.8631 15.911604 11.38725 15.5625 11.28125 L 13.03125 10.0625 L 17 9 L 17 7 L 14.25 7.71875 C 13.514554 6.4466308 13.4312 6.3202804 12.5625 5 C 12.341022 4.6293125 12.1482 4.5057902 12 4.5 z "
       transform="translate(0,1034.3622)"
       id="path3025" />
    <path
       inkscape:connector-curvature="0"
       style="color:#000000;fill:#444444;fill-opacity:1;fill-rule:nonzero;stroke:none;stroke-width:2;marker:none;visibility:visible;display:inline;overflow:visible;enable-background:accumulate"
       d="m 5.9927425,1068.4363 c -0.5580204,0 -1.0072571,0.4411 -1.0072571,0.9889 0,0.548 0.4492367,0.989 1.0072571,0.989 0.5580205,0 1.0072575,-0.441 1.0072575,-0.989 0,-0.5478 -0.449237,-0.9889 -1.0072575,-0.9889 z"
       id="path3849" />
    <path
       sodipodi:nodetypes="ccccc"
       inkscape:connector-curvature="0"
       id="path3851"
       d="M 17.044194,1071.4142 1.9883049,1075.4139 2,1077.4142 l 15.044194,-3.9558 z"
       style="font-size:medium;font-style:normal;font-variant:normal;font-weight:normal;font-stretch:normal;text-indent:0;text-align:start;text-decoration:none;line-height:normal;letter-spacing:normal;word-spacing:normal;text-transform:none;direction:ltr;block-progression:tb;writing-mode:lr-tb;text-anchor:start;baseline-shift:baseline;color:#000000;fill:#444444;fill-opacity:1;stroke:none;stroke-width:2;marker:none;visibility:visible;display:inline;overflow:visible;enable-background:accumulate;font-family:Sans;-inkscape-font-specification:Sans" />
    <path
       sodipodi:nodetypes="cczcc"
       inkscape:connector-curvature="0"
       id="path3853"
       d="m 3.5306108,1075.3085 3.7559716,-1.1066 c -0.7665002,-1.5159 -1.4499611,-2.4086 -1.7485251,-2.8079 -0.2985641,-0.3993 -0.6972268,-0.8936 -1.0158468,0 z"
       style="fill:#444444;fill-opacity:1;stroke:none" />
    <path
       sodipodi:nodetypes="cc"
       inkscape:connector-curvature="0"
       id="path3855"
       d="M 6.8346743,1075.6902 4,1078.9142"
       style="fill:#444444;fill-opacity:1;stroke:#444444;stroke-width:1.25;stroke-linecap:round;stroke-miterlimit:4;stroke-opacity:1;stroke-dasharray:none" />
    <path
       inkscape:transform-center-y="-0.87773202"
       transform="matrix(0.38802552,0,0,0.52338571,14.963068,1071.962)"
       d="m -8.1905251,14.354102 -11.6189499,0 L -14,4.2917962 z"
       inkscape:randomized="0"
       inkscape:rounded="0"
       inkscape:flatsided="true"
       sodipodi:arg2="1.5707963"
       sodipodi:arg1="0.52359878"
       sodipodi:r2="3.3541019"
       sodipodi:r1="6.7082038"
       sodipodi:cy="11"
       sodipodi:cx="-14"
       sodipodi:sides="3"
       id="path3857"
       style="fill:#444444;fill-opacity:1;stroke:none"
       sodipodi:type="star" />
    <path
       sodipodi:nodetypes="cc"
       style="fill:#444444;fill-opacity:1;stroke:#444444;stroke-width:1.25;stroke-linecap:round;stroke-miterlimit:4;stroke-opacity:1;stroke-dasharray:none"
       d="m 11.5,1074.4142 4,2"
       id="path3859"
       inkscape:connector-curvature="0" />
    <path
       inkscape:connector-curvature="0"
       style="color:#000000;fill:#444444;fill-opacity:1;fill-rule:nonzero;stroke:none;stroke-width:2;marker:none;visibility:visible;display:inline;overflow:visible;enable-background:accumulate"
       d="m 11.012798,1066.4142 c -0.54691,0 -0.987203,0.4461 -0.987203,0.9998 0,0.5542 0.440293,1.0002 0.987203,1.0002 0.546909,0 0.987202,-0.446 0.987202,-1.0002 0,-0.5537 -0.440293,-0.9998 -0.987202,-0.9998 z"
       id="path3861" />
    <path
       style="fill:#444444;fill-opacity:1;stroke:none"
       d="m 14.339102,1072.303 -3.856361,1.1179 c 0.346987,-2.2553 0.840769,-3.6948 1.011016,-3.9914 0.170247,-0.2967 0.470092,-0.9985 1.0607,-0.01 0.9176,1.3946 0.921192,1.3879 1.784645,2.8835 z"
       id="path3864"
       inkscape:connector-curvature="0"
       sodipodi:nodetypes="cczcc" />
  </g>
</svg>
