<?xml version="1.0" encoding="UTF-8" standalone="no"?>
<!-- Created with Inkscape (http://www.inkscape.org/) -->

<svg
   xmlns:dc="http://purl.org/dc/elements/1.1/"
   xmlns:cc="http://creativecommons.org/ns#"
   xmlns:rdf="http://www.w3.org/1999/02/22-rdf-syntax-ns#"
   xmlns:svg="http://www.w3.org/2000/svg"
   xmlns="http://www.w3.org/2000/svg"
   xmlns:inkscape="http://www.inkscape.org/namespaces/inkscape"
   version="1.1"
   width="18"
   height="18"
   id="svg4619">
  <defs
     id="defs4621" />
  <metadata
     id="metadata4624">
    <rdf:RDF>
      <cc:Work
         rdf:about="">
        <dc:format>image/svg+xml</dc:format>
        <dc:type
           rdf:resource="http://purl.org/dc/dcmitype/StillImage" />
        <dc:title />
      </cc:Work>
    </rdf:RDF>
  </metadata>
  <g
     transform="translate(0,-1034.3622)"
     id="layer1"
     style="display:inline">
    <path
       d="M 10.75,2 C 10.0575,2 9.5,2.5578 9.5,3.25 9.5,3.9429 10.0575,4.5 10.75,4.5 11.442498,4.5 12,3.9429 12,3.25 12,2.5578 11.442498,2 10.75,2 z M 6.25,4 C 5.5575002,4 5,4.5576 5,5.25 5,5.9427 5.5575002,6.5 6.25,6.5 6.9425,6.5 7.5,5.9427 7.5,5.25 7.5,4.5576 6.9425,4 6.25,4 z M 11.5,5 10.53125,8.71875 7.1875,9.625 5.53125,6.96875 4.5,7 3.59375,10.5625 2,11 l 0,2 3.09375,-0.84375 -1,1.713226 c -0.1967997,0.342826 -0.063221,0.833399 0.2803905,1.029748 0.3436117,0.19635 0.8353098,0.06308 1.0321095,-0.279748 L 7.125,11.625 8.75,11.1875 7,15 12,15 10.125,10.84375 11.4375,10.5 l 2.28125,2.28125 c 0.279052,0.277275 0.786037,0.276467 1.064199,-0.0017 0.278162,-0.278162 0.277353,-0.783531 -0.0017,-1.060806 L 13.09375,10.03125 17,9 17,7 14.25,7.71875 12.5625,5 z"
       inkscape:connector-curvature="0"
       transform="translate(0,1034.3622)"
       id="path3988"
       style="opacity:0.3;color:#000000;fill:none;stroke:#ffffff;stroke-width:2;marker:none;visibility:visible;display:inline;overflow:visible;enable-background:accumulate" />
    <path
       d="M 10.75,2 C 10.0575,2 9.5,2.5578 9.5,3.25 9.5,3.9429 10.0575,4.5 10.75,4.5 11.442498,4.5 12,3.9429 12,3.25 12,2.5578 11.442498,2 10.75,2 z M 6.25,4 C 5.5575002,4 5,4.5576 5,5.25 5,5.9427 5.5575002,6.5 6.25,6.5 6.9425,6.5 7.5,5.9427 7.5,5.25 7.5,4.5576 6.9425,4 6.25,4 z M 11.5,5 10.53125,8.71875 7.1875,9.625 5.53125,6.96875 4.5,7 3.59375,10.5625 2,11 l 0,2 3.09375,-0.84375 -1,1.713226 c -0.1967997,0.342826 -0.063221,0.833399 0.2803905,1.029748 0.3436117,0.19635 0.8353098,0.06308 1.0321095,-0.279748 L 7.125,11.625 8.75,11.1875 7,15 12,15 10.125,10.84375 11.4375,10.5 l 2.28125,2.28125 c 0.279052,0.277275 0.786037,0.276467 1.064199,-0.0017 0.278162,-0.278162 0.277353,-0.783531 -0.0017,-1.060806 L 13.09375,10.03125 17,9 17,7 14.25,7.71875 12.5625,5 z"
       inkscape:connector-curvature="0"
       transform="translate(0,1034.3622)"
       id="path3025"
       style="color:#000000;fill:#444444;fill-opacity:1;fill-rule:nonzero;stroke:none;stroke-width:2;marker:none;visibility:visible;display:inline;overflow:visible;enable-background:accumulate" />
  </g>
  <rect
     width="18"
     height="18"
     x="0"
     y="0"
     id="canvas"
     style="fill:none;stroke:none;visibility:hidden" />
</svg>
