<?xml version="1.0" encoding="UTF-8" standalone="no"?>
<!-- Created with Inkscape (http://www.inkscape.org/) -->

<svg
   xmlns:dc="http://purl.org/dc/elements/1.1/"
   xmlns:cc="http://creativecommons.org/ns#"
   xmlns:rdf="http://www.w3.org/1999/02/22-rdf-syntax-ns#"
   xmlns:svg="http://www.w3.org/2000/svg"
   xmlns="http://www.w3.org/2000/svg"
   xmlns:sodipodi="http://sodipodi.sourceforge.net/DTD/sodipodi-0.dtd"
   xmlns:inkscape="http://www.inkscape.org/namespaces/inkscape"
   width="12"
   height="12"
   id="svg4764"
   version="1.1"
   inkscape:version="0.48.2 r9819"
   sodipodi:docname="playground-12.svg">
  <defs
     id="defs4766" />
  <sodipodi:namedview
     id="base"
     pagecolor="#ffffff"
     bordercolor="#666666"
     borderopacity="1.0"
     inkscape:pageopacity="0.0"
     inkscape:pageshadow="2"
     inkscape:zoom="16"
     inkscape:cx="2.3658229"
     inkscape:cy="9.6550366"
     inkscape:document-units="px"
     inkscape:current-layer="layer1"
     showgrid="true"
     showguides="true"
     inkscape:guide-bbox="true"
     inkscape:window-width="1425"
     inkscape:window-height="880"
     inkscape:window-x="135"
     inkscape:window-y="57"
     inkscape:window-maximized="0"
     inkscape:snap-grids="false"
     inkscape:snap-to-guides="false">
    <inkscape:grid
       type="xygrid"
       id="grid4772"
       empspacing="2"
       visible="true"
       enabled="true"
       snapvisiblegridlinesonly="true"
       color="#ff00ff"
       opacity="0.1254902"
       empcolor="#ff00ff"
       empopacity="0.25098039" />
    <sodipodi:guide
       orientation="0,1"
       position="2,12"
       id="guide4789" />
    <sodipodi:guide
       orientation="1,0"
       position="12,10"
       id="guide4791" />
    <sodipodi:guide
       orientation="0,1"
       position="10,0"
       id="guide4793" />
    <sodipodi:guide
       orientation="1,0"
       position="0,9"
       id="guide4795" />
    <sodipodi:guide
       orientation="0,1"
       position="5,11"
       id="guide4797" />
    <sodipodi:guide
       orientation="1,0"
       position="11,7"
       id="guide4799" />
    <sodipodi:guide
       orientation="0,1"
       position="9,2"
       id="guide4801" />
    <sodipodi:guide
       orientation="1,0"
       position="2,5"
       id="guide4803" />
  </sodipodi:namedview>
  <metadata
     id="metadata4769">
    <rdf:RDF>
      <cc:Work
         rdf:about="">
        <dc:format>image/svg+xml</dc:format>
        <dc:type
           rdf:resource="http://purl.org/dc/dcmitype/StillImage" />
        <dc:title />
      </cc:Work>
    </rdf:RDF>
  </metadata>
  <g
     inkscape:groupmode="layer"
     id="layer2"
     inkscape:label="original"
     style="display:inline" />
  <g
     inkscape:label="Layer 1"
     inkscape:groupmode="layer"
     id="layer1"
     transform="translate(0,-1040.3622)">
    <path
       style="font-size:medium;font-style:normal;font-variant:normal;font-weight:normal;font-stretch:normal;text-indent:0;text-align:start;text-decoration:none;line-height:normal;letter-spacing:normal;word-spacing:normal;text-transform:none;direction:ltr;block-progression:tb;writing-mode:lr-tb;text-anchor:start;baseline-shift:baseline;opacity:0.3;color:#000000;fill:#ffffff;fill-opacity:1;fill-rule:nonzero;stroke:none;stroke-width:2;marker:none;visibility:visible;display:inline;overflow:visible;enable-background:accumulate;font-family:Sans;-inkscape-font-specification:Sans"
       d="M 8,0 C 7.1042615,0 6.4666178,0.6766 6.21875,1.5 5.8741451,1.2199 5.4705594,1 5,1 3.9094176,1 3,1.9093 3,3 3,3.1701 3.0719533,3.3595758 3.1875,3.4375 3.134423,3.514445 3.09221,3.5988717 3.0625,3.6875 l -0.75,2.25 L 1.875,6 C 1.3943676,6.0605823 0.99624538,6.5155791 1,7 L 1,8 C 0.995608,8.5679644 1.5614675,9.0709508 2.125,9 L 4.625,8.71875 4.15625,9.5 C 3.8107798,10.098214 4.3093679,10.984593 5,11 l 3,0 C 8.6906321,10.984593 9.1892202,10.098214 8.84375,9.5 L 8.15625,8.34375 11.125,8 C 11.605632,7.9394177 12.003755,7.4844209 12,7 L 12,6 C 12.004392,5.4320356 11.438532,4.9290492 10.875,5 L 10.625,5.03125 9.96875,2.71875 C 9.9354921,2.6065113 9.8823362,2.5001995 9.8125,2.40625 9.9037992,2.3498968 10,2.1598 10,2 10,0.9093 9.0907028,0 8,0 z M 6.78125,3.5 C 6.858571,3.563 6.9544544,3.58142 7.0625,3.59375 7.05621,3.667217 7.040515,3.7476418 7.03125,3.8125 L 6.71875,5.46875 6.15625,5.53125 5.96875,4.75 C 5.9610337,4.7077196 5.9505881,4.6659375 5.9375,4.625 6.3746643,4.369 6.6332025,3.9918 6.78125,3.5 z"
       transform="translate(0,1040.3622)"
       id="path4634"
       inkscape:connector-curvature="0"
       sodipodi:nodetypes="scssccccccccccccccccccccsscccccccc" />
    <path
       style="color:#000000;fill:#444444;fill-opacity:1;fill-rule:nonzero;stroke:none;stroke-width:2;marker:none;visibility:visible;display:inline;overflow:visible;enable-background:accumulate"
       d="M 8 1 C 7.446 1 7 1.446 7 2 C 7 2.554 7.446 3 8 3 C 8.554 3 9 2.554 9 2 C 9 1.446 8.554 1 8 1 z M 5 2 C 4.4460001 2 4 2.4459 4 3 C 4 3.5539 4.4460001 4 5 4 C 5.5539999 4 6 3.5539 6 3 C 6 2.4459 5.5539999 2 5 2 z M 9 3 L 8 4 L 7.53125 6.375 L 5.40625 6.625 L 5 5 L 4 4 L 3.03125 6.875 L 2 7 L 2 8 L 6.5 7.5 L 11 7 L 11 6 L 9.90625 6.125 L 9 3 z M 6.5 7.5 L 5 10 L 8 10 L 6.5 7.5 z "
       id="path4129"
       transform="translate(0,1040.3622)" />
  </g>
</svg>
