<?xml version="1.0" encoding="UTF-8" standalone="no"?>
<!-- Created with Inkscape (http://www.inkscape.org/) -->

<svg
   xmlns:dc="http://purl.org/dc/elements/1.1/"
   xmlns:cc="http://creativecommons.org/ns#"
   xmlns:rdf="http://www.w3.org/1999/02/22-rdf-syntax-ns#"
   xmlns:svg="http://www.w3.org/2000/svg"
   xmlns="http://www.w3.org/2000/svg"
   xmlns:inkscape="http://www.inkscape.org/namespaces/inkscape"
   version="1.1"
   width="24"
   height="24"
   id="svg4460">
  <defs
     id="defs4462" />
  <metadata
     id="metadata4465">
    <rdf:RDF>
      <cc:Work
         rdf:about="">
        <dc:format>image/svg+xml</dc:format>
        <dc:type
           rdf:resource="http://purl.org/dc/dcmitype/StillImage" />
        <dc:title />
      </cc:Work>
    </rdf:RDF>
  </metadata>
  <g
     transform="translate(0,-1028.3622)"
     id="layer1">
    <path
       d="M 14.5,2 C 13.669,2 13,2.6691 13,3.5 13,4.3311 13.669,5 14.5,5 15.331,5 16,4.3311 16,3.5 16,2.6691 15.331,2 14.5,2 z m -6,3 C 7.669,5 7,5.6691 7,6.5 7,7.3311 7.669,8 8.5,8 9.331,8 10,7.3311 10,6.5 10,5.6691 9.331,5 8.5,5 z m 7.375,0.46875 C 15.701093,5.5243875 15.58363,5.7594 15.5,6 l -1.96875,5.6875 -3.21875,1 L 7.90625,8.875 C 7.5568665,8.3094 7.1852434,8.41705 7.03125,8.90625 L 5.0625,14.34375 3,15 l 0.5625,1.8125 4.65625,-1.46875 -2.03125,2.375 c -0.3088067,0.298 -0.2065749,0.81005 0,1.03125 0.2686854,0.2878 0.7569649,0.407 1.125,0 0,0 4.046875,-4.6407 3.6875,-4.25 0.0093,-0.01079 -0.0063,-0.02093 0,-0.03125 L 12.5,14 10,20 l 6,0 -2.4375,-6.34375 1.46875,-0.46875 3.8125,2.6875 C 19.21931,16.129 19.863603,15.99935 20,15.46875 20.132942,14.95175 19.847558,14.7201 19.53125,14.5 L 16.84375,12.625 22,11 21.4375,9.1875 19.375,9.84375 C 18.667459,8.624873 16.968157,6.487773 16.5625,5.96875 16.277929,5.5326 16.048907,5.4131125 15.875,5.46875 z"
       inkscape:connector-curvature="0"
       transform="translate(0,1028.3622)"
       id="path3054"
       style="opacity:0.3;color:#000000;fill:none;stroke:#ffffff;stroke-width:2;marker:none;visibility:visible;display:inline;overflow:visible;enable-background:accumulate" />
    <path
       d="M 14.5,2 C 13.669,2 13,2.6691 13,3.5 13,4.3311 13.669,5 14.5,5 15.331,5 16,4.3311 16,3.5 16,2.6691 15.331,2 14.5,2 z m -6,3 C 7.669,5 7,5.6691 7,6.5 7,7.3311 7.669,8 8.5,8 9.331,8 10,7.3311 10,6.5 10,5.6691 9.331,5 8.5,5 z m 7.375,0.46875 C 15.701093,5.5243875 15.58363,5.7594 15.5,6 l -1.96875,5.6875 -3.21875,1 L 7.90625,8.875 C 7.5568665,8.3094 7.1852434,8.41705 7.03125,8.90625 L 5.0625,14.34375 3,15 l 0.5625,1.8125 4.65625,-1.46875 -2.03125,2.375 c -0.3088067,0.298 -0.2065749,0.81005 0,1.03125 0.2686854,0.2878 0.7569649,0.407 1.125,0 0,0 4.046875,-4.6407 3.6875,-4.25 0.0093,-0.01079 -0.0063,-0.02093 0,-0.03125 L 12.5,14 10,20 l 6,0 -2.4375,-6.34375 1.46875,-0.46875 3.8125,2.6875 C 19.21931,16.129 19.863603,15.99935 20,15.46875 20.132942,14.95175 19.847558,14.7201 19.53125,14.5 L 16.84375,12.625 22,11 21.4375,9.1875 19.375,9.84375 C 18.667459,8.624873 16.968157,6.487773 16.5625,5.96875 16.277929,5.5326 16.048907,5.4131125 15.875,5.46875 z"
       inkscape:connector-curvature="0"
       transform="translate(0,1028.3622)"
       id="path3025"
       style="color:#000000;fill:#444444;fill-opacity:1;fill-rule:nonzero;stroke:none;stroke-width:2;marker:none;visibility:visible;display:inline;overflow:visible;enable-background:accumulate" />
  </g>
  <rect
     width="24"
     height="24"
     x="0"
     y="0"
     id="canvas"
     style="fill:none;stroke:none;visibility:hidden" />
</svg>
