<?xml version="1.0" encoding="UTF-8" standalone="no"?>
<!-- Created with Inkscape (http://www.inkscape.org/) -->

<svg
   xmlns:dc="http://purl.org/dc/elements/1.1/"
   xmlns:cc="http://creativecommons.org/ns#"
   xmlns:rdf="http://www.w3.org/1999/02/22-rdf-syntax-ns#"
   xmlns:svg="http://www.w3.org/2000/svg"
   xmlns="http://www.w3.org/2000/svg"
   xmlns:sodipodi="http://sodipodi.sourceforge.net/DTD/sodipodi-0.dtd"
   xmlns:inkscape="http://www.inkscape.org/namespaces/inkscape"
   width="24"
   height="24"
   id="svg4460"
   version="1.1"
   inkscape:version="0.48.2 r9819"
   sodipodi:docname="playground-24.svg">
  <defs
     id="defs4462" />
  <sodipodi:namedview
     id="base"
     pagecolor="#ffffff"
     bordercolor="#666666"
     borderopacity="1.0"
     inkscape:pageopacity="0.0"
     inkscape:pageshadow="2"
     inkscape:zoom="22.627416"
     inkscape:cx="14.268205"
     inkscape:cy="15.023299"
     inkscape:document-units="px"
     inkscape:current-layer="layer1"
     showgrid="false"
     showguides="false"
     inkscape:guide-bbox="true"
     inkscape:window-width="1476"
     inkscape:window-height="921"
     inkscape:window-x="36"
     inkscape:window-y="88"
     inkscape:window-maximized="0"
     inkscape:object-paths="false"
     inkscape:snap-nodes="false">
    <inkscape:grid
       type="xygrid"
       id="grid4468"
       empspacing="2"
       visible="true"
       enabled="true"
       snapvisiblegridlinesonly="true"
       color="#ff00eb"
       opacity="0.1254902"
       empcolor="#ff00f8"
       empopacity="0.25098039" />
    <sodipodi:guide
       orientation="1,0"
       position="0,20"
       id="guide4470" />
    <sodipodi:guide
       orientation="0,1"
       position="4,24"
       id="guide4472" />
    <sodipodi:guide
       orientation="1,0"
       position="24,13"
       id="guide4474" />
    <sodipodi:guide
       orientation="0,1"
       position="21,0"
       id="guide4476" />
    <sodipodi:guide
       orientation="1,0"
       position="23,20"
       id="guide4478" />
    <sodipodi:guide
       orientation="0,1"
       position="20,23"
       id="guide4480" />
    <sodipodi:guide
       orientation="1,0"
       position="2,5"
       id="guide4482" />
    <sodipodi:guide
       orientation="0,1"
       position="7,2"
       id="guide4484" />
    <sodipodi:guide
       orientation="1,0"
       position="12.5,4.5"
       id="guide4486" />
    <sodipodi:guide
       orientation="0,1"
       position="16,13"
       id="guide4490" />
    <sodipodi:guide
       orientation="1,0"
       position="3,14.5"
       id="guide2995" />
    <sodipodi:guide
       orientation="0,1"
       position="5.5,3"
       id="guide2997" />
    <sodipodi:guide
       orientation="1,0"
       position="22,10.5"
       id="guide2999" />
    <sodipodi:guide
       orientation="0,1"
       position="7,22"
       id="guide3001" />
  </sodipodi:namedview>
  <metadata
     id="metadata4465">
    <rdf:RDF>
      <cc:Work
         rdf:about="">
        <dc:format>image/svg+xml</dc:format>
        <dc:type
           rdf:resource="http://purl.org/dc/dcmitype/StillImage" />
        <dc:title></dc:title>
      </cc:Work>
    </rdf:RDF>
  </metadata>
  <g
     inkscape:label="Layer 1"
     inkscape:groupmode="layer"
     id="layer1"
     transform="translate(0,-1028.3622)">
    <path
       style="color:#000000;fill:#444444;fill-opacity:1;fill-rule:nonzero;stroke:none;stroke-width:2;marker:none;visibility:visible;display:inline;overflow:visible;enable-background:accumulate"
       d="m 44.25,1032.6122 c -0.9695,0 -1.75,0.7805 -1.75,1.75 0,0.9695 0.7805,1.75 1.75,1.75 0.9695,0 1.75,-0.7805 1.75,-1.75 0,-0.9695 -0.7805,-1.75 -1.75,-1.75 z"
       id="path3112" />
    <path
       style="color:#000000;fill:#444444;fill-opacity:1;fill-rule:nonzero;stroke:none;stroke-width:2;marker:none;visibility:visible;display:inline;overflow:visible;enable-background:accumulate"
       d="m 36.25,1034.6122 c -0.9695,0 -1.75,0.7805 -1.75,1.75 0,0.9695 0.7805,1.75 1.75,1.75 0.9695,0 1.75,-0.7805 1.75,-1.75 0,-0.9695 -0.7805,-1.75 -1.75,-1.75 z"
       id="path3110" />
    <path
       style="color:#000000;fill:#444444;fill-opacity:1;fill-rule:nonzero;stroke:none;stroke-width:2;marker:none;visibility:visible;display:inline;overflow:visible;enable-background:accumulate"
       d="m 45.5,1036.6122 c -0.372678,0 -0.986408,0.1345 -1.5,0.5 l -3.25,2.3125 c -0.881804,0.6275 -0.07268,1.7318 0.75,1.1875 l 2.125,-1.4062 c 0,0 1.401043,3.0042 0.875,4.4062 -0.01757,0.047 -0.03251,0.089 -0.03125,0.125 l -2.1875,5.8125 c -0.250941,0.6691 0.231786,1.0692 0.71875,1.0625 0.31932,0 0.624779,-0.193 0.78125,-0.5625 L 46.5,1043.6122 c 0,0 0.5,2.9998 2.5,3 1.20185,10e-5 2.083333,0 2.75,0 0.75,0 0.75,-0.75 0.75,-0.75 0,0 0,-0.75 -0.75,-0.75 -0.5,0 -1.75,-2e-4 -2.25,0 -1.067187,4e-4 -1,-1.6025 -1,-2.5 0,-1.5002 -1,-4 -1,-4 l 3,2 c 0.906394,0.6043 1.691522,-0.4657 0.8125,-1.125 L 48,1037.1122 c -0.603523,-0.4299 -0.796823,-0.4999 -1.5,-0.5 0,0 -0.5,0 -1,0 z"
       id="path3108" />
    <path
       style="color:#000000;fill:#444444;fill-opacity:1;fill-rule:nonzero;stroke:none;stroke-width:2;marker:none;visibility:visible;display:inline;overflow:visible;enable-background:accumulate"
       d="m 35,1038.6122 c -0.5,0 -0.736476,0.2365 -1,0.5 l -2.125,2.125 c -0.2736,0.2736 -0.375,0.5185 -0.375,0.875 0,0.5 0.764327,0.7356 1.1875,0.3125 l 1.8125,-1.8125 c 1,0 1.375,2.5 1,3.5 l -1.5,4 c -0.415461,1.1079 1.144264,1.4486 1.5,0.5 l 1.5,-4 c 0,0 0.5,1 1.5,1 l 3,0 c 1,0 1,-1.5 0,-1.5 l -2.5,0 c -0.5,0 -0.5,-1 -0.5,-1.5 0,-2 -1,-4 -2,-4 z"
       id="rect6848-8" />
    <path
       id="path3114"
       d="m 7.2840097,1032.9126 c -0.9695,0 -1.75,0.7805 -1.75,1.75 0,0.9695 0.7805,1.75 1.75,1.75 0.9695,0 1.75,-0.7805 1.75,-1.75 0,-0.9695 -0.7805,-1.75 -1.75,-1.75 z"
       style="color:#000000;fill:#444444;fill-opacity:1;fill-rule:nonzero;stroke:none;stroke-width:2;marker:none;visibility:visible;display:inline;overflow:visible;enable-background:accumulate"
       inkscape:connector-curvature="0" />
    <path
       style="font-size:medium;font-style:normal;font-variant:normal;font-weight:normal;font-stretch:normal;text-indent:0;text-align:start;text-decoration:none;line-height:normal;letter-spacing:normal;word-spacing:normal;text-transform:none;direction:ltr;block-progression:tb;writing-mode:lr-tb;text-anchor:start;baseline-shift:baseline;color:#000000;fill:#444444;fill-opacity:1;stroke:none;stroke-width:3;marker:none;visibility:visible;display:inline;overflow:visible;enable-background:accumulate;font-family:Sans;-inkscape-font-specification:Sans"
       d="m 21.75,1036.4688 -18.9375001,6.9688 1.0625,2.8124 18.9375001,-6.9688 z"
       id="path3118"
       inkscape:connector-curvature="0"
       sodipodi:nodetypes="ccccc" />
    <path
       sodipodi:type="star"
       style="fill:#444444;fill-opacity:1;stroke:none"
       id="path3894"
       sodipodi:sides="3"
       sodipodi:cx="-14"
       sodipodi:cy="11"
       sodipodi:r1="6.7082038"
       sodipodi:r2="3.3541019"
       sodipodi:arg1="0.52359878"
       sodipodi:arg2="1.5707963"
       inkscape:flatsided="true"
       inkscape:rounded="0"
       inkscape:randomized="0"
       d="m -8.1905251,14.354102 -11.6189499,0 L -14,4.2917962 z"
       transform="matrix(0.68853067,0,0,0.85002447,22.951929,1037.1609)"
       inkscape:transform-center-y="-1.4254967" />
    <path
       sodipodi:nodetypes="cc"
       inkscape:connector-curvature="0"
       id="path3896"
       d="m 16.3125,1049.7372 -7,-17"
       style="fill:none;stroke:#ff0606;stroke-width:0.1;stroke-linecap:butt;stroke-miterlimit:4;stroke-opacity:1;stroke-dasharray:none" />
    <path
       style="fill:#444444;fill-opacity:1;stroke:#444444;stroke-width:0.73002249;stroke-linecap:round;stroke-linejoin:round;stroke-opacity:1"
       d="m 3.9339189,1044.6726 8.7399341,-3.5713 -5.777418,-3.3566 z"
       id="path3903"
       inkscape:connector-curvature="0"
       sodipodi:nodetypes="cccc" />
    <path
       style="fill:#444444;fill-opacity:1;stroke:#444444;stroke-width:1.5;stroke-linecap:round;stroke-miterlimit:4;stroke-opacity:1;stroke-dasharray:none"
       d="m 8.2827087,1044.2201 -2,3"
       id="path3905"
       inkscape:connector-curvature="0" />
    <path
       inkscape:connector-curvature="0"
       id="path3911"
       d="m 19.912913,1042.3739 -3.415494,-1.1554"
       style="fill:#444444;fill-opacity:1;stroke:#444444;stroke-width:1.5;stroke-linecap:round;stroke-miterlimit:4;stroke-opacity:1;stroke-dasharray:none" />
    <path
       inkscape:connector-curvature="0"
       style="color:#000000;fill:#444444;fill-opacity:1;fill-rule:nonzero;stroke:none;stroke-width:2;marker:none;visibility:visible;display:inline;overflow:visible;enable-background:accumulate"
       d="m 15.138929,1030.304 c -0.9695,0 -1.75,0.7805 -1.75,1.75 0,0.9695 0.7805,1.75 1.75,1.75 0.9695,0 1.75,-0.7805 1.75,-1.75 0,-0.9695 -0.7805,-1.75 -1.75,-1.75 z"
       id="path4421" />
    <path
       inkscape:connector-curvature="0"
       style="color:#000000;fill:#444444;fill-opacity:1;fill-rule:nonzero;stroke:none;stroke-width:2;marker:none;visibility:visible;display:inline;overflow:visible;enable-background:accumulate"
       d="m -28.312447,1034.818 c -0.9695,0 -1.75,0.7805 -1.75,1.75 0,0.9695 0.7805,1.75 1.75,1.75 0.9695,0 1.75,-0.7805 1.75,-1.75 0,-0.9695 -0.7805,-1.75 -1.75,-1.75 z"
       id="path4425" />
    <path
       sodipodi:nodetypes="cc"
       inkscape:connector-curvature="0"
       id="path4427"
       d="m -30.855341,1045.8621 16,-5.9999"
       style="fill:none;stroke:#444444;stroke-width:3;stroke-linecap:round;stroke-linejoin:bevel;stroke-miterlimit:4;stroke-opacity:1;stroke-dasharray:none" />
    <path
       inkscape:transform-center-y="-1.1546712"
       transform="matrix(0.68853067,0,0,0.68853067,-12.715912,1039.479)"
       d="m -8.1905251,14.354102 -11.6189499,0 L -14,4.2917962 z"
       inkscape:randomized="0"
       inkscape:rounded="0"
       inkscape:flatsided="true"
       sodipodi:arg2="1.5707963"
       sodipodi:arg1="0.52359878"
       sodipodi:r2="3.3541019"
       sodipodi:r1="6.7082038"
       sodipodi:cy="11"
       sodipodi:cx="-14"
       sodipodi:sides="3"
       id="path4429"
       style="fill:#444444;fill-opacity:1;stroke:none"
       sodipodi:type="star" />
    <path
       style="fill:none;stroke:#ff0606;stroke-width:0.1;stroke-linecap:butt;stroke-miterlimit:4;stroke-opacity:1;stroke-dasharray:none"
       d="m -19.355341,1051.3622 -7,-17"
       id="path4431"
       inkscape:connector-curvature="0"
       sodipodi:nodetypes="cc" />
    <path
       sodipodi:nodetypes="cccc"
       inkscape:connector-curvature="0"
       id="path4433"
       d="m -33.92621,1041.7902 -5.5,2 1.070869,-7.928 z"
       inkscape:transform-center-y="-0.30913408"
       inkscape:transform-center-x="-0.87660313"
       style="fill:#ff00ff;fill-opacity:1;stroke:none" />
    <path
       sodipodi:nodetypes="cccc"
       inkscape:connector-curvature="0"
       id="path4435"
       d="m -31.167302,1045.8649 4.574524,-1.8652 -2.4,-4.8794 z"
       style="fill:#444444;fill-opacity:1;stroke:#444444;stroke-width:0.80000001;stroke-linecap:round;stroke-linejoin:round;stroke-opacity:1" />
    <path
       inkscape:connector-curvature="0"
       id="path4437"
       d="m -26.592778,1045.1135 -2,3"
       style="fill:#444444;fill-opacity:1;stroke:#444444;stroke-width:1.5;stroke-linecap:round;stroke-miterlimit:4;stroke-opacity:1;stroke-dasharray:none" />
    <path
       style="fill:#444444;fill-opacity:1;stroke:#444444;stroke-width:1.5;stroke-linecap:round;stroke-miterlimit:4;stroke-opacity:1;stroke-dasharray:none"
       d="m -16.369205,1042.8319 -3.415494,-1.1554"
       id="path4439"
       inkscape:connector-curvature="0" />
    <path
       id="path4441"
       d="m -20.622662,1030.9289 c -0.9695,0 -1.75,0.7805 -1.75,1.75 0,0.9695 0.7805,1.75 1.75,1.75 0.9695,0 1.75,-0.7805 1.75,-1.75 0,-0.9695 -0.7805,-1.75 -1.75,-1.75 z"
       style="color:#000000;fill:#444444;fill-opacity:1;fill-rule:nonzero;stroke:none;stroke-width:2;marker:none;visibility:visible;display:inline;overflow:visible;enable-background:accumulate"
       inkscape:connector-curvature="0" />
    <path
       style="fill:#444444;fill-opacity:1;stroke:#444444;stroke-width:0.80000001;stroke-linecap:round;stroke-linejoin:round;stroke-opacity:1"
       d="m -20.472312,1040.8709 4.309359,-1.6 -2.709359,-4.4374 z"
       id="path4443"
       inkscape:connector-curvature="0"
       sodipodi:nodetypes="cccc" />
    <path
       sodipodi:nodetypes="cccc"
       inkscape:connector-curvature="0"
       id="path4471"
       d="m 8.003539,1041.3455 2.019888,-0.4474 -2.0281242,-1.5194 z"
       style="fill:#ffffff;fill-opacity:1;stroke:none" />
    <path
       style="fill:#444444;fill-opacity:1;stroke:#444444;stroke-width:1.5;stroke-linecap:round;stroke-miterlimit:4;stroke-opacity:1;stroke-dasharray:none"
       d="m 34.717962,1031.8115 -3.415494,-1.1554"
       id="path4473"
       inkscape:connector-curvature="0" />
    <path
       id="path4475"
       d="m 29.943978,1019.7416 c -0.9695,0 -1.75,0.7805 -1.75,1.75 0,0.9695 0.7805,1.75 1.75,1.75 0.9695,0 1.75,-0.7805 1.75,-1.75 0,-0.9695 -0.7805,-1.75 -1.75,-1.75 z"
       style="color:#000000;fill:#444444;fill-opacity:1;fill-rule:nonzero;stroke:none;stroke-width:2;marker:none;visibility:visible;display:inline;overflow:visible;enable-background:accumulate"
       inkscape:connector-curvature="0" />
    <path
       style="fill:#444444;fill-opacity:1;stroke:#444444;stroke-width:0.69030917;stroke-linecap:round;stroke-linejoin:round;stroke-opacity:1"
       d="m 29.945733,1028.7383 3.718487,-1.3806 -2.337869,-3.8289 z"
       id="path4477"
       inkscape:connector-curvature="0"
       sodipodi:nodetypes="cccc" />
    <path
       sodipodi:nodetypes="cccc"
       inkscape:connector-curvature="0"
       id="path4479"
       d="m 12.595978,1041.579 8.739934,-3.5713 -5.68903,-3.224 z"
       style="fill:#444444;fill-opacity:1;stroke:#444444;stroke-width:0.73002249;stroke-linecap:round;stroke-linejoin:round;stroke-opacity:1" />
    <path
       style="fill:#ffffff;fill-opacity:1;stroke:none"
       d="m 15.973889,1036.3947 -0.976362,2.5916 2.064809,-0.6433 z"
       id="path4481"
       inkscape:connector-curvature="0"
       sodipodi:nodetypes="cccc" />
  </g>
</svg>
