<?xml version="1.0" encoding="UTF-8" standalone="no"?>
<!-- Created with Inkscape (http://www.inkscape.org/) -->

<svg
   xmlns:dc="http://purl.org/dc/elements/1.1/"
   xmlns:cc="http://creativecommons.org/ns#"
   xmlns:rdf="http://www.w3.org/1999/02/22-rdf-syntax-ns#"
   xmlns:svg="http://www.w3.org/2000/svg"
   xmlns="http://www.w3.org/2000/svg"
   xmlns:inkscape="http://www.inkscape.org/namespaces/inkscape"
   version="1.1"
   width="18"
   height="18"
   id="svg4619">
  <defs
     id="defs4621" />
  <metadata
     id="metadata4624">
    <rdf:RDF>
      <cc:Work
         rdf:about="">
        <dc:format>image/svg+xml</dc:format>
        <dc:type
           rdf:resource="http://purl.org/dc/dcmitype/StillImage" />
        <dc:title />
      </cc:Work>
    </rdf:RDF>
  </metadata>
  <g
     transform="translate(0,-1034.3622)"
     id="layer1">
    <g
       transform="translate(-420,-88.000003)"
       id="police-18"
       style="display:inline">
      <g
         transform="translate(-2,0)"
         id="g21530">
        <path
           d="m 430,1124.8622 -1,0.5 0,1 5,0 0,-1 -1,-0.5 z m -1,2.5 c -0.0333,0.1627 0,0.3274 0,0.5 0,1.3807 1.11931,2.5 2.5,2.5 1.38069,0 2.5,-1.1193 2.5,-2.5 0,-0.1726 0,-0.5 0,-0.5 z m 0,4 c -1.08333,0 -1.98585,1.7917 -2,2.875 l 0,4.125 1.53125,0 4.46875,-7 z m 5.5,0 -4.46875,7 5.96875,0 0,-4.125 c 0,-1.0834 -0.41666,-2.875 -1.5,-2.875 z"
           inkscape:connector-curvature="0"
           id="path15835"
           style="opacity:0.3;color:#000000;fill:#ffffff;fill-opacity:1;fill-rule:nonzero;stroke:#ffffff;stroke-width:2;stroke-linecap:round;stroke-linejoin:round;stroke-miterlimit:4;stroke-opacity:1;stroke-dasharray:none;stroke-dashoffset:0;marker:none;visibility:visible;display:inline;overflow:visible;enable-background:accumulate" />
        <path
           d="m 430,1124.8622 -1,0.5 0,1 5,0 0,-1 -1,-0.5 z m -1,2.5 c -0.0333,0.1627 0,0.3274 0,0.5 0,1.3807 1.11931,2.5 2.5,2.5 1.38069,0 2.5,-1.1193 2.5,-2.5 0,-0.1726 0,-0.5 0,-0.5 z m 0,4 c -1.08333,0 -1.98585,1.7917 -2,2.875 l 0,4.125 1.53125,0 4.46875,-7 z m 5.5,0 -4.46875,7 5.96875,0 0,-4.125 c 0,-1.0834 -0.41666,-2.875 -1.5,-2.875 z"
           inkscape:connector-curvature="0"
           id="rect7805-5-4"
           style="color:#000000;fill:#444444;fill-opacity:1;stroke:none;stroke-width:2;marker:none;visibility:visible;display:inline;overflow:visible;enable-background:accumulate" />
      </g>
    </g>
  </g>
  <rect
     width="18"
     height="18"
     x="0"
     y="0"
     id="canvas"
     style="fill:none;stroke:none;visibility:hidden" />
</svg>
