<?xml version="1.0" encoding="UTF-8" standalone="no"?>
<!-- Created with Inkscape (http://www.inkscape.org/) -->

<svg
   xmlns:dc="http://purl.org/dc/elements/1.1/"
   xmlns:cc="http://creativecommons.org/ns#"
   xmlns:rdf="http://www.w3.org/1999/02/22-rdf-syntax-ns#"
   xmlns:svg="http://www.w3.org/2000/svg"
   xmlns="http://www.w3.org/2000/svg"
   xmlns:inkscape="http://www.inkscape.org/namespaces/inkscape"
   version="1.1"
   width="12"
   height="12"
   id="svg4764">
  <defs
     id="defs4766" />
  <metadata
     id="metadata4769">
    <rdf:RDF>
      <cc:Work
         rdf:about="">
        <dc:format>image/svg+xml</dc:format>
        <dc:type
           rdf:resource="http://purl.org/dc/dcmitype/StillImage" />
        <dc:title />
      </cc:Work>
    </rdf:RDF>
  </metadata>
  <g
     transform="translate(0,-1040.3622)"
     id="layer1">
    <g
       transform="translate(-438,-81.999989)"
       id="police-12"
       style="display:inline">
      <g
         transform="translate(-1,0)"
         id="g21526">
        <path
           d="m 444,1124.3622 3,0 0,-1 -3,0 z m 0,0.75 c 0,0.9665 0.53351,1.75 1.5,1.75 0.96649,0 1.5,-0.7835 1.5,-1.75 l 0,-0.25 -3,0 z m -1,2.25 c -0.5,0 -1,1.5 -1,2 l 0,3 1.59375,0 3.40625,-5 z m 5,0 -3.40625,5 4.40625,0 0,-3 c 0,-0.5 -0.5,-2 -1,-2 z"
           inkscape:connector-curvature="0"
           id="rect7805-5-1"
           style="opacity:0.3;color:#000000;fill:#ffffff;fill-opacity:1;fill-rule:nonzero;stroke:#ffffff;stroke-width:2;stroke-linecap:round;stroke-linejoin:round;stroke-miterlimit:4;stroke-opacity:1;stroke-dasharray:none;stroke-dashoffset:0;marker:none;visibility:visible;display:inline;overflow:visible;enable-background:accumulate" />
        <path
           d="m 444,1124.3622 3,0 0,-1 -3,0 z m 0,0.75 c 0,0.9665 0.53351,1.75 1.5,1.75 0.96649,0 1.5,-0.7835 1.5,-1.75 l 0,-0.25 -3,0 z m -1,2.25 c -0.5,0 -1,1.5 -1,2 l 0,3 1.59375,0 3.40625,-5 z m 5,0 -3.40625,5 4.40625,0 0,-3 c 0,-0.5 -0.5,-2 -1,-2 z"
           inkscape:connector-curvature="0"
           id="path5442"
           style="color:#000000;fill:#444444;fill-opacity:1;stroke:none;stroke-width:2;marker:none;visibility:visible;display:inline;overflow:visible;enable-background:accumulate" />
      </g>
    </g>
  </g>
  <rect
     width="12"
     height="12"
     x="0"
     y="0"
     id="canvas"
     style="fill:none;stroke:none;visibility:hidden" />
</svg>
