<?xml version="1.0" encoding="UTF-8" standalone="no"?>
<!-- Created with Inkscape (http://www.inkscape.org/) -->

<svg
   xmlns:dc="http://purl.org/dc/elements/1.1/"
   xmlns:cc="http://creativecommons.org/ns#"
   xmlns:rdf="http://www.w3.org/1999/02/22-rdf-syntax-ns#"
   xmlns:svg="http://www.w3.org/2000/svg"
   xmlns="http://www.w3.org/2000/svg"
   xmlns:inkscape="http://www.inkscape.org/namespaces/inkscape"
   version="1.1"
   width="24"
   height="24"
   id="svg4460">
  <defs
     id="defs4462" />
  <metadata
     id="metadata4465">
    <rdf:RDF>
      <cc:Work
         rdf:about="">
        <dc:format>image/svg+xml</dc:format>
        <dc:type
           rdf:resource="http://purl.org/dc/dcmitype/StillImage" />
        <dc:title />
      </cc:Work>
    </rdf:RDF>
  </metadata>
  <g
     transform="translate(0,-1028.3622)"
     id="layer1">
    <g
       transform="translate(-396,-94.000003)"
       id="police-24"
       style="display:inline">
      <g
         transform="translate(-1,0)"
         id="g16710">
        <path
           d="m 407,1125.3622 -1,1 0,1 7,0 0,-1 -1,-1 z m -1,3 0,0.5 c 0,1.933 1.56702,3.5 3.5,3.5 1.93298,0 3.5,-1.567 3.5,-3.5 l 0,-0.5 z m 1.1875,15 8.8125,0 0,-6 c 0,-1.5 -0.5,-4 -2,-4 l -1.5,0 -7.5,0 c -1.5,0 -2,2.5 -2,4 l 0,6 2.6875,0 z"
           inkscape:connector-curvature="0"
           id="path7849"
           style="opacity:0.3;color:#000000;fill:#ffffff;stroke:#ffffff;stroke-width:2;stroke-linecap:round;stroke-linejoin:round;stroke-miterlimit:4;stroke-opacity:1;stroke-dasharray:none;stroke-dashoffset:0;marker:none;visibility:visible;display:inline;overflow:visible;enable-background:accumulate" />
        <path
           d="m 407,1125.3622 -1,1 0,1 7,0 0,-1 -1,-1 -5,0 z m -1,3 0,0.5 c 0,1.933 1.56702,3.5 3.5,3.5 1.93298,0 3.5,-1.567 3.5,-3.5 l 0,-0.5 -7,0 z m -1,5 c -1.5,0 -2,2.5 -2,4 l 0,6 2.6875,0 6.8125,-10 -7.5,0 z m 9,0 -6.8125,10 8.8125,0 0,-6 c 0,-1.5 -0.5,-4 -2,-4 z"
           inkscape:connector-curvature="0"
           id="rect7805-5"
           style="color:#000000;fill:#444444;fill-opacity:1;stroke:none;stroke-width:2;marker:none;visibility:visible;display:inline;overflow:visible;enable-background:accumulate" />
      </g>
    </g>
  </g>
  <rect
     width="24"
     height="24"
     x="0"
     y="0"
     id="canvas"
     style="fill:none;stroke:none;visibility:hidden" />
</svg>
