<?xml version="1.0" encoding="UTF-8" standalone="no"?>
<!-- Created with Inkscape (http://www.inkscape.org/) -->

<svg
   xmlns:dc="http://purl.org/dc/elements/1.1/"
   xmlns:cc="http://creativecommons.org/ns#"
   xmlns:rdf="http://www.w3.org/1999/02/22-rdf-syntax-ns#"
   xmlns:svg="http://www.w3.org/2000/svg"
   xmlns="http://www.w3.org/2000/svg"
   xmlns:sodipodi="http://sodipodi.sourceforge.net/DTD/sodipodi-0.dtd"
   xmlns:inkscape="http://www.inkscape.org/namespaces/inkscape"
   width="18"
   height="18"
   id="svg4619"
   version="1.1"
   inkscape:version="0.48.2 r9819"
   sodipodi:docname="polling-place-18.svg">
  <defs
     id="defs4621" />
  <sodipodi:namedview
     id="base"
     pagecolor="#ffffff"
     bordercolor="#666666"
     borderopacity="1.0"
     inkscape:pageopacity="0.0"
     inkscape:pageshadow="2"
     inkscape:zoom="16"
     inkscape:cx="15.097767"
     inkscape:cy="15.071249"
     inkscape:document-units="px"
     inkscape:current-layer="layer1"
     showgrid="true"
     showguides="false"
     inkscape:guide-bbox="true"
     inkscape:window-width="1194"
     inkscape:window-height="859"
     inkscape:window-x="126"
     inkscape:window-y="66"
     inkscape:window-maximized="0"
     inkscape:snap-to-guides="true"
     inkscape:snap-grids="true">
    <inkscape:grid
       type="xygrid"
       id="grid4627"
       empspacing="2"
       visible="true"
       enabled="true"
       snapvisiblegridlinesonly="true"
       color="#ff00ff"
       opacity="0.1254902"
       empcolor="#ff00ff"
       empopacity="0.33333333" />
    <sodipodi:guide
       orientation="0,1"
       position="7,18"
       id="guide4659" />
    <sodipodi:guide
       orientation="1,0"
       position="18,9"
       id="guide4661" />
    <sodipodi:guide
       orientation="0,1"
       position="16,17"
       id="guide4663" />
    <sodipodi:guide
       orientation="1,0"
       position="17,14"
       id="guide4665" />
    <sodipodi:guide
       orientation="1,0"
       position="0,16"
       id="guide4667" />
    <sodipodi:guide
       orientation="0,1"
       position="8,0"
       id="guide4669" />
    <sodipodi:guide
       orientation="1,0"
       position="2,10"
       id="guide4671" />
    <sodipodi:guide
       orientation="0,1"
       position="12,2"
       id="guide4673" />
    <sodipodi:guide
       orientation="1,0"
       position="3,14.5"
       id="guide3010" />
    <sodipodi:guide
       orientation="0,1"
       position="6,16"
       id="guide3012" />
    <sodipodi:guide
       orientation="1,0"
       position="16,11.5"
       id="guide3014" />
    <sodipodi:guide
       orientation="0,1"
       position="4.5,3"
       id="guide3016" />
  </sodipodi:namedview>
  <metadata
     id="metadata4624">
    <rdf:RDF>
      <cc:Work
         rdf:about="">
        <dc:format>image/svg+xml</dc:format>
        <dc:type
           rdf:resource="http://purl.org/dc/dcmitype/StillImage" />
        <dc:title></dc:title>
      </cc:Work>
    </rdf:RDF>
  </metadata>
  <g
     inkscape:groupmode="layer"
     id="layer2"
     inkscape:label="original"
     style="display:none">
    <path
       sodipodi:nodetypes="sssssssssccccc"
       inkscape:connector-curvature="0"
       style="color:#000000;fill:#444444;fill-opacity:1;stroke:none;stroke-width:2;marker:none;visibility:visible;display:inline;overflow:visible;enable-background:accumulate"
       d="m 3.9999999,3.2500006 c -0.4155,0 -0.75,0.3344999 -0.75,0.7499998 l 0,9.7499996 c 0,0.4155 0.3345,0.75 0.75,0.75 L 13.75,14.5 c 0.4155,0 0.75,-0.3345 0.75,-0.75 l 0,-9.7499996 c 0,-0.4154999 -0.3345,-0.7499998 -0.75,-0.7499998 z m 0.75,1.4999998 8.2500001,0 L 13,13 4.7499999,13 z"
       id="rect11284" />
    <rect
       style="fill:#ffffff;fill-opacity:1;stroke:none"
       id="rect3010"
       width="5.2292042"
       height="7.2472019"
       x="10.75"
       y="2.0027647"
       ry="0" />
    <path
       style="font-size:medium;font-style:normal;font-variant:normal;font-weight:normal;font-stretch:normal;text-indent:0;text-align:start;text-decoration:none;line-height:normal;letter-spacing:normal;word-spacing:normal;text-transform:none;direction:ltr;block-progression:tb;writing-mode:lr-tb;text-anchor:start;baseline-shift:baseline;color:#000000;fill:#444444;fill-opacity:1;stroke:none;stroke-width:3;marker:none;visibility:visible;display:inline;overflow:visible;enable-background:accumulate;font-family:Sans;-inkscape-font-specification:Sans"
       d="m 14.78125,2.4862006 c -0.292205,0.03525 -0.568134,0.190425 -0.75,0.4218 L 9.25,8.6267504 7.8671874,7.0096004 c -0.3680977,-0.499575 -1.1796894,-0.588 -1.6466962,-0.179325 -0.4670068,0.4086 -0.4871177,1.22475 -0.040804,1.655925 l 2.2417136,2.6498246 c 0.427511,0.48705 1.296818,0.4752 1.7109372,-0.02325 l 5.633287,-6.7748246 c 0.293554,-0.340875 0.352048,-0.8651248 0.140859,-1.2623248 -0.211189,-0.3972 -0.678453,-0.641925 -1.125234,-0.5892 z"
       id="path3846"
       inkscape:connector-curvature="0"
       sodipodi:nodetypes="ccccsccccscc" />
    <path
       id="path3030"
       d="m 3.9999999,3.2500006 c -0.4155,0 -0.75,0.3344999 -0.75,0.7499998 l 0,9.7499996 c 0,0.4155 0.3345,0.75 0.75,0.75 L 13.75,14.5 c 0.4155,0 0.75,-0.3345 0.75,-0.75 l 0,-9.7499996 c 0,-0.4154999 -0.3345,-0.7499998 -0.75,-0.7499998 z m 0.75,1.4999998 8.2500001,0 L 13,13 4.7499999,13 z"
       style="color:#000000;fill:#444444;fill-opacity:1;stroke:none;stroke-width:2;marker:none;visibility:visible;display:inline;overflow:visible;enable-background:accumulate"
       inkscape:connector-curvature="0"
       sodipodi:nodetypes="sssssssssccccc" />
    <rect
       ry="0"
       y="2.0027647"
       x="10.75"
       height="7.2472019"
       width="5.2292042"
       id="rect3032"
       style="fill:#ffffff;fill-opacity:1;stroke:none" />
    <path
       sodipodi:nodetypes="ccccsccccscc"
       inkscape:connector-curvature="0"
       id="path3034"
       d="m 14.78125,2.4862006 c -0.292205,0.03525 -0.568134,0.190425 -0.75,0.4218 L 9.25,8.6267504 7.8671874,7.0096004 c -0.3680977,-0.499575 -1.1796894,-0.588 -1.6466962,-0.179325 -0.4670068,0.4086 -0.4871177,1.22475 -0.040804,1.655925 l 2.2417136,2.6498246 c 0.427511,0.48705 1.296818,0.4752 1.7109372,-0.02325 l 5.633287,-6.7748246 c 0.293554,-0.340875 0.352048,-0.8651248 0.140859,-1.2623248 -0.211189,-0.3972 -0.678453,-0.641925 -1.125234,-0.5892 z"
       style="font-size:medium;font-style:normal;font-variant:normal;font-weight:normal;font-stretch:normal;text-indent:0;text-align:start;text-decoration:none;line-height:normal;letter-spacing:normal;word-spacing:normal;text-transform:none;direction:ltr;block-progression:tb;writing-mode:lr-tb;text-anchor:start;baseline-shift:baseline;color:#000000;fill:#444444;fill-opacity:1;stroke:none;stroke-width:3;marker:none;visibility:visible;display:inline;overflow:visible;enable-background:accumulate;font-family:Sans;-inkscape-font-specification:Sans" />
  </g>
  <g
     inkscape:label="Layer 1"
     inkscape:groupmode="layer"
     id="layer1"
     transform="translate(0,-1034.3622)"
     style="display:inline">
    <path
       sodipodi:nodetypes="scsssssssccccc"
       inkscape:connector-curvature="0"
       style="color:#000000;fill:#444444;fill-opacity:1;stroke:none;stroke-width:2;marker:none;visibility:visible;display:inline;overflow:visible;enable-background:accumulate"
       d="m 4,1008.3622 c -0.5,0 -1,0.5 -1,1 l 0,9 c 0,0.5 0.5,1 1,1 l 9,0 c 0.5,0 1,-0.5312 1,-1 l 5e-6,-9.2187 c 0,-0.4155 -0.334502,-0.7486 -0.75,-0.75 z m 0.5,1.5 8,0 0,8 -8,0 z"
       id="path3190" />
    <path
       id="path3967"
       d="m 5.0000002,979.3622 c -0.5,0 -1,0.5 -1,1 l 0,9 c 0,0.5 0.5,1 1,1 l 8.9999998,0 c 0.5,0 1,-0.5312 1,-1 l 5e-6,-9.2187 c 0,-0.4155 -0.334502,-0.7486 -0.75,-0.75 z m 0,1 8.9999998,0 0,9 -8.9999998,0 z"
       style="color:#000000;fill:#444444;fill-opacity:1;stroke:none;stroke-width:2;marker:none;visibility:visible;display:inline;overflow:visible;enable-background:accumulate"
       inkscape:connector-curvature="0"
       sodipodi:nodetypes="scsssssssccccc" />
    <rect
       ry="0"
       y="977.85535"
       x="11"
       height="6.5068617"
       width="6.1120157"
       id="rect3969"
       style="fill:#ffffff;fill-opacity:1;stroke:none;display:inline" />
    <path
       inkscape:connector-curvature="0"
       id="path3971"
       d="m 7.0000002,983.3622 2.5,3 5.4999998,-7"
       style="fill:none;stroke:#444444;stroke-width:2;stroke-linecap:round;stroke-linejoin:round;stroke-miterlimit:4;stroke-opacity:1;stroke-dasharray:none" />
    <path
       sodipodi:nodetypes="scsssssssccccc"
       inkscape:connector-curvature="0"
       style="color:#000000;fill:#444444;fill-opacity:1;stroke:none;stroke-width:2;marker:none;visibility:visible;display:inline;overflow:visible;enable-background:accumulate"
       d="m 57.033009,1021.3622 c -0.5,0 -1,0.5 -1,1 l 0,9 c 0,0.5 0.5,1 1,1 l 9,0 c 0.5,0 1,-0.5312 1,-1 l 5e-6,-9.2187 c 0,-0.4155 -0.334502,-0.7486 -0.75,-0.75 z m 1,2 7,0 0,7 -7,0 z"
       id="path3985" />
    <rect
       style="fill:#ffffff;fill-opacity:1;stroke:none;display:inline"
       id="rect3987"
       width="7"
       height="8.4999981"
       x="63.033009"
       y="1019.8622"
       ry="0" />
    <path
       sodipodi:nodetypes="ccc"
       style="fill:none;stroke:#444444;stroke-width:2;stroke-linecap:round;stroke-linejoin:round;stroke-miterlimit:4;stroke-opacity:1;stroke-dasharray:none"
       d="m 60.033009,1026.3622 2,2 5,-6"
       id="path3989"
       inkscape:connector-curvature="0" />
    <path
       sodipodi:nodetypes="scsssssssccccc"
       inkscape:connector-curvature="0"
       style="color:#000000;fill:#444444;fill-opacity:1;stroke:none;stroke-width:2;marker:none;visibility:visible;display:inline;overflow:visible;enable-background:accumulate"
       d="m 4,1063.2877 c -0.5,0 -1,0.5 -1,1 l 0,9 c 0,0.5 0.5,1 1,1 l 9,0 c 0.5,0 1,-0.5312 1,-1 l 5e-6,-9.2187 c 0,-0.4155 -0.334502,-0.7486 -0.75,-0.75 z m 1,2 7,0 0,7 -7,0 z"
       id="path3991" />
    <rect
       style="fill:#ffffff;fill-opacity:1;stroke:none;display:inline"
       id="rect3993"
       width="7"
       height="8.4999981"
       x="10"
       y="1061.7877"
       ry="0" />
    <path
       sodipodi:nodetypes="ccc"
       style="fill:none;stroke:#444444;stroke-width:2;stroke-linecap:round;stroke-linejoin:round;stroke-miterlimit:4;stroke-opacity:1;stroke-dasharray:none"
       d="m 7,1068.2877 2,2 6,-7"
       id="path3995"
       inkscape:connector-curvature="0" />
    <path
       id="path3997"
       d="m 95,1021.3622 c -0.5,0 -1,0.5 -1,1 l 0,9 c 0,0.5 0.5,1 1,1 l 9,0 c 0.5,0 1,-0.5312 1,-1 l 1e-5,-9.2187 c 0,-0.4155 -0.33451,-0.7486 -0.75,-0.75 z m 1,2 7,0 0,7 -7,0 z"
       style="color:#000000;fill:#444444;fill-opacity:1;stroke:none;stroke-width:2;marker:none;visibility:visible;display:inline;overflow:visible;enable-background:accumulate"
       inkscape:connector-curvature="0"
       sodipodi:nodetypes="scsssssssccccc" />
    <rect
       ry="0"
       y="1019.8622"
       x="101"
       height="8.4999981"
       width="7"
       id="rect3999"
       style="fill:#ffffff;fill-opacity:1;stroke:none;display:inline" />
    <path
       inkscape:connector-curvature="0"
       id="path4001"
       d="m 98,1026.3622 2,2 6,-7"
       style="fill:none;stroke:#444444;stroke-width:2;stroke-linecap:round;stroke-linejoin:round;stroke-miterlimit:4;stroke-opacity:1;stroke-dasharray:none"
       sodipodi:nodetypes="ccc" />
    <path
       id="path4007"
       d="m 5,1037.3622 c -0.5,0 -1,0.5 -1,1 l 0,9 c 0,0.5 0.5,1 1,1 l 9,0 c 0.5,0 1,-0.5312 1,-1 l 5e-6,-9.2187 c 0,-0.4155 -0.334502,-0.7486 -0.75,-0.75 z m 1,2 7,0 0,7 -7,0 z"
       style="color:#000000;fill:#444444;fill-opacity:1;stroke:none;stroke-width:2;marker:none;visibility:visible;display:inline;overflow:visible;enable-background:accumulate"
       inkscape:connector-curvature="0"
       sodipodi:nodetypes="scsssssssccccc" />
    <rect
       ry="0"
       y="1035.8622"
       x="11"
       height="8.4999981"
       width="7"
       id="rect4009"
       style="fill:#ffffff;fill-opacity:1;stroke:none;display:inline" />
    <path
       inkscape:connector-curvature="0"
       id="path4011"
       d="m 8,1042.3622 2,2 5,-6"
       style="fill:none;stroke:#444444;stroke-width:2;stroke-linecap:round;stroke-linejoin:round;stroke-miterlimit:4;stroke-opacity:1;stroke-dasharray:none"
       sodipodi:nodetypes="ccc" />
  </g>
</svg>
