<?xml version="1.0" encoding="UTF-8" standalone="no"?>
<!-- Created with Inkscape (http://www.inkscape.org/) -->

<svg
   xmlns:dc="http://purl.org/dc/elements/1.1/"
   xmlns:cc="http://creativecommons.org/ns#"
   xmlns:rdf="http://www.w3.org/1999/02/22-rdf-syntax-ns#"
   xmlns:svg="http://www.w3.org/2000/svg"
   xmlns="http://www.w3.org/2000/svg"
   xmlns:sodipodi="http://sodipodi.sourceforge.net/DTD/sodipodi-0.dtd"
   xmlns:inkscape="http://www.inkscape.org/namespaces/inkscape"
   width="12"
   height="12"
   id="svg4764"
   version="1.1"
   inkscape:version="0.48.2 r9819"
   sodipodi:docname="polling-place-12.svg">
  <defs
     id="defs4766" />
  <sodipodi:namedview
     id="base"
     pagecolor="#ffffff"
     bordercolor="#666666"
     borderopacity="1.0"
     inkscape:pageopacity="0.0"
     inkscape:pageshadow="2"
     inkscape:zoom="32"
     inkscape:cx="7.3197649"
     inkscape:cy="8.3543808"
     inkscape:document-units="px"
     inkscape:current-layer="layer1"
     showgrid="true"
     showguides="true"
     inkscape:guide-bbox="true"
     inkscape:window-width="1354"
     inkscape:window-height="907"
     inkscape:window-x="397"
     inkscape:window-y="127"
     inkscape:window-maximized="0"
     inkscape:snap-grids="true"
     inkscape:snap-to-guides="true">
    <inkscape:grid
       type="xygrid"
       id="grid4772"
       empspacing="2"
       visible="true"
       enabled="true"
       snapvisiblegridlinesonly="true"
       color="#ff00ff"
       opacity="0.1254902"
       empcolor="#ff00ff"
       empopacity="0.25098039" />
    <sodipodi:guide
       orientation="0,1"
       position="2,12"
       id="guide4789" />
    <sodipodi:guide
       orientation="1,0"
       position="12,10"
       id="guide4791" />
    <sodipodi:guide
       orientation="0,1"
       position="10,0"
       id="guide4793" />
    <sodipodi:guide
       orientation="1,0"
       position="0,9"
       id="guide4795" />
    <sodipodi:guide
       orientation="0,1"
       position="5,11"
       id="guide4797" />
    <sodipodi:guide
       orientation="1,0"
       position="11,7"
       id="guide4799" />
    <sodipodi:guide
       orientation="0,1"
       position="9,2"
       id="guide4801" />
    <sodipodi:guide
       orientation="1,0"
       position="2,5"
       id="guide4803" />
  </sodipodi:namedview>
  <metadata
     id="metadata4769">
    <rdf:RDF>
      <cc:Work
         rdf:about="">
        <dc:format>image/svg+xml</dc:format>
        <dc:type
           rdf:resource="http://purl.org/dc/dcmitype/StillImage" />
        <dc:title></dc:title>
      </cc:Work>
    </rdf:RDF>
  </metadata>
  <g
     inkscape:groupmode="layer"
     id="layer2"
     inkscape:label="original"
     style="display:none">
    <path
       style="color:#000000;fill:#ff0000;fill-opacity:1;stroke:none;stroke-width:2;marker:none;visibility:visible;display:inline;overflow:visible;enable-background:accumulate"
       d="m 3,1.90625 c -0.277,0 -0.5,0.2229999 -0.5,0.5 l 0,6.5 c 0,0.277 0.223,0.5 0.5,0.5 l 6.5,0 c 0.277,0 0.5,-0.223 0.5,-0.5 l 0,-3 -1,0 0,2.5 -5.5,0 0,-5.5 4,0 0,-1 -4.5,0 z"
       id="rect11284-4"
       inkscape:connector-curvature="0" />
    <path
       style="font-size:medium;font-style:normal;font-variant:normal;font-weight:normal;font-stretch:normal;text-indent:0;text-align:start;text-decoration:none;line-height:normal;letter-spacing:normal;word-spacing:normal;text-transform:none;direction:ltr;block-progression:tb;writing-mode:lr-tb;text-anchor:start;baseline-shift:baseline;color:#000000;fill:#ff0000;fill-opacity:1;stroke:none;stroke-width:3;marker:none;visibility:visible;display:inline;overflow:visible;enable-background:accumulate;font-family:Sans;-inkscape-font-specification:Sans"
       d="M 10.1875,1.4063 C 9.992696,1.4298 9.808744,1.53325 9.6875,1.6875 L 6.5,5.5 5.578125,4.4219 C 5.332726,4.08885 4.791665,4.0299 4.480327,4.30235 4.16899,4.57475 4.155582,5.11885 4.453127,5.4063 l 1.494475,1.7665498 c 0.285008,0.3247 0.864546,0.3168 1.140625,-0.0155 L 10.843752,2.6408 C 11.039455,2.41355 11.07845,2.06405 10.937662,1.79925 10.796869,1.53445 10.48536,1.3713 10.187506,1.40645 z"
       id="path3846-0"
       inkscape:connector-curvature="0"
       sodipodi:nodetypes="ccccsccccscc" />
  </g>
  <g
     inkscape:label="Layer 1"
     inkscape:groupmode="layer"
     id="layer1"
     transform="translate(0,-1040.3622)"
     style="display:inline">
    <path
       sodipodi:nodetypes="sssssssssccccc"
       inkscape:connector-curvature="0"
       style="color:#000000;fill:#444444;fill-opacity:1;stroke:none;stroke-width:2;marker:none;visibility:visible;display:inline;overflow:visible;enable-background:accumulate"
       d="m -28.5,1042.3622 c -0.277,0 -0.5,0.223 -0.5,0.5 l 0,7 c 0,0.277 0.223,0.5 0.5,0.5 l 7,0 c 0.277,0 0.5,-0.223 0.5,-0.5 l 0,-7 c 0,-0.277 -0.223,-0.5 -0.5,-0.5 z m 0.5,1 6,0 0,6 -6,0 z"
       id="rect11284" />
    <rect
       style="fill:#ffffff;fill-opacity:1;stroke:none"
       id="rect3010"
       width="4"
       height="5.4999828"
       x="-24"
       y="1041.8622"
       ry="0" />
    <path
       style="font-size:medium;font-style:normal;font-variant:normal;font-weight:normal;font-stretch:normal;text-indent:0;text-align:start;text-decoration:none;line-height:normal;letter-spacing:normal;word-spacing:normal;text-transform:none;direction:ltr;block-progression:tb;writing-mode:lr-tb;text-anchor:start;baseline-shift:baseline;color:#000000;fill:#ffff00;fill-opacity:1;stroke:none;stroke-width:3;marker:none;visibility:visible;display:inline;overflow:visible;enable-background:accumulate;font-family:Sans;-inkscape-font-specification:Sans"
       d="m -1.4007259,1041.9189 c -0.194804,0.024 -0.3787561,0.1269 -0.5000001,0.2812 l -3.1875,3.8125 -0.921875,-1.0781 c -0.2453985,-0.3331 -0.7864597,-0.392 -1.0977975,-0.1196 -0.3113379,0.2724 -0.3247451,0.8165 -0.027202,1.104 l 1.4944755,1.7665 c 0.2850075,0.3247 0.8645455,0.3168 1.140625,-0.015 l 3.7555241,-4.5165 c 0.195703,-0.2273 0.234698,-0.5768 0.09391,-0.8416 -0.140793,-0.2648 -0.452302,-0.4279 -0.750156,-0.3928 z"
       id="path3846"
       inkscape:connector-curvature="0"
       sodipodi:nodetypes="ccccsccccscc" />
    <path
       style="font-size:medium;font-style:normal;font-variant:normal;font-weight:normal;font-stretch:normal;text-indent:0;text-align:start;text-decoration:none;line-height:normal;letter-spacing:normal;word-spacing:normal;text-transform:none;direction:ltr;block-progression:tb;writing-mode:lr-tb;text-anchor:start;baseline-shift:baseline;color:#000000;fill:#444444;fill-opacity:1;stroke:none;stroke-width:1.5;marker:none;visibility:visible;display:inline;overflow:visible;enable-background:accumulate;font-family:Sans;-inkscape-font-specification:Sans"
       d="m -21.5,1041.8622 -3,4.5 -1,-1 -1.5,0 0,0.5 2,2.5 1,0 3.5,-5.5 0,-1 z"
       id="path3057"
       inkscape:connector-curvature="0"
       sodipodi:nodetypes="cccccccccc" />
    <path
       id="path3827"
       d="m 2.5,1029.3622 c -0.277,0 -0.5,0.223 -0.5,0.5 l 0,7 c 0,0.277 0.223,0.5 0.5,0.5 l 7,0 c 0.277,0 0.5,-0.223 0.5,-0.5 l 0,-7 c 0,-0.277 -0.223,-0.5 -0.5,-0.5 z m 0.5,1 6,0 0,6 -6,0 z"
       style="color:#000000;fill:#444444;fill-opacity:1;stroke:none;stroke-width:2;marker:none;visibility:visible;display:inline;overflow:visible;enable-background:accumulate"
       inkscape:connector-curvature="0"
       sodipodi:nodetypes="sssssssssccccc" />
    <rect
       ry="0"
       y="1028.8622"
       x="7"
       height="4.5"
       width="4"
       id="rect3829"
       style="fill:#ffffff;fill-opacity:1;stroke:none" />
    <path
       sodipodi:nodetypes="ccc"
       inkscape:connector-curvature="0"
       id="path3831"
       d="m 4,1032.3622 2,2 4.5,-5"
       style="fill:none;stroke:#444444;stroke-width:1.5;stroke-miterlimit:4;stroke-opacity:1;stroke-dasharray:none" />
    <path
       id="path3837"
       d="m 2.5,1057.4766 c -0.277,0 -0.5,0.223 -0.5,0.5 l 0,7 c 0,0.277 0.223,0.5 0.5,0.5 l 7,0 c 0.277,0 0.5,-0.223 0.5,-0.5 l 0,-7 c 0,-0.277 -0.223,-0.5 -0.5,-0.5 z m 0.5,1 6,0 0,6 -6,0 z"
       style="color:#000000;fill:#444444;fill-opacity:1;stroke:none;stroke-width:2;marker:none;visibility:visible;display:inline;overflow:visible;enable-background:accumulate"
       inkscape:connector-curvature="0"
       sodipodi:nodetypes="sssssssssccccc" />
    <rect
       ry="0"
       y="1056.9766"
       x="7"
       height="4.5"
       width="4"
       id="rect3839"
       style="fill:#ffffff;fill-opacity:1;stroke:none" />
    <path
       sodipodi:nodetypes="ccccccc"
       inkscape:connector-curvature="0"
       id="path3841"
       d="m 10,1056.9766 -4,4.5 -1.5,-1.5 -1,1 c 0.8236405,0.8449 2.5,2.5 2.5,2.5 0,0 3.3355279,-3.6506 5,-5.5 z"
       style="font-size:medium;font-style:normal;font-variant:normal;font-weight:normal;font-stretch:normal;text-indent:0;text-align:start;text-decoration:none;line-height:normal;letter-spacing:normal;word-spacing:normal;text-transform:none;direction:ltr;block-progression:tb;writing-mode:lr-tb;text-anchor:start;baseline-shift:baseline;color:#000000;fill:#444444;fill-opacity:1;stroke:none;stroke-width:1.5;marker:none;visibility:visible;display:inline;overflow:visible;enable-background:accumulate;font-family:Sans;-inkscape-font-specification:Sans" />
    <path
       id="path3855"
       d="m 38.5,1042.3622 c -0.277,0 -0.5,0.223 -0.5,0.5 l 0,7 c 0,0.277 0.223,0.5 0.5,0.5 l 7,0 c 0.277,0 0.5,-0.223 0.5,-0.5 l 0,-7 c 0,-0.277 -0.223,-0.5 -0.5,-0.5 z m 0.5,1 6,0 0,6 -6,0 z"
       style="color:#000000;fill:#444444;fill-opacity:1;stroke:none;stroke-width:2;marker:none;visibility:visible;display:inline;overflow:visible;enable-background:accumulate"
       inkscape:connector-curvature="0"
       sodipodi:nodetypes="sssssssssccccc" />
    <rect
       ry="0"
       y="1041.8622"
       x="43"
       height="5.4999828"
       width="4"
       id="rect3857"
       style="fill:#ffffff;fill-opacity:1;stroke:none" />
    <path
       sodipodi:nodetypes="cccccccccc"
       inkscape:connector-curvature="0"
       id="path3859"
       d="m 45,1042.3622 -2.5,3.5 -1.5,-1.5 -1,0 -0.5,1 2.5,3 1,0 3.5,-5 -0.5,-1 z"
       style="font-size:medium;font-style:normal;font-variant:normal;font-weight:normal;font-stretch:normal;text-indent:0;text-align:start;text-decoration:none;line-height:normal;letter-spacing:normal;word-spacing:normal;text-transform:none;direction:ltr;block-progression:tb;writing-mode:lr-tb;text-anchor:start;baseline-shift:baseline;color:#000000;fill:#444444;fill-opacity:1;stroke:none;stroke-width:1.5;marker:none;visibility:visible;display:inline;overflow:visible;enable-background:accumulate;font-family:Sans;-inkscape-font-specification:Sans" />
    <path
       id="path3861"
       d="m 18.5,1042.3622 c -0.277,0 -0.5,0.223 -0.5,0.5 l 0,7 c 0,0.277 0.223,0.5 0.5,0.5 l 7,0 c 0.277,0 0.5,-0.223 0.5,-0.5 l 0,-7 c 0,-0.277 -0.223,-0.5 -0.5,-0.5 z m 0.5,1 6,0 0,6 -6,0 z"
       style="color:#000000;fill:#444444;fill-opacity:1;stroke:none;stroke-width:2;marker:none;visibility:visible;display:inline;overflow:visible;enable-background:accumulate"
       inkscape:connector-curvature="0"
       sodipodi:nodetypes="sssssssssccccc" />
    <rect
       ry="0"
       y="1041.8622"
       x="23"
       height="5.4999828"
       width="4"
       id="rect3863"
       style="fill:#ffffff;fill-opacity:1;stroke:none" />
    <path
       sodipodi:nodetypes="cccccccccc"
       inkscape:connector-curvature="0"
       id="path3865"
       d="m 25,1042.3622 -2.5,3.5 -1.5,-1.5 -1,0 -0.5,1 2.5,3 1,0 3.5,-5 -0.5,-1 z"
       style="font-size:medium;font-style:normal;font-variant:normal;font-weight:normal;font-stretch:normal;text-indent:0;text-align:start;text-decoration:none;line-height:normal;letter-spacing:normal;word-spacing:normal;text-transform:none;direction:ltr;block-progression:tb;writing-mode:lr-tb;text-anchor:start;baseline-shift:baseline;color:#000000;fill:#444444;fill-opacity:1;stroke:none;stroke-width:1.5;marker:none;visibility:visible;display:inline;overflow:visible;enable-background:accumulate;font-family:Sans;-inkscape-font-specification:Sans" />
    <path
       id="path3867"
       d="m 2.5,1012.3622 c -0.277,0 -0.5,0.223 -0.5,0.5 l 0,7 c 0,0.277 0.223,0.5 0.5,0.5 l 7,0 c 0.277,0 0.5,-0.223 0.5,-0.5 l 0,-7 c 0,-0.277 -0.223,-0.5 -0.5,-0.5 z m 0.5,1 6,0 0,6 -6,0 z"
       style="color:#000000;fill:#444444;fill-opacity:1;stroke:none;stroke-width:2;marker:none;visibility:visible;display:inline;overflow:visible;enable-background:accumulate"
       inkscape:connector-curvature="0"
       sodipodi:nodetypes="sssssssssccccc" />
    <rect
       ry="0"
       y="1011.8621"
       x="7"
       height="5.4999828"
       width="4"
       id="rect3869"
       style="fill:#ffffff;fill-opacity:1;stroke:none" />
    <path
       sodipodi:nodetypes="cccccccccc"
       inkscape:connector-curvature="0"
       id="path3871"
       d="m 9,1011.8622 -2.5,4 -1.5,-1.5 -1,0 -0.5,1 2.5,3 1,0 4,-6 -1,-1 z"
       style="font-size:medium;font-style:normal;font-variant:normal;font-weight:normal;font-stretch:normal;text-indent:0;text-align:start;text-decoration:none;line-height:normal;letter-spacing:normal;word-spacing:normal;text-transform:none;direction:ltr;block-progression:tb;writing-mode:lr-tb;text-anchor:start;baseline-shift:baseline;color:#000000;fill:#444444;fill-opacity:1;stroke:none;stroke-width:1.5;marker:none;visibility:visible;display:inline;overflow:visible;enable-background:accumulate;font-family:Sans;-inkscape-font-specification:Sans" />
    <path
       id="path3873"
       d="m 2.5,1072.3622 c -0.277,0 -0.5,0.223 -0.5,0.5 l 0,7 c 0,0.277 0.223,0.5 0.5,0.5 l 7,0 c 0.277,0 0.5,-0.223 0.5,-0.5 l 0,-7 c 0,-0.277 -0.223,-0.5 -0.5,-0.5 z m 0.5,1 6,0 0,6 -6,0 z"
       style="color:#000000;fill:#444444;fill-opacity:1;stroke:none;stroke-width:2;marker:none;visibility:visible;display:inline;overflow:visible;enable-background:accumulate"
       inkscape:connector-curvature="0"
       sodipodi:nodetypes="sssssssssccccc" />
    <rect
       ry="0"
       y="1071.8622"
       x="6"
       height="5.4999828"
       width="5"
       id="rect3875"
       style="fill:#ffffff;fill-opacity:1;stroke:none" />
    <path
       sodipodi:nodetypes="ccccccccc"
       inkscape:connector-curvature="0"
       id="path3877"
       d="m 9,1071.3622 -2.5,4 -0.5,0 0,-1 -2,0 1,4 2,0 4,-7 z"
       style="font-size:medium;font-style:normal;font-variant:normal;font-weight:normal;font-stretch:normal;text-indent:0;text-align:start;text-decoration:none;line-height:normal;letter-spacing:normal;word-spacing:normal;text-transform:none;direction:ltr;block-progression:tb;writing-mode:lr-tb;text-anchor:start;baseline-shift:baseline;color:#000000;fill:#444444;fill-opacity:1;stroke:none;stroke-width:1.5;marker:none;visibility:visible;display:inline;overflow:visible;enable-background:accumulate;font-family:Sans;-inkscape-font-specification:Sans" />
    <path
       id="path3879"
       d="m 2.5,1110.3622 c -0.277,0 -0.5,0.223 -0.5,0.5 l 0,7 c 0,0.277 0.223,0.5 0.5,0.5 l 7,0 c 0.277,0 0.5,-0.223 0.5,-0.5 l 0,-7 c 0,-0.277 -0.223,-0.5 -0.5,-0.5 z m 0.5,1 6,0 0,6 -6,0 z"
       style="color:#000000;fill:#444444;fill-opacity:1;stroke:none;stroke-width:2;marker:none;visibility:visible;display:inline;overflow:visible;enable-background:accumulate"
       inkscape:connector-curvature="0"
       sodipodi:nodetypes="sssssssssccccc" />
    <rect
       ry="0"
       y="1109.8622"
       x="7"
       height="5.4999828"
       width="4"
       id="rect3881"
       style="fill:#ffffff;fill-opacity:1;stroke:none" />
    <path
       sodipodi:nodetypes="cccccccccc"
       inkscape:connector-curvature="0"
       id="path3883"
       d="m 9.5,1109.8622 -3,4.5 -1,-1 -1.5,0 0,0.5 2,2.5 1,0 3.5,-5.5 0,-1 z"
       style="font-size:medium;font-style:normal;font-variant:normal;font-weight:normal;font-stretch:normal;text-indent:0;text-align:start;text-decoration:none;line-height:normal;letter-spacing:normal;word-spacing:normal;text-transform:none;direction:ltr;block-progression:tb;writing-mode:lr-tb;text-anchor:start;baseline-shift:baseline;color:#000000;fill:#444444;fill-opacity:1;stroke:none;stroke-width:1.5;marker:none;visibility:visible;display:inline;overflow:visible;enable-background:accumulate;font-family:Sans;-inkscape-font-specification:Sans" />
    <path
       sodipodi:nodetypes="sssssssssccccc"
       inkscape:connector-curvature="0"
       style="color:#000000;fill:#444444;fill-opacity:1;stroke:none;stroke-width:2;marker:none;visibility:visible;display:inline;overflow:visible;enable-background:accumulate"
       d="m 2.5,1096.3622 c -0.277,0 -0.5,0.223 -0.5,0.5 l 0,7 c 0,0.277 0.223,0.5 0.5,0.5 l 7,0 c 0.277,0 0.5,-0.223 0.5,-0.5 l 0,-7 c 0,-0.277 -0.223,-0.5 -0.5,-0.5 z m 0.5,1 6,0 0,6 -6,0 z"
       id="path3885" />
    <rect
       style="fill:#ffffff;fill-opacity:1;stroke:none"
       id="rect3887"
       width="4"
       height="5.4999828"
       x="7"
       y="1095.8622"
       ry="0" />
    <path
       style="font-size:medium;font-style:normal;font-variant:normal;font-weight:normal;font-stretch:normal;text-indent:0;text-align:start;text-decoration:none;line-height:normal;letter-spacing:normal;word-spacing:normal;text-transform:none;direction:ltr;block-progression:tb;writing-mode:lr-tb;text-anchor:start;baseline-shift:baseline;color:#000000;fill:#444444;fill-opacity:1;stroke:none;stroke-width:1.5;marker:none;visibility:visible;display:inline;overflow:visible;enable-background:accumulate;font-family:Sans;-inkscape-font-specification:Sans"
       d="m 9.5,1095.8622 -3,4.5 -1,-1 -1.5,0 0,1 2,2 1,0 4,-5.5 0,-1 z"
       id="path3889"
       inkscape:connector-curvature="0"
       sodipodi:nodetypes="cccccccccc" />
    <path
       id="path3918"
       d="m 2.5,1084.3622 c -0.277,0 -0.5,0.223 -0.5,0.5 l 0,7 c 0,0.277 0.223,0.5 0.5,0.5 l 7,0 c 0.277,0 0.5,-0.223 0.5,-0.5 l 0,-7 c 0,-0.277 -0.223,-0.5 -0.5,-0.5 z m 0.5,1 6,0 0,6 -6,0 z"
       style="color:#000000;fill:#444444;fill-opacity:1;stroke:none;stroke-width:2;marker:none;visibility:visible;display:inline;overflow:visible;enable-background:accumulate"
       inkscape:connector-curvature="0"
       sodipodi:nodetypes="sssssssssccccc" />
    <rect
       ry="0"
       y="1083.8622"
       x="7"
       height="5.4999828"
       width="4"
       id="rect3920"
       style="fill:#ffffff;fill-opacity:1;stroke:none" />
    <path
       sodipodi:nodetypes="cccccccccc"
       inkscape:connector-curvature="0"
       id="path3922"
       d="m 9.5,1084.3622 -3,4 -1,-1 -1.5,0 0,1 2,2 1,0 4,-5 0,-1 z"
       style="font-size:medium;font-style:normal;font-variant:normal;font-weight:normal;font-stretch:normal;text-indent:0;text-align:start;text-decoration:none;line-height:normal;letter-spacing:normal;word-spacing:normal;text-transform:none;direction:ltr;block-progression:tb;writing-mode:lr-tb;text-anchor:start;baseline-shift:baseline;color:#000000;fill:#444444;fill-opacity:1;stroke:none;stroke-width:1.5;marker:none;visibility:visible;display:inline;overflow:visible;enable-background:accumulate;font-family:Sans;-inkscape-font-specification:Sans" />
    <path
       sodipodi:nodetypes="sssssssssccccc"
       inkscape:connector-curvature="0"
       style="color:#000000;fill:#444444;fill-opacity:1;stroke:none;stroke-width:2;marker:none;visibility:visible;display:inline;overflow:visible;enable-background:accumulate"
       d="m 24.5,1084.3622 c -0.277,0 -0.5,0.223 -0.5,0.5 l 0,7 c 0,0.277 0.223,0.5 0.5,0.5 l 7,0 c 0.277,0 0.5,-0.223 0.5,-0.5 l 0,-7 c 0,-0.277 -0.223,-0.5 -0.5,-0.5 z m 0.5,1 6,0 0,6 -6,0 z"
       id="path3924" />
    <rect
       style="fill:#ffffff;fill-opacity:1;stroke:none"
       id="rect3926"
       width="4"
       height="5.4999828"
       x="29"
       y="1083.8622"
       ry="0" />
    <path
       style="font-size:medium;font-style:normal;font-variant:normal;font-weight:normal;font-stretch:normal;text-indent:0;text-align:start;text-decoration:none;line-height:normal;letter-spacing:normal;word-spacing:normal;text-transform:none;direction:ltr;block-progression:tb;writing-mode:lr-tb;text-anchor:start;baseline-shift:baseline;color:#000000;fill:#444444;fill-opacity:1;stroke:none;stroke-width:1.5;marker:none;visibility:visible;display:inline;overflow:visible;enable-background:accumulate;font-family:Sans;-inkscape-font-specification:Sans"
       d="m 31.5,1084.3622 -3,4 -1,-1 -1.5,0 0,1 2,2 1,0 4,-5 0,-1 z"
       id="path3928"
       inkscape:connector-curvature="0"
       sodipodi:nodetypes="cccccccccc" />
    <path
       id="path3930"
       d="m 24.5,1097.3622 c -0.277,0 -0.5,0.223 -0.5,0.5 l 0,7 c 0,0.277 0.223,0.5 0.5,0.5 l 7,0 c 0.277,0 0.5,-0.223 0.5,-0.5 l 0,-7 c 0,-0.277 -0.223,-0.5 -0.5,-0.5 z m 0.5,1 6,0 0,6 -6,0 z"
       style="color:#000000;fill:#444444;fill-opacity:1;stroke:none;stroke-width:2;marker:none;visibility:visible;display:inline;overflow:visible;enable-background:accumulate"
       inkscape:connector-curvature="0"
       sodipodi:nodetypes="sssssssssccccc" />
    <rect
       ry="0"
       y="1096.8622"
       x="29"
       height="5.4999828"
       width="4"
       id="rect3932"
       style="fill:#ffffff;fill-opacity:1;stroke:none" />
    <path
       sodipodi:nodetypes="ccccccccc"
       inkscape:connector-curvature="0"
       id="path3934"
       d="m 31.5,1097.3622 -3.5,3.5 -1,-0.5 -1,0 0,2 2,1 5,-5 0,-1 z"
       style="font-size:medium;font-style:normal;font-variant:normal;font-weight:normal;font-stretch:normal;text-indent:0;text-align:start;text-decoration:none;line-height:normal;letter-spacing:normal;word-spacing:normal;text-transform:none;direction:ltr;block-progression:tb;writing-mode:lr-tb;text-anchor:start;baseline-shift:baseline;color:#000000;fill:#444444;fill-opacity:1;stroke:none;stroke-width:1.5;marker:none;visibility:visible;display:inline;overflow:visible;enable-background:accumulate;font-family:Sans;-inkscape-font-specification:Sans" />
    <path
       sodipodi:nodetypes="sssssssssccccc"
       inkscape:connector-curvature="0"
       style="color:#000000;fill:#444444;fill-opacity:1;stroke:none;stroke-width:2;marker:none;visibility:visible;display:inline;overflow:visible;enable-background:accumulate"
       d="m 2.5,1042.3622 c -0.277,0 -0.5,0.223 -0.5,0.5 l 0,7 c 0,0.277 0.223,0.5 0.5,0.5 l 7,0 c 0.277,0 0.5,-0.223 0.5,-0.5 l 0,-7 c 0,-0.277 -0.223,-0.5 -0.5,-0.5 z m 0.5,1 6,0 0,6 -6,0 z"
       id="path3936" />
    <rect
       style="fill:#ffffff;fill-opacity:1;stroke:none"
       id="rect3938"
       width="4"
       height="5.4999828"
       x="7"
       y="1041.8622"
       ry="0" />
    <path
       style="font-size:medium;font-style:normal;font-variant:normal;font-weight:normal;font-stretch:normal;text-indent:0;text-align:start;text-decoration:none;line-height:normal;letter-spacing:normal;word-spacing:normal;text-transform:none;direction:ltr;block-progression:tb;writing-mode:lr-tb;text-anchor:start;baseline-shift:baseline;color:#000000;fill:#444444;fill-opacity:1;stroke:none;stroke-width:1.5;marker:none;visibility:visible;display:inline;overflow:visible;enable-background:accumulate;font-family:Sans;-inkscape-font-specification:Sans"
       d="m 9.5,1042.3622 -3,4 -1,-1 -1.5,0 0,1 2,2 1,0 4,-5 0,-1 z"
       id="path3940"
       inkscape:connector-curvature="0"
       sodipodi:nodetypes="cccccccccc" />
  </g>
</svg>
