<?xml version="1.0" encoding="UTF-8" standalone="no"?>
<!-- Created with Inkscape (http://www.inkscape.org/) -->

<svg
   xmlns:dc="http://purl.org/dc/elements/1.1/"
   xmlns:cc="http://creativecommons.org/ns#"
   xmlns:rdf="http://www.w3.org/1999/02/22-rdf-syntax-ns#"
   xmlns:svg="http://www.w3.org/2000/svg"
   xmlns="http://www.w3.org/2000/svg"
   xmlns:sodipodi="http://sodipodi.sourceforge.net/DTD/sodipodi-0.dtd"
   xmlns:inkscape="http://www.inkscape.org/namespaces/inkscape"
   width="24"
   height="24"
   id="svg4460"
   version="1.1"
   inkscape:version="0.48.4 r9939"
   sodipodi:docname="polling-place-24.svg">
  <defs
     id="defs4462" />
  <sodipodi:namedview
     id="base"
     pagecolor="#ffffff"
     bordercolor="#666666"
     borderopacity="1.0"
     inkscape:pageopacity="0.0"
     inkscape:pageshadow="2"
     inkscape:zoom="22.627416"
     inkscape:cx="5.2683177"
     inkscape:cy="13.592906"
     inkscape:document-units="px"
     inkscape:current-layer="layer1"
     showgrid="true"
     showguides="false"
     inkscape:guide-bbox="true"
     inkscape:window-width="1920"
     inkscape:window-height="1053"
     inkscape:window-x="0"
     inkscape:window-y="27"
     inkscape:window-maximized="1"
     inkscape:snap-grids="false"
     inkscape:snap-to-guides="false">
    <inkscape:grid
       type="xygrid"
       id="grid4468"
       empspacing="2"
       visible="true"
       enabled="true"
       snapvisiblegridlinesonly="true"
       originx="-2.7755576e-17px"
       color="#ff00ff"
       opacity="0.1254902"
       empcolor="#ff00ff"
       empopacity="0.25098039" />
    <sodipodi:guide
       orientation="1,0"
       position="0,20"
       id="guide4470" />
    <sodipodi:guide
       orientation="0,1"
       position="4,24"
       id="guide4472" />
    <sodipodi:guide
       orientation="1,0"
       position="24,13"
       id="guide4474" />
    <sodipodi:guide
       orientation="0,1"
       position="15,0"
       id="guide4476" />
    <sodipodi:guide
       orientation="1,0"
       position="23,20"
       id="guide4478" />
    <sodipodi:guide
       orientation="0,1"
       position="20,23"
       id="guide4480" />
    <sodipodi:guide
       orientation="1,0"
       position="2,5"
       id="guide4482" />
    <sodipodi:guide
       orientation="0,1"
       position="7,2"
       id="guide4484" />
    <sodipodi:guide
       orientation="1,0"
       position="12.5,17"
       id="guide4486" />
    <sodipodi:guide
       orientation="0,1"
       position="21,12.5"
       id="guide4490" />
    <sodipodi:guide
       orientation="1,0"
       position="3,20"
       id="guide2995" />
    <sodipodi:guide
       orientation="0,1"
       position="7,22"
       id="guide2997" />
    <sodipodi:guide
       orientation="1,0"
       position="22,14"
       id="guide2999" />
    <sodipodi:guide
       orientation="0,1"
       position="9,3"
       id="guide3001" />
  </sodipodi:namedview>
  <metadata
     id="metadata4465">
    <rdf:RDF>
      <cc:Work
         rdf:about="">
        <dc:format>image/svg+xml</dc:format>
        <dc:type
           rdf:resource="http://purl.org/dc/dcmitype/StillImage" />
        <dc:title />
      </cc:Work>
    </rdf:RDF>
  </metadata>
  <g
     inkscape:label="Layer 1"
     inkscape:groupmode="layer"
     id="layer1"
     transform="translate(0,-1028.3622)">
    <path
       id="path7774"
       transform="translate(0,1028.3622)"
       d="M 20.5 3 C 19.998765 3.026 19.617488 3.254 19.375 3.5625 L 13 11.1875 L 11.15625 9.03125 C 10.618537 8.40245 9.5601757 8.3297 8.9375 8.875 C 8.3148243 9.4198 8.4293646 10.4363 8.90625 11 L 11.90625 14.53125 C 12.476265 15.18065 13.635341 15.1646 14.1875 14.5 L 21.6875 5.46875 C 22 5.02985 22.121452 4.21845 21.875 3.78125 C 21.580465 3.25875 21.013734 2.9728 20.5 3 z M 6 4 C 5.446 4 5 4.446 5 5 L 5 18 C 5 18.554 5.446 19 6 19 L 19 19 C 19.554 19 20 18.554 20 18 L 20 12 L 18 12 L 18 17 L 7 17 L 7 6 L 15 6 L 15 4 L 6 4 z "
       style="color:#000000;fill:#444444;fill-opacity:1;stroke:#ffffff;stroke-width:2;marker:none;visibility:visible;display:inline;overflow:visible;enable-background:accumulate;opacity:0.29999999999999999;stroke-linejoin:round;stroke-linecap:round" />
    <path
       style="color:#000000;fill:#444444;fill-opacity:1;stroke:none;stroke-width:2;marker:none;visibility:visible;display:inline;overflow:visible;enable-background:accumulate"
       d="M 20.5 3 C 19.998765 3.026 19.617488 3.254 19.375 3.5625 L 13 11.1875 L 11.15625 9.03125 C 10.618537 8.40245 9.5601757 8.3297 8.9375 8.875 C 8.3148243 9.4198 8.4293646 10.4363 8.90625 11 L 11.90625 14.53125 C 12.476265 15.18065 13.635341 15.1646 14.1875 14.5 L 21.6875 5.46875 C 22 5.02985 22.121452 4.21845 21.875 3.78125 C 21.580465 3.25875 21.013734 2.9728 20.5 3 z M 6 4 C 5.446 4 5 4.446 5 5 L 5 18 C 5 18.554 5.446 19 6 19 L 19 19 C 19.554 19 20 18.554 20 18 L 20 12 L 18 12 L 18 17 L 7 17 L 7 6 L 15 6 L 15 4 L 6 4 z "
       transform="translate(0,1028.3622)"
       id="rect11284" />
  </g>
</svg>
