<?xml version="1.0" encoding="UTF-8" standalone="no"?>
<!-- Created with Inkscape (http://www.inkscape.org/) -->

<svg
   xmlns:dc="http://purl.org/dc/elements/1.1/"
   xmlns:cc="http://creativecommons.org/ns#"
   xmlns:rdf="http://www.w3.org/1999/02/22-rdf-syntax-ns#"
   xmlns:svg="http://www.w3.org/2000/svg"
   xmlns="http://www.w3.org/2000/svg"
   xmlns:inkscape="http://www.inkscape.org/namespaces/inkscape"
   version="1.1"
   width="12"
   height="12"
   id="svg4764">
  <defs
     id="defs4766" />
  <metadata
     id="metadata4769">
    <rdf:RDF>
      <cc:Work
         rdf:about="">
        <dc:format>image/svg+xml</dc:format>
        <dc:type
           rdf:resource="http://purl.org/dc/dcmitype/StillImage" />
        <dc:title />
      </cc:Work>
    </rdf:RDF>
  </metadata>
  <g
     transform="translate(0,-1040.3622)"
     id="layer1"
     style="display:inline">
    <path
       d="M 2.5,1 C 1.691432,1 1,1.691432 1,2.5 l 0,7 C 1,10.308568 1.691432,11 2.5,11 l 7,0 C 10.308568,11 11,10.308568 11,9.5 L 11,7 C 11.005,6.4750403 10.52496,5.9949576 10,6 L 9.875,6 11.78125,3.625 C 11.921661,3.4492 12.000153,3.225 12,3 L 12,2 C 11.999848,1.4764 11.523557,1.0002 11,1 L 9.40625,1 C 9.1236977,1.025 8.8548569,1.17725 8.6875,1.40625 L 8,2.34375 8,2 C 8.0050424,1.4750403 7.5249597,0.99495761 7,1 z"
       inkscape:connector-curvature="0"
       transform="translate(0,1040.3622)"
       id="path3239"
       style="font-size:medium;font-style:normal;font-variant:normal;font-weight:normal;font-stretch:normal;text-indent:0;text-align:start;text-decoration:none;line-height:normal;letter-spacing:normal;word-spacing:normal;text-transform:none;direction:ltr;block-progression:tb;writing-mode:lr-tb;text-anchor:start;baseline-shift:baseline;opacity:0.3;color:#000000;fill:#ffffff;fill-opacity:1;stroke:none;stroke-width:1.5;marker:none;visibility:visible;display:inline;overflow:visible;enable-background:accumulate;font-family:Sans;-inkscape-font-specification:Sans" />
    <path
       d="M 2.5,2 C 2.223,2 2,2.223 2,2.5 l 0,7 C 2,9.777 2.223,10 2.5,10 l 7,0 C 9.777,10 10,9.777 10,9.5 L 10,7 9,7 9,9 3,9 3,3 7,3 7,2 2.5,2 z"
       inkscape:connector-curvature="0"
       transform="translate(0,1040.3622)"
       id="path3936"
       style="color:#000000;fill:#444444;fill-opacity:1;stroke:none;stroke-width:2;marker:none;visibility:visible;display:inline;overflow:visible;enable-background:accumulate" />
    <path
       d="m 9.5,1042.3622 -3,4 -1,-1 -1.5,0 0,1 2,2 1,0 4,-5 0,-1 z"
       inkscape:connector-curvature="0"
       id="path3940"
       style="font-size:medium;font-style:normal;font-variant:normal;font-weight:normal;font-stretch:normal;text-indent:0;text-align:start;text-decoration:none;line-height:normal;letter-spacing:normal;word-spacing:normal;text-transform:none;direction:ltr;block-progression:tb;writing-mode:lr-tb;text-anchor:start;baseline-shift:baseline;color:#000000;fill:#444444;fill-opacity:1;stroke:none;stroke-width:1.5;marker:none;visibility:visible;display:inline;overflow:visible;enable-background:accumulate;font-family:Sans;-inkscape-font-specification:Sans" />
  </g>
  <g
     id="layer2"
     style="display:none">
    <path
       d="m 3,1.90625 c -0.277,0 -0.5,0.2229999 -0.5,0.5 l 0,6.5 c 0,0.277 0.223,0.5 0.5,0.5 l 6.5,0 c 0.277,0 0.5,-0.223 0.5,-0.5 l 0,-3 -1,0 0,2.5 -5.5,0 0,-5.5 4,0 0,-1 -4.5,0 z"
       inkscape:connector-curvature="0"
       id="rect11284-4"
       style="color:#000000;fill:#ff0000;fill-opacity:1;stroke:none;stroke-width:2;marker:none;visibility:visible;display:inline;overflow:visible;enable-background:accumulate" />
    <path
       d="M 10.1875,1.4063 C 9.992696,1.4298 9.808744,1.53325 9.6875,1.6875 L 6.5,5.5 5.578125,4.4219 C 5.332726,4.08885 4.791665,4.0299 4.480327,4.30235 4.16899,4.57475 4.155582,5.11885 4.453127,5.4063 l 1.494475,1.7665498 c 0.285008,0.3247 0.864546,0.3168 1.140625,-0.0155 L 10.843752,2.6408 C 11.039455,2.41355 11.07845,2.06405 10.937662,1.79925 10.796869,1.53445 10.48536,1.3713 10.187506,1.40645 z"
       inkscape:connector-curvature="0"
       id="path3846-0"
       style="font-size:medium;font-style:normal;font-variant:normal;font-weight:normal;font-stretch:normal;text-indent:0;text-align:start;text-decoration:none;line-height:normal;letter-spacing:normal;word-spacing:normal;text-transform:none;direction:ltr;block-progression:tb;writing-mode:lr-tb;text-anchor:start;baseline-shift:baseline;color:#000000;fill:#ff0000;fill-opacity:1;stroke:none;stroke-width:3;marker:none;visibility:visible;display:inline;overflow:visible;enable-background:accumulate;font-family:Sans;-inkscape-font-specification:Sans" />
  </g>
  <rect
     width="12"
     height="12"
     x="0"
     y="0"
     id="canvas"
     style="fill:none;stroke:none;visibility:hidden" />
</svg>
