<?xml version="1.0" encoding="UTF-8" standalone="no"?>
<svg
   xmlns:dc="http://purl.org/dc/elements/1.1/"
   xmlns:cc="http://creativecommons.org/ns#"
   xmlns:rdf="http://www.w3.org/1999/02/22-rdf-syntax-ns#"
   xmlns:svg="http://www.w3.org/2000/svg"
   xmlns="http://www.w3.org/2000/svg"
   id="svg4460"
   height="24"
   width="24"
   version="1.1">
  <defs
     id="defs4462" />
  <metadata
     id="metadata4465">
    <rdf:RDF>
      <cc:Work
         rdf:about="">
        <dc:format>image/svg+xml</dc:format>
        <dc:type
           rdf:resource="http://purl.org/dc/dcmitype/StillImage" />
        <dc:title></dc:title>
      </cc:Work>
    </rdf:RDF>
  </metadata>
  <g
     style="stroke:#ffffff;stroke-width:2;stroke-miterlimit:4;stroke-dasharray:none;stroke-linejoin:round;stroke-linecap:round;opacity:0.3"
     transform="translate(0,-1028.3622)"
     id="g5349">
    <path
       d="M 20.5,3 C 19.998765,3.026 19.617488,3.254 19.375,3.5625 L 13,11.1875 11.15625,9.03125 C 10.618537,8.40245 9.5601757,8.3297 8.9375,8.875 8.3148243,9.4198 8.4293646,10.4363 8.90625,11 l 3,3.53125 c 0.570015,0.6494 1.729091,0.63335 2.28125,-0.03125 l 7.5,-9.03125 C 22,5.02985 22.121452,4.21845 21.875,3.78125 21.580465,3.25875 21.013734,2.9728 20.5,3 z M 6,4 C 5.446,4 5,4.446 5,5 l 0,13 c 0,0.554 0.446,1 1,1 l 13,0 c 0.554,0 1,-0.446 1,-1 l 0,-6 -2,0 0,5 L 7,17 7,6 15,6 15,4 6,4 z"
       transform="translate(0,1028.3622)"
       id="path5351"
       style="color:#000000;fill:#444444;fill-opacity:1;stroke:#ffffff;stroke-width:2;marker:none;visibility:visible;display:inline;overflow:visible;enable-background:accumulate;stroke-miterlimit:4;stroke-dasharray:none;stroke-linejoin:round;stroke-linecap:round" />
  </g>
  <g
     id="layer1"
     transform="translate(0,-1028.3622)">
    <path
       style="color:#000000;fill:#444444;fill-opacity:1;stroke:none;stroke-width:2;marker:none;visibility:visible;display:inline;overflow:visible;enable-background:accumulate"
       id="rect11284"
       transform="translate(0,1028.3622)"
       d="M 20.5,3 C 19.998765,3.026 19.617488,3.254 19.375,3.5625 L 13,11.1875 11.15625,9.03125 C 10.618537,8.40245 9.5601757,8.3297 8.9375,8.875 8.3148243,9.4198 8.4293646,10.4363 8.90625,11 l 3,3.53125 c 0.570015,0.6494 1.729091,0.63335 2.28125,-0.03125 l 7.5,-9.03125 C 22,5.02985 22.121452,4.21845 21.875,3.78125 21.580465,3.25875 21.013734,2.9728 20.5,3 z M 6,4 C 5.446,4 5,4.446 5,5 l 0,13 c 0,0.554 0.446,1 1,1 l 13,0 c 0.554,0 1,-0.446 1,-1 l 0,-6 -2,0 0,5 L 7,17 7,6 15,6 15,4 6,4 z" />
  </g>
  <rect
     style="fill:none;stroke:none;visibility:hidden"
     id="canvas"
     y="0"
     x="0"
     height="24"
     width="24" />
</svg>
