<?xml version="1.0" encoding="UTF-8" standalone="no"?>
<!-- Created with Inkscape (http://www.inkscape.org/) -->

<svg
   xmlns:dc="http://purl.org/dc/elements/1.1/"
   xmlns:cc="http://creativecommons.org/ns#"
   xmlns:rdf="http://www.w3.org/1999/02/22-rdf-syntax-ns#"
   xmlns:svg="http://www.w3.org/2000/svg"
   xmlns="http://www.w3.org/2000/svg"
   xmlns:sodipodi="http://sodipodi.sourceforge.net/DTD/sodipodi-0.dtd"
   xmlns:inkscape="http://www.inkscape.org/namespaces/inkscape"
   width="24"
   height="24"
   id="svg4460"
   version="1.1"
   inkscape:version="0.48.2 r9819"
   sodipodi:docname="polling-place-24.svg">
  <defs
     id="defs4462" />
  <sodipodi:namedview
     id="base"
     pagecolor="#ffffff"
     bordercolor="#666666"
     borderopacity="1.0"
     inkscape:pageopacity="0.0"
     inkscape:pageshadow="2"
     inkscape:zoom="32"
     inkscape:cx="13.98256"
     inkscape:cy="134.92207"
     inkscape:document-units="px"
     inkscape:current-layer="layer1"
     showgrid="true"
     showguides="false"
     inkscape:guide-bbox="true"
     inkscape:window-width="1251"
     inkscape:window-height="919"
     inkscape:window-x="391"
     inkscape:window-y="250"
     inkscape:window-maximized="0"
     inkscape:snap-grids="true"
     inkscape:snap-to-guides="true">
    <inkscape:grid
       type="xygrid"
       id="grid4468"
       empspacing="2"
       visible="true"
       enabled="true"
       snapvisiblegridlinesonly="true"
       originx="-2.7755576e-17px"
       color="#ff00ff"
       opacity="0.1254902"
       empcolor="#ff00ff"
       empopacity="0.25098039" />
    <sodipodi:guide
       orientation="1,0"
       position="0,20"
       id="guide4470" />
    <sodipodi:guide
       orientation="0,1"
       position="4,24"
       id="guide4472" />
    <sodipodi:guide
       orientation="1,0"
       position="24,13"
       id="guide4474" />
    <sodipodi:guide
       orientation="0,1"
       position="15,0"
       id="guide4476" />
    <sodipodi:guide
       orientation="1,0"
       position="23,20"
       id="guide4478" />
    <sodipodi:guide
       orientation="0,1"
       position="20,23"
       id="guide4480" />
    <sodipodi:guide
       orientation="1,0"
       position="2,5"
       id="guide4482" />
    <sodipodi:guide
       orientation="0,1"
       position="7,2"
       id="guide4484" />
    <sodipodi:guide
       orientation="1,0"
       position="12.5,17"
       id="guide4486" />
    <sodipodi:guide
       orientation="0,1"
       position="21,12.5"
       id="guide4490" />
    <sodipodi:guide
       orientation="1,0"
       position="3,20"
       id="guide2995" />
    <sodipodi:guide
       orientation="0,1"
       position="7,22"
       id="guide2997" />
    <sodipodi:guide
       orientation="1,0"
       position="22,14"
       id="guide2999" />
    <sodipodi:guide
       orientation="0,1"
       position="9,3"
       id="guide3001" />
  </sodipodi:namedview>
  <metadata
     id="metadata4465">
    <rdf:RDF>
      <cc:Work
         rdf:about="">
        <dc:format>image/svg+xml</dc:format>
        <dc:type
           rdf:resource="http://purl.org/dc/dcmitype/StillImage" />
        <dc:title />
      </cc:Work>
    </rdf:RDF>
  </metadata>
  <g
     inkscape:label="Layer 1"
     inkscape:groupmode="layer"
     id="layer1"
     transform="translate(0,-1028.3622)">
    <path
       sodipodi:nodetypes="sssssssssccccc"
       inkscape:connector-curvature="0"
       style="color:#000000;fill:#444444;fill-opacity:1;stroke:none;stroke-width:2;marker:none;visibility:visible;display:inline;overflow:visible;enable-background:accumulate"
       d="m 6,1032.3622 c -0.554,0 -1,0.446 -1,1 l 0,13 c 0,0.554 0.446,1 1,1 l 13,0 c 0.554,0 1,-0.446 1,-1 l 0,-13 c 0,-0.554 -0.446,-1 -1,-1 z m 1,2 11,0 0,11 -11,0 z"
       id="rect11284" />
    <rect
       style="fill:#ffffff;fill-opacity:1;stroke:none"
       id="rect3010"
       width="6.9722719"
       height="9.6629362"
       x="15"
       y="1030.6992"
       ry="0" />
    <path
       id="path3792"
       d="m 36,1032.3622 c -0.554,0 -1,0.446 -1,1 l 0,14 c 0,0.554 0.446,1 1,1 l 14,0 c 0.554,0 1,-0.446 1,-1 l 0,-14 c 0,-0.554 -0.446,-1 -1,-1 z m 1,2 12,0 0,12 -12,0 z"
       style="color:#000000;fill:#444444;fill-opacity:1;stroke:none;stroke-width:2;marker:none;visibility:visible;display:inline;overflow:visible;enable-background:accumulate"
       inkscape:connector-curvature="0"
       sodipodi:nodetypes="sssssssssccccc" />
    <rect
       ry="0"
       y="1030.6992"
       x="44.000004"
       height="9.6629362"
       width="7.9722719"
       id="rect3794"
       style="fill:#ffffff;fill-opacity:1;stroke:none" />
    <path
       sodipodi:nodetypes="ccc"
       inkscape:connector-curvature="0"
       id="path3796"
       d="m 40,1038.3622 3,3.5 7.5,-9"
       style="fill:none;stroke:#444444;stroke-width:3;stroke-linecap:round;stroke-linejoin:round;stroke-miterlimit:4;stroke-opacity:1;stroke-dasharray:none" />
    <path
       id="path3804"
       d="m -43,1032.3622 c -0.554,0 -1,0.446 -1,1 l 0,14 c 0,0.554 0.446,1 1,1 l 14,0 c 0.554,0 1,-0.446 1,-1 l 0,-14 c 0,-0.554 -0.446,-1 -1,-1 z m 1,2 12,0 0,12 -12,0 z"
       style="color:#000000;fill:#444444;fill-opacity:1;stroke:none;stroke-width:2;marker:none;visibility:visible;display:inline;overflow:visible;enable-background:accumulate"
       inkscape:connector-curvature="0"
       sodipodi:nodetypes="sssssssssccccc" />
    <rect
       ry="0"
       y="1030.6992"
       x="-35"
       height="9.6629362"
       width="7.9722719"
       id="rect3806"
       style="fill:#ffffff;fill-opacity:1;stroke:none" />
    <path
       sodipodi:nodetypes="ccccccc"
       inkscape:connector-curvature="0"
       d="m -29,1032.3622 -7,7 -3,-3 -2,2 5,5 9,-9 z"
       style="font-size:medium;font-style:normal;font-variant:normal;font-weight:normal;font-stretch:normal;text-indent:0;text-align:start;text-decoration:none;line-height:normal;letter-spacing:normal;word-spacing:normal;text-transform:none;direction:ltr;block-progression:tb;writing-mode:lr-tb;text-anchor:start;baseline-shift:baseline;color:#000000;fill:#444444;fill-opacity:1;stroke:none;stroke-width:3;marker:none;visibility:visible;display:inline;overflow:visible;enable-background:accumulate;font-family:Sans;-inkscape-font-specification:Sans"
       id="path3808" />
    <path
       id="path3812"
       d="m -21,1032.3622 c -0.554,0 -1,0.446 -1,1 l 0,13 c 0,0.554 0.446,1 1,1 l 12.9999996,0 c 0.554,0 1,-0.446 1,-1 l 0,-13 c 0,-0.554 -0.446,-1 -1,-1 z m 1,2 10.9999996,0 0,11 -10.9999996,0 z"
       style="color:#000000;fill:#444444;fill-opacity:1;stroke:none;stroke-width:2;marker:none;visibility:visible;display:inline;overflow:visible;enable-background:accumulate"
       inkscape:connector-curvature="0"
       sodipodi:nodetypes="sssssssssccccc" />
    <rect
       ry="0"
       y="1030.6992"
       x="-13"
       height="9.6629362"
       width="7.9722719"
       id="rect3814"
       style="fill:#ffffff;fill-opacity:1;stroke:none" />
    <path
       sodipodi:nodetypes="ccccccc"
       inkscape:connector-curvature="0"
       d="m -7.0000004,1032.3622 -6.9999996,7 -3,-3 -2,2 5,5 8.9999996,-9 z"
       style="font-size:medium;font-style:normal;font-variant:normal;font-weight:normal;font-stretch:normal;text-indent:0;text-align:start;text-decoration:none;line-height:normal;letter-spacing:normal;word-spacing:normal;text-transform:none;direction:ltr;block-progression:tb;writing-mode:lr-tb;text-anchor:start;baseline-shift:baseline;color:#000000;fill:#444444;fill-opacity:1;stroke:none;stroke-width:3;marker:none;visibility:visible;display:inline;overflow:visible;enable-background:accumulate;font-family:Sans;-inkscape-font-specification:Sans"
       id="path3816" />
    <path
       id="path3834"
       d="m 6,1004.3622 c -0.554,0 -1,0.446 -1,1 l 0,13 c 0,0.554 0.446,1 1,1 l 13,0 c 0.554,0 1,-0.446 1,-1 l 0,-13 c 0,-0.554 -0.446,-1 -1,-1 z m 1,2 11,0 0,11 -11,0 z"
       style="color:#000000;fill:#444444;fill-opacity:1;stroke:none;stroke-width:2;marker:none;visibility:visible;display:inline;overflow:visible;enable-background:accumulate"
       inkscape:connector-curvature="0"
       sodipodi:nodetypes="sssssssssccccc" />
    <rect
       ry="0"
       y="1002.6992"
       x="15"
       height="9.6629362"
       width="6.9722719"
       id="rect3836"
       style="fill:#ffffff;fill-opacity:1;stroke:none" />
    <path
       sodipodi:nodetypes="ccccccc"
       inkscape:connector-curvature="0"
       d="m 20,1004.3622 -7,7 -3,-3 -2,2 5,5 9,-9 z"
       style="font-size:medium;font-style:normal;font-variant:normal;font-weight:normal;font-stretch:normal;text-indent:0;text-align:start;text-decoration:none;line-height:normal;letter-spacing:normal;word-spacing:normal;text-transform:none;direction:ltr;block-progression:tb;writing-mode:lr-tb;text-anchor:start;baseline-shift:baseline;color:#000000;fill:#444444;fill-opacity:1;stroke:none;stroke-width:3;marker:none;visibility:visible;display:inline;overflow:visible;enable-background:accumulate;font-family:Sans;-inkscape-font-specification:Sans"
       id="path3838" />
    <path
       id="path3840"
       d="m 6,1077.5791 c -0.554,0 -1,0.446 -1,1 l 0,13 c 0,0.554 0.446,1 1,1 l 13,0 c 0.554,0 1,-0.446 1,-1 l 0,-13 c 0,-0.554 -0.446,-1 -1,-1 z m 1,2 11,0 0,11 -11,0 z"
       style="color:#000000;fill:#444444;fill-opacity:1;stroke:none;stroke-width:2;marker:none;visibility:visible;display:inline;overflow:visible;enable-background:accumulate"
       inkscape:connector-curvature="0"
       sodipodi:nodetypes="sssssssssccccc" />
    <rect
       ry="0"
       y="1075.9161"
       x="15"
       height="9.6629362"
       width="6.9722719"
       id="rect3842"
       style="fill:#ffffff;fill-opacity:1;stroke:none" />
    <path
       sodipodi:nodetypes="cccccccccccc"
       inkscape:connector-curvature="0"
       d="m 19.5,1078.0791 -6.5,6.5 -2.507813,-2.5078 C 10,1081.5791 9.5,1082.0791 9.5234375,1082.0557 l -1.03125,1.0312 c -0.4921875,0.4922 0.00781,0.9922 0.00781,0.9922 l 4.0078125,4.0078 c 0.49219,0.4922 0.992187,-0.01 0.992187,-0.01 l 8.007813,-8.0078 c 0.49219,-0.49 -0.02344,-1.0078 -0.02344,-1.0078 l -0.992187,-0.9922 c 0.0078,0.01 -0.492183,-0.49 -0.992183,0.01 z"
       style="font-size:medium;font-style:normal;font-variant:normal;font-weight:normal;font-stretch:normal;text-indent:0;text-align:start;text-decoration:none;line-height:normal;letter-spacing:normal;word-spacing:normal;text-transform:none;direction:ltr;block-progression:tb;writing-mode:lr-tb;text-anchor:start;baseline-shift:baseline;color:#000000;fill:#444444;fill-opacity:1;stroke:none;stroke-width:3;marker:none;visibility:visible;display:inline;overflow:visible;enable-background:accumulate;font-family:Sans;-inkscape-font-specification:Sans"
       id="path3844" />
    <path
       style="font-size:medium;font-style:normal;font-variant:normal;font-weight:normal;font-stretch:normal;text-indent:0;text-align:start;text-decoration:none;line-height:normal;letter-spacing:normal;word-spacing:normal;text-transform:none;direction:ltr;block-progression:tb;writing-mode:lr-tb;text-anchor:start;baseline-shift:baseline;color:#000000;fill:#444444;fill-opacity:1;stroke:none;stroke-width:3;marker:none;visibility:visible;display:inline;overflow:visible;enable-background:accumulate;font-family:Sans;-inkscape-font-specification:Sans"
       d="m 20.375,1031.3438 c -0.389607,0.047 -0.757512,0.2539 -1,0.5624 l -6.375,7.625 -1.84375,-2.1562 c -0.490797,-0.6661 -1.5729193,-0.784 -2.195595,-0.2391 -0.6226757,0.5448 -0.6494902,1.633 -0.054405,2.2079 l 2.988951,3.5331 c 0.570015,0.6494 1.729091,0.6336 2.28125,-0.031 l 7.511049,-9.0331 c 0.391406,-0.4545 0.469397,-1.1535 0.187812,-1.6831 -0.281585,-0.5296 -0.904604,-0.8559 -1.500312,-0.7856 z"
       id="path3846"
       inkscape:connector-curvature="0"
       sodipodi:nodetypes="ccccsccccscc" />
    <path
       id="path3848"
       d="m 6,955.8622 c -0.554,0 -1,0.446 -1,1 l 0,13 c 0,0.554 0.446,1 1,1 l 13,0 c 0.554,0 1,-0.446 1,-1 l 0,-13 c 0,-0.554 -0.446,-1 -1,-1 z m 1,2 11,0 0,11 -11,0 z"
       style="color:#000000;fill:#444444;fill-opacity:1;stroke:none;stroke-width:2;marker:none;visibility:visible;display:inline;overflow:visible;enable-background:accumulate"
       inkscape:connector-curvature="0"
       sodipodi:nodetypes="sssssssssccccc" />
    <rect
       ry="0"
       y="954.19922"
       x="15"
       height="9.6629362"
       width="6.9722719"
       id="rect3850"
       style="fill:#ffffff;fill-opacity:1;stroke:none" />
    <path
       sodipodi:nodetypes="ccc"
       inkscape:connector-curvature="0"
       id="path3852"
       d="m 10.03125,961.8622 3,3.5 7.5,-9"
       style="fill:none;stroke:#444444;stroke-width:3;stroke-linecap:round;stroke-linejoin:round;stroke-miterlimit:4;stroke-opacity:1;stroke-dasharray:none" />
    <path
       id="path3024"
       d="m 6,1059.0555 c -0.554,0 -1,0.446 -1,1 l 0,13 c 0,0.554 0.446,1 1,1 l 13,0 c 0.554,0 1,-0.446 1,-1 l 0,-13 c 0,-0.554 -0.446,-1 -1,-1 z m 1,2 11,0 0,11 -11,0 z"
       style="color:#000000;fill:#444444;fill-opacity:1;stroke:none;stroke-width:2;marker:none;visibility:visible;display:inline;overflow:visible;enable-background:accumulate"
       inkscape:connector-curvature="0"
       sodipodi:nodetypes="sssssssssccccc" />
    <rect
       ry="0"
       y="1057.3925"
       x="15"
       height="9.6629362"
       width="6.9722719"
       id="rect3026"
       style="fill:#ffffff;fill-opacity:1;stroke:none" />
    <path
       sodipodi:nodetypes="ccc"
       inkscape:connector-curvature="0"
       id="path3028"
       d="m 10.03125,1065.0555 3,3.5 7.5,-9"
       style="fill:none;stroke:#444444;stroke-width:3;stroke-linecap:round;stroke-linejoin:round;stroke-miterlimit:4;stroke-opacity:1;stroke-dasharray:none" />
    <path
       sodipodi:nodetypes="sssssssssccccc"
       inkscape:connector-curvature="0"
       style="color:#000000;fill:#444444;fill-opacity:1;stroke:none;stroke-width:2;marker:none;visibility:visible;display:inline;overflow:visible;enable-background:accumulate"
       d="m 6,984.3622 c -0.554,0 -1,0.446 -1,1 l 0,13 c 0,0.554 0.446,1 1,1 l 13,0 c 0.554,0 1,-0.446 1,-1 l 0,-13 c 0,-0.554 -0.446,-1 -1,-1 z m 1,2 11,0 0,11 -11,0 z"
       id="path3034" />
    <rect
       style="fill:#ffffff;fill-opacity:1;stroke:none"
       id="rect3036"
       width="6.9722719"
       height="9.6629362"
       x="15"
       y="982.82422"
       ry="0" />
    <path
       id="path3038"
       style="font-size:medium;font-style:normal;font-variant:normal;font-weight:normal;font-stretch:normal;text-indent:0;text-align:start;text-decoration:none;line-height:normal;letter-spacing:normal;word-spacing:normal;text-transform:none;direction:ltr;block-progression:tb;writing-mode:lr-tb;text-anchor:start;baseline-shift:baseline;color:#000000;fill:#444444;fill-opacity:1;stroke:#444444;stroke-width:1;marker:none;visibility:visible;display:inline;overflow:visible;enable-background:accumulate;font-family:Sans;-inkscape-font-specification:Sans;stroke-opacity:1;stroke-linejoin:round;stroke-linecap:round;stroke-miterlimit:4;stroke-dasharray:none"
       d="m 20,984.4872 -7,7 -3,-3 -2,2 5,5 9,-9 z"
       inkscape:connector-curvature="0"
       sodipodi:nodetypes="ccccccc" />
    <path
       id="path3847"
       d="m 6,909.3622 c -0.554,0 -1,0.446 -1,1 l 0,13 c 0,0.554 0.446,1 1,1 l 13,0 c 0.554,0 1,-0.446 1,-1 l 0,-13 c 0,-0.554 -0.446,-1 -1,-1 z m 1,2 11,0 0,11 -11,0 z"
       style="color:#000000;fill:#444444;fill-opacity:1;stroke:none;stroke-width:2;marker:none;visibility:visible;display:inline;overflow:visible;enable-background:accumulate"
       inkscape:connector-curvature="0"
       sodipodi:nodetypes="sssssssssccccc" />
    <rect
       ry="0"
       y="907.69922"
       x="15"
       height="9.6629362"
       width="6.9722719"
       id="rect3849"
       style="fill:#ffffff;fill-opacity:1;stroke:none" />
    <path
       sodipodi:nodetypes="ccccsccccscc"
       inkscape:connector-curvature="0"
       id="path3851"
       d="m 20.375,908.3438 c -0.389607,0.047 -0.757512,0.2539 -1,0.5624 L 13,916.5312 11.15625,914.375 c -0.490797,-0.6661 -1.5729193,-0.784 -2.195595,-0.2391 -0.6226757,0.5448 -0.6494902,1.633 -0.054405,2.2079 l 2.988951,3.5331 c 0.570015,0.6494 1.729091,0.6336 2.28125,-0.031 l 7.511049,-9.0331 c 0.391406,-0.4545 0.469397,-1.1535 0.187812,-1.6831 -0.281585,-0.5296 -0.904604,-0.8559 -1.500312,-0.7856 z"
       style="font-size:medium;font-style:normal;font-variant:normal;font-weight:normal;font-stretch:normal;text-indent:0;text-align:start;text-decoration:none;line-height:normal;letter-spacing:normal;word-spacing:normal;text-transform:none;direction:ltr;block-progression:tb;writing-mode:lr-tb;text-anchor:start;baseline-shift:baseline;color:#000000;fill:#444444;fill-opacity:1;stroke:none;stroke-width:3;marker:none;visibility:visible;display:inline;overflow:visible;enable-background:accumulate;font-family:Sans;-inkscape-font-specification:Sans" />
  </g>
</svg>
