<?xml version="1.0" encoding="UTF-8" standalone="no"?>
<!-- Created with Inkscape (http://www.inkscape.org/) -->

<svg
   xmlns:dc="http://purl.org/dc/elements/1.1/"
   xmlns:cc="http://creativecommons.org/ns#"
   xmlns:rdf="http://www.w3.org/1999/02/22-rdf-syntax-ns#"
   xmlns:svg="http://www.w3.org/2000/svg"
   xmlns="http://www.w3.org/2000/svg"
   xmlns:sodipodi="http://sodipodi.sourceforge.net/DTD/sodipodi-0.dtd"
   xmlns:inkscape="http://www.inkscape.org/namespaces/inkscape"
   width="18"
   height="18"
   id="svg4619"
   version="1.1"
   inkscape:version="0.48.4 r9939"
   sodipodi:docname="polling-place-18.svg">
  <defs
     id="defs4621" />
  <sodipodi:namedview
     id="base"
     pagecolor="#ffffff"
     bordercolor="#666666"
     borderopacity="1.0"
     inkscape:pageopacity="0.0"
     inkscape:pageshadow="2"
     inkscape:zoom="45.254836"
     inkscape:cx="12.082463"
     inkscape:cy="7.3528314"
     inkscape:document-units="px"
     inkscape:current-layer="layer1"
     showgrid="true"
     showguides="false"
     inkscape:guide-bbox="true"
     inkscape:window-width="1920"
     inkscape:window-height="1053"
     inkscape:window-x="0"
     inkscape:window-y="27"
     inkscape:window-maximized="1"
     inkscape:snap-to-guides="true"
     inkscape:snap-grids="true"
     inkscape:object-paths="true"
     inkscape:snap-bbox="true"
     inkscape:bbox-paths="true">
    <inkscape:grid
       type="xygrid"
       id="grid4627"
       empspacing="2"
       visible="true"
       enabled="true"
       snapvisiblegridlinesonly="true"
       color="#ff00ff"
       opacity="0.1254902"
       empcolor="#ff00ff"
       empopacity="0.33333333" />
    <sodipodi:guide
       orientation="0,1"
       position="7,18"
       id="guide4659" />
    <sodipodi:guide
       orientation="1,0"
       position="18,9"
       id="guide4661" />
    <sodipodi:guide
       orientation="0,1"
       position="16,17"
       id="guide4663" />
    <sodipodi:guide
       orientation="1,0"
       position="17,14"
       id="guide4665" />
    <sodipodi:guide
       orientation="1,0"
       position="0,16"
       id="guide4667" />
    <sodipodi:guide
       orientation="0,1"
       position="8,0"
       id="guide4669" />
    <sodipodi:guide
       orientation="1,0"
       position="2,10"
       id="guide4671" />
    <sodipodi:guide
       orientation="0,1"
       position="12,2"
       id="guide4673" />
    <sodipodi:guide
       orientation="1,0"
       position="3,14.5"
       id="guide3010" />
    <sodipodi:guide
       orientation="0,1"
       position="6,16"
       id="guide3012" />
    <sodipodi:guide
       orientation="1,0"
       position="16,11.5"
       id="guide3014" />
    <sodipodi:guide
       orientation="0,1"
       position="4.5,3"
       id="guide3016" />
  </sodipodi:namedview>
  <metadata
     id="metadata4624">
    <rdf:RDF>
      <cc:Work
         rdf:about="">
        <dc:format>image/svg+xml</dc:format>
        <dc:type
           rdf:resource="http://purl.org/dc/dcmitype/StillImage" />
        <dc:title />
      </cc:Work>
    </rdf:RDF>
  </metadata>
  <g
     inkscape:groupmode="layer"
     id="layer2"
     inkscape:label="original"
     style="display:none">
    <path
       sodipodi:nodetypes="sssssssssccccc"
       inkscape:connector-curvature="0"
       style="color:#000000;fill:#444444;fill-opacity:1;stroke:none;stroke-width:2;marker:none;visibility:visible;display:inline;overflow:visible;enable-background:accumulate"
       d="m 3.9999999,3.2500006 c -0.4155,0 -0.75,0.3344999 -0.75,0.7499998 l 0,9.7499996 c 0,0.4155 0.3345,0.75 0.75,0.75 L 13.75,14.5 c 0.4155,0 0.75,-0.3345 0.75,-0.75 l 0,-9.7499996 c 0,-0.4154999 -0.3345,-0.7499998 -0.75,-0.7499998 z m 0.75,1.4999998 8.2500001,0 L 13,13 4.7499999,13 z"
       id="rect11284" />
    <rect
       style="fill:#ffffff;fill-opacity:1;stroke:none"
       id="rect3010"
       width="5.2292042"
       height="7.2472019"
       x="10.75"
       y="2.0027647"
       ry="0" />
    <path
       style="font-size:medium;font-style:normal;font-variant:normal;font-weight:normal;font-stretch:normal;text-indent:0;text-align:start;text-decoration:none;line-height:normal;letter-spacing:normal;word-spacing:normal;text-transform:none;direction:ltr;block-progression:tb;writing-mode:lr-tb;text-anchor:start;baseline-shift:baseline;color:#000000;fill:#444444;fill-opacity:1;stroke:none;stroke-width:3;marker:none;visibility:visible;display:inline;overflow:visible;enable-background:accumulate;font-family:Sans;-inkscape-font-specification:Sans"
       d="m 14.78125,2.4862006 c -0.292205,0.03525 -0.568134,0.190425 -0.75,0.4218 L 9.25,8.6267504 7.8671874,7.0096004 c -0.3680977,-0.499575 -1.1796894,-0.588 -1.6466962,-0.179325 -0.4670068,0.4086 -0.4871177,1.22475 -0.040804,1.655925 l 2.2417136,2.6498246 c 0.427511,0.48705 1.296818,0.4752 1.7109372,-0.02325 l 5.633287,-6.7748246 c 0.293554,-0.340875 0.352048,-0.8651248 0.140859,-1.2623248 -0.211189,-0.3972 -0.678453,-0.641925 -1.125234,-0.5892 z"
       id="path3846"
       inkscape:connector-curvature="0"
       sodipodi:nodetypes="ccccsccccscc" />
    <path
       id="path3030"
       d="m 3.9999999,3.2500006 c -0.4155,0 -0.75,0.3344999 -0.75,0.7499998 l 0,9.7499996 c 0,0.4155 0.3345,0.75 0.75,0.75 L 13.75,14.5 c 0.4155,0 0.75,-0.3345 0.75,-0.75 l 0,-9.7499996 c 0,-0.4154999 -0.3345,-0.7499998 -0.75,-0.7499998 z m 0.75,1.4999998 8.2500001,0 L 13,13 4.7499999,13 z"
       style="color:#000000;fill:#444444;fill-opacity:1;stroke:none;stroke-width:2;marker:none;visibility:visible;display:inline;overflow:visible;enable-background:accumulate"
       inkscape:connector-curvature="0"
       sodipodi:nodetypes="sssssssssccccc" />
    <rect
       ry="0"
       y="2.0027647"
       x="10.75"
       height="7.2472019"
       width="5.2292042"
       id="rect3032"
       style="fill:#ffffff;fill-opacity:1;stroke:none" />
    <path
       sodipodi:nodetypes="ccccsccccscc"
       inkscape:connector-curvature="0"
       id="path3034"
       d="m 14.78125,2.4862006 c -0.292205,0.03525 -0.568134,0.190425 -0.75,0.4218 L 9.25,8.6267504 7.8671874,7.0096004 c -0.3680977,-0.499575 -1.1796894,-0.588 -1.6466962,-0.179325 -0.4670068,0.4086 -0.4871177,1.22475 -0.040804,1.655925 l 2.2417136,2.6498246 c 0.427511,0.48705 1.296818,0.4752 1.7109372,-0.02325 l 5.633287,-6.7748246 c 0.293554,-0.340875 0.352048,-0.8651248 0.140859,-1.2623248 -0.211189,-0.3972 -0.678453,-0.641925 -1.125234,-0.5892 z"
       style="font-size:medium;font-style:normal;font-variant:normal;font-weight:normal;font-stretch:normal;text-indent:0;text-align:start;text-decoration:none;line-height:normal;letter-spacing:normal;word-spacing:normal;text-transform:none;direction:ltr;block-progression:tb;writing-mode:lr-tb;text-anchor:start;baseline-shift:baseline;color:#000000;fill:#444444;fill-opacity:1;stroke:none;stroke-width:3;marker:none;visibility:visible;display:inline;overflow:visible;enable-background:accumulate;font-family:Sans;-inkscape-font-specification:Sans" />
  </g>
  <g
     inkscape:label="Layer 1"
     inkscape:groupmode="layer"
     id="layer1"
     transform="translate(0,-1034.3622)"
     style="display:inline">
    <path
       id="path8287"
       transform="translate(0,1034.3622)"
       d="M 5 3 C 4.5 3 4 3.5 4 4 L 4 13 C 4 13.5 4.5 14 5 14 L 14 14 C 14.5 14 15 13.4688 15 13 L 15 10 L 13 10 L 13 12 L 6 12 L 6 5 L 11 5 L 11 3 L 5 3 z M 15 3 C 14.59525 3 14.412388 3.1531 14.25 3.3125 C 14.21851 3.3435 9.9375 8.5 9.9375 8.5 L 8.71875 7.28125 C 8.3505815 6.90495 7.6661164 6.92235 7.28125 7.28125 C 6.8863721 7.64945 6.9026588 8.3112 7.28125 8.6875 L 9.28125 10.71875 C 9.67972 11.12775 10.432599 11.09615 10.78125 10.65625 L 15.78125 4.625 C 16.30395 3.9952 15.82031 3.0078 15 3 z "
       style="color:#000000;fill:#444444;fill-opacity:1;stroke:#ffffff;stroke-width:2;marker:none;visibility:visible;display:inline;overflow:visible;enable-background:accumulate;opacity:0.29999999999999999;stroke-linejoin:round;stroke-linecap:round" />
    <path
       style="color:#000000;fill:#444444;fill-opacity:1;stroke:none;stroke-width:2;marker:none;visibility:visible;display:inline;overflow:visible;enable-background:accumulate"
       d="M 5 3 C 4.5 3 4 3.5 4 4 L 4 13 C 4 13.5 4.5 14 5 14 L 14 14 C 14.5 14 15 13.4688 15 13 L 15 10 L 13 10 L 13 12 L 6 12 L 6 5 L 11 5 L 11 3 L 5 3 z M 15 3 C 14.59525 3 14.412388 3.1531 14.25 3.3125 C 14.21851 3.3435 9.9375 8.5 9.9375 8.5 L 8.71875 7.28125 C 8.3505815 6.90495 7.6661164 6.92235 7.28125 7.28125 C 6.8863721 7.64945 6.9026588 8.3112 7.28125 8.6875 L 9.28125 10.71875 C 9.67972 11.12775 10.432599 11.09615 10.78125 10.65625 L 15.78125 4.625 C 16.30395 3.9952 15.82031 3.0078 15 3 z "
       transform="translate(0,1034.3622)"
       id="path4007" />
  </g>
</svg>
