<?xml version="1.0" encoding="utf-8"?>
<!-- Generator: Adobe Illustrator 18.1.1, SVG Export Plug-In . SVG Version: 6.00 Build 0)  -->
<svg version="1.1" xmlns="http://www.w3.org/2000/svg" xmlns:xlink="http://www.w3.org/1999/xlink" x="0px" y="0px"
	 viewBox="0 0 24 24" enable-background="new 0 0 24 24" xml:space="preserve">
<g id="shadows">
	<g opacity="0.2">
		<path d="M21.034,6.318H5.966H5v0.966v10.432v0.921v0.045h17v-0.045v-0.921V7.284V6.318H21.034z M21.034,17.136h-0.58v-0.773
			h-0.773v-0.773h-0.773v-0.773h-0.773v-0.773h-0.773v-0.773h-0.773V12.5v-0.773h0.773v-0.773h0.773v-0.773h0.773V9.409h0.773V8.636
			h0.773V7.864h0.58V17.136z M5.966,7.864h0.58v0.773h0.773v0.773h0.773v0.773h0.773v0.773h0.773v0.773h0.773V12.5v0.773H9.636
			v0.773H8.863v0.773H8.091v0.773H7.318v0.773H6.545v0.773h-0.58V7.864z M15.818,11.727h-0.773V12.5h-0.773v0.773h-1.545V12.5
			h-0.773v-0.773h-0.773v-0.773h-0.773v-0.773H9.636V9.409H8.863V8.636H8.091V7.864H7.318v-0.58h12.364v0.58h-0.773v0.773h-0.773
			v0.773h-0.773v0.773h-0.773v0.773h-0.773V11.727z M7.318,17.136h0.773v-0.773h0.773v-0.773h0.773v-0.773h0.773v-0.773h0.773
			v-0.773h0.773v0.773h3.091v-0.773h0.773v0.773h0.773v0.773h0.773v0.773h0.773v0.773h0.773v0.773h0.773v0.58H7.318V17.136z"/>
	</g>
</g>
<g id="icons">
	<g>
		<path d="M20.034,5.318H4.966H4v0.966v10.432v0.921v0.045h17v-0.045v-0.921V6.284V5.318H20.034z M20.034,16.136h-0.58v-0.773
			h-0.773v-0.773h-0.773v-0.773h-0.773v-0.773h-0.773v-0.773h-0.773V11.5v-0.773h0.773V9.955h0.773V9.182h0.773V8.409h0.773V7.636
			h0.773V6.864h0.58V16.136z M4.966,6.864h0.58v0.773h0.773v0.773h0.773v0.773h0.773v0.773h0.773v0.773h0.773V11.5v0.773H8.636
			v0.773H7.864v0.773H7.091v0.773H6.318v0.773H5.545v0.773h-0.58V6.864z M14.818,10.727h-0.773V11.5h-0.773v0.773h-1.545V11.5
			h-0.773v-0.773h-0.773V9.955H9.409V9.182H8.636V8.409H7.864V7.636H7.091V6.864H6.318v-0.58h12.364v0.58h-0.773v0.773h-0.773v0.773
			h-0.773v0.773h-0.773v0.773h-0.773V10.727z M6.318,16.136h0.773v-0.773h0.773v-0.773h0.773v-0.773h0.773v-0.773h0.773v-0.773
			h0.773v0.773h3.091v-0.773h0.773v0.773h0.773v0.773h0.773v0.773h0.773v0.773h0.773v0.773h0.773v0.58H6.318V16.136z"/>
	</g>
</g>
</svg>
