<?xml version="1.0" encoding="UTF-8" standalone="no"?>
<svg width="12px" height="12px" viewBox="0 0 12 12" version="1.1" xmlns="http://www.w3.org/2000/svg" xmlns:xlink="http://www.w3.org/1999/xlink" xmlns:sketch="http://www.bohemiancoding.com/sketch/ns">
    <!-- Generator: Sketch 3.2.2 (9983) - http://www.bohemiancoding.com/sketch -->
    <title>post-office-black-12</title>
    <desc>Created with Sketch.</desc>
    <defs></defs>
    <g id="Page-1" stroke="none" stroke-width="1" fill="none" fill-rule="evenodd" sketch:type="MSPage">
        <path d="M8.35294118,6.84025507 L11.1764706,3.99948372 L11.1764706,8.97083358 L9.05882353,6.84025507 L8.35294118,6.84025507 L11.1764706,9.68102642 L2.70588235,9.68102642 L5.52941176,6.84025507 L4.82352941,6.84025507 L2.70588235,8.97083358 L2.70588235,3.99948372 L5.52941176,6.84025507 L6.23529412,6.84025507 L2.70588235,3.28929089 L11.1764706,3.28929089 L7.64705882,6.84025507 L8.35294118,6.84025507 L8.35294118,6.84025507 Z M2,10.3912193 L11.8823529,10.3912193 L11.8823529,2.57909805 L2,2.57909805 L2,10.3912193 Z" id="Fill-313" fill-opacity="0.1" fill="#0A0B09" sketch:type="MSShapeGroup"></path>
        <path d="M6.23529412,6.13006223 L7.64705882,6.13006223 L7.64705882,6.84025507 L6.23529412,6.84025507 L6.23529412,6.13006223 Z" id="Fill-314" fill-opacity="0.1" fill="#0A0B09" sketch:type="MSShapeGroup"></path>
        <path d="M7.35294118,5.84025507 L10.1764706,2.99948372 L10.1764706,7.97083358 L8.05882353,5.84025507 L7.35294118,5.84025507 L10.1764706,8.68102642 L1.70588235,8.68102642 L4.52941176,5.84025507 L3.82352941,5.84025507 L1.70588235,7.97083358 L1.70588235,2.99948372 L4.52941176,5.84025507 L5.23529412,5.84025507 L1.70588235,2.28929089 L10.1764706,2.28929089 L6.64705882,5.84025507 L7.35294118,5.84025507 L7.35294118,5.84025507 Z M1,9.39121926 L10.8823529,9.39121926 L10.8823529,1.57909805 L1,1.57909805 L1,9.39121926 Z" id="Fill-313" opacity="0.2" fill="#0A0B09" sketch:type="MSShapeGroup"></path>
        <path d="M5.23529412,5.13006223 L6.64705882,5.13006223 L6.64705882,5.84025507 L5.23529412,5.84025507 L5.23529412,5.13006223 Z" id="Fill-314" opacity="0.2" fill="#0A0B09" sketch:type="MSShapeGroup"></path>
        <path d="M6.35294118,4.84025507 L9.17647059,1.99948372 L9.17647059,6.97083358 L7.05882353,4.84025507 L6.35294118,4.84025507 L9.17647059,7.68102642 L0.705882353,7.68102642 L3.52941176,4.84025507 L2.82352941,4.84025507 L0.705882353,6.97083358 L0.705882353,1.99948372 L3.52941176,4.84025507 L4.23529412,4.84025507 L0.705882353,1.28929089 L9.17647059,1.28929089 L5.64705882,4.84025507 L6.35294118,4.84025507 L6.35294118,4.84025507 Z M0,8.39121926 L9.88235294,8.39121926 L9.88235294,0.579098048 L0,0.579098048 L0,8.39121926 Z" id="Fill-313" fill="#0A0B09" sketch:type="MSShapeGroup"></path>
        <path d="M4.23529412,4.13006223 L5.64705882,4.13006223 L5.64705882,4.84025507 L4.23529412,4.84025507 L4.23529412,4.13006223 Z" id="Fill-314" fill="#0A0B09" sketch:type="MSShapeGroup"></path>
    </g>
</svg>