<?xml version="1.0" encoding="utf-8"?>
<!-- Generator: Adobe Illustrator 18.1.1, SVG Export Plug-In . SVG Version: 6.00 Build 0)  -->
<svg version="1.1" xmlns="http://www.w3.org/2000/svg" xmlns:xlink="http://www.w3.org/1999/xlink" x="0px" y="0px"
	 viewBox="0 0 12 12" enable-background="new 0 0 12 12" xml:space="preserve">
<g id="shadows">
	<g opacity="0.2">
		<path d="M1.5,2.5v7.1h9V2.5H1.5z M7.3,6.3l2.6-2.6v4.5L7.9,6.3H7.3l2.6,2.6H2.1l2.6-2.6H4.1L2.1,8.3V3.7l2.6,2.6h0.6L2.1,3.1h7.7
			L6.6,6.3H7.3z"/>
		<rect x="5.4" y="5.7" width="1.3" height="0.6"/>
	</g>
</g>
<g id="icons">
	<g>
		<path fill="#FFFFFF" d="M1,2V9h9V2H1z M6.8,5.8l2.6-2.6v4.5L7.4,5.8H6.8l2.6,2.6H1.6l2.6-2.6H3.6L1.6,7.8V3.2l2.6,2.6h0.6L1.6,2.6
			h7.7L6.1,5.8H6.8z"/>
		<rect x="4.9" y="5.2" fill="#FFFFFF" width="1.3" height="0.6"/>
	</g>
</g>
</svg>
