<?xml version="1.0" encoding="utf-8"?>
<!-- Generator: Adobe Illustrator 18.1.1, SVG Export Plug-In . SVG Version: 6.00 Build 0)  -->
<svg version="1.1" xmlns="http://www.w3.org/2000/svg" xmlns:xlink="http://www.w3.org/1999/xlink" x="0px" y="0px"
	 viewBox="0 0 18 18" enable-background="new 0 0 18 18" xml:space="preserve">
<g id="shadows">
	<g opacity="0.2">
		<path d="M3.8,4.1v10.2h13V4.1H3.8z M12.1,9.7L15.8,6v6.5L13,9.7H12.1l3.7,3.7H4.7l3.7-3.7H7.5l-2.8,2.8V6l3.7,3.7h0.9L4.7,5.1
			h11.1l-4.6,4.6H12.1z"/>
		<rect x="9.3" y="8.8" width="1.9" height="0.9"/>
	</g>
</g>
<g id="icons">
	<g>
		<path d="M3,3.4v10.2h13V3.4H3z M11.4,9l3.7-3.7v6.5L12.3,9H11.4l3.7,3.7H3.9L7.6,9H6.7l-2.8,2.8V5.2L7.6,9h0.9L3.9,4.3h11.1
			L10.4,9H11.4z"/>
		<rect x="8.6" y="8" width="1.9" height="0.9"/>
	</g>
</g>
</svg>
