<?xml version="1.0" encoding="utf-8"?>
<!-- Generator: Adobe Illustrator 18.1.1, SVG Export Plug-In . SVG Version: 6.00 Build 0)  -->
<svg version="1.1" xmlns="http://www.w3.org/2000/svg" xmlns:xlink="http://www.w3.org/1999/xlink" x="0px" y="0px"
	 viewBox="0 0 18 18" enable-background="new 0 0 18 18" xml:space="preserve">
<g id="shadows">
	<g opacity="0.2">
		<path d="M3.75,4.143v10.214h13V4.143H3.75z M12.107,9.714L15.821,6v6.5l-2.786-2.786H12.107l3.714,3.714H4.679l3.714-3.714H7.464
			L4.679,12.5V6l3.714,3.714h0.929L4.679,5.071h11.143l-4.643,4.643H12.107z"/>
		<rect x="9.321" y="8.786" width="1.857" height="0.929"/>
	</g>
</g>
<g id="icons">
	<g>
		<path fill="#FFFFFF" d="M3,3.393v10.214h13V3.393H3z M11.357,8.964l3.714-3.714v6.5l-2.786-2.786H11.357l3.714,3.714H3.929
			l3.714-3.714H6.714L3.929,11.75v-6.5l3.714,3.714h0.929L3.929,4.321h11.143l-4.643,4.643H11.357z"/>
		<rect x="8.571" y="8.036" fill="#FFFFFF" width="1.857" height="0.929"/>
	</g>
</g>
</svg>
