<?xml version="1.0" encoding="UTF-8" standalone="no"?>
<!-- Created with Inkscape (http://www.inkscape.org/) -->

<svg
   xmlns:dc="http://purl.org/dc/elements/1.1/"
   xmlns:cc="http://creativecommons.org/ns#"
   xmlns:rdf="http://www.w3.org/1999/02/22-rdf-syntax-ns#"
   xmlns:svg="http://www.w3.org/2000/svg"
   xmlns="http://www.w3.org/2000/svg"
   xmlns:inkscape="http://www.inkscape.org/namespaces/inkscape"
   version="1.1"
   width="24"
   height="24"
   id="svg4460">
  <defs
     id="defs4462" />
  <metadata
     id="metadata4465">
    <rdf:RDF>
      <cc:Work
         rdf:about="">
        <dc:format>image/svg+xml</dc:format>
        <dc:type
           rdf:resource="http://purl.org/dc/dcmitype/StillImage" />
        <dc:title />
      </cc:Work>
    </rdf:RDF>
  </metadata>
  <g
     transform="translate(0,-1028.3622)"
     id="layer1">
    <g
       transform="translate(-396,-22)"
       id="post-24"
       style="display:inline">
      <g
         transform="translate(0,-1)"
         id="g21490">
        <path
           d="m 400.90625,1057.3622 c -0.4,0 -0.90625,0.5 -0.90625,1 l 0,9 c 0,0.5 0.50625,1 0.90625,1 l 15.1875,0 c 0.4,0 0.90625,-0.5 0.90625,-1 l 0,-9 c 0,-0.5 -0.50625,-1 -0.90625,-1 z"
           inkscape:connector-curvature="0"
           id="path7093"
           style="opacity:0.3;color:#000000;fill:#ffffff;fill-opacity:1;stroke:#ffffff;stroke-width:2;stroke-linecap:butt;stroke-linejoin:round;stroke-miterlimit:4;stroke-opacity:1;stroke-dasharray:none;stroke-dashoffset:0;marker:none;visibility:visible;display:inline;overflow:visible;enable-background:accumulate" />
        <path
           d="m 401,1057.3622 c -1,0 -0.5,0.3393 0,0.75 l 7,5.75 8,-5.75 c 0.5,-0.4107 1,-0.75 0,-0.75 l -8,0 z m -1,1.5 0,8.5 c 0,0.5 0.50625,1 0.90625,1 l 15.1875,0 c 0.4,0 0.90625,-0.5 0.90625,-1 l 0,-8.5 -9,6.5 z"
           inkscape:connector-curvature="0"
           id="path7085"
           style="color:#000000;fill:#444444;fill-opacity:1;stroke:none;stroke-width:2;marker:none;visibility:visible;display:inline;overflow:visible;enable-background:accumulate" />
      </g>
    </g>
  </g>
  <rect
     width="24"
     height="24"
     x="0"
     y="0"
     id="canvas"
     style="fill:none;stroke:none;visibility:hidden" />
</svg>
