<?xml version="1.0" encoding="utf-8"?>
<!-- Generator: Adobe Illustrator 18.1.1, SVG Export Plug-In . SVG Version: 6.00 Build 0)  -->
<svg version="1.1" xmlns="http://www.w3.org/2000/svg" xmlns:xlink="http://www.w3.org/1999/xlink" x="0px" y="0px"
	 viewBox="0 0 12 12" enable-background="new 0 0 12 12" xml:space="preserve">
<g id="shadows">
	<g opacity="0.2">
		<path d="M2.5,2.464v7.072h9V2.464H2.5z M8.286,6.321l2.572-2.572v4.5L8.929,6.321H8.286l2.572,2.572H3.143l2.572-2.572H5.071
			L3.143,8.25v-4.5l2.572,2.572h0.643L3.143,3.107h7.715L7.643,6.321H8.286z"/>
		<rect x="6.357" y="5.679" width="1.286" height="0.643"/>
	</g>
</g>
<g id="icons">
	<g>
		<path d="M2,1.964v7.072h9V1.964H2z M7.786,5.821l2.572-2.572v4.5L8.429,5.821H7.786l2.572,2.572H2.643l2.572-2.572H4.571
			L2.643,7.75v-4.5l2.572,2.572h0.643L2.643,2.607h7.715L7.143,5.821H7.786z"/>
		<rect x="5.857" y="5.179" width="1.286" height="0.643"/>
	</g>
</g>
</svg>
