<?xml version="1.0" encoding="UTF-8" standalone="no"?>
<svg width="18px" height="18px" viewBox="0 0 18 18" version="1.1" xmlns="http://www.w3.org/2000/svg" xmlns:xlink="http://www.w3.org/1999/xlink" xmlns:sketch="http://www.bohemiancoding.com/sketch/ns">
    <!-- Generator: Sketch 3.2.2 (9983) - http://www.bohemiancoding.com/sketch -->
    <title>post-office-white-18</title>
    <desc>Created with Sketch.</desc>
    <defs></defs>
    <g id="Page-1" stroke="none" stroke-width="1" fill="none" fill-rule="evenodd" sketch:type="MSPage">
        <g id="Fill-312-+-Fill-312-+-Fill-312" sketch:type="MSLayerGroup" transform="translate(-0.699997, 1.000000)">
            <path d="M4.92592593,13.1602825 L5.66666667,13.1602825 L5.66666667,12.4303178 L6.40740741,12.4303178 L6.40740741,11.7003532 L7.14814815,11.7003532 L7.14814815,10.9703885 L7.88888889,10.9703885 L7.88888889,10.2404238 L8.62962963,10.2404238 L8.62962963,9.51045911 L9.37037037,9.51045911 L9.37037037,10.2404238 L12.3333333,10.2404238 L12.3333333,9.51045911 L13.0740741,9.51045911 L13.0740741,10.2404238 L13.8148148,10.2404238 L13.8148148,10.9703885 L14.5555556,10.9703885 L14.5555556,11.7003532 L15.2962963,11.7003532 L15.2962963,12.4303178 L16.037037,12.4303178 L16.037037,13.1602825 L16.7777778,13.1602825 L16.7777778,13.707756 L4.92592593,13.707756 L4.92592593,13.1602825 L4.92592593,13.1602825 Z M13.0740741,8.05052975 L12.3333333,8.05052975 L12.3333333,8.78049443 L11.5925926,8.78049443 L11.5925926,9.51045911 L10.1111111,9.51045911 L10.1111111,8.78049443 L9.37037037,8.78049443 L9.37037037,8.05052975 L8.62962963,8.05052975 L8.62962963,7.32056506 L7.88888889,7.32056506 L7.88888889,6.59060038 L7.14814815,6.59060038 L7.14814815,5.8606357 L6.40740741,5.8606357 L6.40740741,5.13067101 L5.66666667,5.13067101 L5.66666667,4.40070633 L4.92592593,4.40070633 L4.92592593,3.85323282 L16.7777778,3.85323282 L16.7777778,4.40070633 L16.037037,4.40070633 L16.037037,5.13067101 L15.2962963,5.13067101 L15.2962963,5.8606357 L14.5555556,5.8606357 L14.5555556,6.59060038 L13.8148148,6.59060038 L13.8148148,7.32056506 L13.0740741,7.32056506 L13.0740741,8.05052975 L13.0740741,8.05052975 Z M3.62962963,4.40070633 L4.18518519,4.40070633 L4.18518519,5.13067101 L4.92592593,5.13067101 L4.92592593,5.8606357 L5.66666667,5.8606357 L5.66666667,6.59060038 L6.40740741,6.59060038 L6.40740741,7.32056506 L7.14814815,7.32056506 L7.14814815,8.05052975 L7.88888889,8.05052975 L7.88888889,9.51045911 L7.14814815,9.51045911 L7.14814815,10.2404238 L6.40740741,10.2404238 L6.40740741,10.9703885 L5.66666667,10.9703885 L5.66666667,11.7003532 L4.92592593,11.7003532 L4.92592593,12.4303178 L4.18518519,12.4303178 L4.18518519,13.1602825 L3.62962963,13.1602825 L3.62962963,4.40070633 L3.62962963,4.40070633 Z M18.0740741,13.1602825 L17.5185185,13.1602825 L17.5185185,12.4303178 L16.7777778,12.4303178 L16.7777778,11.7003532 L16.037037,11.7003532 L16.037037,10.9703885 L15.2962963,10.9703885 L15.2962963,10.2404238 L14.5555556,10.2404238 L14.5555556,9.51045911 L13.8148148,9.51045911 L13.8148148,8.05052975 L14.5555556,8.05052975 L14.5555556,7.32056506 L15.2962963,7.32056506 L15.2962963,6.59060038 L16.037037,6.59060038 L16.037037,5.8606357 L16.7777778,5.8606357 L16.7777778,5.13067101 L17.5185185,5.13067101 L17.5185185,4.40070633 L18.0740741,4.40070633 L18.0740741,13.1602825 L18.0740741,13.1602825 Z M18.0740741,2.94077696 L2.7037037,2.94077696 L2.7037037,14.6202119 L19,14.6202119 L19,2.94077696 L18.0740741,2.94077696 L18.0740741,2.94077696 Z" id="Fill-312" opacity="0.5" fill="#0A0B09" sketch:type="MSShapeGroup"></path>
            <path d="M3.92592593,12.1602825 L4.66666667,12.1602825 L4.66666667,11.4303178 L5.40740741,11.4303178 L5.40740741,10.7003532 L6.14814815,10.7003532 L6.14814815,9.97038848 L6.88888889,9.97038848 L6.88888889,9.2404238 L7.62962963,9.2404238 L7.62962963,8.51045911 L8.37037037,8.51045911 L8.37037037,9.2404238 L11.3333333,9.2404238 L11.3333333,8.51045911 L12.0740741,8.51045911 L12.0740741,9.2404238 L12.8148148,9.2404238 L12.8148148,9.97038848 L13.5555556,9.97038848 L13.5555556,10.7003532 L14.2962963,10.7003532 L14.2962963,11.4303178 L15.037037,11.4303178 L15.037037,12.1602825 L15.7777778,12.1602825 L15.7777778,12.707756 L3.92592593,12.707756 L3.92592593,12.1602825 L3.92592593,12.1602825 Z M12.0740741,7.05052975 L11.3333333,7.05052975 L11.3333333,7.78049443 L10.5925926,7.78049443 L10.5925926,8.51045911 L9.11111111,8.51045911 L9.11111111,7.78049443 L8.37037037,7.78049443 L8.37037037,7.05052975 L7.62962963,7.05052975 L7.62962963,6.32056506 L6.88888889,6.32056506 L6.88888889,5.59060038 L6.14814815,5.59060038 L6.14814815,4.8606357 L5.40740741,4.8606357 L5.40740741,4.13067101 L4.66666667,4.13067101 L4.66666667,3.40070633 L3.92592593,3.40070633 L3.92592593,2.85323282 L15.7777778,2.85323282 L15.7777778,3.40070633 L15.037037,3.40070633 L15.037037,4.13067101 L14.2962963,4.13067101 L14.2962963,4.8606357 L13.5555556,4.8606357 L13.5555556,5.59060038 L12.8148148,5.59060038 L12.8148148,6.32056506 L12.0740741,6.32056506 L12.0740741,7.05052975 L12.0740741,7.05052975 Z M2.62962963,3.40070633 L3.18518519,3.40070633 L3.18518519,4.13067101 L3.92592593,4.13067101 L3.92592593,4.8606357 L4.66666667,4.8606357 L4.66666667,5.59060038 L5.40740741,5.59060038 L5.40740741,6.32056506 L6.14814815,6.32056506 L6.14814815,7.05052975 L6.88888889,7.05052975 L6.88888889,8.51045911 L6.14814815,8.51045911 L6.14814815,9.2404238 L5.40740741,9.2404238 L5.40740741,9.97038848 L4.66666667,9.97038848 L4.66666667,10.7003532 L3.92592593,10.7003532 L3.92592593,11.4303178 L3.18518519,11.4303178 L3.18518519,12.1602825 L2.62962963,12.1602825 L2.62962963,3.40070633 L2.62962963,3.40070633 Z M17.0740741,12.1602825 L16.5185185,12.1602825 L16.5185185,11.4303178 L15.7777778,11.4303178 L15.7777778,10.7003532 L15.037037,10.7003532 L15.037037,9.97038848 L14.2962963,9.97038848 L14.2962963,9.2404238 L13.5555556,9.2404238 L13.5555556,8.51045911 L12.8148148,8.51045911 L12.8148148,7.05052975 L13.5555556,7.05052975 L13.5555556,6.32056506 L14.2962963,6.32056506 L14.2962963,5.59060038 L15.037037,5.59060038 L15.037037,4.8606357 L15.7777778,4.8606357 L15.7777778,4.13067101 L16.5185185,4.13067101 L16.5185185,3.40070633 L17.0740741,3.40070633 L17.0740741,12.1602825 L17.0740741,12.1602825 Z M17.0740741,1.94077696 L1.7037037,1.94077696 L1.7037037,13.6202119 L18,13.6202119 L18,1.94077696 L17.0740741,1.94077696 L17.0740741,1.94077696 Z" id="Fill-312" opacity="0.75" fill="#0A0B09" sketch:type="MSShapeGroup"></path>
            <path d="M2.92592593,11.1602825 L3.66666667,11.1602825 L3.66666667,10.4303178 L4.40740741,10.4303178 L4.40740741,9.70035316 L5.14814815,9.70035316 L5.14814815,8.97038848 L5.88888889,8.97038848 L5.88888889,8.2404238 L6.62962963,8.2404238 L6.62962963,7.51045911 L7.37037037,7.51045911 L7.37037037,8.2404238 L10.3333333,8.2404238 L10.3333333,7.51045911 L11.0740741,7.51045911 L11.0740741,8.2404238 L11.8148148,8.2404238 L11.8148148,8.97038848 L12.5555556,8.97038848 L12.5555556,9.70035316 L13.2962963,9.70035316 L13.2962963,10.4303178 L14.037037,10.4303178 L14.037037,11.1602825 L14.7777778,11.1602825 L14.7777778,11.707756 L2.92592593,11.707756 L2.92592593,11.1602825 L2.92592593,11.1602825 Z M11.0740741,6.05052975 L10.3333333,6.05052975 L10.3333333,6.78049443 L9.59259259,6.78049443 L9.59259259,7.51045911 L8.11111111,7.51045911 L8.11111111,6.78049443 L7.37037037,6.78049443 L7.37037037,6.05052975 L6.62962963,6.05052975 L6.62962963,5.32056506 L5.88888889,5.32056506 L5.88888889,4.59060038 L5.14814815,4.59060038 L5.14814815,3.8606357 L4.40740741,3.8606357 L4.40740741,3.13067101 L3.66666667,3.13067101 L3.66666667,2.40070633 L2.92592593,2.40070633 L2.92592593,1.85323282 L14.7777778,1.85323282 L14.7777778,2.40070633 L14.037037,2.40070633 L14.037037,3.13067101 L13.2962963,3.13067101 L13.2962963,3.8606357 L12.5555556,3.8606357 L12.5555556,4.59060038 L11.8148148,4.59060038 L11.8148148,5.32056506 L11.0740741,5.32056506 L11.0740741,6.05052975 L11.0740741,6.05052975 Z M1.62962963,2.40070633 L2.18518519,2.40070633 L2.18518519,3.13067101 L2.92592593,3.13067101 L2.92592593,3.8606357 L3.66666667,3.8606357 L3.66666667,4.59060038 L4.40740741,4.59060038 L4.40740741,5.32056506 L5.14814815,5.32056506 L5.14814815,6.05052975 L5.88888889,6.05052975 L5.88888889,7.51045911 L5.14814815,7.51045911 L5.14814815,8.2404238 L4.40740741,8.2404238 L4.40740741,8.97038848 L3.66666667,8.97038848 L3.66666667,9.70035316 L2.92592593,9.70035316 L2.92592593,10.4303178 L2.18518519,10.4303178 L2.18518519,11.1602825 L1.62962963,11.1602825 L1.62962963,2.40070633 L1.62962963,2.40070633 Z M16.0740741,11.1602825 L15.5185185,11.1602825 L15.5185185,10.4303178 L14.7777778,10.4303178 L14.7777778,9.70035316 L14.037037,9.70035316 L14.037037,8.97038848 L13.2962963,8.97038848 L13.2962963,8.2404238 L12.5555556,8.2404238 L12.5555556,7.51045911 L11.8148148,7.51045911 L11.8148148,6.05052975 L12.5555556,6.05052975 L12.5555556,5.32056506 L13.2962963,5.32056506 L13.2962963,4.59060038 L14.037037,4.59060038 L14.037037,3.8606357 L14.7777778,3.8606357 L14.7777778,3.13067101 L15.5185185,3.13067101 L15.5185185,2.40070633 L16.0740741,2.40070633 L16.0740741,11.1602825 L16.0740741,11.1602825 Z M16.0740741,0.940776963 L0.703703704,0.940776963 L0.703703704,12.6202119 L17,12.6202119 L17,0.940776963 L16.0740741,0.940776963 L16.0740741,0.940776963 Z" id="Fill-312" fill="#FFFFFF" sketch:type="MSShapeGroup"></path>
        </g>
    </g>
</svg>