<?xml version="1.0" encoding="utf-8"?>
<!-- Generator: Adobe Illustrator 18.0.0, SVG Export Plug-In . SVG Version: 6.00 Build 0)  -->
<!DOCTYPE svg PUBLIC "-//W3C//DTD SVG 1.1//EN" "http://www.w3.org/Graphics/SVG/1.1/DTD/svg11.dtd" [
	<!ENTITY ns_flows "http://ns.adobe.com/Flows/1.0/">
	<!ENTITY ns_extend "http://ns.adobe.com/Extensibility/1.0/">
	<!ENTITY ns_ai "http://ns.adobe.com/AdobeIllustrator/10.0/">
	<!ENTITY ns_graphs "http://ns.adobe.com/Graphs/1.0/">
	<!ENTITY st0 "opacity:0.1;">
	<!ENTITY st1 "fill:#010101;">
	<!ENTITY st2 "opacity:0.2;">
]>
<svg version="1.1" id="Layer_1" xmlns:x="&ns_extend;" xmlns:i="&ns_ai;" xmlns:graph="&ns_graphs;"
	 xmlns="http://www.w3.org/2000/svg" xmlns:xlink="http://www.w3.org/1999/xlink" xmlns:a="http://ns.adobe.com/AdobeSVGViewerExtensions/3.0/"
	 x="0px" y="0px" width="24px" height="18px" viewBox="0 0 24 18" style="enable-background:new 0 0 24 18;" xml:space="preserve">
<g style="&st0;">
	<path style="&st1;" d="M22.8,2H3.2H2v1.2v13.5v1.2V18h22v-0.1v-1.2V3.2V2H22.8z M22.8,16H22v-1h-1v-1h-1v-1h-1v-1h-1v-1h-1v-1V9h1
		V8h1V7h1V6h1V5h1V4h0.8V16z M3.2,4H4v1h1v1h1v1h1v1h1v1h1v1v1H8v1H7v1H6v1H5v1H4v1H3.2V4z M16,9h-1v1h-1v1h-2v-1h-1V9h-1V8H9V7H8V6
		H7V5H6V4H5V3.2h16V4h-1v1h-1v1h-1v1h-1v1h-1V9z M5,16h1v-1h1v-1h1v-1h1v-1h1v-1h1v1h4v-1h1v1h1v1h1v1h1v1h1v1h1v0.8H5V16z"/>
</g>
<g style="&st2;">
	<path style="&st1;" d="M21.8,1H2.2H1v1.2v13.5v1.2V17h22v-0.1v-1.2V2.2V1H21.8z M21.8,15H21v-1h-1v-1h-1v-1h-1v-1h-1v-1h-1V9V8h1V7
		h1V6h1V5h1V4h1V3h0.8V15z M2.2,3H3v1h1v1h1v1h1v1h1v1h1v1v1H7v1H6v1H5v1H4v1H3v1H2.2V3z M15,8h-1v1h-1v1h-2V9h-1V8H9V7H8V6H7V5H6V4
		H5V3H4V2.2h16V3h-1v1h-1v1h-1v1h-1v1h-1V8z M4,15h1v-1h1v-1h1v-1h1v-1h1v-1h1v1h4v-1h1v1h1v1h1v1h1v1h1v1h1v0.8H4V15z"/>
</g>
<g>
	<path style="&st1;" d="M20.8,0H1.2H0v1.2v13.5v1.2V16h22v-0.1v-1.2V1.2V0H20.8z M20.8,14H20v-1h-1v-1h-1v-1h-1v-1h-1V9h-1V8V7h1V6
		h1V5h1V4h1V3h1V2h0.8V14z M1.2,2H2v1h1v1h1v1h1v1h1v1h1v1v1H6v1H5v1H4v1H3v1H2v1H1.2V2z M14,7h-1v1h-1v1h-2V8H9V7H8V6H7V5H6V4H5V3
		H4V2H3V1.2h16V2h-1v1h-1v1h-1v1h-1v1h-1V7z M3,14h1v-1h1v-1h1v-1h1v-1h1V9h1v1h4V9h1v1h1v1h1v1h1v1h1v1h1v0.8H3V14z"/>
</g>
</svg>
