<?xml version="1.0" encoding="UTF-8" standalone="no"?>
<!-- Created with Inkscape (http://www.inkscape.org/) -->

<svg
   xmlns:dc="http://purl.org/dc/elements/1.1/"
   xmlns:cc="http://creativecommons.org/ns#"
   xmlns:rdf="http://www.w3.org/1999/02/22-rdf-syntax-ns#"
   xmlns:svg="http://www.w3.org/2000/svg"
   xmlns="http://www.w3.org/2000/svg"
   xmlns:inkscape="http://www.inkscape.org/namespaces/inkscape"
   version="1.1"
   width="24"
   height="24"
   id="svg4460">
  <defs
     id="defs4462" />
  <metadata
     id="metadata4465">
    <rdf:RDF>
      <cc:Work
         rdf:about="">
        <dc:format>image/svg+xml</dc:format>
        <dc:type
           rdf:resource="http://purl.org/dc/dcmitype/StillImage" />
        <dc:title />
      </cc:Work>
    </rdf:RDF>
  </metadata>
  <g
     transform="translate(0,-1028.3622)"
     id="layer1">
    <g
       transform="translate(-396,-118)"
       id="prison-24"
       style="display:inline">
      <g
         transform="translate(395,142)"
         id="g5143"
         style="display:inline">
        <path
           d="m 6,1008.3622 c -0.554,0 -1,0.446 -1,1 l 0,3 0,7 0,3 c 0,0.554 0.446,1 1,1 0.554,0 1,-0.446 1,-1 l 0,-2 3,0 0,2 c 0,0.554 0.446,1 1,1 0.554,0 1,-0.446 1,-1 l 0,-2 3,0 0,2 c 0,0.554 0.446,1 1,1 0.554,0 1,-0.446 1,-1 l 0,-2 3,0 0,2 c 0,0.554 0.446,1 1,1 0.554,0 1,-0.446 1,-1 l 0,-13 c 0,-0.554 -0.446,-1 -1,-1 -0.554,0 -1,0.446 -1,1 l 0,2 -3,0 0,-2 c 0,-0.554 -0.446,-1 -1,-1 -0.554,0 -1,0.446 -1,1 l 0,2 -3,0 0,-2 c 0,-0.554 -0.446,-1 -1,-1 -0.554,0 -1,0.446 -1,1 l 0,2 -3,0 0,-2 c 0,-0.554 -0.446,-1 -1,-1 z m 1,5 3,0 0,5 -3,0 z m 5,0 3,0 0,5 -3,0 z m 5,0 3,0 0,5 -3,0 z"
           inkscape:connector-curvature="0"
           id="path4517"
           style="opacity:0.3;color:#000000;fill:none;stroke:#ffffff;stroke-width:2;stroke-linecap:round;stroke-linejoin:round;stroke-miterlimit:4;stroke-opacity:1;stroke-dasharray:none;stroke-dashoffset:0;marker:none;visibility:visible;display:inline;overflow:visible;enable-background:accumulate" />
        <path
           d="m 6,1008.3622 c -0.554,0 -1,0.446 -1,1 l 0,3 0,7 0,3 c 0,0.554 0.446,1 1,1 0.554,0 1,-0.446 1,-1 l 0,-2 3,0 0,2 c 0,0.554 0.446,1 1,1 0.554,0 1,-0.446 1,-1 l 0,-2 3,0 0,2 c 0,0.554 0.446,1 1,1 0.554,0 1,-0.446 1,-1 l 0,-2 3,0 0,2 c 0,0.554 0.446,1 1,1 0.554,0 1,-0.446 1,-1 l 0,-13 c 0,-0.554 -0.446,-1 -1,-1 -0.554,0 -1,0.446 -1,1 l 0,2 -3,0 0,-2 c 0,-0.554 -0.446,-1 -1,-1 -0.554,0 -1,0.446 -1,1 l 0,2 -3,0 0,-2 c 0,-0.554 -0.446,-1 -1,-1 -0.554,0 -1,0.446 -1,1 l 0,2 -3,0 0,-2 c 0,-0.554 -0.446,-1 -1,-1 z m 1,5 3,0 0,5 -3,0 z m 5,0 3,0 0,5 -3,0 z m 5,0 3,0 0,5 -3,0 z"
           inkscape:connector-curvature="0"
           id="rect4496"
           style="color:#000000;fill:#444444;fill-opacity:1;stroke:none;stroke-width:1;marker:none;visibility:visible;display:inline;overflow:visible;enable-background:accumulate" />
      </g>
    </g>
  </g>
  <rect
     width="24"
     height="24"
     x="0"
     y="0"
     id="canvas"
     style="fill:none;stroke:none;visibility:hidden" />
</svg>
