<?xml version="1.0" encoding="utf-8"?>
<!-- Generator: Adobe Illustrator 18.1.1, SVG Export Plug-In . SVG Version: 6.00 Build 0)  -->
<svg version="1.1" xmlns="http://www.w3.org/2000/svg" xmlns:xlink="http://www.w3.org/1999/xlink" x="0px" y="0px"
	 viewBox="0 0 18 18" enable-background="new 0 0 18 18" xml:space="preserve">
<g id="shadows-text-objects" display="none">
	
		<text transform="matrix(1 0 0 1 5.1926 13.7503)" display="inline" opacity="0.2" font-family="'FrutigerLTStd-Bold'" font-size="13">Q</text>
</g>
<g id="letters-text-objects" display="none">
	<text transform="matrix(1 0 0 1 4.4429 13.0002)" display="inline" font-family="'FrutigerLTStd-Bold'" font-size="13">Q</text>
</g>
<g id="shadows-outlines">
	<g opacity="0.2">
		<path d="M12.266,15.466l-1.587-1.586c-0.13,0.026-0.272,0.026-0.429,0.026c-2.912,0-4.446-1.938-4.446-4.72
			c0-2.781,1.56-4.667,4.446-4.667c2.848,0,4.446,1.925,4.446,4.667c0,1.95-0.793,3.523-2.288,4.238l2.054,2.041H12.266z
			 M10.25,12.476c1.859,0,2.548-1.65,2.548-3.289c0-1.599-0.741-3.236-2.548-3.236c-1.808,0-2.548,1.638-2.548,3.236
			C7.702,10.825,8.391,12.476,10.25,12.476z"/>
	</g>
</g>
<g id="letters-outlines">
	<g>
		<path d="M11.516,14.716L9.93,13.13c-0.131,0.026-0.273,0.026-0.43,0.026c-2.912,0-4.446-1.938-4.446-4.72
			c0-2.781,1.56-4.667,4.446-4.667c2.848,0,4.446,1.925,4.446,4.667c0,1.95-0.793,3.523-2.288,4.238l2.054,2.041H11.516z
			 M9.5,11.726c1.859,0,2.548-1.65,2.548-3.289c0-1.599-0.741-3.236-2.548-3.236S6.952,6.838,6.952,8.437
			C6.952,10.075,7.641,11.726,9.5,11.726z"/>
	</g>
</g>
<g id="guides_and_set-up" display="none">
</g>
</svg>
