<?xml version="1.0" encoding="utf-8"?>
<!-- Generator: Adobe Illustrator 18.1.1, SVG Export Plug-In . SVG Version: 6.00 Build 0)  -->
<svg version="1.1" xmlns="http://www.w3.org/2000/svg" xmlns:xlink="http://www.w3.org/1999/xlink" x="0px" y="0px"
	 viewBox="0 0 12 12" enable-background="new 0 0 12 12" xml:space="preserve">
<g id="shadows-text-objects" display="none">
	
		<text transform="matrix(1 0 0 1 2.4991 9.142)" display="inline" opacity="0.2" font-family="'FrutigerLTStd-Roman'" font-size="9">Q</text>
</g>
<g id="letters-text-objects" display="none">
	<text transform="matrix(1 0 0 1 1.999 8.6418)" display="inline" font-family="'FrutigerLTStd-Roman'" font-size="9">Q</text>
</g>
<g id="shadows-outlines">
	<g opacity="0.2">
		<path d="M6.505,9.214C6.425,9.223,6.344,9.231,6.263,9.24C6.182,9.25,6.092,9.25,6.001,9.25C4.084,9.25,2.977,7.908,2.977,6
			c0-1.863,1.116-3.25,3.024-3.25S9.026,4.137,9.026,6c0,1.404-0.604,2.502-1.693,2.979l1.459,1.323H7.676L6.505,9.214z
			 M6.001,8.457c1.449,0,2.07-1.206,2.07-2.457c0-1.278-0.684-2.467-2.07-2.458C4.615,3.533,3.931,4.722,3.931,6
			C3.931,7.251,4.552,8.457,6.001,8.457z"/>
	</g>
</g>
<g id="letters-outlines">
	<g>
		<path d="M6.005,8.714C5.924,8.723,5.844,8.731,5.762,8.74c-0.08,0.01-0.17,0.01-0.261,0.01c-1.917,0-3.024-1.342-3.024-3.25
			c0-1.863,1.115-3.25,3.024-3.25c1.908,0,3.025,1.387,3.025,3.25c0,1.404-0.604,2.502-1.693,2.979l1.459,1.323H7.176L6.005,8.714z
			 M5.501,7.957c1.449,0,2.07-1.206,2.07-2.457c0-1.278-0.684-2.467-2.07-2.458c-1.386-0.009-2.07,1.18-2.07,2.458
			C3.431,6.751,4.052,7.957,5.501,7.957z"/>
	</g>
</g>
<g id="guides_and_set-up" display="none">
</g>
</svg>
