<?xml version="1.0" encoding="utf-8"?>
<!-- Generator: Adobe Illustrator 18.1.1, SVG Export Plug-In . SVG Version: 6.00 Build 0)  -->
<svg version="1.1" xmlns="http://www.w3.org/2000/svg" xmlns:xlink="http://www.w3.org/1999/xlink" x="0px" y="0px"
	 viewBox="0 0 24 24" enable-background="new 0 0 24 24" xml:space="preserve">
<g id="shadows-text-objects" display="none">
	
		<text transform="matrix(1 0 0 1 8.3066 18.4326)" display="inline" opacity="0.2" font-family="'FrutigerLTStd-Bold'" font-size="17">R</text>
</g>
<g id="letters-text-objects" display="none">
	<text transform="matrix(1 0 0 1 7.3066 17.4329)" display="inline" font-family="'FrutigerLTStd-Bold'" font-size="17">R</text>
</g>
<g id="shadows-outlines">
	<g opacity="0.2">
		<path d="M9.479,6.568h2.567c2.549,0,5.592-0.086,5.592,3.212c0,1.394-0.935,2.55-2.447,2.754v0.034
			c0.646,0.051,1.02,0.697,1.258,1.224l1.903,4.641h-2.651l-1.428-3.706c-0.341-0.884-0.646-1.224-1.649-1.224h-0.765v4.93h-2.38
			V6.568z M11.859,11.633h0.782c1.172,0,2.516-0.17,2.516-1.648c0-1.428-1.326-1.547-2.516-1.547h-0.782V11.633z"/>
	</g>
</g>
<g id="letters-outlines">
	<g>
		<path d="M8.479,5.568h2.567c2.549,0,5.592-0.085,5.592,3.212c0,1.395-0.935,2.55-2.447,2.754v0.034
			c0.646,0.051,1.02,0.697,1.258,1.224l1.903,4.641h-2.651l-1.428-3.706c-0.34-0.884-0.646-1.224-1.649-1.224h-0.765v4.93h-2.38
			V5.568z M10.859,10.634h0.782c1.173,0,2.516-0.17,2.516-1.649c0-1.428-1.326-1.547-2.516-1.547h-0.782V10.634z"/>
	</g>
</g>
<g id="guides_and_set-up" display="none">
</g>
</svg>
