<?xml version="1.0" encoding="utf-8"?>
<!-- Generator: Adobe Illustrator 18.1.1, SVG Export Plug-In . SVG Version: 6.00 Build 0)  -->
<svg version="1.1" xmlns="http://www.w3.org/2000/svg" xmlns:xlink="http://www.w3.org/1999/xlink" x="0px" y="0px"
	 viewBox="0 0 18 18" enable-background="new 0 0 18 18" xml:space="preserve">
<g id="shadows-text-objects" display="none">
	
		<text transform="matrix(1 0 0 1 6.2781 13.7503)" display="inline" opacity="0.2" font-family="'FrutigerLTStd-Roman'" font-size="13">R</text>
</g>
<g id="letters-text-objects" display="none">
	<text transform="matrix(1 0 0 1 5.5283 13.0002)" display="inline" font-family="'FrutigerLTStd-Roman'" font-size="13">R</text>
</g>
<g id="shadows-outlines">
	<g opacity="0.2">
		<path d="M7.357,4.676H9.58c1.795,0,3.523,0.286,3.523,2.457c0,1.105-0.819,1.885-1.872,2.067v0.025
			c0.403,0.156,0.598,0.352,0.884,0.91l1.717,3.614H12.35l-1.391-3.146C10.556,9.72,10.126,9.72,9.438,9.72h-0.78v4.03h-1.3V4.676z
			 M8.657,8.576h1.105c1.234,0,1.963-0.546,1.963-1.417c0-0.819-0.624-1.339-1.82-1.339H8.657V8.576z"/>
	</g>
</g>
<g id="letters-outlines">
	<g>
		<path d="M6.607,3.926H8.83c1.795,0,3.523,0.286,3.523,2.457c0,1.105-0.819,1.885-1.872,2.067v0.025
			c0.403,0.156,0.598,0.352,0.884,0.91L13.082,13H11.6l-1.391-3.146C9.806,8.97,9.377,8.97,8.688,8.97h-0.78V13h-1.3V3.926z
			 M7.907,7.826h1.105c1.234,0,1.963-0.546,1.963-1.417c0-0.819-0.624-1.339-1.82-1.339H7.907V7.826z"/>
	</g>
</g>
<g id="guides_and_set-up" display="none">
</g>
</svg>
