<?xml version="1.0" encoding="utf-8"?>
<!-- Generator: Adobe Illustrator 18.1.1, SVG Export Plug-In . SVG Version: 6.00 Build 0)  -->
<svg version="1.1" xmlns="http://www.w3.org/2000/svg" xmlns:xlink="http://www.w3.org/1999/xlink" x="0px" y="0px"
	 viewBox="0 0 24 24" enable-background="new 0 0 24 24" xml:space="preserve">
<g id="shadows-text-objects" display="none">
	
		<text transform="matrix(1 0 0 1 8.3066 18.4326)" display="inline" opacity="0.2" font-family="'FrutigerLTStd-Roman'" font-size="17">R</text>
</g>
<g id="letters-text-objects" display="none">
	<text transform="matrix(1 0 0 1 7.3066 17.4329)" display="inline" font-family="'FrutigerLTStd-Roman'" font-size="17">R</text>
</g>
<g id="shadows-outlines">
	<g opacity="0.2">
		<path d="M9.717,6.568h2.907c2.346,0,4.606,0.373,4.606,3.212c0,1.445-1.07,2.465-2.447,2.703v0.034
			c0.526,0.203,0.781,0.459,1.155,1.189l2.244,4.726h-1.938l-1.819-4.113c-0.527-1.156-1.088-1.156-1.989-1.156h-1.02v5.27h-1.7
			V6.568z M11.417,11.668h1.445c1.614,0,2.566-0.715,2.566-1.854c0-1.07-0.815-1.751-2.38-1.751h-1.631V11.668z"/>
	</g>
</g>
<g id="letters-outlines">
	<g>
		<path d="M8.717,5.568h2.907c2.346,0,4.606,0.374,4.606,3.212c0,1.445-1.07,2.465-2.447,2.703v0.034
			c0.526,0.204,0.781,0.459,1.155,1.189l2.244,4.726h-1.938l-1.819-4.113c-0.527-1.156-1.088-1.156-1.989-1.156h-1.02v5.27h-1.7
			V5.568z M10.417,10.668h1.445c1.614,0,2.566-0.715,2.566-1.854c0-1.07-0.815-1.751-2.379-1.751h-1.632V10.668z"/>
	</g>
</g>
<g id="guides_and_set-up" display="none">
</g>
</svg>
