<?xml version="1.0" encoding="UTF-8" standalone="no"?>
<svg width="18px" height="18px" viewBox="0 0 18 18" version="1.1" xmlns="http://www.w3.org/2000/svg" xmlns:xlink="http://www.w3.org/1999/xlink" xmlns:sketch="http://www.bohemiancoding.com/sketch/ns">
    <!-- Generator: Sketch 3.2.2 (9983) - http://www.bohemiancoding.com/sketch -->
    <title>radiator-water-white-18</title>
    <desc>Created with Sketch.</desc>
    <defs></defs>
    <g id="Page-1" stroke="none" stroke-width="1" fill="none" fill-rule="evenodd" sketch:type="MSPage">
        <path d="M2,2 C2.92592593,2 6,3.39423255 7.18518519,5.40893507 L5.97037037,6.3797881 C5.97037037,6.3797881 4.5037037,4.6497718 2,4.18989405 L2,2" id="Fill-319" opacity="0.5" fill="#0A0B09" sketch:type="MSShapeGroup"></path>
        <path d="M5.7037037,9.81062211 C5.7037037,10.3361967 6.2,10.7595762 6.81481481,10.7595762 C7.42962963,10.7595762 7.92592593,10.3361967 7.92592593,9.81062211 C7.92592593,9.29234719 6.81481481,7.10975278 6.81481481,7.10975278 C6.81481481,7.10975278 5.7037037,9.29234719 5.7037037,9.81062211" id="Fill-320" opacity="0.5" fill="#0A0B09" sketch:type="MSShapeGroup"></path>
        <path d="M4.96296296,15.1393643 L4.96296296,12.2195056 L5.7037037,11.4895409 L10.8888889,10.7595762 L18.2962963,10.7595762 L18.2962963,15.1393643 L12.3703704,15.1393643 L12.3703704,13.6794349 L11.6296296,13.6794349 L11.6296296,12.9494703 L10.8888889,12.9494703 L10.8888889,12.2195056 L7.92592593,12.2195056 L7.92592593,12.9494703 L7.18518519,12.9494703 L7.18518519,13.6794349 L6.44444444,13.6794349 L6.44444444,15.1393643 L4.96296296,15.1393643" id="Fill-321" opacity="0.5" fill="#0A0B09" sketch:type="MSShapeGroup"></path>
        <path d="M13.8518519,10.7595762 L16.0740741,7.83971747 L18.2962963,7.83971747 L18.2962963,6.74477044 L15.3333333,6.74477044 L13.1111111,10.0296115 L12.3703704,10.0296115 L10.1481481,5.64982342 L8.66666667,5.64982342 L8.66666667,6.3797881 L9.40740741,6.3797881 L11.6296296,10.7595762 L13.8518519,10.7595762" id="Fill-322" opacity="0.5" fill="#0A0B09" sketch:type="MSShapeGroup"></path>
        <path d="M8.66666667,15.869329 L10.1481481,15.869329 L10.1481481,14.4093996 L8.66666667,14.4093996 L8.66666667,15.869329 Z M11.6296296,15.1393643 C11.6296296,16.3511057 10.637037,17.3292584 9.40740741,17.3292584 C8.17777778,17.3292584 7.18518519,16.3511057 7.18518519,15.1393643 C7.18518519,13.9349226 8.17777778,12.9494703 9.40740741,12.9494703 C10.637037,12.9494703 11.6296296,13.9349226 11.6296296,15.1393643 L11.6296296,15.1393643 Z" id="Fill-323" opacity="0.5" fill="#0A0B09" sketch:type="MSShapeGroup"></path>
        <path d="M1,1 C1.92592593,1 5,2.39423255 6.18518519,4.40893507 L4.97037037,5.3797881 C4.97037037,5.3797881 3.5037037,3.6497718 1,3.18989405 L1,1" id="Fill-319" opacity="0.75" fill="#0A0B09" sketch:type="MSShapeGroup"></path>
        <path d="M4.7037037,8.81062211 C4.7037037,9.33619669 5.2,9.7595762 5.81481481,9.7595762 C6.42962963,9.7595762 6.92592593,9.33619669 6.92592593,8.81062211 C6.92592593,8.29234719 5.81481481,6.10975278 5.81481481,6.10975278 C5.81481481,6.10975278 4.7037037,8.29234719 4.7037037,8.81062211" id="Fill-320" opacity="0.75" fill="#0A0B09" sketch:type="MSShapeGroup"></path>
        <path d="M3.96296296,14.1393643 L3.96296296,11.2195056 L4.7037037,10.4895409 L9.88888889,9.7595762 L17.2962963,9.7595762 L17.2962963,14.1393643 L11.3703704,14.1393643 L11.3703704,12.6794349 L10.6296296,12.6794349 L10.6296296,11.9494703 L9.88888889,11.9494703 L9.88888889,11.2195056 L6.92592593,11.2195056 L6.92592593,11.9494703 L6.18518519,11.9494703 L6.18518519,12.6794349 L5.44444444,12.6794349 L5.44444444,14.1393643 L3.96296296,14.1393643" id="Fill-321" opacity="0.75" fill="#0A0B09" sketch:type="MSShapeGroup"></path>
        <path d="M12.8518519,9.7595762 L15.0740741,6.83971747 L17.2962963,6.83971747 L17.2962963,5.74477044 L14.3333333,5.74477044 L12.1111111,9.02961152 L11.3703704,9.02961152 L9.14814815,4.64982342 L7.66666667,4.64982342 L7.66666667,5.3797881 L8.40740741,5.3797881 L10.6296296,9.7595762 L12.8518519,9.7595762" id="Fill-322" opacity="0.75" fill="#0A0B09" sketch:type="MSShapeGroup"></path>
        <path d="M7.66666667,14.869329 L9.14814815,14.869329 L9.14814815,13.4093996 L7.66666667,13.4093996 L7.66666667,14.869329 Z M10.6296296,14.1393643 C10.6296296,15.3511057 9.63703704,16.3292584 8.40740741,16.3292584 C7.17777778,16.3292584 6.18518519,15.3511057 6.18518519,14.1393643 C6.18518519,12.9349226 7.17777778,11.9494703 8.40740741,11.9494703 C9.63703704,11.9494703 10.6296296,12.9349226 10.6296296,14.1393643 L10.6296296,14.1393643 Z" id="Fill-323" opacity="0.75" fill="#0A0B09" sketch:type="MSShapeGroup"></path>
        <path d="M0,0 C0.925925926,0 4,1.39423255 5.18518519,3.40893507 L3.97037037,4.3797881 C3.97037037,4.3797881 2.5037037,2.6497718 0,2.18989405 L0,0" id="Fill-319" fill="#FFFFFF" sketch:type="MSShapeGroup"></path>
        <path d="M3.7037037,7.81062211 C3.7037037,8.33619669 4.2,8.7595762 4.81481481,8.7595762 C5.42962963,8.7595762 5.92592593,8.33619669 5.92592593,7.81062211 C5.92592593,7.29234719 4.81481481,5.10975278 4.81481481,5.10975278 C4.81481481,5.10975278 3.7037037,7.29234719 3.7037037,7.81062211" id="Fill-320" fill="#FFFFFF" sketch:type="MSShapeGroup"></path>
        <path d="M2.96296296,13.1393643 L2.96296296,10.2195056 L3.7037037,9.48954089 L8.88888889,8.7595762 L16.2962963,8.7595762 L16.2962963,13.1393643 L10.3703704,13.1393643 L10.3703704,11.6794349 L9.62962963,11.6794349 L9.62962963,10.9494703 L8.88888889,10.9494703 L8.88888889,10.2195056 L5.92592593,10.2195056 L5.92592593,10.9494703 L5.18518519,10.9494703 L5.18518519,11.6794349 L4.44444444,11.6794349 L4.44444444,13.1393643 L2.96296296,13.1393643" id="Fill-321" fill="#FFFFFF" sketch:type="MSShapeGroup"></path>
        <path d="M11.8518519,8.7595762 L14.0740741,5.83971747 L16.2962963,5.83971747 L16.2962963,4.74477044 L13.3333333,4.74477044 L11.1111111,8.02961152 L10.3703704,8.02961152 L8.14814815,3.64982342 L6.66666667,3.64982342 L6.66666667,4.3797881 L7.40740741,4.3797881 L9.62962963,8.7595762 L11.8518519,8.7595762" id="Fill-322" fill="#FFFFFF" sketch:type="MSShapeGroup"></path>
        <path d="M6.66666667,13.869329 L8.14814815,13.869329 L8.14814815,12.4093996 L6.66666667,12.4093996 L6.66666667,13.869329 Z M9.62962963,13.1393643 C9.62962963,14.3511057 8.63703704,15.3292584 7.40740741,15.3292584 C6.17777778,15.3292584 5.18518519,14.3511057 5.18518519,13.1393643 C5.18518519,11.9349226 6.17777778,10.9494703 7.40740741,10.9494703 C8.63703704,10.9494703 9.62962963,11.9349226 9.62962963,13.1393643 L9.62962963,13.1393643 Z" id="Fill-323" fill="#FFFFFF" sketch:type="MSShapeGroup"></path>
    </g>
</svg>