<?xml version="1.0" encoding="utf-8"?>
<!-- Generator: Adobe Illustrator 18.1.1, SVG Export Plug-In . SVG Version: 6.00 Build 0)  -->
<svg version="1.1" xmlns="http://www.w3.org/2000/svg" xmlns:xlink="http://www.w3.org/1999/xlink" x="0px" y="0px"
	 viewBox="0 0 12 12" enable-background="new 0 0 12 12" xml:space="preserve">
<g id="shadows">
	<g opacity="0.2">
		<polygon points="3.4,9.2 4.1,9.2 4.1,8.6 4.7,8.6 4.7,7.9 6.6,7.9 6.6,8.6 7.3,8.6 7.3,9.2 10.5,9.2 10.5,6.6 6.6,6.6 4.1,7.3 
			3.4,7.9 		"/>
		<polygon points="10.5,4.1 10.5,4.7 9.2,4.7 7.9,6.6 7.9,6 9.2,4.1 		"/>
		<polygon points="6,3.4 7.9,6.6 7.3,6.6 6,4.1 5.4,4.1 5.4,3.4 		"/>
		<polygon points="1.5,1.5 4.1,2.8 3.4,3.4 2.1,2.8 1.5,2.8 		"/>
		<path d="M6.6,10.5H4.7V8.6h1.9V10.5z M6,9.2H5.4v0.6H6V9.2z"/>
		<polygon points="4.1,4.1 4.7,5.4 4.7,6 3.4,6 3.4,5.4 		"/>
	</g>
</g>
<g id="icons">
	<g>
		<polygon points="2.9,8.7 3.6,8.7 3.6,8.1 4.2,8.1 4.2,7.4 6.1,7.4 6.1,8.1 6.8,8.1 6.8,8.7 10,8.7 10,6.1 6.1,6.1 3.6,6.8 
			2.9,7.4 		"/>
		<polygon points="10,3.6 10,4.2 8.7,4.2 7.4,6.1 7.4,5.5 8.7,3.6 		"/>
		<polygon points="5.5,2.9 7.4,6.1 6.8,6.1 5.5,3.6 4.9,3.6 4.9,2.9 		"/>
		<polygon points="1,1 3.6,2.3 2.9,2.9 1.6,2.3 1,2.3 		"/>
		<path d="M6.1,10H4.2V8.1h1.9V10z M5.5,8.7H4.9v0.6h0.6V8.7z"/>
		<polygon points="3.6,3.6 4.2,4.9 4.2,5.5 2.9,5.5 2.9,4.9 		"/>
	</g>
</g>
</svg>
