<?xml version="1.0" encoding="utf-8"?>
<!-- Generator: Adobe Illustrator 18.1.1, SVG Export Plug-In . SVG Version: 6.00 Build 0)  -->
<svg version="1.1" xmlns="http://www.w3.org/2000/svg" xmlns:xlink="http://www.w3.org/1999/xlink" x="0px" y="0px"
	 viewBox="0 0 24 24" enable-background="new 0 0 24 24" xml:space="preserve">
<g id="shadows">
	<g opacity="0.2">
		<path d="M5,4.4c1,0,4.2,1.5,5.4,3.6L9.1,9c0,0-1.5-1.8-4.1-2.3V5.2L5,4.4z"/>
		<path d="M8.9,12.7c0,0.6,0.5,1,1.2,1c0.6,0,1.2-0.5,1.2-1c0-0.6-1.2-2.9-1.2-2.9S8.9,12.1,8.9,12.7z"/>
		<polygon points="8.1,18.3 8.1,15.2 8.9,14.4 14.3,13.7 22,13.7 22,18.3 15.8,18.3 15.8,16.8 15,16.8 15,16 14.3,16 14.3,15.2 
			11.2,15.2 11.2,16 10.4,16 10.4,16.8 9.6,16.8 9.6,18.3 		"/>
		<polygon points="17.4,13.7 19.7,10.6 22,10.6 22,9.4 18.9,9.4 16.6,12.9 15.8,12.9 13.5,8.2 12,8.2 12,9 12.7,9 15,13.7 		"/>
		<path d="M15,18.3c0,1.3-1,2.3-2.3,2.3s-2.3-1-2.3-2.3s1-2.3,2.3-2.3S15,17,15,18.3z M13.5,17.5H12v1.5h1.5V17.5z"/>
	</g>
</g>
<g id="icons">
	<g>
		<path fill="#FFFFFF" d="M4,3.4c1,0,4.2,1.5,5.4,3.6L8.1,8c0,0-1.5-1.8-4.1-2.3V4.2L4,3.4z"/>
		<path fill="#FFFFFF" d="M7.9,11.7c0,0.6,0.5,1,1.2,1c0.6,0,1.2-0.5,1.2-1c0-0.6-1.2-2.9-1.2-2.9S7.9,11.1,7.9,11.7z"/>
		<polygon fill="#FFFFFF" points="7.1,17.3 7.1,14.2 7.9,13.4 13.3,12.7 21,12.7 21,17.3 14.8,17.3 14.8,15.8 14,15.8 14,15 
			13.3,15 13.3,14.2 10.2,14.2 10.2,15 9.4,15 9.4,15.8 8.6,15.8 8.6,17.3 		"/>
		<polygon fill="#FFFFFF" points="16.4,12.7 18.7,9.6 21,9.6 21,8.4 17.9,8.4 15.6,11.9 14.8,11.9 12.5,7.2 11,7.2 11,8 11.7,8 
			14,12.7 		"/>
		<path fill="#FFFFFF" d="M14,17.3c0,1.3-1,2.3-2.3,2.3s-2.3-1-2.3-2.3s1-2.3,2.3-2.3S14,16,14,17.3z M12.5,16.5H11v1.5h1.5V16.5z"
			/>
	</g>
</g>
</svg>
