<?xml version="1.0" encoding="utf-8"?>
<!-- Generator: Adobe Illustrator 18.1.1, SVG Export Plug-In . SVG Version: 6.00 Build 0)  -->
<svg version="1.1" xmlns="http://www.w3.org/2000/svg" xmlns:xlink="http://www.w3.org/1999/xlink" x="0px" y="0px"
	 viewBox="0 0 18 18" enable-background="new 0 0 18 18" xml:space="preserve">
<g id="shadows">
	<g opacity="0.2">
		<polygon points="6.5,13.9 7.5,13.9 7.5,13 8.4,13 8.4,12 11.2,12 11.2,13 12.1,13 12.1,13.9 16.8,13.9 16.8,10.2 11.2,10.2 
			7.5,11.1 6.5,12 		"/>
		<polygon points="16.8,6.5 16.8,7.4 14.9,7.4 13,10.2 13,9.2 14.9,6.5 		"/>
		<polygon points="10.2,5.5 13,10.2 12.1,10.2 10.2,6.5 9.3,6.5 9.3,5.5 		"/>
		<polygon points="3.8,2.8 7.5,4.6 6.5,5.5 4.7,4.6 3.8,4.6 		"/>
		<path d="M11.2,15.8H8.4V13h2.8V15.8z M10.2,13.9H9.3v0.9h0.9V13.9z"/>
		<polygon points="7.5,6.5 8.4,8.3 8.4,9.2 6.5,9.2 6.5,8.3 		"/>
	</g>
</g>
<g id="icons">
	<g>
		<polygon points="5.8,13.1 6.7,13.1 6.7,12.2 7.6,12.2 7.6,11.3 10.4,11.3 10.4,12.2 11.4,12.2 11.4,13.1 16,13.1 16,9.4 10.4,9.4 
			6.7,10.4 5.8,11.3 		"/>
		<polygon points="16,5.7 16,6.6 14.1,6.6 12.3,9.4 12.3,8.5 14.1,5.7 		"/>
		<polygon points="9.5,4.8 12.3,9.4 11.4,9.4 9.5,5.7 8.6,5.7 8.6,4.8 		"/>
		<polygon points="3,2 6.7,3.9 5.8,4.8 3.9,3.9 3,3.9 		"/>
		<path d="M10.4,15H7.6v-2.8h2.8V15z M9.5,13.1H8.6v0.9h0.9V13.1z"/>
		<polygon points="6.7,5.7 7.6,7.6 7.6,8.5 5.8,8.5 5.8,7.6 		"/>
	</g>
</g>
</svg>
