<?xml version="1.0" encoding="utf-8"?>
<!-- Generator: Adobe Illustrator 18.1.1, SVG Export Plug-In . SVG Version: 6.00 Build 0)  -->
<svg version="1.1" xmlns="http://www.w3.org/2000/svg" xmlns:xlink="http://www.w3.org/1999/xlink" x="0px" y="0px"
	 viewBox="0 0 12 12" enable-background="new 0 0 12 12" xml:space="preserve">
<g id="shadows">
	<g opacity="0.2">
		<polygon points="4.429,9.214 5.071,9.214 5.071,8.571 5.714,8.571 5.714,7.929 7.643,7.929 7.643,8.571 8.286,8.571 8.286,9.214 
			11.5,9.214 11.5,6.643 7.643,6.643 5.071,7.286 4.429,7.929 		"/>
		<polygon points="11.5,4.071 11.5,4.714 10.214,4.714 8.929,6.643 8.929,6 10.214,4.071 		"/>
		<polygon points="7,3.429 8.929,6.643 8.286,6.643 7,4.071 6.357,4.071 6.357,3.429 		"/>
		<polygon points="2.5,1.5 5.071,2.786 4.429,3.429 3.143,2.786 2.5,2.786 		"/>
		<path d="M7.643,10.5H5.714V8.571h1.929V10.5z M7,9.214H6.357v0.643H7V9.214z"/>
		<polygon points="5.071,4.071 5.714,5.357 5.714,6 4.429,6 4.429,5.357 		"/>
	</g>
</g>
<g id="icons">
	<g>
		<polygon points="3.929,8.714 4.571,8.714 4.571,8.071 5.214,8.071 5.214,7.429 7.143,7.429 7.143,8.071 7.786,8.071 7.786,8.714 
			11,8.714 11,6.143 7.143,6.143 4.571,6.786 3.929,7.429 		"/>
		<polygon points="11,3.571 11,4.214 9.714,4.214 8.429,6.143 8.429,5.5 9.714,3.571 		"/>
		<polygon points="6.5,2.929 8.429,6.143 7.786,6.143 6.5,3.571 5.857,3.571 5.857,2.929 		"/>
		<polygon points="2,1 4.571,2.286 3.929,2.929 2.643,2.286 2,2.286 		"/>
		<path d="M7.143,10H5.214V8.071h1.929V10z M6.5,8.714H5.857v0.643H6.5V8.714z"/>
		<polygon points="4.571,3.571 5.214,4.857 5.214,5.5 3.929,5.5 3.929,4.857 		"/>
	</g>
</g>
</svg>
