<?xml version="1.0" encoding="UTF-8" standalone="no"?>
<!-- Created with Inkscape (http://www.inkscape.org/) -->

<svg
   xmlns:dc="http://purl.org/dc/elements/1.1/"
   xmlns:cc="http://creativecommons.org/ns#"
   xmlns:rdf="http://www.w3.org/1999/02/22-rdf-syntax-ns#"
   xmlns:svg="http://www.w3.org/2000/svg"
   xmlns="http://www.w3.org/2000/svg"
   xmlns:sodipodi="http://sodipodi.sourceforge.net/DTD/sodipodi-0.dtd"
   xmlns:inkscape="http://www.inkscape.org/namespaces/inkscape"
   width="24"
   height="24"
   id="svg27349"
   version="1.1"
   inkscape:version="0.48.2 r9819"
   sodipodi:docname="sailing-white-24.svg">
  <defs
     id="defs27351" />
  <sodipodi:namedview
     id="base"
     pagecolor="#ffffff"
     bordercolor="#666666"
     borderopacity="1.0"
     inkscape:pageopacity="0.0"
     inkscape:pageshadow="2"
     inkscape:zoom="8.6123905"
     inkscape:cx="11.808263"
     inkscape:cy="10.533919"
     inkscape:document-units="px"
     inkscape:current-layer="layer1"
     showgrid="false"
     inkscape:window-width="483"
     inkscape:window-height="454"
     inkscape:window-x="3648"
     inkscape:window-y="148"
     inkscape:window-maximized="0"
     gridtolerance="10">
    <inkscape:grid
       type="xygrid"
       id="grid3004"
       empspacing="5"
       visible="true"
       enabled="true"
       snapvisiblegridlinesonly="true" />
  </sodipodi:namedview>
  <metadata
     id="metadata27354">
    <rdf:RDF>
      <cc:Work
         rdf:about="">
        <dc:format>image/svg+xml</dc:format>
        <dc:type
           rdf:resource="http://purl.org/dc/dcmitype/StillImage" />
        <dc:title></dc:title>
      </cc:Work>
    </rdf:RDF>
  </metadata>
  <g
     inkscape:label="Layer 1"
     inkscape:groupmode="layer"
     id="layer1"
     transform="translate(0,-1028.3622)">
    <g
       transform="matrix(2.3061401,0,0,2.3061401,-1245.021,788.11592)"
       id="g17341">
      <g
         transform="translate(518.466,-352.148)"
         style="opacity:0.6;fill:none;stroke:#1b1b1c;stroke-width:0.5;stroke-miterlimit:4;stroke-opacity:1;stroke-dasharray:none"
         id="g17343">
        <path
           d="m 30.412,466.449 c 0.652,0 1.184,-0.529 1.184,-1.184 v -7.539 c 0,-0.652 -0.531,-1.184 -1.184,-1.184 h -7.539 c -0.654,0 -1.184,0.531 -1.184,1.184 v 7.539 c 0,0.654 0.529,1.184 1.184,1.184 h 7.539 z"
           id="path17345"
           inkscape:connector-curvature="0"
           style="opacity:0;fill:none;stroke:#1b1b1c;stroke-width:0.5;stroke-miterlimit:4;stroke-opacity:1;stroke-dasharray:none" />
        <g
           style="fill:none;stroke:#1b1b1c;stroke-width:0.5;stroke-miterlimit:4;stroke-opacity:1;stroke-dasharray:none"
           id="g17347">
          <path
             style="fill:none;stroke:#1b1b1c;stroke-width:0.5;stroke-miterlimit:4;stroke-opacity:1;stroke-dasharray:none"
             inkscape:connector-curvature="0"
             id="path17349"
             d="m 26.918,464.148 c 0,-0.26 -0.21,-0.471 -0.472,-0.471 -0.258,0 -0.47,0.211 -0.47,0.471 0,0.258 0.212,0.469 0.47,0.469 0.262,0 0.472,-0.211 0.472,-0.469 z m -0.471,1.086 c -0.599,0 -1.083,-0.484 -1.083,-1.086 0,-0.6 0.484,-1.086 1.083,-1.086 0.602,0 1.087,0.486 1.087,1.086 0,0.602 -0.486,1.086 -1.087,1.086 z" />
          <path
             style="fill:none;stroke:#1b1b1c;stroke-width:0.5;stroke-miterlimit:4;stroke-opacity:1;stroke-dasharray:none"
             inkscape:connector-curvature="0"
             id="path17351"
             d="m 24.152,463.125 c 0.078,-0.547 0.299,-0.822 0.455,-0.859 0.912,-0.207 2.5,-0.316 3.146,-0.361 l -1.625,-2.684 h 0.488 l 1.578,2.611 1.016,-1.658 c 0.049,-0.076 0.221,-0.266 0.572,-0.266 h 1.053 v 0.418 h -1.053 c 0,0 -0.117,-0.006 -0.209,0.08 -0.051,0.047 -0.086,0.115 -0.178,0.266 l -0.715,1.201 h 1.994 v 2.176 h -2.727 c -0.049,-0.791 -0.701,-1.422 -1.506,-1.422 -0.805,0 -1.457,0.631 -1.504,1.424 h -0.6 c -0.156,0 -0.283,-0.127 -0.283,-0.283 l 0.098,-0.643 z" />
          <path
             style="fill:none;stroke:#1b1b1c;stroke-width:0.5;stroke-miterlimit:4;stroke-opacity:1;stroke-dasharray:none"
             inkscape:connector-curvature="0"
             id="path17353"
             d="m 22.539,457.471 c 0.469,0 1.967,0.664 2.568,1.699 l -0.631,0.514 c 0,0 -0.668,-0.906 -1.938,-1.143 v -1.07 z" />
          <path
             style="fill:none;stroke:#1b1b1c;stroke-width:0.5;stroke-miterlimit:4;stroke-opacity:1;stroke-dasharray:none"
             inkscape:connector-curvature="0"
             id="path17355"
             d="m 24.439,461.184 c 0,0.303 0.244,0.549 0.547,0.549 0.303,0 0.549,-0.246 0.549,-0.549 0,-0.301 -0.549,-1.561 -0.549,-1.561 0,0 -0.547,1.26 -0.547,1.561 z" />
        </g>
      </g>
      <path
         d="m 548.878,114.301 c 0.652,0 1.184,-0.529 1.184,-1.184 v -7.539 c 0,-0.652 -0.531,-1.184 -1.184,-1.184 h -7.539 c -0.654,0 -1.184,0.531 -1.184,1.184 v 7.539 c 0,0.654 0.529,1.184 1.184,1.184 h 7.539 z"
         id="path17357"
         inkscape:connector-curvature="0"
         style="opacity:0;fill:#ffffff;fill-opacity:1" />
      <g
         transform="translate(518.466,-352.148)"
         id="g17359"
         style="fill:#ffffff;fill-opacity:1;stroke:none">
        <path
           style="fill:#ffffff;fill-opacity:1;stroke:none"
           inkscape:connector-curvature="0"
           id="path17361"
           d="m 26.918,464.148 c 0,-0.26 -0.21,-0.471 -0.472,-0.471 -0.258,0 -0.47,0.211 -0.47,0.471 0,0.258 0.212,0.469 0.47,0.469 0.262,0 0.472,-0.211 0.472,-0.469 z m -0.471,1.086 c -0.599,0 -1.083,-0.484 -1.083,-1.086 0,-0.6 0.484,-1.086 1.083,-1.086 0.602,0 1.087,0.486 1.087,1.086 0,0.602 -0.486,1.086 -1.087,1.086 z" />
        <path
           style="fill:#ffffff;fill-opacity:1;stroke:none"
           inkscape:connector-curvature="0"
           id="path17363"
           d="m 24.152,463.125 c 0.078,-0.547 0.299,-0.822 0.455,-0.859 0.912,-0.207 2.5,-0.316 3.146,-0.361 l -1.625,-2.684 h 0.488 l 1.578,2.611 1.016,-1.658 c 0.049,-0.076 0.221,-0.266 0.572,-0.266 h 1.053 v 0.418 h -1.053 c 0,0 -0.117,-0.006 -0.209,0.08 -0.051,0.047 -0.086,0.115 -0.178,0.266 l -0.715,1.201 h 1.994 v 2.176 h -2.727 c -0.049,-0.791 -0.701,-1.422 -1.506,-1.422 -0.805,0 -1.457,0.631 -1.504,1.424 h -0.6 c -0.156,0 -0.283,-0.127 -0.283,-0.283 l 0.098,-0.643 z" />
        <path
           style="fill:#ffffff;fill-opacity:1;stroke:none"
           inkscape:connector-curvature="0"
           id="path17365"
           d="m 22.539,457.471 c 0.469,0 1.967,0.664 2.568,1.699 l -0.631,0.514 c 0,0 -0.668,-0.906 -1.938,-1.143 v -1.07 z" />
        <path
           style="fill:#ffffff;fill-opacity:1;stroke:none"
           inkscape:connector-curvature="0"
           id="path17367"
           d="m 24.439,461.184 c 0,0.303 0.244,0.549 0.547,0.549 0.303,0 0.549,-0.246 0.549,-0.549 0,-0.301 -0.549,-1.561 -0.549,-1.561 0,0 -0.547,1.26 -0.547,1.561 z" />
      </g>
    </g>
  </g>
</svg>
