<?xml version="1.0" encoding="UTF-8" standalone="no"?>
<svg width="12px" height="12px" viewBox="0 0 12 12" version="1.1" xmlns="http://www.w3.org/2000/svg" xmlns:xlink="http://www.w3.org/1999/xlink" xmlns:sketch="http://www.bohemiancoding.com/sketch/ns">
    <!-- Generator: Sketch 3.2.2 (9983) - http://www.bohemiancoding.com/sketch -->
    <title>radiator-water-black-12</title>
    <desc>Created with Sketch.</desc>
    <defs></defs>
    <g id="Page-1" stroke="none" stroke-width="1" fill="none" fill-rule="evenodd" sketch:type="MSPage">
        <path d="M4.11764706,10.522314 L4.82352941,10.522314 L4.82352941,9.81212121 L5.52941176,9.81212121 L5.52941176,9.10192837 L7.64705882,9.10192837 L7.64705882,9.81212121 L8.35294118,9.81212121 L8.35294118,10.522314 L11.8823529,10.522314 L11.8823529,7.6815427 L7.64705882,7.6815427 L4.82352941,8.39173554 L4.11764706,9.10192837 L4.11764706,10.522314" id="Fill-324" fill-opacity="0.1" fill="#0A0B09" sketch:type="MSShapeGroup"></path>
        <path d="M11.8823529,4.84077135 L11.8823529,5.55096419 L10.4705882,5.55096419 L9.05882353,7.6815427 L9.05882353,6.97134986 L10.4705882,4.84077135 L11.8823529,4.84077135" id="Fill-325" fill-opacity="0.1" fill="#0A0B09" sketch:type="MSShapeGroup"></path>
        <path d="M6.94117647,4.13057851 L9.05882353,7.6815427 L8.35294118,7.6815427 L6.94117647,4.84077135 L6.23529412,4.84077135 L6.23529412,4.13057851 L6.94117647,4.13057851" id="Fill-326" fill-opacity="0.1" fill="#0A0B09" sketch:type="MSShapeGroup"></path>
        <path d="M2,2 L4.82352941,3.42038567 L4.11764706,4.13057851 L2.70588235,3.42038567 L2,3.42038567 L2,2" id="Fill-327" fill-opacity="0.1" fill="#0A0B09" sketch:type="MSShapeGroup"></path>
        <path d="M6.23529412,11.2325069 L6.94117647,11.2325069 L6.94117647,10.522314 L6.23529412,10.522314 L6.23529412,11.2325069 Z M5.52941176,9.81212121 L7.64705882,9.81212121 L7.64705882,11.9426997 L5.52941176,11.9426997 L5.52941176,9.81212121 Z" id="Fill-328" fill-opacity="0.1" fill="#0A0B09" sketch:type="MSShapeGroup"></path>
        <path d="M4.82352941,4.84077135 L5.52941176,6.26115702 L5.52941176,6.97134986 L4.11764706,6.97134986 L4.11764706,6.26115702 L4.82352941,4.84077135" id="Fill-329" fill-opacity="0.1" fill="#0A0B09" sketch:type="MSShapeGroup"></path>
        <path d="M3.11764706,9.52231405 L3.82352941,9.52231405 L3.82352941,8.81212121 L4.52941176,8.81212121 L4.52941176,8.10192837 L6.64705882,8.10192837 L6.64705882,8.81212121 L7.35294118,8.81212121 L7.35294118,9.52231405 L10.8823529,9.52231405 L10.8823529,6.6815427 L6.64705882,6.6815427 L3.82352941,7.39173554 L3.11764706,8.10192837 L3.11764706,9.52231405" id="Fill-324" opacity="0.2" fill="#0A0B09" sketch:type="MSShapeGroup"></path>
        <path d="M10.8823529,3.84077135 L10.8823529,4.55096419 L9.47058824,4.55096419 L8.05882353,6.6815427 L8.05882353,5.97134986 L9.47058824,3.84077135 L10.8823529,3.84077135" id="Fill-325" opacity="0.2" fill="#0A0B09" sketch:type="MSShapeGroup"></path>
        <path d="M5.94117647,3.13057851 L8.05882353,6.6815427 L7.35294118,6.6815427 L5.94117647,3.84077135 L5.23529412,3.84077135 L5.23529412,3.13057851 L5.94117647,3.13057851" id="Fill-326" opacity="0.2" fill="#0A0B09" sketch:type="MSShapeGroup"></path>
        <path d="M1,1 L3.82352941,2.42038567 L3.11764706,3.13057851 L1.70588235,2.42038567 L1,2.42038567 L1,1" id="Fill-327" opacity="0.2" fill="#0A0B09" sketch:type="MSShapeGroup"></path>
        <path d="M5.23529412,10.2325069 L5.94117647,10.2325069 L5.94117647,9.52231405 L5.23529412,9.52231405 L5.23529412,10.2325069 Z M4.52941176,8.81212121 L6.64705882,8.81212121 L6.64705882,10.9426997 L4.52941176,10.9426997 L4.52941176,8.81212121 Z" id="Fill-328" opacity="0.2" fill="#0A0B09" sketch:type="MSShapeGroup"></path>
        <path d="M3.82352941,3.84077135 L4.52941176,5.26115702 L4.52941176,5.97134986 L3.11764706,5.97134986 L3.11764706,5.26115702 L3.82352941,3.84077135" id="Fill-329" opacity="0.2" fill="#0A0B09" sketch:type="MSShapeGroup"></path>
        <path d="M2.11764706,8.52231405 L2.82352941,8.52231405 L2.82352941,7.81212121 L3.52941176,7.81212121 L3.52941176,7.10192837 L5.64705882,7.10192837 L5.64705882,7.81212121 L6.35294118,7.81212121 L6.35294118,8.52231405 L9.88235294,8.52231405 L9.88235294,5.6815427 L5.64705882,5.6815427 L2.82352941,6.39173554 L2.11764706,7.10192837 L2.11764706,8.52231405" id="Fill-324" fill="#0A0B09" sketch:type="MSShapeGroup"></path>
        <path d="M9.88235294,2.84077135 L9.88235294,3.55096419 L8.47058824,3.55096419 L7.05882353,5.6815427 L7.05882353,4.97134986 L8.47058824,2.84077135 L9.88235294,2.84077135" id="Fill-325" fill="#0A0B09" sketch:type="MSShapeGroup"></path>
        <path d="M4.94117647,2.13057851 L7.05882353,5.6815427 L6.35294118,5.6815427 L4.94117647,2.84077135 L4.23529412,2.84077135 L4.23529412,2.13057851 L4.94117647,2.13057851" id="Fill-326" fill="#0A0B09" sketch:type="MSShapeGroup"></path>
        <path d="M0,0 L2.82352941,1.42038567 L2.11764706,2.13057851 L0.705882353,1.42038567 L0,1.42038567 L0,0" id="Fill-327" fill="#0A0B09" sketch:type="MSShapeGroup"></path>
        <path d="M4.23529412,9.23250689 L4.94117647,9.23250689 L4.94117647,8.52231405 L4.23529412,8.52231405 L4.23529412,9.23250689 Z M3.52941176,7.81212121 L5.64705882,7.81212121 L5.64705882,9.94269972 L3.52941176,9.94269972 L3.52941176,7.81212121 Z" id="Fill-328" fill="#0A0B09" sketch:type="MSShapeGroup"></path>
        <path d="M2.82352941,2.84077135 L3.52941176,4.26115702 L3.52941176,4.97134986 L2.11764706,4.97134986 L2.11764706,4.26115702 L2.82352941,2.84077135" id="Fill-329" fill="#0A0B09" sketch:type="MSShapeGroup"></path>
    </g>
</svg>