<?xml version="1.0" encoding="utf-8"?>
<!-- Generator: Adobe Illustrator 18.1.1, SVG Export Plug-In . SVG Version: 6.00 Build 0)  -->
<svg version="1.1" xmlns="http://www.w3.org/2000/svg" xmlns:xlink="http://www.w3.org/1999/xlink" x="0px" y="0px"
	 viewBox="0 0 18 18" enable-background="new 0 0 18 18" xml:space="preserve">
<g id="shadows">
	<g opacity="0.2">
		<polygon points="6.536,13.893 7.464,13.893 7.464,12.964 8.393,12.964 8.393,12.036 11.179,12.036 11.179,12.964 12.107,12.964 
			12.107,13.893 16.75,13.893 16.75,10.179 11.179,10.179 7.464,11.107 6.536,12.036 		"/>
		<polygon points="16.75,6.464 16.75,7.393 14.893,7.393 13.036,10.179 13.036,9.25 14.893,6.464 		"/>
		<polygon points="10.25,5.536 13.036,10.179 12.107,10.179 10.25,6.464 9.321,6.464 9.321,5.536 		"/>
		<polygon points="3.75,2.75 7.464,4.607 6.536,5.536 4.679,4.607 3.75,4.607 		"/>
		<path d="M11.179,15.75H8.393v-2.786h2.786V15.75z M10.25,13.893H9.321v0.929h0.929V13.893z"/>
		<polygon points="7.464,6.464 8.393,8.321 8.393,9.25 6.536,9.25 6.536,8.321 		"/>
	</g>
</g>
<g id="icons">
	<g>
		<polygon points="5.786,13.143 6.714,13.143 6.714,12.214 7.643,12.214 7.643,11.286 10.429,11.286 10.429,12.214 11.357,12.214 
			11.357,13.143 16,13.143 16,9.429 10.429,9.429 6.714,10.357 5.786,11.286 		"/>
		<polygon points="16,5.714 16,6.643 14.143,6.643 12.286,9.429 12.286,8.5 14.143,5.714 		"/>
		<polygon points="9.5,4.786 12.286,9.429 11.357,9.429 9.5,5.714 8.571,5.714 8.571,4.786 		"/>
		<polygon points="3,2 6.714,3.857 5.786,4.786 3.929,3.857 3,3.857 		"/>
		<path d="M10.429,15H7.643v-2.786h2.786V15z M9.5,13.143H8.571v0.929H9.5V13.143z"/>
		<polygon points="6.714,5.714 7.643,7.571 7.643,8.5 5.786,8.5 5.786,7.571 		"/>
	</g>
</g>
</svg>
