<?xml version="1.0" encoding="utf-8"?>
<!-- Generator: Adobe Illustrator 18.1.1, SVG Export Plug-In . SVG Version: 6.00 Build 0)  -->
<svg version="1.1" xmlns="http://www.w3.org/2000/svg" xmlns:xlink="http://www.w3.org/1999/xlink" x="0px" y="0px"
	 viewBox="0 0 24 24" enable-background="new 0 0 24 24" xml:space="preserve">
<g id="shadows">
	<g opacity="0.2">
		<path d="M5.002,4.386c0.966,0,4.169,1.478,5.407,3.609L9.141,9.023c0,0-1.526-1.835-4.141-2.323V5.159L5.002,4.386z"/>
		<path d="M8.864,12.654c0,0.555,0.516,1.005,1.157,1.005c0.641,0,1.161-0.451,1.161-1.005c0-0.551-1.161-2.858-1.161-2.858
			S8.864,12.103,8.864,12.654z"/>
		<polygon points="8.091,18.295 8.091,15.205 8.864,14.432 14.273,13.659 22,13.659 22,18.295 15.818,18.295 15.818,16.75 
			15.045,16.75 15.045,15.977 14.273,15.977 14.273,15.205 11.182,15.205 11.182,15.977 10.409,15.977 10.409,16.75 9.636,16.75 
			9.636,18.295 		"/>
		<polygon points="17.364,13.659 19.682,10.568 22,10.568 22,9.409 18.909,9.409 16.591,12.886 15.818,12.886 13.5,8.25 
			11.955,8.25 11.955,9.023 12.727,9.023 15.045,13.659 		"/>
		<path d="M15.045,18.295c0,1.28-1.038,2.318-2.318,2.318s-2.318-1.038-2.318-2.318s1.038-2.318,2.318-2.318
			S15.045,17.015,15.045,18.295z M13.5,17.523h-1.545v1.545H13.5V17.523z"/>
	</g>
</g>
<g id="icons">
	<g>
		<path fill="#FFFFFF" d="M4.002,3.386c0.966,0,4.169,1.478,5.407,3.609L8.141,8.023c0,0-1.526-1.835-4.141-2.323V4.159L4.002,3.386
			z"/>
		<path fill="#FFFFFF" d="M7.864,11.654c0,0.555,0.516,1.005,1.157,1.005c0.641,0,1.161-0.451,1.161-1.005
			c0-0.551-1.161-2.858-1.161-2.858S7.864,11.103,7.864,11.654z"/>
		<polygon fill="#FFFFFF" points="7.091,17.295 7.091,14.205 7.864,13.432 13.273,12.659 21,12.659 21,17.295 14.818,17.295 
			14.818,15.75 14.045,15.75 14.045,14.977 13.273,14.977 13.273,14.205 10.182,14.205 10.182,14.977 9.409,14.977 9.409,15.75 
			8.636,15.75 8.636,17.295 		"/>
		<polygon fill="#FFFFFF" points="16.364,12.659 18.682,9.568 21,9.568 21,8.409 17.909,8.409 15.591,11.886 14.818,11.886 
			12.5,7.25 10.955,7.25 10.955,8.023 11.727,8.023 14.045,12.659 		"/>
		<path fill="#FFFFFF" d="M14.045,17.295c0,1.28-1.038,2.318-2.318,2.318s-2.318-1.038-2.318-2.318s1.038-2.318,2.318-2.318
			S14.045,16.015,14.045,17.295z M12.5,16.523h-1.545v1.545H12.5V16.523z"/>
	</g>
</g>
</svg>
