<?xml version="1.0" encoding="utf-8"?>
<!-- Generator: Adobe Illustrator 18.0.0, SVG Export Plug-In . SVG Version: 6.00 Build 0)  -->
<!DOCTYPE svg PUBLIC "-//W3C//DTD SVG 1.1//EN" "http://www.w3.org/Graphics/SVG/1.1/DTD/svg11.dtd" [
	<!ENTITY ns_flows "http://ns.adobe.com/Flows/1.0/">
	<!ENTITY ns_extend "http://ns.adobe.com/Extensibility/1.0/">
	<!ENTITY ns_ai "http://ns.adobe.com/AdobeIllustrator/10.0/">
	<!ENTITY ns_graphs "http://ns.adobe.com/Graphs/1.0/">
	<!ENTITY st0 "opacity:0.5;">
	<!ENTITY st1 "fill:#010101;">
	<!ENTITY st2 "opacity:0.75;">
	<!ENTITY st3 "fill:#FFFFFF;">
]>
<svg version="1.1" id="Layer_1" xmlns:x="&ns_extend;" xmlns:i="&ns_ai;" xmlns:graph="&ns_graphs;"
	 xmlns="http://www.w3.org/2000/svg" xmlns:xlink="http://www.w3.org/1999/xlink" xmlns:a="http://ns.adobe.com/AdobeSVGViewerExtensions/3.0/"
	 x="0px" y="0px" width="24px" height="23px" viewBox="0 0 24 23" style="enable-background:new 0 0 24 23;" xml:space="preserve">
<g style="&st0;">
	<path style="&st1;" d="M2,2c1.2,0,5.4,1.9,7,4.7L7.4,8c0,0-2-2.4-5.4-3V3L2,2z"/>
	<path style="&st1;" d="M7,12.7C7,13.4,7.7,14,8.5,14c0.8,0,1.5-0.6,1.5-1.3C10,12,8.5,9,8.5,9S7,12,7,12.7z"/>
	<polygon style="&st1;" points="6,20 6,16 7,15 14,14 24,14 24,20 16,20 16,18 15,18 15,17 14,17 14,16 10,16 10,17 9,17 9,18 8,18 
		8,20 	"/>
	<polygon style="&st1;" points="18,14 21,10 24,10 24,8.5 20,8.5 17,13 16,13 13,7 11,7 11,8 12,8 15,14 	"/>
	<path style="&st1;" d="M15,20c0,1.7-1.3,3-3,3s-3-1.3-3-3s1.3-3,3-3S15,18.3,15,20z M13,19h-2v2h2V19z"/>
</g>
<g style="&st2;">
	<path style="&st1;" d="M1,1c1.2,0,5.4,1.9,7,4.7L6.4,7c0,0-2-2.4-5.4-3V2L1,1z"/>
	<path style="&st1;" d="M6,11.7C6,12.4,6.7,13,7.5,13C8.3,13,9,12.4,9,11.7C9,11,7.5,8,7.5,8S6,11,6,11.7z"/>
	<polygon style="&st1;" points="5,19 5,15 6,14 13,13 23,13 23,19 15,19 15,17 14,17 14,16 13,16 13,15 9,15 9,16 8,16 8,17 7,17 
		7,19 	"/>
	<polygon style="&st1;" points="17,13 20,9 23,9 23,7.5 19,7.5 16,12 15,12 12,6 10,6 10,7 11,7 14,13 	"/>
	<path style="&st1;" d="M14,19c0,1.7-1.3,3-3,3s-3-1.3-3-3s1.3-3,3-3S14,17.3,14,19z M12,18h-2v2h2V18z"/>
</g>
<g>
	<path style="&st3;" d="M0,0c1.2,0,5.4,1.9,7,4.7L5.4,6c0,0-2-2.4-5.4-3V1L0,0z"/>
	<path style="&st3;" d="M5,10.7C5,11.4,5.7,12,6.5,12C7.3,12,8,11.4,8,10.7C8,10,6.5,7,6.5,7S5,10,5,10.7z"/>
	<polygon style="&st3;" points="4,18 4,14 5,13 12,12 22,12 22,18 14,18 14,16 13,16 13,15 12,15 12,14 8,14 8,15 7,15 7,16 6,16 
		6,18 	"/>
	<polygon style="&st3;" points="16,12 19,8 22,8 22,6.5 18,6.5 15,11 14,11 11,5 9,5 9,6 10,6 13,12 	"/>
	<path style="&st3;" d="M13,18c0,1.7-1.3,3-3,3s-3-1.3-3-3s1.3-3,3-3S13,16.3,13,18z M11,17H9v2h2V17z"/>
</g>
</svg>
