<?xml version="1.0" encoding="UTF-8" standalone="no"?>
<!-- Created with Inkscape (http://www.inkscape.org/) -->

<svg
   xmlns:dc="http://purl.org/dc/elements/1.1/"
   xmlns:cc="http://creativecommons.org/ns#"
   xmlns:rdf="http://www.w3.org/1999/02/22-rdf-syntax-ns#"
   xmlns:svg="http://www.w3.org/2000/svg"
   xmlns="http://www.w3.org/2000/svg"
   xmlns:sodipodi="http://sodipodi.sourceforge.net/DTD/sodipodi-0.dtd"
   xmlns:inkscape="http://www.inkscape.org/namespaces/inkscape"
   width="24"
   height="24"
   id="svg4460"
   version="1.1"
   inkscape:version="0.48.2 r9819"
   sodipodi:docname="rail-metro-24.svg">
  <defs
     id="defs4462" />
  <sodipodi:namedview
     id="base"
     pagecolor="#ffffff"
     bordercolor="#666666"
     borderopacity="1.0"
     inkscape:pageopacity="0.0"
     inkscape:pageshadow="2"
     inkscape:zoom="1"
     inkscape:cx="16.75"
     inkscape:cy="20.636728"
     inkscape:document-units="px"
     inkscape:current-layer="layer1"
     showgrid="false"
     showguides="false"
     inkscape:guide-bbox="true"
     inkscape:window-width="1593"
     inkscape:window-height="950"
     inkscape:window-x="537"
     inkscape:window-y="65"
     inkscape:window-maximized="0">
    <inkscape:grid
       type="xygrid"
       id="grid4468"
       empspacing="2"
       visible="true"
       enabled="true"
       snapvisiblegridlinesonly="true"
       color="#ff00ff"
       opacity="0.1254902"
       empcolor="#ff00ff"
       empopacity="0.25098039" />
    <sodipodi:guide
       orientation="1,0"
       position="0,20"
       id="guide4470" />
    <sodipodi:guide
       orientation="0,1"
       position="4,24"
       id="guide4472" />
    <sodipodi:guide
       orientation="1,0"
       position="24,13"
       id="guide4474" />
    <sodipodi:guide
       orientation="0,1"
       position="15,0"
       id="guide4476" />
    <sodipodi:guide
       orientation="1,0"
       position="23,20"
       id="guide4478" />
    <sodipodi:guide
       orientation="0,1"
       position="20,23"
       id="guide4480" />
    <sodipodi:guide
       orientation="1,0"
       position="2,5"
       id="guide4482" />
    <sodipodi:guide
       orientation="0,1"
       position="7,2"
       id="guide4484" />
    <sodipodi:guide
       orientation="1,0"
       position="12.5,21"
       id="guide4486" />
    <sodipodi:guide
       orientation="0,1"
       position="16,13"
       id="guide4490" />
    <sodipodi:guide
       orientation="1,0"
       position="3,13.5"
       id="guide3012" />
    <sodipodi:guide
       orientation="0,1"
       position="6.5,22"
       id="guide3014" />
    <sodipodi:guide
       orientation="1,0"
       position="22,18"
       id="guide3016" />
    <sodipodi:guide
       orientation="0,1"
       position="13.5,3"
       id="guide3018" />
  </sodipodi:namedview>
  <metadata
     id="metadata4465">
    <rdf:RDF>
      <cc:Work
         rdf:about="">
        <dc:format>image/svg+xml</dc:format>
        <dc:type
           rdf:resource="http://purl.org/dc/dcmitype/StillImage" />
        <dc:title />
      </cc:Work>
    </rdf:RDF>
  </metadata>
  <g
     inkscape:label="Layer 1"
     inkscape:groupmode="layer"
     id="layer1"
     transform="translate(0,-1028.3622)">
    <path
       id="path24859"
       d="m 30,1032.8622 -3,2 0,11 c 0,0.5 0.5,1 1,1 l 2.5,0 3.5,0 2.5,0 2.5,0 c 0.5,0 1,-0.5 1,-1 l 0,-11 -3,-2 z m 1,2 5,0 2,1 0,3 -9,0 0,-3 z m -1,8 c 0.554,0 1,0.446 1,1 0,0.554 -0.446,1 -1,1 -0.554,0 -1,-0.446 -1,-1 0,-0.554 0.446,-1 1,-1 z m 7,0 c 0.554,0 1,0.446 1,1 0,0.554 -0.446,1 -1,1 -0.554,0 -1,-0.446 -1,-1 0,-0.554 0.446,-1 1,-1 z"
       style="color:#000000;fill:#444444;fill-opacity:1;fill-rule:nonzero;stroke:none;stroke-width:2;marker:none;visibility:visible;display:inline;overflow:visible;enable-background:accumulate"
       inkscape:connector-curvature="0"
       sodipodi:nodetypes="cccccccccccccccccccssssssssss" />
    <rect
       style="fill:#444444;fill-opacity:1;stroke:none"
       id="rect3004"
       width="11"
       height="14.000018"
       x="7"
       y="1031.3622"
       rx="2"
       ry="2" />
    <rect
       style="fill:#444444;fill-opacity:1;stroke:none"
       id="rect3774"
       width="5"
       height="3.5"
       x="10"
       y="1030.3622" />
    <path
       sodipodi:type="arc"
       style="fill:#ffffff;fill-opacity:1;stroke:none"
       id="path3776"
       sodipodi:cx="5"
       sodipodi:cy="10"
       sodipodi:rx="1"
       sodipodi:ry="1"
       d="m 6,10 a 1,1 0 1 1 -2,0 1,1 0 1 1 2,0 z"
       transform="translate(5,1032.3622)" />
    <path
       transform="translate(9.9939419,1032.3622)"
       d="m 6,10 a 1,1 0 1 1 -2,0 1,1 0 1 1 2,0 z"
       sodipodi:ry="1"
       sodipodi:rx="1"
       sodipodi:cy="10"
       sodipodi:cx="5"
       id="path3778"
       style="fill:#ffffff;fill-opacity:1;stroke:none"
       sodipodi:type="arc" />
    <rect
       style="fill:#ffffff;fill-opacity:1;stroke:none"
       id="rect3780"
       width="7"
       height="5"
       x="9"
       y="1033.3622"
       rx="1"
       ry="1" />
    <rect
       transform="scale(1,-1)"
       y="-1039.3622"
       x="9"
       height="2.0000174"
       width="7"
       id="rect3782"
       style="fill:#444444;fill-opacity:1;stroke:none" />
    <path
       style="fill:#444444;fill-opacity:1;stroke:none"
       d="m 12,1046.3622 -2,0 -3,3 3,0 z"
       id="path3787"
       inkscape:connector-curvature="0"
       sodipodi:nodetypes="ccccc" />
    <path
       sodipodi:nodetypes="ccccc"
       inkscape:connector-curvature="0"
       id="path3789"
       d="m 13.5,1046.3622 2,0 2.5,3 -3,0 z"
       style="fill:#444444;fill-opacity:1;stroke:none" />
    <rect
       ry="2"
       rx="2"
       y="1032.3622"
       x="-22.993942"
       height="14.000017"
       width="11"
       id="rect3791"
       style="fill:#444444;fill-opacity:1;stroke:none" />
    <rect
       ry="1"
       rx="1"
       y="1030.3622"
       x="-20.993942"
       height="3.5"
       width="7"
       id="rect3793"
       style="fill:#444444;fill-opacity:1;stroke:none" />
    <path
       transform="translate(-24.993941,1033.3622)"
       d="m 6,10 a 1,1 0 1 1 -2,0 1,1 0 1 1 2,0 z"
       sodipodi:ry="1"
       sodipodi:rx="1"
       sodipodi:cy="10"
       sodipodi:cx="5"
       id="path3795"
       style="fill:#ffffff;fill-opacity:1;stroke:none"
       sodipodi:type="arc" />
    <path
       sodipodi:type="arc"
       style="fill:#ffffff;fill-opacity:1;stroke:none"
       id="path3797"
       sodipodi:cx="5"
       sodipodi:cy="10"
       sodipodi:rx="1"
       sodipodi:ry="1"
       d="m 6,10 a 1,1 0 1 1 -2,0 1,1 0 1 1 2,0 z"
       transform="translate(-20,1033.3622)" />
    <rect
       ry="1"
       rx="1"
       y="1034.3622"
       x="-20.993942"
       height="5"
       width="7"
       id="rect3799"
       style="fill:#ffffff;fill-opacity:1;stroke:none" />
    <rect
       style="fill:#444444;fill-opacity:1;stroke:none"
       id="rect3801"
       width="7"
       height="3.5"
       x="-20.993942"
       y="-1041.8622"
       transform="scale(1,-1)" />
    <path
       sodipodi:nodetypes="ccccc"
       inkscape:connector-curvature="0"
       id="path3803"
       d="m -17.993941,1047.3622 -2,0 -2,2 3,0 z"
       style="fill:#444444;fill-opacity:1;stroke:none" />
    <path
       style="fill:#444444;fill-opacity:1;stroke:none"
       d="m -16.493941,1047.3622 1.999999,0 2,2 -2.999999,0 z"
       id="path3805"
       inkscape:connector-curvature="0"
       sodipodi:nodetypes="ccccc" />
    <rect
       ry="2"
       rx="2"
       y="1032.3622"
       x="-48"
       height="13.000033"
       width="11"
       id="rect3807"
       style="fill:#444444;fill-opacity:1;stroke:none" />
    <rect
       ry="1"
       rx="1"
       y="1030.3622"
       x="-46"
       height="3.5"
       width="7"
       id="rect3809"
       style="fill:#444444;fill-opacity:1;stroke:none" />
    <path
       transform="translate(-50,1032.3622)"
       d="m 6,10 a 1,1 0 1 1 -2,0 1,1 0 1 1 2,0 z"
       sodipodi:ry="1"
       sodipodi:rx="1"
       sodipodi:cy="10"
       sodipodi:cx="5"
       id="path3811"
       style="fill:#ffffff;fill-opacity:1;stroke:none"
       sodipodi:type="arc" />
    <path
       sodipodi:type="arc"
       style="fill:#ffffff;fill-opacity:1;stroke:none"
       id="path3813"
       sodipodi:cx="5"
       sodipodi:cy="10"
       sodipodi:rx="1"
       sodipodi:ry="1"
       d="m 6,10 a 1,1 0 1 1 -2,0 1,1 0 1 1 2,0 z"
       transform="translate(-45.006058,1032.3622)" />
    <rect
       ry="1"
       rx="1"
       y="1034.3622"
       x="-46"
       height="5"
       width="7"
       id="rect3815"
       style="fill:#ffffff;fill-opacity:1;stroke:none" />
    <rect
       style="fill:#444444;fill-opacity:1;stroke:none"
       id="rect3817"
       width="7"
       height="2.0000174"
       x="-46"
       y="-1040.3622"
       transform="scale(1,-1)" />
    <path
       sodipodi:nodetypes="ccccc"
       inkscape:connector-curvature="0"
       id="path3819"
       d="m -43,1046.3622 -2,0 -3,3 3,0 z"
       style="fill:#444444;fill-opacity:1;stroke:none" />
    <path
       style="fill:#444444;fill-opacity:1;stroke:none"
       d="m -41.5,1046.3622 2,0 2.5,3 -3,0 z"
       id="path3821"
       inkscape:connector-curvature="0"
       sodipodi:nodetypes="ccccc" />
    <rect
       ry="2"
       rx="2"
       y="1031.3622"
       x="-77"
       height="14.000018"
       width="11"
       id="rect3823"
       style="fill:#444444;fill-opacity:1;stroke:none" />
    <rect
       ry="1"
       rx="1"
       y="1030.3622"
       x="-74"
       height="3.5"
       width="5"
       id="rect3825"
       style="fill:#444444;fill-opacity:1;stroke:none" />
    <path
       transform="translate(-79,1032.3622)"
       d="m 6,10 a 1,1 0 1 1 -2,0 1,1 0 1 1 2,0 z"
       sodipodi:ry="1"
       sodipodi:rx="1"
       sodipodi:cy="10"
       sodipodi:cx="5"
       id="path3827"
       style="fill:#ffffff;fill-opacity:1;stroke:none"
       sodipodi:type="arc" />
    <path
       sodipodi:type="arc"
       style="fill:#ffffff;fill-opacity:1;stroke:none"
       id="path3829"
       sodipodi:cx="5"
       sodipodi:cy="10"
       sodipodi:rx="1"
       sodipodi:ry="1"
       d="m 6,10 a 1,1 0 1 1 -2,0 1,1 0 1 1 2,0 z"
       transform="translate(-74.006058,1032.3622)" />
    <rect
       ry="1"
       rx="1"
       y="1033.3622"
       x="-75"
       height="5"
       width="7"
       id="rect3831"
       style="fill:#ffffff;fill-opacity:1;stroke:none" />
    <rect
       style="fill:#444444;fill-opacity:1;stroke:none"
       id="rect3833"
       width="7"
       height="2.0000174"
       x="-75"
       y="-1039.3622"
       transform="scale(1,-1)" />
    <path
       sodipodi:nodetypes="ccccc"
       inkscape:connector-curvature="0"
       id="path3835"
       d="m -72,1046.3622 -2,0 -3,3 3,0 z"
       style="fill:#444444;fill-opacity:1;stroke:none" />
    <path
       style="fill:#444444;fill-opacity:1;stroke:none"
       d="m -70.5,1046.3622 2,0 2.5,3 -3,0 z"
       id="path3837"
       inkscape:connector-curvature="0"
       sodipodi:nodetypes="ccccc" />
  </g>
</svg>
