<?xml version="1.0" encoding="UTF-8" standalone="no"?>
<!-- Created with Inkscape (http://www.inkscape.org/) -->

<svg
   xmlns:dc="http://purl.org/dc/elements/1.1/"
   xmlns:cc="http://creativecommons.org/ns#"
   xmlns:rdf="http://www.w3.org/1999/02/22-rdf-syntax-ns#"
   xmlns:svg="http://www.w3.org/2000/svg"
   xmlns="http://www.w3.org/2000/svg"
   version="1.1"
   width="24"
   height="24"
   id="svg4460">
  <defs
     id="defs4462" />
  <metadata
     id="metadata4465">
    <rdf:RDF>
      <cc:Work
         rdf:about="">
        <dc:format>image/svg+xml</dc:format>
        <dc:type
           rdf:resource="http://purl.org/dc/dcmitype/StillImage" />
        <dc:title></dc:title>
      </cc:Work>
    </rdf:RDF>
  </metadata>
  <path
     d="M 10,2 10,3 9,3 C 7.892,3 7,3.892 7,5 l 0,10 c 0,1.108 0.892,2 2,2 l 7,0 c 1.108,0 2,-0.892 2,-2 L 18,5 C 18,3.892 17.108,3 16,3 l -1,0 0,-1 -5,0 z m 0,3 5,0 c 0.554,0 1,0.446 1,1 L 16,9 9,9 9,6 C 9,5.446 9.446,5 10,5 z m 0,8 c 0.552285,0 1,0.447715 1,1 0,0.552285 -0.447715,1 -1,1 -0.5522847,0 -1,-0.447715 -1,-1 0,-0.552285 0.4477153,-1 1,-1 z m 5,0 c 0.552285,0 1,0.447715 1,1 0,0.552285 -0.447715,1 -1,1 -0.552285,0 -1,-0.447715 -1,-1 0,-0.552285 0.447715,-1 1,-1 z m -6,5 -3,3 4,0 2,-3 -3,0 z m 4,0 2,3 4,0 -3,-3 -3,0 z"
     id="path11415"
     style="opacity:0.3;fill:none;stroke:#ffffff;stroke-width:2;stroke-linecap:round;stroke-linejoin:round;stroke-miterlimit:4;stroke-opacity:1;stroke-dasharray:none" />
  <path
     d="M 10,2 10,3 9,3 C 7.892,3 7,3.892 7,5 l 0,10 c 0,1.108 0.892,2 2,2 l 7,0 c 1.108,0 2,-0.892 2,-2 L 18,5 C 18,3.892 17.108,3 16,3 l -1,0 0,-1 -5,0 z m 0,3 5,0 c 0.554,0 1,0.446 1,1 L 16,9 9,9 9,6 C 9,5.446 9.446,5 10,5 z m 0,8 c 0.552285,0 1,0.447715 1,1 0,0.552285 -0.447715,1 -1,1 -0.5522847,0 -1,-0.447715 -1,-1 0,-0.552285 0.4477153,-1 1,-1 z m 5,0 c 0.552285,0 1,0.447715 1,1 0,0.552285 -0.447715,1 -1,1 -0.552285,0 -1,-0.447715 -1,-1 0,-0.552285 0.447715,-1 1,-1 z m -6,5 -3,3 4,0 2,-3 -3,0 z m 4,0 2,3 4,0 -3,-3 -3,0 z"
     id="rect3004"
     style="fill:#444444;fill-opacity:1;stroke:none" />
  <rect
     width="24"
     height="24"
     x="0"
     y="0"
     id="canvas"
     style="fill:none;stroke:none;visibility:hidden" />
</svg>
