<?xml version="1.0" encoding="UTF-8" standalone="no"?>
<!-- Created with Inkscape (http://www.inkscape.org/) -->

<svg
   xmlns:dc="http://purl.org/dc/elements/1.1/"
   xmlns:cc="http://creativecommons.org/ns#"
   xmlns:rdf="http://www.w3.org/1999/02/22-rdf-syntax-ns#"
   xmlns:svg="http://www.w3.org/2000/svg"
   xmlns="http://www.w3.org/2000/svg"
   xmlns:inkscape="http://www.inkscape.org/namespaces/inkscape"
   version="1.1"
   width="12"
   height="12"
   id="svg4764">
  <defs
     id="defs4766" />
  <metadata
     id="metadata4769">
    <rdf:RDF>
      <cc:Work
         rdf:about="">
        <dc:format>image/svg+xml</dc:format>
        <dc:type
           rdf:resource="http://purl.org/dc/dcmitype/StillImage" />
        <dc:title />
      </cc:Work>
    </rdf:RDF>
  </metadata>
  <g
     transform="translate(0,-1040.3622)"
     id="layer1">
    <path
       d="M 4.90625,0 C 4.6736869,0.017 4.4482242,0.11845 4.28125,0.28125 l -1,1 C 3.0975571,1.47105 2.9938957,1.736 3,2 L 3,7 3,8 C 2.4764155,8.0000524 2.0000524,8.4764155 2,9 l 0,1 c 5.24e-5,0.523584 0.4764155,0.999948 1,1 l 3,0 C 6.1844845,10.999982 6.3460107,10.94327 6.5,10.84375 6.6539893,10.943266 6.8155155,10.999982 7,11 l 3,0 c 0.523584,-5.2e-5 0.999948,-0.476416 1,-1 L 11,9 C 10.999948,8.4764155 10.523584,8.0000524 10,8 L 10,7 10,2 C 10.0061,1.736 9.902443,1.47105 9.71875,1.28125 l -1,-1 C 8.5289802,0.09755 8.2640632,-0.0061 8,0 6.96875,0 5.9375,0 4.90625,0 z"
       inkscape:connector-curvature="0"
       transform="translate(0,1040.3622)"
       id="path3088"
       style="font-size:medium;font-style:normal;font-variant:normal;font-weight:normal;font-stretch:normal;text-indent:0;text-align:start;text-decoration:none;line-height:normal;letter-spacing:normal;word-spacing:normal;text-transform:none;direction:ltr;block-progression:tb;writing-mode:lr-tb;text-anchor:start;baseline-shift:baseline;opacity:0.3;color:#000000;fill:#ffffff;fill-opacity:1;stroke:none;stroke-width:2;marker:none;visibility:visible;display:inline;overflow:visible;enable-background:accumulate;font-family:Sans;-inkscape-font-specification:Sans" />
    <path
       d="M 5,1 4,2 4,7 4,8 9,8 9,7 9,2 8,1 5,1 z M 6,2 7,2 8,3 8,4 5,4 5,3 6,2 z M 5,6 6,6 6,7 5,7 5,6 z M 7,6 8,6 8,7 7,7 7,6 z"
       inkscape:connector-curvature="0"
       transform="translate(0,1040.3622)"
       id="path3108"
       style="fill:#444444;fill-opacity:1;stroke:none" />
    <path
       d="m 4,1048.8622 0,0.5 -1,0 0,1 3,0 0,-1 0,-0.5 z"
       inkscape:connector-curvature="0"
       id="path3266"
       style="fill:#444444;fill-opacity:1;stroke:none" />
    <path
       d="m 9,1048.8622 -2.02167,0 0.02167,0.5 0,1 3,0 0,-1 -1,0 z"
       inkscape:connector-curvature="0"
       id="path3268"
       style="fill:#444444;fill-opacity:1;stroke:none" />
  </g>
  <rect
     width="12"
     height="12"
     x="0"
     y="0"
     id="canvas"
     style="fill:none;stroke:none;visibility:hidden" />
</svg>
