<?xml version="1.0" encoding="UTF-8" standalone="no"?>
<!-- Created with Inkscape (http://www.inkscape.org/) -->

<svg
   xmlns:dc="http://purl.org/dc/elements/1.1/"
   xmlns:cc="http://creativecommons.org/ns#"
   xmlns:rdf="http://www.w3.org/1999/02/22-rdf-syntax-ns#"
   xmlns:svg="http://www.w3.org/2000/svg"
   xmlns="http://www.w3.org/2000/svg"
   version="1.1"
   width="12"
   height="12"
   id="svg4764">
  <defs
     id="defs4766" />
  <metadata
     id="metadata4769">
    <rdf:RDF>
      <cc:Work
         rdf:about="">
        <dc:format>image/svg+xml</dc:format>
        <dc:type
           rdf:resource="http://purl.org/dc/dcmitype/StillImage" />
        <dc:title></dc:title>
      </cc:Work>
    </rdf:RDF>
  </metadata>
  <path
     d="M 5.5,1 4,2 3,4 3,8 10,8 10,4 9,2 7.5,1 5.5,1 z M 5.5,2 6,2 6,5 4,5 4.5,3.5 5.5,2 z M 7,2 7.5,2 8.5,3.5 9,5 7,5 7,2 z M 4,6 5,6 5,7 4,7 4,6 z M 8,6 9,6 9,7 8,7 8,6 z M 4,8.5 4,9 3,9 l 0,1 3,0 0,-1.5 -2,0 z m 3,0 0,1.5 3,0 0,-1 -1,0 0,-0.5 -2,0 z"
     id="path8445"
     style="opacity:0.3;fill:none;stroke:#ffffff;stroke-width:2;stroke-linecap:round;stroke-linejoin:round;stroke-miterlimit:4;stroke-opacity:1;stroke-dasharray:none" />
  <path
     d="M 5.5,1 4,2 3,4 3,8 10,8 10,4 9,2 7.5,1 5.5,1 z M 5.5,2 6,2 6,5 4,5 4.5,3.5 5.5,2 z M 7,2 7.5,2 8.5,3.5 9,5 7,5 7,2 z M 4,6 5,6 5,7 4,7 4,6 z M 8,6 9,6 9,7 8,7 8,6 z M 4,8.5 4,9 3,9 l 0,1 3,0 0,-1.5 -2,0 z m 3,0 0,1.5 3,0 0,-1 -1,0 0,-0.5 -2,0 z"
     id="path3248"
     style="fill:#444444;fill-opacity:1;stroke:none" />
  <rect
     width="12"
     height="12"
     x="0"
     y="0"
     id="canvas"
     style="fill:none;stroke:none;visibility:hidden" />
</svg>
