<?xml version="1.0" encoding="UTF-8" standalone="no"?>
<!-- Created with Inkscape (http://www.inkscape.org/) -->

<svg
   xmlns:dc="http://purl.org/dc/elements/1.1/"
   xmlns:cc="http://creativecommons.org/ns#"
   xmlns:rdf="http://www.w3.org/1999/02/22-rdf-syntax-ns#"
   xmlns:svg="http://www.w3.org/2000/svg"
   xmlns="http://www.w3.org/2000/svg"
   version="1.1"
   width="18"
   height="18"
   id="svg4619">
  <defs
     id="defs4621" />
  <metadata
     id="metadata4624">
    <rdf:RDF>
      <cc:Work
         rdf:about="">
        <dc:format>image/svg+xml</dc:format>
        <dc:type
           rdf:resource="http://purl.org/dc/dcmitype/StillImage" />
        <dc:title></dc:title>
      </cc:Work>
    </rdf:RDF>
  </metadata>
  <path
     d="M 6.9375,2 4,5 4,10.25 4,11 c 0,0.554 0.446,1 1,1 l 9,0 c 0.554,0 1,-0.446 1,-1 L 15,10.25 15,5 12.0625,2 6.9375,2 z M 8,3 11,3 11,4 8,4 8,3 z M 6,5 13,5 13,8 6,8 6,5 z m 0,4 1.5,0 0,1.5 L 6,10.5 6,9 z m 5.5,0 1.5,0 0,1.5 -1.5,0 0,-1.5 z m -6.5,4 0,1 -1,0 0,1 4,0 0,-2 -3,0 z m 6,0 0,2 4,0 0,-1 -1,0 0,-1 -3,0 z"
     id="path7703"
     style="opacity:0.3;fill:none;stroke:#ffffff;stroke-width:2;stroke-linecap:round;stroke-linejoin:round;stroke-miterlimit:4;stroke-opacity:1;stroke-dasharray:none" />
  <path
     d="M 6.9375,2 4,5 4,10.25 4,11 c 0,0.554 0.446,1 1,1 l 9,0 c 0.554,0 1,-0.446 1,-1 L 15,10.25 15,5 12.0625,2 6.9375,2 z M 8,3 11,3 11,4 8,4 8,3 z M 6,5 13,5 13,8 6,8 6,5 z m 0,4 1.5,0 0,1.5 L 6,10.5 6,9 z m 5.5,0 1.5,0 0,1.5 -1.5,0 0,-1.5 z m -6.5,4 0,1 -1,0 0,1 4,0 0,-2 -3,0 z m 6,0 0,2 4,0 0,-1 -1,0 0,-1 -3,0 z"
     id="rect3226"
     style="fill:#444444;fill-opacity:1;stroke:none" />
  <rect
     width="18"
     height="18"
     x="0"
     y="0"
     id="canvas"
     style="fill:none;stroke:none;visibility:hidden" />
</svg>
