<?xml version="1.0" encoding="UTF-8" standalone="no"?>
<!-- Created with Inkscape (http://www.inkscape.org/) -->

<svg
   xmlns:dc="http://purl.org/dc/elements/1.1/"
   xmlns:cc="http://creativecommons.org/ns#"
   xmlns:rdf="http://www.w3.org/1999/02/22-rdf-syntax-ns#"
   xmlns:svg="http://www.w3.org/2000/svg"
   xmlns="http://www.w3.org/2000/svg"
   xmlns:inkscape="http://www.inkscape.org/namespaces/inkscape"
   version="1.1"
   width="18"
   height="18"
   id="svg4619">
  <defs
     id="defs4621" />
  <metadata
     id="metadata4624">
    <rdf:RDF>
      <cc:Work
         rdf:about="">
        <dc:format>image/svg+xml</dc:format>
        <dc:type
           rdf:resource="http://purl.org/dc/dcmitype/StillImage" />
        <dc:title />
      </cc:Work>
    </rdf:RDF>
  </metadata>
  <g
     transform="translate(0,-1034.3622)"
     id="layer1">
    <path
       d="M 7.90625,1 C 7.4146662,1.046 6.9978709,1.5062 7,2 L 7,2.21875 C 5.9019027,2.48095 5,3.3283 5,4.5 c 0,2 0,4 0,6 0,0.602623 0.2308258,1.159247 0.59375,1.59375 C 5.2450204,12.248806 5.0028963,12.618364 5,13 c -0.5235845,5.2e-5 -0.9999476,0.476416 -1,1 l 0,1 c 5.24e-5,0.523584 0.4764155,0.999948 1,1 l 4,0 c 0.1633192,-0.0026 0.3258462,-0.04589 0.46875,-0.125 0.010416,1.63e-4 0.020834,1.63e-4 0.03125,0 0.1520176,0.08415 0.326265,0.127716 0.5,0.125 l 4,0 c 0.523584,-5.2e-5 0.999948,-0.476416 1,-1 l 0,-1 C 14.999948,13.476416 14.523584,13.000052 14,13 13.9919,12.6115 13.735252,12.239409 13.375,12.09375 13.746291,11.656865 14,11.110359 14,10.5 c 0,-2 0,-4 0,-6 C 14,3.3283 13.098097,2.48095 12,2.21875 L 12,2 C 11.999948,1.4764 11.523584,1.0001 11,1 L 8,1 z M 8,5 11,5 11,5.5 11,5.75 11,6 8,6 8,5.75 8,5.5 z"
       inkscape:connector-curvature="0"
       transform="translate(0,1034.3622)"
       id="path3106"
       style="font-size:medium;font-style:normal;font-variant:normal;font-weight:normal;font-stretch:normal;text-indent:0;text-align:start;text-decoration:none;line-height:normal;letter-spacing:normal;word-spacing:normal;text-transform:none;direction:ltr;block-progression:tb;writing-mode:lr-tb;text-anchor:start;baseline-shift:baseline;opacity:0.3;color:#000000;fill:#ffffff;fill-opacity:1;stroke:none;stroke-width:2;marker:none;visibility:visible;display:inline;overflow:visible;enable-background:accumulate;font-family:Sans;-inkscape-font-specification:Sans" />
    <path
       d="M 8,2 8,3 7.5,3 C 6.669,3 6,3.669 6,4.5 l 0,5 0,1 C 6,11.331 6.669,12 7.5,12 l 4,0 c 0.831,0 1.5,-0.669 1.5,-1.5 l 0,-1 0,-5 C 13,3.669 12.331,3 11.5,3 L 11,3 11,2 8,2 z m 0,2 3,0 c 0.553621,0 1,0.446 1,1 L 12,5.5 12,5.75 12,7 7,7 7,5.75 7,5.5 7,5 C 7,4.446 7.4463787,4 8,4 z M 7,9 8.5,9 8.5,10.5 7,10.5 7,9 z m 3.5,0 1.5,0 0,1.5 -1.5,0 0,-1.5 z"
       inkscape:connector-curvature="0"
       transform="translate(0,1034.3622)"
       id="rect4041"
       style="fill:#444444;fill-opacity:1;stroke:none" />
    <path
       d="m 9,1047.3622 -3,0 0,1 -1,0 0,1 4,0 z"
       inkscape:connector-curvature="0"
       id="path3787-5"
       style="fill:#444444;fill-opacity:1;stroke:none" />
    <path
       d="m 10,1047.3622 3,0 0,1 1,0 0,1 -4,0 z"
       inkscape:connector-curvature="0"
       id="path3122"
       style="fill:#444444;fill-opacity:1;stroke:none" />
  </g>
  <rect
     width="18"
     height="18"
     x="0"
     y="0"
     id="canvas"
     style="fill:none;stroke:none;visibility:hidden" />
</svg>
