<?xml version="1.0" encoding="UTF-8" standalone="no"?>
<!-- Created with Inkscape (http://www.inkscape.org/) -->

<svg
   xmlns:dc="http://purl.org/dc/elements/1.1/"
   xmlns:cc="http://creativecommons.org/ns#"
   xmlns:rdf="http://www.w3.org/1999/02/22-rdf-syntax-ns#"
   xmlns:svg="http://www.w3.org/2000/svg"
   xmlns="http://www.w3.org/2000/svg"
   xmlns:sodipodi="http://sodipodi.sourceforge.net/DTD/sodipodi-0.dtd"
   xmlns:inkscape="http://www.inkscape.org/namespaces/inkscape"
   width="18"
   height="18"
   id="svg4619"
   version="1.1"
   inkscape:version="0.48.4 r9939"
   sodipodi:docname="rail-metro-18.svg">
  <defs
     id="defs4621" />
  <sodipodi:namedview
     id="base"
     pagecolor="#ffffff"
     bordercolor="#666666"
     borderopacity="1.0"
     inkscape:pageopacity="0.0"
     inkscape:pageshadow="2"
     inkscape:zoom="48.266282"
     inkscape:cx="5.8742805"
     inkscape:cy="9.4999402"
     inkscape:document-units="px"
     inkscape:current-layer="layer1"
     showgrid="true"
     showguides="false"
     inkscape:guide-bbox="true"
     inkscape:window-width="1313"
     inkscape:window-height="942"
     inkscape:window-x="181"
     inkscape:window-y="61"
     inkscape:window-maximized="0">
    <inkscape:grid
       type="xygrid"
       id="grid4627"
       empspacing="2"
       visible="true"
       enabled="true"
       snapvisiblegridlinesonly="true"
       color="#ff00ff"
       opacity="0.1254902"
       empcolor="#ff00ff"
       empopacity="0.25098039" />
    <sodipodi:guide
       orientation="0,1"
       position="7,18"
       id="guide4659" />
    <sodipodi:guide
       orientation="1,0"
       position="18,9"
       id="guide4661" />
    <sodipodi:guide
       orientation="0,1"
       position="16,17"
       id="guide4663" />
    <sodipodi:guide
       orientation="1,0"
       position="17,14"
       id="guide4665" />
    <sodipodi:guide
       orientation="1,0"
       position="0,16"
       id="guide4667" />
    <sodipodi:guide
       orientation="0,1"
       position="8,0"
       id="guide4669" />
    <sodipodi:guide
       orientation="1,0"
       position="2,10"
       id="guide4671" />
    <sodipodi:guide
       orientation="0,1"
       position="12,2"
       id="guide4673" />
    <sodipodi:guide
       orientation="0,1"
       position="12,16"
       id="guide3010" />
    <sodipodi:guide
       orientation="1,0"
       position="3,11.5"
       id="guide3012" />
    <sodipodi:guide
       orientation="0,1"
       position="12,3"
       id="guide3014" />
    <sodipodi:guide
       orientation="1,0"
       position="16,8.5"
       id="guide3016" />
    <sodipodi:guide
       orientation="1,0"
       position="9.5,9"
       id="guide3804" />
  </sodipodi:namedview>
  <metadata
     id="metadata4624">
    <rdf:RDF>
      <cc:Work
         rdf:about="">
        <dc:format>image/svg+xml</dc:format>
        <dc:type
           rdf:resource="http://purl.org/dc/dcmitype/StillImage" />
        <dc:title />
      </cc:Work>
    </rdf:RDF>
  </metadata>
  <g
     inkscape:label="Layer 1"
     inkscape:groupmode="layer"
     id="layer1"
     transform="translate(0,-1034.3622)">
    <path
       id="path3998"
       transform="translate(0,1034.3622)"
       d="M 8 2 L 8 3 L 7.5 3 C 6.669 3 6 3.669 6 4.5 L 6 9.5 L 6 10.5 C 6 11.331 6.669 12 7.5 12 L 11.5 12 C 12.331 12 13 11.331 13 10.5 L 13 9.5 L 13 4.5 C 13 3.669 12.331 3 11.5 3 L 11 3 L 11 2 L 8 2 z M 8 4 L 11 4 C 11.553621 4 12 4.446 12 5 L 12 5.5 L 12 5.75 L 12 7 L 7 7 L 7 5.75 L 7 5.5 L 7 5 C 7 4.446 7.4463787 4 8 4 z M 7 9 L 8.5 9 L 8.5 10.5 L 7 10.5 L 7 9 z M 10.5 9 L 12 9 L 12 10.5 L 10.5 10.5 L 10.5 9 z M 6.5 13 L 6 14 L 5 14.5 L 5 15 L 9 15 L 9 13 L 6.5 13 z M 10 13 L 10 15 L 14 15 L 14 14.5 L 13 14 L 12.5 13 L 10 13 z "
       style="fill:#444444;fill-opacity:1;stroke:#ffffff;stroke-width:2;stroke-miterlimit:4;stroke-dasharray:none;stroke-linejoin:round;stroke-linecap:round;opacity:0.3" />
    <path
       style="fill:#444444;fill-opacity:1;stroke:none"
       d="M 8 2 L 8 3 L 7.5 3 C 6.669 3 6 3.669 6 4.5 L 6 9.5 L 6 10.5 C 6 11.331 6.669 12 7.5 12 L 11.5 12 C 12.331 12 13 11.331 13 10.5 L 13 9.5 L 13 4.5 C 13 3.669 12.331 3 11.5 3 L 11 3 L 11 2 L 8 2 z M 8 4 L 11 4 C 11.553621 4 12 4.446 12 5 L 12 5.5 L 12 5.75 L 12 7 L 7 7 L 7 5.75 L 7 5.5 L 7 5 C 7 4.446 7.4463787 4 8 4 z M 7 9 L 8.5 9 L 8.5 10.5 L 7 10.5 L 7 9 z M 10.5 9 L 12 9 L 12 10.5 L 10.5 10.5 L 10.5 9 z M 6.5 13 L 6 14 L 5 14.5 L 5 15 L 9 15 L 9 13 L 6.5 13 z M 10 13 L 10 15 L 14 15 L 14 14.5 L 13 14 L 12.5 13 L 10 13 z "
       transform="translate(0,1034.3622)"
       id="rect4041" />
  </g>
</svg>
