<?xml version="1.0" encoding="UTF-8" standalone="no"?>
<!-- Created with Inkscape (http://www.inkscape.org/) -->

<svg
   xmlns:dc="http://purl.org/dc/elements/1.1/"
   xmlns:cc="http://creativecommons.org/ns#"
   xmlns:rdf="http://www.w3.org/1999/02/22-rdf-syntax-ns#"
   xmlns:svg="http://www.w3.org/2000/svg"
   xmlns="http://www.w3.org/2000/svg"
   xmlns:sodipodi="http://sodipodi.sourceforge.net/DTD/sodipodi-0.dtd"
   xmlns:inkscape="http://www.inkscape.org/namespaces/inkscape"
   width="12"
   height="12"
   id="svg4764"
   version="1.1"
   inkscape:version="0.48.2 r9819"
   sodipodi:docname="rail-heavy-12.svg">
  <defs
     id="defs4766" />
  <sodipodi:namedview
     id="base"
     pagecolor="#ffffff"
     bordercolor="#666666"
     borderopacity="1.0"
     inkscape:pageopacity="0.0"
     inkscape:pageshadow="2"
     inkscape:zoom="32"
     inkscape:cx="4.2327012"
     inkscape:cy="3.3167098"
     inkscape:document-units="px"
     inkscape:current-layer="layer1"
     showgrid="false"
     showguides="false"
     inkscape:guide-bbox="true"
     inkscape:window-width="1100"
     inkscape:window-height="788"
     inkscape:window-x="357"
     inkscape:window-y="328"
     inkscape:window-maximized="0">
    <inkscape:grid
       type="xygrid"
       id="grid4772"
       empspacing="2"
       visible="true"
       enabled="true"
       snapvisiblegridlinesonly="true"
       color="#ff00ff"
       opacity="0.1254902"
       empcolor="#ff00ff"
       empopacity="0.25098039" />
    <sodipodi:guide
       orientation="0,1"
       position="2,12"
       id="guide4789" />
    <sodipodi:guide
       orientation="1,0"
       position="12,10"
       id="guide4791" />
    <sodipodi:guide
       orientation="0,1"
       position="10,0"
       id="guide4793" />
    <sodipodi:guide
       orientation="1,0"
       position="0,9"
       id="guide4795" />
    <sodipodi:guide
       orientation="0,1"
       position="5,11"
       id="guide4797" />
    <sodipodi:guide
       orientation="1,0"
       position="11,7"
       id="guide4799" />
    <sodipodi:guide
       orientation="0,1"
       position="9,2"
       id="guide4801" />
    <sodipodi:guide
       orientation="1,0"
       position="2,5"
       id="guide4803" />
  </sodipodi:namedview>
  <metadata
     id="metadata4769">
    <rdf:RDF>
      <cc:Work
         rdf:about="">
        <dc:format>image/svg+xml</dc:format>
        <dc:type
           rdf:resource="http://purl.org/dc/dcmitype/StillImage" />
        <dc:title />
      </cc:Work>
    </rdf:RDF>
  </metadata>
  <g
     inkscape:label="Layer 1"
     inkscape:groupmode="layer"
     id="layer1"
     transform="translate(0,-1040.3622)">
    <path
       style="fill:#444444;fill-opacity:1;stroke:none"
       d="m 3,1042.8622 1.741416,-1.5 c 1.0861947,0 2.1723894,0 3.258584,0 l 2,1.5 0,5.5 -7.0000001,0 z"
       id="path3212"
       inkscape:connector-curvature="0"
       sodipodi:nodetypes="ccccccc" />
    <rect
       style="fill:#ffffff;fill-opacity:1;stroke:none"
       id="rect3214"
       width="3"
       height="1"
       x="5"
       y="1042.3622" />
    <rect
       y="1044.3622"
       x="4"
       height="0.99997681"
       width="5"
       id="rect3216"
       style="fill:#ffffff;fill-opacity:1;stroke:none" />
    <path
       style="fill:#444444;fill-opacity:1;stroke:none"
       d="m 75,1042.3622 1,-1 3,0 1,1 0,5 -1,1 -3,0 -1,-1 z"
       id="path3924"
       inkscape:connector-curvature="0" />
    <path
       style="fill:#ffffff;fill-opacity:1;stroke:none"
       d="m 76,1043.3622 1,-1 1,0 1,1 0,1 -3,0 z"
       id="rect3780"
       inkscape:connector-curvature="0"
       sodipodi:nodetypes="ccccccc" />
    <path
       style="fill:#444444;fill-opacity:1;stroke:none"
       d="m 77,1048.8622 -2,0 -1,1.5 3,0 z"
       id="path3787"
       inkscape:connector-curvature="0"
       sodipodi:nodetypes="ccccc" />
    <path
       sodipodi:nodetypes="ccccc"
       inkscape:connector-curvature="0"
       id="path3789"
       d="m 78,1048.8622 2,0 1,1.5 -3,0 z"
       style="fill:#444444;fill-opacity:1;stroke:none" />
    <rect
       style="fill:#ffffff;stroke:none"
       id="rect3892"
       width="1"
       height="1"
       x="76"
       y="1046.3622" />
    <rect
       y="1046.3622"
       x="78"
       height="1"
       width="1"
       id="rect3894"
       style="fill:#ffffff;stroke:none" />
    <rect
       y="1046.3622"
       x="4"
       height="1"
       width="1"
       id="rect3052"
       style="fill:#ffffff;stroke:none" />
    <rect
       style="fill:#ffffff;stroke:none"
       id="rect3054"
       width="1"
       height="1"
       x="8.0216694"
       y="1046.3622" />
    <path
       style="fill:#444444;fill-opacity:1;stroke:none"
       d="m 88,1042.8622 1.741416,-1.5 c 1.086195,0 2.172389,0 3.258584,0 l 2,1.5 0,5.5 -7,0 z"
       id="path3072"
       inkscape:connector-curvature="0"
       sodipodi:nodetypes="ccccccc" />
    <rect
       style="fill:#ffffff;fill-opacity:1;stroke:none"
       id="rect3074"
       width="3"
       height="1"
       x="90"
       y="1042.3622" />
    <rect
       y="1044.3622"
       x="89"
       height="0.99997681"
       width="5"
       id="rect3076"
       style="fill:#ffffff;fill-opacity:1;stroke:none" />
    <path
       sodipodi:nodetypes="ccccc"
       inkscape:connector-curvature="0"
       id="path3078"
       d="m 91,1048.8622 -2,0 -1,1.5 3,0 z"
       style="fill:#444444;fill-opacity:1;stroke:none" />
    <path
       style="fill:#444444;fill-opacity:1;stroke:none"
       d="m 92,1048.8622 2,0 1,1.5 -3,0 z"
       id="path3080"
       inkscape:connector-curvature="0"
       sodipodi:nodetypes="ccccc" />
    <rect
       y="1046.3622"
       x="89"
       height="1"
       width="1"
       id="rect3082"
       style="fill:#ffffff;stroke:none" />
    <rect
       style="fill:#ffffff;stroke:none"
       id="rect3084"
       width="1"
       height="1"
       x="93.021667"
       y="1046.3622" />
    <path
       sodipodi:nodetypes="ccccccc"
       inkscape:connector-curvature="0"
       id="path3044"
       d="m 3,1065.8623 1.741416,-1.5 c 1.0861947,0 2.1723894,0 3.258584,0 l 2,1.5 0,5.5 -7.0000001,0 z"
       style="fill:#444444;fill-opacity:1;stroke:none" />
    <rect
       y="1065.3622"
       x="5"
       height="1"
       width="3"
       id="rect3046"
       style="fill:#ffffff;fill-opacity:1;stroke:none" />
    <rect
       style="fill:#ffffff;fill-opacity:1;stroke:none"
       id="rect3048"
       width="5"
       height="0.99997681"
       x="4"
       y="1067.3622" />
    <path
       style="fill:#444444;fill-opacity:1;stroke:none"
       d="m 6,1071.8623 -2.0000001,0 -0.9999999,1.5 1.9999999,0 z"
       id="path3051"
       inkscape:connector-curvature="0"
       sodipodi:nodetypes="ccccc" />
    <path
       sodipodi:nodetypes="ccccc"
       inkscape:connector-curvature="0"
       id="path3053"
       d="m 7,1071.8623 2,0 1,1.5 -2,0 z"
       style="fill:#444444;fill-opacity:1;stroke:none" />
    <rect
       style="fill:#ffffff;stroke:none"
       id="rect3055"
       width="1"
       height="1"
       x="4"
       y="1069.3622" />
    <rect
       y="1069.3622"
       x="8.0216694"
       height="1"
       width="1"
       id="rect3057"
       style="fill:#ffffff;stroke:none" />
    <path
       style="fill:#444444;fill-opacity:1;stroke:none"
       d="m 3,1065.8623 1.741416,-1.5 c 1.0861947,0 2.1723894,0 3.258584,0 l 2,1.5 0,5.5 -7.0000001,0 z"
       id="path3059"
       inkscape:connector-curvature="0"
       sodipodi:nodetypes="ccccccc" />
    <rect
       style="fill:#ffffff;fill-opacity:1;stroke:none"
       id="rect3061"
       width="3"
       height="1"
       x="5"
       y="1065.3622" />
    <rect
       y="1067.3622"
       x="4"
       height="0.99997681"
       width="5"
       id="rect3063"
       style="fill:#ffffff;fill-opacity:1;stroke:none" />
    <path
       sodipodi:nodetypes="ccccc"
       inkscape:connector-curvature="0"
       id="path3065"
       d="m 6,1071.8623 -2.0000001,0 -0.9999999,1.5 3,0 z"
       style="fill:#444444;fill-opacity:1;stroke:none" />
    <path
       style="fill:#444444;fill-opacity:1;stroke:none"
       d="m 7,1071.8623 2,0 1,1.5 -3,0 z"
       id="path3067"
       inkscape:connector-curvature="0"
       sodipodi:nodetypes="ccccc" />
    <rect
       y="1069.3622"
       x="4"
       height="1"
       width="1"
       id="rect3069"
       style="fill:#ffffff;stroke:none" />
    <rect
       style="fill:#ffffff;stroke:none"
       id="rect3071"
       width="1"
       height="1"
       x="8.0216694"
       y="1069.3622" />
    <path
       sodipodi:nodetypes="ccccccc"
       inkscape:connector-curvature="0"
       id="path3075"
       d="m 35,1060.8622 1.741416,-1.5 c 1.086195,0 2.172389,0 3.258584,0 l 2,1.5 0,5.5 -7,0 z"
       style="fill:#444444;fill-opacity:1;stroke:none" />
    <rect
       y="1060.3622"
       x="37"
       height="1"
       width="3"
       id="rect3077"
       style="fill:#ffffff;fill-opacity:1;stroke:none" />
    <rect
       style="fill:#ffffff;fill-opacity:1;stroke:none"
       id="rect3079"
       width="5"
       height="0.99997681"
       x="36"
       y="1062.3622" />
    <rect
       style="fill:#ffffff;stroke:none"
       id="rect3081"
       width="1"
       height="1"
       x="36"
       y="1064.3622" />
    <rect
       y="1064.3622"
       x="40.021667"
       height="1"
       width="1"
       id="rect3083"
       style="fill:#ffffff;stroke:none" />
    <path
       sodipodi:nodetypes="ccccccccc"
       inkscape:connector-curvature="0"
       id="path3120"
       d="m 24,1060.3622 0,-1 5,0 0,1 0,5 0,1 -5,0 0,-1 z"
       style="fill:#444444;fill-opacity:1;stroke:none" />
    <path
       sodipodi:nodetypes="ccccccc"
       inkscape:connector-curvature="0"
       id="path3122"
       d="m 25,1061.3622 1,-1 1,0 1,1 0,1 -3,0 z"
       style="fill:#ffffff;fill-opacity:1;stroke:none" />
    <path
       sodipodi:nodetypes="ccccccccc"
       inkscape:connector-curvature="0"
       id="path3124"
       d="m 24.97833,1066.8622 -1,0 0.02167,0.5 -1,0 0,1 3,0 0,-1.5 -1,0 z"
       style="fill:#444444;fill-opacity:1;stroke:none" />
    <rect
       y="1064.3622"
       x="25"
       height="1"
       width="1"
       id="rect3126"
       style="fill:#ffffff;stroke:none" />
    <rect
       style="fill:#ffffff;stroke:none"
       id="rect3128"
       width="1"
       height="1"
       x="27"
       y="1064.3622" />
    <path
       style="fill:#444444;fill-opacity:1;stroke:none"
       d="m 29,1066.8622 -1,0 0,0 -1,0 0,1.5 3.02167,0 0,-1 -1.02167,0 z"
       id="path3130"
       inkscape:connector-curvature="0"
       sodipodi:nodetypes="ccccccccc" />
    <path
       style="fill:#444444;fill-opacity:1;stroke:none"
       d="m 26,26 1,0 0,1 -1,0 z"
       id="rect3129"
       transform="translate(0,1040.3622)" />
    <path
       style="fill:#444444;fill-opacity:1;stroke:none"
       d="m 36.97833,1066.8622 -1,0 0.02167,0.5 -1,0 0,1 3,0 0,-1.5 -1,0 z"
       id="path3131"
       inkscape:connector-curvature="0"
       sodipodi:nodetypes="ccccccccc" />
    <path
       sodipodi:nodetypes="ccccccccc"
       inkscape:connector-curvature="0"
       id="path3133"
       d="m 41,1066.8622 -1,0 0,0 -1,0 0,1.5 3.02167,0 0,-1 -1.02167,0 z"
       style="fill:#444444;fill-opacity:1;stroke:none" />
    <rect
       y="1066.3622"
       x="38"
       height="1"
       width="1"
       id="rect3135"
       style="fill:#444444;fill-opacity:1;stroke:none" />
    <path
       sodipodi:nodetypes="ccccccc"
       inkscape:connector-curvature="0"
       id="path3153"
       d="m 36,1077.8622 1.741416,-1.5 c 1.086195,0 2.172389,0 3.258584,0 l 2,1.5 0,5.5 -7,0 z"
       style="fill:#444444;fill-opacity:1;stroke:none" />
    <rect
       y="1077.3622"
       x="38"
       height="1"
       width="3"
       id="rect3155"
       style="fill:#ffffff;fill-opacity:1;stroke:none" />
    <rect
       style="fill:#ffffff;fill-opacity:1;stroke:none"
       id="rect3157"
       width="5"
       height="0.99997681"
       x="37"
       y="1079.3622" />
    <rect
       style="fill:#ffffff;stroke:none"
       id="rect3159"
       width="1"
       height="1"
       x="37"
       y="1081.3622" />
    <rect
       y="1081.3622"
       x="41.021667"
       height="1"
       width="1"
       id="rect3161"
       style="fill:#ffffff;stroke:none" />
    <path
       style="fill:#444444;fill-opacity:1;stroke:none"
       d="m 39.5,1083.8622 -1.5,0 0,-0.5 -1,0 0,1 -1,0 0,1 3,0 0,-1 0.5,0 z"
       id="path3163"
       inkscape:connector-curvature="0"
       sodipodi:nodetypes="ccccccccccc" />
    <path
       sodipodi:nodetypes="ccccccccccc"
       inkscape:connector-curvature="0"
       id="path3167"
       d="m 39.5,1083.8622 1.5,0 0,-0.5 1,0 0,1 1,0 0,1 -3,0 0,-1 -0.5,0 z"
       style="fill:#444444;fill-opacity:1;stroke:none" />
    <path
       style="fill:#444444;fill-opacity:1;stroke:none"
       d="m 36,1090.8622 1.741416,-1.5 c 1.086195,0 2.172389,0 3.258584,0 l 2,1.5 0,5.5 -7,0 z"
       id="path3169"
       inkscape:connector-curvature="0"
       sodipodi:nodetypes="ccccccc" />
    <rect
       style="fill:#ffffff;fill-opacity:1;stroke:none"
       id="rect3171"
       width="3"
       height="1"
       x="38"
       y="1090.3622" />
    <rect
       y="1092.3622"
       x="37"
       height="0.99997681"
       width="5"
       id="rect3173"
       style="fill:#ffffff;fill-opacity:1;stroke:none" />
    <rect
       y="1094.3622"
       x="37"
       height="1"
       width="1"
       id="rect3175"
       style="fill:#ffffff;stroke:none" />
    <rect
       style="fill:#ffffff;stroke:none"
       id="rect3177"
       width="1"
       height="1"
       x="41.021667"
       y="1094.3622" />
    <path
       sodipodi:nodetypes="ccccccccccccc"
       inkscape:connector-curvature="0"
       id="path3179"
       d="m 39,1096.8622 -0.5,0 0,-0.5 -1,0 0,0.5 -0.5,0 0,0.5 -1,0 0,1 3,0 0,-1 0,0 z"
       style="fill:#444444;fill-opacity:1;stroke:none" />
    <path
       style="fill:#444444;fill-opacity:1;stroke:none"
       d="m 40,1096.8622 0.5,0 0,-0.5 1,0 0,0.5 0.5,0 0,0.5 1,0 0,1 -3,0 0,-1 0,0 z"
       id="path3183"
       inkscape:connector-curvature="0"
       sodipodi:nodetypes="ccccccccccccc" />
    <path
       style="fill:#444444;fill-opacity:1;stroke:none"
       d="m 4,1048.8622 0,0.5 -1,0 0,1 3,0 0,-1 0,-0.5 z"
       id="path3266"
       inkscape:connector-curvature="0"
       sodipodi:nodetypes="cccccccc" />
    <path
       sodipodi:nodetypes="cccccccc"
       inkscape:connector-curvature="0"
       id="path3268"
       d="m 9,1048.8622 -2.02167,0 0.02167,0.5 0,1 3,0 0,-1 -1,0 z"
       style="fill:#444444;fill-opacity:1;stroke:none" />
  </g>
</svg>
