<?xml version="1.0" encoding="UTF-8" standalone="no"?>
<!-- Created with Inkscape (http://www.inkscape.org/) -->

<svg
   xmlns:dc="http://purl.org/dc/elements/1.1/"
   xmlns:cc="http://creativecommons.org/ns#"
   xmlns:rdf="http://www.w3.org/1999/02/22-rdf-syntax-ns#"
   xmlns:svg="http://www.w3.org/2000/svg"
   xmlns="http://www.w3.org/2000/svg"
   xmlns:sodipodi="http://sodipodi.sourceforge.net/DTD/sodipodi-0.dtd"
   xmlns:inkscape="http://www.inkscape.org/namespaces/inkscape"
   width="18"
   height="18"
   id="svg4619"
   version="1.1"
   inkscape:version="0.48.4 r9939"
   sodipodi:docname="rail-18.svg">
  <defs
     id="defs4621" />
  <sodipodi:namedview
     id="base"
     pagecolor="#ffffff"
     bordercolor="#666666"
     borderopacity="1.0"
     inkscape:pageopacity="0.0"
     inkscape:pageshadow="2"
     inkscape:zoom="32"
     inkscape:cx="6.5728129"
     inkscape:cy="11.486161"
     inkscape:document-units="px"
     inkscape:current-layer="layer1"
     showgrid="true"
     showguides="false"
     inkscape:guide-bbox="true"
     inkscape:window-width="1119"
     inkscape:window-height="881"
     inkscape:window-x="218"
     inkscape:window-y="79"
     inkscape:window-maximized="0">
    <inkscape:grid
       type="xygrid"
       id="grid4627"
       empspacing="2"
       visible="true"
       enabled="true"
       snapvisiblegridlinesonly="true"
       color="#ff00ff"
       opacity="0.1254902"
       empcolor="#ff00ff"
       empopacity="0.25098039" />
    <sodipodi:guide
       orientation="0,1"
       position="7,18"
       id="guide4659" />
    <sodipodi:guide
       orientation="1,0"
       position="18,9"
       id="guide4661" />
    <sodipodi:guide
       orientation="0,1"
       position="16,17"
       id="guide4663" />
    <sodipodi:guide
       orientation="1,0"
       position="17,14"
       id="guide4665" />
    <sodipodi:guide
       orientation="1,0"
       position="0,16"
       id="guide4667" />
    <sodipodi:guide
       orientation="0,1"
       position="8,0"
       id="guide4669" />
    <sodipodi:guide
       orientation="1,0"
       position="2,10"
       id="guide4671" />
    <sodipodi:guide
       orientation="0,1"
       position="12,2"
       id="guide4673" />
    <sodipodi:guide
       orientation="0,1"
       position="12,16"
       id="guide3010" />
    <sodipodi:guide
       orientation="1,0"
       position="3,11.5"
       id="guide3012" />
    <sodipodi:guide
       orientation="1,0"
       position="16,8.5"
       id="guide3016" />
    <sodipodi:guide
       orientation="1,0"
       position="9.5,9"
       id="guide3804" />
    <sodipodi:guide
       orientation="0,1"
       position="13,3"
       id="guide3138" />
  </sodipodi:namedview>
  <metadata
     id="metadata4624">
    <rdf:RDF>
      <cc:Work
         rdf:about="">
        <dc:format>image/svg+xml</dc:format>
        <dc:type
           rdf:resource="http://purl.org/dc/dcmitype/StillImage" />
        <dc:title />
      </cc:Work>
    </rdf:RDF>
  </metadata>
  <g
     inkscape:label="Layer 1"
     inkscape:groupmode="layer"
     id="layer1"
     transform="translate(0,-1034.3622)">
    <path
       id="path3939"
       transform="translate(0,1034.3622)"
       d="M 6.9375 2 L 4 5 L 4 10.25 L 4 11 C 4 11.554 4.446 12 5 12 L 14 12 C 14.554 12 15 11.554 15 11 L 15 10.25 L 15 5 L 12.0625 2 L 6.9375 2 z M 8 3 L 11 3 L 11 4 L 8 4 L 8 3 z M 6 5 L 13 5 L 13 8 L 6 8 L 6 5 z M 6 9 L 7.5 9 L 7.5 10.5 L 6 10.5 L 6 9 z M 11.5 9 L 13 9 L 13 10.5 L 11.5 10.5 L 11.5 9 z M 5.5 13 L 5 14 L 4 14.5 L 4 15 L 8 15 L 8 13 L 5.5 13 z M 11 13 L 11 15 L 15 15 L 15 14.5 L 14 14 L 13.5 13 L 11 13 z "
       style="fill:#444444;fill-opacity:1;stroke:#ffffff;stroke-width:2;stroke-miterlimit:4;stroke-dasharray:none;stroke-linejoin:round;stroke-linecap:round;opacity:0.3" />
    <path
       style="fill:#444444;fill-opacity:1;stroke:none"
       d="M 6.9375 2 L 4 5 L 4 10.25 L 4 11 C 4 11.554 4.446 12 5 12 L 14 12 C 14.554 12 15 11.554 15 11 L 15 10.25 L 15 5 L 12.0625 2 L 6.9375 2 z M 8 3 L 11 3 L 11 4 L 8 4 L 8 3 z M 6 5 L 13 5 L 13 8 L 6 8 L 6 5 z M 6 9 L 7.5 9 L 7.5 10.5 L 6 10.5 L 6 9 z M 11.5 9 L 13 9 L 13 10.5 L 11.5 10.5 L 11.5 9 z M 5.5 13 L 5 14 L 4 14.5 L 4 15 L 8 15 L 8 13 L 5.5 13 z M 11 13 L 11 15 L 15 15 L 15 14.5 L 14 14 L 13.5 13 L 11 13 z "
       transform="translate(0,1034.3622)"
       id="rect3226" />
  </g>
</svg>
