<?xml version="1.0" encoding="UTF-8" standalone="no"?>
<!-- Created with Inkscape (http://www.inkscape.org/) -->

<svg
   xmlns:dc="http://purl.org/dc/elements/1.1/"
   xmlns:cc="http://creativecommons.org/ns#"
   xmlns:rdf="http://www.w3.org/1999/02/22-rdf-syntax-ns#"
   xmlns:svg="http://www.w3.org/2000/svg"
   xmlns="http://www.w3.org/2000/svg"
   version="1.1"
   width="18"
   height="18"
   id="svg4619">
  <defs
     id="defs4621" />
  <metadata
     id="metadata4624">
    <rdf:RDF>
      <cc:Work
         rdf:about="">
        <dc:format>image/svg+xml</dc:format>
        <dc:type
           rdf:resource="http://purl.org/dc/dcmitype/StillImage" />
        <dc:title></dc:title>
      </cc:Work>
    </rdf:RDF>
  </metadata>
  <path
     d="M 9.5,2 C 7.0147186,2 5,3.9587535 5,6.375 4.9998504,8.0880318 5,9.86775 5,11.34375 5,11.70385 5.3039615,12 5.6875,12 l 7.625,0 C 13.696039,12 14,11.70385 14,11.34375 L 14,6.375 C 14,3.9587535 11.985281,2 9.5,2 z M 8.90625,3.5625 C 8.936748,3.55626 8.969173,3.56781 9,3.5625 L 9,8 6.5,8 6.5,6.5 C 6.5,5.0502442 7.5392006,3.8422371 8.90625,3.5625 z M 10,3.5625 C 11.412646,3.8057143 12.5,5.0179013 12.5,6.5 L 12.5,8 10,8 10,3.5625 z M 6.5,9.5 8,9.5 8,11 6.5,11 6.5,9.5 z m 4.5,0 1.5,0 0,1.5 -1.5,0 0,-1.5 z m -5,3.5 0,1 -1,0 0,1 4,0 0,-2 -3,0 z m 4,0 0,2 4,0 0,-1 -1,0 0,-1 -3,0 z"
     id="path9038"
     style="opacity:0.3;fill:#444444;fill-opacity:1;stroke:#ffffff;stroke-width:2;stroke-linecap:round;stroke-linejoin:round;stroke-miterlimit:4;stroke-opacity:1;stroke-dasharray:none" />
  <path
     d="M 9.5,2 C 7.0147186,2 5,3.9587535 5,6.375 4.9998504,8.0880318 5,9.86775 5,11.34375 5,11.70385 5.3039615,12 5.6875,12 l 7.625,0 C 13.696039,12 14,11.70385 14,11.34375 L 14,6.375 C 14,3.9587535 11.985281,2 9.5,2 z M 8.90625,3.5625 C 8.936748,3.55626 8.969173,3.56781 9,3.5625 L 9,8 6.5,8 6.5,6.5 C 6.5,5.0502442 7.5392006,3.8422371 8.90625,3.5625 z M 10,3.5625 C 11.412646,3.8057143 12.5,5.0179013 12.5,6.5 L 12.5,8 10,8 10,3.5625 z M 6.5,9.5 8,9.5 8,11 6.5,11 6.5,9.5 z m 4.5,0 1.5,0 0,1.5 -1.5,0 0,-1.5 z m -5,3.5 0,1 -1,0 0,1 4,0 0,-2 -3,0 z m 4,0 0,2 4,0 0,-1 -1,0 0,-1 -3,0 z"
     id="rect3109-8"
     style="fill:#444444;fill-opacity:1;stroke:none" />
  <rect
     width="18"
     height="18"
     x="0"
     y="0"
     id="canvas"
     style="fill:none;stroke:none;visibility:hidden" />
</svg>
