<?xml version="1.0" encoding="UTF-8" standalone="no"?>
<!-- Created with Inkscape (http://www.inkscape.org/) -->

<svg
   xmlns:dc="http://purl.org/dc/elements/1.1/"
   xmlns:cc="http://creativecommons.org/ns#"
   xmlns:rdf="http://www.w3.org/1999/02/22-rdf-syntax-ns#"
   xmlns:svg="http://www.w3.org/2000/svg"
   xmlns="http://www.w3.org/2000/svg"
   version="1.1"
   width="18"
   height="18"
   id="svg4619">
  <defs
     id="defs4621" />
  <metadata
     id="metadata4624">
    <rdf:RDF>
      <cc:Work
         rdf:about="">
        <dc:format>image/svg+xml</dc:format>
        <dc:type
           rdf:resource="http://purl.org/dc/dcmitype/StillImage" />
        <dc:title></dc:title>
      </cc:Work>
    </rdf:RDF>
  </metadata>
  <path
     d="M 8,2 8,3 7.5,3 C 6.669,3 6,3.669 6,4.5 l 0,5 0,1 C 6,11.331 6.669,12 7.5,12 l 4,0 c 0.831,0 1.5,-0.669 1.5,-1.5 l 0,-1 0,-5 C 13,3.669 12.331,3 11.5,3 L 11,3 11,2 8,2 z m 0,2 3,0 c 0.553621,0 1,0.446 1,1 L 12,5.5 12,5.75 12,7 7,7 7,5.75 7,5.5 7,5 C 7,4.446 7.4463787,4 8,4 z M 7,9 8.5,9 8.5,10.5 7,10.5 7,9 z m 3.5,0 1.5,0 0,1.5 -1.5,0 0,-1.5 z m -4.5,4 0,1 -1,0 0,1 4,0 0,-2 -3,0 z m 4,0 0,2 4,0 0,-1 -1,0 0,-1 -3,0 z"
     id="path10829"
     style="opacity:0.3;fill:none;stroke:#ffffff;stroke-width:2;stroke-linecap:round;stroke-linejoin:round;stroke-miterlimit:4;stroke-opacity:1;stroke-dasharray:none" />
  <path
     d="M 8,2 8,3 7.5,3 C 6.669,3 6,3.669 6,4.5 l 0,5 0,1 C 6,11.331 6.669,12 7.5,12 l 4,0 c 0.831,0 1.5,-0.669 1.5,-1.5 l 0,-1 0,-5 C 13,3.669 12.331,3 11.5,3 L 11,3 11,2 8,2 z m 0,2 3,0 c 0.553621,0 1,0.446 1,1 L 12,5.5 12,5.75 12,7 7,7 7,5.75 7,5.5 7,5 C 7,4.446 7.4463787,4 8,4 z M 7,9 8.5,9 8.5,10.5 7,10.5 7,9 z m 3.5,0 1.5,0 0,1.5 -1.5,0 0,-1.5 z m -4.5,4 0,1 -1,0 0,1 4,0 0,-2 -3,0 z m 4,0 0,2 4,0 0,-1 -1,0 0,-1 -3,0 z"
     id="rect4041"
     style="fill:#444444;fill-opacity:1;stroke:none" />
  <rect
     width="18"
     height="18"
     x="0"
     y="0"
     id="canvas"
     style="fill:none;stroke:none;visibility:hidden" />
</svg>
