<?xml version="1.0" encoding="UTF-8" standalone="no"?>
<!-- Created with Inkscape (http://www.inkscape.org/) -->

<svg
   xmlns:dc="http://purl.org/dc/elements/1.1/"
   xmlns:cc="http://creativecommons.org/ns#"
   xmlns:rdf="http://www.w3.org/1999/02/22-rdf-syntax-ns#"
   xmlns:svg="http://www.w3.org/2000/svg"
   xmlns="http://www.w3.org/2000/svg"
   xmlns:inkscape="http://www.inkscape.org/namespaces/inkscape"
   version="1.1"
   width="24"
   height="24"
   id="svg4460">
  <defs
     id="defs4462" />
  <metadata
     id="metadata4465">
    <rdf:RDF>
      <cc:Work
         rdf:about="">
        <dc:format>image/svg+xml</dc:format>
        <dc:type
           rdf:resource="http://purl.org/dc/dcmitype/StillImage" />
        <dc:title />
      </cc:Work>
    </rdf:RDF>
  </metadata>
  <g
     transform="translate(0,-1028.3622)"
     id="layer1">
    <path
       d="M 9.8125,1 A 1.0001,1.0001 0 0 0 9,2 C 7.3552972,2 6,3.3553 6,5 l 0,10 c 0,1.223624 0.7511003,2.285681 1.8125,2.75 L 5.28125,20.28125 C 4.7068834,20.83665 5.201277,22.0188 6,22 l 4,0 c 0.335757,0 0.665381,-0.18425 0.84375,-0.46875 L 12.5,19.0625 14.15625,21.53125 C 14.334619,21.81575 14.664243,21.9988 15,22 l 4,0 c 0.798723,0.019 1.293117,-1.16335 0.71875,-1.71875 L 17.1875,17.75 C 18.2489,17.285681 19,16.223624 19,15 L 19,5 C 19,3.3553 17.644703,2 16,2 A 1.0001,1.0001 0 0 0 15,1 L 10,1 A 1.0001,1.0001 0 0 0 9.90625,1 1.0001,1.0001 0 0 0 9.8125,1 z M 11,3 14,3 a 1.0001,1.0001 0 0 0 0.8125,1 l -4.625,0 A 1.0001,1.0001 0 0 0 11,3 z M 9,4 10,4 C 8.9092972,4 8,4.9093 8,6 L 8,5 C 8,4.4287 8.4287028,4 9,4 z m 6,0 1,0 c 0.571297,0 1,0.4287 1,1 l 0,1 C 17,4.9093 16.090703,4 15,4 z m -5,2 5,0 0,2 -5,0 0,-2 z M 8,9.1875 A 1.0001,1.0001 0 0 0 9,10 l 7,0 A 1.0001,1.0001 0 0 0 17,9.1875 L 17,14 l 0,1 c 0,0.5713 -0.428703,1 -1,1 l -1,0 -5,0 -1,0 C 8.4287028,16 8,15.5713 8,15 L 8,14 8,9.1875 z M 8,14 c 0,1.0927 0.9072754,2 2,2 1.092725,0 2,-0.9073 2,-2 0,-1.0927 -0.907275,-2 -2,-2 -1.0927246,0 -2,0.9073 -2,2 z m 7,2 c 1.092725,0 2,-0.9073 2,-2 0,-1.0927 -0.907275,-2 -2,-2 -1.092725,0 -2,0.9073 -2,2 0,1.0927 0.907275,2 2,2 z"
       inkscape:connector-curvature="0"
       transform="translate(0,1028.3622)"
       id="path3259"
       style="font-size:medium;font-style:normal;font-variant:normal;font-weight:normal;font-stretch:normal;text-indent:0;text-align:start;text-decoration:none;line-height:normal;letter-spacing:normal;word-spacing:normal;text-transform:none;direction:ltr;block-progression:tb;writing-mode:lr-tb;text-anchor:start;baseline-shift:baseline;opacity:0.3;color:#000000;fill:#ffffff;fill-opacity:1;stroke:none;stroke-width:2;marker:none;visibility:visible;display:inline;overflow:visible;enable-background:accumulate;font-family:Sans;-inkscape-font-specification:Sans" />
    <path
       d="M 10,2 10,3 9,3 C 7.892,3 7,3.892 7,5 l 0,10 c 0,1.108 0.892,2 2,2 l 7,0 c 1.108,0 2,-0.892 2,-2 L 18,5 C 18,3.892 17.108,3 16,3 l -1,0 0,-1 -5,0 z m 0,3 5,0 c 0.554,0 1,0.446 1,1 L 16,9 9,9 9,6 C 9,5.446 9.446,5 10,5 z m 0,8 c 0.552285,0 1,0.447715 1,1 0,0.552285 -0.447715,1 -1,1 -0.5522847,0 -1,-0.447715 -1,-1 0,-0.552285 0.4477153,-1 1,-1 z m 5,0 c 0.552285,0 1,0.447715 1,1 0,0.552285 -0.447715,1 -1,1 -0.552285,0 -1,-0.447715 -1,-1 0,-0.552285 0.447715,-1 1,-1 z m -6,5 -3,3 4,0 2,-3 -3,0 z m 4,0 2,3 4,0 -3,-3 -3,0 z"
       inkscape:connector-curvature="0"
       transform="translate(0,1028.3622)"
       id="rect3004"
       style="fill:#444444;fill-opacity:1;stroke:none" />
  </g>
  <rect
     width="24"
     height="24"
     x="0"
     y="0"
     id="canvas"
     style="fill:none;stroke:none;visibility:hidden" />
</svg>
