<?xml version="1.0" encoding="UTF-8" standalone="no"?>
<!-- Created with Inkscape (http://www.inkscape.org/) -->

<svg
   xmlns:dc="http://purl.org/dc/elements/1.1/"
   xmlns:cc="http://creativecommons.org/ns#"
   xmlns:rdf="http://www.w3.org/1999/02/22-rdf-syntax-ns#"
   xmlns:svg="http://www.w3.org/2000/svg"
   xmlns="http://www.w3.org/2000/svg"
   version="1.1"
   width="24"
   height="24"
   id="svg4460">
  <defs
     id="defs4462" />
  <metadata
     id="metadata4465">
    <rdf:RDF>
      <cc:Work
         rdf:about="">
        <dc:format>image/svg+xml</dc:format>
        <dc:type
           rdf:resource="http://purl.org/dc/dcmitype/StillImage" />
        <dc:title></dc:title>
      </cc:Work>
    </rdf:RDF>
  </metadata>
  <path
     d="m 9,2 -4,4 0,7 0,3 c 0,0.554 0.446,1 1,1 l 13,0 c 0.554,0 1,-0.446 1,-1 L 20,13 20,6 16,2 9,2 z m 1,2 5,0 0,2 -5,0 0,-2 z M 7,7 18,7 18,11 7,11 7,7 z m 1,6 c 0.5522847,0 1,0.447715 1,1 0,0.552285 -0.4477153,1 -1,1 -0.5522847,0 -1,-0.447715 -1,-1 0,-0.552285 0.4477153,-1 1,-1 z m 9,0 c 0.552285,0 1,0.447715 1,1 0,0.552285 -0.447715,1 -1,1 -0.552285,0 -1,-0.447715 -1,-1 0,-0.552285 0.447715,-1 1,-1 z m -9,5 -3,3 4,0 2,-3 -3,0 z m 6,0 2,3 4,0 -3,-3 -3,0 z"
     id="path7782"
     style="opacity:0.3;fill:none;stroke:#ffffff;stroke-width:2;stroke-linecap:round;stroke-linejoin:round;stroke-miterlimit:4;stroke-opacity:1;stroke-dasharray:none" />
  <path
     d="m 9,2 -4,4 0,7 0,3 c 0,0.554 0.446,1 1,1 l 13,0 c 0.554,0 1,-0.446 1,-1 L 20,13 20,6 16,2 9,2 z m 1,2 5,0 0,2 -5,0 0,-2 z M 7,7 18,7 18,11 7,11 7,7 z m 1,6 c 0.5522847,0 1,0.447715 1,1 0,0.552285 -0.4477153,1 -1,1 -0.5522847,0 -1,-0.447715 -1,-1 0,-0.552285 0.4477153,-1 1,-1 z m 9,0 c 0.552285,0 1,0.447715 1,1 0,0.552285 -0.447715,1 -1,1 -0.552285,0 -1,-0.447715 -1,-1 0,-0.552285 0.447715,-1 1,-1 z m -9,5 -3,3 4,0 2,-3 -3,0 z m 6,0 2,3 4,0 -3,-3 -3,0 z"
     id="rect3226"
     style="fill:#444444;fill-opacity:1;stroke:none" />
  <rect
     width="24"
     height="24"
     x="0"
     y="0"
     id="canvas"
     style="fill:none;stroke:none;visibility:hidden" />
</svg>
