<?xml version="1.0" encoding="UTF-8" standalone="no"?>
<!-- Created with Inkscape (http://www.inkscape.org/) -->

<svg
   xmlns:dc="http://purl.org/dc/elements/1.1/"
   xmlns:cc="http://creativecommons.org/ns#"
   xmlns:rdf="http://www.w3.org/1999/02/22-rdf-syntax-ns#"
   xmlns:svg="http://www.w3.org/2000/svg"
   xmlns="http://www.w3.org/2000/svg"
   xmlns:sodipodi="http://sodipodi.sourceforge.net/DTD/sodipodi-0.dtd"
   xmlns:inkscape="http://www.inkscape.org/namespaces/inkscape"
   width="12"
   height="12"
   id="svg4764"
   version="1.1"
   inkscape:version="0.48.2 r9819"
   sodipodi:docname="rail-metro-12.svg">
  <defs
     id="defs4766" />
  <sodipodi:namedview
     id="base"
     pagecolor="#ffffff"
     bordercolor="#666666"
     borderopacity="1.0"
     inkscape:pageopacity="0.0"
     inkscape:pageshadow="2"
     inkscape:zoom="1"
     inkscape:cx="5.4435686"
     inkscape:cy="6.3485032"
     inkscape:document-units="px"
     inkscape:current-layer="layer1"
     showgrid="true"
     showguides="true"
     inkscape:guide-bbox="true"
     inkscape:window-width="1100"
     inkscape:window-height="788"
     inkscape:window-x="735"
     inkscape:window-y="137"
     inkscape:window-maximized="0">
    <inkscape:grid
       type="xygrid"
       id="grid4772"
       empspacing="2"
       visible="true"
       enabled="true"
       snapvisiblegridlinesonly="true"
       color="#ff00ff"
       opacity="0.1254902"
       empcolor="#ff00ff"
       empopacity="0.25098039" />
    <sodipodi:guide
       orientation="0,1"
       position="2,12"
       id="guide4789" />
    <sodipodi:guide
       orientation="1,0"
       position="12,10"
       id="guide4791" />
    <sodipodi:guide
       orientation="0,1"
       position="10,0"
       id="guide4793" />
    <sodipodi:guide
       orientation="1,0"
       position="0,9"
       id="guide4795" />
    <sodipodi:guide
       orientation="0,1"
       position="5,11"
       id="guide4797" />
    <sodipodi:guide
       orientation="1,0"
       position="11,7"
       id="guide4799" />
    <sodipodi:guide
       orientation="0,1"
       position="9,2"
       id="guide4801" />
    <sodipodi:guide
       orientation="1,0"
       position="2,5"
       id="guide4803" />
  </sodipodi:namedview>
  <metadata
     id="metadata4769">
    <rdf:RDF>
      <cc:Work
         rdf:about="">
        <dc:format>image/svg+xml</dc:format>
        <dc:type
           rdf:resource="http://purl.org/dc/dcmitype/StillImage" />
        <dc:title></dc:title>
      </cc:Work>
    </rdf:RDF>
  </metadata>
  <g
     inkscape:label="Layer 1"
     inkscape:groupmode="layer"
     id="layer1"
     transform="translate(0,-1040.3622)">
    <path
       style="fill:#444444;fill-opacity:1;stroke:none"
       d="m 4,1042.3622 1,-1 3,0 1,1 0,5 -1,1 -3,0 -1,-1 z"
       id="path3924"
       inkscape:connector-curvature="0" />
    <path
       style="fill:#ffffff;fill-opacity:1;stroke:none"
       d="m 5,1043.3622 1,-1 1,0 1,1 0,1 -3,0 z"
       id="rect3780"
       inkscape:connector-curvature="0"
       sodipodi:nodetypes="ccccccc" />
    <path
       style="fill:#444444;fill-opacity:1;stroke:none"
       d="m 6,1048.8622 -2,0 -1,1.5 2,0 z"
       id="path3787"
       inkscape:connector-curvature="0"
       sodipodi:nodetypes="ccccc" />
    <path
       sodipodi:nodetypes="ccccc"
       inkscape:connector-curvature="0"
       id="path3789"
       d="m 7,1048.8622 2,0 1,1.5 -2,0 z"
       style="fill:#444444;fill-opacity:1;stroke:none" />
    <rect
       style="fill:#ffffff;stroke:none"
       id="rect3892"
       width="1"
       height="1"
       x="5"
       y="1046.3622" />
    <rect
       y="1046.3622"
       x="7"
       height="1"
       width="1"
       id="rect3894"
       style="fill:#ffffff;stroke:none" />
    <rect
       ry="1"
       rx="1"
       y="1041.3622"
       x="18.5"
       height="7.0000091"
       width="6"
       id="rect3896"
       style="fill:#444444;fill-opacity:1;stroke:none" />
    <rect
       y="1042.3622"
       x="19.5"
       height="2.5"
       width="4"
       id="rect3898"
       style="fill:#ffffff;fill-opacity:1;stroke:none" />
    <rect
       style="fill:#444444;fill-opacity:1;stroke:none"
       id="rect3900"
       width="4"
       height="1.0000087"
       x="19.5"
       y="-1045.3622"
       transform="scale(1,-1)" />
    <path
       sodipodi:nodetypes="ccccc"
       inkscape:connector-curvature="0"
       id="path3902"
       d="m 21,1048.8622 -1,0 -1.5,1.5 1.5,0 z"
       style="fill:#444444;fill-opacity:1;stroke:none" />
    <path
       style="fill:#444444;fill-opacity:1;stroke:none"
       d="m 22.25,1048.8622 1,0 1.25,1.5 -1.5,0 z"
       id="path3904"
       inkscape:connector-curvature="0"
       sodipodi:nodetypes="ccccc" />
    <rect
       y="1046.3622"
       x="19.5"
       height="1"
       width="1"
       id="rect3906"
       style="fill:#ffffff;stroke:none" />
    <rect
       style="fill:#ffffff;stroke:none"
       id="rect3908"
       width="1"
       height="1"
       x="22.5"
       y="1046.3622" />
    <rect
       ry="1"
       rx="1"
       y="1041.3622"
       x="-8"
       height="7.0000091"
       width="5"
       id="rect3910"
       style="fill:#444444;fill-opacity:1;stroke:none" />
    <rect
       y="1042.3622"
       x="-7"
       height="2.5"
       width="3"
       id="rect3912"
       style="fill:#ffffff;fill-opacity:1;stroke:none" />
    <rect
       style="fill:#444444;fill-opacity:1;stroke:none"
       id="rect3914"
       width="4"
       height="1.0000087"
       x="-8"
       y="-1045.3622"
       transform="scale(1,-1)" />
    <path
       sodipodi:nodetypes="ccccc"
       inkscape:connector-curvature="0"
       id="path3916"
       d="m -5.5,1048.8622 -1,0 -1.5,1.5 1.5,0 z"
       style="fill:#444444;fill-opacity:1;stroke:none" />
    <path
       style="fill:#444444;fill-opacity:1;stroke:none"
       d="m -5.25,1048.8622 1,0 1.25,1.5 -1.5,0 z"
       id="path3918"
       inkscape:connector-curvature="0"
       sodipodi:nodetypes="ccccc" />
    <rect
       y="1046.3622"
       x="-7"
       height="1"
       width="1"
       id="rect3920"
       style="fill:#ffffff;stroke:none" />
    <rect
       style="fill:#ffffff;stroke:none"
       id="rect3922"
       width="1"
       height="1"
       x="-5"
       y="1046.3622" />
    <path
       inkscape:connector-curvature="0"
       id="path3926"
       d="m -23,1042.3622 1,-1 3,0 1,1 0,5 -1,1 -3,0 -1,-1 z"
       style="fill:#444444;fill-opacity:1;stroke:none" />
    <rect
       y="1042.3622"
       x="-22"
       height="2.5"
       width="3"
       id="rect3928"
       style="fill:#ffffff;fill-opacity:1;stroke:none" />
    <rect
       style="fill:#444444;fill-opacity:1;stroke:none"
       id="rect3930"
       width="4"
       height="1.0000087"
       x="-23"
       y="-1045.3622"
       transform="scale(1,-1)" />
    <path
       sodipodi:nodetypes="ccccc"
       inkscape:connector-curvature="0"
       id="path3932"
       d="m -20.5,1048.8622 -1,0 -1.5,1.5 1.5,0 z"
       style="fill:#444444;fill-opacity:1;stroke:none" />
    <path
       style="fill:#444444;fill-opacity:1;stroke:none"
       d="m -20.25,1048.8622 1,0 1.25,1.5 -1.5,0 z"
       id="path3934"
       inkscape:connector-curvature="0"
       sodipodi:nodetypes="ccccc" />
    <rect
       y="1046.3622"
       x="-22"
       height="1"
       width="1"
       id="rect3936"
       style="fill:#ffffff;stroke:none" />
    <rect
       style="fill:#ffffff;stroke:none"
       id="rect3938"
       width="1"
       height="1"
       x="-20"
       y="1046.3622" />
    <path
       inkscape:connector-curvature="0"
       id="path3941"
       d="m -43,1042.3622 1,-1 3,0 1,1 0,5 -1,1 -3,0 -1,-1 z"
       style="fill:#444444;fill-opacity:1;stroke:none" />
    <path
       sodipodi:nodetypes="ccccccc"
       inkscape:connector-curvature="0"
       id="path3943"
       d="m -42,1043.3622 1,-1 1,0 1,1 0,1 -3,0 z"
       style="fill:#ffffff;fill-opacity:1;stroke:none" />
    <path
       sodipodi:nodetypes="ccccc"
       inkscape:connector-curvature="0"
       id="path3945"
       d="m -41,1048.8622 -1.5,0 -1,1.5 1.5,0 z"
       style="fill:#444444;fill-opacity:1;stroke:none" />
    <path
       style="fill:#444444;fill-opacity:1;stroke:none"
       d="m -40,1048.8622 1.5,0 1,1.5 -1.5,0 z"
       id="path3947"
       inkscape:connector-curvature="0"
       sodipodi:nodetypes="ccccc" />
    <rect
       y="1046.3622"
       x="-42"
       height="1"
       width="1"
       id="rect3949"
       style="fill:#ffffff;stroke:none" />
    <rect
       style="fill:#ffffff;stroke:none"
       id="rect3951"
       width="1"
       height="1"
       x="-40"
       y="1046.3622" />
    <path
       inkscape:connector-curvature="0"
       id="path3965"
       d="m -65,1042.3622 1,-1 3,0 1,1 0,5 -1,1 -3,0 -1,-1 z"
       style="fill:#444444;fill-opacity:1;stroke:none" />
    <path
       sodipodi:nodetypes="ccccccc"
       inkscape:connector-curvature="0"
       id="path3967"
       d="m -64,1043.3622 1,-1 1,0 1,1 0,1 -3,0 z"
       style="fill:#ffffff;fill-opacity:1;stroke:none" />
    <path
       sodipodi:nodetypes="ccccc"
       inkscape:connector-curvature="0"
       id="path3969"
       d="m -63,1048.8622 -2,0 -1,1.5 2,0 z"
       style="fill:#444444;fill-opacity:1;stroke:none" />
    <path
       style="fill:#444444;fill-opacity:1;stroke:none"
       d="m -62,1048.8622 2,0 1,1.5 -2,0 z"
       id="path3971"
       inkscape:connector-curvature="0"
       sodipodi:nodetypes="ccccc" />
    <rect
       y="1046.3622"
       x="-64"
       height="1"
       width="1"
       id="rect3973"
       style="fill:#ffffff;stroke:none" />
    <rect
       style="fill:#ffffff;stroke:none"
       id="rect3975"
       width="1"
       height="1"
       x="-62"
       y="1046.3622" />
  </g>
</svg>
