<?xml version="1.0" encoding="UTF-8" standalone="no"?>
<!-- Created with Inkscape (http://www.inkscape.org/) -->

<svg
   xmlns:dc="http://purl.org/dc/elements/1.1/"
   xmlns:cc="http://creativecommons.org/ns#"
   xmlns:rdf="http://www.w3.org/1999/02/22-rdf-syntax-ns#"
   xmlns:svg="http://www.w3.org/2000/svg"
   xmlns="http://www.w3.org/2000/svg"
   xmlns:sodipodi="http://sodipodi.sourceforge.net/DTD/sodipodi-0.dtd"
   xmlns:inkscape="http://www.inkscape.org/namespaces/inkscape"
   width="24"
   height="24"
   id="svg4460"
   version="1.1"
   inkscape:version="0.48.4 r9939"
   sodipodi:docname="rail-metro-24.svg">
  <defs
     id="defs4462" />
  <sodipodi:namedview
     id="base"
     pagecolor="#ffffff"
     bordercolor="#666666"
     borderopacity="1.0"
     inkscape:pageopacity="0.0"
     inkscape:pageshadow="2"
     inkscape:zoom="22.627417"
     inkscape:cx="1.1936508"
     inkscape:cy="14.172262"
     inkscape:document-units="px"
     inkscape:current-layer="layer1"
     showgrid="true"
     showguides="false"
     inkscape:guide-bbox="true"
     inkscape:window-width="1203"
     inkscape:window-height="948"
     inkscape:window-x="221"
     inkscape:window-y="30"
     inkscape:window-maximized="0">
    <inkscape:grid
       type="xygrid"
       id="grid4468"
       empspacing="2"
       visible="true"
       enabled="true"
       snapvisiblegridlinesonly="true"
       color="#ff00ff"
       opacity="0.1254902"
       empcolor="#ff00ff"
       empopacity="0.25098039" />
    <sodipodi:guide
       orientation="1,0"
       position="0,20"
       id="guide4470" />
    <sodipodi:guide
       orientation="0,1"
       position="4,24"
       id="guide4472" />
    <sodipodi:guide
       orientation="1,0"
       position="24,13"
       id="guide4474" />
    <sodipodi:guide
       orientation="0,1"
       position="15,0"
       id="guide4476" />
    <sodipodi:guide
       orientation="1,0"
       position="23,20"
       id="guide4478" />
    <sodipodi:guide
       orientation="0,1"
       position="20,23"
       id="guide4480" />
    <sodipodi:guide
       orientation="1,0"
       position="2,5"
       id="guide4482" />
    <sodipodi:guide
       orientation="0,1"
       position="7,2"
       id="guide4484" />
    <sodipodi:guide
       orientation="1,0"
       position="12.5,21"
       id="guide4486" />
    <sodipodi:guide
       orientation="0,1"
       position="16,13"
       id="guide4490" />
    <sodipodi:guide
       orientation="1,0"
       position="3,13.5"
       id="guide3012" />
    <sodipodi:guide
       orientation="0,1"
       position="6.5,22"
       id="guide3014" />
    <sodipodi:guide
       orientation="1,0"
       position="22,18"
       id="guide3016" />
    <sodipodi:guide
       orientation="0,1"
       position="13.5,3"
       id="guide3018" />
  </sodipodi:namedview>
  <metadata
     id="metadata4465">
    <rdf:RDF>
      <cc:Work
         rdf:about="">
        <dc:format>image/svg+xml</dc:format>
        <dc:type
           rdf:resource="http://purl.org/dc/dcmitype/StillImage" />
        <dc:title />
      </cc:Work>
    </rdf:RDF>
  </metadata>
  <g
     inkscape:label="Layer 1"
     inkscape:groupmode="layer"
     id="layer1"
     transform="translate(0,-1028.3622)">
    <path
       id="path3227"
       transform="translate(0,1028.3622)"
       d="M 10 2 L 10 3 L 9 3 C 7.892 3 7 3.892 7 5 L 7 15 C 7 16.108 7.892 17 9 17 L 16 17 C 17.108 17 18 16.108 18 15 L 18 5 C 18 3.892 17.108 3 16 3 L 15 3 L 15 2 L 10 2 z M 10 5 L 15 5 C 15.554 5 16 5.446 16 6 L 16 9 L 9 9 L 9 6 C 9 5.446 9.446 5 10 5 z M 10 13 C 10.552285 13 11 13.447715 11 14 C 11 14.552285 10.552285 15 10 15 C 9.4477153 15 9 14.552285 9 14 C 9 13.447715 9.4477153 13 10 13 z M 15 13 C 15.552285 13 16 13.447715 16 14 C 16 14.552285 15.552285 15 15 15 C 14.447715 15 14 14.552285 14 14 C 14 13.447715 14.447715 13 15 13 z M 9 18 L 6 21 L 10 21 L 12 18 L 9 18 z M 13 18 L 15 21 L 19 21 L 16 18 L 13 18 z "
       style="fill:#444444;fill-opacity:1;stroke:#ffffff;stroke-width:2;stroke-miterlimit:4;stroke-dasharray:none;stroke-linejoin:round;stroke-linecap:round;opacity:0.3" />
    <path
       style="fill:#444444;fill-opacity:1;stroke:none"
       d="M 10 2 L 10 3 L 9 3 C 7.892 3 7 3.892 7 5 L 7 15 C 7 16.108 7.892 17 9 17 L 16 17 C 17.108 17 18 16.108 18 15 L 18 5 C 18 3.892 17.108 3 16 3 L 15 3 L 15 2 L 10 2 z M 10 5 L 15 5 C 15.554 5 16 5.446 16 6 L 16 9 L 9 9 L 9 6 C 9 5.446 9.446 5 10 5 z M 10 13 C 10.552285 13 11 13.447715 11 14 C 11 14.552285 10.552285 15 10 15 C 9.4477153 15 9 14.552285 9 14 C 9 13.447715 9.4477153 13 10 13 z M 15 13 C 15.552285 13 16 13.447715 16 14 C 16 14.552285 15.552285 15 15 15 C 14.447715 15 14 14.552285 14 14 C 14 13.447715 14.447715 13 15 13 z M 9 18 L 6 21 L 10 21 L 12 18 L 9 18 z M 13 18 L 15 21 L 19 21 L 16 18 L 13 18 z "
       transform="translate(0,1028.3622)"
       id="rect3004" />
  </g>
</svg>
