<?xml version="1.0" encoding="UTF-8" standalone="no"?>
<!-- Created with Inkscape (http://www.inkscape.org/) -->

<svg
   xmlns:dc="http://purl.org/dc/elements/1.1/"
   xmlns:cc="http://creativecommons.org/ns#"
   xmlns:rdf="http://www.w3.org/1999/02/22-rdf-syntax-ns#"
   xmlns:svg="http://www.w3.org/2000/svg"
   xmlns="http://www.w3.org/2000/svg"
   xmlns:inkscape="http://www.inkscape.org/namespaces/inkscape"
   version="1.1"
   width="18"
   height="18"
   id="svg4619">
  <defs
     id="defs4621" />
  <metadata
     id="metadata4624">
    <rdf:RDF>
      <cc:Work
         rdf:about="">
        <dc:format>image/svg+xml</dc:format>
        <dc:type
           rdf:resource="http://purl.org/dc/dcmitype/StillImage" />
        <dc:title />
      </cc:Work>
    </rdf:RDF>
  </metadata>
  <g
     transform="translate(0,-1034.3622)"
     id="layer1">
    <g
       transform="translate(-108,-88)"
       id="rail-above-18"
       style="display:inline">
      <g
         id="g21761">
        <path
           d="m 114,1124.3622 -2,1.5 0,7.5 c 0,0.5 0.5,1 1,1 l 9,0 c 0.5,0 1.06608,-0.5044 1,-1 l 0,-7.5 -2,-1.5 z m 2.5,11 -3.5,2 9,0 -3.5,-2 z"
           inkscape:connector-curvature="0"
           id="path8182"
           style="opacity:0.3;color:#000000;fill:#ffffff;stroke:#ffffff;stroke-width:2;stroke-linecap:round;stroke-linejoin:round;stroke-miterlimit:4;stroke-opacity:1;stroke-dasharray:none;stroke-dashoffset:0;marker:none;visibility:visible;display:inline;overflow:visible;enable-background:accumulate" />
        <path
           d="m 234,98 -2,1.5 0,7.5 c 0,0.5 0.5,1 1,1 l 9,0 c 0.5,0 1,-0.5 1,-1 l 0,-7.5 -2,-1.5 z m 1.5,1 4,0 1.5,1 0,2 -7,0 0,-2 z m -0.75,5.5 c 0.41421,0 0.75,0.3358 0.75,0.75 0,0.4142 -0.33579,0.75 -0.75,0.75 -0.41421,0 -0.75,-0.3358 -0.75,-0.75 0,-0.4142 0.33579,-0.75 0.75,-0.75 z m 5.5,0 c 0.41421,0 0.75,0.3358 0.75,0.75 0,0.4142 -0.33579,0.75 -0.75,0.75 -0.41421,0 -0.75,-0.3358 -0.75,-0.75 0,-0.4142 0.33579,-0.75 0.75,-0.75 z m -3.75,4.5 -3.5,2 9,0 -3.5,-2 z"
           inkscape:connector-curvature="0"
           transform="translate(-120,1026.3622)"
           id="path8176"
           style="color:#000000;fill:#444444;fill-opacity:1;fill-rule:nonzero;stroke:none;stroke-width:2;marker:none;visibility:visible;display:inline;overflow:visible;enable-background:accumulate" />
      </g>
    </g>
  </g>
  <rect
     width="18"
     height="18"
     x="0"
     y="0"
     id="canvas"
     style="fill:none;stroke:none;visibility:hidden" />
</svg>
