<?xml version="1.0" encoding="UTF-8" standalone="no"?>
<!-- Created with Inkscape (http://www.inkscape.org/) -->

<svg
   xmlns:dc="http://purl.org/dc/elements/1.1/"
   xmlns:cc="http://creativecommons.org/ns#"
   xmlns:rdf="http://www.w3.org/1999/02/22-rdf-syntax-ns#"
   xmlns:svg="http://www.w3.org/2000/svg"
   xmlns="http://www.w3.org/2000/svg"
   xmlns:inkscape="http://www.inkscape.org/namespaces/inkscape"
   version="1.1"
   width="18"
   height="18"
   id="svg4619">
  <defs
     id="defs4621" />
  <metadata
     id="metadata4624">
    <rdf:RDF>
      <cc:Work
         rdf:about="">
        <dc:format>image/svg+xml</dc:format>
        <dc:type
           rdf:resource="http://purl.org/dc/dcmitype/StillImage" />
        <dc:title />
      </cc:Work>
    </rdf:RDF>
  </metadata>
  <g
     transform="translate(0,-1034.3622)"
     id="layer1">
    <path
       d="M 6.84375,1 C 6.6071625,1.025 6.3809879,1.1384 6.21875,1.3125 l -2.9375,3 C 3.1048751,4.4948 3.0019888,4.7463 3,5 3,7 3,9 3,11 3,11.754632 3.4330229,12.410119 4.0625,12.75 4.036204,12.83975 3.99834,12.905783 4,13 c -0.5235845,5.2e-5 -0.9999476,0.476416 -1,1 l 0,1 c 5.24e-5,0.523584 0.4764155,0.999948 1,1 l 4,0 c 0.5235845,-5.2e-5 0.9999476,-0.476416 1,-1 l 0,-2 1,0 0,2 c 5.2e-5,0.523584 0.476416,0.999948 1,1 l 4,0 c 0.523584,-5.2e-5 0.999948,-0.476416 1,-1 l 0,-1 c -5.2e-5,-0.523584 -0.476416,-0.999948 -1,-1 -9e-6,-0.08726 -0.03802,-0.167346 -0.0625,-0.25 C 15.566977,12.410119 16,11.754632 16,11 16,9 16,7 16,5 15.998,4.7463 15.895125,4.4948 15.71875,4.3125 l -2.9375,-3 C 12.596695,1.1176 12.330935,1.002 12.0625,1 z M 7,6 12,6 12,7 7,7 z"
       inkscape:connector-curvature="0"
       transform="translate(0,1034.3622)"
       id="path3815"
       style="font-size:medium;font-style:normal;font-variant:normal;font-weight:normal;font-stretch:normal;text-indent:0;text-align:start;text-decoration:none;line-height:normal;letter-spacing:normal;word-spacing:normal;text-transform:none;direction:ltr;block-progression:tb;writing-mode:lr-tb;text-anchor:start;baseline-shift:baseline;opacity:0.3;color:#000000;fill:#ffffff;fill-opacity:1;stroke:none;stroke-width:2;marker:none;visibility:visible;display:inline;overflow:visible;enable-background:accumulate;font-family:Sans;-inkscape-font-specification:Sans" />
    <path
       d="M 6.9375,2 4,5 4,10.25 4,11 c 0,0.554 0.446,1 1,1 l 9,0 c 0.554,0 1,-0.446 1,-1 L 15,10.25 15,5 12.0625,2 6.9375,2 z M 8,3 11,3 11,4 8,4 8,3 z M 6,5 13,5 13,8 6,8 6,5 z m 0,4 1.5,0 0,1.5 L 6,10.5 6,9 z m 5.5,0 1.5,0 0,1.5 -1.5,0 0,-1.5 z"
       inkscape:connector-curvature="0"
       transform="translate(0,1034.3622)"
       id="rect3226"
       style="fill:#444444;fill-opacity:1;stroke:none" />
    <path
       d="m 8,1047.3622 -3,0 0,1 -1,0 0,1 4,0 z"
       inkscape:connector-curvature="0"
       id="path3787-5"
       style="fill:#444444;fill-opacity:1;stroke:none" />
    <path
       d="m 11,1047.3622 3,0 0,1 1,0 0,1 -4,0 z"
       inkscape:connector-curvature="0"
       id="path3122"
       style="fill:#444444;fill-opacity:1;stroke:none" />
  </g>
  <rect
     width="18"
     height="18"
     x="0"
     y="0"
     id="canvas"
     style="fill:none;stroke:none;visibility:hidden" />
</svg>
