<?xml version="1.0" encoding="UTF-8" standalone="no"?>
<!-- Created with Inkscape (http://www.inkscape.org/) -->

<svg
   xmlns:dc="http://purl.org/dc/elements/1.1/"
   xmlns:cc="http://creativecommons.org/ns#"
   xmlns:rdf="http://www.w3.org/1999/02/22-rdf-syntax-ns#"
   xmlns:svg="http://www.w3.org/2000/svg"
   xmlns="http://www.w3.org/2000/svg"
   xmlns:sodipodi="http://sodipodi.sourceforge.net/DTD/sodipodi-0.dtd"
   xmlns:inkscape="http://www.inkscape.org/namespaces/inkscape"
   width="12"
   height="12"
   id="svg4764"
   version="1.1"
   inkscape:version="0.48.2 r9819"
   sodipodi:docname="rail-12.svg">
  <defs
     id="defs4766" />
  <sodipodi:namedview
     id="base"
     pagecolor="#ffffff"
     bordercolor="#666666"
     borderopacity="1.0"
     inkscape:pageopacity="0.0"
     inkscape:pageshadow="2"
     inkscape:zoom="16"
     inkscape:cx="16.599408"
     inkscape:cy="4.7323867"
     inkscape:document-units="px"
     inkscape:current-layer="layer1"
     showgrid="false"
     showguides="false"
     inkscape:guide-bbox="true"
     inkscape:window-width="1100"
     inkscape:window-height="788"
     inkscape:window-x="169"
     inkscape:window-y="75"
     inkscape:window-maximized="0">
    <inkscape:grid
       type="xygrid"
       id="grid4772"
       empspacing="2"
       visible="true"
       enabled="true"
       snapvisiblegridlinesonly="true"
       color="#ff00ff"
       opacity="0.1254902"
       empcolor="#ff00ff"
       empopacity="0.25098039" />
    <sodipodi:guide
       orientation="0,1"
       position="2,12"
       id="guide4789" />
    <sodipodi:guide
       orientation="1,0"
       position="12,10"
       id="guide4791" />
    <sodipodi:guide
       orientation="0,1"
       position="10,0"
       id="guide4793" />
    <sodipodi:guide
       orientation="1,0"
       position="0,9"
       id="guide4795" />
    <sodipodi:guide
       orientation="0,1"
       position="5,11"
       id="guide4797" />
    <sodipodi:guide
       orientation="1,0"
       position="11,7"
       id="guide4799" />
    <sodipodi:guide
       orientation="0,1"
       position="9,2"
       id="guide4801" />
    <sodipodi:guide
       orientation="1,0"
       position="2,5"
       id="guide4803" />
  </sodipodi:namedview>
  <metadata
     id="metadata4769">
    <rdf:RDF>
      <cc:Work
         rdf:about="">
        <dc:format>image/svg+xml</dc:format>
        <dc:type
           rdf:resource="http://purl.org/dc/dcmitype/StillImage" />
        <dc:title></dc:title>
      </cc:Work>
    </rdf:RDF>
  </metadata>
  <g
     inkscape:label="Layer 1"
     inkscape:groupmode="layer"
     id="layer1"
     transform="translate(0,-1040.3622)">
    <path
       style="fill:#444444;fill-opacity:1;stroke:none"
       d="m 3,1042.8622 1.741416,-1.5 c 1.0861947,0 2.1723894,0 3.258584,0 l 2,1.5 0,5.5 -7.0000001,0 z"
       id="path3212"
       inkscape:connector-curvature="0"
       sodipodi:nodetypes="ccccccc" />
    <rect
       style="fill:#ffffff;fill-opacity:1;stroke:none"
       id="rect3214"
       width="3"
       height="1"
       x="5"
       y="1042.3622" />
    <rect
       y="1044.3622"
       x="4"
       height="0.99997681"
       width="5"
       id="rect3216"
       style="fill:#ffffff;fill-opacity:1;stroke:none" />
    <path
       style="fill:#444444;fill-opacity:1;stroke:none"
       d="m 25,1042.3622 1,-1 3,0 1,1 0,5 -1,1 -3,0 -1,-1 z"
       id="path3924"
       inkscape:connector-curvature="0" />
    <path
       style="fill:#ffffff;fill-opacity:1;stroke:none"
       d="m 26,1043.3622 1,-1 1,0 1,1 0,1 -3,0 z"
       id="rect3780"
       inkscape:connector-curvature="0"
       sodipodi:nodetypes="ccccccc" />
    <path
       style="fill:#444444;fill-opacity:1;stroke:none"
       d="m 27,1048.8622 -2,0 -1,1.5 2,0 z"
       id="path3787"
       inkscape:connector-curvature="0"
       sodipodi:nodetypes="ccccc" />
    <path
       sodipodi:nodetypes="ccccc"
       inkscape:connector-curvature="0"
       id="path3789"
       d="m 28,1048.8622 2,0 1,1.5 -2,0 z"
       style="fill:#444444;fill-opacity:1;stroke:none" />
    <rect
       style="fill:#ffffff;stroke:none"
       id="rect3892"
       width="1"
       height="1"
       x="26"
       y="1046.3622" />
    <rect
       y="1046.3622"
       x="28"
       height="1"
       width="1"
       id="rect3894"
       style="fill:#ffffff;stroke:none" />
    <path
       sodipodi:nodetypes="ccccc"
       inkscape:connector-curvature="0"
       id="path3048"
       d="m 6,1048.8622 -2.0000001,0 -0.9999999,1.5 1.9999999,0 z"
       style="fill:#444444;fill-opacity:1;stroke:none" />
    <path
       style="fill:#444444;fill-opacity:1;stroke:none"
       d="m 7,1048.8622 2,0 1,1.5 -2,0 z"
       id="path3050"
       inkscape:connector-curvature="0"
       sodipodi:nodetypes="ccccc" />
    <rect
       y="1046.3622"
       x="4"
       height="1"
       width="1"
       id="rect3052"
       style="fill:#ffffff;stroke:none" />
    <rect
       style="fill:#ffffff;stroke:none"
       id="rect3054"
       width="1"
       height="1"
       x="8.0216694"
       y="1046.3622" />
    <path
       sodipodi:nodetypes="ccccccc"
       inkscape:connector-curvature="0"
       id="path3058"
       d="m 3,1042.8622 1.741416,-1.5 c 1.0861947,0 2.1723894,0 3.258584,0 l 2,1.5 0,5.5 -7.0000001,0 z"
       style="fill:#444444;fill-opacity:1;stroke:none" />
    <rect
       y="1042.3622"
       x="5"
       height="1"
       width="3"
       id="rect3060"
       style="fill:#ffffff;fill-opacity:1;stroke:none" />
    <rect
       style="fill:#ffffff;fill-opacity:1;stroke:none"
       id="rect3062"
       width="5"
       height="0.99997681"
       x="4"
       y="1044.3622" />
    <path
       style="fill:#444444;fill-opacity:1;stroke:none"
       d="m 6,1048.8622 -2.0000001,0 -0.9999999,1.5 1.9999999,0 z"
       id="path3064"
       inkscape:connector-curvature="0"
       sodipodi:nodetypes="ccccc" />
    <path
       sodipodi:nodetypes="ccccc"
       inkscape:connector-curvature="0"
       id="path3066"
       d="m 7,1048.8622 2,0 1,1.5 -2,0 z"
       style="fill:#444444;fill-opacity:1;stroke:none" />
    <rect
       style="fill:#ffffff;stroke:none"
       id="rect3068"
       width="1"
       height="1"
       x="4"
       y="1046.3622" />
    <rect
       y="1046.3622"
       x="8.0216694"
       height="1"
       width="1"
       id="rect3070"
       style="fill:#ffffff;stroke:none" />
    <path
       style="fill:#444444;fill-opacity:1;stroke:none"
       d="m 38,1042.8622 1.741416,-1.5 c 1.086195,0 2.172389,0 3.258584,0 l 2,1.5 0,5.5 -7,0 z"
       id="path3072"
       inkscape:connector-curvature="0"
       sodipodi:nodetypes="ccccccc" />
    <rect
       style="fill:#ffffff;fill-opacity:1;stroke:none"
       id="rect3074"
       width="3"
       height="1"
       x="40"
       y="1042.3622" />
    <rect
       y="1044.3622"
       x="39"
       height="0.99997681"
       width="5"
       id="rect3076"
       style="fill:#ffffff;fill-opacity:1;stroke:none" />
    <path
       sodipodi:nodetypes="ccccc"
       inkscape:connector-curvature="0"
       id="path3078"
       d="m 41,1048.8622 -2,0 -1,1.5 2,0 z"
       style="fill:#444444;fill-opacity:1;stroke:none" />
    <path
       style="fill:#444444;fill-opacity:1;stroke:none"
       d="m 42,1048.8622 2,0 1,1.5 -2,0 z"
       id="path3080"
       inkscape:connector-curvature="0"
       sodipodi:nodetypes="ccccc" />
    <rect
       y="1046.3622"
       x="39"
       height="1"
       width="1"
       id="rect3082"
       style="fill:#ffffff;stroke:none" />
    <rect
       style="fill:#ffffff;stroke:none"
       id="rect3084"
       width="1"
       height="1"
       x="43.021667"
       y="1046.3622" />
  </g>
</svg>
