<?xml version="1.0" encoding="UTF-8" standalone="no"?>
<!-- Created with Inkscape (http://www.inkscape.org/) -->

<svg
   xmlns:dc="http://purl.org/dc/elements/1.1/"
   xmlns:cc="http://creativecommons.org/ns#"
   xmlns:rdf="http://www.w3.org/1999/02/22-rdf-syntax-ns#"
   xmlns:svg="http://www.w3.org/2000/svg"
   xmlns="http://www.w3.org/2000/svg"
   xmlns:xlink="http://www.w3.org/1999/xlink"
   xmlns:sodipodi="http://sodipodi.sourceforge.net/DTD/sodipodi-0.dtd"
   xmlns:inkscape="http://www.inkscape.org/namespaces/inkscape"
   width="12"
   height="12"
   id="svg4764"
   version="1.1"
   inkscape:version="0.48.2 r9819"
   sodipodi:docname="rail-light-12.svg">
  <defs
     id="defs4766" />
  <sodipodi:namedview
     id="base"
     pagecolor="#ffffff"
     bordercolor="#666666"
     borderopacity="1.0"
     inkscape:pageopacity="0.0"
     inkscape:pageshadow="2"
     inkscape:zoom="45.254834"
     inkscape:cx="6.7809897"
     inkscape:cy="4.8948304"
     inkscape:document-units="px"
     inkscape:current-layer="layer1"
     showgrid="false"
     showguides="false"
     inkscape:guide-bbox="true"
     inkscape:window-width="1409"
     inkscape:window-height="958"
     inkscape:window-x="239"
     inkscape:window-y="78"
     inkscape:window-maximized="0">
    <inkscape:grid
       type="xygrid"
       id="grid4772"
       empspacing="2"
       visible="true"
       enabled="true"
       snapvisiblegridlinesonly="true"
       color="#ff00ff"
       opacity="0.1254902"
       empcolor="#ff00ff"
       empopacity="0.25098039" />
    <sodipodi:guide
       orientation="0,1"
       position="2,12"
       id="guide4789" />
    <sodipodi:guide
       orientation="1,0"
       position="12,10"
       id="guide4791" />
    <sodipodi:guide
       orientation="0,1"
       position="10,0"
       id="guide4793" />
    <sodipodi:guide
       orientation="1,0"
       position="0,9"
       id="guide4795" />
    <sodipodi:guide
       orientation="0,1"
       position="5,11"
       id="guide4797" />
    <sodipodi:guide
       orientation="1,0"
       position="11,7"
       id="guide4799" />
    <sodipodi:guide
       orientation="0,1"
       position="9,2"
       id="guide4801" />
    <sodipodi:guide
       orientation="1,0"
       position="2,5"
       id="guide4803" />
  </sodipodi:namedview>
  <metadata
     id="metadata4769">
    <rdf:RDF>
      <cc:Work
         rdf:about="">
        <dc:format>image/svg+xml</dc:format>
        <dc:type
           rdf:resource="http://purl.org/dc/dcmitype/StillImage" />
        <dc:title />
      </cc:Work>
    </rdf:RDF>
  </metadata>
  <g
     inkscape:label="Layer 1"
     inkscape:groupmode="layer"
     id="layer1"
     transform="translate(0,-1040.3622)">
    <path
       style="fill:#444444;fill-opacity:1;stroke:none"
       d="m 16,1066.8622 1.741416,-1.5 c 1.086195,0 2.172389,0 3.258584,0 l 2,1.5 0,5.5 -7,0 z"
       id="path3212"
       inkscape:connector-curvature="0"
       sodipodi:nodetypes="ccccccc" />
    <rect
       style="fill:#ffffff;fill-opacity:1;stroke:none"
       id="rect3214"
       width="3"
       height="1"
       x="18"
       y="1066.3622" />
    <rect
       y="1068.3622"
       x="17"
       height="0.99997681"
       width="5"
       id="rect3216"
       style="fill:#ffffff;fill-opacity:1;stroke:none" />
    <path
       style="fill:#444444;fill-opacity:1;stroke:none"
       d="m 30,1066.3622 1,-1 3,0 1,1 0,5 -1,1 -3,0 -1,-1 z"
       id="path3924"
       inkscape:connector-curvature="0" />
    <path
       style="fill:#ffffff;fill-opacity:1;stroke:none"
       d="m 31,1067.3622 1,-1 1,0 1,1 0,1 -3,0 z"
       id="rect3780"
       inkscape:connector-curvature="0"
       sodipodi:nodetypes="ccccccc" />
    <path
       style="fill:#444444;fill-opacity:1;stroke:none"
       d="m 32,1072.8622 -2,0 -1,1.5 2,0 z"
       id="path3787"
       inkscape:connector-curvature="0"
       sodipodi:nodetypes="ccccc" />
    <path
       sodipodi:nodetypes="ccccc"
       inkscape:connector-curvature="0"
       id="path3789"
       d="m 33,1072.8622 2,0 1,1.5 -2,0 z"
       style="fill:#444444;fill-opacity:1;stroke:none" />
    <rect
       style="fill:#ffffff;stroke:none"
       id="rect3892"
       width="1"
       height="1"
       x="31"
       y="1070.3622" />
    <rect
       y="1070.3622"
       x="33"
       height="1"
       width="1"
       id="rect3894"
       style="fill:#ffffff;stroke:none" />
    <path
       sodipodi:nodetypes="ccccc"
       inkscape:connector-curvature="0"
       id="path3048"
       d="m 19,1072.8622 -2,0 -1,1.5 2,0 z"
       style="fill:#444444;fill-opacity:1;stroke:none" />
    <path
       style="fill:#444444;fill-opacity:1;stroke:none"
       d="m 20,1072.8622 2,0 1,1.5 -2,0 z"
       id="path3050"
       inkscape:connector-curvature="0"
       sodipodi:nodetypes="ccccc" />
    <rect
       y="1070.3622"
       x="17"
       height="1"
       width="1"
       id="rect3052"
       style="fill:#ffffff;stroke:none" />
    <rect
       style="fill:#ffffff;stroke:none"
       id="rect3054"
       width="1"
       height="1"
       x="21.021669"
       y="1070.3622" />
    <path
       sodipodi:nodetypes="ccccccc"
       inkscape:connector-curvature="0"
       id="path3058"
       d="m 16,1066.8622 1.741416,-1.5 c 1.086195,0 2.172389,0 3.258584,0 l 2,1.5 0,5.5 -7,0 z"
       style="fill:#444444;fill-opacity:1;stroke:none" />
    <rect
       y="1066.3622"
       x="18"
       height="1"
       width="3"
       id="rect3060"
       style="fill:#ffffff;fill-opacity:1;stroke:none" />
    <rect
       style="fill:#ffffff;fill-opacity:1;stroke:none"
       id="rect3062"
       width="5"
       height="0.99997681"
       x="17"
       y="1068.3622" />
    <path
       style="fill:#444444;fill-opacity:1;stroke:none"
       d="m 19,1072.8622 -2,0 -1,1.5 2,0 z"
       id="path3064"
       inkscape:connector-curvature="0"
       sodipodi:nodetypes="ccccc" />
    <path
       sodipodi:nodetypes="ccccc"
       inkscape:connector-curvature="0"
       id="path3066"
       d="m 20,1072.8622 2,0 1,1.5 -2,0 z"
       style="fill:#444444;fill-opacity:1;stroke:none" />
    <rect
       style="fill:#ffffff;stroke:none"
       id="rect3068"
       width="1"
       height="1"
       x="17"
       y="1070.3622" />
    <rect
       y="1070.3622"
       x="21.021669"
       height="1"
       width="1"
       id="rect3070"
       style="fill:#ffffff;stroke:none" />
    <path
       sodipodi:nodetypes="ccccccc"
       inkscape:connector-curvature="0"
       id="path3171"
       d="m 187.75,1044.3622 1.74833,-3 c 1.08619,0 2.17239,0 3.25858,0 l 1.99309,3 0.007,4 -7,0 z"
       style="fill:#444444;fill-opacity:1;stroke:none" />
    <path
       sodipodi:nodetypes="ccccccc"
       inkscape:connector-curvature="0"
       id="path3173"
       d="m 188.75,1045.3622 5,0 0,-1 -2,-2 -1,0 -2,2 z"
       style="fill:#ffffff;fill-opacity:1;stroke:none" />
    <rect
       y="1041.3622"
       x="190.75"
       height="4"
       width="1"
       id="rect3175"
       style="fill:#444444;fill-opacity:1;stroke:none" />
    <rect
       style="fill:#ffffff;stroke:none"
       id="rect3177"
       width="1"
       height="1"
       x="188.75"
       y="1046.3622" />
    <rect
       y="1046.3622"
       x="192.77167"
       height="1"
       width="1"
       id="rect3179"
       style="fill:#ffffff;stroke:none" />
    <path
       style="fill:#444444;fill-opacity:1;stroke:none"
       d="m 190.78125,1048.8622 -2,0 -1,1.5 2,0 z"
       id="path3181"
       inkscape:connector-curvature="0"
       sodipodi:nodetypes="ccccc" />
    <path
       sodipodi:nodetypes="ccccc"
       inkscape:connector-curvature="0"
       id="path3183"
       d="m 191.78125,1048.8622 2,0 1,1.5 -2,0 z"
       style="fill:#444444;fill-opacity:1;stroke:none" />
    <path
       sodipodi:nodetypes="ccccccc"
       inkscape:connector-curvature="0"
       id="path3185"
       d="m 167.875,1044.3622 1.24881,-3 c 0.77585,0 1.5517,0 2.32756,0 l 1.42363,3 0.005,4 -5,0 z"
       style="fill:#444444;fill-opacity:1;stroke:none" />
    <path
       sodipodi:nodetypes="ccccccc"
       inkscape:connector-curvature="0"
       id="path3187"
       d="m 168.875,1044.3622 3,0 0,-0.5 -0.5,-1.5 -2,0 -0.5,1.5 z"
       style="fill:#ffffff;fill-opacity:1;stroke:none" />
    <rect
       y="1041.3622"
       x="169.875"
       height="4"
       width="1"
       id="rect3189"
       style="fill:#444444;fill-opacity:1;stroke:none" />
    <rect
       style="fill:#ffffff;stroke:none"
       id="rect3191"
       width="1"
       height="1"
       x="168.875"
       y="1046.3622" />
    <rect
       y="1046.3622"
       x="170.875"
       height="1"
       width="1"
       id="rect3193"
       style="fill:#ffffff;stroke:none" />
    <path
       style="fill:#444444;fill-opacity:1;stroke:none"
       d="m 169.90625,1048.8622 -2,0 -1,1.5 2,0 z"
       id="path3195"
       inkscape:connector-curvature="0"
       sodipodi:nodetypes="ccccc" />
    <path
       sodipodi:nodetypes="ccccc"
       inkscape:connector-curvature="0"
       id="path3197"
       d="m 170.90625,1048.8622 2,0 1,1.5 -2,0 z"
       style="fill:#444444;fill-opacity:1;stroke:none" />
    <path
       sodipodi:nodetypes="ccccccccc"
       inkscape:connector-curvature="0"
       id="path3199"
       d="m 154.84375,1044.3622 0.5,-2 0.74881,-1 c 0.77585,0 1.5517,0 2.32756,0 l 0.92363,1 0.5,2 0.005,4 -5,0 z"
       style="fill:#444444;fill-opacity:1;stroke:none" />
    <path
       sodipodi:nodetypes="ccccccc"
       inkscape:connector-curvature="0"
       id="path3201"
       d="m 155.84375,1045.3622 3,0 0,-0.75 -0.5,-2.25 -2,0 -0.5,2.25 z"
       style="fill:#ffffff;fill-opacity:1;stroke:none" />
    <rect
       y="1041.3622"
       x="156.84375"
       height="4"
       width="1"
       id="rect3203"
       style="fill:#444444;fill-opacity:1;stroke:none" />
    <rect
       style="fill:#ffffff;stroke:none"
       id="rect3205"
       width="1"
       height="1"
       x="155.84375"
       y="1046.3622" />
    <rect
       y="1046.3622"
       x="157.84375"
       height="1"
       width="1"
       id="rect3207"
       style="fill:#ffffff;stroke:none" />
    <path
       style="fill:#444444;fill-opacity:1;stroke:none"
       d="m 156.875,1048.8622 -2,0 -1,1.5 2,0 z"
       id="path3209"
       inkscape:connector-curvature="0"
       sodipodi:nodetypes="ccccc" />
    <path
       sodipodi:nodetypes="ccccc"
       inkscape:connector-curvature="0"
       id="path3211"
       d="m 157.875,1048.8622 2,0 1,1.5 -2,0 z"
       style="fill:#444444;fill-opacity:1;stroke:none" />
    <path
       sodipodi:nodetypes="ccccccccc"
       inkscape:connector-curvature="0"
       id="path3213"
       d="m 139.875,1044.3622 0.5,-2 0.74881,-1 c 0.77585,0 1.5517,0 2.32756,0 l 0.92363,1 0.5,2 0.005,4 -5,0 z"
       style="fill:#444444;fill-opacity:1;stroke:none" />
    <path
       sodipodi:nodetypes="ccccc"
       inkscape:connector-curvature="0"
       id="path3215"
       d="m 140.875,1044.3622 3,0 -0.5,-2 -2,0 z"
       style="fill:#ffffff;fill-opacity:1;stroke:none" />
    <rect
       style="fill:#ffffff;stroke:none"
       id="rect3217"
       width="1"
       height="1"
       x="140.875"
       y="1046.3622" />
    <rect
       y="1046.3622"
       x="142.875"
       height="1"
       width="1"
       id="rect3219"
       style="fill:#ffffff;stroke:none" />
    <path
       style="fill:#444444;fill-opacity:1;stroke:none"
       d="m 141.90625,1048.8622 -2,0 -1,1.5 2,0 z"
       id="path3221"
       inkscape:connector-curvature="0"
       sodipodi:nodetypes="ccccc" />
    <path
       sodipodi:nodetypes="ccccc"
       inkscape:connector-curvature="0"
       id="path3223"
       d="m 142.90625,1048.8622 2,0 1,1.5 -2,0 z"
       style="fill:#444444;fill-opacity:1;stroke:none" />
    <path
       sodipodi:nodetypes="ccccccccc"
       inkscape:connector-curvature="0"
       id="path3235"
       d="m 127,1044.3622 0.7,-2 1.04833,-1 c 1.08619,0 2.17239,0 3.25858,0 l 1.29309,1 0.7,2 0.007,4 -7,0 z"
       style="fill:#444444;fill-opacity:1;stroke:none" />
    <path
       sodipodi:nodetypes="ccccc"
       inkscape:connector-curvature="0"
       id="path3237"
       d="m 128,1044.3622 5,0 -0.83333,-2 -3.33334,0 z"
       style="fill:#ffffff;fill-opacity:1;stroke:none" />
    <rect
       style="fill:#ffffff;stroke:none"
       id="rect3239"
       width="1"
       height="1"
       x="128"
       y="1046.3622" />
    <rect
       y="1046.3622"
       x="132"
       height="1"
       width="1"
       id="rect3241"
       style="fill:#ffffff;stroke:none" />
    <path
       style="fill:#444444;fill-opacity:1;stroke:none"
       d="m 130.03125,1048.8622 -2,0 -1,1.5 2,0 z"
       id="path3243"
       inkscape:connector-curvature="0"
       sodipodi:nodetypes="ccccc" />
    <path
       sodipodi:nodetypes="ccccc"
       inkscape:connector-curvature="0"
       id="path3245"
       d="m 131.03125,1048.8622 2,0 1,1.5 -2,0 z"
       style="fill:#444444;fill-opacity:1;stroke:none" />
    <path
       style="fill:#ffffff;fill-opacity:1;stroke:none"
       d="m 128,1044.3622 5,0 -0.83333,-2 -3.33334,0 z"
       id="path3247"
       inkscape:connector-curvature="0"
       sodipodi:nodetypes="ccccc" />
    <rect
       y="1046.3622"
       x="128"
       height="1"
       width="1"
       id="rect3249"
       style="fill:#ffffff;stroke:none" />
    <rect
       style="fill:#ffffff;stroke:none"
       id="rect3251"
       width="1"
       height="1"
       x="132"
       y="1046.3622" />
    <path
       sodipodi:nodetypes="ccccc"
       inkscape:connector-curvature="0"
       id="path3253"
       d="m 130.03125,1048.8622 -2,0 -1,1.5 2,0 z"
       style="fill:#444444;fill-opacity:1;stroke:none" />
    <path
       style="fill:#444444;fill-opacity:1;stroke:none"
       d="m 131.03125,1048.8622 2,0 1,1.5 -2,0 z"
       id="path3255"
       inkscape:connector-curvature="0"
       sodipodi:nodetypes="ccccc" />
    <path
       sodipodi:type="inkscape:offset"
       inkscape:radius="-2.0291271"
       inkscape:original="M 6.5 1036.375 C 1.65838 1036.375 -3 1040.675 -3 1045.875 C -3 1048.6397 -1.21842 1051.5244 0.6875 1054.4375 C 2.38374 1057.0301 6.5 1061.375 6.5 1061.375 C 6.5 1061.375 10.89328 1056.5728 12.3125 1054.4375 C 14.23949 1051.5383 16 1048.6397 16 1045.875 C 16 1040.675 11.34162 1036.375 6.5 1036.375 z "
       xlink:href="#path59422"
       style="font-size:medium;font-style:normal;font-variant:normal;font-weight:normal;font-stretch:normal;text-indent:0;text-align:start;text-decoration:none;line-height:normal;letter-spacing:normal;word-spacing:normal;text-transform:none;direction:ltr;block-progression:tb;writing-mode:lr-tb;text-anchor:start;baseline-shift:baseline;color:#000000;fill:none;stroke:#ff0000;stroke-width:0.1;stroke-miterlimit:4;stroke-opacity:1;stroke-dasharray:none;marker:none;visibility:visible;display:inline;overflow:visible;enable-background:accumulate;font-family:Sans;-inkscape-font-specification:Sans"
       id="path2998"
       inkscape:href="#path59422"
       d="m 6.5,1038.4062 c -3.6401975,0 -7.46875,3.4807 -7.46875,7.4688 0,1.893 1.45665836,4.5532 3.34375,7.4375 1.0627019,1.6243 2.8673592,3.5231 4.125,4.9063 1.3470497,-1.5209 3.2983433,-3.6625 4.125,-4.9063 1.897238,-2.8544 3.34375,-5.5342 3.34375,-7.4375 0,-3.9881 -3.828552,-7.4688 -7.46875,-7.4688 z" />
    <path
       sodipodi:type="inkscape:offset"
       inkscape:radius="-1.0165687"
       inkscape:original="M 6.5 1038.4062 C 2.8598025 1038.4062 -0.96875 1041.8869 -0.96875 1045.875 C -0.96875 1047.768 0.48790836 1050.4282 2.375 1053.3125 C 3.4377019 1054.9368 5.2423592 1056.8356 6.5 1058.2188 C 7.8470497 1056.6978 9.7983433 1054.5563 10.625 1053.3125 C 12.522238 1050.4581 13.96875 1047.7783 13.96875 1045.875 C 13.96875 1041.8869 10.140198 1038.4062 6.5 1038.4062 z "
       xlink:href="#path2998"
       style="font-size:medium;font-style:normal;font-variant:normal;font-weight:normal;font-stretch:normal;text-indent:0;text-align:start;text-decoration:none;line-height:normal;letter-spacing:normal;word-spacing:normal;text-transform:none;direction:ltr;block-progression:tb;writing-mode:lr-tb;text-anchor:start;baseline-shift:baseline;color:#000000;fill:none;stroke:#ff0000;stroke-width:0.05;stroke-miterlimit:4;stroke-opacity:1;stroke-dasharray:none;marker:none;visibility:visible;display:inline;overflow:visible;enable-background:accumulate;font-family:Sans;-inkscape-font-specification:Sans"
       id="path3881"
       inkscape:href="#path2998"
       d="m 6.5,1039.4375 c -2.9921794,0 -6.4375,3.1 -6.4375,6.4375 0,1.3715 1.2947248,4.0298 3.15625,6.875 0.7934987,1.2128 2.1270021,2.6415 3.28125,3.9062 1.238323,-1.3971 2.6970226,-3.0272 3.28125,-3.9062 1.86673,-2.8085 3.15625,-5.4868 3.15625,-6.875 0,-3.3375 -3.44532,-6.4375 -6.4375,-6.4375 z" />
    <path
       sodipodi:nodetypes="ccccccccc"
       inkscape:connector-curvature="0"
       id="path3097"
       d="m 111,1044.3622 1,-2 1.5,-1 c 1.0862,0 0.9138,0 2,0 l 1.5,1 1,2 0.007,4 -7,0 z"
       style="fill:#444444;fill-opacity:1;stroke:none" />
    <path
       sodipodi:nodetypes="ccccc"
       inkscape:connector-curvature="0"
       id="path3099"
       d="m 112.5,1044.3622 4,0 -1,-2 c -3.18836,0 -0.94444,0 -2,0 z"
       style="fill:#ffffff;fill-opacity:1;stroke:none" />
    <rect
       style="fill:#ffffff;stroke:none"
       id="rect3101"
       width="1"
       height="1"
       x="112"
       y="1046.3622" />
    <rect
       y="1046.3622"
       x="116"
       height="1"
       width="1"
       id="rect3103"
       style="fill:#ffffff;stroke:none" />
    <path
       style="fill:#444444;fill-opacity:1;stroke:none"
       d="m 114.03125,1048.8622 -2,0 -1,1.5 2.96875,0 z"
       id="path3105"
       inkscape:connector-curvature="0"
       sodipodi:nodetypes="ccccc" />
    <path
       sodipodi:nodetypes="ccccc"
       inkscape:connector-curvature="0"
       id="path3107"
       d="m 115.03125,1048.8622 2,0 1,1.5 -3.03125,0 z"
       style="fill:#444444;fill-opacity:1;stroke:none" />
    <path
       sodipodi:nodetypes="ccccccccc"
       inkscape:connector-curvature="0"
       id="path3117"
       d="m 100,1044.3622 1,-2 1.5,-1 c 1.0862,0 0.9138,0 2,0 l 1.5,1 1,2 0.007,4 -7,0 z"
       style="fill:#444444;fill-opacity:1;stroke:none" />
    <path
       sodipodi:nodetypes="ccccccc"
       inkscape:connector-curvature="0"
       id="path3119"
       d="m 102,1044.3622 3,0 -0.002,-1.004 -0.498,-0.996 c -3.18836,0 -0.94445,0 -2,0 l -0.51264,1.0253 z"
       style="fill:#ffffff;fill-opacity:1;stroke:none" />
    <rect
       style="fill:#ffffff;stroke:none"
       id="rect3121"
       width="1"
       height="1"
       x="101"
       y="1046.3622" />
    <rect
       y="1046.3622"
       x="105"
       height="1"
       width="1"
       id="rect3123"
       style="fill:#ffffff;stroke:none" />
    <path
       style="fill:#444444;fill-opacity:1;stroke:none"
       d="m 103,1048.8622 -2,0 -0.96875,1.5 2.96875,0 z"
       id="path3125"
       inkscape:connector-curvature="0"
       sodipodi:nodetypes="ccccc" />
    <path
       sodipodi:nodetypes="ccccc"
       inkscape:connector-curvature="0"
       id="path3127"
       d="m 104.03125,1048.8622 2,0 1,1.5 -3.03125,0 z"
       style="fill:#444444;fill-opacity:1;stroke:none" />
    <path
       sodipodi:nodetypes="ccccccccc"
       inkscape:connector-curvature="0"
       id="path3129"
       d="m 44,1068.3622 1,-2 1.5,-1 c 1.086195,0 0.913805,0 2,0 l 1.5,1 1,2 0.0069,4 -6.999999,0 z"
       style="fill:#444444;fill-opacity:1;stroke:none" />
    <path
       sodipodi:nodetypes="ccccccc"
       inkscape:connector-curvature="0"
       id="path3131"
       d="m 45,1069.2882 5,0 -0.5,-1.926 -1,-1 c -3.188363,0 -0.944444,0 -2,0 l -1,1 z"
       style="fill:#ffffff;fill-opacity:1;stroke:none" />
    <rect
       style="fill:#ffffff;stroke:none"
       id="rect3133"
       width="1"
       height="1"
       x="45"
       y="1070.3622" />
    <rect
       y="1070.3622"
       x="49"
       height="1"
       width="1"
       id="rect3135"
       style="fill:#ffffff;stroke:none" />
    <path
       style="fill:#444444;fill-opacity:1;stroke:none"
       d="m 47,1072.8622 -2,0 -0.96875,1.5 2.96875,0 z"
       id="path3137"
       inkscape:connector-curvature="0"
       sodipodi:nodetypes="ccccc" />
    <path
       sodipodi:nodetypes="ccccc"
       inkscape:connector-curvature="0"
       id="path3139"
       d="m 48.03125,1072.8622 2,0 1,1.5 -3.03125,0 z"
       style="fill:#444444;fill-opacity:1;stroke:none" />
    <rect
       y="1065.3622"
       x="47"
       height="4.0000172"
       width="1"
       id="rect3143"
       style="fill:#444444;fill-opacity:1;stroke:none" />
    <path
       sodipodi:nodetypes="ccccccc"
       inkscape:connector-curvature="0"
       id="path3075"
       d="m 70,1042.8622 1.741416,-1.5 c 1.086195,0 2.172389,0 3.258584,0 l 2,1.5 0,5.5 -7,0 z"
       style="fill:#444444;fill-opacity:1;stroke:none" />
    <rect
       y="1042.3622"
       x="72"
       height="1"
       width="3"
       id="rect3077"
       style="fill:#ffffff;fill-opacity:1;stroke:none" />
    <rect
       style="fill:#ffffff;fill-opacity:1;stroke:none"
       id="rect3079"
       width="5"
       height="0.99997681"
       x="71"
       y="1044.3622" />
    <rect
       style="fill:#ffffff;stroke:none"
       id="rect3081"
       width="1"
       height="1"
       x="71"
       y="1046.3622" />
    <rect
       y="1046.3622"
       x="75.021667"
       height="1"
       width="1"
       id="rect3083"
       style="fill:#ffffff;stroke:none" />
    <path
       style="fill:#444444;fill-opacity:1;stroke:none"
       d="m 72,1048.3622 -1,0 0,1 -1,0 0,1 3,0 0,-3 -1,0 z"
       id="path3085"
       inkscape:connector-curvature="0"
       sodipodi:nodetypes="ccccccccc" />
    <path
       sodipodi:nodetypes="ccccccccc"
       inkscape:connector-curvature="0"
       id="path3087"
       d="m 75,1048.3622 1,0 0,1 1,0 0,1 -3,0 0,-3 1,0 z"
       style="fill:#444444;fill-opacity:1;stroke:none" />
    <path
       sodipodi:nodetypes="ccccccccc"
       inkscape:connector-curvature="0"
       id="path3120"
       d="m 59,1042.3622 0,-1 5,0 0,1 0,5 -1,1 -3,0 -1,-1 z"
       style="fill:#444444;fill-opacity:1;stroke:none" />
    <path
       sodipodi:nodetypes="ccccccc"
       inkscape:connector-curvature="0"
       id="path3122"
       d="m 60,1043.3622 1,-1 1,0 1,1 0,1 -3,0 z"
       style="fill:#ffffff;fill-opacity:1;stroke:none" />
    <path
       sodipodi:nodetypes="ccccccccc"
       inkscape:connector-curvature="0"
       id="path3124"
       d="m 60,1048.3622 -1,0 0,1 -1,0 0,1 3,0 0,-1 0,-1 z"
       style="fill:#444444;fill-opacity:1;stroke:none" />
    <rect
       y="1046.3622"
       x="60"
       height="1"
       width="1"
       id="rect3126"
       style="fill:#ffffff;stroke:none" />
    <rect
       style="fill:#ffffff;stroke:none"
       id="rect3128"
       width="1"
       height="1"
       x="62"
       y="1046.3622" />
    <path
       style="fill:#444444;fill-opacity:1;stroke:none"
       d="m 64.02167,1048.3622 -1,0 -1.02167,0 0.02167,1 0,1 3,0 0,-1 -1,0 z"
       id="path3130"
       inkscape:connector-curvature="0"
       sodipodi:nodetypes="ccccccccc" />
    <path
       sodipodi:nodetypes="ccccccccc"
       inkscape:connector-curvature="0"
       id="path3112"
       d="m 82.012193,1044.3622 1,-2 1.5,-1 c 1.086195,0 0.913805,0 2,0 l 1.5,1 1,2 0.0069,4 -6.999999,0 z"
       style="fill:#444444;fill-opacity:1;stroke:none" />
    <path
       sodipodi:nodetypes="ccccccc"
       inkscape:connector-curvature="0"
       id="path3114"
       d="m 83.012193,1045.3622 5,0 -0.5,-1.5 -1,-1.5 c -3.188362,0 -0.944444,0 -2,0 l -1,1.5 z"
       style="fill:#ffffff;fill-opacity:1;stroke:none" />
    <rect
       style="fill:#ffffff;stroke:none"
       id="rect3116"
       width="1"
       height="1"
       x="83.012192"
       y="1046.3622" />
    <rect
       y="1046.3622"
       x="87.012192"
       height="1"
       width="1"
       id="rect3118"
       style="fill:#ffffff;stroke:none" />
    <rect
       y="1041.8622"
       x="85.012192"
       height="3.5"
       width="1"
       id="rect3120"
       style="fill:#444444;fill-opacity:1;stroke:none" />
    <path
       sodipodi:nodetypes="ccccccccc"
       inkscape:connector-curvature="0"
       id="path3123"
       d="m 84.012193,1048.3622 -1,0 0,1 -1,0 0,1 3,0 0,-1 0,-1 z"
       style="fill:#444444;fill-opacity:1;stroke:none" />
    <path
       style="fill:#444444;fill-opacity:1;stroke:none"
       d="m 88.012193,1048.3622 -1,0 -1.02167,0 0.02167,1 0,1 3,0 0,-1 -1,0 z"
       id="path3126"
       inkscape:connector-curvature="0"
       sodipodi:nodetypes="ccccccccc" />
    <path
       sodipodi:nodetypes="ccccccccc"
       inkscape:connector-curvature="0"
       id="path3148"
       d="m 3,1101.3622 1,-2 1.5,-1 c 1.086195,0 0.9138051,0 2,0 l 1.5,1 1,2 0.0069,4 -6.9999993,0 z"
       style="fill:#444444;fill-opacity:1;stroke:none" />
    <path
       sodipodi:nodetypes="ccccccc"
       inkscape:connector-curvature="0"
       id="path3150"
       d="m 4,1102.3622 5,0 -0.5,-1.5 -1,-1.5 c -3.1883628,0 -0.9444445,0 -2,0 l -1,1.5 z"
       style="fill:#ffffff;fill-opacity:1;stroke:none" />
    <rect
       style="fill:#ffffff;stroke:none"
       id="rect3152"
       width="1"
       height="1"
       x="4"
       y="1103.3622" />
    <rect
       y="1103.3622"
       x="8"
       height="1"
       width="1"
       id="rect3154"
       style="fill:#ffffff;stroke:none" />
    <rect
       y="1098.8622"
       x="6"
       height="3.5"
       width="1"
       id="rect3161"
       style="fill:#444444;fill-opacity:1;stroke:none" />
    <path
       style="fill:#444444;fill-opacity:1;stroke:none"
       d="m 6,1105.8622 -1,0 0,-0.5 -0.5,0 0,0.5 -0.5,0 0,0.5 -1,0 0,1 3,0 0,-1 1,0 0,-0.5 z"
       id="path3163"
       inkscape:connector-curvature="0"
       sodipodi:nodetypes="cccccccccccccc" />
    <path
       sodipodi:nodetypes="ccccccccccccc"
       inkscape:connector-curvature="0"
       id="path3165"
       d="m 7,1105.8622 1,0 0,-0.5 0.5,0 0,0.5 0.5,0 0,0.5 1,0 0,1 -3,0 0,-1 0,0 z"
       style="fill:#444444;fill-opacity:1;stroke:none" />
    <path
       style="fill:#444444;fill-opacity:1;stroke:none"
       d="m 3,1124.3622 1,-2 1.5,-1 c 1.086195,0 0.9138051,0 2,0 l 1.5,1 1,2 0.0069,4 -6.9999993,0 z"
       id="path3167"
       inkscape:connector-curvature="0"
       sodipodi:nodetypes="ccccccccc" />
    <path
       style="fill:#ffffff;fill-opacity:1;stroke:none"
       d="m 4,1125.3622 5,0 -0.5,-1.5 -1,-1.5 c -3.1883628,0 -0.9444445,0 -2,0 l -1,1.5 z"
       id="path3170"
       inkscape:connector-curvature="0"
       sodipodi:nodetypes="ccccccc" />
    <rect
       y="1126.3622"
       x="4"
       height="1"
       width="1"
       id="rect3172"
       style="fill:#ffffff;stroke:none" />
    <rect
       style="fill:#ffffff;stroke:none"
       id="rect3174"
       width="1"
       height="1"
       x="8"
       y="1126.3622" />
    <rect
       style="fill:#444444;fill-opacity:1;stroke:none"
       id="rect3176"
       width="1"
       height="3.5"
       x="6"
       y="1121.8622" />
    <path
       sodipodi:nodetypes="cccccccccccc"
       inkscape:connector-curvature="0"
       id="path3178"
       d="m 6,1128.8622 -1,0 -0.5,0 -0.5,0 0,0.5 -1,0 0,1 2,0 1,-1 1,0 0,-0.5 z"
       style="fill:#444444;fill-opacity:1;stroke:none" />
    <path
       style="fill:#444444;fill-opacity:1;stroke:none"
       d="m 7,1128.8622 1,0 c 0,0 0.3333333,0 0.5,0 l 0.5,0 0,0.5 1,0 0,1 -2,0 -1,-1 0,0 z"
       id="path3180"
       inkscape:connector-curvature="0"
       sodipodi:nodetypes="ccccccccccc" />
    <path
       sodipodi:nodetypes="ccccccccc"
       inkscape:connector-curvature="0"
       id="path3182"
       d="m 3,1140.3622 1,-2 1.5,-1 c 1.086195,0 0.9138051,0 2,0 l 1.5,1 1,2 0.0069,4 -6.9999993,0 z"
       style="fill:#444444;fill-opacity:1;stroke:none" />
    <path
       sodipodi:nodetypes="ccccccc"
       inkscape:connector-curvature="0"
       id="path3184"
       d="m 4,1141.3622 5,0 -0.5,-1.5 -1,-1.5 c -3.1883628,0 -0.9444445,0 -2,0 l -1,1.5 z"
       style="fill:#ffffff;fill-opacity:1;stroke:none" />
    <rect
       style="fill:#ffffff;stroke:none"
       id="rect3186"
       width="1"
       height="1"
       x="4"
       y="1142.3622" />
    <rect
       y="1142.3622"
       x="8"
       height="1"
       width="1"
       id="rect3188"
       style="fill:#ffffff;stroke:none" />
    <rect
       y="1137.8622"
       x="6"
       height="3.5"
       width="1"
       id="rect3190"
       style="fill:#444444;fill-opacity:1;stroke:none" />
    <path
       style="fill:#444444;fill-opacity:1;stroke:none"
       d="m 8,1144.8622 -3,0 0,0.5 -1,0 0,0.5 -1,0 0,0.5 3,0 0,-0.5 1,0 0,0.5 3,0 0,-0.5 -1,0 0,-0.5 -1,0 z"
       id="path3192"
       inkscape:connector-curvature="0"
       sodipodi:nodetypes="ccccccccccccccccc" />
    <path
       sodipodi:nodetypes="ccccccccc"
       inkscape:connector-curvature="0"
       id="path3196"
       d="m -16,1044.3622 1,-2 1.5,-1 c 1.086195,0 0.913805,0 2,0 l 1.5,1 0.9999999,2 0.0069,4 -6.9999989,0 z"
       style="fill:#444444;fill-opacity:1;stroke:none" />
    <path
       sodipodi:nodetypes="ccccccc"
       inkscape:connector-curvature="0"
       id="path3198"
       d="m -15,1045.3622 5,0 -0.5,-1.5 -1,-1.5 c -3.188363,0 -0.944445,0 -2,0 l -1,1.5 z"
       style="fill:#ffffff;fill-opacity:1;stroke:none" />
    <rect
       style="fill:#ffffff;stroke:none"
       id="rect3200"
       width="1"
       height="1"
       x="-15"
       y="1046.3622" />
    <rect
       y="1046.3622"
       x="-11"
       height="1"
       width="1"
       id="rect3202"
       style="fill:#ffffff;stroke:none" />
    <rect
       y="1041.8622"
       x="-13"
       height="3.5"
       width="1"
       id="rect3204"
       style="fill:#444444;fill-opacity:1;stroke:none" />
    <path
       style="fill:#444444;fill-opacity:1;stroke:none"
       d="m -13,1048.8622 -0.5,0 0,-0.5 -1,0 0,0.5 -0.5,0 0,0.5 -1,0 0,1 3,0 0,-1 0,0 z"
       id="path3206"
       inkscape:connector-curvature="0"
       sodipodi:nodetypes="ccccccccccccc" />
    <path
       sodipodi:nodetypes="ccccccccccccc"
       inkscape:connector-curvature="0"
       id="path3208"
       d="m -12,1048.8622 0.5,0 0,-0.5 1,0 0,0.5 0.5,0 0,0.5 0.9999999,0 0,1 -2.9999999,0 0,-1 0,0 z"
       style="fill:#444444;fill-opacity:1;stroke:none" />
    <path
       sodipodi:nodetypes="ccccccccc"
       inkscape:connector-curvature="0"
       id="path3225"
       d="m 3,1086.3622 1,-2 1.5,-1 c 1.086195,0 0.9138051,0 2,0 l 1.5,1 1,2 0,3 -6.9999993,0 z"
       style="fill:#444444;fill-opacity:1;stroke:none" />
    <path
       sodipodi:nodetypes="ccccccc"
       inkscape:connector-curvature="0"
       id="path3227"
       d="m 4,1086.3622 5,0 -0.5,-0.5 -1,-1.5 c -3.1883628,0 -0.9444445,0 -2,0 l -1,1.5 z"
       style="fill:#ffffff;fill-opacity:1;stroke:none" />
    <rect
       style="fill:#ffffff;stroke:none"
       id="rect3229"
       width="1"
       height="1"
       x="4"
       y="1087.3622" />
    <rect
       y="1087.3622"
       x="8"
       height="1"
       width="1"
       id="rect3231"
       style="fill:#ffffff;stroke:none" />
    <rect
       y="1083.8622"
       x="6"
       height="3.5"
       width="1"
       id="rect3233"
       style="fill:#444444;fill-opacity:1;stroke:none" />
    <path
       style="fill:#444444;fill-opacity:1;stroke:none"
       d="m 5,1090.3622 -1,0 0,1 -1,0 0,1 3,0 0,-3 -1,0 z"
       id="path3236"
       inkscape:connector-curvature="0"
       sodipodi:nodetypes="ccccccccc" />
    <path
       sodipodi:nodetypes="ccccccccc"
       inkscape:connector-curvature="0"
       id="path3238"
       d="m 9,1090.3622 -1,0 -0.02167,-1 -1,0 0.02167,3 3,0 0,-1 -1,0 z"
       style="fill:#444444;fill-opacity:1;stroke:none" />
    <path
       style="fill:#ffffff;fill-opacity:1;stroke:none"
       d="m -15,1045.3622 5,0 -0.5,-1.5 -1,-1.5 c -3.188363,0 -0.944445,0 -2,0 l -1,1.5 z"
       id="path3240"
       inkscape:connector-curvature="0"
       sodipodi:nodetypes="ccccccc" />
    <rect
       y="1046.3622"
       x="-15"
       height="1"
       width="1"
       id="rect3242"
       style="fill:#ffffff;stroke:none" />
    <rect
       style="fill:#ffffff;stroke:none"
       id="rect3244"
       width="1"
       height="1"
       x="-11"
       y="1046.3622" />
    <rect
       style="fill:#444444;fill-opacity:1;stroke:none"
       id="rect3246"
       width="1"
       height="3.5"
       x="-13"
       y="1041.8622" />
    <path
       style="fill:#444444;fill-opacity:1;stroke:none"
       d="m 2.9999999,1044.3622 1,-2 1.5,-1 c 1.086195,0 0.913805,0 2,0 l 1.5,1 0.9999999,2 0.0069,4 -6.9999991,0 z"
       id="path3248"
       inkscape:connector-curvature="0"
       sodipodi:nodetypes="ccccccccc" />
    <path
       style="fill:#ffffff;fill-opacity:1;stroke:none"
       d="m 3.9999999,1045.3622 5,0 -0.5,-1.5 -1,-1.5 c -3.188363,0 -0.944445,0 -2,0 l -1,1.5 z"
       id="path3250"
       inkscape:connector-curvature="0"
       sodipodi:nodetypes="ccccccc" />
    <rect
       y="1046.3622"
       x="4"
       height="1"
       width="1"
       id="rect3252"
       style="fill:#ffffff;stroke:none" />
    <rect
       style="fill:#ffffff;stroke:none"
       id="rect3254"
       width="1"
       height="1"
       x="8"
       y="1046.3622" />
    <rect
       style="fill:#444444;fill-opacity:1;stroke:none"
       id="rect3256"
       width="1"
       height="3.5"
       x="6"
       y="1041.8622" />
    <path
       sodipodi:nodetypes="ccccccc"
       inkscape:connector-curvature="0"
       id="path3258"
       d="m 3.9999999,1045.3622 5,0 -0.5,-1.5 -1,-1.5 c -3.188363,0 -0.944445,0 -2,0 l -1,1.5 z"
       style="fill:#ffffff;fill-opacity:1;stroke:none" />
    <rect
       style="fill:#ffffff;stroke:none"
       id="rect3260"
       width="1"
       height="1"
       x="4"
       y="1046.3622" />
    <rect
       y="1046.3622"
       x="8"
       height="1"
       width="1"
       id="rect3262"
       style="fill:#ffffff;stroke:none" />
    <rect
       y="1041.8622"
       x="6"
       height="3.5"
       width="1"
       id="rect3264"
       style="fill:#444444;fill-opacity:1;stroke:none" />
    <path
       style="fill:#444444;fill-opacity:1;stroke:none"
       d="m 4,1048.8622 0,0.5 -1,0 0,1 3,0 0,-1 0,-0.5 z"
       id="path3266"
       inkscape:connector-curvature="0"
       sodipodi:nodetypes="cccccccc" />
    <path
       sodipodi:nodetypes="cccccccc"
       inkscape:connector-curvature="0"
       id="path3268"
       d="m 9,1048.8622 -2.02167,0 0.02167,0.5 0,1 3,0 0,-1 -1,0 z"
       style="fill:#444444;fill-opacity:1;stroke:none" />
    <path
       sodipodi:nodetypes="ccccccccc"
       inkscape:connector-curvature="0"
       id="path3270"
       d="m -34,1068.3622 1,-2 1.5,-1 c 1.086195,0 0.913805,0 2,0 l 1.5,1 1,2 0.0069,4 -6.999999,0 z"
       style="fill:#444444;fill-opacity:1;stroke:none" />
    <path
       sodipodi:nodetypes="ccccccc"
       inkscape:connector-curvature="0"
       id="path3272"
       d="m -33,1069.3622 5,0 -0.5,-1.5 -1,-1.5 c -3.188363,0 -0.944445,0 -2,0 l -1,1.5 z"
       style="fill:#ffffff;fill-opacity:1;stroke:none" />
    <rect
       style="fill:#ffffff;stroke:none"
       id="rect3274"
       width="1"
       height="1"
       x="-33"
       y="1070.3622" />
    <rect
       y="1070.3622"
       x="-29"
       height="1"
       width="1"
       id="rect3276"
       style="fill:#ffffff;stroke:none" />
    <rect
       y="1065.8622"
       x="-31"
       height="3.5"
       width="1"
       id="rect3278"
       style="fill:#444444;fill-opacity:1;stroke:none" />
    <path
       style="fill:#ffffff;fill-opacity:1;stroke:none"
       d="m -33,1069.3622 5,0 -0.5,-1.5 -1,-1.5 c -3.188363,0 -0.944445,0 -2,0 l -1,1.5 z"
       id="path3280"
       inkscape:connector-curvature="0"
       sodipodi:nodetypes="ccccccc" />
    <rect
       y="1070.3622"
       x="-33"
       height="1"
       width="1"
       id="rect3282"
       style="fill:#ffffff;stroke:none" />
    <rect
       style="fill:#ffffff;stroke:none"
       id="rect3284"
       width="1"
       height="1"
       x="-29"
       y="1070.3622" />
    <rect
       style="fill:#444444;fill-opacity:1;stroke:none"
       id="rect3286"
       width="1"
       height="3.5"
       x="-31"
       y="1065.8622" />
    <path
       sodipodi:nodetypes="ccccccccc"
       inkscape:connector-curvature="0"
       id="path3288"
       d="m -32,1072.8622 -1,0 0,0.5 -1,0 0,1 3,0 0,-1 0,-0.5 z"
       style="fill:#444444;fill-opacity:1;stroke:none" />
    <path
       style="fill:#444444;fill-opacity:1;stroke:none"
       d="m -28,1072.8622 -1,0 -1.02167,0 0.02167,0.5 0,1 3,0 0,-1 -1,0 z"
       id="path3290"
       inkscape:connector-curvature="0"
       sodipodi:nodetypes="ccccccccc" />
    <path
       style="fill:#444444;fill-opacity:1;stroke:none"
       d="m -20,1068.3622 1,-2 1.5,-1 c 1.086195,0 0.913805,0 2,0 l 1.5,1 1,2 0.0069,4 -6.999999,0 z"
       id="path3292"
       inkscape:connector-curvature="0"
       sodipodi:nodetypes="ccccccccc" />
    <path
       style="fill:#ffffff;fill-opacity:1;stroke:none"
       d="m -19,1069.3622 5,0 -0.5,-1.5 -1,-1.5 c -3.188363,0 -0.944445,0 -2,0 l -1,1.5 z"
       id="path3294"
       inkscape:connector-curvature="0"
       sodipodi:nodetypes="ccccccc" />
    <rect
       y="1070.3622"
       x="-19"
       height="1"
       width="1"
       id="rect3296"
       style="fill:#ffffff;stroke:none" />
    <rect
       style="fill:#ffffff;stroke:none"
       id="rect3298"
       width="1"
       height="1"
       x="-15"
       y="1070.3622" />
    <rect
       style="fill:#444444;fill-opacity:1;stroke:none"
       id="rect3300"
       width="1"
       height="3.5"
       x="-17"
       y="1065.8622" />
    <path
       sodipodi:nodetypes="ccccccc"
       inkscape:connector-curvature="0"
       id="path3302"
       d="m -19,1069.3622 5,0 -0.5,-1.5 -1,-1.5 c -3.188363,0 -0.944445,0 -2,0 l -1,1.5 z"
       style="fill:#ffffff;fill-opacity:1;stroke:none" />
    <rect
       style="fill:#ffffff;stroke:none"
       id="rect3304"
       width="1"
       height="1"
       x="-19"
       y="1070.3622" />
    <rect
       y="1070.3622"
       x="-15"
       height="1"
       width="1"
       id="rect3306"
       style="fill:#ffffff;stroke:none" />
    <rect
       y="1065.8622"
       x="-17"
       height="3.5"
       width="1"
       id="rect3308"
       style="fill:#444444;fill-opacity:1;stroke:none" />
    <path
       style="fill:#444444;fill-opacity:1;stroke:none"
       d="m -19,1073.3622 -1,0 0,1 3,0 0,-1 z"
       id="path3310"
       inkscape:connector-curvature="0"
       sodipodi:nodetypes="cccccc" />
    <path
       sodipodi:nodetypes="cccccc"
       inkscape:connector-curvature="0"
       id="path3312"
       d="m -16,1073.3622 0,1 3,0 0,-1 -1,0 z"
       style="fill:#444444;fill-opacity:1;stroke:none" />
    <path
       sodipodi:nodetypes="ccccccccc"
       inkscape:connector-curvature="0"
       id="path3314"
       d="m 22,1044.3622 1,-2 1.5,-1 c 1.086195,0 0.913805,0 2,0 l 1.5,1 1,2 0.0069,4 -6.999999,0 z"
       style="fill:#444444;fill-opacity:1;stroke:none" />
    <path
       sodipodi:nodetypes="ccccccc"
       inkscape:connector-curvature="0"
       id="path3316"
       d="m 23,1045.3622 5,0 -0.5,-1.5 -1,-1.5 c -3.188363,0 -0.944445,0 -2,0 l -1,1.5 z"
       style="fill:#ffffff;fill-opacity:1;stroke:none" />
    <rect
       style="fill:#ffffff;stroke:none"
       id="rect3318"
       width="1"
       height="1"
       x="23"
       y="1046.3622" />
    <rect
       y="1046.3622"
       x="27"
       height="1"
       width="1"
       id="rect3320"
       style="fill:#ffffff;stroke:none" />
    <rect
       y="1041.8622"
       x="25"
       height="3.5"
       width="1"
       id="rect3322"
       style="fill:#444444;fill-opacity:1;stroke:none" />
    <path
       style="fill:#ffffff;fill-opacity:1;stroke:none"
       d="m 23,1045.3622 5,0 -0.5,-1.5 -1,-1.5 c -3.188363,0 -0.944445,0 -2,0 l -1,1.5 z"
       id="path3324"
       inkscape:connector-curvature="0"
       sodipodi:nodetypes="ccccccc" />
    <rect
       y="1046.3622"
       x="23"
       height="1"
       width="1"
       id="rect3326"
       style="fill:#ffffff;stroke:none" />
    <rect
       style="fill:#ffffff;stroke:none"
       id="rect3328"
       width="1"
       height="1"
       x="27"
       y="1046.3622" />
    <rect
       style="fill:#444444;fill-opacity:1;stroke:none"
       id="rect3330"
       width="1"
       height="3.5"
       x="25"
       y="1041.8622" />
    <path
       sodipodi:nodetypes="ccccccccc"
       inkscape:connector-curvature="0"
       id="path3332"
       d="m 24,1048.8622 -1,0 0,0.5 -1,0 0,1 3,0 0,-1 0,-0.5 z"
       style="fill:#444444;fill-opacity:1;stroke:none" />
    <path
       style="fill:#444444;fill-opacity:1;stroke:none"
       d="m 28,1048.8622 -1,0 -1.02167,0 0.02167,0.5 0,1 3,0 0,-1 -1,0 z"
       id="path3334"
       inkscape:connector-curvature="0"
       sodipodi:nodetypes="ccccccccc" />
  </g>
</svg>
