<?xml version="1.0" encoding="UTF-8" standalone="no"?>
<!-- Created with Inkscape (http://www.inkscape.org/) -->

<svg
   xmlns:dc="http://purl.org/dc/elements/1.1/"
   xmlns:cc="http://creativecommons.org/ns#"
   xmlns:rdf="http://www.w3.org/1999/02/22-rdf-syntax-ns#"
   xmlns:svg="http://www.w3.org/2000/svg"
   xmlns="http://www.w3.org/2000/svg"
   xmlns:sodipodi="http://sodipodi.sourceforge.net/DTD/sodipodi-0.dtd"
   xmlns:inkscape="http://www.inkscape.org/namespaces/inkscape"
   width="24"
   height="24"
   id="svg4460"
   version="1.1"
   inkscape:version="0.48.4 r9939"
   sodipodi:docname="rail-light-24.svg">
  <defs
     id="defs4462" />
  <sodipodi:namedview
     id="base"
     pagecolor="#ffffff"
     bordercolor="#666666"
     borderopacity="1.0"
     inkscape:pageopacity="0.0"
     inkscape:pageshadow="2"
     inkscape:zoom="22.627417"
     inkscape:cx="1.5225956"
     inkscape:cy="12.153836"
     inkscape:document-units="px"
     inkscape:current-layer="layer1"
     showgrid="true"
     showguides="true"
     inkscape:guide-bbox="true"
     inkscape:window-width="1558"
     inkscape:window-height="925"
     inkscape:window-x="105"
     inkscape:window-y="27"
     inkscape:window-maximized="0">
    <inkscape:grid
       type="xygrid"
       id="grid4468"
       empspacing="2"
       visible="true"
       enabled="true"
       snapvisiblegridlinesonly="true"
       color="#ff00ff"
       opacity="0.1254902"
       empcolor="#ff00ff"
       empopacity="0.25098039" />
    <sodipodi:guide
       orientation="1,0"
       position="0,20"
       id="guide4470" />
    <sodipodi:guide
       orientation="0,1"
       position="4,24"
       id="guide4472" />
    <sodipodi:guide
       orientation="1,0"
       position="24,13"
       id="guide4474" />
    <sodipodi:guide
       orientation="0,1"
       position="15,0"
       id="guide4476" />
    <sodipodi:guide
       orientation="1,0"
       position="23,20"
       id="guide4478" />
    <sodipodi:guide
       orientation="0,1"
       position="-20,24"
       id="guide4480" />
    <sodipodi:guide
       orientation="1,0"
       position="2,5"
       id="guide4482" />
    <sodipodi:guide
       orientation="0,1"
       position="7,2"
       id="guide4484" />
    <sodipodi:guide
       orientation="1,0"
       position="12.5,11.5"
       id="guide4486" />
    <sodipodi:guide
       orientation="0,1"
       position="16,13"
       id="guide4490" />
    <sodipodi:guide
       orientation="1,0"
       position="3,13.5"
       id="guide3012" />
    <sodipodi:guide
       orientation="0,1"
       position="6.5,22"
       id="guide3014" />
    <sodipodi:guide
       orientation="1,0"
       position="22,18"
       id="guide3016" />
    <sodipodi:guide
       orientation="0,1"
       position="13.5,3"
       id="guide3018" />
  </sodipodi:namedview>
  <metadata
     id="metadata4465">
    <rdf:RDF>
      <cc:Work
         rdf:about="">
        <dc:format>image/svg+xml</dc:format>
        <dc:type
           rdf:resource="http://purl.org/dc/dcmitype/StillImage" />
        <dc:title />
      </cc:Work>
    </rdf:RDF>
  </metadata>
  <g
     inkscape:label="Layer 1"
     inkscape:groupmode="layer"
     id="layer1"
     transform="translate(0,-1028.3622)">
    <path
       id="path5182"
       transform="translate(0,1028.3622)"
       d="M 12.5 2 C 8.9101492 2 6 4.686308 6 8 L 6 16 C 6 16.554 6.446 17 7 17 L 18 17 C 18.554 17 19 16.554 19 16 L 19 8 C 19 4.686308 16.08985 2 12.5 2 z M 12 4.0625 L 12 10 L 8 10 L 8 8 C 8 5.9435518 9.753915 4.2868455 12 4.0625 z M 13 4.0625 C 15.246085 4.2868455 17 5.9435518 17 8 L 17 10 L 13 10 L 13 4.0625 z M 9 13 C 9.5522847 13 10 13.447715 10 14 C 10 14.552285 9.5522847 15 9 15 C 8.4477153 15 8 14.552285 8 14 C 8 13.447715 8.4477153 13 9 13 z M 16 13 C 16.552285 13 17 13.447715 17 14 C 17 14.552285 16.552285 15 16 15 C 15.447715 15 15 14.552285 15 14 C 15 13.447715 15.447715 13 16 13 z M 9 18 L 6 21 L 10 21 L 12 18 L 9 18 z M 13 18 L 15 21 L 19 21 L 16 18 L 13 18 z "
       style="fill:#444444;fill-opacity:1;stroke:#ffffff;stroke-width:2;stroke-miterlimit:4;stroke-dasharray:none;opacity:0.29999999999999999;stroke-linejoin:round;stroke-linecap:round" />
    <path
       style="fill:#444444;fill-opacity:1;stroke:none"
       d="M 12.5 2 C 8.9101492 2 6 4.686308 6 8 L 6 16 C 6 16.554 6.446 17 7 17 L 18 17 C 18.554 17 19 16.554 19 16 L 19 8 C 19 4.686308 16.08985 2 12.5 2 z M 12 4.0625 L 12 10 L 8 10 L 8 8 C 8 5.9435518 9.753915 4.2868455 12 4.0625 z M 13 4.0625 C 15.246085 4.2868455 17 5.9435518 17 8 L 17 10 L 13 10 L 13 4.0625 z M 9 13 C 9.5522847 13 10 13.447715 10 14 C 10 14.552285 9.5522847 15 9 15 C 8.4477153 15 8 14.552285 8 14 C 8 13.447715 8.4477153 13 9 13 z M 16 13 C 16.552285 13 17 13.447715 17 14 C 17 14.552285 16.552285 15 16 15 C 15.447715 15 15 14.552285 15 14 C 15 13.447715 15.447715 13 16 13 z M 9 18 L 6 21 L 10 21 L 12 18 L 9 18 z M 13 18 L 15 21 L 19 21 L 16 18 L 13 18 z "
       transform="translate(0,1028.3622)"
       id="rect3109" />
  </g>
</svg>
