<?xml version="1.0" encoding="UTF-8" standalone="no"?>
<!-- Created with Inkscape (http://www.inkscape.org/) -->

<svg
   xmlns:dc="http://purl.org/dc/elements/1.1/"
   xmlns:cc="http://creativecommons.org/ns#"
   xmlns:rdf="http://www.w3.org/1999/02/22-rdf-syntax-ns#"
   xmlns:svg="http://www.w3.org/2000/svg"
   xmlns="http://www.w3.org/2000/svg"
   xmlns:inkscape="http://www.inkscape.org/namespaces/inkscape"
   version="1.1"
   width="24"
   height="24"
   id="svg4460">
  <defs
     id="defs4462" />
  <metadata
     id="metadata4465">
    <rdf:RDF>
      <cc:Work
         rdf:about="">
        <dc:format>image/svg+xml</dc:format>
        <dc:type
           rdf:resource="http://purl.org/dc/dcmitype/StillImage" />
        <dc:title />
      </cc:Work>
    </rdf:RDF>
  </metadata>
  <g
     transform="translate(0,-1028.3622)"
     id="layer1">
    <path
       d="M 12.5,1 C 8.4112783,1 5,4.1008 5,8 l 0,8 c 0,1.0907 0.9092972,2 2,2 l 0.5625,0 -2.28125,2.28125 C 4.7068834,20.83665 5.201277,22.0188 6,22 l 4,0 c 0.335757,0 0.665381,-0.18425 0.84375,-0.46875 L 12.5,19.0625 14.15625,21.53125 C 14.334619,21.81575 14.664243,21.9988 15,22 l 4,0 c 0.798723,0.019 1.293117,-1.16335 0.71875,-1.71875 L 17.4375,18 18,18 c 1.090703,0 2,-0.9093 2,-2 L 20,8 C 20,4.1008 16.588721,1 12.5,1 z M 11,5.53125 11,9 9,9 9,8 C 9,6.8778 9.862402,6.03275 11,5.53125 z m 3,0 C 15.137598,6.03275 16,6.8778 16,8 l 0,1 -2,0 0,-3.46875 z"
       inkscape:connector-curvature="0"
       transform="translate(0,1028.3622)"
       id="path4064"
       style="font-size:medium;font-style:normal;font-variant:normal;font-weight:normal;font-stretch:normal;text-indent:0;text-align:start;text-decoration:none;line-height:normal;letter-spacing:normal;word-spacing:normal;text-transform:none;direction:ltr;block-progression:tb;writing-mode:lr-tb;text-anchor:start;baseline-shift:baseline;opacity:0.3;color:#000000;fill:#ffffff;fill-opacity:1;stroke:none;stroke-width:2;marker:none;visibility:visible;display:inline;overflow:visible;enable-background:accumulate;font-family:Sans;-inkscape-font-specification:Sans" />
    <path
       d="M 12.5,2 C 8.9101492,2 6,4.686308 6,8 l 0,8 c 0,0.554 0.446,1 1,1 l 11,0 c 0.554,0 1,-0.446 1,-1 L 19,8 C 19,4.686308 16.08985,2 12.5,2 z M 12,4.0625 12,10 8,10 8,8 C 8,5.9435518 9.753915,4.2868455 12,4.0625 z m 1,0 C 15.246085,4.2868455 17,5.9435518 17,8 l 0,2 -4,0 0,-5.9375 z M 9,13 c 0.5522847,0 1,0.447715 1,1 0,0.552285 -0.4477153,1 -1,1 -0.5522847,0 -1,-0.447715 -1,-1 0,-0.552285 0.4477153,-1 1,-1 z m 7,0 c 0.552285,0 1,0.447715 1,1 0,0.552285 -0.447715,1 -1,1 -0.552285,0 -1,-0.447715 -1,-1 0,-0.552285 0.447715,-1 1,-1 z m -7,5 -3,3 4,0 2,-3 -3,0 z m 4,0 2,3 4,0 -3,-3 -3,0 z"
       inkscape:connector-curvature="0"
       transform="translate(0,1028.3622)"
       id="rect3109"
       style="fill:#444444;fill-opacity:1;stroke:none" />
  </g>
  <rect
     width="24"
     height="24"
     x="0"
     y="0"
     id="canvas"
     style="fill:none;stroke:none;visibility:hidden" />
</svg>
