<?xml version="1.0" encoding="UTF-8" standalone="no"?>
<!-- Created with Inkscape (http://www.inkscape.org/) -->

<svg
   xmlns:dc="http://purl.org/dc/elements/1.1/"
   xmlns:cc="http://creativecommons.org/ns#"
   xmlns:rdf="http://www.w3.org/1999/02/22-rdf-syntax-ns#"
   xmlns:svg="http://www.w3.org/2000/svg"
   xmlns="http://www.w3.org/2000/svg"
   xmlns:inkscape="http://www.inkscape.org/namespaces/inkscape"
   version="1.1"
   width="24"
   height="24"
   id="svg4460">
  <defs
     id="defs4462" />
  <metadata
     id="metadata4465">
    <rdf:RDF>
      <cc:Work
         rdf:about="">
        <dc:format>image/svg+xml</dc:format>
        <dc:type
           rdf:resource="http://purl.org/dc/dcmitype/StillImage" />
        <dc:title />
      </cc:Work>
    </rdf:RDF>
  </metadata>
  <g
     transform="translate(0,-1028.3622)"
     id="layer1">
    <path
       d="M 8.90625,1 C 8.6736869,1.017 8.4482242,1.11845 8.28125,1.28125 l -4,4 C 4.0975571,5.47105 3.9938957,5.736 4,6 l 0,7 0,3 c 0,1.0907 0.9092972,2 2,2 l 0.5625,0 -2.28125,2.28125 C 3.7068834,20.836603 4.2012766,22.018832 5,22 l 4,0 c 0.335757,-0.0012 0.6653811,-0.184288 0.84375,-0.46875 l 2,-3 C 11.948219,18.364561 11.986217,18.190284 11.96875,18 l 1.0625,0 c -0.01002,0.190724 0.01834,0.36822 0.125,0.53125 l 2,3 C 15.334619,21.815712 15.664243,21.998806 16,22 l 4,0 c 0.798723,0.01883 1.293117,-1.163397 0.71875,-1.71875 L 18.4375,18 19,18 c 1.090703,0 2,-0.9093 2,-2 l 0,-3 0,-7 C 21.0061,5.736 20.90244,5.47105 20.71875,5.28125 l -4,-4 C 16.52898,1.09755 16.264063,0.9939 16,1 L 9,1 8.90625,1 z M 8,8 l 9,0 0,2 -9,0 0,-2 z"
       inkscape:connector-curvature="0"
       transform="translate(0,1028.3622)"
       id="path4598"
       style="font-size:medium;font-style:normal;font-variant:normal;font-weight:normal;font-stretch:normal;text-indent:0;text-align:start;text-decoration:none;line-height:normal;letter-spacing:normal;word-spacing:normal;text-transform:none;direction:ltr;block-progression:tb;writing-mode:lr-tb;text-anchor:start;baseline-shift:baseline;opacity:0.3;color:#000000;fill:#ffffff;fill-opacity:1;stroke:none;stroke-width:2;marker:none;visibility:visible;display:inline;overflow:visible;enable-background:accumulate;font-family:Sans;-inkscape-font-specification:Sans" />
    <path
       d="m 9,2 -4,4 0,7 0,3 c 0,0.554 0.446,1 1,1 l 13,0 c 0.554,0 1,-0.446 1,-1 L 20,13 20,6 16,2 9,2 z m 1,2 5,0 0,2 -5,0 0,-2 z M 7,7 18,7 18,11 7,11 7,7 z m 1,6 c 0.5522847,0 1,0.447715 1,1 0,0.552285 -0.4477153,1 -1,1 -0.5522847,0 -1,-0.447715 -1,-1 0,-0.552285 0.4477153,-1 1,-1 z m 9,0 c 0.552285,0 1,0.447715 1,1 0,0.552285 -0.447715,1 -1,1 -0.552285,0 -1,-0.447715 -1,-1 0,-0.552285 0.447715,-1 1,-1 z m -9,5 -3,3 4,0 2,-3 -3,0 z m 6,0 2,3 4,0 -3,-3 -3,0 z"
       inkscape:connector-curvature="0"
       transform="translate(0,1028.3622)"
       id="rect3226"
       style="fill:#444444;fill-opacity:1;stroke:none" />
  </g>
  <rect
     width="24"
     height="24"
     x="0"
     y="0"
     id="canvas"
     style="fill:none;stroke:none;visibility:hidden" />
</svg>
