<?xml version="1.0" encoding="UTF-8" standalone="no"?>
<svg width="18px" height="18px" viewBox="0 0 18 18" version="1.1" xmlns="http://www.w3.org/2000/svg" xmlns:xlink="http://www.w3.org/1999/xlink" xmlns:sketch="http://www.bohemiancoding.com/sketch/ns">
    <!-- Generator: Sketch 3.2.2 (9983) - http://www.bohemiancoding.com/sketch -->
    <title>ranger-station-black-18</title>
    <desc>Created with Sketch.</desc>
    <defs></defs>
    <g id="Page-1" stroke="none" stroke-width="1" fill="none" fill-rule="evenodd" sketch:type="MSPage">
        <path d="M16.0740741,11.4895409 L10.8888889,8.08790546 L10.8888889,4.91985873 L12.3703704,4.91985873 L12.3703704,5.64982342 L14.5925926,5.64982342 L14.5925926,2.72996468 L12.3703704,2.72996468 L12.3703704,2 L10.1481481,2 L10.1481481,7.59882912 L9.40740741,7.10975278 L2.74074074,11.4895409 L2,11.4895409 L2,12.2195056 L3.48148148,12.2195056 L3.48148148,18.059223 L7.92592593,18.059223 L7.92592593,13.6794349 L10.8888889,13.6794349 L10.8888889,18.059223 L15.3333333,18.059223 L15.3333333,12.2195056 L16.8148148,12.2195056 L16.8148148,11.4895409 L16.0740741,11.4895409" id="Fill-331" opacity="0.1" fill="#0A0B09" sketch:type="MSShapeGroup"></path>
        <path d="M15.0740741,10.4895409 L9.88888889,7.08790546 L9.88888889,3.91985873 L11.3703704,3.91985873 L11.3703704,4.64982342 L13.5925926,4.64982342 L13.5925926,1.72996468 L11.3703704,1.72996468 L11.3703704,1 L9.14814815,1 L9.14814815,6.59882912 L8.40740741,6.10975278 L1.74074074,10.4895409 L1,10.4895409 L1,11.2195056 L2.48148148,11.2195056 L2.48148148,17.059223 L6.92592593,17.059223 L6.92592593,12.6794349 L9.88888889,12.6794349 L9.88888889,17.059223 L14.3333333,17.059223 L14.3333333,11.2195056 L15.8148148,11.2195056 L15.8148148,10.4895409 L15.0740741,10.4895409" id="Fill-331" opacity="0.2" fill="#0A0B09" sketch:type="MSShapeGroup"></path>
        <path d="M14.0740741,9.48954089 L8.88888889,6.08790546 L8.88888889,2.91985873 L10.3703704,2.91985873 L10.3703704,3.64982342 L12.5925926,3.64982342 L12.5925926,0.729964684 L10.3703704,0.729964684 L10.3703704,0 L8.14814815,0 L8.14814815,5.59882912 L7.40740741,5.10975278 L0.740740741,9.48954089 L0,9.48954089 L0,10.2195056 L1.48148148,10.2195056 L1.48148148,16.059223 L5.92592593,16.059223 L5.92592593,11.6794349 L8.88888889,11.6794349 L8.88888889,16.059223 L13.3333333,16.059223 L13.3333333,10.2195056 L14.8148148,10.2195056 L14.8148148,9.48954089 L14.0740741,9.48954089" id="Fill-331" fill="#0A0B09" sketch:type="MSShapeGroup"></path>
    </g>
</svg>