<?xml version="1.0" encoding="UTF-8" standalone="no"?>
<svg width="12px" height="12px" viewBox="0 0 12 12" version="1.1" xmlns="http://www.w3.org/2000/svg" xmlns:xlink="http://www.w3.org/1999/xlink" xmlns:sketch="http://www.bohemiancoding.com/sketch/ns">
    <!-- Generator: Sketch 3.2.2 (9983) - http://www.bohemiancoding.com/sketch -->
    <title>ranger-station-black-12</title>
    <desc>Created with Sketch.</desc>
    <defs></defs>
    <g id="Page-1" stroke="none" stroke-width="1" fill="none" fill-rule="evenodd" sketch:type="MSPage">
        <path d="M9.76470588,7.6815427 L7.64705882,6.40319559 L7.64705882,4.13057851 L8.35294118,4.13057851 L8.35294118,4.84077135 L9.76470588,4.84077135 L9.76470588,2.71019284 L8.35294118,2.71019284 L8.35294118,2 L6.94117647,2 L6.94117647,5.97707989 L6.23529412,5.55096419 L2.70588235,7.6815427 L2,7.6815427 L2,8.39173554 L2.70588235,8.39173554 L2.70588235,11.9426997 L5.52941176,11.9426997 L5.52941176,9.10192837 L6.94117647,9.10192837 L6.94117647,11.9426997 L9.76470588,11.9426997 L9.76470588,8.39173554 L10.4705882,8.39173554 L10.4705882,7.6815427 L9.76470588,7.6815427" id="Fill-332" fill-opacity="0.1" fill="#0A0B09" sketch:type="MSShapeGroup"></path>
        <path d="M8.76470588,6.6815427 L6.64705882,5.40319559 L6.64705882,3.13057851 L7.35294118,3.13057851 L7.35294118,3.84077135 L8.76470588,3.84077135 L8.76470588,1.71019284 L7.35294118,1.71019284 L7.35294118,1 L5.94117647,1 L5.94117647,4.97707989 L5.23529412,4.55096419 L1.70588235,6.6815427 L1,6.6815427 L1,7.39173554 L1.70588235,7.39173554 L1.70588235,10.9426997 L4.52941176,10.9426997 L4.52941176,8.10192837 L5.94117647,8.10192837 L5.94117647,10.9426997 L8.76470588,10.9426997 L8.76470588,7.39173554 L9.47058824,7.39173554 L9.47058824,6.6815427 L8.76470588,6.6815427" id="Fill-332" opacity="0.2" fill="#0A0B09" sketch:type="MSShapeGroup"></path>
        <path d="M7.76470588,5.6815427 L5.64705882,4.40319559 L5.64705882,2.13057851 L6.35294118,2.13057851 L6.35294118,2.84077135 L7.76470588,2.84077135 L7.76470588,0.710192837 L6.35294118,0.710192837 L6.35294118,0 L4.94117647,0 L4.94117647,3.97707989 L4.23529412,3.55096419 L0.705882353,5.6815427 L0,5.6815427 L0,6.39173554 L0.705882353,6.39173554 L0.705882353,9.94269972 L3.52941176,9.94269972 L3.52941176,7.10192837 L4.94117647,7.10192837 L4.94117647,9.94269972 L7.76470588,9.94269972 L7.76470588,6.39173554 L8.47058824,6.39173554 L8.47058824,5.6815427 L7.76470588,5.6815427" id="Fill-332" fill="#0A0B09" sketch:type="MSShapeGroup"></path>
    </g>
</svg>