<?xml version="1.0" encoding="utf-8"?>
<!-- Generator: Adobe Illustrator 18.1.1, SVG Export Plug-In . SVG Version: 6.00 Build 0)  -->
<svg version="1.1" xmlns="http://www.w3.org/2000/svg" xmlns:xlink="http://www.w3.org/1999/xlink" x="0px" y="0px"
	 viewBox="0 0 18 18" enable-background="new 0 0 18 18" xml:space="preserve">
<g id="shadows">
	<g opacity="0.2">
		<polygon points="14.893,10.179 12.107,8.507 12.107,5.536 13.036,5.536 13.036,6.464 14.893,6.464 14.893,3.679 13.036,3.679 
			13.036,2.75 12.107,2.75 11.179,2.75 11.179,5.536 11.179,7.95 10.25,7.393 5.607,10.179 4.679,10.179 4.679,11.107 5.607,11.107 
			5.607,15.75 9.321,15.75 9.321,12.036 11.179,12.036 11.179,15.75 14.893,15.75 14.893,11.107 15.821,11.107 15.821,10.179 		"/>
	</g>
</g>
<g id="icons">
	<g>
		<polygon points="14.143,9.429 11.357,7.757 11.357,4.786 12.286,4.786 12.286,5.714 14.143,5.714 14.143,2.929 12.286,2.929 
			12.286,2 11.357,2 10.429,2 10.429,4.786 10.429,7.2 9.5,6.643 4.857,9.429 3.929,9.429 3.929,10.357 4.857,10.357 4.857,15 
			8.571,15 8.571,11.286 10.429,11.286 10.429,15 14.143,15 14.143,10.357 15.071,10.357 15.071,9.429 		"/>
	</g>
</g>
</svg>
