<?xml version="1.0" encoding="utf-8"?>
<!-- Generator: Adobe Illustrator 18.1.1, SVG Export Plug-In . SVG Version: 6.00 Build 0)  -->
<svg version="1.1" xmlns="http://www.w3.org/2000/svg" xmlns:xlink="http://www.w3.org/1999/xlink" x="0px" y="0px"
	 viewBox="0 0 12 12" enable-background="new 0 0 12 12" xml:space="preserve">
<g id="shadows">
	<g opacity="0.2">
		<polygon points="10.214,6.643 8.286,5.486 8.286,3.429 8.929,3.429 8.929,4.071 10.214,4.071 10.214,2.143 8.929,2.143 8.929,1.5 
			8.286,1.5 7.643,1.5 7.643,3.429 7.643,5.1 7,4.714 3.786,6.643 3.143,6.643 3.143,7.286 3.786,7.286 3.786,10.5 6.357,10.5 
			6.357,7.929 7.643,7.929 7.643,10.5 10.214,10.5 10.214,7.286 10.857,7.286 10.857,6.643 		"/>
	</g>
</g>
<g id="icons">
	<g>
		<polygon points="9.714,6.143 7.786,4.986 7.786,2.929 8.429,2.929 8.429,3.571 9.714,3.571 9.714,1.643 8.429,1.643 8.429,1 
			7.786,1 7.143,1 7.143,2.929 7.143,4.6 6.5,4.214 3.286,6.143 2.643,6.143 2.643,6.786 3.286,6.786 3.286,10 5.857,10 
			5.857,7.429 7.143,7.429 7.143,10 9.714,10 9.714,6.786 10.357,6.786 10.357,6.143 		"/>
	</g>
</g>
</svg>
