<?xml version="1.0" encoding="UTF-8" standalone="no"?>
<!-- Created with Inkscape (http://www.inkscape.org/) -->

<svg
   xmlns:dc="http://purl.org/dc/elements/1.1/"
   xmlns:cc="http://creativecommons.org/ns#"
   xmlns:rdf="http://www.w3.org/1999/02/22-rdf-syntax-ns#"
   xmlns:svg="http://www.w3.org/2000/svg"
   xmlns="http://www.w3.org/2000/svg"
   xmlns:sodipodi="http://sodipodi.sourceforge.net/DTD/sodipodi-0.dtd"
   xmlns:inkscape="http://www.inkscape.org/namespaces/inkscape"
   width="12"
   height="12"
   id="svg27498"
   version="1.1"
   inkscape:version="0.48.2 r9819"
   sodipodi:docname="ranger-station-white-12.svg">
  <defs
     id="defs27500" />
  <sodipodi:namedview
     id="base"
     pagecolor="#ffffff"
     bordercolor="#666666"
     borderopacity="1.0"
     inkscape:pageopacity="0.0"
     inkscape:pageshadow="2"
     inkscape:zoom="10.676107"
     inkscape:cx="9.6789942"
     inkscape:cy="5.7946291"
     inkscape:document-units="px"
     inkscape:current-layer="layer1"
     showgrid="false"
     inkscape:window-width="483"
     inkscape:window-height="454"
     inkscape:window-x="3716"
     inkscape:window-y="644"
     inkscape:window-maximized="0" />
  <metadata
     id="metadata27503">
    <rdf:RDF>
      <cc:Work
         rdf:about="">
        <dc:format>image/svg+xml</dc:format>
        <dc:type
           rdf:resource="http://purl.org/dc/dcmitype/StillImage" />
        <dc:title></dc:title>
      </cc:Work>
    </rdf:RDF>
  </metadata>
  <g
     inkscape:label="Layer 1"
     inkscape:groupmode="layer"
     id="layer1"
     transform="translate(0,-1040.3622)">
    <g
       id="g13339"
       transform="matrix(1.2133468,0,0,1.2133468,-26.340997,471.00392)"
       inkscape:transform-center-x="28.774517"
       inkscape:transform-center-y="-14.126401">
      <path
         style="opacity:0;fill:#272525"
         inkscape:connector-curvature="0"
         id="path13341"
         d="m 22.887,479.141 c -0.652,0 -1.182,-0.529 -1.182,-1.184 v -7.525 c 0,-0.654 0.529,-1.182 1.182,-1.182 h 7.526 c 0.652,0 1.182,0.527 1.182,1.182 v 7.525 c 0,0.654 -0.529,1.184 -1.182,1.184 h -7.526 z" />
      <path
         d="m 27.373,473.393 v -1.697 h 0.587 c 0.244,0 0.286,0.16 0.316,0.191 0.091,0.088 0.152,0.141 0.281,0.141 h 0.65 v -1.441 h -0.65 c -0.129,0 -0.19,-0.053 -0.281,-0.143 -0.03,-0.027 -0.072,-0.189 -0.316,-0.189 h -0.896 v 2.939 l -0.41,-0.268 -3.612,2.332 h 0.847 v 2.818 h 2.051 v -2.238 h 1.425 v 2.188 h 2.052 v -2.768 h 0.844 l -2.888,-1.865 z"
         id="path13343"
         inkscape:connector-curvature="0"
         style="opacity:0.6;fill:none;stroke:#ffffff;stroke-width:0.5;stroke-miterlimit:4;stroke-opacity:1;stroke-dasharray:none" />
      <path
         style="fill:#272525"
         inkscape:connector-curvature="0"
         id="path13345"
         d="m 27.373,473.393 v -1.697 h 0.587 c 0.244,0 0.286,0.16 0.316,0.191 0.091,0.088 0.152,0.141 0.281,0.141 h 0.65 v -1.441 h -0.65 c -0.129,0 -0.19,-0.053 -0.281,-0.143 -0.03,-0.027 -0.072,-0.189 -0.316,-0.189 h -0.896 v 2.939 l -0.41,-0.268 -3.612,2.332 h 0.847 v 2.818 h 2.051 v -2.238 h 1.425 v 2.188 h 2.052 v -2.768 h 0.844 l -2.888,-1.865 z" />
    </g>
  </g>
</svg>
