<?xml version="1.0" encoding="utf-8"?>
<!-- Generator: Adobe Illustrator 18.1.1, SVG Export Plug-In . SVG Version: 6.00 Build 0)  -->
<svg version="1.1" xmlns="http://www.w3.org/2000/svg" xmlns:xlink="http://www.w3.org/1999/xlink" x="0px" y="0px"
	 viewBox="0 0 18 18" enable-background="new 0 0 18 18" xml:space="preserve">
<g id="shadows">
	<g opacity="0.2">
		<polygon points="14.9,10.2 12.1,8.5 12.1,5.5 13,5.5 13,6.5 14.9,6.5 14.9,3.7 13,3.7 13,2.8 12.1,2.8 11.2,2.8 11.2,5.5 11.2,8 
			10.2,7.4 5.6,10.2 4.7,10.2 4.7,11.1 5.6,11.1 5.6,15.8 9.3,15.8 9.3,12 11.2,12 11.2,15.8 14.9,15.8 14.9,11.1 15.8,11.1 
			15.8,10.2 		"/>
	</g>
</g>
<g id="icons">
	<g>
		<polygon points="14.1,9.4 11.4,7.8 11.4,4.8 12.3,4.8 12.3,5.7 14.1,5.7 14.1,2.9 12.3,2.9 12.3,2 11.4,2 10.4,2 10.4,4.8 
			10.4,7.2 9.5,6.6 4.9,9.4 3.9,9.4 3.9,10.4 4.9,10.4 4.9,15 8.6,15 8.6,11.3 10.4,11.3 10.4,15 14.1,15 14.1,10.4 15.1,10.4 
			15.1,9.4 		"/>
	</g>
</g>
</svg>
