<?xml version="1.0" encoding="utf-8"?>
<!-- Generator: Adobe Illustrator 18.1.1, SVG Export Plug-In . SVG Version: 6.00 Build 0)  -->
<svg version="1.1" xmlns="http://www.w3.org/2000/svg" xmlns:xlink="http://www.w3.org/1999/xlink" x="0px" y="0px"
	 viewBox="0 0 12 12" enable-background="new 0 0 12 12" xml:space="preserve">
<g id="shadows">
	<g opacity="0.2">
		<polygon points="9.2,6.6 7.3,5.5 7.3,3.4 7.9,3.4 7.9,4.1 9.2,4.1 9.2,2.1 7.9,2.1 7.9,1.5 7.3,1.5 6.6,1.5 6.6,3.4 6.6,5.1 
			6,4.7 2.8,6.6 2.1,6.6 2.1,7.3 2.8,7.3 2.8,10.5 5.4,10.5 5.4,7.9 6.6,7.9 6.6,10.5 9.2,10.5 9.2,7.3 9.9,7.3 9.9,6.6 		"/>
	</g>
</g>
<g id="icons">
	<g>
		<polygon points="8.7,6.1 6.8,5 6.8,2.9 7.4,2.9 7.4,3.6 8.7,3.6 8.7,1.6 7.4,1.6 7.4,1 6.8,1 6.1,1 6.1,2.9 6.1,4.6 5.5,4.2 
			2.3,6.1 1.6,6.1 1.6,6.8 2.3,6.8 2.3,10 4.9,10 4.9,7.4 6.1,7.4 6.1,10 8.7,10 8.7,6.8 9.4,6.8 9.4,6.1 		"/>
	</g>
</g>
</svg>
