<?xml version="1.0" encoding="utf-8"?>
<!-- Generator: Adobe Illustrator 18.1.1, SVG Export Plug-In . SVG Version: 6.00 Build 0)  -->
<svg version="1.1" xmlns="http://www.w3.org/2000/svg" xmlns:xlink="http://www.w3.org/1999/xlink" x="0px" y="0px"
	 viewBox="0 0 24 24" enable-background="new 0 0 24 24" xml:space="preserve">
<g id="shadows">
	<g opacity="0.2">
		<polygon points="20.5,14 15,10.4 15,7.1 16.6,7.1 16.6,7.9 18.9,7.9 18.9,4.8 16.6,4.8 16.6,4 15,4 14.3,4 14.3,9.9 13.5,9.4 
			6.5,14 5.8,14 5.8,14.8 7.3,14.8 7.3,21 12,21 12,16.4 15,16.4 15,21 19.7,21 19.7,14.8 21.2,14.8 21.2,14 		"/>
	</g>
</g>
<g id="icons">
	<g>
		<polygon points="19.5,13 14,9.4 14,6.1 15.6,6.1 15.6,6.9 17.9,6.9 17.9,3.8 15.6,3.8 15.6,3 14,3 13.3,3 13.3,8.9 12.5,8.4 
			5.5,13 4.8,13 4.8,13.8 6.3,13.8 6.3,20 11,20 11,15.4 14,15.4 14,20 18.7,20 18.7,13.8 20.2,13.8 20.2,13 		"/>
	</g>
</g>
</svg>
