<?xml version="1.0" encoding="utf-8"?>
<!-- Generator: Adobe Illustrator 18.1.1, SVG Export Plug-In . SVG Version: 6.00 Build 0)  -->
<svg version="1.1" xmlns="http://www.w3.org/2000/svg" xmlns:xlink="http://www.w3.org/1999/xlink" x="0px" y="0px"
	 viewBox="0 0 18 18" enable-background="new 0 0 18 18" xml:space="preserve">
<g id="shadows">
	<g opacity="0.2">
		<path d="M3.8,8.3l1,0.2L5,8.7L4.2,10c-0.1,0.1-0.1,0.3-0.1,0.4c0,0.1,0,0.3,0.1,0.4c0,0,0.7,1.2,1.2,2.2c0-0.1,0.1-0.8,0.2-0.9
			l1.5-2.1l0.3,0.2l1,1L6.8,8.3H3.8z"/>
		<path d="M7,12c-0.1,0.2-0.6,1.1-0.6,1.1c-0.1,0.1-0.1,0.3-0.1,0.5s0,0.3,0.1,0.5c0.2,0.3,0.5,0.8,0.8,0.8c0,0,1.7,0,2.2,0
			c0-0.4,0-2.3,0-2.8C8.9,12,7.3,12,7,12L7,12z"/>
		<path d="M14.9,3.8L14,4.3l-0.3,0.2l-0.8-1.4c-0.1-0.1-0.2-0.2-0.3-0.3c-0.1-0.1-0.2-0.1-0.4-0.1c0,0-0.9,0-2,0
			c0.1,0.1-0.1,0.8,0,0.9h0.9l0.4,2l-0.3,0.2l-1,0.6h3.1L14.9,3.8z"/>
		<path d="M10.2,4.3c-0.1-0.2-0.9-0.6-0.9-0.6C9.2,3.5,9.5,3,9.3,2.9C9.2,2.8,9,2.8,8.8,2.8C8.5,2.8,8.2,2.9,8,3.2
			c0,0-1.3,2.3-1.5,2.7c0.4,0.2,1.8,1,2.2,1.2C8.9,6.7,10.1,4.6,10.2,4.3z"/>
		<path d="M12.1,15.7L12.1,15.7v-0.9h1.8c0.1,0,0.3,0.1,0.4,0c0.1-0.1,0.5,0.1,0.6,0c0,0,0.4-1.8,0.9-2.8c-0.1,0-0.3,0-0.4,0h-3.3
			v-0.5v-1.2L10.2,13L12.1,15.7z"/>
		<path d="M14.6,11.1c0.3,0,1.3,0,1.3,0c0.2,0,0.3,0,0.5-0.1c0.1-0.1,0.3-0.2,0.3-0.3c0.2-0.3,0.2-0.6,0-0.9c0,0-1.3-2.3-1.5-2.7
			c-0.4,0.2-1.8,1-2.2,1.2C13.2,8.7,14.4,10.9,14.6,11.1z"/>
	</g>
</g>
<g id="icons">
	<g>
		<path d="M3,7.6l1,0.2l0.3,0.2L3.4,9.3C3.4,9.4,3.3,9.5,3.3,9.7c0,0.1,0,0.3,0.1,0.4c0,0,0.7,1.2,1.2,2.2c0-0.1,0.1-0.8,0.2-0.9
			l1.5-2.1l0.3,0.2l1,1L6.1,7.6H3z"/>
		<path d="M6.2,11.3c-0.1,0.2-0.6,1.1-0.6,1.1c-0.1,0.1-0.1,0.3-0.1,0.5s0,0.3,0.1,0.5c0.2,0.3,0.5,0.8,0.8,0.8c0,0,1.7,0,2.2,0
			c0-0.4,0-2.3,0-2.8C8.1,11.3,6.5,11.3,6.2,11.3L6.2,11.3z"/>
		<path d="M14.1,3l-0.9,0.6L13,3.7l-0.8-1.4c-0.1-0.1-0.2-0.2-0.3-0.3C11.8,2,11.6,2,11.5,2c0,0-0.9,0-2,0c0.1,0.1-0.1,0.8,0,0.9
			h0.9l0.4,2l-0.3,0.2l-1,0.6h3.1L14.1,3z"/>
		<path d="M9.5,3.6C9.4,3.3,8.6,2.9,8.6,2.9c-0.1-0.1,0.1-0.7,0-0.8C8.4,2,8.2,2,8.1,2C7.7,2,7.4,2.2,7.3,2.5c0,0-1.3,2.3-1.5,2.7
			c0.4,0.2,1.8,1,2.2,1.2C8.1,6,9.4,3.8,9.5,3.6z"/>
		<path d="M11.4,15L11.4,15v-0.9h1.8c0.1,0,0.3,0.1,0.4,0c0.1-0.1,0.5,0.1,0.6,0c0,0,0.4-1.8,0.9-2.8c-0.1,0-0.3,0-0.4,0h-3.3v-0.5
			V9.6l-1.9,2.6L11.4,15z"/>
		<path d="M13.8,10.4c0.3,0,1.3,0,1.3,0c0.2,0,0.3,0,0.5-0.1c0.1-0.1,0.3-0.2,0.3-0.3C16,9.6,16,9.3,15.9,9c0,0-1.3-2.3-1.5-2.7
			c-0.4,0.2-1.8,1-2.2,1.2C12.4,7.9,13.7,10.1,13.8,10.4z"/>
	</g>
</g>
</svg>
