<?xml version="1.0" encoding="UTF-8" standalone="no"?>
<svg width="12px" height="12px" viewBox="0 0 12 12" version="1.1" xmlns="http://www.w3.org/2000/svg" xmlns:xlink="http://www.w3.org/1999/xlink" xmlns:sketch="http://www.bohemiancoding.com/sketch/ns">
    <!-- Generator: Sketch 3.2.2 (9983) - http://www.bohemiancoding.com/sketch -->
    <title>recycling-black-12</title>
    <desc>Created with Sketch.</desc>
    <defs></defs>
    <g id="Page-1" stroke="none" stroke-width="1" fill="none" fill-rule="evenodd" sketch:type="MSPage">
        <path d="M2,6.26115702 L2.72,6.41739945 L2.92470588,6.53813223 L2.33176471,7.57501377 C2.27529412,7.66733884 2.24705882,7.76676584 2.24705882,7.87329477 C2.24705882,7.97272176 2.27529412,8.07214876 2.33176471,8.16447383 C2.33176471,8.16447383 2.84705882,9.08062259 3.27764706,9.81212121 C3.30588235,9.71269421 3.35529412,9.20135537 3.41176471,9.10192837 L4.56235294,7.48979063 L4.76705882,7.60342149 L5.52941176,8.39173554 L4.33647059,6.26115702 L2,6.26115702" id="Fill-339" fill-opacity="0.1" fill="#0A0B09" sketch:type="MSShapeGroup"></path>
        <path d="M4.46352941,9.1090303 C4.35764706,9.28657851 3.98352941,9.94705785 3.98352941,9.94705785 C3.91294118,10.0535868 3.88470588,10.1814215 3.88470588,10.3021543 C3.88470588,10.4228871 3.91294118,10.5507218 3.97647059,10.6572507 C4.10352941,10.8774105 4.33647059,11.2396088 4.59058824,11.2325069 L6.23529412,11.2325069 L6.23529412,9.10192837 C5.87529412,9.1090303 4.67529412,9.1090303 4.46352941,9.1090303" id="Fill-340" fill-opacity="0.1" fill="#0A0B09" sketch:type="MSShapeGroup"></path>
        <path d="M10.4705882,2.77411019 L9.76470588,3.21442975 L9.56705882,3.33516253 L8.97411765,2.29828099 C8.91764706,2.20595592 8.84,2.12783471 8.75529412,2.07812121 C8.66352941,2.02130579 8.56470588,2 8.45882353,2 L6.94117647,2 C7.01176471,2.07812121 6.88470588,2.61786777 6.94117647,2.71019284 L7.64705882,2.71019284 L7.92235294,4.27971901 L7.72470588,4.40045179 L6.95529412,4.84077135 L9.34117647,4.84077135 L10.4705882,2.77411019" id="Fill-341" fill-opacity="0.1" fill="#0A0B09" sketch:type="MSShapeGroup"></path>
        <path d="M6.94117647,3.2002259 C6.83529412,3.02267769 6.23529412,2.71019284 6.23529412,2.71019284 C6.17176471,2.60366391 6.34117647,2.16334435 6.23529412,2.099427 C6.12941176,2.03550964 5.97411765,2.00710193 5.84705882,2 C5.6,2.00710193 5.36,2.14203857 5.24,2.36219835 C5.24,2.36219835 4.24470588,4.08796694 4.06117647,4.41465565 C4.35764706,4.58510193 5.40941176,5.19586777 5.70588235,5.35921212 C5.88235294,5.0538292 6.83529412,3.38487603 6.94117647,3.2002259" id="Fill-342" fill-opacity="0.1" fill="#0A0B09" sketch:type="MSShapeGroup"></path>
        <path d="M8.35294118,11.9426997 L8.35294118,11.2325069 L9.71529412,11.2325069 C9.82117647,11.2325069 9.92705882,11.2893223 10.0188235,11.2325069 C10.1035294,11.1827934 10.4211765,11.324832 10.4705882,11.2325069 C10.4705882,11.2325069 10.7529412,9.84052893 11.1764706,9.10192837 C11.0705882,9.13033609 10.9647059,9.10192837 10.8588235,9.10192837 L8.35294118,9.10192837 L8.35294118,7.79517355 L6.94117647,9.81212121 L8.35294118,11.9426997" id="Fill-343" fill-opacity="0.1" fill="#0A0B09" sketch:type="MSShapeGroup"></path>
        <path d="M10.2094118,8.39173554 L11.1764706,8.39173554 C11.3035294,8.39173554 11.4235294,8.36332782 11.5364706,8.29941047 C11.6352941,8.23549311 11.7270588,8.15026997 11.7905882,8.03663912 C11.9176471,7.81647934 11.9105882,7.54660606 11.7835294,7.33354821 C11.7835294,7.33354821 10.7952941,5.60067769 10.6117647,5.28109091 C10.3152941,5.45153719 9.26352941,6.06230303 8.97411765,6.23274931 C9.15058824,6.53813223 10.1035294,8.2070854 10.2094118,8.39173554" id="Fill-344" fill-opacity="0.1" fill="#0A0B09" sketch:type="MSShapeGroup"></path>
        <path d="M1,5.26115702 L1.72,5.41739945 L1.92470588,5.53813223 L1.33176471,6.57501377 C1.27529412,6.66733884 1.24705882,6.76676584 1.24705882,6.87329477 C1.24705882,6.97272176 1.27529412,7.07214876 1.33176471,7.16447383 C1.33176471,7.16447383 1.84705882,8.08062259 2.27764706,8.81212121 C2.30588235,8.71269421 2.35529412,8.20135537 2.41176471,8.10192837 L3.56235294,6.48979063 L3.76705882,6.60342149 L4.52941176,7.39173554 L3.33647059,5.26115702 L1,5.26115702" id="Fill-339" opacity="0.2" fill="#0A0B09" sketch:type="MSShapeGroup"></path>
        <path d="M3.46352941,8.1090303 C3.35764706,8.28657851 2.98352941,8.94705785 2.98352941,8.94705785 C2.91294118,9.05358678 2.88470588,9.18142149 2.88470588,9.30215427 C2.88470588,9.42288705 2.91294118,9.55072176 2.97647059,9.65725069 C3.10352941,9.87741047 3.33647059,10.2396088 3.59058824,10.2325069 L5.23529412,10.2325069 L5.23529412,8.10192837 C4.87529412,8.1090303 3.67529412,8.1090303 3.46352941,8.1090303" id="Fill-340" opacity="0.2" fill="#0A0B09" sketch:type="MSShapeGroup"></path>
        <path d="M9.47058824,1.77411019 L8.76470588,2.21442975 L8.56705882,2.33516253 L7.97411765,1.29828099 C7.91764706,1.20595592 7.84,1.12783471 7.75529412,1.07812121 C7.66352941,1.02130579 7.56470588,1 7.45882353,1 L5.94117647,1 C6.01176471,1.07812121 5.88470588,1.61786777 5.94117647,1.71019284 L6.64705882,1.71019284 L6.92235294,3.27971901 L6.72470588,3.40045179 L5.95529412,3.84077135 L8.34117647,3.84077135 L9.47058824,1.77411019" id="Fill-341" opacity="0.2" fill="#0A0B09" sketch:type="MSShapeGroup"></path>
        <path d="M5.94117647,2.2002259 C5.83529412,2.02267769 5.23529412,1.71019284 5.23529412,1.71019284 C5.17176471,1.60366391 5.34117647,1.16334435 5.23529412,1.099427 C5.12941176,1.03550964 4.97411765,1.00710193 4.84705882,1 C4.6,1.00710193 4.36,1.14203857 4.24,1.36219835 C4.24,1.36219835 3.24470588,3.08796694 3.06117647,3.41465565 C3.35764706,3.58510193 4.40941176,4.19586777 4.70588235,4.35921212 C4.88235294,4.0538292 5.83529412,2.38487603 5.94117647,2.2002259" id="Fill-342" opacity="0.2" fill="#0A0B09" sketch:type="MSShapeGroup"></path>
        <path d="M7.35294118,10.9426997 L7.35294118,10.2325069 L8.71529412,10.2325069 C8.82117647,10.2325069 8.92705882,10.2893223 9.01882353,10.2325069 C9.10352941,10.1827934 9.42117647,10.324832 9.47058824,10.2325069 C9.47058824,10.2325069 9.75294118,8.84052893 10.1764706,8.10192837 C10.0705882,8.13033609 9.96470588,8.10192837 9.85882353,8.10192837 L7.35294118,8.10192837 L7.35294118,6.79517355 L5.94117647,8.81212121 L7.35294118,10.9426997" id="Fill-343" opacity="0.2" fill="#0A0B09" sketch:type="MSShapeGroup"></path>
        <path d="M9.20941176,7.39173554 L10.1764706,7.39173554 C10.3035294,7.39173554 10.4235294,7.36332782 10.5364706,7.29941047 C10.6352941,7.23549311 10.7270588,7.15026997 10.7905882,7.03663912 C10.9176471,6.81647934 10.9105882,6.54660606 10.7835294,6.33354821 C10.7835294,6.33354821 9.79529412,4.60067769 9.61176471,4.28109091 C9.31529412,4.45153719 8.26352941,5.06230303 7.97411765,5.23274931 C8.15058824,5.53813223 9.10352941,7.2070854 9.20941176,7.39173554" id="Fill-344" opacity="0.2" fill="#0A0B09" sketch:type="MSShapeGroup"></path>
        <path d="M0,4.26115702 L0.72,4.41739945 L0.924705882,4.53813223 L0.331764706,5.57501377 C0.275294118,5.66733884 0.247058824,5.76676584 0.247058824,5.87329477 C0.247058824,5.97272176 0.275294118,6.07214876 0.331764706,6.16447383 C0.331764706,6.16447383 0.847058824,7.08062259 1.27764706,7.81212121 C1.30588235,7.71269421 1.35529412,7.20135537 1.41176471,7.10192837 L2.56235294,5.48979063 L2.76705882,5.60342149 L3.52941176,6.39173554 L2.33647059,4.26115702 L0,4.26115702" id="Fill-339" fill="#0A0B09" sketch:type="MSShapeGroup"></path>
        <path d="M2.46352941,7.1090303 C2.35764706,7.28657851 1.98352941,7.94705785 1.98352941,7.94705785 C1.91294118,8.05358678 1.88470588,8.18142149 1.88470588,8.30215427 C1.88470588,8.42288705 1.91294118,8.55072176 1.97647059,8.65725069 C2.10352941,8.87741047 2.33647059,9.23960882 2.59058824,9.23250689 L4.23529412,9.23250689 L4.23529412,7.10192837 C3.87529412,7.1090303 2.67529412,7.1090303 2.46352941,7.1090303" id="Fill-340" fill="#0A0B09" sketch:type="MSShapeGroup"></path>
        <path d="M8.47058824,0.774110193 L7.76470588,1.21442975 L7.56705882,1.33516253 L6.97411765,0.298280992 C6.91764706,0.205955923 6.84,0.127834711 6.75529412,0.0781212121 C6.66352941,0.0213057851 6.56470588,0 6.45882353,0 L4.94117647,0 C5.01176471,0.0781212121 4.88470588,0.617867769 4.94117647,0.710192837 L5.64705882,0.710192837 L5.92235294,2.27971901 L5.72470588,2.40045179 L4.95529412,2.84077135 L7.34117647,2.84077135 L8.47058824,0.774110193" id="Fill-341" fill="#0A0B09" sketch:type="MSShapeGroup"></path>
        <path d="M4.94117647,1.2002259 C4.83529412,1.02267769 4.23529412,0.710192837 4.23529412,0.710192837 C4.17176471,0.603663912 4.34117647,0.163344353 4.23529412,0.0994269972 C4.12941176,0.0355096419 3.97411765,0.00710192837 3.84705882,0 C3.6,0.00710192837 3.36,0.142038567 3.24,0.362198347 C3.24,0.362198347 2.24470588,2.08796694 2.06117647,2.41465565 C2.35764706,2.58510193 3.40941176,3.19586777 3.70588235,3.35921212 C3.88235294,3.0538292 4.83529412,1.38487603 4.94117647,1.2002259" id="Fill-342" fill="#0A0B09" sketch:type="MSShapeGroup"></path>
        <path d="M6.35294118,9.94269972 L6.35294118,9.23250689 L7.71529412,9.23250689 C7.82117647,9.23250689 7.92705882,9.28932231 8.01882353,9.23250689 C8.10352941,9.18279339 8.42117647,9.32483196 8.47058824,9.23250689 C8.47058824,9.23250689 8.75294118,7.84052893 9.17647059,7.10192837 C9.07058824,7.13033609 8.96470588,7.10192837 8.85882353,7.10192837 L6.35294118,7.10192837 L6.35294118,5.79517355 L4.94117647,7.81212121 L6.35294118,9.94269972" id="Fill-343" fill="#0A0B09" sketch:type="MSShapeGroup"></path>
        <path d="M8.20941176,6.39173554 L9.17647059,6.39173554 C9.30352941,6.39173554 9.42352941,6.36332782 9.53647059,6.29941047 C9.63529412,6.23549311 9.72705882,6.15026997 9.79058824,6.03663912 C9.91764706,5.81647934 9.91058824,5.54660606 9.78352941,5.33354821 C9.78352941,5.33354821 8.79529412,3.60067769 8.61176471,3.28109091 C8.31529412,3.45153719 7.26352941,4.06230303 6.97411765,4.23274931 C7.15058824,4.53813223 8.10352941,6.2070854 8.20941176,6.39173554" id="Fill-344" fill="#0A0B09" sketch:type="MSShapeGroup"></path>
    </g>
</svg>