<?xml version="1.0" encoding="utf-8"?>
<!-- Generator: Adobe Illustrator 18.1.1, SVG Export Plug-In . SVG Version: 6.00 Build 0)  -->
<svg version="1.1" xmlns="http://www.w3.org/2000/svg" xmlns:xlink="http://www.w3.org/1999/xlink" x="0px" y="0px"
	 viewBox="0 0 24 24" enable-background="new 0 0 24 24" xml:space="preserve">
<g id="shadows">
	<g opacity="0.2">
		<path d="M16.6,21v-1.1v-0.4h2.2c0.2,0,0.4,0,0.5-0.1c0.1-0.1,0.3-0.2,0.4-0.4c0,0,0.9-1.4,1.7-2.6c-0.2,0-4.7,0-4.7,0v-0.5v-1.5
			l-2.4,3.5L16.6,21z"/>
		<path d="M5,11.5l1.1,0.3L6.5,12l-0.6,2.1c-0.1,0.2-0.1,0.4-0.1,0.5c0,0.2,0.1,0.3,0.2,0.5c0,0,1.1,1.8,2.1,2.9v-1.5l0.8-1.5
			l0.6-1.9L9.9,13l1.5,0.4l-2.7-3.3L5,11.5z"/>
		<path d="M19,15.6c0.4,0,1.6,0,1.6,0c0.2,0,0.3,0.1,0.4,0c0.2-0.1,0.5-0.5,0.6-0.6c0.2-0.4,0.4-0.8,0.2-1.2c0,0-1.8-3-2.2-3.6
			c-0.5,0.3-1.8,1.4-2.3,1.7C17.7,12.4,18.9,15.3,19,15.6z"/>
		<path d="M19.9,5.5L19,6.1l-0.4,0.2l-1.1-1.8c-0.1-0.2-0.2-0.3-0.4-0.4C17,4.1,16.8,4,16.6,4c0,0-1.7-0.1-3.1,0C13.6,4.2,16,8,16,8
			l-0.4,0.3l-1.3,0.8l4.3,0.1L19.9,5.5z"/>
		<path d="M13.5,6.7c-0.2-0.3-0.9-1.4-0.9-1.4c-0.1-0.2,0-0.3-0.2-0.4c-0.2-0.1-0.7-0.2-0.9-0.2c-0.4,0-0.9,0.1-1.1,0.5
			c0,0-1.6,3.2-1.9,3.7c0.5,0.3,2.1,0.8,2.6,1.1C11.5,9.5,13.3,7,13.5,6.7z"/>
		<path d="M8.9,16.4c0.1,1,0,1.3,0,1.5c0,0.2-0.1,0.6,0,0.8c0.2,0.4,0.3,0.8,0.8,0.8c0,0,3.2,0,3.9,0c0-0.6,0-2.5,0-3.1
			C12.9,16.3,9.6,16.4,8.9,16.4z"/>
	</g>
</g>
<g id="icons">
	<g>
		<path fill="#FFFFFF" d="M15.6,20v-1.1v-0.4h2.2c0.2,0,0.4,0,0.5-0.1c0.1-0.1,0.3-0.2,0.4-0.4c0,0,0.9-1.4,1.7-2.6
			c-0.2,0-4.7,0-4.7,0v-0.5v-1.5l-2.4,3.5L15.6,20z"/>
		<path fill="#FFFFFF" d="M4,10.5l1.1,0.3L5.5,11l-0.6,2.1c-0.1,0.2-0.1,0.4-0.1,0.5c0,0.2,0.1,0.3,0.2,0.5c0,0,1.1,1.8,2.1,2.9
			v-1.5l0.8-1.5l0.6-1.9L8.9,12l1.5,0.4L7.7,9.2L4,10.5z"/>
		<path fill="#FFFFFF" d="M18,14.6c0.4,0,1.6,0,1.6,0c0.2,0,0.3,0.1,0.4,0c0.2-0.1,0.5-0.5,0.6-0.6c0.2-0.4,0.4-0.8,0.2-1.2
			c0,0-1.8-3-2.2-3.6c-0.5,0.3-1.8,1.4-2.3,1.7C16.7,11.4,17.9,14.3,18,14.6z"/>
		<path fill="#FFFFFF" d="M18.9,4.5L18,5.1l-0.4,0.2l-1.1-1.8c-0.1-0.2-0.2-0.3-0.4-0.4C16,3.1,15.8,3,15.6,3c0,0-1.7-0.1-3.1,0
			C12.6,3.2,15,7,15,7l-0.4,0.3l-1.3,0.8l4.3,0.1L18.9,4.5z"/>
		<path fill="#FFFFFF" d="M12.5,5.7c-0.2-0.3-0.9-1.4-0.9-1.4c-0.1-0.2,0-0.3-0.2-0.4c-0.2-0.1-0.7-0.2-0.9-0.2
			c-0.4,0-0.9,0.1-1.1,0.5c0,0-1.6,3.2-1.9,3.7c0.5,0.3,2.1,0.8,2.6,1.1C10.5,8.5,12.3,6,12.5,5.7z"/>
		<path fill="#FFFFFF" d="M7.9,15.4c0.1,1,0,1.3,0,1.5c0,0.2-0.1,0.6,0,0.8c0.2,0.4,0.3,0.8,0.8,0.8c0,0,3.2,0,3.9,0
			c0-0.6,0-2.5,0-3.1C11.9,15.3,8.6,15.4,7.9,15.4z"/>
	</g>
</g>
</svg>
