<?xml version="1.0" encoding="UTF-8" standalone="no"?>
<svg width="18px" height="18px" viewBox="0 0 18 18" version="1.1" xmlns="http://www.w3.org/2000/svg" xmlns:xlink="http://www.w3.org/1999/xlink" xmlns:sketch="http://www.bohemiancoding.com/sketch/ns">
    <!-- Generator: Sketch 3.2.2 (9983) - http://www.bohemiancoding.com/sketch -->
    <title>recycling-black-18</title>
    <desc>Created with Sketch.</desc>
    <defs></defs>
    <g id="Page-1" stroke="none" stroke-width="1" fill="none" fill-rule="evenodd" sketch:type="MSPage">
        <g id="Group" sketch:type="MSLayerGroup" transform="translate(1.199997, 2.000000)" fill="#0A0B09" opacity="0.1">
            <path d="M11.8518519,16.0559787 L11.8518519,14.5960494 L13.9111111,14.5960494 C14.0888889,14.5960494 14.2666667,14.5960494 14.4074074,14.5084536 C14.5555556,14.4281575 14.6740741,14.3113632 14.762963,14.1653702 C14.762963,14.1653702 15.6592593,12.8660331 16.3481481,11.6761906 C16.1777778,11.7126889 11.8518519,11.6761906 11.8518519,11.6761906 L11.8518519,9.74908388 L9.57777778,13.0996218 L11.8518519,16.0559787" id="Fill-333" sketch:type="MSShapeGroup"></path>
            <path d="M0.740740741,7.12851067 L1.74814815,7.42779619 L2.15555556,7.55189019 L1.56296296,9.49359624 C1.51111111,9.66148812 1.45925926,9.82938 1.5037037,9.98997223 C1.54074074,10.1505645 1.62222222,10.2965574 1.74074074,10.4206514 C1.74074074,10.4206514 2.74814815,12.143368 3.7037037,13.13612 L3.7037037,11.6761906 L4.44444444,10.2162613 L4.99259259,8.39864922 L5.47407407,8.53734251 L6.86666667,8.95342238 L4.27407407,5.83647318 L0.740740741,7.12851067" id="Fill-334" sketch:type="MSShapeGroup"></path>
            <path d="M14.2,10.946226 L15.7777778,10.946226 C15.9851852,10.946226 16.0222222,11.048421 16.2,10.946226 C16.3703704,10.8513306 16.6814815,10.5155468 16.7851852,10.3403553 C16.9925926,9.98267258 17.1481481,9.54469377 16.9407407,9.19431072 C16.9407407,9.19431072 15.1703704,6.36204775 14.8666667,5.83647318 C14.3851852,6.11385976 13.1185185,7.14310996 12.6444444,7.4131969 C12.9333333,7.91687253 14.0222222,10.6469404 14.2,10.946226" id="Fill-335" sketch:type="MSShapeGroup"></path>
            <path d="M15.0444444,1.44208579 L14.1481481,1.99685895 L13.7925926,2.21584835 L12.6888889,0.500431344 C12.6,0.347138761 12.5037037,0.208445471 12.3555556,0.135449002 C12.2074074,0.0551528872 12.037037,0.018654653 11.8666667,0.0259542999 C11.8666667,0.0259542999 10.2740741,-0.0324428748 8.88888889,0.0259542999 C9.01481481,0.150048296 11.2814815,3.77067313 11.2814815,3.77067313 L10.8592593,4.03346041 L9.62962963,4.79992333 L13.7185185,4.91671768 L15.0444444,1.44208579" id="Fill-336" sketch:type="MSShapeGroup"></path>
            <path d="M8.88888889,2.55893175 C8.71111111,2.27424553 8.05185185,1.24499532 8.05185185,1.24499532 C7.94074074,1.0698038 8.00740741,0.982208035 7.82222222,0.894612273 C7.64444444,0.799716864 7.2,0.719420749 6.98518519,0.726720396 C6.57037037,0.748619337 6.11111111,0.850814392 5.91851852,1.21579673 C5.91851852,1.21579673 4.43703704,4.19405264 4.14814815,4.72692686 C4.64444444,4.9824145 6.2,5.48609013 6.68888889,5.74157777 C6.96296296,5.23790214 8.72592593,2.87281657 8.88888889,2.55893175" id="Fill-337" sketch:type="MSShapeGroup"></path>
            <path d="M4.44444444,11.6761906 C4.5037037,12.6543433 4.44444444,12.9390296 4.43703704,13.13612 C4.42962963,13.3332105 4.34814815,13.6835935 4.44444444,13.8660847 C4.63703704,14.231067 4.76296296,14.5814501 5.17777778,14.5960494 C5.17777778,14.5960494 8.27407407,14.5668508 8.88148148,14.5960494 C8.9037037,14.0485759 8.85925926,12.2236642 8.88148148,11.6761906 C8.3037037,11.6469921 5.18518519,11.7418875 4.44444444,11.6761906" id="Fill-338" sketch:type="MSShapeGroup"></path>
        </g>
        <g id="Group" sketch:type="MSLayerGroup" transform="translate(0.199997, 1.000000)" fill="#0A0B09" opacity="0.2">
            <path d="M11.8518519,16.0559787 L11.8518519,14.5960494 L13.9111111,14.5960494 C14.0888889,14.5960494 14.2666667,14.5960494 14.4074074,14.5084536 C14.5555556,14.4281575 14.6740741,14.3113632 14.762963,14.1653702 C14.762963,14.1653702 15.6592593,12.8660331 16.3481481,11.6761906 C16.1777778,11.7126889 11.8518519,11.6761906 11.8518519,11.6761906 L11.8518519,9.74908388 L9.57777778,13.0996218 L11.8518519,16.0559787" id="Fill-333" sketch:type="MSShapeGroup"></path>
            <path d="M0.740740741,7.12851067 L1.74814815,7.42779619 L2.15555556,7.55189019 L1.56296296,9.49359624 C1.51111111,9.66148812 1.45925926,9.82938 1.5037037,9.98997223 C1.54074074,10.1505645 1.62222222,10.2965574 1.74074074,10.4206514 C1.74074074,10.4206514 2.74814815,12.143368 3.7037037,13.13612 L3.7037037,11.6761906 L4.44444444,10.2162613 L4.99259259,8.39864922 L5.47407407,8.53734251 L6.86666667,8.95342238 L4.27407407,5.83647318 L0.740740741,7.12851067" id="Fill-334" sketch:type="MSShapeGroup"></path>
            <path d="M14.2,10.946226 L15.7777778,10.946226 C15.9851852,10.946226 16.0222222,11.048421 16.2,10.946226 C16.3703704,10.8513306 16.6814815,10.5155468 16.7851852,10.3403553 C16.9925926,9.98267258 17.1481481,9.54469377 16.9407407,9.19431072 C16.9407407,9.19431072 15.1703704,6.36204775 14.8666667,5.83647318 C14.3851852,6.11385976 13.1185185,7.14310996 12.6444444,7.4131969 C12.9333333,7.91687253 14.0222222,10.6469404 14.2,10.946226" id="Fill-335" sketch:type="MSShapeGroup"></path>
            <path d="M15.0444444,1.44208579 L14.1481481,1.99685895 L13.7925926,2.21584835 L12.6888889,0.500431344 C12.6,0.347138761 12.5037037,0.208445471 12.3555556,0.135449002 C12.2074074,0.0551528872 12.037037,0.018654653 11.8666667,0.0259542999 C11.8666667,0.0259542999 10.2740741,-0.0324428748 8.88888889,0.0259542999 C9.01481481,0.150048296 11.2814815,3.77067313 11.2814815,3.77067313 L10.8592593,4.03346041 L9.62962963,4.79992333 L13.7185185,4.91671768 L15.0444444,1.44208579" id="Fill-336" sketch:type="MSShapeGroup"></path>
            <path d="M8.88888889,2.55893175 C8.71111111,2.27424553 8.05185185,1.24499532 8.05185185,1.24499532 C7.94074074,1.0698038 8.00740741,0.982208035 7.82222222,0.894612273 C7.64444444,0.799716864 7.2,0.719420749 6.98518519,0.726720396 C6.57037037,0.748619337 6.11111111,0.850814392 5.91851852,1.21579673 C5.91851852,1.21579673 4.43703704,4.19405264 4.14814815,4.72692686 C4.64444444,4.9824145 6.2,5.48609013 6.68888889,5.74157777 C6.96296296,5.23790214 8.72592593,2.87281657 8.88888889,2.55893175" id="Fill-337" sketch:type="MSShapeGroup"></path>
            <path d="M4.44444444,11.6761906 C4.5037037,12.6543433 4.44444444,12.9390296 4.43703704,13.13612 C4.42962963,13.3332105 4.34814815,13.6835935 4.44444444,13.8660847 C4.63703704,14.231067 4.76296296,14.5814501 5.17777778,14.5960494 C5.17777778,14.5960494 8.27407407,14.5668508 8.88148148,14.5960494 C8.9037037,14.0485759 8.85925926,12.2236642 8.88148148,11.6761906 C8.3037037,11.6469921 5.18518519,11.7418875 4.44444444,11.6761906" id="Fill-338" sketch:type="MSShapeGroup"></path>
        </g>
        <g id="Group" sketch:type="MSLayerGroup" transform="translate(-0.800003, 0.000000)" fill="#0A0B09">
            <path d="M11.8518519,16.0559787 L11.8518519,14.5960494 L13.9111111,14.5960494 C14.0888889,14.5960494 14.2666667,14.5960494 14.4074074,14.5084536 C14.5555556,14.4281575 14.6740741,14.3113632 14.762963,14.1653702 C14.762963,14.1653702 15.6592593,12.8660331 16.3481481,11.6761906 C16.1777778,11.7126889 11.8518519,11.6761906 11.8518519,11.6761906 L11.8518519,9.74908388 L9.57777778,13.0996218 L11.8518519,16.0559787" id="Fill-333" sketch:type="MSShapeGroup"></path>
            <path d="M0.740740741,7.12851067 L1.74814815,7.42779619 L2.15555556,7.55189019 L1.56296296,9.49359624 C1.51111111,9.66148812 1.45925926,9.82938 1.5037037,9.98997223 C1.54074074,10.1505645 1.62222222,10.2965574 1.74074074,10.4206514 C1.74074074,10.4206514 2.74814815,12.143368 3.7037037,13.13612 L3.7037037,11.6761906 L4.44444444,10.2162613 L4.99259259,8.39864922 L5.47407407,8.53734251 L6.86666667,8.95342238 L4.27407407,5.83647318 L0.740740741,7.12851067" id="Fill-334" sketch:type="MSShapeGroup"></path>
            <path d="M14.2,10.946226 L15.7777778,10.946226 C15.9851852,10.946226 16.0222222,11.048421 16.2,10.946226 C16.3703704,10.8513306 16.6814815,10.5155468 16.7851852,10.3403553 C16.9925926,9.98267258 17.1481481,9.54469377 16.9407407,9.19431072 C16.9407407,9.19431072 15.1703704,6.36204775 14.8666667,5.83647318 C14.3851852,6.11385976 13.1185185,7.14310996 12.6444444,7.4131969 C12.9333333,7.91687253 14.0222222,10.6469404 14.2,10.946226" id="Fill-335" sketch:type="MSShapeGroup"></path>
            <path d="M15.0444444,1.44208579 L14.1481481,1.99685895 L13.7925926,2.21584835 L12.6888889,0.500431344 C12.6,0.347138761 12.5037037,0.208445471 12.3555556,0.135449002 C12.2074074,0.0551528872 12.037037,0.018654653 11.8666667,0.0259542999 C11.8666667,0.0259542999 10.2740741,-0.0324428748 8.88888889,0.0259542999 C9.01481481,0.150048296 11.2814815,3.77067313 11.2814815,3.77067313 L10.8592593,4.03346041 L9.62962963,4.79992333 L13.7185185,4.91671768 L15.0444444,1.44208579" id="Fill-336" sketch:type="MSShapeGroup"></path>
            <path d="M8.88888889,2.55893175 C8.71111111,2.27424553 8.05185185,1.24499532 8.05185185,1.24499532 C7.94074074,1.0698038 8.00740741,0.982208035 7.82222222,0.894612273 C7.64444444,0.799716864 7.2,0.719420749 6.98518519,0.726720396 C6.57037037,0.748619337 6.11111111,0.850814392 5.91851852,1.21579673 C5.91851852,1.21579673 4.43703704,4.19405264 4.14814815,4.72692686 C4.64444444,4.9824145 6.2,5.48609013 6.68888889,5.74157777 C6.96296296,5.23790214 8.72592593,2.87281657 8.88888889,2.55893175" id="Fill-337" sketch:type="MSShapeGroup"></path>
            <path d="M4.44444444,11.6761906 C4.5037037,12.6543433 4.44444444,12.9390296 4.43703704,13.13612 C4.42962963,13.3332105 4.34814815,13.6835935 4.44444444,13.8660847 C4.63703704,14.231067 4.76296296,14.5814501 5.17777778,14.5960494 C5.17777778,14.5960494 8.27407407,14.5668508 8.88148148,14.5960494 C8.9037037,14.0485759 8.85925926,12.2236642 8.88148148,11.6761906 C8.3037037,11.6469921 5.18518519,11.7418875 4.44444444,11.6761906" id="Fill-338" sketch:type="MSShapeGroup"></path>
        </g>
    </g>
</svg>