<?xml version="1.0" encoding="utf-8"?>
<!-- Generator: Adobe Illustrator 18.0.0, SVG Export Plug-In . SVG Version: 6.00 Build 0)  -->
<!DOCTYPE svg PUBLIC "-//W3C//DTD SVG 1.1//EN" "http://www.w3.org/Graphics/SVG/1.1/DTD/svg11.dtd" [
	<!ENTITY ns_flows "http://ns.adobe.com/Flows/1.0/">
	<!ENTITY ns_extend "http://ns.adobe.com/Extensibility/1.0/">
	<!ENTITY ns_ai "http://ns.adobe.com/AdobeIllustrator/10.0/">
	<!ENTITY ns_graphs "http://ns.adobe.com/Graphs/1.0/">
	<!ENTITY st0 "opacity:0.1;">
	<!ENTITY st1 "fill:#010101;">
	<!ENTITY st2 "opacity:0.2;">
]>
<svg version="1.1" id="Layer_1" xmlns:x="&ns_extend;" xmlns:i="&ns_ai;" xmlns:graph="&ns_graphs;"
	 xmlns="http://www.w3.org/2000/svg" xmlns:xlink="http://www.w3.org/1999/xlink" xmlns:a="http://ns.adobe.com/AdobeSVGViewerExtensions/3.0/"
	 x="0px" y="0px" width="24px" height="24px" viewBox="0 0 24 24" style="enable-background:new 0 0 24 24;" xml:space="preserve">
<g style="&st0;">
	<path style="&st1;" d="M17,24v-1.4V22h2.8c0.2,0,0.5,0,0.7-0.1c0.2-0.1,0.4-0.3,0.5-0.5c0,0,1.2-1.8,2.1-3.4c-0.2,0.1-6.1,0-6.1,0
		v-0.7v-2l-3.1,4.6L17,24z"/>
	<path style="&st1;" d="M2,11.8l1.4,0.4l0.5,0.2L3.1,15C3,15.2,3,15.5,3,15.7c0.1,0.2,0.2,0.4,0.3,0.6c0,0,1.4,2.4,2.7,3.7v-2l1-2
		l0.7-2.5l0.6,0.2l1.9,0.6L6.8,10L2,11.8z"/>
	<path style="&st1;" d="M20.2,17c0.5,0,2.1,0,2.1,0c0.3,0,0.3,0.1,0.6,0c0.2-0.1,0.6-0.6,0.8-0.8c0.3-0.5,0.5-1.1,0.2-1.6
		c0,0-2.4-3.9-2.8-4.6c-0.6,0.4-2.4,1.8-3,2.2C18.5,12.8,19.9,16.6,20.2,17z"/>
	<path style="&st1;" d="M21.3,4l-1.2,0.8L19.6,5l-1.5-2.4c-0.1-0.2-0.3-0.4-0.5-0.5C17.5,2.1,17.3,2,17,2c0,0-2.1-0.1-4,0
		c0.2,0.2,3.2,5.1,3.2,5.1l-0.6,0.4l-1.7,1l5.5,0.2L21.3,4z"/>
	<path style="&st1;" d="M13,5.5c-0.2-0.4-1.1-1.8-1.1-1.8c-0.2-0.2-0.1-0.4-0.3-0.5C11.3,3.1,10.7,3,10.4,3C9.9,3,9.3,3.2,9,3.7
		c0,0-2,4.1-2.4,4.8c0.7,0.3,2.8,1,3.4,1.4C10.4,9.2,12.8,5.9,13,5.5z"/>
	<path style="&st1;" d="M7,18c0.1,1.3,0,1.7,0,2c0,0.3-0.1,0.7,0,1c0.3,0.5,0.4,1,1,1c0,0,4.2,0,5,0c0-0.8,0-3.3,0-4
		C12.2,18,8,18.1,7,18z"/>
</g>
<g style="&st2;">
	<path style="&st1;" d="M16,23v-1.4V21h2.8c0.2,0,0.5,0,0.7-0.1c0.2-0.1,0.4-0.3,0.5-0.5c0,0,1.2-1.8,2.1-3.4c-0.2,0.1-6.1,0-6.1,0
		v-0.7v-2l-3.1,4.6L16,23z"/>
	<path style="&st1;" d="M1,10.8l1.4,0.4l0.5,0.2L2.1,14C2,14.2,2,14.5,2,14.7c0.1,0.2,0.2,0.4,0.3,0.6c0,0,1.4,2.4,2.7,3.7v-2l1-2
		l0.7-2.5l0.6,0.2l1.9,0.6L5.8,9L1,10.8z"/>
	<path style="&st1;" d="M19.2,16c0.5,0,2.1,0,2.1,0c0.3,0,0.3,0.1,0.6,0c0.2-0.1,0.6-0.6,0.8-0.8c0.3-0.5,0.5-1.1,0.2-1.6
		c0,0-2.4-3.9-2.8-4.6c-0.6,0.4-2.4,1.8-3,2.2C17.5,11.8,18.9,15.6,19.2,16z"/>
	<path style="&st1;" d="M20.3,3l-1.2,0.8L18.6,4l-1.5-2.4c-0.1-0.2-0.3-0.4-0.5-0.5C16.5,1.1,16.3,1,16,1c0,0-2.1-0.1-4,0
		c0.2,0.2,3.2,5.1,3.2,5.1l-0.6,0.4l-1.7,1l5.5,0.2L20.3,3z"/>
	<path style="&st1;" d="M12,4.5c-0.2-0.4-1.1-1.8-1.1-1.8c-0.2-0.2-0.1-0.4-0.3-0.5C10.3,2.1,9.7,2,9.4,2C8.9,2,8.3,2.2,8,2.7
		c0,0-2,4.1-2.4,4.8c0.7,0.3,2.8,1,3.4,1.4C9.4,8.2,11.8,4.9,12,4.5z"/>
	<path style="&st1;" d="M6,17c0.1,1.3,0,1.7,0,2c0,0.3-0.1,0.7,0,1c0.3,0.5,0.4,1,1,1c0,0,4.2,0,5,0c0-0.8,0-3.3,0-4
		C11.2,17,7,17.1,6,17z"/>
</g>
<g>
	<path style="&st1;" d="M15,22v-1.4V20h2.8c0.2,0,0.5,0,0.7-0.1c0.2-0.1,0.4-0.3,0.5-0.5c0,0,1.2-1.8,2.1-3.4c-0.2,0.1-6.1,0-6.1,0
		v-0.7v-2l-3.1,4.6L15,22z"/>
	<path style="&st1;" d="M0,9.8l1.4,0.4l0.5,0.2L1.1,13C1,13.2,1,13.5,1,13.7c0.1,0.2,0.2,0.4,0.3,0.6c0,0,1.4,2.4,2.7,3.7v-2l1-2
		l0.7-2.5l0.6,0.2l1.9,0.6L4.8,8L0,9.8z"/>
	<path style="&st1;" d="M18.2,15c0.5,0,2.1,0,2.1,0c0.3,0,0.3,0.1,0.6,0c0.2-0.1,0.6-0.6,0.8-0.8c0.3-0.5,0.5-1.1,0.2-1.6
		c0,0-2.4-3.9-2.8-4.6c-0.6,0.4-2.4,1.8-3,2.2C16.5,10.8,17.9,14.6,18.2,15z"/>
	<path style="&st1;" d="M19.3,2l-1.2,0.8L17.6,3l-1.5-2.4c-0.1-0.2-0.3-0.4-0.5-0.5C15.5,0.1,15.3,0,15,0c0,0-2.1-0.1-4,0
		c0.2,0.2,3.2,5.1,3.2,5.1l-0.6,0.4l-1.7,1l5.5,0.2L19.3,2z"/>
	<path style="&st1;" d="M11,3.5c-0.2-0.4-1.1-1.8-1.1-1.8C9.7,1.5,9.8,1.4,9.6,1.2C9.3,1.1,8.7,1,8.4,1C7.9,1,7.3,1.2,7,1.7
		c0,0-2,4.1-2.4,4.8c0.7,0.3,2.8,1,3.4,1.4C8.4,7.2,10.8,3.9,11,3.5z"/>
	<path style="&st1;" d="M5,16c0.1,1.3,0,1.7,0,2c0,0.3-0.1,0.7,0,1c0.3,0.5,0.4,1,1,1c0,0,4.2,0,5,0c0-0.8,0-3.3,0-4
		C10.2,16,6,16.1,5,16z"/>
</g>
</svg>
