<?xml version="1.0" encoding="utf-8"?>
<!-- Generator: Adobe Illustrator 18.1.1, SVG Export Plug-In . SVG Version: 6.00 Build 0)  -->
<svg version="1.1" xmlns="http://www.w3.org/2000/svg" xmlns:xlink="http://www.w3.org/1999/xlink" x="0px" y="0px"
	 viewBox="0 0 12 12" enable-background="new 0 0 12 12" xml:space="preserve">
<g id="shadows">
	<g opacity="0.2">
		<path d="M2.5,5.357l0.658,0.139l0.185,0.108L2.802,6.541C2.752,6.626,2.728,6.72,2.728,6.814c0,0.091,0.023,0.183,0.073,0.266
			c0,0,0.474,0.825,0.86,1.492c0.028-0.094,0.076-0.556,0.125-0.643l1.05-1.462l0.182,0.106l0.697,0.714L4.63,5.357H2.5z"/>
		<path d="M4.742,7.931C4.647,8.094,4.303,8.689,4.303,8.689C4.242,8.79,4.214,8.903,4.214,9.014s0.028,0.222,0.087,0.32
			C4.415,9.534,4.628,9.86,4.86,9.857c0,0,1.161,0,1.498,0c0-0.307,0-1.619,0-1.929C6.032,7.931,4.939,7.931,4.742,7.931
			L4.742,7.931z"/>
		<path d="M10.214,2.197L9.574,2.599L9.389,2.707l-0.54-0.94c-0.048-0.084-0.119-0.154-0.198-0.2C8.572,1.519,8.48,1.5,8.384,1.5
			c0,0-0.613,0-1.384,0c0.067,0.072-0.049,0.556,0,0.643h0.643l0.253,1.419L7.714,3.67L7.016,4.071h2.167L10.214,2.197z"/>
		<path d="M7,2.585C6.906,2.422,6.357,2.143,6.357,2.143c-0.059-0.101,0.097-0.498,0-0.556C6.261,1.532,6.12,1.503,6.006,1.5
			C5.777,1.503,5.563,1.626,5.451,1.827c0,0-0.904,1.561-1.073,1.854C4.647,3.835,5.605,4.388,5.872,4.54
			C6.033,4.26,6.903,2.754,7,2.585z"/>
		<path d="M8.286,10.5L8.286,10.5V9.857h1.241c0.099,0,0.195,0.048,0.275,0c0.08-0.046,0.366,0.082,0.413,0
			c0,0,0.26-1.262,0.643-1.929c-0.094,0.021-0.191,0-0.29,0H8.286V7.55V6.745L7,8.571L8.286,10.5z"/>
		<path d="M9.979,7.286c0.189,0,0.875,0,0.875,0c0.116,0,0.23-0.029,0.329-0.087c0.095-0.055,0.175-0.132,0.234-0.234
			c0.114-0.199,0.111-0.444-0.005-0.642c0,0-0.901-1.563-1.07-1.856C10.075,4.623,9.115,5.176,8.85,5.328
			C9.01,5.608,9.88,7.116,9.979,7.286z"/>
	</g>
</g>
<g id="icons">
	<g>
		<path fill="#FFFFFF" d="M2,4.857l0.658,0.139l0.185,0.108L2.302,6.041C2.252,6.126,2.228,6.22,2.228,6.314
			c0,0.091,0.023,0.183,0.073,0.266c0,0,0.474,0.825,0.86,1.492c0.028-0.094,0.076-0.556,0.125-0.643l1.05-1.462l0.182,0.106
			l0.697,0.714L4.13,4.857H2z"/>
		<path fill="#FFFFFF" d="M4.242,7.431C4.147,7.594,3.803,8.189,3.803,8.189C3.742,8.29,3.714,8.403,3.714,8.514
			s0.028,0.222,0.087,0.32C3.915,9.034,4.128,9.36,4.36,9.357c0,0,1.161,0,1.498,0c0-0.307,0-1.619,0-1.929
			C5.532,7.431,4.439,7.431,4.242,7.431L4.242,7.431z"/>
		<path fill="#FFFFFF" d="M9.714,1.697L9.074,2.099L8.889,2.207l-0.54-0.94c-0.048-0.084-0.119-0.154-0.198-0.2
			C8.072,1.019,7.98,1,7.884,1c0,0-0.613,0-1.384,0c0.067,0.072-0.049,0.556,0,0.643h0.643l0.253,1.419L7.214,3.17L6.516,3.571
			h2.167L9.714,1.697z"/>
		<path fill="#FFFFFF" d="M6.5,2.085C6.406,1.922,5.857,1.643,5.857,1.643c-0.059-0.101,0.097-0.498,0-0.556
			C5.761,1.032,5.62,1.003,5.506,1C5.277,1.003,5.063,1.126,4.951,1.327c0,0-0.904,1.561-1.073,1.854
			C4.147,3.335,5.105,3.888,5.372,4.04C5.533,3.76,6.403,2.254,6.5,2.085z"/>
		<path fill="#FFFFFF" d="M7.786,10L7.786,10V9.357h1.241c0.099,0,0.195,0.048,0.275,0c0.08-0.046,0.366,0.082,0.413,0
			c0,0,0.26-1.262,0.643-1.929c-0.094,0.021-0.191,0-0.29,0H7.786V7.05V6.245L6.5,8.071L7.786,10z"/>
		<path fill="#FFFFFF" d="M9.479,6.786c0.189,0,0.875,0,0.875,0c0.116,0,0.23-0.029,0.329-0.087
			c0.095-0.055,0.175-0.132,0.234-0.234c0.114-0.199,0.111-0.444-0.005-0.642c0,0-0.901-1.563-1.07-1.856
			C9.575,4.123,8.615,4.676,8.35,4.828C8.51,5.108,9.38,6.616,9.479,6.786z"/>
	</g>
</g>
</svg>
