<?xml version="1.0" encoding="UTF-8" standalone="no"?>
<!-- Created with Inkscape (http://www.inkscape.org/) -->

<svg
   xmlns:dc="http://purl.org/dc/elements/1.1/"
   xmlns:cc="http://creativecommons.org/ns#"
   xmlns:rdf="http://www.w3.org/1999/02/22-rdf-syntax-ns#"
   xmlns:svg="http://www.w3.org/2000/svg"
   xmlns="http://www.w3.org/2000/svg"
   xmlns:sodipodi="http://sodipodi.sourceforge.net/DTD/sodipodi-0.dtd"
   xmlns:inkscape="http://www.inkscape.org/namespaces/inkscape"
   width="18"
   height="18"
   id="svg27435"
   version="1.1"
   inkscape:version="0.48.2 r9819"
   sodipodi:docname="recycling-black-18.svg">
  <defs
     id="defs27437" />
  <sodipodi:namedview
     id="base"
     pagecolor="#ffa6ff"
     bordercolor="#666666"
     borderopacity="1.0"
     inkscape:pageopacity="0"
     inkscape:pageshadow="2"
     inkscape:zoom="7.9891803"
     inkscape:cx="12.590799"
     inkscape:cy="8.9588378"
     inkscape:document-units="px"
     inkscape:current-layer="layer1"
     showgrid="false"
     inkscape:window-width="483"
     inkscape:window-height="454"
     inkscape:window-x="3161"
     inkscape:window-y="149"
     inkscape:window-maximized="0">
    <inkscape:grid
       type="xygrid"
       id="grid2986" />
  </sodipodi:namedview>
  <metadata
     id="metadata27440">
    <rdf:RDF>
      <cc:Work
         rdf:about="">
        <dc:format>image/svg+xml</dc:format>
        <dc:type
           rdf:resource="http://purl.org/dc/dcmitype/StillImage" />
        <dc:title></dc:title>
      </cc:Work>
    </rdf:RDF>
  </metadata>
  <g
     inkscape:label="Layer 1"
     inkscape:groupmode="layer"
     id="layer1"
     transform="translate(0,-1034.3622)">
    <g
       transform="matrix(1.8209408,0,0,1.8209408,-837.70482,797.08689)"
       id="g15460">
      <path
         style="opacity:0;fill:#272525"
         inkscape:connector-curvature="0"
         id="path15462"
         d="m 468.818,140.182 c 0.652,0 1.182,-0.529 1.182,-1.182 v -7.521 c 0,-0.652 -0.529,-1.182 -1.182,-1.182 h -7.521 c -0.652,0 -1.182,0.529 -1.182,1.182 V 139 c 0,0.652 0.529,1.182 1.182,1.182 h 7.521 z" />
      <g
         id="g15464"
         style="opacity:0.6;fill:none;stroke:#1b1b1c;stroke-width:0.5;stroke-miterlimit:4;stroke-opacity:1;stroke-dasharray:none"
         transform="translate(438.404,-364.355)">
        <path
           style="fill:none;stroke:#1b1b1c;stroke-width:0.5;stroke-miterlimit:4;stroke-opacity:1;stroke-dasharray:none"
           inkscape:connector-curvature="0"
           id="path15466"
           d="m 22.719,499.012 0.593,0.342 0.158,0.092 -0.462,0.799 c -0.042,0.072 -0.063,0.152 -0.063,0.232 0,0.078 0.02,0.156 0.062,0.227 0,0 0.404,0.703 0.733,1.271 0.024,-0.08 0.055,-0.158 0.097,-0.232 l 0.904,-1.562 0.155,0.09 0.594,0.344 -0.924,-1.6 -1.847,-0.003 z" />
        <path
           style="fill:none;stroke:#1b1b1c;stroke-width:0.5;stroke-miterlimit:4;stroke-opacity:1;stroke-dasharray:none"
           inkscape:connector-curvature="0"
           id="path15468"
           d="m 24.486,501.25 c -0.081,0.139 -0.374,0.646 -0.374,0.646 -0.052,0.086 -0.076,0.182 -0.076,0.277 0,0.095 0.024,0.189 0.074,0.273 0.097,0.17 0.279,0.273 0.476,0.271 0,0 1.537,0 1.824,0 0,-0.262 0,-1.205 0,-1.469 -0.277,0.002 -1.756,0.002 -1.924,0.002 z" />
        <path
           style="fill:none;stroke:#1b1b1c;stroke-width:0.5;stroke-miterlimit:4;stroke-opacity:1;stroke-dasharray:none"
           inkscape:connector-curvature="0"
           id="path15470"
           d="m 29.341,496.652 -0.594,0.342 -0.157,0.092 -0.46,-0.801 c -0.041,-0.072 -0.101,-0.131 -0.169,-0.17 -0.068,-0.041 -0.146,-0.061 -0.228,-0.061 0,0 -0.812,0 -1.469,0 0.057,0.061 0.109,0.125 0.151,0.199 l 0.902,1.562 -0.155,0.092 -0.595,0.342 h 1.847 l 0.927,-1.597 z" />
        <path
           style="fill:none;stroke:#1b1b1c;stroke-width:0.5;stroke-miterlimit:4;stroke-opacity:1;stroke-dasharray:none"
           inkscape:connector-curvature="0"
           id="path15472"
           d="m 26.519,497.061 c -0.08,-0.139 -0.372,-0.646 -0.372,-0.646 -0.05,-0.086 -0.12,-0.156 -0.203,-0.205 -0.082,-0.047 -0.175,-0.072 -0.272,-0.074 -0.195,0.002 -0.378,0.107 -0.473,0.279 0,0 -0.77,1.33 -0.914,1.58 0.229,0.131 1.045,0.602 1.273,0.732 0.137,-0.239 0.878,-1.522 0.961,-1.666 z" />
        <path
           style="fill:none;stroke:#1b1b1c;stroke-width:0.5;stroke-miterlimit:4;stroke-opacity:1;stroke-dasharray:none"
           inkscape:connector-curvature="0"
           id="path15474"
           d="m 28.036,503.562 v -0.684 -0.182 l 0.921,0.002 c 0.084,0 0.166,-0.021 0.234,-0.062 0.068,-0.039 0.127,-0.096 0.167,-0.166 0,0 0.407,-0.703 0.733,-1.271 -0.08,0.018 -0.163,0.033 -0.247,0.033 l -1.807,-0.002 v -0.182 l 0.002,-0.686 -0.926,1.6 0.923,1.6 z" />
        <path
           style="fill:none;stroke:#1b1b1c;stroke-width:0.5;stroke-miterlimit:4;stroke-opacity:1;stroke-dasharray:none"
           inkscape:connector-curvature="0"
           id="path15476"
           d="m 29.092,500.916 c 0.161,0 0.746,0 0.746,0 0.099,0 0.196,-0.025 0.28,-0.074 0.081,-0.047 0.149,-0.113 0.199,-0.199 0.097,-0.17 0.095,-0.379 -0.004,-0.547 0,0 -0.768,-1.332 -0.912,-1.582 -0.227,0.133 -1.045,0.604 -1.271,0.734 0.137,0.238 0.878,1.523 0.962,1.668 z" />
      </g>
      <g
         id="g15478"
         transform="translate(438.404,-364.355)"
         style="fill:#ffffff;fill-opacity:1">
        <path
           d="m 22.719,499.012 0.593,0.342 0.158,0.092 -0.462,0.799 c -0.042,0.072 -0.063,0.152 -0.063,0.232 0,0.078 0.02,0.156 0.062,0.227 0,0 0.404,0.703 0.733,1.271 0.024,-0.08 0.055,-0.158 0.097,-0.232 l 0.904,-1.562 0.155,0.09 0.594,0.344 -0.924,-1.6 -1.847,-0.003 z"
           id="path15480"
           inkscape:connector-curvature="0"
           style="fill:#ffffff;fill-opacity:1" />
        <path
           d="m 24.486,501.25 c -0.081,0.139 -0.374,0.646 -0.374,0.646 -0.052,0.086 -0.076,0.182 -0.076,0.277 0,0.095 0.024,0.189 0.074,0.273 0.097,0.17 0.279,0.273 0.476,0.271 0,0 1.537,0 1.824,0 0,-0.262 0,-1.205 0,-1.469 -0.277,0.002 -1.756,0.002 -1.924,0.002 z"
           id="path15482"
           inkscape:connector-curvature="0"
           style="fill:#ffffff;fill-opacity:1" />
        <path
           d="m 29.341,496.652 -0.594,0.342 -0.157,0.092 -0.46,-0.801 c -0.041,-0.072 -0.101,-0.131 -0.169,-0.17 -0.068,-0.041 -0.146,-0.061 -0.228,-0.061 0,0 -0.812,0 -1.469,0 0.057,0.061 0.109,0.125 0.151,0.199 l 0.902,1.562 -0.155,0.092 -0.595,0.342 h 1.847 l 0.927,-1.597 z"
           id="path15484"
           inkscape:connector-curvature="0"
           style="fill:#ffffff;fill-opacity:1" />
        <path
           d="m 26.519,497.061 c -0.08,-0.139 -0.372,-0.646 -0.372,-0.646 -0.05,-0.086 -0.12,-0.156 -0.203,-0.205 -0.082,-0.047 -0.175,-0.072 -0.272,-0.074 -0.195,0.002 -0.378,0.107 -0.473,0.279 0,0 -0.77,1.33 -0.914,1.58 0.229,0.131 1.045,0.602 1.273,0.732 0.137,-0.239 0.878,-1.522 0.961,-1.666 z"
           id="path15486"
           inkscape:connector-curvature="0"
           style="fill:#ffffff;fill-opacity:1" />
        <path
           d="m 28.036,503.562 v -0.684 -0.182 l 0.921,0.002 c 0.084,0 0.166,-0.021 0.234,-0.062 0.068,-0.039 0.127,-0.096 0.167,-0.166 0,0 0.407,-0.703 0.733,-1.271 -0.08,0.018 -0.163,0.033 -0.247,0.033 l -1.807,-0.002 v -0.182 l 0.002,-0.686 -0.926,1.6 0.923,1.6 z"
           id="path15488"
           inkscape:connector-curvature="0"
           style="fill:#ffffff;fill-opacity:1" />
        <path
           d="m 29.092,500.916 c 0.161,0 0.746,0 0.746,0 0.099,0 0.196,-0.025 0.28,-0.074 0.081,-0.047 0.149,-0.113 0.199,-0.199 0.097,-0.17 0.095,-0.379 -0.004,-0.547 0,0 -0.768,-1.332 -0.912,-1.582 -0.227,0.133 -1.045,0.604 -1.271,0.734 0.137,0.238 0.878,1.523 0.962,1.668 z"
           id="path15490"
           inkscape:connector-curvature="0"
           style="fill:#ffffff;fill-opacity:1" />
      </g>
    </g>
  </g>
</svg>
