<?xml version="1.0" encoding="utf-8"?>
<!-- Generator: Adobe Illustrator 18.1.1, SVG Export Plug-In . SVG Version: 6.00 Build 0)  -->
<svg version="1.1" xmlns="http://www.w3.org/2000/svg" xmlns:xlink="http://www.w3.org/1999/xlink" x="0px" y="0px"
	 viewBox="0 0 12 12" enable-background="new 0 0 12 12" xml:space="preserve">
<g id="shadows">
	<g opacity="0.2">
		<path d="M1.5,5.4l0.7,0.1l0.2,0.1L1.8,6.5c0,0.1-0.1,0.2-0.1,0.3c0,0.1,0,0.2,0.1,0.3c0,0,0.5,0.8,0.9,1.5c0-0.1,0.1-0.6,0.1-0.6
			l1-1.5L4,6.6l0.7,0.7L3.6,5.4H1.5z"/>
		<path d="M3.7,7.9C3.6,8.1,3.3,8.7,3.3,8.7C3.2,8.8,3.2,8.9,3.2,9s0,0.2,0.1,0.3c0.1,0.2,0.3,0.5,0.6,0.5c0,0,1.2,0,1.5,0
			c0-0.3,0-1.6,0-1.9C5,7.9,3.9,7.9,3.7,7.9L3.7,7.9z"/>
		<path d="M9.2,2.2L8.6,2.6L8.4,2.7L7.8,1.8c0-0.1-0.1-0.2-0.2-0.2c-0.1,0-0.2-0.1-0.3-0.1c0,0-0.6,0-1.4,0c0.1,0.1,0,0.6,0,0.6h0.6
			l0.3,1.4L6.7,3.7L6,4.1h2.2L9.2,2.2z"/>
		<path d="M6,2.6C5.9,2.4,5.4,2.1,5.4,2.1C5.3,2,5.5,1.6,5.4,1.6C5.3,1.5,5.1,1.5,5,1.5c-0.2,0-0.4,0.1-0.6,0.3c0,0-0.9,1.6-1.1,1.9
			c0.3,0.2,1.2,0.7,1.5,0.9C5,4.3,5.9,2.8,6,2.6z"/>
		<path d="M7.3,10.5L7.3,10.5V9.9h1.2c0.1,0,0.2,0,0.3,0c0.1,0,0.4,0.1,0.4,0c0,0,0.3-1.3,0.6-1.9c-0.1,0-0.2,0-0.3,0H7.3V7.6V6.7
			L6,8.6L7.3,10.5z"/>
		<path d="M9,7.3c0.2,0,0.9,0,0.9,0c0.1,0,0.2,0,0.3-0.1c0.1-0.1,0.2-0.1,0.2-0.2c0.1-0.2,0.1-0.4,0-0.6c0,0-0.9-1.6-1.1-1.9
			C9.1,4.6,8.1,5.2,7.8,5.3C8,5.6,8.9,7.1,9,7.3z"/>
	</g>
</g>
<g id="icons">
	<g>
		<path d="M1,4.9L1.7,5l0.2,0.1L1.3,6c0,0.1-0.1,0.2-0.1,0.3c0,0.1,0,0.2,0.1,0.3c0,0,0.5,0.8,0.9,1.5c0-0.1,0.1-0.6,0.1-0.6l1-1.5
			l0.2,0.1l0.7,0.7L3.1,4.9H1z"/>
		<path d="M3.2,7.4C3.1,7.6,2.8,8.2,2.8,8.2C2.7,8.3,2.7,8.4,2.7,8.5s0,0.2,0.1,0.3C2.9,9,3.1,9.4,3.4,9.4c0,0,1.2,0,1.5,0
			c0-0.3,0-1.6,0-1.9C4.5,7.4,3.4,7.4,3.2,7.4L3.2,7.4z"/>
		<path d="M8.7,1.7L8.1,2.1L7.9,2.2L7.3,1.3c0-0.1-0.1-0.2-0.2-0.2C7.1,1,7,1,6.9,1c0,0-0.6,0-1.4,0c0.1,0.1,0,0.6,0,0.6h0.6
			l0.3,1.4L6.2,3.2L5.5,3.6h2.2L8.7,1.7z"/>
		<path d="M5.5,2.1C5.4,1.9,4.9,1.6,4.9,1.6C4.8,1.5,5,1.1,4.9,1.1C4.8,1,4.6,1,4.5,1C4.3,1,4.1,1.1,4,1.3c0,0-0.9,1.6-1.1,1.9
			C3.1,3.3,4.1,3.9,4.4,4C4.5,3.8,5.4,2.3,5.5,2.1z"/>
		<path d="M6.8,10L6.8,10V9.4H8c0.1,0,0.2,0,0.3,0c0.1,0,0.4,0.1,0.4,0c0,0,0.3-1.3,0.6-1.9c-0.1,0-0.2,0-0.3,0H6.8V7.1V6.2L5.5,8.1
			L6.8,10z"/>
		<path d="M8.5,6.8c0.2,0,0.9,0,0.9,0c0.1,0,0.2,0,0.3-0.1c0.1-0.1,0.2-0.1,0.2-0.2C10,6.3,10,6,9.9,5.8c0,0-0.9-1.6-1.1-1.9
			C8.6,4.1,7.6,4.7,7.3,4.8C7.5,5.1,8.4,6.6,8.5,6.8z"/>
	</g>
</g>
</svg>
