<?xml version="1.0" encoding="utf-8"?>
<!-- Generator: Adobe Illustrator 18.1.1, SVG Export Plug-In . SVG Version: 6.00 Build 0)  -->
<svg version="1.1" xmlns="http://www.w3.org/2000/svg" xmlns:xlink="http://www.w3.org/1999/xlink" x="0px" y="0px"
	 viewBox="0 0 18 18" enable-background="new 0 0 18 18" xml:space="preserve">
<g id="shadows">
	<g opacity="0.2">
		<path d="M3.75,8.321l0.951,0.2l0.268,0.156l-0.783,1.354c-0.071,0.122-0.107,0.258-0.107,0.393c0,0.132,0.034,0.264,0.105,0.384
			c0,0,0.685,1.192,1.242,2.155c0.041-0.136,0.109-0.803,0.181-0.929l1.516-2.112l0.263,0.153l1.007,1.031L6.827,8.321H3.75z"/>
		<path d="M6.989,12.039c-0.137,0.236-0.634,1.095-0.634,1.095c-0.088,0.146-0.129,0.309-0.129,0.47s0.041,0.321,0.125,0.463
			c0.164,0.288,0.473,0.759,0.807,0.755c0,0,1.677,0,2.163,0c0-0.444,0-2.338,0-2.786C8.852,12.039,7.274,12.039,6.989,12.039
			L6.989,12.039z"/>
		<path d="M14.893,3.757l-0.925,0.579l-0.266,0.156l-0.78-1.357c-0.069-0.122-0.171-0.222-0.286-0.288
			C12.52,2.778,12.388,2.75,12.249,2.75c0,0-0.885,0-1.999,0c0.097,0.103-0.071,0.803,0,0.929h0.929l0.365,2.05l-0.263,0.156
			l-1.008,0.58h3.131L14.893,3.757z"/>
		<path d="M10.25,4.318c-0.136-0.236-0.929-0.639-0.929-0.639c-0.085-0.146,0.141-0.72,0-0.803C9.182,2.796,8.979,2.754,8.814,2.75
			C8.484,2.754,8.174,2.931,8.013,3.223c0,0-1.305,2.254-1.549,2.678c0.388,0.222,1.771,1.02,2.158,1.241
			C8.853,6.737,10.109,4.562,10.25,4.318z"/>
		<path d="M12.107,15.75L12.107,15.75v-0.929h1.792c0.142,0,0.281,0.069,0.397,0c0.115-0.066,0.529,0.119,0.597,0
			c0,0,0.376-1.823,0.929-2.786c-0.136,0.03-0.276,0-0.419,0h-3.296v-0.547v-1.163l-1.857,2.638L12.107,15.75z"/>
		<path d="M14.552,11.107c0.273,0,1.265,0,1.265,0c0.168,0,0.332-0.042,0.475-0.126c0.137-0.079,0.253-0.191,0.337-0.337
			c0.164-0.288,0.161-0.642-0.007-0.927c0,0-1.302-2.257-1.546-2.681c-0.385,0.225-1.771,1.024-2.154,1.244
			C13.154,8.683,14.41,10.861,14.552,11.107z"/>
	</g>
</g>
<g id="icons">
	<g>
		<path d="M3,7.571l0.951,0.2l0.268,0.156L3.436,9.282C3.365,9.404,3.329,9.54,3.329,9.675c0,0.132,0.034,0.264,0.105,0.384
			c0,0,0.685,1.192,1.242,2.155c0.041-0.136,0.109-0.803,0.181-0.929l1.516-2.112l0.263,0.153l1.007,1.031L6.077,7.571H3z"/>
		<path d="M6.239,11.289c-0.137,0.236-0.634,1.095-0.634,1.095c-0.088,0.146-0.129,0.309-0.129,0.47s0.041,0.321,0.125,0.463
			c0.164,0.288,0.473,0.759,0.807,0.755c0,0,1.677,0,2.163,0c0-0.444,0-2.338,0-2.786C8.102,11.289,6.524,11.289,6.239,11.289
			L6.239,11.289z"/>
		<path d="M14.143,3.007l-0.925,0.579l-0.266,0.156l-0.78-1.357c-0.069-0.122-0.171-0.222-0.286-0.288
			C11.77,2.028,11.638,2,11.499,2c0,0-0.885,0-1.999,0c0.097,0.103-0.071,0.803,0,0.929h0.929l0.365,2.05l-0.263,0.156l-1.008,0.58
			h3.131L14.143,3.007z"/>
		<path d="M9.5,3.568C9.364,3.332,8.571,2.929,8.571,2.929c-0.085-0.146,0.141-0.72,0-0.803C8.432,2.046,8.229,2.004,8.064,2
			C7.734,2.004,7.424,2.181,7.263,2.473c0,0-1.305,2.254-1.549,2.678c0.388,0.222,1.771,1.02,2.158,1.241
			C8.103,5.987,9.359,3.812,9.5,3.568z"/>
		<path d="M11.357,15L11.357,15v-0.929h1.792c0.142,0,0.281,0.069,0.397,0c0.115-0.066,0.529,0.119,0.597,0
			c0,0,0.376-1.823,0.929-2.786c-0.136,0.03-0.276,0-0.419,0h-3.296v-0.547V9.576L9.5,12.214L11.357,15z"/>
		<path d="M13.802,10.357c0.273,0,1.265,0,1.265,0c0.168,0,0.332-0.042,0.475-0.126c0.137-0.079,0.253-0.191,0.337-0.337
			c0.164-0.288,0.161-0.642-0.007-0.927c0,0-1.302-2.257-1.546-2.681c-0.385,0.225-1.771,1.024-2.154,1.244
			C12.404,7.933,13.66,10.111,13.802,10.357z"/>
	</g>
</g>
</svg>
