<?xml version="1.0" encoding="utf-8"?>
<!-- Generator: Adobe Illustrator 18.1.1, SVG Export Plug-In . SVG Version: 6.00 Build 0)  -->
<svg version="1.1" xmlns="http://www.w3.org/2000/svg" xmlns:xlink="http://www.w3.org/1999/xlink" x="0px" y="0px"
	 viewBox="0 0 24 24" enable-background="new 0 0 24 24" xml:space="preserve">
<g id="shadows">
	<g opacity="0.2">
		<path d="M16.591,21v-1.101v-0.444h2.152c0.185,0,0.366-0.002,0.515-0.092c0.15-0.086,0.28-0.213,0.368-0.368
			c0,0,0.935-1.372,1.653-2.631c-0.176,0.04-4.688,0-4.688,0v-0.521v-1.521l-2.375,3.547L16.591,21z"/>
		<path d="M5,11.547l1.054,0.319l0.425,0.129l-0.624,2.059c-0.054,0.177-0.105,0.35-0.061,0.52c0.039,0.169,0.123,0.329,0.245,0.459
			c0,0,1.054,1.824,2.051,2.876v-1.545l0.773-1.545l0.574-1.928l0.499,0.151l1.455,0.441l-2.706-3.301L5,11.547z"/>
		<path d="M19.04,15.591c0.355,0,1.643,0,1.643,0c0.218,0,0.26,0.109,0.445,0c0.178-0.104,0.5-0.456,0.61-0.646
			c0.214-0.377,0.376-0.84,0.158-1.213c0,0-1.845-2.996-2.163-3.55c-0.5,0.295-1.82,1.382-2.318,1.671
			C17.718,12.38,18.855,15.269,19.04,15.591z"/>
		<path d="M19.922,5.526l-0.932,0.587L18.614,6.35l-1.146-1.821c-0.099-0.157-0.196-0.309-0.353-0.387
			c-0.153-0.081-0.329-0.123-0.507-0.115c0,0-1.659-0.06-3.107,0.003c0.128,0.128,2.498,3.968,2.498,3.968l-0.441,0.278l-1.287,0.81
			l4.266,0.12L19.922,5.526z"/>
		<path d="M13.5,6.713c-0.189-0.3-0.876-1.391-0.876-1.391c-0.116-0.185-0.046-0.278-0.237-0.376
			c-0.183-0.095-0.652-0.181-0.872-0.172c-0.433,0.02-0.911,0.13-1.11,0.513c0,0-1.552,3.158-1.852,3.721
			c0.516,0.266,2.14,0.804,2.649,1.072C11.487,9.543,13.327,7.04,13.5,6.713z"/>
		<path d="M8.864,16.364c0.064,1.03,0.003,1.331-0.006,1.545c-0.009,0.206-0.094,0.577,0.006,0.773
			c0.201,0.384,0.335,0.754,0.767,0.773c0,0,3.226-0.034,3.864,0c0.023-0.58-0.028-2.516,0-3.091
			C12.887,16.332,9.636,16.428,8.864,16.364z"/>
	</g>
</g>
<g id="icons">
	<g>
		<path d="M15.591,20v-1.101v-0.444h2.152c0.185,0,0.366-0.002,0.515-0.092c0.15-0.086,0.28-0.213,0.368-0.368
			c0,0,0.935-1.372,1.653-2.631c-0.176,0.04-4.688,0-4.688,0v-0.521v-1.521l-2.375,3.547L15.591,20z"/>
		<path d="M4,10.547l1.054,0.319l0.425,0.129l-0.624,2.059c-0.054,0.177-0.105,0.35-0.061,0.52c0.039,0.169,0.123,0.329,0.245,0.459
			c0,0,1.054,1.824,2.051,2.876v-1.545l0.773-1.545l0.574-1.928l0.499,0.151l1.455,0.441L7.686,9.182L4,10.547z"/>
		<path d="M18.04,14.591c0.355,0,1.643,0,1.643,0c0.218,0,0.26,0.109,0.445,0c0.178-0.104,0.5-0.456,0.61-0.646
			c0.214-0.377,0.376-0.84,0.158-1.213c0,0-1.845-2.996-2.163-3.55c-0.5,0.295-1.82,1.382-2.318,1.671
			C16.718,11.38,17.855,14.269,18.04,14.591z"/>
		<path d="M18.922,4.526l-0.932,0.587L17.614,5.35l-1.146-1.821c-0.099-0.157-0.196-0.309-0.353-0.387
			c-0.153-0.081-0.329-0.123-0.507-0.115c0,0-1.659-0.06-3.107,0.003c0.128,0.128,2.498,3.968,2.498,3.968l-0.441,0.278l-1.287,0.81
			l4.266,0.12L18.922,4.526z"/>
		<path d="M12.5,5.713c-0.189-0.3-0.876-1.391-0.876-1.391c-0.116-0.185-0.046-0.278-0.237-0.376
			c-0.183-0.095-0.652-0.181-0.872-0.172c-0.433,0.02-0.911,0.13-1.11,0.513c0,0-1.552,3.158-1.852,3.721
			c0.516,0.266,2.14,0.804,2.649,1.072C10.487,8.543,12.327,6.04,12.5,5.713z"/>
		<path d="M7.864,15.364c0.064,1.03,0.003,1.331-0.006,1.545c-0.009,0.206-0.094,0.577,0.006,0.773
			c0.201,0.384,0.335,0.754,0.767,0.773c0,0,3.226-0.034,3.864,0c0.023-0.58-0.028-2.516,0-3.091
			C11.887,15.332,8.636,15.428,7.864,15.364z"/>
	</g>
</g>
</svg>
