<?xml version="1.0" encoding="UTF-8" standalone="no"?>
<!-- Created with Inkscape (http://www.inkscape.org/) -->

<svg
   xmlns:dc="http://purl.org/dc/elements/1.1/"
   xmlns:cc="http://creativecommons.org/ns#"
   xmlns:rdf="http://www.w3.org/1999/02/22-rdf-syntax-ns#"
   xmlns:svg="http://www.w3.org/2000/svg"
   xmlns="http://www.w3.org/2000/svg"
   xmlns:inkscape="http://www.inkscape.org/namespaces/inkscape"
   version="1.1"
   width="24"
   height="24"
   id="svg4460">
  <defs
     id="defs4462" />
  <metadata
     id="metadata4465">
    <rdf:RDF>
      <cc:Work
         rdf:about="">
        <dc:format>image/svg+xml</dc:format>
        <dc:type
           rdf:resource="http://purl.org/dc/dcmitype/StillImage" />
        <dc:title />
      </cc:Work>
    </rdf:RDF>
  </metadata>
  <g
     transform="translate(0,-1028.3622)"
     id="layer1">
    <g
       transform="translate(-6.0000014,-46)"
       id="religious-muslim-24"
       style="display:inline">
      <g
         id="g21856">
        <path
           d="m 18.5,1077.3622 c -4.69442,0 -8.5,3.8056 -8.5,8.5 0,4.6944 3.80558,8.5 8.5,8.5 2.624764,0 4.972051,-1.1929 6.53125,-3.0625 -1.018799,0.6632 -2.225004,1.0625 -3.53125,1.0625 -3.589851,0 -6.5,-2.9101 -6.5,-6.5 0,-3.5899 2.910149,-6.5 6.5,-6.5 1.306246,0 2.512451,0.3993 3.53125,1.0625 -1.559199,-1.8696 -3.906486,-3.0625 -6.53125,-3.0625 z m 5,4 -1,3 -3.5,0 3,2 -1.5,3.5 3,-2 3,2 -1.5,-3.5 3,-2 -3.5,0 -1,-3 z"
           inkscape:connector-curvature="0"
           id="path7587"
           style="opacity:0.3;color:#000000;fill:#ffffff;fill-opacity:1;fill-rule:nonzero;stroke:#ffffff;stroke-width:2;stroke-linecap:butt;stroke-linejoin:round;stroke-miterlimit:4;stroke-opacity:1;stroke-dasharray:none;stroke-dashoffset:0;marker:none;visibility:visible;display:inline;overflow:visible;enable-background:accumulate" />
        <path
           d="m 18.5,1077.3622 c -4.69442,0 -8.5,3.8056 -8.5,8.5 0,4.6944 3.80558,8.5 8.5,8.5 2.624764,0 4.972051,-1.1929 6.53125,-3.0625 -1.018799,0.6632 -2.225004,1.0625 -3.53125,1.0625 -3.589851,0 -6.5,-2.9101 -6.5,-6.5 0,-3.5899 2.910149,-6.5 6.5,-6.5 1.306246,0 2.512451,0.3993 3.53125,1.0625 -1.559199,-1.8696 -3.906486,-3.0625 -6.53125,-3.0625 z m 5,4 -1,3 -3.5,0 3,2 -1.5,3.5 3,-2 3,2 -1.5,-3.5 3,-2 -3.5,0 -1,-3 z"
           inkscape:connector-curvature="0"
           id="path7552-2"
           style="color:#000000;fill:#444444;fill-opacity:1;fill-rule:nonzero;stroke:none;stroke-width:2;marker:none;visibility:visible;display:inline;overflow:visible;enable-background:accumulate" />
      </g>
    </g>
  </g>
  <rect
     width="24"
     height="24"
     x="0"
     y="0"
     id="canvas"
     style="fill:none;stroke:none;visibility:hidden" />
</svg>
