<?xml version="1.0" encoding="UTF-8" standalone="no"?>
<!-- Created with Inkscape (http://www.inkscape.org/) -->

<svg
   xmlns:dc="http://purl.org/dc/elements/1.1/"
   xmlns:cc="http://creativecommons.org/ns#"
   xmlns:rdf="http://www.w3.org/1999/02/22-rdf-syntax-ns#"
   xmlns:svg="http://www.w3.org/2000/svg"
   xmlns="http://www.w3.org/2000/svg"
   xmlns:inkscape="http://www.inkscape.org/namespaces/inkscape"
   version="1.1"
   width="18"
   height="18"
   id="svg4619">
  <defs
     id="defs4621" />
  <metadata
     id="metadata4624">
    <rdf:RDF>
      <cc:Work
         rdf:about="">
        <dc:format>image/svg+xml</dc:format>
        <dc:type
           rdf:resource="http://purl.org/dc/dcmitype/StillImage" />
        <dc:title />
      </cc:Work>
    </rdf:RDF>
  </metadata>
  <g
     transform="translate(0,-1034.3622)"
     id="layer1">
    <g
       transform="translate(-29.999997,-40)"
       id="religious-muslim-18"
       style="display:inline">
      <g
         id="g21852">
        <path
           d="m 40,1077.3622 c -3.390415,0 -6,2.6096 -6,6 0,3.3904 2.609585,6 6,6 1.89566,0 3.873911,-0.6497 5,-2 -0.7358,0.479 -2.056598,1 -3,1 -2.59267,0 -4.527778,-2.5462 -4.527778,-5.1389 0,-2.5927 1.935108,-4.8611 4.527778,-4.8611 0.943402,0 2.2642,0.5211 3,1 -1.126089,-1.3502 -3.10434,-2 -5,-2 z m 3.611111,2.6111 -0.722222,2.3889 -2.888889,0 2.527778,1.2222 L 41,1086.3622 43.611111,1084.6678 46,1086.3622 44.694444,1083.5844 47,1082.3622 l -2.666667,0 z"
           inkscape:connector-curvature="0"
           id="path16930"
           style="opacity:0.3;color:#000000;fill:#ffffff;fill-opacity:1;fill-rule:nonzero;stroke:#ffffff;stroke-width:2;stroke-linecap:butt;stroke-linejoin:round;stroke-miterlimit:4;stroke-opacity:1;stroke-dasharray:none;stroke-dashoffset:0;marker:none;visibility:visible;display:inline;overflow:visible;enable-background:accumulate" />
        <path
           d="m 40,1077.3622 c -3.390415,0 -6,2.6096 -6,6 0,3.3904 2.609585,6 6,6 1.89566,0 3.873911,-0.6497 5,-2 -0.7358,0.479 -2.056598,1 -3,1 -2.59267,0 -4.527778,-2.5462 -4.527778,-5.1389 0,-2.5927 1.935108,-4.8611 4.527778,-4.8611 0.943402,0 2.2642,0.5211 3,1 -1.126089,-1.3502 -3.10434,-2 -5,-2 z m 3.611111,2.6111 -0.722222,2.3889 -2.888889,0 2.527778,1.2222 L 41,1086.3622 43.611111,1084.6678 46,1086.3622 44.694444,1083.5844 47,1082.3622 l -2.666667,0 z"
           inkscape:connector-curvature="0"
           id="path7552-2-1"
           style="color:#000000;fill:#444444;fill-opacity:1;fill-rule:nonzero;stroke:none;stroke-width:2;marker:none;visibility:visible;display:inline;overflow:visible;enable-background:accumulate" />
      </g>
    </g>
  </g>
  <rect
     width="18"
     height="18"
     x="0"
     y="0"
     id="canvas"
     style="fill:none;stroke:none;visibility:hidden" />
</svg>
