<?xml version="1.0" encoding="UTF-8" standalone="no"?>
<!-- Created with Inkscape (http://www.inkscape.org/) -->

<svg
   xmlns:dc="http://purl.org/dc/elements/1.1/"
   xmlns:cc="http://creativecommons.org/ns#"
   xmlns:rdf="http://www.w3.org/1999/02/22-rdf-syntax-ns#"
   xmlns:svg="http://www.w3.org/2000/svg"
   xmlns="http://www.w3.org/2000/svg"
   xmlns:sodipodi="http://sodipodi.sourceforge.net/DTD/sodipodi-0.dtd"
   xmlns:inkscape="http://www.inkscape.org/namespaces/inkscape"
   width="18"
   height="18"
   id="svg27435"
   version="1.1"
   inkscape:version="0.48.2 r9819"
   sodipodi:docname="restroom-black-18.svg">
  <defs
     id="defs27437" />
  <sodipodi:namedview
     id="base"
     pagecolor="#ffffff"
     bordercolor="#666666"
     borderopacity="1.0"
     inkscape:pageopacity="0.0"
     inkscape:pageshadow="2"
     inkscape:zoom="7.9891803"
     inkscape:cx="12.590799"
     inkscape:cy="8.9588378"
     inkscape:document-units="px"
     inkscape:current-layer="layer1"
     showgrid="false"
     inkscape:window-width="483"
     inkscape:window-height="454"
     inkscape:window-x="3232"
     inkscape:window-y="651"
     inkscape:window-maximized="0" />
  <metadata
     id="metadata27440">
    <rdf:RDF>
      <cc:Work
         rdf:about="">
        <dc:format>image/svg+xml</dc:format>
        <dc:type
           rdf:resource="http://purl.org/dc/dcmitype/StillImage" />
        <dc:title></dc:title>
      </cc:Work>
    </rdf:RDF>
  </metadata>
  <g
     inkscape:label="Layer 1"
     inkscape:groupmode="layer"
     id="layer1"
     transform="translate(0,-1034.3622)">
    <g
       transform="matrix(1.8211251,0,0,1.8211251,-39.52808,110.39764)"
       id="g13948">
      <path
         d="m 30.415,517.236 c 0.652,0 1.181,-0.527 1.181,-1.18 v -7.521 c 0,-0.652 -0.528,-1.182 -1.181,-1.182 h -7.521 c -0.652,0 -1.182,0.529 -1.182,1.182 v 7.521 c 0,0.652 0.529,1.18 1.182,1.18 h 7.521 z"
         id="path13950"
         inkscape:connector-curvature="0"
         style="opacity:0;fill:#272525" />
      <g
         style="opacity:0.6;stroke:#ffffff;stroke-width:0.5;stroke-miterlimit:4;stroke-opacity:1;stroke-dasharray:none"
         id="g13952">
        <rect
           x="26.445"
           y="508.90799"
           width="0.52399999"
           height="6.5960002"
           id="rect13954"
           style="opacity:0.6;fill:none;stroke:#ffffff;stroke-width:0.5;stroke-miterlimit:4;stroke-opacity:1;stroke-dasharray:none" />
        <path
           d="m 24.576,510.115 c 0.375,0 0.644,0.309 0.7,0.477 l 0.459,1.512 c 0.092,0.324 -0.321,0.459 -0.42,0.143 l -0.413,-1.387 h -0.238 l 0.692,2.465 h -0.66 v 1.924 c 0,0.328 -0.493,0.326 -0.493,0 v -1.936 h -0.251 v 1.932 c 0,0.332 -0.495,0.332 -0.495,0 v -1.92 h -0.662 l 0.686,-2.465 h -0.228 l -0.414,1.391 c -0.098,0.303 -0.515,0.18 -0.42,-0.146 l 0.46,-1.512 c 0.049,-0.172 0.267,-0.477 0.644,-0.477 h 1.053 z"
           id="path13956"
           inkscape:connector-curvature="0"
           style="opacity:0.6;fill:none;stroke:#ffffff;stroke-width:0.5;stroke-miterlimit:4;stroke-opacity:1;stroke-dasharray:none" />
        <circle
           d="m 24.613,509.466 c 0,0.29603 -0.239976,0.536 -0.536,0.536 -0.296025,0 -0.536,-0.23997 -0.536,-0.536 0,-0.29602 0.239975,-0.536 0.536,-0.536 0.296024,0 0.536,0.23998 0.536,0.536 z"
           cx="24.077"
           cy="509.466"
           r="0.53600001"
           id="circle13958"
           sodipodi:cx="24.077"
           sodipodi:cy="509.466"
           sodipodi:rx="0.53600001"
           sodipodi:ry="0.53600001"
           style="opacity:0.6;fill:none;stroke:#ffffff;stroke-width:0.5;stroke-miterlimit:4;stroke-opacity:1;stroke-dasharray:none" />
        <circle
           d="m 29.817,509.457 c 0,0.29547 -0.239528,0.535 -0.535,0.535 -0.295473,0 -0.535,-0.23953 -0.535,-0.535 0,-0.29547 0.239527,-0.535 0.535,-0.535 0.295472,0 0.535,0.23953 0.535,0.535 z"
           cx="29.282"
           cy="509.457"
           r="0.53500003"
           id="circle13960"
           sodipodi:cx="29.282"
           sodipodi:cy="509.457"
           sodipodi:rx="0.53500003"
           sodipodi:ry="0.53500003"
           style="opacity:0.6;fill:none;stroke:#ffffff;stroke-width:0.5;stroke-miterlimit:4;stroke-opacity:1;stroke-dasharray:none" />
        <path
           d="m 28.556,515.188 c 0,0.166 0.134,0.301 0.3,0.301 0.166,0 0.301,-0.135 0.301,-0.301 v -2.52 h 0.252 v 2.52 c 0,0.166 0.134,0.301 0.3,0.301 0.166,0 0.3,-0.135 0.3,-0.301 l 0.002,-4.344 h 0.25 v 1.602 c 0,0.322 0.42,0.322 0.419,0 v -1.637 c 0,-0.355 -0.276,-0.703 -0.692,-0.703 l -1.421,-0.002 c -0.38,0 -0.685,0.311 -0.685,0.695 v 1.646 c 0,0.318 0.422,0.318 0.422,0 v -1.602 h 0.254 l -0.002,4.345 z"
           id="path13962"
           inkscape:connector-curvature="0"
           style="opacity:0.6;fill:none;stroke:#ffffff;stroke-width:0.5;stroke-miterlimit:4;stroke-opacity:1;stroke-dasharray:none" />
      </g>
      <rect
         x="26.445"
         y="508.90799"
         width="0.52399999"
         height="6.5960002"
         id="rect13964"
         style="fill:#272525" />
      <path
         d="m 24.576,510.115 c 0.375,0 0.644,0.309 0.7,0.477 l 0.459,1.512 c 0.092,0.324 -0.321,0.459 -0.42,0.143 l -0.413,-1.387 h -0.238 l 0.692,2.465 h -0.66 v 1.924 c 0,0.328 -0.493,0.326 -0.493,0 v -1.936 h -0.251 v 1.932 c 0,0.332 -0.495,0.332 -0.495,0 v -1.92 h -0.662 l 0.686,-2.465 h -0.228 l -0.414,1.391 c -0.098,0.303 -0.515,0.18 -0.42,-0.146 l 0.46,-1.512 c 0.049,-0.172 0.267,-0.477 0.644,-0.477 h 1.053 z"
         id="path13966"
         inkscape:connector-curvature="0"
         style="fill:#272525" />
      <circle
         d="m 24.613,509.466 c 0,0.29603 -0.239976,0.536 -0.536,0.536 -0.296025,0 -0.536,-0.23997 -0.536,-0.536 0,-0.29602 0.239975,-0.536 0.536,-0.536 0.296024,0 0.536,0.23998 0.536,0.536 z"
         cx="24.077"
         cy="509.466"
         r="0.53600001"
         id="circle13968"
         sodipodi:cx="24.077"
         sodipodi:cy="509.466"
         sodipodi:rx="0.53600001"
         sodipodi:ry="0.53600001"
         style="fill:#272525" />
      <circle
         d="m 29.817,509.457 c 0,0.29547 -0.239528,0.535 -0.535,0.535 -0.295473,0 -0.535,-0.23953 -0.535,-0.535 0,-0.29547 0.239527,-0.535 0.535,-0.535 0.295472,0 0.535,0.23953 0.535,0.535 z"
         cx="29.282"
         cy="509.457"
         r="0.53500003"
         id="circle13970"
         sodipodi:cx="29.282"
         sodipodi:cy="509.457"
         sodipodi:rx="0.53500003"
         sodipodi:ry="0.53500003"
         style="fill:#272525" />
      <path
         d="m 28.556,515.188 c 0,0.166 0.134,0.301 0.3,0.301 0.166,0 0.301,-0.135 0.301,-0.301 v -2.52 h 0.252 v 2.52 c 0,0.166 0.134,0.301 0.3,0.301 0.166,0 0.3,-0.135 0.3,-0.301 l 0.002,-4.344 h 0.25 v 1.602 c 0,0.322 0.42,0.322 0.419,0 v -1.637 c 0,-0.355 -0.276,-0.703 -0.692,-0.703 l -1.421,-0.002 c -0.38,0 -0.685,0.311 -0.685,0.695 v 1.646 c 0,0.318 0.422,0.318 0.422,0 v -1.602 h 0.254 l -0.002,4.345 z"
         id="path13972"
         inkscape:connector-curvature="0"
         style="fill:#272525" />
    </g>
  </g>
</svg>
