<?xml version="1.0" encoding="UTF-8" standalone="no"?>
<!-- Created with Inkscape (http://www.inkscape.org/) -->

<svg
   xmlns:dc="http://purl.org/dc/elements/1.1/"
   xmlns:cc="http://creativecommons.org/ns#"
   xmlns:rdf="http://www.w3.org/1999/02/22-rdf-syntax-ns#"
   xmlns:svg="http://www.w3.org/2000/svg"
   xmlns="http://www.w3.org/2000/svg"
   xmlns:sodipodi="http://sodipodi.sourceforge.net/DTD/sodipodi-0.dtd"
   xmlns:inkscape="http://www.inkscape.org/namespaces/inkscape"
   width="24"
   height="24"
   id="svg27349"
   version="1.1"
   inkscape:version="0.48.2 r9819"
   sodipodi:docname="restroom-black-24.svg">
  <defs
     id="defs27351" />
  <sodipodi:namedview
     id="base"
     pagecolor="#ffffff"
     bordercolor="#666666"
     borderopacity="1.0"
     inkscape:pageopacity="0.0"
     inkscape:pageshadow="2"
     inkscape:zoom="8.8081266"
     inkscape:cx="11.449912"
     inkscape:cy="8.5492675"
     inkscape:document-units="px"
     inkscape:current-layer="layer1"
     showgrid="false"
     inkscape:window-width="629"
     inkscape:window-height="573"
     inkscape:window-x="2604"
     inkscape:window-y="588"
     inkscape:window-maximized="0" />
  <metadata
     id="metadata27354">
    <rdf:RDF>
      <cc:Work
         rdf:about="">
        <dc:format>image/svg+xml</dc:format>
        <dc:type
           rdf:resource="http://purl.org/dc/dcmitype/StillImage" />
        <dc:title></dc:title>
      </cc:Work>
    </rdf:RDF>
  </metadata>
  <g
     inkscape:label="Layer 1"
     inkscape:groupmode="layer"
     id="layer1"
     transform="translate(0,-1028.3622)">
    <g
       id="g14028"
       transform="matrix(2.4281667,0,0,2.4281667,-467.4096,482.00797)">
      <path
         d="m 201.212,234.923 c 0.652,0 1.181,-0.527 1.181,-1.18 v -7.521 c 0,-0.652 -0.528,-1.182 -1.181,-1.182 h -7.521 c -0.652,0 -1.182,0.529 -1.182,1.182 v 7.521 c 0,0.652 0.529,1.18 1.182,1.18 h 7.521 z"
         id="path14030"
         inkscape:connector-curvature="0"
         style="opacity:0;fill:#272525" />
      <g
         transform="translate(170.797,-282.313)"
         style="opacity:0.6;stroke:#1d1d1c;stroke-width:0.5;stroke-miterlimit:4;stroke-opacity:1;stroke-dasharray:none"
         id="g14032">
        <rect
           x="26.445"
           y="508.90799"
           width="0.52399999"
           height="6.5960002"
           id="rect14034"
           style="opacity:0.6;fill:none;stroke:#1d1d1c;stroke-width:0.5;stroke-miterlimit:4;stroke-opacity:1;stroke-dasharray:none" />
        <path
           d="m 24.576,510.115 c 0.375,0 0.644,0.309 0.7,0.477 l 0.459,1.512 c 0.092,0.324 -0.321,0.459 -0.42,0.143 l -0.413,-1.387 h -0.238 l 0.692,2.465 h -0.66 v 1.924 c 0,0.328 -0.493,0.326 -0.493,0 v -1.936 h -0.251 v 1.932 c 0,0.332 -0.495,0.332 -0.495,0 v -1.92 h -0.662 l 0.686,-2.465 h -0.228 l -0.414,1.391 c -0.098,0.303 -0.515,0.18 -0.42,-0.146 l 0.46,-1.512 c 0.049,-0.172 0.267,-0.477 0.644,-0.477 h 1.053 z"
           id="path14036"
           inkscape:connector-curvature="0"
           style="opacity:0.6;fill:none;stroke:#1d1d1c;stroke-width:0.5;stroke-miterlimit:4;stroke-opacity:1;stroke-dasharray:none" />
        <circle
           d="m 24.613,509.466 c 0,0.29603 -0.239976,0.536 -0.536,0.536 -0.296025,0 -0.536,-0.23997 -0.536,-0.536 0,-0.29602 0.239975,-0.536 0.536,-0.536 0.296024,0 0.536,0.23998 0.536,0.536 z"
           cx="24.077"
           cy="509.466"
           r="0.53600001"
           id="circle14038"
           sodipodi:cx="24.077"
           sodipodi:cy="509.466"
           sodipodi:rx="0.53600001"
           sodipodi:ry="0.53600001"
           style="opacity:0.6;fill:none;stroke:#1d1d1c;stroke-width:0.5;stroke-miterlimit:4;stroke-opacity:1;stroke-dasharray:none" />
        <circle
           d="m 29.817,509.457 c 0,0.29547 -0.239528,0.535 -0.535,0.535 -0.295473,0 -0.535,-0.23953 -0.535,-0.535 0,-0.29547 0.239527,-0.535 0.535,-0.535 0.295472,0 0.535,0.23953 0.535,0.535 z"
           cx="29.282"
           cy="509.457"
           r="0.53500003"
           id="circle14040"
           sodipodi:cx="29.282"
           sodipodi:cy="509.457"
           sodipodi:rx="0.53500003"
           sodipodi:ry="0.53500003"
           style="opacity:0.6;fill:none;stroke:#1d1d1c;stroke-width:0.5;stroke-miterlimit:4;stroke-opacity:1;stroke-dasharray:none" />
        <path
           d="m 28.556,515.188 c 0,0.166 0.134,0.301 0.3,0.301 0.166,0 0.301,-0.135 0.301,-0.301 v -2.52 h 0.252 v 2.52 c 0,0.166 0.134,0.301 0.3,0.301 0.166,0 0.3,-0.135 0.3,-0.301 l 0.002,-4.344 h 0.25 v 1.602 c 0,0.322 0.42,0.322 0.419,0 v -1.637 c 0,-0.355 -0.276,-0.703 -0.692,-0.703 l -1.421,-0.002 c -0.38,0 -0.685,0.311 -0.685,0.695 v 1.646 c 0,0.318 0.422,0.318 0.422,0 v -1.602 h 0.254 l -0.002,4.345 z"
           id="path14042"
           inkscape:connector-curvature="0"
           style="opacity:0.6;fill:none;stroke:#1d1d1c;stroke-width:0.5;stroke-miterlimit:4;stroke-opacity:1;stroke-dasharray:none" />
      </g>
      <g
         style="fill:#ffffff;fill-opacity:1"
         id="g14044">
        <rect
           style="fill:#ffffff;fill-opacity:1"
           id="rect14046"
           height="6.5960002"
           width="0.52399999"
           y="226.59499"
           x="197.242" />
        <path
           style="fill:#ffffff;fill-opacity:1"
           inkscape:connector-curvature="0"
           id="path14048"
           d="m 195.373,227.802 c 0.375,0 0.644,0.309 0.7,0.477 l 0.459,1.512 c 0.092,0.324 -0.321,0.459 -0.42,0.143 l -0.413,-1.387 h -0.238 l 0.692,2.465 h -0.66 v 1.924 c 0,0.328 -0.493,0.326 -0.493,0 V 231 h -0.251 v 1.932 c 0,0.332 -0.495,0.332 -0.495,0 v -1.92 h -0.662 l 0.686,-2.465 h -0.228 l -0.414,1.391 c -0.098,0.303 -0.515,0.18 -0.42,-0.146 l 0.46,-1.512 c 0.049,-0.172 0.267,-0.477 0.644,-0.477 h 1.053 z" />
        <circle
           style="fill:#ffffff;fill-opacity:1"
           sodipodi:ry="0.53600001"
           sodipodi:rx="0.53600001"
           sodipodi:cy="509.466"
           sodipodi:cx="24.077"
           id="circle14050"
           r="0.53600001"
           cy="509.466"
           cx="24.077"
           d="m 24.613,509.466 c 0,0.29603 -0.239976,0.536 -0.536,0.536 -0.296025,0 -0.536,-0.23997 -0.536,-0.536 0,-0.29602 0.239975,-0.536 0.536,-0.536 0.296024,0 0.536,0.23998 0.536,0.536 z"
           transform="translate(170.797,-282.313)" />
        <circle
           style="fill:#ffffff;fill-opacity:1"
           sodipodi:ry="0.53500003"
           sodipodi:rx="0.53500003"
           sodipodi:cy="509.457"
           sodipodi:cx="29.282"
           id="circle14052"
           r="0.53500003"
           cy="509.457"
           cx="29.282"
           d="m 29.817,509.457 c 0,0.29547 -0.239528,0.535 -0.535,0.535 -0.295473,0 -0.535,-0.23953 -0.535,-0.535 0,-0.29547 0.239527,-0.535 0.535,-0.535 0.295472,0 0.535,0.23953 0.535,0.535 z"
           transform="translate(170.797,-282.313)" />
        <path
           style="fill:#ffffff;fill-opacity:1"
           inkscape:connector-curvature="0"
           id="path14054"
           d="m 199.353,232.875 c 0,0.166 0.134,0.301 0.3,0.301 0.166,0 0.301,-0.135 0.301,-0.301 v -2.52 h 0.252 v 2.52 c 0,0.166 0.134,0.301 0.3,0.301 0.166,0 0.3,-0.135 0.3,-0.301 l 0.002,-4.344 h 0.25 v 1.602 c 0,0.322 0.42,0.322 0.419,0 v -1.637 c 0,-0.355 -0.276,-0.703 -0.692,-0.703 l -1.421,-0.002 c -0.38,0 -0.685,0.311 -0.685,0.695 v 1.646 c 0,0.318 0.422,0.318 0.422,0 v -1.602 h 0.254 l -0.002,4.345 z" />
      </g>
    </g>
  </g>
</svg>
