<?xml version="1.0" encoding="UTF-8" standalone="no"?>
<svg width="12px" height="12px" viewBox="0 0 12 12" version="1.1" xmlns="http://www.w3.org/2000/svg" xmlns:xlink="http://www.w3.org/1999/xlink" xmlns:sketch="http://www.bohemiancoding.com/sketch/ns">
    <!-- Generator: Sketch 3.2.2 (9983) - http://www.bohemiancoding.com/sketch -->
    <title>restrooms-white-12</title>
    <desc>Created with Sketch.</desc>
    <defs></defs>
    <g id="Page-1" stroke="none" stroke-width="1" fill="none" fill-rule="evenodd" sketch:type="MSPage">
        <path d="M6.94117647,2 L7.64705882,2 L7.64705882,11.2325069 L6.94117647,11.2325069 L6.94117647,2 Z" id="Fill-542" opacity="0.5" fill="#0A0B09" sketch:type="MSShapeGroup"></path>
        <path d="M11.8823529,4.19995117 L9.05882353,4.19995117 L9.05882353,7.75091536 L9.76470588,7.75091536 L9.76470588,11.3018795 L11.1764706,11.3018795 L11.1764706,7.75091536 L11.8823529,7.75091536 L11.8823529,4.19995117" id="Fill-543" opacity="0.5" fill="#0A0B09" sketch:type="MSShapeGroup"></path>
        <path d="M4.82352941,4.19995117 L3.41176471,4.19995117 L2,9.17130103 L3.41176471,9.17130103 L3.41176471,11.3018795 L4.82352941,11.3018795 L4.82352941,9.17130103 L6.23529412,9.17130103 L4.82352941,4.19995117" id="Fill-544" opacity="0.5" fill="#0A0B09" sketch:type="MSShapeGroup"></path>
        <path d="M4.27529564,3.42038567 L3.93647211,3.42038567 C3.64000153,3.42038567 3.40000153,3.17892011 3.40000153,2.88774105 L3.40000153,2.53974656 C3.40000153,2.24146556 3.64000153,2 3.93647211,2 L4.27529564,2 C4.57176623,2 4.81176623,2.24146556 4.81176623,2.53974656 L4.81176623,2.88774105 C4.81176623,3.17892011 4.57176623,3.42038567 4.27529564,3.42038567" id="Fill-545" opacity="0.5" fill="#0A0B09" sketch:type="MSShapeGroup"></path>
        <path d="M10.64,3.42038567 L10.3011765,3.42038567 C10.0047059,3.42038567 9.76470588,3.17892011 9.76470588,2.88774105 L9.76470588,2.53974656 C9.76470588,2.24146556 10.0047059,2 10.3011765,2 L10.64,2 C10.9364706,2 11.1764706,2.24146556 11.1764706,2.53974656 L11.1764706,2.88774105 C11.1764706,3.17892011 10.9364706,3.42038567 10.64,3.42038567" id="Fill-546" opacity="0.5" fill="#0A0B09" sketch:type="MSShapeGroup"></path>
        <path d="M5.94117647,1 L6.64705882,1 L6.64705882,10.2325069 L5.94117647,10.2325069 L5.94117647,1 Z" id="Fill-542" opacity="0.75" fill="#0A0B09" sketch:type="MSShapeGroup"></path>
        <path d="M10.8823529,3.19995117 L8.05882353,3.19995117 L8.05882353,6.75091536 L8.76470588,6.75091536 L8.76470588,10.3018795 L10.1764706,10.3018795 L10.1764706,6.75091536 L10.8823529,6.75091536 L10.8823529,3.19995117" id="Fill-543" opacity="0.75" fill="#0A0B09" sketch:type="MSShapeGroup"></path>
        <path d="M3.82352941,3.19995117 L2.41176471,3.19995117 L1,8.17130103 L2.41176471,8.17130103 L2.41176471,10.3018795 L3.82352941,10.3018795 L3.82352941,8.17130103 L5.23529412,8.17130103 L3.82352941,3.19995117" id="Fill-544" opacity="0.75" fill="#0A0B09" sketch:type="MSShapeGroup"></path>
        <path d="M3.27529564,2.42038567 L2.93647211,2.42038567 C2.64000153,2.42038567 2.40000153,2.17892011 2.40000153,1.88774105 L2.40000153,1.53974656 C2.40000153,1.24146556 2.64000153,1 2.93647211,1 L3.27529564,1 C3.57176623,1 3.81176623,1.24146556 3.81176623,1.53974656 L3.81176623,1.88774105 C3.81176623,2.17892011 3.57176623,2.42038567 3.27529564,2.42038567" id="Fill-545" opacity="0.75" fill="#0A0B09" sketch:type="MSShapeGroup"></path>
        <path d="M9.64,2.42038567 L9.30117647,2.42038567 C9.00470588,2.42038567 8.76470588,2.17892011 8.76470588,1.88774105 L8.76470588,1.53974656 C8.76470588,1.24146556 9.00470588,1 9.30117647,1 L9.64,1 C9.93647059,1 10.1764706,1.24146556 10.1764706,1.53974656 L10.1764706,1.88774105 C10.1764706,2.17892011 9.93647059,2.42038567 9.64,2.42038567" id="Fill-546" opacity="0.75" fill="#0A0B09" sketch:type="MSShapeGroup"></path>
        <path d="M4.94117647,0 L5.64705882,0 L5.64705882,9.23250689 L4.94117647,9.23250689 L4.94117647,0 Z" id="Fill-542" fill="#FFFFFF" sketch:type="MSShapeGroup"></path>
        <path d="M9.88235294,2.19995117 L7.05882353,2.19995117 L7.05882353,5.75091536 L7.76470588,5.75091536 L7.76470588,9.30187955 L9.17647059,9.30187955 L9.17647059,5.75091536 L9.88235294,5.75091536 L9.88235294,2.19995117" id="Fill-543" fill="#FFFFFF" sketch:type="MSShapeGroup"></path>
        <path d="M2.82352941,2.19995117 L1.41176471,2.19995117 L0,7.17130103 L1.41176471,7.17130103 L1.41176471,9.30187955 L2.82352941,9.30187955 L2.82352941,7.17130103 L4.23529412,7.17130103 L2.82352941,2.19995117" id="Fill-544" fill="#FFFFFF" sketch:type="MSShapeGroup"></path>
        <path d="M2.27529564,1.42038567 L1.93647211,1.42038567 C1.64000153,1.42038567 1.40000153,1.17892011 1.40000153,0.887741047 L1.40000153,0.539746556 C1.40000153,0.241465565 1.64000153,0 1.93647211,0 L2.27529564,0 C2.57176623,0 2.81176623,0.241465565 2.81176623,0.539746556 L2.81176623,0.887741047 C2.81176623,1.17892011 2.57176623,1.42038567 2.27529564,1.42038567" id="Fill-545" fill="#FFFFFF" sketch:type="MSShapeGroup"></path>
        <path d="M8.64,1.42038567 L8.30117647,1.42038567 C8.00470588,1.42038567 7.76470588,1.17892011 7.76470588,0.887741047 L7.76470588,0.539746556 C7.76470588,0.241465565 8.00470588,0 8.30117647,0 L8.64,0 C8.93647059,0 9.17647059,0.241465565 9.17647059,0.539746556 L9.17647059,0.887741047 C9.17647059,1.17892011 8.93647059,1.42038567 8.64,1.42038567" id="Fill-546" fill="#FFFFFF" sketch:type="MSShapeGroup"></path>
    </g>
</svg>