<?xml version="1.0" encoding="utf-8"?>
<!-- Generator: Adobe Illustrator 18.1.1, SVG Export Plug-In . SVG Version: 6.00 Build 0)  -->
<svg version="1.1" xmlns="http://www.w3.org/2000/svg" xmlns:xlink="http://www.w3.org/1999/xlink" x="0px" y="0px"
	 viewBox="0 0 18 18" enable-background="new 0 0 18 18" xml:space="preserve">
<g id="shadows">
	<g opacity="0.2">
		<rect x="10.25" y="3.214" width="0.929" height="12.071"/>
		<polygon points="16.75,6 13.036,6 13.036,10.643 13.964,10.643 13.964,15.286 15.821,15.286 15.821,10.643 16.75,10.643 		"/>
		<polygon points="7.464,6 5.607,6 3.75,12.5 5.607,12.5 5.607,15.286 7.464,15.286 7.464,12.5 9.321,12.5 		"/>
		<path d="M6.762,5.071H6.31c-0.388,0-0.703-0.315-0.703-0.703V3.917c0-0.388,0.315-0.702,0.703-0.702h0.452
			c0.388,0,0.703,0.315,0.703,0.702v0.452C7.464,4.757,7.15,5.071,6.762,5.071z"/>
		<path d="M15.119,5.071h-0.452c-0.388,0-0.703-0.315-0.703-0.703V3.917c0-0.388,0.315-0.702,0.703-0.702h0.452
			c0.388,0,0.703,0.315,0.703,0.702v0.452C15.821,4.757,15.507,5.071,15.119,5.071z"/>
	</g>
</g>
<g id="icons">
	<g>
		<rect x="9.5" y="2.464" fill="#FFFFFF" width="0.929" height="12.071"/>
		<polygon fill="#FFFFFF" points="16,5.25 12.286,5.25 12.286,9.893 13.214,9.893 13.214,14.536 15.071,14.536 15.071,9.893 
			16,9.893 		"/>
		<polygon fill="#FFFFFF" points="6.714,5.25 4.857,5.25 3,11.75 4.857,11.75 4.857,14.536 6.714,14.536 6.714,11.75 8.571,11.75 		
			"/>
		<path fill="#FFFFFF" d="M6.012,4.321H5.56c-0.388,0-0.703-0.315-0.703-0.703V3.167c0-0.388,0.315-0.702,0.703-0.702h0.452
			c0.388,0,0.703,0.315,0.703,0.702v0.452C6.714,4.007,6.4,4.321,6.012,4.321z"/>
		<path fill="#FFFFFF" d="M14.369,4.321h-0.452c-0.388,0-0.703-0.315-0.703-0.703V3.167c0-0.388,0.315-0.702,0.703-0.702h0.452
			c0.388,0,0.703,0.315,0.703,0.702v0.452C15.071,4.007,14.757,4.321,14.369,4.321z"/>
	</g>
</g>
</svg>
