<?xml version="1.0" encoding="utf-8"?>
<!-- Generator: Adobe Illustrator 18.1.1, SVG Export Plug-In . SVG Version: 6.00 Build 0)  -->
<svg version="1.1" xmlns="http://www.w3.org/2000/svg" xmlns:xlink="http://www.w3.org/1999/xlink" x="0px" y="0px"
	 viewBox="0 0 18 18" enable-background="new 0 0 18 18" xml:space="preserve">
<g id="shadows">
	<g opacity="0.2">
		<rect x="10.3" y="3.2" width="0.9" height="12.1"/>
		<polygon points="16.7,6 13,6 13,10.6 14,10.6 14,15.3 15.8,15.3 15.8,10.6 16.7,10.6 		"/>
		<polygon points="7.5,6 5.6,6 3.8,12.5 5.6,12.5 5.6,15.3 7.5,15.3 7.5,12.5 9.3,12.5 		"/>
		<path d="M6.8,5.1H6.3c-0.4,0-0.7-0.3-0.7-0.7V3.9c0-0.4,0.3-0.7,0.7-0.7h0.5c0.4,0,0.7,0.3,0.7,0.7v0.5C7.5,4.8,7.1,5.1,6.8,5.1z"
			/>
		<path d="M15.1,5.1h-0.5c-0.4,0-0.7-0.3-0.7-0.7V3.9c0-0.4,0.3-0.7,0.7-0.7h0.5c0.4,0,0.7,0.3,0.7,0.7v0.5
			C15.8,4.8,15.5,5.1,15.1,5.1z"/>
	</g>
</g>
<g id="icons">
	<g>
		<rect x="9.5" y="2.5" width="0.9" height="12.1"/>
		<polygon points="16,5.2 12.3,5.2 12.3,9.9 13.2,9.9 13.2,14.5 15.1,14.5 15.1,9.9 16,9.9 		"/>
		<polygon points="6.7,5.2 4.9,5.2 3,11.8 4.9,11.8 4.9,14.5 6.7,14.5 6.7,11.8 8.6,11.8 		"/>
		<path d="M6,4.3H5.6C5.2,4.3,4.9,4,4.9,3.6V3.2c0-0.4,0.3-0.7,0.7-0.7H6c0.4,0,0.7,0.3,0.7,0.7v0.5C6.7,4,6.4,4.3,6,4.3z"/>
		<path d="M14.4,4.3h-0.5c-0.4,0-0.7-0.3-0.7-0.7V3.2c0-0.4,0.3-0.7,0.7-0.7h0.5c0.4,0,0.7,0.3,0.7,0.7v0.5
			C15.1,4,14.8,4.3,14.4,4.3z"/>
	</g>
</g>
</svg>
