<?xml version="1.0" encoding="utf-8"?>
<!-- Generator: Adobe Illustrator 18.1.1, SVG Export Plug-In . SVG Version: 6.00 Build 0)  -->
<svg version="1.1" xmlns="http://www.w3.org/2000/svg" xmlns:xlink="http://www.w3.org/1999/xlink" x="0px" y="0px"
	 viewBox="0 0 12 12" enable-background="new 0 0 12 12" xml:space="preserve">
<g id="shadows">
	<g opacity="0.2">
		<rect x="6" y="1.8" width="0.6" height="8.4"/>
		<polygon points="10.5,3.7 7.9,3.7 7.9,7 8.6,7 8.6,10.2 9.9,10.2 9.9,7 10.5,7 		"/>
		<polygon points="4.1,3.7 2.8,3.7 1.5,8.3 2.8,8.3 2.8,10.2 4.1,10.2 4.1,8.3 5.4,8.3 		"/>
		<path d="M3.6,3.1H3.3C3,3.1,2.8,2.9,2.8,2.6V2.3C2.8,2,3,1.8,3.3,1.8h0.3c0.3,0,0.5,0.2,0.5,0.5v0.3C4.1,2.9,3.9,3.1,3.6,3.1z"/>
		<path d="M9.4,3.1H9.1c-0.3,0-0.5-0.2-0.5-0.5V2.3c0-0.3,0.2-0.5,0.5-0.5h0.3c0.3,0,0.5,0.2,0.5,0.5v0.3C9.9,2.9,9.6,3.1,9.4,3.1z"
			/>
	</g>
</g>
<g id="icons">
	<g>
		<rect x="5.5" y="1.3" fill="#FFFFFF" width="0.6" height="8.4"/>
		<polygon fill="#FFFFFF" points="10,3.2 7.4,3.2 7.4,6.5 8.1,6.5 8.1,9.7 9.4,9.7 9.4,6.5 10,6.5 		"/>
		<polygon fill="#FFFFFF" points="3.6,3.2 2.3,3.2 1,7.8 2.3,7.8 2.3,9.7 3.6,9.7 3.6,7.8 4.9,7.8 		"/>
		<path fill="#FFFFFF" d="M3.1,2.6H2.8c-0.3,0-0.5-0.2-0.5-0.5V1.8c0-0.3,0.2-0.5,0.5-0.5h0.3c0.3,0,0.5,0.2,0.5,0.5v0.3
			C3.6,2.4,3.4,2.6,3.1,2.6z"/>
		<path fill="#FFFFFF" d="M8.9,2.6H8.6c-0.3,0-0.5-0.2-0.5-0.5V1.8c0-0.3,0.2-0.5,0.5-0.5h0.3c0.3,0,0.5,0.2,0.5,0.5v0.3
			C9.4,2.4,9.1,2.6,8.9,2.6z"/>
	</g>
</g>
</svg>
