<?xml version="1.0" encoding="utf-8"?>
<!-- Generator: Adobe Illustrator 18.0.0, SVG Export Plug-In . SVG Version: 6.00 Build 0)  -->
<!DOCTYPE svg PUBLIC "-//W3C//DTD SVG 1.1//EN" "http://www.w3.org/Graphics/SVG/1.1/DTD/svg11.dtd" [
	<!ENTITY ns_flows "http://ns.adobe.com/Flows/1.0/">
	<!ENTITY ns_extend "http://ns.adobe.com/Extensibility/1.0/">
	<!ENTITY ns_ai "http://ns.adobe.com/AdobeIllustrator/10.0/">
	<!ENTITY ns_graphs "http://ns.adobe.com/Graphs/1.0/">
	<!ENTITY st0 "opacity:0.1;">
	<!ENTITY st1 "fill:#010101;">
	<!ENTITY st2 "opacity:0.2;">
]>
<svg version="1.1" id="Layer_1" xmlns:x="&ns_extend;" xmlns:i="&ns_ai;" xmlns:graph="&ns_graphs;"
	 xmlns="http://www.w3.org/2000/svg" xmlns:xlink="http://www.w3.org/1999/xlink" xmlns:a="http://ns.adobe.com/AdobeSVGViewerExtensions/3.0/"
	 x="0px" y="0px" width="24px" height="20px" viewBox="0 0 24 20" style="enable-background:new 0 0 24 20;" xml:space="preserve">
<g style="&st0;">
	<rect x="13" y="2" style="&st1;" width="2" height="18"/>
	<polygon style="&st1;" points="23,7 23,6 22,6 21,6 20,6 19,6 18,6 18,7 17,7 17,8 17,13 18,13 18,8 19,8 19,20 20,20 20,14 21,14 
		21,20 22,20 22,8 23,8 23,13 24,13 24,8 24,7 	"/>
	<polygon style="&st1;" points="10,7 8,6 5,6 3,7 3,8 2,12 3,12 4,8 5,8 5,9 3,15 5,15 5,20 6,20 6,15 7,15 7,20 8,20 8,15 10,15 
		8,9 8,8 9,8 10,12 11,12 10,8 	"/>
	<circle style="&st1;" cx="6.5" cy="3.5" r="1.5"/>
	<circle style="&st1;" cx="20.5" cy="3.5" r="1.5"/>
</g>
<g style="&st2;">
	<rect x="12" y="1" style="&st1;" width="2" height="18"/>
	<polygon style="&st1;" points="22,6 22,5 21,5 20,5 19,5 18,5 17,5 17,6 16,6 16,7 16,12 17,12 17,7 18,7 18,19 19,19 19,13 20,13 
		20,19 21,19 21,7 22,7 22,12 23,12 23,7 23,6 	"/>
	<polygon style="&st1;" points="9,6 7,5 4,5 2,6 2,7 1,11 2,11 3,7 4,7 4,8 2,14 4,14 4,19 5,19 5,14 6,14 6,19 7,19 7,14 9,14 7,8 
		7,7 8,7 9,11 10,11 9,7 	"/>
	<circle style="&st1;" cx="5.5" cy="2.5" r="1.5"/>
	<circle style="&st1;" cx="19.5" cy="2.5" r="1.5"/>
</g>
<g>
	<rect x="11" style="&st1;" width="2" height="18"/>
	<polygon style="&st1;" points="21,5 21,4 20,4 19,4 18,4 17,4 16,4 16,5 15,5 15,6 15,11 16,11 16,6 17,6 17,18 18,18 18,12 19,12 
		19,18 20,18 20,6 21,6 21,11 22,11 22,6 22,5 	"/>
	<polygon style="&st1;" points="8,5 6,4 3,4 1,5 1,6 0,10 1,10 2,6 3,6 3,7 1,13 3,13 3,18 4,18 4,13 5,13 5,18 6,18 6,13 8,13 6,7 
		6,6 7,6 8,10 9,10 8,6 	"/>
	<circle style="&st1;" cx="4.5" cy="1.5" r="1.5"/>
	<circle style="&st1;" cx="18.5" cy="1.5" r="1.5"/>
</g>
</svg>
