<?xml version="1.0" encoding="utf-8"?>
<!-- Generator: Adobe Illustrator 18.1.1, SVG Export Plug-In . SVG Version: 6.00 Build 0)  -->
<svg version="1.1" xmlns="http://www.w3.org/2000/svg" xmlns:xlink="http://www.w3.org/1999/xlink" x="0px" y="0px"
	 viewBox="0 0 12 12" enable-background="new 0 0 12 12" xml:space="preserve">
<g id="shadows">
	<g opacity="0.2">
		<rect x="7" y="1.821" width="0.643" height="8.357"/>
		<polygon points="11.5,3.75 8.928,3.75 8.928,6.964 9.571,6.964 9.571,10.179 10.857,10.179 10.857,6.964 11.5,6.964 		"/>
		<polygon points="5.072,3.75 3.786,3.75 2.5,8.25 3.786,8.25 3.786,10.179 5.072,10.179 5.072,8.25 6.357,8.25 		"/>
		<path d="M4.585,3.107H4.272c-0.269,0-0.486-0.218-0.486-0.487V2.308c0-0.268,0.218-0.486,0.486-0.486h0.313
			c0.269,0,0.486,0.218,0.486,0.486V2.62C5.072,2.889,4.854,3.107,4.585,3.107z"/>
		<path d="M10.371,3.107h-0.313c-0.269,0-0.486-0.218-0.486-0.487V2.308c0-0.268,0.218-0.486,0.486-0.486h0.313
			c0.269,0,0.486,0.218,0.486,0.486V2.62C10.857,2.889,10.639,3.107,10.371,3.107z"/>
	</g>
</g>
<g id="icons">
	<g>
		<rect x="6.5" y="1.321" width="0.643" height="8.357"/>
		<polygon points="11,3.25 8.428,3.25 8.428,6.464 9.071,6.464 9.071,9.679 10.357,9.679 10.357,6.464 11,6.464 		"/>
		<polygon points="4.572,3.25 3.286,3.25 2,7.75 3.286,7.75 3.286,9.679 4.572,9.679 4.572,7.75 5.857,7.75 		"/>
		<path d="M4.085,2.607H3.772c-0.269,0-0.486-0.218-0.486-0.487V1.808c0-0.268,0.218-0.486,0.486-0.486h0.313
			c0.269,0,0.486,0.218,0.486,0.486V2.12C4.572,2.389,4.354,2.607,4.085,2.607z"/>
		<path d="M9.871,2.607H9.558c-0.269,0-0.486-0.218-0.486-0.487V1.808c0-0.268,0.218-0.486,0.486-0.486h0.313
			c0.269,0,0.486,0.218,0.486,0.486V2.12C10.357,2.389,10.139,2.607,9.871,2.607z"/>
	</g>
</g>
</svg>
