<?xml version="1.0" encoding="utf-8"?>
<!-- Generator: Adobe Illustrator 18.1.1, SVG Export Plug-In . SVG Version: 6.00 Build 0)  -->
<svg version="1.1" xmlns="http://www.w3.org/2000/svg" xmlns:xlink="http://www.w3.org/1999/xlink" x="0px" y="0px"
	 viewBox="0 0 24 24" enable-background="new 0 0 24 24" xml:space="preserve">
<g id="shadows">
	<g opacity="0.2">
		<rect x="13.5" y="5.5" width="1.5" height="13.9"/>
		<polygon points="21.2,9.4 21.2,8.6 20.5,8.6 19.7,8.6 18.9,8.6 18.1,8.6 17.4,8.6 17.4,9.4 16.6,9.4 16.6,10.2 16.6,14 17.4,14 
			17.4,10.2 18.1,10.2 18.1,19.5 18.9,19.5 18.9,14.8 19.7,14.8 19.7,19.5 20.5,19.5 20.5,10.2 21.2,10.2 21.2,14 22,14 22,10.2 
			22,9.4 		"/>
		<polygon points="11.2,9.4 9.6,8.6 7.3,8.6 5.8,9.4 5.8,10.2 5,13.3 5.8,13.3 6.5,10.2 7.3,10.2 7.3,11 5.8,15.6 7.3,15.6 
			7.3,19.5 8.1,19.5 8.1,15.6 8.9,15.6 8.9,19.5 9.6,19.5 9.6,15.6 11.2,15.6 9.6,11 9.6,10.2 10.4,10.2 11.2,13.3 12,13.3 
			11.2,10.2 		"/>
		<circle cx="8.5" cy="6.7" r="1.2"/>
		<circle cx="19.3" cy="6.7" r="1.2"/>
	</g>
</g>
<g id="icons">
	<g>
		<rect x="12.5" y="4.5" width="1.5" height="13.9"/>
		<polygon points="20.2,8.4 20.2,7.6 19.5,7.6 18.7,7.6 17.9,7.6 17.1,7.6 16.4,7.6 16.4,8.4 15.6,8.4 15.6,9.2 15.6,13 16.4,13 
			16.4,9.2 17.1,9.2 17.1,18.5 17.9,18.5 17.9,13.8 18.7,13.8 18.7,18.5 19.5,18.5 19.5,9.2 20.2,9.2 20.2,13 21,13 21,9.2 21,8.4 
					"/>
		<polygon points="10.2,8.4 8.6,7.6 6.3,7.6 4.8,8.4 4.8,9.2 4,12.3 4.8,12.3 5.5,9.2 6.3,9.2 6.3,10 4.8,14.6 6.3,14.6 6.3,18.5 
			7.1,18.5 7.1,14.6 7.9,14.6 7.9,18.5 8.6,18.5 8.6,14.6 10.2,14.6 8.6,10 8.6,9.2 9.4,9.2 10.2,12.3 11,12.3 10.2,9.2 		"/>
		<circle cx="7.5" cy="5.7" r="1.2"/>
		<circle cx="18.3" cy="5.7" r="1.2"/>
	</g>
</g>
</svg>
