<?xml version="1.0" encoding="utf-8"?>
<!-- Generator: Adobe Illustrator 18.1.1, SVG Export Plug-In . SVG Version: 6.00 Build 0)  -->
<svg version="1.1" xmlns="http://www.w3.org/2000/svg" xmlns:xlink="http://www.w3.org/1999/xlink" x="0px" y="0px"
	 viewBox="0 0 24 24" enable-background="new 0 0 24 24" xml:space="preserve">
<g id="shadows">
	<g opacity="0.2">
		<rect x="13.5" y="5.545" width="1.545" height="13.909"/>
		<polygon points="21.227,9.409 21.227,8.636 20.455,8.636 19.682,8.636 18.909,8.636 18.136,8.636 17.364,8.636 17.364,9.409 
			16.591,9.409 16.591,10.182 16.591,14.045 17.364,14.045 17.364,10.182 18.136,10.182 18.136,19.455 18.909,19.455 18.909,14.818 
			19.682,14.818 19.682,19.455 20.455,19.455 20.455,10.182 21.227,10.182 21.227,14.045 22,14.045 22,10.182 22,9.409 		"/>
		<polygon points="11.182,9.409 9.636,8.636 7.318,8.636 5.773,9.409 5.773,10.182 5,13.273 5.773,13.273 6.546,10.182 
			7.318,10.182 7.318,10.955 5.773,15.591 7.318,15.591 7.318,19.455 8.091,19.455 8.091,15.591 8.864,15.591 8.864,19.455 
			9.636,19.455 9.636,15.591 11.182,15.591 9.636,10.955 9.636,10.182 10.409,10.182 11.182,13.273 11.955,13.273 11.182,10.182 		
			"/>
		<circle cx="8.477" cy="6.705" r="1.159"/>
		<circle cx="19.295" cy="6.705" r="1.159"/>
	</g>
</g>
<g id="icons">
	<g>
		<rect x="12.5" y="4.545" fill="#FFFFFF" width="1.545" height="13.909"/>
		<polygon fill="#FFFFFF" points="20.227,8.409 20.227,7.636 19.455,7.636 18.682,7.636 17.909,7.636 17.136,7.636 16.364,7.636 
			16.364,8.409 15.591,8.409 15.591,9.182 15.591,13.045 16.364,13.045 16.364,9.182 17.136,9.182 17.136,18.455 17.909,18.455 
			17.909,13.818 18.682,13.818 18.682,18.455 19.455,18.455 19.455,9.182 20.227,9.182 20.227,13.045 21,13.045 21,9.182 21,8.409 
					"/>
		<polygon fill="#FFFFFF" points="10.182,8.409 8.636,7.636 6.318,7.636 4.773,8.409 4.773,9.182 4,12.273 4.773,12.273 
			5.546,9.182 6.318,9.182 6.318,9.955 4.773,14.591 6.318,14.591 6.318,18.455 7.091,18.455 7.091,14.591 7.864,14.591 
			7.864,18.455 8.636,18.455 8.636,14.591 10.182,14.591 8.636,9.955 8.636,9.182 9.409,9.182 10.182,12.273 10.955,12.273 
			10.182,9.182 		"/>
		<circle fill="#FFFFFF" cx="7.477" cy="5.705" r="1.159"/>
		<circle fill="#FFFFFF" cx="18.295" cy="5.705" r="1.159"/>
	</g>
</g>
</svg>
