<?xml version="1.0" encoding="UTF-8" standalone="no"?>
<svg width="18px" height="18px" viewBox="0 0 18 18" version="1.1" xmlns="http://www.w3.org/2000/svg" xmlns:xlink="http://www.w3.org/1999/xlink" xmlns:sketch="http://www.bohemiancoding.com/sketch/ns">
    <!-- Generator: Sketch 3.2.2 (9983) - http://www.bohemiancoding.com/sketch -->
    <title>restrooms-black-18</title>
    <desc>Created with Sketch.</desc>
    <defs></defs>
    <g id="Page-1" stroke="none" stroke-width="1" fill="none" fill-rule="evenodd" sketch:type="MSPage">
        <g id="Group-+-Group-+-Group" sketch:type="MSLayerGroup" transform="translate(-1.000000, 1.000000)" fill="#0A0B09">
            <g id="Group" transform="translate(2.300003, 2.000000)" opacity="0.1" sketch:type="MSShapeGroup">
                <path d="M8.88888889,0.054604727 L10.3703704,0.054604727 L10.3703704,13.193969 L8.88888889,13.193969 L8.88888889,0.054604727 Z" id="Fill-537"></path>
                <path d="M16.2962963,3.70442814 L16.2962963,2.97446346 L12.5925926,2.97446346 L12.5925926,3.70442814 L11.8518519,3.70442814 L11.8518519,8.08421625 L12.5925926,8.08421625 L12.5925926,4.43439283 L13.3333333,4.43439283 L13.3333333,13.193969 L14.0740741,13.193969 L14.0740741,8.81418093 L14.8148148,8.81418093 L14.8148148,13.193969 L15.5555556,13.193969 L15.5555556,4.43439283 L16.2962963,4.43439283 L16.2962963,8.08421625 L17.037037,8.08421625 L17.037037,3.70442814 L16.2962963,3.70442814" id="Fill-538"></path>
                <path d="M6.66666667,3.70442814 L5.18518519,2.97446346 L2.96296296,2.97446346 L1.48148148,3.70442814 L1.48148148,4.43439283 L0.740740741,7.35425156 L1.48148148,7.35425156 L2.22222222,4.43439283 L2.96296296,4.43439283 L2.96296296,5.16435751 L1.48148148,9.54414561 L2.96296296,9.54414561 L2.96296296,13.193969 L3.7037037,13.193969 L3.7037037,9.54414561 L4.44444444,9.54414561 L4.44444444,13.193969 L5.18518519,13.193969 L5.18518519,9.54414561 L6.66666667,9.54414561 L5.18518519,5.16435751 L5.18518519,4.43439283 L5.92592593,4.43439283 L6.66666667,7.35425156 L7.40740741,7.35425156 L6.66666667,4.43439283 L6.66666667,3.70442814" id="Fill-539"></path>
                <path d="M5.18518519,1.14955175 C5.18518519,1.75542244 4.68888889,2.24449878 4.07407407,2.24449878 C3.45925926,2.24449878 2.96296296,1.75542244 2.96296296,1.14955175 C2.96296296,0.543681065 3.45925926,0.054604727 4.07407407,0.054604727 C4.68888889,0.054604727 5.18518519,0.543681065 5.18518519,1.14955175" id="Fill-540"></path>
                <path d="M15.5555556,1.14955175 C15.5555556,1.75542244 15.0592593,2.24449878 14.4444444,2.24449878 C13.8296296,2.24449878 13.3333333,1.75542244 13.3333333,1.14955175 C13.3333333,0.543681065 13.8296296,0.054604727 14.4444444,0.054604727 C15.0592593,0.054604727 15.5555556,0.543681065 15.5555556,1.14955175" id="Fill-541"></path>
            </g>
            <g id="Group" transform="translate(1.300003, 1.000000)" opacity="0.2" sketch:type="MSShapeGroup">
                <path d="M8.88888889,0.054604727 L10.3703704,0.054604727 L10.3703704,13.193969 L8.88888889,13.193969 L8.88888889,0.054604727 Z" id="Fill-537"></path>
                <path d="M16.2962963,3.70442814 L16.2962963,2.97446346 L12.5925926,2.97446346 L12.5925926,3.70442814 L11.8518519,3.70442814 L11.8518519,8.08421625 L12.5925926,8.08421625 L12.5925926,4.43439283 L13.3333333,4.43439283 L13.3333333,13.193969 L14.0740741,13.193969 L14.0740741,8.81418093 L14.8148148,8.81418093 L14.8148148,13.193969 L15.5555556,13.193969 L15.5555556,4.43439283 L16.2962963,4.43439283 L16.2962963,8.08421625 L17.037037,8.08421625 L17.037037,3.70442814 L16.2962963,3.70442814" id="Fill-538"></path>
                <path d="M6.66666667,3.70442814 L5.18518519,2.97446346 L2.96296296,2.97446346 L1.48148148,3.70442814 L1.48148148,4.43439283 L0.740740741,7.35425156 L1.48148148,7.35425156 L2.22222222,4.43439283 L2.96296296,4.43439283 L2.96296296,5.16435751 L1.48148148,9.54414561 L2.96296296,9.54414561 L2.96296296,13.193969 L3.7037037,13.193969 L3.7037037,9.54414561 L4.44444444,9.54414561 L4.44444444,13.193969 L5.18518519,13.193969 L5.18518519,9.54414561 L6.66666667,9.54414561 L5.18518519,5.16435751 L5.18518519,4.43439283 L5.92592593,4.43439283 L6.66666667,7.35425156 L7.40740741,7.35425156 L6.66666667,4.43439283 L6.66666667,3.70442814" id="Fill-539"></path>
                <path d="M5.18518519,1.14955175 C5.18518519,1.75542244 4.68888889,2.24449878 4.07407407,2.24449878 C3.45925926,2.24449878 2.96296296,1.75542244 2.96296296,1.14955175 C2.96296296,0.543681065 3.45925926,0.054604727 4.07407407,0.054604727 C4.68888889,0.054604727 5.18518519,0.543681065 5.18518519,1.14955175" id="Fill-540"></path>
                <path d="M15.5555556,1.14955175 C15.5555556,1.75542244 15.0592593,2.24449878 14.4444444,2.24449878 C13.8296296,2.24449878 13.3333333,1.75542244 13.3333333,1.14955175 C13.3333333,0.543681065 13.8296296,0.054604727 14.4444444,0.054604727 C15.0592593,0.054604727 15.5555556,0.543681065 15.5555556,1.14955175" id="Fill-541"></path>
            </g>
            <g id="Group" transform="translate(0.300003, 0.000000)" sketch:type="MSShapeGroup">
                <path d="M8.88888889,0.054604727 L10.3703704,0.054604727 L10.3703704,13.193969 L8.88888889,13.193969 L8.88888889,0.054604727 Z" id="Fill-537"></path>
                <path d="M16.2962963,3.70442814 L16.2962963,2.97446346 L12.5925926,2.97446346 L12.5925926,3.70442814 L11.8518519,3.70442814 L11.8518519,8.08421625 L12.5925926,8.08421625 L12.5925926,4.43439283 L13.3333333,4.43439283 L13.3333333,13.193969 L14.0740741,13.193969 L14.0740741,8.81418093 L14.8148148,8.81418093 L14.8148148,13.193969 L15.5555556,13.193969 L15.5555556,4.43439283 L16.2962963,4.43439283 L16.2962963,8.08421625 L17.037037,8.08421625 L17.037037,3.70442814 L16.2962963,3.70442814" id="Fill-538"></path>
                <path d="M6.66666667,3.70442814 L5.18518519,2.97446346 L2.96296296,2.97446346 L1.48148148,3.70442814 L1.48148148,4.43439283 L0.740740741,7.35425156 L1.48148148,7.35425156 L2.22222222,4.43439283 L2.96296296,4.43439283 L2.96296296,5.16435751 L1.48148148,9.54414561 L2.96296296,9.54414561 L2.96296296,13.193969 L3.7037037,13.193969 L3.7037037,9.54414561 L4.44444444,9.54414561 L4.44444444,13.193969 L5.18518519,13.193969 L5.18518519,9.54414561 L6.66666667,9.54414561 L5.18518519,5.16435751 L5.18518519,4.43439283 L5.92592593,4.43439283 L6.66666667,7.35425156 L7.40740741,7.35425156 L6.66666667,4.43439283 L6.66666667,3.70442814" id="Fill-539"></path>
                <path d="M5.18518519,1.14955175 C5.18518519,1.75542244 4.68888889,2.24449878 4.07407407,2.24449878 C3.45925926,2.24449878 2.96296296,1.75542244 2.96296296,1.14955175 C2.96296296,0.543681065 3.45925926,0.054604727 4.07407407,0.054604727 C4.68888889,0.054604727 5.18518519,0.543681065 5.18518519,1.14955175" id="Fill-540"></path>
                <path d="M15.5555556,1.14955175 C15.5555556,1.75542244 15.0592593,2.24449878 14.4444444,2.24449878 C13.8296296,2.24449878 13.3333333,1.75542244 13.3333333,1.14955175 C13.3333333,0.543681065 13.8296296,0.054604727 14.4444444,0.054604727 C15.0592593,0.054604727 15.5555556,0.543681065 15.5555556,1.14955175" id="Fill-541"></path>
            </g>
        </g>
    </g>
</svg>