<?xml version="1.0" encoding="UTF-8" standalone="no"?>
<!-- Created with Inkscape (http://www.inkscape.org/) -->

<svg
   xmlns:dc="http://purl.org/dc/elements/1.1/"
   xmlns:cc="http://creativecommons.org/ns#"
   xmlns:rdf="http://www.w3.org/1999/02/22-rdf-syntax-ns#"
   xmlns:svg="http://www.w3.org/2000/svg"
   xmlns="http://www.w3.org/2000/svg"
   xmlns:inkscape="http://www.inkscape.org/namespaces/inkscape"
   version="1.1"
   width="18"
   height="18"
   id="svg4619">
  <defs
     id="defs4621" />
  <metadata
     id="metadata4624">
    <rdf:RDF>
      <cc:Work
         rdf:about="">
        <dc:format>image/svg+xml</dc:format>
        <dc:type
           rdf:resource="http://purl.org/dc/dcmitype/StillImage" />
        <dc:title />
      </cc:Work>
    </rdf:RDF>
  </metadata>
  <g
     transform="translate(0,-1034.3622)"
     id="layer1">
    <g
       transform="translate(-108,-280)"
       id="roadblock-18"
       style="display:inline">
      <path
         d="m 117.5,1316.3622 c -3.58985,0 -6.5,2.9102 -6.5,6.5 0,3.5899 2.91015,6.5 6.5,6.5 3.58985,0 6.5,-2.9101 6.5,-6.5 0,-3.5898 -2.91015,-6.5 -6.5,-6.5 z m -3.5,6 7,0 0,2 -7,0 z"
         inkscape:connector-curvature="0"
         id="path7225"
         style="opacity:0.3;color:#000000;fill:#ffffff;fill-opacity:1;fill-rule:nonzero;stroke:#ffffff;stroke-width:2;stroke-linecap:round;stroke-linejoin:round;stroke-miterlimit:4;stroke-opacity:1;stroke-dasharray:none;stroke-dashoffset:0;marker:none;visibility:visible;display:inline;overflow:visible;enable-background:accumulate" />
      <path
         d="m 117.5,1316.3622 c -3.58985,0 -6.5,2.9102 -6.5,6.5 0,3.5899 2.91015,6.5 6.5,6.5 3.58985,0 6.5,-2.9101 6.5,-6.5 0,-3.5898 -2.91015,-6.5 -6.5,-6.5 z m -3.5,6 7,0 0,2 -7,0 z"
         inkscape:connector-curvature="0"
         id="path8564-0-4-4"
         style="color:#000000;fill:#444444;fill-opacity:1;fill-rule:nonzero;stroke:none;stroke-width:2;marker:none;visibility:visible;display:inline;overflow:visible;enable-background:accumulate" />
    </g>
  </g>
  <rect
     width="18"
     height="18"
     x="0"
     y="0"
     id="canvas"
     style="fill:none;stroke:none;visibility:hidden" />
</svg>
