<?xml version="1.0" encoding="UTF-8" standalone="no"?>
<!-- Created with Inkscape (http://www.inkscape.org/) -->

<svg
   xmlns:dc="http://purl.org/dc/elements/1.1/"
   xmlns:cc="http://creativecommons.org/ns#"
   xmlns:rdf="http://www.w3.org/1999/02/22-rdf-syntax-ns#"
   xmlns:svg="http://www.w3.org/2000/svg"
   xmlns="http://www.w3.org/2000/svg"
   xmlns:sodipodi="http://sodipodi.sourceforge.net/DTD/sodipodi-0.dtd"
   xmlns:inkscape="http://www.inkscape.org/namespaces/inkscape"
   width="18"
   height="18"
   id="svg4619"
   version="1.1"
   inkscape:version="0.48.2 r9819"
   sodipodi:docname="rocket-18.svg"
   inkscape:export-filename="renders/rocket-18@2x.png"
   inkscape:export-xdpi="180"
   inkscape:export-ydpi="180">
  <defs
     id="defs4621" />
  <sodipodi:namedview
     id="base"
     pagecolor="#ffffff"
     bordercolor="#666666"
     borderopacity="1.0"
     inkscape:pageopacity="0.0"
     inkscape:pageshadow="2"
     inkscape:zoom="11.313708"
     inkscape:cx="25.777509"
     inkscape:cy="5.4136894"
     inkscape:document-units="px"
     inkscape:current-layer="layer1"
     showgrid="true"
     showguides="true"
     inkscape:guide-bbox="true"
     inkscape:window-width="1920"
     inkscape:window-height="948"
     inkscape:window-x="25"
     inkscape:window-y="0"
     inkscape:window-maximized="0"
     inkscape:snap-bbox="true">
    <inkscape:grid
       type="xygrid"
       id="grid4627"
       empspacing="5"
       visible="true"
       enabled="true"
       snapvisiblegridlinesonly="true" />
    <sodipodi:guide
       orientation="0,1"
       position="18,18"
       id="guide4659" />
    <sodipodi:guide
       orientation="1,0"
       position="18,9"
       id="guide4661" />
    <sodipodi:guide
       orientation="0,1"
       position="16,17"
       id="guide4663" />
    <sodipodi:guide
       orientation="1,0"
       position="17,14"
       id="guide4665" />
    <sodipodi:guide
       orientation="1,0"
       position="0,16"
       id="guide4667" />
    <sodipodi:guide
       orientation="0,1"
       position="8,0"
       id="guide4669" />
    <sodipodi:guide
       orientation="1,0"
       position="2,10"
       id="guide4671" />
    <sodipodi:guide
       orientation="0,1"
       position="12,2"
       id="guide4673" />
  </sodipodi:namedview>
  <metadata
     id="metadata4624">
    <rdf:RDF>
      <cc:Work
         rdf:about="">
        <dc:format>image/svg+xml</dc:format>
        <dc:type
           rdf:resource="http://purl.org/dc/dcmitype/StillImage" />
        <dc:title />
      </cc:Work>
    </rdf:RDF>
  </metadata>
  <g
     inkscape:label="Layer 1"
     inkscape:groupmode="layer"
     id="layer1"
     transform="translate(0,-1034.3622)">
    <path
       sodipodi:nodetypes="csccccccssssscccccccccc"
       inkscape:connector-curvature="0"
       id="path4497"
       d="m 15,1037.3622 c -1.155098,-0.047 -3.488705,0.4888 -6,3 -2.152538,2.1525 -3,5 -3,5 0,0.7174 1.2824874,2 2,2 0,0 2.847462,-0.8474 5,-3 2.234442,-2.2344 2.679746,-4.496 3,-6 l 0,-1 z m -2.232233,3.2323 c 0.488155,0.4881 0.488155,1.2796 0,1.7677 -0.488155,0.4882 -1.279612,0.4882 -1.767767,0 -0.488155,-0.4881 -0.488155,-1.2796 0,-1.7677 0.488155,-0.4882 1.279612,-0.4882 1.767767,0 z M 5,1041.3622 l -1.5,3 2.25,0 1.25,-3 z m 7,5 -3,1.25 0,2.25 3,-1.5 z"
       style="fill:none;fill-opacity:1;stroke:#ffffff;opacity:0.29999999999999999;color:#000000;stroke-width:2;stroke-linecap:round;stroke-linejoin:round;stroke-miterlimit:4;stroke-opacity:1;stroke-dasharray:none;stroke-dashoffset:0;marker:none;visibility:visible;display:inline;overflow:visible;enable-background:accumulate" />
    <path
       style="fill:#444444;fill-opacity:1;stroke:none"
       d="m 15,1037.3622 c -1.155098,-0.047 -3.488705,0.4888 -6,3 -2.152538,2.1525 -3,5 -3,5 0,0.7174 1.2824874,2 2,2 0,0 2.847462,-0.8474 5,-3 2.234442,-2.2344 2.679746,-4.496 3,-6 l 0,-1 z m -2.232233,3.2323 c 0.488155,0.4881 0.488155,1.2796 0,1.7677 -0.488155,0.4882 -1.279612,0.4882 -1.767767,0 -0.488155,-0.4881 -0.488155,-1.2796 0,-1.7677 0.488155,-0.4882 1.279612,-0.4882 1.767767,0 z M 5,1041.3622 l -1.5,3 2.25,0 1.25,-3 z m 7,5 -3,1.25 0,2.25 3,-1.5 z"
       id="path3088-77"
       inkscape:connector-curvature="0"
       sodipodi:nodetypes="csccccccssssscccccccccc" />
  </g>
</svg>
