<?xml version="1.0" encoding="UTF-8" standalone="no"?>
<!-- Created with Inkscape (http://www.inkscape.org/) -->

<svg
   xmlns:dc="http://purl.org/dc/elements/1.1/"
   xmlns:cc="http://creativecommons.org/ns#"
   xmlns:rdf="http://www.w3.org/1999/02/22-rdf-syntax-ns#"
   xmlns:svg="http://www.w3.org/2000/svg"
   xmlns="http://www.w3.org/2000/svg"
   xmlns:sodipodi="http://sodipodi.sourceforge.net/DTD/sodipodi-0.dtd"
   xmlns:inkscape="http://www.inkscape.org/namespaces/inkscape"
   width="24"
   height="24"
   id="svg4460"
   version="1.1"
   inkscape:version="0.48.2 r9819"
   sodipodi:docname="rocket-24.svg"
   inkscape:export-filename="renders/rocket-24.png"
   inkscape:export-xdpi="90"
   inkscape:export-ydpi="90">
  <defs
     id="defs4462" />
  <sodipodi:namedview
     id="base"
     pagecolor="#ffffff"
     bordercolor="#666666"
     borderopacity="1.0"
     inkscape:pageopacity="0.0"
     inkscape:pageshadow="2"
     inkscape:zoom="22.627417"
     inkscape:cx="16.4821"
     inkscape:cy="9.0233433"
     inkscape:document-units="px"
     inkscape:current-layer="layer1"
     showgrid="true"
     showguides="false"
     inkscape:guide-bbox="true"
     inkscape:window-width="1920"
     inkscape:window-height="948"
     inkscape:window-x="58"
     inkscape:window-y="79"
     inkscape:window-maximized="0"
     inkscape:snap-bbox="true">
    <inkscape:grid
       type="xygrid"
       id="grid4468"
       empspacing="5"
       visible="true"
       enabled="true"
       snapvisiblegridlinesonly="true" />
    <sodipodi:guide
       orientation="1,0"
       position="0,20"
       id="guide4470" />
    <sodipodi:guide
       orientation="0,1"
       position="4,24"
       id="guide4472" />
    <sodipodi:guide
       orientation="1,0"
       position="24,13"
       id="guide4474" />
    <sodipodi:guide
       orientation="0,1"
       position="15,0"
       id="guide4476" />
    <sodipodi:guide
       orientation="1,0"
       position="23,20"
       id="guide4478" />
    <sodipodi:guide
       orientation="0,1"
       position="20,23"
       id="guide4480" />
    <sodipodi:guide
       orientation="1,0"
       position="2,5"
       id="guide4482" />
    <sodipodi:guide
       orientation="0,1"
       position="7,2"
       id="guide4484" />
    <sodipodi:guide
       orientation="1,0"
       position="13,5"
       id="guide4486" />
  </sodipodi:namedview>
  <metadata
     id="metadata4465">
    <rdf:RDF>
      <cc:Work
         rdf:about="">
        <dc:format>image/svg+xml</dc:format>
        <dc:type
           rdf:resource="http://purl.org/dc/dcmitype/StillImage" />
        <dc:title />
      </cc:Work>
    </rdf:RDF>
  </metadata>
  <g
     inkscape:label="Layer 1"
     inkscape:groupmode="layer"
     id="layer1"
     transform="translate(0,-1028.3622)">
    <path
       inkscape:export-ydpi="180.05"
       inkscape:export-xdpi="180.05"
       inkscape:export-filename="/home/aj/Ubuntu One/tmp/rocket-24@2x.png"
       sodipodi:nodetypes="ccsccsccssssscccccccccc"
       inkscape:connector-curvature="0"
       id="path3611"
       d="m 21,1032.3622 -1,0 c -2,0 -4.625247,0.6252 -7.5,3.5 -3,3 -4.5,6.5 -4.5,6.5 0,1 2,3 3,3 0,0 3.25,-1.25 6.25,-4.25 3.213814,-3.2138 3.75,-5.75 3.75,-7.75 z m -5.5,4 c 0.828427,0 1.5,0.6716 1.5,1.5 0,0.8284 -0.671573,1.5 -1.5,1.5 -0.828427,0 -1.5,-0.6716 -1.5,-1.5 0,-0.8284 0.671573,-1.5 1.5,-1.5 z m -9.5,2 -1,3 2.5,0 1.75,-3 z m 9,5.75 -3,1.75 0,2.5 3,-1 z"
       style="fill:none;fill-opacity:1;stroke:#ffffff;opacity:0.29999999999999999;color:#000000;stroke-width:2;stroke-linecap:round;stroke-linejoin:round;stroke-miterlimit:4;stroke-opacity:1;stroke-dasharray:none;stroke-dashoffset:0;marker:none;visibility:visible;display:inline;overflow:visible;enable-background:accumulate" />
    <path
       style="fill:#444444;fill-opacity:1;stroke:none"
       d="m 21,1032.3622 -1,0 c -2,0 -4.625247,0.6252 -7.5,3.5 -3,3 -4.5,6.5 -4.5,6.5 0,1 2,3 3,3 0,0 3.25,-1.25 6.25,-4.25 3.213814,-3.2138 3.75,-5.75 3.75,-7.75 z m -5.5,4 c 0.828427,0 1.5,0.6716 1.5,1.5 0,0.8284 -0.671573,1.5 -1.5,1.5 -0.828427,0 -1.5,-0.6716 -1.5,-1.5 0,-0.8284 0.671573,-1.5 1.5,-1.5 z m -9.5,2 -1,3 2.5,0 1.75,-3 z m 9,5.75 -3,1.75 0,2.5 3,-1 z"
       id="path3088"
       inkscape:connector-curvature="0"
       sodipodi:nodetypes="ccsccsccssssscccccccccc"
       inkscape:export-filename="/home/aj/Ubuntu One/tmp/rocket-24@2x.png"
       inkscape:export-xdpi="180.05"
       inkscape:export-ydpi="180.05" />
  </g>
</svg>
