<?xml version="1.0" encoding="utf-8"?>
<!-- Generator: Adobe Illustrator 18.0.0, SVG Export Plug-In . SVG Version: 6.00 Build 0)  -->
<!DOCTYPE svg PUBLIC "-//W3C//DTD SVG 1.1//EN" "http://www.w3.org/Graphics/SVG/1.1/DTD/svg11.dtd" [
	<!ENTITY ns_flows "http://ns.adobe.com/Flows/1.0/">
	<!ENTITY ns_extend "http://ns.adobe.com/Extensibility/1.0/">
	<!ENTITY ns_ai "http://ns.adobe.com/AdobeIllustrator/10.0/">
	<!ENTITY ns_graphs "http://ns.adobe.com/Graphs/1.0/">
	<!ENTITY st0 "opacity:0.1;">
	<!ENTITY st1 "fill:#010101;">
	<!ENTITY st2 "opacity:0.2;">
]>
<svg version="1.1" id="Layer_1" xmlns:x="&ns_extend;" xmlns:i="&ns_ai;" xmlns:graph="&ns_graphs;"
	 xmlns="http://www.w3.org/2000/svg" xmlns:xlink="http://www.w3.org/1999/xlink" xmlns:a="http://ns.adobe.com/AdobeSVGViewerExtensions/3.0/"
	 x="0px" y="0px" width="24px" height="15px" viewBox="0 0 24 15" style="enable-background:new 0 0 24 15;" xml:space="preserve">
<g style="&st0;">
	<path style="&st1;" d="M2,10h13V7l1-1h4v1h1v1h1v1h1v1l1,1v2h-1v-1h-1v-1h-3v1h-1v1h-8v-1H9v-1H6v1H5v1H2V10z M17,7v2h3V8h-1V7H17z
		"/>
	<path style="&st1;" d="M8.2,15H6.8C6.4,15,6,14.6,6,14.2v-1.4C6,12.4,6.4,12,6.8,12h1.4C8.6,12,9,12.4,9,12.8v1.4
		C9,14.6,8.6,15,8.2,15z M8,13H7v1h1V13z"/>
	<path style="&st1;" d="M21.2,15h-1.4c-0.4,0-0.8-0.4-0.8-0.8v-1.4c0-0.4,0.4-0.8,0.8-0.8h1.4c0.4,0,0.8,0.4,0.8,0.8v1.4
		C22,14.6,21.6,15,21.2,15z M21,13h-1v1h1V13z"/>
	<path style="&st1;" d="M18,4V3l-1-1H3v1H2v6h12V6h1V5h4V4H18z M4,7l1-3h5l1,3H4z M17,4h-3V3h3V4z"/>
</g>
<g style="&st2;">
	<path style="&st1;" d="M1,9h13V6l1-1h4v1h1v1h1v1h1v1l1,1v2h-1v-1h-1v-1h-3v1h-1v1H9v-1H8v-1H5v1H4v1H1V9z M16,6v2h3V7h-1V6H16z"/>
	<path style="&st1;" d="M7.2,14H5.8C5.4,14,5,13.6,5,13.2v-1.4C5,11.4,5.4,11,5.8,11h1.4C7.6,11,8,11.4,8,11.8v1.4
		C8,13.6,7.6,14,7.2,14z M7,12H6v1h1V12z"/>
	<path style="&st1;" d="M20.2,14h-1.4c-0.4,0-0.8-0.4-0.8-0.8v-1.4c0-0.4,0.4-0.8,0.8-0.8h1.4c0.4,0,0.8,0.4,0.8,0.8v1.4
		C21,13.6,20.6,14,20.2,14z M20,12h-1v1h1V12z"/>
	<path style="&st1;" d="M17,3V2l-1-1H2v1H1v6h12V5h1V4h4V3H17z M3,6l1-3h5l1,3H3z M16,3h-3V2h3V3z"/>
</g>
<g>
	<path style="&st1;" d="M0,8h13V5l1-1h4v1h1v1h1v1h1v1l1,1v2h-1v-1h-1V9h-3v1h-1v1H8v-1H7V9H4v1H3v1H0V8z M15,5v2h3V6h-1V5H15z"/>
	<path style="&st1;" d="M6.2,13H4.8C4.4,13,4,12.6,4,12.2v-1.4C4,10.4,4.4,10,4.8,10h1.4C6.6,10,7,10.4,7,10.8v1.4
		C7,12.6,6.6,13,6.2,13z M6,11H5v1h1V11z"/>
	<path style="&st1;" d="M19.2,13h-1.4c-0.4,0-0.8-0.4-0.8-0.8v-1.4c0-0.4,0.4-0.8,0.8-0.8h1.4c0.4,0,0.8,0.4,0.8,0.8v1.4
		C20,12.6,19.6,13,19.2,13z M19,11h-1v1h1V11z"/>
	<path style="&st1;" d="M16,2V1l-1-1H1v1H0v6h12V4h1V3h4V2H16z M2,5l1-3h5l1,3H2z M15,2h-3V1h3V2z"/>
</g>
</svg>
