<?xml version="1.0" encoding="utf-8"?>
<!-- Generator: Adobe Illustrator 18.1.1, SVG Export Plug-In . SVG Version: 6.00 Build 0)  -->
<svg version="1.1" xmlns="http://www.w3.org/2000/svg" xmlns:xlink="http://www.w3.org/1999/xlink" x="0px" y="0px"
	 viewBox="0 0 12 12" enable-background="new 0 0 12 12" xml:space="preserve">
<g id="shadows">
	<g opacity="0.2">
		<rect x="4.428" y="7.607" width="1.286" height="1.286"/>
		<rect x="8.929" y="7.607" width="1.286" height="1.286"/>
		<path d="M2.5,3.75l0.643-0.643h5.786V3.75H7.643L7,4.393v1.286H2.5V3.75z M5.714,5.036V4.168c0-0.231-0.187-0.418-0.418-0.418
			H3.578c-0.24,0-0.435,0.195-0.435,0.435v0.85H5.714z"/>
		<path d="M7.643,4.393h1.929v0.643h0.643v0.643h0.643v0.643L11.5,6.964V8.25h-0.643V7.607h-0.643V6.964H8.929v0.643H8.286V8.25
			H6.357V7.607H5.714V6.964H4.428v0.643H3.786V8.25H2.5V6.321h5.143V4.393z M8.286,6.321h1.286V5.679L8.929,5.036H8.286V6.321z"/>
	</g>
</g>
<g id="icons">
	<g>
		<rect x="3.928" y="7.107" width="1.286" height="1.286"/>
		<rect x="8.429" y="7.107" width="1.286" height="1.286"/>
		<path d="M2,3.25l0.643-0.643h5.786V3.25H7.143L6.5,3.893v1.286H2V3.25z M5.214,4.536V3.668c0-0.231-0.187-0.418-0.418-0.418H3.078
			c-0.24,0-0.435,0.195-0.435,0.435v0.85H5.214z"/>
		<path d="M7.143,3.893h1.929v0.643h0.643v0.643h0.643v0.643L11,6.464V7.75h-0.643V7.107H9.714V6.464H8.429v0.643H7.786V7.75H5.857
			V7.107H5.214V6.464H3.928v0.643H3.286V7.75H2V5.821h5.143V3.893z M7.786,5.821h1.286V5.179L8.429,4.536H7.786V5.821z"/>
	</g>
</g>
</svg>
