<?xml version="1.0" encoding="utf-8"?>
<!-- Generator: Adobe Illustrator 18.1.1, SVG Export Plug-In . SVG Version: 6.00 Build 0)  -->
<svg version="1.1" xmlns="http://www.w3.org/2000/svg" xmlns:xlink="http://www.w3.org/1999/xlink" x="0px" y="0px"
	 viewBox="0 0 12 12" enable-background="new 0 0 12 12" xml:space="preserve">
<g id="shadows">
	<g opacity="0.2">
		<rect x="3.4" y="7.6" width="1.3" height="1.3"/>
		<rect x="7.9" y="7.6" width="1.3" height="1.3"/>
		<path d="M1.5,3.7l0.6-0.6h5.8v0.6H6.6L6,4.4v1.3H1.5V3.7z M4.7,5V4.2c0-0.2-0.2-0.4-0.4-0.4H2.6c-0.2,0-0.4,0.2-0.4,0.4V5H4.7z"/>
		<path d="M6.6,4.4h1.9V5h0.6v0.6h0.6v0.6L10.5,7v1.3H9.9V7.6H9.2V7H7.9v0.6H7.3v0.6H5.4V7.6H4.7V7H3.4v0.6H2.8v0.6H1.5V6.3h5.1V4.4
			z M7.3,6.3h1.3V5.7L7.9,5H7.3V6.3z"/>
	</g>
</g>
<g id="icons">
	<g>
		<rect x="2.9" y="7.1" fill="#FFFFFF" width="1.3" height="1.3"/>
		<rect x="7.4" y="7.1" fill="#FFFFFF" width="1.3" height="1.3"/>
		<path fill="#FFFFFF" d="M1,3.2l0.6-0.6h5.8v0.6H6.1L5.5,3.9v1.3H1V3.2z M4.2,4.5V3.7c0-0.2-0.2-0.4-0.4-0.4H2.1
			c-0.2,0-0.4,0.2-0.4,0.4v0.9H4.2z"/>
		<path fill="#FFFFFF" d="M6.1,3.9h1.9v0.6h0.6v0.6h0.6v0.6L10,6.5v1.3H9.4V7.1H8.7V6.5H7.4v0.6H6.8v0.6H4.9V7.1H4.2V6.5H2.9v0.6
			H2.3v0.6H1V5.8h5.1V3.9z M6.8,5.8h1.3V5.2L7.4,4.5H6.8V5.8z"/>
	</g>
</g>
</svg>
