<?xml version="1.0" encoding="utf-8"?>
<!-- Generator: Adobe Illustrator 18.1.1, SVG Export Plug-In . SVG Version: 6.00 Build 0)  -->
<svg version="1.1" xmlns="http://www.w3.org/2000/svg" xmlns:xlink="http://www.w3.org/1999/xlink" x="0px" y="0px"
	 viewBox="0 0 24 24" enable-background="new 0 0 24 24" xml:space="preserve">
<g id="shadows">
	<g opacity="0.2">
		<path d="M5,13.659h10.045v-2.318l0.773-0.773h3.091v0.773h0.773v0.773h0.773v0.773h0.773v0.773L22,14.432v1.545h-0.773v-0.773
			h-0.773v-0.773h-2.318v0.773h-0.773v0.773h-6.182v-0.773h-0.773v-0.773H8.091v0.773H7.318v0.773H5V13.659z M16.591,11.341v1.545
			h2.318v-0.773h-0.773v-0.773H16.591z"/>
		<path d="M9.802,17.523H8.698c-0.335,0-0.607-0.272-0.607-0.607v-1.104c0-0.335,0.272-0.607,0.607-0.607h1.104
			c0.335,0,0.607,0.272,0.607,0.607v1.104C10.409,17.251,10.137,17.523,9.802,17.523z M9.637,15.977H8.864v0.773h0.773V15.977z"/>
		<path d="M19.847,17.523h-1.104c-0.335,0-0.607-0.272-0.607-0.607v-1.104c0-0.335,0.272-0.607,0.607-0.607h1.104
			c0.335,0,0.607,0.272,0.607,0.607v1.104C20.454,17.251,20.182,17.523,19.847,17.523z M19.682,15.977h-0.773v0.773h0.773V15.977z"
			/>
		<path d="M17.363,9.023V8.25l-0.773-0.773H5.773V8.25H5v4.636h9.272v-2.318h0.773V9.795h3.091V9.023H17.363z M6.546,11.341
			l0.773-2.318h3.863l0.773,2.318H6.546z M16.591,9.023h-2.318V8.25h2.318V9.023z"/>
	</g>
</g>
<g id="icons">
	<g>
		<path fill="#FFFFFF" d="M4,12.659h10.045v-2.318l0.773-0.773h3.091v0.773h0.773v0.773h0.773v0.773h0.773v0.773L21,13.432v1.545
			h-0.773v-0.773h-0.773v-0.773h-2.318v0.773h-0.773v0.773h-6.182v-0.773H9.409v-0.773H7.091v0.773H6.318v0.773H4V12.659z
			 M15.591,10.341v1.545h2.318v-0.773h-0.773v-0.773H15.591z"/>
		<path fill="#FFFFFF" d="M8.802,16.523H7.698c-0.335,0-0.607-0.272-0.607-0.607v-1.104c0-0.335,0.272-0.607,0.607-0.607h1.104
			c0.335,0,0.607,0.272,0.607,0.607v1.104C9.409,16.251,9.137,16.523,8.802,16.523z M8.637,14.977H7.864v0.773h0.773V14.977z"/>
		<path fill="#FFFFFF" d="M18.847,16.523h-1.104c-0.335,0-0.607-0.272-0.607-0.607v-1.104c0-0.335,0.272-0.607,0.607-0.607h1.104
			c0.335,0,0.607,0.272,0.607,0.607v1.104C19.454,16.251,19.182,16.523,18.847,16.523z M18.682,14.977h-0.773v0.773h0.773V14.977z"
			/>
		<path fill="#FFFFFF" d="M16.363,8.023V7.25l-0.773-0.773H4.773V7.25H4v4.636h9.272V9.568h0.773V8.795h3.091V8.023H16.363z
			 M5.546,10.341l0.773-2.318h3.863l0.773,2.318H5.546z M15.591,8.023h-2.318V7.25h2.318V8.023z"/>
	</g>
</g>
</svg>
