<?xml version="1.0" encoding="UTF-8" standalone="no"?>
<svg width="12px" height="12px" viewBox="0 0 12 12" version="1.1" xmlns="http://www.w3.org/2000/svg" xmlns:xlink="http://www.w3.org/1999/xlink" xmlns:sketch="http://www.bohemiancoding.com/sketch/ns">
    <!-- Generator: Sketch 3.2.2 (9983) - http://www.bohemiancoding.com/sketch -->
    <title>rv-campground-white-12</title>
    <desc>Created with Sketch.</desc>
    <defs></defs>
    <g id="Page-1" stroke="none" stroke-width="1" fill="none" fill-rule="evenodd" sketch:type="MSPage">
        <path d="M4.19999695,8.52231405 L5.61176165,8.52231405 L5.61176165,9.94269972 L4.19999695,9.94269972 L4.19999695,8.52231405 Z" id="Fill-528" opacity="0.5" fill="#0A0B09" sketch:type="MSShapeGroup"></path>
        <path d="M9.09999847,8.52231405 L10.5117632,8.52231405 L10.5117632,9.94269972 L9.09999847,9.94269972 L9.09999847,8.52231405 Z" id="Fill-529" opacity="0.5" fill="#0A0B09" sketch:type="MSShapeGroup"></path>
        <path d="M5.52941176,5.65289256 L5.52941176,4.69413223 C5.52941176,4.43846281 5.32470588,4.23250689 5.07058824,4.23250689 L3.18588235,4.23250689 C2.91764706,4.23250689 2.70588235,4.44556474 2.70588235,4.71543802 L2.70588235,5.65289256 L5.52941176,5.65289256 L5.52941176,5.65289256 Z M2,4.23250689 L2.70588235,3.52231405 L9.05882353,3.52231405 L9.05882353,4.23250689 L7.64705882,4.23250689 L6.94117647,4.94269972 L6.94117647,6.3630854 L2,6.3630854 L2,4.23250689 L2,4.23250689 Z" id="Fill-530" opacity="0.5" fill="#0A0B09" sketch:type="MSShapeGroup"></path>
        <path d="M8.35294118,7.05291698 L9.76470588,7.05291698 L9.76470588,6.34272414 L9.05882353,5.6325313 L8.35294118,5.6325313 L8.35294118,7.05291698 L8.35294118,7.05291698 Z M7.64705882,4.92233846 L9.76470588,4.92233846 L9.76470588,5.6325313 L10.4705882,5.6325313 L10.4705882,6.34272414 L11.1764706,6.34272414 L11.1764706,7.05291698 L11.8823529,7.76310981 L11.8823529,9.18349549 L11.1764706,9.18349549 L11.1764706,8.47330265 L10.4705882,8.47330265 L10.4705882,7.76310981 L9.05882353,7.76310981 L9.05882353,8.47330265 L8.35294118,8.47330265 L8.35294118,9.18349549 L6.23529412,9.18349549 L6.23529412,8.47330265 L5.52941176,8.47330265 L5.52941176,7.76310981 L4.11764706,7.76310981 L4.11764706,8.47330265 L3.41176471,8.47330265 L3.41176471,9.18349549 L2,9.18349549 L2,7.05291698 L7.64705882,7.05291698 L7.64705882,4.92233846 L7.64705882,4.92233846 Z" id="Fill-531" opacity="0.5" fill="#0A0B09" sketch:type="MSShapeGroup"></path>
        <path d="M3.19999695,7.52231405 L4.61176165,7.52231405 L4.61176165,8.94269972 L3.19999695,8.94269972 L3.19999695,7.52231405 Z" id="Fill-528" opacity="0.75" fill="#0A0B09" sketch:type="MSShapeGroup"></path>
        <path d="M8.09999847,7.52231405 L9.51176318,7.52231405 L9.51176318,8.94269972 L8.09999847,8.94269972 L8.09999847,7.52231405 Z" id="Fill-529" opacity="0.75" fill="#0A0B09" sketch:type="MSShapeGroup"></path>
        <path d="M4.52941176,4.65289256 L4.52941176,3.69413223 C4.52941176,3.43846281 4.32470588,3.23250689 4.07058824,3.23250689 L2.18588235,3.23250689 C1.91764706,3.23250689 1.70588235,3.44556474 1.70588235,3.71543802 L1.70588235,4.65289256 L4.52941176,4.65289256 L4.52941176,4.65289256 Z M1,3.23250689 L1.70588235,2.52231405 L8.05882353,2.52231405 L8.05882353,3.23250689 L6.64705882,3.23250689 L5.94117647,3.94269972 L5.94117647,5.3630854 L1,5.3630854 L1,3.23250689 L1,3.23250689 Z" id="Fill-530" opacity="0.75" fill="#0A0B09" sketch:type="MSShapeGroup"></path>
        <path d="M7.35294118,6.05291698 L8.76470588,6.05291698 L8.76470588,5.34272414 L8.05882353,4.6325313 L7.35294118,4.6325313 L7.35294118,6.05291698 L7.35294118,6.05291698 Z M6.64705882,3.92233846 L8.76470588,3.92233846 L8.76470588,4.6325313 L9.47058824,4.6325313 L9.47058824,5.34272414 L10.1764706,5.34272414 L10.1764706,6.05291698 L10.8823529,6.76310981 L10.8823529,8.18349549 L10.1764706,8.18349549 L10.1764706,7.47330265 L9.47058824,7.47330265 L9.47058824,6.76310981 L8.05882353,6.76310981 L8.05882353,7.47330265 L7.35294118,7.47330265 L7.35294118,8.18349549 L5.23529412,8.18349549 L5.23529412,7.47330265 L4.52941176,7.47330265 L4.52941176,6.76310981 L3.11764706,6.76310981 L3.11764706,7.47330265 L2.41176471,7.47330265 L2.41176471,8.18349549 L1,8.18349549 L1,6.05291698 L6.64705882,6.05291698 L6.64705882,3.92233846 L6.64705882,3.92233846 Z" id="Fill-531" opacity="0.75" fill="#0A0B09" sketch:type="MSShapeGroup"></path>
        <path d="M2.19999695,6.52231405 L3.61176165,6.52231405 L3.61176165,7.94269972 L2.19999695,7.94269972 L2.19999695,6.52231405 Z" id="Fill-528" fill="#FFFFFF" sketch:type="MSShapeGroup"></path>
        <path d="M7.09999847,6.52231405 L8.51176318,6.52231405 L8.51176318,7.94269972 L7.09999847,7.94269972 L7.09999847,6.52231405 Z" id="Fill-529" fill="#FFFFFF" sketch:type="MSShapeGroup"></path>
        <path d="M3.52941176,3.65289256 L3.52941176,2.69413223 C3.52941176,2.43846281 3.32470588,2.23250689 3.07058824,2.23250689 L1.18588235,2.23250689 C0.917647059,2.23250689 0.705882353,2.44556474 0.705882353,2.71543802 L0.705882353,3.65289256 L3.52941176,3.65289256 L3.52941176,3.65289256 Z M0,2.23250689 L0.705882353,1.52231405 L7.05882353,1.52231405 L7.05882353,2.23250689 L5.64705882,2.23250689 L4.94117647,2.94269972 L4.94117647,4.3630854 L0,4.3630854 L0,2.23250689 L0,2.23250689 Z" id="Fill-530" fill="#FFFFFF" sketch:type="MSShapeGroup"></path>
        <path d="M6.35294118,5.05291698 L7.76470588,5.05291698 L7.76470588,4.34272414 L7.05882353,3.6325313 L6.35294118,3.6325313 L6.35294118,5.05291698 L6.35294118,5.05291698 Z M5.64705882,2.92233846 L7.76470588,2.92233846 L7.76470588,3.6325313 L8.47058824,3.6325313 L8.47058824,4.34272414 L9.17647059,4.34272414 L9.17647059,5.05291698 L9.88235294,5.76310981 L9.88235294,7.18349549 L9.17647059,7.18349549 L9.17647059,6.47330265 L8.47058824,6.47330265 L8.47058824,5.76310981 L7.05882353,5.76310981 L7.05882353,6.47330265 L6.35294118,6.47330265 L6.35294118,7.18349549 L4.23529412,7.18349549 L4.23529412,6.47330265 L3.52941176,6.47330265 L3.52941176,5.76310981 L2.11764706,5.76310981 L2.11764706,6.47330265 L1.41176471,6.47330265 L1.41176471,7.18349549 L0,7.18349549 L0,5.05291698 L5.64705882,5.05291698 L5.64705882,2.92233846 L5.64705882,2.92233846 Z" id="Fill-531" fill="#FFFFFF" sketch:type="MSShapeGroup"></path>
    </g>
</svg>