<?xml version="1.0" encoding="utf-8"?>
<!-- Generator: Adobe Illustrator 18.1.1, SVG Export Plug-In . SVG Version: 6.00 Build 0)  -->
<svg version="1.1" xmlns="http://www.w3.org/2000/svg" xmlns:xlink="http://www.w3.org/1999/xlink" x="0px" y="0px"
	 viewBox="0 0 18 18" enable-background="new 0 0 18 18" xml:space="preserve">
<g id="shadows">
	<g opacity="0.2">
		<rect x="6.5" y="11.6" width="1.9" height="1.9"/>
		<rect x="13" y="11.6" width="1.9" height="1.9"/>
		<path d="M3.8,6l0.9-0.9H13V6h-1.9l-0.9,0.9v1.9H3.8V6z M8.4,7.9V6.6C8.4,6.3,8.1,6,7.8,6H5.3C5,6,4.7,6.3,4.7,6.6v1.2H8.4z"/>
		<path d="M11.2,6.9H14v0.9h0.9v0.9h0.9v0.9l0.9,0.9v1.9h-0.9v-0.9h-0.9v-0.9H13v0.9h-0.9v0.9H9.3v-0.9H8.4v-0.9H6.5v0.9H5.6v0.9
			H3.8V9.7h7.4V6.9z M12.1,9.7H14V8.8L13,7.9h-0.9V9.7z"/>
	</g>
</g>
<g id="icons">
	<g>
		<rect x="5.8" y="10.8" fill="#FFFFFF" width="1.9" height="1.9"/>
		<rect x="12.3" y="10.8" fill="#FFFFFF" width="1.9" height="1.9"/>
		<path fill="#FFFFFF" d="M3,5.2l0.9-0.9h8.4v0.9h-1.9L9.5,6.2V8H3V5.2z M7.6,7.1V5.9c0-0.3-0.3-0.6-0.6-0.6H4.6
			c-0.3,0-0.6,0.3-0.6,0.6v1.2H7.6z"/>
		<path fill="#FFFFFF" d="M10.4,6.2h2.8v0.9h0.9V8h0.9V9L16,9.9v1.9h-0.9v-0.9h-0.9V9.9h-1.9v0.9h-0.9v0.9H8.6v-0.9H7.6V9.9H5.8v0.9
			H4.9v0.9H3V9h7.4V6.2z M11.4,9h1.9V8l-0.9-0.9h-0.9V9z"/>
	</g>
</g>
</svg>
