<?xml version="1.0" encoding="utf-8"?>
<!-- Generator: Adobe Illustrator 18.1.1, SVG Export Plug-In . SVG Version: 6.00 Build 0)  -->
<svg version="1.1" xmlns="http://www.w3.org/2000/svg" xmlns:xlink="http://www.w3.org/1999/xlink" x="0px" y="0px"
	 viewBox="0 0 18 18" enable-background="new 0 0 18 18" xml:space="preserve">
<g id="shadows">
	<g opacity="0.2">
		<rect x="6.536" y="11.571" width="1.857" height="1.857"/>
		<rect x="13.036" y="11.571" width="1.857" height="1.857"/>
		<path d="M3.75,6l0.929-0.929h8.357V6h-1.857L10.25,6.929v1.857h-6.5V6z M8.393,7.857V6.603C8.393,6.27,8.123,6,7.79,6H5.307
			C4.96,6,4.679,6.282,4.679,6.629v1.228H8.393z"/>
		<path d="M11.179,6.929h2.786v0.929h0.929v0.929h0.929v0.929l0.929,0.929V12.5h-0.929v-0.929h-0.929v-0.929h-1.857v0.929h-0.929
			V12.5H9.321v-0.929H8.393v-0.929H6.536v0.929H5.607V12.5H3.75V9.714h7.428V6.929z M12.107,9.714h1.857V8.786l-0.929-0.929h-0.929
			V9.714z"/>
	</g>
</g>
<g id="icons">
	<g>
		<rect x="5.786" y="10.821" width="1.857" height="1.857"/>
		<rect x="12.286" y="10.821" width="1.857" height="1.857"/>
		<path d="M3,5.25l0.929-0.929h8.357V5.25h-1.857L9.5,6.179v1.857H3V5.25z M7.643,7.107V5.853c0-0.333-0.27-0.603-0.603-0.603H4.557
			c-0.347,0-0.629,0.282-0.629,0.629v1.228H7.643z"/>
		<path d="M10.429,6.179h2.786v0.929h0.929v0.929h0.929v0.929L16,9.893v1.857h-0.929v-0.929h-0.929V9.893h-1.857v0.929h-0.929v0.929
			H8.571v-0.929H7.643V9.893H5.786v0.929H4.857v0.929H3V8.964h7.428V6.179z M11.357,8.964h1.857V8.036l-0.929-0.929h-0.929V8.964z"
			/>
	</g>
</g>
</svg>
