<?xml version="1.0" encoding="UTF-8" standalone="no"?>
<svg width="18px" height="18px" viewBox="0 0 18 18" version="1.1" xmlns="http://www.w3.org/2000/svg" xmlns:xlink="http://www.w3.org/1999/xlink" xmlns:sketch="http://www.bohemiancoding.com/sketch/ns">
    <!-- Generator: Sketch 3.2.2 (9983) - http://www.bohemiancoding.com/sketch -->
    <title>rv-campground-black-18</title>
    <desc>Created with Sketch.</desc>
    <defs></defs>
    <g id="Page-1" stroke="none" stroke-width="1" fill="none" fill-rule="evenodd" sketch:type="MSPage">
        <g id="Group" sketch:type="MSLayerGroup" transform="translate(0.000000, 3.000000)" fill="#0A0B09">
            <path d="M13.1111111,5.64982342 L13.1111111,7.10975278 L15.3333333,7.10975278 L15.3333333,6.3797881 L14.5925926,6.3797881 L14.5925926,5.64982342 L13.1111111,5.64982342 L13.1111111,5.64982342 Z M2,7.83971747 L11.6296296,7.83971747 L11.6296296,5.64982342 L12.3703704,4.91985873 L15.3333333,4.91985873 L15.3333333,5.64982342 L16.0740741,5.64982342 L16.0740741,6.3797881 L16.8148148,6.3797881 L16.8148148,7.10975278 L17.5555556,7.10975278 L17.5555556,7.83971747 L18.2962963,8.56968215 L18.2962963,10.0296115 L17.5555556,10.0296115 L17.5555556,9.29964684 L16.8148148,9.29964684 L16.8148148,8.56968215 L14.5925926,8.56968215 L14.5925926,9.29964684 L13.8518519,9.29964684 L13.8518519,10.0296115 L7.92592593,10.0296115 L7.92592593,9.29964684 L7.18518519,9.29964684 L7.18518519,8.56968215 L4.96296296,8.56968215 L4.96296296,9.29964684 L4.22222222,9.29964684 L4.22222222,10.0296115 L2,10.0296115 L2,7.83971747 L2,7.83971747 Z" id="Fill-524" opacity="0.1" sketch:type="MSShapeGroup"></path>
            <path d="M5.7037037,10.7595762 L6.44444444,10.7595762 L6.44444444,10.0296115 L5.7037037,10.0296115 L5.7037037,10.7595762 Z M6.6,11.4895409 L5.54814815,11.4895409 C5.22222222,11.4895409 4.96296296,11.2340532 4.96296296,10.9201684 L4.96296296,9.87631894 C4.96296296,9.55513447 5.22222222,9.29964684 5.54814815,9.29964684 L6.6,9.29964684 C6.92592593,9.29964684 7.18518519,9.55513447 7.18518519,9.87631894 L7.18518519,10.9201684 C7.18518519,11.2340532 6.92592593,11.4895409 6.6,11.4895409 L6.6,11.4895409 Z" id="Fill-525" opacity="0.1" sketch:type="MSShapeGroup"></path>
            <path d="M15.3333333,10.7595762 L16.0740741,10.7595762 L16.0740741,10.0296115 L15.3333333,10.0296115 L15.3333333,10.7595762 Z M16.2296296,11.4895409 L15.1777778,11.4895409 C14.8518519,11.4895409 14.5925926,11.2340532 14.5925926,10.9201684 L14.5925926,9.87631894 C14.5925926,9.55513447 14.8518519,9.29964684 15.1777778,9.29964684 L16.2296296,9.29964684 C16.5555556,9.29964684 16.8148148,9.55513447 16.8148148,9.87631894 L16.8148148,10.9201684 C16.8148148,11.2340532 16.5555556,11.4895409 16.2296296,11.4895409 L16.2296296,11.4895409 Z" id="Fill-526" opacity="0.1" sketch:type="MSShapeGroup"></path>
            <path d="M10.8888889,2.72996468 L13.1111111,2.72996468 L13.1111111,3.45992937 L10.8888889,3.45992937 L10.8888889,2.72996468 Z M3.48148148,5.64982342 L4.22222222,3.45992937 L7.92592593,3.45992937 L8.66666667,5.64982342 L3.48148148,5.64982342 L3.48148148,5.64982342 Z M13.8518519,3.45992937 L13.8518519,2.72996468 L13.1111111,2 L2.74074074,2 L2.74074074,2.72996468 L2,2.72996468 L2,7.10975278 L10.8888889,7.10975278 L10.8888889,4.91985873 L11.6296296,4.91985873 L11.6296296,4.18989405 L14.5925926,4.18989405 L14.5925926,3.45992937 L13.8518519,3.45992937 L13.8518519,3.45992937 Z" id="Fill-527" opacity="0.1" sketch:type="MSShapeGroup"></path>
            <path d="M12.1111111,4.64982342 L12.1111111,6.10975278 L14.3333333,6.10975278 L14.3333333,5.3797881 L13.5925926,5.3797881 L13.5925926,4.64982342 L12.1111111,4.64982342 L12.1111111,4.64982342 Z M1,6.83971747 L10.6296296,6.83971747 L10.6296296,4.64982342 L11.3703704,3.91985873 L14.3333333,3.91985873 L14.3333333,4.64982342 L15.0740741,4.64982342 L15.0740741,5.3797881 L15.8148148,5.3797881 L15.8148148,6.10975278 L16.5555556,6.10975278 L16.5555556,6.83971747 L17.2962963,7.56968215 L17.2962963,9.02961152 L16.5555556,9.02961152 L16.5555556,8.29964684 L15.8148148,8.29964684 L15.8148148,7.56968215 L13.5925926,7.56968215 L13.5925926,8.29964684 L12.8518519,8.29964684 L12.8518519,9.02961152 L6.92592593,9.02961152 L6.92592593,8.29964684 L6.18518519,8.29964684 L6.18518519,7.56968215 L3.96296296,7.56968215 L3.96296296,8.29964684 L3.22222222,8.29964684 L3.22222222,9.02961152 L1,9.02961152 L1,6.83971747 L1,6.83971747 Z" id="Fill-524" opacity="0.2" sketch:type="MSShapeGroup"></path>
            <path d="M4.7037037,9.7595762 L5.44444444,9.7595762 L5.44444444,9.02961152 L4.7037037,9.02961152 L4.7037037,9.7595762 Z M5.6,10.4895409 L4.54814815,10.4895409 C4.22222222,10.4895409 3.96296296,10.2340532 3.96296296,9.92016843 L3.96296296,8.87631894 C3.96296296,8.55513447 4.22222222,8.29964684 4.54814815,8.29964684 L5.6,8.29964684 C5.92592593,8.29964684 6.18518519,8.55513447 6.18518519,8.87631894 L6.18518519,9.92016843 C6.18518519,10.2340532 5.92592593,10.4895409 5.6,10.4895409 L5.6,10.4895409 Z" id="Fill-525" opacity="0.2" sketch:type="MSShapeGroup"></path>
            <path d="M14.3333333,9.7595762 L15.0740741,9.7595762 L15.0740741,9.02961152 L14.3333333,9.02961152 L14.3333333,9.7595762 Z M15.2296296,10.4895409 L14.1777778,10.4895409 C13.8518519,10.4895409 13.5925926,10.2340532 13.5925926,9.92016843 L13.5925926,8.87631894 C13.5925926,8.55513447 13.8518519,8.29964684 14.1777778,8.29964684 L15.2296296,8.29964684 C15.5555556,8.29964684 15.8148148,8.55513447 15.8148148,8.87631894 L15.8148148,9.92016843 C15.8148148,10.2340532 15.5555556,10.4895409 15.2296296,10.4895409 L15.2296296,10.4895409 Z" id="Fill-526" opacity="0.2" sketch:type="MSShapeGroup"></path>
            <path d="M9.88888889,1.72996468 L12.1111111,1.72996468 L12.1111111,2.45992937 L9.88888889,2.45992937 L9.88888889,1.72996468 Z M2.48148148,4.64982342 L3.22222222,2.45992937 L6.92592593,2.45992937 L7.66666667,4.64982342 L2.48148148,4.64982342 L2.48148148,4.64982342 Z M12.8518519,2.45992937 L12.8518519,1.72996468 L12.1111111,1 L1.74074074,1 L1.74074074,1.72996468 L1,1.72996468 L1,6.10975278 L9.88888889,6.10975278 L9.88888889,3.91985873 L10.6296296,3.91985873 L10.6296296,3.18989405 L13.5925926,3.18989405 L13.5925926,2.45992937 L12.8518519,2.45992937 L12.8518519,2.45992937 Z" id="Fill-527" opacity="0.2" sketch:type="MSShapeGroup"></path>
            <path d="M11.1111111,3.64982342 L11.1111111,5.10975278 L13.3333333,5.10975278 L13.3333333,4.3797881 L12.5925926,4.3797881 L12.5925926,3.64982342 L11.1111111,3.64982342 L11.1111111,3.64982342 Z M0,5.83971747 L9.62962963,5.83971747 L9.62962963,3.64982342 L10.3703704,2.91985873 L13.3333333,2.91985873 L13.3333333,3.64982342 L14.0740741,3.64982342 L14.0740741,4.3797881 L14.8148148,4.3797881 L14.8148148,5.10975278 L15.5555556,5.10975278 L15.5555556,5.83971747 L16.2962963,6.56968215 L16.2962963,8.02961152 L15.5555556,8.02961152 L15.5555556,7.29964684 L14.8148148,7.29964684 L14.8148148,6.56968215 L12.5925926,6.56968215 L12.5925926,7.29964684 L11.8518519,7.29964684 L11.8518519,8.02961152 L5.92592593,8.02961152 L5.92592593,7.29964684 L5.18518519,7.29964684 L5.18518519,6.56968215 L2.96296296,6.56968215 L2.96296296,7.29964684 L2.22222222,7.29964684 L2.22222222,8.02961152 L0,8.02961152 L0,5.83971747 L0,5.83971747 Z" id="Fill-524" sketch:type="MSShapeGroup"></path>
            <path d="M3.7037037,8.7595762 L4.44444444,8.7595762 L4.44444444,8.02961152 L3.7037037,8.02961152 L3.7037037,8.7595762 Z M4.6,9.48954089 L3.54814815,9.48954089 C3.22222222,9.48954089 2.96296296,9.23405325 2.96296296,8.92016843 L2.96296296,7.87631894 C2.96296296,7.55513447 3.22222222,7.29964684 3.54814815,7.29964684 L4.6,7.29964684 C4.92592593,7.29964684 5.18518519,7.55513447 5.18518519,7.87631894 L5.18518519,8.92016843 C5.18518519,9.23405325 4.92592593,9.48954089 4.6,9.48954089 L4.6,9.48954089 Z" id="Fill-525" sketch:type="MSShapeGroup"></path>
            <path d="M13.3333333,8.7595762 L14.0740741,8.7595762 L14.0740741,8.02961152 L13.3333333,8.02961152 L13.3333333,8.7595762 Z M14.2296296,9.48954089 L13.1777778,9.48954089 C12.8518519,9.48954089 12.5925926,9.23405325 12.5925926,8.92016843 L12.5925926,7.87631894 C12.5925926,7.55513447 12.8518519,7.29964684 13.1777778,7.29964684 L14.2296296,7.29964684 C14.5555556,7.29964684 14.8148148,7.55513447 14.8148148,7.87631894 L14.8148148,8.92016843 C14.8148148,9.23405325 14.5555556,9.48954089 14.2296296,9.48954089 L14.2296296,9.48954089 Z" id="Fill-526" sketch:type="MSShapeGroup"></path>
            <path d="M8.88888889,0.729964684 L11.1111111,0.729964684 L11.1111111,1.45992937 L8.88888889,1.45992937 L8.88888889,0.729964684 Z M1.48148148,3.64982342 L2.22222222,1.45992937 L5.92592593,1.45992937 L6.66666667,3.64982342 L1.48148148,3.64982342 L1.48148148,3.64982342 Z M11.8518519,1.45992937 L11.8518519,0.729964684 L11.1111111,0 L0.740740741,0 L0.740740741,0.729964684 L0,0.729964684 L0,5.10975278 L8.88888889,5.10975278 L8.88888889,2.91985873 L9.62962963,2.91985873 L9.62962963,2.18989405 L12.5925926,2.18989405 L12.5925926,1.45992937 L11.8518519,1.45992937 L11.8518519,1.45992937 Z" id="Fill-527" sketch:type="MSShapeGroup"></path>
        </g>
    </g>
</svg>