<?xml version="1.0" encoding="UTF-8" standalone="no"?>
<!-- Created with Inkscape (http://www.inkscape.org/) -->

<svg
   xmlns:dc="http://purl.org/dc/elements/1.1/"
   xmlns:cc="http://creativecommons.org/ns#"
   xmlns:rdf="http://www.w3.org/1999/02/22-rdf-syntax-ns#"
   xmlns:svg="http://www.w3.org/2000/svg"
   xmlns="http://www.w3.org/2000/svg"
   xmlns:sodipodi="http://sodipodi.sourceforge.net/DTD/sodipodi-0.dtd"
   xmlns:inkscape="http://www.inkscape.org/namespaces/inkscape"
   width="12"
   height="12"
   id="svg27498"
   version="1.1"
   inkscape:version="0.48.2 r9819"
   sodipodi:docname="rv-campground-black-12.svg">
  <defs
     id="defs27500" />
  <sodipodi:namedview
     id="base"
     pagecolor="#ff92ff"
     bordercolor="#666666"
     borderopacity="1.0"
     inkscape:pageopacity="0"
     inkscape:pageshadow="2"
     inkscape:zoom="15.046261"
     inkscape:cx="2.7289703"
     inkscape:cy="5.0632096"
     inkscape:document-units="px"
     inkscape:current-layer="layer1"
     showgrid="false"
     inkscape:window-width="586"
     inkscape:window-height="473"
     inkscape:window-x="2569"
     inkscape:window-y="148"
     inkscape:window-maximized="0">
    <inkscape:grid
       type="xygrid"
       id="grid2986" />
  </sodipodi:namedview>
  <metadata
     id="metadata27503">
    <rdf:RDF>
      <cc:Work
         rdf:about="">
        <dc:format>image/svg+xml</dc:format>
        <dc:type
           rdf:resource="http://purl.org/dc/dcmitype/StillImage" />
        <dc:title></dc:title>
      </cc:Work>
    </rdf:RDF>
  </metadata>
  <g
     inkscape:label="Layer 1"
     inkscape:groupmode="layer"
     id="layer1"
     transform="translate(0,-1040.3622)">
    <g
       id="g16431"
       transform="matrix(1.2142062,0,0,1.2142062,-638.66784,821.91217)">
      <path
         d="m 534.684,189.811 c 0.65,0 1.18,-0.529 1.18,-1.182 v -7.521 c 0,-0.652 -0.529,-1.182 -1.18,-1.182 h -7.523 c -0.65,0 -1.18,0.529 -1.18,1.182 v 7.521 c 0,0.652 0.529,1.182 1.18,1.182 h 7.523 z"
         id="path16398"
         inkscape:connector-curvature="0"
         style="opacity:0;fill:#272525" />
      <g
         transform="translate(504.268,-302.027)"
         style="opacity:0.6;stroke:#1b1b1c;stroke-width:0.5;stroke-miterlimit:4;stroke-opacity:1;stroke-dasharray:none"
         id="g16400">
        <path
           d="m 25.593,486.166 c 0.076,0 0.139,-0.062 0.139,-0.139 l 0.002,-0.873 c 0,-0.076 -0.062,-0.139 -0.139,-0.139 h -2.004 c -0.076,0 -0.139,0.062 -0.139,0.139 l -0.002,0.873 c 0,0.076 0.062,0.139 0.139,0.139 h 2.004 z m 2.869,-1.154 c 0.035,0 0.062,-0.029 0.062,-0.064 0,-0.014 -0.004,-0.025 -0.012,-0.037 l -0.316,-0.455 c -0.012,-0.014 -0.029,-0.023 -0.051,-0.023 h -0.697 c -0.062,0 -0.113,0.051 -0.113,0.113 v 0.354 c 0,0.062 0.051,0.113 0.113,0.113 h 1.014 z m -0.211,-0.856 c 0.064,0 0.123,0.029 0.162,0.074 l 0.604,0.867 c 0.014,0.021 0.023,0.045 0.023,0.072 0,0.064 -0.055,0.119 -0.121,0.119 l -1.037,-0.002 c -0.357,0 -0.646,0.289 -0.646,0.646 v 1.051 H 22.5 v -2.17 c 0,0 -0.039,-0.66 0.643,-0.66 l 5.108,0.003 z"
           id="path16402"
           inkscape:connector-curvature="0"
           style="fill:#272525;stroke:#1b1b1c;stroke-width:0.5;stroke-miterlimit:4;stroke-opacity:1;stroke-dasharray:none" />
        <path
           d="m 29.691,487.125 -1.336,-0.002 c -0.119,0 -0.215,-0.096 -0.215,-0.215 v -0.688 c 0,-0.119 0.096,-0.215 0.213,-0.215 h 0.727 c 0.037,0 0.07,0.018 0.094,0.045 l 0.613,0.885 c 0.014,0.02 0.023,0.043 0.023,0.07 0,0.067 -0.053,0.12 -0.119,0.12 z m 1.162,0.738 v -0.455 c 0,-0.184 -0.117,-0.34 -0.279,-0.398 l -0.395,-0.133 -0.787,-1.137 c -0.039,-0.047 -0.098,-0.076 -0.162,-0.076 h -1.248 c -0.203,0 -0.367,0.164 -0.367,0.367 l 0.002,1.332 H 22.5 v 0.961 c 0,0.139 0.113,0.252 0.252,0.252 h 0.676 c 0.037,-0.561 0.6,-1.006 1.17,-1.006 0.57,0 1.133,0.445 1.172,1.006 h 2.508 c 0.041,-0.557 0.602,-0.998 1.172,-0.998 0.568,0 1.129,0.441 1.17,0.998 h 0.225 c 0.141,0 0.254,-0.113 0.254,-0.252 v -0.461 h -0.246 z"
           id="path16404"
           inkscape:connector-curvature="0"
           style="fill:#272525;stroke:#1b1b1c;stroke-width:0.5;stroke-miterlimit:4;stroke-opacity:1;stroke-dasharray:none" />
        <path
           d="m 29.445,489.098 c 0.186,0 0.336,-0.15 0.336,-0.336 0,-0.186 -0.15,-0.336 -0.336,-0.336 -0.186,0 -0.335,0.15 -0.335,0.336 0,0.186 0.149,0.336 0.335,0.336 z m -0.774,-0.336 c 0,-0.428 0.347,-0.773 0.773,-0.773 0.426,0 0.774,0.346 0.774,0.773 0,0.427 -0.348,0.773 -0.774,0.773 -0.426,0 -0.773,-0.346 -0.773,-0.773 z"
           id="path16406"
           inkscape:connector-curvature="0"
           style="fill:#272525;stroke:#1b1b1c;stroke-width:0.5;stroke-miterlimit:4;stroke-opacity:1;stroke-dasharray:none" />
        <path
           d="m 24.597,489.084 c 0.186,0 0.336,-0.15 0.336,-0.336 0,-0.186 -0.15,-0.336 -0.336,-0.336 -0.186,0 -0.336,0.15 -0.336,0.336 0,0.186 0.151,0.336 0.336,0.336 z m -0.774,-0.336 c 0,-0.428 0.348,-0.773 0.774,-0.773 0.426,0 0.773,0.346 0.773,0.773 0,0.427 -0.347,0.773 -0.773,0.773 -0.426,0 -0.774,-0.345 -0.774,-0.773 z"
           id="path16408"
           inkscape:connector-curvature="0"
           style="fill:#272525;stroke:#1b1b1c;stroke-width:0.5;stroke-miterlimit:4;stroke-opacity:1;stroke-dasharray:none" />
      </g>
      <g
         style="fill:#ffffff;fill-opacity:1"
         transform="translate(504.268,-302.027)"
         id="g16410">
        <path
           style="fill:#ffffff;fill-opacity:1"
           inkscape:connector-curvature="0"
           id="path16412"
           d="m 25.593,486.166 c 0.076,0 0.139,-0.062 0.139,-0.139 l 0.002,-0.873 c 0,-0.076 -0.062,-0.139 -0.139,-0.139 h -2.004 c -0.076,0 -0.139,0.062 -0.139,0.139 l -0.002,0.873 c 0,0.076 0.062,0.139 0.139,0.139 h 2.004 z m 2.869,-1.154 c 0.035,0 0.062,-0.029 0.062,-0.064 0,-0.014 -0.004,-0.025 -0.012,-0.037 l -0.316,-0.455 c -0.012,-0.014 -0.029,-0.023 -0.051,-0.023 h -0.697 c -0.062,0 -0.113,0.051 -0.113,0.113 v 0.354 c 0,0.062 0.051,0.113 0.113,0.113 h 1.014 z m -0.211,-0.856 c 0.064,0 0.123,0.029 0.162,0.074 l 0.604,0.867 c 0.014,0.021 0.023,0.045 0.023,0.072 0,0.064 -0.055,0.119 -0.121,0.119 l -1.037,-0.002 c -0.357,0 -0.646,0.289 -0.646,0.646 v 1.051 H 22.5 v -2.17 c 0,0 -0.039,-0.66 0.643,-0.66 l 5.108,0.003 z" />
        <path
           style="fill:#ffffff;fill-opacity:1"
           inkscape:connector-curvature="0"
           id="path16414"
           d="m 29.691,487.125 -1.336,-0.002 c -0.119,0 -0.215,-0.096 -0.215,-0.215 v -0.688 c 0,-0.119 0.096,-0.215 0.213,-0.215 h 0.727 c 0.037,0 0.07,0.018 0.094,0.045 l 0.613,0.885 c 0.014,0.02 0.023,0.043 0.023,0.07 0,0.067 -0.053,0.12 -0.119,0.12 z m 1.162,0.738 v -0.455 c 0,-0.184 -0.117,-0.34 -0.279,-0.398 l -0.395,-0.133 -0.787,-1.137 c -0.039,-0.047 -0.098,-0.076 -0.162,-0.076 h -1.248 c -0.203,0 -0.367,0.164 -0.367,0.367 l 0.002,1.332 H 22.5 v 0.961 c 0,0.139 0.113,0.252 0.252,0.252 h 0.676 c 0.037,-0.561 0.6,-1.006 1.17,-1.006 0.57,0 1.133,0.445 1.172,1.006 h 2.508 c 0.041,-0.557 0.602,-0.998 1.172,-0.998 0.568,0 1.129,0.441 1.17,0.998 h 0.225 c 0.141,0 0.254,-0.113 0.254,-0.252 v -0.461 h -0.246 z" />
        <path
           style="fill:#ffffff;fill-opacity:1"
           inkscape:connector-curvature="0"
           id="path16416"
           d="m 29.445,489.098 c 0.186,0 0.336,-0.15 0.336,-0.336 0,-0.186 -0.15,-0.336 -0.336,-0.336 -0.186,0 -0.335,0.15 -0.335,0.336 0,0.186 0.149,0.336 0.335,0.336 z m -0.774,-0.336 c 0,-0.428 0.347,-0.773 0.773,-0.773 0.426,0 0.774,0.346 0.774,0.773 0,0.427 -0.348,0.773 -0.774,0.773 -0.426,0 -0.773,-0.346 -0.773,-0.773 z" />
        <path
           style="fill:#ffffff;fill-opacity:1"
           inkscape:connector-curvature="0"
           id="path16418"
           d="m 24.597,489.084 c 0.186,0 0.336,-0.15 0.336,-0.336 0,-0.186 -0.15,-0.336 -0.336,-0.336 -0.186,0 -0.336,0.15 -0.336,0.336 0,0.186 0.151,0.336 0.336,0.336 z m -0.774,-0.336 c 0,-0.428 0.348,-0.773 0.774,-0.773 0.426,0 0.773,0.346 0.773,0.773 0,0.427 -0.347,0.773 -0.773,0.773 -0.426,0 -0.774,-0.345 -0.774,-0.773 z" />
      </g>
    </g>
  </g>
</svg>
