<?xml version="1.0" encoding="utf-8"?>
<!-- Generator: Adobe Illustrator 18.1.1, SVG Export Plug-In . SVG Version: 6.00 Build 0)  -->
<svg version="1.1" xmlns="http://www.w3.org/2000/svg" xmlns:xlink="http://www.w3.org/1999/xlink" x="0px" y="0px"
	 viewBox="0 0 24 24" enable-background="new 0 0 24 24" xml:space="preserve">
<g id="shadows-text-objects" display="none">
	
		<text transform="matrix(1 0 0 1 8.7739 18.4326)" display="inline" opacity="0.2" font-family="'FrutigerLTStd-Bold'" font-size="17">S</text>
</g>
<g id="letters-text-objects" display="none">
	<text transform="matrix(1 0 0 1 7.7739 17.4329)" display="inline" font-family="'FrutigerLTStd-Bold'" font-size="17">S</text>
</g>
<g id="shadows-outlines">
	<g opacity="0.2">
		<path d="M16.525,8.744c-0.748-0.324-1.581-0.511-2.414-0.511c-0.816,0-1.87,0.357-1.87,1.649c0,2.057,5.202,1.189,5.202,5.167
			c0,2.601-2.057,3.587-4.454,3.587c-1.292,0-1.87-0.17-3.042-0.459l0.221-2.142c0.816,0.441,1.75,0.73,2.686,0.73
			c0.9,0,2.107-0.459,2.107-1.529c0-2.261-5.201-1.326-5.201-5.253c0-2.652,2.057-3.621,4.147-3.621
			c1.021,0,1.972,0.137,2.839,0.426L16.525,8.744z"/>
	</g>
</g>
<g id="letters-outlines">
	<g>
		<path d="M15.525,7.744c-0.748-0.323-1.581-0.511-2.414-0.511c-0.816,0-1.87,0.357-1.87,1.649c0,2.057,5.202,1.189,5.202,5.167
			c0,2.601-2.057,3.587-4.454,3.587c-1.292,0-1.87-0.17-3.042-0.459l0.221-2.142c0.816,0.441,1.75,0.73,2.686,0.73
			c0.901,0,2.107-0.459,2.107-1.529c0-2.261-5.201-1.326-5.201-5.253c0-2.651,2.057-3.62,4.147-3.62
			c1.021,0,1.972,0.136,2.839,0.425L15.525,7.744z"/>
	</g>
</g>
<g id="guides_and_set-up" display="none">
</g>
</svg>
