<?xml version="1.0" encoding="utf-8"?>
<!-- Generator: Adobe Illustrator 18.1.1, SVG Export Plug-In . SVG Version: 6.00 Build 0)  -->
<svg version="1.1" xmlns="http://www.w3.org/2000/svg" xmlns:xlink="http://www.w3.org/1999/xlink" x="0px" y="0px"
	 viewBox="0 0 24 24" enable-background="new 0 0 24 24" xml:space="preserve">
<g id="shadows-text-objects" display="none">
	
		<text transform="matrix(1 0 0 1 9.2499 18.4326)" display="inline" opacity="0.2" font-family="'FrutigerLTStd-Roman'" font-size="17">S</text>
</g>
<g id="letters-text-objects" display="none">
	
		<text transform="matrix(1 0 0 1 8.25 17.4329)" display="inline" fill="#FFFFFF" font-family="'FrutigerLTStd-Roman'" font-size="17">S</text>
</g>
<g id="shadows-outlines">
	<g opacity="0.2">
		<path d="M16.151,8.353c-0.867-0.34-1.343-0.493-2.228-0.493c-0.951,0-2.073,0.34-2.073,1.581c0,2.278,5.1,1.751,5.1,5.66
			c0,2.533-1.955,3.536-4.335,3.536c-0.833,0-1.648-0.238-2.431-0.493l0.17-1.581c0.578,0.238,1.598,0.578,2.465,0.578
			c0.969,0,2.329-0.544,2.329-1.938c0-2.652-5.1-1.921-5.1-5.609c0-2.107,1.666-3.23,3.808-3.23c0.782,0,1.717,0.137,2.533,0.426
			L16.151,8.353z"/>
	</g>
</g>
<g id="letters-outlines">
	<g>
		<path fill="#FFFFFF" d="M15.151,7.353c-0.867-0.34-1.343-0.492-2.228-0.492c-0.951,0-2.073,0.34-2.073,1.58
			c0,2.278,5.1,1.751,5.1,5.66c0,2.533-1.955,3.536-4.335,3.536c-0.832,0-1.648-0.238-2.43-0.493l0.17-1.581
			c0.577,0.238,1.598,0.578,2.465,0.578c0.969,0,2.328-0.544,2.328-1.938c0-2.651-5.1-1.921-5.1-5.609
			c0-2.107,1.666-3.229,3.808-3.229c0.782,0,1.717,0.136,2.533,0.425L15.151,7.353z"/>
	</g>
</g>
<g id="guides_and_set-up" display="none">
</g>
</svg>
