<?xml version="1.0" encoding="utf-8"?>
<!-- Generator: Adobe Illustrator 18.1.1, SVG Export Plug-In . SVG Version: 6.00 Build 0)  -->
<svg version="1.1" xmlns="http://www.w3.org/2000/svg" xmlns:xlink="http://www.w3.org/1999/xlink" x="0px" y="0px"
	 viewBox="0 0 18 18" enable-background="new 0 0 18 18" xml:space="preserve">
<g id="shadows-text-objects" display="none">
	
		<text transform="matrix(1 0 0 1 6.9997 13.7503)" display="inline" opacity="0.2" font-family="'FrutigerLTStd-Roman'" font-size="13">S</text>
</g>
<g id="letters-text-objects" display="none">
	
		<text transform="matrix(1 0 0 1 6.25 13.0002)" display="inline" fill="#FFFFFF" font-family="'FrutigerLTStd-Roman'" font-size="13">S</text>
</g>
<g id="shadows-outlines">
	<g opacity="0.2">
		<path d="M12.278,6.041c-0.663-0.26-1.027-0.377-1.703-0.377c-0.729,0-1.586,0.26-1.586,1.209c0,1.742,3.9,1.339,3.9,4.329
			c0,1.937-1.495,2.704-3.315,2.704c-0.638,0-1.262-0.183-1.859-0.377l0.13-1.209c0.442,0.182,1.222,0.441,1.885,0.441
			c0.741,0,1.781-0.416,1.781-1.481c0-2.028-3.9-1.47-3.9-4.29c0-1.612,1.274-2.471,2.912-2.471c0.599,0,1.313,0.104,1.938,0.325
			L12.278,6.041z"/>
	</g>
</g>
<g id="letters-outlines">
	<g>
		<path fill="#FFFFFF" d="M11.528,5.291c-0.663-0.26-1.027-0.377-1.703-0.377c-0.728,0-1.586,0.26-1.586,1.209
			c0,1.742,3.9,1.339,3.9,4.329c0,1.937-1.495,2.704-3.315,2.704c-0.637,0-1.262-0.183-1.859-0.377l0.131-1.209
			c0.441,0.182,1.221,0.441,1.885,0.441c0.74,0,1.78-0.416,1.78-1.481c0-2.028-3.899-1.47-3.899-4.29
			c0-1.612,1.273-2.471,2.912-2.471c0.598,0,1.312,0.104,1.937,0.325L11.528,5.291z"/>
	</g>
</g>
<g id="guides_and_set-up" display="none">
</g>
</svg>
