<?xml version="1.0" encoding="utf-8"?>
<!-- Generator: Adobe Illustrator 18.1.1, SVG Export Plug-In . SVG Version: 6.00 Build 0)  -->
<svg version="1.1" xmlns="http://www.w3.org/2000/svg" xmlns:xlink="http://www.w3.org/1999/xlink" x="0px" y="0px"
	 viewBox="0 0 12 12" enable-background="new 0 0 12 12" xml:space="preserve">
<g id="shadows-text-objects" display="none">
	<text transform="matrix(1 0 0 1 3.25 9.142)" display="inline" opacity="0.2" font-family="'FrutigerLTStd-Roman'" font-size="9">S</text>
</g>
<g id="letters-text-objects" display="none">
	
		<text transform="matrix(1 0 0 1 2.75 8.6418)" display="inline" fill="#FFFFFF" font-family="'FrutigerLTStd-Roman'" font-size="9">S</text>
</g>
<g id="shadows-outlines">
	<g opacity="0.2">
		<path d="M6.905,3.804c-0.459-0.181-0.711-0.262-1.18-0.262c-0.504,0-1.098,0.181-1.098,0.837c0,1.207,2.7,0.928,2.7,2.998
			c0,1.342-1.035,1.873-2.295,1.873c-0.441,0-0.874-0.126-1.288-0.262l0.09-0.837c0.307,0.126,0.847,0.306,1.306,0.306
			c0.514,0,1.233-0.288,1.233-1.026c0-1.404-2.7-1.017-2.7-2.971c0-1.116,0.882-1.71,2.017-1.71c0.413,0,0.908,0.072,1.341,0.225
			L6.905,3.804z"/>
	</g>
</g>
<g id="letters-outlines">
	<g>
		<path fill="#FFFFFF" d="M6.405,3.304c-0.459-0.181-0.711-0.262-1.18-0.262c-0.504,0-1.099,0.181-1.099,0.837
			c0,1.207,2.701,0.928,2.701,2.998c0,1.342-1.035,1.873-2.295,1.873c-0.441,0-0.874-0.126-1.288-0.262l0.09-0.837
			c0.306,0.126,0.847,0.306,1.306,0.306c0.514,0,1.233-0.288,1.233-1.026c0-1.404-2.7-1.017-2.7-2.971
			c0-1.116,0.881-1.71,2.016-1.71c0.414,0,0.909,0.072,1.342,0.225L6.405,3.304z"/>
	</g>
</g>
<g id="guides_and_set-up" display="none">
</g>
</svg>
