<?xml version="1.0" encoding="utf-8"?>
<!-- Generator: Adobe Illustrator 18.1.1, SVG Export Plug-In . SVG Version: 6.00 Build 0)  -->
<svg version="1.1" xmlns="http://www.w3.org/2000/svg" xmlns:xlink="http://www.w3.org/1999/xlink" x="0px" y="0px"
	 viewBox="0 0 18 18" enable-background="new 0 0 18 18" xml:space="preserve">
<g id="shadows-text-objects" display="none">
	
		<text transform="matrix(1 0 0 1 6.636 13.7503)" display="inline" opacity="0.2" font-family="'FrutigerLTStd-Bold'" font-size="13">S</text>
</g>
<g id="letters-text-objects" display="none">
	
		<text transform="matrix(1 0 0 1 5.8862 13.0002)" display="inline" fill="#FFFFFF" font-family="'FrutigerLTStd-Bold'" font-size="13">S</text>
</g>
<g id="shadows-outlines">
	<g opacity="0.2">
		<path d="M12.564,6.34c-0.572-0.247-1.209-0.39-1.847-0.39c-0.624,0-1.43,0.272-1.43,1.261c0,1.573,3.979,0.91,3.979,3.952
			c0,1.989-1.573,2.743-3.406,2.743c-0.988,0-1.431-0.13-2.327-0.352l0.169-1.638c0.624,0.338,1.339,0.559,2.054,0.559
			c0.689,0,1.612-0.351,1.612-1.17c0-1.729-3.979-1.014-3.979-4.017c0-2.028,1.573-2.77,3.173-2.77c0.78,0,1.508,0.104,2.171,0.325
			L12.564,6.34z"/>
	</g>
</g>
<g id="letters-outlines">
	<g>
		<path fill="#FFFFFF" d="M11.814,5.59C11.242,5.343,10.605,5.2,9.969,5.2c-0.625,0-1.431,0.272-1.431,1.261
			c0,1.573,3.979,0.91,3.979,3.952c0,1.989-1.573,2.743-3.406,2.743c-0.988,0-1.431-0.13-2.327-0.352l0.169-1.638
			c0.624,0.338,1.339,0.559,2.054,0.559c0.689,0,1.612-0.351,1.612-1.17c0-1.729-3.978-1.014-3.978-4.017
			c0-2.028,1.572-2.77,3.172-2.77c0.78,0,1.508,0.104,2.171,0.325L11.814,5.59z"/>
	</g>
</g>
<g id="guides_and_set-up" display="none">
</g>
</svg>
