<?xml version="1.0" encoding="utf-8"?>
<!-- Generator: Adobe Illustrator 18.1.1, SVG Export Plug-In . SVG Version: 6.00 Build 0)  -->
<svg version="1.1" xmlns="http://www.w3.org/2000/svg" xmlns:xlink="http://www.w3.org/1999/xlink" x="0px" y="0px"
	 viewBox="0 0 12 12" enable-background="new 0 0 12 12" xml:space="preserve">
<g id="shadows">
	<g opacity="0.2">
		<path d="M8.286,2.786c0,0,2.571,1.553,2.571,3.214c0,0.382,0,0.643,0,0.643H8.286V2.786z"/>
		<polygon points="7.643,1.5 7.643,6.643 3.143,6.643 		"/>
		<polygon points="3.786,7.286 10.857,7.286 10.214,8.571 3.786,8.571 		"/>
		<polygon points="10.214,9.857 8.929,9.214 8.286,9.214 7,9.857 6.357,9.857 5.071,9.214 4.429,9.214 3.143,9.857 3.143,10.5 
			4.429,9.857 5.071,9.857 6.357,10.5 7,10.5 8.286,9.857 8.929,9.857 10.214,10.5 10.857,10.5 10.857,9.857 		"/>
	</g>
</g>
<g id="icons">
	<g>
		<path d="M7.786,2.286c0,0,2.571,1.553,2.571,3.214c0,0.382,0,0.643,0,0.643H7.786V2.286z"/>
		<polygon points="7.143,1 7.143,6.143 2.643,6.143 		"/>
		<polygon points="3.286,6.786 10.357,6.786 9.714,8.071 3.286,8.071 		"/>
		<polygon points="9.714,9.357 8.429,8.714 7.786,8.714 6.5,9.357 5.857,9.357 4.571,8.714 3.929,8.714 2.643,9.357 2.643,10 
			3.929,9.357 4.571,9.357 5.857,10 6.5,10 7.786,9.357 8.429,9.357 9.714,10 10.357,10 10.357,9.357 		"/>
	</g>
</g>
</svg>
