<?xml version="1.0" encoding="utf-8"?>
<!-- Generator: Adobe Illustrator 18.1.1, SVG Export Plug-In . SVG Version: 6.00 Build 0)  -->
<svg version="1.1" xmlns="http://www.w3.org/2000/svg" xmlns:xlink="http://www.w3.org/1999/xlink" x="0px" y="0px"
	 viewBox="0 0 12 12" enable-background="new 0 0 12 12" xml:space="preserve">
<g id="shadows">
	<g opacity="0.2">
		<path d="M7.3,2.8c0,0,2.6,1.6,2.6,3.2c0,0.4,0,0.6,0,0.6H7.3V2.8z"/>
		<polygon points="6.6,1.5 6.6,6.6 2.1,6.6 		"/>
		<polygon points="2.8,7.3 9.9,7.3 9.2,8.6 2.8,8.6 		"/>
		<polygon points="9.2,9.9 7.9,9.2 7.3,9.2 6,9.9 5.4,9.9 4.1,9.2 3.4,9.2 2.1,9.9 2.1,10.5 3.4,9.9 4.1,9.9 5.4,10.5 6,10.5 
			7.3,9.9 7.9,9.9 9.2,10.5 9.9,10.5 9.9,9.9 		"/>
	</g>
</g>
<g id="icons">
	<g>
		<path d="M6.8,2.3c0,0,2.6,1.6,2.6,3.2c0,0.4,0,0.6,0,0.6H6.8V2.3z"/>
		<polygon points="6.1,1 6.1,6.1 1.6,6.1 		"/>
		<polygon points="2.3,6.8 9.4,6.8 8.7,8.1 2.3,8.1 		"/>
		<polygon points="8.7,9.4 7.4,8.7 6.8,8.7 5.5,9.4 4.9,9.4 3.6,8.7 2.9,8.7 1.6,9.4 1.6,10 2.9,9.4 3.6,9.4 4.9,10 5.5,10 6.8,9.4 
			7.4,9.4 8.7,10 9.4,10 9.4,9.4 		"/>
	</g>
</g>
</svg>
