<?xml version="1.0" encoding="UTF-8" standalone="no"?>
<!-- Created with Inkscape (http://www.inkscape.org/) -->

<svg
   xmlns:dc="http://purl.org/dc/elements/1.1/"
   xmlns:cc="http://creativecommons.org/ns#"
   xmlns:rdf="http://www.w3.org/1999/02/22-rdf-syntax-ns#"
   xmlns:svg="http://www.w3.org/2000/svg"
   xmlns="http://www.w3.org/2000/svg"
   xmlns:sodipodi="http://sodipodi.sourceforge.net/DTD/sodipodi-0.dtd"
   xmlns:inkscape="http://www.inkscape.org/namespaces/inkscape"
   width="18"
   height="18"
   id="svg27435"
   version="1.1"
   inkscape:version="0.48.2 r9819"
   sodipodi:docname="sanitary-dump-station-black-18.svg">
  <defs
     id="defs27437" />
  <sodipodi:namedview
     id="base"
     pagecolor="#ffa6ff"
     bordercolor="#666666"
     borderopacity="1.0"
     inkscape:pageopacity="0"
     inkscape:pageshadow="2"
     inkscape:zoom="7.9891803"
     inkscape:cx="12.590799"
     inkscape:cy="8.9588378"
     inkscape:document-units="px"
     inkscape:current-layer="layer1"
     showgrid="false"
     inkscape:window-width="483"
     inkscape:window-height="454"
     inkscape:window-x="3161"
     inkscape:window-y="149"
     inkscape:window-maximized="0">
    <inkscape:grid
       type="xygrid"
       id="grid2986" />
  </sodipodi:namedview>
  <metadata
     id="metadata27440">
    <rdf:RDF>
      <cc:Work
         rdf:about="">
        <dc:format>image/svg+xml</dc:format>
        <dc:type
           rdf:resource="http://purl.org/dc/dcmitype/StillImage" />
        <dc:title></dc:title>
      </cc:Work>
    </rdf:RDF>
  </metadata>
  <g
     inkscape:label="Layer 1"
     inkscape:groupmode="layer"
     id="layer1"
     transform="translate(0,-1034.3622)">
    <g
       transform="matrix(1.8211251,0,0,1.8211251,-39.579378,64.069243)"
       id="g16912">
      <path
         d="m 30.415,542.637 c 0.652,0 1.181,-0.529 1.181,-1.182 v -7.521 c 0,-0.652 -0.528,-1.182 -1.181,-1.182 h -7.521 c -0.652,0 -1.182,0.529 -1.182,1.182 v 7.521 c 0,0.652 0.529,1.182 1.182,1.182 h 7.521 z"
         id="path16914"
         inkscape:connector-curvature="0"
         style="opacity:0;fill:#272525" />
      <g
         style="opacity:0.6;stroke:#ffffff;stroke-width:0.5;stroke-miterlimit:4;stroke-opacity:1;stroke-dasharray:none"
         id="g16916">
        <path
           d="m 30.6,541.807 c -0.171,0 -0.336,-0.039 -0.482,-0.105 -0.15,-0.07 -0.32,-0.111 -0.498,-0.111 -0.177,0 -0.347,0.041 -0.497,0.111 -0.147,0.066 -0.312,0.105 -0.483,0.105 -0.171,0 -0.336,-0.039 -0.482,-0.105 -0.151,-0.07 -0.32,-0.111 -0.498,-0.111 -0.177,0 -0.347,0.041 -0.497,0.111 -0.147,0.066 -0.312,0.105 -0.483,0.105 -0.172,0 -0.336,-0.039 -0.483,-0.105 -0.15,-0.07 -0.32,-0.111 -0.497,-0.111 -0.178,0 -0.348,0.041 -0.498,0.111 -0.146,0.066 -0.312,0.105 -0.483,0.105 -0.171,0 -0.336,-0.039 -0.483,-0.105 -0.15,-0.07 -0.32,-0.111 -0.497,-0.111 -0.177,0 -0.347,0.041 -0.497,0.111 -0.147,0.066 -0.312,0.105 -0.483,0.105 v -0.725 c 0.172,0 0.336,-0.039 0.483,-0.105 0.15,-0.068 0.32,-0.109 0.497,-0.109 0.177,0 0.347,0.041 0.497,0.109 0.147,0.066 0.312,0.105 0.483,0.105 0.172,0 0.337,-0.039 0.483,-0.105 0.15,-0.068 0.32,-0.109 0.498,-0.109 0.177,0 0.347,0.041 0.497,0.109 0.147,0.066 0.312,0.105 0.483,0.105 0.171,0 0.336,-0.039 0.483,-0.105 0.15,-0.068 0.32,-0.109 0.497,-0.109 0.178,0 0.347,0.041 0.498,0.109 0.146,0.066 0.312,0.105 0.482,0.105 0.172,0 0.336,-0.039 0.483,-0.105 0.15,-0.068 0.32,-0.109 0.497,-0.109 0.178,0 0.348,0.041 0.498,0.109 0.146,0.066 0.312,0.105 0.482,0.105 v 0.725 z"
           id="path16918"
           inkscape:connector-curvature="0"
           style="fill:#272525;stroke:#ffffff;stroke-width:0.5;stroke-miterlimit:4;stroke-opacity:1;stroke-dasharray:none" />
        <polygon
           points="27.451,538.779 22.985,538.779 27.451,533.326 "
           id="polygon16920"
           style="fill:#272525;stroke:#ffffff;stroke-width:0.5;stroke-miterlimit:4;stroke-opacity:1;stroke-dasharray:none" />
        <path
           d="m 27.875,534.584 c 1.314,0.611 2.875,2.24 2.671,4.195 h -2.671 v -4.195 l 0,0 z"
           id="path16922"
           inkscape:connector-curvature="0"
           style="fill:#272525;stroke:#ffffff;stroke-width:0.5;stroke-miterlimit:4;stroke-opacity:1;stroke-dasharray:none" />
        <path
           d="M 29.98,539.174 H 28.761 24.04 v 1.078 c 0.066,0.018 0.133,0.037 0.193,0.066 0.147,0.064 0.312,0.104 0.483,0.104 0.172,0 0.337,-0.039 0.483,-0.104 0.15,-0.07 0.32,-0.111 0.498,-0.111 0.177,0 0.347,0.041 0.497,0.111 0.147,0.064 0.312,0.104 0.483,0.104 0.171,0 0.336,-0.039 0.483,-0.104 0.15,-0.07 0.32,-0.111 0.497,-0.111 0.178,0 0.347,0.041 0.498,0.111 0.146,0.064 0.312,0.104 0.482,0.104 0.033,0 0.063,-0.008 0.096,-0.012 0.003,0 0.004,0.004 0.007,0.004 0.021,0 0.037,-0.01 0.059,-0.01 0.039,-0.006 0.079,-0.01 0.118,-0.02 0.351,-0.072 0.577,-0.346 0.577,-0.346 l 0.684,-0.865 H 29.98 z"
           id="path16924"
           inkscape:connector-curvature="0"
           style="fill:#272525;stroke:#ffffff;stroke-width:0.5;stroke-miterlimit:4;stroke-opacity:1;stroke-dasharray:none" />
      </g>
      <g
         id="g16926">
        <path
           style="fill:#272525"
           inkscape:connector-curvature="0"
           id="path16928"
           d="m 30.6,541.807 c -0.171,0 -0.336,-0.039 -0.482,-0.105 -0.15,-0.07 -0.32,-0.111 -0.498,-0.111 -0.177,0 -0.347,0.041 -0.497,0.111 -0.147,0.066 -0.312,0.105 -0.483,0.105 -0.171,0 -0.336,-0.039 -0.482,-0.105 -0.151,-0.07 -0.32,-0.111 -0.498,-0.111 -0.177,0 -0.347,0.041 -0.497,0.111 -0.147,0.066 -0.312,0.105 -0.483,0.105 -0.172,0 -0.336,-0.039 -0.483,-0.105 -0.15,-0.07 -0.32,-0.111 -0.497,-0.111 -0.178,0 -0.348,0.041 -0.498,0.111 -0.146,0.066 -0.312,0.105 -0.483,0.105 -0.171,0 -0.336,-0.039 -0.483,-0.105 -0.15,-0.07 -0.32,-0.111 -0.497,-0.111 -0.177,0 -0.347,0.041 -0.497,0.111 -0.147,0.066 -0.312,0.105 -0.483,0.105 v -0.725 c 0.172,0 0.336,-0.039 0.483,-0.105 0.15,-0.068 0.32,-0.109 0.497,-0.109 0.177,0 0.347,0.041 0.497,0.109 0.147,0.066 0.312,0.105 0.483,0.105 0.172,0 0.337,-0.039 0.483,-0.105 0.15,-0.068 0.32,-0.109 0.498,-0.109 0.177,0 0.347,0.041 0.497,0.109 0.147,0.066 0.312,0.105 0.483,0.105 0.171,0 0.336,-0.039 0.483,-0.105 0.15,-0.068 0.32,-0.109 0.497,-0.109 0.178,0 0.347,0.041 0.498,0.109 0.146,0.066 0.312,0.105 0.482,0.105 0.172,0 0.336,-0.039 0.483,-0.105 0.15,-0.068 0.32,-0.109 0.497,-0.109 0.178,0 0.348,0.041 0.498,0.109 0.146,0.066 0.312,0.105 0.482,0.105 v 0.725 z" />
        <polygon
           style="fill:#272525"
           id="polygon16930"
           points="27.451,538.779 22.985,538.779 27.451,533.326 " />
        <path
           style="fill:#272525"
           inkscape:connector-curvature="0"
           id="path16932"
           d="m 27.875,534.584 c 1.314,0.611 2.875,2.24 2.671,4.195 h -2.671 v -4.195 l 0,0 z" />
        <path
           style="fill:#272525"
           inkscape:connector-curvature="0"
           id="path16934"
           d="M 29.98,539.174 H 28.761 24.04 v 1.078 c 0.066,0.018 0.133,0.037 0.193,0.066 0.147,0.064 0.312,0.104 0.483,0.104 0.172,0 0.337,-0.039 0.483,-0.104 0.15,-0.07 0.32,-0.111 0.498,-0.111 0.177,0 0.347,0.041 0.497,0.111 0.147,0.064 0.312,0.104 0.483,0.104 0.171,0 0.336,-0.039 0.483,-0.104 0.15,-0.07 0.32,-0.111 0.497,-0.111 0.178,0 0.347,0.041 0.498,0.111 0.146,0.064 0.312,0.104 0.482,0.104 0.033,0 0.063,-0.008 0.096,-0.012 0.003,0 0.004,0.004 0.007,0.004 0.021,0 0.037,-0.01 0.059,-0.01 0.039,-0.006 0.079,-0.01 0.118,-0.02 0.351,-0.072 0.577,-0.346 0.577,-0.346 l 0.684,-0.865 H 29.98 z" />
      </g>
    </g>
  </g>
</svg>
