<?xml version="1.0" encoding="UTF-8" standalone="no"?>
<svg width="18px" height="18px" viewBox="0 0 18 18" version="1.1" xmlns="http://www.w3.org/2000/svg" xmlns:xlink="http://www.w3.org/1999/xlink" xmlns:sketch="http://www.bohemiancoding.com/sketch/ns">
    <!-- Generator: Sketch 3.2.2 (9983) - http://www.bohemiancoding.com/sketch -->
    <title>sailing-black-18</title>
    <desc>Created with Sketch.</desc>
    <defs></defs>
    <g id="Page-1" stroke="none" stroke-width="1" fill="none" fill-rule="evenodd" sketch:type="MSPage">
        <path d="M15.3333333,16.5992937 L13.8518519,15.869329 L13.1111111,15.869329 L11.6296296,16.5992937 L10.8888889,16.5992937 L9.40740741,15.869329 L8.66666667,15.869329 L7.18518519,16.5992937 L6.44444444,16.5992937 L4.96296296,15.869329 L4.22222222,15.869329 L2.74074074,16.5992937 L2.74074074,18.059223 L4.22222222,17.3292584 L4.96296296,17.3292584 L6.44444444,18.059223 L7.18518519,18.059223 L8.66666667,17.3292584 L9.40740741,17.3292584 L10.8888889,18.059223 L11.6296296,18.059223 L13.1111111,17.3292584 L13.8518519,17.3292584 L15.3333333,18.059223 L16.0740741,18.059223 L16.0740741,16.5992937 L15.3333333,16.5992937" id="Fill-362" opacity="0.1" fill="#0A0B09" sketch:type="MSShapeGroup"></path>
        <path d="M10.8888889,4.18989405 C10.8888889,4.18989405 16.0740741,7.29224396 16.0740741,11.4895409 L16.0740741,12.2195056 L10.8888889,12.2195056 L10.8888889,4.18989405" id="Fill-363" opacity="0.1" fill="#0A0B09" sketch:type="MSShapeGroup"></path>
        <path d="M10.1481481,2 L10.1481481,12.2195056 L2,12.2195056 L10.1481481,2" id="Fill-364" opacity="0.1" fill="#0A0B09" sketch:type="MSShapeGroup"></path>
        <path d="M4.96296296,14.4093996 L6.44444444,15.1393643 L7.18518519,15.1393643 L8.66666667,14.4093996 L9.40740741,14.4093996 L10.8888889,15.1393643 L11.6296296,15.1393643 L13.1111111,14.4093996 L13.6666667,14.4093996 L15.3333333,12.9494703 L3.48148148,12.9494703 L3.48148148,14.774382 L4.22222222,14.4093996 L4.96296296,14.4093996" id="Fill-365" opacity="0.1" fill="#0A0B09" sketch:type="MSShapeGroup"></path>
        <path d="M14.3333333,15.5992937 L12.8518519,14.869329 L12.1111111,14.869329 L10.6296296,15.5992937 L9.88888889,15.5992937 L8.40740741,14.869329 L7.66666667,14.869329 L6.18518519,15.5992937 L5.44444444,15.5992937 L3.96296296,14.869329 L3.22222222,14.869329 L1.74074074,15.5992937 L1.74074074,17.059223 L3.22222222,16.3292584 L3.96296296,16.3292584 L5.44444444,17.059223 L6.18518519,17.059223 L7.66666667,16.3292584 L8.40740741,16.3292584 L9.88888889,17.059223 L10.6296296,17.059223 L12.1111111,16.3292584 L12.8518519,16.3292584 L14.3333333,17.059223 L15.0740741,17.059223 L15.0740741,15.5992937 L14.3333333,15.5992937" id="Fill-362" opacity="0.2" fill="#0A0B09" sketch:type="MSShapeGroup"></path>
        <path d="M9.88888889,3.18989405 C9.88888889,3.18989405 15.0740741,6.29224396 15.0740741,10.4895409 L15.0740741,11.2195056 L9.88888889,11.2195056 L9.88888889,3.18989405" id="Fill-363" opacity="0.2" fill="#0A0B09" sketch:type="MSShapeGroup"></path>
        <path d="M9.14814815,1 L9.14814815,11.2195056 L1,11.2195056 L9.14814815,1" id="Fill-364" opacity="0.2" fill="#0A0B09" sketch:type="MSShapeGroup"></path>
        <path d="M3.96296296,13.4093996 L5.44444444,14.1393643 L6.18518519,14.1393643 L7.66666667,13.4093996 L8.40740741,13.4093996 L9.88888889,14.1393643 L10.6296296,14.1393643 L12.1111111,13.4093996 L12.6666667,13.4093996 L14.3333333,11.9494703 L2.48148148,11.9494703 L2.48148148,13.774382 L3.22222222,13.4093996 L3.96296296,13.4093996" id="Fill-365" opacity="0.2" fill="#0A0B09" sketch:type="MSShapeGroup"></path>
        <path d="M13.3333333,14.5992937 L11.8518519,13.869329 L11.1111111,13.869329 L9.62962963,14.5992937 L8.88888889,14.5992937 L7.40740741,13.869329 L6.66666667,13.869329 L5.18518519,14.5992937 L4.44444444,14.5992937 L2.96296296,13.869329 L2.22222222,13.869329 L0.740740741,14.5992937 L0.740740741,16.059223 L2.22222222,15.3292584 L2.96296296,15.3292584 L4.44444444,16.059223 L5.18518519,16.059223 L6.66666667,15.3292584 L7.40740741,15.3292584 L8.88888889,16.059223 L9.62962963,16.059223 L11.1111111,15.3292584 L11.8518519,15.3292584 L13.3333333,16.059223 L14.0740741,16.059223 L14.0740741,14.5992937 L13.3333333,14.5992937" id="Fill-362" fill="#0A0B09" sketch:type="MSShapeGroup"></path>
        <path d="M8.88888889,2.18989405 C8.88888889,2.18989405 14.0740741,5.29224396 14.0740741,9.48954089 L14.0740741,10.2195056 L8.88888889,10.2195056 L8.88888889,2.18989405" id="Fill-363" fill="#0A0B09" sketch:type="MSShapeGroup"></path>
        <path d="M8.14814815,0 L8.14814815,10.2195056 L0,10.2195056 L8.14814815,0" id="Fill-364" fill="#0A0B09" sketch:type="MSShapeGroup"></path>
        <path d="M2.96296296,12.4093996 L4.44444444,13.1393643 L5.18518519,13.1393643 L6.66666667,12.4093996 L7.40740741,12.4093996 L8.88888889,13.1393643 L9.62962963,13.1393643 L11.1111111,12.4093996 L11.6666667,12.4093996 L13.3333333,10.9494703 L1.48148148,10.9494703 L1.48148148,12.774382 L2.22222222,12.4093996 L2.96296296,12.4093996" id="Fill-365" fill="#0A0B09" sketch:type="MSShapeGroup"></path>
    </g>
</svg>