<?xml version="1.0" encoding="utf-8"?>
<!-- Generator: Adobe Illustrator 18.1.1, SVG Export Plug-In . SVG Version: 6.00 Build 0)  -->
<svg version="1.1" xmlns="http://www.w3.org/2000/svg" xmlns:xlink="http://www.w3.org/1999/xlink" x="0px" y="0px"
	 viewBox="0 0 18 18" enable-background="new 0 0 18 18" xml:space="preserve">
<g id="shadows">
	<g opacity="0.2">
		<path d="M12.1,4.6c0,0,3.7,2.2,3.7,4.6c0,0.6,0,0.9,0,0.9h-3.7V4.6z"/>
		<polygon points="11.2,2.8 11.2,10.2 4.7,10.2 		"/>
		<polygon points="5.6,11.1 15.8,11.1 14.9,13 5.6,13 		"/>
		<polygon points="14.9,14.8 13,13.9 12.1,13.9 10.2,14.8 9.3,14.8 7.5,13.9 6.5,13.9 4.7,14.8 4.7,15.8 6.5,14.8 7.5,14.8 
			9.3,15.8 10.2,15.8 12.1,14.8 13,14.8 14.9,15.8 15.8,15.8 15.8,14.8 		"/>
	</g>
</g>
<g id="icons">
	<g>
		<path d="M11.4,3.9c0,0,3.7,2.2,3.7,4.6c0,0.6,0,0.9,0,0.9h-3.7V3.9z"/>
		<polygon points="10.4,2 10.4,9.4 3.9,9.4 		"/>
		<polygon points="4.9,10.4 15.1,10.4 14.1,12.2 4.9,12.2 		"/>
		<polygon points="14.1,14.1 12.3,13.1 11.4,13.1 9.5,14.1 8.6,14.1 6.7,13.1 5.8,13.1 3.9,14.1 3.9,15 5.8,14.1 6.7,14.1 8.6,15 
			9.5,15 11.4,14.1 12.3,14.1 14.1,15 15.1,15 15.1,14.1 		"/>
	</g>
</g>
</svg>
