<?xml version="1.0" encoding="utf-8"?>
<!-- Generator: Adobe Illustrator 18.1.1, SVG Export Plug-In . SVG Version: 6.00 Build 0)  -->
<svg version="1.1" xmlns="http://www.w3.org/2000/svg" xmlns:xlink="http://www.w3.org/1999/xlink" x="0px" y="0px"
	 viewBox="0 0 24 24" enable-background="new 0 0 24 24" xml:space="preserve">
<g id="shadows">
	<g opacity="0.2">
		<polygon points="20.1,19.5 18.5,18.7 17.8,18.7 16.2,19.5 15.4,19.5 13.9,18.7 13.1,18.7 11.6,19.5 10.8,19.5 9.2,18.7 8.5,18.7 
			6.9,19.5 6.9,21 8.5,20.2 9.2,20.2 10.8,21 11.6,21 13.1,20.2 13.9,20.2 15.4,21 16.2,21 17.8,20.2 18.5,20.2 20.1,21 20.8,21 
			20.8,19.5 		"/>
		<path d="M15.4,6.3c0,0,5.4,3.3,5.4,7.7c0,0.3,0,0.8,0,0.8h-5.4V6.3z"/>
		<polygon points="14.7,4 14.7,14.8 6.2,14.8 		"/>
		<polygon points="9.2,17.1 10.8,17.9 11.6,17.9 13.1,17.1 13.9,17.1 15.4,17.9 16.2,17.9 17.8,17.1 18.3,17.1 20.1,15.6 7.7,15.6 
			7.7,17.5 8.5,17.1 		"/>
	</g>
</g>
<g id="icons">
	<g>
		<polygon points="19.1,18.5 17.5,17.7 16.8,17.7 15.2,18.5 14.4,18.5 12.9,17.7 12.1,17.7 10.6,18.5 9.8,18.5 8.2,17.7 7.5,17.7 
			5.9,18.5 5.9,20 7.5,19.2 8.2,19.2 9.8,20 10.6,20 12.1,19.2 12.9,19.2 14.4,20 15.2,20 16.8,19.2 17.5,19.2 19.1,20 19.8,20 
			19.8,18.5 		"/>
		<path d="M14.4,5.3c0,0,5.4,3.3,5.4,7.7c0,0.3,0,0.8,0,0.8h-5.4V5.3z"/>
		<polygon points="13.7,3 13.7,13.8 5.2,13.8 		"/>
		<polygon points="8.2,16.1 9.8,16.9 10.6,16.9 12.1,16.1 12.9,16.1 14.4,16.9 15.2,16.9 16.8,16.1 17.3,16.1 19.1,14.6 6.7,14.6 
			6.7,16.5 7.5,16.1 		"/>
	</g>
</g>
</svg>
