<?xml version="1.0" encoding="utf-8"?>
<!-- Generator: Adobe Illustrator 18.1.1, SVG Export Plug-In . SVG Version: 6.00 Build 0)  -->
<svg version="1.1" xmlns="http://www.w3.org/2000/svg" xmlns:xlink="http://www.w3.org/1999/xlink" x="0px" y="0px"
	 viewBox="0 0 24 24" enable-background="new 0 0 24 24" xml:space="preserve">
<g id="shadows">
	<g opacity="0.2">
		<polygon points="20.068,19.455 18.523,18.682 17.75,18.682 16.205,19.455 15.432,19.455 13.886,18.682 13.114,18.682 
			11.568,19.455 10.795,19.455 9.25,18.682 8.477,18.682 6.932,19.455 6.932,21 8.477,20.227 9.25,20.227 10.795,21 11.568,21 
			13.114,20.227 13.886,20.227 15.432,21 16.205,21 17.75,20.227 18.523,20.227 20.068,21 20.841,21 20.841,19.455 		"/>
		<path d="M15.432,6.318c0,0,5.409,3.284,5.409,7.727c0,0.258,0,0.773,0,0.773h-5.409V6.318z"/>
		<polygon points="14.659,4 14.659,14.818 6.159,14.818 		"/>
		<polygon points="9.25,17.136 10.795,17.909 11.568,17.909 13.114,17.136 13.886,17.136 15.432,17.909 16.205,17.909 17.75,17.136 
			18.33,17.136 20.068,15.591 7.705,15.591 7.705,17.523 8.477,17.136 		"/>
	</g>
</g>
<g id="icons">
	<g>
		<polygon points="19.068,18.455 17.523,17.682 16.75,17.682 15.205,18.455 14.432,18.455 12.886,17.682 12.114,17.682 
			10.568,18.455 9.795,18.455 8.25,17.682 7.477,17.682 5.932,18.455 5.932,20 7.477,19.227 8.25,19.227 9.795,20 10.568,20 
			12.114,19.227 12.886,19.227 14.432,20 15.205,20 16.75,19.227 17.523,19.227 19.068,20 19.841,20 19.841,18.455 		"/>
		<path d="M14.432,5.318c0,0,5.409,3.284,5.409,7.727c0,0.258,0,0.773,0,0.773h-5.409V5.318z"/>
		<polygon points="13.659,3 13.659,13.818 5.159,13.818 		"/>
		<polygon points="8.25,16.136 9.795,16.909 10.568,16.909 12.114,16.136 12.886,16.136 14.432,16.909 15.205,16.909 16.75,16.136 
			17.33,16.136 19.068,14.591 6.705,14.591 6.705,16.523 7.477,16.136 		"/>
	</g>
</g>
</svg>
