<?xml version="1.0" encoding="utf-8"?>
<!-- Generator: Adobe Illustrator 18.1.1, SVG Export Plug-In . SVG Version: 6.00 Build 0)  -->
<svg version="1.1" xmlns="http://www.w3.org/2000/svg" xmlns:xlink="http://www.w3.org/1999/xlink" x="0px" y="0px"
	 viewBox="0 0 18 18" enable-background="new 0 0 18 18" xml:space="preserve">
<g id="shadows">
	<g opacity="0.2">
		<path d="M12.107,4.607c0,0,3.714,2.244,3.714,4.643c0,0.551,0,0.929,0,0.929h-3.714V4.607z"/>
		<polygon points="11.179,2.75 11.179,10.179 4.679,10.179 		"/>
		<polygon points="5.607,11.107 15.821,11.107 14.893,12.964 5.607,12.964 		"/>
		<polygon points="14.893,14.821 13.036,13.893 12.107,13.893 10.25,14.821 9.321,14.821 7.464,13.893 6.536,13.893 4.679,14.821 
			4.679,15.75 6.536,14.821 7.464,14.821 9.321,15.75 10.25,15.75 12.107,14.821 13.036,14.821 14.893,15.75 15.821,15.75 
			15.821,14.821 		"/>
	</g>
</g>
<g id="icons">
	<g>
		<path d="M11.357,3.857c0,0,3.714,2.244,3.714,4.643c0,0.551,0,0.929,0,0.929h-3.714V3.857z"/>
		<polygon points="10.429,2 10.429,9.429 3.929,9.429 		"/>
		<polygon points="4.857,10.357 15.071,10.357 14.143,12.214 4.857,12.214 		"/>
		<polygon points="14.143,14.071 12.286,13.143 11.357,13.143 9.5,14.071 8.571,14.071 6.714,13.143 5.786,13.143 3.929,14.071 
			3.929,15 5.786,14.071 6.714,14.071 8.571,15 9.5,15 11.357,14.071 12.286,14.071 14.143,15 15.071,15 15.071,14.071 		"/>
	</g>
</g>
</svg>
