<?xml version="1.0" encoding="UTF-8" standalone="no"?>
<svg width="12px" height="12px" viewBox="0 0 12 12" version="1.1" xmlns="http://www.w3.org/2000/svg" xmlns:xlink="http://www.w3.org/1999/xlink" xmlns:sketch="http://www.bohemiancoding.com/sketch/ns">
    <!-- Generator: Sketch 3.2.2 (9983) - http://www.bohemiancoding.com/sketch -->
    <title>sailing-black-12</title>
    <desc>Created with Sketch.</desc>
    <defs></defs>
    <g id="Page-1" stroke="none" stroke-width="1" fill="none" fill-rule="evenodd" sketch:type="MSPage">
        <path d="M7.64705882,3.42038567 C7.64705882,3.42038567 10.4705882,5.13905234 10.4705882,6.97134986 L10.4705882,7.6815427 L7.64705882,7.6815427 L7.64705882,3.42038567" id="Fill-366" fill-opacity="0.1" fill="#0A0B09" sketch:type="MSShapeGroup"></path>
        <path d="M6.94117647,2 L6.94117647,7.6815427 L2,7.6815427 L6.94117647,2" id="Fill-367" fill-opacity="0.1" fill="#0A0B09" sketch:type="MSShapeGroup"></path>
        <path d="M2.70588235,8.39173554 L10.4705882,8.39173554 L9.76470588,9.81212121 L2.70588235,9.81212121 L2.70588235,8.39173554" id="Fill-368" fill-opacity="0.1" fill="#0A0B09" sketch:type="MSShapeGroup"></path>
        <path d="M9.76470588,11.2325069 L8.35294118,10.522314 L7.64705882,10.522314 L6.23529412,11.2325069 L5.52941176,11.2325069 L4.11764706,10.522314 L3.41176471,10.522314 L2,11.2325069 L2,11.9426997 L3.41176471,11.2325069 L4.11764706,11.2325069 L5.52941176,11.9426997 L6.23529412,11.9426997 L7.64705882,11.2325069 L8.35294118,11.2325069 L9.76470588,11.9426997 L10.4705882,11.9426997 L10.4705882,11.2325069 L9.76470588,11.2325069" id="Fill-369" fill-opacity="0.1" fill="#0A0B09" sketch:type="MSShapeGroup"></path>
        <path d="M6.64705882,2.42038567 C6.64705882,2.42038567 9.47058824,4.13905234 9.47058824,5.97134986 L9.47058824,6.6815427 L6.64705882,6.6815427 L6.64705882,2.42038567" id="Fill-366" opacity="0.2" fill="#0A0B09" sketch:type="MSShapeGroup"></path>
        <path d="M5.94117647,1 L5.94117647,6.6815427 L1,6.6815427 L5.94117647,1" id="Fill-367" opacity="0.2" fill="#0A0B09" sketch:type="MSShapeGroup"></path>
        <path d="M1.70588235,7.39173554 L9.47058824,7.39173554 L8.76470588,8.81212121 L1.70588235,8.81212121 L1.70588235,7.39173554" id="Fill-368" opacity="0.2" fill="#0A0B09" sketch:type="MSShapeGroup"></path>
        <path d="M8.76470588,10.2325069 L7.35294118,9.52231405 L6.64705882,9.52231405 L5.23529412,10.2325069 L4.52941176,10.2325069 L3.11764706,9.52231405 L2.41176471,9.52231405 L1,10.2325069 L1,10.9426997 L2.41176471,10.2325069 L3.11764706,10.2325069 L4.52941176,10.9426997 L5.23529412,10.9426997 L6.64705882,10.2325069 L7.35294118,10.2325069 L8.76470588,10.9426997 L9.47058824,10.9426997 L9.47058824,10.2325069 L8.76470588,10.2325069" id="Fill-369" opacity="0.2" fill="#0A0B09" sketch:type="MSShapeGroup"></path>
        <path d="M5.64705882,1.42038567 C5.64705882,1.42038567 8.47058824,3.13905234 8.47058824,4.97134986 L8.47058824,5.6815427 L5.64705882,5.6815427 L5.64705882,1.42038567" id="Fill-366" fill="#0A0B09" sketch:type="MSShapeGroup"></path>
        <path d="M4.94117647,0 L4.94117647,5.6815427 L0,5.6815427 L4.94117647,0" id="Fill-367" fill="#0A0B09" sketch:type="MSShapeGroup"></path>
        <path d="M0.705882353,6.39173554 L8.47058824,6.39173554 L7.76470588,7.81212121 L0.705882353,7.81212121 L0.705882353,6.39173554" id="Fill-368" fill="#0A0B09" sketch:type="MSShapeGroup"></path>
        <path d="M7.76470588,9.23250689 L6.35294118,8.52231405 L5.64705882,8.52231405 L4.23529412,9.23250689 L3.52941176,9.23250689 L2.11764706,8.52231405 L1.41176471,8.52231405 L0,9.23250689 L0,9.94269972 L1.41176471,9.23250689 L2.11764706,9.23250689 L3.52941176,9.94269972 L4.23529412,9.94269972 L5.64705882,9.23250689 L6.35294118,9.23250689 L7.76470588,9.94269972 L8.47058824,9.94269972 L8.47058824,9.23250689 L7.76470588,9.23250689" id="Fill-369" fill="#0A0B09" sketch:type="MSShapeGroup"></path>
    </g>
</svg>