<?xml version="1.0" encoding="utf-8"?>
<!-- Generator: Adobe Illustrator 18.0.0, SVG Export Plug-In . SVG Version: 6.00 Build 0)  -->
<!DOCTYPE svg PUBLIC "-//W3C//DTD SVG 1.1//EN" "http://www.w3.org/Graphics/SVG/1.1/DTD/svg11.dtd" [
	<!ENTITY ns_flows "http://ns.adobe.com/Flows/1.0/">
	<!ENTITY ns_extend "http://ns.adobe.com/Extensibility/1.0/">
	<!ENTITY ns_ai "http://ns.adobe.com/AdobeIllustrator/10.0/">
	<!ENTITY ns_graphs "http://ns.adobe.com/Graphs/1.0/">
	<!ENTITY st0 "opacity:0.1;">
	<!ENTITY st1 "fill:#010101;">
	<!ENTITY st2 "opacity:0.2;">
]>
<svg version="1.1" id="Layer_1" xmlns:x="&ns_extend;" xmlns:i="&ns_ai;" xmlns:graph="&ns_graphs;"
	 xmlns="http://www.w3.org/2000/svg" xmlns:xlink="http://www.w3.org/1999/xlink" xmlns:a="http://ns.adobe.com/AdobeSVGViewerExtensions/3.0/"
	 x="0px" y="0px" width="21px" height="24px" viewBox="0 0 21 24" style="enable-background:new 0 0 21 24;" xml:space="preserve">
<g style="&st0;">
	<polygon style="&st1;" points="20,22 18,21 17,21 15,22 14,22 12,21 11,21 9,22 8,22 6,21 5,21 3,22 3,24 5,23 6,23 8,24 9,24 
		11,23 12,23 14,24 15,24 17,23 18,23 20,24 21,24 21,22 	"/>
	<path style="&st1;" d="M14,5c0,0,7,4.2,7,10c0,0.3,0,1,0,1h-7V5z"/>
	<polygon style="&st1;" points="13,2 13,16 2,16 	"/>
	<polygon style="&st1;" points="6,19 8,20 9,20 11,19 12,19 14,20 15,20 17,19 17.8,19 20,17 4,17 4,19.5 5,19 	"/>
</g>
<g style="&st2;">
	<polygon style="&st1;" points="19,21 17,20 16,20 14,21 13,21 11,20 10,20 8,21 7,21 5,20 4,20 2,21 2,23 4,22 5,22 7,23 8,23 
		10,22 11,22 13,23 14,23 16,22 17,22 19,23 20,23 20,21 	"/>
	<path style="&st1;" d="M13,4c0,0,7,4.2,7,10c0,0.3,0,1,0,1h-7V4z"/>
	<polygon style="&st1;" points="12,1 12,15 1,15 	"/>
	<polygon style="&st1;" points="5,18 7,19 8,19 10,18 11,18 13,19 14,19 16,18 16.8,18 19,16 3,16 3,18.5 4,18 	"/>
</g>
<g>
	<polygon style="&st1;" points="18,20 16,19 15,19 13,20 12,20 10,19 9,19 7,20 6,20 4,19 3,19 1,20 1,22 3,21 4,21 6,22 7,22 9,21 
		10,21 12,22 13,22 15,21 16,21 18,22 19,22 19,20 	"/>
	<path style="&st1;" d="M12,3c0,0,7,4.2,7,10c0,0.3,0,1,0,1h-7V3z"/>
	<polygon style="&st1;" points="11,0 11,14 0,14 	"/>
	<polygon style="&st1;" points="4,17 6,18 7,18 9,17 10,17 12,18 13,18 15,17 15.8,17 18,15 2,15 2,17.5 3,17 	"/>
</g>
</svg>
