<?xml version="1.0" encoding="utf-8"?>
<!-- Generator: Adobe Illustrator 18.1.1, SVG Export Plug-In . SVG Version: 6.00 Build 0)  -->
<svg version="1.1" xmlns="http://www.w3.org/2000/svg" xmlns:xlink="http://www.w3.org/1999/xlink" x="0px" y="0px"
	 viewBox="0 0 18 18" enable-background="new 0 0 18 18" xml:space="preserve">
<g id="shadows">
	<g opacity="0.2">
		<path d="M15.8,8.3V4.6l-0.9-0.9H6.5L5.6,4.6v3.7l0.9,0.9h2.8V8.3h0.9V7.4h0.9v0.9h0.9v0.9h4.6V8.3H15.8z M10.2,5.5H7.5V4.6h2.8
			V5.5z M14,5.5h-1.9V4.6H14V5.5z"/>
		<polygon points="9.3,10.2 16.8,10.2 16.8,14.8 3.7,14.8 3.7,10.2 6.5,10.2 6.5,11.1 4.7,11.1 4.7,13.9 11.2,13.9 11.2,11.1 
			9.3,11.1 		"/>
		<rect x="10.3" y="8.3" width="0.9" height="0.9"/>
		<rect x="7.5" y="10.2" width="0.9" height="3.2"/>
		<rect x="7" y="12" width="1.9" height="0.9"/>
	</g>
</g>
<g id="icons">
	<g>
		<path d="M15.1,7.6V3.9l-0.9-0.9H5.8L4.9,3.9v3.7l0.9,0.9h2.8V7.6h0.9V6.6h0.9v0.9h0.9v0.9H16V7.6H15.1z M9.5,4.8H6.7V3.9h2.8V4.8z
			 M13.2,4.8h-1.9V3.9h1.9V4.8z"/>
		<polygon points="8.6,9.4 16,9.4 16,14.1 3,14.1 3,9.4 5.8,9.4 5.8,10.4 3.9,10.4 3.9,13.1 10.4,13.1 10.4,10.4 8.6,10.4 		"/>
		<rect x="9.5" y="7.6" width="0.9" height="0.9"/>
		<rect x="6.7" y="9.4" width="0.9" height="3.2"/>
		<rect x="6.2" y="11.3" width="1.9" height="0.9"/>
	</g>
</g>
</svg>
