<?xml version="1.0" encoding="utf-8"?>
<!-- Generator: Adobe Illustrator 18.1.1, SVG Export Plug-In . SVG Version: 6.00 Build 0)  -->
<svg version="1.1" xmlns="http://www.w3.org/2000/svg" xmlns:xlink="http://www.w3.org/1999/xlink" x="0px" y="0px"
	 viewBox="0 0 12 12" enable-background="new 0 0 12 12" xml:space="preserve">
<g id="shadows">
	<g opacity="0.2">
		<path d="M9.9,5.4V2.8L9.2,2.1H3.4L2.8,2.8v2.6L3.4,6h1.9V5.4H6V4.7h0.6v0.6h0.6V6h3.2V5.4H9.9z M6,3.4H4.1V2.8H6V3.4z M8.6,3.4
			H7.3V2.8h1.3V3.4z"/>
		<polygon points="5.4,6.6 10.5,6.6 10.5,9.9 1.5,9.9 1.5,6.6 3.4,6.6 3.4,7.3 2.1,7.3 2.1,9.2 6.6,9.2 6.6,7.3 5.4,7.3 		"/>
		<rect x="6" y="5.4" width="0.6" height="0.6"/>
		<rect x="4.1" y="6.6" width="0.6" height="2.2"/>
		<rect x="3.8" y="7.9" width="1.3" height="0.6"/>
	</g>
</g>
<g id="icons">
	<g>
		<path d="M9.4,4.9V2.3L8.7,1.6H2.9L2.3,2.3v2.6l0.6,0.6h1.9V4.9h0.6V4.2h0.6v0.6h0.6v0.6H10V4.9H9.4z M5.5,2.9H3.6V2.3h1.9V2.9z
			 M8.1,2.9H6.8V2.3h1.3V2.9z"/>
		<polygon points="4.9,6.1 10,6.1 10,9.4 1,9.4 1,6.1 2.9,6.1 2.9,6.8 1.6,6.8 1.6,8.7 6.1,8.7 6.1,6.8 4.9,6.8 		"/>
		<rect x="5.5" y="4.9" width="0.6" height="0.6"/>
		<rect x="3.6" y="6.1" width="0.6" height="2.2"/>
		<rect x="3.3" y="7.4" width="1.3" height="0.6"/>
	</g>
</g>
</svg>
