<?xml version="1.0" encoding="UTF-8" standalone="no"?>
<svg width="18px" height="18px" viewBox="0 0 18 18" version="1.1" xmlns="http://www.w3.org/2000/svg" xmlns:xlink="http://www.w3.org/1999/xlink" xmlns:sketch="http://www.bohemiancoding.com/sketch/ns">
    <!-- Generator: Sketch 3.2.2 (9983) - http://www.bohemiancoding.com/sketch -->
    <title>sanitary-disposal-station-white-18</title>
    <desc>Created with Sketch.</desc>
    <defs></defs>
    <g id="Page-1" stroke="none" stroke-width="1" fill="none" fill-rule="evenodd" sketch:type="MSPage">
        <g id="Group" sketch:type="MSLayerGroup" transform="translate(0.000000, 1.000000)">
            <path d="M14.5925926,4.91985873 L13.1111111,4.91985873 L12.3703704,4.18989405 L13.1111111,3.45992937 L14.5925926,3.45992937 L15.3333333,4.18989405 L14.5925926,4.91985873 L14.5925926,4.91985873 Z M10.1481481,4.91985873 L6.44444444,4.91985873 L5.7037037,4.18989405 L6.44444444,3.45992937 L10.1481481,3.45992937 L10.8888889,4.18989405 L10.1481481,4.91985873 L10.1481481,4.91985873 Z M16.8148148,8.56968215 L16.8148148,2.72996468 L16.0740741,2.72996468 L16.0740741,2 L4.96296296,2 L4.96296296,2.72996468 L4.22222222,2.72996468 L4.22222222,8.56968215 L4.96296296,8.56968215 L4.96296296,9.29964684 L8.66666667,9.29964684 L8.66666667,7.83971747 L9.40740741,7.83971747 L9.40740741,7.10975278 L11.6296296,7.10975278 L11.6296296,7.83971747 L12.3703704,7.83971747 L12.3703704,9.29964684 L18.2962963,9.29964684 L18.2962963,8.56968215 L16.8148148,8.56968215 L16.8148148,8.56968215 Z" id="Fill-349" opacity="0.5" fill="#0A0B09" sketch:type="MSShapeGroup"></path>
            <path d="M10.1481481,9.29964684 L10.8888889,9.29964684 L10.8888889,8.56968215 L10.1481481,8.56968215 L10.1481481,9.29964684 Z M9.40740741,7.83971747 L11.6296296,7.83971747 L11.6296296,10.0296115 L9.40740741,10.0296115 L9.40740741,7.83971747 Z" id="Fill-350" opacity="0.5" fill="#0A0B09" sketch:type="MSShapeGroup"></path>
            <path d="M7.92592593,10.7595762 L17.5555556,10.7595762 L18.2962963,11.4895409 L18.2962963,15.1393643 L17.5555556,15.869329 L2.74074074,15.869329 L2,15.1393643 L2,11.4895409 L2.74074074,10.7595762 L4.96296296,10.7595762 L4.96296296,11.4895409 L3.48148148,11.4895409 L2.74074074,12.2195056 L2.74074074,14.4093996 L3.48148148,15.1393643 L9.40740741,15.1393643 L10.1481481,14.4093996 L10.1481481,12.2195056 L9.40740741,11.4895409 L7.92592593,11.4895409 L7.92592593,10.7595762" id="Fill-351" opacity="0.5" fill="#0A0B09" sketch:type="MSShapeGroup"></path>
            <path d="M6.07407407,10.0296115 L6.81481481,10.0296115 L6.81481481,12.9494703 L7.92592593,12.9494703 L6.44444444,14.4093996 L4.96296296,12.9494703 L6.07407407,12.9494703 L6.07407407,10.0296115" id="Fill-352" opacity="0.5" fill="#0A0B09" sketch:type="MSShapeGroup"></path>
            <path d="M13.5925926,3.91985873 L12.1111111,3.91985873 L11.3703704,3.18989405 L12.1111111,2.45992937 L13.5925926,2.45992937 L14.3333333,3.18989405 L13.5925926,3.91985873 L13.5925926,3.91985873 Z M9.14814815,3.91985873 L5.44444444,3.91985873 L4.7037037,3.18989405 L5.44444444,2.45992937 L9.14814815,2.45992937 L9.88888889,3.18989405 L9.14814815,3.91985873 L9.14814815,3.91985873 Z M15.8148148,7.56968215 L15.8148148,1.72996468 L15.0740741,1.72996468 L15.0740741,1 L3.96296296,1 L3.96296296,1.72996468 L3.22222222,1.72996468 L3.22222222,7.56968215 L3.96296296,7.56968215 L3.96296296,8.29964684 L7.66666667,8.29964684 L7.66666667,6.83971747 L8.40740741,6.83971747 L8.40740741,6.10975278 L10.6296296,6.10975278 L10.6296296,6.83971747 L11.3703704,6.83971747 L11.3703704,8.29964684 L17.2962963,8.29964684 L17.2962963,7.56968215 L15.8148148,7.56968215 L15.8148148,7.56968215 Z" id="Fill-349" opacity="0.75" fill="#0A0B09" sketch:type="MSShapeGroup"></path>
            <path d="M9.14814815,8.29964684 L9.88888889,8.29964684 L9.88888889,7.56968215 L9.14814815,7.56968215 L9.14814815,8.29964684 Z M8.40740741,6.83971747 L10.6296296,6.83971747 L10.6296296,9.02961152 L8.40740741,9.02961152 L8.40740741,6.83971747 Z" id="Fill-350" opacity="0.75" fill="#0A0B09" sketch:type="MSShapeGroup"></path>
            <path d="M6.92592593,9.7595762 L16.5555556,9.7595762 L17.2962963,10.4895409 L17.2962963,14.1393643 L16.5555556,14.869329 L1.74074074,14.869329 L1,14.1393643 L1,10.4895409 L1.74074074,9.7595762 L3.96296296,9.7595762 L3.96296296,10.4895409 L2.48148148,10.4895409 L1.74074074,11.2195056 L1.74074074,13.4093996 L2.48148148,14.1393643 L8.40740741,14.1393643 L9.14814815,13.4093996 L9.14814815,11.2195056 L8.40740741,10.4895409 L6.92592593,10.4895409 L6.92592593,9.7595762" id="Fill-351" opacity="0.75" fill="#0A0B09" sketch:type="MSShapeGroup"></path>
            <path d="M5.07407407,9.02961152 L5.81481481,9.02961152 L5.81481481,11.9494703 L6.92592593,11.9494703 L5.44444444,13.4093996 L3.96296296,11.9494703 L5.07407407,11.9494703 L5.07407407,9.02961152" id="Fill-352" opacity="0.75" fill="#0A0B09" sketch:type="MSShapeGroup"></path>
            <path d="M12.5925926,2.91985873 L11.1111111,2.91985873 L10.3703704,2.18989405 L11.1111111,1.45992937 L12.5925926,1.45992937 L13.3333333,2.18989405 L12.5925926,2.91985873 L12.5925926,2.91985873 Z M8.14814815,2.91985873 L4.44444444,2.91985873 L3.7037037,2.18989405 L4.44444444,1.45992937 L8.14814815,1.45992937 L8.88888889,2.18989405 L8.14814815,2.91985873 L8.14814815,2.91985873 Z M14.8148148,6.56968215 L14.8148148,0.729964684 L14.0740741,0.729964684 L14.0740741,0 L2.96296296,0 L2.96296296,0.729964684 L2.22222222,0.729964684 L2.22222222,6.56968215 L2.96296296,6.56968215 L2.96296296,7.29964684 L6.66666667,7.29964684 L6.66666667,5.83971747 L7.40740741,5.83971747 L7.40740741,5.10975278 L9.62962963,5.10975278 L9.62962963,5.83971747 L10.3703704,5.83971747 L10.3703704,7.29964684 L16.2962963,7.29964684 L16.2962963,6.56968215 L14.8148148,6.56968215 L14.8148148,6.56968215 Z" id="Fill-349" fill="#FFFFFF" sketch:type="MSShapeGroup"></path>
            <path d="M8.14814815,7.29964684 L8.88888889,7.29964684 L8.88888889,6.56968215 L8.14814815,6.56968215 L8.14814815,7.29964684 Z M7.40740741,5.83971747 L9.62962963,5.83971747 L9.62962963,8.02961152 L7.40740741,8.02961152 L7.40740741,5.83971747 Z" id="Fill-350" fill="#FFFFFF" sketch:type="MSShapeGroup"></path>
            <path d="M5.92592593,8.7595762 L15.5555556,8.7595762 L16.2962963,9.48954089 L16.2962963,13.1393643 L15.5555556,13.869329 L0.740740741,13.869329 L0,13.1393643 L0,9.48954089 L0.740740741,8.7595762 L2.96296296,8.7595762 L2.96296296,9.48954089 L1.48148148,9.48954089 L0.740740741,10.2195056 L0.740740741,12.4093996 L1.48148148,13.1393643 L7.40740741,13.1393643 L8.14814815,12.4093996 L8.14814815,10.2195056 L7.40740741,9.48954089 L5.92592593,9.48954089 L5.92592593,8.7595762" id="Fill-351" fill="#FFFFFF" sketch:type="MSShapeGroup"></path>
            <path d="M4.07407407,8.02961152 L4.81481481,8.02961152 L4.81481481,10.9494703 L5.92592593,10.9494703 L4.44444444,12.4093996 L2.96296296,10.9494703 L4.07407407,10.9494703 L4.07407407,8.02961152" id="Fill-352" fill="#FFFFFF" sketch:type="MSShapeGroup"></path>
        </g>
    </g>
</svg>