<?xml version="1.0" encoding="utf-8"?>
<!-- Generator: Adobe Illustrator 18.1.1, SVG Export Plug-In . SVG Version: 6.00 Build 0)  -->
<svg version="1.1" xmlns="http://www.w3.org/2000/svg" xmlns:xlink="http://www.w3.org/1999/xlink" x="0px" y="0px"
	 viewBox="0 0 24 24" enable-background="new 0 0 24 24" xml:space="preserve">
<g id="shadows">
	<g opacity="0.2">
		<path d="M20.455,12.114V5.932h-0.773V5.159H8.091v0.772H7.318v6.182h0.772v0.772h3.864v-1.545h0.773v-0.772h2.318v0.772h0.773
			v1.545H22v-0.772H20.455z M13.5,8.25H9.636L8.864,7.477l0.772-0.773H13.5l0.773,0.773L13.5,8.25z M18.136,8.25h-1.545
			l-0.772-0.773l0.772-0.773h1.545l0.773,0.773L18.136,8.25z"/>
		<path d="M12.727,11.341h2.318v2.318h-2.318V11.341z M13.5,12.886h0.773v-0.772H13.5V12.886z"/>
		<polygon points="11.182,14.432 21.227,14.432 22,15.205 22,19.068 21.227,19.841 5.773,19.841 5,19.068 5,15.205 5.773,14.432 
			8.091,14.432 8.091,15.205 6.545,15.205 5.773,15.977 5.773,18.295 6.545,19.068 12.727,19.068 13.5,18.295 13.5,15.977 
			12.727,15.205 11.182,15.205 		"/>
		<polygon points="9.247,13.659 10.019,13.659 10.019,16.75 11.181,16.75 9.636,18.295 8.09,16.75 9.247,16.75 		"/>
		<rect x="5" y="5.159" fill="none" width="17" height="14.682"/>
	</g>
</g>
<g id="icons">
	<path fill="#FFFFFF" d="M19.455,11.114V4.932h-0.773V4.159H7.091v0.772H6.318v6.182h0.772v0.772h3.864v-1.545h0.773V9.569h2.318
		v0.772h0.773v1.545H21v-0.772H19.455z M12.5,7.25H8.636L7.864,6.477l0.772-0.773H12.5l0.773,0.773L12.5,7.25z M17.136,7.25h-1.545
		l-0.772-0.773l0.772-0.773h1.545l0.773,0.773L17.136,7.25z"/>
	<path fill="#FFFFFF" d="M11.727,10.341h2.318v2.318h-2.318V10.341z M12.5,11.886h0.773v-0.772H12.5V11.886z"/>
	<polygon fill="#FFFFFF" points="10.182,13.432 20.227,13.432 21,14.205 21,18.069 20.227,18.841 4.773,18.841 4,18.069 4,14.205 
		4.773,13.432 7.091,13.432 7.091,14.205 5.545,14.205 4.773,14.977 4.773,17.296 5.545,18.069 11.727,18.069 12.5,17.296 
		12.5,14.977 11.727,14.205 10.182,14.205 	"/>
	<polygon fill="#FFFFFF" points="8.247,12.659 9.019,12.659 9.019,15.75 10.181,15.75 8.636,17.296 7.09,15.75 8.247,15.75 	"/>
</g>
</svg>
