<?xml version="1.0" encoding="utf-8"?>
<!-- Generator: Adobe Illustrator 18.1.1, SVG Export Plug-In . SVG Version: 6.00 Build 0)  -->
<svg version="1.1" xmlns="http://www.w3.org/2000/svg" xmlns:xlink="http://www.w3.org/1999/xlink" x="0px" y="0px"
	 viewBox="0 0 24 24" enable-background="new 0 0 24 24" xml:space="preserve">
<g id="shadows">
	<g opacity="0.2">
		<path d="M20.5,12.1V5.9h-0.8V5.2H8.1v0.8H7.3v6.2h0.8v0.8H12v-1.5h0.8v-0.8H15v0.8h0.8v1.5H22v-0.8H20.5z M13.5,8.3H9.6L8.9,7.5
			l0.8-0.8h3.9l0.8,0.8L13.5,8.3z M18.1,8.3h-1.5l-0.8-0.8l0.8-0.8h1.5l0.8,0.8L18.1,8.3z"/>
		<path d="M12.7,11.3H15v2.3h-2.3V11.3z M13.5,12.9h0.8v-0.8h-0.8V12.9z"/>
		<polygon points="11.2,14.4 21.2,14.4 22,15.2 22,19.1 21.2,19.8 5.8,19.8 5,19.1 5,15.2 5.8,14.4 8.1,14.4 8.1,15.2 6.5,15.2 
			5.8,16 5.8,18.3 6.5,19.1 12.7,19.1 13.5,18.3 13.5,16 12.7,15.2 11.2,15.2 		"/>
		<polygon points="9.2,13.7 10,13.7 10,16.8 11.2,16.8 9.6,18.3 8.1,16.8 9.2,16.8 		"/>
		<rect x="5" y="5.2" fill="none" width="17" height="14.7"/>
	</g>
</g>
<g id="icons">
	<path d="M19.5,11.1V4.9h-0.8V4.2H7.1v0.8H6.3v6.2h0.8v0.8H11v-1.5h0.8V9.6H14v0.8h0.8v1.5H21v-0.8H19.5z M12.5,7.3H8.6L7.9,6.5
		l0.8-0.8h3.9l0.8,0.8L12.5,7.3z M17.1,7.3h-1.5l-0.8-0.8l0.8-0.8h1.5l0.8,0.8L17.1,7.3z"/>
	<path d="M11.7,10.3H14v2.3h-2.3V10.3z M12.5,11.9h0.8v-0.8h-0.8V11.9z"/>
	<polygon points="10.2,13.4 20.2,13.4 21,14.2 21,18.1 20.2,18.8 4.8,18.8 4,18.1 4,14.2 4.8,13.4 7.1,13.4 7.1,14.2 5.5,14.2 
		4.8,15 4.8,17.3 5.5,18.1 11.7,18.1 12.5,17.3 12.5,15 11.7,14.2 10.2,14.2 	"/>
	<polygon points="8.2,12.7 9,12.7 9,15.8 10.2,15.8 8.6,17.3 7.1,15.8 8.2,15.8 	"/>
</g>
</svg>
