<?xml version="1.0" encoding="UTF-8" standalone="no"?>
<svg width="12px" height="12px" viewBox="0 0 12 12" version="1.1" xmlns="http://www.w3.org/2000/svg" xmlns:xlink="http://www.w3.org/1999/xlink" xmlns:sketch="http://www.bohemiancoding.com/sketch/ns">
    <!-- Generator: Sketch 3.2.2 (9983) - http://www.bohemiancoding.com/sketch -->
    <title>sanitary-disposal-station-white-12</title>
    <desc>Created with Sketch.</desc>
    <defs></defs>
    <g id="Page-1" stroke="none" stroke-width="1" fill="none" fill-rule="evenodd" sketch:type="MSPage">
        <path d="M8.35294118,3.42038567 L9.76470588,3.42038567 L9.76470588,4.13057851 L8.35294118,4.13057851 L8.35294118,3.42038567 Z M4.82352941,3.42038567 L6.94117647,3.42038567 L6.94117647,4.13057851 L4.82352941,4.13057851 L4.82352941,3.42038567 Z M11.1764706,6.26115702 L11.1764706,3.42038567 L10.4705882,2.71019284 L4.11764706,2.71019284 L3.41176471,3.42038567 L3.41176471,6.26115702 L4.11764706,6.97134986 L6.23529412,6.97134986 L6.23529412,6.26115702 L6.94117647,6.26115702 L6.94117647,5.55096419 L7.64705882,5.55096419 L7.64705882,6.26115702 L8.35294118,6.26115702 L8.35294118,6.97134986 L11.8823529,6.97134986 L11.8823529,6.26115702 L11.1764706,6.26115702 L11.1764706,6.26115702 Z" id="Fill-353" opacity="0.5" fill="#0A0B09" sketch:type="MSShapeGroup"></path>
        <path d="M6.23529412,7.6815427 L11.8823529,7.6815427 L11.8823529,11.2325069 L2,11.2325069 L2,7.6815427 L4.11764706,7.6815427 L4.11764706,8.39173554 L2.70588235,8.39173554 L2.70588235,10.522314 L7.64705882,10.522314 L7.64705882,8.39173554 L6.23529412,8.39173554 L6.23529412,7.6815427" id="Fill-354" opacity="0.5" fill="#0A0B09" sketch:type="MSShapeGroup"></path>
        <path d="M6.94117647,6.26115702 L7.64705882,6.26115702 L7.64705882,6.95714601 L6.94117647,6.95714601 L6.94117647,6.26115702 Z" id="Fill-355" opacity="0.5" fill="#0A0B09" sketch:type="MSShapeGroup"></path>
        <path d="M4.82352941,7.6815427 L5.52941176,7.6815427 L5.52941176,10.1672176 L4.82352941,10.1672176 L4.82352941,7.6815427 Z" id="Fill-356" opacity="0.5" fill="#0A0B09" sketch:type="MSShapeGroup"></path>
        <path d="M4.47058824,9.10192837 L5.88235294,9.10192837 L5.88235294,9.81212121 L4.47058824,9.81212121 L4.47058824,9.10192837 Z" id="Fill-357" opacity="0.5" fill="#0A0B09" sketch:type="MSShapeGroup"></path>
        <path d="M7.35294118,2.42038567 L8.76470588,2.42038567 L8.76470588,3.13057851 L7.35294118,3.13057851 L7.35294118,2.42038567 Z M3.82352941,2.42038567 L5.94117647,2.42038567 L5.94117647,3.13057851 L3.82352941,3.13057851 L3.82352941,2.42038567 Z M10.1764706,5.26115702 L10.1764706,2.42038567 L9.47058824,1.71019284 L3.11764706,1.71019284 L2.41176471,2.42038567 L2.41176471,5.26115702 L3.11764706,5.97134986 L5.23529412,5.97134986 L5.23529412,5.26115702 L5.94117647,5.26115702 L5.94117647,4.55096419 L6.64705882,4.55096419 L6.64705882,5.26115702 L7.35294118,5.26115702 L7.35294118,5.97134986 L10.8823529,5.97134986 L10.8823529,5.26115702 L10.1764706,5.26115702 L10.1764706,5.26115702 Z" id="Fill-353" opacity="0.75" fill="#0A0B09" sketch:type="MSShapeGroup"></path>
        <path d="M5.23529412,6.6815427 L10.8823529,6.6815427 L10.8823529,10.2325069 L1,10.2325069 L1,6.6815427 L3.11764706,6.6815427 L3.11764706,7.39173554 L1.70588235,7.39173554 L1.70588235,9.52231405 L6.64705882,9.52231405 L6.64705882,7.39173554 L5.23529412,7.39173554 L5.23529412,6.6815427" id="Fill-354" opacity="0.75" fill="#0A0B09" sketch:type="MSShapeGroup"></path>
        <path d="M5.94117647,5.26115702 L6.64705882,5.26115702 L6.64705882,5.95714601 L5.94117647,5.95714601 L5.94117647,5.26115702 Z" id="Fill-355" opacity="0.75" fill="#0A0B09" sketch:type="MSShapeGroup"></path>
        <path d="M3.82352941,6.6815427 L4.52941176,6.6815427 L4.52941176,9.16721763 L3.82352941,9.16721763 L3.82352941,6.6815427 Z" id="Fill-356" opacity="0.75" fill="#0A0B09" sketch:type="MSShapeGroup"></path>
        <path d="M3.47058824,8.10192837 L4.88235294,8.10192837 L4.88235294,8.81212121 L3.47058824,8.81212121 L3.47058824,8.10192837 Z" id="Fill-357" opacity="0.75" fill="#0A0B09" sketch:type="MSShapeGroup"></path>
        <path d="M6.35294118,1.42038567 L7.76470588,1.42038567 L7.76470588,2.13057851 L6.35294118,2.13057851 L6.35294118,1.42038567 Z M2.82352941,1.42038567 L4.94117647,1.42038567 L4.94117647,2.13057851 L2.82352941,2.13057851 L2.82352941,1.42038567 Z M9.17647059,4.26115702 L9.17647059,1.42038567 L8.47058824,0.710192837 L2.11764706,0.710192837 L1.41176471,1.42038567 L1.41176471,4.26115702 L2.11764706,4.97134986 L4.23529412,4.97134986 L4.23529412,4.26115702 L4.94117647,4.26115702 L4.94117647,3.55096419 L5.64705882,3.55096419 L5.64705882,4.26115702 L6.35294118,4.26115702 L6.35294118,4.97134986 L9.88235294,4.97134986 L9.88235294,4.26115702 L9.17647059,4.26115702 L9.17647059,4.26115702 Z" id="Fill-353" fill="#FFFFFF" sketch:type="MSShapeGroup"></path>
        <path d="M4.23529412,5.6815427 L9.88235294,5.6815427 L9.88235294,9.23250689 L0,9.23250689 L0,5.6815427 L2.11764706,5.6815427 L2.11764706,6.39173554 L0.705882353,6.39173554 L0.705882353,8.52231405 L5.64705882,8.52231405 L5.64705882,6.39173554 L4.23529412,6.39173554 L4.23529412,5.6815427" id="Fill-354" fill="#FFFFFF" sketch:type="MSShapeGroup"></path>
        <path d="M4.94117647,4.26115702 L5.64705882,4.26115702 L5.64705882,4.95714601 L4.94117647,4.95714601 L4.94117647,4.26115702 Z" id="Fill-355" fill="#FFFFFF" sketch:type="MSShapeGroup"></path>
        <path d="M2.82352941,5.6815427 L3.52941176,5.6815427 L3.52941176,8.16721763 L2.82352941,8.16721763 L2.82352941,5.6815427 Z" id="Fill-356" fill="#FFFFFF" sketch:type="MSShapeGroup"></path>
        <path d="M2.47058824,7.10192837 L3.88235294,7.10192837 L3.88235294,7.81212121 L2.47058824,7.81212121 L2.47058824,7.10192837 Z" id="Fill-357" fill="#FFFFFF" sketch:type="MSShapeGroup"></path>
    </g>
</svg>