<?xml version="1.0" encoding="utf-8"?>
<!-- Generator: Adobe Illustrator 18.1.1, SVG Export Plug-In . SVG Version: 6.00 Build 0)  -->
<svg version="1.1" xmlns="http://www.w3.org/2000/svg" xmlns:xlink="http://www.w3.org/1999/xlink" x="0px" y="0px"
	 viewBox="0 0 18 18" enable-background="new 0 0 18 18" xml:space="preserve">
<g id="shadows">
	<g opacity="0.2">
		<path d="M15.821,8.322V4.607l-0.929-0.929H6.536L5.607,4.607v3.714L6.536,9.25h2.786V8.322h0.929V7.393h0.929v0.929h0.929V9.25
			h4.643V8.322H15.821z M10.25,5.536H7.464V4.607h2.786V5.536z M13.964,5.536h-1.857V4.607h1.857V5.536z"/>
		<polygon points="9.321,10.179 16.75,10.179 16.75,14.822 3.75,14.822 3.75,10.179 6.536,10.179 6.536,11.107 4.679,11.107 
			4.679,13.893 11.179,13.893 11.179,11.107 9.321,11.107 		"/>
		<rect x="10.25" y="8.322" width="0.929" height="0.912"/>
		<rect x="7.464" y="10.179" width="0.929" height="3.25"/>
		<rect x="7" y="12.036" width="1.857" height="0.929"/>
	</g>
</g>
<g id="icons">
	<g>
		<path fill="#FFFFFF" d="M15.071,7.572V3.857l-0.929-0.929H5.786L4.857,3.857v3.714L5.786,8.5h2.786V7.572H9.5V6.643h0.929v0.929
			h0.929V8.5H16V7.572H15.071z M9.5,4.786H6.714V3.857H9.5V4.786z M13.214,4.786h-1.857V3.857h1.857V4.786z"/>
		<polygon fill="#FFFFFF" points="8.571,9.429 16,9.429 16,14.072 3,14.072 3,9.429 5.786,9.429 5.786,10.357 3.928,10.357 
			3.928,13.143 10.429,13.143 10.429,10.357 8.571,10.357 		"/>
		<rect x="9.5" y="7.572" fill="#FFFFFF" width="0.929" height="0.912"/>
		<rect x="6.714" y="9.429" fill="#FFFFFF" width="0.929" height="3.25"/>
		<rect x="6.25" y="11.286" fill="#FFFFFF" width="1.857" height="0.929"/>
	</g>
</g>
</svg>
