<?xml version="1.0" encoding="utf-8"?>
<!-- Generator: Adobe Illustrator 18.1.1, SVG Export Plug-In . SVG Version: 6.00 Build 0)  -->
<svg version="1.1" xmlns="http://www.w3.org/2000/svg" xmlns:xlink="http://www.w3.org/1999/xlink" x="0px" y="0px"
	 viewBox="0 0 12 12" enable-background="new 0 0 12 12" xml:space="preserve">
<g id="shadows">
	<g opacity="0.2">
		<path d="M10.857,5.357V2.786l-0.643-0.643H4.429L3.786,2.786v2.571L4.429,6h1.929V5.357H7V4.714h0.643v0.643h0.643V6H11.5V5.357
			H10.857z M7,3.429H5.071V2.786H7V3.429z M9.571,3.429H8.286V2.786h1.286V3.429z"/>
		<polygon points="6.357,6.643 11.5,6.643 11.5,9.857 2.5,9.857 2.5,6.643 4.429,6.643 4.429,7.286 3.143,7.286 3.143,9.214 
			7.643,9.214 7.643,7.286 6.357,7.286 		"/>
		<rect x="7" y="5.357" width="0.643" height="0.631"/>
		<rect x="5.071" y="6.643" width="0.643" height="2.25"/>
		<rect x="4.75" y="7.929" width="1.286" height="0.643"/>
	</g>
</g>
<g id="icons">
	<g>
		<path d="M10.357,4.857V2.286L9.714,1.643H3.929L3.286,2.286v2.571L3.929,5.5h1.929V4.857H6.5V4.214h0.643v0.643h0.643V5.5H11
			V4.857H10.357z M6.5,2.929H4.571V2.286H6.5V2.929z M9.071,2.929H7.786V2.286h1.286V2.929z"/>
		<polygon points="5.857,6.143 11,6.143 11,9.357 2,9.357 2,6.143 3.929,6.143 3.929,6.786 2.643,6.786 2.643,8.714 7.143,8.714 
			7.143,6.786 5.857,6.786 		"/>
		<rect x="6.5" y="4.857" width="0.643" height="0.631"/>
		<rect x="4.571" y="6.143" width="0.643" height="2.25"/>
		<rect x="4.25" y="7.429" width="1.286" height="0.643"/>
	</g>
</g>
</svg>
