<?xml version="1.0" encoding="utf-8"?>
<!-- Generator: Adobe Illustrator 18.0.0, SVG Export Plug-In . SVG Version: 6.00 Build 0)  -->
<!DOCTYPE svg PUBLIC "-//W3C//DTD SVG 1.1//EN" "http://www.w3.org/Graphics/SVG/1.1/DTD/svg11.dtd" [
	<!ENTITY ns_flows "http://ns.adobe.com/Flows/1.0/">
	<!ENTITY ns_extend "http://ns.adobe.com/Extensibility/1.0/">
	<!ENTITY ns_ai "http://ns.adobe.com/AdobeIllustrator/10.0/">
	<!ENTITY ns_graphs "http://ns.adobe.com/Graphs/1.0/">
	<!ENTITY st0 "opacity:0.1;">
	<!ENTITY st1 "fill:#010101;">
	<!ENTITY st2 "opacity:0.2;">
]>
<svg version="1.1" id="Layer_1" xmlns:x="&ns_extend;" xmlns:i="&ns_ai;" xmlns:graph="&ns_graphs;"
	 xmlns="http://www.w3.org/2000/svg" xmlns:xlink="http://www.w3.org/1999/xlink" xmlns:a="http://ns.adobe.com/AdobeSVGViewerExtensions/3.0/"
	 x="0px" y="0px" width="24px" height="21px" viewBox="0 0 24 21" style="enable-background:new 0 0 24 21;" xml:space="preserve">
<g style="&st0;">
	<path style="&st1;" d="M22,11V3h-1V2H6v1H5v8h1v1h5v-2h1V9h3v1h1v2h8v-1H22z M13,6H8L7,5l1-1h5l1,1L13,6z M19,6h-2l-1-1l1-1h2l1,1
		L19,6z"/>
	<path style="&st1;" d="M12,10h3v3h-3V10z M13,12h1v-1h-1V12z"/>
	<polygon style="&st1;" points="10,14 23,14 24,15 24,20 23,21 3,21 2,20 2,15 3,14 6,14 6,15 4,15 3,16 3,19 4,20 12,20 13,19 
		13,16 12,15 10,15 	"/>
	<polygon style="&st1;" points="7.5,13 8.5,13 8.5,17 10,17 8,19 6,17 7.5,17 	"/>
</g>
<g style="&st2;">
	<path style="&st1;" d="M21,10V2h-1V1H5v1H4v8h1v1h5V9h1V8h3v1h1v2h8v-1H21z M12,5H7L6,4l1-1h5l1,1L12,5z M18,5h-2l-1-1l1-1h2l1,1
		L18,5z"/>
	<path style="&st1;" d="M11,9h3v3h-3V9z M12,11h1v-1h-1V11z"/>
	<polygon style="&st1;" points="9,13 22,13 23,14 23,19 22,20 2,20 1,19 1,14 2,13 5,13 5,14 3,14 2,15 2,18 3,19 11,19 12,18 
		12,15 11,14 9,14 	"/>
	<polygon style="&st1;" points="6.5,12 7.5,12 7.5,16 9,16 7,18 5,16 6.5,16 	"/>
</g>
<g>
	<path style="&st1;" d="M20,9V1h-1V0H4v1H3v8h1v1h5V8h1V7h3v1h1v2h8V9H20z M11,4H6L5,3l1-1h5l1,1L11,4z M17,4h-2l-1-1l1-1h2l1,1
		L17,4z"/>
	<path style="&st1;" d="M10,8h3v3h-3V8z M11,10h1V9h-1V10z"/>
	<polygon style="&st1;" points="8,12 21,12 22,13 22,18 21,19 1,19 0,18 0,13 1,12 4,12 4,13 2,13 1,14 1,17 2,18 10,18 11,17 
		11,14 10,13 8,13 	"/>
	<polygon style="&st1;" points="5.5,11 6.5,11 6.5,15 8,15 6,17 4,15 5.5,15 	"/>
</g>
</svg>
