<?xml version="1.0" encoding="UTF-8" standalone="no"?>
<!-- Created with Inkscape (http://www.inkscape.org/) -->

<svg
   xmlns:dc="http://purl.org/dc/elements/1.1/"
   xmlns:cc="http://creativecommons.org/ns#"
   xmlns:rdf="http://www.w3.org/1999/02/22-rdf-syntax-ns#"
   xmlns:svg="http://www.w3.org/2000/svg"
   xmlns="http://www.w3.org/2000/svg"
   xmlns:inkscape="http://www.inkscape.org/namespaces/inkscape"
   version="1.1"
   width="12"
   height="12"
   id="svg4764">
  <defs
     id="defs4766" />
  <metadata
     id="metadata4769">
    <rdf:RDF>
      <cc:Work
         rdf:about="">
        <dc:format>image/svg+xml</dc:format>
        <dc:type
           rdf:resource="http://purl.org/dc/dcmitype/StillImage" />
        <dc:title />
      </cc:Work>
    </rdf:RDF>
  </metadata>
  <g
     transform="translate(0,-1040.3622)"
     id="layer1">
    <g
       transform="translate(-282,-9.9999826)"
       id="school-12"
       style="display:inline">
      <g
         id="g21610">
        <path
           d="m 289,1051.8622 c -0.55228,0 -1,0.4477 -1,1 0,0.5523 0.44772,1 1,1 0.55228,0 1,-0.4477 1,-1 0,-0.5523 -0.44772,-1 -1,-1 z m -4,1 c -0.55228,0 -1,0.4477 -1,1 0,0.5523 0.44772,1 1,1 0.55228,0 1,-0.4477 1,-1 0,-0.5523 -0.44772,-1 -1,-1 z m 4.5,1.5 -0.5,0 -2,1 0,1 2,-1 0,1 0,1.5625 -1,3.4375 1,0 1,-3.5 c 0,0 0.25,1.4999 1.25,1.5 0.60093,10e-5 1.41667,0 1.75,0 l 0,-0.75 c -0.25,0 -1.25,-10e-5 -1.5,0 -0.53359,2e-4 -0.5,-0.8012 -0.5,-1.25 0,-0.7501 -0.5,-2 -0.5,-2 l 1.5,0.9375 c 0.4532,0.3021 0.84576,-0.2329 0.40625,-0.5625 l -1.65625,-1.125 c -0.30176,-0.2149 -0.39841,-0.2499 -0.75,-0.25 z m -4.75,1 c -0.25,0 -0.36824,0.1183 -0.5,0.25 l -1.0625,1.0625 c -0.1368,0.1368 -0.1875,0.2593 -0.1875,0.4375 0,0.25 0.38216,0.3678 0.59375,0.1563 l 0.90625,-0.9063 0.5,0 0,1 -1,2.75 c -0.20218,0.556 0.57214,0.7243 0.75,0.25 l 0.50463,-1.3 2.74537,0 0,-0.7 -1.5,0 0,-2 c 0,-0.5 -0.5,-1 -1,-1 z"
           inkscape:connector-curvature="0"
           id="path10199"
           style="opacity:0.3;color:#000000;fill:none;stroke:#ffffff;stroke-width:2;stroke-linecap:round;stroke-linejoin:round;stroke-miterlimit:4;stroke-opacity:1;stroke-dasharray:none;stroke-dashoffset:0;marker:none;visibility:visible;display:inline;overflow:visible;enable-background:accumulate" />
        <path
           d="m 289,1051.8622 c -0.55228,0 -1,0.4477 -1,1 0,0.5523 0.44772,1 1,1 0.55228,0 1,-0.4477 1,-1 0,-0.5523 -0.44772,-1 -1,-1 z m -4,1 c -0.55228,0 -1,0.4477 -1,1 0,0.5523 0.44772,1 1,1 0.55228,0 1,-0.4477 1,-1 0,-0.5523 -0.44772,-1 -1,-1 z m 4.5,1.5 -0.5,0 -2,1 0,1 2,-1 0,1 0,1.5625 -1,3.4375 1,0 1,-3.5 c 0,0 0.25,1.4999 1.25,1.5 0.60093,10e-5 1.41667,0 1.75,0 l 0,-0.75 c -0.25,0 -1.25,-10e-5 -1.5,0 -0.53359,2e-4 -0.5,-0.8012 -0.5,-1.25 0,-0.7501 -0.5,-2 -0.5,-2 l 1.5,0.9375 c 0.4532,0.3021 0.84576,-0.2329 0.40625,-0.5625 l -1.65625,-1.125 c -0.30176,-0.2149 -0.39841,-0.2499 -0.75,-0.25 z m -4.75,1 c -0.25,0 -0.36824,0.1183 -0.5,0.25 l -1.0625,1.0625 c -0.1368,0.1368 -0.1875,0.2593 -0.1875,0.4375 0,0.25 0.38216,0.3678 0.59375,0.1563 l 0.90625,-0.9063 0.5,0 0,1 -1,2.75 c -0.20218,0.556 0.57214,0.7243 0.75,0.25 l 0.50463,-1.3 2.74537,0 0,-0.7 -1.5,0 0,-2 c 0,-0.5 -0.5,-1 -1,-1 z"
           inkscape:connector-curvature="0"
           id="path17501"
           style="color:#000000;fill:#444444;fill-opacity:1;fill-rule:nonzero;stroke:none;stroke-width:2;marker:none;visibility:visible;display:inline;overflow:visible;enable-background:accumulate" />
      </g>
    </g>
  </g>
  <rect
     width="12"
     height="12"
     x="0"
     y="0"
     id="canvas"
     style="fill:none;stroke:none;visibility:hidden" />
</svg>
