<?xml version="1.0" encoding="UTF-8" standalone="no"?>
<!-- Created with Inkscape (http://www.inkscape.org/) -->

<svg
   xmlns:dc="http://purl.org/dc/elements/1.1/"
   xmlns:cc="http://creativecommons.org/ns#"
   xmlns:rdf="http://www.w3.org/1999/02/22-rdf-syntax-ns#"
   xmlns:svg="http://www.w3.org/2000/svg"
   xmlns="http://www.w3.org/2000/svg"
   xmlns:inkscape="http://www.inkscape.org/namespaces/inkscape"
   version="1.1"
   width="24"
   height="24"
   id="svg4460">
  <defs
     id="defs4462" />
  <metadata
     id="metadata4465">
    <rdf:RDF>
      <cc:Work
         rdf:about="">
        <dc:format>image/svg+xml</dc:format>
        <dc:type
           rdf:resource="http://purl.org/dc/dcmitype/StillImage" />
        <dc:title />
      </cc:Work>
    </rdf:RDF>
  </metadata>
  <g
     transform="translate(0,-1028.3622)"
     id="layer1">
    <path
       d="m 16,1032.3622 c 0,0 -0.5,0 -0.5,0.5 0,0.5 0.5,0.5 0.5,0.5 l 1.5,0 0.71875,2.8125 -3.46875,4.9375 c -0.684649,0.7361 -1.014418,1.25 -1.75,1.25 l -2,0 0,-5 1,0 c 0.554,0 1,-0.446 1,-1 0,-0.554 -0.446,-1 -1,-1 l -7,0 c -0.554,0 -1,0.446 -1,1 0,0.554 0.446,1 1,1 l 0.5,0 c 0.277,0 0.5,0.223 0.5,0.5 0,0.277 -0.223,0.5 -0.5,0.5 l -0.5,0 c -0.5,0 -1,0.5 -1,1 l 0,5 9,0 c 1.62932,0 2.618755,-1.0713 3.25,-1.75 0.717421,-0.7713 1.146152,-1.25 1.75,-1.25 l 4,0 0,-0.5 c 0,-0.5 -0.8125,-1 -1,-1.5 l -1,-4 c 0.55401,0 1,-0.446 1,-1 l 0,-1 c 0,-0.554 -0.44599,-1 -1,-1 z m 3.5,10 c -1.380712,0 -2.5,1.1193 -2.5,2.5 0,1.3807 1.119288,2.5 2.5,2.5 1.380712,0 2.5,-1.1193 2.5,-2.5 0,-1.3807 -1.119288,-2.5 -2.5,-2.5 z m -14.4375,3 c 0.2331157,1.1392 1.2293771,2 2.4375,2 1.2081229,0 2.2043843,-0.8608 2.4375,-2 z"
       inkscape:connector-curvature="0"
       id="path6506"
       style="opacity:0.3;color:#000000;fill:none;stroke:#ffffff;stroke-width:2;stroke-linecap:butt;stroke-linejoin:miter;stroke-miterlimit:4;stroke-opacity:1;stroke-dasharray:none;stroke-dashoffset:0;marker:none;visibility:visible;display:inline;overflow:visible;enable-background:accumulate" />
    <path
       d="m 16,1032.3622 c 0,0 -0.5,0 -0.5,0.5 0,0.5 0.5,0.5 0.5,0.5 l 1.5,0 0.71875,2.8125 -3.46875,4.9375 c -0.684649,0.7361 -1.014418,1.25 -1.75,1.25 l -2,0 0,-5 1,0 c 0.554,0 1,-0.446 1,-1 0,-0.554 -0.446,-1 -1,-1 l -7,0 c -0.554,0 -1,0.446 -1,1 0,0.554 0.446,1 1,1 l 0.5,0 c 0.277,0 0.5,0.223 0.5,0.5 0,0.277 -0.223,0.5 -0.5,0.5 l -0.5,0 c -0.5,0 -1,0.5 -1,1 l 0,5 9,0 c 1.62932,0 2.618755,-1.0713 3.25,-1.75 0.717421,-0.7713 1.146152,-1.25 1.75,-1.25 l 4,0 0,-0.5 c 0,-0.5 -0.8125,-1 -1,-1.5 l -1,-4 c 0.55401,0 1,-0.446 1,-1 l 0,-1 c 0,-0.554 -0.44599,-1 -1,-1 z m 3.5,10 c -1.380712,0 -2.5,1.1193 -2.5,2.5 0,1.3807 1.119288,2.5 2.5,2.5 1.380712,0 2.5,-1.1193 2.5,-2.5 0,-1.3807 -1.119288,-2.5 -2.5,-2.5 z m -14.4375,3 c 0.2331157,1.1392 1.2293771,2 2.4375,2 1.2081229,0 2.2043843,-0.8608 2.4375,-2 z"
       inkscape:connector-curvature="0"
       id="path3055"
       style="color:#000000;fill:#444444;fill-opacity:1;fill-rule:nonzero;stroke:none;stroke-width:1;marker:none;visibility:visible;display:inline;overflow:visible;enable-background:accumulate" />
  </g>
  <rect
     width="24"
     height="24"
     x="0"
     y="0"
     id="canvas"
     style="fill:none;stroke:none;visibility:hidden" />
</svg>
