<?xml version="1.0" encoding="UTF-8" standalone="no"?>
<!-- Created with Inkscape (http://www.inkscape.org/) -->

<svg
   xmlns:dc="http://purl.org/dc/elements/1.1/"
   xmlns:cc="http://creativecommons.org/ns#"
   xmlns:rdf="http://www.w3.org/1999/02/22-rdf-syntax-ns#"
   xmlns:svg="http://www.w3.org/2000/svg"
   xmlns="http://www.w3.org/2000/svg"
   xmlns:inkscape="http://www.inkscape.org/namespaces/inkscape"
   version="1.1"
   width="18"
   height="18"
   id="svg4619">
  <defs
     id="defs4621" />
  <metadata
     id="metadata4624">
    <rdf:RDF>
      <cc:Work
         rdf:about="">
        <dc:format>image/svg+xml</dc:format>
        <dc:type
           rdf:resource="http://purl.org/dc/dcmitype/StillImage" />
        <dc:title />
      </cc:Work>
    </rdf:RDF>
  </metadata>
  <g
     transform="translate(0,-1034.3622)"
     id="layer1">
    <path
       d="m 12,1036.3622 -0.5,0.5 0.5,0.5 1,0 1,2 -3,3 c -0.604102,0.6495 -1.350957,1 -2,1 l -1,0 0,-3 1,0 c 0.4888173,0 1,-0.5112 1,-1 0,-0.4888 -0.5,-1 -1,-1 l -5,0 c -0.4888235,0 -1,0.5112 -1,1 0,0.4888 0.5111765,1 1,1 l 0.5,0 0,0.5 -0.5,0 c -0.4411764,0 -1,0.5588 -1,1 l 0,3.5 6,0 c 1.437636,0 2.011029,-0.01 2.9375,-0.9062 0.633018,-0.6806 0.998443,-1.0938 1.53125,-1.0938 l 3.53125,0 0,-0.4375 c 0,-0.4413 -0.834559,-0.6214 -1,-1.0625 l -1,-2.5 c 0.488833,0 1,-0.5111 1,-1 l 0,-1 c 0,-0.4888 -0.511167,-1 -1,-1 z m 3,8 c -1.104569,0 -2,0.8954 -2,2 0,1.1046 0.895431,2 2,2 1.104569,0 2,-0.8954 2,-2 0,-1.1046 -0.895431,-2 -2,-2 z m -11,2 c 0,1.1046 0.8954305,2 2,2 1.1045695,0 2,-0.8954 2,-2 l -2,0 z"
       inkscape:connector-curvature="0"
       id="path3023"
       style="opacity:0.3;color:#000000;fill:none;stroke:#ffffff;stroke-width:2;stroke-linecap:butt;stroke-linejoin:miter;stroke-miterlimit:4;stroke-opacity:1;stroke-dasharray:none;stroke-dashoffset:0;marker:none;visibility:visible;display:inline;overflow:visible;enable-background:accumulate" />
    <path
       d="m 12,1036.3622 -0.5,0.5 0.5,0.5 1,0 1,2 -3,3 c -0.604102,0.6495 -1.350957,1 -2,1 l -1,0 0,-3 0.5,0 c 0.4888173,0 1,-0.5112 1,-1 0,-0.4888 -0.5,-1 -1,-1 l -4.5,0 c -0.4888235,0 -1,0.5112 -1,1 0,0.4888 0.5111765,1 1,1 l 0.5,0 0,0.5 -0.5,0 c -0.4411764,0 -1,0.5588 -1,1 l 0,3.5 6,0 c 1.437636,0 2.011029,-0.01 2.9375,-0.9062 0.633018,-0.6806 0.998443,-1.0938 1.53125,-1.0938 l 3.53125,0 0,-0.4375 c 0,-0.4413 -0.834559,-0.6214 -1,-1.0625 l -1,-2.5 c 0.488833,0 1,-0.5111 1,-1 l 0,-1 c 0,-0.4888 -0.511167,-1 -1,-1 z m 3,8 c -1.104569,0 -2,0.8954 -2,2 0,1.1046 0.895431,2 2,2 1.104569,0 2,-0.8954 2,-2 0,-1.1046 -0.895431,-2 -2,-2 z m -11,2 c 0,1.1046 0.8954305,2 2,2 1.1045695,0 2,-0.8954 2,-2 l -2,0 z"
       inkscape:connector-curvature="0"
       id="path3055"
       style="color:#000000;fill:#444444;fill-opacity:1;fill-rule:nonzero;stroke:none;stroke-width:1;marker:none;visibility:visible;display:inline;overflow:visible;enable-background:accumulate" />
  </g>
  <rect
     width="18"
     height="18"
     x="0"
     y="0"
     id="canvas"
     style="fill:none;stroke:none;visibility:hidden" />
</svg>
