<?xml version="1.0" encoding="utf-8"?>
<!-- Generator: Adobe Illustrator 18.1.1, SVG Export Plug-In . SVG Version: 6.00 Build 0)  -->
<svg version="1.1" xmlns="http://www.w3.org/2000/svg" xmlns:xlink="http://www.w3.org/1999/xlink" x="0px" y="0px"
	 viewBox="0 0 12 12" enable-background="new 0 0 12 12" xml:space="preserve">
<g id="shadows">
	<g opacity="0.2">
		<polygon points="9.9,9 9.9,8.6 9.5,8.6 9.2,8.1 9.2,7.3 8.6,7.3 7.9,7 7.9,6.6 7.3,6.6 6.6,6.3 6.6,6 6,6 6,5.4 5.5,5.4 5.4,5.2 
			5.4,4.7 4.9,4.7 4.7,4.5 4.7,4.1 4.4,4.1 2.8,2.1 1.5,2.1 1.5,2.8 2.1,2.8 3.4,4.3 3.4,4.7 3.8,4.7 4.1,5.1 4.1,5.4 4.3,5.4 
			4.7,5.9 4.7,6 4.8,6 5.4,6.6 6,7 6,7.3 6.6,7.3 7.3,7.6 7.3,7.9 7.9,7.9 9.2,9.2 9.2,9.9 9.9,9.9 10.5,9.9 10.5,9.2 10,9.2 		"/>
		<rect x="9.2" y="6" width="1.3" height="1.3"/>
		<polygon points="6.6,5.4 7,5.4 7.3,5.6 7.3,6 8.6,6 8.6,5.4 7.9,4.9 7.9,4.7 7.6,4.7 7.3,4.5 7.3,4.1 6,4.1 6,4.7 6.6,5.1 		"/>
		<rect x="1.5" y="2.1" fill="none" width="9" height="7.7"/>
	</g>
</g>
<g id="icons">
	<polygon fill="#FFFFFF" points="9.4,8.5 9.4,8.1 9,8.1 8.7,7.6 8.7,6.8 8.1,6.8 7.4,6.5 7.4,6.1 6.8,6.1 6.1,5.8 6.1,5.5 5.5,5.5 
		5.5,4.9 5,4.9 4.9,4.7 4.9,4.2 4.4,4.2 4.2,4 4.2,3.6 3.9,3.6 2.3,1.6 1,1.6 1,2.3 1.6,2.3 2.9,3.8 2.9,4.2 3.3,4.2 3.6,4.6 
		3.6,4.9 3.8,4.9 4.2,5.4 4.2,5.5 4.3,5.5 4.9,6.1 5.5,6.5 5.5,6.8 6.1,6.8 6.8,7.1 6.8,7.4 7.4,7.4 8.7,8.7 8.7,9.4 9.4,9.4 
		10,9.4 10,8.7 9.5,8.7 	"/>
	<rect x="8.7" y="5.5" fill="#FFFFFF" width="1.3" height="1.3"/>
	<polygon fill="#FFFFFF" points="6.1,4.9 6.5,4.9 6.8,5.1 6.8,5.5 8.1,5.5 8.1,4.9 7.4,4.4 7.4,4.2 7.1,4.2 6.8,4 6.8,3.6 5.5,3.6 
		5.5,4.2 6.1,4.6 	"/>
</g>
</svg>
