<?xml version="1.0" encoding="utf-8"?>
<!-- Generator: Adobe Illustrator 18.1.1, SVG Export Plug-In . SVG Version: 6.00 Build 0)  -->
<svg version="1.1" xmlns="http://www.w3.org/2000/svg" xmlns:xlink="http://www.w3.org/1999/xlink" x="0px" y="0px"
	 viewBox="0 0 24 24" enable-background="new 0 0 24 24" xml:space="preserve">
<g id="shadows">
	<g opacity="0.2">
		<polygon points="8.1,7.9 8.9,7.9 8.9,7.1 9.1,7.1 8.1,5.5 5,5.5 7.3,7.9 7.8,8.6 8.1,8.6 		"/>
		<polygon points="17.4,14 12.7,12.5 9.6,7.9 8.9,7.9 8.9,8.6 8.1,8.6 8.1,9 12,14.8 16.6,15.6 20.5,19.5 21.2,18.7 21.2,17.9 		"/>
		<polygon points="14.2,10.2 18.1,11.7 17.5,13.3 13.5,11.7 		"/>
		<path d="M20.3,14.4l0.6,0.7l1.2-1.3l-1-0.5c0.1-0.7-0.3-1.3-1-1.5c-0.7-0.2-1.5,0.2-1.7,1c-0.2,0.8,0.2,1.5,1,1.7
			C19.6,14.6,20,14.5,20.3,14.4"/>
		<rect x="5" y="5.5" fill="none" width="17" height="13.9"/>
	</g>
</g>
<g id="icons">
	<polygon fill="#FFFFFF" points="7.1,6.9 7.9,6.9 7.9,6.1 8.1,6.1 7.1,4.5 4,4.5 6.3,6.9 6.8,7.6 7.1,7.6 	"/>
	<polygon fill="#FFFFFF" points="16.4,13 11.7,11.5 8.6,6.9 7.9,6.9 7.9,7.6 7.1,7.6 7.1,8 11,13.8 15.6,14.6 19.5,18.5 20.2,17.7 
		20.2,16.9 	"/>
	<polygon fill="#FFFFFF" points="13.2,9.2 17.1,10.7 16.5,12.3 12.5,10.7 	"/>
	<path fill="#FFFFFF" d="M19.3,13.4l0.6,0.7l1.2-1.3l-1-0.5c0.1-0.7-0.3-1.3-1-1.5c-0.7-0.2-1.5,0.2-1.7,1c-0.2,0.8,0.2,1.5,1,1.7
		C18.6,13.6,19,13.5,19.3,13.4"/>
</g>
</svg>
