<?xml version="1.0" encoding="utf-8"?>
<!-- Generator: Adobe Illustrator 18.1.1, SVG Export Plug-In . SVG Version: 6.00 Build 0)  -->
<svg version="1.1" xmlns="http://www.w3.org/2000/svg" xmlns:xlink="http://www.w3.org/1999/xlink" x="0px" y="0px"
	 viewBox="0 0 18 18" enable-background="new 0 0 18 18" xml:space="preserve">
<g id="shadows">
	<g opacity="0.2">
		<polygon points="15.8,13.6 15.8,13 15.4,13 14.9,12.3 14.9,11.1 14,11.1 13,10.6 13,10.2 12.1,10.2 11.2,9.7 11.2,9.3 10.2,9.3 
			10.2,8.3 9.5,8.3 9.3,8.1 9.3,7.4 8.7,7.4 8.4,7 8.4,6.5 7.9,6.5 5.6,3.7 3.8,3.7 3.8,4.6 4.7,4.6 6.5,6.8 6.5,7.4 7,7.4 7.5,8 
			7.5,8.3 7.8,8.3 8.4,9.1 8.4,9.3 8.5,9.3 9.3,10.2 10.2,10.6 10.2,11.1 11.2,11.1 12.1,11.6 12.1,12 13,12 14.9,13.9 14.9,14.8 
			15.8,14.8 16.8,14.8 16.8,13.9 16.1,13.9 		"/>
		<rect x="14.9" y="9.3" width="1.9" height="1.9"/>
		<polygon points="11.2,8.3 11.6,8.3 12.1,8.6 12.1,9.3 14,9.3 14,8.3 13,7.7 13,7.4 12.6,7.4 12.1,7.1 12.1,6.5 10.2,6.5 10.2,7.4 
			11.2,8 		"/>
		<rect x="3.8" y="3.7" fill="none" width="13" height="11.1"/>
	</g>
</g>
<g id="icons">
	<polygon fill="#FFFFFF" points="15.1,12.8 15.1,12.2 14.6,12.2 14.1,11.6 14.1,10.4 13.2,10.4 12.3,9.9 12.3,9.4 11.4,9.4 10.4,9 
		10.4,8.5 9.5,8.5 9.5,7.6 8.7,7.6 8.6,7.4 8.6,6.6 8,6.6 7.6,6.3 7.6,5.7 7.2,5.7 4.9,2.9 3,2.9 3,3.9 3.9,3.9 5.8,6.1 5.8,6.6 
		6.2,6.6 6.7,7.2 6.7,7.6 7,7.6 7.6,8.3 7.6,8.5 7.8,8.5 8.6,9.4 9.5,9.9 9.5,10.4 10.4,10.4 11.4,10.8 11.4,11.3 12.3,11.3 
		14.1,13.1 14.1,14.1 15.1,14.1 16,14.1 16,13.1 15.3,13.1 	"/>
	<rect x="14.1" y="8.5" fill="#FFFFFF" width="1.9" height="1.9"/>
	<polygon fill="#FFFFFF" points="10.4,7.6 10.9,7.6 11.4,7.9 11.4,8.5 13.2,8.5 13.2,7.6 12.3,7 12.3,6.6 11.8,6.6 11.4,6.3 
		11.4,5.7 9.5,5.7 9.5,6.6 10.4,7.3 	"/>
</g>
</svg>
