<?xml version="1.0" encoding="utf-8"?>
<!-- Generator: Adobe Illustrator 18.1.1, SVG Export Plug-In . SVG Version: 6.00 Build 0)  -->
<svg version="1.1" xmlns="http://www.w3.org/2000/svg" xmlns:xlink="http://www.w3.org/1999/xlink" x="0px" y="0px"
	 viewBox="0 0 18 18" enable-background="new 0 0 18 18" xml:space="preserve">
<g id="shadows">
	<g opacity="0.2">
		<polygon points="15.821,13.583 15.821,12.964 15.357,12.964 14.894,12.346 14.894,11.107 13.965,11.107 13.036,10.643 
			13.036,10.179 12.107,10.179 11.179,9.714 11.179,9.25 10.25,9.25 10.25,8.321 9.477,8.321 9.321,8.136 9.321,7.393 8.701,7.393 
			8.394,7.022 8.394,6.464 7.929,6.464 5.607,3.679 3.75,3.679 3.75,4.607 4.679,4.607 6.536,6.835 6.536,7.393 7,7.393 
			7.465,7.951 7.465,8.321 7.773,8.321 8.394,9.064 8.394,9.25 8.548,9.25 9.321,10.179 10.25,10.643 10.25,11.107 11.179,11.107 
			12.107,11.571 12.107,12.036 13.036,12.036 14.894,13.893 14.894,14.821 15.821,14.821 16.75,14.821 16.75,13.893 16.054,13.893 
					"/>
		<rect x="14.894" y="9.25" width="1.856" height="1.857"/>
		<polygon points="11.179,8.321 11.644,8.321 12.107,8.631 12.107,9.25 13.965,9.25 13.965,8.321 13.036,7.702 13.036,7.393 
			12.571,7.393 12.107,7.084 12.107,6.464 10.25,6.464 10.25,7.393 11.179,8.012 		"/>
		<rect x="3.75" y="3.679" fill="none" width="13" height="11.143"/>
	</g>
</g>
<g id="icons">
	<polygon fill="#FFFFFF" points="15.071,12.833 15.071,12.215 14.607,12.215 14.144,11.596 14.144,10.357 13.215,10.357 
		12.286,9.893 12.286,9.429 11.357,9.429 10.429,8.965 10.429,8.5 9.5,8.5 9.5,7.571 8.727,7.571 8.571,7.386 8.571,6.643 
		7.951,6.643 7.644,6.272 7.644,5.715 7.179,5.715 4.857,2.929 3,2.929 3,3.857 3.929,3.857 5.786,6.085 5.786,6.643 6.25,6.643 
		6.715,7.201 6.715,7.571 7.023,7.571 7.644,8.314 7.644,8.5 7.798,8.5 8.571,9.429 9.5,9.893 9.5,10.357 10.429,10.357 
		11.357,10.821 11.357,11.286 12.286,11.286 14.144,13.143 14.144,14.071 15.071,14.071 16.001,14.071 16.001,13.143 15.304,13.143 
			"/>
	<rect x="14.144" y="8.5" fill="#FFFFFF" width="1.857" height="1.857"/>
	<polygon fill="#FFFFFF" points="10.429,7.571 10.894,7.571 11.357,7.881 11.357,8.5 13.215,8.5 13.215,7.571 12.286,6.952 
		12.286,6.643 11.821,6.643 11.357,6.334 11.357,5.715 9.5,5.715 9.5,6.643 10.429,7.262 	"/>
</g>
</svg>
