<?xml version="1.0" encoding="UTF-8" standalone="no"?>
<svg width="18px" height="18px" viewBox="0 0 18 18" version="1.1" xmlns="http://www.w3.org/2000/svg" xmlns:xlink="http://www.w3.org/1999/xlink" xmlns:sketch="http://www.bohemiancoding.com/sketch/ns">
    <!-- Generator: Sketch 3.2.2 (9983) - http://www.bohemiancoding.com/sketch -->
    <title>scuba-diving-black-18</title>
    <desc>Created with Sketch.</desc>
    <defs></defs>
    <g id="Page-1" stroke="none" stroke-width="1" fill="none" fill-rule="evenodd" sketch:type="MSPage">
        <path d="M4.96296296,5.18989405 L5.7037037,5.18989405 L5.7037037,4.45992937 L5.94814815,4.45992937 L4.96296296,3 L2,3 L4.22222222,5.18989405 L4.71851852,5.91985873 L4.96296296,5.91985873 L4.96296296,5.18989405" id="Fill-374" opacity="0.1" fill="#0A0B09" sketch:type="MSShapeGroup"></path>
        <path d="M13.8518519,11.0296115 L9.40740741,9.56968215 L6.44444444,5.18989405 L5.7037037,5.18989405 L5.7037037,5.91985873 L4.96296296,5.91985873 L4.96296296,6.28484108 L8.66666667,11.7595762 L13.1111111,12.4895409 L16.8148148,16.1393643 L17.5555556,15.4093996 L17.5555556,14.6794349 L13.8518519,11.0296115" id="Fill-375" opacity="0.1" fill="#0A0B09" sketch:type="MSShapeGroup"></path>
        <path d="M10.7851852,7.3797881 L14.5925926,8.83971747 L13.9555556,10.2996468 L10.1481481,8.83971747 L10.7851852,7.3797881" id="Fill-376" opacity="0.1" fill="#0A0B09" sketch:type="MSShapeGroup"></path>
        <path d="M16.6444444,11.3434963 L17.1925926,12.0515621 L18.2962963,10.85442 L17.362963,10.3434447 C17.4518519,9.70107579 17.0444444,9.07330617 16.3925926,8.890815 C15.6740741,8.69372453 14.9333333,9.10250475 14.7333333,9.8105705 C14.5259259,10.5186362 14.9481481,11.2486009 15.6592593,11.4456914 C16.0074074,11.5405868 16.3481481,11.4894893 16.6444444,11.3434963" id="Fill-377" opacity="0.1" fill="#0A0B09" sketch:type="MSShapeGroup"></path>
        <path d="M3.96296296,4.18989405 L4.7037037,4.18989405 L4.7037037,3.45992937 L4.94814815,3.45992937 L3.96296296,2 L1,2 L3.22222222,4.18989405 L3.71851852,4.91985873 L3.96296296,4.91985873 L3.96296296,4.18989405" id="Fill-374" opacity="0.2" fill="#0A0B09" sketch:type="MSShapeGroup"></path>
        <path d="M12.8518519,10.0296115 L8.40740741,8.56968215 L5.44444444,4.18989405 L4.7037037,4.18989405 L4.7037037,4.91985873 L3.96296296,4.91985873 L3.96296296,5.28484108 L7.66666667,10.7595762 L12.1111111,11.4895409 L15.8148148,15.1393643 L16.5555556,14.4093996 L16.5555556,13.6794349 L12.8518519,10.0296115" id="Fill-375" opacity="0.2" fill="#0A0B09" sketch:type="MSShapeGroup"></path>
        <path d="M9.78518519,6.3797881 L13.5925926,7.83971747 L12.9555556,9.29964684 L9.14814815,7.83971747 L9.78518519,6.3797881" id="Fill-376" opacity="0.2" fill="#0A0B09" sketch:type="MSShapeGroup"></path>
        <path d="M15.6444444,10.3434963 L16.1925926,11.0515621 L17.2962963,9.85441999 L16.362963,9.34344472 C16.4518519,8.70107579 16.0444444,8.07330617 15.3925926,7.890815 C14.6740741,7.69372453 13.9333333,8.10250475 13.7333333,8.8105705 C13.5259259,9.51863624 13.9481481,10.2486009 14.6592593,10.4456914 C15.0074074,10.5405868 15.3481481,10.4894893 15.6444444,10.3434963" id="Fill-377" opacity="0.2" fill="#0A0B09" sketch:type="MSShapeGroup"></path>
        <path d="M2.96296296,3.18989405 L3.7037037,3.18989405 L3.7037037,2.45992937 L3.94814815,2.45992937 L2.96296296,1 L0,1 L2.22222222,3.18989405 L2.71851852,3.91985873 L2.96296296,3.91985873 L2.96296296,3.18989405" id="Fill-374" fill="#0A0B09" sketch:type="MSShapeGroup"></path>
        <path d="M11.8518519,9.02961152 L7.40740741,7.56968215 L4.44444444,3.18989405 L3.7037037,3.18989405 L3.7037037,3.91985873 L2.96296296,3.91985873 L2.96296296,4.28484108 L6.66666667,9.7595762 L11.1111111,10.4895409 L14.8148148,14.1393643 L15.5555556,13.4093996 L15.5555556,12.6794349 L11.8518519,9.02961152" id="Fill-375" fill="#0A0B09" sketch:type="MSShapeGroup"></path>
        <path d="M8.78518519,5.3797881 L12.5925926,6.83971747 L11.9555556,8.29964684 L8.14814815,6.83971747 L8.78518519,5.3797881" id="Fill-376" fill="#0A0B09" sketch:type="MSShapeGroup"></path>
        <path d="M14.6444444,9.34349633 L15.1925926,10.0515621 L16.2962963,8.85441999 L15.362963,8.34344472 C15.4518519,7.70107579 15.0444444,7.07330617 14.3925926,6.890815 C13.6740741,6.69372453 12.9333333,7.10250475 12.7333333,7.8105705 C12.5259259,8.51863624 12.9481481,9.24860092 13.6592593,9.44569139 C14.0074074,9.5405868 14.3481481,9.48948927 14.6444444,9.34349633" id="Fill-377" fill="#0A0B09" sketch:type="MSShapeGroup"></path>
    </g>
</svg>