<?xml version="1.0" encoding="UTF-8" standalone="no"?>
<!-- Created with Inkscape (http://www.inkscape.org/) -->

<svg
   xmlns:dc="http://purl.org/dc/elements/1.1/"
   xmlns:cc="http://creativecommons.org/ns#"
   xmlns:rdf="http://www.w3.org/1999/02/22-rdf-syntax-ns#"
   xmlns:svg="http://www.w3.org/2000/svg"
   xmlns="http://www.w3.org/2000/svg"
   xmlns:sodipodi="http://sodipodi.sourceforge.net/DTD/sodipodi-0.dtd"
   xmlns:inkscape="http://www.inkscape.org/namespaces/inkscape"
   width="18"
   height="18"
   id="svg27435"
   version="1.1"
   inkscape:version="0.48.2 r9819"
   sodipodi:docname="shelter-white-18.svg">
  <defs
     id="defs27437" />
  <sodipodi:namedview
     id="base"
     pagecolor="#ffa6ff"
     bordercolor="#666666"
     borderopacity="1.0"
     inkscape:pageopacity="0"
     inkscape:pageshadow="2"
     inkscape:zoom="7.9891803"
     inkscape:cx="12.590799"
     inkscape:cy="8.9588378"
     inkscape:document-units="px"
     inkscape:current-layer="layer1"
     showgrid="false"
     inkscape:window-width="483"
     inkscape:window-height="454"
     inkscape:window-x="3161"
     inkscape:window-y="149"
     inkscape:window-maximized="0">
    <inkscape:grid
       type="xygrid"
       id="grid2986" />
  </sodipodi:namedview>
  <metadata
     id="metadata27440">
    <rdf:RDF>
      <cc:Work
         rdf:about="">
        <dc:format>image/svg+xml</dc:format>
        <dc:type
           rdf:resource="http://purl.org/dc/dcmitype/StillImage" />
        <dc:title></dc:title>
      </cc:Work>
    </rdf:RDF>
  </metadata>
  <g
     inkscape:label="Layer 1"
     inkscape:groupmode="layer"
     id="layer1"
     transform="translate(0,-1034.3622)">
    <g
       id="g16154"
       transform="matrix(1.8213093,0,0,1.8213093,-812.33779,545.80201)">
      <path
         style="opacity:0;fill:#272525"
         inkscape:connector-curvature="0"
         id="path16156"
         d="m 454.797,278.123 c 0.652,0 1.18,-0.529 1.18,-1.182 v -7.521 c 0,-0.652 -0.527,-1.18 -1.18,-1.18 h -7.521 c -0.654,0 -1.182,0.527 -1.182,1.18 v 7.521 c 0,0.652 0.527,1.182 1.182,1.182 h 7.521 z" />
      <g
         id="g16158"
         style="opacity:0.6;fill:none;stroke:#1b1b1c;stroke-width:0.5;stroke-miterlimit:4;stroke-opacity:1;stroke-dasharray:none"
         transform="translate(424.381,-277.111)">
        <polygon
           style="fill:none;stroke:#1b1b1c;stroke-width:0.5;stroke-miterlimit:4;stroke-opacity:1;stroke-dasharray:none"
           id="polygon16160"
           points="23.917,548.221 24.394,547.793 23.962,546.957 22.677,546.953 " />
        <path
           style="fill:none;stroke:#1b1b1c;stroke-width:0.5;stroke-miterlimit:4;stroke-opacity:1;stroke-dasharray:none"
           inkscape:connector-curvature="0"
           id="path16162"
           d="m 28.267,550.504 c 0.234,0.064 0.486,-0.068 0.553,-0.307 0.064,-0.234 -0.072,-0.48 -0.308,-0.547 l -0.184,-0.051 -0.238,0.852 0.177,0.053 z" />
        <path
           style="fill:none;stroke:#1b1b1c;stroke-width:0.5;stroke-miterlimit:4;stroke-opacity:1;stroke-dasharray:none"
           inkscape:connector-curvature="0"
           id="path16164"
           d="m 28.123,549.545 -1.483,-0.418 c -0.098,-0.025 -0.196,0.033 -0.224,0.131 l -0.139,0.496 c -0.027,0.098 0.025,0.197 0.125,0.227 l 1.484,0.414 0.237,-0.85 z" />
        <path
           style="fill:none;stroke:#1b1b1c;stroke-width:0.5;stroke-miterlimit:4;stroke-opacity:1;stroke-dasharray:none"
           inkscape:connector-curvature="0"
           id="path16166"
           d="m 28.357,550.955 c -0.113,-0.107 -0.254,-0.193 -0.418,-0.238 l -1.799,-0.504 0,0 -1.105,-1.961 c -0.059,-0.102 -0.152,-0.182 -0.273,-0.215 -0.242,-0.068 -0.494,0.074 -0.561,0.316 -0.033,0.115 -0.018,0.232 0.035,0.332 l 1.383,2.426 c 0,0 0.113,0.182 0.398,0.275 l 2.514,0.705 1.166,1.184 c 0.039,0.041 0.09,0.072 0.15,0.09 0.176,0.049 0.359,-0.057 0.41,-0.23 0.033,-0.123 -0.006,-0.252 -0.094,-0.332 l -1.806,-1.848 z" />
        <path
           style="fill:none;stroke:#1b1b1c;stroke-width:0.5;stroke-miterlimit:4;stroke-opacity:1;stroke-dasharray:none"
           inkscape:connector-curvature="0"
           id="path16168"
           d="m 29.7,551.445 0.261,0.342 0.531,-0.58 -0.448,-0.25 c 0.043,-0.314 -0.152,-0.619 -0.465,-0.707 -0.344,-0.096 -0.701,0.104 -0.797,0.447 -0.098,0.346 0.104,0.701 0.447,0.797 0.164,0.047 0.33,0.022 0.471,-0.049 z" />
      </g>
      <g
         id="g16170"
         transform="translate(424.381,-277.111)"
         style="fill:#ffffff;fill-opacity:1">
        <polygon
           points="23.917,548.221 24.394,547.793 23.962,546.957 22.677,546.953 "
           id="polygon16172"
           style="fill:#ffffff;fill-opacity:1" />
        <path
           d="m 28.267,550.504 c 0.234,0.064 0.486,-0.068 0.553,-0.307 0.064,-0.234 -0.072,-0.48 -0.308,-0.547 l -0.184,-0.051 -0.238,0.852 0.177,0.053 z"
           id="path16174"
           inkscape:connector-curvature="0"
           style="fill:#ffffff;fill-opacity:1" />
        <path
           d="m 28.123,549.545 -1.483,-0.418 c -0.098,-0.025 -0.196,0.033 -0.224,0.131 l -0.139,0.496 c -0.027,0.098 0.025,0.197 0.125,0.227 l 1.484,0.414 0.237,-0.85 z"
           id="path16176"
           inkscape:connector-curvature="0"
           style="fill:#ffffff;fill-opacity:1" />
        <path
           d="m 28.357,550.955 c -0.113,-0.107 -0.254,-0.193 -0.418,-0.238 l -1.799,-0.504 0,0 -1.105,-1.961 c -0.059,-0.102 -0.152,-0.182 -0.273,-0.215 -0.242,-0.068 -0.494,0.074 -0.561,0.316 -0.033,0.115 -0.018,0.232 0.035,0.332 l 1.383,2.426 c 0,0 0.113,0.182 0.398,0.275 l 2.514,0.705 1.166,1.184 c 0.039,0.041 0.09,0.072 0.15,0.09 0.176,0.049 0.359,-0.057 0.41,-0.23 0.033,-0.123 -0.006,-0.252 -0.094,-0.332 l -1.806,-1.848 z"
           id="path16178"
           inkscape:connector-curvature="0"
           style="fill:#ffffff;fill-opacity:1" />
        <path
           d="m 29.7,551.445 0.261,0.342 0.531,-0.58 -0.448,-0.25 c 0.043,-0.314 -0.152,-0.619 -0.465,-0.707 -0.344,-0.096 -0.701,0.104 -0.797,0.447 -0.098,0.346 0.104,0.701 0.447,0.797 0.164,0.047 0.33,0.022 0.471,-0.049 z"
           id="path16180"
           inkscape:connector-curvature="0"
           style="fill:#ffffff;fill-opacity:1" />
      </g>
      <g
         style="fill:#ffffff;fill-opacity:1"
         transform="translate(424.381,-277.111)"
         id="g16182">
        <polygon
           style="fill:#ffffff;fill-opacity:1"
           id="polygon16184"
           points="23.917,548.221 24.394,547.793 23.962,546.957 22.677,546.953 " />
        <path
           style="fill:#ffffff;fill-opacity:1"
           inkscape:connector-curvature="0"
           id="path16186"
           d="m 28.267,550.504 c 0.234,0.064 0.486,-0.068 0.553,-0.307 0.064,-0.234 -0.072,-0.48 -0.308,-0.547 l -0.184,-0.051 -0.238,0.852 0.177,0.053 z" />
        <path
           style="fill:#ffffff;fill-opacity:1"
           inkscape:connector-curvature="0"
           id="path16188"
           d="m 28.123,549.545 -1.483,-0.418 c -0.098,-0.025 -0.196,0.033 -0.224,0.131 l -0.139,0.496 c -0.027,0.098 0.025,0.197 0.125,0.227 l 1.484,0.414 0.237,-0.85 z" />
        <path
           style="fill:#ffffff;fill-opacity:1"
           inkscape:connector-curvature="0"
           id="path16190"
           d="m 28.357,550.955 c -0.113,-0.107 -0.254,-0.193 -0.418,-0.238 l -1.799,-0.504 0,0 -1.105,-1.961 c -0.059,-0.102 -0.152,-0.182 -0.273,-0.215 -0.242,-0.068 -0.494,0.074 -0.561,0.316 -0.033,0.115 -0.018,0.232 0.035,0.332 l 1.383,2.426 c 0,0 0.113,0.182 0.398,0.275 l 2.514,0.705 1.166,1.184 c 0.039,0.041 0.09,0.072 0.15,0.09 0.176,0.049 0.359,-0.057 0.41,-0.23 0.033,-0.123 -0.006,-0.252 -0.094,-0.332 l -1.806,-1.848 z" />
        <path
           style="fill:#ffffff;fill-opacity:1"
           inkscape:connector-curvature="0"
           id="path16192"
           d="m 29.7,551.445 0.261,0.342 0.531,-0.58 -0.448,-0.25 c 0.043,-0.314 -0.152,-0.619 -0.465,-0.707 -0.344,-0.096 -0.701,0.104 -0.797,0.447 -0.098,0.346 0.104,0.701 0.447,0.797 0.164,0.047 0.33,0.022 0.471,-0.049 z" />
      </g>
    </g>
  </g>
</svg>
