<?xml version="1.0" encoding="UTF-8" standalone="no"?>
<svg width="12px" height="12px" viewBox="0 0 12 12" version="1.1" xmlns="http://www.w3.org/2000/svg" xmlns:xlink="http://www.w3.org/1999/xlink" xmlns:sketch="http://www.bohemiancoding.com/sketch/ns">
    <!-- Generator: Sketch 3.2.2 (9983) - http://www.bohemiancoding.com/sketch -->
    <title>scuba-diving-black-12</title>
    <desc>Created with Sketch.</desc>
    <defs></defs>
    <g id="Page-1" stroke="none" stroke-width="1" fill="none" fill-rule="evenodd" sketch:type="MSPage">
        <path d="M11.1764706,10.5204573 L11.1764706,10.0446281 L10.8235294,10.0446281 L10.4705882,9.57590083 L10.4705882,8.62424242 L9.76470588,8.62424242 L9.05882353,8.26914601 L9.05882353,7.91404959 L8.35294118,7.91404959 L7.64705882,7.55895317 L7.64705882,7.20385675 L6.94117647,7.20385675 L6.94117647,6.49366391 L6.35529412,6.49366391 L6.23529412,6.35162534 L6.23529412,5.78347107 L5.76235294,5.78347107 L5.52941176,5.49939394 L5.52941176,5.07327824 L5.17647059,5.07327824 L3.41176471,2.94269972 L2,2.94269972 L2,3.65289256 L2.70588235,3.65289256 L4.11764706,5.35735537 L4.11764706,5.78347107 L4.47058824,5.78347107 L4.82352941,6.20958678 L4.82352941,6.49366391 L5.05647059,6.49366391 L5.52941176,7.06181818 L5.52941176,7.20385675 L5.64941176,7.20385675 L6.23529412,7.91404959 L6.94117647,8.26914601 L6.94117647,8.62424242 L7.64705882,8.62424242 L8.35294118,8.97933884 L8.35294118,9.33443526 L9.05882353,9.33443526 L10.4705882,10.7548209 L10.4705882,11.4650138 L11.8823529,11.4650138 L11.8823529,10.7548209 L11.3529412,10.7548209 L11.1764706,10.5204573" id="Fill-378" fill-opacity="0.1" fill="#0A0B09" sketch:type="MSShapeGroup"></path>
        <path d="M10.4705882,7.20385675 L11.8823529,7.20385675 L11.8823529,8.62424242 L10.4705882,8.62424242 L10.4705882,7.20385675 Z" id="Fill-379" fill-opacity="0.1" fill="#0A0B09" sketch:type="MSShapeGroup"></path>
        <path d="M7.64705882,6.49366391 L8,6.49366391 L8.35294118,6.73512948 L8.35294118,7.20385675 L9.76470588,7.20385675 L9.76470588,6.49366391 L9.05882353,6.02493664 L9.05882353,5.78347107 L8.70588235,5.78347107 L8.35294118,5.54910744 L8.35294118,5.07327824 L6.94117647,5.07327824 L6.94117647,5.78347107 L7.64705882,6.25930028 L7.64705882,6.49366391" id="Fill-380" fill-opacity="0.1" fill="#0A0B09" sketch:type="MSShapeGroup"></path>
        <path d="M10.1764706,9.5204573 L10.1764706,9.0446281 L9.82352941,9.0446281 L9.47058824,8.57590083 L9.47058824,7.62424242 L8.76470588,7.62424242 L8.05882353,7.26914601 L8.05882353,6.91404959 L7.35294118,6.91404959 L6.64705882,6.55895317 L6.64705882,6.20385675 L5.94117647,6.20385675 L5.94117647,5.49366391 L5.35529412,5.49366391 L5.23529412,5.35162534 L5.23529412,4.78347107 L4.76235294,4.78347107 L4.52941176,4.49939394 L4.52941176,4.07327824 L4.17647059,4.07327824 L2.41176471,1.94269972 L1,1.94269972 L1,2.65289256 L1.70588235,2.65289256 L3.11764706,4.35735537 L3.11764706,4.78347107 L3.47058824,4.78347107 L3.82352941,5.20958678 L3.82352941,5.49366391 L4.05647059,5.49366391 L4.52941176,6.06181818 L4.52941176,6.20385675 L4.64941176,6.20385675 L5.23529412,6.91404959 L5.94117647,7.26914601 L5.94117647,7.62424242 L6.64705882,7.62424242 L7.35294118,7.97933884 L7.35294118,8.33443526 L8.05882353,8.33443526 L9.47058824,9.75482094 L9.47058824,10.4650138 L10.8823529,10.4650138 L10.8823529,9.75482094 L10.3529412,9.75482094 L10.1764706,9.5204573" id="Fill-378" opacity="0.2" fill="#0A0B09" sketch:type="MSShapeGroup"></path>
        <path d="M9.47058824,6.20385675 L10.8823529,6.20385675 L10.8823529,7.62424242 L9.47058824,7.62424242 L9.47058824,6.20385675 Z" id="Fill-379" opacity="0.2" fill="#0A0B09" sketch:type="MSShapeGroup"></path>
        <path d="M6.64705882,5.49366391 L7,5.49366391 L7.35294118,5.73512948 L7.35294118,6.20385675 L8.76470588,6.20385675 L8.76470588,5.49366391 L8.05882353,5.02493664 L8.05882353,4.78347107 L7.70588235,4.78347107 L7.35294118,4.54910744 L7.35294118,4.07327824 L5.94117647,4.07327824 L5.94117647,4.78347107 L6.64705882,5.25930028 L6.64705882,5.49366391" id="Fill-380" opacity="0.2" fill="#0A0B09" sketch:type="MSShapeGroup"></path>
        <path d="M9.17647059,8.5204573 L9.17647059,8.0446281 L8.82352941,8.0446281 L8.47058824,7.57590083 L8.47058824,6.62424242 L7.76470588,6.62424242 L7.05882353,6.26914601 L7.05882353,5.91404959 L6.35294118,5.91404959 L5.64705882,5.55895317 L5.64705882,5.20385675 L4.94117647,5.20385675 L4.94117647,4.49366391 L4.35529412,4.49366391 L4.23529412,4.35162534 L4.23529412,3.78347107 L3.76235294,3.78347107 L3.52941176,3.49939394 L3.52941176,3.07327824 L3.17647059,3.07327824 L1.41176471,0.942699725 L0,0.942699725 L0,1.65289256 L0.705882353,1.65289256 L2.11764706,3.35735537 L2.11764706,3.78347107 L2.47058824,3.78347107 L2.82352941,4.20958678 L2.82352941,4.49366391 L3.05647059,4.49366391 L3.52941176,5.06181818 L3.52941176,5.20385675 L3.64941176,5.20385675 L4.23529412,5.91404959 L4.94117647,6.26914601 L4.94117647,6.62424242 L5.64705882,6.62424242 L6.35294118,6.97933884 L6.35294118,7.33443526 L7.05882353,7.33443526 L8.47058824,8.75482094 L8.47058824,9.46501377 L9.88235294,9.46501377 L9.88235294,8.75482094 L9.35294118,8.75482094 L9.17647059,8.5204573" id="Fill-378" fill="#0A0B09" sketch:type="MSShapeGroup"></path>
        <path d="M8.47058824,5.20385675 L9.88235294,5.20385675 L9.88235294,6.62424242 L8.47058824,6.62424242 L8.47058824,5.20385675 Z" id="Fill-379" fill="#0A0B09" sketch:type="MSShapeGroup"></path>
        <path d="M5.64705882,4.49366391 L6,4.49366391 L6.35294118,4.73512948 L6.35294118,5.20385675 L7.76470588,5.20385675 L7.76470588,4.49366391 L7.05882353,4.02493664 L7.05882353,3.78347107 L6.70588235,3.78347107 L6.35294118,3.54910744 L6.35294118,3.07327824 L4.94117647,3.07327824 L4.94117647,3.78347107 L5.64705882,4.25930028 L5.64705882,4.49366391" id="Fill-380" fill="#0A0B09" sketch:type="MSShapeGroup"></path>
    </g>
</svg>