<?xml version="1.0" encoding="utf-8"?>
<!-- Generator: Adobe Illustrator 18.1.1, SVG Export Plug-In . SVG Version: 6.00 Build 0)  -->
<svg version="1.1" xmlns="http://www.w3.org/2000/svg" xmlns:xlink="http://www.w3.org/1999/xlink" x="0px" y="0px"
	 viewBox="0 0 24 24" enable-background="new 0 0 24 24" xml:space="preserve">
<g id="shadows">
	<g opacity="0.2">
		<polygon points="8.091,7.864 8.864,7.864 8.864,7.091 9.121,7.091 8.091,5.545 5,5.545 7.318,7.864 7.833,8.636 8.091,8.636 		"/>
		<polygon points="17.364,14.045 12.727,12.5 9.636,7.864 8.864,7.864 8.864,8.636 8.091,8.636 8.091,9.023 11.955,14.818 
			16.591,15.591 20.455,19.455 21.227,18.682 21.227,17.909 		"/>
		<polygon points="14.162,10.182 18.136,11.727 17.474,13.273 13.5,11.727 		"/>
		<path d="M20.276,14.379l0.568,0.744L22,13.861l-0.974-0.544c0.093-0.683-0.332-1.346-1.013-1.538
			c-0.748-0.208-1.524,0.227-1.733,0.973c-0.213,0.753,0.226,1.525,0.973,1.733C19.609,14.589,19.97,14.534,20.276,14.379"/>
		<rect x="5" y="5.545" fill="none" width="17" height="13.909"/>
	</g>
</g>
<g id="icons">
	<polygon fill="#FFFFFF" points="7.091,6.864 7.864,6.864 7.864,6.091 8.121,6.091 7.091,4.546 4,4.546 6.318,6.864 6.833,7.636 
		7.091,7.636 	"/>
	<polygon fill="#FFFFFF" points="16.364,13.046 11.727,11.5 8.636,6.864 7.864,6.864 7.864,7.636 7.091,7.636 7.091,8.023 
		10.955,13.819 15.591,14.591 19.455,18.455 20.227,17.682 20.227,16.909 	"/>
	<polygon fill="#FFFFFF" points="13.162,9.182 17.136,10.727 16.474,12.273 12.5,10.727 	"/>
	<path fill="#FFFFFF" d="M19.276,13.379l0.568,0.744L21,12.861l-0.974-0.544c0.093-0.683-0.332-1.346-1.013-1.538
		c-0.748-0.208-1.524,0.227-1.733,0.973c-0.213,0.753,0.226,1.525,0.973,1.733C18.609,13.589,18.97,13.534,19.276,13.379"/>
</g>
</svg>
