<?xml version="1.0" encoding="utf-8"?>
<!-- Generator: Adobe Illustrator 18.1.1, SVG Export Plug-In . SVG Version: 6.00 Build 0)  -->
<svg version="1.1" xmlns="http://www.w3.org/2000/svg" xmlns:xlink="http://www.w3.org/1999/xlink" x="0px" y="0px"
	 viewBox="0 0 12 12" enable-background="new 0 0 12 12" xml:space="preserve">
<g id="shadows">
	<g opacity="0.2">
		<polygon points="10.857,9 10.857,8.571 10.536,8.571 10.214,8.143 10.214,7.286 9.571,7.286 8.929,6.964 8.929,6.643 8.286,6.643 
			7.643,6.321 7.643,6 7,6 7,5.357 6.464,5.357 6.357,5.229 6.357,4.714 5.928,4.714 5.714,4.458 5.714,4.071 5.393,4.071 
			3.786,2.143 2.5,2.143 2.5,2.786 3.143,2.786 4.429,4.328 4.429,4.714 4.75,4.714 5.071,5.101 5.071,5.357 5.285,5.357 
			5.714,5.871 5.714,6 5.822,6 6.357,6.643 7,6.964 7,7.286 7.643,7.286 8.286,7.607 8.286,7.929 8.929,7.929 10.214,9.214 
			10.214,9.857 10.857,9.857 11.5,9.857 11.5,9.214 11.018,9.214 		"/>
		<rect x="10.214" y="6" width="1.286" height="1.286"/>
		<polygon points="7.643,5.357 7.964,5.357 8.286,5.571 8.286,6 9.571,6 9.571,5.357 8.929,4.928 8.929,4.714 8.607,4.714 
			8.286,4.5 8.286,4.071 7,4.071 7,4.714 7.643,5.143 		"/>
		<rect x="2.5" y="2.143" fill="none" width="9" height="7.714"/>
	</g>
</g>
<g id="icons">
	<polygon points="10.357,8.499 10.357,8.071 10.035,8.071 9.714,7.643 9.714,6.786 9.071,6.786 8.428,6.464 8.428,6.143 
		7.786,6.143 7.143,5.821 7.143,5.5 6.5,5.5 6.5,4.857 5.964,4.857 5.857,4.729 5.857,4.214 5.428,4.214 5.214,3.958 5.214,3.572 
		4.893,3.572 3.286,1.643 2,1.643 2,2.286 2.643,2.286 3.929,3.828 3.929,4.214 4.25,4.214 4.572,4.601 4.572,4.857 4.785,4.857 
		5.214,5.371 5.214,5.5 5.322,5.5 5.857,6.143 6.5,6.464 6.5,6.786 7.143,6.786 7.786,7.107 7.786,7.428 8.428,7.428 9.714,8.714 
		9.714,9.357 10.357,9.357 11,9.357 11,8.714 10.518,8.714 	"/>
	<rect x="9.714" y="5.5" width="1.286" height="1.286"/>
	<polygon points="7.143,4.857 7.464,4.857 7.786,5.071 7.786,5.5 9.071,5.5 9.071,4.857 8.428,4.429 8.428,4.214 8.107,4.214 
		7.786,4 7.786,3.572 6.5,3.572 6.5,4.214 7.143,4.643 	"/>
</g>
</svg>
