<?xml version="1.0" encoding="utf-8"?>
<!-- Generator: Adobe Illustrator 18.0.0, SVG Export Plug-In . SVG Version: 6.00 Build 0)  -->
<!DOCTYPE svg PUBLIC "-//W3C//DTD SVG 1.1//EN" "http://www.w3.org/Graphics/SVG/1.1/DTD/svg11.dtd" [
	<!ENTITY ns_flows "http://ns.adobe.com/Flows/1.0/">
	<!ENTITY ns_extend "http://ns.adobe.com/Extensibility/1.0/">
	<!ENTITY ns_ai "http://ns.adobe.com/AdobeIllustrator/10.0/">
	<!ENTITY ns_graphs "http://ns.adobe.com/Graphs/1.0/">
	<!ENTITY st0 "opacity:0.1;">
	<!ENTITY st1 "fill:#010101;">
	<!ENTITY st2 "opacity:0.2;">
]>
<svg version="1.1" id="Layer_1" xmlns:x="&ns_extend;" xmlns:i="&ns_ai;" xmlns:graph="&ns_graphs;"
	 xmlns="http://www.w3.org/2000/svg" xmlns:xlink="http://www.w3.org/1999/xlink" xmlns:a="http://ns.adobe.com/AdobeSVGViewerExtensions/3.0/"
	 x="0px" y="0px" width="24px" height="20px" viewBox="0 0 24 20" style="enable-background:new 0 0 24 20;" xml:space="preserve">
<g style="&st0;">
	<polygon style="&st1;" points="6,5 7,5 7,4 7.3,4 6,2 2,2 5,5 5.7,6 6,6 	"/>
	<polygon style="&st1;" points="18,13 12,11 8,5 7,5 7,6 6,6 6,6.5 11,14 17,15 22,20 23,19 23,18 	"/>
	<polygon style="&st1;" points="13.9,8 19,10 18.1,12 13,10 	"/>
	<path style="&st1;" d="M21.8,13.4l0.7,1l1.5-1.6l-1.3-0.7c0.1-0.9-0.4-1.7-1.3-2c-1-0.3-2,0.3-2.2,1.3c-0.3,1,0.3,2,1.3,2.2
		C20.9,13.7,21.4,13.6,21.8,13.4z"/>
</g>
<g style="&st2;">
	<polygon style="&st1;" points="5,4 6,4 6,3 6.3,3 5,1 1,1 4,4 4.7,5 5,5 	"/>
	<polygon style="&st1;" points="17,12 11,10 7,4 6,4 6,5 5,5 5,5.5 10,13 16,14 21,19 22,18 22,17 	"/>
	<polygon style="&st1;" points="12.9,7 18,9 17.1,11 12,9 	"/>
	<path style="&st1;" d="M20.8,12.4l0.7,1l1.5-1.6l-1.3-0.7c0.1-0.9-0.4-1.7-1.3-2c-1-0.3-2,0.3-2.2,1.3c-0.3,1,0.3,2,1.3,2.2
		C19.9,12.7,20.4,12.6,20.8,12.4z"/>
</g>
<g>
	<polygon style="&st1;" points="4,3 5,3 5,2 5.3,2 4,0 0,0 3,3 3.7,4 4,4 	"/>
	<polygon style="&st1;" points="16,11 10,9 6,3 5,3 5,4 4,4 4,4.5 9,12 15,13 20,18 21,17 21,16 	"/>
	<polygon style="&st1;" points="11.9,6 17,8 16.1,10 11,8 	"/>
	<path style="&st1;" d="M19.8,11.4l0.7,1l1.5-1.6l-1.3-0.7c0.1-0.9-0.4-1.7-1.3-2c-1-0.3-2,0.3-2.2,1.3c-0.3,1,0.3,2,1.3,2.2
		C18.9,11.7,19.4,11.6,19.8,11.4z"/>
</g>
</svg>
