<?xml version="1.0" encoding="UTF-8" standalone="no"?>
<!-- Created with Inkscape (http://www.inkscape.org/) -->

<svg
   xmlns:dc="http://purl.org/dc/elements/1.1/"
   xmlns:cc="http://creativecommons.org/ns#"
   xmlns:rdf="http://www.w3.org/1999/02/22-rdf-syntax-ns#"
   xmlns:svg="http://www.w3.org/2000/svg"
   xmlns="http://www.w3.org/2000/svg"
   xmlns:sodipodi="http://sodipodi.sourceforge.net/DTD/sodipodi-0.dtd"
   xmlns:inkscape="http://www.inkscape.org/namespaces/inkscape"
   width="18"
   height="18"
   id="svg27435"
   version="1.1"
   inkscape:version="0.48.2 r9819"
   sodipodi:docname="4-wheel-drive-black-18.svg">
  <defs
     id="defs27437" />
  <sodipodi:namedview
     id="base"
     pagecolor="#ffa6ff"
     bordercolor="#666666"
     borderopacity="1.0"
     inkscape:pageopacity="0"
     inkscape:pageshadow="2"
     inkscape:zoom="7.9891803"
     inkscape:cx="12.590799"
     inkscape:cy="8.9588378"
     inkscape:document-units="px"
     inkscape:current-layer="layer1"
     showgrid="false"
     inkscape:window-width="483"
     inkscape:window-height="454"
     inkscape:window-x="3161"
     inkscape:window-y="149"
     inkscape:window-maximized="0">
    <inkscape:grid
       type="xygrid"
       id="grid2986" />
  </sodipodi:namedview>
  <metadata
     id="metadata27440">
    <rdf:RDF>
      <cc:Work
         rdf:about="">
        <dc:format>image/svg+xml</dc:format>
        <dc:type
           rdf:resource="http://purl.org/dc/dcmitype/StillImage" />
        <dc:title></dc:title>
      </cc:Work>
    </rdf:RDF>
  </metadata>
  <g
     inkscape:label="Layer 1"
     inkscape:groupmode="layer"
     id="layer1"
     transform="translate(0,-1034.3622)">
    <g
       id="g32693"
       transform="matrix(1.8198362,0,0,1.8198362,-39.485537,18.795879)">
      <path
         style="opacity:0;fill:#272525"
         inkscape:connector-curvature="0"
         id="path32695"
         d="m 22.886,567.938 c -0.652,0 -1.182,-0.529 -1.182,-1.184 v -7.525 c 0,-0.652 0.529,-1.182 1.182,-1.182 h 7.527 c 0.652,0 1.182,0.529 1.182,1.182 v 7.525 c 0,0.654 -0.529,1.184 -1.182,1.184 h -7.527 z" />
      <g
         id="g32697"
         style="opacity:0.6;stroke:#ffffff;stroke-width:0.5;stroke-miterlimit:4;stroke-opacity:1;stroke-dasharray:none">
        <circle
           style="fill:#272525;stroke:#ffffff;stroke-width:0.5;stroke-miterlimit:4;stroke-opacity:1;stroke-dasharray:none"
           sodipodi:ry="0.565"
           sodipodi:rx="0.565"
           sodipodi:cy="560.32703"
           sodipodi:cx="24.513"
           id="circle32699"
           r="0.565"
           cy="560.32703"
           cx="24.513"
           d="m 25.078,560.32703 c 0,0.31204 -0.252959,0.565 -0.565,0.565 -0.31204,0 -0.565,-0.25296 -0.565,-0.565 0,-0.31204 0.25296,-0.565 0.565,-0.565 0.312041,0 0.565,0.25296 0.565,0.565 z" />
        <path
           style="fill:#272525;stroke:#ffffff;stroke-width:0.5;stroke-miterlimit:4;stroke-opacity:1;stroke-dasharray:none"
           inkscape:connector-curvature="0"
           id="path32701"
           d="m 23.644,561.01 c 0.021,-0.088 -0.031,-0.174 -0.117,-0.195 L 23.056,560.7 c -0.088,-0.018 -0.176,0.033 -0.195,0.121 l -0.395,1.637 c -0.021,0.084 0.031,0.172 0.119,0.193 l 0.471,0.113 c 0.086,0.021 0.172,-0.031 0.193,-0.119 l 0.395,-1.635 z" />
        <path
           style="fill:#272525;stroke:#ffffff;stroke-width:0.5;stroke-miterlimit:4;stroke-opacity:1;stroke-dasharray:none"
           inkscape:connector-curvature="0"
           id="path32703"
           d="m 22.58,566.492 c -0.004,0.027 -0.008,0.055 -0.008,0.08 0,0.219 0.178,0.396 0.396,0.396 0.182,0 0.332,-0.119 0.381,-0.283 l 0.684,-2.824 0.648,2.809 c 0.043,0.172 0.201,0.299 0.385,0.299 0.221,0 0.398,-0.178 0.398,-0.396 0,-0.029 -0.004,-0.059 -0.01,-0.086 l -0.893,-3.732 0.076,-0.326 0.057,0.258 c 0.055,0.168 0.209,0.186 0.209,0.186 l 0.92,0.234 c 0.018,0.004 0.035,0.004 0.055,0.004 0.148,0 0.271,-0.121 0.271,-0.271 0,-0.127 -0.09,-0.236 -0.209,-0.264 l -0.797,-0.199 -0.219,-0.889 c -0.104,-0.494 -0.576,-0.482 -0.576,-0.482 -0.461,-0.012 -0.576,0.471 -0.576,0.471 l -1.192,5.015 z" />
        <path
           style="fill:#272525;stroke:#ffffff;stroke-width:0.5;stroke-miterlimit:4;stroke-opacity:1;stroke-dasharray:none"
           inkscape:connector-curvature="0"
           id="path32705"
           d="m 30.121,566.684 c 0,-0.184 0.146,-0.332 0.332,-0.332 0.182,0 0.332,0.148 0.332,0.332 0,0.182 -0.15,0.33 -0.332,0.33 -0.187,0 -0.332,-0.149 -0.332,-0.33 z" />
        <path
           style="fill:#272525;stroke:#ffffff;stroke-width:0.5;stroke-miterlimit:4;stroke-opacity:1;stroke-dasharray:none"
           inkscape:connector-curvature="0"
           id="path32707"
           d="m 30.453,565.793 c -0.187,0 -0.332,-0.148 -0.332,-0.33 0,-0.184 0.146,-0.332 0.332,-0.332 0.182,0 0.332,0.148 0.332,0.332 0,0.182 -0.151,0.33 -0.332,0.33 z" />
        <path
           style="fill:#272525;stroke:#ffffff;stroke-width:0.5;stroke-miterlimit:4;stroke-opacity:1;stroke-dasharray:none"
           inkscape:connector-curvature="0"
           id="path32709"
           d="m 30.452,564.572 c -0.187,0 -0.332,-0.148 -0.332,-0.33 0,-0.186 0.146,-0.332 0.332,-0.332 0.182,0 0.331,0.146 0.331,0.332 0,0.182 -0.15,0.33 -0.331,0.33 z" />
        <path
           style="fill:#272525;stroke:#ffffff;stroke-width:0.5;stroke-miterlimit:4;stroke-opacity:1;stroke-dasharray:none"
           inkscape:connector-curvature="0"
           id="path32711"
           d="m 30.452,563.352 c -0.187,0 -0.332,-0.148 -0.332,-0.33 0,-0.186 0.146,-0.332 0.332,-0.332 0.182,0 0.331,0.146 0.331,0.332 0,0.181 -0.15,0.33 -0.331,0.33 z" />
        <path
           style="fill:#272525;stroke:#ffffff;stroke-width:0.5;stroke-miterlimit:4;stroke-opacity:1;stroke-dasharray:none"
           inkscape:connector-curvature="0"
           id="path32713"
           d="m 30.452,562.131 c -0.187,0 -0.332,-0.148 -0.332,-0.33 0,-0.186 0.146,-0.332 0.332,-0.332 0.182,0 0.33,0.146 0.33,0.332 0,0.181 -0.149,0.33 -0.33,0.33 z" />
        <path
           style="fill:#272525;stroke:#ffffff;stroke-width:0.5;stroke-miterlimit:4;stroke-opacity:1;stroke-dasharray:none"
           inkscape:connector-curvature="0"
           id="path32715"
           d="m 30.451,560.91 c -0.187,0 -0.332,-0.148 -0.332,-0.33 0,-0.188 0.146,-0.332 0.332,-0.332 0.182,0 0.331,0.145 0.331,0.332 0,0.182 -0.15,0.33 -0.331,0.33 z" />
        <path
           style="fill:#272525;stroke:#ffffff;stroke-width:0.5;stroke-miterlimit:4;stroke-opacity:1;stroke-dasharray:none"
           inkscape:connector-curvature="0"
           id="path32717"
           d="m 30.119,559.359 c 0,-0.188 0.146,-0.332 0.332,-0.332 0.182,0 0.33,0.145 0.33,0.332 0,0.182 -0.148,0.33 -0.33,0.33 -0.187,0 -0.332,-0.148 -0.332,-0.33 z" />
        <path
           style="fill:#272525;stroke:#ffffff;stroke-width:0.5;stroke-miterlimit:4;stroke-opacity:1;stroke-dasharray:none"
           inkscape:connector-curvature="0"
           id="path32719"
           d="m 28.009,559.025 c 0.185,0 0.33,0.146 0.33,0.334 0,0.18 -0.146,0.33 -0.33,0.33 -0.184,0 -0.332,-0.15 -0.332,-0.33 0,-0.187 0.149,-0.334 0.332,-0.334 z" />
        <path
           style="fill:#272525;stroke:#ffffff;stroke-width:0.5;stroke-miterlimit:4;stroke-opacity:1;stroke-dasharray:none"
           inkscape:connector-curvature="0"
           id="path32721"
           d="m 29.23,559.023 c 0.185,0 0.33,0.148 0.33,0.334 0,0.18 -0.146,0.33 -0.33,0.33 -0.184,0 -0.332,-0.15 -0.332,-0.33 0,-0.185 0.148,-0.334 0.332,-0.334 z" />
        <circle
           style="fill:#272525;stroke:#ffffff;stroke-width:0.5;stroke-miterlimit:4;stroke-opacity:1;stroke-dasharray:none"
           sodipodi:ry="0.331"
           sodipodi:rx="0.331"
           sodipodi:cy="566.68103"
           sodipodi:cx="28.009001"
           id="circle32723"
           r="0.331"
           cy="566.68103"
           cx="28.009001"
           d="m 28.340001,566.68103 c 0,0.18281 -0.148194,0.331 -0.331,0.331 -0.182806,0 -0.331,-0.14819 -0.331,-0.331 0,-0.18281 0.148194,-0.331 0.331,-0.331 0.182806,0 0.331,0.14819 0.331,0.331 z" />
        <circle
           style="fill:#272525;stroke:#ffffff;stroke-width:0.5;stroke-miterlimit:4;stroke-opacity:1;stroke-dasharray:none"
           sodipodi:ry="0.331"
           sodipodi:rx="0.331"
           sodipodi:cy="566.68103"
           sodipodi:cx="29.232"
           id="circle32725"
           r="0.331"
           cy="566.68103"
           cx="29.232"
           d="m 29.563,566.68103 c 0,0.18281 -0.148193,0.331 -0.331,0.331 -0.182806,0 -0.331,-0.14819 -0.331,-0.331 0,-0.18281 0.148194,-0.331 0.331,-0.331 0.182807,0 0.331,0.14819 0.331,0.331 z" />
        <polygon
           style="fill:#272525;stroke:#ffffff;stroke-width:0.5;stroke-miterlimit:4;stroke-opacity:1;stroke-dasharray:none"
           id="polygon32727"
           points="25.914,559.361 27.215,558.607 27.215,560.117 " />
        <path
           style="fill:#272525;stroke:#ffffff;stroke-width:0.5;stroke-miterlimit:4;stroke-opacity:1;stroke-dasharray:none"
           inkscape:connector-curvature="0"
           id="path32729"
           d="m 26.969,566.947 c 0,0 0,-2.395 0,-2.641 0.166,-0.166 1.279,-1.279 1.279,-1.279 0.062,-0.062 0.094,-0.146 0.094,-0.229 0,-0.084 -0.031,-0.166 -0.094,-0.229 -0.127,-0.127 -0.332,-0.127 -0.459,0 l -1.469,1.467 v 2.91 h 0.649 z" />
      </g>
      <g
         id="g32731">
        <circle
           cx="24.513"
           cy="560.32703"
           r="0.565"
           id="circle32733"
           sodipodi:cx="24.513"
           sodipodi:cy="560.32703"
           sodipodi:rx="0.565"
           sodipodi:ry="0.565"
           style="fill:#272525"
           d="m 25.078,560.32703 c 0,0.31204 -0.252959,0.565 -0.565,0.565 -0.31204,0 -0.565,-0.25296 -0.565,-0.565 0,-0.31204 0.25296,-0.565 0.565,-0.565 0.312041,0 0.565,0.25296 0.565,0.565 z" />
        <path
           d="m 23.644,561.01 c 0.021,-0.088 -0.031,-0.174 -0.117,-0.195 L 23.056,560.7 c -0.088,-0.018 -0.176,0.033 -0.195,0.121 l -0.395,1.637 c -0.021,0.084 0.031,0.172 0.119,0.193 l 0.471,0.113 c 0.086,0.021 0.172,-0.031 0.193,-0.119 l 0.395,-1.635 z"
           id="path32735"
           inkscape:connector-curvature="0"
           style="fill:#272525" />
        <path
           d="m 22.58,566.492 c -0.004,0.027 -0.008,0.055 -0.008,0.08 0,0.219 0.178,0.396 0.396,0.396 0.182,0 0.332,-0.119 0.381,-0.283 l 0.684,-2.824 0.648,2.809 c 0.043,0.172 0.201,0.299 0.385,0.299 0.221,0 0.398,-0.178 0.398,-0.396 0,-0.029 -0.004,-0.059 -0.01,-0.086 l -0.893,-3.732 0.076,-0.326 0.057,0.258 c 0.055,0.168 0.209,0.186 0.209,0.186 l 0.92,0.234 c 0.018,0.004 0.035,0.004 0.055,0.004 0.148,0 0.271,-0.121 0.271,-0.271 0,-0.127 -0.09,-0.236 -0.209,-0.264 l -0.797,-0.199 -0.219,-0.889 c -0.104,-0.494 -0.576,-0.482 -0.576,-0.482 -0.461,-0.012 -0.576,0.471 -0.576,0.471 l -1.192,5.015 z"
           id="path32737"
           inkscape:connector-curvature="0"
           style="fill:#272525" />
        <path
           d="m 30.121,566.684 c 0,-0.184 0.146,-0.332 0.332,-0.332 0.182,0 0.332,0.148 0.332,0.332 0,0.182 -0.15,0.33 -0.332,0.33 -0.187,0 -0.332,-0.149 -0.332,-0.33 z"
           id="path32739"
           inkscape:connector-curvature="0"
           style="fill:#272525" />
        <path
           d="m 30.453,565.793 c -0.187,0 -0.332,-0.148 -0.332,-0.33 0,-0.184 0.146,-0.332 0.332,-0.332 0.182,0 0.332,0.148 0.332,0.332 0,0.182 -0.151,0.33 -0.332,0.33 z"
           id="path32741"
           inkscape:connector-curvature="0"
           style="fill:#272525" />
        <path
           d="m 30.452,564.572 c -0.187,0 -0.332,-0.148 -0.332,-0.33 0,-0.186 0.146,-0.332 0.332,-0.332 0.182,0 0.331,0.146 0.331,0.332 0,0.182 -0.15,0.33 -0.331,0.33 z"
           id="path32743"
           inkscape:connector-curvature="0"
           style="fill:#272525" />
        <path
           d="m 30.452,563.352 c -0.187,0 -0.332,-0.148 -0.332,-0.33 0,-0.186 0.146,-0.332 0.332,-0.332 0.182,0 0.331,0.146 0.331,0.332 0,0.181 -0.15,0.33 -0.331,0.33 z"
           id="path32745"
           inkscape:connector-curvature="0"
           style="fill:#272525" />
        <path
           d="m 30.452,562.131 c -0.187,0 -0.332,-0.148 -0.332,-0.33 0,-0.186 0.146,-0.332 0.332,-0.332 0.182,0 0.33,0.146 0.33,0.332 0,0.181 -0.149,0.33 -0.33,0.33 z"
           id="path32747"
           inkscape:connector-curvature="0"
           style="fill:#272525" />
        <path
           d="m 30.451,560.91 c -0.187,0 -0.332,-0.148 -0.332,-0.33 0,-0.188 0.146,-0.332 0.332,-0.332 0.182,0 0.331,0.145 0.331,0.332 0,0.182 -0.15,0.33 -0.331,0.33 z"
           id="path32749"
           inkscape:connector-curvature="0"
           style="fill:#272525" />
        <path
           d="m 30.119,559.359 c 0,-0.188 0.146,-0.332 0.332,-0.332 0.182,0 0.33,0.145 0.33,0.332 0,0.182 -0.148,0.33 -0.33,0.33 -0.187,0 -0.332,-0.148 -0.332,-0.33 z"
           id="path32751"
           inkscape:connector-curvature="0"
           style="fill:#272525" />
        <path
           d="m 28.009,559.025 c 0.185,0 0.33,0.146 0.33,0.334 0,0.18 -0.146,0.33 -0.33,0.33 -0.184,0 -0.332,-0.15 -0.332,-0.33 0,-0.187 0.149,-0.334 0.332,-0.334 z"
           id="path32753"
           inkscape:connector-curvature="0"
           style="fill:#272525" />
        <path
           d="m 29.23,559.023 c 0.185,0 0.33,0.148 0.33,0.334 0,0.18 -0.146,0.33 -0.33,0.33 -0.184,0 -0.332,-0.15 -0.332,-0.33 0,-0.185 0.148,-0.334 0.332,-0.334 z"
           id="path32755"
           inkscape:connector-curvature="0"
           style="fill:#272525" />
        <circle
           cx="28.009001"
           cy="566.68103"
           r="0.331"
           id="circle32757"
           sodipodi:cx="28.009001"
           sodipodi:cy="566.68103"
           sodipodi:rx="0.331"
           sodipodi:ry="0.331"
           style="fill:#272525"
           d="m 28.340001,566.68103 c 0,0.18281 -0.148194,0.331 -0.331,0.331 -0.182806,0 -0.331,-0.14819 -0.331,-0.331 0,-0.18281 0.148194,-0.331 0.331,-0.331 0.182806,0 0.331,0.14819 0.331,0.331 z" />
        <circle
           cx="29.232"
           cy="566.68103"
           r="0.331"
           id="circle32759"
           sodipodi:cx="29.232"
           sodipodi:cy="566.68103"
           sodipodi:rx="0.331"
           sodipodi:ry="0.331"
           style="fill:#272525"
           d="m 29.563,566.68103 c 0,0.18281 -0.148193,0.331 -0.331,0.331 -0.182806,0 -0.331,-0.14819 -0.331,-0.331 0,-0.18281 0.148194,-0.331 0.331,-0.331 0.182807,0 0.331,0.14819 0.331,0.331 z" />
        <polygon
           points="25.914,559.361 27.215,558.607 27.215,560.117 "
           id="polygon32761"
           style="fill:#272525" />
        <path
           d="m 26.969,566.947 c 0,0 0,-2.395 0,-2.641 0.166,-0.166 1.279,-1.279 1.279,-1.279 0.062,-0.062 0.094,-0.146 0.094,-0.229 0,-0.084 -0.031,-0.166 -0.094,-0.229 -0.127,-0.127 -0.332,-0.127 -0.459,0 l -1.469,1.467 v 2.91 h 0.649 z"
           id="path32763"
           inkscape:connector-curvature="0"
           style="fill:#272525" />
      </g>
    </g>
  </g>
</svg>
