<?xml version="1.0" encoding="utf-8"?>
<!-- Generator: Adobe Illustrator 18.1.1, SVG Export Plug-In . SVG Version: 6.00 Build 0)  -->
<svg version="1.1" xmlns="http://www.w3.org/2000/svg" xmlns:xlink="http://www.w3.org/1999/xlink" x="0px" y="0px"
	 viewBox="0 0 24 24" enable-background="new 0 0 24 24" xml:space="preserve">
<g id="shadows">
	<g opacity="0.2">
		<path d="M7.155,8.078L6.202,7.845C6.024,7.809,5.846,7.913,5.808,8.091l-0.798,3.31c-0.042,0.17,0.063,0.347,0.241,0.39
			l0.952,0.229c0.137,0.033,0.271-0.026,0.343-0.138V9.796h0.528l0.245-1.02V8.25h0.046C7.322,8.167,7.251,8.102,7.155,8.078"/>
		<path d="M12.034,11.64l-1.612-0.403L9.979,9.44C9.378,9.023,8.815,9.023,8.815,9.023c-0.318-0.007-0.55,0.625-0.724,0.773H7.56
			l-0.242,1.019v1.299H7.009l-1.77,7.445v0L5.224,19.72c0,0.443,0.36,0.801,0.802,0.801c0.367,0,0.67-0.241,0.77-0.573l1.383-5.71
			l1.31,5.68c0.087,0.348,0.407,0.605,0.778,0.605c0.447,0,0.805-0.36,0.805-0.802l-0.019-0.173l-1.806-7.547l0.153-0.659
			l0.116,0.521c0.111,0.34,0.422,0.376,0.422,0.376l1.861,0.472l0.111,0.009c0.3,0,0.548-0.245,0.548-0.549
			C12.456,11.917,12.275,11.697,12.034,11.64"/>
		<polygon points="14.273,4.386 14.273,7.477 11.955,5.911 		"/>
		<path d="M14.273,20.614v-5.476c0.335-0.337,2.428-2.587,2.428-2.587c0.125-0.125,0.19-0.294,0.19-0.463
			c0-0.169-0.062-0.335-0.19-0.463c-0.257-0.256-0.671-0.256-0.928,0l-3.045,2.807v6.182H14.273z"/>
		<path d="M16.591,20.614L16.591,20.614c-0.427,0-0.773-0.346-0.773-0.773c0-0.426,0.346-0.773,0.773-0.773
			c0.426,0,0.772,0.346,0.772,0.773C17.364,20.267,17.018,20.614,16.591,20.614"/>
		<path d="M18.909,20.614L18.909,20.614c-0.427,0-0.772-0.346-0.772-0.773c0-0.426,0.346-0.773,0.772-0.773
			c0.426,0,0.773,0.346,0.773,0.773C19.682,20.267,19.335,20.614,18.909,20.614"/>
		<path d="M21.227,18.295L21.227,18.295c-0.427,0-0.773-0.346-0.773-0.772c0-0.426,0.346-0.773,0.773-0.773
			c0.426,0,0.772,0.347,0.772,0.773C22,17.949,21.654,18.295,21.227,18.295"/>
		<path d="M21.227,20.614L21.227,20.614c-0.427,0-0.773-0.346-0.773-0.773c0-0.426,0.346-0.773,0.773-0.773
			c0.426,0,0.772,0.346,0.772,0.773C22,20.267,21.654,20.614,21.227,20.614"/>
		<path d="M21.227,15.977L21.227,15.977c-0.427,0-0.773-0.347-0.773-0.773c0-0.426,0.346-0.773,0.773-0.773
			c0.426,0,0.772,0.346,0.772,0.773C22,15.631,21.654,15.977,21.227,15.977"/>
		<path d="M21.227,9.023L21.227,9.023c-0.427,0-0.773-0.346-0.773-0.772c0-0.427,0.346-0.773,0.773-0.773
			C21.654,7.477,22,7.823,22,8.25C22,8.676,21.654,9.023,21.227,9.023"/>
		<path d="M16.591,6.705L16.591,6.705c-0.427,0-0.773-0.347-0.773-0.773c0-0.426,0.346-0.773,0.773-0.773
			c0.426,0,0.772,0.346,0.772,0.773C17.364,6.358,17.018,6.705,16.591,6.705"/>
		<path d="M18.909,6.705L18.909,6.705c-0.427,0-0.772-0.347-0.772-0.773c0-0.426,0.346-0.773,0.772-0.773
			c0.426,0,0.773,0.346,0.773,0.773C19.682,6.358,19.335,6.705,18.909,6.705"/>
		<path d="M21.227,11.341L21.227,11.341c-0.427,0-0.773-0.347-0.773-0.773c0-0.426,0.346-0.772,0.773-0.772
			c0.426,0,0.772,0.346,0.772,0.772C22,10.994,21.654,11.341,21.227,11.341"/>
		<path d="M21.227,6.705L21.227,6.705c-0.427,0-0.773-0.347-0.773-0.773c0-0.426,0.346-0.773,0.773-0.773
			C21.654,5.159,22,5.506,22,5.932C22,6.358,21.654,6.705,21.227,6.705"/>
		<path d="M21.227,13.659L21.227,13.659c-0.427,0-0.773-0.346-0.773-0.773c0-0.426,0.346-0.773,0.773-0.773
			c0.426,0,0.772,0.347,0.772,0.773C22,13.313,21.654,13.659,21.227,13.659"/>
		<path d="M9.393,8.25H9.107c-0.562,0-1.016-0.455-1.016-1.016V6.947c0-0.561,0.454-1.016,1.016-1.016h0.286
			c0.562,0,1.017,0.454,1.017,1.016v0.287C10.41,7.796,9.955,8.25,9.393,8.25"/>
		<rect x="5" y="4.386" fill="none" width="17" height="16.227"/>
	</g>
</g>
<g id="icons">
	<path d="M6.155,7.078L5.202,6.845C5.024,6.809,4.846,6.913,4.808,7.091l-0.798,3.31c-0.042,0.17,0.063,0.347,0.241,0.39
		l0.952,0.229c0.137,0.033,0.271-0.026,0.343-0.138V8.796h0.528l0.245-1.02V7.25h0.046C6.322,7.167,6.252,7.102,6.155,7.078"/>
	<path d="M11.034,10.64l-1.612-0.403L8.979,8.44C8.378,8.023,7.815,8.023,7.815,8.023c-0.318-0.007-0.55,0.625-0.724,0.773H6.56
		L6.318,9.814v1.299H6.009l-1.77,7.445v0L4.224,18.72c0,0.443,0.36,0.801,0.802,0.801c0.367,0,0.67-0.241,0.769-0.573l1.383-5.71
		l1.31,5.68c0.087,0.348,0.407,0.605,0.778,0.605c0.447,0,0.805-0.36,0.805-0.802l-0.019-0.173l-1.806-7.547l0.153-0.659
		l0.116,0.521c0.111,0.34,0.422,0.376,0.422,0.376l1.861,0.472l0.111,0.009c0.3,0,0.548-0.245,0.548-0.549
		C11.457,10.917,11.275,10.697,11.034,10.64"/>
	<polygon points="13.273,3.386 13.273,6.477 10.955,4.911 	"/>
	<path d="M13.273,19.614v-5.476c0.335-0.337,2.428-2.587,2.428-2.587c0.126-0.125,0.19-0.294,0.19-0.463
		c0-0.169-0.062-0.335-0.19-0.463c-0.257-0.256-0.671-0.256-0.928,0l-3.045,2.807v6.182H13.273z"/>
	<path d="M15.591,19.614L15.591,19.614c-0.427,0-0.773-0.346-0.773-0.773c0-0.426,0.346-0.773,0.773-0.773
		c0.426,0,0.773,0.346,0.773,0.773C16.364,19.267,16.018,19.614,15.591,19.614"/>
	<path d="M17.909,19.614L17.909,19.614c-0.427,0-0.773-0.346-0.773-0.773c0-0.426,0.346-0.773,0.773-0.773
		c0.426,0,0.773,0.346,0.773,0.773C18.682,19.267,18.335,19.614,17.909,19.614"/>
	<path d="M20.228,17.295L20.228,17.295c-0.427,0-0.773-0.346-0.773-0.772c0-0.426,0.346-0.773,0.773-0.773
		c0.426,0,0.772,0.347,0.772,0.773C21,16.949,20.654,17.295,20.228,17.295"/>
	<path d="M20.228,19.614L20.228,19.614c-0.427,0-0.773-0.346-0.773-0.773c0-0.426,0.346-0.773,0.773-0.773
		c0.426,0,0.772,0.346,0.772,0.773C21,19.267,20.654,19.614,20.228,19.614"/>
	<path d="M20.228,14.977L20.228,14.977c-0.427,0-0.773-0.347-0.773-0.773c0-0.426,0.346-0.773,0.773-0.773
		c0.426,0,0.772,0.346,0.772,0.773C21,14.631,20.654,14.977,20.228,14.977"/>
	<path d="M20.228,8.023L20.228,8.023c-0.427,0-0.773-0.346-0.773-0.772c0-0.427,0.346-0.773,0.773-0.773
		C20.654,6.477,21,6.823,21,7.25C21,7.676,20.654,8.023,20.228,8.023"/>
	<path d="M15.591,5.705L15.591,5.705c-0.427,0-0.773-0.347-0.773-0.773c0-0.426,0.346-0.773,0.773-0.773
		c0.426,0,0.773,0.346,0.773,0.773C16.364,5.358,16.018,5.705,15.591,5.705"/>
	<path d="M17.909,5.705L17.909,5.705c-0.427,0-0.773-0.347-0.773-0.773c0-0.426,0.346-0.773,0.773-0.773
		c0.426,0,0.773,0.346,0.773,0.773C18.682,5.358,18.335,5.705,17.909,5.705"/>
	<path d="M20.228,10.341L20.228,10.341c-0.427,0-0.773-0.347-0.773-0.773c0-0.426,0.346-0.772,0.773-0.772
		C20.654,8.796,21,9.142,21,9.568C21,9.994,20.654,10.341,20.228,10.341"/>
	<path d="M20.228,5.705L20.228,5.705c-0.427,0-0.773-0.347-0.773-0.773c0-0.426,0.346-0.773,0.773-0.773
		C20.654,4.159,21,4.506,21,4.932C21,5.358,20.654,5.705,20.228,5.705"/>
	<path d="M20.228,12.659L20.228,12.659c-0.427,0-0.773-0.346-0.773-0.773c0-0.426,0.346-0.773,0.773-0.773
		c0.426,0,0.772,0.347,0.772,0.773C21,12.313,20.654,12.659,20.228,12.659"/>
	<path d="M8.393,7.25H8.107c-0.562,0-1.016-0.455-1.016-1.016V5.947c0-0.561,0.454-1.016,1.016-1.016h0.286
		c0.562,0,1.017,0.454,1.017,1.016v0.287C9.41,6.796,8.955,7.25,8.393,7.25"/>
</g>
</svg>
