<?xml version="1.0" encoding="utf-8"?>
<!-- Generator: Adobe Illustrator 18.1.1, SVG Export Plug-In . SVG Version: 6.00 Build 0)  -->
<svg version="1.1" xmlns="http://www.w3.org/2000/svg" xmlns:xlink="http://www.w3.org/1999/xlink" x="0px" y="0px"
	 viewBox="0 0 12 12" enable-background="new 0 0 12 12" xml:space="preserve">
<g id="shadows">
	<g opacity="0.2">
		<rect x="7.286" y="9.857" width="0.643" height="0.643"/>
		<rect x="8.571" y="9.857" width="0.643" height="0.643"/>
		<rect x="9.857" y="9.857" width="0.643" height="0.643"/>
		<rect x="9.857" y="8.571" width="0.643" height="0.643"/>
		<rect x="9.857" y="7.286" width="0.643" height="0.643"/>
		<rect x="9.857" y="6" width="0.643" height="0.643"/>
		<rect x="9.857" y="4.714" width="0.643" height="0.642"/>
		<rect x="9.857" y="3.429" width="0.643" height="0.643"/>
		<rect x="9.857" y="2.143" width="0.643" height="0.642"/>
		<rect x="8.571" y="2.143" width="0.643" height="0.642"/>
		<rect x="7.286" y="2.143" width="0.643" height="0.642"/>
		<rect x="6" y="1.5" width="0.643" height="1.929"/>
		<rect x="5.357" y="2.143" width="0.643" height="0.642"/>
		<rect x="6" y="6.643" width="0.643" height="3.857"/>
		<rect x="6.643" y="6" width="0.643" height="1.286"/>
		<rect x="7.286" y="5.357" width="0.643" height="1.286"/>
		<polygon points="4.714,4.071 4.714,2.786 3.429,2.786 3.429,4.071 4.071,4.071 		"/>
		<polygon points="3.429,4.714 4.071,4.714 5.357,6 5.357,6.643 4.071,5.357 4.071,7.286 4.714,10.5 4.071,10.5 3.429,7.929 
			2.786,7.929 2.131,10.45 1.5,10.5 2.143,7.286 2.786,6 1.5,6 1.5,4.071 2.143,3.429 2.786,4.071 		"/>
		<rect x="1.5" y="1.5" fill="none" width="9" height="9"/>
	</g>
</g>
<g id="icons">
	<rect x="6.786" y="9.357" width="0.643" height="0.643"/>
	<rect x="8.071" y="9.357" width="0.643" height="0.643"/>
	<rect x="9.357" y="9.357" width="0.643" height="0.643"/>
	<rect x="9.357" y="8.071" width="0.643" height="0.643"/>
	<rect x="9.357" y="6.786" width="0.643" height="0.643"/>
	<rect x="9.357" y="5.5" width="0.643" height="0.643"/>
	<rect x="9.357" y="4.214" width="0.643" height="0.642"/>
	<rect x="9.357" y="2.929" width="0.643" height="0.643"/>
	<rect x="9.357" y="1.643" width="0.643" height="0.642"/>
	<rect x="8.071" y="1.643" width="0.643" height="0.642"/>
	<rect x="6.786" y="1.643" width="0.643" height="0.642"/>
	<rect x="5.5" y="1" width="0.643" height="1.929"/>
	<rect x="4.857" y="1.643" width="0.643" height="0.642"/>
	<rect x="5.5" y="6.143" width="0.643" height="3.857"/>
	<rect x="6.143" y="5.5" width="0.643" height="1.286"/>
	<rect x="6.786" y="4.857" width="0.643" height="1.286"/>
	<polygon points="4.214,3.571 4.214,2.286 2.929,2.286 2.929,3.571 3.571,3.571 	"/>
	<polygon points="2.929,4.214 3.571,4.214 4.857,5.5 4.857,6.143 3.571,4.857 3.571,6.786 4.214,10 3.571,10 2.929,7.429 
		2.286,7.429 1.631,9.95 1,10 1.643,6.786 2.286,5.5 1,5.5 1,3.571 1.643,2.929 2.286,3.571 	"/>
</g>
</svg>
