<?xml version="1.0" encoding="utf-8"?>
<!-- Generator: Adobe Illustrator 18.0.0, SVG Export Plug-In . SVG Version: 6.00 Build 0)  -->
<!DOCTYPE svg PUBLIC "-//W3C//DTD SVG 1.1//EN" "http://www.w3.org/Graphics/SVG/1.1/DTD/svg11.dtd" [
	<!ENTITY ns_flows "http://ns.adobe.com/Flows/1.0/">
	<!ENTITY ns_extend "http://ns.adobe.com/Extensibility/1.0/">
	<!ENTITY ns_ai "http://ns.adobe.com/AdobeIllustrator/10.0/">
	<!ENTITY ns_graphs "http://ns.adobe.com/Graphs/1.0/">
	<!ENTITY st0 "opacity:0.5;">
	<!ENTITY st1 "fill:#010101;">
	<!ENTITY st2 "opacity:0.75;">
	<!ENTITY st3 "fill:#FFFFFF;">
]>
<svg version="1.1" id="Layer_1" xmlns:x="&ns_extend;" xmlns:i="&ns_ai;" xmlns:graph="&ns_graphs;"
	 xmlns="http://www.w3.org/2000/svg" xmlns:xlink="http://www.w3.org/1999/xlink" xmlns:a="http://ns.adobe.com/AdobeSVGViewerExtensions/3.0/"
	 x="0px" y="0px" width="24px" height="23px" viewBox="0 0 24 23" style="enable-background:new 0 0 24 23;" xml:space="preserve">
<g style="&st0;">
	<path style="&st1;" d="M4.8,6.8L3.6,6.5C3.3,6.4,3.1,6.6,3,6.8l-1,4.3c-0.1,0.2,0.1,0.5,0.3,0.5l1.2,0.3c0.2,0,0.3,0,0.4-0.2V9h0.7
		L5,7.7V7h0.1C5,6.9,4.9,6.8,4.8,6.8z"/>
	<path style="&st1;" d="M11.1,11.4L9,10.9L8.4,8.5C7.7,8,6.9,8,6.9,8C6.5,8,6.2,8.8,6,9H5.3L5,10.3V12H4.6l-2.3,9.6v0l0,0.2
		c0,0.6,0.5,1,1,1c0.5,0,0.9-0.3,1-0.7l1.8-7.4l1.7,7.4c0.1,0.5,0.5,0.8,1,0.8c0.6,0,1-0.5,1-1l0-0.2l-2.3-9.8L7.7,11l0.1,0.7
		c0.1,0.4,0.5,0.5,0.5,0.5l2.4,0.6l0.1,0c0.4,0,0.7-0.3,0.7-0.7C11.6,11.7,11.4,11.5,11.1,11.4z"/>
	<polygon style="&st1;" points="14,2 14,6 11,4 	"/>
	<path style="&st1;" d="M14,23c0,0,0-6.4,0-7.1c0.4-0.4,3.1-3.3,3.1-3.3c0.2-0.2,0.2-0.4,0.2-0.6c0-0.2-0.1-0.4-0.2-0.6
		c-0.3-0.3-0.9-0.3-1.2,0L12,15v8H14z"/>
	<path style="&st1;" d="M17,23L17,23c-0.6,0-1-0.4-1-1s0.4-1,1-1s1,0.4,1,1S17.6,23,17,23z"/>
	<path style="&st1;" d="M20,23L20,23c-0.6,0-1-0.4-1-1s0.4-1,1-1s1,0.4,1,1S20.6,23,20,23z"/>
	<path style="&st1;" d="M23,20L23,20c-0.6,0-1-0.4-1-1s0.4-1,1-1s1,0.4,1,1S23.6,20,23,20z"/>
	<path style="&st1;" d="M23,23L23,23c-0.6,0-1-0.4-1-1s0.4-1,1-1s1,0.4,1,1S23.6,23,23,23z"/>
	<path style="&st1;" d="M23,17L23,17c-0.6,0-1-0.4-1-1s0.4-1,1-1s1,0.4,1,1S23.6,17,23,17z"/>
	<path style="&st1;" d="M23,8L23,8c-0.6,0-1-0.4-1-1s0.4-1,1-1s1,0.4,1,1S23.6,8,23,8z"/>
	<path style="&st1;" d="M17,5L17,5c-0.6,0-1-0.4-1-1s0.4-1,1-1s1,0.4,1,1S17.6,5,17,5z"/>
	<path style="&st1;" d="M20,5L20,5c-0.6,0-1-0.4-1-1s0.4-1,1-1s1,0.4,1,1S20.6,5,20,5z"/>
	<path style="&st1;" d="M23,11L23,11c-0.6,0-1-0.4-1-1s0.4-1,1-1s1,0.4,1,1S23.6,11,23,11z"/>
	<path style="&st1;" d="M23,5L23,5c-0.6,0-1-0.4-1-1s0.4-1,1-1s1,0.4,1,1S23.6,5,23,5z"/>
	<path style="&st1;" d="M23,14L23,14c-0.6,0-1-0.4-1-1s0.4-1,1-1s1,0.4,1,1S23.6,14,23,14z"/>
	<path style="&st1;" d="M7.7,7H7.3C6.6,7,6,6.4,6,5.7V5.3C6,4.6,6.6,4,7.3,4h0.4C8.4,4,9,4.6,9,5.3v0.4C9,6.4,8.4,7,7.7,7z"/>
</g>
<g style="&st2;">
	<path style="&st1;" d="M3.8,5.8L2.6,5.5C2.3,5.4,2.1,5.6,2,5.8l-1,4.3c-0.1,0.2,0.1,0.5,0.3,0.5l1.2,0.3c0.2,0,0.3,0,0.4-0.2V8h0.7
		L4,6.7V6h0.1C4,5.9,3.9,5.8,3.8,5.8z"/>
	<path style="&st1;" d="M10.1,10.4L8,9.9L7.4,7.5C6.7,7,5.9,7,5.9,7C5.5,7,5.2,7.8,5,8H4.3L4,9.3V11H3.6l-2.3,9.6v0l0,0.2
		c0,0.6,0.5,1,1,1c0.5,0,0.9-0.3,1-0.7l1.8-7.4l1.7,7.4c0.1,0.5,0.5,0.8,1,0.8c0.6,0,1-0.5,1-1l0-0.2l-2.3-9.8L6.7,10l0.1,0.7
		c0.1,0.4,0.5,0.5,0.5,0.5l2.4,0.6l0.1,0c0.4,0,0.7-0.3,0.7-0.7C10.6,10.7,10.4,10.5,10.1,10.4z"/>
	<polygon style="&st1;" points="13,1 13,5 10,3 	"/>
	<path style="&st1;" d="M13,22c0,0,0-6.4,0-7.1c0.4-0.4,3.1-3.3,3.1-3.3c0.2-0.2,0.2-0.4,0.2-0.6c0-0.2-0.1-0.4-0.2-0.6
		c-0.3-0.3-0.9-0.3-1.2,0L11,14v8H13z"/>
	<path style="&st1;" d="M16,22L16,22c-0.6,0-1-0.4-1-1s0.4-1,1-1c0.6,0,1,0.4,1,1S16.6,22,16,22z"/>
	<path style="&st1;" d="M19,22L19,22c-0.6,0-1-0.4-1-1s0.4-1,1-1s1,0.4,1,1S19.6,22,19,22z"/>
	<path style="&st1;" d="M22,19L22,19c-0.6,0-1-0.4-1-1s0.4-1,1-1s1,0.4,1,1S22.6,19,22,19z"/>
	<path style="&st1;" d="M22,22L22,22c-0.6,0-1-0.4-1-1s0.4-1,1-1s1,0.4,1,1S22.6,22,22,22z"/>
	<path style="&st1;" d="M22,16L22,16c-0.6,0-1-0.4-1-1s0.4-1,1-1s1,0.4,1,1S22.6,16,22,16z"/>
	<path style="&st1;" d="M22,7L22,7c-0.6,0-1-0.4-1-1s0.4-1,1-1s1,0.4,1,1S22.6,7,22,7z"/>
	<path style="&st1;" d="M16,4L16,4c-0.6,0-1-0.4-1-1s0.4-1,1-1c0.6,0,1,0.4,1,1S16.6,4,16,4z"/>
	<path style="&st1;" d="M19,4L19,4c-0.6,0-1-0.4-1-1s0.4-1,1-1s1,0.4,1,1S19.6,4,19,4z"/>
	<path style="&st1;" d="M22,10L22,10c-0.6,0-1-0.4-1-1s0.4-1,1-1s1,0.4,1,1S22.6,10,22,10z"/>
	<path style="&st1;" d="M22,4L22,4c-0.6,0-1-0.4-1-1s0.4-1,1-1s1,0.4,1,1S22.6,4,22,4z"/>
	<path style="&st1;" d="M22,13L22,13c-0.6,0-1-0.4-1-1s0.4-1,1-1s1,0.4,1,1S22.6,13,22,13z"/>
	<path style="&st1;" d="M6.7,6H6.3C5.6,6,5,5.4,5,4.7V4.3C5,3.6,5.6,3,6.3,3h0.4C7.4,3,8,3.6,8,4.3v0.4C8,5.4,7.4,6,6.7,6z"/>
</g>
<g>
	<path style="&st3;" d="M2.8,4.8L1.6,4.5C1.3,4.4,1.1,4.6,1,4.8L0,9.1C0,9.3,0.1,9.5,0.3,9.6l1.2,0.3c0.2,0,0.3,0,0.4-0.2V7h0.7
		L3,5.7V5h0.1C3,4.9,2.9,4.8,2.8,4.8z"/>
	<path style="&st3;" d="M9.1,9.4L7,8.9L6.4,6.5C5.7,6,4.9,6,4.9,6C4.5,6,4.2,6.8,4,7H3.3L3,8.3V10H2.6l-2.3,9.6v0l0,0.2
		c0,0.6,0.5,1,1,1c0.5,0,0.9-0.3,1-0.7l1.8-7.4l1.7,7.4c0.1,0.5,0.5,0.8,1,0.8c0.6,0,1-0.5,1-1l0-0.2L5.5,9.9L5.7,9l0.1,0.7
		c0.1,0.4,0.5,0.5,0.5,0.5l2.4,0.6l0.1,0c0.4,0,0.7-0.3,0.7-0.7C9.6,9.7,9.4,9.5,9.1,9.4z"/>
	<polygon style="&st3;" points="12,0 12,4 9,2 	"/>
	<path style="&st3;" d="M12,21c0,0,0-6.4,0-7.1c0.4-0.4,3.1-3.3,3.1-3.3c0.2-0.2,0.2-0.4,0.2-0.6c0-0.2-0.1-0.4-0.2-0.6
		c-0.3-0.3-0.9-0.3-1.2,0L10,13v8H12z"/>
	<path style="&st3;" d="M15,21L15,21c-0.6,0-1-0.4-1-1s0.4-1,1-1s1,0.4,1,1S15.6,21,15,21z"/>
	<path style="&st3;" d="M18,21L18,21c-0.6,0-1-0.4-1-1s0.4-1,1-1s1,0.4,1,1S18.6,21,18,21z"/>
	<path style="&st3;" d="M21,18L21,18c-0.6,0-1-0.4-1-1s0.4-1,1-1s1,0.4,1,1S21.6,18,21,18z"/>
	<path style="&st3;" d="M21,21L21,21c-0.6,0-1-0.4-1-1s0.4-1,1-1s1,0.4,1,1S21.6,21,21,21z"/>
	<path style="&st3;" d="M21,15L21,15c-0.6,0-1-0.4-1-1s0.4-1,1-1s1,0.4,1,1S21.6,15,21,15z"/>
	<path style="&st3;" d="M21,6L21,6c-0.6,0-1-0.4-1-1s0.4-1,1-1s1,0.4,1,1S21.6,6,21,6z"/>
	<path style="&st3;" d="M15,3L15,3c-0.6,0-1-0.4-1-1s0.4-1,1-1s1,0.4,1,1S15.6,3,15,3z"/>
	<path style="&st3;" d="M18,3L18,3c-0.6,0-1-0.4-1-1s0.4-1,1-1s1,0.4,1,1S18.6,3,18,3z"/>
	<path style="&st3;" d="M21,9L21,9c-0.6,0-1-0.4-1-1s0.4-1,1-1s1,0.4,1,1S21.6,9,21,9z"/>
	<path style="&st3;" d="M21,3L21,3c-0.6,0-1-0.4-1-1s0.4-1,1-1s1,0.4,1,1S21.6,3,21,3z"/>
	<path style="&st3;" d="M21,12L21,12c-0.6,0-1-0.4-1-1s0.4-1,1-1s1,0.4,1,1S21.6,12,21,12z"/>
	<path style="&st3;" d="M5.7,5H5.3C4.6,5,4,4.4,4,3.7V3.3C4,2.6,4.6,2,5.3,2h0.4C6.4,2,7,2.6,7,3.3v0.4C7,4.4,6.4,5,5.7,5z"/>
</g>
</svg>
