<?xml version="1.0" encoding="UTF-8" standalone="no"?>
<svg width="12px" height="12px" viewBox="0 0 12 12" version="1.1" xmlns="http://www.w3.org/2000/svg" xmlns:xlink="http://www.w3.org/1999/xlink" xmlns:sketch="http://www.bohemiancoding.com/sketch/ns">
    <!-- Generator: Sketch 3.2.2 (9983) - http://www.bohemiancoding.com/sketch -->
    <title>self-guiding-trail-white-12-s1</title>
    <desc>Created with Sketch.</desc>
    <defs></defs>
    <g id="Page-1" stroke="none" stroke-width="1" fill="none" fill-rule="evenodd" sketch:type="MSPage">
        <rect id="gray" fill="#F0F0F0" sketch:type="MSShapeGroup" x="-60" y="-124" width="155" height="191"></rect>
        <g id="Group" sketch:type="MSLayerGroup" transform="translate(0.800003, -0.199997)">
            <g transform="translate(1.000000, 1.800003)" fill-opacity="0.1" fill="#0A0B09" sketch:type="MSShapeGroup">
                <path d="M6.29411765,9.94269972 L7,9.94269972 L7,10.6528926 L6.29411765,10.6528926 L6.29411765,9.94269972 Z" id="Fill-413"></path>
                <path d="M8.29411765,9.94269972 L9,9.94269972 L9,10.6528926 L8.29411765,10.6528926 L8.29411765,9.94269972 Z" id="Fill-414"></path>
                <path d="M9.29411765,9.94269972 L10,9.94269972 L10,10.6528926 L9.29411765,10.6528926 L9.29411765,9.94269972 Z" id="Fill-415"></path>
                <path d="M9.29411765,8.94269972 L10,8.94269972 L10,9.65289256 L9.29411765,9.65289256 L9.29411765,8.94269972 Z" id="Fill-416"></path>
                <path d="M9.29411765,6.94269972 L10,6.94269972 L10,7.65289256 L9.29411765,7.65289256 L9.29411765,6.94269972 Z" id="Fill-417"></path>
                <path d="M9.29411765,5.94269972 L10,5.94269972 L10,6.65289256 L9.29411765,6.65289256 L9.29411765,5.94269972 Z" id="Fill-418"></path>
                <path d="M9.29411765,4.94269972 L10,4.94269972 L10,5.65289256 L9.29411765,5.65289256 L9.29411765,4.94269972 Z" id="Fill-419"></path>
                <path d="M9.29411765,2.94269972 L10,2.94269972 L10,3.65289256 L9.29411765,3.65289256 L9.29411765,2.94269972 Z" id="Fill-420"></path>
                <path d="M9.29411765,1.94269972 L10,1.94269972 L10,2.65289256 L9.29411765,2.65289256 L9.29411765,1.94269972 Z" id="Fill-421"></path>
                <path d="M8.29411765,1.94269972 L9,1.94269972 L9,2.65289256 L8.29411765,2.65289256 L8.29411765,1.94269972 Z" id="Fill-422"></path>
                <path d="M6.29411765,1.94269972 L7,1.94269972 L7,2.65289256 L6.29411765,2.65289256 L6.29411765,1.94269972 Z" id="Fill-423"></path>
                <path d="M5.29411765,0.942699725 L6,0.942699725 L6,3.07327824 L5.29411765,3.07327824 L5.29411765,0.942699725 Z" id="Fill-424"></path>
                <path d="M4.29411765,1.94269972 L5,1.94269972 L5,2.65289256 L4.29411765,2.65289256 L4.29411765,1.94269972 Z" id="Fill-425"></path>
                <path d="M5.29411765,6.94269972 L6,6.94269972 L6,11.2038567 L5.29411765,11.2038567 L5.29411765,6.94269972 Z" id="Fill-426"></path>
                <path d="M6.29411765,5.94269972 L7,5.94269972 L7,7.3630854 L6.29411765,7.3630854 L6.29411765,5.94269972 Z" id="Fill-427"></path>
                <path d="M6.29411765,4.94269972 L7,4.94269972 L7,6.3630854 L6.29411765,6.3630854 L6.29411765,4.94269972 Z" id="Fill-428"></path>
                <path d="M2.29411765,3.3630854 L3.70588235,3.3630854 L3.70588235,1.94269972 L2.29411765,1.94269972 L2.29411765,3.3630854 Z" id="Fill-429"></path>
                <path d="M2.41176471,4.3630854 L3.11764706,4.3630854 L4.52941176,5.78347107 L4.52941176,6.49366391 L3.11764706,5.07327824 L3.11764706,7.20385675 L3.82352941,10.7548209 L3.11764706,10.7548209 L2.41176471,7.91404959 L1.70588235,7.91404959 L0.985882353,10.7051074 L0.294117647,10.7548209 L1,7.20385675 L1.70588235,5.78347107 L0.294117647,5.78347107 L0.294117647,3.65289256 L1,2.94269972 L2.41176471,4.3630854" id="Fill-430"></path>
            </g>
            <g transform="translate(0.500000, 0.800003)" fill="#0A0B09" opacity="0.2" sketch:type="MSShapeGroup">
                <path d="M6.29411765,9.94269972 L7,9.94269972 L7,10.6528926 L6.29411765,10.6528926 L6.29411765,9.94269972 Z" id="Fill-413"></path>
                <path d="M8.29411765,9.94269972 L9,9.94269972 L9,10.6528926 L8.29411765,10.6528926 L8.29411765,9.94269972 Z" id="Fill-414"></path>
                <path d="M9.29411765,9.94269972 L10,9.94269972 L10,10.6528926 L9.29411765,10.6528926 L9.29411765,9.94269972 Z" id="Fill-415"></path>
                <path d="M9.29411765,8.94269972 L10,8.94269972 L10,9.65289256 L9.29411765,9.65289256 L9.29411765,8.94269972 Z" id="Fill-416"></path>
                <path d="M9.29411765,6.94269972 L10,6.94269972 L10,7.65289256 L9.29411765,7.65289256 L9.29411765,6.94269972 Z" id="Fill-417"></path>
                <path d="M9.29411765,5.94269972 L10,5.94269972 L10,6.65289256 L9.29411765,6.65289256 L9.29411765,5.94269972 Z" id="Fill-418"></path>
                <path d="M9.29411765,4.94269972 L10,4.94269972 L10,5.65289256 L9.29411765,5.65289256 L9.29411765,4.94269972 Z" id="Fill-419"></path>
                <path d="M9.29411765,2.94269972 L10,2.94269972 L10,3.65289256 L9.29411765,3.65289256 L9.29411765,2.94269972 Z" id="Fill-420"></path>
                <path d="M9.29411765,1.94269972 L10,1.94269972 L10,2.65289256 L9.29411765,2.65289256 L9.29411765,1.94269972 Z" id="Fill-421"></path>
                <path d="M8.29411765,1.94269972 L9,1.94269972 L9,2.65289256 L8.29411765,2.65289256 L8.29411765,1.94269972 Z" id="Fill-422"></path>
                <path d="M6.29411765,1.94269972 L7,1.94269972 L7,2.65289256 L6.29411765,2.65289256 L6.29411765,1.94269972 Z" id="Fill-423"></path>
                <path d="M5.29411765,0.942699725 L6,0.942699725 L6,3.07327824 L5.29411765,3.07327824 L5.29411765,0.942699725 Z" id="Fill-424"></path>
                <path d="M4.29411765,1.94269972 L5,1.94269972 L5,2.65289256 L4.29411765,2.65289256 L4.29411765,1.94269972 Z" id="Fill-425"></path>
                <path d="M5.29411765,6.94269972 L6,6.94269972 L6,11.2038567 L5.29411765,11.2038567 L5.29411765,6.94269972 Z" id="Fill-426"></path>
                <path d="M6.29411765,5.94269972 L7,5.94269972 L7,7.3630854 L6.29411765,7.3630854 L6.29411765,5.94269972 Z" id="Fill-427"></path>
                <path d="M6.29411765,4.94269972 L7,4.94269972 L7,6.3630854 L6.29411765,6.3630854 L6.29411765,4.94269972 Z" id="Fill-428"></path>
                <path d="M2.29411765,3.3630854 L3.70588235,3.3630854 L3.70588235,1.94269972 L2.29411765,1.94269972 L2.29411765,3.3630854 Z" id="Fill-429"></path>
                <path d="M2.41176471,4.3630854 L3.11764706,4.3630854 L4.52941176,5.78347107 L4.52941176,6.49366391 L3.11764706,5.07327824 L3.11764706,7.20385675 L3.82352941,10.7548209 L3.11764706,10.7548209 L2.41176471,7.91404959 L1.70588235,7.91404959 L0.985882353,10.7051074 L0.294117647,10.7548209 L1,7.20385675 L1.70588235,5.78347107 L0.294117647,5.78347107 L0.294117647,3.65289256 L1,2.94269972 L2.41176471,4.3630854" id="Fill-430"></path>
            </g>
            <g fill="#FFFFFF" sketch:type="MSShapeGroup">
                <path d="M6.29411765,9.94269972 L7,9.94269972 L7,10.6528926 L6.29411765,10.6528926 L6.29411765,9.94269972 Z" id="Fill-413"></path>
                <path d="M8.29411765,9.94269972 L9,9.94269972 L9,10.6528926 L8.29411765,10.6528926 L8.29411765,9.94269972 Z" id="Fill-414"></path>
                <path d="M9.29411765,9.94269972 L10,9.94269972 L10,10.6528926 L9.29411765,10.6528926 L9.29411765,9.94269972 Z" id="Fill-415"></path>
                <path d="M9.29411765,8.94269972 L10,8.94269972 L10,9.65289256 L9.29411765,9.65289256 L9.29411765,8.94269972 Z" id="Fill-416"></path>
                <path d="M9.29411765,6.94269972 L10,6.94269972 L10,7.65289256 L9.29411765,7.65289256 L9.29411765,6.94269972 Z" id="Fill-417"></path>
                <path d="M9.29411765,5.94269972 L10,5.94269972 L10,6.65289256 L9.29411765,6.65289256 L9.29411765,5.94269972 Z" id="Fill-418"></path>
                <path d="M9.29411765,4.94269972 L10,4.94269972 L10,5.65289256 L9.29411765,5.65289256 L9.29411765,4.94269972 Z" id="Fill-419"></path>
                <path d="M9.29411765,2.94269972 L10,2.94269972 L10,3.65289256 L9.29411765,3.65289256 L9.29411765,2.94269972 Z" id="Fill-420"></path>
                <path d="M9.29411765,1.94269972 L10,1.94269972 L10,2.65289256 L9.29411765,2.65289256 L9.29411765,1.94269972 Z" id="Fill-421"></path>
                <path d="M8.29411765,1.94269972 L9,1.94269972 L9,2.65289256 L8.29411765,2.65289256 L8.29411765,1.94269972 Z" id="Fill-422"></path>
                <path d="M6.29411765,1.94269972 L7,1.94269972 L7,2.65289256 L6.29411765,2.65289256 L6.29411765,1.94269972 Z" id="Fill-423"></path>
                <path d="M5.29411765,0.942699725 L6,0.942699725 L6,3.07327824 L5.29411765,3.07327824 L5.29411765,0.942699725 Z" id="Fill-424"></path>
                <path d="M4.29411765,1.94269972 L5,1.94269972 L5,2.65289256 L4.29411765,2.65289256 L4.29411765,1.94269972 Z" id="Fill-425"></path>
                <path d="M5.29411765,6.94269972 L6,6.94269972 L6,11.2038567 L5.29411765,11.2038567 L5.29411765,6.94269972 Z" id="Fill-426"></path>
                <path d="M6.29411765,5.94269972 L7,5.94269972 L7,7.3630854 L6.29411765,7.3630854 L6.29411765,5.94269972 Z" id="Fill-427"></path>
                <path d="M6.29411765,4.94269972 L7,4.94269972 L7,6.3630854 L6.29411765,6.3630854 L6.29411765,4.94269972 Z" id="Fill-428"></path>
                <path d="M2.29411765,3.3630854 L3.70588235,3.3630854 L3.70588235,1.94269972 L2.29411765,1.94269972 L2.29411765,3.3630854 Z" id="Fill-429"></path>
                <path d="M2.41176471,4.3630854 L3.11764706,4.3630854 L4.52941176,5.78347107 L4.52941176,6.49366391 L3.11764706,5.07327824 L3.11764706,7.20385675 L3.82352941,10.7548209 L3.11764706,10.7548209 L2.41176471,7.91404959 L1.70588235,7.91404959 L0.985882353,10.7051074 L0.294117647,10.7548209 L1,7.20385675 L1.70588235,5.78347107 L0.294117647,5.78347107 L0.294117647,3.65289256 L1,2.94269972 L2.41176471,4.3630854" id="Fill-430"></path>
            </g>
        </g>
    </g>
</svg>