<?xml version="1.0" encoding="UTF-8" standalone="no"?>
<svg width="18px" height="18px" viewBox="0 0 18 18" version="1.1" xmlns="http://www.w3.org/2000/svg" xmlns:xlink="http://www.w3.org/1999/xlink" xmlns:sketch="http://www.bohemiancoding.com/sketch/ns">
    <!-- Generator: Sketch 3.2.2 (9983) - http://www.bohemiancoding.com/sketch -->
    <title>self-guiding-trail-white-18-s2</title>
    <desc>Created with Sketch.</desc>
    <defs></defs>
    <g id="Page-1" stroke="none" stroke-width="1" fill="none" fill-rule="evenodd" sketch:type="MSPage">
        <rect id="gray" fill="#F0F0F0" sketch:type="MSShapeGroup" x="-109" y="-124" width="155" height="191"></rect>
        <g id="Group" sketch:type="MSLayerGroup" transform="translate(1.300003, 2.199997)" fill="#0A0B09" opacity="0.3">
            <path d="M2.80740741,3.48923119 L1.8962963,3.27024178 C1.72592593,3.23374355 1.55555556,3.3359386 1.51851852,3.50383048 L0.748148148,6.62807933 C0.711111111,6.78867156 0.807407407,6.95656343 0.977777778,7.00036131 L1.8962963,7.21205107 C2.02222222,7.24124966 2.15555556,7.19015213 2.22222222,7.08065743 L2.22222222,5.10975278 L2.72592593,5.10975278 L2.96296296,4.1461994 L2.96296296,3.64982342 L3.00740741,3.64982342 C2.97037037,3.57682695 2.8962963,3.51113013 2.80740741,3.48923119" id="Fill-397" sketch:type="MSShapeGroup"></path>
            <path d="M7.48148148,6.85436838 L5.94074074,6.47478674 L5.51111111,4.77396903 C4.94074074,4.3797881 4.4,4.3797881 4.4,4.3797881 C4.08888889,4.37248845 3.86666667,4.97105949 3.7037037,5.10975278 L3.19259259,5.10975278 L2.96296296,6.07330617 L2.96296296,7.29964684 L2.66666667,7.29964684 L0.97037037,14.3365064 L0.955555556,14.489799 C0.955555556,14.9058788 1.3037037,15.2416626 1.72592593,15.2416626 C2.07407407,15.2416626 2.36296296,15.0153735 2.45925926,14.7014887 L3.78518519,9.30704971 L5.04444444,14.6722901 C5.12592593,15.0007742 5.42962963,15.2489622 5.79259259,15.2489622 C6.21481481,15.2489622 6.56296296,14.9058788 6.56296296,14.489799 L6.54074074,14.3219071 L4.80740741,7.19745178 L4.95555556,6.56968215 L5.06666667,7.06605814 C5.17777778,7.3872426 5.47407407,7.42374083 5.47407407,7.42374083 L7.25925926,7.86901929 L7.36296296,7.87631894 C7.65185185,7.87631894 7.88888889,7.64273024 7.88888889,7.35804401 C7.88888889,7.11715566 7.71111111,6.90546591 7.48148148,6.85436838" id="Fill-398" sketch:type="MSShapeGroup"></path>
            <path d="M9.62962963,0 L9.62962963,2.91985873 L7.40740741,1.44533007 L9.62962963,0" id="Fill-399" sketch:type="MSShapeGroup"></path>
            <path d="M9.62962963,15.3292584 L9.62962963,10.1611084 C9.94814815,9.83992393 11.9555556,7.7157267 11.9555556,7.7157267 C12.0740741,7.59893236 12.1407407,7.43834012 12.1407407,7.27774789 C12.1407407,7.11715566 12.0814815,6.96386308 11.9555556,6.83976908 C11.7111111,6.59888074 11.3111111,6.59888074 11.0666667,6.83976908 L8.14814815,9.48954089 L8.14814815,15.3292584 L9.62962963,15.3292584" id="Fill-400" sketch:type="MSShapeGroup"></path>
            <path d="M11.8518519,15.3292584 L11.8518519,15.3292584 C11.4444444,15.3292584 11.1111111,15.0080739 11.1111111,14.5992937 C11.1111111,14.1978131 11.4444444,13.869329 11.8518519,13.869329 C12.2592593,13.869329 12.5925926,14.1978131 12.5925926,14.5992937 C12.5925926,15.0080739 12.2592593,15.3292584 11.8518519,15.3292584" id="Fill-401" sketch:type="MSShapeGroup"></path>
            <path d="M14.0740741,15.3292584 L14.0740741,15.3292584 C13.6666667,15.3292584 13.3333333,15.0080739 13.3333333,14.5992937 C13.3333333,14.1978131 13.6666667,13.869329 14.0740741,13.869329 C14.4814815,13.869329 14.8148148,14.1978131 14.8148148,14.5992937 C14.8148148,15.0080739 14.4814815,15.3292584 14.0740741,15.3292584" id="Fill-402" sketch:type="MSShapeGroup"></path>
            <path d="M16.2962963,13.1393643 L16.2962963,13.1393643 C15.8888889,13.1393643 15.5555556,12.8181798 15.5555556,12.4093996 C15.5555556,12.007919 15.8888889,11.6794349 16.2962963,11.6794349 C16.7037037,11.6794349 17.037037,12.007919 17.037037,12.4093996 C17.037037,12.8181798 16.7037037,13.1393643 16.2962963,13.1393643" id="Fill-403" sketch:type="MSShapeGroup"></path>
            <path d="M16.2962963,15.3292584 L16.2962963,15.3292584 C15.8888889,15.3292584 15.5555556,15.0080739 15.5555556,14.5992937 C15.5555556,14.1978131 15.8888889,13.869329 16.2962963,13.869329 C16.7037037,13.869329 17.037037,14.1978131 17.037037,14.5992937 C17.037037,15.0080739 16.7037037,15.3292584 16.2962963,15.3292584" id="Fill-404" sketch:type="MSShapeGroup"></path>
            <path d="M16.2962963,10.9494703 L16.2962963,10.9494703 C15.8888889,10.9494703 15.5555556,10.6282858 15.5555556,10.2195056 C15.5555556,9.81802499 15.8888889,9.48954089 16.2962963,9.48954089 C16.7037037,9.48954089 17.037037,9.81802499 17.037037,10.2195056 C17.037037,10.6282858 16.7037037,10.9494703 16.2962963,10.9494703" id="Fill-405" sketch:type="MSShapeGroup"></path>
            <path d="M16.2962963,4.3797881 L16.2962963,4.3797881 C15.8888889,4.3797881 15.5555556,4.05860364 15.5555556,3.64982342 C15.5555556,3.24834284 15.8888889,2.91985873 16.2962963,2.91985873 C16.7037037,2.91985873 17.037037,3.24834284 17.037037,3.64982342 C17.037037,4.05860364 16.7037037,4.3797881 16.2962963,4.3797881" id="Fill-406" sketch:type="MSShapeGroup"></path>
            <path d="M11.8518519,2.18989405 L11.8518519,2.18989405 C11.4444444,2.18989405 11.1111111,1.86870959 11.1111111,1.45992937 C11.1111111,1.05844879 11.4444444,0.729964684 11.8518519,0.729964684 C12.2592593,0.729964684 12.5925926,1.05844879 12.5925926,1.45992937 C12.5925926,1.86870959 12.2592593,2.18989405 11.8518519,2.18989405" id="Fill-407" sketch:type="MSShapeGroup"></path>
            <path d="M14.0740741,2.18989405 L14.0740741,2.18989405 C13.6666667,2.18989405 13.3333333,1.86870959 13.3333333,1.45992937 C13.3333333,1.05844879 13.6666667,0.729964684 14.0740741,0.729964684 C14.4814815,0.729964684 14.8148148,1.05844879 14.8148148,1.45992937 C14.8148148,1.86870959 14.4814815,2.18989405 14.0740741,2.18989405" id="Fill-408" sketch:type="MSShapeGroup"></path>
            <path d="M16.2962963,6.56968215 L16.2962963,6.56968215 C15.8888889,6.56968215 15.5555556,6.24849769 15.5555556,5.83971747 C15.5555556,5.43823689 15.8888889,5.10975278 16.2962963,5.10975278 C16.7037037,5.10975278 17.037037,5.43823689 17.037037,5.83971747 C17.037037,6.24849769 16.7037037,6.56968215 16.2962963,6.56968215" id="Fill-409" sketch:type="MSShapeGroup"></path>
            <path d="M16.2962963,2.18989405 L16.2962963,2.18989405 C15.8888889,2.18989405 15.5555556,1.86870959 15.5555556,1.45992937 C15.5555556,1.05844879 15.8888889,0.729964684 16.2962963,0.729964684 C16.7037037,0.729964684 17.037037,1.05844879 17.037037,1.45992937 C17.037037,1.86870959 16.7037037,2.18989405 16.2962963,2.18989405" id="Fill-410" sketch:type="MSShapeGroup"></path>
            <path d="M16.2962963,8.7595762 L16.2962963,8.7595762 C15.8888889,8.7595762 15.5555556,8.43839174 15.5555556,8.02961152 C15.5555556,7.62813094 15.8888889,7.29964684 16.2962963,7.29964684 C16.7037037,7.29964684 17.037037,7.62813094 17.037037,8.02961152 C17.037037,8.43839174 16.7037037,8.7595762 16.2962963,8.7595762" id="Fill-411" sketch:type="MSShapeGroup"></path>
            <path d="M4.95555556,3.64982342 L4.67407407,3.64982342 C4.14074074,3.64982342 3.7037037,3.21914425 3.7037037,2.69356968 L3.7037037,2.42348275 C3.7037037,1.89060853 4.14074074,1.45992937 4.67407407,1.45992937 L4.95555556,1.45992937 C5.48888889,1.45992937 5.92592593,1.89060853 5.92592593,2.42348275 L5.92592593,2.69356968 C5.92592593,3.21914425 5.48888889,3.64982342 4.95555556,3.64982342" id="Fill-412" sketch:type="MSShapeGroup"></path>
        </g>
        <g id="Group" sketch:type="MSLayerGroup" transform="translate(0.300003, 1.199997)" fill="#FFFFFF">
            <path d="M2.80740741,3.48923119 L1.8962963,3.27024178 C1.72592593,3.23374355 1.55555556,3.3359386 1.51851852,3.50383048 L0.748148148,6.62807933 C0.711111111,6.78867156 0.807407407,6.95656343 0.977777778,7.00036131 L1.8962963,7.21205107 C2.02222222,7.24124966 2.15555556,7.19015213 2.22222222,7.08065743 L2.22222222,5.10975278 L2.72592593,5.10975278 L2.96296296,4.1461994 L2.96296296,3.64982342 L3.00740741,3.64982342 C2.97037037,3.57682695 2.8962963,3.51113013 2.80740741,3.48923119" id="Fill-397" sketch:type="MSShapeGroup"></path>
            <path d="M7.48148148,6.85436838 L5.94074074,6.47478674 L5.51111111,4.77396903 C4.94074074,4.3797881 4.4,4.3797881 4.4,4.3797881 C4.08888889,4.37248845 3.86666667,4.97105949 3.7037037,5.10975278 L3.19259259,5.10975278 L2.96296296,6.07330617 L2.96296296,7.29964684 L2.66666667,7.29964684 L0.97037037,14.3365064 L0.955555556,14.489799 C0.955555556,14.9058788 1.3037037,15.2416626 1.72592593,15.2416626 C2.07407407,15.2416626 2.36296296,15.0153735 2.45925926,14.7014887 L3.78518519,9.30704971 L5.04444444,14.6722901 C5.12592593,15.0007742 5.42962963,15.2489622 5.79259259,15.2489622 C6.21481481,15.2489622 6.56296296,14.9058788 6.56296296,14.489799 L6.54074074,14.3219071 L4.80740741,7.19745178 L4.95555556,6.56968215 L5.06666667,7.06605814 C5.17777778,7.3872426 5.47407407,7.42374083 5.47407407,7.42374083 L7.25925926,7.86901929 L7.36296296,7.87631894 C7.65185185,7.87631894 7.88888889,7.64273024 7.88888889,7.35804401 C7.88888889,7.11715566 7.71111111,6.90546591 7.48148148,6.85436838" id="Fill-398" sketch:type="MSShapeGroup"></path>
            <path d="M9.62962963,0 L9.62962963,2.91985873 L7.40740741,1.44533007 L9.62962963,0" id="Fill-399" sketch:type="MSShapeGroup"></path>
            <path d="M9.62962963,15.3292584 L9.62962963,10.1611084 C9.94814815,9.83992393 11.9555556,7.7157267 11.9555556,7.7157267 C12.0740741,7.59893236 12.1407407,7.43834012 12.1407407,7.27774789 C12.1407407,7.11715566 12.0814815,6.96386308 11.9555556,6.83976908 C11.7111111,6.59888074 11.3111111,6.59888074 11.0666667,6.83976908 L8.14814815,9.48954089 L8.14814815,15.3292584 L9.62962963,15.3292584" id="Fill-400" sketch:type="MSShapeGroup"></path>
            <path d="M11.8518519,15.3292584 L11.8518519,15.3292584 C11.4444444,15.3292584 11.1111111,15.0080739 11.1111111,14.5992937 C11.1111111,14.1978131 11.4444444,13.869329 11.8518519,13.869329 C12.2592593,13.869329 12.5925926,14.1978131 12.5925926,14.5992937 C12.5925926,15.0080739 12.2592593,15.3292584 11.8518519,15.3292584" id="Fill-401" sketch:type="MSShapeGroup"></path>
            <path d="M14.0740741,15.3292584 L14.0740741,15.3292584 C13.6666667,15.3292584 13.3333333,15.0080739 13.3333333,14.5992937 C13.3333333,14.1978131 13.6666667,13.869329 14.0740741,13.869329 C14.4814815,13.869329 14.8148148,14.1978131 14.8148148,14.5992937 C14.8148148,15.0080739 14.4814815,15.3292584 14.0740741,15.3292584" id="Fill-402" sketch:type="MSShapeGroup"></path>
            <path d="M16.2962963,13.1393643 L16.2962963,13.1393643 C15.8888889,13.1393643 15.5555556,12.8181798 15.5555556,12.4093996 C15.5555556,12.007919 15.8888889,11.6794349 16.2962963,11.6794349 C16.7037037,11.6794349 17.037037,12.007919 17.037037,12.4093996 C17.037037,12.8181798 16.7037037,13.1393643 16.2962963,13.1393643" id="Fill-403" sketch:type="MSShapeGroup"></path>
            <path d="M16.2962963,15.3292584 L16.2962963,15.3292584 C15.8888889,15.3292584 15.5555556,15.0080739 15.5555556,14.5992937 C15.5555556,14.1978131 15.8888889,13.869329 16.2962963,13.869329 C16.7037037,13.869329 17.037037,14.1978131 17.037037,14.5992937 C17.037037,15.0080739 16.7037037,15.3292584 16.2962963,15.3292584" id="Fill-404" sketch:type="MSShapeGroup"></path>
            <path d="M16.2962963,10.9494703 L16.2962963,10.9494703 C15.8888889,10.9494703 15.5555556,10.6282858 15.5555556,10.2195056 C15.5555556,9.81802499 15.8888889,9.48954089 16.2962963,9.48954089 C16.7037037,9.48954089 17.037037,9.81802499 17.037037,10.2195056 C17.037037,10.6282858 16.7037037,10.9494703 16.2962963,10.9494703" id="Fill-405" sketch:type="MSShapeGroup"></path>
            <path d="M16.2962963,4.3797881 L16.2962963,4.3797881 C15.8888889,4.3797881 15.5555556,4.05860364 15.5555556,3.64982342 C15.5555556,3.24834284 15.8888889,2.91985873 16.2962963,2.91985873 C16.7037037,2.91985873 17.037037,3.24834284 17.037037,3.64982342 C17.037037,4.05860364 16.7037037,4.3797881 16.2962963,4.3797881" id="Fill-406" sketch:type="MSShapeGroup"></path>
            <path d="M11.8518519,2.18989405 L11.8518519,2.18989405 C11.4444444,2.18989405 11.1111111,1.86870959 11.1111111,1.45992937 C11.1111111,1.05844879 11.4444444,0.729964684 11.8518519,0.729964684 C12.2592593,0.729964684 12.5925926,1.05844879 12.5925926,1.45992937 C12.5925926,1.86870959 12.2592593,2.18989405 11.8518519,2.18989405" id="Fill-407" sketch:type="MSShapeGroup"></path>
            <path d="M14.0740741,2.18989405 L14.0740741,2.18989405 C13.6666667,2.18989405 13.3333333,1.86870959 13.3333333,1.45992937 C13.3333333,1.05844879 13.6666667,0.729964684 14.0740741,0.729964684 C14.4814815,0.729964684 14.8148148,1.05844879 14.8148148,1.45992937 C14.8148148,1.86870959 14.4814815,2.18989405 14.0740741,2.18989405" id="Fill-408" sketch:type="MSShapeGroup"></path>
            <path d="M16.2962963,6.56968215 L16.2962963,6.56968215 C15.8888889,6.56968215 15.5555556,6.24849769 15.5555556,5.83971747 C15.5555556,5.43823689 15.8888889,5.10975278 16.2962963,5.10975278 C16.7037037,5.10975278 17.037037,5.43823689 17.037037,5.83971747 C17.037037,6.24849769 16.7037037,6.56968215 16.2962963,6.56968215" id="Fill-409" sketch:type="MSShapeGroup"></path>
            <path d="M16.2962963,2.18989405 L16.2962963,2.18989405 C15.8888889,2.18989405 15.5555556,1.86870959 15.5555556,1.45992937 C15.5555556,1.05844879 15.8888889,0.729964684 16.2962963,0.729964684 C16.7037037,0.729964684 17.037037,1.05844879 17.037037,1.45992937 C17.037037,1.86870959 16.7037037,2.18989405 16.2962963,2.18989405" id="Fill-410" sketch:type="MSShapeGroup"></path>
            <path d="M16.2962963,8.7595762 L16.2962963,8.7595762 C15.8888889,8.7595762 15.5555556,8.43839174 15.5555556,8.02961152 C15.5555556,7.62813094 15.8888889,7.29964684 16.2962963,7.29964684 C16.7037037,7.29964684 17.037037,7.62813094 17.037037,8.02961152 C17.037037,8.43839174 16.7037037,8.7595762 16.2962963,8.7595762" id="Fill-411" sketch:type="MSShapeGroup"></path>
            <path d="M4.95555556,3.64982342 L4.67407407,3.64982342 C4.14074074,3.64982342 3.7037037,3.21914425 3.7037037,2.69356968 L3.7037037,2.42348275 C3.7037037,1.89060853 4.14074074,1.45992937 4.67407407,1.45992937 L4.95555556,1.45992937 C5.48888889,1.45992937 5.92592593,1.89060853 5.92592593,2.42348275 L5.92592593,2.69356968 C5.92592593,3.21914425 5.48888889,3.64982342 4.95555556,3.64982342" id="Fill-412" sketch:type="MSShapeGroup"></path>
        </g>
    </g>
</svg>