<?xml version="1.0" encoding="UTF-8" standalone="no"?>
<svg width="18px" height="18px" viewBox="0 0 18 18" version="1.1" xmlns="http://www.w3.org/2000/svg" xmlns:xlink="http://www.w3.org/1999/xlink" xmlns:sketch="http://www.bohemiancoding.com/sketch/ns">
    <!-- Generator: Sketch 3.2.2 (9983) - http://www.bohemiancoding.com/sketch -->
    <title>shelter-black-18</title>
    <desc>Created with Sketch.</desc>
    <defs></defs>
    <g id="Page-1" stroke="none" stroke-width="1" fill="none" fill-rule="evenodd" sketch:type="MSPage">
        <path d="M19,3.45992937 L19,2 L2.7037037,9.29964684 L2.7037037,10.7595762 L4.18518519,10.0953083 L4.18518519,16.5992937 L19,16.5992937 L19,15.1393643 L5.66666667,15.1393643 L5.66666667,9.43104048 L19,3.45992937" id="Fill-432" opacity="0.1" fill="#0A0B09" sketch:type="MSShapeGroup"></path>
        <path d="M18,2.45992937 L18,1 L1.7037037,8.29964684 L1.7037037,9.7595762 L3.18518519,9.09530834 L3.18518519,15.5992937 L18,15.5992937 L18,14.1393643 L4.66666667,14.1393643 L4.66666667,8.43104048 L18,2.45992937" id="Fill-432" opacity="0.2" fill="#0A0B09" sketch:type="MSShapeGroup"></path>
        <path d="M17,1.45992937 L17,0 L0.703703704,7.29964684 L0.703703704,8.7595762 L2.18518519,8.09530834 L2.18518519,14.5992937 L17,14.5992937 L17,13.1393643 L3.66666667,13.1393643 L3.66666667,7.43104048 L17,1.45992937" id="Fill-432" fill="#0A0B09" sketch:type="MSShapeGroup"></path>
    </g>
</svg>