<?xml version="1.0" encoding="UTF-8" standalone="no"?>
<svg width="12px" height="12px" viewBox="0 0 12 12" version="1.1" xmlns="http://www.w3.org/2000/svg" xmlns:xlink="http://www.w3.org/1999/xlink" xmlns:sketch="http://www.bohemiancoding.com/sketch/ns">
    <!-- Generator: Sketch 3.2.2 (9983) - http://www.bohemiancoding.com/sketch -->
    <title>shelter-white-12</title>
    <desc>Created with Sketch.</desc>
    <defs></defs>
    <g id="Page-1" stroke="none" stroke-width="1" fill="none" fill-rule="evenodd" sketch:type="MSPage">
        <path d="M11.8823529,3.06528926 L11.8823529,2 L2,6.26115702 L2,7.32644628 L2.70588235,7.02106336 L2.70588235,11.2325069 L11.8823529,11.2325069 L11.8823529,9.81212121 L4.11764706,9.81212121 L4.11764706,6.41029752 L11.8823529,3.06528926" id="Fill-433" opacity="0.5" fill="#0A0B09" sketch:type="MSShapeGroup"></path>
        <path d="M10.8823529,2.06528926 L10.8823529,1 L1,5.26115702 L1,6.32644628 L1.70588235,6.02106336 L1.70588235,10.2325069 L10.8823529,10.2325069 L10.8823529,8.81212121 L3.11764706,8.81212121 L3.11764706,5.41029752 L10.8823529,2.06528926" id="Fill-433" opacity="0.75" fill="#0A0B09" sketch:type="MSShapeGroup"></path>
        <path d="M9.88235294,1.06528926 L9.88235294,0 L0,4.26115702 L0,5.32644628 L0.705882353,5.02106336 L0.705882353,9.23250689 L9.88235294,9.23250689 L9.88235294,7.81212121 L2.11764706,7.81212121 L2.11764706,4.41029752 L9.88235294,1.06528926" id="Fill-433" fill="#FFFFFF" sketch:type="MSShapeGroup"></path>
    </g>
</svg>