<?xml version="1.0" encoding="utf-8"?>
<!-- Generator: Adobe Illustrator 18.0.0, SVG Export Plug-In . SVG Version: 6.00 Build 0)  -->
<!DOCTYPE svg PUBLIC "-//W3C//DTD SVG 1.1//EN" "http://www.w3.org/Graphics/SVG/1.1/DTD/svg11.dtd" [
	<!ENTITY ns_flows "http://ns.adobe.com/Flows/1.0/">
	<!ENTITY ns_extend "http://ns.adobe.com/Extensibility/1.0/">
	<!ENTITY ns_ai "http://ns.adobe.com/AdobeIllustrator/10.0/">
	<!ENTITY ns_graphs "http://ns.adobe.com/Graphs/1.0/">
	<!ENTITY st0 "opacity:0.1;">
	<!ENTITY st1 "fill:#010101;">
	<!ENTITY st2 "opacity:0.2;">
]>
<svg version="1.1" id="Layer_1" xmlns:x="&ns_extend;" xmlns:i="&ns_ai;" xmlns:graph="&ns_graphs;"
	 xmlns="http://www.w3.org/2000/svg" xmlns:xlink="http://www.w3.org/1999/xlink" xmlns:a="http://ns.adobe.com/AdobeSVGViewerExtensions/3.0/"
	 x="0px" y="0px" width="24px" height="22px" viewBox="0 0 24 22" style="enable-background:new 0 0 24 22;" xml:space="preserve">
<g style="&st0;">
	<polygon style="&st1;" points="24,4 24,2 2,12 2,14 4,13.1 4,22 24,22 24,20 6,20 6,12.2 	"/>
</g>
<g style="&st2;">
	<polygon style="&st1;" points="23,3 23,1 1,11 1,13 3,12.1 3,21 23,21 23,19 5,19 5,11.2 	"/>
</g>
<g>
	<polygon style="&st1;" points="22,2 22,0 0,10 0,12 2,11.1 2,20 22,20 22,18 4,18 4,10.2 	"/>
</g>
</svg>
