<?xml version="1.0" encoding="UTF-8" standalone="no"?>
<!-- Created with Inkscape (http://www.inkscape.org/) -->

<svg
   xmlns:dc="http://purl.org/dc/elements/1.1/"
   xmlns:cc="http://creativecommons.org/ns#"
   xmlns:rdf="http://www.w3.org/1999/02/22-rdf-syntax-ns#"
   xmlns:svg="http://www.w3.org/2000/svg"
   xmlns="http://www.w3.org/2000/svg"
   xmlns:inkscape="http://www.inkscape.org/namespaces/inkscape"
   version="1.1"
   width="24"
   height="24"
   id="svg4460">
  <defs
     id="defs4462" />
  <metadata
     id="metadata4465">
    <rdf:RDF>
      <cc:Work
         rdf:about="">
        <dc:format>image/svg+xml</dc:format>
        <dc:type
           rdf:resource="http://purl.org/dc/dcmitype/StillImage" />
        <dc:title />
      </cc:Work>
    </rdf:RDF>
  </metadata>
  <g
     transform="translate(0,-1028.3622)"
     id="layer1">
    <g
       transform="translate(-318,-69.999983)"
       id="shop-24"
       style="display:inline">
      <g
         transform="translate(-1,-1)"
         id="g16678">
        <path
           d="m 330,1102.3622 c -1,0 -1.88616,1.0065 -2,2 l -0.34375,3 -1.65625,0 c -0.5,0 -1,0.5 -1,1 l -1,10 c 0,0.5 0.5,1 1,1 l 13,0 c 0.5,0 1,-0.5 1,-1 l -1,-10 c 0,-0.5 -0.5,-1 -1,-1 l -1.65625,0 -0.34375,-3 c -0.11384,-0.9935 -1,-2 -2,-2 z m 0,1 3,0 c 0.5,0 0.94308,0.5033 1,1 l 0.34375,3 -5.6875,0 0.34375,-3 c 0.0569,-0.4967 0.5,-1 1,-1 z"
           inkscape:connector-curvature="0"
           id="path13307"
           style="opacity:0.3;color:#000000;fill:none;stroke:#ffffff;stroke-width:2;stroke-linecap:butt;stroke-linejoin:round;stroke-miterlimit:4;stroke-opacity:1;stroke-dasharray:none;stroke-dashoffset:0;marker:none;visibility:visible;display:inline;overflow:visible;enable-background:accumulate" />
        <path
           d="m 330,1102.3622 c -1,0 -1.88616,1.0065 -2,2 l -0.34375,3 -1.65625,0 c -0.5,0 -1,0.5 -1,1 l -1,10 c 0,0.5 0.5,1 1,1 l 13,0 c 0.5,0 1,-0.5 1,-1 l -1,-10 c 0,-0.5 -0.5,-1 -1,-1 l -1.65625,0 -0.34375,-3 c -0.11384,-0.9935 -1,-2 -2,-2 z m 0,1 3,0 c 0.5,0 0.94308,0.5033 1,1 l 0.34375,3 -5.6875,0 0.34375,-3 c 0.0569,-0.4967 0.5,-1 1,-1 z"
           inkscape:connector-curvature="0"
           id="rect13131-6"
           style="color:#000000;fill:#444444;fill-opacity:1;fill-rule:nonzero;stroke:none;stroke-width:2;marker:none;visibility:visible;display:inline;overflow:visible;enable-background:accumulate" />
      </g>
    </g>
  </g>
  <rect
     width="24"
     height="24"
     x="0"
     y="0"
     id="canvas"
     style="fill:none;stroke:none;visibility:hidden" />
</svg>
