<?xml version="1.0" encoding="UTF-8" standalone="no"?>
<svg width="18px" height="18px" viewBox="0 0 18 18" version="1.1" xmlns="http://www.w3.org/2000/svg" xmlns:xlink="http://www.w3.org/1999/xlink" xmlns:sketch="http://www.bohemiancoding.com/sketch/ns">
    <!-- Generator: Sketch 3.2.2 (9983) - http://www.bohemiancoding.com/sketch -->
    <title>showers-white-s1-18</title>
    <desc>Created with Sketch.</desc>
    <defs></defs>
    <g id="Page-1" stroke="none" stroke-width="1" fill="none" fill-rule="evenodd" sketch:type="MSPage">
        <g id="Group-+-Group-+-Group" sketch:type="MSLayerGroup" transform="translate(0.800003, 0.399994)">
            <g id="Group" transform="translate(2.000000, 2.000000)" fill="#0A0B09" opacity="0.1" sketch:type="MSShapeGroup">
                <path d="M3.62222222,9.91819071 C3.58518519,10.1882776 3.77777778,10.4364656 4.05185185,10.4802635 C4.32592593,10.5240614 4.58518519,10.3269709 4.62222222,10.056884 C4.65925926,9.77949742 4.47407407,9.53860907 4.19259259,9.49481119 C3.91851852,9.45831296 3.65925926,9.64080413 3.62222222,9.91819071" id="Fill-773"></path>
                <path d="M4.05925926,8.7794458 C4.0962963,8.52395816 3.91851852,8.28306982 3.65925926,8.24657158 C3.39259259,8.21007335 3.14814815,8.38526487 3.11851852,8.64805216 C3.07407407,8.91083945 3.25925926,9.1371285 3.51851852,9.17362673 C3.77777778,9.21742461 4.02962963,9.03493344 4.05925926,8.7794458" id="Fill-774"></path>
                <path d="M3.05185185,6.99103233 C3.3037037,6.99103233 3.51111111,7.19542244 3.51111111,7.43631079 C3.51111111,7.68449878 3.3037037,7.88888889 3.05185185,7.88888889 C2.80740741,7.88888889 2.6,7.68449878 2.6,7.43631079 C2.6,7.19542244 2.80740741,6.99103233 3.05185185,6.99103233" id="Fill-775"></path>
                <path d="M2.51851852,5.74279272 C2.75555556,5.74279272 2.94814815,5.93258354 2.94814815,6.16617224 C2.94814815,6.39976093 2.75555556,6.58955175 2.51851852,6.58955175 C2.28148148,6.58955175 2.08888889,6.39976093 2.08888889,6.16617224 C2.08888889,5.93258354 2.28148148,5.74279272 2.51851852,5.74279272" id="Fill-776"></path>
                <path d="M1.98518519,4.49455311 C2.21481481,4.49455311 2.39259259,4.66974463 2.39259259,4.88873404 C2.39259259,5.10772344 2.21481481,5.29021462 1.98518519,5.29021462 C1.76296296,5.29021462 1.58518519,5.10772344 1.58518519,4.88873404 C1.58518519,4.66974463 1.76296296,4.49455311 1.98518519,4.49455311" id="Fill-777"></path>
                <path d="M1.45185185,3.23901385 C1.66666667,3.23901385 1.83703704,3.40690573 1.83703704,3.61859549 C1.83703704,3.8229856 1.66666667,3.99087748 1.45185185,3.99087748 C1.24444444,3.99087748 1.07407407,3.8229856 1.07407407,3.61859549 C1.07407407,3.40690573 1.24444444,3.23901385 1.45185185,3.23901385" id="Fill-778"></path>
                <path d="M5.5037037,8.10787829 C5.51851852,7.84509101 5.74814815,7.63340125 6.02222222,7.64800054 C6.3037037,7.66259984 6.51111111,7.88888889 6.4962963,8.15897582 C6.48888889,8.4363624 6.25185185,8.64075251 5.97777778,8.62615322 C5.7037037,8.61885357 5.48888889,8.38526487 5.5037037,8.10787829" id="Fill-779"></path>
                <path d="M5.21481481,6.64064928 C5.47407407,6.64064928 5.68888889,6.85233904 5.68888889,7.10782668 C5.68888889,7.37061396 5.47407407,7.57500407 5.21481481,7.57500407 C4.94814815,7.57500407 4.74074074,7.37061396 4.74074074,7.10782668 C4.74074074,6.85233904 4.94814815,6.64064928 5.21481481,6.64064928" id="Fill-780"></path>
                <path d="M4.42962963,5.64789731 C4.67407407,5.64789731 4.87407407,5.84498778 4.87407407,6.08587612 C4.87407407,6.33406411 4.67407407,6.53115458 4.42962963,6.53115458 C4.17777778,6.53115458 3.97777778,6.33406411 3.97777778,6.08587612 C3.97777778,5.84498778 4.17777778,5.64789731 4.42962963,5.64789731" id="Fill-781"></path>
                <path d="M3.63703704,4.64054605 C3.87407407,4.64054605 4.06666667,4.83033686 4.06666667,5.06392556 C4.06666667,5.29751426 3.87407407,5.48000543 3.63703704,5.48000543 C3.40740741,5.48000543 3.21481481,5.29751426 3.21481481,5.06392556 C3.21481481,4.83033686 3.40740741,4.64054605 3.63703704,4.64054605" id="Fill-782"></path>
                <path d="M2.85185185,3.64049443 C3.07407407,3.64049443 3.25925926,3.8229856 3.25925926,4.04197501 C3.25925926,4.26096441 3.07407407,4.43615594 2.85185185,4.43615594 C2.62962963,4.43615594 2.45185185,4.26096441 2.45185185,4.04197501 C2.45185185,3.8229856 2.62962963,3.64049443 2.85185185,3.64049443" id="Fill-783"></path>
                <path d="M2.06666667,2.64044281 C2.27407407,2.64044281 2.44444444,2.80833469 2.44444444,3.0127248 C2.44444444,3.22441456 2.27407407,3.38500679 2.06666667,3.38500679 C1.85925926,3.38500679 1.68888889,3.22441456 1.68888889,3.0127248 C1.68888889,2.80833469 1.85925926,2.64044281 2.06666667,2.64044281" id="Fill-784"></path>
                <path d="M6.86666667,6.00558001 C6.58518519,6.0201793 6.34814815,5.80848954 6.34074074,5.53840261 C6.32592593,5.26101603 6.54074074,5.02742733 6.82222222,5.02012768 C7.08888889,5.01282804 7.32592593,5.21721815 7.34074074,5.49460473 C7.35555556,5.75739201 7.14074074,5.99098071 6.86666667,6.00558001" id="Fill-785"></path>
                <path d="M6.26666667,4.72084216 C6.28148148,4.96903015 6.08148148,5.18071991 5.82222222,5.19531921 C5.56296296,5.20261885 5.34074074,5.01282804 5.32592593,4.7573404 C5.31851852,4.50185276 5.51851852,4.290163 5.77777778,4.27556371 C6.02962963,4.26096441 6.25185185,4.45805488 6.26666667,4.72084216" id="Fill-786"></path>
                <path d="M5.19259259,3.9470796 C5.20740741,4.1806683 5.02222222,4.37775876 4.77777778,4.39235805 C4.54074074,4.3996577 4.32592593,4.21716653 4.31851852,3.98357783 C4.3037037,3.74268949 4.4962963,3.53829938 4.74074074,3.53099973 C4.97777778,3.51640043 5.18518519,3.69889161 5.19259259,3.9470796" id="Fill-787"></path>
                <path d="M3.71851852,2.78643575 C3.94074074,2.78643575 4.12592593,2.96162728 4.12592593,3.18791633 C4.12592593,3.40690573 3.94074074,3.5893969 3.71851852,3.5893969 C3.4962963,3.5893969 3.31111111,3.40690573 3.31111111,3.18791633 C3.31111111,2.96162728 3.4962963,2.78643575 3.71851852,2.78643575" id="Fill-788"></path>
                <path d="M2.68148148,2.04187177 C2.88888889,2.04187177 3.05925926,2.202464 3.05925926,2.41415376 C3.05925926,2.61854387 2.88888889,2.78643575 2.68148148,2.78643575 C2.46666667,2.78643575 2.3037037,2.61854387 2.3037037,2.41415376 C2.3037037,2.202464 2.46666667,2.04187177 2.68148148,2.04187177" id="Fill-789"></path>
                <path d="M3.28888889,1.43600109 C3.5037037,1.43600109 3.66666667,1.60389296 3.66666667,1.80828308 C3.66666667,2.01267319 3.5037037,2.18056506 3.28888889,2.18056506 C3.08148148,2.18056506 2.91111111,2.01267319 2.91111111,1.80828308 C2.91111111,1.60389296 3.08148148,1.43600109 3.28888889,1.43600109" id="Fill-790"></path>
                <path d="M4.63703704,1.96157566 C4.85925926,1.96157566 5.03703704,2.13676718 5.03703704,2.35575659 C5.03703704,2.57474599 4.85925926,2.75723716 4.63703704,2.75723716 C4.41481481,2.75723716 4.23703704,2.57474599 4.23703704,2.35575659 C4.23703704,2.13676718 4.41481481,1.96157566 4.63703704,1.96157566" id="Fill-791"></path>
                <path d="M5.97777778,2.48715023 C6.21481481,2.48715023 6.4,2.67694105 6.4,2.9032301 C6.4,3.1368188 6.21481481,3.32660962 5.97777778,3.32660962 C5.74814815,3.32660962 5.55555556,3.1368188 5.55555556,2.9032301 C5.55555556,2.67694105 5.74814815,2.48715023 5.97777778,2.48715023" id="Fill-792"></path>
                <path d="M7.31851852,3.02002445 C7.56296296,3.02002445 7.76296296,3.21711491 7.76296296,3.45800326 C7.76296296,3.69889161 7.56296296,3.88868242 7.31851852,3.88868242 C7.08148148,3.88868242 6.88148148,3.69889161 6.88148148,3.45800326 C6.88148148,3.21711491 7.08148148,3.02002445 7.31851852,3.02002445" id="Fill-793"></path>
                <path d="M8.66666667,3.55289867 C8.92592593,3.55289867 9.12592593,3.75728878 9.12592593,4.00547677 C9.12592593,4.26096441 8.92592593,4.46535452 8.66666667,4.46535452 C8.41481481,4.46535452 8.20740741,4.26096441 8.20740741,4.00547677 C8.20740741,3.75728878 8.41481481,3.55289867 8.66666667,3.55289867" id="Fill-794"></path>
                <path d="M0,1.31920674 L0.740740741,1.31920674 L0.740740741,0.589242054 L3.7037037,0.589242054 L3.7037037,1.31920674 L2.96296296,1.31920674 L2.96296296,2.04917142 L2.22222222,2.04917142 L2.22222222,2.7791361 L1.48148148,2.7791361 L1.48148148,3.50910079 L0.740740741,3.50910079 L0.740740741,4.23906547 L0,4.23906547 L0,1.31920674" id="Fill-795"></path>
                <path d="M10.3703704,7.52390655 C10.3703704,8.53125781 9.54074074,9.34881826 8.51851852,9.34881826 C7.4962963,9.34881826 6.66666667,8.53125781 6.66666667,7.52390655 C6.66666667,6.51655528 7.4962963,5.69899484 8.51851852,5.69899484 C9.54074074,5.69899484 10.3703704,6.51655528 10.3703704,7.52390655" id="Fill-796"></path>
                <path d="M7.40740741,12.268677 L8.14814815,12.268677 L8.14814815,13.7286064 L7.40740741,13.7286064 L7.40740741,14.458571 L8.88888889,14.458571 L8.88888889,11.5387123 L7.40740741,11.5387123 L7.40740741,12.268677 L7.40740741,12.268677 Z M10.3703704,10.0787829 L10.3703704,9.34881826 L11.1111111,9.34881826 L11.1111111,8.61885357 L11.8518519,8.61885357 L11.8518519,7.88888889 L12.5925926,7.88888889 L12.5925926,7.15892421 L13.3333333,7.15892421 L13.3333333,6.42895952 L14.0740741,6.42895952 L14.0740741,5.69899484 L14.8148148,5.69899484 L14.8148148,4.96903015 L15.5555556,4.96903015 L16.2962963,5.69899484 L16.2962963,7.15892421 L15.5555556,7.15892421 L15.5555556,7.88888889 L14.8148148,7.88888889 L14.8148148,8.61885357 L14.0740741,8.61885357 L14.0740741,9.34881826 L13.3333333,9.34881826 L13.3333333,10.0787829 L12.5925926,10.0787829 L12.5925926,10.8087476 L11.8518519,10.8087476 L11.8518519,16.6484651 L6.66666667,16.6484651 L6.66666667,13.7286064 L3.7037037,13.7286064 L3.7037037,12.268677 L4.44444444,12.268677 L4.44444444,11.5387123 L5.18518519,11.5387123 L5.18518519,10.8087476 L5.92592593,10.8087476 L5.92592593,10.0787829 L10.3703704,10.0787829 L10.3703704,10.0787829 Z" id="Fill-797"></path>
            </g>
            <g id="Group" transform="translate(1.000000, 1.000000)" fill="#0A0B09" opacity="0.2" sketch:type="MSShapeGroup">
                <path d="M3.62222222,9.91819071 C3.58518519,10.1882776 3.77777778,10.4364656 4.05185185,10.4802635 C4.32592593,10.5240614 4.58518519,10.3269709 4.62222222,10.056884 C4.65925926,9.77949742 4.47407407,9.53860907 4.19259259,9.49481119 C3.91851852,9.45831296 3.65925926,9.64080413 3.62222222,9.91819071" id="Fill-773"></path>
                <path d="M4.05925926,8.7794458 C4.0962963,8.52395816 3.91851852,8.28306982 3.65925926,8.24657158 C3.39259259,8.21007335 3.14814815,8.38526487 3.11851852,8.64805216 C3.07407407,8.91083945 3.25925926,9.1371285 3.51851852,9.17362673 C3.77777778,9.21742461 4.02962963,9.03493344 4.05925926,8.7794458" id="Fill-774"></path>
                <path d="M3.05185185,6.99103233 C3.3037037,6.99103233 3.51111111,7.19542244 3.51111111,7.43631079 C3.51111111,7.68449878 3.3037037,7.88888889 3.05185185,7.88888889 C2.80740741,7.88888889 2.6,7.68449878 2.6,7.43631079 C2.6,7.19542244 2.80740741,6.99103233 3.05185185,6.99103233" id="Fill-775"></path>
                <path d="M2.51851852,5.74279272 C2.75555556,5.74279272 2.94814815,5.93258354 2.94814815,6.16617224 C2.94814815,6.39976093 2.75555556,6.58955175 2.51851852,6.58955175 C2.28148148,6.58955175 2.08888889,6.39976093 2.08888889,6.16617224 C2.08888889,5.93258354 2.28148148,5.74279272 2.51851852,5.74279272" id="Fill-776"></path>
                <path d="M1.98518519,4.49455311 C2.21481481,4.49455311 2.39259259,4.66974463 2.39259259,4.88873404 C2.39259259,5.10772344 2.21481481,5.29021462 1.98518519,5.29021462 C1.76296296,5.29021462 1.58518519,5.10772344 1.58518519,4.88873404 C1.58518519,4.66974463 1.76296296,4.49455311 1.98518519,4.49455311" id="Fill-777"></path>
                <path d="M1.45185185,3.23901385 C1.66666667,3.23901385 1.83703704,3.40690573 1.83703704,3.61859549 C1.83703704,3.8229856 1.66666667,3.99087748 1.45185185,3.99087748 C1.24444444,3.99087748 1.07407407,3.8229856 1.07407407,3.61859549 C1.07407407,3.40690573 1.24444444,3.23901385 1.45185185,3.23901385" id="Fill-778"></path>
                <path d="M5.5037037,8.10787829 C5.51851852,7.84509101 5.74814815,7.63340125 6.02222222,7.64800054 C6.3037037,7.66259984 6.51111111,7.88888889 6.4962963,8.15897582 C6.48888889,8.4363624 6.25185185,8.64075251 5.97777778,8.62615322 C5.7037037,8.61885357 5.48888889,8.38526487 5.5037037,8.10787829" id="Fill-779"></path>
                <path d="M5.21481481,6.64064928 C5.47407407,6.64064928 5.68888889,6.85233904 5.68888889,7.10782668 C5.68888889,7.37061396 5.47407407,7.57500407 5.21481481,7.57500407 C4.94814815,7.57500407 4.74074074,7.37061396 4.74074074,7.10782668 C4.74074074,6.85233904 4.94814815,6.64064928 5.21481481,6.64064928" id="Fill-780"></path>
                <path d="M4.42962963,5.64789731 C4.67407407,5.64789731 4.87407407,5.84498778 4.87407407,6.08587612 C4.87407407,6.33406411 4.67407407,6.53115458 4.42962963,6.53115458 C4.17777778,6.53115458 3.97777778,6.33406411 3.97777778,6.08587612 C3.97777778,5.84498778 4.17777778,5.64789731 4.42962963,5.64789731" id="Fill-781"></path>
                <path d="M3.63703704,4.64054605 C3.87407407,4.64054605 4.06666667,4.83033686 4.06666667,5.06392556 C4.06666667,5.29751426 3.87407407,5.48000543 3.63703704,5.48000543 C3.40740741,5.48000543 3.21481481,5.29751426 3.21481481,5.06392556 C3.21481481,4.83033686 3.40740741,4.64054605 3.63703704,4.64054605" id="Fill-782"></path>
                <path d="M2.85185185,3.64049443 C3.07407407,3.64049443 3.25925926,3.8229856 3.25925926,4.04197501 C3.25925926,4.26096441 3.07407407,4.43615594 2.85185185,4.43615594 C2.62962963,4.43615594 2.45185185,4.26096441 2.45185185,4.04197501 C2.45185185,3.8229856 2.62962963,3.64049443 2.85185185,3.64049443" id="Fill-783"></path>
                <path d="M2.06666667,2.64044281 C2.27407407,2.64044281 2.44444444,2.80833469 2.44444444,3.0127248 C2.44444444,3.22441456 2.27407407,3.38500679 2.06666667,3.38500679 C1.85925926,3.38500679 1.68888889,3.22441456 1.68888889,3.0127248 C1.68888889,2.80833469 1.85925926,2.64044281 2.06666667,2.64044281" id="Fill-784"></path>
                <path d="M6.86666667,6.00558001 C6.58518519,6.0201793 6.34814815,5.80848954 6.34074074,5.53840261 C6.32592593,5.26101603 6.54074074,5.02742733 6.82222222,5.02012768 C7.08888889,5.01282804 7.32592593,5.21721815 7.34074074,5.49460473 C7.35555556,5.75739201 7.14074074,5.99098071 6.86666667,6.00558001" id="Fill-785"></path>
                <path d="M6.26666667,4.72084216 C6.28148148,4.96903015 6.08148148,5.18071991 5.82222222,5.19531921 C5.56296296,5.20261885 5.34074074,5.01282804 5.32592593,4.7573404 C5.31851852,4.50185276 5.51851852,4.290163 5.77777778,4.27556371 C6.02962963,4.26096441 6.25185185,4.45805488 6.26666667,4.72084216" id="Fill-786"></path>
                <path d="M5.19259259,3.9470796 C5.20740741,4.1806683 5.02222222,4.37775876 4.77777778,4.39235805 C4.54074074,4.3996577 4.32592593,4.21716653 4.31851852,3.98357783 C4.3037037,3.74268949 4.4962963,3.53829938 4.74074074,3.53099973 C4.97777778,3.51640043 5.18518519,3.69889161 5.19259259,3.9470796" id="Fill-787"></path>
                <path d="M3.71851852,2.78643575 C3.94074074,2.78643575 4.12592593,2.96162728 4.12592593,3.18791633 C4.12592593,3.40690573 3.94074074,3.5893969 3.71851852,3.5893969 C3.4962963,3.5893969 3.31111111,3.40690573 3.31111111,3.18791633 C3.31111111,2.96162728 3.4962963,2.78643575 3.71851852,2.78643575" id="Fill-788"></path>
                <path d="M2.68148148,2.04187177 C2.88888889,2.04187177 3.05925926,2.202464 3.05925926,2.41415376 C3.05925926,2.61854387 2.88888889,2.78643575 2.68148148,2.78643575 C2.46666667,2.78643575 2.3037037,2.61854387 2.3037037,2.41415376 C2.3037037,2.202464 2.46666667,2.04187177 2.68148148,2.04187177" id="Fill-789"></path>
                <path d="M3.28888889,1.43600109 C3.5037037,1.43600109 3.66666667,1.60389296 3.66666667,1.80828308 C3.66666667,2.01267319 3.5037037,2.18056506 3.28888889,2.18056506 C3.08148148,2.18056506 2.91111111,2.01267319 2.91111111,1.80828308 C2.91111111,1.60389296 3.08148148,1.43600109 3.28888889,1.43600109" id="Fill-790"></path>
                <path d="M4.63703704,1.96157566 C4.85925926,1.96157566 5.03703704,2.13676718 5.03703704,2.35575659 C5.03703704,2.57474599 4.85925926,2.75723716 4.63703704,2.75723716 C4.41481481,2.75723716 4.23703704,2.57474599 4.23703704,2.35575659 C4.23703704,2.13676718 4.41481481,1.96157566 4.63703704,1.96157566" id="Fill-791"></path>
                <path d="M5.97777778,2.48715023 C6.21481481,2.48715023 6.4,2.67694105 6.4,2.9032301 C6.4,3.1368188 6.21481481,3.32660962 5.97777778,3.32660962 C5.74814815,3.32660962 5.55555556,3.1368188 5.55555556,2.9032301 C5.55555556,2.67694105 5.74814815,2.48715023 5.97777778,2.48715023" id="Fill-792"></path>
                <path d="M7.31851852,3.02002445 C7.56296296,3.02002445 7.76296296,3.21711491 7.76296296,3.45800326 C7.76296296,3.69889161 7.56296296,3.88868242 7.31851852,3.88868242 C7.08148148,3.88868242 6.88148148,3.69889161 6.88148148,3.45800326 C6.88148148,3.21711491 7.08148148,3.02002445 7.31851852,3.02002445" id="Fill-793"></path>
                <path d="M8.66666667,3.55289867 C8.92592593,3.55289867 9.12592593,3.75728878 9.12592593,4.00547677 C9.12592593,4.26096441 8.92592593,4.46535452 8.66666667,4.46535452 C8.41481481,4.46535452 8.20740741,4.26096441 8.20740741,4.00547677 C8.20740741,3.75728878 8.41481481,3.55289867 8.66666667,3.55289867" id="Fill-794"></path>
                <path d="M0,1.31920674 L0.740740741,1.31920674 L0.740740741,0.589242054 L3.7037037,0.589242054 L3.7037037,1.31920674 L2.96296296,1.31920674 L2.96296296,2.04917142 L2.22222222,2.04917142 L2.22222222,2.7791361 L1.48148148,2.7791361 L1.48148148,3.50910079 L0.740740741,3.50910079 L0.740740741,4.23906547 L0,4.23906547 L0,1.31920674" id="Fill-795"></path>
                <path d="M10.3703704,7.52390655 C10.3703704,8.53125781 9.54074074,9.34881826 8.51851852,9.34881826 C7.4962963,9.34881826 6.66666667,8.53125781 6.66666667,7.52390655 C6.66666667,6.51655528 7.4962963,5.69899484 8.51851852,5.69899484 C9.54074074,5.69899484 10.3703704,6.51655528 10.3703704,7.52390655" id="Fill-796"></path>
                <path d="M7.40740741,12.268677 L8.14814815,12.268677 L8.14814815,13.7286064 L7.40740741,13.7286064 L7.40740741,14.458571 L8.88888889,14.458571 L8.88888889,11.5387123 L7.40740741,11.5387123 L7.40740741,12.268677 L7.40740741,12.268677 Z M10.3703704,10.0787829 L10.3703704,9.34881826 L11.1111111,9.34881826 L11.1111111,8.61885357 L11.8518519,8.61885357 L11.8518519,7.88888889 L12.5925926,7.88888889 L12.5925926,7.15892421 L13.3333333,7.15892421 L13.3333333,6.42895952 L14.0740741,6.42895952 L14.0740741,5.69899484 L14.8148148,5.69899484 L14.8148148,4.96903015 L15.5555556,4.96903015 L16.2962963,5.69899484 L16.2962963,7.15892421 L15.5555556,7.15892421 L15.5555556,7.88888889 L14.8148148,7.88888889 L14.8148148,8.61885357 L14.0740741,8.61885357 L14.0740741,9.34881826 L13.3333333,9.34881826 L13.3333333,10.0787829 L12.5925926,10.0787829 L12.5925926,10.8087476 L11.8518519,10.8087476 L11.8518519,16.6484651 L6.66666667,16.6484651 L6.66666667,13.7286064 L3.7037037,13.7286064 L3.7037037,12.268677 L4.44444444,12.268677 L4.44444444,11.5387123 L5.18518519,11.5387123 L5.18518519,10.8087476 L5.92592593,10.8087476 L5.92592593,10.0787829 L10.3703704,10.0787829 L10.3703704,10.0787829 Z" id="Fill-797"></path>
            </g>
            <g id="Group" fill="#FFFFFF" sketch:type="MSShapeGroup">
                <path d="M3.62222222,9.91819071 C3.58518519,10.1882776 3.77777778,10.4364656 4.05185185,10.4802635 C4.32592593,10.5240614 4.58518519,10.3269709 4.62222222,10.056884 C4.65925926,9.77949742 4.47407407,9.53860907 4.19259259,9.49481119 C3.91851852,9.45831296 3.65925926,9.64080413 3.62222222,9.91819071" id="Fill-773"></path>
                <path d="M4.05925926,8.7794458 C4.0962963,8.52395816 3.91851852,8.28306982 3.65925926,8.24657158 C3.39259259,8.21007335 3.14814815,8.38526487 3.11851852,8.64805216 C3.07407407,8.91083945 3.25925926,9.1371285 3.51851852,9.17362673 C3.77777778,9.21742461 4.02962963,9.03493344 4.05925926,8.7794458" id="Fill-774"></path>
                <path d="M3.05185185,6.99103233 C3.3037037,6.99103233 3.51111111,7.19542244 3.51111111,7.43631079 C3.51111111,7.68449878 3.3037037,7.88888889 3.05185185,7.88888889 C2.80740741,7.88888889 2.6,7.68449878 2.6,7.43631079 C2.6,7.19542244 2.80740741,6.99103233 3.05185185,6.99103233" id="Fill-775"></path>
                <path d="M2.51851852,5.74279272 C2.75555556,5.74279272 2.94814815,5.93258354 2.94814815,6.16617224 C2.94814815,6.39976093 2.75555556,6.58955175 2.51851852,6.58955175 C2.28148148,6.58955175 2.08888889,6.39976093 2.08888889,6.16617224 C2.08888889,5.93258354 2.28148148,5.74279272 2.51851852,5.74279272" id="Fill-776"></path>
                <path d="M1.98518519,4.49455311 C2.21481481,4.49455311 2.39259259,4.66974463 2.39259259,4.88873404 C2.39259259,5.10772344 2.21481481,5.29021462 1.98518519,5.29021462 C1.76296296,5.29021462 1.58518519,5.10772344 1.58518519,4.88873404 C1.58518519,4.66974463 1.76296296,4.49455311 1.98518519,4.49455311" id="Fill-777"></path>
                <path d="M1.45185185,3.23901385 C1.66666667,3.23901385 1.83703704,3.40690573 1.83703704,3.61859549 C1.83703704,3.8229856 1.66666667,3.99087748 1.45185185,3.99087748 C1.24444444,3.99087748 1.07407407,3.8229856 1.07407407,3.61859549 C1.07407407,3.40690573 1.24444444,3.23901385 1.45185185,3.23901385" id="Fill-778"></path>
                <path d="M5.5037037,8.10787829 C5.51851852,7.84509101 5.74814815,7.63340125 6.02222222,7.64800054 C6.3037037,7.66259984 6.51111111,7.88888889 6.4962963,8.15897582 C6.48888889,8.4363624 6.25185185,8.64075251 5.97777778,8.62615322 C5.7037037,8.61885357 5.48888889,8.38526487 5.5037037,8.10787829" id="Fill-779"></path>
                <path d="M5.21481481,6.64064928 C5.47407407,6.64064928 5.68888889,6.85233904 5.68888889,7.10782668 C5.68888889,7.37061396 5.47407407,7.57500407 5.21481481,7.57500407 C4.94814815,7.57500407 4.74074074,7.37061396 4.74074074,7.10782668 C4.74074074,6.85233904 4.94814815,6.64064928 5.21481481,6.64064928" id="Fill-780"></path>
                <path d="M4.42962963,5.64789731 C4.67407407,5.64789731 4.87407407,5.84498778 4.87407407,6.08587612 C4.87407407,6.33406411 4.67407407,6.53115458 4.42962963,6.53115458 C4.17777778,6.53115458 3.97777778,6.33406411 3.97777778,6.08587612 C3.97777778,5.84498778 4.17777778,5.64789731 4.42962963,5.64789731" id="Fill-781"></path>
                <path d="M3.63703704,4.64054605 C3.87407407,4.64054605 4.06666667,4.83033686 4.06666667,5.06392556 C4.06666667,5.29751426 3.87407407,5.48000543 3.63703704,5.48000543 C3.40740741,5.48000543 3.21481481,5.29751426 3.21481481,5.06392556 C3.21481481,4.83033686 3.40740741,4.64054605 3.63703704,4.64054605" id="Fill-782"></path>
                <path d="M2.85185185,3.64049443 C3.07407407,3.64049443 3.25925926,3.8229856 3.25925926,4.04197501 C3.25925926,4.26096441 3.07407407,4.43615594 2.85185185,4.43615594 C2.62962963,4.43615594 2.45185185,4.26096441 2.45185185,4.04197501 C2.45185185,3.8229856 2.62962963,3.64049443 2.85185185,3.64049443" id="Fill-783"></path>
                <path d="M2.06666667,2.64044281 C2.27407407,2.64044281 2.44444444,2.80833469 2.44444444,3.0127248 C2.44444444,3.22441456 2.27407407,3.38500679 2.06666667,3.38500679 C1.85925926,3.38500679 1.68888889,3.22441456 1.68888889,3.0127248 C1.68888889,2.80833469 1.85925926,2.64044281 2.06666667,2.64044281" id="Fill-784"></path>
                <path d="M6.86666667,6.00558001 C6.58518519,6.0201793 6.34814815,5.80848954 6.34074074,5.53840261 C6.32592593,5.26101603 6.54074074,5.02742733 6.82222222,5.02012768 C7.08888889,5.01282804 7.32592593,5.21721815 7.34074074,5.49460473 C7.35555556,5.75739201 7.14074074,5.99098071 6.86666667,6.00558001" id="Fill-785"></path>
                <path d="M6.26666667,4.72084216 C6.28148148,4.96903015 6.08148148,5.18071991 5.82222222,5.19531921 C5.56296296,5.20261885 5.34074074,5.01282804 5.32592593,4.7573404 C5.31851852,4.50185276 5.51851852,4.290163 5.77777778,4.27556371 C6.02962963,4.26096441 6.25185185,4.45805488 6.26666667,4.72084216" id="Fill-786"></path>
                <path d="M5.19259259,3.9470796 C5.20740741,4.1806683 5.02222222,4.37775876 4.77777778,4.39235805 C4.54074074,4.3996577 4.32592593,4.21716653 4.31851852,3.98357783 C4.3037037,3.74268949 4.4962963,3.53829938 4.74074074,3.53099973 C4.97777778,3.51640043 5.18518519,3.69889161 5.19259259,3.9470796" id="Fill-787"></path>
                <path d="M3.71851852,2.78643575 C3.94074074,2.78643575 4.12592593,2.96162728 4.12592593,3.18791633 C4.12592593,3.40690573 3.94074074,3.5893969 3.71851852,3.5893969 C3.4962963,3.5893969 3.31111111,3.40690573 3.31111111,3.18791633 C3.31111111,2.96162728 3.4962963,2.78643575 3.71851852,2.78643575" id="Fill-788"></path>
                <path d="M2.68148148,2.04187177 C2.88888889,2.04187177 3.05925926,2.202464 3.05925926,2.41415376 C3.05925926,2.61854387 2.88888889,2.78643575 2.68148148,2.78643575 C2.46666667,2.78643575 2.3037037,2.61854387 2.3037037,2.41415376 C2.3037037,2.202464 2.46666667,2.04187177 2.68148148,2.04187177" id="Fill-789"></path>
                <path d="M3.28888889,1.43600109 C3.5037037,1.43600109 3.66666667,1.60389296 3.66666667,1.80828308 C3.66666667,2.01267319 3.5037037,2.18056506 3.28888889,2.18056506 C3.08148148,2.18056506 2.91111111,2.01267319 2.91111111,1.80828308 C2.91111111,1.60389296 3.08148148,1.43600109 3.28888889,1.43600109" id="Fill-790"></path>
                <path d="M4.63703704,1.96157566 C4.85925926,1.96157566 5.03703704,2.13676718 5.03703704,2.35575659 C5.03703704,2.57474599 4.85925926,2.75723716 4.63703704,2.75723716 C4.41481481,2.75723716 4.23703704,2.57474599 4.23703704,2.35575659 C4.23703704,2.13676718 4.41481481,1.96157566 4.63703704,1.96157566" id="Fill-791"></path>
                <path d="M5.97777778,2.48715023 C6.21481481,2.48715023 6.4,2.67694105 6.4,2.9032301 C6.4,3.1368188 6.21481481,3.32660962 5.97777778,3.32660962 C5.74814815,3.32660962 5.55555556,3.1368188 5.55555556,2.9032301 C5.55555556,2.67694105 5.74814815,2.48715023 5.97777778,2.48715023" id="Fill-792"></path>
                <path d="M7.31851852,3.02002445 C7.56296296,3.02002445 7.76296296,3.21711491 7.76296296,3.45800326 C7.76296296,3.69889161 7.56296296,3.88868242 7.31851852,3.88868242 C7.08148148,3.88868242 6.88148148,3.69889161 6.88148148,3.45800326 C6.88148148,3.21711491 7.08148148,3.02002445 7.31851852,3.02002445" id="Fill-793"></path>
                <path d="M8.66666667,3.55289867 C8.92592593,3.55289867 9.12592593,3.75728878 9.12592593,4.00547677 C9.12592593,4.26096441 8.92592593,4.46535452 8.66666667,4.46535452 C8.41481481,4.46535452 8.20740741,4.26096441 8.20740741,4.00547677 C8.20740741,3.75728878 8.41481481,3.55289867 8.66666667,3.55289867" id="Fill-794"></path>
                <path d="M0,1.31920674 L0.740740741,1.31920674 L0.740740741,0.589242054 L3.7037037,0.589242054 L3.7037037,1.31920674 L2.96296296,1.31920674 L2.96296296,2.04917142 L2.22222222,2.04917142 L2.22222222,2.7791361 L1.48148148,2.7791361 L1.48148148,3.50910079 L0.740740741,3.50910079 L0.740740741,4.23906547 L0,4.23906547 L0,1.31920674" id="Fill-795"></path>
                <path d="M10.3703704,7.52390655 C10.3703704,8.53125781 9.54074074,9.34881826 8.51851852,9.34881826 C7.4962963,9.34881826 6.66666667,8.53125781 6.66666667,7.52390655 C6.66666667,6.51655528 7.4962963,5.69899484 8.51851852,5.69899484 C9.54074074,5.69899484 10.3703704,6.51655528 10.3703704,7.52390655" id="Fill-796"></path>
                <path d="M7.40740741,12.268677 L8.14814815,12.268677 L8.14814815,13.7286064 L7.40740741,13.7286064 L7.40740741,14.458571 L8.88888889,14.458571 L8.88888889,11.5387123 L7.40740741,11.5387123 L7.40740741,12.268677 L7.40740741,12.268677 Z M10.3703704,10.0787829 L10.3703704,9.34881826 L11.1111111,9.34881826 L11.1111111,8.61885357 L11.8518519,8.61885357 L11.8518519,7.88888889 L12.5925926,7.88888889 L12.5925926,7.15892421 L13.3333333,7.15892421 L13.3333333,6.42895952 L14.0740741,6.42895952 L14.0740741,5.69899484 L14.8148148,5.69899484 L14.8148148,4.96903015 L15.5555556,4.96903015 L16.2962963,5.69899484 L16.2962963,7.15892421 L15.5555556,7.15892421 L15.5555556,7.88888889 L14.8148148,7.88888889 L14.8148148,8.61885357 L14.0740741,8.61885357 L14.0740741,9.34881826 L13.3333333,9.34881826 L13.3333333,10.0787829 L12.5925926,10.0787829 L12.5925926,10.8087476 L11.8518519,10.8087476 L11.8518519,16.6484651 L6.66666667,16.6484651 L6.66666667,13.7286064 L3.7037037,13.7286064 L3.7037037,12.268677 L4.44444444,12.268677 L4.44444444,11.5387123 L5.18518519,11.5387123 L5.18518519,10.8087476 L5.92592593,10.8087476 L5.92592593,10.0787829 L10.3703704,10.0787829 L10.3703704,10.0787829 Z" id="Fill-797"></path>
            </g>
        </g>
    </g>
</svg>