<?xml version="1.0" encoding="UTF-8" standalone="no"?>
<svg width="12px" height="12px" viewBox="0 0 12 12" version="1.1" xmlns="http://www.w3.org/2000/svg" xmlns:xlink="http://www.w3.org/1999/xlink" xmlns:sketch="http://www.bohemiancoding.com/sketch/ns">
    <!-- Generator: Sketch 3.2.2 (9983) - http://www.bohemiancoding.com/sketch -->
    <title>showers-black-12</title>
    <desc>Created with Sketch.</desc>
    <defs></defs>
    <g id="Page-1" stroke="none" stroke-width="1" fill="none" fill-rule="evenodd" sketch:type="MSPage">
        <g id="Group" sketch:type="MSLayerGroup" transform="translate(2.000000, 1.800049)" fill-opacity="0.1" fill="#0A0B09">
            <path d="M2.12470588,5.37129341 C2.10352941,5.51333198 2.20235294,5.64826862 2.34352941,5.66957441 C2.48470588,5.69088019 2.61882353,5.58435127 2.63294118,5.44941463 C2.65411765,5.30027413 2.55529412,5.17243942 2.41411765,5.15113363 C2.27294118,5.12982785 2.13882353,5.22925485 2.12470588,5.37129341" id="Fill-1001" sketch:type="MSShapeGroup"></path>
            <path d="M2.34352941,4.78183336 C2.36470588,4.63979479 2.27294118,4.51906201 2.13882353,4.49775622 C2.00470588,4.47645044 1.87764706,4.56877551 1.86352941,4.70371215 C1.84235294,4.84575071 1.93411765,4.9664835 2.06823529,4.98778928 C2.20235294,5.00909507 2.32941176,4.90966807 2.34352941,4.78183336" id="Fill-1002" sketch:type="MSShapeGroup"></path>
            <path d="M1.82823529,3.84437881 C1.96235294,3.84437881 2.06117647,3.94380581 2.06117647,4.07874245 C2.06117647,4.20657716 1.96235294,4.30600416 1.82823529,4.30600416 C1.70117647,4.30600416 1.59529412,4.20657716 1.59529412,4.07874245 C1.59529412,3.94380581 1.70117647,3.84437881 1.82823529,3.84437881" id="Fill-1003" sketch:type="MSShapeGroup"></path>
            <path d="M1.56,3.18389947 C1.68,3.18389947 1.77882353,3.28332647 1.77882353,3.41116118 C1.77882353,3.53189397 1.68,3.63132096 1.56,3.63132096 C1.43294118,3.63132096 1.33411765,3.53189397 1.33411765,3.41116118 C1.33411765,3.28332647 1.43294118,3.18389947 1.56,3.18389947" id="Fill-1004" sketch:type="MSShapeGroup"></path>
            <path d="M1.28470588,2.53052206 C1.39764706,2.53052206 1.48941176,2.62284713 1.48941176,2.74357992 C1.48941176,2.85721077 1.39764706,2.94953584 1.28470588,2.94953584 C1.17176471,2.94953584 1.07294118,2.85721077 1.07294118,2.74357992 C1.07294118,2.62284713 1.17176471,2.53052206 1.28470588,2.53052206" id="Fill-1005" sketch:type="MSShapeGroup"></path>
            <path d="M1.00941176,1.87714465 C1.11529412,1.87714465 1.20705882,1.96236779 1.20705882,2.07599865 C1.20705882,2.18252757 1.11529412,2.26775071 1.00941176,2.26775071 C0.903529412,2.26775071 0.811764706,2.18252757 0.811764706,2.07599865 C0.811764706,1.96236779 0.903529412,1.87714465 1.00941176,1.87714465" id="Fill-1006" sketch:type="MSShapeGroup"></path>
            <path d="M3.08470588,4.42673694 C3.09176471,4.28469837 3.21176471,4.17816945 3.35294118,4.18527138 C3.49411765,4.1923733 3.6,4.31310609 3.59294118,4.45514465 C3.59294118,4.59718322 3.47294118,4.70371215 3.33176471,4.69661022 C3.19058824,4.68950829 3.07764706,4.56877551 3.08470588,4.42673694" id="Fill-1007" sketch:type="MSShapeGroup"></path>
            <path d="M2.93647059,3.65972868 C3.07058824,3.65972868 3.18352941,3.7662576 3.18352941,3.90119424 C3.18352941,4.03613088 3.07058824,4.14976173 2.93647059,4.14976173 C2.80235294,4.14976173 2.69647059,4.03613088 2.69647059,3.90119424 C2.69647059,3.7662576 2.80235294,3.65972868 2.93647059,3.65972868" id="Fill-1008" sketch:type="MSShapeGroup"></path>
            <path d="M2.53411765,3.13418598 C2.66117647,3.13418598 2.76705882,3.2407149 2.76705882,3.36854961 C2.76705882,3.49638432 2.66117647,3.59581132 2.53411765,3.59581132 C2.40705882,3.59581132 2.30117647,3.49638432 2.30117647,3.36854961 C2.30117647,3.2407149 2.40705882,3.13418598 2.53411765,3.13418598" id="Fill-1009" sketch:type="MSShapeGroup"></path>
            <path d="M2.13176471,2.60864328 C2.25176471,2.60864328 2.35058824,2.70807027 2.35058824,2.82880306 C2.35058824,2.94953584 2.25176471,3.04896284 2.13176471,3.04896284 C2.01176471,3.04896284 1.91294118,2.94953584 1.91294118,2.82880306 C1.91294118,2.70807027 2.01176471,2.60864328 2.13176471,2.60864328" id="Fill-1010" sketch:type="MSShapeGroup"></path>
            <path d="M1.72941176,2.09020251 C1.84235294,2.09020251 1.93411765,2.18252757 1.93411765,2.29615843 C1.93411765,2.40978928 1.84235294,2.50211435 1.72941176,2.50211435 C1.61647059,2.50211435 1.51764706,2.40978928 1.51764706,2.29615843 C1.51764706,2.18252757 1.61647059,2.09020251 1.72941176,2.09020251" id="Fill-1011" sketch:type="MSShapeGroup"></path>
            <path d="M1.32,1.56465981 C1.43294118,1.56465981 1.51764706,1.64988295 1.51764706,1.75641187 C1.51764706,1.87004273 1.43294118,1.95526587 1.32,1.95526587 C1.21411765,1.95526587 1.12941176,1.87004273 1.12941176,1.75641187 C1.12941176,1.64988295 1.21411765,1.56465981 1.32,1.56465981" id="Fill-1012" sketch:type="MSShapeGroup"></path>
            <path d="M3.78352941,3.32593804 C3.64235294,3.33303997 3.52235294,3.21940912 3.51529412,3.07737055 C3.50823529,2.93533198 3.62117647,2.8145992 3.76235294,2.80749727 C3.90352941,2.80039534 4.02352941,2.9140262 4.03058824,3.05606476 C4.03764706,3.19810333 3.92470588,3.31883611 3.78352941,3.32593804" id="Fill-1013" sketch:type="MSShapeGroup"></path>
            <path d="M3.48,2.65125485 C3.48705882,2.77908956 3.38117647,2.89272041 3.24705882,2.89982234 C3.12,2.90692427 3,2.80749727 3,2.67256063 C2.99294118,2.53762399 3.09176471,2.42399314 3.22588235,2.41689121 C3.36,2.40978928 3.47294118,2.51631821 3.48,2.65125485" id="Fill-1014" sketch:type="MSShapeGroup"></path>
            <path d="M2.92941176,2.24644493 C2.93647059,2.36717771 2.83764706,2.47370664 2.71764706,2.48080857 C2.59058824,2.48080857 2.48470588,2.3884835 2.47764706,2.26775071 C2.47058824,2.139916 2.56941176,2.03338708 2.69647059,2.02628515 C2.81647059,2.01918322 2.92235294,2.11861022 2.92941176,2.24644493" id="Fill-1015" sketch:type="MSShapeGroup"></path>
            <path d="M2.17411765,1.63567909 C2.28705882,1.63567909 2.37882353,1.73510609 2.37882353,1.84873694 C2.37882353,1.96236779 2.28705882,2.06179479 2.17411765,2.06179479 C2.05411765,2.06179479 1.96235294,1.96236779 1.96235294,1.84873694 C1.96235294,1.73510609 2.05411765,1.63567909 2.17411765,1.63567909" id="Fill-1016" sketch:type="MSShapeGroup"></path>
            <path d="M1.63764706,1.24507303 C1.74352941,1.24507303 1.83529412,1.3373981 1.83529412,1.44392702 C1.83529412,1.55045595 1.74352941,1.63567909 1.63764706,1.63567909 C1.53176471,1.63567909 1.44705882,1.55045595 1.44705882,1.44392702 C1.44705882,1.3373981 1.53176471,1.24507303 1.63764706,1.24507303" id="Fill-1017" sketch:type="MSShapeGroup"></path>
            <path d="M1.94823529,0.93258818 C2.06117647,0.93258818 2.14588235,1.01781132 2.14588235,1.12434025 C2.14588235,1.2379711 2.06117647,1.32319424 1.94823529,1.32319424 C1.84235294,1.32319424 1.75764706,1.2379711 1.75764706,1.12434025 C1.75764706,1.01781132 1.84235294,0.93258818 1.94823529,0.93258818" id="Fill-1018" sketch:type="MSShapeGroup"></path>
            <path d="M2.64,1.20956339 C2.75294118,1.20956339 2.84470588,1.30188846 2.84470588,1.41551931 C2.84470588,1.52915016 2.75294118,1.62147523 2.64,1.62147523 C2.52705882,1.62147523 2.43529412,1.52915016 2.43529412,1.41551931 C2.43529412,1.30188846 2.52705882,1.20956339 2.64,1.20956339" id="Fill-1019" sketch:type="MSShapeGroup"></path>
            <path d="M3.33176471,1.48653859 C3.45176471,1.48653859 3.55058824,1.57886366 3.55058824,1.69959644 C3.55058824,1.82032923 3.45176471,1.91975622 3.33176471,1.91975622 C3.21176471,1.91975622 3.11294118,1.82032923 3.11294118,1.69959644 C3.11294118,1.57886366 3.21176471,1.48653859 3.33176471,1.48653859" id="Fill-1020" sketch:type="MSShapeGroup"></path>
            <path d="M4.01647059,1.7635138 C4.14352941,1.7635138 4.24235294,1.8629408 4.24235294,1.99077551 C4.24235294,2.11861022 4.14352941,2.21803722 4.01647059,2.21803722 C3.89647059,2.21803722 3.79058824,2.11861022 3.79058824,1.99077551 C3.79058824,1.8629408 3.89647059,1.7635138 4.01647059,1.7635138" id="Fill-1021" sketch:type="MSShapeGroup"></path>
            <path d="M4.70823529,2.04048901 C4.84235294,2.04048901 4.94823529,2.14701793 4.94823529,2.27485264 C4.94823529,2.40978928 4.84235294,2.51631821 4.70823529,2.51631821 C4.58117647,2.51631821 4.47529412,2.40978928 4.47529412,2.27485264 C4.47529412,2.14701793 4.58117647,2.04048901 4.70823529,2.04048901" id="Fill-1022" sketch:type="MSShapeGroup"></path>
            <path d="M5.4,2.31746421 C5.53411765,2.31746421 5.64705882,2.43109507 5.64705882,2.56603171 C5.64705882,2.70096835 5.53411765,2.8145992 5.4,2.8145992 C5.25882353,2.8145992 5.15294118,2.70096835 5.15294118,2.56603171 C5.15294118,2.43109507 5.25882353,2.31746421 5.4,2.31746421" id="Fill-1023" sketch:type="MSShapeGroup"></path>
            <path d="M0,0.272108841 L2.11764706,0.272108841 L2.11764706,0.982301679 L1.41176471,0.982301679 L1.41176471,1.69249452 L0.705882353,1.69249452 L0.705882353,2.40268735 L0,2.40268735 L0,0.272108841" id="Fill-1024" sketch:type="MSShapeGroup"></path>
            <path d="M5.64705882,7.37403722 L6.35294118,7.37403722 L6.35294118,8.08423005 L5.64705882,8.08423005 L5.64705882,8.79442289 L7.05882353,8.79442289 L7.05882353,6.66384438 L5.64705882,6.66384438 L5.64705882,7.37403722 L5.64705882,7.37403722 Z M7.05882353,5.95365154 L7.05882353,5.2434587 L7.76470588,5.2434587 L7.76470588,4.53326587 L8.47058824,4.53326587 L8.47058824,3.82307303 L9.88235294,3.82307303 L9.88235294,4.53326587 L9.17647059,4.53326587 L9.17647059,5.2434587 L8.47058824,5.2434587 L8.47058824,5.95365154 L7.76470588,5.95365154 L7.76470588,10.2148086 L4.94117647,10.2148086 L4.94117647,8.08423005 L2.82352941,8.08423005 L4.94117647,5.95365154 L7.05882353,5.95365154 L7.05882353,5.95365154 Z" id="Fill-1025" sketch:type="MSShapeGroup"></path>
            <path d="M7.05882353,4.17816945 C7.05882353,4.7676295 6.58588235,5.2434587 6,5.2434587 C5.41411765,5.2434587 4.94117647,4.7676295 4.94117647,4.17816945 C4.94117647,3.58870939 5.41411765,3.11288019 6,3.11288019 C6.58588235,3.11288019 7.05882353,3.58870939 7.05882353,4.17816945" id="Fill-1026" sketch:type="MSShapeGroup"></path>
        </g>
        <g id="Group" sketch:type="MSLayerGroup" transform="translate(1.000000, 0.800049)" fill="#0A0B09" opacity="0.2">
            <path d="M2.12470588,5.37129341 C2.10352941,5.51333198 2.20235294,5.64826862 2.34352941,5.66957441 C2.48470588,5.69088019 2.61882353,5.58435127 2.63294118,5.44941463 C2.65411765,5.30027413 2.55529412,5.17243942 2.41411765,5.15113363 C2.27294118,5.12982785 2.13882353,5.22925485 2.12470588,5.37129341" id="Fill-1001" sketch:type="MSShapeGroup"></path>
            <path d="M2.34352941,4.78183336 C2.36470588,4.63979479 2.27294118,4.51906201 2.13882353,4.49775622 C2.00470588,4.47645044 1.87764706,4.56877551 1.86352941,4.70371215 C1.84235294,4.84575071 1.93411765,4.9664835 2.06823529,4.98778928 C2.20235294,5.00909507 2.32941176,4.90966807 2.34352941,4.78183336" id="Fill-1002" sketch:type="MSShapeGroup"></path>
            <path d="M1.82823529,3.84437881 C1.96235294,3.84437881 2.06117647,3.94380581 2.06117647,4.07874245 C2.06117647,4.20657716 1.96235294,4.30600416 1.82823529,4.30600416 C1.70117647,4.30600416 1.59529412,4.20657716 1.59529412,4.07874245 C1.59529412,3.94380581 1.70117647,3.84437881 1.82823529,3.84437881" id="Fill-1003" sketch:type="MSShapeGroup"></path>
            <path d="M1.56,3.18389947 C1.68,3.18389947 1.77882353,3.28332647 1.77882353,3.41116118 C1.77882353,3.53189397 1.68,3.63132096 1.56,3.63132096 C1.43294118,3.63132096 1.33411765,3.53189397 1.33411765,3.41116118 C1.33411765,3.28332647 1.43294118,3.18389947 1.56,3.18389947" id="Fill-1004" sketch:type="MSShapeGroup"></path>
            <path d="M1.28470588,2.53052206 C1.39764706,2.53052206 1.48941176,2.62284713 1.48941176,2.74357992 C1.48941176,2.85721077 1.39764706,2.94953584 1.28470588,2.94953584 C1.17176471,2.94953584 1.07294118,2.85721077 1.07294118,2.74357992 C1.07294118,2.62284713 1.17176471,2.53052206 1.28470588,2.53052206" id="Fill-1005" sketch:type="MSShapeGroup"></path>
            <path d="M1.00941176,1.87714465 C1.11529412,1.87714465 1.20705882,1.96236779 1.20705882,2.07599865 C1.20705882,2.18252757 1.11529412,2.26775071 1.00941176,2.26775071 C0.903529412,2.26775071 0.811764706,2.18252757 0.811764706,2.07599865 C0.811764706,1.96236779 0.903529412,1.87714465 1.00941176,1.87714465" id="Fill-1006" sketch:type="MSShapeGroup"></path>
            <path d="M3.08470588,4.42673694 C3.09176471,4.28469837 3.21176471,4.17816945 3.35294118,4.18527138 C3.49411765,4.1923733 3.6,4.31310609 3.59294118,4.45514465 C3.59294118,4.59718322 3.47294118,4.70371215 3.33176471,4.69661022 C3.19058824,4.68950829 3.07764706,4.56877551 3.08470588,4.42673694" id="Fill-1007" sketch:type="MSShapeGroup"></path>
            <path d="M2.93647059,3.65972868 C3.07058824,3.65972868 3.18352941,3.7662576 3.18352941,3.90119424 C3.18352941,4.03613088 3.07058824,4.14976173 2.93647059,4.14976173 C2.80235294,4.14976173 2.69647059,4.03613088 2.69647059,3.90119424 C2.69647059,3.7662576 2.80235294,3.65972868 2.93647059,3.65972868" id="Fill-1008" sketch:type="MSShapeGroup"></path>
            <path d="M2.53411765,3.13418598 C2.66117647,3.13418598 2.76705882,3.2407149 2.76705882,3.36854961 C2.76705882,3.49638432 2.66117647,3.59581132 2.53411765,3.59581132 C2.40705882,3.59581132 2.30117647,3.49638432 2.30117647,3.36854961 C2.30117647,3.2407149 2.40705882,3.13418598 2.53411765,3.13418598" id="Fill-1009" sketch:type="MSShapeGroup"></path>
            <path d="M2.13176471,2.60864328 C2.25176471,2.60864328 2.35058824,2.70807027 2.35058824,2.82880306 C2.35058824,2.94953584 2.25176471,3.04896284 2.13176471,3.04896284 C2.01176471,3.04896284 1.91294118,2.94953584 1.91294118,2.82880306 C1.91294118,2.70807027 2.01176471,2.60864328 2.13176471,2.60864328" id="Fill-1010" sketch:type="MSShapeGroup"></path>
            <path d="M1.72941176,2.09020251 C1.84235294,2.09020251 1.93411765,2.18252757 1.93411765,2.29615843 C1.93411765,2.40978928 1.84235294,2.50211435 1.72941176,2.50211435 C1.61647059,2.50211435 1.51764706,2.40978928 1.51764706,2.29615843 C1.51764706,2.18252757 1.61647059,2.09020251 1.72941176,2.09020251" id="Fill-1011" sketch:type="MSShapeGroup"></path>
            <path d="M1.32,1.56465981 C1.43294118,1.56465981 1.51764706,1.64988295 1.51764706,1.75641187 C1.51764706,1.87004273 1.43294118,1.95526587 1.32,1.95526587 C1.21411765,1.95526587 1.12941176,1.87004273 1.12941176,1.75641187 C1.12941176,1.64988295 1.21411765,1.56465981 1.32,1.56465981" id="Fill-1012" sketch:type="MSShapeGroup"></path>
            <path d="M3.78352941,3.32593804 C3.64235294,3.33303997 3.52235294,3.21940912 3.51529412,3.07737055 C3.50823529,2.93533198 3.62117647,2.8145992 3.76235294,2.80749727 C3.90352941,2.80039534 4.02352941,2.9140262 4.03058824,3.05606476 C4.03764706,3.19810333 3.92470588,3.31883611 3.78352941,3.32593804" id="Fill-1013" sketch:type="MSShapeGroup"></path>
            <path d="M3.48,2.65125485 C3.48705882,2.77908956 3.38117647,2.89272041 3.24705882,2.89982234 C3.12,2.90692427 3,2.80749727 3,2.67256063 C2.99294118,2.53762399 3.09176471,2.42399314 3.22588235,2.41689121 C3.36,2.40978928 3.47294118,2.51631821 3.48,2.65125485" id="Fill-1014" sketch:type="MSShapeGroup"></path>
            <path d="M2.92941176,2.24644493 C2.93647059,2.36717771 2.83764706,2.47370664 2.71764706,2.48080857 C2.59058824,2.48080857 2.48470588,2.3884835 2.47764706,2.26775071 C2.47058824,2.139916 2.56941176,2.03338708 2.69647059,2.02628515 C2.81647059,2.01918322 2.92235294,2.11861022 2.92941176,2.24644493" id="Fill-1015" sketch:type="MSShapeGroup"></path>
            <path d="M2.17411765,1.63567909 C2.28705882,1.63567909 2.37882353,1.73510609 2.37882353,1.84873694 C2.37882353,1.96236779 2.28705882,2.06179479 2.17411765,2.06179479 C2.05411765,2.06179479 1.96235294,1.96236779 1.96235294,1.84873694 C1.96235294,1.73510609 2.05411765,1.63567909 2.17411765,1.63567909" id="Fill-1016" sketch:type="MSShapeGroup"></path>
            <path d="M1.63764706,1.24507303 C1.74352941,1.24507303 1.83529412,1.3373981 1.83529412,1.44392702 C1.83529412,1.55045595 1.74352941,1.63567909 1.63764706,1.63567909 C1.53176471,1.63567909 1.44705882,1.55045595 1.44705882,1.44392702 C1.44705882,1.3373981 1.53176471,1.24507303 1.63764706,1.24507303" id="Fill-1017" sketch:type="MSShapeGroup"></path>
            <path d="M1.94823529,0.93258818 C2.06117647,0.93258818 2.14588235,1.01781132 2.14588235,1.12434025 C2.14588235,1.2379711 2.06117647,1.32319424 1.94823529,1.32319424 C1.84235294,1.32319424 1.75764706,1.2379711 1.75764706,1.12434025 C1.75764706,1.01781132 1.84235294,0.93258818 1.94823529,0.93258818" id="Fill-1018" sketch:type="MSShapeGroup"></path>
            <path d="M2.64,1.20956339 C2.75294118,1.20956339 2.84470588,1.30188846 2.84470588,1.41551931 C2.84470588,1.52915016 2.75294118,1.62147523 2.64,1.62147523 C2.52705882,1.62147523 2.43529412,1.52915016 2.43529412,1.41551931 C2.43529412,1.30188846 2.52705882,1.20956339 2.64,1.20956339" id="Fill-1019" sketch:type="MSShapeGroup"></path>
            <path d="M3.33176471,1.48653859 C3.45176471,1.48653859 3.55058824,1.57886366 3.55058824,1.69959644 C3.55058824,1.82032923 3.45176471,1.91975622 3.33176471,1.91975622 C3.21176471,1.91975622 3.11294118,1.82032923 3.11294118,1.69959644 C3.11294118,1.57886366 3.21176471,1.48653859 3.33176471,1.48653859" id="Fill-1020" sketch:type="MSShapeGroup"></path>
            <path d="M4.01647059,1.7635138 C4.14352941,1.7635138 4.24235294,1.8629408 4.24235294,1.99077551 C4.24235294,2.11861022 4.14352941,2.21803722 4.01647059,2.21803722 C3.89647059,2.21803722 3.79058824,2.11861022 3.79058824,1.99077551 C3.79058824,1.8629408 3.89647059,1.7635138 4.01647059,1.7635138" id="Fill-1021" sketch:type="MSShapeGroup"></path>
            <path d="M4.70823529,2.04048901 C4.84235294,2.04048901 4.94823529,2.14701793 4.94823529,2.27485264 C4.94823529,2.40978928 4.84235294,2.51631821 4.70823529,2.51631821 C4.58117647,2.51631821 4.47529412,2.40978928 4.47529412,2.27485264 C4.47529412,2.14701793 4.58117647,2.04048901 4.70823529,2.04048901" id="Fill-1022" sketch:type="MSShapeGroup"></path>
            <path d="M5.4,2.31746421 C5.53411765,2.31746421 5.64705882,2.43109507 5.64705882,2.56603171 C5.64705882,2.70096835 5.53411765,2.8145992 5.4,2.8145992 C5.25882353,2.8145992 5.15294118,2.70096835 5.15294118,2.56603171 C5.15294118,2.43109507 5.25882353,2.31746421 5.4,2.31746421" id="Fill-1023" sketch:type="MSShapeGroup"></path>
            <path d="M0,0.272108841 L2.11764706,0.272108841 L2.11764706,0.982301679 L1.41176471,0.982301679 L1.41176471,1.69249452 L0.705882353,1.69249452 L0.705882353,2.40268735 L0,2.40268735 L0,0.272108841" id="Fill-1024" sketch:type="MSShapeGroup"></path>
            <path d="M5.64705882,7.37403722 L6.35294118,7.37403722 L6.35294118,8.08423005 L5.64705882,8.08423005 L5.64705882,8.79442289 L7.05882353,8.79442289 L7.05882353,6.66384438 L5.64705882,6.66384438 L5.64705882,7.37403722 L5.64705882,7.37403722 Z M7.05882353,5.95365154 L7.05882353,5.2434587 L7.76470588,5.2434587 L7.76470588,4.53326587 L8.47058824,4.53326587 L8.47058824,3.82307303 L9.88235294,3.82307303 L9.88235294,4.53326587 L9.17647059,4.53326587 L9.17647059,5.2434587 L8.47058824,5.2434587 L8.47058824,5.95365154 L7.76470588,5.95365154 L7.76470588,10.2148086 L4.94117647,10.2148086 L4.94117647,8.08423005 L2.82352941,8.08423005 L4.94117647,5.95365154 L7.05882353,5.95365154 L7.05882353,5.95365154 Z" id="Fill-1025" sketch:type="MSShapeGroup"></path>
            <path d="M7.05882353,4.17816945 C7.05882353,4.7676295 6.58588235,5.2434587 6,5.2434587 C5.41411765,5.2434587 4.94117647,4.7676295 4.94117647,4.17816945 C4.94117647,3.58870939 5.41411765,3.11288019 6,3.11288019 C6.58588235,3.11288019 7.05882353,3.58870939 7.05882353,4.17816945" id="Fill-1026" sketch:type="MSShapeGroup"></path>
        </g>
        <g id="Group" sketch:type="MSLayerGroup" transform="translate(0.000000, -0.199951)" fill="#0A0B09">
            <path d="M2.12470588,5.37129341 C2.10352941,5.51333198 2.20235294,5.64826862 2.34352941,5.66957441 C2.48470588,5.69088019 2.61882353,5.58435127 2.63294118,5.44941463 C2.65411765,5.30027413 2.55529412,5.17243942 2.41411765,5.15113363 C2.27294118,5.12982785 2.13882353,5.22925485 2.12470588,5.37129341" id="Fill-1001" sketch:type="MSShapeGroup"></path>
            <path d="M2.34352941,4.78183336 C2.36470588,4.63979479 2.27294118,4.51906201 2.13882353,4.49775622 C2.00470588,4.47645044 1.87764706,4.56877551 1.86352941,4.70371215 C1.84235294,4.84575071 1.93411765,4.9664835 2.06823529,4.98778928 C2.20235294,5.00909507 2.32941176,4.90966807 2.34352941,4.78183336" id="Fill-1002" sketch:type="MSShapeGroup"></path>
            <path d="M1.82823529,3.84437881 C1.96235294,3.84437881 2.06117647,3.94380581 2.06117647,4.07874245 C2.06117647,4.20657716 1.96235294,4.30600416 1.82823529,4.30600416 C1.70117647,4.30600416 1.59529412,4.20657716 1.59529412,4.07874245 C1.59529412,3.94380581 1.70117647,3.84437881 1.82823529,3.84437881" id="Fill-1003" sketch:type="MSShapeGroup"></path>
            <path d="M1.56,3.18389947 C1.68,3.18389947 1.77882353,3.28332647 1.77882353,3.41116118 C1.77882353,3.53189397 1.68,3.63132096 1.56,3.63132096 C1.43294118,3.63132096 1.33411765,3.53189397 1.33411765,3.41116118 C1.33411765,3.28332647 1.43294118,3.18389947 1.56,3.18389947" id="Fill-1004" sketch:type="MSShapeGroup"></path>
            <path d="M1.28470588,2.53052206 C1.39764706,2.53052206 1.48941176,2.62284713 1.48941176,2.74357992 C1.48941176,2.85721077 1.39764706,2.94953584 1.28470588,2.94953584 C1.17176471,2.94953584 1.07294118,2.85721077 1.07294118,2.74357992 C1.07294118,2.62284713 1.17176471,2.53052206 1.28470588,2.53052206" id="Fill-1005" sketch:type="MSShapeGroup"></path>
            <path d="M1.00941176,1.87714465 C1.11529412,1.87714465 1.20705882,1.96236779 1.20705882,2.07599865 C1.20705882,2.18252757 1.11529412,2.26775071 1.00941176,2.26775071 C0.903529412,2.26775071 0.811764706,2.18252757 0.811764706,2.07599865 C0.811764706,1.96236779 0.903529412,1.87714465 1.00941176,1.87714465" id="Fill-1006" sketch:type="MSShapeGroup"></path>
            <path d="M3.08470588,4.42673694 C3.09176471,4.28469837 3.21176471,4.17816945 3.35294118,4.18527138 C3.49411765,4.1923733 3.6,4.31310609 3.59294118,4.45514465 C3.59294118,4.59718322 3.47294118,4.70371215 3.33176471,4.69661022 C3.19058824,4.68950829 3.07764706,4.56877551 3.08470588,4.42673694" id="Fill-1007" sketch:type="MSShapeGroup"></path>
            <path d="M2.93647059,3.65972868 C3.07058824,3.65972868 3.18352941,3.7662576 3.18352941,3.90119424 C3.18352941,4.03613088 3.07058824,4.14976173 2.93647059,4.14976173 C2.80235294,4.14976173 2.69647059,4.03613088 2.69647059,3.90119424 C2.69647059,3.7662576 2.80235294,3.65972868 2.93647059,3.65972868" id="Fill-1008" sketch:type="MSShapeGroup"></path>
            <path d="M2.53411765,3.13418598 C2.66117647,3.13418598 2.76705882,3.2407149 2.76705882,3.36854961 C2.76705882,3.49638432 2.66117647,3.59581132 2.53411765,3.59581132 C2.40705882,3.59581132 2.30117647,3.49638432 2.30117647,3.36854961 C2.30117647,3.2407149 2.40705882,3.13418598 2.53411765,3.13418598" id="Fill-1009" sketch:type="MSShapeGroup"></path>
            <path d="M2.13176471,2.60864328 C2.25176471,2.60864328 2.35058824,2.70807027 2.35058824,2.82880306 C2.35058824,2.94953584 2.25176471,3.04896284 2.13176471,3.04896284 C2.01176471,3.04896284 1.91294118,2.94953584 1.91294118,2.82880306 C1.91294118,2.70807027 2.01176471,2.60864328 2.13176471,2.60864328" id="Fill-1010" sketch:type="MSShapeGroup"></path>
            <path d="M1.72941176,2.09020251 C1.84235294,2.09020251 1.93411765,2.18252757 1.93411765,2.29615843 C1.93411765,2.40978928 1.84235294,2.50211435 1.72941176,2.50211435 C1.61647059,2.50211435 1.51764706,2.40978928 1.51764706,2.29615843 C1.51764706,2.18252757 1.61647059,2.09020251 1.72941176,2.09020251" id="Fill-1011" sketch:type="MSShapeGroup"></path>
            <path d="M1.32,1.56465981 C1.43294118,1.56465981 1.51764706,1.64988295 1.51764706,1.75641187 C1.51764706,1.87004273 1.43294118,1.95526587 1.32,1.95526587 C1.21411765,1.95526587 1.12941176,1.87004273 1.12941176,1.75641187 C1.12941176,1.64988295 1.21411765,1.56465981 1.32,1.56465981" id="Fill-1012" sketch:type="MSShapeGroup"></path>
            <path d="M3.78352941,3.32593804 C3.64235294,3.33303997 3.52235294,3.21940912 3.51529412,3.07737055 C3.50823529,2.93533198 3.62117647,2.8145992 3.76235294,2.80749727 C3.90352941,2.80039534 4.02352941,2.9140262 4.03058824,3.05606476 C4.03764706,3.19810333 3.92470588,3.31883611 3.78352941,3.32593804" id="Fill-1013" sketch:type="MSShapeGroup"></path>
            <path d="M3.48,2.65125485 C3.48705882,2.77908956 3.38117647,2.89272041 3.24705882,2.89982234 C3.12,2.90692427 3,2.80749727 3,2.67256063 C2.99294118,2.53762399 3.09176471,2.42399314 3.22588235,2.41689121 C3.36,2.40978928 3.47294118,2.51631821 3.48,2.65125485" id="Fill-1014" sketch:type="MSShapeGroup"></path>
            <path d="M2.92941176,2.24644493 C2.93647059,2.36717771 2.83764706,2.47370664 2.71764706,2.48080857 C2.59058824,2.48080857 2.48470588,2.3884835 2.47764706,2.26775071 C2.47058824,2.139916 2.56941176,2.03338708 2.69647059,2.02628515 C2.81647059,2.01918322 2.92235294,2.11861022 2.92941176,2.24644493" id="Fill-1015" sketch:type="MSShapeGroup"></path>
            <path d="M2.17411765,1.63567909 C2.28705882,1.63567909 2.37882353,1.73510609 2.37882353,1.84873694 C2.37882353,1.96236779 2.28705882,2.06179479 2.17411765,2.06179479 C2.05411765,2.06179479 1.96235294,1.96236779 1.96235294,1.84873694 C1.96235294,1.73510609 2.05411765,1.63567909 2.17411765,1.63567909" id="Fill-1016" sketch:type="MSShapeGroup"></path>
            <path d="M1.63764706,1.24507303 C1.74352941,1.24507303 1.83529412,1.3373981 1.83529412,1.44392702 C1.83529412,1.55045595 1.74352941,1.63567909 1.63764706,1.63567909 C1.53176471,1.63567909 1.44705882,1.55045595 1.44705882,1.44392702 C1.44705882,1.3373981 1.53176471,1.24507303 1.63764706,1.24507303" id="Fill-1017" sketch:type="MSShapeGroup"></path>
            <path d="M1.94823529,0.93258818 C2.06117647,0.93258818 2.14588235,1.01781132 2.14588235,1.12434025 C2.14588235,1.2379711 2.06117647,1.32319424 1.94823529,1.32319424 C1.84235294,1.32319424 1.75764706,1.2379711 1.75764706,1.12434025 C1.75764706,1.01781132 1.84235294,0.93258818 1.94823529,0.93258818" id="Fill-1018" sketch:type="MSShapeGroup"></path>
            <path d="M2.64,1.20956339 C2.75294118,1.20956339 2.84470588,1.30188846 2.84470588,1.41551931 C2.84470588,1.52915016 2.75294118,1.62147523 2.64,1.62147523 C2.52705882,1.62147523 2.43529412,1.52915016 2.43529412,1.41551931 C2.43529412,1.30188846 2.52705882,1.20956339 2.64,1.20956339" id="Fill-1019" sketch:type="MSShapeGroup"></path>
            <path d="M3.33176471,1.48653859 C3.45176471,1.48653859 3.55058824,1.57886366 3.55058824,1.69959644 C3.55058824,1.82032923 3.45176471,1.91975622 3.33176471,1.91975622 C3.21176471,1.91975622 3.11294118,1.82032923 3.11294118,1.69959644 C3.11294118,1.57886366 3.21176471,1.48653859 3.33176471,1.48653859" id="Fill-1020" sketch:type="MSShapeGroup"></path>
            <path d="M4.01647059,1.7635138 C4.14352941,1.7635138 4.24235294,1.8629408 4.24235294,1.99077551 C4.24235294,2.11861022 4.14352941,2.21803722 4.01647059,2.21803722 C3.89647059,2.21803722 3.79058824,2.11861022 3.79058824,1.99077551 C3.79058824,1.8629408 3.89647059,1.7635138 4.01647059,1.7635138" id="Fill-1021" sketch:type="MSShapeGroup"></path>
            <path d="M4.70823529,2.04048901 C4.84235294,2.04048901 4.94823529,2.14701793 4.94823529,2.27485264 C4.94823529,2.40978928 4.84235294,2.51631821 4.70823529,2.51631821 C4.58117647,2.51631821 4.47529412,2.40978928 4.47529412,2.27485264 C4.47529412,2.14701793 4.58117647,2.04048901 4.70823529,2.04048901" id="Fill-1022" sketch:type="MSShapeGroup"></path>
            <path d="M5.4,2.31746421 C5.53411765,2.31746421 5.64705882,2.43109507 5.64705882,2.56603171 C5.64705882,2.70096835 5.53411765,2.8145992 5.4,2.8145992 C5.25882353,2.8145992 5.15294118,2.70096835 5.15294118,2.56603171 C5.15294118,2.43109507 5.25882353,2.31746421 5.4,2.31746421" id="Fill-1023" sketch:type="MSShapeGroup"></path>
            <path d="M0,0.272108841 L2.11764706,0.272108841 L2.11764706,0.982301679 L1.41176471,0.982301679 L1.41176471,1.69249452 L0.705882353,1.69249452 L0.705882353,2.40268735 L0,2.40268735 L0,0.272108841" id="Fill-1024" sketch:type="MSShapeGroup"></path>
            <path d="M5.64705882,7.37403722 L6.35294118,7.37403722 L6.35294118,8.08423005 L5.64705882,8.08423005 L5.64705882,8.79442289 L7.05882353,8.79442289 L7.05882353,6.66384438 L5.64705882,6.66384438 L5.64705882,7.37403722 L5.64705882,7.37403722 Z M7.05882353,5.95365154 L7.05882353,5.2434587 L7.76470588,5.2434587 L7.76470588,4.53326587 L8.47058824,4.53326587 L8.47058824,3.82307303 L9.88235294,3.82307303 L9.88235294,4.53326587 L9.17647059,4.53326587 L9.17647059,5.2434587 L8.47058824,5.2434587 L8.47058824,5.95365154 L7.76470588,5.95365154 L7.76470588,10.2148086 L4.94117647,10.2148086 L4.94117647,8.08423005 L2.82352941,8.08423005 L4.94117647,5.95365154 L7.05882353,5.95365154 L7.05882353,5.95365154 Z" id="Fill-1025" sketch:type="MSShapeGroup"></path>
            <path d="M7.05882353,4.17816945 C7.05882353,4.7676295 6.58588235,5.2434587 6,5.2434587 C5.41411765,5.2434587 4.94117647,4.7676295 4.94117647,4.17816945 C4.94117647,3.58870939 5.41411765,3.11288019 6,3.11288019 C6.58588235,3.11288019 7.05882353,3.58870939 7.05882353,4.17816945" id="Fill-1026" sketch:type="MSShapeGroup"></path>
        </g>
    </g>
</svg>