<?xml version="1.0" encoding="utf-8"?>
<!-- Generator: Adobe Illustrator 18.1.1, SVG Export Plug-In . SVG Version: 6.00 Build 0)  -->
<svg version="1.1" xmlns="http://www.w3.org/2000/svg" xmlns:xlink="http://www.w3.org/1999/xlink" x="0px" y="0px"
	 viewBox="0 0 12 12" enable-background="new 0 0 12 12" xml:space="preserve">
<g id="shadows">
	<g opacity="0.2">
		<path d="M3.434,6.114c-0.02,0.131,0.069,0.248,0.198,0.267c0.129,0.021,0.251-0.073,0.267-0.198
			C3.917,6.052,3.83,5.934,3.699,5.917C3.571,5.898,3.45,5.985,3.434,6.114"/>
		<path d="M3.637,5.578C3.655,5.453,3.57,5.341,3.448,5.323C3.325,5.306,3.212,5.391,3.194,5.512
			C3.177,5.638,3.262,5.747,3.383,5.765C3.506,5.784,3.621,5.697,3.637,5.578"/>
		<path d="M3.167,4.73c0.117,0,0.211,0.095,0.211,0.211c0,0.117-0.094,0.211-0.211,0.211c-0.117,0-0.212-0.094-0.212-0.211
			C2.955,4.824,3.05,4.73,3.167,4.73"/>
		<path d="M2.917,4.137c0.11,0,0.2,0.09,0.2,0.2c0,0.11-0.09,0.201-0.2,0.201S2.717,4.447,2.717,4.337
			C2.717,4.227,2.807,4.137,2.917,4.137"/>
		<path d="M2.669,3.544c0.104,0,0.189,0.086,0.189,0.19c0,0.104-0.085,0.189-0.189,0.189c-0.104,0-0.189-0.085-0.189-0.189
			C2.48,3.629,2.565,3.544,2.669,3.544"/>
		<path d="M2.419,2.952c0.099,0,0.178,0.079,0.178,0.178c0,0.098-0.08,0.178-0.178,0.178c-0.098,0-0.178-0.08-0.178-0.178
			C2.241,3.031,2.321,2.952,2.419,2.952"/>
		<path d="M4.311,5.259c0.006-0.128,0.116-0.228,0.244-0.22c0.129,0.007,0.227,0.114,0.221,0.245
			C4.771,5.413,4.66,5.509,4.531,5.502C4.402,5.5,4.303,5.391,4.311,5.259"/>
		<path d="M4.175,4.565c0.122,0,0.221,0.099,0.221,0.221c0,0.123-0.099,0.222-0.221,0.222c-0.122,0-0.221-0.099-0.221-0.222
			C3.954,4.664,4.053,4.565,4.175,4.565"/>
		<path d="M3.808,4.09c0.116,0,0.21,0.094,0.21,0.21c0,0.116-0.094,0.21-0.21,0.21c-0.115,0-0.209-0.094-0.209-0.21
			C3.598,4.185,3.692,4.09,3.808,4.09"/>
		<path d="M3.44,3.616c0.11,0,0.198,0.089,0.198,0.199c0,0.11-0.088,0.199-0.198,0.199S3.242,3.924,3.242,3.815
			C3.242,3.705,3.33,3.616,3.44,3.616"/>
		<path d="M3.073,3.141c0.103,0,0.187,0.084,0.187,0.188c0,0.105-0.084,0.188-0.187,0.188c-0.104,0-0.188-0.084-0.188-0.188
			C2.885,3.225,2.97,3.141,3.073,3.141"/>
		<path d="M2.706,2.667c0.097,0,0.177,0.079,0.177,0.178c0,0.098-0.08,0.177-0.177,0.177c-0.098,0-0.178-0.079-0.178-0.177
			C2.528,2.746,2.607,2.667,2.706,2.667"/>
		<path d="M4.947,4.26C4.817,4.267,4.706,4.168,4.702,4.04C4.695,3.909,4.796,3.8,4.925,3.794C5.051,3.79,5.162,3.887,5.167,4.02
			C5.174,4.144,5.075,4.255,4.947,4.26"/>
		<path d="M4.667,3.651C4.673,3.77,4.581,3.872,4.459,3.877C4.339,3.882,4.235,3.791,4.229,3.67C4.223,3.548,4.317,3.448,4.438,3.44
			C4.558,3.436,4.66,3.527,4.667,3.651"/>
		<path d="M4.167,3.284c0.005,0.111-0.082,0.207-0.195,0.211C3.859,3.5,3.762,3.415,3.757,3.303C3.752,3.188,3.84,3.093,3.954,3.088
			C4.064,3.083,4.161,3.169,4.167,3.284"/>
		<path d="M3.477,2.734c0.105,0,0.191,0.086,0.191,0.191c0,0.105-0.085,0.191-0.191,0.191c-0.105,0-0.191-0.086-0.191-0.191
			C3.286,2.82,3.372,2.734,3.477,2.734"/>
		<path d="M2.992,2.381c0.098,0,0.177,0.079,0.177,0.178c0,0.098-0.079,0.177-0.177,0.177c-0.098,0-0.178-0.079-0.178-0.177
			C2.814,2.46,2.894,2.381,2.992,2.381"/>
		<path d="M3.277,2.095c0.097,0,0.177,0.079,0.177,0.177c0,0.098-0.08,0.177-0.177,0.177C3.179,2.449,3.1,2.37,3.1,2.272
			C3.1,2.174,3.179,2.095,3.277,2.095"/>
		<path d="M3.906,2.345c0.103,0,0.187,0.084,0.187,0.188c0,0.104-0.084,0.188-0.187,0.188c-0.104,0-0.188-0.085-0.188-0.188
			C3.717,2.429,3.802,2.345,3.906,2.345"/>
		<path d="M4.533,2.594c0.109,0,0.198,0.089,0.198,0.198c0,0.109-0.088,0.198-0.198,0.198c-0.109,0-0.198-0.088-0.198-0.198
			C4.334,2.684,4.424,2.594,4.533,2.594"/>
		<path d="M5.16,2.847c0.113,0,0.207,0.092,0.207,0.207c0,0.114-0.093,0.205-0.207,0.205c-0.114,0-0.206-0.091-0.206-0.205
			C4.954,2.939,5.046,2.847,5.16,2.847"/>
		<path d="M5.789,3.098c0.119,0,0.216,0.097,0.216,0.216c0,0.12-0.097,0.216-0.216,0.216c-0.12,0-0.216-0.096-0.216-0.216
			C5.572,3.194,5.668,3.098,5.789,3.098"/>
		<path d="M6.417,3.348c0.124,0,0.226,0.101,0.226,0.226S6.541,3.8,6.417,3.8C6.292,3.8,6.19,3.699,6.19,3.574
			S6.292,3.348,6.417,3.348"/>
		<polygon points="1.5,1.5 3.429,1.5 3.429,2.143 2.786,2.143 2.786,2.786 2.143,2.786 2.143,3.429 1.5,3.429 		"/>
		<path d="M7.929,6.643V6h0.643V5.357h0.643V4.714H10.5v0.642H9.857V6H9.214v0.643H8.571V10.5H6V8.571H4.071L6,6.643H7.929z
			 M6.643,7.929h0.643v0.643H6.643v0.643h1.286V7.286H6.643V7.929z"/>
		<path d="M7.929,5.036C7.929,5.568,7.496,6,6.964,6C6.432,6,6,5.568,6,5.036c0-0.532,0.432-0.964,0.964-0.964
			C7.496,4.071,7.929,4.503,7.929,5.036"/>
		<rect x="1.5" y="1.5" fill="none" width="9" height="9"/>
	</g>
</g>
<g id="icons">
	<path d="M2.934,5.614c-0.02,0.131,0.069,0.248,0.198,0.267c0.129,0.021,0.251-0.073,0.267-0.198
		C3.417,5.552,3.33,5.434,3.199,5.417C3.071,5.398,2.95,5.485,2.934,5.614"/>
	<path d="M3.137,5.078C3.155,4.953,3.07,4.841,2.948,4.823C2.825,4.806,2.712,4.891,2.694,5.012
		C2.677,5.138,2.762,5.247,2.883,5.265C3.006,5.284,3.121,5.197,3.137,5.078"/>
	<path d="M2.667,4.23c0.117,0,0.211,0.095,0.211,0.211c0,0.117-0.094,0.211-0.211,0.211c-0.117,0-0.212-0.094-0.212-0.211
		C2.455,4.324,2.55,4.23,2.667,4.23"/>
	<path d="M2.417,3.637c0.11,0,0.2,0.09,0.2,0.2c0,0.11-0.09,0.201-0.2,0.201S2.217,3.947,2.217,3.837
		C2.217,3.727,2.307,3.637,2.417,3.637"/>
	<path d="M2.169,3.044c0.104,0,0.189,0.086,0.189,0.19c0,0.104-0.085,0.189-0.189,0.189c-0.104,0-0.189-0.085-0.189-0.189
		C1.98,3.129,2.065,3.044,2.169,3.044"/>
	<path d="M1.919,2.452c0.099,0,0.178,0.079,0.178,0.178c0,0.098-0.08,0.178-0.178,0.178c-0.098,0-0.178-0.08-0.178-0.178
		C1.741,2.531,1.821,2.452,1.919,2.452"/>
	<path d="M3.811,4.759c0.006-0.128,0.116-0.228,0.244-0.22c0.129,0.007,0.227,0.114,0.221,0.245C4.271,4.913,4.16,5.009,4.031,5.002
		C3.902,5,3.803,4.891,3.811,4.759"/>
	<path d="M3.675,4.065c0.122,0,0.221,0.099,0.221,0.221c0,0.123-0.099,0.222-0.221,0.222c-0.122,0-0.221-0.099-0.221-0.222
		C3.454,4.164,3.553,4.065,3.675,4.065"/>
	<path d="M3.308,3.59c0.116,0,0.21,0.094,0.21,0.21c0,0.116-0.094,0.21-0.21,0.21c-0.115,0-0.209-0.094-0.209-0.21
		C3.098,3.685,3.192,3.59,3.308,3.59"/>
	<path d="M2.94,3.116c0.11,0,0.198,0.089,0.198,0.199c0,0.11-0.088,0.199-0.198,0.199S2.742,3.424,2.742,3.315
		C2.742,3.205,2.83,3.116,2.94,3.116"/>
	<path d="M2.573,2.641c0.103,0,0.187,0.084,0.187,0.188c0,0.105-0.084,0.188-0.187,0.188c-0.104,0-0.188-0.084-0.188-0.188
		C2.385,2.725,2.47,2.641,2.573,2.641"/>
	<path d="M2.206,2.167c0.097,0,0.177,0.079,0.177,0.178c0,0.098-0.08,0.177-0.177,0.177c-0.098,0-0.178-0.079-0.178-0.177
		C2.028,2.246,2.107,2.167,2.206,2.167"/>
	<path d="M4.447,3.76C4.317,3.767,4.206,3.668,4.202,3.54C4.195,3.409,4.296,3.3,4.425,3.294C4.551,3.29,4.662,3.387,4.667,3.52
		C4.674,3.644,4.575,3.755,4.447,3.76"/>
	<path d="M4.167,3.151C4.173,3.27,4.081,3.372,3.959,3.377C3.839,3.382,3.735,3.291,3.729,3.17C3.723,3.048,3.817,2.948,3.938,2.94
		C4.058,2.936,4.16,3.027,4.167,3.151"/>
	<path d="M3.667,2.784c0.005,0.111-0.082,0.207-0.195,0.211C3.359,3,3.262,2.915,3.257,2.803C3.252,2.688,3.34,2.593,3.454,2.588
		C3.564,2.583,3.661,2.669,3.667,2.784"/>
	<path d="M2.977,2.234c0.105,0,0.191,0.086,0.191,0.191c0,0.105-0.085,0.191-0.191,0.191c-0.105,0-0.191-0.086-0.191-0.191
		C2.786,2.32,2.872,2.234,2.977,2.234"/>
	<path d="M2.492,1.881c0.098,0,0.177,0.079,0.177,0.178c0,0.098-0.079,0.177-0.177,0.177c-0.098,0-0.178-0.079-0.178-0.177
		C2.314,1.96,2.394,1.881,2.492,1.881"/>
	<path d="M2.777,1.595c0.097,0,0.177,0.079,0.177,0.177c0,0.098-0.08,0.177-0.177,0.177C2.679,1.949,2.6,1.87,2.6,1.772
		C2.6,1.674,2.679,1.595,2.777,1.595"/>
	<path d="M3.406,1.845c0.103,0,0.188,0.084,0.188,0.188c0,0.104-0.084,0.188-0.188,0.188c-0.104,0-0.188-0.085-0.188-0.188
		C3.217,1.929,3.302,1.845,3.406,1.845"/>
	<path d="M4.033,2.094c0.109,0,0.198,0.089,0.198,0.198c0,0.109-0.088,0.198-0.198,0.198c-0.109,0-0.198-0.088-0.198-0.198
		C3.834,2.184,3.924,2.094,4.033,2.094"/>
	<path d="M4.66,2.347c0.113,0,0.207,0.092,0.207,0.207c0,0.114-0.093,0.205-0.207,0.205c-0.114,0-0.206-0.091-0.206-0.205
		C4.454,2.439,4.546,2.347,4.66,2.347"/>
	<path d="M5.289,2.598c0.119,0,0.216,0.097,0.216,0.216c0,0.12-0.097,0.216-0.216,0.216c-0.12,0-0.216-0.096-0.216-0.216
		C5.072,2.694,5.168,2.598,5.289,2.598"/>
	<path d="M5.917,2.848c0.124,0,0.226,0.101,0.226,0.226S6.041,3.3,5.917,3.3C5.792,3.3,5.69,3.199,5.69,3.074
		S5.792,2.848,5.917,2.848"/>
	<polygon points="1,1 2.929,1 2.929,1.643 2.286,1.643 2.286,2.286 1.643,2.286 1.643,2.929 1,2.929 	"/>
	<path d="M7.429,6.143V5.5h0.643V4.857h0.643V4.214H10v0.642H9.357V5.5H8.714v0.643H8.071V10H5.5V8.071H3.571L5.5,6.143H7.429z
		 M6.143,7.429h0.643v0.643H6.143v0.643h1.286V6.786H6.143V7.429z"/>
	<path d="M7.429,4.536c0,0.532-0.433,0.964-0.964,0.964C5.932,5.5,5.5,5.068,5.5,4.536c0-0.532,0.432-0.964,0.964-0.964
		C6.996,3.571,7.429,4.003,7.429,4.536"/>
</g>
</svg>
