<?xml version="1.0" encoding="utf-8"?>
<!-- Generator: Adobe Illustrator 18.1.1, SVG Export Plug-In . SVG Version: 6.00 Build 0)  -->
<svg version="1.1" xmlns="http://www.w3.org/2000/svg" xmlns:xlink="http://www.w3.org/1999/xlink" x="0px" y="0px"
	 viewBox="0 0 24 24" enable-background="new 0 0 24 24" xml:space="preserve">
<g id="shadows">
	<g opacity="0.2">
		<path d="M8.782,13.87c-0.044,0.293,0.155,0.555,0.442,0.595c0.289,0.047,0.56-0.161,0.596-0.442
			c0.042-0.293-0.154-0.556-0.444-0.596C9.088,13.385,8.818,13.581,8.782,13.87"/>
		<path d="M9.236,12.67c0.04-0.277-0.148-0.53-0.422-0.567c-0.274-0.038-0.527,0.149-0.565,0.422
			c-0.041,0.281,0.149,0.524,0.422,0.563C8.944,13.132,9.2,12.939,9.236,12.67"/>
		<path d="M8.186,10.776c0.261,0,0.472,0.212,0.472,0.473c0,0.261-0.21,0.473-0.472,0.473c-0.262,0-0.472-0.212-0.472-0.473
			C7.714,10.988,7.925,10.776,8.186,10.776"/>
		<path d="M7.629,9.452c0.248,0,0.448,0.202,0.448,0.448c0,0.247-0.201,0.448-0.448,0.448c-0.247,0-0.448-0.201-0.448-0.448
			C7.181,9.654,7.382,9.452,7.629,9.452"/>
		<path d="M7.074,8.13c0.233,0,0.422,0.189,0.422,0.422c0,0.232-0.188,0.422-0.422,0.422c-0.234,0-0.422-0.189-0.422-0.422
			C6.652,8.319,6.84,8.13,7.074,8.13"/>
		<path d="M6.517,6.806c0.22,0,0.398,0.177,0.398,0.397c0,0.22-0.178,0.398-0.398,0.398c-0.219,0-0.398-0.178-0.398-0.398
			C6.119,6.983,6.297,6.806,6.517,6.806"/>
		<path d="M10.74,11.96c0.014-0.284,0.258-0.508,0.545-0.493c0.289,0.016,0.507,0.257,0.493,0.547
			c-0.01,0.289-0.256,0.505-0.545,0.489C10.946,12.497,10.724,12.252,10.74,11.96"/>
		<path d="M10.438,10.407c0.273,0,0.494,0.221,0.494,0.495c0,0.273-0.221,0.494-0.494,0.494c-0.274,0-0.495-0.221-0.495-0.494
			C9.943,10.628,10.164,10.407,10.438,10.407"/>
		<path d="M9.618,9.35c0.259,0,0.468,0.209,0.468,0.468c0,0.259-0.209,0.469-0.468,0.469c-0.259,0-0.468-0.21-0.468-0.469
			C9.149,9.559,9.359,9.35,9.618,9.35"/>
		<path d="M8.796,8.289c0.245,0,0.444,0.199,0.444,0.445c0,0.245-0.199,0.443-0.444,0.443c-0.246,0-0.444-0.198-0.444-0.443
			C8.352,8.488,8.55,8.289,8.796,8.289"/>
		<path d="M7.976,7.23c0.232,0,0.42,0.188,0.42,0.419c0,0.232-0.188,0.42-0.42,0.42c-0.232,0-0.419-0.188-0.419-0.42
			C7.557,7.418,7.745,7.23,7.976,7.23"/>
		<path d="M7.155,6.169c0.218,0,0.395,0.177,0.395,0.397c0,0.218-0.178,0.395-0.395,0.395c-0.219,0-0.397-0.177-0.397-0.395
			C6.759,6.347,6.937,6.169,7.155,6.169"/>
		<path d="M12.161,9.729c-0.289,0.016-0.54-0.206-0.547-0.493c-0.016-0.293,0.21-0.537,0.498-0.547
			c0.282-0.012,0.529,0.206,0.541,0.501C12.67,9.468,12.448,9.716,12.161,9.729"/>
		<path d="M11.536,8.368c0.014,0.265-0.191,0.494-0.462,0.505c-0.271,0.013-0.503-0.194-0.515-0.462
			c-0.013-0.273,0.198-0.497,0.466-0.513C11.293,7.888,11.521,8.091,11.536,8.368"/>
		<path d="M10.419,7.548c0.012,0.248-0.182,0.462-0.434,0.472c-0.252,0.011-0.47-0.181-0.48-0.429
			C9.493,7.335,9.691,7.123,9.943,7.11C10.191,7.099,10.405,7.293,10.419,7.548"/>
		<path d="M8.879,6.321c0.235,0,0.425,0.191,0.425,0.425c0,0.236-0.19,0.427-0.425,0.427c-0.235,0-0.426-0.191-0.426-0.427
			C8.453,6.512,8.644,6.321,8.879,6.321"/>
		<path d="M7.795,5.532c0.218,0,0.396,0.177,0.396,0.396c0,0.219-0.177,0.396-0.396,0.396c-0.219,0-0.396-0.177-0.396-0.396
			C7.399,5.709,7.576,5.532,7.795,5.532"/>
		<path d="M8.433,4.892c0.219,0,0.396,0.176,0.396,0.395c0,0.219-0.177,0.395-0.396,0.395c-0.219,0-0.396-0.176-0.396-0.395
			C8.037,5.068,8.214,4.892,8.433,4.892"/>
		<path d="M9.835,5.451c0.233,0,0.42,0.188,0.42,0.419c0,0.232-0.188,0.42-0.42,0.42c-0.231,0-0.419-0.188-0.419-0.42
			C9.416,5.639,9.604,5.451,9.835,5.451"/>
		<path d="M11.237,6.008c0.245,0,0.442,0.198,0.442,0.442s-0.198,0.442-0.442,0.442c-0.245,0-0.442-0.198-0.442-0.442
			S10.992,6.008,11.237,6.008"/>
		<path d="M12.638,6.571c0.253,0,0.46,0.207,0.46,0.461c0,0.254-0.207,0.459-0.46,0.459c-0.254,0-0.461-0.206-0.461-0.459
			C12.177,6.778,12.384,6.571,12.638,6.571"/>
		<path d="M14.041,7.132c0.267,0,0.482,0.217,0.482,0.482c0,0.267-0.216,0.483-0.482,0.483c-0.266,0-0.483-0.216-0.483-0.483
			C13.558,7.349,13.775,7.132,14.041,7.132"/>
		<polygon points="5,4.773 5.773,4.773 5.773,4 8.864,4 8.864,4.773 8.091,4.773 8.091,5.545 7.318,5.545 7.318,6.318 6.545,6.318 
			6.545,7.091 5.773,7.091 5.773,7.864 5,7.864 		"/>
		<path d="M15.818,11.341c0,1.067-0.865,1.932-1.932,1.932c-1.068,0-1.932-0.865-1.932-1.932s0.864-1.932,1.932-1.932
			C14.954,9.409,15.818,10.274,15.818,11.341"/>
		<path d="M15.818,14.045v-0.773h0.772V12.5h0.773v-0.773h0.772v-0.773h0.773v-0.773h0.772V9.409h0.773V8.636h0.773L22,9.409v0.772
			v0.773h-0.773v0.773h-0.773V12.5h-0.773v0.773h-0.772v0.773h-0.773v0.773h-0.772V21h-5.409v-3.091H8.864v-1.545h0.772v-0.773
			h0.773v-0.772h0.772v-0.773H15.818z M12.727,16.364H13.5v1.545h-0.773v0.772h1.546v-3.091h-1.546V16.364z"/>
		<rect x="5" y="4" fill="none" width="17" height="17"/>
	</g>
</g>
<g id="icons">
	<path fill="#FFFFFF" d="M7.782,12.87c-0.044,0.293,0.155,0.555,0.442,0.595c0.289,0.047,0.56-0.161,0.596-0.442
		c0.042-0.293-0.154-0.556-0.444-0.596C8.088,12.385,7.818,12.581,7.782,12.87"/>
	<path fill="#FFFFFF" d="M8.236,11.67c0.04-0.277-0.148-0.53-0.422-0.567c-0.274-0.038-0.527,0.149-0.565,0.422
		c-0.041,0.281,0.149,0.524,0.422,0.563C7.944,12.132,8.2,11.939,8.236,11.67"/>
	<path fill="#FFFFFF" d="M7.187,9.776c0.261,0,0.472,0.212,0.472,0.473c0,0.261-0.21,0.473-0.472,0.473
		c-0.262,0-0.472-0.212-0.472-0.473C6.714,9.988,6.925,9.776,7.187,9.776"/>
	<path fill="#FFFFFF" d="M6.629,8.452c0.248,0,0.448,0.202,0.448,0.448c0,0.247-0.201,0.448-0.448,0.448
		c-0.247,0-0.448-0.201-0.448-0.448C6.181,8.654,6.382,8.452,6.629,8.452"/>
	<path fill="#FFFFFF" d="M6.074,7.13c0.233,0,0.422,0.189,0.422,0.422c0,0.232-0.188,0.422-0.422,0.422
		c-0.234,0-0.422-0.189-0.422-0.422C5.652,7.319,5.84,7.13,6.074,7.13"/>
	<path fill="#FFFFFF" d="M5.517,5.806c0.22,0,0.398,0.177,0.398,0.397c0,0.22-0.178,0.398-0.398,0.398
		c-0.219,0-0.398-0.178-0.398-0.398C5.119,5.983,5.297,5.806,5.517,5.806"/>
	<path fill="#FFFFFF" d="M9.74,10.96c0.014-0.284,0.258-0.508,0.545-0.493c0.289,0.016,0.507,0.257,0.493,0.547
		c-0.01,0.289-0.256,0.505-0.545,0.489C9.946,11.497,9.724,11.252,9.74,10.96"/>
	<path fill="#FFFFFF" d="M9.438,9.407c0.273,0,0.494,0.221,0.494,0.495c0,0.273-0.221,0.494-0.494,0.494
		c-0.274,0-0.495-0.221-0.495-0.494C8.943,9.628,9.164,9.407,9.438,9.407"/>
	<path fill="#FFFFFF" d="M8.618,8.35c0.259,0,0.468,0.209,0.468,0.468c0,0.259-0.209,0.469-0.468,0.469
		c-0.259,0-0.468-0.21-0.468-0.469C8.149,8.559,8.359,8.35,8.618,8.35"/>
	<path fill="#FFFFFF" d="M7.796,7.289c0.245,0,0.444,0.199,0.444,0.445c0,0.245-0.199,0.443-0.444,0.443
		c-0.246,0-0.444-0.198-0.444-0.443C7.352,7.488,7.55,7.289,7.796,7.289"/>
	<path fill="#FFFFFF" d="M6.976,6.23c0.232,0,0.42,0.188,0.42,0.419c0,0.232-0.188,0.42-0.42,0.42c-0.232,0-0.419-0.188-0.419-0.42
		C6.557,6.418,6.745,6.23,6.976,6.23"/>
	<path fill="#FFFFFF" d="M6.155,5.169c0.218,0,0.395,0.177,0.395,0.397c0,0.218-0.178,0.395-0.395,0.395
		c-0.219,0-0.397-0.177-0.397-0.395C5.759,5.347,5.937,5.169,6.155,5.169"/>
	<path fill="#FFFFFF" d="M11.161,8.729c-0.289,0.016-0.54-0.206-0.547-0.493c-0.016-0.293,0.21-0.537,0.498-0.547
		c0.282-0.012,0.529,0.206,0.541,0.501C11.67,8.468,11.448,8.716,11.161,8.729"/>
	<path fill="#FFFFFF" d="M10.536,7.368c0.014,0.265-0.191,0.494-0.462,0.505C9.803,7.885,9.571,7.679,9.559,7.411
		c-0.013-0.273,0.198-0.497,0.466-0.513C10.293,6.888,10.521,7.091,10.536,7.368"/>
	<path fill="#FFFFFF" d="M9.419,6.548c0.012,0.248-0.182,0.462-0.434,0.472c-0.252,0.011-0.47-0.181-0.48-0.429
		C8.493,6.335,8.691,6.123,8.943,6.11C9.191,6.099,9.405,6.293,9.419,6.548"/>
	<path fill="#FFFFFF" d="M7.879,5.321c0.235,0,0.425,0.191,0.425,0.425c0,0.236-0.19,0.427-0.425,0.427
		c-0.235,0-0.426-0.191-0.426-0.427C7.453,5.512,7.644,5.321,7.879,5.321"/>
	<path fill="#FFFFFF" d="M6.795,4.532c0.218,0,0.396,0.177,0.396,0.396c0,0.219-0.177,0.396-0.396,0.396
		c-0.219,0-0.396-0.177-0.396-0.396C6.399,4.709,6.576,4.532,6.795,4.532"/>
	<path fill="#FFFFFF" d="M7.433,3.892c0.219,0,0.396,0.176,0.396,0.395c0,0.219-0.177,0.395-0.396,0.395
		c-0.219,0-0.396-0.176-0.396-0.395C7.037,4.068,7.214,3.892,7.433,3.892"/>
	<path fill="#FFFFFF" d="M8.835,4.451c0.233,0,0.42,0.188,0.42,0.419c0,0.232-0.188,0.42-0.42,0.42c-0.231,0-0.419-0.188-0.419-0.42
		C8.416,4.639,8.604,4.451,8.835,4.451"/>
	<path fill="#FFFFFF" d="M10.237,5.008c0.245,0,0.442,0.198,0.442,0.442c0,0.245-0.198,0.442-0.442,0.442
		c-0.245,0-0.442-0.198-0.442-0.442C9.795,5.206,9.992,5.008,10.237,5.008"/>
	<path fill="#FFFFFF" d="M11.638,5.571c0.253,0,0.46,0.207,0.46,0.461c0,0.254-0.207,0.459-0.46,0.459
		c-0.254,0-0.461-0.206-0.461-0.459C11.177,5.778,11.384,5.571,11.638,5.571"/>
	<path fill="#FFFFFF" d="M13.041,6.132c0.267,0,0.482,0.217,0.482,0.482c0,0.267-0.216,0.483-0.482,0.483
		c-0.266,0-0.483-0.216-0.483-0.483C12.558,6.349,12.775,6.132,13.041,6.132"/>
	<polygon fill="#FFFFFF" points="4,3.773 4.773,3.773 4.773,3 7.864,3 7.864,3.773 7.091,3.773 7.091,4.545 6.318,4.545 
		6.318,5.318 5.545,5.318 5.545,6.091 4.773,6.091 4.773,6.864 4,6.864 	"/>
	<path fill="#FFFFFF" d="M14.818,10.341c0,1.067-0.865,1.932-1.932,1.932c-1.068,0-1.932-0.865-1.932-1.932s0.864-1.932,1.932-1.932
		C13.954,8.409,14.818,9.274,14.818,10.341"/>
	<path fill="#FFFFFF" d="M14.818,13.045v-0.773h0.772V11.5h0.773v-0.773h0.772V9.955h0.773V9.182h0.772V8.409h0.773V7.636h0.773
		L21,8.409v0.772v0.773h-0.773v0.773h-0.773V11.5h-0.773v0.773h-0.772v0.773h-0.773v0.773h-0.772V20h-5.409v-3.091H7.864v-1.545
		h0.772v-0.773h0.773v-0.772h0.772v-0.773H14.818z M11.727,15.364H12.5v1.545h-0.773v0.772h1.546v-3.091h-1.546V15.364z"/>
</g>
</svg>
