<?xml version="1.0" encoding="UTF-8" standalone="no"?>
<svg width="24px" height="24px" viewBox="0 0 24 24" version="1.1" xmlns="http://www.w3.org/2000/svg" xmlns:xlink="http://www.w3.org/1999/xlink" xmlns:sketch="http://www.bohemiancoding.com/sketch/ns">
    <!-- Generator: Sketch 3.2.2 (9983) - http://www.bohemiancoding.com/sketch -->
    <title>showers-white-24-s1</title>
    <desc>Created with Sketch.</desc>
    <defs></defs>
    <g id="Page-1" stroke="none" stroke-width="1" fill="none" fill-rule="evenodd" sketch:type="MSPage">
        <rect id="gray" fill="#F0F0F0" sketch:type="MSShapeGroup" x="-5" y="-157" width="155" height="191"></rect>
        <g id="Group-5" sketch:type="MSLayerGroup" transform="translate(3.000000, 3.000000)" fill="#0A0B09" opacity="0.1">
            <path d="M5.0061576,12.586352 C4.9561576,12.956352 5.2161576,13.296352 5.5861576,13.356352 C5.9561576,13.416352 6.3061576,13.146352 6.3561576,12.776352 C6.4061576,12.396352 6.1561576,12.066352 5.7761576,12.006352 C5.4061576,11.956352 5.0561576,12.206352 5.0061576,12.586352" id="Fill-976" sketch:type="MSShapeGroup"></path>
            <path d="M5.27891003,10.7365788 C5.32891003,10.3865788 5.08891003,10.0565788 4.73891003,10.0065788 C4.37891003,9.95657878 4.04891003,10.1965788 4.00891003,10.5565788 C3.94891003,10.9165788 4.19891003,11.2265788 4.54891003,11.2765788 C4.89891003,11.3365788 5.23891003,11.0865788 5.27891003,10.7365788" id="Fill-977" sketch:type="MSShapeGroup"></path>
            <path d="M4.61,9 C4.95,9 5.23,9.28 5.23,9.61 C5.23,9.95 4.95,10.23 4.61,10.23 C4.28,10.23 4,9.95 4,9.61 C4,9.28 4.28,9 4.61,9" id="Fill-978" sketch:type="MSShapeGroup"></path>
            <path d="M3.58,7 C3.9,7 4.16,7.26 4.16,7.58 C4.16,7.9 3.9,8.16 3.58,8.16 C3.26,8.16 3,7.9 3,7.58 C3,7.26 3.26,7 3.58,7" id="Fill-979" sketch:type="MSShapeGroup"></path>
            <path d="M2.54,5 C2.85,5 3.09,5.24 3.09,5.54 C3.09,5.84 2.85,6.09 2.54,6.09 C2.24,6.09 2,5.84 2,5.54 C2,5.24 2.24,5 2.54,5" id="Fill-980" sketch:type="MSShapeGroup"></path>
            <path d="M1.51,4 C1.8,4 2.03,4.23 2.03,4.52 C2.03,4.8 1.8,5.03 1.51,5.03 C1.23,5.03 1,4.8 1,4.52 C1,4.23 1.23,4 1.51,4" id="Fill-981" sketch:type="MSShapeGroup"></path>
            <path d="M7.0009756,10.630976 C7.0209756,10.270976 7.3309756,9.98097595 7.7009756,10.000976 C8.0809756,10.020976 8.3609756,10.330976 8.3409756,10.700976 C8.3309756,11.080976 8.0109756,11.360976 7.6409756,11.340976 C7.2709756,11.330976 6.9809756,11.010976 7.0009756,10.630976" id="Fill-982" sketch:type="MSShapeGroup"></path>
            <path d="M6.64,8 C6.99,8 7.28,8.29 7.28,8.64 C7.28,9 6.99,9.28 6.64,9.28 C6.28,9.28 6,9 6,8.64 C6,8.29 6.28,8 6.64,8" id="Fill-983" sketch:type="MSShapeGroup"></path>
            <path d="M5.61,7 C5.94,7 6.21,7.27 6.21,7.6 C6.21,7.94 5.94,8.21 5.61,8.21 C5.27,8.21 5,7.94 5,7.6 C5,7.27 5.27,7 5.61,7" id="Fill-984" sketch:type="MSShapeGroup"></path>
            <path d="M4.57,6 C4.89,6 5.15,6.26 5.15,6.58 C5.15,6.9 4.89,7.15 4.57,7.15 C4.26,7.15 4,6.9 4,6.58 C4,6.26 4.26,6 4.57,6" id="Fill-985" sketch:type="MSShapeGroup"></path>
            <path d="M3.54,4 C3.84,4 4.09,4.25 4.09,4.55 C4.09,4.85 3.84,5.09 3.54,5.09 C3.24,5.09 3,4.85 3,4.55 C3,4.25 3.24,4 3.54,4" id="Fill-986" sketch:type="MSShapeGroup"></path>
            <path d="M2.51,3 C2.79,3 3.02,3.23 3.02,3.51 C3.02,3.8 2.79,4.02 2.51,4.02 C2.23,4.02 2,3.8 2,3.51 C2,3.23 2.23,3 2.51,3" id="Fill-987" sketch:type="MSShapeGroup"></path>
            <path d="M9.71097526,7.3502596 C9.33097526,7.3702596 9.01097526,7.0802596 9.00097526,6.7102596 C8.98097526,6.3302596 9.27097526,6.0102596 9.65097526,6.0002596 C10.0109753,5.9902596 10.3309753,6.2702596 10.3509753,6.6502596 C10.3709753,7.0102596 10.0809753,7.3302596 9.71097526,7.3502596" id="Fill-988" sketch:type="MSShapeGroup"></path>
            <path d="M8.27026901,5.61104283 C8.29026901,5.95104283 8.02026901,6.24104283 7.67026901,6.26104283 C7.32026901,6.27104283 7.02026901,6.01104283 7.00026901,5.66104283 C6.99026901,5.31104283 7.26026901,5.02104283 7.61026901,5.00104283 C7.95026901,4.98104283 8.25026901,5.25104283 8.27026901,5.61104283" id="Fill-989" sketch:type="MSShapeGroup"></path>
            <path d="M7.18108119,4.57112043 C7.20108119,4.89112043 6.95108119,5.16112043 6.62108119,5.18112043 C6.30108119,5.19112043 6.01108119,4.94112043 6.00108119,4.62112043 C5.98108119,4.29112043 6.24108119,4.01112043 6.57108119,4.00112043 C6.89108119,3.98112043 7.17108119,4.23112043 7.18108119,4.57112043" id="Fill-990" sketch:type="MSShapeGroup"></path>
            <path d="M4.55,3 C4.85,3 5.1,3.24 5.1,3.55 C5.1,3.85 4.85,4.1 4.55,4.1 C4.25,4.1 4,3.85 4,3.55 C4,3.24 4.25,3 4.55,3" id="Fill-991" sketch:type="MSShapeGroup"></path>
            <path d="M3.51,2 C3.79,2 4.02,2.22 4.02,2.51 C4.02,2.79 3.79,3.02 3.51,3.02 C3.22,3.02 3,2.79 3,2.51 C3,2.22 3.22,2 3.51,2" id="Fill-992" sketch:type="MSShapeGroup"></path>
            <path d="M4.51,1 C4.8,1 5.02,1.23 5.02,1.51 C5.02,1.79 4.8,2.02 4.51,2.02 C4.23,2.02 4,1.79 4,1.51 C4,1.23 4.23,1 4.51,1" id="Fill-993" sketch:type="MSShapeGroup"></path>
            <path d="M6.54,2 C6.84,2 7.08,2.24 7.08,2.54 C7.08,2.84 6.84,3.09 6.54,3.09 C6.24,3.09 6,2.84 6,2.54 C6,2.24 6.24,2 6.54,2" id="Fill-994" sketch:type="MSShapeGroup"></path>
            <path d="M8.57,3 C8.89,3 9.14,3.26 9.14,3.57 C9.14,3.89 8.89,4.15 8.57,4.15 C8.26,4.15 8,3.89 8,3.57 C8,3.26 8.26,3 8.57,3" id="Fill-995" sketch:type="MSShapeGroup"></path>
            <path d="M9.59,3 C9.92,3 10.19,3.27 10.19,3.6 C10.19,3.93 9.92,4.19 9.59,4.19 C9.27,4.19 9,3.93 9,3.6 C9,3.27 9.27,3 9.59,3" id="Fill-996" sketch:type="MSShapeGroup"></path>
            <path d="M11.62,4 C11.97,4 12.24,4.28 12.24,4.62 C12.24,4.97 11.97,5.25 11.62,5.25 C11.28,5.25 11,4.97 11,4.62 C11,4.28 11.28,4 11.62,4" id="Fill-997" sketch:type="MSShapeGroup"></path>
            <path d="M0,1 L1,1 L1,0 L5,0 L5,1 L4,1 L4,2 L3,2 L3,3 L2,3 L2,4 L1,4 L1,5 L0,5 L0,1" id="Fill-998" sketch:type="MSShapeGroup"></path>
            <path d="M14,9.5 C14,10.88 12.88,12 11.5,12 C10.12,12 9,10.88 9,9.5 C9,8.12 10.12,7 11.5,7 C12.88,7 14,8.12 14,9.5" id="Fill-999" sketch:type="MSShapeGroup"></path>
            <path d="M10,16 L11,16 L11,18 L10,18 L10,19 L12,19 L12,15 L10,15 L10,16 L10,16 Z M14,13 L14,12 L15,12 L15,11 L16,11 L16,10 L17,10 L17,9 L18,9 L18,8 L19,8 L19,7 L20,7 L20,6 L21,6 L22,7 L22,9 L21,9 L21,10 L20,10 L20,11 L19,11 L19,12 L18,12 L18,13 L17,13 L17,14 L16,14 L16,22 L9,22 L9,18 L5,18 L5,16 L6,16 L6,15 L7,15 L7,14 L8,14 L8,13 L14,13 L14,13 Z" id="Fill-1000" sketch:type="MSShapeGroup"></path>
        </g>
        <g id="Group-4" sketch:type="MSLayerGroup" transform="translate(2.000000, 2.000000)" fill="#0A0B09" opacity="0.2">
            <path d="M5.0061576,12.586352 C4.9561576,12.956352 5.2161576,13.296352 5.5861576,13.356352 C5.9561576,13.416352 6.3061576,13.146352 6.3561576,12.776352 C6.4061576,12.396352 6.1561576,12.066352 5.7761576,12.006352 C5.4061576,11.956352 5.0561576,12.206352 5.0061576,12.586352" id="Fill-976" sketch:type="MSShapeGroup"></path>
            <path d="M5.27891003,10.7365788 C5.32891003,10.3865788 5.08891003,10.0565788 4.73891003,10.0065788 C4.37891003,9.95657878 4.04891003,10.1965788 4.00891003,10.5565788 C3.94891003,10.9165788 4.19891003,11.2265788 4.54891003,11.2765788 C4.89891003,11.3365788 5.23891003,11.0865788 5.27891003,10.7365788" id="Fill-977" sketch:type="MSShapeGroup"></path>
            <path d="M4.61,9 C4.95,9 5.23,9.28 5.23,9.61 C5.23,9.95 4.95,10.23 4.61,10.23 C4.28,10.23 4,9.95 4,9.61 C4,9.28 4.28,9 4.61,9" id="Fill-978" sketch:type="MSShapeGroup"></path>
            <path d="M3.58,7 C3.9,7 4.16,7.26 4.16,7.58 C4.16,7.9 3.9,8.16 3.58,8.16 C3.26,8.16 3,7.9 3,7.58 C3,7.26 3.26,7 3.58,7" id="Fill-979" sketch:type="MSShapeGroup"></path>
            <path d="M2.54,5 C2.85,5 3.09,5.24 3.09,5.54 C3.09,5.84 2.85,6.09 2.54,6.09 C2.24,6.09 2,5.84 2,5.54 C2,5.24 2.24,5 2.54,5" id="Fill-980" sketch:type="MSShapeGroup"></path>
            <path d="M1.51,4 C1.8,4 2.03,4.23 2.03,4.52 C2.03,4.8 1.8,5.03 1.51,5.03 C1.23,5.03 1,4.8 1,4.52 C1,4.23 1.23,4 1.51,4" id="Fill-981" sketch:type="MSShapeGroup"></path>
            <path d="M7.0009756,10.630976 C7.0209756,10.270976 7.3309756,9.98097595 7.7009756,10.000976 C8.0809756,10.020976 8.3609756,10.330976 8.3409756,10.700976 C8.3309756,11.080976 8.0109756,11.360976 7.6409756,11.340976 C7.2709756,11.330976 6.9809756,11.010976 7.0009756,10.630976" id="Fill-982" sketch:type="MSShapeGroup"></path>
            <path d="M6.64,8 C6.99,8 7.28,8.29 7.28,8.64 C7.28,9 6.99,9.28 6.64,9.28 C6.28,9.28 6,9 6,8.64 C6,8.29 6.28,8 6.64,8" id="Fill-983" sketch:type="MSShapeGroup"></path>
            <path d="M5.61,7 C5.94,7 6.21,7.27 6.21,7.6 C6.21,7.94 5.94,8.21 5.61,8.21 C5.27,8.21 5,7.94 5,7.6 C5,7.27 5.27,7 5.61,7" id="Fill-984" sketch:type="MSShapeGroup"></path>
            <path d="M4.57,6 C4.89,6 5.15,6.26 5.15,6.58 C5.15,6.9 4.89,7.15 4.57,7.15 C4.26,7.15 4,6.9 4,6.58 C4,6.26 4.26,6 4.57,6" id="Fill-985" sketch:type="MSShapeGroup"></path>
            <path d="M3.54,4 C3.84,4 4.09,4.25 4.09,4.55 C4.09,4.85 3.84,5.09 3.54,5.09 C3.24,5.09 3,4.85 3,4.55 C3,4.25 3.24,4 3.54,4" id="Fill-986" sketch:type="MSShapeGroup"></path>
            <path d="M2.51,3 C2.79,3 3.02,3.23 3.02,3.51 C3.02,3.8 2.79,4.02 2.51,4.02 C2.23,4.02 2,3.8 2,3.51 C2,3.23 2.23,3 2.51,3" id="Fill-987" sketch:type="MSShapeGroup"></path>
            <path d="M9.71097526,7.3502596 C9.33097526,7.3702596 9.01097526,7.0802596 9.00097526,6.7102596 C8.98097526,6.3302596 9.27097526,6.0102596 9.65097526,6.0002596 C10.0109753,5.9902596 10.3309753,6.2702596 10.3509753,6.6502596 C10.3709753,7.0102596 10.0809753,7.3302596 9.71097526,7.3502596" id="Fill-988" sketch:type="MSShapeGroup"></path>
            <path d="M8.27026901,5.61104283 C8.29026901,5.95104283 8.02026901,6.24104283 7.67026901,6.26104283 C7.32026901,6.27104283 7.02026901,6.01104283 7.00026901,5.66104283 C6.99026901,5.31104283 7.26026901,5.02104283 7.61026901,5.00104283 C7.95026901,4.98104283 8.25026901,5.25104283 8.27026901,5.61104283" id="Fill-989" sketch:type="MSShapeGroup"></path>
            <path d="M7.18108119,4.57112043 C7.20108119,4.89112043 6.95108119,5.16112043 6.62108119,5.18112043 C6.30108119,5.19112043 6.01108119,4.94112043 6.00108119,4.62112043 C5.98108119,4.29112043 6.24108119,4.01112043 6.57108119,4.00112043 C6.89108119,3.98112043 7.17108119,4.23112043 7.18108119,4.57112043" id="Fill-990" sketch:type="MSShapeGroup"></path>
            <path d="M4.55,3 C4.85,3 5.1,3.24 5.1,3.55 C5.1,3.85 4.85,4.1 4.55,4.1 C4.25,4.1 4,3.85 4,3.55 C4,3.24 4.25,3 4.55,3" id="Fill-991" sketch:type="MSShapeGroup"></path>
            <path d="M3.51,2 C3.79,2 4.02,2.22 4.02,2.51 C4.02,2.79 3.79,3.02 3.51,3.02 C3.22,3.02 3,2.79 3,2.51 C3,2.22 3.22,2 3.51,2" id="Fill-992" sketch:type="MSShapeGroup"></path>
            <path d="M4.51,1 C4.8,1 5.02,1.23 5.02,1.51 C5.02,1.79 4.8,2.02 4.51,2.02 C4.23,2.02 4,1.79 4,1.51 C4,1.23 4.23,1 4.51,1" id="Fill-993" sketch:type="MSShapeGroup"></path>
            <path d="M6.54,2 C6.84,2 7.08,2.24 7.08,2.54 C7.08,2.84 6.84,3.09 6.54,3.09 C6.24,3.09 6,2.84 6,2.54 C6,2.24 6.24,2 6.54,2" id="Fill-994" sketch:type="MSShapeGroup"></path>
            <path d="M8.57,3 C8.89,3 9.14,3.26 9.14,3.57 C9.14,3.89 8.89,4.15 8.57,4.15 C8.26,4.15 8,3.89 8,3.57 C8,3.26 8.26,3 8.57,3" id="Fill-995" sketch:type="MSShapeGroup"></path>
            <path d="M9.59,3 C9.92,3 10.19,3.27 10.19,3.6 C10.19,3.93 9.92,4.19 9.59,4.19 C9.27,4.19 9,3.93 9,3.6 C9,3.27 9.27,3 9.59,3" id="Fill-996" sketch:type="MSShapeGroup"></path>
            <path d="M11.62,4 C11.97,4 12.24,4.28 12.24,4.62 C12.24,4.97 11.97,5.25 11.62,5.25 C11.28,5.25 11,4.97 11,4.62 C11,4.28 11.28,4 11.62,4" id="Fill-997" sketch:type="MSShapeGroup"></path>
            <path d="M0,1 L1,1 L1,0 L5,0 L5,1 L4,1 L4,2 L3,2 L3,3 L2,3 L2,4 L1,4 L1,5 L0,5 L0,1" id="Fill-998" sketch:type="MSShapeGroup"></path>
            <path d="M14,9.5 C14,10.88 12.88,12 11.5,12 C10.12,12 9,10.88 9,9.5 C9,8.12 10.12,7 11.5,7 C12.88,7 14,8.12 14,9.5" id="Fill-999" sketch:type="MSShapeGroup"></path>
            <path d="M10,16 L11,16 L11,18 L10,18 L10,19 L12,19 L12,15 L10,15 L10,16 L10,16 Z M14,13 L14,12 L15,12 L15,11 L16,11 L16,10 L17,10 L17,9 L18,9 L18,8 L19,8 L19,7 L20,7 L20,6 L21,6 L22,7 L22,9 L21,9 L21,10 L20,10 L20,11 L19,11 L19,12 L18,12 L18,13 L17,13 L17,14 L16,14 L16,22 L9,22 L9,18 L5,18 L5,16 L6,16 L6,15 L7,15 L7,14 L8,14 L8,13 L14,13 L14,13 Z" id="Fill-1000" sketch:type="MSShapeGroup"></path>
        </g>
        <g id="Group" sketch:type="MSLayerGroup" transform="translate(1.000000, 1.000000)" fill="#FFFFFF">
            <path d="M5.0061576,12.586352 C4.9561576,12.956352 5.2161576,13.296352 5.5861576,13.356352 C5.9561576,13.416352 6.3061576,13.146352 6.3561576,12.776352 C6.4061576,12.396352 6.1561576,12.066352 5.7761576,12.006352 C5.4061576,11.956352 5.0561576,12.206352 5.0061576,12.586352" id="Fill-976" sketch:type="MSShapeGroup"></path>
            <path d="M5.27891003,10.7365788 C5.32891003,10.3865788 5.08891003,10.0565788 4.73891003,10.0065788 C4.37891003,9.95657878 4.04891003,10.1965788 4.00891003,10.5565788 C3.94891003,10.9165788 4.19891003,11.2265788 4.54891003,11.2765788 C4.89891003,11.3365788 5.23891003,11.0865788 5.27891003,10.7365788" id="Fill-977" sketch:type="MSShapeGroup"></path>
            <path d="M4.61,9 C4.95,9 5.23,9.28 5.23,9.61 C5.23,9.95 4.95,10.23 4.61,10.23 C4.28,10.23 4,9.95 4,9.61 C4,9.28 4.28,9 4.61,9" id="Fill-978" sketch:type="MSShapeGroup"></path>
            <path d="M3.58,7 C3.9,7 4.16,7.26 4.16,7.58 C4.16,7.9 3.9,8.16 3.58,8.16 C3.26,8.16 3,7.9 3,7.58 C3,7.26 3.26,7 3.58,7" id="Fill-979" sketch:type="MSShapeGroup"></path>
            <path d="M2.54,5 C2.85,5 3.09,5.24 3.09,5.54 C3.09,5.84 2.85,6.09 2.54,6.09 C2.24,6.09 2,5.84 2,5.54 C2,5.24 2.24,5 2.54,5" id="Fill-980" sketch:type="MSShapeGroup"></path>
            <path d="M1.51,4 C1.8,4 2.03,4.23 2.03,4.52 C2.03,4.8 1.8,5.03 1.51,5.03 C1.23,5.03 1,4.8 1,4.52 C1,4.23 1.23,4 1.51,4" id="Fill-981" sketch:type="MSShapeGroup"></path>
            <path d="M7.0009756,10.630976 C7.0209756,10.270976 7.3309756,9.98097595 7.7009756,10.000976 C8.0809756,10.020976 8.3609756,10.330976 8.3409756,10.700976 C8.3309756,11.080976 8.0109756,11.360976 7.6409756,11.340976 C7.2709756,11.330976 6.9809756,11.010976 7.0009756,10.630976" id="Fill-982" sketch:type="MSShapeGroup"></path>
            <path d="M6.64,8 C6.99,8 7.28,8.29 7.28,8.64 C7.28,9 6.99,9.28 6.64,9.28 C6.28,9.28 6,9 6,8.64 C6,8.29 6.28,8 6.64,8" id="Fill-983" sketch:type="MSShapeGroup"></path>
            <path d="M5.61,7 C5.94,7 6.21,7.27 6.21,7.6 C6.21,7.94 5.94,8.21 5.61,8.21 C5.27,8.21 5,7.94 5,7.6 C5,7.27 5.27,7 5.61,7" id="Fill-984" sketch:type="MSShapeGroup"></path>
            <path d="M4.57,6 C4.89,6 5.15,6.26 5.15,6.58 C5.15,6.9 4.89,7.15 4.57,7.15 C4.26,7.15 4,6.9 4,6.58 C4,6.26 4.26,6 4.57,6" id="Fill-985" sketch:type="MSShapeGroup"></path>
            <path d="M3.54,4 C3.84,4 4.09,4.25 4.09,4.55 C4.09,4.85 3.84,5.09 3.54,5.09 C3.24,5.09 3,4.85 3,4.55 C3,4.25 3.24,4 3.54,4" id="Fill-986" sketch:type="MSShapeGroup"></path>
            <path d="M2.51,3 C2.79,3 3.02,3.23 3.02,3.51 C3.02,3.8 2.79,4.02 2.51,4.02 C2.23,4.02 2,3.8 2,3.51 C2,3.23 2.23,3 2.51,3" id="Fill-987" sketch:type="MSShapeGroup"></path>
            <path d="M9.71097526,7.3502596 C9.33097526,7.3702596 9.01097526,7.0802596 9.00097526,6.7102596 C8.98097526,6.3302596 9.27097526,6.0102596 9.65097526,6.0002596 C10.0109753,5.9902596 10.3309753,6.2702596 10.3509753,6.6502596 C10.3709753,7.0102596 10.0809753,7.3302596 9.71097526,7.3502596" id="Fill-988" sketch:type="MSShapeGroup"></path>
            <path d="M8.27026901,5.61104283 C8.29026901,5.95104283 8.02026901,6.24104283 7.67026901,6.26104283 C7.32026901,6.27104283 7.02026901,6.01104283 7.00026901,5.66104283 C6.99026901,5.31104283 7.26026901,5.02104283 7.61026901,5.00104283 C7.95026901,4.98104283 8.25026901,5.25104283 8.27026901,5.61104283" id="Fill-989" sketch:type="MSShapeGroup"></path>
            <path d="M7.18108119,4.57112043 C7.20108119,4.89112043 6.95108119,5.16112043 6.62108119,5.18112043 C6.30108119,5.19112043 6.01108119,4.94112043 6.00108119,4.62112043 C5.98108119,4.29112043 6.24108119,4.01112043 6.57108119,4.00112043 C6.89108119,3.98112043 7.17108119,4.23112043 7.18108119,4.57112043" id="Fill-990" sketch:type="MSShapeGroup"></path>
            <path d="M4.55,3 C4.85,3 5.1,3.24 5.1,3.55 C5.1,3.85 4.85,4.1 4.55,4.1 C4.25,4.1 4,3.85 4,3.55 C4,3.24 4.25,3 4.55,3" id="Fill-991" sketch:type="MSShapeGroup"></path>
            <path d="M3.51,2 C3.79,2 4.02,2.22 4.02,2.51 C4.02,2.79 3.79,3.02 3.51,3.02 C3.22,3.02 3,2.79 3,2.51 C3,2.22 3.22,2 3.51,2" id="Fill-992" sketch:type="MSShapeGroup"></path>
            <path d="M4.51,1 C4.8,1 5.02,1.23 5.02,1.51 C5.02,1.79 4.8,2.02 4.51,2.02 C4.23,2.02 4,1.79 4,1.51 C4,1.23 4.23,1 4.51,1" id="Fill-993" sketch:type="MSShapeGroup"></path>
            <path d="M6.54,2 C6.84,2 7.08,2.24 7.08,2.54 C7.08,2.84 6.84,3.09 6.54,3.09 C6.24,3.09 6,2.84 6,2.54 C6,2.24 6.24,2 6.54,2" id="Fill-994" sketch:type="MSShapeGroup"></path>
            <path d="M8.57,3 C8.89,3 9.14,3.26 9.14,3.57 C9.14,3.89 8.89,4.15 8.57,4.15 C8.26,4.15 8,3.89 8,3.57 C8,3.26 8.26,3 8.57,3" id="Fill-995" sketch:type="MSShapeGroup"></path>
            <path d="M9.59,3 C9.92,3 10.19,3.27 10.19,3.6 C10.19,3.93 9.92,4.19 9.59,4.19 C9.27,4.19 9,3.93 9,3.6 C9,3.27 9.27,3 9.59,3" id="Fill-996" sketch:type="MSShapeGroup"></path>
            <path d="M11.62,4 C11.97,4 12.24,4.28 12.24,4.62 C12.24,4.97 11.97,5.25 11.62,5.25 C11.28,5.25 11,4.97 11,4.62 C11,4.28 11.28,4 11.62,4" id="Fill-997" sketch:type="MSShapeGroup"></path>
            <path d="M0,1 L1,1 L1,0 L5,0 L5,1 L4,1 L4,2 L3,2 L3,3 L2,3 L2,4 L1,4 L1,5 L0,5 L0,1" id="Fill-998" sketch:type="MSShapeGroup"></path>
            <path d="M14,9.5 C14,10.88 12.88,12 11.5,12 C10.12,12 9,10.88 9,9.5 C9,8.12 10.12,7 11.5,7 C12.88,7 14,8.12 14,9.5" id="Fill-999" sketch:type="MSShapeGroup"></path>
            <path d="M10,16 L11,16 L11,18 L10,18 L10,19 L12,19 L12,15 L10,15 L10,16 L10,16 Z M14,13 L14,12 L15,12 L15,11 L16,11 L16,10 L17,10 L17,9 L18,9 L18,8 L19,8 L19,7 L20,7 L20,6 L21,6 L22,7 L22,9 L21,9 L21,10 L20,10 L20,11 L19,11 L19,12 L18,12 L18,13 L17,13 L17,14 L16,14 L16,22 L9,22 L9,18 L5,18 L5,16 L6,16 L6,15 L7,15 L7,14 L8,14 L8,13 L14,13 L14,13 Z" id="Fill-1000" sketch:type="MSShapeGroup"></path>
        </g>
    </g>
</svg>