<?xml version="1.0" encoding="utf-8"?>
<!-- Generator: Adobe Illustrator 18.0.0, SVG Export Plug-In . SVG Version: 6.00 Build 0)  -->
<!DOCTYPE svg PUBLIC "-//W3C//DTD SVG 1.1//EN" "http://www.w3.org/Graphics/SVG/1.1/DTD/svg11.dtd" [
	<!ENTITY ns_flows "http://ns.adobe.com/Flows/1.0/">
	<!ENTITY ns_extend "http://ns.adobe.com/Extensibility/1.0/">
	<!ENTITY ns_ai "http://ns.adobe.com/AdobeIllustrator/10.0/">
	<!ENTITY ns_graphs "http://ns.adobe.com/Graphs/1.0/">
	<!ENTITY st0 "opacity:0.1;">
	<!ENTITY st1 "fill:#010101;">
	<!ENTITY st2 "opacity:0.2;">
]>
<svg version="1.1" id="Layer_1" xmlns:x="&ns_extend;" xmlns:i="&ns_ai;" xmlns:graph="&ns_graphs;"
	 xmlns="http://www.w3.org/2000/svg" xmlns:xlink="http://www.w3.org/1999/xlink" xmlns:a="http://ns.adobe.com/AdobeSVGViewerExtensions/3.0/"
	 x="0px" y="0px" width="24px" height="24px" viewBox="0 0 24 24" style="enable-background:new 0 0 24 24;" xml:space="preserve">
<g style="&st0;">
	<path style="&st1;" d="M6.9,14.8c-0.1,0.4,0.2,0.7,0.6,0.8c0.4,0.1,0.7-0.2,0.8-0.6c0.1-0.4-0.2-0.7-0.6-0.8
		C7.3,14.1,6.9,14.4,6.9,14.8z"/>
	<path style="&st1;" d="M7.5,13.2c0.1-0.4-0.2-0.7-0.5-0.7S6.3,12.7,6.2,13c-0.1,0.4,0.2,0.7,0.5,0.7C7.1,13.8,7.4,13.6,7.5,13.2z"
		/>
	<circle style="&st1;" cx="6.1" cy="11.4" r="0.6"/>
	<circle style="&st1;" cx="5.4" cy="9.6" r="0.6"/>
	<circle style="&st1;" cx="4.7" cy="7.9" r="0.5"/>
	<circle style="&st1;" cx="4" cy="6.1" r="0.5"/>
	<path style="&st1;" d="M9.4,12.3c0-0.4,0.3-0.7,0.7-0.6c0.4,0,0.7,0.3,0.6,0.7c0,0.4-0.3,0.7-0.7,0.6C9.7,13,9.4,12.7,9.4,12.3z"/>
	<circle style="&st1;" cx="9" cy="10.9" r="0.6"/>
	<circle style="&st1;" cx="8" cy="9.5" r="0.6"/>
	<circle style="&st1;" cx="6.9" cy="8.1" r="0.6"/>
	<circle style="&st1;" cx="5.9" cy="6.7" r="0.5"/>
	<circle style="&st1;" cx="4.8" cy="5.3" r="0.5"/>
	<path style="&st1;" d="M11.3,9.4c-0.4,0-0.7-0.3-0.7-0.6c0-0.4,0.3-0.7,0.6-0.7c0.4,0,0.7,0.3,0.7,0.6C11.9,9.1,11.6,9.4,11.3,9.4z
		"/>
	<path style="&st1;" d="M10.5,7.7c0,0.3-0.2,0.6-0.6,0.7S9.2,8.1,9.2,7.7c0-0.4,0.3-0.6,0.6-0.7C10.1,7,10.4,7.3,10.5,7.7z"/>
	<path style="&st1;" d="M9,6.6c0,0.3-0.2,0.6-0.6,0.6C8.1,7.2,7.8,7,7.8,6.6C7.8,6.3,8.1,6,8.4,6C8.7,6,9,6.3,9,6.6z"/>
	<circle style="&st1;" cx="7" cy="5.6" r="0.6"/>
	<circle style="&st1;" cx="5.6" cy="4.5" r="0.5"/>
	<circle style="&st1;" cx="6.4" cy="3.7" r="0.5"/>
	<circle style="&st1;" cx="8.3" cy="4.4" r="0.5"/>
	<circle style="&st1;" cx="10.1" cy="5.2" r="0.6"/>
	<circle style="&st1;" cx="11.9" cy="5.9" r="0.6"/>
	<circle style="&st1;" cx="13.7" cy="6.7" r="0.6"/>
	<polygon style="&st1;" points="2,3 3,3 3,2 7,2 7,3 6,3 6,4 5,4 5,5 4,5 4,6 3,6 3,7 2,7 	"/>
	<circle style="&st1;" cx="13.5" cy="11.5" r="2.5"/>
	<path style="&st1;" d="M16,15v-1h1v-1h1v-1h1v-1h1v-1h1V9h1V8h1l1,1v1v1h-1v1h-1v1h-1v1h-1v1h-1v1h-1v8h-7v-4H7v-2h1v-1h1v-1h1v-1
		H16z M12,18h1v2h-1v1h2v-4h-2V18z"/>
</g>
<g style="&st2;">
	<path style="&st1;" d="M5.9,13.8c-0.1,0.4,0.2,0.7,0.6,0.8c0.4,0.1,0.7-0.2,0.8-0.6c0.1-0.4-0.2-0.7-0.6-0.8
		C6.3,13.1,5.9,13.4,5.9,13.8z"/>
	<path style="&st1;" d="M6.5,12.2c0.1-0.4-0.2-0.7-0.5-0.7S5.3,11.7,5.2,12c-0.1,0.4,0.2,0.7,0.5,0.7C6.1,12.8,6.4,12.6,6.5,12.2z"
		/>
	<circle style="&st1;" cx="5.1" cy="10.4" r="0.6"/>
	<circle style="&st1;" cx="4.4" cy="8.6" r="0.6"/>
	<circle style="&st1;" cx="3.7" cy="6.9" r="0.5"/>
	<circle style="&st1;" cx="3" cy="5.1" r="0.5"/>
	<path style="&st1;" d="M8.4,11.3c0-0.4,0.3-0.7,0.7-0.6c0.4,0,0.7,0.3,0.6,0.7c0,0.4-0.3,0.7-0.7,0.6C8.7,12,8.4,11.7,8.4,11.3z"/>
	<circle style="&st1;" cx="8" cy="9.9" r="0.6"/>
	<circle style="&st1;" cx="7" cy="8.5" r="0.6"/>
	<circle style="&st1;" cx="5.9" cy="7.1" r="0.6"/>
	<circle style="&st1;" cx="4.9" cy="5.7" r="0.5"/>
	<circle style="&st1;" cx="3.8" cy="4.3" r="0.5"/>
	<path style="&st1;" d="M10.3,8.4c-0.4,0-0.7-0.3-0.7-0.6c0-0.4,0.3-0.7,0.6-0.7c0.4,0,0.7,0.3,0.7,0.6C10.9,8.1,10.6,8.4,10.3,8.4z
		"/>
	<path style="&st1;" d="M9.5,6.7c0,0.3-0.2,0.6-0.6,0.7S8.2,7.1,8.2,6.7c0-0.4,0.3-0.6,0.6-0.7C9.1,6,9.4,6.3,9.5,6.7z"/>
	<path style="&st1;" d="M8,5.6c0,0.3-0.2,0.6-0.6,0.6C7.1,6.2,6.8,6,6.8,5.6C6.8,5.3,7.1,5,7.4,5C7.7,5,8,5.3,8,5.6z"/>
	<circle style="&st1;" cx="6" cy="4.6" r="0.6"/>
	<circle style="&st1;" cx="4.6" cy="3.5" r="0.5"/>
	<circle style="&st1;" cx="5.4" cy="2.7" r="0.5"/>
	<circle style="&st1;" cx="7.3" cy="3.4" r="0.5"/>
	<circle style="&st1;" cx="9.1" cy="4.2" r="0.6"/>
	<circle style="&st1;" cx="10.9" cy="4.9" r="0.6"/>
	<circle style="&st1;" cx="12.7" cy="5.7" r="0.6"/>
	<polygon style="&st1;" points="1,2 2,2 2,1 6,1 6,2 5,2 5,3 4,3 4,4 3,4 3,5 2,5 2,6 1,6 	"/>
	<circle style="&st1;" cx="12.5" cy="10.5" r="2.5"/>
	<path style="&st1;" d="M15,14v-1h1v-1h1v-1h1v-1h1V9h1V8h1V7h1l1,1v1v1h-1v1h-1v1h-1v1h-1v1h-1v1h-1v8h-7v-4H6v-2h1v-1h1v-1h1v-1
		H15z M11,17h1v2h-1v1h2v-4h-2V17z"/>
</g>
<g>
	<path style="&st1;" d="M4.9,12.8c-0.1,0.4,0.2,0.7,0.6,0.8c0.4,0.1,0.7-0.2,0.8-0.6c0.1-0.4-0.2-0.7-0.6-0.8
		C5.3,12.1,4.9,12.4,4.9,12.8z"/>
	<path style="&st1;" d="M5.5,11.2c0.1-0.4-0.2-0.7-0.5-0.7S4.3,10.7,4.2,11c-0.1,0.4,0.2,0.7,0.5,0.7C5.1,11.8,5.4,11.6,5.5,11.2z"
		/>
	<circle style="&st1;" cx="4.1" cy="9.4" r="0.6"/>
	<circle style="&st1;" cx="3.4" cy="7.6" r="0.6"/>
	<circle style="&st1;" cx="2.7" cy="5.9" r="0.5"/>
	<circle style="&st1;" cx="2" cy="4.1" r="0.5"/>
	<path style="&st1;" d="M7.4,10.3c0-0.4,0.3-0.7,0.7-0.6c0.4,0,0.7,0.3,0.6,0.7c0,0.4-0.3,0.7-0.7,0.6C7.7,11,7.4,10.7,7.4,10.3z"/>
	<circle style="&st1;" cx="7" cy="8.9" r="0.6"/>
	<circle style="&st1;" cx="6" cy="7.5" r="0.6"/>
	<circle style="&st1;" cx="4.9" cy="6.1" r="0.6"/>
	<circle style="&st1;" cx="3.9" cy="4.7" r="0.5"/>
	<circle style="&st1;" cx="2.8" cy="3.3" r="0.5"/>
	<path style="&st1;" d="M9.3,7.4c-0.4,0-0.7-0.3-0.7-0.6c0-0.4,0.3-0.7,0.6-0.7c0.4,0,0.7,0.3,0.7,0.6C9.9,7.1,9.6,7.4,9.3,7.4z"/>
	<path style="&st1;" d="M8.5,5.7c0,0.3-0.2,0.6-0.6,0.7S7.2,6.1,7.2,5.7c0-0.4,0.3-0.6,0.6-0.7C8.1,5,8.4,5.3,8.5,5.7z"/>
	<path style="&st1;" d="M7,4.6c0,0.3-0.2,0.6-0.6,0.6C6.1,5.2,5.8,5,5.8,4.6C5.8,4.3,6.1,4,6.4,4C6.7,4,7,4.3,7,4.6z"/>
	<circle style="&st1;" cx="5" cy="3.6" r="0.6"/>
	<circle style="&st1;" cx="3.6" cy="2.5" r="0.5"/>
	<circle style="&st1;" cx="4.4" cy="1.7" r="0.5"/>
	<circle style="&st1;" cx="6.3" cy="2.4" r="0.5"/>
	<circle style="&st1;" cx="8.1" cy="3.2" r="0.6"/>
	<circle style="&st1;" cx="9.9" cy="3.9" r="0.6"/>
	<circle style="&st1;" cx="11.7" cy="4.7" r="0.6"/>
	<polygon style="&st1;" points="0,1 1,1 1,0 5,0 5,1 4,1 4,2 3,2 3,3 2,3 2,4 1,4 1,5 0,5 	"/>
	<circle style="&st1;" cx="11.5" cy="9.5" r="2.5"/>
	<path style="&st1;" d="M14,13v-1h1v-1h1v-1h1V9h1V8h1V7h1V6h1l1,1v1v1h-1v1h-1v1h-1v1h-1v1h-1v1h-1v8H9v-4H5v-2h1v-1h1v-1h1v-1H14z
		 M10,16h1v2h-1v1h2v-4h-2V16z"/>
</g>
</svg>
