<?xml version="1.0" encoding="utf-8"?>
<!-- Generator: Adobe Illustrator 18.1.1, SVG Export Plug-In . SVG Version: 6.00 Build 0)  -->
<svg version="1.1" xmlns="http://www.w3.org/2000/svg" xmlns:xlink="http://www.w3.org/1999/xlink" x="0px" y="0px"
	 viewBox="0 0 18 18" enable-background="new 0 0 18 18" xml:space="preserve">
<g id="shadows">
	<g opacity="0.2">
		<path d="M6.543,9.415c-0.029,0.19,0.1,0.359,0.286,0.385c0.187,0.03,0.363-0.105,0.385-0.286c0.027-0.189-0.099-0.36-0.287-0.385
			C6.742,9.102,6.566,9.228,6.543,9.415"/>
		<path d="M6.837,8.64c0.026-0.18-0.096-0.342-0.273-0.367C6.386,8.248,6.223,8.37,6.197,8.545C6.172,8.727,6.295,8.885,6.47,8.91
			C6.648,8.938,6.813,8.813,6.837,8.64"/>
		<path d="M6.158,7.415c0.169,0,0.306,0.137,0.306,0.306c0,0.169-0.136,0.306-0.306,0.306c-0.169,0-0.306-0.136-0.306-0.306
			C5.852,7.552,5.989,7.415,6.158,7.415"/>
		<path d="M5.797,6.559c0.16,0,0.29,0.13,0.29,0.289c0,0.16-0.13,0.291-0.29,0.291c-0.159,0-0.29-0.131-0.29-0.291
			C5.507,6.689,5.638,6.559,5.797,6.559"/>
		<path d="M5.438,5.703c0.15,0,0.273,0.123,0.273,0.274c0,0.15-0.122,0.273-0.273,0.273S5.166,6.127,5.166,5.977
			C5.166,5.826,5.288,5.703,5.438,5.703"/>
		<path d="M5.078,4.847c0.142,0,0.257,0.115,0.257,0.257c0,0.142-0.115,0.257-0.257,0.257c-0.142,0-0.257-0.115-0.257-0.257
			C4.821,4.962,4.936,4.847,5.078,4.847"/>
		<path d="M7.81,8.18c0.009-0.184,0.167-0.329,0.353-0.318c0.187,0.01,0.327,0.165,0.318,0.353C8.475,8.402,8.315,8.541,8.128,8.531
			C7.942,8.527,7.799,8.37,7.81,8.18"/>
		<path d="M7.614,7.176c0.176,0,0.319,0.143,0.319,0.319c0,0.178-0.143,0.32-0.319,0.32c-0.177,0-0.32-0.142-0.32-0.32
			C7.294,7.319,7.437,7.176,7.614,7.176"/>
		<path d="M7.083,6.492c0.167,0,0.303,0.136,0.303,0.303c0,0.167-0.136,0.303-0.303,0.303c-0.167,0-0.303-0.136-0.303-0.303
			C6.781,6.627,6.917,6.492,7.083,6.492"/>
		<path d="M6.552,5.806c0.159,0,0.286,0.128,0.286,0.287c0,0.159-0.128,0.288-0.286,0.288c-0.159,0-0.287-0.129-0.287-0.288
			C6.266,5.935,6.394,5.806,6.552,5.806"/>
		<path d="M6.023,5.121c0.149,0,0.27,0.121,0.27,0.271c0,0.15-0.121,0.272-0.27,0.272c-0.149,0-0.272-0.122-0.272-0.272
			C5.751,5.242,5.873,5.121,6.023,5.121"/>
		<path d="M5.491,4.435c0.141,0,0.255,0.114,0.255,0.256c0,0.142-0.115,0.256-0.255,0.256c-0.142,0-0.257-0.114-0.257-0.256
			C5.234,4.549,5.35,4.435,5.491,4.435"/>
		<path d="M8.729,6.737C8.542,6.747,8.38,6.604,8.375,6.419C8.365,6.23,8.511,6.072,8.698,6.065C8.88,6.057,9.04,6.198,9.047,6.389
			C9.058,6.568,8.914,6.73,8.729,6.737"/>
		<path d="M8.324,5.857C8.333,6.028,8.2,6.176,8.025,6.184C7.851,6.191,7.7,6.059,7.692,5.885C7.684,5.709,7.82,5.564,7.993,5.553
			C8.167,5.546,8.315,5.678,8.324,5.857"/>
		<path d="M7.602,5.327c0.007,0.161-0.118,0.298-0.281,0.306C7.158,5.639,7.017,5.516,7.01,5.355
			C7.003,5.189,7.13,5.051,7.294,5.044C7.454,5.036,7.593,5.161,7.602,5.327"/>
		<path d="M6.606,4.533c0.152,0,0.276,0.125,0.276,0.276c0,0.152-0.123,0.276-0.276,0.276c-0.152,0-0.275-0.124-0.275-0.276
			C6.33,4.657,6.453,4.533,6.606,4.533"/>
		<path d="M5.905,4.023c0.141,0,0.255,0.115,0.255,0.256c0,0.142-0.114,0.256-0.255,0.256c-0.142,0-0.257-0.114-0.257-0.256
			C5.648,4.137,5.763,4.023,5.905,4.023"/>
		<path d="M6.317,3.609c0.14,0,0.255,0.114,0.255,0.256c0,0.141-0.115,0.255-0.255,0.255c-0.142,0-0.257-0.114-0.257-0.255
			C6.061,3.723,6.176,3.609,6.317,3.609"/>
		<path d="M7.225,3.971c0.148,0,0.271,0.122,0.271,0.271c0,0.15-0.123,0.272-0.271,0.272c-0.15,0-0.273-0.122-0.273-0.272
			C6.953,4.092,7.075,3.971,7.225,3.971"/>
		<path d="M8.131,4.331c0.158,0,0.286,0.129,0.286,0.287c0,0.158-0.128,0.286-0.286,0.286c-0.158,0-0.287-0.128-0.287-0.286
			C7.844,4.46,7.973,4.331,8.131,4.331"/>
		<path d="M9.037,4.695c0.164,0,0.298,0.133,0.298,0.298c0,0.164-0.134,0.296-0.298,0.296c-0.164,0-0.297-0.132-0.297-0.296
			C8.739,4.829,8.873,4.695,9.037,4.695"/>
		<path d="M9.944,5.058c0.172,0,0.312,0.14,0.312,0.312c0,0.173-0.14,0.312-0.312,0.312c-0.173,0-0.312-0.139-0.312-0.312
			C9.632,5.197,9.771,5.058,9.944,5.058"/>
		<path d="M10.852,5.419c0.18,0,0.327,0.146,0.327,0.327c0,0.181-0.147,0.327-0.327,0.327c-0.18,0-0.327-0.146-0.327-0.327
			C10.525,5.565,10.672,5.419,10.852,5.419"/>
		<polygon points="3.75,2.75 6.536,2.75 6.536,3.679 5.607,3.679 5.607,4.607 4.679,4.607 4.679,5.536 3.75,5.536 		"/>
		<path d="M13.036,10.179V9.25h0.929V8.321h0.929V7.393h1.857v0.928h-0.929V9.25h-0.928v0.929h-0.929v5.571H10.25v-2.786H7.464
			l2.786-2.786H13.036z M11.179,12.036h0.928v0.929h-0.928v0.929h1.857v-2.786h-1.857V12.036z"/>
		<path d="M13.036,7.857c0,0.769-0.624,1.393-1.392,1.393c-0.769,0-1.393-0.624-1.393-1.393c0-0.769,0.624-1.392,1.393-1.392
			C12.411,6.464,13.036,7.088,13.036,7.857"/>
		<rect x="3.75" y="2.75" fill="none" width="13" height="13"/>
	</g>
</g>
<g id="icons">
	<path fill="#FFFFFF" d="M5.793,8.665c-0.029,0.19,0.1,0.359,0.286,0.385c0.187,0.03,0.363-0.105,0.385-0.286
		c0.027-0.189-0.099-0.36-0.287-0.385C5.992,8.352,5.816,8.478,5.793,8.665"/>
	<path fill="#FFFFFF" d="M6.087,7.89c0.026-0.18-0.096-0.342-0.273-0.367C5.636,7.498,5.473,7.62,5.447,7.795
		C5.422,7.977,5.545,8.135,5.72,8.16C5.898,8.188,6.063,8.063,6.087,7.89"/>
	<path fill="#FFFFFF" d="M5.408,6.665c0.169,0,0.306,0.137,0.306,0.306c0,0.169-0.136,0.306-0.306,0.306
		c-0.169,0-0.306-0.136-0.306-0.306C5.102,6.802,5.239,6.665,5.408,6.665"/>
	<path fill="#FFFFFF" d="M5.047,5.809c0.16,0,0.29,0.13,0.29,0.289c0,0.16-0.13,0.291-0.29,0.291c-0.159,0-0.29-0.131-0.29-0.291
		C4.757,5.939,4.888,5.809,5.047,5.809"/>
	<path fill="#FFFFFF" d="M4.688,4.953c0.15,0,0.273,0.123,0.273,0.274c0,0.15-0.122,0.273-0.273,0.273S4.416,5.377,4.416,5.227
		C4.416,5.076,4.538,4.953,4.688,4.953"/>
	<path fill="#FFFFFF" d="M4.328,4.097c0.142,0,0.257,0.115,0.257,0.257c0,0.142-0.115,0.257-0.257,0.257
		c-0.142,0-0.257-0.115-0.257-0.257C4.071,4.212,4.186,4.097,4.328,4.097"/>
	<path fill="#FFFFFF" d="M7.06,7.43c0.009-0.184,0.167-0.329,0.353-0.318c0.187,0.01,0.327,0.165,0.318,0.353
		C7.725,7.652,7.565,7.791,7.378,7.781C7.192,7.777,7.049,7.62,7.06,7.43"/>
	<path fill="#FFFFFF" d="M6.864,6.426c0.176,0,0.319,0.143,0.319,0.319c0,0.178-0.143,0.32-0.319,0.32
		c-0.177,0-0.32-0.142-0.32-0.32C6.544,6.569,6.687,6.426,6.864,6.426"/>
	<path fill="#FFFFFF" d="M6.333,5.742c0.167,0,0.303,0.136,0.303,0.303c0,0.167-0.136,0.303-0.303,0.303
		c-0.167,0-0.303-0.136-0.303-0.303C6.031,5.877,6.167,5.742,6.333,5.742"/>
	<path fill="#FFFFFF" d="M5.802,5.056c0.159,0,0.286,0.128,0.286,0.287c0,0.159-0.128,0.288-0.286,0.288
		c-0.159,0-0.287-0.129-0.287-0.288C5.516,5.185,5.644,5.056,5.802,5.056"/>
	<path fill="#FFFFFF" d="M5.273,4.371c0.149,0,0.27,0.121,0.27,0.271c0,0.15-0.121,0.272-0.27,0.272
		c-0.149,0-0.272-0.122-0.272-0.272C5.001,4.492,5.123,4.371,5.273,4.371"/>
	<path fill="#FFFFFF" d="M4.741,3.685c0.141,0,0.255,0.114,0.255,0.256c0,0.142-0.115,0.256-0.255,0.256
		c-0.142,0-0.257-0.114-0.257-0.256C4.484,3.799,4.6,3.685,4.741,3.685"/>
	<path fill="#FFFFFF" d="M7.978,5.987C7.792,5.997,7.63,5.854,7.624,5.669C7.615,5.48,7.761,5.322,7.948,5.315
		C8.13,5.307,8.29,5.448,8.297,5.639C8.308,5.818,8.164,5.98,7.978,5.987"/>
	<path fill="#FFFFFF" d="M7.574,5.107C7.583,5.278,7.45,5.426,7.275,5.434C7.101,5.441,6.95,5.309,6.942,5.135
		C6.934,4.959,7.07,4.814,7.243,4.803C7.417,4.796,7.565,4.928,7.574,5.107"/>
	<path fill="#FFFFFF" d="M6.852,4.577c0.007,0.161-0.118,0.298-0.281,0.306C6.408,4.889,6.267,4.766,6.26,4.605
		C6.253,4.439,6.38,4.301,6.544,4.294C6.704,4.286,6.843,4.411,6.852,4.577"/>
	<path fill="#FFFFFF" d="M5.856,3.783c0.152,0,0.276,0.124,0.276,0.276c0,0.152-0.123,0.276-0.276,0.276
		c-0.152,0-0.275-0.124-0.275-0.276C5.58,3.907,5.703,3.783,5.856,3.783"/>
	<path fill="#FFFFFF" d="M5.155,3.273c0.141,0,0.255,0.115,0.255,0.256c0,0.142-0.114,0.256-0.255,0.256
		c-0.142,0-0.257-0.114-0.257-0.256C4.898,3.387,5.013,3.273,5.155,3.273"/>
	<path fill="#FFFFFF" d="M5.567,2.859c0.14,0,0.255,0.114,0.255,0.256c0,0.141-0.115,0.255-0.255,0.255
		c-0.142,0-0.257-0.114-0.257-0.255C5.311,2.973,5.426,2.859,5.567,2.859"/>
	<path fill="#FFFFFF" d="M6.475,3.221c0.148,0,0.271,0.122,0.271,0.271c0,0.15-0.123,0.272-0.271,0.272
		c-0.15,0-0.273-0.122-0.273-0.272C6.203,3.342,6.325,3.221,6.475,3.221"/>
	<path fill="#FFFFFF" d="M7.381,3.581c0.158,0,0.286,0.129,0.286,0.287c0,0.158-0.128,0.286-0.286,0.286
		c-0.158,0-0.287-0.128-0.287-0.286C7.094,3.71,7.223,3.581,7.381,3.581"/>
	<path fill="#FFFFFF" d="M8.287,3.945c0.164,0,0.298,0.133,0.298,0.298c0,0.164-0.134,0.296-0.298,0.296
		c-0.164,0-0.297-0.132-0.297-0.296C7.989,4.079,8.123,3.945,8.287,3.945"/>
	<path fill="#FFFFFF" d="M9.194,4.308c0.172,0,0.312,0.14,0.312,0.312c0,0.173-0.14,0.312-0.312,0.312
		c-0.173,0-0.312-0.139-0.312-0.312C8.882,4.447,9.021,4.308,9.194,4.308"/>
	<path fill="#FFFFFF" d="M10.102,4.669c0.18,0,0.327,0.146,0.327,0.327c0,0.181-0.147,0.327-0.327,0.327
		c-0.18,0-0.327-0.146-0.327-0.327C9.775,4.815,9.922,4.669,10.102,4.669"/>
	<polygon fill="#FFFFFF" points="3,2 5.786,2 5.786,2.929 4.857,2.929 4.857,3.857 3.929,3.857 3.929,4.786 3,4.786 	"/>
	<path fill="#FFFFFF" d="M12.286,9.429V8.5h0.929V7.571h0.929V6.643H16v0.928h-0.929V8.5h-0.928v0.929h-0.929V15H9.5v-2.786H6.714
		L9.5,9.429H12.286z M10.429,11.286h0.928v0.929h-0.928v0.929h1.857v-2.786h-1.857V11.286z"/>
	<path fill="#FFFFFF" d="M12.286,7.107c0,0.769-0.624,1.393-1.392,1.393C10.124,8.5,9.5,7.876,9.5,7.107
		c0-0.769,0.624-1.392,1.393-1.392C11.661,5.714,12.286,6.338,12.286,7.107"/>
</g>
</svg>
