<?xml version="1.0" encoding="UTF-8" standalone="no"?>
<svg width="12px" height="12px" viewBox="0 0 12 12" version="1.1" xmlns="http://www.w3.org/2000/svg" xmlns:xlink="http://www.w3.org/1999/xlink" xmlns:sketch="http://www.bohemiancoding.com/sketch/ns">
    <!-- Generator: Sketch 3.2.2 (9983) - http://www.bohemiancoding.com/sketch -->
    <title>showers-black-12</title>
    <desc>Created with Sketch.</desc>
    <defs></defs>
    <g id="Page-1" stroke="none" stroke-width="1" fill="none" fill-rule="evenodd" sketch:type="MSPage">
        <g id="Group-7" sketch:type="MSLayerGroup" transform="translate(2.000000, 1.900009)" fill="#0A0B09" opacity="0.1">
            <path d="M2.15,5.12857143 C2.12857143,5.27142857 2.22857143,5.40714286 2.37142857,5.42857143 C2.51428571,5.45 2.65,5.34285714 2.66428571,5.20714286 C2.68571429,5.05714286 2.58571429,4.92857143 2.44285714,4.90714286 C2.3,4.88571429 2.16428571,4.98571429 2.15,5.12857143" id="Fill-1001" sketch:type="MSShapeGroup"></path>
            <path d="M2.37142857,4.53571429 C2.39285714,4.39285714 2.3,4.27142857 2.16428571,4.25 C2.02857143,4.22857143 1.9,4.32142857 1.88571429,4.45714286 C1.86428571,4.6 1.95714286,4.72142857 2.09285714,4.74285714 C2.22857143,4.76428571 2.35714286,4.66428571 2.37142857,4.53571429" id="Fill-1002" sketch:type="MSShapeGroup"></path>
            <path d="M1.85,3.59285714 C1.98571429,3.59285714 2.08571429,3.69285714 2.08571429,3.82857143 C2.08571429,3.95714286 1.98571429,4.05714286 1.85,4.05714286 C1.72142857,4.05714286 1.61428571,3.95714286 1.61428571,3.82857143 C1.61428571,3.69285714 1.72142857,3.59285714 1.85,3.59285714" id="Fill-1003" sketch:type="MSShapeGroup"></path>
            <path d="M1.57857143,2.92857143 C1.7,2.92857143 1.8,3.02857143 1.8,3.15714286 C1.8,3.27857143 1.7,3.37857143 1.57857143,3.37857143 C1.45,3.37857143 1.35,3.27857143 1.35,3.15714286 C1.35,3.02857143 1.45,2.92857143 1.57857143,2.92857143" id="Fill-1004" sketch:type="MSShapeGroup"></path>
            <path d="M1.3,2.27142857 C1.41428571,2.27142857 1.50714286,2.36428571 1.50714286,2.48571429 C1.50714286,2.6 1.41428571,2.69285714 1.3,2.69285714 C1.18571429,2.69285714 1.08571429,2.6 1.08571429,2.48571429 C1.08571429,2.36428571 1.18571429,2.27142857 1.3,2.27142857" id="Fill-1005" sketch:type="MSShapeGroup"></path>
            <path d="M1.02142857,1.61428571 C1.12857143,1.61428571 1.22142857,1.7 1.22142857,1.81428571 C1.22142857,1.92142857 1.12857143,2.00714286 1.02142857,2.00714286 C0.914285714,2.00714286 0.821428571,1.92142857 0.821428571,1.81428571 C0.821428571,1.7 0.914285714,1.61428571 1.02142857,1.61428571" id="Fill-1006" sketch:type="MSShapeGroup"></path>
            <path d="M3.12142857,4.17857143 C3.12857143,4.03571429 3.25,3.92857143 3.39285714,3.93571429 C3.53571429,3.94285714 3.64285714,4.06428571 3.63571429,4.20714286 C3.63571429,4.35 3.51428571,4.45714286 3.37142857,4.45 C3.22857143,4.44285714 3.11428571,4.32142857 3.12142857,4.17857143" id="Fill-1007" sketch:type="MSShapeGroup"></path>
            <path d="M2.97142857,3.40714286 C3.10714286,3.40714286 3.22142857,3.51428571 3.22142857,3.65 C3.22142857,3.78571429 3.10714286,3.9 2.97142857,3.9 C2.83571429,3.9 2.72857143,3.78571429 2.72857143,3.65 C2.72857143,3.51428571 2.83571429,3.40714286 2.97142857,3.40714286" id="Fill-1008" sketch:type="MSShapeGroup"></path>
            <path d="M2.56428571,2.87857143 C2.69285714,2.87857143 2.8,2.98571429 2.8,3.11428571 C2.8,3.24285714 2.69285714,3.34285714 2.56428571,3.34285714 C2.43571429,3.34285714 2.32857143,3.24285714 2.32857143,3.11428571 C2.32857143,2.98571429 2.43571429,2.87857143 2.56428571,2.87857143" id="Fill-1009" sketch:type="MSShapeGroup"></path>
            <path d="M2.15714286,2.35 C2.27857143,2.35 2.37857143,2.45 2.37857143,2.57142857 C2.37857143,2.69285714 2.27857143,2.79285714 2.15714286,2.79285714 C2.03571429,2.79285714 1.93571429,2.69285714 1.93571429,2.57142857 C1.93571429,2.45 2.03571429,2.35 2.15714286,2.35" id="Fill-1010" sketch:type="MSShapeGroup"></path>
            <path d="M1.75,1.82857143 C1.86428571,1.82857143 1.95714286,1.92142857 1.95714286,2.03571429 C1.95714286,2.15 1.86428571,2.24285714 1.75,2.24285714 C1.63571429,2.24285714 1.53571429,2.15 1.53571429,2.03571429 C1.53571429,1.92142857 1.63571429,1.82857143 1.75,1.82857143" id="Fill-1011" sketch:type="MSShapeGroup"></path>
            <path d="M1.33571429,1.3 C1.45,1.3 1.53571429,1.38571429 1.53571429,1.49285714 C1.53571429,1.60714286 1.45,1.69285714 1.33571429,1.69285714 C1.22857143,1.69285714 1.14285714,1.60714286 1.14285714,1.49285714 C1.14285714,1.38571429 1.22857143,1.3 1.33571429,1.3" id="Fill-1012" sketch:type="MSShapeGroup"></path>
            <path d="M3.82857143,3.07142857 C3.68571429,3.07857143 3.56428571,2.96428571 3.55714286,2.82142857 C3.55,2.67857143 3.66428571,2.55714286 3.80714286,2.55 C3.95,2.54285714 4.07142857,2.65714286 4.07857143,2.8 C4.08571429,2.94285714 3.97142857,3.06428571 3.82857143,3.07142857" id="Fill-1013" sketch:type="MSShapeGroup"></path>
            <path d="M3.52142857,2.39285714 C3.52857143,2.52142857 3.42142857,2.63571429 3.28571429,2.64285714 C3.15714286,2.65 3.03571429,2.55 3.03571429,2.41428571 C3.02857143,2.27857143 3.12857143,2.16428571 3.26428571,2.15714286 C3.4,2.15 3.51428571,2.25714286 3.52142857,2.39285714" id="Fill-1014" sketch:type="MSShapeGroup"></path>
            <path d="M2.96428571,1.98571429 C2.97142857,2.10714286 2.87142857,2.21428571 2.75,2.22142857 C2.62142857,2.22142857 2.51428571,2.12857143 2.50714286,2.00714286 C2.5,1.87857143 2.6,1.77142857 2.72857143,1.76428571 C2.85,1.75714286 2.95714286,1.85714286 2.96428571,1.98571429" id="Fill-1015" sketch:type="MSShapeGroup"></path>
            <path d="M2.2,1.37142857 C2.31428571,1.37142857 2.40714286,1.47142857 2.40714286,1.58571429 C2.40714286,1.7 2.31428571,1.8 2.2,1.8 C2.07857143,1.8 1.98571429,1.7 1.98571429,1.58571429 C1.98571429,1.47142857 2.07857143,1.37142857 2.2,1.37142857" id="Fill-1016" sketch:type="MSShapeGroup"></path>
            <path d="M1.65714286,0.978571429 C1.76428571,0.978571429 1.85714286,1.07142857 1.85714286,1.17857143 C1.85714286,1.28571429 1.76428571,1.37142857 1.65714286,1.37142857 C1.55,1.37142857 1.46428571,1.28571429 1.46428571,1.17857143 C1.46428571,1.07142857 1.55,0.978571429 1.65714286,0.978571429" id="Fill-1017" sketch:type="MSShapeGroup"></path>
            <path d="M1.97142857,0.664285714 C2.08571429,0.664285714 2.17142857,0.75 2.17142857,0.857142857 C2.17142857,0.971428571 2.08571429,1.05714286 1.97142857,1.05714286 C1.86428571,1.05714286 1.77857143,0.971428571 1.77857143,0.857142857 C1.77857143,0.75 1.86428571,0.664285714 1.97142857,0.664285714" id="Fill-1018" sketch:type="MSShapeGroup"></path>
            <path d="M2.67142857,0.942857143 C2.78571429,0.942857143 2.87857143,1.03571429 2.87857143,1.15 C2.87857143,1.26428571 2.78571429,1.35714286 2.67142857,1.35714286 C2.55714286,1.35714286 2.46428571,1.26428571 2.46428571,1.15 C2.46428571,1.03571429 2.55714286,0.942857143 2.67142857,0.942857143" id="Fill-1019" sketch:type="MSShapeGroup"></path>
            <path d="M3.37142857,1.22142857 C3.49285714,1.22142857 3.59285714,1.31428571 3.59285714,1.43571429 C3.59285714,1.55714286 3.49285714,1.65714286 3.37142857,1.65714286 C3.25,1.65714286 3.15,1.55714286 3.15,1.43571429 C3.15,1.31428571 3.25,1.22142857 3.37142857,1.22142857" id="Fill-1020" sketch:type="MSShapeGroup"></path>
            <path d="M4.06428571,1.5 C4.19285714,1.5 4.29285714,1.6 4.29285714,1.72857143 C4.29285714,1.85714286 4.19285714,1.95714286 4.06428571,1.95714286 C3.94285714,1.95714286 3.83571429,1.85714286 3.83571429,1.72857143 C3.83571429,1.6 3.94285714,1.5 4.06428571,1.5" id="Fill-1021" sketch:type="MSShapeGroup"></path>
            <path d="M4.76428571,1.77857143 C4.9,1.77857143 5.00714286,1.88571429 5.00714286,2.01428571 C5.00714286,2.15 4.9,2.25714286 4.76428571,2.25714286 C4.63571429,2.25714286 4.52857143,2.15 4.52857143,2.01428571 C4.52857143,1.88571429 4.63571429,1.77857143 4.76428571,1.77857143" id="Fill-1022" sketch:type="MSShapeGroup"></path>
            <path d="M5.46428571,2.05714286 C5.6,2.05714286 5.71428571,2.17142857 5.71428571,2.30714286 C5.71428571,2.44285714 5.6,2.55714286 5.46428571,2.55714286 C5.32142857,2.55714286 5.21428571,2.44285714 5.21428571,2.30714286 C5.21428571,2.17142857 5.32142857,2.05714286 5.46428571,2.05714286" id="Fill-1023" sketch:type="MSShapeGroup"></path>
            <path d="M0,0 L2.14285714,0 L2.14285714,0.714285714 L1.42857143,0.714285714 L1.42857143,1.42857143 L0.714285714,1.42857143 L0.714285714,2.14285714 L0,2.14285714 L0,0" id="Fill-1024" sketch:type="MSShapeGroup"></path>
            <path d="M5.71428571,7.14285714 L6.42857143,7.14285714 L6.42857143,7.85714286 L5.71428571,7.85714286 L5.71428571,8.57142857 L7.14285714,8.57142857 L7.14285714,6.42857143 L5.71428571,6.42857143 L5.71428571,7.14285714 L5.71428571,7.14285714 Z M7.14285714,5.71428571 L7.14285714,5 L7.85714286,5 L7.85714286,4.28571429 L8.57142857,4.28571429 L8.57142857,3.57142857 L10,3.57142857 L10,4.28571429 L9.28571429,4.28571429 L9.28571429,5 L8.57142857,5 L8.57142857,5.71428571 L7.85714286,5.71428571 L7.85714286,10 L5,10 L5,7.85714286 L2.85714286,7.85714286 L5,5.71428571 L7.14285714,5.71428571 L7.14285714,5.71428571 Z" id="Fill-1025" sketch:type="MSShapeGroup"></path>
            <path d="M7.14285714,3.92857143 C7.14285714,4.52142857 6.66428571,5 6.07142857,5 C5.47857143,5 5,4.52142857 5,3.92857143 C5,3.33571429 5.47857143,2.85714286 6.07142857,2.85714286 C6.66428571,2.85714286 7.14285714,3.33571429 7.14285714,3.92857143" id="Fill-1026" sketch:type="MSShapeGroup"></path>
        </g>
        <g id="Group-6" sketch:type="MSLayerGroup" transform="translate(1.500000, 1.500000)" fill="#0A0B09" opacity="0.2">
            <path d="M2.15,5.12857143 C2.12857143,5.27142857 2.22857143,5.40714286 2.37142857,5.42857143 C2.51428571,5.45 2.65,5.34285714 2.66428571,5.20714286 C2.68571429,5.05714286 2.58571429,4.92857143 2.44285714,4.90714286 C2.3,4.88571429 2.16428571,4.98571429 2.15,5.12857143" id="Fill-1001" sketch:type="MSShapeGroup"></path>
            <path d="M2.37142857,4.53571429 C2.39285714,4.39285714 2.3,4.27142857 2.16428571,4.25 C2.02857143,4.22857143 1.9,4.32142857 1.88571429,4.45714286 C1.86428571,4.6 1.95714286,4.72142857 2.09285714,4.74285714 C2.22857143,4.76428571 2.35714286,4.66428571 2.37142857,4.53571429" id="Fill-1002" sketch:type="MSShapeGroup"></path>
            <path d="M1.85,3.59285714 C1.98571429,3.59285714 2.08571429,3.69285714 2.08571429,3.82857143 C2.08571429,3.95714286 1.98571429,4.05714286 1.85,4.05714286 C1.72142857,4.05714286 1.61428571,3.95714286 1.61428571,3.82857143 C1.61428571,3.69285714 1.72142857,3.59285714 1.85,3.59285714" id="Fill-1003" sketch:type="MSShapeGroup"></path>
            <path d="M1.57857143,2.92857143 C1.7,2.92857143 1.8,3.02857143 1.8,3.15714286 C1.8,3.27857143 1.7,3.37857143 1.57857143,3.37857143 C1.45,3.37857143 1.35,3.27857143 1.35,3.15714286 C1.35,3.02857143 1.45,2.92857143 1.57857143,2.92857143" id="Fill-1004" sketch:type="MSShapeGroup"></path>
            <path d="M1.3,2.27142857 C1.41428571,2.27142857 1.50714286,2.36428571 1.50714286,2.48571429 C1.50714286,2.6 1.41428571,2.69285714 1.3,2.69285714 C1.18571429,2.69285714 1.08571429,2.6 1.08571429,2.48571429 C1.08571429,2.36428571 1.18571429,2.27142857 1.3,2.27142857" id="Fill-1005" sketch:type="MSShapeGroup"></path>
            <path d="M1.02142857,1.61428571 C1.12857143,1.61428571 1.22142857,1.7 1.22142857,1.81428571 C1.22142857,1.92142857 1.12857143,2.00714286 1.02142857,2.00714286 C0.914285714,2.00714286 0.821428571,1.92142857 0.821428571,1.81428571 C0.821428571,1.7 0.914285714,1.61428571 1.02142857,1.61428571" id="Fill-1006" sketch:type="MSShapeGroup"></path>
            <path d="M3.12142857,4.17857143 C3.12857143,4.03571429 3.25,3.92857143 3.39285714,3.93571429 C3.53571429,3.94285714 3.64285714,4.06428571 3.63571429,4.20714286 C3.63571429,4.35 3.51428571,4.45714286 3.37142857,4.45 C3.22857143,4.44285714 3.11428571,4.32142857 3.12142857,4.17857143" id="Fill-1007" sketch:type="MSShapeGroup"></path>
            <path d="M2.97142857,3.40714286 C3.10714286,3.40714286 3.22142857,3.51428571 3.22142857,3.65 C3.22142857,3.78571429 3.10714286,3.9 2.97142857,3.9 C2.83571429,3.9 2.72857143,3.78571429 2.72857143,3.65 C2.72857143,3.51428571 2.83571429,3.40714286 2.97142857,3.40714286" id="Fill-1008" sketch:type="MSShapeGroup"></path>
            <path d="M2.56428571,2.87857143 C2.69285714,2.87857143 2.8,2.98571429 2.8,3.11428571 C2.8,3.24285714 2.69285714,3.34285714 2.56428571,3.34285714 C2.43571429,3.34285714 2.32857143,3.24285714 2.32857143,3.11428571 C2.32857143,2.98571429 2.43571429,2.87857143 2.56428571,2.87857143" id="Fill-1009" sketch:type="MSShapeGroup"></path>
            <path d="M2.15714286,2.35 C2.27857143,2.35 2.37857143,2.45 2.37857143,2.57142857 C2.37857143,2.69285714 2.27857143,2.79285714 2.15714286,2.79285714 C2.03571429,2.79285714 1.93571429,2.69285714 1.93571429,2.57142857 C1.93571429,2.45 2.03571429,2.35 2.15714286,2.35" id="Fill-1010" sketch:type="MSShapeGroup"></path>
            <path d="M1.75,1.82857143 C1.86428571,1.82857143 1.95714286,1.92142857 1.95714286,2.03571429 C1.95714286,2.15 1.86428571,2.24285714 1.75,2.24285714 C1.63571429,2.24285714 1.53571429,2.15 1.53571429,2.03571429 C1.53571429,1.92142857 1.63571429,1.82857143 1.75,1.82857143" id="Fill-1011" sketch:type="MSShapeGroup"></path>
            <path d="M1.33571429,1.3 C1.45,1.3 1.53571429,1.38571429 1.53571429,1.49285714 C1.53571429,1.60714286 1.45,1.69285714 1.33571429,1.69285714 C1.22857143,1.69285714 1.14285714,1.60714286 1.14285714,1.49285714 C1.14285714,1.38571429 1.22857143,1.3 1.33571429,1.3" id="Fill-1012" sketch:type="MSShapeGroup"></path>
            <path d="M3.82857143,3.07142857 C3.68571429,3.07857143 3.56428571,2.96428571 3.55714286,2.82142857 C3.55,2.67857143 3.66428571,2.55714286 3.80714286,2.55 C3.95,2.54285714 4.07142857,2.65714286 4.07857143,2.8 C4.08571429,2.94285714 3.97142857,3.06428571 3.82857143,3.07142857" id="Fill-1013" sketch:type="MSShapeGroup"></path>
            <path d="M3.52142857,2.39285714 C3.52857143,2.52142857 3.42142857,2.63571429 3.28571429,2.64285714 C3.15714286,2.65 3.03571429,2.55 3.03571429,2.41428571 C3.02857143,2.27857143 3.12857143,2.16428571 3.26428571,2.15714286 C3.4,2.15 3.51428571,2.25714286 3.52142857,2.39285714" id="Fill-1014" sketch:type="MSShapeGroup"></path>
            <path d="M2.96428571,1.98571429 C2.97142857,2.10714286 2.87142857,2.21428571 2.75,2.22142857 C2.62142857,2.22142857 2.51428571,2.12857143 2.50714286,2.00714286 C2.5,1.87857143 2.6,1.77142857 2.72857143,1.76428571 C2.85,1.75714286 2.95714286,1.85714286 2.96428571,1.98571429" id="Fill-1015" sketch:type="MSShapeGroup"></path>
            <path d="M2.2,1.37142857 C2.31428571,1.37142857 2.40714286,1.47142857 2.40714286,1.58571429 C2.40714286,1.7 2.31428571,1.8 2.2,1.8 C2.07857143,1.8 1.98571429,1.7 1.98571429,1.58571429 C1.98571429,1.47142857 2.07857143,1.37142857 2.2,1.37142857" id="Fill-1016" sketch:type="MSShapeGroup"></path>
            <path d="M1.65714286,0.978571429 C1.76428571,0.978571429 1.85714286,1.07142857 1.85714286,1.17857143 C1.85714286,1.28571429 1.76428571,1.37142857 1.65714286,1.37142857 C1.55,1.37142857 1.46428571,1.28571429 1.46428571,1.17857143 C1.46428571,1.07142857 1.55,0.978571429 1.65714286,0.978571429" id="Fill-1017" sketch:type="MSShapeGroup"></path>
            <path d="M1.97142857,0.664285714 C2.08571429,0.664285714 2.17142857,0.75 2.17142857,0.857142857 C2.17142857,0.971428571 2.08571429,1.05714286 1.97142857,1.05714286 C1.86428571,1.05714286 1.77857143,0.971428571 1.77857143,0.857142857 C1.77857143,0.75 1.86428571,0.664285714 1.97142857,0.664285714" id="Fill-1018" sketch:type="MSShapeGroup"></path>
            <path d="M2.67142857,0.942857143 C2.78571429,0.942857143 2.87857143,1.03571429 2.87857143,1.15 C2.87857143,1.26428571 2.78571429,1.35714286 2.67142857,1.35714286 C2.55714286,1.35714286 2.46428571,1.26428571 2.46428571,1.15 C2.46428571,1.03571429 2.55714286,0.942857143 2.67142857,0.942857143" id="Fill-1019" sketch:type="MSShapeGroup"></path>
            <path d="M3.37142857,1.22142857 C3.49285714,1.22142857 3.59285714,1.31428571 3.59285714,1.43571429 C3.59285714,1.55714286 3.49285714,1.65714286 3.37142857,1.65714286 C3.25,1.65714286 3.15,1.55714286 3.15,1.43571429 C3.15,1.31428571 3.25,1.22142857 3.37142857,1.22142857" id="Fill-1020" sketch:type="MSShapeGroup"></path>
            <path d="M4.06428571,1.5 C4.19285714,1.5 4.29285714,1.6 4.29285714,1.72857143 C4.29285714,1.85714286 4.19285714,1.95714286 4.06428571,1.95714286 C3.94285714,1.95714286 3.83571429,1.85714286 3.83571429,1.72857143 C3.83571429,1.6 3.94285714,1.5 4.06428571,1.5" id="Fill-1021" sketch:type="MSShapeGroup"></path>
            <path d="M4.76428571,1.77857143 C4.9,1.77857143 5.00714286,1.88571429 5.00714286,2.01428571 C5.00714286,2.15 4.9,2.25714286 4.76428571,2.25714286 C4.63571429,2.25714286 4.52857143,2.15 4.52857143,2.01428571 C4.52857143,1.88571429 4.63571429,1.77857143 4.76428571,1.77857143" id="Fill-1022" sketch:type="MSShapeGroup"></path>
            <path d="M5.46428571,2.05714286 C5.6,2.05714286 5.71428571,2.17142857 5.71428571,2.30714286 C5.71428571,2.44285714 5.6,2.55714286 5.46428571,2.55714286 C5.32142857,2.55714286 5.21428571,2.44285714 5.21428571,2.30714286 C5.21428571,2.17142857 5.32142857,2.05714286 5.46428571,2.05714286" id="Fill-1023" sketch:type="MSShapeGroup"></path>
            <path d="M0,0 L2.14285714,0 L2.14285714,0.714285714 L1.42857143,0.714285714 L1.42857143,1.42857143 L0.714285714,1.42857143 L0.714285714,2.14285714 L0,2.14285714 L0,0" id="Fill-1024" sketch:type="MSShapeGroup"></path>
            <path d="M5.71428571,7.14285714 L6.42857143,7.14285714 L6.42857143,7.85714286 L5.71428571,7.85714286 L5.71428571,8.57142857 L7.14285714,8.57142857 L7.14285714,6.42857143 L5.71428571,6.42857143 L5.71428571,7.14285714 L5.71428571,7.14285714 Z M7.14285714,5.71428571 L7.14285714,5 L7.85714286,5 L7.85714286,4.28571429 L8.57142857,4.28571429 L8.57142857,3.57142857 L10,3.57142857 L10,4.28571429 L9.28571429,4.28571429 L9.28571429,5 L8.57142857,5 L8.57142857,5.71428571 L7.85714286,5.71428571 L7.85714286,10 L5,10 L5,7.85714286 L2.85714286,7.85714286 L5,5.71428571 L7.14285714,5.71428571 L7.14285714,5.71428571 Z" id="Fill-1025" sketch:type="MSShapeGroup"></path>
            <path d="M7.14285714,3.92857143 C7.14285714,4.52142857 6.66428571,5 6.07142857,5 C5.47857143,5 5,4.52142857 5,3.92857143 C5,3.33571429 5.47857143,2.85714286 6.07142857,2.85714286 C6.66428571,2.85714286 7.14285714,3.33571429 7.14285714,3.92857143" id="Fill-1026" sketch:type="MSShapeGroup"></path>
        </g>
        <g id="Group" sketch:type="MSLayerGroup" transform="translate(1.000000, 1.000000)" fill="#0A0B09">
            <path d="M2.15,5.12857143 C2.12857143,5.27142857 2.22857143,5.40714286 2.37142857,5.42857143 C2.51428571,5.45 2.65,5.34285714 2.66428571,5.20714286 C2.68571429,5.05714286 2.58571429,4.92857143 2.44285714,4.90714286 C2.3,4.88571429 2.16428571,4.98571429 2.15,5.12857143" id="Fill-1001" sketch:type="MSShapeGroup"></path>
            <path d="M2.37142857,4.53571429 C2.39285714,4.39285714 2.3,4.27142857 2.16428571,4.25 C2.02857143,4.22857143 1.9,4.32142857 1.88571429,4.45714286 C1.86428571,4.6 1.95714286,4.72142857 2.09285714,4.74285714 C2.22857143,4.76428571 2.35714286,4.66428571 2.37142857,4.53571429" id="Fill-1002" sketch:type="MSShapeGroup"></path>
            <path d="M1.85,3.59285714 C1.98571429,3.59285714 2.08571429,3.69285714 2.08571429,3.82857143 C2.08571429,3.95714286 1.98571429,4.05714286 1.85,4.05714286 C1.72142857,4.05714286 1.61428571,3.95714286 1.61428571,3.82857143 C1.61428571,3.69285714 1.72142857,3.59285714 1.85,3.59285714" id="Fill-1003" sketch:type="MSShapeGroup"></path>
            <path d="M1.57857143,2.92857143 C1.7,2.92857143 1.8,3.02857143 1.8,3.15714286 C1.8,3.27857143 1.7,3.37857143 1.57857143,3.37857143 C1.45,3.37857143 1.35,3.27857143 1.35,3.15714286 C1.35,3.02857143 1.45,2.92857143 1.57857143,2.92857143" id="Fill-1004" sketch:type="MSShapeGroup"></path>
            <path d="M1.3,2.27142857 C1.41428571,2.27142857 1.50714286,2.36428571 1.50714286,2.48571429 C1.50714286,2.6 1.41428571,2.69285714 1.3,2.69285714 C1.18571429,2.69285714 1.08571429,2.6 1.08571429,2.48571429 C1.08571429,2.36428571 1.18571429,2.27142857 1.3,2.27142857" id="Fill-1005" sketch:type="MSShapeGroup"></path>
            <path d="M1.02142857,1.61428571 C1.12857143,1.61428571 1.22142857,1.7 1.22142857,1.81428571 C1.22142857,1.92142857 1.12857143,2.00714286 1.02142857,2.00714286 C0.914285714,2.00714286 0.821428571,1.92142857 0.821428571,1.81428571 C0.821428571,1.7 0.914285714,1.61428571 1.02142857,1.61428571" id="Fill-1006" sketch:type="MSShapeGroup"></path>
            <path d="M3.12142857,4.17857143 C3.12857143,4.03571429 3.25,3.92857143 3.39285714,3.93571429 C3.53571429,3.94285714 3.64285714,4.06428571 3.63571429,4.20714286 C3.63571429,4.35 3.51428571,4.45714286 3.37142857,4.45 C3.22857143,4.44285714 3.11428571,4.32142857 3.12142857,4.17857143" id="Fill-1007" sketch:type="MSShapeGroup"></path>
            <path d="M2.97142857,3.40714286 C3.10714286,3.40714286 3.22142857,3.51428571 3.22142857,3.65 C3.22142857,3.78571429 3.10714286,3.9 2.97142857,3.9 C2.83571429,3.9 2.72857143,3.78571429 2.72857143,3.65 C2.72857143,3.51428571 2.83571429,3.40714286 2.97142857,3.40714286" id="Fill-1008" sketch:type="MSShapeGroup"></path>
            <path d="M2.56428571,2.87857143 C2.69285714,2.87857143 2.8,2.98571429 2.8,3.11428571 C2.8,3.24285714 2.69285714,3.34285714 2.56428571,3.34285714 C2.43571429,3.34285714 2.32857143,3.24285714 2.32857143,3.11428571 C2.32857143,2.98571429 2.43571429,2.87857143 2.56428571,2.87857143" id="Fill-1009" sketch:type="MSShapeGroup"></path>
            <path d="M2.15714286,2.35 C2.27857143,2.35 2.37857143,2.45 2.37857143,2.57142857 C2.37857143,2.69285714 2.27857143,2.79285714 2.15714286,2.79285714 C2.03571429,2.79285714 1.93571429,2.69285714 1.93571429,2.57142857 C1.93571429,2.45 2.03571429,2.35 2.15714286,2.35" id="Fill-1010" sketch:type="MSShapeGroup"></path>
            <path d="M1.75,1.82857143 C1.86428571,1.82857143 1.95714286,1.92142857 1.95714286,2.03571429 C1.95714286,2.15 1.86428571,2.24285714 1.75,2.24285714 C1.63571429,2.24285714 1.53571429,2.15 1.53571429,2.03571429 C1.53571429,1.92142857 1.63571429,1.82857143 1.75,1.82857143" id="Fill-1011" sketch:type="MSShapeGroup"></path>
            <path d="M1.33571429,1.3 C1.45,1.3 1.53571429,1.38571429 1.53571429,1.49285714 C1.53571429,1.60714286 1.45,1.69285714 1.33571429,1.69285714 C1.22857143,1.69285714 1.14285714,1.60714286 1.14285714,1.49285714 C1.14285714,1.38571429 1.22857143,1.3 1.33571429,1.3" id="Fill-1012" sketch:type="MSShapeGroup"></path>
            <path d="M3.82857143,3.07142857 C3.68571429,3.07857143 3.56428571,2.96428571 3.55714286,2.82142857 C3.55,2.67857143 3.66428571,2.55714286 3.80714286,2.55 C3.95,2.54285714 4.07142857,2.65714286 4.07857143,2.8 C4.08571429,2.94285714 3.97142857,3.06428571 3.82857143,3.07142857" id="Fill-1013" sketch:type="MSShapeGroup"></path>
            <path d="M3.52142857,2.39285714 C3.52857143,2.52142857 3.42142857,2.63571429 3.28571429,2.64285714 C3.15714286,2.65 3.03571429,2.55 3.03571429,2.41428571 C3.02857143,2.27857143 3.12857143,2.16428571 3.26428571,2.15714286 C3.4,2.15 3.51428571,2.25714286 3.52142857,2.39285714" id="Fill-1014" sketch:type="MSShapeGroup"></path>
            <path d="M2.96428571,1.98571429 C2.97142857,2.10714286 2.87142857,2.21428571 2.75,2.22142857 C2.62142857,2.22142857 2.51428571,2.12857143 2.50714286,2.00714286 C2.5,1.87857143 2.6,1.77142857 2.72857143,1.76428571 C2.85,1.75714286 2.95714286,1.85714286 2.96428571,1.98571429" id="Fill-1015" sketch:type="MSShapeGroup"></path>
            <path d="M2.2,1.37142857 C2.31428571,1.37142857 2.40714286,1.47142857 2.40714286,1.58571429 C2.40714286,1.7 2.31428571,1.8 2.2,1.8 C2.07857143,1.8 1.98571429,1.7 1.98571429,1.58571429 C1.98571429,1.47142857 2.07857143,1.37142857 2.2,1.37142857" id="Fill-1016" sketch:type="MSShapeGroup"></path>
            <path d="M1.65714286,0.978571429 C1.76428571,0.978571429 1.85714286,1.07142857 1.85714286,1.17857143 C1.85714286,1.28571429 1.76428571,1.37142857 1.65714286,1.37142857 C1.55,1.37142857 1.46428571,1.28571429 1.46428571,1.17857143 C1.46428571,1.07142857 1.55,0.978571429 1.65714286,0.978571429" id="Fill-1017" sketch:type="MSShapeGroup"></path>
            <path d="M1.97142857,0.664285714 C2.08571429,0.664285714 2.17142857,0.75 2.17142857,0.857142857 C2.17142857,0.971428571 2.08571429,1.05714286 1.97142857,1.05714286 C1.86428571,1.05714286 1.77857143,0.971428571 1.77857143,0.857142857 C1.77857143,0.75 1.86428571,0.664285714 1.97142857,0.664285714" id="Fill-1018" sketch:type="MSShapeGroup"></path>
            <path d="M2.67142857,0.942857143 C2.78571429,0.942857143 2.87857143,1.03571429 2.87857143,1.15 C2.87857143,1.26428571 2.78571429,1.35714286 2.67142857,1.35714286 C2.55714286,1.35714286 2.46428571,1.26428571 2.46428571,1.15 C2.46428571,1.03571429 2.55714286,0.942857143 2.67142857,0.942857143" id="Fill-1019" sketch:type="MSShapeGroup"></path>
            <path d="M3.37142857,1.22142857 C3.49285714,1.22142857 3.59285714,1.31428571 3.59285714,1.43571429 C3.59285714,1.55714286 3.49285714,1.65714286 3.37142857,1.65714286 C3.25,1.65714286 3.15,1.55714286 3.15,1.43571429 C3.15,1.31428571 3.25,1.22142857 3.37142857,1.22142857" id="Fill-1020" sketch:type="MSShapeGroup"></path>
            <path d="M4.06428571,1.5 C4.19285714,1.5 4.29285714,1.6 4.29285714,1.72857143 C4.29285714,1.85714286 4.19285714,1.95714286 4.06428571,1.95714286 C3.94285714,1.95714286 3.83571429,1.85714286 3.83571429,1.72857143 C3.83571429,1.6 3.94285714,1.5 4.06428571,1.5" id="Fill-1021" sketch:type="MSShapeGroup"></path>
            <path d="M4.76428571,1.77857143 C4.9,1.77857143 5.00714286,1.88571429 5.00714286,2.01428571 C5.00714286,2.15 4.9,2.25714286 4.76428571,2.25714286 C4.63571429,2.25714286 4.52857143,2.15 4.52857143,2.01428571 C4.52857143,1.88571429 4.63571429,1.77857143 4.76428571,1.77857143" id="Fill-1022" sketch:type="MSShapeGroup"></path>
            <path d="M5.46428571,2.05714286 C5.6,2.05714286 5.71428571,2.17142857 5.71428571,2.30714286 C5.71428571,2.44285714 5.6,2.55714286 5.46428571,2.55714286 C5.32142857,2.55714286 5.21428571,2.44285714 5.21428571,2.30714286 C5.21428571,2.17142857 5.32142857,2.05714286 5.46428571,2.05714286" id="Fill-1023" sketch:type="MSShapeGroup"></path>
            <path d="M0,0 L2.14285714,0 L2.14285714,0.714285714 L1.42857143,0.714285714 L1.42857143,1.42857143 L0.714285714,1.42857143 L0.714285714,2.14285714 L0,2.14285714 L0,0" id="Fill-1024" sketch:type="MSShapeGroup"></path>
            <path d="M5.71428571,7.14285714 L6.42857143,7.14285714 L6.42857143,7.85714286 L5.71428571,7.85714286 L5.71428571,8.57142857 L7.14285714,8.57142857 L7.14285714,6.42857143 L5.71428571,6.42857143 L5.71428571,7.14285714 L5.71428571,7.14285714 Z M7.14285714,5.71428571 L7.14285714,5 L7.85714286,5 L7.85714286,4.28571429 L8.57142857,4.28571429 L8.57142857,3.57142857 L10,3.57142857 L10,4.28571429 L9.28571429,4.28571429 L9.28571429,5 L8.57142857,5 L8.57142857,5.71428571 L7.85714286,5.71428571 L7.85714286,10 L5,10 L5,7.85714286 L2.85714286,7.85714286 L5,5.71428571 L7.14285714,5.71428571 L7.14285714,5.71428571 Z" id="Fill-1025" sketch:type="MSShapeGroup"></path>
            <path d="M7.14285714,3.92857143 C7.14285714,4.52142857 6.66428571,5 6.07142857,5 C5.47857143,5 5,4.52142857 5,3.92857143 C5,3.33571429 5.47857143,2.85714286 6.07142857,2.85714286 C6.66428571,2.85714286 7.14285714,3.33571429 7.14285714,3.92857143" id="Fill-1026" sketch:type="MSShapeGroup"></path>
        </g>
    </g>
</svg>