<?xml version="1.0" encoding="utf-8"?>
<!-- Generator: Adobe Illustrator 18.1.1, SVG Export Plug-In . SVG Version: 6.00 Build 0)  -->
<svg version="1.1" xmlns="http://www.w3.org/2000/svg" xmlns:xlink="http://www.w3.org/1999/xlink" x="0px" y="0px"
	 viewBox="0 0 12 12" enable-background="new 0 0 12 12" xml:space="preserve">
<g id="shadows">
	<g opacity="0.2">
		<path d="M4.434,6.114c-0.02,0.131,0.069,0.248,0.198,0.267c0.129,0.021,0.251-0.073,0.267-0.198
			C4.917,6.052,4.83,5.934,4.699,5.917C4.571,5.898,4.45,5.985,4.434,6.114"/>
		<path d="M4.637,5.578C4.655,5.453,4.57,5.341,4.448,5.323C4.325,5.306,4.212,5.391,4.194,5.512
			C4.177,5.638,4.262,5.747,4.383,5.765C4.506,5.784,4.621,5.697,4.637,5.578"/>
		<path d="M4.167,4.73c0.117,0,0.211,0.095,0.211,0.211c0,0.117-0.094,0.211-0.211,0.211c-0.117,0-0.212-0.094-0.212-0.211
			C3.955,4.824,4.05,4.73,4.167,4.73"/>
		<path d="M3.917,4.137c0.11,0,0.2,0.09,0.2,0.2c0,0.11-0.09,0.201-0.2,0.201c-0.11,0-0.201-0.091-0.201-0.201
			C3.717,4.227,3.807,4.137,3.917,4.137"/>
		<path d="M3.669,3.544c0.104,0,0.189,0.086,0.189,0.19c0,0.104-0.085,0.189-0.189,0.189c-0.104,0-0.189-0.085-0.189-0.189
			C3.48,3.629,3.565,3.544,3.669,3.544"/>
		<path d="M3.419,2.952c0.099,0,0.178,0.079,0.178,0.178c0,0.098-0.08,0.178-0.178,0.178c-0.098,0-0.178-0.08-0.178-0.178
			C3.241,3.031,3.321,2.952,3.419,2.952"/>
		<path d="M5.311,5.259c0.006-0.128,0.116-0.228,0.244-0.22c0.129,0.007,0.227,0.114,0.221,0.245
			C5.771,5.413,5.66,5.509,5.531,5.502C5.402,5.5,5.303,5.391,5.311,5.259"/>
		<path d="M5.175,4.565c0.122,0,0.221,0.099,0.221,0.221c0,0.123-0.099,0.222-0.221,0.222c-0.122,0-0.221-0.099-0.221-0.222
			C4.954,4.664,5.053,4.565,5.175,4.565"/>
		<path d="M4.808,4.09c0.116,0,0.21,0.094,0.21,0.21c0,0.116-0.094,0.21-0.21,0.21c-0.115,0-0.209-0.094-0.209-0.21
			C4.598,4.185,4.692,4.09,4.808,4.09"/>
		<path d="M4.44,3.616c0.11,0,0.198,0.089,0.198,0.199c0,0.11-0.088,0.199-0.198,0.199S4.242,3.924,4.242,3.815
			C4.242,3.705,4.33,3.616,4.44,3.616"/>
		<path d="M4.073,3.141c0.103,0,0.187,0.084,0.187,0.188c0,0.105-0.084,0.188-0.187,0.188c-0.104,0-0.188-0.084-0.188-0.188
			C3.885,3.225,3.97,3.141,4.073,3.141"/>
		<path d="M3.706,2.667c0.097,0,0.177,0.079,0.177,0.178c0,0.098-0.08,0.177-0.177,0.177c-0.098,0-0.178-0.079-0.178-0.177
			C3.528,2.746,3.607,2.667,3.706,2.667"/>
		<path d="M5.947,4.26C5.817,4.267,5.706,4.168,5.702,4.04C5.695,3.909,5.796,3.8,5.925,3.794C6.051,3.79,6.162,3.887,6.167,4.02
			C6.174,4.144,6.075,4.255,5.947,4.26"/>
		<path d="M5.667,3.651C5.673,3.77,5.581,3.872,5.459,3.877C5.339,3.882,5.235,3.791,5.229,3.67C5.223,3.548,5.317,3.448,5.438,3.44
			C5.558,3.436,5.66,3.527,5.667,3.651"/>
		<path d="M5.167,3.284c0.005,0.111-0.082,0.207-0.195,0.211C4.859,3.5,4.762,3.415,4.757,3.303C4.752,3.188,4.84,3.093,4.954,3.088
			C5.064,3.083,5.161,3.169,5.167,3.284"/>
		<path d="M4.477,2.734c0.105,0,0.191,0.086,0.191,0.191c0,0.105-0.085,0.191-0.191,0.191c-0.105,0-0.191-0.086-0.191-0.191
			C4.286,2.82,4.372,2.734,4.477,2.734"/>
		<path d="M3.992,2.381c0.098,0,0.177,0.079,0.177,0.178c0,0.098-0.079,0.177-0.177,0.177c-0.098,0-0.178-0.079-0.178-0.177
			C3.814,2.46,3.894,2.381,3.992,2.381"/>
		<path d="M4.277,2.095c0.097,0,0.177,0.079,0.177,0.177c0,0.098-0.08,0.177-0.177,0.177C4.179,2.449,4.1,2.37,4.1,2.272
			C4.1,2.174,4.179,2.095,4.277,2.095"/>
		<path d="M4.906,2.345c0.103,0,0.188,0.084,0.188,0.188c0,0.104-0.084,0.188-0.188,0.188c-0.104,0-0.188-0.085-0.188-0.188
			C4.717,2.429,4.802,2.345,4.906,2.345"/>
		<path d="M5.533,2.594c0.109,0,0.198,0.089,0.198,0.198c0,0.109-0.088,0.198-0.198,0.198c-0.109,0-0.198-0.088-0.198-0.198
			C5.334,2.684,5.424,2.594,5.533,2.594"/>
		<path d="M6.16,2.847c0.113,0,0.207,0.092,0.207,0.207c0,0.114-0.093,0.205-0.207,0.205c-0.114,0-0.206-0.091-0.206-0.205
			C5.954,2.939,6.046,2.847,6.16,2.847"/>
		<path d="M6.789,3.098c0.119,0,0.216,0.097,0.216,0.216c0,0.12-0.097,0.216-0.216,0.216c-0.12,0-0.216-0.096-0.216-0.216
			C6.572,3.194,6.668,3.098,6.789,3.098"/>
		<path d="M7.417,3.348c0.124,0,0.226,0.101,0.226,0.226S7.541,3.8,7.417,3.8C7.292,3.8,7.19,3.699,7.19,3.574
			S7.292,3.348,7.417,3.348"/>
		<polygon points="2.5,1.5 4.429,1.5 4.429,2.143 3.786,2.143 3.786,2.786 3.143,2.786 3.143,3.429 2.5,3.429 		"/>
		<path d="M8.929,6.643V6h0.643V5.357h0.643V4.714H11.5v0.642h-0.643V6h-0.642v0.643H9.571V10.5H7V8.571H5.071L7,6.643H8.929z
			 M7.643,7.929h0.643v0.643H7.643v0.643h1.286V7.286H7.643V7.929z"/>
		<path d="M8.929,5.036C8.929,5.568,8.496,6,7.964,6C7.432,6,7,5.568,7,5.036c0-0.532,0.432-0.964,0.964-0.964
			C8.496,4.071,8.929,4.503,8.929,5.036"/>
		<rect x="2.5" y="1.5" fill="none" width="9" height="9"/>
	</g>
</g>
<g id="icons">
	<path d="M3.934,5.614c-0.02,0.131,0.069,0.248,0.198,0.267c0.129,0.021,0.251-0.073,0.267-0.198
		C4.417,5.552,4.33,5.434,4.199,5.417C4.071,5.398,3.95,5.485,3.934,5.614"/>
	<path d="M4.137,5.078C4.155,4.953,4.07,4.841,3.948,4.823C3.825,4.806,3.712,4.891,3.694,5.012
		C3.677,5.138,3.762,5.247,3.883,5.265C4.006,5.284,4.121,5.197,4.137,5.078"/>
	<path d="M3.667,4.23c0.117,0,0.211,0.095,0.211,0.211c0,0.117-0.094,0.211-0.211,0.211c-0.117,0-0.212-0.094-0.212-0.211
		C3.455,4.324,3.55,4.23,3.667,4.23"/>
	<path d="M3.417,3.637c0.11,0,0.2,0.09,0.2,0.2c0,0.11-0.09,0.201-0.2,0.201S3.217,3.947,3.217,3.837
		C3.217,3.727,3.307,3.637,3.417,3.637"/>
	<path d="M3.169,3.044c0.104,0,0.189,0.086,0.189,0.19c0,0.104-0.085,0.189-0.189,0.189c-0.104,0-0.189-0.085-0.189-0.189
		C2.98,3.129,3.065,3.044,3.169,3.044"/>
	<path d="M2.919,2.452c0.099,0,0.178,0.079,0.178,0.178c0,0.098-0.08,0.178-0.178,0.178c-0.098,0-0.178-0.08-0.178-0.178
		C2.741,2.531,2.821,2.452,2.919,2.452"/>
	<path d="M4.811,4.759c0.006-0.128,0.116-0.228,0.244-0.22c0.129,0.007,0.227,0.114,0.221,0.245C5.271,4.913,5.16,5.009,5.031,5.002
		C4.902,5,4.803,4.891,4.811,4.759"/>
	<path d="M4.675,4.065c0.122,0,0.221,0.099,0.221,0.221c0,0.123-0.099,0.222-0.221,0.222c-0.122,0-0.221-0.099-0.221-0.222
		C4.454,4.164,4.553,4.065,4.675,4.065"/>
	<path d="M4.308,3.59c0.116,0,0.21,0.094,0.21,0.21c0,0.116-0.094,0.21-0.21,0.21c-0.115,0-0.209-0.094-0.209-0.21
		C4.098,3.685,4.192,3.59,4.308,3.59"/>
	<path d="M3.94,3.116c0.11,0,0.198,0.089,0.198,0.199c0,0.11-0.088,0.199-0.198,0.199S3.742,3.424,3.742,3.315
		C3.742,3.205,3.83,3.116,3.94,3.116"/>
	<path d="M3.573,2.641c0.103,0,0.187,0.084,0.187,0.188c0,0.105-0.084,0.188-0.187,0.188c-0.104,0-0.188-0.084-0.188-0.188
		C3.385,2.725,3.47,2.641,3.573,2.641"/>
	<path d="M3.206,2.167c0.097,0,0.177,0.079,0.177,0.178c0,0.098-0.08,0.177-0.177,0.177c-0.098,0-0.178-0.079-0.178-0.177
		C3.028,2.246,3.107,2.167,3.206,2.167"/>
	<path d="M5.447,3.76C5.317,3.767,5.206,3.668,5.202,3.54C5.195,3.409,5.296,3.3,5.425,3.294C5.551,3.29,5.662,3.387,5.667,3.52
		C5.674,3.644,5.575,3.755,5.447,3.76"/>
	<path d="M5.167,3.151C5.173,3.27,5.081,3.372,4.959,3.377C4.839,3.382,4.735,3.291,4.729,3.17C4.723,3.048,4.817,2.948,4.938,2.94
		C5.058,2.936,5.16,3.027,5.167,3.151"/>
	<path d="M4.667,2.784c0.005,0.111-0.082,0.207-0.195,0.211C4.359,3,4.262,2.915,4.257,2.803C4.252,2.688,4.34,2.593,4.454,2.588
		C4.564,2.583,4.661,2.669,4.667,2.784"/>
	<path d="M3.977,2.234c0.105,0,0.191,0.086,0.191,0.191c0,0.105-0.085,0.191-0.191,0.191c-0.105,0-0.191-0.086-0.191-0.191
		C3.786,2.32,3.872,2.234,3.977,2.234"/>
	<path d="M3.492,1.881c0.098,0,0.177,0.079,0.177,0.178c0,0.098-0.079,0.177-0.177,0.177c-0.098,0-0.178-0.079-0.178-0.177
		C3.314,1.96,3.394,1.881,3.492,1.881"/>
	<path d="M3.777,1.595c0.097,0,0.177,0.079,0.177,0.177c0,0.098-0.08,0.177-0.177,0.177C3.679,1.949,3.6,1.87,3.6,1.772
		C3.6,1.674,3.679,1.595,3.777,1.595"/>
	<path d="M4.406,1.845c0.103,0,0.188,0.084,0.188,0.188c0,0.104-0.084,0.188-0.188,0.188c-0.104,0-0.188-0.085-0.188-0.188
		C4.217,1.929,4.302,1.845,4.406,1.845"/>
	<path d="M5.033,2.094c0.109,0,0.198,0.089,0.198,0.198c0,0.109-0.088,0.198-0.198,0.198c-0.109,0-0.198-0.088-0.198-0.198
		C4.834,2.184,4.924,2.094,5.033,2.094"/>
	<path d="M5.66,2.347c0.113,0,0.207,0.092,0.207,0.207c0,0.114-0.093,0.205-0.207,0.205c-0.114,0-0.206-0.091-0.206-0.205
		C5.454,2.439,5.546,2.347,5.66,2.347"/>
	<path d="M6.289,2.598c0.119,0,0.216,0.097,0.216,0.216c0,0.12-0.097,0.216-0.216,0.216c-0.12,0-0.216-0.096-0.216-0.216
		C6.072,2.694,6.168,2.598,6.289,2.598"/>
	<path d="M6.917,2.848c0.124,0,0.226,0.101,0.226,0.226S7.041,3.3,6.917,3.3C6.792,3.3,6.69,3.199,6.69,3.074
		S6.792,2.848,6.917,2.848"/>
	<polygon points="2,1 3.929,1 3.929,1.643 3.286,1.643 3.286,2.286 2.643,2.286 2.643,2.929 2,2.929 	"/>
	<path d="M8.429,6.143V5.5h0.643V4.857h0.643V4.214H11v0.642h-0.643V5.5H9.714v0.643H9.071V10H6.5V8.071H4.571L6.5,6.143H8.429z
		 M7.143,7.429h0.643v0.643H7.143v0.643h1.286V6.786H7.143V7.429z"/>
	<path d="M8.429,4.536c0,0.532-0.433,0.964-0.964,0.964C6.932,5.5,6.5,5.068,6.5,4.536c0-0.532,0.432-0.964,0.964-0.964
		C7.996,3.571,8.429,4.003,8.429,4.536"/>
</g>
</svg>
