<?xml version="1.0" encoding="UTF-8" standalone="no"?>
<!-- Created with Inkscape (http://www.inkscape.org/) -->

<svg
   xmlns:dc="http://purl.org/dc/elements/1.1/"
   xmlns:cc="http://creativecommons.org/ns#"
   xmlns:rdf="http://www.w3.org/1999/02/22-rdf-syntax-ns#"
   xmlns:svg="http://www.w3.org/2000/svg"
   xmlns="http://www.w3.org/2000/svg"
   xmlns:sodipodi="http://sodipodi.sourceforge.net/DTD/sodipodi-0.dtd"
   xmlns:inkscape="http://www.inkscape.org/namespaces/inkscape"
   width="24"
   height="24"
   id="svg27349"
   version="1.1"
   inkscape:version="0.48.2 r9819"
   sodipodi:docname="radiator-water-black-24.svg">
  <defs
     id="defs27351" />
  <sodipodi:namedview
     id="base"
     pagecolor="#ffffff"
     bordercolor="#666666"
     borderopacity="1.0"
     inkscape:pageopacity="0.0"
     inkscape:pageshadow="2"
     inkscape:zoom="8.6123905"
     inkscape:cx="11.808263"
     inkscape:cy="10.533919"
     inkscape:document-units="px"
     inkscape:current-layer="layer1"
     showgrid="false"
     inkscape:window-width="483"
     inkscape:window-height="454"
     inkscape:window-x="3648"
     inkscape:window-y="148"
     inkscape:window-maximized="0"
     gridtolerance="10">
    <inkscape:grid
       type="xygrid"
       id="grid3004"
       empspacing="5"
       visible="true"
       enabled="true"
       snapvisiblegridlinesonly="true" />
  </sodipodi:namedview>
  <metadata
     id="metadata27354">
    <rdf:RDF>
      <cc:Work
         rdf:about="">
        <dc:format>image/svg+xml</dc:format>
        <dc:type
           rdf:resource="http://purl.org/dc/dcmitype/StillImage" />
        <dc:title></dc:title>
      </cc:Work>
    </rdf:RDF>
  </metadata>
  <g
     inkscape:label="Layer 1"
     inkscape:groupmode="layer"
     id="layer1"
     transform="translate(0,-1028.3622)">
    <g
       transform="matrix(2.4284124,0,0,2.4284124,-52.652493,-388.3797)"
       id="g18096">
      <path
         d="m 30.415,593.35 c 0.652,0 1.181,-0.527 1.181,-1.18 v -7.521 c 0,-0.652 -0.528,-1.182 -1.181,-1.182 h -7.521 c -0.652,0 -1.181,0.529 -1.181,1.182 v 7.521 c 0,0.652 0.528,1.18 1.181,1.18 h 7.521 z"
         id="path18098"
         inkscape:connector-curvature="0"
         style="opacity:0;fill:#272525" />
      <g
         style="opacity:0.6;stroke:#ffffff;stroke-width:0.5;stroke-miterlimit:4;stroke-opacity:1;stroke-dasharray:none"
         id="g18100">
        <circle
           d="m 28.093,587.79102 c 0,0.54234 -0.439656,0.982 -0.982,0.982 -0.542344,0 -0.982,-0.43966 -0.982,-0.982 0,-0.54235 0.439656,-0.982 0.982,-0.982 0.542344,0 0.982,0.43965 0.982,0.982 z"
           cx="27.111"
           cy="587.79102"
           r="0.98199999"
           id="circle18102"
           sodipodi:cx="27.111"
           sodipodi:cy="587.79102"
           sodipodi:rx="0.98199999"
           sodipodi:ry="0.98199999"
           style="fill:#272525;stroke:#ffffff;stroke-width:0.5;stroke-miterlimit:4;stroke-opacity:1;stroke-dasharray:none" />
        <path
           d="m 26.185,591.162 c 0,0.105 0.085,0.244 0.191,0.244 l 10e-4,-0.002 h 0.452 l 10e-4,0.002 c 0.106,0 0.244,-0.137 0.244,-0.242 v -0.836 c 0,-0.105 -0.138,-0.24 -0.244,-0.24 h -0.454 c -0.1,0 -0.181,0.127 -0.191,0.223 l 0,0 0,0 c 0.653,0 0.649,0.851 0,0.851 l 0,0 z m -0.412,-2.074 c 0.105,-0.102 0.248,-0.162 0.404,-0.162 h 1.938 l 1.95,-1.955 c 0.417,-0.42 0.964,0.125 0.546,0.545 l -2.138,2.145 0.001,2.928 H 25.91 v -1.422 h -1.16 c -0.241,0 -0.438,-0.195 -0.438,-0.438 0,-0.104 0.035,-0.197 0.095,-0.273 l 1.366,-1.368 z"
           id="path18104"
           inkscape:connector-curvature="0"
           style="fill:#272525;stroke:#ffffff;stroke-width:0.5;stroke-miterlimit:4;stroke-opacity:1;stroke-dasharray:none" />
        <polygon
           points="23.064,584.055 22.583,584.533 22.822,584.773 22.674,585.271 22.913,585.51 24.063,584.334 23.825,584.096 23.303,584.293 "
           id="polygon18106"
           style="fill:#272525;stroke:#ffffff;stroke-width:0.5;stroke-miterlimit:4;stroke-opacity:1;stroke-dasharray:none" />
        <path
           d="m 24.446,589.008 c -0.022,0.145 0.077,0.275 0.219,0.295 0.143,0.023 0.277,-0.08 0.295,-0.219 0.021,-0.145 -0.076,-0.275 -0.22,-0.295 -0.142,-0.021 -0.276,0.076 -0.294,0.219 z"
           id="path18108"
           inkscape:connector-curvature="0"
           style="fill:#272525;stroke:#ffffff;stroke-width:0.5;stroke-miterlimit:4;stroke-opacity:1;stroke-dasharray:none" />
        <path
           d="m 24.671,588.414 c 0.02,-0.137 -0.073,-0.262 -0.209,-0.281 -0.136,-0.019 -0.261,0.074 -0.28,0.209 -0.02,0.139 0.074,0.26 0.209,0.279 0.135,0.022 0.262,-0.074 0.28,-0.207 z"
           id="path18110"
           inkscape:connector-curvature="0"
           style="fill:#272525;stroke:#ffffff;stroke-width:0.5;stroke-miterlimit:4;stroke-opacity:1;stroke-dasharray:none" />
        <circle
           d="m 24.384999,587.71002 c 0,0.12924 -0.104765,0.234 -0.234,0.234 -0.129235,0 -0.234,-0.10476 -0.234,-0.234 0,-0.12923 0.104765,-0.234 0.234,-0.234 0.129235,0 0.234,0.10477 0.234,0.234 z"
           cx="24.150999"
           cy="587.71002"
           r="0.234"
           id="circle18112"
           sodipodi:cx="24.150999"
           sodipodi:cy="587.71002"
           sodipodi:rx="0.234"
           sodipodi:ry="0.234"
           style="fill:#272525;stroke:#ffffff;stroke-width:0.5;stroke-miterlimit:4;stroke-opacity:1;stroke-dasharray:none" />
        <circle
           d="m 24.097,587.04199 c 0,0.12261 -0.09939,0.222 -0.222,0.222 -0.122607,0 -0.222,-0.0994 -0.222,-0.222 0,-0.12261 0.09939,-0.222 0.222,-0.222 0.122607,0 0.222,0.0994 0.222,0.222 z"
           cx="23.875"
           cy="587.04199"
           r="0.222"
           id="circle18114"
           sodipodi:cx="23.875"
           sodipodi:cy="587.04199"
           sodipodi:rx="0.222"
           sodipodi:ry="0.222"
           style="fill:#272525;stroke:#ffffff;stroke-width:0.5;stroke-miterlimit:4;stroke-opacity:1;stroke-dasharray:none" />
        <circle
           d="m 23.809,586.37402 c 0,0.11543 -0.09357,0.209 -0.209,0.209 -0.115427,0 -0.209,-0.0936 -0.209,-0.209 0,-0.11542 0.09357,-0.209 0.209,-0.209 0.115428,0 0.209,0.0936 0.209,0.209 z"
           cx="23.6"
           cy="586.37402"
           r="0.20900001"
           id="circle18116"
           sodipodi:cx="23.6"
           sodipodi:cy="586.37402"
           sodipodi:rx="0.20900001"
           sodipodi:ry="0.20900001"
           style="fill:#272525;stroke:#ffffff;stroke-width:0.5;stroke-miterlimit:4;stroke-opacity:1;stroke-dasharray:none" />
        <circle
           d="m 23.520999,585.70599 c 0,0.1088 -0.0882,0.197 -0.197,0.197 -0.1088,0 -0.197,-0.0882 -0.197,-0.197 0,-0.1088 0.0882,-0.197 0.197,-0.197 0.1088,0 0.197,0.0882 0.197,0.197 z"
           cx="23.323999"
           cy="585.70599"
           r="0.197"
           id="circle18118"
           sodipodi:cx="23.323999"
           sodipodi:cy="585.70599"
           sodipodi:rx="0.197"
           sodipodi:ry="0.197"
           style="fill:#272525;stroke:#ffffff;stroke-width:0.5;stroke-miterlimit:4;stroke-opacity:1;stroke-dasharray:none" />
        <path
           d="m 25.416,588.062 c 0.007,-0.141 0.128,-0.252 0.27,-0.244 0.143,0.008 0.251,0.127 0.244,0.271 -0.005,0.143 -0.127,0.25 -0.27,0.242 -0.142,-0.003 -0.252,-0.124 -0.244,-0.269 z"
           id="path18120"
           inkscape:connector-curvature="0"
           style="fill:#272525;stroke:#ffffff;stroke-width:0.5;stroke-miterlimit:4;stroke-opacity:1;stroke-dasharray:none" />
        <circle
           d="m 25.511001,587.53802 c 0,0.13531 -0.10969,0.245 -0.245,0.245 -0.13531,0 -0.245,-0.10969 -0.245,-0.245 0,-0.1353 0.10969,-0.245 0.245,-0.245 0.13531,0 0.245,0.1097 0.245,0.245 z"
           cx="25.266001"
           cy="587.53802"
           r="0.245"
           id="circle18122"
           sodipodi:cx="25.266001"
           sodipodi:cy="587.53802"
           sodipodi:rx="0.245"
           sodipodi:ry="0.245"
           style="fill:#272525;stroke:#ffffff;stroke-width:0.5;stroke-miterlimit:4;stroke-opacity:1;stroke-dasharray:none" />
        <circle
           d="m 25.092001,587.00098 c 0,0.12813 -0.10387,0.232 -0.232,0.232 -0.12813,0 -0.232,-0.10387 -0.232,-0.232 0,-0.12813 0.10387,-0.232 0.232,-0.232 0.12813,0 0.232,0.10387 0.232,0.232 z"
           cx="24.860001"
           cy="587.00098"
           r="0.23199999"
           id="circle18124"
           sodipodi:cx="24.860001"
           sodipodi:cy="587.00098"
           sodipodi:rx="0.23199999"
           sodipodi:ry="0.23199999"
           style="fill:#272525;stroke:#ffffff;stroke-width:0.5;stroke-miterlimit:4;stroke-opacity:1;stroke-dasharray:none" />
        <circle
           d="m 24.672999,586.46399 c 0,0.1215 -0.0985,0.22 -0.22,0.22 -0.121503,0 -0.22,-0.0985 -0.22,-0.22 0,-0.1215 0.0985,-0.22 0.22,-0.22 0.121503,0 0.22,0.0985 0.22,0.22 z"
           cx="24.452999"
           cy="586.46399"
           r="0.22"
           id="circle18126"
           sodipodi:cx="24.452999"
           sodipodi:cy="586.46399"
           sodipodi:rx="0.22"
           sodipodi:ry="0.22"
           style="fill:#272525;stroke:#ffffff;stroke-width:0.5;stroke-miterlimit:4;stroke-opacity:1;stroke-dasharray:none" />
        <circle
           d="m 24.255001,585.927 c 0,0.11488 -0.09313,0.208 -0.208,0.208 -0.114875,0 -0.208,-0.0931 -0.208,-0.208 0,-0.11487 0.09313,-0.208 0.208,-0.208 0.114875,0 0.208,0.0931 0.208,0.208 z"
           cx="24.047001"
           cy="585.927"
           r="0.208"
           id="circle18128"
           sodipodi:cx="24.047001"
           sodipodi:cy="585.927"
           sodipodi:rx="0.208"
           sodipodi:ry="0.208"
           style="fill:#272525;stroke:#ffffff;stroke-width:0.5;stroke-miterlimit:4;stroke-opacity:1;stroke-dasharray:none" />
        <circle
           d="m 23.835999,585.39001 c 0,0.10825 -0.08775,0.196 -0.196,0.196 -0.108247,0 -0.196,-0.0878 -0.196,-0.196 0,-0.10824 0.08775,-0.196 0.196,-0.196 0.108248,0 0.196,0.0878 0.196,0.196 z"
           cx="23.639999"
           cy="585.39001"
           r="0.19599999"
           id="circle18130"
           sodipodi:cx="23.639999"
           sodipodi:cy="585.39001"
           sodipodi:rx="0.19599999"
           sodipodi:ry="0.19599999"
           style="fill:#272525;stroke:#ffffff;stroke-width:0.5;stroke-miterlimit:4;stroke-opacity:1;stroke-dasharray:none" />
        <path
           d="m 26.12,586.957 c -0.143,0.008 -0.267,-0.102 -0.271,-0.244 -0.008,-0.145 0.104,-0.266 0.247,-0.271 0.14,-0.006 0.262,0.102 0.268,0.248 0.008,0.138 -0.102,0.261 -0.244,0.267 z"
           id="path18132"
           inkscape:connector-curvature="0"
           style="fill:#272525;stroke:#ffffff;stroke-width:0.5;stroke-miterlimit:4;stroke-opacity:1;stroke-dasharray:none" />
        <path
           d="m 25.81,586.283 c 0.007,0.131 -0.095,0.244 -0.229,0.25 -0.134,0.006 -0.249,-0.096 -0.255,-0.229 -0.006,-0.135 0.098,-0.246 0.231,-0.254 0.133,-0.005 0.246,0.096 0.253,0.233 z"
           id="path18134"
           inkscape:connector-curvature="0"
           style="fill:#272525;stroke:#ffffff;stroke-width:0.5;stroke-miterlimit:4;stroke-opacity:1;stroke-dasharray:none" />
        <path
           d="m 25.257,585.877 c 0.006,0.123 -0.09,0.229 -0.215,0.234 -0.125,0.005 -0.233,-0.09 -0.238,-0.213 -0.006,-0.127 0.092,-0.232 0.217,-0.238 0.123,-0.006 0.229,0.09 0.236,0.217 z"
           id="path18136"
           inkscape:connector-curvature="0"
           style="fill:#272525;stroke:#ffffff;stroke-width:0.5;stroke-miterlimit:4;stroke-opacity:1;stroke-dasharray:none" />
        <circle
           d="m 24.704999,585.47998 c 0,0.11653 -0.09447,0.211 -0.211,0.211 -0.116532,0 -0.211,-0.0945 -0.211,-0.211 0,-0.11653 0.09447,-0.211 0.211,-0.211 0.116533,0 0.211,0.0945 0.211,0.211 z"
           cx="24.493999"
           cy="585.47998"
           r="0.211"
           id="circle18138"
           sodipodi:cx="24.493999"
           sodipodi:cy="585.47998"
           sodipodi:rx="0.211"
           sodipodi:ry="0.211"
           style="fill:#272525;stroke:#ffffff;stroke-width:0.5;stroke-miterlimit:4;stroke-opacity:1;stroke-dasharray:none" />
        <circle
           d="m 24.153001,585.07397 c 0,0.10825 -0.08775,0.196 -0.196,0.196 -0.108248,0 -0.196,-0.0877 -0.196,-0.196 0,-0.10824 0.08775,-0.196 0.196,-0.196 0.108248,0 0.196,0.0878 0.196,0.196 z"
           cx="23.957001"
           cy="585.07397"
           r="0.19599999"
           id="circle18140"
           sodipodi:cx="23.957001"
           sodipodi:cy="585.07397"
           sodipodi:rx="0.19599999"
           sodipodi:ry="0.19599999"
           style="fill:#272525;stroke:#ffffff;stroke-width:0.5;stroke-miterlimit:4;stroke-opacity:1;stroke-dasharray:none" />
        <circle
           d="m 24.469001,584.75702 c 0,0.10825 -0.08775,0.196 -0.196,0.196 -0.108248,0 -0.196,-0.0878 -0.196,-0.196 0,-0.10825 0.08775,-0.196 0.196,-0.196 0.108248,0 0.196,0.0878 0.196,0.196 z"
           cx="24.273001"
           cy="584.75702"
           r="0.19599999"
           id="circle18142"
           sodipodi:cx="24.273001"
           sodipodi:cy="584.75702"
           sodipodi:rx="0.19599999"
           sodipodi:ry="0.19599999"
           style="fill:#272525;stroke:#ffffff;stroke-width:0.5;stroke-miterlimit:4;stroke-opacity:1;stroke-dasharray:none" />
        <circle
           d="m 25.176,585.04602 c 0,0.11488 -0.09312,0.208 -0.208,0.208 -0.114875,0 -0.208,-0.0931 -0.208,-0.208 0,-0.11487 0.09312,-0.208 0.208,-0.208 0.114876,0 0.208,0.0931 0.208,0.208 z"
           cx="24.968"
           cy="585.04602"
           r="0.208"
           id="circle18144"
           sodipodi:cx="24.968"
           sodipodi:cy="585.04602"
           sodipodi:rx="0.208"
           sodipodi:ry="0.208"
           style="fill:#272525;stroke:#ffffff;stroke-width:0.5;stroke-miterlimit:4;stroke-opacity:1;stroke-dasharray:none" />
        <circle
           d="m 25.881001,585.33301 c 0,0.12095 -0.09805,0.219 -0.219,0.219 -0.120951,0 -0.219,-0.098 -0.219,-0.219 0,-0.12095 0.09805,-0.219 0.219,-0.219 0.12095,0 0.219,0.098 0.219,0.219 z"
           cx="25.662001"
           cy="585.33301"
           r="0.219"
           id="circle18146"
           sodipodi:cx="25.662001"
           sodipodi:cy="585.33301"
           sodipodi:rx="0.219"
           sodipodi:ry="0.219"
           style="fill:#272525;stroke:#ffffff;stroke-width:0.5;stroke-miterlimit:4;stroke-opacity:1;stroke-dasharray:none" />
        <circle
           d="m 26.584001,585.62097 c 0,0.12592 -0.102079,0.228 -0.228,0.228 -0.125921,0 -0.228,-0.10208 -0.228,-0.228 0,-0.12592 0.102079,-0.228 0.228,-0.228 0.125921,0 0.228,0.10208 0.228,0.228 z"
           cx="26.356001"
           cy="585.62097"
           r="0.228"
           id="circle18148"
           sodipodi:cx="26.356001"
           sodipodi:cy="585.62097"
           sodipodi:rx="0.228"
           sodipodi:ry="0.228"
           style="fill:#272525;stroke:#ffffff;stroke-width:0.5;stroke-miterlimit:4;stroke-opacity:1;stroke-dasharray:none" />
        <circle
           d="m 27.290001,585.90997 c 0,0.132 -0.107004,0.239 -0.239,0.239 -0.131996,0 -0.239,-0.107 -0.239,-0.239 0,-0.13199 0.107004,-0.239 0.239,-0.239 0.131996,0 0.239,0.10701 0.239,0.239 z"
           cx="27.051001"
           cy="585.90997"
           r="0.23899999"
           id="circle18150"
           sodipodi:cx="27.051001"
           sodipodi:cy="585.90997"
           sodipodi:rx="0.23899999"
           sodipodi:ry="0.23899999"
           style="fill:#272525;stroke:#ffffff;stroke-width:0.5;stroke-miterlimit:4;stroke-opacity:1;stroke-dasharray:none" />
        <circle
           d="m 27.996,586.198 c 0,0.13807 -0.111929,0.25 -0.25,0.25 -0.138071,0 -0.25,-0.11193 -0.25,-0.25 0,-0.13807 0.111929,-0.25 0.25,-0.25 0.138071,0 0.25,0.11193 0.25,0.25 z"
           cx="27.746"
           cy="586.198"
           r="0.25"
           id="circle18152"
           sodipodi:cx="27.746"
           sodipodi:cy="586.198"
           sodipodi:rx="0.25"
           sodipodi:ry="0.25"
           style="fill:#272525;stroke:#ffffff;stroke-width:0.5;stroke-miterlimit:4;stroke-opacity:1;stroke-dasharray:none" />
        <circle
           d="m 28.702001,586.48499 c 0,0.14469 -0.117302,0.262 -0.262,0.262 -0.144699,0 -0.262,-0.11731 -0.262,-0.262 0,-0.1447 0.117301,-0.262 0.262,-0.262 0.144698,0 0.262,0.1173 0.262,0.262 z"
           cx="28.440001"
           cy="586.48499"
           r="0.26199999"
           id="circle18154"
           sodipodi:cx="28.440001"
           sodipodi:cy="586.48499"
           sodipodi:rx="0.26199999"
           sodipodi:ry="0.26199999"
           style="fill:#272525;stroke:#ffffff;stroke-width:0.5;stroke-miterlimit:4;stroke-opacity:1;stroke-dasharray:none" />
      </g>
      <g
         id="g18156">
        <circle
           d="m 28.093,587.79102 c 0,0.54234 -0.439656,0.982 -0.982,0.982 -0.542344,0 -0.982,-0.43966 -0.982,-0.982 0,-0.54235 0.439656,-0.982 0.982,-0.982 0.542344,0 0.982,0.43965 0.982,0.982 z"
           style="fill:#272525"
           sodipodi:ry="0.98199999"
           sodipodi:rx="0.98199999"
           sodipodi:cy="587.79102"
           sodipodi:cx="27.111"
           id="circle18158"
           r="0.98199999"
           cy="587.79102"
           cx="27.111" />
        <path
           style="fill:#272525"
           inkscape:connector-curvature="0"
           id="path18160"
           d="m 26.185,591.162 c 0,0.105 0.085,0.244 0.191,0.244 l 10e-4,-0.002 h 0.452 l 10e-4,0.002 c 0.106,0 0.244,-0.137 0.244,-0.242 v -0.836 c 0,-0.105 -0.138,-0.24 -0.244,-0.24 h -0.454 c -0.1,0 -0.181,0.127 -0.191,0.223 l 0,0 0,0 c 0.653,0 0.649,0.851 0,0.851 l 0,0 z m -0.412,-2.074 c 0.105,-0.102 0.248,-0.162 0.404,-0.162 h 1.938 l 1.95,-1.955 c 0.417,-0.42 0.964,0.125 0.546,0.545 l -2.138,2.145 0.001,2.928 H 25.91 v -1.422 h -1.16 c -0.241,0 -0.438,-0.195 -0.438,-0.438 0,-0.104 0.035,-0.197 0.095,-0.273 l 1.366,-1.368 z" />
        <polygon
           style="fill:#272525"
           id="polygon18162"
           points="23.064,584.055 22.583,584.533 22.822,584.773 22.674,585.271 22.913,585.51 24.063,584.334 23.825,584.096 23.303,584.293 " />
        <path
           style="fill:#272525"
           inkscape:connector-curvature="0"
           id="path18164"
           d="m 24.446,589.008 c -0.022,0.145 0.077,0.275 0.219,0.295 0.143,0.023 0.277,-0.08 0.295,-0.219 0.021,-0.145 -0.076,-0.275 -0.22,-0.295 -0.142,-0.021 -0.276,0.076 -0.294,0.219 z" />
        <path
           style="fill:#272525"
           inkscape:connector-curvature="0"
           id="path18166"
           d="m 24.671,588.414 c 0.02,-0.137 -0.073,-0.262 -0.209,-0.281 -0.136,-0.019 -0.261,0.074 -0.28,0.209 -0.02,0.139 0.074,0.26 0.209,0.279 0.135,0.022 0.262,-0.074 0.28,-0.207 z" />
        <circle
           d="m 24.384999,587.71002 c 0,0.12924 -0.104765,0.234 -0.234,0.234 -0.129235,0 -0.234,-0.10476 -0.234,-0.234 0,-0.12923 0.104765,-0.234 0.234,-0.234 0.129235,0 0.234,0.10477 0.234,0.234 z"
           style="fill:#272525"
           sodipodi:ry="0.234"
           sodipodi:rx="0.234"
           sodipodi:cy="587.71002"
           sodipodi:cx="24.150999"
           id="circle18168"
           r="0.234"
           cy="587.71002"
           cx="24.150999" />
        <circle
           d="m 24.097,587.04199 c 0,0.12261 -0.09939,0.222 -0.222,0.222 -0.122607,0 -0.222,-0.0994 -0.222,-0.222 0,-0.12261 0.09939,-0.222 0.222,-0.222 0.122607,0 0.222,0.0994 0.222,0.222 z"
           style="fill:#272525"
           sodipodi:ry="0.222"
           sodipodi:rx="0.222"
           sodipodi:cy="587.04199"
           sodipodi:cx="23.875"
           id="circle18170"
           r="0.222"
           cy="587.04199"
           cx="23.875" />
        <circle
           d="m 23.809,586.37402 c 0,0.11543 -0.09357,0.209 -0.209,0.209 -0.115427,0 -0.209,-0.0936 -0.209,-0.209 0,-0.11542 0.09357,-0.209 0.209,-0.209 0.115428,0 0.209,0.0936 0.209,0.209 z"
           style="fill:#272525"
           sodipodi:ry="0.20900001"
           sodipodi:rx="0.20900001"
           sodipodi:cy="586.37402"
           sodipodi:cx="23.6"
           id="circle18172"
           r="0.20900001"
           cy="586.37402"
           cx="23.6" />
        <circle
           d="m 23.520999,585.70599 c 0,0.1088 -0.0882,0.197 -0.197,0.197 -0.1088,0 -0.197,-0.0882 -0.197,-0.197 0,-0.1088 0.0882,-0.197 0.197,-0.197 0.1088,0 0.197,0.0882 0.197,0.197 z"
           style="fill:#272525"
           sodipodi:ry="0.197"
           sodipodi:rx="0.197"
           sodipodi:cy="585.70599"
           sodipodi:cx="23.323999"
           id="circle18174"
           r="0.197"
           cy="585.70599"
           cx="23.323999" />
        <path
           style="fill:#272525"
           inkscape:connector-curvature="0"
           id="path18176"
           d="m 25.416,588.062 c 0.007,-0.141 0.128,-0.252 0.27,-0.244 0.143,0.008 0.251,0.127 0.244,0.271 -0.005,0.143 -0.127,0.25 -0.27,0.242 -0.142,-0.003 -0.252,-0.124 -0.244,-0.269 z" />
        <circle
           d="m 25.511001,587.53802 c 0,0.13531 -0.10969,0.245 -0.245,0.245 -0.13531,0 -0.245,-0.10969 -0.245,-0.245 0,-0.1353 0.10969,-0.245 0.245,-0.245 0.13531,0 0.245,0.1097 0.245,0.245 z"
           style="fill:#272525"
           sodipodi:ry="0.245"
           sodipodi:rx="0.245"
           sodipodi:cy="587.53802"
           sodipodi:cx="25.266001"
           id="circle18178"
           r="0.245"
           cy="587.53802"
           cx="25.266001" />
        <circle
           d="m 25.092001,587.00098 c 0,0.12813 -0.10387,0.232 -0.232,0.232 -0.12813,0 -0.232,-0.10387 -0.232,-0.232 0,-0.12813 0.10387,-0.232 0.232,-0.232 0.12813,0 0.232,0.10387 0.232,0.232 z"
           style="fill:#272525"
           sodipodi:ry="0.23199999"
           sodipodi:rx="0.23199999"
           sodipodi:cy="587.00098"
           sodipodi:cx="24.860001"
           id="circle18180"
           r="0.23199999"
           cy="587.00098"
           cx="24.860001" />
        <circle
           d="m 24.672999,586.46399 c 0,0.1215 -0.0985,0.22 -0.22,0.22 -0.121503,0 -0.22,-0.0985 -0.22,-0.22 0,-0.1215 0.0985,-0.22 0.22,-0.22 0.121503,0 0.22,0.0985 0.22,0.22 z"
           style="fill:#272525"
           sodipodi:ry="0.22"
           sodipodi:rx="0.22"
           sodipodi:cy="586.46399"
           sodipodi:cx="24.452999"
           id="circle18182"
           r="0.22"
           cy="586.46399"
           cx="24.452999" />
        <circle
           d="m 24.255001,585.927 c 0,0.11488 -0.09313,0.208 -0.208,0.208 -0.114875,0 -0.208,-0.0931 -0.208,-0.208 0,-0.11487 0.09313,-0.208 0.208,-0.208 0.114875,0 0.208,0.0931 0.208,0.208 z"
           style="fill:#272525"
           sodipodi:ry="0.208"
           sodipodi:rx="0.208"
           sodipodi:cy="585.927"
           sodipodi:cx="24.047001"
           id="circle18184"
           r="0.208"
           cy="585.927"
           cx="24.047001" />
        <circle
           d="m 23.835999,585.39001 c 0,0.10825 -0.08775,0.196 -0.196,0.196 -0.108247,0 -0.196,-0.0878 -0.196,-0.196 0,-0.10824 0.08775,-0.196 0.196,-0.196 0.108248,0 0.196,0.0878 0.196,0.196 z"
           style="fill:#272525"
           sodipodi:ry="0.19599999"
           sodipodi:rx="0.19599999"
           sodipodi:cy="585.39001"
           sodipodi:cx="23.639999"
           id="circle18186"
           r="0.19599999"
           cy="585.39001"
           cx="23.639999" />
        <path
           style="fill:#272525"
           inkscape:connector-curvature="0"
           id="path18188"
           d="m 26.12,586.957 c -0.143,0.008 -0.267,-0.102 -0.271,-0.244 -0.008,-0.145 0.104,-0.266 0.247,-0.271 0.14,-0.006 0.262,0.102 0.268,0.248 0.008,0.138 -0.102,0.261 -0.244,0.267 z" />
        <path
           style="fill:#272525"
           inkscape:connector-curvature="0"
           id="path18190"
           d="m 25.81,586.283 c 0.007,0.131 -0.095,0.244 -0.229,0.25 -0.134,0.006 -0.249,-0.096 -0.255,-0.229 -0.006,-0.135 0.098,-0.246 0.231,-0.254 0.133,-0.005 0.246,0.096 0.253,0.233 z" />
        <path
           style="fill:#272525"
           inkscape:connector-curvature="0"
           id="path18192"
           d="m 25.257,585.877 c 0.006,0.123 -0.09,0.229 -0.215,0.234 -0.125,0.005 -0.233,-0.09 -0.238,-0.213 -0.006,-0.127 0.092,-0.232 0.217,-0.238 0.123,-0.006 0.229,0.09 0.236,0.217 z" />
        <circle
           d="m 24.704999,585.47998 c 0,0.11653 -0.09447,0.211 -0.211,0.211 -0.116532,0 -0.211,-0.0945 -0.211,-0.211 0,-0.11653 0.09447,-0.211 0.211,-0.211 0.116533,0 0.211,0.0945 0.211,0.211 z"
           style="fill:#272525"
           sodipodi:ry="0.211"
           sodipodi:rx="0.211"
           sodipodi:cy="585.47998"
           sodipodi:cx="24.493999"
           id="circle18194"
           r="0.211"
           cy="585.47998"
           cx="24.493999" />
        <circle
           d="m 24.153001,585.07397 c 0,0.10825 -0.08775,0.196 -0.196,0.196 -0.108248,0 -0.196,-0.0877 -0.196,-0.196 0,-0.10824 0.08775,-0.196 0.196,-0.196 0.108248,0 0.196,0.0878 0.196,0.196 z"
           style="fill:#272525"
           sodipodi:ry="0.19599999"
           sodipodi:rx="0.19599999"
           sodipodi:cy="585.07397"
           sodipodi:cx="23.957001"
           id="circle18196"
           r="0.19599999"
           cy="585.07397"
           cx="23.957001" />
        <circle
           d="m 24.469001,584.75702 c 0,0.10825 -0.08775,0.196 -0.196,0.196 -0.108248,0 -0.196,-0.0878 -0.196,-0.196 0,-0.10825 0.08775,-0.196 0.196,-0.196 0.108248,0 0.196,0.0878 0.196,0.196 z"
           style="fill:#272525"
           sodipodi:ry="0.19599999"
           sodipodi:rx="0.19599999"
           sodipodi:cy="584.75702"
           sodipodi:cx="24.273001"
           id="circle18198"
           r="0.19599999"
           cy="584.75702"
           cx="24.273001" />
        <circle
           d="m 25.176,585.04602 c 0,0.11488 -0.09312,0.208 -0.208,0.208 -0.114875,0 -0.208,-0.0931 -0.208,-0.208 0,-0.11487 0.09312,-0.208 0.208,-0.208 0.114876,0 0.208,0.0931 0.208,0.208 z"
           style="fill:#272525"
           sodipodi:ry="0.208"
           sodipodi:rx="0.208"
           sodipodi:cy="585.04602"
           sodipodi:cx="24.968"
           id="circle18200"
           r="0.208"
           cy="585.04602"
           cx="24.968" />
        <circle
           d="m 25.881001,585.33301 c 0,0.12095 -0.09805,0.219 -0.219,0.219 -0.120951,0 -0.219,-0.098 -0.219,-0.219 0,-0.12095 0.09805,-0.219 0.219,-0.219 0.12095,0 0.219,0.098 0.219,0.219 z"
           style="fill:#272525"
           sodipodi:ry="0.219"
           sodipodi:rx="0.219"
           sodipodi:cy="585.33301"
           sodipodi:cx="25.662001"
           id="circle18202"
           r="0.219"
           cy="585.33301"
           cx="25.662001" />
        <circle
           d="m 26.584001,585.62097 c 0,0.12592 -0.102079,0.228 -0.228,0.228 -0.125921,0 -0.228,-0.10208 -0.228,-0.228 0,-0.12592 0.102079,-0.228 0.228,-0.228 0.125921,0 0.228,0.10208 0.228,0.228 z"
           style="fill:#272525"
           sodipodi:ry="0.228"
           sodipodi:rx="0.228"
           sodipodi:cy="585.62097"
           sodipodi:cx="26.356001"
           id="circle18204"
           r="0.228"
           cy="585.62097"
           cx="26.356001" />
        <circle
           d="m 27.290001,585.90997 c 0,0.132 -0.107004,0.239 -0.239,0.239 -0.131996,0 -0.239,-0.107 -0.239,-0.239 0,-0.13199 0.107004,-0.239 0.239,-0.239 0.131996,0 0.239,0.10701 0.239,0.239 z"
           style="fill:#272525"
           sodipodi:ry="0.23899999"
           sodipodi:rx="0.23899999"
           sodipodi:cy="585.90997"
           sodipodi:cx="27.051001"
           id="circle18206"
           r="0.23899999"
           cy="585.90997"
           cx="27.051001" />
        <circle
           d="m 27.996,586.198 c 0,0.13807 -0.111929,0.25 -0.25,0.25 -0.138071,0 -0.25,-0.11193 -0.25,-0.25 0,-0.13807 0.111929,-0.25 0.25,-0.25 0.138071,0 0.25,0.11193 0.25,0.25 z"
           style="fill:#272525"
           sodipodi:ry="0.25"
           sodipodi:rx="0.25"
           sodipodi:cy="586.198"
           sodipodi:cx="27.746"
           id="circle18208"
           r="0.25"
           cy="586.198"
           cx="27.746" />
        <circle
           d="m 28.702001,586.48499 c 0,0.14469 -0.117302,0.262 -0.262,0.262 -0.144699,0 -0.262,-0.11731 -0.262,-0.262 0,-0.1447 0.117301,-0.262 0.262,-0.262 0.144698,0 0.262,0.1173 0.262,0.262 z"
           style="fill:#272525"
           sodipodi:ry="0.26199999"
           sodipodi:rx="0.26199999"
           sodipodi:cy="586.48499"
           sodipodi:cx="28.440001"
           id="circle18210"
           r="0.26199999"
           cy="586.48499"
           cx="28.440001" />
      </g>
    </g>
  </g>
</svg>
