<?xml version="1.0" encoding="UTF-8" standalone="no"?>
<!-- Created with Inkscape (http://www.inkscape.org/) -->

<svg
   xmlns:dc="http://purl.org/dc/elements/1.1/"
   xmlns:cc="http://creativecommons.org/ns#"
   xmlns:rdf="http://www.w3.org/1999/02/22-rdf-syntax-ns#"
   xmlns:svg="http://www.w3.org/2000/svg"
   xmlns="http://www.w3.org/2000/svg"
   xmlns:inkscape="http://www.inkscape.org/namespaces/inkscape"
   version="1.1"
   width="12"
   height="12"
   id="svg4764">
  <defs
     id="defs4766" />
  <metadata
     id="metadata4769">
    <rdf:RDF>
      <cc:Work
         rdf:about="">
        <dc:format>image/svg+xml</dc:format>
        <dc:type
           rdf:resource="http://purl.org/dc/dcmitype/StillImage" />
        <dc:title />
      </cc:Work>
    </rdf:RDF>
  </metadata>
  <g
     transform="translate(0,-1040.3622)"
     id="layer1">
    <g
       transform="translate(-518,-249.99998)"
       id="slaughterhouse-12"
       style="display:inline">
      <g
         transform="translate(2,-1)"
         id="g6869">
        <path
           d="m 639,243 0.5,1 -1.5,0 0,1 1,0 1,1 c 10e-6,0.59553 2e-5,1.21287 0,1.53125 l 0,2.46875 0.5,0 0.5,-2 1,2 0.5,0 0,-2 c 0.94737,0 1.52631,-0.5 2,-0.5 l 0,1 c 0,0.4025 0.0312,1.5 0.0312,1.5 l 0.46875,0 1,-2 0.5,2 0.5,0 0,-2 0,-1 0,-1.09375 0,-0.90625 -1,-1 -4.99995,0 -0.375,-1 z"
           inkscape:connector-curvature="0"
           transform="translate(-120,1050.3622)"
           id="path6861"
           style="opacity:0.3;color:#000000;fill:#ffffff;fill-opacity:1;fill-rule:nonzero;stroke:#ffffff;stroke-width:2;stroke-linecap:round;stroke-linejoin:round;stroke-miterlimit:4;stroke-opacity:1;stroke-dasharray:none;stroke-dashoffset:0;marker:none;visibility:visible;display:inline;overflow:visible;enable-background:accumulate" />
        <path
           d="m 639,243 0.5,1 -1.5,0 0,1 1,0 1,1 c 10e-6,0.59553 2e-5,1.21287 0,1.53125 l 0,2.46875 0.5,0 0.5,-2 1,2 0.5,0 0,-2 c 0.94737,0 1.52631,-0.5 2,-0.5 l 0,1 c 0,0.4025 0.0312,1.5 0.0312,1.5 l 0.46875,0 1,-2 0.5,2 0.5,0 0,-2 0,-1 0,-1.09375 0,-0.90625 -1,-1 -4.99995,0 -0.375,-1 z"
           inkscape:connector-curvature="0"
           transform="translate(-120,1050.3622)"
           id="path6765"
           style="color:#000000;fill:#444444;fill-opacity:1;fill-rule:nonzero;stroke:none;stroke-width:2;marker:none;visibility:visible;display:inline;overflow:visible;enable-background:accumulate" />
      </g>
    </g>
  </g>
  <rect
     width="12"
     height="12"
     x="0"
     y="0"
     id="canvas"
     style="fill:none;stroke:none;visibility:hidden" />
</svg>
