<?xml version="1.0" encoding="UTF-8" standalone="no"?>
<!-- Created with Inkscape (http://www.inkscape.org/) -->

<svg
   xmlns:dc="http://purl.org/dc/elements/1.1/"
   xmlns:cc="http://creativecommons.org/ns#"
   xmlns:rdf="http://www.w3.org/1999/02/22-rdf-syntax-ns#"
   xmlns:svg="http://www.w3.org/2000/svg"
   xmlns="http://www.w3.org/2000/svg"
   xmlns:inkscape="http://www.inkscape.org/namespaces/inkscape"
   version="1.1"
   width="24"
   height="24"
   id="svg4460">
  <defs
     id="defs4462" />
  <metadata
     id="metadata4465">
    <rdf:RDF>
      <cc:Work
         rdf:about="">
        <dc:format>image/svg+xml</dc:format>
        <dc:type
           rdf:resource="http://purl.org/dc/dcmitype/StillImage" />
        <dc:title />
      </cc:Work>
    </rdf:RDF>
  </metadata>
  <g
     transform="translate(0,-1028.3622)"
     id="layer1">
    <g
       transform="translate(-476,-261.99998)"
       id="slaughterhouse-24"
       style="display:inline">
      <g
         transform="translate(2,0)"
         id="g6877">
        <path
           d="m 477,1295.3622 1,1 -2,2 0,1 3,0.5 c 0,1.5 2.52937,0.6765 2.99995,3.5 l 5e-5,5 1,0 1,-4 1,4 1,0 0,-4 c 2,0 3,-1 4,-1 0,0 0.5,1.6502 0.5,2.5 0,0.8498 -0.5,2.5 -0.5,2.5 l 1,0 1.5,-4 1.5,4 1,0 c 0,0 0,-2.6667 0,-4 0,-0.5 -1,-1 -1,-1.5 0,-1.4121 1,-1.5 1,-2.5 0,-0.2838 0,-2.5 0,-3 0,-0.5 -0.5,-1 -1,-1 l -13,0 -1,-1 z"
           inkscape:connector-curvature="0"
           id="path6857"
           style="opacity:0.3;color:#000000;fill:#ffffff;fill-opacity:1;fill-rule:nonzero;stroke:#ffffff;stroke-width:2;stroke-linecap:round;stroke-linejoin:round;stroke-miterlimit:4;stroke-opacity:1;stroke-dasharray:none;stroke-dashoffset:0;marker:none;visibility:visible;display:inline;overflow:visible;enable-background:accumulate" />
        <path
           d="m 477,1295.3622 1,1 -2,2 0,1 3,0.5 c 0,1.5 2.52937,0.6765 2.99995,3.5 l 5e-5,5 1,0 1,-4 1,4 1,0 0,-4 c 2,0 3,-1 4,-1 0,0 0.5,1.6502 0.5,2.5 0,0.8498 -0.5,2.5 -0.5,2.5 l 1,0 1.5,-4 1.5,4 1,0 c 0,0 0,-2.6667 0,-4 0,-0.5 -1,-1 -1,-1.5 0,-1.4121 1,-1.5 1,-2.5 0,-0.2838 0,-2.5 0,-3 0,-0.5 -0.5,-1 -1,-1 l -13,0 -1,-1 z"
           inkscape:connector-curvature="0"
           id="rect6653"
           style="color:#000000;fill:#444444;fill-opacity:1;fill-rule:nonzero;stroke:none;stroke-width:2;marker:none;visibility:visible;display:inline;overflow:visible;enable-background:accumulate" />
      </g>
    </g>
  </g>
  <rect
     width="24"
     height="24"
     x="0"
     y="0"
     id="canvas"
     style="fill:none;stroke:none;visibility:hidden" />
</svg>
