<?xml version="1.0" encoding="UTF-8" standalone="no"?>
<!-- Created with Inkscape (http://www.inkscape.org/) -->

<svg
   xmlns:dc="http://purl.org/dc/elements/1.1/"
   xmlns:cc="http://creativecommons.org/ns#"
   xmlns:rdf="http://www.w3.org/1999/02/22-rdf-syntax-ns#"
   xmlns:svg="http://www.w3.org/2000/svg"
   xmlns="http://www.w3.org/2000/svg"
   xmlns:inkscape="http://www.inkscape.org/namespaces/inkscape"
   version="1.1"
   width="18"
   height="18"
   id="svg4619">
  <defs
     id="defs4621" />
  <metadata
     id="metadata4624">
    <rdf:RDF>
      <cc:Work
         rdf:about="">
        <dc:format>image/svg+xml</dc:format>
        <dc:type
           rdf:resource="http://purl.org/dc/dcmitype/StillImage" />
        <dc:title />
      </cc:Work>
    </rdf:RDF>
  </metadata>
  <g
     transform="translate(0,-1034.3622)"
     id="layer1">
    <g
       transform="translate(-499.99999,-255.99998)"
       id="slaughterhouse-18"
       style="display:inline">
      <g
         transform="translate(2,-1)"
         id="g6873">
        <path
           d="m 500.68421,1295.3622 0.68421,0.7895 -1.36842,1.7105 0,0.5 2.05263,0.1842 c 0,1.0263 1.62539,1.384 1.94737,3.3158 l 0,3.5 0.5,0 0.99998,-3 1,3 0.5,0 0,-3 c 2.05263,0 1.63158,-0.5 3,-0.5 0,0 -0.079,1.208 -0.079,1.7895 0,0.5814 -0.3421,1.7105 -0.3421,1.7105 l 0.68421,0 1.02631,-2.7368 1.02632,2.7368 0.68421,0 c 0,0 7e-5,-2.0878 7e-5,-3 l -0.5,-1 0.5,-1 c 0,-0.1942 0,-2.6579 0,-3 l -1,-1 -8.5,0 -0.76323,-1 z"
           inkscape:connector-curvature="0"
           id="path6859"
           style="opacity:0.3;color:#000000;fill:#ffffff;fill-opacity:1;fill-rule:nonzero;stroke:#ffffff;stroke-width:2;stroke-linecap:round;stroke-linejoin:round;stroke-miterlimit:4;stroke-opacity:1;stroke-dasharray:none;stroke-dashoffset:0;marker:none;visibility:visible;display:inline;overflow:visible;enable-background:accumulate" />
        <path
           d="m 500.68421,1295.3622 0.68421,0.7895 -1.36842,1.7105 0,0.5 2.05263,0.1842 c 0,1.0263 1.62539,1.384 1.94737,3.3158 l 0,3.5 0.5,0 0.99998,-3 1,3 0.5,0 0,-3 c 2.05263,0 1.63158,-0.5 3,-0.5 0,0 -0.079,1.208 -0.079,1.7895 0,0.5814 -0.3421,1.7105 -0.3421,1.7105 l 0.68421,0 1.02631,-2.7368 1.02632,2.7368 0.68421,0 c 0,0 7e-5,-2.0878 7e-5,-3 l -0.5,-1 0.5,-1 c 0,-0.1942 0,-2.6579 0,-3 l -1,-1 -8.5,0 -0.76323,-1 z"
           inkscape:connector-curvature="0"
           id="path6763"
           style="color:#000000;fill:#444444;fill-opacity:1;fill-rule:nonzero;stroke:none;stroke-width:2;marker:none;visibility:visible;display:inline;overflow:visible;enable-background:accumulate" />
      </g>
    </g>
  </g>
  <rect
     width="18"
     height="18"
     x="0"
     y="0"
     id="canvas"
     style="fill:none;stroke:none;visibility:hidden" />
</svg>
