<?xml version="1.0" encoding="UTF-8" standalone="no"?>
<svg width="12px" height="12px" viewBox="0 0 12 12" version="1.1" xmlns="http://www.w3.org/2000/svg" xmlns:xlink="http://www.w3.org/1999/xlink" xmlns:sketch="http://www.bohemiancoding.com/sketch/ns">
    <!-- Generator: Sketch 3.2.2 (9983) - http://www.bohemiancoding.com/sketch -->
    <title>sledding-black-12</title>
    <desc>Created with Sketch.</desc>
    <defs></defs>
    <g id="Page-1" stroke="none" stroke-width="1" fill="none" fill-rule="evenodd" sketch:type="MSPage">
        <g id="Fill-438-+-Fill-439-+-Fill-440" sketch:type="MSLayerGroup" transform="translate(2.000000, 2.000000)" fill-opacity="0.1" fill="#0A0B09">
            <path d="M9.74816471,7.67998983 L8.44228235,7.16865099 L8.27992941,6.87747193 L7.89875294,6.87747193 L7.89875294,6.18858488 L7.4964,5.47839204 L7.48934118,5.45708625 L7.19287059,5.45708625 L7.19287059,5.20851876 L7.15051765,5.18721298 L4.04463529,3.93727358 C4.04463529,3.93727358 1.77169412,0.485736391 1.54581176,0.485736391 C1.20698824,0.485736391 0.839929412,0.769813526 0.839929412,1.11070609 C0.839929412,1.21723501 0.790517647,1.32376394 0.839929412,1.40898708 L2.66816471,4.03670058 L2.95757647,4.03670058 L2.95757647,4.53383556 L3.4164,5.32214961 L3.66345882,5.45708625 L3.66345882,5.79797882 L4.65875294,6.16727909 L5.07522353,6.16727909 L5.07522353,6.33772537 L6.45169412,6.87747193 L7.19287059,6.87747193 L7.19287059,7.17575292 L7.40463529,7.25387413 L7.60934118,7.58766477 L7.89875294,7.58766477 L7.89875294,7.88594576 L8.01875294,7.94986311 L8.73875294,8.23394025 L8.65404706,8.2978576 L9.95287059,8.2978576 C9.98816471,8.23394025 10.0164,8.16292096 10.0164,8.08479975 C10.0164,7.90014961 9.90345882,7.74390719 9.74816471,7.67998983" id="Fill-438" sketch:type="MSShapeGroup"></path>
            <path d="M7.60934118,8.4967116 L7.11522353,8.2978576 L6.48698824,8.2978576 L6.48698824,8.04929011 L5.35757647,7.58766477 L5.06816471,7.58766477 L5.06816471,7.47403391 L3.59992941,6.87747193 L2.95757647,6.87747193 L2.95757647,6.62180251 L1.84228235,6.16727909 L1.54581176,6.16727909 L1.54581176,6.04654631 L0.522282353,5.63463446 L0.134047059,5.8689981 L7.53169412,9.00805044 C7.69404706,9.00805044 8.32228235,8.86601187 8.60463529,8.72397331 L8.60463529,8.34046917 C8.15287059,8.66005595 7.60934118,8.4967116 7.60934118,8.4967116" id="Fill-439" sketch:type="MSShapeGroup"></path>
            <path d="M9.24698824,6.16727909 L8.66816471,6.16727909 C8.24463529,6.16727909 7.89875294,5.8192846 7.89875294,5.3931689 L7.89875294,4.81081077 C7.89875294,4.38469507 8.24463529,4.03670058 8.66816471,4.03670058 L9.24698824,4.03670058 C9.67051765,4.03670058 10.0164,4.38469507 10.0164,4.81081077 L10.0164,5.3931689 C10.0164,5.8192846 9.67051765,6.16727909 9.24698824,6.16727909" id="Fill-440" sketch:type="MSShapeGroup"></path>
        </g>
        <g id="Fill-438-+-Fill-439-+-Fill-440" sketch:type="MSLayerGroup" transform="translate(1.000000, 1.000000)" fill="#0A0B09" opacity="0.2">
            <path d="M9.74816471,7.67998983 L8.44228235,7.16865099 L8.27992941,6.87747193 L7.89875294,6.87747193 L7.89875294,6.18858488 L7.4964,5.47839204 L7.48934118,5.45708625 L7.19287059,5.45708625 L7.19287059,5.20851876 L7.15051765,5.18721298 L4.04463529,3.93727358 C4.04463529,3.93727358 1.77169412,0.485736391 1.54581176,0.485736391 C1.20698824,0.485736391 0.839929412,0.769813526 0.839929412,1.11070609 C0.839929412,1.21723501 0.790517647,1.32376394 0.839929412,1.40898708 L2.66816471,4.03670058 L2.95757647,4.03670058 L2.95757647,4.53383556 L3.4164,5.32214961 L3.66345882,5.45708625 L3.66345882,5.79797882 L4.65875294,6.16727909 L5.07522353,6.16727909 L5.07522353,6.33772537 L6.45169412,6.87747193 L7.19287059,6.87747193 L7.19287059,7.17575292 L7.40463529,7.25387413 L7.60934118,7.58766477 L7.89875294,7.58766477 L7.89875294,7.88594576 L8.01875294,7.94986311 L8.73875294,8.23394025 L8.65404706,8.2978576 L9.95287059,8.2978576 C9.98816471,8.23394025 10.0164,8.16292096 10.0164,8.08479975 C10.0164,7.90014961 9.90345882,7.74390719 9.74816471,7.67998983" id="Fill-438" sketch:type="MSShapeGroup"></path>
            <path d="M7.60934118,8.4967116 L7.11522353,8.2978576 L6.48698824,8.2978576 L6.48698824,8.04929011 L5.35757647,7.58766477 L5.06816471,7.58766477 L5.06816471,7.47403391 L3.59992941,6.87747193 L2.95757647,6.87747193 L2.95757647,6.62180251 L1.84228235,6.16727909 L1.54581176,6.16727909 L1.54581176,6.04654631 L0.522282353,5.63463446 L0.134047059,5.8689981 L7.53169412,9.00805044 C7.69404706,9.00805044 8.32228235,8.86601187 8.60463529,8.72397331 L8.60463529,8.34046917 C8.15287059,8.66005595 7.60934118,8.4967116 7.60934118,8.4967116" id="Fill-439" sketch:type="MSShapeGroup"></path>
            <path d="M9.24698824,6.16727909 L8.66816471,6.16727909 C8.24463529,6.16727909 7.89875294,5.8192846 7.89875294,5.3931689 L7.89875294,4.81081077 C7.89875294,4.38469507 8.24463529,4.03670058 8.66816471,4.03670058 L9.24698824,4.03670058 C9.67051765,4.03670058 10.0164,4.38469507 10.0164,4.81081077 L10.0164,5.3931689 C10.0164,5.8192846 9.67051765,6.16727909 9.24698824,6.16727909" id="Fill-440" sketch:type="MSShapeGroup"></path>
        </g>
        <g id="Fill-438-+-Fill-439-+-Fill-440" sketch:type="MSLayerGroup" fill="#0A0B09">
            <path d="M9.74816471,7.67998983 L8.44228235,7.16865099 L8.27992941,6.87747193 L7.89875294,6.87747193 L7.89875294,6.18858488 L7.4964,5.47839204 L7.48934118,5.45708625 L7.19287059,5.45708625 L7.19287059,5.20851876 L7.15051765,5.18721298 L4.04463529,3.93727358 C4.04463529,3.93727358 1.77169412,0.485736391 1.54581176,0.485736391 C1.20698824,0.485736391 0.839929412,0.769813526 0.839929412,1.11070609 C0.839929412,1.21723501 0.790517647,1.32376394 0.839929412,1.40898708 L2.66816471,4.03670058 L2.95757647,4.03670058 L2.95757647,4.53383556 L3.4164,5.32214961 L3.66345882,5.45708625 L3.66345882,5.79797882 L4.65875294,6.16727909 L5.07522353,6.16727909 L5.07522353,6.33772537 L6.45169412,6.87747193 L7.19287059,6.87747193 L7.19287059,7.17575292 L7.40463529,7.25387413 L7.60934118,7.58766477 L7.89875294,7.58766477 L7.89875294,7.88594576 L8.01875294,7.94986311 L8.73875294,8.23394025 L8.65404706,8.2978576 L9.95287059,8.2978576 C9.98816471,8.23394025 10.0164,8.16292096 10.0164,8.08479975 C10.0164,7.90014961 9.90345882,7.74390719 9.74816471,7.67998983" id="Fill-438" sketch:type="MSShapeGroup"></path>
            <path d="M7.60934118,8.4967116 L7.11522353,8.2978576 L6.48698824,8.2978576 L6.48698824,8.04929011 L5.35757647,7.58766477 L5.06816471,7.58766477 L5.06816471,7.47403391 L3.59992941,6.87747193 L2.95757647,6.87747193 L2.95757647,6.62180251 L1.84228235,6.16727909 L1.54581176,6.16727909 L1.54581176,6.04654631 L0.522282353,5.63463446 L0.134047059,5.8689981 L7.53169412,9.00805044 C7.69404706,9.00805044 8.32228235,8.86601187 8.60463529,8.72397331 L8.60463529,8.34046917 C8.15287059,8.66005595 7.60934118,8.4967116 7.60934118,8.4967116" id="Fill-439" sketch:type="MSShapeGroup"></path>
            <path d="M9.24698824,6.16727909 L8.66816471,6.16727909 C8.24463529,6.16727909 7.89875294,5.8192846 7.89875294,5.3931689 L7.89875294,4.81081077 C7.89875294,4.38469507 8.24463529,4.03670058 8.66816471,4.03670058 L9.24698824,4.03670058 C9.67051765,4.03670058 10.0164,4.38469507 10.0164,4.81081077 L10.0164,5.3931689 C10.0164,5.8192846 9.67051765,6.16727909 9.24698824,6.16727909" id="Fill-440" sketch:type="MSShapeGroup"></path>
        </g>
    </g>
</svg>