<?xml version="1.0" encoding="UTF-8" standalone="no"?>
<!-- Created with Inkscape (http://www.inkscape.org/) -->

<svg
   xmlns:dc="http://purl.org/dc/elements/1.1/"
   xmlns:cc="http://creativecommons.org/ns#"
   xmlns:rdf="http://www.w3.org/1999/02/22-rdf-syntax-ns#"
   xmlns:svg="http://www.w3.org/2000/svg"
   xmlns="http://www.w3.org/2000/svg"
   xmlns:sodipodi="http://sodipodi.sourceforge.net/DTD/sodipodi-0.dtd"
   xmlns:inkscape="http://www.inkscape.org/namespaces/inkscape"
   width="24"
   height="24"
   id="svg27349"
   version="1.1"
   inkscape:version="0.48.2 r9819"
   sodipodi:docname="sledding-white-24.svg">
  <defs
     id="defs27351" />
  <sodipodi:namedview
     id="base"
     pagecolor="#ffffff"
     bordercolor="#666666"
     borderopacity="1.0"
     inkscape:pageopacity="0.0"
     inkscape:pageshadow="2"
     inkscape:zoom="8.6123905"
     inkscape:cx="11.808263"
     inkscape:cy="10.533919"
     inkscape:document-units="px"
     inkscape:current-layer="layer1"
     showgrid="false"
     inkscape:window-width="483"
     inkscape:window-height="454"
     inkscape:window-x="3648"
     inkscape:window-y="148"
     inkscape:window-maximized="0"
     gridtolerance="10">
    <inkscape:grid
       type="xygrid"
       id="grid3004"
       empspacing="5"
       visible="true"
       enabled="true"
       snapvisiblegridlinesonly="true" />
  </sodipodi:namedview>
  <metadata
     id="metadata27354">
    <rdf:RDF>
      <cc:Work
         rdf:about="">
        <dc:format>image/svg+xml</dc:format>
        <dc:type
           rdf:resource="http://purl.org/dc/dcmitype/StillImage" />
        <dc:title></dc:title>
      </cc:Work>
    </rdf:RDF>
  </metadata>
  <g
     inkscape:label="Layer 1"
     inkscape:groupmode="layer"
     id="layer1"
     transform="translate(0,-1028.3622)">
    <g
       id="g18844"
       transform="matrix(2.4281667,0,0,2.4281667,-52.760842,-419.50904)">
      <path
         d="m 30.414,606.135 c 0.652,0 1.182,-0.529 1.182,-1.182 v -7.521 c 0,-0.652 -0.529,-1.182 -1.182,-1.182 h -7.521 c -0.652,0 -1.181,0.529 -1.181,1.182 v 7.521 c 0,0.652 0.528,1.182 1.181,1.182 h 7.521 z"
         id="path18846"
         inkscape:connector-curvature="0"
         style="opacity:0;fill:#272525" />
      <path
         d="m 30.2,604.23 c 0.034,0.012 0.071,0.018 0.11,0.018 0.199,0 0.361,-0.162 0.361,-0.361 0,-0.15 -0.093,-0.281 -0.225,-0.334 l -1.078,-0.42 -0.784,-1.395 c 0,0 -0.064,-0.154 -0.292,-0.238 l -2.573,-1.031 -1.53,-2.592 c -0.089,-0.148 -0.252,-0.25 -0.439,-0.25 -0.283,0 -0.512,0.23 -0.512,0.514 0,0.09 0.023,0.174 0.064,0.248 l 1.899,3.221 -1.204,-0.48 -0.303,0.182 4.811,1.893 h -10e-4 l 0.196,0.312 c 0,0 0.078,0.168 0.312,0.26 l 0.597,0.232 c -0.389,0.389 -0.934,0.221 -0.934,0.221 l -5.874,-2.359 -0.324,0.193 6.134,2.426 c 0.713,0.26 1.296,-0.363 1.296,-0.363 v 0.002 l 0.293,0.101 z"
         id="path18848"
         inkscape:connector-curvature="0"
         style="fill:#272525" />
      <g
         style="opacity:0.6;stroke:#ffffff;stroke-width:0.5;stroke-miterlimit:4;stroke-opacity:1;stroke-dasharray:none"
         id="g18850">
        <circle
           cx="29.642"
           cy="601.70898"
           r="0.77899998"
           id="circle18852"
           sodipodi:cx="29.642"
           sodipodi:cy="601.70898"
           sodipodi:rx="0.77899998"
           sodipodi:ry="0.77899998"
           style="fill:#272525;stroke:#ffffff;stroke-width:0.5;stroke-miterlimit:4;stroke-opacity:1;stroke-dasharray:none"
           d="m 30.421,601.70898 c 0,0.43023 -0.34877,0.779 -0.779,0.779 -0.43023,0 -0.779,-0.34877 -0.779,-0.779 0,-0.43023 0.34877,-0.779 0.779,-0.779 0.43023,0 0.779,0.34877 0.779,0.779 z" />
        <path
           style="fill:#272525;stroke:#ffffff;stroke-width:0.5;stroke-miterlimit:4;stroke-opacity:1;stroke-dasharray:none"
           inkscape:connector-curvature="0"
           id="path18854"
           d="m 30.2,604.23 c 0.034,0.012 0.071,0.018 0.11,0.018 0.199,0 0.361,-0.162 0.361,-0.361 0,-0.15 -0.093,-0.281 -0.225,-0.334 l -1.078,-0.42 -0.784,-1.395 c 0,0 -0.064,-0.154 -0.292,-0.238 l -2.573,-1.031 -1.53,-2.592 c -0.089,-0.148 -0.252,-0.25 -0.439,-0.25 -0.283,0 -0.512,0.23 -0.512,0.514 0,0.09 0.023,0.174 0.064,0.248 l 1.899,3.221 -1.204,-0.48 -0.303,0.182 4.811,1.893 h -10e-4 l 0.196,0.312 c 0,0 0.078,0.168 0.312,0.26 l 0.597,0.232 c -0.389,0.389 -0.934,0.221 -0.934,0.221 l -5.874,-2.359 -0.324,0.193 6.134,2.426 c 0.713,0.26 1.296,-0.363 1.296,-0.363 v 0.002 l 0.293,0.101 z" />
      </g>
      <g
         id="g18856">
        <circle
           style="fill:#272525"
           sodipodi:ry="0.77899998"
           sodipodi:rx="0.77899998"
           sodipodi:cy="601.70898"
           sodipodi:cx="29.642"
           id="circle18858"
           r="0.77899998"
           cy="601.70898"
           cx="29.642"
           d="m 30.421,601.70898 c 0,0.43023 -0.34877,0.779 -0.779,0.779 -0.43023,0 -0.779,-0.34877 -0.779,-0.779 0,-0.43023 0.34877,-0.779 0.779,-0.779 0.43023,0 0.779,0.34877 0.779,0.779 z" />
        <path
           d="m 30.2,604.23 c 0.034,0.012 0.071,0.018 0.11,0.018 0.199,0 0.361,-0.162 0.361,-0.361 0,-0.15 -0.093,-0.281 -0.225,-0.334 l -1.078,-0.42 -0.784,-1.395 c 0,0 -0.064,-0.154 -0.292,-0.238 l -2.573,-1.031 -1.53,-2.592 c -0.089,-0.148 -0.252,-0.25 -0.439,-0.25 -0.283,0 -0.512,0.23 -0.512,0.514 0,0.09 0.023,0.174 0.064,0.248 l 1.899,3.221 -1.204,-0.48 -0.303,0.182 4.811,1.893 h -10e-4 l 0.196,0.312 c 0,0 0.078,0.168 0.312,0.26 l 0.597,0.232 c -0.389,0.389 -0.934,0.221 -0.934,0.221 l -5.874,-2.359 -0.324,0.193 6.134,2.426 c 0.713,0.26 1.296,-0.363 1.296,-0.363 v 0.002 l 0.293,0.101 z"
           id="path18860"
           inkscape:connector-curvature="0"
           style="fill:#272525" />
      </g>
    </g>
  </g>
</svg>
