<?xml version="1.0" encoding="utf-8"?>
<!-- Generator: Adobe Illustrator 18.1.1, SVG Export Plug-In . SVG Version: 6.00 Build 0)  -->
<svg version="1.1" xmlns="http://www.w3.org/2000/svg" xmlns:xlink="http://www.w3.org/1999/xlink" x="0px" y="0px"
	 viewBox="0 0 24 24" enable-background="new 0 0 24 24" xml:space="preserve">
<g id="shadows">
	<g opacity="0.2">
		<path d="M21.533,17.765l-2.236-0.872l-0.95-1.689h-0.212v-0.376L17.67,14c0,0-0.133-0.32-0.606-0.494l-5.338-2.139L8.553,5.989
			c-0.185-0.307-0.523-0.83-0.911-0.83c-0.587,0-1.096,0.789-1.096,1.378c0,0.186,0.082,0.362,0.167,0.515l3.94,6.682l-2.126-0.848
			H7.907l-0.382,0.229l9.981,3.928h-0.002l0.301,0.479h0.33v0.44c0.101,0.094,0.231,0.192,0.422,0.268l1.238,0.48
			c-0.807,0.808-1.938,0.459-1.938,0.459l-0.253-0.102h-0.242v-0.097l-11.302-4.54h-0.65L5,14.675l12.726,5.034
			c1.479,0.538,2.688-0.754,2.688-0.754v0.004l0.608,0.21c0.07,0.025,0.147,0.037,0.228,0.037c0.413,0,0.749-0.335,0.749-0.749
			C21.999,18.146,21.806,17.875,21.533,17.765"/>
		<path d="M22,13.659c0,0.852-0.692,1.545-1.545,1.545c-0.854,0-1.545-0.693-1.545-1.545c0-0.854,0.691-1.545,1.545-1.545
			C21.308,12.114,22,12.805,22,13.659"/>
		<rect x="5.001" y="5.159" fill="none" width="16.999" height="14.682"/>
	</g>
</g>
<g id="icons">
	<path fill="#FFFFFF" d="M20.533,16.765l-2.236-0.872l-0.95-1.689h-0.212v-0.376l-0.465-0.83c0,0-0.133-0.32-0.606-0.493
		l-5.338-2.139L7.553,4.989c-0.185-0.307-0.523-0.83-0.911-0.83c-0.587,0-1.096,0.788-1.096,1.378c0,0.186,0.082,0.361,0.167,0.515
		l3.94,6.682l-2.126-0.847H6.907l-0.382,0.229l9.981,3.927h-0.002l0.301,0.479h0.33v0.44c0.101,0.093,0.231,0.191,0.422,0.268
		l1.238,0.481c-0.807,0.807-1.938,0.459-1.938,0.459l-0.253-0.102h-0.242v-0.097l-11.302-4.54h-0.65L4,13.675l12.726,5.034
		c1.479,0.539,2.688-0.754,2.688-0.754v0.005l0.608,0.21c0.07,0.025,0.147,0.037,0.228,0.037c0.413,0,0.749-0.336,0.749-0.748
		C20.999,17.147,20.806,16.875,20.533,16.765"/>
	<path fill="#FFFFFF" d="M21,12.659c0,0.853-0.692,1.545-1.545,1.545c-0.854,0-1.545-0.692-1.545-1.545
		c0-0.854,0.691-1.545,1.545-1.545C20.308,11.113,21,11.805,21,12.659"/>
</g>
</svg>
