<?xml version="1.0" encoding="utf-8"?>
<!-- Generator: Adobe Illustrator 18.1.1, SVG Export Plug-In . SVG Version: 6.00 Build 0)  -->
<svg version="1.1" xmlns="http://www.w3.org/2000/svg" xmlns:xlink="http://www.w3.org/1999/xlink" x="0px" y="0px"
	 viewBox="0 0 18 18" enable-background="new 0 0 18 18" xml:space="preserve">
<g id="shadows">
	<g opacity="0.2">
		<path d="M16.393,13.08l-1.71-0.667l-0.213-0.378h-0.506v-0.899l-0.524-0.935l-0.013-0.022h-0.392V9.854l-0.059-0.031L8.894,8.188
			c0,0-2.99-4.509-3.287-4.509c-0.449,0-0.928,0.364-0.928,0.815c0,0.143-0.064,0.276,0,0.394l2.404,3.434h0.381v0.647l0.608,1.029
			l0.321,0.182v0.442l1.309,0.486h0.548v0.216l1.812,0.713h0.973v0.383l0.278,0.109h-0.002l0.274,0.436h0.378v0.389l0.154,0.083
			l0.948,0.368l-0.112,0.089h1.711c0.05-0.085,0.085-0.178,0.085-0.282C16.749,13.372,16.601,13.164,16.393,13.08"/>
		<path d="M13.583,14.154l-0.652-0.261h-0.825v-0.331l-1.487-0.598h-0.38v-0.152l-1.933-0.776H7.464v-0.338l-1.469-0.59H5.607
			v-0.156l-1.342-0.54L3.75,10.718l9.732,4.102c0.212,0,1.042-0.184,1.41-0.37v-0.51C14.298,14.368,13.583,14.154,13.583,14.154"/>
		<path d="M15.736,11.107h-0.759c-0.561,0-1.013-0.454-1.013-1.013v-0.76c0-0.559,0.453-1.013,1.013-1.013h0.759
			c0.56,0,1.014,0.455,1.014,1.013v0.76C16.75,10.653,16.296,11.107,15.736,11.107"/>
		<rect x="3.751" y="3.679" fill="none" width="12.999" height="11.142"/>
	</g>
</g>
<g id="icons">
	<path fill="#FFFFFF" d="M15.643,12.33l-1.71-0.667l-0.213-0.378h-0.506v-0.899l-0.524-0.935l-0.013-0.022h-0.392V9.104
		l-0.059-0.031L8.144,7.438c0,0-2.99-4.509-3.287-4.509c-0.449,0-0.928,0.364-0.928,0.815c0,0.143-0.064,0.276,0,0.394l2.404,3.434
		h0.381v0.647l0.608,1.029l0.321,0.182v0.442l1.309,0.486H9.5v0.216l1.812,0.713h0.973v0.383l0.278,0.109h-0.002l0.274,0.436h0.378
		v0.389l0.154,0.083l0.948,0.368l-0.112,0.089h1.71c0.05-0.085,0.085-0.178,0.085-0.282C15.999,12.622,15.851,12.414,15.643,12.33"
		/>
	<path fill="#FFFFFF" d="M12.833,13.404l-0.652-0.261h-0.825v-0.331L9.87,12.214H9.49v-0.152l-1.933-0.776H6.714v-0.338l-1.469-0.59
		H4.857v-0.156l-1.342-0.54L3,9.968l9.732,4.102c0.212,0,1.042-0.184,1.41-0.37v-0.51C13.548,13.618,12.833,13.404,12.833,13.404"/>
	<path fill="#FFFFFF" d="M14.986,10.357h-0.759c-0.561,0-1.013-0.454-1.013-1.013v-0.76c0-0.559,0.453-1.013,1.013-1.013h0.759
		c0.56,0,1.014,0.455,1.014,1.013v0.76C16,9.903,15.546,10.357,14.986,10.357"/>
</g>
</svg>
