<?xml version="1.0" encoding="UTF-8" standalone="no"?>
<svg width="18px" height="18px" viewBox="0 0 18 18" version="1.1" xmlns="http://www.w3.org/2000/svg" xmlns:xlink="http://www.w3.org/1999/xlink" xmlns:sketch="http://www.bohemiancoding.com/sketch/ns">
    <!-- Generator: Sketch 3.2.2 (9983) - http://www.bohemiancoding.com/sketch -->
    <title>sledding-black-18</title>
    <desc>Created with Sketch.</desc>
    <defs></defs>
    <g id="Page-1" stroke="none" stroke-width="1" fill="none" fill-rule="evenodd" sketch:type="MSPage">
        <g id="Fill-436-+-Fill-437" sketch:type="MSLayerGroup" transform="translate(1.500000, 1.300049)" fill="#0A0B09" opacity="0.1">
            <path d="M16.3333333,12.7095463 L14.1851852,11.8846862 L13.2740741,10.2860636 L13.0740741,10.2860636 L13.0740741,9.93568052 L12.6296296,9.14731866 C12.6296296,9.14731866 12.4962963,8.84803314 12.0444444,8.68014127 L6.92592593,6.66543874 L3.88888889,1.58488454 C3.71111111,1.29289867 3.38518519,0.796522684 3.01481481,0.796522684 C2.45185185,0.796522684 1.96296296,1.54108666 1.96296296,2.10315947 C1.96296296,2.27835099 2.03703704,2.43894322 2.12592593,2.58493616 L5.8962963,8.89913067 L3.85925926,8.09616952 L3.26666667,8.09616952 L2.9037037,8.31515892 L12.4666667,12.0233795 L12.7555556,12.4759576 L13.0740741,12.4759576 L13.0740741,12.8920375 C13.1703704,12.9796333 13.2962963,13.0745287 13.4814815,13.1475251 L14.6666667,13.6001032 C13.8888889,14.3665662 12.8074074,14.0307824 12.8074074,14.0307824 L12.562963,13.935887 L12.3333333,13.935887 L12.3333333,13.8482912 L1.4962963,9.55609889 L0.874074074,9.55609889 L0.481481481,9.78968758 L12.6814815,14.5417577 C14.0962963,15.052733 15.2592593,13.8336919 15.2592593,13.8336919 L15.8444444,14.0307824 C15.9111111,14.059981 15.9851852,14.0672806 16.0592593,14.0672806 C16.4592593,14.0672806 16.7777778,13.7533958 16.7777778,13.3592149 C16.7777778,13.067229 16.5925926,12.8117414 16.3333333,12.7095463" id="Fill-436" sketch:type="MSShapeGroup"></path>
            <path d="M16.7777778,8.8261342 C16.7777778,9.636395 16.1111111,10.2860636 15.2962963,10.2860636 C14.4814815,10.2860636 13.8148148,9.636395 13.8148148,8.8261342 C13.8148148,8.02317305 14.4814815,7.36620484 15.2962963,7.36620484 C16.1111111,7.36620484 16.7777778,8.02317305 16.7777778,8.8261342" id="Fill-437" sketch:type="MSShapeGroup"></path>
        </g>
        <g id="Fill-436-+-Fill-437" sketch:type="MSLayerGroup" transform="translate(0.500000, 0.300049)" fill="#0A0B09" opacity="0.2">
            <path d="M16.3333333,12.7095463 L14.1851852,11.8846862 L13.2740741,10.2860636 L13.0740741,10.2860636 L13.0740741,9.93568052 L12.6296296,9.14731866 C12.6296296,9.14731866 12.4962963,8.84803314 12.0444444,8.68014127 L6.92592593,6.66543874 L3.88888889,1.58488454 C3.71111111,1.29289867 3.38518519,0.796522684 3.01481481,0.796522684 C2.45185185,0.796522684 1.96296296,1.54108666 1.96296296,2.10315947 C1.96296296,2.27835099 2.03703704,2.43894322 2.12592593,2.58493616 L5.8962963,8.89913067 L3.85925926,8.09616952 L3.26666667,8.09616952 L2.9037037,8.31515892 L12.4666667,12.0233795 L12.7555556,12.4759576 L13.0740741,12.4759576 L13.0740741,12.8920375 C13.1703704,12.9796333 13.2962963,13.0745287 13.4814815,13.1475251 L14.6666667,13.6001032 C13.8888889,14.3665662 12.8074074,14.0307824 12.8074074,14.0307824 L12.562963,13.935887 L12.3333333,13.935887 L12.3333333,13.8482912 L1.4962963,9.55609889 L0.874074074,9.55609889 L0.481481481,9.78968758 L12.6814815,14.5417577 C14.0962963,15.052733 15.2592593,13.8336919 15.2592593,13.8336919 L15.8444444,14.0307824 C15.9111111,14.059981 15.9851852,14.0672806 16.0592593,14.0672806 C16.4592593,14.0672806 16.7777778,13.7533958 16.7777778,13.3592149 C16.7777778,13.067229 16.5925926,12.8117414 16.3333333,12.7095463" id="Fill-436" sketch:type="MSShapeGroup"></path>
            <path d="M16.7777778,8.8261342 C16.7777778,9.636395 16.1111111,10.2860636 15.2962963,10.2860636 C14.4814815,10.2860636 13.8148148,9.636395 13.8148148,8.8261342 C13.8148148,8.02317305 14.4814815,7.36620484 15.2962963,7.36620484 C16.1111111,7.36620484 16.7777778,8.02317305 16.7777778,8.8261342" id="Fill-437" sketch:type="MSShapeGroup"></path>
        </g>
        <g id="Fill-436-+-Fill-437" sketch:type="MSLayerGroup" transform="translate(-0.500000, -0.699951)" fill="#0A0B09">
            <path d="M16.3333333,12.7095463 L14.1851852,11.8846862 L13.2740741,10.2860636 L13.0740741,10.2860636 L13.0740741,9.93568052 L12.6296296,9.14731866 C12.6296296,9.14731866 12.4962963,8.84803314 12.0444444,8.68014127 L6.92592593,6.66543874 L3.88888889,1.58488454 C3.71111111,1.29289867 3.38518519,0.796522684 3.01481481,0.796522684 C2.45185185,0.796522684 1.96296296,1.54108666 1.96296296,2.10315947 C1.96296296,2.27835099 2.03703704,2.43894322 2.12592593,2.58493616 L5.8962963,8.89913067 L3.85925926,8.09616952 L3.26666667,8.09616952 L2.9037037,8.31515892 L12.4666667,12.0233795 L12.7555556,12.4759576 L13.0740741,12.4759576 L13.0740741,12.8920375 C13.1703704,12.9796333 13.2962963,13.0745287 13.4814815,13.1475251 L14.6666667,13.6001032 C13.8888889,14.3665662 12.8074074,14.0307824 12.8074074,14.0307824 L12.562963,13.935887 L12.3333333,13.935887 L12.3333333,13.8482912 L1.4962963,9.55609889 L0.874074074,9.55609889 L0.481481481,9.78968758 L12.6814815,14.5417577 C14.0962963,15.052733 15.2592593,13.8336919 15.2592593,13.8336919 L15.8444444,14.0307824 C15.9111111,14.059981 15.9851852,14.0672806 16.0592593,14.0672806 C16.4592593,14.0672806 16.7777778,13.7533958 16.7777778,13.3592149 C16.7777778,13.067229 16.5925926,12.8117414 16.3333333,12.7095463" id="Fill-436" sketch:type="MSShapeGroup"></path>
            <path d="M16.7777778,8.8261342 C16.7777778,9.636395 16.1111111,10.2860636 15.2962963,10.2860636 C14.4814815,10.2860636 13.8148148,9.636395 13.8148148,8.8261342 C13.8148148,8.02317305 14.4814815,7.36620484 15.2962963,7.36620484 C16.1111111,7.36620484 16.7777778,8.02317305 16.7777778,8.8261342" id="Fill-437" sketch:type="MSShapeGroup"></path>
        </g>
    </g>
</svg>