<?xml version="1.0" encoding="utf-8"?>
<!-- Generator: Adobe Illustrator 18.1.1, SVG Export Plug-In . SVG Version: 6.00 Build 0)  -->
<svg version="1.1" xmlns="http://www.w3.org/2000/svg" xmlns:xlink="http://www.w3.org/1999/xlink" x="0px" y="0px"
	 viewBox="0 0 12 12" enable-background="new 0 0 12 12" xml:space="preserve">
<g id="shadows">
	<g opacity="0.2">
		<path d="M10.252,8.651L9.069,8.19L8.921,7.929H8.571V7.306L8.208,6.659L8.199,6.643H7.928V6.418L7.887,6.397L5.061,5.265
			c0,0-2.07-3.121-2.275-3.121c-0.31,0-0.642,0.252-0.642,0.564c0,0.099-0.045,0.191,0,0.272l1.664,2.377h0.264v0.448l0.421,0.712
			l0.222,0.126v0.306l0.907,0.336h0.379v0.149l1.255,0.494h0.674v0.265l0.193,0.075H8.12l0.189,0.302h0.262V8.84l0.107,0.057
			l0.656,0.255L9.256,9.214h1.184C10.475,9.156,10.5,9.091,10.5,9.019C10.5,8.854,10.397,8.71,10.252,8.651"/>
		<path d="M8.308,9.395L7.856,9.214H7.285V8.985L6.256,8.571H5.993V8.466L4.655,7.929H4.071V7.694L3.054,7.286H2.786V7.178
			L1.856,6.804L1.5,7.017l6.737,2.84c0.146,0,0.722-0.127,0.977-0.256V9.248C8.803,9.543,8.308,9.395,8.308,9.395"/>
		<path d="M9.798,7.286H9.273c-0.388,0-0.702-0.314-0.702-0.701V6.059c0-0.387,0.314-0.702,0.702-0.702h0.525
			c0.388,0,0.702,0.315,0.702,0.702v0.526C10.5,6.971,10.186,7.286,9.798,7.286"/>
		<rect x="1.5" y="2.143" fill="none" width="9" height="7.714"/>
	</g>
</g>
<g id="icons">
	<path fill="#FFFFFF" d="M9.752,8.151L8.569,7.69L8.421,7.429H8.071V6.806L7.708,6.159L7.699,6.143H7.428V5.918L7.387,5.897
		L4.561,4.765c0,0-2.07-3.121-2.275-3.121c-0.31,0-0.642,0.252-0.642,0.564c0,0.099-0.045,0.191,0,0.272l1.664,2.377h0.264v0.448
		l0.421,0.712l0.222,0.126v0.306l0.907,0.336h0.379v0.149l1.255,0.494h0.674v0.265l0.193,0.075H7.62l0.19,0.302h0.262V8.34
		l0.107,0.057l0.656,0.255L8.756,8.714H9.94C9.975,8.656,10,8.591,10,8.519C10,8.354,9.897,8.21,9.752,8.151"/>
	<path fill="#FFFFFF" d="M7.808,8.895L7.356,8.714H6.785V8.485L5.756,8.071H5.493V7.966L4.155,7.429H3.571V7.194L2.554,6.786H2.286
		V6.678L1.356,6.304L1,6.517l6.737,2.84c0.147,0,0.722-0.127,0.977-0.256V8.748C8.303,9.043,7.808,8.895,7.808,8.895"/>
	<path fill="#FFFFFF" d="M9.298,6.786H8.773c-0.388,0-0.702-0.314-0.702-0.701V5.559c0-0.387,0.314-0.702,0.702-0.702h0.525
		C9.686,4.857,10,5.172,10,5.559v0.526C10,6.471,9.686,6.786,9.298,6.786"/>
</g>
</svg>
