<?xml version="1.0" encoding="utf-8"?>
<!-- Generator: Adobe Illustrator 18.1.1, SVG Export Plug-In . SVG Version: 6.00 Build 0)  -->
<svg version="1.1" xmlns="http://www.w3.org/2000/svg" xmlns:xlink="http://www.w3.org/1999/xlink" x="0px" y="0px"
	 viewBox="0 0 12 12" enable-background="new 0 0 12 12" xml:space="preserve">
<g id="shadows">
	<g opacity="0.2">
		<path d="M11.252,8.651L10.069,8.19L9.921,7.929H9.571V7.306L9.208,6.659L9.199,6.643H8.928V6.418L8.887,6.397L6.061,5.265
			c0,0-2.07-3.121-2.275-3.121c-0.311,0-0.643,0.252-0.643,0.564c0,0.099-0.045,0.191,0,0.272l1.665,2.377h0.264v0.448l0.421,0.712
			l0.222,0.126v0.306l0.907,0.336H7v0.149l1.255,0.494h0.674v0.265l0.193,0.075H9.12l0.189,0.302h0.262V8.84l0.107,0.057
			l0.656,0.255l-0.078,0.062h1.184C11.475,9.156,11.5,9.091,11.5,9.019C11.5,8.854,11.397,8.71,11.252,8.651"/>
		<path d="M9.308,9.395L8.856,9.214H8.285V8.985L7.256,8.571H6.993V8.466L5.655,7.929H5.071V7.694L4.054,7.286H3.786V7.178
			L2.856,6.804L2.5,7.017l6.737,2.84c0.146,0,0.722-0.127,0.977-0.256V9.248C9.803,9.543,9.308,9.395,9.308,9.395"/>
		<path d="M10.798,7.286h-0.525c-0.388,0-0.702-0.314-0.702-0.701V6.059c0-0.387,0.313-0.702,0.702-0.702h0.525
			c0.388,0,0.702,0.315,0.702,0.702v0.526C11.5,6.971,11.186,7.286,10.798,7.286"/>
		<rect x="2.5" y="2.143" fill="none" width="9" height="7.714"/>
	</g>
</g>
<g id="icons">
	<path d="M10.752,8.151L9.569,7.69L9.421,7.429H9.071V6.806L8.708,6.159L8.699,6.143H8.428V5.918L8.387,5.897L5.561,4.765
		c0,0-2.07-3.121-2.275-3.121c-0.311,0-0.643,0.252-0.643,0.564c0,0.099-0.045,0.191,0,0.272l1.665,2.377h0.264v0.448l0.421,0.712
		l0.222,0.126v0.306l0.907,0.336H6.5v0.149l1.255,0.494h0.674v0.265l0.193,0.075H8.62l0.189,0.302h0.262V8.34l0.107,0.057
		l0.656,0.255L9.756,8.714h1.184C10.975,8.656,11,8.591,11,8.519C11,8.354,10.897,8.21,10.752,8.151"/>
	<path d="M8.808,8.895L8.356,8.714H7.785V8.485L6.756,8.071H6.493V7.966L5.155,7.429H4.571V7.194L3.554,6.786H3.286V6.678
		L2.356,6.304L2,6.517l6.737,2.84c0.146,0,0.722-0.127,0.977-0.256V8.748C9.303,9.043,8.808,8.895,8.808,8.895"/>
	<path d="M10.298,6.786H9.773c-0.388,0-0.702-0.314-0.702-0.701V5.559c0-0.387,0.313-0.702,0.702-0.702h0.525
		C10.686,4.857,11,5.172,11,5.559v0.526C11,6.471,10.686,6.786,10.298,6.786"/>
</g>
</svg>
