<?xml version="1.0" encoding="utf-8"?>
<!-- Generator: Adobe Illustrator 18.0.0, SVG Export Plug-In . SVG Version: 6.00 Build 0)  -->
<!DOCTYPE svg PUBLIC "-//W3C//DTD SVG 1.1//EN" "http://www.w3.org/Graphics/SVG/1.1/DTD/svg11.dtd" [
	<!ENTITY ns_flows "http://ns.adobe.com/Flows/1.0/">
	<!ENTITY ns_extend "http://ns.adobe.com/Extensibility/1.0/">
	<!ENTITY ns_ai "http://ns.adobe.com/AdobeIllustrator/10.0/">
	<!ENTITY ns_graphs "http://ns.adobe.com/Graphs/1.0/">
	<!ENTITY st0 "opacity:0.1;">
	<!ENTITY st1 "fill:#010101;">
	<!ENTITY st2 "opacity:0.2;">
]>
<svg version="1.1" id="Layer_1" xmlns:x="&ns_extend;" xmlns:i="&ns_ai;" xmlns:graph="&ns_graphs;"
	 xmlns="http://www.w3.org/2000/svg" xmlns:xlink="http://www.w3.org/1999/xlink" xmlns:a="http://ns.adobe.com/AdobeSVGViewerExtensions/3.0/"
	 x="0px" y="0px" width="24px" height="21px" viewBox="0 0 24 21" style="enable-background:new 0 0 24 21;" xml:space="preserve">
<g style="&st0;">
	<path style="&st1;" d="M23.4,18.3l-2.9-1.1L19.3,15H19v-0.5l-0.6-1.1c0,0-0.2-0.4-0.8-0.6L10.7,10l-4.1-7C6.4,2.7,5.9,2,5.4,2
		C4.7,2,4,3,4,3.8C4,4,4.1,4.3,4.2,4.4l5.1,8.6L6.6,12H5.8l-0.5,0.3l12.9,5.1h0l0.4,0.6H19v0.6c0.1,0.1,0.3,0.2,0.5,0.3l1.6,0.6
		c-1,1-2.5,0.6-2.5,0.6L18.3,20H18v-0.1L3.4,14H2.5L2,14.3l16.5,6.5c1.9,0.7,3.5-1,3.5-1v0l0.8,0.3v0c0.1,0,0.2,0,0.3,0
		c0.5,0,1-0.4,1-1C24,18.8,23.8,18.5,23.4,18.3z"/>
	<circle style="&st1;" cx="22" cy="13" r="2"/>
</g>
<g style="&st2;">
	<path style="&st1;" d="M22.4,17.3l-2.9-1.1L18.3,14H18v-0.5l-0.6-1.1c0,0-0.2-0.4-0.8-0.6L9.7,9l-4.1-7C5.4,1.7,4.9,1,4.4,1
		C3.7,1,3,2,3,2.8C3,3,3.1,3.3,3.2,3.4l5.1,8.6L5.6,11H4.8l-0.5,0.3l12.9,5.1h0l0.4,0.6H18v0.6c0.1,0.1,0.3,0.2,0.5,0.3l1.6,0.6
		c-1,1-2.5,0.6-2.5,0.6L17.3,19H17v-0.1L2.4,13H1.5L1,13.3l16.5,6.5c1.9,0.7,3.5-1,3.5-1v0l0.8,0.3v0c0.1,0,0.2,0,0.3,0
		c0.5,0,1-0.4,1-1C23,17.8,22.8,17.5,22.4,17.3z"/>
	<circle style="&st1;" cx="21" cy="12" r="2"/>
</g>
<g>
	<path style="&st1;" d="M21.4,16.3l-2.9-1.1L17.3,13H17v-0.5l-0.6-1.1c0,0-0.2-0.4-0.8-0.6L8.7,8l-4.1-7C4.4,0.7,3.9,0,3.4,0
		C2.7,0,2,1,2,1.8C2,2,2.1,2.3,2.2,2.4l5.1,8.6L4.6,10H3.8l-0.5,0.3l12.9,5.1h0l0.4,0.6H17v0.6c0.1,0.1,0.3,0.2,0.5,0.3l1.6,0.6
		c-1,1-2.5,0.6-2.5,0.6L16.3,18H16v-0.1L1.4,12H0.5L0,12.3l16.5,6.5c1.9,0.7,3.5-1,3.5-1v0l0.8,0.3v0c0.1,0,0.2,0,0.3,0
		c0.5,0,1-0.4,1-1C22,16.8,21.8,16.5,21.4,16.3z"/>
	<circle style="&st1;" cx="20" cy="11" r="2"/>
</g>
</svg>
