<?xml version="1.0" encoding="utf-8"?>
<!-- Generator: Adobe Illustrator 18.1.1, SVG Export Plug-In . SVG Version: 6.00 Build 0)  -->
<svg version="1.1" xmlns="http://www.w3.org/2000/svg" xmlns:xlink="http://www.w3.org/1999/xlink" x="0px" y="0px"
	 viewBox="0 0 12 12" enable-background="new 0 0 12 12" xml:space="preserve">
<g id="shadows">
	<g opacity="0.2">
		<rect x="2.5" y="9.214" width="3.214" height="0.643"/>
		<polygon points="10.856,8.572 10.856,9.214 7,9.214 7,9.857 10.856,9.857 11.5,9.214 11.5,8.572 		"/>
		<polygon points="10.214,7.928 10.856,7.928 10.856,6.643 10.214,6.643 10.214,6 8.928,6 8.928,5.357 8.606,5.357 8.285,4.714 
			7.643,4.714 7.643,5.357 7.964,5.357 8.285,6 8.285,6.643 7.643,6.643 7,6.643 6.357,6 7.643,6 7.643,5.357 6.357,5.357 
			6.357,4.072 6.036,4.072 5.714,4.072 5.071,4.072 5.071,6.643 3.786,6.643 3.143,8.572 9.571,8.572 		"/>
		<rect x="5.071" y="2.143" width="1.286" height="1.286"/>
		<rect x="2.5" y="2.143" fill="none" width="9" height="7.714"/>
	</g>
</g>
<g id="icons">
	<rect x="2" y="8.714" fill="#FFFFFF" width="3.214" height="0.643"/>
	<polygon fill="#FFFFFF" points="10.356,8.072 10.356,8.714 6.5,8.714 6.5,9.357 10.356,9.357 11,8.714 11,8.072 	"/>
	<polygon fill="#FFFFFF" points="9.714,7.428 10.356,7.428 10.356,6.143 9.714,6.143 9.714,5.5 8.428,5.5 8.428,4.857 8.106,4.857 
		7.785,4.214 7.143,4.214 7.143,4.857 7.464,4.857 7.785,5.5 7.785,6.143 7.143,6.143 6.5,6.143 5.857,5.5 7.143,5.5 7.143,4.857 
		5.857,4.857 5.857,3.572 5.536,3.572 5.214,3.572 4.571,3.572 4.571,6.143 3.286,6.143 2.643,8.072 9.071,8.072 	"/>
	<rect x="4.571" y="1.643" fill="#FFFFFF" width="1.286" height="1.286"/>
</g>
</svg>
