<?xml version="1.0" encoding="utf-8"?>
<!-- Generator: Adobe Illustrator 18.0.0, SVG Export Plug-In . SVG Version: 6.00 Build 0)  -->
<!DOCTYPE svg PUBLIC "-//W3C//DTD SVG 1.1//EN" "http://www.w3.org/Graphics/SVG/1.1/DTD/svg11.dtd" [
	<!ENTITY ns_flows "http://ns.adobe.com/Flows/1.0/">
	<!ENTITY ns_extend "http://ns.adobe.com/Extensibility/1.0/">
	<!ENTITY ns_ai "http://ns.adobe.com/AdobeIllustrator/10.0/">
	<!ENTITY ns_graphs "http://ns.adobe.com/Graphs/1.0/">
	<!ENTITY st0 "opacity:0.1;">
	<!ENTITY st1 "fill:#010101;">
	<!ENTITY st2 "opacity:0.2;">
]>
<svg version="1.1" id="Layer_1" xmlns:x="&ns_extend;" xmlns:i="&ns_ai;" xmlns:graph="&ns_graphs;"
	 xmlns="http://www.w3.org/2000/svg" xmlns:xlink="http://www.w3.org/1999/xlink" xmlns:a="http://ns.adobe.com/AdobeSVGViewerExtensions/3.0/"
	 x="0px" y="0px" width="24px" height="20px" viewBox="0 0 24 20" style="enable-background:new 0 0 24 20;" xml:space="preserve">
<g style="&st0;">
	<rect x="2" y="19" style="&st1;" width="8" height="1"/>
	<polygon style="&st1;" points="22,19 12,19 12,20 22,20 24,18 24,17 	"/>
	<polygon style="&st1;" points="18,18 23,14 21,11 17,11 16,8 15,8 16,11 16,12 15,13 14,13 12,12 12,11 14,11 15,10 14,9 12,9 
		12,7 11,7 10,7 10,6 9,6 9,7 8,7 8,13 6,13 5,14 3,17 4,18 	"/>
	<polygon style="&st1;" points="12,5 13,5 13,3 12,3 12,2 10,2 10,3 9,3 9,5 10,5 10,6 12,6 	"/>
</g>
<g style="&st2;">
	<rect x="1" y="18" style="&st1;" width="8" height="1"/>
	<polygon style="&st1;" points="21,18 11,18 11,19 21,19 23,17 23,16 	"/>
	<polygon style="&st1;" points="17,17 22,13 20,10 16,10 15,7 14,7 15,10 15,11 14,12 13,12 11,11 11,10 13,10 14,9 13,8 11,8 11,6 
		10,6 9,6 9,5 8,5 8,6 7,6 7,12 5,12 4,13 2,16 3,17 	"/>
	<polygon style="&st1;" points="11,4 12,4 12,2 11,2 11,1 9,1 9,2 8,2 8,4 9,4 9,5 11,5 	"/>
</g>
<g>
	<rect y="17" style="&st1;" width="8" height="1"/>
	<polygon style="&st1;" points="20,17 10,17 10,18 20,18 22,16 22,15 	"/>
	<polygon style="&st1;" points="16,16 21,12 19,9 15,9 14,6 13,6 14,9 14,10 13,11 12,11 10,10 10,9 12,9 13,8 12,7 10,7 10,5 9,5 
		8,5 8,4 7,4 7,5 6,5 6,11 4,11 3,12 1,15 2,16 	"/>
	<polygon style="&st1;" points="10,3 11,3 11,1 10,1 10,0 8,0 8,1 7,1 7,3 8,3 8,4 10,4 	"/>
</g>
</svg>
