<?xml version="1.0" encoding="UTF-8" standalone="no"?>
<!-- Created with Inkscape (http://www.inkscape.org/) -->

<svg
   xmlns:dc="http://purl.org/dc/elements/1.1/"
   xmlns:cc="http://creativecommons.org/ns#"
   xmlns:rdf="http://www.w3.org/1999/02/22-rdf-syntax-ns#"
   xmlns:svg="http://www.w3.org/2000/svg"
   xmlns="http://www.w3.org/2000/svg"
   xmlns:sodipodi="http://sodipodi.sourceforge.net/DTD/sodipodi-0.dtd"
   xmlns:inkscape="http://www.inkscape.org/namespaces/inkscape"
   width="12"
   height="12"
   id="svg27498"
   version="1.1"
   inkscape:version="0.48.2 r9819"
   sodipodi:docname="sledding-black-12.svg">
  <defs
     id="defs27500" />
  <sodipodi:namedview
     id="base"
     pagecolor="#ff92ff"
     bordercolor="#666666"
     borderopacity="1.0"
     inkscape:pageopacity="0"
     inkscape:pageshadow="2"
     inkscape:zoom="15.046261"
     inkscape:cx="2.7289703"
     inkscape:cy="5.0632096"
     inkscape:document-units="px"
     inkscape:current-layer="layer1"
     showgrid="false"
     inkscape:window-width="586"
     inkscape:window-height="473"
     inkscape:window-x="2569"
     inkscape:window-y="148"
     inkscape:window-maximized="0">
    <inkscape:grid
       type="xygrid"
       id="grid2986" />
  </sodipodi:namedview>
  <metadata
     id="metadata27503">
    <rdf:RDF>
      <cc:Work
         rdf:about="">
        <dc:format>image/svg+xml</dc:format>
        <dc:type
           rdf:resource="http://purl.org/dc/dcmitype/StillImage" />
        <dc:title></dc:title>
      </cc:Work>
    </rdf:RDF>
  </metadata>
  <g
     inkscape:label="Layer 1"
     inkscape:groupmode="layer"
     id="layer1"
     transform="translate(0,-1040.3622)">
    <g
       id="g18674"
       transform="matrix(1.2140834,0,0,1.2140834,-26.378627,300.99628)">
      <path
         d="m 30.415,618.836 c 0.652,0 1.181,-0.529 1.181,-1.182 v -7.521 c 0,-0.652 -0.528,-1.182 -1.181,-1.182 h -7.521 c -0.652,0 -1.182,0.529 -1.182,1.182 v 7.521 c 0,0.652 0.529,1.182 1.182,1.182 h 7.521 z"
         id="path7129"
         inkscape:connector-curvature="0"
         style="opacity:0;fill:#272525" />
      <g
         style="opacity:0.6;fill:none;stroke:#ffffff;stroke-width:0.5;stroke-miterlimit:4;stroke-opacity:1;stroke-dasharray:none"
         id="g18642">
        <circle
           cx="25.892"
           cy="610.78802"
           r="0.66100001"
           id="circle18644"
           sodipodi:cx="25.892"
           sodipodi:cy="610.78802"
           sodipodi:rx="0.66100001"
           sodipodi:ry="0.66100001"
           style="fill:none;stroke:#ffffff;stroke-width:0.5;stroke-miterlimit:4;stroke-opacity:1;stroke-dasharray:none"
           d="m 26.553,610.78802 c 0,0.36507 -0.29594,0.661 -0.661,0.661 -0.36506,0 -0.661,-0.29593 -0.661,-0.661 0,-0.36506 0.29594,-0.661 0.661,-0.661 0.36506,0 0.661,0.29594 0.661,0.661 z" />
        <path
           d="m 26.67,616.789 h 3.145 c 0,0 0.203,0.014 0.607,-0.311 l 0.688,-0.525 v 0.594 l -0.702,0.525 c 0,0 -0.209,0.17 -0.561,0.209 h -3.441 l 0.264,-0.492 z"
           id="path18646"
           inkscape:connector-curvature="0"
           style="fill:none;stroke:#ffffff;stroke-width:0.5;stroke-miterlimit:4;stroke-opacity:1;stroke-dasharray:none" />
        <polygon
           points="22.29,617.281 25.435,617.281 25.698,616.789 25.671,616.789 22.526,616.789 22.263,617.281 "
           id="polygon18648"
           style="fill:none;stroke:#ffffff;stroke-width:0.5;stroke-miterlimit:4;stroke-opacity:1;stroke-dasharray:none" />
        <path
           d="m 26.232,612.254 c 0,-0.365 -0.296,-0.662 -0.662,-0.662 -0.365,0 -0.662,0.297 -0.662,0.662 v 1.619 c 0,0.205 0.101,0.396 0.248,0.518 h -1.481 l -0.801,1.453 c -0.018,0.033 -0.025,0.07 -0.025,0.109 0,0.133 0.108,0.242 0.241,0.242 h 5.462 c 0,0 0.234,0.037 0.588,-0.24 l 1.417,-1.043 -0.535,-0.936 c 0,0 -0.12,-0.227 -0.574,-0.295 l -1.069,-0.18 -0.574,-0.959 -0.007,-0.01 c -0.083,-0.096 -0.228,-0.105 -0.323,-0.023 l -0.001,0.002 c -0.067,0.062 -0.093,0.164 -0.056,0.254 l 0.427,0.711 v 0.006 l -0.534,0.908 -1.077,-0.41 v -0.402 h 0.851 c 0.041,0.002 0.084,-0.004 0.125,-0.021 0.161,-0.061 0.241,-0.242 0.18,-0.402 -0.047,-0.125 -0.164,-0.199 -0.288,-0.201 l -0.868,-0.002 -0.002,-0.698"
           id="path18650"
           inkscape:connector-curvature="0"
           style="fill:none;stroke:#ffffff;stroke-width:0.5;stroke-miterlimit:4;stroke-opacity:1;stroke-dasharray:none" />
      </g>
      <g
         id="g18636">
        <circle
           style="fill:#272525"
           sodipodi:ry="0.66100001"
           sodipodi:rx="0.66100001"
           sodipodi:cy="610.78802"
           sodipodi:cx="25.892"
           id="circle7133"
           r="0.66100001"
           cy="610.78802"
           cx="25.892"
           d="m 26.553,610.78802 c 0,0.36507 -0.29594,0.661 -0.661,0.661 -0.36506,0 -0.661,-0.29593 -0.661,-0.661 0,-0.36506 0.29594,-0.661 0.661,-0.661 0.36506,0 0.661,0.29594 0.661,0.661 z" />
        <path
           style="fill:#272525"
           inkscape:connector-curvature="0"
           id="path7135"
           d="m 26.67,616.789 h 3.145 c 0,0 0.203,0.014 0.607,-0.311 l 0.688,-0.525 v 0.594 l -0.702,0.525 c 0,0 -0.209,0.17 -0.561,0.209 h -3.441 l 0.264,-0.492 z" />
        <polygon
           style="fill:#272525"
           id="polygon7137"
           points="22.29,617.281 25.435,617.281 25.698,616.789 25.671,616.789 22.526,616.789 22.263,617.281 " />
        <path
           style="fill:#272525"
           inkscape:connector-curvature="0"
           id="path7139"
           d="m 26.232,612.254 c 0,-0.365 -0.296,-0.662 -0.662,-0.662 -0.365,0 -0.662,0.297 -0.662,0.662 v 1.619 c 0,0.205 0.101,0.396 0.248,0.518 h -1.481 l -0.801,1.453 c -0.018,0.033 -0.025,0.07 -0.025,0.109 0,0.133 0.108,0.242 0.241,0.242 h 5.462 c 0,0 0.234,0.037 0.588,-0.24 l 1.417,-1.043 -0.535,-0.936 c 0,0 -0.12,-0.227 -0.574,-0.295 l -1.069,-0.18 -0.574,-0.959 -0.007,-0.01 c -0.083,-0.096 -0.228,-0.105 -0.323,-0.023 l -0.001,0.002 c -0.067,0.062 -0.093,0.164 -0.056,0.254 l 0.427,0.711 v 0.006 l -0.534,0.908 -1.077,-0.41 v -0.402 h 0.851 c 0.041,0.002 0.084,-0.004 0.125,-0.021 0.161,-0.061 0.241,-0.242 0.18,-0.402 -0.047,-0.125 -0.164,-0.199 -0.288,-0.201 l -0.868,-0.002 -0.002,-0.698" />
      </g>
    </g>
  </g>
</svg>
