<?xml version="1.0" encoding="UTF-8" standalone="no"?>
<svg width="12px" height="12px" viewBox="0 0 12 12" version="1.1" xmlns="http://www.w3.org/2000/svg" xmlns:xlink="http://www.w3.org/1999/xlink" xmlns:sketch="http://www.bohemiancoding.com/sketch/ns">
    <!-- Generator: Sketch 3.2.2 (9983) - http://www.bohemiancoding.com/sketch -->
    <title>snowmobile-trail-white-12</title>
    <desc>Created with Sketch.</desc>
    <defs></defs>
    <g id="Page-1" stroke="none" stroke-width="1" fill="none" fill-rule="evenodd" sketch:type="MSPage">
        <g id="Group" sketch:type="MSLayerGroup" transform="translate(2.000000, 2.438084)" fill="#0A0B09" opacity="0.5">
            <path d="M0,8.44903581 L3.52941176,8.44903581 L3.52941176,9.15922865 L0,9.15922865 L0,8.44903581 Z" id="Fill-450" sketch:type="MSShapeGroup"></path>
            <path d="M9.17647059,7.73884298 L9.17647059,8.44903581 L4.94117647,8.44903581 L4.94117647,9.15922865 L9.17647059,9.15922865 L9.88235294,8.44903581 L9.88235294,7.73884298 L9.17647059,7.73884298" id="Fill-451" sketch:type="MSShapeGroup"></path>
            <path d="M8.47058824,7.02865014 L9.17647059,7.02865014 L9.17647059,5.60826446 L8.47058824,5.60826446 L8.47058824,4.89807163 L7.05882353,4.89807163 L7.05882353,4.18787879 L6.70588235,4.18787879 L6.35294118,3.47768595 L5.64705882,3.47768595 L5.64705882,4.18787879 L6,4.18787879 L6.35294118,4.89807163 L6.35294118,5.60826446 L4.94117647,5.60826446 L4.23529412,4.89807163 L5.64705882,4.89807163 L5.64705882,4.18787879 L4.23529412,4.18787879 L4.23529412,2.76749311 L2.82352941,2.76749311 L2.82352941,5.60826446 L1.41176471,5.60826446 L0.705882353,7.73884298 L7.76470588,7.73884298 L8.47058824,7.02865014" id="Fill-452" sketch:type="MSShapeGroup"></path>
            <path d="M2.82352941,0.636914601 L4.23529412,0.636914601 L4.23529412,2.05730028 L2.82352941,2.05730028 L2.82352941,0.636914601 Z" id="Fill-453" sketch:type="MSShapeGroup"></path>
        </g>
        <g id="Group" sketch:type="MSLayerGroup" transform="translate(1.000000, 1.438084)" fill="#0A0B09" opacity="0.75">
            <path d="M0,8.44903581 L3.52941176,8.44903581 L3.52941176,9.15922865 L0,9.15922865 L0,8.44903581 Z" id="Fill-450" sketch:type="MSShapeGroup"></path>
            <path d="M9.17647059,7.73884298 L9.17647059,8.44903581 L4.94117647,8.44903581 L4.94117647,9.15922865 L9.17647059,9.15922865 L9.88235294,8.44903581 L9.88235294,7.73884298 L9.17647059,7.73884298" id="Fill-451" sketch:type="MSShapeGroup"></path>
            <path d="M8.47058824,7.02865014 L9.17647059,7.02865014 L9.17647059,5.60826446 L8.47058824,5.60826446 L8.47058824,4.89807163 L7.05882353,4.89807163 L7.05882353,4.18787879 L6.70588235,4.18787879 L6.35294118,3.47768595 L5.64705882,3.47768595 L5.64705882,4.18787879 L6,4.18787879 L6.35294118,4.89807163 L6.35294118,5.60826446 L4.94117647,5.60826446 L4.23529412,4.89807163 L5.64705882,4.89807163 L5.64705882,4.18787879 L4.23529412,4.18787879 L4.23529412,2.76749311 L2.82352941,2.76749311 L2.82352941,5.60826446 L1.41176471,5.60826446 L0.705882353,7.73884298 L7.76470588,7.73884298 L8.47058824,7.02865014" id="Fill-452" sketch:type="MSShapeGroup"></path>
            <path d="M2.82352941,0.636914601 L4.23529412,0.636914601 L4.23529412,2.05730028 L2.82352941,2.05730028 L2.82352941,0.636914601 Z" id="Fill-453" sketch:type="MSShapeGroup"></path>
        </g>
        <g id="Group" sketch:type="MSLayerGroup" transform="translate(0.000000, 0.438084)" fill="#FFFFFF">
            <path d="M0,8.44903581 L3.52941176,8.44903581 L3.52941176,9.15922865 L0,9.15922865 L0,8.44903581 Z" id="Fill-450" sketch:type="MSShapeGroup"></path>
            <path d="M9.17647059,7.73884298 L9.17647059,8.44903581 L4.94117647,8.44903581 L4.94117647,9.15922865 L9.17647059,9.15922865 L9.88235294,8.44903581 L9.88235294,7.73884298 L9.17647059,7.73884298" id="Fill-451" sketch:type="MSShapeGroup"></path>
            <path d="M8.47058824,7.02865014 L9.17647059,7.02865014 L9.17647059,5.60826446 L8.47058824,5.60826446 L8.47058824,4.89807163 L7.05882353,4.89807163 L7.05882353,4.18787879 L6.70588235,4.18787879 L6.35294118,3.47768595 L5.64705882,3.47768595 L5.64705882,4.18787879 L6,4.18787879 L6.35294118,4.89807163 L6.35294118,5.60826446 L4.94117647,5.60826446 L4.23529412,4.89807163 L5.64705882,4.89807163 L5.64705882,4.18787879 L4.23529412,4.18787879 L4.23529412,2.76749311 L2.82352941,2.76749311 L2.82352941,5.60826446 L1.41176471,5.60826446 L0.705882353,7.73884298 L7.76470588,7.73884298 L8.47058824,7.02865014" id="Fill-452" sketch:type="MSShapeGroup"></path>
            <path d="M2.82352941,0.636914601 L4.23529412,0.636914601 L4.23529412,2.05730028 L2.82352941,2.05730028 L2.82352941,0.636914601 Z" id="Fill-453" sketch:type="MSShapeGroup"></path>
        </g>
    </g>
</svg>