<?xml version="1.0" encoding="UTF-8" standalone="no"?>
<svg width="18px" height="18px" viewBox="0 0 18 18" version="1.1" xmlns="http://www.w3.org/2000/svg" xmlns:xlink="http://www.w3.org/1999/xlink" xmlns:sketch="http://www.bohemiancoding.com/sketch/ns">
    <!-- Generator: Sketch 3.2.2 (9983) - http://www.bohemiancoding.com/sketch -->
    <title>snowmobile-trail-black-18</title>
    <desc>Created with Sketch.</desc>
    <defs></defs>
    <g id="Page-1" stroke="none" stroke-width="1" fill="none" fill-rule="evenodd" sketch:type="MSPage">
        <g id="Group-+-Group-+-Group" sketch:type="MSLayerGroup" fill="#0A0B09">
            <g id="Group" transform="translate(2.000000, 2.199951)" opacity="0.1" sketch:type="MSShapeGroup">
                <path d="M0,13.2700353 L5.92592593,13.2700353 L5.92592593,14 L0,14 L0,13.2700353 Z" id="Fill-446"></path>
                <path d="M14.8148148,13.2700353 L7.40740741,13.2700353 L7.40740741,14 L14.8148148,14 L16.2962963,12.5400706 L16.2962963,11.8101059 L14.8148148,13.2700353" id="Fill-447"></path>
                <path d="M11.8518519,12.5400706 L15.5555556,9.6202119 L14.0740741,7.43031785 L11.1111111,7.43031785 L10.3703704,5.2404238 L9.62962963,5.2404238 L10.3703704,7.43031785 L10.3703704,8.16028253 L9.62962963,8.89024722 L8.88888889,8.89024722 L7.40740741,8.16028253 L7.40740741,7.43031785 L8.88888889,7.43031785 L9.62962963,6.70035316 L8.88888889,5.97038848 L7.40740741,5.97038848 L7.40740741,4.51045911 L5.92592593,4.51045911 L5.92592593,3.78049443 L5.18518519,3.78049443 L5.18518519,4.51045911 L4.44444444,4.51045911 L4.44444444,8.89024722 L2.96296296,8.89024722 L2.22222222,9.6202119 L0.740740741,11.8101059 L1.48148148,12.5400706 L11.8518519,12.5400706" id="Fill-448"></path>
                <path d="M7.40740741,3.05052975 L8.14814815,3.05052975 L8.14814815,1.59060038 L7.40740741,1.59060038 L7.40740741,0.860635697 L5.92592593,0.860635697 L5.92592593,1.59060038 L5.18518519,1.59060038 L5.18518519,3.05052975 L5.92592593,3.05052975 L5.92592593,3.78049443 L7.40740741,3.78049443 L7.40740741,3.05052975" id="Fill-449"></path>
            </g>
            <g id="Group" transform="translate(1.000000, 1.199951)" opacity="0.2" sketch:type="MSShapeGroup">
                <path d="M0,13.2700353 L5.92592593,13.2700353 L5.92592593,14 L0,14 L0,13.2700353 Z" id="Fill-446"></path>
                <path d="M14.8148148,13.2700353 L7.40740741,13.2700353 L7.40740741,14 L14.8148148,14 L16.2962963,12.5400706 L16.2962963,11.8101059 L14.8148148,13.2700353" id="Fill-447"></path>
                <path d="M11.8518519,12.5400706 L15.5555556,9.6202119 L14.0740741,7.43031785 L11.1111111,7.43031785 L10.3703704,5.2404238 L9.62962963,5.2404238 L10.3703704,7.43031785 L10.3703704,8.16028253 L9.62962963,8.89024722 L8.88888889,8.89024722 L7.40740741,8.16028253 L7.40740741,7.43031785 L8.88888889,7.43031785 L9.62962963,6.70035316 L8.88888889,5.97038848 L7.40740741,5.97038848 L7.40740741,4.51045911 L5.92592593,4.51045911 L5.92592593,3.78049443 L5.18518519,3.78049443 L5.18518519,4.51045911 L4.44444444,4.51045911 L4.44444444,8.89024722 L2.96296296,8.89024722 L2.22222222,9.6202119 L0.740740741,11.8101059 L1.48148148,12.5400706 L11.8518519,12.5400706" id="Fill-448"></path>
                <path d="M7.40740741,3.05052975 L8.14814815,3.05052975 L8.14814815,1.59060038 L7.40740741,1.59060038 L7.40740741,0.860635697 L5.92592593,0.860635697 L5.92592593,1.59060038 L5.18518519,1.59060038 L5.18518519,3.05052975 L5.92592593,3.05052975 L5.92592593,3.78049443 L7.40740741,3.78049443 L7.40740741,3.05052975" id="Fill-449"></path>
            </g>
            <g id="Group" transform="translate(0.000000, 0.199951)" sketch:type="MSShapeGroup">
                <path d="M0,13.2700353 L5.92592593,13.2700353 L5.92592593,14 L0,14 L0,13.2700353 Z" id="Fill-446"></path>
                <path d="M14.8148148,13.2700353 L7.40740741,13.2700353 L7.40740741,14 L14.8148148,14 L16.2962963,12.5400706 L16.2962963,11.8101059 L14.8148148,13.2700353" id="Fill-447"></path>
                <path d="M11.8518519,12.5400706 L15.5555556,9.6202119 L14.0740741,7.43031785 L11.1111111,7.43031785 L10.3703704,5.2404238 L9.62962963,5.2404238 L10.3703704,7.43031785 L10.3703704,8.16028253 L9.62962963,8.89024722 L8.88888889,8.89024722 L7.40740741,8.16028253 L7.40740741,7.43031785 L8.88888889,7.43031785 L9.62962963,6.70035316 L8.88888889,5.97038848 L7.40740741,5.97038848 L7.40740741,4.51045911 L5.92592593,4.51045911 L5.92592593,3.78049443 L5.18518519,3.78049443 L5.18518519,4.51045911 L4.44444444,4.51045911 L4.44444444,8.89024722 L2.96296296,8.89024722 L2.22222222,9.6202119 L0.740740741,11.8101059 L1.48148148,12.5400706 L11.8518519,12.5400706" id="Fill-448"></path>
                <path d="M7.40740741,3.05052975 L8.14814815,3.05052975 L8.14814815,1.59060038 L7.40740741,1.59060038 L7.40740741,0.860635697 L5.92592593,0.860635697 L5.92592593,1.59060038 L5.18518519,1.59060038 L5.18518519,3.05052975 L5.92592593,3.05052975 L5.92592593,3.78049443 L7.40740741,3.78049443 L7.40740741,3.05052975" id="Fill-449"></path>
            </g>
        </g>
    </g>
</svg>