<?xml version="1.0" encoding="utf-8"?>
<!-- Generator: Adobe Illustrator 18.1.1, SVG Export Plug-In . SVG Version: 6.00 Build 0)  -->
<svg version="1.1" xmlns="http://www.w3.org/2000/svg" xmlns:xlink="http://www.w3.org/1999/xlink" x="0px" y="0px"
	 viewBox="0 0 18 18" enable-background="new 0 0 18 18" xml:space="preserve">
<g id="shadows">
	<g opacity="0.2">
		<rect x="3.75" y="13.893" width="4.643" height="0.929"/>
		<polygon points="15.821,12.964 15.821,13.893 10.25,13.893 10.25,14.822 15.821,14.822 16.75,13.893 16.75,12.964 		"/>
		<polygon points="14.893,12.035 15.821,12.035 15.821,10.178 14.893,10.178 14.893,9.25 13.036,9.25 13.036,8.322 12.571,8.322 
			12.107,7.393 11.179,7.393 11.179,8.322 11.643,8.322 12.107,9.25 12.107,10.178 11.179,10.178 10.25,10.178 9.321,9.25 
			11.179,9.25 11.179,8.322 9.321,8.322 9.321,6.464 8.857,6.464 8.393,6.464 7.464,6.464 7.464,10.178 5.607,10.178 4.679,12.964 
			13.964,12.964 		"/>
		<rect x="7.464" y="3.678" width="1.857" height="1.857"/>
		<rect x="3.75" y="3.678" fill="none" width="13" height="11.143"/>
	</g>
</g>
<g id="icons">
	<rect x="3" y="13.143" fill="#FFFFFF" width="4.643" height="0.929"/>
	<polygon fill="#FFFFFF" points="15.071,12.214 15.071,13.143 9.5,13.143 9.5,14.072 15.071,14.072 16,13.143 16,12.214 	"/>
	<polygon fill="#FFFFFF" points="14.143,11.285 15.071,11.285 15.071,9.428 14.143,9.428 14.143,8.5 12.286,8.5 12.286,7.572 
		11.821,7.572 11.357,6.643 10.429,6.643 10.429,7.572 10.893,7.572 11.357,8.5 11.357,9.428 10.429,9.428 9.5,9.428 8.571,8.5 
		10.429,8.5 10.429,7.572 8.571,7.572 8.571,5.714 8.107,5.714 7.643,5.714 6.714,5.714 6.714,9.428 4.857,9.428 3.929,12.214 
		13.214,12.214 	"/>
	<rect x="6.714" y="2.928" fill="#FFFFFF" width="1.857" height="1.857"/>
</g>
</svg>
