<?xml version="1.0" encoding="utf-8"?>
<!-- Generator: Adobe Illustrator 18.1.1, SVG Export Plug-In . SVG Version: 6.00 Build 0)  -->
<svg version="1.1" xmlns="http://www.w3.org/2000/svg" xmlns:xlink="http://www.w3.org/1999/xlink" x="0px" y="0px"
	 viewBox="0 0 24 24" enable-background="new 0 0 24 24" xml:space="preserve">
<g id="shadows">
	<g opacity="0.2">
		<rect x="5" y="18.682" width="6.182" height="0.773"/>
		<polygon points="20.455,18.682 12.727,18.682 12.727,19.455 20.455,19.455 22,17.909 22,17.136 		"/>
		<polygon points="17.364,17.909 21.227,14.818 19.682,12.5 16.591,12.5 15.818,10.182 15.045,10.182 15.818,12.5 15.818,13.273 
			15.045,14.045 14.273,14.045 12.727,13.273 12.727,12.5 14.273,12.5 15.045,11.727 14.273,10.955 12.727,10.955 12.727,9.409 
			11.955,9.409 11.182,9.409 11.182,8.636 10.409,8.636 10.409,9.409 9.636,9.409 9.636,14.045 8.091,14.045 7.318,14.818 
			5.773,17.136 6.545,17.909 		"/>
		<polygon points="12.727,7.864 13.5,7.864 13.5,6.318 12.727,6.318 12.727,5.545 11.182,5.545 11.182,6.318 10.409,6.318 
			10.409,7.864 11.182,7.864 11.182,8.636 12.727,8.636 		"/>
		<rect x="5" y="5.545" fill="none" width="17" height="13.909"/>
	</g>
</g>
<g id="icons">
	<rect x="4" y="17.682" fill="#FFFFFF" width="6.182" height="0.773"/>
	<polygon fill="#FFFFFF" points="19.455,17.682 11.727,17.682 11.727,18.455 19.455,18.455 21,16.909 21,16.136 	"/>
	<polygon fill="#FFFFFF" points="16.364,16.909 20.227,13.818 18.682,11.5 15.591,11.5 14.818,9.182 14.045,9.182 14.818,11.5 
		14.818,12.273 14.045,13.045 13.273,13.045 11.727,12.273 11.727,11.5 13.273,11.5 14.045,10.727 13.273,9.955 11.727,9.955 
		11.727,8.409 10.955,8.409 10.182,8.409 10.182,7.636 9.409,7.636 9.409,8.409 8.636,8.409 8.636,13.045 7.091,13.045 
		6.318,13.818 4.773,16.136 5.545,16.909 	"/>
	<polygon fill="#FFFFFF" points="11.727,6.864 12.5,6.864 12.5,5.318 11.727,5.318 11.727,4.545 10.182,4.545 10.182,5.318 
		9.409,5.318 9.409,6.864 10.182,6.864 10.182,7.636 11.727,7.636 	"/>
</g>
</svg>
