<?xml version="1.0" encoding="utf-8"?>
<!-- Generator: Adobe Illustrator 18.1.1, SVG Export Plug-In . SVG Version: 6.00 Build 0)  -->
<svg version="1.1" xmlns="http://www.w3.org/2000/svg" xmlns:xlink="http://www.w3.org/1999/xlink" x="0px" y="0px"
	 viewBox="0 0 12 12" enable-background="new 0 0 12 12" xml:space="preserve">
<g id="shadows">
	<g opacity="0.2">
		<rect x="1.5" y="9.214" width="3.214" height="0.643"/>
		<polygon points="9.856,8.572 9.856,9.214 6,9.214 6,9.857 9.856,9.857 10.5,9.214 10.5,8.572 		"/>
		<polygon points="9.214,7.928 9.856,7.928 9.856,6.643 9.214,6.643 9.214,6 7.928,6 7.928,5.357 7.606,5.357 7.285,4.714 
			6.643,4.714 6.643,5.357 6.964,5.357 7.285,6 7.285,6.643 6.643,6.643 6,6.643 5.357,6 6.643,6 6.643,5.357 5.357,5.357 
			5.357,4.072 5.036,4.072 4.714,4.072 4.071,4.072 4.071,6.643 2.786,6.643 2.143,8.572 8.571,8.572 		"/>
		<rect x="4.071" y="2.143" width="1.286" height="1.286"/>
		<rect x="1.5" y="2.143" fill="none" width="9" height="7.714"/>
	</g>
</g>
<g id="icons">
	<rect x="1" y="8.714" fill="#FFFFFF" width="3.214" height="0.643"/>
	<polygon fill="#FFFFFF" points="9.356,8.072 9.356,8.714 5.5,8.714 5.5,9.357 9.356,9.357 10,8.714 10,8.072 	"/>
	<polygon fill="#FFFFFF" points="8.714,7.428 9.356,7.428 9.356,6.143 8.714,6.143 8.714,5.5 7.428,5.5 7.428,4.857 7.106,4.857 
		6.785,4.214 6.143,4.214 6.143,4.857 6.464,4.857 6.785,5.5 6.785,6.143 6.143,6.143 5.5,6.143 4.857,5.5 6.143,5.5 6.143,4.857 
		4.857,4.857 4.857,3.572 4.536,3.572 4.214,3.572 3.571,3.572 3.571,6.143 2.286,6.143 1.643,8.072 8.071,8.072 	"/>
	<rect x="3.571" y="1.643" fill="#FFFFFF" width="1.286" height="1.286"/>
</g>
</svg>
