<?xml version="1.0" encoding="UTF-8" standalone="no"?>
<!-- Created with Inkscape (http://www.inkscape.org/) -->

<svg
   xmlns:dc="http://purl.org/dc/elements/1.1/"
   xmlns:cc="http://creativecommons.org/ns#"
   xmlns:rdf="http://www.w3.org/1999/02/22-rdf-syntax-ns#"
   xmlns:svg="http://www.w3.org/2000/svg"
   xmlns="http://www.w3.org/2000/svg"
   xmlns:inkscape="http://www.inkscape.org/namespaces/inkscape"
   version="1.1"
   width="18"
   height="18"
   id="svg4619">
  <defs
     id="defs4621" />
  <metadata
     id="metadata4624">
    <rdf:RDF>
      <cc:Work
         rdf:about="">
        <dc:format>image/svg+xml</dc:format>
        <dc:type
           rdf:resource="http://purl.org/dc/dcmitype/StillImage" />
        <dc:title />
      </cc:Work>
    </rdf:RDF>
  </metadata>
  <g
     transform="translate(0,-1034.3622)"
     id="layer1">
    <g
       transform="translate(48,-64)"
       id="square-stroked-18"
       style="display:inline">
      <g
         id="g21897">
        <path
           d="m -44,1100.3622 c -0.55401,0 -1,0.446 -1,1 l 0,11 c 0,0.554 0.44599,1 1,1 l 11,0 c 0.55401,0 1,-0.446 1,-1 l 0,-11 c 0,-0.554 -0.44599,-1 -1,-1 l -11,0 z m 1.4375,2 8.125,0 c 0.249309,0 0.4375,0.1882 0.4375,0.4375 l 0,8.125 c 0,0.2493 -0.188191,0.4375 -0.4375,0.4375 l -8.125,0 c -0.249309,0 -0.4375,-0.1882 -0.4375,-0.4375 l 0,-8.125 c 0,-0.2493 0.188191,-0.4375 0.4375,-0.4375 z"
           inkscape:connector-curvature="0"
           id="path17391"
           style="opacity:0.3;color:#000000;fill:none;stroke:#ffffff;stroke-width:2;stroke-linecap:butt;stroke-linejoin:miter;stroke-miterlimit:4;stroke-opacity:1;stroke-dasharray:none;stroke-dashoffset:0;marker:none;visibility:visible;display:inline;overflow:visible;enable-background:accumulate" />
        <path
           d="m -44,1100.3622 c -0.55401,0 -1,0.446 -1,1 l 0,11 c 0,0.554 0.44599,1 1,1 l 11,0 c 0.55401,0 1,-0.446 1,-1 l 0,-11 c 0,-0.554 -0.44599,-1 -1,-1 l -11,0 z m 1.4375,2 8.125,0 c 0.249309,0 0.4375,0.1882 0.4375,0.4375 l 0,8.125 c 0,0.2493 -0.188191,0.4375 -0.4375,0.4375 l -8.125,0 c -0.249309,0 -0.4375,-0.1882 -0.4375,-0.4375 l 0,-8.125 c 0,-0.2493 0.188191,-0.4375 0.4375,-0.4375 z"
           inkscape:connector-curvature="0"
           id="rect17345"
           style="color:#000000;fill:#444444;fill-opacity:1;stroke:none;stroke-width:2;marker:none;visibility:visible;display:inline;overflow:visible;enable-background:accumulate" />
      </g>
    </g>
  </g>
  <rect
     width="18"
     height="18"
     x="0"
     y="0"
     id="canvas"
     style="fill:none;stroke:none;visibility:hidden" />
</svg>
