<?xml version="1.0" encoding="UTF-8" standalone="no"?>
<!-- Created with Inkscape (http://www.inkscape.org/) -->

<svg
   xmlns:dc="http://purl.org/dc/elements/1.1/"
   xmlns:cc="http://creativecommons.org/ns#"
   xmlns:rdf="http://www.w3.org/1999/02/22-rdf-syntax-ns#"
   xmlns:svg="http://www.w3.org/2000/svg"
   xmlns="http://www.w3.org/2000/svg"
   xmlns:inkscape="http://www.inkscape.org/namespaces/inkscape"
   version="1.1"
   width="12"
   height="12"
   id="svg4764">
  <defs
     id="defs4766" />
  <metadata
     id="metadata4769">
    <rdf:RDF>
      <cc:Work
         rdf:about="">
        <dc:format>image/svg+xml</dc:format>
        <dc:type
           rdf:resource="http://purl.org/dc/dcmitype/StillImage" />
        <dc:title />
      </cc:Work>
    </rdf:RDF>
  </metadata>
  <g
     transform="translate(0,-1040.3622)"
     id="layer1">
    <g
       transform="translate(30,-82)"
       id="square-12"
       style="display:inline">
      <g
         transform="translate(1,0)"
         id="g21910">
        <path
           d="m -28.4375,1123.3622 7.875,0 c 0.311625,0 0.5625,0.2509 0.5625,0.5625 l 0,7.875 c 0,0.3116 -0.250875,0.5625 -0.5625,0.5625 l -7.875,0 c -0.311625,0 -0.5625,-0.2509 -0.5625,-0.5625 l 0,-7.875 c 0,-0.3116 0.250875,-0.5625 0.5625,-0.5625 z"
           inkscape:connector-curvature="0"
           id="path17399"
           style="opacity:0.3;color:#000000;fill:none;stroke:#ffffff;stroke-width:2;stroke-linecap:butt;stroke-linejoin:miter;stroke-miterlimit:4;stroke-opacity:1;stroke-dasharray:none;stroke-dashoffset:0;marker:none;visibility:visible;display:inline;overflow:visible;enable-background:accumulate" />
        <path
           d="m -28.4375,1123.3622 7.875,0 c 0.311625,0 0.5625,0.2509 0.5625,0.5625 l 0,7.875 c 0,0.3116 -0.250875,0.5625 -0.5625,0.5625 l -7.875,0 c -0.311625,0 -0.5625,-0.2509 -0.5625,-0.5625 l 0,-7.875 c 0,-0.3116 0.250875,-0.5625 0.5625,-0.5625 z"
           inkscape:connector-curvature="0"
           id="rect11290-8"
           style="color:#000000;fill:#444444;fill-opacity:1;stroke:none;stroke-width:2;marker:none;visibility:visible;display:inline;overflow:visible;enable-background:accumulate" />
      </g>
    </g>
  </g>
  <rect
     width="12"
     height="12"
     x="0"
     y="0"
     id="canvas"
     style="fill:none;stroke:none;visibility:hidden" />
</svg>
