<?xml version="1.0" encoding="utf-8"?>
<!-- Generator: Adobe Illustrator 18.0.0, SVG Export Plug-In . SVG Version: 6.00 Build 0)  -->
<!DOCTYPE svg PUBLIC "-//W3C//DTD SVG 1.1//EN" "http://www.w3.org/Graphics/SVG/1.1/DTD/svg11.dtd" [
	<!ENTITY ns_flows "http://ns.adobe.com/Flows/1.0/">
	<!ENTITY ns_extend "http://ns.adobe.com/Extensibility/1.0/">
	<!ENTITY ns_ai "http://ns.adobe.com/AdobeIllustrator/10.0/">
	<!ENTITY ns_graphs "http://ns.adobe.com/Graphs/1.0/">
	<!ENTITY st0 "opacity:0.1;">
	<!ENTITY st1 "fill:#010101;">
	<!ENTITY st2 "opacity:0.2;">
]>
<svg version="1.1" id="Layer_1" xmlns:x="&ns_extend;" xmlns:i="&ns_ai;" xmlns:graph="&ns_graphs;"
	 xmlns="http://www.w3.org/2000/svg" xmlns:xlink="http://www.w3.org/1999/xlink" xmlns:a="http://ns.adobe.com/AdobeSVGViewerExtensions/3.0/"
	 x="0px" y="0px" width="23px" height="24px" viewBox="0 0 23 24" style="enable-background:new 0 0 23 24;" xml:space="preserve">
<g style="&st0;">
	<polygon style="&st1;" points="4,11 4,24 23,24 23,22 6,22 6,10 	"/>
	<polygon style="&st1;" points="2,10 2,11.5 23,3.5 23,2 	"/>
	<polygon style="&st1;" points="9,12 9,13 8,13 8,16 9,16 9,14 10,14 10,15 9,17 9,21 10,21 10,17 11,17 12,21 13,21 12,16 16,16 
		16,21 17,21 17,15 20,11 22,12 22,11 20,9 20,8 16,12 	"/>
</g>
<g style="&st2;">
	<polygon style="&st1;" points="3,10 3,23 22,23 22,21 5,21 5,9 	"/>
	<polygon style="&st1;" points="1,9 1,10.5 22,2.5 22,1 	"/>
	<polygon style="&st1;" points="8,11 8,12 7,12 7,15 8,15 8,13 9,13 9,14 8,16 8,20 9,20 9,16 10,16 11,20 12,20 11,15 15,15 15,20 
		16,20 16,14 19,10 21,11 21,10 19,8 19,7 15,11 	"/>
</g>
<g>
	<polygon style="&st1;" points="2,9 2,22 21,22 21,20 4,20 4,8 	"/>
	<polygon style="&st1;" points="0,8 0,9.5 21,1.5 21,0 	"/>
	<polygon style="&st1;" points="7,10 7,11 6,11 6,14 7,14 7,12 8,12 8,13 7,15 7,19 8,19 8,15 9,15 10,19 11,19 10,14 14,14 14,19 
		15,19 15,13 18,9 20,10 20,9 18,7 18,6 14,10 	"/>
</g>
</svg>
