<?xml version="1.0" encoding="UTF-8" standalone="no"?>
<!-- Created with Inkscape (http://www.inkscape.org/) -->

<svg
   xmlns:dc="http://purl.org/dc/elements/1.1/"
   xmlns:cc="http://creativecommons.org/ns#"
   xmlns:rdf="http://www.w3.org/1999/02/22-rdf-syntax-ns#"
   xmlns:svg="http://www.w3.org/2000/svg"
   xmlns="http://www.w3.org/2000/svg"
   xmlns:sodipodi="http://sodipodi.sourceforge.net/DTD/sodipodi-0.dtd"
   xmlns:inkscape="http://www.inkscape.org/namespaces/inkscape"
   width="24"
   height="24"
   id="svg27349"
   version="1.1"
   inkscape:version="0.48.2 r9819"
   sodipodi:docname="telephone-white-24.svg">
  <defs
     id="defs27351" />
  <sodipodi:namedview
     id="base"
     pagecolor="#ffffff"
     bordercolor="#666666"
     borderopacity="1.0"
     inkscape:pageopacity="0.0"
     inkscape:pageshadow="2"
     inkscape:zoom="8.6123905"
     inkscape:cx="11.808263"
     inkscape:cy="10.533919"
     inkscape:document-units="px"
     inkscape:current-layer="layer1"
     showgrid="false"
     inkscape:window-width="483"
     inkscape:window-height="454"
     inkscape:window-x="3648"
     inkscape:window-y="148"
     inkscape:window-maximized="0"
     gridtolerance="10">
    <inkscape:grid
       type="xygrid"
       id="grid3004"
       empspacing="5"
       visible="true"
       enabled="true"
       snapvisiblegridlinesonly="true" />
  </sodipodi:namedview>
  <metadata
     id="metadata27354">
    <rdf:RDF>
      <cc:Work
         rdf:about="">
        <dc:format>image/svg+xml</dc:format>
        <dc:type
           rdf:resource="http://purl.org/dc/dcmitype/StillImage" />
        <dc:title></dc:title>
      </cc:Work>
    </rdf:RDF>
  </metadata>
  <g
     inkscape:label="Layer 1"
     inkscape:groupmode="layer"
     id="layer1"
     transform="translate(0,-1028.3622)">
    <g
       id="g20388"
       transform="matrix(2.4279211,0,0,2.4279211,-18.682065,-479.74906)">
      <path
         style="opacity:0;fill:#272525"
         inkscape:connector-curvature="0"
         id="path20390"
         d="m 16.381,631.054 c 0.652,0 1.182,-0.527 1.182,-1.18 v -7.521 c 0,-0.652 -0.529,-1.182 -1.182,-1.182 H 8.86 c -0.652,0 -1.182,0.529 -1.182,1.182 v 7.521 c 0,0.652 0.529,1.18 1.182,1.18 h 7.521 z" />
      <g
         transform="translate(-14.034,-0.479)"
         id="g20392"
         style="opacity:0.6;fill:none;stroke:#1b1b1c;stroke-width:0.5;stroke-miterlimit:4;stroke-opacity:1;stroke-dasharray:none">
        <path
           style="fill:none;stroke:#1b1b1c;stroke-width:0.5;stroke-miterlimit:4;stroke-opacity:1;stroke-dasharray:none"
           inkscape:connector-curvature="0"
           id="path20394"
           d="m 29.738,625.971 -0.387,-0.072 -0.225,0.445 c 0.037,0.008 0.074,0.012 0.113,0.012 0.241,-10e-4 0.442,-0.163 0.499,-0.385 z m -1.804,0.217 1.479,-1.531 -0.044,0.398 0.728,0.486 c 0.122,0.066 0.165,0.223 0.096,0.344 -0.053,0.096 -0.161,0.143 -0.263,0.123 l -0.059,-0.012 c -0.07,0.283 -0.326,0.492 -0.631,0.492 -0.061,0 -0.117,-0.008 -0.172,-0.023 l -0.553,1.129 -0.002,1.545 c 0,0.135 -0.107,0.242 -0.24,0.242 -0.133,0 -0.24,-0.107 -0.24,-0.242 v -1.582 h -1.218 l -0.217,0.373 0.454,1.088 c 0.065,0.115 0.026,0.262 -0.09,0.328 -0.115,0.064 -0.262,0.025 -0.327,-0.09 L 26.103,628 v -0.396 l -0.238,0.373 v 1.162 c 0,0.135 -0.107,0.242 -0.242,0.242 -0.133,0 -0.24,-0.107 -0.24,-0.242 v -1.342 l 0.199,-0.311 v -1.057 l -0.199,0.303 v 0.879 h -0.379 v -0.889 c 0,-0.295 0.238,-0.535 0.534,-0.535 h 2.396 z" />
        <polygon
           style="fill:none;stroke:#1b1b1c;stroke-width:0.5;stroke-miterlimit:4;stroke-opacity:1;stroke-dasharray:none"
           id="polygon20396"
           points="30.327,623.08 24.034,625.479 24.036,629.898 30.327,629.898 30.327,630.627 23.307,630.627 23.307,625.756 22.524,626.055 22.524,625.295 30.327,622.322 " />
      </g>
      <g
         style="fill:#ffffff;fill-opacity:1"
         transform="translate(-14.034,-0.479)"
         id="g20398">
        <path
           d="m 29.738,625.971 -0.387,-0.072 -0.225,0.445 c 0.037,0.008 0.074,0.012 0.113,0.012 0.241,-10e-4 0.442,-0.163 0.499,-0.385 z m -1.804,0.217 1.479,-1.531 -0.044,0.398 0.728,0.486 c 0.122,0.066 0.165,0.223 0.096,0.344 -0.053,0.096 -0.161,0.143 -0.263,0.123 l -0.059,-0.012 c -0.07,0.283 -0.326,0.492 -0.631,0.492 -0.061,0 -0.117,-0.008 -0.172,-0.023 l -0.553,1.129 -0.002,1.545 c 0,0.135 -0.107,0.242 -0.24,0.242 -0.133,0 -0.24,-0.107 -0.24,-0.242 v -1.582 h -1.218 l -0.217,0.373 0.454,1.088 c 0.065,0.115 0.026,0.262 -0.09,0.328 -0.115,0.064 -0.262,0.025 -0.327,-0.09 L 26.103,628 v -0.396 l -0.238,0.373 v 1.162 c 0,0.135 -0.107,0.242 -0.242,0.242 -0.133,0 -0.24,-0.107 -0.24,-0.242 v -1.342 l 0.199,-0.311 v -1.057 l -0.199,0.303 v 0.879 h -0.379 v -0.889 c 0,-0.295 0.238,-0.535 0.534,-0.535 h 2.396 z"
           id="path20400"
           inkscape:connector-curvature="0"
           style="fill:#ffffff;fill-opacity:1" />
        <polygon
           points="30.327,623.08 24.034,625.479 24.036,629.898 30.327,629.898 30.327,630.627 23.307,630.627 23.307,625.756 22.524,626.055 22.524,625.295 30.327,622.322 "
           id="polygon20402"
           style="fill:#ffffff;fill-opacity:1" />
      </g>
    </g>
  </g>
</svg>
