<?xml version="1.0" encoding="utf-8"?>
<!-- Generator: Adobe Illustrator 18.1.1, SVG Export Plug-In . SVG Version: 6.00 Build 0)  -->
<svg version="1.1" xmlns="http://www.w3.org/2000/svg" xmlns:xlink="http://www.w3.org/1999/xlink" x="0px" y="0px"
	 viewBox="0 0 12 12" enable-background="new 0 0 12 12" xml:space="preserve">
<g id="shadows">
	<g opacity="0.2">
		<polygon points="1.821,4.714 1.821,5.357 10.179,2.143 10.179,1.5 		"/>
		<polygon points="3.107,9.856 3.107,4.714 2.464,4.714 2.464,10.5 10.179,10.5 10.179,9.856 		"/>
		<polygon points="4.393,9.214 5.036,9.214 5.036,8.571 5.036,7.285 5.679,7.928 5.679,8.571 5.679,9.214 6.321,9.214 6.321,7.928 
			5.679,7.285 7.607,7.285 7.607,9.214 8.25,9.214 8.25,6.643 8.893,5.357 10.179,5.357 8.893,4.072 6.964,6 4.393,6 		"/>
		<rect x="1.821" y="1.5" fill="none" width="8.357" height="9"/>
	</g>
</g>
<g id="icons">
	<polygon points="1.321,4.214 1.321,4.857 9.679,1.643 9.679,1 	"/>
	<polygon points="2.607,9.356 2.607,4.214 1.964,4.214 1.964,10 9.679,10 9.679,9.356 	"/>
	<polygon points="3.893,8.714 4.536,8.714 4.536,8.071 4.536,6.785 5.179,7.428 5.179,8.071 5.179,8.714 5.821,8.714 5.821,7.428 
		5.179,6.785 7.107,6.785 7.107,8.714 7.75,8.714 7.75,6.143 8.393,4.857 9.679,4.857 8.393,3.572 6.464,5.5 3.893,5.5 	"/>
</g>
</svg>
