<?xml version="1.0" encoding="UTF-8" standalone="no"?>
<svg width="18px" height="18px" viewBox="0 0 18 18" version="1.1" xmlns="http://www.w3.org/2000/svg" xmlns:xlink="http://www.w3.org/1999/xlink" xmlns:sketch="http://www.bohemiancoding.com/sketch/ns">
    <!-- Generator: Sketch 3.2.2 (9983) - http://www.bohemiancoding.com/sketch -->
    <title>stable-white-18</title>
    <desc>Created with Sketch.</desc>
    <defs></defs>
    <g id="Page-1" stroke="none" stroke-width="1" fill="none" fill-rule="evenodd" sketch:type="MSPage">
        <path d="M3.48148148,8.56968215 L3.48148148,18.059223 L17.5555556,18.059223 L17.5555556,16.5992937 L4.96296296,16.5992937 L4.96296296,7.83971747 L3.48148148,8.56968215" id="Fill-457" opacity="0.5" fill="#0A0B09" sketch:type="MSShapeGroup"></path>
        <path d="M2,7.83971747 L2,8.93466449 L17.5555556,3.09494703 L17.5555556,2 L2,7.83971747" id="Fill-458" opacity="0.5" fill="#0A0B09" sketch:type="MSShapeGroup"></path>
        <path d="M7.18518519,9.29964684 L7.18518519,10.0296115 L6.44444444,10.0296115 L6.44444444,12.2195056 L7.18518519,12.2195056 L7.18518519,10.7595762 L7.92592593,10.7595762 L7.92592593,11.4895409 L7.18518519,12.9494703 L7.18518519,15.869329 L7.92592593,15.869329 L7.92592593,12.9494703 L8.66666667,12.9494703 L9.40740741,15.869329 L10.1481481,15.869329 L9.40740741,12.2195056 L12.3703704,12.2195056 L12.3703704,15.869329 L13.1111111,15.869329 L13.1111111,11.4895409 L15.3333333,8.56968215 L16.8148148,9.29964684 L16.8148148,8.56968215 L15.3333333,7.10975278 L15.3333333,6.3797881 L12.3703704,9.29964684 L7.18518519,9.29964684" id="Fill-459" opacity="0.5" fill="#0A0B09" sketch:type="MSShapeGroup"></path>
        <path d="M2.48148148,7.56968215 L2.48148148,17.059223 L16.5555556,17.059223 L16.5555556,15.5992937 L3.96296296,15.5992937 L3.96296296,6.83971747 L2.48148148,7.56968215" id="Fill-457" opacity="0.75" fill="#0A0B09" sketch:type="MSShapeGroup"></path>
        <path d="M1,6.83971747 L1,7.93466449 L16.5555556,2.09494703 L16.5555556,1 L1,6.83971747" id="Fill-458" opacity="0.75" fill="#0A0B09" sketch:type="MSShapeGroup"></path>
        <path d="M6.18518519,8.29964684 L6.18518519,9.02961152 L5.44444444,9.02961152 L5.44444444,11.2195056 L6.18518519,11.2195056 L6.18518519,9.7595762 L6.92592593,9.7595762 L6.92592593,10.4895409 L6.18518519,11.9494703 L6.18518519,14.869329 L6.92592593,14.869329 L6.92592593,11.9494703 L7.66666667,11.9494703 L8.40740741,14.869329 L9.14814815,14.869329 L8.40740741,11.2195056 L11.3703704,11.2195056 L11.3703704,14.869329 L12.1111111,14.869329 L12.1111111,10.4895409 L14.3333333,7.56968215 L15.8148148,8.29964684 L15.8148148,7.56968215 L14.3333333,6.10975278 L14.3333333,5.3797881 L11.3703704,8.29964684 L6.18518519,8.29964684" id="Fill-459" opacity="0.75" fill="#0A0B09" sketch:type="MSShapeGroup"></path>
        <path d="M1.48148148,6.56968215 L1.48148148,16.059223 L15.5555556,16.059223 L15.5555556,14.5992937 L2.96296296,14.5992937 L2.96296296,5.83971747 L1.48148148,6.56968215" id="Fill-457" fill="#FFFFFF" sketch:type="MSShapeGroup"></path>
        <path d="M0,5.83971747 L0,6.93466449 L15.5555556,1.09494703 L15.5555556,0 L0,5.83971747" id="Fill-458" fill="#FFFFFF" sketch:type="MSShapeGroup"></path>
        <path d="M5.18518519,7.29964684 L5.18518519,8.02961152 L4.44444444,8.02961152 L4.44444444,10.2195056 L5.18518519,10.2195056 L5.18518519,8.7595762 L5.92592593,8.7595762 L5.92592593,9.48954089 L5.18518519,10.9494703 L5.18518519,13.869329 L5.92592593,13.869329 L5.92592593,10.9494703 L6.66666667,10.9494703 L7.40740741,13.869329 L8.14814815,13.869329 L7.40740741,10.2195056 L10.3703704,10.2195056 L10.3703704,13.869329 L11.1111111,13.869329 L11.1111111,9.48954089 L13.3333333,6.56968215 L14.8148148,7.29964684 L14.8148148,6.56968215 L13.3333333,5.10975278 L13.3333333,4.3797881 L10.3703704,7.29964684 L5.18518519,7.29964684" id="Fill-459" fill="#FFFFFF" sketch:type="MSShapeGroup"></path>
    </g>
</svg>