<?xml version="1.0" encoding="utf-8"?>
<!-- Generator: Adobe Illustrator 18.1.1, SVG Export Plug-In . SVG Version: 6.00 Build 0)  -->
<svg version="1.1" xmlns="http://www.w3.org/2000/svg" xmlns:xlink="http://www.w3.org/1999/xlink" x="0px" y="0px"
	 viewBox="0 0 24 24" enable-background="new 0 0 24 24" xml:space="preserve">
<g id="shadows">
	<g opacity="0.2">
		<polygon points="6.932,10.955 6.932,21 21.614,21 21.614,19.455 8.477,19.455 8.477,10.182 		"/>
		<polygon points="5.386,10.182 5.386,11.339 21.614,5.157 21.614,4 		"/>
		<polygon points="10.796,11.727 10.796,12.5 10.023,12.5 10.023,14.818 10.796,14.818 10.796,13.273 11.568,13.273 11.568,14.045 
			10.796,15.591 10.796,18.682 11.568,18.682 11.568,15.591 12.341,15.591 13.114,18.682 13.886,18.682 13.114,14.818 
			16.205,14.818 16.205,18.682 16.977,18.682 16.977,14.045 19.296,10.955 20.841,11.727 20.841,10.955 19.296,9.409 19.296,8.636 
			16.205,11.727 		"/>
		<rect x="5.386" y="4" fill="none" width="16.227" height="17"/>
	</g>
</g>
<g id="icons">
	<polygon fill="#FFFFFF" points="5.932,9.955 5.932,20 20.614,20 20.614,18.455 7.477,18.455 7.477,9.182 	"/>
	<polygon fill="#FFFFFF" points="4.386,9.182 4.386,10.339 20.614,4.157 20.614,3 	"/>
	<polygon fill="#FFFFFF" points="9.796,10.727 9.796,11.5 9.023,11.5 9.023,13.818 9.796,13.818 9.796,12.273 10.568,12.273 
		10.568,13.045 9.796,14.591 9.796,17.682 10.568,17.682 10.568,14.591 11.341,14.591 12.114,17.682 12.886,17.682 12.114,13.818 
		15.205,13.818 15.205,17.682 15.977,17.682 15.977,13.045 18.296,9.955 19.841,10.727 19.841,9.955 18.296,8.409 18.296,7.636 
		15.205,10.727 	"/>
</g>
</svg>
