<?xml version="1.0" encoding="UTF-8" standalone="no"?>
<svg width="12px" height="12px" viewBox="0 0 12 12" version="1.1" xmlns="http://www.w3.org/2000/svg" xmlns:xlink="http://www.w3.org/1999/xlink" xmlns:sketch="http://www.bohemiancoding.com/sketch/ns">
    <!-- Generator: Sketch 3.2.2 (9983) - http://www.bohemiancoding.com/sketch -->
    <title>stable-black-12</title>
    <desc>Created with Sketch.</desc>
    <defs></defs>
    <g id="Page-1" stroke="none" stroke-width="1" fill="none" fill-rule="evenodd" sketch:type="MSPage">
        <path d="M2,5.55096419 L2,6.26115702 L11.1764706,2.71019284 L11.1764706,2 L2,5.55096419" id="Fill-460" fill-opacity="0.1" fill="#0A0B09" sketch:type="MSShapeGroup"></path>
        <path d="M3.41176471,11.2325069 L3.41176471,5.55096419 L2.70588235,5.55096419 L2.70588235,11.9426997 L11.1764706,11.9426997 L11.1764706,11.2325069 L3.41176471,11.2325069" id="Fill-461" fill-opacity="0.1" fill="#0A0B09" sketch:type="MSShapeGroup"></path>
        <path d="M4.82352941,10.522314 L5.52941176,10.522314 L5.52941176,8.39173554 L6.23529412,9.10192837 L6.23529412,10.522314 L6.94117647,10.522314 L6.94117647,9.10192837 L6.23529412,8.39173554 L8.35294118,8.39173554 L8.35294118,10.522314 L9.05882353,10.522314 L9.05882353,7.6815427 L9.76470588,6.26115702 L11.1764706,6.26115702 L9.76470588,4.84077135 L7.64705882,6.97134986 L4.82352941,6.97134986 L4.82352941,10.522314" id="Fill-462" fill-opacity="0.1" fill="#0A0B09" sketch:type="MSShapeGroup"></path>
        <path d="M1,4.55096419 L1,5.26115702 L10.1764706,1.71019284 L10.1764706,1 L1,4.55096419" id="Fill-460" opacity="0.2" fill="#0A0B09" sketch:type="MSShapeGroup"></path>
        <path d="M2.41176471,10.2325069 L2.41176471,4.55096419 L1.70588235,4.55096419 L1.70588235,10.9426997 L10.1764706,10.9426997 L10.1764706,10.2325069 L2.41176471,10.2325069" id="Fill-461" opacity="0.2" fill="#0A0B09" sketch:type="MSShapeGroup"></path>
        <path d="M3.82352941,9.52231405 L4.52941176,9.52231405 L4.52941176,7.39173554 L5.23529412,8.10192837 L5.23529412,9.52231405 L5.94117647,9.52231405 L5.94117647,8.10192837 L5.23529412,7.39173554 L7.35294118,7.39173554 L7.35294118,9.52231405 L8.05882353,9.52231405 L8.05882353,6.6815427 L8.76470588,5.26115702 L10.1764706,5.26115702 L8.76470588,3.84077135 L6.64705882,5.97134986 L3.82352941,5.97134986 L3.82352941,9.52231405" id="Fill-462" opacity="0.2" fill="#0A0B09" sketch:type="MSShapeGroup"></path>
        <path d="M0,3.55096419 L0,4.26115702 L9.17647059,0.710192837 L9.17647059,0 L0,3.55096419" id="Fill-460" fill="#0A0B09" sketch:type="MSShapeGroup"></path>
        <path d="M1.41176471,9.23250689 L1.41176471,3.55096419 L0.705882353,3.55096419 L0.705882353,9.94269972 L9.17647059,9.94269972 L9.17647059,9.23250689 L1.41176471,9.23250689" id="Fill-461" fill="#0A0B09" sketch:type="MSShapeGroup"></path>
        <path d="M2.82352941,8.52231405 L3.52941176,8.52231405 L3.52941176,6.39173554 L4.23529412,7.10192837 L4.23529412,8.52231405 L4.94117647,8.52231405 L4.94117647,7.10192837 L4.23529412,6.39173554 L6.35294118,6.39173554 L6.35294118,8.52231405 L7.05882353,8.52231405 L7.05882353,5.6815427 L7.76470588,4.26115702 L9.17647059,4.26115702 L7.76470588,2.84077135 L5.64705882,4.97134986 L2.82352941,4.97134986 L2.82352941,8.52231405" id="Fill-462" fill="#0A0B09" sketch:type="MSShapeGroup"></path>
    </g>
</svg>