<?xml version="1.0" encoding="UTF-8" standalone="no"?>
<svg width="18px" height="18px" viewBox="0 0 18 18" version="1.1" xmlns="http://www.w3.org/2000/svg" xmlns:xlink="http://www.w3.org/1999/xlink" xmlns:sketch="http://www.bohemiancoding.com/sketch/ns">
    <!-- Generator: Sketch 3.2.2 (9983) - http://www.bohemiancoding.com/sketch -->
    <title>store-white-18</title>
    <desc>Created with Sketch.</desc>
    <defs></defs>
    <g id="Page-1" stroke="none" stroke-width="1" fill="none" fill-rule="evenodd" sketch:type="MSPage">
        <path d="M16.8148148,8.56968215 C16.8148148,8.56968215 16.2296296,10.7376773 13.8592593,10.7449769 C13.8592593,10.7449769 13.6666667,9.19745178 16.8148148,8.56968215" id="Fill-42" opacity="0.5" fill="#0A0B09" sketch:type="MSShapeGroup"></path>
        <path d="M14.5925926,12.4457946 C14.9851852,12.0589133 15.5259259,11.818025 16.1185185,11.818025 C17.3185185,11.818025 18.2962963,12.7961777 18.2962963,14.007919 L18.2962963,14.132013 L18.2888889,14.132013 C18.2518519,14.6064901 18.1037037,15.1904618 17.7481481,15.9204265 C17.7481481,15.9204265 17.1407407,17.08837 16.6444444,17.6285439 L16.6074074,17.6723418 C16.3703704,17.9132301 16.037037,18.059223 15.6740741,18.059223 C15.2296296,18.059223 14.8296296,17.6650421 14.5925926,17.3292584 C14.3555556,17.6650421 13.962963,18.059223 13.5185185,18.059223 C13.1555556,18.059223 12.8222222,17.9132301 12.5851852,17.6723418 L12.5407407,17.6285439 C12.0592593,17.08837 11.4444444,15.9204265 11.4444444,15.9204265 C11.0888889,15.1904618 10.9407407,14.5991904 10.9037037,14.132013 L10.8962963,14.132013 L10.8888889,14.007919 C10.8888889,12.7961777 11.8666667,11.818025 13.0740741,11.818025 C13.6592593,11.818025 14.2,12.0589133 14.5925926,12.4457946" id="Fill-43" opacity="0.5" fill="#0A0B09" sketch:type="MSShapeGroup"></path>
        <path d="M4.98518519,2 L7.92592593,2 L7.92592593,3.45992937 L4.96296296,3.45992937 L4.98518519,2" id="Fill-44" opacity="0.5" fill="#0A0B09" sketch:type="MSShapeGroup"></path>
        <path d="M4.96296296,4.91985873 L4.96296296,8.56968215 L4.22222222,8.56968215 L4.22222222,9.29964684 L3.48148148,9.29964684 L2.74074074,10.0296115 L2.74074074,6.3797881 L3.48148148,6.3797881 L3.48148148,5.64982342 L4.22222222,5.64982342 L4.96296296,4.91985873 L4.96296296,4.91985873 Z M7.18518519,4.18989405 L4.22222222,4.18989405 C4.22222222,4.18989405 3.71111111,4.3066884 3.36296296,4.73006792 L2.15555556,6.22649552 C2.05925926,6.37248845 2,6.29219234 2,6.48198316 L2,17.3292584 C2,17.6431432 2.42222222,18.059223 2.74074074,18.059223 L8.66666667,18.059223 C8.98518519,18.059223 9.40740741,17.6431432 9.40740741,17.3292584 L9.40740741,6.3797881 C9.40740741,6.3797881 9.11851852,4.37968487 7.18518519,4.18989405 L7.18518519,4.18989405 Z" id="Fill-45" opacity="0.5" fill="#0A0B09" sketch:type="MSShapeGroup"></path>
        <path d="M15.8148148,7.56968215 C15.8148148,7.56968215 15.2296296,9.73767726 12.8592593,9.74497691 C12.8592593,9.74497691 12.6666667,8.19745178 15.8148148,7.56968215" id="Fill-42" opacity="0.75" fill="#0A0B09" sketch:type="MSShapeGroup"></path>
        <path d="M13.5925926,11.4457946 C13.9851852,11.0589133 14.5259259,10.818025 15.1185185,10.818025 C16.3185185,10.818025 17.2962963,11.7961777 17.2962963,13.007919 L17.2962963,13.132013 L17.2888889,13.132013 C17.2518519,13.6064901 17.1037037,14.1904618 16.7481481,14.9204265 C16.7481481,14.9204265 16.1407407,16.08837 15.6444444,16.6285439 L15.6074074,16.6723418 C15.3703704,16.9132301 15.037037,17.059223 14.6740741,17.059223 C14.2296296,17.059223 13.8296296,16.6650421 13.5925926,16.3292584 C13.3555556,16.6650421 12.962963,17.059223 12.5185185,17.059223 C12.1555556,17.059223 11.8222222,16.9132301 11.5851852,16.6723418 L11.5407407,16.6285439 C11.0592593,16.08837 10.4444444,14.9204265 10.4444444,14.9204265 C10.0888889,14.1904618 9.94074074,13.5991904 9.9037037,13.132013 L9.8962963,13.132013 L9.88888889,13.007919 C9.88888889,11.7961777 10.8666667,10.818025 12.0740741,10.818025 C12.6592593,10.818025 13.2,11.0589133 13.5925926,11.4457946" id="Fill-43" opacity="0.75" fill="#0A0B09" sketch:type="MSShapeGroup"></path>
        <path d="M3.98518519,1 L6.92592593,1 L6.92592593,2.45992937 L3.96296296,2.45992937 L3.98518519,1" id="Fill-44" opacity="0.75" fill="#0A0B09" sketch:type="MSShapeGroup"></path>
        <path d="M3.96296296,3.91985873 L3.96296296,7.56968215 L3.22222222,7.56968215 L3.22222222,8.29964684 L2.48148148,8.29964684 L1.74074074,9.02961152 L1.74074074,5.3797881 L2.48148148,5.3797881 L2.48148148,4.64982342 L3.22222222,4.64982342 L3.96296296,3.91985873 L3.96296296,3.91985873 Z M6.18518519,3.18989405 L3.22222222,3.18989405 C3.22222222,3.18989405 2.71111111,3.3066884 2.36296296,3.73006792 L1.15555556,5.22649552 C1.05925926,5.37248845 1,5.29219234 1,5.48198316 L1,16.3292584 C1,16.6431432 1.42222222,17.059223 1.74074074,17.059223 L7.66666667,17.059223 C7.98518519,17.059223 8.40740741,16.6431432 8.40740741,16.3292584 L8.40740741,5.3797881 C8.40740741,5.3797881 8.11851852,3.37968487 6.18518519,3.18989405 L6.18518519,3.18989405 Z" id="Fill-45" opacity="0.75" fill="#0A0B09" sketch:type="MSShapeGroup"></path>
        <path d="M14.8148148,6.56968215 C14.8148148,6.56968215 14.2296296,8.73767726 11.8592593,8.74497691 C11.8592593,8.74497691 11.6666667,7.19745178 14.8148148,6.56968215" id="Fill-42" fill="#FFFFFF" sketch:type="MSShapeGroup"></path>
        <path d="M12.5925926,10.4457946 C12.9851852,10.0589133 13.5259259,9.81802499 14.1185185,9.81802499 C15.3185185,9.81802499 16.2962963,10.7961777 16.2962963,12.007919 L16.2962963,12.132013 L16.2888889,12.132013 C16.2518519,12.6064901 16.1037037,13.1904618 15.7481481,13.9204265 C15.7481481,13.9204265 15.1407407,15.08837 14.6444444,15.6285439 L14.6074074,15.6723418 C14.3703704,15.9132301 14.037037,16.059223 13.6740741,16.059223 C13.2296296,16.059223 12.8296296,15.6650421 12.5925926,15.3292584 C12.3555556,15.6650421 11.962963,16.059223 11.5185185,16.059223 C11.1555556,16.059223 10.8222222,15.9132301 10.5851852,15.6723418 L10.5407407,15.6285439 C10.0592593,15.08837 9.44444444,13.9204265 9.44444444,13.9204265 C9.08888889,13.1904618 8.94074074,12.5991904 8.9037037,12.132013 L8.8962963,12.132013 L8.88888889,12.007919 C8.88888889,10.7961777 9.86666667,9.81802499 11.0740741,9.81802499 C11.6592593,9.81802499 12.2,10.0589133 12.5925926,10.4457946" id="Fill-43" fill="#FFFFFF" sketch:type="MSShapeGroup"></path>
        <path d="M2.98518519,0 L5.92592593,0 L5.92592593,1.45992937 L2.96296296,1.45992937 L2.98518519,0" id="Fill-44" fill="#FFFFFF" sketch:type="MSShapeGroup"></path>
        <path d="M2.96296296,2.91985873 L2.96296296,6.56968215 L2.22222222,6.56968215 L2.22222222,7.29964684 L1.48148148,7.29964684 L0.740740741,8.02961152 L0.740740741,4.3797881 L1.48148148,4.3797881 L1.48148148,3.64982342 L2.22222222,3.64982342 L2.96296296,2.91985873 L2.96296296,2.91985873 Z M5.18518519,2.18989405 L2.22222222,2.18989405 C2.22222222,2.18989405 1.71111111,2.3066884 1.36296296,2.73006792 L0.155555556,4.22649552 C0.0592592593,4.37248845 0,4.29219234 0,4.48198316 L0,15.3292584 C0,15.6431432 0.422222222,16.059223 0.740740741,16.059223 L6.66666667,16.059223 C6.98518519,16.059223 7.40740741,15.6431432 7.40740741,15.3292584 L7.40740741,4.3797881 C7.40740741,4.3797881 7.11851852,2.37968487 5.18518519,2.18989405 L5.18518519,2.18989405 Z" id="Fill-45" fill="#FFFFFF" sketch:type="MSShapeGroup"></path>
    </g>
</svg>