<?xml version="1.0" encoding="utf-8"?>
<!-- Generator: Adobe Illustrator 18.1.1, SVG Export Plug-In . SVG Version: 6.00 Build 0)  -->
<svg version="1.1" xmlns="http://www.w3.org/2000/svg" xmlns:xlink="http://www.w3.org/1999/xlink" x="0px" y="0px"
	 viewBox="0 0 12 12" enable-background="new 0 0 12 12" xml:space="preserve">
<g id="shadows">
	<g opacity="0.2">
		<path d="M8.418,7.354c0.221-0.219,0.522-0.35,0.857-0.35c0.675,0,1.224,0.546,1.224,1.223l-0.001,0.073h-0.002
			c-0.021,0.265-0.106,0.593-0.304,1.002c0,0-0.344,0.657-0.619,0.957l-0.025,0.024C9.415,10.416,9.228,10.5,9.025,10.5
			c-0.249,0-0.47-0.121-0.604-0.309H8.417C8.283,10.379,8.062,10.5,7.813,10.5c-0.206,0-0.391-0.083-0.524-0.218l-0.025-0.024
			C6.991,9.957,6.646,9.3,6.646,9.3C6.446,8.892,6.362,8.562,6.343,8.299H6.338L6.335,8.226c0-0.676,0.548-1.223,1.227-1.223
			C7.894,7.003,8.195,7.134,8.418,7.354"/>
		<path d="M8.418,7.354c0.221-0.219,0.522-0.35,0.857-0.35c0.675,0,1.224,0.546,1.224,1.223l-0.001,0.073h-0.002
			c-0.021,0.265-0.106,0.593-0.304,1.002c0,0-0.344,0.657-0.619,0.957l-0.025,0.024C9.415,10.416,9.228,10.5,9.025,10.5
			c-0.249,0-0.47-0.121-0.604-0.309H8.417C8.283,10.379,8.062,10.5,7.813,10.5c-0.206,0-0.391-0.083-0.524-0.218l-0.025-0.024
			C6.991,9.957,6.646,9.3,6.646,9.3C6.446,8.892,6.362,8.562,6.343,8.299H6.338L6.335,8.226c0-0.676,0.548-1.223,1.227-1.223
			C7.894,7.003,8.195,7.134,8.418,7.354"/>
		<path d="M4.714,2.786H2.786L2.143,3.429H1.5V10.5h3.857V3.429L4.714,2.786z M2.786,6H2.143V4.071h0.642V6z"/>
		<rect x="2.786" y="1.5" width="1.929" height="0.643"/>
		<polygon points="7.929,6.643 7.929,6 8.571,5.357 9.214,4.714 9.857,4.714 9.857,5.357 8.571,6.643 		"/>
		<rect x="1.5" y="1.5" fill="none" width="9" height="9"/>
	</g>
</g>
<g id="icons">
	<path fill="#FFFFFF" d="M7.919,6.854C8.14,6.635,8.441,6.503,8.776,6.503C9.451,6.503,10,7.05,10,7.727l0,0.073H9.997
		C9.976,8.065,9.892,8.393,9.692,8.801c0,0-0.343,0.657-0.619,0.957L9.049,9.782c-0.133,0.134-0.32,0.218-0.523,0.218
		c-0.249,0-0.47-0.121-0.604-0.309H7.918c-0.134,0.188-0.354,0.309-0.603,0.309c-0.206,0-0.391-0.083-0.525-0.218L6.764,9.758
		C6.492,9.458,6.146,8.801,6.146,8.801C5.947,8.393,5.863,8.062,5.844,7.799H5.839L5.835,7.727c0-0.676,0.549-1.223,1.227-1.223
		C7.394,6.503,7.696,6.635,7.919,6.854"/>
	<path fill="#FFFFFF" d="M7.919,6.854C8.14,6.635,8.441,6.503,8.776,6.503C9.451,6.503,10,7.05,10,7.727l0,0.073H9.997
		C9.976,8.065,9.892,8.393,9.692,8.801c0,0-0.343,0.657-0.619,0.957L9.049,9.782c-0.133,0.134-0.32,0.218-0.523,0.218
		c-0.249,0-0.47-0.121-0.604-0.309H7.918c-0.134,0.188-0.354,0.309-0.603,0.309c-0.206,0-0.391-0.083-0.525-0.218L6.764,9.758
		C6.492,9.458,6.146,8.801,6.146,8.801C5.947,8.393,5.863,8.062,5.844,7.799H5.839L5.835,7.727c0-0.676,0.549-1.223,1.227-1.223
		C7.394,6.503,7.696,6.635,7.919,6.854"/>
	<path fill="#FFFFFF" d="M4.214,2.286H2.286L1.643,2.929H1v7.072h3.857V2.929L4.214,2.286z M2.286,5.501H1.643V3.572h0.642V5.501z"
		/>
	<rect x="2.286" y="1" fill="#FFFFFF" width="1.929" height="0.643"/>
	<polygon fill="#FFFFFF" points="7.429,6.143 7.429,5.501 8.072,4.857 8.715,4.214 9.358,4.214 9.358,4.857 8.072,6.143 	"/>
</g>
</svg>
