<?xml version="1.0" encoding="utf-8"?>
<!-- Generator: Adobe Illustrator 18.1.1, SVG Export Plug-In . SVG Version: 6.00 Build 0)  -->
<svg version="1.1" xmlns="http://www.w3.org/2000/svg" xmlns:xlink="http://www.w3.org/1999/xlink" x="0px" y="0px"
	 viewBox="0 0 18 18" enable-background="new 0 0 18 18" xml:space="preserve">
<g id="shadows">
	<path opacity="0.2" d="M13.744,11.205c0.319-0.317,0.754-0.506,1.238-0.506c0.975,0,1.768,0.79,1.768,1.767l-0.001,0.105h-0.003
		c-0.031,0.383-0.152,0.857-0.44,1.447c0,0-0.496,0.949-0.894,1.383l-0.036,0.035c-0.192,0.194-0.463,0.315-0.756,0.315
		c-0.36,0-0.678-0.174-0.872-0.446h-0.006c-0.193,0.272-0.512,0.446-0.872,0.446c-0.297,0-0.565-0.119-0.758-0.315L12.076,15.4
		c-0.394-0.434-0.894-1.383-0.894-1.383c-0.287-0.59-0.408-1.067-0.436-1.447h-0.007l-0.005-0.105c0-0.977,0.793-1.767,1.772-1.767
		C12.986,10.699,13.422,10.889,13.744,11.205"/>
	<path opacity="0.2" d="M8.393,4.607H5.607L4.679,5.536H3.75V15.75h5.572V5.536L8.393,4.607z M5.607,9.25H4.679V6.465h0.928V9.25z"
		/>
	<rect x="5.607" y="2.75" opacity="0.2" width="2.786" height="0.929"/>
	<polygon opacity="0.2" points="13.036,10.179 13.036,9.25 13.965,8.321 14.893,7.393 15.822,7.393 15.822,8.321 13.965,10.179 	"/>
</g>
<g id="icons">
	<path d="M12.994,10.455c0.319-0.317,0.754-0.506,1.238-0.506c0.975,0,1.768,0.79,1.768,1.767l-0.001,0.105h-0.003
		c-0.031,0.383-0.152,0.857-0.44,1.447c0,0-0.496,0.949-0.894,1.383l-0.036,0.035C14.433,14.879,14.163,15,13.87,15
		c-0.36,0-0.678-0.174-0.872-0.446h-0.006C12.798,14.826,12.48,15,12.12,15c-0.297,0-0.565-0.119-0.758-0.315l-0.036-0.035
		c-0.394-0.434-0.894-1.383-0.894-1.383c-0.287-0.59-0.408-1.067-0.436-1.447H9.989l-0.005-0.105c0-0.977,0.793-1.767,1.772-1.767
		C12.236,9.949,12.672,10.139,12.994,10.455"/>
	<path d="M7.643,3.857H4.857L3.929,4.786H3V15h5.572V4.786L7.643,3.857z M4.857,8.5H3.929V5.715h0.928V8.5z"/>
	<rect x="4.857" y="2" width="2.786" height="0.929"/>
	<polygon points="12.286,9.429 12.286,8.5 13.215,7.571 14.143,6.643 15.072,6.643 15.072,7.571 13.215,9.429 	"/>
</g>
</svg>
