<?xml version="1.0" encoding="utf-8"?>
<!-- Generator: Adobe Illustrator 18.1.1, SVG Export Plug-In . SVG Version: 6.00 Build 0)  -->
<svg version="1.1" xmlns="http://www.w3.org/2000/svg" xmlns:xlink="http://www.w3.org/1999/xlink" x="0px" y="0px"
	 viewBox="0 0 12 12" enable-background="new 0 0 12 12" xml:space="preserve">
<g id="shadows">
	<g opacity="0.2">
		<path d="M9.418,7.354c0.221-0.219,0.522-0.35,0.857-0.35c0.675,0,1.224,0.546,1.224,1.223l-0.001,0.073h-0.002
			c-0.021,0.265-0.106,0.593-0.304,1.002c0,0-0.344,0.657-0.619,0.957l-0.025,0.024c-0.133,0.134-0.32,0.218-0.523,0.218
			c-0.249,0-0.47-0.121-0.604-0.309H9.417C9.283,10.379,9.062,10.5,8.814,10.5c-0.206,0-0.391-0.083-0.524-0.218l-0.025-0.024
			C7.991,9.957,7.646,9.3,7.646,9.3C7.446,8.892,7.362,8.562,7.343,8.299H7.338L7.335,8.226c0-0.676,0.548-1.223,1.227-1.223
			C8.894,7.003,9.195,7.134,9.418,7.354"/>
		<path d="M9.418,7.354c0.221-0.219,0.522-0.35,0.857-0.35c0.675,0,1.224,0.546,1.224,1.223l-0.001,0.073h-0.002
			c-0.021,0.265-0.106,0.593-0.304,1.002c0,0-0.344,0.657-0.619,0.957l-0.025,0.024c-0.133,0.134-0.32,0.218-0.523,0.218
			c-0.249,0-0.47-0.121-0.604-0.309H9.417C9.283,10.379,9.062,10.5,8.814,10.5c-0.206,0-0.391-0.083-0.524-0.218l-0.025-0.024
			C7.991,9.957,7.646,9.3,7.646,9.3C7.446,8.892,7.362,8.562,7.343,8.299H7.338L7.335,8.226c0-0.676,0.548-1.223,1.227-1.223
			C8.894,7.003,9.195,7.134,9.418,7.354"/>
		<path d="M5.714,2.786H3.786L3.143,3.429H2.5V10.5h3.857V3.429L5.714,2.786z M3.786,6H3.143V4.071h0.642V6z"/>
		<rect x="3.786" y="1.5" width="1.929" height="0.643"/>
		<polygon points="8.929,6.643 8.929,6 9.571,5.357 10.214,4.714 10.857,4.714 10.857,5.357 9.571,6.643 		"/>
		<rect x="2.5" y="1.5" fill="none" width="9" height="9"/>
	</g>
</g>
<g id="icons">
	<path fill="#FFFFFF" d="M8.919,6.854C9.14,6.635,9.441,6.503,9.776,6.503C10.451,6.503,11,7.05,11,7.727l0,0.073h-0.002
		c-0.021,0.265-0.106,0.593-0.305,1.002c0,0-0.343,0.657-0.619,0.957l-0.025,0.024c-0.133,0.134-0.32,0.218-0.523,0.218
		c-0.249,0-0.47-0.121-0.604-0.309H8.917c-0.134,0.188-0.354,0.309-0.603,0.309c-0.206,0-0.391-0.083-0.525-0.218L7.764,9.758
		C7.492,9.458,7.146,8.801,7.146,8.801C6.947,8.393,6.863,8.062,6.844,7.799H6.839L6.835,7.727c0-0.676,0.549-1.223,1.227-1.223
		C8.394,6.503,8.696,6.635,8.919,6.854"/>
	<path fill="#FFFFFF" d="M8.919,6.854C9.14,6.635,9.441,6.503,9.776,6.503C10.451,6.503,11,7.05,11,7.727l0,0.073h-0.002
		c-0.021,0.265-0.106,0.593-0.305,1.002c0,0-0.343,0.657-0.619,0.957l-0.025,0.024c-0.133,0.134-0.32,0.218-0.523,0.218
		c-0.249,0-0.47-0.121-0.604-0.309H8.917c-0.134,0.188-0.354,0.309-0.603,0.309c-0.206,0-0.391-0.083-0.525-0.218L7.764,9.758
		C7.492,9.458,7.146,8.801,7.146,8.801C6.947,8.393,6.863,8.062,6.844,7.799H6.839L6.835,7.727c0-0.676,0.549-1.223,1.227-1.223
		C8.394,6.503,8.696,6.635,8.919,6.854"/>
	<path fill="#FFFFFF" d="M5.214,2.286H3.286L2.643,2.929H2v7.072h3.857V2.929L5.214,2.286z M3.286,5.501H2.643V3.572h0.642V5.501z"
		/>
	<rect x="3.286" y="1" fill="#FFFFFF" width="1.929" height="0.643"/>
	<polygon fill="#FFFFFF" points="8.429,6.143 8.429,5.501 9.072,4.857 9.715,4.214 10.358,4.214 10.358,4.857 9.072,6.143 	"/>
</g>
</svg>
