<?xml version="1.0" encoding="utf-8"?>
<!-- Generator: Adobe Illustrator 18.0.0, SVG Export Plug-In . SVG Version: 6.00 Build 0)  -->
<!DOCTYPE svg PUBLIC "-//W3C//DTD SVG 1.1//EN" "http://www.w3.org/Graphics/SVG/1.1/DTD/svg11.dtd" [
	<!ENTITY ns_flows "http://ns.adobe.com/Flows/1.0/">
	<!ENTITY ns_extend "http://ns.adobe.com/Extensibility/1.0/">
	<!ENTITY ns_ai "http://ns.adobe.com/AdobeIllustrator/10.0/">
	<!ENTITY ns_graphs "http://ns.adobe.com/Graphs/1.0/">
	<!ENTITY st0 "opacity:0.5;">
	<!ENTITY st1 "fill:#010101;">
	<!ENTITY st2 "opacity:0.75;">
	<!ENTITY st3 "fill:#FFFFFF;">
]>
<svg version="1.1" id="Layer_1" xmlns:x="&ns_extend;" xmlns:i="&ns_ai;" xmlns:graph="&ns_graphs;"
	 xmlns="http://www.w3.org/2000/svg" xmlns:xlink="http://www.w3.org/1999/xlink" xmlns:a="http://ns.adobe.com/AdobeSVGViewerExtensions/3.0/"
	 x="0px" y="0px" width="24px" height="24px" viewBox="0 0 24 24" style="enable-background:new 0 0 24 24;" xml:space="preserve">
<g style="&st0;">
	<path style="&st1;" d="M22,11c0,0-0.8,3-4,3C18,14,17.8,11.9,22,11z"/>
	<path style="&st1;" d="M19,16.3c0.5-0.5,1.3-0.9,2.1-0.9c1.6,0,2.9,1.3,2.9,3l0,0.2h0c-0.1,0.6-0.3,1.5-0.7,2.4
		c0,0-0.8,1.6-1.5,2.3l-0.1,0.1c-0.3,0.3-0.8,0.5-1.3,0.5c-0.6,0-1.1-0.5-1.5-1c-0.3,0.5-0.9,1-1.5,1c-0.5,0-0.9-0.2-1.3-0.5
		l-0.1-0.1c-0.7-0.7-1.5-2.3-1.5-2.3c-0.5-1-0.7-1.8-0.7-2.4h0l0-0.2c0-1.7,1.3-3,2.9-3C17.7,15.5,18.5,15.8,19,16.3"/>
	<polygon style="&st1;" points="6,2 10,2 10,4 6,4 	"/>
	<path style="&st1;" d="M9,5H5c0,0-0.7,0.2-1.2,0.7L2.2,7.8C2.1,8,2,7.9,2,8.1V23c0,0.4,0.6,1,1,1h8c0.4,0,1-0.6,1-1V8
		C12,8,11.6,5.3,9,5z M6,6v5H5v1H4l-1,1v-1V8h1V7h1L6,6z"/>
</g>
<g style="&st2;">
	<path style="&st1;" d="M21,10c0,0-0.8,3-4,3C17,13,16.8,10.9,21,10z"/>
	<path style="&st1;" d="M18,15.3c0.5-0.5,1.3-0.9,2.1-0.9c1.6,0,2.9,1.3,2.9,3l0,0.2h0c-0.1,0.6-0.3,1.5-0.7,2.4
		c0,0-0.8,1.6-1.5,2.3l-0.1,0.1c-0.3,0.3-0.8,0.5-1.3,0.5c-0.6,0-1.1-0.5-1.5-1c-0.3,0.5-0.9,1-1.5,1c-0.5,0-0.9-0.2-1.3-0.5
		l-0.1-0.1c-0.7-0.7-1.5-2.3-1.5-2.3c-0.5-1-0.7-1.8-0.7-2.4h0l0-0.2c0-1.7,1.3-3,2.9-3C16.7,14.5,17.5,14.8,18,15.3"/>
	<polygon style="&st1;" points="5,1 9,1 9,3 5,3 	"/>
	<path style="&st1;" d="M8,4H4c0,0-0.7,0.2-1.2,0.7L1.2,6.8C1.1,7,1,6.9,1,7.1V22c0,0.4,0.6,1,1,1h8c0.4,0,1-0.6,1-1V7
		C11,7,10.6,4.3,8,4z M5,5v5H4v1H3l-1,1v-1V7h1V6h1L5,5z"/>
</g>
<g>
	<path style="&st3;" d="M20,9c0,0-0.8,3-4,3C16,12,15.8,9.9,20,9z"/>
	<path style="&st3;" d="M17,14.3c0.5-0.5,1.3-0.9,2.1-0.9c1.6,0,2.9,1.3,2.9,3l0,0.2h0c-0.1,0.6-0.3,1.5-0.7,2.4
		c0,0-0.8,1.6-1.5,2.3l-0.1,0.1c-0.3,0.3-0.8,0.5-1.3,0.5c-0.6,0-1.1-0.5-1.5-1c-0.3,0.5-0.9,1-1.5,1c-0.5,0-0.9-0.2-1.3-0.5
		l-0.1-0.1c-0.7-0.7-1.5-2.3-1.5-2.3c-0.5-1-0.7-1.8-0.7-2.4h0l0-0.2c0-1.7,1.3-3,2.9-3C15.7,13.5,16.5,13.8,17,14.3"/>
	<polygon style="&st3;" points="4,0 8,0 8,2 4,2 	"/>
	<path style="&st3;" d="M7,3H3c0,0-0.7,0.2-1.2,0.7L0.2,5.8C0.1,6,0,5.9,0,6.1V21c0,0.4,0.6,1,1,1h8c0.4,0,1-0.6,1-1V6
		C10,6,9.6,3.3,7,3z M4,4v5H3v1H2l-1,1v-1V6h1V5h1L4,4z"/>
</g>
</svg>
