<?xml version="1.0" encoding="utf-8"?>
<!-- Generator: Adobe Illustrator 18.1.1, SVG Export Plug-In . SVG Version: 6.00 Build 0)  -->
<svg version="1.1" xmlns="http://www.w3.org/2000/svg" xmlns:xlink="http://www.w3.org/1999/xlink" x="0px" y="0px"
	 viewBox="0 0 24 24" enable-background="new 0 0 24 24" xml:space="preserve">
<g id="shadows">
	<g opacity="0.2">
		<path d="M20.455,10.955c0,0-0.61,2.294-3.082,2.302C17.372,13.258,17.172,11.618,20.455,10.955"/>
		<path d="M18.138,15.056c0.41-0.413,0.97-0.661,1.59-0.661c1.252,0,2.271,1.033,2.271,2.311l-0.002,0.137h-0.004
			c-0.04,0.499-0.196,1.121-0.566,1.892c0,0-0.636,1.239-1.147,1.808l-0.046,0.045C19.987,20.841,19.64,21,19.263,21
			c-0.462,0-0.878-0.419-1.128-0.773C17.887,20.581,17.478,21,17.016,21c-0.381,0-0.724-0.157-0.973-0.413l-0.046-0.045
			c-0.506-0.569-1.147-1.808-1.147-1.808c-0.37-0.771-0.526-1.397-0.562-1.892h-0.008l-0.007-0.137c0-1.278,1.019-2.311,2.277-2.311
			C17.165,14.395,17.724,14.643,18.138,15.056"/>
		<polygon points="8.116,4 11.182,4 11.182,5.545 8.091,5.545 		"/>
		<path d="M10.409,6.318H7.318c0,0-0.535,0.122-0.898,0.568L5.159,8.476C5.057,8.628,5,8.542,5,8.739v11.488
			C5,20.556,5.443,21,5.773,21h6.182c0.329,0,0.773-0.446,0.773-0.773V8.636C12.727,8.636,12.424,6.515,10.409,6.318 M8.091,7.091
			v3.864H7.318v0.773H6.545L5.773,12.5v-0.773V8.636h0.773V7.864h0.773L8.091,7.091z"/>
		<rect x="5" y="4" fill="none" width="17" height="17"/>
	</g>
</g>
<g id="icons">
	<path d="M19.455,9.955c0,0-0.609,2.294-3.082,2.301C16.373,12.258,16.172,10.618,19.455,9.955"/>
	<path d="M17.139,14.056c0.41-0.413,0.97-0.661,1.59-0.661c1.253,0,2.271,1.033,2.271,2.311l-0.002,0.136h-0.003
		c-0.04,0.499-0.196,1.121-0.566,1.892c0,0-0.636,1.239-1.147,1.808l-0.046,0.044c-0.247,0.253-0.595,0.413-0.971,0.413
		c-0.462,0-0.878-0.419-1.128-0.773c-0.249,0.354-0.658,0.773-1.12,0.773c-0.381,0-0.724-0.157-0.973-0.413l-0.046-0.044
		c-0.506-0.569-1.147-1.808-1.147-1.808c-0.37-0.771-0.526-1.397-0.561-1.892H13.28l-0.007-0.136c0-1.279,1.019-2.311,2.277-2.311
		C16.166,13.395,16.725,13.643,17.139,14.056"/>
	<polygon points="7.116,3 10.182,3 10.182,4.545 7.091,4.545 	"/>
	<path d="M9.409,5.318H6.318c0,0-0.534,0.122-0.898,0.568L4.159,7.475C4.057,7.628,4,7.542,4,7.739v11.489
		c0,0.329,0.443,0.773,0.773,0.773h6.182c0.329,0,0.772-0.446,0.772-0.773V7.636C11.727,7.636,11.424,5.515,9.409,5.318 M7.091,6.09
		v3.864H6.318v0.772H5.545L4.773,11.5v-0.773V7.636h0.773V6.863h0.773L7.091,6.09z"/>
</g>
</svg>
