<?xml version="1.0" encoding="UTF-8" standalone="no"?>
<!-- Created with Inkscape (http://www.inkscape.org/) -->

<svg
   xmlns:dc="http://purl.org/dc/elements/1.1/"
   xmlns:cc="http://creativecommons.org/ns#"
   xmlns:rdf="http://www.w3.org/1999/02/22-rdf-syntax-ns#"
   xmlns:svg="http://www.w3.org/2000/svg"
   xmlns="http://www.w3.org/2000/svg"
   xmlns:sodipodi="http://sodipodi.sourceforge.net/DTD/sodipodi-0.dtd"
   xmlns:inkscape="http://www.inkscape.org/namespaces/inkscape"
   width="24"
   height="24"
   id="svg27349"
   version="1.1"
   inkscape:version="0.48.2 r9819"
   sodipodi:docname="restroom-white-24.svg">
  <defs
     id="defs27351" />
  <sodipodi:namedview
     id="base"
     pagecolor="#ffffff"
     bordercolor="#666666"
     borderopacity="1.0"
     inkscape:pageopacity="0.0"
     inkscape:pageshadow="2"
     inkscape:zoom="8.8081266"
     inkscape:cx="11.449912"
     inkscape:cy="8.5492675"
     inkscape:document-units="px"
     inkscape:current-layer="layer1"
     showgrid="false"
     inkscape:window-width="629"
     inkscape:window-height="573"
     inkscape:window-x="2604"
     inkscape:window-y="588"
     inkscape:window-maximized="0" />
  <metadata
     id="metadata27354">
    <rdf:RDF>
      <cc:Work
         rdf:about="">
        <dc:format>image/svg+xml</dc:format>
        <dc:type
           rdf:resource="http://purl.org/dc/dcmitype/StillImage" />
        <dc:title></dc:title>
      </cc:Work>
    </rdf:RDF>
  </metadata>
  <g
     inkscape:label="Layer 1"
     inkscape:groupmode="layer"
     id="layer1"
     transform="translate(0,-1028.3622)">
    <g
       id="g14301"
       transform="matrix(2.4281667,0,0,2.4281667,-496.71272,389.58709)">
      <path
         d="m 213.28,272.986 c 0.651,0 1.181,-0.529 1.181,-1.182 v -7.521 c 0,-0.652 -0.529,-1.182 -1.181,-1.182 h -7.521 c -0.652,0 -1.182,0.529 -1.182,1.182 v 7.521 c 0,0.652 0.529,1.182 1.182,1.182 h 7.521 z"
         id="path14268"
         inkscape:connector-curvature="0"
         style="opacity:0;fill:#272525" />
      <g
         style="opacity:0.6;stroke:#1d1d1c;stroke-width:0.5;stroke-miterlimit:4;stroke-opacity:1;stroke-dasharray:none"
         transform="translate(182.866,-371.25)"
         id="g14270">
        <rect
           x="24.135"
           y="635.51001"
           width="1.2539999"
           height="0.46700001"
           id="rect14272"
           style="opacity:0.6;fill:none;stroke:#1d1d1c;stroke-width:0.5;stroke-miterlimit:4;stroke-opacity:1;stroke-dasharray:none" />
        <path
           d="m 23.241,638.875 c 0,0.152 0.211,0.32 0.381,0.125 l 0.463,-0.604 c 0.021,-0.027 0.049,-0.084 0.049,-0.146 v -1.447 c 0,-0.404 -0.377,-0.07 -0.52,0.074 l -0.32,0.406 c -0.053,0.068 -0.053,0.094 -0.053,0.131 v 1.461 z m -0.294,-1.482 c 0,-0.088 0.026,-0.168 0.071,-0.236 l 0.563,-0.709 c 0.162,-0.199 0.332,-0.176 0.332,-0.176 h 1.45 c 0.899,0.088 0.9,0.943 0.9,0.943 v 5.551 c 0,0.146 -0.119,0.266 -0.266,0.266 h -2.782 c -0.147,0 -0.267,-0.119 -0.267,-0.266 l -0.001,-5.373 z"
           id="path14274"
           inkscape:connector-curvature="0"
           style="opacity:0.6;fill:none;stroke:#1d1d1c;stroke-width:0.5;stroke-miterlimit:4;stroke-opacity:1;stroke-dasharray:none" />
        <path
           d="m 29.908,638.326 c 0,0 -0.082,1.619 -1.501,1.484 0,0.001 -0.158,-1.355 1.501,-1.484 z"
           id="path14276"
           inkscape:connector-curvature="0"
           style="opacity:0.6;fill:none;stroke:#1d1d1c;stroke-width:0.5;stroke-miterlimit:4;stroke-opacity:1;stroke-dasharray:none" />
        <path
           d="m 28.778,640.438 c 0.186,-0.184 0.44,-0.295 0.722,-0.295 0.569,0 1.032,0.461 1.032,1.031 0,0.021 0,0.039 -0.001,0.061 h -0.002 c -0.018,0.223 -0.089,0.5 -0.257,0.844 0,0 -0.289,0.553 -0.521,0.807 l -0.021,0.02 c -0.112,0.113 -0.27,0.184 -0.441,0.184 -0.21,0 -0.396,-0.102 -0.509,-0.26 h -0.003 c -0.113,0.158 -0.299,0.26 -0.509,0.26 -0.173,0 -0.329,-0.07 -0.442,-0.184 l -0.021,-0.02 c -0.23,-0.254 -0.521,-0.807 -0.521,-0.807 -0.168,-0.344 -0.239,-0.623 -0.255,-0.844 h -0.004 c -0.003,-0.021 -0.003,-0.039 -0.003,-0.061 0,-0.57 0.463,-1.031 1.034,-1.031 0.28,0 0.534,0.111 0.722,0.295"
           id="path14278"
           inkscape:connector-curvature="0"
           style="opacity:0.6;fill:none;stroke:#1d1d1c;stroke-width:0.5;stroke-miterlimit:4;stroke-opacity:1;stroke-dasharray:none" />
      </g>
      <g
         style="fill:#ffffff;fill-opacity:1"
         transform="translate(182.866,-371.25)"
         id="g14280">
        <path
           style="fill:#ffffff;fill-opacity:1"
           inkscape:connector-curvature="0"
           id="path14282"
           d="m 29.908,638.326 c 0,0 -0.082,1.619 -1.501,1.484 0,0.001 -0.158,-1.355 1.501,-1.484 z" />
        <path
           style="fill:#ffffff;fill-opacity:1"
           inkscape:connector-curvature="0"
           id="path14284"
           d="m 28.778,640.438 c 0.186,-0.184 0.44,-0.295 0.722,-0.295 0.569,0 1.032,0.461 1.032,1.031 0,0.021 0,0.039 -0.001,0.061 h -0.002 c -0.018,0.223 -0.089,0.5 -0.257,0.844 0,0 -0.289,0.553 -0.521,0.807 l -0.021,0.02 c -0.112,0.113 -0.27,0.184 -0.441,0.184 -0.21,0 -0.396,-0.102 -0.509,-0.26 h -0.003 c -0.113,0.158 -0.299,0.26 -0.509,0.26 -0.173,0 -0.329,-0.07 -0.442,-0.184 l -0.021,-0.02 c -0.23,-0.254 -0.521,-0.807 -0.521,-0.807 -0.168,-0.344 -0.239,-0.623 -0.255,-0.844 h -0.004 c -0.003,-0.021 -0.003,-0.039 -0.003,-0.061 0,-0.57 0.463,-1.031 1.034,-1.031 0.28,0 0.534,0.111 0.722,0.295" />
        <rect
           style="fill:#ffffff;fill-opacity:1"
           id="rect14286"
           height="0.46700001"
           width="1.2539999"
           y="635.51001"
           x="24.135" />
        <path
           style="fill:#ffffff;fill-opacity:1"
           inkscape:connector-curvature="0"
           id="path14288"
           d="m 23.241,638.875 c 0,0.152 0.211,0.32 0.381,0.125 l 0.463,-0.604 c 0.021,-0.027 0.049,-0.084 0.049,-0.146 v -1.447 c 0,-0.404 -0.377,-0.07 -0.52,0.074 l -0.32,0.406 c -0.053,0.068 -0.053,0.094 -0.053,0.131 v 1.461 z m -0.294,-1.482 c 0,-0.088 0.026,-0.168 0.071,-0.236 l 0.563,-0.709 c 0.162,-0.199 0.332,-0.176 0.332,-0.176 h 1.45 c 0.899,0.088 0.9,0.943 0.9,0.943 v 5.551 c 0,0.146 -0.119,0.266 -0.266,0.266 h -2.782 c -0.147,0 -0.267,-0.119 -0.267,-0.266 l -0.001,-5.373 z" />
      </g>
    </g>
  </g>
</svg>
