<?xml version="1.0" encoding="UTF-8" standalone="no"?>
<svg width="12px" height="12px" viewBox="0 0 12 12" version="1.1" xmlns="http://www.w3.org/2000/svg" xmlns:xlink="http://www.w3.org/1999/xlink" xmlns:sketch="http://www.bohemiancoding.com/sketch/ns">
    <!-- Generator: Sketch 3.2.2 (9983) - http://www.bohemiancoding.com/sketch -->
    <title>store-white-12</title>
    <desc>Created with Sketch.</desc>
    <defs></defs>
    <g id="Page-1" stroke="none" stroke-width="1" fill="none" fill-rule="evenodd" sketch:type="MSPage">
        <g id="Group" sketch:type="MSLayerGroup" transform="translate(0.000000, -0.199951)">
            <path d="M9.59529412,8.74196559 C9.84235294,8.50050003 10.1670588,8.35135953 10.5411765,8.35135953 C11.2823529,8.35135953 11.8823529,8.95502344 11.8823529,9.70782785 L11.8823529,9.78594906 L11.8752941,9.78594906 C11.8541176,10.0771281 11.7623529,10.4393265 11.5435294,10.8938499 C11.5435294,10.8938499 11.1694118,11.6182466 10.8658824,11.9520372 L10.8376471,11.973343 C10.6894118,12.1224835 10.4847059,12.2148086 10.2658824,12.2148086 C9.99058824,12.2148086 9.74352941,12.0798719 9.60235294,11.873916 L9.59529412,11.873916 C9.44705882,12.0798719 9.20705882,12.2148086 8.93176471,12.2148086 C8.70588235,12.2148086 8.50117647,12.1224835 8.36,11.973343 L8.33176471,11.9520372 C8.02823529,11.6182466 7.65411765,10.8938499 7.65411765,10.8938499 C7.42823529,10.4393265 7.33647059,10.0771281 7.31529412,9.78594906 L7.30823529,9.70782785 C7.30823529,8.95502344 7.91529412,8.35135953 8.65647059,8.35135953 C9.02352941,8.35135953 9.35529412,8.50050003 9.59529412,8.74196559" id="Fill-46" opacity="0.5" fill="#0A0B09" sketch:type="MSShapeGroup"></path>
            <path d="M2.70588235,5.11288019 L3.41176471,5.11288019 L3.41176471,7.2434587 L2.70588235,7.2434587 L2.70588235,5.11288019 Z M5.52941176,3.69249452 L3.41176471,3.69249452 L2.70588235,4.40268735 L2,4.40268735 L2,12.2148086 L6.23529412,12.2148086 L6.23529412,4.40268735 L5.52941176,3.69249452 L5.52941176,3.69249452 Z" id="Fill-48" opacity="0.5" fill="#0A0B09" sketch:type="MSShapeGroup"></path>
            <path d="M3.41176471,2.27210884 L5.52941176,2.27210884 L5.52941176,2.98230168 L3.41176471,2.98230168 L3.41176471,2.27210884 Z" id="Fill-49" opacity="0.5" fill="#0A0B09" sketch:type="MSShapeGroup"></path>
            <path d="M9.05882353,7.95365154 L9.05882353,7.2434587 L10.4705882,5.82307303 L11.1764706,5.82307303 L11.1764706,6.53326587 L9.76470588,7.95365154 L9.05882353,7.95365154" id="Fill-50" opacity="0.5" fill="#0A0B09" sketch:type="MSShapeGroup"></path>
            <path d="M8.59529412,7.74196559 C8.84235294,7.50050003 9.16705882,7.35135953 9.54117647,7.35135953 C10.2823529,7.35135953 10.8823529,7.95502344 10.8823529,8.70782785 L10.8823529,8.78594906 L10.8752941,8.78594906 C10.8541176,9.07712812 10.7623529,9.43932647 10.5435294,9.89384989 C10.5435294,9.89384989 10.1694118,10.6182466 9.86588235,10.9520372 L9.83764706,10.973343 C9.68941176,11.1224835 9.48470588,11.2148086 9.26588235,11.2148086 C8.99058824,11.2148086 8.74352941,11.0798719 8.60235294,10.873916 L8.59529412,10.873916 C8.44705882,11.0798719 8.20705882,11.2148086 7.93176471,11.2148086 C7.70588235,11.2148086 7.50117647,11.1224835 7.36,10.973343 L7.33176471,10.9520372 C7.02823529,10.6182466 6.65411765,9.89384989 6.65411765,9.89384989 C6.42823529,9.43932647 6.33647059,9.07712812 6.31529412,8.78594906 L6.30823529,8.70782785 C6.30823529,7.95502344 6.91529412,7.35135953 7.65647059,7.35135953 C8.02352941,7.35135953 8.35529412,7.50050003 8.59529412,7.74196559" id="Fill-46" opacity="0.75" fill="#0A0B09" sketch:type="MSShapeGroup"></path>
            <path d="M1.70588235,4.11288019 L2.41176471,4.11288019 L2.41176471,6.2434587 L1.70588235,6.2434587 L1.70588235,4.11288019 Z M4.52941176,2.69249452 L2.41176471,2.69249452 L1.70588235,3.40268735 L1,3.40268735 L1,11.2148086 L5.23529412,11.2148086 L5.23529412,3.40268735 L4.52941176,2.69249452 L4.52941176,2.69249452 Z" id="Fill-48" opacity="0.75" fill="#0A0B09" sketch:type="MSShapeGroup"></path>
            <path d="M2.41176471,1.27210884 L4.52941176,1.27210884 L4.52941176,1.98230168 L2.41176471,1.98230168 L2.41176471,1.27210884 Z" id="Fill-49" opacity="0.75" fill="#0A0B09" sketch:type="MSShapeGroup"></path>
            <path d="M8.05882353,6.95365154 L8.05882353,6.2434587 L9.47058824,4.82307303 L10.1764706,4.82307303 L10.1764706,5.53326587 L8.76470588,6.95365154 L8.05882353,6.95365154" id="Fill-50" opacity="0.75" fill="#0A0B09" sketch:type="MSShapeGroup"></path>
            <path d="M7.59529412,6.74196559 C7.84235294,6.50050003 8.16705882,6.35135953 8.54117647,6.35135953 C9.28235294,6.35135953 9.88235294,6.95502344 9.88235294,7.70782785 L9.88235294,7.78594906 L9.87529412,7.78594906 C9.85411765,8.07712812 9.76235294,8.43932647 9.54352941,8.89384989 C9.54352941,8.89384989 9.16941176,9.61824658 8.86588235,9.95203722 L8.83764706,9.973343 C8.68941176,10.1224835 8.48470588,10.2148086 8.26588235,10.2148086 C7.99058824,10.2148086 7.74352941,10.0798719 7.60235294,9.873916 L7.59529412,9.873916 C7.44705882,10.0798719 7.20705882,10.2148086 6.93176471,10.2148086 C6.70588235,10.2148086 6.50117647,10.1224835 6.36,9.973343 L6.33176471,9.95203722 C6.02823529,9.61824658 5.65411765,8.89384989 5.65411765,8.89384989 C5.42823529,8.43932647 5.33647059,8.07712812 5.31529412,7.78594906 L5.30823529,7.70782785 C5.30823529,6.95502344 5.91529412,6.35135953 6.65647059,6.35135953 C7.02352941,6.35135953 7.35529412,6.50050003 7.59529412,6.74196559" id="Fill-47" fill="#FFFFFF" sketch:type="MSShapeGroup"></path>
            <path d="M0.705882353,3.11288019 L1.41176471,3.11288019 L1.41176471,5.2434587 L0.705882353,5.2434587 L0.705882353,3.11288019 Z M3.52941176,1.69249452 L1.41176471,1.69249452 L0.705882353,2.40268735 L0,2.40268735 L0,10.2148086 L4.23529412,10.2148086 L4.23529412,2.40268735 L3.52941176,1.69249452 L3.52941176,1.69249452 Z" id="Fill-48" fill="#FFFFFF" sketch:type="MSShapeGroup"></path>
            <path d="M1.41176471,0.272108841 L3.52941176,0.272108841 L3.52941176,0.982301679 L1.41176471,0.982301679 L1.41176471,0.272108841 Z" id="Fill-49" fill="#FFFFFF" sketch:type="MSShapeGroup"></path>
            <path d="M7.05882353,5.95365154 L7.05882353,5.2434587 L8.47058824,3.82307303 L9.17647059,3.82307303 L9.17647059,4.53326587 L7.76470588,5.95365154 L7.05882353,5.95365154" id="Fill-50" fill="#FFFFFF" sketch:type="MSShapeGroup"></path>
        </g>
    </g>
</svg>