<?xml version="1.0" encoding="utf-8"?>
<!-- Generator: Adobe Illustrator 13.0.0, SVG Export Plug-In . SVG Version: 6.00 Build 14948)  -->
<!DOCTYPE svg PUBLIC "-//W3C//DTD SVG 1.1//EN" "http://www.w3.org/Graphics/SVG/1.1/DTD/svg11.dtd">
<svg version="1.1" xmlns="http://www.w3.org/2000/svg" xmlns:xlink="http://www.w3.org/1999/xlink" x="0px" y="0px" width="24px" height="24px" viewBox="0 0 24 24" enable-background="new 0 0 24 24" xml:space="preserve">
<g id="stripbar">
	<g>
		<path fill="#454545" d="M20.671,12.297c-0.212-0.042-2.66-0.031-2.66-0.031V5.96c0,0,0.862,0.136,0.918-0.108
			c0.105-0.459,0.196-1.577-0.007-1.796c-0.08-0.086-0.911-0.05-0.911-0.05V1.058h-1.98v3.96c0,0-0.171,1.873-0.999,1.954
			c-0.261,0.025-1.047-0.003-1.047-0.003S9.344,8.937,7.802,10c-1.609,1.109-2.716,4.071-2.717,4.078
			c0,0.004-0.158,0.496,0.008,0.662c0.354,0.354,1.448,0.354,1.802,0c0.177-0.177,0.177-0.54,0-0.717
			c-0.002-0.002-0.008,0.002-0.01,0C6.188,13.078,9.016,11,9.016,11l3.026-1.021c0,0-0.039,1.368-0.023,2.021
			c0.018,0.779-1.611,1.925-1.521,3.049C10.6,16.311,12.958,17,12.958,17s-3.592,3.035-3.745,3.424
			c-0.555,1.425,0.788,1.735,1.251,1.536c0.832-0.359,4.271-3.437,5.565-4.834v4.9h1.98V17.76
			C18.011,17.76,23.032,12.76,20.671,12.297z M15.031,10.047c0.021-0.056,0.703-0.747,0.955-0.972l-0.005,3.167
			c0,0-0.858,0.007-1.357,0.025C14.357,12.276,14.587,11.187,15.031,10.047z M16.021,16.042c-0.479-0.354-1.063-1.021-1.063-1.021
			l1.083-0.018L16.021,16.042z M11.577,7.008c1.383,0,2.503-1.12,2.503-2.501c0-1.383-1.12-2.502-2.503-2.502
			c-1.382,0-2.502,1.12-2.502,2.502C9.075,5.889,10.195,7.008,11.577,7.008z"/>
		<g opacity="0.3">
			<path fill="#FFFFFF" d="M18.011,1.058v2.949c0,0,0.175-0.008,0.372-0.008c0.232,0,0.496,0.011,0.539,0.058
				c0.203,0.219,0.112,1.337,0.007,1.796c-0.026,0.115-0.232,0.146-0.443,0.146c-0.234,0-0.475-0.038-0.475-0.038v6.306
				c0,0,0.285-0.001,0.669-0.001c0.741,0,1.852,0.005,1.991,0.032c2.361,0.462-2.66,5.462-2.66,5.462v4.267h-1.98v-4.9
				c-1.295,1.397-4.733,4.475-5.565,4.834c-0.082,0.035-0.191,0.055-0.313,0.055c-0.566,0-1.396-0.418-0.938-1.591
				C9.366,20.035,12.958,17,12.958,17s-2.358-0.689-2.461-1.951c-0.09-1.124,1.539-2.27,1.521-3.049
				c-0.016-0.653,0.023-2.021,0.023-2.021L9.016,11c0,0-2.828,2.078-2.131,3.023c0,0,0.001,0.001,0.001,0.001
				c0.001,0,0.002-0.001,0.003-0.001c0.001,0,0.002-0.001,0.003-0.001s0.001,0.001,0.002,0.001c0.177,0.177,0.177,0.54,0,0.717
				s-0.539,0.266-0.901,0.266c-0.362,0-0.724-0.089-0.901-0.266c-0.166-0.166-0.008-0.658-0.008-0.662
				C5.086,14.071,6.192,11.109,7.802,10c1.542-1.063,6.183-3.031,6.183-3.031s0.375,0.014,0.692,0.014
				c0.143,0,0.273-0.003,0.354-0.011c0.828-0.081,0.999-1.954,0.999-1.954v-3.96H18.011 M14.62,12.267c0.002,0,0.003,0,0.004,0
				c0.499-0.019,1.357-0.025,1.357-0.025l0.005-3.167c-0.252,0.225-0.934,0.916-0.955,0.972
				C14.589,11.182,14.359,12.267,14.62,12.267 M16.021,16.042l0.021-1.039l-1.083,0.018C14.959,15.021,15.542,15.688,16.021,16.042
				 M11.577,2.005c1.383,0,2.503,1.12,2.503,2.502c0,1.381-1.12,2.501-2.503,2.501c-1.382,0-2.502-1.12-2.502-2.501
				C9.075,3.125,10.195,2.005,11.577,2.005 M18.011,0.058h-1.98c-0.553,0-1,0.448-1,1v2.859c-0.281-1.651-1.723-2.912-3.453-2.912
				c-1.931,0-3.502,1.571-3.502,3.502c0,1.38,0.803,2.577,1.967,3.146C8.946,8.181,7.864,8.743,7.234,9.177
				c-1.931,1.331-3.113,4.572-3.14,4.761c0.007-0.048,0.016-0.091,0.03-0.138c-0.261,0.884-0.002,1.383,0.26,1.646
				c0.486,0.486,1.217,0.559,1.609,0.559s1.123-0.072,1.608-0.558c0.271-0.271,0.426-0.658,0.426-1.065
				c0-0.283-0.075-0.557-0.211-0.788c0.192-0.38,0.924-1.128,1.671-1.697l1.529-0.516c-0.001,0.21-0.001,0.412,0.002,0.579
				c-0.062,0.144-0.296,0.452-0.455,0.661c-0.509,0.67-1.143,1.505-1.063,2.509c0.081,0.988,0.835,1.686,1.598,2.144
				c-2.606,2.251-2.73,2.567-2.816,2.786c-0.389,0.999-0.146,1.684,0.127,2.082c0.44,0.645,1.189,0.874,1.743,0.874
				c0.26,0,0.498-0.046,0.708-0.136c0.751-0.324,2.664-1.97,4.171-3.373v2.521c0,0.553,0.447,1,1,1h1.98c0.553,0,1-0.447,1-1v-3.855
				c1.532-1.568,3.693-4.135,3.217-5.705c-0.182-0.597-0.679-1.016-1.364-1.15c-0.114-0.022-0.242-0.047-1.853-0.05V6.938
				c0.656-0.167,0.842-0.637,0.893-0.863c0.019-0.078,0.44-1.957-0.249-2.699c-0.182-0.197-0.397-0.292-0.644-0.336V1.058
				C19.011,0.506,18.563,0.058,18.011,0.058L18.011,0.058z M14.754,5.982c0.062-0.131,0.114-0.267,0.159-0.407
				c-0.045,0.167-0.097,0.312-0.146,0.407C14.763,5.982,14.758,5.982,14.754,5.982L14.754,5.982z"/>
		</g>
	</g>
</g>
<rect id="canvas" style="fill:none;stroke:none;visibility:hidden" width="24" height="24"/>
</svg>
