<?xml version="1.0" encoding="utf-8"?>
<!-- Generator: Adobe Illustrator 13.0.0, SVG Export Plug-In . SVG Version: 6.00 Build 14948)  -->
<!DOCTYPE svg PUBLIC "-//W3C//DTD SVG 1.1//EN" "http://www.w3.org/Graphics/SVG/1.1/DTD/svg11.dtd">
<svg version="1.1" xmlns="http://www.w3.org/2000/svg" xmlns:xlink="http://www.w3.org/1999/xlink" x="0px" y="0px" width="18px" height="18px" viewBox="0 0 18 18" enable-background="new 0 0 18 18" xml:space="preserve">
<g id="stripbar">
	<g>
		<path fill="#454545" d="M11.956,9.018V4.043l1.023-0.028l-0.003-1.047l-1.021,0.018V0.991h-0.994v2.538L9.958,4.984l-1,0.003
			c0,0-3.013,1.035-3.953,1.997c-0.791,0.81-1.969,2.766-2,3.047c-0.024,0.218-0.057,0.997-0.057,0.997l1.02-0.003
			c0,0-0.002-0.52,0.006-0.661c0.028-0.493,1.438-2.302,1.438-2.302l2.263-1.069c0,0-0.019,1.546-0.008,2.015
			c0.013,0.559-0.742,1.2-0.677,2.007c0.073,0.906,1,1.016,1,1.016s-1.813,2.564-1.922,2.844c-0.398,1.022,0.565,1.246,0.898,1.103
			c0.598-0.258,3.067-2.467,3.997-3.471v3.519h0.994v-3.063c0,0,2.098-1.196,1.91-3.556C13.828,8.923,11.956,9.018,11.956,9.018z
			 M9.952,9.018c-0.354,0.013,0.979-3.037,0.979-3.037L10.927,9C10.927,9,10.311,9.005,9.952,9.018z M10.962,11.582
			c-0.181-0.266-0.336-0.54-0.336-0.54l0.336-0.018V11.582z M6.978,4.994c1.113,0,2.016-0.902,2.016-2.016S8.091,0.963,6.978,0.963
			S4.962,1.865,4.962,2.979S5.864,4.994,6.978,4.994z"/>
		<g opacity="0.3">
			<path fill="#FFFFFF" d="M6.978,0.963c1.113,0,2.016,0.902,2.016,2.016S8.091,4.994,6.978,4.994S4.962,4.092,4.962,2.979
				S5.864,0.963,6.978,0.963 M11.956,0.991v1.995l1.021-0.018l0.003,1.047l-1.023,0.028v4.975c0,0,0.149-0.008,0.365-0.008
				c0.547,0,1.518,0.049,1.545,0.396c0.188,2.359-1.91,3.556-1.91,3.556v3.063h-0.994v-3.519c-0.93,1.004-3.398,3.213-3.997,3.471
				c-0.059,0.025-0.138,0.039-0.225,0.039c-0.406,0-1.001-0.3-0.673-1.142c0.109-0.279,1.922-2.844,1.922-2.844
				s-0.927-0.109-1-1.016c-0.065-0.807,0.689-1.448,0.677-2.007C7.655,8.54,7.674,6.994,7.674,6.994L5.411,8.063
				c0,0-1.409,1.809-1.438,2.302c-0.008,0.142-0.006,0.661-0.006,0.661l-1.02,0.003c0,0,0.032-0.779,0.057-0.997
				c0.031-0.281,1.209-2.237,2-3.047c0.94-0.962,3.953-1.997,3.953-1.997l1-0.003l1.004-1.455V0.991H11.956 M9.95,9.018
				c0.001,0,0.001,0,0.002,0C10.311,9.005,10.927,9,10.927,9l0.004-3.019C10.931,5.981,9.604,9.018,9.95,9.018 M10.962,11.582
				v-0.558l-0.336,0.018C10.626,11.042,10.781,11.316,10.962,11.582 M6.978-0.037c-1.663,0-3.016,1.353-3.016,3.016
				c0,1.058,0.547,1.99,1.374,2.528C4.921,5.753,4.553,6.016,4.29,6.286C3.554,7.038,2.088,9.229,2.011,9.921
				c-0.027,0.239-0.057,0.93-0.062,1.066l-0.043,1.044l1.045-0.003l1.02-0.003l1.002-0.003l-0.005-1.002
				c0-0.002-0.002-0.34,0.001-0.521c0.115-0.268,0.585-0.976,1.087-1.636l0.606-0.287c0,0.16,0.001,0.302,0.003,0.408
				c-0.027,0.076-0.114,0.233-0.172,0.34c-0.237,0.432-0.561,1.022-0.5,1.771c0.042,0.526,0.253,0.946,0.547,1.259
				c-1.277,1.831-1.364,2.055-1.404,2.157c-0.341,0.874-0.07,1.475,0.122,1.755c0.316,0.463,0.884,0.75,1.483,0.75
				c0.226,0,0.435-0.041,0.622-0.121c0.493-0.212,1.599-1.131,2.6-2.037v1.167v1h1h0.994h1v-1v-2.547
				c0.758-0.604,2.079-1.98,1.907-4.151c-0.079-1-1.119-1.24-1.907-1.298V5.017l0.051-0.001l0.976-0.026l-0.003-0.976l-0.003-1.047
				l-0.003-1.014l-1.015,0.017h-0.003V0.991v-1h-1h-0.994h-1v1v1.553C9.75,1.086,8.493-0.037,6.978-0.037L6.978-0.037z"/>
		</g>
	</g>
</g>
<rect id="canvas" style="fill:none;stroke:none;visibility:hidden" width="18" height="18"/>
</svg>
