<?xml version="1.0" encoding="utf-8"?>
<!-- Generator: Adobe Illustrator 13.0.0, SVG Export Plug-In . SVG Version: 6.00 Build 14948)  -->
<!DOCTYPE svg PUBLIC "-//W3C//DTD SVG 1.1//EN" "http://www.w3.org/Graphics/SVG/1.1/DTD/svg11.dtd">
<svg version="1.1" xmlns="http://www.w3.org/2000/svg" xmlns:xlink="http://www.w3.org/1999/xlink" x="0px" y="0px" width="12px" height="12px" viewBox="0 0 12 12" enable-background="new 0 0 12 12" xml:space="preserve">
<g id="stripclub">
	<g>
		<path fill="#454545" d="M6.184,3.036c0.534-0.127,0.862-0.662,0.734-1.194C6.791,1.31,6.257,0.981,5.725,1.108
			C5.191,1.235,4.863,1.77,4.99,2.301C5.117,2.833,5.651,3.163,6.184,3.036z M8.962,6.033V3.055L9.61,2.724L9.154,1.833L8.962,1.93
			V1.109h-1v1.333L6.369,3.257H6.367v0.001L6.264,3.311L6.156,3.098L3.313,4.552l0.011,0.021L3.304,4.57l-1.31,2.513l0.999-0.015
			L3.82,5.416l1.56-0.797l0.217,0.484L5.114,6.829l0.024-0.007l1.475,1.227L5.371,9.408l0.739,0.673l1.853-2.039v2.067h1V8.275
			l1.047-2.242H8.962z M7.962,7.828L7.29,7.309L6.988,7.058l0.975,0.007V7.828z M7.962,6.033H6.777l0.778-2.259l0.407-0.208V6.033z"
			/>
		<g opacity="0.3">
			<path fill="#FFFFFF" d="M5.955,1.081c0.448,0,0.854,0.306,0.962,0.761c0.128,0.532-0.2,1.067-0.734,1.194
				c-0.077,0.019-0.154,0.027-0.23,0.027c-0.448,0-0.854-0.307-0.963-0.762C4.863,1.77,5.191,1.235,5.725,1.108
				C5.802,1.089,5.879,1.081,5.955,1.081 M8.962,1.109V1.93l0.191-0.098L9.61,2.724L8.962,3.055v2.978h1.047L8.962,8.275v1.834h-1
				V8.042L6.11,10.081L5.371,9.408l1.243-1.359L5.139,6.822L5.114,6.829l0.483-1.726L5.38,4.619L3.82,5.416L2.993,7.068L1.994,7.083
				l1.31-2.513l0.021,0.003L3.313,4.552l2.842-1.454l0.108,0.212l0.103-0.052V3.257h0.002l1.593-0.815V1.109H8.962 M6.777,6.033
				h1.186V3.565L7.555,3.773L6.777,6.033 M7.962,7.828V7.065L6.988,7.058L7.29,7.309L7.962,7.828 M5.955,0.081
				c-0.155,0-0.311,0.019-0.462,0.055c-1.069,0.255-1.73,1.331-1.475,2.398c0.038,0.159,0.094,0.31,0.166,0.45L2.858,3.662
				C2.673,3.756,2.513,3.924,2.417,4.107L1.107,6.62C0.945,6.933,0.958,7.307,1.143,7.607c0.182,0.296,0.504,0.476,0.851,0.476
				c0.005,0,0.01,0,0.015,0l0.999-0.015C3.381,8.062,3.72,7.849,3.887,7.515L4.14,7.011C4.189,7.234,4.317,7.439,4.5,7.59
				l0.669,0.557L4.633,8.733C4.454,8.929,4.359,9.188,4.372,9.454s0.129,0.515,0.326,0.693l0.739,0.673
				c0.185,0.168,0.425,0.261,0.673,0.261c0.016,0,0.032,0,0.047-0.001c0.265-0.013,0.514-0.13,0.693-0.326l0.204-0.226
				c0.158,0.343,0.506,0.581,0.908,0.581h1c0.553,0,1-0.447,1-1V8.497l0.953-2.041c0.145-0.31,0.121-0.671-0.063-0.96
				c-0.184-0.288-0.502-0.463-0.844-0.463H9.962V3.667l0.103-0.053c0.236-0.121,0.415-0.33,0.496-0.583
				c0.082-0.252,0.06-0.527-0.061-0.763l-0.456-0.891C10.02,1.33,9.993,1.286,9.962,1.244V1.109c0-0.552-0.447-1-1-1h-1
				c-0.321,0-0.606,0.151-0.789,0.386C6.834,0.233,6.41,0.081,5.955,0.081L5.955,0.081z"/>
		</g>
	</g>
</g>
<rect id="canvas" style="fill:none;stroke:none;visibility:hidden" width="12" height="12"/>
</svg>
