<?xml version="1.0" encoding="UTF-8" standalone="no"?>
<!-- Created with Inkscape (http://www.inkscape.org/) -->

<svg
   xmlns:dc="http://purl.org/dc/elements/1.1/"
   xmlns:cc="http://creativecommons.org/ns#"
   xmlns:rdf="http://www.w3.org/1999/02/22-rdf-syntax-ns#"
   xmlns:svg="http://www.w3.org/2000/svg"
   xmlns="http://www.w3.org/2000/svg"
   xmlns:sodipodi="http://sodipodi.sourceforge.net/DTD/sodipodi-0.dtd"
   xmlns:inkscape="http://www.inkscape.org/namespaces/inkscape"
   width="24"
   height="24"
   id="svg4460"
   version="1.1"
   inkscape:version="0.48.2 r9819"
   sodipodi:docname="subway-entrance-24.svg">
  <defs
     id="defs4462" />
  <sodipodi:namedview
     id="base"
     pagecolor="#ffffff"
     bordercolor="#666666"
     borderopacity="1.0"
     inkscape:pageopacity="0.0"
     inkscape:pageshadow="2"
     inkscape:zoom="15.999999"
     inkscape:cx="16.514047"
     inkscape:cy="12.437577"
     inkscape:document-units="px"
     inkscape:current-layer="layer1"
     showgrid="true"
     showguides="true"
     inkscape:guide-bbox="true"
     inkscape:window-width="1541"
     inkscape:window-height="926"
     inkscape:window-x="174"
     inkscape:window-y="26"
     inkscape:window-maximized="0"
     inkscape:snap-grids="false"
     inkscape:snap-to-guides="false"
     inkscape:snap-nodes="true"
     inkscape:snap-midpoints="true"
     inkscape:object-nodes="true">
    <inkscape:grid
       type="xygrid"
       id="grid4468"
       empspacing="2"
       visible="true"
       enabled="true"
       snapvisiblegridlinesonly="true"
       empcolor="#ff00ff"
       empopacity="0.25098039"
       color="#ff00ff"
       opacity="0.1254902" />
    <sodipodi:guide
       orientation="1,0"
       position="0,20"
       id="guide4470" />
    <sodipodi:guide
       orientation="0,1"
       position="4,24"
       id="guide4472" />
    <sodipodi:guide
       orientation="1,0"
       position="24,13"
       id="guide4474" />
    <sodipodi:guide
       orientation="0,1"
       position="15,0"
       id="guide4476" />
    <sodipodi:guide
       orientation="1,0"
       position="23,20"
       id="guide4478" />
    <sodipodi:guide
       orientation="0,1"
       position="20,23"
       id="guide4480" />
    <sodipodi:guide
       orientation="1,0"
       position="2,5"
       id="guide4482" />
    <sodipodi:guide
       orientation="0,1"
       position="7,2"
       id="guide4484" />
    <sodipodi:guide
       orientation="1,0"
       position="13,16"
       id="guide4486" />
    <sodipodi:guide
       orientation="0,1"
       position="16,13"
       id="guide4490" />
    <sodipodi:guide
       orientation="1,0"
       position="3,22"
       id="guide3027" />
    <sodipodi:guide
       orientation="0,1"
       position="5.5,22"
       id="guide3029" />
    <sodipodi:guide
       orientation="0,1"
       position="5,3"
       id="guide3031" />
    <sodipodi:guide
       orientation="1,0"
       position="22,14"
       id="guide3033" />
  </sodipodi:namedview>
  <metadata
     id="metadata4465">
    <rdf:RDF>
      <cc:Work
         rdf:about="">
        <dc:format>image/svg+xml</dc:format>
        <dc:type
           rdf:resource="http://purl.org/dc/dcmitype/StillImage" />
        <dc:title />
      </cc:Work>
    </rdf:RDF>
  </metadata>
  <g
     inkscape:label="Layer 1"
     inkscape:groupmode="layer"
     id="layer1"
     transform="translate(0,-1028.3622)">
    <path
       style="font-size:medium;font-style:normal;font-variant:normal;font-weight:normal;font-stretch:normal;text-indent:0;text-align:start;text-decoration:none;line-height:normal;letter-spacing:normal;word-spacing:normal;text-transform:none;direction:ltr;block-progression:tb;writing-mode:lr-tb;text-anchor:start;baseline-shift:baseline;color:#000000;fill:#ffffff;fill-opacity:1;fill-rule:nonzero;stroke:none;stroke-width:2;marker:none;visibility:visible;display:inline;overflow:visible;enable-background:accumulate;font-family:Sans;-inkscape-font-specification:Sans;opacity:0.3"
       d="M 8.65625,1 8.625,1.03125 C 7.6577037,1.21575 6.9970681,2.0192 7,3 7.0000318,3.011 6.9998121,3.02125 7,3.03125 L 7,8 7,9 4.5,9 C 3.1311326,9 2,10.1311 2,11.5 2,12.8689 3.1311326,14 4.5,14 l 2.5,0 0,1 0,5 c 1.13e-4,1.1301 0.8699352,1.9999 2,2 l 12,0 c 1.130065,-10e-5 1.999887,-0.8699 2,-2 L 23,3 C 22.999887,1.8699 22.130065,1.0001 21,1 L 9.09375,1 9,1 C 8.906237,1 8.8123566,0.99 8.71875,1 z M 11,5 l 8,0 0,5.375 c -0.02195,-0.01883 -0.03919,-0.04442 -0.0625,-0.0625 L 18.90625,10.28125 13.4375,6.34375 c -0.0056,0 -0.02539,-0.02625 -0.03125,-0.03125 -0.09186,-0.08 -0.193085,-0.19535 -0.59375,-0.28125 l -0.03125,0 C 12.38649,5.96225 12.115415,6.0655 12.125,6.0625 11.425471,6.2425 10.99072,6.81425 11,7.53125 z m 8,7.59375 0,5.40625 -8,0 0,-2.5 c 0.009,0.6211 0.37171,1.0792 0.78125,1.3125 0.40954,0.2333 1.028632,0.3002 1.5625,-0.0625 l 0.03125,0 5.46875,-4 c 0.01401,-0.01 0.01766,-0.02225 0.03125,-0.03125 0.05041,-0.03532 0.08023,-0.08611 0.125,-0.125 z"
       transform="translate(0,1028.3622)"
       id="path3840"
       inkscape:connector-curvature="0"
       sodipodi:nodetypes="ccccccssscccccccccsccccccccccccccccccsccccc" />
    <path
       style="fill:#444444;fill-opacity:1;stroke:none"
       d="M 12.59375 7 C 12.51826 6.9838 12.449798 7.01195 12.375 7.03125 C 12.157313 7.08725 11.992909 7.30655 12 7.53125 L 12 10 L 4.5 10 C 3.6715728 10 3 10.671573 3 11.5 C 3 12.328427 3.6715728 13 4.5 13 L 12 13 L 12 15.5 C 12.0052 15.8586 12.484754 16.1392 12.78125 15.9375 L 18.28125 11.90625 C 18.545235 11.73205 18.562337 11.28755 18.3125 11.09375 L 12.8125 7.125 C 12.752223 7.0765 12.66924 7.0162 12.59375 7 z "
       transform="translate(0,1028.3622)"
       id="path3826" />
    <path
       style="font-size:medium;font-style:normal;font-variant:normal;font-weight:normal;font-stretch:normal;text-indent:0;text-align:start;text-decoration:none;line-height:normal;letter-spacing:normal;word-spacing:normal;text-transform:none;direction:ltr;block-progression:tb;writing-mode:lr-tb;text-anchor:start;baseline-shift:baseline;color:#000000;fill:#444444;fill-opacity:1;stroke:none;stroke-width:2;marker:none;visibility:visible;display:inline;overflow:visible;enable-background:accumulate;font-family:Sans;-inkscape-font-specification:Sans"
       d="M 8.8125 2 A 1.0001 1.0001 0 0 0 8 3 L 8 8 L 10 8 L 10 4 L 20 4 L 20 19 L 10 19 L 10 15 L 8 15 L 8 20 A 1.0001 1.0001 0 0 0 9 21 L 21 21 A 1.0001 1.0001 0 0 0 22 20 L 22 3 A 1.0001 1.0001 0 0 0 21 2 L 9 2 A 1.0001 1.0001 0 0 0 8.8125 2 z "
       transform="translate(0,1028.3622)"
       id="rect3795" />
  </g>
</svg>
