<?xml version="1.0" encoding="UTF-8" standalone="no"?>
<!-- Generator: Adobe Illustrator 15.1.0, SVG Export Plug-In . SVG Version: 6.00 Build 0)  -->

<svg
   xmlns:dc="http://purl.org/dc/elements/1.1/"
   xmlns:cc="http://creativecommons.org/ns#"
   xmlns:rdf="http://www.w3.org/1999/02/22-rdf-syntax-ns#"
   xmlns:svg="http://www.w3.org/2000/svg"
   xmlns="http://www.w3.org/2000/svg"
   xmlns:sodipodi="http://sodipodi.sourceforge.net/DTD/sodipodi-0.dtd"
   xmlns:inkscape="http://www.inkscape.org/namespaces/inkscape"
   version="1.1"
   id="svg4619"
   sodipodi:docname="suitcase-18.svg"
   inkscape:version="0.48.2 r9819"
   x="0px"
   y="0px"
   width="18px"
   height="18px"
   viewBox="-402.5 403.5 18 18"
   enable-background="new -402.5 403.5 18 18"
   xml:space="preserve"><metadata
   id="metadata21"><rdf:RDF><cc:Work
       rdf:about=""><dc:format>image/svg+xml</dc:format><dc:type
         rdf:resource="http://purl.org/dc/dcmitype/StillImage" /></cc:Work></rdf:RDF></metadata><defs
   id="defs19">
	
	
</defs>
<sodipodi:namedview
   id="base"
   pagecolor="#ffffff"
   bordercolor="#666666"
   inkscape:zoom="16"
   borderopacity="1.0"
   inkscape:pageopacity="0.0"
   inkscape:pageshadow="2"
   inkscape:cx="5.9619453"
   inkscape:cy="9.448034"
   inkscape:document-units="px"
   inkscape:current-layer="layer1"
   showgrid="true"
   showguides="true"
   inkscape:guide-bbox="true"
   inkscape:window-width="1330"
   inkscape:window-height="808"
   inkscape:window-x="156"
   inkscape:window-y="67"
   inkscape:window-maximized="0">
	<inkscape:grid
   type="xygrid"
   id="grid4627"
   enabled="true"
   empspacing="5"
   visible="true"
   snapvisiblegridlinesonly="true">
		</inkscape:grid>
	<sodipodi:guide
   id="guide4659"
   orientation="0,1"
   position="7,18" />
	<sodipodi:guide
   id="guide4661"
   orientation="1,0"
   position="18,9" />
	<sodipodi:guide
   id="guide4663"
   orientation="0,1"
   position="16,17" />
	<sodipodi:guide
   id="guide4665"
   orientation="1,0"
   position="17,14" />
	<sodipodi:guide
   id="guide4667"
   orientation="1,0"
   position="0,16" />
	<sodipodi:guide
   id="guide4669"
   orientation="0,1"
   position="8,0" />
	<sodipodi:guide
   id="guide4671"
   orientation="1,0"
   position="2,10" />
	<sodipodi:guide
   id="guide4673"
   orientation="0,1"
   position="12,2" />
</sodipodi:namedview>
<g
   id="layer1"
   transform="translate(0,-1034.3622)"
   inkscape:label="Layer 1"
   inkscape:groupmode="layer">
</g>
<g
   id="g3015"><path
     sodipodi:nodetypes="scsssscssssssss"
     stroke-miterlimit="10"
     d="m -387.5,408.5 -3,0 0,-1 c 0,-0.553 -0.448,-1 -1,-1 l -3,0 c -0.552,0 -1,0.447 -1,1 l 0,1 -3,0 c -0.552,0 -1,0.447 -1,1 l 0,7 c 0,0.553 0.448,1 1,1 l 11,0 c 0.552,0 1,-0.447 1,-1 l 0,-7 c 0,-0.553 -0.448,-1 -1,-1 z"
     id="path15"
     inkscape:connector-curvature="0"
     style="opacity:0.3;fill:#ffffff;stroke:#ffffff;stroke-width:2;stroke-miterlimit:10" /><path
     sodipodi:nodetypes="scsssscssssssssccccccccccccccc"
     d="m -387.5,408.5 -3,0 0,-1 c 0,-0.553 -0.448,-1 -1,-1 l -3,0 c -0.552,0 -1,0.447 -1,1 l 0,1 -3,0 c -0.552,0 -1,0.447 -1,1 l 0,7 c 0,0.553 0.448,1 1,1 l 11,0 c 0.552,0 1,-0.447 1,-1 l 0,-7 c 0,-0.553 -0.448,-1 -1,-1 z m -7,-1 3,0 0,1 -3,0 z m -2,9 -1,0 0,-7 1,0 z m 8,0 -1,0 0,-7 1,0 z"
     id="path17"
     inkscape:connector-curvature="0"
     style="fill:#454545" /></g>
</svg>