<?xml version="1.0" encoding="UTF-8" standalone="no"?>
<!-- Generator: Adobe Illustrator 15.1.0, SVG Export Plug-In . SVG Version: 6.00 Build 0)  -->

<svg
   xmlns:dc="http://purl.org/dc/elements/1.1/"
   xmlns:cc="http://creativecommons.org/ns#"
   xmlns:rdf="http://www.w3.org/1999/02/22-rdf-syntax-ns#"
   xmlns:svg="http://www.w3.org/2000/svg"
   xmlns="http://www.w3.org/2000/svg"
   xmlns:sodipodi="http://sodipodi.sourceforge.net/DTD/sodipodi-0.dtd"
   xmlns:inkscape="http://www.inkscape.org/namespaces/inkscape"
   version="1.1"
   id="svg4460"
   sodipodi:docname="suitcase-24.svg"
   inkscape:version="0.48.2 r9819"
   x="0px"
   y="0px"
   width="24px"
   height="24px"
   viewBox="-402.5 403.5 24 24"
   enable-background="new -402.5 403.5 24 24"
   xml:space="preserve"><metadata
   id="metadata23"><rdf:RDF><cc:Work
       rdf:about=""><dc:format>image/svg+xml</dc:format><dc:type
         rdf:resource="http://purl.org/dc/dcmitype/StillImage" /></cc:Work></rdf:RDF></metadata><defs
   id="defs21">
	
	
</defs>
<sodipodi:namedview
   id="base"
   pagecolor="#ffffff"
   bordercolor="#666666"
   inkscape:zoom="22.627416"
   borderopacity="1.0"
   inkscape:pageopacity="0.0"
   inkscape:pageshadow="2"
   inkscape:cx="1.5364204"
   inkscape:cy="13.164686"
   inkscape:document-units="px"
   inkscape:current-layer="layer1"
   showgrid="true"
   showguides="true"
   inkscape:guide-bbox="true"
   inkscape:window-width="1471"
   inkscape:window-height="1020"
   inkscape:window-x="64"
   inkscape:window-y="0"
   inkscape:window-maximized="0">
	<inkscape:grid
   type="xygrid"
   id="grid4468"
   enabled="true"
   empspacing="2"
   visible="true"
   snapvisiblegridlinesonly="true">
		</inkscape:grid>
	<sodipodi:guide
   id="guide4470"
   orientation="1,0"
   position="0,20" />
	<sodipodi:guide
   id="guide4472"
   orientation="0,1"
   position="4,24" />
	<sodipodi:guide
   id="guide4474"
   orientation="1,0"
   position="24,13" />
	<sodipodi:guide
   id="guide4476"
   orientation="0,1"
   position="15,0" />
	<sodipodi:guide
   id="guide4478"
   orientation="1,0"
   position="23,20" />
	<sodipodi:guide
   id="guide4480"
   orientation="0,1"
   position="20,23" />
	<sodipodi:guide
   id="guide4482"
   orientation="1,0"
   position="2,5" />
	<sodipodi:guide
   id="guide4484"
   orientation="0,1"
   position="7,2" />
	<sodipodi:guide
   id="guide4486"
   orientation="1,0"
   position="12.5,3.5" />
	<sodipodi:guide
   id="guide4490"
   orientation="0,1"
   position="16,13" />
</sodipodi:namedview>
<g
   id="layer1"
   transform="translate(0,-1028.3622)"
   inkscape:label="Layer 1"
   inkscape:groupmode="layer">
</g>
<path
   style="opacity:0.29999999999999999;fill:#ffffff;stroke:#ffffff;stroke-width:2;stroke-miterlimit:10;stroke-opacity:1;fill-opacity:1"
   inkscape:connector-curvature="0"
   id="path17"
   d="m -382.5,410.5 -4,0 0,-2 c 0,-0.553 -0.448,-1 -1,-1 l -5,0 c -0.552,0 -1,0.447 -1,1 l 0,2 -4,0 c -0.552,0 -1,0.447 -1,1 l 0,10 c 0,0.553 0.448,1 1,1 l 15,0 c 0.552,0 1,-0.447 1,-1 l 0,-10 c 0,-0.553 -0.448,-1 -1,-1 z"
   stroke-miterlimit="10"
   sodipodi:nodetypes="scsssscssssssss" /><path
   style="fill:#454545"
   inkscape:connector-curvature="0"
   id="path19"
   d="m -382.5,410.5 -4,0 0,-2 c 0,-0.553 -0.448,-1 -1,-1 l -5,0 c -0.552,0 -1,0.447 -1,1 l 0,2 -4,0 c -0.552,0 -1,0.447 -1,1 l 0,10 c 0,0.553 0.448,1 1,1 l 15,0 c 0.552,0 1,-0.447 1,-1 l 0,-10 c 0,-0.553 -0.448,-1 -1,-1 z m -12,11 -1,0 0,-10 1,0 z m 7,-11 -5,0 0,-2 5,0 z m 3,11 -1,0 0,-10 1,0 z"
   sodipodi:nodetypes="scsssscssssssssccccccccccccccc" />
</svg>