<?xml version="1.0" encoding="UTF-8" standalone="no"?>
<!-- Created with Inkscape (http://www.inkscape.org/) -->

<svg
   xmlns:dc="http://purl.org/dc/elements/1.1/"
   xmlns:cc="http://creativecommons.org/ns#"
   xmlns:rdf="http://www.w3.org/1999/02/22-rdf-syntax-ns#"
   xmlns:svg="http://www.w3.org/2000/svg"
   xmlns="http://www.w3.org/2000/svg"
   xmlns:inkscape="http://www.inkscape.org/namespaces/inkscape"
   version="1.1"
   width="12"
   height="12"
   viewBox="-402.5 403.5 12 12"
   id="svg4764"
   xml:space="preserve"><metadata
     id="metadata25"><rdf:RDF><cc:Work
         rdf:about=""><dc:format>image/svg+xml</dc:format><dc:type
           rdf:resource="http://purl.org/dc/dcmitype/StillImage" /></cc:Work></rdf:RDF></metadata><defs
     id="defs23" /><g
     transform="translate(0,-1040.3622)"
     id="layer1" /><path
     d="m -393.5,406.5 0,-1.5 -0.5,-0.5 -4,0 -0.5,0.5 0,1.5 -1.5,0 -0.5,0.5 0,5 0.5,0.5 8,0 0.5,-0.501 0,-4.999 -0.5,-0.5 z"
     inkscape:connector-curvature="0"
     id="path15"
     style="opacity:0.3;fill:#ffffff;fill-opacity:1;stroke:#ffffff;stroke-width:2;stroke-linecap:round;stroke-linejoin:round;stroke-miterlimit:10;stroke-opacity:1" /><path
     d="m -393.5,406.5 0,-1.5 -0.5,-0.5 -4,0 -0.5,0.5 0,1.5 -1.5,0 -0.5,0.5 0,5 0.5,0.5 8,0 0.5,-0.501 0,-4.999 -0.5,-0.5 z m -4,-1 3,0 0,1 -3,0 z m -1,2 1,0 0,4 -1,0 m 5,0 -1,0 0,-4 1,0 z"
     inkscape:connector-curvature="0"
     id="path17"
     style="fill:#454545" /><path
     d="m -394.5,407.5 v -2 h -4 v 2 h -3 v 6 h 10 v -6 h -3 z m -3,-1 h 2 v 1 h -2 v -1 z m -2,2 h 1 v 4 h -1 m 6,0 h -1 v -4 h 1 v 4 z"
     inkscape:connector-curvature="0"
     id="path19"
     style="fill:#454545;display:none" /><path
     d="m -392.5,407.5 h -2 v -1 c 0,-0.553 -0.448,-1 -1,-1 h -2 c -0.552,0 -1,0.447 -1,1 v 1 h -2 c -0.552,0 -1,0.447 -1,1 v 4 c 0,0.553 0.448,1 1,1 h 8 c 0.552,0 1,-0.447 1,-1 v -4 c 0,-0.553 -0.448,-1 -1,-1 z m -6,5 h -1 v -4 h 1 v 4 z m 3,-5 h -2 v -1 h 2 v 1 z m 2,5 h -1 v -4 h 1 v 4 z"
     inkscape:connector-curvature="0"
     id="path21"
     style="fill:#454545;display:none" /><rect
     width="12"
     height="12"
     x="0"
     y="0"
     id="canvas"
     style="fill:none;stroke:none;visibility:hidden" /></svg>