<?xml version="1.0" encoding="utf-8"?>
<!-- Generator: Adobe Illustrator 15.1.0, SVG Export Plug-In . SVG Version: 6.00 Build 0)  -->
<!DOCTYPE svg PUBLIC "-//W3C//DTD SVG 1.1//EN" "http://www.w3.org/Graphics/SVG/1.1/DTD/svg11.dtd">
<svg version="1.1"
	 id="svg4460" xmlns:cc="http://creativecommons.org/ns#" xmlns:svg="http://www.w3.org/2000/svg" xmlns:dc="http://purl.org/dc/elements/1.1/" xmlns:sodipodi="http://sodipodi.sourceforge.net/DTD/sodipodi-0.dtd" sodipodi:docname="marker-stroked-24.svg" inkscape:version="0.48.2 r9819" xmlns:rdf="http://www.w3.org/1999/02/22-rdf-syntax-ns#" xmlns:inkscape="http://www.inkscape.org/namespaces/inkscape"
	 xmlns="http://www.w3.org/2000/svg" xmlns:xlink="http://www.w3.org/1999/xlink" x="0px" y="0px" width="24px" height="24px"
	 viewBox="-402.5 403.5 24 24" enable-background="new -402.5 403.5 24 24" xml:space="preserve">
<sodipodi:namedview  id="base" pagecolor="#ffffff" bordercolor="#666666" inkscape:zoom="11.313708" borderopacity="1.0" inkscape:pageopacity="0.0" inkscape:pageshadow="2" inkscape:cx="15.622727" inkscape:cy="6.9146856" inkscape:document-units="px" inkscape:current-layer="layer1" showgrid="true" showguides="true" inkscape:guide-bbox="true" inkscape:window-width="1220" inkscape:window-height="833" inkscape:window-x="56" inkscape:window-y="20" inkscape:window-maximized="0">
	<inkscape:grid  type="xygrid" id="grid4468" enabled="true" empspacing="5" visible="true" snapvisiblegridlinesonly="true">
		</inkscape:grid>
	<sodipodi:guide  id="guide4470" orientation="1,0" position="0,20"></sodipodi:guide>
	<sodipodi:guide  id="guide4472" orientation="0,1" position="4,24"></sodipodi:guide>
	<sodipodi:guide  id="guide4474" orientation="1,0" position="24,13"></sodipodi:guide>
	<sodipodi:guide  id="guide4476" orientation="0,1" position="15,0"></sodipodi:guide>
	<sodipodi:guide  id="guide4478" orientation="1,0" position="23,20"></sodipodi:guide>
	<sodipodi:guide  id="guide4480" orientation="0,1" position="20,23"></sodipodi:guide>
	<sodipodi:guide  id="guide4482" orientation="1,0" position="2,5"></sodipodi:guide>
	<sodipodi:guide  id="guide4484" orientation="0,1" position="7,2"></sodipodi:guide>
	<sodipodi:guide  id="guide4486" orientation="1,0" position="13,16"></sodipodi:guide>
	<sodipodi:guide  id="guide4490" orientation="0,1" position="16,13"></sodipodi:guide>
</sodipodi:namedview>
<g id="layer1" transform="translate(0,-1028.3622)" inkscape:label="Layer 1" inkscape:groupmode="layer">
</g>
<g id="travel_x5F_agency">
	<path opacity="0.3" fill="#FFFFFF" stroke="#FFFFFF" stroke-width="2" stroke-miterlimit="10" d="M-382.5,410.5h-4v-2
		c0-0.553-0.448-1-1-1h-6c-0.552,0-1,0.447-1,1v2h-4c-0.552,0-1,0.447-1,1v10c0,0.553,0.448,1,1,1h16c0.552,0,1-0.447,1-1v-10
		C-381.5,410.947-381.948,410.5-382.5,410.5z"/>
	<path fill="#454545" d="M-382.5,410.5h-4v-2c0-0.553-0.448-1-1-1h-6c-0.552,0-1,0.447-1,1v2h-4c-0.552,0-1,0.447-1,1v10
		c0,0.553,0.448,1,1,1h16c0.552,0,1-0.447,1-1v-10C-381.5,410.947-381.948,410.5-382.5,410.5z M-395.5,421.5h-1v-10h1V421.5z
		 M-387.5,410.5h-6v-2h6V410.5z M-384.5,421.5h-1v-10h1V421.5z"/>
</g>
</svg>
