<?xml version="1.0" encoding="utf-8"?>
<!-- Generator: Adobe Illustrator 15.1.0, SVG Export Plug-In . SVG Version: 6.00 Build 0)  -->
<!DOCTYPE svg PUBLIC "-//W3C//DTD SVG 1.1//EN" "http://www.w3.org/Graphics/SVG/1.1/DTD/svg11.dtd">
<svg version="1.1"
	 id="svg4764" xmlns:cc="http://creativecommons.org/ns#" xmlns:svg="http://www.w3.org/2000/svg" xmlns:dc="http://purl.org/dc/elements/1.1/" xmlns:sodipodi="http://sodipodi.sourceforge.net/DTD/sodipodi-0.dtd" sodipodi:docname="marker-stroked-12.svg" inkscape:version="0.48.2 r9819" xmlns:rdf="http://www.w3.org/1999/02/22-rdf-syntax-ns#" xmlns:inkscape="http://www.inkscape.org/namespaces/inkscape"
	 xmlns="http://www.w3.org/2000/svg" xmlns:xlink="http://www.w3.org/1999/xlink" x="0px" y="0px" width="12px" height="12px"
	 viewBox="-402.5 403.5 12 12" enable-background="new -402.5 403.5 12 12" xml:space="preserve">
<sodipodi:namedview  id="base" pagecolor="#ffffff" bordercolor="#666666" inkscape:zoom="22.627417" borderopacity="1.0" inkscape:pageopacity="0.0" inkscape:pageshadow="2" inkscape:cx="5.4435686" inkscape:cy="2.8129693" inkscape:document-units="px" inkscape:current-layer="layer1" showgrid="true" showguides="true" inkscape:guide-bbox="true" inkscape:window-width="957" inkscape:window-height="704" inkscape:window-x="96" inkscape:window-y="60" inkscape:window-maximized="0">
	<inkscape:grid  type="xygrid" id="grid4772" enabled="true" empspacing="5" visible="true" snapvisiblegridlinesonly="true">
		</inkscape:grid>
	<sodipodi:guide  id="guide4789" orientation="0,1" position="2,12"></sodipodi:guide>
	<sodipodi:guide  id="guide4791" orientation="1,0" position="12,10"></sodipodi:guide>
	<sodipodi:guide  id="guide4793" orientation="0,1" position="10,0"></sodipodi:guide>
	<sodipodi:guide  id="guide4795" orientation="1,0" position="0,9"></sodipodi:guide>
	<sodipodi:guide  id="guide4797" orientation="0,1" position="5,11"></sodipodi:guide>
	<sodipodi:guide  id="guide4799" orientation="1,0" position="11,7"></sodipodi:guide>
	<sodipodi:guide  id="guide4801" orientation="0,1" position="9,2"></sodipodi:guide>
	<sodipodi:guide  id="guide4803" orientation="1,0" position="2,5"></sodipodi:guide>
</sodipodi:namedview>
<g id="layer1" transform="translate(0,-1040.3622)" inkscape:label="Layer 1" inkscape:groupmode="layer">
</g>
<g id="travel_x5F_agency">
	<path opacity="0.3" fill="#FFFFFF" stroke="#FFFFFF" stroke-width="2" stroke-miterlimit="10" d="M-394.5,407.5V406l-0.5-0.5h-3
		l-0.5,0.5v1.5h-2.5l-0.5,0.5v5l0.5,0.5h9l0.5-0.501V408l-0.5-0.5H-394.5z"/>
	<path fill="#454545" d="M-394.5,407.5V406l-0.5-0.5h-3l-0.5,0.5v1.5h-2.5l-0.5,0.5v5l0.5,0.5h9l0.5-0.501V408l-0.5-0.5H-394.5z
		 M-397.5,406.5h2v1h-2V406.5z M-399.5,408.5h1v4h-1 M-393.5,412.5h-1v-4h1V412.5z"/>
	<path display="none" fill="#454545" d="M-394.5,407.5v-2h-4v2h-3v6h10v-6H-394.5z M-397.5,406.5h2v1h-2V406.5z M-399.5,408.5h1v4
		h-1 M-393.5,412.5h-1v-4h1V412.5z"/>
	<path display="none" fill="#454545" d="M-392.5,407.5h-2v-1c0-0.553-0.448-1-1-1h-2c-0.552,0-1,0.447-1,1v1h-2
		c-0.552,0-1,0.447-1,1v4c0,0.553,0.448,1,1,1h8c0.552,0,1-0.447,1-1v-4C-391.5,407.947-391.948,407.5-392.5,407.5z M-398.5,412.5
		h-1v-4h1V412.5z M-395.5,407.5h-2v-1h2V407.5z M-393.5,412.5h-1v-4h1V412.5z"/>
</g>
</svg>
