<?xml version="1.0" encoding="UTF-8" standalone="no"?>
<!-- Generator: Adobe Illustrator 15.1.0, SVG Export Plug-In . SVG Version: 6.00 Build 0)  -->

<svg
   xmlns:dc="http://purl.org/dc/elements/1.1/"
   xmlns:cc="http://creativecommons.org/ns#"
   xmlns:rdf="http://www.w3.org/1999/02/22-rdf-syntax-ns#"
   xmlns:svg="http://www.w3.org/2000/svg"
   xmlns="http://www.w3.org/2000/svg"
   xmlns:sodipodi="http://sodipodi.sourceforge.net/DTD/sodipodi-0.dtd"
   xmlns:inkscape="http://www.inkscape.org/namespaces/inkscape"
   version="1.1"
   id="svg4764"
   sodipodi:docname="suitcase-12.svg"
   inkscape:version="0.48.2 r9819"
   x="0px"
   y="0px"
   width="12px"
   height="12px"
   viewBox="-402.5 403.5 12 12"
   enable-background="new -402.5 403.5 12 12"
   xml:space="preserve"><metadata
   id="metadata25"><rdf:RDF><cc:Work
       rdf:about=""><dc:format>image/svg+xml</dc:format><dc:type
         rdf:resource="http://purl.org/dc/dcmitype/StillImage" /></cc:Work></rdf:RDF></metadata><defs
   id="defs23">
	
	
	
	
</defs>
<sodipodi:namedview
   id="base"
   pagecolor="#ffffff"
   bordercolor="#666666"
   inkscape:zoom="45.254834"
   borderopacity="1.0"
   inkscape:pageopacity="0.0"
   inkscape:pageshadow="2"
   inkscape:cx="6.4199543"
   inkscape:cy="9.0629693"
   inkscape:document-units="px"
   inkscape:current-layer="svg4764"
   showgrid="false"
   showguides="true"
   inkscape:guide-bbox="true"
   inkscape:window-width="1474"
   inkscape:window-height="979"
   inkscape:window-x="74"
   inkscape:window-y="0"
   inkscape:window-maximized="0">
	<inkscape:grid
   type="xygrid"
   id="grid4772"
   enabled="true"
   empspacing="2"
   visible="true"
   snapvisiblegridlinesonly="true">
		</inkscape:grid>
	<sodipodi:guide
   id="guide4789"
   orientation="0,1"
   position="2,12" />
	<sodipodi:guide
   id="guide4791"
   orientation="1,0"
   position="12,10" />
	<sodipodi:guide
   id="guide4793"
   orientation="0,1"
   position="10,0" />
	<sodipodi:guide
   id="guide4795"
   orientation="1,0"
   position="0,9" />
	<sodipodi:guide
   id="guide4797"
   orientation="0,1"
   position="5,11" />
	<sodipodi:guide
   id="guide4799"
   orientation="1,0"
   position="11,7" />
	<sodipodi:guide
   id="guide4801"
   orientation="0,1"
   position="9,2" />
	<sodipodi:guide
   id="guide4803"
   orientation="1,0"
   position="2,5" />
</sodipodi:namedview>
<g
   id="layer1"
   transform="translate(0,-1040.3622)"
   inkscape:label="Layer 1"
   inkscape:groupmode="layer">
</g>
<path
   style="opacity:0.29999999999999999;fill:#ffffff;stroke:#ffffff;stroke-width:2;stroke-miterlimit:10;stroke-opacity:1;stroke-linejoin:round;stroke-linecap:round;fill-opacity:1"
   inkscape:connector-curvature="0"
   id="path15"
   d="m -393.5,406.5 0,-1.5 -0.5,-0.5 -4,0 -0.5,0.5 0,1.5 -1.5,0 -0.5,0.5 0,5 0.5,0.5 8,0 0.5,-0.501 0,-4.999 -0.5,-0.5 z"
   stroke-miterlimit="10"
   sodipodi:nodetypes="ccccccccccccccc" /><path
   style="fill:#454545"
   inkscape:connector-curvature="0"
   id="path17"
   d="m -393.5,406.5 0,-1.5 -0.5,-0.5 -4,0 -0.5,0.5 0,1.5 -1.5,0 -0.5,0.5 0,5 0.5,0.5 8,0 0.5,-0.501 0,-4.999 -0.5,-0.5 z m -4,-1 3,0 0,1 -3,0 z m -1,2 1,0 0,4 -1,0 m 5,0 -1,0 0,-4 1,0 z"
   sodipodi:nodetypes="ccccccccccccccccccccccccccccc" /><path
   style="fill:#454545;display:none"
   inkscape:connector-curvature="0"
   id="path19"
   d="m -394.5,407.5 v -2 h -4 v 2 h -3 v 6 h 10 v -6 h -3 z m -3,-1 h 2 v 1 h -2 v -1 z m -2,2 h 1 v 4 h -1 m 6,0 h -1 v -4 h 1 v 4 z"
   display="none" /><path
   style="fill:#454545;display:none"
   inkscape:connector-curvature="0"
   id="path21"
   d="m -392.5,407.5 h -2 v -1 c 0,-0.553 -0.448,-1 -1,-1 h -2 c -0.552,0 -1,0.447 -1,1 v 1 h -2 c -0.552,0 -1,0.447 -1,1 v 4 c 0,0.553 0.448,1 1,1 h 8 c 0.552,0 1,-0.447 1,-1 v -4 c 0,-0.553 -0.448,-1 -1,-1 z m -6,5 h -1 v -4 h 1 v 4 z m 3,-5 h -2 v -1 h 2 v 1 z m 2,5 h -1 v -4 h 1 v 4 z"
   display="none" />
</svg>