<?xml version="1.0" encoding="utf-8"?>
<!-- Generator: Adobe Illustrator 15.1.0, SVG Export Plug-In . SVG Version: 6.00 Build 0)  -->
<!DOCTYPE svg PUBLIC "-//W3C//DTD SVG 1.1//EN" "http://www.w3.org/Graphics/SVG/1.1/DTD/svg11.dtd">
<svg version="1.1"
	 id="svg4619" xmlns:cc="http://creativecommons.org/ns#" xmlns:svg="http://www.w3.org/2000/svg" xmlns:dc="http://purl.org/dc/elements/1.1/" xmlns:sodipodi="http://sodipodi.sourceforge.net/DTD/sodipodi-0.dtd" sodipodi:docname="maki-18-base.svg" inkscape:version="0.48.2 r9819" xmlns:rdf="http://www.w3.org/1999/02/22-rdf-syntax-ns#" xmlns:inkscape="http://www.inkscape.org/namespaces/inkscape"
	 xmlns="http://www.w3.org/2000/svg" xmlns:xlink="http://www.w3.org/1999/xlink" x="0px" y="0px" width="18px" height="18px"
	 viewBox="-402.5 403.5 18 18" enable-background="new -402.5 403.5 18 18" xml:space="preserve">
<sodipodi:namedview  id="base" pagecolor="#ffffff" bordercolor="#666666" inkscape:zoom="16" borderopacity="1.0" inkscape:pageopacity="0.0" inkscape:pageshadow="2" inkscape:cx="5.9619453" inkscape:cy="11.948034" inkscape:document-units="px" inkscape:current-layer="layer1" showgrid="true" showguides="true" inkscape:guide-bbox="true" inkscape:window-width="1008" inkscape:window-height="662" inkscape:window-x="76" inkscape:window-y="40" inkscape:window-maximized="0">
	<inkscape:grid  type="xygrid" id="grid4627" enabled="true" empspacing="5" visible="true" snapvisiblegridlinesonly="true">
		</inkscape:grid>
	<sodipodi:guide  id="guide4659" orientation="0,1" position="7,18"></sodipodi:guide>
	<sodipodi:guide  id="guide4661" orientation="1,0" position="18,9"></sodipodi:guide>
	<sodipodi:guide  id="guide4663" orientation="0,1" position="16,17"></sodipodi:guide>
	<sodipodi:guide  id="guide4665" orientation="1,0" position="17,14"></sodipodi:guide>
	<sodipodi:guide  id="guide4667" orientation="1,0" position="0,16"></sodipodi:guide>
	<sodipodi:guide  id="guide4669" orientation="0,1" position="8,0"></sodipodi:guide>
	<sodipodi:guide  id="guide4671" orientation="1,0" position="2,10"></sodipodi:guide>
	<sodipodi:guide  id="guide4673" orientation="0,1" position="12,2"></sodipodi:guide>
</sodipodi:namedview>
<g id="layer1" transform="translate(0,-1034.3622)" inkscape:label="Layer 1" inkscape:groupmode="layer">
</g>
<g id="travel_x5F_agency">
	<path opacity="0.3" fill="#FFFFFF" stroke="#FFFFFF" stroke-width="2" stroke-miterlimit="10" d="M-387.5,408.5h-3v-1
		c0-0.553-0.448-1-1-1h-4c-0.552,0-1,0.447-1,1v1h-3c-0.552,0-1,0.447-1,1v7c0,0.553,0.448,1,1,1h12c0.552,0,1-0.447,1-1v-7
		C-386.5,408.947-386.948,408.5-387.5,408.5z"/>
	<path fill="#454545" d="M-387.5,408.5h-3v-1c0-0.553-0.448-1-1-1h-4c-0.552,0-1,0.447-1,1v1h-3c-0.552,0-1,0.447-1,1v7
		c0,0.553,0.448,1,1,1h12c0.552,0,1-0.447,1-1v-7C-386.5,408.947-386.948,408.5-387.5,408.5z M-395.5,407.5h4v1h-4V407.5z
		 M-397.5,416.5h-1v-7h1V416.5z M-388.5,416.5h-1v-7h1V416.5z"/>
</g>
</svg>
