<?xml version="1.0" encoding="UTF-8" standalone="no"?>
<svg width="18px" height="18px" viewBox="0 0 18 18" version="1.1" xmlns="http://www.w3.org/2000/svg" xmlns:xlink="http://www.w3.org/1999/xlink" xmlns:sketch="http://www.bohemiancoding.com/sketch/ns">
    <!-- Generator: Sketch 3.2.2 (9983) - http://www.bohemiancoding.com/sketch -->
    <title>swimming-black-18</title>
    <desc>Created with Sketch.</desc>
    <defs></defs>
    <g id="Page-1" stroke="none" stroke-width="1" fill="none" fill-rule="evenodd" sketch:type="MSPage">
        <g id="Group" sketch:type="MSLayerGroup" transform="translate(0.000000, 2.000000)" fill="#0A0B09">
            <path d="M2,11.4895409 L2.74074074,11.4895409 L4.22222222,12.2195056 L4.96296296,12.2195056 L6.44444444,11.4895409 L7.18518519,11.4895409 L8.66666667,12.2195056 L9.40740741,12.2195056 L10.8888889,11.4895409 L11.6296296,11.4895409 L13.1111111,12.2195056 L13.8518519,12.2195056 L15.3333333,11.4895409 L16.0740741,11.4895409 L17.5555556,12.2195056 L18.2962963,12.2195056 L18.2962963,13.6794349 L17.5555556,13.6794349 L16.0740741,12.9494703 L15.3333333,12.9494703 L13.8518519,13.6794349 L13.1111111,13.6794349 L11.6296296,12.9494703 L10.8888889,12.9494703 L9.40740741,13.6794349 L8.66666667,13.6794349 L7.18518519,12.9494703 L6.44444444,12.9494703 L4.96296296,13.6794349 L4.22222222,13.6794349 L2.74074074,12.9494703 L2,12.9494703 L2,11.4895409" id="Fill-466" opacity="0.1" sketch:type="MSShapeGroup"></path>
            <path d="M6.44444444,10.0296115 L7.18518519,10.0296115 L8.66666667,10.7595762 L9.40740741,10.7595762 L10.8888889,10.0296115 L11.6296296,10.0296115 L13.1111111,10.7595762 L13.8518519,10.7595762 L14.9777778,10.204803 L11.6296296,4.91985873 L15.3333333,4.18989405 L16.8148148,3.45992937 L16.8148148,2.72996468 L15.3333333,2 L9.40740741,2.72996468 L8.66666667,3.45992937 L8.66666667,4.18989405 L10.1481481,7.10975278 L4.22222222,10.7595762 L4.96296296,10.7595762 L6.44444444,10.0296115" id="Fill-467" opacity="0.1" sketch:type="MSShapeGroup"></path>
            <path d="M18.2962963,7.47473513 C18.2962963,8.48208639 17.4666667,9.29964684 16.4444444,9.29964684 C15.4222222,9.29964684 14.5925926,8.48208639 14.5925926,7.47473513 C14.5925926,6.46738386 15.4222222,5.64982342 16.4444444,5.64982342 C17.4666667,5.64982342 18.2962963,6.46738386 18.2962963,7.47473513" id="Fill-468" opacity="0.1" sketch:type="MSShapeGroup"></path>
            <path d="M1,10.4895409 L1.74074074,10.4895409 L3.22222222,11.2195056 L3.96296296,11.2195056 L5.44444444,10.4895409 L6.18518519,10.4895409 L7.66666667,11.2195056 L8.40740741,11.2195056 L9.88888889,10.4895409 L10.6296296,10.4895409 L12.1111111,11.2195056 L12.8518519,11.2195056 L14.3333333,10.4895409 L15.0740741,10.4895409 L16.5555556,11.2195056 L17.2962963,11.2195056 L17.2962963,12.6794349 L16.5555556,12.6794349 L15.0740741,11.9494703 L14.3333333,11.9494703 L12.8518519,12.6794349 L12.1111111,12.6794349 L10.6296296,11.9494703 L9.88888889,11.9494703 L8.40740741,12.6794349 L7.66666667,12.6794349 L6.18518519,11.9494703 L5.44444444,11.9494703 L3.96296296,12.6794349 L3.22222222,12.6794349 L1.74074074,11.9494703 L1,11.9494703 L1,10.4895409" id="Fill-466" opacity="0.2" sketch:type="MSShapeGroup"></path>
            <path d="M5.44444444,9.02961152 L6.18518519,9.02961152 L7.66666667,9.7595762 L8.40740741,9.7595762 L9.88888889,9.02961152 L10.6296296,9.02961152 L12.1111111,9.7595762 L12.8518519,9.7595762 L13.9777778,9.20480304 L10.6296296,3.91985873 L14.3333333,3.18989405 L15.8148148,2.45992937 L15.8148148,1.72996468 L14.3333333,1 L8.40740741,1.72996468 L7.66666667,2.45992937 L7.66666667,3.18989405 L9.14814815,6.10975278 L3.22222222,9.7595762 L3.96296296,9.7595762 L5.44444444,9.02961152" id="Fill-467" opacity="0.2" sketch:type="MSShapeGroup"></path>
            <path d="M17.2962963,6.47473513 C17.2962963,7.48208639 16.4666667,8.29964684 15.4444444,8.29964684 C14.4222222,8.29964684 13.5925926,7.48208639 13.5925926,6.47473513 C13.5925926,5.46738386 14.4222222,4.64982342 15.4444444,4.64982342 C16.4666667,4.64982342 17.2962963,5.46738386 17.2962963,6.47473513" id="Fill-468" opacity="0.2" sketch:type="MSShapeGroup"></path>
            <path d="M0,9.48954089 L0.740740741,9.48954089 L2.22222222,10.2195056 L2.96296296,10.2195056 L4.44444444,9.48954089 L5.18518519,9.48954089 L6.66666667,10.2195056 L7.40740741,10.2195056 L8.88888889,9.48954089 L9.62962963,9.48954089 L11.1111111,10.2195056 L11.8518519,10.2195056 L13.3333333,9.48954089 L14.0740741,9.48954089 L15.5555556,10.2195056 L16.2962963,10.2195056 L16.2962963,11.6794349 L15.5555556,11.6794349 L14.0740741,10.9494703 L13.3333333,10.9494703 L11.8518519,11.6794349 L11.1111111,11.6794349 L9.62962963,10.9494703 L8.88888889,10.9494703 L7.40740741,11.6794349 L6.66666667,11.6794349 L5.18518519,10.9494703 L4.44444444,10.9494703 L2.96296296,11.6794349 L2.22222222,11.6794349 L0.740740741,10.9494703 L0,10.9494703 L0,9.48954089" id="Fill-466" sketch:type="MSShapeGroup"></path>
            <path d="M4.44444444,8.02961152 L5.18518519,8.02961152 L6.66666667,8.7595762 L7.40740741,8.7595762 L8.88888889,8.02961152 L9.62962963,8.02961152 L11.1111111,8.7595762 L11.8518519,8.7595762 L12.9777778,8.20480304 L9.62962963,2.91985873 L13.3333333,2.18989405 L14.8148148,1.45992937 L14.8148148,0.729964684 L13.3333333,0 L7.40740741,0.729964684 L6.66666667,1.45992937 L6.66666667,2.18989405 L8.14814815,5.10975278 L2.22222222,8.7595762 L2.96296296,8.7595762 L4.44444444,8.02961152" id="Fill-467" sketch:type="MSShapeGroup"></path>
            <path d="M16.2962963,5.47473513 C16.2962963,6.48208639 15.4666667,7.29964684 14.4444444,7.29964684 C13.4222222,7.29964684 12.5925926,6.48208639 12.5925926,5.47473513 C12.5925926,4.46738386 13.4222222,3.64982342 14.4444444,3.64982342 C15.4666667,3.64982342 16.2962963,4.46738386 16.2962963,5.47473513" id="Fill-468" sketch:type="MSShapeGroup"></path>
        </g>
    </g>
</svg>