<?xml version="1.0" encoding="UTF-8" standalone="no"?>
<!-- Created with Inkscape (http://www.inkscape.org/) -->

<svg
   xmlns:dc="http://purl.org/dc/elements/1.1/"
   xmlns:cc="http://creativecommons.org/ns#"
   xmlns:rdf="http://www.w3.org/1999/02/22-rdf-syntax-ns#"
   xmlns:svg="http://www.w3.org/2000/svg"
   xmlns="http://www.w3.org/2000/svg"
   xmlns:inkscape="http://www.inkscape.org/namespaces/inkscape"
   version="1.1"
   width="24"
   height="24"
   id="svg4460">
  <defs
     id="defs4462" />
  <metadata
     id="metadata4465">
    <rdf:RDF>
      <cc:Work
         rdf:about="">
        <dc:format>image/svg+xml</dc:format>
        <dc:type
           rdf:resource="http://purl.org/dc/dcmitype/StillImage" />
        <dc:title />
      </cc:Work>
    </rdf:RDF>
  </metadata>
  <g
     transform="translate(0,-1028.3622)"
     id="layer1">
    <g
       transform="translate(-474,-190)"
       id="swimming-24"
       style="display:inline">
      <g
         id="g21381" />
      <path
         d="m 489.125,1223.3622 c -0.15817,0 -0.43385,0.093 -0.5625,0.1563 l -4,1.9375 c -0.53242,0.2521 -0.72614,1.027 -0.375,1.5 l 1.21875,1.6562 -4.71875,3.6563 c 1.12895,0.229 1.9761,0.9379 2.8125,0.9375 1,5e-4 1.5,-1 3,-1 1.5,0 2,0.9995 3,1 0.4128,2e-4 0.83328,-0.1749 1.28125,-0.375 l -4.21875,-6.125 3.03125,-1.5313 c 0.60198,-0.301 0.56239,-0.8172 0.5,-1.125 -0.0591,-0.2918 -0.41903,-0.6875 -0.96875,-0.6875 z m 1.875,3 c -1.10457,0 -2,0.8954 -2,2 0,1.1046 0.89543,2 2,2 1.10457,0 2,-0.8954 2,-2 0,-1.1046 -0.89543,-2 -2,-2 z m -11,8 c -0.69406,0 -1.33976,0.4049 -2,0.625 l 0,2.0313 c 0,0 1,-0.6558 2,-0.6563 1,-5e-4 2,1 3.5,1 1.5,0 1.97352,-0.9653 3,-1 1,5e-4 1.5,1 3,1 1.5,0 2.5,-1 3.5,-1 0.70165,0 2,0.6563 2,0.6563 l 0,-2.0313 c -0.6416,-0.2468 -1.34343,-0.625 -2,-0.625 -1.5,0 -2.5,1.0005 -3.5,1 -1,-5e-4 -1.5,-1 -3,-1 -1.5,0 -2,1.0005 -3,1 -1,5e-4 -2,-1 -3.5,-1 z"
         inkscape:connector-curvature="0"
         id="path8421-9-1-0-0"
         style="opacity:0.3;color:#000000;fill:none;stroke:#ffffff;stroke-width:2;stroke-linecap:round;stroke-linejoin:round;stroke-miterlimit:4;stroke-opacity:1;stroke-dasharray:none;stroke-dashoffset:0;marker:none;visibility:visible;display:inline;overflow:visible;enable-background:accumulate" />
      <path
         d="m 489.125,1223.3622 c -0.15817,0 -0.43385,0.093 -0.5625,0.1563 l -4,1.9375 c -0.53242,0.2521 -0.72614,1.027 -0.375,1.5 l 1.21875,1.6562 -4.71875,3.6563 c 1.12895,0.229 1.9761,0.9379 2.8125,0.9375 1,5e-4 1.5,-1 3,-1 1.5,0 2,0.9995 3,1 0.4128,2e-4 0.83328,-0.1749 1.28125,-0.375 l -4.21875,-6.125 3.03125,-1.5313 c 0.60198,-0.301 0.56239,-0.8172 0.5,-1.125 -0.0591,-0.2918 -0.41903,-0.6875 -0.96875,-0.6875 z m 1.875,3 c -1.10457,0 -2,0.8954 -2,2 0,1.1046 0.89543,2 2,2 1.10457,0 2,-0.8954 2,-2 0,-1.1046 -0.89543,-2 -2,-2 z m -11,8 c -0.69406,0 -1.33976,0.4049 -2,0.625 l 0,2.0313 c 0,0 1,-0.6558 2,-0.6563 1,-5e-4 2,1 3.5,1 1.5,0 1.97352,-0.9653 3,-1 1,5e-4 1.5,1 3,1 1.5,0 2.5,-1 3.5,-1 0.70165,0 2,0.6563 2,0.6563 l 0,-2.0313 c -0.6416,-0.2468 -1.34343,-0.625 -2,-0.625 -1.5,0 -2.5,1.0005 -3.5,1 -1,-5e-4 -1.5,-1 -3,-1 -1.5,0 -2,1.0005 -3,1 -1,5e-4 -2,-1 -3.5,-1 z"
         inkscape:connector-curvature="0"
         id="path4758"
         style="color:#000000;fill:#444444;fill-opacity:1;fill-rule:nonzero;stroke:none;stroke-width:2;marker:none;visibility:visible;display:inline;overflow:visible;enable-background:accumulate" />
    </g>
  </g>
  <rect
     width="24"
     height="24"
     x="0"
     y="0"
     id="canvas"
     style="fill:none;stroke:none;visibility:hidden" />
</svg>
