<?xml version="1.0" encoding="UTF-8" standalone="no"?>
<!-- Created with Inkscape (http://www.inkscape.org/) -->

<svg
   xmlns:dc="http://purl.org/dc/elements/1.1/"
   xmlns:cc="http://creativecommons.org/ns#"
   xmlns:rdf="http://www.w3.org/1999/02/22-rdf-syntax-ns#"
   xmlns:svg="http://www.w3.org/2000/svg"
   xmlns="http://www.w3.org/2000/svg"
   xmlns:inkscape="http://www.inkscape.org/namespaces/inkscape"
   version="1.1"
   width="12"
   height="12"
   id="svg4764">
  <defs
     id="defs4766" />
  <metadata
     id="metadata4769">
    <rdf:RDF>
      <cc:Work
         rdf:about="">
        <dc:format>image/svg+xml</dc:format>
        <dc:type
           rdf:resource="http://purl.org/dc/dcmitype/StillImage" />
        <dc:title />
      </cc:Work>
    </rdf:RDF>
  </metadata>
  <g
     transform="translate(0,-1040.3622)"
     id="layer1">
    <g
       transform="translate(-516,-178)"
       id="swimming-12"
       style="display:inline">
      <g
         transform="translate(-1,-1)"
         id="g21486">
        <path
           d="m 525.5,1221.3622 -0.5,0.3038 -2.21875,1.29 c -0.26621,0.126 -0.36307,0.5134 -0.1875,0.75 l 0.60937,0.8281 -2.20312,1.8281 1,0.2344 1.5,-0.4685 1.5,0.4685 1,-0.2344 -2.21875,-2.7812 2.23437,-1.3907 -0.0156,-0.8281 z m 1,2.047 c -0.55228,0 -1,0.4477 -1,1 0,0.5522 0.44772,1 1,1 0.55228,0 1,-0.4478 1,-1 0,-0.5523 -0.44772,-1 -1,-1 z m -6,3.9531 -1.5,0.4685 0,1.0312 0.15625,-0.047 1.34375,-0.4531 1.5,0.4998 1.5,-0.4998 1.5,0.4998 1.5,-0.4998 1.5,0.5 0,-1.0312 -1.5,-0.4685 -1.5,0.4685 -1.5,-0.4685 -1.5,0.4685 -1.5,-0.4685 z"
           inkscape:connector-curvature="0"
           id="path17115"
           style="opacity:0.3;color:#000000;fill:none;stroke:#ffffff;stroke-width:2;stroke-linecap:round;stroke-linejoin:round;stroke-miterlimit:4;stroke-opacity:1;stroke-dasharray:none;stroke-dashoffset:0;marker:none;visibility:visible;display:inline;overflow:visible;enable-background:accumulate" />
        <path
           d="m 525.5,1221.3622 -0.5,0.3038 -2.21875,1.29 c -0.26621,0.126 -0.36307,0.5134 -0.1875,0.75 l 0.60937,0.8281 -2.20312,1.8281 1,0.2344 1.5,-0.4685 1.5,0.4685 1,-0.2344 -2.21875,-2.7812 2.23437,-1.3907 -0.0156,-0.8281 z m 1,2.047 c -0.55228,0 -1,0.4477 -1,1 0,0.5522 0.44772,1 1,1 0.55228,0 1,-0.4478 1,-1 0,-0.5523 -0.44772,-1 -1,-1 z m -6,3.9531 -1.5,0.4685 0,1.0312 0.15625,-0.047 1.34375,-0.4531 1.5,0.4998 1.5,-0.4998 1.5,0.4998 1.5,-0.4998 1.5,0.5 0,-1.0312 -1.5,-0.4685 -1.5,0.4685 -1.5,-0.4685 -1.5,0.4685 -1.5,-0.4685 z"
           inkscape:connector-curvature="0"
           id="path8421-9-1-0-7"
           style="color:#000000;fill:#444444;fill-opacity:1;fill-rule:nonzero;stroke:none;stroke-width:2;marker:none;visibility:visible;display:inline;overflow:visible;enable-background:accumulate" />
      </g>
    </g>
  </g>
  <rect
     width="12"
     height="12"
     x="0"
     y="0"
     id="canvas"
     style="fill:none;stroke:none;visibility:hidden" />
</svg>
