<?xml version="1.0" encoding="utf-8"?>
<!-- Generator: Adobe Illustrator 18.1.1, SVG Export Plug-In . SVG Version: 6.00 Build 0)  -->
<svg version="1.1" xmlns="http://www.w3.org/2000/svg" xmlns:xlink="http://www.w3.org/1999/xlink" x="0px" y="0px"
	 viewBox="0 0 18 18" enable-background="new 0 0 18 18" xml:space="preserve">
<g id="shadows">
	<polygon opacity="0.2" points="16.75,12.964 15.821,13.429 14.893,13.429 13.036,12.5 12.108,12.5 10.25,13.429 9.321,13.429 
		7.464,12.5 6.536,12.5 4.679,13.429 3.75,13.429 3.75,14.357 4.679,14.357 6.536,13.429 7.464,13.429 9.321,14.357 10.25,14.357 
		12.108,13.429 13.036,13.429 14.893,14.357 15.821,14.357 16.75,13.893 16.75,13.429 	"/>
	<polygon opacity="0.2" points="4.679,11.572 13.036,11.572 11.179,7.857 11.179,6.929 13.964,6 14.893,5.072 13.964,4.143 8.393,6 
		9.321,8.786 	"/>
	<path opacity="0.2" d="M15.821,8.322c0,0.769-0.624,1.392-1.392,1.392c-0.77,0-1.393-0.623-1.393-1.392
		c0-0.769,0.624-1.393,1.393-1.393C15.197,6.929,15.821,7.552,15.821,8.322"/>
</g>
<g id="icons">
	<polygon points="16,12.214 15.071,12.679 14.143,12.679 12.286,11.75 11.358,11.75 9.5,12.679 8.571,12.679 6.714,11.75 
		5.786,11.75 3.929,12.679 3,12.679 3,13.607 3.929,13.607 5.786,12.679 6.714,12.679 8.571,13.607 9.5,13.607 11.358,12.679 
		12.286,12.679 14.143,13.607 15.071,13.607 16,13.143 16,12.679 	"/>
	<polygon points="3.929,10.822 12.286,10.822 10.429,7.107 10.429,6.179 13.214,5.25 14.143,4.322 13.214,3.393 7.643,5.25 
		8.571,8.036 	"/>
	<path d="M15.071,7.572c0,0.769-0.624,1.392-1.392,1.392c-0.77,0-1.393-0.623-1.393-1.392c0-0.769,0.624-1.393,1.393-1.393
		C14.447,6.179,15.071,6.802,15.071,7.572"/>
</g>
</svg>
