<?xml version="1.0" encoding="UTF-8" standalone="no"?>
<!-- Created with Inkscape (http://www.inkscape.org/) -->

<svg
   xmlns:dc="http://purl.org/dc/elements/1.1/"
   xmlns:cc="http://creativecommons.org/ns#"
   xmlns:rdf="http://www.w3.org/1999/02/22-rdf-syntax-ns#"
   xmlns:svg="http://www.w3.org/2000/svg"
   xmlns="http://www.w3.org/2000/svg"
   xmlns:sodipodi="http://sodipodi.sourceforge.net/DTD/sodipodi-0.dtd"
   xmlns:inkscape="http://www.inkscape.org/namespaces/inkscape"
   width="24"
   height="24"
   id="svg27349"
   version="1.1"
   inkscape:version="0.48.2 r9819"
   sodipodi:docname="swimming-white-24.svg">
  <defs
     id="defs27351" />
  <sodipodi:namedview
     id="base"
     pagecolor="#ffffff"
     bordercolor="#666666"
     borderopacity="1.0"
     inkscape:pageopacity="0.0"
     inkscape:pageshadow="2"
     inkscape:zoom="8.6123905"
     inkscape:cx="11.808263"
     inkscape:cy="10.533919"
     inkscape:document-units="px"
     inkscape:current-layer="layer1"
     showgrid="false"
     inkscape:window-width="483"
     inkscape:window-height="454"
     inkscape:window-x="3648"
     inkscape:window-y="148"
     inkscape:window-maximized="0"
     gridtolerance="10">
    <inkscape:grid
       type="xygrid"
       id="grid3004"
       empspacing="5"
       visible="true"
       enabled="true"
       snapvisiblegridlinesonly="true" />
  </sodipodi:namedview>
  <metadata
     id="metadata27354">
    <rdf:RDF>
      <cc:Work
         rdf:about="">
        <dc:format>image/svg+xml</dc:format>
        <dc:type
           rdf:resource="http://purl.org/dc/dcmitype/StillImage" />
        <dc:title></dc:title>
      </cc:Work>
    </rdf:RDF>
  </metadata>
  <g
     inkscape:label="Layer 1"
     inkscape:groupmode="layer"
     id="layer1"
     transform="translate(0,-1028.3622)">
    <g
       id="g19322"
       transform="matrix(2.4279211,0,0,2.4279211,-52.634542,-542.70463)">
      <path
         d="m 30.413,656.936 c 0.652,0 1.182,-0.527 1.182,-1.18 v -7.521 c 0,-0.652 -0.529,-1.182 -1.182,-1.182 h -7.521 c -0.652,0 -1.182,0.529 -1.182,1.182 v 7.521 c 0,0.652 0.529,1.18 1.182,1.18 h 7.521 z"
         id="path19324"
         inkscape:connector-curvature="0"
         style="opacity:0;fill:#272525" />
      <g
         style="opacity:0.6;fill:none;stroke:#ffffff;stroke-width:0.5;stroke-miterlimit:4;stroke-opacity:1;stroke-dasharray:none"
         id="g19326">
        <path
           d="m 30.645,655.205 c -0.172,0 -0.336,-0.039 -0.482,-0.105 -0.15,-0.068 -0.32,-0.109 -0.498,-0.109 -0.178,0 -0.348,0.041 -0.498,0.109 -0.146,0.066 -0.311,0.105 -0.482,0.105 -0.171,0 -0.336,-0.039 -0.482,-0.105 -0.152,-0.068 -0.322,-0.109 -0.498,-0.109 -0.178,0 -0.348,0.041 -0.498,0.109 -0.146,0.066 -0.312,0.105 -0.482,0.105 -0.172,0 -0.336,-0.039 -0.484,-0.105 -0.15,-0.068 -0.32,-0.109 -0.496,-0.109 -0.178,0 -0.348,0.041 -0.498,0.109 -0.146,0.066 -0.312,0.105 -0.484,0.105 -0.17,0 -0.336,-0.039 -0.482,-0.105 -0.15,-0.068 -0.32,-0.109 -0.498,-0.109 -0.176,0 -0.346,0.041 -0.496,0.109 -0.148,0.066 -0.312,0.105 -0.484,0.105 v -0.725 c 0.172,0 0.336,-0.039 0.484,-0.104 0.15,-0.07 0.32,-0.111 0.496,-0.111 0.178,0 0.348,0.041 0.498,0.111 0.146,0.064 0.312,0.104 0.482,0.104 0.172,0 0.338,-0.039 0.484,-0.104 0.15,-0.07 0.32,-0.111 0.498,-0.111 0.176,0 0.346,0.041 0.496,0.111 0.148,0.064 0.312,0.104 0.484,0.104 0.17,0 0.336,-0.039 0.482,-0.104 0.15,-0.07 0.32,-0.111 0.498,-0.111 0.176,0 0.346,0.041 0.498,0.111 0.146,0.064 0.311,0.104 0.482,0.104 0.171,0 0.336,-0.039 0.482,-0.104 0.15,-0.07 0.32,-0.111 0.498,-0.111 0.178,0 0.348,0.041 0.498,0.111 0.146,0.064 0.311,0.104 0.482,0.104 v 0.725 z"
           id="path19328"
           inkscape:connector-curvature="0"
           style="fill:none;stroke:#ffffff;stroke-width:0.5;stroke-miterlimit:4;stroke-opacity:1;stroke-dasharray:none" />
        <path
           d="m 29.508,653.156 c 0.516,0 0.934,-0.42 0.934,-0.936 0,-0.516 -0.418,-0.934 -0.934,-0.934 -0.516,0 -0.934,0.418 -0.934,0.934 0,0.516 0.382,0.936 0.934,0.936 z"
           id="path19330"
           inkscape:connector-curvature="0"
           style="fill:none;stroke:#ffffff;stroke-width:0.5;stroke-miterlimit:4;stroke-opacity:1;stroke-dasharray:none" />
        <path
           d="m 24.073,653.682 c 0.072,0.018 0.141,0.043 0.205,0.072 0.146,0.066 0.312,0.105 0.482,0.105 0.172,0 0.338,-0.039 0.484,-0.105 0.15,-0.068 0.32,-0.111 0.498,-0.111 0.176,0 0.346,0.043 0.496,0.111 0.148,0.066 0.312,0.105 0.484,0.105 0.17,0 0.336,-0.039 0.482,-0.105 0.15,-0.068 0.32,-0.111 0.498,-0.111 0.176,0 0.346,0.043 0.498,0.111 0.146,0.066 0.311,0.105 0.482,0.105 0.125,0 0.246,-0.021 0.359,-0.057 l -1.557,-2.811 1.811,-0.33 c 0.266,-0.051 0.459,-0.26 0.459,-0.527 0,-0.295 -0.24,-0.531 -0.533,-0.531 -0.021,0 -0.041,0 -0.061,0.002 l -2.797,0.51 c -0.197,0.045 -0.457,0.332 -0.309,0.686 0.008,0.02 0.016,0.037 0.023,0.057 l 0.73,1.318 -2.734,1.506 z"
           id="path19332"
           inkscape:connector-curvature="0"
           style="fill:none;stroke:#ffffff;stroke-width:0.5;stroke-miterlimit:4;stroke-opacity:1;stroke-dasharray:none" />
      </g>
      <g
         id="g19334">
        <path
           style="fill:#272525"
           inkscape:connector-curvature="0"
           id="path19336"
           d="m 30.645,655.205 c -0.172,0 -0.336,-0.039 -0.482,-0.105 -0.15,-0.068 -0.32,-0.109 -0.498,-0.109 -0.178,0 -0.348,0.041 -0.498,0.109 -0.146,0.066 -0.311,0.105 -0.482,0.105 -0.171,0 -0.336,-0.039 -0.482,-0.105 -0.152,-0.068 -0.322,-0.109 -0.498,-0.109 -0.178,0 -0.348,0.041 -0.498,0.109 -0.146,0.066 -0.312,0.105 -0.482,0.105 -0.172,0 -0.336,-0.039 -0.484,-0.105 -0.15,-0.068 -0.32,-0.109 -0.496,-0.109 -0.178,0 -0.348,0.041 -0.498,0.109 -0.146,0.066 -0.312,0.105 -0.484,0.105 -0.17,0 -0.336,-0.039 -0.482,-0.105 -0.15,-0.068 -0.32,-0.109 -0.498,-0.109 -0.176,0 -0.346,0.041 -0.496,0.109 -0.148,0.066 -0.312,0.105 -0.484,0.105 v -0.725 c 0.172,0 0.336,-0.039 0.484,-0.104 0.15,-0.07 0.32,-0.111 0.496,-0.111 0.178,0 0.348,0.041 0.498,0.111 0.146,0.064 0.312,0.104 0.482,0.104 0.172,0 0.338,-0.039 0.484,-0.104 0.15,-0.07 0.32,-0.111 0.498,-0.111 0.176,0 0.346,0.041 0.496,0.111 0.148,0.064 0.312,0.104 0.484,0.104 0.17,0 0.336,-0.039 0.482,-0.104 0.15,-0.07 0.32,-0.111 0.498,-0.111 0.176,0 0.346,0.041 0.498,0.111 0.146,0.064 0.311,0.104 0.482,0.104 0.171,0 0.336,-0.039 0.482,-0.104 0.15,-0.07 0.32,-0.111 0.498,-0.111 0.178,0 0.348,0.041 0.498,0.111 0.146,0.064 0.311,0.104 0.482,0.104 v 0.725 z" />
        <path
           style="fill:#272525"
           inkscape:connector-curvature="0"
           id="path19338"
           d="m 29.508,653.156 c 0.516,0 0.934,-0.42 0.934,-0.936 0,-0.516 -0.418,-0.934 -0.934,-0.934 -0.516,0 -0.934,0.418 -0.934,0.934 0,0.516 0.382,0.936 0.934,0.936 z" />
        <path
           style="fill:#272525"
           inkscape:connector-curvature="0"
           id="path19340"
           d="m 24.073,653.682 c 0.072,0.018 0.141,0.043 0.205,0.072 0.146,0.066 0.312,0.105 0.482,0.105 0.172,0 0.338,-0.039 0.484,-0.105 0.15,-0.068 0.32,-0.111 0.498,-0.111 0.176,0 0.346,0.043 0.496,0.111 0.148,0.066 0.312,0.105 0.484,0.105 0.17,0 0.336,-0.039 0.482,-0.105 0.15,-0.068 0.32,-0.111 0.498,-0.111 0.176,0 0.346,0.043 0.498,0.111 0.146,0.066 0.311,0.105 0.482,0.105 0.125,0 0.246,-0.021 0.359,-0.057 l -1.557,-2.811 1.811,-0.33 c 0.266,-0.051 0.459,-0.26 0.459,-0.527 0,-0.295 -0.24,-0.531 -0.533,-0.531 -0.021,0 -0.041,0 -0.061,0.002 l -2.797,0.51 c -0.197,0.045 -0.457,0.332 -0.309,0.686 0.008,0.02 0.016,0.037 0.023,0.057 l 0.73,1.318 -2.734,1.506 z" />
      </g>
    </g>
  </g>
</svg>
