<?xml version="1.0" encoding="utf-8"?>
<!-- Generator: Adobe Illustrator 18.0.0, SVG Export Plug-In . SVG Version: 6.00 Build 0)  -->
<!DOCTYPE svg PUBLIC "-//W3C//DTD SVG 1.1//EN" "http://www.w3.org/Graphics/SVG/1.1/DTD/svg11.dtd" [
	<!ENTITY ns_flows "http://ns.adobe.com/Flows/1.0/">
	<!ENTITY ns_extend "http://ns.adobe.com/Extensibility/1.0/">
	<!ENTITY ns_ai "http://ns.adobe.com/AdobeIllustrator/10.0/">
	<!ENTITY ns_graphs "http://ns.adobe.com/Graphs/1.0/">
	<!ENTITY st0 "opacity:0.1;">
	<!ENTITY st1 "fill:#010101;">
	<!ENTITY st2 "opacity:0.2;">
]>
<svg version="1.1" id="Layer_1" xmlns:x="&ns_extend;" xmlns:i="&ns_ai;" xmlns:graph="&ns_graphs;"
	 xmlns="http://www.w3.org/2000/svg" xmlns:xlink="http://www.w3.org/1999/xlink" xmlns:a="http://ns.adobe.com/AdobeSVGViewerExtensions/3.0/"
	 x="0px" y="0px" width="24px" height="18px" viewBox="0 0 24 18" style="enable-background:new 0 0 24 18;" xml:space="preserve">
<g style="&st0;">
	<polygon style="&st1;" points="2,15 3,15 5,16 6,16 8,15 9,15 11,16 12,16 14,15 15,15 17,16 18,16 20,15 21,15 23,16 24,16 24,18 
		23,18 21,17 20,17 18,18 17,18 15,17 14,17 12,18 11,18 9,17 8,17 6,18 5,18 3,17 2,17 	"/>
	<polygon style="&st1;" points="8,13 9,13 11,14 12,14 14,13 15,13 17,14 18,14 19.5,13.2 15,6 20,5 22,4 22,3 20,2 12,3 11,4 11,5 
		13,9 5,14 6,14 	"/>
	<circle style="&st1;" cx="21.5" cy="9.5" r="2.5"/>
</g>
<g style="&st2;">
	<polygon style="&st1;" points="1,14 2,14 4,15 5,15 7,14 8,14 10,15 11,15 13,14 14,14 16,15 17,15 19,14 20,14 22,15 23,15 23,17 
		22,17 20,16 19,16 17,17 16,17 14,16 13,16 11,17 10,17 8,16 7,16 5,17 4,17 2,16 1,16 	"/>
	<polygon style="&st1;" points="7,12 8,12 10,13 11,13 13,12 14,12 16,13 17,13 18.5,12.2 14,5 19,4 21,3 21,2 19,1 11,2 10,3 10,4 
		12,8 4,13 5,13 	"/>
	<circle style="&st1;" cx="20.5" cy="8.5" r="2.5"/>
</g>
<g>
	<polygon style="&st1;" points="0,13 1,13 3,14 4,14 6,13 7,13 9,14 10,14 12,13 13,13 15,14 16,14 18,13 19,13 21,14 22,14 22,16 
		21,16 19,15 18,15 16,16 15,16 13,15 12,15 10,16 9,16 7,15 6,15 4,16 3,16 1,15 0,15 	"/>
	<polygon style="&st1;" points="6,11 7,11 9,12 10,12 12,11 13,11 15,12 16,12 17.5,11.2 13,4 18,3 20,2 20,1 18,0 10,1 9,2 9,3 
		11,7 3,12 4,12 	"/>
	<circle style="&st1;" cx="19.5" cy="7.5" r="2.5"/>
</g>
</svg>
