<?xml version="1.0" encoding="utf-8"?>
<!-- Generator: Adobe Illustrator 18.1.1, SVG Export Plug-In . SVG Version: 6.00 Build 0)  -->
<svg version="1.1" xmlns="http://www.w3.org/2000/svg" xmlns:xlink="http://www.w3.org/1999/xlink" x="0px" y="0px"
	 viewBox="0 0 12 12" enable-background="new 0 0 12 12" xml:space="preserve">
<g id="shadows">
	<g opacity="0.2">
		<polygon points="11.5,8.571 10.857,8.893 10.214,8.893 8.929,8.25 8.286,8.25 7,8.893 6.357,8.893 5.071,8.25 4.429,8.25 
			3.143,8.893 2.5,8.893 2.5,9.536 3.143,9.536 4.429,8.893 5.071,8.893 6.357,9.536 7,9.536 8.286,8.893 8.929,8.893 10.214,9.536 
			10.857,9.536 11.5,9.214 11.5,8.893 		"/>
		<polygon points="3.143,7.607 8.929,7.607 7.643,5.036 7.643,4.393 9.571,3.75 10.214,3.107 9.571,2.464 5.714,3.75 6.357,5.679 		
			"/>
		<path d="M10.857,5.357c0,0.532-0.432,0.964-0.964,0.964c-0.533,0-0.964-0.432-0.964-0.964c0-0.533,0.432-0.964,0.964-0.964
			C10.425,4.393,10.857,4.825,10.857,5.357"/>
		<rect x="2.5" y="2.464" fill="none" width="9" height="7.071"/>
	</g>
</g>
<g id="icons">
	<polygon fill="#FFFFFF" points="11,8.071 10.356,8.393 9.714,8.393 8.428,7.75 7.786,7.75 6.5,8.393 5.857,8.393 4.571,7.75 
		3.929,7.75 2.643,8.393 2,8.393 2,9.036 2.643,9.036 3.929,8.393 4.571,8.393 5.857,9.036 6.5,9.036 7.786,8.393 8.428,8.393 
		9.714,9.036 10.356,9.036 11,8.714 11,8.393 	"/>
	<polygon fill="#FFFFFF" points="2.643,7.107 8.428,7.107 7.143,4.536 7.143,3.893 9.071,3.25 9.714,2.607 9.071,1.964 5.214,3.25 
		5.857,5.179 	"/>
	<path fill="#FFFFFF" d="M10.356,4.857c0,0.532-0.432,0.964-0.964,0.964c-0.533,0-0.964-0.432-0.964-0.964
		c0-0.533,0.432-0.964,0.964-0.964C9.924,3.893,10.356,4.325,10.356,4.857"/>
</g>
</svg>
