<?xml version="1.0" encoding="UTF-8" standalone="no"?>
<svg width="12px" height="12px" viewBox="0 0 12 12" version="1.1" xmlns="http://www.w3.org/2000/svg" xmlns:xlink="http://www.w3.org/1999/xlink" xmlns:sketch="http://www.bohemiancoding.com/sketch/ns">
    <!-- Generator: Sketch 3.2.2 (9983) - http://www.bohemiancoding.com/sketch -->
    <title>swimming-black-12</title>
    <desc>Created with Sketch.</desc>
    <defs></defs>
    <g id="Page-1" stroke="none" stroke-width="1" fill="none" fill-rule="evenodd" sketch:type="MSPage">
        <g id="Fill-469-+-Fill-470-+-Fill-471" sketch:type="MSLayerGroup" transform="translate(2.000000, 2.000000)" fill-opacity="0.1" fill="#0A0B09">
            <path d="M10.0164,7.23256835 L9.31051765,7.58766477 L8.60463529,7.58766477 L7.19287059,6.87747193 L6.48698824,6.87747193 L5.07522353,7.58766477 L4.36934118,7.58766477 L2.95757647,6.87747193 L2.25169412,6.87747193 L0.839929412,7.58766477 L0.134047059,7.58766477 L0.134047059,8.2978576 L0.839929412,8.2978576 L2.25169412,7.58766477 L2.95757647,7.58766477 L4.36934118,8.2978576 L5.07522353,8.2978576 L6.48698824,7.58766477 L7.19287059,7.58766477 L8.60463529,8.2978576 L9.31051765,8.2978576 L10.0164,7.94276118 L10.0164,7.58766477 L10.0164,7.23256835" id="Fill-469" sketch:type="MSShapeGroup"></path>
            <path d="M0.839929412,6.16727909 L7.19287059,6.16727909 L5.78110588,3.32650774 L5.78110588,2.6163149 L7.89875294,1.90612207 L8.60463529,1.19592923 L7.89875294,0.485736391 L3.66345882,1.90612207 L4.36934118,4.03670058 L0.839929412,6.16727909" id="Fill-470" sketch:type="MSShapeGroup"></path>
            <path d="M9.31051765,3.68160416 C9.31051765,4.27106421 8.83757647,4.74689342 8.25169412,4.74689342 C7.66581176,4.74689342 7.19287059,4.27106421 7.19287059,3.68160416 C7.19287059,3.0921441 7.66581176,2.6163149 8.25169412,2.6163149 C8.83757647,2.6163149 9.31051765,3.0921441 9.31051765,3.68160416" id="Fill-471" sketch:type="MSShapeGroup"></path>
        </g>
        <g id="Fill-469-+-Fill-470-+-Fill-471" sketch:type="MSLayerGroup" transform="translate(1.000000, 1.000000)" fill="#0A0B09" opacity="0.2">
            <path d="M10.0164,7.23256835 L9.31051765,7.58766477 L8.60463529,7.58766477 L7.19287059,6.87747193 L6.48698824,6.87747193 L5.07522353,7.58766477 L4.36934118,7.58766477 L2.95757647,6.87747193 L2.25169412,6.87747193 L0.839929412,7.58766477 L0.134047059,7.58766477 L0.134047059,8.2978576 L0.839929412,8.2978576 L2.25169412,7.58766477 L2.95757647,7.58766477 L4.36934118,8.2978576 L5.07522353,8.2978576 L6.48698824,7.58766477 L7.19287059,7.58766477 L8.60463529,8.2978576 L9.31051765,8.2978576 L10.0164,7.94276118 L10.0164,7.58766477 L10.0164,7.23256835" id="Fill-469" sketch:type="MSShapeGroup"></path>
            <path d="M0.839929412,6.16727909 L7.19287059,6.16727909 L5.78110588,3.32650774 L5.78110588,2.6163149 L7.89875294,1.90612207 L8.60463529,1.19592923 L7.89875294,0.485736391 L3.66345882,1.90612207 L4.36934118,4.03670058 L0.839929412,6.16727909" id="Fill-470" sketch:type="MSShapeGroup"></path>
            <path d="M9.31051765,3.68160416 C9.31051765,4.27106421 8.83757647,4.74689342 8.25169412,4.74689342 C7.66581176,4.74689342 7.19287059,4.27106421 7.19287059,3.68160416 C7.19287059,3.0921441 7.66581176,2.6163149 8.25169412,2.6163149 C8.83757647,2.6163149 9.31051765,3.0921441 9.31051765,3.68160416" id="Fill-471" sketch:type="MSShapeGroup"></path>
        </g>
        <g id="Fill-469-+-Fill-470-+-Fill-471" sketch:type="MSLayerGroup" fill="#0A0B09">
            <path d="M10.0164,7.23256835 L9.31051765,7.58766477 L8.60463529,7.58766477 L7.19287059,6.87747193 L6.48698824,6.87747193 L5.07522353,7.58766477 L4.36934118,7.58766477 L2.95757647,6.87747193 L2.25169412,6.87747193 L0.839929412,7.58766477 L0.134047059,7.58766477 L0.134047059,8.2978576 L0.839929412,8.2978576 L2.25169412,7.58766477 L2.95757647,7.58766477 L4.36934118,8.2978576 L5.07522353,8.2978576 L6.48698824,7.58766477 L7.19287059,7.58766477 L8.60463529,8.2978576 L9.31051765,8.2978576 L10.0164,7.94276118 L10.0164,7.58766477 L10.0164,7.23256835" id="Fill-469" sketch:type="MSShapeGroup"></path>
            <path d="M0.839929412,6.16727909 L7.19287059,6.16727909 L5.78110588,3.32650774 L5.78110588,2.6163149 L7.89875294,1.90612207 L8.60463529,1.19592923 L7.89875294,0.485736391 L3.66345882,1.90612207 L4.36934118,4.03670058 L0.839929412,6.16727909" id="Fill-470" sketch:type="MSShapeGroup"></path>
            <path d="M9.31051765,3.68160416 C9.31051765,4.27106421 8.83757647,4.74689342 8.25169412,4.74689342 C7.66581176,4.74689342 7.19287059,4.27106421 7.19287059,3.68160416 C7.19287059,3.0921441 7.66581176,2.6163149 8.25169412,2.6163149 C8.83757647,2.6163149 9.31051765,3.0921441 9.31051765,3.68160416" id="Fill-471" sketch:type="MSShapeGroup"></path>
        </g>
    </g>
</svg>