<?xml version="1.0" encoding="utf-8"?>
<!-- Generator: Adobe Illustrator 18.1.1, SVG Export Plug-In . SVG Version: 6.00 Build 0)  -->
<svg version="1.1" xmlns="http://www.w3.org/2000/svg" xmlns:xlink="http://www.w3.org/1999/xlink" x="0px" y="0px"
	 viewBox="0 0 24 24" enable-background="new 0 0 24 24" xml:space="preserve">
<g id="shadows">
	<g opacity="0.2">
		<polygon points="5,16.364 5.773,16.364 7.318,17.137 8.091,17.137 9.636,16.364 10.409,16.364 11.954,17.137 12.727,17.137 
			14.273,16.364 15.045,16.364 16.591,17.137 17.364,17.137 18.909,16.364 19.682,16.364 21.227,17.137 22,17.137 22,18.682 
			21.227,18.682 19.682,17.909 18.909,17.909 17.364,18.682 16.591,18.682 15.045,17.909 14.273,17.909 12.727,18.682 
			11.954,18.682 10.409,17.909 9.636,17.909 8.091,18.682 7.318,18.682 5.773,17.909 5,17.909 		"/>
		<polygon points="9.636,14.818 10.409,14.818 11.954,15.591 12.727,15.591 14.273,14.818 15.045,14.818 16.591,15.591 
			17.364,15.591 18.541,15.002 15.045,9.409 18.909,8.637 20.455,7.864 20.455,7.091 18.909,6.318 12.727,7.091 11.954,7.864 
			11.954,8.637 13.5,11.727 7.318,15.591 8.091,15.591 		"/>
		<path d="M22,12.114c0,1.067-0.865,1.932-1.932,1.932c-1.068,0-1.932-0.865-1.932-1.932s0.864-1.932,1.932-1.932
			C21.135,10.182,22,11.047,22,12.114"/>
		<rect x="5" y="6.318" fill="none" width="17" height="12.364"/>
	</g>
</g>
<g id="icons">
	<polygon fill="#FFFFFF" points="4,15.364 4.773,15.364 6.318,16.137 7.091,16.137 8.636,15.364 9.409,15.364 10.954,16.137 
		11.727,16.137 13.273,15.364 14.045,15.364 15.591,16.137 16.364,16.137 17.909,15.364 18.682,15.364 20.227,16.137 21,16.137 
		21,17.682 20.227,17.682 18.682,16.909 17.909,16.909 16.364,17.682 15.591,17.682 14.045,16.909 13.273,16.909 11.727,17.682 
		10.954,17.682 9.409,16.909 8.636,16.909 7.091,17.682 6.318,17.682 4.773,16.909 4,16.909 	"/>
	<polygon fill="#FFFFFF" points="8.636,13.818 9.409,13.818 10.954,14.591 11.727,14.591 13.273,13.818 14.045,13.818 
		15.591,14.591 16.364,14.591 17.541,14.002 14.045,8.409 17.909,7.637 19.455,6.864 19.455,6.091 17.909,5.318 11.727,6.091 
		10.954,6.864 10.954,7.637 12.5,10.727 6.318,14.591 7.091,14.591 	"/>
	<path fill="#FFFFFF" d="M21,11.114c0,1.067-0.865,1.932-1.932,1.932c-1.068,0-1.932-0.865-1.932-1.932s0.864-1.932,1.932-1.932
		C20.135,9.182,21,10.047,21,11.114"/>
</g>
</svg>
