<?xml version="1.0" encoding="utf-8"?>
<!-- Generator: Adobe Illustrator 18.1.1, SVG Export Plug-In . SVG Version: 6.00 Build 0)  -->
<svg version="1.1" xmlns="http://www.w3.org/2000/svg" xmlns:xlink="http://www.w3.org/1999/xlink" x="0px" y="0px"
	 viewBox="0 0 12 12" enable-background="new 0 0 12 12" xml:space="preserve">
<g id="shadows">
	<g opacity="0.2">
		<polygon points="10.5,8.571 9.857,8.893 9.214,8.893 7.929,8.25 7.286,8.25 6,8.893 5.357,8.893 4.071,8.25 3.429,8.25 
			2.143,8.893 1.5,8.893 1.5,9.536 2.143,9.536 3.429,8.893 4.071,8.893 5.357,9.536 6,9.536 7.286,8.893 7.929,8.893 9.214,9.536 
			9.857,9.536 10.5,9.214 10.5,8.893 		"/>
		<polygon points="2.143,7.607 7.929,7.607 6.643,5.036 6.643,4.393 8.571,3.75 9.214,3.107 8.571,2.464 4.714,3.75 5.357,5.679 		
			"/>
		<path d="M9.857,5.357c0,0.532-0.432,0.964-0.964,0.964c-0.533,0-0.964-0.432-0.964-0.964c0-0.533,0.432-0.964,0.964-0.964
			C9.425,4.393,9.857,4.825,9.857,5.357"/>
		<rect x="1.5" y="2.464" fill="none" width="9" height="7.071"/>
	</g>
</g>
<g id="icons">
	<polygon fill="#FFFFFF" points="10,8.071 9.356,8.393 8.714,8.393 7.428,7.75 6.786,7.75 5.5,8.393 4.857,8.393 3.571,7.75 
		2.929,7.75 1.643,8.393 1,8.393 1,9.036 1.643,9.036 2.929,8.393 3.571,8.393 4.857,9.036 5.5,9.036 6.786,8.393 7.428,8.393 
		8.714,9.036 9.356,9.036 10,8.714 10,8.393 	"/>
	<polygon fill="#FFFFFF" points="1.643,7.107 7.428,7.107 6.143,4.536 6.143,3.893 8.071,3.25 8.714,2.607 8.071,1.964 4.214,3.25 
		4.857,5.179 	"/>
	<path fill="#FFFFFF" d="M9.356,4.857c0,0.532-0.432,0.964-0.964,0.964c-0.533,0-0.964-0.432-0.964-0.964
		c0-0.533,0.432-0.964,0.964-0.964C8.924,3.893,9.356,4.325,9.356,4.857"/>
</g>
</svg>
