<?xml version="1.0" encoding="UTF-8" standalone="no"?>
<svg width="18px" height="18px" viewBox="0 0 18 18" version="1.1" xmlns="http://www.w3.org/2000/svg" xmlns:xlink="http://www.w3.org/1999/xlink" xmlns:sketch="http://www.bohemiancoding.com/sketch/ns">
    <!-- Generator: Sketch 3.2.2 (9983) - http://www.bohemiancoding.com/sketch -->
    <title>telephone-black-18</title>
    <desc>Created with Sketch.</desc>
    <defs></defs>
    <g id="Page-1" stroke="none" stroke-width="1" fill="none" fill-rule="evenodd" sketch:type="MSPage">
        <g id="Fill-472-+-Fill-473-+-Fill-474" sketch:type="MSLayerGroup" transform="translate(6.000000, 2.000000)" fill="#0A0B09" opacity="0.1">
            <path d="M4.40740741,0.0437381146 C3.64444444,0.12403423 0.785185185,1.38687313 0.703703704,7.86165988 C0.622222222,14.67953 3.62962963,16.1175604 4.40740741,16.1029612 L4.40740741,11.7231731 C3.77037037,11.7231731 3.58518519,10.9494105 3.43703704,9.533279 C3.34074074,8.59892421 3.31111111,7.76676447 3.43703704,6.61342027 C3.52592593,5.81045911 3.74074074,4.42352622 4.40740741,4.42352622 L4.40740741,0.0437381146" id="Fill-472" sketch:type="MSShapeGroup"></path>
            <path d="M5.14814815,0.0437381146 L6.62962963,0.0437381146 L7.37037037,0.773702798 L7.37037037,3.69356153 L6.62962963,4.42352622 L5.14814815,4.42352622 L5.14814815,0.0437381146" id="Fill-473" sketch:type="MSShapeGroup"></path>
            <path d="M5.14814815,11.7231731 L6.62962963,11.7231731 L7.37037037,12.4531377 L7.37037037,15.3729965 L6.62962963,16.1029612 L5.14814815,16.1029612 L5.14814815,11.7231731" id="Fill-474" sketch:type="MSShapeGroup"></path>
        </g>
        <g id="Fill-472-+-Fill-473-+-Fill-474" sketch:type="MSLayerGroup" transform="translate(5.000000, 1.000000)" fill="#0A0B09" opacity="0.2">
            <path d="M4.40740741,0.0437381146 C3.64444444,0.12403423 0.785185185,1.38687313 0.703703704,7.86165988 C0.622222222,14.67953 3.62962963,16.1175604 4.40740741,16.1029612 L4.40740741,11.7231731 C3.77037037,11.7231731 3.58518519,10.9494105 3.43703704,9.533279 C3.34074074,8.59892421 3.31111111,7.76676447 3.43703704,6.61342027 C3.52592593,5.81045911 3.74074074,4.42352622 4.40740741,4.42352622 L4.40740741,0.0437381146" id="Fill-472" sketch:type="MSShapeGroup"></path>
            <path d="M5.14814815,0.0437381146 L6.62962963,0.0437381146 L7.37037037,0.773702798 L7.37037037,3.69356153 L6.62962963,4.42352622 L5.14814815,4.42352622 L5.14814815,0.0437381146" id="Fill-473" sketch:type="MSShapeGroup"></path>
            <path d="M5.14814815,11.7231731 L6.62962963,11.7231731 L7.37037037,12.4531377 L7.37037037,15.3729965 L6.62962963,16.1029612 L5.14814815,16.1029612 L5.14814815,11.7231731" id="Fill-474" sketch:type="MSShapeGroup"></path>
        </g>
        <g id="Fill-472-+-Fill-473-+-Fill-474" sketch:type="MSLayerGroup" transform="translate(4.000000, 0.000000)" fill="#0A0B09">
            <path d="M4.40740741,0.0437381146 C3.64444444,0.12403423 0.785185185,1.38687313 0.703703704,7.86165988 C0.622222222,14.67953 3.62962963,16.1175604 4.40740741,16.1029612 L4.40740741,11.7231731 C3.77037037,11.7231731 3.58518519,10.9494105 3.43703704,9.533279 C3.34074074,8.59892421 3.31111111,7.76676447 3.43703704,6.61342027 C3.52592593,5.81045911 3.74074074,4.42352622 4.40740741,4.42352622 L4.40740741,0.0437381146" id="Fill-472" sketch:type="MSShapeGroup"></path>
            <path d="M5.14814815,0.0437381146 L6.62962963,0.0437381146 L7.37037037,0.773702798 L7.37037037,3.69356153 L6.62962963,4.42352622 L5.14814815,4.42352622 L5.14814815,0.0437381146" id="Fill-473" sketch:type="MSShapeGroup"></path>
            <path d="M5.14814815,11.7231731 L6.62962963,11.7231731 L7.37037037,12.4531377 L7.37037037,15.3729965 L6.62962963,16.1029612 L5.14814815,16.1029612 L5.14814815,11.7231731" id="Fill-474" sketch:type="MSShapeGroup"></path>
        </g>
    </g>
</svg>