<?xml version="1.0" encoding="UTF-8" standalone="no"?>
<svg width="12px" height="12px" viewBox="0 0 12 12" version="1.1" xmlns="http://www.w3.org/2000/svg" xmlns:xlink="http://www.w3.org/1999/xlink" xmlns:sketch="http://www.bohemiancoding.com/sketch/ns">
    <!-- Generator: Sketch 3.2.2 (9983) - http://www.bohemiancoding.com/sketch -->
    <title>telephone-black-12</title>
    <desc>Created with Sketch.</desc>
    <defs></defs>
    <g id="Page-1" stroke="none" stroke-width="1" fill="none" fill-rule="evenodd" sketch:type="MSPage">
        <g id="Fill-478-+-Fill-479-+-Fill-480-+-Fill-478-+-Fill-479-+-Fill-480-+-Fill-478-+-Fill-479-+-Fill-480" sketch:type="MSLayerGroup" transform="translate(3.000000, -0.500000)" fill="#0A0B09">
            <g id="Fill-478-+-Fill-479-+-Fill-480" transform="translate(2.000000, 2.000000)" fill-opacity="0.1" sketch:type="MSShapeGroup">
                <path d="M2.25169412,0.485736391 C1.78581176,0.53544989 0.183458824,1.31666201 0.134047059,5.32214961 C0.134047059,9.54069507 1.77875294,10.435538 2.25169412,10.4284361 L2.25169412,7.58766477 C1.86345882,7.58766477 1.75051765,7.23967028 1.65875294,6.36613309 C1.60228235,5.78377496 1.58816471,5.26533419 1.65875294,4.55514135 C1.71522353,4.05800636 1.84934118,3.32650774 2.25169412,3.32650774 L2.25169412,0.485736391" id="Fill-478"></path>
                <path d="M2.95757647,7.58766477 L3.66345882,7.58766477 L4.36934118,8.2978576 L4.36934118,9.71824328 L3.66345882,10.4284361 L2.95757647,10.4284361 L2.95757647,7.58766477" id="Fill-479"></path>
                <path d="M2.95757647,0.485736391 L3.66345882,0.485736391 L4.36934118,1.19592923 L4.36934118,2.6163149 L3.66345882,3.32650774 L2.95757647,3.32650774 L2.95757647,0.485736391" id="Fill-480"></path>
            </g>
            <g id="Fill-478-+-Fill-479-+-Fill-480" transform="translate(1.000000, 1.000000)" fill-opacity="0.2" sketch:type="MSShapeGroup">
                <path d="M2.25169412,0.485736391 C1.78581176,0.53544989 0.183458824,1.31666201 0.134047059,5.32214961 C0.134047059,9.54069507 1.77875294,10.435538 2.25169412,10.4284361 L2.25169412,7.58766477 C1.86345882,7.58766477 1.75051765,7.23967028 1.65875294,6.36613309 C1.60228235,5.78377496 1.58816471,5.26533419 1.65875294,4.55514135 C1.71522353,4.05800636 1.84934118,3.32650774 2.25169412,3.32650774 L2.25169412,0.485736391" id="Fill-478"></path>
                <path d="M2.95757647,7.58766477 L3.66345882,7.58766477 L4.36934118,8.2978576 L4.36934118,9.71824328 L3.66345882,10.4284361 L2.95757647,10.4284361 L2.95757647,7.58766477" id="Fill-479"></path>
                <path d="M2.95757647,0.485736391 L3.66345882,0.485736391 L4.36934118,1.19592923 L4.36934118,2.6163149 L3.66345882,3.32650774 L2.95757647,3.32650774 L2.95757647,0.485736391" id="Fill-480"></path>
            </g>
            <g id="Fill-478-+-Fill-479-+-Fill-480" sketch:type="MSShapeGroup">
                <path d="M2.25169412,0.485736391 C1.78581176,0.53544989 0.183458824,1.31666201 0.134047059,5.32214961 C0.134047059,9.54069507 1.77875294,10.435538 2.25169412,10.4284361 L2.25169412,7.58766477 C1.86345882,7.58766477 1.75051765,7.23967028 1.65875294,6.36613309 C1.60228235,5.78377496 1.58816471,5.26533419 1.65875294,4.55514135 C1.71522353,4.05800636 1.84934118,3.32650774 2.25169412,3.32650774 L2.25169412,0.485736391" id="Fill-478"></path>
                <path d="M2.95757647,7.58766477 L3.66345882,7.58766477 L4.36934118,8.2978576 L4.36934118,9.71824328 L3.66345882,10.4284361 L2.95757647,10.4284361 L2.95757647,7.58766477" id="Fill-479"></path>
                <path d="M2.95757647,0.485736391 L3.66345882,0.485736391 L4.36934118,1.19592923 L4.36934118,2.6163149 L3.66345882,3.32650774 L2.95757647,3.32650774 L2.95757647,0.485736391" id="Fill-480"></path>
            </g>
        </g>
    </g>
</svg>