<?xml version="1.0" encoding="utf-8"?>
<!-- Generator: Adobe Illustrator 18.1.1, SVG Export Plug-In . SVG Version: 6.00 Build 0)  -->
<svg version="1.1" xmlns="http://www.w3.org/2000/svg" xmlns:xlink="http://www.w3.org/1999/xlink" x="0px" y="0px"
	 viewBox="0 0 12 12" enable-background="new 0 0 12 12" xml:space="preserve">
<g id="shadows">
	<g opacity="0.2">
		<path d="M6,1.5C5.578,1.546,4.117,2.252,4.071,5.878c0,3.817,1.501,4.628,1.929,4.621V7.929c-0.353,0-0.455-0.318-0.538-1.11
			c-0.051-0.525-0.067-0.992,0-1.638C5.513,4.73,5.63,4.071,6,4.071V1.5z"/>
		<polygon points="6.643,7.929 7.286,7.929 7.929,8.571 7.929,9.856 7.286,10.499 6.643,10.499 		"/>
		<polygon points="6.643,1.5 7.286,1.5 7.929,2.144 7.929,3.429 7.286,4.071 6.643,4.071 		"/>
		<rect x="4.071" y="1.5" fill="none" width="3.857" height="8.999"/>
	</g>
</g>
<g id="icons">
	<path fill="#FFFFFF" d="M5.5,1C5.078,1.046,3.617,1.752,3.571,5.378c0,3.817,1.501,4.628,1.929,4.621V7.429
		c-0.353,0-0.455-0.318-0.538-1.11c-0.051-0.525-0.067-0.992,0-1.638C5.013,4.23,5.13,3.571,5.5,3.571V1z"/>
	<polygon fill="#FFFFFF" points="6.143,7.429 6.786,7.429 7.429,8.071 7.429,9.356 6.786,9.999 6.143,9.999 	"/>
	<polygon fill="#FFFFFF" points="6.143,1 6.786,1 7.429,1.644 7.429,2.929 6.786,3.571 6.143,3.571 	"/>
</g>
</svg>
