<?xml version="1.0" encoding="UTF-8" standalone="no"?>
<!-- Created with Inkscape (http://www.inkscape.org/) -->

<svg
   xmlns:dc="http://purl.org/dc/elements/1.1/"
   xmlns:cc="http://creativecommons.org/ns#"
   xmlns:rdf="http://www.w3.org/1999/02/22-rdf-syntax-ns#"
   xmlns:svg="http://www.w3.org/2000/svg"
   xmlns="http://www.w3.org/2000/svg"
   xmlns:inkscape="http://www.inkscape.org/namespaces/inkscape"
   version="1.1"
   width="18"
   height="18"
   id="svg4619">
  <defs
     id="defs4621" />
  <metadata
     id="metadata4624">
    <rdf:RDF>
      <cc:Work
         rdf:about="">
        <dc:format>image/svg+xml</dc:format>
        <dc:type
           rdf:resource="http://purl.org/dc/dcmitype/StillImage" />
        <dc:title />
      </cc:Work>
    </rdf:RDF>
  </metadata>
  <g
     transform="translate(0,-1034.3622)"
     id="layer1">
    <g
       transform="matrix(0.75000125,0,0,0.75000125,-240.0004,48.588889)"
       id="telephone-18"
       style="display:inline">
      <path
         d="m 472.5,267 -8.5,8.5 0,2.5 1.3125,1.3125 3,-3 -0.8125,-0.8125 5,-5 0.8125,0.8125 3,-3 L 475,267 l -2.5,0 z m 4.1875,1.6875 -3,3 L 474,272 l 1,0 2,-2 0,-1 -0.3125,-0.3125 z m -8,8 -3,3 L 466,280 l 1,0 2,-2 0,-1 -0.3125,-0.3125 z"
         inkscape:connector-curvature="0"
         transform="matrix(1.3333311,0,0,1.3333311,-295.99897,961.02948)"
         id="path5972"
         style="opacity:0.3;color:#000000;fill:none;stroke:#ffffff;stroke-width:2;stroke-linecap:round;stroke-linejoin:round;stroke-miterlimit:4;stroke-opacity:1;stroke-dasharray:none;stroke-dashoffset:0;marker:none;visibility:visible;display:inline;overflow:visible;enable-background:accumulate" />
      <path
         d="m 472.5,267 -8.5,8.5 0,2.5 1.3125,1.3125 3,-3 -0.8125,-0.8125 5,-5 0.8125,0.8125 3,-3 L 475,267 l -2.5,0 z m 4.1875,1.6875 -3,3 L 474,272 l 1,0 2,-2 0,-1 -0.3125,-0.3125 z m -8,8 -3,3 L 466,280 l 1,0 2,-2 0,-1 -0.3125,-0.3125 z"
         inkscape:connector-curvature="0"
         transform="matrix(1.3333311,0,0,1.3333311,-295.99897,961.02948)"
         id="path5849"
         style="color:#000000;fill:#444444;fill-opacity:1;stroke:none;stroke-width:1;marker:none;visibility:visible;display:inline;overflow:visible;enable-background:accumulate" />
    </g>
  </g>
  <rect
     width="18"
     height="18"
     x="0"
     y="0"
     id="canvas"
     style="fill:none;stroke:none;visibility:hidden" />
</svg>
