<?xml version="1.0" encoding="UTF-8" standalone="no"?>
<!-- Created with Inkscape (http://www.inkscape.org/) -->

<svg
   xmlns:dc="http://purl.org/dc/elements/1.1/"
   xmlns:cc="http://creativecommons.org/ns#"
   xmlns:rdf="http://www.w3.org/1999/02/22-rdf-syntax-ns#"
   xmlns:svg="http://www.w3.org/2000/svg"
   xmlns="http://www.w3.org/2000/svg"
   xmlns:sodipodi="http://sodipodi.sourceforge.net/DTD/sodipodi-0.dtd"
   xmlns:inkscape="http://www.inkscape.org/namespaces/inkscape"
   width="18"
   height="18"
   id="svg27435"
   version="1.1"
   inkscape:version="0.48.2 r9819"
   sodipodi:docname="telephone-black-18.svg">
  <defs
     id="defs27437" />
  <sodipodi:namedview
     id="base"
     pagecolor="#ffa6ff"
     bordercolor="#666666"
     borderopacity="1.0"
     inkscape:pageopacity="0"
     inkscape:pageshadow="2"
     inkscape:zoom="7.9891803"
     inkscape:cx="12.590799"
     inkscape:cy="8.9588378"
     inkscape:document-units="px"
     inkscape:current-layer="layer1"
     showgrid="false"
     inkscape:window-width="483"
     inkscape:window-height="454"
     inkscape:window-x="3161"
     inkscape:window-y="149"
     inkscape:window-maximized="0">
    <inkscape:grid
       type="xygrid"
       id="grid2986" />
  </sodipodi:namedview>
  <metadata
     id="metadata27440">
    <rdf:RDF>
      <cc:Work
         rdf:about="">
        <dc:format>image/svg+xml</dc:format>
        <dc:type
           rdf:resource="http://purl.org/dc/dcmitype/StillImage" />
        <dc:title></dc:title>
      </cc:Work>
    </rdf:RDF>
  </metadata>
  <g
     inkscape:label="Layer 1"
     inkscape:groupmode="layer"
     id="layer1"
     transform="translate(0,-1034.3622)">
    <g
       id="g20172"
       transform="matrix(1.8985339,0,0,1.8985339,142.38324,-289.6021)">
      <path
         style="opacity:0;fill:#ffffff"
         inkscape:connector-curvature="0"
         d="m -74.011,697.355 c -0.54,0 -0.979,0.439 -0.979,0.98 v 7.521 c 0,0.541 0.439,0.98 0.979,0.98 h 7.523 c 0.54,0 0.979,-0.439 0.979,-0.98 v -7.521 c 0,-0.541 -0.439,-0.98 -0.979,-0.98 h -7.523 z"
         id="path20174" />
      <g
         id="g20176"
         style="opacity:0.6;fill:none;stroke:#1b1b1c;stroke-width:0.5;stroke-miterlimit:4;stroke-opacity:1;stroke-dasharray:none">
        <path
           style="fill:none;stroke:#1b1b1c;stroke-width:0.5;stroke-miterlimit:4;stroke-opacity:1;stroke-dasharray:none"
           inkscape:connector-curvature="0"
           d="m -70.425,697.908 c -0.398,0.043 -1.848,0.707 -1.891,4.123 -0.045,3.6 1.492,4.357 1.895,4.35 v -2.377 c -0.332,0 -0.398,-0.361 -0.475,-1.107 -0.049,-0.494 -0.064,-1.104 0,-1.711 0.047,-0.426 0.125,-0.842 0.473,-0.842 l -0.002,-2.436 z"
           id="path20178" />
        <path
           style="fill:none;stroke:#1b1b1c;stroke-width:0.5;stroke-miterlimit:4;stroke-opacity:1;stroke-dasharray:none"
           inkscape:connector-curvature="0"
           d="m -69.326,706.384 c 0.154,0 0.264,-0.125 0.264,-0.266 l 0.002,-0.002 c 0,0 -0.002,-1.852 -0.002,-1.854 0,-0.146 -0.119,-0.262 -0.264,-0.262 H -70 v 2.383 c 0,0 0.672,0.002 0.672,0 h 0.002 z"
           id="path20180" />
        <path
           style="fill:none;stroke:#1b1b1c;stroke-width:0.5;stroke-miterlimit:4;stroke-opacity:1;stroke-dasharray:none"
           inkscape:connector-curvature="0"
           d="m -69.326,700.343 c 0.154,0 0.264,-0.125 0.264,-0.266 h 0.002 c 0,0 -0.002,-1.906 -0.002,-1.908 0,-0.146 -0.119,-0.262 -0.264,-0.262 H -70 v 2.436 l 0.672,0.002 0.002,-0.002 z"
           id="path20182" />
      </g>
      <g
         id="g20184">
        <path
           id="path20186"
           d="m -70.425,697.908 c -0.398,0.043 -1.848,0.707 -1.891,4.123 -0.045,3.6 1.492,4.357 1.895,4.35 v -2.377 c -0.332,0 -0.398,-0.361 -0.475,-1.107 -0.049,-0.494 -0.064,-1.104 0,-1.711 0.047,-0.426 0.125,-0.842 0.473,-0.842 l -0.002,-2.436 z"
           inkscape:connector-curvature="0"
           style="fill:#ffffff" />
        <path
           id="path20188"
           d="m -69.326,706.384 c 0.154,0 0.264,-0.125 0.264,-0.266 l 0.002,-0.002 c 0,0 -0.002,-1.852 -0.002,-1.854 0,-0.146 -0.119,-0.262 -0.264,-0.262 H -70 v 2.383 c 0,0 0.672,0.002 0.672,0 h 0.002 z"
           inkscape:connector-curvature="0"
           style="fill:#ffffff" />
        <path
           id="path20190"
           d="m -69.326,700.343 c 0.154,0 0.264,-0.125 0.264,-0.266 h 0.002 c 0,0 -0.002,-1.906 -0.002,-1.908 0,-0.146 -0.119,-0.262 -0.264,-0.262 H -70 v 2.436 l 0.672,0.002 0.002,-0.002 z"
           inkscape:connector-curvature="0"
           style="fill:#ffffff" />
      </g>
    </g>
  </g>
</svg>
