<?xml version="1.0" encoding="UTF-8" standalone="no"?>
<!-- Created with Inkscape (http://www.inkscape.org/) -->

<svg
   xmlns:dc="http://purl.org/dc/elements/1.1/"
   xmlns:cc="http://creativecommons.org/ns#"
   xmlns:rdf="http://www.w3.org/1999/02/22-rdf-syntax-ns#"
   xmlns:svg="http://www.w3.org/2000/svg"
   xmlns="http://www.w3.org/2000/svg"
   xmlns:inkscape="http://www.inkscape.org/namespaces/inkscape"
   version="1.1"
   width="24"
   height="24"
   id="svg4460">
  <defs
     id="defs4462" />
  <metadata
     id="metadata4465">
    <rdf:RDF>
      <cc:Work
         rdf:about="">
        <dc:format>image/svg+xml</dc:format>
        <dc:type
           rdf:resource="http://purl.org/dc/dcmitype/StillImage" />
        <dc:title />
      </cc:Work>
    </rdf:RDF>
  </metadata>
  <g
     transform="translate(0,-1028.3622)"
     id="layer1">
    <g
       transform="translate(-320,-286)"
       id="telephone-24"
       style="display:inline">
      <path
         d="m 336,1318.3622 c -1,0 -1.32629,0.3263 -2,1 l -8,8 c -0.5,0.5 -1,1 -1,2 0,0.8333 0,1 0,1.5 0,1 0.5,1.5 1,2 l 0.5625,0.5625 3.5,-3.5 -0.5625,-0.5625 c -0.50009,-0.5 0,-1 0,-1 l 5.5,-5.5 c 0,0 0.5,-0.5 1,0 l 0.5625,0.5625 3.5,-3.5 c 0,0 -0.375,-0.375 -0.5625,-0.5625 -0.5,-0.5 -1,-1 -2,-1 -0.5,0 -1.5,0 -1.5,0 z m 4.4375,1.9375 -3.5,3.5 0.5625,0.5625 c 0.35356,0.3535 1.14645,0.3536 1.5,0 l 2,-2 c 0.35359,-0.3537 0.35357,-1.1465 0,-1.5 z m -10,10 -3.5,3.5 0.5625,0.5625 c 0.35362,0.3537 1.1464,0.3534 1.5,0 l 2,-2 c 0.35372,-0.3536 0.35352,-1.1466 0,-1.5 z"
         inkscape:connector-curvature="0"
         id="path5953"
         style="opacity:0.3;color:#000000;fill:none;stroke:#ffffff;stroke-width:2;stroke-linecap:round;stroke-linejoin:round;stroke-miterlimit:4;stroke-opacity:1;stroke-dasharray:none;stroke-dashoffset:0;marker:none;visibility:visible;display:inline;overflow:visible;enable-background:accumulate" />
      <path
         d="m 336,1318.3622 c -1,0 -1.32629,0.3263 -2,1 l -8,8 c -0.5,0.5 -1,1 -1,2 0,0.8333 0,1 0,1.5 0,1 0.5,1.5 1,2 l 0.5625,0.5625 3.5,-3.5 -0.5625,-0.5625 c -0.50009,-0.5 0,-1 0,-1 l 5.5,-5.5 c 0,0 0.5,-0.5 1,0 l 0.5625,0.5625 3.5,-3.5 c 0,0 -0.375,-0.375 -0.5625,-0.5625 -0.5,-0.5 -1,-1 -2,-1 -0.5,0 -1.5,0 -1.5,0 z m 4.4375,1.9375 -3.5,3.5 0.5625,0.5625 c 0.35356,0.3535 1.14645,0.3536 1.5,0 l 2,-2 c 0.35359,-0.3537 0.35357,-1.1465 0,-1.5 z m -10,10 -3.5,3.5 0.5625,0.5625 c 0.35362,0.3537 1.1464,0.3534 1.5,0 l 2,-2 c 0.35372,-0.3536 0.35352,-1.1466 0,-1.5 z"
         inkscape:connector-curvature="0"
         id="path5722"
         style="color:#000000;fill:#444444;fill-opacity:1;stroke:none;stroke-width:1;marker:none;visibility:visible;display:inline;overflow:visible;enable-background:accumulate" />
    </g>
  </g>
  <rect
     width="24"
     height="24"
     x="0"
     y="0"
     id="canvas"
     style="fill:none;stroke:none;visibility:hidden" />
</svg>
