<?xml version="1.0" encoding="utf-8"?>
<!-- Generator: Adobe Illustrator 18.1.1, SVG Export Plug-In . SVG Version: 6.00 Build 0)  -->
<svg version="1.1" xmlns="http://www.w3.org/2000/svg" xmlns:xlink="http://www.w3.org/1999/xlink" x="0px" y="0px"
	 viewBox="0 0 24 24" enable-background="new 0 0 24 24" xml:space="preserve">
<g id="shadows">
	<g opacity="0.2">
		<path d="M13.886,4c-0.798,0.087-3.776,1.419-3.862,8.271c-0.09,7.22,3.053,8.743,3.862,8.729v-4.636
			c-0.666,0-0.859-0.823-1.014-2.318c-0.098-0.991-0.128-1.873,0-3.091c0.094-0.855,0.316-2.318,1.014-2.318V4z"/>
		<polygon points="14.659,4 16.205,4 16.977,4.773 16.977,7.863 16.205,8.637 14.659,8.637 		"/>
		<polygon points="14.659,16.364 16.205,16.364 16.977,17.137 16.977,20.227 16.205,21 14.659,21 		"/>
		<rect x="10.023" y="4" fill="none" width="6.954" height="17"/>
	</g>
</g>
<g id="icons">
	<path fill="#FFFFFF" d="M12.886,3c-0.798,0.087-3.776,1.419-3.862,8.271c-0.09,7.22,3.053,8.743,3.862,8.729v-4.637
		c-0.666,0-0.859-0.822-1.014-2.318c-0.098-0.991-0.128-1.873,0-3.091c0.094-0.855,0.316-2.318,1.014-2.318V3z"/>
	<polygon fill="#FFFFFF" points="13.659,3 15.205,3 15.977,3.773 15.977,6.863 15.205,7.636 13.659,7.636 	"/>
	<polygon fill="#FFFFFF" points="13.659,15.363 15.205,15.363 15.977,16.137 15.977,19.227 15.205,20 13.659,20 	"/>
</g>
</svg>
