<?xml version="1.0" encoding="UTF-8" standalone="no"?>
<!-- Created with Inkscape (http://www.inkscape.org/) -->

<svg
   xmlns:dc="http://purl.org/dc/elements/1.1/"
   xmlns:cc="http://creativecommons.org/ns#"
   xmlns:rdf="http://www.w3.org/1999/02/22-rdf-syntax-ns#"
   xmlns:svg="http://www.w3.org/2000/svg"
   xmlns="http://www.w3.org/2000/svg"
   xmlns:inkscape="http://www.inkscape.org/namespaces/inkscape"
   version="1.1"
   width="18"
   height="18"
   id="svg4619">
  <defs
     id="defs4621" />
  <metadata
     id="metadata4624">
    <rdf:RDF>
      <cc:Work
         rdf:about="">
        <dc:format>image/svg+xml</dc:format>
        <dc:type
           rdf:resource="http://purl.org/dc/dcmitype/StillImage" />
        <dc:title />
      </cc:Work>
    </rdf:RDF>
  </metadata>
  <g
     transform="translate(0,-1034.3622)"
     id="layer1">
    <g
       transform="translate(-498,-88)"
       id="tennis-18"
       style="display:inline">
      <g
         id="g21418">
        <path
           d="m 505.5,1124.3622 c -2.53402,0 -4.5,1.966 -4.5,4.5 0,2.534 2.14246,4.4984 4.67648,4.5 l 3.32352,0 4,4 1,0 0,-1 -4,-4 0,-3.3236 c 0,-2.534 -1.96599,-4.6764 -4.5,-4.6764 z m 3.5,5.7058 0,2.2942 -2.5,0 z m -6.85294,3.2942 c -0.63351,0 -1.14706,0.5135 -1.14706,1.147 0,0.6335 0.51355,1.1471 1.14706,1.1471 0.6335,0 1.14706,-0.5136 1.14706,-1.1471 0,-0.6335 -0.51356,-1.147 -1.14706,-1.147 z"
           inkscape:connector-curvature="0"
           id="path20015"
           style="opacity:0.3;color:#000000;fill:#ffffff;fill-opacity:1;fill-rule:nonzero;stroke:#ffffff;stroke-width:2;stroke-linecap:butt;stroke-linejoin:miter;stroke-miterlimit:4;stroke-opacity:1;stroke-dasharray:none;stroke-dashoffset:0;marker:none;visibility:visible;display:inline;overflow:visible;enable-background:accumulate" />
        <path
           d="m 505.5,1124.3622 c -2.53402,0 -4.5,1.966 -4.5,4.5 0,2.534 2.14246,4.4984 4.67648,4.5 l 3.32352,0 4,4 1,0 0,-1 -4,-4 0,-3.3236 c 0,-2.534 -1.96599,-4.6764 -4.5,-4.6764 z m 3.5,5.7058 0,2.2942 -2.5,0 z m -6.85294,3.2942 c -0.63351,0 -1.14706,0.5135 -1.14706,1.147 0,0.6335 0.51355,1.1471 1.14706,1.1471 0.6335,0 1.14706,-0.5136 1.14706,-1.1471 0,-0.6335 -0.51356,-1.147 -1.14706,-1.147 z"
           inkscape:connector-curvature="0"
           id="path11507-7"
           style="color:#000000;fill:#444444;fill-opacity:1;fill-rule:nonzero;stroke:none;stroke-width:2;marker:none;visibility:visible;display:inline;overflow:visible;enable-background:accumulate" />
      </g>
    </g>
  </g>
  <rect
     width="18"
     height="18"
     x="0"
     y="0"
     id="canvas"
     style="fill:none;stroke:none;visibility:hidden" />
</svg>
