<?xml version="1.0" encoding="UTF-8" standalone="no"?>
<!-- Created with Inkscape (http://www.inkscape.org/) -->

<svg
   xmlns:dc="http://purl.org/dc/elements/1.1/"
   xmlns:cc="http://creativecommons.org/ns#"
   xmlns:rdf="http://www.w3.org/1999/02/22-rdf-syntax-ns#"
   xmlns:svg="http://www.w3.org/2000/svg"
   xmlns="http://www.w3.org/2000/svg"
   xmlns:inkscape="http://www.inkscape.org/namespaces/inkscape"
   version="1.1"
   width="12"
   height="12"
   id="svg4764">
  <defs
     id="defs4766" />
  <metadata
     id="metadata4769">
    <rdf:RDF>
      <cc:Work
         rdf:about="">
        <dc:format>image/svg+xml</dc:format>
        <dc:type
           rdf:resource="http://purl.org/dc/dcmitype/StillImage" />
        <dc:title />
      </cc:Work>
    </rdf:RDF>
  </metadata>
  <g
     transform="translate(0,-1040.3622)"
     id="layer1">
    <g
       transform="translate(-516,-82)"
       id="tennis-12"
       style="display:inline">
      <g
         transform="translate(-1,-1)"
         id="g21470">
        <path
           d="m 519.00003,1127.3621 c 0,1.6569 1.34314,3 3,3 l 2.5,0 2.99997,3.0001 0.5,0 -3e-5,-0.4999 -2.99997,-3.0001 0,-2.5 c 0,-1.6569 -1.34315,-3 -2.99999,-3 -1.65684,-10e-5 -2.99998,1.343 -2.99998,2.9999 z m 4.99997,0.5001 0,1.5 -1.5,0 z m -4.24997,3 c -0.41422,0 -0.75,0.3358 -0.75,0.75 0,0.4142 0.33578,0.75 0.75,0.75 0.41421,0 0.75,-0.3358 0.75,-0.75 0,-0.4142 -0.33579,-0.75 -0.75,-0.75 z"
           inkscape:connector-curvature="0"
           id="path20013"
           style="opacity:0.3;color:#000000;fill:#ffffff;fill-opacity:1;fill-rule:nonzero;stroke:#ffffff;stroke-width:2;stroke-linecap:butt;stroke-linejoin:miter;stroke-miterlimit:4;stroke-opacity:1;stroke-dasharray:none;stroke-dashoffset:0;marker:none;visibility:visible;display:inline;overflow:visible;enable-background:accumulate" />
        <path
           d="m 519.00003,1127.3621 c 0,1.6569 1.34314,3 3,3 l 2.5,0 2.99997,3.0001 0.5,0 -3e-5,-0.4999 -2.99997,-3.0001 0,-2.5 c 0,-1.6569 -1.34315,-3 -2.99999,-3 -1.65684,-10e-5 -2.99998,1.343 -2.99998,2.9999 z m 4.99997,0.5001 0,1.5 -1.5,0 z m -4.24997,3 c -0.41422,0 -0.75,0.3358 -0.75,0.75 0,0.4142 0.33578,0.75 0.75,0.75 0.41421,0 0.75,-0.3358 0.75,-0.75 0,-0.4142 -0.33579,-0.75 -0.75,-0.75 z"
           inkscape:connector-curvature="0"
           id="path11507-3"
           style="color:#000000;fill:#444444;fill-opacity:1;fill-rule:nonzero;stroke:none;stroke-width:2;marker:none;visibility:visible;display:inline;overflow:visible;enable-background:accumulate" />
      </g>
    </g>
  </g>
  <rect
     width="12"
     height="12"
     x="0"
     y="0"
     id="canvas"
     style="fill:none;stroke:none;visibility:hidden" />
</svg>
