<?xml version="1.0" encoding="UTF-8" standalone="no"?>
<!-- Created with Inkscape (http://www.inkscape.org/) -->

<svg
   xmlns:dc="http://purl.org/dc/elements/1.1/"
   xmlns:cc="http://creativecommons.org/ns#"
   xmlns:rdf="http://www.w3.org/1999/02/22-rdf-syntax-ns#"
   xmlns:svg="http://www.w3.org/2000/svg"
   xmlns="http://www.w3.org/2000/svg"
   version="1.1"
   width="24"
   height="24"
   id="svg4460">
  <defs
     id="defs4462" />
  <metadata
     id="metadata4465">
    <rdf:RDF>
      <cc:Work
         rdf:about="">
        <dc:format>image/svg+xml</dc:format>
        <dc:type
           rdf:resource="http://purl.org/dc/dcmitype/StillImage" />
        <dc:title></dc:title>
      </cc:Work>
    </rdf:RDF>
  </metadata>
  <path
     d="M 12.5,3 5,8 20,8 z M 6,9 C 5.44599,9 5,9.446 5,10 l 0,7 -1.75,3 C 3.10166,20.2543 3,20.3567 3,20.5 3,21 3.63165,21 4,21 l 17,0 c 0.35499,0 1,0 1,-0.5 0,-0.1462 -0.0866,-0.2199 -0.25,-0.5 L 20,17 20,10 C 20,9.446 19.55401,9 19,9 z m 2,2 c 0.554,0 0.90892,0.4535 1,1 l 0,6 -2,0 0,-2 0,-4 c 0,-0.554 0.446,-1 1,-1 z m 4.5,0 c 0.554,0 1.00866,0.4461 1,1 l 0,4 0,2 -2,0 0,-2 0,-4 c 0,-0.554 0.446,-1 1,-1 z m 4.5,0 c 0.554,0 1,0.446 1,1 l 0,6 -2,0 0,-2 0,-4 c 0,-0.554 0.446,-1 1,-1 z"
     id="path16283"
     style="opacity:0.3;color:#000000;fill:none;stroke:#ffffff;stroke-width:2;stroke-linecap:round;stroke-linejoin:round;stroke-miterlimit:4;stroke-opacity:1;stroke-dasharray:none;marker:none;visibility:visible;display:inline;overflow:visible;enable-background:accumulate" />
  <path
     d="M 12.5,3 5,8 20,8 z M 6,9 C 5.44599,9 5,9.446 5,10 l 0,7 -1.75,3 C 3.10166,20.2543 3,20.3567 3,20.5 3,21 3.63165,21 4,21 l 17,0 c 0.35499,0 1,0 1,-0.5 0,-0.1462 -0.0866,-0.2199 -0.25,-0.5 L 20,17 20,10 C 20,9.446 19.55401,9 19,9 z m 2,2 c 0.554,0 0.90892,0.4535 1,1 l 0,6 -2,0 0,-2 0,-4 c 0,-0.554 0.446,-1 1,-1 z m 4.5,0 c 0.554,0 1.00866,0.4461 1,1 l 0,4 0,2 -2,0 0,-2 0,-4 c 0,-0.554 0.446,-1 1,-1 z m 4.5,0 c 0.554,0 1,0.446 1,1 l 0,6 -2,0 0,-2 0,-4 c 0,-0.554 0.446,-1 1,-1 z"
     id="rect7645-6"
     style="color:#000000;fill:#444444;fill-opacity:1;fill-rule:nonzero;stroke:none;stroke-width:1;marker:none;visibility:visible;display:inline;overflow:visible;enable-background:accumulate" />
  <rect
     width="24"
     height="24"
     x="0"
     y="0"
     id="canvas"
     style="fill:none;stroke:none;visibility:hidden" />
</svg>
