<?xml version="1.0" encoding="UTF-8" standalone="no"?>
<!-- Created with Inkscape (http://www.inkscape.org/) -->

<svg
   xmlns:dc="http://purl.org/dc/elements/1.1/"
   xmlns:cc="http://creativecommons.org/ns#"
   xmlns:rdf="http://www.w3.org/1999/02/22-rdf-syntax-ns#"
   xmlns:svg="http://www.w3.org/2000/svg"
   xmlns="http://www.w3.org/2000/svg"
   xmlns:inkscape="http://www.inkscape.org/namespaces/inkscape"
   version="1.1"
   width="18"
   height="18"
   id="svg4619">
  <defs
     id="defs4621" />
  <metadata
     id="metadata4624">
    <rdf:RDF>
      <cc:Work
         rdf:about="">
        <dc:format>image/svg+xml</dc:format>
        <dc:type
           rdf:resource="http://purl.org/dc/dcmitype/StillImage" />
        <dc:title />
      </cc:Work>
    </rdf:RDF>
  </metadata>
  <g
     transform="translate(0,-1034.3622)"
     id="layer1">
    <g
       transform="translate(-654,-255.99998)"
       id="town-18"
       style="display:inline">
      <path
         d="m 660,1293.3622 -3,2 0,7 2,0 0,-2 2,0 0,2 2,0 0,-7 z m 4,4 0,7 2,0 0,-2 2,0 0,2 2,0 0,-7 -3,-2 z m -6,-1 1,0 0,1 -1,0 z m 3,0 1,0 0,1 -1,0 z m 4,2 1,0 0,1 -1,0 z m 3,0 1,0 0,1 -1,0 z m -10,0 1,0 0,1 -1,0 z m 3,0 1,0 0,1 -1,0 z m 4,2 1,0 0,1 -1,0 z m 3,0 1,0 0,1 -1,0 z"
         inkscape:connector-curvature="0"
         id="path9067"
         style="opacity:0.3;color:#000000;fill:#ffffff;fill-opacity:1;fill-rule:nonzero;stroke:#ffffff;stroke-width:2;stroke-linecap:round;stroke-linejoin:round;stroke-miterlimit:4;stroke-opacity:1;stroke-dasharray:none;stroke-dashoffset:0;marker:none;visibility:visible;display:inline;overflow:visible;enable-background:accumulate" />
      <path
         d="m 660,1293.3622 -3,2 0,7 2,0 0,-2 2,0 0,2 2,0 0,-7 z m 4,4 0,7 2,0 0,-2 2,0 0,2 2,0 0,-7 -3,-2 z m -6,-1 1,0 0,1 -1,0 z m 3,0 1,0 0,1 -1,0 z m 4,2 1,0 0,1 -1,0 z m 3,0 1,0 0,1 -1,0 z m -10,0 1,0 0,1 -1,0 z m 3,0 1,0 0,1 -1,0 z m 4,2 1,0 0,1 -1,0 z m 3,0 1,0 0,1 -1,0 z"
         inkscape:connector-curvature="0"
         id="path8773-1"
         style="color:#000000;fill:#444444;fill-opacity:1;fill-rule:nonzero;stroke:none;stroke-width:0.46545455;marker:none;visibility:visible;display:inline;overflow:visible;enable-background:accumulate" />
    </g>
  </g>
  <rect
     width="18"
     height="18"
     x="0"
     y="0"
     id="canvas"
     style="fill:none;stroke:none;visibility:hidden" />
</svg>
