<?xml version="1.0" encoding="UTF-8" standalone="no"?>
<!-- Created with Inkscape (http://www.inkscape.org/) -->

<svg
   xmlns:dc="http://purl.org/dc/elements/1.1/"
   xmlns:cc="http://creativecommons.org/ns#"
   xmlns:rdf="http://www.w3.org/1999/02/22-rdf-syntax-ns#"
   xmlns:svg="http://www.w3.org/2000/svg"
   xmlns="http://www.w3.org/2000/svg"
   version="1.1"
   width="12"
   height="12"
   id="svg4764">
  <defs
     id="defs4766" />
  <metadata
     id="metadata4769">
    <rdf:RDF>
      <cc:Work
         rdf:about="">
        <dc:format>image/svg+xml</dc:format>
        <dc:type
           rdf:resource="http://purl.org/dc/dcmitype/StillImage" />
        <dc:title></dc:title>
      </cc:Work>
    </rdf:RDF>
  </metadata>
  <path
     d="M 6.5,1 3,3 10,3 z m -3,3 C 3.22299,4 3,4.223 3,4.5 L 3,8 3,9 2,10 11,10 10,9 10,8 10,4.5 C 10,4.223 9.777,4 9.5,4 z M 4,5.5 4.5,5 5,5.5 5,8 4,8 z M 6,5.5 6.5,5 7,5.5 7,8 6,8 z M 8,5.5 8.5,5 9,5.5 9,8 8,8 z"
     id="path17477"
     style="opacity:0.3;color:#000000;fill:none;stroke:#ffffff;stroke-width:2;stroke-linecap:round;stroke-linejoin:round;stroke-miterlimit:4;stroke-opacity:1;stroke-dasharray:none;marker:none;visibility:visible;display:inline;overflow:visible;enable-background:accumulate" />
  <path
     d="M 6.5,1 3,3 10,3 z m -3,3 C 3.22299,4 3,4.223 3,4.5 L 3,8 3,9 2,10 11,10 10,9 10,8 10,4.5 C 10,4.223 9.777,4 9.5,4 z M 4,5.5 4.5,5 5,5.5 5,8 4,8 z M 6,5.5 6.5,5 7,5.5 7,8 6,8 z M 8,5.5 8.5,5 9,5.5 9,8 8,8 z"
     id="rect7645-6-5-0-0-5"
     style="color:#000000;fill:#444444;fill-opacity:1;fill-rule:nonzero;stroke:none;stroke-width:1;marker:none;visibility:visible;display:inline;overflow:visible;enable-background:accumulate" />
  <rect
     width="12"
     height="12"
     x="0"
     y="0"
     id="canvas"
     style="fill:none;stroke:none;visibility:hidden" />
</svg>
