<?xml version="1.0" encoding="UTF-8" standalone="no"?>
<!-- Created with Inkscape (http://www.inkscape.org/) -->

<svg
   xmlns:dc="http://purl.org/dc/elements/1.1/"
   xmlns:cc="http://creativecommons.org/ns#"
   xmlns:rdf="http://www.w3.org/1999/02/22-rdf-syntax-ns#"
   xmlns:svg="http://www.w3.org/2000/svg"
   xmlns="http://www.w3.org/2000/svg"
   xmlns:inkscape="http://www.inkscape.org/namespaces/inkscape"
   version="1.1"
   width="18"
   height="18"
   id="svg4619">
  <defs
     id="defs4621" />
  <metadata
     id="metadata4624">
    <rdf:RDF>
      <cc:Work
         rdf:about="">
        <dc:format>image/svg+xml</dc:format>
        <dc:type
           rdf:resource="http://purl.org/dc/dcmitype/StillImage" />
        <dc:title />
      </cc:Work>
    </rdf:RDF>
  </metadata>
  <g
     transform="translate(0,-1034.3622)"
     id="layer1">
    <g
       transform="translate(-420,-64)"
       id="town-hall-18"
       style="display:inline">
      <g
         transform="translate(0,-2)"
         id="g21522">
        <path
           d="m 435,1105.3622 -5.5,-3 -5.5,3 0,1.9375 0,5.0625 -1,2.5 c 0,0.3611 0.23397,0.5 0.5,0.5 l 12,0 c 0.25638,0 0.5,-0.1389 0.5,-0.5 l -1,-2.5 0,-5.0625 z"
           inkscape:connector-curvature="0"
           id="path14474"
           style="opacity:0.3;color:#000000;fill:#ffffff;fill-opacity:1;fill-rule:nonzero;stroke:#ffffff;stroke-width:2;stroke-linecap:round;stroke-linejoin:round;stroke-miterlimit:4;stroke-opacity:1;stroke-dasharray:none;stroke-dashoffset:0;marker:none;visibility:visible;display:inline;overflow:visible;enable-background:accumulate" />
        <path
           d="m 429.5,1102.3622 -5.5,3 11,0 z m -4.5,4 c -0.5,0 -1,0.493 -1,0.9375 l 0,5.0625 -1,2.5 c 0,0.3611 0.23397,0.5 0.5,0.5 l 12,0 c 0.25638,0 0.5,-0.1389 0.5,-0.5 l -1,-2.5 0,-5.0625 c 0,-0.4445 -0.5,-0.9375 -1,-0.9375 z m 1.5,1 0.5,0.5 0,1.5 0,3 -1,0 0,-3 0,-1.5 z m 3,0 0.5,0.5 0,1.5 0,3 -1,0 0,-3 0,-1.5 z m 3,0 0.5,0.5 0,1.5 0,3 -1,0 0,-3 0,-1.5 z"
           inkscape:connector-curvature="0"
           id="rect7645-6-5-0-1-2"
           style="color:#000000;fill:#444444;fill-opacity:1;fill-rule:nonzero;stroke:none;stroke-width:1;marker:none;visibility:visible;display:inline;overflow:visible;enable-background:accumulate" />
      </g>
    </g>
  </g>
  <rect
     width="18"
     height="18"
     x="0"
     y="0"
     id="canvas"
     style="fill:none;stroke:none;visibility:hidden" />
</svg>
