<?xml version="1.0" encoding="UTF-8" standalone="no"?>
<!-- Created with Inkscape (http://www.inkscape.org/) -->

<svg
   xmlns:dc="http://purl.org/dc/elements/1.1/"
   xmlns:cc="http://creativecommons.org/ns#"
   xmlns:rdf="http://www.w3.org/1999/02/22-rdf-syntax-ns#"
   xmlns:svg="http://www.w3.org/2000/svg"
   xmlns="http://www.w3.org/2000/svg"
   xmlns:inkscape="http://www.inkscape.org/namespaces/inkscape"
   version="1.1"
   width="24"
   height="24"
   id="svg4460">
  <defs
     id="defs4462" />
  <metadata
     id="metadata4465">
    <rdf:RDF>
      <cc:Work
         rdf:about="">
        <dc:format>image/svg+xml</dc:format>
        <dc:type
           rdf:resource="http://purl.org/dc/dcmitype/StillImage" />
        <dc:title />
      </cc:Work>
    </rdf:RDF>
  </metadata>
  <g
     transform="translate(0,-1028.3622)"
     id="layer1">
    <g
       transform="translate(-396,-70)"
       id="town-hall-24"
       style="display:inline">
      <g
         id="g16706">
        <path
           d="m 416,1106.3622 -7.5,-5 -7.5,5 0,2 0,7 -1.75,3 c -0.14834,0.2543 -0.25,0.3567 -0.25,0.5 0,0.5 0.63165,0.5 1,0.5 l 17,0 c 0.35499,0 1,0 1,-0.5 0,-0.1462 -0.0866,-0.2199 -0.25,-0.5 l -1.75,-3 0,-7 z m -12,3 c 0.554,0 0.90892,0.4535 1,1 l 0,6 -2,0 0,-2 0,-4 c 0,-0.554 0.446,-1 1,-1 z m 4.5,0 c 0.554,0 1.00866,0.4461 1,1 l 0,4 0,2 -2,0 0,-2 0,-4 c 0,-0.554 0.446,-1 1,-1 z m 4.5,0 c 0.554,0 1,0.446 1,1 l 0,6 -2,0 0,-2 0,-4 c 0,-0.554 0.446,-1 1,-1 z"
           inkscape:connector-curvature="0"
           id="path5854"
           style="opacity:0.3;color:#000000;fill:#ffffff;fill-opacity:1;fill-rule:nonzero;stroke:#ffffff;stroke-width:2;stroke-linecap:round;stroke-linejoin:round;stroke-miterlimit:4;stroke-opacity:1;stroke-dasharray:none;stroke-dashoffset:0;marker:none;visibility:visible;display:inline;overflow:visible;enable-background:accumulate" />
        <path
           d="m 408.5,1101.3622 -7.5,5 15,0 z m -6.5,6 c -0.55401,0 -1,0.446 -1,1 l 0,7 -1.75,3 c -0.14834,0.2543 -0.25,0.3567 -0.25,0.5 0,0.5 0.63165,0.5 1,0.5 l 17,0 c 0.35499,0 1,0 1,-0.5 0,-0.1462 -0.0866,-0.2199 -0.25,-0.5 l -1.75,-3 0,-7 c 0,-0.554 -0.44599,-1 -1,-1 z m 2,2 c 0.554,0 0.90892,0.4535 1,1 l 0,6 -2,0 0,-2 0,-4 c 0,-0.554 0.446,-1 1,-1 z m 4.5,0 c 0.554,0 1.00866,0.4461 1,1 l 0,4 0,2 -2,0 0,-2 0,-4 c 0,-0.554 0.446,-1 1,-1 z m 4.5,0 c 0.554,0 1,0.446 1,1 l 0,6 -2,0 0,-2 0,-4 c 0,-0.554 0.446,-1 1,-1 z"
           inkscape:connector-curvature="0"
           id="rect7645-6"
           style="color:#000000;fill:#444444;fill-opacity:1;fill-rule:nonzero;stroke:none;stroke-width:1;marker:none;visibility:visible;display:inline;overflow:visible;enable-background:accumulate" />
      </g>
    </g>
  </g>
  <rect
     width="24"
     height="24"
     x="0"
     y="0"
     id="canvas"
     style="fill:none;stroke:none;visibility:hidden" />
</svg>
