<?xml version="1.0" encoding="UTF-8" standalone="no"?>
<!-- Created with Inkscape (http://www.inkscape.org/) -->

<svg
   xmlns:dc="http://purl.org/dc/elements/1.1/"
   xmlns:cc="http://creativecommons.org/ns#"
   xmlns:rdf="http://www.w3.org/1999/02/22-rdf-syntax-ns#"
   xmlns:svg="http://www.w3.org/2000/svg"
   xmlns="http://www.w3.org/2000/svg"
   version="1.1"
   width="18"
   height="18"
   id="svg4619">
  <defs
     id="defs4621" />
  <metadata
     id="metadata4624">
    <rdf:RDF>
      <cc:Work
         rdf:about="">
        <dc:format>image/svg+xml</dc:format>
        <dc:type
           rdf:resource="http://purl.org/dc/dcmitype/StillImage" />
        <dc:title></dc:title>
      </cc:Work>
    </rdf:RDF>
  </metadata>
  <path
     d="M 9.5,2 4,5 15,5 z M 5,6 C 4.5,6 4,6.493 4,6.9375 L 4,12 3,14.5 C 3,14.8611 3.23397,15 3.5,15 l 12,0 C 15.75638,15 16,14.8611 16,14.5 L 15,12 15,6.9375 C 15,6.493 14.5,6 14,6 z M 6.5,7 7,7.5 7,9 7,12 6,12 6,9 6,7.5 z m 3,0 0.5,0.5 0,1.5 0,3 -1,0 0,-3 0,-1.5 z m 3,0 0.5,0.5 0,1.5 0,3 -1,0 0,-3 0,-1.5 z"
     id="path16880"
     style="opacity:0.3;color:#000000;fill:none;stroke:#ffffff;stroke-width:2;stroke-linecap:round;stroke-linejoin:round;stroke-miterlimit:4;stroke-opacity:1;stroke-dasharray:none;marker:none;visibility:visible;display:inline;overflow:visible;enable-background:accumulate" />
  <path
     d="M 9.5,2 4,5 15,5 z M 5,6 C 4.5,6 4,6.493 4,6.9375 L 4,12 3,14.5 C 3,14.8611 3.23397,15 3.5,15 l 12,0 C 15.75638,15 16,14.8611 16,14.5 L 15,12 15,6.9375 C 15,6.493 14.5,6 14,6 z M 6.5,7 7,7.5 7,9 7,12 6,12 6,9 6,7.5 z m 3,0 0.5,0.5 0,1.5 0,3 -1,0 0,-3 0,-1.5 z m 3,0 0.5,0.5 0,1.5 0,3 -1,0 0,-3 0,-1.5 z"
     id="rect7645-6-5-0-1-2"
     style="color:#000000;fill:#444444;fill-opacity:1;fill-rule:nonzero;stroke:none;stroke-width:1;marker:none;visibility:visible;display:inline;overflow:visible;enable-background:accumulate" />
  <rect
     width="18"
     height="18"
     x="0"
     y="0"
     id="canvas"
     style="fill:none;stroke:none;visibility:hidden" />
</svg>
