<?xml version="1.0" encoding="UTF-8" standalone="no"?>
<!-- Created with Inkscape (http://www.inkscape.org/) -->

<svg
   xmlns:dc="http://purl.org/dc/elements/1.1/"
   xmlns:cc="http://creativecommons.org/ns#"
   xmlns:rdf="http://www.w3.org/1999/02/22-rdf-syntax-ns#"
   xmlns:svg="http://www.w3.org/2000/svg"
   xmlns="http://www.w3.org/2000/svg"
   xmlns:sodipodi="http://sodipodi.sourceforge.net/DTD/sodipodi-0.dtd"
   xmlns:inkscape="http://www.inkscape.org/namespaces/inkscape"
   width="18"
   height="18"
   id="svg27435"
   version="1.1"
   inkscape:version="0.48.2 r9819"
   sodipodi:docname="trailhead-black-18.svg">
  <defs
     id="defs27437" />
  <sodipodi:namedview
     id="base"
     pagecolor="#ffa6ff"
     bordercolor="#666666"
     borderopacity="1.0"
     inkscape:pageopacity="0"
     inkscape:pageshadow="2"
     inkscape:zoom="7.9891803"
     inkscape:cx="12.590799"
     inkscape:cy="8.9588378"
     inkscape:document-units="px"
     inkscape:current-layer="layer1"
     showgrid="false"
     inkscape:window-width="483"
     inkscape:window-height="454"
     inkscape:window-x="3223"
     inkscape:window-y="231"
     inkscape:window-maximized="0">
    <inkscape:grid
       type="xygrid"
       id="grid2986" />
  </sodipodi:namedview>
  <metadata
     id="metadata27440">
    <rdf:RDF>
      <cc:Work
         rdf:about="">
        <dc:format>image/svg+xml</dc:format>
        <dc:type
           rdf:resource="http://purl.org/dc/dcmitype/StillImage" />
        <dc:title></dc:title>
      </cc:Work>
    </rdf:RDF>
  </metadata>
  <g
     inkscape:label="Layer 1"
     inkscape:groupmode="layer"
     id="layer1"
     transform="translate(0,-1034.3622)">
    <g
       id="g34351"
       transform="matrix(1.5,0,0,1.5,-539.19041,693.38179)">
      <path
         style="opacity:0;fill:#272525"
         inkscape:connector-curvature="0"
         id="path34353"
         d="m 370.11909,239.31215 c 0.78923,0 1.43276,-0.63988 1.43276,-1.43276 v -9.13447 c 0,-0.79166 -0.64231,-1.43277 -1.43276,-1.43277 h -9.13204 c -0.79167,0 -1.4352,0.63989 -1.4352,1.43277 v 9.13447 c 0,0.79166 0.64232,1.43276 1.4352,1.43276 h 9.13204 z" />
      <g
         id="g34355"
         style="opacity:0.6;fill:none;stroke:#1b1b1c;stroke-width:0.49991509;stroke-miterlimit:0;stroke-opacity:1;stroke-dasharray:none"
         transform="matrix(1.2142062,0,0,1.2142062,333.18658,-604.60608)">
        <circle
           style="fill:none;stroke:#1b1b1c;stroke-width:0.49991509;stroke-miterlimit:0;stroke-opacity:1;stroke-dasharray:none"
           sodipodi:ry="0.66100001"
           sodipodi:rx="0.66100001"
           sodipodi:cy="686.552"
           sodipodi:cx="26.766001"
           id="circle34357"
           r="0.66100001"
           cy="686.552"
           cx="26.766001"
           d="m 27.427001,686.552 c 0,0.36506 -0.29594,0.661 -0.661,0.661 -0.36506,0 -0.661,-0.29594 -0.661,-0.661 0,-0.36506 0.29594,-0.661 0.661,-0.661 0.36506,0 0.661,0.29594 0.661,0.661 z" />
        <path
           style="fill:none;stroke:#1b1b1c;stroke-width:0.49991509;stroke-miterlimit:0;stroke-opacity:1;stroke-dasharray:none"
           inkscape:connector-curvature="0"
           id="path34359"
           d="m 25.649,687.322 c 0.025,-0.102 -0.039,-0.203 -0.139,-0.229 l -0.551,-0.133 c -0.104,-0.023 -0.205,0.037 -0.229,0.139 l -0.463,1.916 c -0.025,0.102 0.037,0.203 0.139,0.229 l 0.553,0.133 c 0.1,0.025 0.203,-0.037 0.227,-0.139 l 0.463,-1.916 z" />
        <path
           style="fill:none;stroke:#1b1b1c;stroke-width:0.49991509;stroke-miterlimit:0;stroke-opacity:1;stroke-dasharray:none"
           inkscape:connector-curvature="0"
           id="path34361"
           d="m 28.191,694.137 c 0,0.004 -0.002,0.008 -0.002,0.01 0,0.084 0.068,0.152 0.152,0.152 0.076,0 0.141,-0.059 0.15,-0.133 l 1.109,-6.018 c 0,-0.004 0,-0.008 0,-0.012 0,-0.082 -0.066,-0.15 -0.15,-0.15 -0.076,0 -0.135,0.059 -0.15,0.133 l -1.109,6.018 z" />
        <path
           style="fill:none;stroke:#1b1b1c;stroke-width:0.49991509;stroke-miterlimit:0;stroke-opacity:1;stroke-dasharray:none"
           inkscape:connector-curvature="0"
           id="path34363"
           d="m 24.5,693.742 c -0.006,0.031 -0.008,0.062 -0.008,0.094 0,0.258 0.207,0.465 0.465,0.465 0.211,0 0.389,-0.141 0.445,-0.332 l 0.799,-3.307 0.762,3.287 c 0.049,0.203 0.232,0.352 0.449,0.352 0.258,0 0.465,-0.207 0.465,-0.465 0,-0.035 -0.004,-0.068 -0.01,-0.102 l -1.045,-4.367 0.088,-0.385 0.068,0.303 c 0.062,0.197 0.242,0.217 0.242,0.217 l 1.076,0.273 c 0.021,0.004 0.043,0.006 0.064,0.006 0.176,0 0.318,-0.141 0.318,-0.316 0,-0.15 -0.104,-0.277 -0.244,-0.311 l -0.932,-0.234 -0.256,-1.039 c -0.121,-0.58 -0.676,-0.566 -0.676,-0.566 -0.539,-0.014 -0.674,0.553 -0.674,0.553 l -1.396,5.874 z" />
      </g>
      <g
         id="g34365"
         transform="matrix(1.2142062,0,0,1.2142062,333.18658,-604.60608)"
         style="fill:#ffffff;fill-opacity:1">
        <circle
           cx="26.766001"
           cy="686.552"
           r="0.66100001"
           id="circle34367"
           sodipodi:cx="26.766001"
           sodipodi:cy="686.552"
           sodipodi:rx="0.66100001"
           sodipodi:ry="0.66100001"
           style="fill:#ffffff;fill-opacity:1"
           d="m 27.427001,686.552 c 0,0.36506 -0.29594,0.661 -0.661,0.661 -0.36506,0 -0.661,-0.29594 -0.661,-0.661 0,-0.36506 0.29594,-0.661 0.661,-0.661 0.36506,0 0.661,0.29594 0.661,0.661 z" />
        <path
           d="m 25.649,687.322 c 0.025,-0.102 -0.039,-0.203 -0.139,-0.229 l -0.551,-0.133 c -0.104,-0.023 -0.205,0.037 -0.229,0.139 l -0.463,1.916 c -0.025,0.102 0.037,0.203 0.139,0.229 l 0.553,0.133 c 0.1,0.025 0.203,-0.037 0.227,-0.139 l 0.463,-1.916 z"
           id="path34369"
           inkscape:connector-curvature="0"
           style="fill:#ffffff;fill-opacity:1" />
        <path
           d="m 28.191,694.137 c 0,0.004 -0.002,0.008 -0.002,0.01 0,0.084 0.068,0.152 0.152,0.152 0.076,0 0.141,-0.059 0.15,-0.133 l 1.109,-6.018 c 0,-0.004 0,-0.008 0,-0.012 0,-0.082 -0.066,-0.15 -0.15,-0.15 -0.076,0 -0.135,0.059 -0.15,0.133 l -1.109,6.018 z"
           id="path34371"
           inkscape:connector-curvature="0"
           style="fill:#ffffff;fill-opacity:1" />
        <path
           d="m 24.5,693.742 c -0.006,0.031 -0.008,0.062 -0.008,0.094 0,0.258 0.207,0.465 0.465,0.465 0.211,0 0.389,-0.141 0.445,-0.332 l 0.799,-3.307 0.762,3.287 c 0.049,0.203 0.232,0.352 0.449,0.352 0.258,0 0.465,-0.207 0.465,-0.465 0,-0.035 -0.004,-0.068 -0.01,-0.102 l -1.045,-4.367 0.088,-0.385 0.068,0.303 c 0.062,0.197 0.242,0.217 0.242,0.217 l 1.076,0.273 c 0.021,0.004 0.043,0.006 0.064,0.006 0.176,0 0.318,-0.141 0.318,-0.316 0,-0.15 -0.104,-0.277 -0.244,-0.311 l -0.932,-0.234 -0.256,-1.039 c -0.121,-0.58 -0.676,-0.566 -0.676,-0.566 -0.539,-0.014 -0.674,0.553 -0.674,0.553 l -1.396,5.874 z"
           id="path34373"
           inkscape:connector-curvature="0"
           style="fill:#ffffff;fill-opacity:1" />
      </g>
    </g>
  </g>
</svg>
