<?xml version="1.0" encoding="UTF-8" standalone="no"?>
<svg width="12px" height="12px" viewBox="0 0 12 12" version="1.1" xmlns="http://www.w3.org/2000/svg" xmlns:xlink="http://www.w3.org/1999/xlink" xmlns:sketch="http://www.bohemiancoding.com/sketch/ns">
    <!-- Generator: Sketch 3.2.2 (9983) - http://www.bohemiancoding.com/sketch -->
    <title>trailhead-white-12</title>
    <desc>Created with Sketch.</desc>
    <defs></defs>
    <g id="Page-1" stroke="none" stroke-width="1" fill="none" fill-rule="evenodd" sketch:type="MSPage">
        <path d="M3.06588235,12.0742828 L3.05882353,12.1976099 C3.05882353,12.5290515 3.29882353,12.7911216 3.60235294,12.7911216 C3.84941176,12.7911216 4.06117647,12.6138389 4.12470588,12.3671847 L5.06352941,8.12781548 L5.96,12.3440609 C6.01647059,12.598423 6.23529412,12.7911216 6.48941176,12.7911216 C6.79294118,12.7911216 7.03294118,12.5290515 7.03294118,12.1976099 L7.02588235,12.0665749 L5.79764706,6.46289958 L5.89647059,5.96959116 L5.98117647,6.35498836 C6.05176471,6.60935051 6.26352941,6.63247435 6.26352941,6.63247435 L7.52705882,6.98703977 L7.60470588,6.99474771 C7.80941176,6.99474771 7.97882353,6.80975706 7.97882353,6.58622668 C7.97882353,6.39352808 7.85176471,6.23166126 7.68941176,6.18541359 L6.59529412,5.89251172 L6.29176471,4.55903741 C6.15058824,3.81136684 5.50117647,3.82678273 5.50117647,3.82678273 C4.86588235,3.81136684 4.70352941,4.53591358 4.70352941,4.53591358 L3.06588235,12.0742828" id="Fill-65" opacity="0.5" fill="#0A0B09" sketch:type="MSShapeGroup"></path>
        <path d="M5.52941176,2 L6.94117647,2 L6.94117647,3.5415888 L5.52941176,3.5415888 L5.52941176,2 Z" id="Fill-66" opacity="0.5" fill="#0A0B09" sketch:type="MSShapeGroup"></path>
        <path d="M3.41176471,6.6247664 L2,6.6247664 L2,3.5415888 L4.11764706,3.5415888 L3.41176471,4.3123832 L3.41176471,6.6247664" id="Fill-67" opacity="0.5" fill="#0A0B09" sketch:type="MSShapeGroup"></path>
        <path d="M9.05882353,4.3123832 L9.76470588,4.3123832 L9.76470588,12.7911216 L9.05882353,12.7911216 L9.05882353,4.3123832 Z" id="Fill-68" opacity="0.5" fill="#0A0B09" sketch:type="MSShapeGroup"></path>
        <path d="M2.06588235,11.0742828 L2.05882353,11.1976099 C2.05882353,11.5290515 2.29882353,11.7911216 2.60235294,11.7911216 C2.84941176,11.7911216 3.06117647,11.6138389 3.12470588,11.3671847 L4.06352941,7.12781548 L4.96,11.3440609 C5.01647059,11.598423 5.23529412,11.7911216 5.48941176,11.7911216 C5.79294118,11.7911216 6.03294118,11.5290515 6.03294118,11.1976099 L6.02588235,11.0665749 L4.79764706,5.46289958 L4.89647059,4.96959116 L4.98117647,5.35498836 C5.05176471,5.60935051 5.26352941,5.63247435 5.26352941,5.63247435 L6.52705882,5.98703977 L6.60470588,5.99474771 C6.80941176,5.99474771 6.97882353,5.80975706 6.97882353,5.58622668 C6.97882353,5.39352808 6.85176471,5.23166126 6.68941176,5.18541359 L5.59529412,4.89251172 L5.29176471,3.55903741 C5.15058824,2.81136684 4.50117647,2.82678273 4.50117647,2.82678273 C3.86588235,2.81136684 3.70352941,3.53591358 3.70352941,3.53591358 L2.06588235,11.0742828" id="Fill-65" opacity="0.75" fill="#0A0B09" sketch:type="MSShapeGroup"></path>
        <path d="M4.52941176,1 L5.94117647,1 L5.94117647,2.5415888 L4.52941176,2.5415888 L4.52941176,1 Z" id="Fill-66" opacity="0.75" fill="#0A0B09" sketch:type="MSShapeGroup"></path>
        <path d="M2.41176471,5.6247664 L1,5.6247664 L1,2.5415888 L3.11764706,2.5415888 L2.41176471,3.3123832 L2.41176471,5.6247664" id="Fill-67" opacity="0.75" fill="#0A0B09" sketch:type="MSShapeGroup"></path>
        <path d="M8.05882353,3.3123832 L8.76470588,3.3123832 L8.76470588,11.7911216 L8.05882353,11.7911216 L8.05882353,3.3123832 Z" id="Fill-68" opacity="0.75" fill="#0A0B09" sketch:type="MSShapeGroup"></path>
        <path d="M1.06588235,10.0742828 L1.05882353,10.1976099 C1.05882353,10.5290515 1.29882353,10.7911216 1.60235294,10.7911216 C1.84941176,10.7911216 2.06117647,10.6138389 2.12470588,10.3671847 L3.06352941,6.12781548 L3.96,10.3440609 C4.01647059,10.598423 4.23529412,10.7911216 4.48941176,10.7911216 C4.79294118,10.7911216 5.03294118,10.5290515 5.03294118,10.1976099 L5.02588235,10.0665749 L3.79764706,4.46289958 L3.89647059,3.96959116 L3.98117647,4.35498836 C4.05176471,4.60935051 4.26352941,4.63247435 4.26352941,4.63247435 L5.52705882,4.98703977 L5.60470588,4.99474771 C5.80941176,4.99474771 5.97882353,4.80975706 5.97882353,4.58622668 C5.97882353,4.39352808 5.85176471,4.23166126 5.68941176,4.18541359 L4.59529412,3.89251172 L4.29176471,2.55903741 C4.15058824,1.81136684 3.50117647,1.82678273 3.50117647,1.82678273 C2.86588235,1.81136684 2.70352941,2.53591358 2.70352941,2.53591358 L1.06588235,10.0742828" id="Fill-65" fill="#FFFFFF" sketch:type="MSShapeGroup"></path>
        <path d="M3.52941176,0 L4.94117647,0 L4.94117647,1.5415888 L3.52941176,1.5415888 L3.52941176,0 Z" id="Fill-66" fill="#FFFFFF" sketch:type="MSShapeGroup"></path>
        <path d="M1.41176471,4.6247664 L0,4.6247664 L0,1.5415888 L2.11764706,1.5415888 L1.41176471,2.3123832 L1.41176471,4.6247664" id="Fill-67" fill="#FFFFFF" sketch:type="MSShapeGroup"></path>
        <path d="M7.05882353,2.3123832 L7.76470588,2.3123832 L7.76470588,10.7911216 L7.05882353,10.7911216 L7.05882353,2.3123832 Z" id="Fill-68" fill="#FFFFFF" sketch:type="MSShapeGroup"></path>
    </g>
</svg>