<?xml version="1.0" encoding="utf-8"?>
<!-- Generator: Adobe Illustrator 18.1.1, SVG Export Plug-In . SVG Version: 6.00 Build 0)  -->
<svg version="1.1" xmlns="http://www.w3.org/2000/svg" xmlns:xlink="http://www.w3.org/1999/xlink" x="0px" y="0px"
	 viewBox="0 0 24 24" enable-background="new 0 0 24 24" xml:space="preserve">
<g id="shadows">
	<g opacity="0.2">
		<path d="M10.509,6.892c0.05-0.206-0.079-0.41-0.281-0.462L9.115,6.161c-0.21-0.047-0.414,0.075-0.462,0.281l-0.936,3.873
			c-0.051,0.207,0.075,0.411,0.281,0.463l1.118,0.269c0.202,0.05,0.411-0.075,0.459-0.281L10.509,6.892z"/>
		<path d="M8.494,19.87l-0.017,0.19c0,0.522,0.419,0.94,0.941,0.94c0.426,0,0.786-0.285,0.899-0.671l1.615-6.684l1.541,6.645
			C13.571,20.698,13.941,21,14.38,21c0.52,0,0.939-0.418,0.939-0.94c0-0.071-0.008-0.137-0.021-0.207l-2.112-8.827l0.178-0.777
			l0.137,0.613c0.126,0.397,0.49,0.438,0.49,0.438l2.175,0.552l0.129,0.012c0.355,0,0.643-0.285,0.643-0.638
			c0-0.303-0.21-0.56-0.493-0.629l-1.884-0.472l-0.518-2.101c-0.334-0.867-1.703-0.932-1.703-0.932
			c-0.563,0-1.025,0.906-1.025,0.906L8.494,19.87z"/>
		<path d="M13.8,6.318h-0.6c-0.473,0-0.859-0.386-0.859-0.859V4.859C12.341,4.386,12.728,4,13.2,4h0.6
			c0.473,0,0.86,0.386,0.86,0.859v0.599C14.66,5.932,14.273,6.318,13.8,6.318"/>
		<rect x="18.348" y="7.864" width="0.948" height="13.136"/>
		<rect x="7.705" y="4" fill="none" width="11.59" height="17"/>
	</g>
</g>
<g id="icons">
	<path fill="#FFFFFF" d="M9.509,5.893c0.051-0.206-0.078-0.41-0.28-0.463L8.114,5.161C7.904,5.114,7.7,5.236,7.652,5.442
		L6.715,9.315c-0.05,0.207,0.076,0.411,0.281,0.463l1.118,0.269c0.203,0.05,0.411-0.076,0.459-0.281L9.509,5.893z"/>
	<path fill="#FFFFFF" d="M7.494,18.87l-0.017,0.19c0,0.522,0.418,0.94,0.941,0.94c0.425,0,0.786-0.285,0.899-0.671l1.615-6.685
		l1.54,6.645C12.571,19.698,12.941,20,13.38,20c0.521,0,0.939-0.418,0.939-0.94c0-0.071-0.007-0.137-0.02-0.207l-2.112-8.827
		l0.177-0.777l0.138,0.613c0.126,0.397,0.49,0.438,0.49,0.438l2.174,0.552l0.13,0.012c0.356,0,0.642-0.285,0.642-0.638
		c0-0.304-0.21-0.56-0.493-0.629l-1.884-0.473l-0.517-2.1C12.71,6.156,11.34,6.091,11.34,6.091c-0.563,0-1.025,0.906-1.025,0.906
		L7.494,18.87z"/>
	<path fill="#FFFFFF" d="M12.8,5.318h-0.6c-0.472,0-0.858-0.387-0.858-0.86V3.859C11.341,3.386,11.728,3,12.2,3h0.6
		c0.473,0,0.859,0.386,0.859,0.859v0.599C13.659,4.932,13.273,5.318,12.8,5.318"/>
	<rect x="17.348" y="6.864" fill="#FFFFFF" width="0.948" height="13.136"/>
</g>
</svg>
