<?xml version="1.0" encoding="utf-8"?>
<!-- Generator: Adobe Illustrator 18.1.1, SVG Export Plug-In . SVG Version: 6.00 Build 0)  -->
<svg version="1.1" xmlns="http://www.w3.org/2000/svg" xmlns:xlink="http://www.w3.org/1999/xlink" x="0px" y="0px"
	 viewBox="0 0 12 12" enable-background="new 0 0 12 12" xml:space="preserve">
<g id="shadows">
	<g opacity="0.2">
		<path d="M3.435,9.902l-0.008,0.1c0,0.276,0.221,0.498,0.497,0.498c0.226,0,0.417-0.151,0.477-0.356l0.855-3.538l0.815,3.517
			C6.123,10.34,6.319,10.5,6.551,10.5c0.276,0,0.498-0.222,0.498-0.498l-0.01-0.108L5.919,5.22l0.094-0.412l0.073,0.325
			c0.066,0.211,0.259,0.232,0.259,0.232l1.151,0.291l0.069,0.007c0.188,0,0.34-0.151,0.34-0.338c0-0.161-0.111-0.296-0.261-0.332
			L6.647,4.741L6.374,3.629C6.244,3.009,5.65,3.023,5.65,3.023C5.073,3.009,4.929,3.616,4.929,3.616L3.435,9.902z"/>
		<rect x="5.679" y="1.5" width="1.286" height="1.286"/>
		<polygon points="3.75,5.357 2.464,5.357 2.464,2.786 4.393,2.786 3.75,3.429 		"/>
		<rect x="8.893" y="3.429" width="0.642" height="7.071"/>
		<rect x="2.464" y="1.5" fill="none" width="7.071" height="9"/>
	</g>
</g>
<g id="icons">
	<path d="M2.935,9.402l-0.008,0.1C2.927,9.778,3.147,10,3.424,10C3.65,10,3.84,9.849,3.9,9.644l0.855-3.538L5.57,9.623
		C5.623,9.84,5.819,10,6.051,10c0.276,0,0.498-0.222,0.498-0.498l-0.01-0.108L5.419,4.72l0.094-0.412l0.073,0.325
		c0.066,0.211,0.259,0.232,0.259,0.232l1.151,0.291l0.069,0.007c0.188,0,0.34-0.151,0.34-0.338c0-0.161-0.111-0.296-0.261-0.332
		L6.147,4.241L5.874,3.129C5.744,2.509,5.15,2.523,5.15,2.523C4.573,2.509,4.429,3.116,4.429,3.116L2.935,9.402z"/>
	<rect x="5.179" y="1" width="1.286" height="1.286"/>
	<polygon points="3.25,4.857 1.964,4.857 1.964,2.286 3.893,2.286 3.25,2.929 	"/>
	<rect x="8.393" y="2.929" width="0.643" height="7.071"/>
</g>
</svg>
