<?xml version="1.0" encoding="utf-8"?>
<!-- Generator: Adobe Illustrator 18.1.1, SVG Export Plug-In . SVG Version: 6.00 Build 0)  -->
<svg version="1.1" xmlns="http://www.w3.org/2000/svg" xmlns:xlink="http://www.w3.org/1999/xlink" x="0px" y="0px"
	 viewBox="0 0 12 12" enable-background="new 0 0 12 12" xml:space="preserve">
<g id="shadows">
	<g opacity="0.2">
		<path d="M4.435,9.902l-0.008,0.1c0,0.276,0.221,0.498,0.497,0.498c0.226,0,0.417-0.151,0.477-0.356l0.855-3.538l0.815,3.517
			C7.123,10.34,7.319,10.5,7.551,10.5c0.276,0,0.498-0.222,0.498-0.498l-0.01-0.108L6.919,5.22l0.094-0.412l0.073,0.325
			c0.066,0.211,0.259,0.232,0.259,0.232l1.151,0.291l0.069,0.007c0.188,0,0.34-0.151,0.34-0.338c0-0.161-0.111-0.296-0.261-0.332
			L7.647,4.741L7.374,3.629C7.244,3.009,6.65,3.023,6.65,3.023C6.073,3.009,5.929,3.616,5.929,3.616L4.435,9.902z"/>
		<rect x="6.679" y="1.5" width="1.286" height="1.286"/>
		<polygon points="4.75,5.357 3.464,5.357 3.464,2.786 5.393,2.786 4.75,3.429 		"/>
		<rect x="9.893" y="3.429" width="0.642" height="7.071"/>
		<rect x="3.464" y="1.5" fill="none" width="7.071" height="9"/>
	</g>
</g>
<g id="icons">
	<path d="M3.935,9.402l-0.008,0.1C3.927,9.778,4.147,10,4.424,10C4.65,10,4.84,9.849,4.9,9.644l0.855-3.538L6.57,9.623
		C6.623,9.84,6.819,10,7.051,10c0.276,0,0.498-0.222,0.498-0.498l-0.01-0.108L6.419,4.72l0.094-0.412l0.073,0.325
		c0.066,0.211,0.259,0.232,0.259,0.232l1.151,0.291l0.069,0.007c0.188,0,0.34-0.151,0.34-0.338c0-0.161-0.111-0.296-0.261-0.332
		L7.147,4.241L6.874,3.129C6.744,2.509,6.15,2.523,6.15,2.523C5.573,2.509,5.429,3.116,5.429,3.116L3.935,9.402z"/>
	<rect x="6.179" y="1" width="1.286" height="1.286"/>
	<polygon points="4.25,4.857 2.964,4.857 2.964,2.286 4.893,2.286 4.25,2.929 	"/>
	<rect x="9.393" y="2.929" width="0.643" height="7.071"/>
</g>
</svg>
