<?xml version="1.0" encoding="UTF-8" standalone="no"?>
<svg width="18px" height="18px" viewBox="0 0 18 18" version="1.1" xmlns="http://www.w3.org/2000/svg" xmlns:xlink="http://www.w3.org/1999/xlink" xmlns:sketch="http://www.bohemiancoding.com/sketch/ns">
    <!-- Generator: Sketch 3.2.2 (9983) - http://www.bohemiancoding.com/sketch -->
    <title>trailhead-black-18</title>
    <desc>Created with Sketch.</desc>
    <defs></defs>
    <g id="Page-1" stroke="none" stroke-width="1" fill="none" fill-rule="evenodd" sketch:type="MSPage">
        <path d="M4.65185185,4.67814453 C4.6962963,4.48105406 4.57777778,4.29126324 4.38518519,4.24016572 L3.31111111,3.98467808 C3.11111111,3.9408802 2.91851852,4.05767454 2.87407407,4.24746536 L1.97037037,7.90458843 C1.92592593,8.10167889 2.04444444,8.29876936 2.24444444,8.34256724 L3.31111111,8.59805488 C3.51111111,8.6491524 3.71111111,8.53235805 3.75555556,8.33526759 L4.65185185,4.67814453" id="Fill-61" opacity="0.1" fill="#0A0B09" sketch:type="MSShapeGroup"></path>
        <path d="M2.71851852,16.9342516 L2.7037037,17.1167427 C2.7037037,17.6058191 3.1037037,18 3.60740741,18 C4.01481481,18 4.35555556,17.7299131 4.46666667,17.3649307 L6.01481481,11.0507362 L7.48888889,17.3284325 C7.58518519,17.7153138 7.94074074,18 8.36296296,18 C8.85925926,18 9.25925926,17.6058191 9.25925926,17.1167427 C9.25925926,17.0437463 9.25185185,16.9853491 9.24444444,16.9196523 L7.21481481,8.58345558 L7.39259259,7.84619125 L7.51851852,8.42286335 C7.64444444,8.80244499 7.99259259,8.83894322 7.99259259,8.83894322 L10.0740741,9.35721815 L10.2,9.37181744 C10.5407407,9.37181744 10.8148148,9.10173051 10.8148148,8.76594675 C10.8148148,8.48126053 10.6148148,8.24037218 10.3407407,8.17467536 L8.53333333,7.7293969 L8.03703704,5.74389296 C7.71851852,4.92633252 6.40740741,4.8606357 6.40740741,4.8606357 C5.86666667,4.8606357 5.42222222,5.71469438 5.42222222,5.71469438 L2.71851852,16.9342516" id="Fill-62" opacity="0.1" fill="#0A0B09" sketch:type="MSShapeGroup"></path>
        <path d="M7.80740741,4.13067101 L7.22962963,4.13067101 C6.77777778,4.13067101 6.40740741,3.76568867 6.40740741,3.32041021 L6.40740741,2.75103776 C6.40740741,2.3057593 6.77777778,1.94077696 7.22962963,1.94077696 L7.80740741,1.94077696 C8.25925926,1.94077696 8.62962963,2.3057593 8.62962963,2.75103776 L8.62962963,3.32041021 C8.62962963,3.76568867 8.25925926,4.13067101 7.80740741,4.13067101" id="Fill-63" opacity="0.1" fill="#0A0B09" sketch:type="MSShapeGroup"></path>
        <path d="M12.162963,5.59060038 L13.0740741,5.59060038 L13.0740741,18 L12.162963,18 L12.162963,5.59060038 Z" id="Fill-64" opacity="0.1" fill="#0A0B09" sketch:type="MSShapeGroup"></path>
        <path d="M3.65185185,3.67814453 C3.6962963,3.48105406 3.57777778,3.29126324 3.38518519,3.24016572 L2.31111111,2.98467808 C2.11111111,2.9408802 1.91851852,3.05767454 1.87407407,3.24746536 L0.97037037,6.90458843 C0.925925926,7.10167889 1.04444444,7.29876936 1.24444444,7.34256724 L2.31111111,7.59805488 C2.51111111,7.6491524 2.71111111,7.53235805 2.75555556,7.33526759 L3.65185185,3.67814453" id="Fill-61" opacity="0.2" fill="#0A0B09" sketch:type="MSShapeGroup"></path>
        <path d="M1.71851852,15.9342516 L1.7037037,16.1167427 C1.7037037,16.6058191 2.1037037,17 2.60740741,17 C3.01481481,17 3.35555556,16.7299131 3.46666667,16.3649307 L5.01481481,10.0507362 L6.48888889,16.3284325 C6.58518519,16.7153138 6.94074074,17 7.36296296,17 C7.85925926,17 8.25925926,16.6058191 8.25925926,16.1167427 C8.25925926,16.0437463 8.25185185,15.9853491 8.24444444,15.9196523 L6.21481481,7.58345558 L6.39259259,6.84619125 L6.51851852,7.42286335 C6.64444444,7.80244499 6.99259259,7.83894322 6.99259259,7.83894322 L9.07407407,8.35721815 L9.2,8.37181744 C9.54074074,8.37181744 9.81481481,8.10173051 9.81481481,7.76594675 C9.81481481,7.48126053 9.61481481,7.24037218 9.34074074,7.17467536 L7.53333333,6.7293969 L7.03703704,4.74389296 C6.71851852,3.92633252 5.40740741,3.8606357 5.40740741,3.8606357 C4.86666667,3.8606357 4.42222222,4.71469438 4.42222222,4.71469438 L1.71851852,15.9342516" id="Fill-62" opacity="0.2" fill="#0A0B09" sketch:type="MSShapeGroup"></path>
        <path d="M6.80740741,3.13067101 L6.22962963,3.13067101 C5.77777778,3.13067101 5.40740741,2.76568867 5.40740741,2.32041021 L5.40740741,1.75103776 C5.40740741,1.3057593 5.77777778,0.940776963 6.22962963,0.940776963 L6.80740741,0.940776963 C7.25925926,0.940776963 7.62962963,1.3057593 7.62962963,1.75103776 L7.62962963,2.32041021 C7.62962963,2.76568867 7.25925926,3.13067101 6.80740741,3.13067101" id="Fill-63" opacity="0.2" fill="#0A0B09" sketch:type="MSShapeGroup"></path>
        <path d="M11.162963,4.59060038 L12.0740741,4.59060038 L12.0740741,17 L11.162963,17 L11.162963,4.59060038 Z" id="Fill-64" opacity="0.2" fill="#0A0B09" sketch:type="MSShapeGroup"></path>
        <path d="M2.65185185,2.67814453 C2.6962963,2.48105406 2.57777778,2.29126324 2.38518519,2.24016572 L1.31111111,1.98467808 C1.11111111,1.9408802 0.918518519,2.05767454 0.874074074,2.24746536 L-0.0296296296,5.90458843 C-0.0740740741,6.10167889 0.0444444444,6.29876936 0.244444444,6.34256724 L1.31111111,6.59805488 C1.51111111,6.6491524 1.71111111,6.53235805 1.75555556,6.33526759 L2.65185185,2.67814453" id="Fill-61" fill="#0A0B09" sketch:type="MSShapeGroup"></path>
        <path d="M0.718518519,14.9342516 L0.703703704,15.1167427 C0.703703704,15.6058191 1.1037037,16 1.60740741,16 C2.01481481,16 2.35555556,15.7299131 2.46666667,15.3649307 L4.01481481,9.05073621 L5.48888889,15.3284325 C5.58518519,15.7153138 5.94074074,16 6.36296296,16 C6.85925926,16 7.25925926,15.6058191 7.25925926,15.1167427 C7.25925926,15.0437463 7.25185185,14.9853491 7.24444444,14.9196523 L5.21481481,6.58345558 L5.39259259,5.84619125 L5.51851852,6.42286335 C5.64444444,6.80244499 5.99259259,6.83894322 5.99259259,6.83894322 L8.07407407,7.35721815 L8.2,7.37181744 C8.54074074,7.37181744 8.81481481,7.10173051 8.81481481,6.76594675 C8.81481481,6.48126053 8.61481481,6.24037218 8.34074074,6.17467536 L6.53333333,5.7293969 L6.03703704,3.74389296 C5.71851852,2.92633252 4.40740741,2.8606357 4.40740741,2.8606357 C3.86666667,2.8606357 3.42222222,3.71469438 3.42222222,3.71469438 L0.718518519,14.9342516" id="Fill-62" fill="#0A0B09" sketch:type="MSShapeGroup"></path>
        <path d="M5.80740741,2.13067101 L5.22962963,2.13067101 C4.77777778,2.13067101 4.40740741,1.76568867 4.40740741,1.32041021 L4.40740741,0.751037761 C4.40740741,0.305759305 4.77777778,-0.0592230372 5.22962963,-0.0592230372 L5.80740741,-0.0592230372 C6.25925926,-0.0592230372 6.62962963,0.305759305 6.62962963,0.751037761 L6.62962963,1.32041021 C6.62962963,1.76568867 6.25925926,2.13067101 5.80740741,2.13067101" id="Fill-63" fill="#0A0B09" sketch:type="MSShapeGroup"></path>
        <path d="M10.162963,3.59060038 L11.0740741,3.59060038 L11.0740741,16 L10.162963,16 L10.162963,3.59060038 Z" id="Fill-64" fill="#0A0B09" sketch:type="MSShapeGroup"></path>
    </g>
</svg>