<?xml version="1.0" encoding="utf-8"?>
<!-- Generator: Adobe Illustrator 18.1.1, SVG Export Plug-In . SVG Version: 6.00 Build 0)  -->
<svg version="1.1" xmlns="http://www.w3.org/2000/svg" xmlns:xlink="http://www.w3.org/1999/xlink" x="0px" y="0px"
	 viewBox="0 0 18 18" enable-background="new 0 0 18 18" xml:space="preserve">
<g id="shadows">
	<g opacity="0.2">
		<path d="M6.545,14.886l-0.012,0.144c0,0.399,0.319,0.719,0.718,0.719c0.327,0,0.602-0.218,0.688-0.513l1.235-5.111l1.177,5.081
			c0.076,0.313,0.359,0.544,0.695,0.544c0.399,0,0.719-0.32,0.719-0.719l-0.015-0.156l-1.617-6.751l0.136-0.595l0.105,0.469
			c0.095,0.304,0.375,0.336,0.375,0.336l1.663,0.42l0.099,0.011c0.272,0,0.491-0.219,0.491-0.489c0-0.233-0.16-0.428-0.377-0.48
			l-1.441-0.363L10.79,5.826C10.603,4.93,9.745,4.95,9.745,4.95C8.911,4.93,8.703,5.806,8.703,5.806L6.545,14.886z"/>
		<rect x="9.786" y="2.75" width="1.857" height="1.857"/>
		<polygon points="7,8.321 5.143,8.321 5.143,4.607 7.929,4.607 7,5.536 		"/>
		<rect x="14.429" y="5.536" width="0.928" height="10.214"/>
		<rect x="5.143" y="2.75" fill="none" width="10.214" height="13"/>
	</g>
</g>
<g id="icons">
	<path fill="#FFFFFF" d="M5.795,14.136l-0.012,0.144C5.783,14.68,6.102,15,6.501,15c0.327,0,0.602-0.218,0.688-0.513l1.235-5.111
		l1.177,5.081C9.678,14.769,9.961,15,10.296,15c0.399,0,0.719-0.32,0.719-0.719L11,14.124L9.384,7.373L9.52,6.778l0.105,0.469
		C9.72,7.551,9.999,7.582,9.999,7.582l1.663,0.42l0.099,0.011c0.272,0,0.491-0.219,0.491-0.489c0-0.233-0.16-0.428-0.377-0.48
		l-1.441-0.363L10.04,5.076C9.853,4.18,8.995,4.2,8.995,4.2C8.161,4.18,7.953,5.056,7.953,5.056L5.795,14.136z"/>
	<rect x="9.036" y="2" fill="#FFFFFF" width="1.857" height="1.857"/>
	<polygon fill="#FFFFFF" points="6.25,7.571 4.393,7.571 4.393,3.857 7.179,3.857 6.25,4.786 	"/>
	<rect x="13.679" y="4.786" fill="#FFFFFF" width="0.928" height="10.214"/>
</g>
</svg>
