<?xml version="1.0" encoding="utf-8"?>
<!-- Generator: Adobe Illustrator 18.0.0, SVG Export Plug-In . SVG Version: 6.00 Build 0)  -->
<!DOCTYPE svg PUBLIC "-//W3C//DTD SVG 1.1//EN" "http://www.w3.org/Graphics/SVG/1.1/DTD/svg11.dtd" [
	<!ENTITY ns_flows "http://ns.adobe.com/Flows/1.0/">
	<!ENTITY ns_extend "http://ns.adobe.com/Extensibility/1.0/">
	<!ENTITY ns_ai "http://ns.adobe.com/AdobeIllustrator/10.0/">
	<!ENTITY ns_graphs "http://ns.adobe.com/Graphs/1.0/">
	<!ENTITY st0 "opacity:0.5;">
	<!ENTITY st1 "fill:#010101;">
	<!ENTITY st2 "opacity:0.75;">
	<!ENTITY st3 "fill:#FFFFFF;">
]>
<svg version="1.1" id="Layer_1" xmlns:x="&ns_extend;" xmlns:i="&ns_ai;" xmlns:graph="&ns_graphs;"
	 xmlns="http://www.w3.org/2000/svg" xmlns:xlink="http://www.w3.org/1999/xlink" xmlns:a="http://ns.adobe.com/AdobeSVGViewerExtensions/3.0/"
	 x="0px" y="0px" width="17px" height="24px" viewBox="0 0 17 24" style="enable-background:new 0 0 17 24;" xml:space="preserve">
<g style="&st0;">
	<path style="&st1;" d="M5.6,5.7c0.1-0.3-0.1-0.5-0.4-0.6L3.8,4.8C3.6,4.7,3.3,4.9,3.2,5.2l-1.2,5c-0.1,0.3,0.1,0.5,0.4,0.6l1.4,0.3
		c0.3,0.1,0.5-0.1,0.6-0.4L5.6,5.7z"/>
	<path style="&st1;" d="M3,22.5l0,0.2C3,23.5,3.5,24,4.2,24c0.6,0,1-0.4,1.2-0.9l2.1-8.7l2,8.6c0.1,0.5,0.6,0.9,1.2,0.9
		c0.7,0,1.2-0.5,1.2-1.2c0-0.1,0-0.2,0-0.3L9.1,11.1l0.2-1l0.2,0.8c0.2,0.5,0.6,0.6,0.6,0.6l2.8,0.7l0.2,0c0.5,0,0.8-0.4,0.8-0.8
		c0-0.4-0.3-0.7-0.6-0.8l-2.4-0.6l-0.7-2.7C9.8,6.1,8,6,8,6C7.3,6,6.7,7.2,6.7,7.2L3,22.5z"/>
	<path style="&st1;" d="M9.9,5H9.1C8.5,5,8,4.5,8,3.9V3.1C8,2.5,8.5,2,9.1,2h0.8C10.5,2,11,2.5,11,3.1v0.8C11,4.5,10.5,5,9.9,5z"/>
	<rect x="15.8" y="7" style="&st1;" width="1.2" height="17"/>
</g>
<g style="&st2;">
	<path style="&st1;" d="M4.6,4.7c0.1-0.3-0.1-0.5-0.4-0.6L2.8,3.8C2.6,3.7,2.3,3.9,2.2,4.2L1,9.2C0.9,9.4,1.1,9.7,1.4,9.8l1.4,0.3
		c0.3,0.1,0.5-0.1,0.6-0.4L4.6,4.7z"/>
	<path style="&st1;" d="M2,21.5l0,0.2C2,22.5,2.5,23,3.2,23c0.6,0,1-0.4,1.2-0.9l2.1-8.7l2,8.6C8.6,22.6,9.1,23,9.6,23
		c0.7,0,1.2-0.5,1.2-1.2c0-0.1,0-0.2,0-0.3L8.1,10.1l0.2-1l0.2,0.8c0.2,0.5,0.6,0.6,0.6,0.6l2.8,0.7l0.2,0c0.5,0,0.8-0.4,0.8-0.8
		c0-0.4-0.3-0.7-0.6-0.8L9.9,8.9L9.2,6.2C8.8,5.1,7,5,7,5C6.3,5,5.7,6.2,5.7,6.2L2,21.5z"/>
	<path style="&st1;" d="M8.9,4H8.1C7.5,4,7,3.5,7,2.9V2.1C7,1.5,7.5,1,8.1,1h0.8C9.5,1,10,1.5,10,2.1v0.8C10,3.5,9.5,4,8.9,4z"/>
	<rect x="14.8" y="6" style="&st1;" width="1.2" height="17"/>
</g>
<g>
	<path style="&st3;" d="M3.6,3.7c0.1-0.3-0.1-0.5-0.4-0.6L1.8,2.8C1.6,2.7,1.3,2.9,1.2,3.2L0,8.2c-0.1,0.3,0.1,0.5,0.4,0.6l1.4,0.3
		C2.1,9.2,2.4,9,2.4,8.8L3.6,3.7z"/>
	<path style="&st3;" d="M1,20.5l0,0.2C1,21.5,1.5,22,2.2,22c0.6,0,1-0.4,1.2-0.9l2.1-8.7l2,8.6C7.6,21.6,8.1,22,8.6,22
		c0.7,0,1.2-0.5,1.2-1.2c0-0.1,0-0.2,0-0.3L7.1,9.1l0.2-1l0.2,0.8c0.2,0.5,0.6,0.6,0.6,0.6l2.8,0.7l0.2,0c0.5,0,0.8-0.4,0.8-0.8
		c0-0.4-0.3-0.7-0.6-0.8L8.9,7.9L8.2,5.2C7.8,4.1,6,4,6,4C5.3,4,4.7,5.2,4.7,5.2L1,20.5z"/>
	<path style="&st3;" d="M7.9,3H7.1C6.5,3,6,2.5,6,1.9V1.1C6,0.5,6.5,0,7.1,0h0.8C8.5,0,9,0.5,9,1.1v0.8C9,2.5,8.5,3,7.9,3z"/>
	<rect x="13.8" y="5" style="&st3;" width="1.2" height="17"/>
</g>
</svg>
