<?xml version="1.0" encoding="UTF-8" standalone="no"?>
<!-- Created with Inkscape (http://www.inkscape.org/) -->

<svg
   xmlns:dc="http://purl.org/dc/elements/1.1/"
   xmlns:cc="http://creativecommons.org/ns#"
   xmlns:rdf="http://www.w3.org/1999/02/22-rdf-syntax-ns#"
   xmlns:svg="http://www.w3.org/2000/svg"
   xmlns="http://www.w3.org/2000/svg"
   xmlns:inkscape="http://www.inkscape.org/namespaces/inkscape"
   version="1.1"
   width="18"
   height="18"
   id="svg4619">
  <defs
     id="defs4621" />
  <metadata
     id="metadata4624">
    <rdf:RDF>
      <cc:Work
         rdf:about="">
        <dc:format>image/svg+xml</dc:format>
        <dc:type
           rdf:resource="http://purl.org/dc/dcmitype/StillImage" />
        <dc:title />
      </cc:Work>
    </rdf:RDF>
  </metadata>
  <g
     transform="translate(0,-1034.3622)"
     id="layer1">
    <g
       transform="translate(48,-136)"
       id="triangle-18"
       style="display:inline">
      <g
         id="g21918">
        <path
           d="m -38.49998,1173.3622 c -0.36111,0 -0.52441,0.1729 -0.63195,0.361 l -5.77777,10.5557 c -0.0636,0.1112 -0.0903,0.2364 -0.0903,0.3611 0,0.5417 0.36111,0.7224 0.72222,0.7222 l 11.55556,0 c 0.36111,2e-4 0.72222,-0.1805 0.72222,-0.7222 0,-0.1243 -0.0267,-0.2496 -0.0903,-0.3611 l -5.77778,-10.5557 c -0.10761,-0.1881 -0.27083,-0.361 -0.63194,-0.361 z"
           inkscape:connector-curvature="0"
           id="path21112"
           style="font-size:medium;font-style:normal;font-variant:normal;font-weight:normal;font-stretch:normal;text-indent:0;text-align:start;text-decoration:none;line-height:normal;letter-spacing:normal;word-spacing:normal;text-transform:none;direction:ltr;block-progression:tb;writing-mode:lr-tb;text-anchor:start;baseline-shift:baseline;opacity:0.3;color:#000000;fill:#444444;fill-opacity:1;fill-rule:nonzero;stroke:#ffffff;stroke-width:2;stroke-linecap:butt;stroke-linejoin:miter;stroke-miterlimit:4;stroke-opacity:1;stroke-dasharray:none;stroke-dashoffset:0;marker:none;visibility:visible;display:inline;overflow:visible;enable-background:accumulate;font-family:Sans;-inkscape-font-specification:Sans" />
        <path
           d="m -38.49998,1173.3622 c -0.36111,0 -0.52441,0.1729 -0.63195,0.361 l -5.77777,10.5557 c -0.0636,0.1112 -0.0903,0.2364 -0.0903,0.3611 0,0.5417 0.36111,0.7224 0.72222,0.7222 l 11.55556,0 c 0.36111,2e-4 0.72222,-0.1805 0.72222,-0.7222 0,-0.1243 -0.0267,-0.2496 -0.0903,-0.3611 l -5.77778,-10.5557 c -0.10761,-0.1881 -0.27083,-0.361 -0.63194,-0.361 z"
           inkscape:connector-curvature="0"
           id="path21090-9"
           style="font-size:medium;font-style:normal;font-variant:normal;font-weight:normal;font-stretch:normal;text-indent:0;text-align:start;text-decoration:none;line-height:normal;letter-spacing:normal;word-spacing:normal;text-transform:none;direction:ltr;block-progression:tb;writing-mode:lr-tb;text-anchor:start;baseline-shift:baseline;color:#000000;fill:#444444;fill-opacity:1;fill-rule:nonzero;stroke:none;stroke-width:2;marker:none;visibility:visible;display:inline;overflow:visible;enable-background:accumulate;font-family:Sans;-inkscape-font-specification:Sans" />
      </g>
    </g>
  </g>
  <rect
     width="18"
     height="18"
     x="0"
     y="0"
     id="canvas"
     style="fill:none;stroke:none;visibility:hidden" />
</svg>
