<?xml version="1.0" encoding="UTF-8" standalone="no"?>
<!-- Created with Inkscape (http://www.inkscape.org/) -->

<svg
   xmlns:dc="http://purl.org/dc/elements/1.1/"
   xmlns:cc="http://creativecommons.org/ns#"
   xmlns:rdf="http://www.w3.org/1999/02/22-rdf-syntax-ns#"
   xmlns:svg="http://www.w3.org/2000/svg"
   xmlns="http://www.w3.org/2000/svg"
   xmlns:inkscape="http://www.inkscape.org/namespaces/inkscape"
   version="1.1"
   width="24"
   height="24"
   id="svg4460">
  <defs
     id="defs4462" />
  <metadata
     id="metadata4465">
    <rdf:RDF>
      <cc:Work
         rdf:about="">
        <dc:format>image/svg+xml</dc:format>
        <dc:type
           rdf:resource="http://purl.org/dc/dcmitype/StillImage" />
        <dc:title />
      </cc:Work>
    </rdf:RDF>
  </metadata>
  <g
     transform="translate(0,-1028.3622)"
     id="layer1">
    <g
       transform="translate(72,-118)"
       id="triangle-stroked-24"
       style="display:inline">
      <g
         transform="translate(-3.125,-11.5)"
         id="g11392">
        <path
           d="m -56.375,1161.8622 c -0.5,-10e-5 -0.72609,0.2394 -0.875,0.5 l -8.5,14 c -0.0881,0.1543 -0.125,0.3274 -0.125,0.5 0,0.75 0.5,1.0002 1,1 l 17,0 c 0.5,2e-4 1,-0.25 1,-1 0,-0.1726 -0.0369,-0.3457 -0.125,-0.5 l -8.5,-14 c -0.14891,-0.2606 -0.375,-0.5001 -0.875,-0.5 z m 0,3 6.78125,11 -13.5625,0 z"
           inkscape:connector-curvature="0"
           id="path11373"
           style="font-size:medium;font-style:normal;font-variant:normal;font-weight:normal;font-stretch:normal;text-indent:0;text-align:start;text-decoration:none;line-height:normal;letter-spacing:normal;word-spacing:normal;text-transform:none;direction:ltr;block-progression:tb;writing-mode:lr-tb;text-anchor:start;baseline-shift:baseline;opacity:0.3;color:#000000;fill:#444444;fill-opacity:1;fill-rule:nonzero;stroke:#ffffff;stroke-width:2;stroke-linecap:butt;stroke-linejoin:miter;stroke-miterlimit:4;stroke-opacity:1;stroke-dasharray:none;stroke-dashoffset:0;marker:none;visibility:visible;display:inline;overflow:visible;enable-background:accumulate;font-family:Sans;-inkscape-font-specification:Sans" />
        <path
           d="m -56.375,1161.8622 c -0.5,-10e-5 -0.72609,0.2394 -0.875,0.5 l -8.5,14 c -0.0881,0.1543 -0.125,0.3274 -0.125,0.5 0,0.75 0.5,1.0002 1,1 l 17,0 c 0.5,2e-4 1,-0.25 1,-1 0,-0.1726 -0.0369,-0.3457 -0.125,-0.5 l -8.5,-14 c -0.14891,-0.2606 -0.375,-0.5001 -0.875,-0.5 z m 0,3 6.78125,11 -13.5625,0 z"
           inkscape:connector-curvature="0"
           id="path11369"
           style="font-size:medium;font-style:normal;font-variant:normal;font-weight:normal;font-stretch:normal;text-indent:0;text-align:start;text-decoration:none;line-height:normal;letter-spacing:normal;word-spacing:normal;text-transform:none;direction:ltr;block-progression:tb;writing-mode:lr-tb;text-anchor:start;baseline-shift:baseline;color:#000000;fill:#444444;fill-opacity:1;fill-rule:nonzero;stroke:none;stroke-width:2;marker:none;visibility:visible;display:inline;overflow:visible;enable-background:accumulate;font-family:Sans;-inkscape-font-specification:Sans" />
      </g>
    </g>
  </g>
  <rect
     width="24"
     height="24"
     x="0"
     y="0"
     id="canvas"
     style="fill:none;stroke:none;visibility:hidden" />
</svg>
