<?xml version="1.0" encoding="UTF-8" standalone="no"?>
<!-- Created with Inkscape (http://www.inkscape.org/) -->

<svg
   xmlns:dc="http://purl.org/dc/elements/1.1/"
   xmlns:cc="http://creativecommons.org/ns#"
   xmlns:rdf="http://www.w3.org/1999/02/22-rdf-syntax-ns#"
   xmlns:svg="http://www.w3.org/2000/svg"
   xmlns="http://www.w3.org/2000/svg"
   xmlns:inkscape="http://www.inkscape.org/namespaces/inkscape"
   version="1.1"
   width="18"
   height="18"
   id="svg4619">
  <defs
     id="defs4621" />
  <metadata
     id="metadata4624">
    <rdf:RDF>
      <cc:Work
         rdf:about="">
        <dc:format>image/svg+xml</dc:format>
        <dc:type
           rdf:resource="http://purl.org/dc/dcmitype/StillImage" />
        <dc:title />
      </cc:Work>
    </rdf:RDF>
  </metadata>
  <g
     transform="translate(0,-1034.3622)"
     id="layer1">
    <g
       transform="translate(48,-112)"
       id="triangle-stroked-18"
       style="display:inline">
      <g
         id="g21244">
        <path
           d="m -38.5,1149.3622 c -0.36111,0 -0.51746,0.1869 -0.625,0.375 l -5.78125,10.5313 c -0.0636,0.1112 -0.09375,0.2503 -0.09375,0.375 0,0.5417 0.35764,0.7189 0.71875,0.7187 l 11.5625,0 c 0.36111,2e-4 0.71875,-0.177 0.71875,-0.7187 0,-0.1243 -0.03015,-0.2635 -0.09375,-0.375 l -5.78125,-10.5313 c -0.10761,-0.1881 -0.26389,-0.375 -0.625,-0.375 z m 0,2 4.5,8.5 -9,0 4.5,-8.5 z"
           inkscape:connector-curvature="0"
           id="path21161"
           style="font-size:medium;font-style:normal;font-variant:normal;font-weight:normal;font-stretch:normal;text-indent:0;text-align:start;text-decoration:none;line-height:normal;letter-spacing:normal;word-spacing:normal;text-transform:none;direction:ltr;block-progression:tb;writing-mode:lr-tb;text-anchor:start;baseline-shift:baseline;opacity:0.3;color:#000000;fill:#444444;fill-opacity:1;fill-rule:nonzero;stroke:#ffffff;stroke-width:2;stroke-linecap:butt;stroke-linejoin:miter;stroke-miterlimit:4;stroke-opacity:1;stroke-dasharray:none;stroke-dashoffset:0;marker:none;visibility:visible;display:inline;overflow:visible;enable-background:accumulate;font-family:Sans;-inkscape-font-specification:Sans" />
        <path
           d="m -38.5,1149.3622 c -0.36111,0 -0.51746,0.1869 -0.625,0.375 l -5.78125,10.5313 c -0.0636,0.1112 -0.09375,0.2503 -0.09375,0.375 0,0.5417 0.35764,0.7189 0.71875,0.7187 l 11.5625,0 c 0.36111,2e-4 0.71875,-0.177 0.71875,-0.7187 0,-0.1243 -0.03015,-0.2635 -0.09375,-0.375 l -5.78125,-10.5313 c -0.10761,-0.1881 -0.26389,-0.375 -0.625,-0.375 z m 0,2 4.5,8.5 -9,0 4.5,-8.5 z"
           inkscape:connector-curvature="0"
           id="path21090-9-5"
           style="font-size:medium;font-style:normal;font-variant:normal;font-weight:normal;font-stretch:normal;text-indent:0;text-align:start;text-decoration:none;line-height:normal;letter-spacing:normal;word-spacing:normal;text-transform:none;direction:ltr;block-progression:tb;writing-mode:lr-tb;text-anchor:start;baseline-shift:baseline;color:#000000;fill:#444444;fill-opacity:1;fill-rule:nonzero;stroke:none;stroke-width:2;marker:none;visibility:visible;display:inline;overflow:visible;enable-background:accumulate;font-family:Sans;-inkscape-font-specification:Sans" />
      </g>
    </g>
  </g>
  <rect
     width="18"
     height="18"
     x="0"
     y="0"
     id="canvas"
     style="fill:none;stroke:none;visibility:hidden" />
</svg>
