<?xml version="1.0" encoding="UTF-8" standalone="no"?>
<!-- Created with Inkscape (http://www.inkscape.org/) -->

<svg
   xmlns:dc="http://purl.org/dc/elements/1.1/"
   xmlns:cc="http://creativecommons.org/ns#"
   xmlns:rdf="http://www.w3.org/1999/02/22-rdf-syntax-ns#"
   xmlns:svg="http://www.w3.org/2000/svg"
   xmlns="http://www.w3.org/2000/svg"
   xmlns:inkscape="http://www.inkscape.org/namespaces/inkscape"
   version="1.1"
   width="12"
   height="12"
   id="svg4764">
  <defs
     id="defs4766" />
  <metadata
     id="metadata4769">
    <rdf:RDF>
      <cc:Work
         rdf:about="">
        <dc:format>image/svg+xml</dc:format>
        <dc:type
           rdf:resource="http://purl.org/dc/dcmitype/StillImage" />
        <dc:title />
      </cc:Work>
    </rdf:RDF>
  </metadata>
  <g
     transform="translate(0,-1040.3622)"
     id="layer1">
    <g
       transform="translate(30,-106)"
       id="triangle-stroked-12"
       style="display:inline">
      <g
         id="g21240">
        <path
           d="m -23.5,1148.3622 c -0.25,0 -0.363045,0.1197 -0.4375,0.25 l -4,7 c -0.04405,0.077 -0.0625,0.1637 -0.0625,0.25 0,0.375 0.25,0.5001 0.5,0.5 l 8,0 c 0.25,10e-5 0.5,-0.125 0.5,-0.5 0,-0.086 -0.01845,-0.1728 -0.0625,-0.25 l -4,-7 c -0.07446,-0.1303 -0.1875,-0.25 -0.4375,-0.25 z m 0,1.5 3,5.5 -6,0 3,-5.5 z"
           inkscape:connector-curvature="0"
           id="path21203"
           style="font-size:medium;font-style:normal;font-variant:normal;font-weight:normal;font-stretch:normal;text-indent:0;text-align:start;text-decoration:none;line-height:normal;letter-spacing:normal;word-spacing:normal;text-transform:none;direction:ltr;block-progression:tb;writing-mode:lr-tb;text-anchor:start;baseline-shift:baseline;opacity:0.3;color:#000000;fill:#444444;fill-opacity:1;fill-rule:nonzero;stroke:#ffffff;stroke-width:2;stroke-linecap:butt;stroke-linejoin:miter;stroke-miterlimit:4;stroke-opacity:1;stroke-dasharray:none;stroke-dashoffset:0;marker:none;visibility:visible;display:inline;overflow:visible;enable-background:accumulate;font-family:Sans;-inkscape-font-specification:Sans" />
        <path
           d="m 96.5,98 c -0.25,0 -0.363045,0.1197 -0.4375,0.25 l -4,7 C 92.01845,105.327 92,105.4137 92,105.5 c 0,0.375 0.25,0.5001 0.5,0.5 l 8,0 c 0.25,1e-4 0.5,-0.125 0.5,-0.5 0,-0.086 -0.0185,-0.1728 -0.0625,-0.25 l -4,-7 C 96.86304,98.1197 96.75,98 96.5,98 z m 0,1.5 3,5.5 -6,0 3,-5.5 z"
           inkscape:connector-curvature="0"
           transform="translate(-120,1050.3622)"
           id="path21088"
           style="font-size:medium;font-style:normal;font-variant:normal;font-weight:normal;font-stretch:normal;text-indent:0;text-align:start;text-decoration:none;line-height:normal;letter-spacing:normal;word-spacing:normal;text-transform:none;direction:ltr;block-progression:tb;writing-mode:lr-tb;text-anchor:start;baseline-shift:baseline;color:#000000;fill:#444444;fill-opacity:1;fill-rule:nonzero;stroke:none;stroke-width:2;marker:none;visibility:visible;display:inline;overflow:visible;enable-background:accumulate;font-family:Sans;-inkscape-font-specification:Sans" />
      </g>
    </g>
  </g>
  <rect
     width="12"
     height="12"
     x="0"
     y="0"
     id="canvas"
     style="fill:none;stroke:none;visibility:hidden" />
</svg>
