<?xml version="1.0" encoding="utf-8"?>
<!-- Generator: Adobe Illustrator 18.1.1, SVG Export Plug-In . SVG Version: 6.00 Build 0)  -->
<svg version="1.1" xmlns="http://www.w3.org/2000/svg" xmlns:xlink="http://www.w3.org/1999/xlink" x="0px" y="0px"
	 viewBox="0 0 12 12" enable-background="new 0 0 12 12" xml:space="preserve">
<g id="shadows-text-objects" display="none">
	<text transform="matrix(1 0 0 1 2.751 9.142)" display="inline" opacity="0.2" font-family="'FrutigerLTStd-Roman'" font-size="9">U</text>
</g>
<g id="letters-text-objects" display="none">
	<text transform="matrix(1 0 0 1 2.251 8.6418)" display="inline" font-family="'FrutigerLTStd-Roman'" font-size="9">U</text>
</g>
<g id="shadows-outlines">
	<g opacity="0.2">
		<path d="M8.44,6.54c0,1.765-0.891,2.71-2.439,2.71c-1.548,0-2.439-0.945-2.439-2.71V2.858h0.9v3.564
			c0,1.206,0.378,2.034,1.539,2.034S7.54,7.629,7.54,6.423V2.858h0.9V6.54z"/>
	</g>
</g>
<g id="letters-outlines">
	<g>
		<path d="M7.94,6.04c0,1.765-0.891,2.71-2.439,2.71c-1.548,0-2.44-0.945-2.44-2.71V2.358h0.9v3.564c0,1.206,0.379,2.034,1.54,2.034
			S7.04,7.129,7.04,5.923V2.358h0.9V6.04z"/>
	</g>
</g>
<g id="guides_and_set-up" display="none">
</g>
</svg>
