<?xml version="1.0" encoding="utf-8"?>
<!-- Generator: Adobe Illustrator 18.1.1, SVG Export Plug-In . SVG Version: 6.00 Build 0)  -->
<svg version="1.1" xmlns="http://www.w3.org/2000/svg" xmlns:xlink="http://www.w3.org/1999/xlink" x="0px" y="0px"
	 viewBox="0 0 18 18" enable-background="new 0 0 18 18" xml:space="preserve">
<g id="shadows-text-objects" display="none">
	
		<text transform="matrix(1 0 0 1 5.5569 13.7503)" display="inline" opacity="0.2" font-family="'FrutigerLTStd-Bold'" font-size="13">U</text>
</g>
<g id="letters-text-objects" display="none">
	<text transform="matrix(1 0 0 1 4.8071 13.0002)" display="inline" font-family="'FrutigerLTStd-Bold'" font-size="13">U</text>
</g>
<g id="shadows-outlines">
	<g opacity="0.2">
		<path d="M6.545,4.676h1.82v5.239c0,1.547,0.494,2.561,1.885,2.561c1.392,0,1.886-1.014,1.886-2.561V4.676h1.819v5.798
			c0,2.432-1.378,3.433-3.705,3.433s-3.705-1.001-3.705-3.433V4.676z"/>
	</g>
</g>
<g id="letters-outlines">
	<g>
		<path d="M5.795,3.926h1.82v5.239c0,1.547,0.494,2.561,1.885,2.561c1.392,0,1.886-1.014,1.886-2.561V3.926h1.819v5.798
			c0,2.432-1.378,3.433-3.705,3.433c-2.326,0-3.705-1.001-3.705-3.433V3.926z"/>
	</g>
</g>
<g id="guides_and_set-up" display="none">
</g>
</svg>
