<?xml version="1.0" encoding="utf-8"?>
<!-- Generator: Adobe Illustrator 18.1.1, SVG Export Plug-In . SVG Version: 6.00 Build 0)  -->
<svg version="1.1" xmlns="http://www.w3.org/2000/svg" xmlns:xlink="http://www.w3.org/1999/xlink" x="0px" y="0px"
	 viewBox="0 0 18 18" enable-background="new 0 0 18 18" xml:space="preserve">
<g id="shadows-text-objects" display="none">
	
		<text transform="matrix(1 0 0 1 5.5569 13.7503)" display="inline" opacity="0.2" font-family="'FrutigerLTStd-Roman'" font-size="13">U</text>
</g>
<g id="letters-text-objects" display="none">
	<text transform="matrix(1 0 0 1 4.8071 13.0002)" display="inline" font-family="'FrutigerLTStd-Roman'" font-size="13">U</text>
</g>
<g id="shadows-outlines">
	<g opacity="0.2">
		<path d="M13.773,9.993c0,2.548-1.287,3.913-3.523,3.913s-3.523-1.365-3.523-3.913V4.676h1.301v5.148
			c0,1.741,0.546,2.938,2.223,2.938c1.678,0,2.224-1.196,2.224-2.938V4.676h1.3V9.993z"/>
	</g>
</g>
<g id="letters-outlines">
	<g>
		<path d="M13.023,9.243c0,2.548-1.287,3.913-3.523,3.913s-3.523-1.365-3.523-3.913V3.926h1.301v5.148
			c0,1.741,0.546,2.938,2.223,2.938c1.678,0,2.224-1.196,2.224-2.938V3.926h1.3V9.243z"/>
	</g>
</g>
<g id="guides_and_set-up" display="none">
</g>
</svg>
