<?xml version="1.0" encoding="utf-8"?>
<!-- Generator: Adobe Illustrator 18.1.1, SVG Export Plug-In . SVG Version: 6.00 Build 0)  -->
<svg version="1.1" xmlns="http://www.w3.org/2000/svg" xmlns:xlink="http://www.w3.org/1999/xlink" x="0px" y="0px"
	 viewBox="0 0 12 12" enable-background="new 0 0 12 12" xml:space="preserve">
<g id="shadows">
	<polygon opacity="0.2" points="7.929,5.128 7.929,3.107 9.214,3.107 9.214,1.822 7.286,1.822 7.286,3.107 7.286,4.669 6,3.75 
		1.5,6.965 2.786,6.965 2.786,10.178 9.214,10.178 9.214,6.965 10.5,6.965 	"/>
</g>
<g id="icons">
	<polygon points="7.429,4.628 7.429,2.607 8.714,2.607 8.714,1.322 6.786,1.322 6.786,2.607 6.786,4.169 5.5,3.25 1,6.465 
		2.286,6.465 2.286,9.678 8.714,9.678 8.714,6.465 10,6.465 	"/>
	<polygon fill="#00A33C" points="6.143,7.107 5.982,7.107 5.5,9.036 4.857,9.036 4.214,9.036 4.214,8.393 4.375,8.393 4.857,6.465 
		5.5,6.465 6.143,6.465 	"/>
	<rect x="5.5" y="5.178" fill="#00A33C" width="1.286" height="0.643"/>
</g>
</svg>
