<?xml version="1.0" encoding="UTF-8" standalone="no"?>
<svg width="24px" height="24px" viewBox="0 0 24 24" version="1.1" xmlns="http://www.w3.org/2000/svg" xmlns:xlink="http://www.w3.org/1999/xlink" xmlns:sketch="http://www.bohemiancoding.com/sketch/ns">
    <!-- Generator: Sketch 3.2.2 (9983) - http://www.bohemiancoding.com/sketch -->
    <title>visitor-center-black-24</title>
    <desc>Created with Sketch.</desc>
    <defs></defs>
    <g id="Page-1" stroke="none" stroke-width="1" fill="none" fill-rule="evenodd" sketch:type="MSPage">
        <g id="artboard" sketch:type="MSArtboardGroup" transform="translate(-1506.000000, -4129.000000)">
            <path d="M1525,4142 L1518,4137.34 L1518,4133 L1520,4133 L1520,4134 L1523,4134 L1523,4130 L1520,4130 L1520,4129 L1517,4129 L1517,4136.67 L1516,4136 L1507,4142 L1506,4142 L1506,4143 L1508,4143 L1508,4151 L1524,4151 L1524,4143 L1526,4143 L1526,4142 L1525,4142" id="Fill-1246" fill="#000000" sketch:type="MSShapeGroup"></path>
            <path d="M1527,4144 L1520,4139.34 L1520,4135 L1522,4135 L1522,4136 L1525,4136 L1525,4132 L1522,4132 L1522,4131 L1519,4131 L1519,4138.67 L1518,4138 L1509,4144 L1508,4144 L1508,4145 L1510,4145 L1510,4153 L1526,4153 L1526,4145 L1528,4145 L1528,4144 L1527,4144" id="Fill-1923" opacity="0.1" fill="#000000" sketch:type="MSShapeGroup"></path>
            <path d="M1526,4143 L1519,4138.34 L1519,4134 L1521,4134 L1521,4135 L1524,4135 L1524,4131 L1521,4131 L1521,4130 L1518,4130 L1518,4137.67 L1517,4137 L1508,4143 L1507,4143 L1507,4144 L1509,4144 L1509,4152 L1525,4152 L1525,4144 L1527,4144 L1527,4143 L1526,4143" id="Fill-1922" opacity="0.2" fill="#000000" sketch:type="MSShapeGroup"></path>
            <path d="M1518,4148 L1516,4150 L1514,4150 L1515,4144 L1514,4144 L1515,4143 L1518,4143 L1517,4144 L1516.33,4148 L1518,4148" id="Fill-1247" fill="#FFFFFF" sketch:type="MSShapeGroup"></path>
            <path d="M1518,4140.56 L1518,4142 L1516,4142 L1516,4140 L1518,4140 L1518,4140.56" id="Fill-1248" fill="#FFFFFF" sketch:type="MSShapeGroup"></path>
        </g>
    </g>
</svg>