<?xml version="1.0" encoding="utf-8"?>
<!-- Generator: Adobe Illustrator 18.1.1, SVG Export Plug-In . SVG Version: 6.00 Build 0)  -->
<svg version="1.1" xmlns="http://www.w3.org/2000/svg" xmlns:xlink="http://www.w3.org/1999/xlink" x="0px" y="0px"
	 viewBox="0 0 24 24" enable-background="new 0 0 24 24" xml:space="preserve">
<g id="shadows">
	<polygon opacity="0.2" points="20.454,14.045 15.046,10.438 15.046,7.091 16.591,7.091 16.591,7.864 18.909,7.864 18.909,4.773 
		16.591,4.773 16.591,4 15.046,4 14.273,4 14.273,9.924 13.5,9.409 6.546,14.045 5.773,14.045 5.773,14.818 7.318,14.818 7.318,21 
		19.682,21 19.682,14.818 21.227,14.818 21.227,14.045 	"/>
</g>
<g id="icons">
	<polygon points="19.454,13.045 14.046,9.438 14.046,6.091 15.591,6.091 15.591,6.864 17.909,6.864 17.909,3.773 15.591,3.773 
		15.591,3 14.046,3 13.273,3 13.273,8.924 12.5,8.409 5.546,13.045 4.773,13.045 4.773,13.818 6.318,13.818 6.318,20 18.682,20 
		18.682,13.818 20.227,13.818 20.227,13.045 	"/>
	<polygon fill="#FFFFFF" points="14.046,17.681 12.5,19.227 10.954,19.227 11.727,14.591 10.954,14.591 11.727,13.818 
		14.046,13.818 13.273,14.591 12.757,17.681 	"/>
	<polygon fill="#FFFFFF" points="14.046,11.931 14.046,12.612 14.046,13.045 13.613,13.045 12.931,13.045 12.5,13.045 12.5,12.612 
		12.5,11.5 12.931,11.5 13.613,11.5 14.046,11.5 	"/>
</g>
</svg>
