<?xml version="1.0" encoding="UTF-8" standalone="no"?>
<svg width="24px" height="24px" viewBox="0 0 24 24" version="1.1" xmlns="http://www.w3.org/2000/svg" xmlns:xlink="http://www.w3.org/1999/xlink" xmlns:sketch="http://www.bohemiancoding.com/sketch/ns">
    <!-- Generator: Sketch 3.2.2 (9983) - http://www.bohemiancoding.com/sketch -->
    <title>visitor-center-black-24</title>
    <desc>Created with Sketch.</desc>
    <defs></defs>
    <g id="Page-1" stroke="none" stroke-width="1" fill="none" fill-rule="evenodd" sketch:type="MSPage">
        <g id="artboard" sketch:type="MSArtboardGroup" transform="translate(-1506.000000, -4129.000000)">
            <path d="M1467.42,301.602 L1567.42,301.602 L1567.42,4429.73 L1467.42,4429.73 L1467.42,301.602 Z" id="Fill-6" fill="#F4F3F2" sketch:type="MSShapeGroup"></path>
            <g id="Group" sketch:type="MSLayerGroup" transform="translate(1503.000000, 546.000000)">
                <path d="M22,3596 L15,3591.34 L15,3587 L17,3587 L17,3588 L20,3588 L20,3584 L17,3584 L17,3583 L14,3583 L14,3590.67 L13,3590 L4,3596 L3,3596 L3,3597 L5,3597 L5,3605 L21,3605 L21,3597 L23,3597 L23,3596 L22,3596" id="Fill-1246" fill="#000000" sketch:type="MSShapeGroup"></path>
                <path d="M24,3598 L17,3593.34 L17,3589 L19,3589 L19,3590 L22,3590 L22,3586 L19,3586 L19,3585 L16,3585 L16,3592.67 L15,3592 L6,3598 L5,3598 L5,3599 L7,3599 L7,3607 L23,3607 L23,3599 L25,3599 L25,3598 L24,3598" id="Fill-1923" opacity="0.1" fill="#000000" sketch:type="MSShapeGroup"></path>
                <path d="M23,3597 L16,3592.34 L16,3588 L18,3588 L18,3589 L21,3589 L21,3585 L18,3585 L18,3584 L15,3584 L15,3591.67 L14,3591 L5,3597 L4,3597 L4,3598 L6,3598 L6,3606 L22,3606 L22,3598 L24,3598 L24,3597 L23,3597" id="Fill-1922" opacity="0.2" fill="#000000" sketch:type="MSShapeGroup"></path>
                <path d="M15,3602 L13,3604 L11,3604 L12,3598 L11,3598 L12,3597 L15,3597 L14,3598 L13.33,3602 L15,3602" id="Fill-1247" fill="#FFFFFF" sketch:type="MSShapeGroup"></path>
                <path d="M15,3594.56 L15,3596 L13,3596 L13,3594 L15,3594 L15,3594.56" id="Fill-1248" fill="#FFFFFF" sketch:type="MSShapeGroup"></path>
            </g>
        </g>
    </g>
</svg>