<?xml version="1.0" encoding="utf-8"?>
<!-- Generator: Adobe Illustrator 18.1.1, SVG Export Plug-In . SVG Version: 6.00 Build 0)  -->
<svg version="1.1" xmlns="http://www.w3.org/2000/svg" xmlns:xlink="http://www.w3.org/1999/xlink" x="0px" y="0px"
	 viewBox="0 0 12 12" enable-background="new 0 0 12 12" xml:space="preserve">
<g id="shadows">
	<polygon opacity="0.2" points="8.929,5.128 8.929,3.107 10.214,3.107 10.214,1.822 8.286,1.822 8.286,3.107 8.286,4.669 7,3.75 
		2.5,6.965 3.786,6.965 3.786,10.178 10.214,10.178 10.214,6.965 11.5,6.965 	"/>
</g>
<g id="icons">
	<polygon points="8.429,4.628 8.429,2.607 9.714,2.607 9.714,1.322 7.786,1.322 7.786,2.607 7.786,4.169 6.5,3.25 2,6.465 
		3.286,6.465 3.286,9.678 9.714,9.678 9.714,6.465 11,6.465 	"/>
	<polygon fill="#FFFFFF" points="7.143,7.107 6.982,7.107 6.5,9.036 5.857,9.036 5.214,9.036 5.214,8.393 5.375,8.393 5.857,6.465 
		6.5,6.465 7.143,6.465 	"/>
	<rect x="6.5" y="5.178" fill="#FFFFFF" width="1.286" height="0.643"/>
</g>
</svg>
