<?xml version="1.0" encoding="UTF-8" standalone="no"?>
<svg width="12px" height="12px" viewBox="0 0 12 12" version="1.1" xmlns="http://www.w3.org/2000/svg" xmlns:xlink="http://www.w3.org/1999/xlink" xmlns:sketch="http://www.bohemiancoding.com/sketch/ns">
    <!-- Generator: Sketch 3.2.2 (9983) - http://www.bohemiancoding.com/sketch -->
    <title>visitor-center-white-12</title>
    <desc>Created with Sketch.</desc>
    <defs></defs>
    <g id="Page-1" stroke="none" stroke-width="1" fill="none" fill-rule="evenodd" sketch:type="MSPage">
        <path d="M9.05882353,5.96959116 L9.05882353,3.5415888 L10.4705882,3.5415888 L10.4705882,2 L8.35294118,2 L8.35294118,5.41461919 L6.94117647,4.3123832 L2,8.1663552 L3.41176471,8.1663552 L3.41176471,12.0203272 L10.4705882,12.0203272 L10.4705882,8.1663552 L11.8823529,8.1663552 L9.05882353,5.96959116" id="Fill-1252" opacity="0.5" fill="#000000" sketch:type="MSShapeGroup"></path>
        <path d="M7.64705882,8.9371496 L7.47058824,8.9371496 L6.94117647,11.2495328 L5.52941176,11.2495328 L5.52941176,10.4787384 L5.70588235,10.4787384 L6.23529412,8.1663552 L7.64705882,8.1663552 L7.64705882,8.9371496" id="Fill-1253" fill-opacity="0.1" fill="#FFFFFF" sketch:type="MSShapeGroup"></path>
        <path d="M6.94117647,6.6247664 L8.35294118,6.6247664 L8.35294118,7.3955608 L6.94117647,7.3955608 L6.94117647,6.6247664 Z" id="Fill-1254" fill-opacity="0.1" fill="#FFFFFF" sketch:type="MSShapeGroup"></path>
        <path d="M8.05882353,4.96959116 L8.05882353,2.5415888 L9.47058824,2.5415888 L9.47058824,1 L7.35294118,1 L7.35294118,4.41461919 L5.94117647,3.3123832 L1,7.1663552 L2.41176471,7.1663552 L2.41176471,11.0203272 L9.47058824,11.0203272 L9.47058824,7.1663552 L10.8823529,7.1663552 L8.05882353,4.96959116" id="Fill-1252" opacity="0.75" fill="#000000" sketch:type="MSShapeGroup"></path>
        <path d="M6.64705882,7.9371496 L6.47058824,7.9371496 L5.94117647,10.2495328 L4.52941176,10.2495328 L4.52941176,9.4787384 L4.70588235,9.4787384 L5.23529412,7.1663552 L6.64705882,7.1663552 L6.64705882,7.9371496" id="Fill-1253" opacity="0.2" fill="#FFFFFF" sketch:type="MSShapeGroup"></path>
        <path d="M5.94117647,5.6247664 L7.35294118,5.6247664 L7.35294118,6.3955608 L5.94117647,6.3955608 L5.94117647,5.6247664 Z" id="Fill-1254" opacity="0.2" fill="#FFFFFF" sketch:type="MSShapeGroup"></path>
        <path d="M7.05882353,3.96959116 L7.05882353,1.5415888 L8.47058824,1.5415888 L8.47058824,0 L6.35294118,0 L6.35294118,3.41461919 L4.94117647,2.3123832 L0,6.1663552 L1.41176471,6.1663552 L1.41176471,10.0203272 L8.47058824,10.0203272 L8.47058824,6.1663552 L9.88235294,6.1663552 L7.05882353,3.96959116" id="Fill-1252" fill="#FFFFFF" sketch:type="MSShapeGroup"></path>
        <path d="M5.64705882,6.9371496 L5.47058824,6.9371496 L4.94117647,9.2495328 L3.52941176,9.2495328 L3.52941176,8.4787384 L3.70588235,8.4787384 L4.23529412,6.1663552 L5.64705882,6.1663552 L5.64705882,6.9371496" id="Fill-1253" fill="#000000" sketch:type="MSShapeGroup"></path>
        <path d="M4.94117647,4.6247664 L6.35294118,4.6247664 L6.35294118,5.3955608 L4.94117647,5.3955608 L4.94117647,4.6247664 Z" id="Fill-1254" fill="#000000" sketch:type="MSShapeGroup"></path>
    </g>
</svg>