<?xml version="1.0" encoding="UTF-8" standalone="no"?>
<svg width="24px" height="24px" viewBox="0 0 24 24" version="1.1" xmlns="http://www.w3.org/2000/svg" xmlns:xlink="http://www.w3.org/1999/xlink" xmlns:sketch="http://www.bohemiancoding.com/sketch/ns">
    <!-- Generator: Sketch 3.2.2 (9983) - http://www.bohemiancoding.com/sketch -->
    <title>visitor-center-white-24</title>
    <desc>Created with Sketch.</desc>
    <defs></defs>
    <g id="Page-1" stroke="none" stroke-width="1" fill="none" fill-rule="evenodd" sketch:type="MSPage">
        <g id="artboard" sketch:type="MSArtboardGroup" transform="translate(-1706.000000, -4129.000000)">
            <path d="M1727,4144 L1720,4139.34 L1720,4135 L1722,4135 L1722,4136 L1725,4136 L1725,4132 L1722,4132 L1722,4131 L1719,4131 L1719,4138.67 L1718,4138 L1709,4144 L1708,4144 L1708,4145 L1710,4145 L1710,4153 L1726,4153 L1726,4145 L1728,4145 L1728,4144 L1727,4144" id="Fill-1925" opacity="0.5" fill="#000000" sketch:type="MSShapeGroup"></path>
            <path d="M1726,4143 L1719,4138.34 L1719,4134 L1721,4134 L1721,4135 L1724,4135 L1724,4131 L1721,4131 L1721,4130 L1718,4130 L1718,4137.67 L1717,4137 L1708,4143 L1707,4143 L1707,4144 L1709,4144 L1709,4152 L1725,4152 L1725,4144 L1727,4144 L1727,4143 L1726,4143" id="Fill-1924" opacity="0.75" fill="#000000" sketch:type="MSShapeGroup"></path>
            <path d="M1725,4142 L1718,4137.34 L1718,4133 L1720,4133 L1720,4134 L1723,4134 L1723,4130 L1720,4130 L1720,4129 L1717,4129 L1717,4136.67 L1716,4136 L1707,4142 L1706,4142 L1706,4143 L1708,4143 L1708,4151 L1724,4151 L1724,4143 L1726,4143 L1726,4142 L1725,4142" id="Fill-1249" fill="#FFFFFF" sketch:type="MSShapeGroup"></path>
            <path d="M1718,4148 L1716,4150 L1714,4150 L1715,4144 L1714,4144 L1715,4143 L1718,4143 L1717,4144 L1716.33,4148 L1718,4148" id="Fill-1250" fill="#000000" sketch:type="MSShapeGroup"></path>
            <path d="M1718,4140.56 L1718,4142 L1716,4142 L1716,4140 L1718,4140 L1718,4140.56" id="Fill-1251" fill="#000000" sketch:type="MSShapeGroup"></path>
        </g>
    </g>
</svg>