<?xml version="1.0" encoding="utf-8"?>
<!-- Generator: Adobe Illustrator 18.1.1, SVG Export Plug-In . SVG Version: 6.00 Build 0)  -->
<svg version="1.1" xmlns="http://www.w3.org/2000/svg" xmlns:xlink="http://www.w3.org/1999/xlink" x="0px" y="0px"
	 viewBox="0 0 12 12" enable-background="new 0 0 12 12" xml:space="preserve">
<g id="shadows-text-objects" display="none">
	<text transform="matrix(1 0 0 1 1.5 9.142)" display="inline" opacity="0.2" font-family="'FrutigerLTStd-Roman'" font-size="9">W</text>
</g>
<g id="letters-text-objects" display="none">
	<text transform="matrix(1 0 0 1 1 8.6418)" display="inline" font-family="'FrutigerLTStd-Roman'" font-size="9">W</text>
</g>
<g id="shadows-outlines">
	<g opacity="0.2">
		<path d="M1.519,2.858h0.99l1.503,5.383H4.03l1.341-5.383h1.278l1.359,5.383h0.019L9.53,2.858h0.954L8.549,9.142H7.388L6.02,3.65
			H6.002L4.624,9.142H3.418L1.519,2.858z"/>
	</g>
</g>
<g id="letters-outlines">
	<g>
		<path d="M1.018,2.358h0.99l1.504,5.383h0.018l1.342-5.383h1.278l1.359,5.383h0.019L9.03,2.358h0.954L8.049,8.642H6.888L5.52,3.15
			H5.502L4.124,8.642H2.918L1.018,2.358z"/>
	</g>
</g>
<g id="guides_and_set-up" display="none">
</g>
</svg>
