<?xml version="1.0" encoding="utf-8"?>
<!-- Generator: Adobe Illustrator 18.1.1, SVG Export Plug-In . SVG Version: 6.00 Build 0)  -->
<svg version="1.1" xmlns="http://www.w3.org/2000/svg" xmlns:xlink="http://www.w3.org/1999/xlink" x="0px" y="0px"
	 viewBox="0 0 18 18" enable-background="new 0 0 18 18" xml:space="preserve">
<g id="shadows-text-objects" display="none">
	
		<text transform="matrix(1 0 0 1 3.7497 13.7503)" display="inline" opacity="0.2" font-family="'FrutigerLTStd-Bold'" font-size="13">W</text>
</g>
<g id="letters-text-objects" display="none">
	<text transform="matrix(1 0 0 1 3 13.0002)" display="inline" font-family="'FrutigerLTStd-Bold'" font-size="13">W</text>
</g>
<g id="shadows-outlines">
	<g opacity="0.2">
		<path d="M3.88,4.676h1.911L7.48,11.93h0.026l1.547-7.254h2.471l1.599,7.254h0.026l1.703-7.254h1.768l-2.366,9.074h-2.34
			l-1.638-7.254H10.25L8.638,13.75H6.285L3.88,4.676z"/>
	</g>
</g>
<g id="letters-outlines">
	<g>
		<path d="M3.13,3.926h1.911L6.73,11.18h0.027l1.547-7.254h2.47l1.599,7.254h0.026l1.703-7.254h1.768L13.504,13h-2.34L9.526,5.746
			H9.5L7.889,13H5.535L3.13,3.926z"/>
	</g>
</g>
<g id="guides_and_set-up" display="none">
</g>
</svg>
