<?xml version="1.0" encoding="utf-8"?>
<!-- Generator: Adobe Illustrator 18.1.1, SVG Export Plug-In . SVG Version: 6.00 Build 0)  -->
<svg version="1.1" xmlns="http://www.w3.org/2000/svg" xmlns:xlink="http://www.w3.org/1999/xlink" x="0px" y="0px"
	 viewBox="0 0 18 18" enable-background="new 0 0 18 18" xml:space="preserve">
<g id="shadows-text-objects" display="none">
	
		<text transform="matrix(1 0 0 1 3.7497 13.7503)" display="inline" opacity="0.2" font-family="'FrutigerLTStd-Roman'" font-size="13">W</text>
</g>
<g id="letters-text-objects" display="none">
	<text transform="matrix(1 0 0 1 3 13.0002)" display="inline" font-family="'FrutigerLTStd-Roman'" font-size="13">W</text>
</g>
<g id="shadows-outlines">
	<g opacity="0.2">
		<path d="M3.775,4.676h1.431l2.171,7.774h0.026L9.34,4.676h1.847l1.963,7.774h0.026l2.171-7.774h1.378L13.93,13.75h-1.678
			l-1.976-7.93H10.25l-1.989,7.93H6.519L3.775,4.676z"/>
	</g>
</g>
<g id="letters-outlines">
	<g>
		<path d="M3.025,3.926h1.431L6.627,11.7h0.026L8.59,3.926h1.847l1.963,7.774h0.026l2.171-7.774h1.378L13.18,13h-1.678L9.526,5.07
			H9.5L7.512,13H5.77L3.025,3.926z"/>
	</g>
</g>
<g id="guides_and_set-up" display="none">
</g>
</svg>
