<?xml version="1.0" encoding="utf-8"?>
<!-- Generator: Adobe Illustrator 18.1.1, SVG Export Plug-In . SVG Version: 6.00 Build 0)  -->
<svg version="1.1" xmlns="http://www.w3.org/2000/svg" xmlns:xlink="http://www.w3.org/1999/xlink" x="0px" y="0px"
	 viewBox="0 0 12 12" enable-background="new 0 0 12 12" xml:space="preserve">
<g id="shadows-text-objects" display="none">
	<text transform="matrix(1 0 0 1 1.5 9.142)" display="inline" opacity="0.2" font-family="'FrutigerLTStd-Bold'" font-size="9">W</text>
</g>
<g id="letters-text-objects" display="none">
	<text transform="matrix(1 0 0 1 1 8.6418)" display="inline" font-family="'FrutigerLTStd-Bold'" font-size="9">W</text>
</g>
<g id="shadows-outlines">
	<g opacity="0.2">
		<path d="M1.59,2.858h1.324l1.17,5.022h0.018l1.071-5.022h1.711l1.107,5.022h0.018l1.18-5.022h1.225L8.774,9.142H7.153L6.02,4.118
			H6.002L4.885,9.142H3.256L1.59,2.858z"/>
	</g>
</g>
<g id="letters-outlines">
	<g>
		<path d="M1.09,2.358h1.324l1.17,5.022h0.018l1.071-5.022h1.711l1.107,5.022h0.018l1.18-5.022h1.225L8.274,8.642H6.653L5.52,3.618
			H5.502L4.385,8.642H2.756L1.09,2.358z"/>
	</g>
</g>
<g id="guides_and_set-up" display="none">
</g>
</svg>
