<?xml version="1.0" encoding="utf-8"?>
<!-- Generator: Adobe Illustrator 18.1.1, SVG Export Plug-In . SVG Version: 6.00 Build 0)  -->
<svg version="1.1" xmlns="http://www.w3.org/2000/svg" xmlns:xlink="http://www.w3.org/1999/xlink" x="0px" y="0px"
	 viewBox="0 0 24 24" enable-background="new 0 0 24 24" xml:space="preserve">
<g id="shadows-text-objects" display="none">
	
		<text transform="matrix(1 0 0 1 4.9999 18.4326)" display="inline" opacity="0.2" font-family="'FrutigerLTStd-Roman'" font-size="17">W</text>
</g>
<g id="letters-text-objects" display="none">
	<text transform="matrix(1 0 0 1 4 17.4329)" display="inline" font-family="'FrutigerLTStd-Roman'" font-size="17">W</text>
</g>
<g id="shadows-outlines">
	<g opacity="0.2">
		<path d="M5.034,6.568h1.87l2.839,10.164h0.034l2.533-10.164h2.414l2.567,10.164h0.034l2.838-10.164h1.802L18.31,18.433h-2.192
			L13.533,8.063h-0.034l-2.601,10.369H8.621L5.034,6.568z"/>
	</g>
</g>
<g id="letters-outlines">
	<g>
		<path d="M4.034,5.568h1.87l2.839,10.164h0.034l2.533-10.164h2.414l2.567,10.164h0.034l2.838-10.164h1.802L17.31,17.433h-2.192
			L12.533,7.063h-0.034L9.898,17.433H7.621L4.034,5.568z"/>
	</g>
</g>
<g id="guides_and_set-up" display="none">
</g>
</svg>
