<?xml version="1.0" encoding="utf-8"?>
<!-- Generator: Adobe Illustrator 18.1.1, SVG Export Plug-In . SVG Version: 6.00 Build 0)  -->
<svg version="1.1" xmlns="http://www.w3.org/2000/svg" xmlns:xlink="http://www.w3.org/1999/xlink" x="0px" y="0px"
	 viewBox="0 0 24 24" enable-background="new 0 0 24 24" xml:space="preserve">
<g id="shadows-text-objects" display="none">
	
		<text transform="matrix(1 0 0 1 4.9999 18.4326)" display="inline" opacity="0.2" font-family="'FrutigerLTStd-Bold'" font-size="17">W</text>
</g>
<g id="letters-text-objects" display="none">
	<text transform="matrix(1 0 0 1 4 17.4329)" display="inline" fill="#FFFFFF" font-family="'FrutigerLTStd-Bold'" font-size="17">W</text>
</g>
<g id="shadows-outlines">
	<g opacity="0.2">
		<path d="M5.17,6.568h2.499l2.209,9.484h0.034l2.023-9.484h3.229l2.091,9.484h0.034l2.227-9.484h2.312l-3.094,11.864h-3.06
			l-2.142-9.485h-0.034l-2.107,9.485H8.314L5.17,6.568z"/>
	</g>
</g>
<g id="letters-outlines">
	<g>
		<path fill="#FFFFFF" d="M4.17,5.568h2.499l2.21,9.484h0.033l2.023-9.484h3.229l2.091,9.484h0.034l2.227-9.484h2.312l-3.094,11.864
			h-3.06l-2.142-9.484h-0.034l-2.107,9.484H7.314L4.17,5.568z"/>
	</g>
</g>
<g id="guides_and_set-up" display="none">
</g>
</svg>
