<?xml version="1.0" encoding="UTF-8" standalone="no"?>
<!-- Created with Inkscape (http://www.inkscape.org/) -->

<svg
   xmlns:dc="http://purl.org/dc/elements/1.1/"
   xmlns:cc="http://creativecommons.org/ns#"
   xmlns:rdf="http://www.w3.org/1999/02/22-rdf-syntax-ns#"
   xmlns:svg="http://www.w3.org/2000/svg"
   xmlns="http://www.w3.org/2000/svg"
   xmlns:inkscape="http://www.inkscape.org/namespaces/inkscape"
   version="1.1"
   width="18"
   height="18"
   id="svg4619">
  <defs
     id="defs4621" />
  <metadata
     id="metadata4624">
    <rdf:RDF>
      <cc:Work
         rdf:about="">
        <dc:format>image/svg+xml</dc:format>
        <dc:type
           rdf:resource="http://purl.org/dc/dcmitype/StillImage" />
        <dc:title />
      </cc:Work>
    </rdf:RDF>
  </metadata>
  <g
     transform="translate(0,-1034.3622)"
     id="layer1">
    <g
       transform="translate(-342,-232)"
       id="waste-basket-18"
       style="display:inline">
      <path
         d="m 349.518,1268.3622 c -0.20411,0 -0.268,0.1643 -0.268,0.3684 l 0,1.6316 -2.51315,0 c -0.40822,0 -0.73685,0.092 -0.73685,0.5 0,0.4083 0.32863,0.5 0.73685,0.5 l 9.52631,0 c 0.40821,0 0.73684,-0.092 0.73684,-0.5 0,-0.4082 -0.32863,-0.5 -0.73684,-0.5 l -2.51316,0 0,-1.6316 c 0,-0.2041 -0.16389,-0.3684 -0.368,-0.3684 z m 0.482,0.7368 3,0 0,1.2632 -3,0 z m -3.26315,3.2632 c -0.40822,0 -0.78834,0.3343 -0.72122,0.7369 l 1.40542,8.5263 c 0.0664,0.4027 0.32863,0.7368 0.73685,0.7368 l 6.63157,0 c 0.40822,0 0.66972,-0.3342 0.73685,-0.7368 l 1.45805,-8.5263 c 0.0688,-0.4023 -0.313,-0.7369 -0.72121,-0.7369 z"
         inkscape:connector-curvature="0"
         id="path5675"
         style="opacity:0.3;color:#000000;fill:none;stroke:#ffffff;stroke-width:2;stroke-linecap:round;stroke-linejoin:round;stroke-miterlimit:4;stroke-opacity:1;stroke-dasharray:none;stroke-dashoffset:0;marker:none;visibility:visible;display:inline;overflow:visible;enable-background:accumulate" />
      <path
         d="m 349.518,1268.3622 c -0.20411,0 -0.268,0.1643 -0.268,0.3684 l 0,1.6316 -2.51315,0 c -0.40822,0 -0.73685,0.092 -0.73685,0.5 0,0.4083 0.32863,0.5 0.73685,0.5 l 9.52631,0 c 0.40821,0 0.73684,-0.092 0.73684,-0.5 0,-0.4082 -0.32863,-0.5 -0.73684,-0.5 l -2.51316,0 0,-1.6316 c 0,-0.2041 -0.16389,-0.3684 -0.368,-0.3684 z m 0.482,0.7368 3,0 0,1.2632 -3,0 z m -3.26315,3.2632 c -0.40822,0 -0.78834,0.3343 -0.72122,0.7369 l 1.40542,8.5263 c 0.0664,0.4027 0.32863,0.7368 0.73685,0.7368 l 6.63157,0 c 0.40822,0 0.66972,-0.3342 0.73685,-0.7368 l 1.45805,-8.5263 c 0.0688,-0.4023 -0.313,-0.7369 -0.72121,-0.7369 z"
         inkscape:connector-curvature="0"
         id="path5652"
         style="color:#000000;fill:#444444;fill-opacity:1;fill-rule:nonzero;stroke:none;stroke-width:2;marker:none;visibility:visible;display:inline;overflow:visible;enable-background:accumulate" />
    </g>
  </g>
  <rect
     width="18"
     height="18"
     x="0"
     y="0"
     id="canvas"
     style="fill:none;stroke:none;visibility:hidden" />
</svg>
