<?xml version="1.0" encoding="UTF-8" standalone="no"?>
<!-- Created with Inkscape (http://www.inkscape.org/) -->

<svg
   xmlns:dc="http://purl.org/dc/elements/1.1/"
   xmlns:cc="http://creativecommons.org/ns#"
   xmlns:rdf="http://www.w3.org/1999/02/22-rdf-syntax-ns#"
   xmlns:svg="http://www.w3.org/2000/svg"
   xmlns="http://www.w3.org/2000/svg"
   xmlns:inkscape="http://www.inkscape.org/namespaces/inkscape"
   version="1.1"
   width="24"
   height="24"
   id="svg4460">
  <defs
     id="defs4462" />
  <metadata
     id="metadata4465">
    <rdf:RDF>
      <cc:Work
         rdf:about="">
        <dc:format>image/svg+xml</dc:format>
        <dc:type
           rdf:resource="http://purl.org/dc/dcmitype/StillImage" />
        <dc:title />
      </cc:Work>
    </rdf:RDF>
  </metadata>
  <g
     transform="translate(0,-1028.3622)"
     id="layer1">
    <g
       transform="translate(-318,-238)"
       id="waste-basket-24"
       style="display:inline">
      <path
         d="m 328.5,1268.3622 c -0.277,0 -0.5,0.223 -0.5,0.5 l 0,1.5 -4,0 c -0.554,0 -1,0.446 -1,1 0,0.554 0.446,1 1,1 l 13,0 c 0.554,0 1,-0.446 1,-1 0,-0.554 -0.446,-1 -1,-1 l -4,0 0,-1.5 c 0,-0.277 -0.22299,-0.5 -0.5,-0.5 z m 0.5,1 3,0 0,1 -3,0 z m -5,4 c -0.554,0 -1.07547,0.4536 -0.98437,1 l 1.98437,12 c 0.0904,0.5465 0.446,1 1,1 l 9,0 c 0.554,0 0.9089,-0.4536 1,-1 l 1.98437,-12 c 0.0904,-0.5465 -0.43037,-1 -0.98437,-1 z"
         inkscape:connector-curvature="0"
         id="path5667"
         style="opacity:0.3;color:#000000;fill:none;stroke:#ffffff;stroke-width:2;stroke-linecap:round;stroke-linejoin:round;stroke-miterlimit:4;stroke-opacity:1;stroke-dasharray:none;stroke-dashoffset:0;marker:none;visibility:visible;display:inline;overflow:visible;enable-background:accumulate" />
      <path
         d="m 328.5,1268.3622 c -0.277,0 -0.5,0.223 -0.5,0.5 l 0,1.5 -4,0 c -0.554,0 -1,0.446 -1,1 0,0.554 0.446,1 1,1 l 13,0 c 0.554,0 1,-0.446 1,-1 0,-0.554 -0.446,-1 -1,-1 l -4,0 0,-1.5 c 0,-0.277 -0.22299,-0.5 -0.5,-0.5 z m 0.5,1 3,0 0,1 -3,0 z m -5,4 c -0.554,0 -1.07547,0.4536 -0.98437,1 l 1.98437,12 c 0.0904,0.5465 0.446,1 1,1 l 9,0 c 0.554,0 0.9089,-0.4536 1,-1 l 1.98437,-12 c 0.0904,-0.5465 -0.43037,-1 -0.98437,-1 z"
         inkscape:connector-curvature="0"
         id="rect5636"
         style="color:#000000;fill:#444444;fill-opacity:1;fill-rule:nonzero;stroke:none;stroke-width:2;marker:none;visibility:visible;display:inline;overflow:visible;enable-background:accumulate" />
    </g>
  </g>
  <rect
     width="24"
     height="24"
     x="0"
     y="0"
     id="canvas"
     style="fill:none;stroke:none;visibility:hidden" />
</svg>
