<?xml version="1.0" encoding="UTF-8" standalone="no"?>
<!-- Created with Inkscape (http://www.inkscape.org/) -->

<svg
   xmlns:dc="http://purl.org/dc/elements/1.1/"
   xmlns:cc="http://creativecommons.org/ns#"
   xmlns:rdf="http://www.w3.org/1999/02/22-rdf-syntax-ns#"
   xmlns:svg="http://www.w3.org/2000/svg"
   xmlns="http://www.w3.org/2000/svg"
   xmlns:inkscape="http://www.inkscape.org/namespaces/inkscape"
   version="1.1"
   width="18"
   height="18"
   id="svg4619">
  <defs
     id="defs4621" />
  <metadata
     id="metadata4624">
    <rdf:RDF>
      <cc:Work
         rdf:about="">
        <dc:format>image/svg+xml</dc:format>
        <dc:type
           rdf:resource="http://purl.org/dc/dcmitype/StillImage" />
        <dc:title />
      </cc:Work>
    </rdf:RDF>
  </metadata>
  <g
     transform="translate(0,-1034.3622)"
     id="layer1">
    <g
       transform="translate(-264,-280)"
       id="wetland-18"
       style="display:inline">
      <path
         d="m 277,1317.3622 c -1,0 -2.78873,1.8029 -3.09375,3.4063 l -0.9375,4.875 0.53125,-0.2813 2,1 0.90625,-0.375 c 0.13935,-0.7507 0.46178,-2.4691 0.59375,-3.125 0.15329,-0.7618 0.8,-1.5 1.5,-1.5 l 1,0 -1,-1 -0.5,0 -1,0 -1,1 0,-1 c 0,-1 1.00625,-2 1.90625,-2 l 1.09375,0 -1,-1 -1,0 z m -8.5,3 -1,1 1,0 c 0.7,0 1.34671,0.7382 1.5,1.5 0.13324,0.6622 0.45816,2.4257 0.59375,3.1563 l 0.875,0.3437 0.84375,-0.4062 -0.8125,-3.5938 c -0.09,-0.4006 -0.20226,-0.6854 -0.5,-1 l -1,-1 -1,0 -0.5,0 z m 0.5,6 -2,1 0,1.5 2,-1 2.5,1 2,-1 2,1 2.5,-0.8437 2,0.8437 0,-1.5 -2,-1 -2.5,1 -2,-1 -2,1 -2.5,-1 z"
         inkscape:connector-curvature="0"
         id="path4787"
         style="opacity:0.3;color:#000000;fill:none;stroke:#ffffff;stroke-width:2;stroke-linecap:round;stroke-linejoin:round;stroke-miterlimit:4;stroke-opacity:1;stroke-dasharray:none;stroke-dashoffset:0;marker:none;visibility:visible;display:inline;overflow:visible;enable-background:accumulate" />
      <path
         d="m 277,1317.3622 c -1,0 -2.78873,1.8029 -3.09375,3.4063 l -0.9375,4.875 0.53125,-0.2813 2,1 0.90625,-0.375 c 0.13935,-0.7507 0.46178,-2.4691 0.59375,-3.125 0.15329,-0.7618 0.8,-1.5 1.5,-1.5 l 1,0 -1,-1 -0.5,0 -1,0 -1,1 0,-1 c 0,-1 1.00625,-2 1.90625,-2 l 1.09375,0 -1,-1 -1,0 z m -8.5,3 -1,1 1,0 c 0.7,0 1.34671,0.7382 1.5,1.5 0.13324,0.6622 0.45816,2.4257 0.59375,3.1563 l 0.875,0.3437 0.84375,-0.4062 -0.8125,-3.5938 c -0.09,-0.4006 -0.20226,-0.6854 -0.5,-1 l -1,-1 -1,0 -0.5,0 z m 0.5,6 -2,1 0,1.5 2,-1 2.5,1 2,-1 2,1 2.5,-0.8437 2,0.8437 0,-1.5 -2,-1 -2.5,1 -2,-1 -2,1 -2.5,-1 z"
         inkscape:connector-curvature="0"
         id="path4393-0"
         style="color:#000000;fill:#444444;fill-opacity:1;fill-rule:nonzero;stroke:none;stroke-width:2.79999375;marker:none;visibility:visible;display:inline;overflow:visible;enable-background:accumulate" />
    </g>
  </g>
  <rect
     width="18"
     height="18"
     x="0"
     y="0"
     id="canvas"
     style="fill:none;stroke:none;visibility:hidden" />
</svg>
