<?xml version="1.0" encoding="utf-8"?>
<!-- Generator: Adobe Illustrator 18.0.0, SVG Export Plug-In . SVG Version: 6.00 Build 0)  -->
<!DOCTYPE svg PUBLIC "-//W3C//DTD SVG 1.1//EN" "http://www.w3.org/Graphics/SVG/1.1/DTD/svg11.dtd" [
	<!ENTITY ns_flows "http://ns.adobe.com/Flows/1.0/">
	<!ENTITY ns_extend "http://ns.adobe.com/Extensibility/1.0/">
	<!ENTITY ns_ai "http://ns.adobe.com/AdobeIllustrator/10.0/">
	<!ENTITY ns_graphs "http://ns.adobe.com/Graphs/1.0/">
	<!ENTITY st0 "opacity:0.5;">
	<!ENTITY st1 "fill:#010101;">
	<!ENTITY st2 "opacity:0.75;">
	<!ENTITY st3 "fill:#FFFFFF;">
]>
<svg version="1.1" id="Layer_1" xmlns:x="&ns_extend;" xmlns:i="&ns_ai;" xmlns:graph="&ns_graphs;"
	 xmlns="http://www.w3.org/2000/svg" xmlns:xlink="http://www.w3.org/1999/xlink" xmlns:a="http://ns.adobe.com/AdobeSVGViewerExtensions/3.0/"
	 x="0px" y="0px" width="22px" height="24px" viewBox="0 0 22 24" style="enable-background:new 0 0 22 24;" xml:space="preserve">
<g style="&st0;">
	<polygon style="&st1;" points="21,19 20,19 16,13 10,13 10,11 13,11 14,10 13,9 10,9 10,8 9,7 8,7 7,8 7,14 9,16 15,16 19,21 
		21,21 22,20 22,19 	"/>
	<path style="&st1;" d="M14.4,19c-0.9,1.8-2.8,3-4.9,3c-3,0-5.5-2.5-5.5-5.5c0-1.7,0.8-3.2,2-4.2V10c-2.4,1.3-4,3.6-4,6.5
		C2,20.6,5.4,24,9.5,24c2.8,0,5.2-1.5,6.5-3.8V19H14.4z"/>
	<polygon style="&st1;" points="8,2 10,2 10,3 11,3 11,5 10,5 10,6 8,6 8,5 7,5 7,3 8,3 	"/>
</g>
<g style="&st2;">
	<polygon style="&st1;" points="20,18 19,18 15,12 9,12 9,10 12,10 13,9 12,8 9,8 9,7 8,6 7,6 6,7 6,13 8,15 14,15 18,20 20,20 
		21,19 21,18 	"/>
	<path style="&st1;" d="M13.4,18c-0.9,1.8-2.8,3-4.9,3c-3,0-5.5-2.5-5.5-5.5c0-1.7,0.8-3.2,2-4.2V9c-2.4,1.3-4,3.6-4,6.5
		C1,19.6,4.4,23,8.5,23c2.8,0,5.2-1.5,6.5-3.8V18H13.4z"/>
	<polygon style="&st1;" points="7,1 9,1 9,2 10,2 10,4 9,4 9,5 7,5 7,4 6,4 6,2 7,2 	"/>
</g>
<g>
	<polygon style="&st3;" points="19,17 18,17 14,11 8,11 8,9 11,9 12,8 11,7 8,7 8,6 7,5 6,5 5,6 5,12 7,14 13,14 17,19 19,19 20,18 
		20,17 	"/>
	<path style="&st3;" d="M12.4,17c-0.9,1.8-2.8,3-4.9,3c-3,0-5.5-2.5-5.5-5.5c0-1.7,0.8-3.2,2-4.2V8c-2.4,1.3-4,3.6-4,6.5
		C0,18.6,3.4,22,7.5,22c2.8,0,5.2-1.5,6.5-3.8V17H12.4z"/>
	<polygon style="&st3;" points="6,0 8,0 8,1 9,1 9,3 8,3 8,4 6,4 6,3 5,3 5,1 6,1 	"/>
</g>
</svg>
