<?xml version="1.0" encoding="UTF-8" standalone="no"?>
<!-- Created with Inkscape (http://www.inkscape.org/) -->

<svg
   xmlns:dc="http://purl.org/dc/elements/1.1/"
   xmlns:cc="http://creativecommons.org/ns#"
   xmlns:rdf="http://www.w3.org/1999/02/22-rdf-syntax-ns#"
   xmlns:svg="http://www.w3.org/2000/svg"
   xmlns="http://www.w3.org/2000/svg"
   xmlns:sodipodi="http://sodipodi.sourceforge.net/DTD/sodipodi-0.dtd"
   xmlns:inkscape="http://www.inkscape.org/namespaces/inkscape"
   width="24"
   height="24"
   id="svg27349"
   version="1.1"
   inkscape:version="0.48.2 r9819"
   sodipodi:docname="telephone-white-24.svg">
  <defs
     id="defs27351" />
  <sodipodi:namedview
     id="base"
     pagecolor="#ffffff"
     bordercolor="#666666"
     borderopacity="1.0"
     inkscape:pageopacity="0.0"
     inkscape:pageshadow="2"
     inkscape:zoom="8.6123905"
     inkscape:cx="11.808263"
     inkscape:cy="10.533919"
     inkscape:document-units="px"
     inkscape:current-layer="layer1"
     showgrid="false"
     inkscape:window-width="483"
     inkscape:window-height="454"
     inkscape:window-x="3648"
     inkscape:window-y="148"
     inkscape:window-maximized="0"
     gridtolerance="10">
    <inkscape:grid
       type="xygrid"
       id="grid3004"
       empspacing="5"
       visible="true"
       enabled="true"
       snapvisiblegridlinesonly="true" />
  </sodipodi:namedview>
  <metadata
     id="metadata27354">
    <rdf:RDF>
      <cc:Work
         rdf:about="">
        <dc:format>image/svg+xml</dc:format>
        <dc:type
           rdf:resource="http://purl.org/dc/dcmitype/StillImage" />
        <dc:title></dc:title>
      </cc:Work>
    </rdf:RDF>
  </metadata>
  <g
     inkscape:label="Layer 1"
     inkscape:groupmode="layer"
     id="layer1"
     transform="translate(0,-1028.3622)">
    <g
       id="g19793"
       transform="matrix(2.4264483,0,0,2.4264483,53.088667,-711.0356)">
      <path
         style="opacity:0;fill:#272525"
         inkscape:connector-curvature="0"
         id="path19795"
         d="m -20.666,726.756 c -0.652,0 -1.182,-0.529 -1.182,-1.184 v -7.523 c 0,-0.652 0.529,-1.182 1.182,-1.182 h 7.527 c 0.652,0 1.182,0.529 1.182,1.182 v 7.523 c 0,0.654 -0.529,1.184 -1.182,1.184 h -7.527 z" />
      <g
         transform="translate(-25.724,1.562)"
         id="g19797"
         style="opacity:0.6;fill:none;stroke:#1b1b1c;stroke-width:0.5;stroke-miterlimit:4;stroke-opacity:1;stroke-dasharray:none">
        <circle
           d="m 26.527,699.59802 c 0,0.36561 -0.296388,0.662 -0.662,0.662 -0.365613,0 -0.662,-0.29639 -0.662,-0.662 0,-0.36561 0.296387,-0.662 0.662,-0.662 0.365612,0 0.662,0.29639 0.662,0.662 z"
           style="fill:none;stroke:#1b1b1c;stroke-width:0.5;stroke-miterlimit:4;stroke-opacity:1;stroke-dasharray:none"
           sodipodi:ry="0.662"
           sodipodi:rx="0.662"
           sodipodi:cy="699.59802"
           sodipodi:cx="25.865"
           id="circle19799"
           r="0.662"
           cy="699.59802"
           cx="25.865"
           transform="translate(-17.832,17.45)" />
        <path
           style="fill:none;stroke:#1b1b1c;stroke-width:0.5;stroke-miterlimit:4;stroke-opacity:1;stroke-dasharray:none"
           inkscape:connector-curvature="0"
           id="path19801"
           d="m 8.459,723.393 c -1.086,0 -1.967,-0.879 -1.967,-1.967 0,-0.596 0.27,-1.127 0.689,-1.488 l -0.035,-0.615 c -0.703,0.439 -1.176,1.213 -1.176,2.104 0,1.373 1.113,2.488 2.488,2.488 1.012,0 1.877,-0.609 2.266,-1.477 l -0.35,-0.605 c -0.187,0.888 -0.97,1.56 -1.915,1.56 z" />
        <path
           style="fill:none;stroke:#1b1b1c;stroke-width:0.5;stroke-miterlimit:4;stroke-opacity:1;stroke-dasharray:none"
           inkscape:connector-curvature="0"
           id="path19803"
           d="m 12.367,722.221 h -0.459 l -1.119,-1.93 c -0.07,-0.119 -0.193,-0.185 -0.32,-0.188 H 8.814 L 8.796,719.602 H 10 c 0.165,-0.01 0.3,-0.135 0.3,-0.302 0,-0.166 -0.13,-0.294 -0.3,-0.3 H 8.761 l -0.042,-0.569 c -0.023,-0.348 -0.322,-0.621 -0.675,-0.601 -0.353,0.019 -0.621,0.322 -0.603,0.675 l 0.115,2.01 c 0.03,0.353 0.325,0.604 0.675,0.602 h 2.146 l 0.878,1.52 c 0.072,0.117 0.206,0.182 0.342,0.181 l 0,0.006 h 0.769 c 0.165,-0.01 0.3,-0.135 0.3,-0.302 10e-4,-0.167 -0.129,-0.295 -0.299,-0.301 z" />
      </g>
      <g
         style="fill:#ffffff;fill-opacity:1;stroke:none"
         transform="translate(-25.724,1.562)"
         id="g19805">
        <circle
           d="m 26.527,699.59802 c 0,0.36561 -0.296388,0.662 -0.662,0.662 -0.365613,0 -0.662,-0.29639 -0.662,-0.662 0,-0.36561 0.296387,-0.662 0.662,-0.662 0.365612,0 0.662,0.29639 0.662,0.662 z"
           transform="translate(-17.832,17.45)"
           cx="25.865"
           cy="699.59802"
           r="0.662"
           id="circle19807"
           sodipodi:cx="25.865"
           sodipodi:cy="699.59802"
           sodipodi:rx="0.662"
           sodipodi:ry="0.662"
           style="fill:#ffffff;fill-opacity:1;stroke:none" />
        <path
           d="m 8.459,723.393 c -1.086,0 -1.967,-0.879 -1.967,-1.967 0,-0.596 0.27,-1.127 0.689,-1.488 l -0.035,-0.615 c -0.703,0.439 -1.176,1.213 -1.176,2.104 0,1.373 1.113,2.488 2.488,2.488 1.012,0 1.877,-0.609 2.266,-1.477 l -0.35,-0.605 c -0.187,0.888 -0.97,1.56 -1.915,1.56 z"
           id="path19809"
           inkscape:connector-curvature="0"
           style="fill:#ffffff;fill-opacity:1;stroke:none" />
        <path
           d="m 12.367,722.221 h -0.459 l -1.119,-1.93 c -0.07,-0.119 -0.193,-0.185 -0.32,-0.188 H 8.814 L 8.796,719.602 H 10 c 0.165,-0.01 0.3,-0.135 0.3,-0.302 0,-0.166 -0.13,-0.294 -0.3,-0.3 H 8.761 l -0.042,-0.569 c -0.023,-0.348 -0.322,-0.621 -0.675,-0.601 -0.353,0.019 -0.621,0.322 -0.603,0.675 l 0.115,2.01 c 0.03,0.353 0.325,0.604 0.675,0.602 h 2.146 l 0.878,1.52 c 0.072,0.117 0.206,0.182 0.342,0.181 l 0,0.006 h 0.769 c 0.165,-0.01 0.3,-0.135 0.3,-0.302 10e-4,-0.167 -0.129,-0.295 -0.299,-0.301 z"
           id="path19811"
           inkscape:connector-curvature="0"
           style="fill:#ffffff;fill-opacity:1;stroke:none" />
      </g>
    </g>
  </g>
</svg>
