<?xml version="1.0" encoding="utf-8"?>
<!-- Generator: Adobe Illustrator 18.1.1, SVG Export Plug-In . SVG Version: 6.00 Build 0)  -->
<svg version="1.1" xmlns="http://www.w3.org/2000/svg" xmlns:xlink="http://www.w3.org/1999/xlink" x="0px" y="0px"
	 viewBox="0 0 12 12" enable-background="new 0 0 12 12" xml:space="preserve">
<g id="shadows">
	<polygon opacity="0.2" points="9.535,8.571 7.607,6 5.679,6 5.679,5.357 6.965,5.357 7.607,4.714 6.965,4.714 5.679,4.714 
		5.679,4.071 5.036,3.429 4.393,3.429 3.75,4.071 3.75,6.643 4.393,6.643 4.393,7.286 7.607,7.286 8.892,9.214 10.178,9.214 
		10.178,8.571 	"/>
	<path opacity="0.2" d="M5.679,2.464c0,0.532-0.433,0.964-0.964,0.964c-0.532,0-0.964-0.432-0.964-0.964
		C3.75,1.932,4.182,1.5,4.714,1.5C5.246,1.5,5.679,1.932,5.679,2.464"/>
	<path opacity="0.2" d="M6.965,7.928H6.932c-0.157,1.09-1.085,1.929-2.218,1.929c-1.243,0-2.25-1.007-2.25-2.25
		c0-0.612,0.246-1.165,0.643-1.572V5.357c-0.775,0.519-1.286,1.247-1.286,2.25c0,1.597,1.295,2.893,2.893,2.893
		c1.257,0,2.331-0.808,2.735-1.929H6.965V7.928z"/>
</g>
<g id="icons">
	<polygon points="9.035,8.071 7.107,5.5 5.179,5.5 5.179,4.857 6.464,4.857 7.107,4.214 6.464,4.214 5.179,4.214 5.179,3.571 
		4.536,2.929 3.893,2.929 3.25,3.571 3.25,6.143 3.893,6.143 3.893,6.786 7.107,6.786 8.392,8.714 9.678,8.714 9.678,8.071 	"/>
	<path d="M5.179,1.964c0,0.532-0.433,0.964-0.964,0.964c-0.532,0-0.964-0.432-0.964-0.964C3.25,1.432,3.682,1,4.214,1
		C4.746,1,5.179,1.432,5.179,1.964"/>
	<path d="M6.464,7.428H6.432c-0.157,1.09-1.085,1.929-2.218,1.929c-1.243,0-2.25-1.007-2.25-2.25c0-0.612,0.246-1.165,0.643-1.572
		V4.857c-0.775,0.519-1.286,1.247-1.286,2.25C1.321,8.705,2.616,10,4.214,10c1.257,0,2.331-0.808,2.735-1.929H6.464V7.428z"/>
</g>
</svg>
