<?xml version="1.0" encoding="UTF-8" standalone="no"?>
<svg width="18px" height="18px" viewBox="0 0 18 18" version="1.1" xmlns="http://www.w3.org/2000/svg" xmlns:xlink="http://www.w3.org/1999/xlink" xmlns:sketch="http://www.bohemiancoding.com/sketch/ns">
    <!-- Generator: Sketch 3.2.2 (9983) - http://www.bohemiancoding.com/sketch -->
    <title>wheelchair-accessible-black-18</title>
    <desc>Created with Sketch.</desc>
    <defs></defs>
    <g id="Page-1" stroke="none" stroke-width="1" fill="none" fill-rule="evenodd" sketch:type="MSPage">
        <path d="M16.0518519,14.4093996 L15.3111111,14.4093996 L12.3481481,10.0296115 L7.9037037,10.0296115 L7.9037037,8.56968215 L10.1259259,8.56968215 L10.8666667,7.83971747 L10.1259259,7.10975278 L7.9037037,7.10975278 L7.9037037,6.3797881 L7.16296296,5.64982342 L6.42222222,5.64982342 L5.7037037,6.36518881 L5.7037037,10.7814751 L7.16296296,12.2195056 L11.6074074,12.2195056 L14.5703704,15.869329 L16.0518519,15.869329 L16.8148148,15.1393643 L16.8148148,14.4093996 L16.0518519,14.4093996" id="Fill-487" opacity="0.1" fill="#0A0B09" sketch:type="MSShapeGroup"></path>
        <path d="M11.1777778,14.4093996 C10.5037037,15.7087368 9.14074074,16.5992937 7.55555556,16.5992937 C5.3037037,16.5992937 3.48148148,14.8035805 3.48148148,12.5844879 C3.48148148,11.3362483 4.05925926,10.226702 4.96296296,9.48943765 L4.96296296,7.83971747 C3.2,8.75947297 2,10.4894893 2,12.5844879 C2,15.6065417 4.48888889,18.059223 7.55555556,18.059223 C9.61481481,18.059223 11.4148148,16.9496767 12.3703704,15.3145558 L12.3703704,14.4093996 L11.1777778,14.4093996" id="Fill-488" opacity="0.1" fill="#0A0B09" sketch:type="MSShapeGroup"></path>
        <path d="M6.44444444,2 L7.92592593,2 L7.92592593,2.72996468 L8.66666667,2.72996468 L8.66666667,4.18989405 L7.92592593,4.18989405 L7.92592593,4.91985873 L6.44444444,4.91985873 L6.44444444,4.18989405 L5.7037037,4.18989405 L5.7037037,2.72996468 L6.44444444,2.72996468 L6.44444444,2" id="Fill-489" opacity="0.1" fill="#0A0B09" sketch:type="MSShapeGroup"></path>
        <path d="M15.0518519,13.4093996 L14.3111111,13.4093996 L11.3481481,9.02961152 L6.9037037,9.02961152 L6.9037037,7.56968215 L9.12592593,7.56968215 L9.86666667,6.83971747 L9.12592593,6.10975278 L6.9037037,6.10975278 L6.9037037,5.3797881 L6.16296296,4.64982342 L5.42222222,4.64982342 L4.7037037,5.36518881 L4.7037037,9.78147514 L6.16296296,11.2195056 L10.6074074,11.2195056 L13.5703704,14.869329 L15.0518519,14.869329 L15.8148148,14.1393643 L15.8148148,13.4093996 L15.0518519,13.4093996" id="Fill-487" opacity="0.2" fill="#0A0B09" sketch:type="MSShapeGroup"></path>
        <path d="M10.1777778,13.4093996 C9.5037037,14.7087368 8.14074074,15.5992937 6.55555556,15.5992937 C4.3037037,15.5992937 2.48148148,13.8035805 2.48148148,11.5844879 C2.48148148,10.3362483 3.05925926,9.22670198 3.96296296,8.48943765 L3.96296296,6.83971747 C2.2,7.75947297 1,9.48948927 1,11.5844879 C1,14.6065417 3.48888889,17.059223 6.55555556,17.059223 C8.61481481,17.059223 10.4148148,15.9496767 11.3703704,14.3145558 L11.3703704,13.4093996 L10.1777778,13.4093996" id="Fill-488" opacity="0.2" fill="#0A0B09" sketch:type="MSShapeGroup"></path>
        <path d="M5.44444444,1 L6.92592593,1 L6.92592593,1.72996468 L7.66666667,1.72996468 L7.66666667,3.18989405 L6.92592593,3.18989405 L6.92592593,3.91985873 L5.44444444,3.91985873 L5.44444444,3.18989405 L4.7037037,3.18989405 L4.7037037,1.72996468 L5.44444444,1.72996468 L5.44444444,1" id="Fill-489" opacity="0.2" fill="#0A0B09" sketch:type="MSShapeGroup"></path>
        <path d="M14.0518519,12.4093996 L13.3111111,12.4093996 L10.3481481,8.02961152 L5.9037037,8.02961152 L5.9037037,6.56968215 L8.12592593,6.56968215 L8.86666667,5.83971747 L8.12592593,5.10975278 L5.9037037,5.10975278 L5.9037037,4.3797881 L5.16296296,3.64982342 L4.42222222,3.64982342 L3.7037037,4.36518881 L3.7037037,8.78147514 L5.16296296,10.2195056 L9.60740741,10.2195056 L12.5703704,13.869329 L14.0518519,13.869329 L14.8148148,13.1393643 L14.8148148,12.4093996 L14.0518519,12.4093996" id="Fill-487" fill="#0A0B09" sketch:type="MSShapeGroup"></path>
        <path d="M9.17777778,12.4093996 C8.5037037,13.7087368 7.14074074,14.5992937 5.55555556,14.5992937 C3.3037037,14.5992937 1.48148148,12.8035805 1.48148148,10.5844879 C1.48148148,9.3362483 2.05925926,8.22670198 2.96296296,7.48943765 L2.96296296,5.83971747 C1.2,6.75947297 0,8.48948927 0,10.5844879 C0,13.6065417 2.48888889,16.059223 5.55555556,16.059223 C7.61481481,16.059223 9.41481481,14.9496767 10.3703704,13.3145558 L10.3703704,12.4093996 L9.17777778,12.4093996" id="Fill-488" fill="#0A0B09" sketch:type="MSShapeGroup"></path>
        <path d="M4.44444444,0 L5.92592593,0 L5.92592593,0.729964684 L6.66666667,0.729964684 L6.66666667,2.18989405 L5.92592593,2.18989405 L5.92592593,2.91985873 L4.44444444,2.91985873 L4.44444444,2.18989405 L3.7037037,2.18989405 L3.7037037,0.729964684 L4.44444444,0.729964684 L4.44444444,0" id="Fill-489" fill="#0A0B09" sketch:type="MSShapeGroup"></path>
    </g>
</svg>