<?xml version="1.0" encoding="UTF-8" standalone="no"?>
<svg width="12px" height="12px" viewBox="0 0 12 12" version="1.1" xmlns="http://www.w3.org/2000/svg" xmlns:xlink="http://www.w3.org/1999/xlink" xmlns:sketch="http://www.bohemiancoding.com/sketch/ns">
    <!-- Generator: Sketch 3.2.2 (9983) - http://www.bohemiancoding.com/sketch -->
    <title>wheelchair-accessible-white-12</title>
    <desc>Created with Sketch.</desc>
    <defs></defs>
    <g id="Page-1" stroke="none" stroke-width="1" fill="none" fill-rule="evenodd" sketch:type="MSPage">
        <path d="M10.4705882,10.4787384 L8.35294118,7.3955608 L6.23529412,7.3955608 L6.23529412,6.6247664 L7.64705882,6.6247664 L8.35294118,5.853972 L6.23529412,5.853972 L6.23529412,5.0831776 L5.52941176,4.3123832 L4.82352941,4.3123832 L4.11764706,5.0831776 L4.11764706,8.1663552 L4.82352941,8.1663552 L4.82352941,8.9371496 L8.35294118,8.9371496 L9.76470588,11.2495328 L11.1764706,11.2495328 L11.1764706,10.4787384 L10.4705882,10.4787384" id="Fill-490" opacity="0.5" fill="#0A0B09" sketch:type="MSShapeGroup"></path>
        <path d="M6.23529412,3.1561916 C6.23529412,3.79595095 5.76235294,4.3123832 5.17647059,4.3123832 C4.59058824,4.3123832 4.11764706,3.79595095 4.11764706,3.1561916 C4.11764706,2.51643225 4.59058824,2 5.17647059,2 C5.76235294,2 6.23529412,2.51643225 6.23529412,3.1561916" id="Fill-491" opacity="0.5" fill="#0A0B09" sketch:type="MSShapeGroup"></path>
        <path d="M7.64705882,9.707944 L7.61176471,9.707944 C7.44235294,11.0182945 6.41882353,12.0203272 5.17647059,12.0203272 C3.81411765,12.0203272 2.70588235,10.8178879 2.70588235,9.3225468 C2.70588235,8.59029212 2.97411765,7.92740894 3.41176471,7.44180847 L3.41176471,6.6247664 C2.55764706,7.24910987 2,8.12010754 2,9.3225468 C2,11.2418249 3.41882353,12.7911216 5.17647059,12.7911216 C6.55294118,12.7911216 7.73882353,11.8276286 8.17647059,10.4787384 L7.64705882,10.4787384 L7.64705882,9.707944" id="Fill-492" opacity="0.5" fill="#0A0B09" sketch:type="MSShapeGroup"></path>
        <path d="M9.47058824,9.4787384 L7.35294118,6.3955608 L5.23529412,6.3955608 L5.23529412,5.6247664 L6.64705882,5.6247664 L7.35294118,4.853972 L5.23529412,4.853972 L5.23529412,4.0831776 L4.52941176,3.3123832 L3.82352941,3.3123832 L3.11764706,4.0831776 L3.11764706,7.1663552 L3.82352941,7.1663552 L3.82352941,7.9371496 L7.35294118,7.9371496 L8.76470588,10.2495328 L10.1764706,10.2495328 L10.1764706,9.4787384 L9.47058824,9.4787384" id="Fill-490" opacity="0.75" fill="#0A0B09" sketch:type="MSShapeGroup"></path>
        <path d="M5.23529412,2.1561916 C5.23529412,2.79595095 4.76235294,3.3123832 4.17647059,3.3123832 C3.59058824,3.3123832 3.11764706,2.79595095 3.11764706,2.1561916 C3.11764706,1.51643225 3.59058824,1 4.17647059,1 C4.76235294,1 5.23529412,1.51643225 5.23529412,2.1561916" id="Fill-491" opacity="0.75" fill="#0A0B09" sketch:type="MSShapeGroup"></path>
        <path d="M6.64705882,8.707944 L6.61176471,8.707944 C6.44235294,10.0182945 5.41882353,11.0203272 4.17647059,11.0203272 C2.81411765,11.0203272 1.70588235,9.81788794 1.70588235,8.3225468 C1.70588235,7.59029212 1.97411765,6.92740894 2.41176471,6.44180847 L2.41176471,5.6247664 C1.55764706,6.24910987 1,7.12010754 1,8.3225468 C1,10.2418249 2.41882353,11.7911216 4.17647059,11.7911216 C5.55294118,11.7911216 6.73882353,10.8276286 7.17647059,9.4787384 L6.64705882,9.4787384 L6.64705882,8.707944" id="Fill-492" opacity="0.75" fill="#0A0B09" sketch:type="MSShapeGroup"></path>
        <path d="M8.47058824,8.4787384 L6.35294118,5.3955608 L4.23529412,5.3955608 L4.23529412,4.6247664 L5.64705882,4.6247664 L6.35294118,3.853972 L4.23529412,3.853972 L4.23529412,3.0831776 L3.52941176,2.3123832 L2.82352941,2.3123832 L2.11764706,3.0831776 L2.11764706,6.1663552 L2.82352941,6.1663552 L2.82352941,6.9371496 L6.35294118,6.9371496 L7.76470588,9.2495328 L9.17647059,9.2495328 L9.17647059,8.4787384 L8.47058824,8.4787384" id="Fill-490" fill="#FFFFFF" sketch:type="MSShapeGroup"></path>
        <path d="M4.23529412,1.1561916 C4.23529412,1.79595095 3.76235294,2.3123832 3.17647059,2.3123832 C2.59058824,2.3123832 2.11764706,1.79595095 2.11764706,1.1561916 C2.11764706,0.516432248 2.59058824,0 3.17647059,0 C3.76235294,0 4.23529412,0.516432248 4.23529412,1.1561916" id="Fill-491" fill="#FFFFFF" sketch:type="MSShapeGroup"></path>
        <path d="M5.64705882,7.707944 L5.61176471,7.707944 C5.44235294,9.01829448 4.41882353,10.0203272 3.17647059,10.0203272 C1.81411765,10.0203272 0.705882353,8.81788794 0.705882353,7.3225468 C0.705882353,6.59029212 0.974117647,5.92740894 1.41176471,5.44180847 L1.41176471,4.6247664 C0.557647059,5.24910987 0,6.12010754 0,7.3225468 C0,9.24182486 1.41882353,10.7911216 3.17647059,10.7911216 C4.55294118,10.7911216 5.73882353,9.8276286 6.17647059,8.4787384 L5.64705882,8.4787384 L5.64705882,7.707944" id="Fill-492" fill="#FFFFFF" sketch:type="MSShapeGroup"></path>
    </g>
</svg>