<?xml version="1.0" encoding="utf-8"?>
<!-- Generator: Adobe Illustrator 18.1.1, SVG Export Plug-In . SVG Version: 6.00 Build 0)  -->
<svg version="1.1" xmlns="http://www.w3.org/2000/svg" xmlns:xlink="http://www.w3.org/1999/xlink" x="0px" y="0px"
	 viewBox="0 0 12 12" enable-background="new 0 0 12 12" xml:space="preserve">
<g id="shadows">
	<polygon opacity="0.2" points="10.535,8.571 8.607,6 6.679,6 6.679,5.357 7.965,5.357 8.607,4.714 7.965,4.714 6.679,4.714 
		6.679,4.071 6.036,3.429 5.393,3.429 4.75,4.071 4.75,6.643 5.393,6.643 5.393,7.286 8.607,7.286 9.892,9.214 11.178,9.214 
		11.178,8.571 	"/>
	<path opacity="0.2" d="M6.679,2.464c0,0.532-0.433,0.964-0.964,0.964c-0.532,0-0.964-0.432-0.964-0.964
		C4.75,1.932,5.182,1.5,5.714,1.5C6.246,1.5,6.679,1.932,6.679,2.464"/>
	<path opacity="0.2" d="M7.965,7.928H7.932c-0.157,1.09-1.085,1.929-2.218,1.929c-1.243,0-2.25-1.007-2.25-2.25
		c0-0.612,0.246-1.165,0.643-1.572V5.357c-0.775,0.519-1.286,1.247-1.286,2.25c0,1.597,1.295,2.893,2.893,2.893
		c1.257,0,2.331-0.808,2.735-1.929H7.965V7.928z"/>
</g>
<g id="icons">
	<polygon points="10.035,8.071 8.107,5.5 6.179,5.5 6.179,4.857 7.464,4.857 8.107,4.214 7.464,4.214 6.179,4.214 6.179,3.571 
		5.536,2.929 4.893,2.929 4.25,3.571 4.25,6.143 4.893,6.143 4.893,6.786 8.107,6.786 9.392,8.714 10.678,8.714 10.678,8.071 	"/>
	<path d="M6.179,1.964c0,0.532-0.433,0.964-0.964,0.964c-0.532,0-0.964-0.432-0.964-0.964C4.25,1.432,4.682,1,5.214,1
		C5.746,1,6.179,1.432,6.179,1.964"/>
	<path d="M7.464,7.428H7.432c-0.157,1.09-1.085,1.929-2.218,1.929c-1.243,0-2.25-1.007-2.25-2.25c0-0.612,0.246-1.165,0.643-1.572
		V4.857c-0.775,0.519-1.286,1.247-1.286,2.25C2.321,8.705,3.616,10,5.214,10c1.257,0,2.331-0.808,2.735-1.929H7.464V7.428z"/>
</g>
</svg>
