<?xml version="1.0" encoding="utf-8"?>
<!-- Generator: Adobe Illustrator 18.1.1, SVG Export Plug-In . SVG Version: 6.00 Build 0)  -->
<svg version="1.1" xmlns="http://www.w3.org/2000/svg" xmlns:xlink="http://www.w3.org/1999/xlink" x="0px" y="0px"
	 viewBox="0 0 24 24" enable-background="new 0 0 24 24" xml:space="preserve">
<g id="shadows">
	<polygon opacity="0.2" points="20.435,17.136 19.662,17.136 16.572,12.5 11.935,12.5 11.935,10.954 14.253,10.954 15.026,10.182 
		14.253,9.409 11.935,9.409 11.935,8.636 11.163,7.864 10.39,7.864 9.637,8.617 9.637,13.292 11.163,14.818 15.799,14.818 
		18.89,18.682 20.435,18.682 21.228,17.909 21.228,17.136 	"/>
	<path opacity="0.2" d="M15.35,17.136c-0.703,1.375-2.13,2.318-3.782,2.318c-2.346,0-4.25-1.903-4.25-4.25
		c0-1.32,0.602-2.499,1.546-3.279v-1.743c-1.837,0.972-3.091,2.799-3.091,5.022c0,3.2,2.595,5.796,5.795,5.796
		c2.145,0,4.024-1.173,5.023-2.907v-0.957H15.35z"/>
	<polygon opacity="0.2" points="10.41,4 11.955,4 11.955,4.773 12.728,4.773 12.728,6.318 11.955,6.318 11.955,7.091 10.41,7.091 
		10.41,6.318 9.637,6.318 9.637,4.773 10.41,4.773 	"/>
</g>
<g id="icons">
	<polygon points="19.435,16.136 18.662,16.136 15.572,11.5 10.935,11.5 10.935,9.954 13.253,9.954 14.026,9.182 13.253,8.409 
		10.935,8.409 10.935,7.636 10.163,6.864 9.39,6.864 8.637,7.617 8.637,12.292 10.163,13.818 14.799,13.818 17.89,17.682 
		19.435,17.682 20.228,16.909 20.228,16.136 	"/>
	<path d="M14.35,16.136c-0.703,1.375-2.13,2.318-3.782,2.318c-2.346,0-4.25-1.903-4.25-4.25c0-1.32,0.602-2.499,1.546-3.279V9.182
		c-1.837,0.972-3.091,2.799-3.091,5.022c0,3.2,2.595,5.796,5.795,5.796c2.145,0,4.024-1.173,5.023-2.907v-0.957H14.35z"/>
	<polygon points="9.41,3 10.955,3 10.955,3.773 11.728,3.773 11.728,5.318 10.955,5.318 10.955,6.091 9.41,6.091 9.41,5.318 
		8.637,5.318 8.637,3.773 9.41,3.773 	"/>
</g>
</svg>
