<?xml version="1.0" encoding="utf-8"?>
<!-- Generator: Adobe Illustrator 18.1.1, SVG Export Plug-In . SVG Version: 6.00 Build 0)  -->
<svg version="1.1" xmlns="http://www.w3.org/2000/svg" xmlns:xlink="http://www.w3.org/1999/xlink" x="0px" y="0px"
	 viewBox="0 0 18 18" enable-background="new 0 0 18 18" xml:space="preserve">
<g id="shadows">
	<g opacity="0.2">
		<polygon points="15.357,12.964 12.571,9.25 9.786,9.25 9.786,8.321 11.643,8.321 12.571,7.393 11.643,7.393 9.786,7.393 
			9.786,6.464 8.857,5.536 7.929,5.536 7,6.464 7,10.179 7.929,10.179 7.929,11.107 12.571,11.107 14.429,13.893 16.286,13.893 
			16.286,12.964 		"/>
		<circle cx="8.393" cy="4.143" r="1.393"/>
		<path d="M11.643,12.036h-0.047c-0.227,1.573-1.567,2.786-3.203,2.786c-1.795,0-3.25-1.455-3.25-3.25
			c0-0.884,0.356-1.684,0.929-2.27v-0.98c-1.119,0.75-1.857,1.802-1.857,3.25c0,2.308,1.871,4.179,4.179,4.179
			c1.815,0,3.367-1.168,3.95-2.786h-0.7V12.036z"/>
	</g>
</g>
<g id="icons">
	<g>
		<polygon points="14.607,12.214 11.821,8.5 9.036,8.5 9.036,7.571 10.893,7.571 11.821,6.643 10.893,6.643 9.036,6.643 
			9.036,5.714 8.107,4.786 7.179,4.786 6.25,5.714 6.25,9.429 7.179,9.429 7.179,10.357 11.821,10.357 13.679,13.143 15.536,13.143 
			15.536,12.214 		"/>
		<circle cx="7.643" cy="3.393" r="1.393"/>
		<path d="M10.893,11.286h-0.047c-0.227,1.573-1.567,2.786-3.203,2.786c-1.795,0-3.25-1.455-3.25-3.25
			c0-0.884,0.356-1.684,0.929-2.27v-0.98c-1.119,0.75-1.857,1.802-1.857,3.25C3.464,13.129,5.335,15,7.643,15
			c1.815,0,3.367-1.168,3.95-2.786h-0.7V11.286z"/>
	</g>
</g>
</svg>
