<?xml version="1.0" encoding="utf-8"?>
<!-- Generator: Adobe Illustrator 18.1.1, SVG Export Plug-In . SVG Version: 6.00 Build 0)  -->
<svg version="1.1" xmlns="http://www.w3.org/2000/svg" xmlns:xlink="http://www.w3.org/1999/xlink" x="0px" y="0px"
	 viewBox="0 0 12 12" enable-background="new 0 0 12 12" xml:space="preserve">
<g id="shadows">
	<g opacity="0.2">
		<polygon points="9.857,9.857 9.214,9.857 7.929,9.214 7.286,9.214 6,9.857 5.357,9.857 4.714,9.857 4.714,9.536 4.071,9.214 
			3.429,9.214 2.143,9.857 1.5,9.857 1.5,10.5 2.143,10.5 3.429,9.857 4.071,9.857 5.357,10.5 6,10.5 7.286,9.857 7.929,9.857 
			9.214,10.5 9.857,10.5 10.5,10.179 10.5,9.857 10.5,9.536 		"/>
		<path d="M2.786,6.643H2.148v0.114l0.443,1.24c0.086,0.186,0.276,0.314,0.495,0.314h0.986v0.259h0.643V8.448l0.712,0.677
			C5.564,9.25,5.779,9.243,5.908,9.107C6.037,8.97,6.029,8.756,5.891,8.63L4.907,7.705c-0.061-0.053-0.13-0.086-0.23-0.086H4.071
			V7.286H3.447V7.144L3.218,6.66h0.229H3.76c0,0,0.112-0.047,0.172-0.094l0.782-0.348V5.704L4.687,5.699L4.604,5.715L3.775,6.017
			H2.786V6.643z"/>
		<path d="M6.643,7.929v0.167l0.186,0.476l3.028-1.917C9.675,3.752,6.539,1.828,4.071,1.5l2.506,6.429H6.643z"/>
		<rect x="1.5" y="4.714" width="1.286" height="1.286"/>
		<rect x="1.5" y="1.5" fill="none" width="9" height="9"/>
	</g>
</g>
<g id="icons">
	<polygon fill="#FFFFFF" points="9.357,9.357 8.714,9.357 7.429,8.714 6.786,8.714 5.5,9.357 4.857,9.357 4.214,9.357 4.214,9.036 
		3.571,8.714 2.929,8.714 1.643,9.357 1,9.357 1,10 1.643,10 2.929,9.357 3.571,9.357 4.857,10 5.5,10 6.786,9.357 7.429,9.357 
		8.714,10 9.357,10 10,9.679 10,9.357 10,9.036 	"/>
	<path fill="#FFFFFF" d="M2.286,6.143H1.648v0.114l0.443,1.24c0.086,0.186,0.276,0.314,0.495,0.314h0.986v0.259h0.643V7.948
		l0.712,0.677C5.064,8.75,5.279,8.743,5.408,8.607C5.537,8.47,5.529,8.256,5.391,8.13L4.407,7.205
		c-0.061-0.053-0.13-0.086-0.23-0.086H3.571V6.786H2.947V6.644L2.718,6.16h0.229H3.26c0,0,0.112-0.047,0.172-0.094l0.782-0.348
		V5.204L4.187,5.199L4.104,5.215L3.275,5.517H2.286V6.143z"/>
	<path fill="#FFFFFF" d="M6.143,7.429v0.167l0.186,0.476l3.028-1.917C9.175,3.252,6.039,1.328,3.571,1l2.506,6.429H6.143z"/>
	<rect x="1" y="4.214" fill="#FFFFFF" width="1.286" height="1.286"/>
</g>
</svg>
