<?xml version="1.0" encoding="UTF-8" standalone="no"?>
<svg width="12px" height="12px" viewBox="0 0 12 12" version="1.1" xmlns="http://www.w3.org/2000/svg" xmlns:xlink="http://www.w3.org/1999/xlink" xmlns:sketch="http://www.bohemiancoding.com/sketch/ns">
    <!-- Generator: Sketch 3.2.2 (9983) - http://www.bohemiancoding.com/sketch -->
    <title>wind-surfing-black-1</title>
    <desc>Created with Sketch.</desc>
    <defs></defs>
    <g id="Page-1" stroke="none" stroke-width="1" fill="none" fill-rule="evenodd" sketch:type="MSPage">
        <g id="Group" sketch:type="MSLayerGroup" transform="translate(2.000000, 1.399902)" fill-opacity="0.1" fill="#0A0B09">
            <path d="M9.17647059,10.5966402 L8.47058824,10.5966402 L7.05882353,9.82584584 L6.35294118,9.82584584 L4.94117647,10.5966402 L3.52941176,10.5966402 L3.52941176,10.211243 L2.82352941,9.82584584 L2.11764706,9.82584584 L0.705882353,10.5966402 L0,10.5966402 L0,11.3674346 L0.705882353,11.3674346 L2.11764706,10.5966402 L2.82352941,10.5966402 L4.23529412,11.3674346 L4.94117647,11.3674346 L6.35294118,10.5966402 L7.05882353,10.5966402 L8.47058824,11.3674346 L9.17647059,11.3674346 L9.88235294,10.9820374 L9.88235294,10.5966402 L9.88235294,10.211243 L9.17647059,10.5966402" id="Fill-501" sketch:type="MSShapeGroup"></path>
            <path d="M1.41176471,6.74266824 L0.712941176,6.74266824 L0.712941176,6.88141123 L1.2,8.36904442 C1.29176471,8.5925748 1.50352941,8.74673368 1.74352941,8.74673368 L2.82352941,8.74673368 L2.82352941,9.05505144 L3.52941176,9.05505144 L3.52941176,8.9086005 L4.31294118,9.71793462 C4.46117647,9.8720935 4.70117647,9.86438556 4.84235294,9.70251874 C4.98352941,9.53294397 4.97647059,9.27858182 4.82117647,9.12442294 L3.74117647,8.02218694 C3.67058824,7.95281545 3.6,7.91427573 3.48705882,7.91427573 L2.82352941,7.91427573 L2.82352941,7.51346264 L2.13882353,7.51346264 L2.13882353,7.34388787 L1.88470588,6.76579207 L2.48470588,6.76579207 C2.48470588,6.76579207 2.60470588,6.71183646 2.66823529,6.65017291 L3.52941176,6.23394394 L3.52941176,5.61730842 L3.50117647,5.60960047 L3.40941176,5.6327243 L2.49882353,5.99499767 L1.41176471,5.99499767 L1.41176471,6.74266824" id="Fill-502" sketch:type="MSShapeGroup"></path>
            <path d="M5.64705882,8.28425704 L5.64705882,8.48466358 L5.85176471,9.05505144 L9.17647059,6.75808413 C8.97882353,3.28180138 5.53411765,0.969418182 2.82352941,0.576313038 L5.57647059,8.28425704 L5.64705882,8.28425704" id="Fill-503" sketch:type="MSShapeGroup"></path>
            <path d="M0,4.43028504 L1.41176471,4.43028504 L1.41176471,5.97187384 L0,5.97187384 L0,4.43028504 Z" id="Fill-504" sketch:type="MSShapeGroup"></path>
        </g>
        <g id="Group" sketch:type="MSLayerGroup" transform="translate(1.000000, 0.399902)" fill="#0A0B09" opacity="0.2">
            <path d="M9.17647059,10.5966402 L8.47058824,10.5966402 L7.05882353,9.82584584 L6.35294118,9.82584584 L4.94117647,10.5966402 L3.52941176,10.5966402 L3.52941176,10.211243 L2.82352941,9.82584584 L2.11764706,9.82584584 L0.705882353,10.5966402 L0,10.5966402 L0,11.3674346 L0.705882353,11.3674346 L2.11764706,10.5966402 L2.82352941,10.5966402 L4.23529412,11.3674346 L4.94117647,11.3674346 L6.35294118,10.5966402 L7.05882353,10.5966402 L8.47058824,11.3674346 L9.17647059,11.3674346 L9.88235294,10.9820374 L9.88235294,10.5966402 L9.88235294,10.211243 L9.17647059,10.5966402" id="Fill-501" sketch:type="MSShapeGroup"></path>
            <path d="M1.41176471,6.74266824 L0.712941176,6.74266824 L0.712941176,6.88141123 L1.2,8.36904442 C1.29176471,8.5925748 1.50352941,8.74673368 1.74352941,8.74673368 L2.82352941,8.74673368 L2.82352941,9.05505144 L3.52941176,9.05505144 L3.52941176,8.9086005 L4.31294118,9.71793462 C4.46117647,9.8720935 4.70117647,9.86438556 4.84235294,9.70251874 C4.98352941,9.53294397 4.97647059,9.27858182 4.82117647,9.12442294 L3.74117647,8.02218694 C3.67058824,7.95281545 3.6,7.91427573 3.48705882,7.91427573 L2.82352941,7.91427573 L2.82352941,7.51346264 L2.13882353,7.51346264 L2.13882353,7.34388787 L1.88470588,6.76579207 L2.48470588,6.76579207 C2.48470588,6.76579207 2.60470588,6.71183646 2.66823529,6.65017291 L3.52941176,6.23394394 L3.52941176,5.61730842 L3.50117647,5.60960047 L3.40941176,5.6327243 L2.49882353,5.99499767 L1.41176471,5.99499767 L1.41176471,6.74266824" id="Fill-502" sketch:type="MSShapeGroup"></path>
            <path d="M5.64705882,8.28425704 L5.64705882,8.48466358 L5.85176471,9.05505144 L9.17647059,6.75808413 C8.97882353,3.28180138 5.53411765,0.969418182 2.82352941,0.576313038 L5.57647059,8.28425704 L5.64705882,8.28425704" id="Fill-503" sketch:type="MSShapeGroup"></path>
            <path d="M0,4.43028504 L1.41176471,4.43028504 L1.41176471,5.97187384 L0,5.97187384 L0,4.43028504 Z" id="Fill-504" sketch:type="MSShapeGroup"></path>
        </g>
        <g id="Group" sketch:type="MSLayerGroup" transform="translate(0.000000, -0.600098)" fill="#0A0B09">
            <path d="M9.17647059,10.5966402 L8.47058824,10.5966402 L7.05882353,9.82584584 L6.35294118,9.82584584 L4.94117647,10.5966402 L3.52941176,10.5966402 L3.52941176,10.211243 L2.82352941,9.82584584 L2.11764706,9.82584584 L0.705882353,10.5966402 L0,10.5966402 L0,11.3674346 L0.705882353,11.3674346 L2.11764706,10.5966402 L2.82352941,10.5966402 L4.23529412,11.3674346 L4.94117647,11.3674346 L6.35294118,10.5966402 L7.05882353,10.5966402 L8.47058824,11.3674346 L9.17647059,11.3674346 L9.88235294,10.9820374 L9.88235294,10.5966402 L9.88235294,10.211243 L9.17647059,10.5966402" id="Fill-501" sketch:type="MSShapeGroup"></path>
            <path d="M1.41176471,6.74266824 L0.712941176,6.74266824 L0.712941176,6.88141123 L1.2,8.36904442 C1.29176471,8.5925748 1.50352941,8.74673368 1.74352941,8.74673368 L2.82352941,8.74673368 L2.82352941,9.05505144 L3.52941176,9.05505144 L3.52941176,8.9086005 L4.31294118,9.71793462 C4.46117647,9.8720935 4.70117647,9.86438556 4.84235294,9.70251874 C4.98352941,9.53294397 4.97647059,9.27858182 4.82117647,9.12442294 L3.74117647,8.02218694 C3.67058824,7.95281545 3.6,7.91427573 3.48705882,7.91427573 L2.82352941,7.91427573 L2.82352941,7.51346264 L2.13882353,7.51346264 L2.13882353,7.34388787 L1.88470588,6.76579207 L2.48470588,6.76579207 C2.48470588,6.76579207 2.60470588,6.71183646 2.66823529,6.65017291 L3.52941176,6.23394394 L3.52941176,5.61730842 L3.50117647,5.60960047 L3.40941176,5.6327243 L2.49882353,5.99499767 L1.41176471,5.99499767 L1.41176471,6.74266824" id="Fill-502" sketch:type="MSShapeGroup"></path>
            <path d="M5.64705882,8.28425704 L5.64705882,8.48466358 L5.85176471,9.05505144 L9.17647059,6.75808413 C8.97882353,3.28180138 5.53411765,0.969418182 2.82352941,0.576313038 L5.57647059,8.28425704 L5.64705882,8.28425704" id="Fill-503" sketch:type="MSShapeGroup"></path>
            <path d="M0,4.43028504 L1.41176471,4.43028504 L1.41176471,5.97187384 L0,5.97187384 L0,4.43028504 Z" id="Fill-504" sketch:type="MSShapeGroup"></path>
        </g>
    </g>
</svg>