<?xml version="1.0" encoding="utf-8"?>
<!-- Generator: Adobe Illustrator 16.0.0, SVG Export Plug-In . SVG Version: 6.00 Build 0)  -->
<!DOCTYPE svg PUBLIC "-//W3C//DTD SVG 1.1//EN" "http://www.w3.org/Graphics/SVG/1.1/DTD/svg11.dtd">
<svg version="1.1" id="Layer_1" xmlns="http://www.w3.org/2000/svg" xmlns:xlink="http://www.w3.org/1999/xlink" x="0px" y="0px"
	 width="24px" height="24px" viewBox="0 0 24 24" enable-background="new 0 0 24 24" xml:space="preserve">
<g opacity="0.2">
	<polygon points="21.011,18.533 19.533,17.793 18.793,17.793 17.315,18.533 16.576,18.533 15.098,17.793 14.359,17.793 
		12.88,18.533 12.141,18.533 11.402,18.533 11.402,18.163 10.663,17.793 9.924,17.793 8.446,18.533 7.707,18.533 6.228,17.793 
		6.228,19.272 7.707,20.011 8.446,20.011 9.924,19.272 10.663,19.272 12.141,20.011 12.88,20.011 14.359,19.272 15.098,19.272 
		16.576,20.011 17.315,20.011 18.793,19.272 19.533,19.272 21.011,20.011 21.75,20.011 21.75,18.533 	"/>
	<path d="M12.678,16.688l-1.831-1.75c-0.113-0.1-0.241-0.101-0.426-0.101H8.445l-0.279-0.739h-0.46v-0.739h0.181l-0.18-0.476h1.009
		c0,0,0.209-0.012,0.321-0.1l1.675-0.759c0.125-0.088,0.208-0.236,0.208-0.399c0-0.264-0.216-0.484-0.48-0.484
		c-0.066,0-0.13,0.016-0.155,0.033L8.744,11.88H6.499c-0.095,0-0.184,0.018-0.271,0.042v0.697H5.533
		c-0.026,0.09-0.045,0.183-0.045,0.282c0,0.083,0.011,0.163,0.03,0.243l1.024,2.346c0.159,0.353,0.512,0.596,0.918,0.596h2.763
		l1.59,1.537c0.255,0.24,0.656,0.224,0.896-0.032C12.949,17.332,12.935,16.928,12.678,16.688"/>
	<path d="M9.924,3.75l5.283,13.304l5.804-3.607C20.664,7.988,14.652,4.369,9.924,3.75 M18.054,11.141H13.62v-0.739h4.435
		c1.325,0,2.218,1.478,2.218,1.478v0.739h-0.739C19.533,12.62,18.67,11.141,18.054,11.141"/>
	<path d="M6.967,10.772c0,0.612-0.497,1.108-1.108,1.108c-0.612,0-1.109-0.497-1.109-1.108c0-0.612,0.497-1.109,1.109-1.109
		C6.47,9.663,6.967,10.16,6.967,10.772"/>
	<rect x="4.75" y="3.75" fill="none" width="17" height="16.261"/>
</g>
<polygon fill="#FFFFFF" points="20.261,17.783 18.783,17.043 18.043,17.043 16.565,17.783 15.826,17.783 14.348,17.043 
	13.609,17.043 12.13,17.783 11.391,17.783 10.652,17.783 10.652,17.413 9.913,17.043 9.174,17.043 7.696,17.783 6.957,17.783 
	5.478,17.043 5.478,18.522 6.957,19.261 7.696,19.261 9.174,18.522 9.913,18.522 11.391,19.261 12.13,19.261 13.609,18.522 
	14.348,18.522 15.826,19.261 16.565,19.261 18.043,18.522 18.783,18.522 20.261,19.261 21,19.261 21,17.783 "/>
<path fill="#FFFFFF" d="M11.928,15.938l-1.831-1.75c-0.113-0.1-0.241-0.101-0.426-0.101H7.695l-0.279-0.739h-0.46v-0.739h0.181
	l-0.18-0.476h1.009c0,0,0.209-0.012,0.321-0.1l1.675-0.759c0.125-0.088,0.208-0.236,0.208-0.399c0-0.264-0.216-0.484-0.48-0.484
	c-0.066,0-0.13,0.016-0.155,0.033L7.994,11.13H5.749c-0.095,0-0.184,0.018-0.271,0.042v0.697H4.783
	c-0.026,0.09-0.045,0.183-0.045,0.282c0,0.083,0.011,0.163,0.03,0.243l1.024,2.346c0.159,0.353,0.512,0.596,0.918,0.596h2.763
	l1.59,1.537c0.255,0.24,0.656,0.224,0.896-0.032C12.199,16.582,12.185,16.178,11.928,15.938"/>
<path fill="#FFFFFF" d="M9.174,3l5.283,13.304l5.804-3.607C19.914,7.238,13.902,3.619,9.174,3 M17.304,10.391H12.87V9.652h4.435
	c1.325,0,2.218,1.478,2.218,1.478v0.739h-0.74C18.783,11.87,17.92,10.391,17.304,10.391"/>
<path fill="#FFFFFF" d="M6.217,10.022c0,0.612-0.497,1.108-1.108,1.108C4.497,11.13,4,10.634,4,10.022
	C4,9.41,4.497,8.913,5.109,8.913C5.72,8.913,6.217,9.41,6.217,10.022"/>
</svg>
