<?xml version="1.0" encoding="UTF-8" standalone="no"?>
<!-- Created with Inkscape (http://www.inkscape.org/) -->

<svg
   xmlns:dc="http://purl.org/dc/elements/1.1/"
   xmlns:cc="http://creativecommons.org/ns#"
   xmlns:rdf="http://www.w3.org/1999/02/22-rdf-syntax-ns#"
   xmlns:svg="http://www.w3.org/2000/svg"
   xmlns="http://www.w3.org/2000/svg"
   xmlns:sodipodi="http://sodipodi.sourceforge.net/DTD/sodipodi-0.dtd"
   xmlns:inkscape="http://www.inkscape.org/namespaces/inkscape"
   width="24"
   height="24"
   id="svg27349"
   version="1.1"
   inkscape:version="0.48.2 r9819"
   sodipodi:docname="stable-black-24.svg">
  <defs
     id="defs27351" />
  <sodipodi:namedview
     id="base"
     pagecolor="#ffffff"
     bordercolor="#666666"
     borderopacity="1.0"
     inkscape:pageopacity="0.0"
     inkscape:pageshadow="2"
     inkscape:zoom="8.6123905"
     inkscape:cx="11.808263"
     inkscape:cy="10.533919"
     inkscape:document-units="px"
     inkscape:current-layer="layer1"
     showgrid="false"
     inkscape:window-width="483"
     inkscape:window-height="454"
     inkscape:window-x="3648"
     inkscape:window-y="148"
     inkscape:window-maximized="0"
     gridtolerance="10">
    <inkscape:grid
       type="xygrid"
       id="grid3004"
       empspacing="5"
       visible="true"
       enabled="true"
       snapvisiblegridlinesonly="true" />
  </sodipodi:namedview>
  <metadata
     id="metadata27354">
    <rdf:RDF>
      <cc:Work
         rdf:about="">
        <dc:format>image/svg+xml</dc:format>
        <dc:type
           rdf:resource="http://purl.org/dc/dcmitype/StillImage" />
        <dc:title></dc:title>
      </cc:Work>
    </rdf:RDF>
  </metadata>
  <g
     inkscape:label="Layer 1"
     inkscape:groupmode="layer"
     id="layer1"
     transform="translate(0,-1028.3622)">
    <g
       id="g20716"
       transform="matrix(2.4281667,0,0,2.4281667,400.99265,-573.25569)">
      <path
         id="path20718"
         d="m -156.408,669.453 c 0.652,0 1.181,-0.529 1.181,-1.182 v -7.521 c 0,-0.652 -0.528,-1.182 -1.181,-1.182 h -7.522 c -0.652,0 -1.181,0.529 -1.181,1.182 v 7.521 c 0,0.652 0.528,1.182 1.181,1.182 h 7.522 z"
         inkscape:connector-curvature="0"
         style="opacity:0;fill:#272525" />
      <g
         style="opacity:0.6;fill:none;stroke:#ffffff;stroke-width:0.5;stroke-miterlimit:4;stroke-opacity:1;stroke-dasharray:none"
         id="g20720">
        <path
           id="path20722"
           d="m -156.222,668.571 c -0.171,0 -0.336,-0.039 -0.483,-0.105 -0.15,-0.07 -0.32,-0.111 -0.497,-0.111 -0.177,0 -0.347,0.041 -0.497,0.111 -0.147,0.066 -0.312,0.105 -0.483,0.105 -0.171,0 -0.337,-0.039 -0.483,-0.105 -0.15,-0.07 -0.32,-0.111 -0.498,-0.111 -0.176,0 -0.346,0.041 -0.497,0.111 -0.146,0.066 -0.312,0.105 -0.483,0.105 -0.171,0 -0.336,-0.039 -0.482,-0.105 -0.151,-0.07 -0.32,-0.111 -0.498,-0.111 -0.177,0 -0.346,0.041 -0.497,0.111 -0.147,0.066 -0.312,0.105 -0.483,0.105 -0.171,0 -0.336,-0.039 -0.483,-0.105 -0.15,-0.07 -0.32,-0.111 -0.497,-0.111 -0.178,0 -0.347,0.041 -0.497,0.111 -0.147,0.066 -0.312,0.105 -0.483,0.105 v -0.725 c 0.172,0 0.336,-0.039 0.483,-0.105 0.15,-0.068 0.319,-0.109 0.497,-0.109 0.177,0 0.347,0.041 0.497,0.109 0.147,0.066 0.312,0.105 0.483,0.105 0.171,0 0.336,-0.039 0.483,-0.105 0.151,-0.068 0.32,-0.109 0.497,-0.109 0.178,0 0.347,0.041 0.498,0.109 0.146,0.066 0.312,0.105 0.482,0.105 0.172,0 0.337,-0.039 0.483,-0.105 0.151,-0.068 0.321,-0.109 0.497,-0.109 0.178,0 0.348,0.041 0.498,0.109 0.146,0.066 0.312,0.105 0.483,0.105 0.171,0 0.336,-0.039 0.483,-0.105 0.15,-0.068 0.32,-0.109 0.497,-0.109 0.177,0 0.347,0.041 0.497,0.109 0.147,0.066 0.312,0.105 0.483,0.105 v 0.725 z"
           inkscape:connector-curvature="0"
           style="fill:none;stroke:#ffffff;stroke-width:0.5;stroke-miterlimit:4;stroke-opacity:1;stroke-dasharray:none" />
        <circle
           transform="translate(-186.826,-50.988)"
           id="circle20724"
           r="0.47499999"
           cy="714.89301"
           cx="23.601"
           d="m 24.076,714.89301 c 0,0.26233 -0.212665,0.475 -0.475,0.475 -0.262335,0 -0.475,-0.21267 -0.475,-0.475 0,-0.26234 0.212665,-0.475 0.475,-0.475 0.262335,0 0.475,0.21266 0.475,0.475 z"
           sodipodi:cx="23.601"
           sodipodi:cy="714.89301"
           sodipodi:rx="0.47499999"
           sodipodi:ry="0.47499999"
           style="fill:none;stroke:#ffffff;stroke-width:0.5;stroke-miterlimit:4;stroke-opacity:1;stroke-dasharray:none" />
        <path
           id="path20726"
           d="m -161.136,666.533 h -1.359 c -0.2,0 -0.374,-0.119 -0.452,-0.291 l -0.503,-1.146 c -0.01,-0.039 -0.015,-0.078 -0.015,-0.119 0,-0.275 0.223,-0.498 0.497,-0.498 l 1.104,-0.002 0.758,-0.344 c 0.012,-0.008 0.043,-0.016 0.076,-0.016 0.13,0 0.236,0.107 0.236,0.236 0,0.08 -0.041,0.152 -0.102,0.195 l -0.824,0.371 c -0.055,0.043 -0.158,0.049 -0.158,0.049 h -0.496 l 0.416,0.924 h 0.919 l 0,0 c 0.091,0 0.154,0.031 0.21,0.08 l 0.9,0.855 0,0 c 0.126,0.117 0.133,0.314 0.016,0.441 -0.118,0.125 -0.315,0.133 -0.441,0.016 l 0,0 -0.782,-0.751 z"
           inkscape:connector-curvature="0"
           style="fill:none;stroke:#ffffff;stroke-width:0.5;stroke-miterlimit:4;stroke-opacity:1;stroke-dasharray:none" />
        <path
           id="path20728"
           d="m -156.9,664.981 c 0.018,0.029 0.06,0.041 0.099,0.041 0.076,0 0.139,-0.062 0.139,-0.141 0,-0.037 -0.018,-0.07 -0.034,-0.102 -0.85,-1.621 -3.144,-1.139 -3.425,-1.033 -0.047,0.018 -0.074,0.07 -0.074,0.123 0,0.076 0.062,0.139 0.139,0.139 0.023,0 0.035,-0.002 0.056,-0.008 2.248,-0.506 2.98,0.776 3.1,0.981 z m 0.391,0.146 -2.877,1.814 -2.619,-6.689 c 2.344,0.311 5.324,2.131 5.496,4.875 z"
           inkscape:connector-curvature="0"
           style="fill:none;stroke:#ffffff;stroke-width:0.5;stroke-miterlimit:4;stroke-opacity:1;stroke-dasharray:none" />
      </g>
      <g
         id="g20730">
        <path
           style="fill:#272525"
           inkscape:connector-curvature="0"
           d="m -156.222,668.571 c -0.171,0 -0.336,-0.039 -0.483,-0.105 -0.15,-0.07 -0.32,-0.111 -0.497,-0.111 -0.177,0 -0.347,0.041 -0.497,0.111 -0.147,0.066 -0.312,0.105 -0.483,0.105 -0.171,0 -0.337,-0.039 -0.483,-0.105 -0.15,-0.07 -0.32,-0.111 -0.498,-0.111 -0.176,0 -0.346,0.041 -0.497,0.111 -0.146,0.066 -0.312,0.105 -0.483,0.105 -0.171,0 -0.336,-0.039 -0.482,-0.105 -0.151,-0.07 -0.32,-0.111 -0.498,-0.111 -0.177,0 -0.346,0.041 -0.497,0.111 -0.147,0.066 -0.312,0.105 -0.483,0.105 -0.171,0 -0.336,-0.039 -0.483,-0.105 -0.15,-0.07 -0.32,-0.111 -0.497,-0.111 -0.178,0 -0.347,0.041 -0.497,0.111 -0.147,0.066 -0.312,0.105 -0.483,0.105 v -0.725 c 0.172,0 0.336,-0.039 0.483,-0.105 0.15,-0.068 0.319,-0.109 0.497,-0.109 0.177,0 0.347,0.041 0.497,0.109 0.147,0.066 0.312,0.105 0.483,0.105 0.171,0 0.336,-0.039 0.483,-0.105 0.151,-0.068 0.32,-0.109 0.497,-0.109 0.178,0 0.347,0.041 0.498,0.109 0.146,0.066 0.312,0.105 0.482,0.105 0.172,0 0.337,-0.039 0.483,-0.105 0.151,-0.068 0.321,-0.109 0.497,-0.109 0.178,0 0.348,0.041 0.498,0.109 0.146,0.066 0.312,0.105 0.483,0.105 0.171,0 0.336,-0.039 0.483,-0.105 0.15,-0.068 0.32,-0.109 0.497,-0.109 0.177,0 0.347,0.041 0.497,0.109 0.147,0.066 0.312,0.105 0.483,0.105 v 0.725 z"
           id="path20732" />
        <circle
           style="fill:#272525"
           sodipodi:ry="0.47499999"
           sodipodi:rx="0.47499999"
           sodipodi:cy="714.89301"
           sodipodi:cx="23.601"
           d="m 24.076,714.89301 c 0,0.26233 -0.212665,0.475 -0.475,0.475 -0.262335,0 -0.475,-0.21267 -0.475,-0.475 0,-0.26234 0.212665,-0.475 0.475,-0.475 0.262335,0 0.475,0.21266 0.475,0.475 z"
           cx="23.601"
           cy="714.89301"
           r="0.47499999"
           id="circle20734"
           transform="translate(-186.826,-50.988)" />
        <path
           style="fill:#272525"
           inkscape:connector-curvature="0"
           d="m -161.136,666.533 h -1.359 c -0.2,0 -0.374,-0.119 -0.452,-0.291 l -0.503,-1.146 c -0.01,-0.039 -0.015,-0.078 -0.015,-0.119 0,-0.275 0.223,-0.498 0.497,-0.498 l 1.104,-0.002 0.758,-0.344 c 0.012,-0.008 0.043,-0.016 0.076,-0.016 0.13,0 0.236,0.107 0.236,0.236 0,0.08 -0.041,0.152 -0.102,0.195 l -0.824,0.371 c -0.055,0.043 -0.158,0.049 -0.158,0.049 h -0.496 l 0.416,0.924 h 0.919 l 0,0 c 0.091,0 0.154,0.031 0.21,0.08 l 0.9,0.855 0,0 c 0.126,0.117 0.133,0.314 0.016,0.441 -0.118,0.125 -0.315,0.133 -0.441,0.016 l 0,0 -0.782,-0.751 z"
           id="path20736" />
        <path
           style="fill:#272525"
           inkscape:connector-curvature="0"
           d="m -156.9,664.981 c 0.018,0.029 0.06,0.041 0.099,0.041 0.076,0 0.139,-0.062 0.139,-0.141 0,-0.037 -0.018,-0.07 -0.034,-0.102 -0.85,-1.621 -3.144,-1.139 -3.425,-1.033 -0.047,0.018 -0.074,0.07 -0.074,0.123 0,0.076 0.062,0.139 0.139,0.139 0.023,0 0.035,-0.002 0.056,-0.008 2.248,-0.506 2.98,0.776 3.1,0.981 z m 0.391,0.146 -2.877,1.814 -2.619,-6.689 c 2.344,0.311 5.324,2.131 5.496,4.875 z"
           id="path20738" />
      </g>
    </g>
  </g>
</svg>
