<?xml version="1.0" encoding="utf-8"?>
<!-- Generator: Adobe Illustrator 18.0.0, SVG Export Plug-In . SVG Version: 6.00 Build 0)  -->
<!DOCTYPE svg PUBLIC "-//W3C//DTD SVG 1.1//EN" "http://www.w3.org/Graphics/SVG/1.1/DTD/svg11.dtd" [
	<!ENTITY ns_flows "http://ns.adobe.com/Flows/1.0/">
	<!ENTITY ns_extend "http://ns.adobe.com/Extensibility/1.0/">
	<!ENTITY ns_ai "http://ns.adobe.com/AdobeIllustrator/10.0/">
	<!ENTITY ns_graphs "http://ns.adobe.com/Graphs/1.0/">
	<!ENTITY st0 "opacity:0.1;">
	<!ENTITY st1 "fill:#010101;">
	<!ENTITY st2 "opacity:0.2;">
]>
<svg version="1.1" id="Layer_1" xmlns:x="&ns_extend;" xmlns:i="&ns_ai;" xmlns:graph="&ns_graphs;"
	 xmlns="http://www.w3.org/2000/svg" xmlns:xlink="http://www.w3.org/1999/xlink" xmlns:a="http://ns.adobe.com/AdobeSVGViewerExtensions/3.0/"
	 x="0px" y="0px" width="25px" height="24px" viewBox="0 0 25 24" style="enable-background:new 0 0 25 24;" xml:space="preserve">
<g style="&st0;">
	<polygon style="&st1;" points="24,22 22,21 21,21 19,22 18,22 16,21 15,21 13,22 12,22 11,22 11,21.5 10,21 9,21 7,22 6,22 4,21 
		4,23 6,24 7,24 9,23 10,23 12,24 13,24 15,23 16,23 18,24 19,24 21,23 22,23 24,24 25,24 25,22 	"/>
	<path style="&st1;" d="M12.7,19.5l-2.5-2.4C10.1,17,9.9,17,9.7,17H7l-0.4-1H6v-1h0.2L6,14.4h1.4c0,0,0.3,0,0.4-0.1l2.3-1
		c0.2-0.1,0.3-0.3,0.3-0.5c0-0.4-0.3-0.7-0.6-0.7c-0.1,0-0.2,0-0.2,0l-2.1,1h-3c-0.1,0-0.2,0-0.4,0.1V14H3.1C3,14.1,3,14.2,3,14.4
		c0,0.1,0,0.2,0,0.3l1.4,3.2c0.2,0.5,0.7,0.8,1.2,0.8h3.7l2.2,2.1c0.3,0.3,0.9,0.3,1.2,0C13.1,20.4,13.1,19.8,12.7,19.5z"/>
	<path style="&st1;" d="M9,2l7.1,18l7.9-4.9C23.5,7.7,15.4,2.8,9,2z M20,12c-1.5,0-6,0-6,0v-1c0,0,4.5,0,6,0c1.8,0,3,2,3,2v1h-1
		C22,14,20.8,12,20,12z"/>
	<circle style="&st1;" cx="3.5" cy="11.5" r="1.5"/>
</g>
<g style="&st2;">
	<polygon style="&st1;" points="23,21 21,20 20,20 18,21 17,21 15,20 14,20 12,21 11,21 10,21 10,20.5 9,20 8,20 6,21 5,21 3,20 
		3,22 5,23 6,23 8,22 9,22 11,23 12,23 14,22 15,22 17,23 18,23 20,22 21,22 23,23 24,23 24,21 	"/>
	<path style="&st1;" d="M11.7,18.5l-2.5-2.4C9.1,16,8.9,16,8.7,16H6l-0.4-1H5v-1h0.2L5,13.4h1.4c0,0,0.3,0,0.4-0.1l2.3-1
		c0.2-0.1,0.3-0.3,0.3-0.5c0-0.4-0.3-0.7-0.6-0.7c-0.1,0-0.2,0-0.2,0l-2.1,1h-3c-0.1,0-0.2,0-0.4,0.1V13H2.1C2,13.1,2,13.2,2,13.4
		c0,0.1,0,0.2,0,0.3l1.4,3.2c0.2,0.5,0.7,0.8,1.2,0.8h3.7l2.2,2.1c0.3,0.3,0.9,0.3,1.2,0C12.1,19.4,12.1,18.8,11.7,18.5z"/>
	<path style="&st1;" d="M8,1l7.1,18l7.9-4.9C22.5,6.7,14.4,1.8,8,1z M19,11c-1.5,0-6,0-6,0v-1c0,0,4.5,0,6,0c1.8,0,3,2,3,2v1h-1
		C21,13,19.8,11,19,11z"/>
	<circle style="&st1;" cx="2.5" cy="10.5" r="1.5"/>
</g>
<g>
	<polygon style="&st1;" points="22,20 20,19 19,19 17,20 16,20 14,19 13,19 11,20 10,20 9,20 9,19.5 8,19 7,19 5,20 4,20 2,19 2,21 
		4,22 5,22 7,21 8,21 10,22 11,22 13,21 14,21 16,22 17,22 19,21 20,21 22,22 23,22 23,20 	"/>
	<path style="&st1;" d="M10.7,17.5l-2.5-2.4C8.1,15,7.9,15,7.7,15H5l-0.4-1H4v-1h0.2L4,12.4h1.4c0,0,0.3,0,0.4-0.1l2.3-1
		c0.2-0.1,0.3-0.3,0.3-0.5c0-0.4-0.3-0.7-0.6-0.7c-0.1,0-0.2,0-0.2,0l-2.1,1h-3c-0.1,0-0.2,0-0.4,0.1V12H1.1C1,12.1,1,12.2,1,12.4
		c0,0.1,0,0.2,0,0.3l1.4,3.2c0.2,0.5,0.7,0.8,1.2,0.8h3.7l2.2,2.1c0.3,0.3,0.9,0.3,1.2,0C11.1,18.4,11.1,17.8,10.7,17.5z"/>
	<path style="&st1;" d="M7,0l7.1,18l7.9-4.9C21.5,5.7,13.4,0.8,7,0z M18,10c-1.5,0-6,0-6,0V9c0,0,4.5,0,6,0c1.8,0,3,2,3,2v1h-1
		C20,12,18.8,10,18,10z"/>
	<circle style="&st1;" cx="1.5" cy="9.5" r="1.5"/>
</g>
</svg>
