<?xml version="1.0" encoding="utf-8"?>
<!-- Generator: Adobe Illustrator 18.1.1, SVG Export Plug-In . SVG Version: 6.00 Build 0)  -->
<svg version="1.1" xmlns="http://www.w3.org/2000/svg" xmlns:xlink="http://www.w3.org/1999/xlink" x="0px" y="0px"
	 viewBox="0 0 18 18" enable-background="new 0 0 18 18" xml:space="preserve">
<g id="shadows">
	<polygon opacity="0.2" points="16.185,14.337 15.054,13.772 14.489,13.772 13.359,14.337 12.794,14.337 11.663,13.772 
		11.098,13.772 9.967,14.337 9.402,14.337 8.837,14.337 8.837,14.055 8.272,13.772 7.706,13.772 6.576,14.337 6.01,14.337 
		4.88,13.772 4.88,14.902 6.01,15.467 6.576,15.467 7.706,14.902 8.272,14.902 9.402,15.467 9.967,15.467 11.098,14.902 
		11.663,14.902 12.794,15.467 13.359,15.467 14.489,14.902 15.054,14.902 16.185,15.467 16.75,15.467 16.75,14.337 	"/>
	<path opacity="0.2" d="M9.813,12.927l-1.4-1.338c-0.087-0.076-0.185-0.078-0.326-0.078H6.575l-0.214-0.565H6.01V10.38h0.138
		L6.01,10.017h0.772c0,0,0.16-0.009,0.246-0.077l1.281-0.58c0.095-0.067,0.159-0.18,0.159-0.305c0-0.202-0.165-0.37-0.368-0.37
		c-0.051,0-0.099,0.012-0.118,0.025L6.804,9.25H5.087c-0.072,0-0.141,0.013-0.207,0.032v0.533H4.349
		c-0.02,0.069-0.035,0.14-0.035,0.216c0,0.064,0.008,0.124,0.023,0.186l0.783,1.794c0.122,0.269,0.391,0.455,0.703,0.455h2.113
		l1.216,1.175c0.195,0.183,0.502,0.171,0.686-0.025C10.02,13.418,10.009,13.11,9.813,12.927"/>
	<path opacity="0.2" d="M7.706,3.033l4.041,10.174l4.438-2.759C15.92,6.274,11.322,3.506,7.706,3.033 M13.924,8.685h-3.392V8.12
		h3.392c1.013,0,1.696,1.13,1.696,1.13v0.565h-0.565C15.054,9.815,14.395,8.685,13.924,8.685"/>
	<path opacity="0.2" d="M5.446,8.402c0,0.468-0.38,0.848-0.848,0.848C4.13,9.25,3.75,8.87,3.75,8.402
		c0-0.468,0.38-0.848,0.848-0.848C5.065,7.555,5.446,7.934,5.446,8.402"/>
</g>
<g id="icons">
	<polygon points="15.435,13.587 14.304,13.022 13.739,13.022 12.609,13.587 12.044,13.587 10.913,13.022 10.348,13.022 
		9.217,13.587 8.652,13.587 8.087,13.587 8.087,13.305 7.522,13.022 6.956,13.022 5.826,13.587 5.26,13.587 4.13,13.022 
		4.13,14.152 5.26,14.717 5.826,14.717 6.956,14.152 7.522,14.152 8.652,14.717 9.217,14.717 10.348,14.152 10.913,14.152 
		12.044,14.717 12.609,14.717 13.739,14.152 14.304,14.152 15.435,14.717 16,14.717 16,13.587 	"/>
	<path d="M9.063,12.177l-1.4-1.338c-0.087-0.076-0.185-0.078-0.326-0.078H5.825l-0.214-0.565H5.26V9.63h0.138L5.26,9.267h0.772
		c0,0,0.16-0.009,0.246-0.077l1.281-0.58c0.095-0.067,0.159-0.18,0.159-0.305c0-0.202-0.165-0.37-0.368-0.37
		c-0.051,0-0.099,0.012-0.118,0.025L6.054,8.5H4.337c-0.072,0-0.141,0.013-0.207,0.032v0.533H3.599
		c-0.02,0.069-0.035,0.14-0.035,0.216c0,0.064,0.008,0.124,0.023,0.186l0.783,1.794c0.122,0.269,0.391,0.455,0.703,0.455h2.113
		l1.216,1.175c0.195,0.183,0.502,0.171,0.686-0.025C9.27,12.668,9.259,12.36,9.063,12.177"/>
	<path d="M6.956,2.283l4.041,10.174l4.438-2.759C15.17,5.524,10.572,2.756,6.956,2.283 M13.174,7.935H9.782V7.37h3.392
		c1.013,0,1.696,1.13,1.696,1.13v0.565h-0.565C14.304,9.065,13.645,7.935,13.174,7.935"/>
	<path d="M4.696,7.652c0,0.468-0.38,0.848-0.848,0.848C3.38,8.5,3,8.12,3,7.652c0-0.468,0.38-0.848,0.848-0.848
		C4.315,6.805,4.696,7.184,4.696,7.652"/>
</g>
</svg>
