<?xml version="1.0" encoding="UTF-8" standalone="no"?>
<svg width="18px" height="18px" viewBox="0 0 18 18" version="1.1" xmlns="http://www.w3.org/2000/svg" xmlns:xlink="http://www.w3.org/1999/xlink" xmlns:sketch="http://www.bohemiancoding.com/sketch/ns">
    <!-- Generator: Sketch 3.2.2 (9983) - http://www.bohemiancoding.com/sketch -->
    <title>windsurfing-black-18</title>
    <desc>Created with Sketch.</desc>
    <defs></defs>
    <g id="Page-1" stroke="none" stroke-width="1" fill="none" fill-rule="evenodd" sketch:type="MSPage">
        <path d="M18.2962963,16.5992937 L16.8148148,15.869329 L16.0740741,15.869329 L14.5925926,16.5992937 L13.8518519,16.5992937 L12.3703704,15.869329 L11.6296296,15.869329 L10.1481481,16.5992937 L8.66666667,16.5992937 L8.66666667,16.2343113 L7.92592593,15.869329 L7.18518519,15.869329 L5.7037037,16.5992937 L4.96296296,16.5992937 L3.48148148,15.869329 L3.48148148,17.3292584 L4.96296296,18.059223 L5.7037037,18.059223 L7.18518519,17.3292584 L7.92592593,17.3292584 L9.40740741,18.059223 L10.1481481,18.059223 L11.6296296,17.3292584 L12.3703704,17.3292584 L13.8518519,18.059223 L14.5925926,18.059223 L16.0740741,17.3292584 L16.8148148,17.3292584 L18.2962963,18.059223 L19.037037,18.059223 L19.037037,16.5992937 L18.2962963,16.5992937" id="Fill-497" opacity="0.1" fill="#0A0B09" sketch:type="MSShapeGroup"></path>
        <path d="M9.94814815,14.7816816 L8.11111111,13.0516653 C8,12.9494703 7.86666667,12.9494703 7.68148148,12.9494703 L5.7037037,12.9494703 L5.42222222,12.2195056 L4.96296296,12.2195056 L4.96296296,11.4895409 L5.14074074,11.4895409 L4.96296296,11.0223635 L5.97777778,11.0223635 C5.97777778,11.0223635 6.18518519,11.0077642 6.2962963,10.9201684 L7.97777778,10.1756045 C8.0962963,10.0880087 8.18518519,9.94201576 8.18518519,9.78142353 C8.18518519,9.51863624 7.97037037,9.29964684 7.7037037,9.29964684 C7.63703704,9.29964684 7.57037037,9.32154578 7.54814815,9.33614507 L6,10.0296115 L3.75555556,10.0296115 C3.65925926,10.0296115 3.57037037,10.0515105 3.48148148,10.0734094 L3.48148148,10.7595762 L2.78518519,10.7595762 C2.75555556,10.847172 2.74074074,10.9420674 2.74074074,11.0369628 C2.74074074,11.1245585 2.74814815,11.2048547 2.77037037,11.2778511 L3.79259259,13.5991388 C3.95555556,13.9422222 4.31111111,14.1831106 4.71851852,14.1831106 L7.48888889,14.1831106 L9.08148148,15.7014371 C9.33333333,15.9423255 9.74074074,15.9204265 9.97777778,15.6722385 C10.2148148,15.4167509 10.2,15.0152703 9.94814815,14.7816816" id="Fill-498" opacity="0.1" fill="#0A0B09" sketch:type="MSShapeGroup"></path>
        <path d="M15.3333333,9.29964684 L10.8888889,9.29964684 L10.8888889,8.56968215 L15.3333333,8.56968215 C16.6592593,8.56968215 17.5555556,10.0296115 17.5555556,10.0296115 L17.5555556,10.7595762 L16.8148148,10.7595762 C16.8148148,10.7595762 15.9481481,9.29964684 15.3333333,9.29964684 L15.3333333,9.29964684 Z M7.18518519,2 L12.4814815,15.1393643 L18.2962963,11.5771366 C17.9481481,6.18999728 11.9259259,2.61317033 7.18518519,2 L7.18518519,2 Z" id="Fill-499" opacity="0.1" fill="#0A0B09" sketch:type="MSShapeGroup"></path>
        <path d="M4.22222222,8.93466449 C4.22222222,9.54053518 3.72592593,10.0296115 3.11111111,10.0296115 C2.4962963,10.0296115 2,9.54053518 2,8.93466449 C2,8.32879381 2.4962963,7.83971747 3.11111111,7.83971747 C3.72592593,7.83971747 4.22222222,8.32879381 4.22222222,8.93466449" id="Fill-500" opacity="0.1" fill="#0A0B09" sketch:type="MSShapeGroup"></path>
        <path d="M17.2962963,15.5992937 L15.8148148,14.869329 L15.0740741,14.869329 L13.5925926,15.5992937 L12.8518519,15.5992937 L11.3703704,14.869329 L10.6296296,14.869329 L9.14814815,15.5992937 L7.66666667,15.5992937 L7.66666667,15.2343113 L6.92592593,14.869329 L6.18518519,14.869329 L4.7037037,15.5992937 L3.96296296,15.5992937 L2.48148148,14.869329 L2.48148148,16.3292584 L3.96296296,17.059223 L4.7037037,17.059223 L6.18518519,16.3292584 L6.92592593,16.3292584 L8.40740741,17.059223 L9.14814815,17.059223 L10.6296296,16.3292584 L11.3703704,16.3292584 L12.8518519,17.059223 L13.5925926,17.059223 L15.0740741,16.3292584 L15.8148148,16.3292584 L17.2962963,17.059223 L18.037037,17.059223 L18.037037,15.5992937 L17.2962963,15.5992937" id="Fill-497" opacity="0.2" fill="#0A0B09" sketch:type="MSShapeGroup"></path>
        <path d="M8.94814815,13.7816816 L7.11111111,12.0516653 C7,11.9494703 6.86666667,11.9494703 6.68148148,11.9494703 L4.7037037,11.9494703 L4.42222222,11.2195056 L3.96296296,11.2195056 L3.96296296,10.4895409 L4.14074074,10.4895409 L3.96296296,10.0223635 L4.97777778,10.0223635 C4.97777778,10.0223635 5.18518519,10.0077642 5.2962963,9.92016843 L6.97777778,9.17560446 C7.0962963,9.08800869 7.18518519,8.94201576 7.18518519,8.78142353 C7.18518519,8.51863624 6.97037037,8.29964684 6.7037037,8.29964684 C6.63703704,8.29964684 6.57037037,8.32154578 6.54814815,8.33614507 L5,9.02961152 L2.75555556,9.02961152 C2.65925926,9.02961152 2.57037037,9.05151046 2.48148148,9.0734094 L2.48148148,9.7595762 L1.78518519,9.7595762 C1.75555556,9.84717196 1.74074074,9.94206737 1.74074074,10.0369628 C1.74074074,10.1245585 1.74814815,10.2048547 1.77037037,10.2778511 L2.79259259,12.5991388 C2.95555556,12.9422222 3.31111111,13.1831106 3.71851852,13.1831106 L6.48888889,13.1831106 L8.08148148,14.7014371 C8.33333333,14.9423255 8.74074074,14.9204265 8.97777778,14.6722385 C9.21481481,14.4167509 9.2,14.0152703 8.94814815,13.7816816" id="Fill-498" opacity="0.2" fill="#0A0B09" sketch:type="MSShapeGroup"></path>
        <path d="M14.3333333,8.29964684 L9.88888889,8.29964684 L9.88888889,7.56968215 L14.3333333,7.56968215 C15.6592593,7.56968215 16.5555556,9.02961152 16.5555556,9.02961152 L16.5555556,9.7595762 L15.8148148,9.7595762 C15.8148148,9.7595762 14.9481481,8.29964684 14.3333333,8.29964684 L14.3333333,8.29964684 Z M6.18518519,1 L11.4814815,14.1393643 L17.2962963,10.5771366 C16.9481481,5.18999728 10.9259259,1.61317033 6.18518519,1 L6.18518519,1 Z" id="Fill-499" opacity="0.2" fill="#0A0B09" sketch:type="MSShapeGroup"></path>
        <path d="M3.22222222,7.93466449 C3.22222222,8.54053518 2.72592593,9.02961152 2.11111111,9.02961152 C1.4962963,9.02961152 1,8.54053518 1,7.93466449 C1,7.32879381 1.4962963,6.83971747 2.11111111,6.83971747 C2.72592593,6.83971747 3.22222222,7.32879381 3.22222222,7.93466449" id="Fill-500" opacity="0.2" fill="#0A0B09" sketch:type="MSShapeGroup"></path>
        <path d="M16.2962963,14.5992937 L14.8148148,13.869329 L14.0740741,13.869329 L12.5925926,14.5992937 L11.8518519,14.5992937 L10.3703704,13.869329 L9.62962963,13.869329 L8.14814815,14.5992937 L6.66666667,14.5992937 L6.66666667,14.2343113 L5.92592593,13.869329 L5.18518519,13.869329 L3.7037037,14.5992937 L2.96296296,14.5992937 L1.48148148,13.869329 L1.48148148,15.3292584 L2.96296296,16.059223 L3.7037037,16.059223 L5.18518519,15.3292584 L5.92592593,15.3292584 L7.40740741,16.059223 L8.14814815,16.059223 L9.62962963,15.3292584 L10.3703704,15.3292584 L11.8518519,16.059223 L12.5925926,16.059223 L14.0740741,15.3292584 L14.8148148,15.3292584 L16.2962963,16.059223 L17.037037,16.059223 L17.037037,14.5992937 L16.2962963,14.5992937" id="Fill-497" fill="#0A0B09" sketch:type="MSShapeGroup"></path>
        <path d="M7.94814815,12.7816816 L6.11111111,11.0516653 C6,10.9494703 5.86666667,10.9494703 5.68148148,10.9494703 L3.7037037,10.9494703 L3.42222222,10.2195056 L2.96296296,10.2195056 L2.96296296,9.48954089 L3.14074074,9.48954089 L2.96296296,9.02236349 L3.97777778,9.02236349 C3.97777778,9.02236349 4.18518519,9.00776419 4.2962963,8.92016843 L5.97777778,8.17560446 C6.0962963,8.08800869 6.18518519,7.94201576 6.18518519,7.78142353 C6.18518519,7.51863624 5.97037037,7.29964684 5.7037037,7.29964684 C5.63703704,7.29964684 5.57037037,7.32154578 5.54814815,7.33614507 L4,8.02961152 L1.75555556,8.02961152 C1.65925926,8.02961152 1.57037037,8.05151046 1.48148148,8.0734094 L1.48148148,8.7595762 L0.785185185,8.7595762 C0.755555556,8.84717196 0.740740741,8.94206737 0.740740741,9.03696278 C0.740740741,9.12455854 0.748148148,9.20485466 0.77037037,9.27785113 L1.79259259,11.5991388 C1.95555556,11.9422222 2.31111111,12.1831106 2.71851852,12.1831106 L5.48888889,12.1831106 L7.08148148,13.7014371 C7.33333333,13.9423255 7.74074074,13.9204265 7.97777778,13.6722385 C8.21481481,13.4167509 8.2,13.0152703 7.94814815,12.7816816" id="Fill-498" fill="#0A0B09" sketch:type="MSShapeGroup"></path>
        <path d="M13.3333333,7.29964684 L8.88888889,7.29964684 L8.88888889,6.56968215 L13.3333333,6.56968215 C14.6592593,6.56968215 15.5555556,8.02961152 15.5555556,8.02961152 L15.5555556,8.7595762 L14.8148148,8.7595762 C14.8148148,8.7595762 13.9481481,7.29964684 13.3333333,7.29964684 L13.3333333,7.29964684 Z M5.18518519,0 L10.4814815,13.1393643 L16.2962963,9.57713665 C15.9481481,4.18999728 9.92592593,0.613170334 5.18518519,0 L5.18518519,0 Z" id="Fill-499" fill="#0A0B09" sketch:type="MSShapeGroup"></path>
        <path d="M2.22222222,6.93466449 C2.22222222,7.54053518 1.72592593,8.02961152 1.11111111,8.02961152 C0.496296296,8.02961152 0,7.54053518 0,6.93466449 C0,6.32879381 0.496296296,5.83971747 1.11111111,5.83971747 C1.72592593,5.83971747 2.22222222,6.32879381 2.22222222,6.93466449" id="Fill-500" fill="#0A0B09" sketch:type="MSShapeGroup"></path>
    </g>
</svg>