<?xml version="1.0" encoding="utf-8"?>
<!-- Generator: Adobe Illustrator 18.1.1, SVG Export Plug-In . SVG Version: 6.00 Build 0)  -->
<svg version="1.1" xmlns="http://www.w3.org/2000/svg" xmlns:xlink="http://www.w3.org/1999/xlink" x="0px" y="0px"
	 viewBox="0 0 24 24" enable-background="new 0 0 24 24" xml:space="preserve">
<g id="shadows">
	<polygon opacity="0.2" points="21.261,19.152 19.782,18.413 19.043,18.413 17.565,19.152 16.826,19.152 15.347,18.413 
		14.609,18.413 13.13,19.152 12.391,19.152 11.652,19.152 11.652,18.783 10.913,18.413 10.174,18.413 8.696,19.152 7.956,19.152 
		6.478,18.413 6.478,19.892 7.956,20.63 8.696,20.63 10.174,19.892 10.913,19.892 12.391,20.63 13.13,20.63 14.609,19.892 
		15.347,19.892 16.826,20.63 17.565,20.63 19.043,19.892 19.782,19.892 21.261,20.63 22,20.63 22,19.152 	"/>
	<path opacity="0.2" d="M12.928,17.308l-1.83-1.75c-0.113-0.1-0.241-0.101-0.426-0.101H8.695l-0.279-0.739h-0.46v-0.739h0.181
		l-0.18-0.476h1.009c0,0,0.209-0.012,0.321-0.1l1.675-0.759c0.125-0.088,0.208-0.236,0.208-0.399c0-0.264-0.216-0.484-0.48-0.484
		c-0.066,0-0.13,0.016-0.155,0.033L8.993,12.5H6.749c-0.095,0-0.184,0.018-0.272,0.042v0.697H5.783
		c-0.026,0.09-0.045,0.183-0.045,0.282c0,0.083,0.011,0.163,0.03,0.243l1.024,2.346c0.159,0.353,0.512,0.596,0.918,0.596h2.763
		l1.59,1.537c0.255,0.24,0.656,0.224,0.896-0.032C13.199,17.951,13.184,17.548,12.928,17.308"/>
	<path opacity="0.2" d="M10.174,4.37l5.283,13.304l5.804-3.607C20.914,8.608,14.902,4.988,10.174,4.37 M18.304,11.761h-4.435v-0.739
		h4.435c1.325,0,2.218,1.478,2.218,1.478v0.739h-0.74C19.782,13.239,18.92,11.761,18.304,11.761"/>
	<path opacity="0.2" d="M7.217,11.392c0,0.612-0.497,1.108-1.108,1.108C5.496,12.5,5,12.003,5,11.392
		c0-0.612,0.497-1.109,1.109-1.109C6.72,10.283,7.217,10.779,7.217,11.392"/>
</g>
<g id="icons">
	<polygon points="20.261,18.152 18.783,17.413 18.044,17.413 16.565,18.152 15.826,18.152 14.348,17.413 13.609,17.413 
		12.13,18.152 11.391,18.152 10.652,18.152 10.652,17.783 9.913,17.413 9.174,17.413 7.696,18.152 6.957,18.152 5.478,17.413 
		5.478,18.892 6.957,19.63 7.696,19.63 9.174,18.892 9.913,18.892 11.391,19.63 12.13,19.63 13.609,18.892 14.348,18.892 
		15.826,19.63 16.565,19.63 18.044,18.892 18.783,18.892 20.261,19.63 21,19.63 21,18.152 	"/>
	<path d="M11.928,16.308l-1.83-1.75c-0.113-0.1-0.241-0.101-0.426-0.101H7.695l-0.279-0.739h-0.46v-0.739h0.181l-0.18-0.476h1.009
		c0,0,0.209-0.012,0.321-0.1l1.675-0.759c0.125-0.088,0.208-0.236,0.208-0.399c0-0.264-0.216-0.484-0.48-0.484
		c-0.066,0-0.13,0.016-0.155,0.033L7.994,11.5H5.749c-0.095,0-0.184,0.018-0.272,0.042v0.697H4.783
		c-0.026,0.09-0.045,0.183-0.045,0.282c0,0.083,0.011,0.163,0.03,0.243l1.024,2.346c0.159,0.353,0.512,0.596,0.918,0.596h2.763
		l1.59,1.537c0.255,0.24,0.656,0.224,0.896-0.032C12.199,16.951,12.185,16.548,11.928,16.308"/>
	<path d="M9.174,3.37l5.283,13.304l5.804-3.607C19.914,7.608,13.902,3.988,9.174,3.37 M17.304,10.761H12.87v-0.739h4.435
		c1.325,0,2.218,1.478,2.218,1.478v0.739h-0.74C18.783,12.239,17.92,10.761,17.304,10.761"/>
	<path d="M6.217,10.392c0,0.612-0.497,1.108-1.108,1.108C4.497,11.5,4,11.003,4,10.392c0-0.612,0.497-1.109,1.109-1.109
		C5.72,9.283,6.217,9.779,6.217,10.392"/>
</g>
</svg>
