<?xml version="1.0" encoding="utf-8"?>
<!-- Generator: Adobe Illustrator 16.0.0, SVG Export Plug-In . SVG Version: 6.00 Build 0)  -->
<!DOCTYPE svg PUBLIC "-//W3C//DTD SVG 1.1//EN" "http://www.w3.org/Graphics/SVG/1.1/DTD/svg11.dtd">
<svg version="1.1" id="Layer_1" xmlns="http://www.w3.org/2000/svg" xmlns:xlink="http://www.w3.org/1999/xlink" x="0px" y="0px"
	 width="18px" height="18px" viewBox="0 0 18 18" enable-background="new 0 0 18 18" xml:space="preserve">
<g opacity="0.2">
	<polygon points="15.935,13.804 14.804,13.239 14.239,13.239 13.109,13.804 12.543,13.804 11.413,13.239 10.848,13.239 
		9.717,13.804 9.152,13.804 8.587,13.804 8.587,13.522 8.022,13.239 7.457,13.239 6.326,13.804 5.761,13.804 4.63,13.239 
		4.63,14.37 5.761,14.935 6.326,14.935 7.457,14.37 8.022,14.37 9.152,14.935 9.717,14.935 10.848,14.37 11.413,14.37 
		12.543,14.935 13.109,14.935 14.239,14.37 14.804,14.37 15.935,14.935 16.5,14.935 16.5,13.804 	"/>
	<path d="M9.563,12.394l-1.4-1.338c-0.087-0.076-0.185-0.078-0.326-0.078H6.326l-0.214-0.565H5.76V9.848h0.138L5.761,9.484h0.772
		c0,0,0.16-0.009,0.246-0.077l1.281-0.58c0.095-0.067,0.159-0.18,0.159-0.305c0-0.202-0.165-0.37-0.368-0.37
		c-0.051,0-0.099,0.012-0.118,0.025l-1.178,0.54H4.837c-0.072,0-0.141,0.013-0.208,0.032v0.533H4.099
		c-0.02,0.069-0.035,0.14-0.035,0.216c0,0.064,0.008,0.125,0.023,0.186l0.783,1.794c0.122,0.269,0.391,0.455,0.703,0.455h2.113
		l1.216,1.175c0.195,0.183,0.501,0.171,0.686-0.025C9.77,12.886,9.759,12.577,9.563,12.394"/>
	<path d="M7.457,2.5l4.04,10.174l4.438-2.759C15.669,5.741,11.072,2.973,7.457,2.5 M13.674,8.152h-3.391V7.587h3.391
		c1.013,0,1.696,1.13,1.696,1.13v0.565h-0.565C14.804,9.283,14.145,8.152,13.674,8.152"/>
	<path d="M5.196,7.87c0,0.468-0.38,0.848-0.848,0.848S3.5,8.337,3.5,7.87c0-0.468,0.38-0.848,0.848-0.848S5.196,7.401,5.196,7.87"/>
	<rect x="3.5" y="2.5" fill="none" width="13" height="12.435"/>
</g>
<polygon fill="#FFFFFF" points="15.435,13.304 14.305,12.739 13.74,12.739 12.609,13.304 12.044,13.304 10.914,12.739 
	10.348,12.739 9.217,13.304 8.652,13.304 8.087,13.304 8.087,13.022 7.522,12.739 6.957,12.739 5.826,13.304 5.261,13.304 
	4.13,12.739 4.13,13.87 5.261,14.435 5.826,14.435 6.957,13.87 7.522,13.87 8.652,14.435 9.217,14.435 10.348,13.87 10.914,13.87 
	12.044,14.435 12.609,14.435 13.74,13.87 14.305,13.87 15.435,14.435 16,14.435 16,13.304 "/>
<path fill="#FFFFFF" d="M9.063,11.894l-1.4-1.338c-0.087-0.076-0.185-0.078-0.326-0.078H5.826L5.612,9.913H5.26V9.348h0.138
	L5.261,8.984h0.772c0,0,0.16-0.009,0.246-0.077l1.281-0.58c0.095-0.067,0.159-0.18,0.159-0.305c0-0.202-0.165-0.37-0.368-0.37
	c-0.051,0-0.099,0.012-0.118,0.025l-1.178,0.54H4.337c-0.072,0-0.141,0.013-0.208,0.032v0.533H3.599
	c-0.02,0.069-0.035,0.14-0.035,0.216c0,0.064,0.008,0.125,0.023,0.186l0.783,1.794c0.122,0.269,0.391,0.455,0.703,0.455h2.113
	l1.216,1.175c0.195,0.183,0.501,0.171,0.686-0.025C9.27,12.386,9.259,12.077,9.063,11.894"/>
<path fill="#FFFFFF" d="M6.957,2l4.041,10.174l4.438-2.759C15.17,5.241,10.572,2.473,6.957,2 M13.174,7.652H9.783V7.087h3.392
	c1.013,0,1.696,1.13,1.696,1.13v0.565h-0.565C14.305,8.783,13.645,7.652,13.174,7.652"/>
<path fill="#FFFFFF" d="M4.696,7.37c0,0.468-0.38,0.848-0.848,0.848S3,7.837,3,7.37c0-0.468,0.38-0.848,0.848-0.848
	S4.696,6.901,4.696,7.37"/>
</svg>
