<?xml version="1.0" encoding="utf-8"?>
<!-- Generator: Adobe Illustrator 18.1.1, SVG Export Plug-In . SVG Version: 6.00 Build 0)  -->
<svg version="1.1" xmlns="http://www.w3.org/2000/svg" xmlns:xlink="http://www.w3.org/1999/xlink" x="0px" y="0px"
	 viewBox="0 0 12 12" enable-background="new 0 0 12 12" xml:space="preserve">
<g id="shadows">
	<g opacity="0.2">
		<polygon points="10.857,9.857 10.214,9.857 8.929,9.214 8.286,9.214 7,9.857 6.357,9.857 5.714,9.857 5.714,9.536 5.071,9.214 
			4.429,9.214 3.143,9.857 2.5,9.857 2.5,10.5 3.143,10.5 4.429,9.857 5.071,9.857 6.357,10.5 7,10.5 8.286,9.857 8.929,9.857 
			10.214,10.5 10.857,10.5 11.5,10.179 11.5,9.857 11.5,9.536 		"/>
		<path d="M3.786,6.643H3.148v0.114l0.443,1.24c0.085,0.186,0.276,0.314,0.495,0.314h0.986v0.259h0.643V8.448l0.712,0.677
			C6.564,9.25,6.779,9.243,6.908,9.107C7.037,8.97,7.029,8.756,6.891,8.63L5.907,7.705c-0.061-0.053-0.13-0.086-0.229-0.086H5.071
			V7.286H4.447V7.144L4.218,6.66h0.229H4.76c0,0,0.112-0.047,0.172-0.094l0.782-0.348V5.704L5.687,5.699L5.604,5.715L4.775,6.017
			H3.786V6.643z"/>
		<path d="M7.643,7.929v0.167l0.186,0.476l3.028-1.917C10.675,3.752,7.539,1.828,5.071,1.5l2.506,6.429H7.643z"/>
		<rect x="2.5" y="4.714" width="1.286" height="1.286"/>
		<rect x="2.5" y="1.5" fill="none" width="9" height="9"/>
	</g>
</g>
<g id="icons">
	<polygon points="10.357,9.357 9.714,9.357 8.429,8.714 7.786,8.714 6.5,9.357 5.857,9.357 5.214,9.357 5.214,9.036 4.571,8.714 
		3.929,8.714 2.643,9.357 2,9.357 2,10 2.643,10 3.929,9.357 4.571,9.357 5.857,10 6.5,10 7.786,9.357 8.429,9.357 9.714,10 
		10.357,10 11,9.679 11,9.357 11,9.036 	"/>
	<path d="M3.286,6.143H2.648v0.114l0.443,1.24c0.085,0.186,0.276,0.314,0.495,0.314h0.986v0.259h0.643V7.948l0.712,0.677
		C6.064,8.75,6.279,8.743,6.408,8.607C6.537,8.47,6.529,8.256,6.391,8.13L5.407,7.205c-0.061-0.053-0.13-0.086-0.229-0.086H4.571
		V6.786H3.947V6.644L3.718,6.16h0.229H4.26c0,0,0.112-0.047,0.172-0.094l0.782-0.348V5.204L5.187,5.199L5.104,5.215L4.275,5.517
		H3.286V6.143z"/>
	<path d="M7.143,7.429v0.167l0.186,0.476l3.028-1.917C10.175,3.252,7.039,1.328,4.571,1l2.506,6.429H7.143z"/>
	<rect x="2" y="4.214" width="1.286" height="1.286"/>
</g>
</svg>
