<?xml version="1.0" encoding="UTF-8" standalone="no"?>
<!-- Created with Inkscape (http://www.inkscape.org/) -->

<svg
   xmlns:dc="http://purl.org/dc/elements/1.1/"
   xmlns:cc="http://creativecommons.org/ns#"
   xmlns:rdf="http://www.w3.org/1999/02/22-rdf-syntax-ns#"
   xmlns:svg="http://www.w3.org/2000/svg"
   xmlns="http://www.w3.org/2000/svg"
   xmlns:inkscape="http://www.inkscape.org/namespaces/inkscape"
   version="1.1"
   width="18"
   height="18"
   id="svg4619">
  <defs
     id="defs4621" />
  <metadata
     id="metadata4624">
    <rdf:RDF>
      <cc:Work
         rdf:about="">
        <dc:format>image/svg+xml</dc:format>
        <dc:type
           rdf:resource="http://purl.org/dc/dcmitype/StillImage" />
        <dc:title />
      </cc:Work>
    </rdf:RDF>
  </metadata>
  <g
     transform="translate(0,-1034.3622)"
     id="layer1">
    <g
       transform="translate(-186,-136)"
       id="zoo-18"
       style="display:inline">
      <g
         id="g21693">
        <path
           d="m 199,1172.3622 c -1.33333,2 -1.52281,3.6701 -3,5 -1.41109,1.2703 -4,0.8342 -4,2.6667 l 0,0.6666 c 0,0.6667 0.66667,1.301 0.66667,2 l 0,0.6667 c 0,1 -0.33334,1 -0.66667,2 l 0.66667,0 1.33333,-2 0,2 1,0 0,-4 1,0 0,4 1,0 0,-3 1,3 0.66667,0 -1.02084,-4.1875 c 0.393,-0.2398 0.35417,-0.6831 0.35417,-1.1458 0,-0.6214 0,-1.3334 0,-2 l 1.5,-3.6667 1.5,0.5 c 0,-0.047 -5.2e-4,-0.462 0,-0.5 0,0 -0.24351,-0.2435 -0.33333,-0.3333 z"
           inkscape:connector-curvature="0"
           id="path10516"
           style="opacity:0.3;color:#000000;fill:#444444;fill-opacity:1;fill-rule:nonzero;stroke:#ffffff;stroke-width:2;stroke-linecap:round;stroke-linejoin:round;stroke-miterlimit:4;stroke-opacity:1;stroke-dasharray:none;stroke-dashoffset:0;marker:none;visibility:visible;display:inline;overflow:visible;enable-background:accumulate" />
        <path
           d="m 199,1172.3622 c -1.33333,2 -1.52281,3.6701 -3,5 -1.41109,1.2703 -4,0.8342 -4,2.6667 l 0,0.6666 c 0,0.6667 0.66667,1.301 0.66667,2 l 0,0.6667 c 0,1 -0.33334,1 -0.66667,2 l 0.66667,0 1.33333,-2 0,2 1,0 0,-4 1,0 0,4 1,0 0,-3 1,3 0.66667,0 -1.02084,-4.1875 c 0.393,-0.2398 0.35417,-0.6831 0.35417,-1.1458 0,-0.6214 0,-1.3334 0,-2 l 1.5,-3.6667 1.5,0.5 c 0,-0.047 -5.2e-4,-0.462 0,-0.5 0,0 -0.24351,-0.2435 -0.33333,-0.3333 z"
           inkscape:connector-curvature="0"
           id="path10847-43-3-9-9"
           style="color:#000000;fill:#444444;fill-opacity:1;fill-rule:nonzero;stroke:none;stroke-width:2;marker:none;visibility:visible;display:inline;overflow:visible;enable-background:accumulate" />
      </g>
    </g>
  </g>
  <rect
     width="18"
     height="18"
     x="0"
     y="0"
     id="canvas"
     style="fill:none;stroke:none;visibility:hidden" />
</svg>
